<?xml version="1.0" encoding="utf-8" ?>
<svg baseProfile="full" height="100%" version="1.1" viewBox="0.5 0.5 685.793960571 941.299331665" width="100%" xmlns="http://www.w3.org/2000/svg" xmlns:ev="http://www.w3.org/2001/xml-events" xmlns:xlink="http://www.w3.org/1999/xlink"><defs /><line stroke="rgb(0%,0%,0%)" x1="658.985770644" x2="657.940699194" y1="324.812915294" y2="321.381279061" /><line stroke="rgb(0%,0%,0%)" x1="672.251045523" x2="670.40830208" y1="360.325015674" y2="354.132103441" /><line stroke="rgb(0%,0%,0%)" x1="670.426949518" x2="667.553578452" y1="352.544901035" y2="346.900498058" /><line stroke="rgb(0%,0%,0%)" x1="667.553578452" x2="666.095694893" y1="346.900498058" y2="344.022463018" /><line stroke="rgb(0%,0%,0%)" x1="666.095694893" x2="664.466748924" y1="344.022463018" y2="338.737802006" /><line stroke="rgb(0%,0%,0%)" x1="685.050821827" x2="684.048049193" y1="450.095897825" y2="440.358550518" /><line stroke="rgb(0%,0%,0%)" x1="683.557669769" x2="682.604663205" y1="423.34515205" y2="406.940044196" /><line stroke="rgb(0%,0%,0%)" x1="682.296515266" x2="681.670369607" y1="404.874820065" y2="402.294224616" /><line stroke="rgb(0%,0%,0%)" x1="681.670369607" x2="681.319569181" y1="402.294224616" y2="400.172821139" /><line stroke="rgb(0%,0%,0%)" x1="674.345754848" x2="677.873322101" y1="370.779302663" y2="383.636480785" /><line stroke="rgb(0%,0%,0%)" x1="674.345754848" x2="673.964658824" y1="370.779302663" y2="369.397551415" /><line stroke="rgb(0%,0%,0%)" x1="630.602997627" x2="623.828443051" y1="254.957397583" y2="241.289641486" /><line stroke="rgb(0%,0%,0%)" x1="623.828443051" x2="621.691542099" y1="241.289641486" y2="236.83877017" /><line stroke="rgb(0%,0%,0%)" x1="637.284877566" x2="636.732568169" y1="271.010474245" y2="269.048611876" /><line stroke="rgb(0%,0%,0%)" x1="631.149970852" x2="632.887974958" y1="257.332245609" y2="259.915529415" /><line stroke="rgb(0%,0%,0%)" x1="636.732568169" x2="632.887974958" y1="269.048611876" y2="259.915529415" /><line stroke="rgb(0%,0%,0%)" x1="631.149970852" x2="630.602997627" y1="257.332245609" y2="254.957397583" /><line stroke="rgb(0%,0%,0%)" x1="657.940699194" x2="656.271517265" y1="321.381279061" y2="317.66974368" /><line stroke="rgb(0%,0%,0%)" x1="656.271517265" x2="653.410657493" y1="317.66974368" y2="309.925591763" /><line stroke="rgb(0%,0%,0%)" x1="670.40830208" x2="670.426949518" y1="354.132103441" y2="352.544901035" /><line stroke="rgb(0%,0%,0%)" x1="683.386240075" x2="683.557669769" y1="424.465092506" y2="423.34515205" /><line stroke="rgb(0%,0%,0%)" x1="679.108828701" x2="677.873322101" y1="386.931973482" y2="383.636480785" /><line stroke="rgb(0%,0%,0%)" x1="672.547660941" x2="673.964658824" y1="363.1570303" y2="369.397551415" /><line stroke="rgb(0%,0%,0%)" x1="672.547660941" x2="672.251045523" y1="363.1570303" y2="360.325015674" /><line stroke="rgb(0%,0%,0%)" x1="683.512226248" x2="683.386240075" y1="425.849939024" y2="424.465092506" /><line stroke="rgb(0%,0%,0%)" x1="603.907476896" x2="598.646853058" y1="211.27711547" y2="200.015091284" /><line stroke="rgb(0%,0%,0%)" x1="598.646853058" x2="598.026550027" y1="200.015091284" y2="198.754958311" /><line stroke="rgb(0%,0%,0%)" x1="597.230292694" x2="597.105433389" y1="197.303910939" y2="197.00785037" /><line stroke="rgb(0%,0%,0%)" x1="620.742480352" x2="617.328824179" y1="235.119117759" y2="230.048318782" /><line stroke="rgb(0%,0%,0%)" x1="621.691542099" x2="620.742480352" y1="236.83877017" y2="235.119117759" /><line stroke="rgb(0%,0%,0%)" x1="584.251706398" x2="588.418455601" y1="165.03466863" y2="173.069426601" /><line stroke="rgb(0%,0%,0%)" x1="584.251706398" x2="583.423647135" y1="165.03466863" y2="163.952901417" /><line stroke="rgb(0%,0%,0%)" x1="583.423647135" x2="582.681846677" y1="163.952901417" y2="163.025496279" /><line stroke="rgb(0%,0%,0%)" x1="598.026550027" x2="597.230292694" y1="198.754958311" y2="197.303910939" /><line stroke="rgb(0%,0%,0%)" x1="588.729421924" x2="588.418455601" y1="173.760208146" y2="173.069426601" /><line stroke="rgb(0%,0%,0%)" x1="521.981245322" x2="504.710909078" y1="127.150968257" y2="120.217552003" /><line stroke="rgb(0%,0%,0%)" x1="527.093203473" x2="521.981245322" y1="129.050825123" y2="127.150968257" /><line stroke="rgb(0%,0%,0%)" x1="534.201947587" x2="527.093203473" y1="131.464486144" y2="129.050825123" /><line stroke="rgb(0%,0%,0%)" x1="469.766062448" x2="466.012611123" y1="106.323593338" y2="104.961180763" /><line stroke="rgb(0%,0%,0%)" x1="503.125804519" x2="500.518474469" y1="119.834376104" y2="118.625815445" /><line stroke="rgb(0%,0%,0%)" x1="504.710909078" x2="503.125804519" y1="120.217552003" y2="119.834376104" /><line stroke="rgb(0%,0%,0%)" x1="472.243309285" x2="469.766062448" y1="107.332433642" y2="106.323593338" /><line stroke="rgb(0%,0%,0%)" x1="388.129224633" x2="393.420488569" y1="99.0802002768" y2="96.3934955403" /><line stroke="rgb(0%,0%,0%)" x1="406.139246803" x2="396.693390023" y1="94.0452064033" y2="95.3882119013" /><line stroke="rgb(0%,0%,0%)" x1="425.141902433" x2="418.249665849" y1="94.5221804164" y2="94.2896730635" /><line stroke="rgb(0%,0%,0%)" x1="426.91599841" x2="425.141902433" y1="95.1113201154" y2="94.5221804164" /><line stroke="rgb(0%,0%,0%)" x1="429.367168838" x2="426.91599841" y1="94.9560203375" y2="95.1113201154" /><line stroke="rgb(0%,0%,0%)" x1="360.408128342" x2="357.968110307" y1="124.870213541" y2="128.138863686" /><line stroke="rgb(0%,0%,0%)" x1="379.10754958" x2="375.899407068" y1="104.812573844" y2="107.046070026" /><line stroke="rgb(0%,0%,0%)" x1="388.129224633" x2="379.10754958" y1="99.0802002768" y2="104.812573844" /><line stroke="rgb(0%,0%,0%)" x1="344.777872187" x2="340.732399782" y1="149.905057335" y2="157.594915322" /><line stroke="rgb(0%,0%,0%)" x1="394.433398758" x2="393.420488569" y1="96.0733968764" y2="96.3934955403" /><line stroke="rgb(0%,0%,0%)" x1="396.693390023" x2="394.433398758" y1="95.3882119013" y2="96.0733968764" /><line stroke="rgb(0%,0%,0%)" x1="301.137715328" x2="297.15615846" y1="200.892724707" y2="212.420552326" /><line stroke="rgb(0%,0%,0%)" x1="303.045467427" x2="301.137715328" y1="197.42830074" y2="200.892724707" /><line stroke="rgb(0%,0%,0%)" x1="259.496427058" x2="258.517150642" y1="386.352958052" y2="389.99357577" /><line stroke="rgb(0%,0%,0%)" x1="277.949408323" x2="274.822655466" y1="437.109257175" y2="437.577518113" /><line stroke="rgb(0%,0%,0%)" x1="277.949408323" x2="281.569711998" y1="437.109257175" y2="437.416540529" /><line stroke="rgb(0%,0%,0%)" x1="270.68808653" x2="274.822655466" y1="438.839554357" y2="437.577518113" /><line stroke="rgb(0%,0%,0%)" x1="281.963228334" x2="287.040266293" y1="437.50566497" y2="441.681194415" /><line stroke="rgb(0%,0%,0%)" x1="298.073829781" x2="299.277081015" y1="253.518215628" y2="260.150129055" /><line stroke="rgb(0%,0%,0%)" x1="297.151447809" x2="297.148685007" y1="212.435018478" y2="212.481612505" /><line stroke="rgb(0%,0%,0%)" x1="297.15615846" x2="297.151447809" y1="212.420552326" y2="212.435018478" /><line stroke="rgb(0%,0%,0%)" x1="242.541998648" x2="253.454194278" y1="354.790314154" y2="354.782123076" /><line stroke="rgb(0%,0%,0%)" x1="248.600528289" x2="247.676008456" y1="444.011296527" y2="443.573799393" /><line stroke="rgb(0%,0%,0%)" x1="246.389664675" x2="247.676008456" y1="443.478880102" y2="443.573799393" /><line stroke="rgb(0%,0%,0%)" x1="254.864071499" x2="257.487535541" y1="443.859766033" y2="443.843135415" /><line stroke="rgb(0%,0%,0%)" x1="243.268514395" x2="246.389664675" y1="439.763459721" y2="443.478880102" /><line stroke="rgb(0%,0%,0%)" x1="249.292235593" x2="248.696938925" y1="411.547953736" y2="412.358956776" /><line stroke="rgb(0%,0%,0%)" x1="248.696938925" x2="246.923048748" y1="412.358956776" y2="415.407932455" /><line stroke="rgb(0%,0%,0%)" x1="249.292235593" x2="250.684717079" y1="411.547953736" y2="410.406930395" /><line stroke="rgb(0%,0%,0%)" x1="251.989981215" x2="251.928787346" y1="406.772697713" y2="408.133430764" /><line stroke="rgb(0%,0%,0%)" x1="251.928787346" x2="250.684717079" y1="408.133430764" y2="410.406930395" /><line stroke="rgb(0%,0%,0%)" x1="254.654168197" x2="251.989981215" y1="404.53308023" y2="406.772697713" /><line stroke="rgb(0%,0%,0%)" x1="256.549568469" x2="254.654168197" y1="402.296540054" y2="404.53308023" /><line stroke="rgb(0%,0%,0%)" x1="256.549568469" x2="257.041211501" y1="402.296540054" y2="399.776593203" /><line stroke="rgb(0%,0%,0%)" x1="265.069611213" x2="258.49414351" y1="441.697952989" y2="443.718985073" /><line stroke="rgb(0%,0%,0%)" x1="265.069611213" x2="270.68808653" y1="441.697952989" y2="438.839554357" /><line stroke="rgb(0%,0%,0%)" x1="257.409213386" x2="257.041211501" y1="398.289654316" y2="399.776593203" /><line stroke="rgb(0%,0%,0%)" x1="258.155058773" x2="257.740743905" y1="392.132285733" y2="397.063295096" /><line stroke="rgb(0%,0%,0%)" x1="257.740743905" x2="257.409213386" y1="397.063295096" y2="398.289654316" /><line stroke="rgb(0%,0%,0%)" x1="258.155058773" x2="258.517150642" y1="392.132285733" y2="389.99357577" /><line stroke="rgb(0%,0%,0%)" x1="267.007288774" x2="265.653409616" y1="364.191887683" y2="354.765879126" /><line stroke="rgb(0%,0%,0%)" x1="267.007288774" x2="266.54202468" y1="364.191887683" y2="365.686217585" /><line stroke="rgb(0%,0%,0%)" x1="263.973435949" x2="265.63164813" y1="352.726372934" y2="354.598300748" /><line stroke="rgb(0%,0%,0%)" x1="254.549125978" x2="263.848410514" y1="354.597302457" y2="352.516425882" /><line stroke="rgb(0%,0%,0%)" x1="265.63164813" x2="265.653409616" y1="354.598300748" y2="354.765879126" /><line stroke="rgb(0%,0%,0%)" x1="263.848410514" x2="263.973435949" y1="352.516425882" y2="352.726372934" /><line stroke="rgb(0%,0%,0%)" x1="281.569711998" x2="281.963228334" y1="437.416540529" y2="437.50566497" /><line stroke="rgb(0%,0%,0%)" x1="299.277081015" x2="300.762616915" y1="260.150129055" y2="265.630631092" /><line stroke="rgb(0%,0%,0%)" x1="245.911986035" x2="245.587638543" y1="417.709018645" y2="418.802142945" /><line stroke="rgb(0%,0%,0%)" x1="236.955046298" x2="237.058289924" y1="351.700663424" y2="352.087271581" /><line stroke="rgb(0%,0%,0%)" x1="240.321170771" x2="237.092469556" y1="354.024023354" y2="352.138071134" /><line stroke="rgb(0%,0%,0%)" x1="237.058289924" x2="237.092469556" y1="352.087271581" y2="352.138071134" /><line stroke="rgb(0%,0%,0%)" x1="257.782827791" x2="258.032836806" y1="443.941496942" y2="443.947766595" /><line stroke="rgb(0%,0%,0%)" x1="257.487535541" x2="257.782827791" y1="443.843135415" y2="443.941496942" /><line stroke="rgb(0%,0%,0%)" x1="258.235551206" x2="258.49414351" y1="443.859525809" y2="443.718985073" /><line stroke="rgb(0%,0%,0%)" x1="258.032836806" x2="258.235551206" y1="443.947766595" y2="443.859525809" /><line stroke="rgb(0%,0%,0%)" x1="240.321170771" x2="241.023110258" y1="354.024023354" y2="354.593274233" /><line stroke="rgb(0%,0%,0%)" x1="241.023110258" x2="242.541998648" y1="354.593274233" y2="354.790314154" /><line stroke="rgb(0%,0%,0%)" x1="245.922274661" x2="245.911986035" y1="417.518098536" y2="417.709018645" /><line stroke="rgb(0%,0%,0%)" x1="246.144504959" x2="245.922274661" y1="417.096124614" y2="417.518098536" /><line stroke="rgb(0%,0%,0%)" x1="246.923048748" x2="246.144504959" y1="415.407932455" y2="417.096124614" /><line stroke="rgb(0%,0%,0%)" x1="682.624760942" x2="681.910528034" y1="487.507337825" y2="493.317652365" /><line stroke="rgb(0%,0%,0%)" x1="655.10428704" x2="659.785468915" y1="597.107089983" y2="584.530117554" /><line stroke="rgb(0%,0%,0%)" x1="664.554507763" x2="665.161039279" y1="571.102230818" y2="568.923863686" /><line stroke="rgb(0%,0%,0%)" x1="668.919649182" x2="671.764555774" y1="552.013369395" y2="543.127294363" /><line stroke="rgb(0%,0%,0%)" x1="677.6994004" x2="678.607633174" y1="517.894664795" y2="513.843478795" /><line stroke="rgb(0%,0%,0%)" x1="678.607633174" x2="678.913180404" y1="513.843478795" y2="512.024502228" /><line stroke="rgb(0%,0%,0%)" x1="678.913180404" x2="679.439992539" y1="512.024502228" y2="510.347553193" /><line stroke="rgb(0%,0%,0%)" x1="681.803376372" x2="681.910528034" y1="494.100246927" y2="493.317652365" /><line stroke="rgb(0%,0%,0%)" x1="682.624760942" x2="682.774239924" y1="487.507337825" y2="484.3648536" /><line stroke="rgb(0%,0%,0%)" x1="682.774239924" x2="683.514520741" y1="484.3648536" y2="482.83797026" /><line stroke="rgb(0%,0%,0%)" x1="615.244921061" x2="609.537342391" y1="684.928668115" y2="695.308055108" /><line stroke="rgb(0%,0%,0%)" x1="627.483237719" x2="633.490582996" y1="663.255443008" y2="647.593850022" /><line stroke="rgb(0%,0%,0%)" x1="640.325067727" x2="636.370445394" y1="631.31511118" y2="641.419005666" /><line stroke="rgb(0%,0%,0%)" x1="633.490582996" x2="636.370445394" y1="647.593850022" y2="641.419005666" /><line stroke="rgb(0%,0%,0%)" x1="640.325067727" x2="643.973943392" y1="631.31511118" y2="623.309096261" /><line stroke="rgb(0%,0%,0%)" x1="649.09127064" x2="643.973943392" y1="611.617208626" y2="623.309096261" /><line stroke="rgb(0%,0%,0%)" x1="649.09127064" x2="650.871197659" y1="611.617208626" y2="607.637001267" /><line stroke="rgb(0%,0%,0%)" x1="650.871197659" x2="652.123836765" y1="607.637001267" y2="603.674024948" /><line stroke="rgb(0%,0%,0%)" x1="652.123836765" x2="655.10428704" y1="603.674024948" y2="597.107089983" /><line stroke="rgb(0%,0%,0%)" x1="665.161039279" x2="665.323588139" y1="568.923863686" y2="568.20953388" /><line stroke="rgb(0%,0%,0%)" x1="665.323588139" x2="665.409349408" y1="568.20953388" y2="568.058072037" /><line stroke="rgb(0%,0%,0%)" x1="667.942863" x2="668.404500674" y1="556.940672798" y2="554.076051345" /><line stroke="rgb(0%,0%,0%)" x1="668.404500674" x2="668.919649182" y1="554.076051345" y2="552.013369395" /><line stroke="rgb(0%,0%,0%)" x1="586.622102058" x2="590.465856297" y1="745.108032423" y2="739.336255908" /><line stroke="rgb(0%,0%,0%)" x1="602.515046471" x2="607.618026715" y1="706.956042404" y2="698.624579867" /><line stroke="rgb(0%,0%,0%)" x1="607.618026715" x2="607.862872647" y1="698.624579867" y2="698.081762769" /><line stroke="rgb(0%,0%,0%)" x1="607.862872647" x2="609.537342391" y1="698.081762769" y2="695.308055108" /><line stroke="rgb(0%,0%,0%)" x1="576.769896683" x2="577.352198222" y1="757.052113958" y2="756.584429829" /><line stroke="rgb(0%,0%,0%)" x1="577.352198222" x2="577.529422346" y1="756.584429829" y2="756.327162757" /><line stroke="rgb(0%,0%,0%)" x1="586.622102058" x2="578.956685438" y1="745.108032423" y2="754.452773648" /><line stroke="rgb(0%,0%,0%)" x1="577.529422346" x2="578.956685438" y1="756.327162757" y2="754.452773648" /><line stroke="rgb(0%,0%,0%)" x1="539.100945335" x2="542.953704826" y1="787.904838323" y2="785.384641535" /><line stroke="rgb(0%,0%,0%)" x1="495.186764876" x2="497.018771445" y1="807.269895379" y2="806.75077246" /><line stroke="rgb(0%,0%,0%)" x1="535.239299489" x2="539.100945335" y1="790.461962676" y2="787.904838323" /><line stroke="rgb(0%,0%,0%)" x1="399.387034883" x2="402.415625619" y1="784.089225536" y2="786.759795101" /><line stroke="rgb(0%,0%,0%)" x1="399.387034883" x2="394.255178538" y1="784.089225536" y2="779.845247593" /><line stroke="rgb(0%,0%,0%)" x1="413.832971583" x2="415.972092351" y1="795.373678107" y2="796.263181692" /><line stroke="rgb(0%,0%,0%)" x1="415.972092351" x2="421.16628359" y1="796.263181692" y2="800.291940391" /><line stroke="rgb(0%,0%,0%)" x1="343.250644712" x2="349.367637916" y1="715.678965744" y2="720.573146662" /><line stroke="rgb(0%,0%,0%)" x1="358.637015756" x2="363.549518923" y1="731.34477743" y2="737.246826884" /><line stroke="rgb(0%,0%,0%)" x1="349.367637916" x2="354.310601014" y1="720.573146662" y2="725.202040977" /><line stroke="rgb(0%,0%,0%)" x1="392.421329621" x2="394.255178538" y1="777.893736174" y2="779.845247593" /><line stroke="rgb(0%,0%,0%)" x1="307.96830082" x2="310.391855079" y1="636.286294615" y2="636.561378685" /><line stroke="rgb(0%,0%,0%)" x1="262.926886115" x2="264.591785156" y1="549.964368966" y2="548.891112929" /><line stroke="rgb(0%,0%,0%)" x1="262.926886115" x2="262.530545383" y1="549.964368966" y2="550.377175614" /><line stroke="rgb(0%,0%,0%)" x1="258.08042891" x2="259.790184441" y1="523.573249014" y2="528.098073349" /><line stroke="rgb(0%,0%,0%)" x1="256.97120569" x2="258.08042891" y1="519.023947009" y2="523.573249014" /><line stroke="rgb(0%,0%,0%)" x1="255.440481305" x2="256.148797545" y1="510.499090934" y2="515.552584847" /><line stroke="rgb(0%,0%,0%)" x1="254.857533321" x2="254.860258258" y1="497.238274131" y2="497.341290166" /><line stroke="rgb(0%,0%,0%)" x1="254.857533321" x2="254.856996124" y1="497.238274131" y2="497.176673139" /><line stroke="rgb(0%,0%,0%)" x1="253.7463239" x2="254.856996124" y1="492.10895823" y2="497.176673139" /><line stroke="rgb(0%,0%,0%)" x1="249.583441414" x2="253.7463239" y1="484.609561271" y2="492.10895823" /><line stroke="rgb(0%,0%,0%)" x1="249.387424584" x2="249.583441414" y1="483.959661507" y2="484.609561271" /><line stroke="rgb(0%,0%,0%)" x1="249.387424584" x2="249.244595786" y1="483.959661507" y2="483.411169689" /><line stroke="rgb(0%,0%,0%)" x1="253.99261997" x2="253.969571602" y1="458.227003901" y2="458.238935489" /><line stroke="rgb(0%,0%,0%)" x1="253.99261997" x2="254.02469449" y1="458.227003901" y2="458.224976836" /><line stroke="rgb(0%,0%,0%)" x1="264.696089962" x2="265.481947167" y1="548.261136182" y2="546.599040012" /><line stroke="rgb(0%,0%,0%)" x1="263.244015435" x2="264.44251633" y1="536.370372582" y2="540.269720073" /><line stroke="rgb(0%,0%,0%)" x1="259.790184441" x2="262.682117754" y1="528.098073349" y2="535.029247529" /><line stroke="rgb(0%,0%,0%)" x1="269.511035881" x2="265.582463467" y1="463.908673932" y2="461.748287109" /><line stroke="rgb(0%,0%,0%)" x1="265.582463467" x2="263.13477379" y1="461.748287109" y2="460.532899187" /><line stroke="rgb(0%,0%,0%)" x1="263.13477379" x2="261.693938361" y1="460.532899187" y2="460.021082197" /><line stroke="rgb(0%,0%,0%)" x1="285.334462261" x2="283.998040392" y1="462.962562105" y2="464.446114017" /><line stroke="rgb(0%,0%,0%)" x1="287.860124611" x2="285.334462261" y1="457.759742661" y2="462.962562105" /><line stroke="rgb(0%,0%,0%)" x1="312.20143164" x2="312.020215333" y1="637.741262568" y2="639.420387838" /><line stroke="rgb(0%,0%,0%)" x1="311.668380539" x2="312.20143164" y1="637.302869457" y2="637.741262568" /><line stroke="rgb(0%,0%,0%)" x1="310.391855079" x2="311.668380539" y1="636.561378685" y2="637.302869457" /><line stroke="rgb(0%,0%,0%)" x1="245.771064936" x2="245.897484655" y1="476.643681291" y2="477.297180963" /><line stroke="rgb(0%,0%,0%)" x1="245.481103504" x2="245.771064936" y1="472.598597391" y2="476.643681291" /><line stroke="rgb(0%,0%,0%)" x1="245.209698256" x2="244.483507" y1="462.872253523" y2="466.256704863" /><line stroke="rgb(0%,0%,0%)" x1="255.441004064" x2="255.440481305" y1="507.966363629" y2="510.499090934" /><line stroke="rgb(0%,0%,0%)" x1="254.854756508" x2="255.441004064" y1="505.048250582" y2="507.966363629" /><line stroke="rgb(0%,0%,0%)" x1="254.860258258" x2="254.854756508" y1="497.341290166" y2="505.048250582" /><line stroke="rgb(0%,0%,0%)" x1="249.244595786" x2="246.843355993" y1="483.411169689" y2="479.129087199" /><line stroke="rgb(0%,0%,0%)" x1="245.923975679" x2="246.843355993" y1="477.467844258" y2="479.129087199" /><line stroke="rgb(0%,0%,0%)" x1="261.693938361" x2="260.341261378" y1="460.021082197" y2="459.49423115" /><line stroke="rgb(0%,0%,0%)" x1="246.302209576" x2="245.209698256" y1="461.039533612" y2="462.872253523" /><line stroke="rgb(0%,0%,0%)" x1="260.341261378" x2="258.716646667" y1="459.49423115" y2="459.008900505" /><line stroke="rgb(0%,0%,0%)" x1="253.969571602" x2="246.302209576" y1="458.238935489" y2="461.039533612" /><line stroke="rgb(0%,0%,0%)" x1="255.365614904" x2="263.085693481" y1="582.196350278" y2="593.623350955" /><line stroke="rgb(0%,0%,0%)" x1="264.696089962" x2="264.591785156" y1="548.261136182" y2="548.891112929" /><line stroke="rgb(0%,0%,0%)" x1="265.006941522" x2="264.893773685" y1="543.248788419" y2="544.864160768" /><line stroke="rgb(0%,0%,0%)" x1="264.901440938" x2="265.006941522" y1="542.307411251" y2="543.248788419" /><line stroke="rgb(0%,0%,0%)" x1="262.682117754" x2="263.244015435" y1="535.029247529" y2="536.370372582" /><line stroke="rgb(0%,0%,0%)" x1="264.893773685" x2="265.481947167" y1="544.864160768" y2="546.599040012" /><line stroke="rgb(0%,0%,0%)" x1="245.897484655" x2="245.923975679" y1="477.297180963" y2="477.467844258" /><line stroke="rgb(0%,0%,0%)" x1="637.807570703" x2="637.812458412" y1="272.346819027" y2="272.359340517" /><line stroke="rgb(0%,0%,0%)" x1="637.807570703" x2="637.284877566" y1="272.346819027" y2="271.010474245" /><line stroke="rgb(0%,0%,0%)" x1="651.1470025" x2="653.410657493" y1="304.890386777" y2="309.925591763" /><line stroke="rgb(0%,0%,0%)" x1="649.711252612" x2="651.1470025" y1="301.69703244" y2="304.890386777" /><line stroke="rgb(0%,0%,0%)" x1="639.967395805" x2="644.674113385" y1="279.355131512" y2="289.684701154" /><line stroke="rgb(0%,0%,0%)" x1="639.967395805" x2="637.812749436" y1="279.355131512" y2="272.360415066" /><line stroke="rgb(0%,0%,0%)" x1="637.812458412" x2="637.812749436" y1="272.359340517" y2="272.360415066" /><line stroke="rgb(0%,0%,0%)" x1="649.493040252" x2="649.711252612" y1="301.176491865" y2="301.69703244" /><line stroke="rgb(0%,0%,0%)" x1="649.493040252" x2="644.674113385" y1="301.176491865" y2="289.684701154" /><line stroke="rgb(0%,0%,0%)" x1="562.972867486" x2="566.663614457" y1="146.538277108" y2="148.906163559" /><line stroke="rgb(0%,0%,0%)" x1="591.189642819" x2="588.729421924" y1="182.033658229" y2="173.760208146" /><line stroke="rgb(0%,0%,0%)" x1="591.873115454" x2="597.105433389" y1="183.764194763" y2="197.00785037" /><line stroke="rgb(0%,0%,0%)" x1="591.189642819" x2="591.873115454" y1="182.033658229" y2="183.764194763" /><line stroke="rgb(0%,0%,0%)" x1="536.457269936" x2="542.753523275" y1="132.566573079" y2="135.64271898" /><line stroke="rgb(0%,0%,0%)" x1="536.457269936" x2="534.201947587" y1="132.566573079" y2="131.464486144" /><line stroke="rgb(0%,0%,0%)" x1="562.972867486" x2="558.247639236" y1="146.538277108" y2="144.457304231" /><line stroke="rgb(0%,0%,0%)" x1="557.47283411" x2="558.247639236" y1="144.116307573" y2="144.457304231" /><line stroke="rgb(0%,0%,0%)" x1="551.048728313" x2="557.47283411" y1="139.859461983" y2="144.116307573" /><line stroke="rgb(0%,0%,0%)" x1="551.048728313" x2="543.551958057" y1="139.859461983" y2="136.048647994" /><line stroke="rgb(0%,0%,0%)" x1="542.753523275" x2="543.551958057" y1="135.64271898" y2="136.048647994" /><line stroke="rgb(0%,0%,0%)" x1="572.534938914" x2="567.04700598" y1="152.844408211" y2="149.16300038" /><line stroke="rgb(0%,0%,0%)" x1="566.663614457" x2="567.04700598" y1="148.906163559" y2="149.16300038" /><line stroke="rgb(0%,0%,0%)" x1="492.616935807" x2="500.518474469" y1="115.624342939" y2="118.625815445" /><line stroke="rgb(0%,0%,0%)" x1="488.809163754" x2="492.616935807" y1="114.177478172" y2="115.624342939" /><line stroke="rgb(0%,0%,0%)" x1="433.79955573" x2="436.667644931" y1="95.8279216948" y2="96.3922067969" /><line stroke="rgb(0%,0%,0%)" x1="433.79955573" x2="429.367168838" y1="95.8279216948" y2="94.9560203375" /><line stroke="rgb(0%,0%,0%)" x1="451.055951576" x2="454.823691066" y1="100.197926931" y2="101.162513171" /><line stroke="rgb(0%,0%,0%)" x1="455.674790287" x2="466.012611123" y1="101.451523026" y2="104.961180763" /><line stroke="rgb(0%,0%,0%)" x1="454.823691066" x2="455.674790287" y1="101.162513171" y2="101.451523026" /><line stroke="rgb(0%,0%,0%)" x1="483.826513184" x2="472.243309285" y1="112.805201431" y2="107.332433642" /><line stroke="rgb(0%,0%,0%)" x1="487.952671745" x2="483.826513184" y1="113.941954521" y2="112.805201431" /><line stroke="rgb(0%,0%,0%)" x1="487.952671745" x2="488.809163754" y1="113.941954521" y2="114.177478172" /><line stroke="rgb(0%,0%,0%)" x1="450.118591689" x2="436.667644931" y1="99.9500593551" y2="96.3922067969" /><line stroke="rgb(0%,0%,0%)" x1="450.118591689" x2="451.055951576" y1="99.9500593551" y2="100.197926931" /><line stroke="rgb(0%,0%,0%)" x1="329.840000024" x2="327.965532488" y1="170.044142138" y2="170.84986524" /><line stroke="rgb(0%,0%,0%)" x1="329.840000024" x2="329.87689538" y1="170.044142138" y2="170.028337509" /><line stroke="rgb(0%,0%,0%)" x1="337.133803417" x2="330.016185414" y1="164.01088897" y2="169.912606837" /><line stroke="rgb(0%,0%,0%)" x1="329.87689538" x2="330.016185414" y1="170.028337509" y2="169.912606837" /><line stroke="rgb(0%,0%,0%)" x1="291.306124642" x2="286.542630257" y1="278.652299856" y2="282.243821479" /><line stroke="rgb(0%,0%,0%)" x1="291.306124642" x2="291.990066332" y1="278.652299856" y2="278.135791438" /><line stroke="rgb(0%,0%,0%)" x1="271.616526691" x2="286.542630257" y1="293.19659846" y2="282.243821479" /><line stroke="rgb(0%,0%,0%)" x1="300.553682624" x2="300.643479723" y1="271.163731639" y2="272.09916862" /><line stroke="rgb(0%,0%,0%)" x1="295.687708321" x2="297.184057287" y1="240.289201054" y2="248.583816242" /><line stroke="rgb(0%,0%,0%)" x1="297.184057287" x2="298.073829781" y1="248.583816242" y2="253.518215628" /><line stroke="rgb(0%,0%,0%)" x1="296.890764395" x2="291.990066332" y1="275.784529029" y2="278.135791438" /><line stroke="rgb(0%,0%,0%)" x1="296.890764395" x2="297.431857066" y1="275.784529029" y2="275.525019394" /><line stroke="rgb(0%,0%,0%)" x1="300.437366056" x2="297.431857066" y1="272.318858031" y2="275.525019394" /><line stroke="rgb(0%,0%,0%)" x1="300.437366056" x2="300.643479723" y1="272.318858031" y2="272.09916862" /><line stroke="rgb(0%,0%,0%)" x1="243.278493959" x2="243.603353714" y1="429.79650168" y2="428.365099493" /><line stroke="rgb(0%,0%,0%)" x1="244.633882384" x2="244.157728912" y1="422.277312038" y2="423.710302692" /><line stroke="rgb(0%,0%,0%)" x1="255.944723978" x2="264.893144924" y1="314.198112826" y2="303.023259715" /><line stroke="rgb(0%,0%,0%)" x1="266.151751558" x2="266.54202468" y1="369.561640342" y2="365.686217585" /><line stroke="rgb(0%,0%,0%)" x1="287.969062589" x2="287.040266293" y1="442.461006154" y2="441.681194415" /><line stroke="rgb(0%,0%,0%)" x1="287.969062589" x2="287.971525212" y1="442.461006154" y2="442.463076607" /><line stroke="rgb(0%,0%,0%)" x1="300.217400511" x2="300.523851381" y1="269.623660165" y2="271.027215784" /><line stroke="rgb(0%,0%,0%)" x1="300.523851381" x2="300.553682624" y1="271.027215784" y2="271.163731639" /><line stroke="rgb(0%,0%,0%)" x1="299.935014396" x2="300.762616915" y1="268.5262261" y2="265.630631092" /><line stroke="rgb(0%,0%,0%)" x1="299.935014396" x2="300.159810265" y1="268.5262261" y2="269.400873807" /><line stroke="rgb(0%,0%,0%)" x1="300.159810265" x2="300.217400511" y1="269.400873807" y2="269.623660165" /><line stroke="rgb(0%,0%,0%)" x1="244.748690128" x2="237.926689862" y1="326.374739007" y2="338.255254998" /><line stroke="rgb(0%,0%,0%)" x1="237.311352901" x2="237.926689862" y1="339.326766091" y2="338.255254998" /><line stroke="rgb(0%,0%,0%)" x1="249.22293927" x2="248.600528289" y1="443.939664267" y2="444.011296527" /><line stroke="rgb(0%,0%,0%)" x1="249.22293927" x2="249.926262538" y1="443.939664267" y2="443.858992083" /><line stroke="rgb(0%,0%,0%)" x1="249.926262538" x2="254.864071499" y1="443.858992083" y2="443.859766033" /><line stroke="rgb(0%,0%,0%)" x1="243.260396668" x2="243.278493959" y1="430.033415737" y2="429.79650168" /><line stroke="rgb(0%,0%,0%)" x1="243.260396668" x2="242.844688666" y1="430.033415737" y2="435.509098826" /><line stroke="rgb(0%,0%,0%)" x1="243.390289979" x2="244.157728912" y1="425.32870771" y2="423.710302692" /><line stroke="rgb(0%,0%,0%)" x1="244.633882384" x2="245.587638543" y1="422.277312038" y2="418.802142945" /><line stroke="rgb(0%,0%,0%)" x1="255.944723978" x2="249.190436051" y1="314.198112826" y2="320.791647338" /><line stroke="rgb(0%,0%,0%)" x1="247.62118592" x2="249.190436051" y1="322.323198067" y2="320.791647338" /><line stroke="rgb(0%,0%,0%)" x1="247.07980485" x2="244.748690128" y1="323.086781604" y2="326.374739007" /><line stroke="rgb(0%,0%,0%)" x1="247.07980485" x2="247.62118592" y1="323.086781604" y2="322.323198067" /><line stroke="rgb(0%,0%,0%)" x1="266.151751558" x2="263.79472582" y1="369.561640342" y2="374.811900075" /><line stroke="rgb(0%,0%,0%)" x1="271.560211009" x2="269.282802308" y1="293.288911504" y2="297.018548551" /><line stroke="rgb(0%,0%,0%)" x1="271.560211009" x2="271.616526691" y1="293.288911504" y2="293.19659846" /><line stroke="rgb(0%,0%,0%)" x1="269.282802308" x2="264.982367328" y1="297.018548551" y2="302.901266907" /><line stroke="rgb(0%,0%,0%)" x1="264.893144924" x2="264.982367328" y1="303.023259715" y2="302.901266907" /><line stroke="rgb(0%,0%,0%)" x1="243.592834106" x2="243.603353714" y1="428.215819121" y2="428.365099493" /><line stroke="rgb(0%,0%,0%)" x1="243.390289979" x2="243.592834106" y1="425.32870771" y2="428.215819121" /><line stroke="rgb(0%,0%,0%)" x1="683.516759089" x2="683.514520741" y1="479.870472387" y2="482.83797026" /><line stroke="rgb(0%,0%,0%)" x1="683.516759089" x2="684.529422454" y1="479.870472387" y2="475.507244288" /><line stroke="rgb(0%,0%,0%)" x1="684.529422454" x2="684.546430424" y1="475.507244288" y2="475.433782372" /><line stroke="rgb(0%,0%,0%)" x1="673.532713017" x2="674.079045821" y1="536.702150934" y2="532.378961048" /><line stroke="rgb(0%,0%,0%)" x1="673.502616933" x2="673.532713017" y1="536.939717896" y2="536.702150934" /><line stroke="rgb(0%,0%,0%)" x1="674.079045821" x2="674.948267932" y1="532.378961048" y2="528.804959651" /><line stroke="rgb(0%,0%,0%)" x1="674.948267932" x2="675.112487082" y1="528.804959651" y2="528.129954413" /><line stroke="rgb(0%,0%,0%)" x1="615.893446336" x2="615.244921061" y1="683.98852345" y2="684.928668115" /><line stroke="rgb(0%,0%,0%)" x1="615.893446336" x2="616.190130539" y1="683.98852345" y2="683.558327706" /><line stroke="rgb(0%,0%,0%)" x1="616.190130539" x2="624.838988718" y1="683.558327706" y2="668.496792745" /><line stroke="rgb(0%,0%,0%)" x1="624.838988718" x2="625.079705921" y1="668.496792745" y2="668.077708469" /><line stroke="rgb(0%,0%,0%)" x1="591.633851365" x2="590.465856297" y1="736.054882798" y2="739.336255908" /><line stroke="rgb(0%,0%,0%)" x1="591.633851365" x2="592.683909414" y1="736.054882798" y2="733.103830022" /><line stroke="rgb(0%,0%,0%)" x1="593.467200077" x2="598.921608735" y1="731.274297999" y2="718.53141147" /><line stroke="rgb(0%,0%,0%)" x1="592.683909414" x2="593.467200077" y1="733.103830022" y2="731.274297999" /><line stroke="rgb(0%,0%,0%)" x1="598.921608735" x2="601.720199309" y1="718.53141147" y2="709.515272572" /><line stroke="rgb(0%,0%,0%)" x1="601.720199309" x2="602.515046471" y1="709.515272572" y2="706.956042404" /><line stroke="rgb(0%,0%,0%)" x1="338.681151576" x2="339.893116862" y1="711.658354364" y2="713.4311777" /><line stroke="rgb(0%,0%,0%)" x1="339.893116862" x2="343.250644712" y1="713.4311777" y2="715.678965744" /><line stroke="rgb(0%,0%,0%)" x1="372.798505539" x2="373.557362399" y1="750.931677734" y2="752.176635438" /><line stroke="rgb(0%,0%,0%)" x1="364.591079616" x2="363.549518923" y1="739.134444843" y2="737.246826884" /><line stroke="rgb(0%,0%,0%)" x1="364.591079616" x2="365.368183778" y1="739.134444843" y2="740.542556756" /><line stroke="rgb(0%,0%,0%)" x1="365.655696813" x2="372.798505539" y1="740.94472402" y2="750.931677734" /><line stroke="rgb(0%,0%,0%)" x1="365.368183778" x2="365.655696813" y1="740.542556756" y2="740.94472402" /><line stroke="rgb(0%,0%,0%)" x1="356.863066391" x2="358.108166162" y1="728.684081692" y2="730.5517119" /><line stroke="rgb(0%,0%,0%)" x1="358.108166162" x2="358.637015756" y1="730.5517119" y2="731.34477743" /><line stroke="rgb(0%,0%,0%)" x1="356.863066391" x2="354.310601014" y1="728.684081692" y2="725.202040977" /><line stroke="rgb(0%,0%,0%)" x1="378.40455821" x2="381.394869091" y1="760.135787333" y2="763.923552871" /><line stroke="rgb(0%,0%,0%)" x1="381.394869091" x2="392.421329621" y1="763.923552871" y2="777.893736174" /><line stroke="rgb(0%,0%,0%)" x1="375.916922461" x2="378.40455821" y1="756.613473692" y2="760.135787333" /><line stroke="rgb(0%,0%,0%)" x1="375.581483343" x2="375.916922461" y1="756.138749049" y2="756.613473692" /><line stroke="rgb(0%,0%,0%)" x1="332.360482008" x2="338.377242111" y1="707.699781158" y2="711.468098555" /><line stroke="rgb(0%,0%,0%)" x1="338.377242111" x2="338.681151576" y1="711.468098555" y2="711.658354364" /><line stroke="rgb(0%,0%,0%)" x1="373.596615812" x2="375.581483343" y1="752.253570427" y2="756.138749049" /><line stroke="rgb(0%,0%,0%)" x1="373.557362399" x2="373.596615812" y1="752.176635438" y2="752.253570427" /><line stroke="rgb(0%,0%,0%)" x1="281.710091951" x2="283.998040392" y1="467.057602126" y2="464.446114017" /><line stroke="rgb(0%,0%,0%)" x1="287.885246117" x2="287.860124611" y1="457.715552443" y2="457.759742661" /><line stroke="rgb(0%,0%,0%)" x1="296.262989004" x2="304.145241695" y1="632.58672344" y2="634.500554963" /><line stroke="rgb(0%,0%,0%)" x1="304.145241695" x2="304.275658139" y1="634.500554963" y2="634.532379264" /><line stroke="rgb(0%,0%,0%)" x1="287.885246117" x2="287.894270958" y1="457.715552443" y2="457.681227517" /><line stroke="rgb(0%,0%,0%)" x1="306.172673252" x2="306.344849472" y1="666.419152754" y2="667.775555444" /><line stroke="rgb(0%,0%,0%)" x1="306.344849472" x2="307.192495571" y1="667.775555444" y2="674.452421327" /><line stroke="rgb(0%,0%,0%)" x1="311.043199879" x2="312.020215333" y1="642.05251672" y2="639.420387838" /><line stroke="rgb(0%,0%,0%)" x1="304.275658139" x2="304.441274782" y1="634.532379264" y2="634.610794968" /><line stroke="rgb(0%,0%,0%)" x1="304.441274782" x2="307.96830082" y1="634.610794968" y2="636.286294615" /><line stroke="rgb(0%,0%,0%)" x1="308.97720124" x2="309.045085102" y1="681.657874363" y2="681.765109754" /><line stroke="rgb(0%,0%,0%)" x1="309.045085102" x2="315.717936592" y1="681.765109754" y2="692.352636486" /><line stroke="rgb(0%,0%,0%)" x1="251.143288314" x2="249.711850773" y1="568.644697782" y2="562.743926737" /><line stroke="rgb(0%,0%,0%)" x1="251.143288314" x2="251.989878694" y1="568.644697782" y2="572.134582701" /><line stroke="rgb(0%,0%,0%)" x1="257.953522122" x2="258.006763609" y1="458.602569438" y2="458.607755298" /><line stroke="rgb(0%,0%,0%)" x1="257.953522122" x2="254.029156243" y1="458.602569438" y2="458.227058459" /><line stroke="rgb(0%,0%,0%)" x1="270.926863482" x2="269.511035881" y1="464.062952012" y2="463.908673932" /><line stroke="rgb(0%,0%,0%)" x1="254.029156243" x2="254.02469449" y1="458.227058459" y2="458.224976836" /><line stroke="rgb(0%,0%,0%)" x1="258.006763609" x2="258.387084636" y1="458.607755298" y2="458.744501477" /><line stroke="rgb(0%,0%,0%)" x1="281.670683329" x2="279.532031926" y1="467.066464615" y2="467.53776438" /><line stroke="rgb(0%,0%,0%)" x1="281.710091951" x2="281.670683329" y1="467.057602126" y2="467.066464615" /><line stroke="rgb(0%,0%,0%)" x1="279.36849528" x2="279.532031926" y1="467.471690945" y2="467.53776438" /><line stroke="rgb(0%,0%,0%)" x1="279.36849528" x2="270.926863482" y1="467.471690945" y2="464.062952012" /><line stroke="rgb(0%,0%,0%)" x1="283.339293435" x2="284.766818351" y1="623.529732639" y2="624.773269406" /><line stroke="rgb(0%,0%,0%)" x1="284.766818351" x2="291.791593397" y1="624.773269406" y2="630.892245366" /><line stroke="rgb(0%,0%,0%)" x1="276.705853835" x2="283.339293435" y1="615.876461783" y2="623.529732639" /><line stroke="rgb(0%,0%,0%)" x1="276.68022417" x2="276.705853835" y1="615.846889093" y2="615.876461783" /><line stroke="rgb(0%,0%,0%)" x1="290.544378653" x2="290.558871658" y1="451.794882084" y2="451.762618366" /><line stroke="rgb(0%,0%,0%)" x1="290.544378653" x2="287.894270958" y1="451.794882084" y2="457.681227517" /><line stroke="rgb(0%,0%,0%)" x1="252.136697409" x2="253.319302527" y1="572.698790394" y2="577.239590564" /><line stroke="rgb(0%,0%,0%)" x1="251.989878694" x2="252.136697409" y1="572.134582701" y2="572.698790394" /><line stroke="rgb(0%,0%,0%)" x1="253.319302527" x2="255.365614904" y1="577.239590564" y2="582.196350278" /><line stroke="rgb(0%,0%,0%)" x1="287.971525212" x2="290.544806467" y1="442.463076607" y2="451.712063976" /><line stroke="rgb(0%,0%,0%)" x1="290.544806467" x2="290.558871658" y1="451.712063976" y2="451.762618366" /><line stroke="rgb(0%,0%,0%)" x1="685.513322964" x2="685.050821827" y1="454.581818586" y2="450.095897825" /><line stroke="rgb(0%,0%,0%)" x1="606.65248105" x2="617.328824179" y1="214.889047111" y2="230.048318782" /><line stroke="rgb(0%,0%,0%)" x1="603.997520019" x2="606.65248105" y1="211.395754324" y2="214.889047111" /><line stroke="rgb(0%,0%,0%)" x1="603.997520019" x2="603.907476896" y1="211.395754324" y2="211.27711547" /><line stroke="rgb(0%,0%,0%)" x1="578.223924979" x2="582.681846677" y1="158.908852556" y2="163.025496279" /><line stroke="rgb(0%,0%,0%)" x1="242.396826068" x2="242.844688666" y1="437.308785219" y2="435.509098826" /><line stroke="rgb(0%,0%,0%)" x1="242.396826068" x2="243.268514395" y1="437.308785219" y2="439.763459721" /><line stroke="rgb(0%,0%,0%)" x1="662.411702078" x2="662.731923238" y1="577.08766385" y2="576.193133007" /><line stroke="rgb(0%,0%,0%)" x1="662.731923238" x2="664.554507763" y1="576.193133007" y2="571.102230818" /><line stroke="rgb(0%,0%,0%)" x1="675.112487082" x2="675.606078557" y1="528.129954413" y2="525.673120459" /><line stroke="rgb(0%,0%,0%)" x1="675.606078557" x2="677.6994004" y1="525.673120459" y2="517.894664795" /><line stroke="rgb(0%,0%,0%)" x1="680.008207911" x2="680.40938528" y1="505.008379482" y2="500.155868094" /><line stroke="rgb(0%,0%,0%)" x1="679.944829261" x2="680.008207911" y1="505.775309816" y2="505.008379482" /><line stroke="rgb(0%,0%,0%)" x1="680.40938528" x2="680.94006718" y1="500.155868094" y2="495.981660079" /><line stroke="rgb(0%,0%,0%)" x1="680.94006718" x2="681.803376372" y1="495.981660079" y2="494.100246927" /><line stroke="rgb(0%,0%,0%)" x1="684.727370196" x2="685.280280937" y1="473.82986082" y2="465.213633765" /><line stroke="rgb(0%,0%,0%)" x1="685.280280937" x2="685.466561289" y1="465.213633765" y2="462.30686133" /><line stroke="rgb(0%,0%,0%)" x1="685.3998704" x2="685.466561289" y1="459.18677056" y2="462.30686133" /><line stroke="rgb(0%,0%,0%)" x1="661.448761507" x2="659.785468915" y1="579.816651463" y2="584.530117554" /><line stroke="rgb(0%,0%,0%)" x1="661.448761507" x2="662.411702078" y1="579.816651463" y2="577.08766385" /><line stroke="rgb(0%,0%,0%)" x1="685.3998704" x2="685.498640417" y1="459.18677056" y2="455.174221031" /><line stroke="rgb(0%,0%,0%)" x1="685.498640417" x2="685.513322964" y1="455.174221031" y2="454.581818586" /><line stroke="rgb(0%,0%,0%)" x1="625.079705921" x2="626.023834242" y1="668.077708469" y2="666.339557971" /><line stroke="rgb(0%,0%,0%)" x1="626.023834242" x2="626.5687028" y1="666.339557971" y2="665.188050351" /><line stroke="rgb(0%,0%,0%)" x1="626.5687028" x2="627.483237719" y1="665.188050351" y2="663.255443008" /><line stroke="rgb(0%,0%,0%)" x1="563.86044244" x2="569.595840553" y1="769.250560373" y2="764.299985146" /><line stroke="rgb(0%,0%,0%)" x1="569.595840553" x2="572.143469648" y1="764.299985146" y2="761.874599476" /><line stroke="rgb(0%,0%,0%)" x1="572.143469648" x2="576.769896683" y1="761.874599476" y2="757.052113958" /><line stroke="rgb(0%,0%,0%)" x1="533.578924606" x2="533.962049794" y1="791.448935542" y2="791.221191668" /><line stroke="rgb(0%,0%,0%)" x1="533.962049794" x2="535.239299489" y1="791.221191668" y2="790.461962676" /><line stroke="rgb(0%,0%,0%)" x1="548.165114162" x2="542.953704826" y1="781.835312077" y2="785.384641535" /><line stroke="rgb(0%,0%,0%)" x1="548.165114162" x2="550.172315948" y1="781.835312077" y2="780.468095954" /><line stroke="rgb(0%,0%,0%)" x1="552.12151837" x2="563.86044244" y1="778.870712226" y2="769.250560373" /><line stroke="rgb(0%,0%,0%)" x1="550.172315948" x2="552.12151837" y1="780.468095954" y2="778.870712226" /><line stroke="rgb(0%,0%,0%)" x1="524.082677804" x2="533.053025315" y1="796.299748332" y2="791.717615755" /><line stroke="rgb(0%,0%,0%)" x1="533.053025315" x2="533.578924606" y1="791.717615755" y2="791.448935542" /><line stroke="rgb(0%,0%,0%)" x1="465.3391539" x2="471.031351927" y1="811.261349426" y2="811.25795042" /><line stroke="rgb(0%,0%,0%)" x1="471.031351927" x2="479.433103262" y1="811.25795042" y2="809.963744097" /><line stroke="rgb(0%,0%,0%)" x1="479.433103262" x2="489.267295643" y1="809.963744097" y2="807.921593569" /><line stroke="rgb(0%,0%,0%)" x1="489.267295643" x2="492.308010202" y1="807.921593569" y2="807.28979617" /><line stroke="rgb(0%,0%,0%)" x1="492.308010202" x2="495.186764876" y1="807.28979617" y2="807.269895379" /><line stroke="rgb(0%,0%,0%)" x1="406.582239952" x2="402.415625619" y1="790.017412842" y2="786.759795101" /><line stroke="rgb(0%,0%,0%)" x1="406.582239952" x2="408.901875473" y1="790.017412842" y2="791.831066436" /><line stroke="rgb(0%,0%,0%)" x1="408.901875473" x2="413.832971583" y1="791.831066436" y2="795.373678107" /><line stroke="rgb(0%,0%,0%)" x1="315.717936592" x2="315.884165557" y1="692.352636486" y2="692.516613594" /><line stroke="rgb(0%,0%,0%)" x1="315.931688855" x2="326.638691566" y1="692.564536861" y2="703.360689505" /><line stroke="rgb(0%,0%,0%)" x1="315.884165557" x2="315.931688855" y1="692.516613594" y2="692.564536861" /><line stroke="rgb(0%,0%,0%)" x1="326.638691566" x2="332.360482008" y1="703.360689505" y2="707.699781158" /><line stroke="rgb(0%,0%,0%)" x1="264.735360224" x2="264.777045584" y1="541.381610068" y2="541.277496666" /><line stroke="rgb(0%,0%,0%)" x1="258.576585633" x2="258.716646667" y1="458.800015662" y2="459.008900505" /><line stroke="rgb(0%,0%,0%)" x1="258.576585633" x2="258.387084636" y1="458.800015662" y2="458.744501477" /><line stroke="rgb(0%,0%,0%)" x1="306.172673252" x2="306.506828096" y1="666.419152754" y2="662.579268269" /><line stroke="rgb(0%,0%,0%)" x1="309.026467126" x2="306.506828096" y1="649.05403388" y2="662.579268269" /><line stroke="rgb(0%,0%,0%)" x1="309.026467126" x2="309.679205323" y1="649.05403388" y2="645.550244806" /><line stroke="rgb(0%,0%,0%)" x1="309.679205323" x2="311.043199879" y1="645.550244806" y2="642.05251672" /><line stroke="rgb(0%,0%,0%)" x1="256.798004331" x2="256.97120569" y1="518.467331294" y2="519.023947009" /><line stroke="rgb(0%,0%,0%)" x1="256.637396362" x2="256.148797545" y1="517.746202617" y2="515.552584847" /><line stroke="rgb(0%,0%,0%)" x1="256.637396362" x2="256.798004331" y1="517.746202617" y2="518.467331294" /><line stroke="rgb(0%,0%,0%)" x1="264.735360224" x2="264.901440938" y1="541.381610068" y2="542.307411251" /><line stroke="rgb(0%,0%,0%)" x1="264.777045584" x2="264.44251633" y1="541.277496666" y2="540.269720073" /><line stroke="rgb(0%,0%,0%)" x1="244.07854925" x2="244.483507" y1="469.06950041" y2="466.256704863" /><line stroke="rgb(0%,0%,0%)" x1="244.07854925" x2="244.640280639" y1="469.06950041" y2="470.483074837" /><line stroke="rgb(0%,0%,0%)" x1="682.536872215" x2="682.542358603" y1="406.067702224" y2="406.138204071" /><line stroke="rgb(0%,0%,0%)" x1="682.534154439" x2="682.536872215" y1="406.0542463" y2="406.067702224" /><line stroke="rgb(0%,0%,0%)" x1="682.524186653" x2="682.534154439" y1="406.004733895" y2="406.0542463" /><line stroke="rgb(0%,0%,0%)" x1="682.524186653" x2="682.296515266" y1="406.004733895" y2="404.874820065" /><line stroke="rgb(0%,0%,0%)" x1="683.988712086" x2="682.874549694" y1="439.675814689" y2="433.55331114" /><line stroke="rgb(0%,0%,0%)" x1="683.988712086" x2="684.001810157" y1="439.675814689" y2="439.747788183" /><line stroke="rgb(0%,0%,0%)" x1="684.001810157" x2="684.005071862" y1="439.747788183" y2="439.765733051" /><line stroke="rgb(0%,0%,0%)" x1="661.406430677" x2="664.466748924" y1="330.864986175" y2="338.737802006" /><line stroke="rgb(0%,0%,0%)" x1="660.981848115" x2="661.406430677" y1="329.803786089" y2="330.864986175" /><line stroke="rgb(0%,0%,0%)" x1="659.45704178" x2="660.981848115" y1="325.991545999" y2="329.803786089" /><line stroke="rgb(0%,0%,0%)" x1="659.45704178" x2="658.985770644" y1="325.991545999" y2="324.812915294" /><line stroke="rgb(0%,0%,0%)" x1="682.874549694" x2="683.512226248" y1="433.55331114" y2="425.849939024" /><line stroke="rgb(0%,0%,0%)" x1="572.534938914" x2="575.94775126" y1="152.844408211" y2="156.320518101" /><line stroke="rgb(0%,0%,0%)" x1="575.94775126" x2="578.223924979" y1="156.320518101" y2="158.908852556" /><line stroke="rgb(0%,0%,0%)" x1="370.38441223" x2="372.53004141" y1="112.681478295" y2="110.620882273" /><line stroke="rgb(0%,0%,0%)" x1="410.773312592" x2="406.139246803" y1="94.5774536849" y2="94.0452064033" /><line stroke="rgb(0%,0%,0%)" x1="410.773312592" x2="418.249665849" y1="94.5774536849" y2="94.2896730635" /><line stroke="rgb(0%,0%,0%)" x1="364.859022388" x2="360.408128342" y1="119.334717379" y2="124.870213541" /><line stroke="rgb(0%,0%,0%)" x1="372.53004141" x2="375.899407068" y1="110.620882273" y2="107.046070026" /><line stroke="rgb(0%,0%,0%)" x1="354.500012168" x2="357.968110307" y1="133.695224415" y2="128.138863686" /><line stroke="rgb(0%,0%,0%)" x1="353.721287039" x2="354.500012168" y1="134.993042351" y2="133.695224415" /><line stroke="rgb(0%,0%,0%)" x1="350.7985333" x2="353.721287039" y1="139.867334199" y2="134.993042351" /><line stroke="rgb(0%,0%,0%)" x1="350.7985333" x2="344.777872187" y1="139.867334199" y2="149.905057335" /><line stroke="rgb(0%,0%,0%)" x1="368.803269366" x2="364.859022388" y1="114.585579934" y2="119.334717379" /><line stroke="rgb(0%,0%,0%)" x1="368.803269366" x2="370.136655936" y1="114.585579934" y2="112.980397754" /><line stroke="rgb(0%,0%,0%)" x1="370.136655936" x2="370.38441223" y1="112.980397754" y2="112.681478295" /><line stroke="rgb(0%,0%,0%)" x1="234.359026624" x2="235.150907176" y1="344.271118381" y2="342.477762598" /><line stroke="rgb(0%,0%,0%)" x1="259.499455119" x2="259.496427058" y1="386.347705371" y2="386.352958052" /><line stroke="rgb(0%,0%,0%)" x1="259.623308201" x2="259.499504774" y1="384.527459026" y2="386.34697927" /><line stroke="rgb(0%,0%,0%)" x1="259.499460971" x2="259.499504774" y1="386.34762356" y2="386.34697927" /><line stroke="rgb(0%,0%,0%)" x1="259.499455119" x2="259.499460971" y1="386.347705371" y2="386.34762356" /><line stroke="rgb(0%,0%,0%)" x1="262.831263104" x2="262.942979029" y1="378.088446384" y2="377.175677222" /><line stroke="rgb(0%,0%,0%)" x1="262.831263104" x2="259.922644407" y1="378.088446384" y2="383.926568146" /><line stroke="rgb(0%,0%,0%)" x1="259.659912877" x2="259.922644407" y1="384.453910379" y2="383.926568146" /><line stroke="rgb(0%,0%,0%)" x1="259.623308201" x2="259.659912877" y1="384.527459026" y2="384.453910379" /><line stroke="rgb(0%,0%,0%)" x1="234.359026624" x2="236.955046298" y1="344.271118381" y2="351.700663424" /><line stroke="rgb(0%,0%,0%)" x1="253.662921364" x2="253.454194278" y1="354.791507541" y2="354.782123076" /><line stroke="rgb(0%,0%,0%)" x1="679.732735829" x2="679.439992539" y1="507.19439552" y2="510.347553193" /><line stroke="rgb(0%,0%,0%)" x1="679.732735829" x2="679.944829261" y1="507.19439552" y2="505.775309816" /><line stroke="rgb(0%,0%,0%)" x1="684.646177385" x2="684.673327554" y1="474.362206609" y2="474.18415672" /><line stroke="rgb(0%,0%,0%)" x1="684.673327554" x2="684.727370196" y1="474.18415672" y2="473.82986082" /><line stroke="rgb(0%,0%,0%)" x1="665.86706099" x2="665.409349408" y1="562.850018456" y2="568.058072037" /><line stroke="rgb(0%,0%,0%)" x1="665.86706099" x2="667.942863" y1="562.850018456" y2="556.940672798" /><line stroke="rgb(0%,0%,0%)" x1="672.635412593" x2="671.764555774" y1="539.917615496" y2="543.127294363" /><line stroke="rgb(0%,0%,0%)" x1="672.635412593" x2="673.075132819" y1="539.917615496" y2="538.297577493" /><line stroke="rgb(0%,0%,0%)" x1="673.075132819" x2="673.128587475" y1="538.297577493" y2="538.100338167" /><line stroke="rgb(0%,0%,0%)" x1="673.128587475" x2="673.502616933" y1="538.100338167" y2="536.939717896" /><line stroke="rgb(0%,0%,0%)" x1="522.523802257" x2="523.989128597" y1="797.000003553" y2="796.341625702" /><line stroke="rgb(0%,0%,0%)" x1="523.989128597" x2="524.082677804" y1="796.341625702" y2="796.299748332" /><line stroke="rgb(0%,0%,0%)" x1="505.769428595" x2="510.270922543" y1="803.155174817" y2="801.479329524" /><line stroke="rgb(0%,0%,0%)" x1="505.769428595" x2="497.018771445" y1="803.155174817" y2="806.75077246" /><line stroke="rgb(0%,0%,0%)" x1="510.270922543" x2="521.374881081" y1="801.479329524" y2="797.419964498" /><line stroke="rgb(0%,0%,0%)" x1="521.374881081" x2="522.469346128" y1="797.419964498" y2="797.019818631" /><line stroke="rgb(0%,0%,0%)" x1="522.469346128" x2="522.523802257" y1="797.019818631" y2="797.000003553" /><line stroke="rgb(0%,0%,0%)" x1="446.449030399" x2="449.373762229" y1="809.781273386" y2="810.325019117" /><line stroke="rgb(0%,0%,0%)" x1="452.608056906" x2="465.3391539" y1="810.514905626" y2="811.261349426" /><line stroke="rgb(0%,0%,0%)" x1="449.373762229" x2="452.608056906" y1="810.325019117" y2="810.514905626" /><line stroke="rgb(0%,0%,0%)" x1="291.791593397" x2="293.844696127" y1="630.892245366" y2="632.154330312" /><line stroke="rgb(0%,0%,0%)" x1="293.844696127" x2="294.447794355" y1="632.154330312" y2="632.262311675" /><line stroke="rgb(0%,0%,0%)" x1="294.447794355" x2="296.262989004" y1="632.262311675" y2="632.58672344" /><line stroke="rgb(0%,0%,0%)" x1="261.697115769" x2="262.530545383" y1="550.716547282" y2="550.377175614" /><line stroke="rgb(0%,0%,0%)" x1="260.069046514" x2="254.389529231" y1="551.489254401" y2="554.498942648" /><line stroke="rgb(0%,0%,0%)" x1="252.627528462" x2="254.389529231" y1="555.432760473" y2="554.498942648" /><line stroke="rgb(0%,0%,0%)" x1="252.173805239" x2="252.627528462" y1="555.672826445" y2="555.432760473" /><line stroke="rgb(0%,0%,0%)" x1="261.426846306" x2="260.069046514" y1="550.845036758" y2="551.489254401" /><line stroke="rgb(0%,0%,0%)" x1="261.426846306" x2="261.647927698" y1="550.845036758" y2="550.740015377" /><line stroke="rgb(0%,0%,0%)" x1="261.647927698" x2="261.697115769" y1="550.740015377" y2="550.716547282" /><line stroke="rgb(0%,0%,0%)" x1="684.001498995" x2="684.005071862" y1="439.896098752" y2="439.765733051" /><line stroke="rgb(0%,0%,0%)" x1="679.807563878" x2="679.817481707" y1="392.816646302" y2="392.97923654" /><line stroke="rgb(0%,0%,0%)" x1="679.71938438" x2="679.807563878" y1="392.285339831" y2="392.816646302" /><line stroke="rgb(0%,0%,0%)" x1="679.450907039" x2="679.108828701" y1="389.496088539" y2="386.931973482" /><line stroke="rgb(0%,0%,0%)" x1="684.001498995" x2="684.048049193" y1="439.896098752" y2="440.358550518" /><line stroke="rgb(0%,0%,0%)" x1="679.987327903" x2="681.319569181" y1="393.793214642" y2="400.172821139" /><line stroke="rgb(0%,0%,0%)" x1="679.817481707" x2="679.987327903" y1="392.97923654" y2="393.793214642" /><line stroke="rgb(0%,0%,0%)" x1="679.687685161" x2="679.450907039" y1="391.956984027" y2="389.496088539" /><line stroke="rgb(0%,0%,0%)" x1="679.687685161" x2="679.709980008" y1="391.956984027" y2="392.187742449" /><line stroke="rgb(0%,0%,0%)" x1="679.709980008" x2="679.71938438" y1="392.187742449" y2="392.285339831" /><line stroke="rgb(0%,0%,0%)" x1="317.022635816" x2="324.11706822" y1="179.380619583" y2="173.468721604" /><line stroke="rgb(0%,0%,0%)" x1="324.11706822" x2="327.965532488" y1="173.468721604" y2="170.84986524" /><line stroke="rgb(0%,0%,0%)" x1="338.289059597" x2="340.732399782" y1="162.455334574" y2="157.594915322" /><line stroke="rgb(0%,0%,0%)" x1="337.935451789" x2="338.289059597" y1="163.158616597" y2="162.455334574" /><line stroke="rgb(0%,0%,0%)" x1="337.791084546" x2="337.935451789" y1="163.445954437" y2="163.158616597" /><line stroke="rgb(0%,0%,0%)" x1="337.133803417" x2="337.791084546" y1="164.01088897" y2="163.445954437" /><line stroke="rgb(0%,0%,0%)" x1="309.202554537" x2="313.009667156" y1="188.564672886" y2="183.085127271" /><line stroke="rgb(0%,0%,0%)" x1="309.202554537" x2="303.045467427" y1="188.564672886" y2="197.42830074" /><line stroke="rgb(0%,0%,0%)" x1="317.022635816" x2="314.454490883" y1="179.380619583" y2="181.751502857" /><line stroke="rgb(0%,0%,0%)" x1="313.56873356" x2="314.454490883" y1="182.568916832" y2="181.751502857" /><line stroke="rgb(0%,0%,0%)" x1="313.009667156" x2="313.56873356" y1="183.085127271" y2="182.568916832" /><line stroke="rgb(0%,0%,0%)" x1="295.111851857" x2="295.687708321" y1="237.033593099" y2="240.289201054" /><line stroke="rgb(0%,0%,0%)" x1="295.942015664" x2="297.148685007" y1="227.024049176" y2="212.481612505" /><line stroke="rgb(0%,0%,0%)" x1="295.473737265" x2="295.942015664" y1="232.672314384" y2="227.024049176" /><line stroke="rgb(0%,0%,0%)" x1="295.111851857" x2="295.473737265" y1="237.033593099" y2="232.672314384" /><line stroke="rgb(0%,0%,0%)" x1="235.150907176" x2="235.767655148" y1="342.477762598" y2="342.04510478" /><line stroke="rgb(0%,0%,0%)" x1="235.767655148" x2="237.311352901" y1="342.04510478" y2="339.326766091" /><line stroke="rgb(0%,0%,0%)" x1="253.662921364" x2="253.710626412" y1="354.791507541" y2="354.795865318" /><line stroke="rgb(0%,0%,0%)" x1="253.710626412" x2="253.749919201" y1="354.795865318" y2="354.786562579" /><line stroke="rgb(0%,0%,0%)" x1="253.749919201" x2="253.833449738" y1="354.786562579" y2="354.76678152" /><line stroke="rgb(0%,0%,0%)" x1="253.833449738" x2="254.549125978" y1="354.76678152" y2="354.597302457" /><line stroke="rgb(0%,0%,0%)" x1="684.546430424" x2="684.652104405" y1="475.433782372" y2="474.764388047" /><line stroke="rgb(0%,0%,0%)" x1="684.646177385" x2="684.652104405" y1="474.362206609" y2="474.764388047" /><line stroke="rgb(0%,0%,0%)" x1="444.595545971" x2="446.449030399" y1="809.134956961" y2="809.781273386" /><line stroke="rgb(0%,0%,0%)" x1="424.62094" x2="421.16628359" y1="802.532563589" y2="800.291940391" /><line stroke="rgb(0%,0%,0%)" x1="436.142787072" x2="437.935500229" y1="807.006614237" y2="807.457969034" /><line stroke="rgb(0%,0%,0%)" x1="437.935500229" x2="443.500427004" y1="807.457969034" y2="808.85890338" /><line stroke="rgb(0%,0%,0%)" x1="443.500427004" x2="444.595545971" y1="808.85890338" y2="809.134956961" /><line stroke="rgb(0%,0%,0%)" x1="249.434898423" x2="249.711850773" y1="560.1178561" y2="562.743926737" /><line stroke="rgb(0%,0%,0%)" x1="249.434898423" x2="249.753833696" y1="560.1178561" y2="558.742343193" /><line stroke="rgb(0%,0%,0%)" x1="271.859335907" x2="272.57362938" y1="606.546464289" y2="607.933599692" /><line stroke="rgb(0%,0%,0%)" x1="272.57362938" x2="273.521013185" y1="607.933599692" y2="609.77506181" /><line stroke="rgb(0%,0%,0%)" x1="273.521013185" x2="276.578275863" y1="609.77506181" y2="615.714548396" /><line stroke="rgb(0%,0%,0%)" x1="276.578275863" x2="276.634496785" y1="615.714548396" y2="615.787520616" /><line stroke="rgb(0%,0%,0%)" x1="276.634496785" x2="276.68022417" y1="615.787520616" y2="615.846889093" /><line stroke="rgb(0%,0%,0%)" x1="308.13023626" x2="308.97720124" y1="678.966104423" y2="681.657874363" /><line stroke="rgb(0%,0%,0%)" x1="307.192495571" x2="308.13023626" y1="674.452421327" y2="678.966104423" /><line stroke="rgb(0%,0%,0%)" x1="250.845944902" x2="249.753833696" y1="557.339002223" y2="558.742343193" /><line stroke="rgb(0%,0%,0%)" x1="250.845944902" x2="251.184745304" y1="557.339002223" y2="556.903891955" /><line stroke="rgb(0%,0%,0%)" x1="251.184745304" x2="251.403288907" y1="556.903891955" y2="556.623243035" /><line stroke="rgb(0%,0%,0%)" x1="251.403288907" x2="252.173805239" y1="556.623243035" y2="555.672826445" /><line stroke="rgb(0%,0%,0%)" x1="271.859335907" x2="263.085693481" y1="606.546464289" y2="593.623350955" /><line stroke="rgb(0%,0%,0%)" x1="424.62094" x2="426.066822608" y1="802.532563589" y2="803.4349531" /><line stroke="rgb(0%,0%,0%)" x1="434.765152959" x2="436.142787072" y1="806.264515984" y2="807.006614237" /><line stroke="rgb(0%,0%,0%)" x1="428.971964308" x2="434.765152959" y1="804.380085369" y2="806.264515984" /><line stroke="rgb(0%,0%,0%)" x1="427.546519908" x2="428.971964308" y1="803.91644732" y2="804.380085369" /><line stroke="rgb(0%,0%,0%)" x1="426.066822608" x2="427.546519908" y1="803.4349531" y2="803.91644732" /><line stroke="rgb(0%,0%,0%)" x1="682.542358603" x2="682.604663205" y1="406.138204071" y2="406.940044196" /><line stroke="rgb(0%,0%,0%)" x1="244.640280639" x2="245.481103504" y1="470.483074837" y2="472.598597391" /><line stroke="rgb(0%,0%,0%)" x1="262.942979029" x2="263.79472582" y1="377.175677222" y2="374.811900075" /></svg>