<?xml version="1.0" encoding="utf-8" ?>
<svg baseProfile="full" height="100%" version="1.1" viewBox="0.5 0.5 685.793960571 941.299331665" width="100%" xmlns="http://www.w3.org/2000/svg" xmlns:ev="http://www.w3.org/2001/xml-events" xmlns:xlink="http://www.w3.org/1999/xlink"><defs /><line stroke="rgb(0%,0%,0%)" x1="645.908656657" x2="645.784594087" y1="376.326693786" y2="375.634219003" /><line stroke="rgb(0%,0%,0%)" x1="644.365243832" x2="641.925524855" y1="371.422552105" y2="362.340716736" /><line stroke="rgb(0%,0%,0%)" x1="662.531679131" x2="662.508000363" y1="458.096874101" y2="457.479108096" /><line stroke="rgb(0%,0%,0%)" x1="660.154293725" x2="660.792583755" y1="438.486448164" y2="441.136507659" /><line stroke="rgb(0%,0%,0%)" x1="660.154293725" x2="658.963500406" y1="438.486448164" y2="433.461176674" /><line stroke="rgb(0%,0%,0%)" x1="615.043665782" x2="617.045224867" y1="299.042695402" y2="301.958426919" /><line stroke="rgb(0%,0%,0%)" x1="645.908656657" x2="646.337464463" y1="376.326693786" y2="377.92383044" /><line stroke="rgb(0%,0%,0%)" x1="645.784594087" x2="644.365243832" y1="375.634219003" y2="371.422552105" /><line stroke="rgb(0%,0%,0%)" x1="662.508000363" x2="662.304135435" y1="457.479108096" y2="454.840982028" /><line stroke="rgb(0%,0%,0%)" x1="661.044934035" x2="660.792583755" y1="444.546956308" y2="441.136507659" /><line stroke="rgb(0%,0%,0%)" x1="654.718698685" x2="653.880080051" y1="418.330210909" y2="410.593057983" /><line stroke="rgb(0%,0%,0%)" x1="653.880080051" x2="652.860646053" y1="410.593057983" y2="407.40690237" /><line stroke="rgb(0%,0%,0%)" x1="651.631063286" x2="652.860646053" y1="405.471460774" y2="407.40690237" /><line stroke="rgb(0%,0%,0%)" x1="651.630915813" x2="651.675693273" y1="401.32335462" y2="401.53726799" /><line stroke="rgb(0%,0%,0%)" x1="651.630915813" x2="651.477284887" y1="401.32335462" y2="400.131917272" /><line stroke="rgb(0%,0%,0%)" x1="651.477284887" x2="650.256020627" y1="400.131917272" y2="395.137079842" /><line stroke="rgb(0%,0%,0%)" x1="601.564003681" x2="604.422034972" y1="263.960728537" y2="266.461708836" /><line stroke="rgb(0%,0%,0%)" x1="601.564003681" x2="600.017889317" y1="263.960728537" y2="260.651779763" /><line stroke="rgb(0%,0%,0%)" x1="589.167647502" x2="589.901461154" y1="243.071456805" y2="244.167160858" /><line stroke="rgb(0%,0%,0%)" x1="620.780799109" x2="617.045224867" y1="309.031487756" y2="301.958426919" /><line stroke="rgb(0%,0%,0%)" x1="615.043665782" x2="612.960273288" y1="299.042695402" y2="292.572163272" /><line stroke="rgb(0%,0%,0%)" x1="635.311532952" x2="638.083749282" y1="347.213155129" y2="353.421008787" /><line stroke="rgb(0%,0%,0%)" x1="635.311532952" x2="634.363788202" y1="347.213155129" y2="344.913539509" /><line stroke="rgb(0%,0%,0%)" x1="631.924557248" x2="634.363788202" y1="339.429296007" y2="344.913539509" /><line stroke="rgb(0%,0%,0%)" x1="631.924557248" x2="628.419879047" y1="339.429296007" y2="332.527911015" /><line stroke="rgb(0%,0%,0%)" x1="628.419879047" x2="625.298442085" y1="332.527911015" y2="322.240929994" /><line stroke="rgb(0%,0%,0%)" x1="641.925524855" x2="641.880985314" y1="362.340716736" y2="362.193056705" /><line stroke="rgb(0%,0%,0%)" x1="638.083749282" x2="641.802182671" y1="353.421008787" y2="362.029535207" /><line stroke="rgb(0%,0%,0%)" x1="662.304135435" x2="661.044934035" y1="454.840982028" y2="444.546956308" /><line stroke="rgb(0%,0%,0%)" x1="658.963500406" x2="658.174177198" y1="433.461176674" y2="431.213952957" /><line stroke="rgb(0%,0%,0%)" x1="658.174177198" x2="658.001981745" y1="431.213952957" y2="430.309779634" /><line stroke="rgb(0%,0%,0%)" x1="654.718698685" x2="658.001981745" y1="418.330210909" y2="430.309779634" /><line stroke="rgb(0%,0%,0%)" x1="651.631063286" x2="651.675693273" y1="405.471460774" y2="401.53726799" /><line stroke="rgb(0%,0%,0%)" x1="589.167647502" x2="588.128984462" y1="243.071456805" y2="242.331430491" /><line stroke="rgb(0%,0%,0%)" x1="600.017889317" x2="598.506473826" y1="260.651779763" y2="257.506563085" /><line stroke="rgb(0%,0%,0%)" x1="598.506473826" x2="596.173453847" y1="257.506563085" y2="254.046282696" /><line stroke="rgb(0%,0%,0%)" x1="596.173453847" x2="589.901461154" y1="254.046282696" y2="244.167160858" /><line stroke="rgb(0%,0%,0%)" x1="612.960273288" x2="612.792894246" y1="292.572163272" y2="290.673107917" /><line stroke="rgb(0%,0%,0%)" x1="612.792894246" x2="610.695949872" y1="290.673107917" y2="280.404580412" /><line stroke="rgb(0%,0%,0%)" x1="610.695949872" x2="610.642212102" y1="280.404580412" y2="280.284473273" /><line stroke="rgb(0%,0%,0%)" x1="609.604340711" x2="610.642212102" y1="272.849569921" y2="280.284473273" /><line stroke="rgb(0%,0%,0%)" x1="604.422034972" x2="608.954128374" y1="266.461708836" y2="272.032531942" /><line stroke="rgb(0%,0%,0%)" x1="620.780799109" x2="625.145590351" y1="309.031487756" y2="321.924757858" /><line stroke="rgb(0%,0%,0%)" x1="650.111051833" x2="646.337464463" y1="393.89061289" y2="377.92383044" /><line stroke="rgb(0%,0%,0%)" x1="543.239456425" x2="548.01046001" y1="208.589930829" y2="210.125006123" /><line stroke="rgb(0%,0%,0%)" x1="550.702000923" x2="548.01046001" y1="210.424793841" y2="210.125006123" /><line stroke="rgb(0%,0%,0%)" x1="552.86033033" x2="561.977695512" y1="211.619862843" y2="220.889139304" /><line stroke="rgb(0%,0%,0%)" x1="579.439540852" x2="577.165496913" y1="236.992520902" y2="235.467207733" /><line stroke="rgb(0%,0%,0%)" x1="569.706306361" x2="577.165496913" y1="230.900771171" y2="235.467207733" /><line stroke="rgb(0%,0%,0%)" x1="569.706306361" x2="562.103134209" y1="230.900771171" y2="221.026576336" /><line stroke="rgb(0%,0%,0%)" x1="588.128984462" x2="581.951333929" y1="242.331430491" y2="238.814471051" /><line stroke="rgb(0%,0%,0%)" x1="581.951333929" x2="579.439540852" y1="238.814471051" y2="236.992520902" /><line stroke="rgb(0%,0%,0%)" x1="609.604340711" x2="608.954128374" y1="272.849569921" y2="272.032531942" /><line stroke="rgb(0%,0%,0%)" x1="625.298442085" x2="625.23943921" y1="322.240929994" y2="322.119466795" /><line stroke="rgb(0%,0%,0%)" x1="625.23943921" x2="625.145590351" y1="322.119466795" y2="321.924757858" /><line stroke="rgb(0%,0%,0%)" x1="641.880985314" x2="641.802182671" y1="362.193056705" y2="362.029535207" /><line stroke="rgb(0%,0%,0%)" x1="650.256020627" x2="650.111051833" y1="395.137079842" y2="393.89061289" /><line stroke="rgb(0%,0%,0%)" x1="513.969444497" x2="505.285927388" y1="202.067504833" y2="198.345088479" /><line stroke="rgb(0%,0%,0%)" x1="513.969444497" x2="520.573526293" y1="202.067504833" y2="205.094529294" /><line stroke="rgb(0%,0%,0%)" x1="537.048936502" x2="536.406677948" y1="211.303550139" y2="211.11971811" /><line stroke="rgb(0%,0%,0%)" x1="543.239456425" x2="537.048936502" y1="208.589930829" y2="211.303550139" /><line stroke="rgb(0%,0%,0%)" x1="526.83038843" x2="536.406677948" y1="207.55398128" y2="211.11971811" /><line stroke="rgb(0%,0%,0%)" x1="552.86033033" x2="550.702000923" y1="211.619862843" y2="210.424793841" /><line stroke="rgb(0%,0%,0%)" x1="562.103134209" x2="562.004618627" y1="221.026576336" y2="220.934596068" /><line stroke="rgb(0%,0%,0%)" x1="562.004618627" x2="561.977695512" y1="220.934596068" y2="220.889139304" /><line stroke="rgb(0%,0%,0%)" x1="487.082465261" x2="493.028244067" y1="187.7143793" y2="191.081013009" /><line stroke="rgb(0%,0%,0%)" x1="487.082465261" x2="473.580309762" y1="187.7143793" y2="182.583949354" /><line stroke="rgb(0%,0%,0%)" x1="503.149407427" x2="501.844819674" y1="197.067042715" y2="196.409960365" /><line stroke="rgb(0%,0%,0%)" x1="493.028244067" x2="501.844819674" y1="191.081013009" y2="196.409960365" /><line stroke="rgb(0%,0%,0%)" x1="505.285927388" x2="503.149407427" y1="198.345088479" y2="197.067042715" /><line stroke="rgb(0%,0%,0%)" x1="526.83038843" x2="524.704607511" y1="207.55398128" y2="206.746070658" /><line stroke="rgb(0%,0%,0%)" x1="452.476174743" x2="450.493953889" y1="171.910090863" y2="171.168241308" /><line stroke="rgb(0%,0%,0%)" x1="454.374087904" x2="463.479123661" y1="172.597186021" y2="177.543583999" /><line stroke="rgb(0%,0%,0%)" x1="454.374087904" x2="452.476174743" y1="172.597186021" y2="171.910090863" /><line stroke="rgb(0%,0%,0%)" x1="470.61471503" x2="463.479123661" y1="181.054259383" y2="177.543583999" /><line stroke="rgb(0%,0%,0%)" x1="473.580309762" x2="471.589175874" y1="182.583949354" y2="181.561829048" /><line stroke="rgb(0%,0%,0%)" x1="471.589175874" x2="471.452612048" y1="181.561829048" y2="181.454167633" /><line stroke="rgb(0%,0%,0%)" x1="524.002303571" x2="523.104985054" y1="206.421841824" y2="205.74079073" /><line stroke="rgb(0%,0%,0%)" x1="523.104985054" x2="520.573526293" y1="205.74079073" y2="205.094529294" /><line stroke="rgb(0%,0%,0%)" x1="524.704607511" x2="524.002303571" y1="206.746070658" y2="206.421841824" /><line stroke="rgb(0%,0%,0%)" x1="395.899388339" x2="398.544328209" y1="153.917898908" y2="154.079315572" /><line stroke="rgb(0%,0%,0%)" x1="408.880893663" x2="408.42470725" y1="156.369624633" y2="156.311388861" /><line stroke="rgb(0%,0%,0%)" x1="408.880893663" x2="409.713360079" y1="156.369624633" y2="156.761886078" /><line stroke="rgb(0%,0%,0%)" x1="441.31656287" x2="436.769473148" y1="166.745212693" y2="165.057815651" /><line stroke="rgb(0%,0%,0%)" x1="428.333975503" x2="436.769473148" y1="162.383073862" y2="165.057815651" /><line stroke="rgb(0%,0%,0%)" x1="428.333975503" x2="421.483647076" y1="162.383073862" y2="160.228816863" /><line stroke="rgb(0%,0%,0%)" x1="450.493953889" x2="441.31656287" y1="171.168241308" y2="166.745212693" /><line stroke="rgb(0%,0%,0%)" x1="471.452612048" x2="470.61471503" y1="181.454167633" y2="181.054259383" /><line stroke="rgb(0%,0%,0%)" x1="391.935883252" x2="389.832995728" y1="153.387664934" y2="153.387432052" /><line stroke="rgb(0%,0%,0%)" x1="389.832995728" x2="384.251024508" y1="153.387432052" y2="153.776552862" /><line stroke="rgb(0%,0%,0%)" x1="395.899388339" x2="391.935883252" y1="153.917898908" y2="153.387664934" /><line stroke="rgb(0%,0%,0%)" x1="421.483647076" x2="409.713360079" y1="160.228816863" y2="156.761886078" /><line stroke="rgb(0%,0%,0%)" x1="408.42470725" x2="398.544328209" y1="156.311388861" y2="154.079315572" /><line stroke="rgb(0%,0%,0%)" x1="342.118498154" x2="343.537590608" y1="226.159284515" y2="225.704530511" /><line stroke="rgb(0%,0%,0%)" x1="354.295230925" x2="353.162614838" y1="222.846094938" y2="223.228207488" /><line stroke="rgb(0%,0%,0%)" x1="354.295230925" x2="354.434121894" y1="222.846094938" y2="222.386713756" /><line stroke="rgb(0%,0%,0%)" x1="362.699202071" x2="364.957647876" y1="161.670772783" y2="159.79288332" /><line stroke="rgb(0%,0%,0%)" x1="362.699202071" x2="360.757268996" y1="161.670772783" y2="164.797696839" /><line stroke="rgb(0%,0%,0%)" x1="364.957647876" x2="366.930273254" y1="159.79288332" y2="159.178301265" /><line stroke="rgb(0%,0%,0%)" x1="372.463879085" x2="366.930273254" y1="156.220306014" y2="159.178301265" /><line stroke="rgb(0%,0%,0%)" x1="378.641909834" x2="373.209659466" y1="155.047132998" y2="155.505636601" /><line stroke="rgb(0%,0%,0%)" x1="373.209659466" x2="372.463879085" y1="155.505636601" y2="156.220306014" /><line stroke="rgb(0%,0%,0%)" x1="384.251024508" x2="378.641909834" y1="153.776552862" y2="155.047132998" /><line stroke="rgb(0%,0%,0%)" x1="319.400839749" x2="320.681119053" y1="246.476908848" y2="244.796768123" /><line stroke="rgb(0%,0%,0%)" x1="325.683106857" x2="328.810038813" y1="238.102915628" y2="235.761054635" /><line stroke="rgb(0%,0%,0%)" x1="325.683106857" x2="320.681119053" y1="238.102915628" y2="244.796768123" /><line stroke="rgb(0%,0%,0%)" x1="335.998772107" x2="328.810038813" y1="229.627906776" y2="235.761054635" /><line stroke="rgb(0%,0%,0%)" x1="342.118498154" x2="335.998772107" y1="226.159284515" y2="229.627906776" /><line stroke="rgb(0%,0%,0%)" x1="346.271862731" x2="343.537590608" y1="225.368895087" y2="225.704530511" /><line stroke="rgb(0%,0%,0%)" x1="351.355038999" x2="354.104836604" y1="209.811439924" y2="217.889273836" /><line stroke="rgb(0%,0%,0%)" x1="354.104836604" x2="355.361404637" y1="217.889273836" y2="221.069541792" /><line stroke="rgb(0%,0%,0%)" x1="355.361404637" x2="354.434121894" y1="221.069541792" y2="222.386713756" /><line stroke="rgb(0%,0%,0%)" x1="349.22452695" x2="351.355038999" y1="203.314066039" y2="209.811439924" /><line stroke="rgb(0%,0%,0%)" x1="348.975749557" x2="349.22452695" y1="195.727500683" y2="203.314066039" /><line stroke="rgb(0%,0%,0%)" x1="349.305641804" x2="348.975749557" y1="188.639161754" y2="195.727500683" /><line stroke="rgb(0%,0%,0%)" x1="350.375190871" x2="349.305641804" y1="184.889753206" y2="188.639161754" /><line stroke="rgb(0%,0%,0%)" x1="360.757268996" x2="354.351274955" y1="164.797696839" y2="175.276744909" /><line stroke="rgb(0%,0%,0%)" x1="348.465770818" x2="346.271862731" y1="225.307536237" y2="225.368895087" /><line stroke="rgb(0%,0%,0%)" x1="353.162614838" x2="348.465770818" y1="223.228207488" y2="225.307536237" /><line stroke="rgb(0%,0%,0%)" x1="354.351274955" x2="350.375190871" y1="175.276744909" y2="184.889753206" /><line stroke="rgb(0%,0%,0%)" x1="263.9128311" x2="262.928900653" y1="397.736755239" y2="398.817598653" /><line stroke="rgb(0%,0%,0%)" x1="263.9128311" x2="265.027916417" y1="397.736755239" y2="396.022654642" /><line stroke="rgb(0%,0%,0%)" x1="279.900352843" x2="280.014349225" y1="283.277480264" y2="283.042513376" /><line stroke="rgb(0%,0%,0%)" x1="279.900352843" x2="278.885723316" y1="283.277480264" y2="285.752699565" /><line stroke="rgb(0%,0%,0%)" x1="280.014349225" x2="280.219017878" y1="283.042513376" y2="282.717771506" /><line stroke="rgb(0%,0%,0%)" x1="280.219017878" x2="280.781579972" y1="282.717771506" y2="282.097128732" /><line stroke="rgb(0%,0%,0%)" x1="281.262806631" x2="280.781579972" y1="281.763516787" y2="282.097128732" /><line stroke="rgb(0%,0%,0%)" x1="284.016382639" x2="282.737344678" y1="362.452160373" y2="364.555131758" /><line stroke="rgb(0%,0%,0%)" x1="289.367822106" x2="288.954015723" y1="357.290250236" y2="358.051429906" /><line stroke="rgb(0%,0%,0%)" x1="288.954015723" x2="284.016382639" y1="358.051429906" y2="362.452160373" /><line stroke="rgb(0%,0%,0%)" x1="289.367822106" x2="291.219435637" y1="357.290250236" y2="355.972306739" /><line stroke="rgb(0%,0%,0%)" x1="295.007018163" x2="281.262806631" y1="268.102444322" y2="281.763516787" /><line stroke="rgb(0%,0%,0%)" x1="296.80542648" x2="301.576874062" y1="351.329631658" y2="347.48303796" /><line stroke="rgb(0%,0%,0%)" x1="303.990162091" x2="305.498765248" y1="346.312271495" y2="344.339066745" /><line stroke="rgb(0%,0%,0%)" x1="304.085050722" x2="298.913590829" y1="342.463260912" y2="342.446329255" /><line stroke="rgb(0%,0%,0%)" x1="292.396853924" x2="298.913590829" y1="341.724345251" y2="342.446329255" /><line stroke="rgb(0%,0%,0%)" x1="295.007018163" x2="300.790586659" y1="268.102444322" y2="264.312896454" /><line stroke="rgb(0%,0%,0%)" x1="307.813620123" x2="304.489186833" y1="257.399269304" y2="261.886709765" /><line stroke="rgb(0%,0%,0%)" x1="304.489186833" x2="300.790586659" y1="261.886709765" y2="264.312896454" /><line stroke="rgb(0%,0%,0%)" x1="319.400839749" x2="307.813620123" y1="246.476908848" y2="257.399269304" /><line stroke="rgb(0%,0%,0%)" x1="237.154405426" x2="237.623961015" y1="426.593864852" y2="425.576915543" /><line stroke="rgb(0%,0%,0%)" x1="237.623961015" x2="238.378815037" y1="425.576915543" y2="423.325480281" /><line stroke="rgb(0%,0%,0%)" x1="271.49870468" x2="269.092940373" y1="342.08606743" y2="342.10195603" /><line stroke="rgb(0%,0%,0%)" x1="266.715202126" x2="260.666665201" y1="324.308375639" y2="328.571671974" /><line stroke="rgb(0%,0%,0%)" x1="268.923097269" x2="265.027916417" y1="389.295223624" y2="396.022654642" /><line stroke="rgb(0%,0%,0%)" x1="271.04539672" x2="268.923097269" y1="386.296362499" y2="389.295223624" /><line stroke="rgb(0%,0%,0%)" x1="273.57292142" x2="271.04539672" y1="380.769366655" y2="386.296362499" /><line stroke="rgb(0%,0%,0%)" x1="273.57292142" x2="277.491516304" y1="380.769366655" y2="371.543464466" /><line stroke="rgb(0%,0%,0%)" x1="276.307377811" x2="281.454112338" y1="341.974509254" y2="341.439960047" /><line stroke="rgb(0%,0%,0%)" x1="271.49870468" x2="276.307377811" y1="342.08606743" y2="341.974509254" /><line stroke="rgb(0%,0%,0%)" x1="270.989840413" x2="279.44184602" y1="321.113748341" y2="313.277339315" /><line stroke="rgb(0%,0%,0%)" x1="270.989840413" x2="266.715202126" y1="321.113748341" y2="324.308375639" /><line stroke="rgb(0%,0%,0%)" x1="282.475551512" x2="283.035993921" y1="306.532009845" y2="307.0933902" /><line stroke="rgb(0%,0%,0%)" x1="283.579064916" x2="283.336889473" y1="308.875812517" y2="309.110413547" /><line stroke="rgb(0%,0%,0%)" x1="283.336889473" x2="279.44184602" y1="309.110413547" y2="313.277339315" /><line stroke="rgb(0%,0%,0%)" x1="282.475551512" x2="278.579401553" y1="306.532009845" y2="305.039382484" /><line stroke="rgb(0%,0%,0%)" x1="283.035993921" x2="283.579064916" y1="307.0933902" y2="308.875812517" /><line stroke="rgb(0%,0%,0%)" x1="275.546660361" x2="273.576071935" y1="295.446146611" y2="302.603135949" /><line stroke="rgb(0%,0%,0%)" x1="278.885723316" x2="275.812398439" y1="285.752699565" y2="293.359978409" /><line stroke="rgb(0%,0%,0%)" x1="275.812398439" x2="275.546660361" y1="293.359978409" y2="295.446146611" /><line stroke="rgb(0%,0%,0%)" x1="282.737344678" x2="279.118645411" y1="364.555131758" y2="368.811231758" /><line stroke="rgb(0%,0%,0%)" x1="281.454112338" x2="292.396853924" y1="341.439960047" y2="341.724345251" /><line stroke="rgb(0%,0%,0%)" x1="296.80542648" x2="291.219435637" y1="351.329631658" y2="355.972306739" /><line stroke="rgb(0%,0%,0%)" x1="303.990162091" x2="301.576874062" y1="346.312271495" y2="347.48303796" /><line stroke="rgb(0%,0%,0%)" x1="305.754846746" x2="305.498765248" y1="344.080285069" y2="344.339066745" /><line stroke="rgb(0%,0%,0%)" x1="304.085050722" x2="305.756607795" y1="342.463260912" y2="343.838035452" /><line stroke="rgb(0%,0%,0%)" x1="305.756607795" x2="305.781587609" y1="343.838035452" y2="344.030359179" /><line stroke="rgb(0%,0%,0%)" x1="305.781587609" x2="305.754846746" y1="344.030359179" y2="344.080285069" /><line stroke="rgb(0%,0%,0%)" x1="242.866136328" x2="247.543339784" y1="414.264207535" y2="410.254002237" /><line stroke="rgb(0%,0%,0%)" x1="242.866136328" x2="238.378815037" y1="414.264207535" y2="423.325480281" /><line stroke="rgb(0%,0%,0%)" x1="254.994745891" x2="252.725126798" y1="333.719799076" y2="337.681610383" /><line stroke="rgb(0%,0%,0%)" x1="254.994745891" x2="257.678534814" y1="333.719799076" y2="331.500146837" /><line stroke="rgb(0%,0%,0%)" x1="260.097449877" x2="251.463721388" y1="401.540937864" y2="407.834632386" /><line stroke="rgb(0%,0%,0%)" x1="262.928900653" x2="260.097449877" y1="398.817598653" y2="401.540937864" /><line stroke="rgb(0%,0%,0%)" x1="258.431583494" x2="254.307620137" y1="342.413808596" y2="341.701758718" /><line stroke="rgb(0%,0%,0%)" x1="258.431583494" x2="269.092940373" y1="342.413808596" y2="342.10195603" /><line stroke="rgb(0%,0%,0%)" x1="252.297524461" x2="253.955618951" y1="338.954910826" y2="341.670558383" /><line stroke="rgb(0%,0%,0%)" x1="252.725126798" x2="252.40341603" y1="337.681610383" y2="338.439620986" /><line stroke="rgb(0%,0%,0%)" x1="252.134508265" x2="252.297524461" y1="338.897896287" y2="338.954910826" /><line stroke="rgb(0%,0%,0%)" x1="252.40341603" x2="252.134508265" y1="338.439620986" y2="338.897896287" /><line stroke="rgb(0%,0%,0%)" x1="257.678534814" x2="259.484398283" y1="331.500146837" y2="329.565578661" /><line stroke="rgb(0%,0%,0%)" x1="260.135189369" x2="259.484398283" y1="329.018563705" y2="329.565578661" /><line stroke="rgb(0%,0%,0%)" x1="260.666665201" x2="260.135189369" y1="328.571671974" y2="329.018563705" /><line stroke="rgb(0%,0%,0%)" x1="278.22048081" x2="277.491516304" y1="369.958721295" y2="371.543464466" /><line stroke="rgb(0%,0%,0%)" x1="278.410414688" x2="278.22048081" y1="369.679144166" y2="369.958721295" /><line stroke="rgb(0%,0%,0%)" x1="254.117362756" x2="254.307620137" y1="341.650629242" y2="341.701758718" /><line stroke="rgb(0%,0%,0%)" x1="273.471258137" x2="278.579401553" y1="303.366030556" y2="305.039382484" /><line stroke="rgb(0%,0%,0%)" x1="279.118645411" x2="278.410414688" y1="368.811231758" y2="369.679144166" /><line stroke="rgb(0%,0%,0%)" x1="273.576071935" x2="273.471258137" y1="302.603135949" y2="303.366030556" /><line stroke="rgb(0%,0%,0%)" x1="237.154405426" x2="234.173189988" y1="426.593864852" y2="435.312670737" /><line stroke="rgb(0%,0%,0%)" x1="234.173189988" x2="232.111375787" y1="435.312670737" y2="451.346273585" /><line stroke="rgb(0%,0%,0%)" x1="249.210843618" x2="247.543339784" y1="409.144428705" y2="410.254002237" /><line stroke="rgb(0%,0%,0%)" x1="251.463721388" x2="249.210843618" y1="407.834632386" y2="409.144428705" /><line stroke="rgb(0%,0%,0%)" x1="253.955618951" x2="254.117362756" y1="341.670558383" y2="341.650629242" /><line stroke="rgb(0%,0%,0%)" x1="651.335290763" x2="651.302817232" y1="510.160025864" y2="510.368558913" /><line stroke="rgb(0%,0%,0%)" x1="651.335290763" x2="651.448044398" y1="510.160025864" y2="509.973789248" /><line stroke="rgb(0%,0%,0%)" x1="651.208349114" x2="650.26692304" y1="510.694866581" y2="512.680085026" /><line stroke="rgb(0%,0%,0%)" x1="651.302817232" x2="651.208349114" y1="510.368558913" y2="510.694866581" /><line stroke="rgb(0%,0%,0%)" x1="651.448044398" x2="653.482865191" y1="509.973789248" y2="502.356704885" /><line stroke="rgb(0%,0%,0%)" x1="655.982524017" x2="657.39891556" y1="493.662647116" y2="487.292982136" /><line stroke="rgb(0%,0%,0%)" x1="657.400271615" x2="657.39891556" y1="487.229590359" y2="487.292982136" /><line stroke="rgb(0%,0%,0%)" x1="657.400271615" x2="657.417583978" y1="487.229590359" y2="487.164039484" /><line stroke="rgb(0%,0%,0%)" x1="658.462208691" x2="658.173009979" y1="475.400913329" y2="478.643613736" /><line stroke="rgb(0%,0%,0%)" x1="662.531679131" x2="662.507496743" y1="458.096874101" y2="459.300566564" /><line stroke="rgb(0%,0%,0%)" x1="616.467672419" x2="615.277783671" y1="601.519719987" y2="605.156190918" /><line stroke="rgb(0%,0%,0%)" x1="616.467672419" x2="619.410974108" y1="601.519719987" y2="594.903619836" /><line stroke="rgb(0%,0%,0%)" x1="627.8380125" x2="623.802798719" y1="577.109543035" y2="586.438937752" /><line stroke="rgb(0%,0%,0%)" x1="633.258416538" x2="632.178562901" y1="561.881672563" y2="564.950263787" /><line stroke="rgb(0%,0%,0%)" x1="634.14783215" x2="635.797201378" y1="557.369520103" y2="552.825133485" /><line stroke="rgb(0%,0%,0%)" x1="640.647768657" x2="639.740255287" y1="536.733305672" y2="540.276866941" /><line stroke="rgb(0%,0%,0%)" x1="640.647768657" x2="642.089423637" y1="536.733305672" y2="532.080775042" /><line stroke="rgb(0%,0%,0%)" x1="653.482865191" x2="654.548910229" y1="502.356704885" y2="499.126854736" /><line stroke="rgb(0%,0%,0%)" x1="654.548910229" x2="655.982524017" y1="499.126854736" y2="493.662647116" /><line stroke="rgb(0%,0%,0%)" x1="657.417583978" x2="658.173009979" y1="487.164039484" y2="478.643613736" /><line stroke="rgb(0%,0%,0%)" x1="658.462208691" x2="660.163519257" y1="475.400913329" y2="471.551982436" /><line stroke="rgb(0%,0%,0%)" x1="589.502480012" x2="588.761677255" y1="662.940598495" y2="665.365214725" /><line stroke="rgb(0%,0%,0%)" x1="600.17293578" x2="597.152999217" y1="635.781477398" y2="643.154243803" /><line stroke="rgb(0%,0%,0%)" x1="600.17293578" x2="601.354029911" y1="635.781477398" y2="634.436371321" /><line stroke="rgb(0%,0%,0%)" x1="606.082926651" x2="604.542142436" y1="622.531353726" y2="626.777826681" /><line stroke="rgb(0%,0%,0%)" x1="606.082926651" x2="606.482463798" y1="622.531353726" y2="622.237134922" /><line stroke="rgb(0%,0%,0%)" x1="610.085128923" x2="615.277783671" y1="614.496672215" y2="605.156190918" /><line stroke="rgb(0%,0%,0%)" x1="627.8380125" x2="630.677233212" y1="577.109543035" y2="569.699318927" /><line stroke="rgb(0%,0%,0%)" x1="630.677233212" x2="632.178562901" y1="569.699318927" y2="564.950263787" /><line stroke="rgb(0%,0%,0%)" x1="633.258416538" x2="634.14783215" y1="561.881672563" y2="557.369520103" /><line stroke="rgb(0%,0%,0%)" x1="637.280669567" x2="638.807225" y1="547.626559636" y2="543.056248185" /><line stroke="rgb(0%,0%,0%)" x1="638.807225" x2="639.740255287" y1="543.056248185" y2="540.276866941" /><line stroke="rgb(0%,0%,0%)" x1="642.089423637" x2="643.040734673" y1="532.080775042" y2="528.379202245" /><line stroke="rgb(0%,0%,0%)" x1="646.3920105" x2="646.723169624" y1="520.300405675" y2="519.101313655" /><line stroke="rgb(0%,0%,0%)" x1="647.090403284" x2="650.26692304" y1="518.488648229" y2="512.680085026" /><line stroke="rgb(0%,0%,0%)" x1="660.163519257" x2="661.140943477" y1="471.551982436" y2="466.165125452" /><line stroke="rgb(0%,0%,0%)" x1="661.140943477" x2="662.507496743" y1="466.165125452" y2="459.300566564" /><line stroke="rgb(0%,0%,0%)" x1="570.989465664" x2="570.002706116" y1="699.230622178" y2="701.041796062" /><line stroke="rgb(0%,0%,0%)" x1="570.989465664" x2="573.29013762" y1="699.230622178" y2="696.359244431" /><line stroke="rgb(0%,0%,0%)" x1="586.842676712" x2="588.761677255" y1="669.614350495" y2="665.365214725" /><line stroke="rgb(0%,0%,0%)" x1="589.502480012" x2="591.346947545" y1="662.940598495" y2="658.255305122" /><line stroke="rgb(0%,0%,0%)" x1="595.743358523" x2="597.152999217" y1="645.72841985" y2="643.154243803" /><line stroke="rgb(0%,0%,0%)" x1="606.482463798" x2="609.478982221" y1="622.237134922" y2="615.76321439" /><line stroke="rgb(0%,0%,0%)" x1="609.478982221" x2="610.085128923" y1="615.76321439" y2="614.496672215" /><line stroke="rgb(0%,0%,0%)" x1="619.410974108" x2="623.802798719" y1="594.903619836" y2="586.438937752" /><line stroke="rgb(0%,0%,0%)" x1="635.797201378" x2="637.280669567" y1="552.825133485" y2="547.626559636" /><line stroke="rgb(0%,0%,0%)" x1="643.040734673" x2="646.3920105" y1="528.379202245" y2="520.300405675" /><line stroke="rgb(0%,0%,0%)" x1="646.723169624" x2="647.090403284" y1="519.101313655" y2="518.488648229" /><line stroke="rgb(0%,0%,0%)" x1="538.978274182" x2="537.831606727" y1="724.995713252" y2="726.002874227" /><line stroke="rgb(0%,0%,0%)" x1="538.978274182" x2="540.564196735" y1="724.995713252" y2="724.284008055" /><line stroke="rgb(0%,0%,0%)" x1="552.571830814" x2="551.043119204" y1="715.200154002" y2="716.884143046" /><line stroke="rgb(0%,0%,0%)" x1="544.510072338" x2="551.043119204" y1="722.35060262" y2="716.884143046" /><line stroke="rgb(0%,0%,0%)" x1="552.571830814" x2="554.765086809" y1="715.200154002" y2="713.477104356" /><line stroke="rgb(0%,0%,0%)" x1="554.765086809" x2="559.654368411" y1="713.477104356" y2="709.956993059" /><line stroke="rgb(0%,0%,0%)" x1="559.654368411" x2="562.623354723" y1="709.956993059" y2="708.160246736" /><line stroke="rgb(0%,0%,0%)" x1="568.060700062" x2="565.153881632" y1="704.155829442" y2="706.574842783" /><line stroke="rgb(0%,0%,0%)" x1="568.060700062" x2="570.002706116" y1="704.155829442" y2="701.041796062" /><line stroke="rgb(0%,0%,0%)" x1="573.29013762" x2="574.390775763" y1="696.359244431" y2="694.512640039" /><line stroke="rgb(0%,0%,0%)" x1="577.530881438" x2="576.638919286" y1="688.5043079" y2="690.711849952" /><line stroke="rgb(0%,0%,0%)" x1="577.530881438" x2="579.600635546" y1="688.5043079" y2="684.978007303" /><line stroke="rgb(0%,0%,0%)" x1="579.600635546" x2="580.325290242" y1="684.978007303" y2="683.359536806" /><line stroke="rgb(0%,0%,0%)" x1="586.842676712" x2="580.825027958" y1="669.614350495" y2="682.057407308" /><line stroke="rgb(0%,0%,0%)" x1="580.325290242" x2="580.825027958" y1="683.359536806" y2="682.057407308" /><line stroke="rgb(0%,0%,0%)" x1="591.346947545" x2="595.743358523" y1="658.255305122" y2="645.72841985" /><line stroke="rgb(0%,0%,0%)" x1="601.602217856" x2="604.542142436" y1="633.61151006" y2="626.777826681" /><line stroke="rgb(0%,0%,0%)" x1="601.354029911" x2="601.602217856" y1="634.436371321" y2="633.61151006" /><line stroke="rgb(0%,0%,0%)" x1="526.062414237" x2="523.494207206" y1="729.957889445" y2="730.939908452" /><line stroke="rgb(0%,0%,0%)" x1="526.062414237" x2="537.831606727" y1="729.957889445" y2="726.002874227" /><line stroke="rgb(0%,0%,0%)" x1="540.564196735" x2="544.510072338" y1="724.284008055" y2="722.35060262" /><line stroke="rgb(0%,0%,0%)" x1="562.623354723" x2="562.956649934" y1="708.160246736" y2="707.901817557" /><line stroke="rgb(0%,0%,0%)" x1="562.956649934" x2="565.153881632" y1="707.901817557" y2="706.574842783" /><line stroke="rgb(0%,0%,0%)" x1="574.390775763" x2="576.638919286" y1="694.512640039" y2="690.711849952" /><line stroke="rgb(0%,0%,0%)" x1="492.663045978" x2="496.303472764" y1="742.600825232" y2="742.634572054" /><line stroke="rgb(0%,0%,0%)" x1="501.586055007" x2="496.303472764" y1="740.744516016" y2="742.634572054" /><line stroke="rgb(0%,0%,0%)" x1="510.496687108" x2="515.633529744" y1="736.922646941" y2="733.358831643" /><line stroke="rgb(0%,0%,0%)" x1="507.177021909" x2="510.496687108" y1="739.314622791" y2="736.922646941" /><line stroke="rgb(0%,0%,0%)" x1="515.633529744" x2="523.494207206" y1="733.358831643" y2="730.939908452" /><line stroke="rgb(0%,0%,0%)" x1="461.957583777" x2="458.876749056" y1="746.109792014" y2="746.499776402" /><line stroke="rgb(0%,0%,0%)" x1="447.522992145" x2="458.876749056" y1="749.223349592" y2="746.499776402" /><line stroke="rgb(0%,0%,0%)" x1="461.957583777" x2="469.801047216" y1="746.109792014" y2="743.691524485" /><line stroke="rgb(0%,0%,0%)" x1="484.119592528" x2="480.806788345" y1="741.378330771" y2="740.464135666" /><line stroke="rgb(0%,0%,0%)" x1="469.801047216" x2="479.867437102" y1="743.691524485" y2="740.877028376" /><line stroke="rgb(0%,0%,0%)" x1="479.867437102" x2="480.806788345" y1="740.877028376" y2="740.464135666" /><line stroke="rgb(0%,0%,0%)" x1="484.119592528" x2="492.663045978" y1="741.378330771" y2="742.600825232" /><line stroke="rgb(0%,0%,0%)" x1="501.586055007" x2="507.177021909" y1="740.744516016" y2="739.314622791" /><line stroke="rgb(0%,0%,0%)" x1="416.933874593" x2="415.501277593" y1="752.918993859" y2="752.746722078" /><line stroke="rgb(0%,0%,0%)" x1="416.933874593" x2="418.237819958" y1="752.918993859" y2="752.910240338" /><line stroke="rgb(0%,0%,0%)" x1="420.009267994" x2="418.237819958" y1="752.701874982" y2="752.910240338" /><line stroke="rgb(0%,0%,0%)" x1="420.009267994" x2="423.943174657" y1="752.701874982" y2="752.040771398" /><line stroke="rgb(0%,0%,0%)" x1="423.943174657" x2="442.58630977" y1="752.040771398" y2="749.451162074" /><line stroke="rgb(0%,0%,0%)" x1="442.58630977" x2="447.522992145" y1="749.451162074" y2="749.223349592" /><line stroke="rgb(0%,0%,0%)" x1="389.05489985" x2="389.091584084" y1="713.6786896" y2="713.500229025" /><line stroke="rgb(0%,0%,0%)" x1="394.871158065" x2="391.060478735" y1="747.56491629" y2="745.898321271" /><line stroke="rgb(0%,0%,0%)" x1="391.060478735" x2="388.290522482" y1="745.898321271" y2="744.299839641" /><line stroke="rgb(0%,0%,0%)" x1="394.871158065" x2="402.010706154" y1="747.56491629" y2="749.929505831" /><line stroke="rgb(0%,0%,0%)" x1="384.51566797" x2="388.290522482" y1="740.71383295" y2="744.299839641" /><line stroke="rgb(0%,0%,0%)" x1="389.05489985" x2="387.2557263" y1="713.6786896" y2="725.365350866" /><line stroke="rgb(0%,0%,0%)" x1="402.010706154" x2="407.476610347" y1="749.929505831" y2="750.626234175" /><line stroke="rgb(0%,0%,0%)" x1="407.476610347" x2="415.501277593" y1="750.626234175" y2="752.746722078" /><line stroke="rgb(0%,0%,0%)" x1="339.038822715" x2="343.396205458" y1="675.052101293" y2="676.567516144" /><line stroke="rgb(0%,0%,0%)" x1="339.038822715" x2="334.074013521" y1="675.052101293" y2="672.586131845" /><line stroke="rgb(0%,0%,0%)" x1="343.396205458" x2="357.866938009" y1="676.567516144" y2="679.278101637" /><line stroke="rgb(0%,0%,0%)" x1="357.866938009" x2="363.207288368" y1="679.278101637" y2="679.080191425" /><line stroke="rgb(0%,0%,0%)" x1="363.207288368" x2="369.20493047" y1="679.080191425" y2="679.047468186" /><line stroke="rgb(0%,0%,0%)" x1="369.548793878" x2="369.20493047" y1="679.240675281" y2="679.047468186" /><line stroke="rgb(0%,0%,0%)" x1="383.083955262" x2="382.756823691" y1="730.724416236" y2="733.747280433" /><line stroke="rgb(0%,0%,0%)" x1="387.2557263" x2="383.083955262" y1="725.365350866" y2="730.724416236" /><line stroke="rgb(0%,0%,0%)" x1="378.77907458" x2="379.128165507" y1="694.788087317" y2="695.978866267" /><line stroke="rgb(0%,0%,0%)" x1="379.128165507" x2="389.091584084" y1="695.978866267" y2="713.500229025" /><line stroke="rgb(0%,0%,0%)" x1="378.77907458" x2="378.700693419" y1="694.788087317" y2="693.842747785" /><line stroke="rgb(0%,0%,0%)" x1="375.32337241" x2="378.700693419" y1="686.848211615" y2="693.842747785" /><line stroke="rgb(0%,0%,0%)" x1="374.183766201" x2="375.32337241" y1="683.572616048" y2="686.848211615" /><line stroke="rgb(0%,0%,0%)" x1="374.183766201" x2="372.821025942" y1="683.572616048" y2="681.007570558" /><line stroke="rgb(0%,0%,0%)" x1="369.548793878" x2="372.821025942" y1="679.240675281" y2="681.007570558" /><line stroke="rgb(0%,0%,0%)" x1="382.756823691" x2="384.352368901" y1="733.747280433" y2="738.477441266" /><line stroke="rgb(0%,0%,0%)" x1="384.352368901" x2="384.51566797" y1="738.477441266" y2="740.71383295" /><line stroke="rgb(0%,0%,0%)" x1="283.182245077" x2="278.526120843" y1="545.573396001" y2="541.140624788" /><line stroke="rgb(0%,0%,0%)" x1="296.973020164" x2="297.111257117" y1="556.596772504" y2="556.701288109" /><line stroke="rgb(0%,0%,0%)" x1="294.609393515" x2="296.973020164" y1="554.090804178" y2="556.596772504" /><line stroke="rgb(0%,0%,0%)" x1="294.266322377" x2="294.609393515" y1="553.85172537" y2="554.090804178" /><line stroke="rgb(0%,0%,0%)" x1="294.266322377" x2="293.741415561" y1="553.85172537" y2="553.44053995" /><line stroke="rgb(0%,0%,0%)" x1="306.522213296" x2="314.859447471" y1="651.23251322" y2="656.874189594" /><line stroke="rgb(0%,0%,0%)" x1="314.859447471" x2="319.518530566" y1="656.874189594" y2="661.851547174" /><line stroke="rgb(0%,0%,0%)" x1="306.522213296" x2="304.316703212" y1="651.23251322" y2="648.870287317" /><line stroke="rgb(0%,0%,0%)" x1="327.570180345" x2="334.074013521" y1="668.542580838" y2="672.586131845" /><line stroke="rgb(0%,0%,0%)" x1="319.518530566" x2="327.570180345" y1="661.851547174" y2="668.542580838" /><line stroke="rgb(0%,0%,0%)" x1="229.670422281" x2="230.533451225" y1="479.250801838" y2="480.32202535" /><line stroke="rgb(0%,0%,0%)" x1="268.238247142" x2="268.693712916" y1="569.135051424" y2="569.251603149" /><line stroke="rgb(0%,0%,0%)" x1="268.238247142" x2="267.780516829" y1="569.135051424" y2="569.198816375" /><line stroke="rgb(0%,0%,0%)" x1="244.992867865" x2="247.432862638" y1="496.827797161" y2="498.595677631" /><line stroke="rgb(0%,0%,0%)" x1="244.992867865" x2="243.946772229" y1="496.827797161" y2="495.801498227" /><line stroke="rgb(0%,0%,0%)" x1="271.435139873" x2="269.762313939" y1="532.079749994" y2="530.950956074" /><line stroke="rgb(0%,0%,0%)" x1="269.762313939" x2="265.825316005" y1="530.950956074" y2="521.866157014" /><line stroke="rgb(0%,0%,0%)" x1="264.976545596" x2="264.061172934" y1="518.216725996" y2="516.973626164" /><line stroke="rgb(0%,0%,0%)" x1="277.489562714" x2="268.693712916" y1="568.754099591" y2="569.251603149" /><line stroke="rgb(0%,0%,0%)" x1="286.093174911" x2="277.489562714" y1="569.009642625" y2="568.754099591" /><line stroke="rgb(0%,0%,0%)" x1="274.531681368" x2="276.301017257" y1="536.857128252" y2="538.901568048" /><line stroke="rgb(0%,0%,0%)" x1="271.435139873" x2="274.531681368" y1="532.079749994" y2="536.857128252" /><line stroke="rgb(0%,0%,0%)" x1="295.105124361" x2="304.316703212" y1="634.164007304" y2="648.870287317" /><line stroke="rgb(0%,0%,0%)" x1="293.316920359" x2="295.105124361" y1="631.118430073" y2="634.164007304" /><line stroke="rgb(0%,0%,0%)" x1="286.818439575" x2="293.741415561" y1="549.010117105" y2="553.44053995" /><line stroke="rgb(0%,0%,0%)" x1="229.709723016" x2="229.670422281" y1="460.87460725" y2="479.250801838" /><line stroke="rgb(0%,0%,0%)" x1="229.709723016" x2="231.819595412" y1="460.87460725" y2="452.940097103" /><line stroke="rgb(0%,0%,0%)" x1="264.187811085" x2="264.098564064" y1="570.071391921" y2="570.199385374" /><line stroke="rgb(0%,0%,0%)" x1="230.533451225" x2="243.946772229" y1="480.32202535" y2="495.801498227" /><line stroke="rgb(0%,0%,0%)" x1="261.420769341" x2="262.077704302" y1="574.213672255" y2="575.491368661" /><line stroke="rgb(0%,0%,0%)" x1="264.098564064" x2="261.242505652" y1="570.199385374" y2="570.297463469" /><line stroke="rgb(0%,0%,0%)" x1="267.780516829" x2="264.187811085" y1="569.198816375" y2="570.071391921" /><line stroke="rgb(0%,0%,0%)" x1="254.986593961" x2="264.061172934" y1="505.208825312" y2="516.973626164" /><line stroke="rgb(0%,0%,0%)" x1="247.432862638" x2="254.986593961" y1="498.595677631" y2="505.208825312" /><line stroke="rgb(0%,0%,0%)" x1="262.077704302" x2="263.332409664" y1="575.491368661" y2="576.802190844" /><line stroke="rgb(0%,0%,0%)" x1="260.321891092" x2="261.420769341" y1="572.708257037" y2="574.213672255" /><line stroke="rgb(0%,0%,0%)" x1="261.610786084" x2="260.787900068" y1="571.079538188" y2="571.77446195" /><line stroke="rgb(0%,0%,0%)" x1="261.242505652" x2="261.610786084" y1="570.297463469" y2="571.079538188" /><line stroke="rgb(0%,0%,0%)" x1="260.321891092" x2="260.787900068" y1="572.708257037" y2="571.77446195" /><line stroke="rgb(0%,0%,0%)" x1="265.391887759" x2="265.825316005" y1="519.684233397" y2="521.866157014" /><line stroke="rgb(0%,0%,0%)" x1="264.976545596" x2="265.391887759" y1="518.216725996" y2="519.684233397" /><line stroke="rgb(0%,0%,0%)" x1="284.263717941" x2="286.818439575" y1="546.477314642" y2="549.010117105" /><line stroke="rgb(0%,0%,0%)" x1="283.182245077" x2="284.263717941" y1="545.573396001" y2="546.477314642" /><line stroke="rgb(0%,0%,0%)" x1="276.301017257" x2="278.526120843" y1="538.901568048" y2="541.140624788" /><line stroke="rgb(0%,0%,0%)" x1="232.111375787" x2="231.819595412" y1="451.346273585" y2="452.940097103" /><line stroke="rgb(0%,0%,0%)" x1="306.386337357" x2="299.080657162" y1="565.745927809" y2="567.377119029" /><line stroke="rgb(0%,0%,0%)" x1="297.111257117" x2="301.13601867" y1="556.701288109" y2="558.650177913" /><line stroke="rgb(0%,0%,0%)" x1="276.19851469" x2="275.016169082" y1="586.995100833" y2="585.90620578" /><line stroke="rgb(0%,0%,0%)" x1="273.840630162" x2="275.016169082" y1="585.056981565" y2="585.90620578" /><line stroke="rgb(0%,0%,0%)" x1="270.011508622" x2="269.135316822" y1="582.516111669" y2="581.976071425" /><line stroke="rgb(0%,0%,0%)" x1="288.020441265" x2="289.518652087" y1="596.966662268" y2="598.479052409" /><line stroke="rgb(0%,0%,0%)" x1="283.443749223" x2="288.020441265" y1="592.84108294" y2="596.966662268" /><line stroke="rgb(0%,0%,0%)" x1="280.624802196" x2="283.443749223" y1="589.782365172" y2="592.84108294" /><line stroke="rgb(0%,0%,0%)" x1="276.19851469" x2="280.624802196" y1="586.995100833" y2="589.782365172" /><line stroke="rgb(0%,0%,0%)" x1="293.316920359" x2="291.907867756" y1="631.118430073" y2="627.416516241" /><line stroke="rgb(0%,0%,0%)" x1="290.634319129" x2="291.907867756" y1="623.733009543" y2="627.416516241" /><line stroke="rgb(0%,0%,0%)" x1="290.40918414" x2="290.634319129" y1="622.899436761" y2="623.733009543" /><line stroke="rgb(0%,0%,0%)" x1="292.835849021" x2="292.497773479" y1="605.378419489" y2="607.441903775" /><line stroke="rgb(0%,0%,0%)" x1="289.518652087" x2="292.850385173" y1="598.479052409" y2="601.452459779" /><line stroke="rgb(0%,0%,0%)" x1="286.093174911" x2="294.598148007" y1="569.009642625" y2="568.549939137" /><line stroke="rgb(0%,0%,0%)" x1="299.080657162" x2="297.887013047" y1="567.377119029" y2="568.004073042" /><line stroke="rgb(0%,0%,0%)" x1="306.828576465" x2="306.817893998" y1="564.242130083" y2="564.503192334" /><line stroke="rgb(0%,0%,0%)" x1="306.386337357" x2="306.817893998" y1="565.745927809" y2="564.503192334" /><line stroke="rgb(0%,0%,0%)" x1="305.440798816" x2="306.828576465" y1="563.049257224" y2="564.242130083" /><line stroke="rgb(0%,0%,0%)" x1="301.13601867" x2="305.440798816" y1="558.650177913" y2="563.049257224" /><line stroke="rgb(0%,0%,0%)" x1="264.241246001" x2="266.333470982" y1="577.880897258" y2="579.784711072" /><line stroke="rgb(0%,0%,0%)" x1="269.135316822" x2="266.333470982" y1="581.976071425" y2="579.784711072" /><line stroke="rgb(0%,0%,0%)" x1="263.332409664" x2="264.241246001" y1="576.802190844" y2="577.880897258" /><line stroke="rgb(0%,0%,0%)" x1="270.011508622" x2="273.840630162" y1="582.516111669" y2="585.056981565" /><line stroke="rgb(0%,0%,0%)" x1="297.887013047" x2="294.598148007" y1="568.004073042" y2="568.549939137" /><line stroke="rgb(0%,0%,0%)" x1="290.311922564" x2="290.40918414" y1="620.639253127" y2="622.899436761" /><line stroke="rgb(0%,0%,0%)" x1="290.757494704" x2="290.394297344" y1="618.036848777" y2="619.258809295" /><line stroke="rgb(0%,0%,0%)" x1="290.311922564" x2="290.394297344" y1="620.639253127" y2="619.258809295" /><line stroke="rgb(0%,0%,0%)" x1="290.757494704" x2="290.353285143" y1="618.036848777" y2="615.80426849" /><line stroke="rgb(0%,0%,0%)" x1="290.381502601" x2="290.353285143" y1="615.282033791" y2="615.80426849" /><line stroke="rgb(0%,0%,0%)" x1="290.937817813" x2="290.381502601" y1="614.277249749" y2="615.282033791" /><line stroke="rgb(0%,0%,0%)" x1="292.497773479" x2="291.856070536" y1="607.441903775" y2="609.906741219" /><line stroke="rgb(0%,0%,0%)" x1="291.856070536" x2="290.937817813" y1="609.906741219" y2="614.277249749" /><line stroke="rgb(0%,0%,0%)" x1="292.810881551" x2="292.835849021" y1="601.895719137" y2="605.378419489" /><line stroke="rgb(0%,0%,0%)" x1="292.850385173" x2="292.810881551" y1="601.452459779" y2="601.895719137" /></svg>