<?xml version="1.0" encoding="utf-8" ?>
<svg baseProfile="full" height="100%" version="1.1" viewBox="0.5 0.5 685.793960571 941.299331665" width="100%" xmlns="http://www.w3.org/2000/svg" xmlns:ev="http://www.w3.org/2001/xml-events" xmlns:xlink="http://www.w3.org/1999/xlink"><defs /><line stroke="rgb(0%,0%,0%)" x1="641.045831656" x2="639.767790736" y1="372.288561739" y2="367.531064117" /><line stroke="rgb(0%,0%,0%)" x1="641.045831656" x2="641.876727089" y1="372.288561739" y2="374.754094669" /><line stroke="rgb(0%,0%,0%)" x1="657.963333636" x2="657.507380759" y1="445.070320116" y2="438.908235109" /><line stroke="rgb(0%,0%,0%)" x1="657.507380759" x2="657.416870228" y1="438.908235109" y2="438.383950366" /><line stroke="rgb(0%,0%,0%)" x1="651.742907459" x2="651.165201988" y1="418.221042187" y2="412.891091965" /><line stroke="rgb(0%,0%,0%)" x1="651.165201988" x2="649.480941564" y1="412.891091965" y2="407.627077015" /><line stroke="rgb(0%,0%,0%)" x1="648.472818775" x2="649.480941564" y1="406.04022753" y2="407.627077015" /><line stroke="rgb(0%,0%,0%)" x1="646.900559954" x2="648.06205444" y1="396.213510793" y2="400.963896379" /><line stroke="rgb(0%,0%,0%)" x1="598.737443169" x2="599.677546365" y1="268.68343955" y2="269.506096595" /><line stroke="rgb(0%,0%,0%)" x1="598.737443169" x2="598.22887384" y1="268.68343955" y2="267.595014336" /><line stroke="rgb(0%,0%,0%)" x1="616.075883347" x2="610.451894999" y1="311.09418177" y2="300.445534695" /><line stroke="rgb(0%,0%,0%)" x1="632.493499921" x2="634.381342983" y1="350.24029731" y2="354.467764457" /><line stroke="rgb(0%,0%,0%)" x1="632.493499921" x2="631.110526959" y1="350.24029731" y2="346.884640395" /><line stroke="rgb(0%,0%,0%)" x1="629.164584615" x2="631.110526959" y1="342.509482053" y2="346.884640395" /><line stroke="rgb(0%,0%,0%)" x1="629.164584615" x2="624.212837793" y1="342.509482053" y2="332.758540811" /><line stroke="rgb(0%,0%,0%)" x1="624.212837793" x2="622.329573904" y1="332.758540811" y2="326.55207241" /><line stroke="rgb(0%,0%,0%)" x1="639.767790736" x2="638.737107801" y1="367.531064117" y2="364.114085169" /><line stroke="rgb(0%,0%,0%)" x1="634.381342983" x2="636.913547487" y1="354.467764457" y2="360.330058356" /><line stroke="rgb(0%,0%,0%)" x1="657.963333636" x2="659.343225649" y1="445.070320116" y2="456.350996795" /><line stroke="rgb(0%,0%,0%)" x1="654.801536705" x2="657.138804347" y1="430.65763839" y2="437.311900196" /><line stroke="rgb(0%,0%,0%)" x1="654.801536705" x2="654.00468714" y1="430.65763839" y2="426.473497011" /><line stroke="rgb(0%,0%,0%)" x1="651.742907459" x2="654.00468714" y1="418.221042187" y2="426.473497011" /><line stroke="rgb(0%,0%,0%)" x1="648.472818775" x2="648.513710729" y1="406.04022753" y2="402.435547254" /><line stroke="rgb(0%,0%,0%)" x1="598.22887384" x2="595.692884528" y1="267.595014336" y2="262.317685946" /><line stroke="rgb(0%,0%,0%)" x1="595.692884528" x2="591.778333058" y1="262.317685946" y2="256.511715229" /><line stroke="rgb(0%,0%,0%)" x1="591.778333058" x2="586.784741914" y1="256.511715229" y2="248.646225306" /><line stroke="rgb(0%,0%,0%)" x1="609.350813397" x2="609.915221081" y1="291.270396688" y2="297.674074361" /><line stroke="rgb(0%,0%,0%)" x1="609.350813397" x2="607.968655226" y1="291.270396688" y2="284.502105948" /><line stroke="rgb(0%,0%,0%)" x1="607.968655226" x2="606.286484142" y1="284.502105948" y2="280.742352615" /><line stroke="rgb(0%,0%,0%)" x1="605.783276062" x2="606.286484142" y1="277.137567408" y2="280.742352615" /><line stroke="rgb(0%,0%,0%)" x1="599.677546365" x2="601.168305234" y1="269.506096595" y2="271.33852881" /><line stroke="rgb(0%,0%,0%)" x1="616.075883347" x2="618.924420885" y1="311.09418177" y2="319.508550716" /><line stroke="rgb(0%,0%,0%)" x1="646.626596018" x2="642.878214351" y1="393.857921141" y2="377.997788921" /><line stroke="rgb(0%,0%,0%)" x1="641.870509903" x2="641.876727089" y1="374.829987589" y2="374.754094669" /><line stroke="rgb(0%,0%,0%)" x1="659.276716529" x2="659.343225649" y1="457.926423947" y2="456.350996795" /><line stroke="rgb(0%,0%,0%)" x1="657.416870228" x2="657.138804347" y1="438.383950366" y2="437.311900196" /><line stroke="rgb(0%,0%,0%)" x1="536.850665925" x2="538.051008821" y1="213.916624987" y2="214.302836544" /><line stroke="rgb(0%,0%,0%)" x1="545.257295887" x2="538.051008821" y1="215.105483216" y2="214.302836544" /><line stroke="rgb(0%,0%,0%)" x1="551.035971299" x2="555.0796809" y1="218.305141171" y2="222.416226059" /><line stroke="rgb(0%,0%,0%)" x1="573.646661308" x2="568.675055633" y1="240.059191689" y2="236.724491125" /><line stroke="rgb(0%,0%,0%)" x1="566.550201854" x2="568.675055633" y1="235.4236784" y2="236.724491125" /><line stroke="rgb(0%,0%,0%)" x1="566.550201854" x2="564.384332921" y1="235.4236784" y2="232.610877189" /><line stroke="rgb(0%,0%,0%)" x1="586.784741914" x2="584.350631275" y1="248.646225306" y2="247.009957405" /><line stroke="rgb(0%,0%,0%)" x1="579.138043641" x2="584.350631275" y1="244.042411865" y2="247.009957405" /><line stroke="rgb(0%,0%,0%)" x1="579.138043641" x2="573.646661308" y1="244.042411865" y2="240.059191689" /><line stroke="rgb(0%,0%,0%)" x1="610.451894999" x2="610.164726605" y1="300.445534695" y2="298.942801046" /><line stroke="rgb(0%,0%,0%)" x1="610.164726605" x2="609.915221081" y1="298.942801046" y2="297.674074361" /><line stroke="rgb(0%,0%,0%)" x1="605.783276062" x2="601.168305234" y1="277.137567408" y2="271.33852881" /><line stroke="rgb(0%,0%,0%)" x1="622.329573904" x2="621.015137945" y1="326.55207241" y2="323.846177162" /><line stroke="rgb(0%,0%,0%)" x1="621.015137945" x2="618.924420885" y1="323.846177162" y2="319.508550716" /><line stroke="rgb(0%,0%,0%)" x1="638.737107801" x2="636.913547487" y1="364.114085169" y2="360.330058356" /><line stroke="rgb(0%,0%,0%)" x1="648.513710729" x2="648.404589178" y1="402.435547254" y2="401.764342367" /><line stroke="rgb(0%,0%,0%)" x1="648.404589178" x2="648.06205444" y1="401.764342367" y2="400.963896379" /><line stroke="rgb(0%,0%,0%)" x1="646.900559954" x2="646.626596018" y1="396.213510793" y2="393.857921141" /><line stroke="rgb(0%,0%,0%)" x1="642.878214351" x2="642.540053346" y1="377.997788921" y2="376.841396121" /><line stroke="rgb(0%,0%,0%)" x1="642.540053346" x2="641.870509903" y1="376.841396121" y2="374.829987589" /><line stroke="rgb(0%,0%,0%)" x1="535.293185099" x2="530.789605267" y1="214.599347941" y2="213.310299763" /><line stroke="rgb(0%,0%,0%)" x1="536.850665925" x2="535.293185099" y1="213.916624987" y2="214.599347941" /><line stroke="rgb(0%,0%,0%)" x1="527.373017245" x2="530.789605267" y1="212.038131277" y2="213.310299763" /><line stroke="rgb(0%,0%,0%)" x1="551.035971299" x2="545.257295887" y1="218.305141171" y2="215.105483216" /><line stroke="rgb(0%,0%,0%)" x1="564.384332921" x2="557.076753774" y1="232.610877189" y2="225.788067255" /><line stroke="rgb(0%,0%,0%)" x1="557.076753774" x2="555.0796809" y1="225.788067255" y2="222.416226059" /><line stroke="rgb(0%,0%,0%)" x1="494.452008148" x2="485.903881048" y1="195.520713611" y2="191.215274267" /><line stroke="rgb(0%,0%,0%)" x1="494.452008148" x2="505.581537606" y1="195.520713611" y2="202.178291468" /><line stroke="rgb(0%,0%,0%)" x1="527.373017245" x2="519.941604183" y1="212.038131277" y2="209.213796229" /><line stroke="rgb(0%,0%,0%)" x1="461.986137042" x2="453.142898275" y1="178.710232789" y2="174.359403396" /><line stroke="rgb(0%,0%,0%)" x1="485.903881048" x2="485.038371269" y1="191.215274267" y2="190.61415437" /><line stroke="rgb(0%,0%,0%)" x1="471.325281189" x2="485.038371269" y1="183.574734314" y2="190.61415437" /><line stroke="rgb(0%,0%,0%)" x1="471.325281189" x2="470.016465897" y1="183.574734314" y2="182.542917098" /><line stroke="rgb(0%,0%,0%)" x1="508.775881976" x2="505.581537606" y1="204.276570857" y2="202.178291468" /><line stroke="rgb(0%,0%,0%)" x1="517.486454347" x2="514.349562632" y1="208.080340579" y2="205.699487525" /><line stroke="rgb(0%,0%,0%)" x1="514.349562632" x2="508.775881976" y1="205.699487525" y2="204.276570857" /><line stroke="rgb(0%,0%,0%)" x1="519.941604183" x2="517.486454347" y1="209.213796229" y2="208.080340579" /><line stroke="rgb(0%,0%,0%)" x1="442.883840708" x2="431.778433227" y1="169.463768733" y2="165.342620287" /><line stroke="rgb(0%,0%,0%)" x1="429.989406139" x2="431.778433227" y1="164.775352568" y2="165.342620287" /><line stroke="rgb(0%,0%,0%)" x1="429.989406139" x2="414.341529049" y1="164.775352568" y2="159.854486494" /><line stroke="rgb(0%,0%,0%)" x1="453.142898275" x2="448.841811276" y1="174.359403396" y2="172.335202919" /><line stroke="rgb(0%,0%,0%)" x1="442.883840708" x2="448.841811276" y1="169.463768733" y2="172.335202919" /><line stroke="rgb(0%,0%,0%)" x1="470.016465897" x2="461.986137042" y1="182.542917098" y2="178.710232789" /><line stroke="rgb(0%,0%,0%)" x1="389.001837231" x2="392.929360553" y1="156.746409896" y2="156.902257916" /><line stroke="rgb(0%,0%,0%)" x1="414.341529049" x2="410.862468335" y1="159.854486494" y2="158.829731304" /><line stroke="rgb(0%,0%,0%)" x1="410.862468335" x2="401.030466591" y1="158.829731304" y2="157.244808966" /><line stroke="rgb(0%,0%,0%)" x1="375.371551318" x2="371.776499655" y1="160.815581872" y2="162.737320802" /><line stroke="rgb(0%,0%,0%)" x1="375.371551318" x2="376.832852266" y1="160.815581872" y2="159.415240544" /><line stroke="rgb(0%,0%,0%)" x1="379.570330188" x2="376.832852266" y1="158.51986513" y2="159.415240544" /><line stroke="rgb(0%,0%,0%)" x1="389.001837231" x2="379.570330188" y1="156.746409896" y2="158.51986513" /><line stroke="rgb(0%,0%,0%)" x1="395.53200857" x2="392.929360553" y1="156.869422803" y2="156.902257916" /><line stroke="rgb(0%,0%,0%)" x1="401.030466591" x2="395.53200857" y1="157.244808966" y2="156.869422803" /><line stroke="rgb(0%,0%,0%)" x1="351.366994711" x2="349.213022293" y1="223.803080861" y2="224.067483749" /><line stroke="rgb(0%,0%,0%)" x1="349.213022293" x2="343.090489751" y1="224.067483749" y2="227.202139726" /><line stroke="rgb(0%,0%,0%)" x1="361.366866613" x2="361.201888185" y1="219.972610188" y2="219.555063671" /><line stroke="rgb(0%,0%,0%)" x1="361.366866613" x2="361.338254875" y1="219.972610188" y2="220.013252137" /><line stroke="rgb(0%,0%,0%)" x1="354.444250888" x2="357.041770026" y1="201.63815117" y2="209.417275169" /><line stroke="rgb(0%,0%,0%)" x1="354.868694158" x2="354.444250888" y1="196.431235596" y2="201.63815117" /><line stroke="rgb(0%,0%,0%)" x1="359.591744482" x2="362.886289754" y1="178.046803127" y2="172.657522704" /><line stroke="rgb(0%,0%,0%)" x1="355.972683429" x2="351.366994711" y1="223.674269738" y2="223.803080861" /><line stroke="rgb(0%,0%,0%)" x1="355.972683429" x2="358.412468535" y1="223.674269738" y2="222.594158223" /><line stroke="rgb(0%,0%,0%)" x1="361.338254875" x2="358.412468535" y1="220.013252137" y2="222.594158223" /><line stroke="rgb(0%,0%,0%)" x1="361.453896351" x2="361.201888185" y1="215.601239801" y2="219.555063671" /><line stroke="rgb(0%,0%,0%)" x1="357.041770026" x2="361.453896351" y1="209.417275169" y2="215.601239801" /><line stroke="rgb(0%,0%,0%)" x1="354.407250315" x2="354.868694158" y1="190.827150446" y2="196.431235596" /><line stroke="rgb(0%,0%,0%)" x1="357.558502976" x2="354.407250315" y1="182.962586359" y2="190.827150446" /><line stroke="rgb(0%,0%,0%)" x1="359.591744482" x2="357.558502976" y1="178.046803127" y2="182.962586359" /><line stroke="rgb(0%,0%,0%)" x1="365.567442475" x2="362.886289754" y1="170.443437932" y2="172.657522704" /><line stroke="rgb(0%,0%,0%)" x1="367.671071511" x2="365.567442475" y1="166.651871327" y2="170.443437932" /><line stroke="rgb(0%,0%,0%)" x1="371.776499655" x2="367.671071511" y1="162.737320802" y2="166.651871327" /><line stroke="rgb(0%,0%,0%)" x1="281.857983458" x2="281.358924089" y1="360.906991553" y2="361.727536059" /><line stroke="rgb(0%,0%,0%)" x1="281.857983458" x2="285.259519592" y1="360.906991553" y2="357.875327708" /><line stroke="rgb(0%,0%,0%)" x1="294.959883634" x2="292.496347516" y1="267.423199797" y2="269.871833925" /><line stroke="rgb(0%,0%,0%)" x1="296.770352439" x2="298.903701782" y1="348.279165818" y2="346.559325456" /><line stroke="rgb(0%,0%,0%)" x1="297.87930156" x2="305.759261543" y1="336.882909494" y2="337.755923879" /><line stroke="rgb(0%,0%,0%)" x1="294.959883634" x2="295.79036707" y1="267.423199797" y2="266.879044966" /><line stroke="rgb(0%,0%,0%)" x1="295.79036707" x2="302.804574736" y1="266.879044966" y2="262.277904945" /><line stroke="rgb(0%,0%,0%)" x1="323.348213857" x2="326.908678463" y1="244.748899591" y2="239.815939468" /><line stroke="rgb(0%,0%,0%)" x1="323.348213857" x2="308.82068262" y1="244.748899591" y2="258.079186696" /><line stroke="rgb(0%,0%,0%)" x1="333.07450397" x2="326.908678463" y1="234.753513094" y2="239.815939468" /><line stroke="rgb(0%,0%,0%)" x1="337.752958202" x2="333.07450397" y1="230.117860956" y2="234.753513094" /><line stroke="rgb(0%,0%,0%)" x1="343.090489751" x2="337.752958202" y1="227.202139726" y2="230.117860956" /><line stroke="rgb(0%,0%,0%)" x1="273.79188444" x2="272.929275899" y1="317.7724628" y2="318.380470302" /><line stroke="rgb(0%,0%,0%)" x1="269.137005045" x2="266.58027611" y1="382.500260748" y2="388.091118158" /><line stroke="rgb(0%,0%,0%)" x1="269.137005045" x2="270.559153439" y1="382.500260748" y2="379.151968217" /><line stroke="rgb(0%,0%,0%)" x1="281.330029616" x2="282.354982979" y1="312.138871666" y2="311.188570144" /><line stroke="rgb(0%,0%,0%)" x1="281.330029616" x2="273.79188444" y1="312.138871666" y2="317.7724628" /><line stroke="rgb(0%,0%,0%)" x1="282.354982979" x2="282.906692139" y1="311.188570144" y2="310.598350512" /><line stroke="rgb(0%,0%,0%)" x1="279.298762556" x2="278.131565749" y1="292.227088769" y2="296.466236321" /><line stroke="rgb(0%,0%,0%)" x1="279.984201125" x2="281.277316177" y1="286.84607541" y2="283.645279148" /><line stroke="rgb(0%,0%,0%)" x1="279.984201125" x2="279.298762556" y1="286.84607541" y2="292.227088769" /><line stroke="rgb(0%,0%,0%)" x1="281.358924089" x2="279.946967737" y1="361.727536059" y2="363.388195591" /><line stroke="rgb(0%,0%,0%)" x1="297.87930156" x2="289.188589197" y1="336.882909494" y2="336.657051103" /><line stroke="rgb(0%,0%,0%)" x1="287.070312717" x2="282.906692139" y1="306.899833262" y2="310.598350512" /><line stroke="rgb(0%,0%,0%)" x1="290.290600897" x2="290.200613168" y1="303.687732827" y2="303.52423694" /><line stroke="rgb(0%,0%,0%)" x1="288.926203177" x2="287.070312717" y1="305.140310758" y2="306.899833262" /><line stroke="rgb(0%,0%,0%)" x1="296.770352439" x2="291.826172896" y1="348.279165818" y2="352.388413364" /><line stroke="rgb(0%,0%,0%)" x1="291.826172896" x2="288.063189414" y1="352.388413364" y2="355.138645998" /><line stroke="rgb(0%,0%,0%)" x1="298.903701782" x2="301.602059074" y1="346.559325456" y2="345.250262389" /><line stroke="rgb(0%,0%,0%)" x1="305.759261543" x2="307.530979439" y1="337.755923879" y2="338.515446406" /><line stroke="rgb(0%,0%,0%)" x1="290.290600897" x2="288.926203177" y1="303.687732827" y2="305.140310758" /><line stroke="rgb(0%,0%,0%)" x1="292.496347516" x2="283.394392874" y1="269.871833925" y2="279.694637025" /><line stroke="rgb(0%,0%,0%)" x1="306.143350212" x2="302.804574736" y1="260.150302141" y2="262.277904945" /><line stroke="rgb(0%,0%,0%)" x1="307.032084231" x2="306.070361623" y1="341.329642197" y2="342.301505412" /><line stroke="rgb(0%,0%,0%)" x1="303.815026471" x2="301.602059074" y1="343.921208907" y2="345.250262389" /><line stroke="rgb(0%,0%,0%)" x1="306.070361623" x2="303.815026471" y1="342.301505412" y2="343.921208907" /><line stroke="rgb(0%,0%,0%)" x1="307.452094227" x2="307.280952131" y1="340.545472554" y2="339.227821148" /><line stroke="rgb(0%,0%,0%)" x1="307.452094227" x2="307.032084231" y1="340.545472554" y2="341.329642197" /><line stroke="rgb(0%,0%,0%)" x1="307.425703009" x2="307.280952131" y1="338.800493738" y2="339.227821148" /><line stroke="rgb(0%,0%,0%)" x1="307.530979439" x2="307.425703009" y1="338.515446406" y2="338.800493738" /><line stroke="rgb(0%,0%,0%)" x1="306.613663856" x2="306.143350212" y1="259.732961147" y2="260.150302141" /><line stroke="rgb(0%,0%,0%)" x1="307.275217404" x2="306.613663856" y1="259.426294218" y2="259.732961147" /><line stroke="rgb(0%,0%,0%)" x1="308.82068262" x2="307.275217404" y1="258.079186696" y2="259.426294218" /><line stroke="rgb(0%,0%,0%)" x1="240.179065241" x2="241.577480066" y1="411.967734875" y2="410.768742659" /><line stroke="rgb(0%,0%,0%)" x1="240.179065241" x2="237.73130837" y1="411.967734875" y2="416.910503887" /><line stroke="rgb(0%,0%,0%)" x1="260.289946384" x2="257.318279016" y1="398.888440154" y2="401.054684629" /><line stroke="rgb(0%,0%,0%)" x1="260.289946384" x2="261.634505165" y1="398.888440154" y2="397.595219844" /><line stroke="rgb(0%,0%,0%)" x1="261.634505165" x2="264.547502109" y1="397.595219844" y2="392.553712545" /><line stroke="rgb(0%,0%,0%)" x1="265.50165051" x2="263.634502421" y1="335.99763053" y2="335.67524586" /><line stroke="rgb(0%,0%,0%)" x1="265.50165051" x2="271.913525861" y1="335.99763053" y2="335.810078439" /><line stroke="rgb(0%,0%,0%)" x1="259.946129972" x2="261.251663635" y1="333.325819042" y2="335.46403814" /><line stroke="rgb(0%,0%,0%)" x1="260.545699981" x2="261.518707402" y1="330.408189825" y2="328.115602774" /><line stroke="rgb(0%,0%,0%)" x1="259.023113873" x2="259.946129972" y1="333.002996289" y2="333.325819042" /><line stroke="rgb(0%,0%,0%)" x1="260.545699981" x2="259.023113873" y1="330.408189825" y2="333.002996289" /><line stroke="rgb(0%,0%,0%)" x1="266.753528453" x2="263.106942455" y1="323.573350765" y2="326.638446652" /><line stroke="rgb(0%,0%,0%)" x1="263.106942455" x2="261.518707402" y1="326.638446652" y2="328.115602774" /><line stroke="rgb(0%,0%,0%)" x1="272.929275899" x2="266.753528453" y1="318.380470302" y2="323.573350765" /><line stroke="rgb(0%,0%,0%)" x1="265.728459388" x2="264.547502109" y1="389.834618452" y2="392.553712545" /><line stroke="rgb(0%,0%,0%)" x1="266.58027611" x2="265.728459388" y1="388.091118158" y2="389.834618452" /><line stroke="rgb(0%,0%,0%)" x1="274.764955784" x2="270.559153439" y1="370.008701996" y2="379.151968217" /><line stroke="rgb(0%,0%,0%)" x1="275.860790137" x2="274.764955784" y1="368.395665789" y2="370.008701996" /><line stroke="rgb(0%,0%,0%)" x1="271.913525861" x2="274.46977337" y1="335.810078439" y2="335.937065041" /><line stroke="rgb(0%,0%,0%)" x1="274.46977337" x2="279.174450527" y1="335.937065041" y2="335.762792669" /><line stroke="rgb(0%,0%,0%)" x1="262.346573048" x2="263.634502421" y1="335.329129695" y2="335.67524586" /><line stroke="rgb(0%,0%,0%)" x1="277.722645933" x2="284.969837519" y1="299.442587993" y2="301.816660337" /><line stroke="rgb(0%,0%,0%)" x1="279.946967737" x2="275.860790137" y1="363.388195591" y2="368.395665789" /><line stroke="rgb(0%,0%,0%)" x1="288.063189414" x2="285.259519592" y1="355.138645998" y2="357.875327708" /><line stroke="rgb(0%,0%,0%)" x1="279.174450527" x2="281.90307728" y1="335.762792669" y2="336.054107182" /><line stroke="rgb(0%,0%,0%)" x1="281.90307728" x2="285.114989645" y1="336.054107182" y2="336.279012143" /><line stroke="rgb(0%,0%,0%)" x1="284.969837519" x2="286.989124215" y1="301.816660337" y2="301.994538628" /><line stroke="rgb(0%,0%,0%)" x1="278.131565749" x2="277.722645933" y1="296.466236321" y2="299.442587993" /><line stroke="rgb(0%,0%,0%)" x1="283.394392874" x2="281.277316177" y1="279.694637025" y2="283.645279148" /><line stroke="rgb(0%,0%,0%)" x1="285.114989645" x2="289.188589197" y1="336.279012143" y2="336.657051103" /><line stroke="rgb(0%,0%,0%)" x1="286.989124215" x2="290.200613168" y1="301.994538628" y2="303.52423694" /><line stroke="rgb(0%,0%,0%)" x1="229.632651155" x2="232.08127657" y1="435.620219481" y2="428.459016234" /><line stroke="rgb(0%,0%,0%)" x1="229.632651155" x2="228.355940004" y1="435.620219481" y2="445.548504744" /><line stroke="rgb(0%,0%,0%)" x1="233.217181149" x2="232.08127657" y1="423.816146954" y2="428.459016234" /><line stroke="rgb(0%,0%,0%)" x1="237.73130837" x2="233.217181149" y1="416.910503887" y2="423.816146954" /><line stroke="rgb(0%,0%,0%)" x1="248.272706512" x2="241.577480066" y1="406.313672812" y2="410.768742659" /><line stroke="rgb(0%,0%,0%)" x1="257.318279016" x2="248.272706512" y1="401.054684629" y2="406.313672812" /><line stroke="rgb(0%,0%,0%)" x1="261.251663635" x2="262.346573048" y1="335.46403814" y2="335.329129695" /><line stroke="rgb(0%,0%,0%)" x1="650.831259882" x2="650.129205718" y1="501.792363226" y2="504.420410773" /><line stroke="rgb(0%,0%,0%)" x1="653.20308431" x2="653.779655441" y1="492.988289016" y2="490.395386679" /><line stroke="rgb(0%,0%,0%)" x1="655.529185362" x2="655.433279614" y1="476.882958347" y2="477.958321397" /><line stroke="rgb(0%,0%,0%)" x1="615.596957121" x2="615.167947471" y1="595.566762396" y2="596.87787751" /><line stroke="rgb(0%,0%,0%)" x1="615.596957121" x2="616.658152825" y1="595.566762396" y2="593.181353831" /><line stroke="rgb(0%,0%,0%)" x1="623.878243213" x2="623.559831315" y1="579.14308158" y2="579.879248345" /><line stroke="rgb(0%,0%,0%)" x1="631.234082525" x2="632.225283467" y1="555.901754034" y2="553.170770442" /><line stroke="rgb(0%,0%,0%)" x1="637.067571666" x2="636.594205521" y1="537.225553151" y2="539.073902708" /><line stroke="rgb(0%,0%,0%)" x1="637.067571666" x2="637.819550294" y1="537.225553151" y2="534.798756413" /><line stroke="rgb(0%,0%,0%)" x1="650.831259882" x2="651.133297985" y1="501.792363226" y2="500.877263227" /><line stroke="rgb(0%,0%,0%)" x1="651.133297985" x2="653.20308431" y1="500.877263227" y2="492.988289016" /><line stroke="rgb(0%,0%,0%)" x1="655.433279614" x2="655.17708267" y1="477.958321397" y2="480.847958539" /><line stroke="rgb(0%,0%,0%)" x1="655.529185362" x2="656.093383804" y1="476.882958347" y2="475.606553641" /><line stroke="rgb(0%,0%,0%)" x1="597.077523198" x2="595.289207289" y1="633.623985496" y2="637.989916759" /><line stroke="rgb(0%,0%,0%)" x1="597.077523198" x2="597.776931738" y1="633.623985496" y2="632.827453997" /><line stroke="rgb(0%,0%,0%)" x1="607.507806561" x2="615.167947471" y1="610.656841524" y2="596.87787751" /><line stroke="rgb(0%,0%,0%)" x1="623.878243213" x2="628.243983048" y1="579.14308158" y2="567.748718882" /><line stroke="rgb(0%,0%,0%)" x1="628.243983048" x2="629.413513907" y1="567.748718882" y2="564.049220644" /><line stroke="rgb(0%,0%,0%)" x1="631.234082525" x2="630.33733698" y1="555.901754034" y2="560.451092457" /><line stroke="rgb(0%,0%,0%)" x1="634.254920705" x2="635.314806404" y1="546.058235676" y2="542.885073641" /><line stroke="rgb(0%,0%,0%)" x1="635.314806404" x2="636.594205521" y1="542.885073641" y2="539.073902708" /><line stroke="rgb(0%,0%,0%)" x1="637.819550294" x2="639.609144865" y1="534.798756413" y2="527.835403382" /><line stroke="rgb(0%,0%,0%)" x1="641.889612257" x2="642.861519445" y1="522.337965065" y2="518.818792358" /><line stroke="rgb(0%,0%,0%)" x1="643.939300506" x2="647.658483278" y1="517.020702294" y2="510.219829059" /><line stroke="rgb(0%,0%,0%)" x1="654.386941623" x2="655.17708267" y1="486.086842984" y2="480.847958539" /><line stroke="rgb(0%,0%,0%)" x1="656.093383804" x2="657.878820143" y1="475.606553641" y2="465.76651693" /><line stroke="rgb(0%,0%,0%)" x1="657.878820143" x2="659.21913688" y1="465.76651693" y2="459.033751071" /><line stroke="rgb(0%,0%,0%)" x1="567.251987626" x2="566.961272394" y1="698.624486098" y2="699.158087054" /><line stroke="rgb(0%,0%,0%)" x1="567.251987626" x2="567.929802586" y1="698.624486098" y2="697.778532033" /><line stroke="rgb(0%,0%,0%)" x1="583.505864172" x2="585.527728842" y1="666.341758264" y2="661.864856202" /><line stroke="rgb(0%,0%,0%)" x1="592.543834855" x2="595.289207289" y1="643.003302076" y2="637.989916759" /><line stroke="rgb(0%,0%,0%)" x1="606.613626344" x2="603.581908366" y1="612.525229082" y2="619.075197576" /><line stroke="rgb(0%,0%,0%)" x1="606.613626344" x2="607.507806561" y1="612.525229082" y2="610.656841524" /><line stroke="rgb(0%,0%,0%)" x1="616.658152825" x2="623.559831315" y1="593.181353831" y2="579.879248345" /><line stroke="rgb(0%,0%,0%)" x1="632.225283467" x2="634.254920705" y1="553.170770442" y2="546.058235676" /><line stroke="rgb(0%,0%,0%)" x1="639.609144865" x2="641.889612257" y1="527.835403382" y2="522.337965065" /><line stroke="rgb(0%,0%,0%)" x1="642.861519445" x2="643.939300506" y1="518.818792358" y2="517.020702294" /><line stroke="rgb(0%,0%,0%)" x1="648.261003126" x2="650.129205718" y1="508.996686492" y2="504.420410773" /><line stroke="rgb(0%,0%,0%)" x1="647.658483278" x2="648.261003126" y1="510.219829059" y2="508.996686492" /><line stroke="rgb(0%,0%,0%)" x1="653.779655441" x2="653.818292897" y1="490.395386679" y2="487.574728104" /><line stroke="rgb(0%,0%,0%)" x1="659.21913688" x2="659.276716529" y1="459.033751071" y2="457.926423947" /><line stroke="rgb(0%,0%,0%)" x1="566.961272394" x2="566.115985733" y1="699.158087054" y2="700.513515823" /><line stroke="rgb(0%,0%,0%)" x1="567.929802586" x2="569.741792608" y1="697.778532033" y2="694.738451375" /><line stroke="rgb(0%,0%,0%)" x1="573.950233019" x2="573.442930586" y1="687.225641066" y2="688.481178032" /><line stroke="rgb(0%,0%,0%)" x1="573.950233019" x2="575.127403252" y1="687.225641066" y2="685.220061717" /><line stroke="rgb(0%,0%,0%)" x1="575.127403252" x2="578.022767762" y1="685.220061717" y2="678.753447946" /><line stroke="rgb(0%,0%,0%)" x1="583.505864172" x2="580.019474405" y1="666.341758264" y2="673.550777552" /><line stroke="rgb(0%,0%,0%)" x1="578.022767762" x2="580.019474405" y1="678.753447946" y2="673.550777552" /><line stroke="rgb(0%,0%,0%)" x1="585.527728842" x2="586.180444459" y1="661.864856202" y2="659.862267157" /><line stroke="rgb(0%,0%,0%)" x1="586.180444459" x2="587.47382044" y1="659.862267157" y2="657.449514958" /><line stroke="rgb(0%,0%,0%)" x1="592.543834855" x2="587.47382044" y1="643.003302076" y2="657.449514958" /><line stroke="rgb(0%,0%,0%)" x1="598.300323889" x2="602.173961699" y1="631.08794199" y2="622.083896617" /><line stroke="rgb(0%,0%,0%)" x1="597.776931738" x2="598.300323889" y1="632.827453997" y2="631.08794199" /><line stroke="rgb(0%,0%,0%)" x1="602.173961699" x2="602.492071105" y1="622.083896617" y2="621.033823617" /><line stroke="rgb(0%,0%,0%)" x1="602.492071105" x2="603.581908366" y1="621.033823617" y2="619.075197576" /><line stroke="rgb(0%,0%,0%)" x1="629.413513907" x2="629.881706479" y1="564.049220644" y2="561.263479324" /><line stroke="rgb(0%,0%,0%)" x1="629.881706479" x2="630.33733698" y1="561.263479324" y2="560.451092457" /><line stroke="rgb(0%,0%,0%)" x1="653.818292897" x2="654.386941623" y1="487.574728104" y2="486.086842984" /><line stroke="rgb(0%,0%,0%)" x1="523.334037987" x2="533.10278374" y1="723.132886836" y2="720.535678243" /><line stroke="rgb(0%,0%,0%)" x1="540.931305906" x2="547.407716612" y1="716.916428657" y2="711.980648391" /><line stroke="rgb(0%,0%,0%)" x1="555.05603301" x2="554.61553506" y1="707.767673304" y2="708.087650935" /><line stroke="rgb(0%,0%,0%)" x1="555.130660162" x2="555.05603301" y1="707.709809186" y2="707.767673304" /><line stroke="rgb(0%,0%,0%)" x1="555.130660162" x2="555.435396113" y1="707.709809186" y2="707.525769915" /><line stroke="rgb(0%,0%,0%)" x1="555.435396113" x2="563.847253586" y1="707.525769915" y2="702.593659241" /><line stroke="rgb(0%,0%,0%)" x1="563.847253586" x2="566.115985733" y1="702.593659241" y2="700.513515823" /><line stroke="rgb(0%,0%,0%)" x1="569.741792608" x2="573.442930586" y1="694.738451375" y2="688.481178032" /><line stroke="rgb(0%,0%,0%)" x1="493.205427419" x2="493.387568204" y1="736.148152771" y2="736.14984122" /><line stroke="rgb(0%,0%,0%)" x1="493.651870642" x2="493.387568204" y1="736.055276403" y2="736.14984122" /><line stroke="rgb(0%,0%,0%)" x1="510.175188032" x2="511.810835145" y1="728.968242056" y2="727.833470249" /><line stroke="rgb(0%,0%,0%)" x1="504.01940906" x2="510.175188032" y1="733.403772075" y2="728.968242056" /><line stroke="rgb(0%,0%,0%)" x1="511.810835145" x2="515.350124026" y1="727.833470249" y2="726.74434428" /><line stroke="rgb(0%,0%,0%)" x1="515.350124026" x2="518.762210322" y1="726.74434428" y2="724.024276768" /><line stroke="rgb(0%,0%,0%)" x1="518.762210322" x2="523.334037987" y1="724.024276768" y2="723.132886836" /><line stroke="rgb(0%,0%,0%)" x1="533.10278374" x2="532.576678042" y1="720.535678243" y2="719.565752815" /><line stroke="rgb(0%,0%,0%)" x1="532.576678042" x2="534.83035812" y1="719.565752815" y2="719.989611498" /><line stroke="rgb(0%,0%,0%)" x1="537.445173398" x2="534.83035812" y1="717.952413608" y2="719.989611498" /><line stroke="rgb(0%,0%,0%)" x1="537.445173398" x2="540.931305906" y1="717.952413608" y2="716.916428657" /><line stroke="rgb(0%,0%,0%)" x1="549.012869979" x2="554.61553506" y1="711.070907849" y2="708.087650935" /><line stroke="rgb(0%,0%,0%)" x1="547.407716612" x2="549.012869979" y1="711.980648391" y2="711.070907849" /><line stroke="rgb(0%,0%,0%)" x1="445.82835793" x2="450.772687547" y1="745.929301507" y2="744.743240919" /><line stroke="rgb(0%,0%,0%)" x1="476.125846495" x2="463.142780432" y1="737.227419626" y2="740.857399126" /><line stroke="rgb(0%,0%,0%)" x1="476.125846495" x2="479.615633143" y1="737.227419626" y2="735.69348067" /><line stroke="rgb(0%,0%,0%)" x1="493.205427419" x2="491.649235405" y1="736.148152771" y2="735.925475123" /><line stroke="rgb(0%,0%,0%)" x1="481.447771782" x2="491.649235405" y1="735.387262617" y2="735.925475123" /><line stroke="rgb(0%,0%,0%)" x1="493.651870642" x2="504.01940906" y1="736.055276403" y2="733.403772075" /><line stroke="rgb(0%,0%,0%)" x1="445.82835793" x2="440.5520462" y1="745.929301507" y2="746.172786822" /><line stroke="rgb(0%,0%,0%)" x1="420.944762026" x2="431.98591234" y1="746.715424441" y2="745.722714712" /><line stroke="rgb(0%,0%,0%)" x1="431.98591234" x2="440.5520462" y1="745.722714712" y2="746.172786822" /><line stroke="rgb(0%,0%,0%)" x1="450.772687547" x2="459.43448472" y1="744.743240919" y2="742.593544211" /><line stroke="rgb(0%,0%,0%)" x1="459.43448472" x2="463.142780432" y1="742.593544211" y2="740.857399126" /><line stroke="rgb(0%,0%,0%)" x1="479.615633143" x2="481.447771782" y1="735.69348067" y2="735.387262617" /><line stroke="rgb(0%,0%,0%)" x1="401.171112081" x2="404.98953851" y1="742.787565403" y2="744.394225897" /><line stroke="rgb(0%,0%,0%)" x1="410.151739583" x2="417.196511105" y1="745.168386857" y2="747.218691227" /><line stroke="rgb(0%,0%,0%)" x1="410.151739583" x2="404.98953851" y1="745.168386857" y2="744.394225897" /><line stroke="rgb(0%,0%,0%)" x1="417.196511105" x2="420.944762026" y1="747.218691227" y2="746.715424441" /><line stroke="rgb(0%,0%,0%)" x1="385.674879446" x2="380.681939094" y1="693.847877585" y2="684.778484781" /><line stroke="rgb(0%,0%,0%)" x1="374.187069587" x2="377.326119993" y1="680.677741977" y2="682.072235615" /><line stroke="rgb(0%,0%,0%)" x1="374.187069587" x2="367.541712625" y1="680.677741977" y2="681.01440644" /><line stroke="rgb(0%,0%,0%)" x1="365.325712432" x2="367.541712625" y1="681.156234361" y2="681.01440644" /><line stroke="rgb(0%,0%,0%)" x1="394.343971015" x2="394.103495514" y1="731.178211758" y2="735.452568128" /><line stroke="rgb(0%,0%,0%)" x1="396.677801992" x2="399.332814822" y1="710.273102771" y2="717.475389543" /><line stroke="rgb(0%,0%,0%)" x1="390.615082173" x2="385.674879446" y1="703.010707725" y2="693.847877585" /><line stroke="rgb(0%,0%,0%)" x1="379.348418407" x2="380.681939094" y1="682.600057462" y2="684.778484781" /><line stroke="rgb(0%,0%,0%)" x1="379.035700752" x2="379.348418407" y1="682.354056701" y2="682.600057462" /><line stroke="rgb(0%,0%,0%)" x1="377.326119993" x2="379.035700752" y1="682.072235615" y2="682.354056701" /><line stroke="rgb(0%,0%,0%)" x1="401.171112081" x2="395.320485941" y1="742.787565403" y2="737.834759706" /><line stroke="rgb(0%,0%,0%)" x1="394.103495514" x2="395.320485941" y1="735.452568128" y2="737.834759706" /><line stroke="rgb(0%,0%,0%)" x1="394.343971015" x2="399.28348428" y1="731.178211758" y2="718.274109667" /><line stroke="rgb(0%,0%,0%)" x1="399.467525586" x2="399.28348428" y1="717.727776356" y2="718.274109667" /><line stroke="rgb(0%,0%,0%)" x1="399.332814822" x2="399.467525586" y1="717.475389543" y2="717.727776356" /><line stroke="rgb(0%,0%,0%)" x1="390.615082173" x2="396.677801992" y1="703.010707725" y2="710.273102771" /><line stroke="rgb(0%,0%,0%)" x1="277.855807131" x2="274.917383943" y1="544.934036297" y2="542.136568475" /><line stroke="rgb(0%,0%,0%)" x1="332.566354168" x2="339.347233709" y1="670.504793095" y2="674.720588851" /><line stroke="rgb(0%,0%,0%)" x1="332.566354168" x2="323.251634506" y1="670.504793095" y2="662.76413068" /><line stroke="rgb(0%,0%,0%)" x1="339.347233709" x2="342.448856114" y1="674.720588851" y2="676.463871925" /><line stroke="rgb(0%,0%,0%)" x1="349.162984283" x2="365.325712432" y1="678.183594345" y2="681.156234361" /><line stroke="rgb(0%,0%,0%)" x1="342.448856114" x2="349.162984283" y1="676.463871925" y2="678.183594345" /><line stroke="rgb(0%,0%,0%)" x1="289.305316819" x2="289.169557609" y1="575.105740575" y2="575.113419275" /><line stroke="rgb(0%,0%,0%)" x1="289.414354355" x2="289.305316819" y1="575.10897919" y2="575.105740575" /><line stroke="rgb(0%,0%,0%)" x1="269.698455035" x2="270.445449337" y1="536.773451143" y2="537.636591312" /><line stroke="rgb(0%,0%,0%)" x1="269.698455035" x2="265.319475544" y1="536.773451143" y2="530.017513447" /><line stroke="rgb(0%,0%,0%)" x1="297.837061825" x2="305.666406228" y1="634.968056197" y2="647.496229754" /><line stroke="rgb(0%,0%,0%)" x1="296.384866426" x2="297.837061825" y1="631.819743687" y2="634.968056197" /><line stroke="rgb(0%,0%,0%)" x1="284.734754174" x2="288.001891041" y1="551.435619886" y2="553.526454498" /><line stroke="rgb(0%,0%,0%)" x1="308.673417682" x2="315.982627886" y1="652.189495956" y2="657.315891104" /><line stroke="rgb(0%,0%,0%)" x1="305.666406228" x2="308.673417682" y1="647.496229754" y2="652.189495956" /><line stroke="rgb(0%,0%,0%)" x1="317.971951876" x2="323.251634506" y1="658.392310456" y2="662.76413068" /><line stroke="rgb(0%,0%,0%)" x1="315.982627886" x2="317.971951876" y1="657.315891104" y2="658.392310456" /><line stroke="rgb(0%,0%,0%)" x1="226.123880678" x2="226.103692087" y1="456.086880961" y2="465.526640247" /><line stroke="rgb(0%,0%,0%)" x1="226.123880678" x2="227.095846902" y1="456.086880961" y2="452.431647648" /><line stroke="rgb(0%,0%,0%)" x1="232.474242465" x2="239.217455659" y1="490.178169724" y2="497.766154994" /><line stroke="rgb(0%,0%,0%)" x1="250.229317886" x2="259.079754885" y1="506.759228434" y2="518.23343887" /><line stroke="rgb(0%,0%,0%)" x1="259.079754885" x2="259.081680242" y1="518.23343887" y2="518.367106434" /><line stroke="rgb(0%,0%,0%)" x1="250.229317886" x2="240.696257413" y1="506.759228434" y2="498.41321584" /><line stroke="rgb(0%,0%,0%)" x1="269.075818121" x2="269.704766102" y1="579.119518475" y2="579.981149746" /><line stroke="rgb(0%,0%,0%)" x1="270.837411888" x2="269.204994674" y1="577.482103313" y2="578.860672752" /><line stroke="rgb(0%,0%,0%)" x1="270.837411888" x2="270.617965364" y1="577.482103313" y2="577.016090014" /><line stroke="rgb(0%,0%,0%)" x1="269.075818121" x2="269.204994674" y1="579.119518475" y2="578.860672752" /><line stroke="rgb(0%,0%,0%)" x1="259.081680242" x2="265.125998416" y1="518.367106434" y2="529.735782581" /><line stroke="rgb(0%,0%,0%)" x1="279.901735797" x2="284.734754174" y1="546.644068162" y2="551.435619886" /><line stroke="rgb(0%,0%,0%)" x1="277.855807131" x2="279.901735797" y1="544.934036297" y2="546.644068162" /><line stroke="rgb(0%,0%,0%)" x1="270.445449337" x2="274.917383943" y1="537.636591312" y2="542.136568475" /><line stroke="rgb(0%,0%,0%)" x1="226.368456761" x2="232.474242465" y1="483.381434172" y2="490.178169724" /><line stroke="rgb(0%,0%,0%)" x1="224.903572321" x2="226.368456761" y1="478.175608942" y2="483.381434172" /><line stroke="rgb(0%,0%,0%)" x1="226.103692087" x2="224.903572321" y1="465.526640247" y2="478.175608942" /><line stroke="rgb(0%,0%,0%)" x1="240.230791086" x2="240.696257413" y1="498.144222154" y2="498.41321584" /><line stroke="rgb(0%,0%,0%)" x1="239.217455659" x2="240.230791086" y1="497.766154994" y2="498.144222154" /><line stroke="rgb(0%,0%,0%)" x1="265.125998416" x2="265.200492762" y1="529.735782581" y2="529.856082847" /><line stroke="rgb(0%,0%,0%)" x1="265.200492762" x2="265.319475544" y1="529.856082847" y2="530.017513447" /><line stroke="rgb(0%,0%,0%)" x1="228.355940004" x2="227.095846902" y1="445.548504744" y2="452.431647648" /><line stroke="rgb(0%,0%,0%)" x1="308.034338681" x2="306.179964842" y1="570.330700091" y2="570.744739338" /><line stroke="rgb(0%,0%,0%)" x1="283.284367137" x2="284.536366938" y1="591.266593144" y2="592.395186558" /><line stroke="rgb(0%,0%,0%)" x1="283.081199312" x2="283.284367137" y1="591.046144504" y2="591.266593144" /><line stroke="rgb(0%,0%,0%)" x1="283.081199312" x2="282.348307246" y1="591.046144504" y2="590.584637221" /><line stroke="rgb(0%,0%,0%)" x1="294.344700498" x2="296.384866426" y1="625.36581514" y2="631.819743687" /><line stroke="rgb(0%,0%,0%)" x1="294.3219941" x2="294.344700498" y1="625.300141035" y2="625.36581514" /><line stroke="rgb(0%,0%,0%)" x1="294.3219941" x2="294.315612602" y1="625.300141035" y2="625.27651324" /><line stroke="rgb(0%,0%,0%)" x1="289.414354355" x2="289.522141792" y1="575.10897919" y2="575.103153156" /><line stroke="rgb(0%,0%,0%)" x1="306.179964842" x2="301.744165212" y1="570.744739338" y2="573.074615006" /><line stroke="rgb(0%,0%,0%)" x1="308.644260205" x2="308.20302866" y1="567.11752698" y2="568.569741569" /><line stroke="rgb(0%,0%,0%)" x1="308.143879111" x2="308.20302866" y1="570.015261133" y2="568.569741569" /><line stroke="rgb(0%,0%,0%)" x1="308.034338681" x2="308.143879111" y1="570.330700091" y2="570.015261133" /><line stroke="rgb(0%,0%,0%)" x1="306.45898103" x2="307.787575421" y1="565.430023001" y2="566.04450659" /><line stroke="rgb(0%,0%,0%)" x1="299.381958649" x2="305.818643226" y1="560.54216765" y2="565.014274655" /><line stroke="rgb(0%,0%,0%)" x1="296.805175704" x2="299.381958649" y1="559.331714544" y2="560.54216765" /><line stroke="rgb(0%,0%,0%)" x1="273.99463963" x2="276.901815659" y1="584.568139248" y2="587.016901387" /><line stroke="rgb(0%,0%,0%)" x1="272.608430754" x2="273.99463963" y1="583.30676266" y2="584.568139248" /><line stroke="rgb(0%,0%,0%)" x1="269.704766102" x2="271.686146071" y1="579.981149746" y2="582.212094278" /><line stroke="rgb(0%,0%,0%)" x1="272.608430754" x2="271.686146071" y1="583.30676266" y2="582.212094278" /><line stroke="rgb(0%,0%,0%)" x1="271.682402861" x2="270.617965364" y1="577.183153331" y2="577.016090014" /><line stroke="rgb(0%,0%,0%)" x1="284.536366938" x2="288.414495934" y1="592.395186558" y2="595.606095591" /><line stroke="rgb(0%,0%,0%)" x1="278.774816916" x2="279.381302971" y1="588.333812127" y2="588.768434584" /><line stroke="rgb(0%,0%,0%)" x1="280.809421712" x2="282.348307246" y1="589.663765331" y2="590.584637221" /><line stroke="rgb(0%,0%,0%)" x1="279.381302971" x2="280.809421712" y1="588.768434584" y2="589.663765331" /><line stroke="rgb(0%,0%,0%)" x1="276.901815659" x2="278.774816916" y1="587.016901387" y2="588.333812127" /><line stroke="rgb(0%,0%,0%)" x1="274.948354795" x2="271.682402861" y1="576.12382005" y2="577.183153331" /><line stroke="rgb(0%,0%,0%)" x1="274.948354795" x2="277.46365756" y1="576.12382005" y2="575.562670994" /><line stroke="rgb(0%,0%,0%)" x1="289.169557609" x2="277.46365756" y1="575.113419275" y2="575.562670994" /><line stroke="rgb(0%,0%,0%)" x1="301.744165212" x2="289.522141792" y1="573.074615006" y2="575.103153156" /><line stroke="rgb(0%,0%,0%)" x1="296.805175704" x2="295.172976607" y1="559.331714544" y2="557.644723294" /><line stroke="rgb(0%,0%,0%)" x1="307.787575421" x2="308.644260205" y1="566.04450659" y2="567.11752698" /><line stroke="rgb(0%,0%,0%)" x1="305.818643226" x2="306.45898103" y1="565.014274655" y2="565.430023001" /><line stroke="rgb(0%,0%,0%)" x1="292.486762323" x2="295.172976607" y1="556.488779227" y2="557.644723294" /><line stroke="rgb(0%,0%,0%)" x1="288.001891041" x2="292.486762323" y1="553.526454498" y2="556.488779227" /><line stroke="rgb(0%,0%,0%)" x1="294.073044606" x2="294.315612602" y1="623.010668284" y2="625.27651324" /><line stroke="rgb(0%,0%,0%)" x1="294.329054048" x2="294.073044606" y1="622.1493365" y2="623.010668284" /><line stroke="rgb(0%,0%,0%)" x1="294.329054048" x2="294.223153387" y1="622.1493365" y2="621.56441286" /><line stroke="rgb(0%,0%,0%)" x1="294.444865778" x2="294.223153387" y1="617.461069966" y2="621.56441286" /><line stroke="rgb(0%,0%,0%)" x1="298.815988713" x2="294.444865778" y1="609.566203036" y2="617.461069966" /><line stroke="rgb(0%,0%,0%)" x1="298.815988713" x2="299.322740732" y1="609.566203036" y2="607.154270062" /><line stroke="rgb(0%,0%,0%)" x1="299.322740732" x2="299.311096006" y1="607.154270062" y2="605.978612967" /><line stroke="rgb(0%,0%,0%)" x1="295.717521145" x2="299.311096006" y1="603.640616885" y2="605.978612967" /><line stroke="rgb(0%,0%,0%)" x1="295.717521145" x2="293.812030982" y1="603.640616885" y2="601.735284696" /><line stroke="rgb(0%,0%,0%)" x1="293.812030982" x2="292.122067054" y1="601.735284696" y2="599.849368928" /><line stroke="rgb(0%,0%,0%)" x1="288.414495934" x2="292.122067054" y1="595.606095591" y2="599.849368928" /></svg>