<?xml version="1.0" encoding="utf-8" ?>
<svg baseProfile="full" height="100%" version="1.1" viewBox="0.5 0.5 685.793960571 941.299331665" width="100%" xmlns="http://www.w3.org/2000/svg" xmlns:ev="http://www.w3.org/2001/xml-events" xmlns:xlink="http://www.w3.org/1999/xlink"><defs /><line stroke="rgb(0%,0%,0%)" x1="659.362404689" x2="658.052419267" y1="325.072129534" y2="320.77061174" /><line stroke="rgb(0%,0%,0%)" x1="671.99273943" x2="670.329883705" y1="360.04839444" y2="354.460031286" /><line stroke="rgb(0%,0%,0%)" x1="670.353915189" x2="668.413107618" y1="352.414558364" y2="348.602067816" /><line stroke="rgb(0%,0%,0%)" x1="668.413107618" x2="665.974400197" y1="348.602067816" y2="343.787770155" /><line stroke="rgb(0%,0%,0%)" x1="665.974400197" x2="663.249544294" y1="343.787770155" y2="334.947734922" /><line stroke="rgb(0%,0%,0%)" x1="685.288868" x2="684.543728847" y1="451.62661168" y2="444.390994665" /><line stroke="rgb(0%,0%,0%)" x1="684.543728847" x2="683.773233597" y1="444.390994665" y2="439.807273672" /><line stroke="rgb(0%,0%,0%)" x1="683.395934072" x2="682.546757125" y1="423.136383951" y2="408.518604896" /><line stroke="rgb(0%,0%,0%)" x1="682.546757125" x2="682.246002125" y1="408.518604896" y2="406.224917613" /><line stroke="rgb(0%,0%,0%)" x1="682.246002125" x2="682.172979665" y1="406.224917613" y2="405.79662205" /><line stroke="rgb(0%,0%,0%)" x1="681.362296492" x2="682.172979665" y1="402.455474063" y2="405.79662205" /><line stroke="rgb(0%,0%,0%)" x1="681.362296492" x2="679.778376134" y1="402.455474063" y2="392.876996113" /><line stroke="rgb(0%,0%,0%)" x1="674.198195664" x2="677.516525383" y1="371.232587193" y2="383.327142225" /><line stroke="rgb(0%,0%,0%)" x1="674.198195664" x2="673.692466081" y1="371.232587193" y2="369.398948329" /><line stroke="rgb(0%,0%,0%)" x1="631.125456454" x2="628.906283866" y1="255.355398263" y2="250.87818735" /><line stroke="rgb(0%,0%,0%)" x1="628.906283866" x2="622.54149971" y1="250.87818735" y2="237.621215751" /><line stroke="rgb(0%,0%,0%)" x1="631.304631037" x2="631.873957186" y1="256.133338359" y2="256.979556741" /><line stroke="rgb(0%,0%,0%)" x1="631.873957186" x2="634.772323696" y1="256.979556741" y2="263.864815828" /><line stroke="rgb(0%,0%,0%)" x1="631.304631037" x2="631.125456454" y1="256.133338359" y2="255.355398263" /><line stroke="rgb(0%,0%,0%)" x1="638.140470621" x2="634.772323696" y1="271.770564842" y2="263.864815828" /><line stroke="rgb(0%,0%,0%)" x1="639.237905449" x2="638.315768375" y1="274.441366342" y2="272.311198955" /><line stroke="rgb(0%,0%,0%)" x1="658.052419267" x2="655.960118311" y1="320.77061174" y2="316.118243481" /><line stroke="rgb(0%,0%,0%)" x1="655.960118311" x2="652.374062453" y1="316.118243481" y2="306.411035311" /><line stroke="rgb(0%,0%,0%)" x1="670.329883705" x2="670.353915189" y1="354.460031286" y2="352.414558364" /><line stroke="rgb(0%,0%,0%)" x1="683.773233597" x2="683.792919549" y1="439.807273672" y2="439.2487842" /><line stroke="rgb(0%,0%,0%)" x1="683.150421537" x2="683.395934072" y1="424.740303398" y2="423.136383951" /><line stroke="rgb(0%,0%,0%)" x1="679.203881528" x2="677.516525383" y1="387.8278627" y2="383.327142225" /><line stroke="rgb(0%,0%,0%)" x1="672.355294562" x2="673.692466081" y1="363.509986035" y2="369.398948329" /><line stroke="rgb(0%,0%,0%)" x1="672.355294562" x2="671.99273943" y1="363.509986035" y2="360.04839444" /><line stroke="rgb(0%,0%,0%)" x1="683.330852265" x2="683.150421537" y1="426.723607284" y2="424.740303398" /><line stroke="rgb(0%,0%,0%)" x1="604.662117254" x2="602.747404468" y1="210.563610444" y2="206.46456395" /><line stroke="rgb(0%,0%,0%)" x1="602.747404468" x2="600.345722857" y1="206.46456395" y2="201.585596684" /><line stroke="rgb(0%,0%,0%)" x1="597.262783561" x2="596.779354845" y1="195.967449406" y2="194.821165755" /><line stroke="rgb(0%,0%,0%)" x1="619.714708341" x2="609.547094023" y1="232.499211192" y2="217.395777899" /><line stroke="rgb(0%,0%,0%)" x1="622.54149971" x2="619.714708341" y1="237.621215751" y2="232.499211192" /><line stroke="rgb(0%,0%,0%)" x1="638.315768375" x2="638.140470621" y1="272.311198955" y2="271.770564842" /><line stroke="rgb(0%,0%,0%)" x1="585.047250921" x2="588.676684753" y1="165.866108914" y2="172.864759658" /><line stroke="rgb(0%,0%,0%)" x1="585.047250921" x2="583.334635858" y1="165.866108914" y2="163.628768055" /><line stroke="rgb(0%,0%,0%)" x1="583.334635858" x2="581.800423639" y1="163.628768055" y2="161.710683105" /><line stroke="rgb(0%,0%,0%)" x1="600.345722857" x2="597.262783561" y1="201.585596684" y2="195.967449406" /><line stroke="rgb(0%,0%,0%)" x1="589.637841224" x2="588.676684753" y1="174.999875597" y2="172.864759658" /><line stroke="rgb(0%,0%,0%)" x1="521.536794828" x2="505.847382288" y1="127.788482303" y2="121.489749819" /><line stroke="rgb(0%,0%,0%)" x1="527.823726146" x2="521.536794828" y1="130.1250174" y2="127.788482303" /><line stroke="rgb(0%,0%,0%)" x1="536.566400611" x2="527.823726146" y1="133.093453489" y2="130.1250174" /><line stroke="rgb(0%,0%,0%)" x1="468.310330724" x2="461.020165731" y1="106.710173725" y2="104.064019132" /><line stroke="rgb(0%,0%,0%)" x1="503.516022397" x2="499.681180926" y1="120.926177581" y2="119.148635634" /><line stroke="rgb(0%,0%,0%)" x1="505.847382288" x2="503.516022397" y1="121.489749819" y2="120.926177581" /><line stroke="rgb(0%,0%,0%)" x1="473.121779339" x2="468.310330724" y1="108.669600298" y2="106.710173725" /><line stroke="rgb(0%,0%,0%)" x1="387.922499932" x2="392.555729041" y1="99.7607261307" y2="97.4081467202" /><line stroke="rgb(0%,0%,0%)" x1="405.676478063" x2="397.874391259" y1="94.6652047886" y2="95.7745001885" /><line stroke="rgb(0%,0%,0%)" x1="424.553561283" x2="415.67943945" y1="95.1664949147" y2="94.8671293094" /><line stroke="rgb(0%,0%,0%)" x1="426.837804381" x2="424.553561283" y1="95.9250436676" y2="95.1664949147" /><line stroke="rgb(0%,0%,0%)" x1="429.99381691" x2="426.837804381" y1="95.7250869288" y2="95.9250436676" /><line stroke="rgb(0%,0%,0%)" x1="360.645244148" x2="357.348231453" y1="124.928489184" y2="129.345170071" /><line stroke="rgb(0%,0%,0%)" x1="380.02278297" x2="375.046489557" y1="104.780207373" y2="108.244683249" /><line stroke="rgb(0%,0%,0%)" x1="387.922499932" x2="380.02278297" y1="99.7607261307" y2="104.780207373" /><line stroke="rgb(0%,0%,0%)" x1="337.777623262" x2="336.351498398" y1="163.527633347" y2="164.475205166" /><line stroke="rgb(0%,0%,0%)" x1="346.313010775" x2="339.079827968" y1="147.555209046" y2="161.3044435" /><line stroke="rgb(0%,0%,0%)" x1="394.201769175" x2="392.555729041" y1="96.8879670895" y2="97.4081467202" /><line stroke="rgb(0%,0%,0%)" x1="397.874391259" x2="394.201769175" y1="95.7745001885" y2="96.8879670895" /><line stroke="rgb(0%,0%,0%)" x1="301.761213611" x2="298.127527363" y1="200.310626733" y2="210.831262275" /><line stroke="rgb(0%,0%,0%)" x1="305.02720362" x2="301.761213611" y1="194.379681058" y2="200.310626733" /><line stroke="rgb(0%,0%,0%)" x1="338.141062262" x2="337.777623262" y1="163.238574588" y2="163.527633347" /><line stroke="rgb(0%,0%,0%)" x1="339.079827968" x2="338.141062262" y1="161.3044435" y2="163.238574588" /><line stroke="rgb(0%,0%,0%)" x1="258.854092785" x2="259.272529472" y1="390.182898824" y2="388.62729308" /><line stroke="rgb(0%,0%,0%)" x1="277.548501703" x2="275.809343297" y1="435.19216422" y2="435.45261971" /><line stroke="rgb(0%,0%,0%)" x1="277.548501703" x2="279.562182302" y1="435.19216422" y2="435.363080967" /><line stroke="rgb(0%,0%,0%)" x1="270.006037" x2="275.809343297" y1="437.224021516" y2="435.45261971" /><line stroke="rgb(0%,0%,0%)" x1="282.362034083" x2="286.703152289" y1="435.997197531" y2="439.567481432" /><line stroke="rgb(0%,0%,0%)" x1="298.422302793" x2="299.912383635" y1="249.465516635" y2="257.678337758" /><line stroke="rgb(0%,0%,0%)" x1="297.82082473" x2="297.640943268" y1="211.773129399" y2="214.80678905" /><line stroke="rgb(0%,0%,0%)" x1="298.127527363" x2="297.82082473" y1="210.831262275" y2="211.773129399" /><line stroke="rgb(0%,0%,0%)" x1="243.606706171" x2="254.112757026" y1="354.274154693" y2="354.266268482" /><line stroke="rgb(0%,0%,0%)" x1="254.235151341" x2="245.739034843" y1="443.049861026" y2="443.10371946" /><line stroke="rgb(0%,0%,0%)" x1="241.743314838" x2="245.633925383" y1="438.333144759" y2="442.964531401" /><line stroke="rgb(0%,0%,0%)" x1="247.646820928" x2="247.386023993" y1="411.527944676" y2="411.883241654" /><line stroke="rgb(0%,0%,0%)" x1="247.386023993" x2="246.608890262" y1="411.883241654" y2="413.218984913" /><line stroke="rgb(0%,0%,0%)" x1="247.646820928" x2="248.256861136" y1="411.527944676" y2="411.02806721" /><line stroke="rgb(0%,0%,0%)" x1="250.262027233" x2="250.226769426" y1="406.644113529" y2="407.428121221" /><line stroke="rgb(0%,0%,0%)" x1="250.226769426" x2="248.256861136" y1="407.428121221" y2="411.02806721" /><line stroke="rgb(0%,0%,0%)" x1="250.262027233" x2="252.157708497" y1="406.644113529" y2="405.050531348" /><line stroke="rgb(0%,0%,0%)" x1="262.11991061" x2="257.548204094" y1="441.236087354" y2="442.641244518" /><line stroke="rgb(0%,0%,0%)" x1="262.11991061" x2="270.006037" y1="441.236087354" y2="437.224021516" /><line stroke="rgb(0%,0%,0%)" x1="257.648770095" x2="256.680984437" y1="396.428962318" y2="400.339371985" /><line stroke="rgb(0%,0%,0%)" x1="258.699906985" x2="258.52348361" y1="391.093603358" y2="393.193323594" /><line stroke="rgb(0%,0%,0%)" x1="258.52348361" x2="257.648770095" y1="393.193323594" y2="396.428962318" /><line stroke="rgb(0%,0%,0%)" x1="258.699906985" x2="258.854092785" y1="391.093603358" y2="390.182898824" /><line stroke="rgb(0%,0%,0%)" x1="259.985623644" x2="259.272529472" y1="385.801344352" y2="388.62729308" /><line stroke="rgb(0%,0%,0%)" x1="259.985623644" x2="259.525255979" y1="385.801344352" y2="384.524504715" /><line stroke="rgb(0%,0%,0%)" x1="259.535491004" x2="259.525255979" y1="384.502981941" y2="384.524504715" /><line stroke="rgb(0%,0%,0%)" x1="259.546005256" x2="259.535491004" y1="384.457568908" y2="384.502981941" /><line stroke="rgb(0%,0%,0%)" x1="267.48281725" x2="266.274737366" y1="363.661347136" y2="355.250425627" /><line stroke="rgb(0%,0%,0%)" x1="267.48281725" x2="266.880753743" y1="363.661347136" y2="365.59504783" /><line stroke="rgb(0%,0%,0%)" x1="264.797554018" x2="266.103518087" y1="352.457638781" y2="353.931919631" /><line stroke="rgb(0%,0%,0%)" x1="264.528305286" x2="255.46023546" y1="352.00550696" y2="354.034645225" /><line stroke="rgb(0%,0%,0%)" x1="254.112757026" x2="255.46023546" y1="354.266268482" y2="354.034645225" /><line stroke="rgb(0%,0%,0%)" x1="266.103518087" x2="266.274737366" y1="353.931919631" y2="355.250425627" /><line stroke="rgb(0%,0%,0%)" x1="264.528305286" x2="264.797554018" y1="352.00550696" y2="352.457638781" /><line stroke="rgb(0%,0%,0%)" x1="287.638254451" x2="288.276491239" y1="440.8054812" y2="444.73461938" /><line stroke="rgb(0%,0%,0%)" x1="286.703152289" x2="287.638254451" y1="439.567481432" y2="440.8054812" /><line stroke="rgb(0%,0%,0%)" x1="279.562182302" x2="282.362034083" y1="435.363080967" y2="435.997197531" /><line stroke="rgb(0%,0%,0%)" x1="299.912383635" x2="301.75203983" y1="257.678337758" y2="264.465275402" /><line stroke="rgb(0%,0%,0%)" x1="245.633925383" x2="245.739034843" y1="442.964531401" y2="443.10371946" /><line stroke="rgb(0%,0%,0%)" x1="244.326909966" x2="243.594853905" y1="418.412563193" y2="420.879757447" /><line stroke="rgb(0%,0%,0%)" x1="236.264434891" x2="237.417253332" y1="346.681988094" y2="350.998855211" /><line stroke="rgb(0%,0%,0%)" x1="240.744039502" x2="237.798903137" y1="353.286399111" y2="351.566083079" /><line stroke="rgb(0%,0%,0%)" x1="237.417253332" x2="237.798903137" y1="350.998855211" y2="351.566083079" /><line stroke="rgb(0%,0%,0%)" x1="255.207047881" x2="256.02990353" y1="443.373598707" y2="443.39423404" /><line stroke="rgb(0%,0%,0%)" x1="254.235151341" x2="255.207047881" y1="443.049861026" y2="443.373598707" /><line stroke="rgb(0%,0%,0%)" x1="256.697098231" x2="257.548204094" y1="443.103806796" y2="442.641244518" /><line stroke="rgb(0%,0%,0%)" x1="256.02990353" x2="256.697098231" y1="443.39423404" y2="443.103806796" /><line stroke="rgb(0%,0%,0%)" x1="253.553874815" x2="252.157708497" y1="403.122187523" y2="405.050531348" /><line stroke="rgb(0%,0%,0%)" x1="253.553874815" x2="256.6730523" y1="403.122187523" y2="400.347254561" /><line stroke="rgb(0%,0%,0%)" x1="256.674952739" x2="256.6730523" y1="400.34600869" y2="400.347254561" /><line stroke="rgb(0%,0%,0%)" x1="240.744039502" x2="241.648845675" y1="353.286399111" y2="354.020168502" /><line stroke="rgb(0%,0%,0%)" x1="241.648845675" x2="243.606706171" y1="354.020168502" y2="354.274154693" /><line stroke="rgb(0%,0%,0%)" x1="256.680984437" x2="256.674952739" y1="400.339371985" y2="400.34600869" /><line stroke="rgb(0%,0%,0%)" x1="244.350131513" x2="244.326909966" y1="417.981654288" y2="418.412563193" /><line stroke="rgb(0%,0%,0%)" x1="244.851707881" x2="244.350131513" y1="417.02925424" y2="417.981654288" /><line stroke="rgb(0%,0%,0%)" x1="246.608890262" x2="244.851707881" y1="413.218984913" y2="417.02925424" /><line stroke="rgb(0%,0%,0%)" x1="682.423661476" x2="681.789948576" y1="488.07101458" y2="493.22629549" /><line stroke="rgb(0%,0%,0%)" x1="684.716590556" x2="684.78187118" y1="474.558923768" y2="473.997666597" /><line stroke="rgb(0%,0%,0%)" x1="655.480690747" x2="662.138630104" y1="596.6513598" y2="578.763415691" /><line stroke="rgb(0%,0%,0%)" x1="663.202131845" x2="664.769822702" y1="575.768979836" y2="570.138594359" /><line stroke="rgb(0%,0%,0%)" x1="668.937883679" x2="673.16191043" y1="551.475314724" y2="538.28155337" /><line stroke="rgb(0%,0%,0%)" x1="677.265233262" x2="678.413247515" y1="519.277902356" y2="514.157167453" /><line stroke="rgb(0%,0%,0%)" x1="678.413247515" x2="678.799461912" y1="514.157167453" y2="511.857964998" /><line stroke="rgb(0%,0%,0%)" x1="678.799461912" x2="679.465357106" y1="511.857964998" y2="509.738286598" /><line stroke="rgb(0%,0%,0%)" x1="681.55669265" x2="681.789948576" y1="494.929907138" y2="493.22629549" /><line stroke="rgb(0%,0%,0%)" x1="682.423661476" x2="682.617463726" y1="488.07101458" y2="483.996725958" /><line stroke="rgb(0%,0%,0%)" x1="682.617463726" x2="683.577251427" y1="483.996725958" y2="482.017093613" /><line stroke="rgb(0%,0%,0%)" x1="684.632865509" x2="684.633746293" y1="475.132780162" y2="474.749561763" /><line stroke="rgb(0%,0%,0%)" x1="684.633746293" x2="684.716590556" y1="474.749561763" y2="474.558923768" /><line stroke="rgb(0%,0%,0%)" x1="633.857963858" x2="626.290012804" y1="646.92776762" y2="666.657975171" /><line stroke="rgb(0%,0%,0%)" x1="640.611621495" x2="637.785761193" y1="631.286043399" y2="638.505998156" /><line stroke="rgb(0%,0%,0%)" x1="633.857963858" x2="637.785761193" y1="646.92776762" y2="638.505998156" /><line stroke="rgb(0%,0%,0%)" x1="640.611621495" x2="645.340545878" y1="631.286043399" y2="620.910288609" /><line stroke="rgb(0%,0%,0%)" x1="649.294845208" x2="645.340545878" y1="611.875645874" y2="620.910288609" /><line stroke="rgb(0%,0%,0%)" x1="649.294845208" x2="651.545169381" y1="611.875645874" y2="606.843553693" /><line stroke="rgb(0%,0%,0%)" x1="651.545169381" x2="653.128854572" y1="606.843553693" y2="601.833246354" /><line stroke="rgb(0%,0%,0%)" x1="653.128854572" x2="655.480690747" y1="601.833246354" y2="596.6513598" /><line stroke="rgb(0%,0%,0%)" x1="664.769822702" x2="665.189959751" y1="570.138594359" y2="568.292279242" /><line stroke="rgb(0%,0%,0%)" x1="665.189959751" x2="665.411625327" y1="568.292279242" y2="567.900798602" /><line stroke="rgb(0%,0%,0%)" x1="667.487582648" x2="668.173007572" y1="558.791217974" y2="554.537919226" /><line stroke="rgb(0%,0%,0%)" x1="668.173007572" x2="668.937883679" y1="554.537919226" y2="551.475314724" /><line stroke="rgb(0%,0%,0%)" x1="587.883862449" x2="590.838364025" y1="742.948438295" y2="738.511962457" /><line stroke="rgb(0%,0%,0%)" x1="602.617219369" x2="606.691674564" y1="707.647228384" y2="700.995003764" /><line stroke="rgb(0%,0%,0%)" x1="606.691674564" x2="607.963212851" y1="700.995003764" y2="698.176036263" /><line stroke="rgb(0%,0%,0%)" x1="607.963212851" x2="615.891984617" y1="698.176036263" y2="685.042269546" /><line stroke="rgb(0%,0%,0%)" x1="615.891984617" x2="616.008801268" y1="685.042269546" y2="684.847722125" /><line stroke="rgb(0%,0%,0%)" x1="625.857215362" x2="616.008801268" y1="667.603248611" y2="684.847722125" /><line stroke="rgb(0%,0%,0%)" x1="625.857215362" x2="625.992616776" y1="667.603248611" y2="667.285130346" /><line stroke="rgb(0%,0%,0%)" x1="625.992616776" x2="626.128443778" y1="667.285130346" y2="667.063781599" /><line stroke="rgb(0%,0%,0%)" x1="626.128443778" x2="626.290012804" y1="667.063781599" y2="666.657975171" /><line stroke="rgb(0%,0%,0%)" x1="575.522181188" x2="577.244932136" y1="757.821474528" y2="756.437821518" /><line stroke="rgb(0%,0%,0%)" x1="577.244932136" x2="577.769253314" y1="756.437821518" y2="755.676691653" /><line stroke="rgb(0%,0%,0%)" x1="587.883862449" x2="581.991840203" y1="742.948438295" y2="750.131273346" /><line stroke="rgb(0%,0%,0%)" x1="577.769253314" x2="581.991840203" y1="755.676691653" y2="750.131273346" /><line stroke="rgb(0%,0%,0%)" x1="539.418658541" x2="545.800722478" y1="786.961146441" y2="782.786461496" /><line stroke="rgb(0%,0%,0%)" x1="494.86983631" x2="498.655372643" y1="806.49632309" y2="805.423642073" /><line stroke="rgb(0%,0%,0%)" x1="525.274458151" x2="533.215255132" y1="795.067599859" y2="790.894931203" /><line stroke="rgb(0%,0%,0%)" x1="533.215255132" x2="534.409750477" y1="790.894931203" y2="790.277970744" /><line stroke="rgb(0%,0%,0%)" x1="539.418658541" x2="534.409750477" y1="786.961146441" y2="790.277970744" /><line stroke="rgb(0%,0%,0%)" x1="399.110071823" x2="403.962295493" y1="783.319677903" y2="787.598301853" /><line stroke="rgb(0%,0%,0%)" x1="399.110071823" x2="394.946388137" y1="783.319677903" y2="779.876366061" /><line stroke="rgb(0%,0%,0%)" x1="412.077882769" x2="415.145140745" y1="793.721153831" y2="794.996601671" /><line stroke="rgb(0%,0%,0%)" x1="415.145140745" x2="422.593025289" y1="794.996601671" y2="800.773387367" /><line stroke="rgb(0%,0%,0%)" x1="340.378436432" x2="349.285373374" y1="714.423186021" y2="721.549589363" /><line stroke="rgb(0%,0%,0%)" x1="358.14724048" x2="364.247928601" y1="730.652906105" y2="737.982481633" /><line stroke="rgb(0%,0%,0%)" x1="349.285373374" x2="356.482808314" y1="721.549589363" y2="728.289709614" /><line stroke="rgb(0%,0%,0%)" x1="371.873796727" x2="373.394503474" y1="749.142904981" y2="751.553863502" /><line stroke="rgb(0%,0%,0%)" x1="373.394503474" x2="373.852696741" y1="751.553863502" y2="751.920908264" /><line stroke="rgb(0%,0%,0%)" x1="391.814023671" x2="394.946388137" y1="776.543024384" y2="779.876366061" /><line stroke="rgb(0%,0%,0%)" x1="306.098623944" x2="310.106160144" y1="636.50460545" y2="636.959478438" /><line stroke="rgb(0%,0%,0%)" x1="316.465981359" x2="317.984928188" y1="693.941031732" y2="696.057682389" /><line stroke="rgb(0%,0%,0%)" x1="314.655354674" x2="316.465981359" y1="690.811546896" y2="693.941031732" /><line stroke="rgb(0%,0%,0%)" x1="263.807042061" x2="265.2606424" y1="550.954407782" y2="550.017362772" /><line stroke="rgb(0%,0%,0%)" x1="263.807042061" x2="263.320745479" y1="550.954407782" y2="551.460907483" /><line stroke="rgb(0%,0%,0%)" x1="255.522737256" x2="256.348357275" y1="511.047486255" y2="516.937885917" /><line stroke="rgb(0%,0%,0%)" x1="265.417371226" x2="266.081485643" y1="549.070757144" y2="547.666148239" /><line stroke="rgb(0%,0%,0%)" x1="263.14637888" x2="264.761913067" y1="536.088229604" y2="541.34440355" /><line stroke="rgb(0%,0%,0%)" x1="262.24571265" x2="257.625214525" y1="533.938539212" y2="522.864467358" /><line stroke="rgb(0%,0%,0%)" x1="268.451790492" x2="263.400039719" y1="465.339987462" y2="462.561946319" /><line stroke="rgb(0%,0%,0%)" x1="263.400039719" x2="260.252555872" y1="462.561946319" y2="460.999079144" /><line stroke="rgb(0%,0%,0%)" x1="260.252555872" x2="259.913898098" y1="460.999079144" y2="460.878780323" /><line stroke="rgb(0%,0%,0%)" x1="285.377183989" x2="283.348659237" y1="465.264124408" y2="467.51597455" /><line stroke="rgb(0%,0%,0%)" x1="285.377183989" x2="286.195489013" y1="465.264124408" y2="463.578430636" /><line stroke="rgb(0%,0%,0%)" x1="287.349807826" x2="286.195489013" y1="460.106393524" y2="463.578430636" /><line stroke="rgb(0%,0%,0%)" x1="287.935461954" x2="287.349807826" y1="457.660235561" y2="460.106393524" /><line stroke="rgb(0%,0%,0%)" x1="287.935461954" x2="290.548804688" y1="457.660235561" y2="452.754739116" /><line stroke="rgb(0%,0%,0%)" x1="290.791178215" x2="290.548804688" y1="451.800329034" y2="452.754739116" /><line stroke="rgb(0%,0%,0%)" x1="313.09843628" x2="312.798780968" y1="638.910508565" y2="641.687073306" /><line stroke="rgb(0%,0%,0%)" x1="312.216994664" x2="313.09843628" y1="638.185591326" y2="638.910508565" /><line stroke="rgb(0%,0%,0%)" x1="310.106160144" x2="312.216994664" y1="636.959478438" y2="638.185591326" /><line stroke="rgb(0%,0%,0%)" x1="243.236270995" x2="244.400002122" y1="470.139678" y2="476.155336937" /><line stroke="rgb(0%,0%,0%)" x1="243.206385122" x2="243.236270995" y1="469.722757502" y2="470.139678" /><line stroke="rgb(0%,0%,0%)" x1="244.505711591" x2="243.103564404" y1="462.534330125" y2="469.069108516" /><line stroke="rgb(0%,0%,0%)" x1="256.348357275" x2="257.615777094" y1="516.937885917" y2="522.819441809" /><line stroke="rgb(0%,0%,0%)" x1="257.615777094" x2="257.621729119" y1="522.819441809" y2="522.84697359" /><line stroke="rgb(0%,0%,0%)" x1="255.523526261" x2="255.522737256" y1="507.224817044" y2="511.047486255" /><line stroke="rgb(0%,0%,0%)" x1="254.638697295" x2="255.523526261" y1="502.820481497" y2="507.224817044" /><line stroke="rgb(0%,0%,0%)" x1="254.638697295" x2="254.64050195" y1="502.820481497" y2="500.292484799" /><line stroke="rgb(0%,0%,0%)" x1="253.980480218" x2="254.64050195" y1="497.423387117" y2="500.292484799" /><line stroke="rgb(0%,0%,0%)" x1="253.005299092" x2="253.980480218" y1="496.486531693" y2="497.423387117" /><line stroke="rgb(0%,0%,0%)" x1="252.278558835" x2="252.390807602" y1="495.022284829" y2="491.712102712" /><line stroke="rgb(0%,0%,0%)" x1="248.044583558" x2="252.390807602" y1="484.41597551" y2="491.712102712" /><line stroke="rgb(0%,0%,0%)" x1="247.695337107" x2="248.044583558" y1="483.240106176" y2="484.41597551" /><line stroke="rgb(0%,0%,0%)" x1="244.64385988" x2="247.695337107" y1="477.726343347" y2="483.240106176" /><line stroke="rgb(0%,0%,0%)" x1="251.404966478" x2="247.112396475" y1="459.43763929" y2="461.160078804" /><line stroke="rgb(0%,0%,0%)" x1="259.913898098" x2="257.797317452" y1="460.878780323" y2="460.054398194" /><line stroke="rgb(0%,0%,0%)" x1="251.404966478" x2="255.232427074" y1="459.43763929" y2="459.37357183" /><line stroke="rgb(0%,0%,0%)" x1="244.827389731" x2="244.505711591" y1="461.994705573" y2="462.534330125" /><line stroke="rgb(0%,0%,0%)" x1="255.356231378" x2="255.232427074" y1="459.341694826" y2="459.37357183" /><line stroke="rgb(0%,0%,0%)" x1="257.797317452" x2="255.398806822" y1="460.054398194" y2="459.3378771" /><line stroke="rgb(0%,0%,0%)" x1="244.827389731" x2="247.112396475" y1="461.994705573" y2="461.160078804" /><line stroke="rgb(0%,0%,0%)" x1="255.660807482" x2="265.914058742" y1="582.636060464" y2="597.812578154" /><line stroke="rgb(0%,0%,0%)" x1="265.417371226" x2="265.2606424" y1="549.070757144" y2="550.017362772" /><line stroke="rgb(0%,0%,0%)" x1="265.002831871" x2="264.90160779" y1="542.741089405" y2="544.185975025" /><line stroke="rgb(0%,0%,0%)" x1="265.002831871" x2="264.869662971" y1="542.741089405" y2="541.55282905" /><line stroke="rgb(0%,0%,0%)" x1="264.761913067" x2="264.869662971" y1="541.34440355" y2="541.55282905" /><line stroke="rgb(0%,0%,0%)" x1="262.24571265" x2="263.14637888" y1="533.938539212" y2="536.088229604" /><line stroke="rgb(0%,0%,0%)" x1="257.623273091" x2="257.625214525" y1="522.85857214" y2="522.864467358" /><line stroke="rgb(0%,0%,0%)" x1="257.621729119" x2="257.623273091" y1="522.84697359" y2="522.85857214" /><line stroke="rgb(0%,0%,0%)" x1="276.499783065" x2="278.149659901" y1="615.164687717" y2="617.838837352" /><line stroke="rgb(0%,0%,0%)" x1="264.90160779" x2="266.081485643" y1="544.185975025" y2="547.666148239" /><line stroke="rgb(0%,0%,0%)" x1="244.400002122" x2="244.64385988" y1="476.155336937" y2="477.726343347" /><line stroke="rgb(0%,0%,0%)" x1="252.278558835" x2="252.887292267" y1="495.022284829" y2="496.249550961" /><line stroke="rgb(0%,0%,0%)" x1="252.887292267" x2="253.005299092" y1="496.249550961" y2="496.486531693" /><line stroke="rgb(0%,0%,0%)" x1="255.398806822" x2="255.356231378" y1="459.3378771" y2="459.341694826" /><line stroke="rgb(0%,0%,0%)" x1="288.276491239" x2="290.791178215" y1="444.73461938" y2="451.800329034" /><line stroke="rgb(0%,0%,0%)" x1="650.898161959" x2="652.374062453" y1="303.12808736" y2="306.411035311" /><line stroke="rgb(0%,0%,0%)" x1="649.962054658" x2="650.898161959" y1="301.046023946" y2="303.12808736" /><line stroke="rgb(0%,0%,0%)" x1="641.075907871" x2="643.986342367" y1="280.408148619" y2="286.795516312" /><line stroke="rgb(0%,0%,0%)" x1="641.075907871" x2="639.237905449" y1="280.408148619" y2="274.441366342" /><line stroke="rgb(0%,0%,0%)" x1="649.819780446" x2="649.962054658" y1="300.706632081" y2="301.046023946" /><line stroke="rgb(0%,0%,0%)" x1="649.819780446" x2="643.986342367" y1="300.706632081" y2="286.795516312" /><line stroke="rgb(0%,0%,0%)" x1="564.342953019" x2="567.140792889" y1="147.512790894" y2="149.307811569" /><line stroke="rgb(0%,0%,0%)" x1="591.735462641" x2="589.637841224" y1="182.053943839" y2="174.999875597" /><line stroke="rgb(0%,0%,0%)" x1="592.318201711" x2="596.779354845" y1="183.529425372" y2="194.821165755" /><line stroke="rgb(0%,0%,0%)" x1="591.735462641" x2="592.318201711" y1="182.053943839" y2="183.529425372" /><line stroke="rgb(0%,0%,0%)" x1="538.198172798" x2="542.753641816" y1="133.890836093" y2="136.116491033" /><line stroke="rgb(0%,0%,0%)" x1="538.198172798" x2="536.566400611" y1="133.890836093" y2="133.093453489" /><line stroke="rgb(0%,0%,0%)" x1="564.342953019" x2="558.622939169" y1="147.512790894" y2="144.993718154" /><line stroke="rgb(0%,0%,0%)" x1="557.953861054" x2="558.622939169" y1="144.699252625" y2="144.993718154" /><line stroke="rgb(0%,0%,0%)" x1="552.406364716" x2="557.953861054" y1="141.023280269" y2="144.699252625" /><line stroke="rgb(0%,0%,0%)" x1="552.406364716" x2="543.331325831" y1="141.023280269" y2="136.410189038" /><line stroke="rgb(0%,0%,0%)" x1="542.753641816" x2="543.331325831" y1="136.116491033" y2="136.410189038" /><line stroke="rgb(0%,0%,0%)" x1="574.074718023" x2="567.431430013" y1="153.958953109" y2="149.502511532" /><line stroke="rgb(0%,0%,0%)" x1="567.140792889" x2="567.431430013" y1="149.307811569" y2="149.502511532" /><line stroke="rgb(0%,0%,0%)" x1="492.835234704" x2="499.681180926" y1="116.548139675" y2="119.148635634" /><line stroke="rgb(0%,0%,0%)" x1="489.536155397" x2="492.835234704" y1="115.294566313" y2="116.548139675" /><line stroke="rgb(0%,0%,0%)" x1="433.150204083" x2="435.192625059" y1="96.3459845011" y2="96.7478226758" /><line stroke="rgb(0%,0%,0%)" x1="433.150204083" x2="429.99381691" y1="96.3459845011" y2="95.7250869288" /><line stroke="rgb(0%,0%,0%)" x1="452.038264919" x2="454.300899987" y1="101.203549297" y2="101.782810856" /><line stroke="rgb(0%,0%,0%)" x1="454.812009353" x2="461.020165731" y1="101.95636952" y2="104.064019132" /><line stroke="rgb(0%,0%,0%)" x1="454.300899987" x2="454.812009353" y1="101.782810856" y2="101.95636952" /><line stroke="rgb(0%,0%,0%)" x1="483.799260534" x2="473.121779339" y1="113.714437258" y2="108.669600298" /><line stroke="rgb(0%,0%,0%)" x1="488.794084962" x2="483.799260534" y1="115.090507039" y2="113.714437258" /><line stroke="rgb(0%,0%,0%)" x1="488.794084962" x2="489.536155397" y1="115.090507039" y2="115.294566313" /><line stroke="rgb(0%,0%,0%)" x1="451.475353561" x2="435.192625059" y1="101.054697745" y2="96.7478226758" /><line stroke="rgb(0%,0%,0%)" x1="451.475353561" x2="452.038264919" y1="101.054697745" y2="101.203549297" /><line stroke="rgb(0%,0%,0%)" x1="329.748418994" x2="327.479326022" y1="169.941377705" y2="170.91672702" /><line stroke="rgb(0%,0%,0%)" x1="329.748418994" x2="329.770996679" y1="169.941377705" y2="169.931706246" /><line stroke="rgb(0%,0%,0%)" x1="329.8562336" x2="336.351498398" y1="169.860886203" y2="164.475205166" /><line stroke="rgb(0%,0%,0%)" x1="329.770996679" x2="329.8562336" y1="169.931706246" y2="169.860886203" /><line stroke="rgb(0%,0%,0%)" x1="291.020881702" x2="285.254544465" y1="278.254411303" y2="282.602044196" /><line stroke="rgb(0%,0%,0%)" x1="291.020881702" x2="291.626916052" y1="278.254411303" y2="277.796738014" /><line stroke="rgb(0%,0%,0%)" x1="272.767162825" x2="285.254544465" y1="291.765286671" y2="282.602044196" /><line stroke="rgb(0%,0%,0%)" x1="301.697831041" x2="301.749480908" y1="270.197088127" y2="270.735136648" /><line stroke="rgb(0%,0%,0%)" x1="296.407030393" x2="297.670818018" y1="238.292544765" y2="245.298017595" /><line stroke="rgb(0%,0%,0%)" x1="297.670818018" x2="298.422302793" y1="245.298017595" y2="249.465516635" /><line stroke="rgb(0%,0%,0%)" x1="297.559342002" x2="291.626916052" y1="274.950472043" y2="277.796738014" /><line stroke="rgb(0%,0%,0%)" x1="297.559342002" x2="297.99267866" y1="274.950472043" y2="274.742642508" /><line stroke="rgb(0%,0%,0%)" x1="301.630927595" x2="297.99267866" y1="270.861498515" y2="274.742642508" /><line stroke="rgb(0%,0%,0%)" x1="301.630927595" x2="301.749480908" y1="270.861498515" y2="270.735136648" /><line stroke="rgb(0%,0%,0%)" x1="242.087025364" x2="242.246158291" y1="429.898432323" y2="429.197258304" /><line stroke="rgb(0%,0%,0%)" x1="242.900795482" x2="242.554293574" y1="423.408674676" y2="424.4514771" /><line stroke="rgb(0%,0%,0%)" x1="257.825929261" x2="264.688963102" y1="312.142699834" y2="303.572093296" /><line stroke="rgb(0%,0%,0%)" x1="266.556746962" x2="266.880753743" y1="368.812444023" y2="365.59504783" /><line stroke="rgb(0%,0%,0%)" x1="301.309705617" x2="301.680672583" y1="268.419524794" y2="270.118566372" /><line stroke="rgb(0%,0%,0%)" x1="301.680672583" x2="301.697831041" y1="270.118566372" y2="270.197088127" /><line stroke="rgb(0%,0%,0%)" x1="300.983867346" x2="301.75203983" y1="267.152938091" y2="264.465275402" /><line stroke="rgb(0%,0%,0%)" x1="300.983867346" x2="301.255988752" y1="267.152938091" y2="268.21172251" /><line stroke="rgb(0%,0%,0%)" x1="301.255988752" x2="301.309705617" y1="268.21172251" y2="268.419524794" /><line stroke="rgb(0%,0%,0%)" x1="244.968841699" x2="236.710627765" y1="326.125978115" y2="340.507660741" /><line stroke="rgb(0%,0%,0%)" x1="236.428056072" x2="236.710627765" y1="340.999714239" y2="340.507660741" /><line stroke="rgb(0%,0%,0%)" x1="242.078160385" x2="242.087025364" y1="430.014484948" y2="429.898432323" /><line stroke="rgb(0%,0%,0%)" x1="242.078160385" x2="241.574934723" y1="430.014484948" y2="436.642945874" /><line stroke="rgb(0%,0%,0%)" x1="241.995820162" x2="242.554293574" y1="425.629207513" y2="424.4514771" /><line stroke="rgb(0%,0%,0%)" x1="242.900795482" x2="243.594853905" y1="423.408674676" y2="420.879757447" /><line stroke="rgb(0%,0%,0%)" x1="257.825929261" x2="249.649682948" y1="312.142699834" y2="320.124349836" /><line stroke="rgb(0%,0%,0%)" x1="248.267546529" x2="249.649682948" y1="321.473282042" y2="320.124349836" /><line stroke="rgb(0%,0%,0%)" x1="247.79071847" x2="244.968841699" y1="322.145817666" y2="326.125978115" /><line stroke="rgb(0%,0%,0%)" x1="247.79071847" x2="248.267546529" y1="322.145817666" y2="321.473282042" /><line stroke="rgb(0%,0%,0%)" x1="266.556746962" x2="263.703504259" y1="368.812444023" y2="375.168023864" /><line stroke="rgb(0%,0%,0%)" x1="272.720048358" x2="269.963184213" y1="291.842517022" y2="296.357342422" /><line stroke="rgb(0%,0%,0%)" x1="272.720048358" x2="272.767162825" y1="291.842517022" y2="291.765286671" /><line stroke="rgb(0%,0%,0%)" x1="269.963184213" x2="264.757392648" y1="296.357342422" y2="303.478530334" /><line stroke="rgb(0%,0%,0%)" x1="264.688963102" x2="264.757392648" y1="303.572093296" y2="303.478530334" /><line stroke="rgb(0%,0%,0%)" x1="242.241005249" x2="242.246158291" y1="429.124133142" y2="429.197258304" /><line stroke="rgb(0%,0%,0%)" x1="241.995820162" x2="242.241005249" y1="425.629207513" y2="429.124133142" /><line stroke="rgb(0%,0%,0%)" x1="683.579019209" x2="683.577251427" y1="479.673451772" y2="482.017093613" /><line stroke="rgb(0%,0%,0%)" x1="683.579019209" x2="684.632865509" y1="479.673451772" y2="475.132780162" /><line stroke="rgb(0%,0%,0%)" x1="673.26215659" x2="673.923506845" y1="537.917278099" y2="532.683942824" /><line stroke="rgb(0%,0%,0%)" x1="673.260450284" x2="673.26215659" y1="537.930747023" y2="537.917278099" /><line stroke="rgb(0%,0%,0%)" x1="673.923506845" x2="674.975723115" y1="532.683942824" y2="528.357519957" /><line stroke="rgb(0%,0%,0%)" x1="674.975723115" x2="675.112387348" y1="528.357519957" y2="527.795776253" /><line stroke="rgb(0%,0%,0%)" x1="591.736143397" x2="590.838364025" y1="735.989735118" y2="738.511962457" /><line stroke="rgb(0%,0%,0%)" x1="591.736143397" x2="592.543270484" y1="735.989735118" y2="733.721408494" /><line stroke="rgb(0%,0%,0%)" x1="593.145346828" x2="599.748052656" y1="732.315138762" y2="716.889537851" /><line stroke="rgb(0%,0%,0%)" x1="592.543270484" x2="593.145346828" y1="733.721408494" y2="732.315138762" /><line stroke="rgb(0%,0%,0%)" x1="599.748052656" x2="601.982576671" y1="716.889537851" y2="709.690635992" /><line stroke="rgb(0%,0%,0%)" x1="601.982576671" x2="602.617219369" y1="709.690635992" y2="707.647228384" /><line stroke="rgb(0%,0%,0%)" x1="338.224350679" x2="338.795678193" y1="712.527846333" y2="713.363565608" /><line stroke="rgb(0%,0%,0%)" x1="338.795678193" x2="340.378436432" y1="713.363565608" y2="714.423186021" /><line stroke="rgb(0%,0%,0%)" x1="364.936789699" x2="364.247928601" y1="739.230902958" y2="737.982481633" /><line stroke="rgb(0%,0%,0%)" x1="364.936789699" x2="365.450746139" y1="739.230902958" y2="740.16219148" /><line stroke="rgb(0%,0%,0%)" x1="365.640899768" x2="371.873796727" y1="740.428174428" y2="749.142904981" /><line stroke="rgb(0%,0%,0%)" x1="365.450746139" x2="365.640899768" y1="740.16219148" y2="740.428174428" /><line stroke="rgb(0%,0%,0%)" x1="357.464777388" x2="357.943784656" y1="729.629299301" y2="730.347802721" /><line stroke="rgb(0%,0%,0%)" x1="357.943784656" x2="358.14724048" y1="730.347802721" y2="730.652906105" /><line stroke="rgb(0%,0%,0%)" x1="357.464777388" x2="356.482808314" y1="729.629299301" y2="728.289709614" /><line stroke="rgb(0%,0%,0%)" x1="379.138998999" x2="381.843064228" y1="760.484944169" y2="763.910128203" /><line stroke="rgb(0%,0%,0%)" x1="381.843064228" x2="391.814023671" y1="763.910128203" y2="776.543024384" /><line stroke="rgb(0%,0%,0%)" x1="376.127649652" x2="379.138998999" y1="756.221089669" y2="760.484944169" /><line stroke="rgb(0%,0%,0%)" x1="375.845798399" x2="376.127649652" y1="755.822204362" y2="756.221089669" /><line stroke="rgb(0%,0%,0%)" x1="330.79763738" x2="338.081085982" y1="707.876509904" y2="712.438158634" /><line stroke="rgb(0%,0%,0%)" x1="338.081085982" x2="338.224350679" y1="712.438158634" y2="712.527846333" /><line stroke="rgb(0%,0%,0%)" x1="375.845798399" x2="373.852696741" y1="755.822204362" y2="751.920908264" /><line stroke="rgb(0%,0%,0%)" x1="282.045913815" x2="283.348659237" y1="469.002941702" y2="467.51597455" /><line stroke="rgb(0%,0%,0%)" x1="295.039418934" x2="304.581096363" y1="633.479028608" y2="635.795772788" /><line stroke="rgb(0%,0%,0%)" x1="304.581096363" x2="304.632863952" y1="635.795772788" y2="635.808405147" /><line stroke="rgb(0%,0%,0%)" x1="307.208407478" x2="307.349034054" y1="668.49217589" y2="669.600030768" /><line stroke="rgb(0%,0%,0%)" x1="307.349034054" x2="308.375132298" y1="669.600030768" y2="677.682555273" /><line stroke="rgb(0%,0%,0%)" x1="312.05882403" x2="312.798780968" y1="643.680554597" y2="641.687073306" /><line stroke="rgb(0%,0%,0%)" x1="304.632863952" x2="304.69860393" y1="635.808405147" y2="635.839531528" /><line stroke="rgb(0%,0%,0%)" x1="304.69860393" x2="306.098623944" y1="635.839531528" y2="636.50460545" /><line stroke="rgb(0%,0%,0%)" x1="309.666520282" x2="309.715640092" y1="682.896319999" y2="682.973914023" /><line stroke="rgb(0%,0%,0%)" x1="309.715640092" x2="314.655354674" y1="682.973914023" y2="690.811546896" /><line stroke="rgb(0%,0%,0%)" x1="251.424832981" x2="250.14554959" y1="568.873615163" y2="563.600064498" /><line stroke="rgb(0%,0%,0%)" x1="251.424832981" x2="252.181435335" y1="568.873615163" y2="571.992543993" /><line stroke="rgb(0%,0%,0%)" x1="269.117793683" x2="268.451790492" y1="465.412559641" y2="465.339987462" /><line stroke="rgb(0%,0%,0%)" x1="282.02347476" x2="279.434578256" y1="469.007987954" y2="469.578509317" /><line stroke="rgb(0%,0%,0%)" x1="282.045913815" x2="282.02347476" y1="469.002941702" y2="469.007987954" /><line stroke="rgb(0%,0%,0%)" x1="279.336614648" x2="279.434578256" y1="469.538929247" y2="469.578509317" /><line stroke="rgb(0%,0%,0%)" x1="279.336614648" x2="269.117793683" y1="469.538929247" y2="465.412559641" /><line stroke="rgb(0%,0%,0%)" x1="283.905254074" x2="285.115635621" y1="624.479301998" y2="625.533682163" /><line stroke="rgb(0%,0%,0%)" x1="285.115635621" x2="293.619313587" y1="625.533682163" y2="632.940866122" /><line stroke="rgb(0%,0%,0%)" x1="283.905254074" x2="278.149659901" y1="624.479301998" y2="617.838837352" /><line stroke="rgb(0%,0%,0%)" x1="252.312648007" x2="253.744223149" y1="572.496779428" y2="577.993539549" /><line stroke="rgb(0%,0%,0%)" x1="252.181435335" x2="252.312648007" y1="571.992543993" y2="572.496779428" /><line stroke="rgb(0%,0%,0%)" x1="253.744223149" x2="255.660807482" y1="577.993539549" y2="582.636060464" /><line stroke="rgb(0%,0%,0%)" x1="685.596774524" x2="685.288868" y1="454.613078429" y2="451.62661168" /><line stroke="rgb(0%,0%,0%)" x1="605.661218256" x2="609.547094023" y1="211.878247625" y2="217.395777899" /><line stroke="rgb(0%,0%,0%)" x1="604.694890309" x2="605.661218256" y1="210.606791507" y2="211.878247625" /><line stroke="rgb(0%,0%,0%)" x1="604.694890309" x2="604.662117254" y1="210.606791507" y2="210.563610444" /><line stroke="rgb(0%,0%,0%)" x1="578.406227939" x2="581.800423639" y1="158.576331411" y2="161.710683105" /><line stroke="rgb(0%,0%,0%)" x1="241.397005092" x2="241.574934723" y1="437.357936447" y2="436.642945874" /><line stroke="rgb(0%,0%,0%)" x1="241.397005092" x2="241.743314838" y1="437.357936447" y2="438.333144759" /><line stroke="rgb(0%,0%,0%)" x1="662.724283446" x2="662.795693173" y1="577.10373903" y2="576.904257512" /><line stroke="rgb(0%,0%,0%)" x1="662.795693173" x2="663.202131845" y1="576.904257512" y2="575.768979836" /><line stroke="rgb(0%,0%,0%)" x1="675.112387348" x2="675.523157351" y1="527.795776253" y2="525.751183223" /><line stroke="rgb(0%,0%,0%)" x1="675.523157351" x2="677.265233262" y1="525.751183223" y2="519.277902356" /><line stroke="rgb(0%,0%,0%)" x1="679.853098006" x2="680.33873378" y1="506.094921565" y2="500.220828691" /><line stroke="rgb(0%,0%,0%)" x1="679.809849449" x2="679.853098006" y1="506.618262313" y2="506.094921565" /><line stroke="rgb(0%,0%,0%)" x1="680.33873378" x2="680.80240154" y1="500.220828691" y2="496.573736751" /><line stroke="rgb(0%,0%,0%)" x1="680.80240154" x2="681.55669265" y1="496.573736751" y2="494.929907138" /><line stroke="rgb(0%,0%,0%)" x1="685.368349832" x2="684.78187118" y1="464.858337485" y2="473.997666597" /><line stroke="rgb(0%,0%,0%)" x1="685.368349832" x2="685.522692954" y1="464.858337485" y2="462.449922819" /><line stroke="rgb(0%,0%,0%)" x1="685.467436026" x2="685.522692954" y1="459.864762633" y2="462.449922819" /><line stroke="rgb(0%,0%,0%)" x1="662.509546472" x2="662.138630104" y1="577.712306746" y2="578.763415691" /><line stroke="rgb(0%,0%,0%)" x1="662.509546472" x2="662.724283446" y1="577.712306746" y2="577.10373903" /><line stroke="rgb(0%,0%,0%)" x1="685.467436026" x2="685.586999733" y1="459.864762633" y2="455.007465734" /><line stroke="rgb(0%,0%,0%)" x1="685.586999733" x2="685.596774524" y1="455.007465734" y2="454.613078429" /><line stroke="rgb(0%,0%,0%)" x1="565.716329986" x2="570.072862758" y1="767.087253561" y2="763.326861903" /><line stroke="rgb(0%,0%,0%)" x1="570.072862758" x2="572.008008223" y1="763.326861903" y2="761.484570932" /><line stroke="rgb(0%,0%,0%)" x1="572.008008223" x2="575.522181188" y1="761.484570932" y2="757.821474528" /><line stroke="rgb(0%,0%,0%)" x1="549.043895551" x2="545.800722478" y1="780.577636785" y2="782.786461496" /><line stroke="rgb(0%,0%,0%)" x1="549.043895551" x2="550.293020762" y1="780.577636785" y2="779.726788534" /><line stroke="rgb(0%,0%,0%)" x1="551.506051711" x2="565.716329986" y1="778.732701991" y2="767.087253561" /><line stroke="rgb(0%,0%,0%)" x1="550.293020762" x2="551.506051711" y1="779.726788534" y2="778.732701991" /><line stroke="rgb(0%,0%,0%)" x1="523.530194724" x2="525.274458151" y1="795.958584992" y2="795.067599859" /><line stroke="rgb(0%,0%,0%)" x1="466.124882178" x2="470.91732104" y1="810.608532054" y2="810.605670324" /><line stroke="rgb(0%,0%,0%)" x1="470.91732104" x2="477.991017247" y1="810.605670324" y2="809.5160377" /><line stroke="rgb(0%,0%,0%)" x1="477.991017247" x2="489.895568056" y1="809.5160377" y2="807.0439603" /><line stroke="rgb(0%,0%,0%)" x1="489.895568056" x2="492.45075152" y1="807.0439603" y2="806.513046189" /><line stroke="rgb(0%,0%,0%)" x1="492.45075152" x2="494.86983631" y1="806.513046189" y2="806.49632309" /><line stroke="rgb(0%,0%,0%)" x1="406.923975237" x2="403.962295493" y1="789.91385585" y2="787.598301853" /><line stroke="rgb(0%,0%,0%)" x1="406.923975237" x2="408.572800154" y1="789.91385585" y2="791.203022709" /><line stroke="rgb(0%,0%,0%)" x1="408.572800154" x2="412.077882769" y1="791.203022709" y2="793.721153831" /><line stroke="rgb(0%,0%,0%)" x1="326.395049363" x2="317.984928188" y1="704.537828925" y2="696.057682389" /><line stroke="rgb(0%,0%,0%)" x1="326.395049363" x2="330.79763738" y1="704.537828925" y2="707.876509904" /><line stroke="rgb(0%,0%,0%)" x1="307.208407478" x2="307.481331644" y1="668.49217589" y2="665.355913491" /><line stroke="rgb(0%,0%,0%)" x1="310.531421994" x2="307.481331644" y1="648.98325598" y2="665.355913491" /><line stroke="rgb(0%,0%,0%)" x1="310.531421994" x2="311.025782811" y1="648.98325598" y2="646.3296101" /><line stroke="rgb(0%,0%,0%)" x1="311.025782811" x2="312.05882403" y1="646.3296101" y2="643.680554597" /><line stroke="rgb(0%,0%,0%)" x1="243.061826039" x2="243.103564404" y1="469.359018972" y2="469.069108516" /><line stroke="rgb(0%,0%,0%)" x1="243.061826039" x2="243.119722819" y1="469.359018972" y2="469.504713887" /><line stroke="rgb(0%,0%,0%)" x1="682.762673809" x2="683.792919549" y1="433.5874163" y2="439.2487842" /><line stroke="rgb(0%,0%,0%)" x1="661.07914995" x2="663.249544294" y1="329.364291118" y2="334.947734922" /><line stroke="rgb(0%,0%,0%)" x1="660.778033687" x2="661.07914995" y1="328.611682245" y2="329.364291118" /><line stroke="rgb(0%,0%,0%)" x1="659.696632741" x2="660.778033687" y1="325.90802084" y2="328.611682245" /><line stroke="rgb(0%,0%,0%)" x1="659.696632741" x2="659.362404689" y1="325.90802084" y2="325.072129534" /><line stroke="rgb(0%,0%,0%)" x1="682.762673809" x2="683.330852265" y1="433.5874163" y2="426.723607284" /><line stroke="rgb(0%,0%,0%)" x1="574.074718023" x2="576.673182907" y1="153.958953109" y2="156.605611809" /><line stroke="rgb(0%,0%,0%)" x1="576.673182907" x2="578.406227939" y1="156.605611809" y2="158.576331411" /><line stroke="rgb(0%,0%,0%)" x1="370.596091607" x2="372.327535423" y1="112.792250408" y2="111.129425223" /><line stroke="rgb(0%,0%,0%)" x1="409.504122753" x2="405.676478063" y1="95.1048302868" y2="94.6652047886" /><line stroke="rgb(0%,0%,0%)" x1="409.504122753" x2="415.67943945" y1="95.1048302868" y2="94.8671293094" /><line stroke="rgb(0%,0%,0%)" x1="364.545551405" x2="360.645244148" y1="120.077747821" y2="124.928489184" /><line stroke="rgb(0%,0%,0%)" x1="372.327535423" x2="375.046489557" y1="111.129425223" y2="108.244683249" /><line stroke="rgb(0%,0%,0%)" x1="354.446750225" x2="357.348231453" y1="133.993734127" y2="129.345170071" /><line stroke="rgb(0%,0%,0%)" x1="353.795252991" x2="354.446750225" y1="135.079514929" y2="133.993734127" /><line stroke="rgb(0%,0%,0%)" x1="351.350017947" x2="353.795252991" y1="139.157446329" y2="135.079514929" /><line stroke="rgb(0%,0%,0%)" x1="351.350017947" x2="346.313010775" y1="139.157446329" y2="147.555209046" /><line stroke="rgb(0%,0%,0%)" x1="369.320167483" x2="364.545551405" y1="114.328790384" y2="120.077747821" /><line stroke="rgb(0%,0%,0%)" x1="369.320167483" x2="370.396161393" y1="114.328790384" y2="113.033467415" /><line stroke="rgb(0%,0%,0%)" x1="370.396161393" x2="370.596091607" y1="113.033467415" y2="112.792250408" /><line stroke="rgb(0%,0%,0%)" x1="235.072304851" x2="235.435947932" y1="343.270232814" y2="342.446697722" /><line stroke="rgb(0%,0%,0%)" x1="263.025633683" x2="263.104234481" y1="377.473327741" y2="376.831124003" /><line stroke="rgb(0%,0%,0%)" x1="263.025633683" x2="259.546005256" y1="377.473327741" y2="384.457568908" /><line stroke="rgb(0%,0%,0%)" x1="235.072304851" x2="236.264434891" y1="343.270232814" y2="346.681988094" /><line stroke="rgb(0%,0%,0%)" x1="679.665120352" x2="679.465357106" y1="507.586623245" y2="509.738286598" /><line stroke="rgb(0%,0%,0%)" x1="679.665120352" x2="679.809849449" y1="507.586623245" y2="506.618262313" /><line stroke="rgb(0%,0%,0%)" x1="665.786673526" x2="665.411625327" y1="563.633327138" y2="567.900798602" /><line stroke="rgb(0%,0%,0%)" x1="665.786673526" x2="667.487582648" y1="563.633327138" y2="558.791217974" /><line stroke="rgb(0%,0%,0%)" x1="673.211283896" x2="673.16191043" y1="538.099579745" y2="538.28155337" /><line stroke="rgb(0%,0%,0%)" x1="673.211283896" x2="673.236213955" y1="538.099579745" y2="538.007731246" /><line stroke="rgb(0%,0%,0%)" x1="673.236213955" x2="673.239244582" y1="538.007731246" y2="537.996548708" /><line stroke="rgb(0%,0%,0%)" x1="673.239244582" x2="673.260450284" y1="537.996548708" y2="537.930747023" /><line stroke="rgb(0%,0%,0%)" x1="523.414713641" x2="523.523264624" y1="796.010459711" y2="795.961687256" /><line stroke="rgb(0%,0%,0%)" x1="523.523264624" x2="523.530194724" y1="795.961687256" y2="795.958584992" /><line stroke="rgb(0%,0%,0%)" x1="506.072475734" x2="509.887965713" y1="802.375994572" y2="800.955539275" /><line stroke="rgb(0%,0%,0%)" x1="506.072475734" x2="498.655372643" y1="802.375994572" y2="805.423642073" /><line stroke="rgb(0%,0%,0%)" x1="509.887965713" x2="523.329601869" y1="800.955539275" y2="796.041570305" /><line stroke="rgb(0%,0%,0%)" x1="523.329601869" x2="523.410679546" y1="796.041570305" y2="796.011927606" /><line stroke="rgb(0%,0%,0%)" x1="523.410679546" x2="523.414713641" y1="796.011927606" y2="796.010459711" /><line stroke="rgb(0%,0%,0%)" x1="446.357672405" x2="448.426144955" y1="809.186091654" y2="809.570647636" /><line stroke="rgb(0%,0%,0%)" x1="450.713551167" x2="466.124882178" y1="809.70494201" y2="810.608532054" /><line stroke="rgb(0%,0%,0%)" x1="448.426144955" x2="450.713551167" y1="809.570647636" y2="809.70494201" /><line stroke="rgb(0%,0%,0%)" x1="293.619313587" x2="294.271374469" y1="632.940866122" y2="633.341701507" /><line stroke="rgb(0%,0%,0%)" x1="294.271374469" x2="294.462917131" y1="633.341701507" y2="633.375996149" /><line stroke="rgb(0%,0%,0%)" x1="294.462917131" x2="295.039418934" y1="633.375996149" y2="633.479028608" /><line stroke="rgb(0%,0%,0%)" x1="262.918204297" x2="263.320745479" y1="551.624821831" y2="551.460907483" /><line stroke="rgb(0%,0%,0%)" x1="261.144012893" x2="254.268805255" y1="552.466724122" y2="556.110032276" /><line stroke="rgb(0%,0%,0%)" x1="252.894589012" x2="254.268805255" y1="556.838333674" y2="556.110032276" /><line stroke="rgb(0%,0%,0%)" x1="252.540722071" x2="252.894589012" y1="557.025565463" y2="556.838333674" /><line stroke="rgb(0%,0%,0%)" x1="262.787665872" x2="261.144012893" y1="551.686881428" y2="552.466724122" /><line stroke="rgb(0%,0%,0%)" x1="262.787665872" x2="262.894446773" y1="551.686881428" y2="551.636156771" /><line stroke="rgb(0%,0%,0%)" x1="262.894446773" x2="262.918204297" y1="551.636156771" y2="551.624821831" /><line stroke="rgb(0%,0%,0%)" x1="679.745389945" x2="679.745606315" y1="392.716512435" y2="392.720059534" /><line stroke="rgb(0%,0%,0%)" x1="679.743466205" x2="679.745389945" y1="392.704921354" y2="392.716512435" /><line stroke="rgb(0%,0%,0%)" x1="679.456148494" x2="679.203881528" y1="389.71877906" y2="387.8278627" /><line stroke="rgb(0%,0%,0%)" x1="679.749311711" x2="679.778376134" y1="392.737817432" y2="392.876996113" /><line stroke="rgb(0%,0%,0%)" x1="679.745606315" x2="679.749311711" y1="392.720059534" y2="392.737817432" /><line stroke="rgb(0%,0%,0%)" x1="679.742774649" x2="679.456148494" y1="392.697757883" y2="389.71877906" /><line stroke="rgb(0%,0%,0%)" x1="679.742774649" x2="679.743261038" y1="392.697757883" y2="392.702792152" /><line stroke="rgb(0%,0%,0%)" x1="679.743261038" x2="679.743466205" y1="392.702792152" y2="392.704921354" /><line stroke="rgb(0%,0%,0%)" x1="317.410137359" x2="323.938132686" y1="178.766364781" y2="173.326487398" /><line stroke="rgb(0%,0%,0%)" x1="323.938132686" x2="327.479326022" y1="173.326487398" y2="170.91672702" /><line stroke="rgb(0%,0%,0%)" x1="310.032154325" x2="313.126866265" y1="187.1746473" y2="182.720454075" /><line stroke="rgb(0%,0%,0%)" x1="310.032154325" x2="305.02720362" y1="187.1746473" y2="194.379681058" /><line stroke="rgb(0%,0%,0%)" x1="317.410137359" x2="314.301329351" y1="178.766364781" y2="181.636382284" /><line stroke="rgb(0%,0%,0%)" x1="313.581318141" x2="314.301329351" y1="182.3008388" y2="181.636382284" /><line stroke="rgb(0%,0%,0%)" x1="313.126866265" x2="313.581318141" y1="182.720454075" y2="182.3008388" /><line stroke="rgb(0%,0%,0%)" x1="295.920673073" x2="296.407030393" y1="235.542920755" y2="238.292544765" /><line stroke="rgb(0%,0%,0%)" x1="296.621813495" x2="297.640943268" y1="227.089052021" y2="214.80678905" /><line stroke="rgb(0%,0%,0%)" x1="296.226314544" x2="296.621813495" y1="231.859468437" y2="227.089052021" /><line stroke="rgb(0%,0%,0%)" x1="295.920673073" x2="296.226314544" y1="235.542920755" y2="231.859468437" /><line stroke="rgb(0%,0%,0%)" x1="235.435947932" x2="235.719167583" y1="342.446697722" y2="342.248014951" /><line stroke="rgb(0%,0%,0%)" x1="235.719167583" x2="236.428056072" y1="342.248014951" y2="340.999714239" /><line stroke="rgb(0%,0%,0%)" x1="445.04682345" x2="446.357672405" y1="808.728994094" y2="809.186091654" /><line stroke="rgb(0%,0%,0%)" x1="424.991263026" x2="422.593025289" y1="802.328837886" y2="800.773387367" /><line stroke="rgb(0%,0%,0%)" x1="436.115805302" x2="437.535825283" y1="806.480369967" y2="806.837891095" /><line stroke="rgb(0%,0%,0%)" x1="437.535825283" x2="444.27231705" y1="806.837891095" y2="808.533759355" /><line stroke="rgb(0%,0%,0%)" x1="444.27231705" x2="445.04682345" y1="808.533759355" y2="808.728994094" /><line stroke="rgb(0%,0%,0%)" x1="249.898035792" x2="250.14554959" y1="561.253131114" y2="563.600064498" /><line stroke="rgb(0%,0%,0%)" x1="249.898035792" x2="250.183069953" y1="561.253131114" y2="560.023827867" /><line stroke="rgb(0%,0%,0%)" x1="272.754355457" x2="273.311248371" y1="607.887975053" y2="608.969443534" /><line stroke="rgb(0%,0%,0%)" x1="273.311248371" x2="274.049868207" y1="608.969443534" y2="610.405124026" /><line stroke="rgb(0%,0%,0%)" x1="274.049868207" x2="276.499783065" y1="610.405124026" y2="615.164687717" /><line stroke="rgb(0%,0%,0%)" x1="309.053668305" x2="309.666520282" y1="680.948593035" y2="682.896319999" /><line stroke="rgb(0%,0%,0%)" x1="308.375132298" x2="309.053668305" y1="677.682555273" y2="680.948593035" /><line stroke="rgb(0%,0%,0%)" x1="251.505099797" x2="250.183069953" y1="558.325046064" y2="560.023827867" /><line stroke="rgb(0%,0%,0%)" x1="251.505099797" x2="251.769336353" y1="558.325046064" y2="557.985695702" /><line stroke="rgb(0%,0%,0%)" x1="251.769336353" x2="251.939782459" y1="557.985695702" y2="557.766812538" /><line stroke="rgb(0%,0%,0%)" x1="251.939782459" x2="252.540722071" y1="557.766812538" y2="557.025565463" /><line stroke="rgb(0%,0%,0%)" x1="272.754355457" x2="265.914058742" y1="607.887975053" y2="597.812578154" /><line stroke="rgb(0%,0%,0%)" x1="424.991263026" x2="425.995001117" y1="802.328837886" y2="802.955280669" /><line stroke="rgb(0%,0%,0%)" x1="435.024572185" x2="436.115805302" y1="805.892549019" y2="806.480369967" /><line stroke="rgb(0%,0%,0%)" x1="428.011763315" x2="435.024572185" y1="803.611395665" y2="805.892549019" /><line stroke="rgb(0%,0%,0%)" x1="427.022213517" x2="428.011763315" y1="803.289536083" y2="803.611395665" /><line stroke="rgb(0%,0%,0%)" x1="425.995001117" x2="427.022213517" y1="802.955280669" y2="803.289536083" /><line stroke="rgb(0%,0%,0%)" x1="243.119722819" x2="243.206385122" y1="469.504713887" y2="469.722757502" /><line stroke="rgb(0%,0%,0%)" x1="263.104234481" x2="263.703504259" y1="376.831124003" y2="375.168023864" /></svg>