<?xml version="1.0" encoding="utf-8" ?>
<svg baseProfile="full" height="100%" version="1.1" viewBox="0.5 0.5 685.793960571 941.299331665" width="100%" xmlns="http://www.w3.org/2000/svg" xmlns:ev="http://www.w3.org/2001/xml-events" xmlns:xlink="http://www.w3.org/1999/xlink"><defs /><line stroke="rgb(0%,0%,0%)" x1="651.80013284" x2="651.563819164" y1="446.117047732" y2="442.923329639" /><line stroke="rgb(0%,0%,0%)" x1="651.563819164" x2="651.126238337" y1="442.923329639" y2="440.388630649" /><line stroke="rgb(0%,0%,0%)" x1="645.791325008" x2="645.735445863" y1="418.002704743" y2="417.48715993" /><line stroke="rgb(0%,0%,0%)" x1="645.735445863" x2="642.721532585" y1="417.48715993" y2="408.067426305" /><line stroke="rgb(0%,0%,0%)" x1="642.156329752" x2="642.721532585" y1="407.177761043" y2="408.067426305" /><line stroke="rgb(0%,0%,0%)" x1="640.189638607" x2="640.559520325" y1="398.366372696" y2="399.879148523" /><line stroke="rgb(0%,0%,0%)" x1="626.857433859" x2="626.976530385" y1="356.294581671" y2="356.561275797" /><line stroke="rgb(0%,0%,0%)" x1="626.857433859" x2="624.604004473" y1="356.294581671" y2="350.826842167" /><line stroke="rgb(0%,0%,0%)" x1="623.644639349" x2="624.604004473" y1="348.669854146" y2="350.826842167" /><line stroke="rgb(0%,0%,0%)" x1="623.644639349" x2="617.905422642" y1="348.669854146" y2="337.368233345" /><line stroke="rgb(0%,0%,0%)" x1="632.449352774" x2="633.715223173" y1="367.956142096" y2="372.152827962" /><line stroke="rgb(0%,0%,0%)" x1="626.976530385" x2="627.136277118" y1="356.561275797" y2="356.931104654" /><line stroke="rgb(0%,0%,0%)" x1="651.80013284" x2="652.515310589" y1="446.117047732" y2="451.963656659" /><line stroke="rgb(0%,0%,0%)" x1="648.056255719" x2="649.278060091" y1="429.545009254" y2="433.023518101" /><line stroke="rgb(0%,0%,0%)" x1="648.056255719" x2="646.01009793" y1="429.545009254" y2="418.800931764" /><line stroke="rgb(0%,0%,0%)" x1="645.791325008" x2="646.01009793" y1="418.002704743" y2="418.800931764" /><line stroke="rgb(0%,0%,0%)" x1="642.156329752" x2="642.179255777" y1="407.177761043" y2="405.156801366" /><line stroke="rgb(0%,0%,0%)" x1="590.065705931" x2="590.881259151" y1="271.939931668" y2="273.637076897" /><line stroke="rgb(0%,0%,0%)" x1="590.065705931" x2="582.98809148" y1="271.939931668" y2="261.442580293" /><line stroke="rgb(0%,0%,0%)" x1="582.98809148" x2="582.272578207" y1="261.442580293" y2="260.315563228" /><line stroke="rgb(0%,0%,0%)" x1="639.657684388" x2="637.056590965" y1="393.792537642" y2="382.786805232" /><line stroke="rgb(0%,0%,0%)" x1="633.706746964" x2="633.715223173" y1="372.256296687" y2="372.152827962" /><line stroke="rgb(0%,0%,0%)" x1="652.283595339" x2="652.515310589" y1="457.452385015" y2="451.963656659" /><line stroke="rgb(0%,0%,0%)" x1="649.278060091" x2="650.625159902" y1="433.023518101" y2="438.217102368" /><line stroke="rgb(0%,0%,0%)" x1="582.272578207" x2="574.212618963" y1="260.315563228" y2="254.897464154" /><line stroke="rgb(0%,0%,0%)" x1="573.511463065" x2="574.212618963" y1="254.498293492" y2="254.897464154" /><line stroke="rgb(0%,0%,0%)" x1="573.511463065" x2="572.082485982" y1="254.498293492" y2="253.461772995" /><line stroke="rgb(0%,0%,0%)" x1="604.577502798" x2="606.730980617" y1="303.077355428" y2="314.346365708" /><line stroke="rgb(0%,0%,0%)" x1="604.577502798" x2="602.593757988" y1="303.077355428" y2="292.990083902" /><line stroke="rgb(0%,0%,0%)" x1="598.113291949" x2="602.252985631" y1="286.431888036" y2="292.481821999" /><line stroke="rgb(0%,0%,0%)" x1="594.871908508" x2="598.113291949" y1="282.517161171" y2="286.431888036" /><line stroke="rgb(0%,0%,0%)" x1="617.905422642" x2="616.271634433" y1="337.368233345" y2="334.658480792" /><line stroke="rgb(0%,0%,0%)" x1="612.566535414" x2="615.381879662" y1="327.299597896" y2="333.095259958" /><line stroke="rgb(0%,0%,0%)" x1="612.566535414" x2="606.931528195" y1="327.299597896" y2="315.608605937" /><line stroke="rgb(0%,0%,0%)" x1="632.449352774" x2="627.136277118" y1="367.956142096" y2="356.931104654" /><line stroke="rgb(0%,0%,0%)" x1="642.179255777" x2="641.787922699" y1="405.156801366" y2="402.749717974" /><line stroke="rgb(0%,0%,0%)" x1="641.787922699" x2="640.559520325" y1="402.749717974" y2="399.879148523" /><line stroke="rgb(0%,0%,0%)" x1="640.189638607" x2="639.657684388" y1="398.366372696" y2="393.792537642" /><line stroke="rgb(0%,0%,0%)" x1="637.056590965" x2="635.932465122" y1="382.786805232" y2="378.942686555" /><line stroke="rgb(0%,0%,0%)" x1="635.932465122" x2="633.706746964" y1="378.942686555" y2="372.256296687" /><line stroke="rgb(0%,0%,0%)" x1="651.126238337" x2="650.956119121" y1="440.388630649" y2="439.432458802" /><line stroke="rgb(0%,0%,0%)" x1="650.900499912" x2="650.625159902" y1="439.057412536" y2="438.217102368" /><line stroke="rgb(0%,0%,0%)" x1="528.210706227" x2="530.553973811" y1="224.4397548" y2="224.610708276" /><line stroke="rgb(0%,0%,0%)" x1="547.221024067" x2="548.409234011" y1="235.495009629" y2="236.604396259" /><line stroke="rgb(0%,0%,0%)" x1="547.221024067" x2="546.687270864" y1="235.495009629" y2="234.59382517" /><line stroke="rgb(0%,0%,0%)" x1="572.082485982" x2="564.707492846" y1="253.461772995" y2="249.458502793" /><line stroke="rgb(0%,0%,0%)" x1="557.727275563" x2="561.203117059" y1="245.050366301" y2="247.195902964" /><line stroke="rgb(0%,0%,0%)" x1="594.871908508" x2="590.881259151" y1="282.517161171" y2="273.637076897" /><line stroke="rgb(0%,0%,0%)" x1="606.931528195" x2="606.808541093" y1="315.608605937" y2="315.283629303" /><line stroke="rgb(0%,0%,0%)" x1="606.808541093" x2="606.730980617" y1="315.283629303" y2="314.346365708" /><line stroke="rgb(0%,0%,0%)" x1="602.593757988" x2="602.406910728" y1="292.990083902" y2="292.768192469" /><line stroke="rgb(0%,0%,0%)" x1="602.406910728" x2="602.252985631" y1="292.768192469" y2="292.481821999" /><line stroke="rgb(0%,0%,0%)" x1="616.271634433" x2="615.381879662" y1="334.658480792" y2="333.095259958" /><line stroke="rgb(0%,0%,0%)" x1="650.956119121" x2="650.900499912" y1="439.432458802" y2="439.057412536" /><line stroke="rgb(0%,0%,0%)" x1="528.210706227" x2="525.716607127" y1="224.4397548" y2="223.220087157" /><line stroke="rgb(0%,0%,0%)" x1="525.716607127" x2="523.780524799" y1="223.220087157" y2="222.502254943" /><line stroke="rgb(0%,0%,0%)" x1="546.687270864" x2="540.8790484" y1="234.59382517" y2="230.353140925" /><line stroke="rgb(0%,0%,0%)" x1="540.8790484" x2="535.142803276" y1="230.353140925" y2="226.810016037" /><line stroke="rgb(0%,0%,0%)" x1="553.904233289" x2="548.409234011" y1="243.440959795" y2="236.604396259" /><line stroke="rgb(0%,0%,0%)" x1="564.707492846" x2="563.980909657" y1="249.458502793" y2="249.080829582" /><line stroke="rgb(0%,0%,0%)" x1="561.203117059" x2="563.74997864" y1="247.195902964" y2="248.925940478" /><line stroke="rgb(0%,0%,0%)" x1="504.454755899" x2="498.377028495" y1="211.39733809" y2="206.784435519" /><line stroke="rgb(0%,0%,0%)" x1="523.780524799" x2="513.589142419" y1="222.502254943" y2="217.166440917" /><line stroke="rgb(0%,0%,0%)" x1="513.589142419" x2="510.163476819" y1="217.166440917" y2="214.641502141" /><line stroke="rgb(0%,0%,0%)" x1="504.454755899" x2="508.306350765" y1="211.39733809" y2="213.175482908" /><line stroke="rgb(0%,0%,0%)" x1="509.909427096" x2="508.306350765" y1="214.21484054" y2="213.175482908" /><line stroke="rgb(0%,0%,0%)" x1="535.142803276" x2="530.553973811" y1="226.810016037" y2="224.610708276" /><line stroke="rgb(0%,0%,0%)" x1="563.838796235" x2="563.74997864" y1="248.98643746" y2="248.925940478" /><line stroke="rgb(0%,0%,0%)" x1="557.727275563" x2="553.904233289" y1="245.050366301" y2="243.440959795" /><line stroke="rgb(0%,0%,0%)" x1="563.980909657" x2="563.868151516" y1="249.080829582" y2="248.986388708" /><line stroke="rgb(0%,0%,0%)" x1="447.531727873" x2="449.267519338" y1="177.754758178" y2="178.566273233" /><line stroke="rgb(0%,0%,0%)" x1="470.693530825" x2="477.631710807" y1="188.385089724" y2="193.132761133" /><line stroke="rgb(0%,0%,0%)" x1="498.377028495" x2="497.410438843" y1="206.784435519" y2="206.089611479" /><line stroke="rgb(0%,0%,0%)" x1="477.631710807" x2="495.789494536" y1="193.132761133" y2="204.955839916" /><line stroke="rgb(0%,0%,0%)" x1="497.410438843" x2="495.789494536" y1="206.089611479" y2="204.955839916" /><line stroke="rgb(0%,0%,0%)" x1="510.163476819" x2="509.909427096" y1="214.641502141" y2="214.21484054" /><line stroke="rgb(0%,0%,0%)" x1="563.868151516" x2="563.838796235" y1="248.986388708" y2="248.98643746" /><line stroke="rgb(0%,0%,0%)" x1="432.071681654" x2="432.469129444" y1="172.659448878" y2="172.771894356" /><line stroke="rgb(0%,0%,0%)" x1="432.071681654" x2="430.602076675" y1="172.659448878" y2="172.356977303" /><line stroke="rgb(0%,0%,0%)" x1="447.531727873" x2="432.469129444" y1="177.754758178" y2="172.771894356" /><line stroke="rgb(0%,0%,0%)" x1="449.267519338" x2="460.009700965" y1="178.566273233" y2="183.272871314" /><line stroke="rgb(0%,0%,0%)" x1="470.693530825" x2="470.193548582" y1="188.385089724" y2="188.306574632" /><line stroke="rgb(0%,0%,0%)" x1="470.193548582" x2="460.009700965" y1="188.306574632" y2="183.272871314" /><line stroke="rgb(0%,0%,0%)" x1="385.318030936" x2="385.357519151" y1="174.304407706" y2="174.290785325" /><line stroke="rgb(0%,0%,0%)" x1="404.749640362" x2="409.510234548" y1="169.364226271" y2="169.431637181" /><line stroke="rgb(0%,0%,0%)" x1="430.602076675" x2="416.684724176" y1="172.356977303" y2="170.714206586" /><line stroke="rgb(0%,0%,0%)" x1="409.510234548" x2="416.684724176" y1="169.431637181" y2="170.714206586" /><line stroke="rgb(0%,0%,0%)" x1="375.565019734" x2="373.263466886" y1="184.061677362" y2="187.982311166" /><line stroke="rgb(0%,0%,0%)" x1="375.853466688" x2="376.566443643" y1="204.647993286" y2="208.456698388" /><line stroke="rgb(0%,0%,0%)" x1="378.554569184" x2="375.533609007" y1="215.211496962" y2="220.803637051" /><line stroke="rgb(0%,0%,0%)" x1="376.566443643" x2="378.554569184" y1="208.456698388" y2="215.211496962" /><line stroke="rgb(0%,0%,0%)" x1="375.853466688" x2="371.195456623" y1="204.647993286" y2="199.165975165" /><line stroke="rgb(0%,0%,0%)" x1="385.261280258" x2="375.565019734" y1="174.344780863" y2="184.061677362" /><line stroke="rgb(0%,0%,0%)" x1="385.318030936" x2="385.261280258" y1="174.304407706" y2="174.344780863" /><line stroke="rgb(0%,0%,0%)" x1="392.918875858" x2="385.453166826" y1="171.44942002" y2="174.240369581" /><line stroke="rgb(0%,0%,0%)" x1="394.909244473" x2="392.918875858" y1="170.811106184" y2="171.44942002" /><line stroke="rgb(0%,0%,0%)" x1="385.357519151" x2="385.453166826" y1="174.290785325" y2="174.240369581" /><line stroke="rgb(0%,0%,0%)" x1="400.412669374" x2="394.909244473" y1="170.668921006" y2="170.811106184" /><line stroke="rgb(0%,0%,0%)" x1="404.749640362" x2="400.412669374" y1="169.364226271" y2="170.668921006" /><line stroke="rgb(0%,0%,0%)" x1="355.60982172" x2="351.469498327" y1="224.942673036" y2="227.082131058" /><line stroke="rgb(0%,0%,0%)" x1="351.469498327" x2="343.862926205" y1="227.082131058" y2="231.117440712" /><line stroke="rgb(0%,0%,0%)" x1="362.686524063" x2="355.60982172" y1="222.773551036" y2="224.942673036" /><line stroke="rgb(0%,0%,0%)" x1="364.767387568" x2="362.686524063" y1="222.754987734" y2="222.773551036" /><line stroke="rgb(0%,0%,0%)" x1="364.767387568" x2="369.916310463" y1="222.754987734" y2="222.643786773" /><line stroke="rgb(0%,0%,0%)" x1="372.606951835" x2="369.916310463" y1="223.007821104" y2="222.643786773" /><line stroke="rgb(0%,0%,0%)" x1="373.263466886" x2="371.581388982" y1="187.982311166" y2="196.062895238" /><line stroke="rgb(0%,0%,0%)" x1="371.581388982" x2="371.195456623" y1="196.062895238" y2="199.165975165" /><line stroke="rgb(0%,0%,0%)" x1="374.055208389" x2="372.606951835" y1="222.318150084" y2="223.007821104" /><line stroke="rgb(0%,0%,0%)" x1="375.533609007" x2="374.055208389" y1="220.803637051" y2="222.318150084" /><line stroke="rgb(0%,0%,0%)" x1="284.687413488" x2="285.667578605" y1="350.227667423" y2="349.51129912" /><line stroke="rgb(0%,0%,0%)" x1="302.86465389" x2="300.539415084" y1="338.663261664" y2="340.059742577" /><line stroke="rgb(0%,0%,0%)" x1="302.86465389" x2="303.835321387" y1="338.663261664" y2="337.966161929" /><line stroke="rgb(0%,0%,0%)" x1="303.835321387" x2="304.636680215" y1="337.966161929" y2="337.307032827" /><line stroke="rgb(0%,0%,0%)" x1="311.999511913" x2="311.906014587" y1="333.032964167" y2="333.308983012" /><line stroke="rgb(0%,0%,0%)" x1="311.999511913" x2="312.598329329" y1="333.032964167" y2="331.411601171" /><line stroke="rgb(0%,0%,0%)" x1="299.683605151" x2="298.137067843" y1="261.797338221" y2="263.169685005" /><line stroke="rgb(0%,0%,0%)" x1="315.409475076" x2="299.683605151" y1="254.507521306" y2="261.797338221" /><line stroke="rgb(0%,0%,0%)" x1="315.409475076" x2="321.761020666" y1="254.507521306" y2="248.971185223" /><line stroke="rgb(0%,0%,0%)" x1="333.099401542" x2="321.761020666" y1="241.117357531" y2="248.971185223" /><line stroke="rgb(0%,0%,0%)" x1="333.099401542" x2="337.994171011" y1="241.117357531" y2="236.065939464" /><line stroke="rgb(0%,0%,0%)" x1="340.622683547" x2="337.994171011" y1="233.51486441" y2="236.065939464" /><line stroke="rgb(0%,0%,0%)" x1="343.862926205" x2="340.622683547" y1="231.117440712" y2="233.51486441" /><line stroke="rgb(0%,0%,0%)" x1="275.243340995" x2="275.843753004" y1="322.067635475" y2="323.050997652" /><line stroke="rgb(0%,0%,0%)" x1="275.243340995" x2="274.085758102" y1="322.067635475" y2="321.662773527" /><line stroke="rgb(0%,0%,0%)" x1="275.554251355" x2="273.9108413" y1="318.362304056" y2="320.89880451" /><line stroke="rgb(0%,0%,0%)" x1="267.853905732" x2="265.873092617" y1="370.108663399" y2="374.414881371" /><line stroke="rgb(0%,0%,0%)" x1="270.761541035" x2="267.853905732" y1="365.828709034" y2="370.108663399" /><line stroke="rgb(0%,0%,0%)" x1="278.804993632" x2="279.625397647" y1="322.686130602" y2="322.906604719" /><line stroke="rgb(0%,0%,0%)" x1="286.225421526" x2="286.346573541" y1="291.595702867" y2="291.635390467" /><line stroke="rgb(0%,0%,0%)" x1="270.761541035" x2="273.485259188" y1="365.828709034" y2="362.490886056" /><line stroke="rgb(0%,0%,0%)" x1="284.687413488" x2="284.124464319" y1="350.227667423" y2="350.777166042" /><line stroke="rgb(0%,0%,0%)" x1="284.594006002" x2="280.6382852" y1="323.211173861" y2="323.326447077" /><line stroke="rgb(0%,0%,0%)" x1="284.594006002" x2="289.85475233" y1="323.211173861" y2="325.151581707" /><line stroke="rgb(0%,0%,0%)" x1="286.281183902" x2="285.715380536" y1="309.079970808" y2="309.502439309" /><line stroke="rgb(0%,0%,0%)" x1="287.969898865" x2="286.281183902" y1="307.828194641" y2="309.079970808" /><line stroke="rgb(0%,0%,0%)" x1="286.346573541" x2="286.65729707" y1="291.635390467" y2="291.662761999" /><line stroke="rgb(0%,0%,0%)" x1="286.225421526" x2="286.275196055" y1="291.595702867" y2="291.233415456" /><line stroke="rgb(0%,0%,0%)" x1="292.152960934" x2="285.667578605" y1="344.510786224" y2="349.51129912" /><line stroke="rgb(0%,0%,0%)" x1="308.115015094" x2="303.030526152" y1="328.738581966" y2="327.833642829" /><line stroke="rgb(0%,0%,0%)" x1="289.85475233" x2="297.002124425" y1="325.151581707" y2="325.649244358" /><line stroke="rgb(0%,0%,0%)" x1="289.313227065" x2="292.690511791" y1="306.742098022" y2="303.973161409" /><line stroke="rgb(0%,0%,0%)" x1="300.963041099" x2="299.793675173" y1="296.434487137" y2="297.67670154" /><line stroke="rgb(0%,0%,0%)" x1="301.521208454" x2="297.645369006" y1="295.719847295" y2="293.911144545" /><line stroke="rgb(0%,0%,0%)" x1="301.521208454" x2="300.963041099" y1="295.719847295" y2="296.434487137" /><line stroke="rgb(0%,0%,0%)" x1="286.65729707" x2="297.645369006" y1="291.662761999" y2="293.911144545" /><line stroke="rgb(0%,0%,0%)" x1="287.54997314" x2="286.275196055" y1="287.114239946" y2="291.233415456" /><line stroke="rgb(0%,0%,0%)" x1="287.526744527" x2="290.363796392" y1="286.194007781" y2="274.267676032" /><line stroke="rgb(0%,0%,0%)" x1="290.742413841" x2="290.363796392" y1="272.932104255" y2="274.267676032" /><line stroke="rgb(0%,0%,0%)" x1="298.137067843" x2="294.261695174" y1="263.169685005" y2="268.133463915" /><line stroke="rgb(0%,0%,0%)" x1="294.261695174" x2="290.742413841" y1="268.133463915" y2="272.932104255" /><line stroke="rgb(0%,0%,0%)" x1="300.539415084" x2="297.898930285" y1="340.059742577" y2="341.648090262" /><line stroke="rgb(0%,0%,0%)" x1="308.62930963" x2="304.636680215" y1="335.61577905" y2="337.307032827" /><line stroke="rgb(0%,0%,0%)" x1="311.906014587" x2="308.62930963" y1="333.308983012" y2="335.61577905" /><line stroke="rgb(0%,0%,0%)" x1="308.115015094" x2="312.552361779" y1="328.738581966" y2="331.124373671" /><line stroke="rgb(0%,0%,0%)" x1="298.407430155" x2="303.030526152" y1="326.289578159" y2="327.833642829" /><line stroke="rgb(0%,0%,0%)" x1="299.793675173" x2="299.260301846" y1="297.67670154" y2="298.160775338" /><line stroke="rgb(0%,0%,0%)" x1="312.605758231" x2="312.598329329" y1="331.31567016" y2="331.411601171" /><line stroke="rgb(0%,0%,0%)" x1="312.681645623" x2="312.605758231" y1="331.225717164" y2="331.31567016" /><line stroke="rgb(0%,0%,0%)" x1="312.552361779" x2="312.681645623" y1="331.124373671" y2="331.225717164" /><line stroke="rgb(0%,0%,0%)" x1="224.78291721" x2="222.833661381" y1="418.285687557" y2="426.253029333" /><line stroke="rgb(0%,0%,0%)" x1="224.78291721" x2="226.126622863" y1="418.285687557" y2="416.230107115" /><line stroke="rgb(0%,0%,0%)" x1="231.785680864" x2="226.126622863" y1="408.762047203" y2="416.230107115" /><line stroke="rgb(0%,0%,0%)" x1="252.692424627" x2="246.447714207" y1="395.655834526" y2="400.555988616" /><line stroke="rgb(0%,0%,0%)" x1="252.692424627" x2="257.60653294" y1="395.655834526" y2="388.853758427" /><line stroke="rgb(0%,0%,0%)" x1="258.478622893" x2="258.559757656" y1="384.162903613" y2="386.797504042" /><line stroke="rgb(0%,0%,0%)" x1="262.60384305" x2="258.478622893" y1="378.989093516" y2="384.162903613" /><line stroke="rgb(0%,0%,0%)" x1="265.873092617" x2="262.60384305" y1="374.414881371" y2="378.989093516" /><line stroke="rgb(0%,0%,0%)" x1="279.625397647" x2="280.6382852" y1="322.906604719" y2="323.326447077" /><line stroke="rgb(0%,0%,0%)" x1="275.843753004" x2="278.804993632" y1="323.050997652" y2="322.686130602" /><line stroke="rgb(0%,0%,0%)" x1="273.9108413" x2="274.085758102" y1="320.89880451" y2="321.662773527" /><line stroke="rgb(0%,0%,0%)" x1="284.124464319" x2="277.734090871" y1="350.777166042" y2="357.200867902" /><line stroke="rgb(0%,0%,0%)" x1="277.734090871" x2="273.485259188" y1="357.200867902" y2="362.490886056" /><line stroke="rgb(0%,0%,0%)" x1="275.554251355" x2="278.865962893" y1="318.362304056" y2="314.628200688" /><line stroke="rgb(0%,0%,0%)" x1="279.461627763" x2="278.865962893" y1="314.075472618" y2="314.628200688" /><line stroke="rgb(0%,0%,0%)" x1="282.274180316" x2="279.461627763" y1="312.058280451" y2="314.075472618" /><line stroke="rgb(0%,0%,0%)" x1="294.806579289" x2="292.152960934" y1="342.989948307" y2="344.510786224" /><line stroke="rgb(0%,0%,0%)" x1="297.898930285" x2="294.806579289" y1="341.648090262" y2="342.989948307" /><line stroke="rgb(0%,0%,0%)" x1="283.134284648" x2="282.274180316" y1="311.650144149" y2="312.058280451" /><line stroke="rgb(0%,0%,0%)" x1="285.715380536" x2="283.134284648" y1="309.502439309" y2="311.650144149" /><line stroke="rgb(0%,0%,0%)" x1="289.313227065" x2="287.969898865" y1="306.742098022" y2="307.828194641" /><line stroke="rgb(0%,0%,0%)" x1="287.526744527" x2="287.54997314" y1="286.194007781" y2="287.114239946" /><line stroke="rgb(0%,0%,0%)" x1="297.002124425" x2="298.407430155" y1="325.649244358" y2="326.289578159" /><line stroke="rgb(0%,0%,0%)" x1="293.814571852" x2="292.690511791" y1="303.220056371" y2="303.973161409" /><line stroke="rgb(0%,0%,0%)" x1="294.606666789" x2="299.260301846" y1="302.439815999" y2="298.160775338" /><line stroke="rgb(0%,0%,0%)" x1="294.606666789" x2="293.814571852" y1="302.439815999" y2="303.220056371" /><line stroke="rgb(0%,0%,0%)" x1="235.580545612" x2="246.241336813" y1="406.087268842" y2="400.701584685" /><line stroke="rgb(0%,0%,0%)" x1="235.580545612" x2="231.785680864" y1="406.087268842" y2="408.762047203" /><line stroke="rgb(0%,0%,0%)" x1="246.447714207" x2="246.241336813" y1="400.555988616" y2="400.701584685" /><line stroke="rgb(0%,0%,0%)" x1="258.559757656" x2="257.60653294" y1="386.797504042" y2="388.853758427" /><line stroke="rgb(0%,0%,0%)" x1="222.833661381" x2="219.658897823" y1="426.253029333" y2="433.626129802" /><line stroke="rgb(0%,0%,0%)" x1="219.658897823" x2="218.89539236" y1="433.626129802" y2="435.855347832" /><line stroke="rgb(0%,0%,0%)" x1="218.89539236" x2="218.386002864" y1="435.855347832" y2="438.688936637" /><line stroke="rgb(0%,0%,0%)" x1="602.353161837" x2="607.452599993" y1="602.97718014" y2="593.804375663" /><line stroke="rgb(0%,0%,0%)" x1="628.203422982" x2="628.329969212" y1="542.921587756" y2="542.542724553" /><line stroke="rgb(0%,0%,0%)" x1="628.329969212" x2="628.710498919" y1="542.542724553" y2="541.409173858" /><line stroke="rgb(0%,0%,0%)" x1="632.745965251" x2="632.408659229" y1="526.747805655" y2="528.06027103" /><line stroke="rgb(0%,0%,0%)" x1="632.884815772" x2="635.138219085" y1="526.413083843" y2="518.253749764" /><line stroke="rgb(0%,0%,0%)" x1="637.637094952" x2="639.801381829" y1="514.084810424" y2="510.127209628" /><line stroke="rgb(0%,0%,0%)" x1="643.624903172" x2="645.354205866" y1="501.638658527" y2="495.633415011" /><line stroke="rgb(0%,0%,0%)" x1="648.325452367" x2="648.623456926" y1="483.774614635" y2="481.79875039" /><line stroke="rgb(0%,0%,0%)" x1="651.354573474" x2="650.01460576" y1="464.969299885" y2="472.354234989" /><line stroke="rgb(0%,0%,0%)" x1="651.354573474" x2="652.082990029" y1="464.969299885" y2="461.310270656" /><line stroke="rgb(0%,0%,0%)" x1="586.144787519" x2="589.303462722" y1="637.553066529" y2="631.784939883" /><line stroke="rgb(0%,0%,0%)" x1="600.88291459" x2="600.116771765" y1="606.049258466" y2="607.704495331" /><line stroke="rgb(0%,0%,0%)" x1="600.88291459" x2="602.353161837" y1="606.049258466" y2="602.97718014" /><line stroke="rgb(0%,0%,0%)" x1="624.936351974" x2="627.192642242" y1="552.764314019" y2="546.463705049" /><line stroke="rgb(0%,0%,0%)" x1="628.203422982" x2="627.192642242" y1="542.921587756" y2="546.463705049" /><line stroke="rgb(0%,0%,0%)" x1="629.934634794" x2="632.408659229" y1="536.179833499" y2="528.06027103" /><line stroke="rgb(0%,0%,0%)" x1="632.745965251" x2="632.884815772" y1="526.747805655" y2="526.413083843" /><line stroke="rgb(0%,0%,0%)" x1="635.138219085" x2="637.637094952" y1="518.253749764" y2="514.084810424" /><line stroke="rgb(0%,0%,0%)" x1="641.892834282" x2="643.624903172" y1="505.881466476" y2="501.638658527" /><line stroke="rgb(0%,0%,0%)" x1="639.801381829" x2="641.892834282" y1="510.127209628" y2="505.881466476" /><line stroke="rgb(0%,0%,0%)" x1="646.59471378" x2="646.547314583" y1="488.30314002" y2="491.763433841" /><line stroke="rgb(0%,0%,0%)" x1="648.623456926" x2="648.380991611" y1="481.79875039" y2="478.751636005" /><line stroke="rgb(0%,0%,0%)" x1="652.082990029" x2="652.283595339" y1="461.310270656" y2="457.452385015" /><line stroke="rgb(0%,0%,0%)" x1="578.732821057" x2="577.241424639" y1="653.184968807" y2="657.76070447" /><line stroke="rgb(0%,0%,0%)" x1="578.732821057" x2="584.310091023" y1="653.184968807" y2="642.780747158" /><line stroke="rgb(0%,0%,0%)" x1="586.144787519" x2="584.310091023" y1="637.553066529" y2="642.780747158" /><line stroke="rgb(0%,0%,0%)" x1="591.696535956" x2="593.524598179" y1="626.040805849" y2="621.791581731" /><line stroke="rgb(0%,0%,0%)" x1="591.696535956" x2="590.990131044" y1="626.040805849" y2="628.388567128" /><line stroke="rgb(0%,0%,0%)" x1="593.524598179" x2="595.014024214" y1="621.791581731" y2="616.875015175" /><line stroke="rgb(0%,0%,0%)" x1="595.014024214" x2="600.116771765" y1="616.875015175" y2="607.704495331" /><line stroke="rgb(0%,0%,0%)" x1="615.380791794" x2="611.009725698" y1="577.826885799" y2="586.893557862" /><line stroke="rgb(0%,0%,0%)" x1="622.31341583" x2="621.546848601" y1="557.513512896" y2="562.074580568" /><line stroke="rgb(0%,0%,0%)" x1="622.31341583" x2="624.672500068" y1="557.513512896" y2="553.307277691" /><line stroke="rgb(0%,0%,0%)" x1="624.672500068" x2="624.936351974" y1="553.307277691" y2="552.764314019" /><line stroke="rgb(0%,0%,0%)" x1="645.354205866" x2="646.547314583" y1="495.633415011" y2="491.763433841" /><line stroke="rgb(0%,0%,0%)" x1="646.59471378" x2="648.325452367" y1="488.30314002" y2="483.774614635" /><line stroke="rgb(0%,0%,0%)" x1="648.380991611" x2="648.768867909" y1="478.751636005" y2="477.531371485" /><line stroke="rgb(0%,0%,0%)" x1="648.768867909" x2="650.01460576" y1="477.531371485" y2="472.354234989" /><line stroke="rgb(0%,0%,0%)" x1="589.303462722" x2="590.990131044" y1="631.784939883" y2="628.388567128" /><line stroke="rgb(0%,0%,0%)" x1="607.452599993" x2="611.009725698" y1="593.804375663" y2="586.893557862" /><line stroke="rgb(0%,0%,0%)" x1="615.380791794" x2="618.744078238" y1="577.826885799" y2="569.819052696" /><line stroke="rgb(0%,0%,0%)" x1="618.744078238" x2="621.546848601" y1="569.819052696" y2="562.074580568" /><line stroke="rgb(0%,0%,0%)" x1="628.710498919" x2="628.925352083" y1="541.409173858" y2="538.296727589" /><line stroke="rgb(0%,0%,0%)" x1="628.925352083" x2="629.319468086" y1="538.296727589" y2="537.073618178" /><line stroke="rgb(0%,0%,0%)" x1="629.319468086" x2="629.934634794" y1="537.073618178" y2="536.179833499" /><line stroke="rgb(0%,0%,0%)" x1="540.765821863" x2="542.442294018" y1="701.289265868" y2="700.886826851" /><line stroke="rgb(0%,0%,0%)" x1="548.75397513" x2="542.442294018" y1="699.768638714" y2="700.886826851" /><line stroke="rgb(0%,0%,0%)" x1="548.75397513" x2="553.475096329" y1="699.768638714" y2="697.883193034" /><line stroke="rgb(0%,0%,0%)" x1="557.878336396" x2="556.224513269" y1="694.623677256" y2="696.457944709" /><line stroke="rgb(0%,0%,0%)" x1="553.475096329" x2="556.224513269" y1="697.883193034" y2="696.457944709" /><line stroke="rgb(0%,0%,0%)" x1="557.878336396" x2="558.785849645" y1="694.623677256" y2="693.508573648" /><line stroke="rgb(0%,0%,0%)" x1="558.785849645" x2="561.945974848" y1="693.508573648" y2="690.548598481" /><line stroke="rgb(0%,0%,0%)" x1="561.945974848" x2="563.996958329" y1="690.548598481" y2="687.483557316" /><line stroke="rgb(0%,0%,0%)" x1="563.996958329" x2="565.555115799" y1="687.483557316" y2="684.352326124" /><line stroke="rgb(0%,0%,0%)" x1="565.555115799" x2="566.17562777" y1="684.352326124" y2="682.942867515" /><line stroke="rgb(0%,0%,0%)" x1="566.17562777" x2="571.124866685" y1="682.942867515" y2="672.53261443" /><line stroke="rgb(0%,0%,0%)" x1="571.124866685" x2="571.846430852" y1="672.53261443" y2="670.05294134" /><line stroke="rgb(0%,0%,0%)" x1="571.846430852" x2="572.923947182" y1="670.05294134" y2="668.320043904" /><line stroke="rgb(0%,0%,0%)" x1="575.936998792" x2="572.923947182" y1="659.913825114" y2="668.320043904" /><line stroke="rgb(0%,0%,0%)" x1="575.936998792" x2="577.241424639" y1="659.913825114" y2="657.76070447" /><line stroke="rgb(0%,0%,0%)" x1="468.64266528" x2="468.189477437" y1="729.928202127" y2="730.054910454" /><line stroke="rgb(0%,0%,0%)" x1="468.64266528" x2="468.764480026" y1="729.928202127" y2="729.874658343" /><line stroke="rgb(0%,0%,0%)" x1="481.411129716" x2="482.895237479" y1="727.760935962" y2="727.839235056" /><line stroke="rgb(0%,0%,0%)" x1="490.340452574" x2="491.683953459" y1="726.479244346" y2="725.925567017" /><line stroke="rgb(0%,0%,0%)" x1="502.833000631" x2="498.365304709" y1="719.943436877" y2="722.712800129" /><line stroke="rgb(0%,0%,0%)" x1="502.833000631" x2="507.722247957" y1="719.943436877" y2="718.222186473" /><line stroke="rgb(0%,0%,0%)" x1="507.722247957" x2="509.183671751" y1="718.222186473" y2="716.710165252" /><line stroke="rgb(0%,0%,0%)" x1="509.183671751" x2="513.211699623" y1="716.710165252" y2="714.797543083" /><line stroke="rgb(0%,0%,0%)" x1="513.211699623" x2="516.423745778" y1="714.797543083" y2="712.538958108" /><line stroke="rgb(0%,0%,0%)" x1="523.533479715" x2="520.300570447" y1="710.454463911" y2="711.337098695" /><line stroke="rgb(0%,0%,0%)" x1="516.423745778" x2="520.300570447" y1="712.538958108" y2="711.337098695" /><line stroke="rgb(0%,0%,0%)" x1="523.533479715" x2="526.552457275" y1="710.454463911" y2="709.180011287" /><line stroke="rgb(0%,0%,0%)" x1="526.552457275" x2="533.038637465" y1="709.180011287" y2="705.758265984" /><line stroke="rgb(0%,0%,0%)" x1="538.974788608" x2="533.038637465" y1="702.497847478" y2="705.758265984" /><line stroke="rgb(0%,0%,0%)" x1="538.974788608" x2="540.765821863" y1="702.497847478" y2="701.289265868" /><line stroke="rgb(0%,0%,0%)" x1="468.189477437" x2="467.840813327" y1="730.054910454" y2="730.218147566" /><line stroke="rgb(0%,0%,0%)" x1="468.764480026" x2="481.411129716" y1="729.874658343" y2="727.760935962" /><line stroke="rgb(0%,0%,0%)" x1="482.895237479" x2="490.340452574" y1="727.839235056" y2="726.479244346" /><line stroke="rgb(0%,0%,0%)" x1="491.683953459" x2="498.365304709" y1="725.925567017" y2="722.712800129" /><line stroke="rgb(0%,0%,0%)" x1="423.499336762" x2="430.342635545" y1="725.646120826" y2="728.347969365" /><line stroke="rgb(0%,0%,0%)" x1="450.464322048" x2="439.217409002" y1="733.12741231" y2="732.736971662" /><line stroke="rgb(0%,0%,0%)" x1="467.840813327" x2="462.103178255" y1="730.218147566" y2="731.287973696" /><line stroke="rgb(0%,0%,0%)" x1="450.464322048" x2="462.103178255" y1="733.12741231" y2="731.287973696" /><line stroke="rgb(0%,0%,0%)" x1="393.453807944" x2="393.523049552" y1="684.541057372" y2="684.654169836" /><line stroke="rgb(0%,0%,0%)" x1="390.391877533" x2="393.453807944" y1="682.13237594" y2="684.541057372" /><line stroke="rgb(0%,0%,0%)" x1="390.391877533" x2="390.204545997" y1="682.13237594" y2="682.101494698" /><line stroke="rgb(0%,0%,0%)" x1="390.204545997" x2="389.535904534" y1="682.101494698" y2="682.18436108" /><line stroke="rgb(0%,0%,0%)" x1="401.823178693" x2="397.220105782" y1="698.981248866" y2="692.871473669" /><line stroke="rgb(0%,0%,0%)" x1="393.523049552" x2="397.220105782" y1="684.654169836" y2="692.871473669" /><line stroke="rgb(0%,0%,0%)" x1="411.08877339" x2="414.157828684" y1="707.253192851" y2="707.26979685" /><line stroke="rgb(0%,0%,0%)" x1="407.26431618" x2="411.08877339" y1="703.260400051" y2="707.253192851" /><line stroke="rgb(0%,0%,0%)" x1="401.823178693" x2="407.26431618" y1="698.981248866" y2="703.260400051" /><line stroke="rgb(0%,0%,0%)" x1="422.811303685" x2="423.499336762" y1="722.959574" y2="725.646120826" /><line stroke="rgb(0%,0%,0%)" x1="418.758621176" x2="422.811303685" y1="713.388951306" y2="722.959574" /><line stroke="rgb(0%,0%,0%)" x1="416.643023171" x2="418.758621176" y1="711.841194803" y2="713.388951306" /><line stroke="rgb(0%,0%,0%)" x1="416.643023171" x2="415.544694306" y1="711.841194803" y2="708.171709695" /><line stroke="rgb(0%,0%,0%)" x1="414.157828684" x2="415.544694306" y1="707.26979685" y2="708.171709695" /><line stroke="rgb(0%,0%,0%)" x1="430.342635545" x2="438.421303929" y1="728.347969365" y2="732.459385457" /><line stroke="rgb(0%,0%,0%)" x1="438.421303929" x2="439.217409002" y1="732.459385457" y2="732.736971662" /><line stroke="rgb(0%,0%,0%)" x1="362.973480197" x2="357.264242345" y1="680.55041095" y2="679.07318852" /><line stroke="rgb(0%,0%,0%)" x1="351.234398894" x2="357.264242345" y1="677.116668249" y2="679.07318852" /><line stroke="rgb(0%,0%,0%)" x1="362.973480197" x2="373.239748361" y1="680.55041095" y2="683.172927206" /><line stroke="rgb(0%,0%,0%)" x1="373.239748361" x2="377.500313585" y1="683.172927206" y2="683.538214069" /><line stroke="rgb(0%,0%,0%)" x1="377.500313585" x2="389.535904534" y1="683.538214069" y2="682.18436108" /><line stroke="rgb(0%,0%,0%)" x1="332.322223654" x2="329.095164999" y1="665.207534177" y2="662.839589369" /><line stroke="rgb(0%,0%,0%)" x1="323.559706849" x2="329.095164999" y1="659.507757958" y2="662.839589369" /><line stroke="rgb(0%,0%,0%)" x1="316.500628811" x2="320.468170175" y1="655.987632776" y2="657.890482855" /><line stroke="rgb(0%,0%,0%)" x1="332.322223654" x2="342.808484731" y1="665.207534177" y2="672.434834153" /><line stroke="rgb(0%,0%,0%)" x1="349.176696384" x2="351.234398894" y1="676.10779618" y2="677.116668249" /><line stroke="rgb(0%,0%,0%)" x1="347.12394376" x2="349.176696384" y1="675.172020713" y2="676.10779618" /><line stroke="rgb(0%,0%,0%)" x1="240.714765734" x2="245.402744591" y1="509.860034678" y2="515.937797384" /><line stroke="rgb(0%,0%,0%)" x1="245.402744591" x2="245.407873875" y1="515.937797384" y2="516.293897026" /><line stroke="rgb(0%,0%,0%)" x1="240.714765734" x2="235.665208753" y1="509.860034678" y2="505.439243865" /><line stroke="rgb(0%,0%,0%)" x1="271.17777151" x2="272.872629852" y1="546.977575203" y2="548.657891886" /><line stroke="rgb(0%,0%,0%)" x1="271.17777151" x2="268.875196964" y1="546.977575203" y2="545.053033105" /><line stroke="rgb(0%,0%,0%)" x1="309.581278095" x2="305.884993854" y1="644.328322458" y2="638.808536684" /><line stroke="rgb(0%,0%,0%)" x1="305.884993854" x2="302.833087413" y1="638.808536684" y2="632.707092244" /><line stroke="rgb(0%,0%,0%)" x1="302.48899293" x2="302.833087413" y1="631.435461462" y2="632.707092244" /><line stroke="rgb(0%,0%,0%)" x1="309.581278095" x2="316.500628811" y1="644.328322458" y2="655.987632776" /><line stroke="rgb(0%,0%,0%)" x1="320.468170175" x2="323.559706849" y1="657.890482855" y2="659.507757958" /><line stroke="rgb(0%,0%,0%)" x1="342.808484731" x2="347.12394376" y1="672.434834153" y2="675.172020713" /><line stroke="rgb(0%,0%,0%)" x1="233.780265248" x2="235.665208753" y1="504.349932197" y2="505.439243865" /><line stroke="rgb(0%,0%,0%)" x1="233.780265248" x2="232.487859647" y1="504.349932197" y2="503.867746238" /><line stroke="rgb(0%,0%,0%)" x1="253.379111993" x2="247.749477614" y1="528.995110457" y2="519.903863223" /><line stroke="rgb(0%,0%,0%)" x1="266.571139439" x2="268.875196964" y1="543.904292616" y2="545.053033105" /><line stroke="rgb(0%,0%,0%)" x1="265.735252761" x2="266.571139439" y1="543.215725895" y2="543.904292616" /><line stroke="rgb(0%,0%,0%)" x1="259.093687032" x2="265.735252761" y1="538.407585964" y2="543.215725895" /><line stroke="rgb(0%,0%,0%)" x1="255.322527515" x2="259.093687032" y1="531.631851062" y2="538.407585964" /><line stroke="rgb(0%,0%,0%)" x1="253.379111993" x2="255.322527515" y1="528.995110457" y2="531.631851062" /><line stroke="rgb(0%,0%,0%)" x1="276.263060999" x2="279.060868763" y1="552.288085882" y2="554.451171765" /><line stroke="rgb(0%,0%,0%)" x1="272.872629852" x2="276.263060999" y1="548.657891886" y2="552.288085882" /><line stroke="rgb(0%,0%,0%)" x1="293.630578181" x2="294.648843081" y1="563.914723061" y2="564.165683893" /><line stroke="rgb(0%,0%,0%)" x1="281.648045383" x2="285.015551523" y1="556.946702828" y2="559.355509253" /><line stroke="rgb(0%,0%,0%)" x1="280.451261884" x2="281.648045383" y1="556.296269756" y2="556.946702828" /><line stroke="rgb(0%,0%,0%)" x1="279.060868763" x2="280.451261884" y1="554.451171765" y2="556.296269756" /><line stroke="rgb(0%,0%,0%)" x1="294.648843081" x2="295.560100291" y1="564.165683893" y2="564.715616998" /><line stroke="rgb(0%,0%,0%)" x1="232.487859647" x2="222.066400977" y1="503.867746238" y2="493.648979882" /><line stroke="rgb(0%,0%,0%)" x1="218.0942979" x2="218.708105598" y1="489.583757556" y2="490.896787076" /><line stroke="rgb(0%,0%,0%)" x1="213.149596961" x2="218.0942979" y1="479.825747481" y2="489.583757556" /><line stroke="rgb(0%,0%,0%)" x1="215.11540588" x2="215.269252567" y1="453.428291603" y2="452.07584095" /><line stroke="rgb(0%,0%,0%)" x1="215.11540588" x2="213.149596961" y1="453.428291603" y2="479.825747481" /><line stroke="rgb(0%,0%,0%)" x1="246.314179805" x2="247.749477614" y1="517.494955081" y2="519.903863223" /><line stroke="rgb(0%,0%,0%)" x1="246.106327372" x2="246.314179805" y1="517.086141141" y2="517.494955081" /><line stroke="rgb(0%,0%,0%)" x1="245.407873875" x2="246.106327372" y1="516.293897026" y2="517.086141141" /><line stroke="rgb(0%,0%,0%)" x1="218.708105598" x2="220.322563406" y1="490.896787076" y2="492.468635632" /><line stroke="rgb(0%,0%,0%)" x1="220.322563406" x2="222.066400977" y1="492.468635632" y2="493.648979882" /><line stroke="rgb(0%,0%,0%)" x1="218.386002864" x2="216.054233851" y1="438.688936637" y2="449.257980941" /><line stroke="rgb(0%,0%,0%)" x1="215.269252567" x2="216.054233851" y1="452.07584095" y2="449.257980941" /><line stroke="rgb(0%,0%,0%)" x1="315.90881101" x2="315.769802134" y1="579.341761889" y2="577.627170636" /><line stroke="rgb(0%,0%,0%)" x1="314.188231772" x2="314.929727669" y1="574.717031984" y2="576.124941912" /><line stroke="rgb(0%,0%,0%)" x1="314.188231772" x2="309.249604766" y1="574.717031984" y2="571.236812693" /><line stroke="rgb(0%,0%,0%)" x1="290.630799255" x2="291.672585338" y1="595.855208041" y2="596.640142379" /><line stroke="rgb(0%,0%,0%)" x1="288.351358467" x2="288.044045665" y1="593.362136752" y2="592.585317009" /><line stroke="rgb(0%,0%,0%)" x1="291.672585338" x2="292.278801978" y1="596.640142379" y2="597.114261171" /><line stroke="rgb(0%,0%,0%)" x1="288.351358467" x2="290.630799255" y1="593.362136752" y2="595.855208041" /><line stroke="rgb(0%,0%,0%)" x1="287.867219296" x2="287.344650897" y1="590.498540762" y2="591.460335036" /><line stroke="rgb(0%,0%,0%)" x1="288.018166153" x2="287.867219296" y1="589.519391089" y2="590.498540762" /><line stroke="rgb(0%,0%,0%)" x1="288.018166153" x2="294.954607117" y1="589.519391089" y2="588.238511319" /><line stroke="rgb(0%,0%,0%)" x1="302.48899293" x2="303.410279694" y1="631.435461462" y2="625.468993565" /><line stroke="rgb(0%,0%,0%)" x1="304.400926305" x2="303.410279694" y1="622.986295137" y2="625.468993565" /><line stroke="rgb(0%,0%,0%)" x1="296.205686553" x2="294.954607117" y1="587.749954927" y2="588.238511319" /><line stroke="rgb(0%,0%,0%)" x1="302.080155556" x2="296.205686553" y1="585.325467054" y2="587.749954927" /><line stroke="rgb(0%,0%,0%)" x1="302.080155556" x2="309.380237655" y1="585.325467054" y2="583.478938011" /><line stroke="rgb(0%,0%,0%)" x1="301.283918391" x2="307.092972879" y1="567.66701947" y2="570.093698785" /><line stroke="rgb(0%,0%,0%)" x1="301.283918391" x2="297.899853116" y1="567.66701947" y2="565.519658538" /><line stroke="rgb(0%,0%,0%)" x1="295.560100291" x2="297.899853116" y1="564.715616998" y2="565.519658538" /><line stroke="rgb(0%,0%,0%)" x1="310.633027211" x2="309.380237655" y1="582.730681557" y2="583.478938011" /><line stroke="rgb(0%,0%,0%)" x1="311.093422942" x2="310.633027211" y1="582.162585537" y2="582.730681557" /><line stroke="rgb(0%,0%,0%)" x1="315.90881101" x2="311.093422942" y1="579.341761889" y2="582.162585537" /><line stroke="rgb(0%,0%,0%)" x1="315.829777739" x2="315.769802134" y1="577.038981548" y2="577.627170636" /><line stroke="rgb(0%,0%,0%)" x1="314.929727669" x2="315.829777739" y1="576.124941912" y2="577.038981548" /><line stroke="rgb(0%,0%,0%)" x1="307.842626921" x2="309.249604766" y1="570.419334412" y2="571.236812693" /><line stroke="rgb(0%,0%,0%)" x1="307.092972879" x2="307.842626921" y1="570.093698785" y2="570.419334412" /><line stroke="rgb(0%,0%,0%)" x1="287.344650897" x2="288.044045665" y1="591.460335036" y2="592.585317009" /><line stroke="rgb(0%,0%,0%)" x1="288.716644035" x2="293.630578181" y1="561.800136353" y2="563.914723061" /><line stroke="rgb(0%,0%,0%)" x1="288.716644035" x2="285.015551523" y1="561.800136353" y2="559.355509253" /><line stroke="rgb(0%,0%,0%)" x1="299.875767667" x2="300.33649694" y1="605.788027685" y2="606.328307546" /><line stroke="rgb(0%,0%,0%)" x1="299.875767667" x2="299.833395566" y1="605.788027685" y2="605.722303593" /><line stroke="rgb(0%,0%,0%)" x1="299.833395566" x2="299.654369999" y1="605.722303593" y2="605.570981831" /><line stroke="rgb(0%,0%,0%)" x1="294.71147762" x2="294.652226722" y1="601.588371788" y2="601.158354637" /><line stroke="rgb(0%,0%,0%)" x1="294.652226722" x2="294.019270129" y1="601.158354637" y2="600.620383182" /><line stroke="rgb(0%,0%,0%)" x1="305.959694386" x2="304.400926305" y1="619.142366351" y2="622.986295137" /><line stroke="rgb(0%,0%,0%)" x1="305.959694386" x2="308.196088842" y1="619.142366351" y2="617.044057835" /><line stroke="rgb(0%,0%,0%)" x1="311.289871324" x2="308.196088842" y1="616.345543691" y2="617.044057835" /><line stroke="rgb(0%,0%,0%)" x1="311.737024108" x2="311.289871324" y1="615.363199347" y2="616.345543691" /><line stroke="rgb(0%,0%,0%)" x1="309.273164351" x2="310.827291507" y1="613.580237237" y2="614.437044119" /><line stroke="rgb(0%,0%,0%)" x1="307.189261013" x2="309.273164351" y1="612.213190547" y2="613.580237237" /><line stroke="rgb(0%,0%,0%)" x1="304.985727256" x2="307.189261013" y1="609.320851136" y2="612.213190547" /><line stroke="rgb(0%,0%,0%)" x1="304.985727256" x2="302.912429083" y1="609.320851136" y2="608.079772513" /><line stroke="rgb(0%,0%,0%)" x1="300.33649694" x2="302.912429083" y1="606.328307546" y2="608.079772513" /><line stroke="rgb(0%,0%,0%)" x1="294.71147762" x2="299.654369999" y1="601.588371788" y2="605.570981831" /><line stroke="rgb(0%,0%,0%)" x1="311.20676332" x2="311.737024108" y1="614.87382313" y2="615.363199347" /><line stroke="rgb(0%,0%,0%)" x1="310.827291507" x2="311.20676332" y1="614.437044119" y2="614.87382313" /><line stroke="rgb(0%,0%,0%)" x1="292.278801978" x2="294.019270129" y1="597.114261171" y2="600.620383182" /></svg>