<?xml version="1.0" encoding="utf-8" ?>
<svg baseProfile="full" height="100%" version="1.1" viewBox="0.5 0.5 685.793960571 941.299331665" width="100%" xmlns="http://www.w3.org/2000/svg" xmlns:ev="http://www.w3.org/2001/xml-events" xmlns:xlink="http://www.w3.org/1999/xlink"><defs /><line stroke="rgb(0%,0%,0%)" x1="650.25933264" x2="650.077928766" y1="446.378729636" y2="443.927103272" /><line stroke="rgb(0%,0%,0%)" x1="650.077928766" x2="649.742024136" y1="443.927103272" y2="441.981366457" /><line stroke="rgb(0%,0%,0%)" x1="641.03168034" x2="643.802104339" y1="408.177513628" y2="416.836241895" /><line stroke="rgb(0%,0%,0%)" x1="640.577207496" x2="641.03168034" y1="407.462144421" y2="408.177513628" /><line stroke="rgb(0%,0%,0%)" x1="638.51190827" x2="638.683886797" y1="398.904588172" y2="399.60796156" /><line stroke="rgb(0%,0%,0%)" x1="622.977373852" x2="624.822792963" y1="351.81239261" y2="356.290132646" /><line stroke="rgb(0%,0%,0%)" x1="622.264653033" x2="622.977373852" y1="350.209947169" y2="351.81239261" /><line stroke="rgb(0%,0%,0%)" x1="622.264653033" x2="618.00093828" y1="350.209947169" y2="341.813873316" /><line stroke="rgb(0%,0%,0%)" x1="630.877414018" x2="631.671120853" y1="368.916656328" y2="371.547998573" /><line stroke="rgb(0%,0%,0%)" x1="650.25933264" x2="650.808331824" y1="446.378729636" y2="450.866821625" /><line stroke="rgb(0%,0%,0%)" x1="646.369935472" x2="647.312874027" y1="429.26685197" y2="431.951422577" /><line stroke="rgb(0%,0%,0%)" x1="646.369935472" x2="644.505249831" y1="429.26685197" y2="419.475658381" /><line stroke="rgb(0%,0%,0%)" x1="640.577207496" x2="640.595642039" y1="407.462144421" y2="405.837114894" /><line stroke="rgb(0%,0%,0%)" x1="588.658911282" x2="588.738407619" y1="274.345493099" y2="274.510922927" /><line stroke="rgb(0%,0%,0%)" x1="588.658911282" x2="586.787515951" y1="274.345493099" y2="271.569883536" /><line stroke="rgb(0%,0%,0%)" x1="637.915456481" x2="635.601185119" y1="393.776191768" y2="383.98405931" /><line stroke="rgb(0%,0%,0%)" x1="631.665806229" x2="631.671120853" y1="371.612873962" y2="371.547998573" /><line stroke="rgb(0%,0%,0%)" x1="650.535315041" x2="650.808331824" y1="457.333875282" y2="450.866821625" /><line stroke="rgb(0%,0%,0%)" x1="647.312874027" x2="648.352510468" y1="431.951422577" y2="435.959618123" /><line stroke="rgb(0%,0%,0%)" x1="603.180696846" x2="604.646089718" y1="304.110994023" y2="311.779300239" /><line stroke="rgb(0%,0%,0%)" x1="603.180696846" x2="601.830803441" y1="304.110994023" y2="297.246834259" /><line stroke="rgb(0%,0%,0%)" x1="596.189606064" x2="598.921399856" y1="288.91509345" y2="292.907459385" /><line stroke="rgb(0%,0%,0%)" x1="594.050609356" x2="596.189606064" y1="286.331755801" y2="288.91509345" /><line stroke="rgb(0%,0%,0%)" x1="618.00093828" x2="614.661726808" y1="341.813873316" y2="336.275556438" /><line stroke="rgb(0%,0%,0%)" x1="610.454384782" x2="612.843205091" y1="328.16295308" y2="333.080573811" /><line stroke="rgb(0%,0%,0%)" x1="610.454384782" x2="605.673079725" y1="328.16295308" y2="318.243143433" /><line stroke="rgb(0%,0%,0%)" x1="630.877414018" x2="627.010271012" y1="368.916656328" y2="360.89203948" /><line stroke="rgb(0%,0%,0%)" x1="625.13440955" x2="624.822792963" y1="357.282458926" y2="356.290132646" /><line stroke="rgb(0%,0%,0%)" x1="644.082425703" x2="643.802104339" y1="418.003350974" y2="416.836241895" /><line stroke="rgb(0%,0%,0%)" x1="640.595642039" x2="640.13375608" y1="405.837114894" y2="402.996061876" /><line stroke="rgb(0%,0%,0%)" x1="640.13375608" x2="638.683886797" y1="402.996061876" y2="399.60796156" /><line stroke="rgb(0%,0%,0%)" x1="638.51190827" x2="637.915456481" y1="398.904588172" y2="393.776191768" /><line stroke="rgb(0%,0%,0%)" x1="635.601185119" x2="634.280568066" y1="383.98405931" y2="379.468009164" /><line stroke="rgb(0%,0%,0%)" x1="634.280568066" x2="631.665806229" y1="379.468009164" y2="371.612873962" /><line stroke="rgb(0%,0%,0%)" x1="649.742024136" x2="649.270275684" y1="441.981366457" y2="439.329857714" /><line stroke="rgb(0%,0%,0%)" x1="649.116041045" x2="648.352510468" y1="438.289837074" y2="435.959618123" /><line stroke="rgb(0%,0%,0%)" x1="644.505249831" x2="644.240396524" y1="419.475658381" y2="418.118587338" /><line stroke="rgb(0%,0%,0%)" x1="644.240396524" x2="644.082425703" y1="418.118587338" y2="418.003350974" /><line stroke="rgb(0%,0%,0%)" x1="555.365439717" x2="557.982413543" y1="247.493154181" y2="249.108536613" /><line stroke="rgb(0%,0%,0%)" x1="571.883809481" x2="580.55182569" y1="257.188092714" y2="262.993134677" /><line stroke="rgb(0%,0%,0%)" x1="594.050609356" x2="588.738407619" y1="286.331755801" y2="274.510922927" /><line stroke="rgb(0%,0%,0%)" x1="586.787515951" x2="581.069546923" y1="271.569883536" y2="263.354618133" /><line stroke="rgb(0%,0%,0%)" x1="605.673079725" x2="605.043271449" y1="318.243143433" y2="316.578961012" /><line stroke="rgb(0%,0%,0%)" x1="605.043271449" x2="604.646089718" y1="316.578961012" y2="311.779300239" /><line stroke="rgb(0%,0%,0%)" x1="601.830803441" x2="600.235562288" y1="297.246834259" y2="295.35239735" /><line stroke="rgb(0%,0%,0%)" x1="600.235562288" x2="598.921399856" y1="295.35239735" y2="292.907459385" /><line stroke="rgb(0%,0%,0%)" x1="614.661726808" x2="612.843205091" y1="336.275556438" y2="333.080573811" /><line stroke="rgb(0%,0%,0%)" x1="627.010271012" x2="625.13440955" y1="360.89203948" y2="357.282458926" /><line stroke="rgb(0%,0%,0%)" x1="649.270275684" x2="649.116041045" y1="439.329857714" y2="438.289837074" /><line stroke="rgb(0%,0%,0%)" x1="523.016108642" x2="525.244213144" y1="225.477766362" y2="226.567356974" /><line stroke="rgb(0%,0%,0%)" x1="523.016108642" x2="522.433612598" y1="225.477766362" y2="225.261797021" /><line stroke="rgb(0%,0%,0%)" x1="537.261876638" x2="543.094078595" y1="233.146088391" y2="237.40428048" /><line stroke="rgb(0%,0%,0%)" x1="537.261876638" x2="532.838272021" y1="233.146088391" y2="230.413746367" /><line stroke="rgb(0%,0%,0%)" x1="544.78452009" x2="543.094078595" y1="238.458399991" y2="237.40428048" /><line stroke="rgb(0%,0%,0%)" x1="550.348938573" x2="544.78452009" y1="245.381330926" y2="238.458399991" /><line stroke="rgb(0%,0%,0%)" x1="571.463526646" x2="570.984193971" y1="256.80493251" y2="256.811869753" /><line stroke="rgb(0%,0%,0%)" x1="564.135683099" x2="570.984193971" y1="253.252058395" y2="256.811869753" /><line stroke="rgb(0%,0%,0%)" x1="557.982413543" x2="559.89995498" y1="249.108536613" y2="250.411088211" /><line stroke="rgb(0%,0%,0%)" x1="581.069546923" x2="580.55182569" y1="263.354618133" y2="262.993134677" /><line stroke="rgb(0%,0%,0%)" x1="571.634841033" x2="571.463526646" y1="256.962848212" y2="256.80493251" /><line stroke="rgb(0%,0%,0%)" x1="571.883809481" x2="571.634841033" y1="257.188092714" y2="256.962848212" /><line stroke="rgb(0%,0%,0%)" x1="501.196831288" x2="501.176616011" y1="212.226587467" y2="212.21124438" /><line stroke="rgb(0%,0%,0%)" x1="522.433612598" x2="508.716610879" y1="225.261797021" y2="218.080104936" /><line stroke="rgb(0%,0%,0%)" x1="508.716610879" x2="507.218361011" y1="218.080104936" y2="216.975797152" /><line stroke="rgb(0%,0%,0%)" x1="501.196831288" x2="501.209642171" y1="212.226587467" y2="212.232501798" /><line stroke="rgb(0%,0%,0%)" x1="506.396384842" x2="501.209642171" y1="215.595336416" y2="212.232501798" /><line stroke="rgb(0%,0%,0%)" x1="532.838272021" x2="526.520344433" y1="230.413746367" y2="227.385726414" /><line stroke="rgb(0%,0%,0%)" x1="561.529043991" x2="559.89995498" y1="251.520721605" y2="250.411088211" /><line stroke="rgb(0%,0%,0%)" x1="555.365439717" x2="550.348938573" y1="247.493154181" y2="245.381330926" /><line stroke="rgb(0%,0%,0%)" x1="564.135683099" x2="562.067477467" y1="253.252058395" y2="251.519827395" /><line stroke="rgb(0%,0%,0%)" x1="470.327081285" x2="474.802882731" y1="191.161220476" y2="194.22393067" /><line stroke="rgb(0%,0%,0%)" x1="501.176616011" x2="495.700207465" y1="212.21124438" y2="208.2745787" /><line stroke="rgb(0%,0%,0%)" x1="474.802882731" x2="486.516420702" y1="194.22393067" y2="201.850967335" /><line stroke="rgb(0%,0%,0%)" x1="495.700207465" x2="486.516420702" y1="208.2745787" y2="201.850967335" /><line stroke="rgb(0%,0%,0%)" x1="507.218361011" x2="506.396384842" y1="216.975797152" y2="215.595336416" /><line stroke="rgb(0%,0%,0%)" x1="526.012916854" x2="525.244213144" y1="226.983985647" y2="226.567356974" /><line stroke="rgb(0%,0%,0%)" x1="526.520344433" x2="526.012916854" y1="227.385726414" y2="226.983985647" /><line stroke="rgb(0%,0%,0%)" x1="562.067477467" x2="561.529043991" y1="251.519827395" y2="251.520721605" /><line stroke="rgb(0%,0%,0%)" x1="434.004676656" x2="447.106017024" y1="176.679826142" y2="180.569506832" /><line stroke="rgb(0%,0%,0%)" x1="470.327081285" x2="468.699301691" y1="191.161220476" y2="190.905600868" /><line stroke="rgb(0%,0%,0%)" x1="468.699301691" x2="449.392389633" y1="190.905600868" y2="181.362521382" /><line stroke="rgb(0%,0%,0%)" x1="407.235703548" x2="408.858145062" y1="173.670107435" y2="173.693081512" /><line stroke="rgb(0%,0%,0%)" x1="411.303257871" x2="416.911564832" y1="174.130189522" y2="174.792180547" /><line stroke="rgb(0%,0%,0%)" x1="408.858145062" x2="411.303257871" y1="173.693081512" y2="174.130189522" /><line stroke="rgb(0%,0%,0%)" x1="434.004676656" x2="431.110176909" y1="176.679826142" y2="176.6104182" /><line stroke="rgb(0%,0%,0%)" x1="449.392389633" x2="447.106017024" y1="181.362521382" y2="180.569506832" /><line stroke="rgb(0%,0%,0%)" x1="380.045402593" x2="380.351662469" y1="199.633341191" y2="201.269373807" /><line stroke="rgb(0%,0%,0%)" x1="378.635884505" x2="380.009610358" y1="221.78050361" y2="219.237581174" /><line stroke="rgb(0%,0%,0%)" x1="380.351662469" x2="382.589834927" y1="201.269373807" y2="208.873724649" /><line stroke="rgb(0%,0%,0%)" x1="380.045402593" x2="378.044550286" y1="199.633341191" y2="197.278535502" /><line stroke="rgb(0%,0%,0%)" x1="389.5791825" x2="388.782065369" y1="178.782042673" y2="180.687180955" /><line stroke="rgb(0%,0%,0%)" x1="392.834762507" x2="389.5791825" y1="177.564990206" y2="178.782042673" /><line stroke="rgb(0%,0%,0%)" x1="397.659088452" x2="392.834762507" y1="176.017822523" y2="177.564990206" /><line stroke="rgb(0%,0%,0%)" x1="399.59812777" x2="397.659088452" y1="175.967725964" y2="176.017822523" /><line stroke="rgb(0%,0%,0%)" x1="407.235703548" x2="399.59812777" y1="173.670107435" y2="175.967725964" /><line stroke="rgb(0%,0%,0%)" x1="431.110176909" x2="416.911564832" y1="176.6104182" y2="174.792180547" /><line stroke="rgb(0%,0%,0%)" x1="347.237883305" x2="355.16103103" y1="230.486551445" y2="226.28329747" /><line stroke="rgb(0%,0%,0%)" x1="365.690790794" x2="363.070095184" y1="222.840780663" y2="223.644065615" /><line stroke="rgb(0%,0%,0%)" x1="366.140463765" x2="365.690790794" y1="222.836769148" y2="222.840780663" /><line stroke="rgb(0%,0%,0%)" x1="363.070095184" x2="355.16103103" y1="223.644065615" y2="226.28329747" /><line stroke="rgb(0%,0%,0%)" x1="366.140463765" x2="367.253141964" y1="222.836769148" y2="222.812738708" /><line stroke="rgb(0%,0%,0%)" x1="367.253141964" x2="373.125061876" y1="222.812738708" y2="223.607188856" /><line stroke="rgb(0%,0%,0%)" x1="374.398288112" x2="373.125061876" y1="223.743265506" y2="223.607188856" /><line stroke="rgb(0%,0%,0%)" x1="378.044550286" x2="378.836801928" y1="197.278535502" y2="190.908455078" /><line stroke="rgb(0%,0%,0%)" x1="374.646205958" x2="374.398288112" y1="223.747461238" y2="223.743265506" /><line stroke="rgb(0%,0%,0%)" x1="375.979322708" x2="374.646205958" y1="223.124803885" y2="223.747461238" /><line stroke="rgb(0%,0%,0%)" x1="378.491371224" x2="375.979322708" y1="221.928546871" y2="223.124803885" /><line stroke="rgb(0%,0%,0%)" x1="378.635884505" x2="378.491371224" y1="221.78050361" y2="221.928546871" /><line stroke="rgb(0%,0%,0%)" x1="383.223871028" x2="380.009610358" y1="213.792033794" y2="219.237581174" /><line stroke="rgb(0%,0%,0%)" x1="384.128199427" x2="378.836801928" y1="186.562028507" y2="190.908455078" /><line stroke="rgb(0%,0%,0%)" x1="388.782065369" x2="384.128199427" y1="180.687180955" y2="186.562028507" /><line stroke="rgb(0%,0%,0%)" x1="383.64864557" x2="383.223871028" y1="212.260941199" y2="213.792033794" /><line stroke="rgb(0%,0%,0%)" x1="382.589834927" x2="383.64864557" y1="208.873724649" y2="212.260941199" /><line stroke="rgb(0%,0%,0%)" x1="302.627060745" x2="302.133190135" y1="337.348774853" y2="337.645381326" /><line stroke="rgb(0%,0%,0%)" x1="302.627060745" x2="302.8332263" y1="337.348774853" y2="337.200713901" /><line stroke="rgb(0%,0%,0%)" x1="302.8332263" x2="303.003431429" y1="337.200713901" y2="337.060717747" /><line stroke="rgb(0%,0%,0%)" x1="317.443039494" x2="309.860457929" y1="253.277828078" y2="256.792777115" /><line stroke="rgb(0%,0%,0%)" x1="317.443039494" x2="319.733508923" y1="253.277828078" y2="251.2813363" /><line stroke="rgb(0%,0%,0%)" x1="335.870202668" x2="319.733508923" y1="240.103831012" y2="251.2813363" /><line stroke="rgb(0%,0%,0%)" x1="335.870202668" x2="336.040322775" y1="240.103831012" y2="239.928266506" /><line stroke="rgb(0%,0%,0%)" x1="341.055513773" x2="336.040322775" y1="235.060825901" y2="239.928266506" /><line stroke="rgb(0%,0%,0%)" x1="347.237883305" x2="341.055513773" y1="230.486551445" y2="235.060825901" /><line stroke="rgb(0%,0%,0%)" x1="279.067643751" x2="279.491775346" y1="319.253089583" y2="319.94773753" /><line stroke="rgb(0%,0%,0%)" x1="279.067643751" x2="278.24992613" y1="319.253089583" y2="318.96709473" /><line stroke="rgb(0%,0%,0%)" x1="279.074116809" x2="277.977052825" y1="316.082040027" y2="317.775289551" /><line stroke="rgb(0%,0%,0%)" x1="266.126143218" x2="265.61549209" y1="370.13365375" y2="371.243791325" /><line stroke="rgb(0%,0%,0%)" x1="269.486728759" x2="266.126143218" y1="365.186969845" y2="370.13365375" /><line stroke="rgb(0%,0%,0%)" x1="282.919598778" x2="283.153444108" y1="319.525380829" y2="319.588224065" /><line stroke="rgb(0%,0%,0%)" x1="269.486728759" x2="270.915088774" y1="365.186969845" y2="363.436563742" /><line stroke="rgb(0%,0%,0%)" x1="284.569680307" x2="283.44215433" y1="319.675037476" y2="319.707894584" /><line stroke="rgb(0%,0%,0%)" x1="284.569680307" x2="292.07573532" y1="319.675037476" y2="322.443619563" /><line stroke="rgb(0%,0%,0%)" x1="289.365770852" x2="289.3644505" y1="307.006162986" y2="307.007148853" /><line stroke="rgb(0%,0%,0%)" x1="289.369711615" x2="289.365770852" y1="307.003241858" y2="307.006162986" /><line stroke="rgb(0%,0%,0%)" x1="290.226951381" x2="285.278963227" y1="343.964522577" y2="347.779637449" /><line stroke="rgb(0%,0%,0%)" x1="310.481658039" x2="308.557187248" y1="327.108214586" y2="326.765696595" /><line stroke="rgb(0%,0%,0%)" x1="292.07573532" x2="297.712462778" y1="322.443619563" y2="322.836097902" /><line stroke="rgb(0%,0%,0%)" x1="291.073762198" x2="293.74587965" y1="305.625496956" y2="303.434706292" /><line stroke="rgb(0%,0%,0%)" x1="303.606906506" x2="302.883862443" y1="294.647014027" y2="295.415101867" /><line stroke="rgb(0%,0%,0%)" x1="304.309129718" x2="302.185212299" y1="293.747934779" y2="292.756785551" /><line stroke="rgb(0%,0%,0%)" x1="304.309129718" x2="303.606906506" y1="293.747934779" y2="294.647014027" /><line stroke="rgb(0%,0%,0%)" x1="302.185212299" x2="295.635921164" y1="292.756785551" y2="291.416667653" /><line stroke="rgb(0%,0%,0%)" x1="289.228219266" x2="295.635921164" y1="289.560645174" y2="291.416667653" /><line stroke="rgb(0%,0%,0%)" x1="290.108641435" x2="289.228219266" y1="286.715745091" y2="289.560645174" /><line stroke="rgb(0%,0%,0%)" x1="290.064186424" x2="292.077312738" y1="284.954601158" y2="276.491868217" /><line stroke="rgb(0%,0%,0%)" x1="293.831069614" x2="292.077312738" y1="270.305496732" y2="276.491868217" /><line stroke="rgb(0%,0%,0%)" x1="293.831069614" x2="300.081119819" y1="270.305496732" y2="261.783375253" /><line stroke="rgb(0%,0%,0%)" x1="302.133190135" x2="298.384497078" y1="337.645381326" y2="339.900356603" /><line stroke="rgb(0%,0%,0%)" x1="308.59695917" x2="303.003431429" y1="334.69133308" y2="337.060717747" /><line stroke="rgb(0%,0%,0%)" x1="308.59695917" x2="310.983695706" y1="334.69133308" y2="333.011073655" /><line stroke="rgb(0%,0%,0%)" x1="310.481658039" x2="312.161186539" y1="327.108214586" y2="328.011232865" /><line stroke="rgb(0%,0%,0%)" x1="300.240521478" x2="308.557187248" y1="323.988019084" y2="326.765696595" /><line stroke="rgb(0%,0%,0%)" x1="302.883862443" x2="300.611217593" y1="295.415101867" y2="297.47768687" /><line stroke="rgb(0%,0%,0%)" x1="301.428121894" x2="300.081119819" y1="260.645626328" y2="261.783375253" /><line stroke="rgb(0%,0%,0%)" x1="309.860457929" x2="301.428121894" y1="256.792777115" y2="260.645626328" /><line stroke="rgb(0%,0%,0%)" x1="312.90773672" x2="310.983695706" y1="331.717420679" y2="333.011073655" /><line stroke="rgb(0%,0%,0%)" x1="312.970275128" x2="312.90773672" y1="330.90984879" y2="331.717420679" /><line stroke="rgb(0%,0%,0%)" x1="314.120157207" x2="312.970275128" y1="329.546837954" y2="330.90984879" /><line stroke="rgb(0%,0%,0%)" x1="312.161186539" x2="314.120157207" y1="328.011232865" y2="329.546837954" /><line stroke="rgb(0%,0%,0%)" x1="229.482739881" x2="223.600654003" y1="408.054630935" y2="415.817012897" /><line stroke="rgb(0%,0%,0%)" x1="250.083032011" x2="246.792754516" y1="395.032013751" y2="397.613857526" /><line stroke="rgb(0%,0%,0%)" x1="250.083032011" x2="252.672228131" y1="395.032013751" y2="391.448065672" /><line stroke="rgb(0%,0%,0%)" x1="255.636141602" x2="255.655056859" y1="384.399424407" y2="385.013638879" /><line stroke="rgb(0%,0%,0%)" x1="255.636141602" x2="256.848040214" y1="384.399424407" y2="382.879473219" /><line stroke="rgb(0%,0%,0%)" x1="265.61549209" x2="264.559516057" y1="371.243791325" y2="372.721273632" /><line stroke="rgb(0%,0%,0%)" x1="264.559516057" x2="260.539241919" y1="372.721273632" y2="377.419939728" /><line stroke="rgb(0%,0%,0%)" x1="260.539241919" x2="259.317447474" y1="377.419939728" y2="378.716818484" /><line stroke="rgb(0%,0%,0%)" x1="283.153444108" x2="283.44215433" y1="319.588224065" y2="319.707894584" /><line stroke="rgb(0%,0%,0%)" x1="279.491775346" x2="282.919598778" y1="319.94773753" y2="319.525380829" /><line stroke="rgb(0%,0%,0%)" x1="277.977052825" x2="278.24992613" y1="317.775289551" y2="318.96709473" /><line stroke="rgb(0%,0%,0%)" x1="276.725804036" x2="282.670096101" y1="356.201918662" y2="350.226624682" /><line stroke="rgb(0%,0%,0%)" x1="276.725804036" x2="270.915088774" y1="356.201918662" y2="363.436563742" /><line stroke="rgb(0%,0%,0%)" x1="285.278963227" x2="282.670096101" y1="347.779637449" y2="350.226624682" /><line stroke="rgb(0%,0%,0%)" x1="279.074116809" x2="281.284861134" y1="316.082040027" y2="313.589326596" /><line stroke="rgb(0%,0%,0%)" x1="283.446705988" x2="281.284861134" y1="311.58331215" y2="313.589326596" /><line stroke="rgb(0%,0%,0%)" x1="284.998403919" x2="283.446705988" y1="310.470418132" y2="311.58331215" /><line stroke="rgb(0%,0%,0%)" x1="293.994290132" x2="290.226951381" y1="341.805390837" y2="343.964522577" /><line stroke="rgb(0%,0%,0%)" x1="298.384497078" x2="293.994290132" y1="339.900356603" y2="341.805390837" /><line stroke="rgb(0%,0%,0%)" x1="285.472927358" x2="284.998403919" y1="310.245247493" y2="310.470418132" /><line stroke="rgb(0%,0%,0%)" x1="289.3644505" x2="285.472927358" y1="307.007148853" y2="310.245247493" /><line stroke="rgb(0%,0%,0%)" x1="291.073762198" x2="289.369711615" y1="305.625496956" y2="307.003241858" /><line stroke="rgb(0%,0%,0%)" x1="290.064186424" x2="290.108641435" y1="284.954601158" y2="286.715745091" /><line stroke="rgb(0%,0%,0%)" x1="297.712462778" x2="300.240521478" y1="322.836097902" y2="323.988019084" /><line stroke="rgb(0%,0%,0%)" x1="295.495114915" x2="293.74587965" y1="302.262742323" y2="303.434706292" /><line stroke="rgb(0%,0%,0%)" x1="296.72775403" x2="300.611217593" y1="301.048550998" y2="297.47768687" /><line stroke="rgb(0%,0%,0%)" x1="296.72775403" x2="295.495114915" y1="301.048550998" y2="302.262742323" /><line stroke="rgb(0%,0%,0%)" x1="234.483474724" x2="243.310101354" y1="404.529905223" y2="400.07081562" /><line stroke="rgb(0%,0%,0%)" x1="234.483474724" x2="229.482739881" y1="404.529905223" y2="408.054630935" /><line stroke="rgb(0%,0%,0%)" x1="246.792754516" x2="243.310101354" y1="397.613857526" y2="400.07081562" /><line stroke="rgb(0%,0%,0%)" x1="255.655056859" x2="252.672228131" y1="385.013638879" y2="391.448065672" /><line stroke="rgb(0%,0%,0%)" x1="259.317447474" x2="256.848040214" y1="378.716818484" y2="382.879473219" /><line stroke="rgb(0%,0%,0%)" x1="216.194668526" x2="221.712660009" y1="430.290098284" y2="417.475063446" /><line stroke="rgb(0%,0%,0%)" x1="216.194668526" x2="214.409969222" y1="430.290098284" y2="435.500910856" /><line stroke="rgb(0%,0%,0%)" x1="223.600654003" x2="222.175026815" y1="415.817012897" y2="416.727521674" /><line stroke="rgb(0%,0%,0%)" x1="222.175026815" x2="221.712660009" y1="416.727521674" y2="417.475063446" /><line stroke="rgb(0%,0%,0%)" x1="214.409969222" x2="213.21926775" y1="435.500910856" y2="442.124444295" /><line stroke="rgb(0%,0%,0%)" x1="601.064500656" x2="604.788068495" y1="601.057264794" y2="594.359358339" /><line stroke="rgb(0%,0%,0%)" x1="633.207393995" x2="631.054181161" y1="518.112489116" y2="525.909044111" /><line stroke="rgb(0%,0%,0%)" x1="636.061543563" x2="637.837106467" y1="513.350837457" y2="510.10405477" /><line stroke="rgb(0%,0%,0%)" x1="641.706096621" x2="643.109156834" y1="501.66028262" y2="496.787961382" /><line stroke="rgb(0%,0%,0%)" x1="646.810080054" x2="646.811267801" y1="483.196557548" y2="483.188682409" /><line stroke="rgb(0%,0%,0%)" x1="649.723511806" x2="648.664951236" y1="464.769995623" y2="470.604017622" /><line stroke="rgb(0%,0%,0%)" x1="649.723511806" x2="650.298953317" y1="464.769995623" y2="461.879400552" /><line stroke="rgb(0%,0%,0%)" x1="584.545025685" x2="586.311192847" y1="636.190507642" y2="632.965270726" /><line stroke="rgb(0%,0%,0%)" x1="599.450236651" x2="599.250487615" y1="604.430265812" y2="604.86181977" /><line stroke="rgb(0%,0%,0%)" x1="599.450236651" x2="601.064500656" y1="604.430265812" y2="601.057264794" /><line stroke="rgb(0%,0%,0%)" x1="623.003535274" x2="626.092130235" y1="551.826071096" y2="543.201281374" /><line stroke="rgb(0%,0%,0%)" x1="628.159628188" x2="630.296261157" y1="535.310043254" y2="528.297774248" /><line stroke="rgb(0%,0%,0%)" x1="633.207393995" x2="636.061543563" y1="518.112489116" y2="513.350837457" /><line stroke="rgb(0%,0%,0%)" x1="640.300792071" x2="641.706096621" y1="505.102661472" y2="501.66028262" /><line stroke="rgb(0%,0%,0%)" x1="637.837106467" x2="640.300792071" y1="510.10405477" y2="505.102661472" /><line stroke="rgb(0%,0%,0%)" x1="644.788819001" x2="644.747899233" y1="488.485242999" y2="491.47251767" /><line stroke="rgb(0%,0%,0%)" x1="646.811267801" x2="646.488186672" y1="483.188682409" y2="479.128451526" /><line stroke="rgb(0%,0%,0%)" x1="650.298953317" x2="650.535315041" y1="461.879400552" y2="457.333875282" /><line stroke="rgb(0%,0%,0%)" x1="576.870915206" x2="575.901593985" y1="651.51564422" y2="654.489607164" /><line stroke="rgb(0%,0%,0%)" x1="576.870915206" x2="583.519158669" y1="651.51564422" y2="639.113555208" /><line stroke="rgb(0%,0%,0%)" x1="584.545025685" x2="583.519158669" y1="636.190507642" y2="639.113555208" /><line stroke="rgb(0%,0%,0%)" x1="590.045588972" x2="591.362257299" y1="624.779021814" y2="621.71850301" /><line stroke="rgb(0%,0%,0%)" x1="590.045588972" x2="589.536798319" y1="624.779021814" y2="626.470005236" /><line stroke="rgb(0%,0%,0%)" x1="591.362257299" x2="593.144512492" y1="621.71850301" y2="615.835313064" /><line stroke="rgb(0%,0%,0%)" x1="593.144512492" x2="599.250487615" y1="615.835313064" y2="604.86181977" /><line stroke="rgb(0%,0%,0%)" x1="613.249963395" x2="609.583604724" y1="577.437610153" y2="585.042544743" /><line stroke="rgb(0%,0%,0%)" x1="620.421343168" x2="619.754793376" y1="556.576021289" y2="560.54198617" /><line stroke="rgb(0%,0%,0%)" x1="620.421343168" x2="622.47262719" y1="556.576021289" y2="552.918592304" /><line stroke="rgb(0%,0%,0%)" x1="622.47262719" x2="623.003535274" y1="552.918592304" y2="551.826071096" /><line stroke="rgb(0%,0%,0%)" x1="643.109156834" x2="644.747899233" y1="496.787961382" y2="491.47251767" /><line stroke="rgb(0%,0%,0%)" x1="644.788819001" x2="646.810080054" y1="488.485242999" y2="483.196557548" /><line stroke="rgb(0%,0%,0%)" x1="646.488186672" x2="647.005025597" y1="479.128451526" y2="477.50246869" /><line stroke="rgb(0%,0%,0%)" x1="647.005025597" x2="648.664951236" y1="477.50246869" y2="470.604017622" /><line stroke="rgb(0%,0%,0%)" x1="586.311192847" x2="589.536798319" y1="632.965270726" y2="626.470005236" /><line stroke="rgb(0%,0%,0%)" x1="604.788068495" x2="609.583604724" y1="594.359358339" y2="585.042544743" /><line stroke="rgb(0%,0%,0%)" x1="613.249963395" x2="616.071017608" y1="577.437610153" y2="570.720807501" /><line stroke="rgb(0%,0%,0%)" x1="616.071017608" x2="619.754793376" y1="570.720807501" y2="560.54198617" /><line stroke="rgb(0%,0%,0%)" x1="626.092130235" x2="626.333141216" y1="543.201281374" y2="542.392429729" /><line stroke="rgb(0%,0%,0%)" x1="626.595589991" x2="626.333141216" y1="538.590494983" y2="542.392429729" /><line stroke="rgb(0%,0%,0%)" x1="626.595589991" x2="627.206333122" y1="538.590494983" y2="536.695099553" /><line stroke="rgb(0%,0%,0%)" x1="627.206333122" x2="628.159628188" y1="536.695099553" y2="535.310043254" /><line stroke="rgb(0%,0%,0%)" x1="630.296261157" x2="630.718325731" y1="528.297774248" y2="526.611335378" /><line stroke="rgb(0%,0%,0%)" x1="538.846016704" x2="543.052382592" y1="699.494941366" y2="698.485198527" /><line stroke="rgb(0%,0%,0%)" x1="547.200307788" x2="543.052382592" y1="697.75034506" y2="698.485198527" /><line stroke="rgb(0%,0%,0%)" x1="547.200307788" x2="550.302945141" y1="697.75034506" y2="696.511263506" /><line stroke="rgb(0%,0%,0%)" x1="555.409630113" x2="554.690872743" y1="693.439461592" y2="694.236640702" /><line stroke="rgb(0%,0%,0%)" x1="550.302945141" x2="554.690872743" y1="696.511263506" y2="694.236640702" /><line stroke="rgb(0%,0%,0%)" x1="555.409630113" x2="555.804038575" y1="693.439461592" y2="692.954833627" /><line stroke="rgb(0%,0%,0%)" x1="555.804038575" x2="560.025921197" y1="692.954833627" y2="689.000348626" /><line stroke="rgb(0%,0%,0%)" x1="560.025921197" x2="560.226327604" y1="689.000348626" y2="688.771846244" /><line stroke="rgb(0%,0%,0%)" x1="562.85912327" x2="560.226327604" y1="683.481051142" y2="688.771846244" /><line stroke="rgb(0%,0%,0%)" x1="562.85912327" x2="563.935113236" y1="683.481051142" y2="681.036999468" /><line stroke="rgb(0%,0%,0%)" x1="563.935113236" x2="567.602499066" y1="681.036999468" y2="673.323002366" /><line stroke="rgb(0%,0%,0%)" x1="567.602499066" x2="569.070252837" y1="673.323002366" y2="668.279030261" /><line stroke="rgb(0%,0%,0%)" x1="569.070252837" x2="571.262058818" y1="668.279030261" y2="664.754095318" /><line stroke="rgb(0%,0%,0%)" x1="573.549715388" x2="571.262058818" y1="658.371681693" y2="664.754095318" /><line stroke="rgb(0%,0%,0%)" x1="573.549715388" x2="575.901593985" y1="658.371681693" y2="654.489607164" /><line stroke="rgb(0%,0%,0%)" x1="630.718325731" x2="630.779893689" y1="526.611335378" y2="526.391052788" /><line stroke="rgb(0%,0%,0%)" x1="630.779893689" x2="631.054181161" y1="526.391052788" y2="525.909044111" /><line stroke="rgb(0%,0%,0%)" x1="500.487018137" x2="497.107587339" y1="718.211752979" y2="720.306540008" /><line stroke="rgb(0%,0%,0%)" x1="500.487018137" x2="506.971106867" y1="718.211752979" y2="715.929041634" /><line stroke="rgb(0%,0%,0%)" x1="506.971106867" x2="507.357694543" y1="715.929041634" y2="715.529069515" /><line stroke="rgb(0%,0%,0%)" x1="507.357694543" x2="508.42322115" y1="715.529069515" y2="715.023127184" /><line stroke="rgb(0%,0%,0%)" x1="508.42322115" x2="513.53102819" y1="715.023127184" y2="711.431517451" /><line stroke="rgb(0%,0%,0%)" x1="521.015541302" x2="519.695968351" y1="709.160052354" y2="709.520316404" /><line stroke="rgb(0%,0%,0%)" x1="513.53102819" x2="519.695968351" y1="711.431517451" y2="709.520316404" /><line stroke="rgb(0%,0%,0%)" x1="521.015541302" x2="525.691177001" y1="709.160052354" y2="707.1862463" /><line stroke="rgb(0%,0%,0%)" x1="525.691177001" x2="530.213437884" y1="707.1862463" y2="704.800554801" /><line stroke="rgb(0%,0%,0%)" x1="534.352210371" x2="530.213437884" y1="702.527342735" y2="704.800554801" /><line stroke="rgb(0%,0%,0%)" x1="534.352210371" x2="538.846016704" y1="702.527342735" y2="699.494941366" /><line stroke="rgb(0%,0%,0%)" x1="497.107587339" x2="490.611142316" y1="720.306540008" y2="723.430393654" /><line stroke="rgb(0%,0%,0%)" x1="450.47322817" x2="442.033829964" y1="728.750454893" y2="728.457478137" /><line stroke="rgb(0%,0%,0%)" x1="450.47322817" x2="464.413167704" y1="728.750454893" y2="726.547346392" /><line stroke="rgb(0%,0%,0%)" x1="464.413167704" x2="467.705345045" y1="726.547346392" y2="726.999925795" /><line stroke="rgb(0%,0%,0%)" x1="467.705345045" x2="479.058716491" y1="726.999925795" y2="725.575472643" /><line stroke="rgb(0%,0%,0%)" x1="479.058716491" x2="482.077847631" y1="725.575472643" y2="725.048420565" /><line stroke="rgb(0%,0%,0%)" x1="489.968256525" x2="482.077847631" y1="723.440364418" y2="725.048420565" /><line stroke="rgb(0%,0%,0%)" x1="489.968256525" x2="490.611142316" y1="723.440364418" y2="723.430393654" /><line stroke="rgb(0%,0%,0%)" x1="402.002820118" x2="399.600061168" y1="695.628979577" y2="692.439736799" /><line stroke="rgb(0%,0%,0%)" x1="399.600061168" x2="397.625451163" y1="692.439736799" y2="688.050847545" /><line stroke="rgb(0%,0%,0%)" x1="402.002820118" x2="407.925264445" y1="695.628979577" y2="700.286651749" /><line stroke="rgb(0%,0%,0%)" x1="422.957439656" x2="424.502220448" y1="712.056742267" y2="715.704823278" /><line stroke="rgb(0%,0%,0%)" x1="424.502220448" x2="426.191591911" y1="715.704823278" y2="719.780799335" /><line stroke="rgb(0%,0%,0%)" x1="418.955713976" x2="422.957439656" y1="709.129108128" y2="712.056742267" /><line stroke="rgb(0%,0%,0%)" x1="418.955713976" x2="418.455059187" y1="709.129108128" y2="707.456434897" /><line stroke="rgb(0%,0%,0%)" x1="418.455059187" x2="411.289184283" y1="707.456434897" y2="702.796290092" /><line stroke="rgb(0%,0%,0%)" x1="438.02755571" x2="427.788350752" y1="727.060568982" y2="721.849607219" /><line stroke="rgb(0%,0%,0%)" x1="426.191591911" x2="427.788350752" y1="719.780799335" y2="721.849607219" /><line stroke="rgb(0%,0%,0%)" x1="438.02755571" x2="442.033829964" y1="727.060568982" y2="728.457478137" /><line stroke="rgb(0%,0%,0%)" x1="356.286636261" x2="362.04980326" y1="677.759961179" y2="679.629952191" /><line stroke="rgb(0%,0%,0%)" x1="374.422545415" x2="364.263583847" y1="683.217443427" y2="680.62233862" /><line stroke="rgb(0%,0%,0%)" x1="374.422545415" x2="381.126102246" y1="683.217443427" y2="683.792184363" /><line stroke="rgb(0%,0%,0%)" x1="381.126102246" x2="385.246495111" y1="683.792184363" y2="683.328691858" /><line stroke="rgb(0%,0%,0%)" x1="395.746124479" x2="397.625451163" y1="684.28387655" y2="688.050847545" /><line stroke="rgb(0%,0%,0%)" x1="395.746124479" x2="393.852131503" y1="684.28387655" y2="682.781317388" /><line stroke="rgb(0%,0%,0%)" x1="385.246495111" x2="392.736562285" y1="683.328691858" y2="682.022668208" /><line stroke="rgb(0%,0%,0%)" x1="392.736562285" x2="393.852131503" y1="682.022668208" y2="682.781317388" /><line stroke="rgb(0%,0%,0%)" x1="407.925264445" x2="409.269131474" y1="700.286651749" y2="701.471921111" /><line stroke="rgb(0%,0%,0%)" x1="409.269131474" x2="411.289184283" y1="701.471921111" y2="702.796290092" /><line stroke="rgb(0%,0%,0%)" x1="324.207778374" x2="326.619996435" y1="660.054304644" y2="661.506235755" /><line stroke="rgb(0%,0%,0%)" x1="338.893737907" x2="332.743129995" y1="668.095649038" y2="663.856551033" /><line stroke="rgb(0%,0%,0%)" x1="362.04980326" x2="364.263583847" y1="679.629952191" y2="680.62233862" /><line stroke="rgb(0%,0%,0%)" x1="352.039095887" x2="356.286636261" y1="675.677432327" y2="677.759961179" /><line stroke="rgb(0%,0%,0%)" x1="347.801773142" x2="352.039095887" y1="673.745790578" y2="675.677432327" /><line stroke="rgb(0%,0%,0%)" x1="238.336127697" x2="241.983492018" y1="510.63523624" y2="515.363887013" /><line stroke="rgb(0%,0%,0%)" x1="241.983492018" x2="241.987482728" y1="515.363887013" y2="515.640941404" /><line stroke="rgb(0%,0%,0%)" x1="238.336127697" x2="234.407446588" y1="510.63523624" y2="507.195750871" /><line stroke="rgb(0%,0%,0%)" x1="307.737835588" x2="307.135523123" y1="638.490679035" y2="637.59122554" /><line stroke="rgb(0%,0%,0%)" x1="307.135523123" x2="306.638212534" y1="637.59122554" y2="636.596990302" /><line stroke="rgb(0%,0%,0%)" x1="305.276065909" x2="306.638212534" y1="631.563060196" y2="636.596990302" /><line stroke="rgb(0%,0%,0%)" x1="307.737835588" x2="311.210774159" y1="638.490679035" y2="644.342683098" /><line stroke="rgb(0%,0%,0%)" x1="311.210774159" x2="318.763931006" y1="644.342683098" y2="656.72787583" /><line stroke="rgb(0%,0%,0%)" x1="324.207778374" x2="320.685593565" y1="660.054304644" y2="658.211744648" /><line stroke="rgb(0%,0%,0%)" x1="318.763931006" x2="320.685593565" y1="656.72787583" y2="658.211744648" /><line stroke="rgb(0%,0%,0%)" x1="326.619996435" x2="332.743129995" y1="661.506235755" y2="663.856551033" /><line stroke="rgb(0%,0%,0%)" x1="338.893737907" x2="347.801773142" y1="668.095649038" y2="673.745790578" /><line stroke="rgb(0%,0%,0%)" x1="232.167633788" x2="234.407446588" y1="505.901359707" y2="507.195750871" /><line stroke="rgb(0%,0%,0%)" x1="232.167633788" x2="231.27709422" y1="505.901359707" y2="505.569106678" /><line stroke="rgb(0%,0%,0%)" x1="250.423766801" x2="248.607359676" y1="528.779867359" y2="525.846567408" /><line stroke="rgb(0%,0%,0%)" x1="262.816094005" x2="268.841598414" y1="544.014878379" y2="547.019031188" /><line stroke="rgb(0%,0%,0%)" x1="260.535675768" x2="262.816094005" y1="542.136370027" y2="544.014878379" /><line stroke="rgb(0%,0%,0%)" x1="256.307463395" x2="260.535675768" y1="539.075369416" y2="542.136370027" /><line stroke="rgb(0%,0%,0%)" x1="251.05081175" x2="256.307463395" y1="529.630614335" y2="539.075369416" /><line stroke="rgb(0%,0%,0%)" x1="250.423766801" x2="251.05081175" y1="528.779867359" y2="529.630614335" /><line stroke="rgb(0%,0%,0%)" x1="273.592640852" x2="277.449023282" y1="551.987955385" y2="554.969463444" /><line stroke="rgb(0%,0%,0%)" x1="273.592640852" x2="269.072713394" y1="551.987955385" y2="547.148389912" /><line stroke="rgb(0%,0%,0%)" x1="290.585386648" x2="292.574974577" y1="564.337735191" y2="564.828087596" /><line stroke="rgb(0%,0%,0%)" x1="281.015080463" x2="285.656711558" y1="558.409200182" y2="561.729399267" /><line stroke="rgb(0%,0%,0%)" x1="279.365483618" x2="281.015080463" y1="557.512670153" y2="558.409200182" /><line stroke="rgb(0%,0%,0%)" x1="277.449023282" x2="279.365483618" y1="554.969463444" y2="557.512670153" /><line stroke="rgb(0%,0%,0%)" x1="292.574974577" x2="294.355480168" y1="564.828087596" y2="565.902601967" /><line stroke="rgb(0%,0%,0%)" x1="231.27709422" x2="224.096127737" y1="505.569106678" y2="498.527806508" /><line stroke="rgb(0%,0%,0%)" x1="213.587273946" x2="215.211203444" y1="487.772590387" y2="491.246426534" /><line stroke="rgb(0%,0%,0%)" x1="210.015843335" x2="213.587273946" y1="480.724630093" y2="487.772590387" /><line stroke="rgb(0%,0%,0%)" x1="210.015843335" x2="211.585980072" y1="480.724630093" y2="459.640375753" /><line stroke="rgb(0%,0%,0%)" x1="244.54967275" x2="248.607359676" y1="519.036416223" y2="525.846567408" /><line stroke="rgb(0%,0%,0%)" x1="243.962059438" x2="244.54967275" y1="517.880670725" y2="519.036416223" /><line stroke="rgb(0%,0%,0%)" x1="241.987482728" x2="243.962059438" y1="515.640941404" y2="517.880670725" /><line stroke="rgb(0%,0%,0%)" x1="268.887621721" x2="268.94935975" y1="547.066502002" y2="547.104504907" /><line stroke="rgb(0%,0%,0%)" x1="268.94935975" x2="269.072713394" y1="547.104504907" y2="547.148389912" /><line stroke="rgb(0%,0%,0%)" x1="268.841598414" x2="268.887621721" y1="547.019031188" y2="547.066502002" /><line stroke="rgb(0%,0%,0%)" x1="215.211203444" x2="219.48251784" y1="491.246426534" y2="495.405011125" /><line stroke="rgb(0%,0%,0%)" x1="211.011165977" x2="211.585980072" y1="452.132950858" y2="459.640375753" /><line stroke="rgb(0%,0%,0%)" x1="219.48251784" x2="224.096127737" y1="495.405011125" y2="498.527806508" /><line stroke="rgb(0%,0%,0%)" x1="213.21926775" x2="211.011165977" y1="442.124444295" y2="452.132950858" /><line stroke="rgb(0%,0%,0%)" x1="318.112010499" x2="318.029287997" y1="581.586407353" y2="580.566074824" /><line stroke="rgb(0%,0%,0%)" x1="315.636305999" x2="315.76935533" y1="576.272216427" y2="576.524842874" /><line stroke="rgb(0%,0%,0%)" x1="315.636305999" x2="314.750150023" y1="576.272216427" y2="575.647747901" /><line stroke="rgb(0%,0%,0%)" x1="292.157509201" x2="291.331959973" y1="592.884483544" y2="594.40391817" /><line stroke="rgb(0%,0%,0%)" x1="292.220950879" x2="292.157509201" y1="592.472955279" y2="592.884483544" /><line stroke="rgb(0%,0%,0%)" x1="292.220950879" x2="295.13627791" y1="592.472955279" y2="591.934612426" /><line stroke="rgb(0%,0%,0%)" x1="305.276065909" x2="305.584389607" y1="631.563060196" y2="629.566284034" /><line stroke="rgb(0%,0%,0%)" x1="305.584389607" x2="307.265067833" y1="629.566284034" y2="625.35427024" /><line stroke="rgb(0%,0%,0%)" x1="300.471476893" x2="295.13627791" y1="589.851175127" y2="591.934612426" /><line stroke="rgb(0%,0%,0%)" x1="305.256333003" x2="300.471476893" y1="587.876388025" y2="589.851175127" /><line stroke="rgb(0%,0%,0%)" x1="305.256333003" x2="311.202375517" y1="587.876388025" y2="586.372358339" /><line stroke="rgb(0%,0%,0%)" x1="301.337732092" x2="305.475759968" y1="569.003272149" y2="570.7318954" /><line stroke="rgb(0%,0%,0%)" x1="301.337732092" x2="298.927123537" y1="569.003272149" y2="567.473618844" /><line stroke="rgb(0%,0%,0%)" x1="294.355480168" x2="298.927123537" y1="565.902601967" y2="567.473618844" /><line stroke="rgb(0%,0%,0%)" x1="308.330787036" x2="307.265067833" y1="621.392896059" y2="625.35427024" /><line stroke="rgb(0%,0%,0%)" x1="311.508178801" x2="308.330787036" y1="620.744106856" y2="621.392896059" /><line stroke="rgb(0%,0%,0%)" x1="314.159645141" x2="311.202375517" y1="584.606063215" y2="586.372358339" /><line stroke="rgb(0%,0%,0%)" x1="315.246431268" x2="314.159645141" y1="583.265045407" y2="584.606063215" /><line stroke="rgb(0%,0%,0%)" x1="318.112010499" x2="315.246431268" y1="581.586407353" y2="583.265045407" /><line stroke="rgb(0%,0%,0%)" x1="318.190631825" x2="318.029287997" y1="578.983753505" y2="580.566074824" /><line stroke="rgb(0%,0%,0%)" x1="315.76935533" x2="318.190631825" y1="576.524842874" y2="578.983753505" /><line stroke="rgb(0%,0%,0%)" x1="308.699575787" x2="314.750150023" y1="572.132260405" y2="575.647747901" /><line stroke="rgb(0%,0%,0%)" x1="305.475759968" x2="308.699575787" y1="570.7318954" y2="572.132260405" /><line stroke="rgb(0%,0%,0%)" x1="287.774114463" x2="290.585386648" y1="563.127975634" y2="564.337735191" /><line stroke="rgb(0%,0%,0%)" x1="287.774114463" x2="285.656711558" y1="563.127975634" y2="561.729399267" /><line stroke="rgb(0%,0%,0%)" x1="294.655376801" x2="294.760195765" y1="598.756144716" y2="598.789819267" /><line stroke="rgb(0%,0%,0%)" x1="292.044885348" x2="294.655376801" y1="595.990666022" y2="598.756144716" /><line stroke="rgb(0%,0%,0%)" x1="291.951624747" x2="291.256277055" y1="595.681205588" y2="594.479937503" /><line stroke="rgb(0%,0%,0%)" x1="291.951624747" x2="292.044885348" y1="595.681205588" y2="595.990666022" /><line stroke="rgb(0%,0%,0%)" x1="291.331959973" x2="291.256277055" y1="594.40391817" y2="594.479937503" /><line stroke="rgb(0%,0%,0%)" x1="294.760195765" x2="295.130676177" y1="598.789819267" y2="599.288060074" /><line stroke="rgb(0%,0%,0%)" x1="314.570118955" x2="314.162648825" y1="617.678407725" y2="618.573573743" /><line stroke="rgb(0%,0%,0%)" x1="309.657892575" x2="312.756374294" y1="614.123695048" y2="615.831921077" /><line stroke="rgb(0%,0%,0%)" x1="308.844917698" x2="309.657892575" y1="613.590381148" y2="614.123695048" /><line stroke="rgb(0%,0%,0%)" x1="305.9598771" x2="308.844917698" y1="609.803501735" y2="613.590381148" /><line stroke="rgb(0%,0%,0%)" x1="305.9598771" x2="305.082938306" y1="609.803501735" y2="609.278565185" /><line stroke="rgb(0%,0%,0%)" x1="305.082938306" x2="303.712549382" y1="609.278565185" y2="608.346790565" /><line stroke="rgb(0%,0%,0%)" x1="302.26172842" x2="302.85897416" y1="607.336055511" y2="607.907010925" /><line stroke="rgb(0%,0%,0%)" x1="302.85897416" x2="303.712549382" y1="607.907010925" y2="608.346790565" /><line stroke="rgb(0%,0%,0%)" x1="300.689650485" x2="302.26172842" y1="605.694755054" y2="607.336055511" /><line stroke="rgb(0%,0%,0%)" x1="300.689650485" x2="297.211352738" y1="605.694755054" y2="603.512138377" /><line stroke="rgb(0%,0%,0%)" x1="313.512931742" x2="314.570118955" y1="616.702732563" y2="617.678407725" /><line stroke="rgb(0%,0%,0%)" x1="312.756374294" x2="313.512931742" y1="615.831921077" y2="616.702732563" /><line stroke="rgb(0%,0%,0%)" x1="314.162648825" x2="311.508178801" y1="618.573573743" y2="620.744106856" /><line stroke="rgb(0%,0%,0%)" x1="295.130676177" x2="297.211352738" y1="599.288060074" y2="603.512138377" /></svg>