<?xml version="1.0" encoding="utf-8" ?>
<svg baseProfile="full" height="100%" version="1.1" viewBox="0.5 0.5 685.793960571 941.299331665" width="100%" xmlns="http://www.w3.org/2000/svg" xmlns:ev="http://www.w3.org/2001/xml-events" xmlns:xlink="http://www.w3.org/1999/xlink"><defs /><line stroke="rgb(0%,0%,0%)" x1="648.718532441" x2="648.592038367" y1="446.64041154" y2="444.930876904" /><line stroke="rgb(0%,0%,0%)" x1="648.592038367" x2="648.357809935" y1="444.930876904" y2="443.574102264" /><line stroke="rgb(0%,0%,0%)" x1="639.341828096" x2="641.437252428" y1="408.28760095" y2="414.836674271" /><line stroke="rgb(0%,0%,0%)" x1="638.99808524" x2="639.341828096" y1="407.7465278" y2="408.28760095" /><line stroke="rgb(0%,0%,0%)" x1="621.35074323" x2="622.557536246" y1="352.797943053" y2="355.726115503" /><line stroke="rgb(0%,0%,0%)" x1="620.884666716" x2="621.35074323" y1="351.750040192" y2="352.797943053" /><line stroke="rgb(0%,0%,0%)" x1="620.884666716" x2="618.096453919" y1="351.750040192" y2="346.259513287" /><line stroke="rgb(0%,0%,0%)" x1="629.305475261" x2="629.627018533" y1="369.87717056" y2="370.943169184" /><line stroke="rgb(0%,0%,0%)" x1="648.718532441" x2="649.101353059" y1="446.64041154" y2="449.769986591" /><line stroke="rgb(0%,0%,0%)" x1="644.683615226" x2="645.347687963" y1="428.988694686" y2="430.879327053" /><line stroke="rgb(0%,0%,0%)" x1="644.683615226" x2="643.370394028" y1="428.988694686" y2="422.09316083" /><line stroke="rgb(0%,0%,0%)" x1="638.99808524" x2="639.0120283" y1="407.7465278" y2="406.517428423" /><line stroke="rgb(0%,0%,0%)" x1="636.173228573" x2="634.145779273" y1="393.759845893" y2="385.181313388" /><line stroke="rgb(0%,0%,0%)" x1="629.624865494" x2="629.627018533" y1="370.969451236" y2="370.943169184" /><line stroke="rgb(0%,0%,0%)" x1="648.787034744" x2="649.101353059" y1="457.215365549" y2="449.769986591" /><line stroke="rgb(0%,0%,0%)" x1="645.347687963" x2="646.079861034" y1="430.879327053" y2="433.702133879" /><line stroke="rgb(0%,0%,0%)" x1="601.783890894" x2="602.56119882" y1="305.144632619" y2="309.212234771" /><line stroke="rgb(0%,0%,0%)" x1="601.783890894" x2="601.067848894" y1="305.144632619" y2="301.503584616" /><line stroke="rgb(0%,0%,0%)" x1="594.26592018" x2="595.589814081" y1="291.398298864" y2="293.333096772" /><line stroke="rgb(0%,0%,0%)" x1="593.229310204" x2="594.26592018" y1="290.146350431" y2="291.398298864" /><line stroke="rgb(0%,0%,0%)" x1="618.096453919" x2="613.051819184" y1="346.259513287" y2="337.892632084" /><line stroke="rgb(0%,0%,0%)" x1="608.342234149" x2="610.30453052" y1="329.026308263" y2="333.065887664" /><line stroke="rgb(0%,0%,0%)" x1="608.342234149" x2="604.414631255" y1="329.026308263" y2="320.877680928" /><line stroke="rgb(0%,0%,0%)" x1="629.305475261" x2="627.73883408" y1="369.87717056" y2="366.626270555" /><line stroke="rgb(0%,0%,0%)" x1="623.295636611" x2="622.557536246" y1="358.076556463" y2="355.726115503" /><line stroke="rgb(0%,0%,0%)" x1="642.207933454" x2="641.437252428" y1="418.045380206" y2="414.836674271" /><line stroke="rgb(0%,0%,0%)" x1="639.0120283" x2="638.47958946" y1="406.517428423" y2="403.242405778" /><line stroke="rgb(0%,0%,0%)" x1="638.47958946" x2="636.863089664" y1="403.242405778" y2="399.464918018" /><line stroke="rgb(0%,0%,0%)" x1="636.173228573" x2="636.813856825" y1="393.759845893" y2="399.268079211" /><line stroke="rgb(0%,0%,0%)" x1="634.145779273" x2="632.62867101" y1="385.181313388" y2="379.993331772" /><line stroke="rgb(0%,0%,0%)" x1="632.62867101" x2="629.624865494" y1="379.993331772" y2="370.969451236" /><line stroke="rgb(0%,0%,0%)" x1="648.357809935" x2="647.584432247" y1="443.574102264" y2="439.227256625" /><line stroke="rgb(0%,0%,0%)" x1="647.331582179" x2="646.079861034" y1="437.522261612" y2="433.702133879" /><line stroke="rgb(0%,0%,0%)" x1="643.370394028" x2="642.642238971" y1="422.09316083" y2="418.36219687" /><line stroke="rgb(0%,0%,0%)" x1="642.642238971" x2="642.207933454" y1="418.36219687" y2="418.045380206" /><line stroke="rgb(0%,0%,0%)" x1="553.003603871" x2="554.761710028" y1="249.935942061" y2="251.021170263" /><line stroke="rgb(0%,0%,0%)" x1="569.892995288" x2="577.633091283" y1="260.002493689" y2="265.18609983" /><line stroke="rgb(0%,0%,0%)" x1="593.229310204" x2="590.429895136" y1="290.146350431" y2="283.917027957" /><line stroke="rgb(0%,0%,0%)" x1="579.714945986" x2="586.111126833" y1="266.63969297" y2="275.829376049" /><line stroke="rgb(0%,0%,0%)" x1="604.414631255" x2="603.278001805" y1="320.877680928" y2="317.874292721" /><line stroke="rgb(0%,0%,0%)" x1="603.278001805" x2="602.56119882" y1="317.874292721" y2="309.212234771" /><line stroke="rgb(0%,0%,0%)" x1="601.067848894" x2="598.064213848" y1="301.503584616" y2="297.936602231" /><line stroke="rgb(0%,0%,0%)" x1="598.064213848" x2="595.589814081" y1="297.936602231" y2="293.333096772" /><line stroke="rgb(0%,0%,0%)" x1="613.051819184" x2="610.30453052" y1="337.892632084" y2="333.065887664" /><line stroke="rgb(0%,0%,0%)" x1="627.73883408" x2="623.295636611" y1="366.626270555" y2="358.076556463" /><line stroke="rgb(0%,0%,0%)" x1="636.863089664" x2="636.813856825" y1="399.464918018" y2="399.268079211" /><line stroke="rgb(0%,0%,0%)" x1="647.584432247" x2="647.331582179" y1="439.227256625" y2="437.522261612" /><line stroke="rgb(0%,0%,0%)" x1="533.644704876" x2="537.746285497" y1="235.939035857" y2="238.933671208" /><line stroke="rgb(0%,0%,0%)" x1="533.644704876" x2="530.533740766" y1="235.939035857" y2="234.017476697" /><line stroke="rgb(0%,0%,0%)" x1="542.368151829" x2="537.746285497" y1="241.815758219" y2="238.933671208" /><line stroke="rgb(0%,0%,0%)" x1="546.793643856" x2="542.368151829" y1="247.321702057" y2="241.815758219" /><line stroke="rgb(0%,0%,0%)" x1="568.361821735" x2="566.615517928" y1="258.606565229" y2="258.631838977" /><line stroke="rgb(0%,0%,0%)" x1="564.290456541" x2="566.615517928" y1="257.423287207" y2="258.631838977" /><line stroke="rgb(0%,0%,0%)" x1="554.761710028" x2="556.049931321" y1="251.021170263" y2="251.896235943" /><line stroke="rgb(0%,0%,0%)" x1="579.714945986" x2="577.633091283" y1="266.63969297" y2="265.18609983" /><line stroke="rgb(0%,0%,0%)" x1="568.985953956" x2="568.361821735" y1="259.181883385" y2="258.606565229" /><line stroke="rgb(0%,0%,0%)" x1="569.892995288" x2="568.985953956" y1="260.002493689" y2="259.181883385" /><line stroke="rgb(0%,0%,0%)" x1="590.429895136" x2="587.494603927" y1="283.917027957" y2="277.92557958" /><line stroke="rgb(0%,0%,0%)" x1="587.494603927" x2="586.111126833" y1="277.92557958" y2="275.829376049" /><line stroke="rgb(0%,0%,0%)" x1="517.967788807" x2="506.462284619" y1="226.796220109" y2="220.576049636" /><line stroke="rgb(0%,0%,0%)" x1="502.883342588" x2="500.562636344" y1="216.975832291" y2="215.47119792" /><line stroke="rgb(0%,0%,0%)" x1="530.533740766" x2="526.09056655" y1="234.017476697" y2="231.887977745" /><line stroke="rgb(0%,0%,0%)" x1="559.219291747" x2="556.049931321" y1="254.055005749" y2="251.896235943" /><line stroke="rgb(0%,0%,0%)" x1="553.003603871" x2="546.793643856" y1="249.935942061" y2="247.321702057" /><line stroke="rgb(0%,0%,0%)" x1="564.290456541" x2="560.266803418" y1="257.423287207" y2="254.053266082" /><line stroke="rgb(0%,0%,0%)" x1="469.960631745" x2="471.974054655" y1="193.937351228" y2="195.315100206" /><line stroke="rgb(0%,0%,0%)" x1="493.989976087" x2="498.232812012" y1="210.45954592" y2="213.50946932" /><line stroke="rgb(0%,0%,0%)" x1="471.974054655" x2="477.243346867" y1="195.315100206" y2="198.746094753" /><line stroke="rgb(0%,0%,0%)" x1="493.989976087" x2="477.243346867" y1="210.45954592" y2="198.746094753" /><line stroke="rgb(0%,0%,0%)" x1="504.488923745" x2="503.872683226" y1="219.348744545" y2="218.637371832" /><line stroke="rgb(0%,0%,0%)" x1="502.883342588" x2="503.872683226" y1="216.975832291" y2="218.637371832" /><line stroke="rgb(0%,0%,0%)" x1="500.562636344" x2="498.232812012" y1="215.47119792" y2="213.50946932" /><line stroke="rgb(0%,0%,0%)" x1="522.621466081" x2="520.178212144" y1="229.141420128" y2="227.817204265" /><line stroke="rgb(0%,0%,0%)" x1="520.178212144" x2="517.967788807" y1="227.817204265" y2="226.796220109" /><line stroke="rgb(0%,0%,0%)" x1="506.462284619" x2="504.488923745" y1="220.576049636" y2="219.348744545" /><line stroke="rgb(0%,0%,0%)" x1="526.09056655" x2="522.621466081" y1="231.887977745" y2="229.141420128" /><line stroke="rgb(0%,0%,0%)" x1="560.266803418" x2="559.219291747" y1="254.053266082" y2="254.055005749" /><line stroke="rgb(0%,0%,0%)" x1="436.037524122" x2="444.889329857" y1="180.832103982" y2="183.460132632" /><line stroke="rgb(0%,0%,0%)" x1="469.960631745" x2="467.205054801" y1="193.937351228" y2="193.504627104" /><line stroke="rgb(0%,0%,0%)" x1="467.205054801" x2="451.57541467" y1="193.504627104" y2="185.779160823" /><line stroke="rgb(0%,0%,0%)" x1="436.037524122" x2="430.050589731" y1="180.832103982" y2="180.688541768" /><line stroke="rgb(0%,0%,0%)" x1="451.57541467" x2="444.889329857" y1="185.779160823" y2="183.460132632" /><line stroke="rgb(0%,0%,0%)" x1="392.252897186" x2="393.254390442" y1="187.097176156" y2="184.703571669" /><line stroke="rgb(0%,0%,0%)" x1="397.205417003" x2="393.254390442" y1="183.989625901" y2="184.703571669" /><line stroke="rgb(0%,0%,0%)" x1="400.491787228" x2="397.205417003" y1="181.802092992" y2="183.989625901" /><line stroke="rgb(0%,0%,0%)" x1="401.500007321" x2="400.491787228" y1="180.955372996" y2="181.802092992" /><line stroke="rgb(0%,0%,0%)" x1="409.769434967" x2="401.500007321" y1="178.493740364" y2="180.955372996" /><line stroke="rgb(0%,0%,0%)" x1="410.444801422" x2="409.769434967" y1="178.177875068" y2="178.493740364" /><line stroke="rgb(0%,0%,0%)" x1="430.050589731" x2="410.444801422" y1="180.688541768" y2="178.177875068" /><line stroke="rgb(0%,0%,0%)" x1="350.612840405" x2="354.304302862" y1="229.855662178" y2="227.897330113" /><line stroke="rgb(0%,0%,0%)" x1="354.304302862" x2="360.638751099" y1="227.897330113" y2="225.78354304" /><line stroke="rgb(0%,0%,0%)" x1="373.446354593" x2="368.443805983" y1="223.489726994" y2="222.955077267" /><line stroke="rgb(0%,0%,0%)" x1="378.17501446" x2="373.446354593" y1="223.569754261" y2="223.489726994" /><line stroke="rgb(0%,0%,0%)" x1="378.17501446" x2="381.129664774" y1="223.569754261" y2="222.189729034" /><line stroke="rgb(0%,0%,0%)" x1="386.589989323" x2="385.755727057" y1="216.31173865" y2="217.725132012" /><line stroke="rgb(0%,0%,0%)" x1="392.252897186" x2="386.342560604" y1="187.097176156" y2="194.558140186" /><line stroke="rgb(0%,0%,0%)" x1="385.755727057" x2="381.129664774" y1="217.725132012" y2="222.189729034" /><line stroke="rgb(0%,0%,0%)" x1="388.725302862" x2="386.589989323" y1="208.615037396" y2="216.31173865" /><line stroke="rgb(0%,0%,0%)" x1="388.725302862" x2="385.284242272" y1="208.615037396" y2="197.606820331" /><line stroke="rgb(0%,0%,0%)" x1="386.342560604" x2="385.284242272" y1="194.558140186" y2="197.606820331" /><line stroke="rgb(0%,0%,0%)" x1="341.488344" x2="338.503159792" y1="236.606787392" y2="239.504026368" /><line stroke="rgb(0%,0%,0%)" x1="350.612840405" x2="341.488344" y1="229.855662178" y2="236.606787392" /><line stroke="rgb(0%,0%,0%)" x1="365.324785269" x2="360.638751099" y1="223.879517501" y2="225.78354304" /><line stroke="rgb(0%,0%,0%)" x1="368.443805983" x2="365.324785269" y1="222.955077267" y2="223.879517501" /><line stroke="rgb(0%,0%,0%)" x1="282.891946506" x2="283.139797688" y1="316.438543692" y2="316.844477408" /><line stroke="rgb(0%,0%,0%)" x1="282.891946506" x2="282.414094158" y1="316.438543692" y2="316.271415934" /><line stroke="rgb(0%,0%,0%)" x1="282.593982262" x2="282.04326435" y1="313.801775999" y2="314.651774592" /><line stroke="rgb(0%,0%,0%)" x1="268.211916484" x2="267.733710323" y1="364.545230656" y2="365.249136178" /><line stroke="rgb(0%,0%,0%)" x1="268.211916484" x2="268.34491836" y1="364.545230656" y2="364.382241428" /><line stroke="rgb(0%,0%,0%)" x1="294.29671831" x2="287.411381625" y1="319.735657419" y2="317.196025112" /><line stroke="rgb(0%,0%,0%)" x1="288.300941828" x2="286.368783778" y1="343.41825893" y2="344.908037135" /><line stroke="rgb(0%,0%,0%)" x1="294.29671831" x2="298.422801131" y1="319.735657419" y2="320.022951446" /><line stroke="rgb(0%,0%,0%)" x1="292.834297331" x2="294.801247509" y1="304.50889589" y2="302.896251176" /><line stroke="rgb(0%,0%,0%)" x1="306.250771912" x2="305.974049713" y1="292.859540917" y2="293.153502195" /><line stroke="rgb(0%,0%,0%)" x1="307.097050982" x2="306.725055591" y1="291.776022264" y2="291.602426557" /><line stroke="rgb(0%,0%,0%)" x1="307.097050982" x2="306.250771912" y1="291.776022264" y2="292.859540917" /><line stroke="rgb(0%,0%,0%)" x1="306.725055591" x2="305.577974213" y1="291.602426557" y2="291.367710425" /><line stroke="rgb(0%,0%,0%)" x1="292.295017003" x2="305.577974213" y1="287.520236313" y2="291.367710425" /><line stroke="rgb(0%,0%,0%)" x1="292.66730973" x2="292.295017003" y1="286.317250237" y2="287.520236313" /><line stroke="rgb(0%,0%,0%)" x1="292.601628322" x2="293.790829084" y1="283.715194534" y2="278.716060402" /><line stroke="rgb(0%,0%,0%)" x1="296.919725387" x2="293.790829084" y1="267.67888921" y2="278.716060402" /><line stroke="rgb(0%,0%,0%)" x1="296.919725387" x2="301.426713021" y1="267.67888921" y2="261.533483195" /><line stroke="rgb(0%,0%,0%)" x1="298.870063871" x2="301.641258869" y1="338.152622943" y2="336.485648317" /><line stroke="rgb(0%,0%,0%)" x1="304.418213832" x2="307.380408867" y1="334.936462119" y2="333.750898602" /><line stroke="rgb(0%,0%,0%)" x1="302.073612802" x2="311.685802495" y1="321.686460009" y2="324.89682867" /><line stroke="rgb(0%,0%,0%)" x1="305.974049713" x2="301.962133339" y1="293.153502195" y2="296.794598402" /><line stroke="rgb(0%,0%,0%)" x1="304.720269358" x2="301.426713021" y1="258.751571975" y2="261.533483195" /><line stroke="rgb(0%,0%,0%)" x1="304.720269358" x2="315.595430802" y1="258.751571975" y2="253.782562553" /><line stroke="rgb(0%,0%,0%)" x1="313.322164293" x2="311.93301978" y1="330.667092028" y2="331.60110067" /><line stroke="rgb(0%,0%,0%)" x1="313.334792025" x2="313.322164293" y1="330.504027421" y2="330.667092028" /><line stroke="rgb(0%,0%,0%)" x1="311.93301978" x2="307.380408867" y1="331.60110067" y2="333.750898602" /><line stroke="rgb(0%,0%,0%)" x1="315.55866879" x2="313.334792025" y1="327.867958744" y2="330.504027421" /><line stroke="rgb(0%,0%,0%)" x1="315.55866879" x2="313.180793857" y1="327.867958744" y2="326.003981448" /><line stroke="rgb(0%,0%,0%)" x1="312.942647956" x2="313.180793857" y1="325.630080525" y2="326.003981448" /><line stroke="rgb(0%,0%,0%)" x1="312.454035413" x2="312.942647956" y1="325.194104072" y2="325.630080525" /><line stroke="rgb(0%,0%,0%)" x1="319.815636191" x2="315.595430802" y1="252.084090218" y2="253.782562553" /><line stroke="rgb(0%,0%,0%)" x1="334.160022163" x2="319.815636191" y1="242.105622214" y2="252.084090218" /><line stroke="rgb(0%,0%,0%)" x1="338.503159792" x2="334.160022163" y1="239.504026368" y2="242.105622214" /><line stroke="rgb(0%,0%,0%)" x1="227.179798899" x2="224.336490169" y1="407.347214666" y2="411.099429246" /><line stroke="rgb(0%,0%,0%)" x1="247.473639395" x2="247.137794824" y1="394.408192975" y2="394.671726436" /><line stroke="rgb(0%,0%,0%)" x1="247.473639395" x2="247.737923322" y1="394.408192975" y2="394.042372917" /><line stroke="rgb(0%,0%,0%)" x1="258.311002519" x2="261.569666426" y1="375.851508179" y2="372.042968489" /><line stroke="rgb(0%,0%,0%)" x1="258.311002519" x2="255.566388161" y1="375.851508179" y2="378.764790417" /><line stroke="rgb(0%,0%,0%)" x1="267.733710323" x2="264.203278544" y1="365.249136178" y2="369.224934935" /><line stroke="rgb(0%,0%,0%)" x1="283.139797688" x2="285.671055542" y1="316.844477408" y2="316.532590364" /><line stroke="rgb(0%,0%,0%)" x1="282.04326435" x2="282.414094158" y1="314.651774592" y2="316.271415934" /><line stroke="rgb(0%,0%,0%)" x1="275.717517201" x2="280.245491862" y1="355.202969423" y2="350.651379522" /><line stroke="rgb(0%,0%,0%)" x1="275.717517201" x2="268.34491836" y1="355.202969423" y2="364.382241428" /><line stroke="rgb(0%,0%,0%)" x1="286.368783778" x2="280.245491862" y1="344.908037135" y2="350.651379522" /><line stroke="rgb(0%,0%,0%)" x1="282.593982262" x2="283.703759374" y1="313.801775999" y2="312.550452505" /><line stroke="rgb(0%,0%,0%)" x1="287.431784213" x2="283.703759374" y1="309.091151683" y2="312.550452505" /><line stroke="rgb(0%,0%,0%)" x1="287.722627521" x2="287.431784213" y1="308.882555814" y2="309.091151683" /><line stroke="rgb(0%,0%,0%)" x1="293.182000974" x2="288.300941828" y1="340.620833367" y2="343.41825893" /><line stroke="rgb(0%,0%,0%)" x1="298.870063871" x2="293.182000974" y1="338.152622943" y2="340.620833367" /><line stroke="rgb(0%,0%,0%)" x1="285.671055542" x2="287.411381625" y1="316.532590364" y2="317.196025112" /><line stroke="rgb(0%,0%,0%)" x1="287.811570069" x2="287.722627521" y1="308.840350838" y2="308.882555814" /><line stroke="rgb(0%,0%,0%)" x1="287.811570069" x2="288.542944319" y1="308.840350838" y2="308.231781422" /><line stroke="rgb(0%,0%,0%)" x1="292.834297331" x2="291.578546593" y1="304.50889589" y2="305.524185104" /><line stroke="rgb(0%,0%,0%)" x1="291.578546593" x2="288.542944319" y1="305.524185104" y2="308.231781422" /><line stroke="rgb(0%,0%,0%)" x1="292.601628322" x2="292.66730973" y1="283.715194534" y2="286.317250237" /><line stroke="rgb(0%,0%,0%)" x1="304.418213832" x2="301.641258869" y1="334.936462119" y2="336.485648317" /><line stroke="rgb(0%,0%,0%)" x1="298.422801131" x2="302.073612802" y1="320.022951446" y2="321.686460009" /><line stroke="rgb(0%,0%,0%)" x1="297.175657978" x2="294.801247509" y1="301.305428275" y2="302.896251176" /><line stroke="rgb(0%,0%,0%)" x1="298.84884127" x2="301.962133339" y1="299.657285997" y2="296.794598402" /><line stroke="rgb(0%,0%,0%)" x1="298.84884127" x2="297.175657978" y1="299.657285997" y2="301.305428275" /><line stroke="rgb(0%,0%,0%)" x1="311.685802495" x2="312.454035413" y1="324.89682867" y2="325.194104072" /><line stroke="rgb(0%,0%,0%)" x1="233.386403835" x2="240.378865895" y1="402.972541605" y2="399.440046556" /><line stroke="rgb(0%,0%,0%)" x1="233.386403835" x2="227.179798899" y1="402.972541605" y2="407.347214666" /><line stroke="rgb(0%,0%,0%)" x1="247.137794824" x2="240.378865895" y1="394.671726436" y2="399.440046556" /><line stroke="rgb(0%,0%,0%)" x1="247.737923322" x2="248.243331187" y1="394.042372917" y2="392.952129326" /><line stroke="rgb(0%,0%,0%)" x1="253.109342155" x2="248.243331187" y1="384.195423379" y2="392.952129326" /><line stroke="rgb(0%,0%,0%)" x1="255.566388161" x2="255.157397424" y1="378.764790417" y2="379.454221948" /><line stroke="rgb(0%,0%,0%)" x1="264.203278544" x2="261.569666426" y1="369.224934935" y2="372.042968489" /><line stroke="rgb(0%,0%,0%)" x1="212.730439229" x2="216.651024433" y1="426.954066766" y2="417.848863154" /><line stroke="rgb(0%,0%,0%)" x1="212.730439229" x2="209.924546083" y1="426.954066766" y2="435.14647388" /><line stroke="rgb(0%,0%,0%)" x1="224.336490169" x2="218.533183091" y1="411.099429246" y2="414.805841466" /><line stroke="rgb(0%,0%,0%)" x1="218.533183091" x2="216.651024433" y1="414.805841466" y2="417.848863154" /><line stroke="rgb(0%,0%,0%)" x1="255.157397424" x2="253.109342155" y1="379.454221948" y2="384.195423379" /><line stroke="rgb(0%,0%,0%)" x1="209.924546083" x2="208.052532636" y1="435.14647388" y2="445.559951954" /><line stroke="rgb(0%,0%,0%)" x1="599.775839475" x2="602.123536996" y1="599.137349448" y2="594.914341016" /><line stroke="rgb(0%,0%,0%)" x1="631.276568905" x2="629.370804292" y1="517.971228468" y2="524.871799738" /><line stroke="rgb(0%,0%,0%)" x1="634.485992174" x2="635.872831105" y1="512.616864489" y2="510.080899912" /><line stroke="rgb(0%,0%,0%)" x1="639.78729007" x2="640.864107801" y1="501.681906713" y2="497.942507753" /><line stroke="rgb(0%,0%,0%)" x1="648.092450139" x2="647.315296711" y1="464.570691362" y2="468.853800255" /><line stroke="rgb(0%,0%,0%)" x1="648.092450139" x2="648.514916604" y1="464.570691362" y2="462.448530449" /><line stroke="rgb(0%,0%,0%)" x1="582.94526385" x2="583.318922972" y1="634.827948755" y2="634.145601569" /><line stroke="rgb(0%,0%,0%)" x1="599.775839475" x2="598.568726958" y1="599.137349448" y2="601.659608345" /><line stroke="rgb(0%,0%,0%)" x1="621.070718575" x2="623.271702292" y1="550.887828174" y2="544.741660744" /><line stroke="rgb(0%,0%,0%)" x1="626.384621581" x2="627.589583859" y1="534.440253009" y2="530.485657271" /><line stroke="rgb(0%,0%,0%)" x1="631.276568905" x2="634.485992174" y1="517.971228468" y2="512.616864489" /><line stroke="rgb(0%,0%,0%)" x1="638.70874986" x2="639.78729007" y1="504.323856468" y2="501.681906713" /><line stroke="rgb(0%,0%,0%)" x1="635.872831105" x2="638.70874986" y1="510.080899912" y2="504.323856468" /><line stroke="rgb(0%,0%,0%)" x1="642.982924221" x2="642.948483883" y1="488.667345978" y2="491.1816015" /><line stroke="rgb(0%,0%,0%)" x1="644.595381732" x2="644.878652201" y1="479.505267047" y2="483.065188698" /><line stroke="rgb(0%,0%,0%)" x1="648.514916604" x2="648.787034744" y1="462.448530449" y2="457.215365549" /><line stroke="rgb(0%,0%,0%)" x1="575.009009355" x2="574.561763331" y1="649.846319632" y2="651.218509857" /><line stroke="rgb(0%,0%,0%)" x1="575.009009355" x2="582.728226315" y1="649.846319632" y2="635.446363257" /><line stroke="rgb(0%,0%,0%)" x1="582.94526385" x2="582.728226315" y1="634.827948755" y2="635.446363257" /><line stroke="rgb(0%,0%,0%)" x1="588.394641989" x2="589.199916419" y1="623.517237779" y2="621.645424288" /><line stroke="rgb(0%,0%,0%)" x1="588.394641989" x2="588.083465594" y1="623.517237779" y2="624.551443345" /><line stroke="rgb(0%,0%,0%)" x1="589.199916419" x2="591.275000769" y1="621.645424288" y2="614.795610953" /><line stroke="rgb(0%,0%,0%)" x1="591.275000769" x2="595.812197687" y1="614.795610953" y2="606.641483407" /><line stroke="rgb(0%,0%,0%)" x1="611.119134997" x2="608.157483749" y1="577.048334508" y2="583.191531624" /><line stroke="rgb(0%,0%,0%)" x1="618.529270506" x2="617.96273815" y1="555.638529682" y2="559.009391773" /><line stroke="rgb(0%,0%,0%)" x1="618.529270506" x2="620.272754312" y1="555.638529682" y2="552.529906916" /><line stroke="rgb(0%,0%,0%)" x1="620.272754312" x2="621.070718575" y1="552.529906916" y2="550.887828174" /><line stroke="rgb(0%,0%,0%)" x1="640.864107801" x2="642.948483883" y1="497.942507753" y2="491.1816015" /><line stroke="rgb(0%,0%,0%)" x1="642.982924221" x2="644.686186995" y1="488.667345978" y2="484.210711821" /><line stroke="rgb(0%,0%,0%)" x1="644.595381732" x2="645.241183284" y1="479.505267047" y2="477.473565895" /><line stroke="rgb(0%,0%,0%)" x1="645.241183284" x2="647.315296711" y1="477.473565895" y2="468.853800255" /><line stroke="rgb(0%,0%,0%)" x1="583.318922972" x2="588.083465594" y1="634.145601569" y2="624.551443345" /><line stroke="rgb(0%,0%,0%)" x1="597.42150728" x2="598.568726958" y1="603.230592574" y2="601.659608345" /><line stroke="rgb(0%,0%,0%)" x1="602.123536996" x2="608.157483749" y1="594.914341016" y2="583.191531624" /><line stroke="rgb(0%,0%,0%)" x1="611.119134997" x2="613.397956977" y1="577.048334508" y2="571.622562307" /><line stroke="rgb(0%,0%,0%)" x1="613.397956977" x2="617.96273815" y1="571.622562307" y2="559.009391773" /><line stroke="rgb(0%,0%,0%)" x1="623.271702292" x2="624.039326091" y1="544.741660744" y2="542.165455431" /><line stroke="rgb(0%,0%,0%)" x1="624.265827899" x2="624.039326091" y1="538.884262377" y2="542.165455431" /><line stroke="rgb(0%,0%,0%)" x1="624.265827899" x2="625.093198158" y1="538.884262377" y2="536.316580929" /><line stroke="rgb(0%,0%,0%)" x1="625.093198158" x2="626.384621581" y1="536.316580929" y2="534.440253009" /><line stroke="rgb(0%,0%,0%)" x1="627.589583859" x2="628.581495985" y1="530.485657271" y2="526.522284677" /><line stroke="rgb(0%,0%,0%)" x1="536.926211546" x2="543.662471166" y1="697.700616865" y2="696.083570203" /><line stroke="rgb(0%,0%,0%)" x1="545.646640447" x2="543.662471166" y1="695.732051406" y2="696.083570203" /><line stroke="rgb(0%,0%,0%)" x1="545.646640447" x2="547.130793954" y1="695.732051406" y2="695.139333978" /><line stroke="rgb(0%,0%,0%)" x1="547.130793954" x2="551.640536232" y1="695.139333978" y2="692.801564635" /><line stroke="rgb(0%,0%,0%)" x1="551.640536232" x2="552.732252781" y1="692.801564635" y2="691.945182103" /><line stroke="rgb(0%,0%,0%)" x1="558.825787672" x2="554.220084472" y1="685.297264692" y2="690.548664412" /><line stroke="rgb(0%,0%,0%)" x1="560.163130741" x2="558.825787672" y1="682.60977616" y2="685.297264692" /><line stroke="rgb(0%,0%,0%)" x1="560.163130741" x2="561.694598703" y1="682.60977616" y2="679.13113142" /><line stroke="rgb(0%,0%,0%)" x1="561.694598703" x2="564.080131447" y1="679.13113142" y2="674.113390301" /><line stroke="rgb(0%,0%,0%)" x1="564.080131447" x2="566.294074822" y1="674.113390301" y2="666.505119182" /><line stroke="rgb(0%,0%,0%)" x1="566.294074822" x2="569.600170454" y1="666.505119182" y2="661.188146731" /><line stroke="rgb(0%,0%,0%)" x1="571.162431984" x2="569.600170454" y1="656.829538273" y2="661.188146731" /><line stroke="rgb(0%,0%,0%)" x1="571.162431984" x2="574.561763331" y1="656.829538273" y2="651.218509857" /><line stroke="rgb(0%,0%,0%)" x1="595.812197687" x2="597.42150728" y1="606.641483407" y2="603.230592574" /><line stroke="rgb(0%,0%,0%)" x1="628.581495985" x2="628.726189495" y1="526.522284677" y2="526.00458908" /><line stroke="rgb(0%,0%,0%)" x1="628.726189495" x2="629.370804292" y1="526.00458908" y2="524.871799738" /><line stroke="rgb(0%,0%,0%)" x1="644.686186995" x2="644.878652201" y1="484.210711821" y2="483.065188698" /><line stroke="rgb(0%,0%,0%)" x1="498.141035644" x2="495.849869968" y1="716.480069082" y2="717.900279888" /><line stroke="rgb(0%,0%,0%)" x1="498.141035644" x2="503.552784644" y1="716.480069082" y2="714.574872938" /><line stroke="rgb(0%,0%,0%)" x1="510.638310602" x2="505.974120537" y1="710.324076795" y2="713.603752456" /><line stroke="rgb(0%,0%,0%)" x1="510.638310602" x2="517.570610998" y1="710.324076795" y2="708.174985411" /><line stroke="rgb(0%,0%,0%)" x1="524.829896727" x2="520.131085553" y1="705.192481312" y2="707.176070826" /><line stroke="rgb(0%,0%,0%)" x1="524.829896727" x2="527.388238304" y1="705.192481312" y2="703.842843618" /><line stroke="rgb(0%,0%,0%)" x1="529.729632133" x2="527.388238304" y1="702.556837992" y2="703.842843618" /><line stroke="rgb(0%,0%,0%)" x1="529.729632133" x2="536.926211546" y1="702.556837992" y2="697.700616865" /><line stroke="rgb(0%,0%,0%)" x1="552.732252781" x2="554.220084472" y1="691.945182103" y2="690.548664412" /><line stroke="rgb(0%,0%,0%)" x1="495.849869968" x2="491.445450189" y1="717.900279888" y2="720.01817094" /><line stroke="rgb(0%,0%,0%)" x1="503.552784644" x2="505.974120537" y1="714.574872938" y2="713.603752456" /><line stroke="rgb(0%,0%,0%)" x1="517.570610998" x2="518.914352624" y1="708.174985411" y2="707.497620951" /><line stroke="rgb(0%,0%,0%)" x1="518.914352624" x2="520.131085553" y1="707.497620951" y2="707.176070826" /><line stroke="rgb(0%,0%,0%)" x1="450.482134292" x2="444.850250927" y1="724.373497476" y2="724.177984611" /><line stroke="rgb(0%,0%,0%)" x1="450.482134292" x2="459.784706782" y1="724.373497476" y2="722.903291921" /><line stroke="rgb(0%,0%,0%)" x1="459.784706782" x2="466.925917706" y1="722.903291921" y2="723.885002394" /><line stroke="rgb(0%,0%,0%)" x1="466.925917706" x2="473.711763164" y1="723.885002394" y2="723.033614858" /><line stroke="rgb(0%,0%,0%)" x1="473.711763164" x2="483.608298706" y1="723.033614858" y2="721.305968928" /><line stroke="rgb(0%,0%,0%)" x1="489.80221229" x2="483.608298706" y1="720.04365655" y2="721.305968928" /><line stroke="rgb(0%,0%,0%)" x1="489.80221229" x2="491.445450189" y1="720.04365655" y2="720.01817094" /><line stroke="rgb(0%,0%,0%)" x1="402.182461542" x2="401.980016553" y1="692.276710288" y2="692.007999929" /><line stroke="rgb(0%,0%,0%)" x1="401.980016553" x2="401.813645349" y1="692.007999929" y2="691.638213091" /><line stroke="rgb(0%,0%,0%)" x1="402.182461542" x2="402.681458404" y1="692.276710288" y2="692.669143491" /><line stroke="rgb(0%,0%,0%)" x1="428.568096532" x2="428.540626518" y1="714.251115186" y2="714.184837802" /><line stroke="rgb(0%,0%,0%)" x1="422.555530171" x2="420.475112789" y1="708.354930319" y2="706.150121195" /><line stroke="rgb(0%,0%,0%)" x1="437.633807491" x2="432.123286697" y1="721.661752506" y2="718.8573245" /><line stroke="rgb(0%,0%,0%)" x1="428.568096532" x2="432.123286697" y1="714.251115186" y2="718.8573245" /><line stroke="rgb(0%,0%,0%)" x1="423.981702743" x2="428.540626518" y1="709.244837576" y2="714.184837802" /><line stroke="rgb(0%,0%,0%)" x1="437.633807491" x2="444.850250927" y1="721.661752506" y2="724.177984611" /><line stroke="rgb(0%,0%,0%)" x1="361.338873628" x2="363.188634284" y1="678.403254109" y2="679.003451154" /><line stroke="rgb(0%,0%,0%)" x1="375.605342469" x2="368.824063572" y1="683.261959648" y2="681.52968324" /><line stroke="rgb(0%,0%,0%)" x1="375.605342469" x2="381.60949477" y1="683.261959648" y2="683.776735938" /><line stroke="rgb(0%,0%,0%)" x1="398.006789788" x2="401.813645349" y1="684.00765338" y2="691.638213091" /><line stroke="rgb(0%,0%,0%)" x1="398.006789788" x2="397.390216859" y1="684.00765338" y2="683.518508322" /><line stroke="rgb(0%,0%,0%)" x1="395.019308732" x2="388.150669402" y1="681.90615879" y2="683.103825673" /><line stroke="rgb(0%,0%,0%)" x1="395.019308732" x2="397.390216859" y1="681.90615879" y2="683.518508322" /><line stroke="rgb(0%,0%,0%)" x1="384.674472769" x2="388.150669402" y1="683.695978966" y2="683.103825673" /><line stroke="rgb(0%,0%,0%)" x1="402.681458404" x2="410.700350371" y1="692.669143491" y2="699.74167876" /><line stroke="rgb(0%,0%,0%)" x1="410.700350371" x2="420.475112789" y1="699.74167876" y2="706.150121195" /><line stroke="rgb(0%,0%,0%)" x1="422.555530171" x2="423.981702743" y1="708.354930319" y2="709.244837576" /><line stroke="rgb(0%,0%,0%)" x1="363.188634284" x2="368.824063572" y1="679.003451154" y2="681.52968324" /><line stroke="rgb(0%,0%,0%)" x1="354.90149539" x2="361.338873628" y1="675.247068474" y2="678.403254109" /><line stroke="rgb(0%,0%,0%)" x1="348.479602523" x2="354.90149539" y1="672.319560442" y2="675.247068474" /><line stroke="rgb(0%,0%,0%)" x1="381.60949477" x2="384.674472769" y1="683.776735938" y2="683.695978966" /><line stroke="rgb(0%,0%,0%)" x1="235.957489659" x2="238.564239444" y1="511.410437801" y2="514.789976641" /><line stroke="rgb(0%,0%,0%)" x1="238.564239444" x2="238.567091582" y1="514.789976641" y2="514.987985782" /><line stroke="rgb(0%,0%,0%)" x1="235.957489659" x2="233.149684423" y1="511.410437801" y2="508.952257878" /><line stroke="rgb(0%,0%,0%)" x1="320.953155694" x2="313.982634894" y1="656.694738984" y2="645.26491629" /><line stroke="rgb(0%,0%,0%)" x1="320.953155694" x2="324.214690808" y1="656.694738984" y2="659.21323019" /><line stroke="rgb(0%,0%,0%)" x1="324.214690808" x2="325.411658662" y1="659.21323019" y2="660.351617356" /><line stroke="rgb(0%,0%,0%)" x1="325.411658662" x2="335.278723523" y1="660.351617356" y2="664.081272277" /><line stroke="rgb(0%,0%,0%)" x1="348.479602523" x2="335.69110234" y1="672.319560442" y2="664.208138091" /><line stroke="rgb(0%,0%,0%)" x1="335.278723523" x2="335.69110234" y1="664.081272277" y2="664.208138091" /><line stroke="rgb(0%,0%,0%)" x1="230.555002328" x2="233.149684423" y1="507.452787218" y2="508.952257878" /><line stroke="rgb(0%,0%,0%)" x1="230.555002328" x2="230.066328793" y1="507.452787218" y2="507.270467119" /><line stroke="rgb(0%,0%,0%)" x1="259.061048571" x2="263.106006535" y1="544.125464143" y2="546.142170298" /><line stroke="rgb(0%,0%,0%)" x1="255.336098776" x2="259.061048571" y1="541.057014159" y2="544.125464143" /><line stroke="rgb(0%,0%,0%)" x1="253.521239757" x2="255.336098776" y1="539.743152869" y2="541.057014159" /><line stroke="rgb(0%,0%,0%)" x1="253.521239757" x2="250.005293632" y1="539.743152869" y2="533.425966136" /><line stroke="rgb(0%,0%,0%)" x1="270.922220704" x2="275.837177802" y1="551.687824887" y2="555.487755123" /><line stroke="rgb(0%,0%,0%)" x1="270.922220704" x2="268.631043275" y1="551.687824887" y2="549.234621095" /><line stroke="rgb(0%,0%,0%)" x1="287.540195115" x2="290.501106073" y1="564.760747322" y2="565.490491299" /><line stroke="rgb(0%,0%,0%)" x1="280.382115543" x2="286.297871593" y1="559.871697535" y2="564.10328928" /><line stroke="rgb(0%,0%,0%)" x1="278.279705353" x2="280.382115543" y1="558.72907055" y2="559.871697535" /><line stroke="rgb(0%,0%,0%)" x1="275.837177802" x2="278.279705353" y1="555.487755123" y2="558.72907055" /><line stroke="rgb(0%,0%,0%)" x1="290.501106073" x2="293.150860044" y1="565.490491299" y2="567.089586936" /><line stroke="rgb(0%,0%,0%)" x1="309.949567402" x2="313.982634894" y1="638.690881158" y2="645.26491629" /><line stroke="rgb(0%,0%,0%)" x1="308.90345161" x2="309.949567402" y1="636.596192417" y2="638.690881158" /><line stroke="rgb(0%,0%,0%)" x1="308.90345161" x2="307.895023912" y1="636.596192417" y2="632.328462776" /><line stroke="rgb(0%,0%,0%)" x1="308.221711408" x2="307.895023912" y1="629.930875783" y2="632.328462776" /><line stroke="rgb(0%,0%,0%)" x1="230.066328793" x2="226.125854496" y1="507.270467119" y2="503.406633135" /><line stroke="rgb(0%,0%,0%)" x1="209.080249992" x2="211.714301289" y1="485.961423217" y2="491.596065992" /><line stroke="rgb(0%,0%,0%)" x1="206.882089709" x2="209.080249992" y1="481.623512705" y2="485.961423217" /><line stroke="rgb(0%,0%,0%)" x1="206.882089709" x2="207.848484577" y1="481.623512705" y2="468.64648038" /><line stroke="rgb(0%,0%,0%)" x1="242.785165695" x2="247.156438645" y1="520.577877364" y2="527.914330424" /><line stroke="rgb(0%,0%,0%)" x1="247.156438645" x2="247.792856831" y1="527.914330424" y2="528.741779257" /><line stroke="rgb(0%,0%,0%)" x1="241.817791503" x2="242.785165695" y1="518.675200309" y2="520.577877364" /><line stroke="rgb(0%,0%,0%)" x1="238.567091582" x2="241.817791503" y1="514.987985782" y2="518.675200309" /><line stroke="rgb(0%,0%,0%)" x1="264.206240121" x2="265.682149974" y1="547.277008011" y2="548.18550578" /><line stroke="rgb(0%,0%,0%)" x1="265.682149974" x2="268.631043275" y1="548.18550578" y2="549.234621095" /><line stroke="rgb(0%,0%,0%)" x1="263.106006535" x2="264.206240121" y1="546.142170298" y2="547.277008011" /><line stroke="rgb(0%,0%,0%)" x1="211.714301289" x2="218.642472274" y1="491.596065992" y2="498.341386618" /><line stroke="rgb(0%,0%,0%)" x1="206.588816063" x2="207.848484577" y1="452.194436425" y2="468.64648038" /><line stroke="rgb(0%,0%,0%)" x1="218.642472274" x2="226.125854496" y1="498.341386618" y2="503.406633135" /><line stroke="rgb(0%,0%,0%)" x1="247.959372823" x2="250.005293632" y1="528.997879355" y2="533.425966136" /><line stroke="rgb(0%,0%,0%)" x1="247.792856831" x2="247.959372823" y1="528.741779257" y2="528.997879355" /><line stroke="rgb(0%,0%,0%)" x1="310.487096891" x2="310.699038508" y1="614.665024457" y2="614.886862841" /><line stroke="rgb(0%,0%,0%)" x1="310.699038508" x2="310.871684219" y1="614.886862841" y2="614.95749178" /><line stroke="rgb(0%,0%,0%)" x1="208.052532636" x2="206.588816063" y1="445.559951954" y2="452.194436425" /><line stroke="rgb(0%,0%,0%)" x1="320.315209987" x2="320.28877386" y1="583.831052816" y2="583.504979012" /><line stroke="rgb(0%,0%,0%)" x1="304.737267233" x2="297.063323285" y1="591.952395326" y2="594.949130988" /><line stroke="rgb(0%,0%,0%)" x1="308.43251045" x2="304.737267233" y1="590.427308997" y2="591.952395326" /><line stroke="rgb(0%,0%,0%)" x1="308.43251045" x2="313.024513379" y1="590.427308997" y2="589.265778667" /><line stroke="rgb(0%,0%,0%)" x1="301.391545793" x2="303.858547056" y1="570.339524828" y2="571.370092014" /><line stroke="rgb(0%,0%,0%)" x1="301.391545793" x2="299.954393959" y1="570.339524828" y2="569.42757915" /><line stroke="rgb(0%,0%,0%)" x1="293.150860044" x2="299.954393959" y1="567.089586936" y2="569.42757915" /><line stroke="rgb(0%,0%,0%)" x1="309.254663035" x2="308.221711408" y1="626.091301632" y2="629.930875783" /><line stroke="rgb(0%,0%,0%)" x1="310.275464328" x2="309.254663035" y1="625.882864994" y2="626.091301632" /><line stroke="rgb(0%,0%,0%)" x1="317.68626307" x2="313.024513379" y1="586.481444872" y2="589.265778667" /><line stroke="rgb(0%,0%,0%)" x1="319.399439595" x2="317.68626307" y1="584.367505277" y2="586.481444872" /><line stroke="rgb(0%,0%,0%)" x1="320.315209987" x2="319.399439595" y1="583.831052816" y2="584.367505277" /><line stroke="rgb(0%,0%,0%)" x1="320.55148591" x2="320.28877386" y1="580.928525463" y2="583.504979012" /><line stroke="rgb(0%,0%,0%)" x1="320.55148591" x2="318.801474882" y1="580.928525463" y2="579.151313843" /><line stroke="rgb(0%,0%,0%)" x1="313.038320936" x2="315.893475727" y1="575.868169807" y2="577.133937888" /><line stroke="rgb(0%,0%,0%)" x1="309.556524652" x2="313.038320936" y1="573.845186397" y2="575.868169807" /><line stroke="rgb(0%,0%,0%)" x1="303.858547056" x2="309.556524652" y1="571.370092014" y2="573.845186397" /><line stroke="rgb(0%,0%,0%)" x1="286.831584891" x2="287.540195115" y1="564.455814916" y2="564.760747322" /><line stroke="rgb(0%,0%,0%)" x1="286.831584891" x2="286.297871593" y1="564.455814916" y2="564.10328928" /><line stroke="rgb(0%,0%,0%)" x1="297.44753804" x2="297.889764295" y1="600.915572996" y2="601.057644335" /><line stroke="rgb(0%,0%,0%)" x1="295.486475392" x2="297.44753804" y1="598.838080283" y2="600.915572996" /><line stroke="rgb(0%,0%,0%)" x1="295.172910927" x2="294.620786067" y1="597.797600235" y2="596.84376091" /><line stroke="rgb(0%,0%,0%)" x1="295.172910927" x2="295.486475392" y1="597.797600235" y2="598.838080283" /><line stroke="rgb(0%,0%,0%)" x1="294.620786067" x2="296.088514094" y1="596.84376091" y2="595.369508741" /><line stroke="rgb(0%,0%,0%)" x1="297.063323285" x2="296.44644972" y1="594.949130988" y2="595.108064685" /><line stroke="rgb(0%,0%,0%)" x1="297.889764295" x2="299.45280364" y1="601.057644335" y2="603.15969875" /><line stroke="rgb(0%,0%,0%)" x1="296.44644972" x2="296.088514094" y1="595.108064685" y2="595.369508741" /><line stroke="rgb(0%,0%,0%)" x1="317.156038647" x2="318.801474882" y1="577.756516763" y2="579.151313843" /><line stroke="rgb(0%,0%,0%)" x1="315.893475727" x2="317.156038647" y1="577.133937888" y2="577.756516763" /><line stroke="rgb(0%,0%,0%)" x1="317.403213802" x2="317.35901367" y1="619.993616102" y2="620.090718817" /><line stroke="rgb(0%,0%,0%)" x1="314.68545708" x2="311.282785632" y1="617.226798034" y2="615.350868962" /><line stroke="rgb(0%,0%,0%)" x1="310.487096891" x2="307.341698983" y1="614.665024457" y2="610.605044894" /><line stroke="rgb(0%,0%,0%)" x1="304.424098089" x2="305.794312987" y1="608.497900539" y2="609.807799566" /><line stroke="rgb(0%,0%,0%)" x1="305.794312987" x2="307.341698983" y1="609.807799566" y2="610.605044894" /><line stroke="rgb(0%,0%,0%)" x1="300.817400779" x2="304.424098089" y1="604.732391328" y2="608.497900539" /><line stroke="rgb(0%,0%,0%)" x1="300.817400779" x2="299.963560684" y1="604.732391328" y2="604.19661039" /><line stroke="rgb(0%,0%,0%)" x1="315.819100163" x2="317.403213802" y1="618.531641996" y2="619.993616102" /><line stroke="rgb(0%,0%,0%)" x1="314.68545708" x2="315.819100163" y1="617.226798034" y2="618.531641996" /><line stroke="rgb(0%,0%,0%)" x1="310.871684219" x2="311.282785632" y1="614.95749178" y2="615.350868962" /><line stroke="rgb(0%,0%,0%)" x1="317.35901367" x2="310.275464328" y1="620.090718817" y2="625.882864994" /><line stroke="rgb(0%,0%,0%)" x1="299.45280364" x2="299.963560684" y1="603.15969875" y2="604.19661039" /></svg>