<?xml version="1.0" encoding="utf-8" ?>
<svg baseProfile="full" height="100%" version="1.1" viewBox="0.5 0.5 685.793960571 941.299331665" width="100%" xmlns="http://www.w3.org/2000/svg" xmlns:ev="http://www.w3.org/2001/xml-events" xmlns:xlink="http://www.w3.org/1999/xlink"><defs /><line stroke="rgb(0%,0%,0%)" x1="646.664132176" x2="646.610851169" y1="446.989320745" y2="446.269241747" /><line stroke="rgb(0%,0%,0%)" x1="646.610851169" x2="646.512191001" y1="446.269241747" y2="445.697750008" /><line stroke="rgb(0%,0%,0%)" x1="637.088691769" x2="638.284116546" y1="408.434384047" y2="412.170584105" /><line stroke="rgb(0%,0%,0%)" x1="636.892588899" x2="637.088691769" y1="408.125705637" y2="408.434384047" /><line stroke="rgb(0%,0%,0%)" x1="619.181902402" x2="619.537193956" y1="354.11201031" y2="354.974092645" /><line stroke="rgb(0%,0%,0%)" x1="619.044684961" x2="619.181902402" y1="353.803497557" y2="354.11201031" /><line stroke="rgb(0%,0%,0%)" x1="619.044684961" x2="618.223808104" y1="353.803497557" y2="352.187033248" /><line stroke="rgb(0%,0%,0%)" x1="646.664132176" x2="646.825381372" y1="446.989320745" y2="448.307539879" /><line stroke="rgb(0%,0%,0%)" x1="642.43518823" x2="642.727439878" y1="428.617818308" y2="429.449866355" /><line stroke="rgb(0%,0%,0%)" x1="642.43518823" x2="641.857252958" y1="428.617818308" y2="425.583164095" /><line stroke="rgb(0%,0%,0%)" x1="636.892588899" x2="636.900543316" y1="408.125705637" y2="407.424513127" /><line stroke="rgb(0%,0%,0%)" x1="633.85025803" x2="632.205238144" y1="393.738051394" y2="386.777652158" /><line stroke="rgb(0%,0%,0%)" x1="646.455994347" x2="646.825381372" y1="457.057352572" y2="448.307539879" /><line stroke="rgb(0%,0%,0%)" x1="642.727439878" x2="643.049661788" y1="429.449866355" y2="430.692154886" /><line stroke="rgb(0%,0%,0%)" x1="618.223808104" x2="610.905275684" y1="352.187033248" y2="340.048732945" /><line stroke="rgb(0%,0%,0%)" x1="605.526033305" x2="606.919631092" y1="330.177448508" y2="333.046306135" /><line stroke="rgb(0%,0%,0%)" x1="605.526033305" x2="602.736699961" y1="330.177448508" y2="324.39039759" /><line stroke="rgb(0%,0%,0%)" x1="620.843939358" x2="619.537193956" y1="359.135353179" y2="354.974092645" /><line stroke="rgb(0%,0%,0%)" x1="639.708610456" x2="638.284116546" y1="418.101419182" y2="412.170584105" /><line stroke="rgb(0%,0%,0%)" x1="636.900543316" x2="636.274033967" y1="407.424513127" y2="403.570864313" /><line stroke="rgb(0%,0%,0%)" x1="636.274033967" x2="634.92039026" y1="403.570864313" y2="400.407626961" /><line stroke="rgb(0%,0%,0%)" x1="633.85025803" x2="634.370047212" y1="393.738051394" y2="398.207289338" /><line stroke="rgb(0%,0%,0%)" x1="632.205238144" x2="630.426141601" y1="386.777652158" y2="380.693761917" /><line stroke="rgb(0%,0%,0%)" x1="630.426141601" x2="627.876718854" y1="380.693761917" y2="373.034915102" /><line stroke="rgb(0%,0%,0%)" x1="646.512191001" x2="645.336640998" y1="445.697750008" y2="439.090455173" /><line stroke="rgb(0%,0%,0%)" x1="644.952303691" x2="643.049661788" y1="436.498827663" y2="430.692154886" /><line stroke="rgb(0%,0%,0%)" x1="641.857252958" x2="640.511362234" y1="425.583164095" y2="418.687009579" /><line stroke="rgb(0%,0%,0%)" x1="640.511362234" x2="639.708610456" y1="418.687009579" y2="418.101419182" /><line stroke="rgb(0%,0%,0%)" x1="549.85448941" x2="550.467438674" y1="253.192992568" y2="253.571348462" /><line stroke="rgb(0%,0%,0%)" x1="567.238576364" x2="573.741445406" y1="263.755028322" y2="268.110053366" /><line stroke="rgb(0%,0%,0%)" x1="577.908811403" x2="582.529879539" y1="271.019792752" y2="277.659090901" /><line stroke="rgb(0%,0%,0%)" x1="602.736699961" x2="600.924308946" y1="324.39039759" y2="319.601401666" /><line stroke="rgb(0%,0%,0%)" x1="600.924308946" x2="599.900844798" y1="319.601401666" y2="307.233560077" /><line stroke="rgb(0%,0%,0%)" x1="595.169082594" x2="599.501297254" y1="301.382208738" y2="306.526952739" /><line stroke="rgb(0%,0%,0%)" x1="595.169082594" x2="591.976831842" y1="301.382208738" y2="295.443174973" /><line stroke="rgb(0%,0%,0%)" x1="610.905275684" x2="606.919631092" y1="340.048732945" y2="333.046306135" /><line stroke="rgb(0%,0%,0%)" x1="620.843939358" x2="626.499323492" y1="359.135353179" y2="370.017587821" /><line stroke="rgb(0%,0%,0%)" x1="634.92039026" x2="634.370047212" y1="400.407626961" y2="398.207289338" /><line stroke="rgb(0%,0%,0%)" x1="645.336640998" x2="644.952303691" y1="439.090455173" y2="436.498827663" /><line stroke="rgb(0%,0%,0%)" x1="528.821809194" x2="530.6158947" y1="239.662965812" y2="240.972858845" /><line stroke="rgb(0%,0%,0%)" x1="528.821809194" x2="527.461032426" y1="239.662965812" y2="238.82245047" /><line stroke="rgb(0%,0%,0%)" x1="539.14632748" x2="530.6158947" y1="246.292235856" y2="240.972858845" /><line stroke="rgb(0%,0%,0%)" x1="542.0532509" x2="539.14632748" y1="249.908863565" y2="246.292235856" /><line stroke="rgb(0%,0%,0%)" x1="564.226215187" x2="562.172829318" y1="261.008742188" y2="261.038460246" /><line stroke="rgb(0%,0%,0%)" x1="550.467438674" x2="550.916566441" y1="253.571348462" y2="253.87643292" /><line stroke="rgb(0%,0%,0%)" x1="577.908811403" x2="573.741445406" y1="271.019792752" y2="268.110053366" /><line stroke="rgb(0%,0%,0%)" x1="565.454104519" x2="564.226215187" y1="262.14059695" y2="261.008742188" /><line stroke="rgb(0%,0%,0%)" x1="567.238576364" x2="565.454104519" y1="263.755028322" y2="262.14059695" /><line stroke="rgb(0%,0%,0%)" x1="585.981341263" x2="591.408424776" y1="282.888643514" y2="293.966280583" /><line stroke="rgb(0%,0%,0%)" x1="585.981341263" x2="582.529879539" y1="282.888643514" y2="277.659090901" /><line stroke="rgb(0%,0%,0%)" x1="599.900844798" x2="599.501297254" y1="307.233560077" y2="306.526952739" /><line stroke="rgb(0%,0%,0%)" x1="627.876718854" x2="626.921969322" y1="373.034915102" y2="370.661455774" /><line stroke="rgb(0%,0%,0%)" x1="626.921969322" x2="626.499323492" y1="370.661455774" y2="370.017587821" /><line stroke="rgb(0%,0%,0%)" x1="527.461032426" x2="525.517529372" y1="238.82245047" y2="237.890979518" /><line stroke="rgb(0%,0%,0%)" x1="556.139622089" x2="550.916566441" y1="257.434051276" y2="253.87643292" /><line stroke="rgb(0%,0%,0%)" x1="549.85448941" x2="542.0532509" y1="253.192992568" y2="249.908863565" /><line stroke="rgb(0%,0%,0%)" x1="557.865904685" x2="562.172829318" y1="257.431184332" y2="261.038460246" /><line stroke="rgb(0%,0%,0%)" x1="591.976831842" x2="591.408424776" y1="295.443174973" y2="293.966280583" /><line stroke="rgb(0%,0%,0%)" x1="491.709667583" x2="494.282098461" y1="213.372835547" y2="215.222003714" /><line stroke="rgb(0%,0%,0%)" x1="491.709667583" x2="473.381811631" y1="213.372835547" y2="200.553393326" /><line stroke="rgb(0%,0%,0%)" x1="501.853607116" x2="499.594324265" y1="222.692592182" y2="220.084532306" /><line stroke="rgb(0%,0%,0%)" x1="494.282098461" x2="497.627620889" y1="215.222003714" y2="218.03895731" /><line stroke="rgb(0%,0%,0%)" x1="518.099531717" x2="516.255959426" y1="232.017999436" y2="231.018804209" /><line stroke="rgb(0%,0%,0%)" x1="511.376771985" x2="510.733599275" y1="228.765130451" y2="228.288170512" /><line stroke="rgb(0%,0%,0%)" x1="516.255959426" x2="511.376771985" y1="231.018804209" y2="228.765130451" /><line stroke="rgb(0%,0%,0%)" x1="501.853607116" x2="509.444362613" y1="222.692592182" y2="227.413559842" /><line stroke="rgb(0%,0%,0%)" x1="525.517529372" x2="518.099531717" y1="237.890979518" y2="232.017999436" /><line stroke="rgb(0%,0%,0%)" x1="557.865904685" x2="556.139622089" y1="257.431184332" y2="257.434051276" /><line stroke="rgb(0%,0%,0%)" x1="438.74798741" x2="441.933746967" y1="186.368474435" y2="187.314300365" /><line stroke="rgb(0%,0%,0%)" x1="465.212725613" x2="468.337996655" y1="196.969995419" y2="197.460774737" /><line stroke="rgb(0%,0%,0%)" x1="465.212725613" x2="454.48611472" y1="196.969995419" y2="191.668013411" /><line stroke="rgb(0%,0%,0%)" x1="473.381811631" x2="468.337996655" y1="200.553393326" y2="197.460774737" /><line stroke="rgb(0%,0%,0%)" x1="499.594324265" x2="498.362739301" y1="220.084532306" y2="219.013774223" /><line stroke="rgb(0%,0%,0%)" x1="498.362739301" x2="497.627620889" y1="219.013774223" y2="218.03895731" /><line stroke="rgb(0%,0%,0%)" x1="510.733599275" x2="509.444362613" y1="228.288170512" y2="227.413559842" /><line stroke="rgb(0%,0%,0%)" x1="438.74798741" x2="428.637806827" y1="186.368474435" y2="186.126039857" /><line stroke="rgb(0%,0%,0%)" x1="454.48611472" x2="441.933746967" y1="191.668013411" y2="187.314300365" /><line stroke="rgb(0%,0%,0%)" x1="404.400513379" x2="398.04285672" y1="190.433150299" y2="194.665048171" /><line stroke="rgb(0%,0%,0%)" x1="398.04285672" x2="397.401565002" y1="194.665048171" y2="196.912667255" /><line stroke="rgb(0%,0%,0%)" x1="408.356770033" x2="404.400513379" y1="187.110620187" y2="190.433150299" /><line stroke="rgb(0%,0%,0%)" x1="413.215776647" x2="408.356770033" y1="185.664197321" y2="187.110620187" /><line stroke="rgb(0%,0%,0%)" x1="415.755529147" x2="413.215776647" y1="184.476368593" y2="185.664197321" /><line stroke="rgb(0%,0%,0%)" x1="428.637806827" x2="415.755529147" y1="186.126039857" y2="184.476368593" /><line stroke="rgb(0%,0%,0%)" x1="372.177109902" x2="371.986994696" y1="223.151675643" y2="223.131356991" /><line stroke="rgb(0%,0%,0%)" x1="382.880092461" x2="372.177109902" y1="223.332811625" y2="223.151675643" /><line stroke="rgb(0%,0%,0%)" x1="382.880092461" x2="384.356125949" y1="223.332811625" y2="222.64340231" /><line stroke="rgb(0%,0%,0%)" x1="389.529221888" x2="387.401686776" y1="218.780839811" y2="219.704141884" /><line stroke="rgb(0%,0%,0%)" x1="384.356125949" x2="387.401686776" y1="222.64340231" y2="219.704141884" /><line stroke="rgb(0%,0%,0%)" x1="393.375102595" x2="389.529221888" y1="215.390375003" y2="218.780839811" /><line stroke="rgb(0%,0%,0%)" x1="393.375102595" x2="394.893668484" y1="215.390375003" y2="207.916158668" /><line stroke="rgb(0%,0%,0%)" x1="395.658789854" x2="394.893668484" y1="205.339338982" y2="207.916158668" /><line stroke="rgb(0%,0%,0%)" x1="397.401565002" x2="395.658789854" y1="196.912667255" y2="205.339338982" /><line stroke="rgb(0%,0%,0%)" x1="342.065450969" x2="342.006904319" y1="238.66806938" y2="238.724891213" /><line stroke="rgb(0%,0%,0%)" x1="342.065450969" x2="342.704892022" y1="238.66806938" y2="238.19495323" /><line stroke="rgb(0%,0%,0%)" x1="354.653591348" x2="342.704892022" y1="229.73742411" y2="238.19495323" /><line stroke="rgb(0%,0%,0%)" x1="356.541526232" x2="354.653591348" y1="228.433104936" y2="229.73742411" /><line stroke="rgb(0%,0%,0%)" x1="363.126525047" x2="356.541526232" y1="225.757493648" y2="228.433104936" /><line stroke="rgb(0%,0%,0%)" x1="371.986994696" x2="363.126525047" y1="223.131356991" y2="225.757493648" /><line stroke="rgb(0%,0%,0%)" x1="287.991016847" x2="288.003827478" y1="312.685815836" y2="312.706797245" /><line stroke="rgb(0%,0%,0%)" x1="287.991016847" x2="287.966318195" y1="312.685815836" y2="312.677177539" /><line stroke="rgb(0%,0%,0%)" x1="297.258028964" x2="293.733845345" y1="316.125041227" y2="314.825158449" /><line stroke="rgb(0%,0%,0%)" x1="297.258028964" x2="299.369918935" y1="316.125041227" y2="316.272089505" /><line stroke="rgb(0%,0%,0%)" x1="295.181677509" x2="296.208404654" y1="303.020094469" y2="302.178311021" /><line stroke="rgb(0%,0%,0%)" x1="295.984884184" x2="296.075517546" y1="282.062652369" y2="281.681649982" /><line stroke="rgb(0%,0%,0%)" x1="301.037933084" x2="296.075517546" y1="264.176745847" y2="281.681649982" /><line stroke="rgb(0%,0%,0%)" x1="301.037933084" x2="303.220837291" y1="264.176745847" y2="261.200293783" /><line stroke="rgb(0%,0%,0%)" x1="299.517486261" x2="299.958488548" y1="335.822311398" y2="335.557032476" /><line stroke="rgb(0%,0%,0%)" x1="304.517734566" x2="310.877073877" y1="318.617714576" y2="320.741665962" /><line stroke="rgb(0%,0%,0%)" x1="303.763354335" x2="307.792646796" y1="295.883813777" y2="292.226947549" /><line stroke="rgb(0%,0%,0%)" x1="309.129735384" x2="307.792646796" y1="291.306577191" y2="292.226947549" /><line stroke="rgb(0%,0%,0%)" x1="311.02266176" x2="310.203413794" y1="289.389830098" y2="290.28855493" /><line stroke="rgb(0%,0%,0%)" x1="303.220837291" x2="307.664660256" y1="261.200293783" y2="257.446806762" /><line stroke="rgb(0%,0%,0%)" x1="317.476684235" x2="317.468234209" y1="325.629453131" y2="325.639469355" /><line stroke="rgb(0%,0%,0%)" x1="317.476684235" x2="317.470156436" y1="325.629453131" y2="325.624336096" /><line stroke="rgb(0%,0%,0%)" x1="317.468234209" x2="315.60694284" y1="325.639469355" y2="328.496153658" /><line stroke="rgb(0%,0%,0%)" x1="316.419905827" x2="317.470156436" y1="323.975390346" y2="325.624336096" /><line stroke="rgb(0%,0%,0%)" x1="314.265068738" x2="316.419905827" y1="322.052684421" y2="323.975390346" /><line stroke="rgb(0%,0%,0%)" x1="323.563864534" x2="310.911204814" y1="250.5544559" y2="255.646670737" /><line stroke="rgb(0%,0%,0%)" x1="310.911204814" x2="309.106835863" y1="255.646670737" y2="256.384960124" /><line stroke="rgb(0%,0%,0%)" x1="331.656617535" x2="323.563864534" y1="244.924847422" y2="250.5544559" /><line stroke="rgb(0%,0%,0%)" x1="342.006904319" x2="331.656617535" y1="238.724891213" y2="244.924847422" /><line stroke="rgb(0%,0%,0%)" x1="261.501014632" x2="261.702020114" y1="367.350750537" y2="367.124388042" /><line stroke="rgb(0%,0%,0%)" x1="288.003827478" x2="288.134660059" y1="312.706797245" y2="312.690676806" /><line stroke="rgb(0%,0%,0%)" x1="287.966318195" x2="287.88057882" y1="312.677177539" y2="312.302701072" /><line stroke="rgb(0%,0%,0%)" x1="274.373134755" x2="277.012686209" y1="353.871037103" y2="351.217719309" /><line stroke="rgb(0%,0%,0%)" x1="274.373134755" x2="269.836132795" y1="353.871037103" y2="359.519842359" /><line stroke="rgb(0%,0%,0%)" x1="277.012686209" x2="283.11832218" y1="351.217719309" y2="345.490937318" /><line stroke="rgb(0%,0%,0%)" x1="292.098948763" x2="287.751191512" y1="339.041423406" y2="341.533203759" /><line stroke="rgb(0%,0%,0%)" x1="287.751191512" x2="287.025312411" y1="341.533203759" y2="341.932511589" /><line stroke="rgb(0%,0%,0%)" x1="299.517486261" x2="292.098948763" y1="335.822311398" y2="339.041423406" /><line stroke="rgb(0%,0%,0%)" x1="288.134660059" x2="293.733845345" y1="312.690676806" y2="314.825158449" /><line stroke="rgb(0%,0%,0%)" x1="291.14304431" x2="287.280381616" y1="306.675271475" y2="310.637383953" /><line stroke="rgb(0%,0%,0%)" x1="295.181677509" x2="294.526188933" y1="303.020094469" y2="303.550064678" /><line stroke="rgb(0%,0%,0%)" x1="294.526188933" x2="292.399387258" y1="303.550064678" y2="305.447059035" /><line stroke="rgb(0%,0%,0%)" x1="292.399387258" x2="291.14304431" y1="305.447059035" y2="306.675271475" /><line stroke="rgb(0%,0%,0%)" x1="295.984884184" x2="295.997458131" y1="282.062652369" y2="282.56078587" /><line stroke="rgb(0%,0%,0%)" x1="297.284944932" x2="295.997458131" y1="282.76906757" y2="282.56078587" /><line stroke="rgb(0%,0%,0%)" x1="299.958488548" x2="301.338124996" y1="335.557032476" y2="334.787371544" /><line stroke="rgb(0%,0%,0%)" x1="305.416933857" x2="301.338124996" y1="332.630404754" y2="334.787371544" /><line stroke="rgb(0%,0%,0%)" x1="299.369918935" x2="304.517734566" y1="316.272089505" y2="318.617714576" /><line stroke="rgb(0%,0%,0%)" x1="287.077547857" x2="287.88057882" y1="310.898296881" y2="312.302701072" /><line stroke="rgb(0%,0%,0%)" x1="299.416382062" x2="296.208404654" y1="300.029009544" y2="302.178311021" /><line stroke="rgb(0%,0%,0%)" x1="301.676957591" x2="303.763354335" y1="297.802265996" y2="295.883813777" /><line stroke="rgb(0%,0%,0%)" x1="301.676957591" x2="299.416382062" y1="297.802265996" y2="300.029009544" /><line stroke="rgb(0%,0%,0%)" x1="297.284944932" x2="306.216832092" y1="282.76906757" y2="287.733070644" /><line stroke="rgb(0%,0%,0%)" x1="306.216832092" x2="310.638512095" y1="287.733070644" y2="288.840136673" /><line stroke="rgb(0%,0%,0%)" x1="310.837236384" x2="305.416933857" y1="330.305593305" y2="332.630404754" /><line stroke="rgb(0%,0%,0%)" x1="315.60694284" x2="314.154340429" y1="328.496153658" y2="329.284553801" /><line stroke="rgb(0%,0%,0%)" x1="310.877073877" x2="314.265068738" y1="320.741665962" y2="322.052684421" /><line stroke="rgb(0%,0%,0%)" x1="310.203413794" x2="309.129735384" y1="290.28855493" y2="291.306577191" /><line stroke="rgb(0%,0%,0%)" x1="310.638512095" x2="311.02266176" y1="288.840136673" y2="289.389830098" /><line stroke="rgb(0%,0%,0%)" x1="309.106835863" x2="307.664660256" y1="256.384960124" y2="257.446806762" /><line stroke="rgb(0%,0%,0%)" x1="231.923642651" x2="236.470551949" y1="400.89605678" y2="398.599021137" /><line stroke="rgb(0%,0%,0%)" x1="231.923642651" x2="225.602681061" y1="400.89605678" y2="405.351333162" /><line stroke="rgb(0%,0%,0%)" x1="236.470551949" x2="241.250300676" y1="398.599021137" y2="395.226982126" /><line stroke="rgb(0%,0%,0%)" x1="249.924128963" x2="245.123485124" y1="383.666862614" y2="392.305936125" /><line stroke="rgb(0%,0%,0%)" x1="252.901696406" x2="254.719665619" y1="377.809519046" y2="375.260366428" /><line stroke="rgb(0%,0%,0%)" x1="261.501014632" x2="260.795158845" y1="367.350750537" y2="368.106034612" /><line stroke="rgb(0%,0%,0%)" x1="260.795158845" x2="254.719665619" y1="368.106034612" y2="375.260366428" /><line stroke="rgb(0%,0%,0%)" x1="268.130693889" x2="261.702020114" y1="361.283929569" y2="367.124388042" /><line stroke="rgb(0%,0%,0%)" x1="269.836132795" x2="268.130693889" y1="359.519842359" y2="361.283929569" /><line stroke="rgb(0%,0%,0%)" x1="285.975865843" x2="283.11832218" y1="342.621235983" y2="345.490937318" /><line stroke="rgb(0%,0%,0%)" x1="287.025312411" x2="286.423012511" y1="341.932511589" y2="342.372127187" /><line stroke="rgb(0%,0%,0%)" x1="286.423012511" x2="285.975865843" y1="342.372127187" y2="342.621235983" /><line stroke="rgb(0%,0%,0%)" x1="287.280381616" x2="287.077547857" y1="310.637383953" y2="310.898296881" /><line stroke="rgb(0%,0%,0%)" x1="312.228927207" x2="310.837236384" y1="329.789313154" y2="330.305593305" /><line stroke="rgb(0%,0%,0%)" x1="314.154340429" x2="312.228927207" y1="329.284553801" y2="329.789313154" /><line stroke="rgb(0%,0%,0%)" x1="208.111466833" x2="209.902176999" y1="422.506024742" y2="418.347262765" /><line stroke="rgb(0%,0%,0%)" x1="208.111466833" x2="203.943981899" y1="422.506024742" y2="434.673891245" /><line stroke="rgb(0%,0%,0%)" x1="213.677391461" x2="221.238686695" y1="412.243601188" y2="407.414410405" /><line stroke="rgb(0%,0%,0%)" x1="213.677391461" x2="209.902176999" y1="412.243601188" y2="418.347262765" /><line stroke="rgb(0%,0%,0%)" x1="243.327862662" x2="241.250300676" y1="394.050523609" y2="395.226982126" /><line stroke="rgb(0%,0%,0%)" x1="244.710756415" x2="243.327862662" y1="392.790771993" y2="394.050523609" /><line stroke="rgb(0%,0%,0%)" x1="245.123485124" x2="244.710756415" y1="392.305936125" y2="392.790771993" /><line stroke="rgb(0%,0%,0%)" x1="249.924128963" x2="251.89350918" y1="383.666862614" y2="379.107792142" /><line stroke="rgb(0%,0%,0%)" x1="252.901696406" x2="251.89350918" y1="377.809519046" y2="379.107792142" /><line stroke="rgb(0%,0%,0%)" x1="203.943981899" x2="201.163552485" y1="434.673891245" y2="450.140628831" /><line stroke="rgb(0%,0%,0%)" x1="223.766148934" x2="221.238686695" y1="406.06640243" y2="407.414410405" /><line stroke="rgb(0%,0%,0%)" x1="225.602681061" x2="223.766148934" y1="405.351333162" y2="406.06640243" /><line stroke="rgb(0%,0%,0%)" x1="598.057624567" x2="598.570828332" y1="596.57746232" y2="595.654317918" /><line stroke="rgb(0%,0%,0%)" x1="628.702135452" x2="627.126301798" y1="517.782880936" y2="523.48880724" /><line stroke="rgb(0%,0%,0%)" x1="632.38525699" x2="633.253797289" y1="511.638233866" y2="510.050026768" /><line stroke="rgb(0%,0%,0%)" x1="637.228881336" x2="637.870709091" y1="501.710738837" y2="499.481902915" /><line stroke="rgb(0%,0%,0%)" x1="645.91770125" x2="645.515757346" y1="464.304952347" y2="466.520177099" /><line stroke="rgb(0%,0%,0%)" x1="645.91770125" x2="646.136200987" y1="464.304952347" y2="463.20737031" /><line stroke="rgb(0%,0%,0%)" x1="598.057624567" x2="597.793751269" y1="596.57746232" y2="597.128824985" /><line stroke="rgb(0%,0%,0%)" x1="618.493629642" x2="619.511131703" y1="549.63683761" y2="546.795499905" /><line stroke="rgb(0%,0%,0%)" x1="628.702135452" x2="632.38525699" y1="517.782880936" y2="511.638233866" /><line stroke="rgb(0%,0%,0%)" x1="636.586026911" x2="637.228881336" y1="503.285449795" y2="501.710738837" /><line stroke="rgb(0%,0%,0%)" x1="633.253797289" x2="636.586026911" y1="510.050026768" y2="503.285449795" /><line stroke="rgb(0%,0%,0%)" x1="640.575064516" x2="640.549263415" y1="488.91014995" y2="490.793713272" /><line stroke="rgb(0%,0%,0%)" x1="642.071641812" x2="642.301186285" y1="480.007687742" y2="482.892423106" /><line stroke="rgb(0%,0%,0%)" x1="646.136200987" x2="646.455994347" y1="463.20737031" y2="457.057352572" /><line stroke="rgb(0%,0%,0%)" x1="586.193379344" x2="586.316795246" y1="621.834859066" y2="621.547985993" /><line stroke="rgb(0%,0%,0%)" x1="586.193379344" x2="586.145688627" y1="621.834859066" y2="621.993360824" /><line stroke="rgb(0%,0%,0%)" x1="586.316795246" x2="588.782318472" y1="621.547985993" y2="613.409341473" /><line stroke="rgb(0%,0%,0%)" x1="588.782318472" x2="589.359496999" y1="613.409341473" y2="612.37205184" /><line stroke="rgb(0%,0%,0%)" x1="608.278030466" x2="606.255989116" y1="576.529300313" y2="580.723514131" /><line stroke="rgb(0%,0%,0%)" x1="616.006506956" x2="615.573331182" y1="554.388540873" y2="556.965932577" /><line stroke="rgb(0%,0%,0%)" x1="616.006506956" x2="617.339590475" y1="554.388540873" y2="552.011659733" /><line stroke="rgb(0%,0%,0%)" x1="617.339590475" x2="618.493629642" y1="552.011659733" y2="549.63683761" /><line stroke="rgb(0%,0%,0%)" x1="637.870709091" x2="640.549263415" y1="499.481902915" y2="490.793713272" /><line stroke="rgb(0%,0%,0%)" x1="640.575064516" x2="641.851069783" y1="488.91014995" y2="485.571446876" /><line stroke="rgb(0%,0%,0%)" x1="642.071641812" x2="642.889393534" y1="480.007687742" y2="477.435028834" /><line stroke="rgb(0%,0%,0%)" x1="642.889393534" x2="645.515757346" y1="477.435028834" y2="466.520177099" /><line stroke="rgb(0%,0%,0%)" x1="586.145688627" x2="585.189194843" y1="621.993360824" y2="623.919411954" /><line stroke="rgb(0%,0%,0%)" x1="580.153450232" x2="585.189194843" y1="632.374488822" y2="623.919411954" /><line stroke="rgb(0%,0%,0%)" x1="594.283560912" x2="597.793751269" y1="601.935623366" y2="597.128824985" /><line stroke="rgb(0%,0%,0%)" x1="598.570828332" x2="606.255989116" y1="595.654317918" y2="580.723514131" /><line stroke="rgb(0%,0%,0%)" x1="608.278030466" x2="609.833876137" y1="576.529300313" y2="572.824902048" /><line stroke="rgb(0%,0%,0%)" x1="609.833876137" x2="615.573331182" y1="572.824902048" y2="556.965932577" /><line stroke="rgb(0%,0%,0%)" x1="619.511131703" x2="620.980905923" y1="546.795499905" y2="541.862823032" /><line stroke="rgb(0%,0%,0%)" x1="621.159478444" x2="620.980905923" y1="539.275952235" y2="541.862823032" /><line stroke="rgb(0%,0%,0%)" x1="621.159478444" x2="622.275684873" y1="539.275952235" y2="535.81188943" /><line stroke="rgb(0%,0%,0%)" x1="622.275684873" x2="623.995227307" y1="535.81188943" y2="533.313541156" /><line stroke="rgb(0%,0%,0%)" x1="623.995227307" x2="624.012113316" y1="533.313541156" y2="533.277240051" /><line stroke="rgb(0%,0%,0%)" x1="625.732389657" x2="624.012113316" y1="526.403550411" y2="533.277240051" /><line stroke="rgb(0%,0%,0%)" x1="534.366471334" x2="535.518303293" y1="695.308184196" y2="695.031685645" /><line stroke="rgb(0%,0%,0%)" x1="548.237910011" x2="543.703487805" y1="688.579087664" y2="692.136054877" /><line stroke="rgb(0%,0%,0%)" x1="558.707245991" x2="557.432640125" y1="676.589974024" y2="679.485170726" /><line stroke="rgb(0%,0%,0%)" x1="558.707245991" x2="559.383641289" y1="676.589974024" y2="675.167240882" /><line stroke="rgb(0%,0%,0%)" x1="559.383641289" x2="562.592504136" y1="675.167240882" y2="664.13990441" /><line stroke="rgb(0%,0%,0%)" x1="562.592504136" x2="567.384319302" y1="664.13990441" y2="656.433548616" /><line stroke="rgb(0%,0%,0%)" x1="567.979387446" x2="567.384319302" y1="654.773347046" y2="656.433548616" /><line stroke="rgb(0%,0%,0%)" x1="567.979387446" x2="570.696967108" y1="654.773347046" y2="650.287636431" /><line stroke="rgb(0%,0%,0%)" x1="579.741462438" x2="572.558754828" y1="633.312661739" y2="647.156596716" /><line stroke="rgb(0%,0%,0%)" x1="579.741462438" x2="580.153450232" y1="633.312661739" y2="632.374488822" /><line stroke="rgb(0%,0%,0%)" x1="589.359496999" x2="594.283560912" y1="612.37205184" y2="601.935623366" /><line stroke="rgb(0%,0%,0%)" x1="625.732389657" x2="625.987917235" y1="526.403550411" y2="525.489304135" /><line stroke="rgb(0%,0%,0%)" x1="625.987917235" x2="627.126301798" y1="525.489304135" y2="523.48880724" /><line stroke="rgb(0%,0%,0%)" x1="641.851069783" x2="642.301186285" y1="485.571446876" y2="482.892423106" /><line stroke="rgb(0%,0%,0%)" x1="495.013058987" x2="494.172913474" y1="714.171157218" y2="714.691933061" /><line stroke="rgb(0%,0%,0%)" x1="495.013058987" x2="496.997488434" y1="714.171157218" y2="713.472542531" /><line stroke="rgb(0%,0%,0%)" x1="506.781353819" x2="504.460684437" y1="708.847489252" y2="710.479293013" /><line stroke="rgb(0%,0%,0%)" x1="506.781353819" x2="510.23052228" y1="708.847489252" y2="707.77820809" /><line stroke="rgb(0%,0%,0%)" x1="534.366471334" x2="527.247175073" y1="695.308184196" y2="700.112254981" /><line stroke="rgb(0%,0%,0%)" x1="535.518303293" x2="541.714873336" y1="695.031685645" y2="693.160267369" /><line stroke="rgb(0%,0%,0%)" x1="548.237910011" x2="555.360439825" y1="688.579087664" y2="681.893695122" /><line stroke="rgb(0%,0%,0%)" x1="555.360439825" x2="555.955901327" y1="681.893695122" y2="680.948595012" /><line stroke="rgb(0%,0%,0%)" x1="555.955901327" x2="557.432640125" y1="680.948595012" y2="679.485170726" /><line stroke="rgb(0%,0%,0%)" x1="570.696967108" x2="572.441064273" y1="650.287636431" y2="647.212782615" /><line stroke="rgb(0%,0%,0%)" x1="572.441064273" x2="572.558754828" y1="647.212782615" y2="647.156596716" /><line stroke="rgb(0%,0%,0%)" x1="494.172913474" x2="492.557860686" y1="714.691933061" y2="715.468540655" /><line stroke="rgb(0%,0%,0%)" x1="496.997488434" x2="504.460684437" y1="713.472542531" y2="710.479293013" /><line stroke="rgb(0%,0%,0%)" x1="510.23052228" x2="517.347674212" y1="707.77820809" y2="704.190534921" /><line stroke="rgb(0%,0%,0%)" x1="517.347674212" x2="523.594369315" y1="704.190534921" y2="702.539699687" /><line stroke="rgb(0%,0%,0%)" x1="523.594369315" x2="527.247175073" y1="702.539699687" y2="700.112254981" /><line stroke="rgb(0%,0%,0%)" x1="541.714873336" x2="543.703487805" y1="693.160267369" y2="692.136054877" /><line stroke="rgb(0%,0%,0%)" x1="450.494009121" x2="448.605478876" y1="718.537554253" y2="718.471993244" /><line stroke="rgb(0%,0%,0%)" x1="450.494009121" x2="453.613425552" y1="718.537554253" y2="718.044552627" /><line stroke="rgb(0%,0%,0%)" x1="453.613425552" x2="465.886681255" y1="718.044552627" y2="719.731771193" /><line stroke="rgb(0%,0%,0%)" x1="465.886681255" x2="466.582492061" y1="719.731771193" y2="719.644471143" /><line stroke="rgb(0%,0%,0%)" x1="466.582492061" x2="485.648900139" y1="719.644471143" y2="716.316033412" /><line stroke="rgb(0%,0%,0%)" x1="489.580819976" x2="485.648900139" y1="715.514712726" y2="716.316033412" /><line stroke="rgb(0%,0%,0%)" x1="489.580819976" x2="492.557860686" y1="715.514712726" y2="715.468540655" /><line stroke="rgb(0%,0%,0%)" x1="417.986479334" x2="417.04274453" y1="701.341897839" y2="700.341735505" /><line stroke="rgb(0%,0%,0%)" x1="422.564451962" x2="425.737554437" y1="704.198474347" y2="707.636813682" /><line stroke="rgb(0%,0%,0%)" x1="448.605478876" x2="439.837768914" y1="718.471993244" y2="715.414864966" /><line stroke="rgb(0%,0%,0%)" x1="437.596416577" x2="439.837768914" y1="714.80981623" y2="715.414864966" /><line stroke="rgb(0%,0%,0%)" x1="377.182405208" x2="374.904703206" y1="683.321314609" y2="682.739476065" /><line stroke="rgb(0%,0%,0%)" x1="377.182405208" x2="379.199085235" y1="683.321314609" y2="683.494218129" /><line stroke="rgb(0%,0%,0%)" x1="389.33037013" x2="396.980123834" y1="683.227275955" y2="681.924177389" /><line stroke="rgb(0%,0%,0%)" x1="412.608642233" x2="408.539019624" y1="697.434688959" y2="693.845346497" /><line stroke="rgb(0%,0%,0%)" x1="403.591536972" x2="408.539019624" y1="687.888566105" y2="693.845346497" /><line stroke="rgb(0%,0%,0%)" x1="403.591536972" x2="401.097999915" y1="687.888566105" y2="683.09072269" /><line stroke="rgb(0%,0%,0%)" x1="401.097999915" x2="398.565960993" y1="683.09072269" y2="681.704501937" /><line stroke="rgb(0%,0%,0%)" x1="396.980123834" x2="398.565960993" y1="681.924177389" y2="681.704501937" /><line stroke="rgb(0%,0%,0%)" x1="412.608642233" x2="417.04274453" y1="697.434688959" y2="700.341735505" /><line stroke="rgb(0%,0%,0%)" x1="425.737554437" x2="430.623546405" y1="707.636813682" y2="710.151550202" /><line stroke="rgb(0%,0%,0%)" x1="430.623546405" x2="437.222744299" y1="710.151550202" y2="714.710438937" /><line stroke="rgb(0%,0%,0%)" x1="417.986479334" x2="422.564451962" y1="701.341897839" y2="704.198474347" /><line stroke="rgb(0%,0%,0%)" x1="437.222744299" x2="437.596416577" y1="714.710438937" y2="714.80981623" /><line stroke="rgb(0%,0%,0%)" x1="374.904703206" x2="371.718506544" y1="682.739476065" y2="681.31117809" /><line stroke="rgb(0%,0%,0%)" x1="365.104469172" x2="371.718506544" y1="678.876640792" y2="681.31117809" /><line stroke="rgb(0%,0%,0%)" x1="360.230104724" x2="365.104469172" y1="675.414606884" y2="678.876640792" /><line stroke="rgb(0%,0%,0%)" x1="358.718028061" x2="360.230104724" y1="674.673250004" y2="675.414606884" /><line stroke="rgb(0%,0%,0%)" x1="349.383375031" x2="358.718028061" y1="670.417920261" y2="674.673250004" /><line stroke="rgb(0%,0%,0%)" x1="379.199085235" x2="389.33037013" y1="683.494218129" y2="683.227275955" /><line stroke="rgb(0%,0%,0%)" x1="232.785972275" x2="234.005236013" y1="512.444039882" y2="514.024762813" /><line stroke="rgb(0%,0%,0%)" x1="234.005236013" x2="234.006570053" y1="514.024762813" y2="514.117378286" /><line stroke="rgb(0%,0%,0%)" x1="232.785972275" x2="231.472668203" y1="512.444039882" y2="511.29426722" /><line stroke="rgb(0%,0%,0%)" x1="327.745180823" x2="324.038615386" y1="660.421430643" y2="656.896267867" /><line stroke="rgb(0%,0%,0%)" x1="327.745180823" x2="334.310850106" y1="660.421430643" y2="662.903190022" /><line stroke="rgb(0%,0%,0%)" x1="321.499714881" x2="315.238129345" y1="623.39442939" y2="629.243321858" /><line stroke="rgb(0%,0%,0%)" x1="311.388887295" x2="315.238129345" y1="632.530627427" y2="629.243321858" /><line stroke="rgb(0%,0%,0%)" x1="349.383375031" x2="340.57293848" y1="670.417920261" y2="664.8296831" /><line stroke="rgb(0%,0%,0%)" x1="334.310850106" x2="340.57293848" y1="662.903190022" y2="664.8296831" /><line stroke="rgb(0%,0%,0%)" x1="231.472668203" x2="228.721900869" y1="511.29426722" y2="509.704594667" /><line stroke="rgb(0%,0%,0%)" x1="254.054321325" x2="255.458550695" y1="544.272911828" y2="544.973022444" /><line stroke="rgb(0%,0%,0%)" x1="254.054321325" x2="251.410649635" y1="544.272911828" y2="542.09517124" /><line stroke="rgb(0%,0%,0%)" x1="287.735948068" x2="284.93772511" y1="566.373696236" y2="565.684048226" /><line stroke="rgb(0%,0%,0%)" x1="279.538162317" x2="284.93772511" y1="561.821694006" y2="565.684048226" /><line stroke="rgb(0%,0%,0%)" x1="276.832000998" x2="279.538162317" y1="560.350937747" y2="561.821694006" /><line stroke="rgb(0%,0%,0%)" x1="276.832000998" x2="274.915822789" y1="560.350937747" y2="557.80810543" /><line stroke="rgb(0%,0%,0%)" x1="287.735948068" x2="291.544699879" y1="566.373696236" y2="568.672233561" /><line stroke="rgb(0%,0%,0%)" x1="314.205560816" x2="323.212910482" y1="640.903867019" y2="655.586148753" /><line stroke="rgb(0%,0%,0%)" x1="311.427451823" x2="314.205560816" y1="635.34112371" y2="640.903867019" /><line stroke="rgb(0%,0%,0%)" x1="311.427451823" x2="311.16010369" y1="635.34112371" y2="634.209689541" /><line stroke="rgb(0%,0%,0%)" x1="311.16010369" x2="311.388887295" y1="634.209689541" y2="632.530627427" /><line stroke="rgb(0%,0%,0%)" x1="309.293710843" x2="310.089380575" y1="575.529172616" y2="575.68016958" /><line stroke="rgb(0%,0%,0%)" x1="303.212571874" x2="309.293710843" y1="572.877070549" y2="575.529172616" /><line stroke="rgb(0%,0%,0%)" x1="323.212910482" x2="324.038615386" y1="655.586148753" y2="656.896267867" /><line stroke="rgb(0%,0%,0%)" x1="203.07088472" x2="207.051765084" y1="483.546533659" y2="492.062251936" /><line stroke="rgb(0%,0%,0%)" x1="202.703751541" x2="203.07088472" y1="482.822022854" y2="483.546533659" /><line stroke="rgb(0%,0%,0%)" x1="202.703751541" x2="202.86515725" y1="482.822022854" y2="480.654619883" /><line stroke="rgb(0%,0%,0%)" x1="240.432489621" x2="242.42160743" y1="522.633158887" y2="525.97156159" /><line stroke="rgb(0%,0%,0%)" x1="242.42160743" x2="244.678473472" y1="525.97156159" y2="528.905860472" /><line stroke="rgb(0%,0%,0%)" x1="238.95876759" x2="240.432489621" y1="519.734573087" y2="522.633158887" /><line stroke="rgb(0%,0%,0%)" x1="234.006570053" x2="238.95876759" y1="514.117378286" y2="519.734573087" /><line stroke="rgb(0%,0%,0%)" x1="266.219429412" x2="267.212458146" y1="551.367801145" y2="551.758288123" /><line stroke="rgb(0%,0%,0%)" x1="257.964397986" x2="261.325870273" y1="547.557682688" y2="549.626840277" /><line stroke="rgb(0%,0%,0%)" x1="261.325870273" x2="266.219429412" y1="549.626840277" y2="551.367801145" /><line stroke="rgb(0%,0%,0%)" x1="255.458550695" x2="257.964397986" y1="544.973022444" y2="547.557682688" /><line stroke="rgb(0%,0%,0%)" x1="273.660744657" x2="274.915822789" y1="557.185091898" y2="557.80810543" /><line stroke="rgb(0%,0%,0%)" x1="273.660744657" x2="268.18947337" y1="557.185091898" y2="552.232315683" /><line stroke="rgb(0%,0%,0%)" x1="267.843942158" x2="268.18947337" y1="552.052461454" y2="552.232315683" /><line stroke="rgb(0%,0%,0%)" x1="267.212458146" x2="267.843942158" y1="551.758288123" y2="552.052461454" /><line stroke="rgb(0%,0%,0%)" x1="207.051765084" x2="217.522411518" y1="492.062251936" y2="502.256553942" /><line stroke="rgb(0%,0%,0%)" x1="200.692349512" x2="202.86515725" y1="452.276417181" y2="480.654619883" /><line stroke="rgb(0%,0%,0%)" x1="217.522411518" x2="228.163525921" y1="502.256553942" y2="509.459161808" /><line stroke="rgb(0%,0%,0%)" x1="228.360731816" x2="228.721900869" y1="509.559203999" y2="509.704594667" /><line stroke="rgb(0%,0%,0%)" x1="228.163525921" x2="228.360731816" y1="509.459161808" y2="509.559203999" /><line stroke="rgb(0%,0%,0%)" x1="249.805814318" x2="251.410649635" y1="539.633352028" y2="542.09517124" /><line stroke="rgb(0%,0%,0%)" x1="245.268972448" x2="249.805814318" y1="529.814042588" y2="539.633352028" /><line stroke="rgb(0%,0%,0%)" x1="244.678473472" x2="245.268972448" y1="528.905860472" y2="529.814042588" /><line stroke="rgb(0%,0%,0%)" x1="312.64476821" x2="313.64096" y1="615.381759117" y2="616.424468805" /><line stroke="rgb(0%,0%,0%)" x1="313.64096" x2="314.45244876" y1="616.424468805" y2="616.756446878" /><line stroke="rgb(0%,0%,0%)" x1="201.163552485" x2="200.692349512" y1="450.140628831" y2="452.276417181" /><line stroke="rgb(0%,0%,0%)" x1="310.424987687" x2="305.76812192" y1="594.754022259" y2="596.572565085" /><line stroke="rgb(0%,0%,0%)" x1="312.667413713" x2="310.424987687" y1="593.828536958" y2="594.754022259" /><line stroke="rgb(0%,0%,0%)" x1="312.667413713" x2="315.454030527" y1="593.828536958" y2="593.123672437" /><line stroke="rgb(0%,0%,0%)" x1="301.463297394" x2="301.702263175" y1="572.121195067" y2="572.221020833" /><line stroke="rgb(0%,0%,0%)" x1="301.463297394" x2="301.324087854" y1="572.121195067" y2="572.032859558" /><line stroke="rgb(0%,0%,0%)" x1="291.544699879" x2="301.324087854" y1="568.672233561" y2="572.032859558" /><line stroke="rgb(0%,0%,0%)" x1="322.38842031" x2="315.454030527" y1="588.98195375" y2="593.123672437" /><line stroke="rgb(0%,0%,0%)" x1="322.38842031" x2="322.814441638" y1="588.98195375" y2="588.45627333" /><line stroke="rgb(0%,0%,0%)" x1="323.699291358" x2="323.689320075" y1="583.52155474" y2="583.619344496" /><line stroke="rgb(0%,0%,0%)" x1="323.699291358" x2="323.662450654" y1="583.52155474" y2="583.484141418" /><line stroke="rgb(0%,0%,0%)" x1="315.791971085" x2="313.175098789" y1="578.02412737" y2="576.863996426" /><line stroke="rgb(0%,0%,0%)" x1="301.702263175" x2="303.212571874" y1="572.221020833" y2="572.877070549" /><line stroke="rgb(0%,0%,0%)" x1="318.550202411" x2="318.201133536" y1="620.547553798" y2="620.172695819" /><line stroke="rgb(0%,0%,0%)" x1="318.550202411" x2="321.499714881" y1="620.547553798" y2="623.39442939" /><line stroke="rgb(0%,0%,0%)" x1="324.369055055" x2="322.814441638" y1="586.131443413" y2="588.45627333" /><line stroke="rgb(0%,0%,0%)" x1="323.689320075" x2="324.369055055" y1="583.619344496" y2="586.131443413" /><line stroke="rgb(0%,0%,0%)" x1="301.170419691" x2="302.062522334" y1="603.794810702" y2="604.081411092" /><line stroke="rgb(0%,0%,0%)" x1="300.075262117" x2="301.170419691" y1="602.634632632" y2="603.794810702" /><line stroke="rgb(0%,0%,0%)" x1="299.467959168" x2="299.106798083" y1="600.619459765" y2="599.995525451" /><line stroke="rgb(0%,0%,0%)" x1="299.467959168" x2="300.075262117" y1="600.619459765" y2="602.634632632" /><line stroke="rgb(0%,0%,0%)" x1="299.106798083" x2="300.066882087" y1="599.995525451" y2="599.031173814" /><line stroke="rgb(0%,0%,0%)" x1="305.76812192" x2="302.160293666" y1="596.572565085" y2="597.502099943" /><line stroke="rgb(0%,0%,0%)" x1="302.062522334" x2="303.561762814" y1="604.081411092" y2="606.097665563" /><line stroke="rgb(0%,0%,0%)" x1="302.160293666" x2="300.066882087" y1="597.502099943" y2="599.031173814" /><line stroke="rgb(0%,0%,0%)" x1="310.089380575" x2="313.175098789" y1="575.68016958" y2="576.863996426" /><line stroke="rgb(0%,0%,0%)" x1="319.209088882" x2="323.662450654" y1="579.709132783" y2="583.484141418" /><line stroke="rgb(0%,0%,0%)" x1="315.791971085" x2="319.209088882" y1="578.02412737" y2="579.709132783" /><line stroke="rgb(0%,0%,0%)" x1="317.257567463" x2="316.384753791" y1="619.086633978" y2="618.605442489" /><line stroke="rgb(0%,0%,0%)" x1="312.64476821" x2="310.676427829" y1="615.381759117" y2="612.841087967" /><line stroke="rgb(0%,0%,0%)" x1="307.307257649" x2="309.708098088" y1="610.047027243" y2="612.342184421" /><line stroke="rgb(0%,0%,0%)" x1="309.708098088" x2="310.676427829" y1="612.342184421" y2="612.841087967" /><line stroke="rgb(0%,0%,0%)" x1="307.307257649" x2="303.91775001" y1="610.047027243" y2="606.508271109" /><line stroke="rgb(0%,0%,0%)" x1="317.257567463" x2="318.201133536" y1="619.086633978" y2="620.172695819" /><line stroke="rgb(0%,0%,0%)" x1="314.45244876" x2="316.384753791" y1="616.756446878" y2="618.605442489" /><line stroke="rgb(0%,0%,0%)" x1="303.561762814" x2="303.91775001" y1="606.097665563" y2="606.508271109" /></svg>