<?xml version="1.0" encoding="utf-8" ?>
<svg baseProfile="full" height="100%" version="1.1" viewBox="0.5 0.5 685.793960571 941.299331665" width="100%" xmlns="http://www.w3.org/2000/svg" xmlns:ev="http://www.w3.org/2001/xml-events" xmlns:xlink="http://www.w3.org/1999/xlink"><defs /><line stroke="rgb(0%,0%,0%)" x1="630.138711571" x2="630.234810583" y1="455.951261731" y2="453.674927433" /><line stroke="rgb(0%,0%,0%)" x1="629.602102253" x2="629.729460552" y1="438.132845009" y2="438.848674899" /><line stroke="rgb(0%,0%,0%)" x1="613.51470295" x2="614.572585837" y1="386.861212789" y2="389.574421699" /><line stroke="rgb(0%,0%,0%)" x1="629.602102253" x2="629.222929086" y1="438.132845009" y2="435.57603985" /><line stroke="rgb(0%,0%,0%)" x1="613.51470295" x2="610.994356063" y1="386.861212789" y2="380.226954313" /><line stroke="rgb(0%,0%,0%)" x1="621.553878409" x2="623.135862466" y1="409.108686516" y2="414.198058587" /><line stroke="rgb(0%,0%,0%)" x1="621.553878409" x2="621.163396278" y1="409.108686516" y2="408.001972922" /><line stroke="rgb(0%,0%,0%)" x1="619.549827236" x2="618.968650397" y1="405.606158166" y2="401.968533143" /><line stroke="rgb(0%,0%,0%)" x1="617.602004829" x2="618.968650397" y1="397.227806167" y2="401.968533143" /><line stroke="rgb(0%,0%,0%)" x1="630.234810583" x2="629.729460552" y1="453.674927433" y2="438.848674899" /><line stroke="rgb(0%,0%,0%)" x1="568.666571009" x2="562.169242484" y1="312.640359848" y2="304.660217881" /><line stroke="rgb(0%,0%,0%)" x1="585.785436911" x2="591.441389215" y1="342.443928192" y2="350.240675729" /><line stroke="rgb(0%,0%,0%)" x1="585.785436911" x2="584.605790281" y1="342.443928192" y2="339.08471791" /><line stroke="rgb(0%,0%,0%)" x1="572.917682166" x2="576.440599333" y1="321.097806922" y2="327.527005143" /><line stroke="rgb(0%,0%,0%)" x1="610.994356063" x2="607.892963165" y1="380.226954313" y2="374.172578461" /><line stroke="rgb(0%,0%,0%)" x1="602.027828366" x2="606.709199834" y1="366.743529344" y2="372.726774632" /><line stroke="rgb(0%,0%,0%)" x1="629.222929086" x2="628.071356792" y1="435.57603985" y2="431.543170333" /><line stroke="rgb(0%,0%,0%)" x1="628.071356792" x2="627.690499033" y1="431.543170333" y2="429.79624309" /><line stroke="rgb(0%,0%,0%)" x1="627.690499033" x2="625.368766243" y1="429.79624309" y2="422.002077203" /><line stroke="rgb(0%,0%,0%)" x1="624.700741111" x2="623.135862466" y1="419.988495429" y2="414.198058587" /><line stroke="rgb(0%,0%,0%)" x1="621.163396278" x2="619.549827236" y1="408.001972922" y2="405.606158166" /><line stroke="rgb(0%,0%,0%)" x1="617.602004829" x2="615.687158081" y1="397.227806167" y2="394.012596865" /><line stroke="rgb(0%,0%,0%)" x1="535.420704859" x2="536.392708626" y1="282.609723841" y2="283.022791877" /><line stroke="rgb(0%,0%,0%)" x1="562.169242484" x2="561.186572002" y1="304.660217881" y2="301.402718083" /><line stroke="rgb(0%,0%,0%)" x1="561.186572002" x2="558.862593075" y1="301.402718083" y2="299.720336159" /><line stroke="rgb(0%,0%,0%)" x1="581.484705997" x2="576.440599333" y1="333.957885831" y2="327.527005143" /><line stroke="rgb(0%,0%,0%)" x1="572.917682166" x2="570.411797943" y1="321.097806922" y2="314.519319637" /><line stroke="rgb(0%,0%,0%)" x1="584.605790281" x2="581.484705997" y1="339.08471791" y2="333.957885831" /><line stroke="rgb(0%,0%,0%)" x1="607.892963165" x2="606.709199834" y1="374.172578461" y2="372.726774632" /><line stroke="rgb(0%,0%,0%)" x1="602.027828366" x2="600.625177788" y1="366.743529344" y2="365.318132305" /><line stroke="rgb(0%,0%,0%)" x1="600.625177788" x2="594.284790677" y1="365.318132305" y2="354.663209157" /><line stroke="rgb(0%,0%,0%)" x1="593.451717111" x2="591.441389215" y1="354.077865337" y2="350.240675729" /><line stroke="rgb(0%,0%,0%)" x1="615.687158081" x2="614.572585837" y1="394.012596865" y2="389.574421699" /><line stroke="rgb(0%,0%,0%)" x1="511.961080236" x2="509.747276259" y1="265.41745047" y2="264.563543184" /><line stroke="rgb(0%,0%,0%)" x1="505.315585473" x2="502.05051423" y1="259.763852236" y2="258.000145016" /><line stroke="rgb(0%,0%,0%)" x1="531.364263229" x2="530.053720856" y1="280.087899047" y2="279.546019179" /><line stroke="rgb(0%,0%,0%)" x1="530.053720856" x2="522.39684108" y1="279.546019179" y2="273.792504026" /><line stroke="rgb(0%,0%,0%)" x1="511.961080236" x2="515.962571095" y1="265.41745047" y2="268.909189083" /><line stroke="rgb(0%,0%,0%)" x1="522.39684108" x2="515.962571095" y1="273.792504026" y2="268.909189083" /><line stroke="rgb(0%,0%,0%)" x1="535.420704859" x2="531.701263202" y1="282.609723841" y2="280.066618108" /><line stroke="rgb(0%,0%,0%)" x1="531.701263202" x2="531.364263229" y1="280.066618108" y2="280.087899047" /><line stroke="rgb(0%,0%,0%)" x1="554.818782996" x2="550.311249774" y1="294.600730519" y2="291.387349098" /><line stroke="rgb(0%,0%,0%)" x1="550.311249774" x2="546.08096519" y1="291.387349098" y2="290.538280177" /><line stroke="rgb(0%,0%,0%)" x1="546.08096519" x2="543.945316241" y1="290.538280177" y2="288.986260366" /><line stroke="rgb(0%,0%,0%)" x1="543.945316241" x2="543.346726607" y1="288.986260366" y2="286.530446592" /><line stroke="rgb(0%,0%,0%)" x1="540.080980133" x2="543.346726607" y1="285.555285089" y2="286.530446592" /><line stroke="rgb(0%,0%,0%)" x1="540.080980133" x2="536.392708626" y1="285.555285089" y2="283.022791877" /><line stroke="rgb(0%,0%,0%)" x1="558.862593075" x2="558.20028284" y1="299.720336159" y2="299.513758895" /><line stroke="rgb(0%,0%,0%)" x1="558.20028284" x2="557.759961312" y1="299.513758895" y2="298.350650383" /><line stroke="rgb(0%,0%,0%)" x1="554.818782996" x2="557.759961312" y1="294.600730519" y2="298.350650383" /><line stroke="rgb(0%,0%,0%)" x1="570.411797943" x2="568.666571009" y1="314.519319637" y2="312.640359848" /><line stroke="rgb(0%,0%,0%)" x1="594.284790677" x2="593.451717111" y1="354.663209157" y2="354.077865337" /><line stroke="rgb(0%,0%,0%)" x1="625.368766243" x2="624.700741111" y1="422.002077203" y2="419.988495429" /><line stroke="rgb(0%,0%,0%)" x1="487.585022484" x2="486.160142421" y1="247.779045814" y2="246.918066028" /><line stroke="rgb(0%,0%,0%)" x1="486.160142421" x2="482.73216849" y1="246.918066028" y2="245.13256517" /><line stroke="rgb(0%,0%,0%)" x1="502.05051423" x2="498.994603345" y1="258.000145016" y2="255.656736562" /><line stroke="rgb(0%,0%,0%)" x1="498.994603345" x2="495.673078662" y1="255.656736562" y2="253.31354117" /><line stroke="rgb(0%,0%,0%)" x1="495.673078662" x2="494.659946882" y1="253.31354117" y2="252.477725367" /><line stroke="rgb(0%,0%,0%)" x1="509.747276259" x2="508.267316987" y1="264.563543184" y2="263.071959082" /><line stroke="rgb(0%,0%,0%)" x1="505.315585473" x2="507.228354398" y1="259.763852236" y2="262.349515393" /><line stroke="rgb(0%,0%,0%)" x1="462.279486074" x2="458.744801154" y1="235.320097813" y2="232.759445805" /><line stroke="rgb(0%,0%,0%)" x1="462.279486074" x2="465.916204163" y1="235.320097813" y2="237.138840654" /><line stroke="rgb(0%,0%,0%)" x1="453.509036751" x2="447.441609178" y1="233.152518076" y2="230.861756026" /><line stroke="rgb(0%,0%,0%)" x1="471.041924043" x2="477.960639528" y1="237.82812172" y2="242.31573317" /><line stroke="rgb(0%,0%,0%)" x1="491.06478006" x2="487.585022484" y1="249.185875167" y2="247.779045814" /><line stroke="rgb(0%,0%,0%)" x1="491.06478006" x2="494.659946882" y1="249.185875167" y2="252.477725367" /><line stroke="rgb(0%,0%,0%)" x1="508.267316987" x2="507.228354398" y1="263.071959082" y2="262.349515393" /><line stroke="rgb(0%,0%,0%)" x1="438.949286793" x2="447.441609178" y1="230.775395442" y2="230.861756026" /><line stroke="rgb(0%,0%,0%)" x1="458.744801154" x2="453.509036751" y1="232.759445805" y2="233.152518076" /><line stroke="rgb(0%,0%,0%)" x1="471.041924043" x2="465.916204163" y1="237.82812172" y2="237.138840654" /><line stroke="rgb(0%,0%,0%)" x1="482.73216849" x2="477.960639528" y1="245.13256517" y2="242.31573317" /><line stroke="rgb(0%,0%,0%)" x1="418.254830174" x2="416.259491571" y1="237.821801381" y2="237.064679243" /><line stroke="rgb(0%,0%,0%)" x1="423.960151156" x2="418.254830174" y1="237.748729749" y2="237.821801381" /><line stroke="rgb(0%,0%,0%)" x1="424.770716317" x2="423.960151156" y1="237.498985631" y2="237.748729749" /><line stroke="rgb(0%,0%,0%)" x1="416.259491571" x2="411.450033275" y1="237.064679243" y2="236.05191623" /><line stroke="rgb(0%,0%,0%)" x1="424.770716317" x2="425.123520408" y1="237.498985631" y2="237.239768067" /><line stroke="rgb(0%,0%,0%)" x1="425.617463421" x2="425.123520408" y1="237.115003469" y2="237.239768067" /><line stroke="rgb(0%,0%,0%)" x1="438.949286793" x2="425.617463421" y1="230.775395442" y2="237.115003469" /><line stroke="rgb(0%,0%,0%)" x1="386.718132782" x2="381.986291251" y1="234.107747476" y2="239.069954718" /><line stroke="rgb(0%,0%,0%)" x1="386.718132782" x2="389.367773321" y1="234.107747476" y2="233.437532484" /><line stroke="rgb(0%,0%,0%)" x1="399.622744698" x2="395.291076366" y1="232.727598712" y2="233.380672111" /><line stroke="rgb(0%,0%,0%)" x1="389.367773321" x2="395.291076366" y1="233.437532484" y2="233.380672111" /><line stroke="rgb(0%,0%,0%)" x1="402.432424484" x2="411.450033275" y1="233.334461732" y2="236.05191623" /><line stroke="rgb(0%,0%,0%)" x1="402.432424484" x2="399.622744698" y1="233.334461732" y2="232.727598712" /><line stroke="rgb(0%,0%,0%)" x1="340.607554094" x2="340.555157513" y1="252.038914615" y2="252.164774654" /><line stroke="rgb(0%,0%,0%)" x1="340.607554094" x2="340.705014431" y1="252.038914615" y2="251.935166256" /><line stroke="rgb(0%,0%,0%)" x1="340.705014431" x2="341.199400712" y1="251.935166256" y2="251.378113939" /><line stroke="rgb(0%,0%,0%)" x1="354.898968728" x2="354.728712766" y1="315.012013791" y2="313.836168002" /><line stroke="rgb(0%,0%,0%)" x1="351.472227496" x2="346.566575041" y1="244.761097952" y2="245.075798857" /><line stroke="rgb(0%,0%,0%)" x1="353.577099955" x2="351.472227496" y1="243.431619182" y2="244.761097952" /><line stroke="rgb(0%,0%,0%)" x1="355.008107571" x2="354.728712766" y1="312.677683836" y2="313.836168002" /><line stroke="rgb(0%,0%,0%)" x1="354.30339842" x2="355.008107571" y1="312.473808343" y2="312.677683836" /><line stroke="rgb(0%,0%,0%)" x1="353.577099955" x2="370.38417707" y1="243.431619182" y2="242.602209894" /><line stroke="rgb(0%,0%,0%)" x1="372.767378886" x2="370.38417707" y1="242.534487218" y2="242.602209894" /><line stroke="rgb(0%,0%,0%)" x1="373.157763339" x2="372.767378886" y1="242.558594479" y2="242.534487218" /><line stroke="rgb(0%,0%,0%)" x1="374.158904613" x2="373.157763339" y1="242.297369705" y2="242.558594479" /><line stroke="rgb(0%,0%,0%)" x1="381.986291251" x2="374.158904613" y1="239.069954718" y2="242.297369705" /><line stroke="rgb(0%,0%,0%)" x1="292.670905051" x2="291.753534574" y1="327.460597192" y2="327.566303752" /><line stroke="rgb(0%,0%,0%)" x1="300.159731036" x2="292.670905051" y1="325.139192733" y2="327.460597192" /><line stroke="rgb(0%,0%,0%)" x1="301.878194222" x2="300.159731036" y1="324.501688756" y2="325.139192733" /><line stroke="rgb(0%,0%,0%)" x1="301.878194222" x2="305.420199104" y1="324.501688756" y2="323.573129592" /><line stroke="rgb(0%,0%,0%)" x1="319.989231139" x2="319.874107784" y1="294.567422675" y2="294.761958815" /><line stroke="rgb(0%,0%,0%)" x1="319.874107784" x2="320.54758608" y1="294.761958815" y2="296.229324706" /><line stroke="rgb(0%,0%,0%)" x1="325.854491293" x2="329.586657669" y1="299.530282373" y2="301.148190127" /><line stroke="rgb(0%,0%,0%)" x1="320.78482894" x2="320.54758608" y1="296.33700946" y2="296.229324706" /><line stroke="rgb(0%,0%,0%)" x1="319.989231139" x2="320.186846745" y1="294.567422675" y2="294.204281504" /><line stroke="rgb(0%,0%,0%)" x1="320.978261941" x2="320.186846745" y1="292.972016632" y2="294.204281504" /><line stroke="rgb(0%,0%,0%)" x1="321.157014916" x2="320.978261941" y1="291.954327838" y2="292.972016632" /><line stroke="rgb(0%,0%,0%)" x1="323.663428751" x2="322.172856128" y1="289.38340419" y2="290.635573682" /><line stroke="rgb(0%,0%,0%)" x1="332.661582456" x2="332.570721076" y1="265.356675776" y2="265.875296249" /><line stroke="rgb(0%,0%,0%)" x1="332.661582456" x2="332.996561128" y1="265.356675776" y2="264.426239354" /><line stroke="rgb(0%,0%,0%)" x1="329.958766412" x2="333.525702725" y1="319.645184521" y2="318.490696223" /><line stroke="rgb(0%,0%,0%)" x1="338.585519178" x2="333.407358779" y1="305.786683368" y2="303.265960936" /><line stroke="rgb(0%,0%,0%)" x1="329.586657669" x2="333.407358779" y1="301.148190127" y2="303.265960936" /><line stroke="rgb(0%,0%,0%)" x1="320.78482894" x2="325.854491293" y1="296.33700946" y2="299.530282373" /><line stroke="rgb(0%,0%,0%)" x1="323.663428751" x2="327.013068182" y1="289.38340419" y2="287.084482483" /><line stroke="rgb(0%,0%,0%)" x1="329.358892582" x2="327.013068182" y1="285.901193391" y2="287.084482483" /><line stroke="rgb(0%,0%,0%)" x1="332.546845653" x2="329.358892582" y1="283.868142269" y2="285.901193391" /><line stroke="rgb(0%,0%,0%)" x1="332.20217557" x2="339.279454708" y1="269.196573894" y2="274.510241008" /><line stroke="rgb(0%,0%,0%)" x1="332.570721076" x2="332.20217557" y1="265.875296249" y2="269.196573894" /><line stroke="rgb(0%,0%,0%)" x1="340.555157513" x2="332.996561128" y1="252.164774654" y2="264.426239354" /><line stroke="rgb(0%,0%,0%)" x1="347.887451057" x2="345.741430583" y1="316.208469525" y2="316.867330153" /><line stroke="rgb(0%,0%,0%)" x1="345.741430583" x2="333.525702725" y1="316.867330153" y2="318.490696223" /><line stroke="rgb(0%,0%,0%)" x1="354.898968728" x2="347.887451057" y1="315.012013791" y2="316.208469525" /><line stroke="rgb(0%,0%,0%)" x1="338.585519178" x2="344.097129708" y1="305.786683368" y2="308.498452151" /><line stroke="rgb(0%,0%,0%)" x1="341.543417822" x2="337.652210437" y1="277.549131" y2="280.060239637" /><line stroke="rgb(0%,0%,0%)" x1="332.546845653" x2="337.652210437" y1="283.868142269" y2="280.060239637" /><line stroke="rgb(0%,0%,0%)" x1="342.075050567" x2="341.543417822" y1="277.231508234" y2="277.549131" /><line stroke="rgb(0%,0%,0%)" x1="339.279454708" x2="342.075050567" y1="274.510241008" y2="277.231508234" /><line stroke="rgb(0%,0%,0%)" x1="346.566575041" x2="341.199400712" y1="245.075798857" y2="251.378113939" /><line stroke="rgb(0%,0%,0%)" x1="348.411845593" x2="354.30339842" y1="309.711839927" y2="312.473808343" /><line stroke="rgb(0%,0%,0%)" x1="344.097129708" x2="348.411845593" y1="308.498452151" y2="309.711839927" /><line stroke="rgb(0%,0%,0%)" x1="317.696293154" x2="305.420199104" y1="320.778870249" y2="323.573129592" /><line stroke="rgb(0%,0%,0%)" x1="329.958766412" x2="317.696293154" y1="319.645184521" y2="320.778870249" /><line stroke="rgb(0%,0%,0%)" x1="322.172856128" x2="321.157014916" y1="290.635573682" y2="291.954327838" /><line stroke="rgb(0%,0%,0%)" x1="252.063968736" x2="256.411515655" y1="350.104181318" y2="346.709218105" /><line stroke="rgb(0%,0%,0%)" x1="252.063968736" x2="249.094208729" y1="350.104181318" y2="353.777407138" /><line stroke="rgb(0%,0%,0%)" x1="264.351351928" x2="268.279206049" y1="339.097844" y2="337.954662731" /><line stroke="rgb(0%,0%,0%)" x1="259.507742285" x2="263.381539791" y1="343.767933767" y2="340.100597812" /><line stroke="rgb(0%,0%,0%)" x1="264.351351928" x2="263.381539791" y1="339.097844" y2="340.100597812" /><line stroke="rgb(0%,0%,0%)" x1="269.602604899" x2="268.279206049" y1="336.529301682" y2="337.954662731" /><line stroke="rgb(0%,0%,0%)" x1="269.602604899" x2="272.365672638" y1="336.529301682" y2="335.573736818" /><line stroke="rgb(0%,0%,0%)" x1="274.759817939" x2="272.365672638" y1="333.988987585" y2="335.573736818" /><line stroke="rgb(0%,0%,0%)" x1="276.869715512" x2="274.759817939" y1="333.24832348" y2="333.988987585" /><line stroke="rgb(0%,0%,0%)" x1="279.758902408" x2="276.869715512" y1="332.574925678" y2="333.24832348" /><line stroke="rgb(0%,0%,0%)" x1="286.314438932" x2="279.758902408" y1="329.259346176" y2="332.574925678" /><line stroke="rgb(0%,0%,0%)" x1="291.753534574" x2="286.314438932" y1="327.566303752" y2="329.259346176" /><line stroke="rgb(0%,0%,0%)" x1="218.879019411" x2="216.421243869" y1="380.388005305" y2="381.855351275" /><line stroke="rgb(0%,0%,0%)" x1="218.879019411" x2="220.893060066" y1="380.388005305" y2="379.260365637" /><line stroke="rgb(0%,0%,0%)" x1="234.599714509" x2="234.071464576" y1="371.076510477" y2="371.348731192" /><line stroke="rgb(0%,0%,0%)" x1="241.66570521" x2="234.599714509" y1="361.504213423" y2="371.076510477" /><line stroke="rgb(0%,0%,0%)" x1="245.76177527" x2="241.66570521" y1="356.717373218" y2="361.504213423" /><line stroke="rgb(0%,0%,0%)" x1="249.094208729" x2="245.76177527" y1="353.777407138" y2="356.717373218" /><line stroke="rgb(0%,0%,0%)" x1="259.507742285" x2="256.411515655" y1="343.767933767" y2="346.709218105" /><line stroke="rgb(0%,0%,0%)" x1="189.044212987" x2="176.190565877" y1="401.571845423" y2="410.621124467" /><line stroke="rgb(0%,0%,0%)" x1="189.044212987" x2="200.396163325" y1="401.571845423" y2="393.96076821" /><line stroke="rgb(0%,0%,0%)" x1="208.052154293" x2="201.981204424" y1="388.197617035" y2="392.889283928" /><line stroke="rgb(0%,0%,0%)" x1="209.813065158" x2="208.052154293" y1="386.653930639" y2="388.197617035" /><line stroke="rgb(0%,0%,0%)" x1="216.421243869" x2="209.813065158" y1="381.855351275" y2="386.653930639" /><line stroke="rgb(0%,0%,0%)" x1="230.818227654" x2="220.893060066" y1="374.009119045" y2="379.260365637" /><line stroke="rgb(0%,0%,0%)" x1="230.818227654" x2="234.071464576" y1="374.009119045" y2="371.348731192" /><line stroke="rgb(0%,0%,0%)" x1="143.517032742" x2="148.967551239" y1="427.433952845" y2="424.297249185" /><line stroke="rgb(0%,0%,0%)" x1="170.811070918" x2="160.00712507" y1="413.21249367" y2="420.107329358" /><line stroke="rgb(0%,0%,0%)" x1="176.190565877" x2="170.811070918" y1="410.621124467" y2="413.21249367" /><line stroke="rgb(0%,0%,0%)" x1="201.981204424" x2="200.396163325" y1="392.889283928" y2="393.96076821" /><line stroke="rgb(0%,0%,0%)" x1="138.602917794" x2="123.634045975" y1="428.726021534" y2="432.69525214" /><line stroke="rgb(0%,0%,0%)" x1="143.517032742" x2="138.602917794" y1="427.433952845" y2="428.726021534" /><line stroke="rgb(0%,0%,0%)" x1="160.00712507" x2="148.967551239" y1="420.107329358" y2="424.297249185" /><line stroke="rgb(0%,0%,0%)" x1="111.236358431" x2="117.7768247" y1="440.394320399" y2="448.95824591" /><line stroke="rgb(0%,0%,0%)" x1="111.236358431" x2="114.073824062" y1="440.394320399" y2="438.324783946" /><line stroke="rgb(0%,0%,0%)" x1="123.634045975" x2="114.073824062" y1="432.69525214" y2="438.324783946" /><line stroke="rgb(0%,0%,0%)" x1="630.138711571" x2="630.047863687" y1="455.951261731" y2="457.698377741" /><line stroke="rgb(0%,0%,0%)" x1="619.442812673" x2="621.34121765" y1="497.481375108" y2="491.956234395" /><line stroke="rgb(0%,0%,0%)" x1="628.192325182" x2="626.539750906" y1="467.492990829" y2="476.329533327" /><line stroke="rgb(0%,0%,0%)" x1="570.576360751" x2="565.963162256" y1="591.154541797" y2="599.230038116" /><line stroke="rgb(0%,0%,0%)" x1="571.313224057" x2="570.576360751" y1="589.92230504" y2="591.154541797" /><line stroke="rgb(0%,0%,0%)" x1="571.313224057" x2="572.711087645" y1="589.92230504" y2="587.021695723" /><line stroke="rgb(0%,0%,0%)" x1="606.820011418" x2="606.320927468" y1="521.882309526" y2="523.667970569" /><line stroke="rgb(0%,0%,0%)" x1="606.820011418" x2="608.061736895" y1="521.882309526" y2="519.700210398" /><line stroke="rgb(0%,0%,0%)" x1="619.442812673" x2="617.67026616" y1="497.481375108" y2="501.129665858" /><line stroke="rgb(0%,0%,0%)" x1="624.057339344" x2="626.197517579" y1="481.102290646" y2="477.276460579" /><line stroke="rgb(0%,0%,0%)" x1="628.192325182" x2="630.047863687" y1="467.492990829" y2="457.698377741" /><line stroke="rgb(0%,0%,0%)" x1="593.611005281" x2="588.427996095" y1="550.676258219" y2="562.465703762" /><line stroke="rgb(0%,0%,0%)" x1="593.611005281" x2="596.066387162" y1="550.676258219" y2="546.094162691" /><line stroke="rgb(0%,0%,0%)" x1="596.066387162" x2="598.302300329" y1="546.094162691" y2="539.901320192" /><line stroke="rgb(0%,0%,0%)" x1="598.984650531" x2="601.396139205" y1="538.964711457" y2="533.522106893" /><line stroke="rgb(0%,0%,0%)" x1="602.879904278" x2="605.505668057" y1="531.120370044" y2="525.509890122" /><line stroke="rgb(0%,0%,0%)" x1="605.505668057" x2="606.320927468" y1="525.509890122" y2="523.667970569" /><line stroke="rgb(0%,0%,0%)" x1="608.061736895" x2="609.403015907" y1="519.700210398" y2="516.890849771" /><line stroke="rgb(0%,0%,0%)" x1="609.403015907" x2="610.070030949" y1="516.890849771" y2="515.584926431" /><line stroke="rgb(0%,0%,0%)" x1="611.754526454" x2="610.070030949" y1="511.544260342" y2="515.584926431" /><line stroke="rgb(0%,0%,0%)" x1="615.050003765" x2="617.67026616" y1="506.543913801" y2="501.129665858" /><line stroke="rgb(0%,0%,0%)" x1="621.34121765" x2="622.309609558" y1="491.956234395" y2="488.568792633" /><line stroke="rgb(0%,0%,0%)" x1="622.309609558" x2="623.4540425" y1="488.568792633" y2="482.947235179" /><line stroke="rgb(0%,0%,0%)" x1="626.197517579" x2="626.539750906" y1="477.276460579" y2="476.329533327" /><line stroke="rgb(0%,0%,0%)" x1="547.722893218" x2="546.470450676" y1="626.661457333" y2="628.299475101" /><line stroke="rgb(0%,0%,0%)" x1="547.722893218" x2="551.717621201" y1="626.661457333" y2="624.607115504" /><line stroke="rgb(0%,0%,0%)" x1="556.751694964" x2="559.445285755" y1="614.742727802" y2="612.86516381" /><line stroke="rgb(0%,0%,0%)" x1="559.445285755" x2="564.672901291" y1="612.86516381" y2="601.615199772" /><line stroke="rgb(0%,0%,0%)" x1="572.711087645" x2="577.011952407" y1="587.021695723" y2="580.62608932" /><line stroke="rgb(0%,0%,0%)" x1="579.54352453" x2="586.869775155" y1="577.280358901" y2="566.004570042" /><line stroke="rgb(0%,0%,0%)" x1="577.011952407" x2="579.54352453" y1="580.62608932" y2="577.280358901" /><line stroke="rgb(0%,0%,0%)" x1="586.869775155" x2="588.427996095" y1="566.004570042" y2="562.465703762" /><line stroke="rgb(0%,0%,0%)" x1="598.302300329" x2="598.984650531" y1="539.901320192" y2="538.964711457" /><line stroke="rgb(0%,0%,0%)" x1="601.396139205" x2="601.745782708" y1="533.522106893" y2="532.823285684" /><line stroke="rgb(0%,0%,0%)" x1="601.745782708" x2="602.879904278" y1="532.823285684" y2="531.120370044" /><line stroke="rgb(0%,0%,0%)" x1="611.754526454" x2="612.896746185" y1="511.544260342" y2="509.666699049" /><line stroke="rgb(0%,0%,0%)" x1="612.896746185" x2="615.050003765" y1="509.666699049" y2="506.543913801" /><line stroke="rgb(0%,0%,0%)" x1="623.4540425" x2="624.057339344" y1="482.947235179" y2="481.102290646" /><line stroke="rgb(0%,0%,0%)" x1="497.784894971" x2="498.201403399" y1="667.270701239" y2="666.759259188" /><line stroke="rgb(0%,0%,0%)" x1="506.760867881" x2="505.826526643" y1="661.799129467" y2="662.877546954" /><line stroke="rgb(0%,0%,0%)" x1="506.760867881" x2="507.706376983" y1="661.799129467" y2="659.388664208" /><line stroke="rgb(0%,0%,0%)" x1="517.600406303" x2="515.144318562" y1="650.850557547" y2="653.917710649" /><line stroke="rgb(0%,0%,0%)" x1="521.450699821" x2="519.374699448" y1="648.076332385" y2="649.024190389" /><line stroke="rgb(0%,0%,0%)" x1="526.349325663" x2="530.364130619" y1="643.59348819" y2="641.448351771" /><line stroke="rgb(0%,0%,0%)" x1="521.450699821" x2="526.349325663" y1="648.076332385" y2="643.59348819" /><line stroke="rgb(0%,0%,0%)" x1="530.364130619" x2="532.437277676" y1="641.448351771" y2="639.283632782" /><line stroke="rgb(0%,0%,0%)" x1="533.780150288" x2="532.437277676" y1="637.075731484" y2="639.283632782" /><line stroke="rgb(0%,0%,0%)" x1="533.780150288" x2="537.55591454" y1="637.075731484" y2="635.70740116" /><line stroke="rgb(0%,0%,0%)" x1="537.55591454" x2="538.9195454" y1="635.70740116" y2="634.89488984" /><line stroke="rgb(0%,0%,0%)" x1="538.9195454" x2="540.854234428" y1="634.89488984" y2="631.38287365" /><line stroke="rgb(0%,0%,0%)" x1="540.854234428" x2="546.470450676" y1="631.38287365" y2="628.299475101" /><line stroke="rgb(0%,0%,0%)" x1="551.717621201" x2="554.327203905" y1="624.607115504" y2="622.161932615" /><line stroke="rgb(0%,0%,0%)" x1="554.327203905" x2="555.025367529" y1="622.161932615" y2="621.748654991" /><line stroke="rgb(0%,0%,0%)" x1="556.751694964" x2="555.025367529" y1="614.742727802" y2="621.748654991" /><line stroke="rgb(0%,0%,0%)" x1="564.672901291" x2="565.263271127" y1="601.615199772" y2="599.927056032" /><line stroke="rgb(0%,0%,0%)" x1="565.263271127" x2="565.532079422" y1="599.927056032" y2="599.722321547" /><line stroke="rgb(0%,0%,0%)" x1="565.532079422" x2="565.963162256" y1="599.722321547" y2="599.230038116" /><line stroke="rgb(0%,0%,0%)" x1="448.493468294" x2="453.162944742" y1="682.869244725" y2="683.060959353" /><line stroke="rgb(0%,0%,0%)" x1="481.81456157" x2="484.705512204" y1="676.330192032" y2="673.613884637" /><line stroke="rgb(0%,0%,0%)" x1="495.530105383" x2="485.387559286" y1="670.595820038" y2="673.273677335" /><line stroke="rgb(0%,0%,0%)" x1="497.784894971" x2="497.346170177" y1="667.270701239" y2="667.476710277" /><line stroke="rgb(0%,0%,0%)" x1="495.530105383" x2="497.346170177" y1="670.595820038" y2="667.476710277" /><line stroke="rgb(0%,0%,0%)" x1="498.201403399" x2="505.826526643" y1="666.759259188" y2="662.877546954" /><line stroke="rgb(0%,0%,0%)" x1="507.706376983" x2="511.405898052" y1="659.388664208" y2="656.996394074" /><line stroke="rgb(0%,0%,0%)" x1="511.405898052" x2="515.144318562" y1="656.996394074" y2="653.917710649" /><line stroke="rgb(0%,0%,0%)" x1="517.600406303" x2="519.374699448" y1="650.850557547" y2="649.024190389" /><line stroke="rgb(0%,0%,0%)" x1="448.493468294" x2="444.205204823" y1="682.869244725" y2="681.524779093" /><line stroke="rgb(0%,0%,0%)" x1="453.162944742" x2="458.867397407" y1="683.060959353" y2="682.897540936" /><line stroke="rgb(0%,0%,0%)" x1="458.867397407" x2="462.384984169" y1="682.897540936" y2="681.869699182" /><line stroke="rgb(0%,0%,0%)" x1="462.384984169" x2="468.634921448" y1="681.869699182" y2="681.362655607" /><line stroke="rgb(0%,0%,0%)" x1="468.634921448" x2="473.966257085" y1="681.362655607" y2="678.393243362" /><line stroke="rgb(0%,0%,0%)" x1="473.966257085" x2="478.499330646" y1="678.393243362" y2="676.902841412" /><line stroke="rgb(0%,0%,0%)" x1="481.81456157" x2="478.499330646" y1="676.330192032" y2="676.902841412" /><line stroke="rgb(0%,0%,0%)" x1="484.705512204" x2="485.012850849" y1="673.613884637" y2="673.500335304" /><line stroke="rgb(0%,0%,0%)" x1="485.012850849" x2="485.387559286" y1="673.500335304" y2="673.273677335" /><line stroke="rgb(0%,0%,0%)" x1="442.025318477" x2="439.532484382" y1="680.182529398" y2="677.670881578" /><line stroke="rgb(0%,0%,0%)" x1="433.773588548" x2="439.532484382" y1="673.627810296" y2="677.670881578" /><line stroke="rgb(0%,0%,0%)" x1="429.534253846" x2="431.974345665" y1="673.036189871" y2="673.545987978" /><line stroke="rgb(0%,0%,0%)" x1="431.974345665" x2="433.773588548" y1="673.545987978" y2="673.627810296" /><line stroke="rgb(0%,0%,0%)" x1="427.020678357" x2="429.534253846" y1="674.022949418" y2="673.036189871" /><line stroke="rgb(0%,0%,0%)" x1="442.025318477" x2="444.205204823" y1="680.182529398" y2="681.524779093" /><line stroke="rgb(0%,0%,0%)" x1="384.297092943" x2="380.089583151" y1="671.638650769" y2="670.662880157" /><line stroke="rgb(0%,0%,0%)" x1="396.122331455" x2="402.754104117" y1="677.168741053" y2="677.485769097" /><line stroke="rgb(0%,0%,0%)" x1="386.704330465" x2="389.155545593" y1="673.963927221" y2="674.956312018" /><line stroke="rgb(0%,0%,0%)" x1="384.297092943" x2="386.704330465" y1="671.638650769" y2="673.963927221" /><line stroke="rgb(0%,0%,0%)" x1="385.83605931" x2="382.610488436" y1="597.884411771" y2="598.73115906" /><line stroke="rgb(0%,0%,0%)" x1="407.006917544" x2="416.026637097" y1="677.552486773" y2="676.728381622" /><line stroke="rgb(0%,0%,0%)" x1="405.423674527" x2="407.006917544" y1="677.525050958" y2="677.552486773" /><line stroke="rgb(0%,0%,0%)" x1="402.754104117" x2="405.423674527" y1="677.485769097" y2="677.525050958" /><line stroke="rgb(0%,0%,0%)" x1="419.703526573" x2="416.026637097" y1="675.315035897" y2="676.728381622" /><line stroke="rgb(0%,0%,0%)" x1="419.703526573" x2="427.020678357" y1="675.315035897" y2="674.022949418" /><line stroke="rgb(0%,0%,0%)" x1="307.767313864" x2="306.949424718" y1="586.232124692" y2="585.672378646" /><line stroke="rgb(0%,0%,0%)" x1="351.122028563" x2="346.750516556" y1="607.307472218" y2="608.561010448" /><line stroke="rgb(0%,0%,0%)" x1="353.371939948" x2="351.122028563" y1="606.150349262" y2="607.307472218" /><line stroke="rgb(0%,0%,0%)" x1="353.371939948" x2="355.845196844" y1="606.150349262" y2="605.305235456" /><line stroke="rgb(0%,0%,0%)" x1="344.548907795" x2="349.204730261" y1="593.842567212" y2="594.921962093" /><line stroke="rgb(0%,0%,0%)" x1="357.879967456" x2="354.79192271" y1="665.173477637" y2="664.066328196" /><line stroke="rgb(0%,0%,0%)" x1="357.879967456" x2="361.842024706" y1="665.173477637" y2="667.675565036" /><line stroke="rgb(0%,0%,0%)" x1="354.79192271" x2="352.621261001" y1="664.066328196" y2="661.377744271" /><line stroke="rgb(0%,0%,0%)" x1="364.562705389" x2="355.845196844" y1="601.97570323" y2="605.305235456" /><line stroke="rgb(0%,0%,0%)" x1="349.204730261" x2="357.474633116" y1="594.921962093" y2="596.516738993" /><line stroke="rgb(0%,0%,0%)" x1="357.474633116" x2="368.212904664" y1="596.516738993" y2="597.618395602" /><line stroke="rgb(0%,0%,0%)" x1="361.842024706" x2="367.613749015" y1="667.675565036" y2="669.166903177" /><line stroke="rgb(0%,0%,0%)" x1="368.400019267" x2="364.562705389" y1="600.837867196" y2="601.97570323" /><line stroke="rgb(0%,0%,0%)" x1="368.400019267" x2="372.554076368" y1="600.837867196" y2="599.659526602" /><line stroke="rgb(0%,0%,0%)" x1="372.554076368" x2="378.451282725" y1="599.659526602" y2="599.077198557" /><line stroke="rgb(0%,0%,0%)" x1="368.212904664" x2="376.098451344" y1="597.618395602" y2="598.138988452" /><line stroke="rgb(0%,0%,0%)" x1="378.027000497" x2="380.089583151" y1="670.753886914" y2="670.662880157" /><line stroke="rgb(0%,0%,0%)" x1="367.613749015" x2="376.496476819" y1="669.166903177" y2="670.429148586" /><line stroke="rgb(0%,0%,0%)" x1="376.496476819" x2="378.027000497" y1="670.429148586" y2="670.753886914" /><line stroke="rgb(0%,0%,0%)" x1="382.610488436" x2="378.451282725" y1="598.73115906" y2="599.077198557" /><line stroke="rgb(0%,0%,0%)" x1="376.098451344" x2="378.682946284" y1="598.138988452" y2="598.429823449" /><line stroke="rgb(0%,0%,0%)" x1="389.155545593" x2="396.122331455" y1="674.956312018" y2="677.168741053" /><line stroke="rgb(0%,0%,0%)" x1="378.682946284" x2="381.858833413" y1="598.429823449" y2="598.212162009" /><line stroke="rgb(0%,0%,0%)" x1="306.949424718" x2="298.336389781" y1="585.672378646" y2="583.066214534" /><line stroke="rgb(0%,0%,0%)" x1="307.767313864" x2="327.754093549" y1="586.232124692" y2="590.392113163" /><line stroke="rgb(0%,0%,0%)" x1="327.754093549" x2="329.003158002" y1="590.392113163" y2="591.019492909" /><line stroke="rgb(0%,0%,0%)" x1="329.003158002" x2="333.060291153" y1="591.019492909" y2="592.142880391" /><line stroke="rgb(0%,0%,0%)" x1="333.617522228" x2="335.477693382" y1="623.64845331" y2="625.023403202" /><line stroke="rgb(0%,0%,0%)" x1="332.016218546" x2="331.696635045" y1="619.751480567" y2="620.341076464" /><line stroke="rgb(0%,0%,0%)" x1="332.016218546" x2="331.865873618" y1="619.751480567" y2="619.43064061" /><line stroke="rgb(0%,0%,0%)" x1="331.552232597" x2="331.865873618" y1="618.767848475" y2="619.43064061" /><line stroke="rgb(0%,0%,0%)" x1="332.327331715" x2="331.552232597" y1="617.642397462" y2="618.767848475" /><line stroke="rgb(0%,0%,0%)" x1="332.585517903" x2="332.327331715" y1="617.164826053" y2="617.642397462" /><line stroke="rgb(0%,0%,0%)" x1="332.585517903" x2="335.630513884" y1="617.164826053" y2="615.41660834" /><line stroke="rgb(0%,0%,0%)" x1="341.731530181" x2="347.869520545" y1="629.70243177" y2="632.520742066" /><line stroke="rgb(0%,0%,0%)" x1="338.228825842" x2="341.731530181" y1="627.153343196" y2="629.70243177" /><line stroke="rgb(0%,0%,0%)" x1="335.477693382" x2="336.3823504" y1="625.023403202" y2="625.840298738" /><line stroke="rgb(0%,0%,0%)" x1="338.228825842" x2="336.3823504" y1="627.153343196" y2="625.840298738" /><line stroke="rgb(0%,0%,0%)" x1="333.617522228" x2="332.210859563" y1="623.64845331" y2="622.506023055" /><line stroke="rgb(0%,0%,0%)" x1="331.696635045" x2="332.053502894" y1="620.341076464" y2="621.762919663" /><line stroke="rgb(0%,0%,0%)" x1="337.182542137" x2="335.630513884" y1="614.266294392" y2="615.41660834" /><line stroke="rgb(0%,0%,0%)" x1="340.32830692" x2="338.25096249" y1="612.345421277" y2="613.801464609" /><line stroke="rgb(0%,0%,0%)" x1="343.064933777" x2="340.32830692" y1="611.094421077" y2="612.345421277" /><line stroke="rgb(0%,0%,0%)" x1="343.064933777" x2="343.894821197" y1="611.094421077" y2="610.739214657" /><line stroke="rgb(0%,0%,0%)" x1="343.894821197" x2="345.551071655" y1="610.739214657" y2="609.107219793" /><line stroke="rgb(0%,0%,0%)" x1="333.060291153" x2="344.548907795" y1="592.142880391" y2="593.842567212" /><line stroke="rgb(0%,0%,0%)" x1="350.237973673" x2="352.621261001" y1="656.871509145" y2="661.377744271" /><line stroke="rgb(0%,0%,0%)" x1="350.237973673" x2="347.26869034" y1="656.871509145" y2="650.009608519" /><line stroke="rgb(0%,0%,0%)" x1="347.484635938" x2="347.26869034" y1="649.057960722" y2="650.009608519" /><line stroke="rgb(0%,0%,0%)" x1="351.744485515" x2="347.484635938" y1="638.512617822" y2="649.057960722" /><line stroke="rgb(0%,0%,0%)" x1="353.069917791" x2="351.744485515" y1="636.483532725" y2="638.512617822" /><line stroke="rgb(0%,0%,0%)" x1="352.752797138" x2="353.069917791" y1="636.470106051" y2="636.483532725" /><line stroke="rgb(0%,0%,0%)" x1="349.155587639" x2="352.752797138" y1="634.314208961" y2="636.470106051" /><line stroke="rgb(0%,0%,0%)" x1="347.869520545" x2="349.155587639" y1="632.520742066" y2="634.314208961" /><line stroke="rgb(0%,0%,0%)" x1="338.25096249" x2="337.182542137" y1="613.801464609" y2="614.266294392" /><line stroke="rgb(0%,0%,0%)" x1="346.750516556" x2="345.551071655" y1="608.561010448" y2="609.107219793" /><line stroke="rgb(0%,0%,0%)" x1="251.84590139" x2="254.008221941" y1="563.215439302" y2="565.0940821" /><line stroke="rgb(0%,0%,0%)" x1="273.853541754" x2="275.359337553" y1="577.535676834" y2="577.670530643" /><line stroke="rgb(0%,0%,0%)" x1="271.642513748" x2="273.853541754" y1="575.97783167" y2="577.535676834" /><line stroke="rgb(0%,0%,0%)" x1="271.642513748" x2="266.629752785" y1="575.97783167" y2="574.367757658" /><line stroke="rgb(0%,0%,0%)" x1="289.949938213" x2="293.54735359" y1="581.174440896" y2="581.890153641" /><line stroke="rgb(0%,0%,0%)" x1="289.949938213" x2="284.202535023" y1="581.174440896" y2="579.358780006" /><line stroke="rgb(0%,0%,0%)" x1="296.330382585" x2="298.336389781" y1="582.496014453" y2="583.066214534" /><line stroke="rgb(0%,0%,0%)" x1="293.54735359" x2="296.330382585" y1="581.890153641" y2="582.496014453" /><line stroke="rgb(0%,0%,0%)" x1="332.053502894" x2="332.210859563" y1="621.762919663" y2="622.506023055" /><line stroke="rgb(0%,0%,0%)" x1="233.163798011" x2="235.469799396" y1="544.592363387" y2="546.914266741" /><line stroke="rgb(0%,0%,0%)" x1="233.163798011" x2="231.85124605" y1="544.592363387" y2="542.743307702" /><line stroke="rgb(0%,0%,0%)" x1="211.932824738" x2="211.180058297" y1="527.963536959" y2="527.56326676" /><line stroke="rgb(0%,0%,0%)" x1="211.932824738" x2="216.884237837" y1="527.963536959" y2="533.066698349" /><line stroke="rgb(0%,0%,0%)" x1="251.84590139" x2="249.280334283" y1="563.215439302" y2="560.914963095" /><line stroke="rgb(0%,0%,0%)" x1="242.376192542" x2="238.404086823" y1="554.677428401" y2="550.169731187" /><line stroke="rgb(0%,0%,0%)" x1="261.904193418" x2="264.230793957" y1="570.910872525" y2="572.558559532" /><line stroke="rgb(0%,0%,0%)" x1="258.269929258" x2="261.904193418" y1="568.484255534" y2="570.910872525" /><line stroke="rgb(0%,0%,0%)" x1="254.008221941" x2="258.269929258" y1="565.0940821" y2="568.484255534" /><line stroke="rgb(0%,0%,0%)" x1="264.230793957" x2="266.629752785" y1="572.558559532" y2="574.367757658" /><line stroke="rgb(0%,0%,0%)" x1="275.359337553" x2="284.202535023" y1="577.670530643" y2="579.358780006" /><line stroke="rgb(0%,0%,0%)" x1="191.285519797" x2="190.831346594" y1="508.226568875" y2="507.739424209" /><line stroke="rgb(0%,0%,0%)" x1="208.996981914" x2="211.180058297" y1="525.340651815" y2="527.56326676" /><line stroke="rgb(0%,0%,0%)" x1="206.076781748" x2="208.996981914" y1="522.528027918" y2="525.340651815" /><line stroke="rgb(0%,0%,0%)" x1="202.607772907" x2="203.532333698" y1="518.254323599" y2="519.657661258" /><line stroke="rgb(0%,0%,0%)" x1="203.532333698" x2="206.076781748" y1="519.657661258" y2="522.528027918" /><line stroke="rgb(0%,0%,0%)" x1="199.292653615" x2="202.607772907" y1="514.361546128" y2="518.254323599" /><line stroke="rgb(0%,0%,0%)" x1="199.292653615" x2="198.387046788" y1="514.361546128" y2="513.571014745" /><line stroke="rgb(0%,0%,0%)" x1="192.365661826" x2="198.387046788" y1="509.029146666" y2="513.571014745" /><line stroke="rgb(0%,0%,0%)" x1="191.285519797" x2="192.365661826" y1="508.226568875" y2="509.029146666" /><line stroke="rgb(0%,0%,0%)" x1="216.884237837" x2="231.85124605" y1="533.066698349" y2="542.743307702" /><line stroke="rgb(0%,0%,0%)" x1="237.101478612" x2="238.404086823" y1="549.234679923" y2="550.169731187" /><line stroke="rgb(0%,0%,0%)" x1="235.469799396" x2="237.101478612" y1="546.914266741" y2="549.234679923" /><line stroke="rgb(0%,0%,0%)" x1="246.313563467" x2="249.280334283" y1="558.380176538" y2="560.914963095" /><line stroke="rgb(0%,0%,0%)" x1="242.376192542" x2="246.313563467" y1="554.677428401" y2="558.380176538" /><line stroke="rgb(0%,0%,0%)" x1="160.034956345" x2="160.35835476" y1="488.94594388" y2="489.161604791" /><line stroke="rgb(0%,0%,0%)" x1="160.034956345" x2="158.6991414" y1="488.94594388" y2="488.473664717" /><line stroke="rgb(0%,0%,0%)" x1="160.35835476" x2="163.211995939" y1="489.161604791" y2="490.768972244" /><line stroke="rgb(0%,0%,0%)" x1="173.72407448" x2="187.367136379" y1="495.273018256" y2="505.121000869" /><line stroke="rgb(0%,0%,0%)" x1="190.831346594" x2="187.367136379" y1="507.739424209" y2="505.121000869" /><line stroke="rgb(0%,0%,0%)" x1="163.211995939" x2="173.72407448" y1="490.768972244" y2="495.273018256" /><line stroke="rgb(0%,0%,0%)" x1="136.480950927" x2="139.100425115" y1="484.199588959" y2="484.581659928" /><line stroke="rgb(0%,0%,0%)" x1="139.100425115" x2="158.6991414" y1="484.581659928" y2="488.473664717" /><line stroke="rgb(0%,0%,0%)" x1="107.256785009" x2="101.001372066" y1="462.199785405" y2="467.345111713" /><line stroke="rgb(0%,0%,0%)" x1="100.142178385" x2="102.530586108" y1="472.967051308" y2="476.93636555" /><line stroke="rgb(0%,0%,0%)" x1="99.922370129" x2="100.142178385" y1="469.041022235" y2="472.967051308" /><line stroke="rgb(0%,0%,0%)" x1="101.001372066" x2="99.922370129" y1="467.345111713" y2="469.041022235" /><line stroke="rgb(0%,0%,0%)" x1="106.479392061" x2="109.338223256" y1="478.574980838" y2="479.477945259" /><line stroke="rgb(0%,0%,0%)" x1="102.530586108" x2="106.479392061" y1="476.93636555" y2="478.574980838" /><line stroke="rgb(0%,0%,0%)" x1="116.895836332" x2="109.338223256" y1="481.321741246" y2="479.477945259" /><line stroke="rgb(0%,0%,0%)" x1="113.802937353" x2="112.637259064" y1="458.341722004" y2="459.400529285" /><line stroke="rgb(0%,0%,0%)" x1="112.637259064" x2="107.256785009" y1="459.400529285" y2="462.199785405" /><line stroke="rgb(0%,0%,0%)" x1="116.895836332" x2="136.480950927" y1="481.321741246" y2="484.199588959" /><line stroke="rgb(0%,0%,0%)" x1="117.39593985" x2="113.802937353" y1="454.6093774" y2="458.341722004" /><line stroke="rgb(0%,0%,0%)" x1="117.39593985" x2="117.7768247" y1="454.6093774" y2="448.95824591" /><line stroke="rgb(0%,0%,0%)" x1="381.858833413" x2="385.83605931" y1="598.212162009" y2="597.884411771" /></svg>