<?xml version="1.0" encoding="utf-8" ?>
<svg baseProfile="full" height="100%" version="1.1" viewBox="0.5 0.5 685.793960571 941.299331665" width="100%" xmlns="http://www.w3.org/2000/svg" xmlns:ev="http://www.w3.org/2001/xml-events" xmlns:xlink="http://www.w3.org/1999/xlink"><defs /><line stroke="rgb(0%,0%,0%)" x1="629.555951472" x2="629.639560367" y1="455.911758486" y2="453.931282402" /><line stroke="rgb(0%,0%,0%)" x1="629.040154441" x2="629.114068032" y1="438.098644646" y2="438.514083283" /><line stroke="rgb(0%,0%,0%)" x1="612.893156543" x2="613.7123474" y1="387.096348838" y2="389.197371512" /><line stroke="rgb(0%,0%,0%)" x1="629.040154441" x2="628.820097713" y1="438.098644646" y2="436.614778626" /><line stroke="rgb(0%,0%,0%)" x1="612.893156543" x2="610.941480084" y1="387.096348838" y2="381.958990105" /><line stroke="rgb(0%,0%,0%)" x1="620.936442401" x2="622.071158626" y1="409.165960424" y2="412.816435305" /><line stroke="rgb(0%,0%,0%)" x1="620.936442401" x2="620.656359673" y1="409.165960424" y2="408.372143403" /><line stroke="rgb(0%,0%,0%)" x1="618.82476997" x2="618.165066242" y1="405.652613267" y2="401.523483146" /><line stroke="rgb(0%,0%,0%)" x1="617.022424005" x2="618.165066242" y1="397.559796436" y2="401.523483146" /><line stroke="rgb(0%,0%,0%)" x1="629.639560367" x2="629.114068032" y1="453.931282402" y2="438.514083283" /><line stroke="rgb(0%,0%,0%)" x1="567.901514974" x2="561.030368419" y1="313.594046075" y2="305.154773723" /><line stroke="rgb(0%,0%,0%)" x1="585.079892552" x2="590.128592777" y1="342.962974989" y2="349.922623681" /><line stroke="rgb(0%,0%,0%)" x1="585.079892552" x2="584.02689884" y1="342.962974989" y2="339.964426769" /><line stroke="rgb(0%,0%,0%)" x1="572.083065225" x2="575.367027335" y1="321.713386882" y2="327.706500641" /><line stroke="rgb(0%,0%,0%)" x1="610.941480084" x2="607.16951409" y1="381.958990105" y2="374.595556776" /><line stroke="rgb(0%,0%,0%)" x1="601.190083413" x2="605.729801297" y1="367.034947626" y2="372.83714594" /><line stroke="rgb(0%,0%,0%)" x1="628.820097713" x2="627.429659425" y1="436.614778626" y2="431.745387261" /><line stroke="rgb(0%,0%,0%)" x1="627.429659425" x2="626.969801878" y1="431.745387261" y2="429.636101951" /><line stroke="rgb(0%,0%,0%)" x1="626.969801878" x2="624.787061755" y1="429.636101951" y2="422.308540969" /><line stroke="rgb(0%,0%,0%)" x1="623.974536126" x2="622.071158626" y1="419.859401377" y2="412.816435305" /><line stroke="rgb(0%,0%,0%)" x1="620.656359673" x2="618.82476997" y1="408.372143403" y2="405.652613267" /><line stroke="rgb(0%,0%,0%)" x1="617.022424005" x2="614.930178119" y1="397.559796436" y2="394.046717155" /><line stroke="rgb(0%,0%,0%)" x1="534.397582854" x2="534.908269257" y1="283.569181122" y2="283.786205208" /><line stroke="rgb(0%,0%,0%)" x1="561.030368419" x2="560.12886995" y1="305.154773723" y2="302.166354784" /><line stroke="rgb(0%,0%,0%)" x1="560.12886995" x2="557.996859798" y1="302.166354784" y2="300.622943483" /><line stroke="rgb(0%,0%,0%)" x1="580.716726545" x2="575.367027335" y1="334.5269903" y2="327.706500641" /><line stroke="rgb(0%,0%,0%)" x1="572.083065225" x2="569.74715199" y1="321.713386882" y2="315.581110148" /><line stroke="rgb(0%,0%,0%)" x1="584.02689884" x2="580.716726545" y1="339.964426769" y2="334.5269903" /><line stroke="rgb(0%,0%,0%)" x1="607.16951409" x2="605.729801297" y1="374.595556776" y2="372.83714594" /><line stroke="rgb(0%,0%,0%)" x1="601.190083413" x2="599.596803504" y1="367.034947626" y2="365.415829865" /><line stroke="rgb(0%,0%,0%)" x1="599.596803504" x2="593.469266731" y1="365.415829865" y2="355.11859844" /><line stroke="rgb(0%,0%,0%)" x1="592.490499856" x2="590.128592777" y1="354.430885897" y2="349.922623681" /><line stroke="rgb(0%,0%,0%)" x1="614.930178119" x2="613.7123474" y1="394.046717155" y2="389.197371512" /><line stroke="rgb(0%,0%,0%)" x1="510.927905579" x2="508.99429418" y1="265.936356817" y2="265.190525262" /><line stroke="rgb(0%,0%,0%)" x1="503.95573836" x2="501.222871545" y1="260.004844767" y2="258.528620643" /><line stroke="rgb(0%,0%,0%)" x1="530.301030123" x2="529.919274585" y1="280.841550903" y2="280.683703553" /><line stroke="rgb(0%,0%,0%)" x1="529.919274585" x2="521.498844181" y1="280.683703553" y2="274.356442927" /><line stroke="rgb(0%,0%,0%)" x1="510.927905579" x2="514.422943266" y1="265.936356817" y2="268.986159623" /><line stroke="rgb(0%,0%,0%)" x1="521.498844181" x2="514.422943266" y1="274.356442927" y2="268.986159623" /><line stroke="rgb(0%,0%,0%)" x1="534.397582854" x2="530.399196813" y1="283.569181122" y2="280.835351854" /><line stroke="rgb(0%,0%,0%)" x1="530.399196813" x2="530.301030123" y1="280.835351854" y2="280.841550903" /><line stroke="rgb(0%,0%,0%)" x1="553.773225678" x2="549.884687629" y1="295.293198683" y2="292.521093563" /><line stroke="rgb(0%,0%,0%)" x1="549.884687629" x2="545.047996396" y1="292.521093563" y2="291.550311545" /><line stroke="rgb(0%,0%,0%)" x1="545.047996396" x2="542.606204517" y1="291.550311545" y2="289.775811398" /><line stroke="rgb(0%,0%,0%)" x1="542.606204517" x2="542.064310129" y1="289.775811398" y2="287.552599326" /><line stroke="rgb(0%,0%,0%)" x1="539.107877901" x2="542.064310129" y1="286.669799967" y2="287.552599326" /><line stroke="rgb(0%,0%,0%)" x1="539.107877901" x2="534.908269257" y1="286.669799967" y2="283.786205208" /><line stroke="rgb(0%,0%,0%)" x1="557.996859798" x2="556.98393039" y1="300.622943483" y2="300.307006667" /><line stroke="rgb(0%,0%,0%)" x1="556.98393039" x2="556.310507873" y1="300.307006667" y2="298.528162321" /><line stroke="rgb(0%,0%,0%)" x1="553.773225678" x2="556.310507873" y1="295.293198683" y2="298.528162321" /><line stroke="rgb(0%,0%,0%)" x1="569.74715199" x2="567.901514974" y1="315.581110148" y2="313.594046075" /><line stroke="rgb(0%,0%,0%)" x1="593.469266731" x2="592.490499856" y1="355.11859844" y2="354.430885897" /><line stroke="rgb(0%,0%,0%)" x1="624.787061755" x2="623.974536126" y1="422.308540969" y2="419.859401377" /><line stroke="rgb(0%,0%,0%)" x1="486.527074829" x2="485.482568291" y1="248.219580782" y2="247.588440633" /><line stroke="rgb(0%,0%,0%)" x1="485.482568291" x2="482.969696315" y1="247.588440633" y2="246.279581475" /><line stroke="rgb(0%,0%,0%)" x1="501.222871545" x2="497.801070749" y1="258.528620643" y2="255.904631523" /><line stroke="rgb(0%,0%,0%)" x1="497.801070749" x2="494.843627461" y1="255.904631523" y2="253.818280179" /><line stroke="rgb(0%,0%,0%)" x1="494.843627461" x2="493.480776659" y1="253.818280179" y2="252.693952368" /><line stroke="rgb(0%,0%,0%)" x1="508.99429418" x2="506.974597119" y1="265.190525262" y2="263.154963822" /><line stroke="rgb(0%,0%,0%)" x1="503.95573836" x2="505.556727231" y1="260.004844767" y2="262.169046559" /><line stroke="rgb(0%,0%,0%)" x1="460.73709544" x2="457.520907674" y1="235.900221424" y2="233.570300131" /><line stroke="rgb(0%,0%,0%)" x1="460.73709544" x2="464.04612255" y1="235.900221424" y2="237.555084194" /><line stroke="rgb(0%,0%,0%)" x1="451.609558938" x2="446.601017923" y1="234.014091541" y2="232.123112944" /><line stroke="rgb(0%,0%,0%)" x1="470.231975439" x2="476.633210588" y1="238.386926622" y2="242.538890409" /><line stroke="rgb(0%,0%,0%)" x1="490.228430764" x2="486.527074829" y1="249.716000018" y2="248.219580782" /><line stroke="rgb(0%,0%,0%)" x1="490.228430764" x2="493.480776659" y1="249.716000018" y2="252.693952368" /><line stroke="rgb(0%,0%,0%)" x1="506.974597119" x2="505.556727231" y1="263.154963822" y2="262.169046559" /><line stroke="rgb(0%,0%,0%)" x1="439.590774378" x2="446.601017923" y1="232.051823996" y2="232.123112944" /><line stroke="rgb(0%,0%,0%)" x1="457.520907674" x2="451.609558938" y1="233.570300131" y2="234.014091541" /><line stroke="rgb(0%,0%,0%)" x1="470.231975439" x2="464.04612255" y1="238.386926622" y2="237.555084194" /><line stroke="rgb(0%,0%,0%)" x1="482.969696315" x2="476.633210588" y1="246.279581475" y2="242.538890409" /><line stroke="rgb(0%,0%,0%)" x1="419.447436691" x2="416.621746221" y1="238.232331233" y2="237.160135864" /><line stroke="rgb(0%,0%,0%)" x1="419.447436691" x2="424.202090697" y1="238.232331233" y2="238.171435391" /><line stroke="rgb(0%,0%,0%)" x1="416.621746221" x2="409.810851843" y1="237.160135864" y2="235.725915732" /><line stroke="rgb(0%,0%,0%)" x1="427.301830159" x2="425.656742137" y1="237.895517484" y2="238.18422387" /><line stroke="rgb(0%,0%,0%)" x1="425.656742137" x2="424.202090697" y1="238.18422387" y2="238.171435391" /><line stroke="rgb(0%,0%,0%)" x1="439.590774378" x2="427.301830159" y1="232.051823996" y2="237.895517484" /><line stroke="rgb(0%,0%,0%)" x1="387.872454569" x2="382.199886351" y1="234.343826619" y2="240.292559034" /><line stroke="rgb(0%,0%,0%)" x1="387.872454569" x2="389.838144539" y1="234.343826619" y2="233.846613933" /><line stroke="rgb(0%,0%,0%)" x1="399.922458668" x2="394.232467922" y1="232.946567072" y2="233.804430904" /><line stroke="rgb(0%,0%,0%)" x1="389.838144539" x2="394.232467922" y1="233.846613933" y2="233.804430904" /><line stroke="rgb(0%,0%,0%)" x1="402.271536247" x2="409.810851843" y1="233.453944575" y2="235.725915732" /><line stroke="rgb(0%,0%,0%)" x1="402.271536247" x2="399.922458668" y1="233.453944575" y2="232.946567072" /><line stroke="rgb(0%,0%,0%)" x1="350.136765711" x2="347.22283245" y1="245.425401282" y2="245.612332061" /><line stroke="rgb(0%,0%,0%)" x1="353.336791146" x2="350.136765711" y1="243.40420239" y2="245.425401282" /><line stroke="rgb(0%,0%,0%)" x1="359.982259368" x2="355.75460932" y1="314.859074285" y2="315.16909636" /><line stroke="rgb(0%,0%,0%)" x1="360.364236108" x2="359.982259368" y1="313.275243819" y2="314.859074285" /><line stroke="rgb(0%,0%,0%)" x1="355.198722967" x2="360.364236108" y1="311.780837883" y2="313.275243819" /><line stroke="rgb(0%,0%,0%)" x1="353.336791146" x2="360.198933927" y1="243.40420239" y2="243.065563797" /><line stroke="rgb(0%,0%,0%)" x1="372.192369207" x2="360.198933927" y1="242.724750219" y2="243.065563797" /><line stroke="rgb(0%,0%,0%)" x1="374.156974402" x2="372.192369207" y1="242.84606973" y2="242.724750219" /><line stroke="rgb(0%,0%,0%)" x1="379.195206157" x2="374.156974402" y1="241.531459108" y2="242.84606973" /><line stroke="rgb(0%,0%,0%)" x1="382.199886351" x2="379.195206157" y1="240.292559034" y2="241.531459108" /><line stroke="rgb(0%,0%,0%)" x1="292.115602299" x2="291.741368881" y1="327.314157213" y2="327.357279297" /><line stroke="rgb(0%,0%,0%)" x1="300.03828666" x2="292.115602299" y1="324.858264281" y2="327.314157213" /><line stroke="rgb(0%,0%,0%)" x1="301.508525187" x2="300.03828666" y1="324.312845027" y2="324.858264281" /><line stroke="rgb(0%,0%,0%)" x1="301.508525187" x2="304.538902609" y1="324.312845027" y2="323.518412264" /><line stroke="rgb(0%,0%,0%)" x1="322.251109913" x2="322.224084211" y1="295.923595216" y2="295.864711963" /><line stroke="rgb(0%,0%,0%)" x1="327.701257975" x2="330.789838096" y1="299.355951133" y2="300.694861894" /><line stroke="rgb(0%,0%,0%)" x1="322.254388082" x2="322.251109913" y1="295.92508318" y2="295.923595216" /><line stroke="rgb(0%,0%,0%)" x1="322.228326497" x2="321.482364276" y1="292.9283571" y2="294.089849885" /><line stroke="rgb(0%,0%,0%)" x1="322.452913728" x2="322.228326497" y1="291.649721542" y2="292.9283571" /><line stroke="rgb(0%,0%,0%)" x1="324.93696012" x2="323.729227963" y1="288.978257394" y2="289.992824104" /><line stroke="rgb(0%,0%,0%)" x1="334.061017971" x2="334.030810902" y1="264.746311005" y2="264.918727546" /><line stroke="rgb(0%,0%,0%)" x1="334.061017971" x2="334.172382384" y1="264.746311005" y2="264.436985326" /><line stroke="rgb(0%,0%,0%)" x1="330.88416974" x2="333.899974466" y1="319.301264585" y2="318.325157652" /><line stroke="rgb(0%,0%,0%)" x1="338.526760873" x2="335.894372904" y1="304.805690386" y2="303.524246998" /><line stroke="rgb(0%,0%,0%)" x1="330.789838096" x2="335.894372904" y1="300.694861894" y2="303.524246998" /><line stroke="rgb(0%,0%,0%)" x1="322.254388082" x2="327.701257975" y1="295.92508318" y2="299.355951133" /><line stroke="rgb(0%,0%,0%)" x1="324.93696012" x2="327.650995781" y1="288.978257394" y2="287.11556273" /><line stroke="rgb(0%,0%,0%)" x1="330.873441604" x2="327.650995781" y1="285.490085142" y2="287.11556273" /><line stroke="rgb(0%,0%,0%)" x1="332.827196451" x2="330.873441604" y1="284.244118405" y2="285.490085142" /><line stroke="rgb(0%,0%,0%)" x1="333.606484171" x2="338.696337184" y1="268.742697344" y2="272.564192024" /><line stroke="rgb(0%,0%,0%)" x1="334.030810902" x2="333.606484171" y1="264.918727546" y2="268.742697344" /><line stroke="rgb(0%,0%,0%)" x1="334.172382384" x2="336.963853808" y1="264.436985326" y2="259.908693751" /><line stroke="rgb(0%,0%,0%)" x1="349.295927669" x2="348.857126716" y1="316.20276115" y2="316.337479655" /><line stroke="rgb(0%,0%,0%)" x1="348.857126716" x2="333.899974466" y1="316.337479655" y2="318.325157652" /><line stroke="rgb(0%,0%,0%)" x1="349.295927669" x2="350.950249904" y1="316.20276115" y2="315.92046516" /><line stroke="rgb(0%,0%,0%)" x1="338.526760873" x2="345.326438914" y1="304.805690386" y2="308.151201566" /><line stroke="rgb(0%,0%,0%)" x1="342.508865056" x2="335.956047777" y1="277.681701547" y2="281.910424006" /><line stroke="rgb(0%,0%,0%)" x1="332.827196451" x2="335.956047777" y1="284.244118405" y2="281.910424006" /><line stroke="rgb(0%,0%,0%)" x1="343.404137883" x2="342.508865056" y1="277.146822846" y2="277.681701547" /><line stroke="rgb(0%,0%,0%)" x1="338.696337184" x2="343.404137883" y1="272.564192024" y2="277.146822846" /><line stroke="rgb(0%,0%,0%)" x1="341.223100206" x2="336.963853808" y1="252.851959575" y2="259.908693751" /><line stroke="rgb(0%,0%,0%)" x1="343.549621936" x2="341.223100206" y1="249.925538341" y2="252.851959575" /><line stroke="rgb(0%,0%,0%)" x1="347.22283245" x2="343.549621936" y1="245.612332061" y2="249.925538341" /><line stroke="rgb(0%,0%,0%)" x1="355.75460932" x2="350.950249904" y1="315.16909636" y2="315.92046516" /><line stroke="rgb(0%,0%,0%)" x1="350.649507133" x2="355.198722967" y1="309.648158975" y2="311.780837883" /><line stroke="rgb(0%,0%,0%)" x1="345.326438914" x2="350.649507133" y1="308.151201566" y2="309.648158975" /><line stroke="rgb(0%,0%,0%)" x1="317.718847999" x2="304.538902609" y1="320.518420133" y2="323.518412264" /><line stroke="rgb(0%,0%,0%)" x1="330.88416974" x2="317.718847999" y1="319.301264585" y2="320.518420133" /><line stroke="rgb(0%,0%,0%)" x1="321.47678072" x2="322.224084211" y1="294.335857118" y2="295.864711963" /><line stroke="rgb(0%,0%,0%)" x1="321.482364276" x2="321.47678072" y1="294.089849885" y2="294.335857118" /><line stroke="rgb(0%,0%,0%)" x1="323.729227963" x2="322.452913728" y1="289.992824104" y2="291.649721542" /><line stroke="rgb(0%,0%,0%)" x1="251.806157417" x2="255.473974884" y1="349.796513207" y2="346.932345066" /><line stroke="rgb(0%,0%,0%)" x1="251.806157417" x2="249.300712891" y1="349.796513207" y2="352.895438204" /><line stroke="rgb(0%,0%,0%)" x1="264.024285656" x2="266.966483004" y1="338.698213103" y2="337.84190205" /><line stroke="rgb(0%,0%,0%)" x1="259.128282989" x2="262.561676694" y1="343.460906932" y2="340.210502604" /><line stroke="rgb(0%,0%,0%)" x1="264.024285656" x2="262.561676694" y1="338.698213103" y2="340.210502604" /><line stroke="rgb(0%,0%,0%)" x1="267.95778779" x2="266.966483004" y1="336.774221487" y2="337.84190205" /><line stroke="rgb(0%,0%,0%)" x1="267.95778779" x2="270.027490565" y1="336.774221487" y2="336.058446328" /><line stroke="rgb(0%,0%,0%)" x1="273.270931549" x2="270.027490565" y1="333.911525416" y2="336.058446328" /><line stroke="rgb(0%,0%,0%)" x1="276.129291173" x2="273.270931549" y1="332.908119185" y2="333.911525416" /><line stroke="rgb(0%,0%,0%)" x1="280.043384102" x2="276.129291173" y1="331.995841209" y2="332.908119185" /><line stroke="rgb(0%,0%,0%)" x1="285.171008942" x2="280.043384102" y1="329.402453505" y2="331.995841209" /><line stroke="rgb(0%,0%,0%)" x1="291.741368881" x2="285.171008942" y1="327.357279297" y2="329.402453505" /><line stroke="rgb(0%,0%,0%)" x1="234.321268293" x2="232.721484385" y1="370.324293648" y2="371.148703253" /><line stroke="rgb(0%,0%,0%)" x1="240.196096912" x2="234.321268293" y1="362.365663774" y2="370.324293648" /><line stroke="rgb(0%,0%,0%)" x1="245.216373852" x2="240.196096912" y1="356.498756433" y2="362.365663774" /><line stroke="rgb(0%,0%,0%)" x1="249.300712891" x2="245.216373852" y1="352.895438204" y2="356.498756433" /><line stroke="rgb(0%,0%,0%)" x1="259.128282989" x2="255.473974884" y1="343.460906932" y2="346.932345066" /><line stroke="rgb(0%,0%,0%)" x1="186.414950893" x2="175.522494726" y1="402.459622186" y2="410.128175282" /><line stroke="rgb(0%,0%,0%)" x1="186.414950893" x2="196.034837017" y1="402.459622186" y2="396.009832159" /><line stroke="rgb(0%,0%,0%)" x1="204.657550942" x2="199.588900516" y1="389.690209281" y2="393.607293084" /><line stroke="rgb(0%,0%,0%)" x1="207.343808989" x2="204.657550942" y1="387.335325746" y2="389.690209281" /><line stroke="rgb(0%,0%,0%)" x1="207.343808989" x2="216.332002305" y1="387.335325746" y2="380.808480629" /><line stroke="rgb(0%,0%,0%)" x1="229.883412644" x2="217.405590541" y1="373.46958297" y2="380.071398024" /><line stroke="rgb(0%,0%,0%)" x1="217.405590541" x2="216.800548934" y1="380.071398024" y2="380.417877329" /><line stroke="rgb(0%,0%,0%)" x1="229.883412644" x2="232.721484385" y1="373.46958297" y2="371.148703253" /><line stroke="rgb(0%,0%,0%)" x1="142.600160383" x2="143.331781698" y1="425.788459034" y2="425.367420327" /><line stroke="rgb(0%,0%,0%)" x1="168.825783676" x2="159.788338301" y1="413.354063754" y2="419.121558498" /><line stroke="rgb(0%,0%,0%)" x1="175.522494726" x2="168.825783676" y1="410.128175282" y2="413.354063754" /><line stroke="rgb(0%,0%,0%)" x1="199.588900516" x2="196.034837017" y1="393.607293084" y2="396.009832159" /><line stroke="rgb(0%,0%,0%)" x1="216.781241806" x2="216.332002305" y1="380.445912731" y2="380.808480629" /><line stroke="rgb(0%,0%,0%)" x1="216.800548934" x2="216.781241806" y1="380.417877329" y2="380.445912731" /><line stroke="rgb(0%,0%,0%)" x1="141.94054034" x2="136.480987916" y1="425.961892992" y2="427.409578751" /><line stroke="rgb(0%,0%,0%)" x1="142.600160383" x2="141.94054034" y1="425.788459034" y2="425.961892992" /><line stroke="rgb(0%,0%,0%)" x1="159.788338301" x2="143.331781698" y1="419.121558498" y2="425.367420327" /><line stroke="rgb(0%,0%,0%)" x1="106.554552611" x2="115.151152453" y1="439.834443688" y2="451.090619878" /><line stroke="rgb(0%,0%,0%)" x1="106.554552611" x2="106.629253822" y1="439.834443688" y2="439.779959546" /><line stroke="rgb(0%,0%,0%)" x1="106.629253822" x2="107.426276335" y1="439.779959546" y2="439.310633246" /><line stroke="rgb(0%,0%,0%)" x1="119.531876284" x2="107.426276335" y1="432.402782599" y2="439.310633246" /><line stroke="rgb(0%,0%,0%)" x1="121.918593729" x2="119.531876284" y1="431.495400477" y2="432.402782599" /><line stroke="rgb(0%,0%,0%)" x1="136.480987916" x2="122.564986016" y1="427.409578751" y2="431.410886245" /><line stroke="rgb(0%,0%,0%)" x1="122.564986016" x2="121.918593729" y1="431.410886245" y2="431.495400477" /><line stroke="rgb(0%,0%,0%)" x1="629.555951472" x2="629.476911209" y1="455.911758486" y2="457.431799491" /><line stroke="rgb(0%,0%,0%)" x1="618.808767213" x2="620.59107595" y1="497.288058717" y2="492.100805901" /><line stroke="rgb(0%,0%,0%)" x1="627.543129436" x2="626.035175415" y1="467.639426123" y2="475.702664181" /><line stroke="rgb(0%,0%,0%)" x1="569.709401489" x2="565.785355246" y1="590.749523892" y2="597.618645395" /><line stroke="rgb(0%,0%,0%)" x1="570.336186937" x2="569.709401489" y1="589.701367386" y2="590.749523892" /><line stroke="rgb(0%,0%,0%)" x1="570.336186937" x2="571.525227765" y1="589.701367386" y2="587.234071626" /><line stroke="rgb(0%,0%,0%)" x1="606.135443353" x2="605.738254806" y1="521.75348829" y2="523.174580103" /><line stroke="rgb(0%,0%,0%)" x1="606.135443353" x2="607.123652127" y1="521.75348829" y2="520.016897116" /><line stroke="rgb(0%,0%,0%)" x1="618.808767213" x2="617.144620114" y1="497.288058717" y2="500.713239622" /><line stroke="rgb(0%,0%,0%)" x1="623.394495711" x2="625.440184848" y1="481.005866073" y2="477.348946814" /><line stroke="rgb(0%,0%,0%)" x1="627.543129436" x2="629.476911209" y1="467.639426123" y2="457.431799491" /><line stroke="rgb(0%,0%,0%)" x1="592.664717722" x2="587.840493159" y1="550.699447136" y2="561.672789212" /><line stroke="rgb(0%,0%,0%)" x1="592.664717722" x2="595.283715458" y1="550.699447136" y2="545.812020904" /><line stroke="rgb(0%,0%,0%)" x1="595.283715458" x2="597.440752153" y1="545.812020904" y2="539.837643761" /><line stroke="rgb(0%,0%,0%)" x1="598.17520208" x2="600.483600514" y1="538.82952181" y2="533.619586558" /><line stroke="rgb(0%,0%,0%)" x1="602.234326452" x2="604.724490103" y1="530.785726215" y2="525.464983629" /><line stroke="rgb(0%,0%,0%)" x1="604.724490103" x2="605.738254806" y1="525.464983629" y2="523.174580103" /><line stroke="rgb(0%,0%,0%)" x1="607.123652127" x2="608.615721546" y1="520.016897116" y2="516.891700166" /><line stroke="rgb(0%,0%,0%)" x1="608.615721546" x2="609.357724319" y1="516.891700166" y2="515.438961204" /><line stroke="rgb(0%,0%,0%)" x1="610.951106888" x2="609.357724319" y1="511.616851322" y2="515.438961204" /><line stroke="rgb(0%,0%,0%)" x1="614.401323315" x2="617.144620114" y1="506.381713541" y2="500.713239622" /><line stroke="rgb(0%,0%,0%)" x1="620.59107595" x2="621.619788794" y1="492.100805901" y2="488.502361075" /><line stroke="rgb(0%,0%,0%)" x1="621.619788794" x2="622.735901206" y1="488.502361075" y2="483.019916609" /><line stroke="rgb(0%,0%,0%)" x1="625.440184848" x2="626.035175415" y1="477.348946814" y2="475.702664181" /><line stroke="rgb(0%,0%,0%)" x1="546.496997593" x2="545.945020999" y1="626.109889818" y2="626.831797161" /><line stroke="rgb(0%,0%,0%)" x1="546.496997593" x2="548.257554482" y1="626.109889818" y2="625.204500095" /><line stroke="rgb(0%,0%,0%)" x1="555.380742969" x2="558.705005844" y1="614.245060873" y2="611.927887717" /><line stroke="rgb(0%,0%,0%)" x1="558.705005844" x2="562.727547745" y1="611.927887717" y2="603.271273356" /><line stroke="rgb(0%,0%,0%)" x1="571.525227765" x2="576.258905632" y1="587.234071626" y2="580.194849946" /><line stroke="rgb(0%,0%,0%)" x1="579.045239913" x2="586.060555786" y1="576.512425386" y2="565.715194357" /><line stroke="rgb(0%,0%,0%)" x1="576.258905632" x2="579.045239913" y1="580.194849946" y2="576.512425386" /><line stroke="rgb(0%,0%,0%)" x1="586.060555786" x2="587.840493159" y1="565.715194357" y2="561.672789212" /><line stroke="rgb(0%,0%,0%)" x1="597.440752153" x2="598.17520208" y1="539.837643761" y2="538.82952181" /><line stroke="rgb(0%,0%,0%)" x1="600.483600514" x2="600.896152313" y1="533.619586558" y2="532.795032565" /><line stroke="rgb(0%,0%,0%)" x1="600.896152313" x2="602.234326452" y1="532.795032565" y2="530.785726215" /><line stroke="rgb(0%,0%,0%)" x1="610.951106888" x2="612.14695954" y1="511.616851322" y2="509.65112915" /><line stroke="rgb(0%,0%,0%)" x1="612.14695954" x2="614.401323315" y1="509.65112915" y2="506.381713541" /><line stroke="rgb(0%,0%,0%)" x1="622.735901206" x2="623.394495711" y1="483.019916609" y2="481.005866073" /><line stroke="rgb(0%,0%,0%)" x1="504.942041256" x2="504.245082722" y1="661.170114409" y2="661.974544567" /><line stroke="rgb(0%,0%,0%)" x1="504.942041256" x2="505.647330298" y1="661.170114409" y2="659.372062195" /><line stroke="rgb(0%,0%,0%)" x1="516.311139654" x2="514.117174647" y1="650.402280714" y2="653.142095935" /><line stroke="rgb(0%,0%,0%)" x1="520.096879746" x2="518.29225124" y1="647.539069836" y2="648.363025167" /><line stroke="rgb(0%,0%,0%)" x1="525.385585844" x2="528.901285418" y1="642.699254305" y2="640.82079314" /><line stroke="rgb(0%,0%,0%)" x1="520.096879746" x2="525.385585844" y1="647.539069836" y2="642.699254305" /><line stroke="rgb(0%,0%,0%)" x1="528.901285418" x2="531.317271796" y1="640.82079314" y2="638.298091448" /><line stroke="rgb(0%,0%,0%)" x1="532.501880472" x2="531.317271796" y1="636.350401839" y2="638.298091448" /><line stroke="rgb(0%,0%,0%)" x1="532.501880472" x2="536.506409795" y1="636.350401839" y2="634.899167455" /><line stroke="rgb(0%,0%,0%)" x1="536.506409795" x2="537.143549795" y1="634.899167455" y2="634.519531384" /><line stroke="rgb(0%,0%,0%)" x1="537.143549795" x2="539.398658176" y1="634.519531384" y2="630.425862052" /><line stroke="rgb(0%,0%,0%)" x1="539.398658176" x2="545.945020999" y1="630.425862052" y2="626.831797161" /><line stroke="rgb(0%,0%,0%)" x1="548.257554482" x2="552.690745258" y1="625.204500095" y2="621.050593721" /><line stroke="rgb(0%,0%,0%)" x1="552.690745258" x2="553.876794097" y1="621.050593721" y2="620.348512676" /><line stroke="rgb(0%,0%,0%)" x1="555.380742969" x2="553.876794097" y1="614.245060873" y2="620.348512676" /><line stroke="rgb(0%,0%,0%)" x1="562.727547745" x2="564.126673475" y1="603.271273356" y2="599.270517903" /><line stroke="rgb(0%,0%,0%)" x1="564.126673475" x2="564.76372601" y1="599.270517903" y2="598.785314782" /><line stroke="rgb(0%,0%,0%)" x1="564.76372601" x2="565.785355246" y1="598.785314782" y2="597.618645395" /><line stroke="rgb(0%,0%,0%)" x1="448.550748088" x2="452.252860604" y1="681.707259721" y2="681.859257301" /><line stroke="rgb(0%,0%,0%)" x1="480.520508987" x2="482.489015103" y1="675.555825813" y2="673.706237771" /><line stroke="rgb(0%,0%,0%)" x1="493.628618223" x2="485.103182504" y1="670.151378308" y2="672.402282572" /><line stroke="rgb(0%,0%,0%)" x1="493.628618223" x2="495.719482926" y1="670.151378308" y2="666.560296909" /><line stroke="rgb(0%,0%,0%)" x1="496.049933392" x2="496.755294061" y1="666.365876369" y2="665.78736219" /><line stroke="rgb(0%,0%,0%)" x1="504.245082722" x2="496.755294061" y1="661.974544567" y2="665.78736219" /><line stroke="rgb(0%,0%,0%)" x1="505.647330298" x2="509.860104395" y1="659.372062195" y2="656.647900482" /><line stroke="rgb(0%,0%,0%)" x1="509.860104395" x2="514.117174647" y1="656.647900482" y2="653.142095935" /><line stroke="rgb(0%,0%,0%)" x1="516.311139654" x2="518.29225124" y1="650.402280714" y2="648.363025167" /><line stroke="rgb(0%,0%,0%)" x1="448.550748088" x2="445.150873596" y1="681.707259721" y2="680.641323721" /><line stroke="rgb(0%,0%,0%)" x1="452.252860604" x2="458.365708135" y1="681.859257301" y2="681.684139385" /><line stroke="rgb(0%,0%,0%)" x1="458.365708135" x2="459.8721274" y1="681.684139385" y2="681.243962433" /><line stroke="rgb(0%,0%,0%)" x1="459.8721274" x2="467.113491905" y1="681.243962433" y2="680.656486562" /><line stroke="rgb(0%,0%,0%)" x1="467.113491905" x2="471.692666093" y1="680.656486562" y2="678.106008252" /><line stroke="rgb(0%,0%,0%)" x1="471.692666093" x2="478.263101934" y1="678.106008252" y2="675.94575423" /><line stroke="rgb(0%,0%,0%)" x1="480.520508987" x2="478.263101934" y1="675.555825813" y2="675.94575423" /><line stroke="rgb(0%,0%,0%)" x1="482.489015103" x2="483.666990478" y1="673.706237771" y2="673.271023" /><line stroke="rgb(0%,0%,0%)" x1="483.666990478" x2="485.103182504" y1="673.271023" y2="672.402282572" /><line stroke="rgb(0%,0%,0%)" x1="495.719482926" x2="495.990368253" y1="666.560296909" y2="666.431214222" /><line stroke="rgb(0%,0%,0%)" x1="495.990368253" x2="496.049933392" y1="666.431214222" y2="666.365876369" /><line stroke="rgb(0%,0%,0%)" x1="434.589915314" x2="442.462094109" y1="673.459560182" y2="678.986275881" /><line stroke="rgb(0%,0%,0%)" x1="430.142986753" x2="432.128941368" y1="672.932727867" y2="673.347645" /><line stroke="rgb(0%,0%,0%)" x1="432.128941368" x2="434.589915314" y1="673.347645" y2="673.459560182" /><line stroke="rgb(0%,0%,0%)" x1="428.097224865" x2="430.142986753" y1="673.735836857" y2="672.932727867" /><line stroke="rgb(0%,0%,0%)" x1="445.150873596" x2="442.465573754" y1="680.641323721" y2="678.987869219" /><line stroke="rgb(0%,0%,0%)" x1="442.462094109" x2="442.465573754" y1="678.986275881" y2="678.987869219" /><line stroke="rgb(0%,0%,0%)" x1="384.235660669" x2="382.896205356" y1="670.74615088" y2="670.435515565" /><line stroke="rgb(0%,0%,0%)" x1="397.07800461" x2="402.132670571" y1="676.845196341" y2="677.086831714" /><line stroke="rgb(0%,0%,0%)" x1="387.17500263" x2="388.491407884" y1="673.5854148" y2="674.118367028" /><line stroke="rgb(0%,0%,0%)" x1="384.235660669" x2="387.17500263" y1="670.74615088" y2="673.5854148" /><line stroke="rgb(0%,0%,0%)" x1="392.030825556" x2="386.076290637" y1="597.438642359" y2="599.001772266" /><line stroke="rgb(0%,0%,0%)" x1="408.529062628" x2="416.581727407" y1="677.187177618" y2="676.451429408" /><line stroke="rgb(0%,0%,0%)" x1="406.147805318" x2="408.529062628" y1="677.145913116" y2="677.187177618" /><line stroke="rgb(0%,0%,0%)" x1="402.132670571" x2="406.147805318" y1="677.086831714" y2="677.145913116" /><line stroke="rgb(0%,0%,0%)" x1="419.864396918" x2="416.581727407" y1="675.189616413" y2="676.451429408" /><line stroke="rgb(0%,0%,0%)" x1="419.864396918" x2="428.097224865" y1="675.189616413" y2="673.735836857" /><line stroke="rgb(0%,0%,0%)" x1="307.465964063" x2="306.797242431" y1="586.529255024" y2="586.071596071" /><line stroke="rgb(0%,0%,0%)" x1="353.112935099" x2="350.539645283" y1="607.415591612" y2="608.153486682" /><line stroke="rgb(0%,0%,0%)" x1="354.437345061" x2="353.112935099" y1="606.734451376" y2="607.415591612" /><line stroke="rgb(0%,0%,0%)" x1="354.437345061" x2="355.893227322" y1="606.734451376" y2="606.236975275" /><line stroke="rgb(0%,0%,0%)" x1="345.317547631" x2="348.769697899" y1="594.168754158" y2="594.96909252" /><line stroke="rgb(0%,0%,0%)" x1="357.918588815" x2="355.590020636" y1="664.714023287" y2="663.879167198" /><line stroke="rgb(0%,0%,0%)" x1="357.918588815" x2="362.478333149" y1="664.714023287" y2="667.593557358" /><line stroke="rgb(0%,0%,0%)" x1="355.590020636" x2="353.953213465" y1="663.879167198" y2="661.851816078" /><line stroke="rgb(0%,0%,0%)" x1="366.094572407" x2="355.893227322" y1="602.340712135" y2="606.236975275" /><line stroke="rgb(0%,0%,0%)" x1="348.769697899" x2="354.901578477" y1="594.96909252" y2="596.15157092" /><line stroke="rgb(0%,0%,0%)" x1="354.901578477" x2="368.369460377" y1="596.15157092" y2="597.533262661" /><line stroke="rgb(0%,0%,0%)" x1="362.478333149" x2="367.331435396" y1="667.593557358" y2="668.847535562" /><line stroke="rgb(0%,0%,0%)" x1="370.585048427" x2="366.094572407" y1="601.009201191" y2="602.340712135" /><line stroke="rgb(0%,0%,0%)" x1="370.585048427" x2="373.814134369" y1="601.009201191" y2="600.093238084" /><line stroke="rgb(0%,0%,0%)" x1="373.814134369" x2="378.398227868" y1="600.093238084" y2="599.640575239" /><line stroke="rgb(0%,0%,0%)" x1="368.369460377" x2="374.054805521" y1="597.533262661" y2="597.908601259" /><line stroke="rgb(0%,0%,0%)" x1="378.248896677" x2="382.896205356" y1="670.640567465" y2="670.435515565" /><line stroke="rgb(0%,0%,0%)" x1="367.331435396" x2="374.800396829" y1="668.847535562" y2="669.908883211" /><line stroke="rgb(0%,0%,0%)" x1="374.800396829" x2="378.248896677" y1="669.908883211" y2="670.640567465" /><line stroke="rgb(0%,0%,0%)" x1="386.076290637" x2="378.398227868" y1="599.001772266" y2="599.640575239" /><line stroke="rgb(0%,0%,0%)" x1="374.054805521" x2="378.825888213" y1="597.908601259" y2="598.445494481" /><line stroke="rgb(0%,0%,0%)" x1="388.491407884" x2="397.07800461" y1="674.118367028" y2="676.845196341" /><line stroke="rgb(0%,0%,0%)" x1="378.825888213" x2="384.688704918" y1="598.445494481" y2="598.043682618" /><line stroke="rgb(0%,0%,0%)" x1="306.797242431" x2="299.755062189" y1="586.071596071" y2="583.940747009" /><line stroke="rgb(0%,0%,0%)" x1="307.465964063" x2="328.206876957" y1="586.529255024" y2="590.846206522" /><line stroke="rgb(0%,0%,0%)" x1="328.206876957" x2="329.230071688" y1="590.846206522" y2="591.360136487" /><line stroke="rgb(0%,0%,0%)" x1="329.230071688" x2="332.553548916" y1="591.360136487" y2="592.280380555" /><line stroke="rgb(0%,0%,0%)" x1="334.66687068" x2="336.257412815" y1="623.985727882" y2="625.161380849" /><line stroke="rgb(0%,0%,0%)" x1="332.883194266" x2="332.745086665" y1="619.726959137" y2="619.98175225" /><line stroke="rgb(0%,0%,0%)" x1="332.883194266" x2="332.818222898" y1="619.726959137" y2="619.588308561" /><line stroke="rgb(0%,0%,0%)" x1="332.682683332" x2="332.818222898" y1="619.301883787" y2="619.588308561" /><line stroke="rgb(0%,0%,0%)" x1="333.544405116" x2="332.682683332" y1="618.050655869" y2="619.301883787" /><line stroke="rgb(0%,0%,0%)" x1="333.726092212" x2="333.544405116" y1="617.714586141" y2="618.050655869" /><line stroke="rgb(0%,0%,0%)" x1="333.726092212" x2="335.86887328" y1="617.714586141" y2="616.484355348" /><line stroke="rgb(0%,0%,0%)" x1="339.853322313" x2="347.692066579" y1="628.075984629" y2="631.675210494" /><line stroke="rgb(0%,0%,0%)" x1="338.650450977" x2="339.853322313" y1="627.200596563" y2="628.075984629" /><line stroke="rgb(0%,0%,0%)" x1="336.257412815" x2="338.016348819" y1="625.161380849" y2="626.749681102" /><line stroke="rgb(0%,0%,0%)" x1="338.650450977" x2="338.016348819" y1="627.200596563" y2="626.749681102" /><line stroke="rgb(0%,0%,0%)" x1="334.66687068" x2="333.464101657" y1="623.985727882" y2="623.008891178" /><line stroke="rgb(0%,0%,0%)" x1="332.745086665" x2="333.244077523" y1="619.98175225" y2="621.969846051" /><line stroke="rgb(0%,0%,0%)" x1="338.253089217" x2="335.86887328" y1="614.717250373" y2="616.484355348" /><line stroke="rgb(0%,0%,0%)" x1="341.615964359" x2="339.894389771" y1="612.796503152" y2="614.003181815" /><line stroke="rgb(0%,0%,0%)" x1="344.563279583" x2="341.615964359" y1="611.449190519" y2="612.796503152" /><line stroke="rgb(0%,0%,0%)" x1="344.563279583" x2="345.120538381" y1="611.449190519" y2="611.210673948" /><line stroke="rgb(0%,0%,0%)" x1="345.120538381" x2="346.232689396" y1="611.210673948" y2="610.114810253" /><line stroke="rgb(0%,0%,0%)" x1="332.553548916" x2="345.317547631" y1="592.280380555" y2="594.168754158" /><line stroke="rgb(0%,0%,0%)" x1="350.752046339" x2="353.953213465" y1="655.799162848" y2="661.851816078" /><line stroke="rgb(0%,0%,0%)" x1="350.752046339" x2="348.329087614" y1="655.799162848" y2="650.199797572" /><line stroke="rgb(0%,0%,0%)" x1="348.920602734" x2="348.329087614" y1="647.593057423" y2="650.199797572" /><line stroke="rgb(0%,0%,0%)" x1="351.938517914" x2="348.920602734" y1="640.122147986" y2="647.593057423" /><line stroke="rgb(0%,0%,0%)" x1="354.155308435" x2="351.938517914" y1="636.728495443" y2="640.122147986" /><line stroke="rgb(0%,0%,0%)" x1="353.928432901" x2="354.155308435" y1="636.718889687" y2="636.728495443" /><line stroke="rgb(0%,0%,0%)" x1="349.334485426" x2="353.928432901" y1="633.965622746" y2="636.718889687" /><line stroke="rgb(0%,0%,0%)" x1="347.692066579" x2="349.334485426" y1="631.675210494" y2="633.965622746" /><line stroke="rgb(0%,0%,0%)" x1="339.894389771" x2="338.253089217" y1="614.003181815" y2="614.717250373" /><line stroke="rgb(0%,0%,0%)" x1="350.539645283" x2="346.232689396" y1="608.153486682" y2="610.114810253" /><line stroke="rgb(0%,0%,0%)" x1="251.023508491" x2="252.752413264" y1="563.207796085" y2="564.709883506" /><line stroke="rgb(0%,0%,0%)" x1="273.153858315" x2="274.054679059" y1="577.989512391" y2="578.070186749" /><line stroke="rgb(0%,0%,0%)" x1="270.752437644" x2="273.153858315" y1="576.297520445" y2="577.989512391" /><line stroke="rgb(0%,0%,0%)" x1="270.752437644" x2="266.5554219" y1="576.297520445" y2="574.949459759" /><line stroke="rgb(0%,0%,0%)" x1="289.814704886" x2="292.563074694" y1="581.627791209" y2="582.174584696" /><line stroke="rgb(0%,0%,0%)" x1="289.814704886" x2="285.423777582" y1="581.627791209" y2="580.24065432" /><line stroke="rgb(0%,0%,0%)" x1="296.742518937" x2="299.755062189" y1="583.0844428" y2="583.940747009" /><line stroke="rgb(0%,0%,0%)" x1="292.563074694" x2="296.742518937" y1="582.174584696" y2="583.0844428" /><line stroke="rgb(0%,0%,0%)" x1="333.244077523" x2="333.464101657" y1="621.969846051" y2="623.008891178" /><line stroke="rgb(0%,0%,0%)" x1="232.205922465" x2="233.087606664" y1="544.354511209" y2="545.24227542" /><line stroke="rgb(0%,0%,0%)" x1="232.205922465" x2="231.704077005" y1="544.354511209" y2="543.647537141" /><line stroke="rgb(0%,0%,0%)" x1="209.852948458" x2="209.673930133" y1="527.433668313" y2="527.338478495" /><line stroke="rgb(0%,0%,0%)" x1="209.852948458" x2="215.284802842" y1="527.433668313" y2="533.031995299" /><line stroke="rgb(0%,0%,0%)" x1="251.023508491" x2="248.972183948" y1="563.207796085" y2="561.368427592" /><line stroke="rgb(0%,0%,0%)" x1="241.270518251" x2="237.743914479" y1="554.410371285" y2="550.408246688" /><line stroke="rgb(0%,0%,0%)" x1="260.227425154" x2="263.342976033" y1="570.320344735" y2="572.526762474" /><line stroke="rgb(0%,0%,0%)" x1="257.599040369" x2="260.227425154" y1="568.565358609" y2="570.320344735" /><line stroke="rgb(0%,0%,0%)" x1="252.752413264" x2="257.599040369" y1="564.709883506" y2="568.565358609" /><line stroke="rgb(0%,0%,0%)" x1="263.342976033" x2="266.5554219" y1="572.526762474" y2="574.949459759" /><line stroke="rgb(0%,0%,0%)" x1="274.054679059" x2="285.423777582" y1="578.070186749" y2="580.24065432" /><line stroke="rgb(0%,0%,0%)" x1="206.931946899" x2="209.673930133" y1="524.546834114" y2="527.338478495" /><line stroke="rgb(0%,0%,0%)" x1="204.582096322" x2="206.931946899" y1="522.283548891" y2="524.546834114" /><line stroke="rgb(0%,0%,0%)" x1="200.915177553" x2="201.725099989" y1="517.831264912" y2="519.060599606" /><line stroke="rgb(0%,0%,0%)" x1="201.725099989" x2="204.582096322" y1="519.060599606" y2="522.283548891" /><line stroke="rgb(0%,0%,0%)" x1="197.216761819" x2="200.915177553" y1="513.488401751" y2="517.831264912" /><line stroke="rgb(0%,0%,0%)" x1="197.216761819" x2="196.806834791" y1="513.488401751" y2="513.130564145" /><line stroke="rgb(0%,0%,0%)" x1="196.806834791" x2="190.714739169" y1="513.130564145" y2="508.535359749" /><line stroke="rgb(0%,0%,0%)" x1="215.284802842" x2="231.704077005" y1="533.031995299" y2="543.647537141" /><line stroke="rgb(0%,0%,0%)" x1="235.676855629" x2="237.743914479" y1="548.924449816" y2="550.408246688" /><line stroke="rgb(0%,0%,0%)" x1="233.087606664" x2="235.676855629" y1="545.24227542" y2="548.924449816" /><line stroke="rgb(0%,0%,0%)" x1="245.66271003" x2="248.972183948" y1="558.540838095" y2="561.368427592" /><line stroke="rgb(0%,0%,0%)" x1="241.270518251" x2="245.66271003" y1="554.410371285" y2="558.540838095" /><line stroke="rgb(0%,0%,0%)" x1="161.120470543" x2="160.887876885" y1="490.919430565" y2="490.788417781" /><line stroke="rgb(0%,0%,0%)" x1="173.864426885" x2="189.623812923" y1="496.379755611" y2="507.755366221" /><line stroke="rgb(0%,0%,0%)" x1="161.120470543" x2="173.864426885" y1="490.919430565" y2="496.379755611" /><line stroke="rgb(0%,0%,0%)" x1="189.894129269" x2="190.714739169" y1="507.96631967" y2="508.535359749" /><line stroke="rgb(0%,0%,0%)" x1="189.623812923" x2="189.817008954" y1="507.755366221" y2="507.912596346" /><line stroke="rgb(0%,0%,0%)" x1="137.13915764" x2="138.133689647" y1="485.825325084" y2="485.970385421" /><line stroke="rgb(0%,0%,0%)" x1="147.742987128" x2="160.887876885" y1="487.87864468" y2="490.788417781" /><line stroke="rgb(0%,0%,0%)" x1="138.133689647" x2="147.742987128" y1="485.970385421" y2="487.87864468" /><line stroke="rgb(0%,0%,0%)" x1="189.817008954" x2="189.894129269" y1="507.912596346" y2="507.96631967" /><line stroke="rgb(0%,0%,0%)" x1="104.107259815" x2="98.9698745151" y1="462.310871979" y2="466.536576017" /><line stroke="rgb(0%,0%,0%)" x1="97.733171785" x2="99.1987130459" y1="474.628660716" y2="477.06425567" /><line stroke="rgb(0%,0%,0%)" x1="97.4167850661" x2="97.733171785" y1="468.977628852" y2="474.628660716" /><line stroke="rgb(0%,0%,0%)" x1="98.9698745151" x2="97.4167850661" y1="466.536576017" y2="468.977628852" /><line stroke="rgb(0%,0%,0%)" x1="107.030425856" x2="112.700379041" y1="480.314140443" y2="482.105000291" /><line stroke="rgb(0%,0%,0%)" x1="99.1987130459" x2="107.030425856" y1="477.06425567" y2="480.314140443" /><line stroke="rgb(0%,0%,0%)" x1="114.03279032" x2="112.700379041" y1="482.430062522" y2="482.105000291" /><line stroke="rgb(0%,0%,0%)" x1="112.492237991" x2="110.999118599" y1="457.369071708" y2="458.725299836" /><line stroke="rgb(0%,0%,0%)" x1="110.999118599" x2="104.107259815" y1="458.725299836" y2="462.310871979" /><line stroke="rgb(0%,0%,0%)" x1="114.03279032" x2="137.13915764" y1="482.430062522" y2="485.825325084" /><line stroke="rgb(0%,0%,0%)" x1="114.896303699" x2="112.492237991" y1="454.871772672" y2="457.369071708" /><line stroke="rgb(0%,0%,0%)" x1="114.896303699" x2="115.151152453" y1="454.871772672" y2="451.090619878" /><line stroke="rgb(0%,0%,0%)" x1="384.688704918" x2="392.030825556" y1="598.043682618" y2="597.438642359" /></svg>