<?xml version="1.0" encoding="utf-8" ?>
<svg baseProfile="full" height="100%" version="1.1" viewBox="0.5 0.5 685.793960571 941.299331665" width="100%" xmlns="http://www.w3.org/2000/svg" xmlns:ev="http://www.w3.org/2001/xml-events" xmlns:xlink="http://www.w3.org/1999/xlink"><defs /><line stroke="rgb(0%,0%,0%)" x1="628.973191373" x2="629.04431015" y1="455.872255242" y2="454.187637372" /><line stroke="rgb(0%,0%,0%)" x1="628.478206628" x2="628.498675513" y1="438.064444283" y2="438.179491667" /><line stroke="rgb(0%,0%,0%)" x1="612.271610135" x2="612.852108963" y1="387.331484887" y2="388.820321326" /><line stroke="rgb(0%,0%,0%)" x1="628.478206628" x2="628.417266339" y1="438.064444283" y2="437.653517401" /><line stroke="rgb(0%,0%,0%)" x1="612.271610135" x2="610.888604105" y1="387.331484887" y2="383.691025898" /><line stroke="rgb(0%,0%,0%)" x1="620.319006393" x2="621.006454785" y1="409.223234332" y2="411.434812023" /><line stroke="rgb(0%,0%,0%)" x1="620.319006393" x2="620.149323069" y1="409.223234332" y2="408.742313884" /><line stroke="rgb(0%,0%,0%)" x1="618.099712705" x2="617.361482087" y1="405.699068368" y2="401.078433149" /><line stroke="rgb(0%,0%,0%)" x1="616.442843181" x2="617.361482087" y1="397.891786705" y2="401.078433149" /><line stroke="rgb(0%,0%,0%)" x1="629.04431015" x2="628.498675513" y1="454.187637372" y2="438.179491667" /><line stroke="rgb(0%,0%,0%)" x1="567.136458938" x2="559.891494353" y1="314.547732302" y2="305.649329564" /><line stroke="rgb(0%,0%,0%)" x1="584.374348193" x2="588.81579634" y1="343.482021786" y2="349.604571632" /><line stroke="rgb(0%,0%,0%)" x1="584.374348193" x2="583.4480074" y1="343.482021786" y2="340.844135629" /><line stroke="rgb(0%,0%,0%)" x1="571.248448285" x2="574.293455336" y1="322.328966841" y2="327.885996139" /><line stroke="rgb(0%,0%,0%)" x1="610.888604105" x2="606.446065015" y1="383.691025898" y2="375.018535092" /><line stroke="rgb(0%,0%,0%)" x1="600.35233846" x2="604.75040276" y1="367.326365909" y2="372.947517248" /><line stroke="rgb(0%,0%,0%)" x1="628.417266339" x2="626.787962058" y1="437.653517401" y2="431.947604189" /><line stroke="rgb(0%,0%,0%)" x1="626.787962058" x2="626.249104723" y1="431.947604189" y2="429.475960811" /><line stroke="rgb(0%,0%,0%)" x1="626.249104723" x2="624.205357268" y1="429.475960811" y2="422.615004735" /><line stroke="rgb(0%,0%,0%)" x1="623.248331141" x2="621.006454785" y1="419.730307326" y2="411.434812023" /><line stroke="rgb(0%,0%,0%)" x1="620.149323069" x2="618.099712705" y1="408.742313884" y2="405.699068368" /><line stroke="rgb(0%,0%,0%)" x1="616.442843181" x2="614.173198157" y1="397.891786705" y2="394.080837445" /><line stroke="rgb(0%,0%,0%)" x1="533.374460849" x2="533.423829888" y1="284.528638403" y2="284.549618539" /><line stroke="rgb(0%,0%,0%)" x1="559.891494353" x2="559.071167899" y1="305.649329564" y2="302.929991485" /><line stroke="rgb(0%,0%,0%)" x1="559.071167899" x2="557.131126522" y1="302.929991485" y2="301.525550806" /><line stroke="rgb(0%,0%,0%)" x1="579.948747094" x2="574.293455336" y1="335.09609477" y2="327.885996139" /><line stroke="rgb(0%,0%,0%)" x1="571.248448285" x2="569.082506038" y1="322.328966841" y2="316.642900659" /><line stroke="rgb(0%,0%,0%)" x1="583.4480074" x2="579.948747094" y1="340.844135629" y2="335.09609477" /><line stroke="rgb(0%,0%,0%)" x1="606.446065015" x2="604.75040276" y1="375.018535092" y2="372.947517248" /><line stroke="rgb(0%,0%,0%)" x1="600.35233846" x2="598.56842922" y1="367.326365909" y2="365.513527424" /><line stroke="rgb(0%,0%,0%)" x1="598.56842922" x2="592.653742785" y1="365.513527424" y2="355.573987724" /><line stroke="rgb(0%,0%,0%)" x1="591.529282601" x2="588.81579634" y1="354.783906456" y2="349.604571632" /><line stroke="rgb(0%,0%,0%)" x1="614.173198157" x2="612.852108963" y1="394.080837445" y2="388.820321326" /><line stroke="rgb(0%,0%,0%)" x1="509.894730921" x2="508.241312101" y1="266.455263164" y2="265.817507341" /><line stroke="rgb(0%,0%,0%)" x1="502.595891248" x2="500.395228861" y1="260.245837297" y2="259.057096271" /><line stroke="rgb(0%,0%,0%)" x1="520.600847282" x2="528.634740423" y1="274.920381828" y2="280.957191504" /><line stroke="rgb(0%,0%,0%)" x1="509.894730921" x2="512.883315438" y1="266.455263164" y2="269.063130164" /><line stroke="rgb(0%,0%,0%)" x1="520.600847282" x2="512.883315438" y1="274.920381828" y2="269.063130164" /><line stroke="rgb(0%,0%,0%)" x1="533.374460849" x2="532.742028904" y1="284.528638403" y2="284.096223688" /><line stroke="rgb(0%,0%,0%)" x1="552.72766836" x2="549.458125485" y1="295.985666846" y2="293.654838028" /><line stroke="rgb(0%,0%,0%)" x1="549.458125485" x2="544.015027603" y1="293.654838028" y2="292.562342913" /><line stroke="rgb(0%,0%,0%)" x1="544.015027603" x2="541.267092792" y1="292.562342913" y2="290.565362431" /><line stroke="rgb(0%,0%,0%)" x1="541.267092792" x2="540.781893651" y1="290.565362431" y2="288.57475206" /><line stroke="rgb(0%,0%,0%)" x1="538.134775669" x2="540.781893651" y1="287.784314844" y2="288.57475206" /><line stroke="rgb(0%,0%,0%)" x1="538.134775669" x2="533.423829888" y1="287.784314844" y2="284.549618539" /><line stroke="rgb(0%,0%,0%)" x1="557.131126522" x2="555.76757794" y1="301.525550806" y2="301.100254439" /><line stroke="rgb(0%,0%,0%)" x1="555.76757794" x2="554.861054435" y1="301.100254439" y2="298.705674258" /><line stroke="rgb(0%,0%,0%)" x1="552.72766836" x2="554.861054435" y1="295.985666846" y2="298.705674258" /><line stroke="rgb(0%,0%,0%)" x1="569.082506038" x2="567.136458938" y1="316.642900659" y2="314.547732302" /><line stroke="rgb(0%,0%,0%)" x1="592.653742785" x2="591.529282601" y1="355.573987724" y2="354.783906456" /><line stroke="rgb(0%,0%,0%)" x1="624.205357268" x2="623.248331141" y1="422.615004735" y2="419.730307326" /><line stroke="rgb(0%,0%,0%)" x1="485.469127173" x2="484.804994161" y1="248.66011575" y2="248.258815238" /><line stroke="rgb(0%,0%,0%)" x1="484.804994161" x2="483.207224139" y1="248.258815238" y2="247.426597781" /><line stroke="rgb(0%,0%,0%)" x1="500.395228861" x2="496.607538153" y1="259.057096271" y2="256.152526484" /><line stroke="rgb(0%,0%,0%)" x1="496.607538153" x2="494.014176259" y1="256.152526484" y2="254.323019188" /><line stroke="rgb(0%,0%,0%)" x1="494.014176259" x2="492.301606435" y1="254.323019188" y2="252.910179369" /><line stroke="rgb(0%,0%,0%)" x1="508.241312101" x2="505.681877251" y1="265.817507341" y2="263.237968563" /><line stroke="rgb(0%,0%,0%)" x1="502.595891248" x2="503.885100063" y1="260.245837297" y2="261.988577725" /><line stroke="rgb(0%,0%,0%)" x1="532.742028904" x2="529.302883713" y1="284.096223688" y2="281.576296604" /><line stroke="rgb(0%,0%,0%)" x1="529.302883713" x2="529.061301038" y1="281.576296604" y2="281.296113081" /><line stroke="rgb(0%,0%,0%)" x1="529.061301038" x2="528.634740423" y1="281.296113081" y2="280.957191504" /><line stroke="rgb(0%,0%,0%)" x1="459.194704806" x2="456.297014193" y1="236.480345035" y2="234.381154456" /><line stroke="rgb(0%,0%,0%)" x1="459.194704806" x2="462.176040937" y1="236.480345035" y2="237.971327733" /><line stroke="rgb(0%,0%,0%)" x1="449.710081125" x2="445.760426668" y1="234.875665006" y2="233.384469861" /><line stroke="rgb(0%,0%,0%)" x1="469.422026834" x2="475.305781647" y1="238.945731524" y2="242.762047649" /><line stroke="rgb(0%,0%,0%)" x1="489.392081468" x2="485.469127173" y1="250.24612487" y2="248.66011575" /><line stroke="rgb(0%,0%,0%)" x1="489.392081468" x2="492.301606435" y1="250.24612487" y2="252.910179369" /><line stroke="rgb(0%,0%,0%)" x1="505.681877251" x2="503.885100063" y1="263.237968563" y2="261.988577725" /><line stroke="rgb(0%,0%,0%)" x1="440.232261964" x2="445.760426668" y1="233.32825255" y2="233.384469861" /><line stroke="rgb(0%,0%,0%)" x1="456.297014193" x2="449.710081125" y1="234.381154456" y2="234.875665006" /><line stroke="rgb(0%,0%,0%)" x1="469.422026834" x2="462.176040937" y1="238.945731524" y2="237.971327733" /><line stroke="rgb(0%,0%,0%)" x1="483.207224139" x2="475.305781647" y1="247.426597781" y2="242.762047649" /><line stroke="rgb(0%,0%,0%)" x1="420.640043209" x2="416.984000871" y1="238.642861085" y2="237.255592485" /><line stroke="rgb(0%,0%,0%)" x1="420.640043209" x2="422.9362727" y1="238.642861085" y2="238.613451831" /><line stroke="rgb(0%,0%,0%)" x1="416.984000871" x2="408.171670411" y1="237.255592485" y2="235.399915234" /><line stroke="rgb(0%,0%,0%)" x1="430.541399264" x2="426.505220492" y1="237.936494743" y2="238.644828017" /><line stroke="rgb(0%,0%,0%)" x1="426.505220492" x2="422.9362727" y1="238.644828017" y2="238.613451831" /><line stroke="rgb(0%,0%,0%)" x1="440.232261964" x2="430.541399264" y1="233.32825255" y2="237.936494743" /><line stroke="rgb(0%,0%,0%)" x1="389.026776357" x2="383.816242563" y1="234.579905762" y2="240.044109996" /><line stroke="rgb(0%,0%,0%)" x1="389.026776357" x2="390.308515756" y1="234.579905762" y2="234.255695383" /><line stroke="rgb(0%,0%,0%)" x1="383.816242563" x2="382.682039703" y1="240.044109996" y2="241.150712132" /><line stroke="rgb(0%,0%,0%)" x1="400.222172637" x2="393.173859477" y1="233.165535433" y2="234.228189698" /><line stroke="rgb(0%,0%,0%)" x1="390.308515756" x2="393.173859477" y1="234.255695383" y2="234.228189698" /><line stroke="rgb(0%,0%,0%)" x1="402.11064801" x2="408.171670411" y1="233.573427418" y2="235.399915234" /><line stroke="rgb(0%,0%,0%)" x1="402.11064801" x2="400.222172637" y1="233.573427418" y2="233.165535433" /><line stroke="rgb(0%,0%,0%)" x1="348.801303925" x2="347.879089859" y1="246.089704613" y2="246.148865266" /><line stroke="rgb(0%,0%,0%)" x1="348.801303925" x2="351.170719878" y1="246.089704613" y2="244.593134978" /><line stroke="rgb(0%,0%,0%)" x1="365.518394683" x2="356.345989679" y1="314.710253168" y2="315.382884062" /><line stroke="rgb(0%,0%,0%)" x1="365.720364645" x2="365.518394683" y1="313.872803802" y2="314.710253168" /><line stroke="rgb(0%,0%,0%)" x1="356.094047514" x2="365.720364645" y1="311.087867422" y2="313.872803802" /><line stroke="rgb(0%,0%,0%)" x1="371.617359528" x2="353.471728344" y1="242.915013221" y2="243.430651763" /><line stroke="rgb(0%,0%,0%)" x1="375.156185466" x2="371.617359528" y1="243.133544982" y2="242.915013221" /><line stroke="rgb(0%,0%,0%)" x1="375.156185466" x2="382.068172799" y1="243.133544982" y2="241.330020965" /><line stroke="rgb(0%,0%,0%)" x1="382.682039703" x2="382.068172799" y1="241.150712132" y2="241.330020965" /><line stroke="rgb(0%,0%,0%)" x1="299.916842284" x2="292.183707951" y1="324.577335829" y2="326.974471583" /><line stroke="rgb(0%,0%,0%)" x1="301.138856152" x2="299.916842284" y1="324.124001299" y2="324.577335829" /><line stroke="rgb(0%,0%,0%)" x1="301.138856152" x2="303.657606114" y1="324.124001299" y2="323.463694937" /><line stroke="rgb(0%,0%,0%)" x1="329.548024657" x2="331.993018523" y1="299.181619892" y2="300.241533662" /><line stroke="rgb(0%,0%,0%)" x1="323.478391052" x2="323.178041445" y1="292.884697567" y2="293.352353825" /><line stroke="rgb(0%,0%,0%)" x1="323.74881254" x2="323.478391052" y1="291.345115246" y2="292.884697567" /><line stroke="rgb(0%,0%,0%)" x1="326.210491489" x2="325.285599798" y1="288.573110599" y2="289.350074526" /><line stroke="rgb(0%,0%,0%)" x1="331.809573069" x2="334.274246208" y1="318.957344649" y2="318.159619081" /><line stroke="rgb(0%,0%,0%)" x1="338.468002569" x2="338.381387028" y1="303.824697404" y2="303.78253306" /><line stroke="rgb(0%,0%,0%)" x1="331.993018523" x2="338.381387028" y1="300.241533662" y2="303.78253306" /><line stroke="rgb(0%,0%,0%)" x1="329.548024657" x2="325.219330117" y1="299.181619892" y2="296.455066906" /><line stroke="rgb(0%,0%,0%)" x1="326.210491489" x2="328.288923381" y1="288.573110599" y2="287.146642978" /><line stroke="rgb(0%,0%,0%)" x1="332.387990626" x2="328.288923381" y1="285.078976892" y2="287.146642978" /><line stroke="rgb(0%,0%,0%)" x1="333.107547249" x2="332.387990626" y1="284.620094541" y2="285.078976892" /><line stroke="rgb(0%,0%,0%)" x1="335.010792771" x2="338.11321966" y1="268.288820794" y2="270.61814304" /><line stroke="rgb(0%,0%,0%)" x1="335.010792771" x2="335.352891079" y1="268.288820794" y2="265.205881394" /><line stroke="rgb(0%,0%,0%)" x1="334.274246208" x2="347.704706695" y1="318.159619081" y2="316.374825402" /><line stroke="rgb(0%,0%,0%)" x1="349.68790254" x2="347.704706695" y1="316.185711326" y2="316.374825402" /><line stroke="rgb(0%,0%,0%)" x1="338.468002569" x2="346.555748119" y1="303.824697404" y2="307.803950981" /><line stroke="rgb(0%,0%,0%)" x1="343.474312289" x2="334.259885117" y1="277.814272093" y2="283.760608376" /><line stroke="rgb(0%,0%,0%)" x1="333.107547249" x2="334.259885117" y1="284.620094541" y2="283.760608376" /><line stroke="rgb(0%,0%,0%)" x1="344.733225199" x2="343.474312289" y1="277.062137459" y2="277.814272093" /><line stroke="rgb(0%,0%,0%)" x1="338.11321966" x2="344.733225199" y1="270.61814304" y2="277.062137459" /><line stroke="rgb(0%,0%,0%)" x1="335.374510381" x2="335.352891079" y1="264.306749984" y2="265.205881394" /><line stroke="rgb(0%,0%,0%)" x1="341.706557826" x2="335.374510381" y1="253.815791859" y2="264.306749984" /><line stroke="rgb(0%,0%,0%)" x1="346.716576479" x2="341.706557826" y1="247.513927244" y2="253.815791859" /><line stroke="rgb(0%,0%,0%)" x1="347.879089859" x2="346.716576479" y1="246.148865266" y2="247.513927244" /><line stroke="rgb(0%,0%,0%)" x1="350.890524286" x2="349.68790254" y1="316.236081362" y2="316.185711326" /><line stroke="rgb(0%,0%,0%)" x1="356.345989679" x2="350.890524286" y1="315.382884062" y2="316.236081362" /><line stroke="rgb(0%,0%,0%)" x1="352.887168674" x2="356.094047514" y1="309.584478022" y2="311.087867422" /><line stroke="rgb(0%,0%,0%)" x1="346.555748119" x2="352.887168674" y1="307.803950981" y2="309.584478022" /><line stroke="rgb(0%,0%,0%)" x1="353.244901601" x2="353.005156904" y1="243.539161215" y2="243.556465473" /><line stroke="rgb(0%,0%,0%)" x1="353.471728344" x2="353.244901601" y1="243.430651763" y2="243.539161215" /><line stroke="rgb(0%,0%,0%)" x1="353.005156904" x2="351.170719878" y1="243.556465473" y2="244.593134978" /><line stroke="rgb(0%,0%,0%)" x1="292.183707951" x2="292.060875275" y1="326.974471583" y2="327.029772704" /><line stroke="rgb(0%,0%,0%)" x1="317.741402845" x2="303.657606114" y1="320.257970018" y2="323.463694937" /><line stroke="rgb(0%,0%,0%)" x1="331.809573069" x2="317.741402845" y1="318.957344649" y2="320.257970018" /><line stroke="rgb(0%,0%,0%)" x1="323.857538002" x2="325.219330117" y1="295.672086934" y2="296.455066906" /><line stroke="rgb(0%,0%,0%)" x1="323.15787881" x2="323.857538002" y1="294.240704159" y2="295.672086934" /><line stroke="rgb(0%,0%,0%)" x1="323.178041445" x2="323.15787881" y1="293.352353825" y2="294.240704159" /><line stroke="rgb(0%,0%,0%)" x1="325.285599798" x2="323.74881254" y1="289.350074526" y2="291.345115246" /><line stroke="rgb(0%,0%,0%)" x1="251.548346097" x2="254.536434113" y1="349.488845095" y2="347.155472028" /><line stroke="rgb(0%,0%,0%)" x1="251.548346097" x2="249.507217054" y1="349.488845095" y2="352.01346927" /><line stroke="rgb(0%,0%,0%)" x1="263.697219384" x2="265.65375996" y1="338.298582206" y2="337.72914137" /><line stroke="rgb(0%,0%,0%)" x1="258.748823692" x2="261.741813596" y1="343.153880098" y2="340.320407396" /><line stroke="rgb(0%,0%,0%)" x1="263.697219384" x2="261.741813596" y1="338.298582206" y2="340.320407396" /><line stroke="rgb(0%,0%,0%)" x1="266.312970681" x2="265.65375996" y1="337.019141293" y2="337.72914137" /><line stroke="rgb(0%,0%,0%)" x1="266.312970681" x2="267.689308492" y1="337.019141293" y2="336.543155838" /><line stroke="rgb(0%,0%,0%)" x1="271.78204516" x2="267.689308492" y1="333.834063248" y2="336.543155838" /><line stroke="rgb(0%,0%,0%)" x1="275.388866835" x2="271.78204516" y1="332.56791489" y2="333.834063248" /><line stroke="rgb(0%,0%,0%)" x1="280.327865795" x2="275.388866835" y1="331.41675674" y2="332.56791489" /><line stroke="rgb(0%,0%,0%)" x1="284.027578953" x2="280.327865795" y1="329.545560833" y2="331.41675674" /><line stroke="rgb(0%,0%,0%)" x1="284.027578953" x2="290.58979144" y1="329.545560833" y2="327.502922706" /><line stroke="rgb(0%,0%,0%)" x1="291.271319821" x2="290.58979144" y1="327.189947516" y2="327.502922706" /><line stroke="rgb(0%,0%,0%)" x1="292.060875275" x2="291.271319821" y1="327.029772704" y2="327.189947516" /><line stroke="rgb(0%,0%,0%)" x1="234.042822077" x2="231.371504194" y1="369.572076819" y2="370.948675315" /><line stroke="rgb(0%,0%,0%)" x1="238.726488615" x2="234.042822077" y1="363.227114125" y2="369.572076819" /><line stroke="rgb(0%,0%,0%)" x1="244.670972435" x2="238.726488615" y1="356.280139649" y2="363.227114125" /><line stroke="rgb(0%,0%,0%)" x1="249.507217054" x2="244.670972435" y1="352.01346927" y2="356.280139649" /><line stroke="rgb(0%,0%,0%)" x1="258.748823692" x2="254.536434113" y1="343.153880098" y2="347.155472028" /><line stroke="rgb(0%,0%,0%)" x1="183.785688799" x2="174.854423574" y1="403.347398948" y2="409.635226096" /><line stroke="rgb(0%,0%,0%)" x1="183.785688799" x2="191.673510709" y1="403.347398948" y2="398.058896108" /><line stroke="rgb(0%,0%,0%)" x1="201.262947592" x2="197.196596608" y1="391.182801528" y2="394.32530224" /><line stroke="rgb(0%,0%,0%)" x1="204.874552821" x2="201.262947592" y1="388.016720852" y2="391.182801528" /><line stroke="rgb(0%,0%,0%)" x1="204.874552821" x2="210.832352246" y1="388.016720852" y2="383.690419368" /><line stroke="rgb(0%,0%,0%)" x1="228.948597635" x2="218.296084316" y1="372.930046895" y2="378.566120419" /><line stroke="rgb(0%,0%,0%)" x1="218.296084316" x2="214.089752416" y1="378.566120419" y2="380.97489187" /><line stroke="rgb(0%,0%,0%)" x1="228.948597635" x2="231.371504194" y1="372.930046895" y2="370.948675315" /><line stroke="rgb(0%,0%,0%)" x1="166.840496433" x2="159.569551532" y1="413.495633838" y2="418.135787638" /><line stroke="rgb(0%,0%,0%)" x1="174.854423574" x2="166.840496433" y1="409.635226096" y2="413.495633838" /><line stroke="rgb(0%,0%,0%)" x1="197.196596608" x2="191.673510709" y1="394.32530224" y2="398.058896108" /><line stroke="rgb(0%,0%,0%)" x1="213.955526625" x2="210.832352246" y1="381.16979782" y2="383.690419368" /><line stroke="rgb(0%,0%,0%)" x1="214.089752416" x2="213.955526625" y1="380.97489187" y2="381.16979782" /><line stroke="rgb(0%,0%,0%)" x1="159.569551532" x2="145.219086918" y1="418.135787638" y2="423.582310949" /><line stroke="rgb(0%,0%,0%)" x1="112.525480205" x2="108.092978903" y1="453.222993846" y2="447.419185767" /><line stroke="rgb(0%,0%,0%)" x1="114.055813546" x2="104.617132945" y1="433.271645544" y2="438.65766492" /><line stroke="rgb(0%,0%,0%)" x1="122.642315546" x2="114.055813546" y1="430.007229629" y2="433.271645544" /><line stroke="rgb(0%,0%,0%)" x1="124.967789252" x2="142.207891476" y1="429.703179554" y2="424.746084067" /><line stroke="rgb(0%,0%,0%)" x1="124.967789252" x2="122.642315546" y1="429.703179554" y2="430.007229629" /><line stroke="rgb(0%,0%,0%)" x1="145.219086918" x2="142.207891476" y1="423.582310949" y2="424.746084067" /><line stroke="rgb(0%,0%,0%)" x1="104.617132945" x2="103.593091684" y1="438.65766492" y2="440.662765723" /><line stroke="rgb(0%,0%,0%)" x1="103.593091684" x2="108.092978903" y1="440.662765723" y2="447.419185767" /><line stroke="rgb(0%,0%,0%)" x1="628.973191373" x2="628.905958731" y1="455.872255242" y2="457.165221242" /><line stroke="rgb(0%,0%,0%)" x1="618.174721753" x2="619.84093425" y1="497.094742326" y2="492.245377406" /><line stroke="rgb(0%,0%,0%)" x1="626.893933691" x2="625.530599924" y1="467.785861417" y2="475.075795035" /><line stroke="rgb(0%,0%,0%)" x1="568.842442226" x2="565.607548237" y1="590.344505987" y2="596.007252675" /><line stroke="rgb(0%,0%,0%)" x1="569.359149817" x2="568.842442226" y1="589.480429732" y2="590.344505987" /><line stroke="rgb(0%,0%,0%)" x1="569.359149817" x2="570.339367885" y1="589.480429732" y2="587.446447528" /><line stroke="rgb(0%,0%,0%)" x1="605.450875288" x2="605.155582144" y1="521.624667054" y2="522.681189638" /><line stroke="rgb(0%,0%,0%)" x1="605.450875288" x2="606.185567359" y1="521.624667054" y2="520.333583834" /><line stroke="rgb(0%,0%,0%)" x1="618.174721753" x2="616.618974067" y1="497.094742326" y2="500.296813386" /><line stroke="rgb(0%,0%,0%)" x1="622.731652078" x2="624.682852116" y1="480.9094415" y2="477.42143305" /><line stroke="rgb(0%,0%,0%)" x1="626.893933691" x2="628.905958731" y1="467.785861417" y2="457.165221242" /><line stroke="rgb(0%,0%,0%)" x1="591.718430164" x2="587.252990222" y1="550.722636052" y2="560.879874662" /><line stroke="rgb(0%,0%,0%)" x1="591.718430164" x2="594.501043754" y1="550.722636052" y2="545.529879117" /><line stroke="rgb(0%,0%,0%)" x1="594.501043754" x2="596.579203977" y1="545.529879117" y2="539.773967331" /><line stroke="rgb(0%,0%,0%)" x1="597.365753629" x2="599.571061824" y1="538.694332164" y2="533.717066222" /><line stroke="rgb(0%,0%,0%)" x1="601.588748626" x2="603.943312149" y1="530.451082387" y2="525.420077135" /><line stroke="rgb(0%,0%,0%)" x1="603.943312149" x2="605.155582144" y1="525.420077135" y2="522.681189638" /><line stroke="rgb(0%,0%,0%)" x1="606.185567359" x2="607.828427185" y1="520.333583834" y2="516.89255056" /><line stroke="rgb(0%,0%,0%)" x1="607.828427185" x2="608.645417689" y1="516.89255056" y2="515.292995977" /><line stroke="rgb(0%,0%,0%)" x1="610.147687322" x2="608.645417689" y1="511.689442302" y2="515.292995977" /><line stroke="rgb(0%,0%,0%)" x1="613.752642865" x2="616.618974067" y1="506.219513282" y2="500.296813386" /><line stroke="rgb(0%,0%,0%)" x1="619.84093425" x2="620.92996803" y1="492.245377406" y2="488.435929516" /><line stroke="rgb(0%,0%,0%)" x1="620.92996803" x2="622.017759912" y1="488.435929516" y2="483.09259804" /><line stroke="rgb(0%,0%,0%)" x1="624.682852116" x2="625.530599924" y1="477.42143305" y2="475.075795035" /><line stroke="rgb(0%,0%,0%)" x1="554.009790975" x2="557.964725934" y1="613.747393945" y2="610.990611624" /><line stroke="rgb(0%,0%,0%)" x1="557.964725934" x2="560.782194199" y1="610.990611624" y2="604.927346941" /><line stroke="rgb(0%,0%,0%)" x1="570.339367885" x2="575.505858857" y1="587.446447528" y2="579.763610573" /><line stroke="rgb(0%,0%,0%)" x1="578.546955296" x2="585.251336418" y1="575.74449187" y2="565.425818672" /><line stroke="rgb(0%,0%,0%)" x1="575.505858857" x2="578.546955296" y1="579.763610573" y2="575.74449187" /><line stroke="rgb(0%,0%,0%)" x1="585.251336418" x2="587.252990222" y1="565.425818672" y2="560.879874662" /><line stroke="rgb(0%,0%,0%)" x1="596.579203977" x2="597.365753629" y1="539.773967331" y2="538.694332164" /><line stroke="rgb(0%,0%,0%)" x1="599.571061824" x2="600.046521918" y1="533.717066222" y2="532.766779445" /><line stroke="rgb(0%,0%,0%)" x1="600.046521918" x2="601.588748626" y1="532.766779445" y2="530.451082387" /><line stroke="rgb(0%,0%,0%)" x1="610.147687322" x2="611.397172894" y1="511.689442302" y2="509.635559251" /><line stroke="rgb(0%,0%,0%)" x1="611.397172894" x2="613.752642865" y1="509.635559251" y2="506.219513282" /><line stroke="rgb(0%,0%,0%)" x1="622.017759912" x2="622.731652078" y1="483.09259804" y2="480.9094415" /><line stroke="rgb(0%,0%,0%)" x1="503.12321463" x2="502.663638801" y1="660.541099351" y2="661.07154218" /><line stroke="rgb(0%,0%,0%)" x1="503.12321463" x2="503.588283612" y1="660.541099351" y2="659.355460182" /><line stroke="rgb(0%,0%,0%)" x1="515.021873005" x2="513.090030732" y1="649.954003881" y2="652.36648122" /><line stroke="rgb(0%,0%,0%)" x1="518.743059672" x2="517.209803033" y1="647.001807287" y2="647.701859944" /><line stroke="rgb(0%,0%,0%)" x1="524.421846026" x2="527.438440218" y1="641.80502042" y2="640.19323451" /><line stroke="rgb(0%,0%,0%)" x1="518.743059672" x2="524.421846026" y1="647.001807287" y2="641.80502042" /><line stroke="rgb(0%,0%,0%)" x1="527.438440218" x2="530.197265916" y1="640.19323451" y2="637.312550114" /><line stroke="rgb(0%,0%,0%)" x1="531.223610656" x2="530.197265916" y1="635.625072193" y2="637.312550114" /><line stroke="rgb(0%,0%,0%)" x1="531.223610656" x2="535.350502019" y1="635.625072193" y2="634.129494022" /><line stroke="rgb(0%,0%,0%)" x1="537.943081924" x2="535.455775823" y1="629.468850453" y2="633.984025329" /><line stroke="rgb(0%,0%,0%)" x1="537.943081924" x2="544.984239344" y1="629.468850453" y2="625.603134886" /><line stroke="rgb(0%,0%,0%)" x1="551.05428661" x2="545.336400967" y1="619.939254827" y2="625.29692221" /><line stroke="rgb(0%,0%,0%)" x1="551.05428661" x2="552.728220665" y1="619.939254827" y2="618.948370362" /><line stroke="rgb(0%,0%,0%)" x1="554.009790975" x2="552.728220665" y1="613.747393945" y2="618.948370362" /><line stroke="rgb(0%,0%,0%)" x1="544.984239344" x2="545.336400967" y1="625.603134886" y2="625.29692221" /><line stroke="rgb(0%,0%,0%)" x1="560.782194199" x2="562.990075822" y1="604.927346941" y2="598.613979773" /><line stroke="rgb(0%,0%,0%)" x1="562.990075822" x2="563.995372599" y1="598.613979773" y2="597.848308018" /><line stroke="rgb(0%,0%,0%)" x1="563.995372599" x2="565.607548237" y1="597.848308018" y2="596.007252675" /><line stroke="rgb(0%,0%,0%)" x1="448.608027882" x2="451.342776465" y1="680.545274716" y2="680.657555249" /><line stroke="rgb(0%,0%,0%)" x1="479.226456404" x2="480.272518002" y1="674.781459593" y2="673.798590906" /><line stroke="rgb(0%,0%,0%)" x1="491.727131064" x2="484.818805723" y1="669.706936578" y2="671.530887808" /><line stroke="rgb(0%,0%,0%)" x1="491.727131064" x2="493.421399144" y1="669.706936578" y2="666.797013912" /><line stroke="rgb(0%,0%,0%)" x1="494.794313324" x2="497.724857417" y1="665.989259824" y2="663.585721625" /><line stroke="rgb(0%,0%,0%)" x1="502.663638801" x2="497.724857417" y1="661.07154218" y2="663.585721625" /><line stroke="rgb(0%,0%,0%)" x1="503.588283612" x2="508.314310739" y1="659.355460182" y2="656.299406889" /><line stroke="rgb(0%,0%,0%)" x1="508.314310739" x2="513.090030732" y1="656.299406889" y2="652.36648122" /><line stroke="rgb(0%,0%,0%)" x1="515.021873005" x2="517.209803033" y1="649.954003881" y2="647.701859944" /><line stroke="rgb(0%,0%,0%)" x1="535.350502019" x2="535.455775823" y1="634.129494022" y2="633.984025329" /><line stroke="rgb(0%,0%,0%)" x1="448.608027882" x2="446.096542369" y1="680.545274716" y2="679.757868349" /><line stroke="rgb(0%,0%,0%)" x1="451.342776465" x2="457.238150928" y1="680.657555249" y2="680.488667397" /><line stroke="rgb(0%,0%,0%)" x1="465.592062362" x2="457.983398387" y1="679.950317517" y2="680.56759158" /><line stroke="rgb(0%,0%,0%)" x1="465.592062362" x2="469.419075101" y1="679.950317517" y2="677.818773142" /><line stroke="rgb(0%,0%,0%)" x1="469.419075101" x2="478.026873223" y1="677.818773142" y2="674.988667049" /><line stroke="rgb(0%,0%,0%)" x1="479.226456404" x2="478.026873223" y1="674.781459593" y2="674.988667049" /><line stroke="rgb(0%,0%,0%)" x1="480.272518002" x2="482.321130107" y1="673.798590906" y2="673.041710696" /><line stroke="rgb(0%,0%,0%)" x1="482.321130107" x2="484.818805723" y1="673.041710696" y2="671.530887808" /><line stroke="rgb(0%,0%,0%)" x1="493.421399144" x2="494.546839551" y1="666.797013912" y2="666.260717345" /><line stroke="rgb(0%,0%,0%)" x1="494.546839551" x2="494.794313324" y1="666.260717345" y2="665.989259824" /><line stroke="rgb(0%,0%,0%)" x1="435.40624208" x2="440.560141329" y1="673.291310067" y2="676.909639456" /><line stroke="rgb(0%,0%,0%)" x1="430.751719659" x2="432.283537071" y1="672.829265862" y2="673.149302023" /><line stroke="rgb(0%,0%,0%)" x1="432.283537071" x2="435.40624208" y1="673.149302023" y2="673.291310067" /><line stroke="rgb(0%,0%,0%)" x1="429.173771373" x2="430.751719659" y1="673.448724296" y2="672.829265862" /><line stroke="rgb(0%,0%,0%)" x1="446.096542369" x2="444.112912777" y1="679.757868349" y2="678.536462371" /><line stroke="rgb(0%,0%,0%)" x1="440.560141329" x2="444.112912777" y1="676.909639456" y2="678.536462371" /><line stroke="rgb(0%,0%,0%)" x1="457.238150928" x2="457.983398387" y1="680.488667397" y2="680.56759158" /><line stroke="rgb(0%,0%,0%)" x1="398.033677764" x2="401.511237025" y1="676.521651628" y2="676.687894331" /><line stroke="rgb(0%,0%,0%)" x1="387.645674795" x2="387.827270175" y1="673.20690238" y2="673.280422037" /><line stroke="rgb(0%,0%,0%)" x1="387.645674795" x2="386.909555816" y1="673.20690238" y2="672.495846612" /><line stroke="rgb(0%,0%,0%)" x1="392.788189805" x2="398.633091478" y1="598.822542657" y2="596.958575151" /><line stroke="rgb(0%,0%,0%)" x1="407.889268276" x2="392.788189805" y1="596.541595895" y2="598.822542657" /><line stroke="rgb(0%,0%,0%)" x1="398.225591802" x2="389.542092838" y1="596.992872947" y2="599.272385472" /><line stroke="rgb(0%,0%,0%)" x1="410.051207712" x2="417.136817717" y1="676.821868464" y2="676.174477194" /><line stroke="rgb(0%,0%,0%)" x1="406.87193611" x2="410.051207712" y1="676.766775275" y2="676.821868464" /><line stroke="rgb(0%,0%,0%)" x1="401.511237025" x2="406.87193611" y1="676.687894331" y2="676.766775275" /><line stroke="rgb(0%,0%,0%)" x1="412.682768573" x2="410.054325157" y1="595.649229451" y2="596.112218111" /><line stroke="rgb(0%,0%,0%)" x1="410.054325157" x2="407.889268276" y1="596.112218111" y2="596.541595895" /><line stroke="rgb(0%,0%,0%)" x1="398.633091478" x2="408.632932922" y1="596.958575151" y2="595.814983849" /><line stroke="rgb(0%,0%,0%)" x1="408.632932922" x2="410.244670349" y1="595.814983849" y2="595.775187597" /><line stroke="rgb(0%,0%,0%)" x1="420.025267264" x2="417.136817717" y1="675.064196929" y2="676.174477194" /><line stroke="rgb(0%,0%,0%)" x1="420.025267264" x2="429.173771373" y1="675.064196929" y2="673.448724296" /><line stroke="rgb(0%,0%,0%)" x1="410.244670349" x2="410.856549804" y1="595.775187597" y2="595.714292055" /><line stroke="rgb(0%,0%,0%)" x1="413.910592237" x2="412.682768573" y1="594.756528553" y2="595.649229451" /><line stroke="rgb(0%,0%,0%)" x1="410.856549804" x2="413.910592237" y1="595.714292055" y2="594.756528553" /><line stroke="rgb(0%,0%,0%)" x1="307.164614262" x2="306.645060144" y1="586.826385355" y2="586.470813496" /><line stroke="rgb(0%,0%,0%)" x1="355.103841634" x2="354.328774011" y1="607.523711005" y2="607.745962916" /><line stroke="rgb(0%,0%,0%)" x1="355.502750174" x2="355.103841634" y1="607.31855349" y2="607.523711005" /><line stroke="rgb(0%,0%,0%)" x1="355.502750174" x2="355.941257799" y1="607.31855349" y2="607.168715094" /><line stroke="rgb(0%,0%,0%)" x1="346.086187467" x2="348.334665537" y1="594.494941104" y2="595.016222947" /><line stroke="rgb(0%,0%,0%)" x1="357.957210174" x2="356.388118561" y1="664.254568937" y2="663.6920062" /><line stroke="rgb(0%,0%,0%)" x1="357.957210174" x2="363.114641592" y1="664.254568937" y2="667.511549679" /><line stroke="rgb(0%,0%,0%)" x1="356.388118561" x2="355.285165929" y1="663.6920062" y2="662.325887885" /><line stroke="rgb(0%,0%,0%)" x1="367.626439425" x2="355.941257799" y1="602.70572104" y2="607.168715094" /><line stroke="rgb(0%,0%,0%)" x1="348.334665537" x2="352.328523838" y1="595.016222947" y2="595.786402848" /><line stroke="rgb(0%,0%,0%)" x1="352.328523838" x2="368.526016091" y1="595.786402848" y2="597.44812972" /><line stroke="rgb(0%,0%,0%)" x1="363.114641592" x2="367.049121778" y1="667.511549679" y2="668.528167946" /><line stroke="rgb(0%,0%,0%)" x1="372.770077586" x2="367.626439425" y1="601.180535186" y2="602.70572104" /><line stroke="rgb(0%,0%,0%)" x1="372.770077586" x2="375.074192371" y1="601.180535186" y2="600.526949567" /><line stroke="rgb(0%,0%,0%)" x1="375.074192371" x2="378.345173011" y1="600.526949567" y2="600.203951922" /><line stroke="rgb(0%,0%,0%)" x1="368.526016091" x2="372.011159698" y1="597.44812972" y2="597.678214065" /><line stroke="rgb(0%,0%,0%)" x1="378.470792857" x2="383.780685913" y1="670.527248016" y2="670.292961091" /><line stroke="rgb(0%,0%,0%)" x1="367.049121778" x2="373.10431684" y1="668.528167946" y2="669.388617837" /><line stroke="rgb(0%,0%,0%)" x1="373.10431684" x2="378.470792857" y1="669.388617837" y2="670.527248016" /><line stroke="rgb(0%,0%,0%)" x1="383.780685913" x2="386.909555816" y1="670.292961091" y2="672.495846612" /><line stroke="rgb(0%,0%,0%)" x1="389.542092838" x2="378.345173011" y1="599.272385472" y2="600.203951922" /><line stroke="rgb(0%,0%,0%)" x1="372.011159698" x2="378.968830142" y1="597.678214065" y2="598.461165514" /><line stroke="rgb(0%,0%,0%)" x1="387.827270175" x2="398.033677764" y1="673.280422037" y2="676.521651628" /><line stroke="rgb(0%,0%,0%)" x1="378.968830142" x2="387.518576424" y1="598.461165514" y2="597.875203227" /><line stroke="rgb(0%,0%,0%)" x1="306.645060144" x2="301.173734598" y1="586.470813496" y2="584.815279485" /><line stroke="rgb(0%,0%,0%)" x1="307.164614262" x2="328.659660365" y1="586.826385355" y2="591.300299881" /><line stroke="rgb(0%,0%,0%)" x1="328.659660365" x2="329.456985375" y1="591.300299881" y2="591.700780066" /><line stroke="rgb(0%,0%,0%)" x1="329.456985375" x2="332.04680668" y1="591.700780066" y2="592.417880719" /><line stroke="rgb(0%,0%,0%)" x1="335.716219131" x2="337.037132248" y1="624.323002453" y2="625.299358497" /><line stroke="rgb(0%,0%,0%)" x1="334.761478517" x2="333.971185675" y1="618.458914276" y2="619.606426716" /><line stroke="rgb(0%,0%,0%)" x1="334.86666652" x2="334.761478517" y1="618.264346228" y2="618.458914276" /><line stroke="rgb(0%,0%,0%)" x1="334.86666652" x2="336.107232675" y1="618.264346228" y2="617.552102356" /><line stroke="rgb(0%,0%,0%)" x1="339.047176875" x2="339.300118562" y1="627.11440713" y2="627.309548893" /><line stroke="rgb(0%,0%,0%)" x1="337.037132248" x2="339.047176875" y1="625.299358497" y2="627.11440713" /><line stroke="rgb(0%,0%,0%)" x1="335.716219131" x2="334.717343751" y1="624.323002453" y2="623.511759301" /><line stroke="rgb(0%,0%,0%)" x1="334.434652152" x2="333.835566566" y1="622.176772439" y2="619.78987833" /><line stroke="rgb(0%,0%,0%)" x1="339.323636296" x2="336.107232675" y1="615.168206354" y2="617.552102356" /><line stroke="rgb(0%,0%,0%)" x1="342.903621798" x2="341.537817052" y1="613.247585027" y2="614.20489902" /><line stroke="rgb(0%,0%,0%)" x1="346.06162539" x2="342.903621798" y1="611.803959961" y2="613.247585027" /><line stroke="rgb(0%,0%,0%)" x1="346.06162539" x2="346.346255564" y1="611.803959961" y2="611.682133238" /><line stroke="rgb(0%,0%,0%)" x1="346.346255564" x2="346.914307137" y1="611.682133238" y2="611.122400713" /><line stroke="rgb(0%,0%,0%)" x1="332.04680668" x2="346.086187467" y1="592.417880719" y2="594.494941104" /><line stroke="rgb(0%,0%,0%)" x1="351.266119005" x2="355.285165929" y1="654.726816551" y2="662.325887885" /><line stroke="rgb(0%,0%,0%)" x1="351.266119005" x2="349.389484889" y1="654.726816551" y2="650.389986625" /><line stroke="rgb(0%,0%,0%)" x1="350.356569531" x2="349.389484889" y1="646.128154124" y2="650.389986625" /><line stroke="rgb(0%,0%,0%)" x1="352.132550312" x2="350.356569531" y1="641.73167815" y2="646.128154124" /><line stroke="rgb(0%,0%,0%)" x1="355.24069908" x2="352.132550312" y1="636.973458162" y2="641.73167815" /><line stroke="rgb(0%,0%,0%)" x1="355.104068664" x2="355.24069908" y1="636.967673323" y2="636.973458162" /><line stroke="rgb(0%,0%,0%)" x1="349.513383213" x2="355.104068664" y1="633.61703653" y2="636.967673323" /><line stroke="rgb(0%,0%,0%)" x1="349.513383213" x2="347.768012606" y1="633.61703653" y2="631.183054341" /><line stroke="rgb(0%,0%,0%)" x1="339.567474723" x2="347.768012606" y1="627.438701547" y2="631.183054341" /><line stroke="rgb(0%,0%,0%)" x1="339.300118562" x2="339.567474723" y1="627.309548893" y2="627.438701547" /><line stroke="rgb(0%,0%,0%)" x1="333.971185675" x2="333.904518383" y1="619.606426716" y2="619.727143169" /><line stroke="rgb(0%,0%,0%)" x1="341.537817052" x2="339.323636296" y1="614.20489902" y2="615.168206354" /><line stroke="rgb(0%,0%,0%)" x1="354.328774011" x2="346.914307137" y1="607.745962916" y2="611.122400713" /><line stroke="rgb(0%,0%,0%)" x1="250.201115592" x2="251.496604586" y1="563.200152868" y2="564.325684911" /><line stroke="rgb(0%,0%,0%)" x1="272.454174876" x2="272.750020565" y1="578.443347948" y2="578.469842854" /><line stroke="rgb(0%,0%,0%)" x1="269.86236154" x2="272.454174876" y1="576.61720922" y2="578.443347948" /><line stroke="rgb(0%,0%,0%)" x1="269.86236154" x2="266.481091014" y1="576.61720922" y2="575.531161861" /><line stroke="rgb(0%,0%,0%)" x1="289.679471559" x2="291.578795798" y1="582.081141521" y2="582.459015751" /><line stroke="rgb(0%,0%,0%)" x1="289.679471559" x2="286.645020141" y1="582.081141521" y2="581.122528635" /><line stroke="rgb(0%,0%,0%)" x1="297.154655288" x2="301.173734598" y1="583.672871146" y2="584.815279485" /><line stroke="rgb(0%,0%,0%)" x1="291.578795798" x2="297.154655288" y1="582.459015751" y2="583.672871146" /><line stroke="rgb(0%,0%,0%)" x1="334.434652152" x2="334.717343751" y1="622.176772439" y2="623.511759301" /><line stroke="rgb(0%,0%,0%)" x1="333.904518383" x2="333.835566566" y1="619.727143169" y2="619.78987833" /><line stroke="rgb(0%,0%,0%)" x1="213.685367847" x2="212.719164645" y1="532.997292248" y2="532.001477361" /><line stroke="rgb(0%,0%,0%)" x1="250.201115592" x2="248.664033613" y1="563.200152868" y2="561.821892089" /><line stroke="rgb(0%,0%,0%)" x1="240.16484396" x2="237.083742135" y1="554.143314169" y2="550.646762189" /><line stroke="rgb(0%,0%,0%)" x1="258.55065689" x2="262.455158109" y1="569.729816944" y2="572.494965416" /><line stroke="rgb(0%,0%,0%)" x1="256.92815148" x2="258.55065689" y1="568.646461683" y2="569.729816944" /><line stroke="rgb(0%,0%,0%)" x1="251.496604586" x2="256.92815148" y1="564.325684911" y2="568.646461683" /><line stroke="rgb(0%,0%,0%)" x1="262.455158109" x2="266.481091014" y1="572.494965416" y2="575.531161861" /><line stroke="rgb(0%,0%,0%)" x1="272.750020565" x2="286.645020141" y1="578.469842854" y2="581.122528635" /><line stroke="rgb(0%,0%,0%)" x1="204.866911883" x2="207.256387637" y1="523.753016413" y2="526.18576891" /><line stroke="rgb(0%,0%,0%)" x1="203.087410896" x2="204.866911883" y1="522.039069863" y2="523.753016413" /><line stroke="rgb(0%,0%,0%)" x1="199.222582198" x2="199.917866281" y1="517.408206226" y2="518.463537954" /><line stroke="rgb(0%,0%,0%)" x1="199.917866281" x2="203.087410896" y1="518.463537954" y2="522.039069863" /><line stroke="rgb(0%,0%,0%)" x1="199.222582198" x2="195.318540394" y1="517.408206226" y2="512.823886736" /><line stroke="rgb(0%,0%,0%)" x1="213.685367847" x2="218.436202074" y1="532.997292248" y2="536.068845779" /><line stroke="rgb(0%,0%,0%)" x1="218.436202074" x2="230.134255085" y1="536.068845779" y2="543.552738361" /><line stroke="rgb(0%,0%,0%)" x1="234.252232647" x2="237.083742135" y1="548.614219708" y2="550.646762189" /><line stroke="rgb(0%,0%,0%)" x1="234.252232647" x2="231.3562071" y1="548.614219708" y2="544.495777929" /><line stroke="rgb(0%,0%,0%)" x1="230.134255085" x2="231.3562071" y1="543.552738361" y2="544.495777929" /><line stroke="rgb(0%,0%,0%)" x1="245.011856592" x2="248.664033613" y1="558.701499651" y2="561.821892089" /><line stroke="rgb(0%,0%,0%)" x1="240.16484396" x2="245.011856592" y1="554.143314169" y2="558.701499651" /><line stroke="rgb(0%,0%,0%)" x1="174.004779289" x2="185.754170993" y1="497.486492966" y2="505.967566061" /><line stroke="rgb(0%,0%,0%)" x1="174.004779289" x2="164.258869706" y1="497.486492966" y2="493.310722682" /><line stroke="rgb(0%,0%,0%)" x1="195.148249362" x2="195.318540394" y1="512.713319481" y2="512.823886736" /><line stroke="rgb(0%,0%,0%)" x1="188.417093214" x2="195.148249362" y1="508.045696502" y2="512.713319481" /><line stroke="rgb(0%,0%,0%)" x1="185.754170993" x2="187.657370745" y1="505.967566061" y2="507.516460904" /><line stroke="rgb(0%,0%,0%)" x1="207.805669106" x2="212.719164645" y1="526.861132206" y2="532.001477361" /><line stroke="rgb(0%,0%,0%)" x1="207.256387637" x2="207.805669106" y1="526.18576891" y2="526.861132206" /><line stroke="rgb(0%,0%,0%)" x1="159.850401855" x2="138.001762491" y1="491.472571276" y2="487.22598425" /><line stroke="rgb(0%,0%,0%)" x1="159.850401855" x2="164.258869706" y1="491.472571276" y2="493.310722682" /><line stroke="rgb(0%,0%,0%)" x1="187.657370745" x2="188.417093214" y1="507.516460904" y2="508.045696502" /><line stroke="rgb(0%,0%,0%)" x1="100.95773462" x2="96.9383769638" y1="462.421958552" y2="465.728040321" /><line stroke="rgb(0%,0%,0%)" x1="95.3241651853" x2="95.8668399836" y1="476.290270124" y2="477.19214579" /><line stroke="rgb(0%,0%,0%)" x1="94.9112000032" x2="95.3241651853" y1="468.914235469" y2="476.290270124" /><line stroke="rgb(0%,0%,0%)" x1="96.9383769638" x2="94.9112000032" y1="465.728040321" y2="468.914235469" /><line stroke="rgb(0%,0%,0%)" x1="107.581459651" x2="112.661580279" y1="482.053300049" y2="483.657860749" /><line stroke="rgb(0%,0%,0%)" x1="95.8668399836" x2="107.581459651" y1="477.19214579" y2="482.053300049" /><line stroke="rgb(0%,0%,0%)" x1="111.181538629" x2="109.360978133" y1="456.396421412" y2="458.050070388" /><line stroke="rgb(0%,0%,0%)" x1="109.360978133" x2="100.95773462" y1="458.050070388" y2="462.421958552" /><line stroke="rgb(0%,0%,0%)" x1="114.776358546" x2="136.848008963" y1="483.772481292" y2="487.156806416" /><line stroke="rgb(0%,0%,0%)" x1="112.661580279" x2="114.776358546" y1="483.657860749" y2="483.772481292" /><line stroke="rgb(0%,0%,0%)" x1="136.848008963" x2="138.001762491" y1="487.156806416" y2="487.22598425" /><line stroke="rgb(0%,0%,0%)" x1="112.396667549" x2="111.181538629" y1="455.134167943" y2="456.396421412" /><line stroke="rgb(0%,0%,0%)" x1="112.396667549" x2="112.525480205" y1="455.134167943" y2="453.222993846" /><line stroke="rgb(0%,0%,0%)" x1="387.518576424" x2="398.225591802" y1="597.875203227" y2="596.992872947" /></svg>