<?xml version="1.0" encoding="utf-8" ?>
<svg baseProfile="full" height="100%" version="1.1" viewBox="0.5 0.5 685.793960571 941.299331665" width="100%" xmlns="http://www.w3.org/2000/svg" xmlns:ev="http://www.w3.org/2001/xml-events" xmlns:xlink="http://www.w3.org/1999/xlink"><defs /><line stroke="rgb(0%,0%,0%)" x1="626.642150976" x2="626.663309285" y1="455.714242265" y2="455.21305725" /><line stroke="rgb(0%,0%,0%)" x1="615.199483644" x2="614.147145467" y1="405.884888773" y2="399.298233161" /><line stroke="rgb(0%,0%,0%)" x1="614.124519886" x2="614.147145467" y1="399.219747779" y2="399.298233161" /><line stroke="rgb(0%,0%,0%)" x1="626.663309285" x2="626.486812723" y1="455.21305725" y2="450.034898654" /><line stroke="rgb(0%,0%,0%)" x1="564.076234798" x2="555.335998092" y1="318.362477211" y2="307.627552931" /><line stroke="rgb(0%,0%,0%)" x1="581.552170757" x2="583.564610592" y1="345.558208974" y2="348.332363438" /><line stroke="rgb(0%,0%,0%)" x1="581.552170757" x2="581.132441639" y1="345.558208974" y2="344.362971068" /><line stroke="rgb(0%,0%,0%)" x1="567.909980524" x2="569.999167342" y1="324.791286678" y2="328.60397813" /><line stroke="rgb(0%,0%,0%)" x1="603.552268713" x2="608.792042429" y1="376.710448352" y2="386.939258603" /><line stroke="rgb(0%,0%,0%)" x1="597.001358646" x2="600.832808612" y1="368.492039037" y2="373.389002482" /><line stroke="rgb(0%,0%,0%)" x1="624.221172589" x2="625.476363183" y1="432.756471902" y2="437.152218403" /><line stroke="rgb(0%,0%,0%)" x1="624.221172589" x2="623.366316103" y1="432.756471902" y2="428.835396254" /><line stroke="rgb(0%,0%,0%)" x1="623.366316103" x2="621.878539319" y1="428.835396254" y2="423.840859798" /><line stroke="rgb(0%,0%,0%)" x1="620.343511202" x2="618.090317269" y1="419.213931121" y2="410.876557993" /><line stroke="rgb(0%,0%,0%)" x1="615.199483644" x2="617.18922441" y1="405.884888773" y2="408.839240376" /><line stroke="rgb(0%,0%,0%)" x1="614.124519886" x2="611.145278309" y1="399.219747779" y2="394.217318605" /><line stroke="rgb(0%,0%,0%)" x1="555.335998092" x2="554.840359691" y1="307.627552931" y2="305.984538289" /><line stroke="rgb(0%,0%,0%)" x1="554.840359691" x2="553.668193416" y1="305.984538289" y2="305.135980099" /><line stroke="rgb(0%,0%,0%)" x1="576.876829288" x2="569.999167342" y1="337.372512647" y2="328.60397813" /><line stroke="rgb(0%,0%,0%)" x1="567.909980524" x2="566.423922228" y1="324.791286678" y2="320.890062704" /><line stroke="rgb(0%,0%,0%)" x1="581.132441639" x2="576.876829288" y1="344.362971068" y2="337.372512647" /><line stroke="rgb(0%,0%,0%)" x1="603.552268713" x2="600.832808612" y1="376.710448352" y2="373.389002482" /><line stroke="rgb(0%,0%,0%)" x1="597.001358646" x2="594.454932083" y1="368.492039037" y2="365.904317663" /><line stroke="rgb(0%,0%,0%)" x1="594.454932083" x2="589.391647001" y1="365.904317663" y2="357.395544856" /><line stroke="rgb(0%,0%,0%)" x1="587.684413581" x2="583.564610592" y1="356.195988693" y2="348.332363438" /><line stroke="rgb(0%,0%,0%)" x1="611.145278309" x2="609.74738453" y1="394.217318605" y2="388.650970179" /><line stroke="rgb(0%,0%,0%)" x1="609.74738453" x2="609.518417143" y1="388.650970179" y2="388.366329705" /><line stroke="rgb(0%,0%,0%)" x1="609.518417143" x2="608.792042429" y1="388.366329705" y2="386.939258603" /><line stroke="rgb(0%,0%,0%)" x1="626.486812723" x2="625.726346245" y1="450.034898654" y2="440.187758085" /><line stroke="rgb(0%,0%,0%)" x1="625.726346245" x2="625.476363183" y1="440.187758085" y2="437.152218403" /><line stroke="rgb(0%,0%,0%)" x1="505.76203229" x2="505.229383786" y1="268.530888553" y2="268.325435657" /><line stroke="rgb(0%,0%,0%)" x1="497.156502799" x2="497.084658124" y1="261.20980742" y2="261.170998781" /><line stroke="rgb(0%,0%,0%)" x1="517.008859686" x2="520.286166457" y1="277.176137431" y2="279.638763816" /><line stroke="rgb(0%,0%,0%)" x1="505.76203229" x2="506.724804125" y1="268.530888553" y2="269.371012325" /><line stroke="rgb(0%,0%,0%)" x1="517.008859686" x2="506.724804125" y1="277.176137431" y2="269.371012325" /><line stroke="rgb(0%,0%,0%)" x1="548.545439089" x2="547.751876906" y1="298.755539501" y2="298.189815889" /><line stroke="rgb(0%,0%,0%)" x1="547.751876906" x2="539.883152429" y1="298.189815889" y2="296.610468385" /><line stroke="rgb(0%,0%,0%)" x1="539.883152429" x2="535.910645893" y1="296.610468385" y2="293.72356656" /><line stroke="rgb(0%,0%,0%)" x1="535.910645893" x2="535.652227738" y1="293.72356656" y2="292.663362995" /><line stroke="rgb(0%,0%,0%)" x1="534.242366741" x2="535.652227738" y1="292.242374354" y2="292.663362995" /><line stroke="rgb(0%,0%,0%)" x1="534.242366741" x2="531.672019301" y1="292.242374354" y2="290.477485996" /><line stroke="rgb(0%,0%,0%)" x1="553.668193416" x2="550.90216814" y1="305.135980099" y2="304.273245529" /><line stroke="rgb(0%,0%,0%)" x1="550.90216814" x2="549.063240682" y1="304.273245529" y2="299.41572201" /><line stroke="rgb(0%,0%,0%)" x1="548.545439089" x2="549.063240682" y1="298.755539501" y2="299.41572201" /><line stroke="rgb(0%,0%,0%)" x1="566.423922228" x2="564.076234798" y1="320.890062704" y2="318.362477211" /><line stroke="rgb(0%,0%,0%)" x1="589.391647001" x2="587.684413581" y1="357.395544856" y2="356.195988693" /><line stroke="rgb(0%,0%,0%)" x1="621.878539319" x2="620.343511202" y1="423.840859798" y2="419.213931121" /><line stroke="rgb(0%,0%,0%)" x1="618.090317269" x2="617.18922441" y1="410.876557993" y2="408.839240376" /><line stroke="rgb(0%,0%,0%)" x1="497.084658124" x2="491.833407769" y1="261.170998781" y2="257.144106329" /><line stroke="rgb(0%,0%,0%)" x1="491.833407769" x2="490.696371453" y1="257.144106329" y2="256.341975226" /><line stroke="rgb(0%,0%,0%)" x1="490.696371453" x2="487.584925542" y1="256.341975226" y2="253.775087372" /><line stroke="rgb(0%,0%,0%)" x1="505.229383786" x2="500.510997779" y1="268.325435657" y2="263.569987525" /><line stroke="rgb(0%,0%,0%)" x1="497.156502799" x2="497.198591393" y1="261.20980742" y2="261.266702389" /><line stroke="rgb(0%,0%,0%)" x1="525.491985709" x2="527.686349096" y1="284.462503422" y2="286.070355205" /><line stroke="rgb(0%,0%,0%)" x1="525.491985709" x2="523.609701236" y1="284.462503422" y2="282.279461553" /><line stroke="rgb(0%,0%,0%)" x1="523.609701236" x2="520.286166457" y1="282.279461553" y2="279.638763816" /><line stroke="rgb(0%,0%,0%)" x1="531.672019301" x2="527.686349096" y1="290.477485996" y2="286.070355205" /><line stroke="rgb(0%,0%,0%)" x1="453.025142268" x2="451.40144027" y1="238.80083948" y2="237.624571757" /><line stroke="rgb(0%,0%,0%)" x1="453.025142268" x2="454.695714486" y1="238.80083948" y2="239.636301891" /><line stroke="rgb(0%,0%,0%)" x1="466.182232415" x2="469.996065885" y1="241.180951131" y2="243.654676606" /><line stroke="rgb(0%,0%,0%)" x1="486.046684284" x2="483.177912786" y1="252.366624276" y2="251.206810162" /><line stroke="rgb(0%,0%,0%)" x1="486.046684284" x2="487.584925542" y1="252.366624276" y2="253.775087372" /><line stroke="rgb(0%,0%,0%)" x1="500.510997779" x2="497.198591393" y1="263.569987525" y2="261.266702389" /><line stroke="rgb(0%,0%,0%)" x1="451.40144027" x2="442.752618092" y1="237.624571757" y2="238.273877552" /><line stroke="rgb(0%,0%,0%)" x1="466.182232415" x2="454.695714486" y1="241.180951131" y2="239.636301891" /><line stroke="rgb(0%,0%,0%)" x1="469.996065885" x2="478.139414357" y1="243.654676606" y2="248.462033899" /><line stroke="rgb(0%,0%,0%)" x1="479.971515378" x2="478.139414357" y1="249.190432587" y2="248.462033899" /><line stroke="rgb(0%,0%,0%)" x1="418.43301947" x2="421.145816009" y1="237.637418969" y2="238.66677725" /><line stroke="rgb(0%,0%,0%)" x1="418.43301947" x2="401.614944682" y1="237.637418969" y2="234.095913243" /><line stroke="rgb(0%,0%,0%)" x1="429.899133913" x2="440.257418778" y1="240.487244604" y2="238.669406929" /><line stroke="rgb(0%,0%,0%)" x1="429.899133913" x2="428.457975572" y1="240.487244604" y2="240.474574749" /><line stroke="rgb(0%,0%,0%)" x1="442.752618092" x2="440.257418778" y1="238.273877552" y2="238.669406929" /><line stroke="rgb(0%,0%,0%)" x1="483.177912786" x2="481.641554221" y1="251.206810162" y2="249.844826995" /><line stroke="rgb(0%,0%,0%)" x1="386.386054673" x2="387.15177872" y1="242.173987796" y2="241.426897574" /><line stroke="rgb(0%,0%,0%)" x1="401.421028515" x2="400.989977278" y1="234.041408873" y2="234.10639725" /><line stroke="rgb(0%,0%,0%)" x1="392.853919239" x2="405.604970253" y1="316.735082141" y2="319.38035766" /><line stroke="rgb(0%,0%,0%)" x1="401.467095061" x2="401.614944682" y1="234.051358791" y2="234.095913243" /><line stroke="rgb(0%,0%,0%)" x1="401.467095061" x2="401.421028515" y1="234.051358791" y2="234.041408873" /><line stroke="rgb(0%,0%,0%)" x1="417.737476078" x2="413.284801705" y1="322.017005546" y2="320.850159895" /><line stroke="rgb(0%,0%,0%)" x1="417.820289017" x2="407.517833544" y1="321.731598343" y2="318.56673449" /><line stroke="rgb(0%,0%,0%)" x1="413.284801705" x2="405.604970253" y1="320.850159895" y2="319.38035766" /><line stroke="rgb(0%,0%,0%)" x1="406.840439321" x2="407.517833544" y1="318.416021163" y2="318.56673449" /><line stroke="rgb(0%,0%,0%)" x1="420.431878714" x2="421.929286775" y1="322.858847689" y2="323.771770711" /><line stroke="rgb(0%,0%,0%)" x1="419.396175736" x2="420.431878714" y1="322.334276741" y2="322.858847689" /><line stroke="rgb(0%,0%,0%)" x1="421.929286775" x2="419.973358491" y1="323.771770711" y2="322.945542558" /><line stroke="rgb(0%,0%,0%)" x1="419.973358491" x2="417.737476078" y1="322.945542558" y2="322.017005546" /><line stroke="rgb(0%,0%,0%)" x1="428.457975572" x2="421.145816009" y1="240.474574749" y2="238.66677725" /><line stroke="rgb(0%,0%,0%)" x1="481.641554221" x2="479.971515378" y1="249.844826995" y2="249.190432587" /><line stroke="rgb(0%,0%,0%)" x1="358.711511113" x2="362.808782886" y1="316.238034871" y2="315.937573696" /><line stroke="rgb(0%,0%,0%)" x1="369.317320811" x2="357.352593953" y1="243.676065227" y2="244.016063006" /><line stroke="rgb(0%,0%,0%)" x1="362.808782886" x2="374.132458707" y1="315.937573696" y2="316.540253858" /><line stroke="rgb(0%,0%,0%)" x1="375.584960325" x2="389.669342411" y1="314.078775483" y2="315.941993687" /><line stroke="rgb(0%,0%,0%)" x1="379.153029719" x2="369.317320811" y1="244.283445987" y2="243.676065227" /><line stroke="rgb(0%,0%,0%)" x1="379.153029719" x2="379.258530724" y1="244.283445987" y2="244.255917927" /><line stroke="rgb(0%,0%,0%)" x1="392.853919239" x2="374.132458707" y1="316.735082141" y2="316.540253858" /><line stroke="rgb(0%,0%,0%)" x1="389.669342411" x2="392.457616364" y1="315.941993687" y2="316.394522891" /><line stroke="rgb(0%,0%,0%)" x1="386.386054673" x2="379.258530724" y1="242.173987796" y2="244.255917927" /><line stroke="rgb(0%,0%,0%)" x1="393.498981079" x2="387.15177872" y1="235.749927282" y2="241.426897574" /><line stroke="rgb(0%,0%,0%)" x1="392.457616364" x2="406.840439321" y1="316.394522891" y2="318.416021163" /><line stroke="rgb(0%,0%,0%)" x1="400.989977278" x2="393.498981079" y1="234.10639725" y2="235.749927282" /><line stroke="rgb(0%,0%,0%)" x1="418.299375636" x2="419.396175736" y1="321.848758992" y2="322.334276741" /><line stroke="rgb(0%,0%,0%)" x1="417.820289017" x2="418.299375636" y1="321.731598343" y2="321.848758992" /><line stroke="rgb(0%,0%,0%)" x1="299.43106478" x2="297.981180365" y1="323.453622021" y2="323.903060712" /><line stroke="rgb(0%,0%,0%)" x1="299.660180011" x2="299.43106478" y1="323.368626385" y2="323.453622021" /><line stroke="rgb(0%,0%,0%)" x1="299.660180011" x2="300.132420135" y1="323.368626385" y2="323.244825626" /><line stroke="rgb(0%,0%,0%)" x1="328.93240779" x2="328.79029352" y1="290.126690063" y2="290.93578485" /><line stroke="rgb(0%,0%,0%)" x1="335.511186382" x2="335.771333173" y1="317.581664906" y2="317.497464797" /><line stroke="rgb(0%,0%,0%)" x1="335.771333173" x2="337.188921225" y1="317.497464797" y2="317.309079432" /><line stroke="rgb(0%,0%,0%)" x1="349.849194005" x2="337.188921225" y1="316.101818035" y2="317.309079432" /><line stroke="rgb(0%,0%,0%)" x1="351.472984941" x2="346.908063067" y1="306.414948641" y2="304.168960364" /><line stroke="rgb(0%,0%,0%)" x1="346.908063067" x2="337.369422209" y1="304.168960364" y2="298.752918772" /><line stroke="rgb(0%,0%,0%)" x1="334.974742375" x2="331.486178143" y1="285.710953705" y2="287.13044131" /><line stroke="rgb(0%,0%,0%)" x1="345.205558232" x2="334.974742375" y1="279.719455276" y2="285.710953705" /><line stroke="rgb(0%,0%,0%)" x1="347.336101225" x2="345.205558232" y1="278.34455428" y2="279.719455276" /><line stroke="rgb(0%,0%,0%)" x1="347.336101225" x2="347.70683875" y1="278.34455428" y2="278.123057995" /><line stroke="rgb(0%,0%,0%)" x1="340.287419299" x2="340.229790167" y1="263.226331656" y2="265.623086354" /><line stroke="rgb(0%,0%,0%)" x1="346.033623851" x2="340.229790167" y1="271.089624312" y2="265.623086354" /><line stroke="rgb(0%,0%,0%)" x1="343.640388308" x2="340.287419299" y1="257.671120996" y2="263.226331656" /><line stroke="rgb(0%,0%,0%)" x1="343.640388308" x2="347.141954526" y1="257.671120996" y2="253.266667085" /><line stroke="rgb(0%,0%,0%)" x1="357.526458654" x2="349.849194005" y1="316.423368932" y2="316.101818035" /><line stroke="rgb(0%,0%,0%)" x1="358.711511113" x2="357.526458654" y1="316.238034871" y2="316.423368932" /><line stroke="rgb(0%,0%,0%)" x1="351.472984941" x2="358.107723029" y1="306.414948641" y2="308.280774876" /><line stroke="rgb(0%,0%,0%)" x1="349.974263123" x2="347.70683875" y1="276.732394856" y2="278.123057995" /><line stroke="rgb(0%,0%,0%)" x1="349.994834804" x2="349.974263123" y1="275.569382023" y2="276.732394856" /><line stroke="rgb(0%,0%,0%)" x1="346.033623851" x2="349.994834804" y1="271.089624312" y2="275.569382023" /><line stroke="rgb(0%,0%,0%)" x1="347.141954526" x2="350.522549192" y1="253.266667085" y2="247.55235712" /><line stroke="rgb(0%,0%,0%)" x1="351.198807448" x2="350.522549192" y1="246.341489764" y2="247.55235712" /><line stroke="rgb(0%,0%,0%)" x1="351.984497988" x2="351.198807448" y1="245.684583552" y2="246.341489764" /><line stroke="rgb(0%,0%,0%)" x1="354.198839419" x2="351.984497988" y1="245.524757131" y2="245.684583552" /><line stroke="rgb(0%,0%,0%)" x1="357.352593953" x2="354.198839419" y1="244.016063006" y2="245.524757131" /><line stroke="rgb(0%,0%,0%)" x1="366.658249108" x2="358.107723029" y1="310.964435967" y2="308.280774876" /><line stroke="rgb(0%,0%,0%)" x1="366.658249108" x2="375.584960325" y1="310.964435967" y2="314.078775483" /><line stroke="rgb(0%,0%,0%)" x1="297.981180365" x2="297.353966674" y1="323.903060712" y2="324.185441763" /><line stroke="rgb(0%,0%,0%)" x1="317.831622227" x2="300.132420135" y1="319.216169556" y2="323.244825626" /><line stroke="rgb(0%,0%,0%)" x1="335.511186382" x2="317.831622227" y1="317.581664906" y2="319.216169556" /><line stroke="rgb(0%,0%,0%)" x1="330.277731246" x2="336.640580212" y1="294.669135844" y2="298.32753807" /><line stroke="rgb(0%,0%,0%)" x1="329.882271173" x2="330.277731246" y1="293.860092322" y2="294.669135844" /><line stroke="rgb(0%,0%,0%)" x1="329.882271173" x2="329.900561586" y1="293.860092322" y2="293.054230668" /><line stroke="rgb(0%,0%,0%)" x1="329.2113932" x2="329.900561586" y1="292.374350971" y2="293.054230668" /><line stroke="rgb(0%,0%,0%)" x1="328.93240779" x2="330.849575407" y1="290.126690063" y2="287.637843644" /><line stroke="rgb(0%,0%,0%)" x1="331.17952219" x2="330.849575407" y1="287.367521432" y2="287.637843644" /><line stroke="rgb(0%,0%,0%)" x1="329.014929569" x2="329.2113932" y1="291.456364744" y2="292.374350971" /><line stroke="rgb(0%,0%,0%)" x1="328.79029352" x2="329.014929569" y1="290.93578485" y2="291.456364744" /><line stroke="rgb(0%,0%,0%)" x1="331.486178143" x2="331.17952219" y1="287.13044131" y2="287.367521432" /><line stroke="rgb(0%,0%,0%)" x1="336.830586916" x2="337.369422209" y1="298.465260535" y2="298.752918772" /><line stroke="rgb(0%,0%,0%)" x1="336.640580212" x2="336.830586916" y1="298.32753807" y2="298.465260535" /><line stroke="rgb(0%,0%,0%)" x1="250.51710082" x2="250.786271028" y1="348.25817265" y2="348.047979875" /><line stroke="rgb(0%,0%,0%)" x1="250.51710082" x2="250.333233703" y1="348.25817265" y2="348.485593533" /><line stroke="rgb(0%,0%,0%)" x1="257.230986507" x2="258.462361207" y1="341.92577276" y2="340.760026564" /><line stroke="rgb(0%,0%,0%)" x1="258.462361207" x2="260.167291474" y1="340.760026564" y2="338.997184814" /><line stroke="rgb(0%,0%,0%)" x1="272.427169481" x2="265.829100541" y1="331.207097709" y2="333.523301532" /><line stroke="rgb(0%,0%,0%)" x1="272.427169481" x2="277.867772603" y1="331.207097709" y2="329.939028071" /><line stroke="rgb(0%,0%,0%)" x1="280.294306145" x2="277.867772603" y1="329.204053878" y2="329.939028071" /><line stroke="rgb(0%,0%,0%)" x1="285.333064069" x2="280.294306145" y1="326.890127911" y2="329.204053878" /><line stroke="rgb(0%,0%,0%)" x1="285.333064069" x2="292.417394988" y1="326.890127911" y2="325.452950364" /><line stroke="rgb(0%,0%,0%)" x1="297.353966674" x2="296.320503127" y1="324.185441763" y2="324.691805412" /><line stroke="rgb(0%,0%,0%)" x1="295.541438778" x2="294.551723871" y1="324.76286261" y2="325.026366968" /><line stroke="rgb(0%,0%,0%)" x1="296.320503127" x2="295.541438778" y1="324.691805412" y2="324.76286261" /><line stroke="rgb(0%,0%,0%)" x1="225.971583428" x2="232.610360888" y1="370.148563563" y2="366.727431572" /><line stroke="rgb(0%,0%,0%)" x1="242.489366766" x2="233.022700719" y1="355.405672512" y2="366.46881767" /><line stroke="rgb(0%,0%,0%)" x1="250.333233703" x2="242.489366766" y1="348.485593533" y2="355.405672512" /><line stroke="rgb(0%,0%,0%)" x1="257.230986507" x2="250.786271028" y1="341.92577276" y2="348.047979875" /><line stroke="rgb(0%,0%,0%)" x1="261.762599772" x2="260.167291474" y1="337.457462441" y2="338.997184814" /><line stroke="rgb(0%,0%,0%)" x1="261.762599772" x2="265.826603324" y1="337.457462441" y2="333.524990872" /><line stroke="rgb(0%,0%,0%)" x1="265.826998966" x2="265.826603324" y1="333.524533722" y2="333.524990872" /><line stroke="rgb(0%,0%,0%)" x1="265.829100541" x2="265.826998966" y1="333.523301532" y2="333.524533722" /><line stroke="rgb(0%,0%,0%)" x1="294.551723871" x2="292.417394988" y1="325.026366968" y2="325.452950364" /><line stroke="rgb(0%,0%,0%)" x1="173.268640424" x2="172.182138967" y1="406.898505998" y2="407.663429353" /><line stroke="rgb(0%,0%,0%)" x1="173.268640424" x2="174.228205479" y1="406.898505998" y2="406.255151904" /><line stroke="rgb(0%,0%,0%)" x1="187.684534191" x2="187.627380977" y1="397.153170514" y2="397.197338864" /><line stroke="rgb(0%,0%,0%)" x1="187.684534191" x2="187.832634363" y1="397.153170514" y2="397.023339853" /><line stroke="rgb(0%,0%,0%)" x1="225.209337595" x2="221.858059415" y1="370.771902595" y2="372.545009998" /><line stroke="rgb(0%,0%,0%)" x1="221.858059415" x2="203.246566345" y1="372.545009998" y2="383.202950037" /><line stroke="rgb(0%,0%,0%)" x1="225.209337595" x2="225.971583428" y1="370.771902595" y2="370.148563563" /><line stroke="rgb(0%,0%,0%)" x1="232.871349673" x2="232.610360888" y1="366.586395035" y2="366.727431572" /><line stroke="rgb(0%,0%,0%)" x1="233.022700719" x2="232.871349673" y1="366.46881767" y2="366.586395035" /><line stroke="rgb(0%,0%,0%)" x1="158.899347461" x2="158.694404457" y1="414.061914173" y2="414.192704198" /><line stroke="rgb(0%,0%,0%)" x1="172.182138967" x2="158.899347461" y1="407.663429353" y2="414.061914173" /><line stroke="rgb(0%,0%,0%)" x1="187.627380977" x2="174.228205479" y1="397.197338864" y2="406.255151904" /><line stroke="rgb(0%,0%,0%)" x1="193.12924811" x2="187.832634363" y1="392.488831662" y2="397.023339853" /><line stroke="rgb(0%,0%,0%)" x1="194.807918377" x2="193.12924811" y1="390.859542065" y2="392.488831662" /><line stroke="rgb(0%,0%,0%)" x1="202.6526659" x2="196.006841516" y1="384.065338173" y2="389.428986218" /><line stroke="rgb(0%,0%,0%)" x1="196.006841516" x2="194.807918377" y1="389.428986218" y2="390.859542065" /><line stroke="rgb(0%,0%,0%)" x1="203.246566345" x2="202.6526659" y1="383.202950037" y2="384.065338173" /><line stroke="rgb(0%,0%,0%)" x1="158.694404457" x2="158.289914068" y1="414.192704198" y2="414.346223013" /><line stroke="rgb(0%,0%,0%)" x1="125.537202811" x2="110.083171532" y1="424.054546237" y2="429.929859102" /><line stroke="rgb(0%,0%,0%)" x1="134.579002196" x2="141.023851731" y1="422.872352791" y2="421.019246926" /><line stroke="rgb(0%,0%,0%)" x1="134.579002196" x2="125.537202811" y1="422.872352791" y2="424.054546237" /><line stroke="rgb(0%,0%,0%)" x1="158.289914068" x2="141.023851731" y1="414.346223013" y2="421.019246926" /><line stroke="rgb(0%,0%,0%)" x1="91.9384813449" x2="93.1271103825" y1="444.1303659" y2="441.802997728" /><line stroke="rgb(0%,0%,0%)" x1="97.3556340331" x2="93.1271103825" y1="435.325476016" y2="441.802997728" /><line stroke="rgb(0%,0%,0%)" x1="91.9384813449" x2="93.5686029083" y1="444.1303659" y2="446.577935242" /><line stroke="rgb(0%,0%,0%)" x1="101.089191691" x2="97.3556340331" y1="433.372526434" y2="435.325476016" /><line stroke="rgb(0%,0%,0%)" x1="110.083171532" x2="101.089191691" y1="429.929859102" y2="433.372526434" /><line stroke="rgb(0%,0%,0%)" x1="626.642150976" x2="626.622148818" y1="455.714242265" y2="456.098908245" /><line stroke="rgb(0%,0%,0%)" x1="615.638539914" x2="616.840367448" y1="496.321476761" y2="492.823663429" /><line stroke="rgb(0%,0%,0%)" x1="624.297150708" x2="623.512297959" y1="468.371602592" y2="472.56831845" /><line stroke="rgb(0%,0%,0%)" x1="565.374605177" x2="564.8963202" y1="588.724434366" y2="589.561681793" /><line stroke="rgb(0%,0%,0%)" x1="565.451001337" x2="565.374605177" y1="588.596679116" y2="588.724434366" /><line stroke="rgb(0%,0%,0%)" x1="565.451001337" x2="565.595928366" y1="588.596679116" y2="588.295951137" /><line stroke="rgb(0%,0%,0%)" x1="615.638539914" x2="614.516389882" y1="496.321476761" y2="498.63110844" /><line stroke="rgb(0%,0%,0%)" x1="620.080277548" x2="621.65352119" y1="480.523743209" y2="477.711377992" /><line stroke="rgb(0%,0%,0%)" x1="624.297150708" x2="626.622148818" y1="468.371602592" y2="456.098908245" /><line stroke="rgb(0%,0%,0%)" x1="587.933279929" x2="584.902978475" y1="550.815391717" y2="557.708216462" /><line stroke="rgb(0%,0%,0%)" x1="587.933279929" x2="591.370356939" y1="550.815391717" y2="544.401311968" /><line stroke="rgb(0%,0%,0%)" x1="591.370356939" x2="593.133011274" y1="544.401311968" y2="539.51926161" /><line stroke="rgb(0%,0%,0%)" x1="594.127959825" x2="595.920907062" y1="538.153573579" y2="534.106984882" /><line stroke="rgb(0%,0%,0%)" x1="599.006437323" x2="600.818600331" y1="529.112507074" y2="525.240451161" /><line stroke="rgb(0%,0%,0%)" x1="600.818600331" x2="602.469967431" y1="525.240451161" y2="521.50950944" /><line stroke="rgb(0%,0%,0%)" x1="604.67924974" x2="602.690880865" y1="516.895952138" y2="521.060667442" /><line stroke="rgb(0%,0%,0%)" x1="604.67924974" x2="605.796191167" y1="516.895952138" y2="514.709135069" /><line stroke="rgb(0%,0%,0%)" x1="606.93400906" x2="605.796191167" y1="511.97980622" y2="514.709135069" /><line stroke="rgb(0%,0%,0%)" x1="611.157921065" x2="614.516389882" y1="505.570712244" y2="498.63110844" /><line stroke="rgb(0%,0%,0%)" x1="616.840367448" x2="618.170684975" y1="492.823663429" y2="488.170203282" /><line stroke="rgb(0%,0%,0%)" x1="618.170684975" x2="619.145194736" y1="488.170203282" y2="483.383323762" /><line stroke="rgb(0%,0%,0%)" x1="621.65352119" x2="623.512297959" y1="477.711377992" y2="472.56831845" /><line stroke="rgb(0%,0%,0%)" x1="548.525982997" x2="551.32077571" y1="611.75672623" y2="609.808619568" /><line stroke="rgb(0%,0%,0%)" x1="565.595928366" x2="572.493671755" y1="588.295951137" y2="578.038653078" /><line stroke="rgb(0%,0%,0%)" x1="576.553816827" x2="582.014458944" y1="572.672757809" y2="564.268315933" /><line stroke="rgb(0%,0%,0%)" x1="572.493671755" x2="576.553816827" y1="578.038653078" y2="572.672757809" /><line stroke="rgb(0%,0%,0%)" x1="582.014458944" x2="584.902978475" y1="564.268315933" y2="557.708216462" /><line stroke="rgb(0%,0%,0%)" x1="593.133011274" x2="594.127959825" y1="539.51926161" y2="538.153573579" /><line stroke="rgb(0%,0%,0%)" x1="595.920907062" x2="596.648000339" y1="534.106984882" y2="532.653766967" /><line stroke="rgb(0%,0%,0%)" x1="596.648000339" x2="599.006437323" y1="532.653766967" y2="529.112507074" /><line stroke="rgb(0%,0%,0%)" x1="606.93400906" x2="608.398026312" y1="511.97980622" y2="509.573279657" /><line stroke="rgb(0%,0%,0%)" x1="608.398026312" x2="611.157921065" y1="509.573279657" y2="505.570712244" /><line stroke="rgb(0%,0%,0%)" x1="619.145194736" x2="620.080277548" y1="483.383323762" y2="480.523743209" /><line stroke="rgb(0%,0%,0%)" x1="509.864806408" x2="508.981455073" y1="648.160896548" y2="649.264022362" /><line stroke="rgb(0%,0%,0%)" x1="513.327779375" x2="512.880010204" y1="644.852757091" y2="645.057199054" /><line stroke="rgb(0%,0%,0%)" x1="520.566886752" x2="521.587059417" y1="638.228084881" y2="637.682999986" /><line stroke="rgb(0%,0%,0%)" x1="513.327779375" x2="520.566886752" y1="644.852757091" y2="638.228084881" /><line stroke="rgb(0%,0%,0%)" x1="521.587059417" x2="525.717242395" y1="637.682999986" y2="633.37038478" /><line stroke="rgb(0%,0%,0%)" x1="526.110531392" x2="525.717242395" y1="632.723753612" y2="633.37038478" /><line stroke="rgb(0%,0%,0%)" x1="526.110531392" x2="527.691930797" y1="632.723753612" y2="632.150657249" /><line stroke="rgb(0%,0%,0%)" x1="532.120776916" x2="531.221030928" y1="625.640804058" y2="627.274101414" /><line stroke="rgb(0%,0%,0%)" x1="532.120776916" x2="534.667810888" y1="625.640804058" y2="624.242438947" /><line stroke="rgb(0%,0%,0%)" x1="544.508452021" x2="541.664953283" y1="615.493899251" y2="618.158261813" /><line stroke="rgb(0%,0%,0%)" x1="544.508452021" x2="548.133926937" y1="615.493899251" y2="613.347801104" /><line stroke="rgb(0%,0%,0%)" x1="548.525982997" x2="548.133926937" y1="611.75672623" y2="613.347801104" /><line stroke="rgb(0%,0%,0%)" x1="534.667810888" x2="541.664953283" y1="624.242438947" y2="618.158261813" /><line stroke="rgb(0%,0%,0%)" x1="551.32077571" x2="553.953780625" y1="609.808619568" y2="607.008533163" /><line stroke="rgb(0%,0%,0%)" x1="558.443685213" x2="555.032811237" y1="595.987827254" y2="605.741112733" /><line stroke="rgb(0%,0%,0%)" x1="553.953780625" x2="555.032811237" y1="607.008533163" y2="605.741112733" /><line stroke="rgb(0%,0%,0%)" x1="558.443685213" x2="560.921958953" y1="595.987827254" y2="594.10028096" /><line stroke="rgb(0%,0%,0%)" x1="560.921958953" x2="564.8963202" y1="594.10028096" y2="589.561681793" /><line stroke="rgb(0%,0%,0%)" x1="602.469967431" x2="602.690880865" y1="521.50950944" y2="521.060667442" /><line stroke="rgb(0%,0%,0%)" x1="484.121182428" x2="483.681298597" y1="667.929169658" y2="668.045308753" /><line stroke="rgb(0%,0%,0%)" x1="484.121182428" x2="484.229064019" y1="667.929169658" y2="667.743881927" /><line stroke="rgb(0%,0%,0%)" x1="489.77183305" x2="493.640885234" y1="664.482793644" y2="661.309521233" /><line stroke="rgb(0%,0%,0%)" x1="502.131136112" x2="499.261608398" y1="654.90543252" y2="656.760993096" /><line stroke="rgb(0%,0%,0%)" x1="502.131136112" x2="508.981455073" y1="654.90543252" y2="649.264022362" /><line stroke="rgb(0%,0%,0%)" x1="509.864806408" x2="512.880010204" y1="648.160896548" y2="645.057199054" /><line stroke="rgb(0%,0%,0%)" x1="527.691930797" x2="531.221030928" y1="632.150657249" y2="627.274101414" /><line stroke="rgb(0%,0%,0%)" x1="459.50634419" x2="457.879310389" y1="677.125641337" y2="677.257638987" /><line stroke="rgb(0%,0%,0%)" x1="459.50634419" x2="460.324711134" y1="677.125641337" y2="676.669832701" /><line stroke="rgb(0%,0%,0%)" x1="460.324711134" x2="463.329056187" y1="676.669832701" y2="675.682052189" /><line stroke="rgb(0%,0%,0%)" x1="476.937688622" x2="474.940185668" y1="672.124461479" y2="672.862458902" /><line stroke="rgb(0%,0%,0%)" x1="476.937688622" x2="483.681298597" y1="672.124461479" y2="668.045308753" /><line stroke="rgb(0%,0%,0%)" x1="484.229064019" x2="488.772724741" y1="667.743881927" y2="665.578729838" /><line stroke="rgb(0%,0%,0%)" x1="488.772724741" x2="489.77183305" y1="665.578729838" y2="664.482793644" /><line stroke="rgb(0%,0%,0%)" x1="493.640885234" x2="496.635742974" y1="661.309521233" y2="659.331299839" /><line stroke="rgb(0%,0%,0%)" x1="496.635742974" x2="499.261608398" y1="659.331299839" y2="656.760993096" /><line stroke="rgb(0%,0%,0%)" x1="457.879310389" x2="453.481110621" y1="677.257638987" y2="676.791855009" /><line stroke="rgb(0%,0%,0%)" x1="463.329056187" x2="474.940185668" y1="675.682052189" y2="672.862458902" /><line stroke="rgb(0%,0%,0%)" x1="394.513682962" x2="389.431946298" y1="600.225883567" y2="600.99345595" /><line stroke="rgb(0%,0%,0%)" x1="416.139788049" x2="419.357178958" y1="675.360631847" y2="675.066668337" /><line stroke="rgb(0%,0%,0%)" x1="409.768459276" x2="416.139788049" y1="675.250223909" y2="675.360631847" /><line stroke="rgb(0%,0%,0%)" x1="409.768459276" x2="402.891880817" y1="675.250223909" y2="675.149037292" /><line stroke="rgb(0%,0%,0%)" x1="400.458819209" x2="401.718118975" y1="597.067724374" y2="596.631052453" /><line stroke="rgb(0%,0%,0%)" x1="410.168627501" x2="413.492279162" y1="597.121168192" y2="596.535721679" /><line stroke="rgb(0%,0%,0%)" x1="410.168627501" x2="394.513682962" y1="597.121168192" y2="600.225883567" /><line stroke="rgb(0%,0%,0%)" x1="411.544962441" x2="411.409322286" y1="594.684191104" y2="594.687540266" /><line stroke="rgb(0%,0%,0%)" x1="401.718118975" x2="411.409322286" y1="596.631052453" y2="594.687540266" /><line stroke="rgb(0%,0%,0%)" x1="420.668748647" x2="419.357178958" y1="674.562518994" y2="675.066668337" /><line stroke="rgb(0%,0%,0%)" x1="420.668748647" x2="430.965444353" y1="674.562518994" y2="672.744294951" /><line stroke="rgb(0%,0%,0%)" x1="411.544962441" x2="415.969298358" y1="594.684191104" y2="594.243871804" /><line stroke="rgb(0%,0%,0%)" x1="420.587549117" x2="425.142235366" y1="594.119204037" y2="591.815096748" /><line stroke="rgb(0%,0%,0%)" x1="415.969298358" x2="422.728680318" y1="594.243871804" y2="592.124094664" /><line stroke="rgb(0%,0%,0%)" x1="422.728680318" x2="427.113060083" y1="592.124094664" y2="589.838831074" /><line stroke="rgb(0%,0%,0%)" x1="430.965444353" x2="432.72288702" y1="672.744294951" y2="672.320003509" /><line stroke="rgb(0%,0%,0%)" x1="435.841038788" x2="432.72288702" y1="672.410206778" y2="672.320003509" /><line stroke="rgb(0%,0%,0%)" x1="420.587549117" x2="417.070663514" y1="594.119204037" y2="595.694475646" /><line stroke="rgb(0%,0%,0%)" x1="425.142235366" x2="427.592192009" y1="591.815096748" y2="589.740104952" /><line stroke="rgb(0%,0%,0%)" x1="428.183971908" x2="427.592192009" y1="589.379791265" y2="589.740104952" /><line stroke="rgb(0%,0%,0%)" x1="427.113060083" x2="428.062206325" y1="589.838831074" y2="589.317213359" /><line stroke="rgb(0%,0%,0%)" x1="428.062206325" x2="428.183971908" y1="589.317213359" y2="589.379791265" /><line stroke="rgb(0%,0%,0%)" x1="435.841038788" x2="446.546533904" y1="672.410206778" y2="676.356132168" /><line stroke="rgb(0%,0%,0%)" x1="446.546533904" x2="453.481110621" y1="676.356132168" y2="676.791855009" /><line stroke="rgb(0%,0%,0%)" x1="365.659875365" x2="364.843836852" y1="667.183518965" y2="666.668180708" /><line stroke="rgb(0%,0%,0%)" x1="365.659875365" x2="365.919867303" y1="667.183518965" y2="667.250697485" /><line stroke="rgb(0%,0%,0%)" x1="379.358377578" x2="380.581399588" y1="670.073970222" y2="670.020007164" /><line stroke="rgb(0%,0%,0%)" x1="365.919867303" x2="366.319996882" y1="667.250697485" y2="667.307556339" /><line stroke="rgb(0%,0%,0%)" x1="366.319996882" x2="379.358377578" y1="667.307556339" y2="670.073970222" /><line stroke="rgb(0%,0%,0%)" x1="380.581399588" x2="381.548215485" y1="670.020007164" y2="670.700695338" /><line stroke="rgb(0%,0%,0%)" x1="381.548215485" x2="386.817526675" y1="670.700695338" y2="669.299183114" /><line stroke="rgb(0%,0%,0%)" x1="386.817526675" x2="387.72145901" y1="669.299183114" y2="669.212591008" /><line stroke="rgb(0%,0%,0%)" x1="372.731343981" x2="378.796502314" y1="604.1861632" y2="602.424387661" /><line stroke="rgb(0%,0%,0%)" x1="379.540597858" x2="371.050442876" y1="598.523849644" y2="597.568446655" /><line stroke="rgb(0%,0%,0%)" x1="398.31186615" x2="393.850377877" y1="673.578451375" y2="672.055124565" /><line stroke="rgb(0%,0%,0%)" x1="392.699085991" x2="387.72145901" y1="672.235828818" y2="669.212591008" /><line stroke="rgb(0%,0%,0%)" x1="392.699085991" x2="393.850377877" y1="672.235828818" y2="672.055124565" /><line stroke="rgb(0%,0%,0%)" x1="398.31186615" x2="399.834834628" y1="673.578451375" y2="674.503129277" /><line stroke="rgb(0%,0%,0%)" x1="383.601726062" x2="378.796502314" y1="601.642535802" y2="602.424387661" /><line stroke="rgb(0%,0%,0%)" x1="389.431946298" x2="383.601726062" y1="600.99345595" y2="601.642535802" /><line stroke="rgb(0%,0%,0%)" x1="379.540597858" x2="398.838062445" y1="598.523849644" y2="597.201285663" /><line stroke="rgb(0%,0%,0%)" x1="401.67265399" x2="402.891880817" y1="675.005379341" y2="675.149037292" /><line stroke="rgb(0%,0%,0%)" x1="399.834834628" x2="401.67265399" y1="674.503129277" y2="675.005379341" /><line stroke="rgb(0%,0%,0%)" x1="417.070663514" x2="413.492279162" y1="595.694475646" y2="596.535721679" /><line stroke="rgb(0%,0%,0%)" x1="339.913612935" x2="340.156009982" y1="625.67210074" y2="625.851269088" /><line stroke="rgb(0%,0%,0%)" x1="340.524867611" x2="342.899027044" y1="626.184343551" y2="628.015981757" /><line stroke="rgb(0%,0%,0%)" x1="340.156009982" x2="340.524867611" y1="625.851269088" y2="626.184343551" /><line stroke="rgb(0%,0%,0%)" x1="339.913612935" x2="339.730312127" y1="625.67210074" y2="625.523231793" /><line stroke="rgb(0%,0%,0%)" x1="339.196950668" x2="338.73284728" y1="623.004477993" y2="621.155383859" /><line stroke="rgb(0%,0%,0%)" x1="343.605824615" x2="340.297519377" y1="616.972030277" y2="619.424040833" /><line stroke="rgb(0%,0%,0%)" x1="358.596617956" x2="354.042169493" y1="662.186839347" y2="652.514692419" /><line stroke="rgb(0%,0%,0%)" x1="357.512641865" x2="353.568289535" y1="641.166662073" y2="650.937350586" /><line stroke="rgb(0%,0%,0%)" x1="350.228974361" x2="354.503824539" y1="632.22269167" y2="634.784715668" /><line stroke="rgb(0%,0%,0%)" x1="354.503824539" x2="356.83170435" y1="634.784715668" y2="636.092967015" /><line stroke="rgb(0%,0%,0%)" x1="350.228974361" x2="349.383044295" y1="632.22269167" y2="631.043011718" /><line stroke="rgb(0%,0%,0%)" x1="345.408483518" x2="349.383044295" y1="629.228233473" y2="631.043011718" /><line stroke="rgb(0%,0%,0%)" x1="342.899027044" x2="345.408483518" y1="628.015981757" y2="629.228233473" /><line stroke="rgb(0%,0%,0%)" x1="339.955922593" x2="340.297519377" y1="620.042580312" y2="619.424040833" /><line stroke="rgb(0%,0%,0%)" x1="343.605824615" x2="347.934845004" y1="616.972030277" y2="615.088635221" /><line stroke="rgb(0%,0%,0%)" x1="348.017504793" x2="347.934845004" y1="615.020614132" y2="615.088635221" /><line stroke="rgb(0%,0%,0%)" x1="348.091024786" x2="348.017504793" y1="614.98726116" y2="615.020614132" /><line stroke="rgb(0%,0%,0%)" x1="350.967168811" x2="348.091024786" y1="613.077695662" y2="614.98726116" /><line stroke="rgb(0%,0%,0%)" x1="367.14897886" x2="348.500270216" y1="597.532277792" y2="595.553480705" /><line stroke="rgb(0%,0%,0%)" x1="360.200659045" x2="364.843836852" y1="663.569423482" y2="666.668180708" /><line stroke="rgb(0%,0%,0%)" x1="358.596617956" x2="360.200659045" y1="662.186839347" y2="663.569423482" /><line stroke="rgb(0%,0%,0%)" x1="353.643975061" x2="354.042169493" y1="651.338220754" y2="652.514692419" /><line stroke="rgb(0%,0%,0%)" x1="353.568289535" x2="353.643975061" y1="650.937350586" y2="651.338220754" /><line stroke="rgb(0%,0%,0%)" x1="360.144684094" x2="357.512641865" y1="638.007914421" y2="641.166662073" /><line stroke="rgb(0%,0%,0%)" x1="356.83170435" x2="360.144684094" y1="636.092967015" y2="638.007914421" /><line stroke="rgb(0%,0%,0%)" x1="353.225049565" x2="350.967168811" y1="611.839891118" y2="613.077695662" /><line stroke="rgb(0%,0%,0%)" x1="359.892655777" x2="353.225049565" y1="608.558873754" y2="611.839891118" /><line stroke="rgb(0%,0%,0%)" x1="359.892655777" x2="370.71293343" y1="608.558873754" y2="604.801169502" /><line stroke="rgb(0%,0%,0%)" x1="367.14897886" x2="371.050442876" y1="597.532277792" y2="597.568446655" /><line stroke="rgb(0%,0%,0%)" x1="372.731343981" x2="370.71293343" y1="604.1861632" y2="604.801169502" /><line stroke="rgb(0%,0%,0%)" x1="266.302057125" x2="266.408549585" y1="577.89596432" y2="577.970996731" /><line stroke="rgb(0%,0%,0%)" x1="266.302057125" x2="266.183767471" y1="577.89596432" y2="577.857970268" /><line stroke="rgb(0%,0%,0%)" x1="298.803200693" x2="306.07696109" y1="586.026584532" y2="588.094123858" /><line stroke="rgb(0%,0%,0%)" x1="298.803200693" x2="291.019867265" y1="586.026584532" y2="584.332165709" /><line stroke="rgb(0%,0%,0%)" x1="306.637287147" x2="330.150237804" y1="588.170033776" y2="593.0627074" /><line stroke="rgb(0%,0%,0%)" x1="306.477084166" x2="306.637287147" y1="588.154621082" y2="588.170033776" /><line stroke="rgb(0%,0%,0%)" x1="330.150237804" x2="330.527465069" y1="593.0627074" y2="593.095721639" /><line stroke="rgb(0%,0%,0%)" x1="346.929977241" x2="330.527465069" y1="595.690324053" y2="593.095721639" /><line stroke="rgb(0%,0%,0%)" x1="339.196950668" x2="339.730312127" y1="623.004477993" y2="625.523231793" /><line stroke="rgb(0%,0%,0%)" x1="339.955922593" x2="338.73284728" y1="620.042580312" y2="621.155383859" /><line stroke="rgb(0%,0%,0%)" x1="346.929977241" x2="348.500270216" y1="595.690324053" y2="595.553480705" /><line stroke="rgb(0%,0%,0%)" x1="235.742146797" x2="234.44305276" y1="553.075085704" y2="551.600824194" /><line stroke="rgb(0%,0%,0%)" x1="266.408549585" x2="270.564461705" y1="577.970996731" y2="579.53508441" /><line stroke="rgb(0%,0%,0%)" x1="266.183767471" x2="265.734433841" y1="577.857970268" y2="577.519100942" /><line stroke="rgb(0%,0%,0%)" x1="287.219036825" x2="288.475646928" y1="583.81741344" y2="583.943792216" /><line stroke="rgb(0%,0%,0%)" x1="274.166884334" x2="287.219036825" y1="581.319225394" y2="583.81741344" /><line stroke="rgb(0%,0%,0%)" x1="270.564461705" x2="274.166884334" y1="579.53508441" y2="581.319225394" /><line stroke="rgb(0%,0%,0%)" x1="290.315136332" x2="291.019867265" y1="584.17744348" y2="584.332165709" /><line stroke="rgb(0%,0%,0%)" x1="288.475646928" x2="290.315136332" y1="583.943792216" y2="584.17744348" /><line stroke="rgb(0%,0%,0%)" x1="306.07696109" x2="306.477084166" y1="588.094123858" y2="588.154621082" /><line stroke="rgb(0%,0%,0%)" x1="192.452200779" x2="192.688931447" y1="515.715971481" y2="516.075291348" /><line stroke="rgb(0%,0%,0%)" x1="192.688931447" x2="195.595174672" y1="516.075291348" y2="519.353795564" /><line stroke="rgb(0%,0%,0%)" x1="192.452200779" x2="191.122950702" y1="515.715971481" y2="514.155100121" /><line stroke="rgb(0%,0%,0%)" x1="214.60871374" x2="207.025693592" y1="536.680555044" y2="531.829276956" /><line stroke="rgb(0%,0%,0%)" x1="228.34542873" x2="228.930651679" y1="547.303343167" y2="547.643857278" /><line stroke="rgb(0%,0%,0%)" x1="234.44305276" x2="228.930651679" y1="551.600824194" y2="547.643857278" /><line stroke="rgb(0%,0%,0%)" x1="214.60871374" x2="227.663796611" y1="536.680555044" y2="546.755794954" /><line stroke="rgb(0%,0%,0%)" x1="252.869409968" x2="247.5033385" y1="568.336477381" y2="563.845219006" /><line stroke="rgb(0%,0%,0%)" x1="246.673167551" x2="247.5033385" y1="562.987894429" y2="563.845219006" /><line stroke="rgb(0%,0%,0%)" x1="242.408442841" x2="246.673167551" y1="559.344145878" y2="562.987894429" /><line stroke="rgb(0%,0%,0%)" x1="235.742146797" x2="242.408442841" y1="553.075085704" y2="559.344145878" /><line stroke="rgb(0%,0%,0%)" x1="259.149760874" x2="265.734433841" y1="572.833601139" y2="577.519100942" /><line stroke="rgb(0%,0%,0%)" x1="259.010422065" x2="259.149760874" y1="572.600657759" y2="572.833601139" /><line stroke="rgb(0%,0%,0%)" x1="258.537961795" x2="259.010422065" y1="572.374032479" y2="572.600657759" /><line stroke="rgb(0%,0%,0%)" x1="253.960943906" x2="258.537961795" y1="569.216575435" y2="572.374032479" /><line stroke="rgb(0%,0%,0%)" x1="252.869409968" x2="253.960943906" y1="568.336477381" y2="569.216575435" /><line stroke="rgb(0%,0%,0%)" x1="187.015302418" x2="191.122950702" y1="511.488069507" y2="514.155100121" /><line stroke="rgb(0%,0%,0%)" x1="182.508948991" x2="187.015302418" y1="508.363203831" y2="511.488069507" /><line stroke="rgb(0%,0%,0%)" x1="179.01881791" x2="173.100461423" y1="505.931919135" y2="501.115340196" /><line stroke="rgb(0%,0%,0%)" x1="204.948416152" x2="207.025693592" y1="530.336266967" y2="531.829276956" /><line stroke="rgb(0%,0%,0%)" x1="203.25369113" x2="204.948416152" y1="528.236783043" y2="530.336266967" /><line stroke="rgb(0%,0%,0%)" x1="199.675685291" x2="203.25369113" y1="524.493585387" y2="528.236783043" /><line stroke="rgb(0%,0%,0%)" x1="199.675685291" x2="197.033766244" y1="524.493585387" y2="521.245241408" /><line stroke="rgb(0%,0%,0%)" x1="228.157413792" x2="228.34542873" y1="547.15692812" y2="547.303343167" /><line stroke="rgb(0%,0%,0%)" x1="227.663796611" x2="228.157413792" y1="546.755794954" y2="547.15692812" /><line stroke="rgb(0%,0%,0%)" x1="154.97630885" x2="142.742011908" y1="493.786205496" y2="491.408299678" /><line stroke="rgb(0%,0%,0%)" x1="169.962071369" x2="173.100461423" y1="500.034657649" y2="501.115340196" /><line stroke="rgb(0%,0%,0%)" x1="154.97630885" x2="169.962071369" y1="493.786205496" y2="500.034657649" /><line stroke="rgb(0%,0%,0%)" x1="195.595174672" x2="196.768609312" y1="519.353795564" y2="521.109867185" /><line stroke="rgb(0%,0%,0%)" x1="179.01881791" x2="182.508948991" y1="505.931919135" y2="508.363203831" /><line stroke="rgb(0%,0%,0%)" x1="196.768609312" x2="197.033766244" y1="521.109867185" y2="521.245241408" /><line stroke="rgb(0%,0%,0%)" x1="121.679263568" x2="129.692620585" y1="489.397155348" y2="490.625872049" /><line stroke="rgb(0%,0%,0%)" x1="121.679263568" x2="113.014241704" y1="489.397155348" y2="488.927512962" /><line stroke="rgb(0%,0%,0%)" x1="129.692620585" x2="142.742011908" y1="490.625872049" y2="491.408299678" /><line stroke="rgb(0%,0%,0%)" x1="86.4356486816" x2="89.1765489621" y1="468.108880533" y2="462.789007252" /><line stroke="rgb(0%,0%,0%)" x1="89.5556654713" x2="89.1765489621" y1="462.411793863" y2="462.789007252" /><line stroke="rgb(0%,0%,0%)" x1="92.1255928447" x2="95.2854849451" y1="480.562451305" y2="482.437055044" /><line stroke="rgb(0%,0%,0%)" x1="95.2854849451" x2="108.327579973" y1="482.437055044" y2="488.256613841" /><line stroke="rgb(0%,0%,0%)" x1="89.7679214299" x2="92.1255928447" y1="477.428453551" y2="480.562451305" /><line stroke="rgb(0%,0%,0%)" x1="89.7679214299" x2="86.5279912184" y1="477.428453551" y2="469.806911521" /><line stroke="rgb(0%,0%,0%)" x1="90.1244271392" x2="102.529423536" y1="462.113579478" y2="455.604222709" /><line stroke="rgb(0%,0%,0%)" x1="90.1244271392" x2="89.5556654713" y1="462.113579478" y2="462.411793863" /><line stroke="rgb(0%,0%,0%)" x1="108.327579973" x2="109.246887399" y1="488.256613841" y2="488.497771461" /><line stroke="rgb(0%,0%,0%)" x1="109.246887399" x2="113.014241704" y1="488.497771461" y2="488.927512962" /><line stroke="rgb(0%,0%,0%)" x1="86.3347986687" x2="86.5279912184" y1="468.772352525" y2="469.806911521" /><line stroke="rgb(0%,0%,0%)" x1="86.4356486816" x2="86.3347986687" y1="468.108880533" y2="468.772352525" /><line stroke="rgb(0%,0%,0%)" x1="99.4478376721" x2="102.529423536" y1="452.406080607" y2="455.604222709" /><line stroke="rgb(0%,0%,0%)" x1="93.5686029083" x2="99.4478376721" y1="446.577935242" y2="452.406080607" /><line stroke="rgb(0%,0%,0%)" x1="398.838062445" x2="400.458819209" y1="597.201285663" y2="597.067724374" /></svg>