<?xml version="1.0" encoding="utf-8" ?>
<svg baseProfile="full" height="100%" version="1.1" viewBox="0.5 0.5 685.793960571 941.299331665" width="100%" xmlns="http://www.w3.org/2000/svg" xmlns:ev="http://www.w3.org/2001/xml-events" xmlns:xlink="http://www.w3.org/1999/xlink"><defs /><line stroke="rgb(0%,0%,0%)" x1="612.299254584" x2="611.574890151" y1="406.070709177" y2="401.536863352" /><line stroke="rgb(0%,0%,0%)" x1="561.016010657" x2="550.78050183" y1="322.17722212" y2="309.605776298" /><line stroke="rgb(0%,0%,0%)" x1="564.571512763" x2="565.704879347" y1="327.253606516" y2="329.321960121" /><line stroke="rgb(0%,0%,0%)" x1="600.658472411" x2="603.77172013" y1="378.402361613" y2="384.479879825" /><line stroke="rgb(0%,0%,0%)" x1="593.650378833" x2="596.915214463" y1="369.657712166" y2="373.830487715" /><line stroke="rgb(0%,0%,0%)" x1="621.65438312" x2="622.394675904" y1="433.565339615" y2="436.157885661" /><line stroke="rgb(0%,0%,0%)" x1="621.65438312" x2="620.483527483" y1="433.565339615" y2="428.194831696" /><line stroke="rgb(0%,0%,0%)" x1="620.483527483" x2="619.551721369" y1="428.194831696" y2="425.066714861" /><line stroke="rgb(0%,0%,0%)" x1="617.438691262" x2="616.012054215" y1="418.697554916" y2="413.418646073" /><line stroke="rgb(0%,0%,0%)" x1="612.299254584" x2="613.647557369" y1="406.070709177" y2="408.072658659" /><line stroke="rgb(0%,0%,0%)" x1="608.117358461" x2="610.177621258" y1="394.353799765" y2="397.813176407" /><line stroke="rgb(0%,0%,0%)" x1="550.78050183" x2="550.609551484" y1="309.605776298" y2="309.039085094" /><line stroke="rgb(0%,0%,0%)" x1="550.609551484" x2="550.20526031" y1="309.039085094" y2="308.746409392" /><line stroke="rgb(0%,0%,0%)" x1="573.804911483" x2="565.704879347" y1="339.648930525" y2="329.321960121" /><line stroke="rgb(0%,0%,0%)" x1="564.571512763" x2="563.765338418" y1="327.253606516" y2="325.137224748" /><line stroke="rgb(0%,0%,0%)" x1="573.804911483" x2="578.36382213" y1="339.648930525" y2="347.137600238" /><line stroke="rgb(0%,0%,0%)" x1="600.658472411" x2="596.915214463" y1="378.402361613" y2="373.830487715" /><line stroke="rgb(0%,0%,0%)" x1="593.650378833" x2="590.341434947" y1="369.657712166" y2="366.295107901" /><line stroke="rgb(0%,0%,0%)" x1="590.341434947" x2="586.129551217" y1="366.295107901" y2="359.217101989" /><line stroke="rgb(0%,0%,0%)" x1="610.304262055" x2="610.177621258" y1="398.822358049" y2="397.813176407" /><line stroke="rgb(0%,0%,0%)" x1="608.117358461" x2="607.164158194" y1="394.353799765" y2="390.558200355" /><line stroke="rgb(0%,0%,0%)" x1="607.164158194" x2="606.351090625" y1="390.558200355" y2="389.54743659" /><line stroke="rgb(0%,0%,0%)" x1="606.351090625" x2="603.77172013" y1="389.54743659" y2="384.479879825" /><line stroke="rgb(0%,0%,0%)" x1="622.921111822" x2="623.873173926" y1="442.550387237" y2="454.878464337" /><line stroke="rgb(0%,0%,0%)" x1="622.921111822" x2="622.394675904" y1="442.550387237" y2="436.157885661" /><line stroke="rgb(0%,0%,0%)" x1="530.554198995" x2="532.277993652" y1="296.88177069" y2="298.134487557" /><line stroke="rgb(0%,0%,0%)" x1="530.554198995" x2="530.522561826" y1="296.88177069" y2="296.75197393" /><line stroke="rgb(0%,0%,0%)" x1="530.349957812" x2="530.522561826" y1="296.700433863" y2="296.75197393" /><line stroke="rgb(0%,0%,0%)" x1="530.349957812" x2="530.03527978" y1="296.700433863" y2="296.484365177" /><line stroke="rgb(0%,0%,0%)" x1="550.20526031" x2="546.036758339" y1="308.746409392" y2="307.446236618" /><line stroke="rgb(0%,0%,0%)" x1="546.036758339" x2="545.037840731" y1="307.446236618" y2="304.80759758" /><line stroke="rgb(0%,0%,0%)" x1="563.765338418" x2="561.016010657" y1="325.137224748" y2="322.17722212" /><line stroke="rgb(0%,0%,0%)" x1="586.129551217" x2="584.092879763" y1="359.217101989" y2="357.78607225" /><line stroke="rgb(0%,0%,0%)" x1="584.092879763" x2="583.899252718" y1="357.78607225" y2="357.468600072" /><line stroke="rgb(0%,0%,0%)" x1="583.78422561" x2="578.716131241" y1="357.137312941" y2="347.57847563" /><line stroke="rgb(0%,0%,0%)" x1="611.195486094" x2="610.304262055" y1="400.625672747" y2="398.822358049" /><line stroke="rgb(0%,0%,0%)" x1="619.551721369" x2="617.438691262" y1="425.066714861" y2="418.697554916" /><line stroke="rgb(0%,0%,0%)" x1="616.012054215" x2="613.647557369" y1="413.418646073" y2="408.072658659" /><line stroke="rgb(0%,0%,0%)" x1="482.868244648" x2="484.36915245" y1="254.639995375" y2="255.878217769" /><line stroke="rgb(0%,0%,0%)" x1="495.340118307" x2="498.137220713" y1="263.902006487" y2="266.72107966" /><line stroke="rgb(0%,0%,0%)" x1="521.681087706" x2="521.954373881" y1="287.348710239" y2="287.548952217" /><line stroke="rgb(0%,0%,0%)" x1="521.681087706" x2="520.397502904" y1="287.348710239" y2="285.860030178" /><line stroke="rgb(0%,0%,0%)" x1="541.690907873" x2="537.050485933" y1="302.960097203" y2="301.567341998" /><line stroke="rgb(0%,0%,0%)" x1="537.050485933" x2="536.009980318" y1="301.567341998" y2="300.386157586" /><line stroke="rgb(0%,0%,0%)" x1="536.009980318" x2="532.277993652" y1="300.386157586" y2="298.134487557" /><line stroke="rgb(0%,0%,0%)" x1="530.03527978" x2="521.954373881" y1="296.484365177" y2="287.548952217" /><line stroke="rgb(0%,0%,0%)" x1="545.037840731" x2="541.690907873" y1="304.80759758" y2="302.960097203" /><line stroke="rgb(0%,0%,0%)" x1="578.716131241" x2="578.36382213" y1="347.57847563" y2="347.137600238" /><line stroke="rgb(0%,0%,0%)" x1="583.899252718" x2="583.78422561" y1="357.468600072" y2="357.137312941" /><line stroke="rgb(0%,0%,0%)" x1="611.574890151" x2="611.195486094" y1="401.536863352" y2="400.625672747" /><line stroke="rgb(0%,0%,0%)" x1="623.727904332" x2="623.873173926" y1="455.806904078" y2="454.878464337" /><line stroke="rgb(0%,0%,0%)" x1="446.855579731" x2="446.505866347" y1="241.121333924" y2="240.867989058" /><line stroke="rgb(0%,0%,0%)" x1="446.855579731" x2="447.215388035" y1="241.121333924" y2="241.301276048" /><line stroke="rgb(0%,0%,0%)" x1="462.942437996" x2="464.686350123" y1="243.416170738" y2="244.547305563" /><line stroke="rgb(0%,0%,0%)" x1="482.7012871" x2="482.389916532" y1="254.487123682" y2="254.36123984" /><line stroke="rgb(0%,0%,0%)" x1="482.7012871" x2="482.868244648" y1="254.487123682" y2="254.639995375" /><line stroke="rgb(0%,0%,0%)" x1="495.340118307" x2="494.196152352" y1="263.902006487" y2="263.106548602" /><line stroke="rgb(0%,0%,0%)" x1="514.318929372" x2="513.30824335" y1="280.536426491" y2="278.645014017" /><line stroke="rgb(0%,0%,0%)" x1="513.30824335" x2="512.430852151" y1="278.645014017" y2="278.223173257" /><line stroke="rgb(0%,0%,0%)" x1="503.460302563" x2="512.430852151" y1="271.181922832" y2="278.223173257" /><line stroke="rgb(0%,0%,0%)" x1="520.397502904" x2="518.750877799" y1="285.860030178" y2="283.326124923" /><line stroke="rgb(0%,0%,0%)" x1="518.750877799" x2="517.055003426" y1="283.326124923" y2="282.65086396" /><line stroke="rgb(0%,0%,0%)" x1="514.318929372" x2="517.055003426" y1="280.536426491" y2="282.65086396" /><line stroke="rgb(0%,0%,0%)" x1="446.505866347" x2="444.643080645" y1="240.867989058" y2="241.007836719" /><line stroke="rgb(0%,0%,0%)" x1="462.942437996" x2="447.215388035" y1="243.416170738" y2="241.301276048" /><line stroke="rgb(0%,0%,0%)" x1="464.686350123" x2="468.409974729" y1="244.547305563" y2="246.745516038" /><line stroke="rgb(0%,0%,0%)" x1="473.493367335" x2="468.409974729" y1="248.766548971" y2="246.745516038" /><line stroke="rgb(0%,0%,0%)" x1="494.196152352" x2="492.813585417" y1="263.106548602" y2="261.188354973" /><line stroke="rgb(0%,0%,0%)" x1="492.813585417" x2="488.057952812" y1="261.188354973" y2="258.426284718" /><line stroke="rgb(0%,0%,0%)" x1="488.057952812" x2="487.483817553" y1="258.426284718" y2="257.967621635" /><line stroke="rgb(0%,0%,0%)" x1="487.483817553" x2="484.36915245" y1="257.967621635" y2="255.878217769" /><line stroke="rgb(0%,0%,0%)" x1="503.460302563" x2="501.992014898" y1="271.181922832" y2="269.564413802" /><line stroke="rgb(0%,0%,0%)" x1="501.992014898" x2="498.137220713" y1="269.564413802" y2="266.72107966" /><line stroke="rgb(0%,0%,0%)" x1="419.88203807" x2="420.352396312" y1="238.019245452" y2="238.197720743" /><line stroke="rgb(0%,0%,0%)" x1="419.88203807" x2="416.869056475" y1="238.019245452" y2="237.384779754" /><line stroke="rgb(0%,0%,0%)" x1="444.643080645" x2="441.243728508" y1="241.007836719" y2="241.546688917" /><line stroke="rgb(0%,0%,0%)" x1="482.389916532" x2="478.12709823" y1="254.36123984" y2="250.582247809" /><line stroke="rgb(0%,0%,0%)" x1="415.201541295" x2="413.346944746" y1="321.377046458" y2="320.891040131" /><line stroke="rgb(0%,0%,0%)" x1="415.578281977" x2="408.019305017" y1="320.078644243" y2="317.75656355" /><line stroke="rgb(0%,0%,0%)" x1="404.383772371" x2="408.019305017" y1="316.9476945" y2="317.75656355" /><line stroke="rgb(0%,0%,0%)" x1="416.869056475" x2="404.003398237" y1="237.384779754" y2="235.522473853" /><line stroke="rgb(0%,0%,0%)" x1="427.459179933" x2="429.481774352" y1="325.206836647" y2="326.439949422" /><line stroke="rgb(0%,0%,0%)" x1="422.747459173" x2="427.459179933" y1="322.82040745" y2="325.206836647" /><line stroke="rgb(0%,0%,0%)" x1="425.373235121" x2="428.291688146" y1="325.601237381" y2="326.83405766" /><line stroke="rgb(0%,0%,0%)" x1="425.373235121" x2="415.201541295" y1="325.601237381" y2="321.377046458" /><line stroke="rgb(0%,0%,0%)" x1="430.059709712" x2="422.55603657" y1="241.294962764" y2="238.742530428" /><line stroke="rgb(0%,0%,0%)" x1="420.352396312" x2="422.55603657" y1="238.197720743" y2="238.742530428" /><line stroke="rgb(0%,0%,0%)" x1="430.487572185" x2="428.291688146" y1="328.319617699" y2="326.83405766" /><line stroke="rgb(0%,0%,0%)" x1="429.481774352" x2="430.487572185" y1="326.439949422" y2="328.319617699" /><line stroke="rgb(0%,0%,0%)" x1="441.243728508" x2="430.059709712" y1="241.546688917" y2="241.294962764" /><line stroke="rgb(0%,0%,0%)" x1="478.12709823" x2="473.493367335" y1="250.582247809" y2="248.766548971" /><line stroke="rgb(0%,0%,0%)" x1="367.017282094" x2="361.233459562" y1="244.437117232" y2="244.60147425" /><line stroke="rgb(0%,0%,0%)" x1="380.942801707" x2="384.234564253" y1="313.433187497" y2="313.868653665" /><line stroke="rgb(0%,0%,0%)" x1="367.017282094" x2="371.857865436" y1="244.437117232" y2="244.736035919" /><line stroke="rgb(0%,0%,0%)" x1="377.404823141" x2="371.857865436" y1="244.508683178" y2="244.736035919" /><line stroke="rgb(0%,0%,0%)" x1="384.234564253" x2="395.595732889" y1="313.868653665" y2="315.712540131" /><line stroke="rgb(0%,0%,0%)" x1="378.787543537" x2="380.316806786" y1="245.122312449" y2="244.690624718" /><line stroke="rgb(0%,0%,0%)" x1="386.410179046" x2="380.316806786" y1="244.83263444" y2="244.690624718" /><line stroke="rgb(0%,0%,0%)" x1="378.787543537" x2="377.404823141" y1="245.122312449" y2="244.508683178" /><line stroke="rgb(0%,0%,0%)" x1="391.929965644" x2="386.410179046" y1="242.748239924" y2="244.83263444" /><line stroke="rgb(0%,0%,0%)" x1="397.843297341" x2="396.308595915" y1="237.118905072" y2="238.491549885" /><line stroke="rgb(0%,0%,0%)" x1="396.260614173" x2="404.051703058" y1="317.123251488" y2="318.530201295" /><line stroke="rgb(0%,0%,0%)" x1="396.260614173" x2="394.980629168" y1="317.123251488" y2="316.914989116" /><line stroke="rgb(0%,0%,0%)" x1="395.595732889" x2="404.383772371" y1="315.712540131" y2="316.9476945" /><line stroke="rgb(0%,0%,0%)" x1="396.308595915" x2="391.929965644" y1="238.491549885" y2="242.748239924" /><line stroke="rgb(0%,0%,0%)" x1="404.003398237" x2="399.466865501" y1="235.522473853" y2="236.762693032" /><line stroke="rgb(0%,0%,0%)" x1="397.843297341" x2="399.466865501" y1="237.118905072" y2="236.762693032" /><line stroke="rgb(0%,0%,0%)" x1="413.346944746" x2="404.051703058" y1="320.891040131" y2="318.530201295" /><line stroke="rgb(0%,0%,0%)" x1="417.757789438" x2="422.747459173" y1="320.611642868" y2="322.82040745" /><line stroke="rgb(0%,0%,0%)" x1="415.578281977" x2="417.757789438" y1="320.078644243" y2="320.611642868" /><line stroke="rgb(0%,0%,0%)" x1="350.010485471" x2="342.463249838" y1="316.017924744" y2="316.73761589" /><line stroke="rgb(0%,0%,0%)" x1="356.390221763" x2="355.42254538" y1="305.025946301" y2="304.549839618" /><line stroke="rgb(0%,0%,0%)" x1="355.42254538" x2="353.400535424" y1="304.549839618" y2="303.401742086" /><line stroke="rgb(0%,0%,0%)" x1="346.751137684" x2="338.622989245" y1="281.745272404" y2="286.031093751" /><line stroke="rgb(0%,0%,0%)" x1="345.200328217" x2="345.193901975" y1="262.145913327" y2="262.413176157" /><line stroke="rgb(0%,0%,0%)" x1="345.841089197" x2="345.193901975" y1="263.022751431" y2="262.413176157" /><line stroke="rgb(0%,0%,0%)" x1="345.574218789" x2="345.200328217" y1="261.526450133" y2="262.145913327" /><line stroke="rgb(0%,0%,0%)" x1="345.574218789" x2="345.96467948" y1="261.526450133" y2="261.035308167" /><line stroke="rgb(0%,0%,0%)" x1="350.010485471" x2="355.610725126" y1="316.017924744" y2="316.252482515" /><line stroke="rgb(0%,0%,0%)" x1="356.390221763" x2="357.79665971" y1="305.025946301" y2="305.42146588" /><line stroke="rgb(0%,0%,0%)" x1="350.542024336" x2="346.751137684" y1="279.250331812" y2="281.745272404" /><line stroke="rgb(0%,0%,0%)" x1="354.377890813" x2="350.542024336" y1="276.902429202" y2="279.250331812" /><line stroke="rgb(0%,0%,0%)" x1="355.187303989" x2="354.377890813" y1="276.40599762" y2="276.902429202" /><line stroke="rgb(0%,0%,0%)" x1="355.187303989" x2="355.206763754" y1="276.40599762" y2="275.305846546" /><line stroke="rgb(0%,0%,0%)" x1="345.841089197" x2="348.018834069" y1="263.022751431" y2="265.485576436" /><line stroke="rgb(0%,0%,0%)" x1="348.018834069" x2="353.409635699" y1="265.485576436" y2="272.457151219" /><line stroke="rgb(0%,0%,0%)" x1="353.409635699" x2="355.206763754" y1="272.457151219" y2="275.305846546" /><line stroke="rgb(0%,0%,0%)" x1="345.96467948" x2="346.341650597" y1="261.035308167" y2="260.398103762" /><line stroke="rgb(0%,0%,0%)" x1="351.043227462" x2="346.341650597" y1="251.979743022" y2="260.398103762" /><line stroke="rgb(0%,0%,0%)" x1="351.043227462" x2="353.802926207" y1="251.979743022" y2="249.672392795" /><line stroke="rgb(0%,0%,0%)" x1="361.233459562" x2="357.696336197" y1="244.60147425" y2="246.293564481" /><line stroke="rgb(0%,0%,0%)" x1="362.392467552" x2="355.610725126" y1="316.418610422" y2="316.252482515" /><line stroke="rgb(0%,0%,0%)" x1="359.609208177" x2="357.79665971" y1="305.990350853" y2="305.42146588" /><line stroke="rgb(0%,0%,0%)" x1="355.85512087" x2="353.802926207" y1="247.038542662" y2="249.672392795" /><line stroke="rgb(0%,0%,0%)" x1="357.696336197" x2="355.85512087" y1="246.293564481" y2="247.038542662" /><line stroke="rgb(0%,0%,0%)" x1="388.763464791" x2="362.392467552" y1="316.685571837" y2="316.418610422" /><line stroke="rgb(0%,0%,0%)" x1="359.609208177" x2="380.942801707" y1="305.990350853" y2="313.433187497" /><line stroke="rgb(0%,0%,0%)" x1="393.129304857" x2="391.438385449" y1="316.911201547" y2="316.867590272" /><line stroke="rgb(0%,0%,0%)" x1="391.438385449" x2="388.763464791" y1="316.867590272" y2="316.685571837" /><line stroke="rgb(0%,0%,0%)" x1="394.980629168" x2="393.129304857" y1="316.914989116" y2="316.911201547" /><line stroke="rgb(0%,0%,0%)" x1="317.921841609" x2="303.078973037" y1="318.174369093" y2="321.552872387" /><line stroke="rgb(0%,0%,0%)" x1="317.921841609" x2="332.010931862" y1="318.174369093" y2="316.871809634" /><line stroke="rgb(0%,0%,0%)" x1="338.594188029" x2="332.010931862" y1="316.779151465" y2="316.871809634" /><line stroke="rgb(0%,0%,0%)" x1="336.69792449" x2="338.166289332" y1="293.666184754" y2="294.510440092" /><line stroke="rgb(0%,0%,0%)" x1="336.606663536" x2="336.69792449" y1="293.479480486" y2="293.666184754" /><line stroke="rgb(0%,0%,0%)" x1="336.606663536" x2="336.610884444" y1="293.479480486" y2="293.293510502" /><line stroke="rgb(0%,0%,0%)" x1="335.09288683" x2="336.610884444" y1="291.795972629" y2="293.293510502" /><line stroke="rgb(0%,0%,0%)" x1="335.588185666" x2="334.343668953" y1="288.020933046" y2="289.040553567" /><line stroke="rgb(0%,0%,0%)" x1="342.463249838" x2="338.594188029" y1="316.73761589" y2="316.779151465" /><line stroke="rgb(0%,0%,0%)" x1="334.660145964" x2="335.09288683" y1="289.77396911" y2="291.795972629" /><line stroke="rgb(0%,0%,0%)" x1="334.660145964" x2="334.343668953" y1="289.77396911" y2="289.040553567" /><line stroke="rgb(0%,0%,0%)" x1="335.588185666" x2="337.040160427" y1="288.020933046" y2="286.898390503" /><line stroke="rgb(0%,0%,0%)" x1="342.137807037" x2="353.400535424" y1="297.389113307" y2="303.401742086" /><line stroke="rgb(0%,0%,0%)" x1="338.166289332" x2="342.137807037" y1="294.510440092" y2="297.389113307" /><line stroke="rgb(0%,0%,0%)" x1="337.355330829" x2="337.040160427" y1="286.567461334" y2="286.898390503" /><line stroke="rgb(0%,0%,0%)" x1="338.622989245" x2="337.355330829" y1="286.031093751" y2="286.567461334" /><line stroke="rgb(0%,0%,0%)" x1="278.106518447" x2="271.629583693" y1="327.181923826" y2="329.143726458" /><line stroke="rgb(0%,0%,0%)" x1="279.394808316" x2="278.106518447" y1="326.590308307" y2="327.181923826" /><line stroke="rgb(0%,0%,0%)" x1="279.394808316" x2="281.206102268" y1="326.590308307" y2="326.222856387" /><line stroke="rgb(0%,0%,0%)" x1="300.706292439" x2="302.069217614" y1="322.420125135" y2="321.752335964" /><line stroke="rgb(0%,0%,0%)" x1="296.814034675" x2="291.869352583" y1="322.775131663" y2="324.09161712" /><line stroke="rgb(0%,0%,0%)" x1="300.706292439" x2="296.814034675" y1="322.420125135" y2="322.775131663" /><line stroke="rgb(0%,0%,0%)" x1="303.078973037" x2="302.069217614" y1="321.552872387" y2="321.752335964" /><line stroke="rgb(0%,0%,0%)" x1="240.307761098" x2="237.419706084" y1="354.531205374" y2="357.906308255" /><line stroke="rgb(0%,0%,0%)" x1="240.307761098" x2="242.975078426" y1="354.531205374" y2="352.178023363" /><line stroke="rgb(0%,0%,0%)" x1="246.81834475" x2="254.204074832" y1="348.761009215" y2="341.978026338" /><line stroke="rgb(0%,0%,0%)" x1="259.210943575" x2="257.137095643" y1="337.36247901" y2="339.36406708" /><line stroke="rgb(0%,0%,0%)" x1="259.210943575" x2="260.286174033" y1="337.36247901" y2="336.32204852" /><line stroke="rgb(0%,0%,0%)" x1="261.870004036" x2="260.286174033" y1="334.491982649" y2="336.32204852" /><line stroke="rgb(0%,0%,0%)" x1="261.870004036" x2="269.035213328" y1="334.491982649" y2="330.290898286" /><line stroke="rgb(0%,0%,0%)" x1="269.194700891" x2="269.035213328" y1="330.135828678" y2="330.290898286" /><line stroke="rgb(0%,0%,0%)" x1="269.776188457" x2="269.194700891" y1="329.789167283" y2="330.135828678" /><line stroke="rgb(0%,0%,0%)" x1="271.629583693" x2="269.776188457" y1="329.143726458" y2="329.789167283" /><line stroke="rgb(0%,0%,0%)" x1="291.869352583" x2="281.206102268" y1="324.09161712" y2="326.222856387" /><line stroke="rgb(0%,0%,0%)" x1="192.403380273" x2="199.760050057" y1="385.431008203" y2="381.218184162" /><line stroke="rgb(0%,0%,0%)" x1="228.363457987" x2="227.247319294" y1="364.941672773" y2="365.544826416" /><line stroke="rgb(0%,0%,0%)" x1="237.419706084" x2="228.363457987" y1="357.906308255" y2="364.941672773" /><line stroke="rgb(0%,0%,0%)" x1="244.980701782" x2="242.975078426" y1="350.571621529" y2="352.178023363" /><line stroke="rgb(0%,0%,0%)" x1="246.81834475" x2="244.980701782" y1="348.761009215" y2="350.571621529" /><line stroke="rgb(0%,0%,0%)" x1="254.689129664" x2="254.204074832" y1="341.569378057" y2="341.978026338" /><line stroke="rgb(0%,0%,0%)" x1="254.846860981" x2="254.689129664" y1="341.299223303" y2="341.569378057" /><line stroke="rgb(0%,0%,0%)" x1="257.137095643" x2="254.846860981" y1="339.36406708" y2="341.299223303" /><line stroke="rgb(0%,0%,0%)" x1="184.558010406" x2="182.092186209" y1="393.815686192" y2="396.208974376" /><line stroke="rgb(0%,0%,0%)" x1="191.349805175" x2="188.114715058" y1="386.960878527" y2="389.571823953" /><line stroke="rgb(0%,0%,0%)" x1="188.114715058" x2="184.558010406" y1="389.571823953" y2="393.815686192" /><line stroke="rgb(0%,0%,0%)" x1="192.403380273" x2="191.349805175" y1="385.431008203" y2="386.960878527" /><line stroke="rgb(0%,0%,0%)" x1="213.940891694" x2="199.760050057" y1="372.536976915" y2="381.218184162" /><line stroke="rgb(0%,0%,0%)" x1="227.247319294" x2="213.940891694" y1="365.544826416" y2="372.536976915" /><line stroke="rgb(0%,0%,0%)" x1="156.812552878" x2="163.31074172" y1="411.967688533" y2="408.828671291" /><line stroke="rgb(0%,0%,0%)" x1="163.31074172" x2="166.81961279" y1="408.828671291" y2="407.24531989" /><line stroke="rgb(0%,0%,0%)" x1="173.764524108" x2="167.028119075" y1="403.025414938" y2="407.160100654" /><line stroke="rgb(0%,0%,0%)" x1="173.764524108" x2="176.758160152" y1="403.025414938" y2="400.615710361" /><line stroke="rgb(0%,0%,0%)" x1="182.092186209" x2="176.758160152" y1="396.208974376" y2="400.615710361" /><line stroke="rgb(0%,0%,0%)" x1="127.821450468" x2="137.954588684" y1="419.535358493" y2="418.157949493" /><line stroke="rgb(0%,0%,0%)" x1="146.785016199" x2="137.954588684" y1="414.858599222" y2="418.157949493" /><line stroke="rgb(0%,0%,0%)" x1="154.808892804" x2="146.785016199" y1="412.486484005" y2="414.858599222" /><line stroke="rgb(0%,0%,0%)" x1="156.812552878" x2="154.808892804" y1="411.967688533" y2="412.486484005" /><line stroke="rgb(0%,0%,0%)" x1="166.899204046" x2="166.81961279" y1="407.196483245" y2="407.24531989" /><line stroke="rgb(0%,0%,0%)" x1="167.028119075" x2="166.899204046" y1="407.160100654" y2="407.196483245" /><line stroke="rgb(0%,0%,0%)" x1="90.4383633185" x2="89.609699848" y1="434.706862088" y2="435.976261544" /><line stroke="rgb(0%,0%,0%)" x1="85.9247542183" x2="87.099324597" y1="444.906201064" y2="450.345363622" /><line stroke="rgb(0%,0%,0%)" x1="89.609699848" x2="85.9247542183" y1="435.976261544" y2="444.906201064" /><line stroke="rgb(0%,0%,0%)" x1="104.924032181" x2="90.4383633185" y1="427.129697478" y2="434.706862088" /><line stroke="rgb(0%,0%,0%)" x1="104.924032181" x2="121.045537012" y1="427.129697478" y2="420.958794385" /><line stroke="rgb(0%,0%,0%)" x1="126.385724216" x2="121.045537012" y1="419.701457638" y2="420.958794385" /><line stroke="rgb(0%,0%,0%)" x1="127.821450468" x2="126.385724216" y1="419.535358493" y2="419.701457638" /><line stroke="rgb(0%,0%,0%)" x1="613.102358074" x2="613.839800646" y1="495.548211196" y2="493.401949451" /><line stroke="rgb(0%,0%,0%)" x1="621.700367725" x2="621.493995995" y1="468.957343767" y2="470.060841864" /><line stroke="rgb(0%,0%,0%)" x1="613.102358074" x2="612.413805697" y1="495.548211196" y2="496.965403495" /><line stroke="rgb(0%,0%,0%)" x1="617.428903018" x2="618.624190264" y1="480.138044918" y2="478.001322935" /><line stroke="rgb(0%,0%,0%)" x1="621.700367725" x2="622.63980051" y1="468.957343767" y2="463.998470306" /><line stroke="rgb(0%,0%,0%)" x1="584.148129695" x2="582.552966729" y1="550.908147383" y2="554.536558263" /><line stroke="rgb(0%,0%,0%)" x1="584.148129695" x2="588.239670124" y1="550.908147383" y2="543.27274482" /><line stroke="rgb(0%,0%,0%)" x1="588.239670124" x2="589.686818571" y1="543.27274482" y2="539.264555889" /><line stroke="rgb(0%,0%,0%)" x1="590.890166021" x2="592.2707523" y1="537.612814995" y2="534.496903541" /><line stroke="rgb(0%,0%,0%)" x1="596.42412602" x2="597.693888514" y1="527.773931761" y2="525.060825187" /><line stroke="rgb(0%,0%,0%)" x1="597.693888514" x2="598.8509831" y1="525.060825187" y2="522.446595759" /><line stroke="rgb(0%,0%,0%)" x1="601.530072296" x2="599.873762091" y1="516.899353716" y2="520.368559326" /><line stroke="rgb(0%,0%,0%)" x1="601.530072296" x2="602.946964646" y1="516.899353716" y2="514.125274161" /><line stroke="rgb(0%,0%,0%)" x1="603.720330798" x2="602.946964646" y1="512.270170139" y2="514.125274161" /><line stroke="rgb(0%,0%,0%)" x1="608.563199265" x2="612.413805697" y1="504.921911206" y2="496.965403495" /><line stroke="rgb(0%,0%,0%)" x1="613.839800646" x2="615.411401919" y1="493.401949451" y2="487.904477048" /><line stroke="rgb(0%,0%,0%)" x1="615.411401919" x2="616.27262956" y1="487.904477048" y2="483.674049483" /><line stroke="rgb(0%,0%,0%)" x1="618.624190264" x2="621.493995995" y1="478.001322935" y2="470.060841864" /><line stroke="rgb(0%,0%,0%)" x1="569.481484653" x2="564.381480608" y1="576.313695583" y2="583.89766307" /><line stroke="rgb(0%,0%,0%)" x1="574.560678358" x2="578.77758147" y1="569.601023748" y2="563.110813193" /><line stroke="rgb(0%,0%,0%)" x1="569.481484653" x2="574.560678358" y1="576.313695583" y2="569.601023748" /><line stroke="rgb(0%,0%,0%)" x1="578.77758147" x2="582.552966729" y1="563.110813193" y2="554.536558263" /><line stroke="rgb(0%,0%,0%)" x1="589.686818571" x2="590.890166021" y1="539.264555889" y2="537.612814995" /><line stroke="rgb(0%,0%,0%)" x1="592.2707523" x2="593.24947876" y1="534.496903541" y2="532.540754488" /><line stroke="rgb(0%,0%,0%)" x1="593.24947876" x2="596.42412602" y1="532.540754488" y2="527.773931761" /><line stroke="rgb(0%,0%,0%)" x1="603.720330798" x2="605.39887973" y1="512.270170139" y2="509.511000062" /><line stroke="rgb(0%,0%,0%)" x1="605.39887973" x2="608.563199265" y1="509.511000062" y2="504.921911206" /><line stroke="rgb(0%,0%,0%)" x1="616.27262956" x2="617.428903018" y1="483.674049483" y2="480.138044918" /><line stroke="rgb(0%,0%,0%)" x1="622.63980051" x2="623.727904332" y1="463.998470306" y2="455.806904078" /><line stroke="rgb(0%,0%,0%)" x1="548.465997042" x2="545.422284695" y1="602.698719286" y2="605.935575212" /><line stroke="rgb(0%,0%,0%)" x1="553.897294603" x2="552.141980483" y1="593.361674734" y2="598.380939544" /><line stroke="rgb(0%,0%,0%)" x1="548.465997042" x2="552.141980483" y1="602.698719286" y2="598.380939544" /><line stroke="rgb(0%,0%,0%)" x1="553.897294603" x2="557.848545308" y1="593.361674734" y2="590.352253901" /><line stroke="rgb(0%,0%,0%)" x1="557.848545308" x2="560.788831302" y1="590.352253901" y2="586.994537092" /><line stroke="rgb(0%,0%,0%)" x1="560.788831302" x2="562.762340696" y1="586.994537092" y2="585.268884303" /><line stroke="rgb(0%,0%,0%)" x1="562.762340696" x2="564.381480608" y1="585.268884303" y2="583.89766307" /><line stroke="rgb(0%,0%,0%)" x1="598.8509831" x2="599.873762091" y1="522.446595759" y2="520.368559326" /><line stroke="rgb(0%,0%,0%)" x1="527.741285187" x2="522.731589017" y1="623.465335631" y2="629.955529671" /><line stroke="rgb(0%,0%,0%)" x1="527.741285187" x2="530.503010471" y1="623.465335631" y2="619.00682809" /><line stroke="rgb(0%,0%,0%)" x1="530.503010471" x2="537.147464579" y1="619.00682809" y2="611.967849699" /><line stroke="rgb(0%,0%,0%)" x1="537.147464579" x2="538.01634447" y1="611.967849699" y2="611.0897042" /><line stroke="rgb(0%,0%,0%)" x1="545.422284695" x2="538.129446915" y1="605.935575212" y2="610.926259631" /><line stroke="rgb(0%,0%,0%)" x1="538.045768209" x2="538.129446915" y1="611.041877307" y2="610.926259631" /><line stroke="rgb(0%,0%,0%)" x1="471.554247137" x2="471.00604484" y1="671.207212262" y2="671.409751078" /><line stroke="rgb(0%,0%,0%)" x1="471.554247137" x2="473.584403084" y1="671.207212262" y2="669.979188074" /><line stroke="rgb(0%,0%,0%)" x1="482.998609931" x2="482.539977732" y1="664.896742332" y2="665.115290442" /><line stroke="rgb(0%,0%,0%)" x1="482.998609931" x2="483.280948744" y1="664.896742332" y2="664.587040849" /><line stroke="rgb(0%,0%,0%)" x1="490.887257263" x2="487.203813444" y1="659.346767679" y2="661.779827277" /><line stroke="rgb(0%,0%,0%)" x1="490.887257263" x2="493.68958756" y1="659.346767679" y2="656.603729749" /><line stroke="rgb(0%,0%,0%)" x1="493.68958756" x2="497.490652644" y1="656.603729749" y2="653.904282161" /><line stroke="rgb(0%,0%,0%)" x1="497.490652644" x2="504.802153365" y1="653.904282161" y2="646.801926766" /><line stroke="rgb(0%,0%,0%)" x1="504.802153365" x2="504.974615408" y1="646.801926766" y2="646.666794518" /><line stroke="rgb(0%,0%,0%)" x1="505.120575521" x2="505.230924048" y1="646.578308174" y2="646.381938496" /><line stroke="rgb(0%,0%,0%)" x1="508.730810599" x2="505.230924048" y1="643.883020412" y2="646.381938496" /><line stroke="rgb(0%,0%,0%)" x1="508.730810599" x2="511.961956925" y1="643.883020412" y2="640.772575971" /><line stroke="rgb(0%,0%,0%)" x1="511.961956925" x2="517.062736253" y1="640.772575971" y2="635.898473028" /><line stroke="rgb(0%,0%,0%)" x1="517.062736253" x2="518.021067194" y1="635.898473028" y2="634.885197702" /><line stroke="rgb(0%,0%,0%)" x1="518.021067194" x2="521.501598532" y1="634.885197702" y2="630.88221129" /><line stroke="rgb(0%,0%,0%)" x1="521.501598532" x2="522.190526661" y1="630.88221129" y2="630.780663831" /><line stroke="rgb(0%,0%,0%)" x1="522.190526661" x2="522.731589017" y1="630.780663831" y2="629.955529671" /><line stroke="rgb(0%,0%,0%)" x1="538.01634447" x2="538.045768209" y1="611.0897042" y2="611.041877307" /><line stroke="rgb(0%,0%,0%)" x1="471.00604484" x2="465.528732446" y1="671.409751078" y2="672.739836431" /><line stroke="rgb(0%,0%,0%)" x1="456.02124607" x2="465.528732446" y1="674.632475129" y2="672.739836431" /><line stroke="rgb(0%,0%,0%)" x1="473.584403084" x2="479.598226099" y1="669.979188074" y2="667.94957412" /><line stroke="rgb(0%,0%,0%)" x1="479.598226099" x2="482.539977732" y1="667.94957412" y2="665.115290442" /><line stroke="rgb(0%,0%,0%)" x1="483.280948744" x2="485.505485715" y1="664.587040849" y2="663.199531517" /><line stroke="rgb(0%,0%,0%)" x1="485.505485715" x2="487.203813444" y1="663.199531517" y2="661.779827277" /><line stroke="rgb(0%,0%,0%)" x1="504.974615408" x2="505.120575521" y1="646.666794518" y2="646.578308174" /><line stroke="rgb(0%,0%,0%)" x1="412.664982443" x2="420.518357999" y1="673.733672543" y2="673.869762679" /><line stroke="rgb(0%,0%,0%)" x1="412.664982443" x2="409.022149356" y1="673.733672543" y2="673.680069438" /><line stroke="rgb(0%,0%,0%)" x1="421.082046913" x2="421.066296242" y1="592.773451553" y2="592.775019093" /><line stroke="rgb(0%,0%,0%)" x1="426.098550459" x2="427.577312847" y1="592.685575607" y2="591.937504936" /><line stroke="rgb(0%,0%,0%)" x1="421.082046913" x2="421.105666943" y1="592.773451553" y2="592.766044189" /><line stroke="rgb(0%,0%,0%)" x1="421.105666943" x2="421.120987749" y1="592.766044189" y2="592.758058549" /><line stroke="rgb(0%,0%,0%)" x1="432.199063756" x2="422.770806579" y1="671.297424609" y2="673.573646134" /><line stroke="rgb(0%,0%,0%)" x1="420.518357999" x2="422.770806579" y1="673.869762679" y2="673.573646134" /><line stroke="rgb(0%,0%,0%)" x1="433.725108664" x2="432.199063756" y1="671.341570709" y2="671.297424609" /><line stroke="rgb(0%,0%,0%)" x1="426.098550459" x2="418.08434438" y1="592.685575607" y2="596.275271925" /><line stroke="rgb(0%,0%,0%)" x1="427.577312847" x2="428.372736184" y1="591.937504936" y2="591.26382081" /><line stroke="rgb(0%,0%,0%)" x1="428.372736184" x2="431.017205568" y1="591.26382081" y2="589.653697665" /><line stroke="rgb(0%,0%,0%)" x1="432.600592034" x2="431.017205568" y1="588.191721337" y2="589.653697665" /><line stroke="rgb(0%,0%,0%)" x1="421.120987749" x2="421.440168542" y1="592.758058549" y2="592.582647902" /><line stroke="rgb(0%,0%,0%)" x1="421.440168542" x2="434.050897241" y1="592.582647902" y2="585.682562082" /><line stroke="rgb(0%,0%,0%)" x1="434.708020929" x2="434.882323308" y1="585.232876851" y2="585.079008421" /><line stroke="rgb(0%,0%,0%)" x1="434.050897241" x2="434.708020929" y1="585.682562082" y2="585.232876851" /><line stroke="rgb(0%,0%,0%)" x1="433.725108664" x2="438.964451558" y1="671.341570709" y2="673.272733717" /><line stroke="rgb(0%,0%,0%)" x1="438.964451558" x2="446.561357657" y1="673.272733717" y2="673.750072948" /><line stroke="rgb(0%,0%,0%)" x1="446.561357657" x2="453.004245411" y1="673.750072948" y2="674.384514823" /><line stroke="rgb(0%,0%,0%)" x1="433.826453353" x2="432.600592034" y1="587.24404605" y2="588.191721337" /><line stroke="rgb(0%,0%,0%)" x1="435.192916862" x2="435.093511661" y1="586.062420436" y2="585.120511841" /><line stroke="rgb(0%,0%,0%)" x1="435.157735506" x2="435.093511661" y1="584.912604642" y2="585.120511841" /><line stroke="rgb(0%,0%,0%)" x1="434.882323308" x2="435.157735506" y1="585.079008421" y2="584.912604642" /><line stroke="rgb(0%,0%,0%)" x1="453.004245411" x2="456.02124607" y1="674.384514823" y2="674.632475129" /><line stroke="rgb(0%,0%,0%)" x1="386.42598675" x2="383.803391217" y1="669.169733525" y2="669.420964797" /><line stroke="rgb(0%,0%,0%)" x1="376.549213902" x2="380.343207364" y1="605.69228975" y2="604.59023033" /><line stroke="rgb(0%,0%,0%)" x1="380.112365573" x2="374.819401881" y1="598.586533774" y2="597.990912923" /><line stroke="rgb(0%,0%,0%)" x1="387.746964834" x2="386.42598675" y1="669.97204975" y2="669.169733525" /><line stroke="rgb(0%,0%,0%)" x1="387.746964834" x2="392.394577586" y1="669.97204975" y2="669.242570631" /><line stroke="rgb(0%,0%,0%)" x1="392.394577586" x2="393.99887192" y1="669.242570631" y2="669.128736841" /><line stroke="rgb(0%,0%,0%)" x1="399.152650157" x2="395.65922916" y1="671.594792262" y2="669.473744292" /><line stroke="rgb(0%,0%,0%)" x1="393.99887192" x2="394.320737864" y1="669.128736841" y2="669.200048329" /><line stroke="rgb(0%,0%,0%)" x1="394.320737864" x2="395.65922916" y1="669.200048329" y2="669.473744292" /><line stroke="rgb(0%,0%,0%)" x1="380.343207364" x2="387.558282948" y1="604.59023033" y2="603.416274536" /><line stroke="rgb(0%,0%,0%)" x1="389.906359951" x2="387.558282948" y1="602.673786218" y2="603.416274536" /><line stroke="rgb(0%,0%,0%)" x1="389.906359951" x2="409.950382666" y1="602.673786218" y2="598.2845788" /><line stroke="rgb(0%,0%,0%)" x1="380.112365573" x2="394.266279288" y1="598.586533774" y2="597.616486316" /><line stroke="rgb(0%,0%,0%)" x1="394.266279288" x2="401.143931285" y1="597.616486316" y2="597.413514071" /><line stroke="rgb(0%,0%,0%)" x1="405.08594511" x2="409.022149356" y1="673.21627794" y2="673.680069438" /><line stroke="rgb(0%,0%,0%)" x1="399.152650157" x2="405.08594511" y1="671.594792262" y2="673.21627794" /><line stroke="rgb(0%,0%,0%)" x1="410.150110637" x2="409.950382666" y1="598.216738532" y2="598.2845788" /><line stroke="rgb(0%,0%,0%)" x1="409.04830171" x2="401.143931285" y1="595.69685908" y2="597.413514071" /><line stroke="rgb(0%,0%,0%)" x1="409.04830171" x2="410.640859832" y1="595.69685908" y2="595.552370029" /><line stroke="rgb(0%,0%,0%)" x1="410.811419974" x2="410.31795636" y1="597.985071156" y2="598.153495314" /><line stroke="rgb(0%,0%,0%)" x1="418.08434438" x2="410.811419974" y1="596.275271925" y2="597.985071156" /><line stroke="rgb(0%,0%,0%)" x1="410.31795636" x2="410.150110637" y1="598.153495314" y2="598.216738532" /><line stroke="rgb(0%,0%,0%)" x1="410.640859832" x2="421.066296242" y1="595.552370029" y2="592.775019093" /><line stroke="rgb(0%,0%,0%)" x1="435.192916862" x2="433.826453353" y1="586.062420436" y2="587.24404605" /><line stroke="rgb(0%,0%,0%)" x1="346.497935526" x2="345.074785116" y1="628.722414621" y2="627.624469543" /><line stroke="rgb(0%,0%,0%)" x1="343.959249183" x2="343.630127994" y1="623.832183546" y2="622.520889388" /><line stroke="rgb(0%,0%,0%)" x1="347.888012933" x2="346.183341482" y1="618.775854201" y2="620.039302429" /><line stroke="rgb(0%,0%,0%)" x1="358.524174854" x2="357.365373854" y1="647.316815597" y2="650.187320731" /><line stroke="rgb(0%,0%,0%)" x1="356.747605145" x2="351.242900112" y1="634.079517381" y2="630.985913604" /><line stroke="rgb(0%,0%,0%)" x1="351.042847304" x2="351.242900112" y1="630.910069074" y2="630.985913604" /><line stroke="rgb(0%,0%,0%)" x1="346.497935526" x2="350.78597222" y1="628.722414621" y2="630.793851163" /><line stroke="rgb(0%,0%,0%)" x1="344.259011984" x2="345.074785116" y1="626.592875981" y2="627.624469543" /><line stroke="rgb(0%,0%,0%)" x1="346.007326802" x2="346.183341482" y1="620.358017456" y2="620.039302429" /><line stroke="rgb(0%,0%,0%)" x1="347.888012933" x2="350.118628592" y1="618.775854201" y2="617.805396655" /><line stroke="rgb(0%,0%,0%)" x1="352.255102683" x2="350.118628592" y1="616.047283114" y2="617.805396655" /><line stroke="rgb(0%,0%,0%)" x1="354.155344144" x2="352.255102683" y1="615.185222352" y2="616.047283114" /><line stroke="rgb(0%,0%,0%)" x1="355.488498239" x2="354.155344144" y1="614.300098019" y2="615.185222352" /><line stroke="rgb(0%,0%,0%)" x1="364.458530737" x2="350.335652577" y1="597.894861562" y2="596.396296128" /><line stroke="rgb(0%,0%,0%)" x1="364.675686282" x2="367.818269922" y1="664.115643659" y2="666.21293654" /><line stroke="rgb(0%,0%,0%)" x1="364.675686282" x2="361.178364609" y1="664.115643659" y2="661.101168846" /><line stroke="rgb(0%,0%,0%)" x1="357.976901891" x2="360.150226974" y1="653.42629333" y2="659.847416224" /><line stroke="rgb(0%,0%,0%)" x1="357.365373854" x2="357.976901891" y1="650.187320731" y2="653.42629333" /><line stroke="rgb(0%,0%,0%)" x1="363.357905878" x2="360.403904296" y1="640.729500024" y2="645.060928174" /><line stroke="rgb(0%,0%,0%)" x1="358.524174854" x2="360.403904296" y1="647.316815597" y2="645.060928174" /><line stroke="rgb(0%,0%,0%)" x1="356.747605145" x2="360.247742399" y1="634.079517381" y2="636.102644376" /><line stroke="rgb(0%,0%,0%)" x1="362.270709592" x2="363.864608102" y1="637.383804217" y2="637.836698147" /><line stroke="rgb(0%,0%,0%)" x1="360.247742399" x2="362.270709592" y1="636.102644376" y2="637.383804217" /><line stroke="rgb(0%,0%,0%)" x1="360.801720343" x2="355.488498239" y1="611.387308911" y2="614.300098019" /><line stroke="rgb(0%,0%,0%)" x1="364.298054125" x2="360.801720343" y1="609.666821605" y2="611.387308911" /><line stroke="rgb(0%,0%,0%)" x1="364.298054125" x2="369.971949836" y1="609.666821605" y2="607.696371056" /><line stroke="rgb(0%,0%,0%)" x1="364.458530737" x2="374.819401881" y1="597.894861562" y2="597.990912923" /><line stroke="rgb(0%,0%,0%)" x1="379.756529615" x2="383.803391217" y1="669.161860483" y2="669.420964797" /><line stroke="rgb(0%,0%,0%)" x1="367.818269922" x2="376.548640903" y1="666.21293654" y2="668.1897583" /><line stroke="rgb(0%,0%,0%)" x1="376.548640903" x2="379.756529615" y1="668.1897583" y2="669.161860483" /><line stroke="rgb(0%,0%,0%)" x1="360.150226974" x2="361.178364609" y1="659.847416224" y2="661.101168846" /><line stroke="rgb(0%,0%,0%)" x1="365.265420727" x2="363.357905878" y1="638.972511016" y2="640.729500024" /><line stroke="rgb(0%,0%,0%)" x1="363.864608102" x2="365.265420727" y1="637.836698147" y2="638.972511016" /><line stroke="rgb(0%,0%,0%)" x1="376.549213902" x2="369.971949836" y1="605.69228975" y2="607.696371056" /><line stroke="rgb(0%,0%,0%)" x1="300.451746098" x2="305.782599668" y1="588.380297918" y2="589.895573209" /><line stroke="rgb(0%,0%,0%)" x1="300.451746098" x2="294.747432438" y1="588.380297918" y2="587.138478262" /><line stroke="rgb(0%,0%,0%)" x1="310.678343267" x2="329.233107848" y1="590.558821845" y2="594.419775266" /><line stroke="rgb(0%,0%,0%)" x1="309.278599838" x2="310.678343267" y1="590.424156324" y2="590.558821845" /><line stroke="rgb(0%,0%,0%)" x1="329.233107848" x2="332.820927935" y1="594.419775266" y2="594.7337747" /><line stroke="rgb(0%,0%,0%)" x1="345.819197808" x2="332.820927935" y1="596.78988306" y2="594.7337747" /><line stroke="rgb(0%,0%,0%)" x1="350.78597222" x2="351.042847304" y1="630.793851163" y2="630.910069074" /><line stroke="rgb(0%,0%,0%)" x1="344.406685397" x2="344.259011984" y1="625.945162733" y2="626.592875981" /><line stroke="rgb(0%,0%,0%)" x1="343.959249183" x2="344.406685397" y1="623.832183546" y2="625.945162733" /><line stroke="rgb(0%,0%,0%)" x1="346.007326802" x2="343.630127994" y1="620.358017456" y2="622.520889388" /><line stroke="rgb(0%,0%,0%)" x1="345.819197808" x2="350.335652577" y1="596.78988306" y2="596.396296128" /><line stroke="rgb(0%,0%,0%)" x1="268.801360077" x2="266.519504208" y1="580.526034549" y2="579.667252518" /><line stroke="rgb(0%,0%,0%)" x1="282.322996642" x2="286.430696736" y1="585.455817955" y2="585.868934251" /><line stroke="rgb(0%,0%,0%)" x1="276.507963264" x2="282.322996642" y1="584.342817866" y2="585.455817955" /><line stroke="rgb(0%,0%,0%)" x1="268.801360077" x2="276.507963264" y1="580.526034549" y2="584.342817866" /><line stroke="rgb(0%,0%,0%)" x1="292.443755817" x2="294.747432438" y1="586.63271079" y2="587.138478262" /><line stroke="rgb(0%,0%,0%)" x1="286.430696736" x2="292.443755817" y1="585.868934251" y2="586.63271079" /><line stroke="rgb(0%,0%,0%)" x1="305.782599668" x2="309.278599838" y1="589.895573209" y2="590.424156324" /><line stroke="rgb(0%,0%,0%)" x1="216.777819201" x2="227.240516327" y1="544.091433668" y2="550.179192225" /><line stroke="rgb(0%,0%,0%)" x1="247.881374239" x2="246.555238608" y1="567.597793896" y2="566.487853823" /><line stroke="rgb(0%,0%,0%)" x1="242.440444748" x2="246.555238608" y1="562.238471318" y2="566.487853823" /><line stroke="rgb(0%,0%,0%)" x1="239.805029091" x2="242.440444748" y1="559.986792104" y2="562.238471318" /><line stroke="rgb(0%,0%,0%)" x1="239.805029091" x2="232.959374732" y1="559.986792104" y2="553.549061343" /><line stroke="rgb(0%,0%,0%)" x1="261.765485895" x2="266.519504208" y1="577.761071728" y2="579.667252518" /><line stroke="rgb(0%,0%,0%)" x1="256.161783365" x2="261.765485895" y1="573.773607623" y2="577.761071728" /><line stroke="rgb(0%,0%,0%)" x1="255.703221726" x2="256.161783365" y1="573.006994943" y2="573.773607623" /><line stroke="rgb(0%,0%,0%)" x1="254.148363059" x2="255.703221726" y1="572.261175023" y2="573.006994943" /><line stroke="rgb(0%,0%,0%)" x1="250.802055943" x2="254.148363059" y1="569.952724142" y2="572.261175023" /><line stroke="rgb(0%,0%,0%)" x1="247.881374239" x2="250.802055943" y1="567.597793896" y2="569.952724142" /><line stroke="rgb(0%,0%,0%)" x1="178.882355474" x2="183.054589847" y1="510.262819532" y2="512.971784865" /><line stroke="rgb(0%,0%,0%)" x1="176.600804769" x2="178.882355474" y1="508.680711159" y2="510.262819532" /><line stroke="rgb(0%,0%,0%)" x1="170.380265075" x2="168.182377652" y1="504.347377365" y2="502.55865472" /><line stroke="rgb(0%,0%,0%)" x1="199.953314646" x2="200.890940009" y1="530.565128635" y2="531.367060163" /><line stroke="rgb(0%,0%,0%)" x1="192.671347682" x2="194.544629774" y1="523.303654378" y2="525.624340971" /><line stroke="rgb(0%,0%,0%)" x1="191.545701475" x2="192.671347682" y1="522.126038569" y2="523.303654378" /><line stroke="rgb(0%,0%,0%)" x1="191.545701475" x2="190.714549631" y1="522.126038569" y2="521.104104497" /><line stroke="rgb(0%,0%,0%)" x1="227.240516327" x2="231.09814389" y1="550.179192225" y2="552.609644549" /><line stroke="rgb(0%,0%,0%)" x1="211.292548927" x2="216.777819201" y1="539.81982573" y2="544.091433668" /><line stroke="rgb(0%,0%,0%)" x1="211.292548927" x2="200.890940009" y1="539.81982573" y2="531.367060163" /><line stroke="rgb(0%,0%,0%)" x1="231.09814389" x2="232.959374732" y1="552.609644549" y2="553.549061343" /><line stroke="rgb(0%,0%,0%)" x1="150.102215846" x2="147.482261325" y1="496.099839717" y2="495.590615106" /><line stroke="rgb(0%,0%,0%)" x1="153.311392185" x2="168.182377652" y1="497.437935444" y2="502.55865472" /><line stroke="rgb(0%,0%,0%)" x1="150.102215846" x2="153.311392185" y1="496.099839717" y2="497.437935444" /><line stroke="rgb(0%,0%,0%)" x1="189.244109253" x2="186.141992033" y1="520.353380307" y2="515.710991347" /><line stroke="rgb(0%,0%,0%)" x1="184.313056078" x2="186.141992033" y1="513.727181283" y2="515.710991347" /><line stroke="rgb(0%,0%,0%)" x1="183.054589847" x2="184.313056078" y1="512.971784865" y2="513.727181283" /><line stroke="rgb(0%,0%,0%)" x1="170.380265075" x2="176.600804769" y1="504.347377365" y2="508.680711159" /><line stroke="rgb(0%,0%,0%)" x1="195.539533939" x2="196.424666726" y1="527.116048906" y2="528.209137131" /><line stroke="rgb(0%,0%,0%)" x1="196.424666726" x2="199.953314646" y1="528.209137131" y2="530.565128635" /><line stroke="rgb(0%,0%,0%)" x1="194.544629774" x2="195.539533939" y1="525.624340971" y2="527.116048906" /><line stroke="rgb(0%,0%,0%)" x1="189.244109253" x2="190.714549631" y1="520.353380307" y2="521.104104497" /><line stroke="rgb(0%,0%,0%)" x1="147.482261325" x2="139.790007442" y1="495.590615106" y2="495.129395741" /><line stroke="rgb(0%,0%,0%)" x1="83.1022964543" x2="84.6476060232" y1="465.469164245" y2="462.469839116" /><line stroke="rgb(0%,0%,0%)" x1="88.7714823952" x2="84.6476060232" y1="458.36666412" y2="462.469839116" /><line stroke="rgb(0%,0%,0%)" x1="90.036476173" x2="96.9008483698" y1="484.425443969" y2="488.497727887" /><line stroke="rgb(0%,0%,0%)" x1="96.9008483698" x2="101.544991584" y1="488.497727887" y2="490.570007259" /><line stroke="rgb(0%,0%,0%)" x1="84.9148031556" x2="90.036476173" y1="477.617323196" y2="484.425443969" /><line stroke="rgb(0%,0%,0%)" x1="84.9148031556" x2="83.5939682796" y1="477.617323196" y2="474.510219689" /><line stroke="rgb(0%,0%,0%)" x1="88.7714823952" x2="92.1815674219" y1="458.36666412" y2="456.578680741" /><line stroke="rgb(0%,0%,0%)" x1="101.544991584" x2="108.130607322" y1="490.570007259" y2="492.29758105" /><line stroke="rgb(0%,0%,0%)" x1="118.040811424" x2="123.806301238" y1="493.428036442" y2="493.797983327" /><line stroke="rgb(0%,0%,0%)" x1="108.130607322" x2="118.040811424" y1="492.29758105" y2="493.428036442" /><line stroke="rgb(0%,0%,0%)" x1="123.806301238" x2="139.790007442" y1="493.797983327" y2="495.129395741" /><line stroke="rgb(0%,0%,0%)" x1="82.5653271263" x2="83.5939682796" y1="469.001777669" y2="474.510219689" /><line stroke="rgb(0%,0%,0%)" x1="83.1022964543" x2="82.5653271263" y1="465.469164245" y2="469.001777669" /><line stroke="rgb(0%,0%,0%)" x1="87.099324597" x2="88.9969373314" y1="450.345363622" y2="452.406978593" /><line stroke="rgb(0%,0%,0%)" x1="88.9969373314" x2="92.1815674219" y1="452.406978593" y2="456.578680741" /></svg>