<?xml version="1.0" encoding="utf-8" ?>
<svg baseProfile="full" height="100%" version="1.1" viewBox="0.5 0.5 685.793960571 941.299331665" width="100%" xmlns="http://www.w3.org/2000/svg" xmlns:ev="http://www.w3.org/2001/xml-events" xmlns:xlink="http://www.w3.org/1999/xlink"><defs /><line stroke="rgb(0%,0%,0%)" x1="608.673968258" x2="608.380362835" y1="406.302984682" y2="404.465288545" /><line stroke="rgb(0%,0%,0%)" x1="557.190730481" x2="550.103752832" y1="326.945653256" y2="318.241293067" /><line stroke="rgb(0%,0%,0%)" x1="597.041227033" x2="597.496317257" y1="380.517253189" y2="381.405656353" /><line stroke="rgb(0%,0%,0%)" x1="589.461654067" x2="592.018221778" y1="371.114803577" y2="374.382344256" /><line stroke="rgb(0%,0%,0%)" x1="618.445896284" x2="618.542566805" y1="434.576424255" y2="434.914969734" /><line stroke="rgb(0%,0%,0%)" x1="618.445896284" x2="616.880041708" y1="434.576424255" y2="427.394125999" /><line stroke="rgb(0%,0%,0%)" x1="616.880041708" x2="616.643198932" y1="427.394125999" y2="426.59903369" /><line stroke="rgb(0%,0%,0%)" x1="613.807666338" x2="613.414225399" y1="418.05208466" y2="416.596256173" /><line stroke="rgb(0%,0%,0%)" x1="608.673968258" x2="609.220473568" y1="406.302984682" y2="407.114431514" /><line stroke="rgb(0%,0%,0%)" x1="604.33245865" x2="605.19126157" y1="394.524401215" y2="395.96641277" /><line stroke="rgb(0%,0%,0%)" x1="569.965014226" x2="560.913442704" y1="342.494452873" y2="330.954336777" /><line stroke="rgb(0%,0%,0%)" x1="569.965014226" x2="572.167172785" y1="342.494452873" y2="346.11181662" /><line stroke="rgb(0%,0%,0%)" x1="597.041227033" x2="592.018221778" y1="380.517253189" y2="374.382344256" /><line stroke="rgb(0%,0%,0%)" x1="589.461654067" x2="585.199563526" y1="371.114803577" y2="366.783595698" /><line stroke="rgb(0%,0%,0%)" x1="585.199563526" x2="582.051931486" y1="366.783595698" y2="361.494048405" /><line stroke="rgb(0%,0%,0%)" x1="605.480304235" x2="605.19126157" y1="398.269750709" y2="395.96641277" /><line stroke="rgb(0%,0%,0%)" x1="604.33245865" x2="603.935125275" y1="394.524401215" y2="392.942238076" /><line stroke="rgb(0%,0%,0%)" x1="603.935125275" x2="602.391932478" y1="392.942238076" y2="391.023820196" /><line stroke="rgb(0%,0%,0%)" x1="602.391932478" x2="597.496317257" y1="391.023820196" y2="381.405656353" /><line stroke="rgb(0%,0%,0%)" x1="619.414568793" x2="620.009812665" y1="445.503673676" y2="453.21137712" /><line stroke="rgb(0%,0%,0%)" x1="619.414568793" x2="618.542566805" y1="445.503673676" y2="434.914969734" /><line stroke="rgb(0%,0%,0%)" x1="560.913442704" x2="560.264707021" y1="330.954336777" y2="330.255181777" /><line stroke="rgb(0%,0%,0%)" x1="557.190730481" x2="560.264707021" y1="326.945653256" y2="330.255181777" /><line stroke="rgb(0%,0%,0%)" x1="582.051931486" x2="580.529882747" y1="361.494048405" y2="360.424608851" /><line stroke="rgb(0%,0%,0%)" x1="580.529882747" x2="579.386148106" y1="360.424608851" y2="358.549334005" /><line stroke="rgb(0%,0%,0%)" x1="578.706695047" x2="575.087372313" y1="356.592455678" y2="349.766119256" /><line stroke="rgb(0%,0%,0%)" x1="607.514417873" x2="605.480304235" y1="402.385603578" y2="398.269750709" /><line stroke="rgb(0%,0%,0%)" x1="616.643198932" x2="613.807666338" y1="426.59903369" y2="418.05208466" /><line stroke="rgb(0%,0%,0%)" x1="613.414225399" x2="609.220473568" y1="416.596256173" y2="407.114431514" /><line stroke="rgb(0%,0%,0%)" x1="550.103752832" x2="544.752763336" y1="318.241293067" y2="314.819602627" /><line stroke="rgb(0%,0%,0%)" x1="544.752763336" x2="543.466530767" y1="314.819602627" y2="314.370207484" /><line stroke="rgb(0%,0%,0%)" x1="575.087372313" x2="572.167172785" y1="349.766119256" y2="346.11181662" /><line stroke="rgb(0%,0%,0%)" x1="579.386148106" x2="578.706695047" y1="358.549334005" y2="356.592455678" /><line stroke="rgb(0%,0%,0%)" x1="608.380362835" x2="607.514417873" y1="404.465288545" y2="402.385603578" /><line stroke="rgb(0%,0%,0%)" x1="619.549560745" x2="620.009812665" y1="456.152916112" y2="453.21137712" /><line stroke="rgb(0%,0%,0%)" x1="508.381642626" x2="509.038185993" y1="278.301971396" y2="279.530636172" /><line stroke="rgb(0%,0%,0%)" x1="511.453009335" x2="509.038185993" y1="281.858322477" y2="279.530636172" /><line stroke="rgb(0%,0%,0%)" x1="508.381642626" x2="503.97771474" y1="278.301971396" y2="276.184607686" /><line stroke="rgb(0%,0%,0%)" x1="502.655973847" x2="503.97771474" y1="275.147134058" y2="276.184607686" /><line stroke="rgb(0%,0%,0%)" x1="515.464776104" x2="516.486167227" y1="284.93218142" y2="286.5039468" /><line stroke="rgb(0%,0%,0%)" x1="515.464776104" x2="513.905433599" y1="284.93218142" y2="284.311284532" /><line stroke="rgb(0%,0%,0%)" x1="537.70222828" x2="536.301922238" y1="309.019317625" y2="306.030828667" /><line stroke="rgb(0%,0%,0%)" x1="536.301922238" x2="532.715583727" y1="306.030828667" y2="303.790510805" /><line stroke="rgb(0%,0%,0%)" x1="532.715583727" x2="532.449129243" y1="303.790510805" y2="303.522103124" /><line stroke="rgb(0%,0%,0%)" x1="524.194037749" x2="528.806525923" y1="294.149269044" y2="299.482168162" /><line stroke="rgb(0%,0%,0%)" x1="532.449129243" x2="528.806525923" y1="303.522103124" y2="299.482168162" /><line stroke="rgb(0%,0%,0%)" x1="524.194037749" x2="522.05695405" y1="294.149269044" y2="291.789656661" /><line stroke="rgb(0%,0%,0%)" x1="543.466530767" x2="539.740833752" y1="314.370207484" y2="310.287617544" /><line stroke="rgb(0%,0%,0%)" x1="537.70222828" x2="539.740833752" y1="309.019317625" y2="310.287617544" /><line stroke="rgb(0%,0%,0%)" x1="465.395682281" x2="459.586459629" y1="248.236694452" y2="245.927089193" /><line stroke="rgb(0%,0%,0%)" x1="483.93664275" x2="487.477144545" y1="258.248887395" y2="261.077310566" /><line stroke="rgb(0%,0%,0%)" x1="483.93664275" x2="480.219291313" y1="258.248887395" y2="255.755184797" /><line stroke="rgb(0%,0%,0%)" x1="502.655973847" x2="497.69008331" y1="275.147134058" y2="269.676562468" /><line stroke="rgb(0%,0%,0%)" x1="497.69008331" x2="493.595940289" y1="269.676562468" y2="266.656682269" /><line stroke="rgb(0%,0%,0%)" x1="493.595940289" x2="491.1385096" y1="266.656682269" y2="264.299625153" /><line stroke="rgb(0%,0%,0%)" x1="522.05695405" x2="518.805398947" y1="291.789656661" y2="287.78296646" /><line stroke="rgb(0%,0%,0%)" x1="518.805398947" x2="516.486167227" y1="287.78296646" y2="286.5039468" /><line stroke="rgb(0%,0%,0%)" x1="513.905433599" x2="512.874323002" y1="284.311284532" y2="282.81509804" /><line stroke="rgb(0%,0%,0%)" x1="512.874323002" x2="511.453009335" y1="282.81509804" y2="281.858322477" /><line stroke="rgb(0%,0%,0%)" x1="444.187373222" x2="457.578867642" y1="243.138993766" y2="245.48584137" /><line stroke="rgb(0%,0%,0%)" x1="473.73402824" x2="477.378864078" y1="251.504023826" y2="254.73517388" /><line stroke="rgb(0%,0%,0%)" x1="491.1385096" x2="487.697345783" y1="264.299625153" y2="261.221750246" /><line stroke="rgb(0%,0%,0%)" x1="487.697345783" x2="487.575719848" y1="261.221750246" y2="261.166809466" /><line stroke="rgb(0%,0%,0%)" x1="487.575719848" x2="487.477144545" y1="261.166809466" y2="261.077310566" /><line stroke="rgb(0%,0%,0%)" x1="480.219291313" x2="477.378864078" y1="255.755184797" y2="254.73517388" /><line stroke="rgb(0%,0%,0%)" x1="412.775773177" x2="408.646144359" y1="318.012451619" y2="316.743849875" /><line stroke="rgb(0%,0%,0%)" x1="401.312938683" x2="408.646144359" y1="315.112286172" y2="316.743849875" /><line stroke="rgb(0%,0%,0%)" x1="430.580659626" x2="428.319382634" y1="328.28160839" y2="326.926156806" /><line stroke="rgb(0%,0%,0%)" x1="418.23021013" x2="428.319382634" y1="322.186535464" y2="326.926156806" /><line stroke="rgb(0%,0%,0%)" x1="424.919909109" x2="418.908554098" y1="240.517996344" y2="239.412431103" /><line stroke="rgb(0%,0%,0%)" x1="428.771218611" x2="424.919909109" y1="241.828048998" y2="240.517996344" /><line stroke="rgb(0%,0%,0%)" x1="418.908554098" x2="410.955006283" y1="239.412431103" y2="238.203021033" /><line stroke="rgb(0%,0%,0%)" x1="432.90456034" x2="431.408384976" y1="329.935954432" y2="328.815318035" /><line stroke="rgb(0%,0%,0%)" x1="434.695798041" x2="432.90456034" y1="330.877637403" y2="329.935954432" /><line stroke="rgb(0%,0%,0%)" x1="438.038771182" x2="434.695798041" y1="333.139226458" y2="330.877637403" /><line stroke="rgb(0%,0%,0%)" x1="431.408384976" x2="430.580659626" y1="328.815318035" y2="328.28160839" /><line stroke="rgb(0%,0%,0%)" x1="438.038771182" x2="437.022397241" y1="333.139226458" y2="331.239793199" /><line stroke="rgb(0%,0%,0%)" x1="432.145725841" x2="426.846644285" y1="326.32481686" y2="323.403926471" /><line stroke="rgb(0%,0%,0%)" x1="444.187373222" x2="435.145213582" y1="243.138993766" y2="241.971512743" /><line stroke="rgb(0%,0%,0%)" x1="428.771218611" x2="435.145213582" y1="241.828048998" y2="241.971512743" /><line stroke="rgb(0%,0%,0%)" x1="435.333516749" x2="437.022397241" y1="328.740162548" y2="331.239793199" /><line stroke="rgb(0%,0%,0%)" x1="432.145725841" x2="435.333516749" y1="326.32481686" y2="328.740162548" /><line stroke="rgb(0%,0%,0%)" x1="459.586459629" x2="457.578867642" y1="245.927089193" y2="245.48584137" /><line stroke="rgb(0%,0%,0%)" x1="473.73402824" x2="465.395682281" y1="251.504023826" y2="248.236694452" /><line stroke="rgb(0%,0%,0%)" x1="375.106501575" x2="368.34557276" y1="244.772032164" y2="245.049141848" /><line stroke="rgb(0%,0%,0%)" x1="399.518378546" x2="395.976730903" y1="314.86006168" y2="314.285261995" /><line stroke="rgb(0%,0%,0%)" x1="383.040052128" x2="395.976730903" y1="311.184747874" y2="314.285261995" /><line stroke="rgb(0%,0%,0%)" x1="377.824332821" x2="375.694471638" y1="244.892219133" y2="245.032963906" /><line stroke="rgb(0%,0%,0%)" x1="375.106501575" x2="375.694471638" y1="244.772032164" y2="245.032963906" /><line stroke="rgb(0%,0%,0%)" x1="384.579979434" x2="387.12977623" y1="245.282345964" y2="244.586402773" /><line stroke="rgb(0%,0%,0%)" x1="384.579979434" x2="377.824332821" y1="245.282345964" y2="244.892219133" /><line stroke="rgb(0%,0%,0%)" x1="396.683678332" x2="399.724385481" y1="317.060527835" y2="317.555271823" /><line stroke="rgb(0%,0%,0%)" x1="399.518378546" x2="401.312938683" y1="314.86006168" y2="315.112286172" /><line stroke="rgb(0%,0%,0%)" x1="400.076847736" x2="395.446175175" y1="243.425663356" y2="244.351228995" /><line stroke="rgb(0%,0%,0%)" x1="392.038971114" x2="395.446175175" y1="245.307406197" y2="244.351228995" /><line stroke="rgb(0%,0%,0%)" x1="392.038971114" x2="387.12977623" y1="245.307406197" y2="244.586402773" /><line stroke="rgb(0%,0%,0%)" x1="406.453093703" x2="401.955249905" y1="239.069369369" y2="242.083850823" /><line stroke="rgb(0%,0%,0%)" x1="418.23021013" x2="412.243165623" y1="322.186535464" y2="320.240903585" /><line stroke="rgb(0%,0%,0%)" x1="412.243165623" x2="402.922896727" y1="320.240903585" y2="318.212911131" /><line stroke="rgb(0%,0%,0%)" x1="402.922896727" x2="399.724385481" y1="318.212911131" y2="317.555271823" /><line stroke="rgb(0%,0%,0%)" x1="401.955249905" x2="400.076847736" y1="242.083850823" y2="243.425663356" /><line stroke="rgb(0%,0%,0%)" x1="410.955006283" x2="406.453093703" y1="238.203021033" y2="239.069369369" /><line stroke="rgb(0%,0%,0%)" x1="417.080806691" x2="426.684526434" y1="319.065247713" y2="323.316502235" /><line stroke="rgb(0%,0%,0%)" x1="412.775773177" x2="417.080806691" y1="318.012451619" y2="319.065247713" /><line stroke="rgb(0%,0%,0%)" x1="354.330504933" x2="351.996042269" y1="280.507891372" y2="282.044298602" /><line stroke="rgb(0%,0%,0%)" x1="354.330504933" x2="355.918747948" y1="280.507891372" y2="279.535740766" /><line stroke="rgb(0%,0%,0%)" x1="352.753325435" x2="352.238830872" y1="265.356915005" y2="264.691552492" /><line stroke="rgb(0%,0%,0%)" x1="352.753325435" x2="353.034575426" y1="265.356915005" y2="265.802734954" /><line stroke="rgb(0%,0%,0%)" x1="367.625217946" x2="353.629150197" y1="316.320458846" y2="315.977606331" /><line stroke="rgb(0%,0%,0%)" x1="361.160654731" x2="364.280096323" y1="303.308077906" y2="304.584480167" /><line stroke="rgb(0%,0%,0%)" x1="360.070330297" x2="355.918747948" y1="277.528732494" y2="279.535740766" /><line stroke="rgb(0%,0%,0%)" x1="353.034575426" x2="361.409032425" y1="265.802734954" y2="275.899108434" /><line stroke="rgb(0%,0%,0%)" x1="359.362478835" x2="353.010513966" y1="247.965443084" y2="256.117751348" /><line stroke="rgb(0%,0%,0%)" x1="359.362478835" x2="363.075349341" y1="247.965443084" y2="246.463170387" /><line stroke="rgb(0%,0%,0%)" x1="380.031475301" x2="367.625217946" y1="316.446051063" y2="316.320458846" /><line stroke="rgb(0%,0%,0%)" x1="377.469418993" x2="383.040052128" y1="309.24266808" y2="311.184747874" /><line stroke="rgb(0%,0%,0%)" x1="364.280096323" x2="377.469418993" y1="304.584480167" y2="309.24266808" /><line stroke="rgb(0%,0%,0%)" x1="368.34557276" x2="364.90083547" y1="245.049141848" y2="245.643187051" /><line stroke="rgb(0%,0%,0%)" x1="364.90083547" x2="363.075349341" y1="245.643187051" y2="246.463170387" /><line stroke="rgb(0%,0%,0%)" x1="391.725046641" x2="387.196047312" y1="317.05038312" y2="316.933573629" /><line stroke="rgb(0%,0%,0%)" x1="387.196047312" x2="380.031475301" y1="316.933573629" y2="316.446051063" /><line stroke="rgb(0%,0%,0%)" x1="396.683678332" x2="391.725046641" y1="317.060527835" y2="317.05038312" /><line stroke="rgb(0%,0%,0%)" x1="426.684526434" x2="426.762167071" y1="323.316502235" y2="323.342778038" /><line stroke="rgb(0%,0%,0%)" x1="426.762167071" x2="426.846644285" y1="323.342778038" y2="323.403926471" /><line stroke="rgb(0%,0%,0%)" x1="318.034615836" x2="309.188856636" y1="316.872118515" y2="318.885572077" /><line stroke="rgb(0%,0%,0%)" x1="318.034615836" x2="326.431153145" y1="316.872118515" y2="316.095844895" /><line stroke="rgb(0%,0%,0%)" x1="342.344481737" x2="326.431153145" y1="315.871867604" y2="316.095844895" /><line stroke="rgb(0%,0%,0%)" x1="342.344481737" x2="350.058215881" y1="315.871867604" y2="315.789058283" /><line stroke="rgb(0%,0%,0%)" x1="344.143284779" x2="342.699275152" y1="293.159799531" y2="291.504111348" /><line stroke="rgb(0%,0%,0%)" x1="350.512522639" x2="350.058215881" y1="315.867443182" y2="315.789058283" /><line stroke="rgb(0%,0%,0%)" x1="348.771832187" x2="354.763811856" y1="296.043929273" y2="299.242758913" /><line stroke="rgb(0%,0%,0%)" x1="348.771832187" x2="346.569138373" y1="296.043929273" y2="294.447351804" /><line stroke="rgb(0%,0%,0%)" x1="344.821880694" x2="346.569138373" y1="293.486128476" y2="294.447351804" /><line stroke="rgb(0%,0%,0%)" x1="344.143284779" x2="344.821880694" y1="293.159799531" y2="293.486128476" /><line stroke="rgb(0%,0%,0%)" x1="342.321656493" x2="342.699275152" y1="291.070387973" y2="291.504111348" /><line stroke="rgb(0%,0%,0%)" x1="341.74908346" x2="342.321656493" y1="288.679754742" y2="291.070387973" /><line stroke="rgb(0%,0%,0%)" x1="341.938102148" x2="341.74908346" y1="287.689085276" y2="288.679754742" /><line stroke="rgb(0%,0%,0%)" x1="343.109765602" x2="341.938102148" y1="286.458837727" y2="287.689085276" /><line stroke="rgb(0%,0%,0%)" x1="343.109765602" x2="346.237950244" y1="286.458837727" y2="285.135250225" /><line stroke="rgb(0%,0%,0%)" x1="347.786685444" x2="346.237950244" y1="284.406943472" y2="285.135250225" /><line stroke="rgb(0%,0%,0%)" x1="348.462617903" x2="347.786685444" y1="283.960486026" y2="284.406943472" /><line stroke="rgb(0%,0%,0%)" x1="348.917215423" x2="348.462617903" y1="283.930252058" y2="283.960486026" /><line stroke="rgb(0%,0%,0%)" x1="351.996042269" x2="348.917215423" y1="282.044298602" y2="283.930252058" /><line stroke="rgb(0%,0%,0%)" x1="352.238830872" x2="351.972252253" y1="264.691552492" y2="262.262133273" /><line stroke="rgb(0%,0%,0%)" x1="351.3191515" x2="351.972252253" y1="258.50210626" y2="262.262133273" /><line stroke="rgb(0%,0%,0%)" x1="353.629150197" x2="350.512522639" y1="315.977606331" y2="315.867443182" /><line stroke="rgb(0%,0%,0%)" x1="354.763811856" x2="361.160654731" y1="299.242758913" y2="303.308077906" /><line stroke="rgb(0%,0%,0%)" x1="361.409032425" x2="360.070330297" y1="275.899108434" y2="277.528732494" /><line stroke="rgb(0%,0%,0%)" x1="353.010513966" x2="351.3191515" y1="256.117751348" y2="258.50210626" /><line stroke="rgb(0%,0%,0%)" x1="306.188529079" x2="306.538281354" y1="319.580524788" y2="319.409157507" /><line stroke="rgb(0%,0%,0%)" x1="298.404779545" x2="288.516388473" y1="320.29046798" y2="322.92317981" /><line stroke="rgb(0%,0%,0%)" x1="306.188529079" x2="298.404779545" y1="319.580524788" y2="320.29046798" /><line stroke="rgb(0%,0%,0%)" x1="309.188856636" x2="306.538281354" y1="318.885572077" y2="319.409157507" /><line stroke="rgb(0%,0%,0%)" x1="241.828528024" x2="246.039790678" y1="349.627645254" y2="345.760062476" /><line stroke="rgb(0%,0%,0%)" x1="256.923760373" x2="255.681134873" y1="335.701293808" y2="337.137108583" /><line stroke="rgb(0%,0%,0%)" x1="256.923760373" x2="260.454768299" y1="335.701293808" y2="333.631003664" /><line stroke="rgb(0%,0%,0%)" x1="262.422544037" x2="260.454768299" y1="331.71773715" y2="333.631003664" /><line stroke="rgb(0%,0%,0%)" x1="269.597003953" x2="262.422544037" y1="327.440589315" y2="331.71773715" /><line stroke="rgb(0%,0%,0%)" x1="269.597003953" x2="272.088718851" y1="327.440589315" y2="326.572855068" /><line stroke="rgb(0%,0%,0%)" x1="275.609547585" x2="272.088718851" y1="324.716432458" y2="326.572855068" /><line stroke="rgb(0%,0%,0%)" x1="288.516388473" x2="287.890473104" y1="322.92317981" y2="323.048280073" /><line stroke="rgb(0%,0%,0%)" x1="287.890473104" x2="275.609547585" y1="323.048280073" y2="324.716432458" /><line stroke="rgb(0%,0%,0%)" x1="232.989272703" x2="236.412607116" y1="357.720422468" y2="354.774244601" /><line stroke="rgb(0%,0%,0%)" x1="232.989272703" x2="224.377114366" y1="357.720422468" y2="362.153358019" /><line stroke="rgb(0%,0%,0%)" x1="237.44143864" x2="236.412607116" y1="353.950203117" y2="354.774244601" /><line stroke="rgb(0%,0%,0%)" x1="241.828528024" x2="237.44143864" y1="349.627645254" y2="353.950203117" /><line stroke="rgb(0%,0%,0%)" x1="248.539214365" x2="246.039790678" y1="343.654351685" y2="345.760062476" /><line stroke="rgb(0%,0%,0%)" x1="249.351983073" x2="248.539214365" y1="342.262279807" y2="343.654351685" /><line stroke="rgb(0%,0%,0%)" x1="249.351983073" x2="252.907132249" y1="342.262279807" y2="339.258321669" /><line stroke="rgb(0%,0%,0%)" x1="255.681134873" x2="252.907132249" y1="337.137108583" y2="339.258321669" /><line stroke="rgb(0%,0%,0%)" x1="171.745625443" x2="171.270286772" y1="397.510866351" y2="397.972222204" /><line stroke="rgb(0%,0%,0%)" x1="171.745625443" x2="174.627720868" y1="397.510866351" y2="394.071948268" /><line stroke="rgb(0%,0%,0%)" x1="209.091322647" x2="195.940597748" y1="370.063241625" y2="376.477834844" /><line stroke="rgb(0%,0%,0%)" x1="224.377114366" x2="209.091322647" y1="362.153358019" y2="370.063241625" /><line stroke="rgb(0%,0%,0%)" x1="171.270286772" x2="167.734283744" y1="397.972222204" y2="400.89351123" /><line stroke="rgb(0%,0%,0%)" x1="177.790786036" x2="174.627720868" y1="390.467043137" y2="394.071948268" /><line stroke="rgb(0%,0%,0%)" x1="195.940597748" x2="180.055004327" y1="376.477834844" y2="388.162994586" /><line stroke="rgb(0%,0%,0%)" x1="129.640863977" x2="130.626959709" y1="416.318172332" y2="416.184131218" /><line stroke="rgb(0%,0%,0%)" x1="131.486283513" x2="130.626959709" y1="415.863058402" y2="416.184131218" /><line stroke="rgb(0%,0%,0%)" x1="149.839602008" x2="131.486283513" y1="410.437228941" y2="415.863058402" /><line stroke="rgb(0%,0%,0%)" x1="149.839602008" x2="152.302050126" y1="410.437228941" y2="409.799642281" /><line stroke="rgb(0%,0%,0%)" x1="154.800360949" x2="152.302050126" y1="408.266696021" y2="409.799642281" /><line stroke="rgb(0%,0%,0%)" x1="154.800360949" x2="157.283175774" y1="408.266696021" y2="407.565992321" /><line stroke="rgb(0%,0%,0%)" x1="162.745890654" x2="157.283175774" y1="404.944154429" y2="407.565992321" /><line stroke="rgb(0%,0%,0%)" x1="167.734283744" x2="162.745890654" y1="400.89351123" y2="404.944154429" /><line stroke="rgb(0%,0%,0%)" x1="178.80914489" x2="177.790786036" y1="389.356656425" y2="390.467043137" /><line stroke="rgb(0%,0%,0%)" x1="179.213480005" x2="178.80914489" y1="388.845531128" y2="389.356656425" /><line stroke="rgb(0%,0%,0%)" x1="180.055004327" x2="179.213480005" y1="388.162994586" y2="388.845531128" /><line stroke="rgb(0%,0%,0%)" x1="79.7482412634" x2="81.8813790286" y1="445.23625409" y2="455.11431953" /><line stroke="rgb(0%,0%,0%)" x1="79.7482412634" x2="81.4188843887" y1="445.23625409" y2="441.187689045" /><line stroke="rgb(0%,0%,0%)" x1="91.1625145411" x2="104.631785143" y1="430.147319794" y2="422.533660934" /><line stroke="rgb(0%,0%,0%)" x1="123.974897368" x2="113.138570833" y1="416.973667907" y2="419.525060028" /><line stroke="rgb(0%,0%,0%)" x1="113.138570833" x2="108.533110915" y1="419.525060028" y2="420.934381292" /><line stroke="rgb(0%,0%,0%)" x1="108.533110915" x2="104.631785143" y1="420.934381292" y2="422.533660934" /><line stroke="rgb(0%,0%,0%)" x1="129.640863977" x2="123.974897368" y1="416.318172332" y2="416.973667907" /><line stroke="rgb(0%,0%,0%)" x1="84.7468136509" x2="81.4188843887" y1="435.646419578" y2="441.187689045" /><line stroke="rgb(0%,0%,0%)" x1="91.1625145411" x2="84.7468136509" y1="430.147319794" y2="435.646419578" /><line stroke="rgb(0%,0%,0%)" x1="81.8813790286" x2="82.5407041536" y1="455.11431953" y2="457.572346436" /><line stroke="rgb(0%,0%,0%)" x1="609.932130775" x2="610.089092144" y1="494.58162924" y2="494.124806979" /><line stroke="rgb(0%,0%,0%)" x1="609.932130775" x2="609.785575465" y1="494.58162924" y2="494.883272314" /><line stroke="rgb(0%,0%,0%)" x1="614.114684855" x2="614.837526606" y1="479.655922054" y2="478.363754113" /><line stroke="rgb(0%,0%,0%)" x1="584.326311605" x2="579.699377707" y1="541.862035884" y2="550.496559618" /><line stroke="rgb(0%,0%,0%)" x1="584.326311605" x2="585.379077692" y1="541.862035884" y2="538.946173738" /><line stroke="rgb(0%,0%,0%)" x1="586.842923766" x2="587.708058847" y1="536.936866764" y2="534.984301865" /><line stroke="rgb(0%,0%,0%)" x1="593.196236892" x2="593.787998742" y1="526.100712619" y2="524.836292719" /><line stroke="rgb(0%,0%,0%)" x1="593.787998742" x2="594.327252686" y1="524.836292719" y2="523.617953659" /><line stroke="rgb(0%,0%,0%)" x1="597.59360049" x2="596.352363624" y1="516.903605688" y2="519.503424181" /><line stroke="rgb(0%,0%,0%)" x1="597.59360049" x2="599.385431494" y1="516.903605688" y2="513.395448025" /><line stroke="rgb(0%,0%,0%)" x1="599.70323297" x2="599.385431494" y1="512.633125037" y2="513.395448025" /><line stroke="rgb(0%,0%,0%)" x1="605.319797015" x2="609.785575465" y1="504.110909908" y2="494.883272314" /><line stroke="rgb(0%,0%,0%)" x1="610.089092144" x2="611.9622981" y1="494.124806979" y2="487.572319255" /><line stroke="rgb(0%,0%,0%)" x1="611.9622981" x2="612.68192309" y1="487.572319255" y2="484.037456635" /><line stroke="rgb(0%,0%,0%)" x1="614.837526606" x2="617.039541505" y1="478.363754113" y2="472.270987123" /><line stroke="rgb(0%,0%,0%)" x1="565.716250775" x2="563.789465513" y1="574.157498714" y2="577.022727183" /><line stroke="rgb(0%,0%,0%)" x1="572.069255272" x2="574.731484628" y1="565.761356172" y2="561.663934769" /><line stroke="rgb(0%,0%,0%)" x1="565.716250775" x2="572.069255272" y1="574.157498714" y2="565.761356172" /><line stroke="rgb(0%,0%,0%)" x1="574.731484628" x2="579.203289421" y1="561.663934769" y2="551.50804559" /><line stroke="rgb(0%,0%,0%)" x1="585.379077692" x2="586.842923766" y1="538.946173738" y2="536.936866764" /><line stroke="rgb(0%,0%,0%)" x1="587.708058847" x2="589.001326786" y1="534.984301865" y2="532.39948889" /><line stroke="rgb(0%,0%,0%)" x1="589.001326786" x2="593.196236892" y1="532.39948889" y2="526.100712619" /><line stroke="rgb(0%,0%,0%)" x1="599.70323297" x2="601.649946502" y1="512.633125037" y2="509.433150569" /><line stroke="rgb(0%,0%,0%)" x1="601.649946502" x2="605.319797015" y1="509.433150569" y2="504.110909908" /><line stroke="rgb(0%,0%,0%)" x1="612.68192309" x2="614.114684855" y1="484.037456635" y2="479.655922054" /><line stroke="rgb(0%,0%,0%)" x1="617.88604555" x2="617.981377434" y1="469.896773431" y2="467.958662206" /><line stroke="rgb(0%,0%,0%)" x1="619.549560745" x2="617.981377434" y1="456.152916112" y2="467.958662206" /><line stroke="rgb(0%,0%,0%)" x1="554.006778251" x2="550.173551364" y1="585.667220079" y2="588.586749542" /><line stroke="rgb(0%,0%,0%)" x1="554.006778251" x2="554.763255563" y1="585.667220079" y2="584.803346091" /><line stroke="rgb(0%,0%,0%)" x1="554.763255563" x2="559.721521347" y1="584.803346091" y2="580.467797852" /><line stroke="rgb(0%,0%,0%)" x1="559.721521347" x2="563.789465513" y1="580.467797852" y2="577.022727183" /><line stroke="rgb(0%,0%,0%)" x1="579.203289421" x2="579.201101687" y1="551.50804559" y2="551.364090572" /><line stroke="rgb(0%,0%,0%)" x1="579.201101687" x2="579.364695731" y1="551.364090572" y2="551.028460084" /><line stroke="rgb(0%,0%,0%)" x1="579.364695731" x2="579.601955935" y1="551.028460084" y2="550.797693686" /><line stroke="rgb(0%,0%,0%)" x1="579.601955935" x2="579.699377707" y1="550.797693686" y2="550.496559618" /><line stroke="rgb(0%,0%,0%)" x1="594.327252686" x2="596.352363624" y1="523.617953659" y2="519.503424181" /><line stroke="rgb(0%,0%,0%)" x1="617.039541505" x2="617.88604555" y1="472.270987123" y2="469.896773431" /><line stroke="rgb(0%,0%,0%)" x1="524.626143407" x2="522.063538356" y1="623.448220693" y2="626.768143393" /><line stroke="rgb(0%,0%,0%)" x1="524.626143407" x2="526.341560919" y1="623.448220693" y2="620.678864175" /><line stroke="rgb(0%,0%,0%)" x1="536.083705508" x2="530.469969648" y1="610.320897753" y2="615.994497671" /><line stroke="rgb(0%,0%,0%)" x1="539.535767079" x2="543.652211261" y1="604.709735257" y2="599.02210299" /><line stroke="rgb(0%,0%,0%)" x1="543.652211261" x2="548.165787883" y1="599.02210299" y2="591.373655425" /><line stroke="rgb(0%,0%,0%)" x1="548.165787883" x2="548.808326498" y1="591.373655425" y2="590.547211239" /><line stroke="rgb(0%,0%,0%)" x1="548.808326498" x2="550.173551364" y1="590.547211239" y2="588.586749542" /><line stroke="rgb(0%,0%,0%)" x1="493.77495084" x2="487.062359828" y1="653.183734514" y2="657.950895089" /><line stroke="rgb(0%,0%,0%)" x1="493.77495084" x2="499.105123692" y1="653.183734514" y2="648.006031145" /><line stroke="rgb(0%,0%,0%)" x1="499.105123692" x2="500.646313209" y1="648.006031145" y2="646.798435546" /><line stroke="rgb(0%,0%,0%)" x1="501.950670927" x2="502.936789327" y1="646.007686328" y2="644.252848658" /><line stroke="rgb(0%,0%,0%)" x1="503.702813834" x2="502.936789327" y1="643.705907359" y2="644.252848658" /><line stroke="rgb(0%,0%,0%)" x1="503.702813834" x2="510.290305152" y1="643.705907359" y2="637.364496701" /><line stroke="rgb(0%,0%,0%)" x1="510.290305152" x2="513.006121582" y1="637.364496701" y2="634.983358122" /><line stroke="rgb(0%,0%,0%)" x1="516.548844101" x2="515.380097748" y1="631.012312185" y2="632.248066756" /><line stroke="rgb(0%,0%,0%)" x1="516.548844101" x2="516.774120591" y1="631.012312185" y2="630.753219925" /><line stroke="rgb(0%,0%,0%)" x1="513.382622661" x2="515.380097748" y1="634.710489911" y2="632.248066756" /><line stroke="rgb(0%,0%,0%)" x1="516.774120591" x2="519.736768454" y1="630.753219925" y2="630.316527983" /><line stroke="rgb(0%,0%,0%)" x1="519.736768454" x2="522.063538356" y1="630.316527983" y2="626.768143393" /><line stroke="rgb(0%,0%,0%)" x1="526.341560919" x2="527.725996495" y1="620.678864175" y2="619.440851399" /><line stroke="rgb(0%,0%,0%)" x1="529.44279611" x2="530.469969648" y1="617.457439429" y2="615.994497671" /><line stroke="rgb(0%,0%,0%)" x1="536.083705508" x2="539.535767079" y1="610.320897753" y2="604.709735257" /><line stroke="rgb(0%,0%,0%)" x1="452.879479884" x2="463.820383274" y1="671.670847427" y2="669.492860909" /><line stroke="rgb(0%,0%,0%)" x1="477.655710389" x2="475.130201055" y1="664.023668091" y2="666.719928981" /><line stroke="rgb(0%,0%,0%)" x1="473.968280901" x2="475.130201055" y1="666.966713903" y2="666.719928981" /><line stroke="rgb(0%,0%,0%)" x1="477.655710389" x2="479.988574999" y1="664.023668091" y2="662.973050497" /><line stroke="rgb(0%,0%,0%)" x1="481.546820903" x2="479.988574999" y1="662.001126559" y2="662.973050497" /><line stroke="rgb(0%,0%,0%)" x1="481.546820903" x2="484.24241805" y1="662.001126559" y2="659.747762479" /><line stroke="rgb(0%,0%,0%)" x1="484.24241805" x2="485.839674041" y1="659.747762479" y2="658.549666538" /><line stroke="rgb(0%,0%,0%)" x1="485.839674041" x2="487.062359828" y1="658.549666538" y2="657.950895089" /><line stroke="rgb(0%,0%,0%)" x1="500.646313209" x2="501.950670927" y1="646.798435546" y2="646.007686328" /><line stroke="rgb(0%,0%,0%)" x1="513.006121582" x2="513.382622661" y1="634.983358122" y2="634.710489911" /><line stroke="rgb(0%,0%,0%)" x1="527.725996495" x2="529.44279611" y1="619.440851399" y2="617.457439429" /><line stroke="rgb(0%,0%,0%)" x1="419.351445464" x2="422.399982114" y1="597.001267275" y2="595.635776959" /><line stroke="rgb(0%,0%,0%)" x1="431.048063305" x2="429.179595801" y1="590.268554637" y2="591.993752698" /><line stroke="rgb(0%,0%,0%)" x1="429.988810503" x2="424.220938299" y1="587.729586594" y2="590.885535322" /><line stroke="rgb(0%,0%,0%)" x1="436.753268623" x2="438.547544445" y1="583.100508431" y2="581.516580515" /><line stroke="rgb(0%,0%,0%)" x1="429.988810503" x2="436.753268623" y1="587.729586594" y2="583.100508431" /><line stroke="rgb(0%,0%,0%)" x1="444.682153476" x2="431.667271364" y1="670.997128129" y2="669.715531037" /><line stroke="rgb(0%,0%,0%)" x1="435.63986999" x2="431.048063305" y1="586.718771599" y2="590.268554637" /><line stroke="rgb(0%,0%,0%)" x1="440.758341531" x2="440.721525986" y1="582.292662127" y2="581.94381842" /><line stroke="rgb(0%,0%,0%)" x1="441.382648875" x2="440.721525986" y1="579.803613214" y2="581.94381842" /><line stroke="rgb(0%,0%,0%)" x1="438.547544445" x2="441.382648875" y1="581.516580515" y2="579.803613214" /><line stroke="rgb(0%,0%,0%)" x1="444.682153476" x2="452.879479884" y1="670.997128129" y2="671.670847427" /><line stroke="rgb(0%,0%,0%)" x1="463.820383274" x2="465.608330031" y1="669.492860909" y2="669.039050812" /><line stroke="rgb(0%,0%,0%)" x1="465.608330031" x2="466.782186795" y1="669.039050812" y2="669.049245337" /><line stroke="rgb(0%,0%,0%)" x1="466.782186795" x2="473.968280901" y1="669.049245337" y2="666.966713903" /><line stroke="rgb(0%,0%,0%)" x1="381.321551304" x2="382.276588677" y1="607.574947937" y2="607.297533665" /><line stroke="rgb(0%,0%,0%)" x1="380.827075218" x2="379.530600637" y1="598.664888937" y2="598.51899576" /><line stroke="rgb(0%,0%,0%)" x1="386.69327277" x2="383.399656848" y1="667.761206977" y2="667.994907724" /><line stroke="rgb(0%,0%,0%)" x1="386.69327277" x2="390.017751683" y1="667.761206977" y2="668.497766849" /><line stroke="rgb(0%,0%,0%)" x1="390.017751683" x2="393.134940861" y1="668.497766849" y2="669.135172634" /><line stroke="rgb(0%,0%,0%)" x1="382.276588677" x2="384.09279287" y1="607.297533665" y2="607.002021385" /><line stroke="rgb(0%,0%,0%)" x1="391.288298933" x2="384.09279287" y1="604.726721558" y2="607.002021385" /><line stroke="rgb(0%,0%,0%)" x1="391.288298933" x2="405.762991374" y1="604.726721558" y2="601.557077004" /><line stroke="rgb(0%,0%,0%)" x1="380.827075218" x2="384.293977774" y1="598.664888937" y2="598.427282571" /><line stroke="rgb(0%,0%,0%)" x1="384.293977774" x2="401.611348251" y1="598.427282571" y2="597.916214903" /><line stroke="rgb(0%,0%,0%)" x1="407.156358186" x2="414.814560129" y1="669.536796538" y2="671.304595581" /><line stroke="rgb(0%,0%,0%)" x1="400.153209933" x2="407.156358186" y1="668.731458141" y2="669.536796538" /><line stroke="rgb(0%,0%,0%)" x1="400.153209933" x2="398.372276819" y1="668.731458141" y2="668.242538148" /><line stroke="rgb(0%,0%,0%)" x1="393.134940861" x2="398.372276819" y1="669.135172634" y2="668.242538148" /><line stroke="rgb(0%,0%,0%)" x1="408.563480801" x2="405.762991374" y1="600.605853448" y2="601.557077004" /><line stroke="rgb(0%,0%,0%)" x1="405.879524129" x2="401.611348251" y1="596.989261201" y2="597.916214903" /><line stroke="rgb(0%,0%,0%)" x1="405.879524129" x2="409.482892298" y1="596.989261201" y2="596.662336086" /><line stroke="rgb(0%,0%,0%)" x1="414.814560129" x2="416.327167015" y1="671.304595581" y2="671.663204929" /><line stroke="rgb(0%,0%,0%)" x1="417.83604185" x2="410.916932702" y1="597.357525059" y2="599.7190875" /><line stroke="rgb(0%,0%,0%)" x1="419.351445464" x2="417.83604185" y1="597.001267275" y2="597.357525059" /><line stroke="rgb(0%,0%,0%)" x1="410.916932702" x2="408.563480801" y1="599.7190875" y2="600.605853448" /><line stroke="rgb(0%,0%,0%)" x1="409.482892298" x2="413.900629411" y1="596.662336086" y2="595.4854447" /><line stroke="rgb(0%,0%,0%)" x1="413.900629411" x2="421.743859096" y1="595.4854447" y2="592.20350919" /><line stroke="rgb(0%,0%,0%)" x1="429.578559262" x2="416.327167015" y1="669.875569423" y2="671.663204929" /><line stroke="rgb(0%,0%,0%)" x1="429.578559262" x2="431.667271364" y1="669.875569423" y2="669.715531037" /><line stroke="rgb(0%,0%,0%)" x1="429.179595801" x2="422.399982114" y1="591.993752698" y2="595.635776959" /><line stroke="rgb(0%,0%,0%)" x1="421.743859096" x2="424.220938299" y1="592.20350919" y2="590.885535322" /><line stroke="rgb(0%,0%,0%)" x1="440.758341531" x2="435.63986999" y1="582.292662127" y2="586.718771599" /><line stroke="rgb(0%,0%,0%)" x1="349.912122328" x2="349.751728886" y1="624.866815488" y2="624.227771299" /><line stroke="rgb(0%,0%,0%)" x1="354.002320529" x2="356.574177267" y1="630.88419243" y2="631.859241294" /><line stroke="rgb(0%,0%,0%)" x1="349.744395555" x2="350.856338387" y1="627.588627537" y2="628.994745269" /><line stroke="rgb(0%,0%,0%)" x1="357.552100045" x2="357.206678897" y1="617.330619342" y2="617.614867861" /><line stroke="rgb(0%,0%,0%)" x1="357.552100045" x2="357.692648679" y1="617.330619342" y2="617.266858254" /><line stroke="rgb(0%,0%,0%)" x1="361.095470584" x2="352.629880528" y1="598.348091276" y2="597.449815408" /><line stroke="rgb(0%,0%,0%)" x1="370.269470328" x2="370.479443969" y1="664.79841888" y2="664.938550781" /><line stroke="rgb(0%,0%,0%)" x1="370.269470328" x2="370.03579465" y1="664.79841888" y2="664.597004908" /><line stroke="rgb(0%,0%,0%)" x1="363.393060427" x2="363.658295072" y1="656.036384049" y2="656.820023949" /><line stroke="rgb(0%,0%,0%)" x1="362.487913969" x2="363.249186211" y1="651.187286706" y2="655.274350888" /><line stroke="rgb(0%,0%,0%)" x1="363.393060427" x2="363.249186211" y1="656.036384049" y2="655.274350888" /><line stroke="rgb(0%,0%,0%)" x1="362.907327992" x2="362.487913969" y1="649.428450217" y2="651.187286706" /><line stroke="rgb(0%,0%,0%)" x1="365.455103997" x2="362.907327992" y1="645.69266728" y2="649.428450217" /><line stroke="rgb(0%,0%,0%)" x1="361.982646489" x2="367.073488796" y1="635.006660824" y2="636.453184281" /><line stroke="rgb(0%,0%,0%)" x1="361.982646489" x2="357.292929818" y1="635.006660824" y2="632.036629137" /><line stroke="rgb(0%,0%,0%)" x1="362.908731653" x2="357.692648679" y1="615.003164999" y2="617.266858254" /><line stroke="rgb(0%,0%,0%)" x1="361.095470584" x2="379.530600637" y1="598.348091276" y2="598.51899576" /><line stroke="rgb(0%,0%,0%)" x1="379.992951111" x2="383.399656848" y1="667.776790022" y2="667.994907724" /><line stroke="rgb(0%,0%,0%)" x1="370.479443969" x2="371.062769026" y1="664.938550781" y2="665.070633332" /><line stroke="rgb(0%,0%,0%)" x1="371.062769026" x2="379.992951111" y1="665.070633332" y2="667.776790022" /><line stroke="rgb(0%,0%,0%)" x1="363.658295072" x2="370.03579465" y1="656.820023949" y2="664.597004908" /><line stroke="rgb(0%,0%,0%)" x1="365.455103997" x2="371.171256295" y1="645.69266728" y2="640.427588082" /><line stroke="rgb(0%,0%,0%)" x1="371.594777932" x2="371.461079271" y1="640.058806224" y2="640.135674556" /><line stroke="rgb(0%,0%,0%)" x1="371.461079271" x2="371.171256295" y1="640.135674556" y2="640.427588082" /><line stroke="rgb(0%,0%,0%)" x1="371.485916592" x2="371.594777932" y1="639.970690992" y2="640.058806224" /><line stroke="rgb(0%,0%,0%)" x1="371.335303566" x2="371.485916592" y1="639.908767115" y2="639.970690992" /><line stroke="rgb(0%,0%,0%)" x1="367.073488796" x2="371.335303566" y1="636.453184281" y2="639.908767115" /><line stroke="rgb(0%,0%,0%)" x1="362.908731653" x2="369.548506203" y1="615.003164999" y2="611.284958343" /><line stroke="rgb(0%,0%,0%)" x1="372.73129424" x2="369.548506203" y1="610.192384827" y2="611.284958343" /><line stroke="rgb(0%,0%,0%)" x1="381.321551304" x2="372.73129424" y1="607.574947937" y2="610.192384827" /><line stroke="rgb(0%,0%,0%)" x1="302.512427854" x2="305.414647891" y1="591.32243965" y2="592.147384896" /><line stroke="rgb(0%,0%,0%)" x1="302.512427854" x2="299.406888904" y1="591.32243965" y2="590.646368954" /><line stroke="rgb(0%,0%,0%)" x1="315.729663418" x2="328.086695403" y1="593.544806932" y2="596.116110098" /><line stroke="rgb(0%,0%,0%)" x1="312.780494428" x2="315.729663418" y1="593.261075378" y2="593.544806932" /><line stroke="rgb(0%,0%,0%)" x1="328.086695403" x2="335.687756518" y1="596.116110098" y2="596.781341027" /><line stroke="rgb(0%,0%,0%)" x1="344.430723517" x2="335.687756518" y1="598.164331818" y2="596.781341027" /><line stroke="rgb(0%,0%,0%)" x1="354.002320529" x2="351.601511469" y1="630.88419243" y2="629.797995156" /><line stroke="rgb(0%,0%,0%)" x1="350.856338387" x2="351.601511469" y1="628.994745269" y2="629.797995156" /><line stroke="rgb(0%,0%,0%)" x1="350.130175242" x2="349.744395555" y1="625.896551694" y2="627.588627537" /><line stroke="rgb(0%,0%,0%)" x1="349.912122328" x2="350.130175242" y1="624.866815488" y2="625.896551694" /><line stroke="rgb(0%,0%,0%)" x1="349.751728886" x2="352.865721707" y1="624.227771299" y2="621.394534278" /><line stroke="rgb(0%,0%,0%)" x1="353.492217347" x2="352.865721707" y1="620.747478599" y2="621.394534278" /><line stroke="rgb(0%,0%,0%)" x1="344.430723517" x2="352.629880528" y1="598.164331818" y2="597.449815408" /><line stroke="rgb(0%,0%,0%)" x1="356.574177267" x2="357.292929818" y1="631.859241294" y2="632.036629137" /><line stroke="rgb(0%,0%,0%)" x1="353.571450928" x2="353.492217347" y1="620.723311083" y2="620.747478599" /><line stroke="rgb(0%,0%,0%)" x1="353.590959179" x2="353.571450928" y1="620.669150637" y2="620.723311083" /><line stroke="rgb(0%,0%,0%)" x1="353.715320636" x2="353.590959179" y1="620.637794147" y2="620.669150637" /><line stroke="rgb(0%,0%,0%)" x1="357.206678897" x2="353.715320636" y1="617.614867861" y2="620.637794147" /><line stroke="rgb(0%,0%,0%)" x1="283.874508994" x2="279.851290875" y1="588.275361793" y2="587.87074195" /><line stroke="rgb(0%,0%,0%)" x1="295.104530172" x2="299.406888904" y1="589.701794928" y2="590.646368954" /><line stroke="rgb(0%,0%,0%)" x1="283.874508994" x2="295.104530172" y1="588.275361793" y2="589.701794928" /><line stroke="rgb(0%,0%,0%)" x1="305.414647891" x2="312.780494428" y1="592.147384896" y2="593.261075378" /><line stroke="rgb(0%,0%,0%)" x1="202.31830729" x2="202.897473229" y1="540.076546796" y2="540.413536614" /><line stroke="rgb(0%,0%,0%)" x1="237.149541245" x2="238.629823236" y1="561.30169243" y2="562.830392192" /><line stroke="rgb(0%,0%,0%)" x1="236.550761903" x2="237.149541245" y1="560.790099886" y2="561.30169243" /><line stroke="rgb(0%,0%,0%)" x1="236.550761903" x2="234.995395709" y1="560.790099886" y2="559.327415932" /><line stroke="rgb(0%,0%,0%)" x1="256.0488682" x2="265.390219594" y1="577.525986865" y2="581.271513998" /><line stroke="rgb(0%,0%,0%)" x1="252.426811479" x2="256.0488682" y1="574.948615728" y2="577.525986865" /><line stroke="rgb(0%,0%,0%)" x1="251.569221303" x2="252.426811479" y1="573.514916423" y2="574.948615728" /><line stroke="rgb(0%,0%,0%)" x1="248.661364639" x2="251.569221303" y1="572.120103203" y2="573.514916423" /><line stroke="rgb(0%,0%,0%)" x1="246.853445989" x2="248.661364639" y1="570.872910027" y2="572.120103203" /><line stroke="rgb(0%,0%,0%)" x1="246.853445989" x2="244.689885539" y1="570.872910027" y2="569.128442653" /><line stroke="rgb(0%,0%,0%)" x1="274.67632643" x2="279.851290875" y1="586.213655395" y2="587.87074195" /><line stroke="rgb(0%,0%,0%)" x1="274.67632643" x2="266.553272103" y1="586.213655395" y2="581.950867717" /><line stroke="rgb(0%,0%,0%)" x1="265.390219594" x2="266.553272103" y1="581.271513998" y2="581.950867717" /><line stroke="rgb(0%,0%,0%)" x1="188.112832286" x2="191.604541969" y1="528.55538561" y2="531.541772485" /><line stroke="rgb(0%,0%,0%)" x1="202.897473229" x2="224.548967585" y1="540.413536614" y2="554.05480289" /><line stroke="rgb(0%,0%,0%)" x1="202.31830729" x2="201.11666709" y1="540.076546796" y2="539.14077963" /><line stroke="rgb(0%,0%,0%)" x1="224.548967585" x2="234.995395709" y1="554.05480289" y2="559.327415932" /><line stroke="rgb(0%,0%,0%)" x1="238.629823236" x2="244.689885539" y1="562.830392192" y2="569.128442653" /><line stroke="rgb(0%,0%,0%)" x1="179.838484179" x2="178.868105152" y1="519.407771708" y2="517.955577429" /><line stroke="rgb(0%,0%,0%)" x1="172.31318395" x2="178.868105152" y1="510.845586171" y2="517.955577429" /><line stroke="rgb(0%,0%,0%)" x1="172.31318395" x2="169.909191768" y1="510.845586171" y2="509.402585925" /><line stroke="rgb(0%,0%,0%)" x1="181.807767622" x2="186.783261007" y1="521.523214584" y2="527.667663539" /><line stroke="rgb(0%,0%,0%)" x1="186.783261007" x2="188.112832286" y1="527.667663539" y2="528.55538561" /><line stroke="rgb(0%,0%,0%)" x1="181.807767622" x2="180.685162128" y1="521.523214584" y2="519.84003787" /><line stroke="rgb(0%,0%,0%)" x1="179.838484179" x2="180.685162128" y1="519.407771708" y2="519.84003787" /><line stroke="rgb(0%,0%,0%)" x1="195.047611519" x2="201.11666709" y1="534.663957434" y2="539.14077963" /><line stroke="rgb(0%,0%,0%)" x1="137.961181319" x2="148.748465606" y1="499.837275833" y2="501.023496657" /><line stroke="rgb(0%,0%,0%)" x1="168.257911641" x2="169.909191768" y1="509.163356941" y2="509.402585925" /><line stroke="rgb(0%,0%,0%)" x1="160.777002499" x2="168.257911641" y1="505.077920598" y2="509.163356941" /><line stroke="rgb(0%,0%,0%)" x1="148.748465606" x2="158.60433636" y1="501.023496657" y2="504.177138344" /><line stroke="rgb(0%,0%,0%)" x1="191.604541969" x2="195.047611519" y1="531.541772485" y2="534.663957434" /><line stroke="rgb(0%,0%,0%)" x1="78.9356061702" x2="78.9864273497" y1="462.169518885" y2="462.070878946" /><line stroke="rgb(0%,0%,0%)" x1="78.9864273497" x2="79.2796505349" y1="462.070878946" y2="461.779127707" /><line stroke="rgb(0%,0%,0%)" x1="118.551299128" x2="112.767311915" y1="497.271057431" y2="496.899923648" /><line stroke="rgb(0%,0%,0%)" x1="126.996751524" x2="137.961181319" y1="497.9745476" y2="499.837275833" /><line stroke="rgb(0%,0%,0%)" x1="118.551299128" x2="126.996751524" y1="497.271057431" y2="497.9745476" /><line stroke="rgb(0%,0%,0%)" x1="158.60433636" x2="160.777002499" y1="504.177138344" y2="505.077920598" /><line stroke="rgb(0%,0%,0%)" x1="85.6489838231" x2="80.9300392487" y1="485.201864983" y2="479.207866138" /><line stroke="rgb(0%,0%,0%)" x1="78.9141367414" x2="80.9300392487" y1="474.968405506" y2="479.207866138" /><line stroke="rgb(0%,0%,0%)" x1="77.8534876983" x2="78.9141367414" y1="469.2885591" y2="474.968405506" /><line stroke="rgb(0%,0%,0%)" x1="78.9356061702" x2="77.8534876983" y1="462.169518885" y2="469.2885591" /><line stroke="rgb(0%,0%,0%)" x1="82.5407041536" x2="79.651528834" y1="457.572346436" y2="461.20089964" /><line stroke="rgb(0%,0%,0%)" x1="94.2865238389" x2="100.810338155" y1="491.775677572" y2="493.57754769" /><line stroke="rgb(0%,0%,0%)" x1="88.5950220144" x2="94.2865238389" y1="488.352178276" y2="491.775677572" /><line stroke="rgb(0%,0%,0%)" x1="85.6489838231" x2="88.5950220144" y1="485.201864983" y2="488.352178276" /><line stroke="rgb(0%,0%,0%)" x1="100.810338155" x2="107.234591356" y1="493.57754769" y2="495.864270115" /><line stroke="rgb(0%,0%,0%)" x1="107.234591356" x2="112.767311915" y1="495.864270115" y2="496.899923648" /><line stroke="rgb(0%,0%,0%)" x1="79.2796505349" x2="79.651528834" y1="461.779127707" y2="461.20089964" /></svg>