<?xml version="1.0" encoding="utf-8" ?>
<svg baseProfile="full" height="100%" version="1.1" viewBox="0.5 0.5 685.793960571 941.299331665" width="100%" xmlns="http://www.w3.org/2000/svg" xmlns:ev="http://www.w3.org/2001/xml-events" xmlns:xlink="http://www.w3.org/1999/xlink"><defs /><line stroke="rgb(0%,0%,0%)" x1="553.365450305" x2="553.078466612" y1="331.714084392" y2="331.361605585" /><line stroke="rgb(0%,0%,0%)" x1="585.2729293" x2="587.121229092" y1="372.571894988" y2="374.934200798" /><line stroke="rgb(0%,0%,0%)" x1="587.121229092" x2="591.099772417" y1="374.934200798" y2="379.793443372" /><line stroke="rgb(0%,0%,0%)" x1="585.2729293" x2="580.057692105" y1="372.571894988" y2="367.272083496" /><line stroke="rgb(0%,0%,0%)" x1="580.057692105" x2="577.974311756" y1="367.272083496" y2="363.77099482" /><line stroke="rgb(0%,0%,0%)" x1="600.656346416" x2="600.291669391" y1="397.717143368" y2="394.811086492" /><line stroke="rgb(0%,0%,0%)" x1="598.432774332" x2="600.291669391" y1="392.500203802" y2="394.811086492" /><line stroke="rgb(0%,0%,0%)" x1="598.432774332" x2="594.430644257" y1="392.500203802" y2="384.637424347" /><line stroke="rgb(0%,0%,0%)" x1="615.908025764" x2="616.146451405" y1="448.456960116" y2="451.544289902" /><line stroke="rgb(0%,0%,0%)" x1="615.908025764" x2="615.501337995" y1="448.456960116" y2="443.518558103" /><line stroke="rgb(0%,0%,0%)" x1="553.489929481" x2="558.36123586" y1="331.848102131" y2="337.098003289" /><line stroke="rgb(0%,0%,0%)" x1="553.365450305" x2="553.489929481" y1="331.714084392" y2="331.848102131" /><line stroke="rgb(0%,0%,0%)" x1="577.974311756" x2="576.966885731" y1="363.77099482" y2="363.063145452" /><line stroke="rgb(0%,0%,0%)" x1="576.966885731" x2="574.873043495" y1="363.063145452" y2="359.630067937" /><line stroke="rgb(0%,0%,0%)" x1="573.629164484" x2="571.458613386" y1="356.047598415" y2="351.953762882" /><line stroke="rgb(0%,0%,0%)" x1="593.408184374" x2="592.756757346" y1="382.443823847" y2="381.191661883" /><line stroke="rgb(0%,0%,0%)" x1="603.833349652" x2="600.656346416" y1="404.14553441" y2="397.717143368" /><line stroke="rgb(0%,0%,0%)" x1="594.430644257" x2="593.408184374" y1="384.637424347" y2="382.443823847" /><line stroke="rgb(0%,0%,0%)" x1="615.501337995" x2="614.505040047" y1="443.518558103" y2="435.500604972" /><line stroke="rgb(0%,0%,0%)" x1="614.279381938" x2="612.992179684" y1="434.6304934" y2="428.058333583" /><line stroke="rgb(0%,0%,0%)" x1="553.078466612" x2="552.729600159" y1="331.361605585" y2="331.138522918" /><line stroke="rgb(0%,0%,0%)" x1="571.458613386" x2="566.362108028" y1="351.953762882" y2="345.576057255" /><line stroke="rgb(0%,0%,0%)" x1="566.362108028" x2="566.034646395" y1="345.576057255" y2="345.104218494" /><line stroke="rgb(0%,0%,0%)" x1="574.873043495" x2="573.629164484" y1="359.630067937" y2="356.047598415" /><line stroke="rgb(0%,0%,0%)" x1="592.756757346" x2="591.099772417" y1="381.191661883" y2="379.793443372" /><line stroke="rgb(0%,0%,0%)" x1="612.992179684" x2="612.800220034" y1="428.058333583" y2="427.381028497" /><line stroke="rgb(0%,0%,0%)" x1="612.800220034" x2="612.225253283" y1="427.381028497" y2="426.011794634" /><line stroke="rgb(0%,0%,0%)" x1="612.225253283" x2="609.728248777" y1="426.011794634" y2="418.363281265" /><line stroke="rgb(0%,0%,0%)" x1="609.728248777" x2="609.618720939" y1="418.363281265" y2="417.871318916" /><line stroke="rgb(0%,0%,0%)" x1="609.618720939" x2="609.277389648" y1="417.871318916" y2="416.867089861" /><line stroke="rgb(0%,0%,0%)" x1="609.277389648" x2="604.940150975" y1="416.867089861" y2="406.803668788" /><line stroke="rgb(0%,0%,0%)" x1="603.833349652" x2="604.940150975" y1="404.14553441" y2="406.803668788" /><line stroke="rgb(0%,0%,0%)" x1="615.371217157" x2="616.146451405" y1="456.498928146" y2="451.544289902" /><line stroke="rgb(0%,0%,0%)" x1="614.505040047" x2="614.279381938" y1="435.500604972" y2="434.6304934" /><line stroke="rgb(0%,0%,0%)" x1="508.027120265" x2="506.056925959" y1="281.519207131" y2="279.620105766" /><line stroke="rgb(0%,0%,0%)" x1="521.225158663" x2="521.034937856" y1="293.326561553" y2="292.716044704" /><line stroke="rgb(0%,0%,0%)" x1="534.211699176" x2="535.594253425" y1="306.998812807" y2="309.949416447" /><line stroke="rgb(0%,0%,0%)" x1="534.211699176" x2="532.170661832" y1="306.998812807" y2="305.723815366" /><line stroke="rgb(0%,0%,0%)" x1="532.170661832" x2="530.428803707" y1="305.723815366" y2="303.969188861" /><line stroke="rgb(0%,0%,0%)" x1="530.428803707" x2="524.080014937" y1="303.969188861" y2="296.927880363" /><line stroke="rgb(0%,0%,0%)" x1="552.729600159" x2="538.959048656" y1="331.138522918" y2="313.157300212" /><line stroke="rgb(0%,0%,0%)" x1="538.959048656" x2="535.594253425" y1="313.157300212" y2="309.949416447" /><line stroke="rgb(0%,0%,0%)" x1="566.034646395" x2="558.36123586" y1="345.104218494" y2="337.098003289" /><line stroke="rgb(0%,0%,0%)" x1="480.389467947" x2="482.740766472" y1="258.530153155" y2="260.408549952" /><line stroke="rgb(0%,0%,0%)" x1="480.389467947" x2="477.920721013" y1="258.530153155" y2="256.874049139" /><line stroke="rgb(0%,0%,0%)" x1="488.434873588" x2="493.156804289" y1="264.685717569" y2="269.214781362" /><line stroke="rgb(0%,0%,0%)" x1="506.056925959" x2="504.765856016" y1="279.620105766" y2="277.846028858" /><line stroke="rgb(0%,0%,0%)" x1="501.251565995" x2="504.765856016" y1="275.917691705" y2="277.846028858" /><line stroke="rgb(0%,0%,0%)" x1="500.050392794" x2="494.288436813" y1="275.163712978" y2="270.006778574" /><line stroke="rgb(0%,0%,0%)" x1="522.041166003" x2="521.225158663" y1="293.811163312" y2="293.326561553" /><line stroke="rgb(0%,0%,0%)" x1="521.034937856" x2="518.933239202" y1="292.716044704" y2="291.21198856" /><line stroke="rgb(0%,0%,0%)" x1="516.17215923" x2="518.933239202" y1="287.809680521" y2="291.21198856" /><line stroke="rgb(0%,0%,0%)" x1="516.17215923" x2="513.508296706" y1="287.809680521" y2="286.340602416" /><line stroke="rgb(0%,0%,0%)" x1="511.267372598" x2="512.557611962" y1="283.700424637" y2="285.572618282" /><line stroke="rgb(0%,0%,0%)" x1="513.508296706" x2="512.95210367" y1="286.340602416" y2="285.560052864" /><line stroke="rgb(0%,0%,0%)" x1="512.95210367" x2="512.557611962" y1="285.560052864" y2="285.572618282" /><line stroke="rgb(0%,0%,0%)" x1="511.267372598" x2="508.027120265" y1="283.700424637" y2="281.519207131" /><line stroke="rgb(0%,0%,0%)" x1="524.080014937" x2="522.041166003" y1="296.927880363" y2="293.811163312" /><line stroke="rgb(0%,0%,0%)" x1="442.9384658" x2="449.498963209" y1="244.908191131" y2="246.057912525" /><line stroke="rgb(0%,0%,0%)" x1="469.34095825" x2="471.933347035" y1="252.425799843" y2="254.723954693" /><line stroke="rgb(0%,0%,0%)" x1="488.434873588" x2="486.161550623" y1="264.685717569" y2="262.652392775" /><line stroke="rgb(0%,0%,0%)" x1="486.161550623" x2="484.272114972" y1="262.652392775" y2="261.798898261" /><line stroke="rgb(0%,0%,0%)" x1="484.272114972" x2="482.740766472" y1="261.798898261" y2="260.408549952" /><line stroke="rgb(0%,0%,0%)" x1="477.920721013" x2="471.933347035" y1="256.874049139" y2="254.723954693" /><line stroke="rgb(0%,0%,0%)" x1="494.288436813" x2="493.156804289" y1="270.006778574" y2="269.214781362" /><line stroke="rgb(0%,0%,0%)" x1="501.251565995" x2="500.050392794" y1="275.917691705" y2="275.163712978" /><line stroke="rgb(0%,0%,0%)" x1="409.973264378" x2="409.272983701" y1="315.946258994" y2="315.7311362" /><line stroke="rgb(0%,0%,0%)" x1="409.272983701" x2="407.488246371" y1="315.7311362" y2="315.33405029" /><line stroke="rgb(0%,0%,0%)" x1="430.499643367" x2="424.740725414" y1="328.770215914" y2="325.318213137" /><line stroke="rgb(0%,0%,0%)" x1="434.993084266" x2="437.946048304" y1="331.667545018" y2="333.879317154" /><line stroke="rgb(0%,0%,0%)" x1="434.993084266" x2="430.499643367" y1="331.667545018" y2="328.770215914" /><line stroke="rgb(0%,0%,0%)" x1="430.476754326" x2="427.777548488" y1="324.624545458" y2="323.136724539" /><line stroke="rgb(0%,0%,0%)" x1="442.9384658" x2="432.411128231" y1="244.908191131" y2="243.548950937" /><line stroke="rgb(0%,0%,0%)" x1="444.624146243" x2="444.980181304" y1="338.643418139" y2="337.296310061" /><line stroke="rgb(0%,0%,0%)" x1="444.70559605" x2="444.980181304" y1="336.905521676" y2="337.296310061" /><line stroke="rgb(0%,0%,0%)" x1="444.624146243" x2="442.514898708" y1="338.643418139" y2="337.494130828" /><line stroke="rgb(0%,0%,0%)" x1="442.750679464" x2="444.70559605" y1="335.963307388" y2="336.905521676" /><line stroke="rgb(0%,0%,0%)" x1="442.750679464" x2="441.333774474" y1="335.963307388" y2="333.275192452" /><line stroke="rgb(0%,0%,0%)" x1="440.381783568" x2="437.946048304" y1="336.055403528" y2="333.879317154" /><line stroke="rgb(0%,0%,0%)" x1="430.476754326" x2="437.446884323" y1="324.624545458" y2="329.90571788" /><line stroke="rgb(0%,0%,0%)" x1="437.446884323" x2="439.29560604" y1="329.90571788" y2="331.318480789" /><line stroke="rgb(0%,0%,0%)" x1="449.498963209" x2="456.844744939" y1="246.057912525" y2="247.672438891" /><line stroke="rgb(0%,0%,0%)" x1="457.796423252" x2="457.426444162" y1="247.902145093" y2="247.807163653" /><line stroke="rgb(0%,0%,0%)" x1="457.426444162" x2="457.073661482" y1="247.807163653" y2="247.789502144" /><line stroke="rgb(0%,0%,0%)" x1="457.073661482" x2="456.844744939" y1="247.789502144" y2="247.672438891" /><line stroke="rgb(0%,0%,0%)" x1="469.34095825" x2="457.796423252" y1="252.425799843" y2="247.902145093" /><line stroke="rgb(0%,0%,0%)" x1="398.386727497" x2="399.120029863" y1="317.206066555" y2="317.325379899" /><line stroke="rgb(0%,0%,0%)" x1="389.913261495" x2="397.434842961" y1="245.931874901" y2="245.861583635" /><line stroke="rgb(0%,0%,0%)" x1="389.913261495" x2="385.073739345" y1="245.931874901" y2="245.721372515" /><line stroke="rgb(0%,0%,0%)" x1="399.120029863" x2="402.642463629" y1="317.325379899" y2="318.049620249" /><line stroke="rgb(0%,0%,0%)" x1="408.588629875" x2="401.93186559" y1="247.419998227" y2="246.905989147" /><line stroke="rgb(0%,0%,0%)" x1="401.93186559" x2="397.434842961" y1="246.905989147" y2="245.861583635" /><line stroke="rgb(0%,0%,0%)" x1="410.449142526" x2="408.588629875" y1="246.403799314" y2="247.419998227" /><line stroke="rgb(0%,0%,0%)" x1="421.248844026" x2="419.941960112" y1="323.251262174" y2="322.605820928" /><line stroke="rgb(0%,0%,0%)" x1="412.221369245" x2="419.941960112" y1="320.203270579" y2="322.605820928" /><line stroke="rgb(0%,0%,0%)" x1="416.403823944" x2="421.74112907" y1="317.518852558" y2="319.881504027" /><line stroke="rgb(0%,0%,0%)" x1="412.221369245" x2="402.642463629" y1="320.203270579" y2="318.049620249" /><line stroke="rgb(0%,0%,0%)" x1="409.973264378" x2="416.403823944" y1="315.946258994" y2="317.518852558" /><line stroke="rgb(0%,0%,0%)" x1="419.328587908" x2="414.105434759" y1="241.929740634" y2="244.978091335" /><line stroke="rgb(0%,0%,0%)" x1="410.449142526" x2="414.105434759" y1="246.403799314" y2="244.978091335" /><line stroke="rgb(0%,0%,0%)" x1="424.740725414" x2="421.248844026" y1="325.318213137" y2="323.251262174" /><line stroke="rgb(0%,0%,0%)" x1="423.410710784" x2="419.328587908" y1="241.948602124" y2="241.929740634" /><line stroke="rgb(0%,0%,0%)" x1="432.411128231" x2="423.410710784" y1="243.548950937" y2="241.948602124" /><line stroke="rgb(0%,0%,0%)" x1="442.514898708" x2="440.900104799" y1="337.494130828" y2="336.350120167" /><line stroke="rgb(0%,0%,0%)" x1="440.900104799" x2="440.381783568" y1="336.350120167" y2="336.055403528" /><line stroke="rgb(0%,0%,0%)" x1="440.280320303" x2="441.333774474" y1="332.282130345" y2="333.275192452" /><line stroke="rgb(0%,0%,0%)" x1="439.29560604" x2="440.280320303" y1="331.318480789" y2="332.282130345" /><line stroke="rgb(0%,0%,0%)" x1="365.553735132" x2="371.469397653" y1="301.595250847" y2="304.015801063" /><line stroke="rgb(0%,0%,0%)" x1="367.96585355" x2="365.185014176" y1="246.968485826" y2="247.999425019" /><line stroke="rgb(0%,0%,0%)" x1="373.621700843" x2="367.96585355" y1="245.876013971" y2="246.968485826" /><line stroke="rgb(0%,0%,0%)" x1="390.320788425" x2="382.953709175" y1="317.189564693" y2="316.999556986" /><line stroke="rgb(0%,0%,0%)" x1="382.953709175" x2="372.776926001" y1="316.999556986" y2="316.307064617" /><line stroke="rgb(0%,0%,0%)" x1="382.479912372" x2="372.378593569" y1="307.979636509" y2="304.404906423" /><line stroke="rgb(0%,0%,0%)" x1="385.073739345" x2="376.784065275" y1="245.721372515" y2="246.074729611" /><line stroke="rgb(0%,0%,0%)" x1="376.784065275" x2="373.621700843" y1="246.074729611" y2="245.876013971" /><line stroke="rgb(0%,0%,0%)" x1="398.386727497" x2="390.320788425" y1="317.206066555" y2="317.189564693" /><line stroke="rgb(0%,0%,0%)" x1="382.479912372" x2="393.943716216" y1="307.979636509" y2="310.732499334" /><line stroke="rgb(0%,0%,0%)" x1="393.943716216" x2="397.210616384" y1="310.732499334" y2="311.910158722" /><line stroke="rgb(0%,0%,0%)" x1="397.210616384" x2="407.488246371" y1="311.910158722" y2="315.33405029" /><line stroke="rgb(0%,0%,0%)" x1="421.74112907" x2="424.632059605" y1="319.881504027" y2="320.859877273" /><line stroke="rgb(0%,0%,0%)" x1="424.632059605" x2="427.777548488" y1="320.859877273" y2="323.136724539" /><line stroke="rgb(0%,0%,0%)" x1="318.147390064" x2="315.298740235" y1="315.569867937" y2="316.218271767" /><line stroke="rgb(0%,0%,0%)" x1="318.147390064" x2="320.851374428" y1="315.569867937" y2="315.319880156" /><line stroke="rgb(0%,0%,0%)" x1="346.094775446" x2="320.851374428" y1="314.964583743" y2="315.319880156" /><line stroke="rgb(0%,0%,0%)" x1="346.094775446" x2="349.323777651" y1="314.964583743" y2="314.929919406" /><line stroke="rgb(0%,0%,0%)" x1="351.405521451" x2="351.065997065" y1="292.889409075" y2="292.500113532" /><line stroke="rgb(0%,0%,0%)" x1="352.541563531" x2="349.323777651" y1="315.485107759" y2="314.929919406" /><line stroke="rgb(0%,0%,0%)" x1="352.977010494" x2="354.928874323" y1="293.645120022" y2="294.718903855" /><line stroke="rgb(0%,0%,0%)" x1="351.405521451" x2="352.977010494" y1="292.889409075" y2="293.645120022" /><line stroke="rgb(0%,0%,0%)" x1="349.182696332" x2="351.065997065" y1="290.337001274" y2="292.500113532" /><line stroke="rgb(0%,0%,0%)" x1="348.886728465" x2="349.182696332" y1="289.101262643" y2="290.337001274" /><line stroke="rgb(0%,0%,0%)" x1="348.886728465" x2="349.249341244" y1="289.101262643" y2="287.200765863" /><line stroke="rgb(0%,0%,0%)" x1="351.327340358" x2="349.057195324" y1="285.105737655" y2="286.173293916" /><line stroke="rgb(0%,0%,0%)" x1="353.200047845" x2="351.327340358" y1="283.86880312" y2="285.105737655" /><line stroke="rgb(0%,0%,0%)" x1="354.459534897" x2="353.200047845" y1="283.785038273" y2="283.86880312" /><line stroke="rgb(0%,0%,0%)" x1="354.459534897" x2="356.109848616" y1="283.785038273" y2="282.774128918" /><line stroke="rgb(0%,0%,0%)" x1="355.886025804" x2="355.997444552" y1="260.23131724" y2="260.872776467" /><line stroke="rgb(0%,0%,0%)" x1="352.541563531" x2="371.018048747" y1="315.485107759" y2="316.138194389" /><line stroke="rgb(0%,0%,0%)" x1="365.553735132" x2="357.769923595" y1="301.595250847" y2="296.648486093" /><line stroke="rgb(0%,0%,0%)" x1="354.928874323" x2="355.685604186" y1="294.718903855" y2="295.443912744" /><line stroke="rgb(0%,0%,0%)" x1="349.121892946" x2="349.249341244" y1="286.715607531" y2="287.200765863" /><line stroke="rgb(0%,0%,0%)" x1="349.057195324" x2="349.121892946" y1="286.173293916" y2="286.715607531" /><line stroke="rgb(0%,0%,0%)" x1="356.109848616" x2="359.120395321" y1="282.774128918" y2="281.379944768" /><line stroke="rgb(0%,0%,0%)" x1="363.96370106" x2="359.120395321" y1="279.274136675" y2="281.379944768" /><line stroke="rgb(0%,0%,0%)" x1="363.657630799" x2="367.637598443" y1="271.756183833" y2="275.363146056" /><line stroke="rgb(0%,0%,0%)" x1="357.256806688" x2="363.657630799" y1="264.865145559" y2="271.756183833" /><line stroke="rgb(0%,0%,0%)" x1="355.997444552" x2="357.256806688" y1="260.872776467" y2="264.865145559" /><line stroke="rgb(0%,0%,0%)" x1="355.886025804" x2="356.964570294" y1="260.23131724" y2="258.710866772" /><line stroke="rgb(0%,0%,0%)" x1="362.612927118" x2="356.964570294" y1="250.034358276" y2="258.710866772" /><line stroke="rgb(0%,0%,0%)" x1="362.612927118" x2="365.185014176" y1="250.034358276" y2="247.999425019" /><line stroke="rgb(0%,0%,0%)" x1="372.776926001" x2="371.968185396" y1="316.307064617" y2="316.156722351" /><line stroke="rgb(0%,0%,0%)" x1="371.968185396" x2="371.018048747" y1="316.156722351" y2="316.138194389" /><line stroke="rgb(0%,0%,0%)" x1="355.853982034" x2="357.769923595" y1="295.556762298" y2="296.648486093" /><line stroke="rgb(0%,0%,0%)" x1="355.685604186" x2="355.853982034" y1="295.443912744" y2="295.556762298" /><line stroke="rgb(0%,0%,0%)" x1="367.825844334" x2="366.080688451" y1="275.632611017" y2="276.79936304" /><line stroke="rgb(0%,0%,0%)" x1="363.96370106" x2="366.080688451" y1="279.274136675" y2="276.79936304" /><line stroke="rgb(0%,0%,0%)" x1="367.637598443" x2="367.825844334" y1="275.363146056" y2="275.632611017" /><line stroke="rgb(0%,0%,0%)" x1="371.469397653" x2="372.378593569" y1="304.015801063" y2="304.404906423" /><line stroke="rgb(0%,0%,0%)" x1="299.995524416" x2="295.107383861" y1="317.805804296" y2="319.107235982" /><line stroke="rgb(0%,0%,0%)" x1="299.995524416" x2="305.307750808" y1="317.805804296" y2="317.321284729" /><line stroke="rgb(0%,0%,0%)" x1="315.298740235" x2="313.946212262" y1="316.218271767" y2="316.485445443" /><line stroke="rgb(0%,0%,0%)" x1="236.838711298" x2="237.875506524" y1="350.494281294" y2="349.542098614" /><line stroke="rgb(0%,0%,0%)" x1="255.650387183" x2="251.994081192" y1="333.299645622" y2="336.854668526" /><line stroke="rgb(0%,0%,0%)" x1="255.650387183" x2="262.302876942" y1="333.299645622" y2="329.333677102" /><line stroke="rgb(0%,0%,0%)" x1="268.306808167" x2="265.664335868" y1="325.847180043" y2="327.20048586" /><line stroke="rgb(0%,0%,0%)" x1="288.70979462" x2="279.982621616" y1="319.819508762" y2="321.066346776" /><line stroke="rgb(0%,0%,0%)" x1="279.982621616" x2="275.680877288" y1="321.066346776" y2="322.436215466" /><line stroke="rgb(0%,0%,0%)" x1="293.184083929" x2="288.70979462" y1="319.005553273" y2="319.819508762" /><line stroke="rgb(0%,0%,0%)" x1="295.107383861" x2="293.184083929" y1="319.107235982" y2="319.005553273" /><line stroke="rgb(0%,0%,0%)" x1="307.879037421" x2="305.307750808" y1="316.850207449" y2="317.321284729" /><line stroke="rgb(0%,0%,0%)" x1="311.855719262" x2="307.879037421" y1="316.621517083" y2="316.850207449" /><line stroke="rgb(0%,0%,0%)" x1="313.946212262" x2="311.855719262" y1="316.485445443" y2="316.621517083" /><line stroke="rgb(0%,0%,0%)" x1="236.838711298" x2="235.095277835" y1="350.494281294" y2="352.21206987" /><line stroke="rgb(0%,0%,0%)" x1="242.389299067" x2="237.875506524" y1="345.739325314" y2="349.542098614" /><line stroke="rgb(0%,0%,0%)" x1="243.857105166" x2="242.389299067" y1="343.225336311" y2="345.739325314" /><line stroke="rgb(0%,0%,0%)" x1="243.857105166" x2="245.344824412" y1="343.225336311" y2="341.968273354" /><line stroke="rgb(0%,0%,0%)" x1="245.344824412" x2="251.654265208" y1="341.968273354" y2="337.143595732" /><line stroke="rgb(0%,0%,0%)" x1="251.994081192" x2="251.654265208" y1="336.854668526" y2="337.143595732" /><line stroke="rgb(0%,0%,0%)" x1="265.664335868" x2="262.302876942" y1="327.20048586" y2="329.333677102" /><line stroke="rgb(0%,0%,0%)" x1="274.105555244" x2="268.306808167" y1="323.049231518" y2="325.847180043" /><line stroke="rgb(0%,0%,0%)" x1="275.680877288" x2="274.105555244" y1="322.436215466" y2="323.049231518" /><line stroke="rgb(0%,0%,0%)" x1="186.159739932" x2="207.224009194" y1="375.519232131" y2="365.244610784" /><line stroke="rgb(0%,0%,0%)" x1="230.510617111" x2="212.635365667" y1="354.546350308" y2="362.542939043" /><line stroke="rgb(0%,0%,0%)" x1="235.095277835" x2="230.510617111" y1="352.21206987" y2="354.546350308" /><line stroke="rgb(0%,0%,0%)" x1="163.176954021" x2="159.890152218" y1="396.861151769" y2="400.029368776" /><line stroke="rgb(0%,0%,0%)" x1="166.023576494" x2="163.176954021" y1="393.616892353" y2="396.861151769" /><line stroke="rgb(0%,0%,0%)" x1="186.159739932" x2="177.675180236" y1="375.519232131" y2="381.760323211" /><line stroke="rgb(0%,0%,0%)" x1="212.635365667" x2="207.224009194" y1="362.542939043" y2="365.244610784" /><line stroke="rgb(0%,0%,0%)" x1="150.095255823" x2="143.759468269" y1="405.573645351" y2="408.509900519" /><line stroke="rgb(0%,0%,0%)" x1="157.350863083" x2="150.095255823" y1="402.091306172" y2="405.573645351" /><line stroke="rgb(0%,0%,0%)" x1="157.350863083" x2="159.890152218" y1="402.091306172" y2="400.029368776" /><line stroke="rgb(0%,0%,0%)" x1="171.264022556" x2="166.023576494" y1="387.902873516" y2="393.616892353" /><line stroke="rgb(0%,0%,0%)" x1="173.344719706" x2="171.264022556" y1="385.272637088" y2="387.902873516" /><line stroke="rgb(0%,0%,0%)" x1="177.675180236" x2="173.344719706" y1="381.760323211" y2="385.272637088" /><line stroke="rgb(0%,0%,0%)" x1="109.341142837" x2="118.863954063" y1="418.542194259" y2="415.628109544" /><line stroke="rgb(0%,0%,0%)" x1="109.341142837" x2="93.6741827519" y1="418.542194259" y2="424.964588026" /><line stroke="rgb(0%,0%,0%)" x1="128.962441838" x2="142.425779162" y1="412.362279678" y2="408.759659719" /><line stroke="rgb(0%,0%,0%)" x1="128.962441838" x2="124.023475977" y1="412.362279678" y2="413.328109851" /><line stroke="rgb(0%,0%,0%)" x1="143.759468269" x2="142.425779162" y1="408.509900519" y2="408.759659719" /><line stroke="rgb(0%,0%,0%)" x1="80.1576953231" x2="92.5329474479" y1="436.218628231" y2="425.575953174" /><line stroke="rgb(0%,0%,0%)" x1="93.6741827519" x2="92.9773408987" y1="424.964588026" y2="425.315048212" /><line stroke="rgb(0%,0%,0%)" x1="124.023475977" x2="118.863954063" y1="413.328109851" y2="415.628109544" /><line stroke="rgb(0%,0%,0%)" x1="74.8136690296" x2="75.6674000038" y1="446.557859792" y2="451.977996421" /><line stroke="rgb(0%,0%,0%)" x1="77.2198124843" x2="75.6674000038" y1="457.765538109" y2="451.977996421" /><line stroke="rgb(0%,0%,0%)" x1="74.8136690296" x2="79.1182780163" y1="446.557859792" y2="437.844888267" /><line stroke="rgb(0%,0%,0%)" x1="79.6030083455" x2="79.1182780163" y1="436.834286087" y2="437.844888267" /><line stroke="rgb(0%,0%,0%)" x1="80.1576953231" x2="79.6030083455" y1="436.218628231" y2="436.834286087" /><line stroke="rgb(0%,0%,0%)" x1="92.9773408987" x2="92.5329474479" y1="425.315048212" y2="425.575953174" /><line stroke="rgb(0%,0%,0%)" x1="610.800466692" x2="611.050862948" y1="479.173799191" y2="478.726185291" /><line stroke="rgb(0%,0%,0%)" x1="580.412953086" x2="577.519339755" y1="540.451326948" y2="545.851225355" /><line stroke="rgb(0%,0%,0%)" x1="580.412953086" x2="581.071336813" y1="540.451326948" y2="538.627791587" /><line stroke="rgb(0%,0%,0%)" x1="582.795681512" x2="583.145365395" y1="536.260918533" y2="535.471700189" /><line stroke="rgb(0%,0%,0%)" x1="593.657128684" x2="592.830965156" y1="516.90785766" y2="518.638289036" /><line stroke="rgb(0%,0%,0%)" x1="593.657128684" x2="595.439692559" y1="516.90785766" y2="513.417843757" /><line stroke="rgb(0%,0%,0%)" x1="602.076394766" x2="602.595086067" y1="503.29990861" y2="502.228136823" /><line stroke="rgb(0%,0%,0%)" x1="608.513194281" x2="606.854842235" y1="487.240161462" y2="493.041088686" /><line stroke="rgb(0%,0%,0%)" x1="608.513194281" x2="609.091216621" y1="487.240161462" y2="484.400863787" /><line stroke="rgb(0%,0%,0%)" x1="611.050862948" x2="611.81365271" y1="478.726185291" y2="476.615618154" /><line stroke="rgb(0%,0%,0%)" x1="569.577832187" x2="570.685387786" y1="561.921688595" y2="560.217056344" /><line stroke="rgb(0%,0%,0%)" x1="569.577832187" x2="564.984171817" y1="561.921688595" y2="567.992678671" /><line stroke="rgb(0%,0%,0%)" x1="570.685387786" x2="572.545773117" y1="560.217056344" y2="555.991946323" /><line stroke="rgb(0%,0%,0%)" x1="581.071336813" x2="582.795681512" y1="538.627791587" y2="536.260918533" /><line stroke="rgb(0%,0%,0%)" x1="583.145365395" x2="584.753174812" y1="535.471700189" y2="532.258223292" /><line stroke="rgb(0%,0%,0%)" x1="584.753174812" x2="589.484218323" y1="532.258223292" y2="525.154427537" /><line stroke="rgb(0%,0%,0%)" x1="597.901013274" x2="595.949525404" y1="509.355301076" y2="512.563123519" /><line stroke="rgb(0%,0%,0%)" x1="597.901013274" x2="602.076394766" y1="509.355301076" y2="503.29990861" /><line stroke="rgb(0%,0%,0%)" x1="609.091216621" x2="610.800466692" y1="484.400863787" y2="479.173799191" /><line stroke="rgb(0%,0%,0%)" x1="613.844738054" x2="614.073475522" y1="470.91897599" y2="466.268709606" /><line stroke="rgb(0%,0%,0%)" x1="615.371217157" x2="614.073475522" y1="456.498928146" y2="466.268709606" /><line stroke="rgb(0%,0%,0%)" x1="572.545773117" x2="572.52383984" y1="555.991946323" y2="554.548715564" /><line stroke="rgb(0%,0%,0%)" x1="572.52383984" x2="574.16396299" y1="554.548715564" y2="551.183829417" /><line stroke="rgb(0%,0%,0%)" x1="574.16396299" x2="576.542631195" y1="551.183829417" y2="548.870265307" /><line stroke="rgb(0%,0%,0%)" x1="576.542631195" x2="577.519339755" y1="548.870265307" y2="545.851225355" /><line stroke="rgb(0%,0%,0%)" x1="589.484218323" x2="589.709436606" y1="525.154427537" y2="524.724465734" /><line stroke="rgb(0%,0%,0%)" x1="589.709436606" x2="589.935079365" y1="524.724465734" y2="524.536007527" /><line stroke="rgb(0%,0%,0%)" x1="592.830965156" x2="590.105203067" y1="518.638289036" y2="524.176370066" /><line stroke="rgb(0%,0%,0%)" x1="595.439692559" x2="595.766510075" y1="513.417843757" y2="513.110594249" /><line stroke="rgb(0%,0%,0%)" x1="595.766510075" x2="595.949525404" y1="513.110594249" y2="512.563123519" /><line stroke="rgb(0%,0%,0%)" x1="602.595086067" x2="605.787413777" y1="502.228136823" y2="495.534018772" /><line stroke="rgb(0%,0%,0%)" x1="605.787413777" x2="606.218018027" y1="495.534018772" y2="494.508558143" /><line stroke="rgb(0%,0%,0%)" x1="606.218018027" x2="606.854842235" y1="494.508558143" y2="493.041088686" /><line stroke="rgb(0%,0%,0%)" x1="611.81365271" x2="613.844738054" y1="476.615618154" y2="470.91897599" /><line stroke="rgb(0%,0%,0%)" x1="521.511001627" x2="521.395487694" y1="623.431105755" y2="623.580757114" /><line stroke="rgb(0%,0%,0%)" x1="521.511001627" x2="521.58832709" y1="623.431105755" y2="623.306272136" /><line stroke="rgb(0%,0%,0%)" x1="534.151066546" x2="530.116172139" y1="609.552091306" y2="613.630013236" /><line stroke="rgb(0%,0%,0%)" x1="541.025765949" x2="541.568298553" y1="598.377593207" y2="597.627983639" /><line stroke="rgb(0%,0%,0%)" x1="541.568298553" x2="542.16317179" y1="597.627983639" y2="596.619945636" /><line stroke="rgb(0%,0%,0%)" x1="542.16317179" x2="547.038599" y1="596.619945636" y2="590.349087544" /><line stroke="rgb(0%,0%,0%)" x1="547.038599" x2="551.014852076" y1="590.349087544" y2="584.639191652" /><line stroke="rgb(0%,0%,0%)" x1="554.540316503" x2="557.093506547" y1="580.184383901" y2="577.351747577" /><line stroke="rgb(0%,0%,0%)" x1="552.47234493" x2="554.540316503" y1="583.209115521" y2="580.184383901" /><line stroke="rgb(0%,0%,0%)" x1="557.093506547" x2="558.076360466" y1="577.351747577" y2="576.607651271" /><line stroke="rgb(0%,0%,0%)" x1="559.563169229" x2="562.92769624" y1="573.946097915" y2="571.094966609" /><line stroke="rgb(0%,0%,0%)" x1="558.076360466" x2="559.563169229" y1="576.607651271" y2="573.946097915" /><line stroke="rgb(0%,0%,0%)" x1="562.92769624" x2="564.984171817" y1="571.094966609" y2="567.992678671" /><line stroke="rgb(0%,0%,0%)" x1="589.935079365" x2="590.105203067" y1="524.536007527" y2="524.176370066" /><line stroke="rgb(0%,0%,0%)" x1="490.059249035" x2="485.841857337" y1="652.463186866" y2="655.458302075" /><line stroke="rgb(0%,0%,0%)" x1="490.059249035" x2="493.408094018" y1="652.463186866" y2="649.210135523" /><line stroke="rgb(0%,0%,0%)" x1="493.408094018" x2="496.318011011" y1="649.210135523" y2="646.930076575" /><line stroke="rgb(0%,0%,0%)" x1="498.780766332" x2="499.763288223" y1="645.437064481" y2="643.688626945" /><line stroke="rgb(0%,0%,0%)" x1="507.921219155" x2="500.82265898" y1="636.875115544" y2="643.098899779" /><line stroke="rgb(0%,0%,0%)" x1="511.549097206" x2="513.922171026" y1="634.245820038" y2="631.320370824" /><line stroke="rgb(0%,0%,0%)" x1="513.922171026" x2="515.412079138" y1="631.320370824" y2="630.128165894" /><line stroke="rgb(0%,0%,0%)" x1="517.283010248" x2="515.412079138" y1="629.852392135" y2="630.128165894" /><line stroke="rgb(0%,0%,0%)" x1="517.283010248" x2="521.395487694" y1="629.852392135" y2="623.580757114" /><line stroke="rgb(0%,0%,0%)" x1="521.58832709" x2="524.448085618" y1="623.306272136" y2="620.748971776" /><line stroke="rgb(0%,0%,0%)" x1="527.994391728" x2="530.116172139" y1="616.651938015" y2="613.630013236" /><line stroke="rgb(0%,0%,0%)" x1="534.151066546" x2="541.025765949" y1="609.552091306" y2="598.377593207" /><line stroke="rgb(0%,0%,0%)" x1="551.014852076" x2="552.47234493" y1="584.639191652" y2="583.209115521" /><line stroke="rgb(0%,0%,0%)" x1="449.737713699" x2="455.650637707" y1="668.709219726" y2="667.532144277" /><line stroke="rgb(0%,0%,0%)" x1="472.474066652" x2="471.473989014" y1="663.148822817" y2="664.216516444" /><line stroke="rgb(0%,0%,0%)" x1="468.10726623" x2="471.473989014" y1="664.931588317" y2="664.216516444" /><line stroke="rgb(0%,0%,0%)" x1="472.474066652" x2="477.340456852" y1="663.148822817" y2="660.957218923" /><line stroke="rgb(0%,0%,0%)" x1="477.588156091" x2="477.340456852" y1="660.802721601" y2="660.957218923" /><line stroke="rgb(0%,0%,0%)" x1="477.588156091" x2="478.016649026" y1="660.802721601" y2="660.444526167" /><line stroke="rgb(0%,0%,0%)" x1="478.016649026" x2="482.448960696" y1="660.444526167" y2="657.119865216" /><line stroke="rgb(0%,0%,0%)" x1="482.448960696" x2="485.841857337" y1="657.119865216" y2="655.458302075" /><line stroke="rgb(0%,0%,0%)" x1="496.318011011" x2="498.780766332" y1="646.930076575" y2="645.437064481" /><line stroke="rgb(0%,0%,0%)" x1="499.763288223" x2="500.82265898" y1="643.688626945" y2="643.098899779" /><line stroke="rgb(0%,0%,0%)" x1="507.921219155" x2="511.549097206" y1="636.875115544" y2="634.245820038" /><line stroke="rgb(0%,0%,0%)" x1="524.448085618" x2="527.994391728" y1="620.748971776" y2="616.651938015" /><line stroke="rgb(0%,0%,0%)" x1="438.798516317" x2="440.339990935" y1="580.96814001" y2="579.607376715" /><line stroke="rgb(0%,0%,0%)" x1="438.798516317" x2="431.750551283" y1="580.96814001" y2="585.791228638" /><line stroke="rgb(0%,0%,0%)" x1="436.360061541" x2="431.539891366" y1="667.609741435" y2="667.13509126" /><line stroke="rgb(0%,0%,0%)" x1="437.453286627" x2="431.353723287" y1="586.193497148" y2="590.908879996" /><line stroke="rgb(0%,0%,0%)" x1="436.360061541" x2="449.737713699" y1="667.609741435" y2="668.709219726" /><line stroke="rgb(0%,0%,0%)" x1="455.650637707" x2="460.002325322" y1="667.532144277" y2="666.427614865" /><line stroke="rgb(0%,0%,0%)" x1="442.316196927" x2="447.34245079" y1="581.988379826" y2="574.988375773" /><line stroke="rgb(0%,0%,0%)" x1="447.589648888" x2="447.34245079" y1="574.723659552" y2="574.988375773" /><line stroke="rgb(0%,0%,0%)" x1="444.083579942" x2="447.608259977" y1="576.320718942" y2="574.656654961" /><line stroke="rgb(0%,0%,0%)" x1="447.608259977" x2="447.62373366" y1="574.656654961" y2="574.656428106" /><line stroke="rgb(0%,0%,0%)" x1="447.62373366" x2="447.589648888" y1="574.656428106" y2="574.723659552" /><line stroke="rgb(0%,0%,0%)" x1="440.339990935" x2="444.083579942" y1="579.607376715" y2="576.320718942" /><line stroke="rgb(0%,0%,0%)" x1="460.002325322" x2="462.85937793" y1="666.427614865" y2="666.452427341" /><line stroke="rgb(0%,0%,0%)" x1="462.85937793" x2="468.10726623" y1="666.452427341" y2="664.931588317" /><line stroke="rgb(0%,0%,0%)" x1="392.670237915" x2="386.432667433" y1="606.779656899" y2="608.752046737" /><line stroke="rgb(0%,0%,0%)" x1="392.670237915" x2="401.575600082" y1="606.779656899" y2="604.829575209" /><line stroke="rgb(0%,0%,0%)" x1="402.078765216" x2="397.842331451" y1="598.418915735" y2="598.543940739" /><line stroke="rgb(0%,0%,0%)" x1="393.096907926" x2="400.889993027" y1="666.982811621" y2="666.601116877" /><line stroke="rgb(0%,0%,0%)" x1="406.976850966" x2="401.575600082" y1="602.994968364" y2="604.829575209" /><line stroke="rgb(0%,0%,0%)" x1="402.710746547" x2="402.078765216" y1="598.281663322" y2="598.418915735" /><line stroke="rgb(0%,0%,0%)" x1="402.710746547" x2="404.690481854" y1="598.281663322" y2="598.102046596" /><line stroke="rgb(0%,0%,0%)" x1="420.368191245" x2="420.081569374" y1="667.998419687" y2="667.930467278" /><line stroke="rgb(0%,0%,0%)" x1="400.889993027" x2="404.947429166" y1="666.601116877" y2="666.740638549" /><line stroke="rgb(0%,0%,0%)" x1="404.947429166" x2="407.687618773" y1="666.740638549" y2="666.290924286" /><line stroke="rgb(0%,0%,0%)" x1="411.515909043" x2="418.599199708" y1="601.284679687" y2="598.867080421" /><line stroke="rgb(0%,0%,0%)" x1="411.515909043" x2="406.976850966" y1="601.284679687" y2="602.994968364" /><line stroke="rgb(0%,0%,0%)" x1="418.599199708" x2="428.989166836" y1="598.867080421" y2="592.688096041" /><line stroke="rgb(0%,0%,0%)" x1="409.435744523" x2="412.945344478" y1="596.996643387" y2="595.750301899" /><line stroke="rgb(0%,0%,0%)" x1="412.945344478" x2="420.978051998" y1="595.750301899" y2="592.31781077" /><line stroke="rgb(0%,0%,0%)" x1="420.494235522" x2="420.368191245" y1="667.981416098" y2="667.998419687" /><line stroke="rgb(0%,0%,0%)" x1="420.494235522" x2="431.539891366" y1="667.981416098" y2="667.13509126" /><line stroke="rgb(0%,0%,0%)" x1="411.508256008" x2="420.081569374" y1="665.186695065" y2="667.930467278" /><line stroke="rgb(0%,0%,0%)" x1="429.82444249" x2="429.402888324" y1="592.016091531" y2="592.409844512" /><line stroke="rgb(0%,0%,0%)" x1="420.978051998" x2="421.878905678" y1="592.31781077" y2="591.842198142" /><line stroke="rgb(0%,0%,0%)" x1="421.878905678" x2="422.429413035" y1="591.842198142" y2="591.504348207" /><line stroke="rgb(0%,0%,0%)" x1="422.610166751" x2="423.29771903" y1="591.450211964" y2="590.988916407" /><line stroke="rgb(0%,0%,0%)" x1="427.837059893" x2="423.29771903" y1="588.450446198" y2="590.988916407" /><line stroke="rgb(0%,0%,0%)" x1="431.353723287" x2="429.82444249" y1="590.908879996" y2="592.016091531" /><line stroke="rgb(0%,0%,0%)" x1="437.453286627" x2="442.316196927" y1="586.193497148" y2="581.988379826" /><line stroke="rgb(0%,0%,0%)" x1="427.837059893" x2="431.750551283" y1="588.450446198" y2="585.791228638" /><line stroke="rgb(0%,0%,0%)" x1="357.732410431" x2="354.924108479" y1="598.801320989" y2="598.503334687" /><line stroke="rgb(0%,0%,0%)" x1="361.694583386" x2="370.282369491" y1="632.629517431" y2="635.069670414" /><line stroke="rgb(0%,0%,0%)" x1="361.694583386" x2="359.868985301" y1="632.629517431" y2="631.473352882" /><line stroke="rgb(0%,0%,0%)" x1="357.732410431" x2="366.650080565" y1="598.801320989" y2="598.883993029" /><line stroke="rgb(0%,0%,0%)" x1="373.053017038" x2="379.45154318" y1="661.171967476" y2="665.416056377" /><line stroke="rgb(0%,0%,0%)" x1="373.053017038" x2="370.078442511" y1="661.171967476" y2="657.538171983" /><line stroke="rgb(0%,0%,0%)" x1="374.799062612" x2="379.120767536" y1="643.106795675" y2="640.622086773" /><line stroke="rgb(0%,0%,0%)" x1="374.799062612" x2="370.053463673" y1="643.106795675" y2="647.886625549" /><line stroke="rgb(0%,0%,0%)" x1="375.668863941" x2="379.190661771" y1="637.329082221" y2="640.179718015" /><line stroke="rgb(0%,0%,0%)" x1="370.394405784" x2="375.668863941" y1="635.16051216" y2="637.329082221" /><line stroke="rgb(0%,0%,0%)" x1="370.282369491" x2="370.394405784" y1="635.069670414" y2="635.16051216" /><line stroke="rgb(0%,0%,0%)" x1="365.95555779" x2="372.781101193" y1="617.298070991" y2="614.463531721" /><line stroke="rgb(0%,0%,0%)" x1="366.650080565" x2="380.422128475" y1="598.883993029" y2="598.331107854" /><line stroke="rgb(0%,0%,0%)" x1="387.957358895" x2="381.518326478" y1="667.469338527" y2="666.533650513" /><line stroke="rgb(0%,0%,0%)" x1="393.096907926" x2="387.957358895" y1="666.982811621" y2="667.469338527" /><line stroke="rgb(0%,0%,0%)" x1="380.397893587" x2="381.518326478" y1="666.285832475" y2="666.533650513" /><line stroke="rgb(0%,0%,0%)" x1="379.45154318" x2="380.397893587" y1="665.416056377" y2="666.285832475" /><line stroke="rgb(0%,0%,0%)" x1="379.190661771" x2="379.472482468" y1="640.179718015" y2="640.388014227" /><line stroke="rgb(0%,0%,0%)" x1="373.710639997" x2="373.464811253" y1="614.040159719" y2="614.111925028" /><line stroke="rgb(0%,0%,0%)" x1="384.787422981" x2="373.710639997" y1="609.552311295" y2="614.040159719" /><line stroke="rgb(0%,0%,0%)" x1="386.432667433" x2="384.787422981" y1="608.752046737" y2="609.552311295" /><line stroke="rgb(0%,0%,0%)" x1="380.422128475" x2="397.842331451" y1="598.331107854" y2="598.543940739" /><line stroke="rgb(0%,0%,0%)" x1="404.690481854" x2="407.317111329" y1="598.102046596" y2="597.595821458" /><line stroke="rgb(0%,0%,0%)" x1="407.317111329" x2="409.435744523" y1="597.595821458" y2="596.996643387" /><line stroke="rgb(0%,0%,0%)" x1="407.687618773" x2="411.508256008" y1="666.290924286" y2="665.186695065" /><line stroke="rgb(0%,0%,0%)" x1="429.402888324" x2="428.989166836" y1="592.409844512" y2="592.688096041" /><line stroke="rgb(0%,0%,0%)" x1="304.57310961" x2="305.046696114" y1="594.264581383" y2="594.399196584" /><line stroke="rgb(0%,0%,0%)" x1="304.57310961" x2="304.06634537" y1="594.264581383" y2="594.154259645" /><line stroke="rgb(0%,0%,0%)" x1="320.780983568" x2="326.940282958" y1="596.530792018" y2="597.81244493" /><line stroke="rgb(0%,0%,0%)" x1="316.282389018" x2="320.780983568" y1="596.097994431" y2="596.530792018" /><line stroke="rgb(0%,0%,0%)" x1="326.940282958" x2="338.554585102" y1="597.81244493" y2="598.828907354" /><line stroke="rgb(0%,0%,0%)" x1="343.042249225" x2="338.554585102" y1="599.538780576" y2="598.828907354" /><line stroke="rgb(0%,0%,0%)" x1="360.525944341" x2="356.036625471" y1="621.109452659" y2="625.746099882" /><line stroke="rgb(0%,0%,0%)" x1="343.042249225" x2="354.924108479" y1="599.538780576" y2="598.503334687" /><line stroke="rgb(0%,0%,0%)" x1="359.868985301" x2="357.671008538" y1="631.473352882" y2="630.930893091" /><line stroke="rgb(0%,0%,0%)" x1="357.553526217" x2="357.671008538" y1="630.528640595" y2="630.930893091" /><line stroke="rgb(0%,0%,0%)" x1="357.553526217" x2="355.484161546" y1="630.528640595" y2="628.40258328" /><line stroke="rgb(0%,0%,0%)" x1="355.484161546" x2="355.898421263" y1="628.40258328" y2="625.931380432" /><line stroke="rgb(0%,0%,0%)" x1="355.946975814" x2="355.898421263" y1="625.895495838" y2="625.931380432" /><line stroke="rgb(0%,0%,0%)" x1="355.924028333" x2="355.946975814" y1="625.849460843" y2="625.895495838" /><line stroke="rgb(0%,0%,0%)" x1="355.992754576" x2="355.924028333" y1="625.789260172" y2="625.849460843" /><line stroke="rgb(0%,0%,0%)" x1="356.036625471" x2="355.992754576" y1="625.746099882" y2="625.789260172" /><line stroke="rgb(0%,0%,0%)" x1="361.134829585" x2="360.525944341" y1="620.923732868" y2="621.109452659" /><line stroke="rgb(0%,0%,0%)" x1="361.284744382" x2="361.134829585" y1="620.507526807" y2="620.923732868" /><line stroke="rgb(0%,0%,0%)" x1="362.24042322" x2="361.284744382" y1="620.266562007" y2="620.507526807" /><line stroke="rgb(0%,0%,0%)" x1="362.24042322" x2="364.355194543" y1="620.266562007" y2="618.435527394" /><line stroke="rgb(0%,0%,0%)" x1="365.95555779" x2="364.355194543" y1="617.298070991" y2="618.435527394" /><line stroke="rgb(0%,0%,0%)" x1="370.078442511" x2="368.428288727" y1="657.538171983" y2="653.891349906" /><line stroke="rgb(0%,0%,0%)" x1="368.159042474" x2="368.428288727" y1="652.868934451" y2="653.891349906" /><line stroke="rgb(0%,0%,0%)" x1="369.093832191" x2="368.159042474" y1="649.989844966" y2="652.868934451" /><line stroke="rgb(0%,0%,0%)" x1="370.053463673" x2="369.093832191" y1="647.886625549" y2="649.989844966" /><line stroke="rgb(0%,0%,0%)" x1="373.464811253" x2="372.781101193" y1="614.111925028" y2="614.463531721" /><line stroke="rgb(0%,0%,0%)" x1="379.349437624" x2="379.120767536" y1="640.498606948" y2="640.622086773" /><line stroke="rgb(0%,0%,0%)" x1="379.472482468" x2="379.349437624" y1="640.388014227" y2="640.498606948" /><line stroke="rgb(0%,0%,0%)" x1="304.06634537" x2="300.620943311" y1="594.154259645" y2="593.397828698" /><line stroke="rgb(0%,0%,0%)" x1="305.046696114" x2="316.282389018" y1="594.399196584" y2="596.097994431" /><line stroke="rgb(0%,0%,0%)" x1="250.332250505" x2="254.562900641" y1="577.290902002" y2="578.987232031" /><line stroke="rgb(0%,0%,0%)" x1="248.691839593" x2="250.332250505" y1="576.123623833" y2="577.290902002" /><line stroke="rgb(0%,0%,0%)" x1="248.691839593" x2="247.634964433" y1="576.123623833" y2="574.356764528" /><line stroke="rgb(0%,0%,0%)" x1="243.174366219" x2="245.614110369" y1="571.979031383" y2="573.149304814" /><line stroke="rgb(0%,0%,0%)" x1="242.904836034" x2="243.174366219" y1="571.793095911" y2="571.979031383" /><line stroke="rgb(0%,0%,0%)" x1="242.904836034" x2="242.582285654" y1="571.793095911" y2="571.533025242" /><line stroke="rgb(0%,0%,0%)" x1="265.314980536" x2="276.964053528" y1="584.98039944" y2="588.828092739" /><line stroke="rgb(0%,0%,0%)" x1="264.282413255" x2="265.314980536" y1="584.649758838" y2="584.98039944" /><line stroke="rgb(0%,0%,0%)" x1="264.282413255" x2="264.033597831" y1="584.649758838" y2="584.519186361" /><line stroke="rgb(0%,0%,0%)" x1="254.562900641" x2="264.033597831" y1="578.987232031" y2="584.519186361" /><line stroke="rgb(0%,0%,0%)" x1="279.010302852" x2="282.780886817" y1="589.765019021" y2="590.765655729" /><line stroke="rgb(0%,0%,0%)" x1="282.780886817" x2="288.535978541" y1="590.765655729" y2="592.854656605" /><line stroke="rgb(0%,0%,0%)" x1="288.535978541" x2="289.523029557" y1="592.854656605" y2="593.187806161" /><line stroke="rgb(0%,0%,0%)" x1="289.523029557" x2="289.643074067" y1="593.187806161" y2="593.150555612" /><line stroke="rgb(0%,0%,0%)" x1="289.643074067" x2="297.717044339" y1="593.150555612" y2="592.814833522" /><line stroke="rgb(0%,0%,0%)" x1="297.717044339" x2="300.620943311" y1="592.814833522" y2="593.397828698" /><line stroke="rgb(0%,0%,0%)" x1="222.257836823" x2="214.591914265" y1="558.099644905" y2="554.142172762" /><line stroke="rgb(0%,0%,0%)" x1="242.582285654" x2="240.897009268" y1="571.533025242" y2="569.781565407" /><line stroke="rgb(0%,0%,0%)" x1="228.546021041" x2="240.897009268" y1="561.571375209" y2="569.781565407" /><line stroke="rgb(0%,0%,0%)" x1="222.257836823" x2="228.546021041" y1="558.099644905" y2="561.571375209" /><line stroke="rgb(0%,0%,0%)" x1="245.614110369" x2="247.634964433" y1="573.149304814" y2="574.356764528" /><line stroke="rgb(0%,0%,0%)" x1="276.964053528" x2="279.010302852" y1="588.828092739" y2="589.765019021" /><line stroke="rgb(0%,0%,0%)" x1="171.622989989" x2="175.939886922" y1="521.237447371" y2="526.399154466" /><line stroke="rgb(0%,0%,0%)" x1="199.599345508" x2="214.591914265" y1="545.080865127" y2="554.142172762" /><line stroke="rgb(0%,0%,0%)" x1="192.838363435" x2="199.599345508" y1="541.944512782" y2="545.080865127" /><line stroke="rgb(0%,0%,0%)" x1="192.838363435" x2="186.609599686" y1="541.944512782" y2="536.215426726" /><line stroke="rgb(0%,0%,0%)" x1="157.770085166" x2="163.40878184" y1="510.360840946" y2="513.594542674" /><line stroke="rgb(0%,0%,0%)" x1="155.540088832" x2="157.770085166" y1="510.037770531" y2="510.360840946" /><line stroke="rgb(0%,0%,0%)" x1="152.244526983" x2="155.540088832" y1="508.238014928" y2="510.037770531" /><line stroke="rgb(0%,0%,0%)" x1="176.988308084" x2="178.481541313" y1="528.025782654" y2="529.387724633" /><line stroke="rgb(0%,0%,0%)" x1="178.481541313" x2="185.855860896" y1="529.387724633" y2="535.587159422" /><line stroke="rgb(0%,0%,0%)" x1="175.939886922" x2="176.988308084" y1="526.399154466" y2="528.025782654" /><line stroke="rgb(0%,0%,0%)" x1="169.960520009" x2="171.622989989" y1="519.72034422" y2="521.237447371" /><line stroke="rgb(0%,0%,0%)" x1="167.993607932" x2="169.960520009" y1="518.254204966" y2="519.72034422" /><line stroke="rgb(0%,0%,0%)" x1="163.40878184" x2="167.993607932" y1="513.594542674" y2="518.254204966" /><line stroke="rgb(0%,0%,0%)" x1="185.855860896" x2="186.609599686" y1="535.587159422" y2="536.215426726" /><line stroke="rgb(0%,0%,0%)" x1="128.161803927" x2="117.535657148" y1="502.877105075" y2="501.375078008" /><line stroke="rgb(0%,0%,0%)" x1="128.161803927" x2="135.884503415" y1="502.877105075" y2="504.96020266" /><line stroke="rgb(0%,0%,0%)" x1="146.346008194" x2="148.02730433" y1="506.199774551" y2="506.489564366" /><line stroke="rgb(0%,0%,0%)" x1="152.244526983" x2="148.02730433" y1="508.238014928" y2="506.489564366" /><line stroke="rgb(0%,0%,0%)" x1="135.884503415" x2="146.346008194" y1="504.96020266" y2="506.199774551" /><line stroke="rgb(0%,0%,0%)" x1="79.9983617732" x2="79.4957458774" y1="483.096344906" y2="482.45792268" /><line stroke="rgb(0%,0%,0%)" x1="79.4957458774" x2="76.5557356766" y1="482.45792268" y2="476.275055473" /><line stroke="rgb(0%,0%,0%)" x1="77.2198124843" x2="76.2191997698" y1="457.765538109" y2="459.02222075" /><line stroke="rgb(0%,0%,0%)" x1="76.2191997698" x2="74.0840915794" y1="459.02222075" y2="466.674780506" /><line stroke="rgb(0%,0%,0%)" x1="87.9958485223" x2="88.0075836991" y1="491.643579114" y2="491.646820357" /><line stroke="rgb(0%,0%,0%)" x1="87.985610527" x2="87.9958485223" y1="491.63742085" y2="491.643579114" /><line stroke="rgb(0%,0%,0%)" x1="79.9983617732" x2="87.985610527" y1="483.096344906" y2="491.63742085" /><line stroke="rgb(0%,0%,0%)" x1="88.0075836991" x2="106.800622546" y1="491.646820357" y2="498.336230322" /><line stroke="rgb(0%,0%,0%)" x1="106.800622546" x2="113.334419543" y1="498.336230322" y2="499.55927238" /><line stroke="rgb(0%,0%,0%)" x1="113.334419543" x2="117.535657148" y1="499.55927238" y2="501.375078008" /><line stroke="rgb(0%,0%,0%)" x1="74.1695943517" x2="76.5557356766" y1="470.813262886" y2="476.275055473" /><line stroke="rgb(0%,0%,0%)" x1="73.7938384457" x2="74.1695943517" y1="469.944798907" y2="470.813262886" /><line stroke="rgb(0%,0%,0%)" x1="73.6011174366" x2="73.7938384457" y1="469.560345413" y2="469.944798907" /><line stroke="rgb(0%,0%,0%)" x1="73.5941174532" x2="73.6011174366" y1="469.242807431" y2="469.560345413" /><line stroke="rgb(0%,0%,0%)" x1="74.0840915794" x2="73.5802155519" y1="466.674780506" y2="468.987111944" /><line stroke="rgb(0%,0%,0%)" x1="73.5802155519" x2="73.5941174532" y1="468.987111944" y2="469.242807431" /><line stroke="rgb(0%,0%,0%)" x1="422.429413035" x2="422.610166751" y1="591.504348207" y2="591.450211964" /></svg>