<?xml version="1.0" encoding="utf-8" ?>
<svg baseProfile="full" height="100%" version="1.1" viewBox="0.5 0.5 685.793960571 941.299331665" width="100%" xmlns="http://www.w3.org/2000/svg" xmlns:ev="http://www.w3.org/2001/xml-events" xmlns:xlink="http://www.w3.org/1999/xlink"><defs /><line stroke="rgb(0%,0%,0%)" x1="581.921949487" x2="583.203634943" y1="373.737568117" y2="375.375686031" /><line stroke="rgb(0%,0%,0%)" x1="583.203634943" x2="585.962516993" y1="375.375686031" y2="378.745280382" /><line stroke="rgb(0%,0%,0%)" x1="581.921949487" x2="575.944194969" y1="373.737568117" y2="367.662873734" /><line stroke="rgb(0%,0%,0%)" x1="575.944194969" x2="574.712215972" y1="367.662873734" y2="365.592551953" /><line stroke="rgb(0%,0%,0%)" x1="596.79718016" x2="596.545968339" y1="397.275057496" y2="395.273187915" /><line stroke="rgb(0%,0%,0%)" x1="595.265447814" x2="596.545968339" y1="393.681310687" y2="395.273187915" /><line stroke="rgb(0%,0%,0%)" x1="595.265447814" x2="592.508536027" y1="393.681310687" y2="388.264947662" /><line stroke="rgb(0%,0%,0%)" x1="574.712215972" x2="574.116488118" y1="365.592551953" y2="365.173974733" /><line stroke="rgb(0%,0%,0%)" x1="574.116488118" x2="571.262559806" y1="365.173974733" y2="360.494655083" /><line stroke="rgb(0%,0%,0%)" x1="569.567140033" x2="568.555606245" y1="355.611712604" y2="353.703877782" /><line stroke="rgb(0%,0%,0%)" x1="590.499139636" x2="589.218918141" y1="383.953959033" y2="381.49313903" /><line stroke="rgb(0%,0%,0%)" x1="600.888495075" x2="596.79718016" y1="405.553479075" y2="397.275057496" /><line stroke="rgb(0%,0%,0%)" x1="592.508536027" x2="590.499139636" y1="388.264947662" y2="383.953959033" /><line stroke="rgb(0%,0%,0%)" x1="611.248801453" x2="612.971753216" y1="436.227661738" y2="450.093540427" /><line stroke="rgb(0%,0%,0%)" x1="610.810709856" x2="609.764274806" y1="434.538431205" y2="429.195573575" /><line stroke="rgb(0%,0%,0%)" x1="568.555606245" x2="566.180500964" y1="353.703877782" y2="350.731699545" /><line stroke="rgb(0%,0%,0%)" x1="566.180500964" x2="561.859361766" y1="350.731699545" y2="344.505379391" /><line stroke="rgb(0%,0%,0%)" x1="571.262559806" x2="569.567140033" y1="360.494655083" y2="355.611712604" /><line stroke="rgb(0%,0%,0%)" x1="589.218918141" x2="585.962516993" y1="381.49313903" y2="378.745280382" /><line stroke="rgb(0%,0%,0%)" x1="609.764274806" x2="609.339354787" y1="429.195573575" y2="427.696297605" /><line stroke="rgb(0%,0%,0%)" x1="609.339354787" x2="608.066613963" y1="427.696297605" y2="424.665374807" /><line stroke="rgb(0%,0%,0%)" x1="608.066613963" x2="606.244110311" y1="424.665374807" y2="419.082908488" /><line stroke="rgb(0%,0%,0%)" x1="606.244110311" x2="605.993073669" y1="419.082908488" y2="417.955336009" /><line stroke="rgb(0%,0%,0%)" x1="605.993073669" x2="605.210745975" y1="417.955336009" y2="415.653653675" /><line stroke="rgb(0%,0%,0%)" x1="605.210745975" x2="601.767230907" y1="415.653653675" y2="407.663883061" /><line stroke="rgb(0%,0%,0%)" x1="600.888495075" x2="601.767230907" y1="405.553479075" y2="407.663883061" /><line stroke="rgb(0%,0%,0%)" x1="612.028542287" x2="612.982793674" y1="456.775737773" y2="450.676974171" /><line stroke="rgb(0%,0%,0%)" x1="612.982793674" x2="612.96723182" y1="450.676974171" y2="450.323602781" /><line stroke="rgb(0%,0%,0%)" x1="612.96723182" x2="612.971753216" y1="450.323602781" y2="450.093540427" /><line stroke="rgb(0%,0%,0%)" x1="611.248801453" x2="610.810709856" y1="436.227661738" y2="434.538431205" /><line stroke="rgb(0%,0%,0%)" x1="519.947644107" x2="519.542907155" y1="293.569302182" y2="292.270292193" /><line stroke="rgb(0%,0%,0%)" x1="532.539520727" x2="533.08467229" y1="307.773200118" y2="308.936645378" /><line stroke="rgb(0%,0%,0%)" x1="532.539520727" x2="531.734724315" y1="307.773200118" y2="307.270459015" /><line stroke="rgb(0%,0%,0%)" x1="531.734724315" x2="528.812543278" y1="307.270459015" y2="304.32685745" /><line stroke="rgb(0%,0%,0%)" x1="528.812543278" x2="526.021983949" y1="304.32685745" y2="301.231906613" /><line stroke="rgb(0%,0%,0%)" x1="534.411436417" x2="540.3114519" y1="310.201538131" y2="317.905622629" /><line stroke="rgb(0%,0%,0%)" x1="534.411436417" x2="533.08467229" y1="310.201538131" y2="308.936645378" /><line stroke="rgb(0%,0%,0%)" x1="556.962983339" x2="552.556935396" y1="339.396639382" y2="332.470891067" /><line stroke="rgb(0%,0%,0%)" x1="561.859361766" x2="556.962983339" y1="344.505379391" y2="339.396639382" /><line stroke="rgb(0%,0%,0%)" x1="477.551728104" x2="478.951664014" y1="258.755165764" y2="259.873541461" /><line stroke="rgb(0%,0%,0%)" x1="477.551728104" x2="476.081864772" y1="258.755165764" y2="257.769140613" /><line stroke="rgb(0%,0%,0%)" x1="486.271964779" x2="489.053312938" y1="264.994591502" y2="267.662335703" /><line stroke="rgb(0%,0%,0%)" x1="502.611044969" x2="505.229184947" y1="277.417726826" y2="281.015348863" /><line stroke="rgb(0%,0%,0%)" x1="500.027753241" x2="502.611044969" y1="276.000240681" y2="277.417726826" /><line stroke="rgb(0%,0%,0%)" x1="497.66489892" x2="493.422844858" y1="274.517072481" y2="270.720446022" /><line stroke="rgb(0%,0%,0%)" x1="521.683880689" x2="519.947644107" y1="294.600399894" y2="293.569302182" /><line stroke="rgb(0%,0%,0%)" x1="519.542907155" x2="515.071077176" y1="292.270292193" y2="289.070079193" /><line stroke="rgb(0%,0%,0%)" x1="514.065567456" x2="515.071077176" y1="287.83105177" y2="289.070079193" /><line stroke="rgb(0%,0%,0%)" x1="514.065567456" x2="513.095461669" y1="287.83105177" y2="287.296053752" /><line stroke="rgb(0%,0%,0%)" x1="509.981812275" x2="510.560295804" y1="284.408685915" y2="285.248090771" /><line stroke="rgb(0%,0%,0%)" x1="513.095461669" x2="511.612276409" y1="287.296053752" y2="285.214582903" /><line stroke="rgb(0%,0%,0%)" x1="511.612276409" x2="510.560295804" y1="285.214582903" y2="285.248090771" /><line stroke="rgb(0%,0%,0%)" x1="509.981812275" x2="506.253228284" y1="284.408685915" y2="281.898741676" /><line stroke="rgb(0%,0%,0%)" x1="526.021983949" x2="521.683880689" y1="301.231906613" y2="294.600399894" /><line stroke="rgb(0%,0%,0%)" x1="550.641914497" x2="540.3114519" y1="330.647295127" y2="317.905622629" /><line stroke="rgb(0%,0%,0%)" x1="552.556935396" x2="550.641914497" y1="332.470891067" y2="330.647295127" /><line stroke="rgb(0%,0%,0%)" x1="441.939339863" x2="443.035039664" y1="246.323549024" y2="246.515569449" /><line stroke="rgb(0%,0%,0%)" x1="465.826502258" x2="467.5769334" y1="253.163220656" y2="254.714979344" /><line stroke="rgb(0%,0%,0%)" x1="486.271964779" x2="484.932914495" y1="264.994591502" y2="263.796906798" /><line stroke="rgb(0%,0%,0%)" x1="484.932914495" x2="481.629231072" y1="263.796906798" y2="262.304569297" /><line stroke="rgb(0%,0%,0%)" x1="481.629231072" x2="478.951664014" y1="262.304569297" y2="259.873541461" /><line stroke="rgb(0%,0%,0%)" x1="476.081864772" x2="467.5769334" y1="257.769140613" y2="254.714979344" /><line stroke="rgb(0%,0%,0%)" x1="493.422844858" x2="489.053312938" y1="270.720446022" y2="267.662335703" /><line stroke="rgb(0%,0%,0%)" x1="506.253228284" x2="505.229184947" y1="281.898741676" y2="281.015348863" /><line stroke="rgb(0%,0%,0%)" x1="500.027753241" x2="497.66489892" y1="276.000240681" y2="274.517072481" /><line stroke="rgb(0%,0%,0%)" x1="429.141577114" x2="428.52227185" y1="323.264328337" y2="322.922962993" /><line stroke="rgb(0%,0%,0%)" x1="441.939339863" x2="440.181119265" y1="246.323549024" y2="246.09653587" /><line stroke="rgb(0%,0%,0%)" x1="449.536142269" x2="449.599866442" y1="343.299322325" y2="343.058213071" /><line stroke="rgb(0%,0%,0%)" x1="445.793474124" x2="449.599866442" y1="337.640974203" y2="343.058213071" /><line stroke="rgb(0%,0%,0%)" x1="449.536142269" x2="449.158623117" y1="343.299322325" y2="343.093619597" /><line stroke="rgb(0%,0%,0%)" x1="445.472757724" x2="445.793474124" y1="337.486398005" y2="337.640974203" /><line stroke="rgb(0%,0%,0%)" x1="445.472757724" x2="445.240305521" y1="337.486398005" y2="337.04539579" /><line stroke="rgb(0%,0%,0%)" x1="441.608022839" x2="438.423092361" y1="338.000948064" y2="335.155530537" /><line stroke="rgb(0%,0%,0%)" x1="429.141577114" x2="430.74080239" y1="323.264328337" y2="324.476039514" /><line stroke="rgb(0%,0%,0%)" x1="430.74080239" x2="437.637201639" y1="324.476039514" y2="329.746155065" /><line stroke="rgb(0%,0%,0%)" x1="443.035039664" x2="444.261893524" y1="246.515569449" y2="246.785219158" /><line stroke="rgb(0%,0%,0%)" x1="458.031408523" x2="452.67830489" y1="250.108761312" y2="248.734506651" /><line stroke="rgb(0%,0%,0%)" x1="452.67830489" x2="447.574010376" y1="248.734506651" y2="248.478968196" /><line stroke="rgb(0%,0%,0%)" x1="447.574010376" x2="444.261893524" y1="248.478968196" y2="246.785219158" /><line stroke="rgb(0%,0%,0%)" x1="465.826502258" x2="458.031408523" y1="253.163220656" y2="250.108761312" /><line stroke="rgb(0%,0%,0%)" x1="388.210828513" x2="390.671651093" y1="246.17238686" y2="246.14938979" /><line stroke="rgb(0%,0%,0%)" x1="388.210828513" x2="386.627490562" y1="246.17238686" y2="246.103517165" /><line stroke="rgb(0%,0%,0%)" x1="417.627645885" x2="403.177073717" y1="251.615157912" y2="249.037179686" /><line stroke="rgb(0%,0%,0%)" x1="390.671651093" x2="401.711824524" y1="246.14938979" y2="248.713401345" /><line stroke="rgb(0%,0%,0%)" x1="422.036775136" x2="416.900156669" y1="324.229923371" y2="321.69306039" /><line stroke="rgb(0%,0%,0%)" x1="412.932889422" x2="416.900156669" y1="320.458496938" y2="321.69306039" /><line stroke="rgb(0%,0%,0%)" x1="415.862237746" x2="417.786411179" y1="316.281736434" y2="317.13350546" /><line stroke="rgb(0%,0%,0%)" x1="412.932889422" x2="404.287042395" y1="320.458496938" y2="318.514628604" /><line stroke="rgb(0%,0%,0%)" x1="415.862237746" x2="412.904692277" y1="316.281736434" y2="315.558468587" /><line stroke="rgb(0%,0%,0%)" x1="408.159098652" x2="412.904692277" y1="313.738439499" y2="315.558468587" /><line stroke="rgb(0%,0%,0%)" x1="421.478958499" x2="417.627645885" y1="246.904698793" y2="251.615157912" /><line stroke="rgb(0%,0%,0%)" x1="403.177073717" x2="402.536270076" y1="249.037179686" y2="248.906758604" /><line stroke="rgb(0%,0%,0%)" x1="423.44228375" x2="421.478958499" y1="245.758857625" y2="246.904698793" /><line stroke="rgb(0%,0%,0%)" x1="435.248673314" x2="434.367687096" y1="332.630938813" y2="332.049301683" /><line stroke="rgb(0%,0%,0%)" x1="434.367687096" x2="430.413708643" y1="332.049301683" y2="329.336397191" /><line stroke="rgb(0%,0%,0%)" x1="430.413708643" x2="427.348397949" y1="329.336397191" y2="327.374034716" /><line stroke="rgb(0%,0%,0%)" x1="422.036775136" x2="427.348397949" y1="324.229923371" y2="327.374034716" /><line stroke="rgb(0%,0%,0%)" x1="438.677916842" x2="423.44228375" y1="245.829254021" y2="245.758857625" /><line stroke="rgb(0%,0%,0%)" x1="440.181119265" x2="438.677916842" y1="246.09653587" y2="245.829254021" /><line stroke="rgb(0%,0%,0%)" x1="449.158623117" x2="443.442727567" y1="343.093619597" y2="339.044158297" /><line stroke="rgb(0%,0%,0%)" x1="443.442727567" x2="441.608022839" y1="339.044158297" y2="338.000948064" /><line stroke="rgb(0%,0%,0%)" x1="438.423092361" x2="436.603773968" y1="335.155530537" y2="333.628010166" /><line stroke="rgb(0%,0%,0%)" x1="436.603773968" x2="435.248673314" y1="333.628010166" y2="332.630938813" /><line stroke="rgb(0%,0%,0%)" x1="441.310541246" x2="445.240305521" y1="333.340915714" y2="337.04539579" /><line stroke="rgb(0%,0%,0%)" x1="437.637201639" x2="441.310541246" y1="329.746155065" y2="333.340915714" /><line stroke="rgb(0%,0%,0%)" x1="369.068199454" x2="370.226604177" y1="300.224989201" y2="300.698981217" /><line stroke="rgb(0%,0%,0%)" x1="365.989210134" x2="369.583409066" y1="251.478941073" y2="250.146465497" /><line stroke="rgb(0%,0%,0%)" x1="379.559838666" x2="382.578776956" y1="317.052343671" y2="317.130206488" /><line stroke="rgb(0%,0%,0%)" x1="379.559838666" x2="376.382184198" y1="317.052343671" y2="316.836116065" /><line stroke="rgb(0%,0%,0%)" x1="381.756604397" x2="377.25854919" y1="305.300223195" y2="303.708417848" /><line stroke="rgb(0%,0%,0%)" x1="386.627490562" x2="381.241990697" y1="246.103517165" y2="246.333080423" /><line stroke="rgb(0%,0%,0%)" x1="381.241990697" x2="372.878747512" y1="246.333080423" y2="248.00195786" /><line stroke="rgb(0%,0%,0%)" x1="390.573638821" x2="382.578776956" y1="317.643502715" y2="317.130206488" /><line stroke="rgb(0%,0%,0%)" x1="390.573638821" x2="397.222123009" y1="317.643502715" y2="317.608902255" /><line stroke="rgb(0%,0%,0%)" x1="381.756604397" x2="386.861365821" y1="305.300223195" y2="306.526056099" /><line stroke="rgb(0%,0%,0%)" x1="386.861365821" x2="393.643919597" y1="306.526056099" y2="308.971046066" /><line stroke="rgb(0%,0%,0%)" x1="402.322819527" x2="401.711824524" y1="248.830700521" y2="248.713401345" /><line stroke="rgb(0%,0%,0%)" x1="404.287042395" x2="401.400774579" y1="318.514628604" y2="317.792016705" /><line stroke="rgb(0%,0%,0%)" x1="401.400774579" x2="397.222123009" y1="317.792016705" y2="317.608902255" /><line stroke="rgb(0%,0%,0%)" x1="393.643919597" x2="403.487012863" y1="308.971046066" y2="312.250175989" /><line stroke="rgb(0%,0%,0%)" x1="402.536270076" x2="402.322819527" y1="248.906758604" y2="248.830700521" /><line stroke="rgb(0%,0%,0%)" x1="417.786411179" x2="422.927973633" y1="317.13350546" y2="318.87355666" /><line stroke="rgb(0%,0%,0%)" x1="422.927973633" x2="428.52227185" y1="318.87355666" y2="322.922962993" /><line stroke="rgb(0%,0%,0%)" x1="354.164796245" x2="349.57817472" y1="315.179239421" y2="314.387875748" /><line stroke="rgb(0%,0%,0%)" x1="354.671528202" x2="355.502196897" y1="289.750291915" y2="290.704377263" /><line stroke="rgb(0%,0%,0%)" x1="354.59684447" x2="354.671528202" y1="289.438468964" y2="289.750291915" /><line stroke="rgb(0%,0%,0%)" x1="354.59684447" x2="354.6883452" y1="289.438468964" y2="288.958902735" /><line stroke="rgb(0%,0%,0%)" x1="354.15986429" x2="354.079392076" y1="285.664773001" y2="285.702615788" /><line stroke="rgb(0%,0%,0%)" x1="356.989991799" x2="354.15986429" y1="283.795456794" y2="285.664773001" /><line stroke="rgb(0%,0%,0%)" x1="356.989991799" x2="357.587476534" y1="283.795456794" y2="283.75571981" /><line stroke="rgb(0%,0%,0%)" x1="354.164796245" x2="362.015009897" y1="315.179239421" y2="315.456720204" /><line stroke="rgb(0%,0%,0%)" x1="369.068199454" x2="367.543973889" y1="300.224989201" y2="299.256313987" /><line stroke="rgb(0%,0%,0%)" x1="361.521397337" x2="359.640349106" y1="295.775736502" y2="293.973538975" /><line stroke="rgb(0%,0%,0%)" x1="357.592967402" x2="359.395666123" y1="293.173040346" y2="293.776440562" /><line stroke="rgb(0%,0%,0%)" x1="355.502196897" x2="356.77658408" y1="290.704377263" y2="292.483515334" /><line stroke="rgb(0%,0%,0%)" x1="354.284433219" x2="354.6883452" y1="287.421328158" y2="288.958902735" /><line stroke="rgb(0%,0%,0%)" x1="354.079392076" x2="354.284433219" y1="285.702615788" y2="287.421328158" /><line stroke="rgb(0%,0%,0%)" x1="366.594461666" x2="363.102930783" y1="280.809299379" y2="282.327372857" /><line stroke="rgb(0%,0%,0%)" x1="360.699651003" x2="361.099584416" y1="260.982317843" y2="263.065249516" /><line stroke="rgb(0%,0%,0%)" x1="362.621966065" x2="360.699651003" y1="255.991151401" y2="260.982317843" /><line stroke="rgb(0%,0%,0%)" x1="365.102906182" x2="362.621966065" y1="252.180149605" y2="255.991151401" /><line stroke="rgb(0%,0%,0%)" x1="365.102906182" x2="365.989210134" y1="252.180149605" y2="251.478941073" /><line stroke="rgb(0%,0%,0%)" x1="376.382184198" x2="369.776085218" y1="316.836116065" y2="315.608063607" /><line stroke="rgb(0%,0%,0%)" x1="369.776085218" x2="362.015009897" y1="315.608063607" y2="315.456720204" /><line stroke="rgb(0%,0%,0%)" x1="362.007919928" x2="367.543973889" y1="296.101811803" y2="299.256313987" /><line stroke="rgb(0%,0%,0%)" x1="361.521397337" x2="362.007919928" y1="295.775736502" y2="296.101811803" /><line stroke="rgb(0%,0%,0%)" x1="359.395666123" x2="359.640349106" y1="293.776440562" y2="293.973538975" /><line stroke="rgb(0%,0%,0%)" x1="356.77658408" x2="357.592967402" y1="292.483515334" y2="293.173040346" /><line stroke="rgb(0%,0%,0%)" x1="359.543015336" x2="357.587476534" y1="283.756124391" y2="283.75571981" /><line stroke="rgb(0%,0%,0%)" x1="363.102930783" x2="359.543015336" y1="282.327372857" y2="283.756124391" /><line stroke="rgb(0%,0%,0%)" x1="373.484205088" x2="367.17350723" y1="275.913272399" y2="280.132390909" /><line stroke="rgb(0%,0%,0%)" x1="366.594461666" x2="367.17350723" y1="280.809299379" y2="280.132390909" /><line stroke="rgb(0%,0%,0%)" x1="373.484205088" x2="373.387266047" y1="275.913272399" y2="275.774508813" /><line stroke="rgb(0%,0%,0%)" x1="368.479845673" x2="373.387266047" y1="272.011641654" y2="275.774508813" /><line stroke="rgb(0%,0%,0%)" x1="368.479845673" x2="362.124270972" y1="272.011641654" y2="265.869550567" /><line stroke="rgb(0%,0%,0%)" x1="361.099584416" x2="362.124270972" y1="263.065249516" y2="265.869550567" /><line stroke="rgb(0%,0%,0%)" x1="372.878747512" x2="369.583409066" y1="248.00195786" y2="250.146465497" /><line stroke="rgb(0%,0%,0%)" x1="370.226604177" x2="377.25854919" y1="300.698981217" y2="303.708417848" /><line stroke="rgb(0%,0%,0%)" x1="403.487012863" x2="408.159098652" y1="312.250175989" y2="313.738439499" /><line stroke="rgb(0%,0%,0%)" x1="301.268120312" x2="300.668753886" y1="315.81807335" y2="315.977650279" /><line stroke="rgb(0%,0%,0%)" x1="301.268120312" x2="301.919486637" y1="315.81807335" y2="315.758663282" /><line stroke="rgb(0%,0%,0%)" x1="319.836913009" x2="347.721701358" y1="314.215780633" y2="314.13458422" /><line stroke="rgb(0%,0%,0%)" x1="348.477918048" x2="347.721701358" y1="314.148822317" y2="314.13458422" /><line stroke="rgb(0%,0%,0%)" x1="349.57817472" x2="348.849607762" y1="314.387875748" y2="314.21754875" /><line stroke="rgb(0%,0%,0%)" x1="348.849607762" x2="348.477918048" y1="314.21754875" y2="314.148822317" /><line stroke="rgb(0%,0%,0%)" x1="250.2326617" x2="248.50377219" y1="334.565172399" y2="336.246170057" /><line stroke="rgb(0%,0%,0%)" x1="250.2326617" x2="253.378300985" y1="334.565172399" y2="332.68985852" /><line stroke="rgb(0%,0%,0%)" x1="288.967435205" x2="285.803405782" y1="317.280411439" y2="317.732451539" /><line stroke="rgb(0%,0%,0%)" x1="285.803405782" x2="276.586796413" y1="317.732451539" y2="320.667434105" /><line stroke="rgb(0%,0%,0%)" x1="297.150999842" x2="288.967435205" y1="315.79167057" y2="317.280411439" /><line stroke="rgb(0%,0%,0%)" x1="300.668753886" x2="297.150999842" y1="315.977650279" y2="315.79167057" /><line stroke="rgb(0%,0%,0%)" x1="307.63225884" x2="301.919486637" y1="314.712044374" y2="315.758663282" /><line stroke="rgb(0%,0%,0%)" x1="316.467476728" x2="307.63225884" y1="314.203950115" y2="314.712044374" /><line stroke="rgb(0%,0%,0%)" x1="319.836913009" x2="319.514539153" y1="314.215780633" y2="314.005614707" /><line stroke="rgb(0%,0%,0%)" x1="316.467476728" x2="319.514539153" y1="314.203950115" y2="314.005614707" /><line stroke="rgb(0%,0%,0%)" x1="248.50377219" x2="240.454120521" y1="336.246170057" y2="343.090354793" /><line stroke="rgb(0%,0%,0%)" x1="253.378300985" x2="260.446424567" y1="332.68985852" y2="328.204407513" /><line stroke="rgb(0%,0%,0%)" x1="273.211624201" x2="261.471574624" y1="321.980838404" y2="327.64551975" /><line stroke="rgb(0%,0%,0%)" x1="261.471574624" x2="260.897606451" y1="327.64551975" y2="327.885693918" /><line stroke="rgb(0%,0%,0%)" x1="276.586796413" x2="273.211624201" y1="320.667434105" y2="321.980838404" /><line stroke="rgb(0%,0%,0%)" x1="178.33505368" x2="184.699928018" y1="374.752349961" y2="371.647724164" /><line stroke="rgb(0%,0%,0%)" x1="225.681076158" x2="200.864393322" y1="352.845531984" y2="363.820434108" /><line stroke="rgb(0%,0%,0%)" x1="225.681076158" x2="233.787985737" y1="352.845531984" y2="348.435447179" /><line stroke="rgb(0%,0%,0%)" x1="240.454120521" x2="238.665986598" y1="343.090354793" y2="344.145265815" /><line stroke="rgb(0%,0%,0%)" x1="236.069426086" x2="238.665986598" y1="347.198997828" y2="344.145265815" /><line stroke="rgb(0%,0%,0%)" x1="260.897606451" x2="260.446424567" y1="327.885693918" y2="328.204407513" /><line stroke="rgb(0%,0%,0%)" x1="178.33505368" x2="175.771320962" y1="374.752349961" y2="376.638186112" /><line stroke="rgb(0%,0%,0%)" x1="184.699928018" x2="192.538153316" y1="371.647724164" y2="367.734414831" /><line stroke="rgb(0%,0%,0%)" x1="236.069426086" x2="233.787985737" y1="347.198997828" y2="348.435447179" /><line stroke="rgb(0%,0%,0%)" x1="136.862664514" x2="147.806418199" y1="407.191147532" y2="402.119378153" /><line stroke="rgb(0%,0%,0%)" x1="165.227924689" x2="161.128377253" y1="386.739847189" y2="391.209865771" /><line stroke="rgb(0%,0%,0%)" x1="168.649711466" x2="165.227924689" y1="382.414321856" y2="386.739847189" /><line stroke="rgb(0%,0%,0%)" x1="175.771320962" x2="168.649711466" y1="376.638186112" y2="382.414321856" /><line stroke="rgb(0%,0%,0%)" x1="197.845578353" x2="192.538153316" y1="365.048985329" y2="367.734414831" /><line stroke="rgb(0%,0%,0%)" x1="199.016799483" x2="197.845578353" y1="364.317969538" y2="365.048985329" /><line stroke="rgb(0%,0%,0%)" x1="200.864393322" x2="199.016799483" y1="363.820434108" y2="364.317969538" /><line stroke="rgb(0%,0%,0%)" x1="109.987568375" x2="111.804335858" y1="416.628444632" y2="416.07249385" /><line stroke="rgb(0%,0%,0%)" x1="109.987568375" x2="106.998616588" y1="416.628444632" y2="417.853712663" /><line stroke="rgb(0%,0%,0%)" x1="128.178251251" x2="132.021548127" y1="409.126158612" y2="408.097740642" /><line stroke="rgb(0%,0%,0%)" x1="128.178251251" x2="126.768354759" y1="409.126158612" y2="409.401868267" /><line stroke="rgb(0%,0%,0%)" x1="136.862664514" x2="132.021548127" y1="407.191147532" y2="408.097740642" /><line stroke="rgb(0%,0%,0%)" x1="150.924599167" x2="147.806418199" y1="400.848722257" y2="402.119378153" /><line stroke="rgb(0%,0%,0%)" x1="151.803513966" x2="150.924599167" y1="399.90547296" y2="400.848722257" /><line stroke="rgb(0%,0%,0%)" x1="151.803513966" x2="156.304110311" y1="399.90547296" y2="395.908173164" /><line stroke="rgb(0%,0%,0%)" x1="157.078618605" x2="156.304110311" y1="395.362723526" y2="395.908173164" /><line stroke="rgb(0%,0%,0%)" x1="161.128377253" x2="157.078618605" y1="391.209865771" y2="395.362723526" /><line stroke="rgb(0%,0%,0%)" x1="83.0880450132" x2="86.4286807794" y1="431.746060012" y2="428.873124528" /><line stroke="rgb(0%,0%,0%)" x1="106.998616588" x2="94.4385493192" y1="417.853712663" y2="424.17050247" /><line stroke="rgb(0%,0%,0%)" x1="126.768354759" x2="111.804335858" y1="409.401868267" y2="416.07249385" /><line stroke="rgb(0%,0%,0%)" x1="74.2140685139" x2="72.2578031779" y1="458.335001083" y2="448.772608301" /><line stroke="rgb(0%,0%,0%)" x1="72.2547586602" x2="72.2578031779" y1="448.689493816" y2="448.772608301" /><line stroke="rgb(0%,0%,0%)" x1="77.2629521547" x2="72.2866938592" y1="438.211443769" y2="448.586320641" /><line stroke="rgb(0%,0%,0%)" x1="83.0880450132" x2="77.2629521547" y1="431.746060012" y2="438.211443769" /><line stroke="rgb(0%,0%,0%)" x1="94.4385493192" x2="86.4286807794" y1="424.17050247" y2="428.873124528" /><line stroke="rgb(0%,0%,0%)" x1="72.2866938592" x2="72.2547586602" y1="448.586320641" y2="448.689493816" /><line stroke="rgb(0%,0%,0%)" x1="577.282266271" x2="575.775309393" y1="539.3227598" y2="542.134957945" /><line stroke="rgb(0%,0%,0%)" x1="577.282266271" x2="577.62514411" y1="539.3227598" y2="538.373085866" /><line stroke="rgb(0%,0%,0%)" x1="590.507951239" x2="590.013846382" y1="516.911259237" y2="517.94618092" /><line stroke="rgb(0%,0%,0%)" x1="590.507951239" x2="591.574051883" y1="516.911259237" y2="514.8239814" /><line stroke="rgb(0%,0%,0%)" x1="605.753911226" x2="604.42056675" y1="486.974435228" y2="491.638483664" /><line stroke="rgb(0%,0%,0%)" x1="605.753911226" x2="606.218651445" y1="486.974435228" y2="484.691589509" /><line stroke="rgb(0%,0%,0%)" x1="577.62514411" x2="579.292949631" y1="538.373085866" y2="536.083819717" /><line stroke="rgb(0%,0%,0%)" x1="581.354653233" x2="579.750609594" y1="532.145210813" y2="535.351161171" /><line stroke="rgb(0%,0%,0%)" x1="581.354653233" x2="583.856965791" y1="532.145210813" y2="528.387917674" /><line stroke="rgb(0%,0%,0%)" x1="594.901866692" x2="593.432644541" y1="509.293021481" y2="511.70810377" /><line stroke="rgb(0%,0%,0%)" x1="594.901866692" x2="598.173389388" y1="509.293021481" y2="504.548460074" /><line stroke="rgb(0%,0%,0%)" x1="606.218651445" x2="607.933375601" y1="484.691589509" y2="479.447784591" /><line stroke="rgb(0%,0%,0%)" x1="610.611692057" x2="610.947153993" y1="471.736738037" y2="464.916747525" /><line stroke="rgb(0%,0%,0%)" x1="612.028542287" x2="610.947153993" y1="456.775737773" y2="464.916747525" /><line stroke="rgb(0%,0%,0%)" x1="574.095171403" x2="572.293602443" y1="547.328322604" y2="549.080582662" /><line stroke="rgb(0%,0%,0%)" x1="574.095171403" x2="575.775309393" y1="547.328322604" y2="542.134957945" /><line stroke="rgb(0%,0%,0%)" x1="583.856965791" x2="585.498698703" y1="528.387917674" y2="525.253703016" /><line stroke="rgb(0%,0%,0%)" x1="585.498698703" x2="587.143525848" y1="525.253703016" y2="523.879933367" /><line stroke="rgb(0%,0%,0%)" x1="590.013846382" x2="588.38364577" y1="517.94618092" y2="521.258349328" /><line stroke="rgb(0%,0%,0%)" x1="591.574051883" x2="592.765463226" y1="514.8239814" y2="513.703905117" /><line stroke="rgb(0%,0%,0%)" x1="592.765463226" x2="593.432644541" y1="513.703905117" y2="511.70810377" /><line stroke="rgb(0%,0%,0%)" x1="598.173389388" x2="599.27317058" y1="504.548460074" y2="502.966022277" /><line stroke="rgb(0%,0%,0%)" x1="602.182714417" x2="599.27317058" y1="496.864884897" y2="502.966022277" /><line stroke="rgb(0%,0%,0%)" x1="602.182714417" x2="603.085471618" y1="496.864884897" y2="494.715017668" /><line stroke="rgb(0%,0%,0%)" x1="603.085471618" x2="604.42056675" y1="494.715017668" y2="491.638483664" /><line stroke="rgb(0%,0%,0%)" x1="610.611692057" x2="608.140869165" y1="471.736738037" y2="478.666724466" /><line stroke="rgb(0%,0%,0%)" x1="532.604955377" x2="529.833134132" y1="608.937046149" y2="611.738425689" /><line stroke="rgb(0%,0%,0%)" x1="545.622817001" x2="540.82014263" y1="590.190588588" y2="596.367870732" /><line stroke="rgb(0%,0%,0%)" x1="545.622817001" x2="548.98163971" y1="590.190588588" y2="585.367322157" /><line stroke="rgb(0%,0%,0%)" x1="552.223097025" x2="555.637171037" y1="582.186839505" y2="577.193222692" /><line stroke="rgb(0%,0%,0%)" x1="555.637171037" x2="556.485963584" y1="577.193222692" y2="576.181014319" /><line stroke="rgb(0%,0%,0%)" x1="558.474682432" x2="556.485963584" y1="574.675400595" y2="576.181014319" /><line stroke="rgb(0%,0%,0%)" x1="558.474682432" x2="561.876582382" y1="574.675400595" y2="568.585620621" /><line stroke="rgb(0%,0%,0%)" x1="561.876582382" x2="562.761724897" y1="568.585620621" y2="567.247379145" /><line stroke="rgb(0%,0%,0%)" x1="562.761724897" x2="567.798069838" y1="567.247379145" y2="559.123294584" /><line stroke="rgb(0%,0%,0%)" x1="568.150548379" x2="567.798069838" y1="556.735658521" y2="559.123294584" /><line stroke="rgb(0%,0%,0%)" x1="568.150548379" x2="568.809190553" y1="556.735658521" y2="554.797279477" /><line stroke="rgb(0%,0%,0%)" x1="572.293602443" x2="568.809190553" y1="549.080582662" y2="554.797279477" /><line stroke="rgb(0%,0%,0%)" x1="579.292949631" x2="579.729529751" y1="536.083819717" y2="535.798837347" /><line stroke="rgb(0%,0%,0%)" x1="579.729529751" x2="579.750609594" y1="535.798837347" y2="535.351161171" /><line stroke="rgb(0%,0%,0%)" x1="587.143525848" x2="588.38364577" y1="523.879933367" y2="521.258349328" /><line stroke="rgb(0%,0%,0%)" x1="607.933375601" x2="608.140869165" y1="479.447784591" y2="478.666724466" /><line stroke="rgb(0%,0%,0%)" x1="487.086687591" x2="484.865455345" y1="651.886748748" y2="653.464227664" /><line stroke="rgb(0%,0%,0%)" x1="487.086687591" x2="488.85047028" y1="651.886748748" y2="650.173419026" /><line stroke="rgb(0%,0%,0%)" x1="488.85047028" x2="492.855369253" y1="650.173419026" y2="647.035389397" /><line stroke="rgb(0%,0%,0%)" x1="496.244842657" x2="496.95063701" y1="644.980567004" y2="643.72457734" /><line stroke="rgb(0%,0%,0%)" x1="503.853297213" x2="499.187411266" y1="638.388521481" y2="642.479416914" /><line stroke="rgb(0%,0%,0%)" x1="510.082276842" x2="511.752166613" y1="633.874084139" y2="631.815497645" /><line stroke="rgb(0%,0%,0%)" x1="511.752166613" x2="514.522620004" y1="631.815497645" y2="629.598617177" /><line stroke="rgb(0%,0%,0%)" x1="515.320003682" x2="514.522620004" y1="629.481083456" y2="629.598617177" /><line stroke="rgb(0%,0%,0%)" x1="515.320003682" x2="517.17133323" y1="629.481083456" y2="626.657757766" /><line stroke="rgb(0%,0%,0%)" x1="517.17133323" x2="519.643389702" y1="626.657757766" y2="623.747020425" /><line stroke="rgb(0%,0%,0%)" x1="521.825756917" x2="519.643389702" y1="621.795468078" y2="623.747020425" /><line stroke="rgb(0%,0%,0%)" x1="526.835668222" x2="529.833134132" y1="616.007536883" y2="611.738425689" /><line stroke="rgb(0%,0%,0%)" x1="532.604955377" x2="538.005323773" y1="608.937046149" y2="600.159003234" /><line stroke="rgb(0%,0%,0%)" x1="538.005323773" x2="540.82014263" y1="600.159003234" y2="596.367870732" /><line stroke="rgb(0%,0%,0%)" x1="548.98163971" x2="552.223097025" y1="585.367322157" y2="582.186839505" /><line stroke="rgb(0%,0%,0%)" x1="447.224300751" x2="449.114841253" y1="666.339917564" y2="665.96357097" /><line stroke="rgb(0%,0%,0%)" x1="463.418454493" x2="467.892023189" y1="663.303487848" y2="662.353328494" /><line stroke="rgb(0%,0%,0%)" x1="473.114763931" x2="475.988303719" y1="659.701431855" y2="658.787450137" /><line stroke="rgb(0%,0%,0%)" x1="479.736390021" x2="475.988303719" y1="655.976024159" y2="658.787450137" /><line stroke="rgb(0%,0%,0%)" x1="479.736390021" x2="484.865455345" y1="655.976024159" y2="653.464227664" /><line stroke="rgb(0%,0%,0%)" x1="492.855369253" x2="496.244842657" y1="647.035389397" y2="644.980567004" /><line stroke="rgb(0%,0%,0%)" x1="496.95063701" x2="499.187411266" y1="643.72457734" y2="642.479416914" /><line stroke="rgb(0%,0%,0%)" x1="503.853297213" x2="510.082276842" y1="638.388521481" y2="633.874084139" /><line stroke="rgb(0%,0%,0%)" x1="521.825756917" x2="526.835668222" y1="621.795468078" y2="616.007536883" /><line stroke="rgb(0%,0%,0%)" x1="438.904019937" x2="438.804985482" y1="585.773277588" y2="585.849838047" /><line stroke="rgb(0%,0%,0%)" x1="447.224300751" x2="436.717699532" y1="666.339917564" y2="665.47640431" /><line stroke="rgb(0%,0%,0%)" x1="449.114841253" x2="455.517521556" y1="665.96357097" y2="664.338466107" /><line stroke="rgb(0%,0%,0%)" x1="438.982975699" x2="439.064583559" y1="585.705001962" y2="585.591347664" /><line stroke="rgb(0%,0%,0%)" x1="451.673761477" x2="439.064583559" y1="572.088598413" y2="585.591347664" /><line stroke="rgb(0%,0%,0%)" x1="452.384031532" x2="452.623083228" y1="568.783662396" y2="568.670801849" /><line stroke="rgb(0%,0%,0%)" x1="452.623083228" x2="453.412370949" y1="568.670801849" y2="568.659230366" /><line stroke="rgb(0%,0%,0%)" x1="453.412370949" x2="451.673761477" y1="568.659230366" y2="572.088598413" /><line stroke="rgb(0%,0%,0%)" x1="452.384031532" x2="451.566750719" y1="568.783662396" y2="569.501188367" /><line stroke="rgb(0%,0%,0%)" x1="455.517521556" x2="459.721130838" y1="664.338466107" y2="664.374972944" /><line stroke="rgb(0%,0%,0%)" x1="459.721130838" x2="463.418454493" y1="664.374972944" y2="663.303487848" /><line stroke="rgb(0%,0%,0%)" x1="473.114763931" x2="468.529752214" y1="659.701431855" y2="662.18786043" /><line stroke="rgb(0%,0%,0%)" x1="393.775789101" x2="390.658953247" y1="608.422005171" y2="609.407583672" /><line stroke="rgb(0%,0%,0%)" x1="393.775789101" x2="398.225687049" y1="608.422005171" y2="607.447573773" /><line stroke="rgb(0%,0%,0%)" x1="405.707547097" x2="398.225687049" y1="604.906260297" y2="607.447573773" /><line stroke="rgb(0%,0%,0%)" x1="407.721879449" x2="399.519075744" y1="665.438194551" y2="666.784421767" /><line stroke="rgb(0%,0%,0%)" x1="411.995090116" x2="417.420309095" y1="602.537153436" y2="600.685470928" /><line stroke="rgb(0%,0%,0%)" x1="411.995090116" x2="405.707547097" y1="602.537153436" y2="604.906260297" /><line stroke="rgb(0%,0%,0%)" x1="417.420309095" x2="425.378170707" y1="600.685470928" y2="595.952876302" /><line stroke="rgb(0%,0%,0%)" x1="411.786164256" x2="412.46560869" y1="595.596509858" y2="595.35522316" /><line stroke="rgb(0%,0%,0%)" x1="412.46560869" x2="414.260440863" y1="595.35522316" y2="594.644783939" /><line stroke="rgb(0%,0%,0%)" x1="414.260440863" x2="416.244173492" y1="594.644783939" y2="593.868643463" /><line stroke="rgb(0%,0%,0%)" x1="423.197820987" x2="429.438410084" y1="662.980558515" y2="663.881551008" /><line stroke="rgb(0%,0%,0%)" x1="419.889121688" x2="423.197820987" y1="661.921654354" y2="662.980558515" /><line stroke="rgb(0%,0%,0%)" x1="429.438410084" x2="432.262253489" y1="663.881551008" y2="665.0352622" /><line stroke="rgb(0%,0%,0%)" x1="430.121170807" x2="427.727432355" y1="592.136989358" y2="594.372862537" /><line stroke="rgb(0%,0%,0%)" x1="424.788654257" x2="430.655711385" y1="589.58897943" y2="585.652628021" /><line stroke="rgb(0%,0%,0%)" x1="432.306055931" x2="430.655711385" y1="584.729729611" y2="585.652628021" /><line stroke="rgb(0%,0%,0%)" x1="432.262253489" x2="436.717699532" y1="665.0352622" y2="665.47640431" /><line stroke="rgb(0%,0%,0%)" x1="438.804985482" x2="430.121170807" y1="585.849838047" y2="592.136989358" /><line stroke="rgb(0%,0%,0%)" x1="438.904019937" x2="438.982975699" y1="585.773277588" y2="585.705001962" /><line stroke="rgb(0%,0%,0%)" x1="432.306055931" x2="437.041077227" y1="584.729729611" y2="581.512282447" /><line stroke="rgb(0%,0%,0%)" x1="437.041077227" x2="441.386518084" y1="581.512282447" y2="577.773073398" /><line stroke="rgb(0%,0%,0%)" x1="467.892023189" x2="468.529752214" y1="662.353328494" y2="662.18786043" /><line stroke="rgb(0%,0%,0%)" x1="441.386518084" x2="451.566750719" y1="577.773073398" y2="569.501188367" /><line stroke="rgb(0%,0%,0%)" x1="372.711061838" x2="374.980936738" y1="617.258164683" y2="616.315521854" /><line stroke="rgb(0%,0%,0%)" x1="385.58502561" x2="379.311124128" y1="640.06589702" y2="635.428800009" /><line stroke="rgb(0%,0%,0%)" x1="380.169599854" x2="378.797389751" y1="613.952269582" y2="614.352861801" /><line stroke="rgb(0%,0%,0%)" x1="387.030278528" x2="380.169599854" y1="611.172609999" y2="613.952269582" /><line stroke="rgb(0%,0%,0%)" x1="390.658953247" x2="387.030278528" y1="609.407583672" y2="611.172609999" /><line stroke="rgb(0%,0%,0%)" x1="399.251660596" x2="386.471604793" y1="597.991997993" y2="597.856843065" /><line stroke="rgb(0%,0%,0%)" x1="381.006597189" x2="386.471604793" y1="598.679865939" y2="597.856843065" /><line stroke="rgb(0%,0%,0%)" x1="390.022270126" x2="399.230967854" y1="666.175226599" y2="666.795657048" /><line stroke="rgb(0%,0%,0%)" x1="399.230967854" x2="399.519075744" y1="666.795657048" y2="666.784421767" /><line stroke="rgb(0%,0%,0%)" x1="390.022270126" x2="381.883788916" y1="666.175226599" y2="664.434389969" /><line stroke="rgb(0%,0%,0%)" x1="403.417800651" x2="402.224328868" y1="597.963196069" y2="598.193211541" /><line stroke="rgb(0%,0%,0%)" x1="399.251660596" x2="402.224328868" y1="597.991997993" y2="598.193211541" /><line stroke="rgb(0%,0%,0%)" x1="403.417800651" x2="411.786164256" y1="597.963196069" y2="595.596509858" /><line stroke="rgb(0%,0%,0%)" x1="407.721879449" x2="419.889121688" y1="665.438194551" y2="661.921654354" /><line stroke="rgb(0%,0%,0%)" x1="427.727432355" x2="425.378170707" y1="594.372862537" y2="595.952876302" /><line stroke="rgb(0%,0%,0%)" x1="324.822039689" x2="326.023153003" y1="598.919580087" y2="599.169512796" /><line stroke="rgb(0%,0%,0%)" x1="319.08390469" x2="324.822039689" y1="598.367529674" y2="598.919580087" /><line stroke="rgb(0%,0%,0%)" x1="326.023153003" x2="340.848047968" y1="599.169512796" y2="600.466960415" /><line stroke="rgb(0%,0%,0%)" x1="341.931469793" x2="340.848047968" y1="600.638339583" y2="600.466960415" /><line stroke="rgb(0%,0%,0%)" x1="366.152925936" x2="363.57863913" y1="621.399031907" y2="624.057800445" /><line stroke="rgb(0%,0%,0%)" x1="341.931469793" x2="348.184824631" y1="600.638339583" y2="600.09339031" /><line stroke="rgb(0%,0%,0%)" x1="369.047366379" x2="363.073350911" y1="633.062942643" y2="631.256554295" /><line stroke="rgb(0%,0%,0%)" x1="361.966869879" x2="362.323568696" y1="629.368170828" y2="630.58948641" /><line stroke="rgb(0%,0%,0%)" x1="361.966869879" x2="361.010662925" y1="629.368170828" y2="628.385767476" /><line stroke="rgb(0%,0%,0%)" x1="361.010662925" x2="361.202083039" y1="628.385767476" y2="627.243880121" /><line stroke="rgb(0%,0%,0%)" x1="362.037025882" x2="361.202083039" y1="626.626809558" y2="627.243880121" /><line stroke="rgb(0%,0%,0%)" x1="361.642421568" x2="362.037025882" y1="625.835192941" y2="626.626809558" /><line stroke="rgb(0%,0%,0%)" x1="362.824236317" x2="361.642421568" y1="624.799983706" y2="625.835192941" /><line stroke="rgb(0%,0%,0%)" x1="363.57863913" x2="362.824236317" y1="624.057800445" y2="624.799983706" /><line stroke="rgb(0%,0%,0%)" x1="367.185532511" x2="366.152925936" y1="621.084070296" y2="621.399031907" /><line stroke="rgb(0%,0%,0%)" x1="367.439772544" x2="367.185532511" y1="620.378227743" y2="621.084070296" /><line stroke="rgb(0%,0%,0%)" x1="369.060505288" x2="367.439772544" y1="619.969576294" y2="620.378227743" /><line stroke="rgb(0%,0%,0%)" x1="369.060505288" x2="369.81354235" y1="619.969576294" y2="619.317573446" /><line stroke="rgb(0%,0%,0%)" x1="372.711061838" x2="369.81354235" y1="617.258164683" y2="619.317573446" /><line stroke="rgb(0%,0%,0%)" x1="355.135570678" x2="357.151029181" y1="599.712980906" y2="599.420557551" /><line stroke="rgb(0%,0%,0%)" x1="374.230185041" x2="375.186492416" y1="653.003838389" y2="656.635248041" /><line stroke="rgb(0%,0%,0%)" x1="374.433244489" x2="374.230185041" y1="652.37842894" y2="653.003838389" /><line stroke="rgb(0%,0%,0%)" x1="374.433244489" x2="377.173969884" y1="652.37842894" y2="646.371595093" /><line stroke="rgb(0%,0%,0%)" x1="371.836955667" x2="378.879323044" y1="633.718959129" y2="635.212652498" /><line stroke="rgb(0%,0%,0%)" x1="369.047366379" x2="371.836955667" y1="633.062942643" y2="633.718959129" /><line stroke="rgb(0%,0%,0%)" x1="362.782393775" x2="363.073350911" y1="630.994854596" y2="631.256554295" /><line stroke="rgb(0%,0%,0%)" x1="362.678418053" x2="362.782393775" y1="630.804815118" y2="630.994854596" /><line stroke="rgb(0%,0%,0%)" x1="362.323568696" x2="362.678418053" y1="630.58948641" y2="630.804815118" /><line stroke="rgb(0%,0%,0%)" x1="378.797389751" x2="374.980936738" y1="614.352861801" y2="616.315521854" /><line stroke="rgb(0%,0%,0%)" x1="377.023115343" x2="357.151029181" y1="598.912526276" y2="599.420557551" /><line stroke="rgb(0%,0%,0%)" x1="375.984382065" x2="381.812308035" y1="658.734279745" y2="664.403008673" /><line stroke="rgb(0%,0%,0%)" x1="375.186492416" x2="375.984382065" y1="656.635248041" y2="658.734279745" /><line stroke="rgb(0%,0%,0%)" x1="377.575653865" x2="377.173969884" y1="645.510392029" y2="646.371595093" /><line stroke="rgb(0%,0%,0%)" x1="377.637799337" x2="377.575653865" y1="645.399241436" y2="645.510392029" /><line stroke="rgb(0%,0%,0%)" x1="382.681217145" x2="377.637799337" y1="642.675840427" y2="645.399241436" /><line stroke="rgb(0%,0%,0%)" x1="385.58502561" x2="382.681217145" y1="640.06589702" y2="642.675840427" /><line stroke="rgb(0%,0%,0%)" x1="379.034551822" x2="379.311124128" y1="635.245195103" y2="635.428800009" /><line stroke="rgb(0%,0%,0%)" x1="378.962484847" x2="379.034551822" y1="635.231596408" y2="635.245195103" /><line stroke="rgb(0%,0%,0%)" x1="378.879323044" x2="378.962484847" y1="635.212652498" y2="635.231596408" /><line stroke="rgb(0%,0%,0%)" x1="377.023115343" x2="379.10897556" y1="598.912526276" y2="598.777447495" /><line stroke="rgb(0%,0%,0%)" x1="379.10897556" x2="381.006597189" y1="598.777447495" y2="598.679865939" /><line stroke="rgb(0%,0%,0%)" x1="381.853345538" x2="381.883788916" y1="664.424004167" y2="664.434389969" /><line stroke="rgb(0%,0%,0%)" x1="381.812308035" x2="381.853345538" y1="664.403008673" y2="664.424004167" /><line stroke="rgb(0%,0%,0%)" x1="319.08390469" x2="310.075631665" y1="598.367529674" y2="597.005509997" /><line stroke="rgb(0%,0%,0%)" x1="348.184824631" x2="355.135570678" y1="600.09339031" y2="599.712980906" /><line stroke="rgb(0%,0%,0%)" x1="245.758956349" x2="245.901045479" y1="577.102834112" y2="577.159806457" /><line stroke="rgb(0%,0%,0%)" x1="245.703862084" x2="245.758956349" y1="577.063630317" y2="577.102834112" /><line stroke="rgb(0%,0%,0%)" x1="245.703862084" x2="245.668366246" y1="577.063630317" y2="577.004289201" /><line stroke="rgb(0%,0%,0%)" x1="266.100224242" x2="259.398826185" y1="586.998866142" y2="584.78539178" /><line stroke="rgb(0%,0%,0%)" x1="245.901045479" x2="246.240914988" y1="577.159806457" y2="577.358328547" /><line stroke="rgb(0%,0%,0%)" x1="246.240914988" x2="259.398826185" y1="577.358328547" y2="584.78539178" /><line stroke="rgb(0%,0%,0%)" x1="272.290827226" x2="283.698131344" y1="589.833388098" y2="592.860655847" /><line stroke="rgb(0%,0%,0%)" x1="283.698131344" x2="286.749086571" y1="592.860655847" y2="593.968100949" /><line stroke="rgb(0%,0%,0%)" x1="286.749086571" x2="292.746705824" y1="593.968100949" y2="595.992417992" /><line stroke="rgb(0%,0%,0%)" x1="292.746705824" x2="293.476132421" y1="595.992417992" y2="595.766072436" /><line stroke="rgb(0%,0%,0%)" x1="293.476132421" x2="299.579762519" y1="595.766072436" y2="595.512278654" /><line stroke="rgb(0%,0%,0%)" x1="305.048541103" x2="306.569430544" y1="596.610206496" y2="596.879344903" /><line stroke="rgb(0%,0%,0%)" x1="299.579762519" x2="305.048541103" y1="595.512278654" y2="596.610206496" /><line stroke="rgb(0%,0%,0%)" x1="306.569430544" x2="310.075631665" y1="596.879344903" y2="597.005509997" /><line stroke="rgb(0%,0%,0%)" x1="207.145956948" x2="204.05464122" y1="554.783330395" y2="553.187462997" /><line stroke="rgb(0%,0%,0%)" x1="238.552032943" x2="245.455727425" y1="574.138751033" y2="576.877237568" /><line stroke="rgb(0%,0%,0%)" x1="220.559603342" x2="229.927741979" y1="562.189055331" y2="568.416427473" /><line stroke="rgb(0%,0%,0%)" x1="207.145956948" x2="220.559603342" y1="554.783330395" y2="562.189055331" /><line stroke="rgb(0%,0%,0%)" x1="245.668366246" x2="245.455727425" y1="577.004289201" y2="576.877237568" /><line stroke="rgb(0%,0%,0%)" x1="266.100224242" x2="272.290827226" y1="586.998866142" y2="589.833388098" /><line stroke="rgb(0%,0%,0%)" x1="198.008824391" x2="204.05464122" y1="549.533452328" y2="553.187462997" /><line stroke="rgb(0%,0%,0%)" x1="185.502377654" x2="198.008824391" y1="543.731836066" y2="549.533452328" /><line stroke="rgb(0%,0%,0%)" x1="185.502377654" x2="183.761185028" y1="543.731836066" y2="542.130323664" /><line stroke="rgb(0%,0%,0%)" x1="235.377667605" x2="238.552032943" y1="572.461420392" y2="574.138751033" /><line stroke="rgb(0%,0%,0%)" x1="229.927741979" x2="235.377667605" y1="568.416427473" y2="572.461420392" /><line stroke="rgb(0%,0%,0%)" x1="168.964513021" x2="173.478989786" y1="529.412740515" y2="533.530285786" /><line stroke="rgb(0%,0%,0%)" x1="173.478989786" x2="177.604361662" y1="533.530285786" y2="536.998398828" /><line stroke="rgb(0%,0%,0%)" x1="168.964513021" x2="165.835518751" y1="529.412740515" y2="524.558097682" /><line stroke="rgb(0%,0%,0%)" x1="165.604060606" x2="165.813077947" y1="524.33540629" y2="524.541931444" /><line stroke="rgb(0%,0%,0%)" x1="161.742416578" x2="165.604060606" y1="520.81142547" y2="524.33540629" /><line stroke="rgb(0%,0%,0%)" x1="161.742416578" x2="158.331226527" y1="520.81142547" y2="518.268719217" /><line stroke="rgb(0%,0%,0%)" x1="177.604361662" x2="183.761185028" y1="536.998398828" y2="542.130323664" /><line stroke="rgb(0%,0%,0%)" x1="120.662152857" x2="118.747669835" y1="505.23022191" y2="504.959605911" /><line stroke="rgb(0%,0%,0%)" x1="120.662152857" x2="135.214620322" y1="505.23022191" y2="509.155560437" /><line stroke="rgb(0%,0%,0%)" x1="156.597612629" x2="157.124041876" y1="517.216511854" y2="517.462439002" /><line stroke="rgb(0%,0%,0%)" x1="145.426156254" x2="145.514979237" y1="510.784738376" y2="510.84316323" /><line stroke="rgb(0%,0%,0%)" x1="145.408354668" x2="145.426156254" y1="510.767870455" y2="510.784738376" /><line stroke="rgb(0%,0%,0%)" x1="145.010640392" x2="145.408354668" y1="510.712124316" y2="510.767870455" /><line stroke="rgb(0%,0%,0%)" x1="137.662781194" x2="145.010640392" y1="509.445640255" y2="510.712124316" /><line stroke="rgb(0%,0%,0%)" x1="135.214620322" x2="137.662781194" y1="509.155560437" y2="509.445640255" /><line stroke="rgb(0%,0%,0%)" x1="165.813077947" x2="165.835518751" y1="524.541931444" y2="524.558097682" /><line stroke="rgb(0%,0%,0%)" x1="157.124041876" x2="157.13187201" y1="517.462439002" y2="517.548646728" /><line stroke="rgb(0%,0%,0%)" x1="157.13187201" x2="158.331226527" y1="517.548646728" y2="518.268719217" /><line stroke="rgb(0%,0%,0%)" x1="156.597612629" x2="145.514979237" y1="517.216511854" y2="510.84316323" /><line stroke="rgb(0%,0%,0%)" x1="82.3666306861" x2="79.0975177367" y1="487.039659051" y2="483.650597179" /><line stroke="rgb(0%,0%,0%)" x1="82.3666306861" x2="86.0922353496" y1="487.039659051" y2="489.401283226" /><line stroke="rgb(0%,0%,0%)" x1="86.0922353496" x2="88.3954991098" y1="489.401283226" y2="491.811627239" /><line stroke="rgb(0%,0%,0%)" x1="106.453447498" x2="98.5940253134" y1="500.313798488" y2="497.51622554" /><line stroke="rgb(0%,0%,0%)" x1="106.453447498" x2="109.179121465" y1="500.313798488" y2="500.824009304" /><line stroke="rgb(0%,0%,0%)" x1="88.3954991098" x2="98.5940253134" y1="491.811627239" y2="497.51622554" /><line stroke="rgb(0%,0%,0%)" x1="109.179121465" x2="118.747669835" y1="500.824009304" y2="504.959605911" /><line stroke="rgb(0%,0%,0%)" x1="77.130224273" x2="79.0975177367" y1="479.147532442" y2="483.650597179" /><line stroke="rgb(0%,0%,0%)" x1="74.2943438343" x2="77.130224273" y1="472.59311781" y2="479.147532442" /><line stroke="rgb(0%,0%,0%)" x1="72.8398524186" x2="74.2943438343" y1="469.691595505" y2="472.59311781" /><line stroke="rgb(0%,0%,0%)" x1="72.7870226009" x2="72.8398524186" y1="467.295093577" y2="469.691595505" /><line stroke="rgb(0%,0%,0%)" x1="72.682103079" x2="74.2140685139" y1="465.365325298" y2="458.335001083" /><line stroke="rgb(0%,0%,0%)" x1="72.682103079" x2="72.7870226009" y1="465.365325298" y2="467.295093577" /><line stroke="rgb(0%,0%,0%)" x1="416.244173492" x2="416.940835077" y1="593.868643463" y2="593.569288584" /><line stroke="rgb(0%,0%,0%)" x1="416.940835077" x2="417.070639544" y1="593.569288584" y2="593.59990311" /><line stroke="rgb(0%,0%,0%)" x1="420.776957066" x2="421.129623853" y1="591.771407913" y2="591.536926902" /><line stroke="rgb(0%,0%,0%)" x1="422.604091108" x2="421.129623853" y1="590.661083209" y2="591.536926902" /><line stroke="rgb(0%,0%,0%)" x1="422.604091108" x2="424.236669335" y1="590.661083209" y2="589.754300458" /><line stroke="rgb(0%,0%,0%)" x1="418.68491701" x2="420.776957066" y1="593.113796107" y2="591.771407913" /><line stroke="rgb(0%,0%,0%)" x1="418.68491701" x2="417.070639544" y1="593.113796107" y2="593.59990311" /><line stroke="rgb(0%,0%,0%)" x1="424.788654257" x2="424.236669335" y1="589.58897943" y2="589.754300458" /></svg>