<?xml version="1.0" encoding="utf-8" ?>
<svg baseProfile="full" height="100%" version="1.1" viewBox="0.5 0.5 685.793960571 941.299331665" width="100%" xmlns="http://www.w3.org/2000/svg" xmlns:ev="http://www.w3.org/2001/xml-events" xmlns:xlink="http://www.w3.org/1999/xlink"><defs /><line stroke="rgb(0%,0%,0%)" x1="578.570969674" x2="579.286040795" y1="374.903241245" y2="375.817171265" /><line stroke="rgb(0%,0%,0%)" x1="579.286040795" x2="580.825261569" y1="375.817171265" y2="377.697117392" /><line stroke="rgb(0%,0%,0%)" x1="578.570969674" x2="571.830697832" y1="374.903241245" y2="368.053663972" /><line stroke="rgb(0%,0%,0%)" x1="571.830697832" x2="571.450120187" y1="368.053663972" y2="367.414109086" /><line stroke="rgb(0%,0%,0%)" x1="592.938013905" x2="592.800267286" y1="396.832971623" y2="395.735289337" /><line stroke="rgb(0%,0%,0%)" x1="592.098121297" x2="592.800267286" y1="394.862417572" y2="395.735289337" /><line stroke="rgb(0%,0%,0%)" x1="592.098121297" x2="590.586427797" y1="394.862417572" y2="391.892470976" /><line stroke="rgb(0%,0%,0%)" x1="571.450120187" x2="571.266090505" y1="367.414109086" y2="367.284804014" /><line stroke="rgb(0%,0%,0%)" x1="571.266090505" x2="567.652076117" y1="367.284804014" y2="361.359242229" /><line stroke="rgb(0%,0%,0%)" x1="587.590094897" x2="585.681078936" y1="385.464094219" y2="381.794616177" /><line stroke="rgb(0%,0%,0%)" x1="597.943640498" x2="592.938013905" y1="406.96142374" y2="396.832971623" /><line stroke="rgb(0%,0%,0%)" x1="590.586427797" x2="587.590094897" y1="391.892470976" y2="385.464094219" /><line stroke="rgb(0%,0%,0%)" x1="607.992562858" x2="609.371148313" y1="436.954718503" y2="448.0492245" /><line stroke="rgb(0%,0%,0%)" x1="607.342037774" x2="606.536369929" y1="434.44636901" y2="430.332813566" /><line stroke="rgb(0%,0%,0%)" x1="567.652076117" x2="566.593132748" y1="361.359242229" y2="358.309401922" /><line stroke="rgb(0%,0%,0%)" x1="585.681078936" x2="580.825261569" y1="381.794616177" y2="377.697117392" /><line stroke="rgb(0%,0%,0%)" x1="606.536369929" x2="605.878489539" y1="430.332813566" y2="428.011566714" /><line stroke="rgb(0%,0%,0%)" x1="605.878489539" x2="603.907974644" y1="428.011566714" y2="423.31895498" /><line stroke="rgb(0%,0%,0%)" x1="603.907974644" x2="602.759971845" y1="423.31895498" y2="419.802535712" /><line stroke="rgb(0%,0%,0%)" x1="602.759971845" x2="602.367426399" y1="419.802535712" y2="418.039353101" /><line stroke="rgb(0%,0%,0%)" x1="602.367426399" x2="601.144102301" y1="418.039353101" y2="414.440217489" /><line stroke="rgb(0%,0%,0%)" x1="601.144102301" x2="598.594310839" y1="414.440217489" y2="408.524097333" /><line stroke="rgb(0%,0%,0%)" x1="597.943640498" x2="598.594310839" y1="406.96142374" y2="408.524097333" /><line stroke="rgb(0%,0%,0%)" x1="608.685867417" x2="609.449201742" y1="457.0525474" y2="452.173963347" /><line stroke="rgb(0%,0%,0%)" x1="609.449201742" x2="609.339183107" y1="452.173963347" y2="449.675711034" /><line stroke="rgb(0%,0%,0%)" x1="609.339183107" x2="609.371148313" y1="449.675711034" y2="448.0492245" /><line stroke="rgb(0%,0%,0%)" x1="607.992562858" x2="607.342037774" y1="436.954718503" y2="434.44636901" /><line stroke="rgb(0%,0%,0%)" x1="518.050876453" x2="518.5303109" y1="291.824539681" y2="293.363292523" /><line stroke="rgb(0%,0%,0%)" x1="551.873823629" x2="558.331495116" y1="333.057393754" y2="343.208033961" /><line stroke="rgb(0%,0%,0%)" x1="566.593132748" x2="566.076995102" y1="358.309401922" y2="355.604658974" /><line stroke="rgb(0%,0%,0%)" x1="566.076995102" x2="565.788632042" y1="355.604658974" y2="354.885385731" /><line stroke="rgb(0%,0%,0%)" x1="559.742522757" x2="565.788632042" y1="344.916139796" y2="354.885385731" /><line stroke="rgb(0%,0%,0%)" x1="474.713988262" x2="475.162561556" y1="258.980178372" y2="259.33853297" /><line stroke="rgb(0%,0%,0%)" x1="474.713988262" x2="474.243008531" y1="258.980178372" y2="258.664232087" /><line stroke="rgb(0%,0%,0%)" x1="484.109055969" x2="484.949821587" y1="265.303465435" y2="266.109890044" /><line stroke="rgb(0%,0%,0%)" x1="500.456233922" x2="502.130816567" y1="276.989424793" y2="279.290491764" /><line stroke="rgb(0%,0%,0%)" x1="498.803940488" x2="500.456233922" y1="276.082789656" y2="276.989424793" /><line stroke="rgb(0%,0%,0%)" x1="495.279405045" x2="492.557252903" y1="273.870431983" y2="271.434113469" /><line stroke="rgb(0%,0%,0%)" x1="521.326595374" x2="519.209576464" y1="295.389636476" y2="294.132403806" /><line stroke="rgb(0%,0%,0%)" x1="518.050876453" x2="513.107076698" y1="291.824539681" y2="288.286567012" /><line stroke="rgb(0%,0%,0%)" x1="510.272449148" x2="511.950035438" y1="284.869112942" y2="287.223402088" /><line stroke="rgb(0%,0%,0%)" x1="510.272449148" x2="508.814289656" y1="284.869112942" y2="284.91555849" /><line stroke="rgb(0%,0%,0%)" x1="530.96423853" x2="527.404397824" y1="308.280311868" y2="304.767372564" /><line stroke="rgb(0%,0%,0%)" x1="527.404397824" x2="527.068305734" y1="304.767372564" y2="304.166788275" /><line stroke="rgb(0%,0%,0%)" x1="521.326595374" x2="527.068305734" y1="295.389636476" y2="304.166788275" /><line stroke="rgb(0%,0%,0%)" x1="547.937129678" x2="531.578071367" y1="329.308641397" y2="309.131252299" /><line stroke="rgb(0%,0%,0%)" x1="551.873823629" x2="547.937129678" y1="333.057393754" y2="329.308641397" /><line stroke="rgb(0%,0%,0%)" x1="559.742522757" x2="558.331495116" y1="344.916139796" y2="343.208033961" /><line stroke="rgb(0%,0%,0%)" x1="462.312046267" x2="463.220519765" y1="253.90064147" y2="254.706003995" /><line stroke="rgb(0%,0%,0%)" x1="484.109055969" x2="483.704278367" y1="265.303465435" y2="264.941420821" /><line stroke="rgb(0%,0%,0%)" x1="483.704278367" x2="478.986347171" y1="264.941420821" y2="262.810240333" /><line stroke="rgb(0%,0%,0%)" x1="478.986347171" x2="475.162561556" y1="262.810240333" y2="259.33853297" /><line stroke="rgb(0%,0%,0%)" x1="474.243008531" x2="463.220519765" y1="258.664232087" y2="254.706003995" /><line stroke="rgb(0%,0%,0%)" x1="492.557252903" x2="484.949821587" y1="271.434113469" y2="266.109890044" /><line stroke="rgb(0%,0%,0%)" x1="502.130816567" x2="507.762632403" y1="279.290491764" y2="284.14878775" /><line stroke="rgb(0%,0%,0%)" x1="508.814289656" x2="507.762632403" y1="284.91555849" y2="284.14878775" /><line stroke="rgb(0%,0%,0%)" x1="498.803940488" x2="495.279405045" y1="276.082789656" y2="273.870431983" /><line stroke="rgb(0%,0%,0%)" x1="519.209576464" x2="518.5303109" y1="294.132403806" y2="293.363292523" /><line stroke="rgb(0%,0%,0%)" x1="513.107076698" x2="511.950035438" y1="288.286567012" y2="287.223402088" /><line stroke="rgb(0%,0%,0%)" x1="531.578071367" x2="530.96423853" y1="309.131252299" y2="308.280311868" /><line stroke="rgb(0%,0%,0%)" x1="442.83426211" x2="442.193702264" y1="339.946492601" y2="339.374216306" /><line stroke="rgb(0%,0%,0%)" x1="458.266393795" x2="447.930165618" y1="252.315377531" y2="249.66184965" /><line stroke="rgb(0%,0%,0%)" x1="447.930165618" x2="438.074359269" y1="249.66184965" y2="249.168434248" /><line stroke="rgb(0%,0%,0%)" x1="438.074359269" x2="436.636924042" y1="249.168434248" y2="248.433359176" /><line stroke="rgb(0%,0%,0%)" x1="462.312046267" x2="458.266393795" y1="253.90064147" y2="252.315377531" /><line stroke="rgb(0%,0%,0%)" x1="413.858353226" x2="415.24110011" y1="320.780299852" y2="321.463208151" /><line stroke="rgb(0%,0%,0%)" x1="413.644409598" x2="413.858353226" y1="320.713723298" y2="320.780299852" /><line stroke="rgb(0%,0%,0%)" x1="413.644409598" x2="413.178163249" y1="320.713723298" y2="320.608895915" /><line stroke="rgb(0%,0%,0%)" x1="406.491570221" x2="413.342853588" y1="311.340446782" y2="313.968049566" /><line stroke="rgb(0%,0%,0%)" x1="426.413390616" x2="422.861005553" y1="253.672914304" y2="255.105882284" /><line stroke="rgb(0%,0%,0%)" x1="426.833139931" x2="426.413390616" y1="253.078545433" y2="253.672914304" /><line stroke="rgb(0%,0%,0%)" x1="411.871694969" x2="419.379590387" y1="253.022082886" y2="254.550145124" /><line stroke="rgb(0%,0%,0%)" x1="430.304937693" x2="432.475774179" y1="330.092102923" y2="331.58155769" /><line stroke="rgb(0%,0%,0%)" x1="430.304937693" x2="424.58403009" y1="330.092102923" y2="326.429670131" /><line stroke="rgb(0%,0%,0%)" x1="430.237288095" x2="426.833139931" y1="248.408059854" y2="253.078545433" /><line stroke="rgb(0%,0%,0%)" x1="436.636924042" x2="430.237288095" y1="248.433359176" y2="248.408059854" /><line stroke="rgb(0%,0%,0%)" x1="442.83426211" x2="444.383233684" y1="339.946492601" y2="340.82723541" /><line stroke="rgb(0%,0%,0%)" x1="442.193702264" x2="437.452949683" y1="339.374216306" y2="335.393826633" /><line stroke="rgb(0%,0%,0%)" x1="445.227006577" x2="444.439003263" y1="336.503178204" y2="335.818700773" /><line stroke="rgb(0%,0%,0%)" x1="437.452949683" x2="436.851575174" y1="335.393826633" y2="334.951340466" /><line stroke="rgb(0%,0%,0%)" x1="436.851575174" x2="432.475774179" y1="334.951340466" y2="331.58155769" /><line stroke="rgb(0%,0%,0%)" x1="444.439003263" x2="442.825932371" y1="335.818700773" y2="334.285721639" /><line stroke="rgb(0%,0%,0%)" x1="436.587709531" x2="442.825932371" y1="328.59365502" y2="334.285721639" /><line stroke="rgb(0%,0%,0%)" x1="449.121855188" x2="446.636956324" y1="344.603973902" y2="342.314334464" /><line stroke="rgb(0%,0%,0%)" x1="452.587477271" x2="455.955380794" y1="344.571274816" y2="349.088222117" /><line stroke="rgb(0%,0%,0%)" x1="455.928937221" x2="454.405114774" y1="349.952244318" y2="348.95046331" /><line stroke="rgb(0%,0%,0%)" x1="455.928937221" x2="455.955380794" y1="349.952244318" y2="349.088222117" /><line stroke="rgb(0%,0%,0%)" x1="454.405114774" x2="449.121855188" y1="348.95046331" y2="344.603973902" /><line stroke="rgb(0%,0%,0%)" x1="446.636956324" x2="444.383233684" y1="342.314334464" y2="340.82723541" /><line stroke="rgb(0%,0%,0%)" x1="448.677945698" x2="452.587477271" y1="340.271070353" y2="344.571274816" /><line stroke="rgb(0%,0%,0%)" x1="445.227006577" x2="448.677945698" y1="336.503178204" y2="340.271070353" /><line stroke="rgb(0%,0%,0%)" x1="384.472768398" x2="372.700238545" y1="248.102807653" y2="250.465131647" /><line stroke="rgb(0%,0%,0%)" x1="391.305036476" x2="383.398728196" y1="318.216565894" y2="317.708955097" /><line stroke="rgb(0%,0%,0%)" x1="391.305036476" x2="394.392003988" y1="318.216565894" y2="318.200500504" /><line stroke="rgb(0%,0%,0%)" x1="390.077222811" x2="381.781253405" y1="306.031933409" y2="303.041384033" /><line stroke="rgb(0%,0%,0%)" x1="401.612051906" x2="391.791943427" y1="249.3663004" y2="247.481030265" /><line stroke="rgb(0%,0%,0%)" x1="391.791943427" x2="384.472768398" y1="247.481030265" y2="248.102807653" /><line stroke="rgb(0%,0%,0%)" x1="413.178163249" x2="405.503357083" y1="320.608895915" y2="318.687415785" /><line stroke="rgb(0%,0%,0%)" x1="405.503357083" x2="394.392003988" y1="318.687415785" y2="318.200500504" /><line stroke="rgb(0%,0%,0%)" x1="390.077222811" x2="395.546099278" y1="306.031933409" y2="307.853835934" /><line stroke="rgb(0%,0%,0%)" x1="411.871694969" x2="401.612051906" y1="253.022082886" y2="249.3663004" /><line stroke="rgb(0%,0%,0%)" x1="422.629202701" x2="415.24110011" y1="325.231215546" y2="321.463208151" /><line stroke="rgb(0%,0%,0%)" x1="421.223887661" x2="415.68259909" y1="316.887236047" y2="315.011906142" /><line stroke="rgb(0%,0%,0%)" x1="413.342853588" x2="415.68259909" y1="313.968049566" y2="315.011906142" /><line stroke="rgb(0%,0%,0%)" x1="421.223887661" x2="426.272675828" y1="316.887236047" y2="320.541777508" /><line stroke="rgb(0%,0%,0%)" x1="422.861005553" x2="419.379590387" y1="255.105882284" y2="254.550145124" /><line stroke="rgb(0%,0%,0%)" x1="424.58403009" x2="422.629202701" y1="326.429670131" y2="325.231215546" /><line stroke="rgb(0%,0%,0%)" x1="427.374949156" x2="428.481079029" y1="321.157045013" y2="322.030468633" /><line stroke="rgb(0%,0%,0%)" x1="426.272675828" x2="427.374949156" y1="320.541777508" y2="321.157045013" /><line stroke="rgb(0%,0%,0%)" x1="430.108292541" x2="436.587709531" y1="323.596722339" y2="328.59365502" /><line stroke="rgb(0%,0%,0%)" x1="428.481079029" x2="430.108292541" y1="322.030468633" y2="323.596722339" /><line stroke="rgb(0%,0%,0%)" x1="364.016090913" x2="364.576411852" y1="293.768662697" y2="293.956213601" /><line stroke="rgb(0%,0%,0%)" x1="361.873858206" x2="360.51806681" y1="291.959312858" y2="290.066528529" /><line stroke="rgb(0%,0%,0%)" x1="359.446973493" x2="359.563594263" y1="288.127048785" y2="288.570989892" /><line stroke="rgb(0%,0%,0%)" x1="359.446973493" x2="359.410385928" y1="288.127048785" y2="287.820361553" /><line stroke="rgb(0%,0%,0%)" x1="359.235240397" x2="360.489385408" y1="286.213822321" y2="285.1325757" /><line stroke="rgb(0%,0%,0%)" x1="367.58398504" x2="374.940400988" y1="315.059404863" y2="316.426938821" /><line stroke="rgb(0%,0%,0%)" x1="367.58398504" x2="356.186273941" y1="315.059404863" y2="314.837145921" /><line stroke="rgb(0%,0%,0%)" x1="368.161857822" x2="371.57842058" y1="296.646861308" y2="298.593654955" /><line stroke="rgb(0%,0%,0%)" x1="368.161857822" x2="367.589190703" y1="296.646861308" y2="296.263050552" /><line stroke="rgb(0%,0%,0%)" x1="366.300464738" x2="367.229076008" y1="295.344982378" y2="296.040221413" /><line stroke="rgb(0%,0%,0%)" x1="364.576411852" x2="366.300464738" y1="293.956213601" y2="295.344982378" /><line stroke="rgb(0%,0%,0%)" x1="361.873858206" x2="364.016090913" y1="291.959312858" y2="293.768662697" /><line stroke="rgb(0%,0%,0%)" x1="365.12971704" x2="363.170010296" y1="283.794802829" y2="283.794397385" /><line stroke="rgb(0%,0%,0%)" x1="365.12971704" x2="368.816022318" y1="283.794802829" y2="282.315325465" /><line stroke="rgb(0%,0%,0%)" x1="365.803608436" x2="366.91660886" y1="263.550313664" y2="265.715274061" /><line stroke="rgb(0%,0%,0%)" x1="375.315535203" x2="368.843029264" y1="273.064153482" y2="268.319123806" /><line stroke="rgb(0%,0%,0%)" x1="368.234936074" x2="368.843029264" y1="267.09656283" y2="268.319123806" /><line stroke="rgb(0%,0%,0%)" x1="366.91660886" x2="368.234936074" y1="265.715274061" y2="267.09656283" /><line stroke="rgb(0%,0%,0%)" x1="365.803608436" x2="366.565791214" y1="263.550313664" y2="261.401959647" /><line stroke="rgb(0%,0%,0%)" x1="368.034303691" x2="366.565791214" y1="256.875654083" y2="261.401959647" /><line stroke="rgb(0%,0%,0%)" x1="369.519318794" x2="372.457640913" y1="253.907718791" y2="250.585085513" /><line stroke="rgb(0%,0%,0%)" x1="369.519318794" x2="368.034303691" y1="253.907718791" y2="256.875654083" /><line stroke="rgb(0%,0%,0%)" x1="383.398728196" x2="378.711076585" y1="317.708955097" y2="316.761346791" /><line stroke="rgb(0%,0%,0%)" x1="378.711076585" x2="374.940400988" y1="316.761346791" y2="316.426938821" /><line stroke="rgb(0%,0%,0%)" x1="381.435543359" x2="381.781253405" y1="302.804286192" y2="303.041384033" /><line stroke="rgb(0%,0%,0%)" x1="373.74836692" x2="381.435543359" y1="299.707603674" y2="302.804286192" /><line stroke="rgb(0%,0%,0%)" x1="371.554955328" x2="373.74836692" y1="298.549785013" y2="299.707603674" /><line stroke="rgb(0%,0%,0%)" x1="371.57842058" x2="371.554955328" y1="298.593654955" y2="298.549785013" /><line stroke="rgb(0%,0%,0%)" x1="367.229076008" x2="367.589190703" y1="296.040221413" y2="296.263050552" /><line stroke="rgb(0%,0%,0%)" x1="372.030436509" x2="368.816022318" y1="281.880096849" y2="282.315325465" /><line stroke="rgb(0%,0%,0%)" x1="380.403101156" x2="379.389342525" y1="276.921502249" y2="277.645997474" /><line stroke="rgb(0%,0%,0%)" x1="376.426552886" x2="372.030436509" y1="279.048150571" y2="281.880096849" /><line stroke="rgb(0%,0%,0%)" x1="376.426552886" x2="379.389342525" y1="279.048150571" y2="277.645997474" /><line stroke="rgb(0%,0%,0%)" x1="375.315535203" x2="379.251776991" y1="273.064153482" y2="276.090679201" /><line stroke="rgb(0%,0%,0%)" x1="379.251776991" x2="380.015499441" y1="276.090679201" y2="276.610723257" /><line stroke="rgb(0%,0%,0%)" x1="372.700238545" x2="372.457640913" y1="250.465131647" y2="250.585085513" /><line stroke="rgb(0%,0%,0%)" x1="380.015499441" x2="380.403101156" y1="276.610723257" y2="276.921502249" /><line stroke="rgb(0%,0%,0%)" x1="395.546099278" x2="406.491570221" y1="307.853835934" y2="311.340446782" /><line stroke="rgb(0%,0%,0%)" x1="323.863925832" x2="336.989029135" y1="312.405265075" y2="312.3670467" /><line stroke="rgb(0%,0%,0%)" x1="345.307311761" x2="336.989029135" y1="312.523663864" y2="312.3670467" /><line stroke="rgb(0%,0%,0%)" x1="349.395848986" x2="354.996060743" y1="313.279645448" y2="314.588883056" /><line stroke="rgb(0%,0%,0%)" x1="349.395848986" x2="345.307311761" y1="313.279645448" y2="312.523663864" /><line stroke="rgb(0%,0%,0%)" x1="356.186273941" x2="354.996060743" y1="314.837145921" y2="314.588883056" /><line stroke="rgb(0%,0%,0%)" x1="360.420844778" x2="360.51806681" y1="289.674227295" y2="290.066528529" /><line stroke="rgb(0%,0%,0%)" x1="359.563594263" x2="360.420844778" y1="288.570989892" y2="289.674227295" /><line stroke="rgb(0%,0%,0%)" x1="359.235240397" x2="359.410385928" y1="286.213822321" y2="287.820361553" /><line stroke="rgb(0%,0%,0%)" x1="361.573773848" x2="360.489385408" y1="284.87305261" y2="285.1325757" /><line stroke="rgb(0%,0%,0%)" x1="363.170010296" x2="361.573773848" y1="283.794397385" y2="284.87305261" /><line stroke="rgb(0%,0%,0%)" x1="307.385480258" x2="303.529833047" y1="312.573881298" y2="313.280262217" /><line stroke="rgb(0%,0%,0%)" x1="303.529833047" x2="301.165413738" y1="313.280262217" y2="312.984859203" /><line stroke="rgb(0%,0%,0%)" x1="321.079234194" x2="307.385480258" y1="311.786383148" y2="312.573881298" /><line stroke="rgb(0%,0%,0%)" x1="301.165413738" x2="299.332802322" y1="312.984859203" y2="313.062672422" /><line stroke="rgb(0%,0%,0%)" x1="323.863925832" x2="322.748007016" y1="312.405265075" y2="311.677761566" /><line stroke="rgb(0%,0%,0%)" x1="321.079234194" x2="322.748007016" y1="311.786383148" y2="311.677761566" /><line stroke="rgb(0%,0%,0%)" x1="256.370710254" x2="271.973950375" y1="327.569645382" y2="321.040546062" /><line stroke="rgb(0%,0%,0%)" x1="276.935133604" x2="272.25575536" y1="319.000151432" y2="320.909070466" /><line stroke="rgb(0%,0%,0%)" x1="289.730765394" x2="278.500871095" y1="314.809706515" y2="318.526426151" /><line stroke="rgb(0%,0%,0%)" x1="299.332802322" x2="291.692139637" y1="313.062672422" y2="314.432861559" /><line stroke="rgb(0%,0%,0%)" x1="291.692139637" x2="289.730765394" y1="314.432861559" y2="314.809706515" /><line stroke="rgb(0%,0%,0%)" x1="209.579633769" x2="199.746548101" y1="356.34062786" y2="360.689200693" /><line stroke="rgb(0%,0%,0%)" x1="209.579633769" x2="212.791825217" y1="356.34062786" y2="354.593225035" /><line stroke="rgb(0%,0%,0%)" x1="226.357643429" x2="242.500966895" y1="346.403087188" y2="336.879320741" /><line stroke="rgb(0%,0%,0%)" x1="225.036090648" x2="226.357643429" y1="347.957323268" y2="346.403087188" /><line stroke="rgb(0%,0%,0%)" x1="245.821691394" x2="244.56721626" y1="335.021442183" y2="335.561440588" /><line stroke="rgb(0%,0%,0%)" x1="256.370710254" x2="245.821691394" y1="327.569645382" y2="335.021442183" /><line stroke="rgb(0%,0%,0%)" x1="272.164303384" x2="271.973950375" y1="320.95040763" y2="321.040546062" /><line stroke="rgb(0%,0%,0%)" x1="272.212647929" x2="272.164303384" y1="320.927096732" y2="320.95040763" /><line stroke="rgb(0%,0%,0%)" x1="272.25575536" x2="272.212647929" y1="320.909070466" y2="320.927096732" /><line stroke="rgb(0%,0%,0%)" x1="278.500871095" x2="276.935133604" y1="318.526426151" y2="319.000151432" /><line stroke="rgb(0%,0%,0%)" x1="225.036090648" x2="212.791825217" y1="347.957323268" y2="354.593225035" /><line stroke="rgb(0%,0%,0%)" x1="243.545926281" x2="242.500966895" y1="336.24908287" y2="336.879320741" /><line stroke="rgb(0%,0%,0%)" x1="244.56721626" x2="243.545926281" y1="335.561440588" y2="336.24908287" /><line stroke="rgb(0%,0%,0%)" x1="129.965860758" x2="132.704408848" y1="405.872394545" y2="404.603242776" /><line stroke="rgb(0%,0%,0%)" x1="172.947767037" x2="167.201312214" y1="372.531569493" y2="377.134460608" /><line stroke="rgb(0%,0%,0%)" x1="182.403361571" x2="172.947767037" y1="367.747265929" y2="372.531569493" /><line stroke="rgb(0%,0%,0%)" x1="189.132063639" x2="182.403361571" y1="363.547557319" y2="367.747265929" /><line stroke="rgb(0%,0%,0%)" x1="199.746548101" x2="189.132063639" y1="360.689200693" y2="363.547557319" /><line stroke="rgb(0%,0%,0%)" x1="129.965860758" x2="127.735793222" y1="405.872394545" y2="406.290018023" /><line stroke="rgb(0%,0%,0%)" x1="142.255248653" x2="132.704408848" y1="400.711284282" y2="404.603242776" /><line stroke="rgb(0%,0%,0%)" x1="144.947322823" x2="142.255248653" y1="397.822156606" y2="400.711284282" /><line stroke="rgb(0%,0%,0%)" x1="144.947322823" x2="145.465107754" y1="397.822156606" y2="397.362274972" /><line stroke="rgb(0%,0%,0%)" x1="149.850546726" x2="145.465107754" y1="394.273817275" y2="397.362274972" /><line stroke="rgb(0%,0%,0%)" x1="149.850546726" x2="154.014830114" y1="394.273817275" y2="390.0035192" /><line stroke="rgb(0%,0%,0%)" x1="157.434150129" x2="154.014830114" y1="386.554111461" y2="390.0035192" /><line stroke="rgb(0%,0%,0%)" x1="157.434150129" x2="161.183228795" y1="386.554111461" y2="382.268327516" /><line stroke="rgb(0%,0%,0%)" x1="163.989968356" x2="163.54225785" y1="379.635060944" y2="380.070369492" /><line stroke="rgb(0%,0%,0%)" x1="167.201312214" x2="163.989968356" y1="377.134460608" y2="379.635060944" /><line stroke="rgb(0%,0%,0%)" x1="95.8997577397" x2="104.714656357" y1="423.025956728" y2="418.592711225" /><line stroke="rgb(0%,0%,0%)" x1="112.73078448" x2="122.060101408" y1="413.126023661" y2="408.947528956" /><line stroke="rgb(0%,0%,0%)" x1="112.73078448" x2="104.714656357" y1="413.126023661" y2="418.592711225" /><line stroke="rgb(0%,0%,0%)" x1="127.735793222" x2="122.060101408" y1="406.290018023" y2="408.947528956" /><line stroke="rgb(0%,0%,0%)" x1="163.54225785" x2="161.183228795" y1="380.070369492" y2="382.268327516" /><line stroke="rgb(0%,0%,0%)" x1="72.3221481147" x2="71.6349401299" y1="459.273886479" y2="455.914754897" /><line stroke="rgb(0%,0%,0%)" x1="71.4061880196" x2="71.6349401299" y1="449.669886049" y2="455.914754897" /><line stroke="rgb(0%,0%,0%)" x1="74.9228959638" x2="73.8056630423" y1="439.588601452" y2="441.91789252" /><line stroke="rgb(0%,0%,0%)" x1="74.9228959638" x2="77.3698898886" y1="439.588601452" y2="436.872635345" /><line stroke="rgb(0%,0%,0%)" x1="95.8997577397" x2="89.1956068415" y1="423.025956728" y2="426.961987355" /><line stroke="rgb(0%,0%,0%)" x1="73.8056630423" x2="71.4061880196" y1="441.91789252" y2="449.669886049" /><line stroke="rgb(0%,0%,0%)" x1="83.5228140887" x2="77.3698898886" y1="430.814883941" y2="436.872635345" /><line stroke="rgb(0%,0%,0%)" x1="89.1956068415" x2="83.5228140887" y1="426.961987355" y2="430.814883941" /><line stroke="rgb(0%,0%,0%)" x1="574.151579456" x2="574.031279032" y1="538.194192651" y2="538.418690535" /><line stroke="rgb(0%,0%,0%)" x1="574.151579456" x2="574.178951407" y1="538.194192651" y2="538.118380145" /><line stroke="rgb(0%,0%,0%)" x1="587.358773794" x2="587.196727608" y1="516.914660815" y2="517.254072804" /><line stroke="rgb(0%,0%,0%)" x1="587.358773794" x2="587.708411207" y1="516.914660815" y2="516.230119044" /><line stroke="rgb(0%,0%,0%)" x1="602.99462817" x2="601.986291265" y1="486.708708994" y2="490.235878642" /><line stroke="rgb(0%,0%,0%)" x1="602.99462817" x2="603.346086269" y1="486.708708994" y2="484.982315231" /><line stroke="rgb(0%,0%,0%)" x1="574.178951407" x2="574.312092384" y1="538.118380145" y2="537.935627943" /><line stroke="rgb(0%,0%,0%)" x1="577.956131654" x2="577.780759144" y1="532.032198335" y2="532.382709721" /><line stroke="rgb(0%,0%,0%)" x1="577.956131654" x2="578.229713258" y1="532.032198335" y2="531.621407811" /><line stroke="rgb(0%,0%,0%)" x1="591.90272011" x2="590.915763677" y1="509.230741887" y2="510.853084021" /><line stroke="rgb(0%,0%,0%)" x1="591.90272011" x2="594.100379849" y1="509.230741887" y2="506.043561925" /><line stroke="rgb(0%,0%,0%)" x1="603.346086269" x2="604.642840169" y1="484.982315231" y2="481.016706854" /><line stroke="rgb(0%,0%,0%)" x1="607.378646061" x2="607.820832464" y1="472.554500084" y2="463.564785445" /><line stroke="rgb(0%,0%,0%)" x1="608.685867417" x2="607.820832464" y1="457.0525474" y2="463.564785445" /><line stroke="rgb(0%,0%,0%)" x1="574.031279032" x2="572.766811834" y1="538.418690535" y2="542.327202392" /><line stroke="rgb(0%,0%,0%)" x1="578.229713258" x2="580.94659025" y1="531.621407811" y2="526.434647148" /><line stroke="rgb(0%,0%,0%)" x1="584.351972331" x2="581.339755429" y1="523.223859206" y2="525.739681109" /><line stroke="rgb(0%,0%,0%)" x1="587.196727608" x2="586.662088474" y1="517.254072804" y2="518.34032859" /><line stroke="rgb(0%,0%,0%)" x1="587.708411207" x2="589.764416378" y1="516.230119044" y2="514.297215986" /><line stroke="rgb(0%,0%,0%)" x1="589.764416378" x2="590.915763677" y1="514.297215986" y2="510.853084021" /><line stroke="rgb(0%,0%,0%)" x1="594.100379849" x2="596.442852671" y1="506.043561925" y2="502.673057355" /><line stroke="rgb(0%,0%,0%)" x1="598.578015058" x2="596.442852671" y1="498.195751021" y2="502.673057355" /><line stroke="rgb(0%,0%,0%)" x1="598.578015058" x2="599.952925209" y1="498.195751021" y2="494.921477193" /><line stroke="rgb(0%,0%,0%)" x1="599.952925209" x2="601.986291265" y1="494.921477193" y2="490.235878642" /><line stroke="rgb(0%,0%,0%)" x1="607.378646061" x2="605.465130173" y1="472.554500084" y2="477.921391889" /><line stroke="rgb(0%,0%,0%)" x1="531.058844207" x2="529.550096125" y1="608.322000991" y2="609.846838141" /><line stroke="rgb(0%,0%,0%)" x1="544.207035003" x2="540.287204789" y1="590.032089633" y2="595.07384248" /><line stroke="rgb(0%,0%,0%)" x1="544.207035003" x2="546.948427343" y1="590.032089633" y2="586.095452662" /><line stroke="rgb(0%,0%,0%)" x1="551.973849121" x2="554.448830472" y1="581.16456349" y2="577.54451646" /><line stroke="rgb(0%,0%,0%)" x1="554.448830472" x2="557.78313897" y1="577.54451646" y2="573.568262201" /><line stroke="rgb(0%,0%,0%)" x1="558.873004399" x2="557.78313897" y1="572.74314992" y2="573.568262201" /><line stroke="rgb(0%,0%,0%)" x1="558.873004399" x2="560.737326824" y1="572.74314992" y2="569.405805041" /><line stroke="rgb(0%,0%,0%)" x1="560.737326824" x2="565.283926831" y1="569.405805041" y2="562.531828705" /><line stroke="rgb(0%,0%,0%)" x1="565.283926831" x2="567.753657821" y1="562.531828705" y2="558.547926958" /><line stroke="rgb(0%,0%,0%)" x1="567.926506819" x2="567.753657821" y1="557.377074118" y2="558.547926958" /><line stroke="rgb(0%,0%,0%)" x1="567.926506819" x2="571.535827651" y1="557.377074118" y2="546.754869621" /><line stroke="rgb(0%,0%,0%)" x1="571.535827651" x2="571.808217665" y1="546.754869621" y2="545.933447844" /><line stroke="rgb(0%,0%,0%)" x1="571.808217665" x2="572.058800631" y1="545.933447844" y2="545.240359691" /><line stroke="rgb(0%,0%,0%)" x1="572.058800631" x2="572.766811834" y1="545.240359691" y2="542.327202392" /><line stroke="rgb(0%,0%,0%)" x1="574.312092384" x2="577.620992167" y1="537.935627943" y2="535.775708016" /><line stroke="rgb(0%,0%,0%)" x1="577.620992167" x2="577.780759144" y1="535.775708016" y2="532.382709721" /><line stroke="rgb(0%,0%,0%)" x1="580.94659025" x2="581.300818453" y1="526.434647148" y2="525.81922951" /><line stroke="rgb(0%,0%,0%)" x1="581.300818453" x2="581.330091975" y1="525.81922951" y2="525.791383901" /><line stroke="rgb(0%,0%,0%)" x1="581.330091975" x2="581.339755429" y1="525.791383901" y2="525.739681109" /><line stroke="rgb(0%,0%,0%)" x1="584.351972331" x2="586.662088474" y1="523.223859206" y2="518.34032859" /><line stroke="rgb(0%,0%,0%)" x1="604.642840169" x2="605.465130173" y1="481.016706854" y2="477.921391889" /><line stroke="rgb(0%,0%,0%)" x1="484.114126148" x2="483.889053352" y1="651.31031063" y2="651.470153253" /><line stroke="rgb(0%,0%,0%)" x1="484.114126148" x2="484.292846541" y1="651.31031063" y2="651.136702529" /><line stroke="rgb(0%,0%,0%)" x1="484.292846541" x2="489.392727494" y1="651.136702529" y2="647.14070222" /><line stroke="rgb(0%,0%,0%)" x1="493.708918981" x2="494.137985797" y1="644.524069527" y2="643.760527734" /><line stroke="rgb(0%,0%,0%)" x1="499.785375272" x2="497.552163552" y1="639.901927418" y2="641.859934049" /><line stroke="rgb(0%,0%,0%)" x1="508.615456479" x2="509.5821622" y1="633.50234824" y2="632.310624465" /><line stroke="rgb(0%,0%,0%)" x1="509.5821622" x2="512.717132551" y1="632.310624465" y2="629.802062307" /><line stroke="rgb(0%,0%,0%)" x1="517.814937603" x2="513.958777007" y1="624.083603319" y2="628.624062151" /><line stroke="rgb(0%,0%,0%)" x1="519.203428216" x2="517.814937603" y1="622.84196438" y2="624.083603319" /><line stroke="rgb(0%,0%,0%)" x1="525.676944716" x2="529.550096125" y1="615.363135752" y2="609.846838141" /><line stroke="rgb(0%,0%,0%)" x1="531.058844207" x2="533.998353916" y1="608.322000991" y2="603.543967258" /><line stroke="rgb(0%,0%,0%)" x1="533.998353916" x2="540.287204789" y1="603.543967258" y2="595.07384248" /><line stroke="rgb(0%,0%,0%)" x1="546.948427343" x2="551.973849121" y1="586.095452662" y2="581.16456349" /><line stroke="rgb(0%,0%,0%)" x1="458.729642757" x2="461.327109141" y1="661.675387379" y2="661.123700985" /><line stroke="rgb(0%,0%,0%)" x1="468.237233106" x2="474.873209593" y1="658.556041003" y2="656.445347698" /><line stroke="rgb(0%,0%,0%)" x1="477.023819346" x2="474.873209593" y1="654.832183102" y2="656.445347698" /><line stroke="rgb(0%,0%,0%)" x1="477.023819346" x2="483.889053352" y1="654.832183102" y2="651.470153253" /><line stroke="rgb(0%,0%,0%)" x1="489.392727494" x2="493.708918981" y1="647.14070222" y2="644.524069527" /><line stroke="rgb(0%,0%,0%)" x1="494.137985797" x2="497.552163552" y1="643.760527734" y2="641.859934049" /><line stroke="rgb(0%,0%,0%)" x1="499.785375272" x2="508.615456479" y1="639.901927418" y2="633.50234824" /><line stroke="rgb(0%,0%,0%)" x1="512.717132551" x2="513.958777007" y1="629.802062307" y2="628.624062151" /><line stroke="rgb(0%,0%,0%)" x1="519.203428216" x2="525.676944716" y1="622.84196438" y2="615.363135752" /><line stroke="rgb(0%,0%,0%)" x1="451.032717789" x2="445.837523604" y1="662.249317349" y2="663.567942509" /><line stroke="rgb(0%,0%,0%)" x1="456.898073094" x2="456.554959633" y1="565.622545801" y2="566.319271813" /><line stroke="rgb(0%,0%,0%)" x1="451.032717789" x2="456.582883746" y1="662.249317349" y2="662.297518547" /><line stroke="rgb(0%,0%,0%)" x1="456.582883746" x2="458.729642757" y1="662.297518547" y2="661.675387379" /><line stroke="rgb(0%,0%,0%)" x1="468.237233106" x2="465.498037032" y1="658.556041003" y2="660.041493127" /><line stroke="rgb(0%,0%,0%)" x1="407.756140125" x2="406.742437252" y1="664.585464816" y2="664.75183164" /><line stroke="rgb(0%,0%,0%)" x1="412.474271189" x2="416.241418483" y1="603.789627185" y2="602.503861435" /><line stroke="rgb(0%,0%,0%)" x1="412.474271189" x2="406.114102654" y1="603.789627185" y2="606.186098885" /><line stroke="rgb(0%,0%,0%)" x1="416.241418483" x2="421.767174577" y1="602.503861435" y2="599.217656564" /><line stroke="rgb(0%,0%,0%)" x1="435.273797683" x2="430.345923652" y1="662.836904457" y2="660.823569222" /><line stroke="rgb(0%,0%,0%)" x1="430.417899125" x2="426.051976386" y1="592.257887185" y2="596.335880562" /><line stroke="rgb(0%,0%,0%)" x1="430.287847518" x2="428.549441679" y1="584.65184832" y2="586.309198325" /><line stroke="rgb(0%,0%,0%)" x1="426.001843878" x2="428.549441679" y1="588.282539249" y2="586.309198325" /><line stroke="rgb(0%,0%,0%)" x1="435.273797683" x2="441.080629911" y1="662.836904457" y2="663.41184986" /><line stroke="rgb(0%,0%,0%)" x1="428.731285589" x2="430.345923652" y1="659.231607086" y2="660.823569222" /><line stroke="rgb(0%,0%,0%)" x1="430.417899125" x2="433.146042844" y1="592.257887185" y2="590.282689302" /><line stroke="rgb(0%,0%,0%)" x1="441.203198583" x2="433.146042844" y1="583.439524514" y2="590.282689302" /><line stroke="rgb(0%,0%,0%)" x1="430.287847518" x2="432.208155077" y1="584.65184832" y2="583.428639368" /><line stroke="rgb(0%,0%,0%)" x1="432.208155077" x2="439.325317901" y1="583.428639368" y2="576.770192472" /><line stroke="rgb(0%,0%,0%)" x1="440.248362529" x2="439.325317901" y1="575.95390385" y2="576.770192472" /><line stroke="rgb(0%,0%,0%)" x1="441.080629911" x2="445.837523604" y1="663.41184986" y2="663.567942509" /><line stroke="rgb(0%,0%,0%)" x1="461.327109141" x2="465.498037032" y1="661.123700985" y2="660.041493127" /><line stroke="rgb(0%,0%,0%)" x1="441.203198583" x2="448.95011855" y1="583.439524514" y2="575.222163502" /><line stroke="rgb(0%,0%,0%)" x1="456.554959633" x2="448.95011855" y1="566.319271813" y2="575.222163502" /><line stroke="rgb(0%,0%,0%)" x1="440.248362529" x2="444.889861583" y1="575.95390385" y2="573.326656967" /><line stroke="rgb(0%,0%,0%)" x1="444.889861583" x2="447.484584667" y1="573.326656967" y2="571.210520935" /><line stroke="rgb(0%,0%,0%)" x1="454.766180522" x2="447.484584667" y1="565.256949423" y2="571.210520935" /><line stroke="rgb(0%,0%,0%)" x1="458.44775486" x2="456.898073094" y1="562.462608744" y2="565.622545801" /><line stroke="rgb(0%,0%,0%)" x1="457.170065625" x2="456.745014624" y1="563.088008967" y2="563.085641318" /><line stroke="rgb(0%,0%,0%)" x1="454.766180522" x2="456.745014624" y1="565.256949423" y2="563.085641318" /><line stroke="rgb(0%,0%,0%)" x1="457.170065625" x2="458.44775486" y1="563.088008967" y2="562.462608744" /><line stroke="rgb(0%,0%,0%)" x1="386.628559711" x2="384.129968249" y1="613.864379445" y2="614.593798574" /><line stroke="rgb(0%,0%,0%)" x1="389.273134075" x2="386.628559711" y1="612.792908702" y2="613.864379445" /><line stroke="rgb(0%,0%,0%)" x1="389.273134075" x2="394.871610573" y1="612.792908702" y2="610.06974965" /><line stroke="rgb(0%,0%,0%)" x1="382.471398065" x2="395.114874468" y1="599.537739112" y2="597.633648387" /><line stroke="rgb(0%,0%,0%)" x1="394.849508438" x2="399.205132754" y1="664.752304716" y2="665.045762274" /><line stroke="rgb(0%,0%,0%)" x1="399.205132754" x2="406.742437252" y1="665.045762274" y2="664.75183164" /><line stroke="rgb(0%,0%,0%)" x1="394.849508438" x2="391.00008611" y1="664.752304716" y2="663.928905948" /><line stroke="rgb(0%,0%,0%)" x1="399.641394194" x2="394.871610573" y1="608.961290795" y2="610.06974965" /><line stroke="rgb(0%,0%,0%)" x1="404.691032744" x2="398.127683604" y1="596.832536517" y2="597.135221197" /><line stroke="rgb(0%,0%,0%)" x1="395.934353514" x2="396.481103352" y1="597.469101398" y2="597.356375315" /><line stroke="rgb(0%,0%,0%)" x1="396.481103352" x2="398.127683604" y1="597.356375315" y2="597.135221197" /><line stroke="rgb(0%,0%,0%)" x1="407.756140125" x2="412.186019979" y1="664.585464816" y2="663.305154104" /><line stroke="rgb(0%,0%,0%)" x1="412.186019979" x2="422.024075027" y1="663.305154104" y2="660.537983472" /><line stroke="rgb(0%,0%,0%)" x1="406.114102654" x2="405.093702924" y1="606.186098885" y2="606.779965098" /><line stroke="rgb(0%,0%,0%)" x1="405.093702924" x2="399.641394194" y1="606.779965098" y2="608.961290795" /><line stroke="rgb(0%,0%,0%)" x1="407.635795613" x2="404.691032744" y1="595.996455094" y2="596.832536517" /><line stroke="rgb(0%,0%,0%)" x1="407.635795613" x2="408.601663768" y1="595.996455094" y2="595.651800904" /><line stroke="rgb(0%,0%,0%)" x1="408.601663768" x2="409.915340495" y1="595.651800904" y2="595.015545723" /><line stroke="rgb(0%,0%,0%)" x1="422.024075027" x2="428.731285589" y1="660.537983472" y2="659.231607086" /><line stroke="rgb(0%,0%,0%)" x1="426.051976386" x2="421.767174577" y1="596.335880562" y2="599.217656564" /><line stroke="rgb(0%,0%,0%)" x1="321.885420362" x2="325.683360519" y1="600.637064916" y2="601.002454444" /><line stroke="rgb(0%,0%,0%)" x1="371.779907531" x2="371.12065279" y1="621.688611155" y2="622.369501008" /><line stroke="rgb(0%,0%,0%)" x1="368.12707595" x2="366.830768868" y1="627.358123277" y2="628.316168428" /><line stroke="rgb(0%,0%,0%)" x1="368.12707595" x2="367.644335796" y1="627.358123277" y2="626.389697152" /><line stroke="rgb(0%,0%,0%)" x1="369.655718058" x2="369.572037367" y1="623.81070724" y2="623.884007242" /><line stroke="rgb(0%,0%,0%)" x1="371.12065279" x2="369.655718058" y1="622.369501008" y2="623.81070724" /><line stroke="rgb(0%,0%,0%)" x1="371.779907531" x2="372.624276501" y1="621.688611155" y2="621.431065041" /><line stroke="rgb(0%,0%,0%)" x1="352.691788395" x2="360.018147623" y1="601.522425973" y2="600.459442765" /><line stroke="rgb(0%,0%,0%)" x1="373.356178266" x2="376.184721335" y1="632.359729298" y2="632.959666195" /><line stroke="rgb(0%,0%,0%)" x1="373.356178266" x2="370.240934988" y1="632.359729298" y2="631.627130074" /><line stroke="rgb(0%,0%,0%)" x1="369.922818854" x2="370.240934988" y1="631.202940504" y2="631.627130074" /><line stroke="rgb(0%,0%,0%)" x1="369.037975565" x2="369.922818854" y1="630.407073367" y2="631.202940504" /><line stroke="rgb(0%,0%,0%)" x1="368.422424396" x2="369.037975565" y1="629.282012444" y2="630.407073367" /><line stroke="rgb(0%,0%,0%)" x1="368.422424396" x2="366.830768868" y1="629.282012444" y2="628.316168428" /><line stroke="rgb(0%,0%,0%)" x1="367.562758289" x2="367.644335796" y1="625.854286081" y2="626.389697152" /><line stroke="rgb(0%,0%,0%)" x1="369.572037367" x2="367.936846595" y1="623.884007242" y2="625.43496126" /><line stroke="rgb(0%,0%,0%)" x1="367.936846595" x2="367.562758289" y1="625.43496126" y2="625.854286081" /><line stroke="rgb(0%,0%,0%)" x1="373.992031872" x2="373.584708478" y1="620.082050669" y2="620.280650161" /><line stroke="rgb(0%,0%,0%)" x1="375.621624013" x2="373.992031872" y1="619.555185879" y2="620.082050669" /><line stroke="rgb(0%,0%,0%)" x1="384.129968249" x2="383.448973376" y1="614.593798574" y2="614.944008947" /><line stroke="rgb(0%,0%,0%)" x1="371.884553567" x2="360.018147623" y1="600.156077266" y2="600.459442765" /><line stroke="rgb(0%,0%,0%)" x1="384.308914458" x2="384.710492058" y1="660.777061586" y2="661.167669594" /><line stroke="rgb(0%,0%,0%)" x1="384.308914458" x2="384.087825588" y1="660.777061586" y2="660.195436612" /><line stroke="rgb(0%,0%,0%)" x1="380.853341889" x2="384.087825588" y1="652.790504694" y2="660.195436612" /><line stroke="rgb(0%,0%,0%)" x1="382.836553797" x2="380.853341889" y1="648.538534859" y2="652.790504694" /><line stroke="rgb(0%,0%,0%)" x1="384.414534725" x2="382.836553797" y1="645.716229215" y2="648.538534859" /><line stroke="rgb(0%,0%,0%)" x1="386.012996666" x2="384.414534725" y1="644.853073905" y2="645.716229215" /><line stroke="rgb(0%,0%,0%)" x1="386.012996666" x2="388.485901587" y1="644.853073905" y2="642.630426658" /><line stroke="rgb(0%,0%,0%)" x1="383.240165108" x2="388.068371419" y1="634.438789607" y2="637.644035933" /><line stroke="rgb(0%,0%,0%)" x1="379.964583725" x2="383.240165108" y1="633.820702988" y2="634.438789607" /><line stroke="rgb(0%,0%,0%)" x1="376.184721335" x2="379.964583725" y1="632.959666195" y2="633.820702988" /><line stroke="rgb(0%,0%,0%)" x1="373.277207907" x2="372.624276501" y1="621.138367284" y2="621.431065041" /><line stroke="rgb(0%,0%,0%)" x1="373.277207907" x2="373.584708478" y1="621.138367284" y2="620.280650161" /><line stroke="rgb(0%,0%,0%)" x1="377.21261824" x2="375.621624013" y1="618.402882425" y2="619.555185879" /><line stroke="rgb(0%,0%,0%)" x1="379.373171542" x2="377.21261824" y1="617.185224391" y2="618.402882425" /><line stroke="rgb(0%,0%,0%)" x1="383.448973376" x2="379.373171542" y1="614.944008947" y2="617.185224391" /><line stroke="rgb(0%,0%,0%)" x1="371.884553567" x2="377.42811536" y1="600.156077266" y2="599.797080261" /><line stroke="rgb(0%,0%,0%)" x1="377.42811536" x2="382.471398065" y1="599.797080261" y2="599.537739112" /><line stroke="rgb(0%,0%,0%)" x1="388.321376939" x2="391.00008611" y1="663.015060573" y2="663.928905948" /><line stroke="rgb(0%,0%,0%)" x1="384.710492058" x2="388.321376939" y1="661.167669594" y2="663.015060573" /><line stroke="rgb(0%,0%,0%)" x1="390.23186288" x2="388.485901587" y1="641.275046637" y2="642.630426658" /><line stroke="rgb(0%,0%,0%)" x1="392.509273369" x2="390.23186288" y1="639.323795359" y2="641.275046637" /><line stroke="rgb(0%,0%,0%)" x1="388.068371419" x2="392.509273369" y1="637.644035933" y2="639.323795359" /><line stroke="rgb(0%,0%,0%)" x1="395.114874468" x2="395.934353514" y1="597.633648387" y2="597.469101398" /><line stroke="rgb(0%,0%,0%)" x1="321.885420362" x2="316.820354823" y1="600.637064916" y2="599.871244552" /><line stroke="rgb(0%,0%,0%)" x1="329.342556831" x2="342.110826798" y1="600.99191176" y2="602.101514501" /><line stroke="rgb(0%,0%,0%)" x1="352.691788395" x2="342.110826798" y1="601.522425973" y2="602.101514501" /><line stroke="rgb(0%,0%,0%)" x1="325.683360519" x2="327.857646448" y1="601.002454444" y2="600.999107387" /><line stroke="rgb(0%,0%,0%)" x1="327.857646448" x2="329.342556831" y1="600.999107387" y2="600.99191176" /><line stroke="rgb(0%,0%,0%)" x1="255.236394956" x2="254.656353115" y1="585.169639544" y2="584.9780515" /><line stroke="rgb(0%,0%,0%)" x1="254.656353115" x2="253.437568249" y1="584.9780515" y2="584.290100949" /><line stroke="rgb(0%,0%,0%)" x1="265.5713516" x2="284.615375871" y1="589.901757174" y2="594.955655965" /><line stroke="rgb(0%,0%,0%)" x1="284.615375871" x2="284.962194602" y1="594.955655965" y2="595.081545293" /><line stroke="rgb(0%,0%,0%)" x1="284.962194602" x2="295.970382091" y1="595.081545293" y2="598.797029822" /><line stroke="rgb(0%,0%,0%)" x1="295.970382091" x2="297.309190775" y1="598.797029822" y2="598.38158926" /><line stroke="rgb(0%,0%,0%)" x1="297.309190775" x2="301.442480699" y1="598.38158926" y2="598.209723786" /><line stroke="rgb(0%,0%,0%)" x1="305.14585837" x2="308.677845345" y1="598.953224623" y2="599.578249245" /><line stroke="rgb(0%,0%,0%)" x1="301.442480699" x2="305.14585837" y1="598.209723786" y2="598.953224623" /><line stroke="rgb(0%,0%,0%)" x1="308.677845345" x2="316.820354823" y1="599.578249245" y2="599.871244552" /><line stroke="rgb(0%,0%,0%)" x1="233.864437233" x2="237.724199539" y1="576.935737119" y2="578.46678794" /><line stroke="rgb(0%,0%,0%)" x1="212.573185643" x2="214.1974682" y1="562.806735453" y2="563.886460288" /><line stroke="rgb(0%,0%,0%)" x1="212.573185643" x2="205.413026087" y1="562.806735453" y2="558.853584265" /><line stroke="rgb(0%,0%,0%)" x1="237.724199539" x2="253.437568249" y1="578.46678794" y2="584.290100949" /><line stroke="rgb(0%,0%,0%)" x1="255.236394956" x2="265.5713516" y1="585.169639544" y2="589.901757174" /><line stroke="rgb(0%,0%,0%)" x1="226.625564488" x2="233.864437233" y1="573.110725889" y2="576.935737119" /><line stroke="rgb(0%,0%,0%)" x1="214.1974682" x2="226.625564488" y1="563.886460288" y2="573.110725889" /><line stroke="rgb(0%,0%,0%)" x1="160.940717957" x2="168.47643826" y1="530.799698376" y2="537.672846939" /><line stroke="rgb(0%,0%,0%)" x1="168.47643826" x2="169.352862428" y1="537.672846939" y2="538.409638235" /><line stroke="rgb(0%,0%,0%)" x1="160.940717957" x2="159.155066398" y1="530.799698376" y2="528.029255288" /><line stroke="rgb(0%,0%,0%)" x1="157.221720282" x2="155.126408207" y1="526.636482795" y2="524.566153868" /><line stroke="rgb(0%,0%,0%)" x1="169.352862428" x2="171.877790887" y1="538.409638235" y2="540.514253277" /><line stroke="rgb(0%,0%,0%)" x1="195.197557044" x2="205.413026087" y1="553.895937222" y2="558.853584265" /><line stroke="rgb(0%,0%,0%)" x1="186.19143639" x2="195.197557044" y1="549.958680424" y2="553.895937222" /><line stroke="rgb(0%,0%,0%)" x1="149.124083584" x2="144.546032984" y1="519.943256056" y2="517.804569934" /><line stroke="rgb(0%,0%,0%)" x1="139.083508019" x2="142.444551005" y1="514.497248373" y2="516.70803256" /><line stroke="rgb(0%,0%,0%)" x1="137.935031319" x2="139.083508019" y1="513.409007405" y2="514.497248373" /><line stroke="rgb(0%,0%,0%)" x1="137.935031319" x2="132.461150244" y1="513.409007405" y2="512.641753751" /><line stroke="rgb(0%,0%,0%)" x1="157.221720282" x2="159.155066398" y1="526.636482795" y2="528.029255288" /><line stroke="rgb(0%,0%,0%)" x1="153.621353975" x2="155.126408207" y1="522.644826518" y2="524.566153868" /><line stroke="rgb(0%,0%,0%)" x1="149.61394303" x2="153.621353975" y1="521.387938392" y2="522.644826518" /><line stroke="rgb(0%,0%,0%)" x1="149.124083584" x2="149.234616743" y1="519.943256056" y2="521.160197203" /><line stroke="rgb(0%,0%,0%)" x1="149.234616743" x2="149.61394303" y1="521.160197203" y2="521.387938392" /><line stroke="rgb(0%,0%,0%)" x1="171.877790887" x2="178.611120735" y1="540.514253277" y2="545.801739901" /><line stroke="rgb(0%,0%,0%)" x1="178.611120735" x2="186.19143639" y1="545.801739901" y2="549.958680424" /><line stroke="rgb(0%,0%,0%)" x1="84.1956862439" x2="79.4633481949" y1="487.154163573" y2="484.154381002" /><line stroke="rgb(0%,0%,0%)" x1="84.1956862439" x2="88.8074137607" y1="487.154163573" y2="491.980293347" /><line stroke="rgb(0%,0%,0%)" x1="88.8074137607" x2="94.6493435568" y1="491.980293347" y2="495.248006948" /><line stroke="rgb(0%,0%,0%)" x1="114.023092528" x2="106.036036289" y1="505.434409581" y2="502.268913792" /><line stroke="rgb(0%,0%,0%)" x1="118.367165664" x2="121.884330231" y1="508.443619856" y2="509.777013037" /><line stroke="rgb(0%,0%,0%)" x1="117.370014964" x2="118.367165664" y1="507.909760188" y2="508.443619856" /><line stroke="rgb(0%,0%,0%)" x1="121.884330231" x2="132.461150244" y1="509.777013037" y2="512.641753751" /><line stroke="rgb(0%,0%,0%)" x1="142.444551005" x2="144.546032984" y1="516.70803256" y2="517.804569934" /><line stroke="rgb(0%,0%,0%)" x1="76.9611853117" x2="79.4633481949" y1="480.248370279" y2="484.154381002" /><line stroke="rgb(0%,0%,0%)" x1="74.7948492229" x2="76.9611853117" y1="475.241436713" y2="480.248370279" /><line stroke="rgb(0%,0%,0%)" x1="72.0785874006" x2="74.7948492229" y1="469.822845597" y2="475.241436713" /><line stroke="rgb(0%,0%,0%)" x1="71.9799277485" x2="72.0785874006" y1="465.347379723" y2="469.822845597" /><line stroke="rgb(0%,0%,0%)" x1="71.7839906061" x2="72.3221481147" y1="461.743538651" y2="459.273886479" /><line stroke="rgb(0%,0%,0%)" x1="94.6493435568" x2="104.625784438" y1="495.248006948" y2="501.186147877" /><line stroke="rgb(0%,0%,0%)" x1="105.083358866" x2="106.036036289" y1="501.47942664" y2="502.268913792" /><line stroke="rgb(0%,0%,0%)" x1="104.625784438" x2="105.083358866" y1="501.186147877" y2="501.47942664" /><line stroke="rgb(0%,0%,0%)" x1="114.023092528" x2="117.370014964" y1="505.434409581" y2="507.909760188" /><line stroke="rgb(0%,0%,0%)" x1="71.7839906061" x2="71.9799277485" y1="461.743538651" y2="465.347379723" /><line stroke="rgb(0%,0%,0%)" x1="424.321727704" x2="425.013381756" y1="588.794233441" y2="588.596621508" /><line stroke="rgb(0%,0%,0%)" x1="425.013381756" x2="426.001843878" y1="588.596621508" y2="588.282539249" /><line stroke="rgb(0%,0%,0%)" x1="416.816268459" x2="424.321727704" y1="592.646476754" y2="588.794233441" /><line stroke="rgb(0%,0%,0%)" x1="410.494607847" x2="409.915340495" y1="594.798368585" y2="595.015545723" /><line stroke="rgb(0%,0%,0%)" x1="410.494607847" x2="416.816268459" y1="594.798368585" y2="592.646476754" /></svg>