<?xml version="1.0" encoding="utf-8" ?>
<svg baseProfile="full" height="100%" version="1.1" viewBox="0.5 0.5 685.793960571 941.299331665" width="100%" xmlns="http://www.w3.org/2000/svg" xmlns:ev="http://www.w3.org/2001/xml-events" xmlns:xlink="http://www.w3.org/1999/xlink"><defs /><line stroke="rgb(0%,0%,0%)" x1="583.22652779" x2="580.374320129" y1="387.729296997" y2="382.246831896" /><line stroke="rgb(0%,0%,0%)" x1="593.526358633" x2="588.477915577" y1="409.073340737" y2="398.858253216" /><line stroke="rgb(0%,0%,0%)" x1="583.22652779" x2="586.022031188" y1="387.729296997" y2="393.726811183" /><line stroke="rgb(0%,0%,0%)" x1="603.108204967" x2="603.970240957" y1="438.045303652" y2="444.98275061" /><line stroke="rgb(0%,0%,0%)" x1="602.139029651" x2="601.694512612" y1="434.308275717" y2="432.038673553" /><line stroke="rgb(0%,0%,0%)" x1="587.333975202" x2="586.022031188" y1="396.157624581" y2="393.726811183" /><line stroke="rgb(0%,0%,0%)" x1="580.374320129" x2="575.007206022" y1="382.246831896" y2="377.717884066" /><line stroke="rgb(0%,0%,0%)" x1="601.694512612" x2="600.687191669" y1="432.038673553" y2="428.484470377" /><line stroke="rgb(0%,0%,0%)" x1="600.687191669" x2="597.670015665" y1="428.484470377" y2="421.299325239" /><line stroke="rgb(0%,0%,0%)" x1="597.670015665" x2="597.533764146" y1="421.299325239" y2="420.881976547" /><line stroke="rgb(0%,0%,0%)" x1="597.533764146" x2="596.928955494" y1="420.881976547" y2="418.16537874" /><line stroke="rgb(0%,0%,0%)" x1="596.928955494" x2="595.044136791" y1="418.16537874" y2="412.620063209" /><line stroke="rgb(0%,0%,0%)" x1="595.044136791" x2="593.834930737" y1="412.620063209" y2="409.814418742" /><line stroke="rgb(0%,0%,0%)" x1="593.526358633" x2="593.834930737" y1="409.073340737" y2="409.814418742" /><line stroke="rgb(0%,0%,0%)" x1="603.671855112" x2="604.148813845" y1="457.467761841" y2="454.41944711" /><line stroke="rgb(0%,0%,0%)" x1="604.148813845" x2="603.897110037" y1="454.41944711" y2="448.703873414" /><line stroke="rgb(0%,0%,0%)" x1="603.897110037" x2="603.970240957" y1="448.703873414" y2="444.98275061" /><line stroke="rgb(0%,0%,0%)" x1="603.108204967" x2="602.139029651" y1="438.045303652" y2="434.308275717" /><line stroke="rgb(0%,0%,0%)" x1="515.812830401" x2="515.990765847" y1="291.155910915" y2="291.726997691" /><line stroke="rgb(0%,0%,0%)" x1="550.849155978" x2="554.504023567" y1="333.937147783" y2="339.682135891" /><line stroke="rgb(0%,0%,0%)" x1="567.019745338" x2="567.981065697" y1="361.549206568" y2="363.82288478" /><line stroke="rgb(0%,0%,0%)" x1="566.725236308" x2="567.019745338" y1="360.005875583" y2="361.549206568" /><line stroke="rgb(0%,0%,0%)" x1="566.725236308" x2="563.037668603" y1="360.005875583" y2="350.807857006" /><line stroke="rgb(0%,0%,0%)" x1="561.223051593" x2="563.037668603" y1="347.81579014" y2="350.807857006" /><line stroke="rgb(0%,0%,0%)" x1="569.637519611" x2="567.981065697" y1="368.555040298" y2="363.82288478" /><line stroke="rgb(0%,0%,0%)" x1="497.224017351" x2="497.483263997" y1="276.346971744" y2="276.703206115" /><line stroke="rgb(0%,0%,0%)" x1="496.968221357" x2="497.224017351" y1="276.206613119" y2="276.346971744" /><line stroke="rgb(0%,0%,0%)" x1="491.701164233" x2="491.25886497" y1="272.900471237" y2="272.504614641" /><line stroke="rgb(0%,0%,0%)" x1="520.790667402" x2="519.698011094" y1="296.57349135" y2="295.924596245" /><line stroke="rgb(0%,0%,0%)" x1="515.812830401" x2="513.978007687" y1="291.155910915" y2="289.842841427" /><line stroke="rgb(0%,0%,0%)" x1="508.262708256" x2="508.758759858" y1="284.350908" y2="285.047056334" /><line stroke="rgb(0%,0%,0%)" x1="508.262708256" x2="507.831539765" y1="284.350908" y2="284.364641653" /><line stroke="rgb(0%,0%,0%)" x1="528.872433834" x2="526.426958453" y1="308.293134509" y2="305.879878611" /><line stroke="rgb(0%,0%,0%)" x1="526.426958453" x2="523.754134574" y1="305.879878611" y2="301.103639962" /><line stroke="rgb(0%,0%,0%)" x1="520.790667402" x2="523.754134574" y1="296.57349135" y2="301.103639962" /><line stroke="rgb(0%,0%,0%)" x1="543.87995245" x2="532.124538485" y1="327.300660802" y2="312.801442262" /><line stroke="rgb(0%,0%,0%)" x1="550.849155978" x2="543.87995245" y1="333.937147783" y2="327.300660802" /><line stroke="rgb(0%,0%,0%)" x1="561.223051593" x2="554.504023567" y1="347.81579014" y2="339.682135891" /><line stroke="rgb(0%,0%,0%)" x1="575.007206022" x2="574.173434501" y1="377.717884066" y2="376.563222777" /><line stroke="rgb(0%,0%,0%)" x1="570.750220392" x2="574.173434501" y1="371.353295513" y2="376.563222777" /><line stroke="rgb(0%,0%,0%)" x1="570.750220392" x2="569.637519611" y1="371.353295513" y2="368.555040298" /><line stroke="rgb(0%,0%,0%)" x1="588.477915577" x2="587.528730071" y1="398.858253216" y2="396.278315998" /><line stroke="rgb(0%,0%,0%)" x1="587.528730071" x2="587.333975202" y1="396.278315998" y2="396.157624581" /><line stroke="rgb(0%,0%,0%)" x1="475.02202132" x2="476.913120909" y1="263.568746887" y2="264.422993034" /><line stroke="rgb(0%,0%,0%)" x1="475.02202132" x2="473.437098901" y1="263.568746887" y2="262.129757523" /><line stroke="rgb(0%,0%,0%)" x1="473.437098901" x2="469.090336343" y1="262.129757523" y2="260.230704493" /><line stroke="rgb(0%,0%,0%)" x1="491.25886497" x2="489.327705593" y1="272.504614641" y2="271.153051469" /><line stroke="rgb(0%,0%,0%)" x1="497.483263997" x2="498.355140563" y1="276.703206115" y2="277.455331992" /><line stroke="rgb(0%,0%,0%)" x1="507.831539765" x2="498.355140563" y1="284.364641653" y2="277.455331992" /><line stroke="rgb(0%,0%,0%)" x1="496.968221357" x2="491.701164233" y1="276.206613119" y2="272.900471237" /><line stroke="rgb(0%,0%,0%)" x1="519.698011094" x2="515.990765847" y1="295.924596245" y2="291.726997691" /><line stroke="rgb(0%,0%,0%)" x1="513.978007687" x2="508.758759858" y1="289.842841427" y2="285.047056334" /><line stroke="rgb(0%,0%,0%)" x1="532.124538485" x2="528.872433834" y1="312.801442262" y2="308.293134509" /><line stroke="rgb(0%,0%,0%)" x1="469.090336343" x2="460.709179149" y1="260.230704493" y2="256.785711883" /><line stroke="rgb(0%,0%,0%)" x1="489.327705593" x2="481.368790501" y1="271.153051469" y2="266.857027699" /><line stroke="rgb(0%,0%,0%)" x1="481.368790501" x2="476.913120909" y1="266.857027699" y2="264.422993034" /><line stroke="rgb(0%,0%,0%)" x1="403.990277575" x2="405.72992949" y1="307.743457708" y2="308.410648651" /><line stroke="rgb(0%,0%,0%)" x1="442.243923025" x2="449.946941256" y1="333.032499578" y2="341.097938254" /><line stroke="rgb(0%,0%,0%)" x1="436.941122851" x2="442.243923025" y1="328.193959399" y2="333.032499578" /><line stroke="rgb(0%,0%,0%)" x1="443.611649216" x2="436.826522365" y1="253.6383898" y2="253.023847712" /><line stroke="rgb(0%,0%,0%)" x1="455.007566634" x2="455.091959982" y1="350.384320961" y2="350.462082813" /><line stroke="rgb(0%,0%,0%)" x1="454.774064315" x2="447.801859115" y1="350.263365196" y2="346.019304047" /><line stroke="rgb(0%,0%,0%)" x1="447.801859115" x2="446.111865355" y1="346.019304047" y2="344.762301064" /><line stroke="rgb(0%,0%,0%)" x1="454.959935487" x2="454.774064315" y1="350.352891967" y2="350.263365196" /><line stroke="rgb(0%,0%,0%)" x1="455.007566634" x2="454.959935487" y1="350.384320961" y2="350.352891967" /><line stroke="rgb(0%,0%,0%)" x1="450.494575538" x2="452.777111244" y1="341.748974908" y2="343.596831263" /><line stroke="rgb(0%,0%,0%)" x1="449.946941256" x2="450.494575538" y1="341.097938254" y2="341.748974908" /><line stroke="rgb(0%,0%,0%)" x1="460.709179149" x2="453.845348622" y1="256.785711883" y2="255.325816752" /><line stroke="rgb(0%,0%,0%)" x1="443.611649216" x2="453.845348622" y1="253.6383898" y2="255.325816752" /><line stroke="rgb(0%,0%,0%)" x1="464.753477141" x2="466.122093318" y1="358.661706042" y2="361.6049005" /><line stroke="rgb(0%,0%,0%)" x1="465.918201498" x2="466.122093318" y1="361.999087644" y2="361.6049005" /><line stroke="rgb(0%,0%,0%)" x1="465.637271495" x2="465.918201498" y1="361.85113271" y2="361.999087644" /><line stroke="rgb(0%,0%,0%)" x1="463.12673226" x2="464.753477141" y1="356.837894419" y2="358.661706042" /><line stroke="rgb(0%,0%,0%)" x1="465.637271495" x2="455.091959982" y1="361.85113271" y2="350.462082813" /><line stroke="rgb(0%,0%,0%)" x1="452.777111244" x2="458.924455317" y1="343.596831263" y2="351.461205373" /><line stroke="rgb(0%,0%,0%)" x1="463.12673226" x2="458.924455317" y1="356.837894419" y2="351.461205373" /><line stroke="rgb(0%,0%,0%)" x1="385.709893141" x2="395.537772772" y1="251.502798303" y2="250.894228699" /><line stroke="rgb(0%,0%,0%)" x1="407.257285095" x2="399.711819161" y1="320.493781067" y2="319.848386184" /><line stroke="rgb(0%,0%,0%)" x1="422.724947382" x2="421.328933296" y1="326.824937452" y2="326.112956083" /><line stroke="rgb(0%,0%,0%)" x1="421.328933296" x2="411.007447107" y1="326.112956083" y2="322.149384746" /><line stroke="rgb(0%,0%,0%)" x1="411.007447107" x2="409.158460673" y1="322.149384746" y2="321.31726543" /><line stroke="rgb(0%,0%,0%)" x1="418.667758703" x2="416.11475565" y1="313.907755128" y2="313.043746169" /><line stroke="rgb(0%,0%,0%)" x1="405.72992949" x2="416.11475565" y1="308.410648651" y2="313.043746169" /><line stroke="rgb(0%,0%,0%)" x1="418.667758703" x2="420.99385514" y1="313.907755128" y2="315.591489045" /><line stroke="rgb(0%,0%,0%)" x1="419.811834982" x2="422.599699566" y1="256.54912494" y2="257.036616439" /><line stroke="rgb(0%,0%,0%)" x1="419.811834982" x2="410.072868167" y1="256.54912494" y2="253.219400731" /><line stroke="rgb(0%,0%,0%)" x1="410.072868167" x2="403.130835793" y1="253.219400731" y2="251.228766001" /><line stroke="rgb(0%,0%,0%)" x1="431.342881861" x2="429.366711163" y1="333.13375473" y2="331.742743117" /><line stroke="rgb(0%,0%,0%)" x1="424.747031299" x2="429.366711163" y1="328.064625291" y2="331.742743117" /><line stroke="rgb(0%,0%,0%)" x1="422.724947382" x2="424.747031299" y1="326.824937452" y2="328.064625291" /><line stroke="rgb(0%,0%,0%)" x1="424.450598848" x2="427.919436731" y1="317.520976063" y2="320.260044063" /><line stroke="rgb(0%,0%,0%)" x1="420.99385514" x2="424.450598848" y1="315.591489045" y2="317.520976063" /><line stroke="rgb(0%,0%,0%)" x1="427.555991089" x2="422.599699566" y1="257.234699327" y2="257.036616439" /><line stroke="rgb(0%,0%,0%)" x1="431.238926055" x2="427.555991089" y1="254.58057039" y2="257.234699327" /><line stroke="rgb(0%,0%,0%)" x1="436.826522365" x2="431.238926055" y1="253.023847712" y2="254.58057039" /><line stroke="rgb(0%,0%,0%)" x1="446.111865355" x2="437.356705874" y1="344.762301064" y2="338.334113243" /><line stroke="rgb(0%,0%,0%)" x1="437.356705874" x2="436.209963355" y1="338.334113243" y2="337.520887992" /><line stroke="rgb(0%,0%,0%)" x1="436.209963355" x2="431.905368297" y1="337.520887992" y2="333.554934621" /><line stroke="rgb(0%,0%,0%)" x1="431.905368297" x2="431.342881861" y1="333.554934621" y2="333.13375473" /><line stroke="rgb(0%,0%,0%)" x1="433.022399783" x2="436.941122851" y1="325.17183636" y2="328.193959399" /><line stroke="rgb(0%,0%,0%)" x1="427.919436731" x2="433.022399783" y1="320.260044063" y2="325.17183636" /><line stroke="rgb(0%,0%,0%)" x1="364.295834773" x2="366.48260837" y1="314.236416748" y2="314.642930894" /><line stroke="rgb(0%,0%,0%)" x1="364.295834773" x2="360.907742817" y1="314.236416748" y2="314.170347891" /><line stroke="rgb(0%,0%,0%)" x1="379.347408993" x2="380.494802403" y1="255.803609896" y2="254.506145775" /><line stroke="rgb(0%,0%,0%)" x1="379.347408993" x2="376.9773354" y1="255.803609896" y2="260.540413614" /><line stroke="rgb(0%,0%,0%)" x1="380.612418491" x2="388.141012685" y1="315.896054105" y2="317.417958672" /><line stroke="rgb(0%,0%,0%)" x1="380.612418491" x2="366.48260837" y1="315.896054105" y2="314.642930894" /><line stroke="rgb(0%,0%,0%)" x1="383.409591322" x2="385.160009221" y1="300.18046797" y2="301.38095465" /><line stroke="rgb(0%,0%,0%)" x1="381.331445776" x2="383.409591322" y1="299.343313127" y2="300.18046797" /><line stroke="rgb(0%,0%,0%)" x1="381.331445776" x2="376.246786115" y1="299.343313127" y2="296.659314438" /><line stroke="rgb(0%,0%,0%)" x1="372.812808694" x2="374.184228891" y1="293.925538226" y2="295.165379156" /><line stroke="rgb(0%,0%,0%)" x1="376.96121278" x2="372.730401634" y1="283.933591983" y2="284.49394956" /><line stroke="rgb(0%,0%,0%)" x1="377.689036229" x2="378.514341774" y1="267.597180012" y2="268.799274791" /><line stroke="rgb(0%,0%,0%)" x1="376.965671472" x2="377.689036229" y1="263.029291752" y2="267.597180012" /><line stroke="rgb(0%,0%,0%)" x1="385.144319658" x2="378.514341774" y1="273.31384758" y2="268.799274791" /><line stroke="rgb(0%,0%,0%)" x1="376.9773354" x2="376.965671472" y1="260.540413614" y2="263.029291752" /><line stroke="rgb(0%,0%,0%)" x1="385.709893141" x2="382.536148702" y1="251.502798303" y2="253.496789752" /><line stroke="rgb(0%,0%,0%)" x1="380.494802403" x2="382.536148702" y1="254.506145775" y2="253.496789752" /><line stroke="rgb(0%,0%,0%)" x1="388.141012685" x2="395.473239681" y1="317.417958672" y2="318.685325756" /><line stroke="rgb(0%,0%,0%)" x1="396.996456804" x2="395.473239681" y1="319.018412464" y2="318.685325756" /><line stroke="rgb(0%,0%,0%)" x1="385.160009221" x2="386.838866643" y1="301.38095465" y2="302.109794635" /><line stroke="rgb(0%,0%,0%)" x1="386.838866643" x2="387.255011728" y1="302.109794635" y2="302.388623822" /><line stroke="rgb(0%,0%,0%)" x1="375.149207667" x2="376.246786115" y1="296.038662253" y2="296.659314438" /><line stroke="rgb(0%,0%,0%)" x1="388.451631453" x2="387.788989501" y1="279.89229451" y2="280.021754435" /><line stroke="rgb(0%,0%,0%)" x1="379.283820514" x2="387.788989501" y1="283.499382791" y2="280.021754435" /><line stroke="rgb(0%,0%,0%)" x1="389.954398687" x2="388.451631453" y1="278.77791626" y2="279.89229451" /><line stroke="rgb(0%,0%,0%)" x1="390.62830943" x2="389.954398687" y1="277.646046075" y2="278.77791626" /><line stroke="rgb(0%,0%,0%)" x1="387.467601445" x2="390.62830943" y1="275.176654536" y2="277.646046075" /><line stroke="rgb(0%,0%,0%)" x1="385.144319658" x2="387.467601445" y1="273.31384758" y2="275.176654536" /><line stroke="rgb(0%,0%,0%)" x1="409.158460673" x2="407.257285095" y1="321.31726543" y2="320.493781067" /><line stroke="rgb(0%,0%,0%)" x1="399.711819161" x2="398.041167821" y1="319.848386184" y2="319.157894819" /><line stroke="rgb(0%,0%,0%)" x1="398.041167821" x2="396.996456804" y1="319.157894819" y2="319.018412464" /><line stroke="rgb(0%,0%,0%)" x1="403.990277575" x2="391.373771834" y1="307.743457708" y2="303.724549246" /><line stroke="rgb(0%,0%,0%)" x1="387.255011728" x2="391.373771834" y1="302.388623822" y2="303.724549246" /><line stroke="rgb(0%,0%,0%)" x1="403.130835793" x2="400.454090808" y1="251.228766001" y2="250.838353327" /><line stroke="rgb(0%,0%,0%)" x1="400.454090808" x2="395.537772772" y1="250.838353327" y2="250.894228699" /><line stroke="rgb(0%,0%,0%)" x1="350.215210823" x2="352.883632921" y1="311.872790496" y2="312.496623793" /><line stroke="rgb(0%,0%,0%)" x1="350.215210823" x2="343.484744083" y1="311.872790496" y2="310.628309003" /><line stroke="rgb(0%,0%,0%)" x1="360.907742817" x2="352.883632921" y1="314.170347891" y2="312.496623793" /><line stroke="rgb(0%,0%,0%)" x1="372.812808694" x2="370.247768148" y1="293.925538226" y2="291.780718629" /><line stroke="rgb(0%,0%,0%)" x1="369.243870634" x2="369.515001963" y1="289.950342688" y2="291.044386429" /><line stroke="rgb(0%,0%,0%)" x1="369.243870634" x2="369.031218606" y1="289.950342688" y2="289.676670445" /><line stroke="rgb(0%,0%,0%)" x1="368.993676087" x2="369.031218606" y1="287.61780379" y2="289.676670445" /><line stroke="rgb(0%,0%,0%)" x1="368.993676087" x2="368.917299765" y1="287.61780379" y2="287.494242437" /><line stroke="rgb(0%,0%,0%)" x1="369.110579136" x2="368.917299765" y1="287.447985526" y2="287.494242437" /><line stroke="rgb(0%,0%,0%)" x1="369.110579136" x2="369.678808462" y1="287.447985526" y2="287.064005113" /><line stroke="rgb(0%,0%,0%)" x1="374.184228891" x2="375.149207667" y1="295.165379156" y2="296.038662253" /><line stroke="rgb(0%,0%,0%)" x1="369.587284883" x2="370.247768148" y1="291.205937746" y2="291.780718629" /><line stroke="rgb(0%,0%,0%)" x1="369.515001963" x2="369.587284883" y1="291.044386429" y2="291.205937746" /><line stroke="rgb(0%,0%,0%)" x1="372.730401634" x2="369.678808462" y1="284.49394956" y2="287.064005113" /><line stroke="rgb(0%,0%,0%)" x1="379.283820514" x2="376.96121278" y1="283.499382791" y2="283.933591983" /><line stroke="rgb(0%,0%,0%)" x1="325.536954434" x2="307.483554048" y1="308.06614044" y2="309.287742498" /><line stroke="rgb(0%,0%,0%)" x1="329.652788205" x2="328.176017594" y1="309.773686143" y2="308.711667903" /><line stroke="rgb(0%,0%,0%)" x1="329.652788205" x2="339.279363886" y1="309.773686143" y2="309.989636542" /><line stroke="rgb(0%,0%,0%)" x1="328.176017594" x2="327.862811491" y1="308.711667903" y2="308.477282822" /><line stroke="rgb(0%,0%,0%)" x1="327.862811491" x2="325.536954434" y1="308.477282822" y2="308.06614044" /><line stroke="rgb(0%,0%,0%)" x1="343.484744083" x2="339.279363886" y1="310.628309003" y2="309.989636542" /><line stroke="rgb(0%,0%,0%)" x1="268.78980693" x2="266.381599903" y1="318.077064816" y2="319.059475724" /><line stroke="rgb(0%,0%,0%)" x1="290.086738249" x2="284.086317194" y1="311.775167401" y2="313.448994229" /><line stroke="rgb(0%,0%,0%)" x1="290.086738249" x2="299.384597744" y1="311.775167401" y2="309.845500993" /><line stroke="rgb(0%,0%,0%)" x1="300.309530689" x2="299.384597744" y1="309.669504728" y2="309.845500993" /><line stroke="rgb(0%,0%,0%)" x1="301.330719823" x2="307.483554048" y1="309.50364164" y2="309.287742498" /><line stroke="rgb(0%,0%,0%)" x1="301.330719823" x2="300.309530689" y1="309.50364164" y2="309.669504728" /><line stroke="rgb(0%,0%,0%)" x1="232.833111689" x2="243.185519065" y1="333.538549873" y2="329.082277034" /><line stroke="rgb(0%,0%,0%)" x1="252.698739246" x2="252.670393257" y1="325.392727838" y2="325.393544254" /><line stroke="rgb(0%,0%,0%)" x1="259.596731413" x2="252.698739246" y1="322.126300911" y2="325.392727838" /><line stroke="rgb(0%,0%,0%)" x1="263.183437734" x2="259.596731413" y1="320.396853558" y2="322.126300911" /><line stroke="rgb(0%,0%,0%)" x1="266.381599903" x2="263.183437734" y1="319.059475724" y2="320.396853558" /><line stroke="rgb(0%,0%,0%)" x1="268.78980693" x2="284.086317194" y1="318.077064816" y2="313.448994229" /><line stroke="rgb(0%,0%,0%)" x1="201.653818845" x2="205.65679695" y1="352.925634638" y2="350.738943331" /><line stroke="rgb(0%,0%,0%)" x1="213.235054759" x2="205.65679695" y1="346.474113381" y2="350.738943331" /><line stroke="rgb(0%,0%,0%)" x1="216.938896925" x2="213.235054759" y1="344.240245128" y2="346.474113381" /><line stroke="rgb(0%,0%,0%)" x1="232.833111689" x2="216.938896925" y1="333.538549873" y2="344.240245128" /><line stroke="rgb(0%,0%,0%)" x1="246.430044349" x2="243.185519065" y1="327.294732902" y2="329.082277034" /><line stroke="rgb(0%,0%,0%)" x1="252.670393257" x2="246.430044349" y1="325.393544254" y2="327.294732902" /><line stroke="rgb(0%,0%,0%)" x1="187.196082462" x2="195.409500079" y1="357.322003475" y2="355.42503343" /><line stroke="rgb(0%,0%,0%)" x1="195.409500079" x2="196.733995184" y1="355.42503343" y2="353.770223021" /><line stroke="rgb(0%,0%,0%)" x1="201.653818845" x2="199.667452227" y1="352.925634638" y2="353.038603353" /><line stroke="rgb(0%,0%,0%)" x1="199.667452227" x2="197.598387745" y1="353.038603353" y2="353.360827051" /><line stroke="rgb(0%,0%,0%)" x1="136.637356465" x2="139.149267893" y1="395.487219622" y2="393.359025434" /><line stroke="rgb(0%,0%,0%)" x1="157.084498464" x2="154.896957356" y1="375.654798053" y2="377.781742433" /><line stroke="rgb(0%,0%,0%)" x1="157.084498464" x2="162.956689338" y1="375.654798053" y2="371.082256736" /><line stroke="rgb(0%,0%,0%)" x1="162.956689338" x2="169.358043312" y1="371.082256736" y2="365.853306489" /><line stroke="rgb(0%,0%,0%)" x1="185.208018709" x2="174.41639695" y1="357.91076256" y2="362.462424689" /><line stroke="rgb(0%,0%,0%)" x1="187.196082462" x2="185.208018709" y1="357.322003475" y2="357.91076256" /><line stroke="rgb(0%,0%,0%)" x1="197.598387745" x2="196.733995184" y1="353.360827051" y2="353.770223021" /><line stroke="rgb(0%,0%,0%)" x1="121.288289086" x2="115.682047183" y1="403.651424944" y2="406.566225242" /><line stroke="rgb(0%,0%,0%)" x1="127.245881829" x2="130.803099198" y1="401.369332404" y2="399.912366139" /><line stroke="rgb(0%,0%,0%)" x1="132.049591341" x2="130.803099198" y1="398.840519801" y2="399.912366139" /><line stroke="rgb(0%,0%,0%)" x1="136.637356465" x2="132.049591341" y1="395.487219622" y2="398.840519801" /><line stroke="rgb(0%,0%,0%)" x1="139.786303361" x2="142.018350214" y1="392.622210726" y2="391.812513877" /><line stroke="rgb(0%,0%,0%)" x1="139.786303361" x2="139.149267893" y1="392.622210726" y2="393.359025434" /><line stroke="rgb(0%,0%,0%)" x1="142.073726874" x2="142.018350214" y1="391.42434872" y2="391.812513877" /><line stroke="rgb(0%,0%,0%)" x1="146.044586203" x2="142.348774094" y1="385.019695795" y2="391.172970409" /><line stroke="rgb(0%,0%,0%)" x1="142.348774094" x2="142.073726874" y1="391.172970409" y2="391.42434872" /><line stroke="rgb(0%,0%,0%)" x1="148.540120881" x2="146.044586203" y1="383.704543469" y2="385.019695795" /><line stroke="rgb(0%,0%,0%)" x1="154.896957356" x2="148.540120881" y1="377.781742433" y2="383.704543469" /><line stroke="rgb(0%,0%,0%)" x1="172.325395395" x2="169.358043312" y1="363.787662437" y2="365.853306489" /><line stroke="rgb(0%,0%,0%)" x1="173.299230455" x2="172.325395395" y1="363.042871094" y2="363.787662437" /><line stroke="rgb(0%,0%,0%)" x1="174.41639695" x2="173.299230455" y1="362.462424689" y2="363.042871094" /><line stroke="rgb(0%,0%,0%)" x1="107.040610679" x2="98.9185927415" y1="415.086660666" y2="420.490363714" /><line stroke="rgb(0%,0%,0%)" x1="111.420370847" x2="107.040610679" y1="410.559258426" y2="415.086660666" /><line stroke="rgb(0%,0%,0%)" x1="115.682047183" x2="111.420370847" y1="406.566225242" y2="410.559258426" /><line stroke="rgb(0%,0%,0%)" x1="127.245881829" x2="121.288289086" y1="401.369332404" y2="403.651424944" /><line stroke="rgb(0%,0%,0%)" x1="70.6303202566" x2="70.1551194696" y1="459.869843609" y2="451.381641579" /><line stroke="rgb(0%,0%,0%)" x1="70.1638640451" x2="70.1551194696" y1="451.063729556" y2="451.381641579" /><line stroke="rgb(0%,0%,0%)" x1="72.6664521999" x2="70.1638640451" y1="443.37373112" y2="451.063729556" /><line stroke="rgb(0%,0%,0%)" x1="81.978746871" x2="76.3248824085" y1="432.534700869" y2="438.101111939" /><line stroke="rgb(0%,0%,0%)" x1="76.3248824085" x2="72.6664521999" y1="438.101111939" y2="443.37373112" /><line stroke="rgb(0%,0%,0%)" x1="81.978746871" x2="94.1413263073" y1="432.534700869" y2="424.274014672" /><line stroke="rgb(0%,0%,0%)" x1="95.2600492815" x2="94.1413263073" y1="423.115518487" y2="424.274014672" /><line stroke="rgb(0%,0%,0%)" x1="96.3743603067" x2="95.2600492815" y1="422.085045322" y2="423.115518487" /><line stroke="rgb(0%,0%,0%)" x1="98.9185927415" x2="96.3743603067" y1="420.490363714" y2="422.085045322" /><line stroke="rgb(0%,0%,0%)" x1="598.855703587" x2="598.334878038" y1="486.310119643" y2="488.131971109" /><line stroke="rgb(0%,0%,0%)" x1="598.855703587" x2="599.037238505" y1="486.310119643" y2="485.418403813" /><line stroke="rgb(0%,0%,0%)" x1="587.404000237" x2="587.140442382" y1="509.137322495" y2="509.570554397" /><line stroke="rgb(0%,0%,0%)" x1="587.404000237" x2="587.99086554" y1="509.137322495" y2="508.2862147" /><line stroke="rgb(0%,0%,0%)" x1="599.037238505" x2="599.707037021" y1="485.418403813" y2="483.370090248" /><line stroke="rgb(0%,0%,0%)" x1="602.529077065" x2="603.13135017" y1="473.781143154" y2="461.536842325" /><line stroke="rgb(0%,0%,0%)" x1="603.671855112" x2="603.13135017" y1="457.467761841" y2="461.536842325" /><line stroke="rgb(0%,0%,0%)" x1="585.262846105" x2="583.964293937" y1="515.187182288" y2="516.407984402" /><line stroke="rgb(0%,0%,0%)" x1="585.262846105" x2="587.140442382" y1="515.187182288" y2="509.570554397" /><line stroke="rgb(0%,0%,0%)" x1="587.99086554" x2="592.197375808" y1="508.2862147" y2="502.233609971" /><line stroke="rgb(0%,0%,0%)" x1="593.170966019" x2="592.197375808" y1="500.192050209" y2="502.233609971" /><line stroke="rgb(0%,0%,0%)" x1="593.170966019" x2="595.254105595" y1="500.192050209" y2="495.23116648" /><line stroke="rgb(0%,0%,0%)" x1="595.254105595" x2="598.334878038" y1="495.23116648" y2="488.131971109" /><line stroke="rgb(0%,0%,0%)" x1="602.529077065" x2="601.451521684" y1="473.781143154" y2="476.803393025" /><line stroke="rgb(0%,0%,0%)" x1="542.083362005" x2="539.487798027" y1="589.794341199" y2="593.132800102" /><line stroke="rgb(0%,0%,0%)" x1="542.083362005" x2="543.898608794" y1="589.794341199" y2="587.187648419" /><line stroke="rgb(0%,0%,0%)" x1="551.599977264" x2="552.666319624" y1="579.631149466" y2="578.071457111" /><line stroke="rgb(0%,0%,0%)" x1="552.666319624" x2="557.731817435" y1="578.071457111" y2="572.030712155" /><line stroke="rgb(0%,0%,0%)" x1="571.423977969" x2="568.855177071" y1="546.632289188" y2="554.378788288" /><line stroke="rgb(0%,0%,0%)" x1="571.423977969" x2="574.154602695" y1="546.632289188" y2="539.07964632" /><line stroke="rgb(0%,0%,0%)" x1="577.367959261" x2="577.520918734" y1="530.823160844" y2="529.221305489" /><line stroke="rgb(0%,0%,0%)" x1="579.37363042" x2="577.520918734" y1="527.458965964" y2="529.221305489" /><line stroke="rgb(0%,0%,0%)" x1="579.37363042" x2="580.262505084" y1="527.458965964" y2="522.703181916" /><line stroke="rgb(0%,0%,0%)" x1="583.964293937" x2="580.57076599" y1="516.407984402" y2="521.767200527" /><line stroke="rgb(0%,0%,0%)" x1="599.707037021" x2="601.451521684" y1="483.370090248" y2="476.803393025" /><line stroke="rgb(0%,0%,0%)" x1="489.905033468" x2="489.919008978" y1="643.839323311" y2="643.814453326" /><line stroke="rgb(0%,0%,0%)" x1="515.072259454" x2="514.523268142" y1="624.588477662" y2="625.234890691" /><line stroke="rgb(0%,0%,0%)" x1="515.269935164" x2="515.072259454" y1="624.411708833" y2="624.588477662" /><line stroke="rgb(0%,0%,0%)" x1="523.938859458" x2="528.170803578" y1="614.396534054" y2="608.369229471" /><line stroke="rgb(0%,0%,0%)" x1="539.487798027" x2="530.031767902" y1="593.132800102" y2="605.868633195" /><line stroke="rgb(0%,0%,0%)" x1="543.898608794" x2="551.599977264" y1="587.187648419" y2="579.631149466" /><line stroke="rgb(0%,0%,0%)" x1="557.731817435" x2="558.765896359" y1="572.030712155" y2="570.305020824" /><line stroke="rgb(0%,0%,0%)" x1="558.765896359" x2="559.541853712" y1="570.305020824" y2="569.587276454" /><line stroke="rgb(0%,0%,0%)" x1="566.338795576" x2="559.541853712" y1="559.121660964" y2="569.587276454" /><line stroke="rgb(0%,0%,0%)" x1="566.338795576" x2="568.855177071" y1="559.121660964" y2="554.378788288" /><line stroke="rgb(0%,0%,0%)" x1="574.154602695" x2="575.150703863" y1="539.07964632" y2="535.849834134" /><line stroke="rgb(0%,0%,0%)" x1="576.228963055" x2="575.150703863" y1="533.511676782" y2="535.849834134" /><line stroke="rgb(0%,0%,0%)" x1="576.228963055" x2="577.367959261" y1="533.511676782" y2="530.823160844" /><line stroke="rgb(0%,0%,0%)" x1="580.262505084" x2="580.3801376" y1="522.703181916" y2="522.423134208" /><line stroke="rgb(0%,0%,0%)" x1="580.3801376" x2="580.57076599" y1="522.423134208" y2="521.767200527" /><line stroke="rgb(0%,0%,0%)" x1="489.905033468" x2="486.47219852" y1="643.839323311" y2="645.920433054" /><line stroke="rgb(0%,0%,0%)" x1="489.919008978" x2="490.277923756" y1="643.814453326" y2="643.614653781" /><line stroke="rgb(0%,0%,0%)" x1="514.523268142" x2="509.28225489" y1="625.234890691" y2="630.207259713" /><line stroke="rgb(0%,0%,0%)" x1="515.269935164" x2="523.938859458" y1="624.411708833" y2="614.396534054" /><line stroke="rgb(0%,0%,0%)" x1="528.170803578" x2="528.972770199" y1="608.369229471" y2="607.169674533" /><line stroke="rgb(0%,0%,0%)" x1="528.972770199" x2="530.031767902" y1="607.169674533" y2="605.868633195" /><line stroke="rgb(0%,0%,0%)" x1="471.709955129" x2="460.961390571" y1="653.321647892" y2="656.815335299" /><line stroke="rgb(0%,0%,0%)" x1="477.193245665" x2="473.011372085" y1="650.337169645" y2="652.960044271" /><line stroke="rgb(0%,0%,0%)" x1="477.193245665" x2="484.026879652" y1="650.337169645" y2="647.330570192" /><line stroke="rgb(0%,0%,0%)" x1="484.026879652" x2="484.070560419" y1="647.330570192" y2="647.292593051" /><line stroke="rgb(0%,0%,0%)" x1="484.231628054" x2="486.47219852" y1="647.236619525" y2="645.920433054" /><line stroke="rgb(0%,0%,0%)" x1="490.277923756" x2="494.245513522" y1="643.614653781" y2="640.673663582" /><line stroke="rgb(0%,0%,0%)" x1="495.297345907" x2="505.999467173" y1="640.29059152" y2="633.070953799" /><line stroke="rgb(0%,0%,0%)" x1="505.999467173" x2="506.255929437" y1="633.070953799" y2="632.898608329" /><line stroke="rgb(0%,0%,0%)" x1="506.255929437" x2="506.634647761" y1="632.898608329" y2="632.660886705" /><line stroke="rgb(0%,0%,0%)" x1="506.634647761" x2="509.28225489" y1="632.660886705" y2="630.207259713" /><line stroke="rgb(0%,0%,0%)" x1="413.193042799" x2="414.473082565" y1="605.668337808" y2="605.231447195" /><line stroke="rgb(0%,0%,0%)" x1="413.193042799" x2="411.031919804" y1="605.668337808" y2="606.482635428" /><line stroke="rgb(0%,0%,0%)" x1="414.473082565" x2="416.350680383" y1="605.231447195" y2="604.114826956" /><line stroke="rgb(0%,0%,0%)" x1="423.538792433" x2="425.70717572" y1="599.280407599" y2="597.25502758" /><line stroke="rgb(0%,0%,0%)" x1="451.45413744" x2="460.792931823" y1="659.021445593" y2="656.823834913" /><line stroke="rgb(0%,0%,0%)" x1="443.432103552" x2="449.794529421" y1="572.058144814" y2="566.95655645" /><line stroke="rgb(0%,0%,0%)" x1="456.982821887" x2="451.010185917" y1="560.724347255" y2="565.755389626" /><line stroke="rgb(0%,0%,0%)" x1="449.794529421" x2="450.340185346" y1="566.95655645" y2="566.318896765" /><line stroke="rgb(0%,0%,0%)" x1="471.709955129" x2="473.011372085" y1="653.321647892" y2="652.960044271" /><line stroke="rgb(0%,0%,0%)" x1="449.659394321" x2="444.581164072" y1="573.843921573" y2="580.029555875" /><line stroke="rgb(0%,0%,0%)" x1="461.838602611" x2="449.659394321" y1="559.400760188" y2="573.843921573" /><line stroke="rgb(0%,0%,0%)" x1="461.838602611" x2="464.156824935" y1="559.400760188" y2="555.772756263" /><line stroke="rgb(0%,0%,0%)" x1="450.340185346" x2="451.010185917" y1="566.318896765" y2="565.755389626" /><line stroke="rgb(0%,0%,0%)" x1="463.971320361" x2="464.897584598" y1="553.561600794" y2="552.538205682" /><line stroke="rgb(0%,0%,0%)" x1="456.982821887" x2="463.971320361" y1="560.724347255" y2="553.561600794" /><line stroke="rgb(0%,0%,0%)" x1="464.897584598" x2="465.911778063" y1="552.538205682" y2="552.19918051" /><line stroke="rgb(0%,0%,0%)" x1="465.378358457" x2="464.156824935" y1="553.771712227" y2="555.772756263" /><line stroke="rgb(0%,0%,0%)" x1="484.070560419" x2="484.231628054" y1="647.292593051" y2="647.236619525" /><line stroke="rgb(0%,0%,0%)" x1="465.911778063" x2="467.110472303" y1="552.19918051" y2="551.113938668" /><line stroke="rgb(0%,0%,0%)" x1="467.110472303" x2="465.378358457" y1="551.113938668" y2="553.771712227" /><line stroke="rgb(0%,0%,0%)" x1="494.245513522" x2="495.297345907" y1="640.673663582" y2="640.29059152" /><line stroke="rgb(0%,0%,0%)" x1="396.189089323" x2="401.899839795" y1="598.44648045" y2="597.269067159" /><line stroke="rgb(0%,0%,0%)" x1="411.031919804" x2="405.857869015" y1="606.482635428" y2="609.493900384" /><line stroke="rgb(0%,0%,0%)" x1="405.857869015" x2="396.425928958" y1="609.493900384" y2="613.267372179" /><line stroke="rgb(0%,0%,0%)" x1="428.005655851" x2="413.565201357" y1="658.743035445" y2="662.068914268" /><line stroke="rgb(0%,0%,0%)" x1="412.564302039" x2="413.565201357" y1="662.166447682" y2="662.068914268" /><line stroke="rgb(0%,0%,0%)" x1="428.005655851" x2="430.971039097" y1="658.743035445" y2="657.739994546" /><line stroke="rgb(0%,0%,0%)" x1="423.538792433" x2="416.350680383" y1="599.280407599" y2="604.114826956" /><line stroke="rgb(0%,0%,0%)" x1="426.834974034" x2="425.70717572" y1="596.616851233" y2="597.25502758" /><line stroke="rgb(0%,0%,0%)" x1="430.971039097" x2="433.902942591" y1="657.739994546" y2="657.409561808" /><line stroke="rgb(0%,0%,0%)" x1="433.902942591" x2="435.790941399" y1="657.409561808" y2="656.91729439" /><line stroke="rgb(0%,0%,0%)" x1="435.790941399" x2="444.78147517" y1="656.91729439" y2="658.826630379" /><line stroke="rgb(0%,0%,0%)" x1="430.239427078" x2="426.834974034" y1="593.821363131" y2="596.616851233" /><line stroke="rgb(0%,0%,0%)" x1="430.239427078" x2="443.292194688" y1="593.821363131" y2="581.41100875" /><line stroke="rgb(0%,0%,0%)" x1="443.616445977" x2="443.292194688" y1="581.091713748" y2="581.41100875" /><line stroke="rgb(0%,0%,0%)" x1="433.780082286" x2="430.418633787" y1="580.402082209" y2="583.738140938" /><line stroke="rgb(0%,0%,0%)" x1="435.920959784" x2="433.780082286" y1="579.017130584" y2="580.402082209" /><line stroke="rgb(0%,0%,0%)" x1="435.920959784" x2="439.040220649" y1="579.017130584" y2="575.965934194" /><line stroke="rgb(0%,0%,0%)" x1="429.870742178" x2="430.418633787" y1="584.185386848" y2="583.738140938" /><line stroke="rgb(0%,0%,0%)" x1="444.78147517" x2="451.45413744" y1="658.826630379" y2="659.021445593" /><line stroke="rgb(0%,0%,0%)" x1="460.792931823" x2="460.961390571" y1="656.823834913" y2="656.815335299" /><line stroke="rgb(0%,0%,0%)" x1="444.581164072" x2="443.616445977" y1="580.029555875" y2="581.091713748" /><line stroke="rgb(0%,0%,0%)" x1="439.040220649" x2="443.432103552" y1="575.965934194" y2="572.058144814" /><line stroke="rgb(0%,0%,0%)" x1="349.026114969" x2="364.074514456" y1="604.236593575" y2="602.053217702" /><line stroke="rgb(0%,0%,0%)" x1="377.141718403" x2="377.205564194" y1="625.998310492" y2="626.417344416" /><line stroke="rgb(0%,0%,0%)" x1="377.141718403" x2="377.586844958" y1="625.998310492" y2="625.499357144" /><line stroke="rgb(0%,0%,0%)" x1="382.658727711" x2="382.811151789" y1="620.584964688" y2="620.510646971" /><line stroke="rgb(0%,0%,0%)" x1="393.327989536" x2="391.770557053" y1="656.688067756" y2="653.476134171" /><line stroke="rgb(0%,0%,0%)" x1="378.61096745" x2="381.881069949" y1="630.332768151" y2="631.832601086" /><line stroke="rgb(0%,0%,0%)" x1="378.066191436" x2="378.61096745" y1="628.714671727" y2="630.332768151" /><line stroke="rgb(0%,0%,0%)" x1="377.486442848" x2="378.066191436" y1="627.654320593" y2="628.714671727" /><line stroke="rgb(0%,0%,0%)" x1="377.205564194" x2="377.486442848" y1="626.417344416" y2="627.654320593" /><line stroke="rgb(0%,0%,0%)" x1="377.586844958" x2="378.772763156" y1="625.499357144" y2="624.825316431" /><line stroke="rgb(0%,0%,0%)" x1="379.335464849" x2="378.772763156" y1="624.420874474" y2="624.825316431" /><line stroke="rgb(0%,0%,0%)" x1="379.483707122" x2="379.493961494" y1="623.447194412" y2="624.227267307" /><line stroke="rgb(0%,0%,0%)" x1="382.445611587" x2="382.524396477" y1="620.776082419" y2="620.684001972" /><line stroke="rgb(0%,0%,0%)" x1="382.445611587" x2="382.026542598" y1="620.776082419" y2="621.152472916" /><line stroke="rgb(0%,0%,0%)" x1="382.026542598" x2="379.483707122" y1="621.152472916" y2="623.447194412" /><line stroke="rgb(0%,0%,0%)" x1="382.642145765" x2="382.524396477" y1="620.631217021" y2="620.684001972" /><line stroke="rgb(0%,0%,0%)" x1="382.642145765" x2="382.658727711" y1="620.631217021" y2="620.584964688" /><line stroke="rgb(0%,0%,0%)" x1="385.41181319" x2="382.811151789" y1="618.750412621" y2="620.510646971" /><line stroke="rgb(0%,0%,0%)" x1="385.41181319" x2="387.767867323" y1="618.750412621" y2="617.58128728" /><line stroke="rgb(0%,0%,0%)" x1="374.906825059" x2="364.377731093" y1="601.32652941" y2="602.008385829" /><line stroke="rgb(0%,0%,0%)" x1="374.906825059" x2="383.354150155" y1="601.32652941" y2="600.892141904" /><line stroke="rgb(0%,0%,0%)" x1="398.02342404" x2="399.584903385" y1="660.901645182" y2="661.434346042" /><line stroke="rgb(0%,0%,0%)" x1="398.02342404" x2="397.407946825" y1="660.901645182" y2="660.586756425" /><line stroke="rgb(0%,0%,0%)" x1="393.327989536" x2="397.407946825" y1="656.688067756" y2="660.586756425" /><line stroke="rgb(0%,0%,0%)" x1="391.770557053" x2="393.977012672" y1="653.476134171" y2="647.594617943" /><line stroke="rgb(0%,0%,0%)" x1="394.093646688" x2="393.977012672" y1="646.425157026" y2="647.594617943" /><line stroke="rgb(0%,0%,0%)" x1="401.522225529" x2="394.093646688" y1="640.197479394" y2="646.425157026" /><line stroke="rgb(0%,0%,0%)" x1="400.472531359" x2="404.223831795" y1="635.283181174" y2="636.803480014" /><line stroke="rgb(0%,0%,0%)" x1="400.472531359" x2="388.228276628" y1="635.283181174" y2="632.977210266" /><line stroke="rgb(0%,0%,0%)" x1="382.68880455" x2="388.228276628" y1="631.905626663" y2="632.977210266" /><line stroke="rgb(0%,0%,0%)" x1="381.881069949" x2="382.68880455" y1="631.832601086" y2="631.905626663" /><line stroke="rgb(0%,0%,0%)" x1="379.443847166" x2="379.335464849" y1="624.352705645" y2="624.420874474" /><line stroke="rgb(0%,0%,0%)" x1="379.493961494" x2="379.443847166" y1="624.227267307" y2="624.352705645" /><line stroke="rgb(0%,0%,0%)" x1="391.61861638" x2="387.767867323" y1="615.608651638" y2="617.58128728" /><line stroke="rgb(0%,0%,0%)" x1="393.999390089" x2="391.61861638" y1="614.432414835" y2="615.608651638" /><line stroke="rgb(0%,0%,0%)" x1="396.425928958" x2="393.999390089" y1="613.267372179" y2="614.432414835" /><line stroke="rgb(0%,0%,0%)" x1="384.218756441" x2="385.832675526" y1="600.843362666" y2="600.525992691" /><line stroke="rgb(0%,0%,0%)" x1="396.189089323" x2="385.832675526" y1="598.44648045" y2="600.525992691" /><line stroke="rgb(0%,0%,0%)" x1="399.584903385" x2="408.353770211" y1="661.434346042" y2="661.838932151" /><line stroke="rgb(0%,0%,0%)" x1="408.353770211" x2="412.564302039" y1="661.838932151" y2="662.166447682" /><line stroke="rgb(0%,0%,0%)" x1="402.670166709" x2="401.522225529" y1="638.88802582" y2="640.197479394" /><line stroke="rgb(0%,0%,0%)" x1="404.223831795" x2="402.670166709" y1="636.803480014" y2="638.88802582" /><line stroke="rgb(0%,0%,0%)" x1="336.353253704" x2="343.283268229" y1="603.948655489" y2="604.550895506" /><line stroke="rgb(0%,0%,0%)" x1="349.026114969" x2="343.283268229" y1="604.236593575" y2="604.550895506" /><line stroke="rgb(0%,0%,0%)" x1="331.928902519" x2="326.509145043" y1="603.970095154" y2="603.978438233" /><line stroke="rgb(0%,0%,0%)" x1="331.928902519" x2="336.353253704" y1="603.970095154" y2="603.948655489" /><line stroke="rgb(0%,0%,0%)" x1="364.074514456" x2="364.15075725" y1="602.053217702" y2="602.032753335" /><line stroke="rgb(0%,0%,0%)" x1="364.15075725" x2="364.211723676" y1="602.032753335" y2="602.035218289" /><line stroke="rgb(0%,0%,0%)" x1="364.211723676" x2="364.377731093" y1="602.035218289" y2="602.008385829" /><line stroke="rgb(0%,0%,0%)" x1="383.354150155" x2="384.218756441" y1="600.892141904" y2="600.843362666" /><line stroke="rgb(0%,0%,0%)" x1="303.058778306" x2="302.159379018" y1="602.304864497" y2="602.583953622" /><line stroke="rgb(0%,0%,0%)" x1="303.058778306" x2="304.236557969" y1="602.304864497" y2="602.255891484" /><line stroke="rgb(0%,0%,0%)" x1="305.291834271" x2="311.840467546" y1="602.467751813" y2="603.626605758" /><line stroke="rgb(0%,0%,0%)" x1="304.236557969" x2="305.291834271" y1="602.255891484" y2="602.467751813" /><line stroke="rgb(0%,0%,0%)" x1="324.511689496" x2="325.639400322" y1="604.082559611" y2="604.075343821" /><line stroke="rgb(0%,0%,0%)" x1="311.840467546" x2="324.511689496" y1="603.626605758" y2="604.082559611" /><line stroke="rgb(0%,0%,0%)" x1="325.639400322" x2="326.509145043" y1="604.075343821" y2="603.978438233" /><line stroke="rgb(0%,0%,0%)" x1="272.986445354" x2="286.637565884" y1="595.670287691" y2="598.751697828" /><line stroke="rgb(0%,0%,0%)" x1="272.986445354" x2="258.044209708" y1="595.670287691" y2="591.017668246" /><line stroke="rgb(0%,0%,0%)" x1="286.637565884" x2="296.528840704" y1="598.751697828" y2="601.875109863" /><line stroke="rgb(0%,0%,0%)" x1="296.528840704" x2="302.159379018" y1="601.875109863" y2="602.583953622" /><line stroke="rgb(0%,0%,0%)" x1="228.14542534" x2="232.825669486" y1="581.599904365" y2="584.121717647" /><line stroke="rgb(0%,0%,0%)" x1="239.618558446" x2="232.825669486" y1="587.031644138" y2="584.121717647" /><line stroke="rgb(0%,0%,0%)" x1="252.866962897" x2="255.458426068" y1="590.028103792" y2="591.032292695" /><line stroke="rgb(0%,0%,0%)" x1="247.57284018" x2="252.866962897" y1="588.876995766" y2="590.028103792" /><line stroke="rgb(0%,0%,0%)" x1="239.618558446" x2="247.57284018" y1="587.031644138" y2="588.876995766" /><line stroke="rgb(0%,0%,0%)" x1="255.458426068" x2="258.044209708" y1="591.032292695" y2="591.017668246" /><line stroke="rgb(0%,0%,0%)" x1="190.765028609" x2="197.391030156" y1="561.306677849" y2="562.95123415" /><line stroke="rgb(0%,0%,0%)" x1="198.1917566" x2="197.391030156" y1="563.281187551" y2="562.95123415" /><line stroke="rgb(0%,0%,0%)" x1="213.388136652" x2="216.191343045" y1="574.325891767" y2="576.097746087" /><line stroke="rgb(0%,0%,0%)" x1="210.222039752" x2="213.388136652" y1="573.973795829" y2="574.325891767" /><line stroke="rgb(0%,0%,0%)" x1="199.552010045" x2="210.222039752" y1="564.256083175" y2="573.973795829" /><line stroke="rgb(0%,0%,0%)" x1="198.1917566" x2="199.552010045" y1="563.281187551" y2="564.256083175" /><line stroke="rgb(0%,0%,0%)" x1="225.495481679" x2="228.14542534" y1="580.987066909" y2="581.599904365" /><line stroke="rgb(0%,0%,0%)" x1="216.191343045" x2="225.495481679" y1="576.097746087" y2="580.987066909" /><line stroke="rgb(0%,0%,0%)" x1="141.479040425" x2="141.532258159" y1="525.69540559" y2="525.763342469" /><line stroke="rgb(0%,0%,0%)" x1="141.479040425" x2="141.446349953" y1="525.69540559" y2="525.685152519" /><line stroke="rgb(0%,0%,0%)" x1="160.019821238" x2="165.815874111" y1="541.745539833" y2="546.912730971" /><line stroke="rgb(0%,0%,0%)" x1="168.69716975" x2="165.815874111" y1="549.175328006" y2="546.912730971" /><line stroke="rgb(0%,0%,0%)" x1="188.090834832" x2="190.765028609" y1="559.67114053" y2="561.306677849" /><line stroke="rgb(0%,0%,0%)" x1="176.252916847" x2="188.090834832" y1="553.318795472" y2="559.67114053" /><line stroke="rgb(0%,0%,0%)" x1="168.69716975" x2="176.252916847" y1="549.175328006" y2="553.318795472" /><line stroke="rgb(0%,0%,0%)" x1="130.529064767" x2="126.956257968" y1="518.53201203" y2="517.356495186" /><line stroke="rgb(0%,0%,0%)" x1="117.123590793" x2="126.734390413" y1="513.627174872" y2="517.270727636" /><line stroke="rgb(0%,0%,0%)" x1="114.209430243" x2="117.123590793" y1="512.066976617" y2="513.627174872" /><line stroke="rgb(0%,0%,0%)" x1="153.979038371" x2="149.557177288" y1="536.88168528" y2="533.453743016" /><line stroke="rgb(0%,0%,0%)" x1="148.002046592" x2="148.62503742" y1="532.911696759" y2="532.988604662" /><line stroke="rgb(0%,0%,0%)" x1="148.62503742" x2="149.557177288" y1="532.988604662" y2="533.453743016" /><line stroke="rgb(0%,0%,0%)" x1="144.827645984" x2="148.002046592" y1="531.256431833" y2="532.911696759" /><line stroke="rgb(0%,0%,0%)" x1="141.532258159" x2="144.827645984" y1="525.763342469" y2="531.256431833" /><line stroke="rgb(0%,0%,0%)" x1="139.463747866" x2="141.446349953" y1="525.40448477" y2="525.685152519" /><line stroke="rgb(0%,0%,0%)" x1="139.463747866" x2="138.895315961" y1="525.40448477" y2="524.676164907" /><line stroke="rgb(0%,0%,0%)" x1="137.138218423" x2="138.895315961" y1="522.818274119" y2="524.676164907" /><line stroke="rgb(0%,0%,0%)" x1="134.443434829" x2="137.138218423" y1="521.387948692" y2="522.818274119" /><line stroke="rgb(0%,0%,0%)" x1="130.529064767" x2="134.443434829" y1="518.53201203" y2="521.387948692" /><line stroke="rgb(0%,0%,0%)" x1="153.979038371" x2="155.161386543" y1="536.88168528" y2="537.470154035" /><line stroke="rgb(0%,0%,0%)" x1="160.019821238" x2="155.161386543" y1="541.745539833" y2="537.470154035" /><line stroke="rgb(0%,0%,0%)" x1="71.5340921454" x2="78.5441276461" y1="481.756135213" y2="483.438750807" /><line stroke="rgb(0%,0%,0%)" x1="70.9366898735" x2="72.0138432631" y1="470.019720735" y2="472.168502469" /><line stroke="rgb(0%,0%,0%)" x1="70.76928547" x2="70.9366898735" y1="462.425808942" y2="470.019720735" /><line stroke="rgb(0%,0%,0%)" x1="96.2923487121" x2="87.542198396" y1="498.320157692" y2="493.111924982" /><line stroke="rgb(0%,0%,0%)" x1="99.1645860191" x2="104.383807382" y1="500.161095803" y2="504.486283017" /><line stroke="rgb(0%,0%,0%)" x1="96.2923487121" x2="99.1645860191" y1="498.320157692" y2="500.161095803" /><line stroke="rgb(0%,0%,0%)" x1="104.984714914" x2="105.61849879" y1="505.152369235" y2="505.713208999" /><line stroke="rgb(0%,0%,0%)" x1="114.209430243" x2="105.61849879" y1="512.066976617" y2="505.713208999" /><line stroke="rgb(0%,0%,0%)" x1="126.869913994" x2="126.956257968" y1="517.31692329" y2="517.356495186" /><line stroke="rgb(0%,0%,0%)" x1="126.734390413" x2="126.869913994" y1="517.270727636" y2="517.31692329" /><line stroke="rgb(0%,0%,0%)" x1="78.5441276461" x2="81.2541393395" y1="483.438750807" y2="483.833365414" /><line stroke="rgb(0%,0%,0%)" x1="81.2541393395" x2="81.331194141" y1="483.833365414" y2="483.882604334" /><line stroke="rgb(0%,0%,0%)" x1="71.5340921454" x2="70.1324967852" y1="481.756135213" y2="478.873390406" /><line stroke="rgb(0%,0%,0%)" x1="69.3259922132" x2="70.1324967852" y1="476.240195648" y2="478.873390406" /><line stroke="rgb(0%,0%,0%)" x1="72.0138432631" x2="69.488337062" y1="472.168502469" y2="475.45415768" /><line stroke="rgb(0%,0%,0%)" x1="69.488337062" x2="69.3259922132" y1="475.45415768" y2="476.240195648" /><line stroke="rgb(0%,0%,0%)" x1="70.76928547" x2="70.6303202566" y1="462.425808942" y2="459.869843609" /><line stroke="rgb(0%,0%,0%)" x1="84.1923985519" x2="87.542198396" y1="489.226608009" y2="493.111924982" /><line stroke="rgb(0%,0%,0%)" x1="84.1923985519" x2="81.331194141" y1="489.226608009" y2="483.882604334" /><line stroke="rgb(0%,0%,0%)" x1="104.383807382" x2="104.984714914" y1="504.486283017" y2="505.152369235" /><line stroke="rgb(0%,0%,0%)" x1="403.774956204" x2="401.899839795" y1="596.141592987" y2="597.269067159" /><line stroke="rgb(0%,0%,0%)" x1="403.774956204" x2="404.619066293" y1="596.141592987" y2="595.838965851" /><line stroke="rgb(0%,0%,0%)" x1="404.619066293" x2="405.388647161" y1="595.838965851" y2="595.624561748" /><line stroke="rgb(0%,0%,0%)" x1="405.388647161" x2="412.109820682" y1="595.624561748" y2="592.437399167" /><line stroke="rgb(0%,0%,0%)" x1="415.551196616" x2="412.109820682" y1="591.016493295" y2="592.437399167" /><line stroke="rgb(0%,0%,0%)" x1="415.551196616" x2="419.036009927" y1="591.016493295" y2="589.871225445" /><line stroke="rgb(0%,0%,0%)" x1="419.036009927" x2="420.880505179" y1="589.871225445" y2="589.508956124" /><line stroke="rgb(0%,0%,0%)" x1="420.880505179" x2="429.450618387" y1="589.508956124" y2="584.534118348" /><line stroke="rgb(0%,0%,0%)" x1="429.450618387" x2="429.726352414" y1="584.534118348" y2="584.313721065" /><line stroke="rgb(0%,0%,0%)" x1="429.726352414" x2="429.870742178" y1="584.313721065" y2="584.185386848" /></svg>