<?xml version="1.0" encoding="utf-8" ?>
<svg baseProfile="full" height="100%" version="1.1" viewBox="0.5 0.5 685.793960571 941.299331665" width="100%" xmlns="http://www.w3.org/2000/svg" xmlns:ev="http://www.w3.org/2001/xml-events" xmlns:xlink="http://www.w3.org/1999/xlink"><defs /><line stroke="rgb(0%,0%,0%)" x1="596.595727778" x2="596.76903115" y1="439.499417183" y2="440.894118757" /><line stroke="rgb(0%,0%,0%)" x1="580.90732033" x2="580.793004893" y1="395.188011005" y2="394.97620357" /><line stroke="rgb(0%,0%,0%)" x1="596.986505372" x2="597.081629981" y1="458.021381095" y2="457.413425462" /><line stroke="rgb(0%,0%,0%)" x1="597.081629981" x2="596.84299256" y1="457.413425462" y2="451.994557219" /><line stroke="rgb(0%,0%,0%)" x1="596.76903115" x2="596.699409986" y1="440.894118757" y2="444.43665453" /><line stroke="rgb(0%,0%,0%)" x1="596.595727778" x2="595.552929353" y1="439.499417183" y2="435.478507052" /><line stroke="rgb(0%,0%,0%)" x1="596.87584909" x2="596.932997084" y1="447.559730556" y2="447.193350564" /><line stroke="rgb(0%,0%,0%)" x1="596.932997084" x2="596.699409986" y1="447.193350564" y2="444.43665453" /><line stroke="rgb(0%,0%,0%)" x1="594.960415584" x2="595.320113337" y1="429.019181341" y2="433.968225365" /><line stroke="rgb(0%,0%,0%)" x1="592.183986296" x2="594.455590761" y1="422.204437018" y2="428.195675266" /><line stroke="rgb(0%,0%,0%)" x1="526.083360906" x2="525.123705959" y1="308.310231365" y2="307.363220006" /><line stroke="rgb(0%,0%,0%)" x1="525.123705959" x2="521.179653239" y1="307.363220006" y2="300.31534185" /><line stroke="rgb(0%,0%,0%)" x1="538.470382813" x2="532.85316131" y1="324.623353342" y2="317.695028878" /><line stroke="rgb(0%,0%,0%)" x1="538.470382813" x2="549.137582607" y1="324.623353342" y2="334.781290655" /><line stroke="rgb(0%,0%,0%)" x1="563.23088948" x2="560.794652165" y1="357.820318478" y2="351.639555496" /><line stroke="rgb(0%,0%,0%)" x1="565.034994615" x2="563.23088948" y1="361.595088033" y2="357.820318478" /><line stroke="rgb(0%,0%,0%)" x1="560.794652165" x2="558.41578138" y1="351.639555496" y2="348.463219033" /><line stroke="rgb(0%,0%,0%)" x1="558.41578138" x2="549.500856023" y1="348.463219033" y2="335.212891547" /><line stroke="rgb(0%,0%,0%)" x1="579.11821618" x2="576.41267692" y1="389.964222094" y2="385.336556679" /><line stroke="rgb(0%,0%,0%)" x1="576.41267692" x2="574.132205328" y1="385.336556679" y2="380.348177409" /><line stroke="rgb(0%,0%,0%)" x1="574.132205328" x2="573.730222074" y1="380.348177409" y2="379.498687156" /><line stroke="rgb(0%,0%,0%)" x1="572.756789253" x2="573.730222074" y1="378.150613771" y2="379.498687156" /><line stroke="rgb(0%,0%,0%)" x1="572.190415689" x2="572.756789253" y1="377.288627059" y2="378.150613771" /><line stroke="rgb(0%,0%,0%)" x1="572.190415689" x2="569.644704629" y1="377.288627059" y2="370.886592147" /><line stroke="rgb(0%,0%,0%)" x1="569.644704629" x2="568.896260917" y1="370.886592147" y2="369.309130107" /><line stroke="rgb(0%,0%,0%)" x1="568.896260917" x2="568.697642957" y1="369.309130107" y2="368.798556844" /><line stroke="rgb(0%,0%,0%)" x1="565.034994615" x2="568.697642957" y1="361.595088033" y2="368.798556844" /><line stroke="rgb(0%,0%,0%)" x1="587.996752854" x2="590.16884996" y1="411.117547569" y2="417.707886954" /><line stroke="rgb(0%,0%,0%)" x1="587.996752854" x2="587.913445609" y1="411.117547569" y2="410.526676565" /><line stroke="rgb(0%,0%,0%)" x1="582.46399162" x2="587.329403231" y1="396.152694788" y2="409.377145031" /><line stroke="rgb(0%,0%,0%)" x1="582.46399162" x2="580.90732033" y1="396.152694788" y2="395.188011005" /><line stroke="rgb(0%,0%,0%)" x1="580.793004893" x2="579.11821618" y1="394.97620357" y2="389.964222094" /><line stroke="rgb(0%,0%,0%)" x1="596.84299256" x2="596.856056193" y1="451.994557219" y2="448.297949794" /><line stroke="rgb(0%,0%,0%)" x1="596.856056193" x2="596.87584909" y1="448.297949794" y2="447.559730556" /><line stroke="rgb(0%,0%,0%)" x1="595.552929353" x2="595.359865909" y1="435.478507052" y2="434.39438973" /><line stroke="rgb(0%,0%,0%)" x1="595.359865909" x2="595.320113337" y1="434.39438973" y2="433.968225365" /><line stroke="rgb(0%,0%,0%)" x1="594.960415584" x2="594.455590761" y1="429.019181341" y2="428.195675266" /><line stroke="rgb(0%,0%,0%)" x1="592.183986296" x2="592.042899929" y1="422.204437018" y2="420.9394277" /><line stroke="rgb(0%,0%,0%)" x1="590.405869092" x2="590.523298734" y1="418.502463321" y2="418.197516938" /><line stroke="rgb(0%,0%,0%)" x1="592.042899929" x2="590.405869092" y1="420.9394277" y2="418.502463321" /><line stroke="rgb(0%,0%,0%)" x1="590.523298734" x2="590.16884996" y1="418.197516938" y2="417.707886954" /><line stroke="rgb(0%,0%,0%)" x1="490.390813639" x2="488.244563626" y1="276.384690032" y2="275.028022643" /><line stroke="rgb(0%,0%,0%)" x1="514.173366091" x2="518.954652732" y1="292.814437226" y2="297.456457326" /><line stroke="rgb(0%,0%,0%)" x1="514.173366091" x2="512.037039235" y1="292.814437226" y2="290.752706367" /><line stroke="rgb(0%,0%,0%)" x1="532.85316131" x2="526.083360906" y1="317.695028878" y2="308.310231365" /><line stroke="rgb(0%,0%,0%)" x1="549.500856023" x2="549.424275958" y1="335.212891547" y2="335.108642248" /><line stroke="rgb(0%,0%,0%)" x1="549.424275958" x2="549.137582607" y1="335.108642248" y2="334.781290655" /><line stroke="rgb(0%,0%,0%)" x1="587.913445609" x2="587.329403231" y1="410.526676565" y2="409.377145031" /><line stroke="rgb(0%,0%,0%)" x1="461.249966623" x2="460.111348714" y1="263.323385297" y2="262.796217295" /><line stroke="rgb(0%,0%,0%)" x1="477.988086076" x2="478.469411853" y1="269.518845309" y2="269.778652953" /><line stroke="rgb(0%,0%,0%)" x1="477.988086076" x2="477.595286342" y1="269.518845309" y2="269.304267421" /><line stroke="rgb(0%,0%,0%)" x1="507.772604188" x2="502.481039996" y1="287.049996466" y2="283.386388689" /><line stroke="rgb(0%,0%,0%)" x1="497.572156913" x2="502.481039996" y1="280.092079628" y2="283.386388689" /><line stroke="rgb(0%,0%,0%)" x1="497.572156913" x2="490.390813639" y1="280.092079628" y2="276.384690032" /><line stroke="rgb(0%,0%,0%)" x1="507.772604188" x2="512.037039235" y1="287.049996466" y2="290.752706367" /><line stroke="rgb(0%,0%,0%)" x1="521.179653239" x2="519.730269821" y1="300.31534185" y2="298.435067079" /><line stroke="rgb(0%,0%,0%)" x1="519.730269821" x2="518.954652732" y1="298.435067079" y2="297.456457326" /><line stroke="rgb(0%,0%,0%)" x1="438.094979934" x2="439.086603788" y1="328.283906175" y2="329.322185087" /><line stroke="rgb(0%,0%,0%)" x1="437.412340611" x2="438.094979934" y1="327.661031904" y2="328.283906175" /><line stroke="rgb(0%,0%,0%)" x1="442.214413777" x2="455.251103077" y1="333.040577116" y2="343.59459785" /><line stroke="rgb(0%,0%,0%)" x1="439.086603788" x2="442.214413777" y1="329.322185087" y2="333.040577116" /><line stroke="rgb(0%,0%,0%)" x1="456.648960363" x2="465.798809995" y1="345.382894148" y2="357.660205509" /><line stroke="rgb(0%,0%,0%)" x1="455.541057287" x2="453.818253477" y1="354.477849125" y2="352.532567212" /><line stroke="rgb(0%,0%,0%)" x1="455.251103077" x2="456.648960363" y1="343.59459785" y2="345.382894148" /><line stroke="rgb(0%,0%,0%)" x1="460.111348714" x2="453.811608676" y1="262.796217295" y2="261.575475035" /><line stroke="rgb(0%,0%,0%)" x1="476.654740137" x2="474.746761216" y1="382.914540514" y2="379.843030199" /><line stroke="rgb(0%,0%,0%)" x1="472.84835422" x2="474.058157825" y1="369.183334494" y2="371.123607094" /><line stroke="rgb(0%,0%,0%)" x1="471.381961932" x2="474.746761216" y1="374.330384647" y2="379.843030199" /><line stroke="rgb(0%,0%,0%)" x1="467.973408503" x2="465.069649065" y1="370.451449554" y2="367.007803955" /><line stroke="rgb(0%,0%,0%)" x1="471.381961932" x2="467.973408503" y1="374.330384647" y2="370.451449554" /><line stroke="rgb(0%,0%,0%)" x1="466.657704939" x2="472.84835422" y1="359.03717062" y2="369.183334494" /><line stroke="rgb(0%,0%,0%)" x1="465.798809995" x2="466.657704939" y1="357.660205509" y2="359.03717062" /><line stroke="rgb(0%,0%,0%)" x1="477.595286342" x2="466.228598617" y1="269.304267421" y2="265.683988224" /><line stroke="rgb(0%,0%,0%)" x1="466.228598617" x2="461.249966623" y1="265.683988224" y2="263.323385297" /><line stroke="rgb(0%,0%,0%)" x1="487.376957248" x2="487.836895132" y1="400.537373842" y2="397.420499809" /><line stroke="rgb(0%,0%,0%)" x1="487.915842129" x2="487.836895132" y1="397.468911919" y2="397.420499809" /><line stroke="rgb(0%,0%,0%)" x1="487.376957248" x2="484.53159618" y1="400.537373842" y2="394.840261415" /><line stroke="rgb(0%,0%,0%)" x1="484.53159618" x2="481.237245666" y1="394.840261415" y2="390.652902734" /><line stroke="rgb(0%,0%,0%)" x1="481.237245666" x2="480.5259737" y1="390.652902734" y2="389.351345731" /><line stroke="rgb(0%,0%,0%)" x1="487.10785981" x2="487.815481518" y1="395.037448952" y2="397.078901571" /><line stroke="rgb(0%,0%,0%)" x1="484.537840228" x2="487.10785981" y1="387.910890611" y2="395.037448952" /><line stroke="rgb(0%,0%,0%)" x1="480.5259737" x2="477.182022218" y1="389.351345731" y2="383.666805029" /><line stroke="rgb(0%,0%,0%)" x1="484.079361564" x2="484.537840228" y1="386.595681355" y2="387.910890611" /><line stroke="rgb(0%,0%,0%)" x1="477.182022218" x2="476.654740137" y1="383.666805029" y2="382.914540514" /><line stroke="rgb(0%,0%,0%)" x1="474.058157825" x2="484.079361564" y1="371.123607094" y2="386.595681355" /><line stroke="rgb(0%,0%,0%)" x1="488.244563626" x2="481.725612611" y1="275.028022643" y2="272.621275026" /><line stroke="rgb(0%,0%,0%)" x1="481.725612611" x2="478.469411853" y1="272.621275026" y2="269.778652953" /><line stroke="rgb(0%,0%,0%)" x1="487.858389695" x2="487.915842129" y1="397.221245385" y2="397.468911919" /><line stroke="rgb(0%,0%,0%)" x1="487.815481518" x2="487.858389695" y1="397.078901571" y2="397.221245385" /><line stroke="rgb(0%,0%,0%)" x1="424.870137519" x2="424.688116194" y1="328.792913154" y2="328.66478972" /><line stroke="rgb(0%,0%,0%)" x1="420.551465104" x2="427.170580334" y1="312.672884129" y2="317.899477971" /><line stroke="rgb(0%,0%,0%)" x1="420.551465104" x2="417.196672378" y1="312.672884129" y2="310.800304163" /><line stroke="rgb(0%,0%,0%)" x1="438.479261847" x2="440.369859949" y1="339.112789046" y2="340.453527782" /><line stroke="rgb(0%,0%,0%)" x1="438.479261847" x2="437.728140432" y1="339.112789046" y2="338.420758212" /><line stroke="rgb(0%,0%,0%)" x1="437.728140432" x2="424.870137519" y1="338.420758212" y2="328.792913154" /><line stroke="rgb(0%,0%,0%)" x1="436.907876106" x2="437.412340611" y1="327.271988388" y2="327.661031904" /><line stroke="rgb(0%,0%,0%)" x1="427.170580334" x2="436.907876106" y1="317.899477971" y2="327.271988388" /><line stroke="rgb(0%,0%,0%)" x1="442.516150909" x2="435.291050545" y1="261.924347791" y2="261.961870079" /><line stroke="rgb(0%,0%,0%)" x1="435.291050545" x2="429.383005841" y1="261.961870079" y2="259.776210593" /><line stroke="rgb(0%,0%,0%)" x1="445.695675506" x2="442.516150909" y1="261.285710175" y2="261.924347791" /><line stroke="rgb(0%,0%,0%)" x1="450.427975965" x2="447.106019287" y1="347.877632465" y2="345.909768947" /><line stroke="rgb(0%,0%,0%)" x1="453.818253477" x2="452.901617056" y1="352.532567212" y2="351.598315798" /><line stroke="rgb(0%,0%,0%)" x1="452.901617056" x2="450.427975965" y1="351.598315798" y2="347.877632465" /><line stroke="rgb(0%,0%,0%)" x1="447.106019287" x2="443.566171853" y1="345.909768947" y2="342.814286364" /><line stroke="rgb(0%,0%,0%)" x1="440.369859949" x2="443.566171853" y1="340.453527782" y2="342.814286364" /><line stroke="rgb(0%,0%,0%)" x1="453.811608676" x2="445.695675506" y1="261.575475035" y2="261.285710175" /><line stroke="rgb(0%,0%,0%)" x1="464.042627041" x2="463.011491523" y1="365.660550554" y2="364.28701348" /><line stroke="rgb(0%,0%,0%)" x1="455.541057287" x2="463.011491523" y1="354.477849125" y2="364.28701348" /><line stroke="rgb(0%,0%,0%)" x1="465.069649065" x2="464.709099977" y1="367.007803955" y2="366.533660227" /><line stroke="rgb(0%,0%,0%)" x1="464.709099977" x2="464.042627041" y1="366.533660227" y2="365.660550554" /><line stroke="rgb(0%,0%,0%)" x1="395.012100773" x2="395.360936634" y1="263.286962457" y2="263.795057634" /><line stroke="rgb(0%,0%,0%)" x1="394.968029575" x2="395.012100773" y1="263.008662597" y2="263.286962457" /><line stroke="rgb(0%,0%,0%)" x1="394.968029575" x2="394.971151909" y1="263.008662597" y2="262.34241121" /><line stroke="rgb(0%,0%,0%)" x1="384.776746984" x2="381.233338713" y1="315.526771206" y2="314.751922906" /><line stroke="rgb(0%,0%,0%)" x1="395.360936634" x2="395.400155327" y1="263.795057634" y2="265.552952386" /><line stroke="rgb(0%,0%,0%)" x1="395.373393095" x2="396.548552236" y1="316.941559726" y2="317.427260853" /><line stroke="rgb(0%,0%,0%)" x1="395.373393095" x2="384.776746984" y1="316.941559726" y2="315.526771206" /><line stroke="rgb(0%,0%,0%)" x1="406.055095914" x2="400.365273308" y1="304.802026954" y2="302.640365822" /><line stroke="rgb(0%,0%,0%)" x1="408.87633655" x2="404.658878706" y1="283.345366706" y2="282.767133184" /><line stroke="rgb(0%,0%,0%)" x1="390.812618816" x2="404.658878706" y1="284.918084012" y2="282.767133184" /><line stroke="rgb(0%,0%,0%)" x1="404.003998731" x2="407.261469086" y1="277.341197576" y2="280.814875568" /><line stroke="rgb(0%,0%,0%)" x1="404.003998731" x2="396.752224597" y1="277.341197576" y2="270.98164056" /><line stroke="rgb(0%,0%,0%)" x1="396.384846112" x2="396.752224597" y1="270.120738148" y2="270.98164056" /><line stroke="rgb(0%,0%,0%)" x1="395.400155327" x2="396.384846112" y1="265.552952386" y2="270.120738148" /><line stroke="rgb(0%,0%,0%)" x1="400.721088103" x2="394.971151909" y1="257.040214209" y2="262.34241121" /><line stroke="rgb(0%,0%,0%)" x1="400.721088103" x2="403.814875693" y1="257.040214209" y2="255.94913075" /><line stroke="rgb(0%,0%,0%)" x1="406.058321514" x2="409.632245861" y1="320.493028835" y2="322.489621113" /><line stroke="rgb(0%,0%,0%)" x1="406.058321514" x2="404.910712599" y1="320.493028835" y2="320.467275568" /><line stroke="rgb(0%,0%,0%)" x1="404.910712599" x2="396.548552236" y1="320.467275568" y2="317.427260853" /><line stroke="rgb(0%,0%,0%)" x1="406.055095914" x2="413.341319283" y1="304.802026954" y2="308.330715641" /><line stroke="rgb(0%,0%,0%)" x1="413.341319283" x2="416.147458625" y1="308.330715641" y2="309.810040536" /><line stroke="rgb(0%,0%,0%)" x1="416.147458625" x2="417.196672378" y1="309.810040536" y2="310.800304163" /><line stroke="rgb(0%,0%,0%)" x1="409.24800924" x2="408.87633655" y1="283.058262625" y2="283.345366706" /><line stroke="rgb(0%,0%,0%)" x1="407.261469086" x2="409.24800924" y1="280.814875568" y2="283.058262625" /><line stroke="rgb(0%,0%,0%)" x1="429.383005841" x2="415.13396428" y1="259.776210593" y2="257.777534333" /><line stroke="rgb(0%,0%,0%)" x1="415.13396428" x2="407.472700855" y1="257.777534333" y2="256.448568603" /><line stroke="rgb(0%,0%,0%)" x1="403.814875693" x2="407.472700855" y1="255.94913075" y2="256.448568603" /><line stroke="rgb(0%,0%,0%)" x1="424.688116194" x2="423.55575769" y1="328.66478972" y2="328.258205161" /><line stroke="rgb(0%,0%,0%)" x1="423.55575769" x2="409.632245861" y1="328.258205161" y2="322.489621113" /><line stroke="rgb(0%,0%,0%)" x1="374.95899523" x2="381.233338713" y1="314.219767587" y2="314.751922906" /><line stroke="rgb(0%,0%,0%)" x1="374.95899523" x2="366.925432193" y1="314.219767587" y2="313.344233046" /><line stroke="rgb(0%,0%,0%)" x1="389.510281179" x2="386.84125445" y1="297.354902368" y2="295.838048887" /><line stroke="rgb(0%,0%,0%)" x1="385.662542619" x2="386.84125445" y1="294.776374846" y2="295.838048887" /><line stroke="rgb(0%,0%,0%)" x1="385.662542619" x2="385.361168466" y1="294.776374846" y2="294.38796469" /><line stroke="rgb(0%,0%,0%)" x1="385.135456997" x2="385.361168466" y1="293.896376374" y2="294.38796469" /><line stroke="rgb(0%,0%,0%)" x1="385.135456997" x2="383.151608816" y1="293.896376374" y2="291.992794084" /><line stroke="rgb(0%,0%,0%)" x1="382.951297356" x2="383.151608816" y1="291.626184273" y2="291.992794084" /><line stroke="rgb(0%,0%,0%)" x1="382.697296445" x2="382.951297356" y1="291.305063856" y2="291.626184273" /><line stroke="rgb(0%,0%,0%)" x1="382.697296445" x2="382.658370367" y1="291.305063856" y2="288.984756217" /><line stroke="rgb(0%,0%,0%)" x1="382.625756241" x2="382.658370367" y1="288.494145393" y2="288.984756217" /><line stroke="rgb(0%,0%,0%)" x1="383.807698413" x2="382.625756241" y1="286.517104499" y2="288.494145393" /><line stroke="rgb(0%,0%,0%)" x1="384.678950641" x2="383.807698413" y1="285.928026334" y2="286.517104499" /><line stroke="rgb(0%,0%,0%)" x1="384.678950641" x2="390.812618816" y1="285.928026334" y2="284.918084012" /><line stroke="rgb(0%,0%,0%)" x1="396.531085643" x2="400.357197261" y1="300.3427785" y2="302.636100278" /><line stroke="rgb(0%,0%,0%)" x1="395.937688375" x2="396.531085643" y1="300.044426745" y2="300.3427785" /><line stroke="rgb(0%,0%,0%)" x1="391.512758571" x2="395.937688375" y1="298.57235289" y2="300.044426745" /><line stroke="rgb(0%,0%,0%)" x1="389.510281179" x2="391.512758571" y1="297.354902368" y2="298.57235289" /><line stroke="rgb(0%,0%,0%)" x1="400.357197261" x2="400.365273308" y1="302.636100278" y2="302.640365822" /><line stroke="rgb(0%,0%,0%)" x1="351.171824012" x2="336.397550551" y1="309.682705422" y2="305.972190418" /><line stroke="rgb(0%,0%,0%)" x1="366.925432193" x2="358.807802562" y1="313.344233046" y2="311.091758896" /><line stroke="rgb(0%,0%,0%)" x1="358.807802562" x2="351.171824012" y1="311.091758896" y2="309.682705422" /><line stroke="rgb(0%,0%,0%)" x1="285.376973631" x2="270.782196679" y1="309.28269675" y2="313.353932583" /><line stroke="rgb(0%,0%,0%)" x1="285.376973631" x2="287.282387357" y1="309.28269675" y2="308.887249512" /><line stroke="rgb(0%,0%,0%)" x1="287.282387357" x2="301.202579371" y1="308.887249512" y2="306.238515014" /><line stroke="rgb(0%,0%,0%)" x1="320.101339963" x2="306.230856427" y1="303.342763235" y2="305.383513509" /><line stroke="rgb(0%,0%,0%)" x1="306.230856427" x2="305.294177792" y1="305.383513509" y2="305.439386809" /><line stroke="rgb(0%,0%,0%)" x1="321.63615704" x2="335.579713545" y1="303.344220176" y2="305.749218637" /><line stroke="rgb(0%,0%,0%)" x1="321.63615704" x2="320.101339963" y1="303.344220176" y2="303.342763235" /><line stroke="rgb(0%,0%,0%)" x1="336.397550551" x2="335.981134371" y1="305.972190418" y2="305.858464171" /><line stroke="rgb(0%,0%,0%)" x1="335.981134371" x2="335.579713545" y1="305.858464171" y2="305.749218637" /><line stroke="rgb(0%,0%,0%)" x1="270.782196679" x2="261.747726815" y1="313.353932583" y2="315.66275093" /><line stroke="rgb(0%,0%,0%)" x1="305.294177792" x2="301.202579371" y1="305.439386809" y2="306.238515014" /><line stroke="rgb(0%,0%,0%)" x1="227.779938534" x2="229.985597259" y1="325.998289706" y2="324.531377527" /><line stroke="rgb(0%,0%,0%)" x1="229.985597259" x2="239.164677269" y1="324.531377527" y2="321.722673375" /><line stroke="rgb(0%,0%,0%)" x1="254.305474403" x2="239.164677269" y1="316.609632581" y2="321.722673375" /><line stroke="rgb(0%,0%,0%)" x1="254.305474403" x2="257.662141516" y1="316.609632581" y2="316.003438185" /><line stroke="rgb(0%,0%,0%)" x1="261.747726815" x2="257.662141516" y1="315.66275093" y2="316.003438185" /><line stroke="rgb(0%,0%,0%)" x1="205.287175357" x2="198.137255245" y1="337.340539776" y2="342.316799765" /><line stroke="rgb(0%,0%,0%)" x1="205.287175357" x2="214.321516524" y1="337.340539776" y2="331.434033673" /><line stroke="rgb(0%,0%,0%)" x1="227.779938534" x2="214.321516524" y1="325.998289706" y2="331.434033673" /><line stroke="rgb(0%,0%,0%)" x1="183.534982991" x2="179.223845235" y1="348.932270988" y2="350.750611447" /><line stroke="rgb(0%,0%,0%)" x1="183.534982991" x2="187.145102634" y1="348.932270988" y2="347.863144944" /><line stroke="rgb(0%,0%,0%)" x1="188.362043586" x2="196.497425033" y1="346.472788436" y2="343.028065194" /><line stroke="rgb(0%,0%,0%)" x1="188.362043586" x2="187.145102634" y1="346.472788436" y2="347.863144944" /><line stroke="rgb(0%,0%,0%)" x1="197.1199112" x2="196.497425033" y1="342.680118311" y2="343.028065194" /><line stroke="rgb(0%,0%,0%)" x1="198.137255245" x2="197.1199112" y1="342.316799765" y2="342.680118311" /><line stroke="rgb(0%,0%,0%)" x1="127.406558548" x2="127.788976271" y1="390.395689981" y2="390.256964208" /><line stroke="rgb(0%,0%,0%)" x1="127.406558548" x2="126.476707604" y1="390.395689981" y2="391.471184027" /><line stroke="rgb(0%,0%,0%)" x1="128.884377221" x2="127.788976271" y1="382.57870256" y2="390.256964208" /><line stroke="rgb(0%,0%,0%)" x1="134.332912879" x2="134.325062679" y1="377.593139718" y2="377.606209764" /><line stroke="rgb(0%,0%,0%)" x1="134.325062679" x2="128.884377221" y1="377.606209764" y2="382.57870256" /><line stroke="rgb(0%,0%,0%)" x1="134.332912879" x2="134.377584626" y1="377.593139718" y2="377.569597608" /><line stroke="rgb(0%,0%,0%)" x1="140.689974932" x2="134.377584626" y1="374.919883577" y2="377.569597608" /><line stroke="rgb(0%,0%,0%)" x1="145.327500917" x2="140.689974932" y1="373.211969429" y2="374.919883577" /><line stroke="rgb(0%,0%,0%)" x1="147.286768312" x2="145.327500917" y1="371.330868684" y2="373.211969429" /><line stroke="rgb(0%,0%,0%)" x1="151.246010575" x2="149.136078477" y1="369.134218179" y2="370.640378174" /><line stroke="rgb(0%,0%,0%)" x1="161.700821137" x2="151.246010575" y1="361.856376975" y2="369.134218179" /><line stroke="rgb(0%,0%,0%)" x1="169.8617597" x2="161.700821137" y1="355.614871986" y2="361.856376975" /><line stroke="rgb(0%,0%,0%)" x1="179.223845235" x2="169.8617597" y1="350.750611447" y2="355.614871986" /><line stroke="rgb(0%,0%,0%)" x1="101.916358873" x2="97.5707193997" y1="411.287284036" y2="415.779415371" /><line stroke="rgb(0%,0%,0%)" x1="101.916358873" x2="107.664643329" y1="411.287284036" y2="405.901354" /><line stroke="rgb(0%,0%,0%)" x1="113.406917412" x2="109.411753111" y1="400.461369782" y2="403.198927255" /><line stroke="rgb(0%,0%,0%)" x1="116.742518639" x2="113.406917412" y1="399.293719751" y2="400.461369782" /><line stroke="rgb(0%,0%,0%)" x1="116.742518639" x2="121.835861402" y1="399.293719751" y2="395.489105397" /><line stroke="rgb(0%,0%,0%)" x1="126.476707604" x2="125.663382924" y1="391.471184027" y2="392.627386548" /><line stroke="rgb(0%,0%,0%)" x1="149.136078477" x2="147.286768312" y1="370.640378174" y2="371.330868684" /><line stroke="rgb(0%,0%,0%)" x1="69.9561785884" x2="69.9280991599" y1="449.280635407" y2="450.301472599" /><line stroke="rgb(0%,0%,0%)" x1="70.0576370001" x2="69.9561785884" y1="448.968872153" y2="449.280635407" /><line stroke="rgb(0%,0%,0%)" x1="79.9199905807" x2="79.7606198905" y1="434.827790105" y2="434.984695666" /><line stroke="rgb(0%,0%,0%)" x1="79.7606198905" x2="70.0576370001" y1="434.984695666" y2="448.968872153" /><line stroke="rgb(0%,0%,0%)" x1="79.9199905807" x2="80.2628284206" y1="434.827790105" y2="434.594938527" /><line stroke="rgb(0%,0%,0%)" x1="86.1396293751" x2="80.2628284206" y1="428.509203589" y2="434.594938527" /><line stroke="rgb(0%,0%,0%)" x1="91.993253773" x2="86.1396293751" y1="423.095990654" y2="428.509203589" /><line stroke="rgb(0%,0%,0%)" x1="91.993253773" x2="94.0772822039" y1="423.095990654" y2="421.789757087" /><line stroke="rgb(0%,0%,0%)" x1="97.5707193997" x2="94.0772822039" y1="415.779415371" y2="421.789757087" /><line stroke="rgb(0%,0%,0%)" x1="109.411753111" x2="107.664643329" y1="403.198927255" y2="405.901354" /><line stroke="rgb(0%,0%,0%)" x1="125.663382924" x2="121.835861402" y1="392.627386548" y2="395.489105397" /><line stroke="rgb(0%,0%,0%)" x1="69.5677807303" x2="69.2171074176" y1="455.096450599" y2="459.856421563" /><line stroke="rgb(0%,0%,0%)" x1="69.2171074176" x2="68.9278603198" y1="459.856421563" y2="460.903253421" /><line stroke="rgb(0%,0%,0%)" x1="596.878707112" x2="596.165293077" y1="458.832918164" y2="473.336730446" /><line stroke="rgb(0%,0%,0%)" x1="596.986505372" x2="596.878707112" y1="458.021381095" y2="458.832918164" /><line stroke="rgb(0%,0%,0%)" x1="539.251798008" x2="538.421922345" y1="589.477343287" y2="590.544743598" /><line stroke="rgb(0%,0%,0%)" x1="539.251798008" x2="539.832184061" y1="589.477343287" y2="588.643909429" /><line stroke="rgb(0%,0%,0%)" x1="590.229301882" x2="593.162639364" y1="494.321782718" y2="486.646911101" /><line stroke="rgb(0%,0%,0%)" x1="538.421922345" x2="535.398560432" y1="590.544743598" y2="594.616751849" /><line stroke="rgb(0%,0%,0%)" x1="539.832184061" x2="544.899220288" y1="588.643909429" y2="583.672188612" /><line stroke="rgb(0%,0%,0%)" x1="554.66093045" x2="550.695780416" y1="569.642307255" y2="576.259427941" /><line stroke="rgb(0%,0%,0%)" x1="554.66093045" x2="560.834970177" y1="569.642307255" y2="563.931449264" /><line stroke="rgb(0%,0%,0%)" x1="561.235556739" x2="560.834970177" y1="563.314644676" y2="563.931449264" /><line stroke="rgb(0%,0%,0%)" x1="561.235556739" x2="562.139154028" y1="563.314644676" y2="561.611545642" /><line stroke="rgb(0%,0%,0%)" x1="562.139154028" x2="568.168667797" y1="561.611545642" y2="549.342155675" /><line stroke="rgb(0%,0%,0%)" x1="574.044351631" x2="572.563601616" y1="536.292384701" y2="541.093648465" /><line stroke="rgb(0%,0%,0%)" x1="568.168667797" x2="572.563601616" y1="549.342155675" y2="541.093648465" /><line stroke="rgb(0%,0%,0%)" x1="574.326629105" x2="574.044351631" y1="535.680278489" y2="536.292384701" /><line stroke="rgb(0%,0%,0%)" x1="574.326629105" x2="576.1139067" y1="535.680278489" y2="531.461542489" /><line stroke="rgb(0%,0%,0%)" x1="576.1139067" x2="576.602977331" y1="531.461542489" y2="529.562230397" /><line stroke="rgb(0%,0%,0%)" x1="576.602977331" x2="576.900200728" y1="529.562230397" y2="529.181195584" /><line stroke="rgb(0%,0%,0%)" x1="576.900200728" x2="578.9504569" y1="529.181195584" y2="524.738549071" /><line stroke="rgb(0%,0%,0%)" x1="578.9504569" x2="579.051910565" y1="524.738549071" y2="524.427974266" /><line stroke="rgb(0%,0%,0%)" x1="580.803015521" x2="579.051910565" y1="516.622375566" y2="524.427974266" /><line stroke="rgb(0%,0%,0%)" x1="580.803015521" x2="581.569131458" y1="516.622375566" y2="515.416146479" /><line stroke="rgb(0%,0%,0%)" x1="583.356388057" x2="581.569131458" y1="511.951035025" y2="515.416146479" /><line stroke="rgb(0%,0%,0%)" x1="583.356388057" x2="583.49018296" y1="511.951035025" y2="509.696632073" /><line stroke="rgb(0%,0%,0%)" x1="583.49018296" x2="584.760106535" y1="509.696632073" y2="506.821611889" /><line stroke="rgb(0%,0%,0%)" x1="584.760106535" x2="587.000905134" y1="506.821611889" y2="502.745137765" /><line stroke="rgb(0%,0%,0%)" x1="587.000905134" x2="587.223152972" y1="502.745137765" y2="501.288330595" /><line stroke="rgb(0%,0%,0%)" x1="589.864367927" x2="587.223152972" y1="495.783326887" y2="501.288330595" /><line stroke="rgb(0%,0%,0%)" x1="589.864367927" x2="590.229301882" y1="495.783326887" y2="494.321782718" /><line stroke="rgb(0%,0%,0%)" x1="593.162639364" x2="593.530163337" y1="486.646911101" y2="485.906332826" /><line stroke="rgb(0%,0%,0%)" x1="593.530163337" x2="593.493036754" y1="485.906332826" y2="485.644324573" /><line stroke="rgb(0%,0%,0%)" x1="593.493036754" x2="596.076027988" y1="485.644324573" y2="475.497120918" /><line stroke="rgb(0%,0%,0%)" x1="596.076027988" x2="596.092043322" y1="475.497120918" y2="475.308530184" /><line stroke="rgb(0%,0%,0%)" x1="596.092043322" x2="596.097169548" y1="475.308530184" y2="475.265859521" /><line stroke="rgb(0%,0%,0%)" x1="596.097169548" x2="596.165293077" y1="475.265859521" y2="473.336730446" /><line stroke="rgb(0%,0%,0%)" x1="527.406551718" x2="522.039163327" y1="604.435407445" y2="612.463768078" /><line stroke="rgb(0%,0%,0%)" x1="527.406551718" x2="535.398560432" y1="604.435407445" y2="594.616751849" /><line stroke="rgb(0%,0%,0%)" x1="544.899220288" x2="550.695780416" y1="583.672188612" y2="576.259427941" /><line stroke="rgb(0%,0%,0%)" x1="469.374410909" x2="468.14383739" y1="647.13478797" y2="648.204679093" /><line stroke="rgb(0%,0%,0%)" x1="479.298284206" x2="480.871275304" y1="643.686086543" y2="642.762058652" /><line stroke="rgb(0%,0%,0%)" x1="480.871275304" x2="486.434876421" y1="642.762058652" y2="639.741939322" /><line stroke="rgb(0%,0%,0%)" x1="488.041036726" x2="486.434876421" y1="638.551367213" y2="639.741939322" /><line stroke="rgb(0%,0%,0%)" x1="492.707456224" x2="496.426703963" y1="636.851880712" y2="634.342880805" /><line stroke="rgb(0%,0%,0%)" x1="495.592572286" x2="494.794337239" y1="494.075557798" y2="492.07571619" /><line stroke="rgb(0%,0%,0%)" x1="495.592572286" x2="494.856300945" y1="494.075557798" y2="498.767944603" /><line stroke="rgb(0%,0%,0%)" x1="496.426703963" x2="500.778532452" y1="634.342880805" y2="631.418404071" /><line stroke="rgb(0%,0%,0%)" x1="500.778532452" x2="507.204886028" y1="631.418404071" y2="627.384579684" /><line stroke="rgb(0%,0%,0%)" x1="507.204886028" x2="511.391114508" y1="627.384579684" y2="623.505060294" /><line stroke="rgb(0%,0%,0%)" x1="511.391114508" x2="520.962654009" y1="623.505060294" y2="613.696959311" /><line stroke="rgb(0%,0%,0%)" x1="520.962654009" x2="522.039163327" y1="613.696959311" y2="612.463768078" /><line stroke="rgb(0%,0%,0%)" x1="453.010255573" x2="451.148864138" y1="559.754481904" y2="561.929724987" /><line stroke="rgb(0%,0%,0%)" x1="448.037671093" x2="448.1677276" y1="577.060796258" y2="576.902378471" /><line stroke="rgb(0%,0%,0%)" x1="459.449013273" x2="448.1677276" y1="562.522518167" y2="576.902378471" /><line stroke="rgb(0%,0%,0%)" x1="453.010255573" x2="456.219447962" y1="559.754481904" y2="557.055375515" /><line stroke="rgb(0%,0%,0%)" x1="468.076196513" x2="459.449013273" y1="549.968792054" y2="562.522518167" /><line stroke="rgb(0%,0%,0%)" x1="468.076196513" x2="468.426592701" y1="549.968792054" y2="549.418259696" /><line stroke="rgb(0%,0%,0%)" x1="456.219447962" x2="468.239353791" y1="557.055375515" y2="542.763146032" /><line stroke="rgb(0%,0%,0%)" x1="464.670474641" x2="468.14383739" y1="648.923297141" y2="648.204679093" /><line stroke="rgb(0%,0%,0%)" x1="469.374410909" x2="479.298284206" y1="647.13478797" y2="643.686086543" /><line stroke="rgb(0%,0%,0%)" x1="468.426592701" x2="469.635686705" y1="549.418259696" y2="547.814268269" /><line stroke="rgb(0%,0%,0%)" x1="468.239353791" x2="471.737006331" y1="542.763146032" y2="538.144472458" /><line stroke="rgb(0%,0%,0%)" x1="474.789117778" x2="469.635686705" y1="540.974727559" y2="547.814268269" /><line stroke="rgb(0%,0%,0%)" x1="474.789117778" x2="479.303119811" y1="540.974727559" y2="532.437888609" /><line stroke="rgb(0%,0%,0%)" x1="471.737006331" x2="472.502860979" y1="538.144472458" y2="531.141680213" /><line stroke="rgb(0%,0%,0%)" x1="472.502860979" x2="473.09312855" y1="531.141680213" y2="529.955030145" /><line stroke="rgb(0%,0%,0%)" x1="473.09312855" x2="474.104594835" y1="529.955030145" y2="529.145672783" /><line stroke="rgb(0%,0%,0%)" x1="474.104594835" x2="476.052824415" y1="529.145672783" y2="526.563767631" /><line stroke="rgb(0%,0%,0%)" x1="478.192881979" x2="476.052824415" y1="525.253192281" y2="526.563767631" /><line stroke="rgb(0%,0%,0%)" x1="488.041036726" x2="492.707456224" y1="638.551367213" y2="636.851880712" /><line stroke="rgb(0%,0%,0%)" x1="480.135338589" x2="479.303119811" y1="531.205371493" y2="532.437888609" /><line stroke="rgb(0%,0%,0%)" x1="480.135338589" x2="484.705363809" y1="531.205371493" y2="522.326265378" /><line stroke="rgb(0%,0%,0%)" x1="485.586541357" x2="484.705363809" y1="520.83282222" y2="522.326265378" /><line stroke="rgb(0%,0%,0%)" x1="478.192881979" x2="484.314736166" y1="525.253192281" y2="516.58382391" /><line stroke="rgb(0%,0%,0%)" x1="489.057784811" x2="485.586541357" y1="513.903831196" y2="520.83282222" /><line stroke="rgb(0%,0%,0%)" x1="484.314736166" x2="484.908210675" y1="516.58382391" y2="515.693086974" /><line stroke="rgb(0%,0%,0%)" x1="484.908210675" x2="485.245932069" y1="515.693086974" y2="514.612821799" /><line stroke="rgb(0%,0%,0%)" x1="489.057784811" x2="491.243811646" y1="513.903831196" y2="507.825629053" /><line stroke="rgb(0%,0%,0%)" x1="492.821496112" x2="491.243811646" y1="505.032047236" y2="507.825629053" /><line stroke="rgb(0%,0%,0%)" x1="485.245932069" x2="485.700347162" y1="514.612821799" y2="513.82384453" /><line stroke="rgb(0%,0%,0%)" x1="491.660238825" x2="485.700347162" y1="497.921350289" y2="513.82384453" /><line stroke="rgb(0%,0%,0%)" x1="494.856300945" x2="492.821496112" y1="498.767944603" y2="505.032047236" /><line stroke="rgb(0%,0%,0%)" x1="491.660238825" x2="493.503176466" y1="497.921350289" y2="493.770962172" /><line stroke="rgb(0%,0%,0%)" x1="493.503176466" x2="494.794337239" y1="493.770962172" y2="492.07571619" /><line stroke="rgb(0%,0%,0%)" x1="426.48914786" x2="420.360927793" y1="657.020830499" y2="657.486714038" /><line stroke="rgb(0%,0%,0%)" x1="428.55273644" x2="426.48914786" y1="656.32282165" y2="657.020830499" /><line stroke="rgb(0%,0%,0%)" x1="419.815784602" x2="419.190907558" y1="604.754025059" y2="605.1076182" /><line stroke="rgb(0%,0%,0%)" x1="428.55273644" x2="429.184886052" y1="656.32282165" y2="656.251576834" /><line stroke="rgb(0%,0%,0%)" x1="429.184886052" x2="435.003996666" y1="656.251576834" y2="654.734330879" /><line stroke="rgb(0%,0%,0%)" x1="429.65439431" x2="419.815784602" y1="596.675277598" y2="604.754025059" /><line stroke="rgb(0%,0%,0%)" x1="429.65439431" x2="430.380170478" y1="596.675277598" y2="595.985221687" /><line stroke="rgb(0%,0%,0%)" x1="434.822066005" x2="430.380170478" y1="591.611221996" y2="595.985221687" /><line stroke="rgb(0%,0%,0%)" x1="431.920583233" x2="437.190832684" y1="580.686518047" y2="576.384394282" /><line stroke="rgb(0%,0%,0%)" x1="435.003996666" x2="446.121934672" y1="654.734330879" y2="651.905046468" /><line stroke="rgb(0%,0%,0%)" x1="449.087520962" x2="446.121934672" y1="651.729866531" y2="651.905046468" /><line stroke="rgb(0%,0%,0%)" x1="448.037671093" x2="434.822066005" y1="577.060796258" y2="591.611221996" /><line stroke="rgb(0%,0%,0%)" x1="437.190832684" x2="443.602800864" y1="576.384394282" y2="569.169711763" /><line stroke="rgb(0%,0%,0%)" x1="447.599881148" x2="443.602800864" y1="565.314950682" y2="569.169711763" /><line stroke="rgb(0%,0%,0%)" x1="447.599881148" x2="451.148864138" y1="565.314950682" y2="561.929724987" /><line stroke="rgb(0%,0%,0%)" x1="449.087520962" x2="464.670474641" y1="651.729866531" y2="648.923297141" /><line stroke="rgb(0%,0%,0%)" x1="392.777276683" x2="399.346922946" y1="630.798250723" y2="631.447029843" /><line stroke="rgb(0%,0%,0%)" x1="392.758439709" x2="392.808495194" y1="622.751224496" y2="623.436664444" /><line stroke="rgb(0%,0%,0%)" x1="394.431758854" x2="392.758439709" y1="621.733656589" y2="622.751224496" /><line stroke="rgb(0%,0%,0%)" x1="394.431758854" x2="395.262675122" y1="621.733656589" y2="620.98992717" /><line stroke="rgb(0%,0%,0%)" x1="397.786219937" x2="396.451820178" y1="618.31175386" y2="619.244544559" /><line stroke="rgb(0%,0%,0%)" x1="399.265348778" x2="397.786219937" y1="617.191408731" y2="618.31175386" /><line stroke="rgb(0%,0%,0%)" x1="401.131638552" x2="399.265348778" y1="616.22631303" y2="617.191408731" /><line stroke="rgb(0%,0%,0%)" x1="380.675661862" x2="391.091090904" y1="602.829816782" y2="600.781669215" /><line stroke="rgb(0%,0%,0%)" x1="412.137983798" x2="410.830197778" y1="655.577716558" y2="646.415677803" /><line stroke="rgb(0%,0%,0%)" x1="399.346922946" x2="411.094605649" y1="631.447029843" y2="631.070054037" /><line stroke="rgb(0%,0%,0%)" x1="413.906248499" x2="411.094605649" y1="631.071715543" y2="631.070054037" /><line stroke="rgb(0%,0%,0%)" x1="395.507796229" x2="395.984101893" y1="620.286775157" y2="619.752444268" /><line stroke="rgb(0%,0%,0%)" x1="396.451820178" x2="395.984101893" y1="619.244544559" y2="619.752444268" /><line stroke="rgb(0%,0%,0%)" x1="401.131638552" x2="404.962540501" y1="616.22631303" y2="614.331946467" /><line stroke="rgb(0%,0%,0%)" x1="407.422179121" x2="404.962540501" y1="612.89021155" y2="614.331946467" /><line stroke="rgb(0%,0%,0%)" x1="418.392283736" x2="420.360927793" y1="657.358519225" y2="657.486714038" /><line stroke="rgb(0%,0%,0%)" x1="412.137983798" x2="417.558704569" y1="655.577716558" y2="656.995313225" /><line stroke="rgb(0%,0%,0%)" x1="417.558704569" x2="418.392283736" y1="656.995313225" y2="657.358519225" /><line stroke="rgb(0%,0%,0%)" x1="410.712862969" x2="410.830197778" y1="644.697059787" y2="646.415677803" /><line stroke="rgb(0%,0%,0%)" x1="414.133471997" x2="410.712862969" y1="641.034149114" y2="644.697059787" /><line stroke="rgb(0%,0%,0%)" x1="414.133471997" x2="415.664948349" y1="641.034149114" y2="639.154762362" /><line stroke="rgb(0%,0%,0%)" x1="422.038217665" x2="415.664948349" y1="629.805388435" y2="639.154762362" /><line stroke="rgb(0%,0%,0%)" x1="413.906248499" x2="422.038217665" y1="631.071715543" y2="629.805388435" /><line stroke="rgb(0%,0%,0%)" x1="411.360733262" x2="407.422179121" y1="610.129421792" y2="612.89021155" /><line stroke="rgb(0%,0%,0%)" x1="416.341068386" x2="411.360733262" y1="607.016458721" y2="610.129421792" /><line stroke="rgb(0%,0%,0%)" x1="419.190907558" x2="416.341068386" y1="605.1076182" y2="607.016458721" /><line stroke="rgb(0%,0%,0%)" x1="337.357243946" x2="336.023627641" y1="607.931412178" y2="607.933465123" /><line stroke="rgb(0%,0%,0%)" x1="337.357243946" x2="343.279316312" y1="607.931412178" y2="607.902714807" /><line stroke="rgb(0%,0%,0%)" x1="357.879325016" x2="353.95314946" y1="606.078739555" y2="605.919999041" /><line stroke="rgb(0%,0%,0%)" x1="367.616161627" x2="370.975010535" y1="604.504934716" y2="603.652208582" /><line stroke="rgb(0%,0%,0%)" x1="357.879325016" x2="367.616161627" y1="606.078739555" y2="604.504934716" /><line stroke="rgb(0%,0%,0%)" x1="370.975010535" x2="373.314083121" y1="603.652208582" y2="603.245141315" /><line stroke="rgb(0%,0%,0%)" x1="380.675661862" x2="373.314083121" y1="602.829816782" y2="603.245141315" /><line stroke="rgb(0%,0%,0%)" x1="391.833568323" x2="392.777276683" y1="630.61930907" y2="630.798250723" /><line stroke="rgb(0%,0%,0%)" x1="391.833568323" x2="390.898948217" y1="630.61930907" y2="629.365616876" /><line stroke="rgb(0%,0%,0%)" x1="390.377060364" x2="390.898948217" y1="627.421916676" y2="629.365616876" /><line stroke="rgb(0%,0%,0%)" x1="390.314106344" x2="390.377060364" y1="626.067300922" y2="627.421916676" /><line stroke="rgb(0%,0%,0%)" x1="391.186210262" x2="390.314106344" y1="624.701459642" y2="626.067300922" /><line stroke="rgb(0%,0%,0%)" x1="392.808495194" x2="391.186210262" y1="623.436664444" y2="624.701459642" /><line stroke="rgb(0%,0%,0%)" x1="393.100354384" x2="394.815323429" y1="600.42099474" y2="600.004167282" /><line stroke="rgb(0%,0%,0%)" x1="391.091090904" x2="393.100354384" y1="600.781669215" y2="600.42099474" /><line stroke="rgb(0%,0%,0%)" x1="395.507796229" x2="395.262675122" y1="620.286775157" y2="620.98992717" /><line stroke="rgb(0%,0%,0%)" x1="327.081858699" x2="316.802944574" y1="608.929742954" y2="608.995513788" /><line stroke="rgb(0%,0%,0%)" x1="327.081858699" x2="336.023627641" y1="608.929742954" y2="607.933465123" /><line stroke="rgb(0%,0%,0%)" x1="343.279316312" x2="345.248274545" y1="607.902714807" y2="607.735709075" /><line stroke="rgb(0%,0%,0%)" x1="353.95314946" x2="345.248274545" y1="605.919999041" y2="607.735709075" /><line stroke="rgb(0%,0%,0%)" x1="289.414392137" x2="287.93893207" y1="603.894559761" y2="603.561510353" /><line stroke="rgb(0%,0%,0%)" x1="289.414392137" x2="289.615477866" y1="603.894559761" y2="603.9580575" /><line stroke="rgb(0%,0%,0%)" x1="289.928454648" x2="298.066757044" y1="603.997458997" y2="605.560808071" /><line stroke="rgb(0%,0%,0%)" x1="289.615477866" x2="289.928454648" y1="603.9580575" y2="603.997458997" /><line stroke="rgb(0%,0%,0%)" x1="315.209118712" x2="316.073705901" y1="608.831179233" y2="608.9537845" /><line stroke="rgb(0%,0%,0%)" x1="316.073705901" x2="316.802944574" y1="608.9537845" y2="608.995513788" /><line stroke="rgb(0%,0%,0%)" x1="298.066757044" x2="315.209118712" y1="605.560808071" y2="608.831179233" /><line stroke="rgb(0%,0%,0%)" x1="246.081479258" x2="242.056946686" y1="596.363286898" y2="595.000564" /><line stroke="rgb(0%,0%,0%)" x1="255.417373532" x2="259.630182425" y1="597.41814396" y2="598.333760536" /><line stroke="rgb(0%,0%,0%)" x1="246.081479258" x2="255.417373532" y1="596.363286898" y2="597.41814396" /><line stroke="rgb(0%,0%,0%)" x1="259.630182425" x2="264.442452932" y1="598.333760536" y2="598.297251372" /><line stroke="rgb(0%,0%,0%)" x1="264.442452932" x2="287.93893207" y1="598.297251372" y2="603.561510353" /><line stroke="rgb(0%,0%,0%)" x1="202.791308001" x2="207.989911908" y1="581.218794459" y2="584.581102053" /><line stroke="rgb(0%,0%,0%)" x1="215.489329244" x2="225.445026485" y1="587.284147796" y2="589.587263425" /><line stroke="rgb(0%,0%,0%)" x1="211.22002817" x2="215.489329244" y1="586.265620131" y2="587.284147796" /><line stroke="rgb(0%,0%,0%)" x1="228.831768201" x2="233.120395208" y1="591.477939861" y2="592.497107543" /><line stroke="rgb(0%,0%,0%)" x1="228.831768201" x2="225.445026485" y1="591.477939861" y2="589.587263425" /><line stroke="rgb(0%,0%,0%)" x1="233.120395208" x2="242.056946686" y1="592.497107543" y2="595.000564" /><line stroke="rgb(0%,0%,0%)" x1="180.061363732" x2="183.309503249" y1="566.611411379" y2="568.597973999" /><line stroke="rgb(0%,0%,0%)" x1="180.061363732" x2="174.806439768" y1="566.611411379" y2="563.79156668" /><line stroke="rgb(0%,0%,0%)" x1="183.309503249" x2="190.384038738" y1="568.597973999" y2="573.908948445" /><line stroke="rgb(0%,0%,0%)" x1="198.810828654" x2="202.791308001" y1="579.309597836" y2="581.218794459" /><line stroke="rgb(0%,0%,0%)" x1="198.810828654" x2="190.384038738" y1="579.309597836" y2="573.908948445" /><line stroke="rgb(0%,0%,0%)" x1="207.989911908" x2="211.22002817" y1="584.581102053" y2="586.265620131" /><line stroke="rgb(0%,0%,0%)" x1="120.111510044" x2="119.62235382" y1="522.331588175" y2="522.170647096" /><line stroke="rgb(0%,0%,0%)" x1="141.548885303" x2="141.148704393" y1="543.25696428" y2="542.946733581" /><line stroke="rgb(0%,0%,0%)" x1="129.297750293" x2="129.120352655" y1="537.033100367" y2="537.011200718" /><line stroke="rgb(0%,0%,0%)" x1="129.297750293" x2="141.148704393" y1="537.033100367" y2="542.946733581" /><line stroke="rgb(0%,0%,0%)" x1="128.95973986" x2="129.120352655" y1="536.687316342" y2="537.011200718" /><line stroke="rgb(0%,0%,0%)" x1="128.95973986" x2="128.809238948" y1="536.687316342" y2="536.53531285" /><line stroke="rgb(0%,0%,0%)" x1="125.303962686" x2="126.278143087" y1="526.797167809" y2="528.066084523" /><line stroke="rgb(0%,0%,0%)" x1="120.111510044" x2="121.021097405" y1="522.331588175" y2="522.995225963" /><line stroke="rgb(0%,0%,0%)" x1="148.750039028" x2="149.826995672" y1="546.524947111" y2="547.284555197" /><line stroke="rgb(0%,0%,0%)" x1="141.548885303" x2="145.464176192" y1="543.25696428" y2="545.20565115" /><line stroke="rgb(0%,0%,0%)" x1="145.464176192" x2="148.013061123" y1="545.20565115" y2="546.2793957" /><line stroke="rgb(0%,0%,0%)" x1="148.013061123" x2="148.750039028" y1="546.2793957" y2="546.524947111" /><line stroke="rgb(0%,0%,0%)" x1="160.701803043" x2="174.806439768" y1="554.701533645" y2="563.79156668" /><line stroke="rgb(0%,0%,0%)" x1="160.701803043" x2="149.826995672" y1="554.701533645" y2="547.284555197" /><line stroke="rgb(0%,0%,0%)" x1="101.206238369" x2="107.914038407" y1="509.525910202" y2="515.461689148" /><line stroke="rgb(0%,0%,0%)" x1="125.971531769" x2="128.809238948" y1="530.230472852" y2="536.53531285" /><line stroke="rgb(0%,0%,0%)" x1="126.278143087" x2="125.971531769" y1="528.066084523" y2="530.230472852" /><line stroke="rgb(0%,0%,0%)" x1="121.021097405" x2="125.303962686" y1="522.995225963" y2="526.797167809" /><line stroke="rgb(0%,0%,0%)" x1="116.693097854" x2="119.62235382" y1="520.82815372" y2="522.170647096" /><line stroke="rgb(0%,0%,0%)" x1="116.693097854" x2="114.597823744" y1="520.82815372" y2="520.113941802" /><line stroke="rgb(0%,0%,0%)" x1="76.6439140157" x2="73.2514845359" y1="483.894645456" y2="481.726843278" /><line stroke="rgb(0%,0%,0%)" x1="69.5793231926" x2="72.9934095602" y1="477.039012657" y2="481.369924257" /><line stroke="rgb(0%,0%,0%)" x1="69.1465380219" x2="69.5793231926" y1="475.625991972" y2="477.039012657" /><line stroke="rgb(0%,0%,0%)" x1="69.1465380219" x2="69.4960969009" y1="475.625991972" y2="473.933504942" /><line stroke="rgb(0%,0%,0%)" x1="69.4960969009" x2="69.1812920443" y1="473.933504942" y2="462.757202412" /><line stroke="rgb(0%,0%,0%)" x1="91.3557726062" x2="85.74605799" y1="498.790297316" y2="495.079162866" /><line stroke="rgb(0%,0%,0%)" x1="77.3079985389" x2="84.3285305114" y1="485.134986802" y2="493.277859004" /><line stroke="rgb(0%,0%,0%)" x1="77.3079985389" x2="76.6439140157" y1="485.134986802" y2="483.894645456" /><line stroke="rgb(0%,0%,0%)" x1="84.3285305114" x2="85.3275382079" y1="493.277859004" y2="494.603386353" /><line stroke="rgb(0%,0%,0%)" x1="107.914038407" x2="108.919229808" y1="515.461689148" y2="516.39521536" /><line stroke="rgb(0%,0%,0%)" x1="101.206238369" x2="92.5719001169" y1="509.525910202" y2="499.955030483" /><line stroke="rgb(0%,0%,0%)" x1="91.3557726062" x2="92.5719001169" y1="498.790297316" y2="499.955030483" /><line stroke="rgb(0%,0%,0%)" x1="112.708353456" x2="114.597823744" y1="518.252046617" y2="520.113941802" /><line stroke="rgb(0%,0%,0%)" x1="112.708353456" x2="108.919229808" y1="518.252046617" y2="516.39521536" /><line stroke="rgb(0%,0%,0%)" x1="73.1468525909" x2="73.2514845359" y1="481.678798502" y2="481.726843278" /><line stroke="rgb(0%,0%,0%)" x1="72.9934095602" x2="73.1468525909" y1="481.369924257" y2="481.678798502" /><line stroke="rgb(0%,0%,0%)" x1="68.9830691598" x2="69.1812920443" y1="461.158992716" y2="462.757202412" /><line stroke="rgb(0%,0%,0%)" x1="85.412023272" x2="85.74605799" y1="494.801625893" y2="495.079162866" /><line stroke="rgb(0%,0%,0%)" x1="85.3275382079" x2="85.412023272" y1="494.603386353" y2="494.801625893" /><line stroke="rgb(0%,0%,0%)" x1="68.9278603198" x2="68.9830691598" y1="460.903253421" y2="461.158992716" /><line stroke="rgb(0%,0%,0%)" x1="396.993958538" x2="394.815323429" y1="599.223091318" y2="600.004167282" /><line stroke="rgb(0%,0%,0%)" x1="396.993958538" x2="403.417141222" y1="599.223091318" y2="597.433602029" /><line stroke="rgb(0%,0%,0%)" x1="403.417141222" x2="407.063114757" y1="597.433602029" y2="595.704691091" /><line stroke="rgb(0%,0%,0%)" x1="407.063114757" x2="418.111912524" y1="595.704691091" y2="591.353875132" /><line stroke="rgb(0%,0%,0%)" x1="418.111912524" x2="420.11387802" y1="591.353875132" y2="590.467997595" /><line stroke="rgb(0%,0%,0%)" x1="420.11387802" x2="420.654227584" y1="590.467997595" y2="590.06372092" /><line stroke="rgb(0%,0%,0%)" x1="427.765182211" x2="420.654227584" y1="584.379855589" y2="590.06372092" /><line stroke="rgb(0%,0%,0%)" x1="427.765182211" x2="431.920583233" y1="584.379855589" y2="580.686518047" /><line stroke="rgb(0%,0%,0%)" x1="69.9280991599" x2="69.5677807303" y1="450.301472599" y2="455.096450599" /></svg>