<?xml version="1.0" encoding="utf-8" ?>
<svg baseProfile="full" height="100%" version="1.1" viewBox="0.5 0.5 685.793960571 941.299331665" width="100%" xmlns="http://www.w3.org/2000/svg" xmlns:ev="http://www.w3.org/2001/xml-events" xmlns:xlink="http://www.w3.org/1999/xlink"><defs /><line stroke="rgb(0%,0%,0%)" x1="594.96760848" x2="594.968728698" y1="439.862945566" y2="439.871960794" /><line stroke="rgb(0%,0%,0%)" x1="594.968728698" x2="594.968278673" y1="439.871960794" y2="439.894859434" /><line stroke="rgb(0%,0%,0%)" x1="594.96760848" x2="594.960867923" y1="439.862945566" y2="439.836954756" /><line stroke="rgb(0%,0%,0%)" x1="595.395166951" x2="595.533434536" y1="447.451033293" y2="446.56458964" /><line stroke="rgb(0%,0%,0%)" x1="595.533434536" x2="594.968278673" y1="446.56458964" y2="439.894859434" /><line stroke="rgb(0%,0%,0%)" x1="593.660365892" x2="593.97091463" y1="429.142302098" y2="433.415109921" /><line stroke="rgb(0%,0%,0%)" x1="590.892001105" x2="592.973719918" y1="422.531771708" y2="428.022196456" /><line stroke="rgb(0%,0%,0%)" x1="525.386092674" x2="524.797892836" y1="308.314505578" y2="307.734055355" /><line stroke="rgb(0%,0%,0%)" x1="524.797892836" x2="522.380470635" y1="307.734055355" y2="303.414210178" /><line stroke="rgb(0%,0%,0%)" x1="537.117990403" x2="533.035317016" y1="323.954026477" y2="318.918425533" /><line stroke="rgb(0%,0%,0%)" x1="537.117990403" x2="544.871057056" y1="323.954026477" y2="331.336954196" /><line stroke="rgb(0%,0%,0%)" x1="561.958092459" x2="560.402794003" y1="356.536277691" y2="352.590467049" /><line stroke="rgb(0%,0%,0%)" x1="564.378461814" x2="561.958092459" y1="361.600470667" y2="356.536277691" /><line stroke="rgb(0%,0%,0%)" x1="560.402794003" x2="557.147240598" y1="352.590467049" y2="348.243558821" /><line stroke="rgb(0%,0%,0%)" x1="557.147240598" x2="549.363005176" y1="348.243558821" y2="336.673785161" /><line stroke="rgb(0%,0%,0%)" x1="578.262147911" x2="575.994751903" y1="390.444404213" y2="386.566157002" /><line stroke="rgb(0%,0%,0%)" x1="575.994751903" x2="572.724919377" y1="386.566157002" y2="379.413616781" /><line stroke="rgb(0%,0%,0%)" x1="572.724919377" x2="572.205899741" y1="379.413616781" y2="378.316799643" /><line stroke="rgb(0%,0%,0%)" x1="568.353991734" x2="572.205899741" y1="370.198301793" y2="378.316799643" /><line stroke="rgb(0%,0%,0%)" x1="568.353991734" x2="567.064015793" y1="370.198301793" y2="366.882251096" /><line stroke="rgb(0%,0%,0%)" x1="564.378461814" x2="567.064015793" y1="361.600470667" y2="366.882251096" /><line stroke="rgb(0%,0%,0%)" x1="586.802611607" x2="588.776569929" y1="411.225167621" y2="417.214335985" /><line stroke="rgb(0%,0%,0%)" x1="586.802611607" x2="586.654924951" y1="411.225167621" y2="410.177674534" /><line stroke="rgb(0%,0%,0%)" x1="581.197807007" x2="585.619537617" y1="396.121289485" y2="408.139790921" /><line stroke="rgb(0%,0%,0%)" x1="581.197807007" x2="579.745302449" y1="396.121289485" y2="395.221158802" /><line stroke="rgb(0%,0%,0%)" x1="579.745302449" x2="579.728027274" y1="395.221158802" y2="394.831202474" /><line stroke="rgb(0%,0%,0%)" x1="578.262147911" x2="579.728027274" y1="390.444404213" y2="394.831202474" /><line stroke="rgb(0%,0%,0%)" x1="595.347278724" x2="595.315747731" y1="449.237129073" y2="458.159432873" /><line stroke="rgb(0%,0%,0%)" x1="595.347278724" x2="595.395166951" y1="449.237129073" y2="447.451033293" /><line stroke="rgb(0%,0%,0%)" x1="594.960867923" x2="594.13994591" y1="439.836954756" y2="435.227196663" /><line stroke="rgb(0%,0%,0%)" x1="594.13994591" x2="593.97091463" y1="435.227196663" y2="433.415109921" /><line stroke="rgb(0%,0%,0%)" x1="593.660365892" x2="592.973719918" y1="429.142302098" y2="428.022196456" /><line stroke="rgb(0%,0%,0%)" x1="590.892001105" x2="590.711680411" y1="422.531771708" y2="420.914979363" /><line stroke="rgb(0%,0%,0%)" x1="589.216518848" x2="589.434488777" y1="418.689208541" y2="418.123174778" /><line stroke="rgb(0%,0%,0%)" x1="590.711680411" x2="589.216518848" y1="420.914979363" y2="418.689208541" /><line stroke="rgb(0%,0%,0%)" x1="589.434488777" x2="588.776569929" y1="418.123174778" y2="417.214335985" /><line stroke="rgb(0%,0%,0%)" x1="488.582039261" x2="487.436366452" y1="276.429726002" y2="275.705534073" /><line stroke="rgb(0%,0%,0%)" x1="514.030446414" x2="517.374190319" y1="293.735333238" y2="296.981682512" /><line stroke="rgb(0%,0%,0%)" x1="514.030446414" x2="510.935907249" y1="293.735333238" y2="290.748848808" /><line stroke="rgb(0%,0%,0%)" x1="533.035317016" x2="525.386092674" y1="318.918425533" y2="308.314505578" /><line stroke="rgb(0%,0%,0%)" x1="549.363005176" x2="548.416077422" y1="336.673785161" y2="335.384721823" /><line stroke="rgb(0%,0%,0%)" x1="548.416077422" x2="544.871057056" y1="335.384721823" y2="331.336954196" /><line stroke="rgb(0%,0%,0%)" x1="586.654924951" x2="585.619537617" y1="410.177674534" y2="408.139790921" /><line stroke="rgb(0%,0%,0%)" x1="507.901653694" x2="500.67920697" y1="288.114276923" y2="283.113825067" /><line stroke="rgb(0%,0%,0%)" x1="497.844635136" x2="500.67920697" y1="281.211568379" y2="283.113825067" /><line stroke="rgb(0%,0%,0%)" x1="497.844635136" x2="488.582039261" y1="281.211568379" y2="276.429726002" /><line stroke="rgb(0%,0%,0%)" x1="507.901653694" x2="510.935907249" y1="288.114276923" y2="290.748848808" /><line stroke="rgb(0%,0%,0%)" x1="522.380470635" x2="519.11933894" y1="303.414210178" y2="299.183567289" /><line stroke="rgb(0%,0%,0%)" x1="519.11933894" x2="517.374190319" y1="299.183567289" y2="296.981682512" /><line stroke="rgb(0%,0%,0%)" x1="455.658048952" x2="455.498578176" y1="355.490955467" y2="355.310891078" /><line stroke="rgb(0%,0%,0%)" x1="474.760971718" x2="471.220745011" y1="381.147691201" y2="375.448549178" /><line stroke="rgb(0%,0%,0%)" x1="466.740528237" x2="471.220745011" y1="370.135340867" y2="375.448549178" /><line stroke="rgb(0%,0%,0%)" x1="473.363890742" x2="468.336630179" y1="369.383248583" y2="361.138526136" /><line stroke="rgb(0%,0%,0%)" x1="463.666382165" x2="470.163070689" y1="266.327309721" y2="268.396498819" /><line stroke="rgb(0%,0%,0%)" x1="463.666382165" x2="459.460093758" y1="266.327309721" y2="264.332911113" /><line stroke="rgb(0%,0%,0%)" x1="489.402216482" x2="488.198371845" y1="406.913283422" y2="403.856723402" /><line stroke="rgb(0%,0%,0%)" x1="488.198371845" x2="486.014380673" y1="403.856723402" y2="399.835985991" /><line stroke="rgb(0%,0%,0%)" x1="492.551724206" x2="491.639567476" y1="411.947127486" y2="411.387772038" /><line stroke="rgb(0%,0%,0%)" x1="483.612581657" x2="486.014380673" y1="395.026993847" y2="399.835985991" /><line stroke="rgb(0%,0%,0%)" x1="483.612581657" x2="482.571534334" y1="395.026993847" y2="393.703747117" /><line stroke="rgb(0%,0%,0%)" x1="482.571534334" x2="480.750625104" y1="393.703747117" y2="390.371664212" /><line stroke="rgb(0%,0%,0%)" x1="488.663453174" x2="486.837498707" y1="396.836956916" y2="391.569171198" /><line stroke="rgb(0%,0%,0%)" x1="480.750625104" x2="478.267183636" y1="390.371664212" y2="386.149945031" /><line stroke="rgb(0%,0%,0%)" x1="485.004034816" x2="486.837498707" y1="387.086503832" y2="391.569171198" /><line stroke="rgb(0%,0%,0%)" x1="484.002441455" x2="485.004034816" y1="385.267640561" y2="387.086503832" /><line stroke="rgb(0%,0%,0%)" x1="478.267183636" x2="474.760971718" y1="386.149945031" y2="381.147691201" /><line stroke="rgb(0%,0%,0%)" x1="479.671721913" x2="484.002441455" y1="379.176390484" y2="385.267640561" /><line stroke="rgb(0%,0%,0%)" x1="479.671721913" x2="473.363890742" y1="379.176390484" y2="369.383248583" /><line stroke="rgb(0%,0%,0%)" x1="487.436366452" x2="479.010168333" y1="275.705534073" y2="272.59464519" /><line stroke="rgb(0%,0%,0%)" x1="479.010168333" x2="476.507616404" y1="272.59464519" y2="270.409949011" /><line stroke="rgb(0%,0%,0%)" x1="498.958772897" x2="499.053229391" y1="458.143520364" y2="457.69090918" /><line stroke="rgb(0%,0%,0%)" x1="499.425797383" x2="499.564826975" y1="456.711262988" y2="458.139273331" /><line stroke="rgb(0%,0%,0%)" x1="499.053229391" x2="499.425797383" y1="457.69090918" y2="456.711262988" /><line stroke="rgb(0%,0%,0%)" x1="491.639567476" x2="489.402216482" y1="411.387772038" y2="406.913283422" /><line stroke="rgb(0%,0%,0%)" x1="490.325844628" x2="492.551724206" y1="402.351783172" y2="411.947127486" /><line stroke="rgb(0%,0%,0%)" x1="488.663453174" x2="490.325844628" y1="396.836956916" y2="402.351783172" /><line stroke="rgb(0%,0%,0%)" x1="419.576681668" x2="426.983366235" y1="311.460861145" y2="317.309336447" /><line stroke="rgb(0%,0%,0%)" x1="419.576681668" x2="417.692646563" y1="311.460861145" y2="310.409229441" /><line stroke="rgb(0%,0%,0%)" x1="435.681775336" x2="436.73851401" y1="325.68187969" y2="326.635816804" /><line stroke="rgb(0%,0%,0%)" x1="426.983366235" x2="435.681775336" y1="317.309336447" y2="325.68187969" /><line stroke="rgb(0%,0%,0%)" x1="447.021761119" x2="436.433343607" y1="263.948611637" y2="263.886776499" /><line stroke="rgb(0%,0%,0%)" x1="436.433343607" x2="435.372479516" y1="263.886776499" y2="263.471791728" /><line stroke="rgb(0%,0%,0%)" x1="448.805020451" x2="447.021761119" y1="263.939350593" y2="263.948611637" /><line stroke="rgb(0%,0%,0%)" x1="425.848930532" x2="432.842935417" y1="260.184512707" y2="262.771919182" /><line stroke="rgb(0%,0%,0%)" x1="448.990670074" x2="448.805020451" y1="263.902061109" y2="263.939350593" /><line stroke="rgb(0%,0%,0%)" x1="449.750666339" x2="444.118586356" y1="347.41886618" y2="344.082529857" /><line stroke="rgb(0%,0%,0%)" x1="455.498578176" x2="453.944503232" y1="355.310891078" y2="353.726951491" /><line stroke="rgb(0%,0%,0%)" x1="453.944503232" x2="449.750666339" y1="353.726951491" y2="347.41886618" /><line stroke="rgb(0%,0%,0%)" x1="444.118586356" x2="439.091606282" y1="344.082529857" y2="339.686597673" /><line stroke="rgb(0%,0%,0%)" x1="442.240539569" x2="454.21576889" y1="332.625252558" y2="342.311866884" /><line stroke="rgb(0%,0%,0%)" x1="440.899196829" x2="442.240539569" y1="331.30924425" y2="332.625252558" /><line stroke="rgb(0%,0%,0%)" x1="459.460093758" x2="450.432315061" y1="264.332911113" y2="263.953532462" /><line stroke="rgb(0%,0%,0%)" x1="448.990670074" x2="450.432315061" y1="263.902061109" y2="263.953532462" /><line stroke="rgb(0%,0%,0%)" x1="461.555421613" x2="456.349547273" y1="363.333488163" y2="356.398937582" /><line stroke="rgb(0%,0%,0%)" x1="455.658048952" x2="456.349547273" y1="355.490955467" y2="356.398937582" /><line stroke="rgb(0%,0%,0%)" x1="457.555375238" x2="464.312261265" y1="345.449649466" y2="354.541255597" /><line stroke="rgb(0%,0%,0%)" x1="455.804600431" x2="457.555375238" y1="343.560682728" y2="345.449649466" /><line stroke="rgb(0%,0%,0%)" x1="454.21576889" x2="455.804600431" y1="342.311866884" y2="343.560682728" /><line stroke="rgb(0%,0%,0%)" x1="466.740528237" x2="464.920230889" y1="370.135340867" y2="367.741540418" /><line stroke="rgb(0%,0%,0%)" x1="464.920230889" x2="461.555421613" y1="367.741540418" y2="363.333488163" /><line stroke="rgb(0%,0%,0%)" x1="464.312261265" x2="468.336630179" y1="354.541255597" y2="361.138526136" /><line stroke="rgb(0%,0%,0%)" x1="476.507616404" x2="470.163070689" y1="270.409949011" y2="268.396498819" /><line stroke="rgb(0%,0%,0%)" x1="381.72181953" x2="380.874014226" y1="314.653860892" y2="314.468468623" /><line stroke="rgb(0%,0%,0%)" x1="381.72181953" x2="385.096900113" y1="314.653860892" y2="315.10447755" /><line stroke="rgb(0%,0%,0%)" x1="407.03397625" x2="403.816366652" y1="304.225572471" y2="303.003147434" /><line stroke="rgb(0%,0%,0%)" x1="409.281016924" x2="404.490259626" y1="285.225640246" y2="284.922381593" /><line stroke="rgb(0%,0%,0%)" x1="399.414580036" x2="404.490259626" y1="284.22648179" y2="284.922381593" /><line stroke="rgb(0%,0%,0%)" x1="391.472891103" x2="399.414580036" y1="285.460185513" y2="284.22648179" /><line stroke="rgb(0%,0%,0%)" x1="406.233748629" x2="407.925507884" y1="276.038210188" y2="277.842256349" /><line stroke="rgb(0%,0%,0%)" x1="406.233748629" x2="402.467557486" y1="276.038210188" y2="272.735389821" /><line stroke="rgb(0%,0%,0%)" x1="401.317667278" x2="402.467557486" y1="270.040775696" y2="272.735389821" /><line stroke="rgb(0%,0%,0%)" x1="401.317667278" x2="400.268528063" y1="270.040775696" y2="265.174026421" /><line stroke="rgb(0%,0%,0%)" x1="401.797284486" x2="406.66793998" y1="261.988432664" y2="257.824244562" /><line stroke="rgb(0%,0%,0%)" x1="404.688703488" x2="406.194999265" y1="319.691358302" y2="320.532858632" /><line stroke="rgb(0%,0%,0%)" x1="404.688703488" x2="404.205022723" y1="319.691358302" y2="319.680504117" /><line stroke="rgb(0%,0%,0%)" x1="404.205022723" x2="399.45449921" y1="319.680504117" y2="317.953478951" /><line stroke="rgb(0%,0%,0%)" x1="407.03397625" x2="411.154354665" y1="304.225572471" y2="306.221055173" /><line stroke="rgb(0%,0%,0%)" x1="411.154354665" x2="415.913285345" y1="306.221055173" y2="308.72984172" /><line stroke="rgb(0%,0%,0%)" x1="415.913285345" x2="417.692646563" y1="308.72984172" y2="310.409229441" /><line stroke="rgb(0%,0%,0%)" x1="411.440939139" x2="409.281016924" y1="285.055930089" y2="285.225640246" /><line stroke="rgb(0%,0%,0%)" x1="413.985918984" x2="411.440939139" y1="285.515262376" y2="285.055930089" /><line stroke="rgb(0%,0%,0%)" x1="414.421843245" x2="413.985918984" y1="285.178526217" y2="285.515262376" /><line stroke="rgb(0%,0%,0%)" x1="407.925507884" x2="414.421843245" y1="277.842256349" y2="285.178526217" /><line stroke="rgb(0%,0%,0%)" x1="401.797284486" x2="400.268528063" y1="261.988432664" y2="265.174026421" /><line stroke="rgb(0%,0%,0%)" x1="409.187640564" x2="406.66793998" y1="257.847476593" y2="257.824244562" /><line stroke="rgb(0%,0%,0%)" x1="425.848930532" x2="409.187640564" y1="260.184512707" y2="257.847476593" /><line stroke="rgb(0%,0%,0%)" x1="426.429544963" x2="424.07477626" y1="330.269306827" y2="328.500517186" /><line stroke="rgb(0%,0%,0%)" x1="424.07477626" x2="422.497367035" y1="328.500517186" y2="327.629325452" /><line stroke="rgb(0%,0%,0%)" x1="406.194999265" x2="413.010602369" y1="320.532858632" y2="323.356598779" /><line stroke="rgb(0%,0%,0%)" x1="422.497367035" x2="413.010602369" y1="327.629325452" y2="323.356598779" /><line stroke="rgb(0%,0%,0%)" x1="431.115165078" x2="439.091606282" y1="334.057371022" y2="339.686597673" /><line stroke="rgb(0%,0%,0%)" x1="431.115165078" x2="426.429544963" y1="334.057371022" y2="330.269306827" /><line stroke="rgb(0%,0%,0%)" x1="439.620918618" x2="436.73851401" y1="329.991697725" y2="326.635816804" /><line stroke="rgb(0%,0%,0%)" x1="439.620918618" x2="440.899196829" y1="329.991697725" y2="331.30924425" /><line stroke="rgb(0%,0%,0%)" x1="435.372479516" x2="432.842935417" y1="263.471791728" y2="262.771919182" /><line stroke="rgb(0%,0%,0%)" x1="379.372798088" x2="380.874014226" y1="314.341143724" y2="314.468468623" /><line stroke="rgb(0%,0%,0%)" x1="379.372798088" x2="368.397606181" y1="314.341143724" y2="313.145016979" /><line stroke="rgb(0%,0%,0%)" x1="390.199059826" x2="385.096900113" y1="315.884221676" y2="315.10447755" /><line stroke="rgb(0%,0%,0%)" x1="392.584081311" x2="390.199059826" y1="316.171025817" y2="315.884221676" /><line stroke="rgb(0%,0%,0%)" x1="391.369136928" x2="390.015866764" y1="296.713240259" y2="295.944153709" /><line stroke="rgb(0%,0%,0%)" x1="390.015866764" x2="388.344896832" y1="295.944153709" y2="294.439099333" /><line stroke="rgb(0%,0%,0%)" x1="387.942706935" x2="388.332957105" y1="293.575355288" y2="294.425300679" /><line stroke="rgb(0%,0%,0%)" x1="387.942706935" x2="386.966393945" y1="293.575355288" y2="292.638543622" /><line stroke="rgb(0%,0%,0%)" x1="386.462804572" x2="386.966393945" y1="291.716874916" y2="292.638543622" /><line stroke="rgb(0%,0%,0%)" x1="385.824238216" x2="386.462804572" y1="290.909567992" y2="291.716874916" /><line stroke="rgb(0%,0%,0%)" x1="385.824238216" x2="385.805549226" y1="290.909567992" y2="289.795553706" /><line stroke="rgb(0%,0%,0%)" x1="385.682211642" x2="385.805549226" y1="287.940199532" y2="289.795553706" /><line stroke="rgb(0%,0%,0%)" x1="386.047615734" x2="385.682211642" y1="287.328986182" y2="287.940199532" /><line stroke="rgb(0%,0%,0%)" x1="387.954851933" x2="386.047615734" y1="286.039450081" y2="287.328986182" /><line stroke="rgb(0%,0%,0%)" x1="387.954851933" x2="391.472891103" y1="286.039450081" y2="285.460185513" /><line stroke="rgb(0%,0%,0%)" x1="399.45449921" x2="392.584081311" y1="317.953478951" y2="316.171025817" /><line stroke="rgb(0%,0%,0%)" x1="398.832421996" x2="401.104475518" y1="300.20896217" y2="301.57080164" /><line stroke="rgb(0%,0%,0%)" x1="397.240885333" x2="398.832421996" y1="299.408760039" y2="300.20896217" /><line stroke="rgb(0%,0%,0%)" x1="394.064872843" x2="397.240885333" y1="298.352172668" y2="299.408760039" /><line stroke="rgb(0%,0%,0%)" x1="391.369136928" x2="394.064872843" y1="296.713240259" y2="298.352172668" /><line stroke="rgb(0%,0%,0%)" x1="388.336964455" x2="388.344896832" y1="294.432216436" y2="294.439099333" /><line stroke="rgb(0%,0%,0%)" x1="388.332957105" x2="388.336964455" y1="294.425300679" y2="294.432216436" /><line stroke="rgb(0%,0%,0%)" x1="401.104475518" x2="403.816366652" y1="301.57080164" y2="303.003147434" /><line stroke="rgb(0%,0%,0%)" x1="351.337918399" x2="339.787703287" y1="308.96619197" y2="306.065389668" /><line stroke="rgb(0%,0%,0%)" x1="368.397606181" x2="357.307565236" y1="313.145016979" y2="310.067760231" /><line stroke="rgb(0%,0%,0%)" x1="357.307565236" x2="351.337918399" y1="310.067760231" y2="308.96619197" /><line stroke="rgb(0%,0%,0%)" x1="284.199532477" x2="283.760617802" y1="308.659579088" y2="308.782015022" /><line stroke="rgb(0%,0%,0%)" x1="284.199532477" x2="284.256834761" y1="308.659579088" y2="308.647686642" /><line stroke="rgb(0%,0%,0%)" x1="284.256834761" x2="284.675462368" y1="308.647686642" y2="308.56803017" /><line stroke="rgb(0%,0%,0%)" x1="320.477209446" x2="309.857748574" y1="302.723637325" y2="304.286067909" /><line stroke="rgb(0%,0%,0%)" x1="309.857748574" x2="305.166736283" y1="304.286067909" y2="304.56588889" /><line stroke="rgb(0%,0%,0%)" x1="323.528654065" x2="334.451185603" y1="302.726533941" y2="304.610463017" /><line stroke="rgb(0%,0%,0%)" x1="323.528654065" x2="320.477209446" y1="302.726533941" y2="302.723637325" /><line stroke="rgb(0%,0%,0%)" x1="339.787703287" x2="337.070520902" y1="306.065389668" y2="305.323307656" /><line stroke="rgb(0%,0%,0%)" x1="337.070520902" x2="334.451185603" y1="305.323307656" y2="304.610463017" /><line stroke="rgb(0%,0%,0%)" x1="283.760617802" x2="263.69489835" y1="308.782015022" y2="313.909941941" /><line stroke="rgb(0%,0%,0%)" x1="305.166736283" x2="284.675462368" y1="304.56588889" y2="308.56803017" /><line stroke="rgb(0%,0%,0%)" x1="227.65967034" x2="228.227273028" y1="323.590604113" y2="323.213109949" /><line stroke="rgb(0%,0%,0%)" x1="228.227273028" x2="230.589411119" y1="323.213109949" y2="322.490319968" /><line stroke="rgb(0%,0%,0%)" x1="252.764253616" x2="230.589411119" y1="315.001885028" y2="322.490319968" /><line stroke="rgb(0%,0%,0%)" x1="252.764253616" x2="254.620740193" y1="315.001885028" y2="314.666614439" /><line stroke="rgb(0%,0%,0%)" x1="263.69489835" x2="254.620740193" y1="313.909941941" y2="314.666614439" /><line stroke="rgb(0%,0%,0%)" x1="203.104780414" x2="198.135044434" y1="335.077329432" y2="338.536207004" /><line stroke="rgb(0%,0%,0%)" x1="203.104780414" x2="209.384331746" y1="335.077329432" y2="330.971860358" /><line stroke="rgb(0%,0%,0%)" x1="227.65967034" x2="209.384331746" y1="323.590604113" y2="330.971860358" /><line stroke="rgb(0%,0%,0%)" x1="183.116724061" x2="180.425707306" y1="346.687648095" y2="347.822658136" /><line stroke="rgb(0%,0%,0%)" x1="183.116724061" x2="185.370164568" y1="346.687648095" y2="346.020298486" /><line stroke="rgb(0%,0%,0%)" x1="188.169609283" x2="191.728158302" y1="342.821929515" y2="341.31515118" /><line stroke="rgb(0%,0%,0%)" x1="188.169609283" x2="185.370164568" y1="342.821929515" y2="346.020298486" /><line stroke="rgb(0%,0%,0%)" x1="194.160238138" x2="191.728158302" y1="339.955707961" y2="341.31515118" /><line stroke="rgb(0%,0%,0%)" x1="198.135044434" x2="194.160238138" y1="338.536207004" y2="339.955707961" /><line stroke="rgb(0%,0%,0%)" x1="136.230843112" x2="134.515211416" y1="374.268629946" y2="374.988790322" /><line stroke="rgb(0%,0%,0%)" x1="143.59795972" x2="136.230843112" y1="371.555458587" y2="374.268629946" /><line stroke="rgb(0%,0%,0%)" x1="144.67328416" x2="143.59795972" y1="370.523035136" y2="371.555458587" /><line stroke="rgb(0%,0%,0%)" x1="150.722403762" x2="147.498748637" y1="367.166887482" y2="369.468070725" /><line stroke="rgb(0%,0%,0%)" x1="159.044677573" x2="150.722403762" y1="361.37355561" y2="367.166887482" /><line stroke="rgb(0%,0%,0%)" x1="169.002392011" x2="159.044677573" y1="353.757872209" y2="361.37355561" /><line stroke="rgb(0%,0%,0%)" x1="180.425707306" x2="169.002392011" y1="347.822658136" y2="353.757872209" /><line stroke="rgb(0%,0%,0%)" x1="99.5403558798" x2="96.400326421" y1="411.469290438" y2="414.715170547" /><line stroke="rgb(0%,0%,0%)" x1="99.5403558798" x2="103.693894764" y1="411.469290438" y2="407.57757805" /><line stroke="rgb(0%,0%,0%)" x1="112.077535022" x2="106.244650734" y1="399.635276788" y2="403.632072606" /><line stroke="rgb(0%,0%,0%)" x1="113.137851521" x2="112.077535022" y1="399.264105743" y2="399.635276788" /><line stroke="rgb(0%,0%,0%)" x1="113.137851521" x2="114.756916571" y1="399.264105743" y2="398.054699973" /><line stroke="rgb(0%,0%,0%)" x1="122.797535562" x2="124.267155693" y1="392.042979126" y2="389.953803005" /><line stroke="rgb(0%,0%,0%)" x1="130.955714481" x2="126.018563479" y1="377.463903441" y2="380.514717321" /><line stroke="rgb(0%,0%,0%)" x1="134.515211416" x2="130.955714481" y1="374.988790322" y2="377.463903441" /><line stroke="rgb(0%,0%,0%)" x1="147.498748637" x2="144.67328416" y1="369.468070725" y2="370.523035136" /><line stroke="rgb(0%,0%,0%)" x1="78.3308608173" x2="83.7048148413" y1="435.26073387" y2="429.97445703" /><line stroke="rgb(0%,0%,0%)" x1="90.8979771396" x2="84.9026333707" y1="423.348726987" y2="428.892996697" /><line stroke="rgb(0%,0%,0%)" x1="90.8979771396" x2="91.6596702883" y1="423.348726987" y2="422.871310679" /><line stroke="rgb(0%,0%,0%)" x1="96.400326421" x2="91.6596702883" y1="414.715170547" y2="422.871310679" /><line stroke="rgb(0%,0%,0%)" x1="106.244650734" x2="103.693894764" y1="403.632072606" y2="407.57757805" /><line stroke="rgb(0%,0%,0%)" x1="122.797535562" x2="114.756916571" y1="392.042979126" y2="398.054699973" /><line stroke="rgb(0%,0%,0%)" x1="124.149800943" x2="124.267155693" y1="389.707444947" y2="389.953803005" /><line stroke="rgb(0%,0%,0%)" x1="124.282973837" x2="124.149800943" y1="389.388591936" y2="389.707444947" /><line stroke="rgb(0%,0%,0%)" x1="125.441238506" x2="124.282973837" y1="381.127613728" y2="389.388591936" /><line stroke="rgb(0%,0%,0%)" x1="126.018563479" x2="125.441238506" y1="380.514717321" y2="381.127613728" /><line stroke="rgb(0%,0%,0%)" x1="69.3568184108" x2="69.7279330809" y1="453.592181578" y2="448.554743628" /><line stroke="rgb(0%,0%,0%)" x1="71.0608556945" x2="69.7279330809" y1="445.838000428" y2="448.554743628" /><line stroke="rgb(0%,0%,0%)" x1="78.3308608173" x2="71.0608556945" y1="435.26073387" y2="445.838000428" /><line stroke="rgb(0%,0%,0%)" x1="83.8925582364" x2="83.7048148413" y1="429.723481914" y2="429.97445703" /><line stroke="rgb(0%,0%,0%)" x1="83.9153116619" x2="83.8925582364" y1="429.6870834" y2="429.723481914" /><line stroke="rgb(0%,0%,0%)" x1="84.01961808" x2="83.9153116619" y1="429.534147259" y2="429.6870834" /><line stroke="rgb(0%,0%,0%)" x1="84.9026333707" x2="84.01961808" y1="428.892996697" y2="429.534147259" /><line stroke="rgb(0%,0%,0%)" x1="69.3568184108" x2="67.3301932409" y1="453.592181578" y2="460.926864651" /><line stroke="rgb(0%,0%,0%)" x1="538.543907009" x2="538.155453424" y1="589.398093809" y2="589.897729472" /><line stroke="rgb(0%,0%,0%)" x1="538.543907009" x2="538.815577878" y1="589.398093809" y2="589.007974682" /><line stroke="rgb(0%,0%,0%)" x1="589.159742701" x2="591.563501797" y1="493.895453406" y2="487.606186465" /><line stroke="rgb(0%,0%,0%)" x1="538.155453424" x2="536.740258565" y1="589.897729472" y2="591.803781513" /><line stroke="rgb(0%,0%,0%)" x1="538.815577878" x2="541.187389069" y1="589.007974682" y2="586.680779346" /><line stroke="rgb(0%,0%,0%)" x1="553.634688972" x2="550.336510796" y1="569.476628863" y2="574.98069374" /><line stroke="rgb(0%,0%,0%)" x1="553.634688972" x2="559.289693831" y1="569.476628863" y2="564.245867301" /><line stroke="rgb(0%,0%,0%)" x1="566.5538639" x2="560.810304116" y1="550.538836058" y2="562.226341467" /><line stroke="rgb(0%,0%,0%)" x1="573.767763573" x2="573.330888869" y1="536.403022343" y2="537.81956846" /><line stroke="rgb(0%,0%,0%)" x1="566.5538639" x2="573.330888869" y1="550.538836058" y2="537.81956846" /><line stroke="rgb(0%,0%,0%)" x1="573.851045617" x2="573.767763573" y1="536.222428915" y2="536.403022343" /><line stroke="rgb(0%,0%,0%)" x1="573.851045617" x2="574.378357022" y1="536.222428915" y2="534.977749515" /><line stroke="rgb(0%,0%,0%)" x1="574.378357022" x2="575.681204825" y1="534.977749515" y2="529.918123299" /><line stroke="rgb(0%,0%,0%)" x1="575.681204825" x2="576.472985859" y1="529.918123299" y2="528.903074883" /><line stroke="rgb(0%,0%,0%)" x1="576.472985859" x2="578.093510047" y1="528.903074883" y2="525.391603374" /><line stroke="rgb(0%,0%,0%)" x1="578.093510047" x2="578.764972485" y1="525.391603374" y2="523.336090472" /><line stroke="rgb(0%,0%,0%)" x1="580.173094261" x2="578.764972485" y1="517.059348771" y2="523.336090472" /><line stroke="rgb(0%,0%,0%)" x1="580.173094261" x2="581.371679981" y1="517.059348771" y2="515.172207559" /><line stroke="rgb(0%,0%,0%)" x1="582.527843312" x2="581.371679981" y1="512.930652093" y2="515.172207559" /><line stroke="rgb(0%,0%,0%)" x1="582.527843312" x2="582.707663269" y1="512.930652093" y2="509.900741129" /><line stroke="rgb(0%,0%,0%)" x1="582.707663269" x2="584.414436834" y1="509.900741129" y2="506.036722423" /><line stroke="rgb(0%,0%,0%)" x1="584.414436834" x2="585.898209621" y1="506.036722423" y2="503.337434153" /><line stroke="rgb(0%,0%,0%)" x1="585.898209621" x2="586.270068702" y1="503.337434153" y2="500.899943731" /><line stroke="rgb(0%,0%,0%)" x1="588.648659101" x2="586.270068702" y1="495.94232037" y2="500.899943731" /><line stroke="rgb(0%,0%,0%)" x1="588.648659101" x2="589.159742701" y1="495.94232037" y2="493.895453406" /><line stroke="rgb(0%,0%,0%)" x1="591.563501797" x2="592.393323357" y1="487.606186465" y2="485.934056574" /><line stroke="rgb(0%,0%,0%)" x1="592.393323357" x2="592.309496338" y1="485.934056574" y2="485.342475852" /><line stroke="rgb(0%,0%,0%)" x1="592.309496338" x2="594.557578082" y1="485.342475852" y2="476.510954094" /><line stroke="rgb(0%,0%,0%)" x1="594.557578082" x2="594.694016894" y1="476.510954094" y2="474.904300389" /><line stroke="rgb(0%,0%,0%)" x1="594.694016894" x2="594.737688553" y1="474.904300389" y2="474.540777866" /><line stroke="rgb(0%,0%,0%)" x1="594.737688553" x2="595.315984336" y1="474.540777866" y2="458.164538657" /><line stroke="rgb(0%,0%,0%)" x1="595.315984336" x2="595.315747731" y1="458.164538657" y2="458.159432873" /><line stroke="rgb(0%,0%,0%)" x1="527.014997097" x2="523.21885719" y1="603.751840672" y2="609.429980202" /><line stroke="rgb(0%,0%,0%)" x1="527.014997097" x2="536.740258565" y1="603.751840672" y2="591.803781513" /><line stroke="rgb(0%,0%,0%)" x1="541.187389069" x2="550.336510796" y1="586.680779346" y2="574.98069374" /><line stroke="rgb(0%,0%,0%)" x1="559.289693831" x2="560.810304116" y1="564.245867301" y2="562.226341467" /><line stroke="rgb(0%,0%,0%)" x1="478.064948244" x2="478.587176903" y1="642.798453297" y2="642.491678614" /><line stroke="rgb(0%,0%,0%)" x1="478.587176903" x2="485.577710322" y1="642.491678614" y2="638.696969996" /><line stroke="rgb(0%,0%,0%)" x1="486.489917527" x2="485.577710322" y1="638.02079312" y2="638.696969996" /><line stroke="rgb(0%,0%,0%)" x1="492.059983804" x2="494.03351316" y1="635.992203011" y2="634.660862556" /><line stroke="rgb(0%,0%,0%)" x1="496.490467279" x2="498.104798215" y1="495.724690226" y2="485.436275129" /><line stroke="rgb(0%,0%,0%)" x1="499.564826975" x2="499.276930911" y1="458.139273331" y2="459.69837351" /><line stroke="rgb(0%,0%,0%)" x1="494.03351316" x2="499.409183206" y1="634.660862556" y2="631.048353006" /><line stroke="rgb(0%,0%,0%)" x1="499.409183206" x2="507.347445595" y1="631.048353006" y2="626.065502928" /><line stroke="rgb(0%,0%,0%)" x1="507.347445595" x2="510.469966484" y1="626.065502928" y2="623.171757307" /><line stroke="rgb(0%,0%,0%)" x1="510.469966484" x2="517.609407672" y1="623.171757307" y2="615.855864172" /><line stroke="rgb(0%,0%,0%)" x1="517.609407672" x2="523.21885719" y1="615.855864172" y2="609.429980202" /><line stroke="rgb(0%,0%,0%)" x1="453.67777313" x2="452.589704225" y1="558.113378189" y2="559.384907818" /><line stroke="rgb(0%,0%,0%)" x1="458.298534529" x2="454.225534445" y1="564.035136499" y2="569.22684726" /><line stroke="rgb(0%,0%,0%)" x1="453.67777313" x2="455.553693683" y1="558.113378189" y2="556.535626363" /><line stroke="rgb(0%,0%,0%)" x1="458.298534529" x2="462.31828318" y1="564.035136499" y2="558.185854966" /><line stroke="rgb(0%,0%,0%)" x1="455.553693683" x2="462.579881476" y1="556.535626363" y2="548.181160883" /><line stroke="rgb(0%,0%,0%)" x1="478.064948244" x2="472.002327894" y1="642.798453297" y2="644.905308839" /><line stroke="rgb(0%,0%,0%)" x1="466.217732172" x2="467.550681317" y1="646.763381339" y2="646.342922486" /><line stroke="rgb(0%,0%,0%)" x1="467.550681317" x2="472.002327894" y1="646.342922486" y2="644.905308839" /><line stroke="rgb(0%,0%,0%)" x1="462.579881476" x2="469.556058546" y1="548.181160883" y2="538.9690724" /><line stroke="rgb(0%,0%,0%)" x1="474.607882443" x2="469.228108144" y1="541.165616131" y2="548.305555485" /><line stroke="rgb(0%,0%,0%)" x1="469.228108144" x2="468.769610213" y1="548.305555485" y2="549.017174429" /><line stroke="rgb(0%,0%,0%)" x1="474.607882443" x2="478.306346597" y1="541.165616131" y2="534.171114884" /><line stroke="rgb(0%,0%,0%)" x1="469.556058546" x2="470.127287394" y1="538.9690724" y2="533.745892056" /><line stroke="rgb(0%,0%,0%)" x1="470.127287394" x2="471.49219684" y1="533.745892056" y2="531.001933268" /><line stroke="rgb(0%,0%,0%)" x1="471.49219684" x2="473.831068153" y1="531.001933268" y2="529.130409973" /><line stroke="rgb(0%,0%,0%)" x1="473.831068153" x2="478.336070783" y1="529.130409973" y2="523.160123094" /><line stroke="rgb(0%,0%,0%)" x1="479.150191422" x2="478.336070783" y1="522.661554056" y2="523.160123094" /><line stroke="rgb(0%,0%,0%)" x1="486.489917527" x2="492.059983804" y1="638.02079312" y2="635.992203011" /><line stroke="rgb(0%,0%,0%)" x1="480.169192835" x2="478.306346597" y1="531.412237131" y2="534.171114884" /><line stroke="rgb(0%,0%,0%)" x1="480.169192835" x2="483.848113711" y1="531.412237131" y2="524.264458451" /><line stroke="rgb(0%,0%,0%)" x1="486.055361145" x2="483.848113711" y1="520.523556758" y2="524.264458451" /><line stroke="rgb(0%,0%,0%)" x1="479.150191422" x2="481.479067021" y1="522.661554056" y2="519.363553181" /><line stroke="rgb(0%,0%,0%)" x1="486.055361145" x2="491.9284896" y1="520.523556758" y2="508.800134047" /><line stroke="rgb(0%,0%,0%)" x1="481.479067021" x2="484.054133565" y1="519.363553181" y2="515.498674657" /><line stroke="rgb(0%,0%,0%)" x1="484.054133565" x2="485.519495687" y1="515.498674657" y2="510.811439277" /><line stroke="rgb(0%,0%,0%)" x1="485.519495687" x2="487.491187958" y1="510.811439277" y2="507.388092631" /><line stroke="rgb(0%,0%,0%)" x1="490.368652349" x2="487.491187958" y1="499.710291844" y2="507.388092631" /><line stroke="rgb(0%,0%,0%)" x1="492.557397859" x2="491.9284896" y1="507.656815146" y2="508.800134047" /><line stroke="rgb(0%,0%,0%)" x1="492.872517817" x2="492.557397859" y1="506.735819804" y2="507.656815146" /><line stroke="rgb(0%,0%,0%)" x1="493.654375013" x2="492.872517817" y1="504.455538874" y2="506.735819804" /><line stroke="rgb(0%,0%,0%)" x1="496.490467279" x2="493.654375013" y1="495.724690226" y2="504.455538874" /><line stroke="rgb(0%,0%,0%)" x1="490.368652349" x2="494.970505334" y1="499.710291844" y2="489.346687828" /><line stroke="rgb(0%,0%,0%)" x1="494.970505334" x2="497.775063163" y1="489.346687828" y2="485.664407906" /><line stroke="rgb(0%,0%,0%)" x1="498.131910167" x2="498.104798215" y1="485.265393663" y2="485.436275129" /><line stroke="rgb(0%,0%,0%)" x1="497.775063163" x2="498.111986916" y1="485.664407906" y2="485.093903256" /><line stroke="rgb(0%,0%,0%)" x1="498.111986916" x2="498.131910167" y1="485.093903256" y2="485.265393663" /><line stroke="rgb(0%,0%,0%)" x1="499.276930911" x2="498.958772897" y1="459.69837351" y2="458.143520364" /><line stroke="rgb(0%,0%,0%)" x1="427.761400781" x2="427.206781339" y1="656.031699996" y2="656.073863637" /><line stroke="rgb(0%,0%,0%)" x1="427.948160776" x2="427.761400781" y1="655.968528427" y2="656.031699996" /><line stroke="rgb(0%,0%,0%)" x1="418.060987244" x2="417.95510593" y1="606.788318515" y2="606.848232552" /><line stroke="rgb(0%,0%,0%)" x1="427.948160776" x2="428.005371918" y1="655.968528427" y2="655.96208059" /><line stroke="rgb(0%,0%,0%)" x1="428.005371918" x2="428.532016171" y1="655.96208059" y2="655.824765987" /><line stroke="rgb(0%,0%,0%)" x1="418.060987244" x2="420.213253315" y1="606.788318515" y2="605.021034867" /><line stroke="rgb(0%,0%,0%)" x1="434.267341301" x2="430.683204212" y1="592.726434179" y2="596.245509367" /><line stroke="rgb(0%,0%,0%)" x1="432.433043496" x2="436.013573738" y1="579.811800847" y2="576.889001008" /><line stroke="rgb(0%,0%,0%)" x1="428.532016171" x2="430.207981317" y1="655.824765987" y2="655.398267651" /><line stroke="rgb(0%,0%,0%)" x1="430.207981317" x2="444.294201162" y1="655.398267651" y2="651.570296861" /><line stroke="rgb(0%,0%,0%)" x1="444.294201162" x2="445.888173819" y1="651.570296861" y2="651.24645928" /><line stroke="rgb(0%,0%,0%)" x1="438.107025082" x2="434.267341301" y1="588.346716048" y2="592.726434179" /><line stroke="rgb(0%,0%,0%)" x1="443.589900671" x2="438.107025082" y1="582.315971912" y2="588.346716048" /><line stroke="rgb(0%,0%,0%)" x1="436.013573738" x2="445.781735598" y1="576.889001008" y2="565.897962902" /><line stroke="rgb(0%,0%,0%)" x1="447.605913196" x2="445.781735598" y1="564.138736588" y2="565.897962902" /><line stroke="rgb(0%,0%,0%)" x1="447.605913196" x2="452.589704225" y1="564.138736588" y2="559.384907818" /><line stroke="rgb(0%,0%,0%)" x1="445.888173819" x2="463.220467961" y1="651.24645928" y2="647.663792128" /><line stroke="rgb(0%,0%,0%)" x1="463.220467961" x2="466.217732172" y1="647.663792128" y2="646.763381339" /><line stroke="rgb(0%,0%,0%)" x1="454.225534445" x2="443.589900671" y1="569.22684726" y2="582.315971912" /><line stroke="rgb(0%,0%,0%)" x1="468.769610213" x2="462.31828318" y1="549.017174429" y2="558.185854966" /><line stroke="rgb(0%,0%,0%)" x1="396.866177034" x2="400.847321971" y1="630.463339507" y2="630.856493659" /><line stroke="rgb(0%,0%,0%)" x1="402.735506993" x2="399.627792807" y1="616.789423763" y2="618.961821402" /><line stroke="rgb(0%,0%,0%)" x1="402.805945794" x2="402.735506993" y1="616.736070894" y2="616.789423763" /><line stroke="rgb(0%,0%,0%)" x1="402.894821902" x2="402.805945794" y1="616.690111284" y2="616.736070894" /><line stroke="rgb(0%,0%,0%)" x1="379.789888218" x2="388.249371927" y1="603.326430312" y2="601.662910651" /><line stroke="rgb(0%,0%,0%)" x1="416.91790079" x2="416.180575808" y1="654.006294285" y2="648.840770292" /><line stroke="rgb(0%,0%,0%)" x1="400.847321971" x2="410.023275664" y1="630.856493659" y2="630.562043032" /><line stroke="rgb(0%,0%,0%)" x1="398.339046734" x2="398.538512971" y1="620.36844659" y2="620.144680677" /><line stroke="rgb(0%,0%,0%)" x1="399.627792807" x2="398.538512971" y1="618.961821402" y2="620.144680677" /><line stroke="rgb(0%,0%,0%)" x1="402.894821902" x2="403.077256408" y1="616.690111284" y2="616.599898109" /><line stroke="rgb(0%,0%,0%)" x1="408.286657835" x2="403.077256408" y1="613.546369891" y2="616.599898109" /><line stroke="rgb(0%,0%,0%)" x1="422.12559874" x2="427.206781339" y1="655.742985511" y2="656.073863637" /><line stroke="rgb(0%,0%,0%)" x1="416.91790079" x2="419.974083366" y1="654.006294285" y2="654.805530109" /><line stroke="rgb(0%,0%,0%)" x1="419.974083366" x2="422.12559874" y1="654.805530109" y2="655.742985511" /><line stroke="rgb(0%,0%,0%)" x1="416.180575808" x2="415.833428334" y1="648.840770292" y2="643.756056643" /><line stroke="rgb(0%,0%,0%)" x1="415.72712325" x2="415.833428334" y1="643.435298769" y2="643.756056643" /><line stroke="rgb(0%,0%,0%)" x1="415.84699486" x2="415.72712325" y1="643.048433684" y2="643.435298769" /><line stroke="rgb(0%,0%,0%)" x1="422.578920629" x2="415.84699486" y1="634.32348523" y2="643.048433684" /><line stroke="rgb(0%,0%,0%)" x1="410.023275664" x2="412.982749963" y1="630.562043032" y2="630.324429104" /><line stroke="rgb(0%,0%,0%)" x1="419.327104779" x2="412.982749963" y1="629.348356176" y2="630.324429104" /><line stroke="rgb(0%,0%,0%)" x1="419.327104779" x2="420.503214237" y1="629.348356176" y2="629.32206717" /><line stroke="rgb(0%,0%,0%)" x1="420.503214237" x2="426.329698477" y1="629.32206717" y2="628.252609451" /><line stroke="rgb(0%,0%,0%)" x1="416.628334287" x2="408.286657835" y1="607.699144211" y2="613.546369891" /><line stroke="rgb(0%,0%,0%)" x1="417.472219387" x2="416.628334287" y1="607.17167305" y2="607.699144211" /><line stroke="rgb(0%,0%,0%)" x1="417.95510593" x2="417.472219387" y1="606.848232552" y2="607.17167305" /><line stroke="rgb(0%,0%,0%)" x1="427.417333128" x2="420.213253315" y1="599.402819495" y2="605.021034867" /><line stroke="rgb(0%,0%,0%)" x1="424.601589184" x2="422.578920629" y1="631.989410643" y2="634.32348523" /><line stroke="rgb(0%,0%,0%)" x1="426.329698477" x2="424.601589184" y1="628.252609451" y2="631.989410643" /><line stroke="rgb(0%,0%,0%)" x1="428.562021683" x2="427.417333128" y1="598.403921796" y2="599.402819495" /><line stroke="rgb(0%,0%,0%)" x1="430.233771675" x2="428.562021683" y1="596.85507584" y2="598.403921796" /><line stroke="rgb(0%,0%,0%)" x1="430.683204212" x2="430.233771675" y1="596.245509367" y2="596.85507584" /><line stroke="rgb(0%,0%,0%)" x1="338.714329302" x2="338.402248291" y1="608.921741434" y2="608.922221846" /><line stroke="rgb(0%,0%,0%)" x1="338.714329302" x2="340.100159941" y1="608.921741434" y2="608.91502593" /><line stroke="rgb(0%,0%,0%)" x1="356.296225351" x2="353.268074451" y1="607.089619871" y2="606.967187692" /><line stroke="rgb(0%,0%,0%)" x1="363.805978829" x2="369.703665924" y1="605.875787614" y2="604.378515169" /><line stroke="rgb(0%,0%,0%)" x1="356.296225351" x2="363.805978829" y1="607.089619871" y2="605.875787614" /><line stroke="rgb(0%,0%,0%)" x1="369.703665924" x2="373.810762904" y1="604.378515169" y2="603.663759778" /><line stroke="rgb(0%,0%,0%)" x1="379.789888218" x2="373.810762904" y1="603.326430312" y2="603.663759778" /><line stroke="rgb(0%,0%,0%)" x1="395.200976256" x2="396.866177034" y1="630.147591769" y2="630.463339507" /><line stroke="rgb(0%,0%,0%)" x1="395.200976256" x2="394.907161123" y1="630.147591769" y2="629.753470419" /><line stroke="rgb(0%,0%,0%)" x1="394.907161123" x2="394.547205234" y1="629.753470419" y2="628.412863753" /><line stroke="rgb(0%,0%,0%)" x1="393.651390695" x2="394.547205234" y1="626.561389082" y2="628.412863753" /><line stroke="rgb(0%,0%,0%)" x1="394.051857247" x2="393.651390695" y1="625.199457229" y2="626.561389082" /><line stroke="rgb(0%,0%,0%)" x1="394.051857247" x2="395.591003773" y1="625.199457229" y2="622.953930115" /><line stroke="rgb(0%,0%,0%)" x1="391.340054174" x2="393.978047864" y1="601.108115221" y2="600.466944346" /><line stroke="rgb(0%,0%,0%)" x1="388.249371927" x2="391.340054174" y1="601.662910651" y2="601.108115221" /><line stroke="rgb(0%,0%,0%)" x1="395.589003239" x2="395.591003773" y1="622.859885724" y2="622.953930115" /><line stroke="rgb(0%,0%,0%)" x1="395.589003239" x2="397.843160148" y1="622.859885724" y2="621.588290543" /><line stroke="rgb(0%,0%,0%)" x1="397.949872752" x2="397.843160148" y1="621.473799797" y2="621.588290543" /><line stroke="rgb(0%,0%,0%)" x1="398.339046734" x2="397.961917013" y1="620.36844659" y2="621.450277223" /><line stroke="rgb(0%,0%,0%)" x1="397.961917013" x2="397.949872752" y1="621.450277223" y2="621.473799797" /><line stroke="rgb(0%,0%,0%)" x1="327.442473294" x2="322.192385279" y1="610.143342737" y2="610.176936039" /><line stroke="rgb(0%,0%,0%)" x1="327.442473294" x2="338.402248291" y1="610.143342737" y2="608.922221846" /><line stroke="rgb(0%,0%,0%)" x1="340.100159941" x2="346.554244562" y1="608.91502593" y2="608.367594753" /><line stroke="rgb(0%,0%,0%)" x1="353.268074451" x2="346.554244562" y1="606.967187692" y2="608.367594753" /><line stroke="rgb(0%,0%,0%)" x1="311.331972148" x2="317.223314658" y1="609.057151749" y2="609.892590481" /><line stroke="rgb(0%,0%,0%)" x1="317.223314658" x2="322.192385279" y1="609.892590481" y2="610.176936039" /><line stroke="rgb(0%,0%,0%)" x1="311.331972148" x2="291.657704315" y1="609.057151749" y2="605.303750706" /><line stroke="rgb(0%,0%,0%)" x1="243.928310114" x2="240.956632047" y1="597.580293248" y2="596.574071116" /><line stroke="rgb(0%,0%,0%)" x1="250.821849114" x2="258.022486266" y1="598.359190061" y2="599.924184558" /><line stroke="rgb(0%,0%,0%)" x1="243.928310114" x2="250.821849114" y1="597.580293248" y2="598.359190061" /><line stroke="rgb(0%,0%,0%)" x1="258.022486266" x2="266.247738033" y1="599.924184558" y2="599.861782191" /><line stroke="rgb(0%,0%,0%)" x1="266.247738033" x2="286.005763253" y1="599.861782191" y2="604.288460806" /><line stroke="rgb(0%,0%,0%)" x1="286.005763253" x2="291.657704315" y1="604.288460806" y2="605.303750706" /><line stroke="rgb(0%,0%,0%)" x1="218.713986762" x2="224.607805022" y1="590.180968207" y2="591.544423184" /><line stroke="rgb(0%,0%,0%)" x1="209.471650333" x2="218.713986762" y1="587.976022906" y2="590.180968207" /><line stroke="rgb(0%,0%,0%)" x1="226.612771594" x2="229.151658379" y1="592.663712273" y2="593.267064198" /><line stroke="rgb(0%,0%,0%)" x1="226.612771594" x2="224.607805022" y1="592.663712273" y2="591.544423184" /><line stroke="rgb(0%,0%,0%)" x1="229.151658379" x2="240.956632047" y1="593.267064198" y2="596.574071116" /><line stroke="rgb(0%,0%,0%)" x1="178.053995957" x2="178.068588266" y1="568.346479091" y2="568.35540375" /><line stroke="rgb(0%,0%,0%)" x1="178.053995957" x2="178.030388142" y1="568.346479091" y2="568.333810902" /><line stroke="rgb(0%,0%,0%)" x1="178.068588266" x2="190.245595773" y1="568.35540375" y2="577.496890961" /><line stroke="rgb(0%,0%,0%)" x1="196.272279631" x2="202.482965492" y1="581.359335241" y2="584.338227841" /><line stroke="rgb(0%,0%,0%)" x1="196.272279631" x2="190.245595773" y1="581.359335241" y2="577.496890961" /><line stroke="rgb(0%,0%,0%)" x1="202.482965492" x2="202.588399795" y1="584.338227841" y2="584.386381224" /><line stroke="rgb(0%,0%,0%)" x1="209.471650333" x2="202.588399795" y1="587.976022906" y2="584.386381224" /><line stroke="rgb(0%,0%,0%)" x1="122.575213312" x2="122.942053691" y1="527.863313903" y2="528.341141098" /><line stroke="rgb(0%,0%,0%)" x1="146.813864699" x2="151.498807775" y1="547.642723098" y2="550.947146416" /><line stroke="rgb(0%,0%,0%)" x1="143.607886487" x2="138.88258949" y1="546.574533036" y2="544.583952043" /><line stroke="rgb(0%,0%,0%)" x1="143.607886487" x2="146.813864699" y1="546.574533036" y2="547.642723098" /><line stroke="rgb(0%,0%,0%)" x1="159.161465095" x2="178.030388142" y1="556.173332247" y2="568.333810902" /><line stroke="rgb(0%,0%,0%)" x1="159.161465095" x2="151.498807775" y1="556.173332247" y2="550.947146416" /><line stroke="rgb(0%,0%,0%)" x1="100.261619232" x2="104.220903744" y1="510.619295444" y2="514.122893868" /><line stroke="rgb(0%,0%,0%)" x1="123.805005998" x2="125.187602303" y1="534.196027105" y2="537.540418382" /><line stroke="rgb(0%,0%,0%)" x1="122.517786153" x2="123.805005998" y1="531.336071989" y2="534.196027105" /><line stroke="rgb(0%,0%,0%)" x1="122.942053691" x2="122.517786153" y1="528.341141098" y2="531.336071989" /><line stroke="rgb(0%,0%,0%)" x1="122.575213312" x2="119.389392866" y1="527.863313903" y2="525.035229602" /><line stroke="rgb(0%,0%,0%)" x1="117.709368745" x2="119.389392866" y1="523.142857875" y2="525.035229602" /><line stroke="rgb(0%,0%,0%)" x1="116.274257231" x2="117.709368745" y1="522.680026528" y2="523.142857875" /><line stroke="rgb(0%,0%,0%)" x1="114.148893819" x2="116.274257231" y1="521.705961327" y2="522.680026528" /><line stroke="rgb(0%,0%,0%)" x1="114.148893819" x2="113.347779784" y1="521.705961327" y2="521.432887179" /><line stroke="rgb(0%,0%,0%)" x1="127.811904998" x2="129.626594989" y1="539.53918655" y2="539.803560444" /><line stroke="rgb(0%,0%,0%)" x1="129.626594989" x2="138.88258949" y1="539.803560444" y2="544.583952043" /><line stroke="rgb(0%,0%,0%)" x1="75.4720939843" x2="74.8856229393" y1="483.897655736" y2="483.522893868" /><line stroke="rgb(0%,0%,0%)" x1="69.1539964377" x2="69.5667455683" y1="475.643269496" y2="476.166859062" /><line stroke="rgb(0%,0%,0%)" x1="69.1016744741" x2="69.1539964377" y1="475.472441053" y2="475.643269496" /><line stroke="rgb(0%,0%,0%)" x1="69.1016744741" x2="69.1439347182" y1="475.472441053" y2="475.267826267" /><line stroke="rgb(0%,0%,0%)" x1="69.1439347182" x2="69.1058760938" y1="475.267826267" y2="473.916656832" /><line stroke="rgb(0%,0%,0%)" x1="89.6741969425" x2="86.115929208" y1="499.711131899" y2="497.357142281" /><line stroke="rgb(0%,0%,0%)" x1="75.5868985356" x2="76.8005829311" y1="484.112081501" y2="485.519792051" /><line stroke="rgb(0%,0%,0%)" x1="75.5868985356" x2="75.4720939843" y1="484.112081501" y2="483.897655736" /><line stroke="rgb(0%,0%,0%)" x1="76.8005829311" x2="83.3656074308" y1="485.519792051" y2="494.230555292" /><line stroke="rgb(0%,0%,0%)" x1="104.220903744" x2="106.500940966" y1="514.122893868" y2="516.240375682" /><line stroke="rgb(0%,0%,0%)" x1="100.261619232" x2="95.1651939501" y1="510.619295444" y2="504.970075787" /><line stroke="rgb(0%,0%,0%)" x1="89.6741969425" x2="95.1651939501" y1="499.711131899" y2="504.970075787" /><line stroke="rgb(0%,0%,0%)" x1="109.63884658" x2="113.347779784" y1="517.778082489" y2="521.432887179" /><line stroke="rgb(0%,0%,0%)" x1="109.63884658" x2="106.500940966" y1="517.778082489" y2="516.240375682" /><line stroke="rgb(0%,0%,0%)" x1="125.187602303" x2="127.811904998" y1="537.540418382" y2="539.53918655" /><line stroke="rgb(0%,0%,0%)" x1="72.7291779632" x2="74.8856229393" y1="482.532699954" y2="483.522893868" /><line stroke="rgb(0%,0%,0%)" x1="69.5667455683" x2="72.7291779632" y1="476.166859062" y2="482.532699954" /><line stroke="rgb(0%,0%,0%)" x1="67.7170169137" x2="69.1058760938" y1="462.718715616" y2="473.916656832" /><line stroke="rgb(0%,0%,0%)" x1="83.920804871" x2="86.115929208" y1="495.533295439" y2="497.357142281" /><line stroke="rgb(0%,0%,0%)" x1="83.3656074308" x2="83.920804871" y1="494.230555292" y2="495.533295439" /><line stroke="rgb(0%,0%,0%)" x1="67.3301932409" x2="67.7170169137" y1="460.926864651" y2="462.718715616" /><line stroke="rgb(0%,0%,0%)" x1="395.0876816" x2="393.978047864" y1="600.069122684" y2="600.466944346" /><line stroke="rgb(0%,0%,0%)" x1="395.0876816" x2="402.924264737" y1="600.069122684" y2="597.885862099" /><line stroke="rgb(0%,0%,0%)" x1="402.924264737" x2="404.468822584" y1="597.885862099" y2="597.153436883" /><line stroke="rgb(0%,0%,0%)" x1="404.468822584" x2="409.149467443" y1="597.153436883" y2="595.310283919" /><line stroke="rgb(0%,0%,0%)" x1="409.149467443" x2="418.792937392" y1="595.310283919" y2="591.043010867" /><line stroke="rgb(0%,0%,0%)" x1="418.792937392" x2="421.395801825" y1="591.043010867" y2="589.095609687" /><line stroke="rgb(0%,0%,0%)" x1="427.27488966" x2="421.395801825" y1="584.396389219" y2="589.095609687" /><line stroke="rgb(0%,0%,0%)" x1="427.27488966" x2="432.433043496" y1="584.396389219" y2="579.811800847" /></svg>