<?xml version="1.0" encoding="utf-8" ?>
<svg baseProfile="full" height="100%" version="1.1" viewBox="0.5 0.5 685.793960571 941.299331665" width="100%" xmlns="http://www.w3.org/2000/svg" xmlns:ev="http://www.w3.org/2001/xml-events" xmlns:xlink="http://www.w3.org/1999/xlink"><defs /><line stroke="rgb(0%,0%,0%)" x1="594.654825882" x2="594.833653262" y1="447.396684661" y2="446.250209178" /><line stroke="rgb(0%,0%,0%)" x1="594.833653262" x2="594.302462479" y1="446.250209178" y2="439.981320469" /><line stroke="rgb(0%,0%,0%)" x1="593.010341047" x2="593.296315277" y1="429.203862477" y2="433.138552198" /><line stroke="rgb(0%,0%,0%)" x1="590.246008509" x2="592.232784496" y1="422.695439053" y2="427.935457052" /><line stroke="rgb(0%,0%,0%)" x1="525.037458559" x2="524.634986274" y1="308.316642685" y2="307.91947303" /><line stroke="rgb(0%,0%,0%)" x1="524.634986274" x2="522.980879334" y1="307.91947303" y2="304.963644343" /><line stroke="rgb(0%,0%,0%)" x1="536.441794198" x2="533.12639487" y1="323.619363044" y2="319.53012386" /><line stroke="rgb(0%,0%,0%)" x1="536.441794198" x2="542.737794281" y1="323.619363044" y2="329.614785966" /><line stroke="rgb(0%,0%,0%)" x1="561.321693949" x2="560.206864922" y1="355.894257297" y2="353.065922826" /><line stroke="rgb(0%,0%,0%)" x1="564.050195414" x2="561.321693949" y1="361.603161984" y2="355.894257297" /><line stroke="rgb(0%,0%,0%)" x1="560.206864922" x2="556.512970207" y1="353.065922826" y2="348.133728715" /><line stroke="rgb(0%,0%,0%)" x1="556.512970207" x2="549.294079752" y1="348.133728715" y2="337.404231968" /><line stroke="rgb(0%,0%,0%)" x1="577.834113776" x2="575.785789394" y1="390.684495272" y2="387.180957163" /><line stroke="rgb(0%,0%,0%)" x1="575.785789394" x2="572.021276402" y1="387.180957163" y2="378.946336467" /><line stroke="rgb(0%,0%,0%)" x1="572.021276402" x2="571.553614363" y1="378.946336467" y2="377.958050663" /><line stroke="rgb(0%,0%,0%)" x1="568.082857143" x2="571.553614363" y1="370.642887636" y2="377.958050663" /><line stroke="rgb(0%,0%,0%)" x1="568.082857143" x2="566.247202212" y1="370.642887636" y2="365.924098222" /><line stroke="rgb(0%,0%,0%)" x1="564.050195414" x2="566.247202212" y1="361.603161984" y2="365.924098222" /><line stroke="rgb(0%,0%,0%)" x1="586.205540984" x2="588.080429914" y1="411.278977648" y2="416.967560501" /><line stroke="rgb(0%,0%,0%)" x1="586.205540984" x2="586.025664623" y1="411.278977648" y2="410.003173519" /><line stroke="rgb(0%,0%,0%)" x1="580.5647147" x2="584.764604809" y1="396.105586834" y2="407.521113866" /><line stroke="rgb(0%,0%,0%)" x1="580.5647147" x2="579.185083044" y1="396.105586834" y2="395.250616171" /><line stroke="rgb(0%,0%,0%)" x1="579.185083044" x2="579.158362575" y1="395.250616171" y2="394.647449165" /><line stroke="rgb(0%,0%,0%)" x1="577.834113776" x2="579.158362575" y1="390.684495272" y2="394.647449165" /><line stroke="rgb(0%,0%,0%)" x1="594.59288999" x2="594.562952274" y1="449.706718712" y2="458.178173949" /><line stroke="rgb(0%,0%,0%)" x1="594.59288999" x2="594.654825882" y1="449.706718712" y2="447.396684661" /><line stroke="rgb(0%,0%,0%)" x1="593.529985911" x2="594.302462479" y1="435.64360013" y2="439.981320469" /><line stroke="rgb(0%,0%,0%)" x1="593.529985911" x2="593.296315277" y1="435.64360013" y2="433.138552198" /><line stroke="rgb(0%,0%,0%)" x1="593.010341047" x2="592.232784496" y1="429.203862477" y2="427.935457052" /><line stroke="rgb(0%,0%,0%)" x1="590.246008509" x2="590.046070652" y1="422.695439053" y2="420.902755194" /><line stroke="rgb(0%,0%,0%)" x1="588.621843725" x2="588.890083799" y1="418.782581152" y2="418.086003699" /><line stroke="rgb(0%,0%,0%)" x1="590.046070652" x2="588.621843725" y1="420.902755194" y2="418.782581152" /><line stroke="rgb(0%,0%,0%)" x1="588.890083799" x2="588.080429914" y1="418.086003699" y2="416.967560501" /><line stroke="rgb(0%,0%,0%)" x1="487.677652071" x2="487.032267865" y1="276.452243988" y2="276.044289788" /><line stroke="rgb(0%,0%,0%)" x1="513.958986575" x2="516.583959112" y1="294.195781244" y2="296.744295105" /><line stroke="rgb(0%,0%,0%)" x1="513.958986575" x2="510.385341256" y1="294.195781244" y2="290.746920029" /><line stroke="rgb(0%,0%,0%)" x1="533.12639487" x2="525.037458559" y1="319.53012386" y2="308.316642685" /><line stroke="rgb(0%,0%,0%)" x1="549.294079752" x2="547.911978154" y1="337.404231968" y2="335.522761611" /><line stroke="rgb(0%,0%,0%)" x1="547.911978154" x2="542.737794281" y1="335.522761611" y2="329.614785966" /><line stroke="rgb(0%,0%,0%)" x1="586.025664623" x2="584.764604809" y1="410.003173519" y2="407.521113866" /><line stroke="rgb(0%,0%,0%)" x1="507.966178447" x2="499.778290457" y1="288.646417152" y2="282.977543256" /><line stroke="rgb(0%,0%,0%)" x1="497.980874248" x2="499.778290457" y1="281.771312755" y2="282.977543256" /><line stroke="rgb(0%,0%,0%)" x1="497.980874248" x2="487.677652071" y1="281.771312755" y2="276.452243988" /><line stroke="rgb(0%,0%,0%)" x1="507.966178447" x2="510.385341256" y1="288.646417152" y2="290.746920029" /><line stroke="rgb(0%,0%,0%)" x1="522.980879334" x2="518.813873499" y1="304.963644343" y2="299.557817394" /><line stroke="rgb(0%,0%,0%)" x1="518.813873499" x2="516.583959112" y1="299.557817394" y2="296.744295105" /><line stroke="rgb(0%,0%,0%)" x1="473.814087509" x2="471.060579181" y1="380.264266545" y2="375.831602674" /><line stroke="rgb(0%,0%,0%)" x1="467.575967823" x2="471.060579181" y1="371.699109322" y2="375.831602674" /><line stroke="rgb(0%,0%,0%)" x1="473.515946581" x2="470.729970301" y1="369.346292011" y2="364.77728253" /><line stroke="rgb(0%,0%,0%)" x1="462.385273938" x2="465.533197668" y1="266.64897047" y2="267.651581175" /><line stroke="rgb(0%,0%,0%)" x1="462.385273938" x2="460.347147124" y1="266.64897047" y2="265.682598959" /><line stroke="rgb(0%,0%,0%)" x1="490.128782831" x2="487.579832409" y1="409.709978288" y2="403.238196371" /><line stroke="rgb(0%,0%,0%)" x1="487.579832409" x2="483.218864058" y1="403.238196371" y2="395.209634339" /><line stroke="rgb(0%,0%,0%)" x1="494.869665245" x2="494.866019335" y1="419.18623527" y2="419.183999514" /><line stroke="rgb(0%,0%,0%)" x1="483.218864058" x2="483.159949619" y1="395.209634339" y2="395.085102973" /><line stroke="rgb(0%,0%,0%)" x1="480.862950807" x2="483.159949619" y1="390.881823452" y2="395.085102973" /><line stroke="rgb(0%,0%,0%)" x1="489.087439001" x2="488.171722138" y1="396.715984589" y2="394.074188038" /><line stroke="rgb(0%,0%,0%)" x1="480.862950807" x2="478.809764344" y1="390.881823452" y2="387.391515032" /><line stroke="rgb(0%,0%,0%)" x1="485.316244595" x2="488.171722138" y1="387.092781936" y2="394.074188038" /><line stroke="rgb(0%,0%,0%)" x1="483.756340763" x2="485.316244595" y1="384.260043724" y2="387.092781936" /><line stroke="rgb(0%,0%,0%)" x1="478.809764344" x2="473.814087509" y1="387.391515032" y2="380.264266545" /><line stroke="rgb(0%,0%,0%)" x1="477.01158159" x2="483.756340763" y1="374.773395044" y2="384.260043724" /><line stroke="rgb(0%,0%,0%)" x1="477.01158159" x2="473.515946581" y1="374.773395044" y2="369.346292011" /><line stroke="rgb(0%,0%,0%)" x1="487.032267865" x2="477.652446194" y1="276.044289788" y2="272.581330272" /><line stroke="rgb(0%,0%,0%)" x1="477.652446194" x2="475.702088148" y1="272.581330272" y2="270.878692368" /><line stroke="rgb(0%,0%,0%)" x1="498.577429304" x2="498.867450293" y1="458.174978199" y2="456.785272332" /><line stroke="rgb(0%,0%,0%)" x1="500.011390042" x2="500.438269109" y1="453.777348291" y2="458.161938029" /><line stroke="rgb(0%,0%,0%)" x1="498.867450293" x2="500.011390042" y1="456.785272332" y2="453.777348291" /><line stroke="rgb(0%,0%,0%)" x1="494.866019335" x2="490.128782831" y1="419.183999514" y2="409.709978288" /><line stroke="rgb(0%,0%,0%)" x1="491.559572095" x2="494.869665245" y1="404.917052066" y2="419.18623527" /><line stroke="rgb(0%,0%,0%)" x1="489.087439001" x2="491.559572095" y1="396.715984589" y2="404.917052066" /><line stroke="rgb(0%,0%,0%)" x1="419.08928995" x2="426.889759185" y1="310.854849653" y2="317.014265686" /><line stroke="rgb(0%,0%,0%)" x1="419.08928995" x2="417.940633656" y1="310.854849653" y2="310.21369208" /><line stroke="rgb(0%,0%,0%)" x1="433.481006381" x2="435.829630494" y1="323.35858699" y2="325.478732455" /><line stroke="rgb(0%,0%,0%)" x1="426.889759185" x2="433.481006381" y1="317.014265686" y2="323.35858699" /><line stroke="rgb(0%,0%,0%)" x1="437.281208041" x2="446.981213287" y1="264.722221357" y2="264.77886827" /><line stroke="rgb(0%,0%,0%)" x1="437.281208041" x2="434.549617166" y1="264.722221357" y2="263.653688052" /><line stroke="rgb(0%,0%,0%)" x1="424.081892877" x2="428.036361" y1="260.388663764" y2="261.851604754" /><line stroke="rgb(0%,0%,0%)" x1="449.412011526" x2="442.624869891" y1="347.189483038" y2="343.168910312" /><line stroke="rgb(0%,0%,0%)" x1="454.46594632" x2="455.771320748" y1="354.791269337" y2="356.121729133" /><line stroke="rgb(0%,0%,0%)" x1="454.46594632" x2="449.412011526" y1="354.791269337" y2="347.189483038" /><line stroke="rgb(0%,0%,0%)" x1="442.624869891" x2="439.520970067" y1="343.168910312" y2="340.454649875" /><line stroke="rgb(0%,0%,0%)" x1="442.926549531" x2="452.934761056" y1="332.983185328" y2="341.078703378" /><line stroke="rgb(0%,0%,0%)" x1="440.483914678" x2="442.926549531" y1="330.586685415" y2="332.983185328" /><line stroke="rgb(0%,0%,0%)" x1="454.976641043" x2="448.594709398" y1="265.45691162" y2="264.952364526" /><line stroke="rgb(0%,0%,0%)" x1="448.594709398" x2="446.981213287" y1="264.952364526" y2="264.77886827" /><line stroke="rgb(0%,0%,0%)" x1="460.347147124" x2="454.976641043" y1="265.682598959" y2="265.45691162" /><line stroke="rgb(0%,0%,0%)" x1="460.311818899" x2="455.771320748" y1="362.169956967" y2="356.121729133" /><line stroke="rgb(0%,0%,0%)" x1="459.485595198" x2="462.513563094" y1="347.233648343" y2="351.307875934" /><line stroke="rgb(0%,0%,0%)" x1="456.051347508" x2="459.485595198" y1="343.528329058" y2="347.233648343" /><line stroke="rgb(0%,0%,0%)" x1="452.934761056" x2="456.051347508" y1="341.078703378" y2="343.528329058" /><line stroke="rgb(0%,0%,0%)" x1="467.575967823" x2="465.025796345" y1="371.699109322" y2="368.345480514" /><line stroke="rgb(0%,0%,0%)" x1="465.025796345" x2="460.311818899" y1="368.345480514" y2="362.169956967" /><line stroke="rgb(0%,0%,0%)" x1="462.513563094" x2="470.729970301" y1="351.307875934" y2="364.77728253" /><line stroke="rgb(0%,0%,0%)" x1="475.702088148" x2="465.533197668" y1="270.878692368" y2="267.651581175" /><line stroke="rgb(0%,0%,0%)" x1="407.523416419" x2="405.541913324" y1="303.937345229" y2="303.184538241" /><line stroke="rgb(0%,0%,0%)" x1="408.440340024" x2="399.981250294" y1="285.92882536" y2="285.39335842" /><line stroke="rgb(0%,0%,0%)" x1="396.792430701" x2="399.981250294" y1="284.956156092" y2="285.39335842" /><line stroke="rgb(0%,0%,0%)" x1="391.803027247" x2="396.792430701" y1="285.731236264" y2="284.956156092" /><line stroke="rgb(0%,0%,0%)" x1="407.348623579" x2="408.257527282" y1="275.386716494" y2="276.35594674" /><line stroke="rgb(0%,0%,0%)" x1="407.348623579" x2="405.325223931" y1="275.386716494" y2="273.612264452" /><line stroke="rgb(0%,0%,0%)" x1="403.78407786" x2="405.325223931" y1="270.00079447" y2="273.612264452" /><line stroke="rgb(0%,0%,0%)" x1="403.78407786" x2="403.058945627" y1="270.00079447" y2="266.637049488" /><line stroke="rgb(0%,0%,0%)" x1="405.619964771" x2="408.300587635" y1="261.300446173" y2="259.008635994" /><line stroke="rgb(0%,0%,0%)" x1="404.003894476" x2="404.476375967" y1="319.290523036" y2="319.554477391" /><line stroke="rgb(0%,0%,0%)" x1="404.003894476" x2="403.852177786" y1="319.290523036" y2="319.287118391" /><line stroke="rgb(0%,0%,0%)" x1="403.852177786" x2="402.362075729" y1="319.287118391" y2="318.745400464" /><line stroke="rgb(0%,0%,0%)" x1="407.523416419" x2="410.060872356" y1="303.937345229" y2="305.16622494" /><line stroke="rgb(0%,0%,0%)" x1="410.060872356" x2="415.796198705" y1="305.16622494" y2="308.189742311" /><line stroke="rgb(0%,0%,0%)" x1="415.796198705" x2="417.940633656" y1="308.189742311" y2="310.21369208" /><line stroke="rgb(0%,0%,0%)" x1="412.254137027" x2="408.440340024" y1="285.62916638" y2="285.92882536" /><line stroke="rgb(0%,0%,0%)" x1="416.747834271" x2="412.254137027" y1="286.440214153" y2="285.62916638" /><line stroke="rgb(0%,0%,0%)" x1="417.008760248" x2="416.747834271" y1="286.238658013" y2="286.440214153" /><line stroke="rgb(0%,0%,0%)" x1="408.257527282" x2="417.008760248" y1="276.35594674" y2="286.238658013" /><line stroke="rgb(0%,0%,0%)" x1="405.619964771" x2="403.058945627" y1="261.300446173" y2="266.637049488" /><line stroke="rgb(0%,0%,0%)" x1="414.661461929" x2="408.300587635" y1="259.067284244" y2="259.008635994" /><line stroke="rgb(0%,0%,0%)" x1="424.081892877" x2="414.661461929" y1="260.388663764" y2="259.067284244" /><line stroke="rgb(0%,0%,0%)" x1="427.354021418" x2="423.714583937" y1="331.124211613" y2="328.390440219" /><line stroke="rgb(0%,0%,0%)" x1="423.714583937" x2="421.276602554" y1="328.390440219" y2="327.043960692" /><line stroke="rgb(0%,0%,0%)" x1="404.476375967" x2="406.614233862" y1="319.554477391" y2="320.440203141" /><line stroke="rgb(0%,0%,0%)" x1="421.276602554" x2="406.614233862" y1="327.043960692" y2="320.440203141" /><line stroke="rgb(0%,0%,0%)" x1="434.595930762" x2="439.520970067" y1="336.978893983" y2="340.454649875" /><line stroke="rgb(0%,0%,0%)" x1="434.595930762" x2="427.354021418" y1="336.978893983" y2="331.124211613" /><line stroke="rgb(0%,0%,0%)" x1="438.15612267" x2="435.829630494" y1="328.18738435" y2="325.478732455" /><line stroke="rgb(0%,0%,0%)" x1="438.15612267" x2="440.483914678" y1="328.18738435" y2="330.586685415" /><line stroke="rgb(0%,0%,0%)" x1="434.549617166" x2="428.036361" y1="263.653688052" y2="261.851604754" /><line stroke="rgb(0%,0%,0%)" x1="369.133693176" x2="380.080359994" y1="313.045408945" y2="314.238426895" /><line stroke="rgb(0%,0%,0%)" x1="386.788815782" x2="380.080359994" y1="315.263655286" y2="314.238426895" /><line stroke="rgb(0%,0%,0%)" x1="390.801867786" x2="386.788815782" y1="315.746233719" y2="315.263655286" /><line stroke="rgb(0%,0%,0%)" x1="392.298564802" x2="391.603172921" y1="296.392409205" y2="295.997206121" /><line stroke="rgb(0%,0%,0%)" x1="391.603172921" x2="390.744527726" y1="295.997206121" y2="295.223818351" /><line stroke="rgb(0%,0%,0%)" x1="389.346331905" x2="389.535216947" y1="293.414844745" y2="293.826226941" /><line stroke="rgb(0%,0%,0%)" x1="389.346331905" x2="388.873786509" y1="293.414844745" y2="292.961418392" /><line stroke="rgb(0%,0%,0%)" x1="388.218558181" x2="388.873786509" y1="291.762220238" y2="292.961418392" /><line stroke="rgb(0%,0%,0%)" x1="387.387709102" x2="388.218558181" y1="290.711820059" y2="291.762220238" /><line stroke="rgb(0%,0%,0%)" x1="387.387709102" x2="387.379138656" y1="290.711820059" y2="290.20095245" /><line stroke="rgb(0%,0%,0%)" x1="387.379138656" x2="387.233281897" y1="290.20095245" y2="288.006844721" /><line stroke="rgb(0%,0%,0%)" x1="389.592802579" x2="387.360632657" y1="286.095161955" y2="287.604394897" /><line stroke="rgb(0%,0%,0%)" x1="389.592802579" x2="391.803027247" y1="286.095161955" y2="285.731236264" /><line stroke="rgb(0%,0%,0%)" x1="402.362075729" x2="390.801867786" y1="318.745400464" y2="315.746233719" /><line stroke="rgb(0%,0%,0%)" x1="399.983090173" x2="401.478114646" y1="300.142054005" y2="301.038152322" /><line stroke="rgb(0%,0%,0%)" x1="397.892483811" x2="399.983090173" y1="299.090926687" y2="300.142054005" /><line stroke="rgb(0%,0%,0%)" x1="395.340929978" x2="397.892483811" y1="298.242082558" y2="299.090926687" /><line stroke="rgb(0%,0%,0%)" x1="392.298564802" x2="395.340929978" y1="296.392409205" y2="298.242082558" /><line stroke="rgb(0%,0%,0%)" x1="389.941099883" x2="390.744527726" y1="294.526686775" y2="295.223818351" /><line stroke="rgb(0%,0%,0%)" x1="389.535216947" x2="389.941099883" y1="293.826226941" y2="294.526686775" /><line stroke="rgb(0%,0%,0%)" x1="387.360632657" x2="387.233281897" y1="287.604394897" y2="288.006844721" /><line stroke="rgb(0%,0%,0%)" x1="401.478114646" x2="405.541913324" y1="301.038152322" y2="303.184538241" /><line stroke="rgb(0%,0%,0%)" x1="351.420965592" x2="341.482779655" y1="308.607935244" y2="306.111989293" /><line stroke="rgb(0%,0%,0%)" x1="369.133693176" x2="356.557446572" y1="313.045408945" y2="309.555760899" /><line stroke="rgb(0%,0%,0%)" x1="356.557446572" x2="351.420965592" y1="309.555760899" y2="308.607935244" /><line stroke="rgb(0%,0%,0%)" x1="320.665144187" x2="311.671194648" y1="302.41407437" y2="303.737345108" /><line stroke="rgb(0%,0%,0%)" x1="311.671194648" x2="305.103015529" y1="303.737345108" y2="304.129139931" /><line stroke="rgb(0%,0%,0%)" x1="324.474902578" x2="333.886921632" y1="302.417690823" y2="304.041085208" /><line stroke="rgb(0%,0%,0%)" x1="324.474902578" x2="320.665144187" y1="302.417690823" y2="302.41407437" /><line stroke="rgb(0%,0%,0%)" x1="341.482779655" x2="337.615214168" y1="306.111989293" y2="305.055729399" /><line stroke="rgb(0%,0%,0%)" x1="337.615214168" x2="333.886921632" y1="305.055729399" y2="304.041085208" /><line stroke="rgb(0%,0%,0%)" x1="264.668484117" x2="275.408347133" y1="313.033537447" y2="310.288894635" /><line stroke="rgb(0%,0%,0%)" x1="305.103015529" x2="295.535344969" y1="304.129139931" y2="305.997797266" /><line stroke="rgb(0%,0%,0%)" x1="295.535344969" x2="283.484540539" y1="305.997797266" y2="308.371020188" /><line stroke="rgb(0%,0%,0%)" x1="251.993643223" x2="231.621315759" y1="314.198011251" y2="321.077737627" /><line stroke="rgb(0%,0%,0%)" x1="251.993643223" x2="253.100039531" y1="314.198011251" y2="313.998202567" /><line stroke="rgb(0%,0%,0%)" x1="264.668484117" x2="253.100039531" y1="313.033537447" y2="313.998202567" /><line stroke="rgb(0%,0%,0%)" x1="283.484540539" x2="275.408347133" y1="308.371020188" y2="310.288894635" /><line stroke="rgb(0%,0%,0%)" x1="202.013582943" x2="198.133939028" y1="333.94572426" y2="336.645910624" /><line stroke="rgb(0%,0%,0%)" x1="202.013582943" x2="206.915739358" y1="333.94572426" y2="330.740773701" /><line stroke="rgb(0%,0%,0%)" x1="206.915739358" x2="225.276490632" y1="330.740773701" y2="323.325019989" /><line stroke="rgb(0%,0%,0%)" x1="228.427383555" x2="227.243549503" y1="322.132201975" y2="322.603313875" /><line stroke="rgb(0%,0%,0%)" x1="231.621315759" x2="228.427383555" y1="321.077737627" y2="322.132201975" /><line stroke="rgb(0%,0%,0%)" x1="182.907594596" x2="181.026638342" y1="345.565336649" y2="346.358681481" /><line stroke="rgb(0%,0%,0%)" x1="182.907594596" x2="184.482695534" y1="345.565336649" y2="345.098875257" /><line stroke="rgb(0%,0%,0%)" x1="188.073392131" x2="189.343524936" y1="340.996500054" y2="340.458694173" /><line stroke="rgb(0%,0%,0%)" x1="188.073392131" x2="184.482695534" y1="340.996500054" y2="345.098875257" /><line stroke="rgb(0%,0%,0%)" x1="192.680401607" x2="189.343524936" y1="338.593502787" y2="340.458694173" /><line stroke="rgb(0%,0%,0%)" x1="198.133939028" x2="192.680401607" y1="336.645910624" y2="338.593502787" /><line stroke="rgb(0%,0%,0%)" x1="226.927626753" x2="225.276490632" y1="322.693548395" y2="323.325019989" /><line stroke="rgb(0%,0%,0%)" x1="227.243549503" x2="226.927626753" y1="322.603313875" y2="322.693548395" /><line stroke="rgb(0%,0%,0%)" x1="142.733189121" x2="135.669038161" y1="370.727203166" y2="373.328797939" /><line stroke="rgb(0%,0%,0%)" x1="143.366542084" x2="142.733189121" y1="370.119118361" y2="370.727203166" /><line stroke="rgb(0%,0%,0%)" x1="150.460600356" x2="146.680083717" y1="366.183222133" y2="368.881917" /><line stroke="rgb(0%,0%,0%)" x1="157.716605791" x2="150.460600356" y1="361.132144927" y2="366.183222133" /><line stroke="rgb(0%,0%,0%)" x1="168.572708166" x2="157.716605791" y1="352.829372321" y2="361.132144927" /><line stroke="rgb(0%,0%,0%)" x1="181.026638342" x2="168.572708166" y1="346.358681481" y2="352.829372321" /><line stroke="rgb(0%,0%,0%)" x1="98.3523543831" x2="95.8151299317" y1="411.560293639" y2="414.183048135" /><line stroke="rgb(0%,0%,0%)" x1="98.3523543831" x2="101.708520481" y1="411.560293639" y2="408.415690074" /><line stroke="rgb(0%,0%,0%)" x1="104.661099546" x2="111.175917821" y1="403.848645282" y2="399.384576195" /><line stroke="rgb(0%,0%,0%)" x1="121.364611881" x2="122.591160169" y1="391.750775415" y2="390.007144296" /><line stroke="rgb(0%,0%,0%)" x1="124.900049999" x2="133.801816819" y1="379.590134464" y2="374.089465402" /><line stroke="rgb(0%,0%,0%)" x1="134.18617694" x2="133.801816819" y1="373.909118717" y2="374.089465402" /><line stroke="rgb(0%,0%,0%)" x1="135.669038161" x2="134.555744721" y1="373.328797939" y2="373.791417091" /><line stroke="rgb(0%,0%,0%)" x1="146.680083717" x2="143.366542084" y1="368.881917" y2="370.119118361" /><line stroke="rgb(0%,0%,0%)" x1="77.465785758" x2="81.7050476341" y1="435.46799669" y2="431.297899259" /><line stroke="rgb(0%,0%,0%)" x1="90.3503388229" x2="89.5590950303" y1="423.475095154" y2="424.206807823" /><line stroke="rgb(0%,0%,0%)" x1="90.3503388229" x2="90.4508643305" y1="423.475095154" y2="423.412087476" /><line stroke="rgb(0%,0%,0%)" x1="95.8151299317" x2="90.4508643305" y1="414.183048135" y2="423.412087476" /><line stroke="rgb(0%,0%,0%)" x1="104.661099546" x2="101.708520481" y1="403.848645282" y2="408.415690074" /><line stroke="rgb(0%,0%,0%)" x1="111.351617025" x2="111.175917821" y1="399.260261447" y2="399.384576195" /><line stroke="rgb(0%,0%,0%)" x1="111.38641959" x2="111.351617025" y1="399.244355918" y2="399.260261447" /><line stroke="rgb(0%,0%,0%)" x1="111.49358996" x2="111.38641959" y1="399.131031628" y2="399.244355918" /><line stroke="rgb(0%,0%,0%)" x1="121.364611881" x2="111.49358996" y1="391.750775415" y2="399.131031628" /><line stroke="rgb(0%,0%,0%)" x1="122.134600579" x2="122.591160169" y1="389.048707303" y2="390.007144296" /><line stroke="rgb(0%,0%,0%)" x1="122.652699436" x2="122.134600579" y1="387.8082343" y2="389.048707303" /><line stroke="rgb(0%,0%,0%)" x1="123.613443305" x2="122.652699436" y1="380.956014439" y2="387.8082343" /><line stroke="rgb(0%,0%,0%)" x1="124.900049999" x2="123.613443305" y1="379.590134464" y2="380.956014439" /><line stroke="rgb(0%,0%,0%)" x1="134.555744721" x2="134.18617694" y1="373.791417091" y2="373.909118717" /><line stroke="rgb(0%,0%,0%)" x1="69.4266739074" x2="69.5958785849" y1="450.460061585" y2="448.163310385" /><line stroke="rgb(0%,0%,0%)" x1="71.7308175357" x2="69.5958785849" y1="443.811909324" y2="448.163310385" /><line stroke="rgb(0%,0%,0%)" x1="77.465785758" x2="71.7308175357" y1="435.46799669" y2="443.811909324" /><line stroke="rgb(0%,0%,0%)" x1="82.9360734422" x2="81.7050476341" y1="429.652265628" y2="431.297899259" /><line stroke="rgb(0%,0%,0%)" x1="83.0852667282" x2="82.9360734422" y1="429.41360205" y2="429.652265628" /><line stroke="rgb(0%,0%,0%)" x1="83.7691996709" x2="83.0852667282" y1="428.410805992" y2="429.41360205" /><line stroke="rgb(0%,0%,0%)" x1="89.5590950303" x2="83.7691996709" y1="424.206807823" y2="428.410805992" /><line stroke="rgb(0%,0%,0%)" x1="69.4266739074" x2="66.5313597014" y1="450.460061585" y2="460.938670266" /><line stroke="rgb(0%,0%,0%)" x1="538.189961509" x2="538.022218964" y1="589.35846907" y2="589.574222409" /><line stroke="rgb(0%,0%,0%)" x1="538.189961509" x2="538.307274786" y1="589.35846907" y2="589.190007308" /><line stroke="rgb(0%,0%,0%)" x1="588.624963111" x2="590.763933013" y1="493.68228875" y2="488.085824147" /><line stroke="rgb(0%,0%,0%)" x1="538.022218964" x2="537.411107631" y1="589.574222409" y2="590.397296345" /><line stroke="rgb(0%,0%,0%)" x1="538.307274786" x2="539.33147346" y1="589.190007308" y2="588.185074713" /><line stroke="rgb(0%,0%,0%)" x1="553.121568233" x2="550.156875986" y1="569.393789667" y2="574.34132664" /><line stroke="rgb(0%,0%,0%)" x1="553.121568233" x2="558.20478332" y1="569.393789667" y2="564.69192172" /><line stroke="rgb(0%,0%,0%)" x1="565.746461952" x2="560.739822609" y1="551.137176249" y2="561.325130516" /><line stroke="rgb(0%,0%,0%)" x1="565.746461952" x2="573.338307414" y1="551.137176249" y2="536.88863586" /><line stroke="rgb(0%,0%,0%)" x1="575.220318571" x2="573.605916288" y1="530.09606975" y2="536.3656218" /><line stroke="rgb(0%,0%,0%)" x1="575.220318571" x2="576.259378424" y1="530.09606975" y2="528.764014533" /><line stroke="rgb(0%,0%,0%)" x1="576.259378424" x2="577.665036621" y1="528.764014533" y2="525.718130526" /><line stroke="rgb(0%,0%,0%)" x1="577.665036621" x2="578.621503446" y1="525.718130526" y2="522.790148575" /><line stroke="rgb(0%,0%,0%)" x1="579.858133631" x2="578.621503446" y1="517.277835373" y2="522.790148575" /><line stroke="rgb(0%,0%,0%)" x1="579.858133631" x2="581.272954243" y1="517.277835373" y2="515.050238099" /><line stroke="rgb(0%,0%,0%)" x1="582.113570939" x2="581.272954243" y1="513.420460627" y2="515.050238099" /><line stroke="rgb(0%,0%,0%)" x1="582.113570939" x2="582.316403424" y1="513.420460627" y2="510.002795657" /><line stroke="rgb(0%,0%,0%)" x1="582.316403424" x2="584.241601983" y1="510.002795657" y2="505.644277689" /><line stroke="rgb(0%,0%,0%)" x1="584.241601983" x2="585.346861864" y1="505.644277689" y2="503.633582348" /><line stroke="rgb(0%,0%,0%)" x1="585.346861864" x2="585.793526568" y1="503.633582348" y2="500.7057503" /><line stroke="rgb(0%,0%,0%)" x1="588.040804688" x2="585.793526568" y1="496.021817112" y2="500.7057503" /><line stroke="rgb(0%,0%,0%)" x1="588.040804688" x2="588.624963111" y1="496.021817112" y2="493.68228875" /><line stroke="rgb(0%,0%,0%)" x1="590.763933013" x2="591.824903367" y1="488.085824147" y2="485.947918449" /><line stroke="rgb(0%,0%,0%)" x1="591.824903367" x2="591.71772613" y1="485.947918449" y2="485.191551491" /><line stroke="rgb(0%,0%,0%)" x1="591.71772613" x2="593.798353129" y1="485.191551491" y2="477.017870681" /><line stroke="rgb(0%,0%,0%)" x1="593.798353129" x2="593.99500368" y1="477.017870681" y2="474.702185491" /><line stroke="rgb(0%,0%,0%)" x1="593.99500368" x2="594.057948056" y1="474.702185491" y2="474.178237038" /><line stroke="rgb(0%,0%,0%)" x1="594.057948056" x2="594.597008141" y1="474.178237038" y2="458.913078333" /><line stroke="rgb(0%,0%,0%)" x1="594.597008141" x2="594.562952274" y1="458.913078333" y2="458.178173949" /><line stroke="rgb(0%,0%,0%)" x1="526.819219787" x2="523.808704121" y1="603.410057286" y2="607.913086264" /><line stroke="rgb(0%,0%,0%)" x1="526.819219787" x2="537.411107631" y1="603.410057286" y2="590.397296345" /><line stroke="rgb(0%,0%,0%)" x1="539.33147346" x2="550.156875986" y1="588.185074713" y2="574.34132664" /><line stroke="rgb(0%,0%,0%)" x1="558.20478332" x2="560.739822609" y1="564.69192172" y2="561.325130516" /><line stroke="rgb(0%,0%,0%)" x1="573.338307414" x2="573.514029831" y1="536.88863586" y2="536.507635386" /><line stroke="rgb(0%,0%,0%)" x1="573.514029831" x2="573.605916288" y1="536.507635386" y2="536.3656218" /><line stroke="rgb(0%,0%,0%)" x1="485.149127272" x2="477.47766686" y1="638.174485333" y2="642.33882519" /><line stroke="rgb(0%,0%,0%)" x1="485.714357928" x2="485.149127272" y1="637.755506074" y2="638.174485333" /><line stroke="rgb(0%,0%,0%)" x1="491.736247593" x2="492.836917759" y1="635.56236416" y2="634.819853432" /><line stroke="rgb(0%,0%,0%)" x1="497.307550446" x2="498.484747907" y1="494.203063038" y2="486.700576493" /><line stroke="rgb(0%,0%,0%)" x1="500.438269109" x2="499.554307635" y1="458.161938029" y2="462.949028455" /><line stroke="rgb(0%,0%,0%)" x1="492.836917759" x2="498.724508583" y1="634.819853432" y2="630.863327474" /><line stroke="rgb(0%,0%,0%)" x1="498.724508583" x2="507.418725378" y1="630.863327474" y2="625.405964551" /><line stroke="rgb(0%,0%,0%)" x1="507.418725378" x2="510.009392472" y1="625.405964551" y2="623.005105814" /><line stroke="rgb(0%,0%,0%)" x1="510.009392472" x2="515.932784503" y1="623.005105814" y2="616.935316602" /><line stroke="rgb(0%,0%,0%)" x1="515.932784503" x2="523.808704121" y1="616.935316602" y2="607.913086264" /><line stroke="rgb(0%,0%,0%)" x1="454.011531908" x2="453.310124268" y1="557.292826332" y2="558.112499233" /><line stroke="rgb(0%,0%,0%)" x1="457.723295157" x2="457.383542628" y1="564.791445664" y2="565.224516331" /><line stroke="rgb(0%,0%,0%)" x1="454.011531908" x2="455.220816543" y1="557.292826332" y2="556.275751788" /><line stroke="rgb(0%,0%,0%)" x1="457.723295157" x2="458.058605676" y1="564.791445664" y2="564.303523211" /><line stroke="rgb(0%,0%,0%)" x1="455.220816543" x2="459.750145319" y1="556.275751788" y2="550.890168308" /><line stroke="rgb(0%,0%,0%)" x1="464.981613192" x2="467.862750946" y1="646.358097477" y2="645.449285704" /><line stroke="rgb(0%,0%,0%)" x1="467.862750946" x2="477.443974791" y1="645.449285704" y2="642.355127642" /><line stroke="rgb(0%,0%,0%)" x1="459.750145319" x2="468.465584654" y1="550.890168308" y2="539.381372371" /><line stroke="rgb(0%,0%,0%)" x1="474.517264775" x2="469.73062989" y1="541.261060417" y2="547.613795846" /><line stroke="rgb(0%,0%,0%)" x1="469.73062989" x2="468.956138644" y1="547.613795846" y2="548.8158572" /><line stroke="rgb(0%,0%,0%)" x1="474.517264775" x2="477.80795999" y1="541.261060417" y2="535.037728021" /><line stroke="rgb(0%,0%,0%)" x1="468.465584654" x2="468.939500601" y1="539.381372371" y2="535.047997977" /><line stroke="rgb(0%,0%,0%)" x1="468.939500601" x2="470.113071104" y1="535.047997977" y2="532.688699267" /><line stroke="rgb(0%,0%,0%)" x1="473.694304812" x2="471.585208102" y1="529.122778568" y2="530.810440305" /><line stroke="rgb(0%,0%,0%)" x1="473.694304812" x2="479.477693967" y1="529.122778568" y2="521.458300825" /><line stroke="rgb(0%,0%,0%)" x1="479.628846143" x2="479.477693967" y1="521.365734943" y2="521.458300825" /><line stroke="rgb(0%,0%,0%)" x1="477.443974791" x2="477.47766686" y1="642.355127642" y2="642.33882519" /><line stroke="rgb(0%,0%,0%)" x1="485.714357928" x2="491.736247593" y1="637.755506074" y2="635.56236416" /><line stroke="rgb(0%,0%,0%)" x1="480.186119958" x2="477.80795999" y1="531.515669951" y2="535.037728021" /><line stroke="rgb(0%,0%,0%)" x1="480.186119958" x2="483.419488661" y1="531.515669951" y2="525.233554987" /><line stroke="rgb(0%,0%,0%)" x1="486.289771039" x2="483.419488661" y1="520.368924026" y2="525.233554987" /><line stroke="rgb(0%,0%,0%)" x1="479.628846143" x2="480.061232448" y1="521.365734943" y2="520.753417817" /><line stroke="rgb(0%,0%,0%)" x1="486.289771039" x2="491.527486886" y1="520.368924026" y2="509.913856105" /><line stroke="rgb(0%,0%,0%)" x1="480.061232448" x2="483.62709501" y1="520.753417817" y2="515.401468498" /><line stroke="rgb(0%,0%,0%)" x1="483.62709501" x2="485.656277495" y1="515.401468498" y2="508.910748016" /><line stroke="rgb(0%,0%,0%)" x1="485.656277495" x2="488.386608357" y1="508.910748016" y2="504.170216681" /><line stroke="rgb(0%,0%,0%)" x1="489.722859111" x2="488.386608357" y1="500.604762622" y2="504.170216681" /><line stroke="rgb(0%,0%,0%)" x1="492.880107313" x2="491.527486886" y1="507.454870271" y2="509.913856105" /><line stroke="rgb(0%,0%,0%)" x1="493.557849552" x2="492.880107313" y1="505.474045413" y2="507.454870271" /><line stroke="rgb(0%,0%,0%)" x1="495.239423931" x2="493.557849552" y1="500.569745748" y2="505.474045413" /><line stroke="rgb(0%,0%,0%)" x1="497.307550446" x2="495.239423931" y1="494.203063038" y2="500.569745748" /><line stroke="rgb(0%,0%,0%)" x1="493.212674032" x2="495.203849295" y1="492.745524168" y2="488.451791789" /><line stroke="rgb(0%,0%,0%)" x1="489.722859111" x2="493.212674032" y1="500.604762622" y2="492.745524168" /><line stroke="rgb(0%,0%,0%)" x1="495.203849295" x2="495.551618964" y1="488.451791789" y2="487.312418922" /><line stroke="rgb(0%,0%,0%)" x1="498.910605122" x2="498.484747907" y1="484.01647964" y2="486.700576493" /><line stroke="rgb(0%,0%,0%)" x1="498.597663425" x2="496.391348249" y1="481.322817936" y2="485.058716802" /><line stroke="rgb(0%,0%,0%)" x1="495.551618964" x2="496.391348249" y1="487.312418922" y2="485.058716802" /><line stroke="rgb(0%,0%,0%)" x1="498.597663425" x2="498.910605122" y1="481.322817936" y2="484.01647964" /><line stroke="rgb(0%,0%,0%)" x1="499.554307635" x2="498.577429304" y1="462.949028455" y2="458.174978199" /><line stroke="rgb(0%,0%,0%)" x1="434.097847916" x2="431.378603787" y1="593.18464962" y2="595.854532024" /><line stroke="rgb(0%,0%,0%)" x1="432.689273628" x2="435.424944265" y1="579.374442247" y2="577.141304371" /><line stroke="rgb(0%,0%,0%)" x1="442.122642786" x2="429.163457174" y1="651.680786632" y2="655.202482626" /><line stroke="rgb(0%,0%,0%)" x1="442.122642786" x2="444.789997263" y1="651.680786632" y2="651.138876696" /><line stroke="rgb(0%,0%,0%)" x1="440.109329431" x2="434.097847916" y1="586.327680117" y2="593.18464962" /><line stroke="rgb(0%,0%,0%)" x1="441.302081453" x2="440.109329431" y1="585.015744046" y2="586.327680117" /><line stroke="rgb(0%,0%,0%)" x1="435.424944265" x2="446.871202964" y1="577.141304371" y2="564.262088472" /><line stroke="rgb(0%,0%,0%)" x1="447.608929221" x2="446.871202964" y1="563.550629542" y2="564.262088472" /><line stroke="rgb(0%,0%,0%)" x1="447.608929221" x2="453.310124268" y1="563.550629542" y2="558.112499233" /><line stroke="rgb(0%,0%,0%)" x1="444.789997263" x2="458.503098159" y1="651.138876696" y2="648.3043139" /><line stroke="rgb(0%,0%,0%)" x1="458.503098159" x2="464.981613192" y1="648.3043139" y2="646.358097477" /><line stroke="rgb(0%,0%,0%)" x1="457.383542628" x2="441.302081453" y1="565.224516331" y2="585.015744046" /><line stroke="rgb(0%,0%,0%)" x1="468.956138644" x2="458.058605676" y1="548.8158572" y2="564.303523211" /><line stroke="rgb(0%,0%,0%)" x1="470.113071104" x2="471.045212154" y1="532.688699267" y2="531.486426317" /><line stroke="rgb(0%,0%,0%)" x1="471.045212154" x2="471.585208102" y1="531.486426317" y2="530.810440305" /><line stroke="rgb(0%,0%,0%)" x1="398.910627209" x2="401.597521484" y1="630.295883898" y2="630.561225567" /><line stroke="rgb(0%,0%,0%)" x1="401.215779122" x2="401.672412232" y1="618.820459824" y2="618.501257789" /><line stroke="rgb(0%,0%,0%)" x1="379.347001395" x2="386.828512438" y1="603.574737076" y2="602.10353137" /><line stroke="rgb(0%,0%,0%)" x1="419.307859287" x2="418.855764823" y1="653.220583148" y2="650.053316537" /><line stroke="rgb(0%,0%,0%)" x1="401.597521484" x2="407.790417706" y1="630.561225567" y2="630.362499393" /><line stroke="rgb(0%,0%,0%)" x1="399.754671987" x2="399.81571851" y1="620.409282307" y2="620.340798882" /><line stroke="rgb(0%,0%,0%)" x1="401.215779122" x2="399.81571851" y1="618.820459824" y2="620.340798882" /><line stroke="rgb(0%,0%,0%)" x1="406.024792836" x2="401.672412232" y1="615.45361776" y2="618.501257789" /><line stroke="rgb(0%,0%,0%)" x1="408.718897192" x2="406.024792836" y1="613.874449061" y2="615.45361776" /><line stroke="rgb(0%,0%,0%)" x1="423.992256243" x2="427.313169073" y1="654.935218654" y2="655.151470952" /><line stroke="rgb(0%,0%,0%)" x1="419.307859287" x2="421.181772765" y1="653.220583148" y2="653.71063855" /><line stroke="rgb(0%,0%,0%)" x1="421.181772765" x2="423.992256243" y1="653.71063855" y2="654.935218654" /><line stroke="rgb(0%,0%,0%)" x1="418.855764823" x2="418.64290963" y1="650.053316537" y2="646.935599188" /><line stroke="rgb(0%,0%,0%)" x1="417.914970339" x2="418.64290963" y1="644.739163688" y2="646.935599188" /><line stroke="rgb(0%,0%,0%)" x1="418.735808368" x2="417.914970339" y1="642.090049597" y2="644.739163688" /><line stroke="rgb(0%,0%,0%)" x1="422.54463895" x2="418.735808368" y1="637.153594316" y2="642.090049597" /><line stroke="rgb(0%,0%,0%)" x1="407.790417706" x2="412.593810517" y1="630.362499393" y2="629.976838657" /><line stroke="rgb(0%,0%,0%)" x1="417.37320247" x2="412.593810517" y1="629.241533771" y2="629.976838657" /><line stroke="rgb(0%,0%,0%)" x1="417.37320247" x2="419.243596009" y1="629.241533771" y2="629.199725768" /><line stroke="rgb(0%,0%,0%)" x1="419.243596009" x2="428.509586012" y1="629.199725768" y2="627.498942908" /><line stroke="rgb(0%,0%,0%)" x1="417.683183874" x2="414.326795932" y1="607.544689518" y2="609.943506677" /><line stroke="rgb(0%,0%,0%)" x1="408.718897192" x2="414.326795932" y1="613.874449061" y2="609.943506677" /><line stroke="rgb(0%,0%,0%)" x1="425.976758137" x2="417.683183874" y1="601.076814699" y2="607.544689518" /><line stroke="rgb(0%,0%,0%)" x1="427.313169073" x2="429.163457174" y1="655.151470952" y2="655.202482626" /><line stroke="rgb(0%,0%,0%)" x1="425.761334617" x2="422.54463895" y1="633.441662576" y2="637.153594316" /><line stroke="rgb(0%,0%,0%)" x1="428.509586012" x2="425.761334617" y1="627.498942908" y2="633.441662576" /><line stroke="rgb(0%,0%,0%)" x1="427.870106261" x2="425.976758137" y1="599.424608886" y2="601.076814699" /><line stroke="rgb(0%,0%,0%)" x1="430.635229314" x2="427.870106261" y1="596.86277268" y2="599.424608886" /><line stroke="rgb(0%,0%,0%)" x1="431.378603787" x2="430.635229314" y1="595.854532024" y2="596.86277268" /><line stroke="rgb(0%,0%,0%)" x1="355.504675518" x2="352.925536947" y1="607.59506003" y2="607.490782018" /><line stroke="rgb(0%,0%,0%)" x1="361.900887431" x2="369.067993619" y1="606.561214063" y2="604.741668462" /><line stroke="rgb(0%,0%,0%)" x1="355.504675518" x2="361.900887431" y1="607.59506003" y2="606.561214063" /><line stroke="rgb(0%,0%,0%)" x1="369.067993619" x2="374.059102795" y1="604.741668462" y2="603.873069009" /><line stroke="rgb(0%,0%,0%)" x1="379.347001395" x2="374.059102795" y1="603.574737076" y2="603.873069009" /><line stroke="rgb(0%,0%,0%)" x1="398.910627209" x2="396.991331859" y1="630.295883898" y2="629.931955913" /><line stroke="rgb(0%,0%,0%)" x1="396.076601901" x2="395.408455168" y1="624.442787867" y2="626.715063328" /><line stroke="rgb(0%,0%,0%)" x1="396.076601901" x2="397.151594319" y1="624.442787867" y2="622.874435161" /><line stroke="rgb(0%,0%,0%)" x1="390.459904069" x2="393.559410082" y1="601.451675462" y2="600.698332878" /><line stroke="rgb(0%,0%,0%)" x1="386.828512438" x2="390.459904069" y1="602.10353137" y2="601.451675462" /><line stroke="rgb(0%,0%,0%)" x1="396.873589386" x2="396.991331859" y1="629.88700038" y2="629.931955913" /><line stroke="rgb(0%,0%,0%)" x1="396.850854864" x2="396.873589386" y1="629.802246365" y2="629.88700038" /><line stroke="rgb(0%,0%,0%)" x1="396.850854864" x2="395.380258591" y1="629.802246365" y2="626.786504567" /><line stroke="rgb(0%,0%,0%)" x1="395.408455168" x2="395.380258591" y1="626.715063328" y2="626.786504567" /><line stroke="rgb(0%,0%,0%)" x1="397.145753903" x2="397.151594319" y1="622.599879305" y2="622.874435161" /><line stroke="rgb(0%,0%,0%)" x1="397.145753903" x2="398.881954374" y1="622.599879305" y2="621.620469156" /><line stroke="rgb(0%,0%,0%)" x1="399.562446955" x2="398.881954374" y1="620.890376366" y2="621.620469156" /><line stroke="rgb(0%,0%,0%)" x1="399.754671987" x2="399.639251659" y1="620.409282307" y2="620.740375931" /><line stroke="rgb(0%,0%,0%)" x1="399.639251659" x2="399.562446955" y1="620.740375931" y2="620.890376366" /><line stroke="rgb(0%,0%,0%)" x1="327.622780591" x2="324.887105632" y1="610.750142629" y2="610.767647165" /><line stroke="rgb(0%,0%,0%)" x1="327.622780591" x2="336.150212961" y1="610.750142629" y2="609.800029527" /><line stroke="rgb(0%,0%,0%)" x1="336.150212961" x2="339.879198054" y1="609.800029527" y2="609.305096366" /><line stroke="rgb(0%,0%,0%)" x1="347.20722957" x2="339.879198054" y1="608.683537593" y2="609.305096366" /><line stroke="rgb(0%,0%,0%)" x1="352.925536947" x2="347.20722957" y1="607.490782018" y2="608.683537593" /><line stroke="rgb(0%,0%,0%)" x1="309.393398866" x2="317.798119037" y1="609.170138007" y2="610.361993471" /><line stroke="rgb(0%,0%,0%)" x1="317.798119037" x2="324.887105632" y1="610.361993471" y2="610.767647165" /><line stroke="rgb(0%,0%,0%)" x1="309.393398866" x2="292.849472586" y1="609.170138007" y2="606.013934652" /><line stroke="rgb(0%,0%,0%)" x1="242.851725542" x2="240.406474728" y1="598.188796423" y2="597.360824673" /><line stroke="rgb(0%,0%,0%)" x1="248.524086906" x2="257.218638186" y1="598.829713112" y2="600.719396568" /><line stroke="rgb(0%,0%,0%)" x1="242.851725542" x2="248.524086906" y1="598.188796423" y2="598.829713112" /><line stroke="rgb(0%,0%,0%)" x1="257.218638186" x2="267.150380583" y1="600.719396568" y2="600.6440476" /><line stroke="rgb(0%,0%,0%)" x1="267.150380583" x2="284.115755374" y1="600.6440476" y2="604.445048001" /><line stroke="rgb(0%,0%,0%)" x1="284.115755374" x2="292.849472586" y1="604.445048001" y2="606.013934652" /><line stroke="rgb(0%,0%,0%)" x1="220.326315521" x2="224.18919429" y1="591.629378413" y2="592.523003063" /><line stroke="rgb(0%,0%,0%)" x1="208.597461414" x2="220.326315521" y1="588.831224294" y2="591.629378413" /><line stroke="rgb(0%,0%,0%)" x1="225.50327329" x2="227.167289964" y1="593.256598479" y2="593.652042526" /><line stroke="rgb(0%,0%,0%)" x1="225.50327329" x2="224.18919429" y1="593.256598479" y2="592.523003063" /><line stroke="rgb(0%,0%,0%)" x1="227.167289964" x2="240.406474728" y1="593.652042526" y2="597.360824673" /><line stroke="rgb(0%,0%,0%)" x1="190.176374291" x2="180.388059544" y1="579.29086222" y2="571.942607402" /><line stroke="rgb(0%,0%,0%)" x1="195.003005119" x2="199.976998868" y1="582.384203943" y2="584.769929691" /><line stroke="rgb(0%,0%,0%)" x1="195.003005119" x2="190.176374291" y1="582.384203943" y2="579.29086222" /><line stroke="rgb(0%,0%,0%)" x1="199.976998868" x2="206.680420746" y1="584.769929691" y2="587.831480197" /><line stroke="rgb(0%,0%,0%)" x1="208.597461414" x2="206.680420746" y1="588.831224294" y2="587.831480197" /><line stroke="rgb(0%,0%,0%)" x1="121.210838625" x2="121.274008993" y1="528.39638695" y2="528.478669386" /><line stroke="rgb(0%,0%,0%)" x1="145.845777534" x2="152.334713827" y1="548.201611092" y2="552.778442025" /><line stroke="rgb(0%,0%,0%)" x1="141.405299169" x2="137.69531517" y1="546.722101704" y2="545.159231976" /><line stroke="rgb(0%,0%,0%)" x1="141.405299169" x2="145.845777534" y1="546.722101704" y2="548.201611092" /><line stroke="rgb(0%,0%,0%)" x1="173.350630068" x2="176.014317499" y1="566.55009238" y2="569.140953635" /><line stroke="rgb(0%,0%,0%)" x1="158.391296121" x2="173.350630068" y1="556.909231548" y2="566.55009238" /><line stroke="rgb(0%,0%,0%)" x1="158.391296121" x2="152.334713827" y1="556.909231548" y2="552.778442025" /><line stroke="rgb(0%,0%,0%)" x1="176.014317499" x2="180.388059544" y1="569.140953635" y2="571.942607402" /><line stroke="rgb(0%,0%,0%)" x1="99.7893096644" x2="102.374336412" y1="511.165988065" y2="513.453496228" /><line stroke="rgb(0%,0%,0%)" x1="120.977038876" x2="123.221623404" y1="532.302406718" y2="537.731879432" /><line stroke="rgb(0%,0%,0%)" x1="120.790913345" x2="120.977038876" y1="531.888871557" y2="532.302406718" /><line stroke="rgb(0%,0%,0%)" x1="121.274008993" x2="120.790913345" y1="528.478669386" y2="531.888871557" /><line stroke="rgb(0%,0%,0%)" x1="121.210838625" x2="120.662236392" y1="528.39638695" y2="527.909387325" /><line stroke="rgb(0%,0%,0%)" x1="116.683858541" x2="120.662236392" y1="523.42816014" y2="527.909387325" /><line stroke="rgb(0%,0%,0%)" x1="113.285445514" x2="116.683858541" y1="522.332153271" y2="523.42816014" /><line stroke="rgb(0%,0%,0%)" x1="112.876791802" x2="113.285445514" y1="522.144865131" y2="522.332153271" /><line stroke="rgb(0%,0%,0%)" x1="112.876791802" x2="112.722757803" y1="522.144865131" y2="522.092359868" /><line stroke="rgb(0%,0%,0%)" x1="127.482063854" x2="130.428133549" y1="540.976791983" y2="541.405991418" /><line stroke="rgb(0%,0%,0%)" x1="130.428133549" x2="137.69531517" y1="541.405991418" y2="545.159231976" /><line stroke="rgb(0%,0%,0%)" x1="88.8334091106" x2="86.300864817" y1="500.171549191" y2="498.496131988" /><line stroke="rgb(0%,0%,0%)" x1="82.3846420423" x2="75.0180876117" y1="494.044139761" y2="484.269871356" /><line stroke="rgb(0%,0%,0%)" x1="102.374336412" x2="105.291796545" y1="513.453496228" y2="516.162955843" /><line stroke="rgb(0%,0%,0%)" x1="99.7893096644" x2="96.4618408666" y1="511.165988065" y2="507.477598439" /><line stroke="rgb(0%,0%,0%)" x1="88.8334091106" x2="96.4618408666" y1="500.171549191" y2="507.477598439" /><line stroke="rgb(0%,0%,0%)" x1="108.104093142" x2="112.722757803" y1="517.541100424" y2="522.092359868" /><line stroke="rgb(0%,0%,0%)" x1="108.104093142" x2="105.291796545" y1="517.541100424" y2="516.162955843" /><line stroke="rgb(0%,0%,0%)" x1="123.221623404" x2="127.482063854" y1="537.731879432" y2="540.976791983" /><line stroke="rgb(0%,0%,0%)" x1="72.5203406494" x2="74.8422705769" y1="482.95965068" y2="484.025831783" /><line stroke="rgb(0%,0%,0%)" x1="72.5203406494" x2="69.3868361132" y1="482.95965068" y2="476.652040328" /><line stroke="rgb(0%,0%,0%)" x1="68.5457582255" x2="69.3868361132" y1="475.284354948" y2="476.652040328" /><line stroke="rgb(0%,0%,0%)" x1="67.0839907906" x2="68.5457582255" y1="463.498577067" y2="475.284354948" /><line stroke="rgb(0%,0%,0%)" x1="83.1751956704" x2="86.300864817" y1="495.899130212" y2="498.496131988" /><line stroke="rgb(0%,0%,0%)" x1="82.3846420423" x2="83.1751956704" y1="494.044139761" y2="495.899130212" /><line stroke="rgb(0%,0%,0%)" x1="74.8422705769" x2="75.0180876117" y1="484.025831783" y2="484.269871356" /><line stroke="rgb(0%,0%,0%)" x1="66.5313597014" x2="67.0839907906" y1="460.938670266" y2="463.498577067" /><line stroke="rgb(0%,0%,0%)" x1="394.13454313" x2="393.559410082" y1="600.492138367" y2="600.698332878" /><line stroke="rgb(0%,0%,0%)" x1="394.13454313" x2="402.677826495" y1="600.492138367" y2="598.111992135" /><line stroke="rgb(0%,0%,0%)" x1="402.677826495" x2="403.171676497" y1="598.111992135" y2="597.877809779" /><line stroke="rgb(0%,0%,0%)" x1="403.171676497" x2="404.668244902" y1="597.877809779" y2="597.288488313" /><line stroke="rgb(0%,0%,0%)" x1="404.668244902" x2="418.132467078" y1="597.288488313" y2="591.330517503" /><line stroke="rgb(0%,0%,0%)" x1="418.132467078" x2="421.766588946" y1="591.330517503" y2="588.61155407" /><line stroke="rgb(0%,0%,0%)" x1="427.029743385" x2="421.766588946" y1="584.404656035" y2="588.61155407" /><line stroke="rgb(0%,0%,0%)" x1="427.029743385" x2="432.689273628" y1="584.404656035" y2="579.374442247" /></svg>