<?xml version="1.0" encoding="utf-8" ?>
<svg baseProfile="full" height="100%" version="1.1" viewBox="0.5 0.5 685.793960571 941.299331665" width="100%" xmlns="http://www.w3.org/2000/svg" xmlns:ev="http://www.w3.org/2001/xml-events" xmlns:xlink="http://www.w3.org/1999/xlink"><defs /><line stroke="rgb(0%,0%,0%)" x1="587.991756257" x2="588.535621793" y1="446.907546977" y2="443.420785021" /><line stroke="rgb(0%,0%,0%)" x1="588.535621793" x2="588.333817261" y1="443.420785021" y2="441.039173376" /><line stroke="rgb(0%,0%,0%)" x1="587.160117437" x2="587.224921096" y1="429.757905884" y2="430.649532696" /><line stroke="rgb(0%,0%,0%)" x1="584.432075148" x2="585.564365701" y1="424.168445157" y2="427.154802411" /><line stroke="rgb(0%,0%,0%)" x1="550.804536689" x2="552.57282987" y1="347.145257763" y2="349.506333507" /><line stroke="rgb(0%,0%,0%)" x1="550.804536689" x2="548.673750939" y1="347.145257763" y2="343.978253232" /><line stroke="rgb(0%,0%,0%)" x1="573.981806565" x2="573.905126816" y1="392.845314807" y2="392.714158617" /><line stroke="rgb(0%,0%,0%)" x1="573.905126816" x2="565.688489623" y1="392.714158617" y2="374.74081364" /><line stroke="rgb(0%,0%,0%)" x1="565.688489623" x2="565.683045965" y1="374.74081364" y2="374.729309842" /><line stroke="rgb(0%,0%,0%)" x1="565.64264582" x2="565.683045965" y1="374.644160224" y2="374.729309842" /><line stroke="rgb(0%,0%,0%)" x1="565.64264582" x2="565.543995828" y1="374.644160224" y2="374.390567609" /><line stroke="rgb(0%,0%,0%)" x1="580.831905376" x2="581.815169775" y1="411.763267884" y2="414.746581141" /><line stroke="rgb(0%,0%,0%)" x1="580.831905376" x2="580.362321662" y1="411.763267884" y2="408.432664379" /><line stroke="rgb(0%,0%,0%)" x1="574.866883942" x2="577.070209544" y1="395.964262973" y2="401.953020372" /><line stroke="rgb(0%,0%,0%)" x1="574.866883942" x2="574.143108398" y1="395.964262973" y2="395.515732487" /><line stroke="rgb(0%,0%,0%)" x1="574.143108398" x2="574.031380287" y1="395.515732487" y2="392.99366939" /><line stroke="rgb(0%,0%,0%)" x1="573.981806565" x2="574.031380287" y1="392.845314807" y2="392.99366939" /><line stroke="rgb(0%,0%,0%)" x1="587.803391381" x2="587.787793159" y1="453.933025467" y2="458.346843634" /><line stroke="rgb(0%,0%,0%)" x1="587.803391381" x2="587.991756257" y1="453.933025467" y2="446.907546977" /><line stroke="rgb(0%,0%,0%)" x1="588.040345918" x2="588.333817261" y1="439.391231332" y2="441.039173376" /><line stroke="rgb(0%,0%,0%)" x1="588.040345918" x2="587.224921096" y1="439.391231332" y2="430.649532696" /><line stroke="rgb(0%,0%,0%)" x1="587.160117437" x2="585.564365701" y1="429.757905884" y2="427.154802411" /><line stroke="rgb(0%,0%,0%)" x1="584.432075148" x2="584.055582819" y1="424.168445157" y2="420.792737677" /><line stroke="rgb(0%,0%,0%)" x1="583.269767623" x2="583.680526236" y1="419.622934642" y2="418.556258872" /><line stroke="rgb(0%,0%,0%)" x1="584.055582819" x2="583.269767623" y1="420.792737677" y2="419.622934642" /><line stroke="rgb(0%,0%,0%)" x1="581.815169775" x2="583.021018337" y1="414.746581141" y2="416.412321461" /><line stroke="rgb(0%,0%,0%)" x1="583.680526236" x2="583.021018337" y1="418.556258872" y2="416.412321461" /><line stroke="rgb(0%,0%,0%)" x1="548.673750939" x2="543.375084744" y1="343.978253232" y2="336.765119699" /><line stroke="rgb(0%,0%,0%)" x1="543.375084744" x2="541.210193599" y1="336.765119699" y2="334.293208288" /><line stroke="rgb(0%,0%,0%)" x1="555.747206971" x2="558.003311502" y1="354.79263832" y2="358.778829999" /><line stroke="rgb(0%,0%,0%)" x1="555.747206971" x2="552.57282987" y1="354.79263832" y2="349.506333507" /><line stroke="rgb(0%,0%,0%)" x1="565.543995828" x2="561.298090997" y1="374.390567609" y2="365.61696851" /><line stroke="rgb(0%,0%,0%)" x1="580.362321662" x2="577.070209544" y1="408.432664379" y2="401.953020372" /><line stroke="rgb(0%,0%,0%)" x1="499.365715724" x2="503.74281186" y1="288.609907974" y2="291.430290973" /><line stroke="rgb(0%,0%,0%)" x1="520.027463578" x2="516.58517237" y1="309.953897554" y2="303.601293498" /><line stroke="rgb(0%,0%,0%)" x1="516.064684531" x2="516.58517237" y1="302.926068338" y2="303.601293498" /><line stroke="rgb(0%,0%,0%)" x1="516.064684531" x2="515.64070928" y1="302.926068338" y2="302.39113129" /><line stroke="rgb(0%,0%,0%)" x1="531.300929685" x2="525.395020652" y1="323.301344269" y2="316.720883228" /><line stroke="rgb(0%,0%,0%)" x1="520.027463578" x2="525.395020652" y1="309.953897554" y2="316.720883228" /><line stroke="rgb(0%,0%,0%)" x1="541.210193599" x2="532.919000032" y1="334.293208288" y2="326.104940049" /><line stroke="rgb(0%,0%,0%)" x1="532.919000032" x2="531.300929685" y1="326.104940049" y2="323.301344269" /><line stroke="rgb(0%,0%,0%)" x1="561.298090997" x2="558.003311502" y1="365.61696851" y2="358.778829999" /><line stroke="rgb(0%,0%,0%)" x1="477.484174104" x2="483.366042525" y1="280.092578971" y2="281.097103608" /><line stroke="rgb(0%,0%,0%)" x1="495.967985765" x2="497.164047232" y1="458.357762624" y2="448.78495917" /><line stroke="rgb(0%,0%,0%)" x1="497.195438417" x2="497.164047232" y1="448.634540696" y2="448.78495917" /><line stroke="rgb(0%,0%,0%)" x1="497.195438417" x2="497.202005984" y1="448.634540696" y2="448.617271657" /><line stroke="rgb(0%,0%,0%)" x1="497.202005984" x2="497.193213563" y1="448.617271657" y2="448.533887541" /><line stroke="rgb(0%,0%,0%)" x1="496.924807353" x2="495.509376985" y1="436.611220925" y2="430.29915853" /><line stroke="rgb(0%,0%,0%)" x1="492.801416938" x2="494.278821204" y1="416.555767486" y2="422.027526535" /><line stroke="rgb(0%,0%,0%)" x1="492.801416938" x2="489.227370358" y1="416.555767486" y2="409.403705537" /><line stroke="rgb(0%,0%,0%)" x1="499.365715724" x2="487.714613302" y1="288.609907974" y2="283.158204384" /><line stroke="rgb(0%,0%,0%)" x1="487.714613302" x2="485.895430522" y1="283.158204384" y2="281.820654294" /><line stroke="rgb(0%,0%,0%)" x1="503.366870162" x2="503.368630869" y1="458.355828264" y2="457.088497083" /><line stroke="rgb(0%,0%,0%)" x1="504.060192585" x2="503.368630869" y1="450.779211507" y2="457.088497083" /><line stroke="rgb(0%,0%,0%)" x1="504.060192585" x2="503.533565265" y1="450.779211507" y2="444.609175242" /><line stroke="rgb(0%,0%,0%)" x1="503.178458289" x2="503.533565265" y1="438.726594134" y2="444.609175242" /><line stroke="rgb(0%,0%,0%)" x1="503.178458289" x2="502.559993876" y1="438.726594134" y2="433.97194721" /><line stroke="rgb(0%,0%,0%)" x1="502.093320647" x2="502.559993876" y1="429.48272736" y2="433.97194721" /><line stroke="rgb(0%,0%,0%)" x1="499.496681493" x2="501.000384127" y1="417.566364035" y2="423.640318289" /><line stroke="rgb(0%,0%,0%)" x1="506.043922467" x2="503.74281186" y1="293.707886138" y2="291.430290973" /><line stroke="rgb(0%,0%,0%)" x1="515.64070928" x2="506.043922467" y1="302.39113129" y2="293.707886138" /><line stroke="rgb(0%,0%,0%)" x1="464.481289637" x2="461.685826066" y1="370.160165903" y2="366.91061711" /><line stroke="rgb(0%,0%,0%)" x1="461.685826066" x2="460.985716169" y1="366.91061711" y2="365.73686673" /><line stroke="rgb(0%,0%,0%)" x1="460.978871838" x2="463.989739635" y1="347.13955333" y2="351.433875849" /><line stroke="rgb(0%,0%,0%)" x1="461.113250972" x2="457.620600358" y1="275.642039302" y2="274.938715142" /><line stroke="rgb(0%,0%,0%)" x1="475.912366049" x2="481.640650424" y1="385.088877814" y2="393.587653306" /><line stroke="rgb(0%,0%,0%)" x1="467.227210879" x2="466.118694489" y1="373.773208327" y2="373.033527574" /><line stroke="rgb(0%,0%,0%)" x1="464.481289637" x2="466.118694489" y1="370.160165903" y2="373.033527574" /><line stroke="rgb(0%,0%,0%)" x1="471.539304479" x2="474.126911749" y1="363.378325361" y2="366.747759607" /><line stroke="rgb(0%,0%,0%)" x1="471.001012878" x2="471.539304479" y1="362.445890993" y2="363.378325361" /><line stroke="rgb(0%,0%,0%)" x1="466.245514232" x2="468.72700277" y1="354.587037708" y2="358.897569423" /><line stroke="rgb(0%,0%,0%)" x1="471.001012878" x2="468.72700277" y1="362.445890993" y2="358.897569423" /><line stroke="rgb(0%,0%,0%)" x1="471.726192692" x2="461.113250972" y1="277.483725501" y2="275.642039302" /><line stroke="rgb(0%,0%,0%)" x1="477.484174104" x2="471.726192692" y1="280.092578971" y2="277.483725501" /><line stroke="rgb(0%,0%,0%)" x1="485.642828162" x2="484.564698627" y1="401.172670105" y2="398.985957621" /><line stroke="rgb(0%,0%,0%)" x1="484.564698627" x2="481.640650424" y1="398.985957621" y2="393.587653306" /><line stroke="rgb(0%,0%,0%)" x1="475.912366049" x2="467.227210879" y1="385.088877814" y2="373.773208327" /><line stroke="rgb(0%,0%,0%)" x1="482.25494417" x2="476.410045114" y1="379.081214918" y2="369.901411523" /><line stroke="rgb(0%,0%,0%)" x1="476.307302192" x2="476.410045114" y1="369.795700074" y2="369.901411523" /><line stroke="rgb(0%,0%,0%)" x1="475.973905829" x2="476.307302192" y1="369.165031791" y2="369.795700074" /><line stroke="rgb(0%,0%,0%)" x1="474.126911749" x2="475.973905829" y1="366.747759607" y2="369.165031791" /><line stroke="rgb(0%,0%,0%)" x1="485.895430522" x2="483.366042525" y1="281.820654294" y2="281.097103608" /><line stroke="rgb(0%,0%,0%)" x1="497.723836764" x2="496.924807353" y1="438.536634637" y2="436.611220925" /><line stroke="rgb(0%,0%,0%)" x1="495.509376985" x2="495.063918335" y1="430.29915853" y2="427.427842274" /><line stroke="rgb(0%,0%,0%)" x1="494.278821204" x2="495.063918335" y1="422.027526535" y2="427.427842274" /><line stroke="rgb(0%,0%,0%)" x1="497.380872942" x2="496.583799335" y1="411.558263226" y2="408.224849122" /><line stroke="rgb(0%,0%,0%)" x1="489.227370358" x2="485.642828162" y1="409.403705537" y2="401.172670105" /><line stroke="rgb(0%,0%,0%)" x1="492.256808845" x2="495.366686899" y1="398.464219348" y2="406.140386202" /><line stroke="rgb(0%,0%,0%)" x1="491.242318756" x2="492.256808845" y1="396.243353569" y2="398.464219348" /><line stroke="rgb(0%,0%,0%)" x1="491.242318756" x2="488.845327217" y1="396.243353569" y2="389.710038584" /><line stroke="rgb(0%,0%,0%)" x1="487.880587561" x2="488.845327217" y1="388.230458511" y2="389.710038584" /><line stroke="rgb(0%,0%,0%)" x1="487.547768418" x2="487.880587561" y1="386.492643025" y2="388.230458511" /><line stroke="rgb(0%,0%,0%)" x1="487.547768418" x2="483.508930459" y1="386.492643025" y2="380.842213946" /><line stroke="rgb(0%,0%,0%)" x1="482.25494417" x2="483.508930459" y1="379.081214918" y2="380.842213946" /><line stroke="rgb(0%,0%,0%)" x1="497.193213563" x2="497.723836764" y1="448.533887541" y2="438.536634637" /><line stroke="rgb(0%,0%,0%)" x1="501.495701823" x2="502.093320647" y1="426.941423122" y2="429.48272736" /><line stroke="rgb(0%,0%,0%)" x1="501.000384127" x2="501.495701823" y1="423.640318289" y2="426.941423122" /><line stroke="rgb(0%,0%,0%)" x1="498.258927854" x2="499.496681493" y1="414.575884359" y2="417.566364035" /><line stroke="rgb(0%,0%,0%)" x1="497.380872942" x2="498.258927854" y1="411.558263226" y2="414.575884359" /><line stroke="rgb(0%,0%,0%)" x1="495.366686899" x2="496.583799335" y1="406.140386202" y2="408.224849122" /><line stroke="rgb(0%,0%,0%)" x1="414.742418945" x2="413.883717992" y1="303.328847638" y2="302.876162457" /><line stroke="rgb(0%,0%,0%)" x1="414.742418945" x2="415.060169867" y1="303.328847638" y2="303.628745709" /><line stroke="rgb(0%,0%,0%)" x1="420.472853027" x2="426.367147181" y1="327.399747517" y2="331.827259413" /><line stroke="rgb(0%,0%,0%)" x1="420.472853027" x2="410.289722229" y1="327.399747517" y2="321.775677852" /><line stroke="rgb(0%,0%,0%)" x1="410.289722229" x2="407.354938709" y1="321.775677852" y2="320.453886044" /><line stroke="rgb(0%,0%,0%)" x1="421.505349574" x2="421.843016381" y1="308.857876518" y2="309.14241295" /><line stroke="rgb(0%,0%,0%)" x1="413.026093816" x2="413.691897784" y1="289.421712768" y2="289.540110936" /><line stroke="rgb(0%,0%,0%)" x1="413.026093816" x2="408.455078753" y1="289.421712768" y2="289.639388236" /><line stroke="rgb(0%,0%,0%)" x1="407.721582255" x2="408.455078753" y1="289.562062335" y2="289.639388236" /><line stroke="rgb(0%,0%,0%)" x1="407.721582255" x2="407.643215284" y1="289.562062335" y2="289.514161225" /><line stroke="rgb(0%,0%,0%)" x1="429.650810076" x2="427.778453827" y1="276.050591551" y2="273.737579691" /><line stroke="rgb(0%,0%,0%)" x1="431.151522981" x2="442.188416073" y1="335.099791762" y2="342.380333002" /><line stroke="rgb(0%,0%,0%)" x1="431.655607765" x2="436.029217778" y1="318.196833724" y2="323.191372292" /><line stroke="rgb(0%,0%,0%)" x1="427.874677764" x2="431.655607765" y1="314.779061821" y2="318.196833724" /><line stroke="rgb(0%,0%,0%)" x1="426.113745095" x2="427.874677764" y1="313.159621269" y2="314.779061821" /><line stroke="rgb(0%,0%,0%)" x1="426.591000155" x2="432.692481015" y1="292.035641084" y2="292.696785512" /><line stroke="rgb(0%,0%,0%)" x1="429.650810076" x2="433.058909185" y1="276.050591551" y2="283.135152281" /><line stroke="rgb(0%,0%,0%)" x1="427.52033451" x2="427.778453827" y1="271.140223805" y2="273.737579691" /><line stroke="rgb(0%,0%,0%)" x1="429.293656376" x2="427.52033451" y1="270.005266082" y2="271.140223805" /><line stroke="rgb(0%,0%,0%)" x1="429.293656376" x2="431.452891542" y1="270.005266082" y2="268.383789823" /><line stroke="rgb(0%,0%,0%)" x1="436.752149958" x2="431.452891542" y1="269.892673901" y2="268.383789823" /><line stroke="rgb(0%,0%,0%)" x1="447.061009326" x2="446.165024618" y1="346.053622786" y2="345.194796065" /><line stroke="rgb(0%,0%,0%)" x1="446.165024618" x2="445.236885409" y1="345.194796065" y2="344.217259356" /><line stroke="rgb(0%,0%,0%)" x1="452.449798191" x2="447.061009326" y1="353.394105408" y2="346.053622786" /><line stroke="rgb(0%,0%,0%)" x1="445.236885409" x2="444.417485301" y1="344.217259356" y2="343.901459796" /><line stroke="rgb(0%,0%,0%)" x1="444.417485301" x2="442.188416073" y1="343.901459796" y2="342.380333002" /><line stroke="rgb(0%,0%,0%)" x1="446.131125912" x2="449.77473368" y1="333.409417807" y2="336.413916931" /><line stroke="rgb(0%,0%,0%)" x1="446.131125912" x2="438.305056602" y1="333.409417807" y2="325.641981802" /><line stroke="rgb(0%,0%,0%)" x1="437.355374764" x2="438.305056602" y1="324.60680318" y2="325.641981802" /><line stroke="rgb(0%,0%,0%)" x1="435.014432873" x2="435.939363305" y1="291.365943862" y2="293.550890439" /><line stroke="rgb(0%,0%,0%)" x1="433.058909185" x2="435.019883164" y1="283.135152281" y2="290.200309514" /><line stroke="rgb(0%,0%,0%)" x1="435.019883164" x2="435.014432873" y1="290.200309514" y2="291.365943862" /><line stroke="rgb(0%,0%,0%)" x1="441.081591073" x2="436.752149958" y1="269.762945588" y2="269.892673901" /><line stroke="rgb(0%,0%,0%)" x1="449.237578407" x2="441.081591073" y1="271.962805858" y2="269.762945588" /><line stroke="rgb(0%,0%,0%)" x1="460.985716169" x2="457.682321654" y1="365.73686673" y2="358.917429694" /><line stroke="rgb(0%,0%,0%)" x1="457.682321654" x2="452.449798191" y1="358.917429694" y2="353.394105408" /><line stroke="rgb(0%,0%,0%)" x1="454.252586025" x2="460.978871838" y1="339.883605667" y2="347.13955333" /><line stroke="rgb(0%,0%,0%)" x1="454.252586025" x2="452.235212282" y1="339.883605667" y2="338.359515475" /><line stroke="rgb(0%,0%,0%)" x1="449.77473368" x2="452.235212282" y1="336.413916931" y2="338.359515475" /><line stroke="rgb(0%,0%,0%)" x1="457.620600358" x2="449.237578407" y1="274.938715142" y2="271.962805858" /><line stroke="rgb(0%,0%,0%)" x1="463.989739635" x2="465.840852357" y1="351.433875849" y2="354.056465854" /><line stroke="rgb(0%,0%,0%)" x1="465.840852357" x2="466.245514232" y1="354.056465854" y2="354.587037708" /><line stroke="rgb(0%,0%,0%)" x1="374.761946062" x2="371.128934161" y1="311.923104843" y2="311.486227078" /><line stroke="rgb(0%,0%,0%)" x1="374.761946062" x2="377.724225886" y1="311.923104843" y2="312.691635235" /><line stroke="rgb(0%,0%,0%)" x1="397.059304688" x2="391.498002598" y1="316.650047866" y2="315.517703473" /><line stroke="rgb(0%,0%,0%)" x1="391.498002598" x2="377.724225886" y1="315.517703473" y2="312.691635235" /><line stroke="rgb(0%,0%,0%)" x1="405.75753022" x2="405.911850599" y1="297.615692669" y2="297.603870887" /><line stroke="rgb(0%,0%,0%)" x1="405.75753022" x2="405.193054861" y1="297.615692669" y2="296.850605423" /><line stroke="rgb(0%,0%,0%)" x1="407.354938709" x2="397.059304688" y1="320.453886044" y2="316.650047866" /><line stroke="rgb(0%,0%,0%)" x1="413.883717992" x2="413.106715972" y1="302.876162457" y2="302.455922182" /><line stroke="rgb(0%,0%,0%)" x1="407.132146259" x2="413.106715972" y1="298.305260064" y2="302.455922182" /><line stroke="rgb(0%,0%,0%)" x1="407.132146259" x2="406.367948334" y1="298.305260064" y2="297.893027955" /><line stroke="rgb(0%,0%,0%)" x1="406.367948334" x2="405.911850599" y1="297.893027955" y2="297.603870887" /><line stroke="rgb(0%,0%,0%)" x1="404.320996938" x2="405.193054861" y1="295.753589608" y2="296.850605423" /><line stroke="rgb(0%,0%,0%)" x1="404.320996938" x2="403.7927236" y1="295.753589608" y2="294.960367601" /><line stroke="rgb(0%,0%,0%)" x1="403.777742963" x2="403.7927236" y1="293.079220416" y2="294.960367601" /><line stroke="rgb(0%,0%,0%)" x1="403.777742963" x2="403.513041319" y1="293.079220416" y2="291.460099969" /><line stroke="rgb(0%,0%,0%)" x1="404.268338532" x2="403.513041319" y1="290.650179918" y2="291.460099969" /><line stroke="rgb(0%,0%,0%)" x1="405.651931829" x2="404.268338532" y1="289.409763164" y2="290.650179918" /><line stroke="rgb(0%,0%,0%)" x1="407.643215284" x2="405.651931829" y1="289.514161225" y2="289.409763164" /><line stroke="rgb(0%,0%,0%)" x1="421.843016381" x2="426.113745095" y1="309.14241295" y2="313.159621269" /><line stroke="rgb(0%,0%,0%)" x1="415.060169867" x2="421.505349574" y1="303.628745709" y2="308.857876518" /><line stroke="rgb(0%,0%,0%)" x1="426.591000155" x2="422.343941447" y1="292.035641084" y2="290.821824276" /><line stroke="rgb(0%,0%,0%)" x1="422.343941447" x2="413.691897784" y1="290.821824276" y2="289.540110936" /><line stroke="rgb(0%,0%,0%)" x1="431.151522981" x2="426.367147181" y1="335.099791762" y2="331.827259413" /><line stroke="rgb(0%,0%,0%)" x1="436.785780938" x2="437.355374764" y1="323.947270417" y2="324.60680318" /><line stroke="rgb(0%,0%,0%)" x1="436.029217778" x2="436.785780938" y1="323.191372292" y2="323.947270417" /><line stroke="rgb(0%,0%,0%)" x1="435.939363305" x2="432.692481015" y1="293.550890439" y2="292.696785512" /><line stroke="rgb(0%,0%,0%)" x1="371.128934161" x2="359.365374082" y1="311.486227078" y2="308.56130952" /><line stroke="rgb(0%,0%,0%)" x1="331.97477501" x2="340.139108792" y1="300.455172361" y2="302.469424538" /><line stroke="rgb(0%,0%,0%)" x1="347.65282421" x2="344.227074662" y1="303.754678243" y2="302.867832558" /><line stroke="rgb(0%,0%,0%)" x1="344.227074662" x2="340.139108792" y1="302.867832558" y2="302.469424538" /><line stroke="rgb(0%,0%,0%)" x1="359.365374082" x2="359.068161631" y1="308.56130952" y2="308.450577336" /><line stroke="rgb(0%,0%,0%)" x1="347.65282421" x2="359.068161631" y1="303.754678243" y2="308.450577336" /><line stroke="rgb(0%,0%,0%)" x1="276.97448131" x2="281.496512374" y1="305.787675112" y2="304.897129768" /><line stroke="rgb(0%,0%,0%)" x1="305.245476242" x2="312.569468608" y1="301.333033788" y2="300.594855551" /><line stroke="rgb(0%,0%,0%)" x1="317.813928325" x2="312.569468608" y1="300.908327972" y2="300.594855551" /><line stroke="rgb(0%,0%,0%)" x1="323.121932384" x2="317.813928325" y1="301.067591946" y2="300.908327972" /><line stroke="rgb(0%,0%,0%)" x1="326.877720309" x2="323.121932384" y1="300.577556185" y2="301.067591946" /><line stroke="rgb(0%,0%,0%)" x1="326.877720309" x2="331.97477501" y1="300.577556185" y2="300.455172361" /><line stroke="rgb(0%,0%,0%)" x1="276.97448131" x2="273.403020028" y1="305.787675112" y2="306.63579922" /><line stroke="rgb(0%,0%,0%)" x1="273.403020028" x2="270.077098487" y1="306.63579922" y2="306.798938466" /><line stroke="rgb(0%,0%,0%)" x1="293.103496458" x2="281.496512374" y1="303.277402883" y2="304.897129768" /><line stroke="rgb(0%,0%,0%)" x1="305.245476242" x2="293.103496458" y1="301.333033788" y2="303.277402883" /><line stroke="rgb(0%,0%,0%)" x1="233.99404722" x2="230.912131766" y1="311.995026223" y2="312.768679171" /><line stroke="rgb(0%,0%,0%)" x1="239.099238366" x2="233.99404722" y1="310.118725608" y2="311.995026223" /><line stroke="rgb(0%,0%,0%)" x1="243.569493485" x2="239.099238366" y1="309.193986759" y2="310.118725608" /><line stroke="rgb(0%,0%,0%)" x1="251.544972582" x2="243.569493485" y1="308.578564409" y2="309.193986759" /><line stroke="rgb(0%,0%,0%)" x1="251.544972582" x2="261.224066792" y1="308.578564409" y2="307.515297815" /><line stroke="rgb(0%,0%,0%)" x1="262.92037223" x2="261.224066792" y1="307.242730231" y2="307.515297815" /><line stroke="rgb(0%,0%,0%)" x1="270.077098487" x2="262.92037223" y1="306.798938466" y2="307.242730231" /><line stroke="rgb(0%,0%,0%)" x1="217.330085568" x2="209.664464561" y1="317.245993821" y2="319.721585969" /><line stroke="rgb(0%,0%,0%)" x1="224.887472832" x2="217.330085568" y1="313.986168345" y2="317.245993821" /><line stroke="rgb(0%,0%,0%)" x1="230.912131766" x2="224.887472832" y1="312.768679171" y2="313.986168345" /><line stroke="rgb(0%,0%,0%)" x1="171.38080823" x2="168.663868158" y1="331.807477476" y2="333.320949256" /><line stroke="rgb(0%,0%,0%)" x1="171.38080823" x2="173.611938181" y1="331.807477476" y2="329.970174527" /><line stroke="rgb(0%,0%,0%)" x1="180.331134321" x2="188.292814707" y1="327.351058828" y2="323.937787304" /><line stroke="rgb(0%,0%,0%)" x1="180.331134321" x2="173.611938181" y1="327.351058828" y2="329.970174527" /><line stroke="rgb(0%,0%,0%)" x1="192.948826407" x2="188.292814707" y1="322.72028586" y2="323.937787304" /><line stroke="rgb(0%,0%,0%)" x1="192.948826407" x2="206.881196968" y1="322.72028586" y2="320.199294846" /><line stroke="rgb(0%,0%,0%)" x1="207.855557483" x2="206.881196968" y1="319.840605695" y2="320.199294846" /><line stroke="rgb(0%,0%,0%)" x1="209.664464561" x2="207.855557483" y1="319.721585969" y2="319.840605695" /><line stroke="rgb(0%,0%,0%)" x1="120.400616021" x2="117.666072502" y1="369.827517632" y2="371.11060043" /><line stroke="rgb(0%,0%,0%)" x1="133.323378356" x2="133.895748194" y1="365.711817587" y2="365.473974409" /><line stroke="rgb(0%,0%,0%)" x1="133.895748194" x2="136.2400938" y1="365.473974409" y2="364.66014253" /><line stroke="rgb(0%,0%,0%)" x1="141.847403202" x2="138.335122172" y1="357.417335008" y2="362.101023175" /><line stroke="rgb(0%,0%,0%)" x1="147.37315225" x2="141.847403202" y1="352.827609253" y2="357.417335008" /><line stroke="rgb(0%,0%,0%)" x1="153.823543976" x2="147.37315225" y1="344.277056147" y2="352.827609253" /><line stroke="rgb(0%,0%,0%)" x1="168.663868158" x2="153.823543976" y1="333.320949256" y2="344.277056147" /><line stroke="rgb(0%,0%,0%)" x1="101.905343908" x2="100.014824289" y1="398.456609878" y2="399.320618394" /><line stroke="rgb(0%,0%,0%)" x1="101.905343908" x2="105.032613806" y1="398.456609878" y2="395.149766354" /><line stroke="rgb(0%,0%,0%)" x1="107.432567185" x2="105.032613806" y1="391.784532446" y2="395.149766354" /><line stroke="rgb(0%,0%,0%)" x1="107.432567185" x2="104.887408592" y1="391.784532446" y2="385.488859523" /><line stroke="rgb(0%,0%,0%)" x1="107.815290033" x2="105.056207885" y1="377.733581948" y2="381.923745908" /><line stroke="rgb(0%,0%,0%)" x1="115.849076947" x2="107.815290033" y1="373.017064355" y2="377.733581948" /><line stroke="rgb(0%,0%,0%)" x1="117.666072502" x2="115.849076947" y1="371.11060043" y2="373.017064355" /><line stroke="rgb(0%,0%,0%)" x1="133.323378356" x2="120.400616021" y1="365.711817587" y2="369.827517632" /><line stroke="rgb(0%,0%,0%)" x1="138.335122172" x2="136.2400938" y1="362.101023175" y2="364.66014253" /><line stroke="rgb(0%,0%,0%)" x1="74.3277102941" x2="71.193590114" y1="429.011319055" y2="433.20100666" /><line stroke="rgb(0%,0%,0%)" x1="74.3277102941" x2="75.5160129797" y1="429.011319055" y2="427.110398586" /><line stroke="rgb(0%,0%,0%)" x1="81.5154339888" x2="76.105923662" y1="418.300734586" y2="426.232266017" /><line stroke="rgb(0%,0%,0%)" x1="81.5154339888" x2="84.4245524" y1="418.300734586" y2="416.188446243" /><line stroke="rgb(0%,0%,0%)" x1="84.6299345577" x2="84.4245524" y1="414.745649822" y2="416.188446243" /><line stroke="rgb(0%,0%,0%)" x1="84.6299345577" x2="87.139635173" y1="414.745649822" y2="411.408270358" /><line stroke="rgb(0%,0%,0%)" x1="87.139635173" x2="93.9545478343" y1="411.408270358" y2="404.158039986" /><line stroke="rgb(0%,0%,0%)" x1="100.014824289" x2="93.9545478343" y1="399.320618394" y2="404.158039986" /><line stroke="rgb(0%,0%,0%)" x1="104.364131961" x2="104.887408592" y1="383.484502548" y2="385.488859523" /><line stroke="rgb(0%,0%,0%)" x1="105.056207885" x2="104.364131961" y1="381.923745908" y2="383.484502548" /><line stroke="rgb(0%,0%,0%)" x1="59.3418578463" x2="61.0331464164" y1="461.044920798" y2="454.923874918" /><line stroke="rgb(0%,0%,0%)" x1="62.1002991806" x2="61.0331464164" y1="450.665438531" y2="454.923874918" /><line stroke="rgb(0%,0%,0%)" x1="64.5996303964" x2="62.1002991806" y1="444.446413949" y2="450.665438531" /><line stroke="rgb(0%,0%,0%)" x1="64.5996303964" x2="66.4017949721" y1="444.446413949" y2="442.306188648" /><line stroke="rgb(0%,0%,0%)" x1="67.776611048" x2="66.4017949721" y1="439.355215487" y2="442.306188648" /><line stroke="rgb(0%,0%,0%)" x1="71.193590114" x2="67.776611048" y1="433.20100666" y2="439.355215487" /><line stroke="rgb(0%,0%,0%)" x1="76.105923662" x2="75.6985605657" y1="426.232266017" y2="426.676762087" /><line stroke="rgb(0%,0%,0%)" x1="75.6985605657" x2="75.5160129797" y1="426.676762087" y2="427.110398586" /><line stroke="rgb(0%,0%,0%)" x1="571.072342291" x2="571.060586496" y1="531.697587809" y2="531.743241591" /><line stroke="rgb(0%,0%,0%)" x1="571.072342291" x2="571.141832126" y1="531.697587809" y2="531.608503146" /><line stroke="rgb(0%,0%,0%)" x1="577.067841208" x2="576.594264194" y1="516.019142305" y2="518.570212986" /><line stroke="rgb(0%,0%,0%)" x1="578.795064815" x2="578.76059288" y1="510.921286408" y2="511.502127899" /><line stroke="rgb(0%,0%,0%)" x1="578.795064815" x2="579.141734302" y1="510.921286408" y2="510.136450381" /><line stroke="rgb(0%,0%,0%)" x1="581.504647355" x2="581.12444422" y1="498.958009415" y2="501.450194077" /><line stroke="rgb(0%,0%,0%)" x1="582.570114972" x2="581.504647355" y1="496.737287785" y2="498.958009415" /><line stroke="rgb(0%,0%,0%)" x1="582.570114972" x2="583.624736487" y1="496.737287785" y2="492.513575774" /><line stroke="rgb(0%,0%,0%)" x1="584.870470653" x2="583.634775999" y1="487.906350314" y2="491.915770166" /><line stroke="rgb(0%,0%,0%)" x1="584.870470653" x2="585.406327749" y1="487.906350314" y2="485.954746351" /><line stroke="rgb(0%,0%,0%)" x1="585.406327749" x2="586.440291221" y1="485.954746351" y2="484.17548309" /><line stroke="rgb(0%,0%,0%)" x1="586.391794258" x2="586.440291221" y1="483.833232245" y2="484.17548309" /><line stroke="rgb(0%,0%,0%)" x1="586.391794258" x2="586.96532855" y1="483.833232245" y2="481.58011997" /><line stroke="rgb(0%,0%,0%)" x1="586.96532855" x2="587.703884752" y1="481.58011997" y2="472.883151411" /><line stroke="rgb(0%,0%,0%)" x1="587.703884752" x2="587.940283579" y1="472.883151411" y2="470.915369589" /><line stroke="rgb(0%,0%,0%)" x1="587.940283579" x2="588.126222385" y1="470.915369589" y2="465.649935415" /><line stroke="rgb(0%,0%,0%)" x1="588.126222385" x2="587.787793159" y1="465.649935415" y2="458.346843634" /><line stroke="rgb(0%,0%,0%)" x1="556.828873156" x2="548.484028503" y1="557.051796615" y2="568.617572899" /><line stroke="rgb(0%,0%,0%)" x1="565.89444609" x2="560.417478377" y1="539.72768399" y2="551.602818245" /><line stroke="rgb(0%,0%,0%)" x1="565.89444609" x2="571.060586496" y1="539.72768399" y2="531.743241591" /><line stroke="rgb(0%,0%,0%)" x1="571.141832126" x2="572.535856489" y1="531.608503146" y2="528.637303687" /><line stroke="rgb(0%,0%,0%)" x1="572.535856489" x2="573.310842557" y1="528.637303687" y2="526.98942377" /><line stroke="rgb(0%,0%,0%)" x1="573.310842557" x2="576.042403156" y1="526.98942377" y2="519.381437032" /><line stroke="rgb(0%,0%,0%)" x1="576.042403156" x2="576.594264194" y1="519.381437032" y2="518.570212986" /><line stroke="rgb(0%,0%,0%)" x1="577.067841208" x2="578.76059288" y1="516.019142305" y2="511.502127899" /><line stroke="rgb(0%,0%,0%)" x1="579.141734302" x2="579.898238495" y1="510.136450381" y2="505.884688438" /><line stroke="rgb(0%,0%,0%)" x1="579.898238495" x2="581.12444422" y1="505.884688438" y2="501.450194077" /><line stroke="rgb(0%,0%,0%)" x1="583.624736487" x2="583.634775999" y1="492.513575774" y2="491.915770166" /><line stroke="rgb(0%,0%,0%)" x1="522.519034458" x2="510.451737767" y1="601.017645159" y2="614.951917464" /><line stroke="rgb(0%,0%,0%)" x1="523.836583243" x2="528.79612656" y1="598.714761951" y2="593.105924312" /><line stroke="rgb(0%,0%,0%)" x1="534.834783597" x2="528.79612656" y1="584.985151141" y2="593.105924312" /><line stroke="rgb(0%,0%,0%)" x1="534.834783597" x2="548.297479296" y1="584.985151141" y2="568.864302236" /><line stroke="rgb(0%,0%,0%)" x1="548.297479296" x2="548.484028503" y1="568.864302236" y2="568.617572899" /><line stroke="rgb(0%,0%,0%)" x1="556.828873156" x2="560.417478377" y1="557.051796615" y2="551.602818245" /><line stroke="rgb(0%,0%,0%)" x1="481.390224122" x2="479.844466402" y1="633.585933457" y2="634.158241628" /><line stroke="rgb(0%,0%,0%)" x1="492.503381144" x2="493.092060733" y1="629.173307033" y2="628.7545259" /><line stroke="rgb(0%,0%,0%)" x1="505.822140312" x2="493.092060733" y1="620.027045308" y2="628.7545259" /><line stroke="rgb(0%,0%,0%)" x1="495.784492398" x2="490.735758966" y1="505.637366397" y2="514.815672252" /><line stroke="rgb(0%,0%,0%)" x1="490.735758966" x2="489.047089937" y1="514.815672252" y2="518.094732616" /><line stroke="rgb(0%,0%,0%)" x1="499.725835166" x2="495.784492398" y1="494.118075897" y2="505.637366397" /><line stroke="rgb(0%,0%,0%)" x1="491.722504144" x2="492.392081757" y1="497.181423749" y2="495.764836002" /><line stroke="rgb(0%,0%,0%)" x1="491.722504144" x2="490.162624798" y1="497.181423749" y2="500.155565132" /><line stroke="rgb(0%,0%,0%)" x1="499.725835166" x2="500.463564037" y1="494.118075897" y2="491.966494914" /><line stroke="rgb(0%,0%,0%)" x1="492.392081757" x2="493.175886396" y1="495.764836002" y2="493.381344807" /><line stroke="rgb(0%,0%,0%)" x1="493.175886396" x2="494.661261203" y1="493.381344807" y2="482.770338009" /><line stroke="rgb(0%,0%,0%)" x1="500.663343843" x2="500.463564037" y1="490.502916274" y2="491.966494914" /><line stroke="rgb(0%,0%,0%)" x1="502.979421253" x2="500.663343843" y1="478.13893564" y2="490.502916274" /><line stroke="rgb(0%,0%,0%)" x1="494.777101404" x2="494.903564001" y1="482.104441192" y2="481.422563938" /><line stroke="rgb(0%,0%,0%)" x1="497.053379916" x2="494.903564001" y1="474.123722186" y2="481.422563938" /><line stroke="rgb(0%,0%,0%)" x1="497.053379916" x2="496.846641909" y1="474.123722186" y2="466.421138562" /><line stroke="rgb(0%,0%,0%)" x1="496.846641909" x2="496.704928538" y1="466.421138562" y2="463.87940866" /><line stroke="rgb(0%,0%,0%)" x1="496.212658223" x2="496.704928538" y1="460.977899754" y2="463.87940866" /><line stroke="rgb(0%,0%,0%)" x1="503.297152141" x2="502.979421253" y1="471.935097414" y2="478.13893564" /><line stroke="rgb(0%,0%,0%)" x1="503.477877444" x2="503.297152141" y1="468.693927096" y2="471.935097414" /><line stroke="rgb(0%,0%,0%)" x1="503.366870162" x2="503.477877444" y1="458.355828264" y2="468.693927096" /><line stroke="rgb(0%,0%,0%)" x1="505.822140312" x2="507.004806347" y1="620.027045308" y2="618.387463247" /><line stroke="rgb(0%,0%,0%)" x1="507.004806347" x2="510.451737767" y1="618.387463247" y2="614.951917464" /><line stroke="rgb(0%,0%,0%)" x1="522.519034458" x2="523.836583243" y1="601.017645159" y2="598.714761951" /><line stroke="rgb(0%,0%,0%)" x1="450.878927025" x2="456.516484874" y1="645.78546644" y2="644.052856948" /><line stroke="rgb(0%,0%,0%)" x1="457.215641931" x2="455.843803805" y1="567.840111676" y2="569.703036087" /><line stroke="rgb(0%,0%,0%)" x1="457.215641931" x2="460.079173818" y1="567.840111676" y2="563.567924053" /><line stroke="rgb(0%,0%,0%)" x1="450.227695427" x2="450.405993827" y1="552.04942738" y2="551.893021762" /><line stroke="rgb(0%,0%,0%)" x1="450.405993827" x2="450.878537305" y1="551.893021762" y2="551.309631381" /><line stroke="rgb(0%,0%,0%)" x1="450.878537305" x2="454.362935527" y1="551.309631381" y2="546.356379271" /><line stroke="rgb(0%,0%,0%)" x1="454.362935527" x2="465.514083212" y1="546.356379271" y2="538.114137568" /><line stroke="rgb(0%,0%,0%)" x1="456.516484874" x2="462.099553297" y1="644.052856948" y2="641.455320532" /><line stroke="rgb(0%,0%,0%)" x1="462.099553297" x2="467.655112733" y1="641.455320532" y2="639.411137167" /><line stroke="rgb(0%,0%,0%)" x1="472.625323571" x2="467.655112733" y1="637.757103546" y2="639.411137167" /><line stroke="rgb(0%,0%,0%)" x1="465.831422141" x2="460.079173818" y1="555.072438861" y2="563.567924053" /><line stroke="rgb(0%,0%,0%)" x1="467.945420173" x2="467.473134155" y1="551.787088107" y2="552.216148634" /><line stroke="rgb(0%,0%,0%)" x1="467.473134155" x2="465.831422141" y1="552.216148634" y2="555.072438861" /><line stroke="rgb(0%,0%,0%)" x1="467.945420173" x2="474.684590702" y1="551.787088107" y2="541.28149416" /><line stroke="rgb(0%,0%,0%)" x1="467.29525608" x2="465.514083212" y1="535.816785726" y2="538.114137568" /><line stroke="rgb(0%,0%,0%)" x1="467.29525608" x2="469.399839328" y1="535.816785726" y2="533.182194037" /><line stroke="rgb(0%,0%,0%)" x1="469.399839328" x2="472.609711442" y1="533.182194037" y2="528.4730076" /><line stroke="rgb(0%,0%,0%)" x1="472.625323571" x2="479.844466402" y1="637.757103546" y2="634.158241628" /><line stroke="rgb(0%,0%,0%)" x1="476.011959969" x2="474.684590702" y1="538.872714853" y2="541.28149416" /><line stroke="rgb(0%,0%,0%)" x1="480.029323199" x2="476.011959969" y1="532.93070417" y2="538.872714853" /><line stroke="rgb(0%,0%,0%)" x1="480.029323199" x2="485.478309865" y1="532.93070417" y2="523.784394211" /><line stroke="rgb(0%,0%,0%)" x1="472.609711442" x2="474.758968795" y1="528.4730076" y2="525.198623463" /><line stroke="rgb(0%,0%,0%)" x1="487.730623785" x2="485.478309865" y1="520.188713083" y2="523.784394211" /><line stroke="rgb(0%,0%,0%)" x1="479.619249805" x2="474.758968795" y1="517.080959308" y2="525.198623463" /><line stroke="rgb(0%,0%,0%)" x1="479.619249805" x2="484.69167271" y1="517.080959308" y2="509.143216919" /><line stroke="rgb(0%,0%,0%)" x1="484.69167271" x2="487.947718511" y1="509.143216919" y2="505.071933121" /><line stroke="rgb(0%,0%,0%)" x1="481.390224122" x2="490.663463676" y1="633.585933457" y2="629.860445064" /><line stroke="rgb(0%,0%,0%)" x1="490.663463676" x2="492.503381144" y1="629.860445064" y2="629.173307033" /><line stroke="rgb(0%,0%,0%)" x1="488.386702664" x2="487.730623785" y1="519.280995351" y2="520.188713083" /><line stroke="rgb(0%,0%,0%)" x1="488.60714237" x2="488.386702664" y1="518.823685411" y2="519.280995351" /><line stroke="rgb(0%,0%,0%)" x1="489.047089937" x2="488.60714237" y1="518.094732616" y2="518.823685411" /><line stroke="rgb(0%,0%,0%)" x1="487.947718511" x2="488.209319648" y1="505.071933121" y2="504.484536101" /><line stroke="rgb(0%,0%,0%)" x1="488.209319648" x2="488.855129263" y1="504.484536101" y2="503.118878284" /><line stroke="rgb(0%,0%,0%)" x1="488.855129263" x2="490.162624798" y1="503.118878284" y2="500.155565132" /><line stroke="rgb(0%,0%,0%)" x1="494.661261203" x2="494.748839759" y1="482.770338009" y2="482.188663199" /><line stroke="rgb(0%,0%,0%)" x1="494.748839759" x2="494.777101404" y1="482.188663199" y2="482.104441192" /><line stroke="rgb(0%,0%,0%)" x1="431.707391655" x2="415.483991546" y1="622.753667392" y2="626.868008103" /><line stroke="rgb(0%,0%,0%)" x1="431.707391655" x2="433.127951007" y1="622.753667392" y2="622.11258754" /><line stroke="rgb(0%,0%,0%)" x1="431.215577028" x2="425.686887994" y1="600.562369153" y2="605.836037411" /><line stroke="rgb(0%,0%,0%)" x1="431.215577028" x2="432.138377554" y1="600.562369153" y2="598.580920315" /><line stroke="rgb(0%,0%,0%)" x1="450.878927025" x2="446.607295393" y1="645.78546644" y2="645.965606776" /><line stroke="rgb(0%,0%,0%)" x1="439.194127661" x2="441.619016846" y1="641.564515024" y2="645.608445127" /><line stroke="rgb(0%,0%,0%)" x1="439.194127661" x2="440.776668266" y1="641.564515024" y2="635.377647377" /><line stroke="rgb(0%,0%,0%)" x1="442.648314847" x2="440.623002175" y1="628.162142384" y2="634.554255038" /><line stroke="rgb(0%,0%,0%)" x1="440.623002175" x2="440.776668266" y1="634.554255038" y2="635.377647377" /><line stroke="rgb(0%,0%,0%)" x1="442.648314847" x2="443.725861113" y1="628.162142384" y2="624.508208259" /><line stroke="rgb(0%,0%,0%)" x1="433.127951007" x2="433.992273029" y1="622.11258754" y2="621.808251084" /><line stroke="rgb(0%,0%,0%)" x1="433.992273029" x2="438.739967678" y1="621.808251084" y2="620.073540956" /><line stroke="rgb(0%,0%,0%)" x1="438.739967678" x2="439.647521734" y1="620.073540956" y2="619.657374765" /><line stroke="rgb(0%,0%,0%)" x1="439.647521734" x2="445.329075671" y1="619.657374765" y2="616.139636141" /><line stroke="rgb(0%,0%,0%)" x1="445.329075671" x2="447.532772078" y1="616.139636141" y2="614.389441232" /><line stroke="rgb(0%,0%,0%)" x1="433.119859355" x2="432.138377554" y1="597.527552987" y2="598.580920315" /><line stroke="rgb(0%,0%,0%)" x1="435.645642241" x2="433.119859355" y1="594.678711651" y2="597.527552987" /><line stroke="rgb(0%,0%,0%)" x1="439.462304748" x2="435.645642241" y1="590.964825437" y2="594.678711651" /><line stroke="rgb(0%,0%,0%)" x1="441.399194588" x2="439.462304748" y1="588.612808854" y2="590.964825437" /><line stroke="rgb(0%,0%,0%)" x1="441.399194588" x2="448.239206264" y1="588.612808854" y2="580.244874091" /><line stroke="rgb(0%,0%,0%)" x1="450.227695427" x2="448.829413829" y1="552.04942738" y2="553.994044759" /><line stroke="rgb(0%,0%,0%)" x1="438.429823898" x2="439.998913745" y1="568.435094115" y2="566.197312563" /><line stroke="rgb(0%,0%,0%)" x1="437.170814686" x2="438.429823898" y1="569.922407408" y2="568.435094115" /><line stroke="rgb(0%,0%,0%)" x1="442.631438456" x2="448.829413829" y1="562.543235358" y2="553.994044759" /><line stroke="rgb(0%,0%,0%)" x1="439.998913745" x2="442.631438456" y1="566.197312563" y2="562.543235358" /><line stroke="rgb(0%,0%,0%)" x1="441.619016846" x2="446.607295393" y1="645.608445127" y2="645.965606776" /><line stroke="rgb(0%,0%,0%)" x1="443.725861113" x2="447.344293549" y1="624.508208259" y2="619.253614673" /><line stroke="rgb(0%,0%,0%)" x1="447.594044193" x2="447.344293549" y1="617.535063095" y2="619.253614673" /><line stroke="rgb(0%,0%,0%)" x1="448.305796474" x2="447.594044193" y1="616.155433971" y2="617.535063095" /><line stroke="rgb(0%,0%,0%)" x1="451.87533509" x2="448.305796474" y1="611.580733977" y2="616.155433971" /><line stroke="rgb(0%,0%,0%)" x1="447.532772078" x2="451.87533509" y1="614.389441232" y2="611.580733977" /><line stroke="rgb(0%,0%,0%)" x1="448.253489828" x2="448.239206264" y1="580.227757515" y2="580.244874091" /><line stroke="rgb(0%,0%,0%)" x1="448.254963847" x2="448.253489828" y1="580.225181115" y2="580.227757515" /><line stroke="rgb(0%,0%,0%)" x1="452.705784618" x2="448.254963847" y1="574.015411943" y2="580.225181115" /><line stroke="rgb(0%,0%,0%)" x1="455.843803805" x2="452.705784618" y1="569.703036087" y2="574.015411943" /><line stroke="rgb(0%,0%,0%)" x1="381.687383911" x2="376.608148976" y1="604.539544797" y2="605.532477708" /><line stroke="rgb(0%,0%,0%)" x1="413.150483041" x2="414.655167782" y1="625.940867111" y2="626.771277476" /><line stroke="rgb(0%,0%,0%)" x1="410.467521834" x2="413.150483041" y1="625.223728975" y2="625.940867111" /><line stroke="rgb(0%,0%,0%)" x1="410.467521834" x2="410.482248507" y1="625.223728975" y2="624.819129215" /><line stroke="rgb(0%,0%,0%)" x1="411.512154947" x2="410.482248507" y1="621.239904266" y2="624.819129215" /><line stroke="rgb(0%,0%,0%)" x1="413.659431038" x2="412.579996693" y1="617.789742107" y2="619.359489677" /><line stroke="rgb(0%,0%,0%)" x1="412.579996693" x2="411.728811173" y1="619.359489677" y2="621.024592186" /><line stroke="rgb(0%,0%,0%)" x1="411.728811173" x2="411.512154947" y1="621.024592186" y2="621.239904266" /><line stroke="rgb(0%,0%,0%)" x1="413.92253966" x2="413.659431038" y1="617.480123049" y2="617.789742107" /><line stroke="rgb(0%,0%,0%)" x1="420.016460783" x2="420.163216397" y1="611.468885271" y2="611.381052815" /><line stroke="rgb(0%,0%,0%)" x1="420.016460783" x2="419.659341916" y1="611.468885271" y2="611.820790692" /><line stroke="rgb(0%,0%,0%)" x1="420.366132493" x2="420.163216397" y1="611.204731776" y2="611.381052815" /><line stroke="rgb(0%,0%,0%)" x1="419.659341916" x2="413.92253966" y1="611.820790692" y2="617.480123049" /><line stroke="rgb(0%,0%,0%)" x1="420.366132493" x2="420.49546944" y1="611.204731776" y2="611.078982416" /><line stroke="rgb(0%,0%,0%)" x1="420.49546944" x2="421.048832408" y1="611.078982416" y2="610.532781399" /><line stroke="rgb(0%,0%,0%)" x1="414.655167782" x2="414.942886647" y1="626.771277476" y2="626.988452939" /><line stroke="rgb(0%,0%,0%)" x1="414.942886647" x2="415.483991546" y1="626.988452939" y2="626.868008103" /><line stroke="rgb(0%,0%,0%)" x1="425.686887994" x2="421.048832408" y1="605.836037411" y2="610.532781399" /><line stroke="rgb(0%,0%,0%)" x1="332.91264593" x2="343.858922801" y1="614.19507094" y2="612.808809824" /><line stroke="rgb(0%,0%,0%)" x1="361.845984853" x2="363.350614872" y1="608.516525862" y2="608.051962605" /><line stroke="rgb(0%,0%,0%)" x1="363.350614872" x2="363.508603923" y1="608.051962605" y2="607.982322431" /><line stroke="rgb(0%,0%,0%)" x1="351.313180748" x2="361.845984853" y1="611.779465779" y2="608.516525862" /><line stroke="rgb(0%,0%,0%)" x1="374.172732331" x2="363.508603923" y1="606.128965957" y2="607.982322431" /><line stroke="rgb(0%,0%,0%)" x1="374.172732331" x2="376.608148976" y1="606.128965957" y2="605.532477708" /><line stroke="rgb(0%,0%,0%)" x1="307.100392319" x2="321.59279828" y1="611.294789924" y2="613.953080405" /><line stroke="rgb(0%,0%,0%)" x1="321.59279828" x2="325.231303388" y1="613.953080405" y2="614.39917192" /><line stroke="rgb(0%,0%,0%)" x1="332.91264593" x2="325.231303388" y1="614.19507094" y2="614.39917192" /><line stroke="rgb(0%,0%,0%)" x1="343.858922801" x2="351.313180748" y1="612.808809824" y2="611.779465779" /><line stroke="rgb(0%,0%,0%)" x1="288.971926007" x2="273.417036851" y1="609.888898001" y2="607.080204068" /><line stroke="rgb(0%,0%,0%)" x1="296.236674667" x2="302.429464526" y1="610.607768247" y2="611.517113645" /><line stroke="rgb(0%,0%,0%)" x1="302.429464526" x2="307.100392319" y1="611.517113645" y2="611.294789924" /><line stroke="rgb(0%,0%,0%)" x1="245.585233945" x2="244.501384875" y1="605.615678125" y2="605.407251304" /><line stroke="rgb(0%,0%,0%)" x1="234.67489598" x2="244.501384875" y1="604.557459957" y2="605.407251304" /><line stroke="rgb(0%,0%,0%)" x1="249.506818992" x2="260.931181117" y1="605.95345015" y2="607.221605983" /><line stroke="rgb(0%,0%,0%)" x1="245.585233945" x2="249.506818992" y1="605.615678125" y2="605.95345015" /><line stroke="rgb(0%,0%,0%)" x1="260.931181117" x2="264.551816394" y1="607.221605983" y2="607.094922098" /><line stroke="rgb(0%,0%,0%)" x1="273.417036851" x2="264.551816394" y1="607.080204068" y2="607.094922098" /><line stroke="rgb(0%,0%,0%)" x1="288.971926007" x2="295.26249446" y1="609.888898001" y2="610.415561338" /><line stroke="rgb(0%,0%,0%)" x1="295.26249446" x2="296.236674667" y1="610.415561338" y2="610.607768247" /><line stroke="rgb(0%,0%,0%)" x1="206.691492998" x2="198.950845124" y1="598.203127231" y2="595.372896986" /><line stroke="rgb(0%,0%,0%)" x1="212.242273539" x2="218.467969218" y1="599.388021818" y2="600.532720862" /><line stroke="rgb(0%,0%,0%)" x1="206.691492998" x2="212.242273539" y1="598.203127231" y2="599.388021818" /><line stroke="rgb(0%,0%,0%)" x1="233.510026501" x2="234.67489598" y1="604.268777609" y2="604.557459957" /><line stroke="rgb(0%,0%,0%)" x1="230.426918712" x2="233.510026501" y1="603.641179572" y2="604.268777609" /><line stroke="rgb(0%,0%,0%)" x1="230.426918712" x2="218.467969218" y1="603.641179572" y2="600.532720862" /><line stroke="rgb(0%,0%,0%)" x1="165.466710603" x2="172.278418525" y1="579.759280267" y2="584.19502598" /><line stroke="rgb(0%,0%,0%)" x1="158.764994772" x2="165.466710603" y1="576.236651169" y2="579.759280267" /><line stroke="rgb(0%,0%,0%)" x1="188.351878919" x2="198.950845124" y1="591.317023116" y2="595.372896986" /><line stroke="rgb(0%,0%,0%)" x1="105.527813308" x2="105.510611105" y1="539.455028885" y2="539.413418114" /><line stroke="rgb(0%,0%,0%)" x1="126.009572818" x2="132.71345731" y1="550.603341936" y2="552.370611256" /><line stroke="rgb(0%,0%,0%)" x1="123.32733706" x2="126.009572818" y1="550.071329908" y2="550.603341936" /><line stroke="rgb(0%,0%,0%)" x1="153.184891699" x2="149.420137463" y1="570.860195448" y2="566.717212118" /><line stroke="rgb(0%,0%,0%)" x1="158.764994772" x2="153.184891699" y1="576.236651169" y2="570.860195448" /><line stroke="rgb(0%,0%,0%)" x1="172.278418525" x2="188.351878919" y1="584.19502598" y2="591.317023116" /><line stroke="rgb(0%,0%,0%)" x1="73.5559535455" x2="71.7847088106" y1="492.366399985" y2="490.01623457" /><line stroke="rgb(0%,0%,0%)" x1="105.62587573" x2="118.859690482" y1="539.529716934" y2="547.77941575" /><line stroke="rgb(0%,0%,0%)" x1="105.510611105" x2="105.514183214" y1="539.413418114" y2="539.388062108" /><line stroke="rgb(0%,0%,0%)" x1="105.32058676" x2="105.524511404" y1="531.898188845" y2="539.198670398" /><line stroke="rgb(0%,0%,0%)" x1="105.514183214" x2="105.524511404" y1="539.388062108" y2="539.198670398" /><line stroke="rgb(0%,0%,0%)" x1="104.305172939" x2="106.441349298" y1="521.324311359" y2="523.823877938" /><line stroke="rgb(0%,0%,0%)" x1="104.305172939" x2="95.3866748519" y1="521.324311359" y2="515.983449631" /><line stroke="rgb(0%,0%,0%)" x1="118.859690482" x2="123.32733706" y1="547.77941575" y2="550.071329908" /><line stroke="rgb(0%,0%,0%)" x1="105.527813308" x2="105.62587573" y1="539.455028885" y2="539.529716934" /><line stroke="rgb(0%,0%,0%)" x1="144.570567597" x2="147.334503271" y1="563.919950838" y2="564.634755246" /><line stroke="rgb(0%,0%,0%)" x1="147.334503271" x2="149.420137463" y1="564.634755246" y2="566.717212118" /><line stroke="rgb(0%,0%,0%)" x1="136.205682904" x2="144.570567597" y1="556.391916822" y2="563.919950838" /><line stroke="rgb(0%,0%,0%)" x1="132.71345731" x2="136.205682904" y1="552.370611256" y2="556.391916822" /><line stroke="rgb(0%,0%,0%)" x1="68.2058234601" x2="71.0527732988" y1="485.99765798" y2="489.000285062" /><line stroke="rgb(0%,0%,0%)" x1="64.493203136" x2="68.2058234601" y1="477.719561363" y2="485.99765798" /><line stroke="rgb(0%,0%,0%)" x1="61.7209091035" x2="64.493203136" y1="473.211505605" y2="477.719561363" /><line stroke="rgb(0%,0%,0%)" x1="61.3867556832" x2="61.7209091035" y1="470.517330118" y2="473.211505605" /><line stroke="rgb(0%,0%,0%)" x1="84.3812419201" x2="94.3774443991" y1="506.729966575" y2="515.49834545" /><line stroke="rgb(0%,0%,0%)" x1="78.6956054785" x2="84.3812419201" y1="501.045208537" y2="506.729966575" /><line stroke="rgb(0%,0%,0%)" x1="76.4647128656" x2="78.6956054785" y1="499.191643171" y2="501.045208537" /><line stroke="rgb(0%,0%,0%)" x1="73.5559535455" x2="76.4647128656" y1="492.366399985" y2="499.191643171" /><line stroke="rgb(0%,0%,0%)" x1="71.7847088106" x2="71.0527732988" y1="490.01623457" y2="489.000285062" /><line stroke="rgb(0%,0%,0%)" x1="94.7654293688" x2="95.3866748519" y1="515.695513599" y2="515.983449631" /><line stroke="rgb(0%,0%,0%)" x1="94.5291692531" x2="94.7654293688" y1="515.582780047" y2="515.695513599" /><line stroke="rgb(0%,0%,0%)" x1="94.3774443991" x2="94.5291692531" y1="515.49834545" y2="515.582780047" /><line stroke="rgb(0%,0%,0%)" x1="106.756803657" x2="105.32058676" y1="528.318006893" y2="531.898188845" /><line stroke="rgb(0%,0%,0%)" x1="107.587971219" x2="106.756803657" y1="527.41095939" y2="528.318006893" /><line stroke="rgb(0%,0%,0%)" x1="107.587971219" x2="107.242174947" y1="527.41095939" y2="525.40720187" /><line stroke="rgb(0%,0%,0%)" x1="106.441349298" x2="107.242174947" y1="523.823877938" y2="525.40720187" /><line stroke="rgb(0%,0%,0%)" x1="59.3418578463" x2="61.3867556832" y1="461.044920798" y2="470.517330118" /><line stroke="rgb(0%,0%,0%)" x1="496.212658223" x2="496.408491891" y1="460.977899754" y2="460.536500131" /><line stroke="rgb(0%,0%,0%)" x1="496.408491891" x2="496.490443345" y1="460.536500131" y2="460.09170057" /><line stroke="rgb(0%,0%,0%)" x1="496.490443345" x2="495.967985765" y1="460.09170057" y2="458.357762624" /><line stroke="rgb(0%,0%,0%)" x1="431.331290485" x2="425.643895182" y1="577.703208592" y2="583.548934031" /><line stroke="rgb(0%,0%,0%)" x1="431.331290485" x2="431.845824567" y1="577.703208592" y2="577.195771228" /><line stroke="rgb(0%,0%,0%)" x1="431.845824567" x2="437.170814686" y1="577.195771228" y2="569.922407408" /><line stroke="rgb(0%,0%,0%)" x1="381.687383911" x2="384.462924506" y1="604.539544797" y2="604.064374724" /><line stroke="rgb(0%,0%,0%)" x1="386.823615859" x2="397.438050412" y1="603.4292519" y2="600.467132555" /><line stroke="rgb(0%,0%,0%)" x1="386.823615859" x2="384.462924506" y1="603.4292519" y2="604.064374724" /><line stroke="rgb(0%,0%,0%)" x1="397.438050412" x2="411.656328116" y1="600.467132555" y2="594.154760124" /><line stroke="rgb(0%,0%,0%)" x1="411.656328116" x2="412.19413067" y1="594.154760124" y2="593.9153944" /><line stroke="rgb(0%,0%,0%)" x1="412.19413067" x2="412.408243628" y1="593.9153944" y2="593.777872324" /><line stroke="rgb(0%,0%,0%)" x1="424.209877297" x2="412.408243628" y1="584.976771433" y2="593.777872324" /><line stroke="rgb(0%,0%,0%)" x1="424.209877297" x2="424.754542746" y1="584.976771433" y2="584.528657077" /><line stroke="rgb(0%,0%,0%)" x1="424.754542746" x2="425.643895182" y1="584.528657077" y2="583.548934031" /></svg>