<?xml version="1.0" encoding="utf-8" ?>
<svg baseProfile="full" height="100%" version="1.1" viewBox="0.5 0.5 685.793960571 941.299331665" width="100%" xmlns="http://www.w3.org/2000/svg" xmlns:ev="http://www.w3.org/2001/xml-events" xmlns:xlink="http://www.w3.org/1999/xlink"><defs /><line stroke="rgb(0%,0%,0%)" x1="585.030391979" x2="585.736496696" y1="446.690152451" y2="442.163263174" /><line stroke="rgb(0%,0%,0%)" x1="585.736496696" x2="585.681086053" y1="442.163263174" y2="441.509330224" /><line stroke="rgb(0%,0%,0%)" x1="581.848104765" x2="582.600624015" y1="424.823114537" y2="426.807844792" /><line stroke="rgb(0%,0%,0%)" x1="578.443622884" x2="579.030609713" y1="411.978507989" y2="413.759479203" /><line stroke="rgb(0%,0%,0%)" x1="578.443622884" x2="577.937383607" y1="411.978507989" y2="408.387918579" /><line stroke="rgb(0%,0%,0%)" x1="572.334514716" x2="573.650478315" y1="395.901452367" y2="399.478312152" /><line stroke="rgb(0%,0%,0%)" x1="572.334514716" x2="571.902230777" y1="395.901452367" y2="395.63356196" /><line stroke="rgb(0%,0%,0%)" x1="571.902230777" x2="571.831015444" y1="395.63356196" y2="394.026002653" /><line stroke="rgb(0%,0%,0%)" x1="584.785836444" x2="584.776611331" y1="455.811384024" y2="458.421807938" /><line stroke="rgb(0%,0%,0%)" x1="584.785836444" x2="585.030391979" y1="455.811384024" y2="446.690152451" /><line stroke="rgb(0%,0%,0%)" x1="585.600505921" x2="585.681086053" y1="441.0568452" y2="441.509330224" /><line stroke="rgb(0%,0%,0%)" x1="585.600505921" x2="585.081686071" y1="441.0568452" y2="435.494877194" /><line stroke="rgb(0%,0%,0%)" x1="582.600624015" x2="584.166789149" y1="426.807844792" y2="429.362684502" /><line stroke="rgb(0%,0%,0%)" x1="581.848104765" x2="581.393143783" y1="424.823114537" y2="420.743841003" /><line stroke="rgb(0%,0%,0%)" x1="580.891067134" x2="581.15351091" y1="419.996425083" y2="419.314899707" /><line stroke="rgb(0%,0%,0%)" x1="581.393143783" x2="580.891067134" y1="420.743841003" y2="419.996425083" /><line stroke="rgb(0%,0%,0%)" x1="579.030609713" x2="579.750474304" y1="413.759479203" y2="414.753888876" /><line stroke="rgb(0%,0%,0%)" x1="581.15351091" x2="579.750474304" y1="419.314899707" y2="414.753888876" /><line stroke="rgb(0%,0%,0%)" x1="553.296279594" x2="553.943187905" y1="355.116234621" y2="356.259222673" /><line stroke="rgb(0%,0%,0%)" x1="553.296279594" x2="548.903472806" y1="355.116234621" y2="347.800873235" /><line stroke="rgb(0%,0%,0%)" x1="563.776547875" x2="569.880502879" y1="377.300564542" y2="390.539893402" /><line stroke="rgb(0%,0%,0%)" x1="563.776547875" x2="562.728106325" y1="377.300564542" y2="374.468577395" /><line stroke="rgb(0%,0%,0%)" x1="560.16472259" x2="562.728106325" y1="369.171684951" y2="374.468577395" /><line stroke="rgb(0%,0%,0%)" x1="573.650478315" x2="577.200061957" y1="399.478312152" y2="406.464720132" /><line stroke="rgb(0%,0%,0%)" x1="585.081686071" x2="584.127523284" y1="435.494877194" y2="430.009505611" /><line stroke="rgb(0%,0%,0%)" x1="584.127523284" x2="584.166789149" y1="430.009505611" y2="429.362684502" /><line stroke="rgb(0%,0%,0%)" x1="499.998020461" x2="500.208444975" y1="291.840162171" y2="291.97574926" /><line stroke="rgb(0%,0%,0%)" x1="517.53689964" x2="516.800729053" y1="310.909626879" y2="309.551054935" /><line stroke="rgb(0%,0%,0%)" x1="529.403927271" x2="518.449142495" y1="324.265711025" y2="312.05970954" /><line stroke="rgb(0%,0%,0%)" x1="517.53689964" x2="518.449142495" y1="310.909626879" y2="312.05970954" /><line stroke="rgb(0%,0%,0%)" x1="539.764361143" x2="547.941241269" y1="336.733804305" y2="346.441304779" /><line stroke="rgb(0%,0%,0%)" x1="532.405262425" x2="539.764361143" y1="329.466060064" y2="336.733804305" /><line stroke="rgb(0%,0%,0%)" x1="532.405262425" x2="529.403927271" y1="329.466060064" y2="324.265711025" /><line stroke="rgb(0%,0%,0%)" x1="560.16472259" x2="553.943187905" y1="369.171684951" y2="356.259222673" /><line stroke="rgb(0%,0%,0%)" x1="548.903472806" x2="548.260135384" y1="347.800873235" y2="346.86248267" /><line stroke="rgb(0%,0%,0%)" x1="571.831015444" x2="570.729439287" y1="394.026002653" y2="392.229678666" /><line stroke="rgb(0%,0%,0%)" x1="570.729439287" x2="569.880502879" y1="392.229678666" y2="390.539893402" /><line stroke="rgb(0%,0%,0%)" x1="577.937383607" x2="577.621268588" y1="408.387918579" y2="407.861465435" /><line stroke="rgb(0%,0%,0%)" x1="577.621268588" x2="577.200061957" y1="407.861465435" y2="406.464720132" /><line stroke="rgb(0%,0%,0%)" x1="472.800996499" x2="474.743906233" y1="281.966144417" y2="282.297960866" /><line stroke="rgb(0%,0%,0%)" x1="496.168671942" x2="496.005274661" y1="432.592733322" y2="431.864068841" /><line stroke="rgb(0%,0%,0%)" x1="493.818142251" x2="494.224579687" y1="418.787383004" y2="420.292676963" /><line stroke="rgb(0%,0%,0%)" x1="493.818142251" x2="492.834913517" y1="418.787383004" y2="416.819833712" /><line stroke="rgb(0%,0%,0%)" x1="499.998020461" x2="498.754577119" y1="291.840162171" y2="291.258338728" /><line stroke="rgb(0%,0%,0%)" x1="503.89831153" x2="504.587125396" y1="429.984349367" y2="436.610478076" /><line stroke="rgb(0%,0%,0%)" x1="500.319068564" x2="500.208444975" y1="292.085242368" y2="291.97574926" /><line stroke="rgb(0%,0%,0%)" x1="516.800729053" x2="514.164647925" y1="309.551054935" y2="305.553073076" /><line stroke="rgb(0%,0%,0%)" x1="514.164647925" x2="500.92681675" y1="305.553073076" y2="292.635137514" /><line stroke="rgb(0%,0%,0%)" x1="500.319068564" x2="500.92681675" y1="292.085242368" y2="292.635137514" /><line stroke="rgb(0%,0%,0%)" x1="548.260135384" x2="547.941241269" y1="346.86248267" y2="346.441304779" /><line stroke="rgb(0%,0%,0%)" x1="479.848626807" x2="481.869297669" y1="390.846390429" y2="393.844361005" /><line stroke="rgb(0%,0%,0%)" x1="474.10514847" x2="474.738392025" y1="364.064775788" y2="365.16476734" /><line stroke="rgb(0%,0%,0%)" x1="470.899009353" x2="466.432112671" y1="281.104383079" y2="280.32923306" /><line stroke="rgb(0%,0%,0%)" x1="472.800996499" x2="470.899009353" y1="281.966144417" y2="281.104383079" /><line stroke="rgb(0%,0%,0%)" x1="481.869297669" x2="483.936083915" y1="393.844361005" y2="397.660009837" /><line stroke="rgb(0%,0%,0%)" x1="486.527330943" x2="483.936083915" y1="401.94991722" y2="397.660009837" /><line stroke="rgb(0%,0%,0%)" x1="474.986991218" x2="469.88859298" y1="384.512288112" y2="377.03628437" /><line stroke="rgb(0%,0%,0%)" x1="479.848626807" x2="474.986991218" y1="390.846390429" y2="384.512288112" /><line stroke="rgb(0%,0%,0%)" x1="483.222666752" x2="480.871424533" y1="378.910308591" y2="375.217526029" /><line stroke="rgb(0%,0%,0%)" x1="479.614214004" x2="480.871424533" y1="373.923991209" y2="375.217526029" /><line stroke="rgb(0%,0%,0%)" x1="475.534619926" x2="479.614214004" y1="366.206838658" y2="373.923991209" /><line stroke="rgb(0%,0%,0%)" x1="475.534619926" x2="474.738392025" y1="366.206838658" y2="365.16476734" /><line stroke="rgb(0%,0%,0%)" x1="474.743906233" x2="477.435839741" y1="282.297960866" y2="283.068008933" /><line stroke="rgb(0%,0%,0%)" x1="497.668453477" x2="496.168671942" y1="436.206742882" y2="432.592733322" /><line stroke="rgb(0%,0%,0%)" x1="496.005274661" x2="494.440561779" y1="431.864068841" y2="421.778316696" /><line stroke="rgb(0%,0%,0%)" x1="494.224579687" x2="494.440561779" y1="420.292676963" y2="421.778316696" /><line stroke="rgb(0%,0%,0%)" x1="490.824702633" x2="487.796274524" y1="412.203869914" y2="403.879075421" /><line stroke="rgb(0%,0%,0%)" x1="487.796274524" x2="486.527330943" y1="403.879075421" y2="401.94991722" /><line stroke="rgb(0%,0%,0%)" x1="498.408315137" x2="498.282457636" y1="408.97052414" y2="408.444179817" /><line stroke="rgb(0%,0%,0%)" x1="492.834913517" x2="490.824702633" y1="416.819833712" y2="412.203869914" /><line stroke="rgb(0%,0%,0%)" x1="494.500791552" x2="495.315985476" y1="401.351553917" y2="403.36371146" /><line stroke="rgb(0%,0%,0%)" x1="492.109785757" x2="494.500791552" y1="396.117295839" y2="401.351553917" /><line stroke="rgb(0%,0%,0%)" x1="492.109785757" x2="491.158068751" y1="396.117295839" y2="393.523266249" /><line stroke="rgb(0%,0%,0%)" x1="488.834998759" x2="489.263336367" y1="389.794842215" y2="390.617395986" /><line stroke="rgb(0%,0%,0%)" x1="488.369164461" x2="488.834998759" y1="386.737390469" y2="389.794842215" /><line stroke="rgb(0%,0%,0%)" x1="491.158068751" x2="489.263336367" y1="393.523266249" y2="390.617395986" /><line stroke="rgb(0%,0%,0%)" x1="486.551050863" x2="488.369164461" y1="383.584427628" y2="386.737390469" /><line stroke="rgb(0%,0%,0%)" x1="483.222666752" x2="486.551050863" y1="378.910308591" y2="383.584427628" /><line stroke="rgb(0%,0%,0%)" x1="498.754577119" x2="486.359923968" y1="291.258338728" y2="285.897054401" /><line stroke="rgb(0%,0%,0%)" x1="486.359923968" x2="477.435839741" y1="285.897054401" y2="283.068008933" /><line stroke="rgb(0%,0%,0%)" x1="496.402977933" x2="496.539747843" y1="456.884077005" y2="455.347923648" /><line stroke="rgb(0%,0%,0%)" x1="496.539540594" x2="496.402977933" y1="458.374342284" y2="456.884077005" /><line stroke="rgb(0%,0%,0%)" x1="505.154584342" x2="505.076476008" y1="456.560912361" y2="458.450802957" /><line stroke="rgb(0%,0%,0%)" x1="505.154584342" x2="505.51590131" y1="456.560912361" y2="452.509962259" /><line stroke="rgb(0%,0%,0%)" x1="497.783064783" x2="496.993690998" y1="448.556075672" y2="451.107011139" /><line stroke="rgb(0%,0%,0%)" x1="505.51590131" x2="505.06321695" y1="452.509962259" y2="444.91414946" /><line stroke="rgb(0%,0%,0%)" x1="497.783064783" x2="498.070564368" y1="448.556075672" y2="447.328826851" /><line stroke="rgb(0%,0%,0%)" x1="498.070564368" x2="497.793512107" y1="447.328826851" y2="444.87721057" /><line stroke="rgb(0%,0%,0%)" x1="497.793512107" x2="497.37314915" y1="444.87721057" y2="441.770449925" /><line stroke="rgb(0%,0%,0%)" x1="504.854854862" x2="505.06321695" y1="437.904448578" y2="444.91414946" /><line stroke="rgb(0%,0%,0%)" x1="497.668453477" x2="497.37314915" y1="436.206742882" y2="441.770449925" /><line stroke="rgb(0%,0%,0%)" x1="504.587125396" x2="504.854854862" y1="436.610478076" y2="437.904448578" /><line stroke="rgb(0%,0%,0%)" x1="502.208140251" x2="503.89831153" y1="422.797093443" y2="429.984349367" /><line stroke="rgb(0%,0%,0%)" x1="502.208140251" x2="501.546708667" y1="422.797093443" y2="418.388902469" /><line stroke="rgb(0%,0%,0%)" x1="500.20700923" x2="501.546708667" y1="415.152116235" y2="418.388902469" /><line stroke="rgb(0%,0%,0%)" x1="498.408315137" x2="500.20700923" y1="408.97052414" y2="415.152116235" /><line stroke="rgb(0%,0%,0%)" x1="495.315985476" x2="498.282457636" y1="403.36371146" y2="408.444179817" /><line stroke="rgb(0%,0%,0%)" x1="426.257831258" x2="429.28397074" y1="293.981021926" y2="294.30892843" /><line stroke="rgb(0%,0%,0%)" x1="440.155990384" x2="438.25289184" y1="279.54338483" y2="275.587332855" /><line stroke="rgb(0%,0%,0%)" x1="438.25289184" x2="439.739812451" y1="275.587332855" y2="274.743041894" /><line stroke="rgb(0%,0%,0%)" x1="443.717962382" x2="446.382931841" y1="344.660049568" y2="347.214498277" /><line stroke="rgb(0%,0%,0%)" x1="443.717962382" x2="440.355847801" y1="344.660049568" y2="341.118996249" /><line stroke="rgb(0%,0%,0%)" x1="432.381530465" x2="435.296435562" y1="336.270070342" y2="337.393484578" /><line stroke="rgb(0%,0%,0%)" x1="432.381530465" x2="428.813132722" y1="336.270070342" y2="333.83497979" /><line stroke="rgb(0%,0%,0%)" x1="444.274050409" x2="450.160799567" y1="329.76011383" y2="335.34527119" /><line stroke="rgb(0%,0%,0%)" x1="441.359504049" x2="444.274050409" y1="326.583180286" y2="329.76011383" /><line stroke="rgb(0%,0%,0%)" x1="448.820084934" x2="442.907533739" y1="302.679950124" y2="299.6121218" /><line stroke="rgb(0%,0%,0%)" x1="442.121246648" x2="441.946883994" y1="299.093607478" y2="298.992577664" /><line stroke="rgb(0%,0%,0%)" x1="440.792799978" x2="441.869775792" y1="287.712568887" y2="290.256689545" /><line stroke="rgb(0%,0%,0%)" x1="441.869775792" x2="443.081540908" y1="290.256689545" y2="294.014626195" /><line stroke="rgb(0%,0%,0%)" x1="440.155990384" x2="440.819814523" y1="279.54338483" y2="281.935064664" /><line stroke="rgb(0%,0%,0%)" x1="440.819814523" x2="440.792799978" y1="281.935064664" y2="287.712568887" /><line stroke="rgb(0%,0%,0%)" x1="440.649804886" x2="439.739812451" y1="273.519711666" y2="274.743041894" /><line stroke="rgb(0%,0%,0%)" x1="446.04261641" x2="445.694696314" y1="273.946494385" y2="273.440399201" /><line stroke="rgb(0%,0%,0%)" x1="440.649804886" x2="445.694696314" y1="273.519711666" y2="273.440399201" /><line stroke="rgb(0%,0%,0%)" x1="460.189237701" x2="461.489818234" y1="360.870782749" y2="363.555665532" /><line stroke="rgb(0%,0%,0%)" x1="454.227490414" x2="450.519428558" y1="354.577707561" y2="350.415301096" /><line stroke="rgb(0%,0%,0%)" x1="460.189237701" x2="454.227490414" y1="360.870782749" y2="354.577707561" /><line stroke="rgb(0%,0%,0%)" x1="450.519428558" x2="446.382931841" y1="350.415301096" y2="347.214498277" /><line stroke="rgb(0%,0%,0%)" x1="457.293342821" x2="463.477519185" y1="341.878646092" y2="348.972800808" /><line stroke="rgb(0%,0%,0%)" x1="454.164043592" x2="457.293342821" y1="338.557644448" y2="341.878646092" /><line stroke="rgb(0%,0%,0%)" x1="454.164043592" x2="450.924133281" y1="338.557644448" y2="336.087052912" /><line stroke="rgb(0%,0%,0%)" x1="450.160799567" x2="450.924133281" y1="335.34527119" y2="336.087052912" /><line stroke="rgb(0%,0%,0%)" x1="448.392249513" x2="448.820084934" y1="302.03776242" y2="302.679950124" /><line stroke="rgb(0%,0%,0%)" x1="442.907533739" x2="442.121246648" y1="299.6121218" y2="299.093607478" /><line stroke="rgb(0%,0%,0%)" x1="448.310632144" x2="448.392249513" y1="301.799135907" y2="302.03776242" /><line stroke="rgb(0%,0%,0%)" x1="443.397134081" x2="448.310632144" y1="295.063873535" y2="301.799135907" /><line stroke="rgb(0%,0%,0%)" x1="443.081540908" x2="443.397134081" y1="294.014626195" y2="295.063873535" /><line stroke="rgb(0%,0%,0%)" x1="447.636828969" x2="447.100880602" y1="273.617322162" y2="273.617858242" /><line stroke="rgb(0%,0%,0%)" x1="447.100880602" x2="446.04261641" y1="273.617858242" y2="273.946494385" /><line stroke="rgb(0%,0%,0%)" x1="448.154956061" x2="447.636828969" y1="273.710865176" y2="273.617322162" /><line stroke="rgb(0%,0%,0%)" x1="461.731072241" x2="448.154956061" y1="278.229252831" y2="273.710865176" /><line stroke="rgb(0%,0%,0%)" x1="465.096799494" x2="467.547583168" y1="370.676187812" y2="373.716879333" /><line stroke="rgb(0%,0%,0%)" x1="465.096799494" x2="463.94652559" y1="370.676187812" y2="367.845050827" /><line stroke="rgb(0%,0%,0%)" x1="463.94652559" x2="461.489818234" y1="367.845050827" y2="363.555665532" /><line stroke="rgb(0%,0%,0%)" x1="472.182020201" x2="467.73623114" y1="361.543268841" y2="355.244634606" /><line stroke="rgb(0%,0%,0%)" x1="467.50454257" x2="467.73623114" y1="354.907988135" y2="355.244634606" /><line stroke="rgb(0%,0%,0%)" x1="467.50454257" x2="465.38692186" y1="354.907988135" y2="351.716941872" /><line stroke="rgb(0%,0%,0%)" x1="463.979519938" x2="465.38692186" y1="349.707969717" y2="351.716941872" /><line stroke="rgb(0%,0%,0%)" x1="463.477519185" x2="463.979519938" y1="348.972800808" y2="349.707969717" /><line stroke="rgb(0%,0%,0%)" x1="466.432112671" x2="461.731072241" y1="280.32923306" y2="278.229252831" /><line stroke="rgb(0%,0%,0%)" x1="469.88859298" x2="468.966820211" y1="377.03628437" y2="375.807868206" /><line stroke="rgb(0%,0%,0%)" x1="468.966820211" x2="467.547583168" y1="375.807868206" y2="373.716879333" /><line stroke="rgb(0%,0%,0%)" x1="472.182020201" x2="474.10514847" y1="361.543268841" y2="364.064775788" /><line stroke="rgb(0%,0%,0%)" x1="393.954243432" x2="385.789022367" y1="315.499496375" y2="313.836964446" /><line stroke="rgb(0%,0%,0%)" x1="385.789022367" x2="372.850703903" y1="313.836964446" y2="311.182313392" /><line stroke="rgb(0%,0%,0%)" x1="393.954243432" x2="400.848291097" y1="315.499496375" y2="318.046580086" /><line stroke="rgb(0%,0%,0%)" x1="414.426344673" x2="414.21698512" y1="299.402824764" y2="299.153942335" /><line stroke="rgb(0%,0%,0%)" x1="412.207869821" x2="412.164938244" y1="296.248486185" y2="294.432904987" /><line stroke="rgb(0%,0%,0%)" x1="413.335108338" x2="413.022206423" y1="291.72955504" y2="292.091768337" /><line stroke="rgb(0%,0%,0%)" x1="424.51424574" x2="420.754508652" y1="331.410969577" y2="328.540916579" /><line stroke="rgb(0%,0%,0%)" x1="420.754508652" x2="419.08135331" y1="328.540916579" y2="326.968927866" /><line stroke="rgb(0%,0%,0%)" x1="411.662354341" x2="419.08135331" y1="322.839328661" y2="326.968927866" /><line stroke="rgb(0%,0%,0%)" x1="411.662354341" x2="406.61321791" y1="322.839328661" y2="320.12920673" /><line stroke="rgb(0%,0%,0%)" x1="418.575094002" x2="420.198899098" y1="303.283164697" y2="304.723152217" /><line stroke="rgb(0%,0%,0%)" x1="417.688854703" x2="418.575094002" y1="302.397337261" y2="303.283164697" /><line stroke="rgb(0%,0%,0%)" x1="414.426344673" x2="417.688854703" y1="299.402824764" y2="302.397337261" /><line stroke="rgb(0%,0%,0%)" x1="412.990414193" x2="414.21698512" y1="298.356579052" y2="299.153942335" /><line stroke="rgb(0%,0%,0%)" x1="412.207869821" x2="412.990414193" y1="296.248486185" y2="298.356579052" /><line stroke="rgb(0%,0%,0%)" x1="418.96929898" x2="416.395574773" y1="291.929734127" y2="291.79312669" /><line stroke="rgb(0%,0%,0%)" x1="419.432280516" x2="418.96929898" y1="292.030267585" y2="291.929734127" /><line stroke="rgb(0%,0%,0%)" x1="413.022206423" x2="412.164938244" y1="292.091768337" y2="294.432904987" /><line stroke="rgb(0%,0%,0%)" x1="426.257831258" x2="419.432280516" y1="293.981021926" y2="292.030267585" /><line stroke="rgb(0%,0%,0%)" x1="413.78210964" x2="416.395574773" y1="291.679083244" y2="291.79312669" /><line stroke="rgb(0%,0%,0%)" x1="413.335108338" x2="413.78210964" y1="291.72955504" y2="291.679083244" /><line stroke="rgb(0%,0%,0%)" x1="440.355847801" x2="437.50189187" y1="341.118996249" y2="338.807735339" /><line stroke="rgb(0%,0%,0%)" x1="437.50189187" x2="435.296435562" y1="338.807735339" y2="337.393484578" /><line stroke="rgb(0%,0%,0%)" x1="428.813132722" x2="424.51424574" y1="333.83497979" y2="331.410969577" /><line stroke="rgb(0%,0%,0%)" x1="431.458351735" x2="433.065863631" y1="316.090526601" y2="317.365069929" /><line stroke="rgb(0%,0%,0%)" x1="435.491225746" x2="441.359504049" y1="319.788300096" y2="326.583180286" /><line stroke="rgb(0%,0%,0%)" x1="435.491225746" x2="433.065863631" y1="319.788300096" y2="317.365069929" /><line stroke="rgb(0%,0%,0%)" x1="431.458351735" x2="429.503363673" y1="316.090526601" y2="314.326019999" /><line stroke="rgb(0%,0%,0%)" x1="424.99274545" x2="429.503363673" y1="309.027469289" y2="314.326019999" /><line stroke="rgb(0%,0%,0%)" x1="424.99274545" x2="420.198899098" y1="309.027469289" y2="304.723152217" /><line stroke="rgb(0%,0%,0%)" x1="436.847863041" x2="432.897473671" y1="296.594001187" y2="295.259474333" /><line stroke="rgb(0%,0%,0%)" x1="429.28397074" x2="432.897473671" y1="294.30892843" y2="295.259474333" /><line stroke="rgb(0%,0%,0%)" x1="436.847863041" x2="441.946883994" y1="296.594001187" y2="298.992577664" /><line stroke="rgb(0%,0%,0%)" x1="372.850703903" x2="369.345565421" y1="311.182313392" y2="310.173228237" /><line stroke="rgb(0%,0%,0%)" x1="404.757705556" x2="400.848291097" y1="319.69621022" y2="318.046580086" /><line stroke="rgb(0%,0%,0%)" x1="406.61321791" x2="404.757705556" y1="320.12920673" y2="319.69621022" /><line stroke="rgb(0%,0%,0%)" x1="334.291559578" x2="336.607532323" y1="300.400114339" y2="300.971496312" /><line stroke="rgb(0%,0%,0%)" x1="352.420690977" x2="345.395847209" y1="304.010097479" y2="302.327615679" /><line stroke="rgb(0%,0%,0%)" x1="345.395847209" x2="339.022038522" y1="302.327615679" y2="301.206811054" /><line stroke="rgb(0%,0%,0%)" x1="336.607532323" x2="339.022038522" y1="300.971496312" y2="301.206811054" /><line stroke="rgb(0%,0%,0%)" x1="352.420690977" x2="358.309804763" y1="304.010097479" y2="306.07502568" /><line stroke="rgb(0%,0%,0%)" x1="369.345565421" x2="358.309804763" y1="310.173228237" y2="306.07502568" /><line stroke="rgb(0%,0%,0%)" x1="324.756711317" x2="322.562923345" y1="301.49023771" y2="301.424414213" /><line stroke="rgb(0%,0%,0%)" x1="317.965895949" x2="317.786565462" y1="301.046933127" y2="300.976923556" /><line stroke="rgb(0%,0%,0%)" x1="322.562923345" x2="317.965895949" y1="301.424414213" y2="301.046933127" /><line stroke="rgb(0%,0%,0%)" x1="332.845680455" x2="324.756711317" y1="300.434830901" y2="301.49023771" /><line stroke="rgb(0%,0%,0%)" x1="317.786565462" x2="314.05135315" y1="300.976923556" y2="300.866558356" /><line stroke="rgb(0%,0%,0%)" x1="332.845680455" x2="334.291559578" y1="300.434830901" y2="300.400114339" /><line stroke="rgb(0%,0%,0%)" x1="287.285106055" x2="275.91956502" y1="303.029620312" y2="304.615654398" /><line stroke="rgb(0%,0%,0%)" x1="287.285106055" x2="300.949359377" y1="303.029620312" y2="300.841480295" /><line stroke="rgb(0%,0%,0%)" x1="302.467266295" x2="300.949359377" y1="300.734697376" y2="300.841480295" /><line stroke="rgb(0%,0%,0%)" x1="311.657460226" x2="303.77925835" y1="301.037575189" y2="300.569721286" /><line stroke="rgb(0%,0%,0%)" x1="303.77925835" x2="302.467266295" y1="300.569721286" y2="300.734697376" /><line stroke="rgb(0%,0%,0%)" x1="314.05135315" x2="311.657460226" y1="300.866558356" y2="301.037575189" /><line stroke="rgb(0%,0%,0%)" x1="232.849261797" x2="226.320635309" y1="308.580618251" y2="310.980071189" /><line stroke="rgb(0%,0%,0%)" x1="239.695737803" x2="232.849261797" y1="307.164322722" y2="308.580618251" /><line stroke="rgb(0%,0%,0%)" x1="244.438681343" x2="239.695737803" y1="306.798336751" y2="307.164322722" /><line stroke="rgb(0%,0%,0%)" x1="244.438681343" x2="250.194749011" y1="306.798336751" y2="306.166021957" /><line stroke="rgb(0%,0%,0%)" x1="255.956536173" x2="250.194749011" y1="305.240200243" y2="306.166021957" /><line stroke="rgb(0%,0%,0%)" x1="255.956536173" x2="267.425573848" y1="305.240200243" y2="304.529000137" /><line stroke="rgb(0%,0%,0%)" x1="273.018494967" x2="267.425573848" y1="304.325830984" y2="304.529000137" /><line stroke="rgb(0%,0%,0%)" x1="275.91956502" x2="273.018494967" y1="304.615654398" y2="304.325830984" /><line stroke="rgb(0%,0%,0%)" x1="214.231870414" x2="213.418191799" y1="313.794198557" y2="314.056973926" /><line stroke="rgb(0%,0%,0%)" x1="215.034060398" x2="214.231870414" y1="313.448179588" y2="313.794198557" /><line stroke="rgb(0%,0%,0%)" x1="215.034060398" x2="219.425619353" y1="313.448179588" y2="312.560714333" /><line stroke="rgb(0%,0%,0%)" x1="226.320635309" x2="219.425619353" y1="310.980071189" y2="312.560714333" /><line stroke="rgb(0%,0%,0%)" x1="176.703988055" x2="179.50162698" y1="322.147386619" y2="320.948003975" /><line stroke="rgb(0%,0%,0%)" x1="176.703988055" x2="172.073641695" y1="322.147386619" y2="323.952277055" /><line stroke="rgb(0%,0%,0%)" x1="190.562104749" x2="179.50162698" y1="318.055797399" y2="320.948003975" /><line stroke="rgb(0%,0%,0%)" x1="190.562104749" x2="198.715221864" y1="318.055797399" y2="316.580532662" /><line stroke="rgb(0%,0%,0%)" x1="203.862406918" x2="198.715221864" y1="314.685710973" y2="316.580532662" /><line stroke="rgb(0%,0%,0%)" x1="213.418191799" x2="203.862406918" y1="314.056973926" y2="314.685710973" /><line stroke="rgb(0%,0%,0%)" x1="144.993395933" x2="143.27006953" y1="340.687536885" y2="342.118943832" /><line stroke="rgb(0%,0%,0%)" x1="143.27006953" x2="131.793325579" y1="342.118943832" y2="351.937520715" /><line stroke="rgb(0%,0%,0%)" x1="145.181287192" x2="144.993395933" y1="340.438470742" y2="340.687536885" /><line stroke="rgb(0%,0%,0%)" x1="145.181287192" x2="146.008826408" y1="340.438470742" y2="339.827526669" /><line stroke="rgb(0%,0%,0%)" x1="162.251847451" x2="146.008826408" y1="329.421137142" y2="339.827526669" /><line stroke="rgb(0%,0%,0%)" x1="172.073641695" x2="162.251847451" y1="323.952277055" y2="329.421137142" /><line stroke="rgb(0%,0%,0%)" x1="106.030441296" x2="109.236743986" y1="373.425199042" y2="371.50960054" /><line stroke="rgb(0%,0%,0%)" x1="118.326731968" x2="116.982691938" y1="366.76991716" y2="367.193745199" /><line stroke="rgb(0%,0%,0%)" x1="126.233133055" x2="129.630939954" y1="357.735438154" y2="353.373530547" /><line stroke="rgb(0%,0%,0%)" x1="131.793325579" x2="130.925569068" y1="351.937520715" y2="353.186292927" /><line stroke="rgb(0%,0%,0%)" x1="130.925569068" x2="129.630939954" y1="353.186292927" y2="353.373530547" /><line stroke="rgb(0%,0%,0%)" x1="70.5017711172" x2="68.8833605977" y1="428.726453911" y2="430.889942898" /><line stroke="rgb(0%,0%,0%)" x1="70.5017711172" x2="71.115391992" y1="428.726453911" y2="427.744848386" /><line stroke="rgb(0%,0%,0%)" x1="80.5137603524" x2="78.1531333043" y1="413.807369517" y2="417.268567758" /><line stroke="rgb(0%,0%,0%)" x1="80.5137603524" x2="81.7832548523" y1="413.807369517" y2="412.885599395" /><line stroke="rgb(0%,0%,0%)" x1="81.7832548523" x2="82.059566093" y1="412.885599395" y2="410.944530737" /><line stroke="rgb(0%,0%,0%)" x1="97.4512998927" x2="82.1489378491" y1="398.197808699" y2="410.82961538" /><line stroke="rgb(0%,0%,0%)" x1="98.461556644" x2="100.515107014" y1="382.996580848" y2="390.862492989" /><line stroke="rgb(0%,0%,0%)" x1="98.461556644" x2="100.839177656" y1="382.996580848" y2="377.634614545" /><line stroke="rgb(0%,0%,0%)" x1="102.489258363" x2="100.839177656" y1="375.796000471" y2="377.634614545" /><line stroke="rgb(0%,0%,0%)" x1="102.912755301" x2="102.489258363" y1="375.47075776" y2="375.796000471" /><line stroke="rgb(0%,0%,0%)" x1="106.030441296" x2="102.912755301" y1="373.425199042" y2="375.47075776" /><line stroke="rgb(0%,0%,0%)" x1="116.982691938" x2="109.236743986" y1="367.193745199" y2="371.50960054" /><line stroke="rgb(0%,0%,0%)" x1="126.233133055" x2="118.326731968" y1="357.735438154" y2="366.76991716" /><line stroke="rgb(0%,0%,0%)" x1="56.1465236884" x2="56.8909808373" y1="461.092143257" y2="458.397832869" /><line stroke="rgb(0%,0%,0%)" x1="56.8909808373" x2="57.753410361" y1="458.397832869" y2="454.956337529" /><line stroke="rgb(0%,0%,0%)" x1="62.2053172364" x2="61.0290970846" y1="442.785607351" y2="445.712367115" /><line stroke="rgb(0%,0%,0%)" x1="62.2053172364" x2="62.5822896097" y1="442.785607351" y2="442.337920263" /><line stroke="rgb(0%,0%,0%)" x1="62.8698702702" x2="62.5822896097" y1="441.720642923" y2="442.337920263" /><line stroke="rgb(0%,0%,0%)" x1="68.8833605977" x2="62.8698702702" y1="430.889942898" y2="441.720642923" /><line stroke="rgb(0%,0%,0%)" x1="78.1531333043" x2="73.2932177648" y1="417.268567758" y2="422.571486396" /><line stroke="rgb(0%,0%,0%)" x1="73.2932177648" x2="71.115391992" y1="422.571486396" y2="427.744848386" /><line stroke="rgb(0%,0%,0%)" x1="82.1489378491" x2="82.059566093" y1="410.82961538" y2="410.944530737" /><line stroke="rgb(0%,0%,0%)" x1="97.4512998927" x2="101.03144366" y1="398.197808699" y2="393.16153005" /><line stroke="rgb(0%,0%,0%)" x1="101.305382917" x2="101.03144366" y1="392.717567572" y2="393.16153005" /><line stroke="rgb(0%,0%,0%)" x1="100.515107014" x2="101.305382917" y1="390.862492989" y2="392.717567572" /><line stroke="rgb(0%,0%,0%)" x1="57.8975496355" x2="57.753410361" y1="451.636289864" y2="454.956337529" /><line stroke="rgb(0%,0%,0%)" x1="58.8299157713" x2="57.8975496355" y1="449.99544238" y2="451.636289864" /><line stroke="rgb(0%,0%,0%)" x1="61.0290970846" x2="59.1710492579" y1="445.712367115" y2="449.080229037" /><line stroke="rgb(0%,0%,0%)" x1="59.1710492579" x2="58.8299157713" y1="449.080229037" y2="449.99544238" /><line stroke="rgb(0%,0%,0%)" x1="574.579136389" x2="574.374712736" y1="516.835955011" y2="517.937146945" /><line stroke="rgb(0%,0%,0%)" x1="579.598478816" x2="579.405706398" y1="498.181235688" y2="499.444835115" /><line stroke="rgb(0%,0%,0%)" x1="580.13869732" x2="579.598478816" y1="497.055274751" y2="498.181235688" /><line stroke="rgb(0%,0%,0%)" x1="580.13869732" x2="580.673416582" y1="497.055274751" y2="494.913748018" /><line stroke="rgb(0%,0%,0%)" x1="581.570609752" x2="580.727011959" y1="488.98520056" y2="491.722395973" /><line stroke="rgb(0%,0%,0%)" x1="581.570609752" x2="582.40553709" y1="488.98520056" y2="485.944375845" /><line stroke="rgb(0%,0%,0%)" x1="582.40553709" x2="583.787302793" y1="485.944375845" y2="483.56660814" /><line stroke="rgb(0%,0%,0%)" x1="584.907831895" x2="584.073217833" y1="472.07469182" y2="481.902802717" /><line stroke="rgb(0%,0%,0%)" x1="584.907831895" x2="585.221321589" y1="472.07469182" y2="469.465206278" /><line stroke="rgb(0%,0%,0%)" x1="585.221321589" x2="585.250317605" y1="469.465206278" y2="468.644094119" /><line stroke="rgb(0%,0%,0%)" x1="585.250317605" x2="584.776611331" y1="468.644094119" y2="458.421807938" /><line stroke="rgb(0%,0%,0%)" x1="550.605660366" x2="545.724115613" y1="560.405373611" y2="567.171090275" /><line stroke="rgb(0%,0%,0%)" x1="562.507964427" x2="560.701263485" y1="541.158816703" y2="545.076096734" /><line stroke="rgb(0%,0%,0%)" x1="562.507964427" x2="564.243606293" y1="541.158816703" y2="538.476324278" /><line stroke="rgb(0%,0%,0%)" x1="568.750472059" x2="568.054842848" y1="529.911563013" y2="531.394215102" /><line stroke="rgb(0%,0%,0%)" x1="568.750472059" x2="570.786635062" y1="529.911563013" y2="525.581998572" /><line stroke="rgb(0%,0%,0%)" x1="570.786635062" x2="572.588935935" y1="525.581998572" y2="520.562201043" /><line stroke="rgb(0%,0%,0%)" x1="572.588935935" x2="574.374712736" y1="520.562201043" y2="517.937146945" /><line stroke="rgb(0%,0%,0%)" x1="574.579136389" x2="575.550795983" y1="516.835955011" y2="514.243135013" /><line stroke="rgb(0%,0%,0%)" x1="575.550795983" x2="575.698985174" y1="514.243135013" y2="512.157252575" /><line stroke="rgb(0%,0%,0%)" x1="575.698985174" x2="576.814102313" y1="512.157252575" y2="509.93671678" /><line stroke="rgb(0%,0%,0%)" x1="577.372785611" x2="576.814102313" y1="506.796762759" y2="509.93671678" /><line stroke="rgb(0%,0%,0%)" x1="577.372785611" x2="579.405706398" y1="506.796762759" y2="499.444835115" /><line stroke="rgb(0%,0%,0%)" x1="580.673416582" x2="580.727011959" y1="494.913748018" y2="491.722395973" /><line stroke="rgb(0%,0%,0%)" x1="583.787302793" x2="584.073217833" y1="483.56660814" y2="481.902802717" /><line stroke="rgb(0%,0%,0%)" x1="519.771380504" x2="513.053642794" y1="600.179643928" y2="607.936707413" /><line stroke="rgb(0%,0%,0%)" x1="522.108704787" x2="530.9069073" y1="596.094341807" y2="586.144294746" /><line stroke="rgb(0%,0%,0%)" x1="533.336638193" x2="530.9069073" y1="582.876797797" y2="586.144294746" /><line stroke="rgb(0%,0%,0%)" x1="533.336638193" x2="538.753525994" y1="582.876797797" y2="576.390368056" /><line stroke="rgb(0%,0%,0%)" x1="538.753525994" x2="545.724115613" y1="576.390368056" y2="567.171090275" /><line stroke="rgb(0%,0%,0%)" x1="550.605660366" x2="560.701263485" y1="560.405373611" y2="545.076096734" /><line stroke="rgb(0%,0%,0%)" x1="564.243606293" x2="568.054842848" y1="538.476324278" y2="531.394215102" /><line stroke="rgb(0%,0%,0%)" x1="489.19819962" x2="495.433688294" y1="628.195404806" y2="623.759536699" /><line stroke="rgb(0%,0%,0%)" x1="503.939072949" x2="495.433688294" y1="617.928420008" y2="623.759536699" /><line stroke="rgb(0%,0%,0%)" x1="493.406885026" x2="496.817168677" y1="512.812980275" y2="506.190885739" /><line stroke="rgb(0%,0%,0%)" x1="503.471510409" x2="501.830190707" y1="484.630931588" y2="493.045141633" /><line stroke="rgb(0%,0%,0%)" x1="495.256410151" x2="496.964242534" y1="485.63213632" y2="476.423626625" /><line stroke="rgb(0%,0%,0%)" x1="497.411990359" x2="497.004044917" y1="471.541509252" y2="465.445883118" /><line stroke="rgb(0%,0%,0%)" x1="496.685694309" x2="496.539747843" y1="452.805311835" y2="455.347923648" /><line stroke="rgb(0%,0%,0%)" x1="496.685694309" x2="496.993690998" y1="452.805311835" y2="451.107011139" /><line stroke="rgb(0%,0%,0%)" x1="503.471510409" x2="505.232567734" y1="484.630931588" y2="476.2449905" /><line stroke="rgb(0%,0%,0%)" x1="505.365146333" x2="505.232567734" y1="475.754586543" y2="476.2449905" /><line stroke="rgb(0%,0%,0%)" x1="505.35388874" x2="505.365146333" y1="475.193738581" y2="475.754586543" /><line stroke="rgb(0%,0%,0%)" x1="505.143099586" x2="505.35388874" y1="469.723331282" y2="475.193738581" /><line stroke="rgb(0%,0%,0%)" x1="505.134092327" x2="505.143099586" y1="465.729869895" y2="469.723331282" /><line stroke="rgb(0%,0%,0%)" x1="505.076476008" x2="505.134092327" y1="458.450802957" y2="465.729869895" /><line stroke="rgb(0%,0%,0%)" x1="503.939072949" x2="506.267459441" y1="617.928420008" y2="614.70047517" /><line stroke="rgb(0%,0%,0%)" x1="506.267459441" x2="513.053642794" y1="614.70047517" y2="607.936707413" /><line stroke="rgb(0%,0%,0%)" x1="519.771380504" x2="522.108704787" y1="600.179643928" y2="596.094341807" /><line stroke="rgb(0%,0%,0%)" x1="463.881351301" x2="460.87200642" y1="638.809927281" y2="640.210032442" /><line stroke="rgb(0%,0%,0%)" x1="463.881351301" x2="465.10932954" y1="638.809927281" y2="638.358089312" /><line stroke="rgb(0%,0%,0%)" x1="466.207924707" x2="465.10932954" y1="637.992488455" y2="638.358089312" /><line stroke="rgb(0%,0%,0%)" x1="468.267160973" x2="464.825560047" y1="554.03556521" y2="559.118459421" /><line stroke="rgb(0%,0%,0%)" x1="468.267160973" x2="476.262337271" y1="554.03556521" y2="540.125364314" /><line stroke="rgb(0%,0%,0%)" x1="464.862557609" x2="469.784460603" y1="537.290257613" y2="531.09234347" /><line stroke="rgb(0%,0%,0%)" x1="472.339045377" x2="469.784460603" y1="527.344525631" y2="531.09234347" /><line stroke="rgb(0%,0%,0%)" x1="466.207924707" x2="470.079135724" y1="637.992488455" y2="636.062625834" /><line stroke="rgb(0%,0%,0%)" x1="470.079135724" x2="476.364957848" y1="636.062625834" y2="633.351000741" /><line stroke="rgb(0%,0%,0%)" x1="476.364957848" x2="477.82279614" y1="633.351000741" y2="632.703210383" /><line stroke="rgb(0%,0%,0%)" x1="476.313896808" x2="476.262337271" y1="540.034394219" y2="540.125364314" /><line stroke="rgb(0%,0%,0%)" x1="478.275751241" x2="476.313896808" y1="538.435266432" y2="540.034394219" /><line stroke="rgb(0%,0%,0%)" x1="478.529849535" x2="478.275751241" y1="538.052941185" y2="538.435266432" /><line stroke="rgb(0%,0%,0%)" x1="481.681388307" x2="478.655959795" y1="531.483773556" y2="537.793540257" /><line stroke="rgb(0%,0%,0%)" x1="478.655959795" x2="478.529849535" y1="537.793540257" y2="538.052941185" /><line stroke="rgb(0%,0%,0%)" x1="472.339045377" x2="476.53915819" y1="527.344525631" y2="520.945672208" /><line stroke="rgb(0%,0%,0%)" x1="485.134050361" x2="481.681388307" y1="525.971810205" y2="531.483773556" /><line stroke="rgb(0%,0%,0%)" x1="476.53915819" x2="478.230920741" y1="520.945672208" y2="518.869362273" /><line stroke="rgb(0%,0%,0%)" x1="478.230920741" x2="478.904233563" y1="518.869362273" y2="518.038674978" /><line stroke="rgb(0%,0%,0%)" x1="488.00477631" x2="478.904233563" y1="506.659568385" y2="518.038674978" /><line stroke="rgb(0%,0%,0%)" x1="489.19819962" x2="479.236853926" y1="628.195404806" y2="631.915582249" /><line stroke="rgb(0%,0%,0%)" x1="477.82279614" x2="479.236853926" y1="632.703210383" y2="631.915582249" /><line stroke="rgb(0%,0%,0%)" x1="489.256930452" x2="485.134050361" y1="520.267600712" y2="525.971810205" /><line stroke="rgb(0%,0%,0%)" x1="490.642200585" x2="489.256930452" y1="517.393808993" y2="520.267600712" /><line stroke="rgb(0%,0%,0%)" x1="493.406885026" x2="490.642200585" y1="512.812980275" y2="517.393808993" /><line stroke="rgb(0%,0%,0%)" x1="488.00477631" x2="488.895989329" y1="506.659568385" y2="504.658446081" /><line stroke="rgb(0%,0%,0%)" x1="497.210252236" x2="496.817168677" y1="504.522747586" y2="506.190885739" /><line stroke="rgb(0%,0%,0%)" x1="488.895989329" x2="491.096109485" y1="504.658446081" y2="500.005973865" /><line stroke="rgb(0%,0%,0%)" x1="491.096109485" x2="493.53936411" y1="500.005973865" y2="494.46857173" /><line stroke="rgb(0%,0%,0%)" x1="494.555157587" x2="493.53936411" y1="487.721926183" y2="494.46857173" /><line stroke="rgb(0%,0%,0%)" x1="494.555157587" x2="495.256410151" y1="487.721926183" y2="485.63213632" /><line stroke="rgb(0%,0%,0%)" x1="496.964242534" x2="497.394315365" y1="476.423626625" y2="474.781973909" /><line stroke="rgb(0%,0%,0%)" x1="497.394315365" x2="497.480196476" y1="474.781973909" y2="474.193774037" /><line stroke="rgb(0%,0%,0%)" x1="497.480196476" x2="497.411990359" y1="474.193774037" y2="471.541509252" /><line stroke="rgb(0%,0%,0%)" x1="498.923686208" x2="497.210252236" y1="501.381764372" y2="504.522747586" /><line stroke="rgb(0%,0%,0%)" x1="501.830190707" x2="498.923686208" y1="493.045141633" y2="501.381764372" /><line stroke="rgb(0%,0%,0%)" x1="428.214258772" x2="425.305033547" y1="621.400840476" y2="622.138635494" /><line stroke="rgb(0%,0%,0%)" x1="428.214258772" x2="428.51178475" y1="621.400840476" y2="621.266570894" /><line stroke="rgb(0%,0%,0%)" x1="448.345498739" x2="448.905098404" y1="639.919754699" y2="640.852985768" /><line stroke="rgb(0%,0%,0%)" x1="448.345498739" x2="448.710706847" y1="639.919754699" y2="638.491990874" /><line stroke="rgb(0%,0%,0%)" x1="448.165650213" x2="447.659697329" y1="631.263500123" y2="632.860343847" /><line stroke="rgb(0%,0%,0%)" x1="447.659697329" x2="448.710706847" y1="632.860343847" y2="638.491990874" /><line stroke="rgb(0%,0%,0%)" x1="448.165650213" x2="448.434837113" y1="631.263500123" y2="630.350693654" /><line stroke="rgb(0%,0%,0%)" x1="435.149455648" x2="432.598855885" y1="618.534106005" y2="619.46604278" /><line stroke="rgb(0%,0%,0%)" x1="435.149455648" x2="437.567718693" y1="618.534106005" y2="617.425192092" /><line stroke="rgb(0%,0%,0%)" x1="437.567718693" x2="440.606082784" y1="617.425192092" y2="615.543986557" /><line stroke="rgb(0%,0%,0%)" x1="440.606082784" x2="450.155522618" y1="615.543986557" y2="607.959738143" /><line stroke="rgb(0%,0%,0%)" x1="432.07055627" x2="436.72646781" y1="604.293497036" y2="599.210727352" /><line stroke="rgb(0%,0%,0%)" x1="437.006896556" x2="436.72646781" y1="598.891376562" y2="599.210727352" /><line stroke="rgb(0%,0%,0%)" x1="437.308189526" x2="437.006896556" y1="598.516401357" y2="598.891376562" /><line stroke="rgb(0%,0%,0%)" x1="442.630064499" x2="438.318273503" y1="591.957881093" y2="597.261359482" /><line stroke="rgb(0%,0%,0%)" x1="438.318273503" x2="437.308189526" y1="597.261359482" y2="598.516401357" /><line stroke="rgb(0%,0%,0%)" x1="441.954776864" x2="441.582957838" y1="559.424425951" y2="559.955595783" /><line stroke="rgb(0%,0%,0%)" x1="441.954776864" x2="445.423962378" y1="559.424425951" y2="556.303645709" /><line stroke="rgb(0%,0%,0%)" x1="448.905098404" x2="452.631795864" y1="640.852985768" y2="641.119817983" /><line stroke="rgb(0%,0%,0%)" x1="452.631795864" x2="457.10843605" y1="641.119817983" y2="641.260707613" /><line stroke="rgb(0%,0%,0%)" x1="448.434837113" x2="449.338774737" y1="630.350693654" y2="629.038018919" /><line stroke="rgb(0%,0%,0%)" x1="450.421037583" x2="449.338774737" y1="621.59089288" y2="629.038018919" /><line stroke="rgb(0%,0%,0%)" x1="453.505326129" x2="450.421037583" y1="615.612444457" y2="621.59089288" /><line stroke="rgb(0%,0%,0%)" x1="453.505326129" x2="458.819272557" y1="615.612444457" y2="608.802121524" /><line stroke="rgb(0%,0%,0%)" x1="450.155522618" x2="452.634589582" y1="607.959738143" y2="606.356313311" /><line stroke="rgb(0%,0%,0%)" x1="452.634589582" x2="456.237369088" y1="606.356313311" y2="604.324405001" /><line stroke="rgb(0%,0%,0%)" x1="444.0440606" x2="442.630064499" y1="590.272247864" y2="591.957881093" /><line stroke="rgb(0%,0%,0%)" x1="444.0440606" x2="449.344345538" y1="590.272247864" y2="583.232722771" /><line stroke="rgb(0%,0%,0%)" x1="450.642054099" x2="449.344345538" y1="581.392435241" y2="583.232722771" /><line stroke="rgb(0%,0%,0%)" x1="450.974834466" x2="450.642054099" y1="580.771366496" y2="581.392435241" /><line stroke="rgb(0%,0%,0%)" x1="451.829129831" x2="451.04227761" y1="579.639989041" y2="580.720086538" /><line stroke="rgb(0%,0%,0%)" x1="455.881581126" x2="451.829129831" y1="573.29546062" y2="579.639989041" /><line stroke="rgb(0%,0%,0%)" x1="451.04227761" x2="450.974834466" y1="580.720086538" y2="580.771366496" /><line stroke="rgb(0%,0%,0%)" x1="456.922404626" x2="455.881581126" y1="571.13167141" y2="573.29546062" /><line stroke="rgb(0%,0%,0%)" x1="456.922404626" x2="458.31064988" y1="571.13167141" y2="569.597818978" /><line stroke="rgb(0%,0%,0%)" x1="445.423962378" x2="446.953679662" y1="556.303645709" y2="553.424718895" /><line stroke="rgb(0%,0%,0%)" x1="446.953679662" x2="448.882794855" y1="553.424718895" y2="551.794449395" /><line stroke="rgb(0%,0%,0%)" x1="453.789712328" x2="451.388226165" y1="546.037994685" y2="548.656399043" /><line stroke="rgb(0%,0%,0%)" x1="448.882794855" x2="451.388226165" y1="551.794449395" y2="548.656399043" /><line stroke="rgb(0%,0%,0%)" x1="453.789712328" x2="455.436521507" y1="546.037994685" y2="545.109630035" /><line stroke="rgb(0%,0%,0%)" x1="457.10843605" x2="460.87200642" y1="641.260707613" y2="640.210032442" /><line stroke="rgb(0%,0%,0%)" x1="460.080211519" x2="458.819272557" y1="606.389195865" y2="608.802121524" /><line stroke="rgb(0%,0%,0%)" x1="461.149126967" x2="460.080211519" y1="604.549242139" y2="606.389195865" /><line stroke="rgb(0%,0%,0%)" x1="456.237369088" x2="461.672846137" y1="604.324405001" y2="599.627268859" /><line stroke="rgb(0%,0%,0%)" x1="464.078559965" x2="461.149126967" y1="599.703424362" y2="604.549242139" /><line stroke="rgb(0%,0%,0%)" x1="461.672846137" x2="464.078559965" y1="599.627268859" y2="599.703424362" /><line stroke="rgb(0%,0%,0%)" x1="459.993341253" x2="458.31064988" y1="567.045110766" y2="569.597818978" /><line stroke="rgb(0%,0%,0%)" x1="461.419845127" x2="459.993341253" y1="564.610980347" y2="567.045110766" /><line stroke="rgb(0%,0%,0%)" x1="464.825560047" x2="461.419845127" y1="559.118459421" y2="564.610980347" /><line stroke="rgb(0%,0%,0%)" x1="457.888664612" x2="464.862557609" y1="542.48360395" y2="537.290257613" /><line stroke="rgb(0%,0%,0%)" x1="455.436521507" x2="457.888664612" y1="545.109630035" y2="542.48360395" /><line stroke="rgb(0%,0%,0%)" x1="421.624146972" x2="421.566525811" y1="618.512752433" y2="618.961163771" /><line stroke="rgb(0%,0%,0%)" x1="421.640127866" x2="421.624146972" y1="618.457214169" y2="618.512752433" /><line stroke="rgb(0%,0%,0%)" x1="421.640127866" x2="421.676984389" y1="618.457214169" y2="618.420586306" /><line stroke="rgb(0%,0%,0%)" x1="425.305033547" x2="422.471693354" y1="622.138635494" y2="622.76931024" /><line stroke="rgb(0%,0%,0%)" x1="420.934525778" x2="422.471693354" y1="622.961410375" y2="622.76931024" /><line stroke="rgb(0%,0%,0%)" x1="421.566525811" x2="420.934525778" y1="618.961163771" y2="622.961410375" /><line stroke="rgb(0%,0%,0%)" x1="428.51178475" x2="432.598855885" y1="621.266570894" y2="619.46604278" /><line stroke="rgb(0%,0%,0%)" x1="422.963739918" x2="421.676984389" y1="615.61327951" y2="618.420586306" /><line stroke="rgb(0%,0%,0%)" x1="426.524859403" x2="426.388003118" y1="610.616539631" y2="610.945405288" /><line stroke="rgb(0%,0%,0%)" x1="426.388003118" x2="422.963739918" y1="610.945405288" y2="615.61327951" /><line stroke="rgb(0%,0%,0%)" x1="426.524859403" x2="427.093919908" y1="610.616539631" y2="609.952439143" /><line stroke="rgb(0%,0%,0%)" x1="427.093919908" x2="427.615101398" y1="609.952439143" y2="609.443127153" /><line stroke="rgb(0%,0%,0%)" x1="432.07055627" x2="427.615101398" y1="604.293497036" y2="609.443127153" /><line stroke="rgb(0%,0%,0%)" x1="360.900318289" x2="354.630770963" y1="610.55920311" y2="612.494962258" /><line stroke="rgb(0%,0%,0%)" x1="360.900318289" x2="365.033532353" y1="610.55920311" y2="608.737318968" /><line stroke="rgb(0%,0%,0%)" x1="368.88027898" x2="365.033532353" y1="608.068779309" y2="608.737318968" /><line stroke="rgb(0%,0%,0%)" x1="375.333111371" x2="377.039119336" y1="606.48833569" y2="606.141060466" /><line stroke="rgb(0%,0%,0%)" x1="368.88027898" x2="375.333111371" y1="608.068779309" y2="606.48833569" /><line stroke="rgb(0%,0%,0%)" x1="315.662918287" x2="318.888190374" y1="612.939501981" y2="613.531102169" /><line stroke="rgb(0%,0%,0%)" x1="318.888190374" x2="333.718176398" y1="613.531102169" y2="615.349302428" /><line stroke="rgb(0%,0%,0%)" x1="333.718176398" x2="335.375031199" y1="615.349302428" y2="615.562798353" /><line stroke="rgb(0%,0%,0%)" x1="344.204690194" x2="349.712439137" y1="613.658134772" y2="613.379360883" /><line stroke="rgb(0%,0%,0%)" x1="344.204690194" x2="335.375031199" y1="613.658134772" y2="615.562798353" /><line stroke="rgb(0%,0%,0%)" x1="349.712439137" x2="354.630770963" y1="613.379360883" y2="612.494962258" /><line stroke="rgb(0%,0%,0%)" x1="278.015122491" x2="274.487939342" y1="610.019854444" y2="609.382962866" /><line stroke="rgb(0%,0%,0%)" x1="293.101990257" x2="305.96269695" y1="611.512748533" y2="613.401206679" /><line stroke="rgb(0%,0%,0%)" x1="305.96269695" x2="315.662918287" y1="613.401206679" y2="612.939501981" /><line stroke="rgb(0%,0%,0%)" x1="254.809633929" x2="245.180237604" y1="610.004494991" y2="608.935588475" /><line stroke="rgb(0%,0%,0%)" x1="254.809633929" x2="272.477686753" y1="610.004494991" y2="609.386300285" /><line stroke="rgb(0%,0%,0%)" x1="274.487939342" x2="272.477686753" y1="609.382962866" y2="609.386300285" /><line stroke="rgb(0%,0%,0%)" x1="278.015122491" x2="291.0788882" y1="610.019854444" y2="611.113588102" /><line stroke="rgb(0%,0%,0%)" x1="291.0788882" x2="293.101990257" y1="611.113588102" y2="611.512748533" /><line stroke="rgb(0%,0%,0%)" x1="218.184902867" x2="206.441156477" y1="604.643396201" y2="602.484110562" /><line stroke="rgb(0%,0%,0%)" x1="229.522918097" x2="231.236617035" y1="607.257051267" y2="607.681746602" /><line stroke="rgb(0%,0%,0%)" x1="223.608028253" x2="229.522918097" y1="606.05301511" y2="607.257051267" /><line stroke="rgb(0%,0%,0%)" x1="223.608028253" x2="218.184902867" y1="606.05301511" y2="604.643396201" /><line stroke="rgb(0%,0%,0%)" x1="243.291662694" x2="245.180237604" y1="608.842944397" y2="608.935588475" /><line stroke="rgb(0%,0%,0%)" x1="239.827499208" x2="243.291662694" y1="608.690408436" y2="608.842944397" /><line stroke="rgb(0%,0%,0%)" x1="231.236617035" x2="231.732206144" y1="607.681746602" y2="607.662967825" /><line stroke="rgb(0%,0%,0%)" x1="239.827499208" x2="232.118824215" y1="608.690408436" y2="607.914307245" /><line stroke="rgb(0%,0%,0%)" x1="231.732206144" x2="232.118824215" y1="607.662967825" y2="607.914307245" /><line stroke="rgb(0%,0%,0%)" x1="205.492942012" x2="205.902953224" y1="602.217388895" y2="602.343845969" /><line stroke="rgb(0%,0%,0%)" x1="187.109540551" x2="205.492942012" y1="595.182669078" y2="602.217388895" /><line stroke="rgb(0%,0%,0%)" x1="206.089860968" x2="206.441156477" y1="602.421401239" y2="602.484110562" /><line stroke="rgb(0%,0%,0%)" x1="161.765699523" x2="151.425376356" y1="583.812868179" y2="579.379562911" /><line stroke="rgb(0%,0%,0%)" x1="187.109540551" x2="168.863275078" y1="595.182669078" y2="587.097922715" /><line stroke="rgb(0%,0%,0%)" x1="163.878527648" x2="168.863275078" y1="584.536402978" y2="587.097922715" /><line stroke="rgb(0%,0%,0%)" x1="205.902953224" x2="206.089860968" y1="602.343845969" y2="602.421401239" /><line stroke="rgb(0%,0%,0%)" x1="113.747079394" x2="108.861288652" y1="549.413192993" y2="546.367487514" /><line stroke="rgb(0%,0%,0%)" x1="113.747079394" x2="118.759482868" y1="549.413192993" y2="551.984568835" /><line stroke="rgb(0%,0%,0%)" x1="102.354123105" x2="108.861288652" y1="541.439760638" y2="546.367487514" /><line stroke="rgb(0%,0%,0%)" x1="134.410930215" x2="144.119581774" y1="569.607614067" y2="572.118449251" /><line stroke="rgb(0%,0%,0%)" x1="144.119581774" x2="151.386118307" y1="572.118449251" y2="579.373915714" /><line stroke="rgb(0%,0%,0%)" x1="130.218571624" x2="134.410930215" y1="565.83467287" y2="569.607614067" /><line stroke="rgb(0%,0%,0%)" x1="130.218571624" x2="122.086086757" y1="565.83467287" y2="556.470098392" /><line stroke="rgb(0%,0%,0%)" x1="120.096253505" x2="122.086086757" y1="554.22206908" y2="556.470098392" /><line stroke="rgb(0%,0%,0%)" x1="151.415280809" x2="151.425376356" y1="579.377530887" y2="579.379562911" /><line stroke="rgb(0%,0%,0%)" x1="151.386118307" x2="151.415280809" y1="579.373915714" y2="579.377530887" /><line stroke="rgb(0%,0%,0%)" x1="161.765699523" x2="163.878527648" y1="583.812868179" y2="584.536402978" /><line stroke="rgb(0%,0%,0%)" x1="64.853031872" x2="68.1519984786" y1="486.873665484" y2="490.353026567" /><line stroke="rgb(0%,0%,0%)" x1="64.853031872" x2="60.8766595345" y1="486.873665484" y2="478.007476237" /><line stroke="rgb(0%,0%,0%)" x1="82.925877269" x2="89.187638287" y1="510.05053557" y2="515.543170714" /><line stroke="rgb(0%,0%,0%)" x1="73.7579780499" x2="82.925877269" y1="500.884052749" y2="510.05053557" /><line stroke="rgb(0%,0%,0%)" x1="73.4822760635" x2="73.7579780499" y1="500.654982263" y2="500.884052749" /><line stroke="rgb(0%,0%,0%)" x1="73.4822760635" x2="72.3051002231" y1="500.654982263" y2="497.892804132" /><line stroke="rgb(0%,0%,0%)" x1="93.8513563451" x2="100.271367644" y1="517.913202362" y2="520.888761345" /><line stroke="rgb(0%,0%,0%)" x1="91.01142528" x2="93.8513563451" y1="516.558104752" y2="517.913202362" /><line stroke="rgb(0%,0%,0%)" x1="89.187638287" x2="91.01142528" y1="515.543170714" y2="516.558104752" /><line stroke="rgb(0%,0%,0%)" x1="100.743507203" x2="102.354123105" y1="540.224952314" y2="541.439760638" /><line stroke="rgb(0%,0%,0%)" x1="100.743507203" x2="98.7043650113" y1="540.224952314" y2="537.095345094" /><line stroke="rgb(0%,0%,0%)" x1="100.914772927" x2="98.4171840239" y1="529.071930753" y2="535.297886411" /><line stroke="rgb(0%,0%,0%)" x1="102.970517329" x2="100.914772927" y1="526.82851088" y2="529.071930753" /><line stroke="rgb(0%,0%,0%)" x1="102.970517329" x2="102.721800086" y1="526.82851088" y2="525.387289315" /><line stroke="rgb(0%,0%,0%)" x1="102.721800086" x2="100.538959016" y1="525.387289315" y2="521.071562777" /><line stroke="rgb(0%,0%,0%)" x1="100.271367644" x2="100.538959016" y1="520.888761345" y2="521.071562777" /><line stroke="rgb(0%,0%,0%)" x1="118.759482868" x2="120.096253505" y1="551.984568835" y2="554.22206908" /><line stroke="rgb(0%,0%,0%)" x1="69.9796765938" x2="72.3051002231" y1="493.019910454" y2="497.892804132" /><line stroke="rgb(0%,0%,0%)" x1="69.5320250884" x2="69.9796765938" y1="492.194907783" y2="493.019910454" /><line stroke="rgb(0%,0%,0%)" x1="68.1519984786" x2="69.5320250884" y1="490.353026567" y2="492.194907783" /><line stroke="rgb(0%,0%,0%)" x1="58.7104413667" x2="60.8766595345" y1="473.928944696" y2="478.007476237" /><line stroke="rgb(0%,0%,0%)" x1="58.4786021822" x2="58.7104413667" y1="472.322637944" y2="473.928944696" /><line stroke="rgb(0%,0%,0%)" x1="57.8932972672" x2="58.4786021822" y1="469.183576496" y2="472.322637944" /><line stroke="rgb(0%,0%,0%)" x1="56.1465236884" x2="57.8932972672" y1="461.092143257" y2="469.183576496" /><line stroke="rgb(0%,0%,0%)" x1="98.3538288208" x2="98.7043650113" y1="536.159705981" y2="537.095345094" /><line stroke="rgb(0%,0%,0%)" x1="98.4171840239" x2="98.3538288208" y1="535.297886411" y2="536.159705981" /><line stroke="rgb(0%,0%,0%)" x1="497.335834805" x2="497.004044917" y1="464.698044746" y2="465.445883118" /><line stroke="rgb(0%,0%,0%)" x1="497.335834805" x2="497.576914601" y1="464.698044746" y2="463.389560492" /><line stroke="rgb(0%,0%,0%)" x1="497.576914601" x2="496.748642258" y1="463.389560492" y2="460.640681155" /><line stroke="rgb(0%,0%,0%)" x1="441.029859879" x2="441.582957838" y1="560.966117586" y2="559.955595783" /><line stroke="rgb(0%,0%,0%)" x1="496.748642258" x2="496.72836757" y1="460.640681155" y2="458.788817715" /><line stroke="rgb(0%,0%,0%)" x1="496.72836757" x2="496.539540594" y1="458.788817715" y2="458.374342284" /><line stroke="rgb(0%,0%,0%)" x1="395.035257471" x2="390.465928597" y1="601.521697584" y2="602.796838278" /><line stroke="rgb(0%,0%,0%)" x1="382.903020534" x2="390.465928597" y1="604.865150661" y2="602.796838278" /><line stroke="rgb(0%,0%,0%)" x1="395.035257471" x2="398.428859585" y1="601.521697584" y2="600.015067817" /><line stroke="rgb(0%,0%,0%)" x1="398.428859585" x2="409.669595413" y1="600.015067817" y2="595.012029345" /><line stroke="rgb(0%,0%,0%)" x1="409.669595413" x2="414.14481997" y1="595.012029345" y2="592.137648548" /><line stroke="rgb(0%,0%,0%)" x1="417.83538073" x2="414.14481997" y1="589.385402672" y2="592.137648548" /><line stroke="rgb(0%,0%,0%)" x1="417.83538073" x2="423.168374884" y1="589.385402672" y2="584.997771247" /><line stroke="rgb(0%,0%,0%)" x1="423.168374884" x2="425.182290798" y1="584.997771247" y2="582.779213391" /><line stroke="rgb(0%,0%,0%)" x1="425.182290798" x2="427.926763237" y1="582.779213391" y2="579.147917092" /><line stroke="rgb(0%,0%,0%)" x1="427.926763237" x2="430.102807801" y1="579.147917092" y2="576.659917167" /><line stroke="rgb(0%,0%,0%)" x1="441.029859879" x2="433.172819177" y1="560.966117586" y2="572.291283869" /><line stroke="rgb(0%,0%,0%)" x1="430.102807801" x2="433.172819177" y1="576.659917167" y2="572.291283869" /><line stroke="rgb(0%,0%,0%)" x1="378.873902122" x2="382.903020534" y1="606.064264554" y2="604.865150661" /><line stroke="rgb(0%,0%,0%)" x1="378.873902122" x2="377.039119336" y1="606.064264554" y2="606.141060466" /></svg>