<?xml version="1.0" encoding="utf-8" ?>
<svg baseProfile="full" height="100%" version="1.1" viewBox="0.5 0.5 685.793960571 941.299331665" width="100%" xmlns="http://www.w3.org/2000/svg" xmlns:ev="http://www.w3.org/2001/xml-events" xmlns:xlink="http://www.w3.org/1999/xlink"><defs /><line stroke="rgb(0%,0%,0%)" x1="582.069027701" x2="582.357620063" y1="446.472757924" y2="444.622571065" /><line stroke="rgb(0%,0%,0%)" x1="579.264134383" x2="579.636882328" y1="425.477783917" y2="426.460887174" /><line stroke="rgb(0%,0%,0%)" x1="576.055340391" x2="576.246049652" y1="412.193748094" y2="412.772377266" /><line stroke="rgb(0%,0%,0%)" x1="576.055340391" x2="575.890865631" y1="412.193748094" y2="411.027182481" /><line stroke="rgb(0%,0%,0%)" x1="569.80214549" x2="570.230747085" y1="395.838641762" y2="397.003603933" /><line stroke="rgb(0%,0%,0%)" x1="569.80214549" x2="569.661353157" y1="395.838641762" y2="395.751391434" /><line stroke="rgb(0%,0%,0%)" x1="569.661353157" x2="569.638158742" y1="395.751391434" y2="395.227818833" /><line stroke="rgb(0%,0%,0%)" x1="581.768281507" x2="581.765429502" y1="457.689742581" y2="458.496772242" /><line stroke="rgb(0%,0%,0%)" x1="581.768281507" x2="582.069027701" y1="457.689742581" y2="446.472757924" /><line stroke="rgb(0%,0%,0%)" x1="579.636882328" x2="580.412656285" y1="426.460887174" y2="427.726384706" /><line stroke="rgb(0%,0%,0%)" x1="579.264134383" x2="578.730704746" y1="425.477783917" y2="420.694944328" /><line stroke="rgb(0%,0%,0%)" x1="578.512366644" x2="578.626495584" y1="420.369915523" y2="420.073540543" /><line stroke="rgb(0%,0%,0%)" x1="578.730704746" x2="578.512366644" y1="420.694944328" y2="420.369915523" /><line stroke="rgb(0%,0%,0%)" x1="576.246049652" x2="576.479930272" y1="412.772377266" y2="413.095456292" /><line stroke="rgb(0%,0%,0%)" x1="578.626495584" x2="576.479930272" y1="420.073540543" y2="413.095456292" /><line stroke="rgb(0%,0%,0%)" x1="561.889175805" x2="565.550085649" y1="379.980869761" y2="387.921293524" /><line stroke="rgb(0%,0%,0%)" x1="561.889175805" x2="559.763754026" y1="379.980869761" y2="374.23980851" /><line stroke="rgb(0%,0%,0%)" x1="559.031354183" x2="559.763754026" y1="372.726401391" y2="374.23980851" /><line stroke="rgb(0%,0%,0%)" x1="570.230747085" x2="571.386825577" y1="397.003603933" y2="399.279035874" /><line stroke="rgb(0%,0%,0%)" x1="580.25815443" x2="581.925838698" y1="430.271472209" y2="439.858796317" /><line stroke="rgb(0%,0%,0%)" x1="580.25815443" x2="580.412656285" y1="430.271472209" y2="427.726384706" /><line stroke="rgb(0%,0%,0%)" x1="535.616498317" x2="539.755410286" y1="336.505912453" y2="341.419582371" /><line stroke="rgb(0%,0%,0%)" x1="531.891524819" x2="535.616498317" y1="332.82718008" y2="336.505912453" /><line stroke="rgb(0%,0%,0%)" x1="531.891524819" x2="530.168767271" y1="332.82718008" y2="329.842195032" /><line stroke="rgb(0%,0%,0%)" x1="559.031354183" x2="556.066143056" y1="372.726401391" y2="366.572264387" /><line stroke="rgb(0%,0%,0%)" x1="545.596304501" x2="549.281468278" y1="349.133915709" y2="354.509202149" /><line stroke="rgb(0%,0%,0%)" x1="569.638158742" x2="567.329368772" y1="395.227818833" y2="391.462909093" /><line stroke="rgb(0%,0%,0%)" x1="567.329368772" x2="565.550085649" y1="391.462909093" y2="387.921293524" /><line stroke="rgb(0%,0%,0%)" x1="582.357620063" x2="581.82259572" y1="444.622571065" y2="441.692169786" /><line stroke="rgb(0%,0%,0%)" x1="581.82259572" x2="581.925838698" y1="441.692169786" y2="439.858796317" /><line stroke="rgb(0%,0%,0%)" x1="575.890865631" x2="573.959829553" y1="411.027182481" y2="407.811264369" /><line stroke="rgb(0%,0%,0%)" x1="573.959829553" x2="571.386825577" y1="407.811264369" y2="399.279035874" /><line stroke="rgb(0%,0%,0%)" x1="512.136872731" x2="514.429140053" y1="308.392921387" y2="311.869462027" /><line stroke="rgb(0%,0%,0%)" x1="512.136872731" x2="502.863450264" y1="308.392921387" y2="299.343593572" /><line stroke="rgb(0%,0%,0%)" x1="530.168767271" x2="525.935116524" y1="329.842195032" y2="325.242014681" /><line stroke="rgb(0%,0%,0%)" x1="525.935116524" x2="518.197965947" y1="325.242014681" y2="316.523796501" /><line stroke="rgb(0%,0%,0%)" x1="518.197965947" x2="514.429140053" y1="316.523796501" y2="311.869462027" /><line stroke="rgb(0%,0%,0%)" x1="545.596304501" x2="539.755410286" y1="349.133915709" y2="341.419582371" /><line stroke="rgb(0%,0%,0%)" x1="556.066143056" x2="551.16826427" y1="366.572264387" y2="357.813632619" /><line stroke="rgb(0%,0%,0%)" x1="551.16826427" x2="549.281468278" y1="357.813632619" y2="354.509202149" /><line stroke="rgb(0%,0%,0%)" x1="475.084106539" x2="481.912454325" y1="383.182096928" y2="393.194801156" /><line stroke="rgb(0%,0%,0%)" x1="481.561057921" x2="483.255446626" y1="374.791238201" y2="377.204755975" /><line stroke="rgb(0%,0%,0%)" x1="481.561057921" x2="479.84186385" y1="374.791238201" y2="371.540933752" /><line stroke="rgb(0%,0%,0%)" x1="497.613070189" x2="497.293795282" y1="433.876851127" y2="433.107497363" /><line stroke="rgb(0%,0%,0%)" x1="491.219442879" x2="494.295107481" y1="408.39086019" y2="416.845502273" /><line stroke="rgb(0%,0%,0%)" x1="488.078367938" x2="488.027820926" y1="403.615525357" y2="403.477212041" /><line stroke="rgb(0%,0%,0%)" x1="491.219442879" x2="488.078367938" y1="408.39086019" y2="403.615525357" /><line stroke="rgb(0%,0%,0%)" x1="493.61056506" x2="492.330942372" y1="397.66311298" y2="394.767605015" /><line stroke="rgb(0%,0%,0%)" x1="490.316355096" x2="492.330942372" y1="390.898912814" y2="394.767605015" /><line stroke="rgb(0%,0%,0%)" x1="490.108778766" x2="490.316355096" y1="389.536508598" y2="390.898912814" /><line stroke="rgb(0%,0%,0%)" x1="490.108778766" x2="486.08131346" y1="389.536508598" y2="382.552099885" /><line stroke="rgb(0%,0%,0%)" x1="485.559787052" x2="486.08131346" y1="381.622406799" y2="382.552099885" /><line stroke="rgb(0%,0%,0%)" x1="488.745487924" x2="495.091632636" y1="290.756424859" y2="293.501438032" /><line stroke="rgb(0%,0%,0%)" x1="488.745487924" x2="478.130405589" y1="290.756424859" y2="287.391312002" /><line stroke="rgb(0%,0%,0%)" x1="497.669375542" x2="497.511156842" y1="458.486555567" y2="456.75996477" /><line stroke="rgb(0%,0%,0%)" x1="507.075080826" x2="507.111171273" y1="458.549222875" y2="457.675987055" /><line stroke="rgb(0%,0%,0%)" x1="498.553845409" x2="498.61255392" y1="448.331627916" y2="447.538396611" /><line stroke="rgb(0%,0%,0%)" x1="498.962044452" x2="498.61255392" y1="446.046527177" y2="447.538396611" /><line stroke="rgb(0%,0%,0%)" x1="506.785242617" x2="507.352723096" y1="442.239687239" y2="453.827076597" /><line stroke="rgb(0%,0%,0%)" x1="498.962044452" x2="498.40514001" y1="446.046527177" y2="441.118518315" /><line stroke="rgb(0%,0%,0%)" x1="498.40514001" x2="497.560165861" y1="441.118518315" y2="434.873599765" /><line stroke="rgb(0%,0%,0%)" x1="506.531789392" x2="506.785242617" y1="433.713033882" y2="442.239687239" /><line stroke="rgb(0%,0%,0%)" x1="497.613070189" x2="497.560165861" y1="433.876851127" y2="434.873599765" /><line stroke="rgb(0%,0%,0%)" x1="506.531789392" x2="506.053092329" y1="433.713033882" y2="431.399430202" /><line stroke="rgb(0%,0%,0%)" x1="497.293795282" x2="497.432175977" y1="433.107497363" y2="432.118566967" /><line stroke="rgb(0%,0%,0%)" x1="497.432175977" x2="496.991958293" y1="432.118566967" y2="430.047275555" /><line stroke="rgb(0%,0%,0%)" x1="496.991958293" x2="496.71442431" y1="430.047275555" y2="427.825333994" /><line stroke="rgb(0%,0%,0%)" x1="505.590766121" x2="506.053092329" y1="429.676763302" y2="431.399430202" /><line stroke="rgb(0%,0%,0%)" x1="496.71442431" x2="495.341113497" y1="427.825333994" y2="420.311680549" /><line stroke="rgb(0%,0%,0%)" x1="495.341113497" x2="494.980748504" y1="420.311680549" y2="418.995846367" /><line stroke="rgb(0%,0%,0%)" x1="502.920578679" x2="504.888868336" y1="418.652763763" y2="427.022685599" /><line stroke="rgb(0%,0%,0%)" x1="504.888868336" x2="505.590766121" y1="427.022685599" y2="429.676763302" /><line stroke="rgb(0%,0%,0%)" x1="502.920578679" x2="502.667562768" y1="418.652763763" y2="416.966508549" /><line stroke="rgb(0%,0%,0%)" x1="494.980748504" x2="494.295107481" y1="418.995846367" y2="416.845502273" /><line stroke="rgb(0%,0%,0%)" x1="502.155090605" x2="502.667562768" y1="415.728348112" y2="416.966508549" /><line stroke="rgb(0%,0%,0%)" x1="502.155090605" x2="501.302265839" y1="415.728348112" y2="412.797435704" /><line stroke="rgb(0%,0%,0%)" x1="500.112966414" x2="501.302265839" y1="408.992956319" y2="412.797435704" /><line stroke="rgb(0%,0%,0%)" x1="500.112966414" x2="498.262604907" y1="408.992956319" y2="405.813020858" /><line stroke="rgb(0%,0%,0%)" x1="493.61056506" x2="498.262604907" y1="397.66311298" y2="405.813020858" /><line stroke="rgb(0%,0%,0%)" x1="502.863450264" x2="500.728973634" y1="299.343593572" y2="297.390626061" /><line stroke="rgb(0%,0%,0%)" x1="500.728973634" x2="495.091632636" y1="297.390626061" y2="293.501438032" /><line stroke="rgb(0%,0%,0%)" x1="507.352723096" x2="507.111171273" y1="453.827076597" y2="457.675987055" /><line stroke="rgb(0%,0%,0%)" x1="443.662751406" x2="437.674954933" y1="303.73623242" y2="300.266762611" /><line stroke="rgb(0%,0%,0%)" x1="446.571167084" x2="446.665052235" y1="284.059193913" y2="284.280977122" /><line stroke="rgb(0%,0%,0%)" x1="446.665052235" x2="449.480750495" y1="284.280977122" y2="293.013045369" /><line stroke="rgb(0%,0%,0%)" x1="446.571167084" x2="446.577392059" y1="284.059193913" y2="282.72788083" /><line stroke="rgb(0%,0%,0%)" x1="448.448445925" x2="446.577392059" y1="279.176090812" y2="282.72788083" /><line stroke="rgb(0%,0%,0%)" x1="445.66842428" x2="454.055157471" y1="345.476475345" y2="352.745292869" /><line stroke="rgb(0%,0%,0%)" x1="456.064069898" x2="464.326735724" y1="339.22801554" y2="348.946848579" /><line stroke="rgb(0%,0%,0%)" x1="451.926136762" x2="456.064069898" y1="334.796319928" y2="339.22801554" /><line stroke="rgb(0%,0%,0%)" x1="451.926136762" x2="448.540465197" y1="334.796319928" y2="331.258954898" /><line stroke="rgb(0%,0%,0%)" x1="461.935875023" x2="459.06017925" y1="315.910849705" y2="314.593983734" /><line stroke="rgb(0%,0%,0%)" x1="453.693078344" x2="459.06017925" y1="311.901302445" y2="314.593983734" /><line stroke="rgb(0%,0%,0%)" x1="453.693078344" x2="448.598811267" y1="311.901302445" y2="306.99130014" /><line stroke="rgb(0%,0%,0%)" x1="453.709394092" x2="457.181417029" y1="303.139717126" y2="308.351278227" /><line stroke="rgb(0%,0%,0%)" x1="443.662751406" x2="448.598811267" y1="303.73623242" y2="306.99130014" /><line stroke="rgb(0%,0%,0%)" x1="451.843703042" x2="453.709394092" y1="297.684954801" y2="303.139717126" /><line stroke="rgb(0%,0%,0%)" x1="450.214073428" x2="451.843703042" y1="295.451111849" y2="297.684954801" /><line stroke="rgb(0%,0%,0%)" x1="449.480750495" x2="450.214073428" y1="293.013045369" y2="295.451111849" /><line stroke="rgb(0%,0%,0%)" x1="455.128573552" x2="450.592891406" y1="278.505612284" y2="278.510149076" /><line stroke="rgb(0%,0%,0%)" x1="450.592891406" x2="448.448445925" y1="278.510149076" y2="279.176090812" /><line stroke="rgb(0%,0%,0%)" x1="459.51343588" x2="455.128573552" y1="279.297258277" y2="278.505612284" /><line stroke="rgb(0%,0%,0%)" x1="464.275354825" x2="459.51343588" y1="280.882114762" y2="279.297258277" /><line stroke="rgb(0%,0%,0%)" x1="468.387489894" x2="469.225389146" y1="373.8352202" y2="374.874803244" /><line stroke="rgb(0%,0%,0%)" x1="468.387489894" x2="465.780707061" y1="373.8352202" y2="367.41921853" /><line stroke="rgb(0%,0%,0%)" x1="465.780707061" x2="463.820270826" y1="367.41921853" y2="363.996317412" /><line stroke="rgb(0%,0%,0%)" x1="463.820270826" x2="462.368534066" y1="363.996317412" y2="362.241567061" /><line stroke="rgb(0%,0%,0%)" x1="462.368534066" x2="460.287341019" y1="362.241567061" y2="359.773164506" /><line stroke="rgb(0%,0%,0%)" x1="460.287341019" x2="455.959384061" y1="359.773164506" y2="354.609528898" /><line stroke="rgb(0%,0%,0%)" x1="466.162205297" x2="469.835073364" y1="351.607222387" y2="356.138809639" /><line stroke="rgb(0%,0%,0%)" x1="466.162205297" x2="464.326735724" y1="351.607222387" y2="348.946848579" /><line stroke="rgb(0%,0%,0%)" x1="462.641905888" x2="461.935875023" y1="316.460130515" y2="315.910849705" /><line stroke="rgb(0%,0%,0%)" x1="462.836986709" x2="462.641905888" y1="316.500730405" y2="316.460130515" /><line stroke="rgb(0%,0%,0%)" x1="462.423936154" x2="462.836986709" y1="315.759907169" y2="316.500730405" /><line stroke="rgb(0%,0%,0%)" x1="458.270435431" x2="462.423936154" y1="310.331879861" y2="315.759907169" /><line stroke="rgb(0%,0%,0%)" x1="457.181417029" x2="458.270435431" y1="308.351278227" y2="310.331879861" /><line stroke="rgb(0%,0%,0%)" x1="464.275354825" x2="468.147929021" y1="280.882114762" y2="282.612014636" /><line stroke="rgb(0%,0%,0%)" x1="475.084106539" x2="472.777236177" y1="383.182096928" y2="380.107806889" /><line stroke="rgb(0%,0%,0%)" x1="472.777236177" x2="469.225389146" y1="380.107806889" y2="374.874803244" /><line stroke="rgb(0%,0%,0%)" x1="483.255446626" x2="484.845727048" y1="377.204755975" y2="380.363805343" /><line stroke="rgb(0%,0%,0%)" x1="478.147861262" x2="478.802040147" y1="368.678075755" y2="369.813282995" /><line stroke="rgb(0%,0%,0%)" x1="479.84186385" x2="478.802040147" y1="371.540933752" y2="369.813282995" /><line stroke="rgb(0%,0%,0%)" x1="476.956031756" x2="478.147861262" y1="366.177970243" y2="368.678075755" /><line stroke="rgb(0%,0%,0%)" x1="474.354515051" x2="476.956031756" y1="361.971294471" y2="366.177970243" /><line stroke="rgb(0%,0%,0%)" x1="469.835073364" x2="471.654531056" y1="356.138809639" y2="358.403154255" /><line stroke="rgb(0%,0%,0%)" x1="474.354515051" x2="471.654531056" y1="361.971294471" y2="358.403154255" /><line stroke="rgb(0%,0%,0%)" x1="478.130405589" x2="472.592871751" y1="287.391312002" y2="284.705360225" /><line stroke="rgb(0%,0%,0%)" x1="472.592871751" x2="469.378465245" y1="284.705360225" y2="283.609255728" /><line stroke="rgb(0%,0%,0%)" x1="469.378465245" x2="468.147929021" y1="283.609255728" y2="282.612014636" /><line stroke="rgb(0%,0%,0%)" x1="488.027820926" x2="487.674997508" y1="403.477212041" y2="402.852516934" /><line stroke="rgb(0%,0%,0%)" x1="487.674997508" x2="487.386092515" y1="402.852516934" y2="402.441461401" /><line stroke="rgb(0%,0%,0%)" x1="483.181152536" x2="487.386092515" y1="395.201126726" y2="402.441461401" /><line stroke="rgb(0%,0%,0%)" x1="483.181152536" x2="481.912454325" y1="395.201126726" y2="393.194801156" /><line stroke="rgb(0%,0%,0%)" x1="484.845727048" x2="485.559787052" y1="380.363805343" y2="381.622406799" /><line stroke="rgb(0%,0%,0%)" x1="380.080042136" x2="383.293873882" y1="312.156225419" y2="312.810598136" /><line stroke="rgb(0%,0%,0%)" x1="380.080042136" x2="378.416908877" y1="312.156225419" y2="311.814987995" /><line stroke="rgb(0%,0%,0%)" x1="403.903177088" x2="417.808818709" y1="319.039429028" y2="326.503276528" /><line stroke="rgb(0%,0%,0%)" x1="422.169983998" x2="420.576292835" y1="299.635453458" y2="297.183188078" /><line stroke="rgb(0%,0%,0%)" x1="438.793539866" x2="429.34736302" y1="342.659555265" y2="335.717128505" /><line stroke="rgb(0%,0%,0%)" x1="428.965075563" x2="429.34736302" y1="335.407535058" y2="335.717128505" /><line stroke="rgb(0%,0%,0%)" x1="428.965075563" x2="428.689072882" y1="335.407535058" y2="335.2305481" /><line stroke="rgb(0%,0%,0%)" x1="428.689072882" x2="420.54614474" y1="335.2305481" y2="328.672288238" /><line stroke="rgb(0%,0%,0%)" x1="428.003890665" x2="434.370905163" y1="308.106119436" y2="315.150735899" /><line stroke="rgb(0%,0%,0%)" x1="426.784080968" x2="428.003890665" y1="306.529414708" y2="308.106119436" /><line stroke="rgb(0%,0%,0%)" x1="426.784080968" x2="424.502672322" y1="306.529414708" y2="303.886894908" /><line stroke="rgb(0%,0%,0%)" x1="423.536818403" x2="424.502672322" y1="302.906400785" y2="303.886894908" /><line stroke="rgb(0%,0%,0%)" x1="423.214503248" x2="423.536818403" y1="302.09187098" y2="302.906400785" /><line stroke="rgb(0%,0%,0%)" x1="420.333033572" x2="420.23925874" y1="296.489085593" y2="296.606992445" /><line stroke="rgb(0%,0%,0%)" x1="422.169983998" x2="423.214503248" y1="299.635453458" y2="302.09187098" /><line stroke="rgb(0%,0%,0%)" x1="422.123673711" x2="420.333033572" y1="295.228879093" y2="296.489085593" /><line stroke="rgb(0%,0%,0%)" x1="422.123673711" x2="426.029944685" y1="295.228879093" y2="295.977652195" /><line stroke="rgb(0%,0%,0%)" x1="434.995966521" x2="426.029944685" y1="299.006568027" y2="295.977652195" /><line stroke="rgb(0%,0%,0%)" x1="445.66842428" x2="443.298771119" y1="345.476475345" y2="344.378188973" /><line stroke="rgb(0%,0%,0%)" x1="443.298771119" x2="438.793539866" y1="344.378188973" y2="342.659555265" /><line stroke="rgb(0%,0%,0%)" x1="442.083600819" x2="443.462870843" y1="323.935754133" y2="325.59072999" /><line stroke="rgb(0%,0%,0%)" x1="442.083600819" x2="435.949814675" y1="323.935754133" y2="316.929575187" /><line stroke="rgb(0%,0%,0%)" x1="434.370905163" x2="435.949814675" y1="315.150735899" y2="316.929575187" /><line stroke="rgb(0%,0%,0%)" x1="420.436434648" x2="420.576292835" y1="297.024599967" y2="297.183188078" /><line stroke="rgb(0%,0%,0%)" x1="420.305879526" x2="420.436434648" y1="296.87650691" y2="297.024599967" /><line stroke="rgb(0%,0%,0%)" x1="420.23925874" x2="420.305879526" y1="296.606992445" y2="296.87650691" /><line stroke="rgb(0%,0%,0%)" x1="434.995966521" x2="437.674954933" y1="299.006568027" y2="300.266762611" /><line stroke="rgb(0%,0%,0%)" x1="455.71132499" x2="454.055157471" y1="354.258323244" y2="352.745292869" /><line stroke="rgb(0%,0%,0%)" x1="446.137501909" x2="448.540465197" y1="328.547342549" y2="331.258954898" /><line stroke="rgb(0%,0%,0%)" x1="443.462870843" x2="446.137501909" y1="325.59072999" y2="328.547342549" /><line stroke="rgb(0%,0%,0%)" x1="455.959384061" x2="455.71132499" y1="354.609528898" y2="354.258323244" /><line stroke="rgb(0%,0%,0%)" x1="378.416908877" x2="373.73381774" y1="311.814987995" y2="310.466785129" /><line stroke="rgb(0%,0%,0%)" x1="390.321446734" x2="383.293873882" y1="314.43096983" y2="312.810598136" /><line stroke="rgb(0%,0%,0%)" x1="398.705865362" x2="391.469108465" y1="317.82660076" y2="314.772953627" /><line stroke="rgb(0%,0%,0%)" x1="403.903177088" x2="398.705865362" y1="319.039429028" y2="317.82660076" /><line stroke="rgb(0%,0%,0%)" x1="420.54614474" x2="417.923122883" y1="328.672288238" y2="326.567245348" /><line stroke="rgb(0%,0%,0%)" x1="417.923122883" x2="417.808818709" y1="326.567245348" y2="326.503276528" /><line stroke="rgb(0%,0%,0%)" x1="344.595160193" x2="346.425039331" y1="301.787838959" y2="302.226103275" /><line stroke="rgb(0%,0%,0%)" x1="344.595160193" x2="341.851868733" y1="301.787838959" y2="301.30544391" /><line stroke="rgb(0%,0%,0%)" x1="346.425039331" x2="357.023030905" y1="302.226103275" y2="305.595835514" /><line stroke="rgb(0%,0%,0%)" x1="364.612850416" x2="357.023030905" y1="307.357110998" y2="305.595835514" /><line stroke="rgb(0%,0%,0%)" x1="373.73381774" x2="366.771099152" y1="310.466785129" y2="308.315289615" /><line stroke="rgb(0%,0%,0%)" x1="365.968717809" x2="364.612850416" y1="308.225407613" y2="307.357110998" /><line stroke="rgb(0%,0%,0%)" x1="366.771099152" x2="365.968717809" y1="308.315289615" y2="308.225407613" /><line stroke="rgb(0%,0%,0%)" x1="391.469108465" x2="390.321446734" y1="314.772953627" y2="314.43096983" /><line stroke="rgb(0%,0%,0%)" x1="323.294117427" x2="322.735452757" y1="301.073684285" y2="300.855584872" /><line stroke="rgb(0%,0%,0%)" x1="323.294117427" x2="327.175000228" y1="301.073684285" y2="301.392359752" /><line stroke="rgb(0%,0%,0%)" x1="330.007164219" x2="327.175000228" y1="301.921084849" y2="301.392359752" /><line stroke="rgb(0%,0%,0%)" x1="330.007164219" x2="335.946065876" y1="301.921084849" y2="301.056177795" /><line stroke="rgb(0%,0%,0%)" x1="322.735452757" x2="311.099220737" y1="300.855584872" y2="300.511766378" /><line stroke="rgb(0%,0%,0%)" x1="341.851868733" x2="335.946065876" y1="301.30544391" y2="301.056177795" /><line stroke="rgb(0%,0%,0%)" x1="281.466715652" x2="276.915027756" y1="302.781837742" y2="303.417014909" /><line stroke="rgb(0%,0%,0%)" x1="281.466715652" x2="286.938995085" y1="302.781837742" y2="301.905528343" /><line stroke="rgb(0%,0%,0%)" x1="293.333775335" x2="286.938995085" y1="301.455663277" y2="301.905528343" /><line stroke="rgb(0%,0%,0%)" x1="303.64157411" x2="298.861058187" y1="301.044531689" y2="300.760636573" /><line stroke="rgb(0%,0%,0%)" x1="298.861058187" x2="293.333775335" y1="300.760636573" y2="301.455663277" /><line stroke="rgb(0%,0%,0%)" x1="311.099220737" x2="303.64157411" y1="300.511766378" y2="301.044531689" /><line stroke="rgb(0%,0%,0%)" x1="226.599285227" x2="226.075369916" y1="307.042510895" y2="307.235064433" /><line stroke="rgb(0%,0%,0%)" x1="235.82198212" x2="226.599285227" y1="305.134658685" y2="307.042510895" /><line stroke="rgb(0%,0%,0%)" x1="237.332390104" x2="235.82198212" y1="305.018109093" y2="305.134658685" /><line stroke="rgb(0%,0%,0%)" x1="237.332390104" x2="239.16543123" y1="305.018109093" y2="304.816746099" /><line stroke="rgb(0%,0%,0%)" x1="248.992700116" x2="239.16543123" y1="303.237670256" y2="304.816746099" /><line stroke="rgb(0%,0%,0%)" x1="248.992700116" x2="250.45386737" y1="303.237670256" y2="303.147062627" /><line stroke="rgb(0%,0%,0%)" x1="267.877382391" x2="250.45386737" y1="302.514133839" y2="303.147062627" /><line stroke="rgb(0%,0%,0%)" x1="276.915027756" x2="267.877382391" y1="303.417014909" y2="302.514133839" /><line stroke="rgb(0%,0%,0%)" x1="226.075369916" x2="224.955789036" y1="307.235064433" y2="307.491721975" /><line stroke="rgb(0%,0%,0%)" x1="188.17538309" x2="181.307350784" y1="313.391308938" y2="315.187232099" /><line stroke="rgb(0%,0%,0%)" x1="188.17538309" x2="190.54924676" y1="313.391308938" y2="312.961770479" /><line stroke="rgb(0%,0%,0%)" x1="190.54924676" x2="194.986957652" y1="312.961770479" y2="311.328125922" /><line stroke="rgb(0%,0%,0%)" x1="199.981046121" x2="194.986957652" y1="310.278645281" y2="311.328125922" /><line stroke="rgb(0%,0%,0%)" x1="210.501174428" x2="201.690266021" y1="309.761363981" y2="309.8527834" /><line stroke="rgb(0%,0%,0%)" x1="224.955789036" x2="210.501174428" y1="307.491721975" y2="309.761363981" /><line stroke="rgb(0%,0%,0%)" x1="141.555163203" x2="150.133911467" y1="335.118581402" y2="330.132633186" /><line stroke="rgb(0%,0%,0%)" x1="173.268758304" x2="154.983436567" y1="318.283572058" y2="328.071662355" /><line stroke="rgb(0%,0%,0%)" x1="181.307350784" x2="173.268758304" y1="315.187232099" y2="318.283572058" /><line stroke="rgb(0%,0%,0%)" x1="201.690266021" x2="199.981046121" y1="309.8527834" y2="310.278645281" /><line stroke="rgb(0%,0%,0%)" x1="117.849999759" x2="118.316160603" y1="348.892437769" y2="348.29400749" /><line stroke="rgb(0%,0%,0%)" x1="125.911049696" x2="129.507889793" y1="347.195585598" y2="342.019440097" /><line stroke="rgb(0%,0%,0%)" x1="125.911049696" x2="118.316160603" y1="347.195585598" y2="348.29400749" /><line stroke="rgb(0%,0%,0%)" x1="130.736870408" x2="129.507889793" y1="341.624495" y2="342.019440097" /><line stroke="rgb(0%,0%,0%)" x1="141.555163203" x2="138.675935088" y1="335.118581402" y2="338.001196829" /><line stroke="rgb(0%,0%,0%)" x1="138.675935088" x2="130.736870408" y1="338.001196829" y2="341.624495" /><line stroke="rgb(0%,0%,0%)" x1="153.389832552" x2="150.133911467" y1="328.978987126" y2="330.132633186" /><line stroke="rgb(0%,0%,0%)" x1="154.983436567" x2="153.389832552" y1="328.071662355" y2="328.978987126" /><line stroke="rgb(0%,0%,0%)" x1="66.6758319403" x2="66.5731310815" y1="428.441588768" y2="428.578879136" /><line stroke="rgb(0%,0%,0%)" x1="66.6758319403" x2="66.7147710043" y1="428.441588768" y2="428.379298187" /><line stroke="rgb(0%,0%,0%)" x1="92.5947088066" x2="80.9843253282" y1="398.09200856" y2="407.676157672" /><line stroke="rgb(0%,0%,0%)" x1="92.5589813274" x2="93.3493969884" y1="382.508659148" y2="385.536264526" /><line stroke="rgb(0%,0%,0%)" x1="92.5589813274" x2="93.4741324291" y1="382.508659148" y2="380.444827552" /><line stroke="rgb(0%,0%,0%)" x1="98.9461210202" x2="93.4741324291" y1="374.347625642" y2="380.444827552" /><line stroke="rgb(0%,0%,0%)" x1="100.350519241" x2="98.9461210202" y1="373.26905755" y2="374.347625642" /><line stroke="rgb(0%,0%,0%)" x1="100.350519241" x2="102.329875601" y1="373.26905755" y2="371.970373313" /><line stroke="rgb(0%,0%,0%)" x1="107.088370836" x2="102.329875601" y1="369.31814962" y2="371.970373313" /><line stroke="rgb(0%,0%,0%)" x1="111.122471738" x2="107.088370836" y1="358.494576531" y2="369.31814962" /><line stroke="rgb(0%,0%,0%)" x1="116.597488559" x2="111.122471738" y1="350.323656097" y2="358.494576531" /><line stroke="rgb(0%,0%,0%)" x1="117.849999759" x2="116.597488559" y1="348.892437769" y2="350.323656097" /><line stroke="rgb(0%,0%,0%)" x1="66.5731310815" x2="66.0079340791" y1="428.578879136" y2="429.596836904" /><line stroke="rgb(0%,0%,0%)" x1="70.887874964" x2="78.0644966996" y1="418.466210704" y2="410.635407711" /><line stroke="rgb(0%,0%,0%)" x1="70.887874964" x2="66.7147710043" y1="418.466210704" y2="428.379298187" /><line stroke="rgb(0%,0%,0%)" x1="80.9843253282" x2="79.5763720168" y1="407.676157672" y2="409.486522211" /><line stroke="rgb(0%,0%,0%)" x1="92.5947088066" x2="95.3110765106" y1="398.09200856" y2="394.270825513" /><line stroke="rgb(0%,0%,0%)" x1="96.3518336102" x2="95.3110765106" y1="392.584111798" y2="394.270825513" /><line stroke="rgb(0%,0%,0%)" x1="93.3493969884" x2="96.3518336102" y1="385.536264526" y2="392.584111798" /><line stroke="rgb(0%,0%,0%)" x1="52.6140306547" x2="52.6712334904" y1="460.511815075" y2="461.146024662" /><line stroke="rgb(0%,0%,0%)" x1="52.9793600153" x2="52.6140306547" y1="452.096961492" y2="460.511815075" /><line stroke="rgb(0%,0%,0%)" x1="55.9871440938" x2="52.9793600153" y1="446.803638677" y2="452.096961492" /><line stroke="rgb(0%,0%,0%)" x1="57.0876300835" x2="59.1408036551" y1="443.851188973" y2="440.129645861" /><line stroke="rgb(0%,0%,0%)" x1="57.0876300835" x2="55.9871440938" y1="443.851188973" y2="446.803638677" /><line stroke="rgb(0%,0%,0%)" x1="60.4780664139" x2="59.1408036551" y1="438.550787865" y2="440.129645861" /><line stroke="rgb(0%,0%,0%)" x1="66.0079340791" x2="60.4780664139" y1="429.596836904" y2="438.550787865" /><line stroke="rgb(0%,0%,0%)" x1="78.5928821877" x2="78.0644966996" y1="410.127742044" y2="410.635407711" /><line stroke="rgb(0%,0%,0%)" x1="79.5763720168" x2="79.158103415" y1="409.486522211" y2="409.762350387" /><line stroke="rgb(0%,0%,0%)" x1="79.158103415" x2="78.5928821877" y1="409.762350387" y2="410.127742044" /><line stroke="rgb(0%,0%,0%)" x1="577.692310277" x2="577.686968576" y1="497.404461962" y2="497.439476154" /><line stroke="rgb(0%,0%,0%)" x1="577.707279668" x2="577.692310277" y1="497.373261716" y2="497.404461962" /><line stroke="rgb(0%,0%,0%)" x1="577.707279668" x2="577.722096676" y1="497.373261716" y2="497.313920262" /><line stroke="rgb(0%,0%,0%)" x1="578.270748851" x2="577.819247918" y1="490.064050806" y2="491.52902178" /><line stroke="rgb(0%,0%,0%)" x1="578.270748851" x2="579.404746431" y1="490.064050806" y2="485.934005338" /><line stroke="rgb(0%,0%,0%)" x1="579.404746431" x2="579.768639049" y1="485.934005338" y2="485.307812263" /><line stroke="rgb(0%,0%,0%)" x1="582.111779038" x2="582.043565224" y1="471.266232228" y2="472.069493237" /><line stroke="rgb(0%,0%,0%)" x1="582.111779038" x2="582.144037809" y1="471.266232228" y2="470.997710497" /><line stroke="rgb(0%,0%,0%)" x1="581.765429502" x2="581.942163497" y1="458.496772242" y2="462.310581705" /><line stroke="rgb(0%,0%,0%)" x1="544.382447576" x2="542.964202723" y1="563.758950607" y2="565.724607651" /><line stroke="rgb(0%,0%,0%)" x1="568.262427566" x2="565.276897035" y1="524.174573375" y2="530.522811117" /><line stroke="rgb(0%,0%,0%)" x1="568.262427566" x2="569.135468715" y1="524.174573375" y2="521.742965053" /><line stroke="rgb(0%,0%,0%)" x1="569.135468715" x2="571.303451678" y1="521.742965053" y2="518.556075987" /><line stroke="rgb(0%,0%,0%)" x1="572.125360423" x2="571.879070438" y1="513.651400742" y2="517.118131032" /><line stroke="rgb(0%,0%,0%)" x1="572.125360423" x2="574.703409682" y1="513.651400742" y2="508.517724236" /><line stroke="rgb(0%,0%,0%)" x1="574.847332726" x2="574.703409682" y1="507.70883708" y2="508.517724236" /><line stroke="rgb(0%,0%,0%)" x1="574.847332726" x2="577.686968576" y1="507.70883708" y2="497.439476154" /><line stroke="rgb(0%,0%,0%)" x1="577.722096676" x2="577.819247918" y1="497.313920262" y2="491.52902178" /><line stroke="rgb(0%,0%,0%)" x1="579.768639049" x2="582.043565224" y1="485.307812263" y2="472.069493237" /><line stroke="rgb(0%,0%,0%)" x1="582.144037809" x2="581.221095632" y1="470.997710497" y2="469.299889505" /><line stroke="rgb(0%,0%,0%)" x1="581.221095632" x2="581.942163497" y1="469.299889505" y2="462.310581705" /><line stroke="rgb(0%,0%,0%)" x1="517.023726549" x2="515.655547821" y1="599.341642697" y2="600.921497361" /><line stroke="rgb(0%,0%,0%)" x1="520.38082633" x2="528.168257864" y1="593.473921664" y2="584.666973867" /><line stroke="rgb(0%,0%,0%)" x1="542.964202723" x2="536.54671185" y1="565.724607651" y2="574.21235894" /><line stroke="rgb(0%,0%,0%)" x1="544.382447576" x2="550.319634802" y1="563.758950607" y2="554.743859007" /><line stroke="rgb(0%,0%,0%)" x1="550.319634802" x2="556.296036979" y1="554.743859007" y2="544.655059601" /><line stroke="rgb(0%,0%,0%)" x1="558.350399516" x2="564.747496356" y1="541.307651378" y2="531.238140133" /><line stroke="rgb(0%,0%,0%)" x1="564.747496356" x2="565.276897035" y1="531.238140133" y2="530.522811117" /><line stroke="rgb(0%,0%,0%)" x1="571.303451678" x2="571.879070438" y1="518.556075987" y2="517.118131032" /><line stroke="rgb(0%,0%,0%)" x1="485.893018096" x2="497.775315856" y1="627.217502578" y2="618.764547498" /><line stroke="rgb(0%,0%,0%)" x1="502.056005586" x2="497.775315856" y1="615.829794709" y2="618.764547498" /><line stroke="rgb(0%,0%,0%)" x1="503.706400678" x2="503.598302162" y1="493.515920322" y2="494.070086348" /><line stroke="rgb(0%,0%,0%)" x1="495.735718899" x2="496.574205213" y1="489.159831449" y2="484.638773396" /><line stroke="rgb(0%,0%,0%)" x1="503.706400678" x2="503.822385201" y1="493.515920322" y2="492.963616111" /><line stroke="rgb(0%,0%,0%)" x1="507.269669025" x2="503.822385201" y1="480.212224571" y2="492.963616111" /><line stroke="rgb(0%,0%,0%)" x1="507.269669025" x2="507.209666104" y1="480.212224571" y2="477.222907389" /><line stroke="rgb(0%,0%,0%)" x1="507.080437444" x2="507.084107343" y1="459.225961296" y2="460.853049148" /><line stroke="rgb(0%,0%,0%)" x1="507.075080826" x2="507.080437444" y1="458.549222875" y2="459.225961296" /><line stroke="rgb(0%,0%,0%)" x1="502.056005586" x2="505.530112535" y1="615.829794709" y2="611.013487093" /><line stroke="rgb(0%,0%,0%)" x1="505.530112535" x2="515.655547821" y1="611.013487093" y2="600.921497361" /><line stroke="rgb(0%,0%,0%)" x1="517.023726549" x2="520.38082633" y1="599.341642697" y2="593.473921664" /><line stroke="rgb(0%,0%,0%)" x1="528.168257864" x2="531.125225773" y1="584.666973867" y2="580.86989275" /><line stroke="rgb(0%,0%,0%)" x1="531.125225773" x2="536.54671185" y1="580.86989275" y2="574.21235894" /><line stroke="rgb(0%,0%,0%)" x1="556.296036979" x2="558.350399516" y1="544.655059601" y2="541.307651378" /><line stroke="rgb(0%,0%,0%)" x1="471.497260953" x2="470.792794081" y1="633.833686844" y2="634.137585047" /><line stroke="rgb(0%,0%,0%)" x1="471.497260953" x2="476.478602441" y1="633.833686844" y2="631.620228053" /><line stroke="rgb(0%,0%,0%)" x1="479.47510674" x2="477.692205804" y1="537.646516678" y2="541.596974297" /><line stroke="rgb(0%,0%,0%)" x1="479.47510674" x2="481.600076492" y1="537.646516678" y2="534.556794961" /><line stroke="rgb(0%,0%,0%)" x1="479.771245249" x2="475.563251213" y1="518.523149528" y2="523.687644875" /><line stroke="rgb(0%,0%,0%)" x1="479.771245249" x2="485.203064949" y1="518.523149528" y2="511.821741994" /><line stroke="rgb(0%,0%,0%)" x1="488.06183411" x2="485.203064949" y1="508.247203649" y2="511.821741994" /><line stroke="rgb(0%,0%,0%)" x1="485.893018096" x2="481.310348706" y1="627.217502578" y2="628.928952398" /><line stroke="rgb(0%,0%,0%)" x1="476.478602441" x2="481.310348706" y1="631.620228053" y2="628.928952398" /><line stroke="rgb(0%,0%,0%)" x1="482.925495398" x2="481.600076492" y1="531.738756085" y2="534.556794961" /><line stroke="rgb(0%,0%,0%)" x1="488.51116485" x2="482.925495398" y1="523.490013236" y2="531.738756085" /><line stroke="rgb(0%,0%,0%)" x1="490.127158241" x2="488.51116485" y1="521.254206072" y2="523.490013236" /><line stroke="rgb(0%,0%,0%)" x1="490.127158241" x2="490.537873567" y1="521.254206072" y2="520.402162653" /><line stroke="rgb(0%,0%,0%)" x1="494.030621644" x2="490.537873567" y1="514.615975722" y2="520.402162653" /><line stroke="rgb(0%,0%,0%)" x1="494.030621644" x2="497.604553958" y1="514.615975722" y2="507.889145635" /><line stroke="rgb(0%,0%,0%)" x1="488.06183411" x2="489.582659009" y1="508.247203649" y2="504.832356062" /><line stroke="rgb(0%,0%,0%)" x1="489.582659009" x2="493.337089707" y1="504.832356062" y2="496.893069446" /><line stroke="rgb(0%,0%,0%)" x1="493.337089707" x2="494.06065152" y1="496.893069446" y2="495.253186035" /><line stroke="rgb(0%,0%,0%)" x1="494.361475414" x2="494.06065152" y1="493.255189168" y2="495.253186035" /><line stroke="rgb(0%,0%,0%)" x1="494.361475414" x2="495.735718899" y1="493.255189168" y2="489.159831449" /><line stroke="rgb(0%,0%,0%)" x1="496.574205213" x2="498.171369268" y1="484.638773396" y2="478.542157847" /><line stroke="rgb(0%,0%,0%)" x1="498.171369268" x2="498.490306466" y1="478.542157847" y2="476.357756452" /><line stroke="rgb(0%,0%,0%)" x1="498.490306466" x2="498.365819833" y1="476.357756452" y2="471.51696611" /><line stroke="rgb(0%,0%,0%)" x1="497.785126962" x2="498.553845409" y1="452.61772409" y2="448.331627916" /><line stroke="rgb(0%,0%,0%)" x1="497.753850997" x2="497.604553958" y1="507.575762696" y2="507.889145635" /><line stroke="rgb(0%,0%,0%)" x1="499.635592271" x2="497.881182111" y1="502.249318207" y2="507.249628064" /><line stroke="rgb(0%,0%,0%)" x1="497.881182111" x2="497.753850997" y1="507.249628064" y2="507.575762696" /><line stroke="rgb(0%,0%,0%)" x1="503.406877651" x2="502.659518035" y1="494.619142417" y2="495.989165451" /><line stroke="rgb(0%,0%,0%)" x1="502.659518035" x2="499.635592271" y1="495.989165451" y2="502.249318207" /><line stroke="rgb(0%,0%,0%)" x1="503.598302162" x2="503.406877651" y1="494.070086348" y2="494.619142417" /><line stroke="rgb(0%,0%,0%)" x1="507.326228839" x2="507.209666104" y1="470.711499335" y2="477.222907389" /><line stroke="rgb(0%,0%,0%)" x1="507.450187632" x2="507.326228839" y1="467.595990706" y2="470.711499335" /><line stroke="rgb(0%,0%,0%)" x1="498.365819833" x2="498.399697619" y1="471.51696611" y2="468.118614203" /><line stroke="rgb(0%,0%,0%)" x1="507.084107343" x2="507.450187632" y1="460.853049148" y2="467.595990706" /><line stroke="rgb(0%,0%,0%)" x1="497.511156842" x2="497.685738379" y1="456.75996477" y2="453.34250118" /><line stroke="rgb(0%,0%,0%)" x1="497.685738379" x2="497.785126962" y1="453.34250118" y2="452.61772409" /><line stroke="rgb(0%,0%,0%)" x1="435.487915652" x2="434.008428923" y1="615.19300942" y2="615.871439924" /><line stroke="rgb(0%,0%,0%)" x1="435.487915652" x2="435.883089897" y1="615.19300942" y2="614.948336973" /><line stroke="rgb(0%,0%,0%)" x1="435.883089897" x2="437.671257017" y1="614.948336973" y2="613.528159048" /><line stroke="rgb(0%,0%,0%)" x1="445.444544299" x2="447.532509084" y1="592.369433422" y2="589.841439199" /><line stroke="rgb(0%,0%,0%)" x1="440.35851591" x2="444.268803074" y1="559.538304236" y2="556.015782748" /><line stroke="rgb(0%,0%,0%)" x1="461.492235032" x2="461.135873006" y1="635.915435443" y2="635.904219953" /><line stroke="rgb(0%,0%,0%)" x1="456.271772957" x2="455.641285557" y1="635.758375129" y2="632.46589712" /><line stroke="rgb(0%,0%,0%)" x1="456.271772957" x2="461.135873006" y1="635.758375129" y2="635.904219953" /><line stroke="rgb(0%,0%,0%)" x1="456.741236913" x2="455.641285557" y1="628.398393297" y2="632.46589712" /><line stroke="rgb(0%,0%,0%)" x1="456.65803494" x2="456.741236913" y1="623.142514773" y2="628.398393297" /><line stroke="rgb(0%,0%,0%)" x1="458.704855783" x2="457.961597809" y1="615.069454944" y2="616.510153308" /><line stroke="rgb(0%,0%,0%)" x1="458.704855783" x2="459.837899871" y1="615.069454944" y2="613.61735221" /><line stroke="rgb(0%,0%,0%)" x1="437.671257017" x2="445.694669229" y1="613.528159048" y2="607.158761234" /><line stroke="rgb(0%,0%,0%)" x1="445.694669229" x2="448.838497432" y1="607.158761234" y2="604.346833165" /><line stroke="rgb(0%,0%,0%)" x1="453.167466916" x2="451.442625434" y1="602.049023566" y2="603.021805757" /><line stroke="rgb(0%,0%,0%)" x1="448.838497432" x2="451.442625434" y1="604.346833165" y2="603.021805757" /><line stroke="rgb(0%,0%,0%)" x1="445.444544299" x2="443.548260899" y1="592.369433422" y2="594.563779158" /><line stroke="rgb(0%,0%,0%)" x1="443.548260899" x2="440.141192239" y1="594.563779158" y2="599.453058005" /><line stroke="rgb(0%,0%,0%)" x1="447.532509084" x2="451.455051973" y1="589.841439199" y2="584.988692073" /><line stroke="rgb(0%,0%,0%)" x1="451.973430414" x2="451.455051973" y1="584.389347522" y2="584.988692073" /><line stroke="rgb(0%,0%,0%)" x1="455.221653606" x2="452.993505736" y1="579.69427723" y2="582.922074344" /><line stroke="rgb(0%,0%,0%)" x1="457.075607103" x2="455.221653606" y1="577.065175749" y2="579.69427723" /><line stroke="rgb(0%,0%,0%)" x1="461.055202598" x2="457.075607103" y1="569.638047746" y2="577.065175749" /><line stroke="rgb(0%,0%,0%)" x1="461.055202598" x2="461.443964974" y1="569.638047746" y2="569.342454791" /><line stroke="rgb(0%,0%,0%)" x1="444.268803074" x2="444.917449511" y1="556.015782748" y2="555.582633885" /><line stroke="rgb(0%,0%,0%)" x1="450.042306722" x2="445.435056417" y1="551.202093643" y2="555.09561938" /><line stroke="rgb(0%,0%,0%)" x1="450.042306722" x2="453.926735304" y1="551.202093643" y2="546.336850511" /><line stroke="rgb(0%,0%,0%)" x1="453.926735304" x2="455.961711076" y1="546.336850511" y2="544.586399868" /><line stroke="rgb(0%,0%,0%)" x1="458.903559167" x2="456.867825409" y1="542.350884227" y2="543.498499434" /><line stroke="rgb(0%,0%,0%)" x1="461.492235032" x2="461.779174765" y1="635.915435443" y2="635.835330536" /><line stroke="rgb(0%,0%,0%)" x1="461.779174765" x2="470.792794081" y1="635.835330536" y2="634.137585047" /><line stroke="rgb(0%,0%,0%)" x1="457.961597809" x2="456.65803494" y1="616.510153308" y2="623.142514773" /><line stroke="rgb(0%,0%,0%)" x1="463.095577357" x2="459.837899871" y1="607.383479014" y2="613.61735221" /><line stroke="rgb(0%,0%,0%)" x1="465.857155748" x2="463.095577357" y1="602.629897744" y2="607.383479014" /><line stroke="rgb(0%,0%,0%)" x1="453.167466916" x2="455.755400858" y1="602.049023566" y2="599.812627765" /><line stroke="rgb(0%,0%,0%)" x1="455.755400858" x2="458.279614981" y1="599.812627765" y2="597.74432675" /><line stroke="rgb(0%,0%,0%)" x1="465.857155748" x2="469.899027211" y1="602.629897744" y2="595.943903354" /><line stroke="rgb(0%,0%,0%)" x1="458.279614981" x2="468.55228355" y1="597.74432675" y2="590.056762248" /><line stroke="rgb(0%,0%,0%)" x1="468.55228355" x2="469.849193036" y1="590.056762248" y2="590.086686137" /><line stroke="rgb(0%,0%,0%)" x1="452.0549434" x2="451.973430414" y1="584.251347795" y2="584.389347522" /><line stroke="rgb(0%,0%,0%)" x1="452.993505736" x2="452.0549434" y1="582.922074344" y2="584.251347795" /><line stroke="rgb(0%,0%,0%)" x1="463.120621233" x2="461.443964974" y1="566.902731399" y2="569.342454791" /><line stroke="rgb(0%,0%,0%)" x1="465.331537731" x2="464.423631521" y1="562.460256816" y2="564.393661909" /><line stroke="rgb(0%,0%,0%)" x1="464.423631521" x2="463.120621233" y1="564.393661909" y2="566.902731399" /><line stroke="rgb(0%,0%,0%)" x1="466.904925893" x2="465.331537731" y1="559.880845429" y2="562.460256816" /><line stroke="rgb(0%,0%,0%)" x1="468.655800197" x2="469.820760735" y1="556.761909599" y2="555.016675828" /><line stroke="rgb(0%,0%,0%)" x1="469.820760735" x2="471.563472408" y1="555.016675828" y2="552.079462809" /><line stroke="rgb(0%,0%,0%)" x1="455.961711076" x2="456.867825409" y1="544.586399868" y2="543.498499434" /><line stroke="rgb(0%,0%,0%)" x1="458.903559167" x2="462.694655502" y1="542.350884227" y2="538.290958911" /><line stroke="rgb(0%,0%,0%)" x1="469.118391389" x2="462.694655502" y1="530.981821475" y2="538.290958911" /><line stroke="rgb(0%,0%,0%)" x1="473.0068143" x2="469.899027211" y1="589.410763279" y2="595.943903354" /><line stroke="rgb(0%,0%,0%)" x1="469.849193036" x2="473.0068143" y1="590.086686137" y2="589.410763279" /><line stroke="rgb(0%,0%,0%)" x1="468.655800197" x2="466.904925893" y1="556.761909599" y2="559.880845429" /><line stroke="rgb(0%,0%,0%)" x1="473.605144105" x2="471.563472408" y1="548.554732353" y2="552.079462809" /><line stroke="rgb(0%,0%,0%)" x1="477.692205804" x2="475.776572534" y1="541.596974297" y2="544.970074394" /><line stroke="rgb(0%,0%,0%)" x1="475.776572534" x2="473.605144105" y1="544.970074394" y2="548.554732353" /><line stroke="rgb(0%,0%,0%)" x1="469.118391389" x2="472.612558508" y1="530.981821475" y2="527.279886212" /><line stroke="rgb(0%,0%,0%)" x1="472.612558508" x2="474.335601063" y1="527.279886212" y2="525.248569825" /><line stroke="rgb(0%,0%,0%)" x1="474.335601063" x2="475.563251213" y1="525.248569825" y2="523.687644875" /><line stroke="rgb(0%,0%,0%)" x1="432.556545661" x2="432.970105482" y1="610.672254573" y2="609.81234015" /><line stroke="rgb(0%,0%,0%)" x1="436.614963918" x2="435.467482275" y1="604.37566151" y2="605.985096117" /><line stroke="rgb(0%,0%,0%)" x1="436.614963918" x2="437.548994251" y1="604.37566151" y2="603.32113472" /><line stroke="rgb(0%,0%,0%)" x1="431.604784901" x2="433.617735158" y1="615.743655804" y2="615.587037173" /><line stroke="rgb(0%,0%,0%)" x1="431.941242348" x2="431.604784901" y1="614.129423195" y2="615.743655804" /><line stroke="rgb(0%,0%,0%)" x1="433.617735158" x2="434.008428923" y1="615.587037173" y2="615.871439924" /><line stroke="rgb(0%,0%,0%)" x1="432.556545661" x2="431.941242348" y1="610.672254573" y2="614.129423195" /><line stroke="rgb(0%,0%,0%)" x1="435.467482275" x2="432.970105482" y1="605.985096117" y2="609.81234015" /><line stroke="rgb(0%,0%,0%)" x1="440.141192239" x2="437.548994251" y1="599.453058005" y2="603.32113472" /><line stroke="rgb(0%,0%,0%)" x1="444.917449511" x2="445.435056417" y1="555.582633885" y2="555.09561938" /><line stroke="rgb(0%,0%,0%)" x1="370.258547092" x2="368.481196028" y1="608.856815335" y2="609.218613171" /><line stroke="rgb(0%,0%,0%)" x1="334.311832145" x2="333.900225325" y1="615.676283849" y2="615.623245781" /><line stroke="rgb(0%,0%,0%)" x1="334.4658803" x2="347.401515979" y1="615.643053811" y2="614.988318545" /><line stroke="rgb(0%,0%,0%)" x1="334.4658803" x2="334.311832145" y1="615.643053811" y2="615.676283849" /><line stroke="rgb(0%,0%,0%)" x1="355.872313146" x2="358.210564411" y1="613.465127018" y2="612.9916376" /><line stroke="rgb(0%,0%,0%)" x1="358.210564411" x2="358.629906359" y1="612.9916376" y2="612.953391889" /><line stroke="rgb(0%,0%,0%)" x1="363.953099474" x2="358.629906359" y1="610.48631774" y2="612.953391889" /><line stroke="rgb(0%,0%,0%)" x1="347.401515979" x2="355.872313146" y1="614.988318545" y2="613.465127018" /><line stroke="rgb(0%,0%,0%)" x1="363.953099474" x2="368.481196028" y1="610.48631774" y2="609.218613171" /><line stroke="rgb(0%,0%,0%)" x1="300.15936057" x2="310.246231215" y1="613.914323775" y2="614.729123024" /><line stroke="rgb(0%,0%,0%)" x1="289.967305847" x2="300.15936057" y1="612.41772882" y2="613.914323775" /><line stroke="rgb(0%,0%,0%)" x1="322.178801791" x2="315.136378033" y1="613.726585879" y2="614.124520442" /><line stroke="rgb(0%,0%,0%)" x1="310.246231215" x2="315.136378033" y1="614.729123024" y2="614.124520442" /><line stroke="rgb(0%,0%,0%)" x1="322.178801791" x2="333.900225325" y1="613.726585879" y2="615.623245781" /><line stroke="rgb(0%,0%,0%)" x1="248.688086741" x2="245.331890017" y1="612.787383999" y2="612.414830993" /><line stroke="rgb(0%,0%,0%)" x1="258.075194549" x2="262.079305028" y1="612.458934655" y2="612.781762918" /><line stroke="rgb(0%,0%,0%)" x1="248.688086741" x2="258.075194549" y1="612.787383999" y2="612.458934655" /><line stroke="rgb(0%,0%,0%)" x1="277.209780915" x2="270.932206559" y1="611.000718628" y2="612.23710437" /><line stroke="rgb(0%,0%,0%)" x1="286.895281941" x2="277.209780915" y1="611.811614865" y2="611.000718628" /><line stroke="rgb(0%,0%,0%)" x1="286.895281941" x2="289.967305847" y1="611.811614865" y2="612.41772882" /><line stroke="rgb(0%,0%,0%)" x1="225.535809692" x2="226.461691646" y1="610.245324925" y2="610.474780483" /><line stroke="rgb(0%,0%,0%)" x1="225.535809692" x2="218.316957033" y1="610.245324925" y2="608.775853837" /><line stroke="rgb(0%,0%,0%)" x1="241.371358125" x2="245.331890017" y1="612.220547026" y2="612.414830993" /><line stroke="rgb(0%,0%,0%)" x1="234.106658221" x2="241.371358125" y1="611.900663744" y2="612.220547026" /><line stroke="rgb(0%,0%,0%)" x1="226.461691646" x2="228.724120293" y1="610.474780483" y2="610.389052927" /><line stroke="rgb(0%,0%,0%)" x1="234.106658221" x2="230.489082001" y1="611.900663744" y2="611.536450022" /><line stroke="rgb(0%,0%,0%)" x1="228.724120293" x2="230.489082001" y1="610.389052927" y2="611.536450022" /><line stroke="rgb(0%,0%,0%)" x1="262.079305028" x2="268.903009658" y1="612.781762918" y2="612.642854483" /><line stroke="rgb(0%,0%,0%)" x1="268.903009658" x2="270.932206559" y1="612.642854483" y2="612.23710437" /><line stroke="rgb(0%,0%,0%)" x1="190.405106377" x2="203.33668208" y1="600.784820909" y2="604.773222136" /><line stroke="rgb(0%,0%,0%)" x1="185.867202183" x2="190.405106377" y1="599.048315039" y2="600.784820909" /><line stroke="rgb(0%,0%,0%)" x1="214.819179252" x2="217.591710227" y1="608.216700797" y2="608.519970075" /><line stroke="rgb(0%,0%,0%)" x1="209.231671206" x2="214.819179252" y1="607.219281705" y2="608.216700797" /><line stroke="rgb(0%,0%,0%)" x1="217.591710227" x2="218.316957033" y1="608.519970075" y2="608.775853837" /><line stroke="rgb(0%,0%,0%)" x1="156.653260355" x2="149.924950802" y1="585.61584302" y2="582.731150761" /><line stroke="rgb(0%,0%,0%)" x1="185.867202183" x2="181.363149721" y1="599.048315039" y2="597.052612312" /><line stroke="rgb(0%,0%,0%)" x1="164.008976236" x2="181.363149721" y1="588.13479681" y2="597.052612312" /><line stroke="rgb(0%,0%,0%)" x1="203.33668208" x2="209.231671206" y1="604.773222136" y2="607.219281705" /><line stroke="rgb(0%,0%,0%)" x1="99.2567142104" x2="107.120445427" y1="543.444316243" y2="549.399339114" /><line stroke="rgb(0%,0%,0%)" x1="124.251292832" x2="140.904660277" y1="575.295277297" y2="579.602143256" /><line stroke="rgb(0%,0%,0%)" x1="140.904660277" x2="143.04764492" y1="579.602143256" y2="581.741863209" /><line stroke="rgb(0%,0%,0%)" x1="124.231460345" x2="124.251292832" y1="575.277428917" y2="575.295277297" /><line stroke="rgb(0%,0%,0%)" x1="124.231460345" x2="124.192988588" y1="575.277428917" y2="575.233128602" /><line stroke="rgb(0%,0%,0%)" x1="112.589981144" x2="124.192988588" y1="562.124542337" y2="575.233128602" /><line stroke="rgb(0%,0%,0%)" x1="148.15639211" x2="149.924950802" y1="582.375176648" y2="582.731150761" /><line stroke="rgb(0%,0%,0%)" x1="143.04764492" x2="148.15639211" y1="581.741863209" y2="582.375176648" /><line stroke="rgb(0%,0%,0%)" x1="156.653260355" x2="164.008976236" y1="585.61584302" y2="588.13479681" /><line stroke="rgb(0%,0%,0%)" x1="81.4705126179" x2="83.9978321749" y1="513.371104566" y2="515.587995977" /><line stroke="rgb(0%,0%,0%)" x1="81.4705126179" x2="77.2141037443" y1="513.371104566" y2="509.115353288" /><line stroke="rgb(0%,0%,0%)" x1="92.9372833213" x2="93.3093016568" y1="520.130891125" y2="520.303314887" /><line stroke="rgb(0%,0%,0%)" x1="87.4936813069" x2="92.9372833213" y1="517.533429458" y2="520.130891125" /><line stroke="rgb(0%,0%,0%)" x1="83.9978321749" x2="87.4936813069" y1="515.587995977" y2="517.533429458" /><line stroke="rgb(0%,0%,0%)" x1="107.90776607" x2="110.248203177" y1="552.449217413" y2="558.204850634" /><line stroke="rgb(0%,0%,0%)" x1="107.120445427" x2="107.90776607" y1="549.399339114" y2="552.449217413" /><line stroke="rgb(0%,0%,0%)" x1="96.0092875258" x2="99.2567142104" y1="540.994942087" y2="543.444316243" /><line stroke="rgb(0%,0%,0%)" x1="96.0092875258" x2="95.4836924391" y1="540.994942087" y2="540.188276331" /><line stroke="rgb(0%,0%,0%)" x1="95.0727421967" x2="94.1826020544" y1="529.825854612" y2="532.044783856" /><line stroke="rgb(0%,0%,0%)" x1="98.3530634383" x2="95.0727421967" y1="526.24606237" y2="529.825854612" /><line stroke="rgb(0%,0%,0%)" x1="98.3530634383" x2="98.2014252261" y1="526.24606237" y2="525.367376761" /><line stroke="rgb(0%,0%,0%)" x1="98.2014252261" x2="96.8705881901" y1="525.367376761" y2="522.736159677" /><line stroke="rgb(0%,0%,0%)" x1="93.3093016568" x2="96.8705881901" y1="520.303314887" y2="522.736159677" /><line stroke="rgb(0%,0%,0%)" x1="112.589981144" x2="110.248203177" y1="562.124542337" y2="558.204850634" /><line stroke="rgb(0%,0%,0%)" x1="67.2637855823" x2="69.5026757773" y1="497.136832186" y2="501.828396225" /><line stroke="rgb(0%,0%,0%)" x1="65.2603982128" x2="67.2637855823" y1="493.44467453" y2="497.136832186" /><line stroke="rgb(0%,0%,0%)" x1="61.1297606792" x2="62.7635920536" y1="488.312403465" y2="490.112260263" /><line stroke="rgb(0%,0%,0%)" x1="65.2603982128" x2="62.7635920536" y1="493.44467453" y2="490.112260263" /><line stroke="rgb(0%,0%,0%)" x1="55.7455893692" x2="60.3935137263" y1="477.925135961" y2="486.67619639" /><line stroke="rgb(0%,0%,0%)" x1="60.3935137263" x2="61.1297606792" y1="486.67619639" y2="488.312403465" /><line stroke="rgb(0%,0%,0%)" x1="55.7455893692" x2="54.991407167" y1="477.925135961" y2="472.699755417" /><line stroke="rgb(0%,0%,0%)" x1="71.6023219268" x2="77.2141037443" y1="504.013061267" y2="509.115353288" /><line stroke="rgb(0%,0%,0%)" x1="69.5026757773" x2="71.6023219268" y1="501.828396225" y2="504.013061267" /><line stroke="rgb(0%,0%,0%)" x1="93.8955675737" x2="95.4836924391" y1="535.949308199" y2="540.188276331" /><line stroke="rgb(0%,0%,0%)" x1="94.1826020544" x2="93.8955675737" y1="532.044783856" y2="535.949308199" /><line stroke="rgb(0%,0%,0%)" x1="54.7239989128" x2="54.991407167" y1="471.880873041" y2="472.699755417" /><line stroke="rgb(0%,0%,0%)" x1="52.9535130862" x2="54.7239989128" y1="462.744164463" y2="471.880873041" /><line stroke="rgb(0%,0%,0%)" x1="52.6712334904" x2="52.9535130862" y1="461.146024662" y2="462.744164463" /><line stroke="rgb(0%,0%,0%)" x1="498.663385857" x2="498.399697619" y1="466.687420413" y2="468.118614203" /><line stroke="rgb(0%,0%,0%)" x1="498.663385857" x2="498.321259166" y1="466.687420413" y2="465.5519666" /><line stroke="rgb(0%,0%,0%)" x1="498.321259166" x2="498.258051937" y1="465.5519666" y2="459.77870094" /><line stroke="rgb(0%,0%,0%)" x1="498.258051937" x2="497.669375542" y1="459.77870094" y2="458.486555567" /><line stroke="rgb(0%,0%,0%)" x1="381.659689387" x2="383.954090958" y1="605.521236834" y2="604.893761378" /><line stroke="rgb(0%,0%,0%)" x1="383.954090958" x2="390.006413001" y1="604.893761378" y2="603.544365264" /><line stroke="rgb(0%,0%,0%)" x1="402.902623046" x2="393.214333784" y1="597.777848105" y2="602.1023557" /><line stroke="rgb(0%,0%,0%)" x1="407.16815046" x2="411.274615021" y1="594.981873058" y2="592.538428555" /><line stroke="rgb(0%,0%,0%)" x1="414.299590448" x2="411.274615021" y1="589.590899375" y2="592.538428555" /><line stroke="rgb(0%,0%,0%)" x1="414.299590448" x2="418.913438365" y1="589.590899375" y2="585.606666396" /><line stroke="rgb(0%,0%,0%)" x1="419.325021309" x2="418.913438365" y1="585.062088283" y2="585.606666396" /><line stroke="rgb(0%,0%,0%)" x1="419.325021309" x2="429.674101564" y1="585.062088283" y2="573.229375234" /><line stroke="rgb(0%,0%,0%)" x1="429.674101564" x2="437.181497746" y1="573.229375234" y2="562.546333079" /><line stroke="rgb(0%,0%,0%)" x1="437.181497746" x2="438.334917644" y1="562.546333079" y2="561.213545697" /><line stroke="rgb(0%,0%,0%)" x1="438.334917644" x2="440.35851591" y1="561.213545697" y2="559.538304236" /><line stroke="rgb(0%,0%,0%)" x1="370.483518944" x2="381.659689387" y1="608.847399006" y2="605.521236834" /><line stroke="rgb(0%,0%,0%)" x1="390.006413001" x2="393.214333784" y1="603.544365264" y2="602.1023557" /><line stroke="rgb(0%,0%,0%)" x1="402.902623046" x2="407.16815046" y1="597.777848105" y2="594.981873058" /><line stroke="rgb(0%,0%,0%)" x1="370.483518944" x2="370.258547092" y1="608.847399006" y2="608.856815335" /></svg>