<?xml version="1.0" encoding="utf-8" ?>
<svg baseProfile="full" height="100%" version="1.1" viewBox="0.5 0.5 685.793960571 941.299331665" width="100%" xmlns="http://www.w3.org/2000/svg" xmlns:ev="http://www.w3.org/2001/xml-events" xmlns:xlink="http://www.w3.org/1999/xlink"><defs /><line stroke="rgb(0%,0%,0%)" x1="581.328686631" x2="581.424630792" y1="446.418409293" y2="445.803304224" /><line stroke="rgb(0%,0%,0%)" x1="578.618141787" x2="578.895946906" y1="425.641451262" y2="426.374147769" /><line stroke="rgb(0%,0%,0%)" x1="575.458269768" x2="575.549909636" y1="412.24755812" y2="412.525601781" /><line stroke="rgb(0%,0%,0%)" x1="575.458269768" x2="575.379236137" y1="412.24755812" y2="411.686998456" /><line stroke="rgb(0%,0%,0%)" x1="569.169053184" x2="569.375814278" y1="395.822939111" y2="396.384926878" /><line stroke="rgb(0%,0%,0%)" x1="569.169053184" x2="569.101133752" y1="395.822939111" y2="395.780848802" /><line stroke="rgb(0%,0%,0%)" x1="569.101133752" x2="569.089944566" y1="395.780848802" y2="395.528272878" /><line stroke="rgb(0%,0%,0%)" x1="581.013892772" x2="581.012634045" y1="458.159332221" y2="458.515513318" /><line stroke="rgb(0%,0%,0%)" x1="581.013892772" x2="581.328686631" y1="458.159332221" y2="446.418409293" /><line stroke="rgb(0%,0%,0%)" x1="578.895946906" x2="579.474123069" y1="426.374147769" y2="427.317309757" /><line stroke="rgb(0%,0%,0%)" x1="578.618141787" x2="578.065094987" y1="425.641451262" y2="420.68272016" /><line stroke="rgb(0%,0%,0%)" x1="577.917691521" x2="577.994741753" y1="420.463288133" y2="420.263200752" /><line stroke="rgb(0%,0%,0%)" x1="578.065094987" x2="577.917691521" y1="420.68272016" y2="420.463288133" /><line stroke="rgb(0%,0%,0%)" x1="575.549909636" x2="575.662294264" y1="412.525601781" y2="412.680848146" /><line stroke="rgb(0%,0%,0%)" x1="577.994741753" x2="575.662294264" y1="420.263200752" y2="412.680848146" /><line stroke="rgb(0%,0%,0%)" x1="561.417332788" x2="564.467481342" y1="380.650946066" y2="387.266643554" /><line stroke="rgb(0%,0%,0%)" x1="561.417332788" x2="559.022665952" y1="380.650946066" y2="374.182616289" /><line stroke="rgb(0%,0%,0%)" x1="558.748012082" x2="559.022665952" y1="373.615080501" y2="374.182616289" /><line stroke="rgb(0%,0%,0%)" x1="569.375814278" x2="569.933516482" y1="396.384926878" y2="397.482614809" /><line stroke="rgb(0%,0%,0%)" x1="579.290812217" x2="580.819163182" y1="430.336963859" y2="439.123276913" /><line stroke="rgb(0%,0%,0%)" x1="579.290812217" x2="579.474123069" y1="430.336963859" y2="427.317309757" /><line stroke="rgb(0%,0%,0%)" x1="534.57953261" x2="537.70895254" y1="336.44893949" y2="340.164151769" /><line stroke="rgb(0%,0%,0%)" x1="531.763090417" x2="534.57953261" y1="333.667460084" y2="336.44893949" /><line stroke="rgb(0%,0%,0%)" x1="531.763090417" x2="530.460518185" y1="333.667460084" y2="331.410521118" /><line stroke="rgb(0%,0%,0%)" x1="558.748012082" x2="557.636042003" y1="373.615080501" y2="371.307246111" /><line stroke="rgb(0%,0%,0%)" x1="544.93034678" x2="548.014931035" y1="349.701773969" y2="354.201037752" /><line stroke="rgb(0%,0%,0%)" x1="569.089944566" x2="566.479351143" y1="395.528272878" y2="391.2712167" /><line stroke="rgb(0%,0%,0%)" x1="566.479351143" x2="564.467481342" y1="391.2712167" y2="387.266643554" /><line stroke="rgb(0%,0%,0%)" x1="581.424630792" x2="580.674390193" y1="445.803304224" y2="441.694134161" /><line stroke="rgb(0%,0%,0%)" x1="580.674390193" x2="580.819163182" y1="441.694134161" y2="439.123276913" /><line stroke="rgb(0%,0%,0%)" x1="575.379236137" x2="573.044469795" y1="411.686998456" y2="407.798714103" /><line stroke="rgb(0%,0%,0%)" x1="573.044469795" x2="569.933516482" y1="407.798714103" y2="397.482614809" /><line stroke="rgb(0%,0%,0%)" x1="511.629928932" x2="513.612472455" y1="309.102883465" y2="312.109685098" /><line stroke="rgb(0%,0%,0%)" x1="511.629928932" x2="503.609501529" y1="309.102883465" y2="301.276271764" /><line stroke="rgb(0%,0%,0%)" x1="530.460518185" x2="525.008544791" y1="331.410521118" y2="325.486541466" /><line stroke="rgb(0%,0%,0%)" x1="525.008544791" x2="518.566096923" y1="325.486541466" y2="318.227193781" /><line stroke="rgb(0%,0%,0%)" x1="518.566096923" x2="513.612472455" y1="318.227193781" y2="312.109685098" /><line stroke="rgb(0%,0%,0%)" x1="544.93034678" x2="537.70895254" y1="349.701773969" y2="340.164151769" /><line stroke="rgb(0%,0%,0%)" x1="557.636042003" x2="550.690530706" y1="371.307246111" y2="358.886935496" /><line stroke="rgb(0%,0%,0%)" x1="550.690530706" x2="548.014931035" y1="358.886935496" y2="354.201037752" /><line stroke="rgb(0%,0%,0%)" x1="476.382984929" x2="481.867696931" y1="384.718550068" y2="392.761022533" /><line stroke="rgb(0%,0%,0%)" x1="481.979967436" x2="482.782582281" y1="374.845481911" y2="375.988740945" /><line stroke="rgb(0%,0%,0%)" x1="481.979967436" x2="481.16560254" y1="374.845481911" y2="373.305845468" /><line stroke="rgb(0%,0%,0%)" x1="492.075234968" x2="494.331817185" y1="409.518806383" y2="415.721886838" /><line stroke="rgb(0%,0%,0%)" x1="489.770661884" x2="489.552175354" y1="406.015194298" y2="405.417343004" /><line stroke="rgb(0%,0%,0%)" x1="492.075234968" x2="489.770661884" y1="409.518806383" y2="406.015194298" /><line stroke="rgb(0%,0%,0%)" x1="492.956273862" x2="492.07466471" y1="395.835195423" y2="393.840305565" /><line stroke="rgb(0%,0%,0%)" x1="490.68669418" x2="492.07466471" y1="391.174930464" y2="393.840305565" /><line stroke="rgb(0%,0%,0%)" x1="490.543682342" x2="490.68669418" y1="390.236288131" y2="391.174930464" /><line stroke="rgb(0%,0%,0%)" x1="490.543682342" x2="487.768918885" y1="390.236288131" y2="385.424308238" /><line stroke="rgb(0%,0%,0%)" x1="486.848668084" x2="487.768918885" y1="383.783833673" y2="385.424308238" /><line stroke="rgb(0%,0%,0%)" x1="489.341878913" x2="493.791387809" y1="291.971267473" y2="293.895894328" /><line stroke="rgb(0%,0%,0%)" x1="489.341878913" x2="481.899265259" y1="291.971267473" y2="289.611866566" /><line stroke="rgb(0%,0%,0%)" x1="497.951834279" x2="497.895036741" y1="458.514608888" y2="457.894795263" /><line stroke="rgb(0%,0%,0%)" x1="498.87065783" x2="498.986980996" y1="448.142553558" y2="446.570870439" /><line stroke="rgb(0%,0%,0%)" x1="499.184914473" x2="498.986980996" y1="445.725952259" y2="446.570870439" /><line stroke="rgb(0%,0%,0%)" x1="507.951167224" x2="506.97780118" y1="453.004742559" y2="433.129571961" /><line stroke="rgb(0%,0%,0%)" x1="499.184914473" x2="498.558046985" y1="445.725952259" y2="440.178845251" /><line stroke="rgb(0%,0%,0%)" x1="498.558046985" x2="497.718645044" y1="440.178845251" y2="433.975109003" /><line stroke="rgb(0%,0%,0%)" x1="497.718645044" x2="497.690054834" y1="433.975109003" y2="433.490674939" /><line stroke="rgb(0%,0%,0%)" x1="497.823835731" x2="497.657189744" y1="432.133020374" y2="433.323947197" /><line stroke="rgb(0%,0%,0%)" x1="497.823835731" x2="497.257045161" y1="432.133020374" y2="429.466184205" /><line stroke="rgb(0%,0%,0%)" x1="497.257045161" x2="496.899713662" y1="429.466184205" y2="426.605382446" /><line stroke="rgb(0%,0%,0%)" x1="505.894518384" x2="506.929039726" y1="428.741581932" y2="432.596296726" /><line stroke="rgb(0%,0%,0%)" x1="496.899713662" x2="495.799263455" y1="426.605382446" y2="420.584603021" /><line stroke="rgb(0%,0%,0%)" x1="495.799263455" x2="495.29370588" y1="420.584603021" y2="418.738613675" /><line stroke="rgb(0%,0%,0%)" x1="503.098688287" x2="504.272679732" y1="417.616681343" y2="422.608942823" /><line stroke="rgb(0%,0%,0%)" x1="504.272679732" x2="505.894518384" y1="422.608942823" y2="428.741581932" /><line stroke="rgb(0%,0%,0%)" x1="503.098688287" x2="502.947776293" y1="417.616681343" y2="416.610910069" /><line stroke="rgb(0%,0%,0%)" x1="495.29370588" x2="494.331817185" y1="418.738613675" y2="415.721886838" /><line stroke="rgb(0%,0%,0%)" x1="502.642110949" x2="502.947776293" y1="415.872406081" y2="416.610910069" /><line stroke="rgb(0%,0%,0%)" x1="502.642110949" x2="502.133441416" y1="415.872406081" y2="414.124255811" /><line stroke="rgb(0%,0%,0%)" x1="500.5782007" x2="502.133441416" y1="409.149157766" y2="414.124255811" /><line stroke="rgb(0%,0%,0%)" x1="500.5782007" x2="499.412138089" y1="409.149157766" y2="407.145222951" /><line stroke="rgb(0%,0%,0%)" x1="492.956273862" x2="499.412138089" y1="395.835195423" y2="407.145222951" /><line stroke="rgb(0%,0%,0%)" x1="503.609501529" x2="500.913023654" y1="301.276271764" y2="298.80909381" /><line stroke="rgb(0%,0%,0%)" x1="500.913023654" x2="493.791387809" y1="298.80909381" y2="293.895894328" /><line stroke="rgb(0%,0%,0%)" x1="507.951167224" x2="507.74824622" y1="453.004742559" y2="456.238105742" /><line stroke="rgb(0%,0%,0%)" x1="507.74824622" x2="507.652618321" y1="456.238105742" y2="458.560023547" /><line stroke="rgb(0%,0%,0%)" x1="506.960004038" x2="506.97780118" y1="432.725689052" y2="433.129571961" /><line stroke="rgb(0%,0%,0%)" x1="506.929039726" x2="506.960004038" y1="432.596296726" y2="432.725689052" /><line stroke="rgb(0%,0%,0%)" x1="444.048127596" x2="436.606972668" y1="304.896888655" y2="300.585308848" /><line stroke="rgb(0%,0%,0%)" x1="451.080552891" x2="448.513597997" y1="292.762650163" y2="284.801987031" /><line stroke="rgb(0%,0%,0%)" x1="450.834794512" x2="449.933469126" y1="279.929205112" y2="281.640175898" /><line stroke="rgb(0%,0%,0%)" x1="446.876837214" x2="450.888678785" y1="345.902052216" y2="349.379132462" /><line stroke="rgb(0%,0%,0%)" x1="465.478283595" x2="457.071314713" y1="350.241319433" y2="340.352752153" /><line stroke="rgb(0%,0%,0%)" x1="452.981954255" x2="457.071314713" y1="335.3611199" y2="340.352752153" /><line stroke="rgb(0%,0%,0%)" x1="460.659273514" x2="453.190270586" y1="316.231090182" y2="312.810813293" /><line stroke="rgb(0%,0%,0%)" x1="445.476041801" x2="448.010933603" y1="305.838521773" y2="308.281723984" /><line stroke="rgb(0%,0%,0%)" x1="455.038680237" x2="457.972323913" y1="303.415205802" y2="307.818651155" /><line stroke="rgb(0%,0%,0%)" x1="444.048127596" x2="445.476041801" y1="304.896888655" y2="305.838521773" /><line stroke="rgb(0%,0%,0%)" x1="452.726970766" x2="455.038680237" y1="296.656409525" y2="303.415205802" /><line stroke="rgb(0%,0%,0%)" x1="451.918308264" x2="452.726970766" y1="295.547921428" y2="296.656409525" /><line stroke="rgb(0%,0%,0%)" x1="451.080552891" x2="451.918308264" y1="292.762650163" y2="295.547921428" /><line stroke="rgb(0%,0%,0%)" x1="457.001509698" x2="451.465894107" y1="279.727684815" y2="279.733221785" /><line stroke="rgb(0%,0%,0%)" x1="451.465894107" x2="450.834794512" y1="279.733221785" y2="279.929205112" /><line stroke="rgb(0%,0%,0%)" x1="462.353055835" x2="457.001509698" y1="280.693856552" y2="279.727684815" /><line stroke="rgb(0%,0%,0%)" x1="464.911425471" x2="462.353055835" y1="281.545330245" y2="280.693856552" /><line stroke="rgb(0%,0%,0%)" x1="469.210162493" x2="469.644840641" y1="374.624978297" y2="375.164284222" /><line stroke="rgb(0%,0%,0%)" x1="469.210162493" x2="466.239252428" y1="374.624978297" y2="367.312760456" /><line stroke="rgb(0%,0%,0%)" x1="466.239252428" x2="464.875236161" y1="367.312760456" y2="364.931202349" /><line stroke="rgb(0%,0%,0%)" x1="464.875236161" x2="462.870455218" y1="364.931202349" y2="362.50797373" /><line stroke="rgb(0%,0%,0%)" x1="462.870455218" x2="459.99642442" y1="362.50797373" y2="359.099224611" /><line stroke="rgb(0%,0%,0%)" x1="459.99642442" x2="456.242769747" y1="359.099224611" y2="354.620782448" /><line stroke="rgb(0%,0%,0%)" x1="466.094997727" x2="471.65624495" y1="351.135199749" y2="357.996670555" /><line stroke="rgb(0%,0%,0%)" x1="466.094997727" x2="465.478283595" y1="351.135199749" y2="350.241319433" /><line stroke="rgb(0%,0%,0%)" x1="464.319710968" x2="460.659273514" y1="319.078852441" y2="316.231090182" /><line stroke="rgb(0%,0%,0%)" x1="465.331113131" x2="464.319710968" y1="319.289343743" y2="319.078852441" /><line stroke="rgb(0%,0%,0%)" x1="463.189640576" x2="465.331113131" y1="315.44852424" y2="319.289343743" /><line stroke="rgb(0%,0%,0%)" x1="459.557935736" x2="463.189640576" y1="310.702409008" y2="315.44852424" /><line stroke="rgb(0%,0%,0%)" x1="457.972323913" x2="459.557935736" y1="307.818651155" y2="310.702409008" /><line stroke="rgb(0%,0%,0%)" x1="464.911425471" x2="466.991989284" y1="281.545330245" y2="282.474729372" /><line stroke="rgb(0%,0%,0%)" x1="476.382984929" x2="473.729840169" y1="384.718550068" y2="381.18279156" /><line stroke="rgb(0%,0%,0%)" x1="473.729840169" x2="469.644840641" y1="381.18279156" y2="375.164284222" /><line stroke="rgb(0%,0%,0%)" x1="482.782582281" x2="485.588685309" y1="375.988740945" y2="381.562989281" /><line stroke="rgb(0%,0%,0%)" x1="479.348587256" x2="480.673048537" y1="370.189115563" y2="372.487474725" /><line stroke="rgb(0%,0%,0%)" x1="481.16560254" x2="480.673048537" y1="373.305845468" y2="372.487474725" /><line stroke="rgb(0%,0%,0%)" x1="476.935589727" x2="479.348587256" y1="365.127361015" y2="370.189115563" /><line stroke="rgb(0%,0%,0%)" x1="475.69682052" x2="476.935589727" y1="363.124260131" y2="365.127361015" /><line stroke="rgb(0%,0%,0%)" x1="471.65624495" x2="474.411163954" y1="357.996670555" y2="361.42521195" /><line stroke="rgb(0%,0%,0%)" x1="475.69682052" x2="474.411163954" y1="363.124260131" y2="361.42521195" /><line stroke="rgb(0%,0%,0%)" x1="481.899265259" x2="473.629819838" y1="289.611866566" y2="285.600815388" /><line stroke="rgb(0%,0%,0%)" x1="473.629819838" x2="468.829603724" y1="285.600815388" y2="283.963953821" /><line stroke="rgb(0%,0%,0%)" x1="468.829603724" x2="466.991989284" y1="283.963953821" y2="282.474729372" /><line stroke="rgb(0%,0%,0%)" x1="489.552175354" x2="488.027116578" y1="405.417343004" y2="402.717134608" /><line stroke="rgb(0%,0%,0%)" x1="488.027116578" x2="486.778341487" y1="402.717134608" y2="400.940370888" /><line stroke="rgb(0%,0%,0%)" x1="483.833490954" x2="486.778341487" y1="395.869738839" y2="400.940370888" /><line stroke="rgb(0%,0%,0%)" x1="483.833490954" x2="481.867696931" y1="395.869738839" y2="392.761022533" /><line stroke="rgb(0%,0%,0%)" x1="485.588685309" x2="486.848668084" y1="381.562989281" y2="383.783833673" /><line stroke="rgb(0%,0%,0%)" x1="403.225666882" x2="412.632595053" y1="318.766984603" y2="323.816149483" /><line stroke="rgb(0%,0%,0%)" x1="424.961509557" x2="424.050048514" y1="301.54165003" y2="300.139154733" /><line stroke="rgb(0%,0%,0%)" x1="437.15637052" x2="428.300220183" y1="341.919181207" y2="335.410391874" /><line stroke="rgb(0%,0%,0%)" x1="432.195968525" x2="433.509836078" y1="311.752280023" y2="313.205974372" /><line stroke="rgb(0%,0%,0%)" x1="429.424206581" x2="432.195968525" y1="308.1695489" y2="311.752280023" /><line stroke="rgb(0%,0%,0%)" x1="429.424206581" x2="428.730404087" y1="308.1695489" y2="307.36592837" /><line stroke="rgb(0%,0%,0%)" x1="426.352439751" x2="428.730404087" y1="304.951919367" y2="307.36592837" /><line stroke="rgb(0%,0%,0%)" x1="425.558889167" x2="426.352439751" y1="302.946520013" y2="304.951919367" /><line stroke="rgb(0%,0%,0%)" x1="423.181456267" x2="422.84661972" y1="297.660761809" y2="298.08176521" /><line stroke="rgb(0%,0%,0%)" x1="424.961509557" x2="425.558889167" y1="301.54165003" y2="302.946520013" /><line stroke="rgb(0%,0%,0%)" x1="424.567708001" x2="423.181456267" y1="296.685153474" y2="297.660761809" /><line stroke="rgb(0%,0%,0%)" x1="424.567708001" x2="427.591808038" y1="296.685153474" y2="297.264827741" /><line stroke="rgb(0%,0%,0%)" x1="434.532992391" x2="427.591808038" y1="299.609709737" y2="297.264827741" /><line stroke="rgb(0%,0%,0%)" x1="446.876837214" x2="443.526361302" y1="345.902052216" y2="344.349174312" /><line stroke="rgb(0%,0%,0%)" x1="443.526361302" x2="437.15637052" y1="344.349174312" y2="341.919181207" /><line stroke="rgb(0%,0%,0%)" x1="440.107982168" x2="443.049327663" y1="320.674550896" y2="324.203849508" /><line stroke="rgb(0%,0%,0%)" x1="440.107982168" x2="437.868642666" y1="320.674550896" y2="318.116715831" /><line stroke="rgb(0%,0%,0%)" x1="433.509836078" x2="437.868642666" y1="313.205974372" y2="318.116715831" /><line stroke="rgb(0%,0%,0%)" x1="423.550664706" x2="424.050048514" y1="299.572893032" y2="300.139154733" /><line stroke="rgb(0%,0%,0%)" x1="423.084498834" x2="423.550664706" y1="299.044105437" y2="299.572893032" /><line stroke="rgb(0%,0%,0%)" x1="422.84661972" x2="423.084498834" y1="298.08176521" y2="299.044105437" /><line stroke="rgb(0%,0%,0%)" x1="434.532992391" x2="436.606972668" y1="299.609709737" y2="300.585308848" /><line stroke="rgb(0%,0%,0%)" x1="455.545305047" x2="450.888678785" y1="353.633301739" y2="349.379132462" /><line stroke="rgb(0%,0%,0%)" x1="452.219329636" x2="452.981954255" y1="334.420410808" y2="335.3611199" /><line stroke="rgb(0%,0%,0%)" x1="448.753079577" x2="452.219329636" y1="330.508937622" y2="334.420410808" /><line stroke="rgb(0%,0%,0%)" x1="443.049327663" x2="448.753079577" y1="324.203849508" y2="330.508937622" /><line stroke="rgb(0%,0%,0%)" x1="453.190270586" x2="448.010933603" y1="312.810813293" y2="308.281723984" /><line stroke="rgb(0%,0%,0%)" x1="449.933469126" x2="448.513597997" y1="281.640175898" y2="284.801987031" /><line stroke="rgb(0%,0%,0%)" x1="456.242769747" x2="455.545305047" y1="354.620782448" y2="353.633301739" /><line stroke="rgb(0%,0%,0%)" x1="389.119237722" x2="380.024612337" y1="314.209535601" y2="312.112556479" /><line stroke="rgb(0%,0%,0%)" x1="397.192905314" x2="391.193195554" y1="317.359198395" y2="314.827539978" /><line stroke="rgb(0%,0%,0%)" x1="403.225666882" x2="397.192905314" y1="318.766984603" y2="317.359198395" /><line stroke="rgb(0%,0%,0%)" x1="425.967245913" x2="424.097679162" y1="333.827459913" y2="332.19626047" /><line stroke="rgb(0%,0%,0%)" x1="416.012391099" x2="424.097679162" y1="325.707607655" y2="332.19626047" /><line stroke="rgb(0%,0%,0%)" x1="416.012391099" x2="412.632595053" y1="325.707607655" y2="323.816149483" /><line stroke="rgb(0%,0%,0%)" x1="428.300220183" x2="425.967245913" y1="335.410391874" y2="333.827459913" /><line stroke="rgb(0%,0%,0%)" x1="361.446892145" x2="348.083640128" y1="305.540390274" y2="302.439345759" /><line stroke="rgb(0%,0%,0%)" x1="348.083640128" x2="344.440215027" y1="302.439345759" y2="301.66239941" /><line stroke="rgb(0%,0%,0%)" x1="366.561709653" x2="378.379824729" y1="307.811170599" y2="311.462994416" /><line stroke="rgb(0%,0%,0%)" x1="364.66015212" x2="361.446892145" y1="307.598159916" y2="305.540390274" /><line stroke="rgb(0%,0%,0%)" x1="366.561709653" x2="364.66015212" y1="307.811170599" y2="307.598159916" /><line stroke="rgb(0%,0%,0%)" x1="380.024612337" x2="378.379824729" y1="312.112556479" y2="311.462994416" /><line stroke="rgb(0%,0%,0%)" x1="391.193195554" x2="389.119237722" y1="314.827539978" y2="314.209535601" /><line stroke="rgb(0%,0%,0%)" x1="324.626172797" x2="323.972674581" y1="301.080372074" y2="300.825250201" /><line stroke="rgb(0%,0%,0%)" x1="324.626172797" x2="327.817858888" y1="301.080372074" y2="301.342454726" /><line stroke="rgb(0%,0%,0%)" x1="331.496458358" x2="327.817858888" y1="302.029197396" y2="301.342454726" /><line stroke="rgb(0%,0%,0%)" x1="331.496458358" x2="336.251138527" y1="302.029197396" y2="301.336753463" /><line stroke="rgb(0%,0%,0%)" x1="323.972674581" x2="310.361187634" y1="300.825250201" y2="300.423068383" /><line stroke="rgb(0%,0%,0%)" x1="336.251138527" x2="344.290227013" y1="301.336753463" y2="301.676059127" /><line stroke="rgb(0%,0%,0%)" x1="344.440215027" x2="344.290227013" y1="301.66239941" y2="301.676059127" /><line stroke="rgb(0%,0%,0%)" x1="280.012118051" x2="277.16389344" y1="302.7198921" y2="303.117355036" /><line stroke="rgb(0%,0%,0%)" x1="280.012118051" x2="283.436404012" y1="302.7198921" y2="302.171540355" /><line stroke="rgb(0%,0%,0%)" x1="291.050402595" x2="283.436404012" y1="301.635904752" y2="302.171540355" /><line stroke="rgb(0%,0%,0%)" x1="301.637602581" x2="297.631508146" y1="301.046270814" y2="300.808365395" /><line stroke="rgb(0%,0%,0%)" x1="297.631508146" x2="291.050402595" y1="300.808365395" y2="301.635904752" /><line stroke="rgb(0%,0%,0%)" x1="310.361187634" x2="301.637602581" y1="300.423068383" y2="301.046270814" /><line stroke="rgb(0%,0%,0%)" x1="234.853543199" x2="229.46227034" y1="304.627242676" y2="305.742507761" /><line stroke="rgb(0%,0%,0%)" x1="235.555817295" x2="234.853543199" y1="304.573052179" y2="304.627242676" /><line stroke="rgb(0%,0%,0%)" x1="235.555817295" x2="236.408101785" y1="304.573052179" y2="304.479427134" /><line stroke="rgb(0%,0%,0%)" x1="236.408101785" x2="243.455403092" y1="304.479427134" y2="303.347045047" /><line stroke="rgb(0%,0%,0%)" x1="266.592104247" x2="250.322521583" y1="302.061209553" y2="302.652220449" /><line stroke="rgb(0%,0%,0%)" x1="277.16389344" x2="266.592104247" y1="303.117355036" y2="302.061209553" /><line stroke="rgb(0%,0%,0%)" x1="250.322521583" x2="247.965060284" y1="302.652220449" y2="302.743829684" /><line stroke="rgb(0%,0%,0%)" x1="229.46227034" x2="226.454146678" y1="305.742507761" y2="306.261350076" /><line stroke="rgb(0%,0%,0%)" x1="247.627692187" x2="243.455403092" y1="302.752031028" y2="303.347045047" /><line stroke="rgb(0%,0%,0%)" x1="247.771632565" x2="247.627692187" y1="302.708972288" y2="302.752031028" /><line stroke="rgb(0%,0%,0%)" x1="247.965060284" x2="247.771632565" y1="302.743829684" y2="302.708972288" /><line stroke="rgb(0%,0%,0%)" x1="187.578702675" x2="184.890786087" y1="312.225186822" y2="312.928050676" /><line stroke="rgb(0%,0%,0%)" x1="187.578702675" x2="188.507752984" y1="312.225186822" y2="312.057079933" /><line stroke="rgb(0%,0%,0%)" x1="188.507752984" x2="190.244523603" y1="312.057079933" y2="311.41772646" /><line stroke="rgb(0%,0%,0%)" x1="199.068488028" x2="190.244523603" y1="309.563418133" y2="311.41772646" /><line stroke="rgb(0%,0%,0%)" x1="209.547193142" x2="202.088477697" y1="308.733581032" y2="308.810970491" /><line stroke="rgb(0%,0%,0%)" x1="209.547193142" x2="223.756013517" y1="308.733581032" y2="306.502533269" /><line stroke="rgb(0%,0%,0%)" x1="226.454146678" x2="223.756013517" y1="306.261350076" y2="306.502533269" /><line stroke="rgb(0%,0%,0%)" x1="140.687420195" x2="145.65108519" y1="333.777154665" y2="330.892284301" /><line stroke="rgb(0%,0%,0%)" x1="172.466673371" x2="156.308537284" y1="317.713624364" y2="326.363037119" /><line stroke="rgb(0%,0%,0%)" x1="184.890786087" x2="172.466673371" y1="312.928050676" y2="317.713624364" /><line stroke="rgb(0%,0%,0%)" x1="202.088477697" x2="199.068488028" y1="308.810970491" y2="309.563418133" /><line stroke="rgb(0%,0%,0%)" x1="124.657419853" x2="127.688008592" y1="345.697908766" y2="341.336645033" /><line stroke="rgb(0%,0%,0%)" x1="124.657419853" x2="116.608114057" y1="345.697908766" y2="346.862051335" /><line stroke="rgb(0%,0%,0%)" x1="130.251407299" x2="127.688008592" y1="340.512871461" y2="341.336645033" /><line stroke="rgb(0%,0%,0%)" x1="140.687420195" x2="137.066120994" y1="333.777154665" y2="337.402714199" /><line stroke="rgb(0%,0%,0%)" x1="137.066120994" x2="130.251407299" y1="337.402714199" y2="340.512871461" /><line stroke="rgb(0%,0%,0%)" x1="152.806388498" x2="145.65108519" y1="328.356999431" y2="330.892284301" /><line stroke="rgb(0%,0%,0%)" x1="156.308537284" x2="152.806388498" y1="326.363037119" y2="328.356999431" /><line stroke="rgb(0%,0%,0%)" x1="91.3805610351" x2="80.693172198" y1="398.065558526" y2="406.887793245" /><line stroke="rgb(0%,0%,0%)" x1="91.0833374982" x2="91.5579694818" y1="382.386678723" y2="384.20470741" /><line stroke="rgb(0%,0%,0%)" x1="91.0833374982" x2="91.6328711223" y1="382.386678723" y2="381.147380803" /><line stroke="rgb(0%,0%,0%)" x1="98.0603366844" x2="91.6328711223" y1="373.985531935" y2="381.147380803" /><line stroke="rgb(0%,0%,0%)" x1="99.7099602265" x2="98.0603366844" y1="372.718632498" y2="373.985531935" /><line stroke="rgb(0%,0%,0%)" x1="99.7099602265" x2="101.088972963" y1="372.718632498" y2="371.813842365" /><line stroke="rgb(0%,0%,0%)" x1="104.404204957" x2="101.088972963" y1="369.966044603" y2="371.813842365" /><line stroke="rgb(0%,0%,0%)" x1="109.523336498" x2="104.404204957" y1="356.231312693" y2="369.966044603" /><line stroke="rgb(0%,0%,0%)" x1="109.523336498" x2="114.531722526" y1="356.231312693" y2="348.756792509" /><line stroke="rgb(0%,0%,0%)" x1="116.04727136" x2="114.531722526" y1="347.251383468" y2="348.756792509" /><line stroke="rgb(0%,0%,0%)" x1="116.608114057" x2="116.04727136" y1="346.862051335" y2="347.251383468" /><line stroke="rgb(0%,0%,0%)" x1="70.2865392638" x2="76.2109206298" y1="417.439891782" y2="410.975476484" /><line stroke="rgb(0%,0%,0%)" x1="70.2865392638" x2="66.5534454836" y1="417.439891782" y2="426.307747838" /><line stroke="rgb(0%,0%,0%)" x1="80.693172198" x2="79.3971474344" y1="406.887793245" y2="408.554238613" /><line stroke="rgb(0%,0%,0%)" x1="91.3805610351" x2="93.8809847232" y1="398.065558526" y2="394.548149379" /><line stroke="rgb(0%,0%,0%)" x1="95.1134462836" x2="93.8809847232" y1="392.550747854" y2="394.548149379" /><line stroke="rgb(0%,0%,0%)" x1="91.5579694818" x2="95.1134462836" y1="384.20470741" y2="392.550747854" /><line stroke="rgb(0%,0%,0%)" x1="51.4208379238" x2="51.544948279" y1="459.789603639" y2="461.165618939" /><line stroke="rgb(0%,0%,0%)" x1="51.7498126102" x2="51.4208379238" y1="452.212129399" y2="459.789603639" /><line stroke="rgb(0%,0%,0%)" x1="55.2764511744" x2="51.7498126102" y1="446.005687752" y2="452.212129399" /><line stroke="rgb(0%,0%,0%)" x1="56.56677529" x2="58.3144190433" y1="442.543928957" y2="439.376183345" /><line stroke="rgb(0%,0%,0%)" x1="56.56677529" x2="55.2764511744" y1="442.543928957" y2="446.005687752" /><line stroke="rgb(0%,0%,0%)" x1="60.1062277865" x2="58.3144190433" y1="437.260659269" y2="439.376183345" /><line stroke="rgb(0%,0%,0%)" x1="60.1062277865" x2="65.5310961282" y1="437.260659269" y2="428.476723008" /><line stroke="rgb(0%,0%,0%)" x1="65.9168575372" x2="65.5310961282" y1="427.36081474" y2="428.476723008" /><line stroke="rgb(0%,0%,0%)" x1="66.5534454836" x2="65.9168575372" y1="426.307747838" y2="427.36081474" /><line stroke="rgb(0%,0%,0%)" x1="77.3244754224" x2="76.2109206298" y1="409.905588024" y2="410.975476484" /><line stroke="rgb(0%,0%,0%)" x1="79.3971474344" x2="78.5156603068" y1="408.554238613" y2="409.135537294" /><line stroke="rgb(0%,0%,0%)" x1="78.5156603068" x2="77.3244754224" y1="409.135537294" y2="409.905588024" /><line stroke="rgb(0%,0%,0%)" x1="577.445783625" x2="577.092306908" y1="490.333763367" y2="491.480678232" /><line stroke="rgb(0%,0%,0%)" x1="577.445783625" x2="578.654548766" y1="490.333763367" y2="485.931412711" /><line stroke="rgb(0%,0%,0%)" x1="578.654548766" x2="578.763973113" y1="485.931412711" y2="485.743113294" /><line stroke="rgb(0%,0%,0%)" x1="581.012634045" x2="581.090635278" y1="458.515513318" y2="460.198731302" /><line stroke="rgb(0%,0%,0%)" x1="542.826644378" x2="542.274224501" y1="564.597344856" y2="565.362986995" /><line stroke="rgb(0%,0%,0%)" x1="567.631375693" x2="565.440290326" y1="523.822717076" y2="528.481698343" /><line stroke="rgb(0%,0%,0%)" x1="567.631375693" x2="568.27210191" y1="523.822717076" y2="522.038156056" /><line stroke="rgb(0%,0%,0%)" x1="568.27210191" x2="569.863187881" y1="522.038156056" y2="519.699293357" /><line stroke="rgb(0%,0%,0%)" x1="571.231954235" x2="571.037178429" y1="514.024937784" y2="516.766564432" /><line stroke="rgb(0%,0%,0%)" x1="571.231954235" x2="574.175736524" y1="514.024937784" y2="508.1629761" /><line stroke="rgb(0%,0%,0%)" x1="574.215969505" x2="574.175736524" y1="507.93685566" y2="508.1629761" /><line stroke="rgb(0%,0%,0%)" x1="574.215969505" x2="575.087807505" y1="507.93685566" y2="504.78390945" /><line stroke="rgb(0%,0%,0%)" x1="577.092306908" x2="577.013321212" y1="491.480678232" y2="496.183904096" /><line stroke="rgb(0%,0%,0%)" x1="578.763973113" x2="579.745706023" y1="485.743113294" y2="480.030183527" /><line stroke="rgb(0%,0%,0%)" x1="580.148447334" x2="581.086525492" y1="469.331355095" y2="471.057019855" /><line stroke="rgb(0%,0%,0%)" x1="580.148447334" x2="581.090635278" y1="469.331355095" y2="460.198731302" /><line stroke="rgb(0%,0%,0%)" x1="516.33681306" x2="516.306024078" y1="599.132142389" y2="599.167694848" /><line stroke="rgb(0%,0%,0%)" x1="519.948856716" x2="524.985533734" y1="592.818816628" y2="587.122747087" /><line stroke="rgb(0%,0%,0%)" x1="542.274224501" x2="539.774550687" y1="565.362986995" y2="568.669046957" /><line stroke="rgb(0%,0%,0%)" x1="542.826644378" x2="545.139235347" y1="564.597344856" y2="561.08588082" /><line stroke="rgb(0%,0%,0%)" x1="545.139235347" x2="554.058247597" y1="561.08588082" y2="546.029644168" /><line stroke="rgb(0%,0%,0%)" x1="557.124119688" x2="563.026736128" y1="541.034067554" y2="531.742905625" /><line stroke="rgb(0%,0%,0%)" x1="563.026736128" x2="565.440290326" y1="531.742905625" y2="528.481698343" /><line stroke="rgb(0%,0%,0%)" x1="569.863187881" x2="571.037178429" y1="519.699293357" y2="516.766564432" /><line stroke="rgb(0%,0%,0%)" x1="575.087807505" x2="576.534307507" y1="504.78390945" y2="497.620566085" /><line stroke="rgb(0%,0%,0%)" x1="581.108643943" x2="581.086525492" y1="471.914217614" y2="471.057019855" /><line stroke="rgb(0%,0%,0%)" x1="579.745706023" x2="581.108643943" y1="480.030183527" y2="471.914217614" /><line stroke="rgb(0%,0%,0%)" x1="485.066722715" x2="498.360722746" y1="626.973027021" y2="617.515800197" /><line stroke="rgb(0%,0%,0%)" x1="501.585238745" x2="498.360722746" y1="615.305138384" y2="617.515800197" /><line stroke="rgb(0%,0%,0%)" x1="495.855546086" x2="496.476695882" y1="490.041755231" y2="486.692560089" /><line stroke="rgb(0%,0%,0%)" x1="501.585238745" x2="505.345775808" y1="615.305138384" y2="610.091740073" /><line stroke="rgb(0%,0%,0%)" x1="505.345775808" x2="516.306024078" y1="610.091740073" y2="599.167694848" /><line stroke="rgb(0%,0%,0%)" x1="516.33681306" x2="519.948856716" y1="599.132142389" y2="592.818816628" /><line stroke="rgb(0%,0%,0%)" x1="524.985533734" x2="530.204951136" y1="587.122747087" y2="580.420425023" /><line stroke="rgb(0%,0%,0%)" x1="530.204951136" x2="539.774550687" y1="580.420425023" y2="568.669046957" /><line stroke="rgb(0%,0%,0%)" x1="554.058247597" x2="557.124119688" y1="546.029644168" y2="541.034067554" /><line stroke="rgb(0%,0%,0%)" x1="576.534307507" x2="576.641772662" y1="497.620566085" y2="497.30917746" /><line stroke="rgb(0%,0%,0%)" x1="576.641772662" x2="577.013321212" y1="497.30917746" y2="496.183904096" /><line stroke="rgb(0%,0%,0%)" x1="476.142554017" x2="473.349257498" y1="631.34948247" y2="632.590683611" /><line stroke="rgb(0%,0%,0%)" x1="482.133932804" x2="479.404687476" y1="533.83555293" y2="539.882870413" /><line stroke="rgb(0%,0%,0%)" x1="482.133932804" x2="482.371749098" y1="533.83555293" y2="533.489766283" /><line stroke="rgb(0%,0%,0%)" x1="480.156326376" x2="476.986569877" y1="518.436596342" y2="522.326856773" /><line stroke="rgb(0%,0%,0%)" x1="480.156326376" x2="486.777772795" y1="518.436596342" y2="510.267508748" /><line stroke="rgb(0%,0%,0%)" x1="488.07609856" x2="486.777772795" y1="508.644112465" y2="510.267508748" /><line stroke="rgb(0%,0%,0%)" x1="485.066722715" x2="481.828722401" y1="626.973027021" y2="628.182294935" /><line stroke="rgb(0%,0%,0%)" x1="476.142554017" x2="481.828722401" y1="631.34948247" y2="628.182294935" /><line stroke="rgb(0%,0%,0%)" x1="482.520083544" x2="482.371749098" y1="533.174385059" y2="533.489766283" /><line stroke="rgb(0%,0%,0%)" x1="482.520083544" x2="484.201174492" y1="533.174385059" y2="530.691802253" /><line stroke="rgb(0%,0%,0%)" x1="491.762629807" x2="491.113065123" y1="519.286752724" y2="520.375231283" /><line stroke="rgb(0%,0%,0%)" x1="491.113065123" x2="484.201174492" y1="520.375231283" y2="530.691802253" /><line stroke="rgb(0%,0%,0%)" x1="495.187549275" x2="491.762629807" y1="513.61293262" y2="519.286752724" /><line stroke="rgb(0%,0%,0%)" x1="495.187549275" x2="497.331917388" y1="513.61293262" y2="509.576818145" /><line stroke="rgb(0%,0%,0%)" x1="488.07609856" x2="489.754326429" y1="508.644112465" y2="504.875833557" /><line stroke="rgb(0%,0%,0%)" x1="489.754326429" x2="493.897334763" y1="504.875833557" y2="496.114843342" /><line stroke="rgb(0%,0%,0%)" x1="493.897334763" x2="494.190973373" y1="496.114843342" y2="495.449339611" /><line stroke="rgb(0%,0%,0%)" x1="494.313054871" x2="494.190973373" y1="494.638504914" y2="495.449339611" /><line stroke="rgb(0%,0%,0%)" x1="494.313054871" x2="495.855546086" y1="494.638504914" y2="490.041755231" /><line stroke="rgb(0%,0%,0%)" x1="496.476695882" x2="498.365632744" y1="486.692560089" y2="479.482203831" /><line stroke="rgb(0%,0%,0%)" x1="498.365632744" x2="498.742833964" y1="479.482203831" y2="476.898752056" /><line stroke="rgb(0%,0%,0%)" x1="498.742833964" x2="498.69799272" y1="476.898752056" y2="475.155054323" /><line stroke="rgb(0%,0%,0%)" x1="498.346909872" x2="498.87065783" y1="451.062782843" y2="448.142553558" /><line stroke="rgb(0%,0%,0%)" x1="498.735977758" x2="497.331917388" y1="506.629615927" y2="509.576818145" /><line stroke="rgb(0%,0%,0%)" x1="500.795051153" x2="499.933460122" y1="501.10683798" y2="503.562490725" /><line stroke="rgb(0%,0%,0%)" x1="499.933460122" x2="498.735977758" y1="503.562490725" y2="506.629615927" /><line stroke="rgb(0%,0%,0%)" x1="500.795051153" x2="502.951225859" y1="501.10683798" y2="496.643109673" /><line stroke="rgb(0%,0%,0%)" x1="504.427250257" x2="502.951225859" y1="493.267702714" y2="496.643109673" /><line stroke="rgb(0%,0%,0%)" x1="504.427250257" x2="507.542806662" y1="493.267702714" y2="481.918019705" /><line stroke="rgb(0%,0%,0%)" x1="507.807971797" x2="507.542806662" y1="480.571081706" y2="481.918019705" /><line stroke="rgb(0%,0%,0%)" x1="507.966255172" x2="507.807971797" y1="471.729082203" y2="480.571081706" /><line stroke="rgb(0%,0%,0%)" x1="508.173353204" x2="507.966255172" y1="466.52400007" y2="471.729082203" /><line stroke="rgb(0%,0%,0%)" x1="498.69799272" x2="498.764987524" y1="475.155054323" y2="468.434664714" /><line stroke="rgb(0%,0%,0%)" x1="508.173353204" x2="507.824491015" y1="466.52400007" y2="460.098203811" /><line stroke="rgb(0%,0%,0%)" x1="507.652618321" x2="507.824491015" y1="458.560023547" y2="460.098203811" /><line stroke="rgb(0%,0%,0%)" x1="497.895036741" x2="498.182983127" y1="457.894795263" y2="452.258195294" /><line stroke="rgb(0%,0%,0%)" x1="498.182983127" x2="498.346909872" y1="452.258195294" y2="451.062782843" /><line stroke="rgb(0%,0%,0%)" x1="497.690054834" x2="497.657189744" y1="433.490674939" y2="433.323947197" /><line stroke="rgb(0%,0%,0%)" x1="448.137680875" x2="448.585476411" y1="589.709488814" y2="589.167322328" /><line stroke="rgb(0%,0%,0%)" x1="440.548954053" x2="442.950069186" y1="559.255777944" y2="557.092770652" /><line stroke="rgb(0%,0%,0%)" x1="458.122076841" x2="457.754619292" y1="634.448383643" y2="632.529477887" /><line stroke="rgb(0%,0%,0%)" x1="458.122076841" x2="461.290835951" y1="634.448383643" y2="634.543395487" /><line stroke="rgb(0%,0%,0%)" x1="458.395687503" x2="457.754619292" y1="630.158875418" y2="632.529477887" /><line stroke="rgb(0%,0%,0%)" x1="458.289912943" x2="458.395687503" y1="623.477083865" y2="630.158875418" /><line stroke="rgb(0%,0%,0%)" x1="460.004738197" x2="459.947130728" y1="614.933707565" y2="615.045371334" /><line stroke="rgb(0%,0%,0%)" x1="460.004738197" x2="460.092556699" y1="614.933707565" y2="614.821159882" /><line stroke="rgb(0%,0%,0%)" x1="444.0872116" x2="436.19234856" y1="607.34966088" y2="613.617009741" /><line stroke="rgb(0%,0%,0%)" x1="444.0872116" x2="448.235463537" y1="607.34966088" y2="603.639348068" /><line stroke="rgb(0%,0%,0%)" x1="452.399991372" x2="451.671586102" y1="601.480178208" y2="601.890986785" /><line stroke="rgb(0%,0%,0%)" x1="448.235463537" x2="451.671586102" y1="603.639348068" y2="601.890986785" /><line stroke="rgb(0%,0%,0%)" x1="448.137680875" x2="447.730994302" y1="589.709488814" y2="590.18009935" /><line stroke="rgb(0%,0%,0%)" x1="447.730994302" x2="442.732583076" y1="590.18009935" y2="597.353017983" /><line stroke="rgb(0%,0%,0%)" x1="448.585476411" x2="449.426724889" y1="589.167322328" y2="588.126577523" /><line stroke="rgb(0%,0%,0%)" x1="453.62217331" x2="449.426724889" y1="583.275837318" y2="588.126577523" /><line stroke="rgb(0%,0%,0%)" x1="463.575294631" x2="459.937296166" y1="566.854718059" y2="573.644322757" /><line stroke="rgb(0%,0%,0%)" x1="463.575294631" x2="463.828695219" y1="566.854718059" y2="566.662046562" /><line stroke="rgb(0%,0%,0%)" x1="442.950069186" x2="444.930671126" y1="557.092770652" y2="555.770177278" /><line stroke="rgb(0%,0%,0%)" x1="450.332184689" x2="446.511151932" y1="551.054004705" y2="554.283108487" /><line stroke="rgb(0%,0%,0%)" x1="450.332184689" x2="453.553743726" y1="551.054004705" y2="547.019005052" /><line stroke="rgb(0%,0%,0%)" x1="453.553743726" x2="456.74890986" y1="547.019005052" y2="544.270578909" /><line stroke="rgb(0%,0%,0%)" x1="459.770318582" x2="458.171622538" y1="541.661197775" y2="542.562439346" /><line stroke="rgb(0%,0%,0%)" x1="461.290835951" x2="467.422627658" y1="634.543395487" y2="633.408231136" /><line stroke="rgb(0%,0%,0%)" x1="459.947130728" x2="458.289912943" y1="615.045371334" y2="623.477083865" /><line stroke="rgb(0%,0%,0%)" x1="460.092556699" x2="460.374975748" y1="614.821159882" y2="614.280724388" /><line stroke="rgb(0%,0%,0%)" x1="464.199938205" x2="460.374975748" y1="607.889050372" y2="614.280724388" /><line stroke="rgb(0%,0%,0%)" x1="467.034162943" x2="464.541722386" y1="602.150061646" y2="606.440368518" /><line stroke="rgb(0%,0%,0%)" x1="464.541722386" x2="464.199938205" y1="606.440368518" y2="607.889050372" /><line stroke="rgb(0%,0%,0%)" x1="452.399991372" x2="453.492882947" y1="601.480178208" y2="600.53574215" /><line stroke="rgb(0%,0%,0%)" x1="453.492882947" x2="456.820729328" y1="600.53574215" y2="597.80895761" /><line stroke="rgb(0%,0%,0%)" x1="467.034162943" x2="470.583244342" y1="602.150061646" y2="596.27923212" /><line stroke="rgb(0%,0%,0%)" x1="456.820729328" x2="470.363900097" y1="597.80895761" y2="587.673908655" /><line stroke="rgb(0%,0%,0%)" x1="470.363900097" x2="470.510057515" y1="587.673908655" y2="587.677280978" /><line stroke="rgb(0%,0%,0%)" x1="454.28189119" x2="453.62217331" y1="582.158949173" y2="583.275837318" /><line stroke="rgb(0%,0%,0%)" x1="454.28189119" x2="458.372517443" y1="582.158949173" y2="576.365449191" /><line stroke="rgb(0%,0%,0%)" x1="459.008276744" x2="458.372517443" y1="575.259223851" y2="576.365449191" /><line stroke="rgb(0%,0%,0%)" x1="459.937296166" x2="459.948982127" y1="573.644322757" y2="574.140087431" /><line stroke="rgb(0%,0%,0%)" x1="464.921562503" x2="463.828695219" y1="565.071801774" y2="566.662046562" /><line stroke="rgb(0%,0%,0%)" x1="459.948982127" x2="459.008276744" y1="574.140087431" y2="575.259223851" /><line stroke="rgb(0%,0%,0%)" x1="467.272945689" x2="466.713694701" y1="560.429945237" y2="561.620881808" /><line stroke="rgb(0%,0%,0%)" x1="466.713694701" x2="464.921562503" y1="561.620881808" y2="565.071801774" /><line stroke="rgb(0%,0%,0%)" x1="469.407258774" x2="467.272945689" y1="556.930953947" y2="560.429945237" /><line stroke="rgb(0%,0%,0%)" x1="471.78233317" x2="472.124588326" y1="552.700093619" y2="552.187359294" /><line stroke="rgb(0%,0%,0%)" x1="472.124588326" x2="472.636581681" y1="552.187359294" y2="551.324431953" /><line stroke="rgb(0%,0%,0%)" x1="456.74890986" x2="458.171622538" y1="544.270578909" y2="542.562439346" /><line stroke="rgb(0%,0%,0%)" x1="459.770318582" x2="462.747530453" y1="541.661197775" y2="538.472869972" /><line stroke="rgb(0%,0%,0%)" x1="467.792198552" x2="462.747530453" y1="532.732881109" y2="538.472869972" /><line stroke="rgb(0%,0%,0%)" x1="467.422627658" x2="473.349257498" y1="633.408231136" y2="632.590683611" /><line stroke="rgb(0%,0%,0%)" x1="475.147362712" x2="470.583244342" y1="586.684615829" y2="596.27923212" /><line stroke="rgb(0%,0%,0%)" x1="470.510057515" x2="475.147362712" y1="587.677280978" y2="586.684615829" /><line stroke="rgb(0%,0%,0%)" x1="471.78233317" x2="469.407258774" y1="552.700093619" y2="556.930953947" /><line stroke="rgb(0%,0%,0%)" x1="475.779487682" x2="472.636581681" y1="545.898536831" y2="551.324431953" /><line stroke="rgb(0%,0%,0%)" x1="479.404687476" x2="479.122138437" y1="539.882870413" y2="540.380390584" /><line stroke="rgb(0%,0%,0%)" x1="479.122138437" x2="475.779487682" y1="540.380390584" y2="545.898536831" /><line stroke="rgb(0%,0%,0%)" x1="467.792198552" x2="472.777050177" y1="532.732881109" y2="527.45162312" /><line stroke="rgb(0%,0%,0%)" x1="472.777050177" x2="475.235178591" y1="527.45162312" y2="524.553704834" /><line stroke="rgb(0%,0%,0%)" x1="475.235178591" x2="476.986569877" y1="524.553704834" y2="522.326856773" /><line stroke="rgb(0%,0%,0%)" x1="435.288449803" x2="435.330778104" y1="608.708252084" y2="608.620238901" /><line stroke="rgb(0%,0%,0%)" x1="434.396768679" x2="435.116898325" y1="613.619478005" y2="613.563447947" /><line stroke="rgb(0%,0%,0%)" x1="434.517135778" x2="434.396768679" y1="613.041988943" y2="613.619478005" /><line stroke="rgb(0%,0%,0%)" x1="435.116898325" x2="435.501818715" y1="613.563447947" y2="613.843648012" /><line stroke="rgb(0%,0%,0%)" x1="435.288449803" x2="434.517135778" y1="608.708252084" y2="613.041988943" /><line stroke="rgb(0%,0%,0%)" x1="435.330778104" x2="437.085493088" y1="608.620238901" y2="605.931128282" /><line stroke="rgb(0%,0%,0%)" x1="435.501818715" x2="436.19234856" y1="613.843648012" y2="613.617009741" /><line stroke="rgb(0%,0%,0%)" x1="438.895123096" x2="437.085493088" y1="603.357257932" y2="605.931128282" /><line stroke="rgb(0%,0%,0%)" x1="439.075252953" x2="438.895123096" y1="602.933621062" y2="603.357257932" /><line stroke="rgb(0%,0%,0%)" x1="442.732583076" x2="439.303381032" y1="597.353017983" y2="602.470071786" /><line stroke="rgb(0%,0%,0%)" x1="439.303381032" x2="439.075252953" y1="602.470071786" y2="602.933621062" /><line stroke="rgb(0%,0%,0%)" x1="444.930671126" x2="446.511151932" y1="555.770177278" y2="554.283108487" /><line stroke="rgb(0%,0%,0%)" x1="356.791677011" x2="346.843808973" y1="613.366556959" y2="615.38097274" /><line stroke="rgb(0%,0%,0%)" x1="356.791677011" x2="358.623049318" y1="613.366556959" y2="613.199528267" /><line stroke="rgb(0%,0%,0%)" x1="362.83955506" x2="358.623049318" y1="611.245356761" y2="613.199528267" /><line stroke="rgb(0%,0%,0%)" x1="368.199492379" x2="368.681471644" y1="609.744766624" y2="609.580419205" /><line stroke="rgb(0%,0%,0%)" x1="362.83955506" x2="368.199492379" y1="611.245356761" y2="609.744766624" /><line stroke="rgb(0%,0%,0%)" x1="297.387004745" x2="311.423314415" y1="613.848551623" y2="614.982379446" /><line stroke="rgb(0%,0%,0%)" x1="289.183634745" x2="297.387004745" y1="612.643973891" y2="613.848551623" /><line stroke="rgb(0%,0%,0%)" x1="323.60256587" x2="318.228161774" y1="613.837366687" y2="614.141049228" /><line stroke="rgb(0%,0%,0%)" x1="311.423314415" x2="318.228161774" y1="614.982379446" y2="614.141049228" /><line stroke="rgb(0%,0%,0%)" x1="323.60256587" x2="332.927135426" y1="613.837366687" y2="615.346188301" /><line stroke="rgb(0%,0%,0%)" x1="332.927135426" x2="335.997831172" y1="615.346188301" y2="615.68896073" /><line stroke="rgb(0%,0%,0%)" x1="335.997831172" x2="346.843808973" y1="615.68896073" y2="615.38097274" /><line stroke="rgb(0%,0%,0%)" x1="247.157699945" x2="245.36980312" y1="613.483106251" y2="613.284641622" /><line stroke="rgb(0%,0%,0%)" x1="252.15835444" x2="254.291404734" y1="613.308136311" y2="613.480111816" /><line stroke="rgb(0%,0%,0%)" x1="247.157699945" x2="252.15835444" y1="613.483106251" y2="613.308136311" /><line stroke="rgb(0%,0%,0%)" x1="278.061500317" x2="273.013852704" y1="611.334099258" y2="612.328247505" /><line stroke="rgb(0%,0%,0%)" x1="285.849380376" x2="278.061500317" y1="611.986121556" y2="611.334099258" /><line stroke="rgb(0%,0%,0%)" x1="285.849380376" x2="289.183634745" y1="611.986121556" y2="612.643973891" /><line stroke="rgb(0%,0%,0%)" x1="224.539032591" x2="225.267960299" y1="610.99239334" y2="611.173038954" /><line stroke="rgb(0%,0%,0%)" x1="224.539032591" x2="218.855779237" y1="610.99239334" y2="609.835509153" /><line stroke="rgb(0%,0%,0%)" x1="240.891281982" x2="245.36980312" y1="613.064947683" y2="613.284641622" /><line stroke="rgb(0%,0%,0%)" x1="232.676447974" x2="240.891281982" y1="612.703227571" y2="613.064947683" /><line stroke="rgb(0%,0%,0%)" x1="225.267960299" x2="227.97209883" y1="611.173038954" y2="611.070574202" /><line stroke="rgb(0%,0%,0%)" x1="232.676447974" x2="230.081646448" y1="612.703227571" y2="612.441985716" /><line stroke="rgb(0%,0%,0%)" x1="227.97209883" x2="230.081646448" y1="611.070574202" y2="612.441985716" /><line stroke="rgb(0%,0%,0%)" x1="254.291404734" x2="268.722431043" y1="613.480111816" y2="613.186343053" /><line stroke="rgb(0%,0%,0%)" x1="268.722431043" x2="273.013852704" y1="613.186343053" y2="612.328247505" /><line stroke="rgb(0%,0%,0%)" x1="186.633147468" x2="202.695114294" y1="600.426678913" y2="605.380566178" /><line stroke="rgb(0%,0%,0%)" x1="185.556617591" x2="186.633147468" y1="600.014726529" y2="600.426678913" /><line stroke="rgb(0%,0%,0%)" x1="210.221646963" x2="217.065534902" y1="608.455261003" y2="609.203869754" /><line stroke="rgb(0%,0%,0%)" x1="210.017123766" x2="210.221646963" y1="608.418751822" y2="608.455261003" /><line stroke="rgb(0%,0%,0%)" x1="217.065534902" x2="218.855779237" y1="609.203869754" y2="609.835509153" /><line stroke="rgb(0%,0%,0%)" x1="155.375150563" x2="149.549844413" y1="586.06658673" y2="583.569047724" /><line stroke="rgb(0%,0%,0%)" x1="185.556617591" x2="184.488118382" y1="600.014726529" y2="599.541284711" /><line stroke="rgb(0%,0%,0%)" x1="164.041588382" x2="184.488118382" y1="589.034395268" y2="599.541284711" /><line stroke="rgb(0%,0%,0%)" x1="202.695114294" x2="210.017123766" y1="605.380566178" y2="608.418751822" /><line stroke="rgb(0%,0%,0%)" x1="98.4823619867" x2="104.969640028" y1="543.945455144" y2="548.858121669" /><line stroke="rgb(0%,0%,0%)" x1="140.100929903" x2="133.311043416" y1="581.473066757" y2="579.717077701" /><line stroke="rgb(0%,0%,0%)" x1="140.100929903" x2="140.963026573" y1="581.473066757" y2="582.333850082" /><line stroke="rgb(0%,0%,0%)" x1="124.554012959" x2="133.311043416" y1="576.48172843" y2="579.717077701" /><line stroke="rgb(0%,0%,0%)" x1="110.713413054" x2="114.80953332" y1="564.100160651" y2="568.727783802" /><line stroke="rgb(0%,0%,0%)" x1="147.341669935" x2="149.549844413" y1="583.124588088" y2="583.569047724" /><line stroke="rgb(0%,0%,0%)" x1="140.963026573" x2="147.341669935" y1="582.333850082" y2="583.124588088" /><line stroke="rgb(0%,0%,0%)" x1="155.375150563" x2="164.041588382" y1="586.06658673" y2="589.034395268" /><line stroke="rgb(0%,0%,0%)" x1="81.1066714551" x2="82.7003806468" y1="514.201246815" y2="515.599202292" /><line stroke="rgb(0%,0%,0%)" x1="81.1066714551" x2="78.4226112116" y1="514.201246815" y2="511.517601246" /><line stroke="rgb(0%,0%,0%)" x1="86.6142453137" x2="91.7750845807" y1="517.777260634" y2="520.239799617" /><line stroke="rgb(0%,0%,0%)" x1="82.7003806468" x2="86.6142453137" y1="515.599202292" y2="517.777260634" /><line stroke="rgb(0%,0%,0%)" x1="106.210756606" x2="109.900175036" y1="553.665889063" y2="562.738954613" /><line stroke="rgb(0%,0%,0%)" x1="104.969640028" x2="106.210756606" y1="548.858121669" y2="553.665889063" /><line stroke="rgb(0%,0%,0%)" x1="94.8257326066" x2="98.4823619867" y1="541.18743953" y2="543.945455144" /><line stroke="rgb(0%,0%,0%)" x1="94.8257326066" x2="94.6785242961" y1="541.18743953" y2="540.96150914" /><line stroke="rgb(0%,0%,0%)" x1="93.6122345142" x2="93.1239565621" y1="530.014335577" y2="531.231508217" /><line stroke="rgb(0%,0%,0%)" x1="97.1986999657" x2="93.6122345142" y1="526.100450242" y2="530.014335577" /><line stroke="rgb(0%,0%,0%)" x1="97.1986999657" x2="97.071331511" y1="526.100450242" y2="525.362398622" /><line stroke="rgb(0%,0%,0%)" x1="97.071331511" x2="95.9534954836" y1="525.362398622" y2="523.152308902" /><line stroke="rgb(0%,0%,0%)" x1="95.9534954836" x2="92.6624209199" y1="523.152308902" y2="520.904055769" /><line stroke="rgb(0%,0%,0%)" x1="121.820881076" x2="123.298073304" y1="575.178899483" y2="576.10251643" /><line stroke="rgb(0%,0%,0%)" x1="114.80953332" x2="121.820881076" y1="568.727783802" y2="575.178899483" /><line stroke="rgb(0%,0%,0%)" x1="110.713413054" x2="109.900175036" y1="564.100160651" y2="562.738954613" /><line stroke="rgb(0%,0%,0%)" x1="123.298073304" x2="124.554012959" y1="576.10251643" y2="576.48172843" /><line stroke="rgb(0%,0%,0%)" x1="66.5848128294" x2="68.4668525422" y1="498.166062618" y2="502.109851312" /><line stroke="rgb(0%,0%,0%)" x1="64.1924914939" x2="66.5848128294" y1="493.757116217" y2="498.166062618" /><line stroke="rgb(0%,0%,0%)" x1="60.0724690223" x2="62.6725135275" y1="488.864192179" y2="491.728446013" /><line stroke="rgb(0%,0%,0%)" x1="64.1924914939" x2="62.6725135275" y1="493.757116217" y2="491.728446013" /><line stroke="rgb(0%,0%,0%)" x1="55.0043763698" x2="58.900821278" y1="478.924183777" y2="486.260367035" /><line stroke="rgb(0%,0%,0%)" x1="58.900821278" x2="60.0724690223" y1="486.260367035" y2="488.864192179" /><line stroke="rgb(0%,0%,0%)" x1="55.0043763698" x2="54.3721308392" y1="478.924183777" y2="474.543646176" /><line stroke="rgb(0%,0%,0%)" x1="71.1775788104" x2="78.4226112116" y1="504.930340335" y2="511.517601246" /><line stroke="rgb(0%,0%,0%)" x1="68.4668525422" x2="71.1775788104" y1="502.109851312" y2="504.930340335" /><line stroke="rgb(0%,0%,0%)" x1="92.7810022619" x2="94.6785242961" y1="535.896708753" y2="540.96150914" /><line stroke="rgb(0%,0%,0%)" x1="93.1239565621" x2="92.7810022619" y1="531.231508217" y2="535.896708753" /><line stroke="rgb(0%,0%,0%)" x1="92.3042805208" x2="92.6624209199" y1="520.458114306" y2="520.904055769" /><line stroke="rgb(0%,0%,0%)" x1="91.7750845807" x2="92.3042805208" y1="520.239799617" y2="520.458114306" /><line stroke="rgb(0%,0%,0%)" x1="53.6483636577" x2="54.3721308392" y1="472.327259136" y2="474.543646176" /><line stroke="rgb(0%,0%,0%)" x1="52.1573973026" x2="53.6483636577" y1="464.633029179" y2="472.327259136" /><line stroke="rgb(0%,0%,0%)" x1="51.544948279" x2="52.1573973026" y1="461.165618939" y2="464.633029179" /><line stroke="rgb(0%,0%,0%)" x1="498.935003671" x2="498.764987524" y1="467.511885394" y2="468.434664714" /><line stroke="rgb(0%,0%,0%)" x1="498.935003671" x2="498.714413393" y1="467.511885394" y2="466.779787962" /><line stroke="rgb(0%,0%,0%)" x1="498.714413393" x2="498.640473028" y1="466.779787962" y2="460.026171747" /><line stroke="rgb(0%,0%,0%)" x1="498.640473028" x2="497.951834279" y1="460.026171747" y2="458.514608888" /><line stroke="rgb(0%,0%,0%)" x1="388.449387394" x2="381.48284452" y1="604.160559795" y2="605.713786114" /><line stroke="rgb(0%,0%,0%)" x1="400.855442098" x2="392.825534473" y1="598.609149563" y2="602.193414604" /><line stroke="rgb(0%,0%,0%)" x1="406.544723762" x2="409.595545882" y1="594.879929697" y2="593.064617662" /><line stroke="rgb(0%,0%,0%)" x1="417.392843704" x2="418.907021073" y1="586.366362913" y2="584.848294842" /><line stroke="rgb(0%,0%,0%)" x1="411.842895593" x2="409.595545882" y1="590.874805212" y2="593.064617662" /><line stroke="rgb(0%,0%,0%)" x1="416.123596176" x2="417.392843704" y1="587.178257614" y2="586.366362913" /><line stroke="rgb(0%,0%,0%)" x1="411.842895593" x2="416.123596176" y1="590.874805212" y2="587.178257614" /><line stroke="rgb(0%,0%,0%)" x1="418.907021073" x2="420.12598967" y1="584.848294842" y2="583.16611722" /><line stroke="rgb(0%,0%,0%)" x1="429.566925005" x2="420.12598967" y1="572.371739751" y2="583.16611722" /><line stroke="rgb(0%,0%,0%)" x1="429.566925005" x2="435.27485639" y1="572.371739751" y2="564.24934017" /><line stroke="rgb(0%,0%,0%)" x1="435.27485639" x2="437.189623279" y1="564.24934017" y2="562.036809282" /><line stroke="rgb(0%,0%,0%)" x1="437.189623279" x2="440.548954053" y1="562.036809282" y2="559.255777944" /><line stroke="rgb(0%,0%,0%)" x1="379.833031245" x2="380.909740768" y1="606.234286184" y2="605.916516178" /><line stroke="rgb(0%,0%,0%)" x1="368.681471644" x2="379.833031245" y1="609.580419205" y2="606.234286184" /><line stroke="rgb(0%,0%,0%)" x1="380.909740768" x2="381.48284452" y1="605.916516178" y2="605.713786114" /><line stroke="rgb(0%,0%,0%)" x1="388.449387394" x2="392.825534473" y1="604.160559795" y2="602.193414604" /><line stroke="rgb(0%,0%,0%)" x1="400.855442098" x2="406.544723762" y1="598.609149563" y2="594.879929697" /></svg>