<?xml version="1.0" encoding="utf-8" ?>
<svg baseProfile="full" height="100%" version="1.1" viewBox="0.5 0.5 685.793960571 941.299331665" width="100%" xmlns="http://www.w3.org/2000/svg" xmlns:ev="http://www.w3.org/2001/xml-events" xmlns:xlink="http://www.w3.org/1999/xlink"><defs /><line stroke="rgb(0%,0%,0%)" x1="670.44290287" x2="669.859373454" y1="358.388667041" y2="356.427598356" /><line stroke="rgb(0%,0%,0%)" x1="682.212146831" x2="684.106584899" y1="439.650908308" y2="450.921030409" /><line stroke="rgb(0%,0%,0%)" x1="680.278134588" x2="681.773939296" y1="407.573328766" y2="418.980980284" /><line stroke="rgb(0%,0%,0%)" x1="680.278134588" x2="679.70442499" y1="407.573328766" y2="404.208373986" /><line stroke="rgb(0%,0%,0%)" x1="679.513857798" x2="679.70442499" y1="403.422970746" y2="404.208373986" /><line stroke="rgb(0%,0%,0%)" x1="679.513857798" x2="679.133980835" y1="403.422970746" y2="401.125732066" /><line stroke="rgb(0%,0%,0%)" x1="679.133980835" x2="678.237290921" y1="401.125732066" y2="393.580663491" /><line stroke="rgb(0%,0%,0%)" x1="678.237290921" x2="678.454008966" y1="393.580663491" y2="392.180150595" /><line stroke="rgb(0%,0%,0%)" x1="673.312840559" x2="675.375745075" y1="373.952294373" y2="381.47111086" /><line stroke="rgb(0%,0%,0%)" x1="673.312840559" x2="672.059309629" y1="373.952294373" y2="369.407329807" /><line stroke="rgb(0%,0%,0%)" x1="647.139269062" x2="649.362171041" y1="291.694612208" y2="296.90992039" /><line stroke="rgb(0%,0%,0%)" x1="640.366392055" x2="641.704287487" y1="274.374948059" y2="277.465531117" /><line stroke="rgb(0%,0%,0%)" x1="657.155800115" x2="658.85937136" y1="319.416260348" y2="323.649548724" /><line stroke="rgb(0%,0%,0%)" x1="654.091724587" x2="654.806310685" y1="306.809242287" y2="308.398171293" /><line stroke="rgb(0%,0%,0%)" x1="654.091724587" x2="652.596930091" y1="306.809242287" y2="302.762935727" /><line stroke="rgb(0%,0%,0%)" x1="652.596930091" x2="649.362171041" y1="302.762935727" y2="296.90992039" /><line stroke="rgb(0%,0%,0%)" x1="669.859373454" x2="669.875331412" y1="356.427598356" y2="355.069314672" /><line stroke="rgb(0%,0%,0%)" x1="682.212146831" x2="682.365562512" y1="439.650908308" y2="435.298513213" /><line stroke="rgb(0%,0%,0%)" x1="681.735510307" x2="682.251864084" y1="426.391568745" y2="423.018258852" /><line stroke="rgb(0%,0%,0%)" x1="675.375745075" x2="677.6093284" y1="381.47111086" y2="387.42879456" /><line stroke="rgb(0%,0%,0%)" x1="671.201096289" x2="672.059309629" y1="365.627720442" y2="369.407329807" /><line stroke="rgb(0%,0%,0%)" x1="671.201096289" x2="670.44290287" y1="365.627720442" y2="358.388667041" /><line stroke="rgb(0%,0%,0%)" x1="684.409872932" x2="684.106584899" y1="455.568590582" y2="450.921030409" /><line stroke="rgb(0%,0%,0%)" x1="682.242608371" x2="681.735510307" y1="431.965616846" y2="426.391568745" /><line stroke="rgb(0%,0%,0%)" x1="597.45772876" x2="595.669910377" y1="187.948680207" y2="183.709488535" /><line stroke="rgb(0%,0%,0%)" x1="633.816914448" x2="638.019872152" y1="258.240089948" y2="267.145003172" /><line stroke="rgb(0%,0%,0%)" x1="633.816914448" x2="631.854449679" y1="258.240089948" y2="255.136659088" /><line stroke="rgb(0%,0%,0%)" x1="631.854449679" x2="627.771757104" y1="255.136659088" y2="244.066947658" /><line stroke="rgb(0%,0%,0%)" x1="647.139269062" x2="641.704287487" y1="291.694612208" y2="277.465531117" /><line stroke="rgb(0%,0%,0%)" x1="640.366392055" x2="638.044065655" y1="274.374948059" y2="267.2126836" /><line stroke="rgb(0%,0%,0%)" x1="669.875331412" x2="668.099042527" y1="355.069314672" y2="350.795680659" /><line stroke="rgb(0%,0%,0%)" x1="668.099042527" x2="665.074221116" y1="350.795680659" y2="342.814584471" /><line stroke="rgb(0%,0%,0%)" x1="665.074221116" x2="664.715339592" y1="342.814584471" y2="341.280118029" /><line stroke="rgb(0%,0%,0%)" x1="664.715339592" x2="664.457397664" y1="341.280118029" y2="340.45411335" /><line stroke="rgb(0%,0%,0%)" x1="658.85937136" x2="664.457397664" y1="323.649548724" y2="340.45411335" /><line stroke="rgb(0%,0%,0%)" x1="657.155800115" x2="654.806310685" y1="319.416260348" y2="308.398171293" /><line stroke="rgb(0%,0%,0%)" x1="678.454008966" x2="678.124131287" y1="392.180150595" y2="390.593390195" /><line stroke="rgb(0%,0%,0%)" x1="682.251864084" x2="682.039099355" y1="423.018258852" y2="422.055637297" /><line stroke="rgb(0%,0%,0%)" x1="682.039099355" x2="681.773939296" y1="422.055637297" y2="418.980980284" /><line stroke="rgb(0%,0%,0%)" x1="589.82051806" x2="590.226059663" y1="170.854750619" y2="171.636757998" /><line stroke="rgb(0%,0%,0%)" x1="589.82051806" x2="582.800568193" y1="170.854750619" y2="161.683967878" /><line stroke="rgb(0%,0%,0%)" x1="582.800568193" x2="581.57002288" y1="161.683967878" y2="160.145529834" /><line stroke="rgb(0%,0%,0%)" x1="597.45772876" x2="598.917516695" y1="187.948680207" y2="190.608902425" /><line stroke="rgb(0%,0%,0%)" x1="595.669910377" x2="594.894756498" y1="183.709488535" y2="182.186680617" /><line stroke="rgb(0%,0%,0%)" x1="590.226059663" x2="593.901364561" y1="171.636757998" y2="179.801091598" /><line stroke="rgb(0%,0%,0%)" x1="594.894756498" x2="593.901364561" y1="182.186680617" y2="179.801091598" /><line stroke="rgb(0%,0%,0%)" x1="608.457038094" x2="598.917516695" y1="209.563614283" y2="190.608902425" /><line stroke="rgb(0%,0%,0%)" x1="608.457038094" x2="613.689009702" y1="209.563614283" y2="217.298690863" /><line stroke="rgb(0%,0%,0%)" x1="625.382521898" x2="624.523986547" y1="239.213265937" y2="237.47373646" /><line stroke="rgb(0%,0%,0%)" x1="624.523986547" x2="613.931577581" y1="237.47373646" y2="218.101193065" /><line stroke="rgb(0%,0%,0%)" x1="613.931577581" x2="613.689009702" y1="218.101193065" y2="217.298690863" /><line stroke="rgb(0%,0%,0%)" x1="627.771757104" x2="626.388723297" y1="244.066947658" y2="241.42091959" /><line stroke="rgb(0%,0%,0%)" x1="638.044065655" x2="638.022690655" y1="267.2126836" y2="267.16599068" /><line stroke="rgb(0%,0%,0%)" x1="638.022690655" x2="638.019872152" y1="267.16599068" y2="267.145003172" /><line stroke="rgb(0%,0%,0%)" x1="678.124131287" x2="677.6093284" y1="390.593390195" y2="387.42879456" /><line stroke="rgb(0%,0%,0%)" x1="518.870091865" x2="512.666221551" y1="131.613566582" y2="129.122936714" /><line stroke="rgb(0%,0%,0%)" x1="559.383904499" x2="548.004089467" y1="147.412321907" y2="142.079962483" /><line stroke="rgb(0%,0%,0%)" x1="571.747976658" x2="569.475688679" y1="153.351280919" y2="152.830480346" /><line stroke="rgb(0%,0%,0%)" x1="571.747976658" x2="577.706742189" y1="153.351280919" y2="157.343154346" /><line stroke="rgb(0%,0%,0%)" x1="569.475688679" x2="561.7829546" y1="152.830480346" y2="148.612176555" /><line stroke="rgb(0%,0%,0%)" x1="581.57002288" x2="577.706742189" y1="160.145529834" y2="157.343154346" /><line stroke="rgb(0%,0%,0%)" x1="626.388723297" x2="625.382521898" y1="241.42091959" y2="239.213265937" /><line stroke="rgb(0%,0%,0%)" x1="532.20686218" x2="518.870091865" y1="136.570171059" y2="131.613566582" /><line stroke="rgb(0%,0%,0%)" x1="532.20686218" x2="539.666130563" y1="136.570171059" y2="139.102847021" /><line stroke="rgb(0%,0%,0%)" x1="548.004089467" x2="539.666130563" y1="142.079962483" y2="139.102847021" /><line stroke="rgb(0%,0%,0%)" x1="459.575940386" x2="456.674450083" y1="109.029656043" y2="107.976484832" /><line stroke="rgb(0%,0%,0%)" x1="505.857329669" x2="494.657419665" y1="127.476986449" y2="122.285556768" /><line stroke="rgb(0%,0%,0%)" x1="512.666221551" x2="505.857329669" y1="129.122936714" y2="127.476986449" /><line stroke="rgb(0%,0%,0%)" x1="441.830129402" x2="429.479816196" y1="104.019730685" y2="100.610268968" /><line stroke="rgb(0%,0%,0%)" x1="478.392599661" x2="459.575940386" y1="116.692600232" y2="109.029656043" /><line stroke="rgb(0%,0%,0%)" x1="386.682151727" x2="387.367171871" y1="103.843881254" y2="103.4960538" /><line stroke="rgb(0%,0%,0%)" x1="421.023514384" x2="416.640245652" y1="99.0323819042" y2="98.8845137634" /><line stroke="rgb(0%,0%,0%)" x1="426.368640205" x2="421.023514384" y1="100.807384981" y2="99.0323819042" /><line stroke="rgb(0%,0%,0%)" x1="426.368640205" x2="429.479816196" y1="100.807384981" y2="100.610268968" /><line stroke="rgb(0%,0%,0%)" x1="456.674450083" x2="441.830129402" y1="107.976484832" y2="104.019730685" /><line stroke="rgb(0%,0%,0%)" x1="362.067938982" x2="357.824702588" y1="125.278143042" y2="130.962385967" /><line stroke="rgb(0%,0%,0%)" x1="385.514183313" x2="381.013459985" y1="104.586008545" y2="107.719394401" /><line stroke="rgb(0%,0%,0%)" x1="386.682151727" x2="385.514183313" y1="103.843881254" y2="104.586008545" /><line stroke="rgb(0%,0%,0%)" x1="404.989626535" x2="403.554497003" y1="98.7470182719" y2="98.8178084809" /><line stroke="rgb(0%,0%,0%)" x1="416.640245652" x2="404.989626535" y1="98.8845137634" y2="98.7470182719" /><line stroke="rgb(0%,0%,0%)" x1="370.081715539" x2="365.742945823" y1="116.107080803" y2="120.82954711" /><line stroke="rgb(0%,0%,0%)" x1="373.413189318" x2="370.081715539" y1="113.330637601" y2="116.107080803" /><line stroke="rgb(0%,0%,0%)" x1="381.013459985" x2="373.413189318" y1="107.719394401" y2="113.330637601" /><line stroke="rgb(0%,0%,0%)" x1="392.811991682" x2="387.367171871" y1="101.775388368" y2="103.4960538" /><line stroke="rgb(0%,0%,0%)" x1="392.811991682" x2="401.493350818" y1="101.775388368" y2="99.143370743" /><line stroke="rgb(0%,0%,0%)" x1="403.554497003" x2="401.493350818" y1="98.8178084809" y2="99.143370743" /><line stroke="rgb(0%,0%,0%)" x1="305.502203313" x2="303.955740779" y1="196.81803889" y2="201.29552197" /><line stroke="rgb(0%,0%,0%)" x1="305.502203313" x2="312.180730558" y1="196.81803889" y2="184.690021913" /><line stroke="rgb(0%,0%,0%)" x1="326.167867878" x2="333.8320832" y1="170.627667256" y2="168.494773077" /><line stroke="rgb(0%,0%,0%)" x1="340.907885859" x2="337.130646368" y1="163.767275495" y2="166.771477475" /><line stroke="rgb(0%,0%,0%)" x1="337.130646368" x2="334.695315855" y1="166.771477475" y2="168.189035794" /><line stroke="rgb(0%,0%,0%)" x1="334.695315855" x2="333.8320832" y1="168.189035794" y2="168.494773077" /><line stroke="rgb(0%,0%,0%)" x1="340.907885859" x2="348.710574262" y1="163.767275495" y2="147.691462217" /><line stroke="rgb(0%,0%,0%)" x1="353.18042876" x2="348.710574262" y1="138.949593232" y2="147.691462217" /><line stroke="rgb(0%,0%,0%)" x1="354.692172455" x2="353.18042876" y1="135.619917264" y2="138.949593232" /><line stroke="rgb(0%,0%,0%)" x1="355.477290011" x2="354.692172455" y1="134.418480732" y2="135.619917264" /><line stroke="rgb(0%,0%,0%)" x1="357.824702588" x2="355.477290011" y1="130.962385967" y2="134.418480732" /><line stroke="rgb(0%,0%,0%)" x1="308.029489858" x2="306.436379671" y1="265.918597881" y2="267.14240081" /><line stroke="rgb(0%,0%,0%)" x1="306.436379671" x2="301.840508621" y1="267.14240081" y2="269.079755163" /><line stroke="rgb(0%,0%,0%)" x1="301.840508621" x2="294.220949073" y1="269.079755163" y2="273.472453506" /><line stroke="rgb(0%,0%,0%)" x1="308.151699949" x2="308.029489858" y1="262.514512313" y2="265.918597881" /><line stroke="rgb(0%,0%,0%)" x1="303.72419936" x2="300.889912863" y1="242.847589977" y2="227.225962385" /><line stroke="rgb(0%,0%,0%)" x1="301.837086257" x2="300.852509584" y1="207.801794925" y2="224.40645498" /><line stroke="rgb(0%,0%,0%)" x1="303.955740779" x2="301.837086257" y1="201.29552197" y2="207.801794925" /><line stroke="rgb(0%,0%,0%)" x1="314.05058513" x2="312.180730558" y1="180.924735593" y2="184.690021913" /><line stroke="rgb(0%,0%,0%)" x1="315.536230938" x2="314.05058513" y1="178.957228932" y2="180.924735593" /><line stroke="rgb(0%,0%,0%)" x1="249.99495131" x2="256.288474901" y1="351.177197929" y2="351.172473788" /><line stroke="rgb(0%,0%,0%)" x1="270.335988109" x2="270.002703865" y1="360.478103853" y2="358.157704634" /><line stroke="rgb(0%,0%,0%)" x1="270.335988109" x2="269.480608178" y1="360.478103853" y2="363.225403344" /><line stroke="rgb(0%,0%,0%)" x1="268.607673916" x2="266.392945347" y1="348.93999343" y2="349.435577448" /><line stroke="rgb(0%,0%,0%)" x1="256.288474901" x2="266.392945347" y1="351.172473788" y2="349.435577448" /><line stroke="rgb(0%,0%,0%)" x1="276.026251624" x2="274.571624444" y1="423.321535009" y2="422.655627523" /><line stroke="rgb(0%,0%,0%)" x1="279.128021043" x2="276.026251624" y1="422.350936153" y2="423.321535009" /><line stroke="rgb(0%,0%,0%)" x1="270.002703865" x2="269.640556898" y1="358.157704634" y2="355.368924359" /><line stroke="rgb(0%,0%,0%)" x1="268.607673916" x2="268.976068864" y1="348.93999343" y2="349.558615019" /><line stroke="rgb(0%,0%,0%)" x1="268.976068864" x2="268.917600396" y1="349.558615019" y2="350.648869694" /><line stroke="rgb(0%,0%,0%)" x1="286.999113597" x2="285.453635519" y1="443.768746378" y2="431.426131158" /><line stroke="rgb(0%,0%,0%)" x1="282.939244838" x2="284.993497668" y1="423.739326681" y2="429.254915651" /><line stroke="rgb(0%,0%,0%)" x1="281.705044621" x2="282.939244838" y1="423.267304408" y2="423.739326681" /><line stroke="rgb(0%,0%,0%)" x1="284.993497668" x2="285.432006156" y1="429.254915651" y2="430.765808182" /><line stroke="rgb(0%,0%,0%)" x1="279.128021043" x2="281.705044621" y1="422.350936153" y2="423.267304408" /><line stroke="rgb(0%,0%,0%)" x1="282.014741711" x2="278.152512996" y1="281.367035962" y2="285.664146151" /><line stroke="rgb(0%,0%,0%)" x1="303.72419936" x2="307.688577323" y1="242.847589977" y2="257.473141266" /><line stroke="rgb(0%,0%,0%)" x1="300.852509584" x2="300.818613053" y1="224.40645498" y2="225.779645938" /><line stroke="rgb(0%,0%,0%)" x1="300.818613053" x2="300.889912863" y1="225.779645938" y2="227.225962385" /><line stroke="rgb(0%,0%,0%)" x1="234.14874434" x2="233.981148169" y1="426.545615285" y2="425.448998266" /><line stroke="rgb(0%,0%,0%)" x1="233.455944131" x2="233.99068644" y1="429.554626362" y2="434.037562216" /><line stroke="rgb(0%,0%,0%)" x1="234.14874434" x2="233.455944131" y1="426.545615285" y2="429.554626362" /><line stroke="rgb(0%,0%,0%)" x1="234.816453552" x2="233.981148169" y1="422.633830482" y2="425.448998266" /><line stroke="rgb(0%,0%,0%)" x1="239.571033779" x2="239.091342467" y1="344.468356991" y2="342.672095256" /><line stroke="rgb(0%,0%,0%)" x1="243.281251884" x2="242.037504627" y1="348.860653653" y2="348.134154747" /><line stroke="rgb(0%,0%,0%)" x1="239.571033779" x2="242.037504627" y1="344.468356991" y2="348.134154747" /><line stroke="rgb(0%,0%,0%)" x1="239.752368417" x2="244.012303874" y1="439.966209294" y2="440.073038711" /><line stroke="rgb(0%,0%,0%)" x1="239.752368417" x2="236.947874663" y1="439.966209294" y2="439.032035474" /><line stroke="rgb(0%,0%,0%)" x1="247.466380376" x2="247.877208398" y1="438.569492713" y2="438.346214325" /><line stroke="rgb(0%,0%,0%)" x1="244.012303874" x2="247.466380376" y1="440.073038711" y2="438.569492713" /><line stroke="rgb(0%,0%,0%)" x1="247.877208398" x2="251.307311552" y1="438.346214325" y2="436.672014766" /><line stroke="rgb(0%,0%,0%)" x1="238.967890245" x2="237.872416908" y1="411.718616238" y2="414.942121624" /><line stroke="rgb(0%,0%,0%)" x1="238.967890245" x2="239.844893251" y1="411.718616238" y2="409.844354723" /><line stroke="rgb(0%,0%,0%)" x1="241.677218154" x2="239.844893251" y1="405.690171677" y2="409.844354723" /><line stroke="rgb(0%,0%,0%)" x1="241.677218154" x2="245.490941975" y1="405.690171677" y2="396.423724257" /><line stroke="rgb(0%,0%,0%)" x1="248.992405152" x2="247.85629578" y1="392.118493634" y2="392.863293167" /><line stroke="rgb(0%,0%,0%)" x1="243.281251884" x2="245.403258177" y1="348.860653653" y2="350.581534114" /><line stroke="rgb(0%,0%,0%)" x1="245.403258177" x2="249.99495131" y1="350.581534114" y2="351.177197929" /><line stroke="rgb(0%,0%,0%)" x1="251.307311552" x2="258.486427691" y1="436.672014766" y2="432.873844906" /><line stroke="rgb(0%,0%,0%)" x1="258.486427691" x2="261.581150479" y1="432.873844906" y2="430.067224696" /><line stroke="rgb(0%,0%,0%)" x1="248.992405152" x2="249.698643205" y1="392.118493634" y2="391.341416712" /><line stroke="rgb(0%,0%,0%)" x1="256.533460839" x2="249.698643205" y1="383.906655638" y2="391.341416712" /><line stroke="rgb(0%,0%,0%)" x1="261.722095353" x2="261.835714258" y1="381.59047189" y2="381.363064904" /><line stroke="rgb(0%,0%,0%)" x1="261.722095353" x2="256.533460839" y1="381.59047189" y2="383.906655638" /><line stroke="rgb(0%,0%,0%)" x1="261.835714258" x2="261.969229212" y1="381.363064904" y2="381.1324392" /><line stroke="rgb(0%,0%,0%)" x1="267.122299562" x2="261.581150479" y1="426.66041939" y2="430.067224696" /><line stroke="rgb(0%,0%,0%)" x1="267.122299562" x2="271.093617802" y1="426.66041939" y2="424.690554221" /><line stroke="rgb(0%,0%,0%)" x1="271.093617802" x2="272.778377292" y1="424.690554221" y2="423.072864705" /><line stroke="rgb(0%,0%,0%)" x1="272.778377292" x2="274.571624444" y1="423.072864705" y2="422.655627523" /><line stroke="rgb(0%,0%,0%)" x1="265.619405932" x2="261.969229212" y1="376.695601906" y2="381.1324392" /><line stroke="rgb(0%,0%,0%)" x1="266.308815174" x2="265.619405932" y1="375.539783581" y2="376.695601906" /><line stroke="rgb(0%,0%,0%)" x1="268.133860515" x2="267.431407317" y1="370.823600151" y2="373.486209703" /><line stroke="rgb(0%,0%,0%)" x1="267.431407317" x2="266.308815174" y1="373.486209703" y2="375.539783581" /><line stroke="rgb(0%,0%,0%)" x1="268.133860515" x2="269.248064271" y1="370.823600151" y2="366.39175176" /><line stroke="rgb(0%,0%,0%)" x1="269.202470237" x2="269.248064271" y1="365.002674214" y2="366.39175176" /><line stroke="rgb(0%,0%,0%)" x1="269.301762313" x2="269.202470237" y1="364.461528741" y2="365.002674214" /><line stroke="rgb(0%,0%,0%)" x1="269.480608178" x2="269.301762313" y1="363.225403344" y2="364.461528741" /><line stroke="rgb(0%,0%,0%)" x1="269.342982724" x2="269.640556898" y1="351.885925397" y2="355.368924359" /><line stroke="rgb(0%,0%,0%)" x1="268.917600396" x2="269.342982724" y1="350.648869694" y2="351.885925397" /><line stroke="rgb(0%,0%,0%)" x1="265.972169393" x2="256.757685496" y1="304.013001228" y2="311.87163454" /><line stroke="rgb(0%,0%,0%)" x1="269.56912669" x2="265.972169393" y1="298.513462994" y2="304.013001228" /><line stroke="rgb(0%,0%,0%)" x1="285.432006156" x2="285.453635519" y1="430.765808182" y2="431.426131158" /><line stroke="rgb(0%,0%,0%)" x1="235.733246252" x2="236.947874663" y1="438.289007258" y2="439.032035474" /><line stroke="rgb(0%,0%,0%)" x1="234.091625477" x2="235.733246252" y1="434.740438889" y2="438.289007258" /><line stroke="rgb(0%,0%,0%)" x1="234.917272628" x2="234.816453552" y1="420.7629888" y2="422.633830482" /><line stroke="rgb(0%,0%,0%)" x1="237.09492541" x2="234.917272628" y1="416.628032" y2="420.7629888" /><line stroke="rgb(0%,0%,0%)" x1="237.09492541" x2="237.872416908" y1="416.628032" y2="414.942121624" /><line stroke="rgb(0%,0%,0%)" x1="238.918358965" x2="239.091342467" y1="340.842489673" y2="342.672095256" /><line stroke="rgb(0%,0%,0%)" x1="233.99068644" x2="234.091625477" y1="434.037562216" y2="434.740438889" /><line stroke="rgb(0%,0%,0%)" x1="247.85629578" x2="245.490941975" y1="392.863293167" y2="396.423724257" /><line stroke="rgb(0%,0%,0%)" x1="240.065619089" x2="238.883337021" y1="335.472741008" y2="339.159069431" /><line stroke="rgb(0%,0%,0%)" x1="238.883337021" x2="238.918358965" y1="339.159069431" y2="340.842489673" /><line stroke="rgb(0%,0%,0%)" x1="681.217064682" x2="681.066471831" y1="491.453075108" y2="492.678154243" /><line stroke="rgb(0%,0%,0%)" x1="662.422523241" x2="662.105843382" y1="577.426978396" y2="578.564338911" /><line stroke="rgb(0%,0%,0%)" x1="669.047290658" x2="670.046670387" y1="548.246986696" y2="545.125420849" /><line stroke="rgb(0%,0%,0%)" x1="670.046670387" x2="672.77592173" y1="545.125420849" y2="536.210017916" /><line stroke="rgb(0%,0%,0%)" x1="677.246933556" x2="675.409713523" y1="516.039299398" y2="524.234247082" /><line stroke="rgb(0%,0%,0%)" x1="677.246933556" x2="678.117150965" y1="516.039299398" y2="510.858741617" /><line stroke="rgb(0%,0%,0%)" x1="678.117150965" x2="678.543714791" y1="510.858741617" y2="509.500903119" /><line stroke="rgb(0%,0%,0%)" x1="680.076590318" x2="681.066471831" y1="499.907868405" y2="492.678154243" /><line stroke="rgb(0%,0%,0%)" x1="681.217064682" x2="681.676806544" y1="491.453075108" y2="481.787960107" /><line stroke="rgb(0%,0%,0%)" x1="681.676806544" x2="682.910022826" y1="481.787960107" y2="479.244361309" /><line stroke="rgb(0%,0%,0%)" x1="682.910022826" x2="683.331800403" y1="479.244361309" y2="477.495957848" /><line stroke="rgb(0%,0%,0%)" x1="683.339330131" x2="683.331800403" y1="474.219865195" y2="477.495957848" /><line stroke="rgb(0%,0%,0%)" x1="683.339330131" x2="684.348102764" y1="474.219865195" y2="471.898516873" /><line stroke="rgb(0%,0%,0%)" x1="636.062249032" x2="632.254037759" y1="642.931273208" y2="652.859561362" /><line stroke="rgb(0%,0%,0%)" x1="636.062249032" x2="640.220932191" y1="642.931273208" y2="634.014450915" /><line stroke="rgb(0%,0%,0%)" x1="648.12017582" x2="649.484482802" y1="616.813371247" y2="613.900659547" /><line stroke="rgb(0%,0%,0%)" x1="649.484482802" x2="650.753542186" y1="613.900659547" y2="611.237623271" /><line stroke="rgb(0%,0%,0%)" x1="662.105843382" x2="660.214426288" y1="578.564338911" y2="584.399270238" /><line stroke="rgb(0%,0%,0%)" x1="662.422523241" x2="664.388189428" y1="577.426978396" y2="568.788751417" /><line stroke="rgb(0%,0%,0%)" x1="664.388189428" x2="664.990231568" y1="568.788751417" y2="567.725492759" /><line stroke="rgb(0%,0%,0%)" x1="664.990231568" x2="665.445825243" y1="567.725492759" y2="565.613267566" /><line stroke="rgb(0%,0%,0%)" x1="666.784048958" x2="665.445825243" y1="557.309126508" y2="565.613267566" /><line stroke="rgb(0%,0%,0%)" x1="666.784048958" x2="669.047290658" y1="557.309126508" y2="548.246986696" /><line stroke="rgb(0%,0%,0%)" x1="674.41988415" x2="674.626973699" y1="528.635666991" y2="526.56634167" /><line stroke="rgb(0%,0%,0%)" x1="674.626973699" x2="675.409713523" y1="526.56634167" y2="524.234247082" /><line stroke="rgb(0%,0%,0%)" x1="678.543714791" x2="679.786321358" y1="509.500903119" y2="502.164928006" /><line stroke="rgb(0%,0%,0%)" x1="684.348102764" x2="684.362142653" y1="471.898516873" y2="471.238518678" /><line stroke="rgb(0%,0%,0%)" x1="684.362142653" x2="685.284959789" y1="471.238518678" y2="463.473154566" /><line stroke="rgb(0%,0%,0%)" x1="685.284959789" x2="685.289542405" y1="463.473154566" y2="463.08685068" /><line stroke="rgb(0%,0%,0%)" x1="684.316301569" x2="685.289542405" y1="456.438108185" y2="463.08685068" /><line stroke="rgb(0%,0%,0%)" x1="608.56525408" x2="605.723997468" y1="698.741677227" y2="705.040669659" /><line stroke="rgb(0%,0%,0%)" x1="608.56525408" x2="610.775579486" y1="698.741677227" y2="695.080341133" /><line stroke="rgb(0%,0%,0%)" x1="610.775579486" x2="618.178556682" y1="695.080341133" y2="682.751361349" /><line stroke="rgb(0%,0%,0%)" x1="620.142199334" x2="618.178556682" y1="679.313042918" y2="682.751361349" /><line stroke="rgb(0%,0%,0%)" x1="620.142199334" x2="623.931408528" y1="679.313042918" y2="670.410501794" /><line stroke="rgb(0%,0%,0%)" x1="623.931408528" x2="627.284743187" y1="670.410501794" y2="664.945782611" /><line stroke="rgb(0%,0%,0%)" x1="632.254037759" x2="628.326191526" y1="652.859561362" y2="662.724974811" /><line stroke="rgb(0%,0%,0%)" x1="640.220932191" x2="641.367315175" y1="634.014450915" y2="629.759625404" /><line stroke="rgb(0%,0%,0%)" x1="641.367315175" x2="648.12017582" y1="629.759625404" y2="616.813371247" /><line stroke="rgb(0%,0%,0%)" x1="650.753542186" x2="654.143966222" y1="611.237623271" y2="602.219554904" /><line stroke="rgb(0%,0%,0%)" x1="656.188188564" x2="654.143966222" y1="594.462645062" y2="602.219554904" /><line stroke="rgb(0%,0%,0%)" x1="684.316301569" x2="684.409872932" y1="456.438108185" y2="455.568590582" /><line stroke="rgb(0%,0%,0%)" x1="576.601335621" x2="575.708392229" y1="755.558171653" y2="756.275352401" /><line stroke="rgb(0%,0%,0%)" x1="576.601335621" x2="579.208239118" y1="755.558171653" y2="751.773865029" /><line stroke="rgb(0%,0%,0%)" x1="579.208239118" x2="587.271750284" y1="751.773865029" y2="741.184256429" /><line stroke="rgb(0%,0%,0%)" x1="592.30387686" x2="596.112045261" y1="732.199675062" y2="726.115865635" /><line stroke="rgb(0%,0%,0%)" x1="596.112045261" x2="601.906336655" y1="726.115865635" y2="712.717691911" /><line stroke="rgb(0%,0%,0%)" x1="601.906336655" x2="605.723997468" y1="712.717691911" y2="705.040669659" /><line stroke="rgb(0%,0%,0%)" x1="627.284743187" x2="627.515595077" y1="664.945782611" y2="664.300945336" /><line stroke="rgb(0%,0%,0%)" x1="627.515595077" x2="628.326191526" y1="664.300945336" y2="662.724974811" /><line stroke="rgb(0%,0%,0%)" x1="656.188188564" x2="660.214426288" y1="594.462645062" y2="584.399270238" /><line stroke="rgb(0%,0%,0%)" x1="554.017277113" x2="543.659027425" y1="772.052308688" y2="779.392476339" /><line stroke="rgb(0%,0%,0%)" x1="554.017277113" x2="568.764426864" y1="772.052308688" y2="760.164961276" /><line stroke="rgb(0%,0%,0%)" x1="568.764426864" x2="571.960815262" y1="760.164961276" y2="757.7305944" /><line stroke="rgb(0%,0%,0%)" x1="571.960815262" x2="575.708392229" y1="757.7305944" y2="756.275352401" /><line stroke="rgb(0%,0%,0%)" x1="587.271750284" x2="591.184767444" y1="741.184256429" y2="734.949251284" /><line stroke="rgb(0%,0%,0%)" x1="591.184767444" x2="592.30387686" y1="734.949251284" y2="732.199675062" /><line stroke="rgb(0%,0%,0%)" x1="520.450815173" x2="509.799267496" y1="791.89531108" y2="796.717731275" /><line stroke="rgb(0%,0%,0%)" x1="522.926435829" x2="520.450815173" y1="790.594441061" y2="791.89531108" /><line stroke="rgb(0%,0%,0%)" x1="522.926435829" x2="532.470606651" y1="790.594441061" y2="785.664847963" /><line stroke="rgb(0%,0%,0%)" x1="540.963291859" x2="543.659027425" y1="781.131357744" y2="779.392476339" /><line stroke="rgb(0%,0%,0%)" x1="532.470606651" x2="540.112142122" y1="785.664847963" y2="781.556141052" /><line stroke="rgb(0%,0%,0%)" x1="540.112142122" x2="540.963291859" y1="781.556141052" y2="781.131357744" /><line stroke="rgb(0%,0%,0%)" x1="444.55667186" x2="449.923139673" y1="804.205915154" y2="805.382343466" /><line stroke="rgb(0%,0%,0%)" x1="444.55667186" x2="437.945362014" y1="804.205915154" y2="802.888500591" /><line stroke="rgb(0%,0%,0%)" x1="449.923139673" x2="467.263927038" y1="805.382343466" y2="806.454417518" /><line stroke="rgb(0%,0%,0%)" x1="467.263927038" x2="468.901252909" y1="806.454417518" y2="806.354846991" /><line stroke="rgb(0%,0%,0%)" x1="468.901252909" x2="470.305472257" y1="806.354846991" y2="806.441597873" /><line stroke="rgb(0%,0%,0%)" x1="492.907044157" x2="471.542269972" y1="801.756019077" y2="806.207084643" /><line stroke="rgb(0%,0%,0%)" x1="470.305472257" x2="471.542269972" y1="806.441597873" y2="806.207084643" /><line stroke="rgb(0%,0%,0%)" x1="493.38467549" x2="507.474861215" y1="801.607850615" y2="797.666168559" /><line stroke="rgb(0%,0%,0%)" x1="492.907044157" x2="493.38467549" y1="801.756019077" y2="801.607850615" /><line stroke="rgb(0%,0%,0%)" x1="507.474861215" x2="508.007592768" y1="797.666168559" y2="797.46771696" /><line stroke="rgb(0%,0%,0%)" x1="508.007592768" x2="509.799267496" y1="797.46771696" y2="796.717731275" /><line stroke="rgb(0%,0%,0%)" x1="410.183431108" x2="406.609372739" y1="787.397121547" y2="785.910932559" /><line stroke="rgb(0%,0%,0%)" x1="410.183431108" x2="418.433966509" y1="787.397121547" y2="793.796465495" /><line stroke="rgb(0%,0%,0%)" x1="406.609372739" x2="399.143514268" y1="785.910932559" y2="779.69297273" /><line stroke="rgb(0%,0%,0%)" x1="423.709947491" x2="425.861147286" y1="796.9620812" y2="798.789854715" /><line stroke="rgb(0%,0%,0%)" x1="425.861147286" x2="431.776208006" y1="798.789854715" y2="801.046286723" /><line stroke="rgb(0%,0%,0%)" x1="431.776208006" x2="434.746889843" y1="801.046286723" y2="801.67251273" /><line stroke="rgb(0%,0%,0%)" x1="434.746889843" x2="437.945362014" y1="801.67251273" y2="802.888500591" /><line stroke="rgb(0%,0%,0%)" x1="348.79178612" x2="344.684593211" y1="727.408245571" y2="724.122097542" /><line stroke="rgb(0%,0%,0%)" x1="359.702028708" x2="363.033438909" y1="736.163494661" y2="739.686043913" /><line stroke="rgb(0%,0%,0%)" x1="351.793901489" x2="359.702028708" y1="730.219610836" y2="736.163494661" /><line stroke="rgb(0%,0%,0%)" x1="348.79178612" x2="351.793901489" y1="727.408245571" y2="730.219610836" /><line stroke="rgb(0%,0%,0%)" x1="371.906441206" x2="369.109912007" y1="749.821255633" y2="745.387582989" /><line stroke="rgb(0%,0%,0%)" x1="371.906441206" x2="375.881664765" y1="749.821255633" y2="753.005686944" /><line stroke="rgb(0%,0%,0%)" x1="363.033438909" x2="369.109912007" y1="739.686043913" y2="745.387582989" /><line stroke="rgb(0%,0%,0%)" x1="377.27260971" x2="378.799337672" y1="754.303479685" y2="755.859456522" /><line stroke="rgb(0%,0%,0%)" x1="388.17018797" x2="394.008302153" y1="768.438753646" y2="774.651450006" /><line stroke="rgb(0%,0%,0%)" x1="394.008302153" x2="399.143514268" y1="774.651450006" y2="779.69297273" /><line stroke="rgb(0%,0%,0%)" x1="418.433966509" x2="423.709947491" y1="793.796465495" y2="796.9620812" /><line stroke="rgb(0%,0%,0%)" x1="320.563755157" x2="323.246138985" y1="702.927324997" y2="706.665223772" /><line stroke="rgb(0%,0%,0%)" x1="320.563755157" x2="318.277870702" y1="702.927324997" y2="698.976405243" /><line stroke="rgb(0%,0%,0%)" x1="336.035441569" x2="344.684593211" y1="717.96360144" y2="724.122097542" /><line stroke="rgb(0%,0%,0%)" x1="336.035441569" x2="328.867626295" y1="717.96360144" y2="713.512549651" /><line stroke="rgb(0%,0%,0%)" x1="375.881664765" x2="377.27260971" y1="753.005686944" y2="754.303479685" /><line stroke="rgb(0%,0%,0%)" x1="269.087977739" x2="269.273785861" y1="556.894640676" y2="556.774861828" /><line stroke="rgb(0%,0%,0%)" x1="269.087977739" x2="269.003618119" y1="556.894640676" y2="556.982505004" /><line stroke="rgb(0%,0%,0%)" x1="262.560559552" x2="262.826809785" y1="534.395371735" y2="535.261622383" /><line stroke="rgb(0%,0%,0%)" x1="278.374058196" x2="276.916310903" y1="481.061703166" y2="481.39814137" /><line stroke="rgb(0%,0%,0%)" x1="276.916310903" x2="271.762758311" y1="481.39814137" y2="478.900951921" /><line stroke="rgb(0%,0%,0%)" x1="283.331891312" x2="284.155667176" y1="454.241725705" y2="451.760122781" /><line stroke="rgb(0%,0%,0%)" x1="315.175422787" x2="312.111418314" y1="643.288344955" y2="642.756505604" /><line stroke="rgb(0%,0%,0%)" x1="301.047718659" x2="303.125428897" y1="640.323075236" y2="640.974168425" /><line stroke="rgb(0%,0%,0%)" x1="301.047718659" x2="288.012193056" y1="640.323075236" y2="630.849772675" /><line stroke="rgb(0%,0%,0%)" x1="303.125428897" x2="312.111418314" y1="640.974168425" y2="642.756505604" /><line stroke="rgb(0%,0%,0%)" x1="314.686992523" x2="318.277870702" y1="691.104740367" y2="698.976405243" /><line stroke="rgb(0%,0%,0%)" x1="314.686992523" x2="313.452320296" y1="691.104740367" y2="681.275034531" /><line stroke="rgb(0%,0%,0%)" x1="315.407563425" x2="313.265483946" y1="670.965199154" y2="680.333009613" /><line stroke="rgb(0%,0%,0%)" x1="318.561828104" x2="315.407563425" y1="654.079714697" y2="670.965199154" /><line stroke="rgb(0%,0%,0%)" x1="318.480464123" x2="318.225622557" y1="645.925984547" y2="648.287311302" /><line stroke="rgb(0%,0%,0%)" x1="315.508679413" x2="318.480464123" y1="643.481922538" y2="645.925984547" /><line stroke="rgb(0%,0%,0%)" x1="315.508679413" x2="315.175422787" y1="643.481922538" y2="643.288344955" /><line stroke="rgb(0%,0%,0%)" x1="323.246138985" x2="326.506890539" y1="706.665223772" y2="710.796102168" /><line stroke="rgb(0%,0%,0%)" x1="326.506890539" x2="328.867626295" y1="710.796102168" y2="713.512549651" /><line stroke="rgb(0%,0%,0%)" x1="318.225622557" x2="318.561828104" y1="648.287311302" y2="654.079714697" /><line stroke="rgb(0%,0%,0%)" x1="241.671315173" x2="244.293161862" y1="492.017085519" y2="494.535890717" /><line stroke="rgb(0%,0%,0%)" x1="247.667776634" x2="249.533090186" y1="464.941402528" y2="466.012773038" /><line stroke="rgb(0%,0%,0%)" x1="241.903601149" x2="239.568223872" y1="464.441475552" y2="465.042786067" /><line stroke="rgb(0%,0%,0%)" x1="257.431962949" x2="272.437262181" y1="585.274321581" y2="607.484660865" /><line stroke="rgb(0%,0%,0%)" x1="272.437262181" x2="275.939386587" y1="607.484660865" y2="613.365350312" /><line stroke="rgb(0%,0%,0%)" x1="267.908435384" x2="267.144305321" y1="557.339062912" y2="558.098961278" /><line stroke="rgb(0%,0%,0%)" x1="269.273785861" x2="269.547111708" y1="556.774861828" y2="555.124037339" /><line stroke="rgb(0%,0%,0%)" x1="264.978173962" x2="264.948612422" y1="539.69489532" y2="540.116860567" /><line stroke="rgb(0%,0%,0%)" x1="264.978173962" x2="264.939283238" y1="539.69489532" y2="539.347875067" /><line stroke="rgb(0%,0%,0%)" x1="262.826809785" x2="264.939283238" y1="535.261622383" y2="539.347875067" /><line stroke="rgb(0%,0%,0%)" x1="262.560559552" x2="260.451546942" y1="534.395371735" y2="529.361626722" /><line stroke="rgb(0%,0%,0%)" x1="258.438256196" x2="259.203271406" y1="523.386197274" y2="525.793267154" /><line stroke="rgb(0%,0%,0%)" x1="254.681846618" x2="254.697507441" y1="514.63710714" y2="513.099858728" /><line stroke="rgb(0%,0%,0%)" x1="254.681846618" x2="255.473266424" y1="514.63710714" y2="515.715865215" /><line stroke="rgb(0%,0%,0%)" x1="264.852368229" x2="261.968155896" y1="474.497188135" y2="472.90356222" /><line stroke="rgb(0%,0%,0%)" x1="258.397401422" x2="261.968155896" y1="470.937645825" y2="472.90356222" /><line stroke="rgb(0%,0%,0%)" x1="258.397401422" x2="253.206485992" y1="470.937645825" y2="468.892878934" /><line stroke="rgb(0%,0%,0%)" x1="269.003618119" x2="267.908435384" y1="556.982505004" y2="557.339062912" /><line stroke="rgb(0%,0%,0%)" x1="264.948612422" x2="268.560941852" y1="540.116860567" y2="550.771804292" /><line stroke="rgb(0%,0%,0%)" x1="284.04393747" x2="278.374058196" y1="482.886083249" y2="481.061703166" /><line stroke="rgb(0%,0%,0%)" x1="282.385799909" x2="282.543863181" y1="459.04877645" y2="463.274609951" /><line stroke="rgb(0%,0%,0%)" x1="282.543863181" x2="282.749134275" y1="463.274609951" y2="465.964295968" /><line stroke="rgb(0%,0%,0%)" x1="286.908927279" x2="286.976229504" y1="479.361087211" y2="480.405006424" /><line stroke="rgb(0%,0%,0%)" x1="286.227946765" x2="286.976229504" y1="482.631600636" y2="480.405006424" /><line stroke="rgb(0%,0%,0%)" x1="286.227946765" x2="284.04393747" y1="482.631600636" y2="482.886083249" /><line stroke="rgb(0%,0%,0%)" x1="284.84538067" x2="286.908927279" y1="475.758168104" y2="479.361087211" /><line stroke="rgb(0%,0%,0%)" x1="284.21982849" x2="284.84538067" y1="472.06517433" y2="475.758168104" /><line stroke="rgb(0%,0%,0%)" x1="284.21982849" x2="284.119508965" y1="472.06517433" y2="468.709724577" /><line stroke="rgb(0%,0%,0%)" x1="282.749134275" x2="284.119508965" y1="465.964295968" y2="468.709724577" /><line stroke="rgb(0%,0%,0%)" x1="283.331891312" x2="282.385799909" y1="454.241725705" y2="459.04877645" /><line stroke="rgb(0%,0%,0%)" x1="313.265483946" x2="313.452320296" y1="680.333009613" y2="681.275034531" /><line stroke="rgb(0%,0%,0%)" x1="238.573630394" x2="236.899063706" y1="484.927122579" y2="479.650250573" /><line stroke="rgb(0%,0%,0%)" x1="238.573630394" x2="238.858767643" y1="484.927122579" y2="486.35335862" /><line stroke="rgb(0%,0%,0%)" x1="236.610748593" x2="235.441042744" y1="478.025811456" y2="469.811081207" /><line stroke="rgb(0%,0%,0%)" x1="237.793338652" x2="235.441042744" y1="466.292385029" y2="469.811081207" /><line stroke="rgb(0%,0%,0%)" x1="239.568223872" x2="237.793338652" y1="465.042786067" y2="466.292385029" /><line stroke="rgb(0%,0%,0%)" x1="252.814685133" x2="254.697507441" y1="512.595487349" y2="513.099858728" /><line stroke="rgb(0%,0%,0%)" x1="252.486314336" x2="253.043248222" y1="509.497528991" y2="510.129267039" /><line stroke="rgb(0%,0%,0%)" x1="252.814685133" x2="253.043248222" y1="512.595487349" y2="510.129267039" /><line stroke="rgb(0%,0%,0%)" x1="249.933731898" x2="252.486314336" y1="505.883104075" y2="509.497528991" /><line stroke="rgb(0%,0%,0%)" x1="247.58532398" x2="249.933731898" y1="501.536236492" y2="505.883104075" /><line stroke="rgb(0%,0%,0%)" x1="245.732616431" x2="247.58532398" y1="499.237655593" y2="501.536236492" /><line stroke="rgb(0%,0%,0%)" x1="244.885792592" x2="245.732616431" y1="496.776402658" y2="499.237655593" /><line stroke="rgb(0%,0%,0%)" x1="244.293161862" x2="244.885792592" y1="494.535890717" y2="496.776402658" /><line stroke="rgb(0%,0%,0%)" x1="240.830587263" x2="238.858767643" y1="490.328739815" y2="486.35335862" /><line stroke="rgb(0%,0%,0%)" x1="240.830587263" x2="241.671315173" y1="490.328739815" y2="492.017085519" /><line stroke="rgb(0%,0%,0%)" x1="253.206485992" x2="251.311728517" y1="468.892878934" y2="468.024089227" /><line stroke="rgb(0%,0%,0%)" x1="251.311728517" x2="250.773498151" y1="468.024089227" y2="467.767953164" /><line stroke="rgb(0%,0%,0%)" x1="249.533090186" x2="250.773498151" y1="466.012773038" y2="467.767953164" /><line stroke="rgb(0%,0%,0%)" x1="247.667776634" x2="245.765605303" y1="464.941402528" y2="464.910691461" /><line stroke="rgb(0%,0%,0%)" x1="245.765605303" x2="243.817509401" y1="464.910691461" y2="464.074695094" /><line stroke="rgb(0%,0%,0%)" x1="241.903601149" x2="242.533372429" y1="464.441475552" y2="464.385004164" /><line stroke="rgb(0%,0%,0%)" x1="243.817509401" x2="242.533372429" y1="464.074695094" y2="464.385004164" /><line stroke="rgb(0%,0%,0%)" x1="255.314720827" x2="253.816253978" y1="564.118247893" y2="566.353527219" /><line stroke="rgb(0%,0%,0%)" x1="258.158937544" x2="255.314720827" y1="562.566151324" y2="564.118247893" /><line stroke="rgb(0%,0%,0%)" x1="258.158937544" x2="266.599182293" y1="562.566151324" y2="558.190185956" /><line stroke="rgb(0%,0%,0%)" x1="259.78201437" x2="260.451546942" y1="528.311179999" y2="529.361626722" /><line stroke="rgb(0%,0%,0%)" x1="259.511345895" x2="259.78201437" y1="527.59100062" y2="528.311179999" /><line stroke="rgb(0%,0%,0%)" x1="259.203271406" x2="259.511345895" y1="525.793267154" y2="527.59100062" /><line stroke="rgb(0%,0%,0%)" x1="257.024478116" x2="258.438256196" y1="520.097101657" y2="523.386197274" /><line stroke="rgb(0%,0%,0%)" x1="256.372151159" x2="255.947100527" y1="518.8562305" y2="516.452022552" /><line stroke="rgb(0%,0%,0%)" x1="256.372151159" x2="257.024478116" y1="518.8562305" y2="520.097101657" /><line stroke="rgb(0%,0%,0%)" x1="255.473266424" x2="255.049462963" y1="515.715865215" y2="516.54578417" /><line stroke="rgb(0%,0%,0%)" x1="255.049462963" x2="255.947100527" y1="516.54578417" y2="516.452022552" /><line stroke="rgb(0%,0%,0%)" x1="271.762758311" x2="264.852368229" y1="478.900951921" y2="474.497188135" /><line stroke="rgb(0%,0%,0%)" x1="267.144305321" x2="266.599182293" y1="558.098961278" y2="558.190185956" /><line stroke="rgb(0%,0%,0%)" x1="269.731540817" x2="269.547111708" y1="553.939876736" y2="555.124037339" /><line stroke="rgb(0%,0%,0%)" x1="269.599100559" x2="269.731540817" y1="553.44196258" y2="553.939876736" /><line stroke="rgb(0%,0%,0%)" x1="268.560941852" x2="269.599100559" y1="550.771804292" y2="553.44196258" /><line stroke="rgb(0%,0%,0%)" x1="277.539374482" x2="287.027423235" y1="615.083023865" y2="629.713985219" /><line stroke="rgb(0%,0%,0%)" x1="275.939386587" x2="277.539374482" y1="613.365350312" y2="615.083023865" /><line stroke="rgb(0%,0%,0%)" x1="287.373813944" x2="288.012193056" y1="630.194218315" y2="630.849772675" /><line stroke="rgb(0%,0%,0%)" x1="287.027423235" x2="287.373813944" y1="629.713985219" y2="630.194218315" /><line stroke="rgb(0%,0%,0%)" x1="236.787722468" x2="236.899063706" y1="479.552940173" y2="479.650250573" /><line stroke="rgb(0%,0%,0%)" x1="236.610748593" x2="236.562623843" y1="478.025811456" y2="479.157105467" /><line stroke="rgb(0%,0%,0%)" x1="236.562623843" x2="236.787722468" y1="479.157105467" y2="479.552940173" /><line stroke="rgb(0%,0%,0%)" x1="286.999113597" x2="284.155667176" y1="443.768746378" y2="451.760122781" /><line stroke="rgb(0%,0%,0%)" x1="560.874738765" x2="561.7829546" y1="148.212201693" y2="148.612176555" /><line stroke="rgb(0%,0%,0%)" x1="560.840022714" x2="560.874738765" y1="148.196922938" y2="148.212201693" /><line stroke="rgb(0%,0%,0%)" x1="560.552183132" x2="560.840022714" y1="148.006189987" y2="148.196922938" /><line stroke="rgb(0%,0%,0%)" x1="560.552183132" x2="559.383904499" y1="148.006189987" y2="147.412321907" /><line stroke="rgb(0%,0%,0%)" x1="494.145028088" x2="494.657419665" y1="122.090920091" y2="122.285556768" /><line stroke="rgb(0%,0%,0%)" x1="493.898105253" x2="494.145028088" y1="121.99709516" y2="122.090920091" /><line stroke="rgb(0%,0%,0%)" x1="483.635744636" x2="478.392599661" y1="119.169852224" y2="116.692600232" /><line stroke="rgb(0%,0%,0%)" x1="493.842564261" x2="483.635744636" y1="121.981822143" y2="119.169852224" /><line stroke="rgb(0%,0%,0%)" x1="493.842564261" x2="493.898105253" y1="121.981822143" y2="121.99709516" /><line stroke="rgb(0%,0%,0%)" x1="324.562087231" x2="326.167867878" y1="171.317897702" y2="170.627667256" /><line stroke="rgb(0%,0%,0%)" x1="289.309424061" x2="282.014741711" y1="275.867079988" y2="281.367035962" /><line stroke="rgb(0%,0%,0%)" x1="289.309424061" x2="289.448014369" y1="275.867079988" y2="275.762417468" /><line stroke="rgb(0%,0%,0%)" x1="289.448014369" x2="294.220949073" y1="275.762417468" y2="273.472453506" /><line stroke="rgb(0%,0%,0%)" x1="307.863536251" x2="308.151699949" y1="261.194712572" y2="262.514512313" /><line stroke="rgb(0%,0%,0%)" x1="307.276985046" x2="307.688577323" y1="258.913210039" y2="257.473141266" /><line stroke="rgb(0%,0%,0%)" x1="307.276985046" x2="307.833059672" y1="258.913210039" y2="261.076814726" /><line stroke="rgb(0%,0%,0%)" x1="307.833059672" x2="307.863536251" y1="261.076814726" y2="261.194712572" /><line stroke="rgb(0%,0%,0%)" x1="246.289751126" x2="240.065619089" y1="324.633412759" y2="335.472741008" /><line stroke="rgb(0%,0%,0%)" x1="252.40516433" x2="256.757685496" y1="316.120564824" y2="311.87163454" /><line stroke="rgb(0%,0%,0%)" x1="252.14571018" x2="252.40516433" y1="316.373785892" y2="316.120564824" /><line stroke="rgb(0%,0%,0%)" x1="252.056200188" x2="246.289751126" y1="316.500034037" y2="324.633412759" /><line stroke="rgb(0%,0%,0%)" x1="252.056200188" x2="252.14571018" y1="316.500034037" y2="316.373785892" /><line stroke="rgb(0%,0%,0%)" x1="274.04547564" x2="278.152512996" y1="292.390105646" y2="285.664146151" /><line stroke="rgb(0%,0%,0%)" x1="274.04547564" x2="269.56912669" y1="292.390105646" y2="298.513462994" /><line stroke="rgb(0%,0%,0%)" x1="672.99027299" x2="672.77592173" y1="534.513833479" y2="536.210017916" /><line stroke="rgb(0%,0%,0%)" x1="672.99027299" x2="674.41988415" y1="534.513833479" y2="528.635666991" /><line stroke="rgb(0%,0%,0%)" x1="383.545643736" x2="384.532235052" y1="762.579885187" y2="763.829580196" /><line stroke="rgb(0%,0%,0%)" x1="384.532235052" x2="388.17018797" y1="763.829580196" y2="768.438753646" /><line stroke="rgb(0%,0%,0%)" x1="383.545643736" x2="378.799337672" y1="762.579885187" y2="755.859456522" /><line stroke="rgb(0%,0%,0%)" x1="253.114100986" x2="252.74774249" y1="570.247119447" y2="568.736891063" /><line stroke="rgb(0%,0%,0%)" x1="253.114100986" x2="253.330775181" y1="570.247119447" y2="571.140311747" /><line stroke="rgb(0%,0%,0%)" x1="253.368351591" x2="256.293746882" y1="571.284713633" y2="582.51723346" /><line stroke="rgb(0%,0%,0%)" x1="253.330775181" x2="253.368351591" y1="571.140311747" y2="571.284713633" /><line stroke="rgb(0%,0%,0%)" x1="256.293746882" x2="257.431962949" y1="582.51723346" y2="585.274321581" /><line stroke="rgb(0%,0%,0%)" x1="679.91482478" x2="679.786321358" y1="500.610592276" y2="502.164928006" /><line stroke="rgb(0%,0%,0%)" x1="679.91482478" x2="679.976407701" y1="500.610592276" y2="500.126196781" /><line stroke="rgb(0%,0%,0%)" x1="679.976407701" x2="680.076590318" y1="500.126196781" y2="499.907868405" /><line stroke="rgb(0%,0%,0%)" x1="682.091418497" x2="682.365562512" y1="433.792047266" y2="435.298513213" /><line stroke="rgb(0%,0%,0%)" x1="682.091418497" x2="682.242608371" y1="433.792047266" y2="431.965616846" /><line stroke="rgb(0%,0%,0%)" x1="362.664725502" x2="362.067938982" y1="124.535930476" y2="125.278143042" /><line stroke="rgb(0%,0%,0%)" x1="362.664725502" x2="365.742945823" y1="124.535930476" y2="120.82954711" /><line stroke="rgb(0%,0%,0%)" x1="319.735146617" x2="322.864519482" y1="175.080835967" y2="172.473082159" /><line stroke="rgb(0%,0%,0%)" x1="322.864519482" x2="324.562087231" y1="172.473082159" y2="171.317897702" /><line stroke="rgb(0%,0%,0%)" x1="319.735146617" x2="315.536230938" y1="175.080835967" y2="178.957228932" /><line stroke="rgb(0%,0%,0%)" x1="252.676860007" x2="252.74774249" y1="568.064781201" y2="568.736891063" /><line stroke="rgb(0%,0%,0%)" x1="252.676860007" x2="252.758487493" y1="568.064781201" y2="567.712735914" /><line stroke="rgb(0%,0%,0%)" x1="252.758487493" x2="253.816253978" y1="567.712735914" y2="566.353527219" /></svg>