<?xml version="1.0" encoding="utf-8" ?>
<svg baseProfile="full" height="100%" version="1.1" viewBox="0.5 0.5 685.793960571 941.299331665" width="100%" xmlns="http://www.w3.org/2000/svg" xmlns:ev="http://www.w3.org/2001/xml-events" xmlns:xlink="http://www.w3.org/1999/xlink"><defs /><line stroke="rgb(0%,0%,0%)" x1="557.065060749" x2="557.632237265" y1="435.004726313" y2="437.247377914" /><line stroke="rgb(0%,0%,0%)" x1="557.065060749" x2="556.717626833" y1="435.004726313" y2="431.187677583" /><line stroke="rgb(0%,0%,0%)" x1="556.717626833" x2="557.696597036" y1="431.187677583" y2="429.600930871" /><line stroke="rgb(0%,0%,0%)" x1="556.511329656" x2="555.950767418" y1="423.092602981" y2="420.951823309" /><line stroke="rgb(0%,0%,0%)" x1="535.1963661" x2="533.387108089" y1="371.820404461" y2="368.956535233" /><line stroke="rgb(0%,0%,0%)" x1="539.501738707" x2="539.41111899" y1="443.990227486" y2="444.148347922" /><line stroke="rgb(0%,0%,0%)" x1="539.501738707" x2="549.640076599" y1="443.990227486" y2="445.362585718" /><line stroke="rgb(0%,0%,0%)" x1="547.84462631" x2="543.189854081" y1="396.211214913" y2="389.489089536" /><line stroke="rgb(0%,0%,0%)" x1="537.764141347" x2="540.765349423" y1="378.343676314" y2="384.746133788" /><line stroke="rgb(0%,0%,0%)" x1="543.189854081" x2="540.765349423" y1="389.489089536" y2="384.746133788" /><line stroke="rgb(0%,0%,0%)" x1="537.764141347" x2="536.34805122" y1="378.343676314" y2="376.642149783" /><line stroke="rgb(0%,0%,0%)" x1="554.802199482" x2="549.640076599" y1="444.172553996" y2="445.362585718" /><line stroke="rgb(0%,0%,0%)" x1="555.44066009" x2="554.802199482" y1="440.575915076" y2="444.172553996" /><line stroke="rgb(0%,0%,0%)" x1="555.44066009" x2="557.632237265" y1="440.575915076" y2="437.247377914" /><line stroke="rgb(0%,0%,0%)" x1="557.696597036" x2="556.511329656" y1="429.600930871" y2="423.092602981" /><line stroke="rgb(0%,0%,0%)" x1="555.950767418" x2="554.875561996" y1="420.951823309" y2="416.912765888" /><line stroke="rgb(0%,0%,0%)" x1="553.16883287" x2="553.66949156" y1="409.322413187" y2="412.903519633" /><line stroke="rgb(0%,0%,0%)" x1="554.875561996" x2="553.66949156" y1="416.912765888" y2="412.903519633" /><line stroke="rgb(0%,0%,0%)" x1="553.16883287" x2="551.984619039" y1="409.322413187" y2="406.414460069" /><line stroke="rgb(0%,0%,0%)" x1="551.416192047" x2="551.984619039" y1="404.463405163" y2="406.414460069" /><line stroke="rgb(0%,0%,0%)" x1="551.416192047" x2="550.460355189" y1="404.463405163" y2="402.460635559" /><line stroke="rgb(0%,0%,0%)" x1="550.460355189" x2="549.230855138" y1="402.460635559" y2="398.494480352" /><line stroke="rgb(0%,0%,0%)" x1="549.230855138" x2="547.84462631" y1="398.494480352" y2="396.211214913" /><line stroke="rgb(0%,0%,0%)" x1="496.830785212" x2="496.491388373" y1="345.155464609" y2="344.781786802" /><line stroke="rgb(0%,0%,0%)" x1="496.830785212" x2="497.649341836" y1="345.155464609" y2="347.015798148" /><line stroke="rgb(0%,0%,0%)" x1="517.296859968" x2="515.602818014" y1="416.963775839" y2="413.144141566" /><line stroke="rgb(0%,0%,0%)" x1="511.339246404" x2="510.87424876" y1="372.797044373" y2="371.750066322" /><line stroke="rgb(0%,0%,0%)" x1="511.339246404" x2="513.606175286" y1="372.797044373" y2="376.892147256" /><line stroke="rgb(0%,0%,0%)" x1="506.74998195" x2="510.87424876" y1="366.369640429" y2="371.750066322" /><line stroke="rgb(0%,0%,0%)" x1="505.16517287" x2="506.74998195" y1="362.67459206" y2="366.369640429" /><line stroke="rgb(0%,0%,0%)" x1="503.908993472" x2="505.16517287" y1="359.203176411" y2="362.67459206" /><line stroke="rgb(0%,0%,0%)" x1="502.392401216" x2="516.641306512" y1="334.328260403" y2="345.152805175" /><line stroke="rgb(0%,0%,0%)" x1="525.258213286" x2="525.339753048" y1="448.404015653" y2="449.603438746" /><line stroke="rgb(0%,0%,0%)" x1="525.258213286" x2="523.778476048" y1="448.404015653" y2="443.203601385" /><line stroke="rgb(0%,0%,0%)" x1="520.060297593" x2="521.480938689" y1="419.983158814" y2="432.18912233" /><line stroke="rgb(0%,0%,0%)" x1="517.475031529" x2="520.060297593" y1="417.397210143" y2="419.983158814" /><line stroke="rgb(0%,0%,0%)" x1="517.296859968" x2="517.475031529" y1="416.963775839" y2="417.397210143" /><line stroke="rgb(0%,0%,0%)" x1="518.283082686" x2="514.096900901" y1="409.562303445" y2="408.917588684" /><line stroke="rgb(0%,0%,0%)" x1="514.096900901" x2="515.602818014" y1="408.917588684" y2="413.144141566" /><line stroke="rgb(0%,0%,0%)" x1="518.511897927" x2="518.516959037" y1="409.678605397" y2="409.686692246" /><line stroke="rgb(0%,0%,0%)" x1="518.511897927" x2="518.449541094" y1="409.678605397" y2="409.600962062" /><line stroke="rgb(0%,0%,0%)" x1="518.449541094" x2="518.283082686" y1="409.600962062" y2="409.562303445" /><line stroke="rgb(0%,0%,0%)" x1="524.293548935" x2="524.940065861" y1="391.644038514" y2="392.981216157" /><line stroke="rgb(0%,0%,0%)" x1="519.227892951" x2="521.156295063" y1="385.706475948" y2="388.397092774" /><line stroke="rgb(0%,0%,0%)" x1="521.156295063" x2="524.293548935" y1="388.397092774" y2="391.644038514" /><line stroke="rgb(0%,0%,0%)" x1="519.227892951" x2="518.430681128" y1="385.706475948" y2="384.147964189" /><line stroke="rgb(0%,0%,0%)" x1="513.606175286" x2="518.430681128" y1="376.892147256" y2="384.147964189" /><line stroke="rgb(0%,0%,0%)" x1="518.970188483" x2="518.021818911" y1="346.573604878" y2="345.915425059" /><line stroke="rgb(0%,0%,0%)" x1="518.021818911" x2="516.641306512" y1="345.915425059" y2="345.152805175" /><line stroke="rgb(0%,0%,0%)" x1="525.886425485" x2="527.414505317" y1="454.34076475" y2="458.795499851" /><line stroke="rgb(0%,0%,0%)" x1="525.941545547" x2="525.886425485" y1="452.89818889" y2="454.34076475" /><line stroke="rgb(0%,0%,0%)" x1="525.339753048" x2="525.941545547" y1="449.603438746" y2="452.89818889" /><line stroke="rgb(0%,0%,0%)" x1="521.480938689" x2="523.778476048" y1="432.18912233" y2="443.203601385" /><line stroke="rgb(0%,0%,0%)" x1="536.450950683" x2="535.257206241" y1="439.506564627" y2="436.985403562" /><line stroke="rgb(0%,0%,0%)" x1="535.257206241" x2="528.655218967" y1="436.985403562" y2="424.328759741" /><line stroke="rgb(0%,0%,0%)" x1="536.450950683" x2="537.337544642" y1="439.506564627" y2="440.018855909" /><line stroke="rgb(0%,0%,0%)" x1="537.112258715" x2="535.975347974" y1="422.867248321" y2="424.909237312" /><line stroke="rgb(0%,0%,0%)" x1="528.655218967" x2="527.324527074" y1="424.328759741" y2="423.068174442" /><line stroke="rgb(0%,0%,0%)" x1="527.324527074" x2="518.779046436" y1="423.068174442" y2="410.045964451" /><line stroke="rgb(0%,0%,0%)" x1="537.112975835" x2="537.112258715" y1="422.812290052" y2="422.867248321" /><line stroke="rgb(0%,0%,0%)" x1="518.516959037" x2="518.779046436" y1="409.686692246" y2="410.045964451" /><line stroke="rgb(0%,0%,0%)" x1="537.114233131" x2="537.112975835" y1="422.80327308" y2="422.812290052" /><line stroke="rgb(0%,0%,0%)" x1="534.22407873" x2="537.114233131" y1="410.133581961" y2="422.80327308" /><line stroke="rgb(0%,0%,0%)" x1="531.295445765" x2="534.22407873" y1="402.478967271" y2="410.133581961" /><line stroke="rgb(0%,0%,0%)" x1="531.295445765" x2="530.342999128" y1="402.478967271" y2="400.391746349" /><line stroke="rgb(0%,0%,0%)" x1="524.940065861" x2="530.342999128" y1="392.981216157" y2="400.391746349" /><line stroke="rgb(0%,0%,0%)" x1="536.34805122" x2="535.1963661" y1="376.642149783" y2="371.820404461" /><line stroke="rgb(0%,0%,0%)" x1="529.612637342" x2="533.387108089" y1="362.346825179" y2="368.956535233" /><line stroke="rgb(0%,0%,0%)" x1="529.612637342" x2="527.636358317" y1="362.346825179" y2="359.65370634" /><line stroke="rgb(0%,0%,0%)" x1="527.636358317" x2="518.970188483" y1="359.65370634" y2="346.573604878" /><line stroke="rgb(0%,0%,0%)" x1="538.287440311" x2="538.943156675" y1="458.794508933" y2="454.394005203" /><line stroke="rgb(0%,0%,0%)" x1="538.943156675" x2="539.41111899" y1="454.394005203" y2="444.148347922" /><line stroke="rgb(0%,0%,0%)" x1="539.353397603" x2="537.337544642" y1="443.738128431" y2="440.018855909" /><line stroke="rgb(0%,0%,0%)" x1="539.038685684" x2="539.353397603" y1="440.186683231" y2="443.738128431" /><line stroke="rgb(0%,0%,0%)" x1="538.597692184" x2="539.038685684" y1="439.929083329" y2="440.186683231" /><line stroke="rgb(0%,0%,0%)" x1="535.975347974" x2="538.5306699" y1="424.909237312" y2="439.879887185" /><line stroke="rgb(0%,0%,0%)" x1="538.5306699" x2="538.597692184" y1="439.879887185" y2="439.929083329" /><line stroke="rgb(0%,0%,0%)" x1="456.169692677" x2="456.267695566" y1="356.837893266" y2="356.932405879" /><line stroke="rgb(0%,0%,0%)" x1="456.130754772" x2="456.169692677" y1="356.800390159" y2="356.837893266" /><line stroke="rgb(0%,0%,0%)" x1="492.998479328" x2="491.786081627" y1="330.547360907" y2="331.984754511" /><line stroke="rgb(0%,0%,0%)" x1="492.998479328" x2="488.763650974" y1="330.547360907" y2="325.03472672" /><line stroke="rgb(0%,0%,0%)" x1="497.649341836" x2="501.966028022" y1="347.015798148" y2="354.572434419" /><line stroke="rgb(0%,0%,0%)" x1="496.491388373" x2="491.694398852" y1="344.781786802" y2="334.674838569" /><line stroke="rgb(0%,0%,0%)" x1="491.786081627" x2="491.694398852" y1="331.984754511" y2="334.674838569" /><line stroke="rgb(0%,0%,0%)" x1="502.392401216" x2="496.389194389" y1="334.328260403" y2="330.657501327" /><line stroke="rgb(0%,0%,0%)" x1="496.389194389" x2="488.763650974" y1="330.657501327" y2="325.03472672" /><line stroke="rgb(0%,0%,0%)" x1="504.620175669" x2="504.735790161" y1="458.307288687" y2="456.171431213" /><line stroke="rgb(0%,0%,0%)" x1="504.735790161" x2="505.647836691" y1="456.171431213" y2="451.580918184" /><line stroke="rgb(0%,0%,0%)" x1="505.647836691" x2="506.997573018" y1="451.580918184" y2="445.847630568" /><line stroke="rgb(0%,0%,0%)" x1="501.966028022" x2="503.908993472" y1="354.572434419" y2="359.203176411" /><line stroke="rgb(0%,0%,0%)" x1="448.794976499" x2="445.539029451" y1="349.367241378" y2="347.276713464" /><line stroke="rgb(0%,0%,0%)" x1="445.539029451" x2="432.416094492" y1="347.276713464" y2="340.205546718" /><line stroke="rgb(0%,0%,0%)" x1="461.090782174" x2="456.267695566" y1="362.362512998" y2="356.932405879" /><line stroke="rgb(0%,0%,0%)" x1="465.464814716" x2="461.090782174" y1="367.421549602" y2="362.362512998" /><line stroke="rgb(0%,0%,0%)" x1="456.130754772" x2="456.032270146" y1="356.800390159" y2="356.694512315" /><line stroke="rgb(0%,0%,0%)" x1="456.032270146" x2="448.794976499" y1="356.694512315" y2="349.367241378" /><line stroke="rgb(0%,0%,0%)" x1="470.351972865" x2="469.251832277" y1="374.950102821" y2="373.85289179" /><line stroke="rgb(0%,0%,0%)" x1="465.108534033" x2="469.251832277" y1="368.263223222" y2="373.85289179" /><line stroke="rgb(0%,0%,0%)" x1="465.108534033" x2="465.464814716" y1="368.263223222" y2="367.421549602" /><line stroke="rgb(0%,0%,0%)" x1="383.01482776" x2="382.228576306" y1="305.941869514" y2="305.46628542" /><line stroke="rgb(0%,0%,0%)" x1="404.063736423" x2="401.284389616" y1="314.786787894" y2="313.078541456" /><line stroke="rgb(0%,0%,0%)" x1="401.284389616" x2="396.232126794" y1="313.078541456" y2="309.980368308" /><line stroke="rgb(0%,0%,0%)" x1="415.906553034" x2="419.088777991" y1="325.676125436" y2="328.838739371" /><line stroke="rgb(0%,0%,0%)" x1="425.746653328" x2="419.088777991" y1="335.713305671" y2="328.838739371" /><line stroke="rgb(0%,0%,0%)" x1="415.906553034" x2="414.432643466" y1="325.676125436" y2="324.284074836" /><line stroke="rgb(0%,0%,0%)" x1="414.432643466" x2="404.063736423" y1="324.284074836" y2="314.786787894" /><line stroke="rgb(0%,0%,0%)" x1="429.871745454" x2="425.746653328" y1="338.557883072" y2="335.713305671" /><line stroke="rgb(0%,0%,0%)" x1="432.416094492" x2="429.871745454" y1="340.205546718" y2="338.557883072" /><line stroke="rgb(0%,0%,0%)" x1="369.119151242" x2="368.70577776" y1="303.492485544" y2="303.423908464" /><line stroke="rgb(0%,0%,0%)" x1="373.955446964" x2="369.119151242" y1="303.922745622" y2="303.492485544" /><line stroke="rgb(0%,0%,0%)" x1="382.228576306" x2="373.955446964" y1="305.46628542" y2="303.922745622" /><line stroke="rgb(0%,0%,0%)" x1="383.01482776" x2="384.338529256" y1="305.941869514" y2="306.1822737" /><line stroke="rgb(0%,0%,0%)" x1="392.371290866" x2="384.338529256" y1="307.938097673" y2="306.1822737" /><line stroke="rgb(0%,0%,0%)" x1="396.232126794" x2="392.371290866" y1="309.980368308" y2="307.938097673" /><line stroke="rgb(0%,0%,0%)" x1="340.611187806" x2="354.716195348" y1="298.241551351" y2="299.841305291" /><line stroke="rgb(0%,0%,0%)" x1="340.611187806" x2="328.544537972" y1="298.241551351" y2="295.467830203" /><line stroke="rgb(0%,0%,0%)" x1="368.70577776" x2="362.605571412" y1="303.423908464" y2="301.80367237" /><line stroke="rgb(0%,0%,0%)" x1="362.605571412" x2="359.5116861" y1="301.80367237" y2="300.799666942" /><line stroke="rgb(0%,0%,0%)" x1="359.5116861" x2="357.114093916" y1="300.799666942" y2="300.14577287" /><line stroke="rgb(0%,0%,0%)" x1="356.216355979" x2="354.876524344" y1="300.061963216" y2="299.847765705" /><line stroke="rgb(0%,0%,0%)" x1="357.114093916" x2="356.619259576" y1="300.14577287" y2="300.157007908" /><line stroke="rgb(0%,0%,0%)" x1="356.619259576" x2="356.216355979" y1="300.157007908" y2="300.061963216" /><line stroke="rgb(0%,0%,0%)" x1="297.399035074" x2="288.334450891" y1="293.54636394" y2="295.296979471" /><line stroke="rgb(0%,0%,0%)" x1="297.399035074" x2="298.722408326" y1="293.54636394" y2="293.515128995" /><line stroke="rgb(0%,0%,0%)" x1="308.380955789" x2="314.921060198" y1="294.018738661" y2="294.552452743" /><line stroke="rgb(0%,0%,0%)" x1="354.876524344" x2="354.716195348" y1="299.847765705" y2="299.841305291" /><line stroke="rgb(0%,0%,0%)" x1="288.334450891" x2="279.577769076" y1="295.296979471" y2="297.052179333" /><line stroke="rgb(0%,0%,0%)" x1="304.914690792" x2="298.722408326" y1="294.516483753" y2="293.515128995" /><line stroke="rgb(0%,0%,0%)" x1="308.380955789" x2="304.914690792" y1="294.018738661" y2="294.516483753" /><line stroke="rgb(0%,0%,0%)" x1="317.866473237" x2="314.921060198" y1="294.557278183" y2="294.552452743" /><line stroke="rgb(0%,0%,0%)" x1="328.544537972" x2="328.36796224" y1="295.467830203" y2="295.454385197" /><line stroke="rgb(0%,0%,0%)" x1="317.866473237" x2="328.36796224" y1="294.557278183" y2="295.454385197" /><line stroke="rgb(0%,0%,0%)" x1="251.252927261" x2="249.968254221" y1="292.882188594" y2="292.652312778" /><line stroke="rgb(0%,0%,0%)" x1="254.852212257" x2="251.252927261" y1="292.993520566" y2="292.882188594" /><line stroke="rgb(0%,0%,0%)" x1="249.968254221" x2="241.694620922" y1="292.652312778" y2="291.884016025" /><line stroke="rgb(0%,0%,0%)" x1="263.248566496" x2="254.852212257" y1="293.931156453" y2="292.993520566" /><line stroke="rgb(0%,0%,0%)" x1="266.919726384" x2="278.944327397" y1="294.014243836" y2="296.952115688" /><line stroke="rgb(0%,0%,0%)" x1="266.919726384" x2="263.248566496" y1="294.014243836" y2="293.931156453" /><line stroke="rgb(0%,0%,0%)" x1="279.577769076" x2="279.349146677" y1="297.052179333" y2="296.99276715" /><line stroke="rgb(0%,0%,0%)" x1="279.349146677" x2="278.944327397" y1="296.99276715" y2="296.952115688" /><line stroke="rgb(0%,0%,0%)" x1="199.933468274" x2="196.077561437" y1="294.095963646" y2="294.881182312" /><line stroke="rgb(0%,0%,0%)" x1="199.933468274" x2="209.281206441" y1="294.095963646" y2="292.338920178" /><line stroke="rgb(0%,0%,0%)" x1="215.154695142" x2="222.05097593" y1="291.538121302" y2="290.984512112" /><line stroke="rgb(0%,0%,0%)" x1="241.694620922" x2="235.01239935" y1="291.884016025" y2="290.960933515" /><line stroke="rgb(0%,0%,0%)" x1="235.01239935" x2="229.451449522" y1="290.960933515" y2="291.054750267" /><line stroke="rgb(0%,0%,0%)" x1="229.451449522" x2="225.42529566" y1="291.054750267" y2="290.794032436" /><line stroke="rgb(0%,0%,0%)" x1="167.000605819" x2="166.077450478" y1="305.182189922" y2="305.044334483" /><line stroke="rgb(0%,0%,0%)" x1="178.535472807" x2="176.600381523" y1="300.294988393" y2="300.980920195" /><line stroke="rgb(0%,0%,0%)" x1="176.600381523" x2="167.000605819" y1="300.980920195" y2="305.182189922" /><line stroke="rgb(0%,0%,0%)" x1="196.077561437" x2="178.535472807" y1="294.881182312" y2="300.294988393" /><line stroke="rgb(0%,0%,0%)" x1="212.975287728" x2="209.281206441" y1="291.864854739" y2="292.338920178" /><line stroke="rgb(0%,0%,0%)" x1="224.402609653" x2="222.05097593" y1="290.980077098" y2="290.984512112" /><line stroke="rgb(0%,0%,0%)" x1="225.42529566" x2="224.402609653" y1="290.794032436" y2="290.980077098" /><line stroke="rgb(0%,0%,0%)" x1="133.817002804" x2="137.056655012" y1="322.252567591" y2="320.425188779" /><line stroke="rgb(0%,0%,0%)" x1="141.857418155" x2="137.056655012" y1="317.912279045" y2="320.425188779" /><line stroke="rgb(0%,0%,0%)" x1="141.857418155" x2="155.995791867" y1="317.912279045" y2="309.811003066" /><line stroke="rgb(0%,0%,0%)" x1="214.460575056" x2="212.975287728" y1="291.862747374" y2="291.864854739" /><line stroke="rgb(0%,0%,0%)" x1="215.154695142" x2="214.460575056" y1="291.538121302" y2="291.862747374" /><line stroke="rgb(0%,0%,0%)" x1="99.9175123606" x2="98.077145159" y1="341.933677468" y2="343.058496405" /><line stroke="rgb(0%,0%,0%)" x1="98.077145159" x2="95.9214695791" y1="343.058496405" y2="345.0617202" /><line stroke="rgb(0%,0%,0%)" x1="99.9175123606" x2="102.121586269" y1="341.933677468" y2="339.457744889" /><line stroke="rgb(0%,0%,0%)" x1="105.755591341" x2="111.47099171" y1="335.699966367" y2="332.338652762" /><line stroke="rgb(0%,0%,0%)" x1="133.817002804" x2="123.490313595" y1="322.252567591" y2="326.537207316" /><line stroke="rgb(0%,0%,0%)" x1="166.077450478" x2="155.995791867" y1="305.044334483" y2="309.811003066" /><line stroke="rgb(0%,0%,0%)" x1="72.4844290941" x2="72.4549417848" y1="393.989102626" y2="391.597378676" /><line stroke="rgb(0%,0%,0%)" x1="81.5662781588" x2="81.4335658078" y1="377.472946854" y2="377.616132595" /><line stroke="rgb(0%,0%,0%)" x1="82.9113001254" x2="79.042950082" y1="355.263076696" y2="360.311658268" /><line stroke="rgb(0%,0%,0%)" x1="94.7238805498" x2="95.9214695791" y1="345.851065019" y2="345.0617202" /><line stroke="rgb(0%,0%,0%)" x1="94.7238805498" x2="88.0996881029" y1="345.851065019" y2="350.767020537" /><line stroke="rgb(0%,0%,0%)" x1="105.755591341" x2="102.121586269" y1="335.699966367" y2="339.457744889" /><line stroke="rgb(0%,0%,0%)" x1="114.860321726" x2="111.47099171" y1="329.774282268" y2="332.338652762" /><line stroke="rgb(0%,0%,0%)" x1="123.490313595" x2="117.222469095" y1="326.537207316" y2="328.519797678" /><line stroke="rgb(0%,0%,0%)" x1="117.222469095" x2="114.860321726" y1="328.519797678" y2="329.774282268" /><line stroke="rgb(0%,0%,0%)" x1="60.4988654151" x2="59.321128712" y1="406.339165392" y2="407.277658499" /><line stroke="rgb(0%,0%,0%)" x1="59.321128712" x2="51.0767006915" y1="407.277658499" y2="415.36846612" /><line stroke="rgb(0%,0%,0%)" x1="60.4988654151" x2="62.2301951659" y1="406.339165392" y2="402.755101514" /><line stroke="rgb(0%,0%,0%)" x1="69.9719815985" x2="62.5872676875" y1="395.350951284" y2="402.143284786" /><line stroke="rgb(0%,0%,0%)" x1="62.5872676875" x2="62.5095525502" y1="402.143284786" y2="402.252325868" /><line stroke="rgb(0%,0%,0%)" x1="72.4844290941" x2="69.9719815985" y1="393.989102626" y2="395.350951284" /><line stroke="rgb(0%,0%,0%)" x1="72.4549417848" x2="74.0999455147" y1="391.597378676" y2="386.061789362" /><line stroke="rgb(0%,0%,0%)" x1="73.8115859278" x2="74.0999455147" y1="384.723671488" y2="386.061789362" /><line stroke="rgb(0%,0%,0%)" x1="74.6236717265" x2="73.8115859278" y1="382.97520833" y2="384.723671488" /><line stroke="rgb(0%,0%,0%)" x1="80.7976203874" x2="74.6236717265" y1="378.156623084" y2="382.97520833" /><line stroke="rgb(0%,0%,0%)" x1="81.4335658078" x2="80.7976203874" y1="377.616132595" y2="378.156623084" /><line stroke="rgb(0%,0%,0%)" x1="79.0681763032" x2="81.5662781588" y1="373.877501639" y2="377.472946854" /><line stroke="rgb(0%,0%,0%)" x1="77.387116108" x2="79.0681763032" y1="369.09290558" y2="373.877501639" /><line stroke="rgb(0%,0%,0%)" x1="78.8215922538" x2="76.7228521125" y1="363.209891693" y2="367.223895847" /><line stroke="rgb(0%,0%,0%)" x1="76.7228521125" x2="77.387116108" y1="367.223895847" y2="369.09290558" /><line stroke="rgb(0%,0%,0%)" x1="78.8215922538" x2="79.042950082" y1="363.209891693" y2="360.311658268" /><line stroke="rgb(0%,0%,0%)" x1="88.0996881029" x2="82.9113001254" y1="350.767020537" y2="355.263076696" /><line stroke="rgb(0%,0%,0%)" x1="41.3227590444" x2="40.9117302973" y1="454.518409162" y2="463.509469133" /><line stroke="rgb(0%,0%,0%)" x1="40.3480404398" x2="41.3227590444" y1="450.635801102" y2="454.518409162" /><line stroke="rgb(0%,0%,0%)" x1="32.5742103309" x2="33.0305465341" y1="446.23582597" y2="443.766936261" /><line stroke="rgb(0%,0%,0%)" x1="30.2506326489" x2="32.5742103309" y1="452.972417746" y2="446.23582597" /><line stroke="rgb(0%,0%,0%)" x1="28.6824395914" x2="30.2506326489" y1="453.795122869" y2="452.972417746" /><line stroke="rgb(0%,0%,0%)" x1="40.3480404398" x2="41.5187172599" y1="450.635801102" y2="441.790646617" /><line stroke="rgb(0%,0%,0%)" x1="33.0305465341" x2="32.5920539872" y1="443.766936261" y2="443.010620548" /><line stroke="rgb(0%,0%,0%)" x1="43.2246282488" x2="42.2273571935" y1="431.701684109" y2="435.535113252" /><line stroke="rgb(0%,0%,0%)" x1="41.9326150939" x2="41.5187172599" y1="440.300110583" y2="441.790646617" /><line stroke="rgb(0%,0%,0%)" x1="42.2273571935" x2="41.9326150939" y1="435.535113252" y2="440.300110583" /><line stroke="rgb(0%,0%,0%)" x1="47.6499877155" x2="43.2246282488" y1="422.364342905" y2="431.701684109" /><line stroke="rgb(0%,0%,0%)" x1="51.0767006915" x2="47.6499877155" y1="415.36846612" y2="422.364342905" /><line stroke="rgb(0%,0%,0%)" x1="62.4910630385" x2="62.2301951659" y1="402.323471143" y2="402.755101514" /><line stroke="rgb(0%,0%,0%)" x1="62.5095525502" x2="62.4910630385" y1="402.252325868" y2="402.323471143" /><line stroke="rgb(0%,0%,0%)" x1="26.4735599023" x2="28.6824395914" y1="452.942502864" y2="453.795122869" /><line stroke="rgb(0%,0%,0%)" x1="25.6739241227" x2="26.4735599023" y1="447.620230126" y2="452.942502864" /><line stroke="rgb(0%,0%,0%)" x1="25.6739241227" x2="28.7933154709" y1="447.620230126" y2="444.854919273" /><line stroke="rgb(0%,0%,0%)" x1="32.2287084973" x2="28.7933154709" y1="443.15340415" y2="444.854919273" /><line stroke="rgb(0%,0%,0%)" x1="32.5920539872" x2="32.2287084973" y1="443.010620548" y2="443.15340415" /><line stroke="rgb(0%,0%,0%)" x1="537.077410802" x2="534.676518477" y1="533.034697089" y2="537.937374701" /><line stroke="rgb(0%,0%,0%)" x1="548.571870831" x2="548.199718188" y1="512.141855185" y2="513.560331096" /><line stroke="rgb(0%,0%,0%)" x1="548.571870831" x2="550.566620433" y1="512.141855185" y2="509.094610591" /><line stroke="rgb(0%,0%,0%)" x1="550.566620433" x2="550.835940577" y1="509.094610591" y2="507.771016491" /><line stroke="rgb(0%,0%,0%)" x1="554.57760458" x2="554.808248284" y1="496.42139713" y2="495.737335378" /><line stroke="rgb(0%,0%,0%)" x1="554.97819298" x2="554.808248284" y1="495.462941307" y2="495.737335378" /><line stroke="rgb(0%,0%,0%)" x1="554.97819298" x2="554.966477309" y1="495.462941307" y2="495.049812387" /><line stroke="rgb(0%,0%,0%)" x1="554.966477309" x2="555.566911635" y1="495.049812387" y2="485.433321437" /><line stroke="rgb(0%,0%,0%)" x1="527.613295318" x2="535.3206155" y1="527.026762572" y2="515.621524487" /><line stroke="rgb(0%,0%,0%)" x1="531.324327036" x2="530.030306808" y1="545.092888586" y2="548.682027348" /><line stroke="rgb(0%,0%,0%)" x1="531.787981012" x2="531.324327036" y1="544.1581388" y2="545.092888586" /><line stroke="rgb(0%,0%,0%)" x1="531.787981012" x2="533.683729601" y1="544.1581388" y2="540.178806751" /><line stroke="rgb(0%,0%,0%)" x1="533.683729601" x2="533.365980122" y1="540.178806751" y2="539.218558565" /><line stroke="rgb(0%,0%,0%)" x1="533.365980122" x2="534.676518477" y1="539.218558565" y2="537.937374701" /><line stroke="rgb(0%,0%,0%)" x1="540.891392743" x2="542.601621414" y1="527.367277884" y2="522.015300387" /><line stroke="rgb(0%,0%,0%)" x1="535.403251273" x2="535.3206155" y1="515.521840558" y2="515.621524487" /><line stroke="rgb(0%,0%,0%)" x1="535.400745552" x2="535.418608081" y1="515.497858409" y2="515.508033208" /><line stroke="rgb(0%,0%,0%)" x1="538.242597155" x2="535.400745552" y1="509.295332569" y2="515.497858409" /><line stroke="rgb(0%,0%,0%)" x1="538.242597155" x2="538.19733469" y1="509.295332569" y2="498.963670445" /><line stroke="rgb(0%,0%,0%)" x1="538.519845895" x2="538.19733469" y1="493.073745019" y2="498.963670445" /><line stroke="rgb(0%,0%,0%)" x1="539.464992018" x2="538.519845895" y1="490.415468174" y2="493.073745019" /><line stroke="rgb(0%,0%,0%)" x1="533.648935503" x2="522.911366652" y1="478.051228748" y2="495.683514562" /><line stroke="rgb(0%,0%,0%)" x1="539.464992018" x2="538.887308502" y1="490.415468174" y2="479.452932143" /><line stroke="rgb(0%,0%,0%)" x1="540.368165538" x2="538.887308502" y1="476.066930901" y2="479.452932143" /><line stroke="rgb(0%,0%,0%)" x1="540.368165538" x2="539.022320802" y1="476.066930901" y2="464.7769544" /><line stroke="rgb(0%,0%,0%)" x1="535.377946704" x2="538.562393017" y1="474.265510259" y2="464.706141851" /><line stroke="rgb(0%,0%,0%)" x1="538.562393017" x2="538.491500201" y1="464.706141851" y2="464.587233775" /><line stroke="rgb(0%,0%,0%)" x1="538.491500201" x2="538.650738827" y1="464.587233775" y2="464.339850899" /><line stroke="rgb(0%,0%,0%)" x1="538.287440311" x2="538.650738827" y1="458.794508933" y2="464.339850899" /><line stroke="rgb(0%,0%,0%)" x1="537.077410802" x2="540.891392743" y1="533.034697089" y2="527.367277884" /><line stroke="rgb(0%,0%,0%)" x1="542.601621414" x2="545.291952581" y1="522.015300387" y2="519.708463128" /><line stroke="rgb(0%,0%,0%)" x1="545.070942537" x2="545.291952581" y1="519.363558407" y2="519.708463128" /><line stroke="rgb(0%,0%,0%)" x1="545.070942537" x2="545.964017383" y1="519.363558407" y2="518.346853595" /><line stroke="rgb(0%,0%,0%)" x1="535.418608081" x2="535.403251273" y1="515.508033208" y2="515.521840558" /><line stroke="rgb(0%,0%,0%)" x1="545.964017383" x2="548.199718188" y1="518.346853595" y2="513.560331096" /><line stroke="rgb(0%,0%,0%)" x1="550.835940577" x2="552.316260186" y1="507.771016491" y2="503.360175541" /><line stroke="rgb(0%,0%,0%)" x1="552.316260186" x2="550.340050574" y1="503.360175541" y2="501.683452523" /><line stroke="rgb(0%,0%,0%)" x1="550.340050574" x2="554.57760458" y1="501.683452523" y2="496.42139713" /><line stroke="rgb(0%,0%,0%)" x1="555.566911635" x2="556.649809413" y1="485.433321437" y2="481.66818377" /><line stroke="rgb(0%,0%,0%)" x1="556.649809413" x2="555.119859984" y1="481.66818377" y2="479.153376156" /><line stroke="rgb(0%,0%,0%)" x1="555.119859984" x2="552.302756681" y1="479.153376156" y2="473.064218374" /><line stroke="rgb(0%,0%,0%)" x1="552.302756681" x2="539.022320802" y1="473.064218374" y2="464.7769544" /><line stroke="rgb(0%,0%,0%)" x1="509.89794058" x2="510.149447001" y1="549.800950603" y2="549.19127841" /><line stroke="rgb(0%,0%,0%)" x1="509.89794058" x2="507.778308748" y1="549.800950603" y2="555.15644758" /><line stroke="rgb(0%,0%,0%)" x1="510.149447001" x2="510.725399795" y1="549.19127841" y2="548.229319636" /><line stroke="rgb(0%,0%,0%)" x1="502.042788758" x2="503.917901137" y1="415.309678012" y2="420.065120247" /><line stroke="rgb(0%,0%,0%)" x1="499.549035281" x2="499.300533078" y1="409.892543349" y2="408.832917747" /><line stroke="rgb(0%,0%,0%)" x1="502.042788758" x2="499.549035281" y1="415.309678012" y2="409.892543349" /><line stroke="rgb(0%,0%,0%)" x1="499.300533078" x2="491.761481507" y1="408.832917747" y2="397.762300806" /><line stroke="rgb(0%,0%,0%)" x1="491.761481507" x2="490.230324756" y1="397.762300806" y2="395.039533266" /><line stroke="rgb(0%,0%,0%)" x1="512.305875547" x2="509.823101519" y1="563.711965022" y2="565.121783205" /><line stroke="rgb(0%,0%,0%)" x1="509.823101519" x2="503.962832512" y1="565.121783205" y2="565.480371434" /><line stroke="rgb(0%,0%,0%)" x1="509.282221756" x2="503.962832512" y1="561.219874514" y2="565.480371434" /><line stroke="rgb(0%,0%,0%)" x1="507.325957533" x2="509.282221756" y1="557.377555224" y2="561.219874514" /><line stroke="rgb(0%,0%,0%)" x1="507.778308748" x2="507.325957533" y1="555.15644758" y2="557.377555224" /><line stroke="rgb(0%,0%,0%)" x1="516.092297942" x2="510.725399795" y1="540.519074194" y2="548.229319636" /><line stroke="rgb(0%,0%,0%)" x1="516.092297942" x2="516.615573946" y1="540.519074194" y2="540.000387759" /><line stroke="rgb(0%,0%,0%)" x1="506.997573018" x2="507.763405136" y1="445.847630568" y2="443.79333768" /><line stroke="rgb(0%,0%,0%)" x1="507.763405136" x2="508.637924809" y1="443.79333768" y2="438.447329192" /><line stroke="rgb(0%,0%,0%)" x1="508.662186573" x2="508.637924809" y1="435.086539506" y2="438.447329192" /><line stroke="rgb(0%,0%,0%)" x1="508.662186573" x2="508.868905505" y1="435.086539506" y2="434.003100848" /><line stroke="rgb(0%,0%,0%)" x1="508.868905505" x2="508.761322765" y1="434.003100848" y2="431.828388271" /><line stroke="rgb(0%,0%,0%)" x1="508.761322765" x2="508.071222927" y1="431.828388271" y2="428.906847576" /><line stroke="rgb(0%,0%,0%)" x1="503.917901137" x2="505.497792141" y1="420.065120247" y2="422.634149869" /><line stroke="rgb(0%,0%,0%)" x1="508.071222927" x2="505.497792141" y1="428.906847576" y2="422.634149869" /><line stroke="rgb(0%,0%,0%)" x1="512.305875547" x2="517.08261943" y1="563.711965022" y2="560.55052259" /><line stroke="rgb(0%,0%,0%)" x1="517.08261943" x2="523.346748305" y1="560.55052259" y2="557.426568281" /><line stroke="rgb(0%,0%,0%)" x1="523.346748305" x2="525.047134298" y1="557.426568281" y2="554.766661252" /><line stroke="rgb(0%,0%,0%)" x1="525.047134298" x2="530.030306808" y1="554.766661252" y2="548.682027348" /><line stroke="rgb(0%,0%,0%)" x1="521.565765816" x2="516.615573946" y1="537.17555182" y2="540.000387759" /><line stroke="rgb(0%,0%,0%)" x1="522.555337287" x2="521.565765816" y1="532.460229917" y2="537.17555182" /><line stroke="rgb(0%,0%,0%)" x1="522.936528378" x2="522.555337287" y1="531.435822089" y2="532.460229917" /><line stroke="rgb(0%,0%,0%)" x1="522.936528378" x2="523.041693271" y1="531.435822089" y2="531.23936598" /><line stroke="rgb(0%,0%,0%)" x1="527.613295318" x2="523.041693271" y1="527.026762572" y2="531.23936598" /><line stroke="rgb(0%,0%,0%)" x1="522.339346769" x2="522.66966701" y1="487.131071822" y2="494.657750622" /><line stroke="rgb(0%,0%,0%)" x1="523.270033101" x2="522.339346769" y1="483.395808472" y2="487.131071822" /><line stroke="rgb(0%,0%,0%)" x1="522.66966701" x2="522.911366652" y1="494.657750622" y2="495.683514562" /><line stroke="rgb(0%,0%,0%)" x1="524.376035314" x2="523.270033101" y1="473.571295867" y2="483.395808472" /><line stroke="rgb(0%,0%,0%)" x1="524.376035314" x2="525.667653571" y1="473.571295867" y2="466.995705727" /><line stroke="rgb(0%,0%,0%)" x1="526.418599016" x2="525.667653571" y1="466.721885538" y2="466.995705727" /><line stroke="rgb(0%,0%,0%)" x1="526.266647549" x2="526.418599016" y1="465.397793667" y2="466.721885538" /><line stroke="rgb(0%,0%,0%)" x1="527.414505317" x2="526.266647549" y1="458.795499851" y2="465.397793667" /><line stroke="rgb(0%,0%,0%)" x1="533.648935503" x2="535.377946704" y1="478.051228748" y2="474.265510259" /><line stroke="rgb(0%,0%,0%)" x1="461.981450825" x2="465.076515818" y1="551.084183092" y2="547.978385477" /><line stroke="rgb(0%,0%,0%)" x1="475.207203973" x2="474.865599359" y1="378.286863237" y2="378.099869559" /><line stroke="rgb(0%,0%,0%)" x1="470.351972865" x2="474.865599359" y1="374.950102821" y2="378.099869559" /><line stroke="rgb(0%,0%,0%)" x1="490.230324756" x2="489.244290589" y1="395.039533266" y2="393.530617364" /><line stroke="rgb(0%,0%,0%)" x1="485.735622577" x2="489.244290589" y1="388.489546788" y2="393.530617364" /><line stroke="rgb(0%,0%,0%)" x1="482.596672593" x2="475.207203973" y1="385.303413115" y2="378.286863237" /><line stroke="rgb(0%,0%,0%)" x1="485.735622577" x2="482.596672593" y1="388.489546788" y2="385.303413115" /><line stroke="rgb(0%,0%,0%)" x1="426.642347738" x2="433.187307224" y1="578.802254457" y2="574.359666187" /><line stroke="rgb(0%,0%,0%)" x1="442.756338444" x2="445.566868022" y1="567.867619266" y2="565.871160117" /><line stroke="rgb(0%,0%,0%)" x1="445.566868022" x2="447.095429072" y1="565.871160117" y2="564.316363111" /><line stroke="rgb(0%,0%,0%)" x1="447.095429072" x2="448.519160313" y1="564.316363111" y2="563.182069592" /><line stroke="rgb(0%,0%,0%)" x1="459.861460592" x2="461.981450825" y1="553.379004726" y2="551.084183092" /><line stroke="rgb(0%,0%,0%)" x1="405.171033218" x2="407.67043363" y1="600.615858257" y2="598.354121692" /><line stroke="rgb(0%,0%,0%)" x1="414.439866636" x2="407.67043363" y1="591.355276818" y2="598.354121692" /><line stroke="rgb(0%,0%,0%)" x1="414.439866636" x2="416.5933751" y1="591.355276818" y2="589.540188944" /><line stroke="rgb(0%,0%,0%)" x1="421.489354532" x2="416.5933751" y1="583.440549902" y2="589.540188944" /><line stroke="rgb(0%,0%,0%)" x1="421.489354532" x2="425.021555689" y1="583.440549902" y2="580.674873879" /><line stroke="rgb(0%,0%,0%)" x1="425.021555689" x2="426.642347738" y1="580.674873879" y2="578.802254457" /><line stroke="rgb(0%,0%,0%)" x1="331.061728646" x2="332.700680024" y1="621.087881078" y2="620.909116276" /><line stroke="rgb(0%,0%,0%)" x1="336.691813792" x2="332.700680024" y1="620.201309084" y2="620.909116276" /><line stroke="rgb(0%,0%,0%)" x1="326.214413507" x2="331.061728646" y1="621.565740546" y2="621.087881078" /><line stroke="rgb(0%,0%,0%)" x1="326.214413507" x2="319.601441905" y1="621.565740546" y2="621.649397955" /><line stroke="rgb(0%,0%,0%)" x1="336.691813792" x2="338.547574407" y1="620.201309084" y2="620.143852059" /><line stroke="rgb(0%,0%,0%)" x1="280.005737358" x2="292.533015481" y1="620.726596836" y2="622.598948543" /><line stroke="rgb(0%,0%,0%)" x1="305.050635205" x2="319.601441905" y1="623.468417356" y2="621.649397955" /><line stroke="rgb(0%,0%,0%)" x1="227.765146876" x2="227.299619592" y1="627.780555666" y2="627.697690353" /><line stroke="rgb(0%,0%,0%)" x1="238.02025874" x2="242.118269472" y1="628.601108386" y2="627.882295571" /><line stroke="rgb(0%,0%,0%)" x1="238.02025874" x2="237.838585354" y1="628.601108386" y2="628.621370119" /><line stroke="rgb(0%,0%,0%)" x1="292.533015481" x2="297.739881339" y1="622.598948543" y2="623.547130522" /><line stroke="rgb(0%,0%,0%)" x1="280.005737358" x2="271.216434895" y1="620.726596836" y2="623.212281229" /><line stroke="rgb(0%,0%,0%)" x1="267.702601252" x2="271.216434895" y1="624.386740127" y2="623.212281229" /><line stroke="rgb(0%,0%,0%)" x1="297.739881339" x2="305.050635205" y1="623.547130522" y2="623.468417356" /><line stroke="rgb(0%,0%,0%)" x1="205.639742614" x2="206.784789683" y1="619.782847455" y2="620.375113697" /><line stroke="rgb(0%,0%,0%)" x1="205.639742614" x2="203.083165301" y1="619.782847455" y2="619.144246851" /><line stroke="rgb(0%,0%,0%)" x1="221.521269733" x2="217.368630913" y1="625.155444814" y2="623.695966023" /><line stroke="rgb(0%,0%,0%)" x1="209.993469841" x2="213.455231246" y1="621.530386149" y2="622.557519846" /><line stroke="rgb(0%,0%,0%)" x1="206.784789683" x2="209.993469841" y1="620.375113697" y2="621.530386149" /><line stroke="rgb(0%,0%,0%)" x1="227.765146876" x2="232.934466494" y1="627.780555666" y2="627.318306594" /><line stroke="rgb(0%,0%,0%)" x1="232.934466494" x2="237.838585354" y1="627.318306594" y2="628.621370119" /><line stroke="rgb(0%,0%,0%)" x1="221.521269733" x2="227.299619592" y1="625.155444814" y2="627.697690353" /><line stroke="rgb(0%,0%,0%)" x1="242.118269472" x2="252.951883582" y1="627.882295571" y2="625.833241687" /><line stroke="rgb(0%,0%,0%)" x1="261.5416787" x2="267.702601252" y1="625.330279858" y2="624.386740127" /><line stroke="rgb(0%,0%,0%)" x1="261.5416787" x2="252.951883582" y1="625.330279858" y2="625.833241687" /><line stroke="rgb(0%,0%,0%)" x1="191.298415181" x2="179.953910899" y1="613.351232254" y2="609.260262652" /><line stroke="rgb(0%,0%,0%)" x1="191.298415181" x2="203.083165301" y1="613.351232254" y2="619.144246851" /><line stroke="rgb(0%,0%,0%)" x1="213.455231246" x2="217.368630913" y1="622.557519846" y2="623.695966023" /><line stroke="rgb(0%,0%,0%)" x1="150.641169275" x2="157.663963736" y1="597.705218918" y2="601.091621619" /><line stroke="rgb(0%,0%,0%)" x1="139.294014741" x2="150.641169275" y1="594.315273979" y2="597.705218918" /><line stroke="rgb(0%,0%,0%)" x1="163.186222629" x2="168.176731518" y1="604.730887993" y2="607.014731996" /><line stroke="rgb(0%,0%,0%)" x1="157.663963736" x2="163.186222629" y1="601.091621619" y2="604.730887993" /><line stroke="rgb(0%,0%,0%)" x1="174.455247033" x2="176.772322797" y1="607.513762614" y2="608.260700561" /><line stroke="rgb(0%,0%,0%)" x1="168.176731518" x2="174.455247033" y1="607.014731996" y2="607.513762614" /><line stroke="rgb(0%,0%,0%)" x1="176.772322797" x2="179.953910899" y1="608.260700561" y2="609.260262652" /><line stroke="rgb(0%,0%,0%)" x1="74.3264063584" x2="74.7234768708" y1="534.583199916" y2="535.318523631" /><line stroke="rgb(0%,0%,0%)" x1="98.0131299785" x2="94.2698697781" y1="576.486172386" y2="573.616167743" /><line stroke="rgb(0%,0%,0%)" x1="83.3000912349" x2="85.1283633936" y1="564.78145982" y2="566.476372272" /><line stroke="rgb(0%,0%,0%)" x1="114.452275091" x2="108.963617011" y1="587.874310072" y2="584.856376794" /><line stroke="rgb(0%,0%,0%)" x1="114.452275091" x2="127.451025643" y1="587.874310072" y2="591.321152675" /><line stroke="rgb(0%,0%,0%)" x1="139.294014741" x2="129.954520168" y1="594.315273979" y2="592.017162227" /><line stroke="rgb(0%,0%,0%)" x1="70.7385004486" x2="67.3750273826" y1="519.763727507" y2="518.746534443" /><line stroke="rgb(0%,0%,0%)" x1="63.3737775998" x2="62.5513070518" y1="513.975739578" y2="513.677160612" /><line stroke="rgb(0%,0%,0%)" x1="63.3737775998" x2="65.5151506015" y1="513.975739578" y2="517.001283755" /><line stroke="rgb(0%,0%,0%)" x1="83.3000912349" x2="81.5696879176" y1="564.78145982" y2="562.196729384" /><line stroke="rgb(0%,0%,0%)" x1="79.9008500879" x2="77.7348469196" y1="544.962776607" y2="548.808165974" /><line stroke="rgb(0%,0%,0%)" x1="78.3738812357" x2="79.0810268489" y1="555.943579634" y2="558.423698366" /><line stroke="rgb(0%,0%,0%)" x1="78.3738812357" x2="77.7348469196" y1="555.943579634" y2="548.808165974" /><line stroke="rgb(0%,0%,0%)" x1="79.9008500879" x2="80.7329245872" y1="544.962776607" y2="543.745275554" /><line stroke="rgb(0%,0%,0%)" x1="81.4009364983" x2="80.7329245872" y1="542.581721181" y2="543.745275554" /><line stroke="rgb(0%,0%,0%)" x1="80.6787627225" x2="81.4009364983" y1="541.188075847" y2="542.581721181" /><line stroke="rgb(0%,0%,0%)" x1="77.8506315594" x2="80.6787627225" y1="539.54639135" y2="541.188075847" /><line stroke="rgb(0%,0%,0%)" x1="74.7234768708" x2="77.8506315594" y1="535.318523631" y2="539.54639135" /><line stroke="rgb(0%,0%,0%)" x1="74.3264063584" x2="73.6480027963" y1="534.583199916" y2="532.675590639" /><line stroke="rgb(0%,0%,0%)" x1="79.9059051485" x2="76.6409290111" y1="525.470867664" y2="528.05191033" /><line stroke="rgb(0%,0%,0%)" x1="79.7302787633" x2="79.9059051485" y1="525.066448854" y2="525.470867664" /><line stroke="rgb(0%,0%,0%)" x1="77.1479379796" x2="79.7302787633" y1="521.859411463" y2="525.066448854" /><line stroke="rgb(0%,0%,0%)" x1="77.1479379796" x2="75.0735625791" y1="521.859411463" y2="521.518870213" /><line stroke="rgb(0%,0%,0%)" x1="70.7385004486" x2="75.0735625791" y1="519.763727507" y2="521.518870213" /><line stroke="rgb(0%,0%,0%)" x1="85.1283633936" x2="94.2698697781" y1="566.476372272" y2="573.616167743" /><line stroke="rgb(0%,0%,0%)" x1="103.892320081" x2="108.963617011" y1="581.532081044" y2="584.856376794" /><line stroke="rgb(0%,0%,0%)" x1="102.963515181" x2="103.892320081" y1="580.266980875" y2="581.532081044" /><line stroke="rgb(0%,0%,0%)" x1="98.0131299785" x2="102.963515181" y1="576.486172386" y2="580.266980875" /><line stroke="rgb(0%,0%,0%)" x1="129.226449903" x2="129.513849431" y1="591.906831538" y2="592.030375024" /><line stroke="rgb(0%,0%,0%)" x1="127.451025643" x2="129.226449903" y1="591.321152675" y2="591.906831538" /><line stroke="rgb(0%,0%,0%)" x1="129.513849431" x2="129.954520168" y1="592.030375024" y2="592.017162227" /><line stroke="rgb(0%,0%,0%)" x1="45.1045653181" x2="45.6358324517" y1="488.526276909" y2="489.336823669" /><line stroke="rgb(0%,0%,0%)" x1="42.620811596" x2="45.1045653181" y1="476.608305594" y2="488.526276909" /><line stroke="rgb(0%,0%,0%)" x1="41.9704018665" x2="42.620811596" y1="474.761098748" y2="476.608305594" /><line stroke="rgb(0%,0%,0%)" x1="40.6119805102" x2="41.9704018665" y1="467.376212655" y2="474.761098748" /><line stroke="rgb(0%,0%,0%)" x1="40.9117302973" x2="40.6119805102" y1="463.509469133" y2="467.376212655" /><line stroke="rgb(0%,0%,0%)" x1="56.6164752677" x2="61.7470352857" y1="512.504823744" y2="511.418565023" /><line stroke="rgb(0%,0%,0%)" x1="56.3422630626" x2="56.6164752677" y1="512.423718111" y2="512.504823744" /><line stroke="rgb(0%,0%,0%)" x1="61.7470352857" x2="62.5513070518" y1="511.418565023" y2="513.677160612" /><line stroke="rgb(0%,0%,0%)" x1="56.3422630626" x2="56.1262706667" y1="512.423718111" y2="512.230709224" /><line stroke="rgb(0%,0%,0%)" x1="56.1262706667" x2="55.5631236885" y1="512.230709224" y2="511.610925978" /><line stroke="rgb(0%,0%,0%)" x1="50.7143682885" x2="55.5631236885" y1="503.741049333" y2="511.610925978" /><line stroke="rgb(0%,0%,0%)" x1="50.7143682885" x2="47.6410309735" y1="503.741049333" y2="496.59752759" /><line stroke="rgb(0%,0%,0%)" x1="47.3524947478" x2="47.6410309735" y1="495.260426093" y2="496.59752759" /><line stroke="rgb(0%,0%,0%)" x1="47.3524947478" x2="45.6355923432" y1="495.260426093" y2="490.274257136" /><line stroke="rgb(0%,0%,0%)" x1="45.6358324517" x2="45.6355923432" y1="489.336823669" y2="490.274257136" /><line stroke="rgb(0%,0%,0%)" x1="72.1336990155" x2="73.6480027963" y1="530.36307601" y2="532.675590639" /><line stroke="rgb(0%,0%,0%)" x1="72.7577723327" x2="72.1336990155" y1="529.779783776" y2="530.36307601" /><line stroke="rgb(0%,0%,0%)" x1="73.3050714822" x2="72.7577723327" y1="529.812034974" y2="529.779783776" /><line stroke="rgb(0%,0%,0%)" x1="65.5151506015" x2="66.8529285436" y1="517.001283755" y2="517.719064203" /><line stroke="rgb(0%,0%,0%)" x1="66.8529285436" x2="67.3750273826" y1="517.719064203" y2="518.746534443" /><line stroke="rgb(0%,0%,0%)" x1="79.0810268489" x2="81.5696879176" y1="558.423698366" y2="562.196729384" /><line stroke="rgb(0%,0%,0%)" x1="76.6409290111" x2="73.3050714822" y1="528.05191033" y2="529.812034974" /><line stroke="rgb(0%,0%,0%)" x1="498.118309767" x2="496.145981838" y1="502.443372719" y2="507.695089925" /><line stroke="rgb(0%,0%,0%)" x1="498.118309767" x2="501.466367461" y1="502.443372719" y2="494.600567626" /><line stroke="rgb(0%,0%,0%)" x1="501.558210115" x2="501.466367461" y1="494.357029633" y2="494.600567626" /><line stroke="rgb(0%,0%,0%)" x1="501.558210115" x2="502.149365066" y1="494.357029633" y2="493.473020118" /><line stroke="rgb(0%,0%,0%)" x1="502.149365066" x2="507.695570414" y1="493.473020118" y2="485.025813663" /><line stroke="rgb(0%,0%,0%)" x1="507.695570414" x2="507.096615785" y1="485.025813663" y2="477.381137674" /><line stroke="rgb(0%,0%,0%)" x1="507.241373731" x2="506.945194088" y1="476.427358647" y2="473.640686706" /><line stroke="rgb(0%,0%,0%)" x1="506.260673637" x2="506.945194088" y1="472.608313986" y2="473.640686706" /><line stroke="rgb(0%,0%,0%)" x1="506.471352947" x2="506.260673637" y1="469.283198615" y2="472.608313986" /><line stroke="rgb(0%,0%,0%)" x1="506.471352947" x2="506.241253527" y1="469.283198615" y2="467.317386477" /><line stroke="rgb(0%,0%,0%)" x1="456.493505256" x2="448.519160313" y1="556.056806184" y2="563.182069592" /><line stroke="rgb(0%,0%,0%)" x1="456.493505256" x2="459.861460592" y1="556.056806184" y2="553.379004726" /><line stroke="rgb(0%,0%,0%)" x1="468.053753527" x2="474.237618201" y1="544.687958037" y2="538.260747644" /><line stroke="rgb(0%,0%,0%)" x1="475.878341075" x2="474.237618201" y1="537.137761346" y2="538.260747644" /><line stroke="rgb(0%,0%,0%)" x1="482.057783302" x2="483.345265046" y1="530.427996036" y2="528.679764257" /><line stroke="rgb(0%,0%,0%)" x1="477.17875262" x2="475.878341075" y1="535.467803868" y2="537.137761346" /><line stroke="rgb(0%,0%,0%)" x1="483.345265046" x2="484.732513481" y1="528.679764257" y2="526.999520032" /><line stroke="rgb(0%,0%,0%)" x1="477.17875262" x2="482.057783302" y1="535.467803868" y2="530.427996036" /><line stroke="rgb(0%,0%,0%)" x1="488.926015676" x2="486.038591464" y1="519.709809743" y2="524.744939419" /><line stroke="rgb(0%,0%,0%)" x1="484.732513481" x2="486.038591464" y1="526.999520032" y2="524.744939419" /><line stroke="rgb(0%,0%,0%)" x1="493.054605935" x2="488.926015676" y1="512.271076848" y2="519.709809743" /><line stroke="rgb(0%,0%,0%)" x1="493.054605935" x2="494.783609898" y1="512.271076848" y2="509.41781912" /><line stroke="rgb(0%,0%,0%)" x1="494.783609898" x2="496.145981838" y1="509.41781912" y2="507.695089925" /><line stroke="rgb(0%,0%,0%)" x1="507.096615785" x2="507.241373731" y1="477.381137674" y2="476.427358647" /><line stroke="rgb(0%,0%,0%)" x1="505.330693929" x2="504.620175669" y1="463.392434187" y2="458.307288687" /><line stroke="rgb(0%,0%,0%)" x1="506.241253527" x2="505.330693929" y1="467.317386477" y2="463.392434187" /><line stroke="rgb(0%,0%,0%)" x1="350.370113978" x2="351.372027525" y1="619.409068819" y2="619.198094664" /><line stroke="rgb(0%,0%,0%)" x1="384.385481213" x2="384.316121783" y1="612.399606634" y2="612.424488687" /><line stroke="rgb(0%,0%,0%)" x1="384.385481213" x2="384.492610189" y1="612.399606634" y2="612.355063884" /><line stroke="rgb(0%,0%,0%)" x1="384.492610189" x2="396.203835792" y1="612.355063884" y2="607.227415897" /><line stroke="rgb(0%,0%,0%)" x1="397.38337369" x2="399.574643275" y1="606.485013556" y2="604.565108088" /><line stroke="rgb(0%,0%,0%)" x1="399.574643275" x2="403.912330443" y1="604.565108088" y2="601.797088172" /><line stroke="rgb(0%,0%,0%)" x1="396.203835792" x2="397.38337369" y1="607.227415897" y2="606.485013556" /><line stroke="rgb(0%,0%,0%)" x1="403.912330443" x2="405.171033218" y1="601.797088172" y2="600.615858257" /><line stroke="rgb(0%,0%,0%)" x1="435.363623609" x2="433.187307224" y1="572.910741605" y2="574.359666187" /><line stroke="rgb(0%,0%,0%)" x1="435.363623609" x2="438.175627666" y1="572.910741605" y2="570.608491114" /><line stroke="rgb(0%,0%,0%)" x1="438.175627666" x2="442.756338444" y1="570.608491114" y2="567.867619266" /><line stroke="rgb(0%,0%,0%)" x1="349.652985469" x2="350.370113978" y1="619.531347544" y2="619.409068819" /><line stroke="rgb(0%,0%,0%)" x1="365.083090986" x2="369.305165276" y1="616.890061084" y2="616.747927381" /><line stroke="rgb(0%,0%,0%)" x1="369.305165276" x2="384.316121783" y1="616.747927381" y2="612.424488687" /><line stroke="rgb(0%,0%,0%)" x1="465.076515818" x2="467.778344159" y1="547.978385477" y2="545.051964488" /><line stroke="rgb(0%,0%,0%)" x1="468.053753527" x2="467.778344159" y1="544.687958037" y2="545.051964488" /><line stroke="rgb(0%,0%,0%)" x1="351.372027525" x2="365.083090986" y1="619.198094664" y2="616.890061084" /><line stroke="rgb(0%,0%,0%)" x1="349.652985469" x2="347.65849015" y1="619.531347544" y2="619.308605005" /><line stroke="rgb(0%,0%,0%)" x1="340.16710905" x2="347.65849015" y1="619.609566057" y2="619.308605005" /><line stroke="rgb(0%,0%,0%)" x1="340.16710905" x2="338.547574407" y1="619.609566057" y2="620.143852059" /></svg>