<?xml version="1.0" encoding="utf-8" ?>
<svg baseProfile="full" height="100%" version="1.1" viewBox="0.5 0.5 685.793960571 941.299331665" width="100%" xmlns="http://www.w3.org/2000/svg" xmlns:ev="http://www.w3.org/2001/xml-events" xmlns:xlink="http://www.w3.org/1999/xlink"><defs /><line stroke="rgb(0%,0%,0%)" x1="554.919719665" x2="555.021425878" y1="432.987129037" y2="433.389281797" /><line stroke="rgb(0%,0%,0%)" x1="554.919719665" x2="554.857417742" y1="432.987129037" y2="432.302655051" /><line stroke="rgb(0%,0%,0%)" x1="554.857417742" x2="555.766246755" y1="432.302655051" y2="430.829595457" /><line stroke="rgb(0%,0%,0%)" x1="532.672618445" x2="531.775049409" y1="369.882838419" y2="368.46207901" /><line stroke="rgb(0%,0%,0%)" x1="540.211545845" x2="545.142368058" y1="387.792146471" y2="394.912925642" /><line stroke="rgb(0%,0%,0%)" x1="534.734422106" x2="535.90171929" y1="376.870827952" y2="379.361015366" /><line stroke="rgb(0%,0%,0%)" x1="540.211545845" x2="535.90171929" y1="387.792146471" y2="379.361015366" /><line stroke="rgb(0%,0%,0%)" x1="534.734422106" x2="534.183644561" y1="376.870827952" y2="376.209032076" /><line stroke="rgb(0%,0%,0%)" x1="555.021425878" x2="553.492149957" y1="433.389281797" y2="435.711924958" /><line stroke="rgb(0%,0%,0%)" x1="551.666089769" x2="553.492149957" y1="436.612920698" y2="435.711924958" /><line stroke="rgb(0%,0%,0%)" x1="555.766246755" x2="555.857782813" y1="430.829595457" y2="429.645345559" /><line stroke="rgb(0%,0%,0%)" x1="554.108833528" x2="555.857782813" y1="422.308039587" y2="429.645345559" /><line stroke="rgb(0%,0%,0%)" x1="553.140660471" x2="554.060396593" y1="416.10537451" y2="419.560404526" /><line stroke="rgb(0%,0%,0%)" x1="554.108833528" x2="554.060396593" y1="422.308039587" y2="419.560404526" /><line stroke="rgb(0%,0%,0%)" x1="551.042502568" x2="551.235822239" y1="408.39049375" y2="409.773268751" /><line stroke="rgb(0%,0%,0%)" x1="553.140660471" x2="551.235822239" y1="416.10537451" y2="409.773268751" /><line stroke="rgb(0%,0%,0%)" x1="551.042502568" x2="549.506366814" y1="408.39049375" y2="404.618361864" /><line stroke="rgb(0%,0%,0%)" x1="549.335025895" x2="549.506366814" y1="404.030255482" y2="404.618361864" /><line stroke="rgb(0%,0%,0%)" x1="549.335025895" x2="549.046908039" y1="404.030255482" y2="403.426560741" /><line stroke="rgb(0%,0%,0%)" x1="549.046908039" x2="548.317640283" y1="403.426560741" y2="401.074068682" /><line stroke="rgb(0%,0%,0%)" x1="548.317640283" x2="547.113232804" y1="401.074068682" y2="397.96221942" /><line stroke="rgb(0%,0%,0%)" x1="547.113232804" x2="544.943579691" y1="397.96221942" y2="396.261549655" /><line stroke="rgb(0%,0%,0%)" x1="513.568177279" x2="513.338323493" y1="372.835632271" y2="372.318098749" /><line stroke="rgb(0%,0%,0%)" x1="513.568177279" x2="514.688746795" y1="372.835632271" y2="374.859889624" /><line stroke="rgb(0%,0%,0%)" x1="507.983478201" x2="513.338323493" y1="365.332287794" y2="372.318098749" /><line stroke="rgb(0%,0%,0%)" x1="507.109024576" x2="507.983478201" y1="363.293462752" y2="365.332287794" /><line stroke="rgb(0%,0%,0%)" x1="505.562364923" x2="507.109024576" y1="359.019313266" y2="363.293462752" /><line stroke="rgb(0%,0%,0%)" x1="526.419975419" x2="526.533724011" y1="390.469164076" y2="390.704427946" /><line stroke="rgb(0%,0%,0%)" x1="521.736188437" x2="522.033807679" y1="385.514381702" y2="385.929637076" /><line stroke="rgb(0%,0%,0%)" x1="522.033807679" x2="526.419975419" y1="385.929637076" y2="390.469164076" /><line stroke="rgb(0%,0%,0%)" x1="521.736188437" x2="521.613151038" y1="385.514381702" y2="385.273849353" /><line stroke="rgb(0%,0%,0%)" x1="514.688746795" x2="521.613151038" y1="374.859889624" y2="385.273849353" /><line stroke="rgb(0%,0%,0%)" x1="523.136149344" x2="511.159060359" y1="355.473395365" y2="347.161152436" /><line stroke="rgb(0%,0%,0%)" x1="511.159060359" x2="502.563528808" y1="347.161152436" y2="342.412826183" /><line stroke="rgb(0%,0%,0%)" x1="532.241034572" x2="531.439098388" y1="445.363175907" y2="446.145766183" /><line stroke="rgb(0%,0%,0%)" x1="532.109719938" x2="532.241034572" y1="444.795323174" y2="445.363175907" /><line stroke="rgb(0%,0%,0%)" x1="531.014885595" x2="531.439098388" y1="443.865462428" y2="446.145766183" /><line stroke="rgb(0%,0%,0%)" x1="531.320996777" x2="531.014885595" y1="443.415750747" y2="443.865462428" /><line stroke="rgb(0%,0%,0%)" x1="532.109719938" x2="531.320996777" y1="444.795323174" y2="443.415750747" /><line stroke="rgb(0%,0%,0%)" x1="540.84153307" x2="541.31583531" y1="424.399759742" y2="423.547872327" /><line stroke="rgb(0%,0%,0%)" x1="535.537402091" x2="538.857191414" y1="404.305107377" y2="409.517955096" /><line stroke="rgb(0%,0%,0%)" x1="534.636415903" x2="535.537402091" y1="401.950185407" y2="404.305107377" /><line stroke="rgb(0%,0%,0%)" x1="534.636415903" x2="534.475040097" y1="401.950185407" y2="401.596541491" /><line stroke="rgb(0%,0%,0%)" x1="526.533724011" x2="534.475040097" y1="390.704427946" y2="401.596541491" /><line stroke="rgb(0%,0%,0%)" x1="534.183644561" x2="532.672618445" y1="376.209032076" y2="369.882838419" /><line stroke="rgb(0%,0%,0%)" x1="529.902542531" x2="531.775049409" y1="365.183015965" y2="368.46207901" /><line stroke="rgb(0%,0%,0%)" x1="529.902542531" x2="526.470968649" y1="365.183015965" y2="360.506734856" /><line stroke="rgb(0%,0%,0%)" x1="526.470968649" x2="523.136149344" y1="360.506734856" y2="355.473395365" /><line stroke="rgb(0%,0%,0%)" x1="544.058693728" x2="551.666089769" y1="432.16917157" y2="436.612920698" /><line stroke="rgb(0%,0%,0%)" x1="540.84153307" x2="541.89682351" y1="424.399759742" y2="430.582301173" /><line stroke="rgb(0%,0%,0%)" x1="541.89682351" x2="544.058693728" y1="430.582301173" y2="432.16917157" /><line stroke="rgb(0%,0%,0%)" x1="540.753852811" x2="541.31583531" y1="418.573263665" y2="423.547872327" /><line stroke="rgb(0%,0%,0%)" x1="540.753852811" x2="539.251596863" y1="418.573263665" y2="412.666044191" /><line stroke="rgb(0%,0%,0%)" x1="541.215704505" x2="539.251596863" y1="411.467907227" y2="412.666044191" /><line stroke="rgb(0%,0%,0%)" x1="538.857191414" x2="541.215704505" y1="409.517955096" y2="411.467907227" /><line stroke="rgb(0%,0%,0%)" x1="544.943579691" x2="545.142368058" y1="396.261549655" y2="394.912925642" /><line stroke="rgb(0%,0%,0%)" x1="503.170106081" x2="499.432135672" y1="353.317753586" y2="346.774196432" /><line stroke="rgb(0%,0%,0%)" x1="505.028029934" x2="505.176962822" y1="458.458001428" y2="455.706621255" /><line stroke="rgb(0%,0%,0%)" x1="505.176962822" x2="505.761935983" y1="455.706621255" y2="452.762334062" /><line stroke="rgb(0%,0%,0%)" x1="505.761935983" x2="507.730535226" y1="452.762334062" y2="444.400296653" /><line stroke="rgb(0%,0%,0%)" x1="503.170106081" x2="505.562364923" y1="353.317753586" y2="359.019313266" /><line stroke="rgb(0%,0%,0%)" x1="502.563528808" x2="501.09591415" y1="342.412826183" y2="342.527087874" /><line stroke="rgb(0%,0%,0%)" x1="499.432135672" x2="501.09591415" y1="346.774196432" y2="342.527087874" /><line stroke="rgb(0%,0%,0%)" x1="447.339624282" x2="442.221004403" y1="348.607474109" y2="345.320990152" /><line stroke="rgb(0%,0%,0%)" x1="442.221004403" x2="435.654597218" y1="345.320990152" y2="341.782745067" /><line stroke="rgb(0%,0%,0%)" x1="459.558549241" x2="456.218241214" y1="361.743072141" y2="357.982362066" /><line stroke="rgb(0%,0%,0%)" x1="465.582856264" x2="459.558549241" y1="368.71082774" y2="361.743072141" /><line stroke="rgb(0%,0%,0%)" x1="447.339624282" x2="452.328136844" y1="348.607474109" y2="353.658006104" /><line stroke="rgb(0%,0%,0%)" x1="469.610272183" x2="466.327291523" y1="374.075544547" y2="370.801306117" /><line stroke="rgb(0%,0%,0%)" x1="466.327291523" x2="465.624704049" y1="370.801306117" y2="369.982119414" /><line stroke="rgb(0%,0%,0%)" x1="465.624704049" x2="465.202305092" y1="369.982119414" y2="369.6098377" /><line stroke="rgb(0%,0%,0%)" x1="465.582856264" x2="465.202305092" y1="368.71082774" y2="369.6098377" /><line stroke="rgb(0%,0%,0%)" x1="398.066471238" x2="400.292780585" y1="310.324770544" y2="311.693108242" /><line stroke="rgb(0%,0%,0%)" x1="398.066471238" x2="397.170745855" y1="310.324770544" y2="309.775489474" /><line stroke="rgb(0%,0%,0%)" x1="423.296899259" x2="416.601409116" y1="333.459145436" y2="326.545740097" /><line stroke="rgb(0%,0%,0%)" x1="430.940214686" x2="423.296899259" y1="338.729816167" y2="333.459145436" /><line stroke="rgb(0%,0%,0%)" x1="435.654597218" x2="430.940214686" y1="341.782745067" y2="338.729816167" /><line stroke="rgb(0%,0%,0%)" x1="456.218241214" x2="452.328136844" y1="357.982362066" y2="353.658006104" /><line stroke="rgb(0%,0%,0%)" x1="372.220712806" x2="371.796697137" y1="303.18940753" y2="303.151685061" /><line stroke="rgb(0%,0%,0%)" x1="372.220712806" x2="373.569179623" y1="303.18940753" y2="303.440994579" /><line stroke="rgb(0%,0%,0%)" x1="391.571189976" x2="383.053427841" y1="306.81348623" y2="304.951649458" /><line stroke="rgb(0%,0%,0%)" x1="397.170745855" x2="391.571189976" y1="309.775489474" y2="306.81348623" /><line stroke="rgb(0%,0%,0%)" x1="401.618347807" x2="400.292780585" y1="312.542925846" y2="311.693108242" /><line stroke="rgb(0%,0%,0%)" x1="402.518685432" x2="401.999076006" y1="313.149170138" y2="312.754556731" /><line stroke="rgb(0%,0%,0%)" x1="401.999076006" x2="401.618347807" y1="312.754556731" y2="312.542925846" /><line stroke="rgb(0%,0%,0%)" x1="416.601409116" x2="414.829829332" y1="326.545740097" y2="324.103163223" /><line stroke="rgb(0%,0%,0%)" x1="414.829829332" x2="402.518685432" y1="324.103163223" y2="313.149170138" /><line stroke="rgb(0%,0%,0%)" x1="334.968893849" x2="345.268427442" y1="296.689881658" y2="297.85802846" /><line stroke="rgb(0%,0%,0%)" x1="334.968893849" x2="326.157777304" y1="296.689881658" y2="294.664499249" /><line stroke="rgb(0%,0%,0%)" x1="357.763097813" x2="363.562317703" y1="299.444510091" y2="301.026128323" /><line stroke="rgb(0%,0%,0%)" x1="365.398166077" x2="363.562317703" y1="301.273768982" y2="301.026128323" /><line stroke="rgb(0%,0%,0%)" x1="353.085277092" x2="346.103849746" y1="299.007805215" y2="297.891691576" /><line stroke="rgb(0%,0%,0%)" x1="357.763097813" x2="355.184676834" y1="299.444510091" y2="299.503052227" /><line stroke="rgb(0%,0%,0%)" x1="355.184676834" x2="353.085277092" y1="299.503052227" y2="299.007805215" /><line stroke="rgb(0%,0%,0%)" x1="371.796697137" x2="370.944792242" y1="303.151685061" y2="302.921034504" /><line stroke="rgb(0%,0%,0%)" x1="378.311412324" x2="373.569179623" y1="303.78240919" y2="303.440994579" /><line stroke="rgb(0%,0%,0%)" x1="370.944792242" x2="365.398166077" y1="302.921034504" y2="301.273768982" /><line stroke="rgb(0%,0%,0%)" x1="381.0200233" x2="378.311412324" y1="304.38749355" y2="303.78240919" /><line stroke="rgb(0%,0%,0%)" x1="383.053427841" x2="381.701535399" y1="304.951649458" y2="304.56323082" /><line stroke="rgb(0%,0%,0%)" x1="381.701535399" x2="381.0200233" y1="304.56323082" y2="304.38749355" /><line stroke="rgb(0%,0%,0%)" x1="305.73240229" x2="310.926389548" y1="293.352800182" y2="293.77666255" /><line stroke="rgb(0%,0%,0%)" x1="346.103849746" x2="345.268427442" y1="297.891691576" y2="297.85802846" /><line stroke="rgb(0%,0%,0%)" x1="279.451791231" x2="295.064778163" y1="296.1866932" y2="293.057207273" /><line stroke="rgb(0%,0%,0%)" x1="301.050329675" x2="295.064778163" y1="294.025131543" y2="293.057207273" /><line stroke="rgb(0%,0%,0%)" x1="305.73240229" x2="301.050329675" y1="293.352800182" y2="294.025131543" /><line stroke="rgb(0%,0%,0%)" x1="315.613633646" x2="310.926389548" y1="293.784341615" y2="293.77666255" /><line stroke="rgb(0%,0%,0%)" x1="326.157777304" x2="323.939552464" y1="294.664499249" y2="294.495596958" /><line stroke="rgb(0%,0%,0%)" x1="315.613633646" x2="323.939552464" y1="293.784341615" y2="294.495596958" /><line stroke="rgb(0%,0%,0%)" x1="252.08912853" x2="251.942331945" y1="291.98506143" y2="291.958794058" /><line stroke="rgb(0%,0%,0%)" x1="252.50041041" x2="252.08912853" y1="291.997783074" y2="291.98506143" /><line stroke="rgb(0%,0%,0%)" x1="251.942331945" x2="241.713678844" y1="291.958794058" y2="291.008952474" /><line stroke="rgb(0%,0%,0%)" x1="261.765593593" x2="252.50041041" y1="293.032442642" y2="291.997783074" /><line stroke="rgb(0%,0%,0%)" x1="265.816633829" x2="276.339003898" y1="293.124127652" y2="295.694971776" /><line stroke="rgb(0%,0%,0%)" x1="265.816633829" x2="261.765593593" y1="293.124127652" y2="293.032442642" /><line stroke="rgb(0%,0%,0%)" x1="279.451791231" x2="278.328320938" y1="296.1866932" y2="295.894736584" /><line stroke="rgb(0%,0%,0%)" x1="278.328320938" x2="276.339003898" y1="295.894736584" y2="295.694971776" /><line stroke="rgb(0%,0%,0%)" x1="199.371397154" x2="196.609825989" y1="292.937560092" y2="293.499927731" /><line stroke="rgb(0%,0%,0%)" x1="199.371397154" x2="206.066176169" y1="292.937560092" y2="291.679178917" /><line stroke="rgb(0%,0%,0%)" x1="215.167736586" x2="220.201670147" y1="290.438260662" y2="290.034154164" /><line stroke="rgb(0%,0%,0%)" x1="241.713678844" x2="233.452480417" y1="291.008952474" y2="289.867750001" /><line stroke="rgb(0%,0%,0%)" x1="233.452480417" x2="228.88490983" y1="289.867750001" y2="289.944807815" /><line stroke="rgb(0%,0%,0%)" x1="228.88490983" x2="225.577967216" y1="289.944807815" y2="289.730663266" /><line stroke="rgb(0%,0%,0%)" x1="196.609825989" x2="180.566751675" y1="293.499927731" y2="298.451110861" /><line stroke="rgb(0%,0%,0%)" x1="180.566751675" x2="178.829940946" y1="298.451110861" y2="299.035864589" /><line stroke="rgb(0%,0%,0%)" x1="211.790525994" x2="206.066176169" y1="290.944566925" y2="291.679178917" /><line stroke="rgb(0%,0%,0%)" x1="223.948523588" x2="220.201670147" y1="290.027087863" y2="290.034154164" /><line stroke="rgb(0%,0%,0%)" x1="225.577967216" x2="223.948523588" y1="289.730663266" y2="290.027087863" /><line stroke="rgb(0%,0%,0%)" x1="133.238312089" x2="135.237202724" y1="321.265888868" y2="320.138381914" /><line stroke="rgb(0%,0%,0%)" x1="138.19931096" x2="135.237202724" y1="318.587897044" y2="320.138381914" /><line stroke="rgb(0%,0%,0%)" x1="138.19931096" x2="146.922797617" y1="318.587897044" y2="313.58934669" /><line stroke="rgb(0%,0%,0%)" x1="176.551188737" x2="166.908996453" y1="299.843166" y2="304.046832008" /><line stroke="rgb(0%,0%,0%)" x1="177.609708193" x2="176.551188737" y1="299.358449281" y2="299.843166" /><line stroke="rgb(0%,0%,0%)" x1="178.829940946" x2="177.609708193" y1="299.035864589" y2="299.358449281" /><line stroke="rgb(0%,0%,0%)" x1="214.092127825" x2="211.790525994" y1="290.941301351" y2="290.944566925" /><line stroke="rgb(0%,0%,0%)" x1="215.167736586" x2="214.092127825" y1="290.438260662" y2="290.941301351" /><line stroke="rgb(0%,0%,0%)" x1="98.7175031222" x2="97.6508796683" y1="341.679586036" y2="342.331498469" /><line stroke="rgb(0%,0%,0%)" x1="97.6508796683" x2="95.0427567751" y1="342.331498469" y2="344.755171998" /><line stroke="rgb(0%,0%,0%)" x1="98.7175031222" x2="99.9949204349" y1="341.679586036" y2="340.244607323" /><line stroke="rgb(0%,0%,0%)" x1="105.543593693" x2="108.438693437" y1="334.506947417" y2="332.804295367" /><line stroke="rgb(0%,0%,0%)" x1="133.238312089" x2="126.866664447" y1="321.265888868" y2="323.909544937" /><line stroke="rgb(0%,0%,0%)" x1="146.922797617" x2="164.291644637" y1="313.58934669" y2="305.377251776" /><line stroke="rgb(0%,0%,0%)" x1="166.258442877" x2="164.291644637" y1="304.357104908" y2="305.377251776" /><line stroke="rgb(0%,0%,0%)" x1="166.908996453" x2="166.258442877" y1="304.046832008" y2="304.357104908" /><line stroke="rgb(0%,0%,0%)" x1="70.2148988309" x2="70.2063390885" y1="395.021880948" y2="394.327597834" /><line stroke="rgb(0%,0%,0%)" x1="80.3529172138" x2="77.6234820512" y1="356.381329868" y2="359.943514238" /><line stroke="rgb(0%,0%,0%)" x1="94.4733219216" x2="95.0427567751" y1="345.130493114" y2="344.755171998" /><line stroke="rgb(0%,0%,0%)" x1="94.4733219216" x2="86.5549607463" y1="345.130493114" y2="351.006879047" /><line stroke="rgb(0%,0%,0%)" x1="105.543593693" x2="99.9949204349" y1="334.506947417" y2="340.244607323" /><line stroke="rgb(0%,0%,0%)" x1="113.635199185" x2="108.438693437" y1="328.872613898" y2="332.804295367" /><line stroke="rgb(0%,0%,0%)" x1="126.866664447" x2="117.256833056" y1="323.909544937" y2="326.949243688" /><line stroke="rgb(0%,0%,0%)" x1="117.256833056" x2="113.635199185" y1="326.949243688" y2="328.872613898" /><line stroke="rgb(0%,0%,0%)" x1="51.8957265563" x2="52.4492526315" y1="415.798760219" y2="415.255548128" /><line stroke="rgb(0%,0%,0%)" x1="69.4855714055" x2="67.3418950128" y1="395.417206055" y2="397.388922922" /><line stroke="rgb(0%,0%,0%)" x1="67.3418950128" x2="64.4874922697" y1="397.388922922" y2="401.393897682" /><line stroke="rgb(0%,0%,0%)" x1="70.2148988309" x2="69.4855714055" y1="395.021880948" y2="395.417206055" /><line stroke="rgb(0%,0%,0%)" x1="69.428836825" x2="70.1779884382" y1="388.851929409" y2="390.373224503" /><line stroke="rgb(0%,0%,0%)" x1="70.2063390885" x2="70.6838600465" y1="394.327597834" y2="392.720695756" /><line stroke="rgb(0%,0%,0%)" x1="70.6838600465" x2="70.1779884382" y1="392.720695756" y2="390.373224503" /><line stroke="rgb(0%,0%,0%)" x1="70.3995107977" x2="69.428836825" y1="387.638876166" y2="388.851929409" /><line stroke="rgb(0%,0%,0%)" x1="72.2061474871" x2="70.3995107977" y1="383.749092973" y2="387.638876166" /><line stroke="rgb(0%,0%,0%)" x1="72.2061474871" x2="76.263832681" y1="383.749092973" y2="380.582189086" /><line stroke="rgb(0%,0%,0%)" x1="77.2266170372" x2="79.4567966394" y1="373.865779209" y2="377.075611731" /><line stroke="rgb(0%,0%,0%)" x1="75.0958924793" x2="77.2266170372" y1="367.801358464" y2="373.865779209" /><line stroke="rgb(0%,0%,0%)" x1="77.4672961236" x2="74.8256115234" y1="361.988453329" y2="367.040881092" /><line stroke="rgb(0%,0%,0%)" x1="74.8256115234" x2="75.0958924793" y1="367.040881092" y2="367.801358464" /><line stroke="rgb(0%,0%,0%)" x1="80.4177977045" x2="76.263832681" y1="378.006542171" y2="380.582189086" /><line stroke="rgb(0%,0%,0%)" x1="77.4672961236" x2="77.6234820512" y1="361.988453329" y2="359.943514238" /><line stroke="rgb(0%,0%,0%)" x1="86.5549607463" x2="80.3529172138" y1="351.006879047" y2="356.381329868" /><line stroke="rgb(0%,0%,0%)" x1="44.8839792477" x2="44.6706063385" y1="456.722711871" y2="461.390143617" /><line stroke="rgb(0%,0%,0%)" x1="43.0401254056" x2="44.8839792477" y1="449.378067218" y2="456.722711871" /><line stroke="rgb(0%,0%,0%)" x1="36.7822228233" x2="35.4151023207" y1="442.335048153" y2="449.731502163" /><line stroke="rgb(0%,0%,0%)" x1="30.129657259" x2="32.4990637809" y1="457.748969958" y2="456.505932389" /><line stroke="rgb(0%,0%,0%)" x1="43.0401254056" x2="43.7864140603" y1="449.378067218" y2="443.73941586" /><line stroke="rgb(0%,0%,0%)" x1="34.7016165763" x2="35.4151023207" y1="453.207130112" y2="449.731502163" /><line stroke="rgb(0%,0%,0%)" x1="36.3335433467" x2="38.2675375426" y1="431.480221286" y2="436.138107263" /><line stroke="rgb(0%,0%,0%)" x1="36.7822228233" x2="34.1120299212" y1="442.335048153" y2="437.729476487" /><line stroke="rgb(0%,0%,0%)" x1="38.2675375426" x2="39.1259989142" y1="436.138107263" y2="432.211849293" /><line stroke="rgb(0%,0%,0%)" x1="40.1339476642" x2="41.6400785746" y1="428.772276356" y2="426.557524735" /><line stroke="rgb(0%,0%,0%)" x1="36.9721044556" x2="36.3335433467" y1="424.595197759" y2="431.480221286" /><line stroke="rgb(0%,0%,0%)" x1="41.6400785746" x2="45.2070477713" y1="426.557524735" y2="423.034611952" /><line stroke="rgb(0%,0%,0%)" x1="45.2070477713" x2="46.9901882283" y1="423.034611952" y2="417.315285778" /><line stroke="rgb(0%,0%,0%)" x1="46.9901882283" x2="40.8430653296" y1="417.315285778" y2="419.460795688" /><line stroke="rgb(0%,0%,0%)" x1="40.8430653296" x2="36.9721044556" y1="419.460795688" y2="424.595197759" /><line stroke="rgb(0%,0%,0%)" x1="44.9401012352" x2="43.7864140603" y1="439.584737666" y2="443.73941586" /><line stroke="rgb(0%,0%,0%)" x1="44.9401012352" x2="45.2993535257" y1="439.584737666" y2="433.776825571" /><line stroke="rgb(0%,0%,0%)" x1="39.1259989142" x2="40.1339476642" y1="432.211849293" y2="428.772276356" /><line stroke="rgb(0%,0%,0%)" x1="46.905229808" x2="45.2993535257" y1="430.843692765" y2="433.776825571" /><line stroke="rgb(0%,0%,0%)" x1="47.2258061469" x2="46.905229808" y1="428.404800601" y2="430.843692765" /><line stroke="rgb(0%,0%,0%)" x1="51.7324987654" x2="51.2867090183" y1="416.132001293" y2="417.07260081" /><line stroke="rgb(0%,0%,0%)" x1="51.2867090183" x2="47.2258061469" y1="417.07260081" y2="428.404800601" /><line stroke="rgb(0%,0%,0%)" x1="51.8957265563" x2="51.7324987654" y1="415.798760219" y2="416.132001293" /><line stroke="rgb(0%,0%,0%)" x1="47.1852606957" x2="52.0993880048" y1="409.312730642" y2="410.461455142" /><line stroke="rgb(0%,0%,0%)" x1="48.1029033629" x2="47.1852606957" y1="407.904497395" y2="409.312730642" /><line stroke="rgb(0%,0%,0%)" x1="48.1029033629" x2="48.5439798923" y1="407.904497395" y2="402.872293937" /><line stroke="rgb(0%,0%,0%)" x1="48.7848670065" x2="48.5439798923" y1="402.427024864" y2="402.872293937" /><line stroke="rgb(0%,0%,0%)" x1="49.1076233408" x2="48.7848670065" y1="402.178713614" y2="402.427024864" /><line stroke="rgb(0%,0%,0%)" x1="61.3760580874" x2="52.4492526315" y1="408.951628253" y2="415.255548128" /><line stroke="rgb(0%,0%,0%)" x1="62.3533408796" x2="61.3760580874" y1="406.414511239" y2="408.951628253" /><line stroke="rgb(0%,0%,0%)" x1="63.8083901708" x2="62.3533408796" y1="404.006995667" y2="406.414511239" /><line stroke="rgb(0%,0%,0%)" x1="52.0993880048" x2="55.1948718773" y1="410.461455142" y2="405.03356321" /><line stroke="rgb(0%,0%,0%)" x1="55.1948718773" x2="50.8109055195" y1="405.03356321" y2="402.505912874" /><line stroke="rgb(0%,0%,0%)" x1="50.8109055195" x2="50.0635053344" y1="402.505912874" y2="401.731263413" /><line stroke="rgb(0%,0%,0%)" x1="50.0635053344" x2="49.1076233408" y1="401.731263413" y2="402.178713614" /><line stroke="rgb(0%,0%,0%)" x1="64.4874922697" x2="63.8083901708" y1="401.393897682" y2="404.006995667" /><line stroke="rgb(0%,0%,0%)" x1="79.4756260941" x2="80.4177977045" y1="377.397953998" y2="378.006542171" /><line stroke="rgb(0%,0%,0%)" x1="79.4567966394" x2="79.4756260941" y1="377.075611731" y2="377.397953998" /><line stroke="rgb(0%,0%,0%)" x1="23.6930794641" x2="30.129657259" y1="455.264472942" y2="457.748969958" /><line stroke="rgb(0%,0%,0%)" x1="23.6930794641" x2="23.3170836829" y1="455.264472942" y2="452.761893459" /><line stroke="rgb(0%,0%,0%)" x1="22.6538566523" x2="23.3170836829" y1="448.476422793" y2="452.761893459" /><line stroke="rgb(0%,0%,0%)" x1="23.9496878929" x2="22.6538566523" y1="444.713167682" y2="448.476422793" /><line stroke="rgb(0%,0%,0%)" x1="31.8994437435" x2="26.9971318056" y1="438.598954806" y2="441.027019902" /><line stroke="rgb(0%,0%,0%)" x1="26.9971318056" x2="23.9496878929" y1="441.027019902" y2="444.713167682" /><line stroke="rgb(0%,0%,0%)" x1="32.4990637809" x2="34.4611005081" y1="456.505932389" y2="454.859510065" /><line stroke="rgb(0%,0%,0%)" x1="34.4611005081" x2="34.3215244228" y1="454.859510065" y2="454.563135498" /><line stroke="rgb(0%,0%,0%)" x1="34.3215244228" x2="34.5567509659" y1="454.563135498" y2="454.050653955" /><line stroke="rgb(0%,0%,0%)" x1="34.5567509659" x2="34.7016165763" y1="454.050653955" y2="453.207130112" /><line stroke="rgb(0%,0%,0%)" x1="34.1120299212" x2="31.8994437435" y1="437.729476487" y2="438.598954806" /><line stroke="rgb(0%,0%,0%)" x1="547.665449428" x2="547.844567644" y1="501.572914022" y2="501.605822549" /><line stroke="rgb(0%,0%,0%)" x1="547.856931894" x2="547.844567644" y1="501.468369651" y2="501.605822549" /><line stroke="rgb(0%,0%,0%)" x1="547.831621477" x2="547.856931894" y1="501.446894926" y2="501.468369651" /><line stroke="rgb(0%,0%,0%)" x1="547.665449428" x2="547.543332941" y1="501.572914022" y2="500.95330981" /><line stroke="rgb(0%,0%,0%)" x1="547.831621477" x2="547.900550331" y1="501.446894926" y2="501.36130134" /><line stroke="rgb(0%,0%,0%)" x1="547.900550331" x2="551.825465548" y1="501.36130134" y2="493.1204941" /><line stroke="rgb(0%,0%,0%)" x1="546.039693973" x2="547.543332941" y1="492.736912784" y2="500.95330981" /><line stroke="rgb(0%,0%,0%)" x1="551.825465548" x2="552.682729662" y1="493.1204941" y2="488.122575736" /><line stroke="rgb(0%,0%,0%)" x1="546.039693973" x2="550.451002821" y1="492.736912784" y2="482.313473814" /><line stroke="rgb(0%,0%,0%)" x1="552.682729662" x2="550.451002821" y1="488.122575736" y2="482.313473814" /><line stroke="rgb(0%,0%,0%)" x1="502.392610219" x2="503.409354068" y1="414.735007494" y2="417.313555157" /><line stroke="rgb(0%,0%,0%)" x1="502.392610219" x2="500.56501406" y1="414.735007494" y2="410.764954081" /><line stroke="rgb(0%,0%,0%)" x1="507.730535226" x2="508.094674411" y1="444.400296653" y2="443.423517904" /><line stroke="rgb(0%,0%,0%)" x1="508.094674411" x2="509.636935798" y1="443.423517904" y2="433.995551076" /><line stroke="rgb(0%,0%,0%)" x1="509.636935798" x2="509.64773912" y1="433.995551076" y2="433.911184731" /><line stroke="rgb(0%,0%,0%)" x1="509.64773912" x2="509.650929874" y1="433.911184731" y2="433.888282147" /><line stroke="rgb(0%,0%,0%)" x1="509.650929874" x2="509.652144635" y1="433.888282147" y2="433.866914331" /><line stroke="rgb(0%,0%,0%)" x1="508.520889903" x2="509.652144635" y1="429.077742459" y2="433.866914331" /><line stroke="rgb(0%,0%,0%)" x1="503.409354068" x2="504.26601977" y1="417.313555157" y2="418.706562369" /><line stroke="rgb(0%,0%,0%)" x1="508.520889903" x2="504.26601977" y1="429.077742459" y2="418.706562369" /><line stroke="rgb(0%,0%,0%)" x1="473.005222608" x2="470.929572064" y1="376.132405166" y2="374.996198236" /><line stroke="rgb(0%,0%,0%)" x1="469.610272183" x2="470.929572064" y1="374.075544547" y2="374.996198236" /><line stroke="rgb(0%,0%,0%)" x1="487.553956738" x2="489.818932134" y1="391.75163427" y2="395.217698131" /><line stroke="rgb(0%,0%,0%)" x1="484.866123243" x2="487.553956738" y1="387.889895769" y2="391.75163427" /><line stroke="rgb(0%,0%,0%)" x1="477.306111241" x2="473.005222608" y1="380.216244095" y2="376.132405166" /><line stroke="rgb(0%,0%,0%)" x1="484.866123243" x2="477.306111241" y1="387.889895769" y2="380.216244095" /><line stroke="rgb(0%,0%,0%)" x1="500.56501406" x2="498.648485213" y1="410.764954081" y2="407.819904361" /><line stroke="rgb(0%,0%,0%)" x1="498.648485213" x2="490.603433562" y1="407.819904361" y2="396.139217259" /><line stroke="rgb(0%,0%,0%)" x1="490.603433562" x2="489.818932134" y1="396.139217259" y2="395.217698131" /><line stroke="rgb(0%,0%,0%)" x1="426.852310037" x2="433.106347079" y1="580.423687109" y2="576.178571205" /><line stroke="rgb(0%,0%,0%)" x1="433.106347079" x2="437.418187366" y1="576.178571205" y2="572.825239685" /><line stroke="rgb(0%,0%,0%)" x1="445.116293058" x2="440.121395086" y1="567.055606902" y2="570.603731721" /><line stroke="rgb(0%,0%,0%)" x1="445.116293058" x2="448.750332712" y1="567.055606902" y2="563.359193224" /><line stroke="rgb(0%,0%,0%)" x1="448.750332712" x2="452.135147329" y1="563.359193224" y2="560.662495156" /><line stroke="rgb(0%,0%,0%)" x1="457.914856131" x2="460.370176033" y1="555.688885407" y2="553.644892278" /><line stroke="rgb(0%,0%,0%)" x1="460.370176033" x2="462.575707785" y1="553.644892278" y2="551.38944536" /><line stroke="rgb(0%,0%,0%)" x1="407.363963046" x2="404.367930758" y1="599.28303763" y2="601.99418217" /><line stroke="rgb(0%,0%,0%)" x1="412.66561207" x2="407.363963046" y1="593.801719024" y2="599.28303763" /><line stroke="rgb(0%,0%,0%)" x1="412.66561207" x2="417.124832328" y1="593.801719024" y2="590.043258467" /><line stroke="rgb(0%,0%,0%)" x1="420.703096907" x2="417.124832328" y1="585.585289918" y2="590.043258467" /><line stroke="rgb(0%,0%,0%)" x1="420.703096907" x2="425.920920621" y1="585.585289918" y2="581.499789322" /><line stroke="rgb(0%,0%,0%)" x1="425.920920621" x2="426.852310037" y1="581.499789322" y2="580.423687109" /><line stroke="rgb(0%,0%,0%)" x1="437.418187366" x2="439.22265354" y1="572.825239685" y2="571.502185597" /><line stroke="rgb(0%,0%,0%)" x1="439.22265354" x2="440.121395086" y1="571.502185597" y2="570.603731721" /><line stroke="rgb(0%,0%,0%)" x1="393.934307801" x2="395.503262061" y1="608.889974347" y2="608.106099529" /><line stroke="rgb(0%,0%,0%)" x1="399.322807015" x2="404.367930758" y1="605.338483105" y2="601.99418217" /><line stroke="rgb(0%,0%,0%)" x1="397.285152132" x2="395.503262061" y1="606.554729281" y2="608.106099529" /><line stroke="rgb(0%,0%,0%)" x1="399.322807015" x2="397.285152132" y1="605.338483105" y2="606.554729281" /><line stroke="rgb(0%,0%,0%)" x1="325.218340746" x2="329.595788138" y1="622.448899484" y2="621.971439612" /><line stroke="rgb(0%,0%,0%)" x1="332.487135849" x2="329.595788138" y1="621.458673861" y2="621.971439612" /><line stroke="rgb(0%,0%,0%)" x1="321.80790133" x2="325.218340746" y1="622.785108441" y2="622.448899484" /><line stroke="rgb(0%,0%,0%)" x1="321.80790133" x2="317.155193932" y1="622.785108441" y2="622.843967524" /><line stroke="rgb(0%,0%,0%)" x1="345.939894657" x2="347.128019455" y1="620.554620247" y2="620.394404205" /><line stroke="rgb(0%,0%,0%)" x1="332.487135849" x2="336.158720504" y1="621.458673861" y2="621.344996303" /><line stroke="rgb(0%,0%,0%)" x1="279.809596503" x2="286.632283096" y1="621.69503524" y2="622.71476744" /><line stroke="rgb(0%,0%,0%)" x1="306.917641126" x2="317.155193932" y1="624.123780221" y2="622.843967524" /><line stroke="rgb(0%,0%,0%)" x1="286.632283096" x2="295.07024019" y1="622.71476744" y2="624.251338398" /><line stroke="rgb(0%,0%,0%)" x1="279.809596503" x2="275.022710198" y1="621.69503524" y2="623.048804623" /><line stroke="rgb(0%,0%,0%)" x1="268.944960563" x2="275.022710198" y1="625.080223258" y2="623.048804623" /><line stroke="rgb(0%,0%,0%)" x1="295.07024019" x2="306.917641126" y1="624.251338398" y2="624.123780221" /><line stroke="rgb(0%,0%,0%)" x1="205.219246215" x2="205.864162958" y1="620.86275581" y2="621.196333727" /><line stroke="rgb(0%,0%,0%)" x1="205.219246215" x2="203.7793233" y1="620.86275581" y2="620.503081319" /><line stroke="rgb(0%,0%,0%)" x1="220.707771593" x2="217.7247214" y1="625.971073871" y2="624.922656544" /><line stroke="rgb(0%,0%,0%)" x1="209.622511246" x2="212.404630984" y1="622.54951199" y2="623.374990293" /><line stroke="rgb(0%,0%,0%)" x1="205.864162958" x2="209.622511246" y1="621.196333727" y2="622.54951199" /><line stroke="rgb(0%,0%,0%)" x1="232.313411956" x2="228.007042414" y1="628.45187973" y2="628.836962385" /><line stroke="rgb(0%,0%,0%)" x1="232.313411956" x2="236.428285138" y1="628.45187973" y2="629.545234378" /><line stroke="rgb(0%,0%,0%)" x1="220.707771593" x2="225.348246984" y1="625.971073871" y2="628.01269962" /><line stroke="rgb(0%,0%,0%)" x1="251.647079601" x2="239.643044118" y1="627.101115364" y2="629.37154103" /><line stroke="rgb(0%,0%,0%)" x1="237.351787758" x2="239.643044118" y1="629.56409199" y2="629.37154103" /><line stroke="rgb(0%,0%,0%)" x1="236.428285138" x2="237.351787758" y1="629.545234378" y2="629.56409199" /><line stroke="rgb(0%,0%,0%)" x1="258.288637983" x2="268.944960563" y1="626.712229448" y2="625.080223258" /><line stroke="rgb(0%,0%,0%)" x1="258.288637983" x2="251.647079601" y1="626.712229448" y2="627.101115364" /><line stroke="rgb(0%,0%,0%)" x1="190.311756425" x2="183.996940424" y1="613.882846635" y2="611.605645299" /><line stroke="rgb(0%,0%,0%)" x1="190.311756425" x2="203.7793233" y1="613.882846635" y2="620.503081319" /><line stroke="rgb(0%,0%,0%)" x1="212.404630984" x2="217.7247214" y1="623.374990293" y2="624.922656544" /><line stroke="rgb(0%,0%,0%)" x1="225.348246984" x2="226.401617947" y1="628.01269962" y2="628.452049307" /><line stroke="rgb(0%,0%,0%)" x1="151.123835778" x2="156.080803228" y1="598.905423698" y2="601.295681317" /><line stroke="rgb(0%,0%,0%)" x1="138.216824006" x2="151.123835778" y1="595.049473812" y2="598.905423698" /><line stroke="rgb(0%,0%,0%)" x1="159.978633036" x2="168.550424998" y1="603.864420166" y2="607.787193594" /><line stroke="rgb(0%,0%,0%)" x1="156.080803228" x2="159.978633036" y1="601.295681317" y2="603.864420166" /><line stroke="rgb(0%,0%,0%)" x1="173.117945736" x2="177.702233036" y1="608.150230476" y2="609.628032021" /><line stroke="rgb(0%,0%,0%)" x1="168.550424998" x2="173.117945736" y1="607.787193594" y2="608.150230476" /><line stroke="rgb(0%,0%,0%)" x1="177.702233036" x2="183.996940424" y1="609.628032021" y2="611.605645299" /><line stroke="rgb(0%,0%,0%)" x1="226.962117" x2="228.007042414" y1="628.636659142" y2="628.836962385" /><line stroke="rgb(0%,0%,0%)" x1="226.401617947" x2="226.962117" y1="628.452049307" y2="628.636659142" /><line stroke="rgb(0%,0%,0%)" x1="96.2031017149" x2="93.1520743009" y1="576.126876493" y2="573.787615428" /><line stroke="rgb(0%,0%,0%)" x1="80.7713955392" x2="81.4109504733" y1="564.024535537" y2="564.617439398" /><line stroke="rgb(0%,0%,0%)" x1="112.439931088" x2="110.659779119" y1="588.158782028" y2="587.179967208" /><line stroke="rgb(0%,0%,0%)" x1="112.439931088" x2="116.65585255" y1="588.158782028" y2="589.27670622" /><line stroke="rgb(0%,0%,0%)" x1="138.216824006" x2="131.284092006" y1="595.049473812" y2="593.343579263" /><line stroke="rgb(0%,0%,0%)" x1="70.4559166594" x2="68.8067387468" y1="518.608068678" y2="518.109318635" /><line stroke="rgb(0%,0%,0%)" x1="80.7713955392" x2="80.1660764819" y1="564.024535537" y2="563.120361016" /><line stroke="rgb(0%,0%,0%)" x1="78.4691232591" x2="75.7219510843" y1="544.809420211" y2="549.686581437" /><line stroke="rgb(0%,0%,0%)" x1="76.236441783" x2="77.1059636956" y1="555.431349545" y2="558.480958485" /><line stroke="rgb(0%,0%,0%)" x1="76.236441783" x2="75.7219510843" y1="555.431349545" y2="549.686581437" /><line stroke="rgb(0%,0%,0%)" x1="78.4691232591" x2="79.050725417" y1="544.809420211" y2="543.958413191" /><line stroke="rgb(0%,0%,0%)" x1="80.3194770015" x2="79.050725417" y1="541.748480359" y2="543.958413191" /><line stroke="rgb(0%,0%,0%)" x1="79.9174841281" x2="80.3194770015" y1="540.97271764" y2="541.748480359" /><line stroke="rgb(0%,0%,0%)" x1="76.3385866411" x2="79.9174841281" y1="538.895225408" y2="540.97271764" /><line stroke="rgb(0%,0%,0%)" x1="76.3385866411" x2="73.9743961381" y1="538.895225408" y2="535.698874187" /><line stroke="rgb(0%,0%,0%)" x1="77.5144965023" x2="75.8172222046" y1="523.737057262" y2="521.531258412" /><line stroke="rgb(0%,0%,0%)" x1="70.4559166594" x2="74.4750934989" y1="518.608068678" y2="520.235318461" /><line stroke="rgb(0%,0%,0%)" x1="81.4109504733" x2="93.1520743009" y1="564.617439398" y2="573.787615428" /><line stroke="rgb(0%,0%,0%)" x1="101.851292137" x2="110.659779119" y1="581.405898712" y2="587.179967208" /><line stroke="rgb(0%,0%,0%)" x1="100.238023188" x2="101.851292137" y1="579.208508475" y2="581.405898712" /><line stroke="rgb(0%,0%,0%)" x1="96.2031017149" x2="100.238023188" y1="576.126876493" y2="579.208508475" /><line stroke="rgb(0%,0%,0%)" x1="127.02988411" x2="128.709196398" y1="592.698902902" y2="593.420783329" /><line stroke="rgb(0%,0%,0%)" x1="116.65585255" x2="127.02988411" y1="589.27670622" y2="592.698902902" /><line stroke="rgb(0%,0%,0%)" x1="128.709196398" x2="131.284092006" y1="593.420783329" y2="593.343579263" /><line stroke="rgb(0%,0%,0%)" x1="43.7771538374" x2="36.9129108588" y1="490.030560298" y2="485.725130527" /><line stroke="rgb(0%,0%,0%)" x1="44.8316028707" x2="43.7771538374" y1="492.92602859" y2="490.030560298" /><line stroke="rgb(0%,0%,0%)" x1="47.228928867" x2="50.0802934814" y1="482.936131378" y2="487.286418083" /><line stroke="rgb(0%,0%,0%)" x1="46.2288856583" x2="47.228928867" y1="478.137553254" y2="482.936131378" /><line stroke="rgb(0%,0%,0%)" x1="44.3915521448" x2="46.2288856583" y1="472.919404" y2="478.137553254" /><line stroke="rgb(0%,0%,0%)" x1="43.9591040705" x2="44.3915521448" y1="470.568454675" y2="472.919404" /><line stroke="rgb(0%,0%,0%)" x1="44.6706063385" x2="43.9591040705" y1="461.390143617" y2="470.568454675" /><line stroke="rgb(0%,0%,0%)" x1="48.6188199906" x2="51.1799659565" y1="515.74378964" y2="516.294964927" /><line stroke="rgb(0%,0%,0%)" x1="46.5522243678" x2="48.6188199906" y1="513.521362792" y2="515.74378964" /><line stroke="rgb(0%,0%,0%)" x1="51.1799659565" x2="48.7345347141" y1="516.294964927" y2="513.962325713" /><line stroke="rgb(0%,0%,0%)" x1="48.7345347141" x2="47.6318759427" y1="513.962325713" y2="513.134501405" /><line stroke="rgb(0%,0%,0%)" x1="62.1276678855" x2="60.9643658039" y1="510.473130372" y2="510.719428442" /><line stroke="rgb(0%,0%,0%)" x1="62.1276678855" x2="62.4099517748" y1="510.473130372" y2="511.265853894" /><line stroke="rgb(0%,0%,0%)" x1="46.211239764" x2="46.5522243678" y1="512.574797471" y2="513.521362792" /><line stroke="rgb(0%,0%,0%)" x1="60.2258255409" x2="60.9643658039" y1="508.265315642" y2="510.719428442" /><line stroke="rgb(0%,0%,0%)" x1="47.6318759427" x2="47.0281890594" y1="513.134501405" y2="512.582711027" /><line stroke="rgb(0%,0%,0%)" x1="47.0281890594" x2="46.211239764" y1="512.582711027" y2="512.574797471" /><line stroke="rgb(0%,0%,0%)" x1="53.2058116542" x2="55.86021948" y1="501.810486226" y2="506.118779888" /><line stroke="rgb(0%,0%,0%)" x1="55.86021948" x2="60.2258255409" y1="506.118779888" y2="508.265315642" /><line stroke="rgb(0%,0%,0%)" x1="53.2058116542" x2="51.795970422" y1="501.810486226" y2="498.5335171" /><line stroke="rgb(0%,0%,0%)" x1="51.0852750657" x2="51.795970422" y1="495.240094161" y2="498.5335171" /><line stroke="rgb(0%,0%,0%)" x1="51.0852750657" x2="50.0790047947" y1="495.240094161" y2="492.317718623" /><line stroke="rgb(0%,0%,0%)" x1="50.0802934814" x2="50.0790047947" y1="487.286418083" y2="492.317718623" /><line stroke="rgb(0%,0%,0%)" x1="71.4589598165" x2="73.9743961381" y1="533.917414989" y2="535.698874187" /><line stroke="rgb(0%,0%,0%)" x1="64.0191614174" x2="71.4589598165" y1="528.765247936" y2="533.917414989" /><line stroke="rgb(0%,0%,0%)" x1="64.0191614174" x2="64.4278460762" y1="528.765247936" y2="528.197642384" /><line stroke="rgb(0%,0%,0%)" x1="65.7469643242" x2="64.4278460762" y1="526.452457293" y2="528.197642384" /><line stroke="rgb(0%,0%,0%)" x1="70.579690512" x2="68.9719518545" y1="526.637058228" y2="528.139736593" /><line stroke="rgb(0%,0%,0%)" x1="68.9719518545" x2="65.7469643242" y1="528.139736593" y2="526.452457293" /><line stroke="rgb(0%,0%,0%)" x1="72.4969765153" x2="70.579690512" y1="526.750039892" y2="526.637058228" /><line stroke="rgb(0%,0%,0%)" x1="66.0484468492" x2="63.4792724672" y1="512.681107294" y2="511.302625051" /><line stroke="rgb(0%,0%,0%)" x1="66.0484468492" x2="68.8067387468" y1="512.681107294" y2="518.109318635" /><line stroke="rgb(0%,0%,0%)" x1="74.4750934989" x2="75.8172222046" y1="520.235318461" y2="521.531258412" /><line stroke="rgb(0%,0%,0%)" x1="62.4099517748" x2="63.4792724672" y1="511.265853894" y2="511.302625051" /><line stroke="rgb(0%,0%,0%)" x1="77.1059636956" x2="80.1660764819" y1="558.480958485" y2="563.120361016" /><line stroke="rgb(0%,0%,0%)" x1="72.4969765153" x2="77.2639358779" y1="526.750039892" y2="524.234811776" /><line stroke="rgb(0%,0%,0%)" x1="77.5144965023" x2="77.2639358779" y1="523.737057262" y2="524.234811776" /><line stroke="rgb(0%,0%,0%)" x1="30.3454565892" x2="31.1631991122" y1="497.241491863" y2="498.999332854" /><line stroke="rgb(0%,0%,0%)" x1="31.6584549841" x2="38.3153539449" y1="498.816369071" y2="503.413177717" /><line stroke="rgb(0%,0%,0%)" x1="31.1631991122" x2="31.6584549841" y1="498.999332854" y2="498.816369071" /><line stroke="rgb(0%,0%,0%)" x1="30.5620184364" x2="30.3454565892" y1="496.460989715" y2="497.241491863" /><line stroke="rgb(0%,0%,0%)" x1="30.4765309656" x2="30.5620184364" y1="494.943901549" y2="496.460989715" /><line stroke="rgb(0%,0%,0%)" x1="23.6721129138" x2="23.9273092783" y1="481.146344772" y2="481.379933655" /><line stroke="rgb(0%,0%,0%)" x1="23.5755722629" x2="23.6721129138" y1="481.104595163" y2="481.146344772" /><line stroke="rgb(0%,0%,0%)" x1="29.8046431297" x2="23.9273092783" y1="483.196203305" y2="481.379933655" /><line stroke="rgb(0%,0%,0%)" x1="23.4250897527" x2="23.5755722629" y1="480.872716535" y2="481.104595163" /><line stroke="rgb(0%,0%,0%)" x1="29.8046431297" x2="35.8110088431" y1="483.196203305" y2="486.385016639" /><line stroke="rgb(0%,0%,0%)" x1="22.9925418362" x2="23.4099757934" y1="472.850648424" y2="480.23383694" /><line stroke="rgb(0%,0%,0%)" x1="23.4099757934" x2="23.4250897527" y1="480.23383694" y2="480.872716535" /><line stroke="rgb(0%,0%,0%)" x1="31.9611840309" x2="29.9687636199" y1="470.696629518" y2="469.695556925" /><line stroke="rgb(0%,0%,0%)" x1="29.9687636199" x2="25.5096436019" y1="469.695556925" y2="472.141811411" /><line stroke="rgb(0%,0%,0%)" x1="25.5096436019" x2="22.9925418362" y1="472.141811411" y2="472.850648424" /><line stroke="rgb(0%,0%,0%)" x1="38.3153539449" x2="38.5163538348" y1="503.413177717" y2="503.495475927" /><line stroke="rgb(0%,0%,0%)" x1="38.5163538348" x2="38.6272448814" y1="503.495475927" y2="503.399436284" /><line stroke="rgb(0%,0%,0%)" x1="44.764474588" x2="38.6272448814" y1="497.040468433" y2="503.399436284" /><line stroke="rgb(0%,0%,0%)" x1="30.4765309656" x2="35.8110088431" y1="494.943901549" y2="486.385016639" /><line stroke="rgb(0%,0%,0%)" x1="35.9223023575" x2="36.9129108588" y1="478.931009295" y2="485.725130527" /><line stroke="rgb(0%,0%,0%)" x1="35.9223023575" x2="36.738871052" y1="478.931009295" y2="475.406008508" /><line stroke="rgb(0%,0%,0%)" x1="36.738871052" x2="31.9611840309" y1="475.406008508" y2="470.696629518" /><line stroke="rgb(0%,0%,0%)" x1="44.764474588" x2="45.3076107915" y1="497.040468433" y2="494.360240352" /><line stroke="rgb(0%,0%,0%)" x1="45.3076107915" x2="44.8316028707" y1="494.360240352" y2="492.92602859" /><line stroke="rgb(0%,0%,0%)" x1="497.410426843" x2="496.014717433" y1="505.097937328" y2="508.814292512" /><line stroke="rgb(0%,0%,0%)" x1="497.410426843" x2="499.986790358" y1="505.097937328" y2="499.062821227" /><line stroke="rgb(0%,0%,0%)" x1="508.078392085" x2="503.744100352" y1="485.373662615" y2="491.975051278" /><line stroke="rgb(0%,0%,0%)" x1="508.078392085" x2="507.669974762" y1="485.373662615" y2="480.160883631" /><line stroke="rgb(0%,0%,0%)" x1="507.981503796" x2="507.344104879" y1="478.108285707" y2="472.111176444" /><line stroke="rgb(0%,0%,0%)" x1="507.122563787" x2="507.344104879" y1="471.777054974" y2="472.111176444" /><line stroke="rgb(0%,0%,0%)" x1="507.190748929" x2="507.122563787" y1="470.700900584" y2="471.777054974" /><line stroke="rgb(0%,0%,0%)" x1="507.190748929" x2="507.116278581" y1="470.700900584" y2="470.064676836" /><line stroke="rgb(0%,0%,0%)" x1="455.977707981" x2="452.135147329" y1="557.22907749" y2="560.662495156" /><line stroke="rgb(0%,0%,0%)" x1="455.977707981" x2="457.914856131" y1="557.22907749" y2="555.688885407" /><line stroke="rgb(0%,0%,0%)" x1="464.643047815" x2="467.463829534" y1="549.123083511" y2="546.031275442" /><line stroke="rgb(0%,0%,0%)" x1="464.643047815" x2="462.575707785" y1="549.123083511" y2="551.38944536" /><line stroke="rgb(0%,0%,0%)" x1="467.463829534" x2="476.658980848" y1="546.031275442" y2="537.049174678" /><line stroke="rgb(0%,0%,0%)" x1="477.127009012" x2="476.658980848" y1="536.562728801" y2="537.049174678" /><line stroke="rgb(0%,0%,0%)" x1="477.212564459" x2="477.127009012" y1="536.504170713" y2="536.562728801" /><line stroke="rgb(0%,0%,0%)" x1="477.534791295" x2="481.199918709" y1="536.154290195" y2="531.177526639" /><line stroke="rgb(0%,0%,0%)" x1="477.280374381" x2="477.212564459" y1="536.417090828" y2="536.504170713" /><line stroke="rgb(0%,0%,0%)" x1="481.199918709" x2="485.149056083" y1="531.177526639" y2="526.394306061" /><line stroke="rgb(0%,0%,0%)" x1="477.280374381" x2="477.534791295" y1="536.417090828" y2="536.154290195" /><line stroke="rgb(0%,0%,0%)" x1="489.671261524" x2="488.86712218" y1="518.573829237" y2="519.97609838" /><line stroke="rgb(0%,0%,0%)" x1="485.149056083" x2="488.86712218" y1="526.394306061" y2="519.97609838" /><line stroke="rgb(0%,0%,0%)" x1="490.821062045" x2="489.671261524" y1="516.502163505" y2="518.573829237" /><line stroke="rgb(0%,0%,0%)" x1="490.821062045" x2="493.72586917" y1="516.502163505" y2="511.708557733" /><line stroke="rgb(0%,0%,0%)" x1="493.72586917" x2="496.014717433" y1="511.708557733" y2="508.814292512" /><line stroke="rgb(0%,0%,0%)" x1="499.986790358" x2="501.357833927" y1="499.062821227" y2="495.24033022" /><line stroke="rgb(0%,0%,0%)" x1="501.357833927" x2="503.744100352" y1="495.24033022" y2="491.975051278" /><line stroke="rgb(0%,0%,0%)" x1="507.669974762" x2="507.981503796" y1="480.160883631" y2="478.108285707" /><line stroke="rgb(0%,0%,0%)" x1="505.943309104" x2="505.028029934" y1="465.008611043" y2="458.458001428" /><line stroke="rgb(0%,0%,0%)" x1="507.116278581" x2="505.943309104" y1="470.064676836" y2="465.008611043" /><line stroke="rgb(0%,0%,0%)" x1="387.736125992" x2="393.934307801" y1="611.752275813" y2="608.889974347" /><line stroke="rgb(0%,0%,0%)" x1="362.254784913" x2="367.54277337" y1="617.948063397" y2="617.770046307" /><line stroke="rgb(0%,0%,0%)" x1="367.54277337" x2="379.662029036" y1="617.770046307" y2="614.279472015" /><line stroke="rgb(0%,0%,0%)" x1="379.662029036" x2="380.789259272" y1="614.279472015" y2="613.612023117" /><line stroke="rgb(0%,0%,0%)" x1="380.789259272" x2="381.978876774" y1="613.612023117" y2="613.366051529" /><line stroke="rgb(0%,0%,0%)" x1="381.978876774" x2="387.736125992" y1="613.366051529" y2="611.752275813" /><line stroke="rgb(0%,0%,0%)" x1="340.145636796" x2="345.939894657" y1="621.077934596" y2="620.554620247" /><line stroke="rgb(0%,0%,0%)" x1="347.128019455" x2="350.778002794" y1="620.394404205" y2="619.879992208" /><line stroke="rgb(0%,0%,0%)" x1="362.254784913" x2="350.778002794" y1="617.948063397" y2="619.879992208" /><line stroke="rgb(0%,0%,0%)" x1="336.527654845" x2="340.145636796" y1="621.223284517" y2="621.077934596" /><line stroke="rgb(0%,0%,0%)" x1="336.527654845" x2="336.158720504" y1="621.223284517" y2="621.344996303" /></svg>