<?xml version="1.0" encoding="utf-8" ?>
<svg baseProfile="full" height="100%" version="1.1" viewBox="0.5 0.5 685.793960571 941.299331665" width="100%" xmlns="http://www.w3.org/2000/svg" xmlns:ev="http://www.w3.org/2001/xml-events" xmlns:xlink="http://www.w3.org/1999/xlink"><defs /><line stroke="rgb(0%,0%,0%)" x1="537.233237609" x2="538.538487389" y1="386.095203406" y2="387.980161948" /><line stroke="rgb(0%,0%,0%)" x1="537.233237609" x2="534.491568433" y1="386.095203406" y2="380.731792148" /><line stroke="rgb(0%,0%,0%)" x1="550.391955756" x2="550.827430894" y1="424.918778015" y2="424.703910375" /><line stroke="rgb(0%,0%,0%)" x1="550.872573326" x2="550.827430894" y1="424.119879098" y2="424.703910375" /><line stroke="rgb(0%,0%,0%)" x1="550.672039617" x2="550.872573326" y1="423.278587016" y2="424.119879098" /><line stroke="rgb(0%,0%,0%)" x1="550.672039617" x2="550.646531221" y1="423.278587016" y2="421.831596971" /><line stroke="rgb(0%,0%,0%)" x1="509.216974452" x2="515.192751949" y1="364.294935159" y2="372.090800329" /><line stroke="rgb(0%,0%,0%)" x1="509.052876283" x2="509.216974452" y1="363.912333443" y2="364.294935159" /><line stroke="rgb(0%,0%,0%)" x1="507.215736373" x2="509.052876283" y1="358.835450122" y2="363.912333443" /><line stroke="rgb(0%,0%,0%)" x1="531.89072562" x2="516.947610175" y1="385.482767251" y2="373.615060574" /><line stroke="rgb(0%,0%,0%)" x1="531.89072562" x2="538.097647292" y1="385.482767251" y2="390.970918149" /><line stroke="rgb(0%,0%,0%)" x1="534.491568433" x2="529.66933015" y1="380.731792148" y2="374.034898133" /><line stroke="rgb(0%,0%,0%)" x1="529.66933015" x2="530.031980206" y1="374.034898133" y2="368.25057927" /><line stroke="rgb(0%,0%,0%)" x1="516.711845911" x2="516.947610175" y1="372.860867887" y2="373.615060574" /><line stroke="rgb(0%,0%,0%)" x1="515.192751949" x2="516.711845911" y1="372.090800329" y2="372.860867887" /><line stroke="rgb(0%,0%,0%)" x1="530.031980206" x2="528.888227772" y1="368.25057927" y2="367.728983232" /><line stroke="rgb(0%,0%,0%)" x1="515.697816531" x2="528.888227772" y1="362.905025205" y2="367.728983232" /><line stroke="rgb(0%,0%,0%)" x1="549.519695273" x2="550.391955756" y1="424.409259812" y2="424.918778015" /><line stroke="rgb(0%,0%,0%)" x1="549.519695273" x2="548.414415616" y1="424.409259812" y2="423.597955066" /><line stroke="rgb(0%,0%,0%)" x1="548.414415616" x2="546.75605241" y1="423.597955066" y2="418.552954732" /><line stroke="rgb(0%,0%,0%)" x1="538.538487389" x2="538.097647292" y1="387.980161948" y2="390.970918149" /><line stroke="rgb(0%,0%,0%)" x1="550.646531221" x2="546.75605241" y1="421.831596971" y2="418.552954732" /><line stroke="rgb(0%,0%,0%)" x1="505.4358842" x2="505.618135483" y1="458.608714169" y2="455.241811296" /><line stroke="rgb(0%,0%,0%)" x1="505.618135483" x2="505.876035275" y1="455.241811296" y2="453.943749941" /><line stroke="rgb(0%,0%,0%)" x1="505.876035275" x2="508.137510883" y1="453.943749941" y2="444.337658857" /><line stroke="rgb(0%,0%,0%)" x1="508.137510883" x2="508.399384973" y1="444.337658857" y2="443.18268809" /><line stroke="rgb(0%,0%,0%)" x1="508.406610542" x2="508.42433061" y1="443.016786842" y2="442.796505428" /><line stroke="rgb(0%,0%,0%)" x1="507.215736373" x2="505.336559761" y1="358.835450122" y2="354.356738446" /><line stroke="rgb(0%,0%,0%)" x1="507.402643585" x2="505.336559761" y1="356.481418402" y2="354.356738446" /><line stroke="rgb(0%,0%,0%)" x1="508.399384973" x2="508.406610542" y1="443.18268809" y2="443.016786842" /><line stroke="rgb(0%,0%,0%)" x1="515.697816531" x2="511.876682427" y1="362.905025205" y2="359.355460305" /><line stroke="rgb(0%,0%,0%)" x1="507.402643585" x2="511.876682427" y1="356.481418402" y2="359.355460305" /><line stroke="rgb(0%,0%,0%)" x1="445.884272064" x2="438.902979354" y1="347.847706841" y2="343.365266841" /><line stroke="rgb(0%,0%,0%)" x1="438.902979354" x2="438.893099943" y1="343.365266841" y2="343.359943415" /><line stroke="rgb(0%,0%,0%)" x1="458.026316309" x2="456.302801949" y1="361.123631283" y2="359.183200112" /><line stroke="rgb(0%,0%,0%)" x1="458.026316309" x2="463.888528028" y1="361.123631283" y2="367.903906322" /><line stroke="rgb(0%,0%,0%)" x1="445.884272064" x2="448.364732066" y1="347.847706841" y2="350.359005038" /><line stroke="rgb(0%,0%,0%)" x1="468.722865017" x2="469.684474071" y1="372.244341501" y2="373.365536196" /><line stroke="rgb(0%,0%,0%)" x1="468.722865017" x2="467.345735711" y1="372.244341501" y2="371.030607303" /><line stroke="rgb(0%,0%,0%)" x1="465.090281734" x2="463.888528028" y1="369.152504501" y2="367.903906322" /><line stroke="rgb(0%,0%,0%)" x1="420.847145191" x2="419.698806678" y1="331.204985201" y2="330.019272216" /><line stroke="rgb(0%,0%,0%)" x1="432.008683918" x2="420.847145191" y1="338.901749262" y2="331.204985201" /><line stroke="rgb(0%,0%,0%)" x1="438.893099943" x2="432.008683918" y1="343.359943415" y2="338.901749262" /><line stroke="rgb(0%,0%,0%)" x1="456.302801949" x2="448.364732066" y1="359.183200112" y2="350.359005038" /><line stroke="rgb(0%,0%,0%)" x1="390.771089086" x2="384.579943061" y1="305.688874788" y2="304.335596409" /><line stroke="rgb(0%,0%,0%)" x1="390.771089086" x2="395.385070392" y1="305.688874788" y2="308.129537564" /><line stroke="rgb(0%,0%,0%)" x1="398.073878279" x2="395.385070392" y1="309.853325114" y2="308.129537564" /><line stroke="rgb(0%,0%,0%)" x1="405.769330307" x2="401.328074829" y1="315.035074431" y2="311.662196898" /><line stroke="rgb(0%,0%,0%)" x1="401.328074829" x2="398.073878279" y1="311.662196898" y2="309.853325114" /><line stroke="rgb(0%,0%,0%)" x1="419.698806678" x2="414.401658587" y1="330.019272216" y2="322.715795658" /><line stroke="rgb(0%,0%,0%)" x1="414.401658587" x2="405.769330307" y1="322.715795658" y2="315.035074431" /><line stroke="rgb(0%,0%,0%)" x1="329.326599891" x2="335.820659535" y1="295.138211965" y2="295.874751628" /><line stroke="rgb(0%,0%,0%)" x1="329.326599891" x2="323.771016636" y1="295.138211965" y2="293.861168296" /><line stroke="rgb(0%,0%,0%)" x1="358.412101709" x2="360.079378511" y1="298.743247313" y2="299.19796285" /><line stroke="rgb(0%,0%,0%)" x1="365.817223352" x2="360.079378511" y1="299.971950339" y2="299.19796285" /><line stroke="rgb(0%,0%,0%)" x1="349.954198206" x2="337.331175147" y1="297.953647214" y2="295.935617447" /><line stroke="rgb(0%,0%,0%)" x1="358.412101709" x2="353.750094093" y1="298.743247313" y2="298.849096545" /><line stroke="rgb(0%,0%,0%)" x1="353.750094093" x2="349.954198206" y1="298.849096545" y2="297.953647214" /><line stroke="rgb(0%,0%,0%)" x1="370.839705229" x2="368.546760224" y1="300.947661616" y2="300.782582216" /><line stroke="rgb(0%,0%,0%)" x1="365.817223352" x2="368.546760224" y1="299.971950339" y2="300.782582216" /><line stroke="rgb(0%,0%,0%)" x1="378.688047115" x2="370.839705229" y1="302.700925178" y2="300.947661616" /><line stroke="rgb(0%,0%,0%)" x1="384.579943061" x2="380.662764046" y1="304.335596409" y2="303.210133104" /><line stroke="rgb(0%,0%,0%)" x1="380.662764046" x2="378.688047115" y1="303.210133104" y2="302.700925178" /><line stroke="rgb(0%,0%,0%)" x1="303.083848791" x2="306.931718897" y1="292.686861704" y2="293.000872358" /><line stroke="rgb(0%,0%,0%)" x1="337.331175147" x2="335.820659535" y1="295.935617447" y2="295.874751628" /><line stroke="rgb(0%,0%,0%)" x1="279.325813385" x2="292.236426297" y1="295.321207067" y2="292.733388248" /><line stroke="rgb(0%,0%,0%)" x1="297.185968558" x2="292.236426297" y1="293.533779334" y2="292.733388248" /><line stroke="rgb(0%,0%,0%)" x1="303.083848791" x2="297.185968558" y1="292.686861704" y2="293.533779334" /><line stroke="rgb(0%,0%,0%)" x1="313.360794054" x2="306.931718897" y1="293.011405046" y2="293.000872358" /><line stroke="rgb(0%,0%,0%)" x1="323.771016636" x2="319.511142687" y1="293.861168296" y2="293.536808719" /><line stroke="rgb(0%,0%,0%)" x1="313.360794054" x2="319.511142687" y1="293.011405046" y2="293.536808719" /><line stroke="rgb(0%,0%,0%)" x1="241.732736767" x2="251.090206752" y1="290.133888923" y2="291.002831688" /><line stroke="rgb(0%,0%,0%)" x1="260.28262069" x2="251.983498914" y1="292.133728832" y2="291.206951068" /><line stroke="rgb(0%,0%,0%)" x1="264.713541273" x2="273.733680399" y1="292.234011469" y2="294.437827863" /><line stroke="rgb(0%,0%,0%)" x1="264.713541273" x2="260.28262069" y1="292.234011469" y2="292.133728832" /><line stroke="rgb(0%,0%,0%)" x1="279.325813385" x2="277.3074952" y1="295.321207067" y2="294.796706018" /><line stroke="rgb(0%,0%,0%)" x1="277.3074952" x2="273.733680399" y1="294.796706018" y2="294.437827863" /><line stroke="rgb(0%,0%,0%)" x1="198.809326034" x2="197.142090542" y1="291.779156538" y2="292.118673151" /><line stroke="rgb(0%,0%,0%)" x1="198.809326034" x2="202.851145897" y1="291.779156538" y2="291.019437656" /><line stroke="rgb(0%,0%,0%)" x1="215.180778029" x2="218.352364364" y1="289.338400022" y2="289.083796215" /><line stroke="rgb(0%,0%,0%)" x1="241.732736767" x2="231.892561484" y1="290.133888923" y2="288.774566487" /><line stroke="rgb(0%,0%,0%)" x1="231.892561484" x2="228.318370138" y1="288.774566487" y2="288.834865363" /><line stroke="rgb(0%,0%,0%)" x1="228.318370138" x2="225.730638772" y1="288.834865363" y2="288.667294095" /><line stroke="rgb(0%,0%,0%)" x1="251.983498914" x2="251.090206752" y1="291.206951068" y2="291.002831688" /><line stroke="rgb(0%,0%,0%)" x1="197.142090542" x2="187.456450989" y1="292.118673151" y2="295.107836837" /><line stroke="rgb(0%,0%,0%)" x1="187.456450989" x2="181.902409175" y1="295.107836837" y2="296.977785359" /><line stroke="rgb(0%,0%,0%)" x1="210.60576426" x2="202.851145897" y1="290.024279111" y2="291.019437656" /><line stroke="rgb(0%,0%,0%)" x1="223.494437523" x2="218.352364364" y1="289.074098629" y2="289.083796215" /><line stroke="rgb(0%,0%,0%)" x1="225.730638772" x2="223.494437523" y1="288.667294095" y2="289.074098629" /><line stroke="rgb(0%,0%,0%)" x1="132.659621373" x2="133.417750436" y1="320.279210146" y2="319.851575049" /><line stroke="rgb(0%,0%,0%)" x1="134.541203766" x2="133.417750436" y1="319.263515042" y2="319.851575049" /><line stroke="rgb(0%,0%,0%)" x1="134.541203766" x2="137.849803367" y1="319.263515042" y2="317.367690315" /><line stroke="rgb(0%,0%,0%)" x1="174.615325533" x2="165.684943507" y1="299.559405633" y2="303.452746717" /><line stroke="rgb(0%,0%,0%)" x1="178.000300777" x2="174.615325533" y1="298.009359403" y2="299.559405633" /><line stroke="rgb(0%,0%,0%)" x1="181.902409175" x2="178.000300777" y1="296.977785359" y2="298.009359403" /><line stroke="rgb(0%,0%,0%)" x1="213.723680594" x2="210.60576426" y1="290.019855328" y2="290.024279111" /><line stroke="rgb(0%,0%,0%)" x1="215.180778029" x2="213.723680594" y1="289.338400022" y2="290.019855328" /><line stroke="rgb(0%,0%,0%)" x1="97.5174938839" x2="97.2246141776" y1="341.425494604" y2="341.604500533" /><line stroke="rgb(0%,0%,0%)" x1="97.2246141776" x2="94.8041024828" y1="341.604500533" y2="343.853830937" /><line stroke="rgb(0%,0%,0%)" x1="97.5174938839" x2="97.8682546007" y1="341.425494604" y2="341.031469757" /><line stroke="rgb(0%,0%,0%)" x1="105.331596045" x2="105.406395164" y1="333.313928468" y2="333.269937972" /><line stroke="rgb(0%,0%,0%)" x1="132.659621373" x2="130.243015298" y1="320.279210146" y2="321.281882559" /><line stroke="rgb(0%,0%,0%)" x1="137.849803367" x2="144.437371228" y1="317.367690315" y2="314.253048769" /><line stroke="rgb(0%,0%,0%)" x1="160.403771891" x2="144.437371228" y1="305.971531482" y2="314.253048769" /><line stroke="rgb(0%,0%,0%)" x1="165.684943507" x2="160.403771891" y1="303.452746717" y2="305.971531482" /><line stroke="rgb(0%,0%,0%)" x1="77.7945343022" x2="76.2040140205" y1="357.49958304" y2="359.575370208" /><line stroke="rgb(0%,0%,0%)" x1="85.0102333897" x2="93.9572126974" y1="351.246737557" y2="344.606992011" /><line stroke="rgb(0%,0%,0%)" x1="105.331596045" x2="97.8682546007" y1="333.313928468" y2="341.031469757" /><line stroke="rgb(0%,0%,0%)" x1="112.410076645" x2="105.406395164" y1="327.970945528" y2="333.269937972" /><line stroke="rgb(0%,0%,0%)" x1="130.243015298" x2="117.291197018" y1="321.281882559" y2="325.378689698" /><line stroke="rgb(0%,0%,0%)" x1="117.291197018" x2="112.410076645" y1="325.378689698" y2="327.970945528" /><line stroke="rgb(0%,0%,0%)" x1="66.4654319892" x2="68.4262201213" y1="400.535469495" y2="397.784313585" /><line stroke="rgb(0%,0%,0%)" x1="69.4112705515" x2="65.1291462995" y1="385.335437687" y2="390.686817097" /><line stroke="rgb(0%,0%,0%)" x1="69.7886232476" x2="69.4112705515" y1="384.522977615" y2="385.335437687" /><line stroke="rgb(0%,0%,0%)" x1="69.7886232476" x2="70.6361530564" y1="384.522977615" y2="383.86150554" /><line stroke="rgb(0%,0%,0%)" x1="73.0639125867" x2="73.0769600057" y1="367.050388912" y2="367.284800363" /><line stroke="rgb(0%,0%,0%)" x1="75.3850577711" x2="77.2735791065" y1="373.854056779" y2="376.572150512" /><line stroke="rgb(0%,0%,0%)" x1="75.3850577711" x2="73.0769600057" y1="373.854056779" y2="367.284800363" /><line stroke="rgb(0%,0%,0%)" x1="76.1129999935" x2="73.6521198732" y1="360.767014964" y2="365.473640063" /><line stroke="rgb(0%,0%,0%)" x1="73.2318163958" x2="73.0639125867" y1="366.659461915" y2="367.050388912" /><line stroke="rgb(0%,0%,0%)" x1="73.6521198732" x2="73.2318163958" y1="365.473640063" y2="366.659461915" /><line stroke="rgb(0%,0%,0%)" x1="79.2712757879" x2="70.6361530564" y1="378.507337389" y2="383.86150554" /><line stroke="rgb(0%,0%,0%)" x1="76.1129999935" x2="76.2040140205" y1="360.767014964" y2="359.575370208" /><line stroke="rgb(0%,0%,0%)" x1="85.0102333897" x2="77.7945343022" y1="351.246737557" y2="357.49958304" /><line stroke="rgb(0%,0%,0%)" x1="94.8041024828" x2="94.1758152535" y1="343.853830937" y2="344.356229917" /><line stroke="rgb(0%,0%,0%)" x1="94.1758152535" x2="94.1132679924" y1="344.356229917" y2="344.385846438" /><line stroke="rgb(0%,0%,0%)" x1="48.4451994509" x2="48.4294823796" y1="458.92701458" y2="459.270818101" /><line stroke="rgb(0%,0%,0%)" x1="45.7322103714" x2="48.4451994509" y1="448.120333333" y2="458.92701458" /><line stroke="rgb(0%,0%,0%)" x1="45.7322103714" x2="46.0541108607" y1="448.120333333" y2="445.688185103" /><line stroke="rgb(0%,0%,0%)" x1="39.1603266695" x2="39.6934397837" y1="446.281733358" y2="443.684760882" /><line stroke="rgb(0%,0%,0%)" x1="40.0844486104" x2="39.6934397837" y1="441.896443349" y2="443.684760882" /><line stroke="rgb(0%,0%,0%)" x1="42.6636755827" x2="46.5176944182" y1="433.094964809" y2="427.427665637" /><line stroke="rgb(0%,0%,0%)" x1="34.57287604" x2="34.4356892487" y1="422.406292611" y2="423.88545298" /><line stroke="rgb(0%,0%,0%)" x1="46.5176944182" x2="47.1422186903" y1="427.427665637" y2="426.810855" /><line stroke="rgb(0%,0%,0%)" x1="34.57287604" x2="36.4637640474" y1="422.406292611" y2="419.898238508" /><line stroke="rgb(0%,0%,0%)" x1="47.9475873765" x2="46.0541108607" y1="438.869364749" y2="445.688185103" /><line stroke="rgb(0%,0%,0%)" x1="47.9475873765" x2="48.0420062218" y1="438.869364749" y2="437.342926733" /><line stroke="rgb(0%,0%,0%)" x1="51.6232574192" x2="51.2381313852" y1="430.130804516" y2="431.505204567" /><line stroke="rgb(0%,0%,0%)" x1="40.0844486104" x2="42.6636755827" y1="441.896443349" y2="433.094964809" /><line stroke="rgb(0%,0%,0%)" x1="51.8379163633" x2="51.6232574192" y1="429.31412384" y2="430.130804516" /><line stroke="rgb(0%,0%,0%)" x1="48.0420062218" x2="51.2381313852" y1="437.342926733" y2="431.505204567" /><line stroke="rgb(0%,0%,0%)" x1="53.2673104424" x2="52.6351043217" y1="422.77186257" y2="427.58158296" /><line stroke="rgb(0%,0%,0%)" x1="53.2673104424" x2="54.4343776442" y1="422.77186257" y2="419.515089601" /><line stroke="rgb(0%,0%,0%)" x1="47.1422186903" x2="49.1551514511" y1="426.810855" y2="421.938496049" /><line stroke="rgb(0%,0%,0%)" x1="49.1551514511" x2="50.128606344" y1="421.938496049" y2="419.266603011" /><line stroke="rgb(0%,0%,0%)" x1="50.128606344" x2="54.3927241979" y1="419.266603011" y2="415.635499254" /><line stroke="rgb(0%,0%,0%)" x1="54.3927241979" x2="56.1252885729" y1="415.635499254" y2="413.679540868" /><line stroke="rgb(0%,0%,0%)" x1="45.2495335263" x2="43.6494316018" y1="408.235884786" y2="410.691433998" /><line stroke="rgb(0%,0%,0%)" x1="43.6494316018" x2="43.1098896073" y1="410.691433998" y2="411.895925479" /><line stroke="rgb(0%,0%,0%)" x1="45.2495335263" x2="45.3909680288" y1="408.235884786" y2="406.622270946" /><line stroke="rgb(0%,0%,0%)" x1="48.5174589841" x2="45.3909680288" y1="400.843092035" y2="406.622270946" /><line stroke="rgb(0%,0%,0%)" x1="52.7065363594" x2="48.5174589841" y1="397.620242695" y2="400.843092035" /><line stroke="rgb(0%,0%,0%)" x1="52.6351043217" x2="51.8379163633" y1="427.58158296" y2="429.31412384" /><line stroke="rgb(0%,0%,0%)" x1="61.0572674421" x2="54.4343776442" y1="413.230900367" y2="419.515089601" /><line stroke="rgb(0%,0%,0%)" x1="62.3996590154" x2="61.0572674421" y1="412.282932031" y2="413.230900367" /><line stroke="rgb(0%,0%,0%)" x1="56.1252885729" x2="60.8913078728" y1="413.679540868" y2="408.329283723" /><line stroke="rgb(0%,0%,0%)" x1="64.6109117578" x2="62.3996590154" y1="406.542314267" y2="412.282932031" /><line stroke="rgb(0%,0%,0%)" x1="60.8913078728" x2="63.580908361" y1="408.329283723" y2="404.455654761" /><line stroke="rgb(0%,0%,0%)" x1="65.1257173031" x2="64.6109117578" y1="405.690520191" y2="406.542314267" /><line stroke="rgb(0%,0%,0%)" x1="63.580908361" x2="64.4022042115" y1="404.455654761" y2="401.142108853" /><line stroke="rgb(0%,0%,0%)" x1="64.4022042115" x2="64.2890472293" y1="401.142108853" y2="393.686172324" /><line stroke="rgb(0%,0%,0%)" x1="52.7065363594" x2="62.5952506177" y1="397.620242695" y2="392.991316515" /><line stroke="rgb(0%,0%,0%)" x1="63.5508106722" x2="62.5952506177" y1="392.626266826" y2="392.991316515" /><line stroke="rgb(0%,0%,0%)" x1="63.7983651429" x2="63.5508106722" y1="392.385338887" y2="392.626266826" /><line stroke="rgb(0%,0%,0%)" x1="66.4654319892" x2="65.1257173031" y1="400.535469495" y2="405.690520191" /><line stroke="rgb(0%,0%,0%)" x1="68.4262201213" x2="64.2890472293" y1="397.784313585" y2="393.686172324" /><line stroke="rgb(0%,0%,0%)" x1="65.1291462995" x2="63.7983651429" y1="390.686817097" y2="392.385338887" /><line stroke="rgb(0%,0%,0%)" x1="77.3127211434" x2="79.2712757879" y1="377.242224771" y2="378.507337389" /><line stroke="rgb(0%,0%,0%)" x1="77.2735791065" x2="77.3127211434" y1="376.572150512" y2="377.242224771" /><line stroke="rgb(0%,0%,0%)" x1="94.0576126571" x2="93.9572126974" y1="344.514297337" y2="344.606992011" /><line stroke="rgb(0%,0%,0%)" x1="94.1132679924" x2="94.0576126571" y1="344.385846438" y2="344.514297337" /><line stroke="rgb(0%,0%,0%)" x1="22.4807322012" x2="24.9672591103" y1="456.761542403" y2="458.682090938" /><line stroke="rgb(0%,0%,0%)" x1="22.4807322012" x2="20.9129295802" y1="456.761542403" y2="452.221152557" /><line stroke="rgb(0%,0%,0%)" x1="20.4964553557" x2="20.9129295802" y1="451.253741793" y2="452.221152557" /><line stroke="rgb(0%,0%,0%)" x1="29.3125411145" x2="24.9672591103" y1="460.355312857" y2="458.682090938" /><line stroke="rgb(0%,0%,0%)" x1="23.0025616798" x2="20.8368222993" y1="443.295475405" y2="449.585051961" /><line stroke="rgb(0%,0%,0%)" x1="20.8368222993" x2="20.4964553557" y1="449.585051961" y2="451.253741793" /><line stroke="rgb(0%,0%,0%)" x1="31.5701789897" x2="30.0129744715" y1="434.044505461" y2="434.815772975" /><line stroke="rgb(0%,0%,0%)" x1="30.0129744715" x2="23.0025616798" y1="434.815772975" y2="443.295475405" /><line stroke="rgb(0%,0%,0%)" x1="34.7864184201" x2="36.2604496114" y1="459.147183235" y2="460.609200999" /><line stroke="rgb(0%,0%,0%)" x1="34.7864184201" x2="34.0657636907" y1="459.147183235" y2="458.301001702" /><line stroke="rgb(0%,0%,0%)" x1="37.8762586398" x2="34.0657636907" y1="455.103465251" y2="458.301001702" /><line stroke="rgb(0%,0%,0%)" x1="37.8762586398" x2="37.1310893456" y1="455.103465251" y2="453.521179672" /><line stroke="rgb(0%,0%,0%)" x1="37.1310893456" x2="38.3869176402" y1="453.521179672" y2="450.785141412" /><line stroke="rgb(0%,0%,0%)" x1="38.3869176402" x2="39.1603266695" y1="450.785141412" y2="446.281733358" /><line stroke="rgb(0%,0%,0%)" x1="31.5701789897" x2="32.9703967123" y1="434.044505461" y2="433.494262961" /><line stroke="rgb(0%,0%,0%)" x1="34.4356892487" x2="32.9703967123" y1="423.88545298" y2="433.494262961" /><line stroke="rgb(0%,0%,0%)" x1="43.1098896073" x2="36.4637640474" y1="411.895925479" y2="419.898238508" /><line stroke="rgb(0%,0%,0%)" x1="502.742431681" x2="502.900807" y1="414.160336976" y2="414.561990068" /><line stroke="rgb(0%,0%,0%)" x1="502.742431681" x2="502.457752185" y1="414.160336976" y2="413.541932961" /><line stroke="rgb(0%,0%,0%)" x1="509.26069427" x2="508.42433061" y1="436.265093127" y2="442.796505428" /><line stroke="rgb(0%,0%,0%)" x1="509.26069427" x2="509.554213756" y1="436.265093127" y2="434.158270053" /><line stroke="rgb(0%,0%,0%)" x1="509.554213756" x2="509.665960398" y1="434.158270053" y2="432.192631188" /><line stroke="rgb(0%,0%,0%)" x1="508.97055688" x2="509.665960398" y1="429.248637343" y2="432.192631188" /><line stroke="rgb(0%,0%,0%)" x1="502.900807" x2="503.034247399" y1="414.561990068" y2="414.77897487" /><line stroke="rgb(0%,0%,0%)" x1="508.97055688" x2="503.034247399" y1="429.248637343" y2="414.77897487" /><line stroke="rgb(0%,0%,0%)" x1="470.803241244" x2="469.684474071" y1="373.977947095" y2="373.365536196" /><line stroke="rgb(0%,0%,0%)" x1="485.863622888" x2="487.436899938" y1="389.972651176" y2="392.380217605" /><line stroke="rgb(0%,0%,0%)" x1="483.996623909" x2="485.863622888" y1="387.29024475" y2="389.972651176" /><line stroke="rgb(0%,0%,0%)" x1="472.01554989" x2="470.803241244" y1="375.129075075" y2="373.977947095" /><line stroke="rgb(0%,0%,0%)" x1="483.996623909" x2="472.01554989" y1="387.29024475" y2="375.129075075" /><line stroke="rgb(0%,0%,0%)" x1="502.457752185" x2="497.322803904" y1="413.541932961" y2="405.651272708" /><line stroke="rgb(0%,0%,0%)" x1="497.322803904" x2="491.340843502" y1="405.651272708" y2="396.966007437" /><line stroke="rgb(0%,0%,0%)" x1="491.340843502" x2="487.436899938" y1="396.966007437" y2="392.380217605" /><line stroke="rgb(0%,0%,0%)" x1="427.062272335" x2="428.687150479" y1="582.045119761" y2="580.942184808" /><line stroke="rgb(0%,0%,0%)" x1="428.687150479" x2="429.807421273" y1="580.942184808" y2="580.070946749" /><line stroke="rgb(0%,0%,0%)" x1="444.665718093" x2="441.258765611" y1="568.240053687" y2="570.660181731" /><line stroke="rgb(0%,0%,0%)" x1="444.665718093" x2="450.405236351" y1="568.240053687" y2="562.402023337" /><line stroke="rgb(0%,0%,0%)" x1="450.405236351" x2="455.488717404" y1="562.402023337" y2="558.351989558" /><line stroke="rgb(0%,0%,0%)" x1="455.488717404" x2="455.509176902" y1="558.351989558" y2="558.321781305" /><line stroke="rgb(0%,0%,0%)" x1="460.555233949" x2="458.155794612" y1="554.15583095" y2="556.15330489" /><line stroke="rgb(0%,0%,0%)" x1="460.555233949" x2="460.68693305" y1="554.15583095" y2="554.02115126" /><line stroke="rgb(0%,0%,0%)" x1="467.345735711" x2="465.723386416" y1="371.030607303" y2="369.801553453" /><line stroke="rgb(0%,0%,0%)" x1="465.723386416" x2="465.090281734" y1="369.801553453" y2="369.152504501" /><line stroke="rgb(0%,0%,0%)" x1="407.057492463" x2="404.8909244" y1="600.211953569" y2="602.172506262" /><line stroke="rgb(0%,0%,0%)" x1="410.891357505" x2="407.057492463" y1="596.248161229" y2="600.211953569" /><line stroke="rgb(0%,0%,0%)" x1="410.891357505" x2="417.656289557" y1="596.248161229" y2="590.54632799" /><line stroke="rgb(0%,0%,0%)" x1="419.916839282" x2="417.656289557" y1="587.730029935" y2="590.54632799" /><line stroke="rgb(0%,0%,0%)" x1="419.916839282" x2="426.820285552" y1="587.730029935" y2="582.324704764" /><line stroke="rgb(0%,0%,0%)" x1="426.820285552" x2="427.062272335" y1="582.324704764" y2="582.045119761" /><line stroke="rgb(0%,0%,0%)" x1="429.807421273" x2="437.451511426" y1="580.070946749" y2="574.466217287" /><line stroke="rgb(0%,0%,0%)" x1="437.451511426" x2="441.258765611" y1="574.466217287" y2="570.660181731" /><line stroke="rgb(0%,0%,0%)" x1="383.579257983" x2="394.171173189" y1="613.196972534" y2="609.273486144" /><line stroke="rgb(0%,0%,0%)" x1="394.171173189" x2="394.18527146" y1="609.273486144" y2="609.269050977" /><line stroke="rgb(0%,0%,0%)" x1="394.18527146" x2="394.18828072" y1="609.269050977" y2="609.267052024" /><line stroke="rgb(0%,0%,0%)" x1="404.8909244" x2="394.18828072" y1="602.172506262" y2="609.267052024" /><line stroke="rgb(0%,0%,0%)" x1="332.873791099" x2="333.517009993" y1="622.398373335" y2="622.346679965" /><line stroke="rgb(0%,0%,0%)" x1="319.374952846" x2="326.490896251" y1="623.80991789" y2="623.033762948" /><line stroke="rgb(0%,0%,0%)" x1="328.282457906" x2="326.490896251" y1="622.716038638" y2="623.033762948" /><line stroke="rgb(0%,0%,0%)" x1="317.401389153" x2="319.374952846" y1="624.004476335" y2="623.80991789" /><line stroke="rgb(0%,0%,0%)" x1="317.401389153" x2="314.708945959" y1="624.004476335" y2="624.038537092" /><line stroke="rgb(0%,0%,0%)" x1="341.320392508" x2="344.822336917" y1="621.641909459" y2="621.169679882" /><line stroke="rgb(0%,0%,0%)" x1="328.282457906" x2="331.218902059" y1="622.716038638" y2="622.625122091" /><line stroke="rgb(0%,0%,0%)" x1="279.613455647" x2="280.731550712" y1="622.663473644" y2="622.830586338" /><line stroke="rgb(0%,0%,0%)" x1="308.784647047" x2="314.708945959" y1="624.779143086" y2="624.038537092" /><line stroke="rgb(0%,0%,0%)" x1="331.218902059" x2="332.873791099" y1="622.625122091" y2="622.398373335" /><line stroke="rgb(0%,0%,0%)" x1="280.731550712" x2="292.40059904" y1="622.830586338" y2="624.955546274" /><line stroke="rgb(0%,0%,0%)" x1="279.613455647" x2="278.8289855" y1="622.663473644" y2="622.885328018" /><line stroke="rgb(0%,0%,0%)" x1="270.187319874" x2="278.8289855" y1="625.773706389" y2="622.885328018" /><line stroke="rgb(0%,0%,0%)" x1="292.40059904" x2="308.784647047" y1="624.955546274" y2="624.779143086" /><line stroke="rgb(0%,0%,0%)" x1="204.798749816" x2="204.943536233" y1="621.942664165" y2="622.017553757" /><line stroke="rgb(0%,0%,0%)" x1="204.798749816" x2="204.475481298" y1="621.942664165" y2="621.861915787" /><line stroke="rgb(0%,0%,0%)" x1="219.894273453" x2="218.080811886" y1="626.786702928" y2="626.149347066" /><line stroke="rgb(0%,0%,0%)" x1="209.251552651" x2="211.354030722" y1="623.56863783" y2="624.19246074" /><line stroke="rgb(0%,0%,0%)" x1="204.943536233" x2="209.251552651" y1="622.017553757" y2="623.56863783" /><line stroke="rgb(0%,0%,0%)" x1="231.692357418" x2="228.624519021" y1="629.585452865" y2="629.859784026" /><line stroke="rgb(0%,0%,0%)" x1="231.692357418" x2="234.623774665" y1="629.585452865" y2="630.364353825" /><line stroke="rgb(0%,0%,0%)" x1="219.894273453" x2="222.71532011" y1="626.786702928" y2="628.027851951" /><line stroke="rgb(0%,0%,0%)" x1="250.34227562" x2="241.859507518" y1="628.368989042" y2="629.97340736" /><line stroke="rgb(0%,0%,0%)" x1="236.702380958" x2="241.859507518" y1="630.406798266" y2="629.97340736" /><line stroke="rgb(0%,0%,0%)" x1="234.623774665" x2="236.702380958" y1="630.364353825" y2="630.406798266" /><line stroke="rgb(0%,0%,0%)" x1="255.035597267" x2="270.187319874" y1="628.094179037" y2="625.773706389" /><line stroke="rgb(0%,0%,0%)" x1="255.035597267" x2="250.34227562" y1="628.094179037" y2="628.368989042" /><line stroke="rgb(0%,0%,0%)" x1="189.325097669" x2="188.039969949" y1="614.414461017" y2="613.951027947" /><line stroke="rgb(0%,0%,0%)" x1="189.325097669" x2="204.475481298" y1="614.414461017" y2="621.861915787" /><line stroke="rgb(0%,0%,0%)" x1="211.354030722" x2="218.080811886" y1="624.19246074" y2="626.149347066" /><line stroke="rgb(0%,0%,0%)" x1="222.71532011" x2="225.056447402" y1="628.027851951" y2="629.004310937" /><line stroke="rgb(0%,0%,0%)" x1="151.60650228" x2="154.497642721" y1="600.105628478" y2="601.499741015" /><line stroke="rgb(0%,0%,0%)" x1="137.13963327" x2="151.60650228" y1="595.783673644" y2="600.105628478" /><line stroke="rgb(0%,0%,0%)" x1="156.771043444" x2="168.924118478" y1="602.997952339" y2="608.559655192" /><line stroke="rgb(0%,0%,0%)" x1="154.497642721" x2="156.771043444" y1="601.499741015" y2="602.997952339" /><line stroke="rgb(0%,0%,0%)" x1="171.780644439" x2="178.632143275" y1="608.786698338" y2="610.99536348" /><line stroke="rgb(0%,0%,0%)" x1="168.924118478" x2="171.780644439" y1="608.559655192" y2="608.786698338" /><line stroke="rgb(0%,0%,0%)" x1="178.632143275" x2="188.039969949" y1="610.99536348" y2="613.951027947" /><line stroke="rgb(0%,0%,0%)" x1="226.302162043" x2="228.624519021" y1="629.414608106" y2="629.859784026" /><line stroke="rgb(0%,0%,0%)" x1="225.056447402" x2="226.302162043" y1="629.004310937" y2="629.414608106" /><line stroke="rgb(0%,0%,0%)" x1="94.3930734512" x2="92.0342788237" y1="575.767580601" y2="573.959063113" /><line stroke="rgb(0%,0%,0%)" x1="137.13963327" x2="132.613663844" y1="595.783673644" y2="594.669996299" /><line stroke="rgb(0%,0%,0%)" x1="77.0373964302" x2="73.709055249" y1="544.656063815" y2="550.564996901" /><line stroke="rgb(0%,0%,0%)" x1="74.0990023302" x2="75.1309005424" y1="554.919119457" y2="558.538218604" /><line stroke="rgb(0%,0%,0%)" x1="74.0990023302" x2="73.709055249" y1="554.919119457" y2="550.564996901" /><line stroke="rgb(0%,0%,0%)" x1="77.0373964302" x2="77.3685262468" y1="544.656063815" y2="544.171550828" /><line stroke="rgb(0%,0%,0%)" x1="79.2380175047" x2="77.3685262468" y1="540.915239538" y2="544.171550828" /><line stroke="rgb(0%,0%,0%)" x1="79.1562055338" x2="79.2380175047" y1="540.757359433" y2="540.915239538" /><line stroke="rgb(0%,0%,0%)" x1="74.8265417229" x2="79.1562055338" y1="538.244059467" y2="540.757359433" /><line stroke="rgb(0%,0%,0%)" x1="74.8265417229" x2="74.5262242063" y1="538.244059467" y2="537.838034546" /><line stroke="rgb(0%,0%,0%)" x1="92.0342788237" x2="80.4632629864" y1="573.959063113" y2="564.921746615" /><line stroke="rgb(0%,0%,0%)" x1="110.24303514" x2="110.859122946" y1="588.437552038" y2="588.881151676" /><line stroke="rgb(0%,0%,0%)" x1="99.8102641934" x2="109.035096711" y1="581.27971638" y2="587.326704352" /><line stroke="rgb(0%,0%,0%)" x1="109.035096711" x2="110.24303514" y1="587.326704352" y2="588.437552038" /><line stroke="rgb(0%,0%,0%)" x1="97.512531195" x2="99.8102641934" y1="578.150036074" y2="581.27971638" /><line stroke="rgb(0%,0%,0%)" x1="94.3930734512" x2="97.512531195" y1="575.767580601" y2="578.150036074" /><line stroke="rgb(0%,0%,0%)" x1="124.833318317" x2="127.904543365" y1="593.490974266" y2="594.811191634" /><line stroke="rgb(0%,0%,0%)" x1="124.833318317" x2="110.859122946" y1="593.490974266" y2="588.881151676" /><line stroke="rgb(0%,0%,0%)" x1="127.904543365" x2="132.613663844" y1="594.811191634" y2="594.669996299" /><line stroke="rgb(0%,0%,0%)" x1="43.4415881141" x2="41.9045958808" y1="480.655250888" y2="479.691209823" /><line stroke="rgb(0%,0%,0%)" x1="46.6414943468" x2="43.4415881141" y1="489.442045452" y2="480.655250888" /><line stroke="rgb(0%,0%,0%)" x1="48.4294823796" x2="48.3121468336" y1="459.270818101" y2="460.784435398" /><line stroke="rgb(0%,0%,0%)" x1="51.4908493471" x2="56.3835234754" y1="521.700768726" y2="525.51035545" /><line stroke="rgb(0%,0%,0%)" x1="58.5102509642" x2="56.3835234754" y1="525.689913021" y2="525.51035545" /><line stroke="rgb(0%,0%,0%)" x1="43.6198575768" x2="45.2441893208" y1="513.496466403" y2="515.243280554" /><line stroke="rgb(0%,0%,0%)" x1="45.2441893208" x2="51.4908493471" y1="515.243280554" y2="521.700768726" /><line stroke="rgb(0%,0%,0%)" x1="59.6586704528" x2="60.1301928415" y1="516.737307832" y2="517.187081923" /><line stroke="rgb(0%,0%,0%)" x1="64.6809390857" x2="60.1301928415" y1="522.236905085" y2="517.187081923" /><line stroke="rgb(0%,0%,0%)" x1="59.6586704528" x2="51.5547187254" y1="516.737307832" y2="510.653242292" /><line stroke="rgb(0%,0%,0%)" x1="43.6198575768" x2="41.4847923786" y1="513.496466403" y2="507.569575126" /><line stroke="rgb(0%,0%,0%)" x1="51.5547187254" x2="47.1179432809" y1="510.653242292" y2="506.597878385" /><line stroke="rgb(0%,0%,0%)" x1="47.1179432809" x2="41.4710221507" y1="506.597878385" y2="506.543178263" /><line stroke="rgb(0%,0%,0%)" x1="54.8180553836" x2="55.5999517773" y1="495.219762229" y2="498.843136851" /><line stroke="rgb(0%,0%,0%)" x1="54.8180553836" x2="54.5224172461" y1="495.219762229" y2="494.36118011" /><line stroke="rgb(0%,0%,0%)" x1="55.5999517773" x2="56.0626057063" y1="498.843136851" y2="500.351092094" /><line stroke="rgb(0%,0%,0%)" x1="54.5224172461" x2="54.5239024389" y1="494.36118011" y2="488.562678982" /><line stroke="rgb(0%,0%,0%)" x1="53.5010107043" x2="54.5239024389" y1="486.477844784" y2="488.562678982" /><line stroke="rgb(0%,0%,0%)" x1="48.2786854692" x2="52.1781996322" y1="482.283186262" y2="486.095933413" /><line stroke="rgb(0%,0%,0%)" x1="52.1781996322" x2="53.5010107043" y1="486.095933413" y2="486.477844784" /><line stroke="rgb(0%,0%,0%)" x1="48.0877821767" x2="48.2786854692" y1="479.299910826" y2="482.283186262" /><line stroke="rgb(0%,0%,0%)" x1="46.269398954" x2="48.0877821767" y1="475.652388103" y2="479.299910826" /><line stroke="rgb(0%,0%,0%)" x1="67.4412859992" x2="74.5262242063" y1="532.820404711" y2="537.838034546" /><line stroke="rgb(0%,0%,0%)" x1="67.4412859992" x2="66.9306706472" y1="532.820404711" y2="532.466796259" /><line stroke="rgb(0%,0%,0%)" x1="61.238656629" x2="66.9306706472" y1="528.813141268" y2="532.466796259" /><line stroke="rgb(0%,0%,0%)" x1="58.8608594636" x2="61.238656629" y1="527.20772827" y2="528.813141268" /><line stroke="rgb(0%,0%,0%)" x1="58.8608594636" x2="58.5102509642" y1="527.20772827" y2="525.689913021" /><line stroke="rgb(0%,0%,0%)" x1="68.4016086914" x2="67.9288640827" y1="523.494332679" y2="523.936185024" /><line stroke="rgb(0%,0%,0%)" x1="67.9288640827" x2="64.6809390857" y1="523.936185024" y2="522.236905085" /><line stroke="rgb(0%,0%,0%)" x1="71.6888815484" x2="68.4016086914" y1="523.688044811" y2="523.494332679" /><line stroke="rgb(0%,0%,0%)" x1="65.2439651548" x2="64.5439372134" y1="507.643150385" y2="507.267552647" /><line stroke="rgb(0%,0%,0%)" x1="65.2439651548" x2="69.7014184053" y1="507.643150385" y2="516.415245285" /><line stroke="rgb(0%,0%,0%)" x1="74.1057044796" x2="70.2383338564" y1="521.622764583" y2="517.729033166" /><line stroke="rgb(0%,0%,0%)" x1="69.8171480505" x2="70.2383338564" y1="516.876465726" y2="517.729033166" /><line stroke="rgb(0%,0%,0%)" x1="64.5439372134" x2="64.0358033397" y1="507.267552647" y2="507.250079245" /><line stroke="rgb(0%,0%,0%)" x1="69.7014184053" x2="69.8171480505" y1="516.415245285" y2="516.876465726" /><line stroke="rgb(0%,0%,0%)" x1="64.0358033397" x2="64.0661870918" y1="507.250079245" y2="504.920818817" /><line stroke="rgb(0%,0%,0%)" x1="63.1362021084" x2="64.0661870918" y1="503.992881407" y2="504.920818817" /><line stroke="rgb(0%,0%,0%)" x1="63.1362021084" x2="56.0626057063" y1="503.992881407" y2="500.351092094" /><line stroke="rgb(0%,0%,0%)" x1="78.9982263079" x2="80.4632629864" y1="563.873368115" y2="564.921746615" /><line stroke="rgb(0%,0%,0%)" x1="75.1309005424" x2="78.16668024" y1="558.538218604" y2="563.140730014" /><line stroke="rgb(0%,0%,0%)" x1="78.16668024" x2="78.9982263079" y1="563.140730014" y2="563.873368115" /><line stroke="rgb(0%,0%,0%)" x1="71.6888815484" x2="73.564159976" y1="523.688044811" y2="522.698576962" /><line stroke="rgb(0%,0%,0%)" x1="73.564159976" x2="74.1057044796" y1="522.698576962" y2="521.622764583" /><line stroke="rgb(0%,0%,0%)" x1="29.7853069648" x2="33.4067857233" y1="499.537972014" y2="503.499694811" /><line stroke="rgb(0%,0%,0%)" x1="28.585706263" x2="29.7853069648" y1="496.959278566" y2="499.537972014" /><line stroke="rgb(0%,0%,0%)" x1="33.8897837414" x2="35.2360979326" y1="503.321259482" y2="504.250933907" /><line stroke="rgb(0%,0%,0%)" x1="33.8897837414" x2="33.4067857233" y1="503.321259482" y2="503.499694811" /><line stroke="rgb(0%,0%,0%)" x1="29.460544207" x2="28.585706263" y1="493.806309087" y2="496.959278566" /><line stroke="rgb(0%,0%,0%)" x1="29.1152032147" x2="29.460544207" y1="487.67777671" y2="493.806309087" /><line stroke="rgb(0%,0%,0%)" x1="24.6217280655" x2="28.7153612307" y1="483.102646454" y2="486.849671617" /><line stroke="rgb(0%,0%,0%)" x1="23.0731087858" x2="24.6217280655" y1="482.432936359" y2="483.102646454" /><line stroke="rgb(0%,0%,0%)" x1="29.0741832312" x2="28.7153612307" y1="486.960558207" y2="486.849671617" /><line stroke="rgb(0%,0%,0%)" x1="20.6592021619" x2="23.0731087858" y1="478.713345587" y2="482.432936359" /><line stroke="rgb(0%,0%,0%)" x1="29.0741832312" x2="29.4408828633" y1="486.960558207" y2="487.155241104" /><line stroke="rgb(0%,0%,0%)" x1="20.6592021619" x2="20.5120440043" y1="478.713345587" y2="472.492848214" /><line stroke="rgb(0%,0%,0%)" x1="20.9465660353" x2="20.5120440043" y1="470.334351132" y2="472.492848214" /><line stroke="rgb(0%,0%,0%)" x1="26.2757040775" x2="31.0316051274" y1="468.313242715" y2="465.704175403" /><line stroke="rgb(0%,0%,0%)" x1="26.2757040775" x2="21.5924520007" y1="468.313242715" y2="469.632085862" /><line stroke="rgb(0%,0%,0%)" x1="21.5924520007" x2="21.1589314704" y1="469.632085862" y2="469.944058431" /><line stroke="rgb(0%,0%,0%)" x1="21.1589314704" x2="20.9465660353" y1="469.944058431" y2="470.334351132" /><line stroke="rgb(0%,0%,0%)" x1="30.430865694" x2="31.0316051274" y1="464.608773618" y2="465.704175403" /><line stroke="rgb(0%,0%,0%)" x1="30.430865694" x2="30.8206868352" y1="464.608773618" y2="461.706522881" /><line stroke="rgb(0%,0%,0%)" x1="41.210077023" x2="41.4847923786" y1="506.657563294" y2="507.569575126" /><line stroke="rgb(0%,0%,0%)" x1="40.7308341998" x2="41.210077023" y1="506.500721031" y2="506.657563294" /><line stroke="rgb(0%,0%,0%)" x1="35.2360979326" x2="40.7308341998" y1="504.250933907" y2="506.500721031" /><line stroke="rgb(0%,0%,0%)" x1="44.5937749672" x2="41.4710221507" y1="503.838649109" y2="506.543178263" /><line stroke="rgb(0%,0%,0%)" x1="46.437782073" x2="44.5937749672" y1="501.928018016" y2="503.838649109" /><line stroke="rgb(0%,0%,0%)" x1="29.1152032147" x2="29.4408828633" y1="487.67777671" y2="487.155241104" /><line stroke="rgb(0%,0%,0%)" x1="41.6827859045" x2="41.9045958808" y1="478.16991875" y2="479.691209823" /><line stroke="rgb(0%,0%,0%)" x1="44.1095282442" x2="46.269398954" y1="475.88135723" y2="475.652388103" /><line stroke="rgb(0%,0%,0%)" x1="44.7930255621" x2="44.1095282442" y1="470.592561308" y2="475.88135723" /><line stroke="rgb(0%,0%,0%)" x1="41.6827859045" x2="43.3657482664" y1="478.16991875" y2="470.904830472" /><line stroke="rgb(0%,0%,0%)" x1="43.3657482664" x2="41.8051942179" y1="470.904830472" y2="469.366588135" /><line stroke="rgb(0%,0%,0%)" x1="43.0568420946" x2="41.8051942179" y1="469.263495859" y2="469.366588135" /><line stroke="rgb(0%,0%,0%)" x1="43.0568420946" x2="39.4311707923" y1="469.263495859" y2="464.810302094" /><line stroke="rgb(0%,0%,0%)" x1="39.4311707923" x2="36.7125666728" y1="464.810302094" y2="460.939734939" /><line stroke="rgb(0%,0%,0%)" x1="36.7125666728" x2="36.2604496114" y1="460.939734939" y2="460.609200999" /><line stroke="rgb(0%,0%,0%)" x1="46.437782073" x2="48.0860219289" y1="501.928018016" y2="493.794406747" /><line stroke="rgb(0%,0%,0%)" x1="48.0860219289" x2="46.6414943468" y1="493.794406747" y2="489.442045452" /><line stroke="rgb(0%,0%,0%)" x1="45.9186603942" x2="44.7930255621" y1="469.032934604" y2="470.592561308" /><line stroke="rgb(0%,0%,0%)" x1="48.3121468336" x2="45.9186603942" y1="460.784435398" y2="469.032934604" /><line stroke="rgb(0%,0%,0%)" x1="496.70254392" x2="495.883453029" y1="507.752501936" y2="509.933495098" /><line stroke="rgb(0%,0%,0%)" x1="496.70254392" x2="498.214517596" y1="507.752501936" y2="504.210712657" /><line stroke="rgb(0%,0%,0%)" x1="508.461213756" x2="506.148981871" y1="485.721511568" y2="489.243180687" /><line stroke="rgb(0%,0%,0%)" x1="508.461213756" x2="508.243333739" y1="485.721511568" y2="482.940629588" /><line stroke="rgb(0%,0%,0%)" x1="508.721633862" x2="508.170311563" y1="479.789212767" y2="474.601974485" /><line stroke="rgb(0%,0%,0%)" x1="460.810380297" x2="467.206351137" y1="553.885819807" y2="546.875311295" /><line stroke="rgb(0%,0%,0%)" x1="460.810380297" x2="460.68693305" y1="553.885819807" y2="554.02115126" /><line stroke="rgb(0%,0%,0%)" x1="467.206351137" x2="472.524918926" y1="546.875311295" y2="541.679974082" /><line stroke="rgb(0%,0%,0%)" x1="472.524918926" x2="475.980831243" y1="541.679974082" y2="537.849027368" /><line stroke="rgb(0%,0%,0%)" x1="479.054572372" x2="475.980831243" y1="533.675289022" y2="537.849027368" /><line stroke="rgb(0%,0%,0%)" x1="479.054572372" x2="485.565598685" y1="533.675289022" y2="525.78909209" /><line stroke="rgb(0%,0%,0%)" x1="488.908249853" x2="489.749149406" y1="520.018933936" y2="518.973938318" /><line stroke="rgb(0%,0%,0%)" x1="489.749149406" x2="490.331003481" y1="518.973938318" y2="518.122544309" /><line stroke="rgb(0%,0%,0%)" x1="485.565598685" x2="488.908249853" y1="525.78909209" y2="520.018933936" /><line stroke="rgb(0%,0%,0%)" x1="490.331003481" x2="491.690639841" y1="518.122544309" y2="516.139876631" /><line stroke="rgb(0%,0%,0%)" x1="491.690639841" x2="492.103815888" y1="516.139876631" y2="514.930543001" /><line stroke="rgb(0%,0%,0%)" x1="492.668128442" x2="492.103815888" y1="513.999296346" y2="514.930543001" /><line stroke="rgb(0%,0%,0%)" x1="492.668128442" x2="495.883453029" y1="513.999296346" y2="509.933495098" /><line stroke="rgb(0%,0%,0%)" x1="498.214517596" x2="501.109806042" y1="504.210712657" y2="496.138602986" /><line stroke="rgb(0%,0%,0%)" x1="501.109806042" x2="506.148981871" y1="496.138602986" y2="489.243180687" /><line stroke="rgb(0%,0%,0%)" x1="508.243333739" x2="508.721633862" y1="482.940629588" y2="479.789212767" /><line stroke="rgb(0%,0%,0%)" x1="508.170311563" x2="507.61855934" y1="474.601974485" y2="471.924436262" /><line stroke="rgb(0%,0%,0%)" x1="507.61855934" x2="507.437737878" y1="471.924436262" y2="470.425831036" /><line stroke="rgb(0%,0%,0%)" x1="506.555924278" x2="505.4358842" y1="466.6247879" y2="458.608714169" /><line stroke="rgb(0%,0%,0%)" x1="506.555924278" x2="507.437737878" y1="466.6247879" y2="470.425831036" /><line stroke="rgb(0%,0%,0%)" x1="455.509176902" x2="455.626659261" y1="558.321781305" y2="558.198430673" /><line stroke="rgb(0%,0%,0%)" x1="455.626659261" x2="458.155794612" y1="558.198430673" y2="556.15330489" /><line stroke="rgb(0%,0%,0%)" x1="359.42647884" x2="365.780381465" y1="619.00606571" y2="618.792165233" /><line stroke="rgb(0%,0%,0%)" x1="365.780381465" x2="374.790546406" y1="618.792165233" y2="616.19706773" /><line stroke="rgb(0%,0%,0%)" x1="374.790546406" x2="377.081683091" y1="616.19706773" y2="614.840453432" /><line stroke="rgb(0%,0%,0%)" x1="377.081683091" x2="379.499624175" y1="614.840453432" y2="614.340507184" /><line stroke="rgb(0%,0%,0%)" x1="379.499624175" x2="383.579257983" y1="614.340507184" y2="613.196972534" /><line stroke="rgb(0%,0%,0%)" x1="29.3125411145" x2="30.8206868352" y1="460.355312857" y2="461.706522881" /><line stroke="rgb(0%,0%,0%)" x1="341.320392508" x2="333.517009993" y1="621.641909459" y2="622.346679965" /><line stroke="rgb(0%,0%,0%)" x1="344.822336917" x2="355.580498658" y1="621.169679882" y2="619.653473654" /><line stroke="rgb(0%,0%,0%)" x1="359.42647884" x2="355.580498658" y1="619.00606571" y2="619.653473654" /></svg>