<?xml version="1.0" encoding="utf-8" ?>
<svg baseProfile="full" height="100%" version="1.1" viewBox="0.5 0.5 685.793960571 941.299331665" width="100%" xmlns="http://www.w3.org/2000/svg" xmlns:ev="http://www.w3.org/2001/xml-events" xmlns:xlink="http://www.w3.org/1999/xlink"><defs /><line stroke="rgb(0%,0%,0%)" x1="509.486827854" x2="509.657568747" y1="457.792530477" y2="455.834740668" /><line stroke="rgb(0%,0%,0%)" x1="509.473043996" x2="509.657568747" y1="448.312027328" y2="455.834740668" /><line stroke="rgb(0%,0%,0%)" x1="509.473043996" x2="509.620714571" y1="448.312027328" y2="446.639972618" /><line stroke="rgb(0%,0%,0%)" x1="509.620714571" x2="508.463131067" y1="446.639972618" y2="443.679608521" /><line stroke="rgb(0%,0%,0%)" x1="508.463131067" x2="508.807662664" y1="443.679608521" y2="439.151826534" /><line stroke="rgb(0%,0%,0%)" x1="508.807662664" x2="507.917527732" y1="439.151826534" y2="433.029517808" /><line stroke="rgb(0%,0%,0%)" x1="507.83209451" x2="507.917527732" y1="431.558340089" y2="433.029517808" /><line stroke="rgb(0%,0%,0%)" x1="448.153831413" x2="437.120618027" y1="353.102573513" y2="340.287445871" /><line stroke="rgb(0%,0%,0%)" x1="451.93430694" x2="448.153831413" y1="356.888629705" y2="353.102573513" /><line stroke="rgb(0%,0%,0%)" x1="455.602097646" x2="454.402650581" y1="360.391071577" y2="359.469725103" /><line stroke="rgb(0%,0%,0%)" x1="453.691427351" x2="454.402650581" y1="358.850392683" y2="359.469725103" /><line stroke="rgb(0%,0%,0%)" x1="451.93430694" x2="453.691427351" y1="356.888629705" y2="358.850392683" /><line stroke="rgb(0%,0%,0%)" x1="430.232264819" x2="420.590200303" y1="332.800700703" y2="324.050558478" /><line stroke="rgb(0%,0%,0%)" x1="437.120618027" x2="430.232264819" y1="340.287445871" y2="332.800700703" /><line stroke="rgb(0%,0%,0%)" x1="375.468907279" x2="378.518260068" y1="296.444644521" y2="297.320768552" /><line stroke="rgb(0%,0%,0%)" x1="375.468907279" x2="372.924933574" y1="296.444644521" y2="295.788645905" /><line stroke="rgb(0%,0%,0%)" x1="384.961305519" x2="378.518260068" y1="299.818176084" y2="297.320768552" /><line stroke="rgb(0%,0%,0%)" x1="384.961305519" x2="390.098897236" y1="299.818176084" y2="300.221214326" /><line stroke="rgb(0%,0%,0%)" x1="395.775455559" x2="391.230285895" y1="304.135160505" y2="300.407457138" /><line stroke="rgb(0%,0%,0%)" x1="402.983662377" x2="395.775455559" y1="309.597385448" y2="304.135160505" /><line stroke="rgb(0%,0%,0%)" x1="408.23218189" x2="413.986463349" y1="312.685505571" y2="318.227746785" /><line stroke="rgb(0%,0%,0%)" x1="408.23218189" x2="402.983662377" y1="312.685505571" y2="309.597385448" /><line stroke="rgb(0%,0%,0%)" x1="420.590200303" x2="416.993334046" y1="324.050558478" y2="320.515100564" /><line stroke="rgb(0%,0%,0%)" x1="416.993334046" x2="415.223525373" y1="320.515100564" y2="319.199343811" /><line stroke="rgb(0%,0%,0%)" x1="415.223525373" x2="413.986463349" y1="319.199343811" y2="318.227746785" /><line stroke="rgb(0%,0%,0%)" x1="358.423324816" x2="357.721174867" y1="296.168509877" y2="296.124558991" /><line stroke="rgb(0%,0%,0%)" x1="357.721174867" x2="355.718458421" y1="296.124558991" y2="294.374456156" /><line stroke="rgb(0%,0%,0%)" x1="358.967388088" x2="358.423324816" y1="296.114833917" y2="296.168509877" /><line stroke="rgb(0%,0%,0%)" x1="358.967388088" x2="360.455047857" y1="296.114833917" y2="296.049792034" /><line stroke="rgb(0%,0%,0%)" x1="355.718458421" x2="350.9495009" y1="294.374456156" y2="291.143931693" /><line stroke="rgb(0%,0%,0%)" x1="368.607569529" x2="360.455047857" y1="295.382899974" y2="296.049792034" /><line stroke="rgb(0%,0%,0%)" x1="370.991498919" x2="368.607569529" y1="296.167824303" y2="295.382899974" /><line stroke="rgb(0%,0%,0%)" x1="372.924933574" x2="370.991498919" y1="295.788645905" y2="296.167824303" /><line stroke="rgb(0%,0%,0%)" x1="391.230285895" x2="390.098897236" y1="300.407457138" y2="300.221214326" /><line stroke="rgb(0%,0%,0%)" x1="303.352751294" x2="298.428720539" y1="288.856925701" y2="288.562076369" /><line stroke="rgb(0%,0%,0%)" x1="306.448753852" x2="303.352751294" y1="287.699402377" y2="288.856925701" /><line stroke="rgb(0%,0%,0%)" x1="311.781793876" x2="306.448753852" y1="287.909606615" y2="287.699402377" /><line stroke="rgb(0%,0%,0%)" x1="322.599915225" x2="321.855907254" y1="287.240183215" y2="287.211763292" /><line stroke="rgb(0%,0%,0%)" x1="322.599915225" x2="324.297835244" y1="287.240183215" y2="287.796728558" /><line stroke="rgb(0%,0%,0%)" x1="329.440406481" x2="324.297835244" y1="288.307341427" y2="287.796728558" /><line stroke="rgb(0%,0%,0%)" x1="329.440406481" x2="337.048018151" y1="288.307341427" y2="287.781123382" /><line stroke="rgb(0%,0%,0%)" x1="338.665114099" x2="337.048018151" y1="288.764923013" y2="287.781123382" /><line stroke="rgb(0%,0%,0%)" x1="338.665114099" x2="346.018229228" y1="288.764923013" y2="290.010212011" /><line stroke="rgb(0%,0%,0%)" x1="347.847053982" x2="346.018229228" y1="290.923565399" y2="290.010212011" /><line stroke="rgb(0%,0%,0%)" x1="348.599431662" x2="347.847053982" y1="290.802022667" y2="290.923565399" /><line stroke="rgb(0%,0%,0%)" x1="350.9495009" x2="348.599431662" y1="291.143931693" y2="290.802022667" /><line stroke="rgb(0%,0%,0%)" x1="241.82802638" x2="244.736525788" y1="285.758571167" y2="286.028656941" /><line stroke="rgb(0%,0%,0%)" x1="252.867756175" x2="250.757841174" y1="287.640159779" y2="287.404541799" /><line stroke="rgb(0%,0%,0%)" x1="259.198078497" x2="260.707062901" y1="287.783430552" y2="288.152108299" /><line stroke="rgb(0%,0%,0%)" x1="259.198078497" x2="252.867756175" y1="287.783430552" y2="287.640159779" /><line stroke="rgb(0%,0%,0%)" x1="272.203366506" x2="277.889740361" y1="289.306553187" y2="290.784273139" /><line stroke="rgb(0%,0%,0%)" x1="272.203366506" x2="260.707062901" y1="289.306553187" y2="288.152108299" /><line stroke="rgb(0%,0%,0%)" x1="282.621401931" x2="277.889740361" y1="288.875148867" y2="290.784273139" /><line stroke="rgb(0%,0%,0%)" x1="288.416270367" x2="282.621401931" y1="289.843886415" y2="288.875148867" /><line stroke="rgb(0%,0%,0%)" x1="289.560356474" x2="288.416270367" y1="289.846825037" y2="289.843886415" /><line stroke="rgb(0%,0%,0%)" x1="294.877583197" x2="289.560356474" y1="288.633779969" y2="289.846825037" /><line stroke="rgb(0%,0%,0%)" x1="321.855907254" x2="315.998606395" y1="287.211763292" y2="287.424860789" /><line stroke="rgb(0%,0%,0%)" x1="315.998606395" x2="311.781793876" y1="287.424860789" y2="287.909606615" /><line stroke="rgb(0%,0%,0%)" x1="241.82802638" x2="232.257110053" y1="285.758571167" y2="284.436444181" /><line stroke="rgb(0%,0%,0%)" x1="250.757841174" x2="244.736525788" y1="287.404541799" y2="286.028656941" /><line stroke="rgb(0%,0%,0%)" x1="298.428720539" x2="294.877583197" y1="288.562076369" y2="288.633779969" /><line stroke="rgb(0%,0%,0%)" x1="221.224007199" x2="218.193469491" y1="284.309152456" y2="284.314867836" /><line stroke="rgb(0%,0%,0%)" x1="221.224007199" x2="223.935779761" y1="284.309152456" y2="283.815833095" /><line stroke="rgb(0%,0%,0%)" x1="218.193469491" x2="213.164840192" y1="284.314867836" y2="284.812406708" /><line stroke="rgb(0%,0%,0%)" x1="232.257110053" x2="226.468406175" y1="284.436444181" y2="283.840304299" /><line stroke="rgb(0%,0%,0%)" x1="164.936009513" x2="159.564678779" y1="298.140603797" y2="300.482320262" /><line stroke="rgb(0%,0%,0%)" x1="164.936009513" x2="173.736319239" y1="298.140603797" y2="294.110770217" /><line stroke="rgb(0%,0%,0%)" x1="193.148636019" x2="187.139078775" y1="287.628705388" y2="289.660527306" /><line stroke="rgb(0%,0%,0%)" x1="187.139078775" x2="181.681314087" y1="289.660527306" y2="291.005760779" /><line stroke="rgb(0%,0%,0%)" x1="196.820986421" x2="203.530980364" y1="286.849467315" y2="285.940223634" /><line stroke="rgb(0%,0%,0%)" x1="211.88144444" x2="208.756454741" y1="285.412625214" y2="285.417059033" /><line stroke="rgb(0%,0%,0%)" x1="211.88144444" x2="213.164840192" y1="285.412625214" y2="284.812406708" /><line stroke="rgb(0%,0%,0%)" x1="226.468406175" x2="225.132991464" y1="283.840304299" y2="283.84831713" /><line stroke="rgb(0%,0%,0%)" x1="225.132991464" x2="223.935779761" y1="283.84831713" y2="283.815833095" /><line stroke="rgb(0%,0%,0%)" x1="159.564678779" x2="136.922347618" y1="300.482320262" y2="311.281279833" /><line stroke="rgb(0%,0%,0%)" x1="176.248922441" x2="173.736319239" y1="292.911812184" y2="294.110770217" /><line stroke="rgb(0%,0%,0%)" x1="178.513148384" x2="176.248922441" y1="292.051355637" y2="292.911812184" /><line stroke="rgb(0%,0%,0%)" x1="181.681314087" x2="180.747656365" y1="291.005760779" y2="291.374251281" /><line stroke="rgb(0%,0%,0%)" x1="180.747656365" x2="178.513148384" y1="291.374251281" y2="292.051355637" /><line stroke="rgb(0%,0%,0%)" x1="196.820986421" x2="193.148636019" y1="286.849467315" y2="287.628705388" /><line stroke="rgb(0%,0%,0%)" x1="207.37527963" x2="203.530980364" y1="285.725353509" y2="285.940223634" /><line stroke="rgb(0%,0%,0%)" x1="208.756454741" x2="207.37527963" y1="285.417059033" y2="285.725353509" /><line stroke="rgb(0%,0%,0%)" x1="77.2865966068" x2="78.5006865498" y1="352.446030109" y2="351.545027881" /><line stroke="rgb(0%,0%,0%)" x1="106.284463944" x2="103.718501232" y1="323.462603678" y2="325.404013643" /><line stroke="rgb(0%,0%,0%)" x1="117.463016824" x2="119.058135517" y1="317.525919748" y2="317.021365599" /><line stroke="rgb(0%,0%,0%)" x1="117.463016824" x2="106.284463944" y1="317.525919748" y2="323.462603678" /><line stroke="rgb(0%,0%,0%)" x1="119.058135517" x2="124.858137338" y1="317.021365599" y2="315.12044666" /><line stroke="rgb(0%,0%,0%)" x1="65.7361660948" x2="65.9569893923" y1="369.201174134" y2="373.168511232" /><line stroke="rgb(0%,0%,0%)" x1="66.1772614407" x2="66.3574914419" y1="373.795444627" y2="374.054844416" /><line stroke="rgb(0%,0%,0%)" x1="66.1772614407" x2="65.9569893923" y1="373.795444627" y2="373.168511232" /><line stroke="rgb(0%,0%,0%)" x1="68.5778831124" x2="65.7361660948" y1="362.584862654" y2="369.201174134" /><line stroke="rgb(0%,0%,0%)" x1="68.5778831124" x2="68.9879028933" y1="362.584862654" y2="361.428054675" /><line stroke="rgb(0%,0%,0%)" x1="77.2865966068" x2="75.7426249775" y1="352.446030109" y2="353.78397615" /><line stroke="rgb(0%,0%,0%)" x1="87.0038055535" x2="87.0075493456" y1="339.495278931" y2="339.493506222" /><line stroke="rgb(0%,0%,0%)" x1="95.4446481724" x2="90.5397373083" y1="331.528251522" y2="337.111504423" /><line stroke="rgb(0%,0%,0%)" x1="103.718501232" x2="95.4446481724" y1="325.404013643" y2="331.528251522" /><line stroke="rgb(0%,0%,0%)" x1="134.569427471" x2="124.858137338" y1="312.169774334" y2="315.12044666" /><line stroke="rgb(0%,0%,0%)" x1="136.922347618" x2="134.569427471" y1="311.281279833" y2="312.169774334" /><line stroke="rgb(0%,0%,0%)" x1="52.8405265579" x2="51.8266441721" y1="392.107241696" y2="392.95769747" /><line stroke="rgb(0%,0%,0%)" x1="65.1327001086" x2="58.3166826951" y1="384.349028223" y2="388.138012271" /><line stroke="rgb(0%,0%,0%)" x1="69.4534044804" x2="65.1327001086" y1="383.05574392" y2="384.349028223" /><line stroke="rgb(0%,0%,0%)" x1="71.1263171257" x2="69.4534044804" y1="381.761467989" y2="383.05574392" /><line stroke="rgb(0%,0%,0%)" x1="68.075978838" x2="71.1263171257" y1="377.482734519" y2="381.761467989" /><line stroke="rgb(0%,0%,0%)" x1="66.4981963897" x2="68.075978838" y1="376.463578638" y2="377.482734519" /><line stroke="rgb(0%,0%,0%)" x1="66.3574914419" x2="66.4981963897" y1="374.054844416" y2="376.463578638" /><line stroke="rgb(0%,0%,0%)" x1="75.7426249775" x2="68.9879028933" y1="353.78397615" y2="361.428054675" /><line stroke="rgb(0%,0%,0%)" x1="83.9712654579" x2="78.5006865498" y1="346.494293464" y2="351.545027881" /><line stroke="rgb(0%,0%,0%)" x1="87.0038055535" x2="83.9712654579" y1="339.495278931" y2="346.494293464" /><line stroke="rgb(0%,0%,0%)" x1="89.3001462068" x2="87.0075493456" y1="337.496358568" y2="339.493506222" /><line stroke="rgb(0%,0%,0%)" x1="90.5397373083" x2="89.3001462068" y1="337.111504423" y2="337.496358568" /><line stroke="rgb(0%,0%,0%)" x1="23.3827711979" x2="21.9036486939" y1="442.037460011" y2="447.210112742" /><line stroke="rgb(0%,0%,0%)" x1="23.3827711979" x2="27.3229470532" y1="442.037460011" y2="435.108658085" /><line stroke="rgb(0%,0%,0%)" x1="35.6586835646" x2="35.0697235285" y1="421.475219883" y2="422.695509233" /><line stroke="rgb(0%,0%,0%)" x1="35.6586835646" x2="36.3427126707" y1="421.475219883" y2="420.397938253" /><line stroke="rgb(0%,0%,0%)" x1="41.8577309766" x2="36.3427126707" y1="413.816825409" y2="420.397938253" /><line stroke="rgb(0%,0%,0%)" x1="42.1558388778" x2="41.8577309766" y1="413.511506812" y2="413.816825409" /><line stroke="rgb(0%,0%,0%)" x1="42.1558388778" x2="42.6502946322" y1="413.511506812" y2="411.462376891" /><line stroke="rgb(0%,0%,0%)" x1="44.5061359784" x2="42.6502946322" y1="405.116531274" y2="411.462376891" /><line stroke="rgb(0%,0%,0%)" x1="48.8604272141" x2="46.5464247263" y1="397.008396533" y2="400.789743319" /><line stroke="rgb(0%,0%,0%)" x1="51.8266441721" x2="48.8604272141" y1="392.95769747" y2="397.008396533" /><line stroke="rgb(0%,0%,0%)" x1="46.5464247263" x2="44.5061359784" y1="400.789743319" y2="405.116531274" /><line stroke="rgb(0%,0%,0%)" x1="52.8405265579" x2="56.3781980269" y1="392.107241696" y2="389.423334205" /><line stroke="rgb(0%,0%,0%)" x1="58.0226822577" x2="56.3781980269" y1="388.329417772" y2="389.423334205" /><line stroke="rgb(0%,0%,0%)" x1="58.3166826951" x2="58.0226822577" y1="388.138012271" y2="388.329417772" /><line stroke="rgb(0%,0%,0%)" x1="24.1998734654" x2="22.6949449252" y1="458.42635794" y2="456.262614014" /><line stroke="rgb(0%,0%,0%)" x1="21.7340193446" x2="22.6949449252" y1="451.922913391" y2="456.262614014" /><line stroke="rgb(0%,0%,0%)" x1="21.9036486939" x2="21.7340193446" y1="447.210112742" y2="451.922913391" /><line stroke="rgb(0%,0%,0%)" x1="27.3269875918" x2="27.3229470532" y1="435.099278461" y2="435.108658085" /><line stroke="rgb(0%,0%,0%)" x1="29.3374765194" x2="27.3269875918" y1="433.525955505" y2="435.099278461" /><line stroke="rgb(0%,0%,0%)" x1="30.2394730581" x2="29.3374765194" y1="432.229999099" y2="433.525955505" /><line stroke="rgb(0%,0%,0%)" x1="35.0697235285" x2="31.1491602993" y1="422.695509233" y2="430.7731277" /><line stroke="rgb(0%,0%,0%)" x1="31.1491602993" x2="30.2394730581" y1="430.7731277" y2="432.229999099" /><line stroke="rgb(0%,0%,0%)" x1="498.399884309" x2="496.42840761" y1="407.510428382" y2="404.340992928" /><line stroke="rgb(0%,0%,0%)" x1="488.932483741" x2="492.51034128" y1="391.578291945" y2="395.977268074" /><line stroke="rgb(0%,0%,0%)" x1="507.747745707" x2="507.83209451" y1="430.900483735" y2="431.558340089" /><line stroke="rgb(0%,0%,0%)" x1="507.747745707" x2="507.408431555" y1="430.900483735" y2="427.894751166" /><line stroke="rgb(0%,0%,0%)" x1="507.408431555" x2="503.634803664" y1="427.894751166" y2="417.295584559" /><line stroke="rgb(0%,0%,0%)" x1="503.181957481" x2="503.634803664" y1="416.305282226" y2="417.295584559" /><line stroke="rgb(0%,0%,0%)" x1="503.181957481" x2="498.399884309" y1="416.305282226" y2="407.510428382" /><line stroke="rgb(0%,0%,0%)" x1="461.167429828" x2="459.346021656" y1="366.163473758" y2="364.244748129" /><line stroke="rgb(0%,0%,0%)" x1="459.346021656" x2="455.602097646" y1="364.244748129" y2="360.391071577" /><line stroke="rgb(0%,0%,0%)" x1="467.469334697" x2="475.473267596" y1="372.001846348" y2="378.77794965" /><line stroke="rgb(0%,0%,0%)" x1="467.469334697" x2="464.516386259" y1="372.001846348" y2="370.034635621" /><line stroke="rgb(0%,0%,0%)" x1="462.621858046" x2="464.516386259" y1="368.092495914" y2="370.034635621" /><line stroke="rgb(0%,0%,0%)" x1="462.621858046" x2="461.167429828" y1="368.092495914" y2="366.163473758" /><line stroke="rgb(0%,0%,0%)" x1="481.300849904" x2="476.890508061" y1="383.035495985" y2="380.102700572" /><line stroke="rgb(0%,0%,0%)" x1="475.94190369" x2="475.473267596" y1="379.403444348" y2="378.77794965" /><line stroke="rgb(0%,0%,0%)" x1="476.890508061" x2="475.94190369" y1="380.102700572" y2="379.403444348" /><line stroke="rgb(0%,0%,0%)" x1="496.42840761" x2="492.51034128" y1="404.340992928" y2="395.977268074" /><line stroke="rgb(0%,0%,0%)" x1="488.932483741" x2="484.38316731" y1="391.578291945" y2="387.174169568" /><line stroke="rgb(0%,0%,0%)" x1="484.38316731" x2="481.300849904" y1="387.174169568" y2="383.035495985" /><line stroke="rgb(0%,0%,0%)" x1="411.616630301" x2="415.818788412" y1="600.409463671" y2="597.878693772" /><line stroke="rgb(0%,0%,0%)" x1="411.616630301" x2="407.542740485" y1="600.409463671" y2="603.841273418" /><line stroke="rgb(0%,0%,0%)" x1="421.698180304" x2="425.988100371" y1="595.328901072" y2="591.70604782" /><line stroke="rgb(0%,0%,0%)" x1="443.935212122" x2="440.835850918" y1="571.258730533" y2="574.904875476" /><line stroke="rgb(0%,0%,0%)" x1="431.920813201" x2="440.835850918" y1="585.267800271" y2="574.904875476" /><line stroke="rgb(0%,0%,0%)" x1="443.935212122" x2="444.48279023" y1="571.258730533" y2="570.767634426" /><line stroke="rgb(0%,0%,0%)" x1="444.48279023" x2="445.731353768" y1="570.767634426" y2="569.532719802" /><line stroke="rgb(0%,0%,0%)" x1="447.477256857" x2="451.81760665" y1="567.486778778" y2="562.092401066" /><line stroke="rgb(0%,0%,0%)" x1="445.731353768" x2="447.477256857" y1="569.532719802" y2="567.486778778" /><line stroke="rgb(0%,0%,0%)" x1="386.946875566" x2="385.45229511" y1="616.734409457" y2="617.204588695" /><line stroke="rgb(0%,0%,0%)" x1="386.946875566" x2="389.625409982" y1="616.734409457" y2="614.9551462" /><line stroke="rgb(0%,0%,0%)" x1="389.625409982" x2="400.754582753" y1="614.9551462" y2="607.908842429" /><line stroke="rgb(0%,0%,0%)" x1="415.818788412" x2="421.698180304" y1="597.878693772" y2="595.328901072" /><line stroke="rgb(0%,0%,0%)" x1="425.988100371" x2="429.688656534" y1="591.70604782" y2="587.833559052" /><line stroke="rgb(0%,0%,0%)" x1="429.688656534" x2="431.920813201" y1="587.833559052" y2="585.267800271" /><line stroke="rgb(0%,0%,0%)" x1="351.757871871" x2="343.938278856" y1="624.102248889" y2="624.671902992" /><line stroke="rgb(0%,0%,0%)" x1="371.500378564" x2="364.305554928" y1="620.845705054" y2="622.899492439" /><line stroke="rgb(0%,0%,0%)" x1="373.247748232" x2="371.500378564" y1="620.577207699" y2="620.845705054" /><line stroke="rgb(0%,0%,0%)" x1="373.247748232" x2="385.45229511" y1="620.577207699" y2="617.204588695" /><line stroke="rgb(0%,0%,0%)" x1="400.754582753" x2="407.542740485" y1="607.908842429" y2="603.841273418" /><line stroke="rgb(0%,0%,0%)" x1="337.866400608" x2="324.794230918" y1="626.162623753" y2="627.088833532" /><line stroke="rgb(0%,0%,0%)" x1="337.866400608" x2="343.938278856" y1="626.162623753" y2="624.671902992" /><line stroke="rgb(0%,0%,0%)" x1="351.757871871" x2="356.39804818" y1="624.102248889" y2="622.78199007" /><line stroke="rgb(0%,0%,0%)" x1="356.39804818" x2="358.622788244" y1="622.78199007" y2="622.792435583" /><line stroke="rgb(0%,0%,0%)" x1="358.622788244" x2="364.305554928" y1="622.792435583" y2="622.899492439" /><line stroke="rgb(0%,0%,0%)" x1="280.821338568" x2="294.103605144" y1="630.41902536" y2="630.563053223" /><line stroke="rgb(0%,0%,0%)" x1="301.78623475" x2="294.103605144" y1="629.834357301" y2="630.563053223" /><line stroke="rgb(0%,0%,0%)" x1="309.938224016" x2="315.177465976" y1="629.995974922" y2="628.733812908" /><line stroke="rgb(0%,0%,0%)" x1="318.15634675" x2="321.467019896" y1="628.509200192" y2="627.760045619" /><line stroke="rgb(0%,0%,0%)" x1="315.177465976" x2="316.546680779" y1="628.733812908" y2="628.505965126" /><line stroke="rgb(0%,0%,0%)" x1="316.546680779" x2="318.15634675" y1="628.505965126" y2="628.509200192" /><line stroke="rgb(0%,0%,0%)" x1="321.467019896" x2="323.449660748" y1="627.760045619" y2="627.339652926" /><line stroke="rgb(0%,0%,0%)" x1="323.449660748" x2="324.794230918" y1="627.339652926" y2="627.088833532" /><line stroke="rgb(0%,0%,0%)" x1="255.699798376" x2="267.809092348" y1="633.11854388" y2="631.085164727" /><line stroke="rgb(0%,0%,0%)" x1="267.809092348" x2="273.377781362" y1="631.085164727" y2="630.943938316" /><line stroke="rgb(0%,0%,0%)" x1="278.212667028" x2="280.821338568" y1="630.380348733" y2="630.41902536" /><line stroke="rgb(0%,0%,0%)" x1="273.377781362" x2="278.212667028" y1="630.943938316" y2="630.380348733" /><line stroke="rgb(0%,0%,0%)" x1="301.78623475" x2="309.938224016" y1="629.834357301" y2="629.995974922" /><line stroke="rgb(0%,0%,0%)" x1="213.022237806" x2="215.683832133" y1="629.481880388" y2="630.661682927" /><line stroke="rgb(0%,0%,0%)" x1="213.022237806" x2="208.21491261" y1="629.481880388" y2="628.300956263" /><line stroke="rgb(0%,0%,0%)" x1="218.33059468" x2="215.683832133" y1="631.765619088" y2="630.661682927" /><line stroke="rgb(0%,0%,0%)" x1="233.667571604" x2="242.044624309" y1="634.524413003" y2="633.829527107" /><line stroke="rgb(0%,0%,0%)" x1="233.667571604" x2="230.17068393" y1="634.524413003" y2="634.466321777" /><line stroke="rgb(0%,0%,0%)" x1="244.090842576" x2="245.12369984" y1="633.836272579" y2="633.416954331" /><line stroke="rgb(0%,0%,0%)" x1="242.044624309" x2="244.090842576" y1="633.829527107" y2="633.836272579" /><line stroke="rgb(0%,0%,0%)" x1="245.12369984" x2="255.699798376" y1="633.416954331" y2="633.11854388" /><line stroke="rgb(0%,0%,0%)" x1="200.705715883" x2="206.98364269" y1="625.455239229" y2="627.492619366" /><line stroke="rgb(0%,0%,0%)" x1="191.643144796" x2="193.083179716" y1="621.814621341" y2="622.304708468" /><line stroke="rgb(0%,0%,0%)" x1="196.148839807" x2="193.083179716" y1="623.215985594" y2="622.304708468" /><line stroke="rgb(0%,0%,0%)" x1="196.148839807" x2="200.705715883" y1="623.215985594" y2="625.455239229" /><line stroke="rgb(0%,0%,0%)" x1="206.98364269" x2="208.21491261" y1="627.492619366" y2="628.300956263" /><line stroke="rgb(0%,0%,0%)" x1="223.002387262" x2="227.394404644" y1="633.304352924" y2="634.146264997" /><line stroke="rgb(0%,0%,0%)" x1="218.33059468" x2="223.002387262" y1="631.765619088" y2="633.304352924" /><line stroke="rgb(0%,0%,0%)" x1="227.394404644" x2="230.17068393" y1="634.146264997" y2="634.466321777" /><line stroke="rgb(0%,0%,0%)" x1="128.350309335" x2="146.333800188" y1="601.629236512" y2="605.376245107" /><line stroke="rgb(0%,0%,0%)" x1="178.146931487" x2="158.450294582" y1="616.990695027" y2="608.6065707" /><line stroke="rgb(0%,0%,0%)" x1="153.983959768" x2="158.450294582" y1="606.976763244" y2="608.6065707" /><line stroke="rgb(0%,0%,0%)" x1="178.146931487" x2="183.458751881" y1="616.990695027" y2="618.266479299" /><line stroke="rgb(0%,0%,0%)" x1="190.773942916" x2="191.643144796" y1="621.493931344" y2="621.814621341" /><line stroke="rgb(0%,0%,0%)" x1="183.458751881" x2="190.773942916" y1="618.266479299" y2="621.493931344" /><line stroke="rgb(0%,0%,0%)" x1="98.4067136598" x2="104.946934761" y1="589.805083451" y2="594.514216926" /><line stroke="rgb(0%,0%,0%)" x1="98.4067136598" x2="93.6064390121" y1="589.805083451" y2="585.390641573" /><line stroke="rgb(0%,0%,0%)" x1="113.850489353" x2="123.881278201" y1="597.451331086" y2="601.763233157" /><line stroke="rgb(0%,0%,0%)" x1="113.850489353" x2="104.946934761" y1="597.451331086" y2="594.514216926" /><line stroke="rgb(0%,0%,0%)" x1="123.881278201" x2="128.350309335" y1="601.763233157" y2="601.629236512" /><line stroke="rgb(0%,0%,0%)" x1="151.793016398" x2="153.983959768" y1="606.296160276" y2="606.976763244" /><line stroke="rgb(0%,0%,0%)" x1="74.531814403" x2="83.2411096298" y1="566.644856127" y2="572.877217407" /><line stroke="rgb(0%,0%,0%)" x1="74.531814403" x2="67.4896807763" y1="566.644856127" y2="560.440346708" /><line stroke="rgb(0%,0%,0%)" x1="67.0735883296" x2="66.0984242415" y1="544.989202159" y2="547.214322727" /><line stroke="rgb(0%,0%,0%)" x1="72.5756995094" x2="72.3181302668" y1="538.171257688" y2="538.638464779" /><line stroke="rgb(0%,0%,0%)" x1="72.3181302668" x2="67.0735883296" y1="538.638464779" y2="544.989202159" /><line stroke="rgb(0%,0%,0%)" x1="72.1967721577" x2="72.5756995094" y1="537.951493562" y2="538.171257688" /><line stroke="rgb(0%,0%,0%)" x1="72.1967721577" x2="69.6852007828" y1="537.951493562" y2="537.108297578" /><line stroke="rgb(0%,0%,0%)" x1="85.3081805205" x2="88.7265995668" y1="575.495131529" y2="580.127040203" /><line stroke="rgb(0%,0%,0%)" x1="88.7265995668" x2="89.7320269165" y1="580.127040203" y2="581.412228109" /><line stroke="rgb(0%,0%,0%)" x1="146.333800188" x2="151.793016398" y1="605.376245107" y2="606.296160276" /><line stroke="rgb(0%,0%,0%)" x1="29.3506057422" x2="28.8342801012" y1="488.068774717" y2="487.227011401" /><line stroke="rgb(0%,0%,0%)" x1="29.3506057422" x2="29.5230386313" y1="488.068774717" y2="491.657571356" /><line stroke="rgb(0%,0%,0%)" x1="21.4488611809" x2="21.9702669049" y1="476.271026185" y2="477.355998367" /><line stroke="rgb(0%,0%,0%)" x1="21.4488611809" x2="21.7974913134" y1="476.271026185" y2="471.288354939" /><line stroke="rgb(0%,0%,0%)" x1="41.352979238" x2="40.5726339385" y1="510.873909316" y2="508.166205666" /><line stroke="rgb(0%,0%,0%)" x1="41.352979238" x2="42.6499711499" y1="510.873909316" y2="513.912267208" /><line stroke="rgb(0%,0%,0%)" x1="40.5535178039" x2="40.5726339385" y1="502.897621518" y2="508.166205666" /><line stroke="rgb(0%,0%,0%)" x1="40.5535178039" x2="39.0256806379" y1="502.897621518" y2="501.223143992" /><line stroke="rgb(0%,0%,0%)" x1="46.7793209479" x2="52.0506910041" y1="520.88421217" y2="527.508794606" /><line stroke="rgb(0%,0%,0%)" x1="42.6499711499" x2="46.7793209479" y1="513.912267208" y2="520.88421217" /><line stroke="rgb(0%,0%,0%)" x1="65.9311868227" x2="66.6844232616" y1="558.265881699" y2="559.16636489" /><line stroke="rgb(0%,0%,0%)" x1="65.5290717157" x2="65.9311868227" y1="553.988815583" y2="558.265881699" /><line stroke="rgb(0%,0%,0%)" x1="64.8575302823" x2="65.5290717157" y1="550.213107285" y2="553.988815583" /><line stroke="rgb(0%,0%,0%)" x1="66.0984242415" x2="64.8575302823" y1="547.214322727" y2="550.213107285" /><line stroke="rgb(0%,0%,0%)" x1="65.2535729055" x2="69.6852007828" y1="535.204385672" y2="537.108297578" /><line stroke="rgb(0%,0%,0%)" x1="64.6815716883" x2="65.2535729055" y1="534.901346274" y2="535.204385672" /><line stroke="rgb(0%,0%,0%)" x1="64.6815716883" x2="52.2167073905" y1="534.901346274" y2="527.629367158" /><line stroke="rgb(0%,0%,0%)" x1="52.0506910041" x2="52.2167073905" y1="527.508794606" y2="527.629367158" /><line stroke="rgb(0%,0%,0%)" x1="83.2411096298" x2="85.3081805205" y1="572.877217407" y2="575.495131529" /><line stroke="rgb(0%,0%,0%)" x1="66.6844232616" x2="67.4896807763" y1="559.16636489" y2="560.440346708" /><line stroke="rgb(0%,0%,0%)" x1="89.7320269165" x2="93.6064390121" y1="581.412228109" y2="585.390641573" /><line stroke="rgb(0%,0%,0%)" x1="26.1840209056" x2="28.8342801012" y1="485.071691474" y2="487.227011401" /><line stroke="rgb(0%,0%,0%)" x1="23.7405137122" x2="26.1840209056" y1="482.544860332" y2="485.071691474" /><line stroke="rgb(0%,0%,0%)" x1="21.9702669049" x2="23.7405137122" y1="477.355998367" y2="482.544860332" /><line stroke="rgb(0%,0%,0%)" x1="22.008420842" x2="21.7974913134" y1="467.792477323" y2="471.288354939" /><line stroke="rgb(0%,0%,0%)" x1="25.6056236974" x2="27.9494452688" y1="463.63853979" y2="461.792005672" /><line stroke="rgb(0%,0%,0%)" x1="23.9134593591" x2="22.008420842" y1="465.444533589" y2="467.792477323" /><line stroke="rgb(0%,0%,0%)" x1="25.6056236974" x2="23.9134593591" y1="463.63853979" y2="465.444533589" /><line stroke="rgb(0%,0%,0%)" x1="39.0256806379" x2="33.1834827876" y1="501.223143992" y2="497.929232448" /><line stroke="rgb(0%,0%,0%)" x1="32.9798499216" x2="33.1834827876" y1="497.790884067" y2="497.929232448" /><line stroke="rgb(0%,0%,0%)" x1="29.5767208894" x2="32.9798499216" y1="492.368352797" y2="497.790884067" /><line stroke="rgb(0%,0%,0%)" x1="29.5230386313" x2="29.5767208894" y1="491.657571356" y2="492.368352797" /><line stroke="rgb(0%,0%,0%)" x1="482.339139267" x2="474.011810585" y1="531.861636197" y2="540.727993162" /><line stroke="rgb(0%,0%,0%)" x1="482.339139267" x2="487.185523137" y1="531.861636197" y2="526.86581626" /><line stroke="rgb(0%,0%,0%)" x1="488.040904116" x2="487.185523137" y1="525.802824404" y2="526.86581626" /><line stroke="rgb(0%,0%,0%)" x1="488.040904116" x2="493.360951655" y1="525.802824404" y2="518.018301121" /><line stroke="rgb(0%,0%,0%)" x1="493.360951655" x2="493.93864199" y1="518.018301121" y2="517.175893556" /><line stroke="rgb(0%,0%,0%)" x1="493.93864199" x2="494.419579151" y1="517.175893556" y2="516.18647969" /><line stroke="rgb(0%,0%,0%)" x1="494.419579151" x2="495.037771673" y1="516.18647969" y2="513.173334159" /><line stroke="rgb(0%,0%,0%)" x1="495.037771673" x2="497.44490196" y1="513.173334159" y2="508.082310216" /><line stroke="rgb(0%,0%,0%)" x1="497.56077665" x2="497.44490196" y1="507.639581833" y2="508.082310216" /><line stroke="rgb(0%,0%,0%)" x1="497.56077665" x2="501.955400503" y1="507.639581833" y2="499.144274801" /><line stroke="rgb(0%,0%,0%)" x1="501.955400503" x2="504.031941566" y1="499.144274801" y2="494.003528958" /><line stroke="rgb(0%,0%,0%)" x1="504.031941566" x2="505.730722794" y1="494.003528958" y2="488.73032337" /><line stroke="rgb(0%,0%,0%)" x1="508.198890791" x2="505.730722794" y1="482.785814057" y2="488.73032337" /><line stroke="rgb(0%,0%,0%)" x1="508.198890791" x2="508.211648346" y1="482.785814057" y2="476.772170183" /><line stroke="rgb(0%,0%,0%)" x1="508.211648346" x2="508.900871031" y1="476.772170183" y2="475.038415218" /><line stroke="rgb(0%,0%,0%)" x1="508.989753417" x2="508.900871031" y1="472.947068981" y2="475.038415218" /><line stroke="rgb(0%,0%,0%)" x1="509.270593515" x2="509.726521353" y1="469.005602291" y2="464.512317196" /><line stroke="rgb(0%,0%,0%)" x1="508.989753417" x2="509.270593515" y1="472.947068981" y2="469.005602291" /><line stroke="rgb(0%,0%,0%)" x1="509.726521353" x2="509.664388108" y1="464.512317196" y2="460.035325437" /><line stroke="rgb(0%,0%,0%)" x1="452.584436424" x2="451.81760665" y1="560.797359926" y2="562.092401066" /><line stroke="rgb(0%,0%,0%)" x1="460.929602599" x2="460.235245747" y1="553.403415981" y2="554.265368325" /><line stroke="rgb(0%,0%,0%)" x1="460.929602599" x2="461.857880728" y1="553.403415981" y2="552.442585186" /><line stroke="rgb(0%,0%,0%)" x1="452.584436424" x2="460.235245747" y1="560.797359926" y2="554.265368325" /><line stroke="rgb(0%,0%,0%)" x1="463.328959572" x2="461.857880728" y1="551.11523272" y2="552.442585186" /><line stroke="rgb(0%,0%,0%)" x1="466.36031359" x2="469.012228417" y1="547.902850552" y2="545.601002356" /><line stroke="rgb(0%,0%,0%)" x1="469.012228417" x2="471.510302114" y1="545.601002356" y2="543.201703876" /><line stroke="rgb(0%,0%,0%)" x1="463.328959572" x2="466.36031359" y1="551.11523272" y2="547.902850552" /><line stroke="rgb(0%,0%,0%)" x1="471.510302114" x2="474.011810585" y1="543.201703876" y2="540.727993162" /><line stroke="rgb(0%,0%,0%)" x1="27.3499749185" x2="27.9494452688" y1="460.985592807" y2="461.792005672" /><line stroke="rgb(0%,0%,0%)" x1="24.1998734654" x2="27.3499749185" y1="458.42635794" y2="460.985592807" /><line stroke="rgb(0%,0%,0%)" x1="509.659988218" x2="509.486827854" y1="458.499164973" y2="457.792530477" /><line stroke="rgb(0%,0%,0%)" x1="509.664388108" x2="509.514910799" y1="460.035325437" y2="458.849677146" /><line stroke="rgb(0%,0%,0%)" x1="509.514910799" x2="509.659988218" y1="458.849677146" y2="458.499164973" /></svg>