<?xml version="1.0" encoding="utf-8" ?>
<svg baseProfile="full" height="100%" version="1.1" viewBox="0.5 0.5 685.793960571 941.299331665" width="100%" xmlns="http://www.w3.org/2000/svg" xmlns:ev="http://www.w3.org/2001/xml-events" xmlns:xlink="http://www.w3.org/1999/xlink"><defs /><line stroke="rgb(0%,0%,0%)" x1="509.865290231" x2="510.37420627" y1="451.964025221" y2="446.128571178" /><line stroke="rgb(0%,0%,0%)" x1="510.37420627" x2="509.672800499" y1="446.128571178" y2="443.112029243" /><line stroke="rgb(0%,0%,0%)" x1="508.329752474" x2="509.672800499" y1="439.677364582" y2="443.112029243" /><line stroke="rgb(0%,0%,0%)" x1="508.329752474" x2="508.494184285" y1="439.677364582" y2="437.516426665" /><line stroke="rgb(0%,0%,0%)" x1="508.494184285" x2="507.905288091" y1="437.516426665" y2="433.466024669" /><line stroke="rgb(0%,0%,0%)" x1="507.905288091" x2="506.44464911" y1="433.466024669" y2="428.925729455" /><line stroke="rgb(0%,0%,0%)" x1="506.44464911" x2="506.157329512" y1="428.925729455" y2="427.719214893" /><line stroke="rgb(0%,0%,0%)" x1="440.507471692" x2="445.835804574" y1="344.013044227" y2="349.538402059" /><line stroke="rgb(0%,0%,0%)" x1="440.507471692" x2="434.451157057" y1="344.013044227" y2="335.255402026" /><line stroke="rgb(0%,0%,0%)" x1="434.451157057" x2="429.370469384" y1="335.255402026" y2="330.003599754" /><line stroke="rgb(0%,0%,0%)" x1="429.370469384" x2="425.216539093" y1="330.003599754" y2="325.428541668" /><line stroke="rgb(0%,0%,0%)" x1="452.430757954" x2="451.548819026" y1="357.479501989" y2="356.549559957" /><line stroke="rgb(0%,0%,0%)" x1="446.762321968" x2="451.548819026" y1="350.481225465" y2="356.549559957" /><line stroke="rgb(0%,0%,0%)" x1="446.762321968" x2="445.835804574" y1="350.481225465" y2="349.538402059" /><line stroke="rgb(0%,0%,0%)" x1="374.702906455" x2="381.054098692" y1="294.579840768" y2="297.050644213" /><line stroke="rgb(0%,0%,0%)" x1="392.683054678" x2="391.137001396" y1="300.305479888" y2="299.037490253" /><line stroke="rgb(0%,0%,0%)" x1="395.134948145" x2="392.683054678" y1="302.163472312" y2="300.305479888" /><line stroke="rgb(0%,0%,0%)" x1="404.339384563" x2="408.050065713" y1="307.579171966" y2="311.153117758" /><line stroke="rgb(0%,0%,0%)" x1="404.339384563" x2="395.134948145" y1="307.579171966" y2="302.163472312" /><line stroke="rgb(0%,0%,0%)" x1="419.741145708" x2="425.216539093" y1="320.046628221" y2="325.428541668" /><line stroke="rgb(0%,0%,0%)" x1="419.741145708" x2="412.859913739" y1="320.046628221" y2="314.930805494" /><line stroke="rgb(0%,0%,0%)" x1="412.859913739" x2="408.050065713" y1="314.930805494" y2="311.153117758" /><line stroke="rgb(0%,0%,0%)" x1="354.089221092" x2="356.789739178" y1="290.872202541" y2="292.701551974" /><line stroke="rgb(0%,0%,0%)" x1="366.106450094" x2="365.653519318" y1="293.53639175" y2="293.573442365" /><line stroke="rgb(0%,0%,0%)" x1="366.106450094" x2="366.793815847" y1="293.53639175" y2="293.762711416" /><line stroke="rgb(0%,0%,0%)" x1="365.653519318" x2="356.789739178" y1="293.573442365" y2="292.701551974" /><line stroke="rgb(0%,0%,0%)" x1="370.767919885" x2="366.793815847" y1="294.812428589" y2="293.762711416" /><line stroke="rgb(0%,0%,0%)" x1="382.070628239" x2="381.054098692" y1="297.271823436" y2="297.050644213" /><line stroke="rgb(0%,0%,0%)" x1="374.702906455" x2="372.285576989" y1="294.579840768" y2="295.154286356" /><line stroke="rgb(0%,0%,0%)" x1="391.137001396" x2="385.348805947" y1="299.037490253" y2="298.084670204" /><line stroke="rgb(0%,0%,0%)" x1="385.348805947" x2="382.711750271" y1="298.084670204" y2="297.68503001" /><line stroke="rgb(0%,0%,0%)" x1="382.711750271" x2="382.070628239" y1="297.68503001" y2="297.271823436" /><line stroke="rgb(0%,0%,0%)" x1="293.426975867" x2="290.547169613" y1="286.650543573" y2="286.478101727" /><line stroke="rgb(0%,0%,0%)" x1="293.426975867" x2="295.437887691" y1="286.650543573" y2="285.898710428" /><line stroke="rgb(0%,0%,0%)" x1="306.974618676" x2="302.667162525" y1="285.127957766" y2="284.95817739" /><line stroke="rgb(0%,0%,0%)" x1="326.96380891" x2="326.275663621" y1="282.558230393" y2="282.489903514" /><line stroke="rgb(0%,0%,0%)" x1="326.96380891" x2="327.604743275" y1="282.558230393" y2="282.513897001" /><line stroke="rgb(0%,0%,0%)" x1="326.275663621" x2="320.61722608" y1="282.489903514" y2="281.481352925" /><line stroke="rgb(0%,0%,0%)" x1="327.604743275" x2="329.745661458" y1="282.513897001" y2="283.816376622" /><line stroke="rgb(0%,0%,0%)" x1="333.281515543" x2="329.745661458" y1="285.550609288" y2="283.816376622" /><line stroke="rgb(0%,0%,0%)" x1="340.442112841" x2="340.283222458" y1="289.886271008" y2="289.787830853" /><line stroke="rgb(0%,0%,0%)" x1="343.697687942" x2="340.442112841" y1="289.360349646" y2="289.886271008" /><line stroke="rgb(0%,0%,0%)" x1="333.281515543" x2="340.283222458" y1="285.550609288" y2="289.787830853" /><line stroke="rgb(0%,0%,0%)" x1="354.089221092" x2="343.697687942" y1="290.872202541" y2="289.360349646" /><line stroke="rgb(0%,0%,0%)" x1="372.285576989" x2="371.300817872" y1="295.154286356" y2="294.841531696" /><line stroke="rgb(0%,0%,0%)" x1="371.300817872" x2="370.767919885" y1="294.841531696" y2="294.812428589" /><line stroke="rgb(0%,0%,0%)" x1="241.866142225" x2="242.195053402" y1="284.008444065" y2="284.038987041" /><line stroke="rgb(0%,0%,0%)" x1="270.161715028" x2="270.390935297" y1="287.110492054" y2="287.170059605" /><line stroke="rgb(0%,0%,0%)" x1="270.161715028" x2="269.143216766" y1="287.110492054" y2="287.008215692" /><line stroke="rgb(0%,0%,0%)" x1="270.581670688" x2="270.390935297" y1="287.093101954" y2="287.170059605" /><line stroke="rgb(0%,0%,0%)" x1="270.581670688" x2="270.876103684" y1="287.093101954" y2="287.142322795" /><line stroke="rgb(0%,0%,0%)" x1="279.971201732" x2="270.876103684" y1="287.472767281" y2="287.142322795" /><line stroke="rgb(0%,0%,0%)" x1="283.727605078" x2="279.971201732" y1="286.615800522" y2="287.472767281" /><line stroke="rgb(0%,0%,0%)" x1="299.864959749" x2="295.437887691" y1="285.658204396" y2="285.898710428" /><line stroke="rgb(0%,0%,0%)" x1="313.752122674" x2="318.38360825" y1="284.34884635" y2="284.180345873" /><line stroke="rgb(0%,0%,0%)" x1="313.752122674" x2="306.974618676" y1="284.34884635" y2="285.127957766" /><line stroke="rgb(0%,0%,0%)" x1="320.61722608" x2="318.38360825" y1="281.481352925" y2="284.180345873" /><line stroke="rgb(0%,0%,0%)" x1="241.866142225" x2="240.783803563" y1="284.008444065" y2="283.858929733" /><line stroke="rgb(0%,0%,0%)" x1="242.195053402" x2="245.79414712" y1="284.038987041" y2="284.861388499" /><line stroke="rgb(0%,0%,0%)" x1="290.547169613" x2="283.727605078" y1="286.478101727" y2="286.615800522" /><line stroke="rgb(0%,0%,0%)" x1="302.667162525" x2="299.864959749" y1="284.95817739" y2="285.658204396" /><line stroke="rgb(0%,0%,0%)" x1="220.315835069" x2="220.007534524" y1="282.403173987" y2="282.403755421" /><line stroke="rgb(0%,0%,0%)" x1="220.315835069" x2="220.591707221" y1="282.403173987" y2="282.352987967" /><line stroke="rgb(0%,0%,0%)" x1="220.007534524" x2="211.928473513" y1="282.403755421" y2="283.203107822" /><line stroke="rgb(0%,0%,0%)" x1="240.783803563" x2="226.737243422" y1="283.858929733" y2="282.412368486" /><line stroke="rgb(0%,0%,0%)" x1="269.143216766" x2="265.707099234" y1="287.008215692" y2="286.816816169" /><line stroke="rgb(0%,0%,0%)" x1="250.182445596" x2="245.79414712" y1="285.864400154" y2="284.861388499" /><line stroke="rgb(0%,0%,0%)" x1="265.707099234" x2="250.182445596" y1="286.816816169" y2="285.864400154" /><line stroke="rgb(0%,0%,0%)" x1="161.064283105" x2="157.116572888" y1="297.573083063" y2="299.29414968" /><line stroke="rgb(0%,0%,0%)" x1="161.064283105" x2="167.532153796" y1="297.573083063" y2="294.61131884" /><line stroke="rgb(0%,0%,0%)" x1="190.384714849" x2="187.250535764" y1="286.256280926" y2="287.315941979" /><line stroke="rgb(0%,0%,0%)" x1="187.250535764" x2="184.4041344" y1="287.315941979" y2="288.017524882" /><line stroke="rgb(0%,0%,0%)" x1="196.169744655" x2="200.35671668" y1="285.028752235" y2="284.461392877" /><line stroke="rgb(0%,0%,0%)" x1="211.144549979" x2="209.2357444" y1="283.569733168" y2="283.572441433" /><line stroke="rgb(0%,0%,0%)" x1="211.144549979" x2="211.928473513" y1="283.569733168" y2="283.203107822" /><line stroke="rgb(0%,0%,0%)" x1="226.737243422" x2="223.496797296" y1="282.412368486" y2="282.431811996" /><line stroke="rgb(0%,0%,0%)" x1="223.496797296" x2="220.591707221" y1="282.431811996" y2="282.352987967" /><line stroke="rgb(0%,0%,0%)" x1="157.116572888" x2="140.475377904" y1="299.29414968" y2="307.230946937" /><line stroke="rgb(0%,0%,0%)" x1="172.867914648" x2="167.532153796" y1="292.065213139" y2="294.61131884" /><line stroke="rgb(0%,0%,0%)" x1="177.676221882" x2="172.867914648" y1="290.237948748" y2="292.065213139" /><line stroke="rgb(0%,0%,0%)" x1="184.4041344" x2="182.42142009" y1="288.017524882" y2="288.800050828" /><line stroke="rgb(0%,0%,0%)" x1="182.42142009" x2="177.676221882" y1="288.800050828" y2="290.237948748" /><line stroke="rgb(0%,0%,0%)" x1="196.169744655" x2="190.384714849" y1="285.028752235" y2="286.256280926" /><line stroke="rgb(0%,0%,0%)" x1="206.888877644" x2="200.35671668" y1="284.096289605" y2="284.461392877" /><line stroke="rgb(0%,0%,0%)" x1="209.2357444" x2="206.888877644" y1="283.572441433" y2="284.096289605" /><line stroke="rgb(0%,0%,0%)" x1="103.834218863" x2="103.072083504" y1="321.659266938" y2="322.235899317" /><line stroke="rgb(0%,0%,0%)" x1="103.834218863" x2="108.140851947" y1="321.659266938" y2="319.37210869" /><line stroke="rgb(0%,0%,0%)" x1="91.4710406856" x2="89.2235229529" y1="330.822895647" y2="333.381241812" /><line stroke="rgb(0%,0%,0%)" x1="103.072083504" x2="91.4710406856" y1="322.235899317" y2="330.822895647" /><line stroke="rgb(0%,0%,0%)" x1="116.545099" x2="108.140851947" y1="315.408257585" y2="319.37210869" /><line stroke="rgb(0%,0%,0%)" x1="131.922255213" x2="118.767654159" y1="310.460721854" y2="314.457607619" /><line stroke="rgb(0%,0%,0%)" x1="140.475377904" x2="131.922255213" y1="307.230946937" y2="310.460721854" /><line stroke="rgb(0%,0%,0%)" x1="63.8873548043" x2="63.2284743932" y1="385.611278667" y2="385.977546418" /><line stroke="rgb(0%,0%,0%)" x1="64.3050220871" x2="63.8873548043" y1="385.486261426" y2="385.611278667" /><line stroke="rgb(0%,0%,0%)" x1="67.1471944533" x2="64.3050220871" y1="383.287368797" y2="385.486261426" /><line stroke="rgb(0%,0%,0%)" x1="67.1471944533" x2="62.795302649" y1="383.287368797" y2="377.182935988" /><line stroke="rgb(0%,0%,0%)" x1="75.2516834268" x2="69.1455937553" y1="351.611777222" y2="358.522282809" /><line stroke="rgb(0%,0%,0%)" x1="69.1455937553" x2="67.9389638211" y1="358.522282809" y2="361.08303199" /><line stroke="rgb(0%,0%,0%)" x1="79.9367265783" x2="75.2516834268" y1="347.286291915" y2="351.611777222" /><line stroke="rgb(0%,0%,0%)" x1="79.9367265783" x2="81.8670020019" y1="347.286291915" y2="342.831272256" /><line stroke="rgb(0%,0%,0%)" x1="85.3033771764" x2="81.8670020019" y1="335.071955937" y2="342.831272256" /><line stroke="rgb(0%,0%,0%)" x1="86.148152123" x2="85.3033771764" y1="334.336047966" y2="335.071955937" /><line stroke="rgb(0%,0%,0%)" x1="89.2235229529" x2="86.148152123" y1="333.381241812" y2="334.336047966" /><line stroke="rgb(0%,0%,0%)" x1="118.767654159" x2="116.545099" y1="314.457607619" y2="315.408257585" /><line stroke="rgb(0%,0%,0%)" x1="24.3060170416" x2="24.0703682757" y1="442.413135541" y2="443.237224978" /><line stroke="rgb(0%,0%,0%)" x1="24.3060170416" x2="24.9337524559" y1="442.413135541" y2="441.309262387" /><line stroke="rgb(0%,0%,0%)" x1="44.4366742449" x2="42.529879564" y1="406.195814015" y2="412.715888962" /><line stroke="rgb(0%,0%,0%)" x1="44.4366742449" x2="48.0063176771" y1="406.195814015" y2="398.625762852" /><line stroke="rgb(0%,0%,0%)" x1="58.561992534" x2="54.2537728326" y1="389.015604135" y2="391.881446349" /><line stroke="rgb(0%,0%,0%)" x1="54.2537728326" x2="52.1276808415" y1="391.881446349" y2="393.526212505" /><line stroke="rgb(0%,0%,0%)" x1="63.2284743932" x2="58.561992534" y1="385.977546418" y2="389.015604135" /><line stroke="rgb(0%,0%,0%)" x1="62.3786104514" x2="62.795302649" y1="376.626349019" y2="377.182935988" /><line stroke="rgb(0%,0%,0%)" x1="62.4164590299" x2="62.3786104514" y1="375.939475035" y2="376.626349019" /><line stroke="rgb(0%,0%,0%)" x1="63.139970663" x2="62.4164590299" y1="373.595918387" y2="375.939475035" /><line stroke="rgb(0%,0%,0%)" x1="63.8720640696" x2="63.139970663" y1="372.828090871" y2="373.595918387" /><line stroke="rgb(0%,0%,0%)" x1="63.8720640696" x2="63.4263012637" y1="372.828090871" y2="369.857540783" /><line stroke="rgb(0%,0%,0%)" x1="66.0010817181" x2="63.4263012637" y1="364.180346679" y2="369.857540783" /><line stroke="rgb(0%,0%,0%)" x1="67.1987576785" x2="66.0010817181" y1="362.127433467" y2="364.180346679" /><line stroke="rgb(0%,0%,0%)" x1="67.9389638211" x2="67.1987576785" y1="361.08303199" y2="362.127433467" /><line stroke="rgb(0%,0%,0%)" x1="24.0703682757" x2="23.7947835395" y1="443.237224978" y2="450.893776922" /><line stroke="rgb(0%,0%,0%)" x1="25.2370056327" x2="25.4928640688" y1="458.55681687" y2="458.982431129" /><line stroke="rgb(0%,0%,0%)" x1="25.1977336688" x2="25.2370056327" y1="458.47679246" y2="458.55681687" /><line stroke="rgb(0%,0%,0%)" x1="25.1977336688" x2="23.7602904399" y1="458.47679246" y2="451.35898686" /><line stroke="rgb(0%,0%,0%)" x1="23.7947835395" x2="23.7602904399" y1="450.893776922" y2="451.35898686" /><line stroke="rgb(0%,0%,0%)" x1="26.969836997" x2="24.9337524559" y1="436.582737091" y2="441.309262387" /><line stroke="rgb(0%,0%,0%)" x1="28.4090849766" x2="26.969836997" y1="435.456442957" y2="436.582737091" /><line stroke="rgb(0%,0%,0%)" x1="29.9652966625" x2="28.4090849766" y1="433.220533597" y2="435.456442957" /><line stroke="rgb(0%,0%,0%)" x1="31.5347770923" x2="35.4979982322" y1="430.706998126" y2="422.541490672" /><line stroke="rgb(0%,0%,0%)" x1="31.5347770923" x2="29.9652966625" y1="430.706998126" y2="433.220533597" /><line stroke="rgb(0%,0%,0%)" x1="36.3854092463" x2="41.6871390211" y1="421.569066428" y2="415.267178445" /><line stroke="rgb(0%,0%,0%)" x1="42.529879564" x2="41.6871390211" y1="412.715888962" y2="415.267178445" /><line stroke="rgb(0%,0%,0%)" x1="48.316145382" x2="48.0063176771" y1="398.070937218" y2="398.625762852" /><line stroke="rgb(0%,0%,0%)" x1="51.2138477013" x2="48.316145382" y1="395.039910313" y2="398.070937218" /><line stroke="rgb(0%,0%,0%)" x1="52.1276808415" x2="51.2138477013" y1="393.526212505" y2="395.039910313" /><line stroke="rgb(0%,0%,0%)" x1="36.3854092463" x2="35.4979982322" y1="421.569066428" y2="422.541490672" /><line stroke="rgb(0%,0%,0%)" x1="506.069276643" x2="506.157329512" y1="426.939219787" y2="427.719214893" /><line stroke="rgb(0%,0%,0%)" x1="506.069276643" x2="505.084818974" y1="426.939219787" y2="424.174127111" /><line stroke="rgb(0%,0%,0%)" x1="501.720735002" x2="498.315675968" y1="414.022322953" y2="407.816561413" /><line stroke="rgb(0%,0%,0%)" x1="470.23519789" x2="470.351558418" y1="371.924481165" y2="372.022991606" /><line stroke="rgb(0%,0%,0%)" x1="470.23519789" x2="470.135102037" y1="371.924481165" y2="371.857798783" /><line stroke="rgb(0%,0%,0%)" x1="480.773908248" x2="477.619179127" y1="380.914161456" y2="378.816325183" /><line stroke="rgb(0%,0%,0%)" x1="472.754728142" x2="470.351558418" y1="375.230533538" y2="372.022991606" /><line stroke="rgb(0%,0%,0%)" x1="477.619179127" x2="472.754728142" y1="378.816325183" y2="375.230533538" /><line stroke="rgb(0%,0%,0%)" x1="496.391678198" x2="495.308485303" y1="405.261094926" y2="401.904738562" /><line stroke="rgb(0%,0%,0%)" x1="495.308485303" x2="491.340146068" y1="401.904738562" y2="393.145258803" /><line stroke="rgb(0%,0%,0%)" x1="486.118072937" x2="491.340146068" y1="388.089851143" y2="393.145258803" /><line stroke="rgb(0%,0%,0%)" x1="486.118072937" x2="480.773908248" y1="388.089851143" y2="380.914161456" /><line stroke="rgb(0%,0%,0%)" x1="505.084818974" x2="503.608015664" y1="424.174127111" y2="420.080257364" /><line stroke="rgb(0%,0%,0%)" x1="503.608015664" x2="501.720735002" y1="420.080257364" y2="414.022322953" /><line stroke="rgb(0%,0%,0%)" x1="498.315675968" x2="496.391678198" y1="407.816561413" y2="405.261094926" /><line stroke="rgb(0%,0%,0%)" x1="434.615050181" x2="438.788577086" y1="583.520256809" y2="578.668909365" /><line stroke="rgb(0%,0%,0%)" x1="438.788577086" x2="443.022157942" y1="578.668909365" y2="572.864303006" /><line stroke="rgb(0%,0%,0%)" x1="451.203484655" x2="451.703868595" y1="561.847450649" y2="561.296587224" /><line stroke="rgb(0%,0%,0%)" x1="456.24793807" x2="452.430757954" y1="361.262711878" y2="357.479501989" /><line stroke="rgb(0%,0%,0%)" x1="457.969187222" x2="456.24793807" y1="362.674217263" y2="361.262711878" /><line stroke="rgb(0%,0%,0%)" x1="470.135102037" x2="465.753140403" y1="371.857798783" y2="369.585745269" /><line stroke="rgb(0%,0%,0%)" x1="465.753140403" x2="463.111167228" y1="369.585745269" y2="367.235402594" /><line stroke="rgb(0%,0%,0%)" x1="463.111167228" x2="461.76232333" y1="367.235402594" y2="365.780645439" /><line stroke="rgb(0%,0%,0%)" x1="461.76232333" x2="459.176728514" y1="365.780645439" y2="363.690242659" /><line stroke="rgb(0%,0%,0%)" x1="459.176728514" x2="457.969187222" y1="363.690242659" y2="362.674217263" /><line stroke="rgb(0%,0%,0%)" x1="396.146185248" x2="388.597561307" y1="612.323056829" y2="617.102378566" /><line stroke="rgb(0%,0%,0%)" x1="419.098855975" x2="409.082689199" y1="600.215270377" y2="605.021154131" /><line stroke="rgb(0%,0%,0%)" x1="419.098855975" x2="420.946294683" y1="600.215270377" y2="598.695245469" /><line stroke="rgb(0%,0%,0%)" x1="426.156440614" x2="420.946294683" y1="593.243029449" y2="598.695245469" /><line stroke="rgb(0%,0%,0%)" x1="426.156440614" x2="434.615050181" y1="593.243029449" y2="583.520256809" /><line stroke="rgb(0%,0%,0%)" x1="443.022157942" x2="449.367869777" y1="572.864303006" y2="563.626095852" /><line stroke="rgb(0%,0%,0%)" x1="449.367869777" x2="451.203484655" y1="563.626095852" y2="561.847450649" /><line stroke="rgb(0%,0%,0%)" x1="370.400882224" x2="367.761889545" y1="623.235834089" y2="623.989143711" /><line stroke="rgb(0%,0%,0%)" x1="382.60054268" x2="388.597561307" y1="619.563720378" y2="617.102378566" /><line stroke="rgb(0%,0%,0%)" x1="376.906628598" x2="382.60054268" y1="621.516658315" y2="619.563720378" /><line stroke="rgb(0%,0%,0%)" x1="371.041800751" x2="370.400882224" y1="623.13735182" y2="623.235834089" /><line stroke="rgb(0%,0%,0%)" x1="371.041800751" x2="376.906628598" y1="623.13735182" y2="621.516658315" /><line stroke="rgb(0%,0%,0%)" x1="405.153390969" x2="407.331485068" y1="606.925799973" y2="605.63171684" /><line stroke="rgb(0%,0%,0%)" x1="396.146185248" x2="405.153390969" y1="612.323056829" y2="606.925799973" /><line stroke="rgb(0%,0%,0%)" x1="407.331485068" x2="409.082689199" y1="605.63171684" y2="605.021154131" /><line stroke="rgb(0%,0%,0%)" x1="337.829828594" x2="331.36143622" y1="628.830306309" y2="629.288614946" /><line stroke="rgb(0%,0%,0%)" x1="337.829828594" x2="344.180822012" y1="628.830306309" y2="627.271059342" /><line stroke="rgb(0%,0%,0%)" x1="344.180822012" x2="346.64361999" y1="627.271059342" y2="627.432045866" /><line stroke="rgb(0%,0%,0%)" x1="346.64361999" x2="351.429257325" y1="627.432045866" y2="624.016287896" /><line stroke="rgb(0%,0%,0%)" x1="353.301927151" x2="356.691327086" y1="623.764401152" y2="624.156441508" /><line stroke="rgb(0%,0%,0%)" x1="352.330566458" x2="351.429257325" y1="623.759840457" y2="624.016287896" /><line stroke="rgb(0%,0%,0%)" x1="352.330566458" x2="353.301927151" y1="623.759840457" y2="623.764401152" /><line stroke="rgb(0%,0%,0%)" x1="367.761889545" x2="360.39621663" y1="623.989143711" y2="623.850382817" /><line stroke="rgb(0%,0%,0%)" x1="356.691327086" x2="360.39621663" y1="624.156441508" y2="623.850382817" /><line stroke="rgb(0%,0%,0%)" x1="296.693667537" x2="298.613256598" y1="635.352738623" y2="634.89029913" /><line stroke="rgb(0%,0%,0%)" x1="308.757304336" x2="320.031211881" y1="634.125420545" y2="631.574308122" /><line stroke="rgb(0%,0%,0%)" x1="298.613256598" x2="303.275873661" y1="634.89029913" y2="634.114404103" /><line stroke="rgb(0%,0%,0%)" x1="303.275873661" x2="308.757304336" y1="634.114404103" y2="634.125420545" /><line stroke="rgb(0%,0%,0%)" x1="320.031211881" x2="326.782742062" y1="631.574308122" y2="630.142735704" /><line stroke="rgb(0%,0%,0%)" x1="326.782742062" x2="331.36143622" y1="630.142735704" y2="629.288614946" /><line stroke="rgb(0%,0%,0%)" x1="271.301950893" x2="269.741725169" y1="634.901217712" y2="634.940786285" /><line stroke="rgb(0%,0%,0%)" x1="271.51128336" x2="277.002335483" y1="634.876816391" y2="634.958227703" /><line stroke="rgb(0%,0%,0%)" x1="271.301950893" x2="271.51128336" y1="634.901217712" y2="634.876816391" /><line stroke="rgb(0%,0%,0%)" x1="278.334488565" x2="278.572359945" y1="634.965653579" y2="634.993473843" /><line stroke="rgb(0%,0%,0%)" x1="296.693667537" x2="278.572359945" y1="635.352738623" y2="634.993473843" /><line stroke="rgb(0%,0%,0%)" x1="209.769176903" x2="213.973953621" y1="630.311298952" y2="632.175146572" /><line stroke="rgb(0%,0%,0%)" x1="209.769176903" x2="208.331277179" y1="630.311298952" y2="629.958077482" /><line stroke="rgb(0%,0%,0%)" x1="215.640253592" x2="213.973953621" y1="632.870142349" y2="632.175146572" /><line stroke="rgb(0%,0%,0%)" x1="232.505171676" x2="238.065940156" y1="636.148172294" y2="635.686900326" /><line stroke="rgb(0%,0%,0%)" x1="232.505171676" x2="230.18390387" y1="636.148172294" y2="636.109610778" /><line stroke="rgb(0%,0%,0%)" x1="255.603891417" x2="258.450541965" y1="634.614956602" y2="634.760618454" /><line stroke="rgb(0%,0%,0%)" x1="241.691645967" x2="243.521771638" y1="635.698852667" y2="634.955860272" /><line stroke="rgb(0%,0%,0%)" x1="238.065940156" x2="241.691645967" y1="635.686900326" y2="635.698852667" /><line stroke="rgb(0%,0%,0%)" x1="243.521771638" x2="255.603891417" y1="634.955860272" y2="634.614956602" /><line stroke="rgb(0%,0%,0%)" x1="278.296961348" x2="278.334488565" y1="634.952807029" y2="634.965653579" /><line stroke="rgb(0%,0%,0%)" x1="277.002335483" x2="278.296961348" y1="634.958227703" y2="634.952807029" /><line stroke="rgb(0%,0%,0%)" x1="258.450541965" x2="269.741725169" y1="634.760618454" y2="634.940786285" /><line stroke="rgb(0%,0%,0%)" x1="207.96299698" x2="199.556226781" y1="629.716299081" y2="626.988043855" /><line stroke="rgb(0%,0%,0%)" x1="192.779697946" x2="198.961877853" y1="624.703944546" y2="626.807926017" /><line stroke="rgb(0%,0%,0%)" x1="207.96299698" x2="208.331277179" y1="629.716299081" y2="629.958077482" /><line stroke="rgb(0%,0%,0%)" x1="199.07295233" x2="199.556226781" y1="626.839900602" y2="626.988043855" /><line stroke="rgb(0%,0%,0%)" x1="221.682477349" x2="225.206850586" y1="634.860250851" y2="635.535842981" /><line stroke="rgb(0%,0%,0%)" x1="215.640253592" x2="221.682477349" y1="632.870142349" y2="634.860250851" /><line stroke="rgb(0%,0%,0%)" x1="225.206850586" x2="230.18390387" y1="635.535842981" y2="636.109610778" /><line stroke="rgb(0%,0%,0%)" x1="124.013915354" x2="131.023537574" y1="604.491820426" y2="605.952333011" /><line stroke="rgb(0%,0%,0%)" x1="183.31069536" x2="174.591716503" y1="621.279199082" y2="617.567854699" /><line stroke="rgb(0%,0%,0%)" x1="158.531784645" x2="174.591716503" y1="611.707434964" y2="617.567854699" /><line stroke="rgb(0%,0%,0%)" x1="183.31069536" x2="185.662043457" y1="621.279199082" y2="621.843941995" /><line stroke="rgb(0%,0%,0%)" x1="198.961877853" x2="199.07295233" y1="626.807926017" y2="626.839900602" /><line stroke="rgb(0%,0%,0%)" x1="188.900210271" x2="192.779697946" y1="623.27261666" y2="624.703944546" /><line stroke="rgb(0%,0%,0%)" x1="185.662043457" x2="188.900210271" y1="621.843941995" y2="623.27261666" /><line stroke="rgb(0%,0%,0%)" x1="102.582059486" x2="94.570256084" y1="596.767443026" y2="590.998731079" /><line stroke="rgb(0%,0%,0%)" x1="109.457357767" x2="122.271972135" y1="599.035473813" y2="604.544049767" /><line stroke="rgb(0%,0%,0%)" x1="109.457357767" x2="102.582059486" y1="599.035473813" y2="596.767443026" /><line stroke="rgb(0%,0%,0%)" x1="122.271972135" x2="124.013915354" y1="604.544049767" y2="604.491820426" /><line stroke="rgb(0%,0%,0%)" x1="150.653646822" x2="158.531784645" y1="609.260140316" y2="611.707434964" /><line stroke="rgb(0%,0%,0%)" x1="72.7452496411" x2="76.9813742912" y1="567.753451332" y2="570.784817081" /><line stroke="rgb(0%,0%,0%)" x1="72.7452496411" x2="69.3200177401" y1="567.753451332" y2="564.735632484" /><line stroke="rgb(0%,0%,0%)" x1="81.6444794443" x2="83.4870535001" y1="576.690569462" y2="579.187230823" /><line stroke="rgb(0%,0%,0%)" x1="83.4870535001" x2="85.8171698512" y1="579.187230823" y2="582.16570297" /><line stroke="rgb(0%,0%,0%)" x1="131.023537574" x2="150.653646822" y1="605.952333011" y2="609.260140316" /><line stroke="rgb(0%,0%,0%)" x1="40.5749358494" x2="40.3383821335" y1="509.798946725" y2="508.97813399" /><line stroke="rgb(0%,0%,0%)" x1="40.5749358494" x2="40.9681057146" y1="509.798946725" y2="510.719993921" /><line stroke="rgb(0%,0%,0%)" x1="40.308855537" x2="40.3383821335" y1="500.840329876" y2="508.97813399" /><line stroke="rgb(0%,0%,0%)" x1="40.308855537" x2="40.0818456795" y1="500.840329876" y2="500.591531828" /><line stroke="rgb(0%,0%,0%)" x1="47.4972100435" x2="50.5694342548" y1="521.743655818" y2="525.604550108" /><line stroke="rgb(0%,0%,0%)" x1="40.9681057146" x2="47.4972100435" y1="510.719993921" y2="521.743655818" /><line stroke="rgb(0%,0%,0%)" x1="63.7291021467" x2="66.4312501674" y1="556.934992451" y2="560.165371049" /><line stroke="rgb(0%,0%,0%)" x1="63.5198705842" x2="63.7291021467" y1="554.709517181" y2="556.934992451" /><line stroke="rgb(0%,0%,0%)" x1="62.1297156025" x2="63.5198705842" y1="546.893439959" y2="554.709517181" /><line stroke="rgb(0%,0%,0%)" x1="62.1297156025" x2="62.7369944588" y1="546.893439959" y2="545.425870194" /><line stroke="rgb(0%,0%,0%)" x1="62.9585083525" x2="62.7369944588" y1="542.441164886" y2="545.425870194" /><line stroke="rgb(0%,0%,0%)" x1="66.5361678645" x2="62.9585083525" y1="537.876712629" y2="542.441164886" /><line stroke="rgb(0%,0%,0%)" x1="67.781948894" x2="66.5361678645" y1="535.578181428" y2="537.876712629" /><line stroke="rgb(0%,0%,0%)" x1="63.6337043207" x2="67.781948894" y1="533.796016398" y2="535.578181428" /><line stroke="rgb(0%,0%,0%)" x1="61.5271133088" x2="63.6337043207" y1="532.679969694" y2="533.796016398" /><line stroke="rgb(0%,0%,0%)" x1="61.5271133088" x2="55.3480844083" y1="532.679969694" y2="529.075135494" /><line stroke="rgb(0%,0%,0%)" x1="50.5694342548" x2="55.3480844083" y1="525.604550108" y2="529.075135494" /><line stroke="rgb(0%,0%,0%)" x1="76.9813742912" x2="81.6444794443" y1="570.784817081" y2="576.690569462" /><line stroke="rgb(0%,0%,0%)" x1="66.4312501674" x2="69.3200177401" y1="560.165371049" y2="564.735632484" /><line stroke="rgb(0%,0%,0%)" x1="94.0499894405" x2="94.570256084" y1="590.507176485" y2="590.998731079" /><line stroke="rgb(0%,0%,0%)" x1="93.3433895697" x2="94.0499894405" y1="589.893950023" y2="590.507176485" /><line stroke="rgb(0%,0%,0%)" x1="85.8171698512" x2="93.3433895697" y1="582.16570297" y2="589.893950023" /><line stroke="rgb(0%,0%,0%)" x1="25.9108701607" x2="29.7038240569" y1="483.656986655" y2="486.741601597" /><line stroke="rgb(0%,0%,0%)" x1="24.2992632637" x2="25.9108701607" y1="481.99042373" y2="483.656986655" /><line stroke="rgb(0%,0%,0%)" x1="24.2992632637" x2="22.6227781485" y1="481.99042373" y2="477.07639151" /><line stroke="rgb(0%,0%,0%)" x1="22.7560256297" x2="22.3287527403" y1="467.22066619" y2="474.302148522" /><line stroke="rgb(0%,0%,0%)" x1="22.0870492078" x2="22.6227781485" y1="475.890061923" y2="477.07639151" /><line stroke="rgb(0%,0%,0%)" x1="22.3287527403" x2="22.0870492078" y1="474.302148522" y2="475.890061923" /><line stroke="rgb(0%,0%,0%)" x1="26.853861639" x2="27.6976465602" y1="462.613083708" y2="461.948324213" /><line stroke="rgb(0%,0%,0%)" x1="24.1728444679" x2="22.7560256297" y1="465.474449049" y2="467.22066619" /><line stroke="rgb(0%,0%,0%)" x1="26.853861639" x2="24.1728444679" y1="462.613083708" y2="465.474449049" /><line stroke="rgb(0%,0%,0%)" x1="40.0818456795" x2="39.2137973488" y1="500.591531828" y2="500.102114234" /><line stroke="rgb(0%,0%,0%)" x1="31.8628996753" x2="39.2137973488" y1="495.107906717" y2="500.102114234" /><line stroke="rgb(0%,0%,0%)" x1="30.7495068734" x2="31.8628996753" y1="493.33383138" y2="495.107906717" /><line stroke="rgb(0%,0%,0%)" x1="30.7495068734" x2="30.4230631274" y1="493.33383138" y2="489.011543833" /><line stroke="rgb(0%,0%,0%)" x1="29.7038240569" x2="30.040315348" y1="486.741601597" y2="487.05319032" /><line stroke="rgb(0%,0%,0%)" x1="30.112505036" x2="30.4230631274" y1="487.2548033" y2="489.011543833" /><line stroke="rgb(0%,0%,0%)" x1="30.040315348" x2="30.112505036" y1="487.05319032" y2="487.2548033" /><line stroke="rgb(0%,0%,0%)" x1="497.831553017" x2="493.464981269" y1="508.312074576" y2="516.445323434" /><line stroke="rgb(0%,0%,0%)" x1="497.831553017" x2="500.927725038" y1="508.312074576" y2="502.542180416" /><line stroke="rgb(0%,0%,0%)" x1="500.927725038" x2="502.676125923" y1="502.542180416" y2="497.120343709" /><line stroke="rgb(0%,0%,0%)" x1="502.676125923" x2="504.524141776" y1="497.120343709" y2="491.914567732" /><line stroke="rgb(0%,0%,0%)" x1="506.957506266" x2="504.524141776" y1="484.36113412" y2="491.914567732" /><line stroke="rgb(0%,0%,0%)" x1="508.210724481" x2="506.957506266" y1="481.34279527" y2="484.36113412" /><line stroke="rgb(0%,0%,0%)" x1="508.210724481" x2="508.21720216" y1="481.34279527" y2="478.289353181" /><line stroke="rgb(0%,0%,0%)" x1="508.21720216" x2="509.177090112" y1="478.289353181" y2="475.874733729" /><line stroke="rgb(0%,0%,0%)" x1="509.177090112" x2="509.732210876" y1="475.874733729" y2="472.672163698" /><line stroke="rgb(0%,0%,0%)" x1="509.732210876" x2="510.51237046" y1="472.672163698" y2="466.055560036" /><line stroke="rgb(0%,0%,0%)" x1="510.51237046" x2="510.668156322" y1="466.055560036" y2="463.821818398" /><line stroke="rgb(0%,0%,0%)" x1="451.703868595" x2="454.714487167" y1="561.296587224" y2="558.648732112" /><line stroke="rgb(0%,0%,0%)" x1="460.650929894" x2="454.714487167" y1="553.586277015" y2="558.648732112" /><line stroke="rgb(0%,0%,0%)" x1="460.650929894" x2="462.229086528" y1="553.586277015" y2="552.823244886" /><line stroke="rgb(0%,0%,0%)" x1="466.121098004" x2="462.229086528" y1="549.444999288" y2="552.823244886" /><line stroke="rgb(0%,0%,0%)" x1="466.121098004" x2="473.671013258" y1="549.444999288" y2="542.193611863" /><line stroke="rgb(0%,0%,0%)" x1="473.671013258" x2="473.717903171" y1="542.193611863" y2="542.158712565" /><line stroke="rgb(0%,0%,0%)" x1="473.717903171" x2="473.725011587" y1="542.158712565" y2="542.148576143" /><line stroke="rgb(0%,0%,0%)" x1="473.725011587" x2="473.845249141" y1="542.148576143" y2="542.054210996" /><line stroke="rgb(0%,0%,0%)" x1="480.62663764" x2="473.845249141" y1="535.838358595" y2="542.054210996" /><line stroke="rgb(0%,0%,0%)" x1="484.47295057" x2="480.62663764" y1="532.1872063" y2="535.838358595" /><line stroke="rgb(0%,0%,0%)" x1="484.47295057" x2="487.322924025" y1="532.1872063" y2="528.823103669" /><line stroke="rgb(0%,0%,0%)" x1="487.322924025" x2="488.62772223" y1="528.823103669" y2="525.648489887" /><line stroke="rgb(0%,0%,0%)" x1="492.71641986" x2="488.62772223" y1="518.913752654" y2="525.648489887" /><line stroke="rgb(0%,0%,0%)" x1="492.71641986" x2="492.81711546" y1="518.913752654" y2="517.54132862" /><line stroke="rgb(0%,0%,0%)" x1="492.81711546" x2="492.997391466" y1="517.54132862" y2="517.312334609" /><line stroke="rgb(0%,0%,0%)" x1="492.997391466" x2="493.464981269" y1="517.312334609" y2="516.445323434" /><line stroke="rgb(0%,0%,0%)" x1="27.6976465602" x2="25.4928640688" y1="461.948324213" y2="458.982431129" /><line stroke="rgb(0%,0%,0%)" x1="511.004514981" x2="509.865290231" y1="456.612984661" y2="451.964025221" /><line stroke="rgb(0%,0%,0%)" x1="510.050048365" x2="510.668156322" y1="458.919009749" y2="463.821818398" /><line stroke="rgb(0%,0%,0%)" x1="510.050048365" x2="511.004514981" y1="458.919009749" y2="456.612984661" /></svg>