<?xml version="1.0" encoding="utf-8" ?>
<svg baseProfile="full" height="100%" version="1.1" viewBox="0.5 0.5 685.793960571 941.299331665" width="100%" xmlns="http://www.w3.org/2000/svg" xmlns:ev="http://www.w3.org/2001/xml-events" xmlns:xlink="http://www.w3.org/1999/xlink"><defs /><line stroke="rgb(0%,0%,0%)" x1="510.149137014" x2="510.344487993" y1="447.592646279" y2="445.352666459" /><line stroke="rgb(0%,0%,0%)" x1="510.344487993" x2="508.469500735" y1="445.352666459" y2="437.288892366" /><line stroke="rgb(0%,0%,0%)" x1="508.229718529" x2="508.469500735" y1="436.675681628" y2="437.288892366" /><line stroke="rgb(0%,0%,0%)" x1="508.229718529" x2="508.2590755" y1="436.675681628" y2="436.289876763" /><line stroke="rgb(0%,0%,0%)" x1="508.2590755" x2="508.153936424" y1="436.289876763" y2="435.566734843" /><line stroke="rgb(0%,0%,0%)" x1="508.153936424" x2="505.450904147" y1="435.566734843" y2="427.164546028" /><line stroke="rgb(0%,0%,0%)" x1="505.450904147" x2="505.191345809" y1="427.164546028" y2="426.074606752" /><line stroke="rgb(0%,0%,0%)" x1="505.191345809" x2="504.129741849" y1="426.074606752" y2="423.68985309" /><line stroke="rgb(0%,0%,0%)" x1="432.715695534" x2="442.626268455" y1="331.769302527" y2="346.106667377" /><line stroke="rgb(0%,0%,0%)" x1="422.310325476" x2="427.07724444" y1="320.194916555" y2="325.445108451" /><line stroke="rgb(0%,0%,0%)" x1="452.543341613" x2="450.638697268" y1="356.929027549" y2="355.381177036" /><line stroke="rgb(0%,0%,0%)" x1="448.582516823" x2="450.638697268" y1="353.213080629" y2="355.381177036" /><line stroke="rgb(0%,0%,0%)" x1="445.833980693" x2="448.582516823" y1="349.728478759" y2="353.213080629" /><line stroke="rgb(0%,0%,0%)" x1="445.833980693" x2="443.016524751" y1="349.728478759" y2="346.861437705" /><line stroke="rgb(0%,0%,0%)" x1="443.016524751" x2="442.626268455" y1="346.861437705" y2="346.106667377" /><line stroke="rgb(0%,0%,0%)" x1="374.97821905" x2="376.390728966" y1="293.726417468" y2="294.275926007" /><line stroke="rgb(0%,0%,0%)" x1="401.419786567" x2="403.597767487" y1="303.749421763" y2="305.847145988" /><line stroke="rgb(0%,0%,0%)" x1="401.419786567" x2="392.203836746" y1="303.749421763" y2="298.32694786" /><line stroke="rgb(0%,0%,0%)" x1="421.802004454" x2="422.310325476" y1="319.695273963" y2="320.194916555" /><line stroke="rgb(0%,0%,0%)" x1="421.802004454" x2="411.087205014" y1="319.695273963" y2="311.729401757" /><line stroke="rgb(0%,0%,0%)" x1="411.087205014" x2="403.597767487" y1="311.729401757" y2="305.847145988" /><line stroke="rgb(0%,0%,0%)" x1="432.320432521" x2="427.07724444" y1="331.32162944" y2="325.445108451" /><line stroke="rgb(0%,0%,0%)" x1="432.715695534" x2="432.320432521" y1="331.769302527" y2="331.32162944" /><line stroke="rgb(0%,0%,0%)" x1="368.397114817" x2="364.581641344" y1="292.492856931" y2="291.485040328" /><line stroke="rgb(0%,0%,0%)" x1="364.581641344" x2="355.881135979" y1="291.485040328" y2="290.192065566" /><line stroke="rgb(0%,0%,0%)" x1="380.487728948" x2="376.390728966" y1="295.167362241" y2="294.275926007" /><line stroke="rgb(0%,0%,0%)" x1="374.97821905" x2="374.440603164" y1="293.726417468" y2="293.854174598" /><line stroke="rgb(0%,0%,0%)" x1="383.071694125" x2="390.061770595" y1="296.832741599" y2="297.89207286" /><line stroke="rgb(0%,0%,0%)" x1="392.203836746" x2="390.061770595" y1="298.32694786" y2="297.89207286" /><line stroke="rgb(0%,0%,0%)" x1="383.071694125" x2="380.487728948" y1="296.832741599" y2="295.167362241" /><line stroke="rgb(0%,0%,0%)" x1="285.982644298" x2="284.636006418" y1="284.995756977" y2="284.915120746" /><line stroke="rgb(0%,0%,0%)" x1="285.982644298" x2="286.92297493" y1="284.995756977" y2="284.644189232" /><line stroke="rgb(0%,0%,0%)" x1="303.369237277" x2="300.200212636" y1="283.041721129" y2="282.916812558" /><line stroke="rgb(0%,0%,0%)" x1="338.653890698" x2="329.672041647" y1="286.750243202" y2="281.21888194" /><line stroke="rgb(0%,0%,0%)" x1="341.005871004" x2="338.653890698" y1="288.183383733" y2="286.750243202" /><line stroke="rgb(0%,0%,0%)" x1="354.054307575" x2="341.005871004" y1="289.89452227" y2="288.183383733" /><line stroke="rgb(0%,0%,0%)" x1="355.425111327" x2="354.054307575" y1="290.082905206" y2="289.89452227" /><line stroke="rgb(0%,0%,0%)" x1="355.881135979" x2="355.425111327" y1="290.192065566" y2="290.082905206" /><line stroke="rgb(0%,0%,0%)" x1="374.440603164" x2="370.519177017" y1="293.854174598" y2="292.608748908" /><line stroke="rgb(0%,0%,0%)" x1="370.519177017" x2="368.397114817" y1="292.608748908" y2="292.492856931" /><line stroke="rgb(0%,0%,0%)" x1="273.448890587" x2="268.450290758" y1="285.53947511" y2="285.357865221" /><line stroke="rgb(0%,0%,0%)" x1="275.365121489" x2="273.448890587" y1="285.102315936" y2="285.53947511" /><line stroke="rgb(0%,0%,0%)" x1="295.053705798" x2="286.92297493" y1="284.202477464" y2="284.644189232" /><line stroke="rgb(0%,0%,0%)" x1="312.067259883" x2="315.106259392" y1="282.04183552" y2="281.931272104" /><line stroke="rgb(0%,0%,0%)" x1="312.067259883" x2="303.369237277" y1="282.04183552" y2="283.041721129" /><line stroke="rgb(0%,0%,0%)" x1="315.106259392" x2="316.656450188" y1="281.931272104" y2="280.058098472" /><line stroke="rgb(0%,0%,0%)" x1="316.656450188" x2="321.103486304" y1="280.058098472" y2="280.646693382" /><line stroke="rgb(0%,0%,0%)" x1="321.584509954" x2="328.132783567" y1="280.068156511" y2="280.992434161" /><line stroke="rgb(0%,0%,0%)" x1="321.584509954" x2="321.103486304" y1="280.068156511" y2="280.646693382" /><line stroke="rgb(0%,0%,0%)" x1="329.672041647" x2="328.834169481" y1="281.21888194" y2="281.163821844" /><line stroke="rgb(0%,0%,0%)" x1="328.834169481" x2="328.132783567" y1="281.163821844" y2="280.992434161" /><line stroke="rgb(0%,0%,0%)" x1="284.636006418" x2="275.365121489" y1="284.915120746" y2="285.102315936" /><line stroke="rgb(0%,0%,0%)" x1="300.200212636" x2="295.053705798" y1="282.916812558" y2="284.202477464" /><line stroke="rgb(0%,0%,0%)" x1="211.001198505" x2="215.742094066" y1="281.996133657" y2="281.52706352" /><line stroke="rgb(0%,0%,0%)" x1="226.938871356" x2="238.080314336" y1="281.341416626" y2="282.488799295" /><line stroke="rgb(0%,0%,0%)" x1="249.38258667" x2="243.902674865" y1="284.6263236" y2="283.373807291" /><line stroke="rgb(0%,0%,0%)" x1="249.38258667" x2="262.167977939" y1="284.6263236" y2="285.410689659" /><line stroke="rgb(0%,0%,0%)" x1="268.450290758" x2="262.167977939" y1="285.357865221" y2="285.410689659" /><line stroke="rgb(0%,0%,0%)" x1="158.1604883" x2="155.28049347" y1="297.147442513" y2="298.403021743" /><line stroke="rgb(0%,0%,0%)" x1="158.1604883" x2="162.879029713" y1="297.147442513" y2="294.986730307" /><line stroke="rgb(0%,0%,0%)" x1="188.311773971" x2="187.334128505" y1="285.22696258" y2="285.557502985" /><line stroke="rgb(0%,0%,0%)" x1="187.334128505" x2="186.446249634" y1="285.557502985" y2="285.77634796" /><line stroke="rgb(0%,0%,0%)" x1="195.68131333" x2="197.976018916" y1="283.663215925" y2="283.35226981" /><line stroke="rgb(0%,0%,0%)" x1="210.591879133" x2="209.595211644" y1="282.187564134" y2="282.188978233" /><line stroke="rgb(0%,0%,0%)" x1="210.591879133" x2="211.001198505" y1="282.187564134" y2="281.996133657" /><line stroke="rgb(0%,0%,0%)" x1="219.271988917" x2="215.742094066" y1="281.272283336" y2="281.52706352" /><line stroke="rgb(0%,0%,0%)" x1="226.938871356" x2="222.26965167" y1="281.341416626" y2="281.369433145" /><line stroke="rgb(0%,0%,0%)" x1="222.26965167" x2="219.436493297" y1="281.369433145" y2="281.292560844" /><line stroke="rgb(0%,0%,0%)" x1="219.436493297" x2="219.271988917" y1="281.292560844" y2="281.272283336" /><line stroke="rgb(0%,0%,0%)" x1="243.902674865" x2="240.232689366" y1="283.373807291" y2="282.833156316" /><line stroke="rgb(0%,0%,0%)" x1="239.53648166" x2="238.080314336" y1="282.652310448" y2="282.488799295" /><line stroke="rgb(0%,0%,0%)" x1="240.232689366" x2="239.53648166" y1="282.833156316" y2="282.652310448" /><line stroke="rgb(0%,0%,0%)" x1="155.28049347" x2="143.140150618" y1="298.403021743" y2="304.193197265" /><line stroke="rgb(0%,0%,0%)" x1="170.332158803" x2="162.879029713" y1="291.430263855" y2="294.986730307" /><line stroke="rgb(0%,0%,0%)" x1="177.048527005" x2="170.332158803" y1="288.877893582" y2="291.430263855" /><line stroke="rgb(0%,0%,0%)" x1="186.446249634" x2="184.086194769" y1="285.77634796" y2="286.707800443" /><line stroke="rgb(0%,0%,0%)" x1="177.048527005" x2="183.471219258" y1="288.877893582" y2="286.931678603" /><line stroke="rgb(0%,0%,0%)" x1="195.68131333" x2="188.311773971" y1="283.663215925" y2="285.22696258" /><line stroke="rgb(0%,0%,0%)" x1="206.524076154" x2="197.976018916" y1="282.874491677" y2="283.35226981" /><line stroke="rgb(0%,0%,0%)" x1="209.595211644" x2="206.524076154" y1="282.188978233" y2="282.874491677" /><line stroke="rgb(0%,0%,0%)" x1="184.086194769" x2="183.608375382" y1="286.707800443" y2="286.90108485" /><line stroke="rgb(0%,0%,0%)" x1="183.608375382" x2="183.548054639" y1="286.90108485" y2="286.91119192" /><line stroke="rgb(0%,0%,0%)" x1="183.548054639" x2="183.471219258" y1="286.91119192" y2="286.931678603" /><line stroke="rgb(0%,0%,0%)" x1="88.4908350706" x2="88.2363621863" y1="330.29387874" y2="330.583544854" /><line stroke="rgb(0%,0%,0%)" x1="88.4908350706" x2="91.4336264288" y1="330.29387874" y2="328.115648819" /><line stroke="rgb(0%,0%,0%)" x1="115.594968288" x2="103.288253055" y1="314.091463949" y2="319.895908592" /><line stroke="rgb(0%,0%,0%)" x1="129.93687602" x2="120.07393779" y1="309.178932493" y2="312.175681483" /><line stroke="rgb(0%,0%,0%)" x1="143.140150618" x2="129.93687602" y1="304.193197265" y2="309.178932493" /><line stroke="rgb(0%,0%,0%)" x1="64.1628524491" x2="63.7018914194" y1="384.431794403" y2="384.788424361" /><line stroke="rgb(0%,0%,0%)" x1="64.1628524491" x2="63.5701205349" y1="384.431794403" y2="383.600364692" /><line stroke="rgb(0%,0%,0%)" x1="74.2365137499" x2="70.7510456311" y1="350.349357201" y2="354.294000697" /><line stroke="rgb(0%,0%,0%)" x1="70.7510456311" x2="68.0534994764" y1="354.294000697" y2="360.018820635" /><line stroke="rgb(0%,0%,0%)" x1="76.9108224185" x2="74.2365137499" y1="347.880290753" y2="350.349357201" /><line stroke="rgb(0%,0%,0%)" x1="76.9108224185" x2="78.0126590786" y1="347.880290753" y2="345.337283718" /><line stroke="rgb(0%,0%,0%)" x1="78.0126590786" x2="82.6637397206" y1="345.337283718" y2="334.835169107" /><line stroke="rgb(0%,0%,0%)" x1="88.2363621863" x2="86.7350298919" y1="330.583544854" y2="331.049661428" /><line stroke="rgb(0%,0%,0%)" x1="86.7350298919" x2="84.1075502953" y1="331.049661428" y2="332.302746689" /><line stroke="rgb(0%,0%,0%)" x1="102.051775658" x2="91.4336264288" y1="320.544454148" y2="328.115648819" /><line stroke="rgb(0%,0%,0%)" x1="103.288253055" x2="102.051775658" y1="319.895908592" y2="320.544454148" /><line stroke="rgb(0%,0%,0%)" x1="120.07393779" x2="115.594968288" y1="312.175681483" y2="314.091463949" /><line stroke="rgb(0%,0%,0%)" x1="44.3845779447" x2="43.1682304788" y1="407.005276071" y2="411.164442613" /><line stroke="rgb(0%,0%,0%)" x1="44.3845779447" x2="46.6616593666" y1="407.005276071" y2="402.176327972" /><line stroke="rgb(0%,0%,0%)" x1="58.9664752412" x2="56.0680087155" y1="389.530243907" y2="391.458313574" /><line stroke="rgb(0%,0%,0%)" x1="56.0680087155" x2="52.0149215017" y1="391.458313574" y2="394.593822624" /><line stroke="rgb(0%,0%,0%)" x1="58.9664752412" x2="62.5899406221" y1="389.530243907" y2="387.171229709" /><line stroke="rgb(0%,0%,0%)" x1="63.7018914194" x2="62.5899406221" y1="384.788424361" y2="387.171229709" /><line stroke="rgb(0%,0%,0%)" x1="60.4648498432" x2="63.5701205349" y1="379.452571161" y2="383.600364692" /><line stroke="rgb(0%,0%,0%)" x1="60.7469047562" x2="60.4648498432" y1="374.33385364" y2="379.452571161" /><line stroke="rgb(0%,0%,0%)" x1="61.0355277034" x2="60.7469047562" y1="373.398963037" y2="374.33385364" /><line stroke="rgb(0%,0%,0%)" x1="62.5133946946" x2="61.0355277034" y1="371.848960087" y2="373.398963037" /><line stroke="rgb(0%,0%,0%)" x1="62.5133946946" x2="62.2605182753" y1="371.848960087" y2="370.163799146" /><line stroke="rgb(0%,0%,0%)" x1="63.7211633831" x2="62.2605182753" y1="366.943188325" y2="370.163799146" /><line stroke="rgb(0%,0%,0%)" x1="66.3986920022" x2="63.7211633831" y1="362.353688277" y2="366.943188325" /><line stroke="rgb(0%,0%,0%)" x1="68.0534994764" x2="66.3986920022" y1="360.018820635" y2="362.353688277" /><line stroke="rgb(0%,0%,0%)" x1="83.4926459345" x2="82.6637397206" y1="333.074654527" y2="334.835169107" /><line stroke="rgb(0%,0%,0%)" x1="84.1075502953" x2="83.7354876145" y1="332.302746689" y2="332.668327963" /><line stroke="rgb(0%,0%,0%)" x1="25.1653670485" x2="27.3748456282" y1="457.933436703" y2="461.608850353" /><line stroke="rgb(0%,0%,0%)" x1="24.6928744947" x2="25.1653670485" y1="456.970639479" y2="457.933436703" /><line stroke="rgb(0%,0%,0%)" x1="24.6928744947" x2="23.8878289609" y1="456.970639479" y2="452.984285448" /><line stroke="rgb(0%,0%,0%)" x1="23.8878289609" x2="24.3216286601" y1="452.984285448" y2="447.133609993" /><line stroke="rgb(0%,0%,0%)" x1="26.701974051" x2="24.8632231963" y1="437.695331064" y2="441.963769948" /><line stroke="rgb(0%,0%,0%)" x1="24.8632231963" x2="24.3216286601" y1="441.963769948" y2="447.133609993" /><line stroke="rgb(0%,0%,0%)" x1="27.7127913195" x2="26.701974051" y1="436.904308546" y2="437.695331064" /><line stroke="rgb(0%,0%,0%)" x1="29.7596643658" x2="27.7127913195" y1="433.963434471" y2="436.904308546" /><line stroke="rgb(0%,0%,0%)" x1="31.823989687" x2="35.2361263178" y1="430.657400945" y2="423.627304438" /><line stroke="rgb(0%,0%,0%)" x1="31.823989687" x2="29.7596643658" y1="430.657400945" y2="433.963434471" /><line stroke="rgb(0%,0%,0%)" x1="36.9738316547" x2="41.4302168514" y1="421.723128388" y2="416.426057148" /><line stroke="rgb(0%,0%,0%)" x1="43.1682304788" x2="41.4302168514" y1="411.164442613" y2="416.426057148" /><line stroke="rgb(0%,0%,0%)" x1="47.8963589511" x2="46.6616593666" y1="399.965283027" y2="402.176327972" /><line stroke="rgb(0%,0%,0%)" x1="50.272830646" x2="47.8963589511" y1="397.479468802" y2="399.965283027" /><line stroke="rgb(0%,0%,0%)" x1="52.0149215017" x2="50.272830646" y1="394.593822624" y2="397.479468802" /><line stroke="rgb(0%,0%,0%)" x1="83.7354876145" x2="83.4926459345" y1="332.668327963" y2="333.074654527" /><line stroke="rgb(0%,0%,0%)" x1="36.9738316547" x2="35.2361263178" y1="421.723128388" y2="423.627304438" /><line stroke="rgb(0%,0%,0%)" x1="500.456302277" x2="499.22052612" y1="411.974747103" y2="409.722530015" /><line stroke="rgb(0%,0%,0%)" x1="480.378702005" x2="478.165682426" y1="379.323160559" y2="377.851543641" /><line stroke="rgb(0%,0%,0%)" x1="470.364346481" x2="469.744093878" y1="372.100850431" y2="371.272991203" /><line stroke="rgb(0%,0%,0%)" x1="478.165682426" x2="470.364346481" y1="377.851543641" y2="372.100850431" /><line stroke="rgb(0%,0%,0%)" x1="492.29087902" x2="493.50330479" y1="396.099567375" y2="399.856361728" /><line stroke="rgb(0%,0%,0%)" x1="492.29087902" x2="490.187353383" y1="396.099567375" y2="391.456368006" /><line stroke="rgb(0%,0%,0%)" x1="494.540287617" x2="493.50330479" y1="401.989939977" y2="399.856361728" /><line stroke="rgb(0%,0%,0%)" x1="487.419252156" x2="490.187353383" y1="388.776612324" y2="391.456368006" /><line stroke="rgb(0%,0%,0%)" x1="487.419252156" x2="480.378702005" y1="388.776612324" y2="379.323160559" /><line stroke="rgb(0%,0%,0%)" x1="503.955731263" x2="504.129741849" y1="423.2074756" y2="423.68985309" /><line stroke="rgb(0%,0%,0%)" x1="503.955731263" x2="500.456302277" y1="423.2074756" y2="411.974747103" /><line stroke="rgb(0%,0%,0%)" x1="499.22052612" x2="497.573607017" y1="409.722530015" y2="407.535081234" /><line stroke="rgb(0%,0%,0%)" x1="497.573607017" x2="495.267257597" y1="407.535081234" y2="403.686454795" /><line stroke="rgb(0%,0%,0%)" x1="495.267257597" x2="494.540287617" y1="403.686454795" y2="401.989939977" /><line stroke="rgb(0%,0%,0%)" x1="450.827971238" x2="452.04695716" y1="562.644685041" y2="561.302725986" /><line stroke="rgb(0%,0%,0%)" x1="453.806364769" x2="452.543341613" y1="357.964766032" y2="356.929027549" /><line stroke="rgb(0%,0%,0%)" x1="468.604761085" x2="469.744093878" y1="370.682245484" y2="371.272991203" /><line stroke="rgb(0%,0%,0%)" x1="468.604761085" x2="463.363253774" y1="370.682245484" y2="366.019314599" /><line stroke="rgb(0%,0%,0%)" x1="463.363253774" x2="462.485483106" y1="366.019314599" y2="365.072620054" /><line stroke="rgb(0%,0%,0%)" x1="462.485483106" x2="456.569353883" y1="365.072620054" y2="360.289545421" /><line stroke="rgb(0%,0%,0%)" x1="456.569353883" x2="453.806364769" y1="360.289545421" y2="357.964766032" /><line stroke="rgb(0%,0%,0%)" x1="392.689887119" x2="390.92858029" y1="615.633717629" y2="616.748868163" /><line stroke="rgb(0%,0%,0%)" x1="416.309294468" x2="411.382624178" y1="603.968313909" y2="606.33219275" /><line stroke="rgb(0%,0%,0%)" x1="416.309294468" x2="420.172861983" y1="603.968313909" y2="600.78947023" /><line stroke="rgb(0%,0%,0%)" x1="423.507278674" x2="420.172861983" y1="597.300132247" y2="600.78947023" /><line stroke="rgb(0%,0%,0%)" x1="432.654036113" x2="434.323366212" y1="586.786366094" y2="584.760298794" /><line stroke="rgb(0%,0%,0%)" x1="423.507278674" x2="432.654036113" y1="597.300132247" y2="586.786366094" /><line stroke="rgb(0%,0%,0%)" x1="434.323366212" x2="436.515144785" y1="584.760298794" y2="581.304479041" /><line stroke="rgb(0%,0%,0%)" x1="446.356227611" x2="436.515144785" y1="566.977644772" y2="581.304479041" /><line stroke="rgb(0%,0%,0%)" x1="446.356227611" x2="450.827971238" y1="566.977644772" y2="562.644685041" /><line stroke="rgb(0%,0%,0%)" x1="378.991935434" x2="390.92858029" y1="621.647996363" y2="616.748868163" /><line stroke="rgb(0%,0%,0%)" x1="378.991935434" x2="370.040981386" y1="621.647996363" y2="624.71805634" /><line stroke="rgb(0%,0%,0%)" x1="394.791522208" x2="403.988325095" y1="614.374385408" y2="608.910237878" /><line stroke="rgb(0%,0%,0%)" x1="392.689887119" x2="394.791522208" y1="615.633717629" y2="614.374385408" /><line stroke="rgb(0%,0%,0%)" x1="403.988325095" x2="411.382624178" y1="608.910237878" y2="606.33219275" /><line stroke="rgb(0%,0%,0%)" x1="337.802399583" x2="336.286840196" y1="630.831068226" y2="630.938451006" /><line stroke="rgb(0%,0%,0%)" x1="337.802399583" x2="339.290452122" y1="630.831068226" y2="630.465733033" /><line stroke="rgb(0%,0%,0%)" x1="339.290452122" x2="345.755686786" y1="630.465733033" y2="630.888348149" /><line stroke="rgb(0%,0%,0%)" x1="345.755686786" x2="345.767768643" y1="630.888348149" y2="630.8797247" /><line stroke="rgb(0%,0%,0%)" x1="345.767768643" x2="352.809127582" y1="630.8797247" y2="625.982441675" /><line stroke="rgb(0%,0%,0%)" x1="355.298493279" x2="352.809127582" y1="626.270378133" y2="625.982441675" /><line stroke="rgb(0%,0%,0%)" x1="355.298493279" x2="367.056234907" y1="626.270378133" y2="625.299078186" /><line stroke="rgb(0%,0%,0%)" x1="369.49046226" x2="370.040981386" y1="624.957534023" y2="624.71805634" /><line stroke="rgb(0%,0%,0%)" x1="301.708022525" x2="316.497826525" y1="638.33758581" y2="634.990879925" /><line stroke="rgb(0%,0%,0%)" x1="293.322768323" x2="287.735446757" y1="638.320733336" y2="639.250506242" /><line stroke="rgb(0%,0%,0%)" x1="293.322768323" x2="301.708022525" y1="638.320733336" y2="638.33758581" /><line stroke="rgb(0%,0%,0%)" x1="329.282553048" x2="320.804580801" y1="632.245047788" y2="634.042689345" /><line stroke="rgb(0%,0%,0%)" x1="318.289437191" x2="319.766758415" y1="634.600620604" y2="635.128025805" /><line stroke="rgb(0%,0%,0%)" x1="319.766758415" x2="320.804580801" y1="635.128025805" y2="634.042689345" /><line stroke="rgb(0%,0%,0%)" x1="329.282553048" x2="336.286840196" y1="632.245047788" y2="630.938451006" /><line stroke="rgb(0%,0%,0%)" x1="367.056234907" x2="369.008945809" y1="625.299078186" y2="625.005562686" /><line stroke="rgb(0%,0%,0%)" x1="369.008945809" x2="369.49046226" y1="625.005562686" y2="624.957534023" /><line stroke="rgb(0%,0%,0%)" x1="285.983193607" x2="287.735446757" y1="638.756646868" y2="639.250506242" /><line stroke="rgb(0%,0%,0%)" x1="275.299916503" x2="285.983193607" y1="637.507183423" y2="638.756646868" /><line stroke="rgb(0%,0%,0%)" x1="316.497826525" x2="318.289437191" y1="634.990879925" y2="634.600620604" /><line stroke="rgb(0%,0%,0%)" x1="212.691544737" x2="209.063391101" y1="633.310244305" y2="631.701995884" /><line stroke="rgb(0%,0%,0%)" x1="213.622497775" x2="212.691544737" y1="633.698534794" y2="633.310244305" /><line stroke="rgb(0%,0%,0%)" x1="231.633371731" x2="235.081927041" y1="637.365991763" y2="637.079930241" /><line stroke="rgb(0%,0%,0%)" x1="231.633371731" x2="230.193818825" y1="637.365991763" y2="637.342077528" /><line stroke="rgb(0%,0%,0%)" x1="243.277154895" x2="253.498590359" y1="636.08304226" y2="636.606068602" /><line stroke="rgb(0%,0%,0%)" x1="239.89224851" x2="242.320325487" y1="637.095787733" y2="636.110039729" /><line stroke="rgb(0%,0%,0%)" x1="235.081927041" x2="239.89224851" y1="637.079930241" y2="637.095787733" /><line stroke="rgb(0%,0%,0%)" x1="242.320325487" x2="243.277154895" y1="636.110039729" y2="636.08304226" /><line stroke="rgb(0%,0%,0%)" x1="272.642772355" x2="275.299916503" y1="636.597573379" y2="637.507183423" /><line stroke="rgb(0%,0%,0%)" x1="272.642772355" x2="268.035893525" y1="636.597573379" y2="636.616862649" /><line stroke="rgb(0%,0%,0%)" x1="263.32518693" x2="265.910262408" y1="636.762866748" y2="637.099547925" /><line stroke="rgb(0%,0%,0%)" x1="265.910262408" x2="268.035893525" y1="637.099547925" y2="636.616862649" /><line stroke="rgb(0%,0%,0%)" x1="253.498590359" x2="263.32518693" y1="636.606068602" y2="636.762866748" /><line stroke="rgb(0%,0%,0%)" x1="193.632112809" x2="195.894095307" y1="626.87093695" y2="627.640757521" /><line stroke="rgb(0%,0%,0%)" x1="199.476912698" x2="207.726729746" y1="628.672129455" y2="631.201033539" /><line stroke="rgb(0%,0%,0%)" x1="220.692544915" x2="223.566185043" y1="636.027174297" y2="636.57802647" /><line stroke="rgb(0%,0%,0%)" x1="213.622497775" x2="220.692544915" y1="633.698534794" y2="636.027174297" /><line stroke="rgb(0%,0%,0%)" x1="223.566185043" x2="230.193818825" y1="636.57802647" y2="637.342077528" /><line stroke="rgb(0%,0%,0%)" x1="187.183518264" x2="186.697782943" y1="624.495577123" y2="624.288817698" /><line stroke="rgb(0%,0%,0%)" x1="161.942653303" x2="186.697782943" y1="615.255438754" y2="624.288817698" /><line stroke="rgb(0%,0%,0%)" x1="187.183518264" x2="187.314512139" y1="624.495577123" y2="624.527039016" /><line stroke="rgb(0%,0%,0%)" x1="195.894095307" x2="199.476912698" y1="627.640757521" y2="628.672129455" /><line stroke="rgb(0%,0%,0%)" x1="187.494910787" x2="193.632112809" y1="624.606630647" y2="626.87093695" /><line stroke="rgb(0%,0%,0%)" x1="187.314512139" x2="187.494910787" y1="624.527039016" y2="624.606630647" /><line stroke="rgb(0%,0%,0%)" x1="208.300348285" x2="209.063391101" y1="631.322148771" y2="631.701995884" /><line stroke="rgb(0%,0%,0%)" x1="207.726729746" x2="208.300348285" y1="631.201033539" y2="631.322148771" /><line stroke="rgb(0%,0%,0%)" x1="100.80840303" x2="94.5692489904" y1="598.457362601" y2="593.965005432" /><line stroke="rgb(0%,0%,0%)" x1="106.162509078" x2="120.165208932" y1="600.223580859" y2="606.242875196" /><line stroke="rgb(0%,0%,0%)" x1="106.162509078" x2="100.80840303" y1="600.223580859" y2="598.457362601" /><line stroke="rgb(0%,0%,0%)" x1="149.799119639" x2="161.942653303" y1="611.483125346" y2="615.255438754" /><line stroke="rgb(0%,0%,0%)" x1="71.4053260697" x2="72.2865727873" y1="568.584897736" y2="569.215516836" /><line stroke="rgb(0%,0%,0%)" x1="71.4053260697" x2="70.692770463" y1="568.584897736" y2="567.957096815" /><line stroke="rgb(0%,0%,0%)" x1="78.8967036371" x2="79.5573939501" y1="577.587147911" y2="578.482373789" /><line stroke="rgb(0%,0%,0%)" x1="79.5573939501" x2="82.8810270523" y1="578.482373789" y2="582.730809115" /><line stroke="rgb(0%,0%,0%)" x1="120.637312661" x2="121.041234507" y1="606.413994511" y2="606.574884489" /><line stroke="rgb(0%,0%,0%)" x1="120.165208932" x2="120.637312661" y1="606.242875196" y2="606.413994511" /><line stroke="rgb(0%,0%,0%)" x1="121.041234507" x2="121.290991575" y1="606.574884489" y2="606.623157286" /><line stroke="rgb(0%,0%,0%)" x1="121.290991575" x2="122.046823482" y1="606.623157286" y2="606.806674146" /><line stroke="rgb(0%,0%,0%)" x1="149.799119639" x2="122.046823482" y1="611.483125346" y2="606.806674146" /><line stroke="rgb(0%,0%,0%)" x1="48.0356268651" x2="49.4584916928" y1="522.388238554" y2="524.176366734" /><line stroke="rgb(0%,0%,0%)" x1="48.0356268651" x2="42.9422769666" y1="522.388238554" y2="513.788687317" /><line stroke="rgb(0%,0%,0%)" x1="62.0775386397" x2="66.2413703468" y1="555.936825515" y2="560.914625669" /><line stroke="rgb(0%,0%,0%)" x1="62.0129697357" x2="62.0775386397" y1="555.25004338" y2="555.936825515" /><line stroke="rgb(0%,0%,0%)" x1="62.0129697357" x2="61.217785883" y1="555.25004338" y2="550.77916173" /><line stroke="rgb(0%,0%,0%)" x1="60.0543617834" x2="60.6002913555" y1="545.461156039" y2="546.242268431" /><line stroke="rgb(0%,0%,0%)" x1="59.9716266635" x2="59.7828662896" y1="539.49887776" y2="542.042258134" /><line stroke="rgb(0%,0%,0%)" x1="61.2859218535" x2="59.9716266635" y1="537.82207268" y2="539.49887776" /><line stroke="rgb(0%,0%,0%)" x1="63.7342053705" x2="61.2859218535" y1="533.304861453" y2="537.82207268" /><line stroke="rgb(0%,0%,0%)" x1="62.4188028821" x2="63.7342053705" y1="532.739739442" y2="533.304861453" /><line stroke="rgb(0%,0%,0%)" x1="59.1612695241" x2="62.4188028821" y1="531.013937259" y2="532.739739442" /><line stroke="rgb(0%,0%,0%)" x1="59.1612695241" x2="57.6966171716" y1="531.013937259" y2="530.159461746" /><line stroke="rgb(0%,0%,0%)" x1="49.4584916928" x2="57.6966171716" y1="524.176366734" y2="530.159461746" /><line stroke="rgb(0%,0%,0%)" x1="72.2865727873" x2="78.8967036371" y1="569.215516836" y2="577.587147911" /><line stroke="rgb(0%,0%,0%)" x1="66.2413703468" x2="70.692770463" y1="560.914625669" y2="567.957096815" /><line stroke="rgb(0%,0%,0%)" x1="91.9924756972" x2="94.5692489904" y1="591.530436994" y2="593.965005432" /><line stroke="rgb(0%,0%,0%)" x1="88.4928323917" x2="91.9924756972" y1="588.493252904" y2="591.530436994" /><line stroke="rgb(0%,0%,0%)" x1="82.8810270523" x2="88.4928323917" y1="582.730809115" y2="588.493252904" /><line stroke="rgb(0%,0%,0%)" x1="25.7060071021" x2="28.0305386385" y1="482.595958041" y2="484.486380363" /><line stroke="rgb(0%,0%,0%)" x1="24.7183254274" x2="25.7060071021" y1="481.574596279" y2="482.595958041" /><line stroke="rgb(0%,0%,0%)" x1="24.7183254274" x2="23.6908827989" y1="481.574596279" y2="478.563006057" /><line stroke="rgb(0%,0%,0%)" x1="23.3167292205" x2="22.9998813695" y1="466.79180784" y2="472.043141389" /><line stroke="rgb(0%,0%,0%)" x1="22.4318437721" x2="23.6908827989" y1="475.774963195" y2="478.563006057" /><line stroke="rgb(0%,0%,0%)" x1="22.9998813695" x2="22.4318437721" y1="472.043141389" y2="475.774963195" /><line stroke="rgb(0%,0%,0%)" x1="24.3673832996" x2="23.3167292205" y1="465.496885643" y2="466.79180784" /><line stroke="rgb(0%,0%,0%)" x1="24.3673832996" x2="27.3452019923" y1="465.496885643" y2="462.318753369" /><line stroke="rgb(0%,0%,0%)" x1="38.4659427648" x2="31.7975235182" y1="498.975267482" y2="494.071174856" /><line stroke="rgb(0%,0%,0%)" x1="28.0305386385" x2="29.7969388214" y1="484.486380363" y2="486.12205532" /><line stroke="rgb(0%,0%,0%)" x1="40.5349463112" x2="42.9422769666" y1="509.473066972" y2="513.788687317" /><line stroke="rgb(0%,0%,0%)" x1="40.0393169428" x2="40.1057897863" y1="500.344675688" y2="508.459449176" /><line stroke="rgb(0%,0%,0%)" x1="60.6002913555" x2="61.217785883" y1="546.242268431" y2="550.77916173" /><line stroke="rgb(0%,0%,0%)" x1="59.7828662896" x2="60.0543617834" y1="542.042258134" y2="545.461156039" /><line stroke="rgb(0%,0%,0%)" x1="31.2724641823" x2="31.7975235182" y1="493.383395138" y2="494.071174856" /><line stroke="rgb(0%,0%,0%)" x1="30.175896261" x2="31.2724641823" y1="487.180416155" y2="493.383395138" /><line stroke="rgb(0%,0%,0%)" x1="29.7969388214" x2="30.175896261" y1="486.12205532" y2="487.180416155" /><line stroke="rgb(0%,0%,0%)" x1="27.5314482911" x2="27.3452019923" y1="461.977058648" y2="462.318753369" /><line stroke="rgb(0%,0%,0%)" x1="40.1849200253" x2="40.5349463112" y1="508.804269549" y2="509.473066972" /><line stroke="rgb(0%,0%,0%)" x1="40.1057897863" x2="40.1849200253" y1="508.459449176" y2="508.804269549" /><line stroke="rgb(0%,0%,0%)" x1="39.8658049509" x2="40.0393169428" y1="499.663382422" y2="500.344675688" /><line stroke="rgb(0%,0%,0%)" x1="38.4659427648" x2="39.8658049509" y1="498.975267482" y2="499.663382422" /><line stroke="rgb(0%,0%,0%)" x1="498.181297125" x2="496.396953148" y1="508.4553483" y2="511.778896943" /><line stroke="rgb(0%,0%,0%)" x1="498.181297125" x2="499.446508419" y1="508.4553483" y2="506.097554478" /><line stroke="rgb(0%,0%,0%)" x1="499.446508419" x2="503.222449085" y1="506.097554478" y2="494.388264075" /><line stroke="rgb(0%,0%,0%)" x1="503.222449085" x2="507.213523597" y1="494.388264075" y2="483.145590056" /><line stroke="rgb(0%,0%,0%)" x1="507.877593869" x2="507.213523597" y1="481.084242181" y2="483.145590056" /><line stroke="rgb(0%,0%,0%)" x1="508.219599749" x2="507.877593869" y1="480.260531179" y2="481.084242181" /><line stroke="rgb(0%,0%,0%)" x1="508.219599749" x2="508.221367521" y1="480.260531179" y2="479.427240429" /><line stroke="rgb(0%,0%,0%)" x1="508.221367521" x2="508.483322956" y1="479.427240429" y2="478.768285717" /><line stroke="rgb(0%,0%,0%)" x1="508.483322956" x2="510.102584291" y1="478.768285717" y2="469.426538559" /><line stroke="rgb(0%,0%,0%)" x1="510.102584291" x2="510.121863842" y1="469.426538559" y2="469.263026946" /><line stroke="rgb(0%,0%,0%)" x1="510.121863842" x2="510.701370265" y1="469.263026946" y2="460.95375156" /><line stroke="rgb(0%,0%,0%)" x1="452.04695716" x2="454.301861701" y1="561.302725986" y2="559.319525399" /><line stroke="rgb(0%,0%,0%)" x1="454.301861701" x2="457.998267862" y1="559.319525399" y2="556.291486705" /><line stroke="rgb(0%,0%,0%)" x1="457.998267862" x2="458.959226909" y1="556.291486705" y2="555.532048046" /><line stroke="rgb(0%,0%,0%)" x1="461.898899483" x2="458.959226909" y1="554.110728658" y2="555.532048046" /><line stroke="rgb(0%,0%,0%)" x1="463.952750194" x2="461.898899483" y1="552.327996987" y2="554.110728658" /><line stroke="rgb(0%,0%,0%)" x1="463.952750194" x2="467.936910803" y1="552.327996987" y2="548.501372294" /><line stroke="rgb(0%,0%,0%)" x1="467.936910803" x2="474.10323777" y1="548.501372294" y2="543.911888847" /><line stroke="rgb(0%,0%,0%)" x1="474.10323777" x2="475.038040586" y1="543.911888847" y2="542.578883639" /><line stroke="rgb(0%,0%,0%)" x1="475.038040586" x2="480.524963895" y1="542.578883639" y2="538.272622346" /><line stroke="rgb(0%,0%,0%)" x1="480.524963895" x2="485.091599568" y1="538.272622346" y2="533.493014767" /><line stroke="rgb(0%,0%,0%)" x1="486.727545388" x2="485.091599568" y1="531.561947785" y2="533.493014767" /><line stroke="rgb(0%,0%,0%)" x1="486.727545388" x2="491.151380473" y1="531.561947785" y2="520.798622258" /><line stroke="rgb(0%,0%,0%)" x1="491.735499233" x2="491.151380473" y1="519.83648548" y2="520.798622258" /><line stroke="rgb(0%,0%,0%)" x1="491.735499233" x2="491.749884789" y1="519.83648548" y2="519.640418493" /><line stroke="rgb(0%,0%,0%)" x1="491.749884789" x2="493.042984244" y1="519.640418493" y2="517.997870293" /><line stroke="rgb(0%,0%,0%)" x1="493.042984244" x2="496.396953148" y1="517.997870293" y2="511.778896943" /><line stroke="rgb(0%,0%,0%)" x1="27.3748456282" x2="27.5314482911" y1="461.608850353" y2="461.977058648" /><line stroke="rgb(0%,0%,0%)" x1="512.012910054" x2="510.149137014" y1="455.198349427" y2="447.592646279" /><line stroke="rgb(0%,0%,0%)" x1="510.45140154" x2="510.701370265" y1="458.971009202" y2="460.95375156" /><line stroke="rgb(0%,0%,0%)" x1="510.45140154" x2="512.012910054" y1="458.971009202" y2="455.198349427" /></svg>