<?xml version="1.0" encoding="utf-8" ?>
<svg baseProfile="full" height="100%" version="1.1" viewBox="0.5 0.5 685.793960571 941.299331665" width="100%" xmlns="http://www.w3.org/2000/svg" xmlns:ev="http://www.w3.org/2001/xml-events" xmlns:xlink="http://www.w3.org/1999/xlink"><defs /><line stroke="rgb(0%,0%,0%)" x1="510.243752608" x2="510.3345819" y1="446.135519965" y2="445.094031553" /><line stroke="rgb(0%,0%,0%)" x1="510.3345819" x2="508.813597076" y1="445.094031553" y2="438.552718823" /><line stroke="rgb(0%,0%,0%)" x1="508.813597076" x2="508.448184911" y1="438.552718823" y2="436.170801356" /><line stroke="rgb(0%,0%,0%)" x1="505.119655827" x2="507.788332496" y1="426.577484886" y2="434.872881674" /><line stroke="rgb(0%,0%,0%)" x1="505.119655827" x2="504.924169745" y1="426.577484886" y2="425.756598299" /><line stroke="rgb(0%,0%,0%)" x1="504.924169745" x2="504.004838076" y1="425.756598299" y2="423.691440625" /><line stroke="rgb(0%,0%,0%)" x1="504.004838076" x2="503.68304794" y1="423.691440625" y2="422.602034853" /><line stroke="rgb(0%,0%,0%)" x1="508.448184911" x2="508.277106081" y1="436.170801356" y2="435.662844858" /><line stroke="rgb(0%,0%,0%)" x1="508.277106081" x2="507.788332496" y1="435.662844858" y2="434.872881674" /><line stroke="rgb(0%,0%,0%)" x1="433.896915966" x2="441.729377053" y1="332.75043149" y2="344.081446677" /><line stroke="rgb(0%,0%,0%)" x1="449.141730203" x2="452.274283215" y1="353.733156768" y2="356.278893876" /><line stroke="rgb(0%,0%,0%)" x1="447.593749422" x2="449.141730203" y1="352.100920853" y2="353.733156768" /><line stroke="rgb(0%,0%,0%)" x1="452.659614292" x2="452.274283215" y1="356.597606071" y2="356.278893876" /><line stroke="rgb(0%,0%,0%)" x1="445.524533602" x2="447.593749422" y1="349.477563191" y2="352.100920853" /><line stroke="rgb(0%,0%,0%)" x1="445.524533602" x2="443.403431992" y1="349.477563191" y2="347.319131783" /><line stroke="rgb(0%,0%,0%)" x1="443.403431992" x2="441.729377053" y1="347.319131783" y2="344.081446677" /><line stroke="rgb(0%,0%,0%)" x1="400.446587235" x2="402.113668078" y1="302.472838361" y2="304.078488732" /><line stroke="rgb(0%,0%,0%)" x1="400.446587235" x2="393.392469701" y1="302.472838361" y2="298.322341779" /><line stroke="rgb(0%,0%,0%)" x1="410.496302105" x2="420.483685937" y1="310.662267178" y2="318.087345335" /><line stroke="rgb(0%,0%,0%)" x1="410.496302105" x2="402.113668078" y1="310.662267178" y2="304.078488732" /><line stroke="rgb(0%,0%,0%)" x1="432.262495987" x2="422.703059792" y1="330.899294869" y2="320.185159391" /><line stroke="rgb(0%,0%,0%)" x1="422.166004296" x2="421.742919236" y1="319.398632178" y2="319.013408566" /><line stroke="rgb(0%,0%,0%)" x1="422.703059792" x2="422.166004296" y1="320.185159391" y2="319.398632178" /><line stroke="rgb(0%,0%,0%)" x1="421.742919236" x2="420.483685937" y1="319.013408566" y2="318.087345335" /><line stroke="rgb(0%,0%,0%)" x1="433.896915966" x2="432.262495987" y1="332.75043149" y2="330.899294869" /><line stroke="rgb(0%,0%,0%)" x1="367.606846461" x2="364.080270289" y1="291.719666378" y2="290.788158914" /><line stroke="rgb(0%,0%,0%)" x1="364.080270289" x2="356.038543587" y1="290.788158914" y2="289.593084693" /><line stroke="rgb(0%,0%,0%)" x1="379.960095851" x2="375.299408459" y1="294.465875176" y2="293.451790325" /><line stroke="rgb(0%,0%,0%)" x1="383.19167541" x2="388.966722405" y1="296.548645462" y2="297.423841584" /><line stroke="rgb(0%,0%,0%)" x1="393.392469701" x2="388.966722405" y1="298.322341779" y2="297.423841584" /><line stroke="rgb(0%,0%,0%)" x1="383.19167541" x2="379.960095851" y1="296.548645462" y2="294.465875176" /><line stroke="rgb(0%,0%,0%)" x1="283.501200441" x2="282.665618686" y1="284.444161445" y2="284.394127086" /><line stroke="rgb(0%,0%,0%)" x1="283.501200441" x2="284.084670676" y1="284.444161445" y2="284.226015499" /><line stroke="rgb(0%,0%,0%)" x1="302.167443477" x2="299.377896006" y1="282.346308917" y2="282.236357613" /><line stroke="rgb(0%,0%,0%)" x1="334.481114061" x2="331.023146322" y1="283.094701335" y2="280.965154436" /><line stroke="rgb(0%,0%,0%)" x1="341.902301501" x2="334.481114061" y1="287.616679891" y2="283.094701335" /><line stroke="rgb(0%,0%,0%)" x1="352.175072424" x2="341.902301501" y1="288.963824748" y2="287.616679891" /><line stroke="rgb(0%,0%,0%)" x1="355.074119074" x2="352.175072424" y1="289.362226721" y2="288.963824748" /><line stroke="rgb(0%,0%,0%)" x1="356.038543587" x2="355.074119074" y1="289.593084693" y2="289.362226721" /><line stroke="rgb(0%,0%,0%)" x1="370.258630065" x2="374.956813209" y1="291.864487979" y2="293.356607877" /><line stroke="rgb(0%,0%,0%)" x1="375.299408459" x2="374.956813209" y1="293.451790325" y2="293.356607877" /><line stroke="rgb(0%,0%,0%)" x1="370.258630065" x2="367.606846461" y1="291.864487979" y2="291.719666378" /><line stroke="rgb(0%,0%,0%)" x1="271.274786872" x2="267.876252681" y1="284.895044387" y2="284.771568326" /><line stroke="rgb(0%,0%,0%)" x1="272.57762696" x2="271.274786872" y1="284.597821074" y2="284.895044387" /><line stroke="rgb(0%,0%,0%)" x1="293.449954482" x2="284.084670676" y1="283.717235153" y2="284.226015499" /><line stroke="rgb(0%,0%,0%)" x1="311.505638953" x2="314.013809773" y1="281.27283191" y2="281.181580848" /><line stroke="rgb(0%,0%,0%)" x1="311.505638953" x2="302.167443477" y1="281.27283191" y2="282.346308917" /><line stroke="rgb(0%,0%,0%)" x1="314.013809773" x2="315.293225353" y1="281.181580848" y2="279.63559855" /><line stroke="rgb(0%,0%,0%)" x1="315.293225353" x2="318.963487948" y1="279.63559855" y2="280.1213823" /><line stroke="rgb(0%,0%,0%)" x1="319.627271344" x2="325.390193836" y1="279.323036584" y2="280.136463263" /><line stroke="rgb(0%,0%,0%)" x1="319.627271344" x2="318.963487948" y1="279.323036584" y2="280.1213823" /><line stroke="rgb(0%,0%,0%)" x1="331.023146322" x2="327.956932693" y1="280.965154436" y2="280.763660669" /><line stroke="rgb(0%,0%,0%)" x1="327.956932693" x2="325.390193836" y1="280.763660669" y2="280.136463263" /><line stroke="rgb(0%,0%,0%)" x1="282.665618686" x2="272.57762696" y1="284.394127086" y2="284.597821074" /><line stroke="rgb(0%,0%,0%)" x1="299.377896006" x2="293.449954482" y1="282.236357613" y2="283.717235153" /><line stroke="rgb(0%,0%,0%)" x1="210.692106835" x2="213.986732211" y1="281.593808935" y2="281.267834579" /><line stroke="rgb(0%,0%,0%)" x1="227.006080668" x2="236.557936766" y1="280.984432673" y2="281.968114424" /><line stroke="rgb(0%,0%,0%)" x1="249.115967027" x2="244.718614614" y1="284.213631415" y2="283.208550347" /><line stroke="rgb(0%,0%,0%)" x1="249.115967027" x2="259.375597686" y1="284.213631415" y2="284.843045557" /><line stroke="rgb(0%,0%,0%)" x1="267.876252681" x2="259.375597686" y1="284.771568326" y2="284.843045557" /><line stroke="rgb(0%,0%,0%)" x1="157.192556698" x2="154.668466997" y1="297.005562329" y2="298.105979098" /><line stroke="rgb(0%,0%,0%)" x1="157.192556698" x2="161.327988352" y1="297.005562329" y2="295.111867463" /><line stroke="rgb(0%,0%,0%)" x1="187.620793678" x2="187.361992752" y1="284.883856464" y2="284.971356653" /><line stroke="rgb(0%,0%,0%)" x1="187.361992752" x2="187.126954712" y1="284.971356653" y2="285.029288986" /><line stroke="rgb(0%,0%,0%)" x1="195.518502888" x2="197.182452995" y1="283.208037155" y2="282.98256212" /><line stroke="rgb(0%,0%,0%)" x1="210.407655517" x2="209.715034059" y1="281.726841123" y2="281.727823833" /><line stroke="rgb(0%,0%,0%)" x1="210.407655517" x2="210.692106835" y1="281.726841123" y2="281.593808935" /><line stroke="rgb(0%,0%,0%)" x1="218.902535771" x2="213.986732211" y1="280.913022499" y2="281.267834579" /><line stroke="rgb(0%,0%,0%)" x1="227.006080668" x2="221.860603127" y1="280.984432673" y2="281.015306861" /><line stroke="rgb(0%,0%,0%)" x1="221.860603127" x2="219.131627926" y1="281.015306861" y2="280.94126137" /><line stroke="rgb(0%,0%,0%)" x1="219.131627926" x2="218.902535771" y1="280.94126137" y2="280.913022499" /><line stroke="rgb(0%,0%,0%)" x1="244.718614614" x2="239.574726801" y1="283.208550347" y2="282.450768616" /><line stroke="rgb(0%,0%,0%)" x1="238.598915225" x2="236.557936766" y1="282.197293267" y2="281.968114424" /><line stroke="rgb(0%,0%,0%)" x1="239.574726801" x2="238.598915225" y1="282.450768616" y2="282.197293267" /><line stroke="rgb(0%,0%,0%)" x1="154.668466997" x2="144.02840819" y1="298.105979098" y2="303.180614041" /><line stroke="rgb(0%,0%,0%)" x1="169.486906855" x2="161.327988352" y1="291.218614094" y2="295.111867463" /><line stroke="rgb(0%,0%,0%)" x1="176.83929538" x2="169.486906855" y1="288.424541859" y2="291.218614094" /><line stroke="rgb(0%,0%,0%)" x1="187.126954712" x2="186.502204324" y1="285.029288986" y2="285.275861771" /><line stroke="rgb(0%,0%,0%)" x1="176.83929538" x2="182.886984266" y1="288.424541859" y2="286.591961029" /><line stroke="rgb(0%,0%,0%)" x1="195.518502888" x2="187.620793678" y1="283.208037155" y2="284.883856464" /><line stroke="rgb(0%,0%,0%)" x1="206.402475658" x2="197.182452995" y1="282.467225701" y2="282.98256212" /><line stroke="rgb(0%,0%,0%)" x1="209.715034059" x2="206.402475658" y1="281.727823833" y2="282.467225701" /><line stroke="rgb(0%,0%,0%)" x1="186.502204324" x2="183.693275838" y1="285.275861771" y2="286.412111353" /><line stroke="rgb(0%,0%,0%)" x1="183.693275838" x2="183.338671866" y1="286.412111353" y2="286.471527181" /><line stroke="rgb(0%,0%,0%)" x1="183.338671866" x2="182.886984266" y1="286.471527181" y2="286.591961029" /><line stroke="rgb(0%,0%,0%)" x1="115.278258051" x2="103.661766613" y1="313.652532737" y2="319.131434313" /><line stroke="rgb(0%,0%,0%)" x1="129.275082956" x2="120.509365667" y1="308.751669373" y2="311.415039438" /><line stroke="rgb(0%,0%,0%)" x1="144.02840819" x2="129.275082956" y1="303.180614041" y2="308.751669373" /><line stroke="rgb(0%,0%,0%)" x1="73.8981238576" x2="71.2861962564" y1="349.928550527" y2="352.884573326" /><line stroke="rgb(0%,0%,0%)" x1="71.2861962564" x2="68.0916780282" y1="352.884573326" y2="359.664083517" /><line stroke="rgb(0%,0%,0%)" x1="75.9021876986" x2="73.8981238576" y1="348.078290365" y2="349.928550527" /><line stroke="rgb(0%,0%,0%)" x1="75.9021876986" x2="76.7278781041" y1="348.078290365" y2="346.172620872" /><line stroke="rgb(0%,0%,0%)" x1="76.7278781041" x2="80.2132882386" y1="346.172620872" y2="338.302583882" /><line stroke="rgb(0%,0%,0%)" x1="83.7993971797" x2="87.7569797791" y1="332.012601777" y2="330.125170023" /><line stroke="rgb(0%,0%,0%)" x1="101.481384096" x2="88.3498979479" y1="320.275068154" y2="329.638379573" /><line stroke="rgb(0%,0%,0%)" x1="103.661766613" x2="101.481384096" y1="319.131434313" y2="320.275068154" /><line stroke="rgb(0%,0%,0%)" x1="120.509365667" x2="115.278258051" y1="311.415039438" y2="313.652532737" /><line stroke="rgb(0%,0%,0%)" x1="44.3672125114" x2="43.3810141171" y1="407.275096756" y2="410.64729383" /><line stroke="rgb(0%,0%,0%)" x1="44.3672125114" x2="46.2134399298" y1="407.275096756" y2="403.359849678" /><line stroke="rgb(0%,0%,0%)" x1="59.1013028103" x2="56.6727540098" y1="389.701790498" y2="391.317269316" /><line stroke="rgb(0%,0%,0%)" x1="56.6727540098" x2="51.9773350551" y1="391.317269316" y2="394.949692663" /><line stroke="rgb(0%,0%,0%)" x1="59.1013028103" x2="62.1373090661" y1="389.701790498" y2="387.725234602" /><line stroke="rgb(0%,0%,0%)" x1="62.1373090661" x2="63.3319534212" y1="387.725234602" y2="385.165224783" /><line stroke="rgb(0%,0%,0%)" x1="62.779808668" x2="63.3319534212" y1="384.338885098" y2="385.165224783" /><line stroke="rgb(0%,0%,0%)" x1="59.8269296404" x2="62.779808668" y1="380.394645208" y2="384.338885098" /><line stroke="rgb(0%,0%,0%)" x1="60.1903866649" x2="59.8269296404" y1="373.798646508" y2="380.394645208" /><line stroke="rgb(0%,0%,0%)" x1="60.3340467168" x2="60.1903866649" y1="373.333311254" y2="373.798646508" /><line stroke="rgb(0%,0%,0%)" x1="62.0605049029" x2="60.3340467168" y1="371.522583159" y2="373.333311254" /><line stroke="rgb(0%,0%,0%)" x1="62.0605049029" x2="61.8719239458" y1="371.522583159" y2="370.265885267" /><line stroke="rgb(0%,0%,0%)" x1="62.9611906047" x2="61.8719239458" y1="367.86413554" y2="370.265885267" /><line stroke="rgb(0%,0%,0%)" x1="66.1320034435" x2="62.9611906047" y1="362.429106547" y2="367.86413554" /><line stroke="rgb(0%,0%,0%)" x1="68.0916780282" x2="66.1320034435" y1="359.664083517" y2="362.429106547" /><line stroke="rgb(0%,0%,0%)" x1="82.2721095529" x2="80.2132882386" y1="333.929851622" y2="338.302583882" /><line stroke="rgb(0%,0%,0%)" x1="83.7993971797" x2="82.8752750479" y1="332.012601777" y2="332.920625516" /><line stroke="rgb(0%,0%,0%)" x1="25.1414875205" x2="27.1332843323" y1="457.725643314" y2="461.03894866" /><line stroke="rgb(0%,0%,0%)" x1="24.5245881034" x2="25.1414875205" y1="456.468588485" y2="457.725643314" /><line stroke="rgb(0%,0%,0%)" x1="24.5245881034" x2="23.9303418012" y1="456.468588485" y2="453.526051645" /><line stroke="rgb(0%,0%,0%)" x1="23.9303418012" x2="24.2505520953" y1="453.526051645" y2="449.207361448" /><line stroke="rgb(0%,0%,0%)" x1="26.6126864023" x2="25.033717858" y1="438.066195721" y2="441.731581228" /><line stroke="rgb(0%,0%,0%)" x1="25.033717858" x2="24.2505520953" y1="441.731581228" y2="449.207361448" /><line stroke="rgb(0%,0%,0%)" x1="27.4806934339" x2="26.6126864023" y1="437.386930409" y2="438.066195721" /><line stroke="rgb(0%,0%,0%)" x1="29.6911202669" x2="27.4806934339" y1="434.211068095" y2="437.386930409" /><line stroke="rgb(0%,0%,0%)" x1="31.9203938853" x2="35.1488356797" y1="430.640868551" y2="423.98924236" /><line stroke="rgb(0%,0%,0%)" x1="31.9203938853" x2="29.6911202669" y1="430.640868551" y2="434.211068095" /><line stroke="rgb(0%,0%,0%)" x1="37.1699724575" x2="41.3445761282" y1="421.774482375" y2="416.812350048" /><line stroke="rgb(0%,0%,0%)" x1="43.3810141171" x2="41.3445761282" y1="410.64729383" y2="416.812350048" /><line stroke="rgb(0%,0%,0%)" x1="47.7564301409" x2="46.2134399298" y1="400.59673163" y2="403.359849678" /><line stroke="rgb(0%,0%,0%)" x1="49.9591582943" x2="47.7564301409" y1="398.292654965" y2="400.59673163" /><line stroke="rgb(0%,0%,0%)" x1="51.9773350551" x2="49.9591582943" y1="394.949692663" y2="398.292654965" /><line stroke="rgb(0%,0%,0%)" x1="82.8752750479" x2="82.2721095529" y1="332.920625516" y2="333.929851622" /><line stroke="rgb(0%,0%,0%)" x1="88.3498979479" x2="87.7569797791" y1="329.638379573" y2="330.125170023" /><line stroke="rgb(0%,0%,0%)" x1="37.1699724575" x2="35.1488356797" y1="421.774482375" y2="423.98924236" /><line stroke="rgb(0%,0%,0%)" x1="500.034824701" x2="499.522142838" y1="411.29222182" y2="410.357852882" /><line stroke="rgb(0%,0%,0%)" x1="480.246966591" x2="478.347850193" y1="378.792826926" y2="377.529949794" /><line stroke="rgb(0%,0%,0%)" x1="469.567552594" x2="469.563234026" y1="371.057622728" y2="371.051858679" /><line stroke="rgb(0%,0%,0%)" x1="478.347850193" x2="469.567552594" y1="377.529949794" y2="371.057622728" /><line stroke="rgb(0%,0%,0%)" x1="491.285010259" x2="492.13915689" y1="394.164510313" y2="396.811149239" /><line stroke="rgb(0%,0%,0%)" x1="491.285010259" x2="489.803089155" y1="394.164510313" y2="390.893404407" /><line stroke="rgb(0%,0%,0%)" x1="493.846035022" x2="492.13915689" y1="400.323028091" y2="396.811149239" /><line stroke="rgb(0%,0%,0%)" x1="487.852978563" x2="489.803089155" y1="389.005532717" y2="390.893404407" /><line stroke="rgb(0%,0%,0%)" x1="487.852978563" x2="480.246966591" y1="389.005532717" y2="378.792826926" /><line stroke="rgb(0%,0%,0%)" x1="503.68304794" x2="501.706434588" y1="422.602034853" y2="416.657880068" /><line stroke="rgb(0%,0%,0%)" x1="500.034824701" x2="501.706434588" y1="411.29222182" y2="416.657880068" /><line stroke="rgb(0%,0%,0%)" x1="499.522142838" x2="498.838891626" y1="410.357852882" y2="409.450354131" /><line stroke="rgb(0%,0%,0%)" x1="498.838891626" x2="495.042630696" y1="409.450354131" y2="403.115498681" /><line stroke="rgb(0%,0%,0%)" x1="495.042630696" x2="493.846035022" y1="403.115498681" y2="400.323028091" /><line stroke="rgb(0%,0%,0%)" x1="450.702800099" x2="451.286321791" y1="562.910429839" y2="562.2680416" /><line stroke="rgb(0%,0%,0%)" x1="469.555301312" x2="469.563234026" y1="371.047745555" y2="371.051858679" /><line stroke="rgb(0%,0%,0%)" x1="469.555301312" x2="463.447282623" y1="371.047745555" y2="365.613951934" /><line stroke="rgb(0%,0%,0%)" x1="463.447282623" x2="462.726536364" y1="365.613951934" y2="364.836611593" /><line stroke="rgb(0%,0%,0%)" x1="462.726536364" x2="455.700229006" y1="364.836611593" y2="359.155979675" /><line stroke="rgb(0%,0%,0%)" x1="455.700229006" x2="452.659614292" y1="359.155979675" y2="356.597606071" /><line stroke="rgb(0%,0%,0%)" x1="415.379440633" x2="412.149269172" y1="605.21932842" y2="606.769205623" /><line stroke="rgb(0%,0%,0%)" x1="415.379440633" x2="419.915051084" y1="605.21932842" y2="601.487545151" /><line stroke="rgb(0%,0%,0%)" x1="422.624224694" x2="419.915051084" y1="598.652499847" y2="601.487545151" /><line stroke="rgb(0%,0%,0%)" x1="430.055855523" x2="433.096867322" y1="590.110190815" y2="586.419312319" /><line stroke="rgb(0%,0%,0%)" x1="422.624224694" x2="430.055855523" y1="598.652499847" y2="590.110190815" /><line stroke="rgb(0%,0%,0%)" x1="433.096867322" x2="437.089621366" y1="586.419312319" y2="580.12385964" /><line stroke="rgb(0%,0%,0%)" x1="445.35234689" x2="437.089621366" y1="568.094827746" y2="580.12385964" /><line stroke="rgb(0%,0%,0%)" x1="445.35234689" x2="450.702800099" y1="568.094827746" y2="562.910429839" /><line stroke="rgb(0%,0%,0%)" x1="377.789066353" x2="391.276381959" y1="622.342755024" y2="616.807188789" /><line stroke="rgb(0%,0%,0%)" x1="377.789066353" x2="370.446543471" y1="622.342755024" y2="624.861144182" /><line stroke="rgb(0%,0%,0%)" x1="402.873938437" x2="391.656727281" y1="610.003078224" y2="616.667622129" /><line stroke="rgb(0%,0%,0%)" x1="391.540963039" x2="391.656727281" y1="616.703471572" y2="616.667622129" /><line stroke="rgb(0%,0%,0%)" x1="402.873938437" x2="412.149269172" y1="610.003078224" y2="606.769205623" /><line stroke="rgb(0%,0%,0%)" x1="353.085952604" x2="348.121062546" y1="626.772808073" y2="630.225901719" /><line stroke="rgb(0%,0%,0%)" x1="354.834215343" x2="353.085952604" y1="626.975023675" y2="626.772808073" /><line stroke="rgb(0%,0%,0%)" x1="354.834215343" x2="363.091588537" y1="626.975023675" y2="626.292887054" /><line stroke="rgb(0%,0%,0%)" x1="369.089964815" x2="370.446543471" y1="625.45126049" y2="624.861144182" /><line stroke="rgb(0%,0%,0%)" x1="391.276381959" x2="391.540963039" y1="616.807188789" y2="616.703471572" /><line stroke="rgb(0%,0%,0%)" x1="299.358261922" x2="311.03181522" y1="639.741640898" y2="637.100094768" /><line stroke="rgb(0%,0%,0%)" x1="290.005066543" x2="285.843807185" y1="639.72284308" y2="640.415308363" /><line stroke="rgb(0%,0%,0%)" x1="290.005066543" x2="299.358261922" y1="639.72284308" y2="639.741640898" /><line stroke="rgb(0%,0%,0%)" x1="330.115823377" x2="324.292197318" y1="632.945818483" y2="634.18064114" /><line stroke="rgb(0%,0%,0%)" x1="316.548136905" x2="321.09676974" y1="635.898496676" y2="637.522363291" /><line stroke="rgb(0%,0%,0%)" x1="321.09676974" x2="324.292197318" y1="637.522363291" y2="634.18064114" /><line stroke="rgb(0%,0%,0%)" x1="330.115823377" x2="337.583230581" y1="632.945818483" y2="631.552830158" /><line stroke="rgb(0%,0%,0%)" x1="337.583230581" x2="337.751569302" y1="631.552830158" y2="631.460363517" /><line stroke="rgb(0%,0%,0%)" x1="343.962428241" x2="344.937828804" y1="631.163225757" y2="631.009853036" /><line stroke="rgb(0%,0%,0%)" x1="343.962428241" x2="337.751569302" y1="631.163225757" y2="631.460363517" /><line stroke="rgb(0%,0%,0%)" x1="344.937828804" x2="345.430896141" y1="631.009853036" y2="631.069589607" /><line stroke="rgb(0%,0%,0%)" x1="363.091588537" x2="367.903421229" y1="626.292887054" y2="625.569611797" /><line stroke="rgb(0%,0%,0%)" x1="345.430896141" x2="348.121062546" y1="631.069589607" y2="630.225901719" /><line stroke="rgb(0%,0%,0%)" x1="367.903421229" x2="369.089964815" y1="625.569611797" y2="625.45126049" /><line stroke="rgb(0%,0%,0%)" x1="281.540968229" x2="285.843807185" y1="639.202585558" y2="640.415308363" /><line stroke="rgb(0%,0%,0%)" x1="274.288392482" x2="281.540968229" y1="638.354360038" y2="639.202585558" /><line stroke="rgb(0%,0%,0%)" x1="311.03181522" x2="316.548136905" y1="637.100094768" y2="635.898496676" /><line stroke="rgb(0%,0%,0%)" x1="212.264075109" x2="209.591197602" y1="633.688610216" y2="632.503806192" /><line stroke="rgb(0%,0%,0%)" x1="212.949912503" x2="212.264075109" y1="633.974665609" y2="633.688610216" /><line stroke="rgb(0%,0%,0%)" x1="231.342771749" x2="234.087256003" y1="637.771931586" y2="637.544273546" /><line stroke="rgb(0%,0%,0%)" x1="231.342771749" x2="230.19712381" y1="637.771931586" y2="637.752899778" /><line stroke="rgb(0%,0%,0%)" x1="251.847939824" x2="241.960475235" y1="637.221218651" y2="636.715281451" /><line stroke="rgb(0%,0%,0%)" x1="239.292449357" x2="241.49120304" y1="637.561432755" y2="636.668785168" /><line stroke="rgb(0%,0%,0%)" x1="234.087256003" x2="239.292449357" y1="637.544273546" y2="637.561432755" /><line stroke="rgb(0%,0%,0%)" x1="270.758042691" x2="274.288392482" y1="637.145828829" y2="638.354360038" /><line stroke="rgb(0%,0%,0%)" x1="270.758042691" x2="266.910622235" y1="637.145828829" y2="637.161938203" /><line stroke="rgb(0%,0%,0%)" x1="260.528846311" x2="264.030947772" y1="637.359735586" y2="637.815850563" /><line stroke="rgb(0%,0%,0%)" x1="264.030947772" x2="266.910622235" y1="637.815850563" y2="637.161938203" /><line stroke="rgb(0%,0%,0%)" x1="251.847939824" x2="260.528846311" y1="637.221218651" y2="637.359735586" /><line stroke="rgb(0%,0%,0%)" x1="193.916251097" x2="194.871501125" y1="627.593267752" y2="627.918368022" /><line stroke="rgb(0%,0%,0%)" x1="199.611566154" x2="207.220771228" y1="629.282872406" y2="631.615402895" /><line stroke="rgb(0%,0%,0%)" x1="220.362567437" x2="223.019296529" y1="636.416148778" y2="636.925420966" /><line stroke="rgb(0%,0%,0%)" x1="212.949912503" x2="220.362567437" y1="633.974665609" y2="636.416148778" /><line stroke="rgb(0%,0%,0%)" x1="223.019296529" x2="230.19712381" y1="636.925420966" y2="637.752899778" /><line stroke="rgb(0%,0%,0%)" x1="241.49120304" x2="241.960475235" y1="636.668785168" y2="636.715281451" /><line stroke="rgb(0%,0%,0%)" x1="163.079609522" x2="184.682630938" y1="616.438106684" y2="624.321251778" /><line stroke="rgb(0%,0%,0%)" x1="184.682630938" x2="187.457433428" y1="624.321251778" y2="625.268733869" /><line stroke="rgb(0%,0%,0%)" x1="187.457433428" x2="190.966632637" y1="625.268733869" y2="626.505012934" /><line stroke="rgb(0%,0%,0%)" x1="194.871501125" x2="199.611566154" y1="627.918368022" y2="629.282872406" /><line stroke="rgb(0%,0%,0%)" x1="193.916251097" x2="190.966632637" y1="627.593267752" y2="626.505012934" /><line stroke="rgb(0%,0%,0%)" x1="208.238022536" x2="209.591197602" y1="631.830187842" y2="632.503806192" /><line stroke="rgb(0%,0%,0%)" x1="207.220771228" x2="208.238022536" y1="631.615402895" y2="631.830187842" /><line stroke="rgb(0%,0%,0%)" x1="100.217184212" x2="94.5689132926" y1="599.020669126" y2="594.95376355" /><line stroke="rgb(0%,0%,0%)" x1="105.064226181" x2="117.740791285" y1="600.619616541" y2="606.068849713" /><line stroke="rgb(0%,0%,0%)" x1="105.064226181" x2="100.217184212" y1="600.619616541" y2="599.020669126" /><line stroke="rgb(0%,0%,0%)" x1="149.514277245" x2="163.079609522" y1="612.224120356" y2="616.438106684" /><line stroke="rgb(0%,0%,0%)" x1="77.9807783681" x2="78.2475074335" y1="577.886007394" y2="578.247421444" /><line stroke="rgb(0%,0%,0%)" x1="78.2475074335" x2="81.9023127859" y1="578.247421444" y2="582.91917783" /><line stroke="rgb(0%,0%,0%)" x1="119.273857566" x2="120.585516264" y1="606.624526856" y2="607.146986193" /><line stroke="rgb(0%,0%,0%)" x1="117.740791285" x2="119.273857566" y1="606.068849713" y2="606.624526856" /><line stroke="rgb(0%,0%,0%)" x1="120.585516264" x2="121.396554426" y1="607.146986193" y2="607.303742838" /><line stroke="rgb(0%,0%,0%)" x1="121.396554426" x2="123.850973531" y1="607.303742838" y2="607.899678631" /><line stroke="rgb(0%,0%,0%)" x1="149.514277245" x2="123.850973531" y1="612.224120356" y2="607.899678631" /><line stroke="rgb(0%,0%,0%)" x1="48.215099139" x2="49.0881775054" y1="522.603099466" y2="523.70030561" /><line stroke="rgb(0%,0%,0%)" x1="48.215099139" x2="45.0897891849" y1="522.603099466" y2="517.326363405" /><line stroke="rgb(0%,0%,0%)" x1="61.5270174707" x2="66.1780770732" y1="555.604103203" y2="561.164377208" /><line stroke="rgb(0%,0%,0%)" x1="61.5106694528" x2="61.5270174707" y1="555.430218779" y2="555.604103203" /><line stroke="rgb(0%,0%,0%)" x1="61.5106694528" x2="61.3093391055" y1="555.430218779" y2="554.298248918" /><line stroke="rgb(0%,0%,0%)" x1="59.3522897065" x2="60.2706230481" y1="545.352585986" y2="546.666531209" /><line stroke="rgb(0%,0%,0%)" x1="58.9759994339" x2="58.8955946001" y1="538.518115385" y2="539.601499953" /><line stroke="rgb(0%,0%,0%)" x1="59.5358398498" x2="58.9759994339" y1="537.803859363" y2="538.518115385" /><line stroke="rgb(0%,0%,0%)" x1="62.3849575294" x2="59.5358398498" y1="532.547088128" y2="537.803859363" /><line stroke="rgb(0%,0%,0%)" x1="62.0138357359" x2="62.3849575294" y1="532.387647123" y2="532.547088128" /><line stroke="rgb(0%,0%,0%)" x1="62.0138357359" x2="58.931729694" y1="532.387647123" y2="530.754784233" /><line stroke="rgb(0%,0%,0%)" x1="49.0881775054" x2="58.0188594433" y1="523.70030561" y2="530.186382896" /><line stroke="rgb(0%,0%,0%)" x1="77.9807783681" x2="72.5572327966" y1="577.886007394" y2="571.017168687" /><line stroke="rgb(0%,0%,0%)" x1="70.9401745294" x2="72.5572327966" y1="568.841364706" y2="571.017168687" /><line stroke="rgb(0%,0%,0%)" x1="66.1780770732" x2="70.814926168" y1="561.164377208" y2="568.500243477" /><line stroke="rgb(0%,0%,0%)" x1="70.814926168" x2="70.9401745294" y1="568.500243477" y2="568.841364706" /><line stroke="rgb(0%,0%,0%)" x1="91.3066377828" x2="94.5689132926" y1="591.87152383" y2="594.95376355" /><line stroke="rgb(0%,0%,0%)" x1="86.8759799991" x2="91.3066377828" y1="588.026353865" y2="591.87152383" /><line stroke="rgb(0%,0%,0%)" x1="81.9023127859" x2="86.8759799991" y1="582.91917783" y2="588.026353865" /><line stroke="rgb(0%,0%,0%)" x1="25.6377194159" x2="27.4727768324" y1="482.242281837" y2="483.734639951" /><line stroke="rgb(0%,0%,0%)" x1="24.8580128152" x2="25.6377194159" y1="481.435987128" y2="482.242281837" /><line stroke="rgb(0%,0%,0%)" x1="24.8580128152" x2="24.0469176824" y1="481.435987128" y2="479.058544239" /><line stroke="rgb(0%,0%,0%)" x1="23.5036304174" x2="23.2235909126" y1="466.648855057" y2="471.290139011" /><line stroke="rgb(0%,0%,0%)" x1="22.5467752935" x2="24.0469176824" y1="475.736596952" y2="479.058544239" /><line stroke="rgb(0%,0%,0%)" x1="23.2235909126" x2="22.5467752935" y1="471.290139011" y2="475.736596952" /><line stroke="rgb(0%,0%,0%)" x1="24.4322295768" x2="23.5036304174" y1="465.504364508" y2="466.648855057" /><line stroke="rgb(0%,0%,0%)" x1="24.4322295768" x2="27.0641138381" y1="465.504364508" y2="462.695437177" /><line stroke="rgb(0%,0%,0%)" x1="37.683903865" x2="32.2503688713" y1="498.321022622" y2="494.325089267" /><line stroke="rgb(0%,0%,0%)" x1="27.4727768324" x2="29.7158133125" y1="483.734639951" y2="485.811676986" /><line stroke="rgb(0%,0%,0%)" x1="40.7718298231" x2="45.0897891849" y1="509.585560026" y2="517.326363405" /><line stroke="rgb(0%,0%,0%)" x1="39.9407735852" x2="40.0020641782" y1="500.285320725" y2="507.767463106" /><line stroke="rgb(0%,0%,0%)" x1="60.2706230481" x2="61.3093391055" y1="546.666531209" y2="554.298248918" /><line stroke="rgb(0%,0%,0%)" x1="58.8955946001" x2="59.3522897065" y1="539.601499953" y2="545.352585986" /><line stroke="rgb(0%,0%,0%)" x1="58.4264982343" x2="58.931729694" y1="530.493166387" y2="530.754784233" /><line stroke="rgb(0%,0%,0%)" x1="58.4110936981" x2="58.4264982343" y1="530.459806353" y2="530.493166387" /><line stroke="rgb(0%,0%,0%)" x1="58.0188594433" x2="58.4110936981" y1="530.186382896" y2="530.459806353" /><line stroke="rgb(0%,0%,0%)" x1="31.2276159067" x2="32.2503688713" y1="492.985376405" y2="494.325089267" /><line stroke="rgb(0%,0%,0%)" x1="30.1970266694" x2="31.2276159067" y1="487.15562044" y2="492.985376405" /><line stroke="rgb(0%,0%,0%)" x1="29.7158133125" x2="30.1970266694" y1="485.811676986" y2="487.15562044" /><line stroke="rgb(0%,0%,0%)" x1="27.4987011667" x2="27.0641138381" y1="461.898126319" y2="462.695437177" /><line stroke="rgb(0%,0%,0%)" x1="40.143997799" x2="40.7718298231" y1="508.385957434" y2="509.585560026" /><line stroke="rgb(0%,0%,0%)" x1="40.0020641782" x2="40.143997799" y1="507.767463106" y2="508.385957434" /><line stroke="rgb(0%,0%,0%)" x1="39.6918855799" x2="39.9407735852" y1="499.308064225" y2="500.285320725" /><line stroke="rgb(0%,0%,0%)" x1="37.683903865" x2="39.6918855799" y1="498.321022622" y2="499.308064225" /><line stroke="rgb(0%,0%,0%)" x1="498.297878494" x2="497.374277107" y1="508.503106207" y2="510.223421446" /><line stroke="rgb(0%,0%,0%)" x1="498.297878494" x2="498.952769547" y1="508.503106207" y2="507.282679165" /><line stroke="rgb(0%,0%,0%)" x1="498.952769547" x2="503.404556805" y1="507.282679165" y2="493.477570864" /><line stroke="rgb(0%,0%,0%)" x1="503.404556805" x2="508.109984204" y1="493.477570864" y2="480.222597497" /><line stroke="rgb(0%,0%,0%)" x1="508.184289737" x2="508.109984204" y1="479.991944869" y2="480.222597497" /><line stroke="rgb(0%,0%,0%)" x1="508.222558171" x2="508.184289737" y1="479.899776482" y2="479.991944869" /><line stroke="rgb(0%,0%,0%)" x1="508.222558171" x2="508.222755974" y1="479.899776482" y2="479.806536179" /><line stroke="rgb(0%,0%,0%)" x1="508.222755974" x2="508.252067237" y1="479.806536179" y2="479.732803046" /><line stroke="rgb(0%,0%,0%)" x1="508.252067237" x2="508.44960587" y1="479.732803046" y2="478.593174796" /><line stroke="rgb(0%,0%,0%)" x1="508.44960587" x2="510.757140916" y1="478.593174796" y2="469.676122007" /><line stroke="rgb(0%,0%,0%)" x1="510.757140916" x2="510.400309181" y1="469.676122007" y2="464.473251824" /><line stroke="rgb(0%,0%,0%)" x1="510.712441579" x2="510.400309181" y1="459.997729281" y2="464.473251824" /><line stroke="rgb(0%,0%,0%)" x1="451.286321791" x2="452.319083709" y1="562.2680416" y2="561.525283348" /><line stroke="rgb(0%,0%,0%)" x1="456.968953961" x2="452.319083709" y1="557.716181633" y2="561.525283348" /><line stroke="rgb(0%,0%,0%)" x1="456.968953961" x2="459.726149884" y1="557.716181633" y2="555.537190569" /><line stroke="rgb(0%,0%,0%)" x1="461.788837135" x2="459.726149884" y1="554.539889915" y2="555.537190569" /><line stroke="rgb(0%,0%,0%)" x1="463.229967591" x2="461.788837135" y1="553.288996219" y2="554.539889915" /><line stroke="rgb(0%,0%,0%)" x1="463.229967591" x2="466.025543318" y1="553.288996219" y2="550.603959104" /><line stroke="rgb(0%,0%,0%)" x1="466.025543318" x2="474.231682636" y1="550.603959104" y2="544.496280941" /><line stroke="rgb(0%,0%,0%)" x1="474.231682636" x2="475.475716919" y1="544.496280941" y2="542.722319471" /><line stroke="rgb(0%,0%,0%)" x1="475.475716919" x2="480.098151492" y1="542.722319471" y2="539.094528456" /><line stroke="rgb(0%,0%,0%)" x1="486.075436087" x2="486.279614363" y1="532.838484225" y2="532.525373608" /><line stroke="rgb(0%,0%,0%)" x1="480.098151492" x2="486.075436087" y1="539.094528456" y2="532.838484225" /><line stroke="rgb(0%,0%,0%)" x1="486.279614363" x2="486.58572922" y1="532.525373608" y2="532.25357343" /><line stroke="rgb(0%,0%,0%)" x1="491.238297781" x2="486.58572922" y1="520.895926826" y2="532.25357343" /><line stroke="rgb(0%,0%,0%)" x1="491.238297781" x2="491.443803616" y1="520.895926826" y2="520.453942272" /><line stroke="rgb(0%,0%,0%)" x1="491.443803616" x2="491.672162644" y1="520.453942272" y2="519.986960867" /><line stroke="rgb(0%,0%,0%)" x1="493.058181837" x2="491.672162644" y1="518.226382187" y2="519.986960867" /><line stroke="rgb(0%,0%,0%)" x1="493.058181837" x2="497.374277107" y1="518.226382187" y2="510.223421446" /><line stroke="rgb(0%,0%,0%)" x1="27.1332843323" x2="27.4987011667" y1="461.03894866" y2="461.898126319" /><line stroke="rgb(0%,0%,0%)" x1="512.349041745" x2="510.243752608" y1="454.72680435" y2="446.135519965" /><line stroke="rgb(0%,0%,0%)" x1="510.585185931" x2="510.712441579" y1="458.988342352" y2="459.997729281" /><line stroke="rgb(0%,0%,0%)" x1="510.585185931" x2="512.349041745" y1="458.988342352" y2="454.72680435" /></svg>