<?xml version="1.0" encoding="utf-8" ?>
<svg baseProfile="full" height="100%" version="1.1" viewBox="0.5 0.5 685.793960571 941.299331665" width="100%" xmlns="http://www.w3.org/2000/svg" xmlns:ev="http://www.w3.org/2001/xml-events" xmlns:xlink="http://www.w3.org/1999/xlink"><defs /><line stroke="rgb(0%,0%,0%)" x1="509.828750678" x2="510.564140254" y1="437.018547527" y2="441.81214074" /><line stroke="rgb(0%,0%,0%)" x1="504.457159185" x2="505.376472065" y1="425.403362602" y2="428.260983084" /><line stroke="rgb(0%,0%,0%)" x1="504.457159185" x2="504.389817616" y1="425.403362602" y2="425.120581394" /><line stroke="rgb(0%,0%,0%)" x1="504.389817616" x2="504.073123783" y1="425.120581394" y2="424.409170352" /><line stroke="rgb(0%,0%,0%)" x1="504.073123783" x2="502.963580601" y1="424.409170352" y2="420.652862707" /><line stroke="rgb(0%,0%,0%)" x1="511.34400588" x2="511.144637492" y1="446.938975113" y2="445.428854957" /><line stroke="rgb(0%,0%,0%)" x1="509.828750678" x2="508.674415866" y1="437.018547527" y2="433.591169222" /><line stroke="rgb(0%,0%,0%)" x1="508.674415866" x2="505.376472065" y1="433.591169222" y2="428.260983084" /><line stroke="rgb(0%,0%,0%)" x1="511.144637492" x2="510.564140254" y1="445.428854957" y2="441.81214074" /><line stroke="rgb(0%,0%,0%)" x1="436.25935683" x2="439.935594249" y1="334.712689417" y2="340.031005277" /><line stroke="rgb(0%,0%,0%)" x1="446.147796074" x2="447.223524601" y1="350.437116232" y2="351.311330338" /><line stroke="rgb(0%,0%,0%)" x1="445.61621462" x2="446.147796074" y1="349.876601301" y2="350.437116232" /><line stroke="rgb(0%,0%,0%)" x1="453.67802562" x2="447.223524601" y1="356.649929561" y2="351.311330338" /><line stroke="rgb(0%,0%,0%)" x1="444.905639419" x2="445.61621462" y1="348.975732054" y2="349.876601301" /><line stroke="rgb(0%,0%,0%)" x1="444.905639419" x2="444.177246475" y1="348.975732054" y2="348.23451994" /><line stroke="rgb(0%,0%,0%)" x1="444.177246475" x2="439.935594249" y1="348.23451994" y2="340.031005277" /><line stroke="rgb(0%,0%,0%)" x1="398.500188571" x2="399.14546926" y1="299.919671559" y2="300.541174219" /><line stroke="rgb(0%,0%,0%)" x1="398.500188571" x2="395.76973561" y1="299.919671559" y2="298.313129617" /><line stroke="rgb(0%,0%,0%)" x1="409.314496288" x2="416.070251825" y1="308.527998019" y2="313.550535825" /><line stroke="rgb(0%,0%,0%)" x1="409.314496288" x2="399.14546926" y1="308.527998019" y2="300.541174219" /><line stroke="rgb(0%,0%,0%)" x1="432.146622919" x2="424.69487873" y1="330.054625728" y2="321.702773677" /><line stroke="rgb(0%,0%,0%)" x1="422.607847169" x2="420.963711919" y1="318.646279278" y2="317.149276003" /><line stroke="rgb(0%,0%,0%)" x1="424.69487873" x2="422.607847169" y1="321.702773677" y2="318.646279278" /><line stroke="rgb(0%,0%,0%)" x1="420.963711919" x2="416.070251825" y1="317.149276003" y2="313.550535825" /><line stroke="rgb(0%,0%,0%)" x1="436.25935683" x2="432.146622919" y1="334.712689417" y2="330.054625728" /><line stroke="rgb(0%,0%,0%)" x1="366.026309749" x2="363.077528178" y1="290.173285272" y2="289.394396087" /><line stroke="rgb(0%,0%,0%)" x1="363.077528178" x2="356.353358802" y1="289.394396087" y2="288.395122948" /><line stroke="rgb(0%,0%,0%)" x1="378.904829656" x2="378.714843936" y1="293.062901046" y2="293.021563444" /><line stroke="rgb(0%,0%,0%)" x1="383.43163798" x2="386.776626025" y1="295.980453188" y2="296.487379031" /><line stroke="rgb(0%,0%,0%)" x1="395.76973561" x2="386.776626025" y1="298.313129617" y2="296.487379031" /><line stroke="rgb(0%,0%,0%)" x1="383.43163798" x2="378.904829656" y1="295.980453188" y2="293.062901046" /><line stroke="rgb(0%,0%,0%)" x1="299.763855877" x2="297.733262746" y1="280.955484492" y2="280.875447725" /><line stroke="rgb(0%,0%,0%)" x1="343.695162495" x2="337.834555708" y1="286.483272209" y2="282.912207816" /><line stroke="rgb(0%,0%,0%)" x1="348.416602121" x2="343.695162495" y1="287.102429703" y2="286.483272209" /><line stroke="rgb(0%,0%,0%)" x1="354.372134569" x2="348.416602121" y1="287.920869752" y2="287.102429703" /><line stroke="rgb(0%,0%,0%)" x1="356.353358802" x2="354.372134569" y1="288.395122948" y2="287.920869752" /><line stroke="rgb(0%,0%,0%)" x1="369.737536162" x2="373.545997823" y1="290.37596612" y2="291.585514844" /><line stroke="rgb(0%,0%,0%)" x1="378.714843936" x2="373.545997823" y1="293.021563444" y2="291.585514844" /><line stroke="rgb(0%,0%,0%)" x1="369.737536162" x2="366.026309749" y1="290.37596612" y2="290.173285272" /><line stroke="rgb(0%,0%,0%)" x1="266.926579442" x2="266.728176528" y1="283.60618294" y2="283.598974535" /><line stroke="rgb(0%,0%,0%)" x1="267.0026379" x2="266.926579442" y1="283.58883135" y2="283.60618294" /><line stroke="rgb(0%,0%,0%)" x1="290.242451848" x2="279.571961313" y1="282.746750532" y2="283.326437809" /><line stroke="rgb(0%,0%,0%)" x1="310.382397093" x2="311.828910535" y1="279.734824691" y2="279.682198336" /><line stroke="rgb(0%,0%,0%)" x1="310.382397093" x2="299.763855877" y1="279.734824691" y2="280.955484492" /><line stroke="rgb(0%,0%,0%)" x1="311.828910535" x2="312.566775683" y1="279.682198336" y2="278.790598705" /><line stroke="rgb(0%,0%,0%)" x1="312.566775683" x2="314.683491234" y1="278.790598705" y2="279.070760135" /><line stroke="rgb(0%,0%,0%)" x1="315.712794126" x2="319.905014374" y1="277.832796732" y2="278.424521468" /><line stroke="rgb(0%,0%,0%)" x1="315.712794126" x2="314.683491234" y1="277.832796732" y2="279.070760135" /><line stroke="rgb(0%,0%,0%)" x1="326.202459119" x2="329.039029233" y1="279.963338321" y2="280.149741249" /><line stroke="rgb(0%,0%,0%)" x1="326.202459119" x2="319.905014374" y1="279.963338321" y2="278.424521468" /><line stroke="rgb(0%,0%,0%)" x1="333.035364246" x2="329.039029233" y1="280.433505661" y2="280.149741249" /><line stroke="rgb(0%,0%,0%)" x1="337.834555708" x2="336.190732609" y1="282.912207816" y2="281.510037668" /><line stroke="rgb(0%,0%,0%)" x1="336.190732609" x2="334.547779258" y1="281.510037668" y2="280.697751684" /><line stroke="rgb(0%,0%,0%)" x1="334.547779258" x2="333.035364246" y1="280.697751684" y2="280.433505661" /><line stroke="rgb(0%,0%,0%)" x1="267.0026379" x2="269.899514467" y1="283.58883135" y2="283.530338406" /><line stroke="rgb(0%,0%,0%)" x1="279.571961313" x2="279.148482479" y1="283.326437809" y2="283.430361127" /><line stroke="rgb(0%,0%,0%)" x1="297.733262746" x2="290.242451848" y1="280.875447725" y2="282.746750532" /><line stroke="rgb(0%,0%,0%)" x1="210.073923496" x2="210.476008499" y1="280.789159491" y2="280.749376698" /><line stroke="rgb(0%,0%,0%)" x1="227.140499291" x2="233.513181625" y1="280.270464767" y2="280.926744682" /><line stroke="rgb(0%,0%,0%)" x1="248.582727743" x2="246.350494111" y1="283.388247046" y2="282.878036457" /><line stroke="rgb(0%,0%,0%)" x1="248.582727743" x2="253.790837181" y1="283.388247046" y2="283.707757352" /><line stroke="rgb(0%,0%,0%)" x1="266.728176528" x2="253.790837181" y1="283.598974535" y2="283.707757352" /><line stroke="rgb(0%,0%,0%)" x1="278.38624209" x2="269.899514467" y1="283.408411624" y2="283.530338406" /><line stroke="rgb(0%,0%,0%)" x1="279.148482479" x2="278.888473234" y1="283.430361127" y2="283.420359179" /><line stroke="rgb(0%,0%,0%)" x1="278.888473234" x2="278.38624209" y1="283.420359179" y2="283.408411624" /><line stroke="rgb(0%,0%,0%)" x1="155.256693494" x2="153.444414051" y1="296.721801962" y2="297.511893807" /><line stroke="rgb(0%,0%,0%)" x1="155.256693494" x2="158.22590563" y1="296.721801962" y2="295.362141775" /><line stroke="rgb(0%,0%,0%)" x1="195.192882005" x2="195.595321152" y1="282.297679616" y2="282.243146742" /><line stroke="rgb(0%,0%,0%)" x1="210.039208287" x2="209.954678888" y1="280.8053951" y2="280.805515032" /><line stroke="rgb(0%,0%,0%)" x1="210.039208287" x2="210.073923496" y1="280.8053951" y2="280.789159491" /><line stroke="rgb(0%,0%,0%)" x1="218.163629479" x2="210.476008499" y1="280.194500825" y2="280.749376698" /><line stroke="rgb(0%,0%,0%)" x1="227.140499291" x2="221.042506043" y1="280.270464767" y2="280.307054294" /><line stroke="rgb(0%,0%,0%)" x1="221.042506043" x2="218.521897184" y1="280.307054294" y2="280.238662423" /><line stroke="rgb(0%,0%,0%)" x1="218.521897184" x2="218.163629479" y1="280.238662423" y2="280.194500825" /><line stroke="rgb(0%,0%,0%)" x1="246.350494111" x2="238.258801671" y1="282.878036457" y2="281.685993215" /><line stroke="rgb(0%,0%,0%)" x1="236.723782355" x2="233.513181625" y1="281.287258904" y2="280.926744682" /><line stroke="rgb(0%,0%,0%)" x1="238.258801671" x2="236.723782355" y1="281.685993215" y2="281.287258904" /><line stroke="rgb(0%,0%,0%)" x1="153.444414051" x2="145.804923333" y1="297.511893807" y2="301.155447593" /><line stroke="rgb(0%,0%,0%)" x1="167.796402959" x2="158.22590563" y1="290.795314571" y2="295.362141775" /><line stroke="rgb(0%,0%,0%)" x1="176.420832128" x2="167.796402959" y1="287.517838415" y2="290.795314571" /><line stroke="rgb(0%,0%,0%)" x1="176.420832128" x2="181.718514283" y1="287.517838415" y2="285.912525883" /><line stroke="rgb(0%,0%,0%)" x1="195.192882005" x2="192.927619495" y1="282.297679616" y2="282.778346927" /><line stroke="rgb(0%,0%,0%)" x1="206.159274665" x2="195.595321152" y1="281.652693749" y2="282.243146742" /><line stroke="rgb(0%,0%,0%)" x1="209.954678888" x2="206.159274665" y1="280.805515032" y2="281.652693749" /><line stroke="rgb(0%,0%,0%)" x1="183.86307675" x2="187.262529958" y1="285.434164357" y2="284.059039534" /><line stroke="rgb(0%,0%,0%)" x1="183.86307675" x2="182.919906318" y1="285.434164357" y2="285.592197704" /><line stroke="rgb(0%,0%,0%)" x1="182.919906318" x2="181.718514283" y1="285.592197704" y2="285.912525883" /><line stroke="rgb(0%,0%,0%)" x1="192.927619495" x2="187.262529958" y1="282.778346927" y2="284.059039534" /><line stroke="rgb(0%,0%,0%)" x1="114.644837577" x2="104.40879373" y1="312.774670313" y2="317.602485757" /><line stroke="rgb(0%,0%,0%)" x1="127.951496827" x2="121.380221422" y1="307.897143133" y2="309.893755347" /><line stroke="rgb(0%,0%,0%)" x1="145.804923333" x2="127.951496827" y1="301.155447593" y2="307.897143133" /><line stroke="rgb(0%,0%,0%)" x1="73.2213440731" x2="72.356497507" y1="349.08693718" y2="350.065718585" /><line stroke="rgb(0%,0%,0%)" x1="72.356497507" x2="68.1680351318" y1="350.065718585" y2="358.954609281" /><line stroke="rgb(0%,0%,0%)" x1="73.8849182588" x2="73.2213440731" y1="348.474289591" y2="349.08693718" /><line stroke="rgb(0%,0%,0%)" x1="73.8849182588" x2="74.1583161552" y1="348.474289591" y2="347.84329518" /><line stroke="rgb(0%,0%,0%)" x1="74.1583161552" x2="75.3123852745" y1="347.84329518" y2="345.237413431" /><line stroke="rgb(0%,0%,0%)" x1="83.1830909485" x2="86.6115503925" y1="331.432311953" y2="329.797227136" /><line stroke="rgb(0%,0%,0%)" x1="100.34060097" x2="89.1265364321" y1="319.736296165" y2="327.732403945" /><line stroke="rgb(0%,0%,0%)" x1="104.40879373" x2="100.34060097" y1="317.602485757" y2="319.736296165" /><line stroke="rgb(0%,0%,0%)" x1="121.380221422" x2="114.644837577" y1="309.893755347" y2="312.774670313" /><line stroke="rgb(0%,0%,0%)" x1="44.3324816446" x2="43.8065813936" y1="407.814738126" y2="409.612996264" /><line stroke="rgb(0%,0%,0%)" x1="44.3324816446" x2="45.3170010561" y1="407.814738126" y2="405.726893091" /><line stroke="rgb(0%,0%,0%)" x1="59.3709579484" x2="57.8822445984" y1="390.04488368" y2="391.0351808" /><line stroke="rgb(0%,0%,0%)" x1="57.8822445984" x2="51.902162162" y1="391.0351808" y2="395.661432742" /><line stroke="rgb(0%,0%,0%)" x1="59.3709579484" x2="61.2320459542" y1="390.04488368" y2="388.833244387" /><line stroke="rgb(0%,0%,0%)" x1="61.2320459542" x2="61.9643693069" y1="388.833244387" y2="387.263944733" /><line stroke="rgb(0%,0%,0%)" x1="59.3166788952" x2="61.9643693069" y1="383.301411991" y2="387.263944733" /><line stroke="rgb(0%,0%,0%)" x1="58.5510892349" x2="59.3166788952" y1="382.278793303" y2="383.301411991" /><line stroke="rgb(0%,0%,0%)" x1="58.5510892349" x2="58.7330089353" y1="382.278793303" y2="378.977324281" /><line stroke="rgb(0%,0%,0%)" x1="61.1547253195" x2="60.2068951396" y1="370.869829303" y2="371.863923889" /><line stroke="rgb(0%,0%,0%)" x1="61.1547253195" x2="61.0947352869" y1="370.869829303" y2="370.470057509" /><line stroke="rgb(0%,0%,0%)" x1="61.441245048" x2="61.0947352869" y1="369.706029971" y2="370.470057509" /><line stroke="rgb(0%,0%,0%)" x1="65.5986263259" x2="61.441245048" y1="362.579943086" y2="369.706029971" /><line stroke="rgb(0%,0%,0%)" x1="68.1680351318" x2="65.5986263259" y1="358.954609281" y2="362.579943086" /><line stroke="rgb(0%,0%,0%)" x1="79.8310367898" x2="75.3123852745" y1="335.640245812" y2="345.237413431" /><line stroke="rgb(0%,0%,0%)" x1="83.1830909485" x2="81.1548499147" y1="331.432311953" y2="333.425220622" /><line stroke="rgb(0%,0%,0%)" x1="25.0937284644" x2="26.6501617405" y1="457.310056536" y2="459.899145275" /><line stroke="rgb(0%,0%,0%)" x1="24.1880153207" x2="25.0937284644" y1="455.464486497" y2="457.310056536" /><line stroke="rgb(0%,0%,0%)" x1="24.1880153207" x2="24.0153674819" y1="455.464486497" y2="454.609584037" /><line stroke="rgb(0%,0%,0%)" x1="24.0153674819" x2="24.1083989657" y1="454.609584037" y2="453.354864359" /><line stroke="rgb(0%,0%,0%)" x1="26.434111105" x2="25.3747071814" y1="438.807925037" y2="441.267203786" /><line stroke="rgb(0%,0%,0%)" x1="25.3747071814" x2="24.1083989657" y1="441.267203786" y2="453.354864359" /><line stroke="rgb(0%,0%,0%)" x1="27.0164976625" x2="26.434111105" y1="438.352174136" y2="438.807925037" /><line stroke="rgb(0%,0%,0%)" x1="29.5540320691" x2="27.0164976625" y1="434.706335344" y2="438.352174136" /><line stroke="rgb(0%,0%,0%)" x1="32.1132022818" x2="34.9742544035" y1="430.607803764" y2="424.713118204" /><line stroke="rgb(0%,0%,0%)" x1="32.1132022818" x2="29.5540320691" y1="430.607803764" y2="434.706335344" /><line stroke="rgb(0%,0%,0%)" x1="37.5622540632" x2="41.1732946817" y1="421.877190349" y2="417.58493585" /><line stroke="rgb(0%,0%,0%)" x1="43.8065813936" x2="41.1732946817" y1="409.612996264" y2="417.58493585" /><line stroke="rgb(0%,0%,0%)" x1="47.4765725203" x2="45.3170010561" y1="401.859628837" y2="405.726893091" /><line stroke="rgb(0%,0%,0%)" x1="49.3318135908" x2="47.4765725203" y1="399.919027291" y2="401.859628837" /><line stroke="rgb(0%,0%,0%)" x1="51.902162162" x2="49.3318135908" y1="395.661432742" y2="399.919027291" /><line stroke="rgb(0%,0%,0%)" x1="59.1429796682" x2="58.7330089353" y1="373.731427848" y2="378.977324281" /><line stroke="rgb(0%,0%,0%)" x1="59.4470962041" x2="59.1429796682" y1="373.260531421" y2="373.731427848" /><line stroke="rgb(0%,0%,0%)" x1="60.2068951396" x2="59.4470962041" y1="371.863923889" y2="373.260531421" /><line stroke="rgb(0%,0%,0%)" x1="81.1548499147" x2="79.8310367898" y1="333.425220622" y2="335.640245812" /><line stroke="rgb(0%,0%,0%)" x1="89.1265364321" x2="86.6115503925" y1="327.732403945" y2="329.797227136" /><line stroke="rgb(0%,0%,0%)" x1="37.5622540632" x2="34.9742544035" y1="421.877190349" y2="424.713118204" /><line stroke="rgb(0%,0%,0%)" x1="479.983495763" x2="478.712185726" y1="377.732159662" y2="376.886762099" /><line stroke="rgb(0%,0%,0%)" x1="478.712185726" x2="472.823042716" y1="376.886762099" y2="372.545626817" /><line stroke="rgb(0%,0%,0%)" x1="489.273272736" x2="489.410861088" y1="390.294396189" y2="390.720724263" /><line stroke="rgb(0%,0%,0%)" x1="489.273272736" x2="489.034560699" y1="390.294396189" y2="389.767477209" /><line stroke="rgb(0%,0%,0%)" x1="492.457529833" x2="489.410861088" y1="396.98920432" y2="390.720724263" /><line stroke="rgb(0%,0%,0%)" x1="488.720431376" x2="489.034560699" y1="389.463373505" y2="389.767477209" /><line stroke="rgb(0%,0%,0%)" x1="488.720431376" x2="479.983495763" y1="389.463373505" y2="377.732159662" /><line stroke="rgb(0%,0%,0%)" x1="502.963580601" x2="501.504043834" y1="420.652862707" y2="416.263682371" /><line stroke="rgb(0%,0%,0%)" x1="501.504043834" x2="499.988561454" y1="416.263682371" y2="410.952519483" /><line stroke="rgb(0%,0%,0%)" x1="499.988561454" x2="499.362982078" y1="410.952519483" y2="410.567454406" /><line stroke="rgb(0%,0%,0%)" x1="499.362982078" x2="499.315006472" y1="410.567454406" y2="409.880440711" /><line stroke="rgb(0%,0%,0%)" x1="494.593376892" x2="498.639736302" y1="401.973586453" y2="408.725783531" /><line stroke="rgb(0%,0%,0%)" x1="499.315006472" x2="498.639736302" y1="409.880440711" y2="408.725783531" /><line stroke="rgb(0%,0%,0%)" x1="494.593376892" x2="492.457529833" y1="401.973586453" y2="396.98920432" /><line stroke="rgb(0%,0%,0%)" x1="463.61534032" x2="467.070634824" y1="364.803226604" y2="367.877113275" /><line stroke="rgb(0%,0%,0%)" x1="463.61534032" x2="463.208642882" y1="364.803226604" y2="364.36459467" /><line stroke="rgb(0%,0%,0%)" x1="463.208642882" x2="453.961979252" y1="364.36459467" y2="356.888848183" /><line stroke="rgb(0%,0%,0%)" x1="453.961979252" x2="453.67802562" y1="356.888848183" y2="356.649929561" /><line stroke="rgb(0%,0%,0%)" x1="472.823042716" x2="471.547751686" y1="372.545626817" y2="371.147587216" /><line stroke="rgb(0%,0%,0%)" x1="471.547751686" x2="470.551376103" y1="371.147587216" y2="370.857602899" /><line stroke="rgb(0%,0%,0%)" x1="470.551376103" x2="467.070634824" y1="370.857602899" y2="367.877113275" /><line stroke="rgb(0%,0%,0%)" x1="419.399429284" x2="413.814014455" y1="602.883694992" y2="607.479230221" /><line stroke="rgb(0%,0%,0%)" x1="420.858116734" x2="419.399429284" y1="601.357235045" y2="602.883694992" /><line stroke="rgb(0%,0%,0%)" x1="424.859494343" x2="430.643869543" y1="596.757840259" y2="589.73733937" /><line stroke="rgb(0%,0%,0%)" x1="420.858116734" x2="424.859494343" y1="601.357235045" y2="596.757840259" /><line stroke="rgb(0%,0%,0%)" x1="430.643869543" x2="438.238574527" y1="589.73733937" y2="577.762620838" /><line stroke="rgb(0%,0%,0%)" x1="443.344585446" x2="438.238574527" y1="570.329193692" y2="577.762620838" /><line stroke="rgb(0%,0%,0%)" x1="443.344585446" x2="447.443957949" y1="570.329193692" y2="566.357048269" /><line stroke="rgb(0%,0%,0%)" x1="447.443957949" x2="450.648098047" y1="566.357048269" y2="563.618098554" /><line stroke="rgb(0%,0%,0%)" x1="450.648098047" x2="452.037391641" y1="563.618098554" y2="562.824180453" /><line stroke="rgb(0%,0%,0%)" x1="375.383328189" x2="382.961661522" y1="623.732272347" y2="620.621915376" /><line stroke="rgb(0%,0%,0%)" x1="375.383328189" x2="371.257667642" y1="623.732272347" y2="625.147319867" /><line stroke="rgb(0%,0%,0%)" x1="400.645165121" x2="392.087313763" y1="612.188758917" y2="617.273282629" /><line stroke="rgb(0%,0%,0%)" x1="389.309774091" x2="392.087313763" y1="618.133420848" y2="617.273282629" /><line stroke="rgb(0%,0%,0%)" x1="413.313110041" x2="413.457086584" y1="607.77204094" y2="607.712569132" /><line stroke="rgb(0%,0%,0%)" x1="400.645165121" x2="413.313110041" y1="612.188758917" y2="607.77204094" /><line stroke="rgb(0%,0%,0%)" x1="413.457086584" x2="413.542116642" y1="607.712569132" y2="607.681987744" /><line stroke="rgb(0%,0%,0%)" x1="413.542116642" x2="413.814014455" y1="607.681987744" y2="607.479230221" /><line stroke="rgb(0%,0%,0%)" x1="353.63960265" x2="352.884028079" y1="628.353540871" y2="628.879044904" /><line stroke="rgb(0%,0%,0%)" x1="353.905659472" x2="353.63960265" y1="628.384314759" y2="628.353540871" /><line stroke="rgb(0%,0%,0%)" x1="353.905659472" x2="355.162295799" y1="628.384314759" y2="628.280504789" /><line stroke="rgb(0%,0%,0%)" x1="368.288969927" x2="371.257667642" y1="626.438713422" y2="625.147319867" /><line stroke="rgb(0%,0%,0%)" x1="382.961661522" x2="389.309774091" y1="620.621915376" y2="618.133420848" /><line stroke="rgb(0%,0%,0%)" x1="294.658740714" x2="300.099792611" y1="642.549751074" y2="641.318524454" /><line stroke="rgb(0%,0%,0%)" x1="283.369662984" x2="282.060528042" y1="642.527062569" y2="642.744912604" /><line stroke="rgb(0%,0%,0%)" x1="283.369662984" x2="294.658740714" y1="642.527062569" y2="642.549751074" /><line stroke="rgb(0%,0%,0%)" x1="331.782364034" x2="331.267430351" y1="634.347359872" y2="634.456544729" /><line stroke="rgb(0%,0%,0%)" x1="316.232683068" x2="324.661406763" y1="639.624923473" y2="638.996476976" /><line stroke="rgb(0%,0%,0%)" x1="313.065536333" x2="316.232683068" y1="638.494248821" y2="639.624923473" /><line stroke="rgb(0%,0%,0%)" x1="331.267430351" x2="330.755974174" y1="634.456544729" y2="634.991416634" /><line stroke="rgb(0%,0%,0%)" x1="324.661406763" x2="330.755974174" y1="638.996476976" y2="634.991416634" /><line stroke="rgb(0%,0%,0%)" x1="331.782364034" x2="332.442643293" y1="634.347359872" y2="634.224189771" /><line stroke="rgb(0%,0%,0%)" x1="332.442643293" x2="336.71657681" y1="634.224189771" y2="631.876564277" /><line stroke="rgb(0%,0%,0%)" x1="340.357787505" x2="343.295795806" y1="631.702362737" y2="631.240388095" /><line stroke="rgb(0%,0%,0%)" x1="340.357787505" x2="336.71657681" y1="631.702362737" y2="631.876564277" /><line stroke="rgb(0%,0%,0%)" x1="343.295795806" x2="344.780966089" y1="631.240388095" y2="631.42032088" /><line stroke="rgb(0%,0%,0%)" x1="355.162295799" x2="365.692372069" y1="628.280504789" y2="626.697710019" /><line stroke="rgb(0%,0%,0%)" x1="344.780966089" x2="352.884028079" y1="631.42032088" y2="628.879044904" /><line stroke="rgb(0%,0%,0%)" x1="365.692372069" x2="368.288969927" y1="626.697710019" y2="626.438713422" /><line stroke="rgb(0%,0%,0%)" x1="272.656517473" x2="282.060528042" y1="640.094462938" y2="642.744912604" /><line stroke="rgb(0%,0%,0%)" x1="272.26534444" x2="272.656517473" y1="640.048713268" y2="640.094462938" /><line stroke="rgb(0%,0%,0%)" x1="300.099792611" x2="313.065536333" y1="641.318524454" y2="638.494248821" /><line stroke="rgb(0%,0%,0%)" x1="211.409135852" x2="210.646810604" y1="634.445342038" y2="634.107426806" /><line stroke="rgb(0%,0%,0%)" x1="211.604741959" x2="211.409135852" y1="634.526927239" y2="634.445342038" /><line stroke="rgb(0%,0%,0%)" x1="230.761571785" x2="232.097913927" y1="638.583811231" y2="638.472960155" /><line stroke="rgb(0%,0%,0%)" x1="230.761571785" x2="230.203733781" y1="638.583811231" y2="638.574544279" /><line stroke="rgb(0%,0%,0%)" x1="248.546638754" x2="241.269032972" y1="638.45151875" y2="638.079126873" /><line stroke="rgb(0%,0%,0%)" x1="238.092851052" x2="239.53485113" y1="638.492722799" y2="637.907301203" /><line stroke="rgb(0%,0%,0%)" x1="232.097913927" x2="238.092851052" y1="638.472960155" y2="638.492722799" /><line stroke="rgb(0%,0%,0%)" x1="266.988583362" x2="272.26534444" y1="638.242339729" y2="640.048713268" /><line stroke="rgb(0%,0%,0%)" x1="266.988583362" x2="264.660079654" y1="638.242339729" y2="638.25208931" /><line stroke="rgb(0%,0%,0%)" x1="254.936165074" x2="260.272318499" y1="638.553473264" y2="639.24845584" /><line stroke="rgb(0%,0%,0%)" x1="260.272318499" x2="264.660079654" y1="639.24845584" y2="638.25208931" /><line stroke="rgb(0%,0%,0%)" x1="248.546638754" x2="254.936165074" y1="638.45151875" y2="638.553473264" /><line stroke="rgb(0%,0%,0%)" x1="199.880873065" x2="206.208854192" y1="630.504358308" y2="632.444141606" /><line stroke="rgb(0%,0%,0%)" x1="219.70261248" x2="221.9255195" y1="637.194097742" y2="637.620209958" /><line stroke="rgb(0%,0%,0%)" x1="211.604741959" x2="219.70261248" y1="634.526927239" y2="637.194097742" /><line stroke="rgb(0%,0%,0%)" x1="221.9255195" x2="230.203733781" y1="637.620209958" y2="638.574544279" /><line stroke="rgb(0%,0%,0%)" x1="239.53485113" x2="241.269032972" y1="637.907301203" y2="638.079126873" /><line stroke="rgb(0%,0%,0%)" x1="165.353521961" x2="178.049969576" y1="618.803442545" y2="623.436495338" /><line stroke="rgb(0%,0%,0%)" x1="178.049969576" x2="187.567835226" y1="623.436495338" y2="626.686458993" /><line stroke="rgb(0%,0%,0%)" x1="187.567835226" x2="193.326710897" y1="626.686458993" y2="628.7152915" /><line stroke="rgb(0%,0%,0%)" x1="199.880873065" x2="194.930750942" y1="630.504358308" y2="629.079385592" /><line stroke="rgb(0%,0%,0%)" x1="208.11337104" x2="210.646810604" y1="632.846265985" y2="634.107426806" /><line stroke="rgb(0%,0%,0%)" x1="206.208854192" x2="208.11337104" y1="632.444141606" y2="632.846265985" /><line stroke="rgb(0%,0%,0%)" x1="99.0347465747" x2="94.5682418968" y1="600.147282176" y2="596.931279786" /><line stroke="rgb(0%,0%,0%)" x1="102.867660388" x2="112.89195599" y1="601.411687905" y2="605.720798746" /><line stroke="rgb(0%,0%,0%)" x1="102.867660388" x2="99.0347465747" y1="601.411687905" y2="600.147282176" /><line stroke="rgb(0%,0%,0%)" x1="148.944592457" x2="165.353521961" y1="613.706110377" y2="618.803442545" /><line stroke="rgb(0%,0%,0%)" x1="193.326710897" x2="193.681446246" y1="628.7152915" y2="628.686712439" /><line stroke="rgb(0%,0%,0%)" x1="193.681446246" x2="194.930750942" y1="628.686712439" y2="629.079385592" /><line stroke="rgb(0%,0%,0%)" x1="79.9448842533" x2="76.7869213511" y1="583.29591526" y2="579.259247932" /><line stroke="rgb(0%,0%,0%)" x1="116.546947378" x2="119.67407978" y1="607.045591547" y2="608.2911896" /><line stroke="rgb(0%,0%,0%)" x1="112.89195599" x2="116.546947378" y1="605.720798746" y2="607.045591547" /><line stroke="rgb(0%,0%,0%)" x1="119.67407978" x2="121.607680128" y1="608.2911896" y2="608.664913943" /><line stroke="rgb(0%,0%,0%)" x1="121.607680128" x2="127.459273628" y1="608.664913943" y2="610.085687603" /><line stroke="rgb(0%,0%,0%)" x1="148.944592457" x2="127.459273628" y1="613.706110377" y2="610.085687603" /><line stroke="rgb(0%,0%,0%)" x1="66.0514905262" x2="63.2207759361" y1="561.663880288" y2="558.279802229" /><line stroke="rgb(0%,0%,0%)" x1="57.9481455528" x2="59.6112864331" y1="545.13544588" y2="547.515056765" /><line stroke="rgb(0%,0%,0%)" x1="69.8722425495" x2="75.938578576" y1="569.200524257" y2="577.362974767" /><line stroke="rgb(0%,0%,0%)" x1="66.0514905262" x2="68.5652457958" y1="561.663880288" y2="565.640842254" /><line stroke="rgb(0%,0%,0%)" x1="68.5652457958" x2="69.8722425495" y1="565.640842254" y2="569.200524257" /><line stroke="rgb(0%,0%,0%)" x1="89.9349619539" x2="94.5682418968" y1="592.553697503" y2="596.931279786" /><line stroke="rgb(0%,0%,0%)" x1="83.6422752138" x2="89.9349619539" y1="587.092555786" y2="592.553697503" /><line stroke="rgb(0%,0%,0%)" x1="79.9448842533" x2="83.6422752138" y1="583.29591526" y2="587.092555786" /><line stroke="rgb(0%,0%,0%)" x1="25.5011440435" x2="26.3572532201" y1="481.534929427" y2="482.231159129" /><line stroke="rgb(0%,0%,0%)" x1="25.137387591" x2="25.5011440435" y1="481.158768827" y2="481.534929427" /><line stroke="rgb(0%,0%,0%)" x1="25.137387591" x2="24.7589874494" y1="481.158768827" y2="480.049620603" /><line stroke="rgb(0%,0%,0%)" x1="23.8774328113" x2="23.6710099987" y1="466.36294949" y2="469.784134256" /><line stroke="rgb(0%,0%,0%)" x1="22.7766383364" x2="24.7589874494" y1="475.659864467" y2="480.049620603" /><line stroke="rgb(0%,0%,0%)" x1="23.6710099987" x2="22.7766383364" y1="469.784134256" y2="475.659864467" /><line stroke="rgb(0%,0%,0%)" x1="24.5619221312" x2="23.8774328113" y1="465.519322238" y2="466.36294949" /><line stroke="rgb(0%,0%,0%)" x1="24.5619221312" x2="26.5019375297" y1="465.519322238" y2="463.448804793" /><line stroke="rgb(0%,0%,0%)" x1="36.1198260652" x2="33.1560595775" y1="497.012532902" y2="494.832918087" /><line stroke="rgb(0%,0%,0%)" x1="26.3572532201" x2="29.5535622948" y1="482.231159129" y2="485.190920319" /><line stroke="rgb(0%,0%,0%)" x1="41.2455968469" x2="48.4049849176" y1="509.810546134" y2="522.6451772" /><line stroke="rgb(0%,0%,0%)" x1="39.7436868699" x2="39.7946129621" y1="500.166610801" y2="506.383490966" /><line stroke="rgb(0%,0%,0%)" x1="60.4351486088" x2="61.3437263367" y1="553.568186984" y2="555.738256508" /><line stroke="rgb(0%,0%,0%)" x1="59.6112864331" x2="60.4351486088" y1="547.515056765" y2="553.568186984" /><line stroke="rgb(0%,0%,0%)" x1="61.3437263367" x2="63.2207759361" y1="555.738256508" y2="558.279802229" /><line stroke="rgb(0%,0%,0%)" x1="57.9481455528" x2="57.4937474519" y1="545.13544588" y2="539.413285659" /><line stroke="rgb(0%,0%,0%)" x1="57.5961412073" x2="57.4937474519" y1="537.97114339" y2="539.413285659" /><line stroke="rgb(0%,0%,0%)" x1="57.6175423813" x2="57.5961412073" y1="536.913306736" y2="537.97114339" /><line stroke="rgb(0%,0%,0%)" x1="60.6897919929" x2="58.297162871" y1="531.568097286" y2="535.61381987" /><line stroke="rgb(0%,0%,0%)" x1="58.297162871" x2="57.6175423813" y1="535.61381987" y2="536.913306736" /><line stroke="rgb(0%,0%,0%)" x1="58.433677123" x2="60.6897919929" y1="530.399840833" y2="531.568097286" /><line stroke="rgb(0%,0%,0%)" x1="57.9649744185" x2="58.433677123" y1="529.384819159" y2="530.399840833" /><line stroke="rgb(0%,0%,0%)" x1="57.9649744185" x2="48.8172188185" y1="529.384819159" y2="523.00798969" /><line stroke="rgb(0%,0%,0%)" x1="48.4049849176" x2="48.8172188185" y1="522.6451772" y2="523.00798969" /><line stroke="rgb(0%,0%,0%)" x1="76.1417022405" x2="76.7869213511" y1="577.971770794" y2="579.259247932" /><line stroke="rgb(0%,0%,0%)" x1="75.938578576" x2="76.1417022405" y1="577.362974767" y2="577.971770794" /><line stroke="rgb(0%,0%,0%)" x1="31.1379193556" x2="33.1560595775" y1="492.189338937" y2="494.832918087" /><line stroke="rgb(0%,0%,0%)" x1="30.239287486" x2="31.1379193556" y1="487.10602901" y2="492.189338937" /><line stroke="rgb(0%,0%,0%)" x1="29.5535622948" x2="30.239287486" y1="485.190920319" y2="487.10602901" /><line stroke="rgb(0%,0%,0%)" x1="27.4332069178" x2="26.5019375297" y1="461.740261663" y2="463.448804793" /><line stroke="rgb(0%,0%,0%)" x1="40.0621533464" x2="41.2455968469" y1="507.549333205" y2="509.810546134" /><line stroke="rgb(0%,0%,0%)" x1="39.7946129621" x2="40.0621533464" y1="506.383490966" y2="507.549333205" /><line stroke="rgb(0%,0%,0%)" x1="39.344046838" x2="39.7436868699" y1="498.597427832" y2="500.166610801" /><line stroke="rgb(0%,0%,0%)" x1="36.1198260652" x2="39.344046838" y1="497.012532902" y2="498.597427832" /><line stroke="rgb(0%,0%,0%)" x1="509.104401644" x2="504.920239731" y1="481.828634974" y2="492.012540165" /><line stroke="rgb(0%,0%,0%)" x1="512.153640321" x2="510.441617828" y1="470.394364967" y2="477.010166958" /><line stroke="rgb(0%,0%,0%)" x1="512.153640321" x2="511.558820228" y1="470.394364967" y2="461.721448788" /><line stroke="rgb(0%,0%,0%)" x1="511.558820228" x2="511.549431477" y1="461.721448788" y2="459.022511192" /><line stroke="rgb(0%,0%,0%)" x1="452.986045802" x2="452.037391641" y1="562.141912163" y2="562.824180453" /><line stroke="rgb(0%,0%,0%)" x1="454.910326159" x2="452.986045802" y1="560.565571489" y2="562.141912163" /><line stroke="rgb(0%,0%,0%)" x1="454.910326159" x2="461.259995834" y1="560.565571489" y2="555.547475616" /><line stroke="rgb(0%,0%,0%)" x1="461.568712439" x2="461.259995834" y1="555.39821243" y2="555.547475616" /><line stroke="rgb(0%,0%,0%)" x1="461.784402384" x2="461.568712439" y1="555.210994685" y2="555.39821243" /><line stroke="rgb(0%,0%,0%)" x1="461.784402384" x2="462.202808348" y1="555.210994685" y2="554.809132725" /><line stroke="rgb(0%,0%,0%)" x1="462.202808348" x2="474.488572369" y1="554.809132725" y2="545.665065128" /><line stroke="rgb(0%,0%,0%)" x1="474.488572369" x2="476.351069585" y1="545.665065128" y2="543.009191135" /><line stroke="rgb(0%,0%,0%)" x1="476.351069585" x2="479.244526684" y1="543.009191135" y2="540.738340678" /><line stroke="rgb(0%,0%,0%)" x1="482.986065104" x2="484.402059717" y1="536.82231" y2="534.650859849" /><line stroke="rgb(0%,0%,0%)" x1="479.244526684" x2="482.986065104" y1="540.738340678" y2="536.82231" /><line stroke="rgb(0%,0%,0%)" x1="484.402059717" x2="486.524993642" y1="534.650859849" y2="532.765901294" /><line stroke="rgb(0%,0%,0%)" x1="489.903413083" x2="486.524993642" y1="524.518651721" y2="532.765901294" /><line stroke="rgb(0%,0%,0%)" x1="489.903413083" x2="490.930973617" y1="524.518651721" y2="522.308661508" /><line stroke="rgb(0%,0%,0%)" x1="490.930973617" x2="492.072803601" y1="522.308661508" y2="519.973683223" /><line stroke="rgb(0%,0%,0%)" x1="493.088577022" x2="492.072803601" y1="518.683405976" y2="519.973683223" /><line stroke="rgb(0%,0%,0%)" x1="493.088577022" x2="497.664080859" y1="518.683405976" y2="510.199446451" /><line stroke="rgb(0%,0%,0%)" x1="497.664080859" x2="498.56201233" y1="510.199446451" y2="507.965352284" /><line stroke="rgb(0%,0%,0%)" x1="502.112538439" x2="504.160773409" y1="496.986218139" y2="493.398796469" /><line stroke="rgb(0%,0%,0%)" x1="502.112538439" x2="498.56201233" y1="496.986218139" y2="507.965352284" /><line stroke="rgb(0%,0%,0%)" x1="504.160773409" x2="504.920239731" y1="493.398796469" y2="492.012540165" /><line stroke="rgb(0%,0%,0%)" x1="509.104401644" x2="510.441617828" y1="481.828634974" y2="477.010166958" /><line stroke="rgb(0%,0%,0%)" x1="26.6501617405" x2="27.4332069178" y1="459.899145275" y2="461.740261663" /><line stroke="rgb(0%,0%,0%)" x1="513.021305127" x2="511.34400588" y1="453.783714194" y2="446.938975113" /><line stroke="rgb(0%,0%,0%)" x1="511.549431477" x2="511.530373417" y1="459.022511192" y2="457.385857913" /><line stroke="rgb(0%,0%,0%)" x1="513.021305127" x2="511.530373417" y1="453.783714194" y2="457.385857913" /></svg>