<?xml version="1.0" encoding="utf-8" ?>
<svg baseProfile="full" height="100%" version="1.1" viewBox="0.5 0.5 685.793960571 941.299331665" width="100%" xmlns="http://www.w3.org/2000/svg" xmlns:ev="http://www.w3.org/2001/xml-events" xmlns:xlink="http://www.w3.org/1999/xlink"><defs /><line stroke="rgb(0%,0%,0%)" x1="514.039999491" x2="514.63998201" y1="447.407906227" y2="451.952486759" /><line stroke="rgb(0%,0%,0%)" x1="509.469035435" x2="510.584612795" y1="429.44781795" y2="432.760120069" /><line stroke="rgb(0%,0%,0%)" x1="511.8980494" x2="510.584612795" y1="435.555149546" y2="432.760120069" /><line stroke="rgb(0%,0%,0%)" x1="509.469035435" x2="506.887148049" y1="429.44781795" y2="425.274932908" /><line stroke="rgb(0%,0%,0%)" x1="506.230141713" x2="506.887148049" y1="422.696362142" y2="425.274932908" /><line stroke="rgb(0%,0%,0%)" x1="514.968459401" x2="514.63998201" y1="458.236158659" y2="451.952486759" /><line stroke="rgb(0%,0%,0%)" x1="513.125688504" x2="511.8980494" y1="441.711407891" y2="435.555149546" /><line stroke="rgb(0%,0%,0%)" x1="514.039999491" x2="513.125688504" y1="447.407906227" y2="441.711407891" /><line stroke="rgb(0%,0%,0%)" x1="451.072831263" x2="446.468595199" y1="352.569802332" y2="348.802506037" /><line stroke="rgb(0%,0%,0%)" x1="454.870043821" x2="453.472094991" y1="355.134497424" y2="354.216171771" /><line stroke="rgb(0%,0%,0%)" x1="406.950884654" x2="407.243383603" y1="304.259459703" y2="304.476916806" /><line stroke="rgb(0%,0%,0%)" x1="406.950884654" x2="406.250046858" y1="304.259459703" y2="303.709016876" /><line stroke="rgb(0%,0%,0%)" x1="431.914876782" x2="428.678516607" y1="328.365287445" y2="324.738002251" /><line stroke="rgb(0%,0%,0%)" x1="423.491532916" x2="419.405297284" y1="317.141573477" y2="313.421010876" /><line stroke="rgb(0%,0%,0%)" x1="428.678516607" x2="423.491532916" y1="324.738002251" y2="317.141573477" /><line stroke="rgb(0%,0%,0%)" x1="419.405297284" x2="407.243383603" y1="313.421010876" y2="304.476916806" /><line stroke="rgb(0%,0%,0%)" x1="431.914876782" x2="435.566754019" y1="328.365287445" y2="332.501386965" /><line stroke="rgb(0%,0%,0%)" x1="438.284182401" x2="435.566754019" y1="338.100963125" y2="332.501386965" /><line stroke="rgb(0%,0%,0%)" x1="442.302737842" x2="438.284182401" y1="344.662086786" y2="338.100963125" /><line stroke="rgb(0%,0%,0%)" x1="453.472094991" x2="451.072831263" y1="354.216171771" y2="352.569802332" /><line stroke="rgb(0%,0%,0%)" x1="446.468595199" x2="444.67382576" y1="348.802506037" y2="347.247938649" /><line stroke="rgb(0%,0%,0%)" x1="444.67382576" x2="442.302737842" y1="347.247938649" y2="344.662086786" /><line stroke="rgb(0%,0%,0%)" x1="362.865236325" x2="361.072043956" y1="287.08052306" y2="286.606870431" /><line stroke="rgb(0%,0%,0%)" x1="361.072043956" x2="356.982989233" y1="286.606870431" y2="285.999199459" /><line stroke="rgb(0%,0%,0%)" x1="396.863335807" x2="389.301470815" y1="297.293434028" y2="295.838196056" /><line stroke="rgb(0%,0%,0%)" x1="382.299234878" x2="382.71357691" y1="293.20020344" y2="293.533996468" /><line stroke="rgb(0%,0%,0%)" x1="406.250046858" x2="396.863335807" y1="303.709016876" y2="297.293434028" /><line stroke="rgb(0%,0%,0%)" x1="389.301470815" x2="382.71357691" y1="295.838196056" y2="293.533996468" /><line stroke="rgb(0%,0%,0%)" x1="294.956680677" x2="294.443996227" y1="278.173835643" y2="278.153627948" /><line stroke="rgb(0%,0%,0%)" x1="352.968165557" x2="350.034105292" y1="285.038155812" y2="284.634942086" /><line stroke="rgb(0%,0%,0%)" x1="356.982989233" x2="352.968165557" y1="285.999199459" y2="285.038155812" /><line stroke="rgb(0%,0%,0%)" x1="368.695348356" x2="370.72436705" y1="287.398922403" y2="288.043328778" /><line stroke="rgb(0%,0%,0%)" x1="370.72436705" x2="373.616128528" y1="288.043328778" y2="288.846740203" /><line stroke="rgb(0%,0%,0%)" x1="368.695348356" x2="362.865236325" y1="287.398922403" y2="287.08052306" /><line stroke="rgb(0%,0%,0%)" x1="382.299234878" x2="381.170636139" y1="293.20020344" y2="291.266348561" /><line stroke="rgb(0%,0%,0%)" x1="381.170636139" x2="378.672736041" y1="291.266348561" y2="290.231147738" /><line stroke="rgb(0%,0%,0%)" x1="378.672736041" x2="373.616128528" y1="290.231147738" y2="288.846740203" /><line stroke="rgb(0%,0%,0%)" x1="283.827446581" x2="280.974144693" y1="280.80578129" y2="280.960790359" /><line stroke="rgb(0%,0%,0%)" x1="294.956680677" x2="301.317180291" y1="278.173835643" y2="277.442661177" /><line stroke="rgb(0%,0%,0%)" x1="307.883839688" x2="308.934655451" y1="274.852317027" y2="275.000637879" /><line stroke="rgb(0%,0%,0%)" x1="307.883839688" x2="307.101756345" y1="274.852317027" y2="275.792944479" /><line stroke="rgb(0%,0%,0%)" x1="308.934655451" x2="313.838980255" y1="275.000637879" y2="276.19903786" /><line stroke="rgb(0%,0%,0%)" x1="323.900889231" x2="323.18626819" y1="276.616637118" y2="274.925353358" /><line stroke="rgb(0%,0%,0%)" x1="336.431069507" x2="327.15095984" y1="279.348162385" y2="278.689217413" /><line stroke="rgb(0%,0%,0%)" x1="348.772393802" x2="350.034105292" y1="283.558710594" y2="284.634942086" /><line stroke="rgb(0%,0%,0%)" x1="348.772393802" x2="342.346449896" y1="283.558710594" y2="280.381685412" /><line stroke="rgb(0%,0%,0%)" x1="342.346449896" x2="336.431069507" y1="280.381685412" y2="279.348162385" /><line stroke="rgb(0%,0%,0%)" x1="327.15095984" x2="323.900889231" y1="278.689217413" y2="276.616637118" /><line stroke="rgb(0%,0%,0%)" x1="280.974144693" x2="275.90967776" y1="280.960790359" y2="282.203629831" /><line stroke="rgb(0%,0%,0%)" x1="294.443996227" x2="283.827446581" y1="278.153627948" y2="280.80578129" /><line stroke="rgb(0%,0%,0%)" x1="303.811382577" x2="301.317180291" y1="276.739754454" y2="277.442661177" /><line stroke="rgb(0%,0%,0%)" x1="307.101756345" x2="303.811382577" y1="275.792944479" y2="276.739754454" /><line stroke="rgb(0%,0%,0%)" x1="316.325994237" x2="316.411617299" y1="275.251842063" y2="275.644369412" /><line stroke="rgb(0%,0%,0%)" x1="317.086003024" x2="316.325994237" y1="274.549205043" y2="275.251842063" /><line stroke="rgb(0%,0%,0%)" x1="320.527119848" x2="317.086003024" y1="274.225018742" y2="274.549205043" /><line stroke="rgb(0%,0%,0%)" x1="313.838980255" x2="316.411617299" y1="276.19903786" y2="275.644369412" /><line stroke="rgb(0%,0%,0%)" x1="323.18626819" x2="320.527119848" y1="274.925353358" y2="274.225018742" /><line stroke="rgb(0%,0%,0%)" x1="227.409336537" x2="227.423671343" y1="278.842528954" y2="278.8440052" /><line stroke="rgb(0%,0%,0%)" x1="261.609216152" x2="251.524499525" y1="282.015618418" y2="281.869253247" /><line stroke="rgb(0%,0%,0%)" x1="266.793894528" x2="261.609216152" y1="281.941131386" y2="282.015618418" /><line stroke="rgb(0%,0%,0%)" x1="275.90967776" x2="272.800175891" y1="282.203629831" y2="282.08401456" /><line stroke="rgb(0%,0%,0%)" x1="272.800175891" x2="266.793894528" y1="282.08401456" y2="281.941131386" /><line stroke="rgb(0%,0%,0%)" x1="151.384967086" x2="150.99630816" y1="296.154281228" y2="296.323723225" /><line stroke="rgb(0%,0%,0%)" x1="151.384967086" x2="152.021740186" y1="296.154281228" y2="295.862690398" /><line stroke="rgb(0%,0%,0%)" x1="216.685816896" x2="210.888687399" y1="278.757457476" y2="279.175881759" /><line stroke="rgb(0%,0%,0%)" x1="227.409336537" x2="219.406311875" y1="278.842528954" y2="278.890549159" /><line stroke="rgb(0%,0%,0%)" x1="219.406311875" x2="217.3024357" y1="278.890549159" y2="278.833464528" /><line stroke="rgb(0%,0%,0%)" x1="217.3024357" x2="216.685816896" y1="278.833464528" y2="278.757457476" /><line stroke="rgb(0%,0%,0%)" x1="235.626951412" x2="243.165540612" y1="280.156442415" y2="281.267004188" /><line stroke="rgb(0%,0%,0%)" x1="232.973516616" x2="227.423671343" y1="279.467190179" y2="278.8440052" /><line stroke="rgb(0%,0%,0%)" x1="235.626951412" x2="232.973516616" y1="280.156442415" y2="279.467190179" /><line stroke="rgb(0%,0%,0%)" x1="251.524499525" x2="247.372172705" y1="281.869253247" y2="281.378510889" /><line stroke="rgb(0%,0%,0%)" x1="247.372172705" x2="246.607943644" y1="281.378510889" y2="281.388952107" /><line stroke="rgb(0%,0%,0%)" x1="150.99630816" x2="149.357953618" y1="296.323723225" y2="297.105114696" /><line stroke="rgb(0%,0%,0%)" x1="164.415395166" x2="152.021740186" y1="289.948715526" y2="295.862690398" /><line stroke="rgb(0%,0%,0%)" x1="175.583905626" x2="164.415395166" y1="285.704431526" y2="289.948715526" /><line stroke="rgb(0%,0%,0%)" x1="175.583905626" x2="179.381574316" y1="285.704431526" y2="284.55365559" /><line stroke="rgb(0%,0%,0%)" x1="205.672872678" x2="197.84785297" y1="280.023629844" y2="280.460995108" /><line stroke="rgb(0%,0%,0%)" x1="205.672872678" x2="208.340064135" y1="280.023629844" y2="279.428281444" /><line stroke="rgb(0%,0%,0%)" x1="210.888687399" x2="208.340064135" y1="279.175881759" y2="279.428281444" /><line stroke="rgb(0%,0%,0%)" x1="246.607943644" x2="243.165540612" y1="281.388952107" y2="281.267004188" /><line stroke="rgb(0%,0%,0%)" x1="184.202678573" x2="186.995466185" y1="283.478270366" y2="282.348549986" /><line stroke="rgb(0%,0%,0%)" x1="184.202678573" x2="182.082375223" y1="283.478270366" y2="283.83353875" /><line stroke="rgb(0%,0%,0%)" x1="182.082375223" x2="179.381574316" y1="283.83353875" y2="284.55365559" /><line stroke="rgb(0%,0%,0%)" x1="186.995466185" x2="193.649641071" y1="282.348549986" y2="280.844257331" /><line stroke="rgb(0%,0%,0%)" x1="197.84785297" x2="196.091402837" y1="280.460995108" y2="280.630172688" /><line stroke="rgb(0%,0%,0%)" x1="194.693830054" x2="193.649641071" y1="280.776195521" y2="280.844257331" /><line stroke="rgb(0%,0%,0%)" x1="113.377996628" x2="105.902847963" y1="311.018945465" y2="314.544588644" /><line stroke="rgb(0%,0%,0%)" x1="125.304324569" x2="123.12193293" y1="306.188090653" y2="306.851187165" /><line stroke="rgb(0%,0%,0%)" x1="149.357953618" x2="125.304324569" y1="297.105114696" y2="306.188090653" /><line stroke="rgb(0%,0%,0%)" x1="196.091402837" x2="194.693830054" y1="280.630172688" y2="280.776195521" /><line stroke="rgb(0%,0%,0%)" x1="81.9504784861" x2="84.3206916193" y1="330.271732305" y2="329.141341361" /><line stroke="rgb(0%,0%,0%)" x1="98.0590347192" x2="90.6798134003" y1="318.658752187" y2="323.920452688" /><line stroke="rgb(0%,0%,0%)" x1="105.902847963" x2="98.0590347192" y1="314.544588644" y2="318.658752187" /><line stroke="rgb(0%,0%,0%)" x1="123.12193293" x2="113.377996628" y1="306.851187165" y2="311.018945465" /><line stroke="rgb(0%,0%,0%)" x1="51.8000386935" x2="59.2837337514" y1="397.322456015" y2="391.428509858" /><line stroke="rgb(0%,0%,0%)" x1="64.5318720909" x2="62.0374942863" y1="362.881616166" y2="367.157180943" /><line stroke="rgb(0%,0%,0%)" x1="64.5318720909" x2="66.2026005584" y1="362.881616166" y2="360.524284635" /><line stroke="rgb(0%,0%,0%)" x1="67.4579555757" x2="66.2026005584" y1="358.007114895" y2="360.524284635" /><line stroke="rgb(0%,0%,0%)" x1="70.7458297522" x2="67.3799196646" y1="347.987919945" y2="355.409551355" /><line stroke="rgb(0%,0%,0%)" x1="67.3799196646" x2="67.4579555757" y1="355.409551355" y2="358.007114895" /><line stroke="rgb(0%,0%,0%)" x1="74.9488912635" x2="70.7458297522" y1="339.061034191" y2="347.987919945" /><line stroke="rgb(0%,0%,0%)" x1="81.9504784861" x2="77.7139996483" y1="330.271732305" y2="334.434410834" /><line stroke="rgb(0%,0%,0%)" x1="24.9982103523" x2="25.683916557" y1="456.47888298" y2="457.619538504" /><line stroke="rgb(0%,0%,0%)" x1="24.9982103523" x2="24.4887205701" y1="456.47888298" y2="455.44069657" /><line stroke="rgb(0%,0%,0%)" x1="26.0769605103" x2="26.0566858281" y1="440.291383667" y2="440.338448902" /><line stroke="rgb(0%,0%,0%)" x1="26.0566858281" x2="26.0216232065" y1="440.338448902" y2="440.673142354" /><line stroke="rgb(0%,0%,0%)" x1="26.0881061197" x2="26.0769605103" y1="440.282661588" y2="440.291383667" /><line stroke="rgb(0%,0%,0%)" x1="29.2798556735" x2="26.0881061197" y1="435.696869843" y2="440.282661588" /><line stroke="rgb(0%,0%,0%)" x1="32.4988190748" x2="34.625091851" y1="430.54167419" y2="426.160869892" /><line stroke="rgb(0%,0%,0%)" x1="32.4988190748" x2="29.2798556735" y1="430.54167419" y2="435.696869843" /><line stroke="rgb(0%,0%,0%)" x1="38.3468172744" x2="40.8307317887" y1="422.082606296" y2="419.130107453" /><line stroke="rgb(0%,0%,0%)" x1="40.8307317887" x2="43.6060037538" y1="419.130107453" y2="410.728325626" /><line stroke="rgb(0%,0%,0%)" x1="46.9168572793" x2="44.6380412964" y1="404.385423249" y2="408.466225269" /><line stroke="rgb(0%,0%,0%)" x1="48.0771241838" x2="46.9168572793" y1="403.171771943" y2="404.385423249" /><line stroke="rgb(0%,0%,0%)" x1="48.0771241838" x2="50.7948773569" y1="403.171771943" y2="398.670012444" /><line stroke="rgb(0%,0%,0%)" x1="51.8000386935" x2="50.7948773569" y1="397.322456015" y2="398.670012444" /><line stroke="rgb(0%,0%,0%)" x1="59.4713861117" x2="59.2837337514" y1="391.182005553" y2="391.428509858" /><line stroke="rgb(0%,0%,0%)" x1="59.297326822" x2="59.4713861117" y1="390.633332208" y2="391.182005553" /><line stroke="rgb(0%,0%,0%)" x1="56.7207915826" x2="59.297326822" y1="384.541356992" y2="390.633332208" /><line stroke="rgb(0%,0%,0%)" x1="56.742575544" x2="56.7207915826" y1="381.127536096" y2="384.541356992" /><line stroke="rgb(0%,0%,0%)" x1="57.1770857119" x2="56.742575544" y1="375.567638384" y2="381.127536096" /><line stroke="rgb(0%,0%,0%)" x1="58.6868328746" x2="57.1770857119" y1="373.229934052" y2="375.567638384" /><line stroke="rgb(0%,0%,0%)" x1="58.6868328746" x2="59.6140807505" y1="373.229934052" y2="371.52553397" /><line stroke="rgb(0%,0%,0%)" x1="61.0569532082" x2="59.6140807505" y1="369.336194375" y2="371.52553397" /><line stroke="rgb(0%,0%,0%)" x1="62.0374942863" x2="61.0569532082" y1="367.157180943" y2="369.336194375" /><line stroke="rgb(0%,0%,0%)" x1="77.7139996483" x2="74.9488912635" y1="334.434410834" y2="339.061034191" /><line stroke="rgb(0%,0%,0%)" x1="90.6798134003" x2="84.3206916193" y1="323.920452688" y2="329.141341361" /><line stroke="rgb(0%,0%,0%)" x1="26.0216232065" x2="24.1497283866" y1="440.673142354" y2="453.12832509" /><line stroke="rgb(0%,0%,0%)" x1="24.1497283866" x2="24.4887205701" y1="453.12832509" y2="455.44069657" /><line stroke="rgb(0%,0%,0%)" x1="38.3468172744" x2="34.625091851" y1="422.082606296" y2="426.160869892" /><line stroke="rgb(0%,0%,0%)" x1="44.1165057451" x2="43.6060037538" y1="409.388806565" y2="410.728325626" /><line stroke="rgb(0%,0%,0%)" x1="44.6380412964" x2="44.1165057451" y1="408.466225269" y2="409.388806565" /><line stroke="rgb(0%,0%,0%)" x1="479.456554106" x2="479.440856791" y1="375.610825133" y2="375.60038671" /><line stroke="rgb(0%,0%,0%)" x1="479.440856791" x2="479.368141461" y1="375.60038671" y2="375.546785178" /><line stroke="rgb(0%,0%,0%)" x1="489.680519455" x2="488.454321524" y1="390.321556778" y2="387.79867099" /><line stroke="rgb(0%,0%,0%)" x1="479.456554106" x2="479.578694897" y1="375.610825133" y2="375.774825395" /><line stroke="rgb(0%,0%,0%)" x1="488.454321524" x2="483.188162353" y1="387.79867099" y2="381.45270778" /><line stroke="rgb(0%,0%,0%)" x1="479.578694897" x2="480.006681753" y1="375.774825395" y2="376.507659338" /><line stroke="rgb(0%,0%,0%)" x1="500.771121298" x2="502.005117627" y1="411.399357244" y2="415.724023497" /><line stroke="rgb(0%,0%,0%)" x1="500.771121298" x2="499.114926345" y1="411.399357244" y2="410.379913729" /><line stroke="rgb(0%,0%,0%)" x1="499.114926345" x2="498.149240943" y1="410.379913729" y2="408.99055872" /><line stroke="rgb(0%,0%,0%)" x1="498.0106236" x2="498.149240943" y1="407.005549669" y2="408.99055872" /><line stroke="rgb(0%,0%,0%)" x1="493.694869285" x2="495.243096376" y1="399.689761998" y2="402.273302752" /><line stroke="rgb(0%,0%,0%)" x1="498.0106236" x2="495.243096376" y1="407.005549669" y2="402.273302752" /><line stroke="rgb(0%,0%,0%)" x1="493.694869285" x2="489.680519455" y1="399.689761998" y2="390.321556778" /><line stroke="rgb(0%,0%,0%)" x1="454.870043821" x2="457.02780795" y1="355.134497424" y2="356.989730059" /><line stroke="rgb(0%,0%,0%)" x1="479.368141461" x2="475.53329532" y1="375.546785178" y2="371.342829654" /><line stroke="rgb(0%,0%,0%)" x1="475.53329532" x2="472.537157993" y1="371.342829654" y2="370.470836352" /><line stroke="rgb(0%,0%,0%)" x1="472.537157993" x2="467.094985587" y1="370.470836352" y2="365.810812211" /><line stroke="rgb(0%,0%,0%)" x1="467.094985587" x2="465.56218278" y1="365.810812211" y2="364.282739083" /><line stroke="rgb(0%,0%,0%)" x1="483.188162353" x2="482.532500137" y1="381.45270778" y2="380.704717189" /><line stroke="rgb(0%,0%,0%)" x1="482.532500137" x2="480.006681753" y1="380.704717189" y2="376.507659338" /><line stroke="rgb(0%,0%,0%)" x1="431.83248627" x2="438.8146845" y1="586.56719057" y2="575.663192572" /><line stroke="rgb(0%,0%,0%)" x1="438.8146845" x2="441.238996568" y1="575.663192572" y2="573.320010794" /><line stroke="rgb(0%,0%,0%)" x1="441.238996568" x2="450.316128486" y1="573.320010794" y2="565.559596782" /><line stroke="rgb(0%,0%,0%)" x1="450.316128486" x2="451.435615693" y1="565.559596782" y2="564.735501374" /><line stroke="rgb(0%,0%,0%)" x1="462.010550515" x2="457.02780795" y1="361.645914101" y2="356.989730059" /><line stroke="rgb(0%,0%,0%)" x1="463.504751215" x2="462.010550515" y1="362.658832539" y2="361.645914101" /><line stroke="rgb(0%,0%,0%)" x1="465.56218278" x2="463.504751215" y1="364.282739083" y2="362.658832539" /><line stroke="rgb(0%,0%,0%)" x1="396.18761849" x2="392.948486727" y1="616.560120301" y2="618.484603628" /><line stroke="rgb(0%,0%,0%)" x1="384.847396195" x2="392.948486727" y1="620.993319401" y2="618.484603628" /><line stroke="rgb(0%,0%,0%)" x1="400.982413473" x2="407.126801279" y1="614.888400276" y2="612.350362844" /><line stroke="rgb(0%,0%,0%)" x1="396.18761849" x2="400.982413473" y1="616.560120301" y2="614.888400276" /><line stroke="rgb(0%,0%,0%)" x1="407.126801279" x2="410.75557052" y1="612.350362844" y2="611.045261998" /><line stroke="rgb(0%,0%,0%)" x1="410.75557052" x2="416.650348166" y1="611.045261998" y2="606.64945425" /><line stroke="rgb(0%,0%,0%)" x1="416.650348166" x2="418.654912523" y1="606.64945425" y2="605.300025042" /><line stroke="rgb(0%,0%,0%)" x1="418.654912523" x2="419.986800628" y1="605.300025042" y2="603.913248425" /><line stroke="rgb(0%,0%,0%)" x1="427.380705019" x2="419.986800628" y1="595.143809246" y2="603.913248425" /><line stroke="rgb(0%,0%,0%)" x1="427.380705019" x2="431.83248627" y1="595.143809246" y2="586.56719057" /><line stroke="rgb(0%,0%,0%)" x1="366.686980149" x2="370.689046359" y1="628.413619286" y2="626.672706939" /><line stroke="rgb(0%,0%,0%)" x1="372.385376335" x2="373.278506875" y1="625.993188781" y2="625.528386707" /><line stroke="rgb(0%,0%,0%)" x1="384.847396195" x2="373.278506875" y1="620.993319401" y2="625.528386707" /><line stroke="rgb(0%,0%,0%)" x1="331.249042379" x2="333.590816994" y1="638.777866895" y2="636.137734985" /><line stroke="rgb(0%,0%,0%)" x1="333.590816994" x2="334.788030072" y1="636.137734985" y2="634.699791935" /><line stroke="rgb(0%,0%,0%)" x1="328.800695793" x2="331.249042379" y1="639.812617862" y2="638.777866895" /><line stroke="rgb(0%,0%,0%)" x1="334.788030072" x2="336.53495587" y1="634.699791935" y2="634.272710687" /><line stroke="rgb(0%,0%,0%)" x1="336.53495587" x2="340.922380402" y1="634.272710687" y2="631.811786233" /><line stroke="rgb(0%,0%,0%)" x1="343.481105985" x2="340.922380402" y1="632.121783426" y2="631.811786233" /><line stroke="rgb(0%,0%,0%)" x1="348.733819741" x2="352.613044099" y1="630.474431438" y2="630.255190277" /><line stroke="rgb(0%,0%,0%)" x1="361.270273748" x2="352.613044099" y1="628.953906463" y2="630.255190277" /><line stroke="rgb(0%,0%,0%)" x1="343.481105985" x2="348.733819741" y1="632.121783426" y2="630.474431438" /><line stroke="rgb(0%,0%,0%)" x1="361.270273748" x2="366.686980149" y1="628.953906463" y2="628.413619286" /><line stroke="rgb(0%,0%,0%)" x1="370.689046359" x2="372.385376335" y1="626.672706939" y2="625.993188781" /><line stroke="rgb(0%,0%,0%)" x1="293.171834044" x2="296.265574149" y1="667.252746008" y2="662.930472325" /><line stroke="rgb(0%,0%,0%)" x1="296.265574149" x2="296.493832557" y1="662.930472325" y2="652.454897381" /><line stroke="rgb(0%,0%,0%)" x1="296.493832557" x2="296.573831715" y1="652.454897381" y2="652.203019082" /><line stroke="rgb(0%,0%,0%)" x1="307.486769053" x2="296.573831715" y1="645.890274706" y2="652.203019082" /><line stroke="rgb(0%,0%,0%)" x1="307.486769053" x2="308.627193326" y1="645.890274706" y2="644.77927536" /><line stroke="rgb(0%,0%,0%)" x1="327.271728439" x2="308.627193326" y1="640.291369771" y2="644.77927536" /><line stroke="rgb(0%,0%,0%)" x1="327.271728439" x2="328.800695793" y1="640.291369771" y2="639.812617862" /><line stroke="rgb(0%,0%,0%)" x1="241.944036613" x2="239.886148447" y1="640.912118946" y2="640.806817717" /><line stroke="rgb(0%,0%,0%)" x1="259.43086367" x2="259.510071952" y1="660.199513054" y2="663.619940853" /><line stroke="rgb(0%,0%,0%)" x1="262.553803151" x2="259.43086367" y1="657.788051002" y2="660.199513054" /><line stroke="rgb(0%,0%,0%)" x1="259.510071952" x2="259.957148296" y1="663.619940853" y2="665.367567956" /><line stroke="rgb(0%,0%,0%)" x1="262.969838574" x2="259.53117006" y1="642.957395535" y2="640.912888605" /><line stroke="rgb(0%,0%,0%)" x1="258.023462958" x2="259.53117006" y1="640.917324972" y2="640.912888605" /><line stroke="rgb(0%,0%,0%)" x1="243.750802601" x2="252.755059954" y1="640.940948618" y2="642.113666395" /><line stroke="rgb(0%,0%,0%)" x1="252.755059954" x2="258.023462958" y1="642.113666395" y2="640.917324972" /><line stroke="rgb(0%,0%,0%)" x1="241.944036613" x2="243.750802601" y1="640.912118946" y2="640.940948618" /><line stroke="rgb(0%,0%,0%)" x1="271.267991658" x2="279.147854903" y1="689.533541068" y2="686.777927371" /><line stroke="rgb(0%,0%,0%)" x1="271.364975355" x2="271.267991658" y1="683.881767125" y2="689.533541068" /><line stroke="rgb(0%,0%,0%)" x1="271.436314402" x2="271.364975355" y1="680.719433133" y2="683.881767125" /><line stroke="rgb(0%,0%,0%)" x1="266.92317175" x2="277.283105797" y1="672.681093153" y2="671.850692713" /><line stroke="rgb(0%,0%,0%)" x1="263.334896201" x2="266.92317175" y1="669.105374194" y2="672.681093153" /><line stroke="rgb(0%,0%,0%)" x1="263.334896201" x2="259.957148296" y1="669.105374194" y2="665.367567956" /><line stroke="rgb(0%,0%,0%)" x1="262.553803151" x2="264.144305107" y1="657.788051002" y2="654.499175119" /><line stroke="rgb(0%,0%,0%)" x1="267.857576397" x2="268.174596437" y1="648.130854939" y2="651.685234012" /><line stroke="rgb(0%,0%,0%)" x1="268.174596437" x2="264.144305107" y1="651.685234012" y2="654.499175119" /><line stroke="rgb(0%,0%,0%)" x1="263.98406925" x2="267.857576397" y1="647.268815764" y2="648.130854939" /><line stroke="rgb(0%,0%,0%)" x1="264.155160747" x2="263.98406925" y1="644.694200248" y2="647.268815764" /><line stroke="rgb(0%,0%,0%)" x1="262.969838574" x2="264.155160747" y1="642.957395535" y2="644.694200248" /><line stroke="rgb(0%,0%,0%)" x1="279.147854903" x2="279.092061299" y1="686.777927371" y2="682.571002905" /><line stroke="rgb(0%,0%,0%)" x1="279.092061299" x2="271.436314402" y1="682.571002905" y2="680.719433133" /><line stroke="rgb(0%,0%,0%)" x1="289.181331947" x2="277.283105797" y1="669.199471419" y2="671.850692713" /><line stroke="rgb(0%,0%,0%)" x1="289.181331947" x2="293.171834044" y1="669.199471419" y2="667.252746008" /><line stroke="rgb(0%,0%,0%)" x1="200.419486889" x2="204.185020121" y1="632.947330112" y2="634.101619027" /><line stroke="rgb(0%,0%,0%)" x1="218.382702568" x2="219.737965443" y1="638.749995669" y2="639.009787942" /><line stroke="rgb(0%,0%,0%)" x1="218.382702568" x2="212.847902582" y1="638.749995669" y2="636.927015761" /><line stroke="rgb(0%,0%,0%)" x1="229.48107871" x2="235.655613367" y1="640.509153682" y2="640.373027045" /><line stroke="rgb(0%,0%,0%)" x1="219.737965443" x2="226.713668444" y1="639.009787942" y2="639.813965336" /><line stroke="rgb(0%,0%,0%)" x1="239.886148447" x2="236.185182863" y1="640.806817717" y2="640.440119787" /><line stroke="rgb(0%,0%,0%)" x1="235.655613367" x2="236.185182863" y1="640.373027045" y2="640.440119787" /><line stroke="rgb(0%,0%,0%)" x1="187.788638824" x2="172.601058787" y1="629.521909243" y2="624.335968935" /><line stroke="rgb(0%,0%,0%)" x1="187.788638824" x2="190.813660456" y1="629.521909243" y2="630.587614178" /><line stroke="rgb(0%,0%,0%)" x1="200.419486889" x2="197.473863477" y1="632.947330112" y2="632.099384771" /><line stroke="rgb(0%,0%,0%)" x1="207.864068048" x2="210.103312415" y1="634.87842227" y2="635.993131026" /><line stroke="rgb(0%,0%,0%)" x1="204.185020121" x2="207.864068048" y1="634.101619027" y2="634.87842227" /><line stroke="rgb(0%,0%,0%)" x1="210.103312415" x2="212.847902582" y1="635.993131026" y2="636.927015761" /><line stroke="rgb(0%,0%,0%)" x1="226.713668444" x2="228.933110159" y1="639.813965336" y2="640.374452484" /><line stroke="rgb(0%,0%,0%)" x1="228.933110159" x2="229.48107871" y1="640.374452484" y2="640.509153682" /><line stroke="rgb(0%,0%,0%)" x1="96.6698713003" x2="94.5668991053" y1="602.400508276" y2="600.886312256" /><line stroke="rgb(0%,0%,0%)" x1="98.4745288026" x2="103.194285401" y1="602.995830633" y2="605.024696813" /><line stroke="rgb(0%,0%,0%)" x1="98.4745288026" x2="96.6698713003" y1="602.995830633" y2="602.400508276" /><line stroke="rgb(0%,0%,0%)" x1="147.805222881" x2="165.105123894" y1="616.670090417" y2="622.044197358" /><line stroke="rgb(0%,0%,0%)" x1="169.086524666" x2="172.601058787" y1="623.090013799" y2="624.335968935" /><line stroke="rgb(0%,0%,0%)" x1="190.813660456" x2="192.286572214" y1="630.587614178" y2="630.468949841" /><line stroke="rgb(0%,0%,0%)" x1="192.286572214" x2="197.473863477" y1="630.468949841" y2="632.099384771" /><line stroke="rgb(0%,0%,0%)" x1="76.030027188" x2="75.0522140735" y1="584.04939012" y2="582.79950012" /><line stroke="rgb(0%,0%,0%)" x1="111.093127" x2="117.851206812" y1="607.887720928" y2="610.579596414" /><line stroke="rgb(0%,0%,0%)" x1="103.194285401" x2="111.093127" y1="605.024696813" y2="607.887720928" /><line stroke="rgb(0%,0%,0%)" x1="117.851206812" x2="122.029931532" y1="610.579596414" y2="611.387256152" /><line stroke="rgb(0%,0%,0%)" x1="122.029931532" x2="134.675873822" y1="611.387256152" y2="614.457705545" /><line stroke="rgb(0%,0%,0%)" x1="147.805222881" x2="134.675873822" y1="616.670090417" y2="614.457705545" /><line stroke="rgb(0%,0%,0%)" x1="165.105123894" x2="167.433614993" y1="622.044197358" y2="622.678616713" /><line stroke="rgb(0%,0%,0%)" x1="167.433614993" x2="168.641095798" y1="622.678616713" y2="623.011741192" /><line stroke="rgb(0%,0%,0%)" x1="168.641095798" x2="169.086524666" y1="623.011741192" y2="623.090013799" /><line stroke="rgb(0%,0%,0%)" x1="55.1398572452" x2="56.2005539259" y1="544.701165668" y2="546.218803408" /><line stroke="rgb(0%,0%,0%)" x1="67.7363785896" x2="71.6388798083" y1="569.918843361" y2="575.169784443" /><line stroke="rgb(0%,0%,0%)" x1="67.7363785896" x2="65.5294455831" y1="569.918843361" y2="563.908132405" /><line stroke="rgb(0%,0%,0%)" x1="87.1916102962" x2="94.5668991053" y1="593.918044848" y2="600.886312256" /><line stroke="rgb(0%,0%,0%)" x1="77.1748656431" x2="87.1916102962" y1="585.224959628" y2="593.918044848" /><line stroke="rgb(0%,0%,0%)" x1="76.030027188" x2="77.1748656431" y1="584.04939012" y2="585.224959628" /><line stroke="rgb(0%,0%,0%)" x1="24.625037599" x2="24.565848171" y1="465.791138357" y2="466.772124745" /><line stroke="rgb(0%,0%,0%)" x1="23.2363644221" x2="24.9280085164" y1="475.506399497" y2="479.252412242" /><line stroke="rgb(0%,0%,0%)" x1="24.565848171" x2="23.2363644221" y1="466.772124745" y2="475.506399497" /><line stroke="rgb(0%,0%,0%)" x1="24.8213072401" x2="24.625037599" y1="465.549237697" y2="465.791138357" /><line stroke="rgb(0%,0%,0%)" x1="24.8213072401" x2="25.377584913" y1="465.549237697" y2="464.955540025" /><line stroke="rgb(0%,0%,0%)" x1="29.2290602593" x2="26.9746458847" y1="483.949406985" y2="481.861834095" /><line stroke="rgb(0%,0%,0%)" x1="42.1931308945" x2="47.4814001676" y1="510.26051835" y2="519.740795774" /><line stroke="rgb(0%,0%,0%)" x1="39.3495134395" x2="39.3797105298" y1="499.929190951" y2="503.615546685" /><line stroke="rgb(0%,0%,0%)" x1="61.3517903381" x2="58.4349470689" y1="556.332976616" y2="549.366315988" /><line stroke="rgb(0%,0%,0%)" x1="61.3517903381" x2="64.9306525156" y1="556.332976616" y2="561.178795212" /><line stroke="rgb(0%,0%,0%)" x1="58.3691040783" x2="58.4349470689" y1="549.204990894" y2="549.366315988" /><line stroke="rgb(0%,0%,0%)" x1="56.2005539259" x2="58.3148149187" y1="546.218803408" y2="549.132909197" /><line stroke="rgb(0%,0%,0%)" x1="58.3148149187" x2="58.3691040783" y1="549.132909197" y2="549.204990894" /><line stroke="rgb(0%,0%,0%)" x1="55.1398572452" x2="55.1297480225" y1="544.701165668" y2="544.573861896" /><line stroke="rgb(0%,0%,0%)" x1="55.5577301042" x2="55.1297480225" y1="538.54604264" y2="544.573861896" /><line stroke="rgb(0%,0%,0%)" x1="55.647182034" x2="55.5577301042" y1="534.12453147" y2="538.54604264" /><line stroke="rgb(0%,0%,0%)" x1="55.647182034" x2="57.8127771045" y1="534.12453147" y2="529.983746437" /><line stroke="rgb(0%,0%,0%)" x1="57.0727358593" x2="58.0705674302" y1="527.234844772" y2="529.395746899" /><line stroke="rgb(0%,0%,0%)" x1="57.0727358593" x2="51.8962135855" y1="527.234844772" y2="523.626331249" /><line stroke="rgb(0%,0%,0%)" x1="47.4814001676" x2="51.8962135855" y1="519.740795774" y2="523.626331249" /><line stroke="rgb(0%,0%,0%)" x1="72.4561543635" x2="75.0522140735" y1="577.619294709" y2="582.79950012" /><line stroke="rgb(0%,0%,0%)" x1="71.6388798083" x2="72.4561543635" y1="575.169784443" y2="577.619294709" /><line stroke="rgb(0%,0%,0%)" x1="65.4691489308" x2="65.5294455831" y1="562.505102111" y2="563.908132405" /><line stroke="rgb(0%,0%,0%)" x1="64.9306525156" x2="65.4691489308" y1="561.178795212" y2="562.505102111" /><line stroke="rgb(0%,0%,0%)" x1="30.9585262534" x2="33.7130311665" y1="490.597264003" y2="494.205413565" /><line stroke="rgb(0%,0%,0%)" x1="30.3238091194" x2="30.9585262534" y1="487.00684615" y2="490.597264003" /><line stroke="rgb(0%,0%,0%)" x1="29.2290602593" x2="30.3238091194" y1="483.949406985" y2="487.00684615" /><line stroke="rgb(0%,0%,0%)" x1="33.7130311665" x2="34.7454060598" y1="494.205413565" y2="495.25761808" /><line stroke="rgb(0%,0%,0%)" x1="27.3022184201" x2="25.377584913" y1="461.42453235" y2="464.955540025" /><line stroke="rgb(0%,0%,0%)" x1="39.8984644412" x2="42.1931308945" y1="505.876084746" y2="510.26051835" /><line stroke="rgb(0%,0%,0%)" x1="39.3797105298" x2="39.8984644412" y1="503.615546685" y2="505.876084746" /><line stroke="rgb(0%,0%,0%)" x1="38.6483693542" x2="39.3495134395" y1="497.176155046" y2="499.929190951" /><line stroke="rgb(0%,0%,0%)" x1="38.6483693542" x2="34.7454060598" y1="497.176155046" y2="495.25761808" /><line stroke="rgb(0%,0%,0%)" x1="58.0705674302" x2="57.8127771045" y1="529.395746899" y2="529.983746437" /><line stroke="rgb(0%,0%,0%)" x1="25.7364919442" x2="26.9746458847" y1="480.720814315" y2="481.861834095" /><line stroke="rgb(0%,0%,0%)" x1="24.9280085164" x2="25.7364919442" y1="479.252412242" y2="480.720814315" /><line stroke="rgb(0%,0%,0%)" x1="510.985867788" x2="509.535551258" y1="486.042726792" y2="489.572677676" /><line stroke="rgb(0%,0%,0%)" x1="514.978399392" x2="514.988902948" y1="459.089777455" y2="462.109182758" /><line stroke="rgb(0%,0%,0%)" x1="464.425820872" x2="472.027028657" y1="555.520612586" y2="549.954053227" /><line stroke="rgb(0%,0%,0%)" x1="472.027028657" x2="474.82726029" y1="549.954053227" y2="546.842017769" /><line stroke="rgb(0%,0%,0%)" x1="474.82726029" x2="477.570642918" y1="546.842017769" y2="543.825146115" /><line stroke="rgb(0%,0%,0%)" x1="477.570642918" x2="478.593725293" y1="543.825146115" y2="542.050485569" /><line stroke="rgb(0%,0%,0%)" x1="480.646950426" x2="478.593725293" y1="538.901832333" y2="542.050485569" /><line stroke="rgb(0%,0%,0%)" x1="480.646950426" x2="486.403522487" y1="538.901832333" y2="533.790557023" /><line stroke="rgb(0%,0%,0%)" x1="487.233643685" x2="486.403522487" y1="531.764101511" y2="533.790557023" /><line stroke="rgb(0%,0%,0%)" x1="487.233643685" x2="489.905313618" y1="531.764101511" y2="526.018099978" /><line stroke="rgb(0%,0%,0%)" x1="489.905313618" x2="492.874085514" y1="526.018099978" y2="519.947127936" /><line stroke="rgb(0%,0%,0%)" x1="496.149115824" x2="497.571500299" y1="512.919891818" y2="509.57055949" /><line stroke="rgb(0%,0%,0%)" x1="493.149367392" x2="492.874085514" y1="519.597453554" y2="519.947127936" /><line stroke="rgb(0%,0%,0%)" x1="497.571500299" x2="498.930486844" y1="509.57055949" y2="508.000254351" /><line stroke="rgb(0%,0%,0%)" x1="493.149367392" x2="494.389361728" y1="519.597453554" y2="517.298239712" /><line stroke="rgb(0%,0%,0%)" x1="494.389361728" x2="496.149115824" y1="517.298239712" y2="512.919891818" /><line stroke="rgb(0%,0%,0%)" x1="498.930486844" x2="501.184231244" y1="508.000254351" y2="504.445119077" /><line stroke="rgb(0%,0%,0%)" x1="506.212438993" x2="501.184231244" y1="495.638365114" y2="504.445119077" /><line stroke="rgb(0%,0%,0%)" x1="506.212438993" x2="509.535551258" y1="495.638365114" y2="489.572677676" /><line stroke="rgb(0%,0%,0%)" x1="510.985867788" x2="514.133798624" y1="486.042726792" y2="474.699606488" /><line stroke="rgb(0%,0%,0%)" x1="514.133798624" x2="514.77754541" y1="474.699606488" y2="471.914343458" /><line stroke="rgb(0%,0%,0%)" x1="514.77754541" x2="514.866113055" y1="471.914343458" y2="471.244238709" /><line stroke="rgb(0%,0%,0%)" x1="514.866113055" x2="514.988902948" y1="471.244238709" y2="462.109182758" /><line stroke="rgb(0%,0%,0%)" x1="456.400586686" x2="451.435615693" y1="561.13460708" y2="564.735501374" /><line stroke="rgb(0%,0%,0%)" x1="456.400586686" x2="464.425820872" y1="561.13460708" y2="555.520612586" /><line stroke="rgb(0%,0%,0%)" x1="25.683916557" x2="27.3022184201" y1="457.619538504" y2="461.42453235" /><line stroke="rgb(0%,0%,0%)" x1="514.978399392" x2="514.968459401" y1="459.089777455" y2="458.236158659" /><line stroke="rgb(0%,0%,0%)" x1="506.230141713" x2="502.005117627" y1="422.696362142" y2="415.724023497" /></svg>