<?xml version="1.0" encoding="utf-8" ?>
<svg baseProfile="full" height="100%" version="1.1" viewBox="0.5 0.5 685.793960571 941.299331665" width="100%" xmlns="http://www.w3.org/2000/svg" xmlns:ev="http://www.w3.org/2001/xml-events" xmlns:xlink="http://www.w3.org/1999/xlink"><defs /><line stroke="rgb(0%,0%,0%)" x1="516.211520991" x2="516.44999678" y1="448.89219468" y2="450.698534689" /><line stroke="rgb(0%,0%,0%)" x1="510.065000112" x2="510.216937546" y1="426.340304496" y2="426.791427567" /><line stroke="rgb(0%,0%,0%)" x1="510.216937546" x2="511.629070616" y1="426.791427567" y2="429.796485856" /><line stroke="rgb(0%,0%,0%)" x1="510.065000112" x2="509.713356776" y1="426.340304496" y2="425.771973274" /><line stroke="rgb(0%,0%,0%)" x1="509.623874989" x2="509.713356776" y1="425.42078165" y2="425.771973274" /><line stroke="rgb(0%,0%,0%)" x1="515.975606671" x2="516.60429814" y1="459.141919707" y2="453.650272462" /><line stroke="rgb(0%,0%,0%)" x1="516.44999678" x2="516.60429814" y1="450.698534689" y2="453.650272462" /><line stroke="rgb(0%,0%,0%)" x1="515.848108679" x2="513.783888007" y1="446.628000485" y2="436.276525286" /><line stroke="rgb(0%,0%,0%)" x1="516.211520991" x2="515.848108679" y1="448.89219468" y2="446.628000485" /><line stroke="rgb(0%,0%,0%)" x1="513.783888007" x2="513.30587273" y1="436.276525286" y2="434.191285857" /><line stroke="rgb(0%,0%,0%)" x1="513.30587273" x2="513.102652234" y1="434.191285857" y2="433.456613512" /><line stroke="rgb(0%,0%,0%)" x1="513.102652234" x2="512.872121795" y1="433.456613512" y2="432.720765202" /><line stroke="rgb(0%,0%,0%)" x1="512.872121795" x2="511.629070616" y1="432.720765202" y2="429.796485856" /><line stroke="rgb(0%,0%,0%)" x1="448.929890071" x2="448.384620283" y1="349.339282627" y2="348.893129818" /><line stroke="rgb(0%,0%,0%)" x1="431.74106718" x2="431.666245014" y1="327.098283733" y2="327.014423681" /><line stroke="rgb(0%,0%,0%)" x1="424.154297226" x2="418.236486308" y1="316.013044126" y2="310.624812031" /><line stroke="rgb(0%,0%,0%)" x1="431.666245014" x2="424.154297226" y1="327.014423681" y2="316.013044126" /><line stroke="rgb(0%,0%,0%)" x1="418.236486308" x2="411.537007621" y1="310.624812031" y2="305.697892702" /><line stroke="rgb(0%,0%,0%)" x1="431.74106718" x2="431.825495781" y1="327.098283733" y2="327.193907183" /><line stroke="rgb(0%,0%,0%)" x1="431.888320642" x2="431.825495781" y1="327.32336509" y2="327.193907183" /><line stroke="rgb(0%,0%,0%)" x1="439.988021415" x2="431.888320642" y1="340.547803368" y2="327.32336509" /><line stroke="rgb(0%,0%,0%)" x1="448.929890071" x2="452.195654223" y1="349.339282627" y2="351.580242732" /><line stroke="rgb(0%,0%,0%)" x1="448.384620283" x2="444.767127472" y1="348.893129818" y2="345.759782311" /><line stroke="rgb(0%,0%,0%)" x1="444.767127472" x2="439.988021415" y1="345.759782311" y2="340.547803368" /><line stroke="rgb(0%,0%,0%)" x1="453.311739919" x2="452.195654223" y1="352.411875469" y2="351.580242732" /><line stroke="rgb(0%,0%,0%)" x1="360.494431257" x2="359.56793079" y1="284.760951402" y2="284.51622619" /><line stroke="rgb(0%,0%,0%)" x1="359.56793079" x2="357.455212057" y1="284.51622619" y2="284.202256841" /><line stroke="rgb(0%,0%,0%)" x1="405.165878144" x2="397.249042041" y1="301.472811199" y2="296.365267126" /><line stroke="rgb(0%,0%,0%)" x1="384.740102797" x2="395.49669822" y1="293.001786979" y2="295.96917353" /><line stroke="rgb(0%,0%,0%)" x1="411.537007621" x2="405.165878144" y1="305.697892702" y2="301.472811199" /><line stroke="rgb(0%,0%,0%)" x1="357.455212057" x2="354.492916581" y1="284.202256841" y2="283.493160882" /><line stroke="rgb(0%,0%,0%)" x1="367.913707501" x2="368.60814397" y1="285.166139616" y2="285.386689228" /><line stroke="rgb(0%,0%,0%)" x1="368.60814397" x2="369.597856207" y1="285.386689228" y2="285.661658698" /><line stroke="rgb(0%,0%,0%)" x1="367.913707501" x2="360.494431257" y1="285.166139616" y2="284.760951402" /><line stroke="rgb(0%,0%,0%)" x1="384.740102797" x2="384.172982858" y1="293.001786979" y2="292.236194891" /><line stroke="rgb(0%,0%,0%)" x1="384.172982858" x2="383.714014552" y1="292.236194891" y2="291.25950875" /><line stroke="rgb(0%,0%,0%)" x1="382.941245906" x2="383.714014552" y1="289.935369031" y2="291.25950875" /><line stroke="rgb(0%,0%,0%)" x1="382.941245906" x2="378.529250293" y1="289.935369031" y2="288.106912603" /><line stroke="rgb(0%,0%,0%)" x1="378.529250293" x2="369.597856207" y1="288.106912603" y2="285.661658698" /><line stroke="rgb(0%,0%,0%)" x1="397.249042041" x2="395.49669822" y1="296.365267126" y2="295.96917353" /><line stroke="rgb(0%,0%,0%)" x1="330.733446032" x2="328.796401963" y1="276.736910752" y2="272.152535276" /><line stroke="rgb(0%,0%,0%)" x1="338.977848452" x2="332.871874163" y1="278.534154929" y2="278.100593128" /><line stroke="rgb(0%,0%,0%)" x1="338.977848452" x2="347.214621576" y1="278.534154929" y2="279.973266892" /><line stroke="rgb(0%,0%,0%)" x1="332.871874163" x2="330.733446032" y1="278.100593128" y2="276.736910752" /><line stroke="rgb(0%,0%,0%)" x1="354.492916581" x2="354.031884111" y1="283.493160882" y2="283.020515652" /><line stroke="rgb(0%,0%,0%)" x1="354.031884111" x2="348.031316493" y1="283.020515652" y2="280.061067966" /><line stroke="rgb(0%,0%,0%)" x1="348.031316493" x2="347.214621576" y1="280.061067966" y2="279.973266892" /><line stroke="rgb(0%,0%,0%)" x1="291.037818546" x2="290.200790575" y1="269.882843339" y2="271.947166462" /><line stroke="rgb(0%,0%,0%)" x1="290.970148639" x2="291.037818546" y1="269.572619802" y2="269.882843339" /><line stroke="rgb(0%,0%,0%)" x1="294.959703013" x2="290.970148639" y1="265.88423009" y2="269.572619802" /><line stroke="rgb(0%,0%,0%)" x1="313.023339768" x2="294.959703013" y1="264.182461775" y2="265.88423009" /><line stroke="rgb(0%,0%,0%)" x1="313.023339768" x2="315.741897884" y1="264.182461775" y2="264.898443025" /><line stroke="rgb(0%,0%,0%)" x1="326.792867135" x2="315.741897884" y1="269.664518247" y2="264.898443025" /><line stroke="rgb(0%,0%,0%)" x1="328.796401963" x2="326.792867135" y1="272.152535276" y2="269.664518247" /><line stroke="rgb(0%,0%,0%)" x1="257.702267797" x2="256.92935117" y1="280.84638007" y2="280.835162296" /><line stroke="rgb(0%,0%,0%)" x1="258.099633857" x2="257.702267797" y1="280.840671208" y2="280.84638007" /><line stroke="rgb(0%,0%,0%)" x1="268.233952883" x2="272.666316768" y1="281.081756095" y2="281.252258777" /><line stroke="rgb(0%,0%,0%)" x1="268.233952883" x2="258.099633857" y1="281.081756095" y2="280.840671208" /><line stroke="rgb(0%,0%,0%)" x1="273.135527184" x2="272.666316768" y1="281.099083079" y2="281.252258777" /><line stroke="rgb(0%,0%,0%)" x1="278.401297357" x2="273.135527184" y1="279.369670329" y2="281.099083079" /><line stroke="rgb(0%,0%,0%)" x1="278.285393011" x2="284.465595434" y1="278.344187994" y2="277.862465254" /><line stroke="rgb(0%,0%,0%)" x1="291.389912975" x2="284.356623217" y1="274.109469921" y2="277.50424846" /><line stroke="rgb(0%,0%,0%)" x1="284.356623217" x2="284.465595434" y1="277.50424846" y2="277.862465254" /><line stroke="rgb(0%,0%,0%)" x1="290.200790575" x2="291.389912975" y1="271.947166462" y2="274.109469921" /><line stroke="rgb(0%,0%,0%)" x1="215.577457459" x2="211.614667835" y1="277.679674965" y2="277.965700559" /><line stroke="rgb(0%,0%,0%)" x1="218.179166249" x2="224.999973197" y1="277.828170308" y2="277.787243713" /><line stroke="rgb(0%,0%,0%)" x1="218.179166249" x2="216.387839587" y1="277.828170308" y2="277.779566106" /><line stroke="rgb(0%,0%,0%)" x1="216.387839587" x2="215.577457459" y1="277.779566106" y2="277.679674965" /><line stroke="rgb(0%,0%,0%)" x1="233.653063717" x2="235.630851013" y1="279.009279314" y2="279.300640855" /><line stroke="rgb(0%,0%,0%)" x1="230.160817311" x2="226.516376233" y1="278.102138635" y2="277.692909039" /><line stroke="rgb(0%,0%,0%)" x1="233.653063717" x2="230.160817311" y1="279.009279314" y2="278.102138635" /><line stroke="rgb(0%,0%,0%)" x1="256.92935117" x2="246.349285597" y1="280.835162296" y2="279.584758232" /><line stroke="rgb(0%,0%,0%)" x1="246.349285597" x2="244.402041574" y1="279.584758232" y2="279.611362298" /><line stroke="rgb(0%,0%,0%)" x1="278.285393011" x2="278.401297357" y1="278.344187994" y2="279.369670329" /><line stroke="rgb(0%,0%,0%)" x1="161.879639321" x2="150.267702567" y1="289.313766242" y2="294.854722666" /><line stroke="rgb(0%,0%,0%)" x1="174.956210749" x2="161.879639321" y1="284.344376359" y2="289.313766242" /><line stroke="rgb(0%,0%,0%)" x1="174.956210749" x2="177.628869341" y1="284.344376359" y2="283.53450287" /><line stroke="rgb(0%,0%,0%)" x1="205.308071189" x2="200.309665077" y1="278.801831916" y2="279.081208747" /><line stroke="rgb(0%,0%,0%)" x1="205.308071189" x2="207.011799304" y1="278.801831916" y2="278.421539828" /><line stroke="rgb(0%,0%,0%)" x1="211.614667835" x2="207.011799304" y1="277.965700559" y2="278.421539828" /><line stroke="rgb(0%,0%,0%)" x1="226.516376233" x2="224.999973197" y1="277.692909039" y2="277.787243713" /><line stroke="rgb(0%,0%,0%)" x1="244.402041574" x2="235.630851013" y1="279.611362298" y2="279.300640855" /><line stroke="rgb(0%,0%,0%)" x1="184.457379941" x2="186.795168355" y1="282.011349872" y2="281.065682825" /><line stroke="rgb(0%,0%,0%)" x1="184.457379941" x2="181.454226901" y1="282.011349872" y2="282.514544535" /><line stroke="rgb(0%,0%,0%)" x1="181.454226901" x2="177.628869341" y1="282.514544535" y2="283.53450287" /><line stroke="rgb(0%,0%,0%)" x1="186.795168355" x2="192.365249262" y1="281.065682825" y2="279.806468581" /><line stroke="rgb(0%,0%,0%)" x1="200.309665077" x2="196.985876151" y1="279.081208747" y2="279.401349101" /><line stroke="rgb(0%,0%,0%)" x1="194.341202756" x2="192.365249262" y1="279.677672957" y2="279.806468581" /><line stroke="rgb(0%,0%,0%)" x1="112.427865916" x2="107.023388637" y1="309.702151829" y2="312.25116581" /><line stroke="rgb(0%,0%,0%)" x1="148.122240857" x2="124.440040645" y1="295.862530572" y2="304.663438516" /><line stroke="rgb(0%,0%,0%)" x1="196.985876151" x2="194.341202756" y1="279.401349101" y2="279.677672957" /><line stroke="rgb(0%,0%,0%)" x1="81.0260191393" x2="82.6025475393" y1="329.40129757" y2="328.64942703" /><line stroke="rgb(0%,0%,0%)" x1="96.3478600311" x2="91.8447711265" y1="317.850594203" y2="321.061489245" /><line stroke="rgb(0%,0%,0%)" x1="107.023388637" x2="96.3478600311" y1="312.25116581" y2="317.850594203" /><line stroke="rgb(0%,0%,0%)" x1="112.427865916" x2="122.382514259" y1="309.702151829" y2="305.444266005" /><line stroke="rgb(0%,0%,0%)" x1="149.581809514" x2="148.122240857" y1="295.319299981" y2="295.862530572" /><line stroke="rgb(0%,0%,0%)" x1="150.267702567" x2="149.581809514" y1="294.854722666" y2="295.319299981" /><line stroke="rgb(0%,0%,0%)" x1="51.7905413125" x2="57.4289968537" y1="398.898734492" y2="394.458046689" /><line stroke="rgb(0%,0%,0%)" x1="63.7318064146" x2="63.3143258562" y1="363.107870976" y2="363.823466331" /><line stroke="rgb(0%,0%,0%)" x1="63.7318064146" x2="64.0114339242" y1="363.107870976" y2="362.713327662" /><line stroke="rgb(0%,0%,0%)" x1="66.6333005692" x2="64.0114339242" y1="357.45610298" y2="362.713327662" /><line stroke="rgb(0%,0%,0%)" x1="68.612415118" x2="66.4703189825" y1="347.307777668" y2="352.030972154" /><line stroke="rgb(0%,0%,0%)" x1="66.4703189825" x2="66.6333005692" y1="352.030972154" y2="357.45610298" /><line stroke="rgb(0%,0%,0%)" x1="71.2872821187" x2="68.612415118" y1="341.626625475" y2="347.307777668" /><line stroke="rgb(0%,0%,0%)" x1="81.0260191393" x2="75.1333619485" y1="329.40129757" y2="335.191303493" /><line stroke="rgb(0%,0%,0%)" x1="123.579073517" x2="122.382514259" y1="305.079603374" y2="305.444266005" /><line stroke="rgb(0%,0%,0%)" x1="124.440040645" x2="123.579073517" y1="304.663438516" y2="305.079603374" /><line stroke="rgb(0%,0%,0%)" x1="24.9265717682" x2="24.9592326694" y1="455.855502814" y2="455.909833425" /><line stroke="rgb(0%,0%,0%)" x1="24.9265717682" x2="24.9023042388" y1="455.855502814" y2="455.806052913" /><line stroke="rgb(0%,0%,0%)" x1="29.0742233768" x2="27.3380309323" y1="436.439770716" y2="438.934270001" /><line stroke="rgb(0%,0%,0%)" x1="32.7880316696" x2="34.3632199367" y1="430.492077009" y2="427.246683658" /><line stroke="rgb(0%,0%,0%)" x1="32.7880316696" x2="29.0742233768" y1="430.492077009" y2="436.439770716" /><line stroke="rgb(0%,0%,0%)" x1="38.9352396829" x2="40.573809619" y1="422.236668257" y2="420.288986156" /><line stroke="rgb(0%,0%,0%)" x1="40.573809619" x2="42.4045800342" y1="420.288986156" y2="414.746562279" /><line stroke="rgb(0%,0%,0%)" x1="46.4970708485" x2="45.2419750744" y1="406.279769059" y2="408.52733859" /><line stroke="rgb(0%,0%,0%)" x1="47.1361071285" x2="46.4970708485" y1="405.611330432" y2="406.279769059" /><line stroke="rgb(0%,0%,0%)" x1="47.1361071285" x2="48.6329548548" y1="405.611330432" y2="403.131911574" /><line stroke="rgb(0%,0%,0%)" x1="51.7905413125" x2="48.6329548548" y1="398.898734492" y2="403.131911574" /><line stroke="rgb(0%,0%,0%)" x1="58.2933045447" x2="57.4289968537" y1="393.322672927" y2="394.458046689" /><line stroke="rgb(0%,0%,0%)" x1="57.491605155" x2="58.2933045447" y1="390.795539286" y2="393.322672927" /><line stroke="rgb(0%,0%,0%)" x1="55.4628408203" x2="57.491605155" y1="385.99871685" y2="390.795539286" /><line stroke="rgb(0%,0%,0%)" x1="55.5044285937" x2="55.4628408203" y1="379.481389405" y2="385.99871685" /><line stroke="rgb(0%,0%,0%)" x1="55.7026652446" x2="55.5044285937" y1="376.944796286" y2="379.481389405" /><line stroke="rgb(0%,0%,0%)" x1="58.1166353774" x2="55.7026652446" y1="373.206986025" y2="376.944796286" /><line stroke="rgb(0%,0%,0%)" x1="58.1166353774" x2="58.5204109015" y1="373.206986025" y2="372.464795017" /><line stroke="rgb(0%,0%,0%)" x1="61.374652553" x2="58.5204109015" y1="368.13391724" y2="372.464795017" /><line stroke="rgb(0%,0%,0%)" x1="63.3143258562" x2="61.374652553" y1="363.823466331" y2="368.13391724" /><line stroke="rgb(0%,0%,0%)" x1="75.1333619485" x2="71.2872821187" y1="335.191303493" y2="341.626625475" /><line stroke="rgb(0%,0%,0%)" x1="91.8447711265" x2="82.6025475393" y1="321.061489245" y2="328.64942703" /><line stroke="rgb(0%,0%,0%)" x1="24.2436070863" x2="25.6062133322" y1="451.31287406" y2="442.246387199" /><line stroke="rgb(0%,0%,0%)" x1="24.2436070863" x2="24.9023042388" y1="451.31287406" y2="455.806052913" /><line stroke="rgb(0%,0%,0%)" x1="27.3380309323" x2="25.6062133322" y1="438.934270001" y2="442.246387199" /><line stroke="rgb(0%,0%,0%)" x1="38.9352396829" x2="34.3632199367" y1="422.236668257" y2="427.246683658" /><line stroke="rgb(0%,0%,0%)" x1="43.808110195" x2="42.4045800342" y1="411.063804061" y2="414.746562279" /><line stroke="rgb(0%,0%,0%)" x1="45.2419750744" x2="43.808110195" y1="408.52733859" y2="411.063804061" /><line stroke="rgb(0%,0%,0%)" x1="501.358041182" x2="501.382641787" y1="411.734485566" y2="411.820700902" /><line stroke="rgb(0%,0%,0%)" x1="501.358041182" x2="501.325023743" y1="411.734485566" y2="411.714162225" /><line stroke="rgb(0%,0%,0%)" x1="501.325023743" x2="497.085808181" y1="411.714162225" y2="405.615099985" /><line stroke="rgb(0%,0%,0%)" x1="497.032336446" x2="497.085808181" y1="404.849381387" y2="405.615099985" /><line stroke="rgb(0%,0%,0%)" x1="497.032336446" x2="493.848539133" y1="404.849381387" y2="399.405346407" /><line stroke="rgb(0%,0%,0%)" x1="478.990571579" x2="474.026259574" y1="374.922321812" y2="370.183006637" /><line stroke="rgb(0%,0%,0%)" x1="474.023381872" x2="474.019155988" y1="370.179586241" y2="370.172170596" /><line stroke="rgb(0%,0%,0%)" x1="474.026259574" x2="474.023381872" y1="370.183006637" y2="370.179586241" /><line stroke="rgb(0%,0%,0%)" x1="469.241413462" x2="474.019155988" y1="365.409170468" y2="370.172170596" /><line stroke="rgb(0%,0%,0%)" x1="488.051451313" x2="487.197792095" y1="386.47609363" y2="385.457915247" /><line stroke="rgb(0%,0%,0%)" x1="481.242019865" x2="487.197792095" y1="378.663469144" y2="385.457915247" /><line stroke="rgb(0%,0%,0%)" x1="481.242019865" x2="478.990571579" y1="378.663469144" y2="374.922321812" /><line stroke="rgb(0%,0%,0%)" x1="493.848539133" x2="493.352085883" y1="399.405346407" y2="398.24839119" /><line stroke="rgb(0%,0%,0%)" x1="493.352085883" x2="492.749807219" y1="398.24839119" y2="397.404406067" /><line stroke="rgb(0%,0%,0%)" x1="488.051451313" x2="492.749807219" y1="386.47609363" y2="397.404406067" /><line stroke="rgb(0%,0%,0%)" x1="445.717447063" x2="438.17980782" y1="570.875695203" y2="578.161085215" /><line stroke="rgb(0%,0%,0%)" x1="434.949418201" x2="438.17980782" y1="581.08257024" y2="578.161085215" /><line stroke="rgb(0%,0%,0%)" x1="445.717447063" x2="448.784583007" y1="570.875695203" y2="568.253474333" /><line stroke="rgb(0%,0%,0%)" x1="448.784583007" x2="451.413941193" y1="568.253474333" y2="566.31790777" /><line stroke="rgb(0%,0%,0%)" x1="458.132972875" x2="454.950815062" y1="357.161972709" y2="354.188366861" /><line stroke="rgb(0%,0%,0%)" x1="462.806384553" x2="458.132972875" y1="360.330077807" y2="357.161972709" /><line stroke="rgb(0%,0%,0%)" x1="454.950815062" x2="453.311739919" y1="354.188366861" y2="352.411875469" /><line stroke="rgb(0%,0%,0%)" x1="469.241413462" x2="462.806384553" y1="365.409170468" y2="360.330077807" /><line stroke="rgb(0%,0%,0%)" x1="381.500612774" x2="391.242448652" y1="623.138243316" y2="620.121427589" /><line stroke="rgb(0%,0%,0%)" x1="402.3790873" x2="393.413678927" y1="615.828708129" y2="619.532013123" /><line stroke="rgb(0%,0%,0%)" x1="402.3790873" x2="408.665660929" y1="615.828708129" y2="613.567717689" /><line stroke="rgb(0%,0%,0%)" x1="408.665660929" x2="412.78544004" y1="613.567717689" y2="610.495548046" /><line stroke="rgb(0%,0%,0%)" x1="412.78544004" x2="418.397482627" y1="610.495548046" y2="606.717642809" /><line stroke="rgb(0%,0%,0%)" x1="418.397482627" x2="422.126279232" y1="606.717642809" y2="602.835178569" /><line stroke="rgb(0%,0%,0%)" x1="425.635487826" x2="422.126279232" y1="598.67312971" y2="602.835178569" /><line stroke="rgb(0%,0%,0%)" x1="432.920525483" x2="434.322629632" y1="584.638075762" y2="581.833443103" /><line stroke="rgb(0%,0%,0%)" x1="425.635487826" x2="432.920525483" y1="598.67312971" y2="584.638075762" /><line stroke="rgb(0%,0%,0%)" x1="434.322629632" x2="434.949418201" y1="581.833443103" y2="581.08257024" /><line stroke="rgb(0%,0%,0%)" x1="365.485487816" x2="367.325448705" y1="629.894798685" y2="629.09440947" /><line stroke="rgb(0%,0%,0%)" x1="372.568166296" x2="375.328496691" y1="626.994274563" y2="625.557746267" /><line stroke="rgb(0%,0%,0%)" x1="381.500612774" x2="375.328496691" y1="623.138243316" y2="625.557746267" /><line stroke="rgb(0%,0%,0%)" x1="393.038570774" x2="393.413678927" y1="619.519974275" y2="619.532013123" /><line stroke="rgb(0%,0%,0%)" x1="391.242448652" x2="393.038570774" y1="620.121427589" y2="619.519974275" /><line stroke="rgb(0%,0%,0%)" x1="335.231217167" x2="336.110779309" y1="638.048006857" y2="637.056382785" /><line stroke="rgb(0%,0%,0%)" x1="335.231217167" x2="332.478720039" y1="638.048006857" y2="639.211301744" /><line stroke="rgb(0%,0%,0%)" x1="341.481492971" x2="338.702202262" y1="632.523732718" y2="634.082648301" /><line stroke="rgb(0%,0%,0%)" x1="336.110779309" x2="338.702202262" y1="637.056382785" y2="634.082648301" /><line stroke="rgb(0%,0%,0%)" x1="342.506210907" x2="341.481492971" y1="632.647880335" y2="632.523732718" /><line stroke="rgb(0%,0%,0%)" x1="344.609816714" x2="351.685326922" y1="631.988149124" y2="631.588264269" /><line stroke="rgb(0%,0%,0%)" x1="357.953700007" x2="351.685326922" y1="630.646053796" y2="631.588264269" /><line stroke="rgb(0%,0%,0%)" x1="342.506210907" x2="344.609816714" y1="632.647880335" y2="631.988149124" /><line stroke="rgb(0%,0%,0%)" x1="357.953700007" x2="365.485487816" y1="630.646053796" y2="629.894798685" /><line stroke="rgb(0%,0%,0%)" x1="367.325448705" x2="372.568166296" y1="629.09440947" y2="626.994274563" /><line stroke="rgb(0%,0%,0%)" x1="308.440055578" x2="309.541624364" y1="662.159328533" y2="660.199860791" /><line stroke="rgb(0%,0%,0%)" x1="302.749406492" x2="308.440055578" y1="669.1011795" y2="662.159328533" /><line stroke="rgb(0%,0%,0%)" x1="311.912053786" x2="316.79668483" y1="650.4781878" y2="646.329158418" /><line stroke="rgb(0%,0%,0%)" x1="320.110048313" x2="316.79668483" y1="643.101285468" y2="646.329158418" /><line stroke="rgb(0%,0%,0%)" x1="325.122306414" x2="320.110048313" y1="641.89479032" y2="643.101285468" /><line stroke="rgb(0%,0%,0%)" x1="309.541624364" x2="310.019391601" y1="660.199860791" y2="658.722646739" /><line stroke="rgb(0%,0%,0%)" x1="311.912053786" x2="310.019391601" y1="650.4781878" y2="658.722646739" /><line stroke="rgb(0%,0%,0%)" x1="326.798020643" x2="328.56498841" y1="641.370088872" y2="640.586125681" /><line stroke="rgb(0%,0%,0%)" x1="325.122306414" x2="326.798020643" y1="641.89479032" y2="641.370088872" /><line stroke="rgb(0%,0%,0%)" x1="328.56498841" x2="330.03868085" y1="640.586125681" y2="640.53733798" /><line stroke="rgb(0%,0%,0%)" x1="330.03868085" x2="332.478720039" y1="640.53733798" y2="639.211301744" /><line stroke="rgb(0%,0%,0%)" x1="255.882689138" x2="254.13877717" y1="645.128343682" y2="644.091477207" /><line stroke="rgb(0%,0%,0%)" x1="247.78829818" x2="254.13877717" y1="644.11016323" y2="644.091477207" /><line stroke="rgb(0%,0%,0%)" x1="247.117116045" x2="244.65755289" y1="644.26257431" y2="643.942239904" /><line stroke="rgb(0%,0%,0%)" x1="247.117116045" x2="247.78829818" y1="644.26257431" y2="644.11016323" /><line stroke="rgb(0%,0%,0%)" x1="271.072180892" x2="281.657136937" y1="697.153702113" y2="695.334633388" /><line stroke="rgb(0%,0%,0%)" x1="264.299160913" x2="271.072180892" y1="694.957227311" y2="697.153702113" /><line stroke="rgb(0%,0%,0%)" x1="258.590054131" x2="264.299160913" y1="687.302684956" y2="694.957227311" /><line stroke="rgb(0%,0%,0%)" x1="258.590054131" x2="258.196092054" y1="687.302684956" y2="685.163436127" /><line stroke="rgb(0%,0%,0%)" x1="255.882689138" x2="256.520412851" y1="645.128343682" y2="646.062774486" /><line stroke="rgb(0%,0%,0%)" x1="293.84296771" x2="293.492972864" y1="690.894112263" y2="678.289041749" /><line stroke="rgb(0%,0%,0%)" x1="286.699771276" x2="289.680738134" y1="694.659270115" y2="693.627984528" /><line stroke="rgb(0%,0%,0%)" x1="289.680738134" x2="293.84296771" y1="693.627984528" y2="690.894112263" /><line stroke="rgb(0%,0%,0%)" x1="281.657136937" x2="286.699771276" y1="695.334633388" y2="694.659270115" /><line stroke="rgb(0%,0%,0%)" x1="293.492972864" x2="292.541584547" y1="678.289041749" y2="675.950105519" /><line stroke="rgb(0%,0%,0%)" x1="297.774246612" x2="292.541584547" y1="672.729124391" y2="675.950105519" /><line stroke="rgb(0%,0%,0%)" x1="297.774246612" x2="302.749406492" y1="672.729124391" y2="669.1011795" /><line stroke="rgb(0%,0%,0%)" x1="200.823447257" x2="202.667144567" y1="634.779558965" y2="635.344727094" /><line stroke="rgb(0%,0%,0%)" x1="217.392770133" x2="218.0972999" y1="639.916919115" y2="640.05197143" /><line stroke="rgb(0%,0%,0%)" x1="217.392770133" x2="214.515519223" y1="639.916919115" y2="638.969247905" /><line stroke="rgb(0%,0%,0%)" x1="228.440733046" x2="233.252337933" y1="642.157400751" y2="642.051321892" /><line stroke="rgb(0%,0%,0%)" x1="218.0972999" x2="221.723600373" y1="640.05197143" y2="640.470020889" /><line stroke="rgb(0%,0%,0%)" x1="251.709265008" x2="251.774244177" y1="662.31058382" y2="662.417893657" /><line stroke="rgb(0%,0%,0%)" x1="253.40801969" x2="251.829406882" y1="656.882706696" y2="661.942938381" /><line stroke="rgb(0%,0%,0%)" x1="252.78465251" x2="253.40801969" y1="656.47818447" y2="656.882706696" /><line stroke="rgb(0%,0%,0%)" x1="253.376382996" x2="252.78465251" y1="655.640744095" y2="656.47818447" /><line stroke="rgb(0%,0%,0%)" x1="237.614857851" x2="244.65755289" y1="642.604022581" y2="643.942239904" /><line stroke="rgb(0%,0%,0%)" x1="233.252337933" x2="237.614857851" y1="642.051321892" y2="642.604022581" /><line stroke="rgb(0%,0%,0%)" x1="259.13787167" x2="258.196092054" y1="680.641796868" y2="685.163436127" /><line stroke="rgb(0%,0%,0%)" x1="260.027414378" x2="259.13787167" y1="675.581974011" y2="680.641796868" /><line stroke="rgb(0%,0%,0%)" x1="259.947760012" x2="260.027414378" y1="673.981017458" y2="675.581974011" /><line stroke="rgb(0%,0%,0%)" x1="259.947760012" x2="253.18695797" y1="673.981017458" y2="668.717496804" /><line stroke="rgb(0%,0%,0%)" x1="253.083018966" x2="253.18695797" y1="667.836686283" y2="668.717496804" /><line stroke="rgb(0%,0%,0%)" x1="251.774244177" x2="253.083018966" y1="662.417893657" y2="667.836686283" /><line stroke="rgb(0%,0%,0%)" x1="251.829406882" x2="251.709265008" y1="661.942938381" y2="662.31058382" /><line stroke="rgb(0%,0%,0%)" x1="253.376382996" x2="257.360893869" y1="655.640744095" y2="651.265931579" /><line stroke="rgb(0%,0%,0%)" x1="256.520412851" x2="257.099468152" y1="646.062774486" y2="647.798161282" /><line stroke="rgb(0%,0%,0%)" x1="257.099468152" x2="257.360893869" y1="647.798161282" y2="651.265931579" /><line stroke="rgb(0%,0%,0%)" x1="187.954241521" x2="183.060958202" y1="631.64849693" y2="629.977639878" /><line stroke="rgb(0%,0%,0%)" x1="187.954241521" x2="188.928872625" y1="631.64849693" y2="631.991856186" /><line stroke="rgb(0%,0%,0%)" x1="200.823447257" x2="199.381197878" y1="634.779558965" y2="634.364384155" /><line stroke="rgb(0%,0%,0%)" x1="207.677090803" x2="209.199470403" y1="636.402539484" y2="637.160388826" /><line stroke="rgb(0%,0%,0%)" x1="202.667144567" x2="207.677090803" y1="635.344727094" y2="636.402539484" /><line stroke="rgb(0%,0%,0%)" x1="209.199470403" x2="214.515519223" y1="637.160388826" y2="638.969247905" /><line stroke="rgb(0%,0%,0%)" x1="221.723600373" x2="227.110689034" y1="640.470020889" y2="641.830450377" /><line stroke="rgb(0%,0%,0%)" x1="227.110689034" x2="228.440733046" y1="641.830450377" y2="642.157400751" /><line stroke="rgb(0%,0%,0%)" x1="94.8962148445" x2="94.5658920117" y1="604.090427851" y2="603.852586609" /><line stroke="rgb(0%,0%,0%)" x1="95.1796801133" x2="95.9210324591" y1="604.183937679" y2="604.502620363" /><line stroke="rgb(0%,0%,0%)" x1="95.1796801133" x2="94.8962148445" y1="604.183937679" y2="604.090427851" /><line stroke="rgb(0%,0%,0%)" x1="146.950695698" x2="155.992907245" y1="618.893075447" y2="621.701982377" /><line stroke="rgb(0%,0%,0%)" x1="170.369867628" x2="183.060958202" y1="625.478457644" y2="629.977639878" /><line stroke="rgb(0%,0%,0%)" x1="188.928872625" x2="191.24041669" y1="631.991856186" y2="631.805627892" /><line stroke="rgb(0%,0%,0%)" x1="191.24041669" x2="199.381197878" y1="631.805627892" y2="634.364384155" /><line stroke="rgb(0%,0%,0%)" x1="107.002761717" x2="116.484052085" y1="608.519317964" y2="612.295901525" /><line stroke="rgb(0%,0%,0%)" x1="95.9210324591" x2="107.002761717" y1="604.502620363" y2="608.519317964" /><line stroke="rgb(0%,0%,0%)" x1="116.484052085" x2="122.346620085" y1="612.295901525" y2="613.429012809" /><line stroke="rgb(0%,0%,0%)" x1="122.346620085" x2="140.088323968" y1="613.429012809" y2="617.736719002" /><line stroke="rgb(0%,0%,0%)" x1="146.950695698" x2="140.088323968" y1="618.893075447" y2="617.736719002" /><line stroke="rgb(0%,0%,0%)" x1="155.992907245" x2="164.401160066" y1="621.701982377" y2="623.992890139" /><line stroke="rgb(0%,0%,0%)" x1="164.401160066" x2="168.761410313" y1="623.992890139" y2="625.195812857" /><line stroke="rgb(0%,0%,0%)" x1="168.761410313" x2="170.369867628" y1="625.195812857" y2="625.478457644" /><line stroke="rgb(0%,0%,0%)" x1="66.1344806197" x2="68.4141057325" y1="570.457582688" y2="573.5248917" /><line stroke="rgb(0%,0%,0%)" x1="66.1344806197" x2="64.8453125651" y1="570.457582688" y2="566.946458188" /><line stroke="rgb(0%,0%,0%)" x1="85.1340965529" x2="94.5658920117" y1="594.941305357" y2="603.852586609" /><line stroke="rgb(0%,0%,0%)" x1="85.1340965529" x2="75.3320871946" y1="594.941305357" y2="586.434579307" /><line stroke="rgb(0%,0%,0%)" x1="73.8196813093" x2="75.3320871946" y1="584.857493527" y2="586.434579307" /><line stroke="rgb(0%,0%,0%)" x1="23.5811589863" x2="24.3233365649" y1="475.391300769" y2="477.034794621" /><line stroke="rgb(0%,0%,0%)" x1="23.5811589863" x2="24.5252016658" y1="475.391300769" y2="469.189248171" /><line stroke="rgb(0%,0%,0%)" x1="42.9037814302" x2="46.7887116051" y1="510.597997512" y2="517.562509705" /><line stroke="rgb(0%,0%,0%)" x1="39.0538833666" x2="39.0685337056" y1="499.751126064" y2="501.539588474" /><line stroke="rgb(0%,0%,0%)" x1="61.3578383392" x2="59.9006231131" y1="556.779016697" y2="553.298567799" /><line stroke="rgb(0%,0%,0%)" x1="61.3578383392" x2="63.145789208" y1="556.779016697" y2="559.199921761" /><line stroke="rgb(0%,0%,0%)" x1="58.6992560164" x2="59.9006231131" y1="550.355040203" y2="553.298567799" /><line stroke="rgb(0%,0%,0%)" x1="57.7086993978" x2="55.5343811145" y1="549.039842065" y2="546.042958749" /><line stroke="rgb(0%,0%,0%)" x1="57.7086993978" x2="58.6992560164" y1="549.039842065" y2="550.355040203" /><line stroke="rgb(0%,0%,0%)" x1="54.0289217768" x2="53.735059988" y1="538.977217077" y2="543.116048642" /><line stroke="rgb(0%,0%,0%)" x1="54.1694117735" x2="54.0289217768" y1="532.032950021" y2="538.977217077" /><line stroke="rgb(0%,0%,0%)" x1="54.1694117735" x2="55.7130095559" y1="532.032950021" y2="529.081471842" /><line stroke="rgb(0%,0%,0%)" x1="56.4035569399" x2="56.827264353" y1="525.622363982" y2="526.539943939" /><line stroke="rgb(0%,0%,0%)" x1="56.4035569399" x2="54.2054596607" y1="525.622363982" y2="524.090087419" /><line stroke="rgb(0%,0%,0%)" x1="46.7887116051" x2="54.2054596607" y1="517.562509705" y2="524.090087419" /><line stroke="rgb(0%,0%,0%)" x1="69.6919934557" x2="72.7136899693" y1="577.354937646" y2="583.384463303" /><line stroke="rgb(0%,0%,0%)" x1="73.3528983473" x2="73.8196813093" y1="584.320392244" y2="584.857493527" /><line stroke="rgb(0%,0%,0%)" x1="72.7136899693" x2="73.3528983473" y1="583.384463303" y2="584.320392244" /><line stroke="rgb(0%,0%,0%)" x1="68.4141057325" x2="69.6919934557" y1="573.5248917" y2="577.354937646" /><line stroke="rgb(0%,0%,0%)" x1="64.6741756992" x2="64.8453125651" y1="562.964309957" y2="566.946458188" /><line stroke="rgb(0%,0%,0%)" x1="63.145789208" x2="64.6741756992" y1="559.199921761" y2="562.964309957" /><line stroke="rgb(0%,0%,0%)" x1="30.8239814267" x2="32.7194960939" y1="489.403207803" y2="491.886158689" /><line stroke="rgb(0%,0%,0%)" x1="30.3872003445" x2="30.8239814267" y1="486.932459005" y2="489.403207803" /><line stroke="rgb(0%,0%,0%)" x1="30.3872003445" x2="29.0293172999" y1="486.932459005" y2="483.140132789" /><line stroke="rgb(0%,0%,0%)" x1="32.7194960939" x2="35.6876172948" y1="491.886158689" y2="494.911290886" /><line stroke="rgb(0%,0%,0%)" x1="27.0797560107" x2="25.0823082481" y1="461.189469304" y2="464.860424826" /><line stroke="rgb(0%,0%,0%)" x1="25.0823082481" x2="25.0598324385" y1="464.860424826" y2="465.049891972" /><line stroke="rgb(0%,0%,0%)" x1="39.7756977623" x2="42.9037814302" y1="504.621148402" y2="510.597997512" /><line stroke="rgb(0%,0%,0%)" x1="39.0685337056" x2="39.7756977623" y1="501.539588474" y2="504.621148402" /><line stroke="rgb(0%,0%,0%)" x1="38.1266112414" x2="39.0538833666" y1="496.110200456" y2="499.751126064" /><line stroke="rgb(0%,0%,0%)" x1="38.1266112414" x2="35.6876172948" y1="496.110200456" y2="494.911290886" /><line stroke="rgb(0%,0%,0%)" x1="54.1471156245" x2="55.5343811145" y1="544.019950212" y2="546.042958749" /><line stroke="rgb(0%,0%,0%)" x1="53.735059988" x2="54.1471156245" y1="543.116048642" y2="544.019950212" /><line stroke="rgb(0%,0%,0%)" x1="56.827264353" x2="55.7130095559" y1="526.539943939" y2="529.081471842" /><line stroke="rgb(0%,0%,0%)" x1="28.9929239903" x2="29.0293172999" y1="483.025441878" y2="483.140132789" /><line stroke="rgb(0%,0%,0%)" x1="26.2093375314" x2="28.9929239903" y1="480.460229988" y2="483.025441878" /><line stroke="rgb(0%,0%,0%)" x1="24.3233365649" x2="26.2093375314" y1="477.034794621" y2="480.460229988" /><line stroke="rgb(0%,0%,0%)" x1="24.8564179828" x2="24.5252016658" y1="465.652454368" y2="469.189248171" /><line stroke="rgb(0%,0%,0%)" x1="25.0598324385" x2="24.8564179828" y1="465.049891972" y2="465.652454368" /><line stroke="rgb(0%,0%,0%)" x1="466.807291839" x2="468.293282106" y1="555.497032437" y2="554.408803663" /><line stroke="rgb(0%,0%,0%)" x1="468.293282106" x2="474.970195581" y1="554.408803663" y2="546.988420564" /><line stroke="rgb(0%,0%,0%)" x1="474.970195581" x2="476.443498055" y1="546.988420564" y2="545.368243915" /><line stroke="rgb(0%,0%,0%)" x1="476.443498055" x2="478.041874527" y1="545.368243915" y2="542.59566594" /><line stroke="rgb(0%,0%,0%)" x1="478.041874527" x2="481.201654078" y1="542.59566594" y2="538.402966557" /><line stroke="rgb(0%,0%,0%)" x1="481.201654078" x2="486.030872648" y1="538.402966557" y2="534.20256299" /><line stroke="rgb(0%,0%,0%)" x1="486.030872648" x2="488.526744835" y1="534.20256299" y2="530.110660846" /><line stroke="rgb(0%,0%,0%)" x1="489.136068618" x2="488.526744835" y1="528.800178831" y2="530.110660846" /><line stroke="rgb(0%,0%,0%)" x1="489.895849293" x2="491.352428617" y1="527.24646996" y2="523.164999113" /><line stroke="rgb(0%,0%,0%)" x1="489.136068618" x2="489.895849293" y1="528.800178831" y2="527.24646996" /><line stroke="rgb(0%,0%,0%)" x1="491.352428617" x2="492.32461661" y1="523.164999113" y2="521.939637947" /><line stroke="rgb(0%,0%,0%)" x1="494.613250407" x2="492.32461661" y1="516.55052178" y2="521.939637947" /><line stroke="rgb(0%,0%,0%)" x1="494.613250407" x2="498.884395414" y1="516.55052178" y2="511.615225713" /><line stroke="rgb(0%,0%,0%)" x1="498.884395414" x2="505.967665794" y1="511.615225713" y2="500.441827176" /><line stroke="rgb(0%,0%,0%)" x1="507.751188181" x2="505.967665794" y1="497.318041598" y2="500.441827176" /><line stroke="rgb(0%,0%,0%)" x1="507.751188181" x2="510.807217326" y1="497.318041598" y2="491.739861832" /><line stroke="rgb(0%,0%,0%)" x1="510.807217326" x2="512.190231135" y1="491.739861832" y2="488.444588267" /><line stroke="rgb(0%,0%,0%)" x1="512.190231135" x2="512.27877774" y1="488.444588267" y2="487.929249109" /><line stroke="rgb(0%,0%,0%)" x1="512.27877774" x2="512.855487943" y1="487.929249109" y2="486.2773933" /><line stroke="rgb(0%,0%,0%)" x1="515.804270693" x2="512.855487943" y1="473.51906075" y2="486.2773933" /><line stroke="rgb(0%,0%,0%)" x1="515.804270693" x2="516.452246185" y1="473.51906075" y2="468.616463943" /><line stroke="rgb(0%,0%,0%)" x1="516.452246185" x2="516.513322448" y1="468.616463943" y2="464.072644711" /><line stroke="rgb(0%,0%,0%)" x1="516.513322448" x2="515.975606671" y1="464.072644711" y2="459.141919707" /><line stroke="rgb(0%,0%,0%)" x1="451.413941193" x2="453.058399551" y1="566.31790777" y2="565.20187704" /><line stroke="rgb(0%,0%,0%)" x1="453.058399551" x2="454.449749315" y1="565.20187704" y2="564.127074718" /><line stroke="rgb(0%,0%,0%)" x1="454.449749315" x2="456.165101049" y1="564.127074718" y2="562.95548599" /><line stroke="rgb(0%,0%,0%)" x1="456.165101049" x2="461.301123595" y1="562.95548599" y2="559.348832583" /><line stroke="rgb(0%,0%,0%)" x1="466.807291839" x2="461.301123595" y1="555.497032437" y2="559.348832583" /><line stroke="rgb(0%,0%,0%)" x1="25.1428191917" x2="27.0797560107" y1="456.341486878" y2="461.189469304" /><line stroke="rgb(0%,0%,0%)" x1="24.9592326694" x2="25.1428191917" y1="455.909833425" y2="456.341486878" /><line stroke="rgb(0%,0%,0%)" x1="509.623874989" x2="501.382641787" y1="425.42078165" y2="411.820700902" /></svg>