<?xml version="1.0" encoding="utf-8" ?>
<svg baseProfile="full" height="100%" version="1.1" viewBox="0.5 0.5 685.793960571 941.299331665" width="100%" xmlns="http://www.w3.org/2000/svg" xmlns:ev="http://www.w3.org/2001/xml-events" xmlns:xlink="http://www.w3.org/1999/xlink"><defs /><line stroke="rgb(0%,0%,0%)" x1="508.6679352" x2="503.742308152" y1="412.883930576" y2="403.247817314" /><line stroke="rgb(0%,0%,0%)" x1="503.742308152" x2="498.759064962" y1="403.247817314" y2="393.421696078" /><line stroke="rgb(0%,0%,0%)" x1="519.485246395" x2="520.249086624" y1="440.644011907" y2="444.899589646" /><line stroke="rgb(0%,0%,0%)" x1="519.485246395" x2="517.39210798" y1="440.644011907" y2="437.795116228" /><line stroke="rgb(0%,0%,0%)" x1="512.261988956" x2="515.614411563" y1="422.153904794" y2="433.481316209" /><line stroke="rgb(0%,0%,0%)" x1="516.996540798" x2="515.614411563" y1="436.637658821" y2="433.481316209" /><line stroke="rgb(0%,0%,0%)" x1="512.261988956" x2="509.460282679" y1="422.153904794" y2="415.788445545" /><line stroke="rgb(0%,0%,0%)" x1="509.460282679" x2="509.392126487" y1="415.788445545" y2="415.624795719" /><line stroke="rgb(0%,0%,0%)" x1="508.6679352" x2="509.392126487" y1="412.883930576" y2="415.624795719" /><line stroke="rgb(0%,0%,0%)" x1="521.209726372" x2="520.842754576" y1="459.37610191" y2="454.523698967" /><line stroke="rgb(0%,0%,0%)" x1="520.842754576" x2="520.683310304" y1="454.523698967" y2="449.50624013" /><line stroke="rgb(0%,0%,0%)" x1="520.249086624" x2="520.683310304" y1="444.899589646" y2="449.50624013" /><line stroke="rgb(0%,0%,0%)" x1="517.39210798" x2="516.996540798" y1="437.795116228" y2="436.637658821" /><line stroke="rgb(0%,0%,0%)" x1="498.759064962" x2="498.47021738" y1="393.421696078" y2="392.850233655" /><line stroke="rgb(0%,0%,0%)" x1="498.47021738" x2="498.357566257" y1="392.850233655" y2="392.648537036" /><line stroke="rgb(0%,0%,0%)" x1="443.275973345" x2="437.947383415" y1="335.148745639" y2="330.103936616" /><line stroke="rgb(0%,0%,0%)" x1="432.054224565" x2="437.060675146" y1="320.876573011" y2="329.145614761" /><line stroke="rgb(0%,0%,0%)" x1="452.475009004" x2="449.04163919" y1="344.454776578" y2="341.715112536" /><line stroke="rgb(0%,0%,0%)" x1="449.04163919" x2="443.275973345" y1="341.715112536" y2="335.148745639" /><line stroke="rgb(0%,0%,0%)" x1="395.236928558" x2="396.450878284" y1="291.508224047" y2="291.777376844" /><line stroke="rgb(0%,0%,0%)" x1="395.236928558" x2="389.168323568" y1="291.508224047" y2="288.824179081" /><line stroke="rgb(0%,0%,0%)" x1="389.168323568" x2="388.133342878" y1="288.824179081" y2="286.149572418" /><line stroke="rgb(0%,0%,0%)" x1="403.047094553" x2="411.409699316" y1="292.576522526" y2="297.662156883" /><line stroke="rgb(0%,0%,0%)" x1="423.792752812" x2="412.879331394" y1="307.506593596" y2="298.703890432" /><line stroke="rgb(0%,0%,0%)" x1="412.879331394" x2="411.768587355" y1="298.703890432" y2="298.018029581" /><line stroke="rgb(0%,0%,0%)" x1="411.768587355" x2="411.409699316" y1="298.018029581" y2="297.662156883" /><line stroke="rgb(0%,0%,0%)" x1="432.054224565" x2="427.722000122" y1="320.876573011" y2="312.488759178" /><line stroke="rgb(0%,0%,0%)" x1="427.722000122" x2="425.678908112" y1="312.488759178" y2="309.454489256" /><line stroke="rgb(0%,0%,0%)" x1="425.678908112" x2="423.792752812" y1="309.454489256" y2="307.506593596" /><line stroke="rgb(0%,0%,0%)" x1="437.947383415" x2="437.474311485" y1="330.103936616" y2="329.634824992" /><line stroke="rgb(0%,0%,0%)" x1="437.474311485" x2="437.060675146" y1="329.634824992" y2="329.145614761" /><line stroke="rgb(0%,0%,0%)" x1="352.651672209" x2="358.341999702" y1="272.906901253" y2="273.684910973" /><line stroke="rgb(0%,0%,0%)" x1="364.052548328" x2="367.759409852" y1="274.286580257" y2="275.63731708" /><line stroke="rgb(0%,0%,0%)" x1="382.761278965" x2="378.643000616" y1="281.888125001" y2="279.610377273" /><line stroke="rgb(0%,0%,0%)" x1="382.761278965" x2="386.192716609" y1="281.888125001" y2="284.108644688" /><line stroke="rgb(0%,0%,0%)" x1="376.634285347" x2="370.784246571" y1="279.02756166" y2="277.62686824" /><line stroke="rgb(0%,0%,0%)" x1="378.643000616" x2="376.634285347" y1="279.610377273" y2="279.02756166" /><line stroke="rgb(0%,0%,0%)" x1="370.784246571" x2="370.229988701" y1="277.62686824" y2="276.998887735" /><line stroke="rgb(0%,0%,0%)" x1="370.229988701" x2="367.759409852" y1="276.998887735" y2="275.63731708" /><line stroke="rgb(0%,0%,0%)" x1="388.133342878" x2="387.310128028" y1="286.149572418" y2="285.171631285" /><line stroke="rgb(0%,0%,0%)" x1="387.310128028" x2="386.192716609" y1="285.171631285" y2="284.108644688" /><line stroke="rgb(0%,0%,0%)" x1="403.047094553" x2="396.450878284" y1="292.576522526" y2="291.777376844" /><line stroke="rgb(0%,0%,0%)" x1="328.479976629" x2="336.319020301" y1="245.05860795" y2="247.349865627" /><line stroke="rgb(0%,0%,0%)" x1="328.479976629" x2="325.169071394" y1="245.05860795" y2="241.565230848" /><line stroke="rgb(0%,0%,0%)" x1="350.457236057" x2="350.26454442" y1="271.063964746" y2="270.520285313" /><line stroke="rgb(0%,0%,0%)" x1="348.679439474" x2="348.841765297" y1="258.455608175" y2="261.842875585" /><line stroke="rgb(0%,0%,0%)" x1="348.679439474" x2="347.276321193" y1="258.455608175" y2="255.512531336" /><line stroke="rgb(0%,0%,0%)" x1="342.689694165" x2="336.319020301" y1="250.270207193" y2="247.349865627" /><line stroke="rgb(0%,0%,0%)" x1="352.651672209" x2="350.457236057" y1="272.906901253" y2="271.063964746" /><line stroke="rgb(0%,0%,0%)" x1="350.26454442" x2="348.841765297" y1="270.520285313" y2="261.842875585" /><line stroke="rgb(0%,0%,0%)" x1="347.276321193" x2="344.795466988" y1="255.512531336" y2="251.406682953" /><line stroke="rgb(0%,0%,0%)" x1="344.795466988" x2="342.689694165" y1="251.406682953" y2="250.270207193" /><line stroke="rgb(0%,0%,0%)" x1="364.052548328" x2="360.429840419" y1="274.286580257" y2="274.012712807" /><line stroke="rgb(0%,0%,0%)" x1="360.429840419" x2="358.341999702" y1="274.012712807" y2="273.684910973" /><line stroke="rgb(0%,0%,0%)" x1="292.750788237" x2="296.068291529" y1="220.831731155" y2="221.240200521" /><line stroke="rgb(0%,0%,0%)" x1="306.993051915" x2="305.034341336" y1="224.656395154" y2="223.650982916" /><line stroke="rgb(0%,0%,0%)" x1="314.745146097" x2="306.993051915" y1="229.72916887" y2="224.656395154" /><line stroke="rgb(0%,0%,0%)" x1="305.034341336" x2="296.068291529" y1="223.650982916" y2="221.240200521" /><line stroke="rgb(0%,0%,0%)" x1="314.745146097" x2="323.411101849" y1="229.72916887" y2="239.478831866" /><line stroke="rgb(0%,0%,0%)" x1="325.169071394" x2="323.411101849" y1="241.565230848" y2="239.478831866" /><line stroke="rgb(0%,0%,0%)" x1="212.452486659" x2="213.719540417" y1="272.870402337" y2="272.862799689" /><line stroke="rgb(0%,0%,0%)" x1="212.452486659" x2="212.119724393" y1="272.870402337" y2="272.861373473" /><line stroke="rgb(0%,0%,0%)" x1="212.119724393" x2="211.75331334" y1="272.861373473" y2="272.816208091" /><line stroke="rgb(0%,0%,0%)" x1="247.908132003" x2="248.320267089" y1="260.455965918" y2="259.048520224" /><line stroke="rgb(0%,0%,0%)" x1="253.292254387" x2="251.094287518" y1="241.122447059" y2="237.201947042" /><line stroke="rgb(0%,0%,0%)" x1="253.292254387" x2="251.03587031" y1="241.122447059" y2="245.487368412" /><line stroke="rgb(0%,0%,0%)" x1="254.8234526" x2="257.17095236" y1="226.1233464" y2="224.616123759" /><line stroke="rgb(0%,0%,0%)" x1="254.8234526" x2="252.90898557" y1="226.1233464" y2="227.973706621" /><line stroke="rgb(0%,0%,0%)" x1="273.12983891" x2="257.17095236" y1="218.63137092" y2="224.616123759" /><line stroke="rgb(0%,0%,0%)" x1="277.83337732" x2="273.12983891" y1="219.407014151" y2="218.63137092" /><line stroke="rgb(0%,0%,0%)" x1="292.750788237" x2="277.83337732" y1="220.831731155" y2="219.407014151" /><line stroke="rgb(0%,0%,0%)" x1="150.046112046" x2="149.825576108" y1="286.350669583" y2="286.455904398" /><line stroke="rgb(0%,0%,0%)" x1="150.046112046" x2="150.714202409" y1="286.350669583" y2="286.096780289" /><line stroke="rgb(0%,0%,0%)" x1="213.719540417" x2="214.945214878" y1="272.862799689" y2="272.786551094" /><line stroke="rgb(0%,0%,0%)" x1="228.491728462" x2="232.292267293" y1="272.133661023" y2="271.885879921" /><line stroke="rgb(0%,0%,0%)" x1="228.491728462" x2="226.226396475" y1="272.133661023" y2="271.864999466" /><line stroke="rgb(0%,0%,0%)" x1="226.226396475" x2="225.728729542" y1="271.864999466" y2="271.702364734" /><line stroke="rgb(0%,0%,0%)" x1="237.993449288" x2="235.189971666" y1="271.972209831" y2="271.97074885" /><line stroke="rgb(0%,0%,0%)" x1="238.723562952" x2="242.83881528" y1="272.193418245" y2="272.473975438" /><line stroke="rgb(0%,0%,0%)" x1="235.189971666" x2="232.292267293" y1="271.97074885" y2="271.885879921" /><line stroke="rgb(0%,0%,0%)" x1="238.723562952" x2="237.993449288" y1="272.193418245" y2="271.972209831" /><line stroke="rgb(0%,0%,0%)" x1="245.509423325" x2="242.83881528" y1="272.215036959" y2="272.473975438" /><line stroke="rgb(0%,0%,0%)" x1="248.63781359" x2="248.076558199" y1="269.744753899" y2="270.753275219" /><line stroke="rgb(0%,0%,0%)" x1="250.966679532" x2="248.320267089" y1="252.471099293" y2="259.048520224" /><line stroke="rgb(0%,0%,0%)" x1="248.520198996" x2="248.076558199" y1="272.339583885" y2="270.753275219" /><line stroke="rgb(0%,0%,0%)" x1="247.02497916" x2="248.520198996" y1="272.672844846" y2="272.339583885" /><line stroke="rgb(0%,0%,0%)" x1="247.02497916" x2="245.509423325" y1="272.672844846" y2="272.215036959" /><line stroke="rgb(0%,0%,0%)" x1="247.908132003" x2="247.239234312" y1="260.455965918" y2="262.158813068" /><line stroke="rgb(0%,0%,0%)" x1="250.756432602" x2="250.966679532" y1="252.207059204" y2="252.471099293" /><line stroke="rgb(0%,0%,0%)" x1="251.03587031" x2="250.756432602" y1="245.487368412" y2="252.207059204" /><line stroke="rgb(0%,0%,0%)" x1="251.730744018" x2="251.094287518" y1="233.672450893" y2="237.201947042" /><line stroke="rgb(0%,0%,0%)" x1="252.90898557" x2="251.730744018" y1="227.973706621" y2="233.672450893" /><line stroke="rgb(0%,0%,0%)" x1="185.645986323" x2="185.860445148" y1="275.165720903" y2="275.078969406" /><line stroke="rgb(0%,0%,0%)" x1="185.645986323" x2="178.522868067" y1="275.165720903" y2="276.359238197" /><line stroke="rgb(0%,0%,0%)" x1="178.522868067" x2="174.61948941" y1="276.359238197" y2="277.399999363" /><line stroke="rgb(0%,0%,0%)" x1="185.860445148" x2="186.37142082" y1="275.078969406" y2="274.963454415" /><line stroke="rgb(0%,0%,0%)" x1="201.160084951" x2="202.095384039" y1="273.666839027" y2="273.576752987" /><line stroke="rgb(0%,0%,0%)" x1="192.695608698" x2="186.37142082" y1="274.551234326" y2="274.963454415" /><line stroke="rgb(0%,0%,0%)" x1="202.095384039" x2="203.631953414" y1="273.576752987" y2="273.425042081" /><line stroke="rgb(0%,0%,0%)" x1="211.75331334" x2="203.631953414" y1="272.816208091" y2="273.425042081" /><line stroke="rgb(0%,0%,0%)" x1="223.833901337" x2="214.945214878" y1="271.888322621" y2="272.786551094" /><line stroke="rgb(0%,0%,0%)" x1="225.728729542" x2="223.833901337" y1="271.702364734" y2="271.888322621" /><line stroke="rgb(0%,0%,0%)" x1="248.779825887" x2="248.63781359" y1="269.75591415" y2="269.744753899" /><line stroke="rgb(0%,0%,0%)" x1="248.779825887" x2="247.093928292" y1="269.75591415" y2="262.97390257" /><line stroke="rgb(0%,0%,0%)" x1="247.094439993" x2="247.093928292" y1="262.807132745" y2="262.97390257" /><line stroke="rgb(0%,0%,0%)" x1="247.239234312" x2="247.094439993" y1="262.158813068" y2="262.807132745" /><line stroke="rgb(0%,0%,0%)" x1="131.937488886" x2="130.699769824" y1="294.858643837" y2="295.318611721" /><line stroke="rgb(0%,0%,0%)" x1="162.662590394" x2="150.714202409" y1="281.702259436" y2="286.096780289" /><line stroke="rgb(0%,0%,0%)" x1="174.61948941" x2="172.788608198" y1="277.399999363" y2="277.899709438" /><line stroke="rgb(0%,0%,0%)" x1="201.160084951" x2="192.695608698" y1="273.666839027" y2="274.551234326" /><line stroke="rgb(0%,0%,0%)" x1="144.106846799" x2="131.937488886" y1="290.329382768" y2="294.858643837" /><line stroke="rgb(0%,0%,0%)" x1="149.825576108" x2="144.106846799" y1="286.455904398" y2="290.329382768" /><line stroke="rgb(0%,0%,0%)" x1="167.403215688" x2="162.662590394" y1="278.944006463" y2="281.702259436" /><line stroke="rgb(0%,0%,0%)" x1="172.788608198" x2="167.403215688" y1="277.899709438" y2="278.944006463" /><line stroke="rgb(0%,0%,0%)" x1="93.7387229175" x2="102.902788301" y1="312.183664593" y2="307.201508168" /><line stroke="rgb(0%,0%,0%)" x1="117.916203022" x2="110.200682218" y1="301.497792196" y2="303.849169361" /><line stroke="rgb(0%,0%,0%)" x1="130.699769824" x2="117.916203022" y1="295.318611721" y2="301.497792196" /><line stroke="rgb(0%,0%,0%)" x1="52.7955905655" x2="52.1355667782" y1="403.312454002" y2="404.179475895" /><line stroke="rgb(0%,0%,0%)" x1="52.7955905655" x2="51.7731368319" y1="403.312454002" y2="400.089453886" /><line stroke="rgb(0%,0%,0%)" x1="51.9413572586" x2="50.9782566362" y1="379.437916305" y2="386.11797454" /><line stroke="rgb(0%,0%,0%)" x1="55.3005565558" x2="54.4590499457" y1="374.432731365" y2="375.730687902" /><line stroke="rgb(0%,0%,0%)" x1="55.3005565558" x2="56.5960220522" y1="374.432731365" y2="372.449242324" /><line stroke="rgb(0%,0%,0%)" x1="61.3743373565" x2="61.0615820353" y1="346.771729351" y2="348.32001585" /><line stroke="rgb(0%,0%,0%)" x1="61.3743373565" x2="62.1461445759" y1="346.771729351" y2="344.278267004" /><line stroke="rgb(0%,0%,0%)" x1="77.2064991131" x2="67.8481106052" y1="326.292594279" y2="334.694985239" /><line stroke="rgb(0%,0%,0%)" x1="67.8481106052" x2="65.1020656327" y1="334.694985239" y2="337.209489321" /><line stroke="rgb(0%,0%,0%)" x1="90.7972451827" x2="81.7711591951" y1="313.959345118" y2="321.290203973" /><line stroke="rgb(0%,0%,0%)" x1="93.7387229175" x2="90.7972451827" y1="312.183664593" y2="313.959345118" /><line stroke="rgb(0%,0%,0%)" x1="107.570589823" x2="102.902788301" y1="305.048464307" y2="307.201508168" /><line stroke="rgb(0%,0%,0%)" x1="110.200682218" x2="107.570589823" y1="303.849169361" y2="305.048464307" /><line stroke="rgb(0%,0%,0%)" x1="52.1355667782" x2="50.3113305369" y1="404.179475895" y2="406.737635058" /><line stroke="rgb(0%,0%,0%)" x1="46.8498249703" x2="50.3113305369" y1="410.615541752" y2="406.737635058" /><line stroke="rgb(0%,0%,0%)" x1="54.4590499457" x2="51.9413572586" y1="375.730687902" y2="379.437916305" /><line stroke="rgb(0%,0%,0%)" x1="58.6079034885" x2="56.5960220522" y1="368.729616293" y2="372.449242324" /><line stroke="rgb(0%,0%,0%)" x1="58.6012094046" x2="58.6079034885" y1="360.418522866" y2="368.729616293" /><line stroke="rgb(0%,0%,0%)" x1="58.6012094046" x2="59.0214856524" y1="360.418522866" y2="357.954336651" /><line stroke="rgb(0%,0%,0%)" x1="61.0615820353" x2="59.0214856524" y1="348.32001585" y2="357.954336651" /><line stroke="rgb(0%,0%,0%)" x1="65.1020656327" x2="62.1461445759" y1="337.209489321" y2="344.278267004" /><line stroke="rgb(0%,0%,0%)" x1="81.7711591951" x2="77.2064991131" y1="321.290203973" y2="326.292594279" /><line stroke="rgb(0%,0%,0%)" x1="25.023904362" x2="24.666028019" y1="453.874709736" y2="448.315200196" /><line stroke="rgb(0%,0%,0%)" x1="25.8294622518" x2="26.4233356997" y1="458.313943835" y2="459.794926574" /><line stroke="rgb(0%,0%,0%)" x1="25.023904362" x2="25.8294622518" y1="453.874709736" y2="458.313943835" /><line stroke="rgb(0%,0%,0%)" x1="28.1875074674" x2="25.1569811978" y1="440.577798471" y2="446.814879054" /><line stroke="rgb(0%,0%,0%)" x1="25.1569811978" x2="24.666028019" y1="446.814879054" y2="448.315200196" /><line stroke="rgb(0%,0%,0%)" x1="30.2432981201" x2="28.1875074674" y1="437.088584077" y2="440.577798471" /><line stroke="rgb(0%,0%,0%)" x1="36.9199261424" x2="33.1235934201" y1="428.09548394" y2="432.273897202" /><line stroke="rgb(0%,0%,0%)" x1="30.2432981201" x2="33.1235934201" y1="437.088584077" y2="432.273897202" /><line stroke="rgb(0%,0%,0%)" x1="40.0223607625" x2="36.9199261424" y1="424.577818295" y2="428.09548394" /><line stroke="rgb(0%,0%,0%)" x1="40.0223607625" x2="42.1779926277" y1="424.577818295" y2="419.164876044" /><line stroke="rgb(0%,0%,0%)" x1="42.4189891606" x2="42.1779926277" y1="418.186000037" y2="419.164876044" /><line stroke="rgb(0%,0%,0%)" x1="43.8732333627" x2="43.2579494413" y1="416.06474295" y2="416.715068975" /><line stroke="rgb(0%,0%,0%)" x1="46.8498249703" x2="43.8732333627" y1="410.615541752" y2="416.06474295" /><line stroke="rgb(0%,0%,0%)" x1="50.0276529423" x2="51.7731368319" y1="392.600367814" y2="400.089453886" /><line stroke="rgb(0%,0%,0%)" x1="50.1999159299" x2="50.0276529423" y1="391.264922927" y2="392.600367814" /><line stroke="rgb(0%,0%,0%)" x1="50.9782566362" x2="50.1999159299" y1="386.11797454" y2="391.264922927" /><line stroke="rgb(0%,0%,0%)" x1="43.2579494413" x2="42.4189891606" y1="416.715068975" y2="418.186000037" /><line stroke="rgb(0%,0%,0%)" x1="494.163571187" x2="495.513725919" y1="386.869322766" y2="388.607576063" /><line stroke="rgb(0%,0%,0%)" x1="495.513725919" x2="497.620488245" y1="388.607576063" y2="391.540512121" /><line stroke="rgb(0%,0%,0%)" x1="472.091689936" x2="462.63189342" y1="365.254349609" y2="355.068568076" /><line stroke="rgb(0%,0%,0%)" x1="454.957866457" x2="452.475009004" y1="346.317561627" y2="344.454776578" /><line stroke="rgb(0%,0%,0%)" x1="492.780046095" x2="487.060884382" y1="385.186722418" y2="379.880337147" /><line stroke="rgb(0%,0%,0%)" x1="475.50066441" x2="478.914511302" y1="369.042092767" y2="372.538236349" /><line stroke="rgb(0%,0%,0%)" x1="474.455407376" x2="475.50066441" y1="367.779367335" y2="369.042092767" /><line stroke="rgb(0%,0%,0%)" x1="481.510732713" x2="478.914511302" y1="374.446069024" y2="372.538236349" /><line stroke="rgb(0%,0%,0%)" x1="498.357566257" x2="497.620488245" y1="392.648537036" y2="391.540512121" /><line stroke="rgb(0%,0%,0%)" x1="494.163571187" x2="492.780046095" y1="386.869322766" y2="385.186722418" /><line stroke="rgb(0%,0%,0%)" x1="487.060884382" x2="481.510732713" y1="379.880337147" y2="374.446069024" /><line stroke="rgb(0%,0%,0%)" x1="422.819826914" x2="423.030079509" y1="604.847110903" y2="604.387452706" /><line stroke="rgb(0%,0%,0%)" x1="445.878564959" x2="435.86698466" y1="578.163634301" y2="588.090996261" /><line stroke="rgb(0%,0%,0%)" x1="445.878564959" x2="448.678810741" y1="578.163634301" y2="575.143188407" /><line stroke="rgb(0%,0%,0%)" x1="462.63189342" x2="454.957866457" y1="355.068568076" y2="346.317561627" /><line stroke="rgb(0%,0%,0%)" x1="400.999944069" x2="385.520990451" y1="622.787349786" y2="626.237509777" /><line stroke="rgb(0%,0%,0%)" x1="403.823363291" x2="414.449064553" y1="621.503710465" y2="614.771899373" /><line stroke="rgb(0%,0%,0%)" x1="414.449064553" x2="416.404531644" y1="614.771899373" y2="613.304871314" /><line stroke="rgb(0%,0%,0%)" x1="416.404531644" x2="422.29179773" y1="613.304871314" y2="605.587630615" /><line stroke="rgb(0%,0%,0%)" x1="422.819826914" x2="422.29179773" y1="604.847110903" y2="605.587630615" /><line stroke="rgb(0%,0%,0%)" x1="423.030079509" x2="424.123543148" y1="604.387452706" y2="603.041884025" /><line stroke="rgb(0%,0%,0%)" x1="424.123543148" x2="431.928365327" y1="603.041884025" y2="592.433906533" /><line stroke="rgb(0%,0%,0%)" x1="431.928365327" x2="433.46203576" y1="592.433906533" y2="591.400540871" /><line stroke="rgb(0%,0%,0%)" x1="433.46203576" x2="435.86698466" y1="591.400540871" y2="588.090996261" /><line stroke="rgb(0%,0%,0%)" x1="364.866012482" x2="369.94379802" y1="637.424447797" y2="634.794211582" /><line stroke="rgb(0%,0%,0%)" x1="373.60969707" x2="375.965037113" y1="633.294578682" y2="630.418572786" /><line stroke="rgb(0%,0%,0%)" x1="375.965037113" x2="383.050258832" y1="630.418572786" y2="626.823281864" /><line stroke="rgb(0%,0%,0%)" x1="383.474803141" x2="385.520990451" y1="626.639433083" y2="626.237509777" /><line stroke="rgb(0%,0%,0%)" x1="400.999944069" x2="403.823363291" y1="622.787349786" y2="621.503710465" /><line stroke="rgb(0%,0%,0%)" x1="335.246463399" x2="336.740644399" y1="654.354673097" y2="658.832161969" /><line stroke="rgb(0%,0%,0%)" x1="338.317456816" x2="336.084945243" y1="643.927692528" y2="649.222558808" /><line stroke="rgb(0%,0%,0%)" x1="338.317456816" x2="345.348505055" y1="643.927692528" y2="642.545743976" /><line stroke="rgb(0%,0%,0%)" x1="346.048797837" x2="345.348505055" y1="642.522560254" y2="642.545743976" /><line stroke="rgb(0%,0%,0%)" x1="346.048797837" x2="346.561696146" y1="642.522560254" y2="642.243826311" /><line stroke="rgb(0%,0%,0%)" x1="346.561696146" x2="347.886447685" y1="642.243826311" y2="641.340538468" /><line stroke="rgb(0%,0%,0%)" x1="347.886447685" x2="353.614939048" y1="641.340538468" y2="638.504250605" /><line stroke="rgb(0%,0%,0%)" x1="360.542699724" x2="364.866012482" y1="638.152682815" y2="637.424447797" /><line stroke="rgb(0%,0%,0%)" x1="360.542699724" x2="353.614939048" y1="638.152682815" y2="638.504250605" /><line stroke="rgb(0%,0%,0%)" x1="369.94379802" x2="373.60969707" y1="634.794211582" y2="633.294578682" /><line stroke="rgb(0%,0%,0%)" x1="383.050258832" x2="383.474803141" y1="626.823281864" y2="626.639433083" /><line stroke="rgb(0%,0%,0%)" x1="315.070418095" x2="312.48045747" y1="718.378858857" y2="720.04260227" /><line stroke="rgb(0%,0%,0%)" x1="315.070418095" x2="316.883234065" y1="718.378858857" y2="713.163064723" /><line stroke="rgb(0%,0%,0%)" x1="316.883234065" x2="316.370620161" y1="713.163064723" y2="707.464561159" /><line stroke="rgb(0%,0%,0%)" x1="316.370620161" x2="318.101155981" y1="707.464561159" y2="703.812852109" /><line stroke="rgb(0%,0%,0%)" x1="322.934127397" x2="318.101155981" y1="697.495379878" y2="703.812852109" /><line stroke="rgb(0%,0%,0%)" x1="322.934127397" x2="323.955128991" y1="697.495379878" y2="687.968800889" /><line stroke="rgb(0%,0%,0%)" x1="323.955128991" x2="326.722793077" y1="687.968800889" y2="677.410926153" /><line stroke="rgb(0%,0%,0%)" x1="326.722793077" x2="326.905434921" y1="677.410926153" y2="675.845430086" /><line stroke="rgb(0%,0%,0%)" x1="326.905434921" x2="327.988694432" y1="675.845430086" y2="675.224338777" /><line stroke="rgb(0%,0%,0%)" x1="334.045920081" x2="327.988694432" y1="668.231211686" y2="675.224338777" /><line stroke="rgb(0%,0%,0%)" x1="334.045920081" x2="335.520872567" y1="668.231211686" y2="665.786819949" /><line stroke="rgb(0%,0%,0%)" x1="335.520872567" x2="337.065458981" y1="665.786819949" y2="661.776015554" /><line stroke="rgb(0%,0%,0%)" x1="337.065458981" x2="336.740644399" y1="661.776015554" y2="658.832161969" /><line stroke="rgb(0%,0%,0%)" x1="335.246463399" x2="336.084945243" y1="654.354673097" y2="649.222558808" /><line stroke="rgb(0%,0%,0%)" x1="279.550060182" x2="269.264753296" y1="726.581687989" y2="724.224209359" /><line stroke="rgb(0%,0%,0%)" x1="285.3806005" x2="289.152972549" y1="726.440344331" y2="725.125152731" /><line stroke="rgb(0%,0%,0%)" x1="289.152972549" x2="301.977535279" y1="725.125152731" y2="723.501480652" /><line stroke="rgb(0%,0%,0%)" x1="283.305646226" x2="285.3806005" y1="726.896033894" y2="726.440344331" /><line stroke="rgb(0%,0%,0%)" x1="301.977535279" x2="307.343404051" y1="723.501480652" y2="722.477429665" /><line stroke="rgb(0%,0%,0%)" x1="307.343404051" x2="312.48045747" y1="722.477429665" y2="720.04260227" /><line stroke="rgb(0%,0%,0%)" x1="223.403545701" x2="224.105280373" y1="649.922943678" y2="650.061239787" /><line stroke="rgb(0%,0%,0%)" x1="223.403545701" x2="222.265662523" y1="649.922943678" y2="649.766695639" /><line stroke="rgb(0%,0%,0%)" x1="222.265662523" x2="220.913933496" y1="649.766695639" y2="649.407303391" /><line stroke="rgb(0%,0%,0%)" x1="240.646544587" x2="242.250036189" y1="682.158342614" y2="691.721081365" /><line stroke="rgb(0%,0%,0%)" x1="240.646544587" x2="236.988256109" y1="682.158342614" y2="673.869174651" /><line stroke="rgb(0%,0%,0%)" x1="235.028477942" x2="235.901705871" y1="666.403624424" y2="671.078500959" /><line stroke="rgb(0%,0%,0%)" x1="233.842613482" x2="233.874481807" y1="662.910538408" y2="664.729790762" /><line stroke="rgb(0%,0%,0%)" x1="233.874481807" x2="235.028477942" y1="664.729790762" y2="666.403624424" /><line stroke="rgb(0%,0%,0%)" x1="232.885589175" x2="232.911860657" y1="661.990813824" y2="660.905193064" /><line stroke="rgb(0%,0%,0%)" x1="231.760251314" x2="232.911860657" y1="656.181625084" y2="660.905193064" /><line stroke="rgb(0%,0%,0%)" x1="231.74143887" x2="231.760251314" y1="655.424696552" y2="656.181625084" /><line stroke="rgb(0%,0%,0%)" x1="228.831106701" x2="231.754825429" y1="651.939830877" y2="655.288432675" /><line stroke="rgb(0%,0%,0%)" x1="231.754825429" x2="231.74143887" y1="655.288432675" y2="655.424696552" /><line stroke="rgb(0%,0%,0%)" x1="228.831106701" x2="228.73012502" y1="651.939830877" y2="651.886730522" /><line stroke="rgb(0%,0%,0%)" x1="224.105280373" x2="228.73012502" y1="650.061239787" y2="651.886730522" /><line stroke="rgb(0%,0%,0%)" x1="250.037400274" x2="247.129042682" y1="708.642319167" y2="703.839361636" /><line stroke="rgb(0%,0%,0%)" x1="244.318478558" x2="247.129042682" y1="698.993163588" y2="703.839361636" /><line stroke="rgb(0%,0%,0%)" x1="242.250036189" x2="244.318478558" y1="691.721081365" y2="698.993163588" /><line stroke="rgb(0%,0%,0%)" x1="260.300145789" x2="269.264753296" y1="717.839019544" y2="724.224209359" /><line stroke="rgb(0%,0%,0%)" x1="250.037400274" x2="260.300145789" y1="708.642319167" y2="717.839019544" /><line stroke="rgb(0%,0%,0%)" x1="279.550060182" x2="283.305646226" y1="726.581687989" y2="726.896033894" /><line stroke="rgb(0%,0%,0%)" x1="197.709224289" x2="198.768020921" y1="641.129455875" y2="641.374592348" /><line stroke="rgb(0%,0%,0%)" x1="195.637550465" x2="197.709224289" y1="639.847277482" y2="641.129455875" /><line stroke="rgb(0%,0%,0%)" x1="195.637550465" x2="187.729865672" y1="639.847277482" y2="638.251741675" /><line stroke="rgb(0%,0%,0%)" x1="217.047534011" x2="217.865093666" y1="647.772897166" y2="647.982722247" /><line stroke="rgb(0%,0%,0%)" x1="217.865093666" x2="218.208503927" y1="647.982722247" y2="648.112370418" /><line stroke="rgb(0%,0%,0%)" x1="211.897867685" x2="217.047534011" y1="645.874267662" y2="647.772897166" /><line stroke="rgb(0%,0%,0%)" x1="211.897867685" x2="208.248819656" y1="645.874267662" y2="645.151464" /><line stroke="rgb(0%,0%,0%)" x1="206.292938059" x2="208.248819656" y1="644.343421842" y2="645.151464" /><line stroke="rgb(0%,0%,0%)" x1="204.381177094" x2="206.292938059" y1="642.652658371" y2="644.343421842" /><line stroke="rgb(0%,0%,0%)" x1="218.208503927" x2="218.642896558" y1="648.112370418" y2="648.450230357" /><line stroke="rgb(0%,0%,0%)" x1="218.642896558" x2="219.230254107" y1="648.450230357" y2="648.445952565" /><line stroke="rgb(0%,0%,0%)" x1="219.230254107" x2="220.913933496" y1="648.445952565" y2="649.407303391" /><line stroke="rgb(0%,0%,0%)" x1="236.302833469" x2="236.988256109" y1="672.017119028" y2="673.869174651" /><line stroke="rgb(0%,0%,0%)" x1="235.901705871" x2="236.302833469" y1="671.078500959" y2="672.017119028" /><line stroke="rgb(0%,0%,0%)" x1="233.842613482" x2="232.885589175" y1="662.910538408" y2="661.990813824" /><line stroke="rgb(0%,0%,0%)" x1="148.355385799" x2="138.895913076" y1="629.610041341" y2="627.102726448" /><line stroke="rgb(0%,0%,0%)" x1="150.24970374" x2="148.355385799" y1="630.126166126" y2="629.610041341" /><line stroke="rgb(0%,0%,0%)" x1="150.24970374" x2="169.32287805" y1="630.126166126" y2="635.388147294" /><line stroke="rgb(0%,0%,0%)" x1="169.32287805" x2="173.891574091" y1="635.388147294" y2="636.1909775" /><line stroke="rgb(0%,0%,0%)" x1="173.891574091" x2="175.907561778" y1="636.1909775" y2="636.333037079" /><line stroke="rgb(0%,0%,0%)" x1="186.141426597" x2="187.729865672" y1="638.061289359" y2="638.251741675" /><line stroke="rgb(0%,0%,0%)" x1="175.907561778" x2="186.141426597" y1="636.333037079" y2="638.061289359" /><line stroke="rgb(0%,0%,0%)" x1="198.768020921" x2="204.381177094" y1="641.374592348" y2="642.652658371" /><line stroke="rgb(0%,0%,0%)" x1="110.463416667" x2="119.730256764" y1="618.345169509" y2="621.331991492" /><line stroke="rgb(0%,0%,0%)" x1="126.182341629" x2="138.895913076" y1="623.340107209" y2="627.102726448" /><line stroke="rgb(0%,0%,0%)" x1="62.6577670471" x2="62.7565422916" y1="583.543328622" y2="583.656983821" /><line stroke="rgb(0%,0%,0%)" x1="62.6577670471" x2="62.5390968947" y1="583.543328622" y2="583.369571779" /><line stroke="rgb(0%,0%,0%)" x1="86.2355948646" x2="81.5289978499" y1="606.674720938" y2="602.846874664" /><line stroke="rgb(0%,0%,0%)" x1="89.3334842977" x2="93.2851040923" y1="609.255476478" y2="611.5857117" /><line stroke="rgb(0%,0%,0%)" x1="86.2355948646" x2="89.3334842977" y1="606.674720938" y2="609.255476478" /><line stroke="rgb(0%,0%,0%)" x1="104.670978703" x2="110.463416667" y1="615.636655542" y2="618.345169509" /><line stroke="rgb(0%,0%,0%)" x1="104.670978703" x2="98.7053789423" y1="615.636655542" y2="613.773849487" /><line stroke="rgb(0%,0%,0%)" x1="93.2851040923" x2="98.7053789423" y1="611.5857117" y2="613.773849487" /><line stroke="rgb(0%,0%,0%)" x1="119.730256764" x2="121.906632848" y1="621.331991492" y2="621.677646327" /><line stroke="rgb(0%,0%,0%)" x1="121.906632848" x2="126.182341629" y1="621.677646327" y2="623.340107209" /><line stroke="rgb(0%,0%,0%)" x1="26.4100858186" x2="26.4233356997" y1="459.906620755" y2="459.794926574" /><line stroke="rgb(0%,0%,0%)" x1="55.2236306262" x2="57.1001922684" y1="549.927074272" y2="552.350799425" /><line stroke="rgb(0%,0%,0%)" x1="49.6768979479" x2="51.8677471325" y1="540.789038022" y2="543.983889068" /><line stroke="rgb(0%,0%,0%)" x1="49.6768979479" x2="49.0268296502" y1="540.789038022" y2="539.363022448" /><line stroke="rgb(0%,0%,0%)" x1="49.0268296502" x2="48.9655466879" y1="539.363022448" y2="532.115178534" /><line stroke="rgb(0%,0%,0%)" x1="47.6645059859" x2="48.9655466879" y1="525.5677538" y2="532.115178534" /><line stroke="rgb(0%,0%,0%)" x1="49.8884926181" x2="48.6631064174" y1="519.835315199" y2="521.829055313" /><line stroke="rgb(0%,0%,0%)" x1="50.9061080967" x2="49.8884926181" y1="517.585522835" y2="519.835315199" /><line stroke="rgb(0%,0%,0%)" x1="50.9061080967" x2="51.3265336527" y1="517.585522835" y2="516.508497649" /><line stroke="rgb(0%,0%,0%)" x1="62.7565422916" x2="69.8267982292" y1="583.656983821" y2="590.090872078" /><line stroke="rgb(0%,0%,0%)" x1="62.5390968947" x2="61.3080590923" y1="583.369571779" y2="579.09573" /><line stroke="rgb(0%,0%,0%)" x1="57.448293861" x2="61.3080590923" y1="565.798481009" y2="579.09573" /><line stroke="rgb(0%,0%,0%)" x1="57.4113957864" x2="57.448293861" y1="565.121738364" y2="565.798481009" /><line stroke="rgb(0%,0%,0%)" x1="57.1001922684" x2="57.4113957864" y1="552.350799425" y2="565.121738364" /><line stroke="rgb(0%,0%,0%)" x1="75.0406944442" x2="81.5289978499" y1="595.177489448" y2="602.846874664" /><line stroke="rgb(0%,0%,0%)" x1="75.0406944442" x2="69.8267982292" y1="595.177489448" y2="590.090872078" /><line stroke="rgb(0%,0%,0%)" x1="28.5712146762" x2="28.7459088323" y1="479.387253587" y2="479.937789721" /><line stroke="rgb(0%,0%,0%)" x1="28.4159502714" x2="28.5712146762" y1="479.244169798" y2="479.387253587" /><line stroke="rgb(0%,0%,0%)" x1="28.4159502714" x2="28.2351807379" y1="479.244169798" y2="478.915848464" /><line stroke="rgb(0%,0%,0%)" x1="24.4467034561" x2="28.2351807379" y1="472.970559781" y2="478.915848464" /><line stroke="rgb(0%,0%,0%)" x1="23.872808296" x2="24.4467034561" y1="469.64456249" y2="472.970559781" /><line stroke="rgb(0%,0%,0%)" x1="24.1607721351" x2="23.872808296" y1="466.569627261" y2="469.64456249" /><line stroke="rgb(0%,0%,0%)" x1="26.4100858186" x2="24.1607721351" y1="459.906620755" y2="466.569627261" /><line stroke="rgb(0%,0%,0%)" x1="39.8687199179" x2="41.348561868" y1="500.349275751" y2="502.756943609" /><line stroke="rgb(0%,0%,0%)" x1="36.8297585479" x2="38.1229588642" y1="493.037478769" y2="496.583146295" /><line stroke="rgb(0%,0%,0%)" x1="38.1229588642" x2="39.8687199179" y1="496.583146295" y2="500.349275751" /><line stroke="rgb(0%,0%,0%)" x1="36.8297585479" x2="36.2540680079" y1="493.037478769" y2="491.028911579" /><line stroke="rgb(0%,0%,0%)" x1="36.2540680079" x2="33.0169585882" y1="491.028911579" y2="488.615778501" /><line stroke="rgb(0%,0%,0%)" x1="32.6224750922" x2="33.0169585882" y1="487.163921896" y2="488.615778501" /><line stroke="rgb(0%,0%,0%)" x1="30.5869788607" x2="32.6224750922" y1="484.837497965" y2="487.163921896" /><line stroke="rgb(0%,0%,0%)" x1="28.7459088323" x2="30.5869788607" y1="479.937789721" y2="484.837497965" /><line stroke="rgb(0%,0%,0%)" x1="51.8677471325" x2="55.2236306262" y1="543.983889068" y2="549.927074272" /><line stroke="rgb(0%,0%,0%)" x1="48.6631064174" x2="47.6645059859" y1="521.829055313" y2="525.5677538" /><line stroke="rgb(0%,0%,0%)" x1="51.484095505" x2="43.7505084755" y1="515.937153115" y2="506.892258825" /><line stroke="rgb(0%,0%,0%)" x1="51.484095505" x2="51.3265336527" y1="515.937153115" y2="516.508497649" /><line stroke="rgb(0%,0%,0%)" x1="41.9812570009" x2="43.7505084755" y1="504.075465255" y2="506.892258825" /><line stroke="rgb(0%,0%,0%)" x1="41.348561868" x2="41.9812570009" y1="502.756943609" y2="504.075465255" /><line stroke="rgb(0%,0%,0%)" x1="508.369227546" x2="506.049252833" y1="505.257282504" y2="510.911168977" /><line stroke="rgb(0%,0%,0%)" x1="508.369227546" x2="510.446355243" y1="505.257282504" y2="499.563842961" /><line stroke="rgb(0%,0%,0%)" x1="517.204977246" x2="518.689520178" y1="482.774777886" y2="480.50193402" /><line stroke="rgb(0%,0%,0%)" x1="517.204977246" x2="512.529801347" y1="482.774777886" y2="496.102714731" /><line stroke="rgb(0%,0%,0%)" x1="518.689520178" x2="519.202876559" y1="480.50193402" y2="478.708769558" /><line stroke="rgb(0%,0%,0%)" x1="519.202876559" x2="520.124457574" y1="478.708769558" y2="474.551306049" /><line stroke="rgb(0%,0%,0%)" x1="520.124457574" x2="520.525738094" y1="474.551306049" y2="469.548229265" /><line stroke="rgb(0%,0%,0%)" x1="521.591544741" x2="520.525738094" y1="464.260792666" y2="469.548229265" /><line stroke="rgb(0%,0%,0%)" x1="521.591544741" x2="521.209726372" y1="464.260792666" y2="459.37610191" /><line stroke="rgb(0%,0%,0%)" x1="455.066348881" x2="449.3114088" y1="569.842957438" y2="574.687932352" /><line stroke="rgb(0%,0%,0%)" x1="455.066348881" x2="464.432083893" y1="569.842957438" y2="561.329601103" /><line stroke="rgb(0%,0%,0%)" x1="465.54494827" x2="464.432083893" y1="560.50822784" y2="561.329601103" /><line stroke="rgb(0%,0%,0%)" x1="465.54494827" x2="468.405163762" y1="560.50822784" y2="555.913804596" /><line stroke="rgb(0%,0%,0%)" x1="470.758173476" x2="474.657676389" y1="553.366947226" y2="551.050953986" /><line stroke="rgb(0%,0%,0%)" x1="474.657676389" x2="476.078627468" y1="551.050953986" y2="549.716370637" /><line stroke="rgb(0%,0%,0%)" x1="468.405163762" x2="468.847946691" y1="555.913804596" y2="555.314067071" /><line stroke="rgb(0%,0%,0%)" x1="470.656632639" x2="470.758173476" y1="553.737997361" y2="553.366947226" /><line stroke="rgb(0%,0%,0%)" x1="468.847946691" x2="470.656632639" y1="555.314067071" y2="553.737997361" /><line stroke="rgb(0%,0%,0%)" x1="479.828928499" x2="476.078627468" y1="548.058067665" y2="549.716370637" /><line stroke="rgb(0%,0%,0%)" x1="479.828928499" x2="483.455161826" y1="548.058067665" y2="544.858373847" /><line stroke="rgb(0%,0%,0%)" x1="486.725975741" x2="483.455161826" y1="541.801709014" y2="544.858373847" /><line stroke="rgb(0%,0%,0%)" x1="486.725975741" x2="488.586387296" y1="541.801709014" y2="540.01904671" /><line stroke="rgb(0%,0%,0%)" x1="488.586387296" x2="496.925022828" y1="540.01904671" y2="530.71265806" /><line stroke="rgb(0%,0%,0%)" x1="496.925022828" x2="497.29042108" y1="530.71265806" y2="530.193140535" /><line stroke="rgb(0%,0%,0%)" x1="497.29042108" x2="500.315111752" y1="530.193140535" y2="521.790705544" /><line stroke="rgb(0%,0%,0%)" x1="500.315111752" x2="503.31009446" y1="521.790705544" y2="517.391273353" /><line stroke="rgb(0%,0%,0%)" x1="503.31009446" x2="506.049252833" y1="517.391273353" y2="510.911168977" /><line stroke="rgb(0%,0%,0%)" x1="510.446355243" x2="512.529801347" y1="499.563842961" y2="496.102714731" /><line stroke="rgb(0%,0%,0%)" x1="448.678810741" x2="449.3114088" y1="575.143188407" y2="574.687932352" /><line stroke="rgb(0%,0%,0%)" x1="472.091689936" x2="474.455407376" y1="365.254349609" y2="367.779367335" /></svg>