<?xml version="1.0" encoding="utf-8" ?>
<svg baseProfile="full" height="100%" version="1.1" viewBox="0.5 0.5 685.793960571 941.299331665" width="100%" xmlns="http://www.w3.org/2000/svg" xmlns:ev="http://www.w3.org/2001/xml-events" xmlns:xlink="http://www.w3.org/1999/xlink"><defs /><line stroke="rgb(0%,0%,0%)" x1="507.79402699" x2="504.448640898" y1="410.20071146" y2="403.656058573" /><line stroke="rgb(0%,0%,0%)" x1="504.448640898" x2="501.06412309" y1="403.656058573" y2="396.982356119" /><line stroke="rgb(0%,0%,0%)" x1="521.311487529" x2="521.666094211" y1="441.239946557" y2="443.215564291" /><line stroke="rgb(0%,0%,0%)" x1="521.311487529" x2="520.339764858" y1="441.239946557" y2="439.917369655" /><line stroke="rgb(0%,0%,0%)" x1="518.264427645" x2="513.428433069" y1="433.844786955" y2="422.800916839" /><line stroke="rgb(0%,0%,0%)" x1="513.428433069" x2="513.003973569" y1="422.800916839" y2="422.343845376" /><line stroke="rgb(0%,0%,0%)" x1="508.285883039" x2="511.614023424" y1="412.062251533" y2="420.053449026" /><line stroke="rgb(0%,0%,0%)" x1="507.79402699" x2="508.285883039" y1="410.20071146" y2="412.062251533" /><line stroke="rgb(0%,0%,0%)" x1="522.462632784" x2="522.206578919" y1="459.404561562" y2="456.018806741" /><line stroke="rgb(0%,0%,0%)" x1="522.206578919" x2="521.867679062" y1="456.018806741" y2="445.354164722" /><line stroke="rgb(0%,0%,0%)" x1="521.666094211" x2="521.867679062" y1="443.215564291" y2="445.354164722" /><line stroke="rgb(0%,0%,0%)" x1="520.339764858" x2="518.264427645" y1="439.917369655" y2="433.844786955" /><line stroke="rgb(0%,0%,0%)" x1="501.06412309" x2="498.682097704" y1="396.982356119" y2="392.269704591" /><line stroke="rgb(0%,0%,0%)" x1="498.682097704" x2="497.753103138" y1="392.269704591" y2="390.606382834" /><line stroke="rgb(0%,0%,0%)" x1="513.003973569" x2="511.614023424" y1="422.343845376" y2="420.053449026" /><line stroke="rgb(0%,0%,0%)" x1="442.503619653" x2="440.971659372" y1="332.568457841" y2="331.118084074" /><line stroke="rgb(0%,0%,0%)" x1="431.614105402" x2="435.265635034" y1="318.920072428" y2="324.951221741" /><line stroke="rgb(0%,0%,0%)" x1="452.225356492" x2="450.766876548" y1="343.143063111" y2="341.979266236" /><line stroke="rgb(0%,0%,0%)" x1="450.766876548" x2="442.503619653" y1="341.979266236" y2="332.568457841" /><line stroke="rgb(0%,0%,0%)" x1="388.930925144" x2="394.344521388" y1="287.834381532" y2="290.228726816" /><line stroke="rgb(0%,0%,0%)" x1="388.930925144" x2="388.224717029" y1="287.834381532" y2="286.009391994" /><line stroke="rgb(0%,0%,0%)" x1="403.756287809" x2="409.979304791" y1="291.954238438" y2="295.738703908" /><line stroke="rgb(0%,0%,0%)" x1="422.121127579" x2="417.756376047" y1="304.771984268" y2="301.251400699" /><line stroke="rgb(0%,0%,0%)" x1="417.756376047" x2="411.878486152" y1="301.251400699" y2="297.621928543" /><line stroke="rgb(0%,0%,0%)" x1="411.878486152" x2="409.979304791" y1="297.621928543" y2="295.738703908" /><line stroke="rgb(0%,0%,0%)" x1="431.614105402" x2="428.454332691" y1="318.920072428" y2="312.802294919" /><line stroke="rgb(0%,0%,0%)" x1="428.454332691" x2="425.161253955" y1="312.802294919" y2="307.911624452" /><line stroke="rgb(0%,0%,0%)" x1="425.161253955" x2="422.121127579" y1="307.911624452" y2="304.771984268" /><line stroke="rgb(0%,0%,0%)" x1="440.971659372" x2="437.92741129" y1="331.118084074" y2="328.099320818" /><line stroke="rgb(0%,0%,0%)" x1="437.92741129" x2="435.265635034" y1="328.099320818" y2="324.951221741" /><line stroke="rgb(0%,0%,0%)" x1="354.784293219" x2="357.334283685" y1="271.9198132" y2="272.268460509" /><line stroke="rgb(0%,0%,0%)" x1="365.14122536" x2="366.726856258" y1="273.091007923" y2="273.668793208" /><line stroke="rgb(0%,0%,0%)" x1="382.062791654" x2="378.90875249" y1="280.592213895" y2="278.847769997" /><line stroke="rgb(0%,0%,0%)" x1="382.062791654" x2="384.690804575" y1="280.592213895" y2="282.292828925" /><line stroke="rgb(0%,0%,0%)" x1="375.973290033" x2="371.779073012" y1="277.99606474" y2="276.991829998" /><line stroke="rgb(0%,0%,0%)" x1="378.90875249" x2="375.973290033" y1="278.847769997" y2="277.99606474" /><line stroke="rgb(0%,0%,0%)" x1="371.779073012" x2="370.853326879" y1="276.991829998" y2="275.942949042" /><line stroke="rgb(0%,0%,0%)" x1="370.853326879" x2="366.726856258" y1="275.942949042" y2="273.668793208" /><line stroke="rgb(0%,0%,0%)" x1="395.354147924" x2="394.344521388" y1="290.750852097" y2="290.228726816" /><line stroke="rgb(0%,0%,0%)" x1="388.224717029" x2="386.725629205" y1="286.009391994" y2="284.228545055" /><line stroke="rgb(0%,0%,0%)" x1="386.725629205" x2="384.690804575" y1="284.228545055" y2="282.292828925" /><line stroke="rgb(0%,0%,0%)" x1="403.756287809" x2="397.449536037" y1="291.954238438" y2="291.190161997" /><line stroke="rgb(0%,0%,0%)" x1="397.449536037" x2="395.354147924" y1="291.190161997" y2="290.750852097" /><line stroke="rgb(0%,0%,0%)" x1="342.901854833" x2="330.971629159" y1="248.077568746" y2="242.608707105" /><line stroke="rgb(0%,0%,0%)" x1="354.784293219" x2="353.756146244" y1="271.9198132" y2="271.0563524" /><line stroke="rgb(0%,0%,0%)" x1="351.979448436" x2="351.735006879" y1="268.315440284" y2="258.519708174" /><line stroke="rgb(0%,0%,0%)" x1="353.756146244" x2="351.979448436" y1="271.0563524" y2="268.315440284" /><line stroke="rgb(0%,0%,0%)" x1="351.735006879" x2="351.808806753" y1="258.519708174" y2="258.167282216" /><line stroke="rgb(0%,0%,0%)" x1="347.108168038" x2="351.696766804" y1="250.347696344" y2="257.941891431" /><line stroke="rgb(0%,0%,0%)" x1="351.808806753" x2="351.696766804" y1="258.167282216" y2="257.941891431" /><line stroke="rgb(0%,0%,0%)" x1="347.108168038" x2="342.901854833" y1="250.347696344" y2="248.077568746" /><line stroke="rgb(0%,0%,0%)" x1="365.14122536" x2="360.188589247" y1="273.091007923" y2="272.716601303" /><line stroke="rgb(0%,0%,0%)" x1="360.188589247" x2="357.334283685" y1="272.716601303" y2="272.268460509" /><line stroke="rgb(0%,0%,0%)" x1="318.378874404" x2="314.624014759" y1="227.769188048" y2="225.31210318" /><line stroke="rgb(0%,0%,0%)" x1="314.624014759" x2="309.838726732" y1="225.31210318" y2="222.572419268" /><line stroke="rgb(0%,0%,0%)" x1="318.378874404" x2="321.554851882" y1="227.769188048" y2="231.342332313" /><line stroke="rgb(0%,0%,0%)" x1="330.971629159" x2="329.409888115" y1="242.608707105" y2="240.664871287" /><line stroke="rgb(0%,0%,0%)" x1="321.554851882" x2="329.409888115" y1="231.342332313" y2="240.664871287" /><line stroke="rgb(0%,0%,0%)" x1="211.634389575" x2="212.10805002" y1="272.162149769" y2="272.159307685" /><line stroke="rgb(0%,0%,0%)" x1="211.634389575" x2="211.509993651" y1="272.162149769" y2="272.158774525" /><line stroke="rgb(0%,0%,0%)" x1="211.509993651" x2="211.373018861" y1="272.158774525" y2="272.141890431" /><line stroke="rgb(0%,0%,0%)" x1="247.918267071" x2="247.818600527" y1="240.295591696" y2="240.117817093" /><line stroke="rgb(0%,0%,0%)" x1="247.918267071" x2="247.815951606" y1="240.295591696" y2="240.493518531" /><line stroke="rgb(0%,0%,0%)" x1="291.9896548" x2="273.808551174" y1="216.837815134" y2="215.324023655" /><line stroke="rgb(0%,0%,0%)" x1="294.431134966" x2="291.9896548" y1="216.658766443" y2="216.837815134" /><line stroke="rgb(0%,0%,0%)" x1="303.911835745" x2="294.431134966" y1="217.305907668" y2="216.658766443" /><line stroke="rgb(0%,0%,0%)" x1="309.838726732" x2="303.911835745" y1="222.572419268" y2="217.305907668" /><line stroke="rgb(0%,0%,0%)" x1="212.10805002" x2="212.566241716" y1="272.159307685" y2="272.130803809" /><line stroke="rgb(0%,0%,0%)" x1="227.802129765" x2="229.873588013" y1="271.133489319" y2="270.998437888" /><line stroke="rgb(0%,0%,0%)" x1="227.802129765" x2="226.56742573" y1="271.133489319" y2="270.987057135" /><line stroke="rgb(0%,0%,0%)" x1="226.56742573" x2="225.949766469" y1="270.987057135" y2="270.785209591" /><line stroke="rgb(0%,0%,0%)" x1="235.648782661" x2="234.284457736" y1="271.1283359" y2="271.127624907" /><line stroke="rgb(0%,0%,0%)" x1="236.717776145" x2="239.861650384" y1="271.45221746" y2="271.666550984" /><line stroke="rgb(0%,0%,0%)" x1="234.284457736" x2="229.873588013" y1="271.127624907" y2="270.998437888" /><line stroke="rgb(0%,0%,0%)" x1="236.717776145" x2="235.648782661" y1="271.45221746" y2="271.1283359" /><line stroke="rgb(0%,0%,0%)" x1="239.861650384" x2="243.792324962" y1="271.666550984" y2="271.285438188" /><line stroke="rgb(0%,0%,0%)" x1="245.250203923" x2="244.02883786" y1="268.899017176" y2="271.093693134" /><line stroke="rgb(0%,0%,0%)" x1="244.02883786" x2="243.917671788" y1="271.093693134" y2="271.247243254" /><line stroke="rgb(0%,0%,0%)" x1="247.696821133" x2="245.161859908" y1="252.517883415" y2="258.818302333" /><line stroke="rgb(0%,0%,0%)" x1="245.161859908" x2="244.626016765" y1="258.818302333" y2="260.14463805" /><line stroke="rgb(0%,0%,0%)" x1="247.334824682" x2="247.696821133" y1="252.06326762" y2="252.517883415" /><line stroke="rgb(0%,0%,0%)" x1="247.815951606" x2="247.334824682" y1="240.493518531" y2="252.06326762" /><line stroke="rgb(0%,0%,0%)" x1="248.953852971" x2="247.818600527" y1="233.822227172" y2="240.117817093" /><line stroke="rgb(0%,0%,0%)" x1="248.953852971" x2="250.659701163" y1="233.822227172" y2="225.571633229" /><line stroke="rgb(0%,0%,0%)" x1="250.968655462" x2="250.659701163" y1="224.785160606" y2="225.571633229" /><line stroke="rgb(0%,0%,0%)" x1="251.242201043" x2="250.968655462" y1="224.326789973" y2="224.785160606" /><line stroke="rgb(0%,0%,0%)" x1="253.071955215" x2="272.986487379" y1="223.080193265" y2="215.840541682" /><line stroke="rgb(0%,0%,0%)" x1="253.071955215" x2="251.242201043" y1="223.080193265" y2="224.326789973" /><line stroke="rgb(0%,0%,0%)" x1="273.808551174" x2="272.986487379" y1="215.324023655" y2="215.840541682" /><line stroke="rgb(0%,0%,0%)" x1="178.104102519" x2="185.148619888" y1="275.47990872" y2="274.299561433" /><line stroke="rgb(0%,0%,0%)" x1="178.104102519" x2="174.955436482" y1="275.47990872" y2="276.319440219" /><line stroke="rgb(0%,0%,0%)" x1="192.460523832" x2="186.731402778" y1="273.81888595" y2="274.192318688" /><line stroke="rgb(0%,0%,0%)" x1="211.373018861" x2="204.123538517" y1="272.141890431" y2="272.685362224" /><line stroke="rgb(0%,0%,0%)" x1="223.598076785" x2="212.566241716" y1="271.01600373" y2="272.130803809" /><line stroke="rgb(0%,0%,0%)" x1="225.949766469" x2="223.598076785" y1="270.785209591" y2="271.01600373" /><line stroke="rgb(0%,0%,0%)" x1="243.917671788" x2="243.792324962" y1="271.247243254" y2="271.285438188" /><line stroke="rgb(0%,0%,0%)" x1="245.624262642" x2="245.250203923" y1="268.928413145" y2="268.899017176" /><line stroke="rgb(0%,0%,0%)" x1="245.624262642" x2="244.216680223" y1="268.928413145" y2="263.266005004" /><line stroke="rgb(0%,0%,0%)" x1="244.219928371" x2="244.216680223" y1="262.207391952" y2="263.266005004" /><line stroke="rgb(0%,0%,0%)" x1="244.219928371" x2="244.576471775" y1="262.207391952" y2="260.61096119" /><line stroke="rgb(0%,0%,0%)" x1="244.626016765" x2="244.576471775" y1="260.14463805" y2="260.61096119" /><line stroke="rgb(0%,0%,0%)" x1="159.519141697" x2="153.257614744" y1="281.873635721" y2="284.176574896" /><line stroke="rgb(0%,0%,0%)" x1="174.955436482" x2="172.591778308" y1="276.319440219" y2="276.964563342" /><line stroke="rgb(0%,0%,0%)" x1="192.460523832" x2="200.526614729" y1="273.81888595" y2="272.976115216" /><line stroke="rgb(0%,0%,0%)" x1="186.731402778" x2="185.148619888" y1="274.192318688" y2="274.299561433" /><line stroke="rgb(0%,0%,0%)" x1="204.123538517" x2="201.757420457" y1="272.685362224" y2="272.925726394" /><line stroke="rgb(0%,0%,0%)" x1="143.324709269" x2="131.749977924" y1="289.616537452" y2="293.924487012" /><line stroke="rgb(0%,0%,0%)" x1="143.324709269" x2="148.40798818" y1="289.616537452" y2="286.173469972" /><line stroke="rgb(0%,0%,0%)" x1="165.639264432" x2="159.519141697" y1="278.3127454" y2="281.873635721" /><line stroke="rgb(0%,0%,0%)" x1="172.591778308" x2="165.639264432" y1="276.964563342" y2="278.3127454" /><line stroke="rgb(0%,0%,0%)" x1="201.519492971" x2="200.526614729" y1="272.905606872" y2="272.976115216" /><line stroke="rgb(0%,0%,0%)" x1="201.757420457" x2="201.519492971" y1="272.925726394" y2="272.905606872" /><line stroke="rgb(0%,0%,0%)" x1="93.753773262" x2="100.619071511" y1="311.237383017" y2="307.50497951" /><line stroke="rgb(0%,0%,0%)" x1="117.107221522" x2="110.282585101" y1="300.986104885" y2="303.065976698" /><line stroke="rgb(0%,0%,0%)" x1="117.107221522" x2="129.550925123" y1="300.986104885" y2="294.971203762" /><line stroke="rgb(0%,0%,0%)" x1="153.257614744" x2="149.999732661" y1="284.176574896" y2="285.475938549" /><line stroke="rgb(0%,0%,0%)" x1="149.999732661" x2="148.40798818" y1="285.475938549" y2="286.173469972" /><line stroke="rgb(0%,0%,0%)" x1="51.5017058993" x2="51.0990287382" y1="379.670899106" y2="382.463864683" /><line stroke="rgb(0%,0%,0%)" x1="54.8938704736" x2="54.4579079503" y1="374.645541297" y2="375.317978566" /><line stroke="rgb(0%,0%,0%)" x1="54.8938704736" x2="55.5650172" y1="374.645541297" y2="373.617947602" /><line stroke="rgb(0%,0%,0%)" x1="76.7132186195" x2="71.0966553494" y1="325.949421268" y2="330.992229697" /><line stroke="rgb(0%,0%,0%)" x1="71.0966553494" x2="65.4826396706" y1="330.992229697" y2="336.132883067" /><line stroke="rgb(0%,0%,0%)" x1="90.1799219414" x2="82.4132282517" y1="313.394808217" y2="319.702806532" /><line stroke="rgb(0%,0%,0%)" x1="93.753773262" x2="90.1799219414" y1="311.237383017" y2="313.394808217" /><line stroke="rgb(0%,0%,0%)" x1="106.799945603" x2="100.619071511" y1="304.654024309" y2="307.50497951" /><line stroke="rgb(0%,0%,0%)" x1="110.282585101" x2="106.799945603" y1="303.065976698" y2="304.654024309" /><line stroke="rgb(0%,0%,0%)" x1="130.499071265" x2="129.550925123" y1="294.649019887" y2="294.971203762" /><line stroke="rgb(0%,0%,0%)" x1="131.749977924" x2="130.499071265" y1="293.924487012" y2="294.649019887" /><line stroke="rgb(0%,0%,0%)" x1="49.7112068245" x2="51.8809955548" y1="407.988337312" y2="404.945603703" /><line stroke="rgb(0%,0%,0%)" x1="47.0178974365" x2="49.7112068245" y1="411.00563782" y2="407.988337312" /><line stroke="rgb(0%,0%,0%)" x1="54.4579079503" x2="51.5017058993" y1="375.317978566" y2="379.670899106" /><line stroke="rgb(0%,0%,0%)" x1="57.9762412819" x2="55.5650172" y1="369.160005051" y2="373.617947602" /><line stroke="rgb(0%,0%,0%)" x1="57.968218475" x2="57.9762412819" y1="359.199224929" y2="369.160005051" /><line stroke="rgb(0%,0%,0%)" x1="57.968218475" x2="58.0382675224" y1="359.199224929" y2="358.788509601" /><line stroke="rgb(0%,0%,0%)" x1="58.0382675224" x2="58.6487857682" y1="358.788509601" y2="355.90534747" /><line stroke="rgb(0%,0%,0%)" x1="60.878704739" x2="58.6487857682" y1="347.313982202" y2="355.90534747" /><line stroke="rgb(0%,0%,0%)" x1="65.4826396706" x2="61.8006433169" y1="336.132883067" y2="344.937994284" /><line stroke="rgb(0%,0%,0%)" x1="82.4132282517" x2="76.7132186195" y1="319.702806532" y2="325.949421268" /><line stroke="rgb(0%,0%,0%)" x1="25.0384770348" x2="24.7240217045" y1="453.593175959" y2="448.708199784" /><line stroke="rgb(0%,0%,0%)" x1="25.746296865" x2="26.3317408096" y1="457.493799323" y2="458.953760834" /><line stroke="rgb(0%,0%,0%)" x1="25.0384770348" x2="25.746296865" y1="453.593175959" y2="457.493799323" /><line stroke="rgb(0%,0%,0%)" x1="28.0642460298" x2="25.3587606713" y1="441.200359812" y2="446.768478579" /><line stroke="rgb(0%,0%,0%)" x1="25.3587606713" x2="24.7240217045" y1="446.768478579" y2="448.708199784" /><line stroke="rgb(0%,0%,0%)" x1="30.5099454515" x2="28.0642460298" y1="437.049368262" y2="441.200359812" /><line stroke="rgb(0%,0%,0%)" x1="36.1487853481" x2="32.9425392695" y1="429.454119333" y2="432.983056893" /><line stroke="rgb(0%,0%,0%)" x1="30.5099454515" x2="32.9425392695" y1="437.049368262" y2="432.983056893" /><line stroke="rgb(0%,0%,0%)" x1="40.0093014732" x2="36.1487853481" y1="425.076910266" y2="429.454119333" /><line stroke="rgb(0%,0%,0%)" x1="40.0093014732" x2="41.8411200283" y1="425.076910266" y2="420.477085865" /><line stroke="rgb(0%,0%,0%)" x1="42.2478085711" x2="41.8411200283" y1="418.825204604" y2="420.477085865" /><line stroke="rgb(0%,0%,0%)" x1="44.7018872594" x2="43.6635780424" y1="415.245522593" y2="416.342966362" /><line stroke="rgb(0%,0%,0%)" x1="47.0178974365" x2="44.7018872594" y1="411.00563782" y2="415.245522593" /><line stroke="rgb(0%,0%,0%)" x1="51.9301377957" x2="51.8809955548" y1="404.676154629" y2="404.945603703" /><line stroke="rgb(0%,0%,0%)" x1="51.9957816859" x2="51.9301377957" y1="404.183667122" y2="404.676154629" /><line stroke="rgb(0%,0%,0%)" x1="49.490335747" x2="51.9957816859" y1="393.433925805" y2="404.183667122" /><line stroke="rgb(0%,0%,0%)" x1="49.7818539292" x2="49.490335747" y1="391.173971585" y2="393.433925805" /><line stroke="rgb(0%,0%,0%)" x1="51.0990287382" x2="49.7818539292" y1="382.463864683" y2="391.173971585" /><line stroke="rgb(0%,0%,0%)" x1="61.3469494519" x2="60.878704739" y1="346.024626758" y2="347.313982202" /><line stroke="rgb(0%,0%,0%)" x1="61.8006433169" x2="61.3469494519" y1="344.937994284" y2="346.024626758" /><line stroke="rgb(0%,0%,0%)" x1="26.3317408096" x2="26.5083195628" y1="458.953760834" y2="459.505309749" /><line stroke="rgb(0%,0%,0%)" x1="43.6635780424" x2="42.2478085711" y1="416.342966362" y2="418.825204604" /><line stroke="rgb(0%,0%,0%)" x1="462.981044021" x2="474.262854199" y1="354.996790624" y2="367.144414896" /><line stroke="rgb(0%,0%,0%)" x1="453.280063092" x2="452.225356492" y1="343.934365762" y2="343.143063111" /><line stroke="rgb(0%,0%,0%)" x1="482.226636309" x2="474.953751905" y1="373.09327645" y2="367.748799104" /><line stroke="rgb(0%,0%,0%)" x1="497.753103138" x2="494.517946697" y1="390.606382834" y2="385.743079521" /><line stroke="rgb(0%,0%,0%)" x1="494.517946697" x2="493.869150346" y1="385.743079521" y2="384.851510972" /><line stroke="rgb(0%,0%,0%)" x1="493.869150346" x2="492.929561198" y1="384.851510972" y2="383.572731249" /><line stroke="rgb(0%,0%,0%)" x1="482.226636309" x2="492.929561198" y1="373.09327645" y2="383.572731249" /><line stroke="rgb(0%,0%,0%)" x1="444.24515594" x2="437.942948244" y1="580.593319521" y2="586.842512463" /><line stroke="rgb(0%,0%,0%)" x1="444.24515594" x2="448.816599561" y1="580.593319521" y2="575.662395886" /><line stroke="rgb(0%,0%,0%)" x1="474.624644111" x2="474.262854199" y1="367.473578306" y2="367.144414896" /><line stroke="rgb(0%,0%,0%)" x1="462.981044021" x2="453.280063092" y1="354.996790624" y2="343.934365762" /><line stroke="rgb(0%,0%,0%)" x1="474.953751905" x2="474.798018425" y1="367.748799104" y2="367.626839413" /><line stroke="rgb(0%,0%,0%)" x1="474.798018425" x2="474.624644111" y1="367.626839413" y2="367.473578306" /><line stroke="rgb(0%,0%,0%)" x1="400.199877866" x2="387.810837931" y1="623.743725468" y2="626.505163415" /><line stroke="rgb(0%,0%,0%)" x1="403.825748223" x2="412.062048056" y1="622.09525976" y2="616.877231021" /><line stroke="rgb(0%,0%,0%)" x1="412.062048056" x2="415.594512303" y1="616.877231021" y2="614.22711014" /><line stroke="rgb(0%,0%,0%)" x1="415.594512303" x2="420.119854426" y1="614.22711014" y2="608.295128487" /><line stroke="rgb(0%,0%,0%)" x1="420.119854426" x2="421.996031989" y1="608.295128487" y2="606.42604476" /><line stroke="rgb(0%,0%,0%)" x1="429.791856445" x2="421.996031989" y1="595.830296584" y2="606.42604476" /><line stroke="rgb(0%,0%,0%)" x1="429.791856445" x2="432.965833779" y1="595.830296584" y2="593.691715101" /><line stroke="rgb(0%,0%,0%)" x1="432.965833779" x2="437.942948244" y1="593.691715101" y2="586.842512463" /><line stroke="rgb(0%,0%,0%)" x1="364.936423986" x2="368.486142955" y1="638.519785639" y2="636.681070845" /><line stroke="rgb(0%,0%,0%)" x1="373.543536802" x2="376.792912215" y1="634.612210221" y2="630.644535627" /><line stroke="rgb(0%,0%,0%)" x1="376.792912215" x2="382.441845126" y1="630.644535627" y2="627.778068208" /><line stroke="rgb(0%,0%,0%)" x1="383.36439589" x2="387.810837931" y1="627.378557888" y2="626.505163415" /><line stroke="rgb(0%,0%,0%)" x1="400.199877866" x2="403.825748223" y1="623.743725468" y2="622.09525976" /><line stroke="rgb(0%,0%,0%)" x1="337.864798988" x2="338.841247749" y1="655.399547928" y2="658.325591334" /><line stroke="rgb(0%,0%,0%)" x1="340.34783953" x2="339.219432628" y1="644.431959929" y2="647.10821197" /><line stroke="rgb(0%,0%,0%)" x1="340.34783953" x2="346.333775011" y1="644.431959929" y2="643.255427697" /><line stroke="rgb(0%,0%,0%)" x1="346.333775011" x2="347.633608063" y1="643.255427697" y2="643.092665568" /><line stroke="rgb(0%,0%,0%)" x1="355.039207738" x2="348.92923941" y1="639.619786538" y2="642.644951092" /><line stroke="rgb(0%,0%,0%)" x1="359.857748667" x2="364.936423986" y1="639.375256759" y2="638.519785639" /><line stroke="rgb(0%,0%,0%)" x1="359.857748667" x2="355.039207738" y1="639.375256759" y2="639.619786538" /><line stroke="rgb(0%,0%,0%)" x1="368.486142955" x2="373.543536802" y1="636.681070845" y2="634.612210221" /><line stroke="rgb(0%,0%,0%)" x1="382.441845126" x2="383.36439589" y1="627.778068208" y2="627.378557888" /><line stroke="rgb(0%,0%,0%)" x1="322.131399666" x2="321.281976534" y1="713.035823073" y2="715.479764578" /><line stroke="rgb(0%,0%,0%)" x1="322.131399666" x2="321.42983793" y1="713.035823073" y2="705.236869466" /><line stroke="rgb(0%,0%,0%)" x1="321.42983793" x2="322.677658944" y1="705.236869466" y2="702.603766333" /><line stroke="rgb(0%,0%,0%)" x1="326.162523703" x2="322.677658944" y1="698.048486682" y2="702.603766333" /><line stroke="rgb(0%,0%,0%)" x1="326.162523703" x2="327.509360023" y1="698.048486682" y2="685.481667328" /><line stroke="rgb(0%,0%,0%)" x1="327.509360023" x2="329.19969692" y1="685.481667328" y2="679.033498524" /><line stroke="rgb(0%,0%,0%)" x1="329.19969692" x2="329.570533244" y1="679.033498524" y2="675.854912533" /><line stroke="rgb(0%,0%,0%)" x1="329.570533244" x2="331.769985278" y1="675.854912533" y2="674.593847638" /><line stroke="rgb(0%,0%,0%)" x1="336.26082541" x2="331.769985278" y1="669.409128161" y2="674.593847638" /><line stroke="rgb(0%,0%,0%)" x1="336.26082541" x2="338.616349954" y1="669.409128161" y2="665.505392424" /><line stroke="rgb(0%,0%,0%)" x1="338.616349954" x2="339.406932804" y1="665.505392424" y2="663.452497785" /><line stroke="rgb(0%,0%,0%)" x1="339.406932804" x2="338.841247749" y1="663.452497785" y2="658.325591334" /><line stroke="rgb(0%,0%,0%)" x1="337.864798988" x2="339.219432628" y1="655.399547928" y2="647.10821197" /><line stroke="rgb(0%,0%,0%)" x1="347.633608063" x2="348.080632186" y1="643.092665568" y2="643.053982139" /><line stroke="rgb(0%,0%,0%)" x1="348.080632186" x2="348.92923941" y1="643.053982139" y2="642.644951092" /><line stroke="rgb(0%,0%,0%)" x1="278.234106446" x2="271.866257395" y1="729.404604579" y2="727.945040152" /><line stroke="rgb(0%,0%,0%)" x1="288.653843529" x2="295.395435695" y1="729.15200985" y2="726.801635796" /><line stroke="rgb(0%,0%,0%)" x1="295.395435695" x2="298.121997003" y1="726.801635796" y2="726.456435607" /><line stroke="rgb(0%,0%,0%)" x1="284.945700405" x2="288.653843529" y1="729.966370985" y2="729.15200985" /><line stroke="rgb(0%,0%,0%)" x1="298.121997003" x2="310.438581801" y1="726.456435607" y2="724.105872939" /><line stroke="rgb(0%,0%,0%)" x1="310.438581801" x2="317.629565996" y1="724.105872939" y2="720.697536702" /><line stroke="rgb(0%,0%,0%)" x1="317.629565996" x2="321.281976534" y1="720.697536702" y2="715.479764578" /><line stroke="rgb(0%,0%,0%)" x1="238.500139842" x2="239.266740362" y1="681.010067797" y2="685.581841347" /><line stroke="rgb(0%,0%,0%)" x1="238.500139842" x2="236.751177862" y1="681.010067797" y2="677.047165555" /><line stroke="rgb(0%,0%,0%)" x1="233.303735397" x2="233.989112025" y1="666.283927761" y2="669.953131426" /><line stroke="rgb(0%,0%,0%)" x1="231.600883424" x2="231.613617455" y1="663.105525203" y2="663.832466947" /><line stroke="rgb(0%,0%,0%)" x1="231.613617455" x2="233.303735397" y1="663.832466947" y2="666.283927761" /><line stroke="rgb(0%,0%,0%)" x1="231.218473079" x2="231.228970709" y1="662.738019182" y2="662.304223922" /><line stroke="rgb(0%,0%,0%)" x1="231.228970709" x2="230.6284947" y1="662.304223922" y2="659.841245254" /><line stroke="rgb(0%,0%,0%)" x1="250.221543156" x2="248.790254809" y1="711.599640564" y2="709.23596384" /><line stroke="rgb(0%,0%,0%)" x1="243.304210042" x2="248.790254809" y1="699.776489419" y2="709.23596384" /><line stroke="rgb(0%,0%,0%)" x1="239.266740362" x2="243.304210042" y1="685.581841347" y2="699.776489419" /><line stroke="rgb(0%,0%,0%)" x1="255.272142198" x2="271.866257395" y1="716.125607426" y2="727.945040152" /><line stroke="rgb(0%,0%,0%)" x1="250.221543156" x2="255.272142198" y1="711.599640564" y2="716.125607426" /><line stroke="rgb(0%,0%,0%)" x1="278.234106446" x2="284.945700405" y1="729.404604579" y2="729.966370985" /><line stroke="rgb(0%,0%,0%)" x1="194.635312492" x2="196.099155936" y1="640.442492814" y2="641.348479274" /><line stroke="rgb(0%,0%,0%)" x1="194.635312492" x2="191.729315771" y1="640.442492814" y2="639.85614903" /><line stroke="rgb(0%,0%,0%)" x1="214.473195621" x2="216.003855527" y1="648.000239057" y2="648.393079918" /><line stroke="rgb(0%,0%,0%)" x1="216.003855527" x2="216.6467986" y1="648.393079918" y2="648.635811143" /><line stroke="rgb(0%,0%,0%)" x1="211.075111618" x2="214.473195621" y1="646.747400108" y2="648.000239057" /><line stroke="rgb(0%,0%,0%)" x1="211.075111618" x2="208.667232941" y1="646.747400108" y2="646.270447348" /><line stroke="rgb(0%,0%,0%)" x1="205.198089488" x2="208.667232941" y1="644.837224516" y2="646.270447348" /><line stroke="rgb(0%,0%,0%)" x1="203.621226004" x2="205.198089488" y1="643.442644742" y2="644.837224516" /><line stroke="rgb(0%,0%,0%)" x1="227.280912208" x2="227.794683347" y1="652.712045349" y2="653.653346558" /><line stroke="rgb(0%,0%,0%)" x1="226.291428131" x2="227.280912208" y1="652.28178664" y2="652.712045349" /><line stroke="rgb(0%,0%,0%)" x1="226.291428131" x2="221.17527116" y1="652.28178664" y2="650.717444603" /><line stroke="rgb(0%,0%,0%)" x1="220.794800019" x2="221.17527116" y1="650.536749424" y2="650.717444603" /><line stroke="rgb(0%,0%,0%)" x1="220.364354209" x2="218.45639581" y1="650.359034577" y2="649.229416424" /><line stroke="rgb(0%,0%,0%)" x1="220.364354209" x2="220.571328782" y1="650.359034577" y2="650.465304986" /><line stroke="rgb(0%,0%,0%)" x1="216.6467986" x2="217.460081619" y1="648.635811143" y2="649.268362736" /><line stroke="rgb(0%,0%,0%)" x1="217.460081619" x2="217.626076919" y1="649.268362736" y2="649.267153773" /><line stroke="rgb(0%,0%,0%)" x1="235.008798733" x2="236.751177862" y1="672.339146184" y2="677.047165555" /><line stroke="rgb(0%,0%,0%)" x1="233.989112025" x2="235.008798733" y1="669.953131426" y2="672.339146184" /><line stroke="rgb(0%,0%,0%)" x1="231.600883424" x2="231.218473079" y1="663.105525203" y2="662.738019182" /><line stroke="rgb(0%,0%,0%)" x1="229.676140969" x2="230.6284947" y1="655.799773128" y2="659.841245254" /><line stroke="rgb(0%,0%,0%)" x1="229.676140969" x2="227.794683347" y1="655.799773128" y2="653.653346558" /><line stroke="rgb(0%,0%,0%)" x1="169.403087727" x2="152.132753585" y1="636.844195071" y2="632.079588428" /><line stroke="rgb(0%,0%,0%)" x1="169.403087727" x2="171.854700463" y1="636.844195071" y2="637.275002623" /><line stroke="rgb(0%,0%,0%)" x1="171.854700463" x2="176.234116291" y1="637.275002623" y2="637.583604692" /><line stroke="rgb(0%,0%,0%)" x1="184.701084503" x2="191.729315771" y1="639.013470864" y2="639.85614903" /><line stroke="rgb(0%,0%,0%)" x1="176.234116291" x2="184.701084503" y1="637.583604692" y2="639.013470864" /><line stroke="rgb(0%,0%,0%)" x1="197.094006256" x2="197.477674141" y1="641.900439885" y2="642.04381231" /><line stroke="rgb(0%,0%,0%)" x1="196.099155936" x2="197.094006256" y1="641.348479274" y2="641.900439885" /><line stroke="rgb(0%,0%,0%)" x1="203.621226004" x2="197.477674141" y1="643.442644742" y2="642.04381231" /><line stroke="rgb(0%,0%,0%)" x1="220.808582508" x2="220.794800019" y1="650.511595176" y2="650.536749424" /><line stroke="rgb(0%,0%,0%)" x1="220.571328782" x2="220.808582508" y1="650.465304986" y2="650.511595176" /><line stroke="rgb(0%,0%,0%)" x1="109.620946958" x2="116.545024767" y1="619.113251271" y2="621.344970777" /><line stroke="rgb(0%,0%,0%)" x1="128.349402315" x2="148.216081176" y1="625.018908208" y2="630.898510836" /><line stroke="rgb(0%,0%,0%)" x1="148.988533872" x2="152.132753585" y1="631.090589112" y2="632.079588428" /><line stroke="rgb(0%,0%,0%)" x1="148.216081176" x2="148.988533872" y1="630.898510836" y2="631.090589112" /><line stroke="rgb(0%,0%,0%)" x1="84.9960844731" x2="81.7090538219" y1="607.012402947" y2="604.339081226" /><line stroke="rgb(0%,0%,0%)" x1="87.1596131306" x2="92.651229639" y1="608.814771524" y2="612.053129179" /><line stroke="rgb(0%,0%,0%)" x1="84.9960844731" x2="87.1596131306" y1="607.012402947" y2="608.814771524" /><line stroke="rgb(0%,0%,0%)" x1="102.717035497" x2="109.620946958" y1="615.885018057" y2="619.113251271" /><line stroke="rgb(0%,0%,0%)" x1="102.717035497" x2="100.183854839" y1="615.885018057" y2="615.094012214" /><line stroke="rgb(0%,0%,0%)" x1="92.651229639" x2="100.183854839" y1="612.053129179" y2="615.094012214" /><line stroke="rgb(0%,0%,0%)" x1="116.545024767" x2="120.526802056" y1="621.344970777" y2="621.977361743" /><line stroke="rgb(0%,0%,0%)" x1="120.526802056" x2="128.349402315" y1="621.977361743" y2="625.018908208" /><line stroke="rgb(0%,0%,0%)" x1="54.9059181761" x2="56.4107376577" y1="550.197328092" y2="552.140919363" /><line stroke="rgb(0%,0%,0%)" x1="49.0382954226" x2="50.7062080332" y1="540.327479138" y2="542.759747131" /><line stroke="rgb(0%,0%,0%)" x1="49.0382954226" x2="48.5433927525" y1="540.327479138" y2="539.241841032" /><line stroke="rgb(0%,0%,0%)" x1="48.5433927525" x2="48.4967374982" y1="539.241841032" y2="533.723994186" /><line stroke="rgb(0%,0%,0%)" x1="46.7987331921" x2="48.4967374982" y1="525.178869213" y2="533.723994186" /><line stroke="rgb(0%,0%,0%)" x1="48.8667352838" x2="48.102018962" y1="519.055231193" y2="520.299447593" /><line stroke="rgb(0%,0%,0%)" x1="50.057033129" x2="48.8667352838" y1="516.423664497" y2="519.055231193" /><line stroke="rgb(0%,0%,0%)" x1="50.057033129" x2="50.3577993003" y1="516.423664497" y2="515.653176745" /><line stroke="rgb(0%,0%,0%)" x1="69.5468037985" x2="63.888487423" y1="590.78764761" y2="585.638615439" /><line stroke="rgb(0%,0%,0%)" x1="62.5483595027" x2="63.888487423" y1="583.988342966" y2="585.638615439" /><line stroke="rgb(0%,0%,0%)" x1="56.8660722072" x2="60.6491181772" y1="566.156144638" y2="579.189088663" /><line stroke="rgb(0%,0%,0%)" x1="60.6491181772" x2="62.5483595027" y1="579.189088663" y2="583.988342966" /><line stroke="rgb(0%,0%,0%)" x1="56.6602925383" x2="56.8660722072" y1="562.381967289" y2="566.156144638" /><line stroke="rgb(0%,0%,0%)" x1="56.4107376577" x2="56.6602925383" y1="552.140919363" y2="562.381967289" /><line stroke="rgb(0%,0%,0%)" x1="73.5417901995" x2="81.7090538219" y1="594.68511054" y2="604.339081226" /><line stroke="rgb(0%,0%,0%)" x1="73.5417901995" x2="69.5468037985" y1="594.68511054" y2="590.78764761" /><line stroke="rgb(0%,0%,0%)" x1="24.5489819261" x2="28.3577188844" y1="472.570597894" y2="478.547680255" /><line stroke="rgb(0%,0%,0%)" x1="28.3577188844" x2="28.5833872692" y1="478.547680255" y2="478.857038862" /><line stroke="rgb(0%,0%,0%)" x1="23.8766059576" x2="24.5489819261" y1="468.673857156" y2="472.570597894" /><line stroke="rgb(0%,0%,0%)" x1="24.0613941569" x2="23.8766059576" y1="466.70065196" y2="468.673857156" /><line stroke="rgb(0%,0%,0%)" x1="24.0613941569" x2="25.6898469817" y1="466.70065196" y2="461.876784197" /><line stroke="rgb(0%,0%,0%)" x1="40.1248303472" x2="41.3488221146" y1="500.316768784" y2="502.308174445" /><line stroke="rgb(0%,0%,0%)" x1="36.4815003449" x2="37.4931120218" y1="491.865750013" y2="494.639364145" /><line stroke="rgb(0%,0%,0%)" x1="37.4931120218" x2="40.1248303472" y1="494.639364145" y2="500.316768784" /><line stroke="rgb(0%,0%,0%)" x1="36.4815003449" x2="36.0311638693" y1="491.865750013" y2="490.294539431" /><line stroke="rgb(0%,0%,0%)" x1="36.0311638693" x2="33.4989206837" y1="490.294539431" y2="488.406855389" /><line stroke="rgb(0%,0%,0%)" x1="33.1903342213" x2="33.4989206837" y1="487.271134127" y2="488.406855389" /><line stroke="rgb(0%,0%,0%)" x1="30.6032105084" x2="33.1903342213" y1="484.314240164" y2="487.271134127" /><line stroke="rgb(0%,0%,0%)" x1="30.6032105084" x2="28.7765303878" y1="484.314240164" y2="479.452828318" /><line stroke="rgb(0%,0%,0%)" x1="28.5833872692" x2="28.7765303878" y1="478.857038862" y2="479.452828318" /><line stroke="rgb(0%,0%,0%)" x1="50.7062080332" x2="54.9059181761" y1="542.759747131" y2="550.197328092" /><line stroke="rgb(0%,0%,0%)" x1="48.102018962" x2="46.7987331921" y1="520.299447593" y2="525.178869213" /><line stroke="rgb(0%,0%,0%)" x1="50.6098798033" x2="43.9212280634" y1="514.739092433" y2="506.916312693" /><line stroke="rgb(0%,0%,0%)" x1="50.6098798033" x2="50.3577993003" y1="514.739092433" y2="515.653176745" /><line stroke="rgb(0%,0%,0%)" x1="42.3910316734" x2="43.9212280634" y1="504.48011444" y2="506.916312693" /><line stroke="rgb(0%,0%,0%)" x1="41.3488221146" x2="42.3910316734" y1="502.308174445" y2="504.48011444" /><line stroke="rgb(0%,0%,0%)" x1="26.1906762061" x2="25.6898469817" y1="460.018046149" y2="461.876784197" /><line stroke="rgb(0%,0%,0%)" x1="26.5083195628" x2="26.1906762061" y1="459.505309749" y2="460.018046149" /><line stroke="rgb(0%,0%,0%)" x1="507.546177023" x2="507.504021417" y1="507.118837981" y2="507.221573159" /><line stroke="rgb(0%,0%,0%)" x1="507.546177023" x2="507.583919925" y1="507.118837981" y2="507.015384095" /><line stroke="rgb(0%,0%,0%)" x1="517.067026975" x2="519.792835344" y1="487.342940166" y2="483.169711694" /><line stroke="rgb(0%,0%,0%)" x1="517.067026975" x2="513.772789025" y1="487.342940166" y2="496.734115236" /><line stroke="rgb(0%,0%,0%)" x1="519.792835344" x2="520.735422514" y1="483.169711694" y2="479.877235207" /><line stroke="rgb(0%,0%,0%)" x1="520.735422514" x2="522.427561683" y1="479.877235207" y2="472.243606981" /><line stroke="rgb(0%,0%,0%)" x1="522.427561683" x2="522.611052084" y1="472.243606981" y2="469.955889233" /><line stroke="rgb(0%,0%,0%)" x1="523.098405144" x2="522.611052084" y1="467.538144499" y2="469.955889233" /><line stroke="rgb(0%,0%,0%)" x1="523.098405144" x2="522.462632784" y1="467.538144499" y2="459.404561562" /><line stroke="rgb(0%,0%,0%)" x1="454.284478347" x2="449.849325466" y1="571.185312386" y2="574.919183486" /><line stroke="rgb(0%,0%,0%)" x1="454.284478347" x2="465.585088078" y1="571.185312386" y2="560.913174927" /><line stroke="rgb(0%,0%,0%)" x1="465.615927426" x2="465.585088078" y1="560.89041329" y2="560.913174927" /><line stroke="rgb(0%,0%,0%)" x1="465.751370237" x2="467.786567857" y1="560.672848705" y2="558.557018319" /><line stroke="rgb(0%,0%,0%)" x1="467.786567857" x2="470.622311999" y1="558.557018319" y2="556.331166831" /><line stroke="rgb(0%,0%,0%)" x1="465.615927426" x2="465.751370237" y1="560.89041329" y2="560.672848705" /><line stroke="rgb(0%,0%,0%)" x1="475.027892398" x2="470.622311999" y1="553.714603989" y2="556.331166831" /><line stroke="rgb(0%,0%,0%)" x1="475.027892398" x2="478.598544819" y1="553.714603989" y2="550.36098166" /><line stroke="rgb(0%,0%,0%)" x1="480.85738029" x2="478.598544819" y1="549.362172887" y2="550.36098166" /><line stroke="rgb(0%,0%,0%)" x1="480.85738029" x2="485.790902755" y1="549.362172887" y2="545.00896119" /><line stroke="rgb(0%,0%,0%)" x1="485.790902755" x2="486.28341729" y1="545.00896119" y2="544.422955605" /><line stroke="rgb(0%,0%,0%)" x1="495.357020563" x2="486.28341729" y1="534.100631208" y2="544.422955605" /><line stroke="rgb(0%,0%,0%)" x1="495.357020563" x2="496.577883979" y1="534.100631208" y2="531.998909513" /><line stroke="rgb(0%,0%,0%)" x1="496.577883979" x2="499.061023074" y1="531.998909513" y2="526.541613761" /><line stroke="rgb(0%,0%,0%)" x1="501.104420421" x2="499.061023074" y1="520.865161115" y2="526.541613761" /><line stroke="rgb(0%,0%,0%)" x1="501.104420421" x2="502.772728519" y1="520.865161115" y2="518.414526481" /><line stroke="rgb(0%,0%,0%)" x1="502.772728519" x2="507.504021417" y1="518.414526481" y2="507.221573159" /><line stroke="rgb(0%,0%,0%)" x1="507.583919925" x2="513.772789025" y1="507.015384095" y2="496.734115236" /><line stroke="rgb(0%,0%,0%)" x1="448.816599561" x2="449.849325466" y1="575.662395886" y2="574.919183486" /><line stroke="rgb(0%,0%,0%)" x1="217.626076919" x2="218.45639581" y1="649.267153773" y2="649.229416424" /></svg>