<?xml version="1.0" encoding="utf-8" ?>
<svg baseProfile="full" height="100%" version="1.1" viewBox="0.5 0.5 685.793960571 941.299331665" width="100%" xmlns="http://www.w3.org/2000/svg" xmlns:ev="http://www.w3.org/2001/xml-events" xmlns:xlink="http://www.w3.org/1999/xlink"><defs /><line stroke="rgb(0%,0%,0%)" x1="506.92011878" x2="505.154973644" y1="407.517492345" y2="404.064299832" /><line stroke="rgb(0%,0%,0%)" x1="505.154973644" x2="503.369181219" y1="404.064299832" y2="400.54301616" /><line stroke="rgb(0%,0%,0%)" x1="519.532314491" x2="516.556312099" y1="431.051915089" y2="424.255674238" /><line stroke="rgb(0%,0%,0%)" x1="516.556312099" x2="514.773557328" y1="424.255674238" y2="422.33594731" /><line stroke="rgb(0%,0%,0%)" x1="507.179639591" x2="508.935685275" y1="408.499707346" y2="412.716148436" /><line stroke="rgb(0%,0%,0%)" x1="506.92011878" x2="507.179639591" y1="407.517492345" y2="408.499707346" /><line stroke="rgb(0%,0%,0%)" x1="523.715539196" x2="523.570403262" y1="459.433021213" y2="457.513914516" /><line stroke="rgb(0%,0%,0%)" x1="523.570403262" x2="523.121769714" y1="457.513914516" y2="443.396126934" /><line stroke="rgb(0%,0%,0%)" x1="523.121769714" x2="523.100691286" y1="443.396126934" y2="442.064144478" /><line stroke="rgb(0%,0%,0%)" x1="523.100691286" x2="522.979387791" y1="442.064144478" y2="441.730672565" /><line stroke="rgb(0%,0%,0%)" x1="522.979387791" x2="522.946308325" y1="441.730672565" y2="441.265063367" /><line stroke="rgb(0%,0%,0%)" x1="522.946308325" x2="522.791304608" y1="441.265063367" y2="440.587949462" /><line stroke="rgb(0%,0%,0%)" x1="519.532314491" x2="522.791304608" y1="431.051915089" y2="440.587949462" /><line stroke="rgb(0%,0%,0%)" x1="503.369181219" x2="498.893978028" y1="400.54301616" y2="391.689175526" /><line stroke="rgb(0%,0%,0%)" x1="498.893978028" x2="497.148640019" y1="391.689175526" y2="388.564228632" /><line stroke="rgb(0%,0%,0%)" x1="514.773557328" x2="508.935685275" y1="422.33594731" y2="412.716148436" /><line stroke="rgb(0%,0%,0%)" x1="431.173986239" x2="433.470594923" y1="316.963571845" y2="320.756828722" /><line stroke="rgb(0%,0%,0%)" x1="444.341252323" x2="452.051122604" y1="333.639390676" y2="342.079859202" /><line stroke="rgb(0%,0%,0%)" x1="388.693526721" x2="391.586843268" y1="286.844583982" y2="288.124250681" /><line stroke="rgb(0%,0%,0%)" x1="388.693526721" x2="388.31609118" y1="286.844583982" y2="285.86921157" /><line stroke="rgb(0%,0%,0%)" x1="404.465481065" x2="408.548910266" y1="291.331954349" y2="293.815250933" /><line stroke="rgb(0%,0%,0%)" x1="411.988384949" x2="416.454188774" y1="297.225827504" y2="299.983366506" /><line stroke="rgb(0%,0%,0%)" x1="411.988384949" x2="408.548910266" y1="297.225827504" y2="293.815250933" /><line stroke="rgb(0%,0%,0%)" x1="431.173986239" x2="429.186665259" y1="316.963571845" y2="313.11583066" /><line stroke="rgb(0%,0%,0%)" x1="429.186665259" x2="424.643599798" y1="313.11583066" y2="306.368759647" /><line stroke="rgb(0%,0%,0%)" x1="424.643599798" x2="421.053234608" y1="306.368759647" y2="302.660869438" /><line stroke="rgb(0%,0%,0%)" x1="438.380511095" x2="441.894111091" y1="326.563816644" y2="330.048002649" /><line stroke="rgb(0%,0%,0%)" x1="438.380511095" x2="433.470594923" y1="326.563816644" y2="320.756828722" /><line stroke="rgb(0%,0%,0%)" x1="444.341252323" x2="443.79773088" y1="333.639390676" y2="332.897334584" /><line stroke="rgb(0%,0%,0%)" x1="443.79773088" x2="442.41807688" y1="332.897334584" y2="331.288887347" /><line stroke="rgb(0%,0%,0%)" x1="442.41807688" x2="441.894111091" y1="331.288887347" y2="330.048002649" /><line stroke="rgb(0%,0%,0%)" x1="381.364304342" x2="379.174504365" y1="279.296302789" y2="278.085162721" /><line stroke="rgb(0%,0%,0%)" x1="381.364304342" x2="383.188892541" y1="279.296302789" y2="280.477013161" /><line stroke="rgb(0%,0%,0%)" x1="375.312294719" x2="372.773899453" y1="276.964567821" y2="276.356791757" /><line stroke="rgb(0%,0%,0%)" x1="379.174504365" x2="375.312294719" y1="278.085162721" y2="276.964567821" /><line stroke="rgb(0%,0%,0%)" x1="372.773899453" x2="371.476665056" y1="276.356791757" y2="274.887010349" /><line stroke="rgb(0%,0%,0%)" x1="371.476665056" x2="366.542116115" y1="274.887010349" y2="272.16751122" /><line stroke="rgb(0%,0%,0%)" x1="394.428827227" x2="391.586843268" y1="289.593974009" y2="288.124250681" /><line stroke="rgb(0%,0%,0%)" x1="388.31609118" x2="386.141130382" y1="285.86921157" y2="283.285458825" /><line stroke="rgb(0%,0%,0%)" x1="386.141130382" x2="383.188892541" y1="283.285458825" y2="280.477013161" /><line stroke="rgb(0%,0%,0%)" x1="404.465481065" x2="400.327106635" y1="291.331954349" y2="290.830581453" /><line stroke="rgb(0%,0%,0%)" x1="400.327106635" x2="394.428827227" y1="290.830581453" y2="289.593974009" /><line stroke="rgb(0%,0%,0%)" x1="420.594277449" x2="416.454188774" y1="302.282246465" y2="299.983366506" /><line stroke="rgb(0%,0%,0%)" x1="421.053234608" x2="420.594277449" y1="302.660869438" y2="302.282246465" /><line stroke="rgb(0%,0%,0%)" x1="343.114015501" x2="334.470357587" y1="245.8849303" y2="241.922644046" /><line stroke="rgb(0%,0%,0%)" x1="353.497131778" x2="353.391972772" y1="265.489723041" y2="261.275589139" /><line stroke="rgb(0%,0%,0%)" x1="353.497131778" x2="356.142615507" y1="265.489723041" y2="269.570911395" /><line stroke="rgb(0%,0%,0%)" x1="353.391972772" x2="354.168606122" y1="261.275589139" y2="257.566832798" /><line stroke="rgb(0%,0%,0%)" x1="349.420869089" x2="352.989553149" y1="249.288709735" y2="255.19493173" /><line stroke="rgb(0%,0%,0%)" x1="354.168606122" x2="352.989553149" y1="257.566832798" y2="255.19493173" /><line stroke="rgb(0%,0%,0%)" x1="349.420869089" x2="343.114015501" y1="249.288709735" y2="245.8849303" /><line stroke="rgb(0%,0%,0%)" x1="359.947338075" x2="365.185503031" y1="271.4204898" y2="271.81648167" /><line stroke="rgb(0%,0%,0%)" x1="366.542116115" x2="366.156818104" y1="272.16751122" y2="271.970833692" /><line stroke="rgb(0%,0%,0%)" x1="359.947338075" x2="356.788773164" y1="271.4204898" y2="270.924578708" /><line stroke="rgb(0%,0%,0%)" x1="365.806224186" x2="365.185503031" y1="271.948103742" y2="271.81648167" /><line stroke="rgb(0%,0%,0%)" x1="366.156818104" x2="365.806224186" y1="271.970833692" y2="271.948103742" /><line stroke="rgb(0%,0%,0%)" x1="356.788773164" x2="356.69671214" y1="270.924578708" y2="270.883611181" /><line stroke="rgb(0%,0%,0%)" x1="356.69671214" x2="356.142615507" y1="270.883611181" y2="269.570911395" /><line stroke="rgb(0%,0%,0%)" x1="313.955142661" x2="320.114715388" y1="221.420061351" y2="224.946553844" /><line stroke="rgb(0%,0%,0%)" x1="334.470357587" x2="323.684321765" y1="241.922644046" y2="228.497702151" /><line stroke="rgb(0%,0%,0%)" x1="321.270058111" x2="320.114715388" y1="225.256625459" y2="224.946553844" /><line stroke="rgb(0%,0%,0%)" x1="321.917921104" x2="321.270058111" y1="225.978746285" y2="225.256625459" /><line stroke="rgb(0%,0%,0%)" x1="323.684321765" x2="321.917921104" y1="228.497702151" y2="225.978746285" /><line stroke="rgb(0%,0%,0%)" x1="284.527260552" x2="274.689907655" y1="210.112944577" y2="209.293868832" /><line stroke="rgb(0%,0%,0%)" x1="296.3054786" x2="284.527260552" y1="209.249175723" y2="210.112944577" /><line stroke="rgb(0%,0%,0%)" x1="300.587022385" x2="296.3054786" y1="209.541428749" y2="209.249175723" /><line stroke="rgb(0%,0%,0%)" x1="313.955142661" x2="300.587022385" y1="221.420061351" y2="209.541428749" /><line stroke="rgb(0%,0%,0%)" x1="227.112531068" x2="227.454908732" y1="270.133317614" y2="270.110995855" /><line stroke="rgb(0%,0%,0%)" x1="227.112531068" x2="226.908454986" y1="270.133317614" y2="270.109114805" /><line stroke="rgb(0%,0%,0%)" x1="226.908454986" x2="226.800251682" y1="270.109114805" y2="270.073754579" /><line stroke="rgb(0%,0%,0%)" x1="234.711989337" x2="236.884485488" y1="270.711016675" y2="270.859126529" /><line stroke="rgb(0%,0%,0%)" x1="227.454908732" x2="232.084593656" y1="270.110995855" y2="270.246591606" /><line stroke="rgb(0%,0%,0%)" x1="234.711989337" x2="233.35332213" y1="270.711016675" y2="270.299370335" /><line stroke="rgb(0%,0%,0%)" x1="236.884485488" x2="239.600680457" y1="270.859126529" y2="270.595768005" /><line stroke="rgb(0%,0%,0%)" x1="241.862594256" x2="241.143951293" y1="268.053280453" y2="269.344611922" /><line stroke="rgb(0%,0%,0%)" x1="241.143951293" x2="240.418581313" y1="269.344611922" y2="270.346542156" /><line stroke="rgb(0%,0%,0%)" x1="244.426962735" x2="243.096824383" y1="252.564667538" y2="255.87060719" /><line stroke="rgb(0%,0%,0%)" x1="243.096824383" x2="241.735322607" y1="255.87060719" y2="259.240638995" /><line stroke="rgb(0%,0%,0%)" x1="243.913216762" x2="244.426962735" y1="251.919476036" y2="252.564667538" /><line stroke="rgb(0%,0%,0%)" x1="243.913216762" x2="244.282411243" y1="251.919476036" y2="243.041387327" /><line stroke="rgb(0%,0%,0%)" x1="246.176961925" x2="245.26703452" y1="233.97200345" y2="239.018043937" /><line stroke="rgb(0%,0%,0%)" x1="246.176961925" x2="247.502083832" y1="233.97200345" y2="227.56285002" /><line stroke="rgb(0%,0%,0%)" x1="248.829037665" x2="247.502083832" y1="224.184962535" y2="227.56285002" /><line stroke="rgb(0%,0%,0%)" x1="250.003911612" x2="248.829037665" y1="222.216267914" y2="224.184962535" /><line stroke="rgb(0%,0%,0%)" x1="257.862676857" x2="269.2100154" y1="216.862154755" y2="212.736987427" /><line stroke="rgb(0%,0%,0%)" x1="257.862676857" x2="250.003911612" y1="216.862154755" y2="222.216267914" /><line stroke="rgb(0%,0%,0%)" x1="274.689907655" x2="269.2100154" y1="209.293868832" y2="212.736987427" /><line stroke="rgb(0%,0%,0%)" x1="177.685336972" x2="183.041334155" y1="274.600579243" y2="273.703152717" /><line stroke="rgb(0%,0%,0%)" x1="177.685336972" x2="175.291383555" y1="274.600579243" y2="275.238881075" /><line stroke="rgb(0%,0%,0%)" x1="192.225438967" x2="190.026260597" y1="273.086537574" y2="273.229883332" /><line stroke="rgb(0%,0%,0%)" x1="223.362252233" x2="214.530175514" y1="270.143684839" y2="271.036192728" /><line stroke="rgb(0%,0%,0%)" x1="223.362252233" x2="224.598207092" y1="270.143684839" y2="270.02238859" /><line stroke="rgb(0%,0%,0%)" x1="226.800251682" x2="224.598207092" y1="270.073754579" y2="270.02238859" /><line stroke="rgb(0%,0%,0%)" x1="233.246882352" x2="232.084593656" y1="270.280522875" y2="270.246591606" /><line stroke="rgb(0%,0%,0%)" x1="233.35332213" x2="233.246882352" y1="270.299370335" y2="270.280522875" /><line stroke="rgb(0%,0%,0%)" x1="240.418581313" x2="239.600680457" y1="270.346542156" y2="270.595768005" /><line stroke="rgb(0%,0%,0%)" x1="242.468699397" x2="241.862594256" y1="268.100912141" y2="268.053280453" /><line stroke="rgb(0%,0%,0%)" x1="242.468699397" x2="241.339432153" y1="268.100912141" y2="263.558107437" /><line stroke="rgb(0%,0%,0%)" x1="241.34541675" x2="241.339432153" y1="261.607651159" y2="263.558107437" /><line stroke="rgb(0%,0%,0%)" x1="241.34541675" x2="241.609435782" y1="261.607651159" y2="260.425500259" /><line stroke="rgb(0%,0%,0%)" x1="241.735322607" x2="241.609435782" y1="259.240638995" y2="260.425500259" /><line stroke="rgb(0%,0%,0%)" x1="244.504788147" x2="244.282411243" y1="241.242224759" y2="243.041387327" /><line stroke="rgb(0%,0%,0%)" x1="245.26703452" x2="244.504788147" y1="239.018043937" y2="241.242224759" /><line stroke="rgb(0%,0%,0%)" x1="175.291383555" x2="172.394948418" y1="275.238881075" y2="276.029417246" /><line stroke="rgb(0%,0%,0%)" x1="192.225438967" x2="195.321685748" y1="273.086537574" y2="272.7630319" /><line stroke="rgb(0%,0%,0%)" x1="190.026260597" x2="183.041334155" y1="273.229883332" y2="273.703152717" /><line stroke="rgb(0%,0%,0%)" x1="202.358547453" x2="210.399663807" y1="272.474944867" y2="271.658081039" /><line stroke="rgb(0%,0%,0%)" x1="214.530175514" x2="211.117230628" y1="271.036192728" y2="271.519396077" /><line stroke="rgb(0%,0%,0%)" x1="210.914377027" x2="210.399663807" y1="271.547415668" y2="271.658081039" /><line stroke="rgb(0%,0%,0%)" x1="211.117230628" x2="210.914377027" y1="271.519396077" y2="271.547415668" /><line stroke="rgb(0%,0%,0%)" x1="142.542571738" x2="132.898241761" y1="288.903692136" y2="292.4931739" /><line stroke="rgb(0%,0%,0%)" x1="142.542571738" x2="146.778075589" y1="288.903692136" y2="286.034849835" /><line stroke="rgb(0%,0%,0%)" x1="164.946559987" x2="156.894299511" y1="277.595198389" y2="281.858904526" /><line stroke="rgb(0%,0%,0%)" x1="172.394948418" x2="165.692481448" y1="276.029417246" y2="277.329111985" /><line stroke="rgb(0%,0%,0%)" x1="165.692481448" x2="164.946559987" y1="277.329111985" y2="277.595198389" /><line stroke="rgb(0%,0%,0%)" x1="200.998249252" x2="195.321685748" y1="272.359915918" y2="272.7630319" /><line stroke="rgb(0%,0%,0%)" x1="202.358547453" x2="200.998249252" y1="272.474944867" y2="272.359915918" /><line stroke="rgb(0%,0%,0%)" x1="93.7688236065" x2="98.3353547204" y1="310.291101441" y2="307.808450852" /><line stroke="rgb(0%,0%,0%)" x1="116.298240023" x2="110.364487984" y1="300.474417574" y2="302.282784034" /><line stroke="rgb(0%,0%,0%)" x1="116.298240023" x2="127.117549222" y1="300.474417574" y2="295.244698421" /><line stroke="rgb(0%,0%,0%)" x1="150.211091922" x2="156.674611158" y1="284.530439549" y2="281.95254945" /><line stroke="rgb(0%,0%,0%)" x1="150.211091922" x2="146.778075589" y1="284.530439549" y2="286.034849835" /><line stroke="rgb(0%,0%,0%)" x1="156.894299511" x2="156.73436048" y1="281.858904526" y2="281.95463444" /><line stroke="rgb(0%,0%,0%)" x1="156.73436048" x2="156.674611158" y1="281.95463444" y2="281.95254945" /><line stroke="rgb(0%,0%,0%)" x1="54.4871843914" x2="54.4567659549" y1="374.85835123" y2="374.905269231" /><line stroke="rgb(0%,0%,0%)" x1="54.4871843914" x2="54.5340123478" y1="374.85835123" y2="374.78665288" /><line stroke="rgb(0%,0%,0%)" x1="76.2199381258" x2="74.3452000935" y1="325.606248258" y2="327.289474155" /><line stroke="rgb(0%,0%,0%)" x1="74.3452000935" x2="65.8632137085" y1="327.289474155" y2="335.056276813" /><line stroke="rgb(0%,0%,0%)" x1="89.5625987001" x2="83.0552973084" y1="312.830271316" y2="318.115409092" /><line stroke="rgb(0%,0%,0%)" x1="93.7688236065" x2="89.5625987001" y1="310.291101441" y2="312.830271316" /><line stroke="rgb(0%,0%,0%)" x1="106.029301383" x2="98.3353547204" y1="304.259584312" y2="307.808450852" /><line stroke="rgb(0%,0%,0%)" x1="110.364487984" x2="106.029301383" y1="302.282784034" y2="304.259584312" /><line stroke="rgb(0%,0%,0%)" x1="129.609959285" x2="127.117549222" y1="294.39776745" y2="295.244698421" /><line stroke="rgb(0%,0%,0%)" x1="132.898241761" x2="129.609959285" y1="292.4931739" y2="294.39776745" /><line stroke="rgb(0%,0%,0%)" x1="49.1110831121" x2="50.6619962618" y1="409.239039566" y2="407.064166271" /><line stroke="rgb(0%,0%,0%)" x1="47.1859699028" x2="49.1110831121" y1="411.395733888" y2="409.239039566" /><line stroke="rgb(0%,0%,0%)" x1="54.4567659549" x2="53.7684667025" y1="374.905269231" y2="375.918769628" /><line stroke="rgb(0%,0%,0%)" x1="57.3445790754" x2="54.5340123478" y1="369.590393808" y2="374.78665288" /><line stroke="rgb(0%,0%,0%)" x1="57.3445790754" x2="57.3379950736" y1="369.590393808" y2="361.41597367" /><line stroke="rgb(0%,0%,0%)" x1="57.5778871155" x2="57.3379950736" y1="359.409854494" y2="361.41597367" /><line stroke="rgb(0%,0%,0%)" x1="60.5909280054" x2="58.0251775359" y1="348.123520836" y2="358.008767682" /><line stroke="rgb(0%,0%,0%)" x1="58.0251775359" x2="57.5778871155" y1="358.008767682" y2="359.409854494" /><line stroke="rgb(0%,0%,0%)" x1="65.8632137085" x2="63.0623896778" y1="335.056276813" y2="341.754156094" /><line stroke="rgb(0%,0%,0%)" x1="83.0552973084" x2="76.2199381258" y1="318.115409092" y2="325.606248258" /><line stroke="rgb(0%,0%,0%)" x1="25.0530497077" x2="24.78201539" y1="453.311642181" y2="449.101199373" /><line stroke="rgb(0%,0%,0%)" x1="25.6631314782" x2="26.1677354227" y1="456.67365481" y2="457.932020097" /><line stroke="rgb(0%,0%,0%)" x1="25.0530497077" x2="25.6631314782" y1="453.311642181" y2="456.67365481" /><line stroke="rgb(0%,0%,0%)" x1="27.9409845922" x2="25.5605401447" y1="441.822921153" y2="446.722078105" /><line stroke="rgb(0%,0%,0%)" x1="25.5605401447" x2="24.78201539" y1="446.722078105" y2="449.101199373" /><line stroke="rgb(0%,0%,0%)" x1="30.7765927829" x2="27.9409845922" y1="437.010152448" y2="441.822921153" /><line stroke="rgb(0%,0%,0%)" x1="35.3776445538" x2="32.7614851188" y1="430.812754725" y2="433.692216584" /><line stroke="rgb(0%,0%,0%)" x1="30.7765927829" x2="32.7614851188" y1="437.010152448" y2="433.692216584" /><line stroke="rgb(0%,0%,0%)" x1="39.9962421838" x2="35.3776445538" y1="425.576002237" y2="430.812754725" /><line stroke="rgb(0%,0%,0%)" x1="39.9962421838" x2="41.504247429" y1="425.576002237" y2="421.789295686" /><line stroke="rgb(0%,0%,0%)" x1="41.504247429" x2="41.8552195711" y1="421.789295686" y2="420.363722443" /><line stroke="rgb(0%,0%,0%)" x1="42.2627939852" x2="41.8552195711" y1="419.534603453" y2="420.363722443" /><line stroke="rgb(0%,0%,0%)" x1="45.530541156" x2="44.0692066435" y1="414.426302236" y2="415.970863749" /><line stroke="rgb(0%,0%,0%)" x1="47.1859699028" x2="45.530541156" y1="411.395733888" y2="414.426302236" /><line stroke="rgb(0%,0%,0%)" x1="50.8760567767" x2="50.6619962618" y1="405.890463025" y2="407.064166271" /><line stroke="rgb(0%,0%,0%)" x1="51.1619974396" x2="50.8760567767" y1="403.745218379" y2="405.890463025" /><line stroke="rgb(0%,0%,0%)" x1="48.9530185517" x2="51.1619974396" y1="394.267483797" y2="403.745218379" /><line stroke="rgb(0%,0%,0%)" x1="49.3637919285" x2="48.9530185517" y1="391.083020243" y2="394.267483797" /><line stroke="rgb(0%,0%,0%)" x1="49.3637919285" x2="50.9344267597" y1="391.083020243" y2="380.696853433" /><line stroke="rgb(0%,0%,0%)" x1="51.0870522397" x2="50.9344267597" y1="380.1106529" y2="380.696853433" /><line stroke="rgb(0%,0%,0%)" x1="51.2835889109" x2="51.0870522397" y1="379.697447726" y2="380.1106529" /><line stroke="rgb(0%,0%,0%)" x1="53.7684667025" x2="51.2835889109" y1="375.918769628" y2="379.697447726" /><line stroke="rgb(0%,0%,0%)" x1="61.8461622359" x2="60.5909280054" y1="344.667116431" y2="348.123520836" /><line stroke="rgb(0%,0%,0%)" x1="63.0623896778" x2="61.8461622359" y1="341.754156094" y2="344.667116431" /><line stroke="rgb(0%,0%,0%)" x1="26.1677354227" x2="26.5766586525" y1="457.932020097" y2="459.209303801" /><line stroke="rgb(0%,0%,0%)" x1="42.477386069" x2="42.2627939852" y1="419.242706291" y2="419.534603453" /><line stroke="rgb(0%,0%,0%)" x1="42.8312864317" x2="42.477386069" y1="418.1412827" y2="419.242706291" /><line stroke="rgb(0%,0%,0%)" x1="44.0692066435" x2="42.8312864317" y1="415.970863749" y2="418.1412827" /><line stroke="rgb(0%,0%,0%)" x1="463.330194623" x2="465.026873071" y1="354.925013173" y2="356.751901941" /><line stroke="rgb(0%,0%,0%)" x1="482.942539906" x2="478.056544384" y1="371.740483876" y2="368.150011248" /><line stroke="rgb(0%,0%,0%)" x1="497.148640019" x2="495.707296015" y1="388.564228632" y2="386.397504024" /><line stroke="rgb(0%,0%,0%)" x1="495.707296015" x2="493.430350683" y1="386.397504024" y2="383.268551708" /><line stroke="rgb(0%,0%,0%)" x1="493.430350683" x2="490.132870479" y1="383.268551708" y2="378.780685037" /><line stroke="rgb(0%,0%,0%)" x1="482.942539906" x2="490.132870479" y1="371.740483876" y2="378.780685037" /><line stroke="rgb(0%,0%,0%)" x1="442.611746922" x2="440.018911829" y1="583.02300474" y2="585.594028664" /><line stroke="rgb(0%,0%,0%)" x1="442.611746922" x2="448.95438838" y1="583.02300474" y2="576.181603364" /><line stroke="rgb(0%,0%,0%)" x1="458.809872243" x2="452.051122604" y1="349.770304897" y2="342.079859202" /><line stroke="rgb(0%,0%,0%)" x1="471.849885502" x2="465.026873071" y1="362.959609672" y2="356.751901941" /><line stroke="rgb(0%,0%,0%)" x1="463.330194623" x2="458.809872243" y1="354.925013173" y2="349.770304897" /><line stroke="rgb(0%,0%,0%)" x1="478.056544384" x2="475.119559597" y1="368.150011248" y2="365.849967874" /><line stroke="rgb(0%,0%,0%)" x1="475.119559597" x2="471.849885502" y1="365.849967874" y2="362.959609672" /><line stroke="rgb(0%,0%,0%)" x1="399.399811664" x2="390.100685412" y1="624.700101149" y2="626.772817053" /><line stroke="rgb(0%,0%,0%)" x1="403.828133155" x2="409.675031558" y1="622.686809056" y2="618.982562668" /><line stroke="rgb(0%,0%,0%)" x1="409.675031558" x2="414.784492963" y1="618.982562668" y2="615.149348965" /><line stroke="rgb(0%,0%,0%)" x1="414.784492963" x2="417.058995904" y1="615.149348965" y2="612.167848484" /><line stroke="rgb(0%,0%,0%)" x1="417.058995904" x2="421.084318825" y1="612.167848484" y2="608.157745328" /><line stroke="rgb(0%,0%,0%)" x1="427.655347564" x2="421.084318825" y1="599.226686635" y2="608.157745328" /><line stroke="rgb(0%,0%,0%)" x1="427.655347564" x2="432.469631798" y1="599.226686635" y2="595.982889331" /><line stroke="rgb(0%,0%,0%)" x1="432.469631798" x2="440.018911829" y1="595.982889331" y2="585.594028664" /><line stroke="rgb(0%,0%,0%)" x1="365.006835489" x2="367.02848789" y1="639.615123481" y2="638.567930108" /><line stroke="rgb(0%,0%,0%)" x1="377.620787317" x2="373.495761258" y1="630.870498468" y2="635.907392952" /><line stroke="rgb(0%,0%,0%)" x1="377.620787317" x2="381.83343142" y1="630.870498468" y2="628.732854552" /><line stroke="rgb(0%,0%,0%)" x1="383.253988638" x2="390.100685412" y1="628.117682692" y2="626.772817053" /><line stroke="rgb(0%,0%,0%)" x1="399.399811664" x2="403.828133155" y1="624.700101149" y2="622.686809056" /><line stroke="rgb(0%,0%,0%)" x1="340.483134576" x2="340.941851099" y1="656.444422758" y2="657.819020699" /><line stroke="rgb(0%,0%,0%)" x1="342.378222243" x2="342.353920013" y1="644.93622733" y2="644.993865132" /><line stroke="rgb(0%,0%,0%)" x1="342.378222243" x2="342.50713991" y1="644.93622733" y2="644.910888635" /><line stroke="rgb(0%,0%,0%)" x1="342.50713991" x2="347.776098056" y1="644.910888635" y2="644.251121718" /><line stroke="rgb(0%,0%,0%)" x1="356.463476428" x2="353.028024315" y1="640.735322472" y2="642.436281855" /><line stroke="rgb(0%,0%,0%)" x1="359.172797611" x2="365.006835489" y1="640.597830704" y2="639.615123481" /><line stroke="rgb(0%,0%,0%)" x1="359.172797611" x2="356.463476428" y1="640.597830704" y2="640.735322472" /><line stroke="rgb(0%,0%,0%)" x1="373.42760153" x2="373.46453048" y1="635.95020354" y2="635.933345534" /><line stroke="rgb(0%,0%,0%)" x1="373.46453048" x2="373.482425824" y1="635.933345534" y2="635.924309061" /><line stroke="rgb(0%,0%,0%)" x1="367.02848789" x2="373.42760153" y1="638.567930108" y2="635.95020354" /><line stroke="rgb(0%,0%,0%)" x1="373.482425824" x2="373.495761258" y1="635.924309061" y2="635.907392952" /><line stroke="rgb(0%,0%,0%)" x1="381.83343142" x2="383.253988638" y1="628.732854552" y2="628.117682692" /><line stroke="rgb(0%,0%,0%)" x1="326.489055699" x2="327.024704396" y1="703.009177774" y2="708.963749019" /><line stroke="rgb(0%,0%,0%)" x1="326.489055699" x2="327.254161907" y1="703.009177774" y2="701.394680557" /><line stroke="rgb(0%,0%,0%)" x1="329.390920009" x2="327.254161907" y1="698.601593486" y2="701.394680557" /><line stroke="rgb(0%,0%,0%)" x1="329.390920009" x2="331.063591055" y1="698.601593486" y2="682.994533767" /><line stroke="rgb(0%,0%,0%)" x1="331.063591055" x2="331.676600763" y1="682.994533767" y2="680.656070895" /><line stroke="rgb(0%,0%,0%)" x1="325.873218148" x2="327.024704396" y1="712.840241785" y2="708.963749019" /><line stroke="rgb(0%,0%,0%)" x1="331.676600763" x2="332.235631567" y1="680.656070895" y2="675.864394979" /><line stroke="rgb(0%,0%,0%)" x1="332.235631567" x2="335.551276123" y1="675.864394979" y2="673.963356498" /><line stroke="rgb(0%,0%,0%)" x1="338.47573074" x2="335.551276123" y1="670.587044636" y2="673.963356498" /><line stroke="rgb(0%,0%,0%)" x1="338.47573074" x2="341.71182734" y1="670.587044636" y2="665.223964899" /><line stroke="rgb(0%,0%,0%)" x1="341.71182734" x2="341.748406626" y1="665.223964899" y2="665.128980016" /><line stroke="rgb(0%,0%,0%)" x1="341.748406626" x2="340.941851099" y1="665.128980016" y2="657.819020699" /><line stroke="rgb(0%,0%,0%)" x1="340.483134576" x2="342.353920013" y1="656.444422758" y2="644.993865132" /><line stroke="rgb(0%,0%,0%)" x1="347.776098056" x2="349.588139523" y1="644.251121718" y2="644.094315911" /><line stroke="rgb(0%,0%,0%)" x1="349.588139523" x2="353.028024315" y1="644.094315911" y2="642.436281855" /><line stroke="rgb(0%,0%,0%)" x1="276.91815271" x2="274.467761494" y1="732.227521169" y2="731.665870944" /><line stroke="rgb(0%,0%,0%)" x1="291.927086559" x2="298.354921764" y1="731.863675369" y2="729.62268886" /><line stroke="rgb(0%,0%,0%)" x1="286.585754584" x2="291.927086559" y1="733.036708077" y2="731.863675369" /><line stroke="rgb(0%,0%,0%)" x1="298.354921764" x2="299.760687371" y1="729.62268886" y2="729.035615384" /><line stroke="rgb(0%,0%,0%)" x1="299.760687371" x2="303.430007908" y1="729.035615384" y2="727.662570011" /><line stroke="rgb(0%,0%,0%)" x1="313.53375955" x2="303.430007908" y1="725.734316212" y2="727.662570011" /><line stroke="rgb(0%,0%,0%)" x1="313.53375955" x2="318.159752861" y1="725.734316212" y2="723.541717786" /><line stroke="rgb(0%,0%,0%)" x1="318.159752861" x2="322.559146614" y1="723.541717786" y2="717.256818032" /><line stroke="rgb(0%,0%,0%)" x1="322.559146614" x2="324.804559979" y1="717.256818032" y2="715.163123427" /><line stroke="rgb(0%,0%,0%)" x1="324.804559979" x2="325.873218148" y1="715.163123427" y2="712.840241785" /><line stroke="rgb(0%,0%,0%)" x1="231.578992851" x2="232.076518179" y1="666.164231097" y2="668.827761892" /><line stroke="rgb(0%,0%,0%)" x1="231.578992851" x2="229.761607203" y1="666.164231097" y2="663.528172637" /><line stroke="rgb(0%,0%,0%)" x1="242.289941526" x2="250.205472743" y1="700.55981525" y2="714.208403303" /><line stroke="rgb(0%,0%,0%)" x1="242.289941526" x2="236.757668093" y1="700.55981525" y2="681.109842707" /><line stroke="rgb(0%,0%,0%)" x1="250.547795044" x2="250.627270893" y1="714.640388962" y2="714.707833806" /><line stroke="rgb(0%,0%,0%)" x1="250.627270893" x2="251.613082735" y1="714.707833806" y2="715.387248381" /><line stroke="rgb(0%,0%,0%)" x1="274.467761494" x2="251.613082735" y1="731.665870944" y2="715.387248381" /><line stroke="rgb(0%,0%,0%)" x1="276.91815271" x2="286.585754584" y1="732.227521169" y2="733.036708077" /><line stroke="rgb(0%,0%,0%)" x1="211.898857232" x2="214.142617387" y1="648.227580947" y2="648.803437588" /><line stroke="rgb(0%,0%,0%)" x1="214.142617387" x2="215.085093273" y1="648.803437588" y2="649.159251868" /><line stroke="rgb(0%,0%,0%)" x1="210.25235555" x2="211.898857232" y1="647.620532553" y2="648.227580947" /><line stroke="rgb(0%,0%,0%)" x1="210.25235555" x2="209.085646226" y1="647.620532553" y2="647.389430697" /><line stroke="rgb(0%,0%,0%)" x1="204.103240917" x2="209.085646226" y1="645.331027191" y2="647.389430697" /><line stroke="rgb(0%,0%,0%)" x1="202.861274915" x2="204.103240917" y1="644.232631112" y2="645.331027191" /><line stroke="rgb(0%,0%,0%)" x1="226.112046993" x2="227.234190222" y1="653.471976941" y2="655.527901646" /><line stroke="rgb(0%,0%,0%)" x1="223.950884616" x2="226.112046993" y1="652.532235762" y2="653.471976941" /><line stroke="rgb(0%,0%,0%)" x1="223.950884616" x2="220.64318716" y1="652.532235762" y2="651.520857455" /><line stroke="rgb(0%,0%,0%)" x1="219.319796769" x2="220.64318716" y1="650.892346546" y2="651.520857455" /><line stroke="rgb(0%,0%,0%)" x1="217.822579796" x2="217.073058486" y1="650.274202103" y2="649.830443539" /><line stroke="rgb(0%,0%,0%)" x1="217.822579796" x2="218.542498159" y1="650.274202103" y2="650.643841801" /><line stroke="rgb(0%,0%,0%)" x1="215.085093273" x2="215.29953547" y1="649.159251868" y2="649.326039752" /><line stroke="rgb(0%,0%,0%)" x1="236.447482408" x2="236.757668093" y1="679.934783431" y2="681.109842707" /><line stroke="rgb(0%,0%,0%)" x1="236.360741236" x2="236.447482408" y1="679.81077235" y2="679.934783431" /><line stroke="rgb(0%,0%,0%)" x1="233.714763997" x2="236.360741236" y1="672.66117334" y2="679.81077235" /><line stroke="rgb(0%,0%,0%)" x1="232.076518179" x2="233.714763997" y1="668.827761892" y2="672.66117334" /><line stroke="rgb(0%,0%,0%)" x1="228.703510157" x2="229.761607203" y1="660.084822347" y2="663.528172637" /><line stroke="rgb(0%,0%,0%)" x1="227.77510964" x2="228.703510157" y1="656.144999686" y2="660.084822347" /><line stroke="rgb(0%,0%,0%)" x1="227.77510964" x2="227.234190222" y1="656.144999686" y2="655.527901646" /><line stroke="rgb(0%,0%,0%)" x1="250.205472743" x2="250.415548" y1="714.208403303" y2="714.530581103" /><line stroke="rgb(0%,0%,0%)" x1="250.415548" x2="250.547795044" y1="714.530581103" y2="714.640388962" /><line stroke="rgb(0%,0%,0%)" x1="169.483297404" x2="167.126711891" y1="638.300242847" y2="637.650098913" /><line stroke="rgb(0%,0%,0%)" x1="169.483297404" x2="169.817826835" y1="638.300242847" y2="638.359027746" /><line stroke="rgb(0%,0%,0%)" x1="169.817826835" x2="176.560670803" y1="638.359027746" y2="638.834172305" /><line stroke="rgb(0%,0%,0%)" x1="183.260742409" x2="192.435721482" y1="639.965652369" y2="641.065723531" /><line stroke="rgb(0%,0%,0%)" x1="192.435721482" x2="194.180117597" y1="641.065723531" y2="641.27355793" /><line stroke="rgb(0%,0%,0%)" x1="176.560670803" x2="183.260742409" y1="638.834172305" y2="639.965652369" /><line stroke="rgb(0%,0%,0%)" x1="196.50702933" x2="198.022503122" y1="642.56456985" y2="643.130885564" /><line stroke="rgb(0%,0%,0%)" x1="196.50702933" x2="194.180117597" y1="642.56456985" y2="641.27355793" /><line stroke="rgb(0%,0%,0%)" x1="202.861274915" x2="198.022503122" y1="644.232631112" y2="643.130885564" /><line stroke="rgb(0%,0%,0%)" x1="219.367736316" x2="219.319796769" y1="650.80485268" y2="650.892346546" /><line stroke="rgb(0%,0%,0%)" x1="218.542498159" x2="219.367736316" y1="650.643841801" y2="650.80485268" /><line stroke="rgb(0%,0%,0%)" x1="108.77847725" x2="113.359792769" y1="619.881333033" y2="621.357950063" /><line stroke="rgb(0%,0%,0%)" x1="130.516463002" x2="146.142212963" y1="626.697709207" y2="631.322196328" /><line stroke="rgb(0%,0%,0%)" x1="150.280811006" x2="167.126711891" y1="632.351301131" y2="637.650098913" /><line stroke="rgb(0%,0%,0%)" x1="146.142212963" x2="150.280811006" y1="631.322196328" y2="632.351301131" /><line stroke="rgb(0%,0%,0%)" x1="83.7565740816" x2="81.8891097938" y1="607.350084956" y2="605.831287788" /><line stroke="rgb(0%,0%,0%)" x1="84.9857419636" x2="92.0173551857" y1="608.37406657" y2="612.520546659" /><line stroke="rgb(0%,0%,0%)" x1="83.7565740816" x2="84.9857419636" y1="607.350084956" y2="608.37406657" /><line stroke="rgb(0%,0%,0%)" x1="108.77847725" x2="101.966845301" y1="619.881333033" y2="616.69624924" /><line stroke="rgb(0%,0%,0%)" x1="101.171302342" x2="101.966845301" y1="616.211292244" y2="616.69624924" /><line stroke="rgb(0%,0%,0%)" x1="92.0173551857" x2="100.570110822" y1="612.520546659" y2="615.973251236" /><line stroke="rgb(0%,0%,0%)" x1="113.359792769" x2="119.146971264" y1="621.357950063" y2="622.277077159" /><line stroke="rgb(0%,0%,0%)" x1="119.146971264" x2="130.516463002" y1="622.277077159" y2="626.697709207" /><line stroke="rgb(0%,0%,0%)" x1="54.5882057261" x2="55.721283047" y1="550.467581912" y2="551.931039302" /><line stroke="rgb(0%,0%,0%)" x1="48.3996928974" x2="49.5446689339" y1="539.865920253" y2="541.535605193" /><line stroke="rgb(0%,0%,0%)" x1="48.3996928974" x2="48.0599558548" y1="539.865920253" y2="539.120659616" /><line stroke="rgb(0%,0%,0%)" x1="48.0599558548" x2="48.0279283086" y1="539.120659616" y2="535.332809838" /><line stroke="rgb(0%,0%,0%)" x1="45.9329603982" x2="48.0279283086" y1="524.789984627" y2="535.332809838" /><line stroke="rgb(0%,0%,0%)" x1="47.8449779495" x2="47.5409315065" y1="518.275147188" y2="518.769839873" /><line stroke="rgb(0%,0%,0%)" x1="49.2079581612" x2="47.8449779495" y1="515.26180616" y2="518.275147188" /><line stroke="rgb(0%,0%,0%)" x1="49.2079581612" x2="49.3890649478" y1="515.26180616" y2="514.797855842" /><line stroke="rgb(0%,0%,0%)" x1="69.2668093679" x2="65.3349012122" y1="591.484423142" y2="587.906411549" /><line stroke="rgb(0%,0%,0%)" x1="62.5498613668" x2="65.3349012122" y1="584.476832534" y2="587.906411549" /><line stroke="rgb(0%,0%,0%)" x1="56.2838505535" x2="58.602877883" y1="566.513808268" y2="574.503072373" /><line stroke="rgb(0%,0%,0%)" x1="58.602877883" x2="62.5498613668" y1="574.503072373" y2="584.476832534" /><line stroke="rgb(0%,0%,0%)" x1="55.9091892902" x2="56.2838505535" y1="559.642196214" y2="566.513808268" /><line stroke="rgb(0%,0%,0%)" x1="55.721283047" x2="55.9091892902" y1="551.931039302" y2="559.642196214" /><line stroke="rgb(0%,0%,0%)" x1="72.0428859548" x2="81.8891097938" y1="594.192731633" y2="605.831287788" /><line stroke="rgb(0%,0%,0%)" x1="72.0428859548" x2="69.2668093679" y1="594.192731633" y2="591.484423142" /><line stroke="rgb(0%,0%,0%)" x1="100.570110822" x2="101.171302342" y1="615.973251236" y2="616.211292244" /><line stroke="rgb(0%,0%,0%)" x1="24.6512603962" x2="28.0361694155" y1="472.170636007" y2="477.482601683" /><line stroke="rgb(0%,0%,0%)" x1="28.0361694155" x2="28.6466190305" y1="477.482601683" y2="478.319439518" /><line stroke="rgb(0%,0%,0%)" x1="23.8804036193" x2="24.6512603962" y1="467.703151822" y2="472.170636007" /><line stroke="rgb(0%,0%,0%)" x1="23.9620161786" x2="23.8804036193" y1="466.831676659" y2="467.703151822" /><line stroke="rgb(0%,0%,0%)" x1="23.9620161786" x2="24.6812298694" y1="466.831676659" y2="464.701193242" /><line stroke="rgb(0%,0%,0%)" x1="40.3809407764" x2="41.3490823611" y1="500.284261817" y2="501.859405281" /><line stroke="rgb(0%,0%,0%)" x1="36.1332421418" x2="36.8632651794" y1="490.694021258" y2="492.695581995" /><line stroke="rgb(0%,0%,0%)" x1="36.8632651794" x2="40.3809407764" y1="492.695581995" y2="500.284261817" /><line stroke="rgb(0%,0%,0%)" x1="36.1332421418" x2="35.8082597308" y1="490.694021258" y2="489.560167282" /><line stroke="rgb(0%,0%,0%)" x1="35.8082597308" x2="33.9808827793" y1="489.560167282" y2="488.197932276" /><line stroke="rgb(0%,0%,0%)" x1="33.7581933504" x2="33.9808827793" y1="487.378346358" y2="488.197932276" /><line stroke="rgb(0%,0%,0%)" x1="30.6194421561" x2="33.7581933504" y1="483.790982363" y2="487.378346358" /><line stroke="rgb(0%,0%,0%)" x1="30.6194421561" x2="29.1690854031" y1="483.790982363" y2="479.931093912" /><line stroke="rgb(0%,0%,0%)" x1="28.6466190305" x2="29.1690854031" y1="478.319439518" y2="479.931093912" /><line stroke="rgb(0%,0%,0%)" x1="49.5446689339" x2="54.5882057261" y1="541.535605193" y2="550.467581912" /><line stroke="rgb(0%,0%,0%)" x1="47.5409315065" x2="45.9329603982" y1="518.769839873" y2="524.789984627" /><line stroke="rgb(0%,0%,0%)" x1="49.7356641015" x2="44.0919476513" y1="513.54103175" y2="506.940366561" /><line stroke="rgb(0%,0%,0%)" x1="49.7356641015" x2="49.3890649478" y1="513.54103175" y2="514.797855842" /><line stroke="rgb(0%,0%,0%)" x1="42.800806346" x2="44.0919476513" y1="504.884763624" y2="506.940366561" /><line stroke="rgb(0%,0%,0%)" x1="41.3490823611" x2="42.800806346" y1="501.859405281" y2="504.884763624" /><line stroke="rgb(0%,0%,0%)" x1="25.841056294" x2="24.6812298694" y1="460.396705007" y2="464.701193242" /><line stroke="rgb(0%,0%,0%)" x1="26.5766586525" x2="25.841056294" y1="459.209303801" y2="460.396705007" /><line stroke="rgb(0%,0%,0%)" x1="516.929076703" x2="520.89615051" y1="491.911102446" y2="485.837489368" /><line stroke="rgb(0%,0%,0%)" x1="516.929076703" x2="515.015776703" y1="491.911102446" y2="497.36551574" /><line stroke="rgb(0%,0%,0%)" x1="520.89615051" x2="521.7795827" y1="485.837489368" y2="482.751642448" /><line stroke="rgb(0%,0%,0%)" x1="521.7795827" x2="522.043603957" y1="482.751642448" y2="480.777035177" /><line stroke="rgb(0%,0%,0%)" x1="523.715539196" x2="524.47398454" y1="459.433021213" y2="469.135988017" /><line stroke="rgb(0%,0%,0%)" x1="522.043603957" x2="524.401365582" y1="480.777035177" y2="470.919364771" /><line stroke="rgb(0%,0%,0%)" x1="453.502607813" x2="450.387242132" y1="572.527667334" y2="575.15043462" /><line stroke="rgb(0%,0%,0%)" x1="453.502607813" x2="461.547414423" y1="572.527667334" y2="565.215021265" /><line stroke="rgb(0%,0%,0%)" x1="466.409356923" x2="465.919831115" y1="563.137807776" y2="563.646728172" /><line stroke="rgb(0%,0%,0%)" x1="466.409356923" x2="473.848644647" y1="563.137807776" y2="557.298511696" /><line stroke="rgb(0%,0%,0%)" x1="475.398108407" x2="473.848644647" y1="556.378253993" y2="557.298511696" /><line stroke="rgb(0%,0%,0%)" x1="475.398108407" x2="481.118462171" y1="556.378253993" y2="551.005592683" /><line stroke="rgb(0%,0%,0%)" x1="481.88583208" x2="481.118462171" y1="550.666278108" y2="551.005592683" /><line stroke="rgb(0%,0%,0%)" x1="481.88583208" x2="483.56184467" y1="550.666278108" y2="549.187408261" /><line stroke="rgb(0%,0%,0%)" x1="483.56184467" x2="486.451005454" y1="549.187408261" y2="545.74981559" /><line stroke="rgb(0%,0%,0%)" x1="493.109174241" x2="486.451005454" y1="538.175340926" y2="545.74981559" /><line stroke="rgb(0%,0%,0%)" x1="493.109174241" x2="495.866699118" y1="538.175340926" y2="533.428249821" /><line stroke="rgb(0%,0%,0%)" x1="495.866699118" x2="501.475285417" y1="533.428249821" y2="521.102031667" /><line stroke="rgb(0%,0%,0%)" x1="501.893729089" x2="501.475285417" y1="519.939616686" y2="521.102031667" /><line stroke="rgb(0%,0%,0%)" x1="501.893729089" x2="502.235362579" y1="519.939616686" y2="519.437779608" /><line stroke="rgb(0%,0%,0%)" x1="502.235362579" x2="503.226363837" y1="519.437779608" y2="517.093339924" /><line stroke="rgb(0%,0%,0%)" x1="506.905912564" x2="508.032140625" y1="510.376694032" y2="508.9917099" /><line stroke="rgb(0%,0%,0%)" x1="503.226363837" x2="506.905912564" y1="517.093339924" y2="510.376694032" /><line stroke="rgb(0%,0%,0%)" x1="508.032140625" x2="511.348690714" y1="508.9917099" y2="503.457468304" /><line stroke="rgb(0%,0%,0%)" x1="515.015776703" x2="511.348690714" y1="497.36551574" y2="503.457468304" /><line stroke="rgb(0%,0%,0%)" x1="524.401365582" x2="524.478393542" y1="470.919364771" y2="470.341898965" /><line stroke="rgb(0%,0%,0%)" x1="524.478393542" x2="524.47398454" y1="470.341898965" y2="469.135988017" /><line stroke="rgb(0%,0%,0%)" x1="448.95438838" x2="450.387242132" y1="576.181603364" y2="575.15043462" /><line stroke="rgb(0%,0%,0%)" x1="461.547414423" x2="465.919831115" y1="565.215021265" y2="563.646728172" /><line stroke="rgb(0%,0%,0%)" x1="215.29953547" x2="216.677140923" y1="649.326039752" y2="649.848437685" /><line stroke="rgb(0%,0%,0%)" x1="217.073058486" x2="216.677140923" y1="649.830443539" y2="649.848437685" /></svg>