<?xml version="1.0" encoding="utf-8" ?>
<svg baseProfile="full" height="100%" version="1.1" viewBox="0.5 0.5 685.793960571 941.299331665" width="100%" xmlns="http://www.w3.org/2000/svg" xmlns:ev="http://www.w3.org/2001/xml-events" xmlns:xlink="http://www.w3.org/1999/xlink"><defs /><line stroke="rgb(0%,0%,0%)" x1="681.041331757" x2="682.246991884" y1="439.533634285" y2="446.706176408" /><line stroke="rgb(0%,0%,0%)" x1="672.64882423" x2="673.770159844" y1="375.992074759" y2="380.079087336" /><line stroke="rgb(0%,0%,0%)" x1="672.64882423" x2="670.834442289" y1="375.992074759" y2="369.413615917" /><line stroke="rgb(0%,0%,0%)" x1="656.177157711" x2="657.062997664" y1="318.851800027" y2="321.053067504" /><line stroke="rgb(0%,0%,0%)" x1="681.041331757" x2="681.197228339" y1="439.533634285" y2="435.110856158" /><line stroke="rgb(0%,0%,0%)" x1="680.674326885" x2="680.880670144" y1="427.630017755" y2="426.28198897" /><line stroke="rgb(0%,0%,0%)" x1="673.770159844" x2="674.984271554" y1="380.079087336" y2="383.317512993" /><line stroke="rgb(0%,0%,0%)" x1="670.335447584" x2="670.834442289" y1="367.216021247" y2="369.413615917" /><line stroke="rgb(0%,0%,0%)" x1="670.335447584" x2="669.526012388" y1="367.216021247" y2="359.487723346" /><line stroke="rgb(0%,0%,0%)" x1="682.890772669" x2="682.246991884" y1="456.571418732" y2="446.706176408" /><line stroke="rgb(0%,0%,0%)" x1="680.674326885" x2="681.026527386" y1="427.630017755" y2="431.501423846" /><line stroke="rgb(0%,0%,0%)" x1="635.806128438" x2="637.098070974" y1="260.436526831" y2="263.173798292" /><line stroke="rgb(0%,0%,0%)" x1="635.806128438" x2="632.241752157" y1="260.436526831" y2="254.799842023" /><line stroke="rgb(0%,0%,0%)" x1="632.241752157" x2="632.106823019" y1="254.799842023" y2="254.433998505" /><line stroke="rgb(0%,0%,0%)" x1="669.176142507" x2="668.533076751" y1="357.979929649" y2="356.102151596" /><line stroke="rgb(0%,0%,0%)" x1="665.684315111" x2="668.533076751" y1="349.248218802" y2="356.102151596" /><line stroke="rgb(0%,0%,0%)" x1="665.684315111" x2="663.668200679" y1="349.248218802" y2="343.928630958" /><line stroke="rgb(0%,0%,0%)" x1="663.668200679" x2="661.518783677" y1="343.928630958" y2="334.738388399" /><line stroke="rgb(0%,0%,0%)" x1="661.518783677" x2="659.97391517" y1="334.738388399" y2="329.791272486" /><line stroke="rgb(0%,0%,0%)" x1="657.062997664" x2="659.97391517" y1="321.053067504" y2="329.791272486" /><line stroke="rgb(0%,0%,0%)" x1="656.177157711" x2="654.100503281" y1="318.851800027" y2="309.113189093" /><line stroke="rgb(0%,0%,0%)" x1="677.862388589" x2="678.732149577" y1="404.330853877" y2="408.429821258" /><line stroke="rgb(0%,0%,0%)" x1="677.660506829" x2="676.919119836" y1="401.80988561" y2="394.228956035" /><line stroke="rgb(0%,0%,0%)" x1="676.919119836" x2="676.84531428" y1="394.228956035" y2="393.928353343" /><line stroke="rgb(0%,0%,0%)" x1="676.225024448" x2="676.84531428" y1="390.944667561" y2="393.928353343" /><line stroke="rgb(0%,0%,0%)" x1="669.526012388" x2="669.176142507" y1="359.487723346" y2="357.979929649" /><line stroke="rgb(0%,0%,0%)" x1="681.197228339" x2="681.026527386" y1="435.110856158" y2="431.501423846" /><line stroke="rgb(0%,0%,0%)" x1="680.880670144" x2="679.879626118" y1="426.28198897" y2="421.752918013" /><line stroke="rgb(0%,0%,0%)" x1="679.879626118" x2="678.756419283" y1="421.752918013" y2="408.728800468" /><line stroke="rgb(0%,0%,0%)" x1="620.376486851" x2="616.16136887" y1="230.604064095" y2="222.063563146" /><line stroke="rgb(0%,0%,0%)" x1="616.16136887" x2="611.295270691" y1="222.063563146" y2="213.163916385" /><line stroke="rgb(0%,0%,0%)" x1="611.295270691" x2="609.91622329" y1="213.163916385" y2="208.601529229" /><line stroke="rgb(0%,0%,0%)" x1="632.106823019" x2="625.31659515" y1="254.433998505" y2="241.442896299" /><line stroke="rgb(0%,0%,0%)" x1="641.304342299" x2="640.543881146" y1="277.388424778" y2="275.136775792" /><line stroke="rgb(0%,0%,0%)" x1="637.941066144" x2="640.543881146" y1="269.451019645" y2="275.136775792" /><line stroke="rgb(0%,0%,0%)" x1="637.941066144" x2="637.098070974" y1="269.451019645" y2="263.173798292" /><line stroke="rgb(0%,0%,0%)" x1="652.058238728" x2="648.523318166" y1="303.102746209" y2="296.697156359" /><line stroke="rgb(0%,0%,0%)" x1="654.100503281" x2="652.058238728" y1="309.113189093" y2="303.102746209" /><line stroke="rgb(0%,0%,0%)" x1="648.523318166" x2="647.410716086" y1="296.697156359" y2="293.726847384" /><line stroke="rgb(0%,0%,0%)" x1="647.410716086" x2="641.304342299" y1="293.726847384" y2="277.388424778" /><line stroke="rgb(0%,0%,0%)" x1="676.225024448" x2="674.984271554" y1="390.944667561" y2="383.317512993" /><line stroke="rgb(0%,0%,0%)" x1="678.756419283" x2="678.732149577" y1="408.728800468" y2="408.429821258" /><line stroke="rgb(0%,0%,0%)" x1="677.862388589" x2="677.660506829" y1="404.330853877" y2="401.80988561" /><line stroke="rgb(0%,0%,0%)" x1="583.236804082" x2="577.508319938" y1="164.264136447" y2="159.018350027" /><line stroke="rgb(0%,0%,0%)" x1="590.707399925" x2="593.908029395" y1="173.757860123" y2="180.514391881" /><line stroke="rgb(0%,0%,0%)" x1="588.516085245" x2="583.236804082" y1="170.801091037" y2="164.264136447" /><line stroke="rgb(0%,0%,0%)" x1="590.707399925" x2="588.516085245" y1="173.757860123" y2="170.801091037" /><line stroke="rgb(0%,0%,0%)" x1="596.337829784" x2="595.196970528" y1="185.122011187" y2="183.306410352" /><line stroke="rgb(0%,0%,0%)" x1="603.395192529" x2="596.337829784" y1="198.369606389" y2="185.122011187" /><line stroke="rgb(0%,0%,0%)" x1="603.395192529" x2="609.91622329" y1="198.369606389" y2="208.601529229" /><line stroke="rgb(0%,0%,0%)" x1="625.31659515" x2="620.376486851" y1="241.442896299" y2="230.604064095" /><line stroke="rgb(0%,0%,0%)" x1="535.494214206" x2="534.345970807" y1="141.404036303" y2="140.977292178" /><line stroke="rgb(0%,0%,0%)" x1="535.494214206" x2="535.558885308" y1="141.404036303" y2="141.425994347" /><line stroke="rgb(0%,0%,0%)" x1="535.558885308" x2="535.927431011" y1="141.425994347" y2="141.557585678" /><line stroke="rgb(0%,0%,0%)" x1="550.649340434" x2="535.927431011" y1="147.169982435" y2="141.557585678" /><line stroke="rgb(0%,0%,0%)" x1="561.408143803" x2="555.009402797" y1="152.289103286" y2="148.879610106" /><line stroke="rgb(0%,0%,0%)" x1="570.06383737" x2="568.987210059" y1="156.429522558" y2="155.773571801" /><line stroke="rgb(0%,0%,0%)" x1="561.408143803" x2="568.987210059" y1="152.289103286" y2="155.773571801" /><line stroke="rgb(0%,0%,0%)" x1="577.508319938" x2="575.958412049" y1="159.018350027" y2="157.819795147" /><line stroke="rgb(0%,0%,0%)" x1="570.06383737" x2="575.32372545" y1="156.429522558" y2="157.570797938" /><line stroke="rgb(0%,0%,0%)" x1="594.718925517" x2="593.908029395" y1="182.788841337" y2="180.514391881" /><line stroke="rgb(0%,0%,0%)" x1="595.196970528" x2="594.718925517" y1="183.306410352" y2="182.788841337" /><line stroke="rgb(0%,0%,0%)" x1="507.613310123" x2="503.106385091" y1="132.390093099" y2="130.301024136" /><line stroke="rgb(0%,0%,0%)" x1="507.613310123" x2="515.517296212" y1="132.390093099" y2="134.300766411" /><line stroke="rgb(0%,0%,0%)" x1="534.345970807" x2="517.58688245" y1="140.977292178" y2="134.947858675" /><line stroke="rgb(0%,0%,0%)" x1="555.009402797" x2="550.649340434" y1="148.879610106" y2="147.169982435" /><line stroke="rgb(0%,0%,0%)" x1="575.958412049" x2="575.32372545" y1="157.819795147" y2="157.570797938" /><line stroke="rgb(0%,0%,0%)" x1="430.136679468" x2="426.845779878" y1="105.32511174" y2="104.416616872" /><line stroke="rgb(0%,0%,0%)" x1="482.345714902" x2="475.979026029" y1="122.709850182" y2="120.11706361" /><line stroke="rgb(0%,0%,0%)" x1="475.979026029" x2="461.613860038" y1="120.11706361" y2="114.84692088" /><line stroke="rgb(0%,0%,0%)" x1="493.118691632" x2="486.09614159" y1="126.67910119" y2="123.973037032" /><line stroke="rgb(0%,0%,0%)" x1="503.106385091" x2="493.118691632" y1="130.301024136" y2="126.67910119" /><line stroke="rgb(0%,0%,0%)" x1="517.58688245" x2="515.517296212" y1="134.947858675" y2="134.300766411" /><line stroke="rgb(0%,0%,0%)" x1="426.016767074" x2="424.436931355" y1="104.469140965" y2="103.944510984" /><line stroke="rgb(0%,0%,0%)" x1="426.016767074" x2="426.845779878" y1="104.469140965" y2="104.416616872" /><line stroke="rgb(0%,0%,0%)" x1="430.136679468" x2="436.716502407" y1="105.32511174" y2="107.078963752" /><line stroke="rgb(0%,0%,0%)" x1="453.948631785" x2="436.716502407" y1="112.231319663" y2="107.078963752" /><line stroke="rgb(0%,0%,0%)" x1="410.409055181" x2="403.822053525" y1="102.835894952" y2="103.16081003" /><line stroke="rgb(0%,0%,0%)" x1="410.409055181" x2="417.002656029" y1="102.835894952" y2="102.913709735" /><line stroke="rgb(0%,0%,0%)" x1="419.76629863" x2="417.002656029" y1="103.598037377" y2="102.913709735" /><line stroke="rgb(0%,0%,0%)" x1="424.436931355" x2="419.76629863" y1="103.944510984" y2="103.598037377" /><line stroke="rgb(0%,0%,0%)" x1="455.817598869" x2="453.948631785" y1="113.38553549" y2="112.231319663" /><line stroke="rgb(0%,0%,0%)" x1="461.613860038" x2="455.817598869" y1="114.84692088" y2="113.38553549" /><line stroke="rgb(0%,0%,0%)" x1="366.621293106" x2="364.074876737" y1="123.159537361" y2="125.931144589" /><line stroke="rgb(0%,0%,0%)" x1="378.191555714" x2="366.621293106" y1="113.516904972" y2="123.159537361" /><line stroke="rgb(0%,0%,0%)" x1="378.191555714" x2="385.447430476" y1="113.516904972" y2="108.159927608" /><line stroke="rgb(0%,0%,0%)" x1="389.594144364" x2="385.447430476" y1="106.128457716" y2="108.159927608" /><line stroke="rgb(0%,0%,0%)" x1="391.769658561" x2="389.594144364" y1="105.440954327" y2="106.128457716" /><line stroke="rgb(0%,0%,0%)" x1="391.769658561" x2="394.361741388" y1="105.440954327" y2="104.655085711" /><line stroke="rgb(0%,0%,0%)" x1="403.822053525" x2="394.361741388" y1="103.16081003" y2="104.655085711" /><line stroke="rgb(0%,0%,0%)" x1="322.671982907" x2="324.093467942" y1="171.490758401" y2="171.095169677" /><line stroke="rgb(0%,0%,0%)" x1="331.853496861" x2="334.467158025" y1="168.346744742" y2="166.825383634" /><line stroke="rgb(0%,0%,0%)" x1="331.853496861" x2="324.093467942" y1="168.346744742" y2="171.095169677" /><line stroke="rgb(0%,0%,0%)" x1="341.933909507" x2="334.467158025" y1="165.186774737" y2="166.825383634" /><line stroke="rgb(0%,0%,0%)" x1="341.933909507" x2="347.524254651" y1="165.186774737" y2="156.316590514" /><line stroke="rgb(0%,0%,0%)" x1="356.955558821" x2="350.054946016" y1="137.568799364" y2="152.705934838" /><line stroke="rgb(0%,0%,0%)" x1="362.147169792" x2="359.281496519" y1="128.769306892" y2="133.154541348" /><line stroke="rgb(0%,0%,0%)" x1="362.147169792" x2="364.074876737" y1="128.769306892" y2="125.931144589" /><line stroke="rgb(0%,0%,0%)" x1="305.462517392" x2="309.785243498" y1="263.356010254" y2="261.533798068" /><line stroke="rgb(0%,0%,0%)" x1="305.462517392" x2="294.685676374" y1="263.356010254" y2="269.568890591" /><line stroke="rgb(0%,0%,0%)" x1="312.90226587" x2="312.834901414" y1="256.341081117" y2="258.217475864" /><line stroke="rgb(0%,0%,0%)" x1="306.583061153" x2="305.454700784" y1="231.724529141" y2="225.505388805" /><line stroke="rgb(0%,0%,0%)" x1="315.17725374" x2="308.343349207" y1="180.34983426" y2="194.11112224" /><line stroke="rgb(0%,0%,0%)" x1="320.700129015" x2="315.17725374" y1="173.035645487" y2="180.34983426" /><line stroke="rgb(0%,0%,0%)" x1="349.189162744" x2="347.524254651" y1="154.178600033" y2="156.316590514" /><line stroke="rgb(0%,0%,0%)" x1="350.054946016" x2="349.189162744" y1="152.705934838" y2="154.178600033" /><line stroke="rgb(0%,0%,0%)" x1="357.626494805" x2="356.955558821" y1="136.574791826" y2="137.568799364" /><line stroke="rgb(0%,0%,0%)" x1="359.281496519" x2="357.626494805" y1="133.154541348" y2="136.574791826" /><line stroke="rgb(0%,0%,0%)" x1="254.786135165" x2="257.920263307" y1="348.854480355" y2="348.852127768" /><line stroke="rgb(0%,0%,0%)" x1="257.920263307" x2="266.139314197" y1="348.852127768" y2="347.439323457" /><line stroke="rgb(0%,0%,0%)" x1="271.007375576" x2="271.082409712" y1="349.054116344" y2="347.654963612" /><line stroke="rgb(0%,0%,0%)" x1="283.51386977" x2="283.191572286" y1="421.404271721" y2="420.29378726" /><line stroke="rgb(0%,0%,0%)" x1="294.685676374" x2="287.643497763" y1="269.568890591" y2="275.254745242" /><line stroke="rgb(0%,0%,0%)" x1="287.643497763" x2="278.719270474" y1="275.254745242" y2="286.51875282" /><line stroke="rgb(0%,0%,0%)" x1="310.528722276" x2="309.785243498" y1="261.412604468" y2="261.533798068" /><line stroke="rgb(0%,0%,0%)" x1="306.583061153" x2="312.140980443" y1="231.724529141" y2="252.229040663" /><line stroke="rgb(0%,0%,0%)" x1="304.816317313" x2="304.974630342" y1="212.555781973" y2="206.142322683" /><line stroke="rgb(0%,0%,0%)" x1="304.816317313" x2="305.454700784" y1="212.555781973" y2="225.505388805" /><line stroke="rgb(0%,0%,0%)" x1="304.974630342" x2="308.217297378" y1="206.142322683" y2="194.624229723" /><line stroke="rgb(0%,0%,0%)" x1="312.834901414" x2="310.528722276" y1="258.217475864" y2="261.412604468" /><line stroke="rgb(0%,0%,0%)" x1="308.343349207" x2="308.217297378" y1="194.11112224" y2="194.624229723" /><line stroke="rgb(0%,0%,0%)" x1="226.770824666" x2="226.873720577" y1="429.16025171" y2="430.022864904" /><line stroke="rgb(0%,0%,0%)" x1="226.770824666" x2="227.191299369" y1="429.16025171" y2="427.334020968" /><line stroke="rgb(0%,0%,0%)" x1="235.630326316" x2="233.52127261" y1="404.934633056" y2="409.716205984" /><line stroke="rgb(0%,0%,0%)" x1="235.630326316" x2="237.57527208" y1="404.934633056" y2="400.208874584" /><line stroke="rgb(0%,0%,0%)" x1="248.219067553" x2="245.257177184" y1="348.002558323" y2="345.600558253" /><line stroke="rgb(0%,0%,0%)" x1="248.219067553" x2="254.786135165" y1="348.002558323" y2="348.854480355" /><line stroke="rgb(0%,0%,0%)" x1="253.642355572" x2="247.139939178" y1="427.662654716" y2="431.102811065" /><line stroke="rgb(0%,0%,0%)" x1="253.642355572" x2="258.06778226" y1="427.662654716" y2="423.649212211" /><line stroke="rgb(0%,0%,0%)" x1="246.171474572" x2="250.66155692" y1="384.393109963" y2="379.098699243" /><line stroke="rgb(0%,0%,0%)" x1="256.439706852" x2="254.901089934" y1="374.955031911" y2="375.180404511" /><line stroke="rgb(0%,0%,0%)" x1="258.06778226" x2="267.165180576" y1="423.649212211" y2="417.517221231" /><line stroke="rgb(0%,0%,0%)" x1="279.347900774" x2="272.880163043" y1="411.996482897" y2="414.17193497" /><line stroke="rgb(0%,0%,0%)" x1="256.439706852" x2="260.224018658" y1="374.955031911" y2="372.398813671" /><line stroke="rgb(0%,0%,0%)" x1="266.847700928" x2="269.037366804" y1="370.018826873" y2="367.596134007" /><line stroke="rgb(0%,0%,0%)" x1="266.847700928" x2="262.513412314" y1="370.018826873" y2="371.129659783" /><line stroke="rgb(0%,0%,0%)" x1="271.901192137" x2="271.850572583" y1="364.469569323" y2="364.602676043" /><line stroke="rgb(0%,0%,0%)" x1="271.899191823" x2="271.901192137" y1="364.408627348" y2="364.469569323" /><line stroke="rgb(0%,0%,0%)" x1="272.400824504" x2="271.899191823" y1="361.67471075" y2="364.408627348" /><line stroke="rgb(0%,0%,0%)" x1="272.400824504" x2="272.522048516" y1="361.67471075" y2="360.836849162" /><line stroke="rgb(0%,0%,0%)" x1="272.597709026" x2="272.522048516" y1="356.581424928" y2="360.836849162" /><line stroke="rgb(0%,0%,0%)" x1="272.267754812" x2="272.597709026" y1="352.719429217" y2="356.581424928" /><line stroke="rgb(0%,0%,0%)" x1="271.007375576" x2="272.267754812" y1="349.054116344" y2="352.719429217" /><line stroke="rgb(0%,0%,0%)" x1="266.139314197" x2="269.209045714" y1="347.439323457" y2="346.776128573" /><line stroke="rgb(0%,0%,0%)" x1="270.623686908" x2="271.082409712" y1="346.812958924" y2="347.654963612" /><line stroke="rgb(0%,0%,0%)" x1="269.209045714" x2="270.623686908" y1="346.776128573" y2="346.812958924" /><line stroke="rgb(0%,0%,0%)" x1="269.219976223" x2="268.643434916" y1="301.745034548" y2="302.236741601" /><line stroke="rgb(0%,0%,0%)" x1="269.219976223" x2="270.001672935" y1="301.745034548" y2="300.549865799" /><line stroke="rgb(0%,0%,0%)" x1="275.364148917" x2="270.001672935" y1="291.764444314" y2="300.549865799" /><line stroke="rgb(0%,0%,0%)" x1="268.643434916" x2="255.465846975" y1="302.236741601" y2="312.332524437" /><line stroke="rgb(0%,0%,0%)" x1="280.199525279" x2="283.719146084" y1="446.347321197" y2="432.918821283" /><line stroke="rgb(0%,0%,0%)" x1="283.711821204" x2="283.79375291" y1="431.388273975" y2="432.249040203" /><line stroke="rgb(0%,0%,0%)" x1="283.79375291" x2="283.719146084" y1="432.249040203" y2="432.918821283" /><line stroke="rgb(0%,0%,0%)" x1="283.51386977" x2="283.73238301" y1="421.404271721" y2="428.075263832" /><line stroke="rgb(0%,0%,0%)" x1="283.73238301" x2="283.711821204" y1="428.075263832" y2="431.388273975" /><line stroke="rgb(0%,0%,0%)" x1="283.137862202" x2="282.795709784" y1="413.273811048" y2="413.147498444" /><line stroke="rgb(0%,0%,0%)" x1="283.792926712" x2="283.191572286" y1="414.950057121" y2="420.29378726" /><line stroke="rgb(0%,0%,0%)" x1="283.137862202" x2="283.792926712" y1="413.273811048" y2="414.950057121" /><line stroke="rgb(0%,0%,0%)" x1="279.347900774" x2="282.795709784" y1="411.996482897" y2="413.147498444" /><line stroke="rgb(0%,0%,0%)" x1="278.719270474" x2="275.364148917" y1="286.51875282" y2="291.764444314" /><line stroke="rgb(0%,0%,0%)" x1="227.573085996" x2="227.669285313" y1="434.711549445" y2="434.770397737" /><line stroke="rgb(0%,0%,0%)" x1="227.669285313" x2="231.138546254" y1="434.770397737" y2="437.866470192" /><line stroke="rgb(0%,0%,0%)" x1="227.535337025" x2="227.573085996" y1="434.629950329" y2="434.711549445" /><line stroke="rgb(0%,0%,0%)" x1="227.550476696" x2="227.191299369" y1="425.158793296" y2="427.334020968" /><line stroke="rgb(0%,0%,0%)" x1="227.842628465" x2="227.786389969" y1="422.848989684" y2="423.892575132" /><line stroke="rgb(0%,0%,0%)" x1="227.842628465" x2="228.831757372" y1="422.848989684" y2="420.970818226" /><line stroke="rgb(0%,0%,0%)" x1="230.005059617" x2="228.831757372" y1="417.632194028" y2="420.970818226" /><line stroke="rgb(0%,0%,0%)" x1="230.005059617" x2="231.340861405" y1="417.632194028" y2="413.960447857" /><line stroke="rgb(0%,0%,0%)" x1="232.337128111" x2="231.340861405" y1="412.101693028" y2="413.960447857" /><line stroke="rgb(0%,0%,0%)" x1="232.965177859" x2="233.997159103" y1="438.274886426" y2="438.284779432" /><line stroke="rgb(0%,0%,0%)" x1="231.138546254" x2="232.965177859" y1="437.866470192" y2="438.274886426" /><line stroke="rgb(0%,0%,0%)" x1="233.997159103" x2="236.065978756" y1="438.284779432" y2="438.098324814" /><line stroke="rgb(0%,0%,0%)" x1="238.098580382" x2="236.065978756" y1="437.310118448" y2="438.098324814" /><line stroke="rgb(0%,0%,0%)" x1="238.098580382" x2="243.676018809" y1="437.310118448" y2="434.295607075" /><line stroke="rgb(0%,0%,0%)" x1="243.676018809" x2="247.139939178" y1="434.295607075" y2="431.102811065" /><line stroke="rgb(0%,0%,0%)" x1="246.171474572" x2="243.140964268" y1="384.393109963" y2="389.534778231" /><line stroke="rgb(0%,0%,0%)" x1="241.749285502" x2="241.927758165" y1="339.464028442" y2="341.351691581" /><line stroke="rgb(0%,0%,0%)" x1="241.927758165" x2="245.172084986" y1="341.351691581" y2="345.527465328" /><line stroke="rgb(0%,0%,0%)" x1="254.901089934" x2="250.66155692" y1="375.180404511" y2="379.098699243" /><line stroke="rgb(0%,0%,0%)" x1="255.465846975" x2="251.356712305" y1="312.332524437" y2="317.764536799" /><line stroke="rgb(0%,0%,0%)" x1="267.165180576" x2="268.850519817" y1="417.517221231" y2="416.103754269" /><line stroke="rgb(0%,0%,0%)" x1="268.850519817" x2="269.987521092" y1="416.103754269" y2="415.404831735" /><line stroke="rgb(0%,0%,0%)" x1="262.513412314" x2="260.224018658" y1="371.129659783" y2="372.398813671" /><line stroke="rgb(0%,0%,0%)" x1="271.850572583" x2="269.703007548" y1="364.602676043" y2="367.338038026" /><line stroke="rgb(0%,0%,0%)" x1="269.703007548" x2="269.037366804" y1="367.338038026" y2="367.596134007" /><line stroke="rgb(0%,0%,0%)" x1="269.987521092" x2="272.880163043" y1="415.404831735" y2="414.17193497" /><line stroke="rgb(0%,0%,0%)" x1="226.873720577" x2="227.535337025" y1="430.022864904" y2="434.629950329" /><line stroke="rgb(0%,0%,0%)" x1="227.786389969" x2="227.550476696" y1="423.892575132" y2="425.158793296" /><line stroke="rgb(0%,0%,0%)" x1="232.629241216" x2="232.337128111" y1="411.359463071" y2="412.101693028" /><line stroke="rgb(0%,0%,0%)" x1="233.52127261" x2="232.629241216" y1="409.716205984" y2="411.359463071" /><line stroke="rgb(0%,0%,0%)" x1="237.57527208" x2="239.666211589" y1="400.208874584" y2="397.061503558" /><line stroke="rgb(0%,0%,0%)" x1="242.964839192" x2="239.666211589" y1="390.134522851" y2="397.061503558" /><line stroke="rgb(0%,0%,0%)" x1="243.140964268" x2="242.964839192" y1="389.534778231" y2="390.134522851" /><line stroke="rgb(0%,0%,0%)" x1="245.172084986" x2="245.257177184" y1="345.527465328" y2="345.600558253" /><line stroke="rgb(0%,0%,0%)" x1="243.89884288" x2="241.683666836" y1="329.403029532" y2="336.309897722" /><line stroke="rgb(0%,0%,0%)" x1="241.683666836" x2="241.749285502" y1="336.309897722" y2="339.464028442" /><line stroke="rgb(0%,0%,0%)" x1="680.971313657" x2="680.881864285" y1="480.131385719" y2="482.011872439" /><line stroke="rgb(0%,0%,0%)" x1="680.971313657" x2="681.0988488" y1="480.131385719" y2="479.868335155" /><line stroke="rgb(0%,0%,0%)" x1="681.0988488" x2="682.366702092" y1="479.868335155" y2="474.612676236" /><line stroke="rgb(0%,0%,0%)" x1="682.368518009" x2="682.366702092" y1="473.82259277" y2="474.612676236" /><line stroke="rgb(0%,0%,0%)" x1="682.368518009" x2="682.611800072" y1="473.82259277" y2="473.262761555" /><line stroke="rgb(0%,0%,0%)" x1="637.715462912" x2="636.727056476" y1="639.933902398" y2="642.510751006" /><line stroke="rgb(0%,0%,0%)" x1="637.715462912" x2="638.794832964" y1="639.933902398" y2="637.619575824" /><line stroke="rgb(0%,0%,0%)" x1="665.519261132" x2="664.648749243" y1="560.771751443" y2="564.807622099" /><line stroke="rgb(0%,0%,0%)" x1="665.742329998" x2="665.519261132" y1="559.387531969" y2="560.771751443" /><line stroke="rgb(0%,0%,0%)" x1="665.742329998" x2="666.419290212" y1="559.387531969" y2="556.676947366" /><line stroke="rgb(0%,0%,0%)" x1="672.529363169" x2="672.129009156" y1="528.417695832" y2="532.418200459" /><line stroke="rgb(0%,0%,0%)" x1="672.529363169" x2="675.210296449" y1="528.417695832" y2="520.430124746" /><line stroke="rgb(0%,0%,0%)" x1="676.925595224" x2="676.131889812" y1="510.525071462" y2="517.125183968" /><line stroke="rgb(0%,0%,0%)" x1="676.971727646" x2="677.394278361" y1="510.551294941" y2="508.840524793" /><line stroke="rgb(0%,0%,0%)" x1="678.187787293" x2="677.394278361" y1="502.648710361" y2="508.840524793" /><line stroke="rgb(0%,0%,0%)" x1="678.187787293" x2="679.041656825" y1="502.648710361" y2="497.470072325" /><line stroke="rgb(0%,0%,0%)" x1="682.611800072" x2="682.677299635" y1="473.262761555" y2="470.183706147" /><line stroke="rgb(0%,0%,0%)" x1="682.677299635" x2="683.322732633" y1="470.183706147" y2="464.752486847" /><line stroke="rgb(0%,0%,0%)" x1="683.322732633" x2="683.344981495" y1="464.752486847" y2="462.876959362" /><line stroke="rgb(0%,0%,0%)" x1="682.692151427" x2="683.344981495" y1="458.41711874" y2="462.876959362" /><line stroke="rgb(0%,0%,0%)" x1="622.385502342" x2="619.892825267" y1="672.75453038" y2="678.610939737" /><line stroke="rgb(0%,0%,0%)" x1="622.385502342" x2="623.827646434" y1="672.75453038" y2="670.404358601" /><line stroke="rgb(0%,0%,0%)" x1="636.727056476" x2="635.70759925" y1="642.510751006" y2="645.071280728" /><line stroke="rgb(0%,0%,0%)" x1="638.794832964" x2="641.416614029" y1="637.619575824" y2="627.888778082" /><line stroke="rgb(0%,0%,0%)" x1="641.416614029" x2="645.502555094" y1="627.888778082" y2="620.05541171" /><line stroke="rgb(0%,0%,0%)" x1="645.502555094" x2="647.290672257" y1="620.05541171" y2="615.108129542" /><line stroke="rgb(0%,0%,0%)" x1="647.290672257" x2="649.878924958" y1="615.108129542" y2="608.215940888" /><line stroke="rgb(0%,0%,0%)" x1="653.339212763" x2="649.878924958" y1="599.012044367" y2="608.215940888" /><line stroke="rgb(0%,0%,0%)" x1="654.792099144" x2="653.339212763" y1="593.498990115" y2="599.012044367" /><line stroke="rgb(0%,0%,0%)" x1="661.986747538" x2="663.540475955" y1="575.120166683" y2="569.510504747" /><line stroke="rgb(0%,0%,0%)" x1="663.540475955" x2="663.444371043" y1="569.510504747" y2="568.958428732" /><line stroke="rgb(0%,0%,0%)" x1="663.444371043" x2="663.601351148" y1="568.958428732" y2="568.563362619" /><line stroke="rgb(0%,0%,0%)" x1="663.601351148" x2="664.648749243" y1="568.563362619" y2="564.807622099" /><line stroke="rgb(0%,0%,0%)" x1="666.419290212" x2="667.497542495" y1="556.676947366" y2="548.294671758" /><line stroke="rgb(0%,0%,0%)" x1="667.497542495" x2="670.894968059" y1="548.294671758" y2="538.022456142" /><line stroke="rgb(0%,0%,0%)" x1="670.894968059" x2="671.392226115" y1="538.022456142" y2="536.028642652" /><line stroke="rgb(0%,0%,0%)" x1="676.925595224" x2="676.971727646" y1="510.525071462" y2="510.551294941" /><line stroke="rgb(0%,0%,0%)" x1="679.657637742" x2="680.881864285" y1="492.262254922" y2="482.011872439" /><line stroke="rgb(0%,0%,0%)" x1="682.692151427" x2="682.890772669" y1="458.41711874" y2="456.571418732" /><line stroke="rgb(0%,0%,0%)" x1="592.68684991" x2="597.119258548" y1="726.193709989" y2="719.112634097" /><line stroke="rgb(0%,0%,0%)" x1="608.343263969" x2="609.827287776" y1="698.075255532" y2="695.149065535" /><line stroke="rgb(0%,0%,0%)" x1="615.970819209" x2="609.827287776" y1="684.320661547" y2="695.149065535" /><line stroke="rgb(0%,0%,0%)" x1="615.970819209" x2="619.892825267" y1="684.320661547" y2="678.610939737" /><line stroke="rgb(0%,0%,0%)" x1="623.827646434" x2="626.461007551" y1="670.404358601" y2="663.048605931" /><line stroke="rgb(0%,0%,0%)" x1="626.461007551" x2="635.70759925" y1="663.048605931" y2="645.071280728" /><line stroke="rgb(0%,0%,0%)" x1="654.792099144" x2="659.514525444" y1="593.498990115" y2="581.69552763" /><line stroke="rgb(0%,0%,0%)" x1="659.514525444" x2="660.309081523" y1="581.69552763" y2="578.149965418" /><line stroke="rgb(0%,0%,0%)" x1="660.309081523" x2="661.986747538" y1="578.149965418" y2="575.120166683" /><line stroke="rgb(0%,0%,0%)" x1="671.392226115" x2="671.69069401" y1="536.028642652" y2="534.863201163" /><line stroke="rgb(0%,0%,0%)" x1="671.69069401" x2="672.129009156" y1="534.863201163" y2="532.418200459" /><line stroke="rgb(0%,0%,0%)" x1="675.210296449" x2="676.06172055" y1="520.430124746" y2="517.377137267" /><line stroke="rgb(0%,0%,0%)" x1="676.06172055" x2="676.131889812" y1="517.377137267" y2="517.125183968" /><line stroke="rgb(0%,0%,0%)" x1="679.041656825" x2="679.657637742" y1="497.470072325" y2="492.262254922" /><line stroke="rgb(0%,0%,0%)" x1="557.662325312" x2="552.997363506" y1="765.380247708" y2="768.685980121" /><line stroke="rgb(0%,0%,0%)" x1="557.662325312" x2="564.303880825" y1="765.380247708" y2="760.026638428" /><line stroke="rgb(0%,0%,0%)" x1="564.303880825" x2="572.564087628" y1="760.026638428" y2="753.735671459" /><line stroke="rgb(0%,0%,0%)" x1="572.564087628" x2="573.657460364" y1="753.735671459" y2="753.311097944" /><line stroke="rgb(0%,0%,0%)" x1="573.657460364" x2="577.942891353" y1="753.311097944" y2="750.216498456" /><line stroke="rgb(0%,0%,0%)" x1="589.686916246" x2="581.947175427" y1="733.564344314" y2="745.896854458" /><line stroke="rgb(0%,0%,0%)" x1="589.686916246" x2="592.68684991" y1="733.564344314" y2="726.193709989" /><line stroke="rgb(0%,0%,0%)" x1="597.119258548" x2="599.894667283" y1="719.112634097" y2="715.090806606" /><line stroke="rgb(0%,0%,0%)" x1="604.309467723" x2="599.894667283" y1="705.916449878" y2="715.090806606" /><line stroke="rgb(0%,0%,0%)" x1="604.309467723" x2="608.343263969" y1="705.916449878" y2="698.075255532" /><line stroke="rgb(0%,0%,0%)" x1="541.167631673" x2="552.997363506" y1="776.316736255" y2="768.685980121" /><line stroke="rgb(0%,0%,0%)" x1="577.942891353" x2="580.202186211" y1="750.216498456" y2="748.377234814" /><line stroke="rgb(0%,0%,0%)" x1="580.242905918" x2="581.947175427" y1="748.255722383" y2="745.896854458" /><line stroke="rgb(0%,0%,0%)" x1="580.202186211" x2="580.242905918" y1="748.377234814" y2="748.255722383" /><line stroke="rgb(0%,0%,0%)" x1="537.432520087" x2="522.035712872" y1="778.180818435" y2="786.459386067" /><line stroke="rgb(0%,0%,0%)" x1="537.432520087" x2="541.167631673" y1="778.180818435" y2="776.316736255" /><line stroke="rgb(0%,0%,0%)" x1="442.57263187" x2="445.206347379" y1="799.75852056" y2="800.335879374" /><line stroke="rgb(0%,0%,0%)" x1="442.57263187" x2="441.916254832" y1="799.75852056" y2="799.627726407" /><line stroke="rgb(0%,0%,0%)" x1="459.491003919" x2="453.622937787" y1="801.167439304" y2="801.524293393" /><line stroke="rgb(0%,0%,0%)" x1="459.491003919" x2="470.275548583" y1="801.167439304" y2="801.833694725" /><line stroke="rgb(0%,0%,0%)" x1="491.107235844" x2="479.774278401" y1="797.671539293" y2="800.032609726" /><line stroke="rgb(0%,0%,0%)" x1="470.275548583" x2="479.774278401" y1="801.833694725" y2="800.032609726" /><line stroke="rgb(0%,0%,0%)" x1="494.499847166" x2="504.566566568" y1="796.619099957" y2="793.80296907" /><line stroke="rgb(0%,0%,0%)" x1="491.107235844" x2="494.499847166" y1="797.671539293" y2="796.619099957" /><line stroke="rgb(0%,0%,0%)" x1="504.566566568" x2="510.571400329" y1="793.80296907" y2="791.566065981" /><line stroke="rgb(0%,0%,0%)" x1="510.571400329" x2="518.220000701" y1="791.566065981" y2="788.364401804" /><line stroke="rgb(0%,0%,0%)" x1="518.220000701" x2="522.035712872" y1="788.364401804" y2="786.459386067" /><line stroke="rgb(0%,0%,0%)" x1="406.46214888" x2="405.142539922" y1="781.697511454" y2="781.148782782" /><line stroke="rgb(0%,0%,0%)" x1="406.46214888" x2="409.508400314" y1="781.697511454" y2="784.060268503" /><line stroke="rgb(0%,0%,0%)" x1="405.142539922" x2="402.386005835" y1="781.148782782" y2="778.852996131" /><line stroke="rgb(0%,0%,0%)" x1="421.149776136" x2="424.042439908" y1="791.045153827" y2="793.502914487" /><line stroke="rgb(0%,0%,0%)" x1="432.145104616" x2="426.494298328" y1="795.912952788" y2="794.721750884" /><line stroke="rgb(0%,0%,0%)" x1="432.145104616" x2="441.916254832" y1="795.912952788" y2="799.627726407" /><line stroke="rgb(0%,0%,0%)" x1="445.206347379" x2="453.622937787" y1="800.335879374" y2="801.524293393" /><line stroke="rgb(0%,0%,0%)" x1="402.386005835" x2="391.278065546" y1="778.852996131" y2="767.947714688" /><line stroke="rgb(0%,0%,0%)" x1="409.508400314" x2="421.149776136" y1="784.060268503" y2="791.045153827" /><line stroke="rgb(0%,0%,0%)" x1="424.042439908" x2="426.494298328" y1="793.502914487" y2="794.721750884" /><line stroke="rgb(0%,0%,0%)" x1="334.466024125" x2="334.701753984" y1="722.069067511" y2="722.236915351" /><line stroke="rgb(0%,0%,0%)" x1="334.466024125" x2="334.420504059" y1="722.069067511" y2="722.040800576" /><line stroke="rgb(0%,0%,0%)" x1="350.680087558" x2="360.404196235" y1="733.598660586" y2="740.799734702" /><line stroke="rgb(0%,0%,0%)" x1="385.141436574" x2="377.936511769" y1="763.197327001" y2="755.737624722" /><line stroke="rgb(0%,0%,0%)" x1="369.191490364" x2="376.793989321" y1="749.024101091" y2="754.902927503" /><line stroke="rgb(0%,0%,0%)" x1="376.793989321" x2="377.936511769" y1="754.902927503" y2="755.737624722" /><line stroke="rgb(0%,0%,0%)" x1="385.141436574" x2="387.611650572" y1="763.197327001" y2="764.973683351" /><line stroke="rgb(0%,0%,0%)" x1="387.611650572" x2="391.278065546" y1="764.973683351" y2="767.947714688" /><line stroke="rgb(0%,0%,0%)" x1="299.168270657" x2="311.100334121" y1="643.030108266" y2="646.769265491" /><line stroke="rgb(0%,0%,0%)" x1="299.168270657" x2="298.073412396" y1="643.030108266" y2="642.234442339" /><line stroke="rgb(0%,0%,0%)" x1="311.100334121" x2="313.080558275" y1="646.769265491" y2="647.162035499" /><line stroke="rgb(0%,0%,0%)" x1="318.965814706" x2="322.898340395" y1="697.712521768" y2="706.333121741" /><line stroke="rgb(0%,0%,0%)" x1="318.965814706" x2="318.19919712" y1="697.712521768" y2="691.609180981" /><line stroke="rgb(0%,0%,0%)" x1="317.467362051" x2="321.721160805" y1="687.91928407" y2="669.316435367" /><line stroke="rgb(0%,0%,0%)" x1="328.07007644" x2="325.639297221" y1="714.733501112" y2="711.654071969" /><line stroke="rgb(0%,0%,0%)" x1="328.07007644" x2="334.420504059" y1="714.733501112" y2="722.040800576" /><line stroke="rgb(0%,0%,0%)" x1="319.995035313" x2="321.563619492" y1="647.813722724" y2="649.348878648" /><line stroke="rgb(0%,0%,0%)" x1="334.701753984" x2="345.818826527" y1="722.236915351" y2="729.251371" /><line stroke="rgb(0%,0%,0%)" x1="345.818826527" x2="350.680087558" y1="729.251371" y2="733.598660586" /><line stroke="rgb(0%,0%,0%)" x1="367.817213289" x2="360.404196235" y1="748.099632989" y2="740.799734702" /><line stroke="rgb(0%,0%,0%)" x1="367.817213289" x2="369.191490364" y1="748.099632989" y2="749.024101091" /><line stroke="rgb(0%,0%,0%)" x1="238.419797399" x2="238.939817052" y1="467.944505494" y2="468.243186496" /><line stroke="rgb(0%,0%,0%)" x1="258.76032955" x2="266.069606199" y1="587.253017418" y2="598.071962898" /><line stroke="rgb(0%,0%,0%)" x1="266.069606199" x2="275.973012405" y1="598.071962898" y2="614.701542439" /><line stroke="rgb(0%,0%,0%)" x1="271.327970451" x2="270.998572706" y1="561.661340207" y2="561.988913771" /><line stroke="rgb(0%,0%,0%)" x1="271.327970451" x2="271.951331772" y1="561.661340207" y2="561.45839288" /><line stroke="rgb(0%,0%,0%)" x1="275.574212301" x2="275.92620965" y1="461.387226784" y2="469.310494805" /><line stroke="rgb(0%,0%,0%)" x1="289.039308402" x2="286.457178553" y1="493.359349655" y2="494.288843864" /><line stroke="rgb(0%,0%,0%)" x1="286.457178553" x2="281.399749487" y1="494.288843864" y2="492.757342235" /><line stroke="rgb(0%,0%,0%)" x1="281.399749487" x2="275.623042068" y1="492.757342235" y2="490.685045134" /><line stroke="rgb(0%,0%,0%)" x1="289.651582501" x2="289.924913611" y1="488.727811672" y2="492.967427798" /><line stroke="rgb(0%,0%,0%)" x1="289.823926608" x2="289.924913611" y1="493.267925277" y2="492.967427798" /><line stroke="rgb(0%,0%,0%)" x1="289.823926608" x2="289.039308402" y1="493.267925277" y2="493.359349655" /><line stroke="rgb(0%,0%,0%)" x1="289.651582501" x2="286.752674963" y1="488.727811672" y2="483.666365853" /><line stroke="rgb(0%,0%,0%)" x1="279.276710506" x2="276.374039395" y1="476.534029576" y2="471.624134207" /><line stroke="rgb(0%,0%,0%)" x1="317.467362051" x2="318.19919712" y1="687.91928407" y2="691.609180981" /><line stroke="rgb(0%,0%,0%)" x1="313.080558275" x2="319.995035313" y1="647.162035499" y2="647.813722724" /><line stroke="rgb(0%,0%,0%)" x1="322.898340395" x2="325.639297221" y1="706.333121741" y2="711.654071969" /><line stroke="rgb(0%,0%,0%)" x1="323.508355267" x2="321.721160805" y1="662.642625431" y2="669.316435367" /><line stroke="rgb(0%,0%,0%)" x1="323.016254497" x2="323.527866826" y1="651.824114231" y2="659.938552141" /><line stroke="rgb(0%,0%,0%)" x1="321.563619492" x2="323.016254497" y1="649.348878648" y2="651.824114231" /><line stroke="rgb(0%,0%,0%)" x1="323.527866826" x2="323.508355267" y1="659.938552141" y2="662.642625431" /><line stroke="rgb(0%,0%,0%)" x1="231.054998422" x2="230.605559866" y1="484.410210626" y2="482.162151245" /><line stroke="rgb(0%,0%,0%)" x1="229.359446095" x2="229.070445082" y1="473.89488875" y2="471.865262789" /><line stroke="rgb(0%,0%,0%)" x1="229.651630429" x2="229.070445082" y1="470.995893146" y2="471.865262789" /><line stroke="rgb(0%,0%,0%)" x1="229.651630429" x2="230.868926912" y1="470.995893146" y2="470.138861714" /><line stroke="rgb(0%,0%,0%)" x1="244.565016963" x2="244.867985211" y1="511.59470108" y2="511.675860366" /><line stroke="rgb(0%,0%,0%)" x1="244.576791638" x2="244.178314297" y1="511.467651066" y2="511.015652535" /><line stroke="rgb(0%,0%,0%)" x1="244.565016963" x2="244.576791638" y1="511.59470108" y2="511.467651066" /><line stroke="rgb(0%,0%,0%)" x1="242.45479623" x2="244.178314297" y1="507.669170557" y2="511.015652535" /><line stroke="rgb(0%,0%,0%)" x1="238.924569007" x2="240.164808159" y1="500.322816441" y2="502.791955393" /><line stroke="rgb(0%,0%,0%)" x1="238.731823687" x2="238.924569007" y1="499.727502452" y2="500.322816441" /><line stroke="rgb(0%,0%,0%)" x1="231.788058511" x2="231.054998422" y1="485.888131456" y2="484.410210626" /><line stroke="rgb(0%,0%,0%)" x1="231.788058511" x2="232.482079916" y1="485.888131456" y2="487.281861871" /><line stroke="rgb(0%,0%,0%)" x1="251.871789889" x2="248.807001231" y1="474.878238076" y2="473.190613753" /><line stroke="rgb(0%,0%,0%)" x1="244.603990967" x2="248.807001231" y1="471.263437264" y2="473.190613753" /><line stroke="rgb(0%,0%,0%)" x1="244.603990967" x2="239.285623" y1="471.263437264" y2="468.732502708" /><line stroke="rgb(0%,0%,0%)" x1="238.939817052" x2="239.285623" y1="468.243186496" y2="468.732502708" /><line stroke="rgb(0%,0%,0%)" x1="238.419797399" x2="235.01399607" y1="467.944505494" y2="467.889517917" /><line stroke="rgb(0%,0%,0%)" x1="235.01399607" x2="234.257823264" y1="467.889517917" y2="467.56501761" /><line stroke="rgb(0%,0%,0%)" x1="234.257823264" x2="233.087783874" y1="467.56501761" y2="467.847755232" /><line stroke="rgb(0%,0%,0%)" x1="258.014702755" x2="255.956160061" y1="568.329988373" y2="571.400738939" /><line stroke="rgb(0%,0%,0%)" x1="266.069724593" x2="258.014702755" y1="563.934341697" y2="568.329988373" /><line stroke="rgb(0%,0%,0%)" x1="266.069724593" x2="269.261251021" y1="563.934341697" y2="562.279649264" /><line stroke="rgb(0%,0%,0%)" x1="260.716622915" x2="262.414146269" y1="535.753045024" y2="537.728008" /><line stroke="rgb(0%,0%,0%)" x1="259.609128181" x2="260.716622915" y1="534.015468297" y2="535.753045024" /><line stroke="rgb(0%,0%,0%)" x1="256.205629751" x2="259.609128181" y1="524.959632063" y2="534.015468297" /><line stroke="rgb(0%,0%,0%)" x1="256.205629751" x2="256.122302029" y1="524.959632063" y2="524.473382672" /><line stroke="rgb(0%,0%,0%)" x1="251.836600456" x2="256.122302029" y1="523.169257922" y2="524.473382672" /><line stroke="rgb(0%,0%,0%)" x1="251.836600456" x2="253.024523142" y1="523.169257922" y2="520.586894916" /><line stroke="rgb(0%,0%,0%)" x1="249.73494906" x2="251.956421145" y1="518.162955944" y2="519.139938101" /><line stroke="rgb(0%,0%,0%)" x1="251.956421145" x2="253.024523142" y1="519.139938101" y2="520.586894916" /><line stroke="rgb(0%,0%,0%)" x1="249.73494906" x2="249.742335669" y1="518.162955944" y2="517.079235593" /><line stroke="rgb(0%,0%,0%)" x1="249.742335669" x2="247.23049058" y1="517.079235593" y2="516.261861223" /><line stroke="rgb(0%,0%,0%)" x1="244.867985211" x2="245.494623059" y1="511.675860366" y2="513.369973503" /><line stroke="rgb(0%,0%,0%)" x1="251.871789889" x2="272.263039573" y1="474.878238076" y2="488.499679379" /><line stroke="rgb(0%,0%,0%)" x1="270.998572706" x2="269.261251021" y1="561.988913771" y2="562.279649264" /><line stroke="rgb(0%,0%,0%)" x1="272.846350922" x2="271.951331772" y1="561.016018212" y2="561.45839288" /><line stroke="rgb(0%,0%,0%)" x1="272.74627653" x2="272.846350922" y1="558.443894212" y2="561.016018212" /><line stroke="rgb(0%,0%,0%)" x1="272.865677423" x2="272.74627653" y1="557.677259088" y2="558.443894212" /><line stroke="rgb(0%,0%,0%)" x1="271.63956999" x2="272.865677423" y1="553.067661838" y2="557.677259088" /><line stroke="rgb(0%,0%,0%)" x1="271.63956999" x2="269.944797475" y1="553.067661838" y2="548.708683925" /><line stroke="rgb(0%,0%,0%)" x1="268.303442693" x2="269.944797475" y1="545.040119054" y2="548.708683925" /><line stroke="rgb(0%,0%,0%)" x1="264.439490634" x2="268.303442693" y1="540.260460123" y2="545.040119054" /><line stroke="rgb(0%,0%,0%)" x1="275.623042068" x2="274.695895366" y1="490.685045134" y2="490.143623968" /><line stroke="rgb(0%,0%,0%)" x1="275.92620965" x2="276.374039395" y1="469.310494805" y2="471.624134207" /><line stroke="rgb(0%,0%,0%)" x1="280.497503318" x2="286.683398669" y1="619.558828174" y2="629.097733188" /><line stroke="rgb(0%,0%,0%)" x1="275.973012405" x2="280.497503318" y1="614.701542439" y2="619.558828174" /><line stroke="rgb(0%,0%,0%)" x1="279.276710506" x2="286.752674963" y1="476.534029576" y2="483.666365853" /><line stroke="rgb(0%,0%,0%)" x1="290.689811991" x2="298.073412396" y1="634.652190118" y2="642.234442339" /><line stroke="rgb(0%,0%,0%)" x1="286.683398669" x2="290.689811991" y1="629.097733188" y2="634.652190118" /><line stroke="rgb(0%,0%,0%)" x1="234.287850599" x2="238.731823687" y1="491.735719742" y2="499.727502452" /><line stroke="rgb(0%,0%,0%)" x1="234.287850599" x2="233.093424762" y1="491.735719742" y2="488.931522044" /><line stroke="rgb(0%,0%,0%)" x1="232.482079916" x2="233.093424762" y1="487.281861871" y2="488.931522044" /><line stroke="rgb(0%,0%,0%)" x1="230.285049415" x2="230.605559866" y1="481.882030413" y2="482.162151245" /><line stroke="rgb(0%,0%,0%)" x1="229.359446095" x2="229.107745509" y1="473.89488875" y2="479.811747906" /><line stroke="rgb(0%,0%,0%)" x1="231.995555401" x2="230.868926912" y1="468.900257022" y2="470.138861714" /><line stroke="rgb(0%,0%,0%)" x1="233.087783874" x2="231.995555401" y1="467.847755232" y2="468.900257022" /><line stroke="rgb(0%,0%,0%)" x1="246.929920744" x2="247.23049058" y1="515.886303941" y2="516.261861223" /><line stroke="rgb(0%,0%,0%)" x1="245.494623059" x2="246.929920744" y1="513.369973503" y2="515.886303941" /><line stroke="rgb(0%,0%,0%)" x1="240.164808159" x2="242.45479623" y1="502.791955393" y2="507.669170557" /><line stroke="rgb(0%,0%,0%)" x1="255.231774035" x2="255.839461579" y1="572.35157832" y2="576.823727359" /><line stroke="rgb(0%,0%,0%)" x1="255.956160061" x2="255.231774035" y1="571.400738939" y2="572.35157832" /><line stroke="rgb(0%,0%,0%)" x1="273.394641358" x2="272.263039573" y1="489.235909075" y2="488.499679379" /><line stroke="rgb(0%,0%,0%)" x1="274.695895366" x2="273.394641358" y1="490.143623968" y2="489.235909075" /><line stroke="rgb(0%,0%,0%)" x1="262.414146269" x2="264.439490634" y1="537.728008" y2="540.260460123" /><line stroke="rgb(0%,0%,0%)" x1="229.107745509" x2="230.285049415" y1="479.811747906" y2="481.882030413" /><line stroke="rgb(0%,0%,0%)" x1="280.199525279" x2="277.932852023" y1="446.347321197" y2="451.881495953" /><line stroke="rgb(0%,0%,0%)" x1="277.932852023" x2="276.801160281" y1="451.881495953" y2="455.003359404" /><line stroke="rgb(0%,0%,0%)" x1="275.574212301" x2="276.801160281" y1="461.387226784" y2="455.003359404" /><line stroke="rgb(0%,0%,0%)" x1="483.513107713" x2="482.345714902" y1="123.261413448" y2="122.709850182" /><line stroke="rgb(0%,0%,0%)" x1="483.513107713" x2="486.09614159" y1="123.261413448" y2="123.973037032" /><line stroke="rgb(0%,0%,0%)" x1="322.374158138" x2="322.671982907" y1="171.618775714" y2="171.490758401" /><line stroke="rgb(0%,0%,0%)" x1="312.778909226" x2="312.90226587" y1="255.776103405" y2="256.341081117" /><line stroke="rgb(0%,0%,0%)" x1="311.996823321" x2="312.140980443" y1="252.733413999" y2="252.229040663" /><line stroke="rgb(0%,0%,0%)" x1="311.996823321" x2="312.765862862" y1="252.733413999" y2="255.725633889" /><line stroke="rgb(0%,0%,0%)" x1="312.765862862" x2="312.778909226" y1="255.725633889" y2="255.776103405" /><line stroke="rgb(0%,0%,0%)" x1="247.280433196" x2="243.89884288" y1="323.513988743" y2="329.403029532" /><line stroke="rgb(0%,0%,0%)" x1="247.280433196" x2="251.356712305" y1="323.513988743" y2="317.764536799" /><line stroke="rgb(0%,0%,0%)" x1="258.205889682" x2="255.839461579" y1="585.910003893" y2="576.823727359" /><line stroke="rgb(0%,0%,0%)" x1="258.205889682" x2="258.76032955" y1="585.910003893" y2="587.253017418" /><line stroke="rgb(0%,0%,0%)" x1="321.47890356" x2="322.059309578" y1="172.316689356" y2="171.83302823" /><line stroke="rgb(0%,0%,0%)" x1="322.059309578" x2="322.374158138" y1="171.83302823" y2="171.618775714" /><line stroke="rgb(0%,0%,0%)" x1="321.47890356" x2="320.700129015" y1="172.316689356" y2="173.035645487" /></svg>