<?xml version="1.0" encoding="utf-8" ?>
<svg baseProfile="full" height="100%" version="1.1" viewBox="0.5 0.5 685.793960571 941.299331665" width="100%" xmlns="http://www.w3.org/2000/svg" xmlns:ev="http://www.w3.org/2001/xml-events" xmlns:xlink="http://www.w3.org/1999/xlink"><defs /><line stroke="rgb(0%,0%,0%)" x1="533.717672797" x2="533.730225301" y1="458.204836947" y2="460.158310266" /><line stroke="rgb(0%,0%,0%)" x1="533.717672797" x2="533.499334468" y1="458.204836947" y2="453.964061911" /><line stroke="rgb(0%,0%,0%)" x1="515.282186933" x2="510.746855516" y1="393.106292907" y2="386.49504539" /><line stroke="rgb(0%,0%,0%)" x1="526.71301365" x2="522.048574317" y1="420.846003864" y2="411.53080336" /><line stroke="rgb(0%,0%,0%)" x1="518.434628033" x2="520.120441551" y1="400.649243814" y2="408.296772481" /><line stroke="rgb(0%,0%,0%)" x1="518.434628033" x2="516.656867331" y1="400.649243814" y2="395.81063731" /><line stroke="rgb(0%,0%,0%)" x1="516.656867331" x2="515.282186933" y1="395.81063731" y2="393.106292907" /><line stroke="rgb(0%,0%,0%)" x1="533.499334468" x2="532.978384543" y1="453.964061911" y2="443.803114847" /><line stroke="rgb(0%,0%,0%)" x1="532.978384543" x2="532.58914746" y1="443.803114847" y2="439.570042099" /><line stroke="rgb(0%,0%,0%)" x1="532.58914746" x2="530.977343266" y1="439.570042099" y2="432.932419346" /><line stroke="rgb(0%,0%,0%)" x1="529.200851401" x2="530.977343266" y1="427.520273019" y2="432.932419346" /><line stroke="rgb(0%,0%,0%)" x1="529.200851401" x2="526.71301365" y1="427.520273019" y2="420.846003864" /><line stroke="rgb(0%,0%,0%)" x1="500.63048425" x2="496.971054922" y1="373.725793711" y2="368.510290083" /><line stroke="rgb(0%,0%,0%)" x1="510.746855516" x2="507.959822161" y1="386.49504539" y2="382.204253908" /><line stroke="rgb(0%,0%,0%)" x1="500.63048425" x2="507.959822161" y1="373.725793711" y2="382.204253908" /><line stroke="rgb(0%,0%,0%)" x1="522.048574317" x2="520.783172996" y1="411.53080336" y2="409.197627486" /><line stroke="rgb(0%,0%,0%)" x1="520.783172996" x2="520.120441551" y1="409.197627486" y2="408.296772481" /><line stroke="rgb(0%,0%,0%)" x1="419.14893927" x2="419.958844896" y1="287.098245261" y2="287.805481812" /><line stroke="rgb(0%,0%,0%)" x1="419.14893927" x2="418.390474938" y1="287.098245261" y2="286.2233877" /><line stroke="rgb(0%,0%,0%)" x1="437.738231858" x2="440.67048988" y1="304.621167809" y2="306.664519028" /><line stroke="rgb(0%,0%,0%)" x1="437.738231858" x2="432.428898058" y1="304.621167809" y2="297.633206294" /><line stroke="rgb(0%,0%,0%)" x1="395.07391747" x2="394.334534794" y1="269.256336179" y2="268.372806844" /><line stroke="rgb(0%,0%,0%)" x1="395.715451006" x2="395.07391747" y1="270.506170461" y2="269.256336179" /><line stroke="rgb(0%,0%,0%)" x1="398.4486418" x2="404.749479884" y1="272.971108781" y2="275.294136808" /><line stroke="rgb(0%,0%,0%)" x1="418.390474938" x2="415.044264926" y1="286.2233877" y2="282.95392462" /><line stroke="rgb(0%,0%,0%)" x1="415.044264926" x2="410.931972063" y1="282.95392462" y2="278.709390981" /><line stroke="rgb(0%,0%,0%)" x1="410.931972063" x2="404.749479884" y1="278.709390981" y2="275.294136808" /><line stroke="rgb(0%,0%,0%)" x1="419.958844896" x2="424.274379709" y1="287.805481812" y2="291.182541946" /><line stroke="rgb(0%,0%,0%)" x1="430.934262058" x2="424.274379709" y1="296.136001164" y2="291.182541946" /><line stroke="rgb(0%,0%,0%)" x1="440.768762677" x2="440.67048988" y1="306.816485665" y2="306.664519028" /><line stroke="rgb(0%,0%,0%)" x1="432.428898058" x2="430.934262058" y1="297.633206294" y2="296.136001164" /><line stroke="rgb(0%,0%,0%)" x1="372.070289074" x2="372.041804057" y1="257.517975222" y2="257.440096954" /><line stroke="rgb(0%,0%,0%)" x1="372.196681249" x2="372.070289074" y1="257.552313389" y2="257.517975222" /><line stroke="rgb(0%,0%,0%)" x1="380.221080203" x2="372.196681249" y1="259.422367054" y2="257.552313389" /><line stroke="rgb(0%,0%,0%)" x1="372.041804057" x2="371.44524121" y1="257.440096954" y2="254.101792167" /><line stroke="rgb(0%,0%,0%)" x1="371.566935295" x2="371.241677198" y1="249.520206651" y2="251.662575404" /><line stroke="rgb(0%,0%,0%)" x1="371.566935295" x2="371.235525262" y1="249.520206651" y2="246.082946241" /><line stroke="rgb(0%,0%,0%)" x1="392.284280047" x2="386.39720312" y1="267.559379296" y2="266.660596519" /><line stroke="rgb(0%,0%,0%)" x1="383.554121802" x2="386.39720312" y1="264.678784434" y2="266.660596519" /><line stroke="rgb(0%,0%,0%)" x1="380.221080203" x2="381.289893479" y1="259.422367054" y2="261.277575691" /><line stroke="rgb(0%,0%,0%)" x1="398.4486418" x2="395.715451006" y1="272.971108781" y2="270.506170461" /><line stroke="rgb(0%,0%,0%)" x1="344.643342797" x2="335.756743414" y1="174.55135838" y2="161.693647796" /><line stroke="rgb(0%,0%,0%)" x1="344.643342797" x2="345.715297191" y1="174.55135838" y2="175.392436637" /><line stroke="rgb(0%,0%,0%)" x1="335.756743414" x2="333.431581362" y1="161.693647796" y2="159.894478431" /><line stroke="rgb(0%,0%,0%)" x1="354.84474221" x2="357.570663737" y1="187.574949595" y2="194.001727893" /><line stroke="rgb(0%,0%,0%)" x1="345.715297191" x2="347.333708109" y1="175.392436637" y2="177.731496171" /><line stroke="rgb(0%,0%,0%)" x1="354.84474221" x2="347.333708109" y1="187.574949595" y2="177.731496171" /><line stroke="rgb(0%,0%,0%)" x1="366.918088282" x2="366.032996767" y1="236.941709301" y2="233.966683746" /><line stroke="rgb(0%,0%,0%)" x1="364.174748462" x2="366.032996767" y1="227.266874408" y2="233.966683746" /><line stroke="rgb(0%,0%,0%)" x1="364.174748462" x2="364.082524705" y1="227.266874408" y2="223.590661974" /><line stroke="rgb(0%,0%,0%)" x1="364.082524705" x2="362.766142161" y1="223.590661974" y2="215.82147826" /><line stroke="rgb(0%,0%,0%)" x1="362.766142161" x2="362.567867085" y1="215.82147826" y2="212.636276848" /><line stroke="rgb(0%,0%,0%)" x1="362.567867085" x2="360.940475416" y1="212.636276848" y2="205.589327796" /><line stroke="rgb(0%,0%,0%)" x1="360.940475416" x2="357.570663737" y1="205.589327796" y2="194.001727893" /><line stroke="rgb(0%,0%,0%)" x1="371.44524121" x2="371.241677198" y1="254.101792167" y2="251.662575404" /><line stroke="rgb(0%,0%,0%)" x1="371.235525262" x2="371.218223475" y1="246.082946241" y2="246.009289026" /><line stroke="rgb(0%,0%,0%)" x1="366.918088282" x2="371.165952198" y1="236.941709301" y2="245.890461453" /><line stroke="rgb(0%,0%,0%)" x1="371.218223475" x2="371.165952198" y1="246.009289026" y2="245.890461453" /><line stroke="rgb(0%,0%,0%)" x1="383.554121802" x2="382.806669735" y1="264.678784434" y2="264.163639173" /><line stroke="rgb(0%,0%,0%)" x1="382.806669735" x2="381.289893479" y1="264.163639173" y2="261.277575691" /><line stroke="rgb(0%,0%,0%)" x1="394.334534794" x2="393.532818571" y1="268.372806844" y2="268.078012815" /><line stroke="rgb(0%,0%,0%)" x1="393.532818571" x2="392.284280047" y1="268.078012815" y2="267.559379296" /><line stroke="rgb(0%,0%,0%)" x1="302.149917252" x2="317.944888271" y1="156.923297527" y2="156.009104285" /><line stroke="rgb(0%,0%,0%)" x1="327.812044035" x2="322.276303636" y1="157.267504432" y2="156.27280039" /><line stroke="rgb(0%,0%,0%)" x1="333.431581362" x2="327.812044035" y1="159.894478431" y2="157.267504432" /><line stroke="rgb(0%,0%,0%)" x1="322.276303636" x2="320.936143157" y1="156.27280039" y2="156.042736029" /><line stroke="rgb(0%,0%,0%)" x1="280.418415912" x2="276.194231781" y1="165.534538853" y2="168.925796337" /><line stroke="rgb(0%,0%,0%)" x1="289.758535694" x2="270.452624712" y1="210.065853014" y2="201.903257558" /><line stroke="rgb(0%,0%,0%)" x1="286.457332278" x2="273.577927751" y1="222.225902014" y2="240.298201431" /><line stroke="rgb(0%,0%,0%)" x1="289.758535694" x2="287.064520034" y1="210.065853014" y2="219.328010607" /><line stroke="rgb(0%,0%,0%)" x1="273.577927751" x2="269.956763459" y1="240.298201431" y2="245.055028653" /><line stroke="rgb(0%,0%,0%)" x1="287.064520034" x2="286.457332278" y1="219.328010607" y2="222.225902014" /><line stroke="rgb(0%,0%,0%)" x1="268.465063309" x2="270.452624712" y1="201.055782066" y2="201.903257558" /><line stroke="rgb(0%,0%,0%)" x1="276.194231781" x2="273.142163989" y1="168.925796337" y2="170.82305695" /><line stroke="rgb(0%,0%,0%)" x1="280.418415912" x2="283.140041396" y1="165.534538853" y2="164.085444293" /><line stroke="rgb(0%,0%,0%)" x1="287.926735936" x2="288.320210469" y1="163.255557473" y2="163.145661379" /><line stroke="rgb(0%,0%,0%)" x1="287.926735936" x2="283.140041396" y1="163.255557473" y2="164.085444293" /><line stroke="rgb(0%,0%,0%)" x1="292.82021743" x2="288.320210469" y1="161.115055286" y2="163.145661379" /><line stroke="rgb(0%,0%,0%)" x1="302.149917252" x2="298.669174545" y1="156.923297527" y2="158.637227984" /><line stroke="rgb(0%,0%,0%)" x1="298.669174545" x2="292.82021743" y1="158.637227984" y2="161.115055286" /><line stroke="rgb(0%,0%,0%)" x1="320.936143157" x2="317.944888271" y1="156.042736029" y2="156.009104285" /><line stroke="rgb(0%,0%,0%)" x1="252.932125805" x2="241.969354133" y1="265.720552571" y2="264.336739016" /><line stroke="rgb(0%,0%,0%)" x1="241.969354133" x2="239.478038053" y1="264.336739016" y2="261.171278505" /><line stroke="rgb(0%,0%,0%)" x1="252.932125805" x2="253.82759442" y1="265.720552571" y2="265.560123005" /><line stroke="rgb(0%,0%,0%)" x1="259.001294784" x2="253.82759442" y1="260.575866563" y2="265.560123005" /><line stroke="rgb(0%,0%,0%)" x1="269.956763459" x2="259.001294784" y1="245.055028653" y2="260.575866563" /><line stroke="rgb(0%,0%,0%)" x1="265.048940015" x2="267.679901166" y1="189.393967519" y2="200.518892389" /><line stroke="rgb(0%,0%,0%)" x1="267.679901166" x2="268.465063309" y1="200.518892389" y2="201.055782066" /><line stroke="rgb(0%,0%,0%)" x1="268.461922815" x2="264.580993016" y1="181.062359488" y2="188.27647864" /><line stroke="rgb(0%,0%,0%)" x1="264.580993016" x2="265.048940015" y1="188.27647864" y2="189.393967519" /><line stroke="rgb(0%,0%,0%)" x1="271.515229411" x2="268.706090725" y1="173.555709373" y2="178.29353862" /><line stroke="rgb(0%,0%,0%)" x1="268.706090725" x2="268.461922815" y1="178.29353862" y2="181.062359488" /><line stroke="rgb(0%,0%,0%)" x1="273.142163989" x2="271.515229411" y1="170.82305695" y2="173.555709373" /><line stroke="rgb(0%,0%,0%)" x1="191.102255271" x2="189.556669591" y1="264.217783673" y2="264.205611741" /><line stroke="rgb(0%,0%,0%)" x1="191.102255271" x2="192.189769486" y1="264.217783673" y2="263.906302257" /><line stroke="rgb(0%,0%,0%)" x1="202.30852422" x2="202.973639211" y1="261.909430385" y2="261.690502758" /><line stroke="rgb(0%,0%,0%)" x1="202.30852422" x2="200.542120929" y1="261.909430385" y2="262.66600981" /><line stroke="rgb(0%,0%,0%)" x1="207.940774654" x2="209.395961829" y1="260.676659159" y2="259.71293451" /><line stroke="rgb(0%,0%,0%)" x1="211.996869815" x2="213.19806682" y1="258.685641214" y2="257.785570058" /><line stroke="rgb(0%,0%,0%)" x1="213.19806682" x2="217.598228959" y1="257.785570058" y2="253.866943062" /><line stroke="rgb(0%,0%,0%)" x1="218.946756275" x2="218.362426062" y1="252.629301047" y2="253.2896931" /><line stroke="rgb(0%,0%,0%)" x1="228.071086838" x2="224.715648429" y1="246.222940428" y2="245.941021095" /><line stroke="rgb(0%,0%,0%)" x1="239.478038053" x2="228.071086838" y1="261.171278505" y2="246.222940428" /><line stroke="rgb(0%,0%,0%)" x1="222.990453512" x2="218.946756275" y1="247.259777093" y2="252.629301047" /><line stroke="rgb(0%,0%,0%)" x1="222.990453512" x2="223.355783619" y1="247.259777093" y2="246.660257294" /><line stroke="rgb(0%,0%,0%)" x1="223.355783619" x2="224.715648429" y1="246.660257294" y2="245.941021095" /><line stroke="rgb(0%,0%,0%)" x1="172.073841506" x2="163.432605442" y1="266.715490294" y2="269.6488915" /><line stroke="rgb(0%,0%,0%)" x1="175.920333243" x2="174.040020349" y1="265.794445346" y2="265.944093022" /><line stroke="rgb(0%,0%,0%)" x1="175.920333243" x2="178.808044313" y1="265.794445346" y2="265.881402071" /><line stroke="rgb(0%,0%,0%)" x1="174.040020349" x2="172.073841506" y1="265.944093022" y2="266.715490294" /><line stroke="rgb(0%,0%,0%)" x1="178.808044313" x2="181.548386234" y1="265.881402071" y2="266.059441204" /><line stroke="rgb(0%,0%,0%)" x1="185.635268577" x2="181.548386234" y1="264.73462888" y2="266.059441204" /><line stroke="rgb(0%,0%,0%)" x1="189.556669591" x2="185.635268577" y1="264.205611741" y2="264.73462888" /><line stroke="rgb(0%,0%,0%)" x1="193.979987328" x2="192.189769486" y1="263.726470459" y2="263.906302257" /><line stroke="rgb(0%,0%,0%)" x1="196.541084068" x2="193.979987328" y1="263.664418073" y2="263.726470459" /><line stroke="rgb(0%,0%,0%)" x1="196.541084068" x2="198.138620432" y1="263.664418073" y2="263.053120996" /><line stroke="rgb(0%,0%,0%)" x1="200.24001584" x2="198.456493645" y1="262.860507887" y2="262.973381262" /><line stroke="rgb(0%,0%,0%)" x1="200.542120929" x2="200.24001584" y1="262.66600981" y2="262.860507887" /><line stroke="rgb(0%,0%,0%)" x1="198.456493645" x2="198.138620432" y1="262.973381262" y2="263.053120996" /><line stroke="rgb(0%,0%,0%)" x1="207.940774654" x2="202.973639211" y1="260.676659159" y2="261.690502758" /><line stroke="rgb(0%,0%,0%)" x1="211.996869815" x2="209.395961829" y1="258.685641214" y2="259.71293451" /><line stroke="rgb(0%,0%,0%)" x1="218.166964402" x2="217.598228959" y1="253.391775757" y2="253.866943062" /><line stroke="rgb(0%,0%,0%)" x1="218.362426062" x2="218.166964402" y1="253.2896931" y2="253.391775757" /><line stroke="rgb(0%,0%,0%)" x1="138.748710269" x2="146.896553914" y1="284.476406876" y2="279.395819253" /><line stroke="rgb(0%,0%,0%)" x1="162.397633835" x2="161.76821921" y1="270.190083552" y2="270.60699779" /><line stroke="rgb(0%,0%,0%)" x1="163.432605442" x2="162.397633835" y1="269.6488915" y2="270.190083552" /><line stroke="rgb(0%,0%,0%)" x1="108.829737817" x2="108.839029379" y1="299.427290731" y2="299.422013125" /><line stroke="rgb(0%,0%,0%)" x1="117.544917616" x2="108.839029379" y1="294.500111014" y2="299.422013125" /><line stroke="rgb(0%,0%,0%)" x1="117.544917616" x2="120.507894521" y1="294.500111014" y2="292.220451903" /><line stroke="rgb(0%,0%,0%)" x1="135.337447323" x2="120.507894521" y1="285.920594016" y2="292.220451903" /><line stroke="rgb(0%,0%,0%)" x1="135.337447323" x2="137.164368541" y1="285.920594016" y2="284.994286155" /><line stroke="rgb(0%,0%,0%)" x1="155.152149834" x2="146.896553914" y1="274.328275568" y2="279.395819253" /><line stroke="rgb(0%,0%,0%)" x1="158.60061302" x2="155.152149834" y1="272.292050639" y2="274.328275568" /><line stroke="rgb(0%,0%,0%)" x1="138.748710269" x2="137.164368541" y1="284.476406876" y2="284.994286155" /><line stroke="rgb(0%,0%,0%)" x1="161.76821921" x2="158.60061302" y1="270.60699779" y2="272.292050639" /><line stroke="rgb(0%,0%,0%)" x1="90.7274731315" x2="86.6450521114" y1="317.340047483" y2="320.011333094" /><line stroke="rgb(0%,0%,0%)" x1="96.8842761206" x2="90.7274731315" y1="312.596200931" y2="317.340047483" /><line stroke="rgb(0%,0%,0%)" x1="86.6450521114" x2="84.3466038341" y1="320.011333094" y2="321.727630684" /><line stroke="rgb(0%,0%,0%)" x1="98.6045368139" x2="96.8842761206" y1="311.058562199" y2="312.596200931" /><line stroke="rgb(0%,0%,0%)" x1="98.6045368139" x2="98.9555533504" y1="311.058562199" y2="310.930079032" /><line stroke="rgb(0%,0%,0%)" x1="108.829737817" x2="98.9555533504" y1="299.427290731" y2="310.930079032" /><line stroke="rgb(0%,0%,0%)" x1="39.6090143116" x2="39.4611539718" y1="425.212642255" y2="424.517315708" /><line stroke="rgb(0%,0%,0%)" x1="38.9564582361" x2="38.9476701068" y1="384.483145511" y2="385.465369315" /><line stroke="rgb(0%,0%,0%)" x1="41.0493670153" x2="41.6082336731" y1="396.340932956" y2="398.807466612" /><line stroke="rgb(0%,0%,0%)" x1="38.9476701068" x2="41.0493670153" y1="385.465369315" y2="396.340932956" /><line stroke="rgb(0%,0%,0%)" x1="38.9564582361" x2="38.9414030822" y1="384.483145511" y2="384.204119423" /><line stroke="rgb(0%,0%,0%)" x1="38.9414030822" x2="39.9021066751" y1="384.204119423" y2="378.627375376" /><line stroke="rgb(0%,0%,0%)" x1="49.5745799495" x2="57.9470457583" y1="353.979718112" y2="345.840394321" /><line stroke="rgb(0%,0%,0%)" x1="67.8600098951" x2="67.3394282637" y1="341.152792309" y2="341.283373831" /><line stroke="rgb(0%,0%,0%)" x1="67.8600098951" x2="68.9687698811" y1="341.152792309" y2="339.917217736" /><line stroke="rgb(0%,0%,0%)" x1="67.3394282637" x2="61.2905425176" y1="341.283373831" y2="343.657050498" /><line stroke="rgb(0%,0%,0%)" x1="61.2905425176" x2="57.9470457583" y1="343.657050498" y2="345.840394321" /><line stroke="rgb(0%,0%,0%)" x1="29.3246670926" x2="21.2266394792" y1="428.882921398" y2="434.003107339" /><line stroke="rgb(0%,0%,0%)" x1="29.3246670926" x2="29.9634977414" y1="428.882921398" y2="428.577612246" /><line stroke="rgb(0%,0%,0%)" x1="29.9634977414" x2="31.1500316883" y1="428.577612246" y2="428.097640838" /><line stroke="rgb(0%,0%,0%)" x1="37.1668539879" x2="31.1500316883" y1="426.767054463" y2="428.097640838" /><line stroke="rgb(0%,0%,0%)" x1="39.2271429246" x2="37.1668539879" y1="426.096635023" y2="426.767054463" /><line stroke="rgb(0%,0%,0%)" x1="39.6090143116" x2="39.2271429246" y1="425.212642255" y2="426.096635023" /><line stroke="rgb(0%,0%,0%)" x1="43.3154617759" x2="39.4611539718" y1="416.729366946" y2="424.517315708" /><line stroke="rgb(0%,0%,0%)" x1="43.3154617759" x2="44.2251298359" y1="416.729366946" y2="408.468693944" /><line stroke="rgb(0%,0%,0%)" x1="43.7366199668" x2="44.2251298359" y1="405.655573606" y2="408.468693944" /><line stroke="rgb(0%,0%,0%)" x1="41.6082336731" x2="43.7366199668" y1="398.807466612" y2="405.655573606" /><line stroke="rgb(0%,0%,0%)" x1="41.5837177389" x2="39.9021066751" y1="371.349257799" y2="378.627375376" /><line stroke="rgb(0%,0%,0%)" x1="44.4916260974" x2="41.5837177389" y1="363.383902109" y2="371.349257799" /><line stroke="rgb(0%,0%,0%)" x1="47.8526892056" x2="44.4916260974" y1="356.470086126" y2="363.383902109" /><line stroke="rgb(0%,0%,0%)" x1="49.5745799495" x2="47.8526892056" y1="353.979718112" y2="356.470086126" /><line stroke="rgb(0%,0%,0%)" x1="2.32587737708" x2="1.89095797155" y1="453.381922163" y2="459.271842987" /><line stroke="rgb(0%,0%,0%)" x1="2.32587737708" x2="2.32275948701" y1="453.381922163" y2="452.131305133" /><line stroke="rgb(0%,0%,0%)" x1="2.32275948701" x2="2.71396864924" y1="452.131305133" y2="451.264621409" /><line stroke="rgb(0%,0%,0%)" x1="2.71396864924" x2="6.39678731948" y1="451.264621409" y2="445.958063249" /><line stroke="rgb(0%,0%,0%)" x1="8.24276101788" x2="6.39678731948" y1="443.427560172" y2="445.958063249" /><line stroke="rgb(0%,0%,0%)" x1="9.61421956604" x2="20.1347910495" y1="442.308015052" y2="434.74503237" /><line stroke="rgb(0%,0%,0%)" x1="8.94862864625" x2="8.24276101788" y1="442.833495049" y2="443.427560172" /><line stroke="rgb(0%,0%,0%)" x1="9.61421956604" x2="8.94862864625" y1="442.308015052" y2="442.833495049" /><line stroke="rgb(0%,0%,0%)" x1="20.2578211193" x2="20.1347910495" y1="434.643929542" y2="434.74503237" /><line stroke="rgb(0%,0%,0%)" x1="21.2266394792" x2="20.2578211193" y1="434.003107339" y2="434.643929542" /><line stroke="rgb(0%,0%,0%)" x1="447.613395841" x2="447.697214275" y1="313.191590975" y2="313.249307496" /><line stroke="rgb(0%,0%,0%)" x1="447.613395841" x2="447.532057112" y1="313.191590975" y2="313.119226081" /><line stroke="rgb(0%,0%,0%)" x1="458.492133926" x2="453.637907635" y1="324.479403792" y2="319.530312411" /><line stroke="rgb(0%,0%,0%)" x1="453.637907635" x2="452.281370492" y1="319.530312411" y2="317.975421259" /><line stroke="rgb(0%,0%,0%)" x1="477.541960238" x2="473.988994605" y1="343.053585381" y2="339.608606844" /><line stroke="rgb(0%,0%,0%)" x1="458.492133926" x2="459.007560446" y1="324.479403792" y2="325.073487393" /><line stroke="rgb(0%,0%,0%)" x1="468.475201774" x2="466.18699744" y1="334.376837654" y2="331.314115218" /><line stroke="rgb(0%,0%,0%)" x1="459.007560446" x2="465.136393944" y1="325.073487393" y2="330.387777081" /><line stroke="rgb(0%,0%,0%)" x1="494.500032081" x2="492.423855469" y1="364.481429867" y2="362.098702231" /><line stroke="rgb(0%,0%,0%)" x1="492.423855469" x2="484.286104957" y1="362.098702231" y2="351.774584264" /><line stroke="rgb(0%,0%,0%)" x1="484.286104957" x2="477.541960238" y1="351.774584264" y2="343.053585381" /><line stroke="rgb(0%,0%,0%)" x1="473.988994605" x2="468.475201774" y1="339.608606844" y2="334.376837654" /><line stroke="rgb(0%,0%,0%)" x1="496.259115165" x2="496.578273078" y1="366.806480266" y2="367.831170242" /><line stroke="rgb(0%,0%,0%)" x1="494.500032081" x2="496.259115165" y1="364.481429867" y2="366.806480266" /><line stroke="rgb(0%,0%,0%)" x1="496.971054922" x2="496.578273078" y1="368.510290083" y2="367.831170242" /><line stroke="rgb(0%,0%,0%)" x1="447.532057112" x2="446.026579967" y1="313.119226081" y2="311.70219492" /><line stroke="rgb(0%,0%,0%)" x1="452.281370492" x2="447.697214275" y1="317.975421259" y2="313.249307496" /><line stroke="rgb(0%,0%,0%)" x1="446.026579967" x2="441.567076057" y1="311.70219492" y2="307.631370304" /><line stroke="rgb(0%,0%,0%)" x1="441.567076057" x2="440.768762677" y1="307.631370304" y2="306.816485665" /><line stroke="rgb(0%,0%,0%)" x1="466.152434876" x2="465.136393944" y1="331.276884766" y2="330.387777081" /><line stroke="rgb(0%,0%,0%)" x1="466.18699744" x2="466.152434876" y1="331.314115218" y2="331.276884766" /><line stroke="rgb(0%,0%,0%)" x1="411.567589866" x2="413.34137479" y1="629.24576856" y2="628.116966179" /><line stroke="rgb(0%,0%,0%)" x1="413.34137479" x2="422.314179742" y1="628.116966179" y2="623.740610148" /><line stroke="rgb(0%,0%,0%)" x1="422.314179742" x2="424.319414973" y1="623.740610148" y2="622.546670815" /><line stroke="rgb(0%,0%,0%)" x1="434.274465976" x2="424.319414973" y1="615.378037637" y2="622.546670815" /><line stroke="rgb(0%,0%,0%)" x1="434.274465976" x2="436.014791655" y1="615.378037637" y2="613.974997104" /><line stroke="rgb(0%,0%,0%)" x1="361.976239612" x2="361.807032611" y1="667.725712165" y2="669.402463368" /><line stroke="rgb(0%,0%,0%)" x1="372.070391799" x2="374.898800015" y1="657.006459668" y2="652.497994735" /><line stroke="rgb(0%,0%,0%)" x1="375.712267948" x2="374.898800015" y1="651.234182007" y2="652.497994735" /><line stroke="rgb(0%,0%,0%)" x1="375.712267948" x2="381.359534812" y1="651.234182007" y2="647.80477453" /><line stroke="rgb(0%,0%,0%)" x1="381.359534812" x2="384.859880173" y1="647.80477453" y2="645.736067402" /><line stroke="rgb(0%,0%,0%)" x1="387.972172839" x2="384.859880173" y1="642.953957726" y2="645.736067402" /><line stroke="rgb(0%,0%,0%)" x1="387.972172839" x2="393.317788159" y1="642.953957726" y2="640.331361239" /><line stroke="rgb(0%,0%,0%)" x1="397.95630672" x2="393.317788159" y1="638.802996489" y2="640.331361239" /><line stroke="rgb(0%,0%,0%)" x1="403.527569312" x2="408.871330804" y1="634.317906977" y2="630.202405993" /><line stroke="rgb(0%,0%,0%)" x1="397.95630672" x2="403.527569312" y1="638.802996489" y2="634.317906977" /><line stroke="rgb(0%,0%,0%)" x1="408.871330804" x2="411.567589866" y1="630.202405993" y2="629.24576856" /><line stroke="rgb(0%,0%,0%)" x1="342.413593298" x2="339.686125337" y1="771.00389993" y2="775.233896217" /><line stroke="rgb(0%,0%,0%)" x1="342.413593298" x2="345.910970892" y1="771.00389993" y2="760.852392183" /><line stroke="rgb(0%,0%,0%)" x1="353.248469467" x2="353.182927243" y1="742.191229628" y2="742.347973877" /><line stroke="rgb(0%,0%,0%)" x1="353.256685596" x2="353.248469467" y1="742.177613799" y2="742.191229628" /><line stroke="rgb(0%,0%,0%)" x1="347.743882973" x2="353.182927243" y1="757.495905856" y2="742.347973877" /><line stroke="rgb(0%,0%,0%)" x1="353.256685596" x2="353.270060337" y1="742.177613799" y2="742.132147693" /><line stroke="rgb(0%,0%,0%)" x1="353.270060337" x2="358.065967188" y1="742.132147693" y2="725.257484084" /><line stroke="rgb(0%,0%,0%)" x1="358.065967188" x2="358.039980662" y1="725.257484084" y2="716.255104304" /><line stroke="rgb(0%,0%,0%)" x1="358.039980662" x2="359.429344738" y1="716.255104304" y2="707.475489436" /><line stroke="rgb(0%,0%,0%)" x1="359.429344738" x2="358.751222587" y1="707.475489436" y2="701.39341846" /><line stroke="rgb(0%,0%,0%)" x1="358.543261208" x2="358.751222587" y1="699.275752169" y2="701.39341846" /><line stroke="rgb(0%,0%,0%)" x1="358.543261208" x2="357.638023462" y1="699.275752169" y2="691.414067688" /><line stroke="rgb(0%,0%,0%)" x1="357.638023462" x2="357.639225003" y1="691.414067688" y2="687.334853524" /><line stroke="rgb(0%,0%,0%)" x1="357.211533838" x2="357.639225003" y1="683.136330111" y2="687.334853524" /><line stroke="rgb(0%,0%,0%)" x1="357.211533838" x2="357.728310304" y1="683.136330111" y2="681.483981777" /><line stroke="rgb(0%,0%,0%)" x1="357.728310304" x2="360.805873628" y1="681.483981777" y2="673.572983449" /><line stroke="rgb(0%,0%,0%)" x1="360.805873628" x2="361.111607923" y1="673.572983449" y2="672.81911289" /><line stroke="rgb(0%,0%,0%)" x1="361.111607923" x2="361.807032611" y1="672.81911289" y2="669.402463368" /><line stroke="rgb(0%,0%,0%)" x1="361.976239612" x2="361.816932986" y1="667.725712165" y2="666.933188394" /><line stroke="rgb(0%,0%,0%)" x1="361.816932986" x2="362.894340925" y1="666.933188394" y2="662.091106819" /><line stroke="rgb(0%,0%,0%)" x1="362.894340925" x2="363.17501124" y1="662.091106819" y2="661.005556966" /><line stroke="rgb(0%,0%,0%)" x1="363.17501124" x2="364.557661831" y1="661.005556966" y2="659.424309836" /><line stroke="rgb(0%,0%,0%)" x1="367.912417962" x2="372.070391799" y1="659.16390728" y2="657.006459668" /><line stroke="rgb(0%,0%,0%)" x1="367.912417962" x2="364.557661831" y1="659.16390728" y2="659.424309836" /><line stroke="rgb(0%,0%,0%)" x1="283.51746487" x2="284.038359731" y1="719.413934818" y2="720.984185719" /><line stroke="rgb(0%,0%,0%)" x1="284.038359731" x2="284.796786039" y1="720.984185719" y2="723.493813598" /><line stroke="rgb(0%,0%,0%)" x1="311.460778919" x2="328.244204445" y1="781.853915875" y2="781.052081036" /><line stroke="rgb(0%,0%,0%)" x1="328.244204445" x2="329.241610181" y1="781.052081036" y2="780.949727232" /><line stroke="rgb(0%,0%,0%)" x1="336.235159686" x2="329.241610181" y1="778.768302645" y2="780.949727232" /><line stroke="rgb(0%,0%,0%)" x1="336.235159686" x2="339.686125337" y1="778.768302645" y2="775.233896217" /><line stroke="rgb(0%,0%,0%)" x1="345.910970892" x2="347.743882973" y1="760.852392183" y2="757.495905856" /><line stroke="rgb(0%,0%,0%)" x1="274.95113465" x2="263.549763426" y1="698.49366831" y2="671.214806386" /><line stroke="rgb(0%,0%,0%)" x1="274.95113465" x2="283.51746487" y1="698.49366831" y2="719.413934818" /><line stroke="rgb(0%,0%,0%)" x1="261.646256543" x2="261.316261364" y1="643.67019889" y2="640.081126496" /><line stroke="rgb(0%,0%,0%)" x1="261.646256543" x2="262.605641893" y1="643.67019889" y2="666.37675816" /><line stroke="rgb(0%,0%,0%)" x1="261.316261364" x2="255.791256869" y1="640.081126496" y2="638.072429201" /><line stroke="rgb(0%,0%,0%)" x1="291.882549551" x2="294.526033596" y1="769.757828704" y2="772.72267245" /><line stroke="rgb(0%,0%,0%)" x1="291.882549551" x2="288.439046312" y1="769.757828704" y2="763.480558991" /><line stroke="rgb(0%,0%,0%)" x1="294.526033596" x2="301.326304241" y1="772.72267245" y2="778.160301622" /><line stroke="rgb(0%,0%,0%)" x1="288.497691466" x2="288.439046312" y1="763.502910093" y2="763.480558991" /><line stroke="rgb(0%,0%,0%)" x1="284.081284222" x2="288.497691466" y1="753.580615016" y2="763.502910093" /><line stroke="rgb(0%,0%,0%)" x1="283.759793414" x2="283.963294871" y1="750.298943596" y2="743.859168533" /><line stroke="rgb(0%,0%,0%)" x1="286.611220714" x2="283.963294871" y1="737.492691407" y2="743.859168533" /><line stroke="rgb(0%,0%,0%)" x1="284.796786039" x2="286.124576362" y1="723.493813598" y2="731.45315628" /><line stroke="rgb(0%,0%,0%)" x1="301.326304241" x2="301.680226247" y1="778.160301622" y2="778.257611768" /><line stroke="rgb(0%,0%,0%)" x1="309.300417834" x2="301.680226247" y1="781.152128758" y2="778.257611768" /><line stroke="rgb(0%,0%,0%)" x1="309.300417834" x2="311.460778919" y1="781.152128758" y2="781.853915875" /><line stroke="rgb(0%,0%,0%)" x1="226.82623134" x2="227.048220575" y1="670.258135943" y2="670.285060822" /><line stroke="rgb(0%,0%,0%)" x1="226.82623134" x2="226.792583411" y1="670.258135943" y2="670.188248364" /><line stroke="rgb(0%,0%,0%)" x1="222.663110978" x2="226.792583411" y1="667.378000892" y2="670.188248364" /><line stroke="rgb(0%,0%,0%)" x1="230.986793319" x2="240.432106416" y1="664.362890616" y2="647.355161888" /><line stroke="rgb(0%,0%,0%)" x1="240.432106416" x2="241.182553981" y1="647.355161888" y2="646.492887999" /><line stroke="rgb(0%,0%,0%)" x1="241.182553981" x2="242.04776519" y1="646.492887999" y2="645.968766146" /><line stroke="rgb(0%,0%,0%)" x1="253.312533061" x2="242.04776519" y1="637.832762144" y2="645.968766146" /><line stroke="rgb(0%,0%,0%)" x1="254.913048466" x2="255.791256869" y1="638.013002808" y2="638.072429201" /><line stroke="rgb(0%,0%,0%)" x1="253.312533061" x2="254.913048466" y1="637.832762144" y2="638.013002808" /><line stroke="rgb(0%,0%,0%)" x1="262.566849058" x2="263.022040979" y1="668.862661318" y2="670.108013933" /><line stroke="rgb(0%,0%,0%)" x1="262.605641893" x2="262.566849058" y1="666.37675816" y2="668.862661318" /><line stroke="rgb(0%,0%,0%)" x1="263.022040979" x2="263.549763426" y1="670.108013933" y2="671.214806386" /><line stroke="rgb(0%,0%,0%)" x1="283.759793414" x2="284.081284222" y1="750.298943596" y2="753.580615016" /><line stroke="rgb(0%,0%,0%)" x1="286.124576362" x2="286.481810203" y1="731.45315628" y2="734.604719845" /><line stroke="rgb(0%,0%,0%)" x1="286.481810203" x2="286.611220714" y1="734.604719845" y2="737.492691407" /><line stroke="rgb(0%,0%,0%)" x1="171.524276532" x2="170.08327062" y1="649.446781774" y2="649.14088302" /><line stroke="rgb(0%,0%,0%)" x1="181.572898647" x2="181.614332109" y1="654.514534105" y2="654.559580118" /><line stroke="rgb(0%,0%,0%)" x1="178.483594612" x2="181.572898647" y1="653.006666348" y2="654.514534105" /><line stroke="rgb(0%,0%,0%)" x1="178.483594612" x2="177.901064946" y1="653.006666348" y2="652.793579205" /><line stroke="rgb(0%,0%,0%)" x1="171.524276532" x2="174.755680172" y1="649.446781774" y2="650.328143618" /><line stroke="rgb(0%,0%,0%)" x1="197.484567436" x2="199.591280405" y1="659.684293788" y2="660.315615755" /><line stroke="rgb(0%,0%,0%)" x1="197.484567436" x2="196.210839916" y1="659.684293788" y2="659.374622726" /><line stroke="rgb(0%,0%,0%)" x1="196.210839916" x2="194.914259974" y1="659.374622726" y2="659.346619171" /><line stroke="rgb(0%,0%,0%)" x1="189.350020261" x2="191.22686367" y1="656.896525388" y2="657.913539128" /><line stroke="rgb(0%,0%,0%)" x1="193.071857011" x2="191.22686367" y1="658.450860686" y2="657.913539128" /><line stroke="rgb(0%,0%,0%)" x1="214.728316354" x2="212.044555637" y1="664.82519413" y2="663.336954785" /><line stroke="rgb(0%,0%,0%)" x1="211.342175099" x2="212.044555637" y1="662.468964283" y2="663.336954785" /><line stroke="rgb(0%,0%,0%)" x1="208.582444039" x2="211.342175099" y1="661.440590834" y2="662.468964283" /><line stroke="rgb(0%,0%,0%)" x1="206.013565977" x2="208.582444039" y1="660.916816389" y2="661.440590834" /><line stroke="rgb(0%,0%,0%)" x1="206.013565977" x2="203.793894097" y1="660.916816389" y2="660.810588676" /><line stroke="rgb(0%,0%,0%)" x1="203.53725888" x2="203.793894097" y1="660.958274615" y2="660.810588676" /><line stroke="rgb(0%,0%,0%)" x1="199.591280405" x2="202.000810986" y1="660.315615755" y2="660.672552095" /><line stroke="rgb(0%,0%,0%)" x1="217.33209055" x2="219.570024977" y1="665.769758238" y2="665.959299682" /><line stroke="rgb(0%,0%,0%)" x1="219.570024977" x2="221.554019569" y1="665.959299682" y2="666.501941899" /><line stroke="rgb(0%,0%,0%)" x1="214.728316354" x2="217.33209055" y1="664.82519413" y2="665.769758238" /><line stroke="rgb(0%,0%,0%)" x1="222.663110978" x2="221.554019569" y1="667.378000892" y2="666.501941899" /><line stroke="rgb(0%,0%,0%)" x1="227.048220575" x2="228.795182078" y1="670.285060822" y2="669.886788628" /><line stroke="rgb(0%,0%,0%)" x1="228.795182078" x2="230.986793319" y1="669.886788628" y2="664.362890616" /><line stroke="rgb(0%,0%,0%)" x1="150.738240804" x2="156.100142432" y1="641.43964291" y2="644.072113476" /><line stroke="rgb(0%,0%,0%)" x1="170.08327062" x2="167.327023935" y1="649.14088302" y2="648.686116928" /><line stroke="rgb(0%,0%,0%)" x1="164.806803087" x2="167.327023935" y1="647.740668013" y2="648.686116928" /><line stroke="rgb(0%,0%,0%)" x1="156.100142432" x2="164.806803087" y1="644.072113476" y2="647.740668013" /><line stroke="rgb(0%,0%,0%)" x1="174.755680172" x2="177.901064946" y1="650.328143618" y2="652.793579205" /><line stroke="rgb(0%,0%,0%)" x1="194.288553438" x2="194.914259974" y1="658.783053161" y2="659.346619171" /><line stroke="rgb(0%,0%,0%)" x1="193.071857011" x2="194.288553438" y1="658.450860686" y2="658.783053161" /><line stroke="rgb(0%,0%,0%)" x1="202.000810986" x2="203.53725888" y1="660.672552095" y2="660.958274615" /><line stroke="rgb(0%,0%,0%)" x1="150.738240804" x2="146.725428524" y1="641.43964291" y2="639.318969581" /><line stroke="rgb(0%,0%,0%)" x1="146.725428524" x2="136.485096634" y1="639.318969581" y2="633.61899209" /><line stroke="rgb(0%,0%,0%)" x1="82.3545124991" x2="82.0589000287" y1="603.034340295" y2="602.76958863" /><line stroke="rgb(0%,0%,0%)" x1="82.3545124991" x2="82.579406563" y1="603.034340295" y2="603.147951759" /><line stroke="rgb(0%,0%,0%)" x1="89.5445581984" x2="91.5490974279" y1="608.125439553" y2="609.524952752" /><line stroke="rgb(0%,0%,0%)" x1="82.579406563" x2="89.5445581984" y1="603.147951759" y2="608.125439553" /><line stroke="rgb(0%,0%,0%)" x1="91.5490974279" x2="94.7640693047" y1="609.524952752" y2="611.01806887" /><line stroke="rgb(0%,0%,0%)" x1="102.671608523" x2="107.859101568" y1="618.723039641" y2="621.790140118" /><line stroke="rgb(0%,0%,0%)" x1="107.859101568" x2="110.029587359" y1="621.790140118" y2="622.883920832" /><line stroke="rgb(0%,0%,0%)" x1="95.9535369165" x2="99.0543800346" y1="613.14795136" y2="615.140077341" /><line stroke="rgb(0%,0%,0%)" x1="94.7640693047" x2="95.9535369165" y1="611.01806887" y2="613.14795136" /><line stroke="rgb(0%,0%,0%)" x1="99.0543800346" x2="102.671608523" y1="615.140077341" y2="618.723039641" /><line stroke="rgb(0%,0%,0%)" x1="115.532127647" x2="133.117475129" y1="623.985950259" y2="631.606899816" /><line stroke="rgb(0%,0%,0%)" x1="110.029587359" x2="115.532127647" y1="622.883920832" y2="623.985950259" /><line stroke="rgb(0%,0%,0%)" x1="133.117475129" x2="134.589845354" y1="631.606899816" y2="632.56106914" /><line stroke="rgb(0%,0%,0%)" x1="134.589845354" x2="136.485096634" y1="632.56106914" y2="633.61899209" /><line stroke="rgb(0%,0%,0%)" x1="38.7821023337" x2="37.6843036073" y1="528.565687353" y2="533.514027647" /><line stroke="rgb(0%,0%,0%)" x1="38.7821023337" x2="39.1962882577" y1="528.565687353" y2="527.154349798" /><line stroke="rgb(0%,0%,0%)" x1="42.031560658" x2="39.1962882577" y1="518.597303461" y2="527.154349798" /><line stroke="rgb(0%,0%,0%)" x1="42.031560658" x2="41.3225991893" y1="518.597303461" y2="516.319698123" /><line stroke="rgb(0%,0%,0%)" x1="40.4172417636" x2="40.4428158447" y1="505.322541844" y2="509.114893652" /><line stroke="rgb(0%,0%,0%)" x1="40.4428158447" x2="41.3225991893" y1="509.114893652" y2="516.319698123" /><line stroke="rgb(0%,0%,0%)" x1="69.1971280149" x2="63.1485601589" y1="589.245772724" y2="582.037523388" /><line stroke="rgb(0%,0%,0%)" x1="63.0805442636" x2="63.1109286792" y1="581.975774221" y2="582.007805382" /><line stroke="rgb(0%,0%,0%)" x1="53.8313680928" x2="63.0462850831" y1="578.534069171" y2="581.962157969" /><line stroke="rgb(0%,0%,0%)" x1="63.0462850831" x2="63.0805442636" y1="581.962157969" y2="581.975774221" /><line stroke="rgb(0%,0%,0%)" x1="53.8313680928" x2="46.7375259635" y1="578.534069171" y2="574.543961932" /><line stroke="rgb(0%,0%,0%)" x1="72.9862047373" x2="82.0589000287" y1="596.963038936" y2="602.76958863" /><line stroke="rgb(0%,0%,0%)" x1="71.0038312559" x2="72.9862047373" y1="593.97006389" y2="596.963038936" /><line stroke="rgb(0%,0%,0%)" x1="71.0038312559" x2="69.1971280149" y1="593.97006389" y2="589.245772724" /><line stroke="rgb(0%,0%,0%)" x1="63.1109286792" x2="63.1485601589" y1="582.007805382" y2="582.037523388" /><line stroke="rgb(0%,0%,0%)" x1="25.8742639299" x2="17.6126452413" y1="490.301011681" y2="484.599893921" /><line stroke="rgb(0%,0%,0%)" x1="8.75277721657" x2="17.0527196847" y1="476.840189746" y2="484.144926973" /><line stroke="rgb(0%,0%,0%)" x1="39.1409629585" x2="42.5562221936" y1="557.971414839" y2="565.655954532" /><line stroke="rgb(0%,0%,0%)" x1="36.8871023098" x2="39.1409629585" y1="546.695566035" y2="557.971414839" /><line stroke="rgb(0%,0%,0%)" x1="36.8871023098" x2="36.4776103789" y1="546.695566035" y2="543.704205206" /><line stroke="rgb(0%,0%,0%)" x1="36.9926057388" x2="36.4776103789" y1="538.71222995" y2="543.704205206" /><line stroke="rgb(0%,0%,0%)" x1="37.6843036073" x2="36.9926057388" y1="533.514027647" y2="538.71222995" /><line stroke="rgb(0%,0%,0%)" x1="40.4172417636" x2="39.5094682017" y1="505.322541844" y2="501.836007833" /><line stroke="rgb(0%,0%,0%)" x1="38.7324087251" x2="38.4524161486" y1="496.073476438" y2="497.870710123" /><line stroke="rgb(0%,0%,0%)" x1="38.4524161486" x2="39.0263773928" y1="497.870710123" y2="498.813899295" /><line stroke="rgb(0%,0%,0%)" x1="39.0263773928" x2="39.2313067933" y1="498.813899295" y2="499.380807783" /><line stroke="rgb(0%,0%,0%)" x1="38.7324087251" x2="38.2578771909" y1="496.073476438" y2="494.881275842" /><line stroke="rgb(0%,0%,0%)" x1="34.9907566815" x2="38.2578771909" y1="493.527033592" y2="494.881275842" /><line stroke="rgb(0%,0%,0%)" x1="34.8815510438" x2="34.9907566815" y1="493.454893393" y2="493.527033592" /><line stroke="rgb(0%,0%,0%)" x1="34.8815510438" x2="33.1528528091" y1="493.454893393" y2="492.869447117" /><line stroke="rgb(0%,0%,0%)" x1="26.8831781161" x2="33.1528528091" y1="490.704718916" y2="492.869447117" /><line stroke="rgb(0%,0%,0%)" x1="25.8742639299" x2="26.2287347022" y1="490.301011681" y2="490.514192589" /><line stroke="rgb(0%,0%,0%)" x1="26.2287347022" x2="26.8831781161" y1="490.514192589" y2="490.704718916" /><line stroke="rgb(0%,0%,0%)" x1="46.4332617908" x2="46.7375259635" y1="574.241667884" y2="574.543961932" /><line stroke="rgb(0%,0%,0%)" x1="42.5562221936" x2="46.4332617908" y1="565.655954532" y2="574.241667884" /><line stroke="rgb(0%,0%,0%)" x1="39.2313067933" x2="39.5094682017" y1="499.380807783" y2="501.836007833" /><line stroke="rgb(0%,0%,0%)" x1="5.02742014779" x2="8.75277721657" y1="471.687296691" y2="476.840189746" /><line stroke="rgb(0%,0%,0%)" x1="5.02742014779" x2="2.31230348718" y1="471.687296691" y2="467.369955102" /><line stroke="rgb(0%,0%,0%)" x1="2.12275075973" x2="2.31230348718" y1="466.623647136" y2="467.369955102" /><line stroke="rgb(0%,0%,0%)" x1="1.99570291293" x2="2.12275075973" y1="463.557780367" y2="466.623647136" /><line stroke="rgb(0%,0%,0%)" x1="1.89095797155" x2="1.99570291293" y1="459.271842987" y2="463.557780367" /><line stroke="rgb(0%,0%,0%)" x1="17.5172506518" x2="17.6126452413" y1="484.451760221" y2="484.599893921" /><line stroke="rgb(0%,0%,0%)" x1="17.0527196847" x2="17.5172506518" y1="484.144926973" y2="484.451760221" /><line stroke="rgb(0%,0%,0%)" x1="493.200122648" x2="489.40721841" y1="558.337809017" y2="563.739757032" /><line stroke="rgb(0%,0%,0%)" x1="493.200122648" x2="496.571577851" y1="558.337809017" y2="552.899226452" /><line stroke="rgb(0%,0%,0%)" x1="496.571577851" x2="505.244324063" y1="552.899226452" y2="541.343100214" /><line stroke="rgb(0%,0%,0%)" x1="505.244324063" x2="508.45872899" y1="541.343100214" y2="537.786291924" /><line stroke="rgb(0%,0%,0%)" x1="510.800946811" x2="512.2371475" y1="533.389791098" y2="531.083340713" /><line stroke="rgb(0%,0%,0%)" x1="516.188380054" x2="512.2371475" y1="524.504073984" y2="531.083340713" /><line stroke="rgb(0%,0%,0%)" x1="516.188380054" x2="522.765531292" y1="524.504073984" y2="507.636864788" /><line stroke="rgb(0%,0%,0%)" x1="522.765531292" x2="524.325198478" y1="507.636864788" y2="504.375254803" /><line stroke="rgb(0%,0%,0%)" x1="524.325198478" x2="525.981749824" y1="504.375254803" y2="501.203342144" /><line stroke="rgb(0%,0%,0%)" x1="525.981749824" x2="527.31678181" y1="501.203342144" y2="497.675407079" /><line stroke="rgb(0%,0%,0%)" x1="530.697886459" x2="527.31678181" y1="487.811974217" y2="497.675407079" /><line stroke="rgb(0%,0%,0%)" x1="530.697886459" x2="531.273646616" y1="487.811974217" y2="483.825149066" /><line stroke="rgb(0%,0%,0%)" x1="531.273646616" x2="532.406523613" y1="483.825149066" y2="477.944728497" /><line stroke="rgb(0%,0%,0%)" x1="532.406523613" x2="533.622485816" y1="477.944728497" y2="471.337899916" /><line stroke="rgb(0%,0%,0%)" x1="533.622485816" x2="533.84252794" y1="471.337899916" y2="467.125411795" /><line stroke="rgb(0%,0%,0%)" x1="533.730225301" x2="533.84252794" y1="460.158310266" y2="467.125411795" /><line stroke="rgb(0%,0%,0%)" x1="449.80203148" x2="450.907384617" y1="601.778592059" y2="601.176910302" /><line stroke="rgb(0%,0%,0%)" x1="453.918495193" x2="450.907384617" y1="598.69313653" y2="601.176910302" /><line stroke="rgb(0%,0%,0%)" x1="453.918495193" x2="455.803624016" y1="598.69313653" y2="596.744485485" /><line stroke="rgb(0%,0%,0%)" x1="455.803624016" x2="467.605048673" y1="596.744485485" y2="587.026199855" /><line stroke="rgb(0%,0%,0%)" x1="467.605048673" x2="472.358975299" y1="587.026199855" y2="582.654936519" /><line stroke="rgb(0%,0%,0%)" x1="472.358975299" x2="479.632402411" y1="582.654936519" y2="575.093191959" /><line stroke="rgb(0%,0%,0%)" x1="483.836613427" x2="479.632402411" y1="569.870220255" y2="575.093191959" /><line stroke="rgb(0%,0%,0%)" x1="483.836613427" x2="489.40721841" y1="569.870220255" y2="563.739757032" /><line stroke="rgb(0%,0%,0%)" x1="508.45872899" x2="510.800946811" y1="537.786291924" y2="533.389791098" /><line stroke="rgb(0%,0%,0%)" x1="436.014791655" x2="441.518940708" y1="613.974997104" y2="608.891012917" /><line stroke="rgb(0%,0%,0%)" x1="441.518940708" x2="449.80203148" y1="608.891012917" y2="601.778592059" /><line stroke="rgb(0%,0%,0%)" x1="186.169065833" x2="186.453555262" y1="656.394828687" y2="656.961175472" /><line stroke="rgb(0%,0%,0%)" x1="181.712772758" x2="186.169065833" y1="654.586536464" y2="656.394828687" /><line stroke="rgb(0%,0%,0%)" x1="181.712772758" x2="181.614332109" y1="654.586536464" y2="654.559580118" /><line stroke="rgb(0%,0%,0%)" x1="186.707994313" x2="186.832021396" y1="656.959845828" y2="657.090940638" /><line stroke="rgb(0%,0%,0%)" x1="186.453555262" x2="186.707994313" y1="656.961175472" y2="656.959845828" /><line stroke="rgb(0%,0%,0%)" x1="189.350020261" x2="187.196775697" y1="656.896525388" y2="657.033228728" /><line stroke="rgb(0%,0%,0%)" x1="186.832021396" x2="187.196775697" y1="657.090940638" y2="657.033228728" /><line stroke="rgb(0%,0%,0%)" x1="74.2080229952" x2="68.9687698811" y1="333.299789607" y2="339.917217736" /><line stroke="rgb(0%,0%,0%)" x1="78.0857917864" x2="74.2080229952" y1="326.047976469" y2="333.299789607" /><line stroke="rgb(0%,0%,0%)" x1="78.0857917864" x2="84.3466038341" y1="326.047976469" y2="321.727630684" /></svg>