<?xml version="1.0" encoding="utf-8" ?>
<svg baseProfile="full" height="100%" version="1.1" viewBox="0.5 0.5 685.793960571 941.299331665" width="100%" xmlns="http://www.w3.org/2000/svg" xmlns:ev="http://www.w3.org/2001/xml-events" xmlns:xlink="http://www.w3.org/1999/xlink"><defs /><line stroke="rgb(0%,0%,0%)" x1="534.334660079" x2="534.282404678" y1="438.356399175" y2="438.106471172" /><line stroke="rgb(0%,0%,0%)" x1="512.818379434" x2="510.86949754" y1="387.51301502" y2="385.334623451" /><line stroke="rgb(0%,0%,0%)" x1="518.776821798" x2="520.544781071" y1="396.98402546" y2="400.329866466" /><line stroke="rgb(0%,0%,0%)" x1="513.244674889" x2="512.818379434" y1="388.059183073" y2="387.51301502" /><line stroke="rgb(0%,0%,0%)" x1="518.776821798" x2="513.244674889" y1="396.98402546" y2="388.059183073" /><line stroke="rgb(0%,0%,0%)" x1="534.282404678" x2="533.851088767" y1="438.106471172" y2="436.501794584" /><line stroke="rgb(0%,0%,0%)" x1="533.851088767" x2="529.021854694" y1="436.501794584" y2="419.781362009" /><line stroke="rgb(0%,0%,0%)" x1="524.144718698" x2="528.024939559" y1="409.541816362" y2="416.49876499" /><line stroke="rgb(0%,0%,0%)" x1="524.144718698" x2="522.55214795" y1="409.541816362" y2="404.369164145" /><line stroke="rgb(0%,0%,0%)" x1="538.875651923" x2="538.886496209" y1="455.721784949" y2="460.579831223" /><line stroke="rgb(0%,0%,0%)" x1="538.875651923" x2="534.334660079" y1="455.721784949" y2="438.356399175" /><line stroke="rgb(0%,0%,0%)" x1="510.86949754" x2="506.472451686" y1="385.334623451" y2="380.617712514" /><line stroke="rgb(0%,0%,0%)" x1="529.021854694" x2="528.024939559" y1="419.781362009" y2="416.49876499" /><line stroke="rgb(0%,0%,0%)" x1="522.55214795" x2="520.544781071" y1="404.369164145" y2="400.329866466" /><line stroke="rgb(0%,0%,0%)" x1="428.954748162" x2="428.039859602" y1="286.425534796" y2="285.517001853" /><line stroke="rgb(0%,0%,0%)" x1="428.039859602" x2="422.592506774" y1="285.517001853" y2="281.327438555" /><line stroke="rgb(0%,0%,0%)" x1="428.954748162" x2="431.249564744" y1="286.425534796" y2="289.406673873" /><line stroke="rgb(0%,0%,0%)" x1="436.318977754" x2="431.249564744" y1="296.029031768" y2="289.406673873" /><line stroke="rgb(0%,0%,0%)" x1="437.113840477" x2="436.318977754" y1="296.98915648" y2="296.029031768" /><line stroke="rgb(0%,0%,0%)" x1="357.426832076" x2="356.603720598" y1="178.558232476" y2="177.400439492" /><line stroke="rgb(0%,0%,0%)" x1="373.95700092" x2="374.212279166" y1="248.052316408" y2="248.731405811" /><line stroke="rgb(0%,0%,0%)" x1="373.95700092" x2="373.343457969" y1="248.052316408" y2="246.308499019" /><line stroke="rgb(0%,0%,0%)" x1="379.307264242" x2="381.234380078" y1="253.358662754" y2="254.54641212" /><line stroke="rgb(0%,0%,0%)" x1="397.952179236" x2="406.904807263" y1="266.361999318" y2="274.067099484" /><line stroke="rgb(0%,0%,0%)" x1="393.653660969" x2="394.267284598" y1="261.979441722" y2="262.205073407" /><line stroke="rgb(0%,0%,0%)" x1="397.952179236" x2="394.267284598" y1="266.361999318" y2="262.205073407" /><line stroke="rgb(0%,0%,0%)" x1="393.653660969" x2="389.624865773" y1="261.979441722" y2="260.305910477" /><line stroke="rgb(0%,0%,0%)" x1="408.800920776" x2="417.985593296" y1="274.749493753" y2="277.809627234" /><line stroke="rgb(0%,0%,0%)" x1="422.592506774" x2="417.985593296" y1="281.327438555" y2="277.809627234" /><line stroke="rgb(0%,0%,0%)" x1="408.800920776" x2="408.209419895" y1="274.749493753" y2="274.457454368" /><line stroke="rgb(0%,0%,0%)" x1="408.209419895" x2="406.904807263" y1="274.457454368" y2="274.067099484" /><line stroke="rgb(0%,0%,0%)" x1="351.669355892" x2="348.499567583" y1="164.405225527" y2="158.696363208" /><line stroke="rgb(0%,0%,0%)" x1="356.603720598" x2="351.669355892" y1="177.400439492" y2="164.405225527" /><line stroke="rgb(0%,0%,0%)" x1="357.426832076" x2="359.88767211" y1="178.558232476" y2="184.063347159" /><line stroke="rgb(0%,0%,0%)" x1="365.937829402" x2="359.88767211" y1="199.617430104" y2="184.063347159" /><line stroke="rgb(0%,0%,0%)" x1="371.29870781" x2="366.718009552" y1="242.773073912" y2="233.042273551" /><line stroke="rgb(0%,0%,0%)" x1="365.128214511" x2="366.218885405" y1="218.14998111" y2="228.920746377" /><line stroke="rgb(0%,0%,0%)" x1="365.186241771" x2="365.937829402" y1="205.779896995" y2="199.617430104" /><line stroke="rgb(0%,0%,0%)" x1="365.128214511" x2="365.186241771" y1="218.14998111" y2="205.779896995" /><line stroke="rgb(0%,0%,0%)" x1="382.986875213" x2="381.234380078" y1="256.709429108" y2="254.54641212" /><line stroke="rgb(0%,0%,0%)" x1="389.624865773" x2="387.418353327" y1="260.305910477" y2="258.834040524" /><line stroke="rgb(0%,0%,0%)" x1="379.307264242" x2="375.934158616" y1="253.358662754" y2="249.946492223" /><line stroke="rgb(0%,0%,0%)" x1="374.212279166" x2="375.934158616" y1="248.731405811" y2="249.946492223" /><line stroke="rgb(0%,0%,0%)" x1="373.343457969" x2="372.780108899" y1="246.308499019" y2="245.003622493" /><line stroke="rgb(0%,0%,0%)" x1="387.418353327" x2="382.986875213" y1="258.834040524" y2="256.709429108" /><line stroke="rgb(0%,0%,0%)" x1="297.187416989" x2="301.641375637" y1="212.110605455" y2="205.985773767" /><line stroke="rgb(0%,0%,0%)" x1="283.272167592" x2="286.720005297" y1="228.474578606" y2="224.549564009" /><line stroke="rgb(0%,0%,0%)" x1="297.187416989" x2="286.720005297" y1="212.110605455" y2="224.549564009" /><line stroke="rgb(0%,0%,0%)" x1="292.735372649" x2="289.341401095" y1="190.139840241" y2="187.553762427" /><line stroke="rgb(0%,0%,0%)" x1="292.735372649" x2="295.80687964" y1="190.139840241" y2="196.426480966" /><line stroke="rgb(0%,0%,0%)" x1="295.80687964" x2="300.214515507" y1="196.426480966" y2="200.630522793" /><line stroke="rgb(0%,0%,0%)" x1="320.07967291" x2="328.599995596" y1="138.236326042" y2="141.107355357" /><line stroke="rgb(0%,0%,0%)" x1="320.07967291" x2="316.289568116" y1="138.236326042" y2="138.016175259" /><line stroke="rgb(0%,0%,0%)" x1="332.649761059" x2="328.599995596" y1="141.715975206" y2="141.107355357" /><line stroke="rgb(0%,0%,0%)" x1="343.005116445" x2="335.251066823" y1="150.096206875" y2="143.64343174" /><line stroke="rgb(0%,0%,0%)" x1="335.068568968" x2="332.649761059" y1="142.929853055" y2="141.715975206" /><line stroke="rgb(0%,0%,0%)" x1="344.259542117" x2="343.005116445" y1="151.962829199" y2="150.096206875" /><line stroke="rgb(0%,0%,0%)" x1="335.251066823" x2="335.068568968" y1="143.64343174" y2="142.929853055" /><line stroke="rgb(0%,0%,0%)" x1="348.499567583" x2="344.259542117" y1="158.696363208" y2="151.962829199" /><line stroke="rgb(0%,0%,0%)" x1="366.718009552" x2="366.241444878" y1="233.042273551" y2="231.573083165" /><line stroke="rgb(0%,0%,0%)" x1="366.241444878" x2="366.218885405" y1="231.573083165" y2="228.920746377" /><line stroke="rgb(0%,0%,0%)" x1="372.780108899" x2="371.29870781" y1="245.003622493" y2="242.773073912" /><line stroke="rgb(0%,0%,0%)" x1="283.272167592" x2="278.79802777" y1="228.474578606" y2="235.916986266" /><line stroke="rgb(0%,0%,0%)" x1="289.341401095" x2="289.013190397" y1="187.553762427" y2="182.104366018" /><line stroke="rgb(0%,0%,0%)" x1="285.662889947" x2="284.780936155" y1="176.804056403" y2="171.088617189" /><line stroke="rgb(0%,0%,0%)" x1="285.662889947" x2="288.755741324" y1="176.804056403" y2="181.009826717" /><line stroke="rgb(0%,0%,0%)" x1="284.779829443" x2="287.39849752" y1="158.184056559" y2="154.636918092" /><line stroke="rgb(0%,0%,0%)" x1="284.779829443" x2="284.465065777" y1="158.184056559" y2="162.429779929" /><line stroke="rgb(0%,0%,0%)" x1="291.66528583" x2="287.39849752" y1="145.807710112" y2="154.636918092" /><line stroke="rgb(0%,0%,0%)" x1="288.755741324" x2="289.013190397" y1="181.009826717" y2="182.104366018" /><line stroke="rgb(0%,0%,0%)" x1="291.789115305" x2="291.66528583" y1="145.678835947" y2="145.807710112" /><line stroke="rgb(0%,0%,0%)" x1="298.640723679" x2="291.789115305" y1="143.038539868" y2="145.678835947" /><line stroke="rgb(0%,0%,0%)" x1="298.640723679" x2="301.069431993" y1="143.038539868" y2="141.145550646" /><line stroke="rgb(0%,0%,0%)" x1="300.214515507" x2="302.283189818" y1="200.630522793" y2="203.536501577" /><line stroke="rgb(0%,0%,0%)" x1="302.283189818" x2="301.641375637" y1="203.536501577" y2="205.985773767" /><line stroke="rgb(0%,0%,0%)" x1="301.069431993" x2="308.441546975" y1="141.145550646" y2="138.706013932" /><line stroke="rgb(0%,0%,0%)" x1="311.338439423" x2="310.498846671" y1="137.943814629" y2="137.848255286" /><line stroke="rgb(0%,0%,0%)" x1="310.498846671" x2="308.441546975" y1="137.848255286" y2="138.706013932" /><line stroke="rgb(0%,0%,0%)" x1="316.289568116" x2="311.338439423" y1="138.016175259" y2="137.943814629" /><line stroke="rgb(0%,0%,0%)" x1="244.982866882" x2="237.125767919" y1="279.042096093" y2="273.595994361" /><line stroke="rgb(0%,0%,0%)" x1="236.724992177" x2="237.125767919" y1="273.11120164" y2="273.595994361" /><line stroke="rgb(0%,0%,0%)" x1="244.982866882" x2="245.523481892" y1="279.042096093" y2="279.027460588" /><line stroke="rgb(0%,0%,0%)" x1="265.107110943" x2="271.030928077" y1="258.174110757" y2="247.182427487" /><line stroke="rgb(0%,0%,0%)" x1="258.907619992" x2="253.291679848" y1="269.019107112" y2="275.217066241" /><line stroke="rgb(0%,0%,0%)" x1="265.107110943" x2="258.907619992" y1="258.174110757" y2="269.019107112" /><line stroke="rgb(0%,0%,0%)" x1="278.79802777" x2="271.030928077" y1="235.916986266" y2="247.182427487" /><line stroke="rgb(0%,0%,0%)" x1="283.59587122" x2="284.780936155" y1="166.629935851" y2="171.088617189" /><line stroke="rgb(0%,0%,0%)" x1="284.465065777" x2="283.59587122" y1="162.429779929" y2="166.629935851" /><line stroke="rgb(0%,0%,0%)" x1="210.662252363" x2="211.975295031" y1="251.857060009" y2="251.252267895" /><line stroke="rgb(0%,0%,0%)" x1="210.662252363" x2="205.565649314" y1="251.857060009" y2="254.4236812" /><line stroke="rgb(0%,0%,0%)" x1="211.975295031" x2="214.158153105" y1="251.252267895" y2="250.957770306" /><line stroke="rgb(0%,0%,0%)" x1="223.6683879" x2="224.057235942" y1="255.783254608" y2="255.983957644" /><line stroke="rgb(0%,0%,0%)" x1="236.514092377" x2="224.057235942" y1="272.866240425" y2="255.983957644" /><line stroke="rgb(0%,0%,0%)" x1="223.6683879" x2="219.134120233" y1="255.783254608" y2="252.945242947" /><line stroke="rgb(0%,0%,0%)" x1="236.724992177" x2="236.514092377" y1="273.11120164" y2="272.866240425" /><line stroke="rgb(0%,0%,0%)" x1="251.411531999" x2="245.523481892" y1="277.831192284" y2="279.027460588" /><line stroke="rgb(0%,0%,0%)" x1="253.291679848" x2="251.411531999" y1="275.217066241" y2="277.831192284" /><line stroke="rgb(0%,0%,0%)" x1="181.034372467" x2="179.312821167" y1="264.827368317" y2="265.199751698" /><line stroke="rgb(0%,0%,0%)" x1="182.053851863" x2="181.034372467" y1="264.723919185" y2="264.827368317" /><line stroke="rgb(0%,0%,0%)" x1="186.020031899" x2="182.053851863" y1="264.143743844" y2="264.723919185" /><line stroke="rgb(0%,0%,0%)" x1="186.909676609" x2="187.804201359" y1="263.032122883" y2="262.864677591" /><line stroke="rgb(0%,0%,0%)" x1="186.909676609" x2="186.020031899" y1="263.032122883" y2="264.143743844" /><line stroke="rgb(0%,0%,0%)" x1="190.386659707" x2="187.804201359" y1="262.239454799" y2="262.864677591" /><line stroke="rgb(0%,0%,0%)" x1="191.113160767" x2="190.386659707" y1="261.790937502" y2="262.239454799" /><line stroke="rgb(0%,0%,0%)" x1="191.113160767" x2="192.059634776" y1="261.790937502" y2="261.463821278" /><line stroke="rgb(0%,0%,0%)" x1="195.201880172" x2="194.310710028" y1="259.990348241" y2="260.981465183" /><line stroke="rgb(0%,0%,0%)" x1="194.310710028" x2="192.059634776" y1="260.981465183" y2="261.463821278" /><line stroke="rgb(0%,0%,0%)" x1="195.824462499" x2="195.201880172" y1="259.840547852" y2="259.990348241" /><line stroke="rgb(0%,0%,0%)" x1="195.824462499" x2="199.794503937" y1="259.840547852" y2="257.688097203" /><line stroke="rgb(0%,0%,0%)" x1="205.565649314" x2="204.055102804" y1="254.4236812" y2="255.113550859" /><line stroke="rgb(0%,0%,0%)" x1="204.055102804" x2="201.454957705" y1="255.113550859" y2="256.65094122" /><line stroke="rgb(0%,0%,0%)" x1="219.134120233" x2="216.712967513" y1="252.945242947" y2="250.820003315" /><line stroke="rgb(0%,0%,0%)" x1="216.434284875" x2="214.158153105" y1="250.751820913" y2="250.957770306" /><line stroke="rgb(0%,0%,0%)" x1="216.712967513" x2="216.434284875" y1="250.820003315" y2="250.751820913" /><line stroke="rgb(0%,0%,0%)" x1="171.638697045" x2="169.145770051" y1="269.104130101" y2="271.000203327" /><line stroke="rgb(0%,0%,0%)" x1="169.145770051" x2="166.622061221" y1="271.000203327" y2="272.54004358" /><line stroke="rgb(0%,0%,0%)" x1="166.622061221" x2="164.253612018" y1="272.54004358" y2="273.732626622" /><line stroke="rgb(0%,0%,0%)" x1="171.638697045" x2="174.027193936" y1="269.104130101" y2="267.660394954" /><line stroke="rgb(0%,0%,0%)" x1="175.808670654" x2="174.027193936" y1="266.762656655" y2="267.660394954" /><line stroke="rgb(0%,0%,0%)" x1="177.178829474" x2="175.808670654" y1="266.272757143" y2="266.762656655" /><line stroke="rgb(0%,0%,0%)" x1="179.312821167" x2="177.178829474" y1="265.199751698" y2="266.272757143" /><line stroke="rgb(0%,0%,0%)" x1="201.454957705" x2="199.794503937" y1="256.65094122" y2="257.688097203" /><line stroke="rgb(0%,0%,0%)" x1="137.991464684" x2="130.17934883" y1="287.704242813" y2="291.302345912" /><line stroke="rgb(0%,0%,0%)" x1="137.991464684" x2="141.45330203" y1="287.704242813" y2="286.741987111" /><line stroke="rgb(0%,0%,0%)" x1="144.520248008" x2="141.45330203" y1="284.714492106" y2="286.741987111" /><line stroke="rgb(0%,0%,0%)" x1="152.294426207" x2="144.520248008" y1="279.621869287" y2="284.714492106" /><line stroke="rgb(0%,0%,0%)" x1="160.738138177" x2="152.294426207" y1="275.484940643" y2="279.621869287" /><line stroke="rgb(0%,0%,0%)" x1="164.253612018" x2="160.738138177" y1="273.732626622" y2="275.484940643" /><line stroke="rgb(0%,0%,0%)" x1="118.481015166" x2="105.475667699" y1="296.352082959" y2="304.089699125" /><line stroke="rgb(0%,0%,0%)" x1="105.475667699" x2="103.877259852" y1="304.089699125" y2="304.796480588" /><line stroke="rgb(0%,0%,0%)" x1="124.707832745" x2="118.481015166" y1="294.095007412" y2="296.352082959" /><line stroke="rgb(0%,0%,0%)" x1="130.17934883" x2="124.707832745" y1="291.302345912" y2="294.095007412" /><line stroke="rgb(0%,0%,0%)" x1="73.6715535629" x2="72.8959105431" y1="329.362901081" y2="329.767016167" /><line stroke="rgb(0%,0%,0%)" x1="73.6715535629" x2="74.3083727963" y1="329.362901081" y2="328.766904216" /><line stroke="rgb(0%,0%,0%)" x1="74.3083727963" x2="74.8518275619" y1="328.766904216" y2="328.43044909" /><line stroke="rgb(0%,0%,0%)" x1="72.8959105431" x2="59.4085187369" y1="329.767016167" y2="336.143778093" /><line stroke="rgb(0%,0%,0%)" x1="74.8518275619" x2="76.4315220004" y1="328.43044909" y2="327.058503314" /><line stroke="rgb(0%,0%,0%)" x1="78.1853933095" x2="76.4315220004" y1="325.119912946" y2="327.058503314" /><line stroke="rgb(0%,0%,0%)" x1="87.1662804912" x2="78.1853933095" y1="315.59067488" y2="325.119912946" /><line stroke="rgb(0%,0%,0%)" x1="91.1707678619" x2="90.9901283041" y1="311.259374594" y2="312.10574063" /><line stroke="rgb(0%,0%,0%)" x1="87.1662804912" x2="90.9901283041" y1="315.59067488" y2="312.10574063" /><line stroke="rgb(0%,0%,0%)" x1="91.1707678619" x2="92.3591858877" y1="311.259374594" y2="310.49406658" /><line stroke="rgb(0%,0%,0%)" x1="95.2492107686" x2="92.3591858877" y1="307.483742643" y2="310.49406658" /><line stroke="rgb(0%,0%,0%)" x1="95.2492107686" x2="103.877259852" y1="307.483742643" y2="304.796480588" /><line stroke="rgb(0%,0%,0%)" x1="41.0294773711" x2="35.2196949838" y1="436.635288129" y2="438.764374946" /><line stroke="rgb(0%,0%,0%)" x1="33.5979559448" x2="35.2196949838" y1="438.424450324" y2="438.764374946" /><line stroke="rgb(0%,0%,0%)" x1="35.8709883536" x2="37.123944668" y1="384.438294875" y2="378.855476209" /><line stroke="rgb(0%,0%,0%)" x1="38.5944955687" x2="37.123944668" y1="374.389696673" y2="378.855476209" /><line stroke="rgb(0%,0%,0%)" x1="36.1980745765" x2="36.6312782579" y1="363.598338314" y2="365.910522913" /><line stroke="rgb(0%,0%,0%)" x1="36.1980745765" x2="38.841969367" y1="363.598338314" y2="359.098555431" /><line stroke="rgb(0%,0%,0%)" x1="41.0294773711" x2="41.1687636411" y1="436.635288129" y2="436.63255324" /><line stroke="rgb(0%,0%,0%)" x1="45.4721713808" x2="44.4720130727" y1="425.887597468" y2="431.26983234" /><line stroke="rgb(0%,0%,0%)" x1="45.9384849571" x2="45.4721713808" y1="421.121682692" y2="425.887597468" /><line stroke="rgb(0%,0%,0%)" x1="45.9384849571" x2="47.0517873878" y1="421.121682692" y2="418.951187648" /><line stroke="rgb(0%,0%,0%)" x1="46.363420845" x2="47.0517873878" y1="414.771312603" y2="418.951187648" /><line stroke="rgb(0%,0%,0%)" x1="44.7188529461" x2="46.363420845" y1="410.108540486" y2="414.771312603" /><line stroke="rgb(0%,0%,0%)" x1="38.9545257184" x2="44.7188529461" y1="399.552790888" y2="410.108540486" /><line stroke="rgb(0%,0%,0%)" x1="37.164289771" x2="38.5944955687" y1="370.335389777" y2="374.389696673" /><line stroke="rgb(0%,0%,0%)" x1="41.9213577531" x2="38.841969367" y1="353.638603157" y2="359.098555431" /><line stroke="rgb(0%,0%,0%)" x1="43.2020919869" x2="41.9213577531" y1="350.811601714" y2="353.638603157" /><line stroke="rgb(0%,0%,0%)" x1="55.2838724196" x2="51.0937130325" y1="339.633747312" y2="342.916163978" /><line stroke="rgb(0%,0%,0%)" x1="51.0937130325" x2="43.2020919869" y1="342.916163978" y2="350.811601714" /><line stroke="rgb(0%,0%,0%)" x1="55.2838724196" x2="59.4085187369" y1="339.633747312" y2="336.143778093" /><line stroke="rgb(0%,0%,0%)" x1="6.66164178579" x2="6.69888028301" y1="460.741381394" y2="459.069956368" /><line stroke="rgb(0%,0%,0%)" x1="8.97577240415" x2="6.69888028301" y1="455.451555828" y2="459.069956368" /><line stroke="rgb(0%,0%,0%)" x1="19.1175658781" x2="11.549551749" y1="446.143970164" y2="450.89457141" /><line stroke="rgb(0%,0%,0%)" x1="11.549551749" x2="8.97577240415" y1="450.89457141" y2="455.451555828" /><line stroke="rgb(0%,0%,0%)" x1="24.8466411728" x2="19.1175658781" y1="442.359549009" y2="446.143970164" /><line stroke="rgb(0%,0%,0%)" x1="31.6529276737" x2="24.8466411728" y1="439.473538589" y2="442.359549009" /><line stroke="rgb(0%,0%,0%)" x1="33.5979559448" x2="31.6529276737" y1="438.424450324" y2="439.473538589" /><line stroke="rgb(0%,0%,0%)" x1="36.3165882084" x2="35.4603927585" y1="392.735830157" y2="388.836901387" /><line stroke="rgb(0%,0%,0%)" x1="35.8709883536" x2="35.4603927585" y1="384.438294875" y2="388.836901387" /><line stroke="rgb(0%,0%,0%)" x1="36.6312782579" x2="37.164289771" y1="365.910522913" y2="370.335389777" /><line stroke="rgb(0%,0%,0%)" x1="44.4720130727" x2="42.975800403" y1="431.26983234" y2="433.832506098" /><line stroke="rgb(0%,0%,0%)" x1="42.975800403" x2="41.1687636411" y1="433.832506098" y2="436.63255324" /><line stroke="rgb(0%,0%,0%)" x1="36.3165882084" x2="38.9545257184" y1="392.735830157" y2="399.552790888" /><line stroke="rgb(0%,0%,0%)" x1="499.287147683" x2="500.77376834" y1="366.860177241" y2="369.057920351" /><line stroke="rgb(0%,0%,0%)" x1="499.287147683" x2="496.369453858" y1="366.860177241" y2="361.825977583" /><line stroke="rgb(0%,0%,0%)" x1="456.615853148" x2="457.637588953" y1="313.416846925" y2="314.265867976" /><line stroke="rgb(0%,0%,0%)" x1="481.570000071" x2="476.221585774" y1="342.334932414" y2="336.889001212" /><line stroke="rgb(0%,0%,0%)" x1="472.553767385" x2="474.556980703" y1="332.483152597" y2="335.360437097" /><line stroke="rgb(0%,0%,0%)" x1="487.135787827" x2="488.052147301" y1="346.975498604" y2="348.186976485" /><line stroke="rgb(0%,0%,0%)" x1="490.954191775" x2="488.052147301" y1="352.781072461" y2="348.186976485" /><line stroke="rgb(0%,0%,0%)" x1="487.135787827" x2="481.570000071" y1="346.975498604" y2="342.334932414" /><line stroke="rgb(0%,0%,0%)" x1="502.899419004" x2="500.77376834" y1="373.386454913" y2="369.057920351" /><line stroke="rgb(0%,0%,0%)" x1="496.369453858" x2="491.776542661" y1="361.825977583" y2="353.597813581" /><line stroke="rgb(0%,0%,0%)" x1="491.776542661" x2="490.954191775" y1="353.597813581" y2="352.781072461" /><line stroke="rgb(0%,0%,0%)" x1="506.472451686" x2="505.467105602" y1="380.617712514" y2="379.322528713" /><line stroke="rgb(0%,0%,0%)" x1="502.899419004" x2="505.467105602" y1="373.386454913" y2="379.322528713" /><line stroke="rgb(0%,0%,0%)" x1="440.069554741" x2="437.113840477" y1="300.519993214" y2="296.98915648" /><line stroke="rgb(0%,0%,0%)" x1="456.615853148" x2="449.395140098" y1="313.416846925" y2="307.779233803" /><line stroke="rgb(0%,0%,0%)" x1="449.395140098" x2="447.546717548" y1="307.779233803" y2="306.063012384" /><line stroke="rgb(0%,0%,0%)" x1="440.069554741" x2="446.122615002" y1="300.519993214" y2="305.254439108" /><line stroke="rgb(0%,0%,0%)" x1="464.024214" x2="457.637588953" y1="323.102375075" y2="314.265867976" /><line stroke="rgb(0%,0%,0%)" x1="476.221585774" x2="474.556980703" y1="336.889001212" y2="335.360437097" /><line stroke="rgb(0%,0%,0%)" x1="472.553767385" x2="467.29584194" y1="332.483152597" y2="327.252706614" /><line stroke="rgb(0%,0%,0%)" x1="467.29584194" x2="464.024214" y1="327.252706614" y2="323.102375075" /><line stroke="rgb(0%,0%,0%)" x1="397.261739914" x2="396.195211435" y1="643.76682863" y2="644.186439308" /><line stroke="rgb(0%,0%,0%)" x1="414.904559188" x2="418.339101882" y1="637.059459529" y2="635.085577491" /><line stroke="rgb(0%,0%,0%)" x1="418.339101882" x2="423.19692245" y1="635.085577491" y2="630.363862994" /><line stroke="rgb(0%,0%,0%)" x1="423.19692245" x2="430.974327279" y1="630.363862994" y2="624.478981706" /><line stroke="rgb(0%,0%,0%)" x1="447.546717548" x2="446.917004454" y1="306.063012384" y2="305.890923277" /><line stroke="rgb(0%,0%,0%)" x1="446.917004454" x2="446.122615002" y1="305.890923277" y2="305.254439108" /><line stroke="rgb(0%,0%,0%)" x1="378.382774634" x2="377.702648318" y1="657.248422589" y2="657.993308567" /><line stroke="rgb(0%,0%,0%)" x1="378.382774634" x2="378.447525761" y1="657.248422589" y2="657.123622085" /><line stroke="rgb(0%,0%,0%)" x1="378.447525761" x2="384.287370522" y1="657.123622085" y2="653.925434751" /><line stroke="rgb(0%,0%,0%)" x1="384.287370522" x2="385.551188325" y1="653.925434751" y2="653.381829399" /><line stroke="rgb(0%,0%,0%)" x1="385.551188325" x2="386.890437245" y1="653.381829399" y2="652.011676544" /><line stroke="rgb(0%,0%,0%)" x1="386.890437245" x2="388.95925211" y1="652.011676544" y2="649.664213634" /><line stroke="rgb(0%,0%,0%)" x1="388.95925211" x2="391.759662386" y1="649.664213634" y2="647.596231347" /><line stroke="rgb(0%,0%,0%)" x1="394.5427102" x2="391.759662386" y1="645.311542044" y2="647.596231347" /><line stroke="rgb(0%,0%,0%)" x1="394.5427102" x2="396.195211435" y1="645.311542044" y2="644.186439308" /><line stroke="rgb(0%,0%,0%)" x1="397.261739914" x2="407.785928015" y1="643.76682863" y2="640.475418785" /><line stroke="rgb(0%,0%,0%)" x1="407.785928015" x2="414.904559188" y1="640.475418785" y2="637.059459529" /><line stroke="rgb(0%,0%,0%)" x1="338.938055154" x2="337.040099337" y1="800.126552352" y2="801.747546395" /><line stroke="rgb(0%,0%,0%)" x1="354.265374949" x2="354.130784474" y1="780.135006487" y2="780.404044955" /><line stroke="rgb(0%,0%,0%)" x1="354.378285974" x2="357.617673475" y1="779.715145352" y2="770.590895022" /><line stroke="rgb(0%,0%,0%)" x1="354.265374949" x2="354.378285974" y1="780.135006487" y2="779.715145352" /><line stroke="rgb(0%,0%,0%)" x1="357.617673475" x2="359.836159852" y1="770.590895022" y2="751.216123851" /><line stroke="rgb(0%,0%,0%)" x1="359.836159852" x2="362.807609258" y1="751.216123851" y2="741.848160531" /><line stroke="rgb(0%,0%,0%)" x1="362.807609258" x2="363.096787322" y1="741.848160531" y2="740.620271838" /><line stroke="rgb(0%,0%,0%)" x1="363.096787322" x2="364.079619927" y1="740.620271838" y2="728.027100092" /><line stroke="rgb(0%,0%,0%)" x1="364.63034399" x2="364.079619927" y1="724.990945744" y2="728.027100092" /><line stroke="rgb(0%,0%,0%)" x1="364.63034399" x2="364.709785045" y1="724.990945744" y2="720.550647337" /><line stroke="rgb(0%,0%,0%)" x1="362.419248914" x2="361.342158275" y1="707.502787416" y2="696.061271397" /><line stroke="rgb(0%,0%,0%)" x1="361.342158275" x2="361.204015907" y1="696.061271397" y2="695.252145768" /><line stroke="rgb(0%,0%,0%)" x1="361.204015907" x2="360.435506519" y1="695.252145768" y2="686.377405166" /><line stroke="rgb(0%,0%,0%)" x1="367.360024293" x2="360.515583174" y1="674.64951717" y2="686.212081734" /><line stroke="rgb(0%,0%,0%)" x1="367.360024293" x2="367.507810958" y1="674.64951717" y2="672.212735268" /><line stroke="rgb(0%,0%,0%)" x1="367.507810958" x2="367.332164501" y1="672.212735268" y2="670.231856274" /><line stroke="rgb(0%,0%,0%)" x1="367.332164501" x2="366.998472275" y1="670.231856274" y2="668.792948852" /><line stroke="rgb(0%,0%,0%)" x1="367.129525602" x2="366.998472275" y1="667.501681579" y2="668.792948852" /><line stroke="rgb(0%,0%,0%)" x1="360.439530514" x2="360.515583174" y1="686.352415257" y2="686.212081734" /><line stroke="rgb(0%,0%,0%)" x1="367.129525602" x2="368.398493602" y1="667.501681579" y2="666.032940351" /><line stroke="rgb(0%,0%,0%)" x1="368.398493602" x2="371.362269513" y1="666.032940351" y2="664.22174024" /><line stroke="rgb(0%,0%,0%)" x1="371.362269513" x2="372.882121808" y1="664.22174024" y2="662.80336232" /><line stroke="rgb(0%,0%,0%)" x1="372.882121808" x2="377.702648318" y1="662.80336232" y2="657.993308567" /><line stroke="rgb(0%,0%,0%)" x1="290.897226612" x2="288.846629099" y1="729.491737913" y2="723.399039479" /><line stroke="rgb(0%,0%,0%)" x1="291.154841688" x2="290.897226612" y1="731.035992785" y2="729.491737913" /><line stroke="rgb(0%,0%,0%)" x1="299.058422094" x2="299.843523318" y1="786.641451951" y2="787.536931628" /><line stroke="rgb(0%,0%,0%)" x1="299.843523318" x2="302.959693968" y1="787.536931628" y2="790.043760433" /><line stroke="rgb(0%,0%,0%)" x1="319.359528666" x2="327.078105307" y1="802.18385168" y2="805.483225664" /><line stroke="rgb(0%,0%,0%)" x1="327.496472832" x2="329.577971648" y1="805.509249276" y2="804.753068996" /><line stroke="rgb(0%,0%,0%)" x1="337.040099337" x2="329.577971648" y1="801.747546395" y2="804.753068996" /><line stroke="rgb(0%,0%,0%)" x1="338.938055154" x2="346.534844111" y1="800.126552352" y2="791.767465604" /><line stroke="rgb(0%,0%,0%)" x1="346.534844111" x2="354.130784474" y1="791.767465604" y2="780.404044955" /><line stroke="rgb(0%,0%,0%)" x1="360.435506519" x2="360.439530514" y1="686.377405166" y2="686.352415257" /><line stroke="rgb(0%,0%,0%)" x1="364.709785045" x2="364.10030194" y1="720.550647337" y2="714.300642394" /><line stroke="rgb(0%,0%,0%)" x1="364.10030194" x2="363.417113284" y1="714.300642394" y2="711.055755011" /><line stroke="rgb(0%,0%,0%)" x1="363.417113284" x2="362.419248914" y1="711.055755011" y2="707.502787416" /><line stroke="rgb(0%,0%,0%)" x1="281.937586239" x2="276.376946478" y1="704.685179184" y2="692.718162866" /><line stroke="rgb(0%,0%,0%)" x1="276.376946478" x2="268.754291658" y1="692.718162866" y2="682.410434975" /><line stroke="rgb(0%,0%,0%)" x1="258.297455979" x2="258.732556247" y1="638.31714962" y2="641.052870306" /><line stroke="rgb(0%,0%,0%)" x1="256.772836163" x2="258.297455979" y1="638.158270983" y2="638.31714962" /><line stroke="rgb(0%,0%,0%)" x1="281.937586239" x2="288.846629099" y1="704.685179184" y2="723.399039479" /><line stroke="rgb(0%,0%,0%)" x1="299.058422094" x2="297.343616726" y1="786.641451951" y2="783.275671294" /><line stroke="rgb(0%,0%,0%)" x1="295.211439461" x2="295.245343323" y1="767.717282618" y2="773.927933697" /><line stroke="rgb(0%,0%,0%)" x1="295.211439461" x2="294.438729919" y1="767.717282618" y2="758.768544479" /><line stroke="rgb(0%,0%,0%)" x1="293.333479445" x2="294.438729919" y1="755.86901206" y2="758.768544479" /><line stroke="rgb(0%,0%,0%)" x1="291.154841688" x2="292.917539235" y1="731.035992785" y2="746.586740565" /><line stroke="rgb(0%,0%,0%)" x1="292.917539235" x2="293.333479445" y1="746.586740565" y2="755.86901206" /><line stroke="rgb(0%,0%,0%)" x1="302.959693968" x2="308.07973521" y1="790.043760433" y2="794.937051434" /><line stroke="rgb(0%,0%,0%)" x1="316.296476644" x2="308.07973521" y1="799.684561316" y2="794.937051434" /><line stroke="rgb(0%,0%,0%)" x1="317.167486912" x2="319.359528666" y1="800.638293788" y2="802.18385168" /><line stroke="rgb(0%,0%,0%)" x1="316.296476644" x2="317.167486912" y1="799.684561316" y2="800.638293788" /><line stroke="rgb(0%,0%,0%)" x1="327.078105307" x2="327.496472832" y1="805.483225664" y2="805.509249276" /><line stroke="rgb(0%,0%,0%)" x1="248.679848912" x2="247.05606366" y1="636.628106826" y2="637.528914153" /><line stroke="rgb(0%,0%,0%)" x1="248.679848912" x2="256.772836163" y1="636.628106826" y2="638.158270983" /><line stroke="rgb(0%,0%,0%)" x1="258.732556247" x2="261.106408573" y1="641.052870306" y2="650.594212992" /><line stroke="rgb(0%,0%,0%)" x1="241.849563899" x2="247.05606366" y1="643.569747937" y2="637.528914153" /><line stroke="rgb(0%,0%,0%)" x1="262.431805299" x2="263.195695958" y1="670.255811545" y2="674.936559463" /><line stroke="rgb(0%,0%,0%)" x1="261.106408573" x2="262.431805299" y1="650.594212992" y2="670.255811545" /><line stroke="rgb(0%,0%,0%)" x1="263.195695958" x2="265.508486878" y1="674.936559463" y2="678.243228437" /><line stroke="rgb(0%,0%,0%)" x1="265.508486878" x2="268.754291658" y1="678.243228437" y2="682.410434975" /><line stroke="rgb(0%,0%,0%)" x1="295.570194009" x2="297.343616726" y1="778.479249032" y2="783.275671294" /><line stroke="rgb(0%,0%,0%)" x1="295.245343323" x2="295.570194009" y1="773.927933697" y2="778.479249032" /><line stroke="rgb(0%,0%,0%)" x1="194.025576572" x2="193.222704935" y1="663.144351651" y2="662.940644172" /><line stroke="rgb(0%,0%,0%)" x1="194.025576572" x2="195.122133796" y1="663.144351651" y2="663.746868345" /><line stroke="rgb(0%,0%,0%)" x1="195.122133796" x2="196.736618181" y1="663.746868345" y2="664.442357547" /><line stroke="rgb(0%,0%,0%)" x1="214.320840525" x2="217.70360762" y1="674.850354823" y2="673.614856136" /><line stroke="rgb(0%,0%,0%)" x1="217.70360762" x2="220.520789356" y1="673.614856136" y2="672.355308091" /><line stroke="rgb(0%,0%,0%)" x1="212.101926221" x2="214.320840525" y1="673.849990328" y2="674.850354823" /><line stroke="rgb(0%,0%,0%)" x1="210.667772021" x2="212.101926221" y1="673.059969513" y2="673.849990328" /><line stroke="rgb(0%,0%,0%)" x1="210.667772021" x2="207.564069166" y1="673.059969513" y2="670.554377847" /><line stroke="rgb(0%,0%,0%)" x1="220.520789356" x2="221.669792754" y1="672.355308091" y2="671.717465649" /><line stroke="rgb(0%,0%,0%)" x1="221.669792754" x2="225.405035044" y1="671.717465649" y2="669.315811608" /><line stroke="rgb(0%,0%,0%)" x1="225.405035044" x2="225.983627673" y1="669.315811608" y2="668.754110405" /><line stroke="rgb(0%,0%,0%)" x1="229.342110013" x2="225.983627673" y1="664.565508864" y2="668.754110405" /><line stroke="rgb(0%,0%,0%)" x1="235.373425752" x2="229.342110013" y1="652.991329365" y2="664.565508864" /><line stroke="rgb(0%,0%,0%)" x1="235.373425752" x2="241.849563899" y1="652.991329365" y2="643.569747937" /><line stroke="rgb(0%,0%,0%)" x1="148.17615145" x2="148.690477068" y1="636.905470509" y2="637.066848881" /><line stroke="rgb(0%,0%,0%)" x1="172.789964695" x2="171.482958581" y1="651.513047833" y2="650.805140218" /><line stroke="rgb(0%,0%,0%)" x1="172.789964695" x2="172.817199933" y1="651.513047833" y2="651.849376246" /><line stroke="rgb(0%,0%,0%)" x1="167.094536357" x2="171.482958581" y1="646.76984667" y2="650.805140218" /><line stroke="rgb(0%,0%,0%)" x1="167.094536357" x2="165.169315492" y1="646.76984667" y2="645.427276708" /><line stroke="rgb(0%,0%,0%)" x1="165.169315492" x2="159.31402641" y1="645.427276708" y2="642.855690264" /><line stroke="rgb(0%,0%,0%)" x1="176.450561261" x2="179.197188769" y1="653.282511789" y2="655.064570601" /><line stroke="rgb(0%,0%,0%)" x1="179.431506534" x2="179.569612907" y1="655.174983013" y2="655.320954019" /><line stroke="rgb(0%,0%,0%)" x1="179.197188769" x2="179.431506534" y1="655.064570601" y2="655.174983013" /><line stroke="rgb(0%,0%,0%)" x1="176.450561261" x2="175.099899665" y1="653.282511789" y2="652.819402743" /><line stroke="rgb(0%,0%,0%)" x1="172.817199933" x2="175.099899665" y1="651.849376246" y2="652.819402743" /><line stroke="rgb(0%,0%,0%)" x1="192.752620669" x2="193.222704935" y1="661.298086277" y2="662.940644172" /><line stroke="rgb(0%,0%,0%)" x1="192.752620669" x2="190.227575685" y1="661.298086277" y2="661.720251198" /><line stroke="rgb(0%,0%,0%)" x1="190.043278669" x2="190.153708132" y1="661.56319511" y2="661.602596682" /><line stroke="rgb(0%,0%,0%)" x1="188.390765957" x2="190.043278669" y1="659.969540502" y2="661.56319511" /><line stroke="rgb(0%,0%,0%)" x1="188.091889017" x2="188.390765957" y1="659.704127468" y2="659.969540502" /><line stroke="rgb(0%,0%,0%)" x1="185.384310517" x2="188.091889017" y1="658.307839382" y2="659.704127468" /><line stroke="rgb(0%,0%,0%)" x1="183.426723304" x2="185.384310517" y1="657.393977472" y2="658.307839382" /><line stroke="rgb(0%,0%,0%)" x1="203.754977873" x2="206.04056581" y1="667.707619135" y2="668.789502207" /><line stroke="rgb(0%,0%,0%)" x1="200.217218888" x2="203.754977873" y1="665.834116728" y2="667.707619135" /><line stroke="rgb(0%,0%,0%)" x1="196.736618181" x2="200.217218888" y1="664.442357547" y2="665.834116728" /><line stroke="rgb(0%,0%,0%)" x1="206.04056581" x2="207.564069166" y1="668.789502207" y2="670.554377847" /><line stroke="rgb(0%,0%,0%)" x1="148.17615145" x2="147.637150926" y1="636.905470509" y2="636.640660056" /><line stroke="rgb(0%,0%,0%)" x1="147.637150926" x2="146.82468155" y1="636.640660056" y2="636.109144488" /><line stroke="rgb(0%,0%,0%)" x1="146.795809635" x2="141.257462113" y1="636.035100863" y2="633.097804376" /><line stroke="rgb(0%,0%,0%)" x1="146.795809635" x2="146.82468155" y1="636.035100863" y2="636.109144488" /><line stroke="rgb(0%,0%,0%)" x1="152.030538152" x2="157.881661129" y1="638.940024762" y2="642.365890685" /><line stroke="rgb(0%,0%,0%)" x1="148.690477068" x2="152.030538152" y1="637.066848881" y2="638.940024762" /><line stroke="rgb(0%,0%,0%)" x1="136.685458466" x2="141.257462113" y1="630.759595231" y2="633.097804376" /><line stroke="rgb(0%,0%,0%)" x1="157.881661129" x2="158.656499628" y1="642.365890685" y2="642.668681254" /><line stroke="rgb(0%,0%,0%)" x1="158.656499628" x2="159.31402641" y1="642.668681254" y2="642.855690264" /><line stroke="rgb(0%,0%,0%)" x1="190.153708132" x2="190.227575685" y1="661.602596682" y2="661.720251198" /><line stroke="rgb(0%,0%,0%)" x1="110.007457895" x2="115.522419697" y1="622.568777148" y2="623.895643834" /><line stroke="rgb(0%,0%,0%)" x1="123.181990016" x2="115.522419697" y1="625.701348712" y2="623.895643834" /><line stroke="rgb(0%,0%,0%)" x1="104.400806651" x2="110.007457895" y1="620.967736402" y2="622.568777148" /><line stroke="rgb(0%,0%,0%)" x1="97.6781238242" x2="104.400806651" y1="617.210115097" y2="620.967736402" /><line stroke="rgb(0%,0%,0%)" x1="97.6781238242" x2="94.0489644307" y1="617.210115097" y2="616.250002953" /><line stroke="rgb(0%,0%,0%)" x1="123.181990016" x2="130.517473885" y1="625.701348712" y2="628.689534277" /><line stroke="rgb(0%,0%,0%)" x1="133.332064269" x2="136.058226817" y1="630.210109121" y2="630.416402737" /><line stroke="rgb(0%,0%,0%)" x1="136.058226817" x2="136.685458466" y1="630.416402737" y2="630.759595231" /><line stroke="rgb(0%,0%,0%)" x1="130.517473885" x2="133.332064269" y1="628.689534277" y2="630.210109121" /><line stroke="rgb(0%,0%,0%)" x1="42.195540306" x2="41.9429633085" y1="494.470097147" y2="493.427669671" /><line stroke="rgb(0%,0%,0%)" x1="71.9156897378" x2="60.4803303496" y1="598.691920172" y2="591.025902025" /><line stroke="rgb(0%,0%,0%)" x1="88.3129037425" x2="91.9096631814" y1="611.630134172" y2="614.467523646" /><line stroke="rgb(0%,0%,0%)" x1="75.322210732" x2="81.9415229773" y1="600.856886793" y2="605.891638481" /><line stroke="rgb(0%,0%,0%)" x1="88.0247524138" x2="88.3129037425" y1="610.440452685" y2="611.630134172" /><line stroke="rgb(0%,0%,0%)" x1="81.9415229773" x2="85.2624075757" y1="605.891638481" y2="607.938622911" /><line stroke="rgb(0%,0%,0%)" x1="85.2624075757" x2="88.0247524138" y1="607.938622911" y2="610.440452685" /><line stroke="rgb(0%,0%,0%)" x1="73.9088421866" x2="71.9156897378" y1="599.337544912" y2="598.691920172" /><line stroke="rgb(0%,0%,0%)" x1="73.9088421866" x2="75.322210732" y1="599.337544912" y2="600.856886793" /><line stroke="rgb(0%,0%,0%)" x1="91.9096631814" x2="94.0489644307" y1="614.467523646" y2="616.250002953" /><line stroke="rgb(0%,0%,0%)" x1="30.609689214" x2="25.062821345" y1="483.104161768" y2="480.883115134" /><line stroke="rgb(0%,0%,0%)" x1="30.609689214" x2="34.0925540962" y1="483.104161768" y2="484.544903271" /><line stroke="rgb(0%,0%,0%)" x1="34.0925540962" x2="34.9935803818" y1="484.544903271" y2="485.192894855" /><line stroke="rgb(0%,0%,0%)" x1="49.1304852342" x2="46.3171846961" y1="583.896323142" y2="582.535184314" /><line stroke="rgb(0%,0%,0%)" x1="55.4736283796" x2="57.3337327353" y1="587.579072292" y2="589.557831739" /><line stroke="rgb(0%,0%,0%)" x1="49.1304852342" x2="55.4736283796" y1="583.896323142" y2="587.579072292" /><line stroke="rgb(0%,0%,0%)" x1="38.9725237331" x2="41.4778889893" y1="573.087941056" y2="577.694347398" /><line stroke="rgb(0%,0%,0%)" x1="46.3171846961" x2="41.4778889893" y1="582.535184314" y2="577.694347398" /><line stroke="rgb(0%,0%,0%)" x1="36.2126415886" x2="38.9725237331" y1="565.888248918" y2="573.087941056" /><line stroke="rgb(0%,0%,0%)" x1="35.6434326101" x2="36.2126415886" y1="562.937205201" y2="565.888248918" /><line stroke="rgb(0%,0%,0%)" x1="35.6434326101" x2="37.6745136519" y1="562.937205201" y2="550.908866274" /><line stroke="rgb(0%,0%,0%)" x1="35.1320691663" x2="37.4846177921" y1="543.985404471" y2="545.902482147" /><line stroke="rgb(0%,0%,0%)" x1="35.1320691663" x2="34.3258654674" y1="543.985404471" y2="537.480856529" /><line stroke="rgb(0%,0%,0%)" x1="37.4846177921" x2="37.8406546379" y1="545.902482147" y2="547.173412545" /><line stroke="rgb(0%,0%,0%)" x1="34.2415893015" x2="34.3258654674" y1="533.467547539" y2="537.480856529" /><line stroke="rgb(0%,0%,0%)" x1="44.3636233614" x2="40.0373886536" y1="512.464768476" y2="521.12036478" /><line stroke="rgb(0%,0%,0%)" x1="40.0373886536" x2="34.2415893015" y1="521.12036478" y2="533.467547539" /><line stroke="rgb(0%,0%,0%)" x1="44.3636233614" x2="45.1971138068" y1="512.464768476" y2="511.093015744" /><line stroke="rgb(0%,0%,0%)" x1="45.5858145636" x2="45.1971138068" y1="508.570918362" y2="511.093015744" /><line stroke="rgb(0%,0%,0%)" x1="45.5954829731" x2="45.5858145636" y1="504.914738656" y2="508.570918362" /><line stroke="rgb(0%,0%,0%)" x1="44.3739042282" x2="45.5954829731" y1="502.033434493" y2="504.914738656" /><line stroke="rgb(0%,0%,0%)" x1="43.8914873617" x2="44.3739042282" y1="499.461758985" y2="502.033434493" /><line stroke="rgb(0%,0%,0%)" x1="42.4217020657" x2="43.8914873617" y1="494.840462611" y2="499.461758985" /><line stroke="rgb(0%,0%,0%)" x1="42.195540306" x2="42.4217020657" y1="494.470097147" y2="494.840462611" /><line stroke="rgb(0%,0%,0%)" x1="40.0456230644" x2="40.4090920492" y1="489.055737496" y2="490.09865913" /><line stroke="rgb(0%,0%,0%)" x1="41.9429633085" x2="40.4090920492" y1="493.427669671" y2="490.09865913" /><line stroke="rgb(0%,0%,0%)" x1="39.7075215371" x2="40.0456230644" y1="488.86161463" y2="489.055737496" /><line stroke="rgb(0%,0%,0%)" x1="37.8971756626" x2="39.7075215371" y1="488.157577567" y2="488.86161463" /><line stroke="rgb(0%,0%,0%)" x1="36.4461096157" x2="34.9935803818" y1="486.805046694" y2="485.192894855" /><line stroke="rgb(0%,0%,0%)" x1="36.4461096157" x2="37.8971756626" y1="486.805046694" y2="488.157577567" /><line stroke="rgb(0%,0%,0%)" x1="57.3337327353" x2="60.4803303496" y1="589.557831739" y2="591.025902025" /><line stroke="rgb(0%,0%,0%)" x1="10.1224244283" x2="8.84890303106" y1="468.517628359" y2="467.370671688" /><line stroke="rgb(0%,0%,0%)" x1="6.66164178579" x2="6.66188624036" y1="460.741381394" y2="462.322921335" /><line stroke="rgb(0%,0%,0%)" x1="6.66188624036" x2="8.84890303106" y1="462.322921335" y2="467.370671688" /><line stroke="rgb(0%,0%,0%)" x1="10.1224244283" x2="12.0672352083" y1="468.517628359" y2="470.91429399" /><line stroke="rgb(0%,0%,0%)" x1="12.0672352083" x2="16.3456729219" y1="470.91429399" y2="476.994324539" /><line stroke="rgb(0%,0%,0%)" x1="16.3456729219" x2="23.4434165983" y1="476.994324539" y2="479.732638227" /><line stroke="rgb(0%,0%,0%)" x1="23.4434165983" x2="25.062821345" y1="479.732638227" y2="480.883115134" /><line stroke="rgb(0%,0%,0%)" x1="38.0646037979" x2="37.6745136519" y1="548.041338836" y2="550.908866274" /><line stroke="rgb(0%,0%,0%)" x1="38.078603395" x2="38.0646037979" y1="547.618518148" y2="548.041338836" /><line stroke="rgb(0%,0%,0%)" x1="37.8406546379" x2="38.078603395" y1="547.173412545" y2="547.618518148" /><line stroke="rgb(0%,0%,0%)" x1="491.282697074" x2="487.648252447" y1="568.458730249" y2="573.76615355" /><line stroke="rgb(0%,0%,0%)" x1="491.282697074" x2="493.641458943" y1="568.458730249" y2="565.415973939" /><line stroke="rgb(0%,0%,0%)" x1="493.641458943" x2="495.084176742" y1="565.415973939" y2="561.595657447" /><line stroke="rgb(0%,0%,0%)" x1="495.084176742" x2="497.963091333" y1="561.595657447" y2="557.506999439" /><line stroke="rgb(0%,0%,0%)" x1="497.963091333" x2="501.105567806" y1="557.506999439" y2="551.00645507" /><line stroke="rgb(0%,0%,0%)" x1="501.329886745" x2="501.105567806" y1="550.377821612" y2="551.00645507" /><line stroke="rgb(0%,0%,0%)" x1="501.329886745" x2="502.367930039" y1="550.377821612" y2="548.459949791" /><line stroke="rgb(0%,0%,0%)" x1="502.367930039" x2="508.73651092" y1="548.459949791" y2="537.70185912" /><line stroke="rgb(0%,0%,0%)" x1="508.73651092" x2="514.546891148" y1="537.70185912" y2="530.431350173" /><line stroke="rgb(0%,0%,0%)" x1="515.445382844" x2="519.549136152" y1="529.227255517" y2="523.635902116" /><line stroke="rgb(0%,0%,0%)" x1="519.549136152" x2="520.269607117" y1="523.635902116" y2="522.575636603" /><line stroke="rgb(0%,0%,0%)" x1="514.671311245" x2="514.546891148" y1="530.250495494" y2="530.431350173" /><line stroke="rgb(0%,0%,0%)" x1="514.671311245" x2="515.445382844" y1="530.250495494" y2="529.227255517" /><line stroke="rgb(0%,0%,0%)" x1="527.142558375" x2="520.524987067" y1="507.368806997" y2="522.206626582" /><line stroke="rgb(0%,0%,0%)" x1="527.142558375" x2="528.334895666" y1="507.368806997" y2="504.342642686" /><line stroke="rgb(0%,0%,0%)" x1="532.632729438" x2="528.334895666" y1="491.216719698" y2="504.342642686" /><line stroke="rgb(0%,0%,0%)" x1="532.632729438" x2="533.378166768" y1="491.216719698" y2="488.721666106" /><line stroke="rgb(0%,0%,0%)" x1="533.378166768" x2="536.166436125" y1="488.721666106" y2="477.047743203" /><line stroke="rgb(0%,0%,0%)" x1="536.166436125" x2="536.930377488" y1="477.047743203" y2="474.15768537" /><line stroke="rgb(0%,0%,0%)" x1="536.930377488" x2="537.242867261" y1="474.15768537" y2="473.166917438" /><line stroke="rgb(0%,0%,0%)" x1="537.242867261" x2="537.506689957" y1="473.166917438" y2="472.140675366" /><line stroke="rgb(0%,0%,0%)" x1="538.886496209" x2="537.506689957" y1="460.579831223" y2="472.140675366" /><line stroke="rgb(0%,0%,0%)" x1="432.023507949" x2="431.824581738" y1="623.658827744" y2="623.857361528" /><line stroke="rgb(0%,0%,0%)" x1="431.824581738" x2="430.974327279" y1="623.857361528" y2="624.478981706" /><line stroke="rgb(0%,0%,0%)" x1="432.023507949" x2="446.34102375" y1="623.658827744" y2="614.66550276" /><line stroke="rgb(0%,0%,0%)" x1="446.406195484" x2="446.34102375" y1="614.605305977" y2="614.66550276" /><line stroke="rgb(0%,0%,0%)" x1="446.406195484" x2="446.50026109" y1="614.605305977" y2="614.524534898" /><line stroke="rgb(0%,0%,0%)" x1="447.129254271" x2="455.867680735" y1="613.92465334" y2="605.337977359" /><line stroke="rgb(0%,0%,0%)" x1="446.50026109" x2="447.129254271" y1="614.524534898" y2="613.92465334" /><line stroke="rgb(0%,0%,0%)" x1="467.5264073" x2="458.971215849" y1="593.598817432" y2="602.1781039" /><line stroke="rgb(0%,0%,0%)" x1="455.867680735" x2="458.971215849" y1="605.337977359" y2="602.1781039" /><line stroke="rgb(0%,0%,0%)" x1="467.5264073" x2="475.101410019" y1="593.598817432" y2="586.141472559" /><line stroke="rgb(0%,0%,0%)" x1="475.101410019" x2="476.985046836" y1="586.141472559" y2="584.676318637" /><line stroke="rgb(0%,0%,0%)" x1="479.47372352" x2="476.985046836" y1="582.15435501" y2="584.676318637" /><line stroke="rgb(0%,0%,0%)" x1="479.47372352" x2="486.70275332" y1="582.15435501" y2="574.893679874" /><line stroke="rgb(0%,0%,0%)" x1="486.70275332" x2="487.648252447" y1="574.893679874" y2="573.76615355" /><line stroke="rgb(0%,0%,0%)" x1="520.269607117" x2="520.524987067" y1="522.575636603" y2="522.206626582" /><line stroke="rgb(0%,0%,0%)" x1="183.426723304" x2="179.737588421" y1="657.393977472" y2="655.372336938" /><line stroke="rgb(0%,0%,0%)" x1="179.663933737" x2="179.737588421" y1="655.40306046" y2="655.372336938" /><line stroke="rgb(0%,0%,0%)" x1="179.569612907" x2="179.663933737" y1="655.320954019" y2="655.40306046" /></svg>