<?xml version="1.0" encoding="utf-8" ?>
<svg baseProfile="full" height="100%" version="1.1" viewBox="0.5 0.5 685.793960571 941.299331665" width="100%" xmlns="http://www.w3.org/2000/svg" xmlns:ev="http://www.w3.org/2001/xml-events" xmlns:xlink="http://www.w3.org/1999/xlink"><defs /><line stroke="rgb(0%,0%,0%)" x1="528.742271716" x2="531.837609705" y1="421.09656262" y2="431.813663788" /><line stroke="rgb(0%,0%,0%)" x1="524.049721584" x2="525.651021491" y1="408.046821705" y2="410.917833843" /><line stroke="rgb(0%,0%,0%)" x1="524.049721584" x2="523.392495235" y1="408.046821705" y2="405.912157775" /><line stroke="rgb(0%,0%,0%)" x1="539.889445602" x2="539.894877655" y1="458.201528625" y2="460.634991307" /><line stroke="rgb(0%,0%,0%)" x1="539.889445602" x2="537.529982306" y1="458.201528625" y2="449.178612099" /><line stroke="rgb(0%,0%,0%)" x1="537.529982306" x2="535.028095151" y1="449.178612099" y2="440.817610474" /><line stroke="rgb(0%,0%,0%)" x1="535.028095151" x2="534.896086176" y1="440.817610474" y2="438.087796543" /><line stroke="rgb(0%,0%,0%)" x1="518.08798759" x2="518.00397111" y1="396.138248055" y2="395.691993163" /><line stroke="rgb(0%,0%,0%)" x1="518.00397111" x2="514.632150893" y1="395.691993163" y2="390.145041675" /><line stroke="rgb(0%,0%,0%)" x1="511.080049587" x2="514.632150893" y1="384.51817797" y2="390.145041675" /><line stroke="rgb(0%,0%,0%)" x1="511.080049587" x2="507.733337293" y1="384.51817797" y2="380.986243096" /><line stroke="rgb(0%,0%,0%)" x1="528.742271716" x2="525.651021491" y1="421.09656262" y2="410.917833843" /><line stroke="rgb(0%,0%,0%)" x1="523.392495235" x2="521.282873699" y1="405.912157775" y2="401.667099502" /><line stroke="rgb(0%,0%,0%)" x1="521.282873699" x2="518.08798759" y1="401.667099502" y2="396.138248055" /><line stroke="rgb(0%,0%,0%)" x1="534.896086176" x2="531.837609705" y1="438.087796543" y2="431.813663788" /><line stroke="rgb(0%,0%,0%)" x1="435.458787996" x2="430.246191993" y1="294.38857482" y2="287.579171794" /><line stroke="rgb(0%,0%,0%)" x1="430.246191993" x2="428.384441839" y1="287.579171794" y2="285.164574112" /><line stroke="rgb(0%,0%,0%)" x1="437.889170519" x2="435.458787996" y1="297.324264534" y2="294.38857482" /><line stroke="rgb(0%,0%,0%)" x1="379.838963186" x2="380.778665439" y1="253.42918114" y2="254.008352737" /><line stroke="rgb(0%,0%,0%)" x1="398.525714543" x2="405.522194911" y1="266.175252958" y2="272.196790084" /><line stroke="rgb(0%,0%,0%)" x1="393.674986098" x2="393.938102126" y1="260.903223294" y2="260.999972033" /><line stroke="rgb(0%,0%,0%)" x1="398.525714543" x2="393.938102126" y1="266.175252958" y2="260.999972033" /><line stroke="rgb(0%,0%,0%)" x1="393.674986098" x2="391.947476699" y1="260.903223294" y2="260.185628873" /><line stroke="rgb(0%,0%,0%)" x1="410.606764411" x2="417.582345161" y1="274.026681102" y2="276.350793166" /><line stroke="rgb(0%,0%,0%)" x1="417.582345161" x2="425.985763432" y1="276.350793166" y2="282.767592629" /><line stroke="rgb(0%,0%,0%)" x1="410.606764411" x2="409.020610778" y1="274.026681102" y2="273.243555756" /><line stroke="rgb(0%,0%,0%)" x1="409.020610778" x2="405.522194911" y1="273.243555756" y2="272.196790084" /><line stroke="rgb(0%,0%,0%)" x1="428.384441839" x2="425.985763432" y1="285.164574112" y2="282.767592629" /><line stroke="rgb(0%,0%,0%)" x1="366.501356851" x2="361.413972094" y1="200.265411407" y2="187.186477974" /><line stroke="rgb(0%,0%,0%)" x1="357.549181391" x2="351.764148615" y1="176.351585338" y2="160.428980552" /><line stroke="rgb(0%,0%,0%)" x1="370.180195827" x2="367.001030479" y1="240.880760282" y2="234.127243336" /><line stroke="rgb(0%,0%,0%)" x1="365.101051833" x2="365.635354459" y1="217.573717941" y2="222.850147525" /><line stroke="rgb(0%,0%,0%)" x1="365.129478481" x2="366.501356851" y1="211.513807048" y2="200.265411407" /><line stroke="rgb(0%,0%,0%)" x1="365.101051833" x2="365.129478481" y1="217.573717941" y2="211.513807048" /><line stroke="rgb(0%,0%,0%)" x1="381.633218963" x2="380.778665439" y1="255.063085359" y2="254.008352737" /><line stroke="rgb(0%,0%,0%)" x1="391.947476699" x2="391.001344963" y1="260.185628873" y2="259.554504913" /><line stroke="rgb(0%,0%,0%)" x1="379.838963186" x2="375.532017346" y1="253.42918114" y2="249.072355325" /><line stroke="rgb(0%,0%,0%)" x1="374.297250008" x2="374.221886682" y1="247.86115933" y2="247.681225426" /><line stroke="rgb(0%,0%,0%)" x1="373.339948761" x2="374.221886682" y1="245.638406594" y2="247.681225426" /><line stroke="rgb(0%,0%,0%)" x1="391.001344963" x2="381.633218963" y1="259.554504913" y2="255.063085359" /><line stroke="rgb(0%,0%,0%)" x1="297.334989555" x2="300.895419187" y1="211.188124203" y2="206.292023015" /><line stroke="rgb(0%,0%,0%)" x1="297.334989555" x2="285.576085408" y1="211.188124203" y2="225.161829034" /><line stroke="rgb(0%,0%,0%)" x1="291.905910229" x2="290.426535422" y1="187.476333447" y2="186.34910586" /><line stroke="rgb(0%,0%,0%)" x1="291.905910229" x2="295.683620851" y1="187.476333447" y2="195.208404224" /><line stroke="rgb(0%,0%,0%)" x1="295.683620851" x2="298.711865264" y1="195.208404224" y2="198.096770359" /><line stroke="rgb(0%,0%,0%)" x1="316.636799824" x2="324.517424146" y1="135.689328403" y2="132.966856092" /><line stroke="rgb(0%,0%,0%)" x1="342.34406732" x2="339.121869618" y1="145.463914991" y2="142.782462302" /><line stroke="rgb(0%,0%,0%)" x1="338.141254959" x2="330.642198824" y1="138.948194104" y2="135.184795574" /><line stroke="rgb(0%,0%,0%)" x1="330.642198824" x2="325.741700199" y1="135.184795574" y2="132.819598664" /><line stroke="rgb(0%,0%,0%)" x1="325.277198212" x2="324.517424146" y1="132.645528363" y2="132.966856092" /><line stroke="rgb(0%,0%,0%)" x1="344.49218077" x2="342.34406732" y1="148.660371036" y2="145.463914991" /><line stroke="rgb(0%,0%,0%)" x1="339.121869618" x2="338.141254959" y1="142.782462302" y2="138.948194104" /><line stroke="rgb(0%,0%,0%)" x1="351.764148615" x2="351.636131693" y1="160.428980552" y2="160.012521423" /><line stroke="rgb(0%,0%,0%)" x1="351.636131693" x2="351.548511285" y1="160.012521423" y2="159.866445594" /><line stroke="rgb(0%,0%,0%)" x1="344.49218077" x2="351.548511285" y1="148.660371036" y2="159.866445594" /><line stroke="rgb(0%,0%,0%)" x1="367.001030479" x2="365.697080448" y1="234.127243336" y2="230.107325463" /><line stroke="rgb(0%,0%,0%)" x1="365.697080448" x2="365.635354459" y1="230.107325463" y2="222.850147525" /><line stroke="rgb(0%,0%,0%)" x1="361.413972094" x2="357.549181391" y1="187.186477974" y2="176.351585338" /><line stroke="rgb(0%,0%,0%)" x1="375.532017346" x2="374.297250008" y1="249.072355325" y2="247.86115933" /><line stroke="rgb(0%,0%,0%)" x1="373.339948761" x2="370.180195827" y1="245.638406594" y2="240.880760282" /><line stroke="rgb(0%,0%,0%)" x1="290.426535422" x2="290.283473928" y1="186.34910586" y2="183.973806116" /><line stroke="rgb(0%,0%,0%)" x1="287.44345572" x2="287.213345429" y1="174.232954104" y2="172.741740627" /><line stroke="rgb(0%,0%,0%)" x1="287.44345572" x2="288.250410616" y1="174.232954104" y2="175.330280336" /><line stroke="rgb(0%,0%,0%)" x1="286.585818687" x2="286.724722707" y1="154.856686052" y2="154.668532465" /><line stroke="rgb(0%,0%,0%)" x1="286.585818687" x2="286.569122437" y1="154.856686052" y2="155.081895215" /><line stroke="rgb(0%,0%,0%)" x1="286.724722707" x2="286.966082137" y1="154.668532465" y2="154.169090626" /><line stroke="rgb(0%,0%,0%)" x1="288.250410616" x2="290.283473928" y1="175.330280336" y2="183.973806116" /><line stroke="rgb(0%,0%,0%)" x1="299.866360042" x2="297.69072282" y1="139.611620353" y2="140.450011298" /><line stroke="rgb(0%,0%,0%)" x1="299.866360042" x2="300.606917903" y1="139.611620353" y2="139.034413101" /><line stroke="rgb(0%,0%,0%)" x1="297.69072282" x2="292.667447063" y1="140.450011298" y2="142.827129345" /><line stroke="rgb(0%,0%,0%)" x1="298.711865264" x2="301.877600862" y1="198.096770359" y2="202.543850517" /><line stroke="rgb(0%,0%,0%)" x1="301.877600862" x2="300.895419187" y1="202.543850517" y2="206.292023015" /><line stroke="rgb(0%,0%,0%)" x1="300.606917903" x2="302.854811436" y1="139.034413101" y2="138.290553461" /><line stroke="rgb(0%,0%,0%)" x1="312.946290188" x2="310.021524232" y1="135.635391691" y2="135.302505643" /><line stroke="rgb(0%,0%,0%)" x1="310.021524232" x2="302.854811436" y1="135.302505643" y2="138.290553461" /><line stroke="rgb(0%,0%,0%)" x1="312.946290188" x2="316.636799824" y1="135.635391691" y2="135.689328403" /><line stroke="rgb(0%,0%,0%)" x1="325.741700199" x2="325.524463" y1="132.819598664" y2="132.655359967" /><line stroke="rgb(0%,0%,0%)" x1="325.524463" x2="325.277198212" y1="132.655359967" y2="132.645528363" /><line stroke="rgb(0%,0%,0%)" x1="268.521983536" x2="272.501235911" y1="251.031516944" y2="243.647986907" /><line stroke="rgb(0%,0%,0%)" x1="258.050875885" x2="255.754046667" y1="269.34900869" y2="271.883874314" /><line stroke="rgb(0%,0%,0%)" x1="268.521983536" x2="258.050875885" y1="251.031516944" y2="269.34900869" /><line stroke="rgb(0%,0%,0%)" x1="272.501235911" x2="283.323543083" y1="243.647986907" y2="227.951257091" /><line stroke="rgb(0%,0%,0%)" x1="285.576085408" x2="285.059587411" y1="225.161829034" y2="225.632997848" /><line stroke="rgb(0%,0%,0%)" x1="285.059587411" x2="283.323543083" y1="225.632997848" y2="227.951257091" /><line stroke="rgb(0%,0%,0%)" x1="284.7963854" x2="287.213345429" y1="163.648184435" y2="172.741740627" /><line stroke="rgb(0%,0%,0%)" x1="286.569122437" x2="284.7963854" y1="155.081895215" y2="163.648184435" /><line stroke="rgb(0%,0%,0%)" x1="290.63349505" x2="286.966082137" y1="145.461133191" y2="154.169090626" /><line stroke="rgb(0%,0%,0%)" x1="291.489920133" x2="290.63349505" y1="143.965562481" y2="145.461133191" /><line stroke="rgb(0%,0%,0%)" x1="292.667447063" x2="291.489920133" y1="142.827129345" y2="143.965562481" /><line stroke="rgb(0%,0%,0%)" x1="243.965173232" x2="239.821450253" y1="278.766407785" y2="275.920440625" /><line stroke="rgb(0%,0%,0%)" x1="247.731750281" x2="243.965173232" y1="279.201278138" y2="278.766407785" /><line stroke="rgb(0%,0%,0%)" x1="250.963401259" x2="247.731750281" y1="278.544707361" y2="279.201278138" /><line stroke="rgb(0%,0%,0%)" x1="239.821450253" x2="237.171303365" y1="275.920440625" y2="273.510683824" /><line stroke="rgb(0%,0%,0%)" x1="255.754046667" x2="250.963401259" y1="271.883874314" y2="278.544707361" /><line stroke="rgb(0%,0%,0%)" x1="180.575242351" x2="180.390319112" y1="264.954053567" y2="264.994053735" /><line stroke="rgb(0%,0%,0%)" x1="180.684751392" x2="180.575242351" y1="264.94294141" y2="264.954053567" /><line stroke="rgb(0%,0%,0%)" x1="185.520837268" x2="180.684751392" y1="264.235515689" y2="264.94294141" /><line stroke="rgb(0%,0%,0%)" x1="185.520837268" x2="186.553844797" y1="264.235515689" y2="262.944761291" /><line stroke="rgb(0%,0%,0%)" x1="189.863386494" x2="186.927842163" y1="262.087455677" y2="262.798161902" /><line stroke="rgb(0%,0%,0%)" x1="190.799879696" x2="189.863386494" y1="261.5092963" y2="262.087455677" /><line stroke="rgb(0%,0%,0%)" x1="190.799879696" x2="191.025148202" y1="261.5092963" y2="261.431439981" /><line stroke="rgb(0%,0%,0%)" x1="195.279700063" x2="194.073069416" y1="259.436380186" y2="260.778337258" /><line stroke="rgb(0%,0%,0%)" x1="194.073069416" x2="191.025148202" y1="260.778337258" y2="261.431439981" /><line stroke="rgb(0%,0%,0%)" x1="195.432414166" x2="195.279700063" y1="259.399635436" y2="259.436380186" /><line stroke="rgb(0%,0%,0%)" x1="195.432414166" x2="196.40623127" y1="259.399635436" y2="258.871657759" /><line stroke="rgb(0%,0%,0%)" x1="200.851181095" x2="203.493809967" y1="256.095244231" y2="254.532734447" /><line stroke="rgb(0%,0%,0%)" x1="210.218531812" x2="206.043472612" y1="250.851983753" y2="252.950575071" /><line stroke="rgb(0%,0%,0%)" x1="218.588785703" x2="221.744740417" y1="250.600285124" y2="253.370519312" /><line stroke="rgb(0%,0%,0%)" x1="217.240932759" x2="214.679500673" y1="250.270519868" y2="250.502283859" /><line stroke="rgb(0%,0%,0%)" x1="218.588785703" x2="217.240932759" y1="250.600285124" y2="250.270519868" /><line stroke="rgb(0%,0%,0%)" x1="214.679500673" x2="212.111691944" y1="250.502283859" y2="250.215577624" /><line stroke="rgb(0%,0%,0%)" x1="212.111691944" x2="210.218531812" y1="250.215577624" y2="250.851983753" /><line stroke="rgb(0%,0%,0%)" x1="237.171303365" x2="226.719041749" y1="273.510683824" y2="259.764183947" /><line stroke="rgb(0%,0%,0%)" x1="226.719041749" x2="225.304414387" y1="259.764183947" y2="257.791288482" /><line stroke="rgb(0%,0%,0%)" x1="225.304414387" x2="221.744740417" y1="257.791288482" y2="253.370519312" /><line stroke="rgb(0%,0%,0%)" x1="173.305190716" x2="172.618286842" y1="268.61088133" y2="269.133327454" /><line stroke="rgb(0%,0%,0%)" x1="172.618286842" x2="171.922901306" y1="269.133327454" y2="269.557616748" /><line stroke="rgb(0%,0%,0%)" x1="171.922901306" x2="167.208654556" y1="269.557616748" y2="271.931377065" /><line stroke="rgb(0%,0%,0%)" x1="173.305190716" x2="173.963319803" y1="268.61088133" y2="268.213072944" /><line stroke="rgb(0%,0%,0%)" x1="177.528078216" x2="173.963319803" y1="266.416686764" y2="268.213072944" /><line stroke="rgb(0%,0%,0%)" x1="177.641991885" x2="177.528078216" y1="266.375956996" y2="266.416686764" /><line stroke="rgb(0%,0%,0%)" x1="180.390319112" x2="177.641991885" y1="264.994053735" y2="266.375956996" /><line stroke="rgb(0%,0%,0%)" x1="186.927842163" x2="186.678387687" y1="262.798161902" y2="262.895219073" /><line stroke="rgb(0%,0%,0%)" x1="200.851181095" x2="196.40623127" y1="256.095244231" y2="258.871657759" /><line stroke="rgb(0%,0%,0%)" x1="205.132534296" x2="203.493809967" y1="253.691187385" y2="254.532734447" /><line stroke="rgb(0%,0%,0%)" x1="206.043472612" x2="205.132534296" y1="252.950575071" y2="253.691187385" /><line stroke="rgb(0%,0%,0%)" x1="147.281866824" x2="133.796352077" y1="281.554033142" y2="289.473240559" /><line stroke="rgb(0%,0%,0%)" x1="149.469574893" x2="147.281866824" y1="280.152609958" y2="281.554033142" /><line stroke="rgb(0%,0%,0%)" x1="153.381073793" x2="149.469574893" y1="278.765674416" y2="280.152609958" /><line stroke="rgb(0%,0%,0%)" x1="160.211328581" x2="153.381073793" y1="275.419246118" y2="278.765674416" /><line stroke="rgb(0%,0%,0%)" x1="167.208654556" x2="160.211328581" y1="271.931377065" y2="275.419246118" /><line stroke="rgb(0%,0%,0%)" x1="186.644833428" x2="186.553844797" y1="262.911692845" y2="262.944761291" /><line stroke="rgb(0%,0%,0%)" x1="186.678387687" x2="186.644833428" y1="262.895219073" y2="262.911692845" /><line stroke="rgb(0%,0%,0%)" x1="129.18464786" x2="109.919428924" y1="291.400763717" y2="298.405353575" /><line stroke="rgb(0%,0%,0%)" x1="132.066480763" x2="129.18464786" y1="290.356166779" y2="291.400763717" /><line stroke="rgb(0%,0%,0%)" x1="132.066480763" x2="133.796352077" y1="290.356166779" y2="289.473240559" /><line stroke="rgb(0%,0%,0%)" x1="73.5801881933" x2="80.0770968881" y1="328.557589737" y2="321.899140072" /><line stroke="rgb(0%,0%,0%)" x1="82.9089749677" x2="80.0770968881" y1="318.03141741" y2="321.899140072" /><line stroke="rgb(0%,0%,0%)" x1="82.9868025144" x2="82.9089749677" y1="317.47637868" y2="318.03141741" /><line stroke="rgb(0%,0%,0%)" x1="82.2606145514" x2="82.9868025144" y1="316.672320191" y2="317.47637868" /><line stroke="rgb(0%,0%,0%)" x1="85.2925047428" x2="82.2606145514" y1="313.65097829" y2="316.672320191" /><line stroke="rgb(0%,0%,0%)" x1="85.2925047428" x2="93.9923702041" y1="313.65097829" y2="304.893943677" /><line stroke="rgb(0%,0%,0%)" x1="95.2225078249" x2="93.9923702041" y1="304.224679025" y2="304.893943677" /><line stroke="rgb(0%,0%,0%)" x1="109.919428924" x2="95.2225078249" y1="298.405353575" y2="304.224679025" /><line stroke="rgb(0%,0%,0%)" x1="46.7030466471" x2="44.7640594233" y1="420.010770437" y2="430.445203234" /><line stroke="rgb(0%,0%,0%)" x1="46.7697804593" x2="46.7030466471" y1="419.328723682" y2="420.010770437" /><line stroke="rgb(0%,0%,0%)" x1="46.7697804593" x2="46.9291043973" y1="419.328723682" y2="419.018105643" /><line stroke="rgb(0%,0%,0%)" x1="46.8305927392" x2="46.9291043973" y1="418.419926627" y2="419.018105643" /><line stroke="rgb(0%,0%,0%)" x1="43.1998021505" x2="46.8305927392" y1="408.125703365" y2="418.419926627" /><line stroke="rgb(0%,0%,0%)" x1="42.5126206234" x2="43.1998021505" y1="406.867323013" y2="408.125703365" /><line stroke="rgb(0%,0%,0%)" x1="38.1361909789" x2="38.6084688087" y1="362.725264364" y2="364.064064182" /><line stroke="rgb(0%,0%,0%)" x1="47.8142287242" x2="54.5546265509" y1="346.197533123" y2="339.443384235" /><line stroke="rgb(0%,0%,0%)" x1="60.1277059704" x2="54.5546265509" y1="335.617639748" y2="339.443384235" /><line stroke="rgb(0%,0%,0%)" x1="66.5389615402" x2="60.1277059704" y1="332.862237567" y2="335.617639748" /><line stroke="rgb(0%,0%,0%)" x1="73.5801881933" x2="66.5389615402" y1="328.557589737" y2="332.862237567" /><line stroke="rgb(0%,0%,0%)" x1="12.8013699611" x2="12.5814950224" y1="460.52788259" y2="460.877304325" /><line stroke="rgb(0%,0%,0%)" x1="12.8013699611" x2="14.961501565" y1="460.52788259" y2="456.703278869" /><line stroke="rgb(0%,0%,0%)" x1="24.3297377296" x2="18.09296168" y1="444.143833602" y2="450.338194229" /><line stroke="rgb(0%,0%,0%)" x1="24.3297377296" x2="29.711275021" y1="444.143833602" y2="441.969544555" /><line stroke="rgb(0%,0%,0%)" x1="34.51111554" x2="29.711275021" y1="439.374157731" y2="441.969544555" /><line stroke="rgb(0%,0%,0%)" x1="38.2539798895" x2="38.1962195607" y1="395.862139402" y2="395.599111366" /><line stroke="rgb(0%,0%,0%)" x1="38.1962195607" x2="38.2905196711" y1="395.599111366" y2="394.588898191" /><line stroke="rgb(0%,0%,0%)" x1="38.2838639469" x2="38.2905196711" y1="387.096144398" y2="394.588898191" /><line stroke="rgb(0%,0%,0%)" x1="38.6084688087" x2="39.5753290271" y1="364.064064182" y2="369.953840355" /><line stroke="rgb(0%,0%,0%)" x1="38.1361909789" x2="38.0049318128" y1="362.725264364" y2="361.635598717" /><line stroke="rgb(0%,0%,0%)" x1="38.0049318128" x2="39.9670692766" y1="361.635598717" y2="357.864693997" /><line stroke="rgb(0%,0%,0%)" x1="41.2247525739" x2="36.3313853806" y1="436.183477678" y2="438.227207817" /><line stroke="rgb(0%,0%,0%)" x1="36.3313853806" x2="35.5687143997" y1="438.227207817" y2="438.835720355" /><line stroke="rgb(0%,0%,0%)" x1="35.5687143997" x2="34.51111554" y1="438.835720355" y2="439.374157731" /><line stroke="rgb(0%,0%,0%)" x1="42.7124272201" x2="41.2247525739" y1="434.627054085" y2="436.183477678" /><line stroke="rgb(0%,0%,0%)" x1="44.7640594233" x2="44.3602240724" y1="430.445203234" y2="431.136881815" /><line stroke="rgb(0%,0%,0%)" x1="44.3602240724" x2="43.8301591755" y1="431.136881815" y2="431.958230185" /><line stroke="rgb(0%,0%,0%)" x1="43.8301591755" x2="42.7124272201" y1="431.958230185" y2="434.627054085" /><line stroke="rgb(0%,0%,0%)" x1="38.2539798895" x2="42.5126206234" y1="395.862139402" y2="406.867323013" /><line stroke="rgb(0%,0%,0%)" x1="37.4634974305" x2="38.2838639469" y1="384.032140148" y2="387.096144398" /><line stroke="rgb(0%,0%,0%)" x1="38.4712170062" x2="37.4634974305" y1="382.074415923" y2="384.032140148" /><line stroke="rgb(0%,0%,0%)" x1="40.1768520921" x2="38.4712170062" y1="375.415139918" y2="382.074415923" /><line stroke="rgb(0%,0%,0%)" x1="39.5753290271" x2="40.1768520921" y1="369.953840355" y2="375.415139918" /><line stroke="rgb(0%,0%,0%)" x1="47.8142287242" x2="39.9670692766" y1="346.197533123" y2="357.864693997" /><line stroke="rgb(0%,0%,0%)" x1="17.5623979261" x2="14.961501565" y1="451.210911759" y2="456.703278869" /><line stroke="rgb(0%,0%,0%)" x1="17.659768269" x2="17.5623979261" y1="450.819327123" y2="451.210911759" /><line stroke="rgb(0%,0%,0%)" x1="18.09296168" x2="17.659768269" y1="450.338194229" y2="450.819327123" /><line stroke="rgb(0%,0%,0%)" x1="479.67987482" x2="477.457362847" y1="339.068655787" y2="336.805621058" /><line stroke="rgb(0%,0%,0%)" x1="473.432923445" x2="474.273052204" y1="332.674844355" y2="333.881550319" /><line stroke="rgb(0%,0%,0%)" x1="489.288042645" x2="486.80836095" y1="349.802435615" y2="345.876963142" /><line stroke="rgb(0%,0%,0%)" x1="479.67987482" x2="482.516957273" y1="339.068655787" y2="341.43411949" /><line stroke="rgb(0%,0%,0%)" x1="502.57247199" x2="499.809927663" y1="373.338789377" y2="367.713326641" /><line stroke="rgb(0%,0%,0%)" x1="499.809927663" x2="499.051939947" y1="367.713326641" y2="366.239712911" /><line stroke="rgb(0%,0%,0%)" x1="490.881103834" x2="498.526592893" y1="351.384629543" y2="365.081462589" /><line stroke="rgb(0%,0%,0%)" x1="499.051939947" x2="498.526592893" y1="366.239712911" y2="365.081462589" /><line stroke="rgb(0%,0%,0%)" x1="490.881103834" x2="489.288042645" y1="351.384629543" y2="349.802435615" /><line stroke="rgb(0%,0%,0%)" x1="507.733337293" x2="505.815846381" y1="380.986243096" y2="378.6012021" /><line stroke="rgb(0%,0%,0%)" x1="503.631525886" x2="505.815846381" y1="375.787149737" y2="378.6012021" /><line stroke="rgb(0%,0%,0%)" x1="502.57247199" x2="503.631525886" y1="373.338789377" y2="375.787149737" /><line stroke="rgb(0%,0%,0%)" x1="438.139825479" x2="437.889170519" y1="297.623691901" y2="297.324264534" /><line stroke="rgb(0%,0%,0%)" x1="438.139825479" x2="438.653146268" y1="297.623691901" y2="298.025189557" /><line stroke="rgb(0%,0%,0%)" x1="465.229777397" x2="460.850421041" y1="324.09857805" y2="318.039319327" /><line stroke="rgb(0%,0%,0%)" x1="460.850421041" x2="457.26122212" y1="318.039319327" y2="313.265861227" /><line stroke="rgb(0%,0%,0%)" x1="456.348359684" x2="449.916075623" y1="311.78607938" y2="305.648395357" /><line stroke="rgb(0%,0%,0%)" x1="477.457362847" x2="474.273052204" y1="336.805621058" y2="333.881550319" /><line stroke="rgb(0%,0%,0%)" x1="473.432923445" x2="466.749055008" y1="332.674844355" y2="326.025907777" /><line stroke="rgb(0%,0%,0%)" x1="466.749055008" x2="465.229777397" y1="326.025907777" y2="324.09857805" /><line stroke="rgb(0%,0%,0%)" x1="486.532032412" x2="482.516957273" y1="345.65783536" y2="341.43411949" /><line stroke="rgb(0%,0%,0%)" x1="486.80836095" x2="486.532032412" y1="345.876963142" y2="345.65783536" /><line stroke="rgb(0%,0%,0%)" x1="415.474425697" x2="416.688351296" y1="638.364083158" y2="637.66642232" /><line stroke="rgb(0%,0%,0%)" x1="416.688351296" x2="423.451451877" y1="637.66642232" y2="631.092809809" /><line stroke="rgb(0%,0%,0%)" x1="423.451451877" x2="429.110800737" y1="631.092809809" y2="626.810584961" /><line stroke="rgb(0%,0%,0%)" x1="446.141632601" x2="448.639551597" y1="304.025147125" y2="304.707782842" /><line stroke="rgb(0%,0%,0%)" x1="446.141632601" x2="438.653146268" y1="304.025147125" y2="298.025189557" /><line stroke="rgb(0%,0%,0%)" x1="457.26122212" x2="456.348359684" y1="313.265861227" y2="311.78607938" /><line stroke="rgb(0%,0%,0%)" x1="449.916075623" x2="448.639551597" y1="305.648395357" y2="304.707782842" /><line stroke="rgb(0%,0%,0%)" x1="384.47085962" x2="385.994656314" y1="656.25474326" y2="655.246313289" /><line stroke="rgb(0%,0%,0%)" x1="390.737880686" x2="387.529287858" y1="649.005286489" y2="652.646043709" /><line stroke="rgb(0%,0%,0%)" x1="390.737880686" x2="394.968461456" y1="649.005286489" y2="645.881184935" /><line stroke="rgb(0%,0%,0%)" x1="406.666651687" x2="397.202757715" y1="642.590597557" y2="645.550403434" /><line stroke="rgb(0%,0%,0%)" x1="406.666651687" x2="415.474425697" y1="642.590597557" y2="638.364083158" /><line stroke="rgb(0%,0%,0%)" x1="337.609939906" x2="337.545134251" y1="806.055697021" y2="806.111045823" /><line stroke="rgb(0%,0%,0%)" x1="361.710574169" x2="360.301459237" y1="748.737851221" y2="761.044115362" /><line stroke="rgb(0%,0%,0%)" x1="361.710574169" x2="363.117507838" y1="748.737851221" y2="744.302270732" /><line stroke="rgb(0%,0%,0%)" x1="364.301020491" x2="365.675824395" y1="739.71719962" y2="724.820719172" /><line stroke="rgb(0%,0%,0%)" x1="362.580885598" x2="361.705824596" y1="707.158321807" y2="697.862888241" /><line stroke="rgb(0%,0%,0%)" x1="361.705824596" x2="361.308983302" y1="697.862888241" y2="695.538514732" /><line stroke="rgb(0%,0%,0%)" x1="361.308983302" x2="360.709612074" y1="695.538514732" y2="688.616980332" /><line stroke="rgb(0%,0%,0%)" x1="368.053340195" x2="366.954023515" y1="673.867873298" y2="675.724989149" /><line stroke="rgb(0%,0%,0%)" x1="368.053340195" x2="368.099750587" y1="673.867873298" y2="673.102635095" /><line stroke="rgb(0%,0%,0%)" x1="361.02340492" x2="366.954023515" y1="686.668256585" y2="675.724989149" /><line stroke="rgb(0%,0%,0%)" x1="368.099750587" x2="368.126507096" y1="673.102635095" y2="671.22011844" /><line stroke="rgb(0%,0%,0%)" x1="368.126507096" x2="368.162565317" y1="671.22011844" y2="671.186412123" /><line stroke="rgb(0%,0%,0%)" x1="368.162565317" x2="367.577075396" y1="671.186412123" y2="668.587948466" /><line stroke="rgb(0%,0%,0%)" x1="369.376937226" x2="368.981819402" y1="666.077766127" y2="666.535087224" /><line stroke="rgb(0%,0%,0%)" x1="369.376937226" x2="369.804700958" y1="666.077766127" y2="665.816354421" /><line stroke="rgb(0%,0%,0%)" x1="369.804700958" x2="373.918231873" y1="665.816354421" y2="661.977467285" /><line stroke="rgb(0%,0%,0%)" x1="373.918231873" x2="375.799642867" y1="661.977467285" y2="660.10014372" /><line stroke="rgb(0%,0%,0%)" x1="375.799642867" x2="379.535277294" y1="660.10014372" y2="658.338858433" /><line stroke="rgb(0%,0%,0%)" x1="379.535277294" x2="384.47085962" y1="658.338858433" y2="656.25474326" /><line stroke="rgb(0%,0%,0%)" x1="385.994656314" x2="386.292512243" y1="655.246313289" y2="653.71556295" /><line stroke="rgb(0%,0%,0%)" x1="386.292512243" x2="386.580631124" y1="653.71556295" y2="653.38465591" /><line stroke="rgb(0%,0%,0%)" x1="386.580631124" x2="387.529287858" y1="653.38465591" y2="652.646043709" /><line stroke="rgb(0%,0%,0%)" x1="394.968461456" x2="397.202757715" y1="645.881184935" y2="645.550403434" /><line stroke="rgb(0%,0%,0%)" x1="321.890100128" x2="327.320566959" y1="806.804322363" y2="809.125623532" /><line stroke="rgb(0%,0%,0%)" x1="328.989067888" x2="337.290340084" y1="809.229408886" y2="806.213669319" /><line stroke="rgb(0%,0%,0%)" x1="337.545134251" x2="337.290340084" y1="806.111045823" y2="806.213669319" /><line stroke="rgb(0%,0%,0%)" x1="337.609939906" x2="347.03288068" y1="806.055697021" y2="795.687213733" /><line stroke="rgb(0%,0%,0%)" x1="347.03288068" x2="352.802119479" y1="795.687213733" y2="787.0565131" /><line stroke="rgb(0%,0%,0%)" x1="352.802119479" x2="355.219776695" y1="787.0565131" y2="782.920486855" /><line stroke="rgb(0%,0%,0%)" x1="355.219776695" x2="356.219563657" y1="782.920486855" y2="779.735284007" /><line stroke="rgb(0%,0%,0%)" x1="356.219563657" x2="358.851558975" y1="779.735284007" y2="773.140574464" /><line stroke="rgb(0%,0%,0%)" x1="358.851558975" x2="360.301459237" y1="773.140574464" y2="761.044115362" /><line stroke="rgb(0%,0%,0%)" x1="363.117507838" x2="363.685530258" y1="744.302270732" y2="741.459104679" /><line stroke="rgb(0%,0%,0%)" x1="360.709612074" x2="361.02340492" y1="688.616980332" y2="686.668256585" /><line stroke="rgb(0%,0%,0%)" x1="363.685530258" x2="364.301020491" y1="741.459104679" y2="739.71719962" /><line stroke="rgb(0%,0%,0%)" x1="365.675824395" x2="365.664378548" y1="724.820719172" y2="724.581526988" /><line stroke="rgb(0%,0%,0%)" x1="364.866710017" x2="365.664378548" y1="716.401755932" y2="724.581526988" /><line stroke="rgb(0%,0%,0%)" x1="364.866710017" x2="363.937739135" y1="716.401755932" y2="711.989496055" /><line stroke="rgb(0%,0%,0%)" x1="363.937739135" x2="362.580885598" y1="711.989496055" y2="707.158321807" /><line stroke="rgb(0%,0%,0%)" x1="367.577075396" x2="368.981819402" y1="668.587948466" y2="666.535087224" /><line stroke="rgb(0%,0%,0%)" x1="282.493908067" x2="279.038492848" y1="705.117175215" y2="697.680798811" /><line stroke="rgb(0%,0%,0%)" x1="279.038492848" x2="274.301728985" y1="697.680798811" y2="691.275514283" /><line stroke="rgb(0%,0%,0%)" x1="282.493908067" x2="291.963194155" y1="705.117175215" y2="730.76572025" /><line stroke="rgb(0%,0%,0%)" x1="296.857264344" x2="296.884654504" y1="768.78490735" y2="773.802351354" /><line stroke="rgb(0%,0%,0%)" x1="296.857264344" x2="296.233009848" y1="768.78490735" y2="761.555424974" /><line stroke="rgb(0%,0%,0%)" x1="294.415609679" x2="296.233009848" y1="756.787627236" y2="761.555424974" /><line stroke="rgb(0%,0%,0%)" x1="294.053256123" x2="292.049614913" y1="748.701214809" y2="731.024830591" /><line stroke="rgb(0%,0%,0%)" x1="294.053256123" x2="294.415609679" y1="748.701214809" y2="756.787627236" /><line stroke="rgb(0%,0%,0%)" x1="292.041464417" x2="292.049614913" y1="730.993406175" y2="731.024830591" /><line stroke="rgb(0%,0%,0%)" x1="309.304152149" x2="300.555213057" y1="798.119777757" y2="789.758301179" /><line stroke="rgb(0%,0%,0%)" x1="300.426136169" x2="300.555213057" y1="789.537492954" y2="789.758301179" /><line stroke="rgb(0%,0%,0%)" x1="315.958976192" x2="309.304152149" y1="801.964835212" y2="798.119777757" /><line stroke="rgb(0%,0%,0%)" x1="317.645552132" x2="321.890100128" y1="803.811589839" y2="806.804322363" /><line stroke="rgb(0%,0%,0%)" x1="315.958976192" x2="317.645552132" y1="801.964835212" y2="803.811589839" /><line stroke="rgb(0%,0%,0%)" x1="327.320566959" x2="328.989067888" y1="809.125623532" y2="809.229408886" /><line stroke="rgb(0%,0%,0%)" x1="255.702195105" x2="248.644264636" y1="639.385104505" y2="638.00097109" /><line stroke="rgb(0%,0%,0%)" x1="259.991360237" x2="257.544660157" y1="651.942266718" y2="642.108123434" /><line stroke="rgb(0%,0%,0%)" x1="257.078724801" x2="257.544660157" y1="640.648435898" y2="642.108123434" /><line stroke="rgb(0%,0%,0%)" x1="255.702195105" x2="257.078724801" y1="639.385104505" y2="640.648435898" /><line stroke="rgb(0%,0%,0%)" x1="246.942909275" x2="248.644264636" y1="639.032046214" y2="638.00097109" /><line stroke="rgb(0%,0%,0%)" x1="241.97876212" x2="246.942909275" y1="644.791690738" y2="639.032046214" /><line stroke="rgb(0%,0%,0%)" x1="260.906967312" x2="262.525339063" y1="665.524840449" y2="675.441430102" /><line stroke="rgb(0%,0%,0%)" x1="259.991360237" x2="260.906967312" y1="651.942266718" y2="665.524840449" /><line stroke="rgb(0%,0%,0%)" x1="262.525339063" x2="267.425196716" y1="675.441430102" y2="682.446908692" /><line stroke="rgb(0%,0%,0%)" x1="267.425196716" x2="274.301728985" y1="682.446908692" y2="691.275514283" /><line stroke="rgb(0%,0%,0%)" x1="291.963194155" x2="292.03718438" y1="730.76572025" y2="730.976502553" /><line stroke="rgb(0%,0%,0%)" x1="292.03718438" x2="292.041464417" y1="730.976502553" y2="730.993406175" /><line stroke="rgb(0%,0%,0%)" x1="300.145603984" x2="300.426136169" y1="789.018590623" y2="789.537492954" /><line stroke="rgb(0%,0%,0%)" x1="297.450434242" x2="300.145603984" y1="781.729199308" y2="789.018590623" /><line stroke="rgb(0%,0%,0%)" x1="296.884654504" x2="297.450434242" y1="773.802351354" y2="781.729199308" /><line stroke="rgb(0%,0%,0%)" x1="193.234128139" x2="192.964963287" y1="663.561135029" y2="663.492841555" /><line stroke="rgb(0%,0%,0%)" x1="193.234128139" x2="194.576513116" y1="663.561135029" y2="664.29872477" /><line stroke="rgb(0%,0%,0%)" x1="194.576513116" x2="194.589872923" y1="664.29872477" y2="664.304479921" /><line stroke="rgb(0%,0%,0%)" x1="218.210983824" x2="214.800615071" y1="674.184054422" y2="675.708813453" /><line stroke="rgb(0%,0%,0%)" x1="210.973694109" x2="211.690410377" y1="674.838034724" y2="675.161155588" /><line stroke="rgb(0%,0%,0%)" x1="210.703626379" x2="210.973694109" y1="674.689264719" y2="674.838034724" /><line stroke="rgb(0%,0%,0%)" x1="210.703626379" x2="210.119163437" y1="674.689264719" y2="674.217432992" /><line stroke="rgb(0%,0%,0%)" x1="218.210983824" x2="222.106731785" y1="674.184054422" y2="672.021420785" /><line stroke="rgb(0%,0%,0%)" x1="222.106731785" x2="224.210161428" y1="672.021420785" y2="670.66897564" /><line stroke="rgb(0%,0%,0%)" x1="224.210161428" x2="226.793211023" y1="670.66897564" y2="668.161335563" /><line stroke="rgb(0%,0%,0%)" x1="228.833959666" x2="226.793211023" y1="665.616173181" y2="668.161335563" /><line stroke="rgb(0%,0%,0%)" x1="232.498829141" x2="228.833959666" y1="658.583237254" y2="665.616173181" /><line stroke="rgb(0%,0%,0%)" x1="232.498829141" x2="241.97876212" y1="658.583237254" y2="644.791690738" /><line stroke="rgb(0%,0%,0%)" x1="173.190142122" x2="173.177612677" y1="652.022398406" y2="652.015612142" /><line stroke="rgb(0%,0%,0%)" x1="173.190142122" x2="173.190403209" y1="652.022398406" y2="652.025622575" /><line stroke="rgb(0%,0%,0%)" x1="167.57579909" x2="173.177612677" y1="646.864566715" y2="652.015612142" /><line stroke="rgb(0%,0%,0%)" x1="167.57579909" x2="166.977086478" y1="646.864566715" y2="646.447049128" /><line stroke="rgb(0%,0%,0%)" x1="166.977086478" x2="165.156186088" y1="646.447049128" y2="645.647327254" /><line stroke="rgb(0%,0%,0%)" x1="176.336597317" x2="176.740386779" y1="653.346291992" y2="653.608277488" /><line stroke="rgb(0%,0%,0%)" x1="178.298652272" x2="179.217090509" y1="654.3425447" y2="655.313284508" /><line stroke="rgb(0%,0%,0%)" x1="176.740386779" x2="178.298652272" y1="653.608277488" y2="654.3425447" /><line stroke="rgb(0%,0%,0%)" x1="176.336597317" x2="176.138032743" y1="653.346291992" y2="653.278209024" /><line stroke="rgb(0%,0%,0%)" x1="173.190403209" x2="176.138032743" y1="652.025622575" y2="653.278209024" /><line stroke="rgb(0%,0%,0%)" x1="192.384157665" x2="192.964963287" y1="661.46340358" y2="663.492841555" /><line stroke="rgb(0%,0%,0%)" x1="192.384157665" x2="190.336074733" y1="661.46340358" y2="661.805824715" /><line stroke="rgb(0%,0%,0%)" x1="189.712968068" x2="190.086329154" y1="661.2748194" y2="661.408035783" /><line stroke="rgb(0%,0%,0%)" x1="188.388225977" x2="189.712968068" y1="659.997261095" y2="661.2748194" /><line stroke="rgb(0%,0%,0%)" x1="187.748032323" x2="188.388225977" y1="659.428747044" y2="659.997261095" /><line stroke="rgb(0%,0%,0%)" x1="185.787713312" x2="187.748032323" y1="658.417817877" y2="659.428747044" /><line stroke="rgb(0%,0%,0%)" x1="183.006919002" x2="185.787713312" y1="657.119657578" y2="658.417817877" /><line stroke="rgb(0%,0%,0%)" x1="204.856473362" x2="206.257778088" y1="669.080971511" y2="669.744279117" /><line stroke="rgb(0%,0%,0%)" x1="199.681366992" x2="204.856473362" y1="666.340373782" y2="669.080971511" /><line stroke="rgb(0%,0%,0%)" x1="194.589872923" x2="199.681366992" y1="664.304479921" y2="666.340373782" /><line stroke="rgb(0%,0%,0%)" x1="211.690410377" x2="214.800615071" y1="675.161155588" y2="675.708813453" /><line stroke="rgb(0%,0%,0%)" x1="206.257778088" x2="210.119163437" y1="669.744279117" y2="674.217432992" /><line stroke="rgb(0%,0%,0%)" x1="156.870469793" x2="151.959537546" y1="642.814013428" y2="639.938634548" /><line stroke="rgb(0%,0%,0%)" x1="146.804738295" x2="151.959537546" y1="637.302372708" y2="639.938634548" /><line stroke="rgb(0%,0%,0%)" x1="156.870469793" x2="161.352630918" y1="642.814013428" y2="644.565547615" /><line stroke="rgb(0%,0%,0%)" x1="161.352630918" x2="165.156186088" y1="644.565547615" y2="645.647327254" /><line stroke="rgb(0%,0%,0%)" x1="190.086329154" x2="190.336074733" y1="661.408035783" y2="661.805824715" /><line stroke="rgb(0%,0%,0%)" x1="107.173632368" x2="112.339893004" y1="621.876013465" y2="623.118984745" /><line stroke="rgb(0%,0%,0%)" x1="107.173632368" x2="100.139150188" y1="621.876013465" y2="619.867239937" /><line stroke="rgb(0%,0%,0%)" x1="122.530353181" x2="124.865186544" y1="626.282773395" y2="626.769293085" /><line stroke="rgb(0%,0%,0%)" x1="119.880918656" x2="122.530353181" y1="625.242086347" y2="626.282773395" /><line stroke="rgb(0%,0%,0%)" x1="124.865186544" x2="132.873278966" y1="626.769293085" y2="630.319886874" /><line stroke="rgb(0%,0%,0%)" x1="112.339893004" x2="119.880918656" y1="623.118984745" y2="625.242086347" /><line stroke="rgb(0%,0%,0%)" x1="138.941370774" x2="140.543039743" y1="633.755056243" y2="633.87625741" /><line stroke="rgb(0%,0%,0%)" x1="140.543039743" x2="146.804738295" y1="633.87625741" y2="637.302372708" /><line stroke="rgb(0%,0%,0%)" x1="132.873278966" x2="133.974614123" y1="630.319886874" y2="631.010119897" /><line stroke="rgb(0%,0%,0%)" x1="133.974614123" x2="134.326077001" y1="631.010119897" y2="631.261656263" /><line stroke="rgb(0%,0%,0%)" x1="138.941370774" x2="134.326077001" y1="633.755056243" y2="631.261656263" /><line stroke="rgb(0%,0%,0%)" x1="71.4754159178" x2="70.2684286744" y1="597.483836585" y2="596.674698385" /><line stroke="rgb(0%,0%,0%)" x1="89.4135594993" x2="91.3972443472" y1="615.849113578" y2="617.106335144" /><line stroke="rgb(0%,0%,0%)" x1="83.2095198765" x2="89.4135594993" y1="610.954908942" y2="615.849113578" /><line stroke="rgb(0%,0%,0%)" x1="71.8349697582" x2="72.5336295177" y1="597.712345983" y2="598.243757446" /><line stroke="rgb(0%,0%,0%)" x1="82.2341799785" x2="83.2095198765" y1="606.928053243" y2="610.954908942" /><line stroke="rgb(0%,0%,0%)" x1="72.5336295177" x2="72.8841445484" y1="598.243757446" y2="598.459813978" /><line stroke="rgb(0%,0%,0%)" x1="72.8841445484" x2="82.2341799785" y1="598.459813978" y2="606.928053243" /><line stroke="rgb(0%,0%,0%)" x1="71.6857905547" x2="71.4754159178" y1="597.551981433" y2="597.483836585" /><line stroke="rgb(0%,0%,0%)" x1="71.6857905547" x2="71.8349697582" y1="597.551981433" y2="597.712345983" /><line stroke="rgb(0%,0%,0%)" x1="91.3972443472" x2="100.139150188" y1="617.106335144" y2="619.867239937" /><line stroke="rgb(0%,0%,0%)" x1="29.4508961351" x2="28.4026426517" y1="481.012618391" y2="480.592882439" /><line stroke="rgb(0%,0%,0%)" x1="29.4508961351" x2="30.1090919549" y1="481.012618391" y2="481.284891381" /><line stroke="rgb(0%,0%,0%)" x1="30.1090919549" x2="36.0536490442" y1="481.284891381" y2="485.560041867" /><line stroke="rgb(0%,0%,0%)" x1="49.9465243857" x2="48.8011944282" y1="585.771021809" y2="585.216885109" /><line stroke="rgb(0%,0%,0%)" x1="58.0679570874" x2="58.8988698493" y1="590.486223515" y2="591.37013977" /><line stroke="rgb(0%,0%,0%)" x1="49.9465243857" x2="58.0679570874" y1="585.771021809" y2="590.486223515" /><line stroke="rgb(0%,0%,0%)" x1="46.8310564102" x2="41.992928232" y1="583.246119646" y2="574.350656492" /><line stroke="rgb(0%,0%,0%)" x1="48.8011944282" x2="46.8310564102" y1="585.216885109" y2="583.246119646" /><line stroke="rgb(0%,0%,0%)" x1="38.0010003822" x2="39.7528552971" y1="567.861372009" y2="570.9537858" /><line stroke="rgb(0%,0%,0%)" x1="39.7528552971" x2="41.992928232" y1="570.9537858" y2="574.350656492" /><line stroke="rgb(0%,0%,0%)" x1="38.0010003822" x2="36.9943538617" y1="567.861372009" y2="561.800252079" /><line stroke="rgb(0%,0%,0%)" x1="37.6648847888" x2="36.2969472888" y1="544.094934915" y2="539.211863483" /><line stroke="rgb(0%,0%,0%)" x1="36.3417277052" x2="36.4561403949" y1="529.747610809" y2="535.19604894" /><line stroke="rgb(0%,0%,0%)" x1="36.4561403949" x2="36.4340126338" y1="535.19604894" y2="538.537265851" /><line stroke="rgb(0%,0%,0%)" x1="36.3417277052" x2="39.7895743276" y1="529.747610809" y2="522.402430311" /><line stroke="rgb(0%,0%,0%)" x1="45.1720026563" x2="39.7895743276" y1="510.14807475" y2="522.402430311" /><line stroke="rgb(0%,0%,0%)" x1="45.5800050748" x2="45.1720026563" y1="505.891334666" y2="510.14807475" /><line stroke="rgb(0%,0%,0%)" x1="45.5841642116" x2="45.5800050748" y1="504.318526668" y2="505.891334666" /><line stroke="rgb(0%,0%,0%)" x1="45.3721427102" x2="45.5841642116" y1="503.818437388" y2="504.318526668" /><line stroke="rgb(0%,0%,0%)" x1="44.7256757895" x2="45.3721427102" y1="500.372241241" y2="503.818437388" /><line stroke="rgb(0%,0%,0%)" x1="42.9396593291" x2="42.9237791198" y1="494.36908288" y2="494.706720863" /><line stroke="rgb(0%,0%,0%)" x1="44.7256757895" x2="42.9237791198" y1="500.372241241" y2="494.706720863" /><line stroke="rgb(0%,0%,0%)" x1="42.7826361463" x2="42.9396593291" y1="494.119635633" y2="494.36908288" /><line stroke="rgb(0%,0%,0%)" x1="41.3373679599" x2="42.7826361463" y1="489.972647794" y2="494.119635633" /><line stroke="rgb(0%,0%,0%)" x1="39.7712100289" x2="41.3373679599" y1="489.073429539" y2="489.972647794" /><line stroke="rgb(0%,0%,0%)" x1="39.5282544831" x2="39.7712100289" y1="488.978944992" y2="489.073429539" /><line stroke="rgb(0%,0%,0%)" x1="37.0673938935" x2="36.0536490442" y1="486.685190047" y2="485.560041867" /><line stroke="rgb(0%,0%,0%)" x1="37.0673938935" x2="39.5282544831" y1="486.685190047" y2="488.978944992" /><line stroke="rgb(0%,0%,0%)" x1="58.8988698493" x2="70.2684286744" y1="591.37013977" y2="596.674698385" /><line stroke="rgb(0%,0%,0%)" x1="18.4608735165" x2="14.6824087839" y1="474.557305509" y2="469.187779869" /><line stroke="rgb(0%,0%,0%)" x1="18.4608735165" x2="21.6256128928" y1="474.557305509" y2="475.778263823" /><line stroke="rgb(0%,0%,0%)" x1="12.6353356063" x2="14.6824087839" y1="466.721693222" y2="469.187779869" /><line stroke="rgb(0%,0%,0%)" x1="12.8029268072" x2="12.6353356063" y1="461.464968015" y2="466.721693222" /><line stroke="rgb(0%,0%,0%)" x1="12.5814950224" x2="12.8029268072" y1="460.877304325" y2="461.464968015" /><line stroke="rgb(0%,0%,0%)" x1="21.6256128928" x2="28.4026426517" y1="475.778263823" y2="480.592882439" /><line stroke="rgb(0%,0%,0%)" x1="36.8943150775" x2="36.9943538617" y1="561.463086605" y2="561.800252079" /><line stroke="rgb(0%,0%,0%)" x1="36.9101687319" x2="36.8943150775" y1="561.410181832" y2="561.463086605" /><line stroke="rgb(0%,0%,0%)" x1="36.9476559152" x2="36.9101687319" y1="561.32162579" y2="561.410181832" /><line stroke="rgb(0%,0%,0%)" x1="38.7297227021" x2="36.9476559152" y1="548.221768081" y2="561.32162579" /><line stroke="rgb(0%,0%,0%)" x1="38.7962882645" x2="38.7297227021" y1="546.211331877" y2="548.221768081" /><line stroke="rgb(0%,0%,0%)" x1="37.6648847888" x2="38.7962882645" y1="544.094934915" y2="546.211331877" /><line stroke="rgb(0%,0%,0%)" x1="36.4340126338" x2="36.2969472888" y1="538.537265851" y2="539.211863483" /><line stroke="rgb(0%,0%,0%)" x1="491.271163761" x2="489.045599527" y1="569.628109701" y2="572.878127979" /><line stroke="rgb(0%,0%,0%)" x1="491.271163761" x2="492.715559422" y1="569.628109701" y2="567.764867773" /><line stroke="rgb(0%,0%,0%)" x1="492.715559422" x2="494.638702585" y1="567.764867773" y2="562.672384997" /><line stroke="rgb(0%,0%,0%)" x1="494.638702585" x2="495.78263605" y1="562.672384997" y2="561.047761349" /><line stroke="rgb(0%,0%,0%)" x1="495.78263605" x2="497.519255174" y1="561.047761349" y2="557.455381338" /><line stroke="rgb(0%,0%,0%)" x1="507.699410707" x2="502.96493238" y1="540.114439077" y2="548.112130882" /><line stroke="rgb(0%,0%,0%)" x1="507.699410707" x2="511.092473846" y1="540.114439077" y2="535.868710752" /><line stroke="rgb(0%,0%,0%)" x1="513.823131146" x2="511.092473846" y1="532.148197156" y2="535.868710752" /><line stroke="rgb(0%,0%,0%)" x1="513.823131146" x2="518.473258401" y1="532.148197156" y2="525.304937957" /><line stroke="rgb(0%,0%,0%)" x1="524.788955744" x2="520.121554201" y1="512.458062874" y2="522.923240929" /><line stroke="rgb(0%,0%,0%)" x1="524.788955744" x2="528.545493468" y1="512.458062874" y2="502.923931478" /><line stroke="rgb(0%,0%,0%)" x1="531.119594375" x2="528.545493468" y1="495.062424482" y2="502.923931478" /><line stroke="rgb(0%,0%,0%)" x1="531.119594375" x2="532.560490492" y1="495.062424482" y2="490.2396005" /><line stroke="rgb(0%,0%,0%)" x1="532.560490492" x2="533.458110021" y1="490.2396005" y2="487.317814921" /><line stroke="rgb(0%,0%,0%)" x1="536.222816338" x2="533.458110021" y1="476.858686086" y2="487.317814921" /><line stroke="rgb(0%,0%,0%)" x1="536.222816338" x2="537.839126853" y1="476.858686086" y2="471.734074759" /><line stroke="rgb(0%,0%,0%)" x1="537.839126853" x2="539.203713587" y1="471.734074759" y2="466.425978303" /><line stroke="rgb(0%,0%,0%)" x1="539.894877655" x2="539.203713587" y1="460.634991307" y2="466.425978303" /><line stroke="rgb(0%,0%,0%)" x1="454.061714959" x2="448.044493501" y1="608.268856091" y2="614.181583191" /><line stroke="rgb(0%,0%,0%)" x1="467.444486212" x2="462.236389927" y1="594.723022112" y2="599.945786587" /><line stroke="rgb(0%,0%,0%)" x1="454.061714959" x2="462.236389927" y1="608.268856091" y2="599.945786587" /><line stroke="rgb(0%,0%,0%)" x1="467.444486212" x2="472.055878458" y1="594.723022112" y2="590.183255779" /><line stroke="rgb(0%,0%,0%)" x1="472.055878458" x2="476.948461297" y1="590.183255779" y2="586.377645872" /><line stroke="rgb(0%,0%,0%)" x1="478.225320453" x2="476.948461297" y1="585.083708266" y2="586.377645872" /><line stroke="rgb(0%,0%,0%)" x1="478.225320453" x2="481.934300791" y1="585.083708266" y2="581.358491734" /><line stroke="rgb(0%,0%,0%)" x1="481.934300791" x2="489.045599527" y1="581.358491734" y2="572.878127979" /><line stroke="rgb(0%,0%,0%)" x1="497.519255174" x2="500.589264442" y1="557.455381338" y2="551.790331253" /><line stroke="rgb(0%,0%,0%)" x1="500.589264442" x2="501.671826823" y1="551.790331253" y2="550.207987986" /><line stroke="rgb(0%,0%,0%)" x1="501.671826823" x2="502.96493238" y1="550.207987986" y2="548.112130882" /><line stroke="rgb(0%,0%,0%)" x1="518.473258401" x2="520.121554201" y1="525.304937957" y2="522.923240929" /><line stroke="rgb(0%,0%,0%)" x1="429.110800737" x2="431.157298327" y1="626.810584961" y2="625.350022948" /><line stroke="rgb(0%,0%,0%)" x1="431.157298327" x2="433.143376748" y1="625.350022948" y2="624.036960249" /><line stroke="rgb(0%,0%,0%)" x1="444.257963635" x2="433.143376748" y1="617.051591562" y2="624.036960249" /><line stroke="rgb(0%,0%,0%)" x1="444.257963635" x2="445.888727398" y1="617.051591562" y2="615.738988707" /><line stroke="rgb(0%,0%,0%)" x1="445.888727398" x2="448.044493501" y1="615.738988707" y2="614.181583191" /><line stroke="rgb(0%,0%,0%)" x1="183.006919002" x2="180.334165209" y1="657.119657578" y2="655.654992399" /><line stroke="rgb(0%,0%,0%)" x1="179.844345103" x2="180.334165209" y1="655.859310681" y2="655.654992399" /><line stroke="rgb(0%,0%,0%)" x1="179.217090509" x2="179.844345103" y1="655.313284508" y2="655.859310681" /></svg>