<?xml version="1.0" encoding="utf-8" ?>
<svg baseProfile="full" height="100%" version="1.1" viewBox="0.5 0.5 685.793960571 941.299331665" width="100%" xmlns="http://www.w3.org/2000/svg" xmlns:ev="http://www.w3.org/2001/xml-events" xmlns:xlink="http://www.w3.org/1999/xlink"><defs /><line stroke="rgb(0%,0%,0%)" x1="536.499462558" x2="538.146318778" y1="446.18573107" y2="451.689323628" /><line stroke="rgb(0%,0%,0%)" x1="536.499462558" x2="536.090025509" y1="446.18573107" y2="437.718981284" /><line stroke="rgb(0%,0%,0%)" x1="516.27423905" x2="515.940422006" y1="394.868545875" y2="393.095471245" /><line stroke="rgb(0%,0%,0%)" x1="515.940422006" x2="510.478897186" y1="393.095471245" y2="384.110765277" /><line stroke="rgb(0%,0%,0%)" x1="528.642083207" x2="525.824940637" y1="422.684841463" y2="417.718776306" /><line stroke="rgb(0%,0%,0%)" x1="521.712929156" x2="525.824940637" y1="405.16611858" y2="417.718776306" /><line stroke="rgb(0%,0%,0%)" x1="521.712929156" x2="521.447118217" y1="405.16611858" y2="403.820376862" /><line stroke="rgb(0%,0%,0%)" x1="516.27423905" x2="521.447118217" y1="394.868545875" y2="403.820376862" /><line stroke="rgb(0%,0%,0%)" x1="539.970175561" x2="538.146318778" y1="459.755915601" y2="451.689323628" /><line stroke="rgb(0%,0%,0%)" x1="536.090025509" x2="532.074599042" y1="437.718981284" y2="429.481769406" /><line stroke="rgb(0%,0%,0%)" x1="532.074599042" x2="528.642083207" y1="429.481769406" y2="422.684841463" /><line stroke="rgb(0%,0%,0%)" x1="539.898221111" x2="539.970175561" y1="460.758017907" y2="459.755915601" /><line stroke="rgb(0%,0%,0%)" x1="428.803254326" x2="432.201837925" y1="284.725864344" y2="289.133658839" /><line stroke="rgb(0%,0%,0%)" x1="399.672785159" x2="402.756970208" y1="265.801760239" y2="268.456171285" /><line stroke="rgb(0%,0%,0%)" x1="399.672785159" x2="396.735219851" y1="265.801760239" y2="262.487895789" /><line stroke="rgb(0%,0%,0%)" x1="414.21845168" x2="416.775848889" y1="272.581055801" y2="273.433125029" /><line stroke="rgb(0%,0%,0%)" x1="416.775848889" x2="419.856721896" y1="273.433125029" y2="275.785661059" /><line stroke="rgb(0%,0%,0%)" x1="414.21845168" x2="410.642992542" y1="272.581055801" y2="270.815758534" /><line stroke="rgb(0%,0%,0%)" x1="410.642992542" x2="402.756970208" y1="270.815758534" y2="268.456171285" /><line stroke="rgb(0%,0%,0%)" x1="428.803254326" x2="419.856721896" y1="284.725864344" y2="275.785661059" /><line stroke="rgb(0%,0%,0%)" x1="367.94317186" x2="367.567072334" y1="237.096133021" y2="236.297182905" /><line stroke="rgb(0%,0%,0%)" x1="374.789713448" x2="374.393923964" y1="247.719771232" y2="246.774803011" /><line stroke="rgb(0%,0%,0%)" x1="396.735219851" x2="395.003936172" y1="262.487895789" y2="260.80795291" /><line stroke="rgb(0%,0%,0%)" x1="395.003936172" x2="393.185685705" y1="260.80795291" y2="259.126969197" /><line stroke="rgb(0%,0%,0%)" x1="297.630134687" x2="299.403506286" y1="209.3431617" y2="206.904521511" /><line stroke="rgb(0%,0%,0%)" x1="297.630134687" x2="291.773283465" y1="209.3431617" y2="216.303156373" /><line stroke="rgb(0%,0%,0%)" x1="295.437103273" x2="294.843454133" y1="192.77225074" y2="191.557192832" /><line stroke="rgb(0%,0%,0%)" x1="295.437103273" x2="295.706564778" y1="192.77225074" y2="193.029265491" /><line stroke="rgb(0%,0%,0%)" x1="344.957458077" x2="343.215415633" y1="142.05545471" y2="139.463244275" /><line stroke="rgb(0%,0%,0%)" x1="352.750979636" x2="357.08433954" y1="154.758984263" y2="168.856083838" /><line stroke="rgb(0%,0%,0%)" x1="352.750979636" x2="348.618067893" y1="154.758984263" y2="147.868825616" /><line stroke="rgb(0%,0%,0%)" x1="344.957458077" x2="348.618067893" y1="142.05545471" y2="147.868825616" /><line stroke="rgb(0%,0%,0%)" x1="367.567072334" x2="364.608351589" y1="236.297182905" y2="227.17581006" /><line stroke="rgb(0%,0%,0%)" x1="364.608351589" x2="364.537274434" y1="227.17581006" y2="218.819207383" /><line stroke="rgb(0%,0%,0%)" x1="364.537274434" x2="365.922929095" y1="218.819207383" y2="210.169035852" /><line stroke="rgb(0%,0%,0%)" x1="366.955576885" x2="365.922929095" y1="200.960922384" y2="210.169035852" /><line stroke="rgb(0%,0%,0%)" x1="366.955576885" x2="365.436226646" y1="200.960922384" y2="194.584827368" /><line stroke="rgb(0%,0%,0%)" x1="365.436226646" x2="357.634017286" y1="194.584827368" y2="171.717480778" /><line stroke="rgb(0%,0%,0%)" x1="379.971341199" x2="378.632327417" y1="252.697175919" y2="251.489030834" /><line stroke="rgb(0%,0%,0%)" x1="390.682102982" x2="379.971341199" y1="257.898143453" y2="252.697175919" /><line stroke="rgb(0%,0%,0%)" x1="374.789713448" x2="378.632327417" y1="247.719771232" y2="251.489030834" /><line stroke="rgb(0%,0%,0%)" x1="374.393923964" x2="373.847000123" y1="246.774803011" y2="246.328655895" /><line stroke="rgb(0%,0%,0%)" x1="373.847000123" x2="369.783888972" y1="246.328655895" y2="239.867704457" /><line stroke="rgb(0%,0%,0%)" x1="367.94317186" x2="369.783888972" y1="237.096133021" y2="239.867704457" /><line stroke="rgb(0%,0%,0%)" x1="393.185685705" x2="390.682102982" y1="259.126969197" y2="257.898143453" /><line stroke="rgb(0%,0%,0%)" x1="294.576088503" x2="298.806831089" y1="137.101623896" y2="135.099548948" /><line stroke="rgb(0%,0%,0%)" x1="295.706564778" x2="301.066422949" y1="193.029265491" y2="200.558548398" /><line stroke="rgb(0%,0%,0%)" x1="301.066422949" x2="299.403506286" y1="200.558548398" y2="206.904521511" /><line stroke="rgb(0%,0%,0%)" x1="309.066879352" x2="309.923055812" y1="130.211006357" y2="130.308453196" /><line stroke="rgb(0%,0%,0%)" x1="309.066879352" x2="307.085052516" y1="130.211006357" y2="131.037297785" /><line stroke="rgb(0%,0%,0%)" x1="307.085052516" x2="300.789344528" y1="131.037297785" y2="133.444896144" /><line stroke="rgb(0%,0%,0%)" x1="309.923055812" x2="312.968536469" y1="130.308453196" y2="128.219369243" /><line stroke="rgb(0%,0%,0%)" x1="327.92754333" x2="332.588939306" y1="124.595720486" y2="128.11989409" /><line stroke="rgb(0%,0%,0%)" x1="327.92754333" x2="323.350157726" y1="124.595720486" y2="124.413717048" /><line stroke="rgb(0%,0%,0%)" x1="323.350157726" x2="318.785222204" y1="124.413717048" y2="124.79459935" /><line stroke="rgb(0%,0%,0%)" x1="318.785222204" x2="317.322458495" y1="124.79459935" y2="125.544099336" /><line stroke="rgb(0%,0%,0%)" x1="343.215415633" x2="336.933134496" y1="139.463244275" y2="132.913681236" /><line stroke="rgb(0%,0%,0%)" x1="336.933134496" x2="335.25933899" y1="132.913681236" y2="131.021140372" /><line stroke="rgb(0%,0%,0%)" x1="335.25933899" x2="332.588939306" y1="131.021140372" y2="128.11989409" /><line stroke="rgb(0%,0%,0%)" x1="357.634017286" x2="357.52908993" y1="171.717480778" y2="171.035959908" /><line stroke="rgb(0%,0%,0%)" x1="357.52908993" x2="357.08433954" y1="171.035959908" y2="168.856083838" /><line stroke="rgb(0%,0%,0%)" x1="275.351728724" x2="275.441851578" y1="236.746329319" y2="236.579105746" /><line stroke="rgb(0%,0%,0%)" x1="275.351728724" x2="274.89225081" y1="236.746329319" y2="237.550110845" /><line stroke="rgb(0%,0%,0%)" x1="275.441851578" x2="275.68695722" y1="236.579105746" y2="236.223603266" /><line stroke="rgb(0%,0%,0%)" x1="291.773283465" x2="288.084759968" y1="216.303156373" y2="219.667965627" /><line stroke="rgb(0%,0%,0%)" x1="288.084759968" x2="275.68695722" y1="219.667965627" y2="236.223603266" /><line stroke="rgb(0%,0%,0%)" x1="291.927789398" x2="294.843454133" y1="184.212543357" y2="191.557192832" /><line stroke="rgb(0%,0%,0%)" x1="289.843044528" x2="291.927789398" y1="175.423852485" y2="184.212543357" /><line stroke="rgb(0%,0%,0%)" x1="289.87327366" x2="287.587297033" y1="170.010062885" y2="160.432473511" /><line stroke="rgb(0%,0%,0%)" x1="286.979943814" x2="286.638091245" y1="148.370276201" y2="153.489671225" /><line stroke="rgb(0%,0%,0%)" x1="286.638091245" x2="286.794716026" y1="153.489671225" y2="157.165439506" /><line stroke="rgb(0%,0%,0%)" x1="286.794716026" x2="287.587297033" y1="157.165439506" y2="160.432473511" /><line stroke="rgb(0%,0%,0%)" x1="288.306157554" x2="286.979943814" y1="145.221295415" y2="148.370276201" /><line stroke="rgb(0%,0%,0%)" x1="290.94620319" x2="288.306157554" y1="140.610997326" y2="145.221295415" /><line stroke="rgb(0%,0%,0%)" x1="294.576088503" x2="290.94620319" y1="137.101623896" y2="140.610997326" /><line stroke="rgb(0%,0%,0%)" x1="300.789344528" x2="298.806831089" y1="133.444896144" y2="135.099548948" /><line stroke="rgb(0%,0%,0%)" x1="317.322458495" x2="312.968536469" y1="125.544099336" y2="128.219369243" /><line stroke="rgb(0%,0%,0%)" x1="244.612463684" x2="248.442485456" y1="277.555461708" y2="278.011915517" /><line stroke="rgb(0%,0%,0%)" x1="237.615519428" x2="238.687316865" y1="273.25485538" y2="274.229431987" /><line stroke="rgb(0%,0%,0%)" x1="244.612463684" x2="238.687316865" y1="277.555461708" y2="274.229431987" /><line stroke="rgb(0%,0%,0%)" x1="254.980309803" x2="251.471447699" y1="271.475546261" y2="276.564299157" /><line stroke="rgb(0%,0%,0%)" x1="251.471447699" x2="248.442485456" y1="276.564299157" y2="278.011915517" /><line stroke="rgb(0%,0%,0%)" x1="274.89225081" x2="259.399243379" y1="237.550110845" y2="264.012531217" /><line stroke="rgb(0%,0%,0%)" x1="259.399243379" x2="254.980309803" y1="264.012531217" y2="271.475546261" /><line stroke="rgb(0%,0%,0%)" x1="289.87327366" x2="289.912776206" y1="170.010062885" y2="170.742179491" /><line stroke="rgb(0%,0%,0%)" x1="289.661101142" x2="289.843044528" y1="171.986406794" y2="175.423852485" /><line stroke="rgb(0%,0%,0%)" x1="289.912776206" x2="289.661101142" y1="170.742179491" y2="171.986406794" /><line stroke="rgb(0%,0%,0%)" x1="184.522448005" x2="184.432121185" y1="264.419059378" y2="264.432272443" /><line stroke="rgb(0%,0%,0%)" x1="184.522448005" x2="184.540216547" y1="264.419059378" y2="264.396857388" /><line stroke="rgb(0%,0%,0%)" x1="193.597788192" x2="194.055255805" y1="260.372081408" y2="259.863307742" /><line stroke="rgb(0%,0%,0%)" x1="193.597788192" x2="192.451401095" y1="260.372081408" y2="260.61772704" /><line stroke="rgb(0%,0%,0%)" x1="219.055040057" x2="216.347527186" y1="248.640914267" y2="248.114410405" /><line stroke="rgb(0%,0%,0%)" x1="237.615519428" x2="236.436234403" y1="273.25485538" y2="271.70389521" /><line stroke="rgb(0%,0%,0%)" x1="236.436234403" x2="230.037563807" y1="271.70389521" y2="262.780055242" /><line stroke="rgb(0%,0%,0%)" x1="230.037563807" x2="226.124766132" y1="262.780055242" y2="257.920740742" /><line stroke="rgb(0%,0%,0%)" x1="226.124766132" x2="224.34633304" y1="257.920740742" y2="254.040313731" /><line stroke="rgb(0%,0%,0%)" x1="224.34633304" x2="223.432629582" y1="254.040313731" y2="252.302774498" /><line stroke="rgb(0%,0%,0%)" x1="222.350904896" x2="223.432629582" y1="252.055846002" y2="252.302774498" /><line stroke="rgb(0%,0%,0%)" x1="184.432121185" x2="181.303246045" y1="264.432272443" y2="265.709279698" /><line stroke="rgb(0%,0%,0%)" x1="188.046354329" x2="189.696107532" y1="263.002142353" y2="262.360260185" /><line stroke="rgb(0%,0%,0%)" x1="189.957227782" x2="189.696107532" y1="261.969980462" y2="262.360260185" /><line stroke="rgb(0%,0%,0%)" x1="190.67719666" x2="189.957227782" y1="261.646122617" y2="261.969980462" /><line stroke="rgb(0%,0%,0%)" x1="191.341119158" x2="190.67719666" y1="261.533378892" y2="261.646122617" /><line stroke="rgb(0%,0%,0%)" x1="192.451401095" x2="191.341119158" y1="260.61772704" y2="261.533378892" /><line stroke="rgb(0%,0%,0%)" x1="195.633778435" x2="194.055255805" y1="259.164179981" y2="259.863307742" /><line stroke="rgb(0%,0%,0%)" x1="197.04451613" x2="195.633778435" y1="257.900687874" y2="259.164179981" /><line stroke="rgb(0%,0%,0%)" x1="197.04451613" x2="199.815534513" y1="257.900687874" y2="255.866031368" /><line stroke="rgb(0%,0%,0%)" x1="201.824913726" x2="199.815534513" y1="254.094850691" y2="255.866031368" /><line stroke="rgb(0%,0%,0%)" x1="203.749738917" x2="201.824913726" y1="253.106379991" y2="254.094850691" /><line stroke="rgb(0%,0%,0%)" x1="203.749738917" x2="206.748005759" y1="253.106379991" y2="250.668724987" /><line stroke="rgb(0%,0%,0%)" x1="207.49058924" x2="206.748005759" y1="250.132246206" y2="250.668724987" /><line stroke="rgb(0%,0%,0%)" x1="208.134126371" x2="207.49058924" y1="249.774987885" y2="250.132246206" /><line stroke="rgb(0%,0%,0%)" x1="214.243600924" x2="208.134126371" y1="247.595212566" y2="249.774987885" /><line stroke="rgb(0%,0%,0%)" x1="216.347527186" x2="214.243600924" y1="248.114410405" y2="247.595212566" /><line stroke="rgb(0%,0%,0%)" x1="222.350904896" x2="220.384286276" y1="252.055846002" y2="249.256349777" /><line stroke="rgb(0%,0%,0%)" x1="220.384286276" x2="219.055040057" y1="249.256349777" y2="248.640914267" /><line stroke="rgb(0%,0%,0%)" x1="163.84515941" x2="160.288457478" y1="274.504442296" y2="276.346295381" /><line stroke="rgb(0%,0%,0%)" x1="160.288457478" x2="155.193618434" y1="276.346295381" y2="277.857236732" /><line stroke="rgb(0%,0%,0%)" x1="155.193618434" x2="150.231688121" y1="277.857236732" y2="279.862344652" /><line stroke="rgb(0%,0%,0%)" x1="163.84515941" x2="167.690643719" y1="274.504442296" y2="272.552250582" /><line stroke="rgb(0%,0%,0%)" x1="175.042199811" x2="174.255791991" y1="268.048031014" y2="268.514157256" /><line stroke="rgb(0%,0%,0%)" x1="167.690643719" x2="174.255791991" y1="272.552250582" y2="268.514157256" /><line stroke="rgb(0%,0%,0%)" x1="178.032713668" x2="175.042199811" y1="267.028368704" y2="268.048031014" /><line stroke="rgb(0%,0%,0%)" x1="178.032713668" x2="179.183839666" y1="267.028368704" y2="266.448447471" /><line stroke="rgb(0%,0%,0%)" x1="181.303246045" x2="179.183839666" y1="265.709279698" y2="266.448447471" /><line stroke="rgb(0%,0%,0%)" x1="187.101733117" x2="184.540216547" y1="263.465912834" y2="264.396857388" /><line stroke="rgb(0%,0%,0%)" x1="188.046354329" x2="187.101733117" y1="263.002142353" y2="263.465912834" /><line stroke="rgb(0%,0%,0%)" x1="103.892902811" x2="102.057434669" y1="301.217104234" y2="301.803788704" /><line stroke="rgb(0%,0%,0%)" x1="103.892902811" x2="113.124441371" y1="301.217104234" y2="297.619959" /><line stroke="rgb(0%,0%,0%)" x1="135.807704739" x2="133.223957996" y1="287.886508655" y2="289.487857355" /><line stroke="rgb(0%,0%,0%)" x1="144.304206547" x2="135.807704739" y1="282.810372584" y2="287.886508655" /><line stroke="rgb(0%,0%,0%)" x1="149.096118453" x2="144.304206547" y1="280.757784037" y2="282.810372584" /><line stroke="rgb(0%,0%,0%)" x1="150.231688121" x2="149.096118453" y1="279.862344652" y2="280.757784037" /><line stroke="rgb(0%,0%,0%)" x1="97.8680601148" x2="82.9790513551" y1="304.072631598" y2="312.670471296" /><line stroke="rgb(0%,0%,0%)" x1="102.057434669" x2="97.8680601148" y1="301.803788704" y2="304.072631598" /><line stroke="rgb(0%,0%,0%)" x1="133.223957996" x2="113.124441371" y1="289.487857355" y2="297.619959" /><line stroke="rgb(0%,0%,0%)" x1="57.5388203222" x2="56.5790986257" y1="340.239227445" y2="341.483804845" /><line stroke="rgb(0%,0%,0%)" x1="56.3222091765" x2="58.475173992" y1="334.866156861" y2="337.053866252" /><line stroke="rgb(0%,0%,0%)" x1="62.0815713172" x2="56.3222091765" y1="329.206050385" y2="334.866156861" /><line stroke="rgb(0%,0%,0%)" x1="59.0651846128" x2="57.5388203222" y1="338.284529949" y2="340.239227445" /><line stroke="rgb(0%,0%,0%)" x1="59.0651846128" x2="58.475173992" y1="338.284529949" y2="337.053866252" /><line stroke="rgb(0%,0%,0%)" x1="68.0475004673" x2="62.0815713172" y1="325.433533416" y2="329.206050385" /><line stroke="rgb(0%,0%,0%)" x1="73.4756460133" x2="68.0475004673" y1="322.808579033" y2="325.433533416" /><line stroke="rgb(0%,0%,0%)" x1="73.4756460133" x2="76.30026186" y1="322.808579033" y2="319.236160821" /><line stroke="rgb(0%,0%,0%)" x1="82.9790513551" x2="76.30026186" y1="312.670471296" y2="319.236160821" /><line stroke="rgb(0%,0%,0%)" x1="34.1955051078" x2="26.7735019022" y1="439.75608587" y2="443.76933782" /><line stroke="rgb(0%,0%,0%)" x1="41.3780087541" x2="41.3279456603" y1="435.241034345" y2="435.261943353" /><line stroke="rgb(0%,0%,0%)" x1="41.3279456603" x2="38.339539595" y1="435.261943353" y2="437.646303851" /><line stroke="rgb(0%,0%,0%)" x1="38.339539595" x2="34.1955051078" y1="437.646303851" y2="439.75608587" /><line stroke="rgb(0%,0%,0%)" x1="45.9965924089" x2="41.3780087541" y1="430.409015068" y2="435.241034345" /><line stroke="rgb(0%,0%,0%)" x1="45.9965924089" x2="46.0525937682" y1="430.409015068" y2="430.275299855" /><line stroke="rgb(0%,0%,0%)" x1="46.0525937682" x2="46.4041618674" y1="430.275299855" y2="429.505714067" /><line stroke="rgb(0%,0%,0%)" x1="45.4284038174" x2="46.2931719044" y1="411.157803051" y2="415.679090207" /><line stroke="rgb(0%,0%,0%)" x1="45.4284038174" x2="43.5571252926" y1="411.157803051" y2="402.907979425" /><line stroke="rgb(0%,0%,0%)" x1="42.9764867564" x2="43.5571252926" y1="401.161311614" y2="402.907979425" /><line stroke="rgb(0%,0%,0%)" x1="41.3475879503" x2="42.9764867564" y1="396.070258107" y2="401.161311614" /><line stroke="rgb(0%,0%,0%)" x1="37.1424001113" x2="41.3475879503" y1="388.034461419" y2="396.070258107" /><line stroke="rgb(0%,0%,0%)" x1="37.5830957739" x2="37.1424001113" y1="386.137124924" y2="388.034461419" /><line stroke="rgb(0%,0%,0%)" x1="37.1058895715" x2="37.5830957739" y1="384.354797387" y2="386.137124924" /><line stroke="rgb(0%,0%,0%)" x1="37.1058895715" x2="39.7793828334" y1="384.354797387" y2="379.160929319" /><line stroke="rgb(0%,0%,0%)" x1="40.3989899599" x2="39.7793828334" y1="377.550816177" y2="379.160929319" /><line stroke="rgb(0%,0%,0%)" x1="40.8295889857" x2="40.3989899599" y1="376.580258215" y2="377.550816177" /><line stroke="rgb(0%,0%,0%)" x1="40.3254050016" x2="40.8295889857" y1="374.426009538" y2="376.580258215" /><line stroke="rgb(0%,0%,0%)" x1="40.4886017177" x2="40.3254050016" y1="370.611575141" y2="374.426009538" /><line stroke="rgb(0%,0%,0%)" x1="40.4886017177" x2="40.0245780223" y1="370.611575141" y2="369.35194437" /><line stroke="rgb(0%,0%,0%)" x1="40.0245780223" x2="38.4733324286" y1="369.35194437" y2="363.610652909" /><line stroke="rgb(0%,0%,0%)" x1="37.8592307066" x2="38.4733324286" y1="361.924660638" y2="363.610652909" /><line stroke="rgb(0%,0%,0%)" x1="40.3570550766" x2="37.8681543873" y1="357.462820369" y2="361.613724138" /><line stroke="rgb(0%,0%,0%)" x1="41.1067903972" x2="40.3570550766" y1="356.265748091" y2="357.462820369" /><line stroke="rgb(0%,0%,0%)" x1="51.008159823" x2="41.1067903972" y1="345.879371093" y2="356.265748091" /><line stroke="rgb(0%,0%,0%)" x1="52.5626906516" x2="51.008159823" y1="344.259536476" y2="345.879371093" /><line stroke="rgb(0%,0%,0%)" x1="47.1295086381" x2="46.4041618674" y1="427.809134539" y2="429.505714067" /><line stroke="rgb(0%,0%,0%)" x1="47.118289742" x2="47.1295086381" y1="427.327097793" y2="427.809134539" /><line stroke="rgb(0%,0%,0%)" x1="47.3651003648" x2="47.118289742" y1="424.837068144" y2="427.327097793" /><line stroke="rgb(0%,0%,0%)" x1="47.3303519701" x2="47.3651003648" y1="423.825679287" y2="424.837068144" /><line stroke="rgb(0%,0%,0%)" x1="46.2931719044" x2="47.3303519701" y1="415.679090207" y2="423.825679287" /><line stroke="rgb(0%,0%,0%)" x1="56.5790986257" x2="52.5626906516" y1="341.483804845" y2="344.259536476" /><line stroke="rgb(0%,0%,0%)" x1="16.220557216" x2="15.7412385966" y1="459.59601041" y2="460.608197538" /><line stroke="rgb(0%,0%,0%)" x1="18.2590452928" x2="16.220557216" y1="451.398025388" y2="459.59601041" /><line stroke="rgb(0%,0%,0%)" x1="18.2590452928" x2="20.8648322906" y1="451.398025388" y2="448.503868166" /><line stroke="rgb(0%,0%,0%)" x1="23.8165341665" x2="20.8648322906" y1="445.636122846" y2="448.503868166" /><line stroke="rgb(0%,0%,0%)" x1="26.7735019022" x2="23.8165341665" y1="443.76933782" y2="445.636122846" /><line stroke="rgb(0%,0%,0%)" x1="37.8681543873" x2="37.8592307066" y1="361.613724138" y2="361.924660638" /><line stroke="rgb(0%,0%,0%)" x1="496.653824436" x2="498.217030011" y1="363.479247484" y2="366.51829568" /><line stroke="rgb(0%,0%,0%)" x1="503.572715172" x2="498.217030011" y1="374.187888605" y2="366.51829568" /><line stroke="rgb(0%,0%,0%)" x1="489.090226179" x2="489.464664507" y1="346.958261465" y2="347.629064763" /><line stroke="rgb(0%,0%,0%)" x1="496.653824436" x2="489.464664507" y1="363.479247484" y2="347.629064763" /><line stroke="rgb(0%,0%,0%)" x1="489.090226179" x2="488.020305699" y1="346.958261465" y2="345.895639579" /><line stroke="rgb(0%,0%,0%)" x1="508.251164916" x2="507.239029218" y1="380.556677289" y2="378.64558729" /><line stroke="rgb(0%,0%,0%)" x1="503.572715172" x2="507.239029218" y1="374.187888605" y2="378.64558729" /><line stroke="rgb(0%,0%,0%)" x1="458.283175692" x2="464.606435221" y1="313.952676614" y2="322.3623009" /><line stroke="rgb(0%,0%,0%)" x1="454.447595537" x2="451.393331123" y1="307.735067401" y2="304.820688975" /><line stroke="rgb(0%,0%,0%)" x1="470.252704391" x2="469.325267544" y1="328.035103629" y2="327.11408883" /><line stroke="rgb(0%,0%,0%)" x1="485.213521228" x2="479.789223271" y1="343.456286263" y2="337.750118241" /><line stroke="rgb(0%,0%,0%)" x1="485.213521228" x2="486.088701258" y1="343.456286263" y2="344.150301656" /><line stroke="rgb(0%,0%,0%)" x1="479.789223271" x2="476.735796724" y1="337.750118241" y2="333.53413573" /><line stroke="rgb(0%,0%,0%)" x1="476.735796724" x2="474.330949975" y1="333.53413573" y2="331.326684128" /><line stroke="rgb(0%,0%,0%)" x1="474.330949975" x2="470.252704391" y1="331.326684128" y2="328.035103629" /><line stroke="rgb(0%,0%,0%)" x1="488.020305699" x2="486.088701258" y1="345.895639579" y2="344.150301656" /><line stroke="rgb(0%,0%,0%)" x1="510.478897186" x2="508.251164916" y1="384.110765277" y2="380.556677289" /><line stroke="rgb(0%,0%,0%)" x1="433.907640559" x2="432.201837925" y1="291.162409175" y2="289.133658839" /><line stroke="rgb(0%,0%,0%)" x1="444.590888895" x2="445.637793014" y1="300.29359482" y2="300.579694628" /><line stroke="rgb(0%,0%,0%)" x1="444.590888895" x2="441.09842453" y1="300.29359482" y2="297.495347341" /><line stroke="rgb(0%,0%,0%)" x1="441.09842453" x2="436.79229509" y1="297.495347341" y2="293.573281979" /><line stroke="rgb(0%,0%,0%)" x1="436.79229509" x2="433.907640559" y1="293.573281979" y2="291.162409175" /><line stroke="rgb(0%,0%,0%)" x1="458.283175692" x2="454.447595537" y1="313.952676614" y2="307.735067401" /><line stroke="rgb(0%,0%,0%)" x1="451.393331123" x2="445.637793014" y1="304.820688975" y2="300.579694628" /><line stroke="rgb(0%,0%,0%)" x1="469.325267544" x2="464.606435221" y1="327.11408883" y2="322.3623009" /><line stroke="rgb(0%,0%,0%)" x1="415.03863025" x2="405.623765583" y1="640.798509234" y2="646.026358703" /><line stroke="rgb(0%,0%,0%)" x1="415.03863025" x2="416.493176645" y1="640.798509234" y2="639.360500888" /><line stroke="rgb(0%,0%,0%)" x1="416.493176645" x2="421.538088044" y1="639.360500888" y2="634.63410787" /><line stroke="rgb(0%,0%,0%)" x1="366.679047582" x2="367.177813219" y1="737.02315334" y2="731.618853465" /><line stroke="rgb(0%,0%,0%)" x1="362.904158967" x2="362.433157237" y1="706.469390591" y2="701.466121929" /><line stroke="rgb(0%,0%,0%)" x1="362.433157237" x2="361.518918091" y1="701.466121929" y2="696.111252659" /><line stroke="rgb(0%,0%,0%)" x1="361.518918091" x2="361.257823186" y1="696.111252659" y2="693.096130662" /><line stroke="rgb(0%,0%,0%)" x1="362.191153733" x2="365.618442645" y1="687.299939241" y2="680.975853727" /><line stroke="rgb(0%,0%,0%)" x1="369.264369994" x2="369.209553841" y1="671.512334022" y2="671.563574782" /><line stroke="rgb(0%,0%,0%)" x1="369.264369994" x2="369.092019118" y1="671.512334022" y2="670.74742335" /><line stroke="rgb(0%,0%,0%)" x1="370.950152191" x2="373.055590919" y1="665.162273082" y2="663.18735305" /><line stroke="rgb(0%,0%,0%)" x1="373.055590919" x2="380.774116631" y1="663.18735305" y2="661.261346532" /><line stroke="rgb(0%,0%,0%)" x1="381.825823759" x2="380.774116631" y1="660.765485299" y2="661.261346532" /><line stroke="rgb(0%,0%,0%)" x1="381.825823759" x2="382.851176821" y1="660.765485299" y2="660.332516354" /><line stroke="rgb(0%,0%,0%)" x1="382.851176821" x2="387.0649987" y1="660.332516354" y2="656.413266943" /><line stroke="rgb(0%,0%,0%)" x1="387.0649987" x2="387.721539844" y1="656.413266943" y2="654.185431675" /><line stroke="rgb(0%,0%,0%)" x1="387.947632457" x2="387.721539844" y1="653.023489573" y2="654.185431675" /><line stroke="rgb(0%,0%,0%)" x1="387.947632457" x2="389.558425028" y1="653.023489573" y2="651.173480293" /><line stroke="rgb(0%,0%,0%)" x1="389.558425028" x2="392.837247329" y1="651.173480293" y2="648.620630494" /><line stroke="rgb(0%,0%,0%)" x1="392.837247329" x2="394.384116963" y1="648.620630494" y2="648.330478412" /><line stroke="rgb(0%,0%,0%)" x1="404.053721693" x2="404.721404548" y1="646.846988573" y2="646.59241515" /><line stroke="rgb(0%,0%,0%)" x1="394.384116963" x2="404.053721693" y1="648.330478412" y2="646.846988573" /><line stroke="rgb(0%,0%,0%)" x1="404.721404548" x2="405.623765583" y1="646.59241515" y2="646.026358703" /><line stroke="rgb(0%,0%,0%)" x1="326.95124305" x2="327.805490264" y1="816.045263728" y2="816.410419269" /><line stroke="rgb(0%,0%,0%)" x1="331.974257999" x2="334.073802997" y1="816.669728104" y2="815.90699189" /><line stroke="rgb(0%,0%,0%)" x1="348.028953817" x2="345.859718142" y1="803.526709991" y2="805.91361705" /><line stroke="rgb(0%,0%,0%)" x1="348.028953817" x2="349.329982871" y1="803.526709991" y2="801.580388704" /><line stroke="rgb(0%,0%,0%)" x1="349.329982871" x2="357.122268012" y1="801.580388704" y2="788.249675141" /><line stroke="rgb(0%,0%,0%)" x1="357.122268012" x2="360.344654145" y1="788.249675141" y2="777.983534574" /><line stroke="rgb(0%,0%,0%)" x1="360.344654145" x2="361.606890427" y1="777.983534574" y2="774.820883943" /><line stroke="rgb(0%,0%,0%)" x1="361.606890427" x2="363.457355885" y1="774.820883943" y2="759.382525656" /><line stroke="rgb(0%,0%,0%)" x1="363.592511319" x2="363.794959069" y1="749.396858903" y2="746.891465154" /><line stroke="rgb(0%,0%,0%)" x1="364.579241872" x2="363.794959069" y1="742.965834467" y2="746.891465154" /><line stroke="rgb(0%,0%,0%)" x1="361.257823186" x2="362.191153733" y1="693.096130662" y2="687.299939241" /><line stroke="rgb(0%,0%,0%)" x1="363.457355885" x2="363.592511319" y1="759.382525656" y2="749.396858903" /><line stroke="rgb(0%,0%,0%)" x1="364.579241872" x2="366.679047582" y1="742.965834467" y2="737.02315334" /><line stroke="rgb(0%,0%,0%)" x1="367.177813219" x2="366.892760887" y1="731.618853465" y2="725.661907311" /><line stroke="rgb(0%,0%,0%)" x1="366.399526171" x2="366.892760887" y1="720.603983006" y2="725.661907311" /><line stroke="rgb(0%,0%,0%)" x1="366.399526171" x2="364.978990837" y1="720.603983006" y2="713.856978144" /><line stroke="rgb(0%,0%,0%)" x1="364.978990837" x2="362.904158967" y1="713.856978144" y2="706.469390591" /><line stroke="rgb(0%,0%,0%)" x1="366.992158156" x2="368.328375981" y1="676.61088457" y2="672.834287214" /><line stroke="rgb(0%,0%,0%)" x1="365.618442645" x2="366.992158156" y1="680.975853727" y2="676.61088457" /><line stroke="rgb(0%,0%,0%)" x1="368.328375981" x2="368.74570337" y1="672.834287214" y2="672.342547894" /><line stroke="rgb(0%,0%,0%)" x1="368.74570337" x2="369.209553841" y1="672.342547894" y2="671.563574782" /><line stroke="rgb(0%,0%,0%)" x1="369.667037095" x2="370.192666205" y1="669.907105032" y2="667.565823908" /><line stroke="rgb(0%,0%,0%)" x1="369.092019118" x2="369.667037095" y1="670.74742335" y2="669.907105032" /><line stroke="rgb(0%,0%,0%)" x1="370.192666205" x2="370.950152191" y1="667.565823908" y2="665.162273082" /><line stroke="rgb(0%,0%,0%)" x1="300.148914109" x2="300.163276866" y1="770.920156814" y2="773.551186668" /><line stroke="rgb(0%,0%,0%)" x1="300.148914109" x2="299.821569705" y1="770.920156814" y2="767.129185964" /><line stroke="rgb(0%,0%,0%)" x1="296.579870146" x2="299.821569705" y1="758.624857588" y2="767.129185964" /><line stroke="rgb(0%,0%,0%)" x1="296.324689898" x2="294.913665633" y1="752.930163298" y2="740.481923095" /><line stroke="rgb(0%,0%,0%)" x1="296.324689898" x2="296.579870146" y1="752.930163298" y2="758.624857588" /><line stroke="rgb(0%,0%,0%)" x1="293.65213011" x2="294.913665633" y1="735.618045338" y2="740.481923095" /><line stroke="rgb(0%,0%,0%)" x1="311.752986026" x2="307.110878318" y1="804.485230404" y2="800.04870679" /><line stroke="rgb(0%,0%,0%)" x1="305.660122932" x2="307.110878318" y1="797.566940099" y2="800.04870679" /><line stroke="rgb(0%,0%,0%)" x1="315.283975288" x2="311.752986026" y1="806.525383006" y2="804.485230404" /><line stroke="rgb(0%,0%,0%)" x1="318.601682574" x2="326.95124305" y1="810.158181941" y2="816.045263728" /><line stroke="rgb(0%,0%,0%)" x1="315.283975288" x2="318.601682574" y1="806.525383006" y2="810.158181941" /><line stroke="rgb(0%,0%,0%)" x1="327.805490264" x2="331.974257999" y1="816.410419269" y2="816.669728104" /><line stroke="rgb(0%,0%,0%)" x1="334.073802997" x2="338.343822169" y1="815.90699189" y2="813.450106228" /><line stroke="rgb(0%,0%,0%)" x1="338.343822169" x2="345.859718142" y1="813.450106228" y2="805.91361705" /><line stroke="rgb(0%,0%,0%)" x1="257.761263565" x2="257.504656587" y1="654.63837417" y2="653.606980985" /><line stroke="rgb(0%,0%,0%)" x1="257.504656587" x2="256.649114863" y1="653.606980985" y2="650.926730227" /><line stroke="rgb(0%,0%,0%)" x1="242.557604598" x2="245.81087735" y1="646.863779294" y2="644.892193179" /><line stroke="rgb(0%,0%,0%)" x1="242.237158564" x2="242.557604598" y1="647.23557634" y2="646.863779294" /><line stroke="rgb(0%,0%,0%)" x1="257.85729134" x2="260.677773999" y1="656.062898256" y2="673.345434942" /><line stroke="rgb(0%,0%,0%)" x1="257.761263565" x2="257.85729134" y1="654.63837417" y2="656.062898256" /><line stroke="rgb(0%,0%,0%)" x1="271.258616392" x2="261.37818176" y1="690.854269204" y2="676.727905095" /><line stroke="rgb(0%,0%,0%)" x1="271.258616392" x2="283.091280953" y1="690.854269204" y2="706.045927499" /><line stroke="rgb(0%,0%,0%)" x1="292.989665058" x2="283.978503654" y1="733.001699173" y2="707.330830402" /><line stroke="rgb(0%,0%,0%)" x1="292.989665058" x2="293.65213011" y1="733.001699173" y2="735.618045338" /><line stroke="rgb(0%,0%,0%)" x1="283.091280953" x2="283.782092511" y1="706.045927499" y2="706.888836995" /><line stroke="rgb(0%,0%,0%)" x1="283.782092511" x2="283.978503654" y1="706.888836995" y2="707.330830402" /><line stroke="rgb(0%,0%,0%)" x1="302.507090789" x2="305.660122932" y1="791.734754631" y2="797.566940099" /><line stroke="rgb(0%,0%,0%)" x1="301.210914708" x2="302.507090789" y1="788.22909986" y2="791.734754631" /><line stroke="rgb(0%,0%,0%)" x1="300.163276866" x2="301.210914708" y1="773.551186668" y2="788.22909986" /><line stroke="rgb(0%,0%,0%)" x1="229.165062124" x2="238.927682364" y1="667.149924566" y2="652.050251196" /><line stroke="rgb(0%,0%,0%)" x1="242.237158564" x2="238.927682364" y1="647.23557634" y2="652.050251196" /><line stroke="rgb(0%,0%,0%)" x1="249.740447104" x2="250.264423107" y1="642.833908589" y2="642.952570274" /><line stroke="rgb(0%,0%,0%)" x1="250.264423107" x2="253.255178005" y1="642.952570274" y2="647.326584731" /><line stroke="rgb(0%,0%,0%)" x1="245.81087735" x2="249.740447104" y1="644.892193179" y2="642.833908589" /><line stroke="rgb(0%,0%,0%)" x1="256.649114863" x2="253.255178005" y1="650.926730227" y2="647.326584731" /><line stroke="rgb(0%,0%,0%)" x1="261.203055427" x2="261.244851362" y1="676.385459644" y2="676.542268304" /><line stroke="rgb(0%,0%,0%)" x1="260.677773999" x2="261.203055427" y1="673.345434942" y2="676.385459644" /><line stroke="rgb(0%,0%,0%)" x1="261.244851362" x2="261.37818176" y1="676.542268304" y2="676.727905095" /><line stroke="rgb(0%,0%,0%)" x1="191.647231655" x2="192.03261351" y1="661.794038185" y2="663.140630814" /><line stroke="rgb(0%,0%,0%)" x1="191.647231655" x2="190.553072828" y1="661.794038185" y2="661.976971748" /><line stroke="rgb(0%,0%,0%)" x1="189.052346868" x2="189.9515712" y1="660.69806798" y2="661.018913987" /><line stroke="rgb(0%,0%,0%)" x1="188.383146017" x2="189.052346868" y1="660.052702283" y2="660.69806798" /><line stroke="rgb(0%,0%,0%)" x1="187.060318935" x2="188.383146017" y1="658.877986197" y2="660.052702283" /><line stroke="rgb(0%,0%,0%)" x1="186.594518902" x2="187.060318935" y1="658.637774865" y2="658.877986197" /><line stroke="rgb(0%,0%,0%)" x1="182.167310398" x2="186.594518902" y1="656.57101779" y2="658.637774865" /><line stroke="rgb(0%,0%,0%)" x1="195.033059304" x2="198.493090697" y1="664.655686889" y2="667.048662622" /><line stroke="rgb(0%,0%,0%)" x1="211.239884" x2="213.310073194" y1="675.167976345" y2="675.664453985" /><line stroke="rgb(0%,0%,0%)" x1="213.310073194" x2="216.103433032" y1="675.664453985" y2="676.051505578" /><line stroke="rgb(0%,0%,0%)" x1="216.103433032" x2="219.751697242" y1="676.051505578" y2="674.066109347" /><line stroke="rgb(0%,0%,0%)" x1="211.239884" x2="208.396373349" y1="675.167976345" y2="672.719350583" /><line stroke="rgb(0%,0%,0%)" x1="206.797254455" x2="208.396373349" y1="671.789470985" y2="672.719350583" /><line stroke="rgb(0%,0%,0%)" x1="205.991428397" x2="206.797254455" y1="671.091805599" y2="671.789470985" /><line stroke="rgb(0%,0%,0%)" x1="219.751697242" x2="222.912496799" y1="674.066109347" y2="673.226743633" /><line stroke="rgb(0%,0%,0%)" x1="222.912496799" x2="223.475399057" y1="673.226743633" y2="673.094721463" /><line stroke="rgb(0%,0%,0%)" x1="223.475399057" x2="224.106281138" y1="673.094721463" y2="672.301241866" /><line stroke="rgb(0%,0%,0%)" x1="224.106281138" x2="228.058127006" y1="672.301241866" y2="668.124181699" /><line stroke="rgb(0%,0%,0%)" x1="228.058127006" x2="229.165062124" y1="668.124181699" y2="667.149924566" /><line stroke="rgb(0%,0%,0%)" x1="166.744893498" x2="163.512107347" y1="648.359280337" y2="647.095975582" /><line stroke="rgb(0%,0%,0%)" x1="166.744893498" x2="168.479053827" y1="648.359280337" y2="648.852497669" /><line stroke="rgb(0%,0%,0%)" x1="175.483694554" x2="176.053829045" y1="652.325409244" y2="652.716456902" /><line stroke="rgb(0%,0%,0%)" x1="172.771564733" x2="175.483694554" y1="650.519958466" y2="652.325409244" /><line stroke="rgb(0%,0%,0%)" x1="171.854656214" x2="172.771564733" y1="649.890550917" y2="650.519958466" /><line stroke="rgb(0%,0%,0%)" x1="168.479053827" x2="171.854656214" y1="648.852497669" y2="649.890550917" /><line stroke="rgb(0%,0%,0%)" x1="178.683903923" x2="176.475731801" y1="654.358117076" y2="652.913996501" /><line stroke="rgb(0%,0%,0%)" x1="176.240876514" x2="176.475731801" y1="652.779447012" y2="652.913996501" /><line stroke="rgb(0%,0%,0%)" x1="176.053829045" x2="176.240876514" y1="652.716456902" y2="652.779447012" /><line stroke="rgb(0%,0%,0%)" x1="205.991428397" x2="199.143336635" y1="671.091805599" y2="667.522435463" /><line stroke="rgb(0%,0%,0%)" x1="198.493090697" x2="198.824758154" y1="667.048662622" y2="667.249480745" /><line stroke="rgb(0%,0%,0%)" x1="194.67618277" x2="195.033059304" y1="664.072938925" y2="664.655686889" /><line stroke="rgb(0%,0%,0%)" x1="194.67618277" x2="193.298548199" y1="664.072938925" y2="663.702048608" /><line stroke="rgb(0%,0%,0%)" x1="192.03261351" x2="193.298548199" y1="663.140630814" y2="663.702048608" /><line stroke="rgb(0%,0%,0%)" x1="189.9515712" x2="190.553072828" y1="661.018913987" y2="661.976971748" /><line stroke="rgb(0%,0%,0%)" x1="198.824758154" x2="199.143336635" y1="667.249480745" y2="667.522435463" /><line stroke="rgb(0%,0%,0%)" x1="128.335598715" x2="130.165033425" y1="630.293043346" y2="630.674250855" /><line stroke="rgb(0%,0%,0%)" x1="115.879556671" x2="128.335598715" y1="625.400360967" y2="630.293043346" /><line stroke="rgb(0%,0%,0%)" x1="115.879556671" x2="111.341036371" y1="625.400360967" y2="624.122585215" /><line stroke="rgb(0%,0%,0%)" x1="141.740086692" x2="146.512930406" y1="636.148215373" y2="638.283017024" /><line stroke="rgb(0%,0%,0%)" x1="130.165033425" x2="141.740086692" y1="630.674250855" y2="636.148215373" /><line stroke="rgb(0%,0%,0%)" x1="151.061816218" x2="148.297536018" y1="640.324801591" y2="638.925127986" /><line stroke="rgb(0%,0%,0%)" x1="146.512930406" x2="147.334517951" y1="638.283017024" y2="638.583704746" /><line stroke="rgb(0%,0%,0%)" x1="155.183646925" x2="163.512107347" y1="642.195150683" y2="647.095975582" /><line stroke="rgb(0%,0%,0%)" x1="147.334517951" x2="148.297536018" y1="638.583704746" y2="638.925127986" /><line stroke="rgb(0%,0%,0%)" x1="155.183646925" x2="151.061816218" y1="642.195150683" y2="640.324801591" /><line stroke="rgb(0%,0%,0%)" x1="94.7008576553" x2="89.7540271595" y1="616.347517632" y2="614.866090569" /><line stroke="rgb(0%,0%,0%)" x1="89.7540271595" x2="86.514203637" y1="614.866090569" y2="613.144973867" /><line stroke="rgb(0%,0%,0%)" x1="86.514203637" x2="79.9175408182" y1="613.144973867" y2="611.087935388" /><line stroke="rgb(0%,0%,0%)" x1="102.120397252" x2="111.341036371" y1="620.54860385" y2="624.122585215" /><line stroke="rgb(0%,0%,0%)" x1="94.7008576553" x2="102.120397252" y1="616.347517632" y2="620.54860385" /><line stroke="rgb(0%,0%,0%)" x1="38.173786369" x2="37.1101069646" y1="486.294335891" y2="485.529368971" /><line stroke="rgb(0%,0%,0%)" x1="38.3099624492" x2="38.173786369" y1="486.445476751" y2="486.294335891" /><line stroke="rgb(0%,0%,0%)" x1="38.3099624492" x2="38.6868407196" y1="486.445476751" y2="486.796762964" /><line stroke="rgb(0%,0%,0%)" x1="59.6717676143" x2="58.3120890936" y1="593.1532603" y2="592.474465832" /><line stroke="rgb(0%,0%,0%)" x1="58.5435221378" x2="63.4607168978" y1="593.490251867" y2="599.102307492" /><line stroke="rgb(0%,0%,0%)" x1="58.3120890936" x2="58.5435221378" y1="592.474465832" y2="593.490251867" /><line stroke="rgb(0%,0%,0%)" x1="50.7159182875" x2="56.7170733134" y1="584.012467975" y2="588.806517894" /><line stroke="rgb(0%,0%,0%)" x1="45.1100486049" x2="50.7159182875" y1="578.650026556" y2="584.012467975" /><line stroke="rgb(0%,0%,0%)" x1="65.6275292538" x2="63.4607168978" y1="601.801559651" y2="599.102307492" /><line stroke="rgb(0%,0%,0%)" x1="65.6275292538" x2="67.8425167033" y1="601.801559651" y2="603.526816612" /><line stroke="rgb(0%,0%,0%)" x1="60.3917036518" x2="59.6717676143" y1="591.312141734" y2="593.1532603" /><line stroke="rgb(0%,0%,0%)" x1="56.7170733134" x2="60.3917036518" y1="588.806517894" y2="591.312141734" /><line stroke="rgb(0%,0%,0%)" x1="76.6291610516" x2="79.9175408182" y1="609.803866516" y2="611.087935388" /><line stroke="rgb(0%,0%,0%)" x1="67.8425167033" x2="76.6291610516" y1="603.526816612" y2="609.803866516" /><line stroke="rgb(0%,0%,0%)" x1="15.7412385966" x2="16.1571847486" y1="460.608197538" y2="461.903253872" /><line stroke="rgb(0%,0%,0%)" x1="16.1571847486" x2="17.2413354536" y1="461.903253872" y2="467.491375186" /><line stroke="rgb(0%,0%,0%)" x1="19.3221331992" x2="17.2413354536" y1="470.548922148" y2="467.491375186" /><line stroke="rgb(0%,0%,0%)" x1="22.5138118291" x2="28.5028060438" y1="475.552358434" y2="479.142924319" /><line stroke="rgb(0%,0%,0%)" x1="28.5028060438" x2="31.1567869383" y1="479.142924319" y2="481.146479538" /><line stroke="rgb(0%,0%,0%)" x1="22.5138118291" x2="22.0515685059" y1="475.552358434" y2="475.126561096" /><line stroke="rgb(0%,0%,0%)" x1="19.3221331992" x2="22.0515685059" y1="470.548922148" y2="475.126561096" /><line stroke="rgb(0%,0%,0%)" x1="39.1789657515" x2="38.2753077004" y1="570.380781135" y2="568.728106475" /><line stroke="rgb(0%,0%,0%)" x1="39.1789657515" x2="45.1100486049" y1="570.380781135" y2="578.650026556" /><line stroke="rgb(0%,0%,0%)" x1="37.3770235415" x2="38.2753077004" y1="564.159718534" y2="568.728106475" /><line stroke="rgb(0%,0%,0%)" x1="36.4040174566" x2="37.3770235415" y1="560.880349833" y2="564.159718534" /><line stroke="rgb(0%,0%,0%)" x1="37.32602862" x2="36.4040174566" y1="557.803533004" y2="560.880349833" /><line stroke="rgb(0%,0%,0%)" x1="39.5061948134" x2="37.32602862" y1="552.653322399" y2="557.803533004" /><line stroke="rgb(0%,0%,0%)" x1="40.0599605104" x2="39.5061948134" y1="548.582626571" y2="552.653322399" /><line stroke="rgb(0%,0%,0%)" x1="40.0599605104" x2="40.1495616991" y1="548.582626571" y2="545.876460391" /><line stroke="rgb(0%,0%,0%)" x1="39.842223327" x2="40.1495616991" y1="544.509422998" y2="545.876460391" /><line stroke="rgb(0%,0%,0%)" x1="39.7527641197" x2="39.842223327" y1="543.438422671" y2="544.509422998" /><line stroke="rgb(0%,0%,0%)" x1="39.7527641197" x2="37.7131035362" y1="543.438422671" y2="539.159578273" /><line stroke="rgb(0%,0%,0%)" x1="37.1888550716" x2="37.7131035362" y1="538.596348609" y2="539.159578273" /><line stroke="rgb(0%,0%,0%)" x1="37.1607144421" x2="37.1888550716" y1="538.326222478" y2="538.596348609" /><line stroke="rgb(0%,0%,0%)" x1="37.5984168856" x2="37.2920971145" y1="532.684413075" y2="537.972352922" /><line stroke="rgb(0%,0%,0%)" x1="37.2920971145" x2="37.1607144421" y1="537.972352922" y2="538.326222478" /><line stroke="rgb(0%,0%,0%)" x1="39.8170145894" x2="39.6753887294" y1="525.964454593" y2="529.88909972" /><line stroke="rgb(0%,0%,0%)" x1="39.6753887294" x2="37.5984168856" y1="529.88909972" y2="532.684413075" /><line stroke="rgb(0%,0%,0%)" x1="40.8333884719" x2="39.8170145894" y1="522.313483352" y2="525.964454593" /><line stroke="rgb(0%,0%,0%)" x1="40.8333884719" x2="43.6970854132" y1="522.313483352" y2="512.286904106" /><line stroke="rgb(0%,0%,0%)" x1="38.6868407196" x2="43.6077002942" y1="486.796762964" y2="491.500641891" /><line stroke="rgb(0%,0%,0%)" x1="43.6077002942" x2="43.8568736266" y1="491.500641891" y2="491.74009944" /><line stroke="rgb(0%,0%,0%)" x1="31.1567869383" x2="37.1101069646" y1="481.146479538" y2="485.529368971" /><line stroke="rgb(0%,0%,0%)" x1="43.8293960046" x2="43.6970854132" y1="511.421600378" y2="512.286904106" /><line stroke="rgb(0%,0%,0%)" x1="43.9836862955" x2="43.8293960046" y1="510.464605771" y2="511.421600378" /><line stroke="rgb(0%,0%,0%)" x1="43.9836862955" x2="46.3193670318" y1="510.464605771" y2="502.108154128" /><line stroke="rgb(0%,0%,0%)" x1="45.6553522408" x2="46.3193670318" y1="498.235936584" y2="502.108154128" /><line stroke="rgb(0%,0%,0%)" x1="45.6127200494" x2="45.6553522408" y1="495.256686119" y2="498.235936584" /><line stroke="rgb(0%,0%,0%)" x1="45.6127200494" x2="43.9311231445" y1="495.256686119" y2="491.833924135" /><line stroke="rgb(0%,0%,0%)" x1="43.9029766315" x2="43.9311231445" y1="491.789574547" y2="491.833924135" /><line stroke="rgb(0%,0%,0%)" x1="43.8817308037" x2="43.9029766315" y1="491.777487119" y2="491.789574547" /><line stroke="rgb(0%,0%,0%)" x1="43.8568736266" x2="43.8817308037" y1="491.74009944" y2="491.777487119" /><line stroke="rgb(0%,0%,0%)" x1="514.880560969" x2="507.215409564" y1="530.763540664" y2="542.043794943" /><line stroke="rgb(0%,0%,0%)" x1="520.081750482" x2="519.314688468" y1="522.636574628" y2="524.356469622" /><line stroke="rgb(0%,0%,0%)" x1="523.39697079" x2="527.975741791" y1="514.222511374" y2="502.927066287" /><line stroke="rgb(0%,0%,0%)" x1="520.081750482" x2="523.39697079" y1="522.636574628" y2="514.222511374" /><line stroke="rgb(0%,0%,0%)" x1="527.975741791" x2="528.735179655" y1="502.927066287" y2="501.320960649" /><line stroke="rgb(0%,0%,0%)" x1="528.735179655" x2="530.258366046" y1="501.320960649" y2="496.626623934" /><line stroke="rgb(0%,0%,0%)" x1="535.166391343" x2="530.258366046" y1="481.128789125" y2="496.626623934" /><line stroke="rgb(0%,0%,0%)" x1="535.166391343" x2="535.448812912" y1="481.128789125" y2="477.748980541" /><line stroke="rgb(0%,0%,0%)" x1="539.031646037" x2="538.796679665" y1="468.8683894" y2="469.613364652" /><line stroke="rgb(0%,0%,0%)" x1="535.448812912" x2="538.796679665" y1="477.748980541" y2="469.613364652" /><line stroke="rgb(0%,0%,0%)" x1="539.031646037" x2="539.217299254" y1="468.8683894" y2="468.146218244" /><line stroke="rgb(0%,0%,0%)" x1="539.217299254" x2="539.818568324" y1="468.146218244" y2="462.363726806" /><line stroke="rgb(0%,0%,0%)" x1="539.818568324" x2="540.001058698" y1="462.363726806" y2="461.4148129" /><line stroke="rgb(0%,0%,0%)" x1="540.001058698" x2="539.898221111" y1="461.4148129" y2="460.758017907" /><line stroke="rgb(0%,0%,0%)" x1="475.719234136" x2="467.410960469" y1="590.200462521" y2="596.898682297" /><line stroke="rgb(0%,0%,0%)" x1="476.493474327" x2="477.984068829" y1="589.060154241" y2="587.818156743" /><line stroke="rgb(0%,0%,0%)" x1="477.984068829" x2="488.728541446" y1="587.818156743" y2="574.921632694" /><line stroke="rgb(0%,0%,0%)" x1="488.728541446" x2="490.437404032" y1="574.921632694" y2="572.506793747" /><line stroke="rgb(0%,0%,0%)" x1="490.437404032" x2="491.293091122" y1="572.506793747" y2="570.905182285" /><line stroke="rgb(0%,0%,0%)" x1="493.381197038" x2="491.293091122" y1="564.77114787" y2="570.905182285" /><line stroke="rgb(0%,0%,0%)" x1="493.381197038" x2="496.261795252" y1="564.77114787" y2="559.986538555" /><line stroke="rgb(0%,0%,0%)" x1="499.306813939" x2="496.261795252" y1="554.36760328" y2="559.986538555" /><line stroke="rgb(0%,0%,0%)" x1="499.306813939" x2="503.332474209" y1="554.36760328" y2="548.483437585" /><line stroke="rgb(0%,0%,0%)" x1="503.332474209" x2="506.202834766" y1="548.483437585" y2="543.831175803" /><line stroke="rgb(0%,0%,0%)" x1="506.202834766" x2="507.215409564" y1="543.831175803" y2="542.043794943" /><line stroke="rgb(0%,0%,0%)" x1="514.880560969" x2="519.314688468" y1="530.763540664" y2="524.356469622" /><line stroke="rgb(0%,0%,0%)" x1="421.538088044" x2="424.909225008" y1="634.63410787" y2="631.97482026" /><line stroke="rgb(0%,0%,0%)" x1="429.241088098" x2="424.909225008" y1="628.883218928" y2="631.97482026" /><line stroke="rgb(0%,0%,0%)" x1="429.241088098" x2="436.65116266" y1="628.883218928" y2="623.984171437" /><line stroke="rgb(0%,0%,0%)" x1="439.693141333" x2="436.65116266" y1="622.072328668" y2="623.984171437" /><line stroke="rgb(0%,0%,0%)" x1="439.693141333" x2="444.730791226" y1="622.072328668" y2="618.017520865" /><line stroke="rgb(0%,0%,0%)" x1="444.730791226" x2="450.462652008" y1="618.017520865" y2="613.876611707" /><line stroke="rgb(0%,0%,0%)" x1="450.462652008" x2="450.926861231" y1="613.876611707" y2="613.473355919" /><line stroke="rgb(0%,0%,0%)" x1="450.926861231" x2="451.496308021" y1="613.473355919" y2="612.983358178" /><line stroke="rgb(0%,0%,0%)" x1="466.357648718" x2="467.078461414" y1="597.805622555" y2="597.246848547" /><line stroke="rgb(0%,0%,0%)" x1="466.357648718" x2="451.496308021" y1="597.805622555" y2="612.983358178" /><line stroke="rgb(0%,0%,0%)" x1="467.078461414" x2="467.410960469" y1="597.246848547" y2="596.898682297" /><line stroke="rgb(0%,0%,0%)" x1="475.719234136" x2="476.493474327" y1="590.200462521" y2="589.060154241" /><line stroke="rgb(0%,0%,0%)" x1="182.167310398" x2="181.527318786" y1="656.57101779" y2="656.220303321" /><line stroke="rgb(0%,0%,0%)" x1="181.527318786" x2="180.723249508" y1="656.220303321" y2="656.555704117" /><line stroke="rgb(0%,0%,0%)" x1="178.683903923" x2="179.482485948" y1="654.358117076" y2="655.472452233" /><line stroke="rgb(0%,0%,0%)" x1="179.482485948" x2="180.723249508" y1="655.472452233" y2="656.555704117" /></svg>