<?xml version="1.0" encoding="utf-8" ?>
<svg baseProfile="full" height="100%" version="1.1" viewBox="0.5 0.5 685.793960571 941.299331665" width="100%" xmlns="http://www.w3.org/2000/svg" xmlns:ev="http://www.w3.org/2001/xml-events" xmlns:xlink="http://www.w3.org/1999/xlink"><defs /><line stroke="rgb(0%,0%,0%)" x1="513.251324816" x2="512.847099503" y1="392.752375575" y2="390.60532628" /><line stroke="rgb(0%,0%,0%)" x1="514.931614096" x2="515.309076088" y1="395.660169311" y2="397.571175502" /><line stroke="rgb(0%,0%,0%)" x1="513.251324816" x2="514.931614096" y1="392.752375575" y2="395.660169311" /><line stroke="rgb(0%,0%,0%)" x1="536.836110461" x2="536.060702871" y1="456.629674322" y2="453.200185394" /><line stroke="rgb(0%,0%,0%)" x1="536.060702871" x2="536.218211624" y1="453.200185394" y2="446.005366163" /><line stroke="rgb(0%,0%,0%)" x1="536.218211624" x2="536.16269453" y1="446.005366163" y2="443.123055412" /><line stroke="rgb(0%,0%,0%)" x1="527.003746286" x2="526.843696131" y1="415.747362946" y2="415.470627616" /><line stroke="rgb(0%,0%,0%)" x1="526.843696131" x2="517.373208636" y1="415.470627616" y2="400.137217821" /><line stroke="rgb(0%,0%,0%)" x1="536.523426266" x2="536.836110461" y1="460.984395302" y2="456.629674322" /><line stroke="rgb(0%,0%,0%)" x1="536.16269453" x2="534.011739268" y1="443.123055412" y2="433.852494689" /><line stroke="rgb(0%,0%,0%)" x1="534.011739268" x2="530.548747762" y1="433.852494689" y2="426.631892587" /><line stroke="rgb(0%,0%,0%)" x1="530.548747762" x2="527.003746286" y1="426.631892587" y2="415.747362946" /><line stroke="rgb(0%,0%,0%)" x1="517.373208636" x2="515.309076088" y1="400.137217821" y2="397.571175502" /><line stroke="rgb(0%,0%,0%)" x1="391.83747208" x2="392.197231439" y1="256.543267556" y2="256.875867291" /><line stroke="rgb(0%,0%,0%)" x1="411.305486464" x2="412.919615856" y1="268.298727966" y2="268.999439066" /><line stroke="rgb(0%,0%,0%)" x1="411.305486464" x2="407.285087612" y1="268.298727966" y2="266.866448648" /><line stroke="rgb(0%,0%,0%)" x1="407.285087612" x2="401.148557209" y1="266.866448648" y2="264.242530239" /><line stroke="rgb(0%,0%,0%)" x1="401.148557209" x2="398.901050861" y1="264.242530239" y2="262.44107153" /><line stroke="rgb(0%,0%,0%)" x1="420.260527003" x2="420.990095832" y1="274.753586319" y2="275.816593922" /><line stroke="rgb(0%,0%,0%)" x1="420.260527003" x2="412.919615856" y1="274.753586319" y2="268.999439066" /><line stroke="rgb(0%,0%,0%)" x1="364.23339689" x2="362.630789138" y1="231.967528895" y2="223.548230394" /><line stroke="rgb(0%,0%,0%)" x1="365.850469868" x2="363.193501401" y1="202.918324427" y2="220.984769188" /><line stroke="rgb(0%,0%,0%)" x1="365.850469868" x2="366.122417171" y1="202.918324427" y2="199.014816866" /><line stroke="rgb(0%,0%,0%)" x1="361.7899628" x2="363.292965263" y1="179.16265111" y2="185.470141158" /><line stroke="rgb(0%,0%,0%)" x1="361.7899628" x2="358.971581835" y1="179.16265111" y2="170.902312099" /><line stroke="rgb(0%,0%,0%)" x1="378.78331438" x2="376.437121286" y1="250.156232387" y2="248.0393448" /><line stroke="rgb(0%,0%,0%)" x1="382.654080975" x2="378.78331438" y1="252.035812178" y2="250.156232387" /><line stroke="rgb(0%,0%,0%)" x1="376.437121286" x2="374.190731676" y1="248.0393448" y2="246.6449163" /><line stroke="rgb(0%,0%,0%)" x1="374.190731676" x2="372.495538565" y1="246.6449163" y2="245.335552058" /><line stroke="rgb(0%,0%,0%)" x1="371.98432332" x2="372.495538565" y1="244.918533837" y2="245.335552058" /><line stroke="rgb(0%,0%,0%)" x1="371.98432332" x2="371.416312772" y1="244.918533837" y2="244.015312529" /><line stroke="rgb(0%,0%,0%)" x1="391.83747208" x2="382.654080975" y1="256.543267556" y2="252.035812178" /><line stroke="rgb(0%,0%,0%)" x1="398.901050861" x2="392.197231439" y1="262.44107153" y2="256.875867291" /><line stroke="rgb(0%,0%,0%)" x1="301.611986723" x2="304.013217607" y1="123.4887839" y2="122.570507585" /><line stroke="rgb(0%,0%,0%)" x1="316.789782307" x2="319.900729503" y1="114.102075117" y2="113.84250853" /><line stroke="rgb(0%,0%,0%)" x1="316.789782307" x2="312.947710102" y1="114.102075117" y2="116.070700016" /><line stroke="rgb(0%,0%,0%)" x1="329.077342313" x2="333.601468171" y1="115.570427615" y2="119.377623225" /><line stroke="rgb(0%,0%,0%)" x1="335.837044026" x2="333.601468171" y1="121.387160755" y2="119.377623225" /><line stroke="rgb(0%,0%,0%)" x1="346.72611006" x2="353.382770294" y1="134.078691715" y2="144.765179648" /><line stroke="rgb(0%,0%,0%)" x1="346.72611006" x2="339.917357432" y1="134.078691715" y2="125.909788364" /><line stroke="rgb(0%,0%,0%)" x1="366.37196459" x2="364.23339689" y1="237.198937428" y2="231.967528895" /><line stroke="rgb(0%,0%,0%)" x1="362.630789138" x2="363.193501401" y1="223.548230394" y2="220.984769188" /><line stroke="rgb(0%,0%,0%)" x1="365.453542132" x2="363.292965263" y1="193.997109686" y2="185.470141158" /><line stroke="rgb(0%,0%,0%)" x1="366.122417171" x2="365.453542132" y1="199.014816866" y2="193.997109686" /><line stroke="rgb(0%,0%,0%)" x1="358.971581835" x2="357.924736509" y1="170.902312099" y2="164.102875217" /><line stroke="rgb(0%,0%,0%)" x1="357.924736509" x2="355.19016965" y1="164.102875217" y2="150.699813644" /><line stroke="rgb(0%,0%,0%)" x1="355.19016965" x2="354.338636368" y1="150.699813644" y2="146.763955085" /><line stroke="rgb(0%,0%,0%)" x1="354.338636368" x2="353.382770294" y1="146.763955085" y2="144.765179648" /><line stroke="rgb(0%,0%,0%)" x1="371.416312772" x2="366.37196459" y1="244.015312529" y2="237.198937428" /><line stroke="rgb(0%,0%,0%)" x1="293.12671423" x2="297.118248313" y1="209.726245258" y2="206.085018401" /><line stroke="rgb(0%,0%,0%)" x1="293.12671423" x2="288.506731609" y1="209.726245258" y2="215.895625408" /><line stroke="rgb(0%,0%,0%)" x1="293.727893665" x2="294.240741867" y1="180.93779844" y2="182.229678891" /><line stroke="rgb(0%,0%,0%)" x1="293.427417678" x2="293.727893665" y1="179.671077218" y2="180.93779844" /><line stroke="rgb(0%,0%,0%)" x1="293.518827543" x2="293.241079665" y1="163.300320034" y2="162.136635725" /><line stroke="rgb(0%,0%,0%)" x1="293.241079665" x2="291.726818752" y1="162.136635725" y2="155.894823397" /><line stroke="rgb(0%,0%,0%)" x1="288.330171124" x2="288.840837207" y1="141.945494736" y2="145.449196836" /><line stroke="rgb(0%,0%,0%)" x1="297.708068378" x2="299.530725563" y1="203.880772155" y2="197.374077285" /><line stroke="rgb(0%,0%,0%)" x1="297.708068378" x2="297.118248313" y1="203.880772155" y2="206.085018401" /><line stroke="rgb(0%,0%,0%)" x1="294.753337021" x2="299.174847975" y1="186.924749046" y2="195.450722222" /><line stroke="rgb(0%,0%,0%)" x1="294.240741867" x2="294.753337021" y1="182.229678891" y2="186.924749046" /><line stroke="rgb(0%,0%,0%)" x1="301.611986723" x2="299.202189668" y1="123.4887839" y2="125.500057759" /><line stroke="rgb(0%,0%,0%)" x1="304.013217607" x2="306.75833536" y1="122.570507585" y2="120.24767109" /><line stroke="rgb(0%,0%,0%)" x1="312.947710102" x2="310.239842432" y1="116.070700016" y2="117.471280179" /><line stroke="rgb(0%,0%,0%)" x1="329.077342313" x2="319.900729503" y1="115.570427615" y2="113.84250853" /><line stroke="rgb(0%,0%,0%)" x1="337.663630211" x2="335.837044026" y1="123.229085824" y2="121.387160755" /><line stroke="rgb(0%,0%,0%)" x1="339.917357432" x2="337.663630211" y1="125.909788364" y2="123.229085824" /><line stroke="rgb(0%,0%,0%)" x1="270.328476748" x2="264.723682034" y1="235.976866581" y2="246.258238576" /><line stroke="rgb(0%,0%,0%)" x1="288.506731609" x2="281.957773984" y1="215.895625408" y2="221.916934255" /><line stroke="rgb(0%,0%,0%)" x1="281.957773984" x2="270.328476748" y1="221.916934255" y2="235.976866581" /><line stroke="rgb(0%,0%,0%)" x1="293.518827543" x2="293.638279285" y1="163.300320034" y2="165.514167277" /><line stroke="rgb(0%,0%,0%)" x1="290.495400299" x2="291.726818752" y1="148.912510704" y2="155.894823397" /><line stroke="rgb(0%,0%,0%)" x1="288.840837207" x2="290.495400299" y1="145.449196836" y2="148.912510704" /><line stroke="rgb(0%,0%,0%)" x1="288.65560947" x2="288.330171124" y1="137.892953372" y2="141.945494736" /><line stroke="rgb(0%,0%,0%)" x1="288.65560947" x2="290.679993525" y1="137.892953372" y2="134.274054443" /><line stroke="rgb(0%,0%,0%)" x1="299.174847975" x2="299.530725563" y1="195.450722222" y2="197.374077285" /><line stroke="rgb(0%,0%,0%)" x1="292.877239112" x2="293.427417678" y1="169.276585947" y2="179.671077218" /><line stroke="rgb(0%,0%,0%)" x1="293.638279285" x2="292.877239112" y1="165.514167277" y2="169.276585947" /><line stroke="rgb(0%,0%,0%)" x1="292.902707878" x2="290.679993525" y1="130.901118083" y2="134.274054443" /><line stroke="rgb(0%,0%,0%)" x1="299.202189668" x2="296.279953677" y1="125.500057759" y2="127.887390402" /><line stroke="rgb(0%,0%,0%)" x1="292.902707878" x2="296.279953677" y1="130.901118083" y2="127.887390402" /><line stroke="rgb(0%,0%,0%)" x1="310.239842432" x2="306.75833536" y1="117.471280179" y2="120.24767109" /><line stroke="rgb(0%,0%,0%)" x1="247.169627221" x2="245.097572285" y1="270.621754895" y2="270.196715056" /><line stroke="rgb(0%,0%,0%)" x1="245.097572285" x2="241.388400089" y1="270.196715056" y2="269.507862461" /><line stroke="rgb(0%,0%,0%)" x1="238.722849288" x2="241.388400089" y1="266.804787978" y2="269.507862461" /><line stroke="rgb(0%,0%,0%)" x1="247.169627221" x2="248.192979504" y1="270.621754895" y2="270.141734651" /><line stroke="rgb(0%,0%,0%)" x1="254.261262316" x2="248.192979504" y1="263.272607677" y2="270.141734651" /><line stroke="rgb(0%,0%,0%)" x1="254.261262316" x2="256.054818473" y1="263.272607677" y2="260.302723274" /><line stroke="rgb(0%,0%,0%)" x1="264.723682034" x2="256.054818473" y1="246.258238576" y2="260.302723274" /><line stroke="rgb(0%,0%,0%)" x1="192.603412432" x2="192.209212208" y1="261.754698884" y2="261.821639833" /><line stroke="rgb(0%,0%,0%)" x1="192.603412432" x2="192.84387223" y1="261.754698884" y2="261.556391183" /><line stroke="rgb(0%,0%,0%)" x1="196.288084216" x2="196.209918897" y1="258.980790473" y2="259.015409897" /><line stroke="rgb(0%,0%,0%)" x1="196.288084216" x2="196.445042426" y1="258.980790473" y2="258.840214759" /><line stroke="rgb(0%,0%,0%)" x1="201.90991294" x2="200.093140748" y1="254.726494104" y2="256.112922" /><line stroke="rgb(0%,0%,0%)" x1="212.328856218" x2="207.024526513" y1="245.430482246" y2="248.740500704" /><line stroke="rgb(0%,0%,0%)" x1="226.523894765" x2="228.073348272" y1="247.5357102" y2="249.741368784" /><line stroke="rgb(0%,0%,0%)" x1="226.523894765" x2="225.870391444" y1="247.5357102" y2="247.233140861" /><line stroke="rgb(0%,0%,0%)" x1="222.251979553" x2="217.689021393" y1="244.451583958" y2="243.59073618" /><line stroke="rgb(0%,0%,0%)" x1="225.870391444" x2="222.251979553" y1="247.233140861" y2="244.451583958" /><line stroke="rgb(0%,0%,0%)" x1="217.689021393" x2="215.715052235" y1="243.59073618" y2="243.072774183" /><line stroke="rgb(0%,0%,0%)" x1="238.722849288" x2="236.001167729" y1="266.804787978" y2="262.429692795" /><line stroke="rgb(0%,0%,0%)" x1="236.001167729" x2="234.999966725" y1="262.429692795" y2="260.473048921" /><line stroke="rgb(0%,0%,0%)" x1="231.455506957" x2="234.132923418" y1="253.875715619" y2="259.631392848" /><line stroke="rgb(0%,0%,0%)" x1="234.999966725" x2="234.132923418" y1="260.473048921" y2="259.631392848" /><line stroke="rgb(0%,0%,0%)" x1="231.455506957" x2="228.073348272" y1="253.875715619" y2="249.741368784" /><line stroke="rgb(0%,0%,0%)" x1="171.479018242" x2="176.118857394" y1="271.124324495" y2="270.907758363" /><line stroke="rgb(0%,0%,0%)" x1="187.365914224" x2="184.985086693" y1="264.570355674" y2="265.779096935" /><line stroke="rgb(0%,0%,0%)" x1="187.863232598" x2="187.365914224" y1="264.389612814" y2="264.570355674" /><line stroke="rgb(0%,0%,0%)" x1="190.443867517" x2="189.379888629" y1="263.265928734" y2="263.644996572" /><line stroke="rgb(0%,0%,0%)" x1="187.863232598" x2="189.379888629" y1="264.389612814" y2="263.644996572" /><line stroke="rgb(0%,0%,0%)" x1="192.209212208" x2="191.394674096" y1="261.821639833" y2="262.476090638" /><line stroke="rgb(0%,0%,0%)" x1="191.394674096" x2="190.443867517" y1="262.476090638" y2="263.265928734" /><line stroke="rgb(0%,0%,0%)" x1="195.637162135" x2="192.84387223" y1="260.367239761" y2="261.556391183" /><line stroke="rgb(0%,0%,0%)" x1="196.209918897" x2="195.637162135" y1="259.015409897" y2="260.367239761" /><line stroke="rgb(0%,0%,0%)" x1="199.009522822" x2="196.445042426" y1="257.312079363" y2="258.840214759" /><line stroke="rgb(0%,0%,0%)" x1="200.093140748" x2="199.009522822" y1="256.112922" y2="257.312079363" /><line stroke="rgb(0%,0%,0%)" x1="204.120601336" x2="201.90991294" y1="252.538567198" y2="254.726494104" /><line stroke="rgb(0%,0%,0%)" x1="204.120601336" x2="206.821241273" y1="252.538567198" y2="249.20533563" /><line stroke="rgb(0%,0%,0%)" x1="207.024526513" x2="206.821241273" y1="248.740500704" y2="249.20533563" /><line stroke="rgb(0%,0%,0%)" x1="214.748008818" x2="212.328856218" y1="243.629314023" y2="245.430482246" /><line stroke="rgb(0%,0%,0%)" x1="215.715052235" x2="214.748008818" y1="243.072774183" y2="243.629314023" /><line stroke="rgb(0%,0%,0%)" x1="146.713952901" x2="136.519720156" y1="282.608914636" y2="286.319714059" /><line stroke="rgb(0%,0%,0%)" x1="152.17560452" x2="146.713952901" y1="280.01211989" y2="282.608914636" /><line stroke="rgb(0%,0%,0%)" x1="152.17560452" x2="154.210273627" y1="280.01211989" y2="279.020394295" /><line stroke="rgb(0%,0%,0%)" x1="160.505976012" x2="154.210273627" y1="275.647138356" y2="279.020394295" /><line stroke="rgb(0%,0%,0%)" x1="169.132594108" x2="160.505976012" y1="271.694098221" y2="275.647138356" /><line stroke="rgb(0%,0%,0%)" x1="169.132594108" x2="171.479018242" y1="271.694098221" y2="271.124324495" /><line stroke="rgb(0%,0%,0%)" x1="177.273080158" x2="176.118857394" y1="270.861032246" y2="270.907758363" /><line stroke="rgb(0%,0%,0%)" x1="177.330491322" x2="177.273080158" y1="270.846821551" y2="270.861032246" /><line stroke="rgb(0%,0%,0%)" x1="177.408663852" x2="177.330491322" y1="270.852847149" y2="270.846821551" /><line stroke="rgb(0%,0%,0%)" x1="182.843429393" x2="177.408663852" y1="267.448620617" y2="270.852847149" /><line stroke="rgb(0%,0%,0%)" x1="183.591142171" x2="182.843429393" y1="266.912695621" y2="267.448620617" /><line stroke="rgb(0%,0%,0%)" x1="184.985086693" x2="183.591142171" y1="265.779096935" y2="266.912695621" /><line stroke="rgb(0%,0%,0%)" x1="124.069322931" x2="120.764690455" y1="290.865838765" y2="293.003786805" /><line stroke="rgb(0%,0%,0%)" x1="124.069322931" x2="126.077961718" y1="290.865838765" y2="290.039383981" /><line stroke="rgb(0%,0%,0%)" x1="120.764690455" x2="116.831973561" y1="293.003786805" y2="294.970346226" /><line stroke="rgb(0%,0%,0%)" x1="126.077961718" x2="127.954437318" y1="290.039383981" y2="289.634511421" /><line stroke="rgb(0%,0%,0%)" x1="131.333978197" x2="127.954437318" y1="288.216127309" y2="289.634511421" /><line stroke="rgb(0%,0%,0%)" x1="134.360049876" x2="131.333978197" y1="286.949940002" y2="288.216127309" /><line stroke="rgb(0%,0%,0%)" x1="136.519720156" x2="134.360049876" y1="286.319714059" y2="286.949940002" /><line stroke="rgb(0%,0%,0%)" x1="51.5188708564" x2="46.7544979396" y1="336.673714896" y2="339.658340679" /><line stroke="rgb(0%,0%,0%)" x1="88.5861255687" x2="93.7493098322" y1="310.619703524" y2="307.29897815" /><line stroke="rgb(0%,0%,0%)" x1="95.7844385622" x2="93.7493098322" y1="306.574538955" y2="307.29897815" /><line stroke="rgb(0%,0%,0%)" x1="106.660689014" x2="105.723376044" y1="299.265272581" y2="300.107282453" /><line stroke="rgb(0%,0%,0%)" x1="99.8017441336" x2="95.7844385622" y1="303.962490084" y2="306.574538955" /><line stroke="rgb(0%,0%,0%)" x1="99.8017441336" x2="105.723376044" y1="303.962490084" y2="300.107282453" /><line stroke="rgb(0%,0%,0%)" x1="107.045263662" x2="106.660689014" y1="298.859585061" y2="299.265272581" /><line stroke="rgb(0%,0%,0%)" x1="113.644948305" x2="107.045263662" y1="296.432490587" y2="298.859585061" /><line stroke="rgb(0%,0%,0%)" x1="116.831973561" x2="113.644948305" y1="294.970346226" y2="296.432490587" /><line stroke="rgb(0%,0%,0%)" x1="47.5685571758" x2="47.692033765" y1="430.04006154" y2="429.266407708" /><line stroke="rgb(0%,0%,0%)" x1="44.9416400225" x2="46.7544979396" y1="341.934934209" y2="339.658340679" /><line stroke="rgb(0%,0%,0%)" x1="57.1378560838" x2="51.5188708564" y1="334.145278791" y2="336.673714896" /><line stroke="rgb(0%,0%,0%)" x1="57.1378560838" x2="67.1363765973" y1="334.145278791" y2="327.333635029" /><line stroke="rgb(0%,0%,0%)" x1="77.7084680985" x2="74.2649397041" y1="319.095762869" y2="321.67478292" /><line stroke="rgb(0%,0%,0%)" x1="74.2649397041" x2="67.1363765973" y1="321.67478292" y2="327.333635029" /><line stroke="rgb(0%,0%,0%)" x1="81.472626988" x2="77.7084680985" y1="315.452070183" y2="319.095762869" /><line stroke="rgb(0%,0%,0%)" x1="88.5861255687" x2="81.472626988" y1="310.619703524" y2="315.452070183" /><line stroke="rgb(0%,0%,0%)" x1="25.7331780653" x2="21.6062733193" y1="444.970281089" y2="449.838200869" /><line stroke="rgb(0%,0%,0%)" x1="28.5414362652" x2="25.7331780653" y1="442.868283362" y2="444.970281089" /><line stroke="rgb(0%,0%,0%)" x1="36.7091939296" x2="36.7919538282" y1="361.859507167" y2="362.840472635" /><line stroke="rgb(0%,0%,0%)" x1="37.3983762545" x2="28.5414362652" y1="437.809857529" y2="442.868283362" /><line stroke="rgb(0%,0%,0%)" x1="40.9815184578" x2="37.3983762545" y1="435.92547407" y2="437.809857529" /><line stroke="rgb(0%,0%,0%)" x1="41.5109150768" x2="40.9815184578" y1="435.125139012" y2="435.92547407" /><line stroke="rgb(0%,0%,0%)" x1="41.5109150768" x2="43.3597571414" y1="435.125139012" y2="434.068698189" /><line stroke="rgb(0%,0%,0%)" x1="42.3878240461" x2="38.2409986586" y1="411.359428352" y2="404.74402439" /><line stroke="rgb(0%,0%,0%)" x1="34.5631706792" x2="38.2409986586" y1="400.398000844" y2="404.74402439" /><line stroke="rgb(0%,0%,0%)" x1="34.5631706792" x2="33.2395713132" y1="400.398000844" y2="394.395049809" /><line stroke="rgb(0%,0%,0%)" x1="30.8414524394" x2="33.2395713132" y1="386.569754152" y2="394.395049809" /><line stroke="rgb(0%,0%,0%)" x1="30.8414524394" x2="30.9555435133" y1="386.569754152" y2="386.170096693" /><line stroke="rgb(0%,0%,0%)" x1="34.1216333622" x2="31.4389932057" y1="384.733354513" y2="384.347104538" /><line stroke="rgb(0%,0%,0%)" x1="31.4389932057" x2="30.9555435133" y1="384.347104538" y2="386.170096693" /><line stroke="rgb(0%,0%,0%)" x1="34.1112038117" x2="34.1216333622" y1="384.512544426" y2="384.733354513" /><line stroke="rgb(0%,0%,0%)" x1="34.1112038117" x2="34.1930205522" y1="384.512544426" y2="384.36423581" /><line stroke="rgb(0%,0%,0%)" x1="35.3434333432" x2="34.1930205522" y1="379.697657969" y2="384.36423581" /><line stroke="rgb(0%,0%,0%)" x1="35.3434333432" x2="36.6096213688" y1="379.697657969" y2="375.567689614" /><line stroke="rgb(0%,0%,0%)" x1="37.0366846431" x2="36.6096213688" y1="373.517267678" y2="375.567689614" /><line stroke="rgb(0%,0%,0%)" x1="36.1290334789" x2="37.0366846431" y1="369.327055634" y2="373.517267678" /><line stroke="rgb(0%,0%,0%)" x1="36.7919538282" x2="37.4460147059" y1="362.840472635" y2="362.297630425" /><line stroke="rgb(0%,0%,0%)" x1="36.1290334789" x2="37.4460147059" y1="369.327055634" y2="362.297630425" /><line stroke="rgb(0%,0%,0%)" x1="34.8476555174" x2="36.7091939296" y1="359.925182131" y2="361.859507167" /><line stroke="rgb(0%,0%,0%)" x1="36.6554207019" x2="34.8476555174" y1="354.160285585" y2="359.925182131" /><line stroke="rgb(0%,0%,0%)" x1="36.6445045896" x2="36.6554207019" y1="353.20410722" y2="354.160285585" /><line stroke="rgb(0%,0%,0%)" x1="44.9416400225" x2="36.6445045896" y1="341.934934209" y2="353.20410722" /><line stroke="rgb(0%,0%,0%)" x1="46.9101155069" x2="43.3597571414" y1="431.07136998" y2="434.068698189" /><line stroke="rgb(0%,0%,0%)" x1="47.5685571758" x2="46.9101155069" y1="430.04006154" y2="431.07136998" /><line stroke="rgb(0%,0%,0%)" x1="48.7172618585" x2="47.692033765" y1="426.397980423" y2="429.266407708" /><line stroke="rgb(0%,0%,0%)" x1="48.8653708018" x2="48.7172618585" y1="424.821054028" y2="426.397980423" /><line stroke="rgb(0%,0%,0%)" x1="48.8653708018" x2="46.5618451609" y1="424.821054028" y2="419.002636508" /><line stroke="rgb(0%,0%,0%)" x1="44.1105254396" x2="46.5618451609" y1="414.500223842" y2="419.002636508" /><line stroke="rgb(0%,0%,0%)" x1="42.3878240461" x2="44.1105254396" y1="411.359428352" y2="414.500223842" /><line stroke="rgb(0%,0%,0%)" x1="19.1484146231" x2="18.7137295175" y1="455.204698288" y2="461.161950693" /><line stroke="rgb(0%,0%,0%)" x1="19.7032018043" x2="19.1484146231" y1="452.487351301" y2="455.204698288" /><line stroke="rgb(0%,0%,0%)" x1="21.6062733193" x2="19.7032018043" y1="449.838200869" y2="452.487351301" /><line stroke="rgb(0%,0%,0%)" x1="505.541894834" x2="505.489177309" y1="377.768343458" y2="377.66880351" /><line stroke="rgb(0%,0%,0%)" x1="475.712940313" x2="482.053568889" y1="329.883649578" y2="338.39764456" /><line stroke="rgb(0%,0%,0%)" x1="493.014784592" x2="495.429727454" y1="358.403032164" y2="361.619348589" /><line stroke="rgb(0%,0%,0%)" x1="492.172482518" x2="493.014784592" y1="356.507318435" y2="358.403032164" /><line stroke="rgb(0%,0%,0%)" x1="492.172482518" x2="486.39875225" y1="356.507318435" y2="346.347021925" /><line stroke="rgb(0%,0%,0%)" x1="486.39875225" x2="483.307604103" y1="346.347021925" y2="340.69163623" /><line stroke="rgb(0%,0%,0%)" x1="505.541894834" x2="505.888378848" y1="377.768343458" y2="378.321118443" /><line stroke="rgb(0%,0%,0%)" x1="512.847099503" x2="505.888378848" y1="390.60532628" y2="378.321118443" /><line stroke="rgb(0%,0%,0%)" x1="505.489177309" x2="503.204762984" y1="377.66880351" y2="374.467971536" /><line stroke="rgb(0%,0%,0%)" x1="503.204762984" x2="501.002871648" y1="374.467971536" y2="370.419608802" /><line stroke="rgb(0%,0%,0%)" x1="432.054305792" x2="430.920799747" y1="286.022246871" y2="284.67414204" /><line stroke="rgb(0%,0%,0%)" x1="432.054305792" x2="435.249792923" y1="286.022246871" y2="288.692900474" /><line stroke="rgb(0%,0%,0%)" x1="451.959718539" x2="459.306556209" y1="304.674705533" y2="314.400650152" /><line stroke="rgb(0%,0%,0%)" x1="447.092308158" x2="451.959718539" y1="301.412985561" y2="304.674705533" /><line stroke="rgb(0%,0%,0%)" x1="466.230932737" x2="467.537570975" y1="320.385332144" y2="321.437256542" /><line stroke="rgb(0%,0%,0%)" x1="466.230932737" x2="461.4354635" y1="320.385332144" y2="316.196497451" /><line stroke="rgb(0%,0%,0%)" x1="461.4354635" x2="459.998961178" y1="316.196497451" y2="314.981938991" /><line stroke="rgb(0%,0%,0%)" x1="482.717218528" x2="482.053568889" y1="339.507808661" y2="338.39764456" /><line stroke="rgb(0%,0%,0%)" x1="473.200583888" x2="467.537570975" y1="327.142189677" y2="321.437256542" /><line stroke="rgb(0%,0%,0%)" x1="483.307604103" x2="482.717218528" y1="340.69163623" y2="339.507808661" /><line stroke="rgb(0%,0%,0%)" x1="501.002871648" x2="499.704717081" y1="370.419608802" y2="367.685395567" /><line stroke="rgb(0%,0%,0%)" x1="499.704717081" x2="498.574142889" y1="367.685395567" y2="365.506221123" /><line stroke="rgb(0%,0%,0%)" x1="498.574142889" x2="495.429727454" y1="365.506221123" y2="361.619348589" /><line stroke="rgb(0%,0%,0%)" x1="425.197839172" x2="420.990095832" y1="280.093825964" y2="275.816593922" /><line stroke="rgb(0%,0%,0%)" x1="430.920799747" x2="429.613727716" y1="284.67414204" y2="283.721763664" /><line stroke="rgb(0%,0%,0%)" x1="429.613727716" x2="425.197839172" y1="283.721763664" y2="280.093825964" /><line stroke="rgb(0%,0%,0%)" x1="440.79610961" x2="435.249792923" y1="294.606804785" y2="288.692900474" /><line stroke="rgb(0%,0%,0%)" x1="447.092308158" x2="440.79610961" y1="301.412985561" y2="294.606804785" /><line stroke="rgb(0%,0%,0%)" x1="459.998961178" x2="459.306556209" y1="314.981938991" y2="314.400650152" /><line stroke="rgb(0%,0%,0%)" x1="475.712940313" x2="473.200583888" y1="329.883649578" y2="327.142189677" /><line stroke="rgb(0%,0%,0%)" x1="390.602780732" x2="397.513040087" y1="654.354702979" y2="652.398192787" /><line stroke="rgb(0%,0%,0%)" x1="405.292611794" x2="404.881714199" y1="650.231693439" y2="650.32441955" /><line stroke="rgb(0%,0%,0%)" x1="405.441273134" x2="405.292611794" y1="650.175011999" y2="650.231693439" /><line stroke="rgb(0%,0%,0%)" x1="405.441273134" x2="405.635706052" y1="650.175011999" y2="650.053043072" /><line stroke="rgb(0%,0%,0%)" x1="360.293086873" x2="358.01744855" y1="797.131655616" y2="801.024721913" /><line stroke="rgb(0%,0%,0%)" x1="360.293086873" x2="362.255404954" y1="797.131655616" y2="790.879942623" /><line stroke="rgb(0%,0%,0%)" x1="365.883944116" x2="365.491857569" y1="746.402130007" y2="751.254400205" /><line stroke="rgb(0%,0%,0%)" x1="366.068761229" x2="365.883944116" y1="745.47705078" y2="746.402130007" /><line stroke="rgb(0%,0%,0%)" x1="362.255404954" x2="364.11601822" y1="790.879942623" y2="781.86362083" /><line stroke="rgb(0%,0%,0%)" x1="366.12561597" x2="365.812699152" y1="771.642476446" y2="757.980452475" /><line stroke="rgb(0%,0%,0%)" x1="366.068761229" x2="367.007957025" y1="745.47705078" y2="742.819023371" /><line stroke="rgb(0%,0%,0%)" x1="368.196361268" x2="368.876845898" y1="736.076256431" y2="727.599462944" /><line stroke="rgb(0%,0%,0%)" x1="366.71441034" x2="368.844523495" y1="716.969448291" y2="727.086679075" /><line stroke="rgb(0%,0%,0%)" x1="366.71441034" x2="364.691331525" y1="716.969448291" y2="709.766131199" /><line stroke="rgb(0%,0%,0%)" x1="361.516397431" x2="362.091603213" y1="693.01854894" y2="689.855222842" /><line stroke="rgb(0%,0%,0%)" x1="362.091603213" x2="365.640311409" y1="689.855222842" y2="680.85276489" /><line stroke="rgb(0%,0%,0%)" x1="368.572837019" x2="371.30964698" y1="674.51113416" y2="670.313662053" /><line stroke="rgb(0%,0%,0%)" x1="371.30964698" x2="371.378422936" y1="670.313662053" y2="670.214357278" /><line stroke="rgb(0%,0%,0%)" x1="371.378422936" x2="372.354393942" y1="670.214357278" y2="668.97117102" /><line stroke="rgb(0%,0%,0%)" x1="374.427541693" x2="372.354393942" y1="666.18083535" y2="668.97117102" /><line stroke="rgb(0%,0%,0%)" x1="374.427541693" x2="374.858948027" y1="666.18083535" y2="666.054075644" /><line stroke="rgb(0%,0%,0%)" x1="374.858948027" x2="382.519051597" y1="666.054075644" y2="663.017213329" /><line stroke="rgb(0%,0%,0%)" x1="382.519051597" x2="384.174766633" y1="663.017213329" y2="660.815007452" /><line stroke="rgb(0%,0%,0%)" x1="386.041587482" x2="384.174766633" y1="659.416018042" y2="660.815007452" /><line stroke="rgb(0%,0%,0%)" x1="386.041587482" x2="386.874680115" y1="659.416018042" y2="657.822681642" /><line stroke="rgb(0%,0%,0%)" x1="386.874680115" x2="390.602780732" y1="657.822681642" y2="654.354702979" /><line stroke="rgb(0%,0%,0%)" x1="397.513040087" x2="398.234089796" y1="652.398192787" y2="652.301464589" /><line stroke="rgb(0%,0%,0%)" x1="398.234089796" x2="398.937853664" y1="652.301464589" y2="651.839562831" /><line stroke="rgb(0%,0%,0%)" x1="398.937853664" x2="404.881714199" y1="651.839562831" y2="650.32441955" /><line stroke="rgb(0%,0%,0%)" x1="300.186970925" x2="302.875582046" y1="761.686908175" y2="768.740255169" /><line stroke="rgb(0%,0%,0%)" x1="300.110412858" x2="299.687083499" y1="759.97841078" y2="756.243743935" /><line stroke="rgb(0%,0%,0%)" x1="300.110412858" x2="300.186970925" y1="759.97841078" y2="761.686908175" /><line stroke="rgb(0%,0%,0%)" x1="296.336572932" x2="299.687083499" y1="743.325777278" y2="756.243743935" /><line stroke="rgb(0%,0%,0%)" x1="327.449797306" x2="326.063169352" y1="827.840168352" y2="826.826609702" /><line stroke="rgb(0%,0%,0%)" x1="327.449797306" x2="332.583354129" y1="827.840168352" y2="828.178535639" /><line stroke="rgb(0%,0%,0%)" x1="347.442143886" x2="340.779663048" y1="815.793495011" y2="823.79508895" /><line stroke="rgb(0%,0%,0%)" x1="347.442143886" x2="350.445489077" y1="815.793495011" y2="811.366768058" /><line stroke="rgb(0%,0%,0%)" x1="350.445489077" x2="355.361639765" y1="811.366768058" y2="804.97640185" /><line stroke="rgb(0%,0%,0%)" x1="355.361639765" x2="358.01744855" y1="804.97640185" y2="801.024721913" /><line stroke="rgb(0%,0%,0%)" x1="364.11601822" x2="365.901334703" y1="781.86362083" y2="774.784665587" /><line stroke="rgb(0%,0%,0%)" x1="365.901334703" x2="366.12561597" y1="774.784665587" y2="771.642476446" /><line stroke="rgb(0%,0%,0%)" x1="365.812699152" x2="365.265491856" y1="757.980452475" y2="753.85386182" /><line stroke="rgb(0%,0%,0%)" x1="365.265491856" x2="365.491857569" y1="753.85386182" y2="751.254400205" /><line stroke="rgb(0%,0%,0%)" x1="367.007957025" x2="368.196361268" y1="742.819023371" y2="736.076256431" /><line stroke="rgb(0%,0%,0%)" x1="368.876845898" x2="368.844523495" y1="727.599462944" y2="727.086679075" /><line stroke="rgb(0%,0%,0%)" x1="364.691331525" x2="363.513893663" y1="709.766131199" y2="706.054683633" /><line stroke="rgb(0%,0%,0%)" x1="363.513893663" x2="362.743469161" y1="706.054683633" y2="703.005729443" /><line stroke="rgb(0%,0%,0%)" x1="362.743469161" x2="362.344779923" y1="703.005729443" y2="698.302854785" /><line stroke="rgb(0%,0%,0%)" x1="361.516397431" x2="362.344779923" y1="693.01854894" y2="698.302854785" /><line stroke="rgb(0%,0%,0%)" x1="365.640311409" x2="366.409258644" y1="680.85276489" y2="678.411147647" /><line stroke="rgb(0%,0%,0%)" x1="366.409258644" x2="366.552733795" y1="678.411147647" y2="677.975403403" /><line stroke="rgb(0%,0%,0%)" x1="367.727146436" x2="366.552733795" y1="675.173066973" y2="677.975403403" /><line stroke="rgb(0%,0%,0%)" x1="367.727146436" x2="368.572837019" y1="675.173066973" y2="674.51113416" /><line stroke="rgb(0%,0%,0%)" x1="277.647649187" x2="275.552581665" y1="704.866536723" y2="701.87115365" /><line stroke="rgb(0%,0%,0%)" x1="277.647649187" x2="280.156671526" y1="704.866536723" y2="708.087806948" /><line stroke="rgb(0%,0%,0%)" x1="294.577132856" x2="289.289895233" y1="736.377026872" y2="721.314819341" /><line stroke="rgb(0%,0%,0%)" x1="294.577132856" x2="296.336572932" y1="736.377026872" y2="743.325777278" /><line stroke="rgb(0%,0%,0%)" x1="280.156671526" x2="287.268005007" y1="708.087806948" y2="716.764862879" /><line stroke="rgb(0%,0%,0%)" x1="287.268005007" x2="289.289895233" y1="716.764862879" y2="721.314819341" /><line stroke="rgb(0%,0%,0%)" x1="308.871066327" x2="307.065393022" y1="805.760975773" y2="801.18611586" /><line stroke="rgb(0%,0%,0%)" x1="308.871066327" x2="312.775139882" y1="805.760975773" y2="810.845899945" /><line stroke="rgb(0%,0%,0%)" x1="306.532949055" x2="305.831421715" y1="791.139821246" y2="780.655270586" /><line stroke="rgb(0%,0%,0%)" x1="306.532949055" x2="306.102904017" y1="791.139821246" y2="795.582280781" /><line stroke="rgb(0%,0%,0%)" x1="302.875582046" x2="303.834024067" y1="768.740255169" y2="769.626229934" /><line stroke="rgb(0%,0%,0%)" x1="326.063169352" x2="323.385378305" y1="826.826609702" y2="823.955786996" /><line stroke="rgb(0%,0%,0%)" x1="312.775139882" x2="314.060612681" y1="810.845899945" y2="813.38031097" /><line stroke="rgb(0%,0%,0%)" x1="306.102904017" x2="307.065393022" y1="795.582280781" y2="801.18611586" /><line stroke="rgb(0%,0%,0%)" x1="332.583354129" x2="334.216804635" y1="828.178535639" y2="828.12997499" /><line stroke="rgb(0%,0%,0%)" x1="316.265630762" x2="323.385378305" y1="817.293539843" y2="823.955786996" /><line stroke="rgb(0%,0%,0%)" x1="334.216804635" x2="334.389847458" y1="828.12997499" y2="828.12967397" /><line stroke="rgb(0%,0%,0%)" x1="339.306928677" x2="334.389847458" y1="825.243255557" y2="828.12967397" /><line stroke="rgb(0%,0%,0%)" x1="339.306928677" x2="340.779663048" y1="825.243255557" y2="823.79508895" /><line stroke="rgb(0%,0%,0%)" x1="260.390658331" x2="259.211681498" y1="671.685577345" y2="670.651029788" /><line stroke="rgb(0%,0%,0%)" x1="260.530965001" x2="264.116048411" y1="672.497591094" y2="685.947993102" /><line stroke="rgb(0%,0%,0%)" x1="260.530965001" x2="260.390658331" y1="672.497591094" y2="671.685577345" /><line stroke="rgb(0%,0%,0%)" x1="264.116048411" x2="275.552581665" y1="685.947993102" y2="701.87115365" /><line stroke="rgb(0%,0%,0%)" x1="189.726974608" x2="189.129481988" y1="660.370377659" y2="660.157190455" /><line stroke="rgb(0%,0%,0%)" x1="223.958976895" x2="224.813779183" y1="678.053170294" y2="677.799592413" /><line stroke="rgb(0%,0%,0%)" x1="220.851759375" x2="223.958976895" y1="679.512774342" y2="678.053170294" /><line stroke="rgb(0%,0%,0%)" x1="216.240406377" x2="220.851759375" y1="680.005120427" y2="679.512774342" /><line stroke="rgb(0%,0%,0%)" x1="227.234776686" x2="228.617191266" y1="676.865227781" y2="675.083929357" /><line stroke="rgb(0%,0%,0%)" x1="228.617191266" x2="230.622788038" y1="675.083929357" y2="673.788115614" /><line stroke="rgb(0%,0%,0%)" x1="236.67569526" x2="233.216323601" y1="667.994495203" y2="671.037100364" /><line stroke="rgb(0%,0%,0%)" x1="230.622788038" x2="233.216323601" y1="673.788115614" y2="671.037100364" /><line stroke="rgb(0%,0%,0%)" x1="236.67569526" x2="242.255957262" y1="667.994495203" y2="661.694679432" /><line stroke="rgb(0%,0%,0%)" x1="248.357556629" x2="250.233424636" y1="663.130530702" y2="663.27148694" /><line stroke="rgb(0%,0%,0%)" x1="242.255957262" x2="248.357556629" y1="661.694679432" y2="663.130530702" /><line stroke="rgb(0%,0%,0%)" x1="250.233424636" x2="259.211681498" y1="663.27148694" y2="670.651029788" /><line stroke="rgb(0%,0%,0%)" x1="187.961850684" x2="188.461246852" y1="658.522701536" y2="659.312425647" /><line stroke="rgb(0%,0%,0%)" x1="185.123701798" x2="187.024598262" y1="657.183317071" y2="658.317542163" /><line stroke="rgb(0%,0%,0%)" x1="185.123701798" x2="184.939033529" y1="657.183317071" y2="657.097152513" /><line stroke="rgb(0%,0%,0%)" x1="184.939033529" x2="184.895610495" y1="657.097152513" y2="657.000683592" /><line stroke="rgb(0%,0%,0%)" x1="180.492215587" x2="181.116390093" y1="655.165235924" y2="655.454279887" /><line stroke="rgb(0%,0%,0%)" x1="199.796351979" x2="196.395858482" y1="667.611204706" y2="665.552272769" /><line stroke="rgb(0%,0%,0%)" x1="195.548598215" x2="196.395858482" y1="664.82709217" y2="665.552272769" /><line stroke="rgb(0%,0%,0%)" x1="194.850614369" x2="195.548598215" y1="663.687345991" y2="664.82709217" /><line stroke="rgb(0%,0%,0%)" x1="194.850614369" x2="194.3316912" y1="663.687345991" y2="663.547640163" /><line stroke="rgb(0%,0%,0%)" x1="194.3316912" x2="192.215805835" y1="663.547640163" y2="662.60928552" /><line stroke="rgb(0%,0%,0%)" x1="190.198952691" x2="191.339072048" y1="661.122133338" y2="661.540684752" /><line stroke="rgb(0%,0%,0%)" x1="189.726974608" x2="190.198952691" y1="660.370377659" y2="661.122133338" /><line stroke="rgb(0%,0%,0%)" x1="188.461246852" x2="189.129481988" y1="659.312425647" y2="660.157190455" /><line stroke="rgb(0%,0%,0%)" x1="187.024598262" x2="187.961850684" y1="658.317542163" y2="658.522701536" /><line stroke="rgb(0%,0%,0%)" x1="208.007242986" x2="209.85326804" y1="675.956962123" y2="677.375698549" /><line stroke="rgb(0%,0%,0%)" x1="216.240406377" x2="209.85326804" y1="680.005120427" y2="677.375698549" /><line stroke="rgb(0%,0%,0%)" x1="206.512964976" x2="208.007242986" y1="673.537053284" y2="675.956962123" /><line stroke="rgb(0%,0%,0%)" x1="206.512964976" x2="202.802396886" y1="673.537053284" y2="670.427344703" /><line stroke="rgb(0%,0%,0%)" x1="202.108482445" x2="202.802396886" y1="669.59221396" y2="670.427344703" /><line stroke="rgb(0%,0%,0%)" x1="199.796351979" x2="202.108482445" y1="667.611204706" y2="669.59221396" /><line stroke="rgb(0%,0%,0%)" x1="159.931390829" x2="163.961433891" y1="646.10681619" y2="647.046316251" /><line stroke="rgb(0%,0%,0%)" x1="159.931390829" x2="154.008473208" y1="646.10681619" y2="642.517241523" /><line stroke="rgb(0%,0%,0%)" x1="168.433836729" x2="172.712004892" y1="648.731838588" y2="648.396220168" /><line stroke="rgb(0%,0%,0%)" x1="163.961433891" x2="168.433836729" y1="647.046316251" y2="648.731838588" /><line stroke="rgb(0%,0%,0%)" x1="183.331861832" x2="184.895610495" y1="656.283902713" y2="657.000683592" /><line stroke="rgb(0%,0%,0%)" x1="181.116390093" x2="183.331861832" y1="655.454279887" y2="656.283902713" /><line stroke="rgb(0%,0%,0%)" x1="179.426425263" x2="180.492215587" y1="654.814870641" y2="655.165235924" /><line stroke="rgb(0%,0%,0%)" x1="179.426425263" x2="176.797901906" y1="654.814870641" y2="652.545651507" /><line stroke="rgb(0%,0%,0%)" x1="172.712004892" x2="176.797901906" y1="648.396220168" y2="652.545651507" /><line stroke="rgb(0%,0%,0%)" x1="191.339072048" x2="192.215805835" y1="661.540684752" y2="662.60928552" /><line stroke="rgb(0%,0%,0%)" x1="108.520093275" x2="116.174020985" y1="624.342170905" y2="627.410861444" /><line stroke="rgb(0%,0%,0%)" x1="116.174020985" x2="127.77631437" y1="627.410861444" y2="632.173182311" /><line stroke="rgb(0%,0%,0%)" x1="132.200752504" x2="135.801528569" y1="633.767782107" y2="634.469200769" /><line stroke="rgb(0%,0%,0%)" x1="127.77631437" x2="132.200752504" y1="632.173182311" y2="633.767782107" /><line stroke="rgb(0%,0%,0%)" x1="146.417252688" x2="147.064245962" y1="638.531844628" y2="638.63340917" /><line stroke="rgb(0%,0%,0%)" x1="136.991324958" x2="146.417252688" y1="634.499196313" y2="638.531844628" /><line stroke="rgb(0%,0%,0%)" x1="135.801528569" x2="136.991324958" y1="634.469200769" y2="634.499196313" /><line stroke="rgb(0%,0%,0%)" x1="148.247685984" x2="154.008473208" y1="639.040421863" y2="642.517241523" /><line stroke="rgb(0%,0%,0%)" x1="147.064245962" x2="148.247685984" y1="638.63340917" y2="639.040421863" /><line stroke="rgb(0%,0%,0%)" x1="89.5246565972" x2="92.8043092383" y1="613.795695091" y2="615.713533303" /><line stroke="rgb(0%,0%,0%)" x1="89.5246565972" x2="82.8600544363" y1="613.795695091" y2="611.49603689" /><line stroke="rgb(0%,0%,0%)" x1="81.9992520713" x2="82.8600544363" y1="611.068955104" y2="611.49603689" /><line stroke="rgb(0%,0%,0%)" x1="108.520093275" x2="100.540984742" y1="624.342170905" y2="619.672318544" /><line stroke="rgb(0%,0%,0%)" x1="98.1408112985" x2="100.540984742" y1="617.902331074" y2="619.672318544" /><line stroke="rgb(0%,0%,0%)" x1="97.3462818792" x2="98.1408112985" y1="617.422970522" y2="617.902331074" /><line stroke="rgb(0%,0%,0%)" x1="92.8043092383" x2="97.3462818792" y1="615.713533303" y2="617.422970522" /><line stroke="rgb(0%,0%,0%)" x1="39.6333779063" x2="45.004296121" y1="582.825033192" y2="585.660714915" /><line stroke="rgb(0%,0%,0%)" x1="36.3010829196" x2="39.6333779063" y1="579.401552297" y2="582.825033192" /><line stroke="rgb(0%,0%,0%)" x1="36.3010829196" x2="30.0969847184" y1="579.401552297" y2="565.751823565" /><line stroke="rgb(0%,0%,0%)" x1="36.3852160256" x2="36.5703328446" y1="554.974375444" y2="557.574674332" /><line stroke="rgb(0%,0%,0%)" x1="36.5703328446" x2="35.8816534386" y1="557.574674332" y2="559.486879932" /><line stroke="rgb(0%,0%,0%)" x1="37.016433746" x2="36.3852160256" y1="553.224230152" y2="554.974375444" /><line stroke="rgb(0%,0%,0%)" x1="37.469241627" x2="37.016433746" y1="550.104636926" y2="553.224230152" /><line stroke="rgb(0%,0%,0%)" x1="37.469241627" x2="37.7980793526" y1="550.104636926" y2="548.754601623" /><line stroke="rgb(0%,0%,0%)" x1="37.1188779126" x2="35.4266338422" y1="544.825003825" y2="540.53260455" /><line stroke="rgb(0%,0%,0%)" x1="36.0669767377" x2="34.0429565412" y1="485.994376215" y2="484.380899695" /><line stroke="rgb(0%,0%,0%)" x1="54.8475353427" x2="48.374626504" y1="593.205320375" y2="588.263549931" /><line stroke="rgb(0%,0%,0%)" x1="41.7925383709" x2="41.6469633367" y1="510.598930894" y2="510.734059541" /><line stroke="rgb(0%,0%,0%)" x1="45.0137206009" x2="41.7925383709" y1="504.484431681" y2="510.598930894" /><line stroke="rgb(0%,0%,0%)" x1="45.0932738002" x2="45.0137206009" y1="504.239984553" y2="504.484431681" /><line stroke="rgb(0%,0%,0%)" x1="45.0932738002" x2="45.1113536918" y1="504.239984553" y2="504.034403351" /><line stroke="rgb(0%,0%,0%)" x1="47.5317336638" x2="45.1628072288" y1="496.522890759" y2="503.679051142" /><line stroke="rgb(0%,0%,0%)" x1="45.1113536918" x2="45.1628072288" y1="504.034403351" y2="503.679051142" /><line stroke="rgb(0%,0%,0%)" x1="45.3574173225" x2="45.7627439787" y1="492.48336996" y2="493.214938129" /><line stroke="rgb(0%,0%,0%)" x1="45.7627439787" x2="46.0383831237" y1="493.214938129" y2="494.260842699" /><line stroke="rgb(0%,0%,0%)" x1="44.8321699009" x2="45.3574173225" y1="491.655753881" y2="492.48336996" /><line stroke="rgb(0%,0%,0%)" x1="40.7989183816" x2="44.8321699009" y1="489.361108673" y2="491.655753881" /><line stroke="rgb(0%,0%,0%)" x1="40.7989183816" x2="39.2374494941" y1="489.361108673" y2="487.012503364" /><line stroke="rgb(0%,0%,0%)" x1="56.9606656696" x2="69.286395144" y1="594.346435877" y2="603.498482326" /><line stroke="rgb(0%,0%,0%)" x1="69.286395144" x2="69.3179732252" y1="603.498482326" y2="603.512416833" /><line stroke="rgb(0%,0%,0%)" x1="54.8475353427" x2="56.9606656696" y1="593.205320375" y2="594.346435877" /><line stroke="rgb(0%,0%,0%)" x1="81.9992520713" x2="69.6127049729" y1="611.068955104" y2="603.690530248" /><line stroke="rgb(0%,0%,0%)" x1="69.4570963345" x2="69.6127049729" y1="603.612706849" y2="603.690530248" /><line stroke="rgb(0%,0%,0%)" x1="69.3179732252" x2="69.4073501852" y1="603.512416833" y2="603.563446199" /><line stroke="rgb(0%,0%,0%)" x1="69.4073501852" x2="69.4570963345" y1="603.563446199" y2="603.612706849" /><line stroke="rgb(0%,0%,0%)" x1="23.3708543406" x2="27.6366385222" y1="474.684248498" y2="480.494175316" /><line stroke="rgb(0%,0%,0%)" x1="23.3708543406" x2="20.3103489973" y1="474.684248498" y2="468.730321166" /><line stroke="rgb(0%,0%,0%)" x1="19.7127075345" x2="20.3103489973" y1="466.963472908" y2="468.730321166" /><line stroke="rgb(0%,0%,0%)" x1="19.7127075345" x2="18.6748574759" y1="466.963472908" y2="462.344305532" /><line stroke="rgb(0%,0%,0%)" x1="18.7137295175" x2="18.6748574759" y1="461.161950693" y2="462.344305532" /><line stroke="rgb(0%,0%,0%)" x1="29.9538987255" x2="30.0969847184" y1="565.373809514" y2="565.751823565" /><line stroke="rgb(0%,0%,0%)" x1="33.6206651842" x2="30.0849021382" y1="558.227546286" y2="564.812494356" /><line stroke="rgb(0%,0%,0%)" x1="29.9575551765" x2="29.9538987255" y1="565.00431716" y2="565.373809514" /><line stroke="rgb(0%,0%,0%)" x1="30.0849021382" x2="29.9575551765" y1="564.812494356" y2="565.00431716" /><line stroke="rgb(0%,0%,0%)" x1="35.8816534386" x2="33.6206651842" y1="559.486879932" y2="558.227546286" /><line stroke="rgb(0%,0%,0%)" x1="37.1188779126" x2="37.7980793526" y1="544.825003825" y2="548.754601623" /><line stroke="rgb(0%,0%,0%)" x1="34.1526544987" x2="34.5900358582" y1="538.199094134" y2="539.452199642" /><line stroke="rgb(0%,0%,0%)" x1="34.5900358582" x2="35.4266338422" y1="539.452199642" y2="540.53260455" /><line stroke="rgb(0%,0%,0%)" x1="34.1526544987" x2="34.0460381595" y1="538.199094134" y2="534.416812719" /><line stroke="rgb(0%,0%,0%)" x1="34.1654897888" x2="34.0460381595" y1="534.000038035" y2="534.416812719" /><line stroke="rgb(0%,0%,0%)" x1="34.1997673109" x2="34.1654897888" y1="533.60679322" y2="534.000038035" /><line stroke="rgb(0%,0%,0%)" x1="35.0245715165" x2="34.1997673109" y1="528.77813277" y2="533.60679322" /><line stroke="rgb(0%,0%,0%)" x1="37.2418393143" x2="35.0245715165" y1="518.819628129" y2="528.77813277" /><line stroke="rgb(0%,0%,0%)" x1="41.6469633367" x2="37.2418393143" y1="510.734059541" y2="518.819628129" /><line stroke="rgb(0%,0%,0%)" x1="36.0669767377" x2="39.2374494941" y1="485.994376215" y2="487.012503364" /><line stroke="rgb(0%,0%,0%)" x1="27.7111077873" x2="34.0429565412" y1="480.556380712" y2="484.380899695" /><line stroke="rgb(0%,0%,0%)" x1="27.7111077873" x2="27.6366385222" y1="480.556380712" y2="480.494175316" /><line stroke="rgb(0%,0%,0%)" x1="46.5803839266" x2="48.374626504" y1="586.368592771" y2="588.263549931" /><line stroke="rgb(0%,0%,0%)" x1="45.004296121" x2="46.5803839266" y1="585.660714915" y2="586.368592771" /><line stroke="rgb(0%,0%,0%)" x1="47.3271266969" x2="47.5317336638" y1="495.278711802" y2="496.522890759" /><line stroke="rgb(0%,0%,0%)" x1="46.0383831237" x2="47.3271266969" y1="494.260842699" y2="495.278711802" /><line stroke="rgb(0%,0%,0%)" x1="514.060124547" x2="516.738000477" y1="530.754949115" y2="524.551907133" /><line stroke="rgb(0%,0%,0%)" x1="527.914095972" x2="527.034165114" y1="504.713251714" y2="506.574183305" /><line stroke="rgb(0%,0%,0%)" x1="527.914095972" x2="530.8582243" y1="504.713251714" y2="495.639687384" /><line stroke="rgb(0%,0%,0%)" x1="535.342946615" x2="535.108203109" y1="470.899732141" y2="473.708965576" /><line stroke="rgb(0%,0%,0%)" x1="535.342946615" x2="536.050662428" y1="470.899732141" y2="469.179919365" /><line stroke="rgb(0%,0%,0%)" x1="536.177288289" x2="536.050662428" y1="467.962140183" y2="469.179919365" /><line stroke="rgb(0%,0%,0%)" x1="536.177288289" x2="536.970315763" y1="467.962140183" y2="463.838553928" /><line stroke="rgb(0%,0%,0%)" x1="536.970315763" x2="536.523426266" y1="463.838553928" y2="460.984395302" /><line stroke="rgb(0%,0%,0%)" x1="471.525202157" x2="468.116252453" y1="597.351528294" y2="600.099860287" /><line stroke="rgb(0%,0%,0%)" x1="475.026618118" x2="477.758093935" y1="592.194609729" y2="589.918681484" /><line stroke="rgb(0%,0%,0%)" x1="483.969958973" x2="482.056861612" y1="580.686467759" y2="583.38991627" /><line stroke="rgb(0%,0%,0%)" x1="483.969958973" x2="486.611012297" y1="580.686467759" y2="575.743140547" /><line stroke="rgb(0%,0%,0%)" x1="496.945003675" x2="491.944034736" y1="559.446860473" y2="567.203635243" /><line stroke="rgb(0%,0%,0%)" x1="496.945003675" x2="500.003242013" y1="559.446860473" y2="553.633541432" /><line stroke="rgb(0%,0%,0%)" x1="500.003242013" x2="504.774903475" y1="553.633541432" y2="547.142379505" /><line stroke="rgb(0%,0%,0%)" x1="504.774903475" x2="506.523634901" y1="547.142379505" y2="544.136140634" /><line stroke="rgb(0%,0%,0%)" x1="509.376714009" x2="506.523634901" y1="538.934544696" y2="544.136140634" /><line stroke="rgb(0%,0%,0%)" x1="509.376714009" x2="511.068737363" y1="538.934544696" y2="535.768499127" /><line stroke="rgb(0%,0%,0%)" x1="514.060124547" x2="511.068737363" y1="530.754949115" y2="535.768499127" /><line stroke="rgb(0%,0%,0%)" x1="516.738000477" x2="520.157263362" y1="524.551907133" y2="517.751693069" /><line stroke="rgb(0%,0%,0%)" x1="520.157263362" x2="527.034165114" y1="517.751693069" y2="506.574183305" /><line stroke="rgb(0%,0%,0%)" x1="534.209494808" x2="535.108203109" y1="481.616828068" y2="473.708965576" /><line stroke="rgb(0%,0%,0%)" x1="440.450693376" x2="435.427996869" y1="623.706755434" y2="627.241056552" /><line stroke="rgb(0%,0%,0%)" x1="432.239916832" x2="435.427996869" y1="630.918008567" y2="627.241056552" /><line stroke="rgb(0%,0%,0%)" x1="442.800897605" x2="440.450693376" y1="621.815074461" y2="623.706755434" /><line stroke="rgb(0%,0%,0%)" x1="442.800897605" x2="444.601439415" y1="621.815074461" y2="620.514296171" /><line stroke="rgb(0%,0%,0%)" x1="444.601439415" x2="450.789473559" y1="620.514296171" y2="615.138787766" /><line stroke="rgb(0%,0%,0%)" x1="450.789473559" x2="458.380352853" y1="615.138787766" y2="608.606985714" /><line stroke="rgb(0%,0%,0%)" x1="459.155108579" x2="465.287487017" y1="607.815735596" y2="603.061915779" /><line stroke="rgb(0%,0%,0%)" x1="459.155108579" x2="458.380352853" y1="607.815735596" y2="608.606985714" /><line stroke="rgb(0%,0%,0%)" x1="465.287487017" x2="468.116252453" y1="603.061915779" y2="600.099860287" /><line stroke="rgb(0%,0%,0%)" x1="471.525202157" x2="475.026618118" y1="597.351528294" y2="592.194609729" /><line stroke="rgb(0%,0%,0%)" x1="477.758093935" x2="482.056861612" y1="589.918681484" y2="583.38991627" /><line stroke="rgb(0%,0%,0%)" x1="486.611012297" x2="489.826610528" y1="575.743140547" y2="569.834875545" /><line stroke="rgb(0%,0%,0%)" x1="489.826610528" x2="491.399281152" y1="569.834875545" y2="567.803548185" /><line stroke="rgb(0%,0%,0%)" x1="491.399281152" x2="491.944034736" y1="567.803548185" y2="567.203635243" /><line stroke="rgb(0%,0%,0%)" x1="424.589190325" x2="416.028591947" y1="635.965532616" y2="642.883184813" /><line stroke="rgb(0%,0%,0%)" x1="424.589190325" x2="432.239916832" y1="635.965532616" y2="630.918008567" /><line stroke="rgb(0%,0%,0%)" x1="303.834024067" x2="305.037781125" y1="769.626229934" y2="774.510800729" /><line stroke="rgb(0%,0%,0%)" x1="305.522896793" x2="305.831421715" y1="776.354995961" y2="780.655270586" /><line stroke="rgb(0%,0%,0%)" x1="305.037781125" x2="305.522896793" y1="774.510800729" y2="776.354995961" /><line stroke="rgb(0%,0%,0%)" x1="533.686343815" x2="534.209494808" y1="484.666565561" y2="481.616828068" /><line stroke="rgb(0%,0%,0%)" x1="533.370031947" x2="533.686343815" y1="488.143312496" y2="484.666565561" /><line stroke="rgb(0%,0%,0%)" x1="530.8582243" x2="533.370031947" y1="495.639687384" y2="488.143312496" /><line stroke="rgb(0%,0%,0%)" x1="224.813779183" x2="225.165002095" y1="677.799592413" y2="677.66890337" /><line stroke="rgb(0%,0%,0%)" x1="225.165002095" x2="227.234776686" y1="677.66890337" y2="676.865227781" /><line stroke="rgb(0%,0%,0%)" x1="414.990124225" x2="416.028591947" y1="643.281483294" y2="642.883184813" /><line stroke="rgb(0%,0%,0%)" x1="405.635706052" x2="414.990124225" y1="650.053043072" y2="643.281483294" /><line stroke="rgb(0%,0%,0%)" x1="314.060612681" x2="316.265630762" y1="813.38031097" y2="817.293539843" /></svg>