<?xml version="1.0" encoding="utf-8" ?>
<svg baseProfile="full" height="100%" version="1.1" viewBox="0.5 0.5 685.793960571 941.299331665" width="100%" xmlns="http://www.w3.org/2000/svg" xmlns:ev="http://www.w3.org/2001/xml-events" xmlns:xlink="http://www.w3.org/1999/xlink"><defs /><line stroke="rgb(0%,0%,0%)" x1="523.715501602" x2="519.108777342" y1="409.783393036" y2="401.332915715" /><line stroke="rgb(0%,0%,0%)" x1="515.974682032" x2="519.108777342" y1="396.258586885" y2="401.332915715" /><line stroke="rgb(0%,0%,0%)" x1="535.607776339" x2="535.473134606" y1="446.387973743" y2="452.690426932" /><line stroke="rgb(0%,0%,0%)" x1="535.607776339" x2="535.383093617" y1="446.387973743" y2="442.125528183" /><line stroke="rgb(0%,0%,0%)" x1="535.383093617" x2="532.286318592" y1="442.125528183" y2="431.723383982" /><line stroke="rgb(0%,0%,0%)" x1="525.518962719" x2="523.715501602" y1="413.084431068" y2="409.783393036" /><line stroke="rgb(0%,0%,0%)" x1="515.974682032" x2="513.182850112" y1="396.258586885" y2="392.787899471" /><line stroke="rgb(0%,0%,0%)" x1="532.286318592" x2="531.642284337" y1="431.723383982" y2="430.647715395" /><line stroke="rgb(0%,0%,0%)" x1="531.642284337" x2="531.442621891" y1="430.647715395" y2="429.745449511" /><line stroke="rgb(0%,0%,0%)" x1="531.442621891" x2="531.194103821" y1="429.745449511" y2="428.974440029" /><line stroke="rgb(0%,0%,0%)" x1="525.518962719" x2="531.194103821" y1="413.084431068" y2="428.974440029" /><line stroke="rgb(0%,0%,0%)" x1="534.777958529" x2="534.791672799" y1="461.255357205" y2="459.028186136" /><line stroke="rgb(0%,0%,0%)" x1="534.791672799" x2="534.978395423" y1="459.028186136" y2="455.382290899" /><line stroke="rgb(0%,0%,0%)" x1="534.978395423" x2="535.473134606" y1="455.382290899" y2="452.690426932" /><line stroke="rgb(0%,0%,0%)" x1="418.803574392" x2="424.380864517" y1="273.257771538" y2="277.795037015" /><line stroke="rgb(0%,0%,0%)" x1="361.637694248" x2="360.831328293" y1="228.44977014" y2="224.213527258" /><line stroke="rgb(0%,0%,0%)" x1="364.457631991" x2="363.221062249" y1="204.918749574" y2="213.326985963" /><line stroke="rgb(0%,0%,0%)" x1="364.457631991" x2="365.050706231" y1="204.918749574" y2="196.40581436" /><line stroke="rgb(0%,0%,0%)" x1="390.51075841" x2="379.346954009" y1="255.380076835" y2="249.309873698" /><line stroke="rgb(0%,0%,0%)" x1="398.290807185" x2="401.656530037" y1="260.101395303" y2="262.584205568" /><line stroke="rgb(0%,0%,0%)" x1="398.290807185" x2="390.51075841" y1="260.101395303" y2="255.380076835" /><line stroke="rgb(0%,0%,0%)" x1="418.803574392" x2="415.660195663" y1="273.257771538" y2="270.755715396" /><line stroke="rgb(0%,0%,0%)" x1="411.927951542" x2="402.73182586" y1="268.012890095" y2="263.393452414" /><line stroke="rgb(0%,0%,0%)" x1="415.660195663" x2="411.927951542" y1="270.755715396" y2="268.012890095" /><line stroke="rgb(0%,0%,0%)" x1="402.73182586" x2="401.656530037" y1="263.393452414" y2="262.584205568" /><line stroke="rgb(0%,0%,0%)" x1="331.945960946" x2="329.837961039" y1="113.096382156" y2="111.201521412" /><line stroke="rgb(0%,0%,0%)" x1="349.237339102" x2="350.508347414" y1="132.380956935" y2="134.421411835" /><line stroke="rgb(0%,0%,0%)" x1="349.237339102" x2="347.937290597" y1="132.380956935" y2="130.821204192" /><line stroke="rgb(0%,0%,0%)" x1="365.404325997" x2="361.637694248" y1="237.663782617" y2="228.44977014" /><line stroke="rgb(0%,0%,0%)" x1="360.831328293" x2="363.221062249" y1="224.213527258" y2="213.326985963" /><line stroke="rgb(0%,0%,0%)" x1="363.591995113" x2="360.703477408" y1="185.462985257" y2="174.063113349" /><line stroke="rgb(0%,0%,0%)" x1="365.050706231" x2="363.591995113" y1="196.40581436" y2="185.462985257" /><line stroke="rgb(0%,0%,0%)" x1="360.703477408" x2="359.638136124" y1="174.063113349" y2="170.932733966" /><line stroke="rgb(0%,0%,0%)" x1="359.819557061" x2="358.296215933" y1="169.011665843" y2="159.498226695" /><line stroke="rgb(0%,0%,0%)" x1="354.718597563" x2="357.718536578" y1="143.225306868" y2="157.091277698" /><line stroke="rgb(0%,0%,0%)" x1="358.296215933" x2="357.718536578" y1="159.498226695" y2="157.091277698" /><line stroke="rgb(0%,0%,0%)" x1="354.718597563" x2="350.508347414" y1="143.225306868" y2="134.421411835" /><line stroke="rgb(0%,0%,0%)" x1="367.400399661" x2="370.952672706" y1="240.361056147" y2="243.725059772" /><line stroke="rgb(0%,0%,0%)" x1="365.404325997" x2="367.400399661" y1="237.663782617" y2="240.361056147" /><line stroke="rgb(0%,0%,0%)" x1="379.346954009" x2="378.266157766" y1="249.309873698" y2="248.891910585" /><line stroke="rgb(0%,0%,0%)" x1="377.377521313" x2="372.400362252" y1="248.373645655" y2="245.215548537" /><line stroke="rgb(0%,0%,0%)" x1="297.336176354" x2="297.92206049" y1="197.597726876" y2="195.506181998" /><line stroke="rgb(0%,0%,0%)" x1="297.336176354" x2="296.322983663" y1="197.597726876" y2="201.384180268" /><line stroke="rgb(0%,0%,0%)" x1="294.262808351" x2="296.283381606" y1="182.753615223" y2="186.649874568" /><line stroke="rgb(0%,0%,0%)" x1="294.262808351" x2="293.945158609" y1="182.753615223" y2="179.844130397" /><line stroke="rgb(0%,0%,0%)" x1="310.426515807" x2="311.575303518" y1="109.20967509" y2="108.615491963" /><line stroke="rgb(0%,0%,0%)" x1="321.770299482" x2="315.775630139" y1="107.041058816" y2="105.930483583" /><line stroke="rgb(0%,0%,0%)" x1="329.837961039" x2="321.770299482" y1="111.201521412" y2="107.041058816" /><line stroke="rgb(0%,0%,0%)" x1="315.775630139" x2="311.575303518" y1="105.930483583" y2="108.615491963" /><line stroke="rgb(0%,0%,0%)" x1="339.104612482" x2="331.945960946" y1="120.315148958" y2="113.096382156" /><line stroke="rgb(0%,0%,0%)" x1="347.937290597" x2="339.104612482" y1="130.821204192" y2="120.315148958" /><line stroke="rgb(0%,0%,0%)" x1="359.638136124" x2="359.819557061" y1="170.932733966" y2="169.011665843" /><line stroke="rgb(0%,0%,0%)" x1="372.400362252" x2="372.021285063" y1="245.215548537" y2="244.987667719" /><line stroke="rgb(0%,0%,0%)" x1="372.021285063" x2="370.952672706" y1="244.987667719" y2="243.725059772" /><line stroke="rgb(0%,0%,0%)" x1="378.266157766" x2="377.377521313" y1="248.891910585" y2="248.373645655" /><line stroke="rgb(0%,0%,0%)" x1="296.24613144" x2="296.206550758" y1="161.854558727" y2="161.120994014" /><line stroke="rgb(0%,0%,0%)" x1="290.185121465" x2="289.611122263" y1="130.657671222" y2="137.805432189" /><line stroke="rgb(0%,0%,0%)" x1="290.185121465" x2="290.92441815" y1="130.657671222" y2="129.336064298" /><line stroke="rgb(0%,0%,0%)" x1="296.283381606" x2="297.92206049" y1="186.649874568" y2="195.506181998" /><line stroke="rgb(0%,0%,0%)" x1="295.128535691" x2="295.384978663" y1="167.379711354" y2="172.22467333" /><line stroke="rgb(0%,0%,0%)" x1="295.384978663" x2="293.945158609" y1="172.22467333" y2="179.844130397" /><line stroke="rgb(0%,0%,0%)" x1="296.24613144" x2="295.128535691" y1="161.854558727" y2="167.379711354" /><line stroke="rgb(0%,0%,0%)" x1="298.56299342" x2="296.206550758" y1="154.914503523" y2="161.120994014" /><line stroke="rgb(0%,0%,0%)" x1="298.56299342" x2="297.859151826" y1="154.914503523" y2="151.970252282" /><line stroke="rgb(0%,0%,0%)" x1="295.472506802" x2="297.859151826" y1="148.477637427" y2="151.970252282" /><line stroke="rgb(0%,0%,0%)" x1="295.472506802" x2="289.93299273" y1="148.477637427" y2="139.034429796" /><line stroke="rgb(0%,0%,0%)" x1="290.92441815" x2="294.771654052" y1="129.336064298" y2="123.497940366" /><line stroke="rgb(0%,0%,0%)" x1="295.46198248" x2="294.771654052" y1="122.248422936" y2="123.497940366" /><line stroke="rgb(0%,0%,0%)" x1="301.355300603" x2="296.395688041" y1="115.884204159" y2="120.679867318" /><line stroke="rgb(0%,0%,0%)" x1="296.395688041" x2="295.46198248" y1="120.679867318" y2="122.248422936" /><line stroke="rgb(0%,0%,0%)" x1="310.426515807" x2="308.50432466" y1="109.20967509" y2="110.742561257" /><line stroke="rgb(0%,0%,0%)" x1="308.50432466" x2="302.687481205" y1="110.742561257" y2="113.656506628" /><line stroke="rgb(0%,0%,0%)" x1="302.687481205" x2="301.355300603" y1="113.656506628" y2="115.884204159" /><line stroke="rgb(0%,0%,0%)" x1="249.107521922" x2="258.502611028" y1="256.313323888" y2="243.852506997" /><line stroke="rgb(0%,0%,0%)" x1="246.891774847" x2="249.107521922" y1="258.769076914" y2="256.313323888" /><line stroke="rgb(0%,0%,0%)" x1="267.569384989" x2="258.502611028" y1="233.48363439" y2="243.852506997" /><line stroke="rgb(0%,0%,0%)" x1="269.176167798" x2="285.330957547" y1="231.772324295" y2="212.395078188" /><line stroke="rgb(0%,0%,0%)" x1="269.176167798" x2="267.569384989" y1="231.772324295" y2="233.48363439" /><line stroke="rgb(0%,0%,0%)" x1="285.330957547" x2="294.966936157" y1="212.395078188" y2="203.566180225" /><line stroke="rgb(0%,0%,0%)" x1="296.322983663" x2="295.791079833" y1="201.384180268" y2="202.617618079" /><line stroke="rgb(0%,0%,0%)" x1="295.695321134" x2="294.966936157" y1="203.033961141" y2="203.566180225" /><line stroke="rgb(0%,0%,0%)" x1="295.791079833" x2="295.695321134" y1="202.617618079" y2="203.033961141" /><line stroke="rgb(0%,0%,0%)" x1="289.834270196" x2="289.93299273" y1="138.935120086" y2="139.034429796" /><line stroke="rgb(0%,0%,0%)" x1="289.611122263" x2="289.570971311" y1="137.805432189" y2="138.567214259" /><line stroke="rgb(0%,0%,0%)" x1="289.570971311" x2="289.834270196" y1="138.567214259" y2="138.935120086" /><line stroke="rgb(0%,0%,0%)" x1="224.516201858" x2="223.182822729" y1="241.003058886" y2="240.751503553" /><line stroke="rgb(0%,0%,0%)" x1="224.516201858" x2="226.311833392" y1="241.003058886" y2="242.383402373" /><line stroke="rgb(0%,0%,0%)" x1="232.03795757" x2="226.311833392" y1="245.319321002" y2="242.383402373" /><line stroke="rgb(0%,0%,0%)" x1="223.182822729" x2="217.296638843" y1="240.751503553" y2="239.206991295" /><line stroke="rgb(0%,0%,0%)" x1="236.317195756" x2="236.385764782" y1="252.298726855" y2="252.446130588" /><line stroke="rgb(0%,0%,0%)" x1="236.385764782" x2="238.023401503" y1="252.446130588" y2="254.035816918" /><line stroke="rgb(0%,0%,0%)" x1="241.996009245" x2="238.023401503" y1="257.21480976" y2="254.035816918" /><line stroke="rgb(0%,0%,0%)" x1="236.317195756" x2="236.134390313" y1="252.298726855" y2="252.075265695" /><line stroke="rgb(0%,0%,0%)" x1="236.134390313" x2="232.03795757" y1="252.075265695" y2="245.319321002" /><line stroke="rgb(0%,0%,0%)" x1="246.891774847" x2="241.996009245" y1="258.769076914" y2="257.21480976" /><line stroke="rgb(0%,0%,0%)" x1="192.736680139" x2="190.664754346" y1="263.897926186" y2="264.636099132" /><line stroke="rgb(0%,0%,0%)" x1="192.736680139" x2="193.893766226" y1="263.897926186" y2="262.936731035" /><line stroke="rgb(0%,0%,0%)" x1="197.045036937" x2="195.981407885" y1="260.858133132" y2="261.853122674" /><line stroke="rgb(0%,0%,0%)" x1="197.797457497" x2="197.045036937" y1="260.537814795" y2="260.858133132" /><line stroke="rgb(0%,0%,0%)" x1="197.797457497" x2="197.918928734" y1="260.537814795" y2="260.251116397" /><line stroke="rgb(0%,0%,0%)" x1="197.918928734" x2="198.644348189" y1="260.251116397" y2="259.582654187" /><line stroke="rgb(0%,0%,0%)" x1="199.88760238" x2="198.644348189" y1="258.811324499" y2="259.582654187" /><line stroke="rgb(0%,0%,0%)" x1="205.069065489" x2="203.141566526" y1="252.245853165" y2="254.153506388" /><line stroke="rgb(0%,0%,0%)" x1="205.069065489" x2="205.919417715" y1="252.245853165" y2="251.196316408" /><line stroke="rgb(0%,0%,0%)" x1="202.258277393" x2="200.377578878" y1="255.939720577" y2="257.921239289" /><line stroke="rgb(0%,0%,0%)" x1="203.141566526" x2="202.258277393" y1="254.153506388" y2="255.939720577" /><line stroke="rgb(0%,0%,0%)" x1="205.919417715" x2="207.391298382" y1="251.196316408" y2="247.830693098" /><line stroke="rgb(0%,0%,0%)" x1="214.413009505" x2="209.132470109" y1="240.866538926" y2="244.798138677" /><line stroke="rgb(0%,0%,0%)" x1="209.132470109" x2="208.440435141" y1="244.798138677" y2="245.486264479" /><line stroke="rgb(0%,0%,0%)" x1="217.296638843" x2="214.413009505" y1="239.206991295" y2="240.866538926" /><line stroke="rgb(0%,0%,0%)" x1="161.638799441" x2="158.69107087" y1="276.1763423" y2="277.755743978" /><line stroke="rgb(0%,0%,0%)" x1="161.638799441" x2="165.342661023" y1="276.1763423" y2="274.479093932" /><line stroke="rgb(0%,0%,0%)" x1="174.360087055" x2="165.342661023" y1="271.056536756" y2="274.479093932" /><line stroke="rgb(0%,0%,0%)" x1="175.90356013" x2="174.360087055" y1="270.205046431" y2="271.056536756" /><line stroke="rgb(0%,0%,0%)" x1="179.712931993" x2="175.90356013" y1="270.050832565" y2="270.205046431" /><line stroke="rgb(0%,0%,0%)" x1="181.77007639" x2="179.712931993" y1="269.541638015" y2="270.050832565" /><line stroke="rgb(0%,0%,0%)" x1="181.77007639" x2="184.216414647" y1="269.541638015" y2="269.730203612" /><line stroke="rgb(0%,0%,0%)" x1="187.773828185" x2="184.655200592" y1="267.442536036" y2="269.677820129" /><line stroke="rgb(0%,0%,0%)" x1="187.773828185" x2="189.223048365" y1="267.442536036" y2="266.26398548" /><line stroke="rgb(0%,0%,0%)" x1="190.664754346" x2="189.223048365" y1="264.636099132" y2="266.26398548" /><line stroke="rgb(0%,0%,0%)" x1="184.655200592" x2="184.465352301" y1="269.677820129" y2="269.714530904" /><line stroke="rgb(0%,0%,0%)" x1="184.465352301" x2="184.216414647" y1="269.714530904" y2="269.730203612" /><line stroke="rgb(0%,0%,0%)" x1="194.96676184" x2="193.893766226" y1="262.273712596" y2="262.936731035" /><line stroke="rgb(0%,0%,0%)" x1="195.981407885" x2="194.96676184" y1="261.853122674" y2="262.273712596" /><line stroke="rgb(0%,0%,0%)" x1="200.377578878" x2="199.88760238" y1="257.921239289" y2="258.811324499" /><line stroke="rgb(0%,0%,0%)" x1="208.186946927" x2="207.391298382" y1="245.932766048" y2="247.830693098" /><line stroke="rgb(0%,0%,0%)" x1="208.440435141" x2="208.186946927" y1="245.486264479" y2="245.932766048" /><line stroke="rgb(0%,0%,0%)" x1="131.934982812" x2="122.414863922" y1="286.310383252" y2="289.483221481" /><line stroke="rgb(0%,0%,0%)" x1="132.938223387" x2="131.934982812" y1="286.230875392" y2="286.310383252" /><line stroke="rgb(0%,0%,0%)" x1="137.826604751" x2="140.695248781" y1="285.22288729" y2="282.886955103" /><line stroke="rgb(0%,0%,0%)" x1="137.826604751" x2="133.776309102" y1="285.22288729" y2="285.86649082" /><line stroke="rgb(0%,0%,0%)" x1="140.793903857" x2="140.695248781" y1="282.847759288" y2="282.886955103" /><line stroke="rgb(0%,0%,0%)" x1="158.69107087" x2="140.94795975" y1="277.755743978" y2="282.796208924" /><line stroke="rgb(0%,0%,0%)" x1="140.94795975" x2="140.793903857" y1="282.796208924" y2="282.847759288" /><line stroke="rgb(0%,0%,0%)" x1="100.892591175" x2="98.5895710453" y1="302.231587373" y2="304.300443504" /><line stroke="rgb(0%,0%,0%)" x1="98.5895710453" x2="93.3186518758" y1="304.300443504" y2="307.615220479" /><line stroke="rgb(0%,0%,0%)" x1="106.280977411" x2="100.892591175" y1="296.547382613" y2="302.231587373" /><line stroke="rgb(0%,0%,0%)" x1="106.357442717" x2="106.280977411" y1="296.519261797" y2="296.547382613" /><line stroke="rgb(0%,0%,0%)" x1="106.357442717" x2="108.71632192" y1="296.519261797" y2="295.43705452" /><line stroke="rgb(0%,0%,0%)" x1="121.304882281" x2="108.71632192" y1="289.937639485" y2="295.43705452" /><line stroke="rgb(0%,0%,0%)" x1="122.084377433" x2="121.304882281" y1="289.666964901" y2="289.937639485" /><line stroke="rgb(0%,0%,0%)" x1="122.414863922" x2="122.084377433" y1="289.483221481" y2="289.666964901" /><line stroke="rgb(0%,0%,0%)" x1="133.776309102" x2="132.938223387" y1="285.86649082" y2="286.230875392" /><line stroke="rgb(0%,0%,0%)" x1="67.3280156697" x2="75.099124008" y1="325.991935934" y2="320.171788129" /><line stroke="rgb(0%,0%,0%)" x1="67.3280156697" x2="52.7607384426" y1="325.991935934" y2="337.555846673" /><line stroke="rgb(0%,0%,0%)" x1="78.1726159704" x2="77.4852628111" y1="317.890440076" y2="318.600172711" /><line stroke="rgb(0%,0%,0%)" x1="80.8878773676" x2="78.1726159704" y1="316.177800993" y2="317.890440076" /><line stroke="rgb(0%,0%,0%)" x1="80.8878773676" x2="87.9772780967" y1="316.177800993" y2="311.424443559" /><line stroke="rgb(0%,0%,0%)" x1="89.7767413614" x2="87.9772780967" y1="310.16241088" y2="311.424443559" /><line stroke="rgb(0%,0%,0%)" x1="93.3186518758" x2="89.7767413614" y1="307.615220479" y2="310.16241088" /><line stroke="rgb(0%,0%,0%)" x1="30.8590331041" x2="37.0052912978" y1="393.61953834" y2="400.904033668" /><line stroke="rgb(0%,0%,0%)" x1="41.6358821566" x2="40.6197739701" y1="433.626278559" y2="435.203981632" /><line stroke="rgb(0%,0%,0%)" x1="41.6358821566" x2="45.8967185847" y1="433.626278559" y2="431.089355231" /><line stroke="rgb(0%,0%,0%)" x1="48.2387563338" x2="47.3851688634" y1="427.288440114" y2="429.818566964" /><line stroke="rgb(0%,0%,0%)" x1="49.5063067399" x2="49.6692746919" y1="424.918662366" y2="423.717509125" /><line stroke="rgb(0%,0%,0%)" x1="49.5063067399" x2="48.2387563338" y1="424.918662366" y2="427.288440114" /><line stroke="rgb(0%,0%,0%)" x1="48.0501551419" x2="49.6692746919" y1="422.401323771" y2="423.717509125" /><line stroke="rgb(0%,0%,0%)" x1="46.1251931535" x2="48.0501551419" y1="417.175130694" y2="422.401323771" /><line stroke="rgb(0%,0%,0%)" x1="43.3885318739" x2="46.1251931535" y1="412.148622605" y2="417.175130694" /><line stroke="rgb(0%,0%,0%)" x1="43.3885318739" x2="38.7832484554" y1="412.148622605" y2="403.75235994" /><line stroke="rgb(0%,0%,0%)" x1="50.4915077045" x2="47.0140585265" y1="339.019505997" y2="343.216085278" /><line stroke="rgb(0%,0%,0%)" x1="47.0140585265" x2="40.9916426521" y1="343.216085278" y2="345.894025711" /><line stroke="rgb(0%,0%,0%)" x1="52.7607384426" x2="50.4915077045" y1="337.555846673" y2="339.019505997" /><line stroke="rgb(0%,0%,0%)" x1="77.4852628111" x2="76.9729834577" y1="318.600172711" y2="319.192103279" /><line stroke="rgb(0%,0%,0%)" x1="17.7079558251" x2="17.6516490252" y1="460.426728316" y2="461.535684986" /><line stroke="rgb(0%,0%,0%)" x1="17.7079558251" x2="19.1963582035" y1="460.426728316" y2="452.352361656" /><line stroke="rgb(0%,0%,0%)" x1="23.0764620837" x2="19.1963582035" y1="447.934174079" y2="452.352361656" /><line stroke="rgb(0%,0%,0%)" x1="23.2825493729" x2="23.0764620837" y1="447.710895152" y2="447.934174079" /><line stroke="rgb(0%,0%,0%)" x1="25.7245574821" x2="23.2825493729" y1="444.512744029" y2="447.710895152" /><line stroke="rgb(0%,0%,0%)" x1="27.1974731166" x2="25.5050511627" y1="386.854624265" y2="382.062119283" /><line stroke="rgb(0%,0%,0%)" x1="24.7221168815" x2="25.5050511627" y1="379.950257653" y2="382.062119283" /><line stroke="rgb(0%,0%,0%)" x1="24.9172920431" x2="24.7221168815" y1="376.922701417" y2="379.950257653" /><line stroke="rgb(0%,0%,0%)" x1="25.9977340636" x2="24.9172920431" y1="373.36196369" y2="376.922701417" /><line stroke="rgb(0%,0%,0%)" x1="30.7505418405" x2="26.460459882" y1="358.801909247" y2="371.098091251" /><line stroke="rgb(0%,0%,0%)" x1="25.9977340636" x2="26.460459882" y1="373.36196369" y2="371.098091251" /><line stroke="rgb(0%,0%,0%)" x1="25.7245574821" x2="37.8469032209" y1="444.512744029" y2="437.368606948" /><line stroke="rgb(0%,0%,0%)" x1="38.9058140839" x2="37.8469032209" y1="436.353983127" y2="437.368606948" /><line stroke="rgb(0%,0%,0%)" x1="40.6197739701" x2="38.9058140839" y1="435.203981632" y2="436.353983127" /><line stroke="rgb(0%,0%,0%)" x1="37.6461424136" x2="38.7832484554" y1="401.965328487" y2="403.75235994" /><line stroke="rgb(0%,0%,0%)" x1="37.0052912978" x2="37.6461424136" y1="400.904033668" y2="401.965328487" /><line stroke="rgb(0%,0%,0%)" x1="30.8590331041" x2="27.1974731166" y1="393.61953834" y2="386.854624265" /><line stroke="rgb(0%,0%,0%)" x1="30.7505418405" x2="34.9929247175" y1="358.801909247" y2="352.837632507" /><line stroke="rgb(0%,0%,0%)" x1="40.9916426521" x2="34.9929247175" y1="345.894025711" y2="352.837632507" /><line stroke="rgb(0%,0%,0%)" x1="47.004019413" x2="45.8967185847" y1="430.295146642" y2="431.089355231" /><line stroke="rgb(0%,0%,0%)" x1="47.3851688634" x2="47.004019413" y1="429.818566964" y2="430.295146642" /><line stroke="rgb(0%,0%,0%)" x1="484.521266981" x2="485.670521201" y1="346.070161444" y2="348.092556516" /><line stroke="rgb(0%,0%,0%)" x1="484.521266981" x2="484.057698144" y1="346.070161444" y2="345.222042736" /><line stroke="rgb(0%,0%,0%)" x1="531.907652215" x2="532.421670046" y1="491.681923734" y2="487.299673149" /><line stroke="rgb(0%,0%,0%)" x1="533.07345097" x2="532.421670046" y1="484.329903474" y2="487.299673149" /><line stroke="rgb(0%,0%,0%)" x1="533.07345097" x2="533.431544472" y1="484.329903474" y2="479.222181772" /><line stroke="rgb(0%,0%,0%)" x1="534.14524057" x2="533.431544472" y1="472.30281087" y2="479.222181772" /><line stroke="rgb(0%,0%,0%)" x1="534.704203903" x2="534.14524057" y1="469.660758992" y2="472.30281087" /><line stroke="rgb(0%,0%,0%)" x1="534.704203903" x2="534.389391963" y1="469.660758992" y2="467.159154027" /><line stroke="rgb(0%,0%,0%)" x1="461.391950847" x2="464.722094515" y1="313.934151998" y2="316.749778607" /><line stroke="rgb(0%,0%,0%)" x1="478.834233034" x2="478.510635573" y1="334.748070711" y2="334.20675152" /><line stroke="rgb(0%,0%,0%)" x1="471.145419167" x2="466.904752353" y1="324.000113003" y2="319.728054826" /><line stroke="rgb(0%,0%,0%)" x1="491.393058634" x2="485.670521201" y1="354.718540077" y2="348.092556516" /><line stroke="rgb(0%,0%,0%)" x1="484.057698144" x2="478.834233034" y1="345.222042736" y2="334.748070711" /><line stroke="rgb(0%,0%,0%)" x1="504.319991195" x2="509.298552549" y1="378.757262387" y2="388.087873543" /><line stroke="rgb(0%,0%,0%)" x1="504.319991195" x2="502.801773376" y1="378.757262387" y2="376.446891055" /><line stroke="rgb(0%,0%,0%)" x1="502.801773376" x2="500.038844113" y1="376.446891055" y2="370.446092815" /><line stroke="rgb(0%,0%,0%)" x1="498.220921123" x2="500.038844113" y1="366.617127276" y2="370.446092815" /><line stroke="rgb(0%,0%,0%)" x1="498.220921123" x2="493.218515078" y1="366.617127276" y2="356.975021976" /><line stroke="rgb(0%,0%,0%)" x1="493.218515078" x2="491.393058634" y1="356.975021976" y2="354.718540077" /><line stroke="rgb(0%,0%,0%)" x1="513.182850112" x2="509.298552549" y1="392.787899471" y2="388.087873543" /><line stroke="rgb(0%,0%,0%)" x1="534.389391963" x2="534.931698014" y1="467.159154027" y2="462.916406939" /><line stroke="rgb(0%,0%,0%)" x1="534.931698014" x2="534.777958529" y1="462.916406939" y2="461.255357205" /><line stroke="rgb(0%,0%,0%)" x1="437.493093445" x2="432.963999257" y1="290.91057241" y2="286.081308025" /><line stroke="rgb(0%,0%,0%)" x1="437.493093445" x2="448.637610301" y1="290.91057241" y2="302.957777689" /><line stroke="rgb(0%,0%,0%)" x1="466.904752353" x2="464.722094515" y1="319.728054826" y2="316.749778607" /><line stroke="rgb(0%,0%,0%)" x1="461.391950847" x2="452.156252528" y1="313.934151998" y2="306.180584944" /><line stroke="rgb(0%,0%,0%)" x1="452.156252528" x2="450.895048035" y1="306.180584944" y2="305.136781062" /><line stroke="rgb(0%,0%,0%)" x1="478.510635573" x2="476.196201791" y1="334.20675152" y2="331.106016283" /><line stroke="rgb(0%,0%,0%)" x1="476.196201791" x2="476.079516499" y1="331.106016283" y2="330.228805304" /><line stroke="rgb(0%,0%,0%)" x1="476.079516499" x2="475.261327727" y1="330.228805304" y2="329.191884168" /><line stroke="rgb(0%,0%,0%)" x1="475.261327727" x2="474.638679276" y1="329.191884168" y2="327.811925855" /><line stroke="rgb(0%,0%,0%)" x1="471.145419167" x2="474.638679276" y1="324.000113003" y2="327.811925855" /><line stroke="rgb(0%,0%,0%)" x1="428.623367197" x2="424.380864517" y1="281.450468856" y2="277.795037015" /><line stroke="rgb(0%,0%,0%)" x1="449.982666785" x2="448.637610301" y1="304.57216826" y2="302.957777689" /><line stroke="rgb(0%,0%,0%)" x1="432.963999257" x2="428.623367197" y1="286.081308025" y2="281.450468856" /><line stroke="rgb(0%,0%,0%)" x1="450.895048035" x2="449.982666785" y1="305.136781062" y2="304.57216826" /><line stroke="rgb(0%,0%,0%)" x1="368.370089295" x2="368.723687747" y1="736.700283868" y2="732.295509796" /><line stroke="rgb(0%,0%,0%)" x1="381.484734263" x2="386.37067781" y1="663.823539187" y2="661.965815305" /><line stroke="rgb(0%,0%,0%)" x1="386.37067781" x2="387.757793458" y1="661.965815305" y2="659.458848381" /><line stroke="rgb(0%,0%,0%)" x1="395.900425535" x2="388.762415706" y1="655.215418804" y2="658.978390146" /><line stroke="rgb(0%,0%,0%)" x1="387.757793458" x2="388.762415706" y1="659.458848381" y2="658.978390146" /><line stroke="rgb(0%,0%,0%)" x1="395.900425535" x2="397.270343951" y1="655.215418804" y2="655.231416211" /><line stroke="rgb(0%,0%,0%)" x1="399.363389024" x2="397.270343951" y1="653.857686695" y2="655.231416211" /><line stroke="rgb(0%,0%,0%)" x1="399.363389024" x2="401.02926167" y1="653.857686695" y2="653.433040838" /><line stroke="rgb(0%,0%,0%)" x1="401.02926167" x2="405.52622052" y1="653.433040838" y2="650.781458029" /><line stroke="rgb(0%,0%,0%)" x1="405.52622052" x2="413.418685807" y1="650.781458029" y2="645.42209844" /><line stroke="rgb(0%,0%,0%)" x1="413.418685807" x2="416.610798571" y1="645.42209844" y2="643.732304137" /><line stroke="rgb(0%,0%,0%)" x1="416.610798571" x2="418.844185328" y1="643.732304137" y2="642.717296358" /><line stroke="rgb(0%,0%,0%)" x1="298.215682907" x2="301.489363776" y1="748.721189636" y2="761.342937713" /><line stroke="rgb(0%,0%,0%)" x1="346.698423668" x2="346.213043675" y1="824.261841436" y2="824.844779489" /><line stroke="rgb(0%,0%,0%)" x1="346.698423668" x2="347.443906904" y1="824.261841436" y2="823.163049747" /><line stroke="rgb(0%,0%,0%)" x1="363.481818534" x2="361.638756416" y1="797.420623191" y2="801.083694547" /><line stroke="rgb(0%,0%,0%)" x1="363.481818534" x2="364.581450367" y1="797.420623191" y2="790.366665373" /><line stroke="rgb(0%,0%,0%)" x1="368.649676819" x2="365.787566483" y1="772.303692745" y2="783.652241397" /><line stroke="rgb(0%,0%,0%)" x1="364.581450367" x2="364.490937833" y1="790.366665373" y2="788.812868198" /><line stroke="rgb(0%,0%,0%)" x1="364.490937833" x2="365.787566483" y1="788.812868198" y2="783.652241397" /><line stroke="rgb(0%,0%,0%)" x1="368.649676819" x2="368.931813719" y1="772.303692745" y2="768.35094397" /><line stroke="rgb(0%,0%,0%)" x1="368.931813719" x2="369.031098339" y1="768.35094397" y2="765.242542446" /><line stroke="rgb(0%,0%,0%)" x1="366.727285305" x2="367.654571291" y1="752.722896285" y2="759.715730113" /><line stroke="rgb(0%,0%,0%)" x1="369.031098339" x2="367.654571291" y1="765.242542446" y2="759.715730113" /><line stroke="rgb(0%,0%,0%)" x1="366.982586431" x2="366.388907297" y1="749.791156011" y2="747.55238457" /><line stroke="rgb(0%,0%,0%)" x1="366.727285305" x2="366.982586431" y1="752.722896285" y2="749.791156011" /><line stroke="rgb(0%,0%,0%)" x1="368.370089295" x2="367.220087397" y1="736.700283868" y2="743.225163614" /><line stroke="rgb(0%,0%,0%)" x1="368.723687747" x2="367.915286594" y1="732.295509796" y2="719.470502075" /><line stroke="rgb(0%,0%,0%)" x1="364.056258285" x2="367.781174012" y1="706.959069595" y2="718.700520979" /><line stroke="rgb(0%,0%,0%)" x1="364.056258285" x2="361.491735462" y1="706.959069595" y2="696.809973108" /><line stroke="rgb(0%,0%,0%)" x1="361.491735462" x2="361.128405216" y1="696.809973108" y2="692.524187487" /><line stroke="rgb(0%,0%,0%)" x1="361.128405216" x2="362.160942519" y1="692.524187487" y2="684.407056871" /><line stroke="rgb(0%,0%,0%)" x1="363.301712246" x2="362.160942519" y1="680.784801778" y2="684.407056871" /><line stroke="rgb(0%,0%,0%)" x1="363.301712246" x2="364.731214545" y1="680.784801778" y2="676.443301566" /><line stroke="rgb(0%,0%,0%)" x1="365.05732933" x2="364.731214545" y1="675.665139521" y2="676.443301566" /><line stroke="rgb(0%,0%,0%)" x1="365.05732933" x2="365.870000636" y1="675.665139521" y2="675.029051318" /><line stroke="rgb(0%,0%,0%)" x1="365.870000636" x2="366.775342542" y1="675.029051318" y2="672.535190406" /><line stroke="rgb(0%,0%,0%)" x1="366.775342542" x2="368.596881857" y1="672.535190406" y2="671.620388117" /><line stroke="rgb(0%,0%,0%)" x1="368.596881857" x2="370.413529553" y1="671.620388117" y2="669.119667518" /><line stroke="rgb(0%,0%,0%)" x1="367.915286594" x2="367.907584462" y1="719.470502075" y2="719.228384075" /><line stroke="rgb(0%,0%,0%)" x1="370.413529553" x2="374.125616013" y1="669.119667518" y2="667.676816711" /><line stroke="rgb(0%,0%,0%)" x1="381.484734263" x2="376.436435919" y1="663.823539187" y2="666.611428789" /><line stroke="rgb(0%,0%,0%)" x1="374.125616013" x2="376.436435919" y1="667.676816711" y2="666.611428789" /><line stroke="rgb(0%,0%,0%)" x1="295.688360315" x2="293.007869339" y1="738.739756262" y2="731.103611599" /><line stroke="rgb(0%,0%,0%)" x1="295.688360315" x2="298.215682907" y1="738.739756262" y2="748.721189636" /><line stroke="rgb(0%,0%,0%)" x1="289.708143755" x2="285.2742532" y1="723.678080998" y2="718.267968192" /><line stroke="rgb(0%,0%,0%)" x1="289.708143755" x2="293.007869339" y1="723.678080998" y2="731.103611599" /><line stroke="rgb(0%,0%,0%)" x1="301.489363776" x2="301.778531285" y1="761.342937713" y2="762.613599949" /><line stroke="rgb(0%,0%,0%)" x1="327.143040455" x2="330.126705492" y1="833.371611706" y2="833.807287132" /><line stroke="rgb(0%,0%,0%)" x1="333.395115375" x2="330.126705492" y1="833.710120975" y2="833.807287132" /><line stroke="rgb(0%,0%,0%)" x1="320.060705247" x2="322.188781893" y1="829.503831271" y2="831.495162072" /><line stroke="rgb(0%,0%,0%)" x1="333.395115375" x2="336.145510553" y1="833.710120975" y2="833.705336473" /><line stroke="rgb(0%,0%,0%)" x1="338.767345643" x2="336.145510553" y1="832.16627036" y2="833.705336473" /><line stroke="rgb(0%,0%,0%)" x1="338.767345643" x2="346.213043675" y1="832.16627036" y2="824.844779489" /><line stroke="rgb(0%,0%,0%)" x1="347.443906904" x2="351.395977563" y1="823.163049747" y2="816.624826418" /><line stroke="rgb(0%,0%,0%)" x1="351.395977563" x2="352.515183336" y1="816.624826418" y2="814.998104648" /><line stroke="rgb(0%,0%,0%)" x1="352.515183336" x2="358.598193036" y1="814.998104648" y2="807.134657142" /><line stroke="rgb(0%,0%,0%)" x1="358.598193036" x2="359.669919732" y1="807.134657142" y2="805.85444795" /><line stroke="rgb(0%,0%,0%)" x1="359.669919732" x2="359.706806173" y1="805.85444795" y2="804.892149211" /><line stroke="rgb(0%,0%,0%)" x1="359.706806173" x2="361.638756416" y1="804.892149211" y2="801.083694547" /><line stroke="rgb(0%,0%,0%)" x1="366.388907297" x2="367.220087397" y1="747.55238457" y2="743.225163614" /><line stroke="rgb(0%,0%,0%)" x1="367.907584462" x2="367.781174012" y1="719.228384075" y2="718.700520979" /><line stroke="rgb(0%,0%,0%)" x1="276.837140339" x2="266.658211241" y1="709.181994754" y2="694.19389605" /><line stroke="rgb(0%,0%,0%)" x1="279.779229922" x2="285.2742532" y1="713.068661041" y2="718.267968192" /><line stroke="rgb(0%,0%,0%)" x1="276.837140339" x2="279.779229922" y1="709.181994754" y2="713.068661041" /><line stroke="rgb(0%,0%,0%)" x1="326.056672597" x2="327.143040455" y1="832.965959194" y2="833.371611706" /><line stroke="rgb(0%,0%,0%)" x1="322.188781893" x2="326.056672597" y1="831.495162072" y2="832.965959194" /><line stroke="rgb(0%,0%,0%)" x1="215.974399689" x2="221.245896015" y1="683.772287919" y2="683.209459487" /><line stroke="rgb(0%,0%,0%)" x1="234.961526942" x2="233.51699115" y1="676.890257709" y2="677.823570605" /><line stroke="rgb(0%,0%,0%)" x1="234.961526942" x2="236.881414962" y1="676.890257709" y2="674.853793934" /><line stroke="rgb(0%,0%,0%)" x1="246.123050943" x2="241.716226659" y1="671.937409078" y2="671.606272041" /><line stroke="rgb(0%,0%,0%)" x1="246.123050943" x2="249.173615866" y1="671.937409078" y2="674.444774919" /><line stroke="rgb(0%,0%,0%)" x1="249.173615866" x2="261.402682835" y1="674.444774919" y2="686.616109243" /><line stroke="rgb(0%,0%,0%)" x1="261.402682835" x2="264.142705249" y1="686.616109243" y2="691.652435354" /><line stroke="rgb(0%,0%,0%)" x1="264.142705249" x2="266.658211241" y1="691.652435354" y2="694.19389605" /><line stroke="rgb(0%,0%,0%)" x1="200.476467656" x2="199.766228852" y1="667.864411479" y2="667.434375851" /><line stroke="rgb(0%,0%,0%)" x1="199.766228852" x2="196.900647845" y1="667.434375851" y2="664.981689431" /><line stroke="rgb(0%,0%,0%)" x1="192.544897592" x2="192.07708264" y1="660.120470262" y2="659.948729813" /><line stroke="rgb(0%,0%,0%)" x1="208.423343576" x2="213.788518937" y1="678.749087004" y2="682.872416589" /><line stroke="rgb(0%,0%,0%)" x1="215.974399689" x2="213.788518937" y1="683.772287919" y2="682.872416589" /><line stroke="rgb(0%,0%,0%)" x1="204.080464507" x2="208.423343576" y1="671.716010582" y2="678.749087004" /><line stroke="rgb(0%,0%,0%)" x1="204.080464507" x2="203.209185611" y1="671.716010582" y2="670.985819572" /><line stroke="rgb(0%,0%,0%)" x1="200.959387202" x2="203.209185611" y1="668.278171906" y2="670.985819572" /><line stroke="rgb(0%,0%,0%)" x1="200.476467656" x2="200.959387202" y1="667.864411479" y2="668.278171906" /><line stroke="rgb(0%,0%,0%)" x1="224.028792761" x2="224.559790101" y1="683.285942734" y2="683.035055238" /><line stroke="rgb(0%,0%,0%)" x1="221.245896015" x2="224.028792761" y1="683.209459487" y2="683.285942734" /><line stroke="rgb(0%,0%,0%)" x1="236.881414962" x2="241.716226659" y1="674.853793934" y2="671.606272041" /><line stroke="rgb(0%,0%,0%)" x1="166.964934097" x2="171.045414998" y1="649.957784989" y2="651.395311988" /><line stroke="rgb(0%,0%,0%)" x1="171.045414998" x2="174.645057706" y1="651.395311988" y2="651.236644119" /><line stroke="rgb(0%,0%,0%)" x1="162.739425246" x2="164.647897316" y1="646.509208718" y2="647.862958305" /><line stroke="rgb(0%,0%,0%)" x1="184.612328796" x2="182.252261431" y1="655.736963131" y2="652.5885203" /><line stroke="rgb(0%,0%,0%)" x1="174.645057706" x2="181.022576776" y1="651.236644119" y2="652.375251921" /><line stroke="rgb(0%,0%,0%)" x1="181.022576776" x2="181.815759551" y1="652.375251921" y2="652.469023101" /><line stroke="rgb(0%,0%,0%)" x1="193.966802704" x2="195.332802645" y1="661.853549237" y2="663.250624435" /><line stroke="rgb(0%,0%,0%)" x1="192.544897592" x2="193.966802704" y1="660.120470262" y2="661.853549237" /><line stroke="rgb(0%,0%,0%)" x1="189.978466421" x2="192.07708264" y1="659.536035761" y2="659.948729813" /><line stroke="rgb(0%,0%,0%)" x1="189.978466421" x2="189.255608647" y1="659.536035761" y2="658.636195344" /><line stroke="rgb(0%,0%,0%)" x1="184.612328796" x2="186.612913941" y1="655.736963131" y2="657.905563869" /><line stroke="rgb(0%,0%,0%)" x1="181.815759551" x2="182.252261431" y1="652.469023101" y2="652.5885203" /><line stroke="rgb(0%,0%,0%)" x1="195.408662827" x2="196.900647845" y1="663.480433019" y2="664.981689431" /><line stroke="rgb(0%,0%,0%)" x1="195.332802645" x2="195.408662827" y1="663.250624435" y2="663.480433019" /><line stroke="rgb(0%,0%,0%)" x1="127.380450332" x2="133.946732431" y1="632.126667391" y2="635.404849337" /><line stroke="rgb(0%,0%,0%)" x1="140.930928838" x2="137.839245848" y1="637.194117361" y2="636.70878717" /><line stroke="rgb(0%,0%,0%)" x1="135.046212531" x2="137.839245848" y1="635.865178628" y2="636.70878717" /><line stroke="rgb(0%,0%,0%)" x1="162.739425246" x2="157.742090372" y1="646.509208718" y2="643.546932258" /><line stroke="rgb(0%,0%,0%)" x1="146.892581026" x2="157.742090372" y1="639.813730441" y2="643.546932258" /><line stroke="rgb(0%,0%,0%)" x1="140.930928838" x2="142.327281997" y1="637.194117361" y2="637.67435586" /><line stroke="rgb(0%,0%,0%)" x1="142.327281997" x2="146.892581026" y1="637.67435586" y2="639.813730441" /><line stroke="rgb(0%,0%,0%)" x1="164.647897316" x2="166.964934097" y1="647.862958305" y2="649.957784989" /><line stroke="rgb(0%,0%,0%)" x1="101.826337795" x2="98.2988749717" y1="621.520538588" y2="619.373456196" /><line stroke="rgb(0%,0%,0%)" x1="101.826337795" x2="103.628060287" y1="621.520538588" y2="622.930528742" /><line stroke="rgb(0%,0%,0%)" x1="90.9718618976" x2="91.2368183562" y1="615.400610648" y2="615.52619618" /><line stroke="rgb(0%,0%,0%)" x1="90.5250841211" x2="90.9718618976" y1="615.07113818" y2="615.400610648" /><line stroke="rgb(0%,0%,0%)" x1="98.0081142856" x2="98.2988749717" y1="618.721750668" y2="619.373456196" /><line stroke="rgb(0%,0%,0%)" x1="90.5250841211" x2="90.2280945346" y1="615.07113818" y2="614.89195653" /><line stroke="rgb(0%,0%,0%)" x1="103.628060287" x2="113.922058343" y1="622.930528742" y2="626.701456717" /><line stroke="rgb(0%,0%,0%)" x1="113.922058343" x2="123.391937061" y1="626.701456717" y2="630.639758998" /><line stroke="rgb(0%,0%,0%)" x1="123.391937061" x2="124.806270715" y1="630.639758998" y2="631.829423384" /><line stroke="rgb(0%,0%,0%)" x1="124.806270715" x2="127.380450332" y1="631.829423384" y2="632.126667391" /><line stroke="rgb(0%,0%,0%)" x1="133.946732431" x2="135.046212531" y1="635.404849337" y2="635.865178628" /><line stroke="rgb(0%,0%,0%)" x1="49.0040371415" x2="48.645790304" y1="498.523355076" y2="499.605563366" /><line stroke="rgb(0%,0%,0%)" x1="44.3976599599" x2="44.2886953399" y1="491.545859648" y2="491.132396626" /><line stroke="rgb(0%,0%,0%)" x1="56.2399891542" x2="59.8926393756" y1="594.202828997" y2="596.914978778" /><line stroke="rgb(0%,0%,0%)" x1="59.8926393756" x2="61.5382231295" y1="596.914978778" y2="597.641127981" /><line stroke="rgb(0%,0%,0%)" x1="56.2399891542" x2="52.6068034238" y1="594.202828997" y2="592.240865504" /><line stroke="rgb(0%,0%,0%)" x1="76.2670461961" x2="76.6275287318" y1="606.607765265" y2="606.866310035" /><line stroke="rgb(0%,0%,0%)" x1="68.7881483835" x2="76.2670461961" y1="602.867399352" y2="606.607765265" /><line stroke="rgb(0%,0%,0%)" x1="61.5382231295" x2="66.1957978684" y1="597.641127981" y2="600.300348976" /><line stroke="rgb(0%,0%,0%)" x1="66.1957978684" x2="68.7881483835" y1="600.300348976" y2="602.867399352" /><line stroke="rgb(0%,0%,0%)" x1="85.2847341348" x2="90.2280945346" y1="611.950661148" y2="614.89195653" /><line stroke="rgb(0%,0%,0%)" x1="85.2847341348" x2="76.6275287318" y1="611.950661148" y2="606.866310035" /><line stroke="rgb(0%,0%,0%)" x1="91.2368183562" x2="96.3068580991" y1="615.52619618" y2="618.607294011" /><line stroke="rgb(0%,0%,0%)" x1="96.3068580991" x2="97.1806890732" y1="618.607294011" y2="618.7973921" /><line stroke="rgb(0%,0%,0%)" x1="97.1806890732" x2="98.0081142856" y1="618.7973921" y2="618.721750668" /><line stroke="rgb(0%,0%,0%)" x1="22.4518127757" x2="25.5907693846" y1="474.877038046" y2="478.766443224" /><line stroke="rgb(0%,0%,0%)" x1="20.1207658192" x2="18.9580871381" y1="471.676119084" y2="468.652572786" /><line stroke="rgb(0%,0%,0%)" x1="20.1207658192" x2="22.4518127757" y1="471.676119084" y2="474.877038046" /><line stroke="rgb(0%,0%,0%)" x1="17.9066378033" x2="18.9580871381" y1="464.933524307" y2="468.652572786" /><line stroke="rgb(0%,0%,0%)" x1="17.9066378033" x2="17.6516490252" y1="464.933524307" y2="461.535684986" /><line stroke="rgb(0%,0%,0%)" x1="37.8993750725" x2="35.1304309839" y1="578.755865694" y2="575.961844596" /><line stroke="rgb(0%,0%,0%)" x1="31.644829001" x2="35.1304309839" y1="571.472665695" y2="575.961844596" /><line stroke="rgb(0%,0%,0%)" x1="31.644829001" x2="27.3952164277" y1="571.472665695" y2="561.282830204" /><line stroke="rgb(0%,0%,0%)" x1="26.2744539066" x2="26.1497994318" y1="549.859647114" y2="555.443411042" /><line stroke="rgb(0%,0%,0%)" x1="26.1497994318" x2="26.4527370264" y1="555.443411042" y2="558.954953858" /><line stroke="rgb(0%,0%,0%)" x1="26.1629787145" x2="26.0103547849" y1="545.238442565" y2="545.687811656" /><line stroke="rgb(0%,0%,0%)" x1="26.0103547849" x2="26.2744539066" y1="545.687811656" y2="549.859647114" /><line stroke="rgb(0%,0%,0%)" x1="26.1629787145" x2="26.0672452819" y1="545.238442565" y2="544.321816856" /><line stroke="rgb(0%,0%,0%)" x1="26.0672452819" x2="28.1535381386" y1="544.321816856" y2="534.49419812" /><line stroke="rgb(0%,0%,0%)" x1="31.4670942565" x2="28.3186547976" y1="528.598891723" y2="533.772902588" /><line stroke="rgb(0%,0%,0%)" x1="36.358712401" x2="31.4670942565" y1="521.171761846" y2="528.598891723" /><line stroke="rgb(0%,0%,0%)" x1="36.5011367732" x2="38.0895691605" y1="485.997064041" y2="487.313014108" /><line stroke="rgb(0%,0%,0%)" x1="38.0895691605" x2="38.5284965955" y1="487.313014108" y2="487.641865492" /><line stroke="rgb(0%,0%,0%)" x1="25.5907693846" x2="36.5011367732" y1="478.766443224" y2="485.997064041" /><line stroke="rgb(0%,0%,0%)" x1="39.9840786828" x2="46.8033776439" y1="579.692181245" y2="586.894261697" /><line stroke="rgb(0%,0%,0%)" x1="46.8033776439" x2="50.1697386828" y1="586.894261697" y2="590.686052804" /><line stroke="rgb(0%,0%,0%)" x1="50.1697386828" x2="51.1047133516" y1="590.686052804" y2="591.402853461" /><line stroke="rgb(0%,0%,0%)" x1="39.9840786828" x2="37.8993750725" y1="579.692181245" y2="578.755865694" /><line stroke="rgb(0%,0%,0%)" x1="40.0971972647" x2="36.358712401" y1="513.559282997" y2="521.171761846" /><line stroke="rgb(0%,0%,0%)" x1="42.9654270058" x2="40.0971972647" y1="510.522911874" y2="513.559282997" /><line stroke="rgb(0%,0%,0%)" x1="42.9654270058" x2="43.6831474024" y1="510.522911874" y2="509.152434233" /><line stroke="rgb(0%,0%,0%)" x1="46.1557453405" x2="43.6831474024" y1="502.643425603" y2="509.152434233" /><line stroke="rgb(0%,0%,0%)" x1="48.645790304" x2="46.1557453405" y1="499.605563366" y2="502.643425603" /><line stroke="rgb(0%,0%,0%)" x1="49.0040371415" x2="48.7482159648" y1="498.523355076" y2="496.967751522" /><line stroke="rgb(0%,0%,0%)" x1="47.6747618993" x2="48.7482159648" y1="494.646918515" y2="496.967751522" /><line stroke="rgb(0%,0%,0%)" x1="46.2190542196" x2="47.6747618993" y1="492.984424293" y2="494.646918515" /><line stroke="rgb(0%,0%,0%)" x1="44.3976599599" x2="46.2190542196" y1="491.545859648" y2="492.984424293" /><line stroke="rgb(0%,0%,0%)" x1="39.760886262" x2="44.2886953399" y1="488.683002173" y2="491.132396626" /><line stroke="rgb(0%,0%,0%)" x1="39.760886262" x2="38.5284965955" y1="488.683002173" y2="487.641865492" /><line stroke="rgb(0%,0%,0%)" x1="51.1047133516" x2="52.6068034238" y1="591.402853461" y2="592.240865504" /><line stroke="rgb(0%,0%,0%)" x1="26.4527370264" x2="27.3952164277" y1="558.954953858" y2="561.282830204" /><line stroke="rgb(0%,0%,0%)" x1="28.3118581787" x2="28.1535381386" y1="533.804868478" y2="534.49419812" /><line stroke="rgb(0%,0%,0%)" x1="28.3186547976" x2="28.3118581787" y1="533.772902588" y2="533.804868478" /><line stroke="rgb(0%,0%,0%)" x1="473.999818772" x2="475.29053215" y1="594.38872857" y2="593.313276606" /><line stroke="rgb(0%,0%,0%)" x1="495.167768266" x2="493.175544767" y1="563.43536146" y2="566.525408441" /><line stroke="rgb(0%,0%,0%)" x1="495.167768266" x2="500.285977539" y1="563.43536146" y2="553.706301742" /><line stroke="rgb(0%,0%,0%)" x1="506.352317009" x2="501.954539923" y1="542.368743514" y2="550.103145821" /><line stroke="rgb(0%,0%,0%)" x1="506.352317009" x2="508.43455989" y1="542.368743514" y2="537.62940655" /><line stroke="rgb(0%,0%,0%)" x1="508.43455989" x2="509.653847459" y1="537.62940655" y2="535.397121257" /><line stroke="rgb(0%,0%,0%)" x1="509.653847459" x2="513.354613973" y1="535.397121257" y2="531.176124484" /><line stroke="rgb(0%,0%,0%)" x1="516.392452841" x2="513.354613973" y1="525.205549339" y2="531.176124484" /><line stroke="rgb(0%,0%,0%)" x1="516.392452841" x2="517.214765328" y1="525.205549339" y2="523.957377052" /><line stroke="rgb(0%,0%,0%)" x1="517.214765328" x2="518.808114086" y1="523.957377052" y2="520.975939048" /><line stroke="rgb(0%,0%,0%)" x1="518.808114086" x2="525.587350935" y1="520.975939048" y2="509.890580198" /><line stroke="rgb(0%,0%,0%)" x1="525.587350935" x2="527.182269453" y1="509.890580198" y2="506.978807516" /><line stroke="rgb(0%,0%,0%)" x1="527.182269453" x2="528.612072968" y1="506.978807516" y2="503.51329155" /><line stroke="rgb(0%,0%,0%)" x1="449.83508319" x2="444.220157033" y1="617.69858581" y2="622.490916248" /><line stroke="rgb(0%,0%,0%)" x1="452.715459804" x2="449.83508319" y1="615.523310029" y2="617.69858581" /><line stroke="rgb(0%,0%,0%)" x1="452.715459804" x2="462.301749106" y1="615.523310029" y2="608.475152537" /><line stroke="rgb(0%,0%,0%)" x1="464.033804939" x2="462.301749106" y1="607.132462841" y2="608.475152537" /><line stroke="rgb(0%,0%,0%)" x1="468.520234245" x2="468.590017927" y1="602.434635162" y2="602.358022991" /><line stroke="rgb(0%,0%,0%)" x1="468.590017927" x2="468.636752927" y1="602.358022991" y2="602.287502703" /><line stroke="rgb(0%,0%,0%)" x1="464.033804939" x2="468.520234245" y1="607.132462841" y2="602.434635162" /><line stroke="rgb(0%,0%,0%)" x1="473.999818772" x2="468.636752927" y1="594.38872857" y2="602.287502703" /><line stroke="rgb(0%,0%,0%)" x1="478.394166014" x2="480.263833113" y1="588.599624152" y2="585.139898447" /><line stroke="rgb(0%,0%,0%)" x1="475.29053215" x2="478.394166014" y1="593.313276606" y2="588.599624152" /><line stroke="rgb(0%,0%,0%)" x1="480.263833113" x2="482.581771086" y1="585.139898447" y2="580.911718661" /><line stroke="rgb(0%,0%,0%)" x1="484.636268258" x2="482.581771086" y1="577.136833596" y2="580.911718661" /><line stroke="rgb(0%,0%,0%)" x1="484.636268258" x2="490.978629541" y1="577.136833596" y2="568.944773668" /><line stroke="rgb(0%,0%,0%)" x1="490.978629541" x2="493.175544767" y1="568.944773668" y2="566.525408441" /><line stroke="rgb(0%,0%,0%)" x1="500.285977539" x2="501.954539923" y1="553.706301742" y2="550.103145821" /><line stroke="rgb(0%,0%,0%)" x1="420.464381103" x2="419.376575299" y1="641.634066561" y2="642.513101166" /><line stroke="rgb(0%,0%,0%)" x1="420.464381103" x2="421.521036623" y1="641.634066561" y2="640.936943988" /><line stroke="rgb(0%,0%,0%)" x1="421.521036623" x2="434.314275639" y1="640.936943988" y2="630.284472067" /><line stroke="rgb(0%,0%,0%)" x1="434.314275639" x2="441.093457493" y1="630.284472067" y2="624.589491171" /><line stroke="rgb(0%,0%,0%)" x1="441.093457493" x2="444.220157033" y1="624.589491171" y2="622.490916248" /><line stroke="rgb(0%,0%,0%)" x1="302.843148987" x2="301.778531285" y1="764.92600846" y2="762.613599949" /><line stroke="rgb(0%,0%,0%)" x1="307.643020834" x2="306.486353586" y1="777.067882276" y2="772.374391159" /><line stroke="rgb(0%,0%,0%)" x1="302.843148987" x2="306.486353586" y1="764.92600846" y2="772.374391159" /><line stroke="rgb(0%,0%,0%)" x1="310.143904283" x2="313.015874647" y1="810.426211055" y2="816.643312988" /><line stroke="rgb(0%,0%,0%)" x1="313.015874647" x2="313.150038499" y1="816.643312988" y2="817.320809982" /><line stroke="rgb(0%,0%,0%)" x1="308.413380866" x2="310.143904283" y1="800.574181513" y2="810.426211055" /><line stroke="rgb(0%,0%,0%)" x1="308.425178438" x2="308.413380866" y1="797.561654279" y2="800.574181513" /><line stroke="rgb(0%,0%,0%)" x1="308.993385239" x2="308.425178438" y1="792.16410329" y2="797.561654279" /><line stroke="rgb(0%,0%,0%)" x1="309.532965494" x2="308.993385239" y1="788.32378029" y2="792.16410329" /><line stroke="rgb(0%,0%,0%)" x1="309.131336057" x2="309.532965494" y1="782.725798562" y2="788.32378029" /><line stroke="rgb(0%,0%,0%)" x1="307.643020834" x2="309.131336057" y1="777.067882276" y2="782.725798562" /><line stroke="rgb(0%,0%,0%)" x1="531.667566303" x2="531.907652215" y1="494.320831862" y2="491.681923734" /><line stroke="rgb(0%,0%,0%)" x1="531.667566303" x2="530.495545292" y1="494.320831862" y2="497.818674893" /><line stroke="rgb(0%,0%,0%)" x1="528.612072968" x2="530.495545292" y1="503.51329155" y2="497.818674893" /><line stroke="rgb(0%,0%,0%)" x1="76.2015538181" x2="75.099124008" y1="319.622886416" y2="320.171788129" /><line stroke="rgb(0%,0%,0%)" x1="76.9729834577" x2="76.2015538181" y1="319.192103279" y2="319.622886416" /><line stroke="rgb(0%,0%,0%)" x1="419.376575299" x2="418.844185328" y1="642.513101166" y2="642.717296358" /><line stroke="rgb(0%,0%,0%)" x1="313.150038499" x2="315.349036277" y1="817.320809982" y2="821.142068066" /><line stroke="rgb(0%,0%,0%)" x1="320.060705247" x2="315.349036277" y1="829.503831271" y2="821.142068066" /><line stroke="rgb(0%,0%,0%)" x1="229.189811987" x2="230.172891147" y1="681.166879426" y2="680.165664839" /><line stroke="rgb(0%,0%,0%)" x1="230.172891147" x2="233.51699115" y1="680.165664839" y2="677.823570605" /><line stroke="rgb(0%,0%,0%)" x1="229.189811987" x2="225.697178223" y1="681.166879426" y2="682.572851361" /><line stroke="rgb(0%,0%,0%)" x1="224.559790101" x2="225.697178223" y1="683.035055238" y2="682.572851361" /><line stroke="rgb(0%,0%,0%)" x1="189.255608647" x2="188.194391597" y1="658.636195344" y2="658.36915888" /><line stroke="rgb(0%,0%,0%)" x1="186.612913941" x2="188.194391597" y1="657.905563869" y2="658.36915888" /></svg>