<?xml version="1.0" encoding="utf-8" ?>
<svg baseProfile="full" height="100%" version="1.1" viewBox="0.5 0.5 685.793960571 941.299331665" width="100%" xmlns="http://www.w3.org/2000/svg" xmlns:ev="http://www.w3.org/2001/xml-events" xmlns:xlink="http://www.w3.org/1999/xlink"><defs /><line stroke="rgb(0%,0%,0%)" x1="520.419829893" x2="517.041528726" y1="403.83385598" y2="397.636771938" /><line stroke="rgb(0%,0%,0%)" x1="524.042853448" x2="520.419829893" y1="410.46540375" y2="403.83385598" /><line stroke="rgb(0%,0%,0%)" x1="517.041528726" x2="514.647587745" y1="397.636771938" y2="393.050444841" /><line stroke="rgb(0%,0%,0%)" x1="533.591753752" x2="532.582808935" y1="436.925902823" y2="434.439903158" /><line stroke="rgb(0%,0%,0%)" x1="529.39420185" x2="532.582808935" y1="429.11427886" y2="434.439903158" /><line stroke="rgb(0%,0%,0%)" x1="529.39420185" x2="527.645027095" y1="429.11427886" y2="421.209834436" /><line stroke="rgb(0%,0%,0%)" x1="527.645027095" x2="525.467844842" y1="421.209834436" y2="414.455282699" /><line stroke="rgb(0%,0%,0%)" x1="524.042853448" x2="525.467844842" y1="410.46540375" y2="414.455282699" /><line stroke="rgb(0%,0%,0%)" x1="533.378191629" x2="533.413305567" y1="461.589362183" y2="455.886926249" /><line stroke="rgb(0%,0%,0%)" x1="533.413305567" x2="533.45508908" y1="455.886926249" y2="455.071072732" /><line stroke="rgb(0%,0%,0%)" x1="533.45508908" x2="534.348428498" y1="455.071072732" y2="450.210434506" /><line stroke="rgb(0%,0%,0%)" x1="534.348428498" x2="534.559298332" y1="450.210434506" y2="447.688340778" /><line stroke="rgb(0%,0%,0%)" x1="533.972088393" x2="534.559298332" y1="438.544133128" y2="447.688340778" /><line stroke="rgb(0%,0%,0%)" x1="533.972088393" x2="533.591753752" y1="438.544133128" y2="436.925902823" /><line stroke="rgb(0%,0%,0%)" x1="359.041991607" x2="359.031867447" y1="224.932011385" y2="224.878824122" /><line stroke="rgb(0%,0%,0%)" x1="389.174281603" x2="385.798669035" y1="254.233339696" y2="252.397885288" /><line stroke="rgb(0%,0%,0%)" x1="389.174281603" x2="394.374216564" y1="254.233339696" y2="257.388917466" /><line stroke="rgb(0%,0%,0%)" x1="423.599117464" x2="424.897766312" y1="276.344152421" y2="277.37784661" /><line stroke="rgb(0%,0%,0%)" x1="413.09155225" x2="407.61468104" y1="268.622145289" y2="265.870979622" /><line stroke="rgb(0%,0%,0%)" x1="423.599117464" x2="413.09155225" y1="276.344152421" y2="268.622145289" /><line stroke="rgb(0%,0%,0%)" x1="407.61468104" x2="404.956920532" y1="265.870979622" y2="263.87080045" /><line stroke="rgb(0%,0%,0%)" x1="359.041991607" x2="359.151280012" y1="224.932011385" y2="225.199354942" /><line stroke="rgb(0%,0%,0%)" x1="359.031867447" x2="359.387930589" y1="224.878824122" y2="223.25676235" /><line stroke="rgb(0%,0%,0%)" x1="359.387930589" x2="362.764438471" y1="223.25676235" y2="207.337637182" /><line stroke="rgb(0%,0%,0%)" x1="359.17052088" x2="360.915713297" y1="173.490326185" y2="178.618367727" /><line stroke="rgb(0%,0%,0%)" x1="360.296176635" x2="359.633616476" y1="161.570746071" y2="157.432982281" /><line stroke="rgb(0%,0%,0%)" x1="359.633616476" x2="357.062189023" y1="157.432982281" y2="146.718916306" /><line stroke="rgb(0%,0%,0%)" x1="363.754814067" x2="363.146947863" y1="193.564273829" y2="204.276558856" /><line stroke="rgb(0%,0%,0%)" x1="385.798669035" x2="379.076050602" y1="252.397885288" y2="249.798129285" /><line stroke="rgb(0%,0%,0%)" x1="373.548677773" x2="372.1259007" y1="246.574489866" y2="245.671712173" /><line stroke="rgb(0%,0%,0%)" x1="404.956920532" x2="394.374216564" y1="263.87080045" y2="257.388917466" /><line stroke="rgb(0%,0%,0%)" x1="340.545594752" x2="339.982352568" y1="117.401212092" y2="116.833240043" /><line stroke="rgb(0%,0%,0%)" x1="348.197026836" x2="341.034180388" y1="128.424936541" y2="117.982361728" /><line stroke="rgb(0%,0%,0%)" x1="340.545594752" x2="341.034180388" y1="117.401212092" y2="117.982361728" /><line stroke="rgb(0%,0%,0%)" x1="362.247975052" x2="359.151280012" y1="234.393625327" y2="225.199354942" /><line stroke="rgb(0%,0%,0%)" x1="359.17052088" x2="360.296176635" y1="173.490326185" y2="161.570746071" /><line stroke="rgb(0%,0%,0%)" x1="357.062189023" x2="355.681816883" y1="146.718916306" y2="142.83904778" /><line stroke="rgb(0%,0%,0%)" x1="355.681816883" x2="354.950311706" y1="142.83904778" y2="137.921832067" /><line stroke="rgb(0%,0%,0%)" x1="352.943698905" x2="354.950311706" y1="133.339369918" y2="137.921832067" /><line stroke="rgb(0%,0%,0%)" x1="352.943698905" x2="348.197026836" y1="133.339369918" y2="128.424936541" /><line stroke="rgb(0%,0%,0%)" x1="372.1259007" x2="368.55741647" y1="245.671712173" y2="243.526531388" /><line stroke="rgb(0%,0%,0%)" x1="368.55741647" x2="364.91215128" y1="243.526531388" y2="239.219505769" /><line stroke="rgb(0%,0%,0%)" x1="364.91215128" x2="364.532908968" y1="239.219505769" y2="238.902012994" /><line stroke="rgb(0%,0%,0%)" x1="364.532908968" x2="362.247975052" y1="238.902012994" y2="234.393625327" /><line stroke="rgb(0%,0%,0%)" x1="362.979239216" x2="363.146947863" y1="206.255354515" y2="204.276558856" /><line stroke="rgb(0%,0%,0%)" x1="363.754814067" x2="362.233032015" y1="193.564273829" y2="187.068272771" /><line stroke="rgb(0%,0%,0%)" x1="360.915713297" x2="362.233032015" y1="178.618367727" y2="187.068272771" /><line stroke="rgb(0%,0%,0%)" x1="379.076050602" x2="373.548677773" y1="249.798129285" y2="246.574489866" /><line stroke="rgb(0%,0%,0%)" x1="301.184958521" x2="299.584790465" y1="150.556898121" y2="154.81898777" /><line stroke="rgb(0%,0%,0%)" x1="298.859320634" x2="301.184958521" y1="141.698656751" y2="150.556898121" /><line stroke="rgb(0%,0%,0%)" x1="298.380671511" x2="298.859320634" y1="140.998201919" y2="141.698656751" /><line stroke="rgb(0%,0%,0%)" x1="298.380671511" x2="297.915970043" y1="140.998201919" y2="140.206025495" /><line stroke="rgb(0%,0%,0%)" x1="304.345826752" x2="305.306754626" y1="100.484454058" y2="100.003077629" /><line stroke="rgb(0%,0%,0%)" x1="304.345826752" x2="302.649584371" y1="100.484454058" y2="103.320942562" /><line stroke="rgb(0%,0%,0%)" x1="305.306754626" x2="306.717844498" y1="100.003077629" y2="99.383827868" /><line stroke="rgb(0%,0%,0%)" x1="313.74952115" x2="306.717844498" y1="96.6064720967" y2="99.383827868" /><line stroke="rgb(0%,0%,0%)" x1="318.256539649" x2="313.74952115" y1="98.8340548782" y2="96.6064720967" /><line stroke="rgb(0%,0%,0%)" x1="327.135366194" x2="318.256539649" y1="103.779994888" y2="98.8340548782" /><line stroke="rgb(0%,0%,0%)" x1="339.982352568" x2="330.250595784" y1="116.833240043" y2="106.797264428" /><line stroke="rgb(0%,0%,0%)" x1="330.250595784" x2="327.135366194" y1="106.797264428" y2="103.779994888" /><line stroke="rgb(0%,0%,0%)" x1="362.764438471" x2="362.979239216" y1="207.337637182" y2="206.255354515" /><line stroke="rgb(0%,0%,0%)" x1="267.395393734" x2="258.127991543" y1="224.853285283" y2="235.451598765" /><line stroke="rgb(0%,0%,0%)" x1="275.128208768" x2="284.167259576" y1="216.617421448" y2="205.775317354" /><line stroke="rgb(0%,0%,0%)" x1="275.128208768" x2="267.395393734" y1="216.617421448" y2="224.853285283" /><line stroke="rgb(0%,0%,0%)" x1="284.167259576" x2="289.558855604" y1="205.775317354" y2="200.835305227" /><line stroke="rgb(0%,0%,0%)" x1="296.293160697" x2="293.745259722" y1="191.274576564" y2="178.989049932" /><line stroke="rgb(0%,0%,0%)" x1="294.743629707" x2="296.293160697" y1="194.867801513" y2="191.274576564" /><line stroke="rgb(0%,0%,0%)" x1="294.141201715" x2="289.558855604" y1="197.487059281" y2="200.835305227" /><line stroke="rgb(0%,0%,0%)" x1="294.743629707" x2="294.141201715" y1="194.867801513" y2="197.487059281" /><line stroke="rgb(0%,0%,0%)" x1="295.373178195" x2="293.616365421" y1="165.618796606" y2="178.187915124" /><line stroke="rgb(0%,0%,0%)" x1="296.966497792" x2="295.373178195" y1="162.555202455" y2="165.618796606" /><line stroke="rgb(0%,0%,0%)" x1="297.661205299" x2="296.966497792" y1="157.695850283" y2="162.555202455" /><line stroke="rgb(0%,0%,0%)" x1="299.584790465" x2="297.661205299" y1="154.81898777" y2="157.695850283" /><line stroke="rgb(0%,0%,0%)" x1="296.14389964" x2="297.915970043" y1="138.423415295" y2="140.206025495" /><line stroke="rgb(0%,0%,0%)" x1="291.417682219" x2="291.754373363" y1="131.81950229" y2="125.431477507" /><line stroke="rgb(0%,0%,0%)" x1="291.417682219" x2="296.14389964" y1="131.81950229" y2="138.423415295" /><line stroke="rgb(0%,0%,0%)" x1="291.544705839" x2="291.754373363" y1="123.929646493" y2="125.431477507" /><line stroke="rgb(0%,0%,0%)" x1="291.544705839" x2="293.746981611" y1="123.929646493" y2="119.469368862" /><line stroke="rgb(0%,0%,0%)" x1="294.166694418" x2="293.746981611" y1="116.653367213" y2="119.469368862" /><line stroke="rgb(0%,0%,0%)" x1="294.166694418" x2="299.812963576" y1="116.653367213" y2="107.407748501" /><line stroke="rgb(0%,0%,0%)" x1="302.649584371" x2="299.812963576" y1="103.320942562" y2="107.407748501" /><line stroke="rgb(0%,0%,0%)" x1="258.127991543" x2="242.128949716" y1="235.451598765" y2="243.071844843" /><line stroke="rgb(0%,0%,0%)" x1="293.605798445" x2="293.745259722" y1="178.502010537" y2="178.989049932" /><line stroke="rgb(0%,0%,0%)" x1="293.616365421" x2="293.605798445" y1="178.187915124" y2="178.502010537" /><line stroke="rgb(0%,0%,0%)" x1="195.029492761" x2="194.601760572" y1="264.529923637" y2="264.682313424" /><line stroke="rgb(0%,0%,0%)" x1="195.029492761" x2="195.268363751" y1="264.529923637" y2="264.331492734" /><line stroke="rgb(0%,0%,0%)" x1="199.876029057" x2="199.905657136" y1="261.939844422" y2="261.912128341" /><line stroke="rgb(0%,0%,0%)" x1="202.617347256" x2="202.362920394" y1="260.352457001" y2="260.510306452" /><line stroke="rgb(0%,0%,0%)" x1="205.078077745" x2="204.670614074" y1="256.193211129" y2="256.62251805" /><line stroke="rgb(0%,0%,0%)" x1="205.078077745" x2="205.738466523" y1="256.193211129" y2="254.857752827" /><line stroke="rgb(0%,0%,0%)" x1="209.937909411" x2="214.032212963" y1="242.282211665" y2="238.211036002" /><line stroke="rgb(0%,0%,0%)" x1="231.647255763" x2="235.316479812" y1="239.027965861" y2="241.011892959" /><line stroke="rgb(0%,0%,0%)" x1="225.975192598" x2="220.688118766" y1="236.229489604" y2="234.940809057" /><line stroke="rgb(0%,0%,0%)" x1="242.128949716" x2="239.347625799" y1="243.071844843" y2="241.55152926" /><line stroke="rgb(0%,0%,0%)" x1="239.347625799" x2="235.316479812" y1="241.55152926" y2="241.011892959" /><line stroke="rgb(0%,0%,0%)" x1="231.647255763" x2="230.878136638" y1="239.027965861" y2="237.13802807" /><line stroke="rgb(0%,0%,0%)" x1="230.878136638" x2="225.975192598" y1="237.13802807" y2="236.229489604" /><line stroke="rgb(0%,0%,0%)" x1="178.35191575" x2="174.606294953" y1="271.098532471" y2="272.520179989" /><line stroke="rgb(0%,0%,0%)" x1="181.685380192" x2="178.35191575" y1="269.25955467" y2="271.098532471" /><line stroke="rgb(0%,0%,0%)" x1="182.152783827" x2="181.685380192" y1="269.240632884" y2="269.25955467" /><line stroke="rgb(0%,0%,0%)" x1="182.152783827" x2="182.66282802" y1="269.240632884" y2="269.114384224" /><line stroke="rgb(0%,0%,0%)" x1="194.601760572" x2="193.518173113" y1="264.682313424" y2="265.905834207" /><line stroke="rgb(0%,0%,0%)" x1="188.853937537" x2="191.257527678" y1="267.491294636" y2="267.026514793" /><line stroke="rgb(0%,0%,0%)" x1="188.853937537" x2="187.08422726" y1="267.491294636" y2="267.6027127" /><line stroke="rgb(0%,0%,0%)" x1="187.08422726" x2="182.66282802" y1="267.6027127" y2="269.114384224" /><line stroke="rgb(0%,0%,0%)" x1="193.518173113" x2="191.257527678" y1="265.905834207" y2="267.026514793" /><line stroke="rgb(0%,0%,0%)" x1="197.636588509" x2="195.268363751" y1="262.868134763" y2="264.331492734" /><line stroke="rgb(0%,0%,0%)" x1="199.876029057" x2="197.636588509" y1="261.939844422" y2="262.868134763" /><line stroke="rgb(0%,0%,0%)" x1="202.362920394" x2="199.905657136" y1="260.510306452" y2="261.912128341" /><line stroke="rgb(0%,0%,0%)" x1="204.670614074" x2="202.617347256" y1="256.62251805" y2="260.352457001" /><line stroke="rgb(0%,0%,0%)" x1="206.399092702" x2="205.738466523" y1="249.720943442" y2="254.857752827" /><line stroke="rgb(0%,0%,0%)" x1="208.330894741" x2="206.399092702" y1="245.112854394" y2="249.720943442" /><line stroke="rgb(0%,0%,0%)" x1="209.937909411" x2="208.330894741" y1="242.282211665" y2="245.112854394" /><line stroke="rgb(0%,0%,0%)" x1="214.318068409" x2="214.266457479" y1="237.999797708" y2="238.02286572" /><line stroke="rgb(0%,0%,0%)" x1="214.266457479" x2="214.032212963" y1="238.02286572" y2="238.211036002" /><line stroke="rgb(0%,0%,0%)" x1="219.438803104" x2="214.318068409" y1="235.337982155" y2="237.999797708" /><line stroke="rgb(0%,0%,0%)" x1="220.688118766" x2="219.438803104" y1="234.940809057" y2="235.337982155" /><line stroke="rgb(0%,0%,0%)" x1="126.660702206" x2="125.12722203" y1="289.572007073" y2="290.083080998" /><line stroke="rgb(0%,0%,0%)" x1="131.133710167" x2="126.660702206" y1="289.217516533" y2="289.572007073" /><line stroke="rgb(0%,0%,0%)" x1="135.00518101" x2="135.100664954" y1="287.571463586" y2="287.493711166" /><line stroke="rgb(0%,0%,0%)" x1="135.00518101" x2="134.870365328" y1="287.571463586" y2="287.592886183" /><line stroke="rgb(0%,0%,0%)" x1="135.100664954" x2="136.776939231" y1="287.493711166" y2="286.827724793" /><line stroke="rgb(0%,0%,0%)" x1="164.856482745" x2="157.670030755" y1="275.290511795" y2="277.986186785" /><line stroke="rgb(0%,0%,0%)" x1="151.411930361" x2="136.776939231" y1="281.133941814" y2="286.827724793" /><line stroke="rgb(0%,0%,0%)" x1="157.670030755" x2="151.411930361" y1="277.986186785" y2="281.133941814" /><line stroke="rgb(0%,0%,0%)" x1="174.606294953" x2="164.856482745" y1="272.520179989" y2="275.290511795" /><line stroke="rgb(0%,0%,0%)" x1="119.700556126" x2="117.868352528" y1="293.100191195" y2="293.73641189" /><line stroke="rgb(0%,0%,0%)" x1="125.12722203" x2="119.700556126" y1="290.083080998" y2="293.100191195" /><line stroke="rgb(0%,0%,0%)" x1="134.870365328" x2="131.133710167" y1="287.592886183" y2="289.217516533" /><line stroke="rgb(0%,0%,0%)" x1="60.3910916354" x2="61.3659088638" y1="330.309088948" y2="329.579002568" /><line stroke="rgb(0%,0%,0%)" x1="60.3910916354" x2="58.5637547622" y1="330.309088948" y2="331.759679897" /><line stroke="rgb(0%,0%,0%)" x1="76.0627517577" x2="72.7759621649" y1="318.670038325" y2="322.063842236" /><line stroke="rgb(0%,0%,0%)" x1="76.0627517577" x2="76.6622288956" y1="318.670038325" y2="318.291920779" /><line stroke="rgb(0%,0%,0%)" x1="84.4838276162" x2="82.3415025519" y1="313.031892887" y2="314.534387711" /><line stroke="rgb(0%,0%,0%)" x1="82.3415025519" x2="76.6622288956" y1="314.534387711" y2="318.291920779" /><line stroke="rgb(0%,0%,0%)" x1="84.4838276162" x2="88.7891724186" y1="313.031892887" y2="309.935673233" /><line stroke="rgb(0%,0%,0%)" x1="96.5235673854" x2="88.7891724186" y1="307.47414248" y2="309.935673233" /><line stroke="rgb(0%,0%,0%)" x1="99.6006126348" x2="100.238504433" y1="307.030220592" y2="305.723130636" /><line stroke="rgb(0%,0%,0%)" x1="99.6006126348" x2="96.5235673854" y1="307.030220592" y2="307.47414248" /><line stroke="rgb(0%,0%,0%)" x1="100.390645654" x2="100.238504433" y1="302.36047371" y2="305.723130636" /><line stroke="rgb(0%,0%,0%)" x1="101.204450089" x2="100.390645654" y1="301.448557993" y2="302.36047371" /><line stroke="rgb(0%,0%,0%)" x1="110.487263937" x2="102.294273758" y1="295.41836658" y2="300.693711817" /><line stroke="rgb(0%,0%,0%)" x1="102.294273758" x2="101.204450089" y1="300.693711817" y2="301.448557993" /><line stroke="rgb(0%,0%,0%)" x1="117.868352528" x2="112.856405915" y1="293.73641189" y2="294.386511985" /><line stroke="rgb(0%,0%,0%)" x1="112.856405915" x2="110.487263937" y1="294.386511985" y2="295.41836658" /><line stroke="rgb(0%,0%,0%)" x1="44.0168108814" x2="45.0570809535" y1="418.078154736" y2="418.923792251" /><line stroke="rgb(0%,0%,0%)" x1="44.0168108814" x2="42.7894211687" y1="418.078154736" y2="414.74584186" /><line stroke="rgb(0%,0%,0%)" x1="49.3518841257" x2="48.6839911726" y1="337.701358778" y2="338.507370767" /><line stroke="rgb(0%,0%,0%)" x1="58.5637547622" x2="49.3518841257" y1="331.759679897" y2="337.701358778" /><line stroke="rgb(0%,0%,0%)" x1="72.7759621649" x2="70.3263415814" y1="322.063842236" y2="324.89433949" /><line stroke="rgb(0%,0%,0%)" x1="18.7051822719" x2="18.693824027" y1="457.507576135" y2="457.731275608" /><line stroke="rgb(0%,0%,0%)" x1="18.7051822719" x2="18.7273963264" y1="457.507576135" y2="457.387068117" /><line stroke="rgb(0%,0%,0%)" x1="18.7273963264" x2="18.7885522359" y1="457.387068117" y2="457.317431249" /><line stroke="rgb(0%,0%,0%)" x1="18.7885522359" x2="19.038969472" y1="457.317431249" y2="456.656024632" /><line stroke="rgb(0%,0%,0%)" x1="31.4029090544" x2="25.2698288879" y1="438.955973246" y2="442.827100466" /><line stroke="rgb(0%,0%,0%)" x1="35.0111146666" x2="31.4029090544" y1="436.146703448" y2="438.955973246" /><line stroke="rgb(0%,0%,0%)" x1="41.6651461398" x2="36.3534819834" y1="406.347610381" y2="401.150927854" /><line stroke="rgb(0%,0%,0%)" x1="35.5873467642" x2="36.3534819834" y1="400.555538765" y2="401.150927854" /><line stroke="rgb(0%,0%,0%)" x1="31.309930868" x2="35.5873467642" y1="392.764191653" y2="400.555538765" /><line stroke="rgb(0%,0%,0%)" x1="31.309930868" x2="28.2798507943" y1="392.764191653" y2="384.102101415" /><line stroke="rgb(0%,0%,0%)" x1="27.0807238837" x2="28.2798507943" y1="382.044200724" y2="384.102101415" /><line stroke="rgb(0%,0%,0%)" x1="27.1775788136" x2="27.0807238837" y1="380.693533212" y2="382.044200724" /><line stroke="rgb(0%,0%,0%)" x1="28.1789004813" x2="28.1148901094" y1="375.323667033" y2="376.687027056" /><line stroke="rgb(0%,0%,0%)" x1="28.1148901094" x2="27.1775788136" y1="376.687027056" y2="380.693533212" /><line stroke="rgb(0%,0%,0%)" x1="28.1789004813" x2="29.2579810167" y1="375.323667033" y2="370.41443323" /><line stroke="rgb(0%,0%,0%)" x1="37.6049971437" x2="30.0445386136" y1="353.184992975" y2="365.777040581" /><line stroke="rgb(0%,0%,0%)" x1="40.4233673561" x2="37.6049971437" y1="349.030881467" y2="353.184992975" /><line stroke="rgb(0%,0%,0%)" x1="39.3262588934" x2="35.0111146666" y1="433.49680709" y2="436.146703448" /><line stroke="rgb(0%,0%,0%)" x1="42.286933084" x2="39.3262588934" y1="431.37327136" y2="433.49680709" /><line stroke="rgb(0%,0%,0%)" x1="43.9694723919" x2="43.793216032" y1="428.643466026" y2="429.489853082" /><line stroke="rgb(0%,0%,0%)" x1="45.5320857085" x2="43.9694723919" y1="426.784174081" y2="428.643466026" /><line stroke="rgb(0%,0%,0%)" x1="42.286933084" x2="43.793216032" y1="431.37327136" y2="429.489853082" /><line stroke="rgb(0%,0%,0%)" x1="46.5183421754" x2="45.5320857085" y1="424.183868778" y2="426.784174081" /><line stroke="rgb(0%,0%,0%)" x1="45.0570809535" x2="46.8520048916" y1="418.923792251" y2="421.088754469" /><line stroke="rgb(0%,0%,0%)" x1="46.8520048916" x2="46.5183421754" y1="421.088754469" y2="424.183868778" /><line stroke="rgb(0%,0%,0%)" x1="41.6651461398" x2="42.7894211687" y1="406.347610381" y2="414.74584186" /><line stroke="rgb(0%,0%,0%)" x1="48.6839911726" x2="40.4233673561" y1="338.507370767" y2="349.030881467" /><line stroke="rgb(0%,0%,0%)" x1="18.1712411345" x2="18.2845865494" y1="460.989091275" y2="462.280410826" /><line stroke="rgb(0%,0%,0%)" x1="18.693824027" x2="18.1712411345" y1="457.731275608" y2="460.989091275" /><line stroke="rgb(0%,0%,0%)" x1="21.3088974167" x2="19.038969472" y1="449.745899918" y2="456.656024632" /><line stroke="rgb(0%,0%,0%)" x1="23.2008314866" x2="21.3088974167" y1="447.098493736" y2="449.745899918" /><line stroke="rgb(0%,0%,0%)" x1="23.2008314866" x2="24.6383208557" y1="447.098493736" y2="443.675050842" /><line stroke="rgb(0%,0%,0%)" x1="24.9457132066" x2="24.6383208557" y1="443.199365314" y2="443.675050842" /><line stroke="rgb(0%,0%,0%)" x1="25.2698288879" x2="24.9457132066" y1="442.827100466" y2="443.199365314" /><line stroke="rgb(0%,0%,0%)" x1="29.7276911027" x2="29.2579810167" y1="366.628951961" y2="370.41443323" /><line stroke="rgb(0%,0%,0%)" x1="29.8211231747" x2="29.7276911027" y1="366.431373249" y2="366.628951961" /><line stroke="rgb(0%,0%,0%)" x1="30.0445386136" x2="29.8211231747" y1="365.777040581" y2="366.431373249" /><line stroke="rgb(0%,0%,0%)" x1="532.354892369" x2="532.169108984" y1="477.063273338" y2="479.713223202" /><line stroke="rgb(0%,0%,0%)" x1="532.376065002" x2="532.354892369" y1="476.85800207" y2="477.063273338" /><line stroke="rgb(0%,0%,0%)" x1="532.392647306" x2="532.376065002" y1="476.779622497" y2="476.85800207" /><line stroke="rgb(0%,0%,0%)" x1="532.392647306" x2="532.38330804" y1="476.779622497" y2="476.705409447" /><line stroke="rgb(0%,0%,0%)" x1="462.784940516" x2="463.449132875" y1="312.886365005" y2="313.447937677" /><line stroke="rgb(0%,0%,0%)" x1="469.090254447" x2="468.285713819" y1="320.858036329" y2="320.047540122" /><line stroke="rgb(0%,0%,0%)" x1="475.452941004" x2="476.090068486" y1="333.454437079" y2="334.694001164" /><line stroke="rgb(0%,0%,0%)" x1="503.599380594" x2="502.391082848" y1="379.097231372" y2="377.962649865" /><line stroke="rgb(0%,0%,0%)" x1="497.661794934" x2="502.391082848" y1="367.701707777" y2="377.962649865" /><line stroke="rgb(0%,0%,0%)" x1="515.879404991" x2="518.894927756" y1="527.770051587" y2="522.367483018" /><line stroke="rgb(0%,0%,0%)" x1="514.647587745" x2="513.413035565" y1="393.050444841" y2="391.341735426" /><line stroke="rgb(0%,0%,0%)" x1="513.413035565" x2="512.481749436" y1="391.341735426" y2="389.773016412" /><line stroke="rgb(0%,0%,0%)" x1="512.481749436" x2="503.599380594" y1="389.773016412" y2="379.097231372" /><line stroke="rgb(0%,0%,0%)" x1="518.894927756" x2="520.482780956" y1="522.367483018" y2="519.380045199" /><line stroke="rgb(0%,0%,0%)" x1="526.212089694" x2="521.481403768" y1="509.016421333" y2="517.621820946" /><line stroke="rgb(0%,0%,0%)" x1="520.482780956" x2="521.481403768" y1="519.380045199" y2="517.621820946" /><line stroke="rgb(0%,0%,0%)" x1="526.212089694" x2="530.6090236" y1="509.016421333" y2="495.678681847" /><line stroke="rgb(0%,0%,0%)" x1="530.6090236" x2="531.008589781" y1="495.678681847" y2="493.532411991" /><line stroke="rgb(0%,0%,0%)" x1="531.008589781" x2="532.169108984" y1="493.532411991" y2="479.713223202" /><line stroke="rgb(0%,0%,0%)" x1="532.38330804" x2="533.771825318" y1="476.705409447" y2="465.842304323" /><line stroke="rgb(0%,0%,0%)" x1="533.771825318" x2="533.378191629" y1="465.842304323" y2="461.589362183" /><line stroke="rgb(0%,0%,0%)" x1="468.285713819" x2="463.449132875" y1="320.047540122" y2="313.447937677" /><line stroke="rgb(0%,0%,0%)" x1="462.784940516" x2="460.942893787" y1="312.886365005" y2="311.339927222" /><line stroke="rgb(0%,0%,0%)" x1="460.942893787" x2="450.53309328" y1="311.339927222" y2="302.724520095" /><line stroke="rgb(0%,0%,0%)" x1="475.218291344" x2="475.452941004" y1="333.140067976" y2="333.454437079" /><line stroke="rgb(0%,0%,0%)" x1="475.218291344" x2="475.034009116" y1="333.140067976" y2="331.754680066" /><line stroke="rgb(0%,0%,0%)" x1="475.034009116" x2="474.425368698" y1="331.754680066" y2="329.575968163" /><line stroke="rgb(0%,0%,0%)" x1="471.937849466" x2="474.425368698" y1="326.423442294" y2="329.575968163" /><line stroke="rgb(0%,0%,0%)" x1="471.937849466" x2="469.752996842" y1="326.423442294" y2="321.581214649" /><line stroke="rgb(0%,0%,0%)" x1="469.090254447" x2="469.752996842" y1="320.858036329" y2="321.581214649" /><line stroke="rgb(0%,0%,0%)" x1="489.49855883" x2="488.323222984" y1="352.79797698" y2="350.608484302" /><line stroke="rgb(0%,0%,0%)" x1="483.611368185" x2="488.323222984" y1="345.631952242" y2="350.608484302" /><line stroke="rgb(0%,0%,0%)" x1="483.611368185" x2="482.535900757" y1="345.631952242" y2="344.259277662" /><line stroke="rgb(0%,0%,0%)" x1="482.535900757" x2="476.090068486" y1="344.259277662" y2="334.694001164" /><line stroke="rgb(0%,0%,0%)" x1="497.661794934" x2="496.03075346" y1="367.701707777" y2="365.056174814" /><line stroke="rgb(0%,0%,0%)" x1="490.388204682" x2="496.03075346" y1="354.650308267" y2="365.056174814" /><line stroke="rgb(0%,0%,0%)" x1="490.388204682" x2="489.49855883" y1="354.650308267" y2="352.79797698" /><line stroke="rgb(0%,0%,0%)" x1="443.002429646" x2="434.473410615" y1="298.064287224" y2="287.827417567" /><line stroke="rgb(0%,0%,0%)" x1="434.473410615" x2="434.190172835" y1="287.827417567" y2="287.541833408" /><line stroke="rgb(0%,0%,0%)" x1="434.190172835" x2="428.827540048" y1="287.541833408" y2="281.549855673" /><line stroke="rgb(0%,0%,0%)" x1="424.897766312" x2="428.827540048" y1="277.37784661" y2="281.549855673" /><line stroke="rgb(0%,0%,0%)" x1="450.53309328" x2="443.002429646" y1="302.724520095" y2="298.064287224" /><line stroke="rgb(0%,0%,0%)" x1="368.543817321" x2="368.570529595" y1="737.324311304" y2="736.991556648" /><line stroke="rgb(0%,0%,0%)" x1="388.63265587" x2="389.573780276" y1="661.375358318" y2="661.017525841" /><line stroke="rgb(0%,0%,0%)" x1="389.573780276" x2="389.840964777" y1="661.017525841" y2="660.534636971" /><line stroke="rgb(0%,0%,0%)" x1="389.840964777" x2="392.7718281" y1="660.534636971" y2="659.132958457" /><line stroke="rgb(0%,0%,0%)" x1="392.7718281" x2="403.733727785" y1="659.132958457" y2="652.465990406" /><line stroke="rgb(0%,0%,0%)" x1="405.605527094" x2="403.733727785" y1="651.362304329" y2="652.465990406" /><line stroke="rgb(0%,0%,0%)" x1="405.605527094" x2="407.408791967" y1="651.362304329" y2="650.13780165" /><line stroke="rgb(0%,0%,0%)" x1="413.625386634" x2="418.190871578" y1="646.846951036" y2="644.306969843" /><line stroke="rgb(0%,0%,0%)" x1="407.408791967" x2="413.625386634" y1="650.13780165" y2="646.846951036" /><line stroke="rgb(0%,0%,0%)" x1="300.094792882" x2="300.860999794" y1="754.116601994" y2="757.070729473" /><line stroke="rgb(0%,0%,0%)" x1="366.113996673" x2="366.313281058" y1="790.870434433" y2="794.291480081" /><line stroke="rgb(0%,0%,0%)" x1="366.113996673" x2="369.639367294" y1="790.870434433" y2="776.839337636" /><line stroke="rgb(0%,0%,0%)" x1="368.838838303" x2="370.694263023" y1="757.360722958" y2="763.565120325" /><line stroke="rgb(0%,0%,0%)" x1="368.838838303" x2="366.856393608" y1="757.360722958" y2="752.577768671" /><line stroke="rgb(0%,0%,0%)" x1="366.140362778" x2="366.856393608" y1="749.877607451" y2="752.577768671" /><line stroke="rgb(0%,0%,0%)" x1="368.543817321" x2="368.456941473" y1="737.324311304" y2="737.817227417" /><line stroke="rgb(0%,0%,0%)" x1="368.570529595" x2="368.509459664" y1="736.991556648" y2="736.022703091" /><line stroke="rgb(0%,0%,0%)" x1="363.226045205" x2="363.563096593" y1="675.652692827" y2="674.561173461" /><line stroke="rgb(0%,0%,0%)" x1="363.946482377" x2="363.563096593" y1="673.618129969" y2="674.561173461" /><line stroke="rgb(0%,0%,0%)" x1="365.897004948" x2="368.032343497" y1="670.967165458" y2="669.667648048" /><line stroke="rgb(0%,0%,0%)" x1="370.694263023" x2="370.762846374" y1="763.565120325" y2="769.353228316" /><line stroke="rgb(0%,0%,0%)" x1="368.509459664" x2="368.158295247" y1="736.022703091" y2="724.983781536" /><line stroke="rgb(0%,0%,0%)" x1="379.551589717" x2="374.902728309" y1="665.650805363" y2="667.457771205" /><line stroke="rgb(0%,0%,0%)" x1="388.63265587" x2="387.660258884" y1="661.375358318" y2="661.912358167" /><line stroke="rgb(0%,0%,0%)" x1="379.551589717" x2="387.660258884" y1="665.650805363" y2="661.912358167" /><line stroke="rgb(0%,0%,0%)" x1="296.799587773" x2="296.725843445" y1="741.102485652" y2="740.892403857" /><line stroke="rgb(0%,0%,0%)" x1="296.799587773" x2="300.094792882" y1="741.102485652" y2="754.116601994" /><line stroke="rgb(0%,0%,0%)" x1="296.725843445" x2="296.442650549" y1="740.892403857" y2="740.255121313" /><line stroke="rgb(0%,0%,0%)" x1="300.860999794" x2="301.354039347" y1="757.070729473" y2="759.237247918" /><line stroke="rgb(0%,0%,0%)" x1="326.848027829" x2="332.194918024" y1="838.27483849" y2="839.055592573" /><line stroke="rgb(0%,0%,0%)" x1="337.901173649" x2="336.137211461" y1="839.280998976" y2="839.28406751" /><line stroke="rgb(0%,0%,0%)" x1="338.227762609" x2="337.901173649" y1="839.089285163" y2="839.280998976" /><line stroke="rgb(0%,0%,0%)" x1="338.227762609" x2="339.286531469" y1="839.089285163" y2="838.048178404" /><line stroke="rgb(0%,0%,0%)" x1="351.062884433" x2="349.648693805" y1="822.701892401" y2="825.041499902" /><line stroke="rgb(0%,0%,0%)" x1="351.062884433" x2="354.985119522" y1="822.701892401" y2="817.001077275" /><line stroke="rgb(0%,0%,0%)" x1="354.985119522" x2="357.174486976" y1="817.001077275" y2="814.17090325" /><line stroke="rgb(0%,0%,0%)" x1="357.174486976" x2="361.142827598" y1="814.17090325" y2="809.430603169" /><line stroke="rgb(0%,0%,0%)" x1="361.142827598" x2="361.279409028" y1="809.430603169" y2="805.867447382" /><line stroke="rgb(0%,0%,0%)" x1="361.279409028" x2="365.655879816" y1="805.867447382" y2="797.240107912" /><line stroke="rgb(0%,0%,0%)" x1="365.655879816" x2="365.540732726" y1="797.240107912" y2="796.326831987" /><line stroke="rgb(0%,0%,0%)" x1="365.540732726" x2="366.313281058" y1="796.326831987" y2="794.291480081" /><line stroke="rgb(0%,0%,0%)" x1="366.140362778" x2="368.456941473" y1="749.877607451" y2="737.817227417" /><line stroke="rgb(0%,0%,0%)" x1="368.158295247" x2="365.419459825" y1="724.983781536" y2="713.546988553" /><line stroke="rgb(0%,0%,0%)" x1="365.419459825" x2="364.681043042" y1="713.546988553" y2="708.698552845" /><line stroke="rgb(0%,0%,0%)" x1="364.681043042" x2="363.649521012" y1="708.698552845" y2="706.183316071" /><line stroke="rgb(0%,0%,0%)" x1="361.483624926" x2="361.518768775" y1="698.043929241" y2="695.382307329" /><line stroke="rgb(0%,0%,0%)" x1="361.483624926" x2="363.649521012" y1="698.043929241" y2="706.183316071" /><line stroke="rgb(0%,0%,0%)" x1="362.115846306" x2="361.518768775" y1="691.755878588" y2="695.382307329" /><line stroke="rgb(0%,0%,0%)" x1="362.115846306" x2="362.385057905" y1="691.755878588" y2="683.716614503" /><line stroke="rgb(0%,0%,0%)" x1="362.385057905" x2="363.226045205" y1="683.716614503" y2="675.652692827" /><line stroke="rgb(0%,0%,0%)" x1="363.946482377" x2="365.897004948" y1="673.618129969" y2="670.967165458" /><line stroke="rgb(0%,0%,0%)" x1="369.639367294" x2="370.520484228" y1="776.839337636" y2="771.541023787" /><line stroke="rgb(0%,0%,0%)" x1="370.520484228" x2="370.762846374" y1="771.541023787" y2="769.353228316" /><line stroke="rgb(0%,0%,0%)" x1="368.032343497" x2="370.527215027" y1="669.667648048" y2="668.96103538" /><line stroke="rgb(0%,0%,0%)" x1="370.527215027" x2="371.657542398" y1="668.96103538" y2="668.593727394" /><line stroke="rgb(0%,0%,0%)" x1="371.657542398" x2="374.902728309" y1="668.593727394" y2="667.457771205" /><line stroke="rgb(0%,0%,0%)" x1="272.727402315" x2="270.675778285" y1="710.066888855" y2="707.045947932" /><line stroke="rgb(0%,0%,0%)" x1="280.448972516" x2="289.107660255" y1="720.267518623" y2="728.460236798" /><line stroke="rgb(0%,0%,0%)" x1="272.727402315" x2="280.448972516" y1="710.066888855" y2="720.267518623" /><line stroke="rgb(0%,0%,0%)" x1="320.705179491" x2="322.391748744" y1="836.232599925" y2="836.597141587" /><line stroke="rgb(0%,0%,0%)" x1="324.391702435" x2="326.848027829" y1="837.357640359" y2="838.27483849" /><line stroke="rgb(0%,0%,0%)" x1="324.391702435" x2="322.391748744" y1="837.357640359" y2="836.597141587" /><line stroke="rgb(0%,0%,0%)" x1="319.710055078" x2="320.705179491" y1="834.404900974" y2="836.232599925" /><line stroke="rgb(0%,0%,0%)" x1="317.733844175" x2="319.710055078" y1="832.102676845" y2="834.404900974" /><line stroke="rgb(0%,0%,0%)" x1="332.194918024" x2="336.137211461" y1="839.055592573" y2="839.28406751" /><line stroke="rgb(0%,0%,0%)" x1="339.286531469" x2="347.477830663" y1="838.048178404" y2="828.316152656" /><line stroke="rgb(0%,0%,0%)" x1="347.477830663" x2="349.648693805" y1="828.316152656" y2="825.041499902" /><line stroke="rgb(0%,0%,0%)" x1="245.447360507" x2="254.554912003" y1="681.803221913" y2="690.969913199" /><line stroke="rgb(0%,0%,0%)" x1="257.191178446" x2="268.667511608" y1="695.247548071" y2="705.01696019" /><line stroke="rgb(0%,0%,0%)" x1="254.554912003" x2="257.191178446" y1="690.969913199" y2="695.247548071" /><line stroke="rgb(0%,0%,0%)" x1="270.675778285" x2="268.667511608" y1="707.045947932" y2="705.01696019" /><line stroke="rgb(0%,0%,0%)" x1="289.107660255" x2="291.819930897" y1="728.460236798" y2="730.508600223" /><line stroke="rgb(0%,0%,0%)" x1="291.819930897" x2="296.442650549" y1="730.508600223" y2="740.255121313" /><line stroke="rgb(0%,0%,0%)" x1="224.846228348" x2="227.51717774" y1="688.443097337" y2="687.181117744" /><line stroke="rgb(0%,0%,0%)" x1="224.846228348" x2="218.195310007" y1="688.443097337" y2="688.260308006" /><line stroke="rgb(0%,0%,0%)" x1="241.834727721" x2="245.447360507" y1="683.890347577" y2="681.803221913" /><line stroke="rgb(0%,0%,0%)" x1="194.866401564" x2="192.535799984" y1="660.495935552" y2="659.670711495" /><line stroke="rgb(0%,0%,0%)" x1="191.861909945" x2="192.535799984" y1="659.162246329" y2="659.670711495" /><line stroke="rgb(0%,0%,0%)" x1="183.264549613" x2="179.113436564" y1="654.289518259" y2="653.609033192" /><line stroke="rgb(0%,0%,0%)" x1="204.544345964" x2="208.395857406" y1="674.017048731" y2="680.530415824" /><line stroke="rgb(0%,0%,0%)" x1="202.070013039" x2="203.800812438" y1="667.455309009" y2="669.624870758" /><line stroke="rgb(0%,0%,0%)" x1="198.719655243" x2="201.392459679" y1="663.671369931" y2="666.36078353" /><line stroke="rgb(0%,0%,0%)" x1="201.392459679" x2="202.070013039" y1="666.36078353" y2="667.455309009" /><line stroke="rgb(0%,0%,0%)" x1="198.719655243" x2="198.367342402" y1="663.671369931" y2="662.604083867" /><line stroke="rgb(0%,0%,0%)" x1="194.866401564" x2="197.203473269" y1="660.495935552" y2="661.967759258" /><line stroke="rgb(0%,0%,0%)" x1="216.298668262" x2="217.498978006" y1="687.278159199" y2="688.270462187" /><line stroke="rgb(0%,0%,0%)" x1="209.191320903" x2="209.825986428" y1="681.685599304" y2="682.302134162" /><line stroke="rgb(0%,0%,0%)" x1="216.298668262" x2="209.825986428" y1="687.278159199" y2="682.302134162" /><line stroke="rgb(0%,0%,0%)" x1="208.395857406" x2="209.191320903" y1="680.530415824" y2="681.685599304" /><line stroke="rgb(0%,0%,0%)" x1="203.800812438" x2="204.544345964" y1="669.624870758" y2="674.017048731" /><line stroke="rgb(0%,0%,0%)" x1="217.498978006" x2="218.195310007" y1="688.270462187" y2="688.260308006" /><line stroke="rgb(0%,0%,0%)" x1="144.446108498" x2="145.498733716" y1="636.913556913" y2="637.696054812" /><line stroke="rgb(0%,0%,0%)" x1="168.83660171" x2="169.266617191" y1="648.903475091" y2="649.025788261" /><line stroke="rgb(0%,0%,0%)" x1="163.139339731" x2="168.83660171" y1="646.752028498" y2="648.903475091" /><line stroke="rgb(0%,0%,0%)" x1="156.332104288" x2="163.139339731" y1="644.359660914" y2="646.752028498" /><line stroke="rgb(0%,0%,0%)" x1="145.498733716" x2="156.332104288" y1="637.696054812" y2="644.359660914" /><line stroke="rgb(0%,0%,0%)" x1="177.843899577" x2="179.113436564" y1="652.924784098" y2="653.609033192" /><line stroke="rgb(0%,0%,0%)" x1="174.686146764" x2="177.843899577" y1="651.244191112" y2="652.924784098" /><line stroke="rgb(0%,0%,0%)" x1="174.686146764" x2="169.266617191" y1="651.244191112" y2="649.025788261" /><line stroke="rgb(0%,0%,0%)" x1="190.887356773" x2="191.861909945" y1="659.000609074" y2="659.162246329" /><line stroke="rgb(0%,0%,0%)" x1="187.595547626" x2="190.887356773" y1="655.778325565" y2="659.000609074" /><line stroke="rgb(0%,0%,0%)" x1="183.264549613" x2="187.595547626" y1="654.289518259" y2="655.778325565" /><line stroke="rgb(0%,0%,0%)" x1="197.203473269" x2="198.367342402" y1="661.967759258" y2="662.604083867" /><line stroke="rgb(0%,0%,0%)" x1="113.06523925" x2="107.204605355" y1="627.192767398" y2="624.876264615" /><line stroke="rgb(0%,0%,0%)" x1="124.268285818" x2="121.041548631" y1="630.154815612" y2="629.198438508" /><line stroke="rgb(0%,0%,0%)" x1="124.268285818" x2="128.217678832" y1="630.154815612" y2="631.406228397" /><line stroke="rgb(0%,0%,0%)" x1="118.342666172" x2="121.041548631" y1="628.647524265" y2="629.198438508" /><line stroke="rgb(0%,0%,0%)" x1="113.06523925" x2="118.342666172" y1="627.192767398" y2="628.647524265" /><line stroke="rgb(0%,0%,0%)" x1="144.446108498" x2="137.495861327" y1="636.913556913" y2="633.75040102" /><line stroke="rgb(0%,0%,0%)" x1="134.126320575" x2="134.899241931" y1="632.804593954" y2="632.901844346" /><line stroke="rgb(0%,0%,0%)" x1="134.899241931" x2="137.495861327" y1="632.901844346" y2="633.75040102" /><line stroke="rgb(0%,0%,0%)" x1="128.217678832" x2="134.126320575" y1="631.406228397" y2="632.804593954" /><line stroke="rgb(0%,0%,0%)" x1="86.0951021497" x2="85.7355644243" y1="613.297281479" y2="613.11481997" /><line stroke="rgb(0%,0%,0%)" x1="77.701727408" x2="85.7355644243" y1="608.752368753" y2="613.11481997" /><line stroke="rgb(0%,0%,0%)" x1="95.0937204303" x2="98.8720269103" y1="617.196688053" y2="619.912601482" /><line stroke="rgb(0%,0%,0%)" x1="101.334044809" x2="98.8720269103" y1="621.9134173" y2="619.912601482" /><line stroke="rgb(0%,0%,0%)" x1="86.1118361638" x2="86.0951021497" y1="613.307450854" y2="613.297281479" /><line stroke="rgb(0%,0%,0%)" x1="86.1118361638" x2="91.4473573024" y1="613.307450854" y2="614.468170039" /><line stroke="rgb(0%,0%,0%)" x1="91.4473573024" x2="94.7928600535" y1="614.468170039" y2="614.162331375" /><line stroke="rgb(0%,0%,0%)" x1="95.0937204303" x2="95.2457922796" y1="617.196688053" y2="615.240196727" /><line stroke="rgb(0%,0%,0%)" x1="94.7928600535" x2="95.2457922796" y1="614.162331375" y2="615.240196727" /><line stroke="rgb(0%,0%,0%)" x1="101.334044809" x2="107.204605355" y1="621.9134173" y2="624.876264615" /><line stroke="rgb(0%,0%,0%)" x1="30.5601433716" x2="30.3518175977" y1="532.554041974" y2="532.896395648" /><line stroke="rgb(0%,0%,0%)" x1="30.8838116995" x2="30.5601433716" y1="532.062604041" y2="532.554041974" /><line stroke="rgb(0%,0%,0%)" x1="45.2296830725" x2="40.795536027" y1="587.005334612" y2="582.010814079" /><line stroke="rgb(0%,0%,0%)" x1="45.2296830725" x2="48.7871975028" y1="587.005334612" y2="589.732711905" /><line stroke="rgb(0%,0%,0%)" x1="33.8394748442" x2="34.7969826078" y1="571.501265722" y2="574.490495244" /><line stroke="rgb(0%,0%,0%)" x1="34.7969826078" x2="40.795536027" y1="574.490495244" y2="582.010814079" /><line stroke="rgb(0%,0%,0%)" x1="30.8838116995" x2="34.3778860347" y1="532.062604041" y2="524.947805414" /><line stroke="rgb(0%,0%,0%)" x1="41.4585466834" x2="38.9314857213" y1="514.466757712" y2="516.412048904" /><line stroke="rgb(0%,0%,0%)" x1="44.3195185503" x2="42.6567461939" y1="503.86073271" y2="508.410443357" /><line stroke="rgb(0%,0%,0%)" x1="41.454349717" x2="41.4585466834" y1="513.278178552" y2="514.466757712" /><line stroke="rgb(0%,0%,0%)" x1="42.6567461939" x2="41.454349717" y1="508.410443357" y2="513.278178552" /><line stroke="rgb(0%,0%,0%)" x1="45.7512513368" x2="44.3195185503" y1="502.082546625" y2="503.86073271" /><line stroke="rgb(0%,0%,0%)" x1="46.6134190379" x2="45.7512513368" y1="499.750219736" y2="502.082546625" /><line stroke="rgb(0%,0%,0%)" x1="46.6134190379" x2="45.66015667" y1="499.750219736" y2="496.503204318" /><line stroke="rgb(0%,0%,0%)" x1="45.0105444807" x2="45.66015667" y1="494.492052872" y2="496.503204318" /><line stroke="rgb(0%,0%,0%)" x1="35.3571376438" x2="41.5708221577" y1="487.166933599" y2="491.629627967" /><line stroke="rgb(0%,0%,0%)" x1="35.3571376438" x2="33.2256793577" y1="487.166933599" y2="485.803687403" /><line stroke="rgb(0%,0%,0%)" x1="48.7871975028" x2="51.8076185211" y1="589.732711905" y2="591.421075977" /><line stroke="rgb(0%,0%,0%)" x1="69.0086459254" x2="75.841233485" y1="602.536780236" y2="607.748684417" /><line stroke="rgb(0%,0%,0%)" x1="75.841233485" x2="76.1470357062" y1="607.748684417" y2="607.959565526" /><line stroke="rgb(0%,0%,0%)" x1="76.1470357062" x2="76.4518127507" y1="607.959565526" y2="608.167894334" /><line stroke="rgb(0%,0%,0%)" x1="76.4518127507" x2="77.701727408" y1="608.167894334" y2="608.752368753" /><line stroke="rgb(0%,0%,0%)" x1="19.7638891871" x2="21.0396002091" y1="467.813451545" y2="472.555034775" /><line stroke="rgb(0%,0%,0%)" x1="19.7638891871" x2="18.2845865494" y1="467.813451545" y2="462.280410826" /><line stroke="rgb(0%,0%,0%)" x1="33.8394748442" x2="29.7849893981" y1="571.501265722" y2="565.266904864" /><line stroke="rgb(0%,0%,0%)" x1="29.1497077842" x2="29.8920685887" y1="558.978437432" y2="563.629353366" /><line stroke="rgb(0%,0%,0%)" x1="29.8920685887" x2="29.7849893981" y1="563.629353366" y2="565.266904864" /><line stroke="rgb(0%,0%,0%)" x1="28.2184571518" x2="29.1497077842" y1="552.771339113" y2="558.978437432" /><line stroke="rgb(0%,0%,0%)" x1="28.1831041891" x2="28.2184571518" y1="551.88302511" y2="552.771339113" /><line stroke="rgb(0%,0%,0%)" x1="26.2668145672" x2="28.1831041891" y1="549.999640201" y2="551.88302511" /><line stroke="rgb(0%,0%,0%)" x1="28.0819948722" x2="26.2668145672" y1="547.617522211" y2="549.999640201" /><line stroke="rgb(0%,0%,0%)" x1="28.3016576826" x2="28.0819948722" y1="546.216332555" y2="547.617522211" /><line stroke="rgb(0%,0%,0%)" x1="28.1325779354" x2="28.3016576826" y1="543.036304343" y2="546.216332555" /><line stroke="rgb(0%,0%,0%)" x1="28.9849500891" x2="28.1325779354" y1="539.325053442" y2="543.036304343" /><line stroke="rgb(0%,0%,0%)" x1="30.3518175977" x2="28.9849500891" y1="532.896395648" y2="539.325053442" /><line stroke="rgb(0%,0%,0%)" x1="38.1352275363" x2="34.3778860347" y1="517.450193621" y2="524.947805414" /><line stroke="rgb(0%,0%,0%)" x1="33.2256793577" x2="28.95915197" y1="485.803687403" y2="483.200863724" /><line stroke="rgb(0%,0%,0%)" x1="27.8332454906" x2="28.95915197" y1="482.185067389" y2="483.200863724" /><line stroke="rgb(0%,0%,0%)" x1="26.7795481884" x2="27.5088197043" y1="480.92213363" y2="481.677317896" /><line stroke="rgb(0%,0%,0%)" x1="27.5088197043" x2="27.8332454906" y1="481.677317896" y2="482.185067389" /><line stroke="rgb(0%,0%,0%)" x1="23.2835903147" x2="26.7795481884" y1="476.981887613" y2="480.92213363" /><line stroke="rgb(0%,0%,0%)" x1="21.0396002091" x2="23.2835903147" y1="472.555034775" y2="476.981887613" /><line stroke="rgb(0%,0%,0%)" x1="38.4814577978" x2="38.1352275363" y1="517.037232855" y2="517.450193621" /><line stroke="rgb(0%,0%,0%)" x1="38.9314857213" x2="38.4814577978" y1="516.412048904" y2="517.037232855" /><line stroke="rgb(0%,0%,0%)" x1="44.5628424438" x2="45.0105444807" y1="494.032148838" y2="494.492052872" /><line stroke="rgb(0%,0%,0%)" x1="44.304657295" x2="44.5628424438" y1="493.718955703" y2="494.032148838" /><line stroke="rgb(0%,0%,0%)" x1="41.5708221577" x2="44.304657295" y1="491.629627967" y2="493.718955703" /><line stroke="rgb(0%,0%,0%)" x1="465.760555309" x2="463.681834348" y1="607.488545482" y2="609.770673914" /><line stroke="rgb(0%,0%,0%)" x1="465.760555309" x2="471.883026449" y1="607.488545482" y2="598.250106922" /><line stroke="rgb(0%,0%,0%)" x1="476.836634561" x2="473.01339347" y1="589.161107877" y2="596.235824811" /><line stroke="rgb(0%,0%,0%)" x1="476.836634561" x2="479.389137793" y1="589.161107877" y2="584.505054657" /><line stroke="rgb(0%,0%,0%)" x1="483.403626937" x2="485.447227169" y1="578.98011353" y2="577.309002383" /><line stroke="rgb(0%,0%,0%)" x1="481.787802774" x2="483.403626937" y1="581.647072784" y2="578.98011353" /><line stroke="rgb(0%,0%,0%)" x1="490.034278448" x2="485.447227169" y1="570.648157254" y2="577.309002383" /><line stroke="rgb(0%,0%,0%)" x1="490.034278448" x2="490.316853476" y1="570.648157254" y2="569.939473538" /><line stroke="rgb(0%,0%,0%)" x1="492.643925099" x2="490.316853476" y1="566.93312844" y2="569.939473538" /><line stroke="rgb(0%,0%,0%)" x1="492.643925099" x2="493.892595318" y1="566.93312844" y2="564.429205147" /><line stroke="rgb(0%,0%,0%)" x1="493.892595318" x2="502.96251068" y1="564.429205147" y2="545.899736113" /><line stroke="rgb(0%,0%,0%)" x1="502.96251068" x2="503.511084629" y1="545.899736113" y2="545.255134987" /><line stroke="rgb(0%,0%,0%)" x1="512.991037691" x2="503.511084629" y1="532.325624059" y2="545.255134987" /><line stroke="rgb(0%,0%,0%)" x1="512.991037691" x2="514.112082837" y1="532.325624059" y2="530.534742221" /><line stroke="rgb(0%,0%,0%)" x1="514.112082837" x2="515.187445334" y1="530.534742221" y2="528.86257228" /><line stroke="rgb(0%,0%,0%)" x1="423.828662941" x2="419.502871311" y1="640.102995846" y2="643.28239907" /><line stroke="rgb(0%,0%,0%)" x1="418.190871578" x2="419.502871311" y1="644.306969843" y2="643.28239907" /><line stroke="rgb(0%,0%,0%)" x1="423.828662941" x2="430.319840454" y1="640.102995846" y2="634.589257735" /><line stroke="rgb(0%,0%,0%)" x1="436.239107871" x2="430.319840454" y1="629.660495763" y2="634.589257735" /><line stroke="rgb(0%,0%,0%)" x1="436.239107871" x2="438.711293913" y1="629.660495763" y2="627.583688771" /><line stroke="rgb(0%,0%,0%)" x1="444.21948727" x2="447.856545498" y1="623.886705321" y2="621.798722972" /><line stroke="rgb(0%,0%,0%)" x1="438.711293913" x2="444.21948727" y1="627.583688771" y2="623.886705321" /><line stroke="rgb(0%,0%,0%)" x1="447.856545498" x2="453.626596316" y1="621.798722972" y2="617.356990257" /><line stroke="rgb(0%,0%,0%)" x1="463.681834348" x2="453.626596316" y1="609.770673914" y2="617.356990257" /><line stroke="rgb(0%,0%,0%)" x1="471.883026449" x2="472.77801648" y1="598.250106922" y2="596.555350757" /><line stroke="rgb(0%,0%,0%)" x1="472.77801648" x2="473.01339347" y1="596.555350757" y2="596.235824811" /><line stroke="rgb(0%,0%,0%)" x1="310.248260543" x2="309.766032421" y1="779.624963822" y2="777.668192411" /><line stroke="rgb(0%,0%,0%)" x1="309.766032421" x2="304.359378974" y1="777.668192411" y2="766.614510713" /><line stroke="rgb(0%,0%,0%)" x1="311.16371323" x2="311.491234411" y1="814.37421406" y2="815.083216001" /><line stroke="rgb(0%,0%,0%)" x1="311.491234411" x2="313.247428449" y1="815.083216001" y2="823.951597192" /><line stroke="rgb(0%,0%,0%)" x1="310.966363327" x2="311.16371323" y1="813.250682848" y2="814.37421406" /><line stroke="rgb(0%,0%,0%)" x1="310.966363327" x2="311.000789728" y1="813.250682848" y2="804.459851739" /><line stroke="rgb(0%,0%,0%)" x1="310.92525962" x2="311.000789728" y1="799.590718839" y2="804.459851739" /><line stroke="rgb(0%,0%,0%)" x1="312.749654272" x2="311.170396572" y1="788.695287172" y2="798.889300457" /><line stroke="rgb(0%,0%,0%)" x1="310.248260543" x2="312.061328383" y1="779.624963822" y2="786.517445939" /><line stroke="rgb(0%,0%,0%)" x1="312.641936761" x2="312.749654272" y1="787.898500503" y2="788.695287172" /><line stroke="rgb(0%,0%,0%)" x1="312.061328383" x2="312.641936761" y1="786.517445939" y2="787.898500503" /><line stroke="rgb(0%,0%,0%)" x1="302.825809161" x2="304.359378974" y1="764.004698138" y2="766.614510713" /><line stroke="rgb(0%,0%,0%)" x1="311.070213055" x2="310.92525962" y1="799.148523894" y2="799.590718839" /><line stroke="rgb(0%,0%,0%)" x1="311.170396572" x2="311.070213055" y1="798.889300457" y2="799.148523894" /><line stroke="rgb(0%,0%,0%)" x1="302.016261482" x2="302.825809161" y1="762.731860891" y2="764.004698138" /><line stroke="rgb(0%,0%,0%)" x1="301.354039347" x2="302.016261482" y1="759.237247918" y2="762.731860891" /><line stroke="rgb(0%,0%,0%)" x1="69.0086459254" x2="65.400083468" y1="602.536780236" y2="599.003758639" /><line stroke="rgb(0%,0%,0%)" x1="62.9626806213" x2="65.400083468" y1="597.122613894" y2="599.003758639" /><line stroke="rgb(0%,0%,0%)" x1="62.310999384" x2="62.9626806213" y1="596.528243859" y2="597.122613894" /><line stroke="rgb(0%,0%,0%)" x1="60.7291174194" x2="62.310999384" y1="595.797326997" y2="596.528243859" /><line stroke="rgb(0%,0%,0%)" x1="60.7291174194" x2="51.8076185211" y1="595.797326997" y2="591.421075977" /><line stroke="rgb(0%,0%,0%)" x1="515.879404991" x2="515.187445334" y1="527.770051587" y2="528.86257228" /><line stroke="rgb(0%,0%,0%)" x1="479.389137793" x2="481.787802774" y1="584.505054657" y2="581.647072784" /><line stroke="rgb(0%,0%,0%)" x1="66.6375145548" x2="61.3659088638" y1="326.954260961" y2="329.579002568" /><line stroke="rgb(0%,0%,0%)" x1="70.3263415814" x2="66.6375145548" y1="324.89433949" y2="326.954260961" /><line stroke="rgb(0%,0%,0%)" x1="314.730387362" x2="317.733844175" y1="826.528575119" y2="832.102676845" /><line stroke="rgb(0%,0%,0%)" x1="313.247428449" x2="314.730387362" y1="823.951597192" y2="826.528575119" /><line stroke="rgb(0%,0%,0%)" x1="234.108856551" x2="234.353891115" y1="684.505762235" y2="684.256207378" /><line stroke="rgb(0%,0%,0%)" x1="234.353891115" x2="235.636992255" y1="684.256207378" y2="683.357566853" /><line stroke="rgb(0%,0%,0%)" x1="235.636992255" x2="241.834727721" y1="683.357566853" y2="683.890347577" /><line stroke="rgb(0%,0%,0%)" x1="234.108856551" x2="233.238310183" y1="684.505762235" y2="684.85620372" /><line stroke="rgb(0%,0%,0%)" x1="227.51717774" x2="233.238310183" y1="687.181117744" y2="684.85620372" /></svg>