<?xml version="1.0" encoding="utf-8" ?>
<svg baseProfile="full" height="100%" version="1.1" viewBox="0.5 0.5 685.793960571 941.299331665" width="100%" xmlns="http://www.w3.org/2000/svg" xmlns:ev="http://www.w3.org/2001/xml-events" xmlns:xlink="http://www.w3.org/1999/xlink"><defs /><line stroke="rgb(0%,0%,0%)" x1="530.778624529" x2="530.786401569" y1="462.209657142" y2="460.946680854" /><line stroke="rgb(0%,0%,0%)" x1="512.095960826" x2="510.731735225" y1="391.420989414" y2="389.063026445" /><line stroke="rgb(0%,0%,0%)" x1="515.236569682" x2="512.095960826" y1="395.460608569" y2="391.420989414" /><line stroke="rgb(0%,0%,0%)" x1="510.731735225" x2="509.712608817" y1="389.063026445" y2="387.011917633" /><line stroke="rgb(0%,0%,0%)" x1="528.600555362" x2="528.060750329" y1="441.526531781" y2="439.361814456" /><line stroke="rgb(0%,0%,0%)" x1="528.060750329" x2="526.802543031" y1="439.361814456" y2="433.115807675" /><line stroke="rgb(0%,0%,0%)" x1="526.802543031" x2="525.247488289" y1="433.115807675" y2="429.672295516" /><line stroke="rgb(0%,0%,0%)" x1="524.051990517" x2="525.247488289" y1="424.092829565" y2="429.672295516" /><line stroke="rgb(0%,0%,0%)" x1="524.051990517" x2="521.593385926" y1="424.092829565" y2="418.807614679" /><line stroke="rgb(0%,0%,0%)" x1="521.593385926" x2="520.717537729" y1="418.807614679" y2="413.992885313" /><line stroke="rgb(0%,0%,0%)" x1="520.717537729" x2="519.939585622" y1="413.992885313" y2="407.250662581" /><line stroke="rgb(0%,0%,0%)" x1="518.981552882" x2="519.939585622" y1="404.742862545" y2="407.250662581" /><line stroke="rgb(0%,0%,0%)" x1="518.981552882" x2="517.530928377" y1="404.742862545" y2="401.956184429" /><line stroke="rgb(0%,0%,0%)" x1="517.530928377" x2="515.236569682" y1="401.956184429" y2="395.460608569" /><line stroke="rgb(0%,0%,0%)" x1="530.786401569" x2="531.075373069" y1="460.946680854" y2="452.780761521" /><line stroke="rgb(0%,0%,0%)" x1="531.075373069" x2="530.609352933" y1="452.780761521" y2="449.626747011" /><line stroke="rgb(0%,0%,0%)" x1="530.609352933" x2="528.600555362" y1="449.626747011" y2="441.526531781" /><line stroke="rgb(0%,0%,0%)" x1="509.712608817" x2="507.082725417" y1="387.011917633" y2="382.152426608" /><line stroke="rgb(0%,0%,0%)" x1="380.5801373" x2="381.91681641" y1="251.481106871" y2="251.998024435" /><line stroke="rgb(0%,0%,0%)" x1="399.47414364" x2="403.344118913" y1="261.029103554" y2="263.3420787" /><line stroke="rgb(0%,0%,0%)" x1="424.528634711" x2="429.467095601" y1="280.381779553" y2="285.743778198" /><line stroke="rgb(0%,0%,0%)" x1="432.666348582" x2="429.467095601" y1="287.842113889" y2="285.743778198" /><line stroke="rgb(0%,0%,0%)" x1="415.561519188" x2="424.528634711" y1="271.164718066" y2="280.381779553" /><line stroke="rgb(0%,0%,0%)" x1="355.793056982" x2="356.529472928" y1="138.819766571" y2="142.321170639" /><line stroke="rgb(0%,0%,0%)" x1="355.793056982" x2="349.731447456" y1="138.819766571" y2="130.403670217" /><line stroke="rgb(0%,0%,0%)" x1="349.731447456" x2="348.124724805" y1="130.403670217" y2="128.417082856" /><line stroke="rgb(0%,0%,0%)" x1="359.164856621" x2="359.72971008" y1="200.444835671" y2="193.780125222" /><line stroke="rgb(0%,0%,0%)" x1="356.10611709" x2="357.593786341" y1="174.256255154" y2="180.453935656" /><line stroke="rgb(0%,0%,0%)" x1="357.859641287" x2="358.406923337" y1="164.951026963" y2="159.760456524" /><line stroke="rgb(0%,0%,0%)" x1="358.406923337" x2="357.050828937" y1="159.760456524" y2="149.401074106" /><line stroke="rgb(0%,0%,0%)" x1="357.050828937" x2="356.671953828" y1="149.401074106" y2="148.056175726" /><line stroke="rgb(0%,0%,0%)" x1="380.5801373" x2="379.524513751" y1="251.481106871" y2="250.865452782" /><line stroke="rgb(0%,0%,0%)" x1="370.49178058" x2="366.506141423" y1="247.212089077" y2="244.429315931" /><line stroke="rgb(0%,0%,0%)" x1="399.47414364" x2="381.91681641" y1="261.029103554" y2="251.998024435" /><line stroke="rgb(0%,0%,0%)" x1="408.89203422" x2="403.344118913" y1="267.610672525" y2="263.3420787" /><line stroke="rgb(0%,0%,0%)" x1="408.89203422" x2="415.561519188" y1="267.610672525" y2="271.164718066" /><line stroke="rgb(0%,0%,0%)" x1="343.692547605" x2="337.984401146" y1="117.987647169" y2="108.128347557" /><line stroke="rgb(0%,0%,0%)" x1="330.937366736" x2="337.78005602" y1="98.3971264411" y2="107.383381757" /><line stroke="rgb(0%,0%,0%)" x1="356.671953828" x2="356.529472928" y1="148.056175726" y2="142.321170639" /><line stroke="rgb(0%,0%,0%)" x1="348.124724805" x2="345.143186478" y1="128.417082856" y2="122.355623537" /><line stroke="rgb(0%,0%,0%)" x1="345.143186478" x2="343.692547605" y1="122.355623537" y2="117.987647169" /><line stroke="rgb(0%,0%,0%)" x1="366.506141423" x2="362.255685469" y1="244.429315931" y2="242.06947557" /><line stroke="rgb(0%,0%,0%)" x1="360.459723184" x2="357.704864664" y1="238.738320157" y2="233.325940794" /><line stroke="rgb(0%,0%,0%)" x1="357.704864664" x2="355.253980027" y1="233.325940794" y2="223.465953973" /><line stroke="rgb(0%,0%,0%)" x1="355.253980027" x2="355.169927059" y1="223.465953973" y2="222.989054473" /><line stroke="rgb(0%,0%,0%)" x1="357.94609865" x2="356.849346194" y1="209.425470581" y2="212.908789399" /><line stroke="rgb(0%,0%,0%)" x1="355.644199743" x2="356.849346194" y1="215.588216546" y2="212.908789399" /><line stroke="rgb(0%,0%,0%)" x1="359.164856621" x2="357.910901339" y1="200.444835671" y2="206.762942572" /><line stroke="rgb(0%,0%,0%)" x1="357.94609865" x2="357.910901339" y1="209.425470581" y2="206.762942572" /><line stroke="rgb(0%,0%,0%)" x1="359.72971008" x2="359.605273099" y1="193.780125222" y2="192.081758694" /><line stroke="rgb(0%,0%,0%)" x1="359.605273099" x2="357.593786341" y1="192.081758694" y2="180.453935656" /><line stroke="rgb(0%,0%,0%)" x1="356.10611709" x2="357.859641287" y1="174.256255154" y2="164.951026963" /><line stroke="rgb(0%,0%,0%)" x1="379.524513751" x2="370.49178058" y1="250.865452782" y2="247.212089077" /><line stroke="rgb(0%,0%,0%)" x1="293.234235339" x2="292.517532031" y1="179.464540804" y2="176.008724559" /><line stroke="rgb(0%,0%,0%)" x1="292.798365186" x2="293.234235339" y1="180.475285033" y2="179.464540804" /><line stroke="rgb(0%,0%,0%)" x1="291.254979936" x2="284.300826331" y1="187.185670111" y2="192.266957306" /><line stroke="rgb(0%,0%,0%)" x1="292.798365186" x2="291.254979936" y1="180.475285033" y2="187.185670111" /><line stroke="rgb(0%,0%,0%)" x1="291.319640896" x2="290.87765324" y1="162.653955069" y2="165.81615614" /><line stroke="rgb(0%,0%,0%)" x1="291.319640896" x2="294.289498625" y1="162.653955069" y2="156.943588621" /><line stroke="rgb(0%,0%,0%)" x1="303.002227383" x2="302.670999518" y1="138.179428051" y2="140.987045432" /><line stroke="rgb(0%,0%,0%)" x1="301.368843165" x2="302.670999518" y1="143.053307855" y2="140.987045432" /><line stroke="rgb(0%,0%,0%)" x1="304.470758938" x2="300.673600719" y1="133.244693147" y2="127.841175768" /><line stroke="rgb(0%,0%,0%)" x1="304.470758938" x2="303.002227383" y1="133.244693147" y2="138.179428051" /><line stroke="rgb(0%,0%,0%)" x1="305.916889239" x2="299.57494789" y1="84.4593151205" y2="86.4600832758" /><line stroke="rgb(0%,0%,0%)" x1="323.958545476" x2="324.130460964" y1="88.6680554213" y2="88.7713293688" /><line stroke="rgb(0%,0%,0%)" x1="323.958545476" x2="309.036831932" y1="88.6680554213" y2="84.2530489747" /><line stroke="rgb(0%,0%,0%)" x1="309.036831932" x2="305.916889239" y1="84.2530489747" y2="84.4593151205" /><line stroke="rgb(0%,0%,0%)" x1="324.130460964" x2="324.961913745" y1="88.7713293688" y2="89.8428323411" /><line stroke="rgb(0%,0%,0%)" x1="330.937366736" x2="329.790166754" y1="98.3971264411" y2="97.7873011" /><line stroke="rgb(0%,0%,0%)" x1="329.790166754" x2="324.961913745" y1="97.7873011" y2="89.8428323411" /><line stroke="rgb(0%,0%,0%)" x1="337.984401146" x2="337.933698703" y1="108.128347557" y2="107.708322518" /><line stroke="rgb(0%,0%,0%)" x1="337.933698703" x2="337.78005602" y1="107.708322518" y2="107.383381757" /><line stroke="rgb(0%,0%,0%)" x1="355.142721778" x2="355.169927059" y1="218.580921963" y2="222.989054473" /><line stroke="rgb(0%,0%,0%)" x1="355.142721778" x2="355.644199743" y1="218.580921963" y2="215.588216546" /><line stroke="rgb(0%,0%,0%)" x1="362.255685469" x2="360.459723184" y1="242.06947557" y2="238.738320157" /><line stroke="rgb(0%,0%,0%)" x1="290.743213167" x2="292.517532031" y1="169.812286326" y2="176.008724559" /><line stroke="rgb(0%,0%,0%)" x1="290.87765324" x2="290.743213167" y1="165.81615614" y2="169.812286326" /><line stroke="rgb(0%,0%,0%)" x1="295.81435248" x2="294.289498625" y1="151.587714201" y2="156.943588621" /><line stroke="rgb(0%,0%,0%)" x1="292.678580488" x2="293.605240626" y1="114.432726882" y2="117.724939848" /><line stroke="rgb(0%,0%,0%)" x1="291.550655102" x2="292.678580488" y1="112.250314133" y2="114.432726882" /><line stroke="rgb(0%,0%,0%)" x1="290.541110705" x2="291.550655102" y1="109.72172375" y2="112.250314133" /><line stroke="rgb(0%,0%,0%)" x1="290.444942543" x2="290.541110705" y1="105.222617262" y2="109.72172375" /><line stroke="rgb(0%,0%,0%)" x1="290.444942543" x2="293.343164099" y1="105.222617262" y2="92.8668898373" /><line stroke="rgb(0%,0%,0%)" x1="293.971824243" x2="293.343164099" y1="91.8514577986" y2="92.8668898373" /><line stroke="rgb(0%,0%,0%)" x1="301.368843165" x2="295.81435248" y1="143.053307855" y2="151.587714201" /><line stroke="rgb(0%,0%,0%)" x1="297.330501922" x2="300.673600719" y1="122.626722986" y2="127.841175768" /><line stroke="rgb(0%,0%,0%)" x1="293.605240626" x2="297.330501922" y1="117.724939848" y2="122.626722986" /><line stroke="rgb(0%,0%,0%)" x1="293.971824243" x2="298.710562761" y1="91.8514577986" y2="87.2460308256" /><line stroke="rgb(0%,0%,0%)" x1="299.182686665" x2="298.710562761" y1="86.7817940707" y2="87.2460308256" /><line stroke="rgb(0%,0%,0%)" x1="299.57494789" x2="299.182686665" y1="86.4600832758" y2="86.7817940707" /><line stroke="rgb(0%,0%,0%)" x1="252.351392591" x2="238.66766598" y1="217.86638786" y2="223.839895624" /><line stroke="rgb(0%,0%,0%)" x1="271.934787378" x2="259.208203862" y1="207.246743656" y2="213.654184387" /><line stroke="rgb(0%,0%,0%)" x1="259.208203862" x2="252.351392591" y1="213.654184387" y2="217.86638786" /><line stroke="rgb(0%,0%,0%)" x1="276.962494661" x2="271.934787378" y1="201.321950512" y2="207.246743656" /><line stroke="rgb(0%,0%,0%)" x1="276.962494661" x2="284.300826331" y1="201.321950512" y2="192.266957306" /><line stroke="rgb(0%,0%,0%)" x1="204.389926461" x2="204.208681286" y1="261.150998723" y2="261.343511528" /><line stroke="rgb(0%,0%,0%)" x1="204.389926461" x2="204.89987117" y1="261.150998723" y2="260.824156133" /><line stroke="rgb(0%,0%,0%)" x1="208.872838469" x2="208.250778393" y1="255.703364024" y2="257.707463433" /><line stroke="rgb(0%,0%,0%)" x1="209.648225998" x2="209.843699664" y1="253.583422514" y2="245.487089836" /><line stroke="rgb(0%,0%,0%)" x1="210.318064087" x2="212.403735785" y1="241.293210324" y2="237.4874607" /><line stroke="rgb(0%,0%,0%)" x1="223.6679846" x2="221.472447147" y1="228.550159904" y2="229.531476921" /><line stroke="rgb(0%,0%,0%)" x1="221.472447147" x2="215.471659446" y1="229.531476921" y2="234.351952278" /><line stroke="rgb(0%,0%,0%)" x1="224.444017299" x2="223.6679846" y1="228.146769369" y2="228.550159904" /><line stroke="rgb(0%,0%,0%)" x1="224.444017299" x2="225.942234677" y1="228.146769369" y2="227.670467297" /><line stroke="rgb(0%,0%,0%)" x1="238.66766598" x2="233.762107466" y1="223.839895624" y2="223.760750738" /><line stroke="rgb(0%,0%,0%)" x1="233.762107466" x2="225.942234677" y1="223.760750738" y2="227.670467297" /><line stroke="rgb(0%,0%,0%)" x1="173.57549286" x2="180.46010854" y1="275.331033852" y2="271.71168819" /><line stroke="rgb(0%,0%,0%)" x1="182.216549206" x2="190.188099633" y1="270.629723571" y2="268.736961538" /><line stroke="rgb(0%,0%,0%)" x1="195.20619753" x2="190.363372037" y1="265.723899697" y2="268.711325725" /><line stroke="rgb(0%,0%,0%)" x1="195.541940279" x2="195.20619753" y1="264.909646096" y2="265.723899697" /><line stroke="rgb(0%,0%,0%)" x1="195.541940279" x2="197.933923802" y1="264.909646096" y2="263.29715081" /><line stroke="rgb(0%,0%,0%)" x1="204.208681286" x2="202.386961424" y1="261.343511528" y2="262.377953781" /><line stroke="rgb(0%,0%,0%)" x1="202.386961424" x2="201.817531015" y1="262.377953781" y2="262.802569102" /><line stroke="rgb(0%,0%,0%)" x1="201.817531015" x2="198.348151308" y1="262.802569102" y2="262.852617605" /><line stroke="rgb(0%,0%,0%)" x1="207.443282261" x2="204.89987117" y1="258.487724792" y2="260.824156133" /><line stroke="rgb(0%,0%,0%)" x1="208.250778393" x2="207.443282261" y1="257.707463433" y2="258.487724792" /><line stroke="rgb(0%,0%,0%)" x1="209.648225998" x2="208.872838469" y1="253.583422514" y2="255.703364024" /><line stroke="rgb(0%,0%,0%)" x1="210.318064087" x2="209.843699664" y1="241.293210324" y2="245.487089836" /><line stroke="rgb(0%,0%,0%)" x1="213.011173223" x2="212.403735785" y1="237.252894479" y2="237.4874607" /><line stroke="rgb(0%,0%,0%)" x1="215.471659446" x2="213.011173223" y1="234.351952278" y2="237.252894479" /><line stroke="rgb(0%,0%,0%)" x1="139.520868016" x2="137.512306296" y1="285.290988794" y2="285.823383328" /><line stroke="rgb(0%,0%,0%)" x1="139.520868016" x2="147.084711152" y1="285.290988794" y2="285.116645773" /><line stroke="rgb(0%,0%,0%)" x1="152.666624188" x2="152.285571946" y1="284.570791246" y2="284.782021487" /><line stroke="rgb(0%,0%,0%)" x1="170.402888055" x2="152.666624188" y1="275.875365015" y2="284.570791246" /><line stroke="rgb(0%,0%,0%)" x1="173.57549286" x2="170.402888055" y1="275.331033852" y2="275.875365015" /><line stroke="rgb(0%,0%,0%)" x1="181.551895675" x2="180.46010854" y1="271.005375876" y2="271.71168819" /><line stroke="rgb(0%,0%,0%)" x1="182.216549206" x2="181.551895675" y1="270.629723571" y2="271.005375876" /><line stroke="rgb(0%,0%,0%)" x1="190.286027914" x2="190.188099633" y1="268.730675238" y2="268.736961538" /><line stroke="rgb(0%,0%,0%)" x1="190.363372037" x2="190.286027914" y1="268.711325725" y2="268.730675238" /><line stroke="rgb(0%,0%,0%)" x1="198.348151308" x2="197.933923802" y1="262.852617605" y2="263.29715081" /><line stroke="rgb(0%,0%,0%)" x1="118.450390208" x2="123.79477871" y1="291.80611358" y2="289.694822026" /><line stroke="rgb(0%,0%,0%)" x1="135.692732296" x2="126.316172751" y1="286.024570338" y2="288.158034361" /><line stroke="rgb(0%,0%,0%)" x1="137.512306296" x2="135.692732296" y1="285.823383328" y2="286.024570338" /><line stroke="rgb(0%,0%,0%)" x1="151.756024173" x2="151.50550449" y1="284.905004483" y2="284.908997918" /><line stroke="rgb(0%,0%,0%)" x1="152.285571946" x2="151.756024173" y1="284.782021487" y2="284.905004483" /><line stroke="rgb(0%,0%,0%)" x1="151.50550449" x2="147.084711152" y1="284.908997918" y2="285.116645773" /><line stroke="rgb(0%,0%,0%)" x1="78.6600242226" x2="78.4336473455" y1="322.487621896" y2="322.62396417" /><line stroke="rgb(0%,0%,0%)" x1="78.6600242226" x2="79.110164726" y1="322.487621896" y2="322.337224064" /><line stroke="rgb(0%,0%,0%)" x1="83.1947660922" x2="83.3057226699" y1="317.133364952" y2="317.388624215" /><line stroke="rgb(0%,0%,0%)" x1="87.6626629301" x2="86.93388395" y1="307.81941302" y2="310.022549859" /><line stroke="rgb(0%,0%,0%)" x1="86.93388395" x2="83.1947660922" y1="310.022549859" y2="317.133364952" /><line stroke="rgb(0%,0%,0%)" x1="92.3284918603" x2="87.6626629301" y1="303.514910027" y2="307.81941302" /><line stroke="rgb(0%,0%,0%)" x1="94.0404453347" x2="95.4281880445" y1="301.673285299" y2="300.814807561" /><line stroke="rgb(0%,0%,0%)" x1="94.0404453347" x2="92.3284918603" y1="301.673285299" y2="303.514910027" /><line stroke="rgb(0%,0%,0%)" x1="99.1923046755" x2="103.206636446" y1="299.669269529" y2="297.0650773" /><line stroke="rgb(0%,0%,0%)" x1="99.1923046755" x2="95.4281880445" y1="299.669269529" y2="300.814807561" /><line stroke="rgb(0%,0%,0%)" x1="114.096284459" x2="118.450390208" y1="293.730337982" y2="291.80611358" /><line stroke="rgb(0%,0%,0%)" x1="114.096284459" x2="110.183301861" y1="293.730337982" y2="294.729013141" /><line stroke="rgb(0%,0%,0%)" x1="110.183301861" x2="103.206636446" y1="294.729013141" y2="297.0650773" /><line stroke="rgb(0%,0%,0%)" x1="126.316172751" x2="123.79477871" y1="288.158034361" y2="289.694822026" /><line stroke="rgb(0%,0%,0%)" x1="41.1664232523" x2="41.6005421689" y1="409.624888567" y2="411.026699485" /><line stroke="rgb(0%,0%,0%)" x1="41.1664232523" x2="39.6901143784" y1="409.624888567" y2="406.55977565" /><line stroke="rgb(0%,0%,0%)" x1="58.8008855325" x2="54.7379204173" y1="334.630679983" y2="338.12388024" /><line stroke="rgb(0%,0%,0%)" x1="60.6054950818" x2="58.8008855325" y1="332.022087864" y2="334.630679983" /><line stroke="rgb(0%,0%,0%)" x1="78.4336473455" x2="78.1431692632" y1="322.62396417" y2="322.746497565" /><line stroke="rgb(0%,0%,0%)" x1="83.3057226699" x2="79.110164726" y1="317.388624215" y2="322.337224064" /><line stroke="rgb(0%,0%,0%)" x1="19.4415765554" x2="20.0054264348" y1="455.693067458" y2="454.051234301" /><line stroke="rgb(0%,0%,0%)" x1="24.2433057725" x2="24.2233464502" y1="442.375883316" y2="442.414918724" /><line stroke="rgb(0%,0%,0%)" x1="24.2433057725" x2="24.2595447229" y1="442.375883316" y2="442.357061233" /><line stroke="rgb(0%,0%,0%)" x1="31.5865716428" x2="29.2377895936" y1="432.799620377" y2="435.425425894" /><line stroke="rgb(0%,0%,0%)" x1="30.6119347179" x2="31.9638626019" y1="384.686105155" y2="386.576579626" /><line stroke="rgb(0%,0%,0%)" x1="29.9995573086" x2="30.6119347179" y1="383.458818853" y2="384.686105155" /><line stroke="rgb(0%,0%,0%)" x1="31.9638626019" x2="34.0549177938" y1="386.576579626" y2="392.863729911" /><line stroke="rgb(0%,0%,0%)" x1="29.9995573086" x2="29.5289849312" y1="383.458818853" y2="382.501770883" /><line stroke="rgb(0%,0%,0%)" x1="29.6755218408" x2="29.5289849312" y1="379.015584712" y2="382.501770883" /><line stroke="rgb(0%,0%,0%)" x1="29.924399172" x2="29.6755218408" y1="377.52885265" y2="379.015584712" /><line stroke="rgb(0%,0%,0%)" x1="29.924399172" x2="29.5525591509" y1="377.52885265" y2="376.063472219" /><line stroke="rgb(0%,0%,0%)" x1="29.0700861512" x2="29.5525591509" y1="372.843523844" y2="376.063472219" /><line stroke="rgb(0%,0%,0%)" x1="29.0700861512" x2="32.4405522332" y1="372.843523844" y2="361.390386923" /><line stroke="rgb(0%,0%,0%)" x1="32.487964773" x2="32.4405522332" y1="361.218477814" y2="361.390386923" /><line stroke="rgb(0%,0%,0%)" x1="32.8158111758" x2="35.4136167038" y1="431.922970769" y2="426.947306537" /><line stroke="rgb(0%,0%,0%)" x1="34.2933791177" x2="34.5003103716" y1="419.110800692" y2="423.457513394" /><line stroke="rgb(0%,0%,0%)" x1="41.6005421689" x2="34.2933791177" y1="411.026699485" y2="419.110800692" /><line stroke="rgb(0%,0%,0%)" x1="35.2575584535" x2="37.6883722543" y1="396.875998149" y2="402.868787898" /><line stroke="rgb(0%,0%,0%)" x1="37.6883722543" x2="39.1629735704" y1="402.868787898" y2="405.579858449" /><line stroke="rgb(0%,0%,0%)" x1="35.2575584535" x2="34.0549177938" y1="396.875998149" y2="392.863729911" /><line stroke="rgb(0%,0%,0%)" x1="32.6042639053" x2="32.487964773" y1="361.066896039" y2="361.218477814" /><line stroke="rgb(0%,0%,0%)" x1="42.6201914039" x2="32.6042639053" y1="348.87458458" y2="361.066896039" /><line stroke="rgb(0%,0%,0%)" x1="42.6201914039" x2="45.4892268149" y1="348.87458458" y2="345.899435289" /><line stroke="rgb(0%,0%,0%)" x1="46.9801983415" x2="45.4892268149" y1="343.483508007" y2="345.899435289" /><line stroke="rgb(0%,0%,0%)" x1="46.9801983415" x2="52.9187161399" y1="343.483508007" y2="339.834276553" /><line stroke="rgb(0%,0%,0%)" x1="54.7379204173" x2="52.9187161399" y1="338.12388024" y2="339.834276553" /><line stroke="rgb(0%,0%,0%)" x1="19.7626389259" x2="19.5792867776" y1="457.641503549" y2="462.465686389" /><line stroke="rgb(0%,0%,0%)" x1="19.7626389259" x2="19.4415765554" y1="457.641503549" y2="455.693067458" /><line stroke="rgb(0%,0%,0%)" x1="20.0054264348" x2="21.9672369259" y1="454.051234301" y2="449.896314523" /><line stroke="rgb(0%,0%,0%)" x1="22.4577508539" x2="21.9672369259" y1="446.051999149" y2="449.896314523" /><line stroke="rgb(0%,0%,0%)" x1="24.2233464502" x2="22.4577508539" y1="442.414918724" y2="446.051999149" /><line stroke="rgb(0%,0%,0%)" x1="27.8457390719" x2="24.2595447229" y1="437.445786213" y2="442.357061233" /><line stroke="rgb(0%,0%,0%)" x1="32.8158111758" x2="31.5865716428" y1="431.922970769" y2="432.799620377" /><line stroke="rgb(0%,0%,0%)" x1="35.3785956053" x2="35.4136167038" y1="426.247597079" y2="426.947306537" /><line stroke="rgb(0%,0%,0%)" x1="34.5003103716" x2="35.3785956053" y1="423.457513394" y2="426.247597079" /><line stroke="rgb(0%,0%,0%)" x1="39.5209630387" x2="39.6901143784" y1="405.783691312" y2="406.55977565" /><line stroke="rgb(0%,0%,0%)" x1="39.1629735704" x2="39.5209630387" y1="405.579858449" y2="405.783691312" /><line stroke="rgb(0%,0%,0%)" x1="516.371145419" x2="515.797476568" y1="527.165136356" y2="528.244455288" /><line stroke="rgb(0%,0%,0%)" x1="516.371145419" x2="517.868242873" y1="527.165136356" y2="524.529273225" /><line stroke="rgb(0%,0%,0%)" x1="526.247372773" x2="525.549681355" y1="495.822081663" y2="499.569731309" /><line stroke="rgb(0%,0%,0%)" x1="526.247372773" x2="526.417784041" y1="495.822081663" y2="493.792864496" /><line stroke="rgb(0%,0%,0%)" x1="526.417784041" x2="530.407337975" y1="493.792864496" y2="476.371814665" /><line stroke="rgb(0%,0%,0%)" x1="530.778624529" x2="531.471474858" y1="462.209657142" y2="469.695429926" /><line stroke="rgb(0%,0%,0%)" x1="485.242470477" x2="482.947603691" y1="352.101295592" y2="347.826267278" /><line stroke="rgb(0%,0%,0%)" x1="478.80587351" x2="478.829491434" y1="340.285923554" y2="340.316068329" /><line stroke="rgb(0%,0%,0%)" x1="478.80587351" x2="478.783693626" y1="340.285923554" y2="340.253009771" /><line stroke="rgb(0%,0%,0%)" x1="496.625743848" x2="501.741641057" y1="367.288380279" y2="372.608422483" /><line stroke="rgb(0%,0%,0%)" x1="485.242470477" x2="488.978588995" y1="352.101295592" y2="359.880266535" /><line stroke="rgb(0%,0%,0%)" x1="515.209071956" x2="514.035152138" y1="529.273750625" y2="531.346306447" /><line stroke="rgb(0%,0%,0%)" x1="509.27911629" x2="514.035152138" y1="539.590970415" y2="531.346306447" /><line stroke="rgb(0%,0%,0%)" x1="515.797476568" x2="515.209071956" y1="528.244455288" y2="529.273750625" /><line stroke="rgb(0%,0%,0%)" x1="505.543024733" x2="507.082725417" y1="379.36950848" y2="382.152426608" /><line stroke="rgb(0%,0%,0%)" x1="505.543024733" x2="504.263732885" y1="379.36950848" y2="376.616778952" /><line stroke="rgb(0%,0%,0%)" x1="504.263732885" x2="503.837356196" y1="376.616778952" y2="375.740097606" /><line stroke="rgb(0%,0%,0%)" x1="503.837356196" x2="501.741641057" y1="375.740097606" y2="372.608422483" /><line stroke="rgb(0%,0%,0%)" x1="517.868242873" x2="522.019654471" y1="524.529273225" y2="515.965215262" /><line stroke="rgb(0%,0%,0%)" x1="522.019654471" x2="525.549681355" y1="515.965215262" y2="499.569731309" /><line stroke="rgb(0%,0%,0%)" x1="530.407337975" x2="531.480780655" y1="476.371814665" y2="471.958482751" /><line stroke="rgb(0%,0%,0%)" x1="531.480780655" x2="531.600706121" y1="471.958482751" y2="471.208496948" /><line stroke="rgb(0%,0%,0%)" x1="531.600706121" x2="531.471474858" y1="471.208496948" y2="469.695429926" /><line stroke="rgb(0%,0%,0%)" x1="457.305395178" x2="462.055812266" y1="308.164633893" y2="313.136537795" /><line stroke="rgb(0%,0%,0%)" x1="472.325635208" x2="468.880229861" y1="331.529693327" y2="326.33881602" /><line stroke="rgb(0%,0%,0%)" x1="468.880229861" x2="466.31347202" y1="326.33881602" y2="321.943147067" /><line stroke="rgb(0%,0%,0%)" x1="466.31347202" x2="466.008143074" y1="321.943147067" y2="321.273339194" /><line stroke="rgb(0%,0%,0%)" x1="462.055812266" x2="463.785881901" y1="313.136537795" y2="317.224799828" /><line stroke="rgb(0%,0%,0%)" x1="466.008143074" x2="463.785881901" y1="321.273339194" y2="317.224799828" /><line stroke="rgb(0%,0%,0%)" x1="482.947603691" x2="481.433512371" y1="347.826267278" y2="346.10879678" /><line stroke="rgb(0%,0%,0%)" x1="481.433512371" x2="478.829491434" y1="346.10879678" y2="340.316068329" /><line stroke="rgb(0%,0%,0%)" x1="478.783693626" x2="472.325635208" y1="340.253009771" y2="331.529693327" /><line stroke="rgb(0%,0%,0%)" x1="496.625743848" x2="489.435498096" y1="367.288380279" y2="360.306901808" /><line stroke="rgb(0%,0%,0%)" x1="489.435498096" x2="489.265381519" y1="360.306901808" y2="360.170820324" /><line stroke="rgb(0%,0%,0%)" x1="489.265381519" x2="488.978588995" y1="360.170820324" y2="359.880266535" /><line stroke="rgb(0%,0%,0%)" x1="419.135489078" x2="419.607988524" y1="644.601784948" y2="644.343683107" /><line stroke="rgb(0%,0%,0%)" x1="419.607988524" x2="420.137171957" y1="644.343683107" y2="643.944726112" /><line stroke="rgb(0%,0%,0%)" x1="420.137171957" x2="420.685408679" y1="643.944726112" y2="643.542115444" /><line stroke="rgb(0%,0%,0%)" x1="420.685408679" x2="433.41034175" y1="643.542115444" y2="634.796868571" /><line stroke="rgb(0%,0%,0%)" x1="448.969563784" x2="433.527107652" y1="300.035332477" y2="288.751265676" /><line stroke="rgb(0%,0%,0%)" x1="433.527107652" x2="432.666348582" y1="288.751265676" y2="287.842113889" /><line stroke="rgb(0%,0%,0%)" x1="452.136599554" x2="448.969563784" y1="303.272348346" y2="300.035332477" /><line stroke="rgb(0%,0%,0%)" x1="457.305395178" x2="454.582797138" y1="308.164633893" y2="305.764229459" /><line stroke="rgb(0%,0%,0%)" x1="393.592482063" x2="393.131247292" y1="656.853207854" y2="657.1624342" /><line stroke="rgb(0%,0%,0%)" x1="393.592482063" x2="394.17601047" y1="656.853207854" y2="656.502640105" /><line stroke="rgb(0%,0%,0%)" x1="394.17601047" x2="405.37493297" y1="656.502640105" y2="653.439843151" /><line stroke="rgb(0%,0%,0%)" x1="405.37493297" x2="405.654057149" y1="653.439843151" y2="653.339201644" /><line stroke="rgb(0%,0%,0%)" x1="419.135489078" x2="418.65771205" y1="644.601784948" y2="645.03002146" /><line stroke="rgb(0%,0%,0%)" x1="405.654057149" x2="408.559474724" y1="653.339201644" y2="651.494210266" /><line stroke="rgb(0%,0%,0%)" x1="408.559474724" x2="410.491085386" y1="651.494210266" y2="650.633214575" /><line stroke="rgb(0%,0%,0%)" x1="410.491085386" x2="418.65771205" y1="650.633214575" y2="645.03002146" /><line stroke="rgb(0%,0%,0%)" x1="452.355921322" x2="452.136599554" y1="303.547115802" y2="303.272348346" /><line stroke="rgb(0%,0%,0%)" x1="454.582797138" x2="452.355921322" y1="305.764229459" y2="303.547115802" /><line stroke="rgb(0%,0%,0%)" x1="326.30014724" x2="327.715285119" y1="847.380831087" y2="847.587469832" /><line stroke="rgb(0%,0%,0%)" x1="360.280955568" x2="358.479087971" y1="814.790991301" y2="817.23770557" /><line stroke="rgb(0%,0%,0%)" x1="364.199957186" x2="364.163407715" y1="807.678715413" y2="808.63222321" /><line stroke="rgb(0%,0%,0%)" x1="364.199957186" x2="365.000662781" y1="807.678715413" y2="806.100283998" /><line stroke="rgb(0%,0%,0%)" x1="365.000662781" x2="364.335169774" y1="806.100283998" y2="800.822002625" /><line stroke="rgb(0%,0%,0%)" x1="364.335169774" x2="365.001951383" y1="800.822002625" y2="799.065303188" /><line stroke="rgb(0%,0%,0%)" x1="361.476770819" x2="364.234189874" y1="708.33658099" y2="713.008264193" /><line stroke="rgb(0%,0%,0%)" x1="361.476770819" x2="360.177136499" y1="708.33658099" y2="705.588226352" /><line stroke="rgb(0%,0%,0%)" x1="359.985763797" x2="360.609609287" y1="701.919657988" y2="698.263089086" /><line stroke="rgb(0%,0%,0%)" x1="362.151373576" x2="365.329069611" y1="672.232726485" y2="669.26273075" /><line stroke="rgb(0%,0%,0%)" x1="365.001951383" x2="366.282271507" y1="799.065303188" y2="792.879222991" /><line stroke="rgb(0%,0%,0%)" x1="369.926224281" x2="368.730807776" y1="778.091411384" y2="785.279664817" /><line stroke="rgb(0%,0%,0%)" x1="366.282271507" x2="368.730807776" y1="792.879222991" y2="785.279664817" /><line stroke="rgb(0%,0%,0%)" x1="369.926224281" x2="370.405872542" y1="778.091411384" y2="773.761641624" /><line stroke="rgb(0%,0%,0%)" x1="370.405872542" x2="369.965914129" y1="773.761641624" y2="765.178884239" /><line stroke="rgb(0%,0%,0%)" x1="369.965914129" x2="367.213424154" y1="765.178884239" y2="758.241510551" /><line stroke="rgb(0%,0%,0%)" x1="365.292321765" x2="365.211191189" y1="745.626218219" y2="749.070212034" /><line stroke="rgb(0%,0%,0%)" x1="365.292321765" x2="365.681296922" y1="745.626218219" y2="743.212162446" /><line stroke="rgb(0%,0%,0%)" x1="365.681296922" x2="367.330536819" y1="743.212162446" y2="733.785289181" /><line stroke="rgb(0%,0%,0%)" x1="367.330536819" x2="366.005928943" y1="733.785289181" y2="722.983183051" /><line stroke="rgb(0%,0%,0%)" x1="366.005928943" x2="365.168442728" y1="722.983183051" y2="716.934704588" /><line stroke="rgb(0%,0%,0%)" x1="375.796596306" x2="369.456937694" y1="666.450731982" y2="668.246288598" /><line stroke="rgb(0%,0%,0%)" x1="375.796596306" x2="380.454994287" y1="666.450731982" y2="664.936952146" /><line stroke="rgb(0%,0%,0%)" x1="380.454994287" x2="382.743042607" y1="664.936952146" y2="664.136035735" /><line stroke="rgb(0%,0%,0%)" x1="382.743042607" x2="393.131247292" y1="664.136035735" y2="657.1624342" /><line stroke="rgb(0%,0%,0%)" x1="326.30014724" x2="325.21106434" y1="847.380831087" y2="846.974164771" /><line stroke="rgb(0%,0%,0%)" x1="319.563953605" x2="318.614574926" y1="842.214625112" y2="841.211899422" /><line stroke="rgb(0%,0%,0%)" x1="327.715285119" x2="329.482026213" y1="847.587469832" y2="847.689861008" /><line stroke="rgb(0%,0%,0%)" x1="329.482026213" x2="334.26804841" y1="847.689861008" y2="847.30711305" /><line stroke="rgb(0%,0%,0%)" x1="347.13959618" x2="344.307126704" y1="837.554699177" y2="841.206316765" /><line stroke="rgb(0%,0%,0%)" x1="349.166524383" x2="347.13959618" y1="835.14651984" y2="837.554699177" /><line stroke="rgb(0%,0%,0%)" x1="349.166524383" x2="349.916456831" y1="835.14651984" y2="834.015279317" /><line stroke="rgb(0%,0%,0%)" x1="339.871800694" x2="344.307126704" y1="845.897237678" y2="841.206316765" /><line stroke="rgb(0%,0%,0%)" x1="349.916456831" x2="355.560300592" y1="834.015279317" y2="826.393409746" /><line stroke="rgb(0%,0%,0%)" x1="355.560300592" x2="356.828252165" y1="826.393409746" y2="825.592095175" /><line stroke="rgb(0%,0%,0%)" x1="357.053049953" x2="356.828252165" y1="824.229333188" y2="825.592095175" /><line stroke="rgb(0%,0%,0%)" x1="357.053049953" x2="358.479087971" y1="824.229333188" y2="817.23770557" /><line stroke="rgb(0%,0%,0%)" x1="360.177136499" x2="359.985763797" y1="705.588226352" y2="701.919657988" /><line stroke="rgb(0%,0%,0%)" x1="360.609609287" x2="360.253344904" y1="698.263089086" y2="692.504492783" /><line stroke="rgb(0%,0%,0%)" x1="361.350492997" x2="361.58396654" y1="683.496222292" y2="680.175523564" /><line stroke="rgb(0%,0%,0%)" x1="360.253344904" x2="361.350492997" y1="692.504492783" y2="683.496222292" /><line stroke="rgb(0%,0%,0%)" x1="361.58396654" x2="361.520405279" y1="680.175523564" y2="679.519855153" /><line stroke="rgb(0%,0%,0%)" x1="360.153370104" x2="361.520405279" y1="674.111320444" y2="679.519855153" /><line stroke="rgb(0%,0%,0%)" x1="360.153370104" x2="362.151373576" y1="674.111320444" y2="672.232726485" /><line stroke="rgb(0%,0%,0%)" x1="360.280955568" x2="364.163407715" y1="814.790991301" y2="808.63222321" /><line stroke="rgb(0%,0%,0%)" x1="367.213424154" x2="366.328371721" y1="758.241510551" y2="755.404420993" /><line stroke="rgb(0%,0%,0%)" x1="365.784283872" x2="365.211191189" y1="753.203743132" y2="749.070212034" /><line stroke="rgb(0%,0%,0%)" x1="365.168442728" x2="364.986767072" y1="716.934704588" y2="714.793667734" /><line stroke="rgb(0%,0%,0%)" x1="364.986767072" x2="364.234189874" y1="714.793667734" y2="713.008264193" /><line stroke="rgb(0%,0%,0%)" x1="365.329069611" x2="369.456937694" y1="669.26273075" y2="668.246288598" /><line stroke="rgb(0%,0%,0%)" x1="294.748695673" x2="288.346818488" y1="742.943720808" y2="738.108889477" /><line stroke="rgb(0%,0%,0%)" x1="294.748695673" x2="295.778292038" y1="742.943720808" y2="745.114517102" /><line stroke="rgb(0%,0%,0%)" x1="299.327007623" x2="300.334414149" y1="750.93465413" y2="754.753810158" /><line stroke="rgb(0%,0%,0%)" x1="295.778292038" x2="299.327007623" y1="745.114517102" y2="750.93465413" /><line stroke="rgb(0%,0%,0%)" x1="319.563953605" x2="320.242703664" y1="842.214625112" y2="844.098612897" /><line stroke="rgb(0%,0%,0%)" x1="334.26804841" x2="337.279004336" y1="847.30711305" y2="847.438610079" /><line stroke="rgb(0%,0%,0%)" x1="320.242703664" x2="321.627832332" y1="844.098612897" y2="844.540582144" /><line stroke="rgb(0%,0%,0%)" x1="321.627832332" x2="325.21106434" y1="844.540582144" y2="846.974164771" /><line stroke="rgb(0%,0%,0%)" x1="338.689341281" x2="339.871800694" y1="846.792203387" y2="845.897237678" /><line stroke="rgb(0%,0%,0%)" x1="337.279004336" x2="338.689341281" y1="847.438610079" y2="846.792203387" /><line stroke="rgb(0%,0%,0%)" x1="366.328371721" x2="365.784283872" y1="755.404420993" y2="753.203743132" /><line stroke="rgb(0%,0%,0%)" x1="282.768041736" x2="278.50814694" y1="733.012099951" y2="727.006870261" /><line stroke="rgb(0%,0%,0%)" x1="282.768041736" x2="288.346818488" y1="733.012099951" y2="738.108889477" /><line stroke="rgb(0%,0%,0%)" x1="218.08984914" x2="223.937041386" y1="693.262744513" y2="698.09665207" /><line stroke="rgb(0%,0%,0%)" x1="212.259377113" x2="217.033976694" y1="687.812815686" y2="692.451017958" /><line stroke="rgb(0%,0%,0%)" x1="218.08984914" x2="217.033976694" y1="693.262744513" y2="692.451017958" /><line stroke="rgb(0%,0%,0%)" x1="212.259377113" x2="210.421072506" y1="687.812815686" y2="685.143203414" /><line stroke="rgb(0%,0%,0%)" x1="223.937041386" x2="226.429942406" y1="698.09665207" y2="698.060299626" /><line stroke="rgb(0%,0%,0%)" x1="228.94039357" x2="230.640871859" y1="699.069702599" y2="699.412588194" /><line stroke="rgb(0%,0%,0%)" x1="187.336972701" x2="191.650871692" y1="655.445641397" y2="657.924960579" /><line stroke="rgb(0%,0%,0%)" x1="187.336972701" x2="185.186995518" y1="655.445641397" y2="654.231232171" /><line stroke="rgb(0%,0%,0%)" x1="199.15425735" x2="202.932450441" y1="662.212164499" y2="664.126802386" /><line stroke="rgb(0%,0%,0%)" x1="198.786472289" x2="199.15425735" y1="661.648801353" y2="662.212164499" /><line stroke="rgb(0%,0%,0%)" x1="198.786472289" x2="197.729237059" y1="661.648801353" y2="660.648344025" /><line stroke="rgb(0%,0%,0%)" x1="197.06868511" x2="197.729237059" y1="660.370793736" y2="660.648344025" /><line stroke="rgb(0%,0%,0%)" x1="193.564571457" x2="194.32337956" y1="659.120423331" y2="659.756770194" /><line stroke="rgb(0%,0%,0%)" x1="197.06868511" x2="194.32337956" y1="660.370793736" y2="659.756770194" /><line stroke="rgb(0%,0%,0%)" x1="191.650871692" x2="193.564571457" y1="657.924960579" y2="659.120423331" /><line stroke="rgb(0%,0%,0%)" x1="208.071028847" x2="210.421072506" y1="680.520852467" y2="685.143203414" /><line stroke="rgb(0%,0%,0%)" x1="208.071028847" x2="206.203737488" y1="680.520852467" y2="669.730105715" /><line stroke="rgb(0%,0%,0%)" x1="205.806954228" x2="206.203737488" y1="667.148405056" y2="669.730105715" /><line stroke="rgb(0%,0%,0%)" x1="204.517128774" x2="205.806954228" y1="665.301291277" y2="667.148405056" /><line stroke="rgb(0%,0%,0%)" x1="226.429942406" x2="227.635001078" y1="698.060299626" y2="698.731281809" /><line stroke="rgb(0%,0%,0%)" x1="227.635001078" x2="228.517567817" y1="698.731281809" y2="698.91615596" /><line stroke="rgb(0%,0%,0%)" x1="228.517567817" x2="228.94039357" y1="698.91615596" y2="699.069702599" /><line stroke="rgb(0%,0%,0%)" x1="144.749450355" x2="149.701577139" y1="635.746842912" y2="637.597775445" /><line stroke="rgb(0%,0%,0%)" x1="144.749450355" x2="143.559177695" y1="635.746842912" y2="635.455766971" /><line stroke="rgb(0%,0%,0%)" x1="176.283186208" x2="155.007151599" y1="651.252559179" y2="639.943049357" /><line stroke="rgb(0%,0%,0%)" x1="176.283186208" x2="180.262893402" y1="651.252559179" y2="652.349394391" /><line stroke="rgb(0%,0%,0%)" x1="152.793448787" x2="155.007151599" y1="638.768181828" y2="639.943049357" /><line stroke="rgb(0%,0%,0%)" x1="180.262893402" x2="185.186995518" y1="652.349394391" y2="654.231232171" /><line stroke="rgb(0%,0%,0%)" x1="202.932450441" x2="204.517128774" y1="664.126802386" y2="665.301291277" /><line stroke="rgb(0%,0%,0%)" x1="102.333048659" x2="112.740927189" y1="626.908920562" y2="628.664256819" /><line stroke="rgb(0%,0%,0%)" x1="102.333048659" x2="96.6291271283" y1="626.908920562" y2="625.011611085" /><line stroke="rgb(0%,0%,0%)" x1="126.15190997" x2="118.04793126" y1="633.146184285" y2="629.476290456" /><line stroke="rgb(0%,0%,0%)" x1="115.368583971" x2="118.04793126" y1="628.891151982" y2="629.476290456" /><line stroke="rgb(0%,0%,0%)" x1="137.865770393" x2="137.3262536" y1="636.484521319" y2="636.402764546" /><line stroke="rgb(0%,0%,0%)" x1="126.15190997" x2="137.3262536" y1="633.146184285" y2="636.402764546" /><line stroke="rgb(0%,0%,0%)" x1="137.865770393" x2="143.559177695" y1="636.484521319" y2="635.455766971" /><line stroke="rgb(0%,0%,0%)" x1="149.701577139" x2="151.750846355" y1="637.597775445" y2="638.150850939" /><line stroke="rgb(0%,0%,0%)" x1="152.508151293" x2="152.793448787" y1="638.537654847" y2="638.768181828" /><line stroke="rgb(0%,0%,0%)" x1="151.750846355" x2="152.508151293" y1="638.150850939" y2="638.537654847" /><line stroke="rgb(0%,0%,0%)" x1="68.0965833818" x2="72.3083595975" y1="597.467842874" y2="600.659502891" /><line stroke="rgb(0%,0%,0%)" x1="68.0965833818" x2="66.0333661047" y1="597.467842874" y2="596.845487264" /><line stroke="rgb(0%,0%,0%)" x1="61.0940740467" x2="60.6054950818" y1="331.480758854" y2="332.022087864" /><line stroke="rgb(0%,0%,0%)" x1="65.328616264" x2="67.2204828984" y1="329.46990458" y2="328.003718505" /><line stroke="rgb(0%,0%,0%)" x1="65.328616264" x2="61.0940740467" y1="329.46990458" y2="331.480758854" /><line stroke="rgb(0%,0%,0%)" x1="68.5185345076" x2="67.2204828984" y1="327.270719178" y2="328.003718505" /><line stroke="rgb(0%,0%,0%)" x1="90.8224756697" x2="96.6291271283" y1="622.305052717" y2="625.011611085" /><line stroke="rgb(0%,0%,0%)" x1="86.9144251455" x2="90.8224756697" y1="619.117208688" y2="622.305052717" /><line stroke="rgb(0%,0%,0%)" x1="84.4735152124" x2="86.9144251455" y1="615.731161069" y2="619.117208688" /><line stroke="rgb(0%,0%,0%)" x1="112.740927189" x2="115.368583971" y1="628.664256819" y2="628.891151982" /><line stroke="rgb(0%,0%,0%)" x1="25.6814215359" x2="28.1821943086" y1="484.283433055" y2="486.880316389" /><line stroke="rgb(0%,0%,0%)" x1="22.7438801874" x2="22.0290171878" y1="480.153061999" y2="479.352036283" /><line stroke="rgb(0%,0%,0%)" x1="22.0290171878" x2="21.3910301176" y1="479.352036283" y2="477.697862087" /><line stroke="rgb(0%,0%,0%)" x1="33.6439099421" x2="30.9196013712" y1="535.100294958" y2="538.338505629" /><line stroke="rgb(0%,0%,0%)" x1="34.8527326753" x2="33.6439099421" y1="527.030631313" y2="535.100294958" /><line stroke="rgb(0%,0%,0%)" x1="34.8527326753" x2="35.3743094414" y1="527.030631313" y2="524.960313033" /><line stroke="rgb(0%,0%,0%)" x1="39.9002165138" x2="41.1280477805" y1="511.375444825" y2="512.675725103" /><line stroke="rgb(0%,0%,0%)" x1="41.246454748" x2="37.1819824753" y1="512.953322896" y2="519.950448265" /><line stroke="rgb(0%,0%,0%)" x1="41.1280477805" x2="41.246454748" y1="512.675725103" y2="512.953322896" /><line stroke="rgb(0%,0%,0%)" x1="33.3706028968" x2="39.9002165138" y1="504.318093773" y2="511.375444825" /><line stroke="rgb(0%,0%,0%)" x1="34.3928148296" x2="33.3706028968" y1="497.332067677" y2="504.318093773" /><line stroke="rgb(0%,0%,0%)" x1="34.2585714397" x2="34.3928148296" y1="496.458225741" y2="497.332067677" /><line stroke="rgb(0%,0%,0%)" x1="34.2585714397" x2="34.0165603831" y1="496.458225741" y2="495.998431428" /><line stroke="rgb(0%,0%,0%)" x1="45.424104702" x2="55.3022379314" y1="581.940552833" y2="590.578666457" /><line stroke="rgb(0%,0%,0%)" x1="42.7484150983" x2="45.424104702" y1="578.707107465" y2="581.940552833" /><line stroke="rgb(0%,0%,0%)" x1="42.5489978025" x2="42.7484150983" y1="577.601908018" y2="578.707107465" /><line stroke="rgb(0%,0%,0%)" x1="66.0333661047" x2="65.9143820545" y1="596.845487264" y2="595.506949994" /><line stroke="rgb(0%,0%,0%)" x1="55.3022379314" x2="63.754046546" y1="590.578666457" y2="594.40068193" /><line stroke="rgb(0%,0%,0%)" x1="63.754046546" x2="65.9143820545" y1="594.40068193" y2="595.506949994" /><line stroke="rgb(0%,0%,0%)" x1="77.5686702252" x2="80.6526777145" y1="611.45947888" y2="612.906700794" /><line stroke="rgb(0%,0%,0%)" x1="80.6526777145" x2="84.4735152124" y1="612.906700794" y2="615.731161069" /><line stroke="rgb(0%,0%,0%)" x1="77.5686702252" x2="74.0935758569" y1="611.45947888" y2="605.941544805" /><line stroke="rgb(0%,0%,0%)" x1="73.9235049886" x2="74.0935758569" y1="605.347577019" y2="605.941544805" /><line stroke="rgb(0%,0%,0%)" x1="73.5937215732" x2="73.9235049886" y1="604.961243588" y2="605.347577019" /><line stroke="rgb(0%,0%,0%)" x1="73.7676232718" x2="73.5937215732" y1="604.070323947" y2="604.961243588" /><line stroke="rgb(0%,0%,0%)" x1="72.3083595975" x2="73.5279955335" y1="600.659502891" y2="603.737270908" /><line stroke="rgb(0%,0%,0%)" x1="73.5279955335" x2="73.7676232718" y1="603.737270908" y2="604.070323947" /><line stroke="rgb(0%,0%,0%)" x1="28.6158833931" x2="32.1492636238" y1="560.099237049" y2="568.547007161" /><line stroke="rgb(0%,0%,0%)" x1="27.8864477449" x2="27.4487034451" y1="557.734016166" y2="550.503321603" /><line stroke="rgb(0%,0%,0%)" x1="27.8522973989" x2="27.4487034451" y1="548.874249825" y2="550.503321603" /><line stroke="rgb(0%,0%,0%)" x1="29.9040428022" x2="27.8522973989" y1="541.473731815" y2="548.874249825" /><line stroke="rgb(0%,0%,0%)" x1="29.9040428022" x2="30.9196013712" y1="541.473731815" y2="538.338505629" /><line stroke="rgb(0%,0%,0%)" x1="28.1821943086" x2="32.4396676476" y1="486.880316389" y2="490.972072732" /><line stroke="rgb(0%,0%,0%)" x1="22.7438801874" x2="25.6814215359" y1="480.153061999" y2="484.283433055" /><line stroke="rgb(0%,0%,0%)" x1="20.9444501382" x2="21.3910301176" y1="473.790455555" y2="477.697862087" /><line stroke="rgb(0%,0%,0%)" x1="21.2183166216" x2="20.8842490399" y1="467.24074553" y2="471.372174549" /><line stroke="rgb(0%,0%,0%)" x1="20.8842490399" x2="20.9444501382" y1="471.372174549" y2="473.790455555" /><line stroke="rgb(0%,0%,0%)" x1="40.8980793509" x2="42.5489978025" y1="575.371839256" y2="577.601908018" /><line stroke="rgb(0%,0%,0%)" x1="40.8980793509" x2="32.3301773629" y1="575.371839256" y2="569.055765406" /><line stroke="rgb(0%,0%,0%)" x1="32.1492636238" x2="32.3301773629" y1="568.547007161" y2="569.055765406" /><line stroke="rgb(0%,0%,0%)" x1="27.8864477449" x2="28.6158833931" y1="557.734016166" y2="560.099237049" /><line stroke="rgb(0%,0%,0%)" x1="36.7803083557" x2="35.3743094414" y1="520.472994608" y2="524.960313033" /><line stroke="rgb(0%,0%,0%)" x1="37.1819824753" x2="36.7803083557" y1="519.950448265" y2="520.472994608" /><line stroke="rgb(0%,0%,0%)" x1="33.9774668682" x2="34.0165603831" y1="492.625112393" y2="495.998431428" /><line stroke="rgb(0%,0%,0%)" x1="33.9774668682" x2="32.4396676476" y1="492.625112393" y2="490.972072732" /><line stroke="rgb(0%,0%,0%)" x1="502.723092225" x2="501.15227968" y1="551.765750488" y2="553.525661636" /><line stroke="rgb(0%,0%,0%)" x1="502.723092225" x2="507.52799714" y1="551.765750488" y2="542.418446432" /><line stroke="rgb(0%,0%,0%)" x1="507.52799714" x2="509.27911629" y1="542.418446432" y2="539.590970415" /><line stroke="rgb(0%,0%,0%)" x1="444.241627931" x2="447.006664111" y1="627.630876315" y2="625.110125984" /><line stroke="rgb(0%,0%,0%)" x1="459.156927706" x2="447.006664111" y1="614.683697096" y2="625.110125984" /><line stroke="rgb(0%,0%,0%)" x1="462.836342565" x2="464.641891977" y1="611.568176806" y2="607.665165833" /><line stroke="rgb(0%,0%,0%)" x1="464.641891977" x2="466.650967227" y1="607.665165833" y2="603.75507469" /><line stroke="rgb(0%,0%,0%)" x1="468.444586464" x2="471.279540334" y1="600.68222507" y2="595.89806671" /><line stroke="rgb(0%,0%,0%)" x1="466.650967227" x2="468.444586464" y1="603.75507469" y2="600.68222507" /><line stroke="rgb(0%,0%,0%)" x1="477.104733616" x2="478.729090058" y1="588.935768789" y2="586.306505261" /><line stroke="rgb(0%,0%,0%)" x1="477.104733616" x2="471.279540334" y1="588.935768789" y2="595.89806671" /><line stroke="rgb(0%,0%,0%)" x1="478.729090058" x2="479.557959725" y1="586.306505261" y2="585.190112187" /><line stroke="rgb(0%,0%,0%)" x1="479.557959725" x2="479.857301052" y1="585.190112187" y2="583.310976589" /><line stroke="rgb(0%,0%,0%)" x1="482.367311777" x2="479.857301052" y1="578.721869426" y2="583.310976589" /><line stroke="rgb(0%,0%,0%)" x1="482.367311777" x2="483.86749045" y1="578.721869426" y2="575.06372319" /><line stroke="rgb(0%,0%,0%)" x1="483.86749045" x2="485.57586144" y1="575.06372319" y2="572.742445457" /><line stroke="rgb(0%,0%,0%)" x1="485.57586144" x2="488.529549775" y1="572.742445457" y2="567.736737634" /><line stroke="rgb(0%,0%,0%)" x1="490.277623261" x2="488.529549775" y1="564.386600438" y2="567.736737634" /><line stroke="rgb(0%,0%,0%)" x1="490.277623261" x2="501.15227968" y1="564.386600438" y2="553.525661636" /><line stroke="rgb(0%,0%,0%)" x1="433.778362064" x2="433.41034175" y1="634.50073186" y2="634.796868571" /><line stroke="rgb(0%,0%,0%)" x1="433.778362064" x2="439.149385527" y1="634.50073186" y2="629.782993979" /><line stroke="rgb(0%,0%,0%)" x1="439.149385527" x2="444.241627931" y1="629.782993979" y2="627.630876315" /><line stroke="rgb(0%,0%,0%)" x1="459.156927706" x2="462.836342565" y1="614.683697096" y2="611.568176806" /><line stroke="rgb(0%,0%,0%)" x1="310.561231888" x2="310.672853252" y1="781.446948891" y2="781.636904924" /><line stroke="rgb(0%,0%,0%)" x1="314.994882104" x2="317.133113726" y1="837.002125355" y2="839.81448147" /><line stroke="rgb(0%,0%,0%)" x1="311.747449302" x2="312.999036514" y1="821.901598249" y2="828.355850349" /><line stroke="rgb(0%,0%,0%)" x1="311.747449302" x2="312.825080843" y1="821.901598249" y2="812.922872033" /><line stroke="rgb(0%,0%,0%)" x1="313.550064363" x2="317.181674952" y1="811.075724016" y2="800.232617137" /><line stroke="rgb(0%,0%,0%)" x1="313.550064363" x2="313.061997658" y1="811.075724016" y2="811.866950551" /><line stroke="rgb(0%,0%,0%)" x1="313.061997658" x2="312.825080843" y1="811.866950551" y2="812.922872033" /><line stroke="rgb(0%,0%,0%)" x1="317.294662061" x2="317.181674952" y1="800.046390636" y2="800.232617137" /><line stroke="rgb(0%,0%,0%)" x1="310.843498986" x2="316.917237705" y1="781.853830038" y2="789.850132636" /><line stroke="rgb(0%,0%,0%)" x1="310.672853252" x2="310.843498986" y1="781.636904924" y2="781.853830038" /><line stroke="rgb(0%,0%,0%)" x1="316.917237705" x2="317.546506124" y1="789.850132636" y2="793.694733925" /><line stroke="rgb(0%,0%,0%)" x1="303.206685262" x2="310.561231888" y1="769.883527578" y2="781.446948891" /><line stroke="rgb(0%,0%,0%)" x1="303.206685262" x2="302.752918612" y1="769.883527578" y2="767.48895522" /><line stroke="rgb(0%,0%,0%)" x1="300.746528142" x2="302.752918612" y1="761.698974591" y2="767.48895522" /><line stroke="rgb(0%,0%,0%)" x1="300.334414149" x2="300.746528142" y1="754.753810158" y2="761.698974591" /><line stroke="rgb(0%,0%,0%)" x1="317.133113726" x2="317.756511581" y1="839.81448147" y2="840.682395012" /><line stroke="rgb(0%,0%,0%)" x1="317.140295238" x2="317.294662061" y1="799.695330478" y2="800.046390636" /><line stroke="rgb(0%,0%,0%)" x1="317.546506124" x2="317.140295238" y1="793.694733925" y2="799.695330478" /><line stroke="rgb(0%,0%,0%)" x1="242.703579698" x2="244.507414731" y1="698.413133127" y2="699.959402614" /><line stroke="rgb(0%,0%,0%)" x1="254.810435205" x2="244.507414731" y1="708.66102607" y2="699.959402614" /><line stroke="rgb(0%,0%,0%)" x1="270.054066077" x2="271.914750828" y1="718.076189177" y2="718.329461218" /><line stroke="rgb(0%,0%,0%)" x1="271.914750828" x2="277.59842643" y1="718.329461218" y2="725.439786616" /><line stroke="rgb(0%,0%,0%)" x1="277.59842643" x2="278.50814694" y1="725.439786616" y2="727.006870261" /><line stroke="rgb(0%,0%,0%)" x1="76.7401966796" x2="68.5185345076" y1="323.420067762" y2="327.270719178" /><line stroke="rgb(0%,0%,0%)" x1="78.1431692632" x2="76.7401966796" y1="322.746497565" y2="323.420067762" /><line stroke="rgb(0%,0%,0%)" x1="20.4156483537" x2="21.2183166216" y1="465.506256203" y2="467.24074553" /><line stroke="rgb(0%,0%,0%)" x1="20.4156483537" x2="19.5792867776" y1="465.506256203" y2="462.465686389" /><line stroke="rgb(0%,0%,0%)" x1="254.810435205" x2="265.544826558" y1="708.66102607" y2="714.653740168" /><line stroke="rgb(0%,0%,0%)" x1="265.544826558" x2="270.054066077" y1="714.653740168" y2="718.076189177" /><line stroke="rgb(0%,0%,0%)" x1="317.756511581" x2="318.614574926" y1="840.682395012" y2="841.211899422" /><line stroke="rgb(0%,0%,0%)" x1="314.005359193" x2="314.994882104" y1="833.581711415" y2="837.002125355" /><line stroke="rgb(0%,0%,0%)" x1="312.999036514" x2="312.671838119" y1="828.355850349" y2="830.206029089" /><line stroke="rgb(0%,0%,0%)" x1="312.671838119" x2="314.005359193" y1="830.206029089" y2="833.581711415" /><line stroke="rgb(0%,0%,0%)" x1="29.2377895936" x2="27.8457390719" y1="435.425425894" y2="437.445786213" /><line stroke="rgb(0%,0%,0%)" x1="230.640871859" x2="242.703579698" y1="699.412588194" y2="698.413133127" /></svg>