<?xml version="1.0" encoding="utf-8" ?>
<svg baseProfile="full" height="100%" version="1.1" viewBox="0.5 0.5 685.793960571 941.299331665" width="100%" xmlns="http://www.w3.org/2000/svg" xmlns:ev="http://www.w3.org/2001/xml-events" xmlns:xlink="http://www.w3.org/1999/xlink"><defs /><line stroke="rgb(0%,0%,0%)" x1="525.231024205" x2="525.681991495" y1="430.221474879" y2="432.460171755" /><line stroke="rgb(0%,0%,0%)" x1="525.231024205" x2="521.555433652" y1="430.221474879" y2="422.082249666" /><line stroke="rgb(0%,0%,0%)" x1="521.425443974" x2="521.555433652" y1="421.47557937" y2="422.082249666" /><line stroke="rgb(0%,0%,0%)" x1="521.425443974" x2="519.001535658" y1="421.47557937" y2="416.264950396" /><line stroke="rgb(0%,0%,0%)" x1="511.401398542" x2="506.875429372" y1="392.635103117" y2="382.530746666" /><line stroke="rgb(0%,0%,0%)" x1="506.875429372" x2="504.789129688" y1="382.530746666" y2="378.73604499" /><line stroke="rgb(0%,0%,0%)" x1="519.001535658" x2="517.687590258" y1="416.264950396" y2="413.270893553" /><line stroke="rgb(0%,0%,0%)" x1="516.809575463" x2="517.687590258" y1="403.834982099" y2="413.270893553" /><line stroke="rgb(0%,0%,0%)" x1="516.809575463" x2="516.10181886" y1="403.834982099" y2="401.538933359" /><line stroke="rgb(0%,0%,0%)" x1="513.476673596" x2="516.10181886" y1="395.197625095" y2="401.538933359" /><line stroke="rgb(0%,0%,0%)" x1="511.401398542" x2="513.476673596" y1="392.635103117" y2="395.197625095" /><line stroke="rgb(0%,0%,0%)" x1="529.331730933" x2="529.755310389" y1="462.3879917" y2="453.101993013" /><line stroke="rgb(0%,0%,0%)" x1="529.755310389" x2="529.908844914" y1="453.101993013" y2="451.710667722" /><line stroke="rgb(0%,0%,0%)" x1="529.908844914" x2="529.887731763" y1="451.710667722" y2="450.191308943" /><line stroke="rgb(0%,0%,0%)" x1="527.714331901" x2="529.887731763" y1="439.992705228" y2="450.191308943" /><line stroke="rgb(0%,0%,0%)" x1="526.215261005" x2="525.681991495" y1="434.934314004" y2="432.460171755" /><line stroke="rgb(0%,0%,0%)" x1="527.714331901" x2="526.215261005" y1="439.992705228" y2="434.934314004" /><line stroke="rgb(0%,0%,0%)" x1="420.052444555" x2="421.597164085" y1="277.715077067" y2="279.392276546" /><line stroke="rgb(0%,0%,0%)" x1="433.278808684" x2="425.527873261" y1="287.920562304" y2="281.970361932" /><line stroke="rgb(0%,0%,0%)" x1="421.597164085" x2="425.527873261" y1="279.392276546" y2="281.970361932" /><line stroke="rgb(0%,0%,0%)" x1="417.247587174" x2="420.052444555" y1="274.83203816" y2="277.715077067" /><line stroke="rgb(0%,0%,0%)" x1="357.404372347" x2="357.587612535" y1="197.763057742" y2="195.601005302" /><line stroke="rgb(0%,0%,0%)" x1="369.594981808" x2="368.291154097" y1="248.010941177" y2="247.100608707" /><line stroke="rgb(0%,0%,0%)" x1="391.231891116" x2="398.553595914" y1="257.750413873" y2="261.51837976" /><line stroke="rgb(0%,0%,0%)" x1="411.344729312" x2="403.866210075" y1="270.783778588" y2="265.039931796" /><line stroke="rgb(0%,0%,0%)" x1="415.16141419" x2="411.344729312" y1="273.72035505" y2="270.783778588" /><line stroke="rgb(0%,0%,0%)" x1="415.16141419" x2="417.247587174" y1="273.72035505" y2="274.83203816" /><line stroke="rgb(0%,0%,0%)" x1="403.866210075" x2="398.553595914" y1="265.039931796" y2="261.51837976" /><line stroke="rgb(0%,0%,0%)" x1="341.383130952" x2="338.048269736" y1="112.397461952" y2="106.637379211" /><line stroke="rgb(0%,0%,0%)" x1="333.652978357" x2="336.072012751" y1="96.2558563545" y2="99.4326863665" /><line stroke="rgb(0%,0%,0%)" x1="349.086993807" x2="353.068152607" y1="132.73380526" y2="138.14819141" /><line stroke="rgb(0%,0%,0%)" x1="344.128018946" x2="345.028752404" y1="120.66251407" y2="122.493702743" /><line stroke="rgb(0%,0%,0%)" x1="344.128018946" x2="341.383130952" y1="120.66251407" y2="112.397461952" /><line stroke="rgb(0%,0%,0%)" x1="368.291154097" x2="364.023676892" y1="247.100608707" y2="244.731318198" /><line stroke="rgb(0%,0%,0%)" x1="355.684398137" x2="355.086257015" y1="235.234907055" y2="234.059758989" /><line stroke="rgb(0%,0%,0%)" x1="355.086257015" x2="354.554115392" y1="234.059758989" y2="231.918936318" /><line stroke="rgb(0%,0%,0%)" x1="354.554115392" x2="352.687858491" y1="231.918936318" y2="221.330173025" /><line stroke="rgb(0%,0%,0%)" x1="354.115614799" x2="356.390191724" y1="211.53597131" y2="206.478857168" /><line stroke="rgb(0%,0%,0%)" x1="357.404372347" x2="356.99758542" y1="197.763057742" y2="199.812670933" /><line stroke="rgb(0%,0%,0%)" x1="356.99758542" x2="357.035357585" y1="199.812670933" y2="202.66997579" /><line stroke="rgb(0%,0%,0%)" x1="357.587612535" x2="357.370759921" y1="195.601005302" y2="192.641312632" /><line stroke="rgb(0%,0%,0%)" x1="357.370759921" x2="354.475995779" y1="192.641312632" y2="175.907518562" /><line stroke="rgb(0%,0%,0%)" x1="355.595142327" x2="356.083582261" y1="151.959176348" y2="156.111796935" /><line stroke="rgb(0%,0%,0%)" x1="355.595142327" x2="356.094290216" y1="151.959176348" y2="146.762851241" /><line stroke="rgb(0%,0%,0%)" x1="356.094290216" x2="355.895582074" y1="146.762851241" y2="142.129245957" /><line stroke="rgb(0%,0%,0%)" x1="355.895582074" x2="353.068152607" y1="142.129245957" y2="138.14819141" /><line stroke="rgb(0%,0%,0%)" x1="369.594981808" x2="373.855510622" y1="248.010941177" y2="249.734147325" /><line stroke="rgb(0%,0%,0%)" x1="391.231891116" x2="383.602920918" y1="257.750413873" y2="254.174731525" /><line stroke="rgb(0%,0%,0%)" x1="383.602920918" x2="373.855510622" y1="254.174731525" y2="249.734147325" /><line stroke="rgb(0%,0%,0%)" x1="289.922877577" x2="286.654981767" y1="182.431182802" y2="184.818981242" /><line stroke="rgb(0%,0%,0%)" x1="289.922877577" x2="291.554742497" y1="182.431182802" y2="175.336102678" /><line stroke="rgb(0%,0%,0%)" x1="302.172857217" x2="299.050977796" y1="79.3269185198" y2="80.3118151922" /><line stroke="rgb(0%,0%,0%)" x1="306.968691618" x2="314.001423898" y1="79.0098555559" y2="81.0906861697" /><line stroke="rgb(0%,0%,0%)" x1="306.968691618" x2="302.172857217" y1="79.0098555559" y2="79.3269185198" /><line stroke="rgb(0%,0%,0%)" x1="333.652978357" x2="329.182104056" y1="96.2558563545" y2="93.8792415621" /><line stroke="rgb(0%,0%,0%)" x1="329.182104056" x2="327.371080484" y1="93.8792415621" y2="90.8993603999" /><line stroke="rgb(0%,0%,0%)" x1="338.048269736" x2="337.55791766" y1="106.637379211" y2="102.575244562" /><line stroke="rgb(0%,0%,0%)" x1="337.55791766" x2="336.072012751" y1="102.575244562" y2="99.4326863665" /><line stroke="rgb(0%,0%,0%)" x1="352.680277064" x2="352.687858491" y1="220.101737529" y2="221.330173025" /><line stroke="rgb(0%,0%,0%)" x1="352.680277064" x2="354.115614799" y1="220.101737529" y2="211.53597131" /><line stroke="rgb(0%,0%,0%)" x1="349.086993807" x2="347.678999529" y1="132.73380526" y2="129.938408726" /><line stroke="rgb(0%,0%,0%)" x1="347.678999529" x2="345.028752404" y1="129.938408726" y2="122.493702743" /><line stroke="rgb(0%,0%,0%)" x1="364.023676892" x2="359.307062463" y1="244.731318198" y2="242.657988028" /><line stroke="rgb(0%,0%,0%)" x1="359.307062463" x2="358.443458973" y1="242.657988028" y2="241.539332579" /><line stroke="rgb(0%,0%,0%)" x1="358.443458973" x2="357.059200007" y1="241.539332579" y2="237.784893059" /><line stroke="rgb(0%,0%,0%)" x1="355.684398137" x2="357.059200007" y1="235.234907055" y2="237.784893059" /><line stroke="rgb(0%,0%,0%)" x1="356.390191724" x2="356.778860991" y1="206.478857168" y2="204.305019796" /><line stroke="rgb(0%,0%,0%)" x1="356.778860991" x2="357.035357585" y1="204.305019796" y2="202.66997579" /><line stroke="rgb(0%,0%,0%)" x1="354.475995779" x2="354.347712167" y1="175.907518562" y2="173.135951365" /><line stroke="rgb(0%,0%,0%)" x1="356.54362506" x2="354.347712167" y1="162.027700532" y2="173.135951365" /><line stroke="rgb(0%,0%,0%)" x1="356.54362506" x2="356.750556292" y1="162.027700532" y2="159.422239226" /><line stroke="rgb(0%,0%,0%)" x1="356.750556292" x2="356.083582261" y1="159.422239226" y2="156.111796935" /><line stroke="rgb(0%,0%,0%)" x1="289.422019962" x2="291.610264212" y1="165.801644383" y2="173.443630619" /><line stroke="rgb(0%,0%,0%)" x1="289.422019962" x2="289.570670281" y1="165.801644383" y2="161.383125289" /><line stroke="rgb(0%,0%,0%)" x1="291.961935809" x2="289.829328318" y1="150.697555067" y2="158.188094485" /><line stroke="rgb(0%,0%,0%)" x1="290.828816056" x2="292.003960831" y1="106.700326764" y2="108.974103885" /><line stroke="rgb(0%,0%,0%)" x1="289.003583311" x2="290.828816056" y1="102.128694272" y2="106.700326764" /><line stroke="rgb(0%,0%,0%)" x1="288.829713515" x2="289.003583311" y1="93.9944145765" y2="102.128694272" /><line stroke="rgb(0%,0%,0%)" x1="288.829713515" x2="289.67562531" y1="93.9944145765" y2="90.3881148652" /><line stroke="rgb(0%,0%,0%)" x1="291.64568181" x2="289.67562531" y1="87.2060163885" y2="90.3881148652" /><line stroke="rgb(0%,0%,0%)" x1="291.610264212" x2="292.035463542" y1="173.443630619" y2="174.518202508" /><line stroke="rgb(0%,0%,0%)" x1="292.035463542" x2="291.554742497" y1="174.518202508" y2="175.336102678" /><line stroke="rgb(0%,0%,0%)" x1="291.961935809" x2="296.177245731" y1="150.697555067" y2="144.220783426" /><line stroke="rgb(0%,0%,0%)" x1="301.776102927" x2="299.660395995" y1="132.884690242" y2="137.210201119" /><line stroke="rgb(0%,0%,0%)" x1="299.660395995" x2="296.177245731" y1="137.210201119" y2="144.220783426" /><line stroke="rgb(0%,0%,0%)" x1="302.434070772" x2="301.776102927" y1="130.165024427" y2="132.884690242" /><line stroke="rgb(0%,0%,0%)" x1="302.434070772" x2="301.251002271" y1="130.165024427" y2="126.725703009" /><line stroke="rgb(0%,0%,0%)" x1="301.548091956" x2="301.251002271" y1="122.671924874" y2="126.725703009" /><line stroke="rgb(0%,0%,0%)" x1="301.548091956" x2="296.545262477" y1="122.671924874" y2="116.000158626" /><line stroke="rgb(0%,0%,0%)" x1="291.64568181" x2="294.215334445" y1="87.2060163885" y2="84.7086539551" /><line stroke="rgb(0%,0%,0%)" x1="296.85654464" x2="294.215334445" y1="82.1115669619" y2="84.7086539551" /><line stroke="rgb(0%,0%,0%)" x1="299.050977796" x2="296.85654464" y1="80.3118151922" y2="82.1115669619" /><line stroke="rgb(0%,0%,0%)" x1="321.361842595" x2="314.001423898" y1="84.9917270577" y2="81.0906861697" /><line stroke="rgb(0%,0%,0%)" x1="327.371080484" x2="324.967672742" y1="90.8993603999" y2="88.6111555214" /><line stroke="rgb(0%,0%,0%)" x1="324.967672742" x2="321.361842595" y1="88.6111555214" y2="84.9917270577" /><line stroke="rgb(0%,0%,0%)" x1="261.279526834" x2="274.659142354" y1="207.451466814" y2="199.035686744" /><line stroke="rgb(0%,0%,0%)" x1="274.874960356" x2="274.659142354" y1="198.886172134" y2="199.035686744" /><line stroke="rgb(0%,0%,0%)" x1="283.206553004" x2="275.191000672" y1="189.074103581" y2="198.519858245" /><line stroke="rgb(0%,0%,0%)" x1="283.206553004" x2="286.654981767" y1="189.074103581" y2="184.818981242" /><line stroke="rgb(0%,0%,0%)" x1="274.900206503" x2="274.874960356" y1="198.823540047" y2="198.886172134" /><line stroke="rgb(0%,0%,0%)" x1="275.191000672" x2="274.900206503" y1="198.519858245" y2="198.823540047" /><line stroke="rgb(0%,0%,0%)" x1="289.829328318" x2="289.570670281" y1="158.188094485" y2="161.383125289" /><line stroke="rgb(0%,0%,0%)" x1="293.852945177" x2="296.545262477" y1="111.220440673" y2="116.000158626" /><line stroke="rgb(0%,0%,0%)" x1="292.003960831" x2="293.852945177" y1="108.974103885" y2="111.220440673" /><line stroke="rgb(0%,0%,0%)" x1="210.507805354" x2="210.506973555" y1="255.399698588" y2="255.402378406" /><line stroke="rgb(0%,0%,0%)" x1="211.703686662" x2="211.813156224" y1="252.130109731" y2="247.595984965" /><line stroke="rgb(0%,0%,0%)" x1="212.990635873" x2="213.050082947" y1="237.185828675" y2="237.077354903" /><line stroke="rgb(0%,0%,0%)" x1="224.798288532" x2="226.176157526" y1="225.612374399" y2="224.996522326" /><line stroke="rgb(0%,0%,0%)" x1="224.798288532" x2="222.320115371" y1="225.612374399" y2="227.60310849" /><line stroke="rgb(0%,0%,0%)" x1="249.682393632" x2="242.194905675" y1="214.582662738" y2="216.863702856" /><line stroke="rgb(0%,0%,0%)" x1="229.164981841" x2="239.619836686" y1="222.467322763" y2="217.456621738" /><line stroke="rgb(0%,0%,0%)" x1="261.279526834" x2="249.682393632" y1="207.451466814" y2="214.582662738" /><line stroke="rgb(0%,0%,0%)" x1="242.194905675" x2="239.619836686" y1="216.863702856" y2="217.456621738" /><line stroke="rgb(0%,0%,0%)" x1="190.405187623" x2="190.57553927" y1="267.501596236" y2="267.461148002" /><line stroke="rgb(0%,0%,0%)" x1="197.317313029" x2="196.681399636" y1="265.105738641" y2="266.647975284" /><line stroke="rgb(0%,0%,0%)" x1="197.317313029" x2="198.637459838" y1="265.105738641" y2="264.215795009" /><line stroke="rgb(0%,0%,0%)" x1="204.42366427" x2="205.600100106" y1="260.957136245" y2="260.289110957" /><line stroke="rgb(0%,0%,0%)" x1="204.42366427" x2="203.164704493" y1="260.957136245" y2="261.895922797" /><line stroke="rgb(0%,0%,0%)" x1="203.164704493" x2="200.766945168" y1="261.895922797" y2="261.930512342" /><line stroke="rgb(0%,0%,0%)" x1="208.183505119" x2="206.615130928" y1="257.647482212" y2="259.088223989" /><line stroke="rgb(0%,0%,0%)" x1="210.506973555" x2="208.183505119" y1="255.402378406" y2="257.647482212" /><line stroke="rgb(0%,0%,0%)" x1="211.703686662" x2="210.507805354" y1="252.130109731" y2="255.399698588" /><line stroke="rgb(0%,0%,0%)" x1="212.990635873" x2="211.813156224" y1="237.185828675" y2="247.595984965" /><line stroke="rgb(0%,0%,0%)" x1="214.885514778" x2="213.050082947" y1="236.368590047" y2="237.077354903" /><line stroke="rgb(0%,0%,0%)" x1="222.320115371" x2="214.885514778" y1="227.60310849" y2="236.368590047" /><line stroke="rgb(0%,0%,0%)" x1="229.164981841" x2="226.176157526" y1="222.467322763" y2="224.996522326" /><line stroke="rgb(0%,0%,0%)" x1="165.195572517" x2="159.459893688" y1="280.235948063" y2="283.415430264" /><line stroke="rgb(0%,0%,0%)" x1="172.534441281" x2="165.195572517" y1="276.637975433" y2="280.235948063" /><line stroke="rgb(0%,0%,0%)" x1="172.534441281" x2="175.43261872" y1="276.637975433" y2="276.140728409" /><line stroke="rgb(0%,0%,0%)" x1="179.298797303" x2="175.43261872" y1="274.172515921" y2="276.140728409" /><line stroke="rgb(0%,0%,0%)" x1="184.11551601" x2="179.298797303" y1="271.056425223" y2="274.172515921" /><line stroke="rgb(0%,0%,0%)" x1="190.405187623" x2="184.11551601" y1="267.501596236" y2="271.056425223" /><line stroke="rgb(0%,0%,0%)" x1="194.416550602" x2="190.57553927" y1="267.214582359" y2="267.461148002" /><line stroke="rgb(0%,0%,0%)" x1="194.416550602" x2="196.681399636" y1="267.214582359" y2="266.647975284" /><line stroke="rgb(0%,0%,0%)" x1="200.766945168" x2="198.637459838" y1="261.930512342" y2="264.215795009" /><line stroke="rgb(0%,0%,0%)" x1="206.615130928" x2="205.600100106" y1="259.088223989" y2="260.289110957" /><line stroke="rgb(0%,0%,0%)" x1="121.065494613" x2="124.775869764" y1="289.551135164" y2="288.7069074" /><line stroke="rgb(0%,0%,0%)" x1="151.489028773" x2="147.71815359" y1="285.266596287" y2="285.326706322" /><line stroke="rgb(0%,0%,0%)" x1="159.459893688" x2="151.489028773" y1="283.415430264" y2="285.266596287" /><line stroke="rgb(0%,0%,0%)" x1="147.71815359" x2="138.524969925" y1="285.326706322" y2="285.758516795" /><line stroke="rgb(0%,0%,0%)" x1="138.524969925" x2="134.680248554" y1="285.758516795" y2="286.036109133" /><line stroke="rgb(0%,0%,0%)" x1="88.9069709512" x2="86.1281070342" y1="302.483065707" y2="305.046731933" /><line stroke="rgb(0%,0%,0%)" x1="88.9069709512" x2="90.1120794911" y1="302.483065707" y2="301.186676686" /><line stroke="rgb(0%,0%,0%)" x1="99.0185922724" x2="99.5386779149" y1="297.416628949" y2="297.079237058" /><line stroke="rgb(0%,0%,0%)" x1="99.0185922724" x2="97.2800968563" y1="297.416628949" y2="297.9457073" /><line stroke="rgb(0%,0%,0%)" x1="116.648545416" x2="119.169408792" y1="291.350175127" y2="290.706797966" /><line stroke="rgb(0%,0%,0%)" x1="116.648545416" x2="99.5386779149" y1="291.350175127" y2="297.079237058" /><line stroke="rgb(0%,0%,0%)" x1="121.065494613" x2="119.169408792" y1="289.551135164" y2="290.706797966" /><line stroke="rgb(0%,0%,0%)" x1="134.680248554" x2="124.775869764" y1="286.036109133" y2="288.7069074" /><line stroke="rgb(0%,0%,0%)" x1="66.0876941566" x2="67.912951554" y1="332.203751745" y2="331.014588383" /><line stroke="rgb(0%,0%,0%)" x1="66.0876941566" x2="62.8206342224" y1="332.203751745" y2="334.298606832" /><line stroke="rgb(0%,0%,0%)" x1="69.3248085047" x2="67.912951554" y1="330.319867486" y2="331.014588383" /><line stroke="rgb(0%,0%,0%)" x1="73.4174910366" x2="70.8047616529" y1="326.254003379" y2="329.695437303" /><line stroke="rgb(0%,0%,0%)" x1="73.4174910366" x2="75.044864905" y1="326.254003379" y2="324.05339131" /><line stroke="rgb(0%,0%,0%)" x1="73.9665712159" x2="75.044864905" y1="319.982269957" y2="324.05339131" /><line stroke="rgb(0%,0%,0%)" x1="76.7404195571" x2="73.9665712159" y1="314.891086215" y2="319.982269957" /><line stroke="rgb(0%,0%,0%)" x1="77.0210151155" x2="76.7404195571" y1="311.326526545" y2="314.891086215" /><line stroke="rgb(0%,0%,0%)" x1="77.0210151155" x2="77.7115971688" y1="311.326526545" y2="310.345155778" /><line stroke="rgb(0%,0%,0%)" x1="82.5513503346" x2="77.7115971688" y1="308.114334752" y2="310.345155778" /><line stroke="rgb(0%,0%,0%)" x1="86.1281070342" x2="82.5513503346" y1="305.046731933" y2="308.114334752" /><line stroke="rgb(0%,0%,0%)" x1="94.2581859652" x2="90.1120794911" y1="299.652329165" y2="301.186676686" /><line stroke="rgb(0%,0%,0%)" x1="97.2800968563" x2="94.2581859652" y1="297.9457073" y2="299.652329165" /><line stroke="rgb(0%,0%,0%)" x1="27.1073075175" x2="26.2822244042" y1="433.623952071" y2="434.546348337" /><line stroke="rgb(0%,0%,0%)" x1="29.5657975249" x2="30.3660285085" y1="431.870645051" y2="430.337935755" /><line stroke="rgb(0%,0%,0%)" x1="37.4140252734" x2="36.2982621812" y1="400.36962546" y2="398.318282885" /><line stroke="rgb(0%,0%,0%)" x1="49.6894813514" x2="47.6838105707" y1="341.612728774" y2="344.86265989" /><line stroke="rgb(0%,0%,0%)" x1="47.6838105707" x2="44.0169490923" y1="344.86265989" y2="349.706159453" /><line stroke="rgb(0%,0%,0%)" x1="49.6894813514" x2="51.1160383069" y1="341.612728774" y2="340.736106578" /><line stroke="rgb(0%,0%,0%)" x1="51.1160383069" x2="52.9378400429" y1="340.736106578" y2="339.023268162" /><line stroke="rgb(0%,0%,0%)" x1="57.4976675724" x2="52.9378400429" y1="336.278571558" y2="339.023268162" /><line stroke="rgb(0%,0%,0%)" x1="62.8206342224" x2="57.4976675724" y1="334.298606832" y2="336.278571558" /><line stroke="rgb(0%,0%,0%)" x1="19.4865980457" x2="19.449210369" y1="458.399590786" y2="461.631494671" /><line stroke="rgb(0%,0%,0%)" x1="18.7480123609" x2="19.4865980457" y1="454.843624562" y2="458.399590786" /><line stroke="rgb(0%,0%,0%)" x1="19.7130301709" x2="18.7480123609" y1="448.303273872" y2="454.843624562" /><line stroke="rgb(0%,0%,0%)" x1="20.0478714925" x2="19.7130301709" y1="445.679014769" y2="448.303273872" /><line stroke="rgb(0%,0%,0%)" x1="20.0478714925" x2="20.3455431138" y1="445.679014769" y2="445.06581907" /><line stroke="rgb(0%,0%,0%)" x1="21.9779244101" x2="20.3455431138" y1="440.784307557" y2="445.06581907" /><line stroke="rgb(0%,0%,0%)" x1="22.0892193578" x2="21.9779244101" y1="440.631889689" y2="440.784307557" /><line stroke="rgb(0%,0%,0%)" x1="29.5657975249" x2="27.1073075175" y1="431.870645051" y2="433.623952071" /><line stroke="rgb(0%,0%,0%)" x1="30.2219637099" x2="30.3660285085" y1="427.459570812" y2="430.337935755" /><line stroke="rgb(0%,0%,0%)" x1="31.2476678092" x2="37.2021919491" y1="413.385309368" y2="407.082491399" /><line stroke="rgb(0%,0%,0%)" x1="31.2476678092" x2="27.487591415" y1="413.385309368" y2="419.8530335" /><line stroke="rgb(0%,0%,0%)" x1="30.2219637099" x2="28.7421720413" y1="427.459570812" y2="422.758657677" /><line stroke="rgb(0%,0%,0%)" x1="27.487591415" x2="28.7421720413" y1="419.8530335" y2="422.758657677" /><line stroke="rgb(0%,0%,0%)" x1="30.7417931556" x2="31.7812487767" y1="384.801854932" y2="388.382441325" /><line stroke="rgb(0%,0%,0%)" x1="30.5348177517" x2="30.7417931556" y1="378.510690234" y2="384.801854932" /><line stroke="rgb(0%,0%,0%)" x1="30.5348177517" x2="30.7115677319" y1="378.510690234" y2="376.868158114" /><line stroke="rgb(0%,0%,0%)" x1="30.7115677319" x2="31.059384205" y1="376.868158114" y2="374.944216391" /><line stroke="rgb(0%,0%,0%)" x1="40.225582997" x2="37.2021919491" y1="404.774326114" y2="407.082491399" /><line stroke="rgb(0%,0%,0%)" x1="40.4032634778" x2="40.225582997" y1="404.199720501" y2="404.774326114" /><line stroke="rgb(0%,0%,0%)" x1="39.8737233274" x2="40.4032634778" y1="401.770133968" y2="404.199720501" /><line stroke="rgb(0%,0%,0%)" x1="37.4140252734" x2="39.8737233274" y1="400.36962546" y2="401.770133968" /><line stroke="rgb(0%,0%,0%)" x1="31.7812487767" x2="36.2982621812" y1="388.382441325" y2="398.318282885" /><line stroke="rgb(0%,0%,0%)" x1="31.059384205" x2="35.9958268955" y1="374.944216391" y2="362.999999493" /><line stroke="rgb(0%,0%,0%)" x1="36.6536408527" x2="35.9958268955" y1="361.527771509" y2="362.999999493" /><line stroke="rgb(0%,0%,0%)" x1="42.8136354255" x2="36.6536408527" y1="351.924450416" y2="361.527771509" /><line stroke="rgb(0%,0%,0%)" x1="44.0169490923" x2="42.8136354255" y1="349.706159453" y2="351.924450416" /><line stroke="rgb(0%,0%,0%)" x1="483.278122006" x2="483.240132027" y1="351.779750336" y2="351.708980112" /><line stroke="rgb(0%,0%,0%)" x1="494.592472897" x2="495.594813398" y1="362.46789945" y2="363.510237392" /><line stroke="rgb(0%,0%,0%)" x1="483.278122006" x2="483.339970939" y1="351.779750336" y2="351.908525977" /><line stroke="rgb(0%,0%,0%)" x1="503.698752809" x2="504.789129688" y1="376.389815211" y2="378.73604499" /><line stroke="rgb(0%,0%,0%)" x1="503.698752809" x2="502.328727017" y1="376.389815211" y2="373.572878717" /><line stroke="rgb(0%,0%,0%)" x1="502.328727017" x2="495.594813398" y1="373.572878717" y2="363.510237392" /><line stroke="rgb(0%,0%,0%)" x1="522.264042077" x2="518.626266123" y1="503.340646789" y2="520.820979392" /><line stroke="rgb(0%,0%,0%)" x1="522.264042077" x2="523.152954587" y1="503.340646789" y2="500.665803516" /><line stroke="rgb(0%,0%,0%)" x1="523.152954587" x2="527.165489811" y1="500.665803516" y2="489.616159574" /><line stroke="rgb(0%,0%,0%)" x1="528.76693057" x2="527.165489811" y1="483.032026356" y2="489.616159574" /><line stroke="rgb(0%,0%,0%)" x1="528.76693057" x2="530.392254659" y1="483.032026356" y2="472.867629774" /><line stroke="rgb(0%,0%,0%)" x1="530.392254659" x2="529.682773009" y1="472.867629774" y2="464.560868206" /><line stroke="rgb(0%,0%,0%)" x1="529.682773009" x2="529.331730933" y1="464.560868206" y2="462.3879917" /><line stroke="rgb(0%,0%,0%)" x1="470.962756448" x2="465.83816999" y1="330.647275289" y2="322.926529288" /><line stroke="rgb(0%,0%,0%)" x1="465.83816999" x2="464.865175129" y1="322.926529288" y2="321.260239141" /><line stroke="rgb(0%,0%,0%)" x1="464.865175129" x2="463.779296649" y1="321.260239141" y2="318.878119902" /><line stroke="rgb(0%,0%,0%)" x1="463.779296649" x2="460.315578684" y1="318.878119902" y2="312.567881168" /><line stroke="rgb(0%,0%,0%)" x1="483.240132027" x2="483.136733371" y1="351.708980112" y2="351.591692509" /><line stroke="rgb(0%,0%,0%)" x1="483.136733371" x2="479.761097076" y1="351.591692509" y2="346.24692936" /><line stroke="rgb(0%,0%,0%)" x1="478.540642178" x2="479.761097076" y1="342.413336806" y2="346.24692936" /><line stroke="rgb(0%,0%,0%)" x1="478.540642178" x2="476.45408384" y1="342.413336806" y2="340.005164298" /><line stroke="rgb(0%,0%,0%)" x1="476.45408384" x2="472.564240987" y1="340.005164298" y2="332.810503849" /><line stroke="rgb(0%,0%,0%)" x1="470.962756448" x2="472.564240987" y1="330.647275289" y2="332.810503849" /><line stroke="rgb(0%,0%,0%)" x1="494.592472897" x2="493.183712277" y1="362.46789945" y2="361.100041899" /><line stroke="rgb(0%,0%,0%)" x1="493.183712277" x2="489.518686597" y1="361.100041899" y2="358.168275116" /><line stroke="rgb(0%,0%,0%)" x1="489.518686597" x2="483.339970939" y1="358.168275116" y2="351.908525977" /><line stroke="rgb(0%,0%,0%)" x1="506.199049728" x2="507.586225694" y1="545.838030543" y2="541.405608791" /><line stroke="rgb(0%,0%,0%)" x1="513.747836307" x2="507.586225694" y1="530.320969452" y2="541.405608791" /><line stroke="rgb(0%,0%,0%)" x1="518.519007155" x2="518.626266123" y1="521.08945722" y2="520.820979392" /><line stroke="rgb(0%,0%,0%)" x1="513.747836307" x2="518.519007155" y1="530.320969452" y2="521.08945722" /><line stroke="rgb(0%,0%,0%)" x1="442.453856961" x2="439.049187698" y1="294.807857316" y2="292.320007257" /><line stroke="rgb(0%,0%,0%)" x1="439.049187698" x2="438.24953051" y1="292.320007257" y2="291.47539256" /><line stroke="rgb(0%,0%,0%)" x1="438.24953051" x2="433.278808684" y1="291.47539256" y2="287.920562304" /><line stroke="rgb(0%,0%,0%)" x1="450.62412343" x2="442.453856961" y1="303.158657288" y2="294.807857316" /><line stroke="rgb(0%,0%,0%)" x1="456.934783475" x2="460.315578684" y1="309.587170946" y2="312.567881168" /><line stroke="rgb(0%,0%,0%)" x1="406.574330125" x2="404.996538894" y1="651.910102908" y2="652.912028155" /><line stroke="rgb(0%,0%,0%)" x1="406.574330125" x2="411.645055592" y1="651.910102908" y2="649.64987891" /><line stroke="rgb(0%,0%,0%)" x1="411.645055592" x2="416.282945374" y1="649.64987891" y2="646.467782659" /><line stroke="rgb(0%,0%,0%)" x1="416.282945374" x2="423.544216705" y1="646.467782659" y2="642.339685196" /><line stroke="rgb(0%,0%,0%)" x1="423.544216705" x2="433.509795631" y1="642.339685196" y2="635.875278961" /><line stroke="rgb(0%,0%,0%)" x1="433.509795631" x2="433.858253194" y1="635.875278961" y2="635.579436217" /><line stroke="rgb(0%,0%,0%)" x1="433.858253194" x2="434.561546867" y1="635.579436217" y2="635.073356975" /><line stroke="rgb(0%,0%,0%)" x1="451.189926097" x2="450.62412343" y1="303.867497823" y2="303.158657288" /><line stroke="rgb(0%,0%,0%)" x1="456.934783475" x2="451.189926097" y1="309.587170946" y2="303.867497823" /><line stroke="rgb(0%,0%,0%)" x1="360.885166898" x2="361.731917616" y1="711.665119953" y2="713.099704624" /><line stroke="rgb(0%,0%,0%)" x1="360.885166898" x2="360.486074024" y1="711.665119953" y2="710.821152744" /><line stroke="rgb(0%,0%,0%)" x1="363.068235104" x2="363.720294335" y1="669.490276936" y2="668.880837545" /><line stroke="rgb(0%,0%,0%)" x1="365.562195048" x2="364.530946392" y1="793.29832968" y2="798.280979542" /><line stroke="rgb(0%,0%,0%)" x1="365.562195048" x2="368.781416895" y1="793.29832968" y2="783.306783297" /><line stroke="rgb(0%,0%,0%)" x1="378.228618435" x2="377.790850173" y1="665.292130413" y2="665.416117799" /><line stroke="rgb(0%,0%,0%)" x1="378.228618435" x2="378.78744372" y1="665.292130413" y2="665.110536129" /><line stroke="rgb(0%,0%,0%)" x1="378.78744372" x2="384.701007292" y1="665.110536129" y2="661.263237759" /><line stroke="rgb(0%,0%,0%)" x1="388.137296216" x2="384.701007292" y1="658.875671536" y2="661.263237759" /><line stroke="rgb(0%,0%,0%)" x1="388.137296216" x2="398.990626394" y1="658.875671536" y2="654.581381744" /><line stroke="rgb(0%,0%,0%)" x1="404.996538894" x2="398.990626394" y1="652.912028155" y2="654.581381744" /><line stroke="rgb(0%,0%,0%)" x1="340.65043092" x2="348.107342549" y1="847.364375083" y2="839.477743384" /><line stroke="rgb(0%,0%,0%)" x1="352.41634705" x2="356.894119995" y1="834.648848824" y2="828.66792377" /><line stroke="rgb(0%,0%,0%)" x1="360.39382317" x2="358.566209378" y1="709.052726201" y2="702.127010013" /><line stroke="rgb(0%,0%,0%)" x1="358.566209378" x2="357.287940433" y1="702.127010013" y2="699.315599842" /><line stroke="rgb(0%,0%,0%)" x1="360.486074024" x2="360.39382317" y1="710.821152744" y2="709.052726201" /><line stroke="rgb(0%,0%,0%)" x1="358.791518574" x2="357.765795434" y1="679.31787692" y2="693.906757086" /><line stroke="rgb(0%,0%,0%)" x1="357.190237302" x2="357.765795434" y1="698.797530263" y2="693.906757086" /><line stroke="rgb(0%,0%,0%)" x1="358.791518574" x2="358.37580254" y1="679.31787692" y2="675.029543605" /><line stroke="rgb(0%,0%,0%)" x1="358.145588318" x2="358.37580254" y1="674.118724605" y2="675.029543605" /><line stroke="rgb(0%,0%,0%)" x1="358.145588318" x2="363.068235104" y1="674.118724605" y2="669.490276936" /><line stroke="rgb(0%,0%,0%)" x1="365.130242317" x2="360.060965832" y1="808.866699083" y2="816.500581755" /><line stroke="rgb(0%,0%,0%)" x1="365.130242317" x2="365.358313404" y1="808.866699083" y2="807.466430299" /><line stroke="rgb(0%,0%,0%)" x1="365.358313404" x2="364.516731435" y1="807.466430299" y2="802.326523237" /><line stroke="rgb(0%,0%,0%)" x1="364.090833827" x2="364.530946392" y1="801.396107848" y2="798.280979542" /><line stroke="rgb(0%,0%,0%)" x1="364.516731435" x2="364.090833827" y1="802.326523237" y2="801.396107848" /><line stroke="rgb(0%,0%,0%)" x1="368.781416895" x2="369.698747407" y1="783.306783297" y2="780.465628556" /><line stroke="rgb(0%,0%,0%)" x1="369.328502376" x2="369.249118263" y1="767.552069923" y2="765.487528375" /><line stroke="rgb(0%,0%,0%)" x1="369.328502376" x2="369.698747407" y1="767.552069923" y2="780.465628556" /><line stroke="rgb(0%,0%,0%)" x1="367.569117393" x2="369.249118263" y1="760.102183116" y2="765.487528375" /><line stroke="rgb(0%,0%,0%)" x1="365.807362796" x2="365.217081323" y1="752.976395719" y2="748.71888747" /><line stroke="rgb(0%,0%,0%)" x1="366.305811067" x2="365.839638179" y1="738.332789083" y2="736.590283401" /><line stroke="rgb(0%,0%,0%)" x1="365.217081323" x2="366.305811067" y1="748.71888747" y2="738.332789083" /><line stroke="rgb(0%,0%,0%)" x1="365.839638179" x2="364.295821987" y1="736.590283401" y2="724.60378365" /><line stroke="rgb(0%,0%,0%)" x1="364.295821987" x2="364.311607333" y1="724.60378365" y2="723.944666626" /><line stroke="rgb(0%,0%,0%)" x1="363.757908381" x2="364.199777102" y1="717.906136571" y2="723.113533294" /><line stroke="rgb(0%,0%,0%)" x1="363.757908381" x2="361.731917616" y1="717.906136571" y2="713.099704624" /><line stroke="rgb(0%,0%,0%)" x1="363.720294335" x2="377.790850173" y1="668.880837545" y2="665.416117799" /><line stroke="rgb(0%,0%,0%)" x1="320.01552657" x2="319.691070217" y1="847.537428973" y2="846.636844439" /><line stroke="rgb(0%,0%,0%)" x1="332.852902128" x2="326.471082457" y1="851.999870516" y2="851.721158258" /><line stroke="rgb(0%,0%,0%)" x1="320.01552657" x2="320.416435764" y1="847.537428973" y2="847.66535177" /><line stroke="rgb(0%,0%,0%)" x1="320.416435764" x2="323.934676415" y1="847.66535177" y2="850.054794963" /><line stroke="rgb(0%,0%,0%)" x1="337.094323905" x2="340.65043092" y1="850.055878744" y2="847.364375083" /><line stroke="rgb(0%,0%,0%)" x1="332.852902128" x2="337.094323905" y1="851.999870516" y2="850.055878744" /><line stroke="rgb(0%,0%,0%)" x1="348.107342549" x2="349.098745199" y1="839.477743384" y2="838.727617222" /><line stroke="rgb(0%,0%,0%)" x1="349.098745199" x2="349.74204653" y1="838.727617222" y2="837.751201368" /><line stroke="rgb(0%,0%,0%)" x1="349.74204653" x2="349.790049631" y1="837.751201368" y2="836.997397409" /><line stroke="rgb(0%,0%,0%)" x1="349.790049631" x2="352.41634705" y1="836.997397409" y2="834.648848824" /><line stroke="rgb(0%,0%,0%)" x1="356.894119995" x2="357.562551396" y1="828.66792377" y2="827.078274119" /><line stroke="rgb(0%,0%,0%)" x1="357.562551396" x2="359.597869909" y1="827.078274119" y2="817.527776995" /><line stroke="rgb(0%,0%,0%)" x1="357.287940433" x2="357.190237302" y1="699.315599842" y2="698.797530263" /><line stroke="rgb(0%,0%,0%)" x1="359.597869909" x2="359.839613397" y1="817.527776995" y2="817.00061419" /><line stroke="rgb(0%,0%,0%)" x1="359.839613397" x2="359.987603574" y1="817.00061419" y2="816.809367216" /><line stroke="rgb(0%,0%,0%)" x1="359.987603574" x2="360.060965832" y1="816.809367216" y2="816.500581755" /><line stroke="rgb(0%,0%,0%)" x1="367.569117393" x2="365.807362796" y1="760.102183116" y2="752.976395719" /><line stroke="rgb(0%,0%,0%)" x1="364.311607333" x2="364.156177392" y1="723.944666626" y2="723.237269738" /><line stroke="rgb(0%,0%,0%)" x1="364.156177392" x2="364.199777102" y1="723.237269738" y2="723.113533294" /><line stroke="rgb(0%,0%,0%)" x1="285.321716775" x2="283.874246233" y1="738.032398403" y2="735.991880152" /><line stroke="rgb(0%,0%,0%)" x1="285.321716775" x2="291.406307404" y1="738.032398403" y2="743.591301218" /><line stroke="rgb(0%,0%,0%)" x1="325.814434887" x2="326.471082457" y1="851.202920562" y2="851.721158258" /><line stroke="rgb(0%,0%,0%)" x1="323.934676415" x2="325.814434887" y1="850.054794963" y2="851.202920562" /><line stroke="rgb(0%,0%,0%)" x1="226.908455254" x2="225.003374904" y1="702.631816631" y2="701.056875718" /><line stroke="rgb(0%,0%,0%)" x1="226.908455254" x2="227.369658283" y1="702.631816631" y2="702.625091191" /><line stroke="rgb(0%,0%,0%)" x1="239.025887599" x2="246.921346857" y1="707.311831448" y2="708.903877205" /><line stroke="rgb(0%,0%,0%)" x1="200.929910881" x2="203.400547226" y1="663.161864837" y2="664.413885006" /><line stroke="rgb(0%,0%,0%)" x1="200.223622038" x2="200.929910881" y1="662.079990813" y2="663.161864837" /><line stroke="rgb(0%,0%,0%)" x1="200.223622038" x2="199.879206531" y1="662.079990813" y2="661.754071842" /><line stroke="rgb(0%,0%,0%)" x1="198.421363194" x2="199.879206531" y1="661.141516176" y2="661.754071842" /><line stroke="rgb(0%,0%,0%)" x1="194.94664094" x2="197.211027239" y1="658.971863339" y2="660.870808688" /><line stroke="rgb(0%,0%,0%)" x1="198.421363194" x2="197.211027239" y1="661.141516176" y2="660.870808688" /><line stroke="rgb(0%,0%,0%)" x1="194.94664094" x2="191.60294944" y1="658.971863339" y2="656.883103796" /><line stroke="rgb(0%,0%,0%)" x1="210.032349798" x2="212.938492265" y1="682.160469118" y2="687.876622661" /><line stroke="rgb(0%,0%,0%)" x1="210.032349798" x2="208.882327721" y1="682.160469118" y2="675.514694781" /><line stroke="rgb(0%,0%,0%)" x1="207.761916029" x2="208.882327721" y1="668.224650326" y2="675.514694781" /><line stroke="rgb(0%,0%,0%)" x1="206.924871247" x2="207.761916029" y1="667.025947861" y2="668.224650326" /><line stroke="rgb(0%,0%,0%)" x1="215.560986499" x2="220.313613714" y1="691.820757638" y2="696.441282031" /><line stroke="rgb(0%,0%,0%)" x1="227.369658283" x2="232.964843888" y1="702.625091191" y2="705.740516145" /><line stroke="rgb(0%,0%,0%)" x1="221.800237687" x2="225.003374904" y1="698.432673877" y2="701.056875718" /><line stroke="rgb(0%,0%,0%)" x1="220.313613714" x2="221.800237687" y1="696.441282031" y2="698.432673877" /><line stroke="rgb(0%,0%,0%)" x1="232.964843888" x2="237.062673174" y1="705.740516145" y2="706.59890189" /><line stroke="rgb(0%,0%,0%)" x1="237.062673174" x2="239.025887599" y1="706.59890189" y2="707.311831448" /><line stroke="rgb(0%,0%,0%)" x1="162.228910371" x2="182.796357042" y1="642.106065396" y2="653.021724494" /><line stroke="rgb(0%,0%,0%)" x1="182.796357042" x2="183.731453615" y1="653.021724494" y2="653.574383927" /><line stroke="rgb(0%,0%,0%)" x1="190.421399443" x2="191.60294944" y1="656.117313366" y2="656.883103796" /><line stroke="rgb(0%,0%,0%)" x1="190.421399443" x2="183.731453615" y1="656.117313366" y2="653.574383927" /><line stroke="rgb(0%,0%,0%)" x1="203.400547226" x2="206.924871247" y1="664.413885006" y2="667.025947861" /><line stroke="rgb(0%,0%,0%)" x1="212.938492265" x2="215.560986499" y1="687.876622661" y2="691.820757638" /><line stroke="rgb(0%,0%,0%)" x1="112.256290933" x2="115.919369559" y1="630.453000732" y2="631.252974758" /><line stroke="rgb(0%,0%,0%)" x1="136.13429721" x2="131.420244336" y1="635.725745803" y2="634.240154416" /><line stroke="rgb(0%,0%,0%)" x1="136.13429721" x2="137.798658277" y1="635.725745803" y2="635.542474911" /><line stroke="rgb(0%,0%,0%)" x1="137.798658277" x2="142.100821106" y1="635.542474911" y2="635.569882087" /><line stroke="rgb(0%,0%,0%)" x1="142.100821106" x2="148.572306971" y1="635.569882087" y2="635.436426416" /><line stroke="rgb(0%,0%,0%)" x1="158.713915475" x2="162.228910371" y1="639.265868131" y2="642.106065396" /><line stroke="rgb(0%,0%,0%)" x1="158.713915475" x2="153.591176048" y1="639.265868131" y2="636.649358541" /><line stroke="rgb(0%,0%,0%)" x1="148.572306971" x2="150.844130395" y1="635.436426416" y2="635.580268737" /><line stroke="rgb(0%,0%,0%)" x1="150.844130395" x2="153.591176048" y1="635.580268737" y2="636.649358541" /><line stroke="rgb(0%,0%,0%)" x1="66.1561685842" x2="66.347826958" y1="593.411654984" y2="593.556892608" /><line stroke="rgb(0%,0%,0%)" x1="66.1561685842" x2="66.0622811486" y1="593.411654984" y2="593.383334471" /><line stroke="rgb(0%,0%,0%)" x1="93.8550003741" x2="100.67536192" y1="623.691366735" y2="627.212881807" /><line stroke="rgb(0%,0%,0%)" x1="89.272236655" x2="93.8550003741" y1="622.511942683" y2="623.691366735" /><line stroke="rgb(0%,0%,0%)" x1="89.272236655" x2="87.1730414324" y1="622.511942683" y2="620.781125972" /><line stroke="rgb(0%,0%,0%)" x1="100.67536192" x2="108.109239235" y1="627.212881807" y2="630.094907553" /><line stroke="rgb(0%,0%,0%)" x1="115.919369559" x2="120.071405836" y1="631.252974758" y2="631.489909138" /><line stroke="rgb(0%,0%,0%)" x1="120.071405836" x2="121.886093904" y1="631.489909138" y2="632.53013359" /><line stroke="rgb(0%,0%,0%)" x1="112.256290933" x2="108.109239235" y1="630.453000732" y2="630.094907553" /><line stroke="rgb(0%,0%,0%)" x1="124.009448443" x2="131.420244336" y1="632.208084482" y2="634.240154416" /><line stroke="rgb(0%,0%,0%)" x1="121.886093904" x2="124.009448443" y1="632.53013359" y2="632.208084482" /><line stroke="rgb(0%,0%,0%)" x1="38.0993983112" x2="38.5579941892" y1="516.664895924" y2="517.150551561" /><line stroke="rgb(0%,0%,0%)" x1="39.3668365998" x2="38.3683381973" y1="519.046832433" y2="520.76578093" /><line stroke="rgb(0%,0%,0%)" x1="38.5579941892" x2="39.3668365998" y1="517.150551561" y2="519.046832433" /><line stroke="rgb(0%,0%,0%)" x1="38.0993983112" x2="33.4158776789" y1="516.664895924" y2="511.602843067" /><line stroke="rgb(0%,0%,0%)" x1="41.3148612125" x2="46.7762064206" y1="574.948906837" y2="581.548686326" /><line stroke="rgb(0%,0%,0%)" x1="41.3148612125" x2="41.1728552321" y1="574.948906837" y2="574.16188919" /><line stroke="rgb(0%,0%,0%)" x1="66.0622811486" x2="66.0568667371" y1="593.383334471" y2="593.322423857" /><line stroke="rgb(0%,0%,0%)" x1="66.8427727583" x2="67.7104739199" y1="594.307723113" y2="596.804691177" /><line stroke="rgb(0%,0%,0%)" x1="67.7104739199" x2="67.9477198614" y1="596.804691177" y2="600.590882315" /><line stroke="rgb(0%,0%,0%)" x1="66.0568667371" x2="62.7099450619" y1="593.322423857" y2="591.608526849" /><line stroke="rgb(0%,0%,0%)" x1="50.3766637659" x2="62.7099450619" y1="585.276676082" y2="591.608526849" /><line stroke="rgb(0%,0%,0%)" x1="78.3675395361" x2="74.1265513815" y1="616.258811873" y2="614.2686575" /><line stroke="rgb(0%,0%,0%)" x1="80.7880416181" x2="83.5708459565" y1="618.048108586" y2="620.282139" /><line stroke="rgb(0%,0%,0%)" x1="78.3675395361" x2="80.7880416181" y1="616.258811873" y2="618.048108586" /><line stroke="rgb(0%,0%,0%)" x1="72.0580724584" x2="74.1265513815" y1="612.809850206" y2="614.2686575" /><line stroke="rgb(0%,0%,0%)" x1="70.1554574536" x2="71.039306942" y1="608.973646087" y2="612.060465889" /><line stroke="rgb(0%,0%,0%)" x1="67.0268586182" x2="70.1554574536" y1="605.308566928" y2="608.973646087" /><line stroke="rgb(0%,0%,0%)" x1="67.0268586182" x2="67.9477198614" y1="605.308566928" y2="600.590882315" /><line stroke="rgb(0%,0%,0%)" x1="66.347826958" x2="66.4033269248" y1="593.556892608" y2="593.696947535" /><line stroke="rgb(0%,0%,0%)" x1="66.4033269248" x2="66.8427727583" y1="593.696947535" y2="594.307723113" /><line stroke="rgb(0%,0%,0%)" x1="83.5708459565" x2="87.1730414324" y1="620.282139" y2="620.781125972" /><line stroke="rgb(0%,0%,0%)" x1="29.3395076236" x2="27.312411415" y1="490.137477611" y2="488.189283669" /><line stroke="rgb(0%,0%,0%)" x1="19.1382291347" x2="21.8076027588" y1="481.074964551" y2="484.786765099" /><line stroke="rgb(0%,0%,0%)" x1="16.8942401908" x2="17.2086231697" y1="475.822157696" y2="472.607826439" /><line stroke="rgb(0%,0%,0%)" x1="19.1940133028" x2="18.7332609314" y1="466.886149253" y2="470.12522066" /><line stroke="rgb(0%,0%,0%)" x1="41.1728552321" x2="37.8526813543" y1="574.16188919" y2="568.708256495" /><line stroke="rgb(0%,0%,0%)" x1="36.3604569865" x2="37.8526813543" y1="566.20764394" y2="568.708256495" /><line stroke="rgb(0%,0%,0%)" x1="35.1414554227" x2="36.3604569865" y1="564.070761266" y2="566.20764394" /><line stroke="rgb(0%,0%,0%)" x1="33.5795208483" x2="35.1414554227" y1="561.843635996" y2="564.070761266" /><line stroke="rgb(0%,0%,0%)" x1="31.3302051694" x2="33.5795208483" y1="555.444764929" y2="561.843635996" /><line stroke="rgb(0%,0%,0%)" x1="31.3302051694" x2="30.074845009" y1="555.444764929" y2="550.865948579" /><line stroke="rgb(0%,0%,0%)" x1="30.150069761" x2="30.074845009" y1="542.339670592" y2="550.865948579" /><line stroke="rgb(0%,0%,0%)" x1="30.4156497294" x2="30.150069761" y1="540.017081535" y2="542.339670592" /><line stroke="rgb(0%,0%,0%)" x1="30.6719884029" x2="30.4156497294" y1="538.594522665" y2="540.017081535" /><line stroke="rgb(0%,0%,0%)" x1="34.2223688741" x2="30.6719884029" y1="526.92722563" y2="538.594522665" /><line stroke="rgb(0%,0%,0%)" x1="34.6285114709" x2="34.2223688741" y1="525.631000477" y2="526.92722563" /><line stroke="rgb(0%,0%,0%)" x1="38.3683381973" x2="34.6285114709" y1="520.76578093" y2="525.631000477" /><line stroke="rgb(0%,0%,0%)" x1="30.4292419617" x2="33.4158776789" y1="510.339880084" y2="511.602843067" /><line stroke="rgb(0%,0%,0%)" x1="26.262100046" x2="30.4292419617" y1="501.970604504" y2="510.339880084" /><line stroke="rgb(0%,0%,0%)" x1="26.8678091494" x2="26.262100046" y1="498.683741215" y2="501.970604504" /><line stroke="rgb(0%,0%,0%)" x1="29.3928792413" x2="26.8678091494" y1="495.470468317" y2="498.683741215" /><line stroke="rgb(0%,0%,0%)" x1="29.5974167848" x2="29.6060235895" y1="490.41471411" y2="491.157381999" /><line stroke="rgb(0%,0%,0%)" x1="29.6060235895" x2="29.3928792413" y1="491.157381999" y2="495.470468317" /><line stroke="rgb(0%,0%,0%)" x1="29.5974167848" x2="29.3395076236" y1="490.41471411" y2="490.137477611" /><line stroke="rgb(0%,0%,0%)" x1="49.9892764408" x2="50.3766637659" y1="584.86501109" y2="585.276676082" /><line stroke="rgb(0%,0%,0%)" x1="46.7762064206" x2="49.9892764408" y1="581.548686326" y2="584.86501109" /><line stroke="rgb(0%,0%,0%)" x1="71.039306942" x2="72.0580724584" y1="612.060465889" y2="612.809850206" /><line stroke="rgb(0%,0%,0%)" x1="21.8076027588" x2="27.312411415" y1="484.786765099" y2="488.189283669" /><line stroke="rgb(0%,0%,0%)" x1="18.5518733402" x2="19.1382291347" y1="478.509254783" y2="481.074964551" /><line stroke="rgb(0%,0%,0%)" x1="16.8942401908" x2="18.5518733402" y1="475.822157696" y2="478.509254783" /><line stroke="rgb(0%,0%,0%)" x1="18.7332609314" x2="17.2086231697" y1="470.12522066" y2="472.607826439" /><line stroke="rgb(0%,0%,0%)" x1="19.449210369" x2="19.1265244696" y1="461.631494671" y2="465.162384184" /><line stroke="rgb(0%,0%,0%)" x1="19.1265244696" x2="19.1940133028" y1="465.162384184" y2="466.886149253" /><line stroke="rgb(0%,0%,0%)" x1="442.250023096" x2="449.641436453" y1="629.303360378" y2="622.564964765" /><line stroke="rgb(0%,0%,0%)" x1="455.726655681" x2="449.641436453" y1="617.343094058" y2="622.564964765" /><line stroke="rgb(0%,0%,0%)" x1="462.147451256" x2="463.853030592" y1="611.906327708" y2="608.219419546" /><line stroke="rgb(0%,0%,0%)" x1="469.766883643" x2="466.676600709" y1="598.055191714" y2="603.270233516" /><line stroke="rgb(0%,0%,0%)" x1="471.963784418" x2="476.222212835" y1="595.42944576" y2="588.536543295" /><line stroke="rgb(0%,0%,0%)" x1="471.963784418" x2="469.766883643" y1="595.42944576" y2="598.055191714" /><line stroke="rgb(0%,0%,0%)" x1="476.222212835" x2="478.395185497" y1="588.536543295" y2="585.609796512" /><line stroke="rgb(0%,0%,0%)" x1="478.395185497" x2="479.037632949" y1="585.609796512" y2="581.576788813" /><line stroke="rgb(0%,0%,0%)" x1="479.037632949" x2="479.741556069" y1="581.576788813" y2="580.365812732" /><line stroke="rgb(0%,0%,0%)" x1="482.626496685" x2="479.741556069" y1="576.445851285" y2="580.365812732" /><line stroke="rgb(0%,0%,0%)" x1="482.626496685" x2="484.435829822" y1="576.445851285" y2="573.379517939" /><line stroke="rgb(0%,0%,0%)" x1="484.435829822" x2="487.136771788" y1="573.379517939" y2="570.073790603" /><line stroke="rgb(0%,0%,0%)" x1="487.136771788" x2="489.129101195" y1="570.073790603" y2="568.189297447" /><line stroke="rgb(0%,0%,0%)" x1="498.014601723" x2="499.720339186" y1="559.360186791" y2="556.604247416" /><line stroke="rgb(0%,0%,0%)" x1="498.014601723" x2="489.129101195" y1="559.360186791" y2="568.189297447" /><line stroke="rgb(0%,0%,0%)" x1="499.720339186" x2="505.737440037" y1="556.604247416" y2="546.785783151" /><line stroke="rgb(0%,0%,0%)" x1="505.737440037" x2="506.199049728" y1="546.785783151" y2="545.838030543" /><line stroke="rgb(0%,0%,0%)" x1="438.170298326" x2="434.561546867" y1="632.023410469" y2="635.073356975" /><line stroke="rgb(0%,0%,0%)" x1="440.355415926" x2="438.170298326" y1="630.104071977" y2="632.023410469" /><line stroke="rgb(0%,0%,0%)" x1="440.355415926" x2="442.250023096" y1="630.104071977" y2="629.303360378" /><line stroke="rgb(0%,0%,0%)" x1="455.726655681" x2="462.147451256" y1="617.343094058" y2="611.906327708" /><line stroke="rgb(0%,0%,0%)" x1="463.853030592" x2="466.676600709" y1="608.219419546" y2="603.270233516" /><line stroke="rgb(0%,0%,0%)" x1="314.73201056" x2="316.053135061" y1="840.302374413" y2="842.040012437" /><line stroke="rgb(0%,0%,0%)" x1="311.971832072" x2="312.86177663" y1="825.3824911" y2="829.971804958" /><line stroke="rgb(0%,0%,0%)" x1="311.971832072" x2="312.738084968" y1="825.3824911" y2="818.998142919" /><line stroke="rgb(0%,0%,0%)" x1="316.985340927" x2="318.324031929" y1="808.176779115" y2="804.179773032" /><line stroke="rgb(0%,0%,0%)" x1="316.985340927" x2="314.126042524" y1="808.176779115" y2="812.812114298" /><line stroke="rgb(0%,0%,0%)" x1="314.126042524" x2="312.738084968" y1="812.812114298" y2="818.998142919" /><line stroke="rgb(0%,0%,0%)" x1="320.674658887" x2="318.324031929" y1="800.305445801" y2="804.179773032" /><line stroke="rgb(0%,0%,0%)" x1="317.450261436" x2="317.078739611" y1="792.432873708" y2="791.943751428" /><line stroke="rgb(0%,0%,0%)" x1="317.450261436" x2="317.486628682" y1="792.432873708" y2="792.655064367" /><line stroke="rgb(0%,0%,0%)" x1="309.103770235" x2="317.078739611" y1="783.644690556" y2="791.943751428" /><line stroke="rgb(0%,0%,0%)" x1="309.103770235" x2="303.864691088" y1="783.644690556" y2="774.037706075" /><line stroke="rgb(0%,0%,0%)" x1="303.502885205" x2="303.864691088" y1="773.160040154" y2="774.037706075" /><line stroke="rgb(0%,0%,0%)" x1="300.789362289" x2="303.088115796" y1="764.97695572" y2="771.610628715" /><line stroke="rgb(0%,0%,0%)" x1="300.789362289" x2="300.322848572" y1="764.97695572" y2="757.115018179" /><line stroke="rgb(0%,0%,0%)" x1="300.513689381" x2="300.322848572" y1="754.848420452" y2="757.115018179" /><line stroke="rgb(0%,0%,0%)" x1="299.63658016" x2="300.513689381" y1="753.865365199" y2="754.848420452" /><line stroke="rgb(0%,0%,0%)" x1="295.706967262" x2="299.63658016" y1="747.289249325" y2="753.865365199" /><line stroke="rgb(0%,0%,0%)" x1="316.053135061" x2="317.041888481" y1="842.040012437" y2="843.416585162" /><line stroke="rgb(0%,0%,0%)" x1="317.463152577" x2="320.674658887" y1="793.001856244" y2="800.305445801" /><line stroke="rgb(0%,0%,0%)" x1="317.486628682" x2="317.463152577" y1="792.655064367" y2="793.001856244" /><line stroke="rgb(0%,0%,0%)" x1="248.422846721" x2="251.114145176" y1="708.779470508" y2="711.086484511" /><line stroke="rgb(0%,0%,0%)" x1="251.114145176" x2="255.113842169" y1="711.086484511" y2="714.420112449" /><line stroke="rgb(0%,0%,0%)" x1="273.336442537" x2="263.032336996" y1="724.172606791" y2="718.558176335" /><line stroke="rgb(0%,0%,0%)" x1="255.113842169" x2="263.032336996" y1="714.420112449" y2="718.558176335" /><line stroke="rgb(0%,0%,0%)" x1="276.544789295" x2="274.421010347" y1="724.905707162" y2="724.616623356" /><line stroke="rgb(0%,0%,0%)" x1="276.544789295" x2="279.809362235" y1="724.905707162" y2="728.989715032" /><line stroke="rgb(0%,0%,0%)" x1="279.809362235" x2="283.874246233" y1="728.989715032" y2="735.991880152" /><line stroke="rgb(0%,0%,0%)" x1="291.406307404" x2="295.706967262" y1="743.591301218" y2="747.289249325" /><line stroke="rgb(0%,0%,0%)" x1="273.336442537" x2="274.421010347" y1="724.172606791" y2="724.616623356" /><line stroke="rgb(0%,0%,0%)" x1="303.088115796" x2="303.502885205" y1="771.610628715" y2="773.160040154" /><line stroke="rgb(0%,0%,0%)" x1="317.730933166" x2="317.935910899" y1="844.17485694" y2="844.683665524" /><line stroke="rgb(0%,0%,0%)" x1="317.935910899" x2="318.970040229" y1="844.683665524" y2="846.096393941" /><line stroke="rgb(0%,0%,0%)" x1="317.041888481" x2="317.730933166" y1="843.416585162" y2="844.17485694" /><line stroke="rgb(0%,0%,0%)" x1="70.8047616529" x2="69.3248085047" y1="329.695437303" y2="330.319867486" /><line stroke="rgb(0%,0%,0%)" x1="319.691070217" x2="318.970040229" y1="846.636844439" y2="846.096393941" /><line stroke="rgb(0%,0%,0%)" x1="313.067046632" x2="314.73201056" y1="834.547211227" y2="840.302374413" /><line stroke="rgb(0%,0%,0%)" x1="312.86177663" x2="312.366323664" y1="829.971804958" y2="832.773397386" /><line stroke="rgb(0%,0%,0%)" x1="312.366323664" x2="313.067046632" y1="832.773397386" y2="834.547211227" /><line stroke="rgb(0%,0%,0%)" x1="26.2822244042" x2="22.0892193578" y1="434.546348337" y2="440.631889689" /><line stroke="rgb(0%,0%,0%)" x1="246.921346857" x2="248.422846721" y1="708.903877205" y2="708.779470508" /></svg>