<?xml version="1.0" encoding="utf-8" ?>
<svg baseProfile="full" height="100%" version="1.1" viewBox="0.5 0.5 685.793960571 941.299331665" width="100%" xmlns="http://www.w3.org/2000/svg" xmlns:ev="http://www.w3.org/2001/xml-events" xmlns:xlink="http://www.w3.org/1999/xlink"><defs /><line stroke="rgb(0%,0%,0%)" x1="522.404867212" x2="523.337888617" y1="424.099719518" y2="426.196076725" /><line stroke="rgb(0%,0%,0%)" x1="522.404867212" x2="517.821847113" y1="424.099719518" y2="414.24621663" /><line stroke="rgb(0%,0%,0%)" x1="517.821847113" x2="516.554787749" y1="414.24621663" y2="411.178421825" /><line stroke="rgb(0%,0%,0%)" x1="527.43075765" x2="527.706394861" y1="462.503018963" y2="456.460311409" /><line stroke="rgb(0%,0%,0%)" x1="527.706394861" x2="528.339723601" y1="456.460311409" y2="450.721105247" /><line stroke="rgb(0%,0%,0%)" x1="528.339723601" x2="528.252632016" y1="450.721105247" y2="444.453761926" /><line stroke="rgb(0%,0%,0%)" x1="527.182960097" x2="528.252632016" y1="439.434363426" y2="444.453761926" /><line stroke="rgb(0%,0%,0%)" x1="523.54628407" x2="523.337888617" y1="427.162942415" y2="426.196076725" /><line stroke="rgb(0%,0%,0%)" x1="527.182960097" x2="523.54628407" y1="439.434363426" y2="427.162942415" /><line stroke="rgb(0%,0%,0%)" x1="511.560309224" x2="510.927614057" y1="396.199599961" y2="394.851747692" /><line stroke="rgb(0%,0%,0%)" x1="502.889906307" x2="510.927614057" y1="377.491569613" y2="394.851747692" /><line stroke="rgb(0%,0%,0%)" x1="502.889906307" x2="500.958993159" y1="377.491569613" y2="373.511622605" /><line stroke="rgb(0%,0%,0%)" x1="500.958993159" x2="500.045942578" y1="373.511622605" y2="370.733384026" /><line stroke="rgb(0%,0%,0%)" x1="516.554787749" x2="515.706886037" y1="411.178421825" y2="409.740011198" /><line stroke="rgb(0%,0%,0%)" x1="511.560309224" x2="515.706886037" y1="396.199599961" y2="409.740011198" /><line stroke="rgb(0%,0%,0%)" x1="407.673166621" x2="412.860433408" y1="269.487406446" y2="273.471465958" /><line stroke="rgb(0%,0%,0%)" x1="407.673166621" x2="404.456008313" y1="269.487406446" y2="267.354861141" /><line stroke="rgb(0%,0%,0%)" x1="421.24204696" x2="430.816613299" y1="279.0265375" y2="286.463065375" /><line stroke="rgb(0%,0%,0%)" x1="421.24204696" x2="412.860433408" y1="279.0265375" y2="273.471465958" /><line stroke="rgb(0%,0%,0%)" x1="435.261147325" x2="430.816613299" y1="290.207618554" y2="286.463065375" /><line stroke="rgb(0%,0%,0%)" x1="338.688811525" x2="338.122783091" y1="105.875579198" y2="104.897916141" /><line stroke="rgb(0%,0%,0%)" x1="338.688811525" x2="339.288397393" y1="105.875579198" y2="107.680974705" /><line stroke="rgb(0%,0%,0%)" x1="352.332265698" x2="352.806113484" y1="206.808351868" y2="205.754836239" /><line stroke="rgb(0%,0%,0%)" x1="354.763827881" x2="354.835120159" y1="193.294125559" y2="194.267151558" /><line stroke="rgb(0%,0%,0%)" x1="354.763827881" x2="354.240141203" y1="193.294125559" y2="190.266844374" /><line stroke="rgb(0%,0%,0%)" x1="388.204466965" x2="395.300496679" y1="258.202191405" y2="261.528085664" /><line stroke="rgb(0%,0%,0%)" x1="388.204466965" x2="377.663619789" y1="258.202191405" y2="253.400144707" /><line stroke="rgb(0%,0%,0%)" x1="404.456008313" x2="395.300496679" y1="267.354861141" y2="261.528085664" /><line stroke="rgb(0%,0%,0%)" x1="338.122783091" x2="337.726298706" y1="104.897916141" y2="101.613392559" /><line stroke="rgb(0%,0%,0%)" x1="332.527841441" x2="335.264065796" y1="93.3080570541" y2="96.3962878649" /><line stroke="rgb(0%,0%,0%)" x1="332.527841441" x2="327.592545319" y1="93.3080570541" y2="89.8615471308" /><line stroke="rgb(0%,0%,0%)" x1="326.426542618" x2="327.592545319" y1="89.2630948834" y2="89.8615471308" /><line stroke="rgb(0%,0%,0%)" x1="350.212968495" x2="348.839256481" y1="227.156975239" y2="218.936557782" /><line stroke="rgb(0%,0%,0%)" x1="352.332265698" x2="351.825143739" y1="206.808351868" y2="209.834739346" /><line stroke="rgb(0%,0%,0%)" x1="351.215924252" x2="354.43199135" y1="138.712958812" y2="143.508850692" /><line stroke="rgb(0%,0%,0%)" x1="351.215924252" x2="347.554360342" y1="138.712958812" y2="133.593496327" /><line stroke="rgb(0%,0%,0%)" x1="345.989057318" x2="347.554360342" y1="130.485782953" y2="133.593496327" /><line stroke="rgb(0%,0%,0%)" x1="345.989057318" x2="344.565718019" y1="130.485782953" y2="126.487535961" /><line stroke="rgb(0%,0%,0%)" x1="344.565718019" x2="342.744083681" y1="126.487535961" y2="115.403896808" /><line stroke="rgb(0%,0%,0%)" x1="342.744083681" x2="339.288397393" y1="115.403896808" y2="107.680974705" /><line stroke="rgb(0%,0%,0%)" x1="355.594765665" x2="362.485606219" y1="244.411199358" y2="247.440276217" /><line stroke="rgb(0%,0%,0%)" x1="355.594765665" x2="351.795104871" y1="244.411199358" y2="239.489367407" /><line stroke="rgb(0%,0%,0%)" x1="351.795104871" x2="351.021481015" y1="239.489367407" y2="237.391115527" /><line stroke="rgb(0%,0%,0%)" x1="351.021481015" x2="349.502133168" y1="237.391115527" y2="229.986150578" /><line stroke="rgb(0%,0%,0%)" x1="352.806113484" x2="354.656748489" y1="205.754836239" y2="195.404186261" /><line stroke="rgb(0%,0%,0%)" x1="354.656748489" x2="354.835120159" y1="195.404186261" y2="194.267151558" /><line stroke="rgb(0%,0%,0%)" x1="354.240141203" x2="353.247535954" y1="190.266844374" y2="168.82160989" /><line stroke="rgb(0%,0%,0%)" x1="354.265928293" x2="353.247535954" y1="163.66996768" y2="168.82160989" /><line stroke="rgb(0%,0%,0%)" x1="354.265928293" x2="354.96723958" y1="163.66996768" y2="154.839790606" /><line stroke="rgb(0%,0%,0%)" x1="354.96723958" x2="354.40636027" y1="154.839790606" y2="152.05593621" /><line stroke="rgb(0%,0%,0%)" x1="354.40636027" x2="355.10780244" y1="152.05593621" y2="146.533555369" /><line stroke="rgb(0%,0%,0%)" x1="355.10780244" x2="354.43199135" y1="146.533555369" y2="143.508850692" /><line stroke="rgb(0%,0%,0%)" x1="369.027686386" x2="362.485606219" y1="249.722081604" y2="247.440276217" /><line stroke="rgb(0%,0%,0%)" x1="377.663619789" x2="369.027686386" y1="253.400144707" y2="249.722081604" /><line stroke="rgb(0%,0%,0%)" x1="287.880627889" x2="288.334724889" y1="161.122562115" y2="162.708401091" /><line stroke="rgb(0%,0%,0%)" x1="287.880627889" x2="287.911475298" y1="161.122562115" y2="160.20564607" /><line stroke="rgb(0%,0%,0%)" x1="288.931848972" x2="288.873048104" y1="81.7863347434" y2="81.8813117928" /><line stroke="rgb(0%,0%,0%)" x1="288.334724889" x2="292.023533695" y1="162.708401091" y2="172.030829344" /><line stroke="rgb(0%,0%,0%)" x1="292.023533695" x2="291.491337764" y1="172.030829344" y2="172.936309033" /><line stroke="rgb(0%,0%,0%)" x1="293.850649302" x2="295.832304609" y1="135.104414236" y2="131.052968614" /><line stroke="rgb(0%,0%,0%)" x1="293.850649302" x2="289.355688031" y1="135.104414236" y2="144.151481852" /><line stroke="rgb(0%,0%,0%)" x1="297.038414336" x2="298.121353106" y1="128.668995824" y2="123.241140686" /><line stroke="rgb(0%,0%,0%)" x1="297.038414336" x2="295.832304609" y1="128.668995824" y2="131.052968614" /><line stroke="rgb(0%,0%,0%)" x1="299.302639292" x2="298.121353106" y1="118.409737727" y2="123.241140686" /><line stroke="rgb(0%,0%,0%)" x1="288.931848972" x2="288.97090141" y1="81.7863347434" y2="81.7483809396" /><line stroke="rgb(0%,0%,0%)" x1="294.142712279" x2="288.97090141" y1="76.6629686682" y2="81.7483809396" /><line stroke="rgb(0%,0%,0%)" x1="294.142712279" x2="297.022472817" y1="76.6629686682" y2="74.3011495753" /><line stroke="rgb(0%,0%,0%)" x1="317.820521656" x2="306.989476378" y1="80.6544716593" y2="74.9139897346" /><line stroke="rgb(0%,0%,0%)" x1="325.849167688" x2="326.426542618" y1="88.7133953426" y2="89.2630948834" /><line stroke="rgb(0%,0%,0%)" x1="325.849167688" x2="317.820521656" y1="88.7133953426" y2="80.6544716593" /><line stroke="rgb(0%,0%,0%)" x1="336.040187517" x2="335.264065796" y1="97.1335621432" y2="96.3962878649" /><line stroke="rgb(0%,0%,0%)" x1="337.726298706" x2="337.530342805" y1="101.613392559" y2="98.2870846967" /><line stroke="rgb(0%,0%,0%)" x1="337.530342805" x2="336.040187517" y1="98.2870846967" y2="97.1335621432" /><line stroke="rgb(0%,0%,0%)" x1="349.502133168" x2="350.212968495" y1="229.986150578" y2="227.156975239" /><line stroke="rgb(0%,0%,0%)" x1="348.839256481" x2="349.469697974" y1="218.936557782" y2="216.090106423" /><line stroke="rgb(0%,0%,0%)" x1="349.469697974" x2="350.55063099" y1="216.090106423" y2="213.653936672" /><line stroke="rgb(0%,0%,0%)" x1="350.55063099" x2="351.825143739" y1="213.653936672" y2="209.834739346" /><line stroke="rgb(0%,0%,0%)" x1="275.419536214" x2="270.142457685" y1="192.205184623" y2="195.861044345" /><line stroke="rgb(0%,0%,0%)" x1="276.825860418" x2="275.419536214" y1="188.716295066" y2="192.205184623" /><line stroke="rgb(0%,0%,0%)" x1="276.825860418" x2="287.512141873" y1="188.716295066" y2="177.556411" /><line stroke="rgb(0%,0%,0%)" x1="291.491337764" x2="287.512141873" y1="172.936309033" y2="177.556411" /><line stroke="rgb(0%,0%,0%)" x1="287.911475298" x2="288.223261797" y1="160.20564607" y2="156.354354688" /><line stroke="rgb(0%,0%,0%)" x1="288.12449075" x2="288.223261797" y1="150.681930896" y2="156.354354688" /><line stroke="rgb(0%,0%,0%)" x1="289.355688031" x2="288.71043542" y1="144.151481852" y2="147.502223397" /><line stroke="rgb(0%,0%,0%)" x1="288.71043542" x2="288.12449075" y1="147.502223397" y2="150.681930896" /><line stroke="rgb(0%,0%,0%)" x1="286.447842778" x2="286.946233588" y1="86.8035890214" y2="93.6560981685" /><line stroke="rgb(0%,0%,0%)" x1="286.946233588" x2="287.228468364" y1="93.6560981685" y2="94.2191076623" /><line stroke="rgb(0%,0%,0%)" x1="296.726642122" x2="296.931498407" y1="108.349658173" y2="108.713343115" /><line stroke="rgb(0%,0%,0%)" x1="296.931498407" x2="299.302639292" y1="108.713343115" y2="118.409737727" /><line stroke="rgb(0%,0%,0%)" x1="296.726642122" x2="295.518338142" y1="108.349658173" y2="106.881685939" /><line stroke="rgb(0%,0%,0%)" x1="290.87786587" x2="295.518338142" y1="101.411541335" y2="106.881685939" /><line stroke="rgb(0%,0%,0%)" x1="290.241046444" x2="290.87786587" y1="100.675312654" y2="101.411541335" /><line stroke="rgb(0%,0%,0%)" x1="290.080938819" x2="290.241046444" y1="100.364644513" y2="100.675312654" /><line stroke="rgb(0%,0%,0%)" x1="288.032042706" x2="290.080938819" y1="95.0272594293" y2="100.364644513" /><line stroke="rgb(0%,0%,0%)" x1="303.47479635" x2="298.053889916" y1="73.6527598457" y2="73.7277444982" /><line stroke="rgb(0%,0%,0%)" x1="298.053889916" x2="297.639530277" y1="73.7277444982" y2="73.9477076872" /><line stroke="rgb(0%,0%,0%)" x1="297.639530277" x2="297.022472817" y1="73.9477076872" y2="74.3011495753" /><line stroke="rgb(0%,0%,0%)" x1="306.989476378" x2="304.730293504" y1="74.9139897346" y2="73.8262618386" /><line stroke="rgb(0%,0%,0%)" x1="304.730293504" x2="303.47479635" y1="73.8262618386" y2="73.6527598457" /><line stroke="rgb(0%,0%,0%)" x1="214.101724103" x2="214.110855543" y1="250.434578151" y2="250.056362617" /><line stroke="rgb(0%,0%,0%)" x1="236.448484437" x2="240.388853983" y1="214.102742681" y2="212.214240735" /><line stroke="rgb(0%,0%,0%)" x1="240.388853983" x2="244.654439664" y1="212.214240735" y2="211.232074314" /><line stroke="rgb(0%,0%,0%)" x1="255.037130623" x2="267.859757416" y1="204.392495253" y2="196.560339941" /><line stroke="rgb(0%,0%,0%)" x1="270.142457685" x2="267.859757416" y1="195.861044345" y2="196.560339941" /><line stroke="rgb(0%,0%,0%)" x1="287.228468364" x2="288.032042706" y1="94.2191076623" y2="95.0272594293" /><line stroke="rgb(0%,0%,0%)" x1="288.873048104" x2="286.447842778" y1="81.8813117928" y2="86.8035890214" /><line stroke="rgb(0%,0%,0%)" x1="199.388581238" x2="199.355020961" y1="265.334513277" y2="265.41590469" /><line stroke="rgb(0%,0%,0%)" x1="199.388581238" x2="199.458251879" y1="265.334513277" y2="265.287546574" /><line stroke="rgb(0%,0%,0%)" x1="206.799817591" x2="206.920344857" y1="259.299515787" y2="259.231075793" /><line stroke="rgb(0%,0%,0%)" x1="206.799817591" x2="204.736406884" y1="259.299515787" y2="260.838168775" /><line stroke="rgb(0%,0%,0%)" x1="204.736406884" x2="203.588871338" y1="260.838168775" y2="260.854722868" /><line stroke="rgb(0%,0%,0%)" x1="213.64884476" x2="209.80457076" y1="253.300280176" y2="256.162585257" /><line stroke="rgb(0%,0%,0%)" x1="214.101724103" x2="214.001817203" y1="250.434578151" y2="250.707727741" /><line stroke="rgb(0%,0%,0%)" x1="214.110855543" x2="214.213154112" y1="250.056362617" y2="249.15193587" /><line stroke="rgb(0%,0%,0%)" x1="214.213154112" x2="215.989830051" y1="249.15193587" y2="240.851970928" /><line stroke="rgb(0%,0%,0%)" x1="217.104104853" x2="215.989830051" y1="235.875722066" y2="240.851970928" /><line stroke="rgb(0%,0%,0%)" x1="236.448484437" x2="232.573120121" y1="214.102742681" y2="217.382149131" /><line stroke="rgb(0%,0%,0%)" x1="228.159410564" x2="218.241516139" y1="222.0217001" y2="233.90410992" /><line stroke="rgb(0%,0%,0%)" x1="218.241516139" x2="217.333739511" y1="233.90410992" y2="235.165292542" /><line stroke="rgb(0%,0%,0%)" x1="231.091061555" x2="228.159410564" y1="218.087358608" y2="222.0217001" /><line stroke="rgb(0%,0%,0%)" x1="232.573120121" x2="231.091061555" y1="217.382149131" y2="218.087358608" /><line stroke="rgb(0%,0%,0%)" x1="245.829599334" x2="244.654439664" y1="210.583741465" y2="211.232074314" /><line stroke="rgb(0%,0%,0%)" x1="255.037130623" x2="245.829599334" y1="204.392495253" y2="210.583741465" /><line stroke="rgb(0%,0%,0%)" x1="194.572945211" x2="190.027241369" y1="267.136696518" y2="269.608526025" /><line stroke="rgb(0%,0%,0%)" x1="190.027241369" x2="188.57758618" y1="269.608526025" y2="270.954155031" /><line stroke="rgb(0%,0%,0%)" x1="199.235493737" x2="199.024734442" y1="265.445807332" y2="265.459336582" /><line stroke="rgb(0%,0%,0%)" x1="199.235493737" x2="199.355020961" y1="265.445807332" y2="265.41590469" /><line stroke="rgb(0%,0%,0%)" x1="199.024734442" x2="194.572945211" y1="265.459336582" y2="267.136696518" /><line stroke="rgb(0%,0%,0%)" x1="203.588871338" x2="199.458251879" y1="260.854722868" y2="265.287546574" /><line stroke="rgb(0%,0%,0%)" x1="206.920344857" x2="208.062298826" y1="259.231075793" y2="257.880025549" /><line stroke="rgb(0%,0%,0%)" x1="209.057526363" x2="208.062298826" y1="256.889553891" y2="257.880025549" /><line stroke="rgb(0%,0%,0%)" x1="209.199132636" x2="209.057526363" y1="256.815386188" y2="256.889553891" /><line stroke="rgb(0%,0%,0%)" x1="209.415383762" x2="209.199132636" y1="256.504399053" y2="256.815386188" /><line stroke="rgb(0%,0%,0%)" x1="209.80457076" x2="209.415383762" y1="256.162585257" y2="256.504399053" /><line stroke="rgb(0%,0%,0%)" x1="214.001817203" x2="213.64884476" y1="250.707727741" y2="253.300280176" /><line stroke="rgb(0%,0%,0%)" x1="217.246547679" x2="217.104104853" y1="235.439278873" y2="235.875722066" /><line stroke="rgb(0%,0%,0%)" x1="217.333739511" x2="217.246547679" y1="235.165292542" y2="235.439278873" /><line stroke="rgb(0%,0%,0%)" x1="151.17753414" x2="143.299577541" y1="285.688453392" y2="285.814032793" /><line stroke="rgb(0%,0%,0%)" x1="151.17753414" x2="151.747732742" y1="285.688453392" y2="285.556029585" /><line stroke="rgb(0%,0%,0%)" x1="143.299577541" x2="139.612691052" y1="285.814032793" y2="285.987208513" /><line stroke="rgb(0%,0%,0%)" x1="139.612691052" x2="130.540053001" y1="285.987208513" y2="286.642261134" /><line stroke="rgb(0%,0%,0%)" x1="171.312197492" x2="151.747732742" y1="279.169020125" y2="285.556029585" /><line stroke="rgb(0%,0%,0%)" x1="171.312197492" x2="176.078556946" y1="279.169020125" y2="276.80568591" /><line stroke="rgb(0%,0%,0%)" x1="177.26698508" x2="176.078556946" y1="275.876543736" y2="276.80568591" /><line stroke="rgb(0%,0%,0%)" x1="181.250129259" x2="188.57758618" y1="274.736518386" y2="270.954155031" /><line stroke="rgb(0%,0%,0%)" x1="181.250129259" x2="177.26698508" y1="274.736518386" y2="275.876543736" /><line stroke="rgb(0%,0%,0%)" x1="130.540053001" x2="123.7407972" y1="286.642261134" y2="288.475737113" /><line stroke="rgb(0%,0%,0%)" x1="78.6089134445" x2="77.9509584253" y1="306.315395683" y2="306.618671458" /><line stroke="rgb(0%,0%,0%)" x1="78.6089134445" x2="79.5645212237" y1="306.315395683" y2="305.495819357" /><line stroke="rgb(0%,0%,0%)" x1="89.2719603143" x2="98.6969836703" y1="300.085711232" y2="297.916817707" /><line stroke="rgb(0%,0%,0%)" x1="98.8251752834" x2="98.7821954898" y1="297.889639521" y2="297.901271936" /><line stroke="rgb(0%,0%,0%)" x1="106.606906298" x2="98.8251752834" y1="294.856349308" y2="297.889639521" /><line stroke="rgb(0%,0%,0%)" x1="98.7821954898" x2="98.6969836703" y1="297.901271936" y2="297.916817707" /><line stroke="rgb(0%,0%,0%)" x1="106.606906298" x2="117.678899313" y1="294.856349308" y2="290.938396935" /><line stroke="rgb(0%,0%,0%)" x1="123.7407972" x2="117.678899313" y1="288.475737113" y2="290.938396935" /><line stroke="rgb(0%,0%,0%)" x1="56.6839513909" x2="54.3684328053" y1="338.828486663" y2="340.222266572" /><line stroke="rgb(0%,0%,0%)" x1="56.6839513909" x2="61.1719536257" y1="338.828486663" y2="337.159100642" /><line stroke="rgb(0%,0%,0%)" x1="62.8776280532" x2="61.1719536257" y1="335.035124534" y2="337.159100642" /><line stroke="rgb(0%,0%,0%)" x1="63.2623403597" x2="63.2635854338" y1="322.728259411" y2="324.419870461" /><line stroke="rgb(0%,0%,0%)" x1="62.8776280532" x2="64.1694330702" y1="335.035124534" y2="332.780605721" /><line stroke="rgb(0%,0%,0%)" x1="64.1694330702" x2="63.2635854338" y1="332.780605721" y2="324.419870461" /><line stroke="rgb(0%,0%,0%)" x1="70.0039899404" x2="64.4388172117" y1="312.42216372" y2="321.03821479" /><line stroke="rgb(0%,0%,0%)" x1="64.4388172117" x2="63.6527430776" y1="321.03821479" y2="322.290437032" /><line stroke="rgb(0%,0%,0%)" x1="73.2496691816" x2="70.0039899404" y1="310.680464355" y2="312.42216372" /><line stroke="rgb(0%,0%,0%)" x1="77.9509584253" x2="77.3718961177" y1="306.618671458" y2="307.313697535" /><line stroke="rgb(0%,0%,0%)" x1="77.3718961177" x2="73.2496691816" y1="307.313697535" y2="310.680464355" /><line stroke="rgb(0%,0%,0%)" x1="89.2719603143" x2="79.5645212237" y1="300.085711232" y2="305.495819357" /><line stroke="rgb(0%,0%,0%)" x1="24.8661855571" x2="23.3943171627" y1="430.379243845" y2="431.564902853" /><line stroke="rgb(0%,0%,0%)" x1="24.8661855571" x2="24.5963270389" y1="430.379243845" y2="428.707816112" /><line stroke="rgb(0%,0%,0%)" x1="38.8164111526" x2="37.1021214202" y1="396.847885688" y2="398.156636024" /><line stroke="rgb(0%,0%,0%)" x1="37.1021214202" x2="33.4302485676" y1="398.156636024" y2="398.163541326" /><line stroke="rgb(0%,0%,0%)" x1="25.2231882217" x2="21.5134546439" y1="408.843062629" y2="416.265768054" /><line stroke="rgb(0%,0%,0%)" x1="25.2231882217" x2="29.1031768936" y1="408.843062629" y2="401.19506141" /><line stroke="rgb(0%,0%,0%)" x1="38.8164111526" x2="38.9332245729" y1="396.847885688" y2="396.470119674" /><line stroke="rgb(0%,0%,0%)" x1="37.956588848" x2="38.0944016286" y1="391.041078332" y2="391.204369188" /><line stroke="rgb(0%,0%,0%)" x1="38.0944016286" x2="38.9332245729" y1="391.204369188" y2="396.470119674" /><line stroke="rgb(0%,0%,0%)" x1="37.956588848" x2="37.7165161051" y1="391.041078332" y2="390.540283871" /><line stroke="rgb(0%,0%,0%)" x1="34.1526438246" x2="37.7165161051" y1="381.542259758" y2="390.540283871" /><line stroke="rgb(0%,0%,0%)" x1="34.1526438246" x2="34.0103450469" y1="381.542259758" y2="380.21879545" /><line stroke="rgb(0%,0%,0%)" x1="32.6470464235" x2="34.0103450469" y1="374.703123399" y2="380.21879545" /><line stroke="rgb(0%,0%,0%)" x1="38.162775511" x2="36.2469151814" y1="359.937598322" y2="364.225411252" /><line stroke="rgb(0%,0%,0%)" x1="36.2469151814" x2="34.1012501122" y1="364.225411252" y2="370.844220961" /><line stroke="rgb(0%,0%,0%)" x1="34.1012501122" x2="32.6470464235" y1="370.844220961" y2="374.703123399" /><line stroke="rgb(0%,0%,0%)" x1="39.3516157835" x2="38.162775511" y1="358.084217652" y2="359.937598322" /><line stroke="rgb(0%,0%,0%)" x1="39.3516157835" x2="40.9293583794" y1="358.084217652" y2="355.175672492" /><line stroke="rgb(0%,0%,0%)" x1="45.7194827457" x2="40.9293583794" y1="349.461429525" y2="355.175672492" /><line stroke="rgb(0%,0%,0%)" x1="49.522642601" x2="45.7194827457" y1="345.206900791" y2="349.461429525" /><line stroke="rgb(0%,0%,0%)" x1="54.3684328053" x2="49.522642601" y1="340.222266572" y2="345.206900791" /><line stroke="rgb(0%,0%,0%)" x1="63.518167326" x2="63.2623403597" y1="322.49620262" y2="322.728259411" /><line stroke="rgb(0%,0%,0%)" x1="63.6527430776" x2="63.518167326" y1="322.290437032" y2="322.49620262" /><line stroke="rgb(0%,0%,0%)" x1="14.8456100127" x2="13.434829353" y1="452.502969348" y2="448.274720708" /><line stroke="rgb(0%,0%,0%)" x1="14.8456100127" x2="18.2431784712" y1="452.502969348" y2="455.487322741" /><line stroke="rgb(0%,0%,0%)" x1="16.6718664731" x2="13.4413787986" y1="441.529863149" y2="447.087192833" /><line stroke="rgb(0%,0%,0%)" x1="13.4413787986" x2="13.434829353" y1="447.087192833" y2="448.274720708" /><line stroke="rgb(0%,0%,0%)" x1="18.8051490353" x2="19.1986083941" y1="458.815817268" y2="461.000937193" /><line stroke="rgb(0%,0%,0%)" x1="18.2431784712" x2="18.8051490353" y1="455.487322741" y2="458.815817268" /><line stroke="rgb(0%,0%,0%)" x1="17.4901603052" x2="16.6718664731" y1="436.464778804" y2="441.529863149" /><line stroke="rgb(0%,0%,0%)" x1="23.3943171627" x2="22.44463928" y1="431.564902853" y2="432.637784484" /><line stroke="rgb(0%,0%,0%)" x1="22.44463928" x2="19.5049857658" y1="432.637784484" y2="434.455488968" /><line stroke="rgb(0%,0%,0%)" x1="24.539518307" x2="24.5963270389" y1="427.211516547" y2="428.707816112" /><line stroke="rgb(0%,0%,0%)" x1="22.0908008986" x2="24.539518307" y1="421.422988793" y2="427.211516547" /><line stroke="rgb(0%,0%,0%)" x1="21.5134546439" x2="22.0908008986" y1="416.265768054" y2="421.422988793" /><line stroke="rgb(0%,0%,0%)" x1="30.0044869613" x2="29.1031768936" y1="399.42615317" y2="401.19506141" /><line stroke="rgb(0%,0%,0%)" x1="33.4302485676" x2="30.0044869613" y1="398.163541326" y2="399.42615317" /><line stroke="rgb(0%,0%,0%)" x1="516.735208779" x2="515.176678634" y1="515.302284264" y2="522.791372552" /><line stroke="rgb(0%,0%,0%)" x1="516.735208779" x2="518.288501504" y1="515.302284264" y2="510.628242048" /><line stroke="rgb(0%,0%,0%)" x1="526.509075303" x2="520.590818756" y1="491.920191886" y2="505.799031403" /><line stroke="rgb(0%,0%,0%)" x1="528.982394621" x2="527.390409541" y1="474.803284739" y2="484.759186953" /><line stroke="rgb(0%,0%,0%)" x1="528.982394621" x2="528.493856511" y1="474.803284739" y2="469.08337697" /><line stroke="rgb(0%,0%,0%)" x1="528.493856511" x2="527.43075765" y1="469.08337697" y2="462.503018963" /><line stroke="rgb(0%,0%,0%)" x1="461.17897582" x2="461.758023961" y1="316.083697395" y2="317.353970029" /><line stroke="rgb(0%,0%,0%)" x1="461.17897582" x2="460.419784004" y1="316.083697395" y2="314.700593559" /><line stroke="rgb(0%,0%,0%)" x1="480.767493481" x2="478.21228215" y1="347.556903394" y2="344.325770043" /><line stroke="rgb(0%,0%,0%)" x1="489.814209189" x2="489.923227953" y1="355.831972372" y2="355.919179836" /><line stroke="rgb(0%,0%,0%)" x1="493.631968685" x2="500.045942578" y1="362.20901712" y2="370.733384026" /><line stroke="rgb(0%,0%,0%)" x1="492.816238223" x2="489.923227953" y1="359.327529628" y2="355.919179836" /><line stroke="rgb(0%,0%,0%)" x1="489.814209189" x2="489.691989637" y1="355.831972372" y2="355.708149919" /><line stroke="rgb(0%,0%,0%)" x1="489.691989637" x2="480.767493481" y1="355.708149919" y2="347.556903394" /><line stroke="rgb(0%,0%,0%)" x1="501.432310547" x2="507.608742217" y1="552.782649741" y2="539.643473435" /><line stroke="rgb(0%,0%,0%)" x1="508.200356296" x2="507.608742217" y1="537.753098185" y2="539.643473435" /><line stroke="rgb(0%,0%,0%)" x1="510.385984425" x2="508.200356296" y1="533.821187999" y2="537.753098185" /><line stroke="rgb(0%,0%,0%)" x1="512.078399909" x2="515.176678634" y1="530.54661353" y2="522.791372552" /><line stroke="rgb(0%,0%,0%)" x1="510.385984425" x2="512.078399909" y1="533.821187999" y2="530.54661353" /><line stroke="rgb(0%,0%,0%)" x1="519.942454254" x2="520.590818756" y1="507.401114826" y2="505.799031403" /><line stroke="rgb(0%,0%,0%)" x1="526.509075303" x2="526.91898547" y1="491.920191886" y2="489.086338662" /><line stroke="rgb(0%,0%,0%)" x1="526.91898547" x2="527.390409541" y1="489.086338662" y2="484.759186953" /><line stroke="rgb(0%,0%,0%)" x1="448.859567951" x2="443.856489995" y1="303.02601772" y2="297.912389735" /><line stroke="rgb(0%,0%,0%)" x1="459.678767536" x2="460.419784004" y1="314.047269348" y2="314.700593559" /><line stroke="rgb(0%,0%,0%)" x1="476.698590653" x2="478.21228215" y1="340.833370401" y2="344.325770043" /><line stroke="rgb(0%,0%,0%)" x1="476.698590653" x2="473.451948113" y1="340.833370401" y2="337.104455994" /><line stroke="rgb(0%,0%,0%)" x1="473.451948113" x2="470.827158663" y1="337.104455994" y2="332.439978862" /><line stroke="rgb(0%,0%,0%)" x1="493.631968685" x2="492.816238223" y1="362.20901712" y2="359.327529628" /><line stroke="rgb(0%,0%,0%)" x1="518.288501504" x2="519.942454254" y1="510.628242048" y2="507.401114826" /><line stroke="rgb(0%,0%,0%)" x1="428.431060399" x2="418.593126081" y1="639.832379277" y2="645.425332611" /><line stroke="rgb(0%,0%,0%)" x1="428.431060399" x2="430.859981231" y1="639.832379277" y2="638.256802877" /><line stroke="rgb(0%,0%,0%)" x1="430.859981231" x2="433.57572153" y1="638.256802877" y2="635.951121651" /><line stroke="rgb(0%,0%,0%)" x1="438.592503601" x2="437.461521998" y1="293.392935703" y2="291.888685914" /><line stroke="rgb(0%,0%,0%)" x1="437.461521998" x2="435.261147325" y1="291.888685914" y2="290.207618554" /><line stroke="rgb(0%,0%,0%)" x1="449.829598335" x2="448.859567951" y1="304.241276849" y2="303.02601772" /><line stroke="rgb(0%,0%,0%)" x1="443.856489995" x2="438.592503601" y1="297.912389735" y2="293.392935703" /><line stroke="rgb(0%,0%,0%)" x1="467.692603611" x2="467.183944543" y1="328.779341947" y2="327.215509898" /><line stroke="rgb(0%,0%,0%)" x1="467.183944543" x2="463.029625441" y1="327.215509898" y2="320.724055062" /><line stroke="rgb(0%,0%,0%)" x1="463.029625441" x2="461.758023961" y1="320.724055062" y2="317.353970029" /><line stroke="rgb(0%,0%,0%)" x1="459.678767536" x2="449.829598335" y1="314.047269348" y2="304.241276849" /><line stroke="rgb(0%,0%,0%)" x1="470.827158663" x2="467.692603611" y1="332.439978862" y2="328.779341947" /><line stroke="rgb(0%,0%,0%)" x1="397.313559588" x2="404.197812986" y1="654.47469142" y2="652.158031016" /><line stroke="rgb(0%,0%,0%)" x1="409.851476187" x2="404.197812986" y1="649.62385649" y2="652.158031016" /><line stroke="rgb(0%,0%,0%)" x1="409.851476187" x2="412.721660554" y1="649.62385649" y2="648.68269636" /><line stroke="rgb(0%,0%,0%)" x1="412.721660554" x2="413.123334736" y1="648.68269636" y2="648.433785528" /><line stroke="rgb(0%,0%,0%)" x1="413.123334736" x2="418.593126081" y1="648.433785528" y2="645.425332611" /><line stroke="rgb(0%,0%,0%)" x1="433.57572153" x2="435.959451927" y1="635.951121651" y2="633.879136786" /><line stroke="rgb(0%,0%,0%)" x1="341.55883285" x2="344.293628567" y1="849.07603539" y2="846.183641371" /><line stroke="rgb(0%,0%,0%)" x1="359.022372064" x2="352.986998325" y1="715.838694887" y2="706.463755934" /><line stroke="rgb(0%,0%,0%)" x1="351.84232751" x2="353.692990163" y1="701.748095527" y2="686.022192676" /><line stroke="rgb(0%,0%,0%)" x1="365.756372839" x2="363.014582859" y1="810.639706379" y2="814.768599937" /><line stroke="rgb(0%,0%,0%)" x1="365.756372839" x2="366.501282704" y1="810.639706379" y2="806.066246207" /><line stroke="rgb(0%,0%,0%)" x1="366.501282704" x2="366.013773021" y1="806.066246207" y2="803.088812572" /><line stroke="rgb(0%,0%,0%)" x1="364.349273635" x2="364.909679586" y1="799.452549269" y2="795.485981214" /><line stroke="rgb(0%,0%,0%)" x1="366.013773021" x2="364.349273635" y1="803.088812572" y2="799.452549269" /><line stroke="rgb(0%,0%,0%)" x1="369.805853019" x2="368.263068049" y1="778.069317559" y2="782.847628942" /><line stroke="rgb(0%,0%,0%)" x1="365.329215717" x2="368.263068049" y1="792.745571462" y2="782.847628942" /><line stroke="rgb(0%,0%,0%)" x1="369.72242872" x2="369.401646095" y1="775.159610516" y2="766.8170212" /><line stroke="rgb(0%,0%,0%)" x1="369.72242872" x2="369.805853019" y1="775.159610516" y2="778.069317559" /><line stroke="rgb(0%,0%,0%)" x1="369.016654011" x2="369.401646095" y1="765.582905594" y2="766.8170212" /><line stroke="rgb(0%,0%,0%)" x1="365.834288208" x2="365.731494381" y1="752.71115707" y2="751.969738634" /><line stroke="rgb(0%,0%,0%)" x1="365.921089857" x2="365.132935558" y1="750.161064554" y2="747.215025908" /><line stroke="rgb(0%,0%,0%)" x1="365.731494381" x2="365.921089857" y1="751.969738634" y2="750.161064554" /><line stroke="rgb(0%,0%,0%)" x1="365.132935558" x2="364.033994217" y1="747.215025908" y2="740.544081283" /><line stroke="rgb(0%,0%,0%)" x1="364.150314137" x2="364.033994217" y1="735.687143866" y2="740.544081283" /><line stroke="rgb(0%,0%,0%)" x1="362.324239908" x2="362.457079441" y1="721.537350214" y2="723.102856246" /><line stroke="rgb(0%,0%,0%)" x1="362.324239908" x2="361.263782661" y1="721.537350214" y2="719.021536382" /><line stroke="rgb(0%,0%,0%)" x1="377.182442377" x2="370.140006699" y1="663.322608257" y2="665.163070235" /><line stroke="rgb(0%,0%,0%)" x1="364.014645972" x2="370.140006699" y1="667.878740757" y2="665.163070235" /><line stroke="rgb(0%,0%,0%)" x1="377.182442377" x2="382.264596992" y1="663.322608257" y2="661.038088693" /><line stroke="rgb(0%,0%,0%)" x1="382.264596992" x2="386.687212428" y1="661.038088693" y2="658.075815383" /><line stroke="rgb(0%,0%,0%)" x1="386.687212428" x2="397.313559588" y1="658.075815383" y2="654.47469142" /><line stroke="rgb(0%,0%,0%)" x1="335.233470299" x2="341.55883285" y1="853.863499993" y2="849.07603539" /><line stroke="rgb(0%,0%,0%)" x1="335.233470299" x2="329.521775558" y1="853.863499993" y2="856.481369228" /><line stroke="rgb(0%,0%,0%)" x1="344.293628567" x2="347.831783568" y1="846.183641371" y2="843.506562959" /><line stroke="rgb(0%,0%,0%)" x1="347.831783568" x2="350.127621511" y1="843.506562959" y2="840.021893396" /><line stroke="rgb(0%,0%,0%)" x1="350.127621511" x2="350.298936779" y1="840.021893396" y2="837.331689527" /><line stroke="rgb(0%,0%,0%)" x1="350.298936779" x2="355.173894829" y1="837.331689527" y2="832.972291484" /><line stroke="rgb(0%,0%,0%)" x1="358.293070695" x2="357.083208184" y1="827.7001127" y2="830.577382555" /><line stroke="rgb(0%,0%,0%)" x1="358.293070695" x2="359.286775786" y1="827.7001127" y2="823.037266297" /><line stroke="rgb(0%,0%,0%)" x1="351.84232751" x2="352.640787621" y1="701.748095527" y2="705.981919863" /><line stroke="rgb(0%,0%,0%)" x1="353.692990163" x2="354.023200332" y1="686.022192676" y2="684.18189315" /><line stroke="rgb(0%,0%,0%)" x1="354.023200332" x2="352.985730435" y1="684.18189315" y2="679.611627565" /><line stroke="rgb(0%,0%,0%)" x1="352.667119693" x2="352.985730435" y1="678.725743444" y2="679.611627565" /><line stroke="rgb(0%,0%,0%)" x1="352.667119693" x2="353.077109022" y1="678.725743444" y2="677.76549319" /><line stroke="rgb(0%,0%,0%)" x1="353.077109022" x2="355.50239151" y1="677.76549319" y2="674.355237673" /><line stroke="rgb(0%,0%,0%)" x1="355.50239151" x2="356.270414007" y1="674.355237673" y2="672.64190587" /><line stroke="rgb(0%,0%,0%)" x1="356.270414007" x2="359.373440592" y1="672.64190587" y2="669.7574992" /><line stroke="rgb(0%,0%,0%)" x1="359.373440592" x2="364.014645972" y1="669.7574992" y2="667.878740757" /><line stroke="rgb(0%,0%,0%)" x1="355.173894829" x2="355.843871962" y1="832.972291484" y2="831.99002555" /><line stroke="rgb(0%,0%,0%)" x1="355.843871962" x2="357.083208184" y1="831.99002555" y2="830.577382555" /><line stroke="rgb(0%,0%,0%)" x1="359.286775786" x2="361.232750773" y1="823.037266297" y2="818.793736746" /><line stroke="rgb(0%,0%,0%)" x1="361.232750773" x2="362.424034912" y1="818.793736746" y2="817.254246148" /><line stroke="rgb(0%,0%,0%)" x1="362.424034912" x2="363.014582859" y1="817.254246148" y2="814.768599937" /><line stroke="rgb(0%,0%,0%)" x1="364.909679586" x2="365.329215717" y1="795.485981214" y2="792.745571462" /><line stroke="rgb(0%,0%,0%)" x1="369.016654011" x2="365.834288208" y1="765.582905594" y2="752.71115707" /><line stroke="rgb(0%,0%,0%)" x1="364.150314137" x2="361.796931094" y1="735.687143866" y2="724.9763643" /><line stroke="rgb(0%,0%,0%)" x1="361.796931094" x2="362.457079441" y1="724.9763643" y2="723.102856246" /><line stroke="rgb(0%,0%,0%)" x1="361.263782661" x2="360.218964204" y1="719.021536382" y2="718.539061598" /><line stroke="rgb(0%,0%,0%)" x1="360.218964204" x2="359.022372064" y1="718.539061598" y2="715.838694887" /><line stroke="rgb(0%,0%,0%)" x1="324.285546842" x2="327.885428953" y1="854.088889464" y2="856.929979107" /><line stroke="rgb(0%,0%,0%)" x1="324.285546842" x2="320.203741584" y1="854.088889464" y2="851.595789856" /><line stroke="rgb(0%,0%,0%)" x1="319.328260899" x2="320.203741584" y1="850.996422214" y2="851.595789856" /><line stroke="rgb(0%,0%,0%)" x1="328.171510686" x2="329.521775558" y1="857.030975011" y2="856.481369228" /><line stroke="rgb(0%,0%,0%)" x1="352.986998325" x2="352.640787621" y1="706.463755934" y2="705.981919863" /><line stroke="rgb(0%,0%,0%)" x1="250.792297299" x2="250.952166089" y1="716.927648437" y2="716.959884488" /><line stroke="rgb(0%,0%,0%)" x1="274.602614356" x2="276.629274175" y1="729.129670811" y2="730.136483211" /><line stroke="rgb(0%,0%,0%)" x1="327.885428953" x2="328.074036368" y1="856.929979107" y2="857.016108188" /><line stroke="rgb(0%,0%,0%)" x1="328.074036368" x2="328.171510686" y1="857.016108188" y2="857.030975011" /><line stroke="rgb(0%,0%,0%)" x1="203.001506667" x2="203.946660142" y1="664.269848565" y2="664.74881473" /><line stroke="rgb(0%,0%,0%)" x1="203.001506667" x2="202.554416077" y1="664.269848565" y2="663.58500737" /><line stroke="rgb(0%,0%,0%)" x1="212.320557574" x2="213.112043963" y1="684.073355211" y2="685.630146657" /><line stroke="rgb(0%,0%,0%)" x1="212.320557574" x2="212.007349659" y1="684.073355211" y2="682.263382026" /><line stroke="rgb(0%,0%,0%)" x1="210.042704796" x2="212.007349659" y1="669.480269807" y2="682.263382026" /><line stroke="rgb(0%,0%,0%)" x1="209.733904131" x2="210.042704796" y1="669.038047209" y2="669.480269807" /><line stroke="rgb(0%,0%,0%)" x1="220.996099797" x2="224.099658455" y1="697.487476966" y2="700.504769893" /><line stroke="rgb(0%,0%,0%)" x1="239.182993834" x2="234.736728249" y1="713.917956203" y2="711.442255175" /><line stroke="rgb(0%,0%,0%)" x1="228.588720158" x2="231.934685594" y1="706.518046308" y2="709.25926158" /><line stroke="rgb(0%,0%,0%)" x1="224.099658455" x2="228.588720158" y1="700.504769893" y2="706.518046308" /><line stroke="rgb(0%,0%,0%)" x1="239.182993834" x2="247.031962756" y1="713.917956203" y2="715.562105474" /><line stroke="rgb(0%,0%,0%)" x1="247.031962756" x2="250.792297299" y1="715.562105474" y2="716.927648437" /><line stroke="rgb(0%,0%,0%)" x1="231.934685594" x2="234.736728249" y1="709.25926158" y2="711.442255175" /><line stroke="rgb(0%,0%,0%)" x1="173.236948887" x2="184.466493279" y1="646.000262891" y2="651.960063365" /><line stroke="rgb(0%,0%,0%)" x1="184.466493279" x2="190.780212439" y1="651.960063365" y2="655.691588593" /><line stroke="rgb(0%,0%,0%)" x1="193.514636528" x2="195.666946064" y1="656.730976309" y2="658.125938901" /><line stroke="rgb(0%,0%,0%)" x1="195.666946064" x2="196.688751108" y1="658.125938901" y2="658.708249475" /><line stroke="rgb(0%,0%,0%)" x1="193.514636528" x2="190.780212439" y1="656.730976309" y2="655.691588593" /><line stroke="rgb(0%,0%,0%)" x1="203.946660142" x2="209.733904131" y1="664.74881473" y2="669.038047209" /><line stroke="rgb(0%,0%,0%)" x1="202.000343797" x2="202.554416077" y1="662.52787733" y2="663.58500737" /><line stroke="rgb(0%,0%,0%)" x1="202.000343797" x2="200.301713308" y1="662.52787733" y2="661.954341902" /><line stroke="rgb(0%,0%,0%)" x1="199.438514008" x2="200.301713308" y1="661.079752926" y2="661.954341902" /><line stroke="rgb(0%,0%,0%)" x1="196.688751108" x2="199.438514008" y1="658.708249475" y2="661.079752926" /><line stroke="rgb(0%,0%,0%)" x1="213.112043963" x2="220.996099797" y1="685.630146657" y2="697.487476966" /><line stroke="rgb(0%,0%,0%)" x1="142.763807737" x2="140.825048015" y1="634.693118606" y2="634.733099915" /><line stroke="rgb(0%,0%,0%)" x1="173.236948887" x2="166.999108025" y1="646.000262891" y2="640.959943041" /><line stroke="rgb(0%,0%,0%)" x1="142.763807737" x2="153.567373684" y1="634.693118606" y2="635.377155046" /><line stroke="rgb(0%,0%,0%)" x1="153.567373684" x2="155.918929798" y1="635.377155046" y2="636.292329011" /><line stroke="rgb(0%,0%,0%)" x1="155.918929798" x2="166.237949564" y1="636.292329011" y2="640.475768872" /><line stroke="rgb(0%,0%,0%)" x1="166.237949564" x2="166.999108025" y1="640.475768872" y2="640.959943041" /><line stroke="rgb(0%,0%,0%)" x1="110.200613886" x2="101.772488605" y1="629.234386133" y2="625.922937881" /><line stroke="rgb(0%,0%,0%)" x1="124.557658678" x2="120.266854369" y1="633.321286762" y2="632.181958138" /><line stroke="rgb(0%,0%,0%)" x1="112.569553154" x2="120.266854369" y1="629.904463762" y2="632.181958138" /><line stroke="rgb(0%,0%,0%)" x1="110.200613886" x2="112.569553154" y1="629.234386133" y2="629.904463762" /><line stroke="rgb(0%,0%,0%)" x1="125.625860527" x2="128.597712893" y1="633.159272625" y2="633.974166454" /><line stroke="rgb(0%,0%,0%)" x1="125.625860527" x2="124.557658678" y1="633.159272625" y2="633.321286762" /><line stroke="rgb(0%,0%,0%)" x1="128.597712893" x2="140.825048015" y1="633.974166454" y2="634.733099915" /><line stroke="rgb(0%,0%,0%)" x1="74.0875518913" x2="77.660829553" y1="617.649241767" y2="618.68640456" /><line stroke="rgb(0%,0%,0%)" x1="70.5901270831" x2="74.0875518913" y1="615.18266173" y2="617.649241767" /><line stroke="rgb(0%,0%,0%)" x1="80.8827989104" x2="77.660829553" y1="620.827882146" y2="618.68640456" /><line stroke="rgb(0%,0%,0%)" x1="86.2229221923" x2="88.4502685275" y1="624.151381623" y2="624.50098255" /><line stroke="rgb(0%,0%,0%)" x1="85.3054690693" x2="86.2229221923" y1="624.018518774" y2="624.151381623" /><line stroke="rgb(0%,0%,0%)" x1="80.8827989104" x2="85.3054690693" y1="620.827882146" y2="624.018518774" /><line stroke="rgb(0%,0%,0%)" x1="97.9364471406" x2="101.772488605" y1="625.234055981" y2="625.922937881" /><line stroke="rgb(0%,0%,0%)" x1="88.4502685275" x2="97.9364471406" y1="624.50098255" y2="625.234055981" /><line stroke="rgb(0%,0%,0%)" x1="16.5860009089" x2="16.6346841269" y1="486.808814203" y2="486.876508884" /><line stroke="rgb(0%,0%,0%)" x1="40.1151062036" x2="38.9681123138" y1="563.922178174" y2="562.197228442" /><line stroke="rgb(0%,0%,0%)" x1="34.9281659013" x2="35.1574255967" y1="540.58474397" y2="539.681688802" /><line stroke="rgb(0%,0%,0%)" x1="34.9281659013" x2="34.4391404019" y1="540.58474397" y2="541.602152817" /><line stroke="rgb(0%,0%,0%)" x1="35.1574255967" x2="36.1180225938" y1="539.681688802" y2="536.891964335" /><line stroke="rgb(0%,0%,0%)" x1="36.4415794666" x2="37.2154093502" y1="524.87994273" y2="529.806591326" /><line stroke="rgb(0%,0%,0%)" x1="20.5099410942" x2="27.4337871517" y1="507.189985981" y2="518.603305336" /><line stroke="rgb(0%,0%,0%)" x1="23.9423738675" x2="22.4238684549" y1="494.472655159" y2="496.405026186" /><line stroke="rgb(0%,0%,0%)" x1="23.9423738675" x2="24.0141558067" y1="494.472655159" y2="493.020110429" /><line stroke="rgb(0%,0%,0%)" x1="22.9981390847" x2="24.0141558067" y1="490.978228917" y2="493.020110429" /><line stroke="rgb(0%,0%,0%)" x1="49.2863275693" x2="51.526327619" y1="577.690196377" y2="581.352658781" /><line stroke="rgb(0%,0%,0%)" x1="44.2219015875" x2="49.2863275693" y1="571.286731059" y2="577.690196377" /><line stroke="rgb(0%,0%,0%)" x1="40.6784198944" x2="40.1151062036" y1="564.786367516" y2="563.922178174" /><line stroke="rgb(0%,0%,0%)" x1="40.6784198944" x2="44.2219015875" y1="564.786367516" y2="571.286731059" /><line stroke="rgb(0%,0%,0%)" x1="63.52883933" x2="64.5682321365" y1="610.050288572" y2="611.028602235" /><line stroke="rgb(0%,0%,0%)" x1="60.4693067123" x2="63.52883933" y1="605.324462066" y2="610.050288572" /><line stroke="rgb(0%,0%,0%)" x1="57.4541914307" x2="60.4693067123" y1="601.461598044" y2="605.324462066" /><line stroke="rgb(0%,0%,0%)" x1="57.4541914307" x2="55.9789805417" y1="601.461598044" y2="592.283294373" /><line stroke="rgb(0%,0%,0%)" x1="55.3937597058" x2="55.9789805417" y1="591.436325686" y2="592.283294373" /><line stroke="rgb(0%,0%,0%)" x1="55.3937597058" x2="52.3363230717" y1="591.436325686" y2="583.93546651" /><line stroke="rgb(0%,0%,0%)" x1="52.1670163743" x2="52.3363230717" y1="582.772396165" y2="583.93546651" /><line stroke="rgb(0%,0%,0%)" x1="51.9625814999" x2="52.1670163743" y1="582.508616073" y2="582.772396165" /><line stroke="rgb(0%,0%,0%)" x1="51.526327619" x2="51.9625814999" y1="581.352658781" y2="582.508616073" /><line stroke="rgb(0%,0%,0%)" x1="70.5901270831" x2="68.0457816043" y1="615.18266173" y2="613.311090138" /><line stroke="rgb(0%,0%,0%)" x1="68.0457816043" x2="66.4327374876" y1="613.311090138" y2="612.408299737" /><line stroke="rgb(0%,0%,0%)" x1="65.376370087" x2="66.4327374876" y1="611.418744857" y2="612.408299737" /><line stroke="rgb(0%,0%,0%)" x1="64.5682321365" x2="65.376370087" y1="611.028602235" y2="611.418744857" /><line stroke="rgb(0%,0%,0%)" x1="20.7241357636" x2="20.5099410942" y1="499.810803072" y2="507.189985981" /><line stroke="rgb(0%,0%,0%)" x1="27.4337871517" x2="29.4217115291" y1="518.603305336" y2="521.865615584" /><line stroke="rgb(0%,0%,0%)" x1="22.4238684549" x2="20.7241357636" y1="496.405026186" y2="499.810803072" /><line stroke="rgb(0%,0%,0%)" x1="16.6346841269" x2="16.8060008716" y1="486.876508884" y2="486.98239965" /><line stroke="rgb(0%,0%,0%)" x1="16.8060008716" x2="22.9981390847" y1="486.98239965" y2="490.978228917" /><line stroke="rgb(0%,0%,0%)" x1="14.6255093086" x2="16.5860009089" y1="478.230315455" y2="486.808814203" /><line stroke="rgb(0%,0%,0%)" x1="14.6255093086" x2="13.2059224007" y1="478.230315455" y2="475.929101916" /><line stroke="rgb(0%,0%,0%)" x1="12.7834830189" x2="13.2059224007" y1="471.39081536" y2="475.929101916" /><line stroke="rgb(0%,0%,0%)" x1="12.7834830189" x2="15.2903864349" y1="471.39081536" y2="467.066792865" /><line stroke="rgb(0%,0%,0%)" x1="19.2851397631" x2="15.2903864349" y1="463.672056607" y2="467.066792865" /><line stroke="rgb(0%,0%,0%)" x1="19.1986083941" x2="19.2851397631" y1="461.000937193" y2="463.672056607" /><line stroke="rgb(0%,0%,0%)" x1="37.2856477713" x2="38.9681123138" y1="558.154879135" y2="562.197228442" /><line stroke="rgb(0%,0%,0%)" x1="37.2856477713" x2="36.6851270169" y1="558.154879135" y2="552.256728764" /><line stroke="rgb(0%,0%,0%)" x1="35.4722000841" x2="36.6851270169" y1="549.053853542" y2="552.256728764" /><line stroke="rgb(0%,0%,0%)" x1="35.7132336499" x2="35.4722000841" y1="548.32035486" y2="549.053853542" /><line stroke="rgb(0%,0%,0%)" x1="35.3860196814" x2="35.7132336499" y1="544.269216526" y2="548.32035486" /><line stroke="rgb(0%,0%,0%)" x1="34.4391404019" x2="35.3860196814" y1="541.602152817" y2="544.269216526" /><line stroke="rgb(0%,0%,0%)" x1="37.0872400474" x2="36.1180225938" y1="531.400084855" y2="536.891964335" /><line stroke="rgb(0%,0%,0%)" x1="37.2154093502" x2="37.0872400474" y1="529.806591326" y2="531.400084855" /><line stroke="rgb(0%,0%,0%)" x1="36.4415794666" x2="33.0501358637" y1="524.87994273" y2="523.904840846" /><line stroke="rgb(0%,0%,0%)" x1="29.4217115291" x2="33.0501358637" y1="521.865615584" y2="523.904840846" /><line stroke="rgb(0%,0%,0%)" x1="473.29752274" x2="470.765450376" y1="591.138254335" y2="595.236791667" /><line stroke="rgb(0%,0%,0%)" x1="473.29752274" x2="477.035270018" y1="591.138254335" y2="586.103934295" /><line stroke="rgb(0%,0%,0%)" x1="481.911429974" x2="477.04225714" y1="578.769883457" y2="586.095126793" /><line stroke="rgb(0%,0%,0%)" x1="483.899011094" x2="481.911429974" y1="576.337250204" y2="578.769883457" /><line stroke="rgb(0%,0%,0%)" x1="483.899011094" x2="489.474668347" y1="576.337250204" y2="571.06337938" /><line stroke="rgb(0%,0%,0%)" x1="492.430845059" x2="496.401407074" y1="568.125963393" y2="561.710774396" /><line stroke="rgb(0%,0%,0%)" x1="492.430845059" x2="489.474668347" y1="568.125963393" y2="571.06337938" /><line stroke="rgb(0%,0%,0%)" x1="496.401407074" x2="496.899116383" y1="561.710774396" y2="560.898632274" /><line stroke="rgb(0%,0%,0%)" x1="496.899116383" x2="501.432310547" y1="560.898632274" y2="552.782649741" /><line stroke="rgb(0%,0%,0%)" x1="439.276751084" x2="435.959451927" y1="631.492118338" y2="633.879136786" /><line stroke="rgb(0%,0%,0%)" x1="439.276751084" x2="439.917428362" y1="631.492118338" y2="630.41785476" /><line stroke="rgb(0%,0%,0%)" x1="439.917428362" x2="443.213862978" y1="630.41785476" y2="628.350437116" /><line stroke="rgb(0%,0%,0%)" x1="443.213862978" x2="452.111272703" y1="628.350437116" y2="620.178078094" /><line stroke="rgb(0%,0%,0%)" x1="452.111272703" x2="452.566423073" y1="620.178078094" y2="619.639909486" /><line stroke="rgb(0%,0%,0%)" x1="461.0498019" x2="452.566423073" y1="612.44696405" y2="619.639909486" /><line stroke="rgb(0%,0%,0%)" x1="461.0498019" x2="461.798952185" y1="612.44696405" y2="611.456925755" /><line stroke="rgb(0%,0%,0%)" x1="466.956488593" x2="461.798952185" y1="602.183723527" y2="611.456925755" /><line stroke="rgb(0%,0%,0%)" x1="466.956488593" x2="467.267629841" y1="602.183723527" y2="600.45594148" /><line stroke="rgb(0%,0%,0%)" x1="467.267629841" x2="468.139954034" y1="600.45594148" y2="598.880961017" /><line stroke="rgb(0%,0%,0%)" x1="468.139954034" x2="470.765450376" y1="598.880961017" y2="595.236791667" /><line stroke="rgb(0%,0%,0%)" x1="477.037990244" x2="477.03856122" y1="586.100350256" y2="586.100003085" /><line stroke="rgb(0%,0%,0%)" x1="477.035270018" x2="477.037990244" y1="586.103934295" y2="586.100350256" /><line stroke="rgb(0%,0%,0%)" x1="477.03856122" x2="477.039498967" y1="586.100003085" y2="586.09882627" /><line stroke="rgb(0%,0%,0%)" x1="477.039498967" x2="477.04225714" y1="586.09882627" y2="586.095126793" /><line stroke="rgb(0%,0%,0%)" x1="314.425327092" x2="314.793159952" y1="844.152664982" y2="844.636465231" /><line stroke="rgb(0%,0%,0%)" x1="312.23361197" x2="312.7016401" y1="829.443532759" y2="831.857085335" /><line stroke="rgb(0%,0%,0%)" x1="312.23361197" x2="312.636589781" y1="829.443532759" y2="826.085958954" /><line stroke="rgb(0%,0%,0%)" x1="312.636589781" x2="314.880799047" y1="826.085958954" y2="816.083677044" /><line stroke="rgb(0%,0%,0%)" x1="307.259118153" x2="310.993121075" y1="786.040770775" y2="789.926518303" /><line stroke="rgb(0%,0%,0%)" x1="307.259118153" x2="305.020645806" y1="786.040770775" y2="781.936047693" /><line stroke="rgb(0%,0%,0%)" x1="302.942911604" x2="305.020645806" y1="776.895896089" y2="781.936047693" /><line stroke="rgb(0%,0%,0%)" x1="301.955250899" x2="301.232303979" y1="757.170312035" y2="765.756682267" /><line stroke="rgb(0%,0%,0%)" x1="297.08606273" x2="301.955250899" y1="751.712974575" y2="757.170312035" /><line stroke="rgb(0%,0%,0%)" x1="296.245416359" x2="297.08606273" y1="750.306172407" y2="751.712974575" /><line stroke="rgb(0%,0%,0%)" x1="314.793159952" x2="315.068452702" y1="844.636465231" y2="845.019736211" /><line stroke="rgb(0%,0%,0%)" x1="316.812085844" x2="316.732186448" y1="798.245124308" y2="801.736451417" /><line stroke="rgb(0%,0%,0%)" x1="318.496520514" x2="315.430541473" y1="806.54547777" y2="812.965505969" /><line stroke="rgb(0%,0%,0%)" x1="316.732186448" x2="318.496520514" y1="801.736451417" y2="806.54547777" /><line stroke="rgb(0%,0%,0%)" x1="315.535478326" x2="316.812085844" y1="795.588868061" y2="798.245124308" /><line stroke="rgb(0%,0%,0%)" x1="310.993121075" x2="315.535478326" y1="789.926518303" y2="795.588868061" /><line stroke="rgb(0%,0%,0%)" x1="251.050217895" x2="250.952166089" y1="717.041607739" y2="716.959884488" /><line stroke="rgb(0%,0%,0%)" x1="251.050217895" x2="252.543825026" y1="717.041607739" y2="717.822140134" /><line stroke="rgb(0%,0%,0%)" x1="252.543825026" x2="274.602614356" y1="717.822140134" y2="729.129670811" /><line stroke="rgb(0%,0%,0%)" x1="281.946500841" x2="281.658769864" y1="732.577994096" y2="732.538828831" /><line stroke="rgb(0%,0%,0%)" x1="281.946500841" x2="282.388787341" y1="732.577994096" y2="733.131298183" /><line stroke="rgb(0%,0%,0%)" x1="283.634648629" x2="293.196969793" y1="735.277417595" y2="747.68494739" /><line stroke="rgb(0%,0%,0%)" x1="282.388787341" x2="283.634648629" y1="733.131298183" y2="735.277417595" /><line stroke="rgb(0%,0%,0%)" x1="296.245416359" x2="293.196969793" y1="750.306172407" y2="747.68494739" /><line stroke="rgb(0%,0%,0%)" x1="277.979300388" x2="280.493092002" y1="731.222322681" y2="732.061606221" /><line stroke="rgb(0%,0%,0%)" x1="281.658769864" x2="280.493092002" y1="732.538828831" y2="732.061606221" /><line stroke="rgb(0%,0%,0%)" x1="276.629274175" x2="277.979300388" y1="730.136483211" y2="731.222322681" /><line stroke="rgb(0%,0%,0%)" x1="300.882794382" x2="301.144680094" y1="768.585224093" y2="770.178427504" /><line stroke="rgb(0%,0%,0%)" x1="302.942911604" x2="301.144680094" y1="776.895896089" y2="770.178427504" /><line stroke="rgb(0%,0%,0%)" x1="300.909398003" x2="300.882794382" y1="768.141929949" y2="768.585224093" /><line stroke="rgb(0%,0%,0%)" x1="301.232303979" x2="300.909398003" y1="765.756682267" y2="768.141929949" /><line stroke="rgb(0%,0%,0%)" x1="317.43809257" x2="318.143015516" y1="847.62744958" y2="849.377253523" /><line stroke="rgb(0%,0%,0%)" x1="318.143015516" x2="319.328260899" y1="849.377253523" y2="850.996422214" /><line stroke="rgb(0%,0%,0%)" x1="315.068452702" x2="317.43809257" y1="845.019736211" y2="847.62744958" /><line stroke="rgb(0%,0%,0%)" x1="312.049755089" x2="312.293383822" y1="835.543239691" y2="836.783327293" /><line stroke="rgb(0%,0%,0%)" x1="315.171940476" x2="314.880799047" y1="814.589976552" y2="816.083677044" /><line stroke="rgb(0%,0%,0%)" x1="315.293997548" x2="315.171940476" y1="813.706745896" y2="814.589976552" /><line stroke="rgb(0%,0%,0%)" x1="315.430541473" x2="315.293997548" y1="812.965505969" y2="813.706745896" /><line stroke="rgb(0%,0%,0%)" x1="314.425327092" x2="312.293383822" y1="844.152664982" y2="836.783327293" /><line stroke="rgb(0%,0%,0%)" x1="312.7016401" x2="312.049755089" y1="831.857085335" y2="835.543239691" /><line stroke="rgb(0%,0%,0%)" x1="17.4901603052" x2="19.5049857658" y1="436.464778804" y2="434.455488968" /></svg>