<?xml version="1.0" encoding="utf-8" ?>
<svg baseProfile="full" height="100%" version="1.1" viewBox="0.5 0.5 685.793960571 941.299331665" width="100%" xmlns="http://www.w3.org/2000/svg" xmlns:ev="http://www.w3.org/2001/xml-events" xmlns:xlink="http://www.w3.org/1999/xlink"><defs /><line stroke="rgb(0%,0%,0%)" x1="524.715081532" x2="524.779372679" y1="462.667343624" y2="461.257909118" /><line stroke="rgb(0%,0%,0%)" x1="524.779372679" x2="525.142529877" y1="461.257909118" y2="457.966989413" /><line stroke="rgb(0%,0%,0%)" x1="493.474573393" x2="496.829020239" y1="364.915145981" y2="371.829242917" /><line stroke="rgb(0%,0%,0%)" x1="493.474573393" x2="493.389540376" y1="364.915145981" y2="364.656406746" /><line stroke="rgb(0%,0%,0%)" x1="521.313372131" x2="520.96821993" y1="416.157542188" y2="415.493324805" /><line stroke="rgb(0%,0%,0%)" x1="509.917323629" x2="520.96821993" y1="396.54099304" y2="415.493324805" /><line stroke="rgb(0%,0%,0%)" x1="509.917323629" x2="508.274343387" y1="396.54099304" y2="394.454248773" /><line stroke="rgb(0%,0%,0%)" x1="525.142529877" x2="525.078548149" y1="457.966989413" y2="453.391138584" /><line stroke="rgb(0%,0%,0%)" x1="525.078548149" x2="525.949093754" y1="453.391138584" y2="447.495335685" /><line stroke="rgb(0%,0%,0%)" x1="525.949093754" x2="525.867689746" y1="447.495335685" y2="438.867029849" /><line stroke="rgb(0%,0%,0%)" x1="525.867689746" x2="525.524228932" y1="438.867029849" y2="436.14612597" /><line stroke="rgb(0%,0%,0%)" x1="523.253833573" x2="525.524228932" y1="428.818878368" y2="436.14612597" /><line stroke="rgb(0%,0%,0%)" x1="523.253833573" x2="521.496192004" y1="428.818878368" y2="417.007316443" /><line stroke="rgb(0%,0%,0%)" x1="521.496192004" x2="521.392104186" y1="417.007316443" y2="416.373513717" /><line stroke="rgb(0%,0%,0%)" x1="508.274343387" x2="502.084813093" y1="394.454248773" y2="381.797816458" /><line stroke="rgb(0%,0%,0%)" x1="502.084813093" x2="500.953121753" y1="381.797816458" y2="380.006346411" /><line stroke="rgb(0%,0%,0%)" x1="500.953121753" x2="496.829020239" y1="380.006346411" y2="371.829242917" /><line stroke="rgb(0%,0%,0%)" x1="521.392104186" x2="521.313372131" y1="416.373513717" y2="416.157542188" /><line stroke="rgb(0%,0%,0%)" x1="407.653956314" x2="395.659225374" y1="272.271804387" y2="264.786177474" /><line stroke="rgb(0%,0%,0%)" x1="418.59481164" x2="413.616034707" y1="279.498291087" y2="276.181192125" /><line stroke="rgb(0%,0%,0%)" x1="424.20607901" x2="418.59481164" y1="284.258389853" y2="279.498291087" /><line stroke="rgb(0%,0%,0%)" x1="434.389048841" x2="428.526361595" y1="292.98463817" y2="287.776460488" /><line stroke="rgb(0%,0%,0%)" x1="424.20607901" x2="428.526361595" y1="284.258389853" y2="287.776460488" /><line stroke="rgb(0%,0%,0%)" x1="340.398100525" x2="341.460820041" y1="221.970501769" y2="227.149961355" /><line stroke="rgb(0%,0%,0%)" x1="348.704171901" x2="348.307430028" y1="180.833585814" y2="183.171024038" /><line stroke="rgb(0%,0%,0%)" x1="349.840727619" x2="346.549639432" y1="143.398969166" y2="138.430552073" /><line stroke="rgb(0%,0%,0%)" x1="368.706117922" x2="362.31617205" y1="252.961792272" y2="250.733049648" /><line stroke="rgb(0%,0%,0%)" x1="368.706117922" x2="380.257688685" y1="252.961792272" y2="257.881631763" /><line stroke="rgb(0%,0%,0%)" x1="395.659225374" x2="391.694433886" y1="264.786177474" y2="262.594404808" /><line stroke="rgb(0%,0%,0%)" x1="413.616034707" x2="407.653956314" y1="276.181192125" y2="272.271804387" /><line stroke="rgb(0%,0%,0%)" x1="340.317154282" x2="343.697184754" y1="239.495870674" y2="242.605733406" /><line stroke="rgb(0%,0%,0%)" x1="344.468998988" x2="343.697184754" y1="243.66956228" y2="242.605733406" /><line stroke="rgb(0%,0%,0%)" x1="341.952348024" x2="341.460820041" y1="232.001269732" y2="227.149961355" /><line stroke="rgb(0%,0%,0%)" x1="340.398100525" x2="341.945445945" y1="221.970501769" y2="215.811956555" /><line stroke="rgb(0%,0%,0%)" x1="344.644289337" x2="343.149015002" y1="206.266949399" y2="213.018132038" /><line stroke="rgb(0%,0%,0%)" x1="344.644289337" x2="348.033933336" y1="206.266949399" y2="198.627486029" /><line stroke="rgb(0%,0%,0%)" x1="346.549639432" x2="343.985863305" y1="138.430552073" y2="133.937837812" /><line stroke="rgb(0%,0%,0%)" x1="343.985863305" x2="343.399322506" y1="133.937837812" y2="130.924850704" /><line stroke="rgb(0%,0%,0%)" x1="343.399322506" x2="343.669866044" y1="130.924850704" y2="124.796019707" /><line stroke="rgb(0%,0%,0%)" x1="343.669866044" x2="342.441614174" y1="124.796019707" y2="113.804181225" /><line stroke="rgb(0%,0%,0%)" x1="342.441614174" x2="342.440297531" y1="113.804181225" y2="113.636887399" /><line stroke="rgb(0%,0%,0%)" x1="341.132279125" x2="342.440297531" y1="107.83588506" y2="113.636887399" /><line stroke="rgb(0%,0%,0%)" x1="341.132279125" x2="340.839338501" y1="107.83588506" y2="106.87974924" /><line stroke="rgb(0%,0%,0%)" x1="340.839338501" x2="341.237952552" y1="106.87974924" y2="105.819474964" /><line stroke="rgb(0%,0%,0%)" x1="341.237952552" x2="339.736054294" y1="105.819474964" y2="103.261294998" /><line stroke="rgb(0%,0%,0%)" x1="338.780024804" x2="339.736054294" y1="99.4265014375" y2="103.261294998" /><line stroke="rgb(0%,0%,0%)" x1="330.262167492" x2="329.507579083" y1="92.6111646745" y2="92.0231366887" /><line stroke="rgb(0%,0%,0%)" x1="338.780024804" x2="330.262167492" y1="99.4265014375" y2="92.6111646745" /><line stroke="rgb(0%,0%,0%)" x1="348.033933336" x2="348.22318486" y1="198.627486029" y2="198.060376038" /><line stroke="rgb(0%,0%,0%)" x1="348.22318486" x2="348.307430028" y1="198.060376038" y2="183.171024038" /><line stroke="rgb(0%,0%,0%)" x1="348.704171901" x2="349.035338042" y1="180.833585814" y2="173.895035158" /><line stroke="rgb(0%,0%,0%)" x1="349.035338042" x2="351.009403306" y1="173.895035158" y2="164.708939355" /><line stroke="rgb(0%,0%,0%)" x1="351.009403306" x2="350.989242958" y1="164.708939355" y2="163.40295656" /><line stroke="rgb(0%,0%,0%)" x1="350.989242958" x2="351.890486464" y1="163.40295656" y2="152.168958496" /><line stroke="rgb(0%,0%,0%)" x1="351.890486464" x2="350.987399727" y1="152.168958496" y2="148.179243915" /><line stroke="rgb(0%,0%,0%)" x1="350.987399727" x2="351.785736453" y1="148.179243915" y2="146.28135612" /><line stroke="rgb(0%,0%,0%)" x1="349.840727619" x2="351.785736453" y1="143.398969166" y2="146.28135612" /><line stroke="rgb(0%,0%,0%)" x1="362.31617205" x2="349.101306945" y1="250.733049648" y2="246.7158936" /><line stroke="rgb(0%,0%,0%)" x1="391.694433886" x2="380.257688685" y1="262.594404808" y2="257.881631763" /><line stroke="rgb(0%,0%,0%)" x1="279.576794581" x2="279.218626596" y1="174.277373665" y2="175.165937296" /><line stroke="rgb(0%,0%,0%)" x1="279.576794581" x2="280.195958558" y1="174.277373665" y2="173.630769115" /><line stroke="rgb(0%,0%,0%)" x1="280.195958558" x2="280.479786511" y1="173.630769115" y2="173.301226636" /><line stroke="rgb(0%,0%,0%)" x1="282.656959204" x2="282.813870064" y1="81.142300018" y2="83.2997095915" /><line stroke="rgb(0%,0%,0%)" x1="282.813870064" x2="284.777104019" y1="83.2997095915" y2="87.2160212935" /><line stroke="rgb(0%,0%,0%)" x1="280.479786511" x2="280.88077472" y1="173.301226636" y2="172.071252074" /><line stroke="rgb(0%,0%,0%)" x1="292.215043529" x2="292.150039644" y1="110.664163668" y2="114.139925988" /><line stroke="rgb(0%,0%,0%)" x1="292.150039644" x2="289.795079364" y1="114.139925988" y2="122.801362493" /><line stroke="rgb(0%,0%,0%)" x1="292.215043529" x2="293.762570891" y1="110.664163668" y2="101.301428675" /><line stroke="rgb(0%,0%,0%)" x1="290.790231798" x2="293.753761617" y1="93.9406123128" y2="99.6909586984" /><line stroke="rgb(0%,0%,0%)" x1="290.36679235" x2="290.790231798" y1="92.8375503383" y2="93.9406123128" /><line stroke="rgb(0%,0%,0%)" x1="284.161388296" x2="287.797415848" y1="76.3866301156" y2="72.4990380447" /><line stroke="rgb(0%,0%,0%)" x1="289.011169349" x2="287.797415848" y1="71.1060256514" y2="72.4990380447" /><line stroke="rgb(0%,0%,0%)" x1="295.006657437" x2="293.919344452" y1="68.443917002" y2="68.4589572517" /><line stroke="rgb(0%,0%,0%)" x1="293.919344452" x2="290.002205299" y1="68.4589572517" y2="70.5383741114" /><line stroke="rgb(0%,0%,0%)" x1="290.002205299" x2="289.011169349" y1="70.5383741114" y2="71.1060256514" /><line stroke="rgb(0%,0%,0%)" x1="302.093581082" x2="310.726703716" y1="69.4232863079" y2="73.5798724903" /><line stroke="rgb(0%,0%,0%)" x1="302.093581082" x2="295.006657437" y1="69.4232863079" y2="68.443917002" /><line stroke="rgb(0%,0%,0%)" x1="320.172211455" x2="313.557359021" y1="79.3290539286" y2="74.5297080625" /><line stroke="rgb(0%,0%,0%)" x1="320.172211455" x2="324.35062936" y1="79.3290539286" y2="84.6995660693" /><line stroke="rgb(0%,0%,0%)" x1="326.913001992" x2="324.35062936" y1="87.2375097229" y2="84.6995660693" /><line stroke="rgb(0%,0%,0%)" x1="313.557359021" x2="310.726703716" y1="74.5297080625" y2="73.5798724903" /><line stroke="rgb(0%,0%,0%)" x1="329.344230033" x2="329.273758259" y1="91.8989132605" y2="91.8118447605" /><line stroke="rgb(0%,0%,0%)" x1="329.273758259" x2="329.236792312" y1="91.8118447605" y2="91.7671753225" /><line stroke="rgb(0%,0%,0%)" x1="329.236792312" x2="329.20709539" y1="91.7671753225" y2="91.6534645851" /><line stroke="rgb(0%,0%,0%)" x1="326.913001992" x2="329.20709539" y1="87.2375097229" y2="91.6534645851" /><line stroke="rgb(0%,0%,0%)" x1="349.101306945" x2="344.468998988" y1="246.7158936" y2="243.66956228" /><line stroke="rgb(0%,0%,0%)" x1="340.317154282" x2="341.952348024" y1="239.495870674" y2="232.001269732" /><line stroke="rgb(0%,0%,0%)" x1="341.945445945" x2="342.268600038" y1="215.811956555" y2="214.601298932" /><line stroke="rgb(0%,0%,0%)" x1="342.268600038" x2="343.149015002" y1="214.601298932" y2="213.018132038" /><line stroke="rgb(0%,0%,0%)" x1="329.507579083" x2="329.344230033" y1="92.0231366887" y2="91.8989132605" /><line stroke="rgb(0%,0%,0%)" x1="278.528704144" x2="279.218626596" y1="175.185915999" y2="175.165937296" /><line stroke="rgb(0%,0%,0%)" x1="286.19531213" x2="280.88077472" y1="153.323762132" y2="172.071252074" /><line stroke="rgb(0%,0%,0%)" x1="286.046191648" x2="286.129259279" y1="152.284541702" y2="148.580233778" /><line stroke="rgb(0%,0%,0%)" x1="286.046191648" x2="286.19531213" y1="152.284541702" y2="153.323762132" /><line stroke="rgb(0%,0%,0%)" x1="284.777104019" x2="290.36679235" y1="87.2160212935" y2="92.8375503383" /><line stroke="rgb(0%,0%,0%)" x1="282.656959204" x2="283.444548" y1="81.142300018" y2="79.5437836556" /><line stroke="rgb(0%,0%,0%)" x1="284.161388296" x2="283.444548" y1="76.3866301156" y2="79.5437836556" /><line stroke="rgb(0%,0%,0%)" x1="286.119739885" x2="286.129259279" y1="140.518665864" y2="148.580233778" /><line stroke="rgb(0%,0%,0%)" x1="287.193715236" x2="286.119739885" y1="137.637945928" y2="140.518665864" /><line stroke="rgb(0%,0%,0%)" x1="288.155069083" x2="289.414789646" y1="131.263858595" y2="127.7744441" /><line stroke="rgb(0%,0%,0%)" x1="289.795079364" x2="289.414789646" y1="122.801362493" y2="127.7744441" /><line stroke="rgb(0%,0%,0%)" x1="288.155069083" x2="288.413640837" y1="131.263858595" y2="132.246455666" /><line stroke="rgb(0%,0%,0%)" x1="293.753761617" x2="293.875878593" y1="99.6909586984" y2="100.455451926" /><line stroke="rgb(0%,0%,0%)" x1="293.875878593" x2="293.762570891" y1="100.455451926" y2="101.301428675" /><line stroke="rgb(0%,0%,0%)" x1="243.893026546" x2="243.01787552" y1="200.708403468" y2="202.393809222" /><line stroke="rgb(0%,0%,0%)" x1="247.801264396" x2="243.893026546" y1="195.954574793" y2="200.708403468" /><line stroke="rgb(0%,0%,0%)" x1="258.964309814" x2="247.801264396" y1="187.332429668" y2="195.954574793" /><line stroke="rgb(0%,0%,0%)" x1="266.513212382" x2="258.964309814" y1="181.433413833" y2="187.332429668" /><line stroke="rgb(0%,0%,0%)" x1="278.528704144" x2="266.513212382" y1="175.185915999" y2="181.433413833" /><line stroke="rgb(0%,0%,0%)" x1="288.413640837" x2="287.193715236" y1="132.246455666" y2="137.637945928" /><line stroke="rgb(0%,0%,0%)" x1="204.345875358" x2="201.567088613" y1="263.97190497" y2="265.360674204" /><line stroke="rgb(0%,0%,0%)" x1="204.345875358" x2="206.97901474" y1="263.97190497" y2="260.627359213" /><line stroke="rgb(0%,0%,0%)" x1="210.293342209" x2="209.841542024" y1="258.710425456" y2="258.868505383" /><line stroke="rgb(0%,0%,0%)" x1="210.435658939" x2="210.293342209" y1="258.568788812" y2="258.710425456" /><line stroke="rgb(0%,0%,0%)" x1="212.538529152" x2="210.435658939" y1="257.467389491" y2="258.568788812" /><line stroke="rgb(0%,0%,0%)" x1="215.749884422" x2="212.538529152" y1="252.849193074" y2="257.467389491" /><line stroke="rgb(0%,0%,0%)" x1="215.749884422" x2="216.997540331" y1="252.849193074" y2="251.753406204" /><line stroke="rgb(0%,0%,0%)" x1="221.442425645" x2="220.44586893" y1="247.954794238" y2="249.353298865" /><line stroke="rgb(0%,0%,0%)" x1="221.442425645" x2="222.042835514" y1="247.954794238" y2="245.089400848" /><line stroke="rgb(0%,0%,0%)" x1="223.663259584" x2="222.042835514" y1="241.125467519" y2="245.089400848" /><line stroke="rgb(0%,0%,0%)" x1="225.094503131" x2="223.663259584" y1="236.740153635" y2="241.125467519" /><line stroke="rgb(0%,0%,0%)" x1="225.094503131" x2="227.008672817" y1="236.740153635" y2="230.725182762" /><line stroke="rgb(0%,0%,0%)" x1="227.008672817" x2="231.488838006" y1="230.725182762" y2="224.701098262" /><line stroke="rgb(0%,0%,0%)" x1="232.205931871" x2="231.488838006" y1="223.532760789" y2="224.701098262" /><line stroke="rgb(0%,0%,0%)" x1="236.106536785" x2="240.752033961" y1="213.635128389" y2="207.270766558" /><line stroke="rgb(0%,0%,0%)" x1="236.106536785" x2="233.481034284" y1="213.635128389" y2="219.905342651" /><line stroke="rgb(0%,0%,0%)" x1="232.823760639" x2="232.205931871" y1="222.093117854" y2="223.532760789" /><line stroke="rgb(0%,0%,0%)" x1="233.481034284" x2="232.823760639" y1="219.905342651" y2="222.093117854" /><line stroke="rgb(0%,0%,0%)" x1="242.079695713" x2="240.752033961" y1="204.387181777" y2="207.270766558" /><line stroke="rgb(0%,0%,0%)" x1="243.01787552" x2="242.079695713" y1="202.393809222" y2="204.387181777" /><line stroke="rgb(0%,0%,0%)" x1="188.941638124" x2="187.731080994" y1="271.175923188" y2="272.122366351" /><line stroke="rgb(0%,0%,0%)" x1="188.941638124" x2="192.610573514" y1="271.175923188" y2="270.125828296" /><line stroke="rgb(0%,0%,0%)" x1="196.833078641" x2="192.610573514" y1="269.255491904" y2="270.125828296" /><line stroke="rgb(0%,0%,0%)" x1="198.905507067" x2="196.833078641" y1="267.331779407" y2="269.255491904" /><line stroke="rgb(0%,0%,0%)" x1="201.567088613" x2="198.905507067" y1="265.360674204" y2="267.331779407" /><line stroke="rgb(0%,0%,0%)" x1="209.841542024" x2="206.97901474" y1="258.868505383" y2="260.627359213" /><line stroke="rgb(0%,0%,0%)" x1="219.688407723" x2="216.997540331" y1="250.158897001" y2="251.753406204" /><line stroke="rgb(0%,0%,0%)" x1="220.44586893" x2="219.688407723" y1="249.353298865" y2="250.158897001" /><line stroke="rgb(0%,0%,0%)" x1="147.267252916" x2="143.881718179" y1="287.696355462" y2="287.529981269" /><line stroke="rgb(0%,0%,0%)" x1="129.02788359" x2="131.119890179" y1="288.56928664" y2="288.403071939" /><line stroke="rgb(0%,0%,0%)" x1="155.100641998" x2="147.267252916" y1="285.875188507" y2="287.696355462" /><line stroke="rgb(0%,0%,0%)" x1="155.100641998" x2="169.148045232" y1="285.875188507" y2="280.804072437" /><line stroke="rgb(0%,0%,0%)" x1="187.731080994" x2="175.719337927" y1="272.122366351" y2="277.992853314" /><line stroke="rgb(0%,0%,0%)" x1="175.719337927" x2="169.148045232" y1="277.992853314" y2="280.804072437" /><line stroke="rgb(0%,0%,0%)" x1="104.877968157" x2="111.021302228" y1="294.689762293" y2="293.027078371" /><line stroke="rgb(0%,0%,0%)" x1="104.877968157" x2="101.963001832" y1="294.689762293" y2="295.221559416" /><line stroke="rgb(0%,0%,0%)" x1="115.334486493" x2="111.021302228" y1="292.480761507" y2="293.027078371" /><line stroke="rgb(0%,0%,0%)" x1="125.422362585" x2="115.334486493" y1="289.806552744" y2="292.480761507" /><line stroke="rgb(0%,0%,0%)" x1="129.02788359" x2="125.422362585" y1="288.56928664" y2="289.806552744" /><line stroke="rgb(0%,0%,0%)" x1="136.48695471" x2="131.119890179" y1="287.758162042" y2="288.403071939" /><line stroke="rgb(0%,0%,0%)" x1="143.881718179" x2="136.48695471" y1="287.529981269" y2="287.758162042" /><line stroke="rgb(0%,0%,0%)" x1="67.9778610351" x2="70.3563153793" y1="309.378436458" y2="306.914049439" /><line stroke="rgb(0%,0%,0%)" x1="78.4811344535" x2="73.7929694596" y1="303.04801416" y2="304.546376594" /><line stroke="rgb(0%,0%,0%)" x1="87.4896961271" x2="90.0468263958" y1="300.94012173" y2="299.386682145" /><line stroke="rgb(0%,0%,0%)" x1="87.4896961271" x2="78.4811344535" y1="300.94012173" y2="303.04801416" /><line stroke="rgb(0%,0%,0%)" x1="101.963001832" x2="90.0468263958" y1="295.221559416" y2="299.386682145" /><line stroke="rgb(0%,0%,0%)" x1="46.9248409943" x2="45.6965476811" y1="341.639676273" y2="346.85395895" /><line stroke="rgb(0%,0%,0%)" x1="46.778458528" x2="46.9248409943" y1="340.208754047" y2="341.639676273" /><line stroke="rgb(0%,0%,0%)" x1="46.9038100613" x2="46.778458528" y1="338.852741868" y2="340.208754047" /><line stroke="rgb(0%,0%,0%)" x1="55.5039942701" x2="52.0173975754" y1="319.358628621" y2="326.145847832" /><line stroke="rgb(0%,0%,0%)" x1="55.8221553605" x2="55.5039942701" y1="319.070029483" y2="319.358628621" /><line stroke="rgb(0%,0%,0%)" x1="55.8221553605" x2="56.2408822133" y1="319.070029483" y2="318.429798417" /><line stroke="rgb(0%,0%,0%)" x1="59.5763551358" x2="56.2408822133" y1="315.723444321" y2="318.429798417" /><line stroke="rgb(0%,0%,0%)" x1="67.9778610351" x2="65.1931626263" y1="309.378436458" y2="311.53127964" /><line stroke="rgb(0%,0%,0%)" x1="65.1931626263" x2="61.10069862" y1="311.53127964" y2="314.200951127" /><line stroke="rgb(0%,0%,0%)" x1="61.10069862" x2="59.5763551358" y1="314.200951127" y2="315.723444321" /><line stroke="rgb(0%,0%,0%)" x1="72.4889769133" x2="70.3563153793" y1="305.429371286" y2="306.914049439" /><line stroke="rgb(0%,0%,0%)" x1="73.7929694596" x2="72.4889769133" y1="304.546376594" y2="305.429371286" /><line stroke="rgb(0%,0%,0%)" x1="15.5421771459" x2="12.0053785786" y1="455.392659116" y2="452.459722202" /><line stroke="rgb(0%,0%,0%)" x1="16.480505366" x2="17.0808632954" y1="428.818686952" y2="428.140443301" /><line stroke="rgb(0%,0%,0%)" x1="16.480505366" x2="14.9734376165" y1="428.818686952" y2="429.750566778" /><line stroke="rgb(0%,0%,0%)" x1="20.9277989263" x2="17.0808632954" y1="426.238106655" y2="428.140443301" /><line stroke="rgb(0%,0%,0%)" x1="20.9277989263" x2="20.0531096007" y1="426.238106655" y2="423.326028402" /><line stroke="rgb(0%,0%,0%)" x1="18.0494405794" x2="18.8939369796" y1="413.18086254" y2="421.10107791" /><line stroke="rgb(0%,0%,0%)" x1="18.8939369796" x2="20.0531096007" y1="421.10107791" y2="423.326028402" /><line stroke="rgb(0%,0%,0%)" x1="18.0494405794" x2="20.5885588846" y1="413.18086254" y2="406.710467815" /><line stroke="rgb(0%,0%,0%)" x1="23.5967868965" x2="21.9352822609" y1="391.264322316" y2="392.910391088" /><line stroke="rgb(0%,0%,0%)" x1="19.9397200576" x2="20.5885588846" y1="401.561611444" y2="406.710467815" /><line stroke="rgb(0%,0%,0%)" x1="21.9352822609" x2="19.9397200576" y1="392.910391088" y2="401.561611444" /><line stroke="rgb(0%,0%,0%)" x1="23.5967868965" x2="24.4571988718" y1="391.264322316" y2="387.736289004" /><line stroke="rgb(0%,0%,0%)" x1="27.0302937173" x2="26.9153020986" y1="382.925868368" y2="383.623962196" /><line stroke="rgb(0%,0%,0%)" x1="26.9153020986" x2="24.4571988718" y1="383.623962196" y2="387.736289004" /><line stroke="rgb(0%,0%,0%)" x1="27.0302937173" x2="30.3379773005" y1="382.925868368" y2="378.321064614" /><line stroke="rgb(0%,0%,0%)" x1="30.382056084" x2="30.3379773005" y1="377.026889993" y2="378.321064614" /><line stroke="rgb(0%,0%,0%)" x1="30.7888717975" x2="30.382056084" y1="375.881561715" y2="377.026889993" /><line stroke="rgb(0%,0%,0%)" x1="34.4414361858" x2="30.7888717975" y1="372.229795818" y2="375.881561715" /><line stroke="rgb(0%,0%,0%)" x1="34.4414361858" x2="40.0935522184" y1="372.229795818" y2="363.610772286" /><line stroke="rgb(0%,0%,0%)" x1="40.0016231312" x2="40.0935522184" y1="362.90994444" y2="363.610772286" /><line stroke="rgb(0%,0%,0%)" x1="42.8665961068" x2="41.7200951971" y1="358.807693399" y2="361.770518035" /><line stroke="rgb(0%,0%,0%)" x1="41.7200951971" x2="40.0016231312" y1="361.770518035" y2="362.90994444" /><line stroke="rgb(0%,0%,0%)" x1="42.8665961068" x2="44.1188490158" y1="358.807693399" y2="356.792049345" /><line stroke="rgb(0%,0%,0%)" x1="43.6578947084" x2="44.1188490158" y1="354.614222528" y2="356.792049345" /><line stroke="rgb(0%,0%,0%)" x1="45.6965476811" x2="43.6578947084" y1="346.85395895" y2="354.614222528" /><line stroke="rgb(0%,0%,0%)" x1="52.0173975754" x2="46.9038100613" y1="326.145847832" y2="338.852741868" /><line stroke="rgb(0%,0%,0%)" x1="10.9023944828" x2="12.0053785786" y1="450.119899919" y2="452.459722202" /><line stroke="rgb(0%,0%,0%)" x1="10.9023944828" x2="9.54819294546" y1="450.119899919" y2="442.792964904" /><line stroke="rgb(0%,0%,0%)" x1="13.7184664885" x2="9.55220839228" y1="434.187753443" y2="442.139589708" /><line stroke="rgb(0%,0%,0%)" x1="9.51996056617" x2="9.54819294546" y1="442.593481448" y2="442.792964904" /><line stroke="rgb(0%,0%,0%)" x1="9.55220839228" x2="9.51996056617" y1="442.139589708" y2="442.593481448" /><line stroke="rgb(0%,0%,0%)" x1="15.5421771459" x2="18.4090111018" y1="455.392659116" y2="457.059374129" /><line stroke="rgb(0%,0%,0%)" x1="20.4510405294" x2="20.7308926901" y1="457.924259431" y2="461.713181675" /><line stroke="rgb(0%,0%,0%)" x1="18.4090111018" x2="20.4510405294" y1="457.059374129" y2="457.924259431" /><line stroke="rgb(0%,0%,0%)" x1="14.9734376165" x2="14.0891835766" y1="429.750566778" y2="431.947179384" /><line stroke="rgb(0%,0%,0%)" x1="14.0891835766" x2="13.7184664885" y1="431.947179384" y2="434.187753443" /><line stroke="rgb(0%,0%,0%)" x1="526.968308853" x2="526.404869991" y1="477.568506117" y2="481.092120929" /><line stroke="rgb(0%,0%,0%)" x1="526.968308853" x2="526.79540437" y1="477.568506117" y2="475.544103777" /><line stroke="rgb(0%,0%,0%)" x1="526.79540437" x2="524.715081532" y1="475.544103777" y2="462.667343624" /><line stroke="rgb(0%,0%,0%)" x1="492.792202657" x2="493.389540376" y1="363.8625267" y2="364.656406746" /><line stroke="rgb(0%,0%,0%)" x1="519.414513004" x2="523.596798099" y1="513.240297966" y2="502.906034433" /><line stroke="rgb(0%,0%,0%)" x1="525.001590474" x2="523.871659192" y1="493.972675244" y2="501.784287807" /><line stroke="rgb(0%,0%,0%)" x1="525.001590474" x2="526.404869991" y1="493.972675244" y2="481.092120929" /><line stroke="rgb(0%,0%,0%)" x1="492.792202657" x2="491.641082093" y1="363.8625267" y2="359.796306717" /><line stroke="rgb(0%,0%,0%)" x1="495.566345403" x2="494.506215066" y1="558.183112911" y2="560.830429586" /><line stroke="rgb(0%,0%,0%)" x1="498.137639258" x2="500.546523409" y1="553.184929581" y2="550.480151359" /><line stroke="rgb(0%,0%,0%)" x1="495.566345403" x2="498.137639258" y1="558.183112911" y2="553.184929581" /><line stroke="rgb(0%,0%,0%)" x1="500.546523409" x2="500.987737853" y1="550.480151359" y2="549.045505922" /><line stroke="rgb(0%,0%,0%)" x1="500.987737853" x2="501.932673614" y1="549.045505922" y2="546.851791902" /><line stroke="rgb(0%,0%,0%)" x1="491.641082093" x2="490.665275442" y1="359.796306717" y2="356.973633296" /><line stroke="rgb(0%,0%,0%)" x1="506.708148225" x2="501.932673614" y1="537.982020009" y2="546.851791902" /><line stroke="rgb(0%,0%,0%)" x1="506.708148225" x2="509.517246874" y1="537.982020009" y2="530.448411396" /><line stroke="rgb(0%,0%,0%)" x1="509.517246874" x2="511.564001692" y1="530.448411396" y2="526.794003317" /><line stroke="rgb(0%,0%,0%)" x1="511.564001692" x2="515.116234652" y1="526.794003317" y2="521.626928762" /><line stroke="rgb(0%,0%,0%)" x1="519.414513004" x2="515.116234652" y1="513.240297966" y2="521.626928762" /><line stroke="rgb(0%,0%,0%)" x1="523.596798099" x2="523.877984711" y1="502.906034433" y2="502.183373461" /><line stroke="rgb(0%,0%,0%)" x1="523.877984711" x2="523.871659192" y1="502.183373461" y2="501.784287807" /><line stroke="rgb(0%,0%,0%)" x1="434.786166338" x2="434.389048841" y1="293.512819981" y2="292.98463817" /><line stroke="rgb(0%,0%,0%)" x1="447.886272961" x2="447.039433219" y1="304.775246885" y2="303.714321635" /><line stroke="rgb(0%,0%,0%)" x1="434.786166338" x2="437.500017112" y1="293.512819981" y2="295.842826729" /><line stroke="rgb(0%,0%,0%)" x1="462.088879716" x2="460.571378291" y1="325.645724962" y2="320.980286924" /><line stroke="rgb(0%,0%,0%)" x1="460.571378291" x2="460.178666925" y1="320.980286924" y2="320.366644103" /><line stroke="rgb(0%,0%,0%)" x1="460.178666925" x2="459.946342665" y1="320.366644103" y2="319.750922492" /><line stroke="rgb(0%,0%,0%)" x1="459.946342665" x2="455.748646966" y1="319.750922492" y2="313.955234968" /><line stroke="rgb(0%,0%,0%)" x1="455.748646966" x2="453.302449925" y1="313.955234968" y2="310.16768046" /><line stroke="rgb(0%,0%,0%)" x1="447.886272961" x2="453.302449925" y1="304.775246885" y2="310.16768046" /><line stroke="rgb(0%,0%,0%)" x1="470.669672174" x2="476.853989882" y1="334.915342955" y2="341.527201941" /><line stroke="rgb(0%,0%,0%)" x1="477.41254966" x2="476.853989882" y1="342.143241533" y2="341.527201941" /><line stroke="rgb(0%,0%,0%)" x1="470.669672174" x2="469.014719902" y1="334.915342955" y2="333.267119427" /><line stroke="rgb(0%,0%,0%)" x1="462.088879716" x2="465.909225815" y1="325.645724962" y2="330.10725131" /><line stroke="rgb(0%,0%,0%)" x1="469.014719902" x2="465.909225815" y1="333.267119427" y2="330.10725131" /><line stroke="rgb(0%,0%,0%)" x1="490.350971951" x2="489.944750873" y1="356.270767309" y2="355.568050075" /><line stroke="rgb(0%,0%,0%)" x1="489.944750873" x2="488.95219196" y1="355.568050075" y2="354.397074172" /><line stroke="rgb(0%,0%,0%)" x1="477.41254966" x2="488.95219196" y1="342.143241533" y2="354.397074172" /><line stroke="rgb(0%,0%,0%)" x1="490.665275442" x2="490.350971951" y1="356.973633296" y2="356.270767309" /><line stroke="rgb(0%,0%,0%)" x1="412.301930599" x2="409.073321953" y1="648.607955509" y2="649.666646292" /><line stroke="rgb(0%,0%,0%)" x1="412.301930599" x2="416.193224283" y1="648.607955509" y2="646.196585321" /><line stroke="rgb(0%,0%,0%)" x1="416.193224283" x2="423.180048978" y1="646.196585321" y2="642.353745291" /><line stroke="rgb(0%,0%,0%)" x1="423.180048978" x2="429.364155159" y1="642.353745291" y2="637.628026301" /><line stroke="rgb(0%,0%,0%)" x1="429.364155159" x2="434.759779816" y1="637.628026301" y2="632.970210518" /><line stroke="rgb(0%,0%,0%)" x1="434.759779816" x2="435.9899049" y1="632.970210518" y2="632.103816826" /><line stroke="rgb(0%,0%,0%)" x1="435.9899049" x2="436.486846223" y1="632.103816826" y2="631.145069056" /><line stroke="rgb(0%,0%,0%)" x1="441.617936782" x2="437.500017112" y1="299.144064899" y2="295.842826729" /><line stroke="rgb(0%,0%,0%)" x1="444.257322567" x2="441.617936782" y1="301.279592108" y2="299.144064899" /><line stroke="rgb(0%,0%,0%)" x1="447.039433219" x2="445.094575954" y1="303.714321635" y2="302.061107165" /><line stroke="rgb(0%,0%,0%)" x1="445.094575954" x2="444.257322567" y1="302.061107165" y2="301.279592108" /><line stroke="rgb(0%,0%,0%)" x1="355.335154935" x2="354.360452862" y1="722.054955469" y2="720.540919582" /><line stroke="rgb(0%,0%,0%)" x1="344.202456378" x2="344.463479731" y1="705.963188762" y2="703.745157356" /><line stroke="rgb(0%,0%,0%)" x1="365.660273921" x2="365.785464913" y1="790.816781222" y2="790.394424162" /><line stroke="rgb(0%,0%,0%)" x1="363.926472827" x2="363.480248525" y1="753.471411691" y2="749.514397416" /><line stroke="rgb(0%,0%,0%)" x1="365.31662083" x2="369.035012221" y1="666.221227433" y2="664.572683561" /><line stroke="rgb(0%,0%,0%)" x1="379.353078279" x2="386.763046333" y1="658.0600107" y2="655.136870713" /><line stroke="rgb(0%,0%,0%)" x1="387.810965644" x2="388.676346144" y1="655.02098678" y2="655.042851314" /><line stroke="rgb(0%,0%,0%)" x1="404.062903198" x2="388.676346144" y1="651.884868922" y2="655.042851314" /><line stroke="rgb(0%,0%,0%)" x1="404.062903198" x2="405.620835291" y1="651.884868922" y2="651.467204487" /><line stroke="rgb(0%,0%,0%)" x1="405.620835291" x2="407.365403321" y1="651.467204487" y2="650.750332995" /><line stroke="rgb(0%,0%,0%)" x1="409.073321953" x2="407.365403321" y1="649.666646292" y2="650.750332995" /><line stroke="rgb(0%,0%,0%)" x1="350.678442913" x2="350.465323988" y1="843.265739152" y2="843.589215394" /><line stroke="rgb(0%,0%,0%)" x1="350.465323988" x2="350.177671922" y1="843.589215394" y2="845.892677676" /><line stroke="rgb(0%,0%,0%)" x1="350.678442913" x2="351.025918421" y1="843.265739152" y2="837.809249694" /><line stroke="rgb(0%,0%,0%)" x1="351.025918421" x2="352.490148775" y1="837.809249694" y2="836.49987167" /><line stroke="rgb(0%,0%,0%)" x1="344.202456378" x2="344.315073735" y1="705.963188762" y2="706.560340826" /><line stroke="rgb(0%,0%,0%)" x1="344.463479731" x2="344.796120113" y1="703.745157356" y2="701.89131397" /><line stroke="rgb(0%,0%,0%)" x1="345.579659887" x2="345.809538637" y1="687.373843596" y2="691.407162706" /><line stroke="rgb(0%,0%,0%)" x1="345.579659887" x2="345.428304291" y1="687.373843596" y2="685.907318967" /><line stroke="rgb(0%,0%,0%)" x1="345.083356156" x2="349.354551212" y1="682.958316206" y2="677.969699216" /><line stroke="rgb(0%,0%,0%)" x1="351.636145726" x2="349.354551212" y1="674.761487259" y2="677.969699216" /><line stroke="rgb(0%,0%,0%)" x1="351.636145726" x2="352.138535512" y1="674.761487259" y2="673.640738322" /><line stroke="rgb(0%,0%,0%)" x1="352.138535512" x2="353.661145523" y1="673.640738322" y2="670.981023133" /><line stroke="rgb(0%,0%,0%)" x1="353.661145523" x2="357.519222407" y1="670.981023133" y2="669.696031316" /><line stroke="rgb(0%,0%,0%)" x1="365.31662083" x2="361.020869578" y1="666.221227433" y2="667.960146156" /><line stroke="rgb(0%,0%,0%)" x1="352.490148775" x2="355.103775235" y1="836.49987167" y2="832.667985314" /><line stroke="rgb(0%,0%,0%)" x1="355.103775235" x2="357.901875331" y1="832.667985314" y2="829.478603424" /><line stroke="rgb(0%,0%,0%)" x1="357.901875331" x2="360.96804418" y1="829.478603424" y2="826.272539704" /><line stroke="rgb(0%,0%,0%)" x1="363.222947026" x2="360.96804418" y1="821.355340398" y2="826.272539704" /><line stroke="rgb(0%,0%,0%)" x1="363.222947026" x2="365.904651109" y1="821.355340398" y2="817.889787479" /><line stroke="rgb(0%,0%,0%)" x1="365.904651109" x2="366.121084316" y1="817.889787479" y2="816.97880915" /><line stroke="rgb(0%,0%,0%)" x1="366.121084316" x2="365.989833977" y1="816.97880915" y2="815.104976737" /><line stroke="rgb(0%,0%,0%)" x1="367.173168101" x2="368.110161007" y1="811.372366248" y2="804.615702926" /><line stroke="rgb(0%,0%,0%)" x1="364.605480897" x2="367.968356414" y1="797.883721445" y2="803.926706516" /><line stroke="rgb(0%,0%,0%)" x1="365.660273921" x2="365.616923964" y1="790.816781222" y2="791.099943111" /><line stroke="rgb(0%,0%,0%)" x1="364.605480897" x2="365.616923964" y1="797.883721445" y2="791.099943111" /><line stroke="rgb(0%,0%,0%)" x1="365.785464913" x2="368.906349131" y1="790.394424162" y2="778.943725573" /><line stroke="rgb(0%,0%,0%)" x1="366.096186629" x2="363.926472827" y1="757.797484738" y2="753.471411691" /><line stroke="rgb(0%,0%,0%)" x1="361.289064342" x2="358.362133729" y1="744.829546261" y2="730.695480239" /><line stroke="rgb(0%,0%,0%)" x1="355.335154935" x2="356.386573057" y1="722.054955469" y2="724.427705882" /><line stroke="rgb(0%,0%,0%)" x1="358.362133729" x2="356.386573057" y1="730.695480239" y2="724.427705882" /><line stroke="rgb(0%,0%,0%)" x1="357.519222407" x2="361.020869578" y1="669.696031316" y2="667.960146156" /><line stroke="rgb(0%,0%,0%)" x1="368.110161007" x2="368.036057938" y1="804.615702926" y2="804.279633495" /><line stroke="rgb(0%,0%,0%)" x1="368.036057938" x2="368.046398945" y1="804.279633495" y2="804.078281346" /><line stroke="rgb(0%,0%,0%)" x1="368.046398945" x2="367.968356414" y1="804.078281346" y2="803.926706516" /><line stroke="rgb(0%,0%,0%)" x1="368.906349131" x2="368.735845504" y1="778.943725573" y2="774.437365268" /><line stroke="rgb(0%,0%,0%)" x1="366.096186629" x2="368.544168035" y1="757.797484738" y2="767.478030862" /><line stroke="rgb(0%,0%,0%)" x1="369.035012221" x2="379.353078279" y1="664.572683561" y2="658.0600107" /><line stroke="rgb(0%,0%,0%)" x1="386.763046333" x2="387.810965644" y1="655.136870713" y2="655.02098678" /><line stroke="rgb(0%,0%,0%)" x1="322.101421064" x2="323.231575222" y1="858.211702181" y2="859.103639521" /><line stroke="rgb(0%,0%,0%)" x1="322.101421064" x2="320.819970993" y1="858.211702181" y2="857.429013526" /><line stroke="rgb(0%,0%,0%)" x1="320.819970993" x2="319.354249913" y1="857.429013526" y2="856.425558165" /><line stroke="rgb(0%,0%,0%)" x1="327.485793679" x2="332.253540707" y1="860.605513253" y2="858.664870799" /><line stroke="rgb(0%,0%,0%)" x1="337.916612396" x2="341.993986703" y1="854.363361252" y2="851.371096021" /><line stroke="rgb(0%,0%,0%)" x1="341.993986703" x2="348.992461863" y1="851.371096021" y2="848.591700959" /><line stroke="rgb(0%,0%,0%)" x1="348.992461863" x2="349.439965894" y1="848.591700959" y2="848.18307559" /><line stroke="rgb(0%,0%,0%)" x1="349.439965894" x2="350.177671922" y1="848.18307559" y2="845.892677676" /><line stroke="rgb(0%,0%,0%)" x1="354.360452862" x2="344.315073735" y1="720.540919582" y2="706.560340826" /><line stroke="rgb(0%,0%,0%)" x1="344.796120113" x2="344.898339941" y1="701.89131397" y2="698.553909332" /><line stroke="rgb(0%,0%,0%)" x1="344.898339941" x2="345.809538637" y1="698.553909332" y2="691.407162706" /><line stroke="rgb(0%,0%,0%)" x1="345.428304291" x2="345.027933464" y1="685.907318967" y2="684.194983744" /><line stroke="rgb(0%,0%,0%)" x1="345.027933464" x2="345.083356156" y1="684.194983744" y2="682.958316206" /><line stroke="rgb(0%,0%,0%)" x1="363.480248525" x2="361.486453204" y1="749.514397416" y2="745.925026036" /><line stroke="rgb(0%,0%,0%)" x1="361.486453204" x2="361.289064342" y1="745.925026036" y2="744.829546261" /><line stroke="rgb(0%,0%,0%)" x1="365.989833977" x2="366.50430176" y1="815.104976737" y2="812.362504914" /><line stroke="rgb(0%,0%,0%)" x1="366.50430176" x2="367.173168101" y1="812.362504914" y2="811.372366248" /><line stroke="rgb(0%,0%,0%)" x1="368.735845504" x2="368.544168035" y1="774.437365268" y2="767.478030862" /><line stroke="rgb(0%,0%,0%)" x1="283.979508681" x2="278.752726436" y1="741.897102607" y2="737.655294381" /><line stroke="rgb(0%,0%,0%)" x1="264.512760704" x2="278.752726436" y1="729.883308556" y2="737.655294381" /><line stroke="rgb(0%,0%,0%)" x1="262.611128034" x2="264.512760704" y1="728.977435714" y2="729.883308556" /><line stroke="rgb(0%,0%,0%)" x1="323.231575222" x2="326.036288184" y1="859.103639521" y2="860.384434089" /><line stroke="rgb(0%,0%,0%)" x1="317.983814685" x2="319.354249913" y1="854.952789424" y2="856.425558165" /><line stroke="rgb(0%,0%,0%)" x1="326.036288184" x2="327.485793679" y1="860.384434089" y2="860.605513253" /><line stroke="rgb(0%,0%,0%)" x1="332.253540707" x2="337.916612396" y1="858.664870799" y2="854.363361252" /><line stroke="rgb(0%,0%,0%)" x1="228.760547365" x2="229.508293798" y1="705.582790293" y2="706.309752555" /><line stroke="rgb(0%,0%,0%)" x1="248.066065185" x2="247.425233705" y1="725.600013428" y2="725.243195527" /><line stroke="rgb(0%,0%,0%)" x1="238.286552259" x2="239.653248184" y1="718.068578353" y2="719.188257505" /><line stroke="rgb(0%,0%,0%)" x1="229.508293798" x2="238.286552259" y1="706.309752555" y2="718.068578353" /><line stroke="rgb(0%,0%,0%)" x1="248.066065185" x2="261.273805018" y1="725.600013428" y2="728.366682024" /><line stroke="rgb(0%,0%,0%)" x1="261.273805018" x2="261.462838406" y1="728.366682024" y2="728.435328366" /><line stroke="rgb(0%,0%,0%)" x1="239.653248184" x2="247.425233705" y1="719.188257505" y2="725.243195527" /><line stroke="rgb(0%,0%,0%)" x1="261.462838406" x2="261.768522225" y1="728.435328366" y2="728.513743039" /><line stroke="rgb(0%,0%,0%)" x1="261.768522225" x2="262.611128034" y1="728.513743039" y2="728.977435714" /><line stroke="rgb(0%,0%,0%)" x1="213.43961002" x2="208.773126959" y1="670.800549955" y2="667.365814487" /><line stroke="rgb(0%,0%,0%)" x1="206.677897366" x2="208.773126959" y1="664.981724686" y2="667.365814487" /><line stroke="rgb(0%,0%,0%)" x1="204.639553467" x2="205.30471312" y1="663.112002182" y2="664.381078934" /><line stroke="rgb(0%,0%,0%)" x1="204.639553467" x2="203.888182753" y1="663.112002182" y2="662.858305025" /><line stroke="rgb(0%,0%,0%)" x1="203.888182753" x2="199.578076589" y1="662.858305025" y2="658.491328205" /><line stroke="rgb(0%,0%,0%)" x1="228.760547365" x2="225.797216581" y1="705.582790293" y2="701.126049667" /><line stroke="rgb(0%,0%,0%)" x1="218.56774409" x2="225.797216581" y1="688.045446227" y2="701.126049667" /><line stroke="rgb(0%,0%,0%)" x1="215.731377817" x2="218.56774409" y1="677.105485289" y2="688.045446227" /><line stroke="rgb(0%,0%,0%)" x1="215.731377817" x2="214.796919282" y1="677.105485289" y2="671.830633836" /><line stroke="rgb(0%,0%,0%)" x1="188.185754672" x2="193.171923972" y1="651.19652661" y2="653.152565525" /><line stroke="rgb(0%,0%,0%)" x1="187.76764818" x2="188.185754672" y1="651.067383606" y2="651.19652661" /><line stroke="rgb(0%,0%,0%)" x1="187.76764818" x2="180.054780703" y1="651.067383606" y2="646.099710334" /><line stroke="rgb(0%,0%,0%)" x1="205.30471312" x2="206.677897366" y1="664.381078934" y2="664.981724686" /><line stroke="rgb(0%,0%,0%)" x1="199.422129048" x2="199.578076589" y1="658.263070855" y2="658.491328205" /><line stroke="rgb(0%,0%,0%)" x1="197.638340151" x2="199.286621051" y1="657.370187429" y2="658.21276931" /><line stroke="rgb(0%,0%,0%)" x1="197.638340151" x2="193.464588578" y1="657.370187429" y2="653.571145927" /><line stroke="rgb(0%,0%,0%)" x1="193.171923972" x2="193.464588578" y1="653.152565525" y2="653.571145927" /><line stroke="rgb(0%,0%,0%)" x1="214.371934644" x2="214.796919282" y1="671.236323464" y2="671.830633836" /><line stroke="rgb(0%,0%,0%)" x1="213.43961002" x2="214.371934644" y1="670.800549955" y2="671.236323464" /><line stroke="rgb(0%,0%,0%)" x1="199.286621051" x2="199.422129048" y1="658.21276931" y2="658.263070855" /><line stroke="rgb(0%,0%,0%)" x1="134.210381924" x2="127.07634857" y1="631.537496709" y2="630.738822451" /><line stroke="rgb(0%,0%,0%)" x1="134.210381924" x2="142.656725707" y1="631.537496709" y2="631.447139898" /><line stroke="rgb(0%,0%,0%)" x1="142.656725707" x2="143.719728656" y1="631.447139898" y2="631.316092419" /><line stroke="rgb(0%,0%,0%)" x1="143.719728656" x2="144.329426831" y1="631.316092419" y2="631.446382643" /><line stroke="rgb(0%,0%,0%)" x1="157.041159017" x2="144.329426831" y1="633.735315149" y2="631.446382643" /><line stroke="rgb(0%,0%,0%)" x1="157.041159017" x2="162.347918724" y1="633.735315149" y2="637.112636443" /><line stroke="rgb(0%,0%,0%)" x1="162.347918724" x2="180.002816218" y1="637.112636443" y2="646.072099123" /><line stroke="rgb(0%,0%,0%)" x1="180.002816218" x2="180.043766773" y1="646.072099123" y2="646.094819734" /><line stroke="rgb(0%,0%,0%)" x1="180.043766773" x2="180.054780703" y1="646.094819734" y2="646.099710334" /><line stroke="rgb(0%,0%,0%)" x1="86.5280156294" x2="85.4431460619" y1="623.864804565" y2="623.326588245" /><line stroke="rgb(0%,0%,0%)" x1="108.555258809" x2="121.388018446" y1="626.969474066" y2="630.074496485" /><line stroke="rgb(0%,0%,0%)" x1="121.388018446" x2="123.209372339" y1="630.074496485" y2="630.198594326" /><line stroke="rgb(0%,0%,0%)" x1="108.555258809" x2="103.652605895" y1="626.969474066" y2="627.633460481" /><line stroke="rgb(0%,0%,0%)" x1="123.209372339" x2="127.07634857" y1="630.198594326" y2="630.738822451" /><line stroke="rgb(0%,0%,0%)" x1="58.079467687" x2="55.5876520938" y1="610.677464277" y2="608.33207837" /><line stroke="rgb(0%,0%,0%)" x1="67.0918623481" x2="70.2994452048" y1="616.558627143" y2="617.662560815" /><line stroke="rgb(0%,0%,0%)" x1="63.7211073875" x2="67.0918623481" y1="613.401063764" y2="616.558627143" /><line stroke="rgb(0%,0%,0%)" x1="58.079467687" x2="63.7211073875" y1="610.677464277" y2="613.401063764" /><line stroke="rgb(0%,0%,0%)" x1="80.4517267986" x2="85.4431460619" y1="621.09405947" y2="623.326588245" /><line stroke="rgb(0%,0%,0%)" x1="75.3656910781" x2="80.4517267986" y1="619.604522346" y2="621.09405947" /><line stroke="rgb(0%,0%,0%)" x1="86.5280156294" x2="90.6496856785" y1="623.864804565" y2="624.81871313" /><line stroke="rgb(0%,0%,0%)" x1="90.6496856785" x2="102.118333366" y1="624.81871313" y2="627.226143118" /><line stroke="rgb(0%,0%,0%)" x1="102.118333366" x2="103.652605895" y1="627.226143118" y2="627.633460481" /><line stroke="rgb(0%,0%,0%)" x1="16.6864893427" x2="16.6593689575" y1="507.249633643" y2="501.1998772" /><line stroke="rgb(0%,0%,0%)" x1="16.6864893427" x2="18.7508653816" y1="507.249633643" y2="513.723161017" /><line stroke="rgb(0%,0%,0%)" x1="18.2603772674" x2="16.6593689575" y1="498.828003599" y2="501.1998772" /><line stroke="rgb(0%,0%,0%)" x1="20.2591786702" x2="18.2603772674" y1="496.037513145" y2="498.828003599" /><line stroke="rgb(0%,0%,0%)" x1="20.2591786702" x2="19.2993199795" y1="496.037513145" y2="494.494577593" /><line stroke="rgb(0%,0%,0%)" x1="14.6393639087" x2="16.4295646242" y1="491.520688149" y2="492.909061886" /><line stroke="rgb(0%,0%,0%)" x1="14.1796140303" x2="11.4572307889" y1="489.552617011" y2="481.91859364" /><line stroke="rgb(0%,0%,0%)" x1="11.2367319728" x2="18.7994892034" y1="471.833251387" y2="463.996194156" /><line stroke="rgb(0%,0%,0%)" x1="11.2367319728" x2="11.3549836932" y1="471.833251387" y2="477.922413756" /><line stroke="rgb(0%,0%,0%)" x1="30.2152406713" x2="30.8912514777" y1="564.080743747" y2="566.809658488" /><line stroke="rgb(0%,0%,0%)" x1="30.8912514777" x2="32.5432072066" y1="566.809658488" y2="569.486544721" /><line stroke="rgb(0%,0%,0%)" x1="30.2152406713" x2="29.2164947239" y1="564.080743747" y2="563.685946457" /><line stroke="rgb(0%,0%,0%)" x1="27.3584477077" x2="29.2164947239" y1="559.85327307" y2="563.685946457" /><line stroke="rgb(0%,0%,0%)" x1="27.3584477077" x2="25.2366213755" y1="559.85327307" y2="557.303373632" /><line stroke="rgb(0%,0%,0%)" x1="20.5822044143" x2="20.2205690807" y1="535.388867623" y2="538.695438531" /><line stroke="rgb(0%,0%,0%)" x1="20.5822044143" x2="18.6746923237" y1="535.388867623" y2="529.814311249" /><line stroke="rgb(0%,0%,0%)" x1="18.0549030103" x2="18.2043671675" y1="518.246605551" y2="525.000623674" /><line stroke="rgb(0%,0%,0%)" x1="18.7508653816" x2="18.0549030103" y1="513.723161017" y2="518.246605551" /><line stroke="rgb(0%,0%,0%)" x1="43.1238704352" x2="45.0084401546" y1="588.026141849" y2="593.658145661" /><line stroke="rgb(0%,0%,0%)" x1="45.0084401546" x2="45.047314596" y1="593.658145661" y2="593.715404055" /><line stroke="rgb(0%,0%,0%)" x1="38.9902343868" x2="43.1238704352" y1="583.200176235" y2="588.026141849" /><line stroke="rgb(0%,0%,0%)" x1="38.9902343868" x2="36.4787469895" y1="583.200176235" y2="579.162856051" /><line stroke="rgb(0%,0%,0%)" x1="33.8837330673" x2="32.5432072066" y1="573.458870336" y2="569.486544721" /><line stroke="rgb(0%,0%,0%)" x1="35.7450307804" x2="36.4787469895" y1="576.284413098" y2="579.162856051" /><line stroke="rgb(0%,0%,0%)" x1="33.8837330673" x2="35.7450307804" y1="573.458870336" y2="576.284413098" /><line stroke="rgb(0%,0%,0%)" x1="53.0521868735" x2="55.5876520938" y1="605.207105448" y2="608.33207837" /><line stroke="rgb(0%,0%,0%)" x1="51.7450279797" x2="53.0521868735" y1="603.919086595" y2="605.207105448" /><line stroke="rgb(0%,0%,0%)" x1="49.7777354214" x2="51.7450279797" y1="600.464134524" y2="603.919086595" /><line stroke="rgb(0%,0%,0%)" x1="49.5567418926" x2="49.7777354214" y1="599.127522816" y2="600.464134524" /><line stroke="rgb(0%,0%,0%)" x1="49.5567418926" x2="45.1763548634" y1="599.127522816" y2="593.948641239" /><line stroke="rgb(0%,0%,0%)" x1="45.047314596" x2="45.1763548634" y1="593.715404055" y2="593.948641239" /><line stroke="rgb(0%,0%,0%)" x1="70.2994452048" x2="75.3656910781" y1="617.662560815" y2="619.604522346" /><line stroke="rgb(0%,0%,0%)" x1="20.2205690807" x2="21.5165372514" y1="538.695438531" y2="543.340528351" /><line stroke="rgb(0%,0%,0%)" x1="18.4530400806" x2="18.6746923237" y1="527.479015049" y2="529.814311249" /><line stroke="rgb(0%,0%,0%)" x1="18.2043671675" x2="18.6450107903" y1="525.000623674" y2="526.76979425" /><line stroke="rgb(0%,0%,0%)" x1="18.6450107903" x2="18.4530400806" y1="526.76979425" y2="527.479015049" /><line stroke="rgb(0%,0%,0%)" x1="16.4295646242" x2="19.2993199795" y1="492.909061886" y2="494.494577593" /><line stroke="rgb(0%,0%,0%)" x1="14.1796140303" x2="14.6393639087" y1="489.552617011" y2="491.520688149" /><line stroke="rgb(0%,0%,0%)" x1="11.3549836932" x2="11.4572307889" y1="477.922413756" y2="481.91859364" /><line stroke="rgb(0%,0%,0%)" x1="20.7308926901" x2="18.7994892034" y1="461.713181675" y2="463.996194156" /><line stroke="rgb(0%,0%,0%)" x1="24.1375412504" x2="25.2366213755" y1="553.378943329" y2="557.303373632" /><line stroke="rgb(0%,0%,0%)" x1="24.0405771173" x2="24.1375412504" y1="548.972212723" y2="553.378943329" /><line stroke="rgb(0%,0%,0%)" x1="24.0405771173" x2="21.5165372514" y1="548.972212723" y2="543.340528351" /><line stroke="rgb(0%,0%,0%)" x1="449.43702872" x2="444.553867081" y1="622.707815375" y2="625.770377115" /><line stroke="rgb(0%,0%,0%)" x1="449.43702872" x2="450.338894283" y1="622.707815375" y2="621.879442916" /><line stroke="rgb(0%,0%,0%)" x1="450.338894283" x2="455.438239498" y1="621.879442916" y2="615.849990459" /><line stroke="rgb(0%,0%,0%)" x1="457.207425594" x2="455.438239498" y1="614.349920815" y2="615.849990459" /><line stroke="rgb(0%,0%,0%)" x1="457.207425594" x2="459.119770805" y1="614.349920815" y2="611.822664229" /><line stroke="rgb(0%,0%,0%)" x1="459.119770805" x2="461.826382" y1="611.822664229" y2="606.780021172" /><line stroke="rgb(0%,0%,0%)" x1="461.826382" x2="462.524586034" y1="606.780021172" y2="603.731183579" /><line stroke="rgb(0%,0%,0%)" x1="462.524586034" x2="462.705170268" y1="603.731183579" y2="603.511533495" /><line stroke="rgb(0%,0%,0%)" x1="462.705170268" x2="462.85644072" y1="603.511533495" y2="603.321591383" /><line stroke="rgb(0%,0%,0%)" x1="462.85644072" x2="463.37658686" y1="603.321591383" y2="602.241871932" /><line stroke="rgb(0%,0%,0%)" x1="466.028228351" x2="463.37658686" y1="597.454335857" y2="602.241871932" /><line stroke="rgb(0%,0%,0%)" x1="466.028228351" x2="467.032702472" y1="597.454335857" y2="596.060133265" /><line stroke="rgb(0%,0%,0%)" x1="467.032702472" x2="471.020311143" y1="596.060133265" y2="592.667916105" /><line stroke="rgb(0%,0%,0%)" x1="471.959725828" x2="474.82768831" y1="591.430188509" y2="589.686377358" /><line stroke="rgb(0%,0%,0%)" x1="471.959725828" x2="471.020311143" y1="591.430188509" y2="592.667916105" /><line stroke="rgb(0%,0%,0%)" x1="474.82768831" x2="479.537914402" y1="589.686377358" y2="583.775333452" /><line stroke="rgb(0%,0%,0%)" x1="479.537914402" x2="480.305532397" y1="583.775333452" y2="582.745744094" /><line stroke="rgb(0%,0%,0%)" x1="480.305532397" x2="481.58193142" y1="582.745744094" y2="581.547370276" /><line stroke="rgb(0%,0%,0%)" x1="488.178151059" x2="492.560215049" y1="573.82939211" y2="568.433272929" /><line stroke="rgb(0%,0%,0%)" x1="481.58193142" x2="488.178151059" y1="581.547370276" y2="573.82939211" /><line stroke="rgb(0%,0%,0%)" x1="492.560215049" x2="492.59163673" y1="568.433272929" y2="568.259898344" /><line stroke="rgb(0%,0%,0%)" x1="492.59163673" x2="492.854103927" y1="568.259898344" y2="567.419133755" /><line stroke="rgb(0%,0%,0%)" x1="494.506215066" x2="492.854103927" y1="560.830429586" y2="567.419133755" /><line stroke="rgb(0%,0%,0%)" x1="436.486846223" x2="438.439996119" y1="631.145069056" y2="629.827333422" /><line stroke="rgb(0%,0%,0%)" x1="438.439996119" x2="444.553867081" y1="629.827333422" y2="625.770377115" /><line stroke="rgb(0%,0%,0%)" x1="291.598548852" x2="296.009223629" y1="750.655896596" y2="756.10568827" /><line stroke="rgb(0%,0%,0%)" x1="291.598548852" x2="287.973073534" y1="750.655896596" y2="746.845705626" /><line stroke="rgb(0%,0%,0%)" x1="310.559540104" x2="306.347628882" y1="796.028324194" y2="791.014893037" /><line stroke="rgb(0%,0%,0%)" x1="303.016751376" x2="306.347628882" y1="782.229739315" y2="791.014893037" /><line stroke="rgb(0%,0%,0%)" x1="301.779437796" x2="303.016751376" y1="779.022566306" y2="782.229739315" /><line stroke="rgb(0%,0%,0%)" x1="301.543425275" x2="301.779437796" y1="771.278056479" y2="779.022566306" /><line stroke="rgb(0%,0%,0%)" x1="301.529063802" x2="301.543425275" y1="771.190687264" y2="771.278056479" /><line stroke="rgb(0%,0%,0%)" x1="301.529063802" x2="301.559272107" y1="771.190687264" y2="770.687328542" /><line stroke="rgb(0%,0%,0%)" x1="301.046652291" x2="301.559272107" y1="764.253571954" y2="770.687328542" /><line stroke="rgb(0%,0%,0%)" x1="298.151944419" x2="301.046652291" y1="758.437460041" y2="764.253571954" /><line stroke="rgb(0%,0%,0%)" x1="296.009223629" x2="298.151944419" y1="756.10568827" y2="758.437460041" /><line stroke="rgb(0%,0%,0%)" x1="317.019748861" x2="317.983814685" y1="852.55972478" y2="854.952789424" /><line stroke="rgb(0%,0%,0%)" x1="314.178477193" x2="315.329339806" y1="849.299708381" y2="850.699483335" /><line stroke="rgb(0%,0%,0%)" x1="317.019748861" x2="315.329339806" y1="852.55972478" y2="850.699483335" /><line stroke="rgb(0%,0%,0%)" x1="313.86820998" x2="314.178477193" y1="848.390656752" y2="849.299708381" /><line stroke="rgb(0%,0%,0%)" x1="313.86820998" x2="312.49864261" y1="848.390656752" y2="835.793694984" /><line stroke="rgb(0%,0%,0%)" x1="312.718351771" x2="312.49864261" y1="834.814243518" y2="835.793694984" /><line stroke="rgb(0%,0%,0%)" x1="312.729087805" x2="312.718351771" y1="833.919166787" y2="834.814243518" /><line stroke="rgb(0%,0%,0%)" x1="314.000803023" x2="312.729087805" y1="828.033347518" y2="833.919166787" /><line stroke="rgb(0%,0%,0%)" x1="315.013668235" x2="314.000803023" y1="822.836844652" y2="828.033347518" /><line stroke="rgb(0%,0%,0%)" x1="316.341812531" x2="315.013668235" y1="813.226113093" y2="822.836844652" /><line stroke="rgb(0%,0%,0%)" x1="316.341812531" x2="317.270694843" y1="813.226113093" y2="808.18359907" /><line stroke="rgb(0%,0%,0%)" x1="316.52449967" x2="317.270694843" y1="806.92820354" y2="808.18359907" /><line stroke="rgb(0%,0%,0%)" x1="314.802862834" x2="316.52449967" y1="803.82837808" y2="806.92820354" /><line stroke="rgb(0%,0%,0%)" x1="310.559540104" x2="314.802862834" y1="796.028324194" y2="803.82837808" /><line stroke="rgb(0%,0%,0%)" x1="285.754189143" x2="287.973073534" y1="743.694310596" y2="746.845705626" /><line stroke="rgb(0%,0%,0%)" x1="283.979508681" x2="285.754189143" y1="741.897102607" y2="743.694310596" /></svg>