<?xml version="1.0" encoding="utf-8" ?>
<svg baseProfile="full" height="100%" version="1.1" viewBox="0.5 0.5 685.793960571 941.299331665" width="100%" xmlns="http://www.w3.org/2000/svg" xmlns:ev="http://www.w3.org/2001/xml-events" xmlns:xlink="http://www.w3.org/1999/xlink"><defs /><line stroke="rgb(0%,0%,0%)" x1="517.795559161" x2="515.55809301" y1="408.548135776" y2="404.242313859" /><line stroke="rgb(0%,0%,0%)" x1="506.525883964" x2="507.70126055" y1="390.564690851" y2="392.05753312" /><line stroke="rgb(0%,0%,0%)" x1="523.414418135" x2="522.178681642" y1="442.518038409" y2="450.887110352" /><line stroke="rgb(0%,0%,0%)" x1="523.414418135" x2="523.379203397" y1="442.518038409" y2="438.785500749" /><line stroke="rgb(0%,0%,0%)" x1="523.379203397" x2="522.791193519" y1="438.785500749" y2="434.127273972" /><line stroke="rgb(0%,0%,0%)" x1="520.998498142" x2="521.388825894" y1="417.334183965" y2="419.710934656" /><line stroke="rgb(0%,0%,0%)" x1="506.525883964" x2="505.733122388" y1="390.564690851" y2="388.943641637" /><line stroke="rgb(0%,0%,0%)" x1="505.733122388" x2="502.970384961" y1="388.943641637" y2="384.570221807" /><line stroke="rgb(0%,0%,0%)" x1="515.55809301" x2="507.70126055" y1="404.242313859" y2="392.05753312" /><line stroke="rgb(0%,0%,0%)" x1="502.970384961" x2="496.949956457" y1="384.570221807" y2="375.178268265" /><line stroke="rgb(0%,0%,0%)" x1="521.431622953" x2="521.167105156" y1="460.663157473" y2="456.814908676" /><line stroke="rgb(0%,0%,0%)" x1="521.167105156" x2="520.815531513" y1="456.814908676" y2="455.254899636" /><line stroke="rgb(0%,0%,0%)" x1="520.815531513" x2="522.178681642" y1="455.254899636" y2="450.887110352" /><line stroke="rgb(0%,0%,0%)" x1="522.791193519" x2="521.388825894" y1="434.127273972" y2="419.710934656" /><line stroke="rgb(0%,0%,0%)" x1="520.998498142" x2="517.795559161" y1="417.334183965" y2="408.548135776" /><line stroke="rgb(0%,0%,0%)" x1="489.882495525" x2="488.185646347" y1="364.143849807" y2="361.808770395" /><line stroke="rgb(0%,0%,0%)" x1="496.949956457" x2="495.312831384" y1="375.178268265" y2="373.258871199" /><line stroke="rgb(0%,0%,0%)" x1="489.882495525" x2="495.312831384" y1="364.143849807" y2="373.258871199" /><line stroke="rgb(0%,0%,0%)" x1="521.529797392" x2="521.431622953" y1="462.837462297" y2="460.663157473" /><line stroke="rgb(0%,0%,0%)" x1="424.322821069" x2="424.932616582" y1="289.138578543" y2="289.654331224" /><line stroke="rgb(0%,0%,0%)" x1="424.932616582" x2="427.385949614" y1="289.654331224" y2="291.299063685" /><line stroke="rgb(0%,0%,0%)" x1="386.435189628" x2="404.668011542" y1="263.124237903" y2="273.203507096" /><line stroke="rgb(0%,0%,0%)" x1="423.765718541" x2="411.987277928" y1="288.661694229" y2="279.042563643" /><line stroke="rgb(0%,0%,0%)" x1="411.987277928" x2="405.412237975" y1="279.042563643" y2="273.675474052" /><line stroke="rgb(0%,0%,0%)" x1="424.322821069" x2="423.765718541" y1="289.138578543" y2="288.661694229" /><line stroke="rgb(0%,0%,0%)" x1="437.536011692" x2="437.131106576" y1="298.085963189" y2="297.816162078" /><line stroke="rgb(0%,0%,0%)" x1="437.131106576" x2="427.385949614" y1="297.816162078" y2="291.299063685" /><line stroke="rgb(0%,0%,0%)" x1="340.581904815" x2="340.592358935" y1="177.596453377" y2="177.166116019" /><line stroke="rgb(0%,0%,0%)" x1="340.592358935" x2="345.366534891" y1="177.166116019" y2="168.142953523" /><line stroke="rgb(0%,0%,0%)" x1="347.677526794" x2="347.74646829" y1="159.126832968" y2="163.592847566" /><line stroke="rgb(0%,0%,0%)" x1="347.677526794" x2="347.931792177" y1="159.126832968" y2="155.957415594" /><line stroke="rgb(0%,0%,0%)" x1="347.931792177" x2="347.01068808" y1="155.957415594" y2="151.888102765" /><line stroke="rgb(0%,0%,0%)" x1="358.666870416" x2="344.983111457" y1="252.588214817" y2="249.214006927" /><line stroke="rgb(0%,0%,0%)" x1="367.738905478" x2="358.666870416" y1="256.339437184" y2="252.588214817" /><line stroke="rgb(0%,0%,0%)" x1="386.435189628" x2="376.158728014" y1="263.124237903" y2="258.889586309" /><line stroke="rgb(0%,0%,0%)" x1="376.158728014" x2="367.738905478" y1="258.889586309" y2="256.339437184" /><line stroke="rgb(0%,0%,0%)" x1="405.2129922" x2="404.668011542" y1="273.501067616" y2="273.203507096" /><line stroke="rgb(0%,0%,0%)" x1="405.412237975" x2="405.27721507" y1="273.675474052" y2="273.564226596" /><line stroke="rgb(0%,0%,0%)" x1="279.381169599" x2="280.286226569" y1="71.0125087476" y2="70.0448339302" /><line stroke="rgb(0%,0%,0%)" x1="280.286226569" x2="281.157906088" y1="70.0448339302" y2="69.0444163228" /><line stroke="rgb(0%,0%,0%)" x1="313.884679371" x2="313.429451218" y1="69.1057802562" y2="68.7754936209" /><line stroke="rgb(0%,0%,0%)" x1="313.884679371" x2="314.172234307" y1="69.1057802562" y2="69.4753740371" /><line stroke="rgb(0%,0%,0%)" x1="323.722333732" x2="314.172234307" y1="78.9344253598" y2="69.4753740371" /><line stroke="rgb(0%,0%,0%)" x1="313.429451218" x2="311.520072667" y1="68.7754936209" y2="68.1347954525" /><line stroke="rgb(0%,0%,0%)" x1="329.680741123" x2="328.127451322" y1="228.388303142" y2="231.440617016" /><line stroke="rgb(0%,0%,0%)" x1="334.855658961" x2="329.404273525" y1="98.9322109855" y2="92.1969760959" /><line stroke="rgb(0%,0%,0%)" x1="329.404273525" x2="328.644349828" y1="92.1969760959" y2="91.278688656" /><line stroke="rgb(0%,0%,0%)" x1="328.644349828" x2="326.854949447" y1="91.278688656" y2="86.3516418316" /><line stroke="rgb(0%,0%,0%)" x1="326.854949447" x2="324.867080726" y1="86.3516418316" y2="82.3176767594" /><line stroke="rgb(0%,0%,0%)" x1="324.247528227" x2="324.867080726" y1="79.9453847153" y2="82.3176767594" /><line stroke="rgb(0%,0%,0%)" x1="323.722333732" x2="324.247528227" y1="78.9344253598" y2="79.9453847153" /><line stroke="rgb(0%,0%,0%)" x1="340.087806997" x2="329.502513429" y1="249.21986618" y2="242.844371744" /><line stroke="rgb(0%,0%,0%)" x1="344.983111457" x2="340.087806997" y1="249.214006927" y2="249.21986618" /><line stroke="rgb(0%,0%,0%)" x1="330.175706335" x2="329.680741123" y1="225.959030302" y2="228.388303142" /><line stroke="rgb(0%,0%,0%)" x1="330.175706335" x2="330.261657538" y1="225.959030302" y2="221.191320199" /><line stroke="rgb(0%,0%,0%)" x1="330.261657538" x2="328.652496015" y1="221.191320199" y2="213.995309805" /><line stroke="rgb(0%,0%,0%)" x1="328.652496015" x2="332.130092004" y1="213.995309805" y2="210.969052985" /><line stroke="rgb(0%,0%,0%)" x1="333.276793174" x2="332.130092004" y1="206.67307611" y2="210.969052985" /><line stroke="rgb(0%,0%,0%)" x1="333.276793174" x2="336.515330106" y1="206.67307611" y2="200.849521689" /><line stroke="rgb(0%,0%,0%)" x1="336.515330106" x2="338.124548109" y1="200.849521689" y2="196.383814749" /><line stroke="rgb(0%,0%,0%)" x1="339.396972756" x2="338.848758414" y1="185.152421507" y2="192.198960561" /><line stroke="rgb(0%,0%,0%)" x1="339.396972756" x2="340.581904815" y1="185.152421507" y2="177.596453377" /><line stroke="rgb(0%,0%,0%)" x1="345.366534891" x2="347.699162293" y1="168.142953523" y2="163.769893912" /><line stroke="rgb(0%,0%,0%)" x1="340.471456932" x2="340.37067999" y1="135.711756807" y2="134.842053994" /><line stroke="rgb(0%,0%,0%)" x1="340.471456932" x2="341.034432858" y1="135.711756807" y2="136.699584119" /><line stroke="rgb(0%,0%,0%)" x1="340.37067999" x2="340.573241583" y1="134.842053994" y2="130.648877789" /><line stroke="rgb(0%,0%,0%)" x1="340.573241583" x2="341.623484893" y1="130.648877789" y2="113.725271169" /><line stroke="rgb(0%,0%,0%)" x1="341.554904289" x2="341.623484893" y1="106.229142216" y2="113.725271169" /><line stroke="rgb(0%,0%,0%)" x1="340.821687177" x2="337.578252745" y1="105.690533745" y2="101.927353374" /><line stroke="rgb(0%,0%,0%)" x1="341.554904289" x2="340.821687177" y1="106.229142216" y2="105.690533745" /><line stroke="rgb(0%,0%,0%)" x1="336.565472329" x2="337.578252745" y1="100.232487161" y2="101.927353374" /><line stroke="rgb(0%,0%,0%)" x1="334.855658961" x2="336.565472329" y1="98.9322109855" y2="100.232487161" /><line stroke="rgb(0%,0%,0%)" x1="347.699162293" x2="347.74646829" y1="163.769893912" y2="163.592847566" /><line stroke="rgb(0%,0%,0%)" x1="347.01068808" x2="345.807946545" y1="151.888102765" y2="147.555510585" /><line stroke="rgb(0%,0%,0%)" x1="345.807946545" x2="341.034432858" y1="147.555510585" y2="136.699584119" /><line stroke="rgb(0%,0%,0%)" x1="405.27721507" x2="405.2129922" y1="273.564226596" y2="273.501067616" /><line stroke="rgb(0%,0%,0%)" x1="279.381169599" x2="278.982136596" y1="71.0125087476" y2="72.7699552345" /><line stroke="rgb(0%,0%,0%)" x1="278.982136596" x2="278.732873016" y1="72.7699552345" y2="75.8252976816" /><line stroke="rgb(0%,0%,0%)" x1="286.931476818" x2="286.812272721" y1="129.596154539" y2="129.143167718" /><line stroke="rgb(0%,0%,0%)" x1="287.98268463" x2="287.100983114" y1="116.203330022" y2="123.725793178" /><line stroke="rgb(0%,0%,0%)" x1="288.954032974" x2="287.596450557" y1="90.1749854254" y2="96.2132224836" /><line stroke="rgb(0%,0%,0%)" x1="288.954032974" x2="287.29786737" y1="90.1749854254" y2="87.494951704" /><line stroke="rgb(0%,0%,0%)" x1="289.198327781" x2="295.473102296" y1="63.4236335146" y2="64.3429961136" /><line stroke="rgb(0%,0%,0%)" x1="311.520072667" x2="299.961802503" y1="68.1347954525" y2="64.4285980139" /><line stroke="rgb(0%,0%,0%)" x1="299.961802503" x2="295.473102296" y1="64.4285980139" y2="64.3429961136" /><line stroke="rgb(0%,0%,0%)" x1="328.962695678" x2="328.149639981" y1="242.48979518" y2="241.983123741" /><line stroke="rgb(0%,0%,0%)" x1="329.502513429" x2="328.962695678" y1="242.844371744" y2="242.48979518" /><line stroke="rgb(0%,0%,0%)" x1="325.018839093" x2="328.149639981" y1="239.4593629" y2="241.983123741" /><line stroke="rgb(0%,0%,0%)" x1="325.018839093" x2="324.906666607" y1="239.4593629" y2="237.687454106" /><line stroke="rgb(0%,0%,0%)" x1="324.906666607" x2="326.430482456" y1="237.687454106" y2="236.760293642" /><line stroke="rgb(0%,0%,0%)" x1="326.430482456" x2="328.127451322" y1="236.760293642" y2="231.440617016" /><line stroke="rgb(0%,0%,0%)" x1="338.124548109" x2="338.033650024" y1="196.383814749" y2="195.046297591" /><line stroke="rgb(0%,0%,0%)" x1="338.033650024" x2="338.848758414" y1="195.046297591" y2="192.198960561" /><line stroke="rgb(0%,0%,0%)" x1="251.855348291" x2="247.12824085" y1="182.574741246" y2="191.678420319" /><line stroke="rgb(0%,0%,0%)" x1="251.855348291" x2="251.967074433" y1="182.574741246" y2="182.438841908" /><line stroke="rgb(0%,0%,0%)" x1="251.967074433" x2="252.559990243" y1="182.438841908" y2="181.600339922" /><line stroke="rgb(0%,0%,0%)" x1="277.032465715" x2="267.751901099" y1="152.166668713" y2="159.788034088" /><line stroke="rgb(0%,0%,0%)" x1="279.642119453" x2="277.032465715" y1="151.546905996" y2="152.166668713" /><line stroke="rgb(0%,0%,0%)" x1="279.642119453" x2="282.300329777" y1="151.546905996" y2="144.58711282" /><line stroke="rgb(0%,0%,0%)" x1="286.167172532" x2="282.300329777" y1="132.974015545" y2="144.58711282" /><line stroke="rgb(0%,0%,0%)" x1="282.717828168" x2="281.042245344" y1="80.6052718434" y2="77.2668875749" /><line stroke="rgb(0%,0%,0%)" x1="279.223693784" x2="281.042245344" y1="76.1601412281" y2="77.2668875749" /><line stroke="rgb(0%,0%,0%)" x1="278.732873016" x2="279.223693784" y1="75.8252976816" y2="76.1601412281" /><line stroke="rgb(0%,0%,0%)" x1="282.925653471" x2="281.157906088" y1="67.0848266463" y2="69.0444163228" /><line stroke="rgb(0%,0%,0%)" x1="286.931476818" x2="286.167172532" y1="129.596154539" y2="132.974015545" /><line stroke="rgb(0%,0%,0%)" x1="287.100983114" x2="286.812272721" y1="123.725793178" y2="129.143167718" /><line stroke="rgb(0%,0%,0%)" x1="287.542088137" x2="287.98268463" y1="113.414101744" y2="116.203330022" /><line stroke="rgb(0%,0%,0%)" x1="287.542088137" x2="287.439812206" y1="113.414101744" y2="99.0457968197" /><line stroke="rgb(0%,0%,0%)" x1="287.546822217" x2="287.439812206" y1="97.1594275295" y2="99.0457968197" /><line stroke="rgb(0%,0%,0%)" x1="287.596450557" x2="287.546822217" y1="96.2132224836" y2="97.1594275295" /><line stroke="rgb(0%,0%,0%)" x1="286.594091941" x2="287.29786737" y1="83.9307831123" y2="87.494951704" /><line stroke="rgb(0%,0%,0%)" x1="285.411803102" x2="286.594091941" y1="82.1664143132" y2="83.9307831123" /><line stroke="rgb(0%,0%,0%)" x1="282.717828168" x2="285.411803102" y1="80.6052718434" y2="82.1664143132" /><line stroke="rgb(0%,0%,0%)" x1="286.061136243" x2="282.925653471" y1="65.5065958699" y2="67.0848266463" /><line stroke="rgb(0%,0%,0%)" x1="221.585533059" x2="217.562410062" y1="251.601436436" y2="256.465586375" /><line stroke="rgb(0%,0%,0%)" x1="231.93305639" x2="234.93071501" y1="239.196918027" y2="235.348268676" /><line stroke="rgb(0%,0%,0%)" x1="244.21784386" x2="242.29749102" y1="221.376401639" y2="228.773782617" /><line stroke="rgb(0%,0%,0%)" x1="242.29749102" x2="242.195644236" y1="228.773782617" y2="229.322555638" /><line stroke="rgb(0%,0%,0%)" x1="243.724568917" x2="244.21784386" y1="211.970537706" y2="221.376401639" /><line stroke="rgb(0%,0%,0%)" x1="243.724568917" x2="244.475569318" y1="211.970537706" y2="208.540670335" /><line stroke="rgb(0%,0%,0%)" x1="243.537636485" x2="244.475569318" y1="203.842275965" y2="208.540670335" /><line stroke="rgb(0%,0%,0%)" x1="247.12824085" x2="246.58683225" y1="191.678420319" y2="192.828763821" /><line stroke="rgb(0%,0%,0%)" x1="246.58683225" x2="243.537636485" y1="192.828763821" y2="203.842275965" /><line stroke="rgb(0%,0%,0%)" x1="262.563389655" x2="252.559990243" y1="166.993529452" y2="181.600339922" /><line stroke="rgb(0%,0%,0%)" x1="263.345104063" x2="262.563389655" y1="165.118275592" y2="166.993529452" /><line stroke="rgb(0%,0%,0%)" x1="267.751901099" x2="263.345104063" y1="159.788034088" y2="165.118275592" /><line stroke="rgb(0%,0%,0%)" x1="289.198327781" x2="287.478188517" y1="63.4236335146" y2="63.7972301614" /><line stroke="rgb(0%,0%,0%)" x1="287.478188517" x2="286.061136243" y1="63.7972301614" y2="65.5065958699" /><line stroke="rgb(0%,0%,0%)" x1="203.152302854" x2="201.472667409" y1="266.348548693" y2="266.783385142" /><line stroke="rgb(0%,0%,0%)" x1="203.152302854" x2="208.862942145" y1="266.348548693" y2="262.78588262" /><line stroke="rgb(0%,0%,0%)" x1="214.245714629" x2="209.518412835" y1="257.74151534" y2="262.372929504" /><line stroke="rgb(0%,0%,0%)" x1="214.245714629" x2="215.789226505" y1="257.74151534" y2="257.773489514" /><line stroke="rgb(0%,0%,0%)" x1="216.428077378" x2="215.789226505" y1="257.155891248" y2="257.773489514" /><line stroke="rgb(0%,0%,0%)" x1="217.249318599" x2="216.428077378" y1="256.789005342" y2="257.155891248" /><line stroke="rgb(0%,0%,0%)" x1="217.562410062" x2="217.249318599" y1="256.465586375" y2="256.789005342" /><line stroke="rgb(0%,0%,0%)" x1="225.554984308" x2="221.585533059" y1="248.00344032" y2="251.601436436" /><line stroke="rgb(0%,0%,0%)" x1="227.485393014" x2="225.554984308" y1="246.859551008" y2="248.00344032" /><line stroke="rgb(0%,0%,0%)" x1="227.485393014" x2="228.402680894" y1="246.859551008" y2="245.883969157" /><line stroke="rgb(0%,0%,0%)" x1="229.934918434" x2="228.402680894" y1="244.111739435" y2="245.883969157" /><line stroke="rgb(0%,0%,0%)" x1="231.93305639" x2="229.934918434" y1="239.196918027" y2="244.111739435" /><line stroke="rgb(0%,0%,0%)" x1="236.261615327" x2="234.93071501" y1="234.310605769" y2="235.348268676" /><line stroke="rgb(0%,0%,0%)" x1="238.398348506" x2="242.195644236" y1="232.869820479" y2="229.322555638" /><line stroke="rgb(0%,0%,0%)" x1="238.398348506" x2="236.261615327" y1="232.869820479" y2="234.310605769" /><line stroke="rgb(0%,0%,0%)" x1="173.712417714" x2="169.071638227" y1="279.442394766" y2="281.212221842" /><line stroke="rgb(0%,0%,0%)" x1="184.995382307" x2="173.712417714" y1="274.293083189" y2="279.442394766" /><line stroke="rgb(0%,0%,0%)" x1="155.855774351" x2="161.837308447" y1="288.562025663" y2="285.777394755" /><line stroke="rgb(0%,0%,0%)" x1="169.071638227" x2="161.837308447" y1="281.212221842" y2="285.777394755" /><line stroke="rgb(0%,0%,0%)" x1="198.001699144" x2="184.995382307" y1="267.430149686" y2="274.293083189" /><line stroke="rgb(0%,0%,0%)" x1="198.001699144" x2="201.472667409" y1="267.430149686" y2="266.783385142" /><line stroke="rgb(0%,0%,0%)" x1="209.395947517" x2="208.862942145" y1="262.463588621" y2="262.78588262" /><line stroke="rgb(0%,0%,0%)" x1="209.518412835" x2="209.395947517" y1="262.372929504" y2="262.463588621" /><line stroke="rgb(0%,0%,0%)" x1="143.508747518" x2="149.552774873" y1="291.80282157" y2="290.032609804" /><line stroke="rgb(0%,0%,0%)" x1="143.508747518" x2="133.434709795" y1="291.80282157" y2="291.293362352" /><line stroke="rgb(0%,0%,0%)" x1="155.855774351" x2="149.552774873" y1="288.562025663" y2="290.032609804" /><line stroke="rgb(0%,0%,0%)" x1="100.083089277" x2="107.105044652" y1="298.074427759" y2="295.587837971" /><line stroke="rgb(0%,0%,0%)" x1="107.105044652" x2="112.202830103" y1="295.587837971" y2="294.457489685" /><line stroke="rgb(0%,0%,0%)" x1="114.396121895" x2="112.202830103" y1="294.033920655" y2="294.457489685" /><line stroke="rgb(0%,0%,0%)" x1="117.270658001" x2="129.206736936" y1="293.665788" y2="291.136612488" /><line stroke="rgb(0%,0%,0%)" x1="133.434709795" x2="129.206736936" y1="291.293362352" y2="291.136612488" /><line stroke="rgb(0%,0%,0%)" x1="117.270658001" x2="114.396121895" y1="293.665788" y2="294.033920655" /><line stroke="rgb(0%,0%,0%)" x1="43.6534372235" x2="43.8178827463" y1="330.122130656" y2="329.802011093" /><line stroke="rgb(0%,0%,0%)" x1="100.083089277" x2="90.3439519829" y1="298.074427759" y2="299.271788762" /><line stroke="rgb(0%,0%,0%)" x1="90.3439519829" x2="88.4172126452" y1="299.271788762" y2="299.740264596" /><line stroke="rgb(0%,0%,0%)" x1="21.2427324446" x2="21.7709624037" y1="385.534655294" y2="382.327864413" /><line stroke="rgb(0%,0%,0%)" x1="21.2427324446" x2="18.77605385" y1="385.534655294" y2="389.661328414" /><line stroke="rgb(0%,0%,0%)" x1="43.3996399169" x2="42.7219072246" y1="330.752798553" y2="331.823577725" /><line stroke="rgb(0%,0%,0%)" x1="43.6534372235" x2="43.3996399169" y1="330.122130656" y2="330.752798553" /><line stroke="rgb(0%,0%,0%)" x1="43.8178827463" x2="45.2165582705" y1="329.802011093" y2="328.090974343" /><line stroke="rgb(0%,0%,0%)" x1="55.0477191594" x2="45.2165582705" y1="316.473857999" y2="328.090974343" /><line stroke="rgb(0%,0%,0%)" x1="56.6161495459" x2="55.0477191594" y1="314.891681577" y2="316.473857999" /><line stroke="rgb(0%,0%,0%)" x1="57.2633924933" x2="56.6161495459" y1="314.833808292" y2="314.891681577" /><line stroke="rgb(0%,0%,0%)" x1="57.2633924933" x2="62.0384861864" y1="314.833808292" y2="309.132318742" /><line stroke="rgb(0%,0%,0%)" x1="62.8196345362" x2="62.0384861864" y1="308.714814343" y2="309.132318742" /><line stroke="rgb(0%,0%,0%)" x1="73.1834933571" x2="62.8196345362" y1="305.773595205" y2="308.714814343" /><line stroke="rgb(0%,0%,0%)" x1="75.8450150408" x2="73.1834933571" y1="303.917232636" y2="305.773595205" /><line stroke="rgb(0%,0%,0%)" x1="80.2524786536" x2="75.8450150408" y1="302.858706637" y2="303.917232636" /><line stroke="rgb(0%,0%,0%)" x1="80.2524786536" x2="87.7991925767" y1="302.858706637" y2="299.884513525" /><line stroke="rgb(0%,0%,0%)" x1="88.4172126452" x2="87.7991925767" y1="299.740264596" y2="299.884513525" /><line stroke="rgb(0%,0%,0%)" x1="10.4853396795" x2="11.8243289084" y1="448.166826332" y2="451.007299596" /><line stroke="rgb(0%,0%,0%)" x1="10.4853396795" x2="9.9559659086" y1="448.166826332" y2="445.302638757" /><line stroke="rgb(0%,0%,0%)" x1="10.9781492819" x2="10.01767779" y1="433.427980191" y2="435.261162837" /><line stroke="rgb(0%,0%,0%)" x1="9.52207316399" x2="9.9559659086" y1="442.236853081" y2="445.302638757" /><line stroke="rgb(0%,0%,0%)" x1="10.01767779" x2="9.52207316399" y1="435.261162837" y2="442.236853081" /><line stroke="rgb(0%,0%,0%)" x1="17.801154198" x2="14.5200379081" y1="457.051997728" y2="455.144427962" /><line stroke="rgb(0%,0%,0%)" x1="22.8819276909" x2="23.0064185727" y1="459.20391888" y2="460.889402637" /><line stroke="rgb(0%,0%,0%)" x1="17.801154198" x2="22.8819276909" y1="457.051997728" y2="459.20391888" /><line stroke="rgb(0%,0%,0%)" x1="11.8243289084" x2="14.5200379081" y1="451.007299596" y2="455.144427962" /><line stroke="rgb(0%,0%,0%)" x1="11.8604861711" x2="12.2020397564" y1="428.095231287" y2="427.246763678" /><line stroke="rgb(0%,0%,0%)" x1="11.8604861711" x2="10.9781492819" y1="428.095231287" y2="433.427980191" /><line stroke="rgb(0%,0%,0%)" x1="16.0743435713" x2="19.095746267" y1="423.218717247" y2="421.654688377" /><line stroke="rgb(0%,0%,0%)" x1="16.0743435713" x2="12.2020397564" y1="423.218717247" y2="427.246763678" /><line stroke="rgb(0%,0%,0%)" x1="16.3560402445" x2="16.4229400498" y1="407.53611127" y2="415.190771477" /><line stroke="rgb(0%,0%,0%)" x1="16.4229400498" x2="18.855513273" y1="415.190771477" y2="420.721736857" /><line stroke="rgb(0%,0%,0%)" x1="17.4556703044" x2="15.7146311426" y1="397.185333192" y2="402.055858375" /><line stroke="rgb(0%,0%,0%)" x1="15.7146311426" x2="16.3560402445" y1="402.055858375" y2="407.53611127" /><line stroke="rgb(0%,0%,0%)" x1="18.77605385" x2="17.4556703044" y1="389.661328414" y2="397.185333192" /><line stroke="rgb(0%,0%,0%)" x1="24.3983757396" x2="23.1960713956" y1="375.920079289" y2="379.91990557" /><line stroke="rgb(0%,0%,0%)" x1="25.1971413892" x2="24.3983757396" y1="372.871830312" y2="375.920079289" /><line stroke="rgb(0%,0%,0%)" x1="25.1971413892" x2="26.1660837212" y1="372.871830312" y2="368.645015919" /><line stroke="rgb(0%,0%,0%)" x1="27.076976643" x2="26.1660837212" y1="363.413679093" y2="368.645015919" /><line stroke="rgb(0%,0%,0%)" x1="27.076976643" x2="27.3801395522" y1="363.413679093" y2="362.814737984" /><line stroke="rgb(0%,0%,0%)" x1="31.6470690423" x2="27.3801395522" y1="353.538714152" y2="362.814737984" /><line stroke="rgb(0%,0%,0%)" x1="31.6470690423" x2="37.1018575171" y1="353.538714152" y2="342.815996079" /><line stroke="rgb(0%,0%,0%)" x1="39.0012900393" x2="37.1018575171" y1="340.075531538" y2="342.815996079" /><line stroke="rgb(0%,0%,0%)" x1="42.7219072246" x2="39.0012900393" y1="331.823577725" y2="340.075531538" /><line stroke="rgb(0%,0%,0%)" x1="18.855513273" x2="19.095746267" y1="420.721736857" y2="421.654688377" /><line stroke="rgb(0%,0%,0%)" x1="23.1960713956" x2="21.7709624037" y1="379.91990557" y2="382.327864413" /><line stroke="rgb(0%,0%,0%)" x1="523.084195478" x2="522.846713705" y1="498.859011827" y2="500.500806891" /><line stroke="rgb(0%,0%,0%)" x1="523.084195478" x2="523.793162911" y1="498.859011827" y2="492.351474721" /><line stroke="rgb(0%,0%,0%)" x1="495.464656173" x2="498.594123813" y1="555.427769539" y2="552.037778109" /><line stroke="rgb(0%,0%,0%)" x1="509.40330964" x2="505.694833593" y1="532.107845778" y2="538.729198126" /><line stroke="rgb(0%,0%,0%)" x1="509.40330964" x2="514.870630865" y1="532.107845778" y2="524.155085725" /><line stroke="rgb(0%,0%,0%)" x1="514.870630865" x2="518.912569433" y1="524.155085725" y2="517.095922549" /><line stroke="rgb(0%,0%,0%)" x1="518.912569433" x2="522.565357074" y1="517.095922549" y2="508.604516228" /><line stroke="rgb(0%,0%,0%)" x1="522.565357074" x2="522.925376358" y1="508.604516228" y2="505.463741366" /><line stroke="rgb(0%,0%,0%)" x1="522.846713705" x2="522.925376358" y1="500.500806891" y2="505.463741366" /><line stroke="rgb(0%,0%,0%)" x1="523.793162911" x2="524.603277864" y1="492.351474721" y2="482.121706202" /><line stroke="rgb(0%,0%,0%)" x1="449.898768174" x2="451.004022116" y1="312.282512507" y2="313.808517949" /><line stroke="rgb(0%,0%,0%)" x1="449.898768174" x2="447.238833508" y1="312.282512507" y2="308.164018631" /><line stroke="rgb(0%,0%,0%)" x1="469.64386289" x2="470.2617345" y1="335.530104766" y2="336.190691778" /><line stroke="rgb(0%,0%,0%)" x1="470.2617345" x2="471.157451699" y1="336.190691778" y2="337.178584712" /><line stroke="rgb(0%,0%,0%)" x1="469.64386289" x2="464.469235908" y1="335.530104766" y2="330.376516905" /><line stroke="rgb(0%,0%,0%)" x1="464.469235908" x2="459.640309994" y1="330.376516905" y2="325.463041429" /><line stroke="rgb(0%,0%,0%)" x1="486.337788052" x2="481.402881404" y1="358.215635743" y2="349.678796724" /><line stroke="rgb(0%,0%,0%)" x1="481.402881404" x2="476.956752" y1="349.678796724" y2="344.43345529" /><line stroke="rgb(0%,0%,0%)" x1="488.45471885" x2="488.455315886" y1="567.339379964" y2="567.337119321" /><line stroke="rgb(0%,0%,0%)" x1="489.618443823" x2="495.464656173" y1="564.394386424" y2="555.427769539" /><line stroke="rgb(0%,0%,0%)" x1="498.594123813" x2="500.209271949" y1="552.037778109" y2="549.807981893" /><line stroke="rgb(0%,0%,0%)" x1="488.185646347" x2="487.11724916" y1="361.808770395" y2="359.958717564" /><line stroke="rgb(0%,0%,0%)" x1="486.337788052" x2="487.11724916" y1="358.215635743" y2="359.958717564" /><line stroke="rgb(0%,0%,0%)" x1="500.209271949" x2="500.652738553" y1="549.807981893" y2="549.263167494" /><line stroke="rgb(0%,0%,0%)" x1="503.930623372" x2="500.652738553" y1="541.54421815" y2="549.263167494" /><line stroke="rgb(0%,0%,0%)" x1="503.930623372" x2="505.694833593" y1="541.54421815" y2="538.729198126" /><line stroke="rgb(0%,0%,0%)" x1="524.603277864" x2="523.262648347" y1="482.121706202" y2="477.556559199" /><line stroke="rgb(0%,0%,0%)" x1="521.343857592" x2="523.262648347" y1="467.792838557" y2="477.556559199" /><line stroke="rgb(0%,0%,0%)" x1="521.343857592" x2="521.529797392" y1="467.792838557" y2="462.837462297" /><line stroke="rgb(0%,0%,0%)" x1="439.618430306" x2="443.7498806" y1="300.029749296" y2="303.5416643" /><line stroke="rgb(0%,0%,0%)" x1="439.618430306" x2="437.536011692" y1="300.029749296" y2="298.085963189" /><line stroke="rgb(0%,0%,0%)" x1="457.480931037" x2="456.884124936" y1="323.314253994" y2="322.910163376" /><line stroke="rgb(0%,0%,0%)" x1="456.884124936" x2="452.935486804" y1="322.910163376" y2="317.266546721" /><line stroke="rgb(0%,0%,0%)" x1="451.004022116" x2="452.935486804" y1="313.808517949" y2="317.266546721" /><line stroke="rgb(0%,0%,0%)" x1="474.439538079" x2="471.157451699" y1="341.144068343" y2="337.178584712" /><line stroke="rgb(0%,0%,0%)" x1="459.640309994" x2="457.480931037" y1="325.463041429" y2="323.314253994" /><line stroke="rgb(0%,0%,0%)" x1="476.956752" x2="474.439538079" y1="344.43345529" y2="341.144068343" /><line stroke="rgb(0%,0%,0%)" x1="402.853935614" x2="398.088342044" y1="652.05993248" y2="653.337535628" /><line stroke="rgb(0%,0%,0%)" x1="402.853935614" x2="406.459051399" y1="652.05993248" y2="650.578531534" /><line stroke="rgb(0%,0%,0%)" x1="424.546391361" x2="419.332093158" y1="637.613014193" y2="642.049262997" /><line stroke="rgb(0%,0%,0%)" x1="424.546391361" x2="427.733919802" y1="637.613014193" y2="634.984550619" /><line stroke="rgb(0%,0%,0%)" x1="427.733919802" x2="431.20506952" y1="634.984550619" y2="633.664433659" /><line stroke="rgb(0%,0%,0%)" x1="431.20506952" x2="439.33855917" y1="633.664433659" y2="628.644498965" /><line stroke="rgb(0%,0%,0%)" x1="439.33855917" x2="442.064546961" y1="628.644498965" y2="627.309041544" /><line stroke="rgb(0%,0%,0%)" x1="447.238833508" x2="445.979648249" y1="308.164018631" y2="306.148696812" /><line stroke="rgb(0%,0%,0%)" x1="445.979648249" x2="444.806423744" y1="306.148696812" y2="304.789282285" /><line stroke="rgb(0%,0%,0%)" x1="444.806423744" x2="444.557903728" y1="304.789282285" y2="304.471936051" /><line stroke="rgb(0%,0%,0%)" x1="444.557903728" x2="443.7498806" y1="304.471936051" y2="303.5416643" /><line stroke="rgb(0%,0%,0%)" x1="354.363678509" x2="353.833906763" y1="833.345945077" y2="834.122653285" /><line stroke="rgb(0%,0%,0%)" x1="354.363678509" x2="354.626354988" y1="833.345945077" y2="833.046536344" /><line stroke="rgb(0%,0%,0%)" x1="354.626354988" x2="356.237401285" y1="833.046536344" y2="831.361985578" /><line stroke="rgb(0%,0%,0%)" x1="364.743516225" x2="365.022046667" y1="797.5779372" y2="798.078447936" /><line stroke="rgb(0%,0%,0%)" x1="364.743516225" x2="364.833148336" y1="797.5779372" y2="796.976771999" /><line stroke="rgb(0%,0%,0%)" x1="366.396775967" x2="364.633106937" y1="763.830201823" y2="760.313719119" /><line stroke="rgb(0%,0%,0%)" x1="355.39844823" x2="354.809317974" y1="745.183152988" y2="742.338259468" /><line stroke="rgb(0%,0%,0%)" x1="354.809317974" x2="354.083124933" y1="742.338259468" y2="740.034298782" /><line stroke="rgb(0%,0%,0%)" x1="366.960234516" x2="367.210764911" y1="808.182190668" y2="809.318386625" /><line stroke="rgb(0%,0%,0%)" x1="366.960234516" x2="367.256281227" y1="808.182190668" y2="802.417796244" /><line stroke="rgb(0%,0%,0%)" x1="367.256281227" x2="365.022046667" y1="802.417796244" y2="798.078447936" /><line stroke="rgb(0%,0%,0%)" x1="366.396775967" x2="367.404092663" y1="763.830201823" y2="767.8136372" /><line stroke="rgb(0%,0%,0%)" x1="369.031511325" x2="376.528056752" y1="661.459859922" y2="656.658435231" /><line stroke="rgb(0%,0%,0%)" x1="387.480027154" x2="389.679293802" y1="655.654014081" y2="655.354515047" /><line stroke="rgb(0%,0%,0%)" x1="389.679293802" x2="392.246263732" y1="655.354515047" y2="655.29578528" /><line stroke="rgb(0%,0%,0%)" x1="392.246263732" x2="398.088342044" y1="655.29578528" y2="653.337535628" /><line stroke="rgb(0%,0%,0%)" x1="406.459051399" x2="408.491457358" y1="650.578531534" y2="649.213649293" /><line stroke="rgb(0%,0%,0%)" x1="408.491457358" x2="412.054746416" y1="649.213649293" y2="646.196832801" /><line stroke="rgb(0%,0%,0%)" x1="412.054746416" x2="416.185966501" y1="646.196832801" y2="644.15579836" /><line stroke="rgb(0%,0%,0%)" x1="416.185966501" x2="419.332093158" y1="644.15579836" y2="642.049262997" /><line stroke="rgb(0%,0%,0%)" x1="326.800076673" x2="329.151083052" y1="864.180051496" y2="863.223108361" /><line stroke="rgb(0%,0%,0%)" x1="346.685459595" x2="345.901298061" y1="848.437021511" y2="849.153055947" /><line stroke="rgb(0%,0%,0%)" x1="346.685459595" x2="346.730755206" y1="848.437021511" y2="848.29638965" /><line stroke="rgb(0%,0%,0%)" x1="346.730755206" x2="351.333898925" y1="848.29638965" y2="844.351430581" /><line stroke="rgb(0%,0%,0%)" x1="351.333898925" x2="351.500052812" y1="844.351430581" y2="841.826878961" /><line stroke="rgb(0%,0%,0%)" x1="351.606432454" x2="348.94423756" y1="732.833714958" y2="727.733791161" /><line stroke="rgb(0%,0%,0%)" x1="348.94423756" x2="345.923114378" y1="727.733791161" y2="723.763024453" /><line stroke="rgb(0%,0%,0%)" x1="341.164599427" x2="345.923114378" y1="717.179495492" y2="723.763024453" /><line stroke="rgb(0%,0%,0%)" x1="341.164599427" x2="339.09726071" y1="717.179495492" y2="715.351067432" /><line stroke="rgb(0%,0%,0%)" x1="337.029512003" x2="337.09505321" y1="691.152203729" y2="692.055155665" /><line stroke="rgb(0%,0%,0%)" x1="337.012275809" x2="337.029512003" y1="691.078486712" y2="691.152203729" /><line stroke="rgb(0%,0%,0%)" x1="337.012275809" x2="337.015162924" y1="691.078486712" y2="691.014065405" /><line stroke="rgb(0%,0%,0%)" x1="337.015162924" x2="336.902717137" y1="691.014065405" y2="690.820187981" /><line stroke="rgb(0%,0%,0%)" x1="342.774980526" x2="344.663429949" y1="679.881379953" y2="677.348853826" /><line stroke="rgb(0%,0%,0%)" x1="352.785190356" x2="349.518105262" y1="671.694516313" y2="674.474759785" /><line stroke="rgb(0%,0%,0%)" x1="352.785190356" x2="358.010261079" y1="671.694516313" y2="669.670313389" /><line stroke="rgb(0%,0%,0%)" x1="351.500052812" x2="352.129905083" y1="841.826878961" y2="839.209266857" /><line stroke="rgb(0%,0%,0%)" x1="352.129905083" x2="353.833906763" y1="839.209266857" y2="834.122653285" /><line stroke="rgb(0%,0%,0%)" x1="364.633106937" x2="362.527828797" y1="760.313719119" y2="756.087614495" /><line stroke="rgb(0%,0%,0%)" x1="356.020516562" x2="356.041223759" y1="748.63554271" y2="748.672821271" /><line stroke="rgb(0%,0%,0%)" x1="362.527828797" x2="356.041223759" y1="756.087614495" y2="748.672821271" /><line stroke="rgb(0%,0%,0%)" x1="356.020516562" x2="355.39844823" y1="748.63554271" y2="745.183152988" /><line stroke="rgb(0%,0%,0%)" x1="354.083124933" x2="351.606432454" y1="740.034298782" y2="732.833714958" /><line stroke="rgb(0%,0%,0%)" x1="358.010261079" x2="358.722710078" y1="669.670313389" y2="668.855564993" /><line stroke="rgb(0%,0%,0%)" x1="362.760632567" x2="358.722710078" y1="666.496796305" y2="668.855564993" /><line stroke="rgb(0%,0%,0%)" x1="366.563278004" x2="365.585588372" y1="810.27687681" y2="815.488643919" /><line stroke="rgb(0%,0%,0%)" x1="363.598199691" x2="365.585588372" y1="822.643944642" y2="815.488643919" /><line stroke="rgb(0%,0%,0%)" x1="366.563278004" x2="367.210764911" y1="810.27687681" y2="809.318386625" /><line stroke="rgb(0%,0%,0%)" x1="364.833148336" x2="364.193950257" y1="796.976771999" y2="792.67059848" /><line stroke="rgb(0%,0%,0%)" x1="364.193950257" x2="365.444644877" y1="792.67059848" y2="788.365689145" /><line stroke="rgb(0%,0%,0%)" x1="365.444644877" x2="366.886555708" y1="788.365689145" y2="781.533393868" /><line stroke="rgb(0%,0%,0%)" x1="366.886555708" x2="367.387525387" y1="781.533393868" y2="779.435851129" /><line stroke="rgb(0%,0%,0%)" x1="367.404092663" x2="367.629235179" y1="767.8136372" y2="775.988004628" /><line stroke="rgb(0%,0%,0%)" x1="367.387525387" x2="367.629235179" y1="779.435851129" y2="775.988004628" /><line stroke="rgb(0%,0%,0%)" x1="362.760632567" x2="364.040136777" y1="666.496796305" y2="665.185983801" /><line stroke="rgb(0%,0%,0%)" x1="364.040136777" x2="366.461424835" y1="665.185983801" y2="663.269512889" /><line stroke="rgb(0%,0%,0%)" x1="369.031511325" x2="366.461424835" y1="661.459859922" y2="663.269512889" /><line stroke="rgb(0%,0%,0%)" x1="376.528056752" x2="380.701546768" y1="656.658435231" y2="655.873954098" /><line stroke="rgb(0%,0%,0%)" x1="380.701546768" x2="387.480027154" y1="655.873954098" y2="655.654014081" /><line stroke="rgb(0%,0%,0%)" x1="323.998540001" x2="320.644879443" y1="863.75275999" y2="862.22128412" /><line stroke="rgb(0%,0%,0%)" x1="320.111932601" x2="316.608612397" y1="861.842056085" y2="857.502715079" /><line stroke="rgb(0%,0%,0%)" x1="323.998540001" x2="326.800076673" y1="863.75275999" y2="864.180051496" /><line stroke="rgb(0%,0%,0%)" x1="329.151083052" x2="339.608170155" y1="863.223108361" y2="855.280199904" /><line stroke="rgb(0%,0%,0%)" x1="336.044800751" x2="333.581429289" y1="712.544416835" y2="709.179742613" /><line stroke="rgb(0%,0%,0%)" x1="333.581429289" x2="336.098403736" y1="709.179742613" y2="702.740793196" /><line stroke="rgb(0%,0%,0%)" x1="336.098403736" x2="337.632590005" y1="702.740793196" y2="700.064307506" /><line stroke="rgb(0%,0%,0%)" x1="337.632590005" x2="337.693766575" y1="700.064307506" y2="698.911236734" /><line stroke="rgb(0%,0%,0%)" x1="336.902717137" x2="335.11091628" y1="690.820187981" y2="686.500213238" /><line stroke="rgb(0%,0%,0%)" x1="336.680852491" x2="335.11091628" y1="685.010951733" y2="686.500213238" /><line stroke="rgb(0%,0%,0%)" x1="336.680852491" x2="337.303265876" y1="685.010951733" y2="683.819335236" /><line stroke="rgb(0%,0%,0%)" x1="337.303265876" x2="337.867796462" y1="683.819335236" y2="683.287225096" /><line stroke="rgb(0%,0%,0%)" x1="342.247553631" x2="345.901298061" y1="853.488518677" y2="849.153055947" /><line stroke="rgb(0%,0%,0%)" x1="339.09726071" x2="336.044800751" y1="715.351067432" y2="712.544416835" /><line stroke="rgb(0%,0%,0%)" x1="337.693766575" x2="337.09505321" y1="698.911236734" y2="692.055155665" /><line stroke="rgb(0%,0%,0%)" x1="337.867796462" x2="342.774980526" y1="683.287225096" y2="679.881379953" /><line stroke="rgb(0%,0%,0%)" x1="344.663429949" x2="345.953515104" y1="677.348853826" y2="675.647286588" /><line stroke="rgb(0%,0%,0%)" x1="345.953515104" x2="347.07028956" y1="675.647286588" y2="674.953225967" /><line stroke="rgb(0%,0%,0%)" x1="347.07028956" x2="349.518105262" y1="674.953225967" y2="674.474759785" /><line stroke="rgb(0%,0%,0%)" x1="356.237401285" x2="363.598199691" y1="831.361985578" y2="822.643944642" /><line stroke="rgb(0%,0%,0%)" x1="272.9402217" x2="282.870395694" y1="747.238532328" y2="751.558372298" /><line stroke="rgb(0%,0%,0%)" x1="288.730214906" x2="294.726219012" y1="757.481393618" y2="761.531817068" /><line stroke="rgb(0%,0%,0%)" x1="282.870395694" x2="288.730214906" y1="751.558372298" y2="757.481393618" /><line stroke="rgb(0%,0%,0%)" x1="294.726219012" x2="296.180906246" y1="761.531817068" y2="764.432682595" /><line stroke="rgb(0%,0%,0%)" x1="320.111932601" x2="320.644879443" y1="861.842056085" y2="862.22128412" /><line stroke="rgb(0%,0%,0%)" x1="339.608170155" x2="341.174795198" y1="855.280199904" y2="854.185475371" /><line stroke="rgb(0%,0%,0%)" x1="341.174795198" x2="342.247553631" y1="854.185475371" y2="853.488518677" /><line stroke="rgb(0%,0%,0%)" x1="216.932539261" x2="216.698496331" y1="671.792893157" y2="671.620627333" /><line stroke="rgb(0%,0%,0%)" x1="216.698496331" x2="215.853352869" y1="671.620627333" y2="670.658967611" /><line stroke="rgb(0%,0%,0%)" x1="227.086692303" x2="234.390945645" y1="689.320281857" y2="704.108572264" /><line stroke="rgb(0%,0%,0%)" x1="242.443894533" x2="245.336150084" y1="722.432917845" y2="726.258385425" /><line stroke="rgb(0%,0%,0%)" x1="235.862894527" x2="235.27558797" y1="709.002238461" y2="706.6615131" /><line stroke="rgb(0%,0%,0%)" x1="255.513933009" x2="251.574397589" y1="737.724408266" y2="733.981891561" /><line stroke="rgb(0%,0%,0%)" x1="248.045115483" x2="251.574397589" y1="729.509291906" y2="733.981891561" /><line stroke="rgb(0%,0%,0%)" x1="245.336150084" x2="248.045115483" y1="726.258385425" y2="729.509291906" /><line stroke="rgb(0%,0%,0%)" x1="258.531145011" x2="255.513933009" y1="738.380072288" y2="737.724408266" /><line stroke="rgb(0%,0%,0%)" x1="258.531145011" x2="272.9402217" y1="738.380072288" y2="747.238532328" /><line stroke="rgb(0%,0%,0%)" x1="316.521565781" x2="316.608612397" y1="857.379998709" y2="857.502715079" /><line stroke="rgb(0%,0%,0%)" x1="199.000133978" x2="200.101480796" y1="654.440549344" y2="654.872599903" /><line stroke="rgb(0%,0%,0%)" x1="195.939066802" x2="199.000133978" y1="653.495059573" y2="654.440549344" /><line stroke="rgb(0%,0%,0%)" x1="195.939066802" x2="193.063355475" y1="653.495059573" y2="651.642882761" /><line stroke="rgb(0%,0%,0%)" x1="204.41242865" x2="206.244581136" y1="658.77394863" y2="661.455634202" /><line stroke="rgb(0%,0%,0%)" x1="201.222657972" x2="203.242757557" y1="656.476151493" y2="658.339758287" /><line stroke="rgb(0%,0%,0%)" x1="200.101480796" x2="201.222657972" y1="654.872599903" y2="656.476151493" /><line stroke="rgb(0%,0%,0%)" x1="219.442950386" x2="219.723221565" y1="672.966272726" y2="673.358211761" /><line stroke="rgb(0%,0%,0%)" x1="216.932539261" x2="219.442950386" y1="671.792893157" y2="672.966272726" /><line stroke="rgb(0%,0%,0%)" x1="211.438365391" x2="215.853352869" y1="664.997997965" y2="670.658967611" /><line stroke="rgb(0%,0%,0%)" x1="204.41242865" x2="203.242757557" y1="658.77394863" y2="658.339758287" /><line stroke="rgb(0%,0%,0%)" x1="225.670038865" x2="227.086692303" y1="686.450377422" y2="689.320281857" /><line stroke="rgb(0%,0%,0%)" x1="225.670038865" x2="222.849529661" y1="686.450377422" y2="675.986883024" /><line stroke="rgb(0%,0%,0%)" x1="219.723221565" x2="222.849529661" y1="673.358211761" y2="675.986883024" /><line stroke="rgb(0%,0%,0%)" x1="235.862894527" x2="242.443894533" y1="709.002238461" y2="722.432917845" /><line stroke="rgb(0%,0%,0%)" x1="235.471422178" x2="235.27558797" y1="705.706848432" y2="706.6615131" /><line stroke="rgb(0%,0%,0%)" x1="234.390945645" x2="235.471422178" y1="704.108572264" y2="705.706848432" /><line stroke="rgb(0%,0%,0%)" x1="139.600458546" x2="136.837394677" y1="624.679283931" y2="625.019915681" /><line stroke="rgb(0%,0%,0%)" x1="139.600458546" x2="145.220251595" y1="624.679283931" y2="625.880212725" /><line stroke="rgb(0%,0%,0%)" x1="188.807655174" x2="173.799049135" y1="649.753191411" y2="641.425961054" /><line stroke="rgb(0%,0%,0%)" x1="173.055392421" x2="173.695047183" y1="641.061153972" y2="641.332587141" /><line stroke="rgb(0%,0%,0%)" x1="173.695047183" x2="173.799049135" y1="641.332587141" y2="641.425961054" /><line stroke="rgb(0%,0%,0%)" x1="160.505534733" x2="173.055392421" y1="633.573951181" y2="641.061153972" /><line stroke="rgb(0%,0%,0%)" x1="188.807655174" x2="193.063355475" y1="649.753191411" y2="651.642882761" /><line stroke="rgb(0%,0%,0%)" x1="210.080321369" x2="210.836538703" y1="664.121617357" y2="664.94178109" /><line stroke="rgb(0%,0%,0%)" x1="210.836538703" x2="211.438365391" y1="664.94178109" y2="664.997997965" /><line stroke="rgb(0%,0%,0%)" x1="210.080321369" x2="207.48731145" y1="664.121617357" y2="663.066665934" /><line stroke="rgb(0%,0%,0%)" x1="206.244581136" x2="207.48731145" y1="661.455634202" y2="663.066665934" /><line stroke="rgb(0%,0%,0%)" x1="107.255612509" x2="112.459834644" y1="625.263877099" y2="626.523093889" /><line stroke="rgb(0%,0%,0%)" x1="112.459834644" x2="120.80933655" y1="626.523093889" y2="627.091986712" /><line stroke="rgb(0%,0%,0%)" x1="107.255612509" x2="105.267381176" y1="625.263877099" y2="625.533151432" /><line stroke="rgb(0%,0%,0%)" x1="120.80933655" x2="124.314442052" y1="627.091986712" y2="627.581660415" /><line stroke="rgb(0%,0%,0%)" x1="145.220251595" x2="153.086260885" y1="625.880212725" y2="627.941696412" /><line stroke="rgb(0%,0%,0%)" x1="153.086260885" x2="160.505534733" y1="627.941696412" y2="633.573951181" /><line stroke="rgb(0%,0%,0%)" x1="93.1298614088" x2="97.3653502284" y1="622.714327847" y2="623.435326991" /><line stroke="rgb(0%,0%,0%)" x1="105.267381176" x2="97.3653502284" y1="625.533151432" y2="623.435326991" /><line stroke="rgb(0%,0%,0%)" x1="124.314442052" x2="131.061059863" y1="627.581660415" y2="625.871448767" /><line stroke="rgb(0%,0%,0%)" x1="131.061059863" x2="136.837394677" y1="625.871448767" y2="625.019915681" /><line stroke="rgb(0%,0%,0%)" x1="11.7895594122" x2="11.119937493" y1="492.224650943" y2="490.346917748" /><line stroke="rgb(0%,0%,0%)" x1="10.7415400089" x2="14.2789818456" y1="474.871399906" y2="471.205655617" /><line stroke="rgb(0%,0%,0%)" x1="10.7415400089" x2="10.7968516591" y1="474.871399906" y2="477.719575123" /><line stroke="rgb(0%,0%,0%)" x1="41.4073018039" x2="40.6138270592" y1="591.492931872" y2="590.324218249" /><line stroke="rgb(0%,0%,0%)" x1="51.3163533748" x2="55.567070086" y1="605.352577091" y2="609.780438306" /><line stroke="rgb(0%,0%,0%)" x1="41.4073018039" x2="44.0264199097" y1="591.492931872" y2="596.226924944" /><line stroke="rgb(0%,0%,0%)" x1="61.7693442222" x2="56.083490546" y1="614.177434755" y2="610.15858084" /><line stroke="rgb(0%,0%,0%)" x1="86.3238436639" x2="73.3043723585" y1="622.864636778" y2="618.70824474" /><line stroke="rgb(0%,0%,0%)" x1="65.7885382988" x2="73.3043723585" y1="615.752317671" y2="618.70824474" /><line stroke="rgb(0%,0%,0%)" x1="87.5447091128" x2="92.0446626137" y1="622.629231699" y2="622.5641821" /><line stroke="rgb(0%,0%,0%)" x1="92.0446626137" x2="93.1298614088" y1="622.5641821" y2="622.714327847" /><line stroke="rgb(0%,0%,0%)" x1="86.3238436639" x2="87.5447091128" y1="622.864636778" y2="622.629231699" /><line stroke="rgb(0%,0%,0%)" x1="15.4001195973" x2="17.5502166453" y1="530.901816293" y2="538.753498533" /><line stroke="rgb(0%,0%,0%)" x1="15.4001195973" x2="12.5408719411" y1="530.901816293" y2="522.611200338" /><line stroke="rgb(0%,0%,0%)" x1="13.5242816225" x2="12.9382062001" y1="516.607334604" y2="514.25425983" /><line stroke="rgb(0%,0%,0%)" x1="13.5242816225" x2="12.4227612307" y1="516.607334604" y2="520.67681569" /><line stroke="rgb(0%,0%,0%)" x1="14.3258883991" x2="14.5958225115" y1="511.055260786" y2="505.239772857" /><line stroke="rgb(0%,0%,0%)" x1="14.3258883991" x2="12.9382062001" y1="511.055260786" y2="514.25425983" /><line stroke="rgb(0%,0%,0%)" x1="15.597722899" x2="18.1108779027" y1="503.943148012" y2="498.839131414" /><line stroke="rgb(0%,0%,0%)" x1="15.597722899" x2="14.5958225115" y1="503.943148012" y2="505.239772857" /><line stroke="rgb(0%,0%,0%)" x1="14.5723790925" x2="17.8555108393" y1="496.275944044" y2="498.457602134" /><line stroke="rgb(0%,0%,0%)" x1="11.7895594122" x2="12.073970908" y1="492.224650943" y2="493.442143503" /><line stroke="rgb(0%,0%,0%)" x1="10.7968516591" x2="11.119937493" y1="477.719575123" y2="490.346917748" /><line stroke="rgb(0%,0%,0%)" x1="23.0064185727" x2="14.2789818456" y1="460.889402637" y2="471.205655617" /><line stroke="rgb(0%,0%,0%)" x1="29.29088387" x2="31.864609617" y1="571.745437564" y2="576.951201131" /><line stroke="rgb(0%,0%,0%)" x1="27.6005783988" x2="29.29088387" y1="567.806735851" y2="571.745437564" /><line stroke="rgb(0%,0%,0%)" x1="27.4563960744" x2="27.6005783988" y1="567.114847562" y2="567.806735851" /><line stroke="rgb(0%,0%,0%)" x1="27.4563960744" x2="27.030346495" y1="567.114847562" y2="566.475780931" /><line stroke="rgb(0%,0%,0%)" x1="23.2549240723" x2="27.030346495" y1="558.13951543" y2="566.475780931" /><line stroke="rgb(0%,0%,0%)" x1="23.2549240723" x2="21.7290752166" y1="558.13951543" y2="553.131115894" /><line stroke="rgb(0%,0%,0%)" x1="20.5588614131" x2="21.7290752166" y1="548.816288055" y2="553.131115894" /><line stroke="rgb(0%,0%,0%)" x1="17.8555108393" x2="18.1108779027" y1="498.457602134" y2="498.839131414" /><line stroke="rgb(0%,0%,0%)" x1="38.8530842192" x2="40.6138270592" y1="588.777855614" y2="590.324218249" /><line stroke="rgb(0%,0%,0%)" x1="38.8530842192" x2="33.8009668817" y1="588.777855614" y2="581.430943194" /><line stroke="rgb(0%,0%,0%)" x1="31.864609617" x2="33.8009668817" y1="576.951201131" y2="581.430943194" /><line stroke="rgb(0%,0%,0%)" x1="50.6733141977" x2="51.3163533748" y1="604.720665693" y2="605.352577091" /><line stroke="rgb(0%,0%,0%)" x1="48.0718259124" x2="50.5397293381" y1="601.14907364" y2="604.659697942" /><line stroke="rgb(0%,0%,0%)" x1="50.5397293381" x2="50.6733141977" y1="604.659697942" y2="604.720665693" /><line stroke="rgb(0%,0%,0%)" x1="44.0264199097" x2="48.0718259124" y1="596.226924944" y2="601.14907364" /><line stroke="rgb(0%,0%,0%)" x1="55.567070086" x2="56.083490546" y1="609.780438306" y2="610.15858084" /><line stroke="rgb(0%,0%,0%)" x1="63.3287175183" x2="65.7885382988" y1="614.757074221" y2="615.752317671" /><line stroke="rgb(0%,0%,0%)" x1="61.7693442222" x2="63.3287175183" y1="614.177434755" y2="614.757074221" /><line stroke="rgb(0%,0%,0%)" x1="12.4788435288" x2="12.5408719411" y1="521.7949215" y2="522.611200338" /><line stroke="rgb(0%,0%,0%)" x1="12.4227612307" x2="12.4788435288" y1="520.67681569" y2="521.7949215" /><line stroke="rgb(0%,0%,0%)" x1="12.073970908" x2="13.8932153583" y1="493.442143503" y2="495.551316973" /><line stroke="rgb(0%,0%,0%)" x1="13.8932153583" x2="14.5723790925" y1="495.551316973" y2="496.275944044" /><line stroke="rgb(0%,0%,0%)" x1="17.5502166453" x2="20.5588614131" y1="538.753498533" y2="548.816288055" /><line stroke="rgb(0%,0%,0%)" x1="471.331713904" x2="470.860331444" y1="592.05751336" y2="592.419610217" /><line stroke="rgb(0%,0%,0%)" x1="471.331713904" x2="472.011605228" y1="592.05751336" y2="591.249390878" /><line stroke="rgb(0%,0%,0%)" x1="481.035259771" x2="484.366231907" y1="580.454284829" y2="574.223869336" /><line stroke="rgb(0%,0%,0%)" x1="488.023134528" x2="484.366231907" y1="569.720721408" y2="574.223869336" /><line stroke="rgb(0%,0%,0%)" x1="488.023134528" x2="488.45471885" y1="569.720721408" y2="567.339379964" /><line stroke="rgb(0%,0%,0%)" x1="442.064546961" x2="443.199624912" y1="627.309041544" y2="626.24532579" /><line stroke="rgb(0%,0%,0%)" x1="448.622303536" x2="443.199624912" y1="621.016497469" y2="626.24532579" /><line stroke="rgb(0%,0%,0%)" x1="448.622303536" x2="450.685870058" y1="621.016497469" y2="618.715247098" /><line stroke="rgb(0%,0%,0%)" x1="450.685870058" x2="451.684719266" y1="618.715247098" y2="616.429248425" /><line stroke="rgb(0%,0%,0%)" x1="455.170218988" x2="457.937723675" y1="609.956587897" y2="606.644192176" /><line stroke="rgb(0%,0%,0%)" x1="451.684719266" x2="455.170218988" y1="616.429248425" y2="609.956587897" /><line stroke="rgb(0%,0%,0%)" x1="457.937723675" x2="460.322453381" y1="606.644192176" y2="603.593147728" /><line stroke="rgb(0%,0%,0%)" x1="460.322453381" x2="461.355198677" y1="603.593147728" y2="602.597641965" /><line stroke="rgb(0%,0%,0%)" x1="463.533237326" x2="461.355198677" y1="599.947520861" y2="602.597641965" /><line stroke="rgb(0%,0%,0%)" x1="463.533237326" x2="464.269771118" y1="599.947520861" y2="599.058656247" /><line stroke="rgb(0%,0%,0%)" x1="464.269771118" x2="467.975445339" y1="599.058656247" y2="595.385563231" /><line stroke="rgb(0%,0%,0%)" x1="470.860331444" x2="467.975445339" y1="592.419610217" y2="595.385563231" /><line stroke="rgb(0%,0%,0%)" x1="472.011605228" x2="475.340585893" y1="591.249390878" y2="587.444322658" /><line stroke="rgb(0%,0%,0%)" x1="475.340585893" x2="481.035259771" y1="587.444322658" y2="580.454284829" /><line stroke="rgb(0%,0%,0%)" x1="314.002406242" x2="316.521565781" y1="854.315987082" y2="857.379998709" /><line stroke="rgb(0%,0%,0%)" x1="313.267057874" x2="314.002406242" y1="852.161490557" y2="854.315987082" /><line stroke="rgb(0%,0%,0%)" x1="313.267057874" x2="312.385175535" y1="852.161490557" y2="844.050142148" /><line stroke="rgb(0%,0%,0%)" x1="313.58793996" x2="312.385175535" y1="838.6882839" y2="844.050142148" /><line stroke="rgb(0%,0%,0%)" x1="313.646712746" x2="313.58793996" y1="833.788322321" y2="838.6882839" /><line stroke="rgb(0%,0%,0%)" x1="313.646712746" x2="314.187044758" y1="833.788322321" y2="831.287529282" /><line stroke="rgb(0%,0%,0%)" x1="314.085220358" x2="315.513642972" y1="821.009370103" y2="815.611070191" /><line stroke="rgb(0%,0%,0%)" x1="314.085220358" x2="314.187044758" y1="821.009370103" y2="831.287529282" /><line stroke="rgb(0%,0%,0%)" x1="312.255987633" x2="313.797780591" y1="808.165612632" y2="810.759518432" /><line stroke="rgb(0%,0%,0%)" x1="313.797780591" x2="315.513642972" y1="810.759518432" y2="815.611070191" /><line stroke="rgb(0%,0%,0%)" x1="312.255987633" x2="308.854873278" y1="808.165612632" y2="802.041870013" /><line stroke="rgb(0%,0%,0%)" x1="303.152868692" x2="303.970501509" y1="781.32815252" y2="783.225587191" /><line stroke="rgb(0%,0%,0%)" x1="301.525518013" x2="303.152868692" y1="773.033430915" y2="781.32815252" /><line stroke="rgb(0%,0%,0%)" x1="307.55412905" x2="304.099402518" y1="797.49375005" y2="784.516659819" /><line stroke="rgb(0%,0%,0%)" x1="303.970501509" x2="304.099402518" y1="783.225587191" y2="784.516659819" /><line stroke="rgb(0%,0%,0%)" x1="298.912359036" x2="301.525518013" y1="769.031019525" y2="773.033430915" /><line stroke="rgb(0%,0%,0%)" x1="297.698894796" x2="298.912359036" y1="766.944219402" y2="769.031019525" /><line stroke="rgb(0%,0%,0%)" x1="297.698894796" x2="296.180906246" y1="766.944219402" y2="764.432682595" /><line stroke="rgb(0%,0%,0%)" x1="307.55412905" x2="308.854873278" y1="797.49375005" y2="802.041870013" /><line stroke="rgb(0%,0%,0%)" x1="489.618443823" x2="488.455315886" y1="564.394386424" y2="567.337119321" /></svg>