<?xml version="1.0" encoding="utf-8" ?>
<svg baseProfile="full" height="100%" version="1.1" viewBox="0.5 0.5 685.793960571 941.299331665" width="100%" xmlns="http://www.w3.org/2000/svg" xmlns:ev="http://www.w3.org/2001/xml-events" xmlns:xlink="http://www.w3.org/1999/xlink"><defs /><line stroke="rgb(0%,0%,0%)" x1="517.443777864" x2="516.068883297" y1="407.787195134" y2="405.141322188" /><line stroke="rgb(0%,0%,0%)" x1="506.351038021" x2="506.726270429" y1="390.175735059" y2="390.652316613" /><line stroke="rgb(0%,0%,0%)" x1="523.160950573" x2="522.087298966" y1="442.020308682" y2="449.291654632" /><line stroke="rgb(0%,0%,0%)" x1="523.160950573" x2="523.130354763" y1="442.020308682" y2="438.777347839" /><line stroke="rgb(0%,0%,0%)" x1="523.130354763" x2="522.619470966" y1="438.777347839" y2="434.730115524" /><line stroke="rgb(0%,0%,0%)" x1="506.351038021" x2="506.097953318" y1="390.175735059" y2="389.658224154" /><line stroke="rgb(0%,0%,0%)" x1="506.097953318" x2="505.21596483" y1="389.658224154" y2="388.262034309" /><line stroke="rgb(0%,0%,0%)" x1="516.068883297" x2="506.726270429" y1="405.141322188" y2="390.652316613" /><line stroke="rgb(0%,0%,0%)" x1="505.21596483" x2="497.015832093" y1="388.262034309" y2="375.46971136" /><line stroke="rgb(0%,0%,0%)" x1="521.078454134" x2="520.825393772" y1="460.367933429" y2="456.686369309" /><line stroke="rgb(0%,0%,0%)" x1="520.825393772" x2="520.386818329" y1="456.686369309" y2="454.740314278" /><line stroke="rgb(0%,0%,0%)" x1="520.386818329" x2="522.087298966" y1="454.740314278" y2="449.291654632" /><line stroke="rgb(0%,0%,0%)" x1="522.619470966" x2="520.973540609" y1="434.730115524" y2="417.809951299" /><line stroke="rgb(0%,0%,0%)" x1="520.973540609" x2="520.942900361" y1="417.809951299" y2="417.457989584" /><line stroke="rgb(0%,0%,0%)" x1="517.443777864" x2="520.669374165" y1="407.787195134" y2="416.635395086" /><line stroke="rgb(0%,0%,0%)" x1="489.757478897" x2="487.659995223" y1="364.414861061" y2="361.528457834" /><line stroke="rgb(0%,0%,0%)" x1="487.659995223" x2="487.593946285" y1="361.528457834" y2="361.436788999" /><line stroke="rgb(0%,0%,0%)" x1="487.593946285" x2="487.405458725" y1="361.436788999" y2="361.108661314" /><line stroke="rgb(0%,0%,0%)" x1="497.015832093" x2="494.785983686" y1="375.46971136" y2="372.855394006" /><line stroke="rgb(0%,0%,0%)" x1="489.757478897" x2="494.785983686" y1="364.414861061" y2="372.855394006" /><line stroke="rgb(0%,0%,0%)" x1="521.190738118" x2="521.078454134" y1="462.854727474" y2="460.367933429" /><line stroke="rgb(0%,0%,0%)" x1="520.942900361" x2="520.669374165" y1="417.457989584" y2="416.635395086" /><line stroke="rgb(0%,0%,0%)" x1="385.909265202" x2="401.459222722" y1="263.177221212" y2="271.773378654" /><line stroke="rgb(0%,0%,0%)" x1="405.511144618" x2="423.615867544" y1="274.342990748" y2="289.121557976" /><line stroke="rgb(0%,0%,0%)" x1="437.310953373" x2="436.622107111" y1="298.183910165" y2="297.72491007" /><line stroke="rgb(0%,0%,0%)" x1="436.622107111" x2="424.510144756" y1="297.72491007" y2="289.625004577" /><line stroke="rgb(0%,0%,0%)" x1="424.510144756" x2="424.205267251" y1="289.625004577" y2="289.434591253" /><line stroke="rgb(0%,0%,0%)" x1="347.346355177" x2="347.397754514" y1="158.699220609" y2="162.028858048" /><line stroke="rgb(0%,0%,0%)" x1="347.346355177" x2="347.535922749" y1="158.699220609" y2="156.336261304" /><line stroke="rgb(0%,0%,0%)" x1="347.535922749" x2="346.849193536" y1="156.336261304" y2="153.302384891" /><line stroke="rgb(0%,0%,0%)" x1="357.361769347" x2="345.992565034" y1="252.438871811" y2="249.635398073" /><line stroke="rgb(0%,0%,0%)" x1="367.622174036" x2="357.361769347" y1="256.681476619" y2="252.438871811" /><line stroke="rgb(0%,0%,0%)" x1="385.909265202" x2="377.144931173" y1="263.177221212" y2="259.565676455" /><line stroke="rgb(0%,0%,0%)" x1="377.144931173" x2="367.622174036" y1="259.565676455" y2="256.681476619" /><line stroke="rgb(0%,0%,0%)" x1="404.426356063" x2="401.459222722" y1="273.393439341" y2="271.773378654" /><line stroke="rgb(0%,0%,0%)" x1="405.511144618" x2="404.776015844" y1="274.342990748" y2="273.737306801" /><line stroke="rgb(0%,0%,0%)" x1="424.205267251" x2="423.615867544" y1="289.434591253" y2="289.121557976" /><line stroke="rgb(0%,0%,0%)" x1="278.90314773" x2="279.535107641" y1="70.4750966108" y2="69.7994135188" /><line stroke="rgb(0%,0%,0%)" x1="279.535107641" x2="280.143761604" y1="69.7994135188" y2="69.1008676332" /><line stroke="rgb(0%,0%,0%)" x1="323.403266906" x2="314.514696724" y1="78.1041169235" y2="69.300288001" /><line stroke="rgb(0%,0%,0%)" x1="328.684195897" x2="327.859105137" y1="226.725419467" y2="228.346775618" /><line stroke="rgb(0%,0%,0%)" x1="335.406801854" x2="329.417325051" y1="99.635540758" y2="92.2354892294" /><line stroke="rgb(0%,0%,0%)" x1="329.417325051" x2="328.920076183" y1="92.2354892294" y2="91.6346165464" /><line stroke="rgb(0%,0%,0%)" x1="328.920076183" x2="326.666254304" y1="91.6346165464" y2="85.4288025515" /><line stroke="rgb(0%,0%,0%)" x1="326.666254304" x2="324.162453556" y1="85.4288025515" y2="80.3478610075" /><line stroke="rgb(0%,0%,0%)" x1="323.751571511" x2="324.162453556" y1="78.7745767283" y2="80.3478610075" /><line stroke="rgb(0%,0%,0%)" x1="323.403266906" x2="323.751571511" y1="78.1041169235" y2="78.7745767283" /><line stroke="rgb(0%,0%,0%)" x1="339.008774099" x2="331.606993867" y1="249.643757061" y2="245.185684323" /><line stroke="rgb(0%,0%,0%)" x1="345.992565034" x2="339.008774099" y1="249.635398073" y2="249.643757061" /><line stroke="rgb(0%,0%,0%)" x1="328.94711607" x2="328.684195897" y1="225.435015982" y2="226.725419467" /><line stroke="rgb(0%,0%,0%)" x1="328.94711607" x2="328.99277242" y1="225.435015982" y2="222.902459888" /><line stroke="rgb(0%,0%,0%)" x1="328.99277242" x2="326.824864843" y1="222.902459888" y2="213.207792677" /><line stroke="rgb(0%,0%,0%)" x1="326.824864843" x2="331.509979785" y1="213.207792677" y2="209.130734535" /><line stroke="rgb(0%,0%,0%)" x1="332.377612488" x2="331.509979785" y1="205.880253828" y2="209.130734535" /><line stroke="rgb(0%,0%,0%)" x1="332.377612488" x2="334.82799854" y1="205.880253828" y2="201.473956532" /><line stroke="rgb(0%,0%,0%)" x1="334.82799854" x2="337.024091432" y1="201.473956532" y2="195.379625464" /><line stroke="rgb(0%,0%,0%)" x1="338.467304356" x2="338.012418122" y1="183.82163796" y2="189.66857294" /><line stroke="rgb(0%,0%,0%)" x1="338.467304356" x2="339.510401931" y1="183.82163796" y2="177.170107206" /><line stroke="rgb(0%,0%,0%)" x1="346.886548204" x2="340.507739544" y1="163.942087148" y2="175.90066677" /><line stroke="rgb(0%,0%,0%)" x1="340.267743718" x2="340.046482291" y1="136.419971475" y2="135.987791721" /><line stroke="rgb(0%,0%,0%)" x1="340.046482291" x2="339.922644785" y1="135.987791721" y2="135.605731822" /><line stroke="rgb(0%,0%,0%)" x1="339.922644785" x2="340.146279867" y1="135.605731822" y2="134.64822738" /><line stroke="rgb(0%,0%,0%)" x1="340.146279867" x2="340.183166945" y1="134.64822738" y2="134.043124541" /><line stroke="rgb(0%,0%,0%)" x1="341.507668851" x2="340.191071638" y1="112.181620617" y2="133.397250467" /><line stroke="rgb(0%,0%,0%)" x1="340.183166945" x2="340.191071638" y1="134.043124541" y2="133.397250467" /><line stroke="rgb(0%,0%,0%)" x1="341.452796022" x2="341.507668851" y1="106.183805242" y2="112.181620617" /><line stroke="rgb(0%,0%,0%)" x1="340.417839722" x2="335.839642014" y1="105.42354444" y2="100.111710916" /><line stroke="rgb(0%,0%,0%)" x1="341.452796022" x2="340.417839722" y1="106.183805242" y2="105.42354444" /><line stroke="rgb(0%,0%,0%)" x1="335.678629365" x2="335.839642014" y1="99.8422597155" y2="100.111710916" /><line stroke="rgb(0%,0%,0%)" x1="335.406801854" x2="335.678629365" y1="99.635540758" y2="99.8422597155" /><line stroke="rgb(0%,0%,0%)" x1="346.886548204" x2="347.397754514" y1="163.942087148" y2="162.028858048" /><line stroke="rgb(0%,0%,0%)" x1="346.849193536" x2="345.407336142" y1="153.302384891" y2="148.108434329" /><line stroke="rgb(0%,0%,0%)" x1="345.407336142" x2="340.267743718" y1="148.108434329" y2="136.419971475" /><line stroke="rgb(0%,0%,0%)" x1="404.776015844" x2="404.426356063" y1="273.737306801" y2="273.393439341" /><line stroke="rgb(0%,0%,0%)" x1="278.90314773" x2="278.624521223" y1="70.4750966108" y2="71.7022411588" /><line stroke="rgb(0%,0%,0%)" x1="278.624521223" x2="278.329140217" y1="71.7022411588" y2="75.3228668761" /><line stroke="rgb(0%,0%,0%)" x1="287.884515246" x2="287.210028146" y1="116.694035164" y2="122.448595253" /><line stroke="rgb(0%,0%,0%)" x1="288.680742027" x2="287.811325999" y1="89.8920714516" y2="93.7590485198" /><line stroke="rgb(0%,0%,0%)" x1="288.680742027" x2="287.620108873" y1="89.8920714516" y2="88.1757378856" /><line stroke="rgb(0%,0%,0%)" x1="288.706582778" x2="294.273384932" y1="62.9279207951" y2="63.7435532426" /><line stroke="rgb(0%,0%,0%)" x1="299.8167731" x2="313.18436178" y1="63.8492686033" y2="68.1356299899" /><line stroke="rgb(0%,0%,0%)" x1="299.8167731" x2="294.273384932" y1="63.8492686033" y2="63.7435532426" /><line stroke="rgb(0%,0%,0%)" x1="314.514696724" x2="313.445503186" y1="69.300288001" y2="68.2713787042" /><line stroke="rgb(0%,0%,0%)" x1="313.445503186" x2="313.18436178" y1="68.2713787042" y2="68.1356299899" /><line stroke="rgb(0%,0%,0%)" x1="329.279576201" x2="325.774096451" y1="243.656931782" y2="241.472424035" /><line stroke="rgb(0%,0%,0%)" x1="331.606993867" x2="329.279576201" y1="245.185684323" y2="243.656931782" /><line stroke="rgb(0%,0%,0%)" x1="323.485805215" x2="325.774096451" y1="239.627816212" y2="241.472424035" /><line stroke="rgb(0%,0%,0%)" x1="323.485805215" x2="323.327997201" y1="239.627816212" y2="237.135035504" /><line stroke="rgb(0%,0%,0%)" x1="323.327997201" x2="325.471752434" y1="237.135035504" y2="235.830675074" /><line stroke="rgb(0%,0%,0%)" x1="325.471752434" x2="327.859105137" y1="235.830675074" y2="228.346775618" /><line stroke="rgb(0%,0%,0%)" x1="337.024091432" x2="336.900043206" y1="195.379625464" y2="193.554321547" /><line stroke="rgb(0%,0%,0%)" x1="336.900043206" x2="338.012418122" y1="193.554321547" y2="189.66857294" /><line stroke="rgb(0%,0%,0%)" x1="339.510401931" x2="340.254864011" y1="177.170107206" y2="176.073697352" /><line stroke="rgb(0%,0%,0%)" x1="340.254864011" x2="340.507739544" y1="176.073697352" y2="175.90066677" /><line stroke="rgb(0%,0%,0%)" x1="276.450064092" x2="269.940620035" y1="150.256754457" y2="155.602426147" /><line stroke="rgb(0%,0%,0%)" x1="279.663671059" x2="276.450064092" y1="149.493559801" y2="150.256754457" /><line stroke="rgb(0%,0%,0%)" x1="279.663671059" x2="281.654663943" y1="149.493559801" y2="144.280692119" /><line stroke="rgb(0%,0%,0%)" x1="281.654663943" x2="286.188362214" y1="144.280692119" y2="130.66486071" /><line stroke="rgb(0%,0%,0%)" x1="282.543981045" x2="281.065780376" y1="79.9762976865" y2="77.0311720929" /><line stroke="rgb(0%,0%,0%)" x1="278.910770042" x2="281.065780376" y1="75.7196614013" y2="77.0311720929" /><line stroke="rgb(0%,0%,0%)" x1="278.329140217" x2="278.910770042" y1="75.3228668761" y2="75.7196614013" /><line stroke="rgb(0%,0%,0%)" x1="282.278265062" x2="280.143761604" y1="66.7347201949" y2="69.1008676332" /><line stroke="rgb(0%,0%,0%)" x1="286.507998351" x2="286.188362214" y1="129.487232897" y2="130.66486071" /><line stroke="rgb(0%,0%,0%)" x1="286.541229122" x2="286.507998351" y1="129.224166675" y2="129.487232897" /><line stroke="rgb(0%,0%,0%)" x1="287.210028146" x2="286.888301571" y1="122.448595253" y2="128.485486889" /><line stroke="rgb(0%,0%,0%)" x1="286.888301571" x2="286.687290429" y1="128.485486889" y2="128.977321705" /><line stroke="rgb(0%,0%,0%)" x1="286.687290429" x2="286.541229122" y1="128.977321705" y2="129.224166675" /><line stroke="rgb(0%,0%,0%)" x1="287.353872563" x2="287.884515246" y1="113.334762901" y2="116.694035164" /><line stroke="rgb(0%,0%,0%)" x1="287.353872563" x2="287.282589238" y1="113.334762901" y2="103.320475679" /><line stroke="rgb(0%,0%,0%)" x1="287.643804268" x2="287.282589238" y1="96.9529878665" y2="103.320475679" /><line stroke="rgb(0%,0%,0%)" x1="287.811325999" x2="287.643804268" y1="93.7590485198" y2="96.9529878665" /><line stroke="rgb(0%,0%,0%)" x1="286.63174533" x2="287.620108873" y1="83.1703140625" y2="88.1757378856" /><line stroke="rgb(0%,0%,0%)" x1="285.727773001" x2="286.63174533" y1="81.8212862104" y2="83.1703140625" /><line stroke="rgb(0%,0%,0%)" x1="282.543981045" x2="285.727773001" y1="79.9762976865" y2="81.8212862104" /><line stroke="rgb(0%,0%,0%)" x1="285.150594626" x2="282.278265062" y1="65.2889463713" y2="66.7347201949" /><line stroke="rgb(0%,0%,0%)" x1="222.148563733" x2="218.715250442" y1="251.575758339" y2="255.726799868" /><line stroke="rgb(0%,0%,0%)" x1="232.523809182" x2="234.970127847" y1="239.549208316" y2="236.408416138" /><line stroke="rgb(0%,0%,0%)" x1="245.388566719" x2="243.890081002" y1="221.575194025" y2="227.3475029" /><line stroke="rgb(0%,0%,0%)" x1="243.890081002" x2="243.46796211" y1="227.3475029" y2="229.621972939" /><line stroke="rgb(0%,0%,0%)" x1="244.818024154" x2="245.388566719" y1="210.695975816" y2="221.575194025" /><line stroke="rgb(0%,0%,0%)" x1="244.818024154" x2="245.026783847" y1="210.695975816" y2="209.742556802" /><line stroke="rgb(0%,0%,0%)" x1="245.026783847" x2="244.534996294" y1="209.742556802" y2="207.279041518" /><line stroke="rgb(0%,0%,0%)" x1="244.125294804" x2="247.503769914" y1="203.486802594" y2="190.99331013" /><line stroke="rgb(0%,0%,0%)" x1="244.125294804" x2="244.534996294" y1="203.486802594" y2="207.279041518" /><line stroke="rgb(0%,0%,0%)" x1="247.530668439" x2="247.503769914" y1="190.689611949" y2="190.99331013" /><line stroke="rgb(0%,0%,0%)" x1="251.457870416" x2="247.530668439" y1="183.446906479" y2="190.689611949" /><line stroke="rgb(0%,0%,0%)" x1="252.316961282" x2="251.457870416" y1="181.609049228" y2="183.446906479" /><line stroke="rgb(0%,0%,0%)" x1="252.78058727" x2="252.316961282" y1="180.08272944" y2="181.609049228" /><line stroke="rgb(0%,0%,0%)" x1="261.87120674" x2="252.78058727" y1="166.808746249" y2="180.08272944" /><line stroke="rgb(0%,0%,0%)" x1="263.086965191" x2="261.87120674" y1="163.892264596" y2="166.808746249" /><line stroke="rgb(0%,0%,0%)" x1="269.940620035" x2="263.086965191" y1="155.602426147" y2="163.892264596" /><line stroke="rgb(0%,0%,0%)" x1="288.706582778" x2="286.756815041" y1="62.9279207951" y2="63.3513903964" /><line stroke="rgb(0%,0%,0%)" x1="286.756815041" x2="285.150594626" y1="63.3513903964" y2="65.2889463713" /><line stroke="rgb(0%,0%,0%)" x1="203.728830445" x2="201.660658082" y1="266.026147961" y2="266.56157172" /><line stroke="rgb(0%,0%,0%)" x1="203.728830445" x2="208.494941134" y1="266.026147961" y2="263.052739907" /><line stroke="rgb(0%,0%,0%)" x1="214.644185396" x2="210.246587367" y1="257.64078715" y2="261.949185193" /><line stroke="rgb(0%,0%,0%)" x1="214.644185396" x2="216.080045657" y1="257.64078715" y2="257.670531297" /><line stroke="rgb(0%,0%,0%)" x1="217.029469574" x2="216.080045657" y1="256.752691799" y2="257.670531297" /><line stroke="rgb(0%,0%,0%)" x1="218.249951674" x2="217.029469574" y1="256.207446785" y2="256.752691799" /><line stroke="rgb(0%,0%,0%)" x1="218.715250442" x2="218.249951674" y1="255.726799868" y2="256.207446785" /><line stroke="rgb(0%,0%,0%)" x1="226.678354183" x2="222.148563733" y1="247.469858701" y2="251.575758339" /><line stroke="rgb(0%,0%,0%)" x1="228.265091543" x2="226.678354183" y1="246.529616409" y2="247.469858701" /><line stroke="rgb(0%,0%,0%)" x1="228.265091543" x2="229.019074337" y1="246.529616409" y2="245.727717741" /><line stroke="rgb(0%,0%,0%)" x1="230.893175812" x2="229.019074337" y1="243.560078421" y2="245.727717741" /><line stroke="rgb(0%,0%,0%)" x1="232.523809182" x2="230.893175812" y1="239.549208316" y2="243.560078421" /><line stroke="rgb(0%,0%,0%)" x1="236.98495776" x2="234.970127847" y1="234.837513917" y2="236.408416138" /><line stroke="rgb(0%,0%,0%)" x1="240.219725883" x2="243.46796211" y1="232.656330804" y2="229.621972939" /><line stroke="rgb(0%,0%,0%)" x1="240.219725883" x2="236.98495776" y1="232.656330804" y2="234.837513917" /><line stroke="rgb(0%,0%,0%)" x1="174.783207835" x2="168.691719901" y1="279.113265861" y2="281.436341179" /><line stroke="rgb(0%,0%,0%)" x1="183.967037082" x2="174.783207835" y1="274.921956222" y2="279.113265861" /><line stroke="rgb(0%,0%,0%)" x1="155.501758685" x2="159.195937417" y1="289.148368173" y2="287.42858791" /><line stroke="rgb(0%,0%,0%)" x1="168.691719901" x2="159.195937417" y1="281.436341179" y2="287.42858791" /><line stroke="rgb(0%,0%,0%)" x1="198.8016347" x2="183.967037082" y1="267.09430922" y2="274.921956222" /><line stroke="rgb(0%,0%,0%)" x1="198.8016347" x2="201.660658082" y1="267.09430922" y2="266.56157172" /><line stroke="rgb(0%,0%,0%)" x1="209.919317337" x2="208.494941134" y1="262.191457965" y2="263.052739907" /><line stroke="rgb(0%,0%,0%)" x1="210.246587367" x2="209.919317337" y1="261.949185193" y2="262.191457965" /><line stroke="rgb(0%,0%,0%)" x1="143.148734069" x2="147.774984414" y1="292.306104836" y2="290.951140289" /><line stroke="rgb(0%,0%,0%)" x1="143.148734069" x2="135.437812568" y1="292.306104836" y2="291.916151955" /><line stroke="rgb(0%,0%,0%)" x1="155.501758685" x2="147.774984414" y1="289.148368173" y2="290.951140289" /><line stroke="rgb(0%,0%,0%)" x1="101.418259019" x2="107.178862848" y1="297.875730256" y2="295.835805778" /><line stroke="rgb(0%,0%,0%)" x1="107.178862848" x2="111.360934766" y1="295.835805778" y2="294.908501585" /><line stroke="rgb(0%,0%,0%)" x1="114.26220561" x2="111.360934766" y1="294.348207473" y2="294.908501585" /><line stroke="rgb(0%,0%,0%)" x1="118.064621605" x2="128.464336412" y1="293.861244205" y2="291.657614004" /><line stroke="rgb(0%,0%,0%)" x1="135.437812568" x2="128.464336412" y1="291.916151955" y2="291.657614004" /><line stroke="rgb(0%,0%,0%)" x1="118.064621605" x2="114.26220561" y1="293.861244205" y2="294.348207473" /><line stroke="rgb(0%,0%,0%)" x1="101.418259019" x2="93.4285597703" y1="297.875730256" y2="298.858009694" /><line stroke="rgb(0%,0%,0%)" x1="93.4285597703" x2="89.1113695071" y1="298.858009694" y2="299.907710228" /><line stroke="rgb(0%,0%,0%)" x1="20.6754754792" x2="21.1483005116" y1="385.725724604" y2="382.855287257" /><line stroke="rgb(0%,0%,0%)" x1="20.6754754792" x2="18.4675216017" y1="385.725724604" y2="389.41955968" /><line stroke="rgb(0%,0%,0%)" x1="54.4442084197" x2="43.5723903635" y1="317.031415062" y2="329.878237188" /><line stroke="rgb(0%,0%,0%)" x1="56.6392727995" x2="54.4442084197" y1="314.817112703" y2="317.031415062" /><line stroke="rgb(0%,0%,0%)" x1="57.5451083093" x2="56.6392727995" y1="314.736117341" y2="314.817112703" /><line stroke="rgb(0%,0%,0%)" x1="57.5451083093" x2="61.911549805" y1="314.736117341" y2="309.522560883" /><line stroke="rgb(0%,0%,0%)" x1="63.4762136934" x2="61.911549805" y1="308.686286882" y2="309.522560883" /><line stroke="rgb(0%,0%,0%)" x1="72.9346964883" x2="63.4762136934" y1="306.002009617" y2="308.686286882" /><line stroke="rgb(0%,0%,0%)" x1="75.3637103805" x2="72.9346964883" y1="304.307816969" y2="306.002009617" /><line stroke="rgb(0%,0%,0%)" x1="80.5305586863" x2="75.3637103805" y1="303.066912053" y2="304.307816969" /><line stroke="rgb(0%,0%,0%)" x1="80.5305586863" x2="87.7265894438" y1="303.066912053" y2="300.230924718" /><line stroke="rgb(0%,0%,0%)" x1="89.1113695071" x2="87.7265894438" y1="299.907710228" y2="300.230924718" /><line stroke="rgb(0%,0%,0%)" x1="10.4436341991" x2="11.5739928619" y1="447.971518973" y2="450.369412467" /><line stroke="rgb(0%,0%,0%)" x1="10.4436341991" x2="9.99674320491" y1="447.971518973" y2="445.553606142" /><line stroke="rgb(0%,0%,0%)" x1="10.7041175612" x2="10.0642247298" y1="433.352002866" y2="434.57332015" /><line stroke="rgb(0%,0%,0%)" x1="9.52228442377" x2="9.99674320491" y1="442.201190245" y2="445.553606142" /><line stroke="rgb(0%,0%,0%)" x1="10.0642247298" x2="9.52228442377" y1="434.57332015" y2="442.201190245" /><line stroke="rgb(0%,0%,0%)" x1="17.7403685077" x2="14.8224472229" y1="457.051260088" y2="455.354844012" /><line stroke="rgb(0%,0%,0%)" x1="23.125016407" x2="23.2339711609" y1="459.331884825" y2="460.807024733" /><line stroke="rgb(0%,0%,0%)" x1="17.7403685077" x2="23.125016407" y1="457.051260088" y2="459.331884825" /><line stroke="rgb(0%,0%,0%)" x1="11.5739928619" x2="14.8224472229" y1="450.369412467" y2="455.354844012" /><line stroke="rgb(0%,0%,0%)" x1="11.6376164306" x2="11.8478559648" y1="427.710036478" y2="427.187771619" /><line stroke="rgb(0%,0%,0%)" x1="11.6376164306" x2="10.7041175612" y1="427.710036478" y2="433.352002866" /><line stroke="rgb(0%,0%,0%)" x1="16.276607689" x2="18.9791305797" y1="422.58089715" y2="421.181936387" /><line stroke="rgb(0%,0%,0%)" x1="16.276607689" x2="11.8478559648" y1="422.58089715" y2="427.187771619" /><line stroke="rgb(0%,0%,0%)" x1="16.4117141592" x2="16.468590014" y1="408.253705555" y2="414.76142767" /><line stroke="rgb(0%,0%,0%)" x1="16.468590014" x2="18.5366779673" y1="414.76142767" y2="419.463659349" /><line stroke="rgb(0%,0%,0%)" x1="16.9992121586" x2="15.6337181014" y1="397.786497683" y2="401.606442311" /><line stroke="rgb(0%,0%,0%)" x1="15.6337181014" x2="16.4117141592" y1="401.606442311" y2="408.253705555" /><line stroke="rgb(0%,0%,0%)" x1="18.4675216017" x2="16.9992121586" y1="389.41955968" y2="397.786497683" /><line stroke="rgb(0%,0%,0%)" x1="23.9616260265" x2="22.9470635221" y1="376.440731058" y2="379.815977757" /><line stroke="rgb(0%,0%,0%)" x1="24.8779790629" x2="23.9616260265" y1="372.943745168" y2="376.440731058" /><line stroke="rgb(0%,0%,0%)" x1="24.8779790629" x2="25.6469349224" y1="372.943745168" y2="369.589331197" /><line stroke="rgb(0%,0%,0%)" x1="25.6469349224" x2="26.4932736023" y1="369.589331197" y2="364.728734966" /><line stroke="rgb(0%,0%,0%)" x1="31.9925803897" x2="27.966822118" y1="351.895626233" y2="360.647359712" /><line stroke="rgb(0%,0%,0%)" x1="27.966822118" x2="27.1150134076" y1="360.647359712" y2="362.862914549" /><line stroke="rgb(0%,0%,0%)" x1="27.1150134076" x2="26.4932736023" y1="362.862914549" y2="364.728734966" /><line stroke="rgb(0%,0%,0%)" x1="31.9925803897" x2="36.0239027185" y1="351.895626233" y2="343.971078289" /><line stroke="rgb(0%,0%,0%)" x1="38.7491880693" x2="36.0239027185" y1="340.039089244" y2="343.971078289" /><line stroke="rgb(0%,0%,0%)" x1="38.7491880693" x2="42.8938355081" y1="340.039089244" y2="330.846679079" /><line stroke="rgb(0%,0%,0%)" x1="43.2817400689" x2="43.1325113679" y1="330.210122186" y2="330.542093325" /><line stroke="rgb(0%,0%,0%)" x1="43.1325113679" x2="42.8938355081" y1="330.542093325" y2="330.846679079" /><line stroke="rgb(0%,0%,0%)" x1="43.5723903635" x2="43.2817400689" y1="329.878237188" y2="330.210122186" /><line stroke="rgb(0%,0%,0%)" x1="18.5366779673" x2="18.9791305797" y1="419.463659349" y2="421.181936387" /><line stroke="rgb(0%,0%,0%)" x1="22.9470635221" x2="21.1483005116" y1="379.815977757" y2="382.855287257" /><line stroke="rgb(0%,0%,0%)" x1="522.892455978" x2="522.744219156" y1="499.347645485" y2="500.372458799" /><line stroke="rgb(0%,0%,0%)" x1="522.892455978" x2="523.334995538" y1="499.347645485" y2="495.285621658" /><line stroke="rgb(0%,0%,0%)" x1="496.086790481" x2="498.422983626" y1="554.192150593" y2="551.661472646" /><line stroke="rgb(0%,0%,0%)" x1="509.187240435" x2="506.399445683" y1="532.639230024" y2="537.6167386" /><line stroke="rgb(0%,0%,0%)" x1="509.187240435" x2="513.297222332" y1="532.639230024" y2="526.660854416" /><line stroke="rgb(0%,0%,0%)" x1="513.297222332" x2="518.869619189" y1="526.660854416" y2="516.928777089" /><line stroke="rgb(0%,0%,0%)" x1="518.869619189" x2="522.115546846" y1="516.928777089" y2="509.383172653" /><line stroke="rgb(0%,0%,0%)" x1="522.115546846" x2="522.793320616" y1="509.383172653" y2="503.470337115" /><line stroke="rgb(0%,0%,0%)" x1="522.744219156" x2="522.793320616" y1="500.372458799" y2="503.470337115" /><line stroke="rgb(0%,0%,0%)" x1="523.334995538" x2="524.324260672" y1="495.285621658" y2="482.793624953" /><line stroke="rgb(0%,0%,0%)" x1="449.313780295" x2="450.01284259" y1="312.115240261" y2="313.08042376" /><line stroke="rgb(0%,0%,0%)" x1="449.313780295" x2="447.631397666" y1="312.115240261" y2="309.510333215" /><line stroke="rgb(0%,0%,0%)" x1="469.541281961" x2="469.602508961" y1="335.591580947" y2="335.657040762" /><line stroke="rgb(0%,0%,0%)" x1="469.602508961" x2="469.691268626" y1="335.657040762" y2="335.754934434" /><line stroke="rgb(0%,0%,0%)" x1="469.541281961" x2="464.014687509" y1="335.591580947" y2="330.087456653" /><line stroke="rgb(0%,0%,0%)" x1="464.014687509" x2="460.093804785" y1="330.087456653" y2="326.097923277" /><line stroke="rgb(0%,0%,0%)" x1="485.936469662" x2="480.548694458" y1="358.410122587" y2="349.089871389" /><line stroke="rgb(0%,0%,0%)" x1="480.548694458" x2="477.072908546" y1="349.089871389" y2="344.989297115" /><line stroke="rgb(0%,0%,0%)" x1="487.886104926" x2="488.035475234" y1="568.102137913" y2="567.536555971" /><line stroke="rgb(0%,0%,0%)" x1="489.034920898" x2="496.086790481" y1="565.007941927" y2="554.192150593" /><line stroke="rgb(0%,0%,0%)" x1="498.422983626" x2="499.62871522" y1="551.661472646" y2="549.996897315" /><line stroke="rgb(0%,0%,0%)" x1="486.243246403" x2="487.405458725" y1="359.096156765" y2="361.108661314" /><line stroke="rgb(0%,0%,0%)" x1="485.936469662" x2="486.243246403" y1="358.410122587" y2="359.096156765" /><line stroke="rgb(0%,0%,0%)" x1="499.62871522" x2="500.996049438" y1="549.996897315" y2="548.317078896" /><line stroke="rgb(0%,0%,0%)" x1="503.733741687" x2="500.996049438" y1="541.870205696" y2="548.317078896" /><line stroke="rgb(0%,0%,0%)" x1="503.733741687" x2="506.399445683" y1="541.870205696" y2="537.6167386" /><line stroke="rgb(0%,0%,0%)" x1="524.324260672" x2="522.687162093" y1="482.793624953" y2="477.218933677" /><line stroke="rgb(0%,0%,0%)" x1="520.97807521" x2="522.687162093" y1="468.522286151" y2="477.218933677" /><line stroke="rgb(0%,0%,0%)" x1="520.97807521" x2="521.190738118" y1="468.522286151" y2="462.854727474" /><line stroke="rgb(0%,0%,0%)" x1="439.070815741" x2="442.562325013" y1="299.826613509" y2="302.794550414" /><line stroke="rgb(0%,0%,0%)" x1="439.070815741" x2="437.310953373" y1="299.826613509" y2="298.183910165" /><line stroke="rgb(0%,0%,0%)" x1="457.24053788" x2="456.45195601" y1="323.258651339" y2="322.72471153" /><line stroke="rgb(0%,0%,0%)" x1="456.45195601" x2="451.234475091" y1="322.72471153" y2="315.267593095" /><line stroke="rgb(0%,0%,0%)" x1="450.01284259" x2="451.234475091" y1="313.08042376" y2="315.267593095" /><line stroke="rgb(0%,0%,0%)" x1="473.868872576" x2="469.691268626" y1="340.802400637" y2="335.754934434" /><line stroke="rgb(0%,0%,0%)" x1="460.093804785" x2="457.24053788" y1="326.097923277" y2="323.258651339" /><line stroke="rgb(0%,0%,0%)" x1="477.072908546" x2="473.868872576" y1="344.989297115" y2="340.802400637" /><line stroke="rgb(0%,0%,0%)" x1="402.577245647" x2="398.664020286" y1="652.11920528" y2="653.168297898" /><line stroke="rgb(0%,0%,0%)" x1="402.577245647" x2="405.537554852" y1="652.11920528" y2="650.902765886" /><line stroke="rgb(0%,0%,0%)" x1="424.063574807" x2="419.655820659" y1="637.611979241" y2="641.362032136" /><line stroke="rgb(0%,0%,0%)" x1="424.063574807" x2="426.758058545" y1="637.611979241" y2="635.390084602" /><line stroke="rgb(0%,0%,0%)" x1="426.758058545" x2="430.648379094" y1="635.390084602" y2="633.910552299" /><line stroke="rgb(0%,0%,0%)" x1="430.648379094" x2="439.764056751" y1="633.910552299" y2="628.284417823" /><line stroke="rgb(0%,0%,0%)" x1="439.764056751" x2="441.687570709" y1="628.284417823" y2="627.342091156" /><line stroke="rgb(0%,0%,0%)" x1="447.631397666" x2="445.801937157" y1="309.510333215" y2="306.582287756" /><line stroke="rgb(0%,0%,0%)" x1="445.801937157" x2="444.097368362" y1="306.582287756" y2="304.607204919" /><line stroke="rgb(0%,0%,0%)" x1="444.097368362" x2="443.736295557" y1="304.607204919" y2="304.146135035" /><line stroke="rgb(0%,0%,0%)" x1="443.736295557" x2="442.562325013" y1="304.146135035" y2="302.794550414" /><line stroke="rgb(0%,0%,0%)" x1="354.289668836" x2="354.271246946" y1="833.413741054" y2="833.44074973" /><line stroke="rgb(0%,0%,0%)" x1="354.289668836" x2="354.298802953" y1="833.413741054" y2="833.403329636" /><line stroke="rgb(0%,0%,0%)" x1="354.298802953" x2="354.354824284" y1="833.403329636" y2="833.344752315" /><line stroke="rgb(0%,0%,0%)" x1="366.426834901" x2="364.91540588" y1="764.433473531" y2="761.419918313" /><line stroke="rgb(0%,0%,0%)" x1="354.809386619" x2="354.454036399" y1="745.21851366" y2="743.502537391" /><line stroke="rgb(0%,0%,0%)" x1="354.454036399" x2="354.016012966" y1="743.502537391" y2="742.112839732" /><line stroke="rgb(0%,0%,0%)" x1="366.852652173" x2="367.031562177" y1="808.572446385" y2="809.383832254" /><line stroke="rgb(0%,0%,0%)" x1="366.852652173" x2="367.177269455" y1="808.572446385" y2="802.251747733" /><line stroke="rgb(0%,0%,0%)" x1="367.177269455" x2="364.79716934" y1="802.251747733" y2="797.629098173" /><line stroke="rgb(0%,0%,0%)" x1="366.426834901" x2="367.290085126" y1="764.433473531" y2="767.847197834" /><line stroke="rgb(0%,0%,0%)" x1="369.479489988" x2="375.615015174" y1="660.885330752" y2="656.955619073" /><line stroke="rgb(0%,0%,0%)" x1="388.441697171" x2="389.888819607" y1="655.779265393" y2="655.582194351" /><line stroke="rgb(0%,0%,0%)" x1="389.888819607" x2="391.577891635" y1="655.582194351" y2="655.543550031" /><line stroke="rgb(0%,0%,0%)" x1="391.577891635" x2="398.664020286" y1="655.543550031" y2="653.168297898" /><line stroke="rgb(0%,0%,0%)" x1="405.537554852" x2="407.899575363" y1="650.902765886" y2="649.316527747" /><line stroke="rgb(0%,0%,0%)" x1="407.899575363" x2="412.040756804" y1="649.316527747" y2="645.810445509" /><line stroke="rgb(0%,0%,0%)" x1="412.040756804" x2="415.746253907" y1="645.810445509" y2="643.97974004" /><line stroke="rgb(0%,0%,0%)" x1="415.746253907" x2="419.655820659" y1="643.97974004" y2="641.362032136" /><line stroke="rgb(0%,0%,0%)" x1="326.731504973" x2="328.840837287" y1="864.537505321" y2="863.678932117" /><line stroke="rgb(0%,0%,0%)" x1="351.400365594" x2="347.48633497" y1="844.441002142" y2="847.795381571" /><line stroke="rgb(0%,0%,0%)" x1="351.400365594" x2="351.528446106" y1="844.441002142" y2="842.494939536" /><line stroke="rgb(0%,0%,0%)" x1="351.232570101" x2="348.240649449" y1="734.020428652" y2="728.288854538" /><line stroke="rgb(0%,0%,0%)" x1="348.240649449" x2="344.845345496" y1="728.288854538" y2="723.826289099" /><line stroke="rgb(0%,0%,0%)" x1="340.951226102" x2="344.845345496" y1="718.438673831" y2="723.826289099" /><line stroke="rgb(0%,0%,0%)" x1="340.951226102" x2="339.259424379" y1="718.438673831" y2="716.942384076" /><line stroke="rgb(0%,0%,0%)" x1="342.480747739" x2="343.430629406" y1="679.599508628" y2="678.325659241" /><line stroke="rgb(0%,0%,0%)" x1="353.58904326" x2="350.880050093" y1="671.610093367" y2="673.915408457" /><line stroke="rgb(0%,0%,0%)" x1="353.58904326" x2="357.921553886" y1="671.610093367" y2="669.931670022" /><line stroke="rgb(0%,0%,0%)" x1="351.528446106" x2="352.268663521" y1="842.494939536" y2="839.418659345" /><line stroke="rgb(0%,0%,0%)" x1="352.268663521" x2="354.271246946" y1="839.418659345" y2="833.44074973" /><line stroke="rgb(0%,0%,0%)" x1="364.91540588" x2="362.448641074" y1="761.419918313" y2="756.468170627" /><line stroke="rgb(0%,0%,0%)" x1="362.448641074" x2="356.517768013" y1="756.468170627" y2="749.688630772" /><line stroke="rgb(0%,0%,0%)" x1="354.809386619" x2="355.190266925" y1="745.21851366" y2="747.332344548" /><line stroke="rgb(0%,0%,0%)" x1="354.016012966" x2="351.232570101" y1="742.112839732" y2="734.020428652" /><line stroke="rgb(0%,0%,0%)" x1="357.921553886" x2="359.294315819" y1="669.931670022" y2="668.36179543" /><line stroke="rgb(0%,0%,0%)" x1="362.949424696" x2="359.294315819" y1="666.226648856" y2="668.36179543" /><line stroke="rgb(0%,0%,0%)" x1="366.569175629" x2="365.870983079" y1="810.068313999" y2="813.790166871" /><line stroke="rgb(0%,0%,0%)" x1="363.422691937" x2="365.870983079" y1="822.604879133" y2="813.790166871" /><line stroke="rgb(0%,0%,0%)" x1="366.569175629" x2="367.031562177" y1="810.068313999" y2="809.383832254" /><line stroke="rgb(0%,0%,0%)" x1="364.79716934" x2="364.686353629" y1="797.629098173" y2="797.198645025" /><line stroke="rgb(0%,0%,0%)" x1="364.043066846" x2="364.686353629" y1="792.864926571" y2="797.198645025" /><line stroke="rgb(0%,0%,0%)" x1="364.043066846" x2="364.707684346" y1="792.864926571" y2="790.577303331" /><line stroke="rgb(0%,0%,0%)" x1="364.707684346" x2="366.539514191" y1="790.577303331" y2="781.897430668" /><line stroke="rgb(0%,0%,0%)" x1="366.539514191" x2="367.175955218" y1="781.897430668" y2="779.232674076" /><line stroke="rgb(0%,0%,0%)" x1="367.290085126" x2="367.483027751" y1="767.847197834" y2="774.85246693" /><line stroke="rgb(0%,0%,0%)" x1="367.175955218" x2="367.483027751" y1="779.232674076" y2="774.85246693" /><line stroke="rgb(0%,0%,0%)" x1="362.949424696" x2="364.479863211" y1="666.226648856" y2="664.658761913" /><line stroke="rgb(0%,0%,0%)" x1="364.479863211" x2="367.376010386" y1="664.658761913" y2="662.366435811" /><line stroke="rgb(0%,0%,0%)" x1="369.479489988" x2="367.376010386" y1="660.885330752" y2="662.366435811" /><line stroke="rgb(0%,0%,0%)" x1="375.615015174" x2="380.502905415" y1="656.955619073" y2="656.036853804" /><line stroke="rgb(0%,0%,0%)" x1="380.502905415" x2="388.441697171" y1="656.036853804" y2="655.779265393" /><line stroke="rgb(0%,0%,0%)" x1="323.794765183" x2="320.560609153" y1="864.08959258" y2="862.612689407" /><line stroke="rgb(0%,0%,0%)" x1="319.929404662" x2="316.576972357" y1="862.163544352" y2="858.011098637" /><line stroke="rgb(0%,0%,0%)" x1="323.794765183" x2="326.731504973" y1="864.08959258" y2="864.537505321" /><line stroke="rgb(0%,0%,0%)" x1="328.840837287" x2="338.222977606" y1="863.678932117" y2="856.552522922" /><line stroke="rgb(0%,0%,0%)" x1="335.457336746" x2="332.389006843" y1="713.446472035" y2="709.255496095" /><line stroke="rgb(0%,0%,0%)" x1="332.389006843" x2="334.021290124" y1="709.255496095" y2="705.079772542" /><line stroke="rgb(0%,0%,0%)" x1="334.021290124" x2="336.69701493" y1="705.079772542" y2="700.411800146" /><line stroke="rgb(0%,0%,0%)" x1="336.69701493" x2="336.803711013" y1="700.411800146" y2="698.400766589" /><line stroke="rgb(0%,0%,0%)" x1="336.196337974" x2="335.810210921" y1="691.445520493" y2="690.76939389" /><line stroke="rgb(0%,0%,0%)" x1="334.145833032" x2="335.810210921" y1="686.756631858" y2="690.76939389" /><line stroke="rgb(0%,0%,0%)" x1="335.468964215" x2="334.145833032" y1="685.501492749" y2="686.756631858" /><line stroke="rgb(0%,0%,0%)" x1="335.468964215" x2="336.18510078" y1="685.501492749" y2="684.13044231" /><line stroke="rgb(0%,0%,0%)" x1="336.18510078" x2="336.834638538" y1="684.13044231" y2="683.518206878" /><line stroke="rgb(0%,0%,0%)" x1="342.481662952" x2="346.59222922" y1="853.661618035" y2="848.784099316" /><line stroke="rgb(0%,0%,0%)" x1="346.59222922" x2="347.48633497" y1="848.784099316" y2="847.795381571" /><line stroke="rgb(0%,0%,0%)" x1="339.259424379" x2="335.457336746" y1="716.942384076" y2="713.446472035" /><line stroke="rgb(0%,0%,0%)" x1="336.803711013" x2="336.196337974" y1="698.400766589" y2="691.445520493" /><line stroke="rgb(0%,0%,0%)" x1="336.834638538" x2="342.480747739" y1="683.518206878" y2="679.599508628" /><line stroke="rgb(0%,0%,0%)" x1="343.430629406" x2="345.410244196" y1="678.325659241" y2="675.714631857" /><line stroke="rgb(0%,0%,0%)" x1="345.410244196" x2="347.123916521" y1="675.714631857" y2="674.649607068" /><line stroke="rgb(0%,0%,0%)" x1="347.123916521" x2="350.880050093" y1="674.649607068" y2="673.915408457" /><line stroke="rgb(0%,0%,0%)" x1="354.354824284" x2="363.422691937" y1="833.344752315" y2="822.604879133" /><line stroke="rgb(0%,0%,0%)" x1="356.517768013" x2="356.100260988" y1="749.688630772" y2="749.350711563" /><line stroke="rgb(0%,0%,0%)" x1="355.109765142" x2="355.190266925" y1="747.8918892" y2="747.332344548" /><line stroke="rgb(0%,0%,0%)" x1="355.830933909" x2="355.109765142" y1="749.12074573" y2="747.8918892" /><line stroke="rgb(0%,0%,0%)" x1="356.100260988" x2="355.830933909" y1="749.350711563" y2="749.12074573" /><line stroke="rgb(0%,0%,0%)" x1="274.09276464" x2="281.658639839" y1="749.158931615" y2="752.450250589" /><line stroke="rgb(0%,0%,0%)" x1="286.123280727" x2="295.615613481" y1="756.963045645" y2="763.375310631" /><line stroke="rgb(0%,0%,0%)" x1="281.658639839" x2="286.123280727" y1="752.450250589" y2="756.963045645" /><line stroke="rgb(0%,0%,0%)" x1="295.615613481" x2="297.583553337" y1="763.375310631" y2="767.299679218" /><line stroke="rgb(0%,0%,0%)" x1="319.929404662" x2="320.560609153" y1="862.163544352" y2="862.612689407" /><line stroke="rgb(0%,0%,0%)" x1="338.222977606" x2="340.750750919" y1="856.552522922" y2="854.786168252" /><line stroke="rgb(0%,0%,0%)" x1="340.750750919" x2="342.481662952" y1="854.786168252" y2="853.661618035" /><line stroke="rgb(0%,0%,0%)" x1="227.995083048" x2="234.185548521" y1="689.301816915" y2="701.835117293" /><line stroke="rgb(0%,0%,0%)" x1="244.08745655" x2="245.450269667" y1="724.525027196" y2="726.32756411" /><line stroke="rgb(0%,0%,0%)" x1="236.542341745" x2="236.096485877" y1="709.126756758" y2="707.349786748" /><line stroke="rgb(0%,0%,0%)" x1="256.229656945" x2="253.704140011" y1="738.945805079" y2="736.546590881" /><line stroke="rgb(0%,0%,0%)" x1="249.034521358" x2="253.704140011" y1="730.628861963" y2="736.546590881" /><line stroke="rgb(0%,0%,0%)" x1="245.450269667" x2="249.034521358" y1="726.32756411" y2="730.628861963" /><line stroke="rgb(0%,0%,0%)" x1="258.163900249" x2="256.229656945" y1="739.366131441" y2="738.945805079" /><line stroke="rgb(0%,0%,0%)" x1="258.163900249" x2="274.09276464" y1="739.366131441" y2="749.158931615" /><line stroke="rgb(0%,0%,0%)" x1="316.366802115" x2="316.576972357" y1="857.714805334" y2="858.011098637" /><line stroke="rgb(0%,0%,0%)" x1="200.081571909" x2="200.794436479" y1="654.764951617" y2="655.044603341" /><line stroke="rgb(0%,0%,0%)" x1="196.756208664" x2="200.081571909" y1="653.73782717" y2="654.764951617" /><line stroke="rgb(0%,0%,0%)" x1="196.756208664" x2="194.364212953" y1="653.73782717" y2="652.197200004" /><line stroke="rgb(0%,0%,0%)" x1="204.91145861" x2="206.008403216" y1="658.825036408" y2="660.430612661" /><line stroke="rgb(0%,0%,0%)" x1="201.520136569" x2="204.211154238" y1="656.082528085" y2="658.565078376" /><line stroke="rgb(0%,0%,0%)" x1="200.794436479" x2="201.520136569" y1="655.044603341" y2="656.082528085" /><line stroke="rgb(0%,0%,0%)" x1="219.95005196" x2="220.157958762" y1="673.139267652" y2="673.430010323" /><line stroke="rgb(0%,0%,0%)" x1="219.95005196" x2="217.722285433" y1="673.139267652" y2="672.097997678" /><line stroke="rgb(0%,0%,0%)" x1="212.07388846" x2="216.934933283" y1="664.991108251" y2="671.224019969" /><line stroke="rgb(0%,0%,0%)" x1="204.91145861" x2="204.211154238" y1="658.825036408" y2="658.565078376" /><line stroke="rgb(0%,0%,0%)" x1="226.370860088" x2="227.995083048" y1="686.011411124" y2="689.301816915" /><line stroke="rgb(0%,0%,0%)" x1="226.370860088" x2="223.806364484" y1="686.011411124" y2="676.497673197" /><line stroke="rgb(0%,0%,0%)" x1="220.157958762" x2="223.806364484" y1="673.430010323" y2="676.497673197" /><line stroke="rgb(0%,0%,0%)" x1="217.407703738" x2="217.722285433" y1="671.846554139" y2="672.097997678" /><line stroke="rgb(0%,0%,0%)" x1="216.934933283" x2="217.407703738" y1="671.224019969" y2="671.846554139" /><line stroke="rgb(0%,0%,0%)" x1="236.542341745" x2="244.08745655" y1="709.126756758" y2="724.525027196" /><line stroke="rgb(0%,0%,0%)" x1="236.519512103" x2="236.096485877" y1="705.28759243" y2="707.349786748" /><line stroke="rgb(0%,0%,0%)" x1="234.185548521" x2="236.519512103" y1="701.835117293" y2="705.28759243" /><line stroke="rgb(0%,0%,0%)" x1="139.188531535" x2="137.719618362" y1="624.015603083" y2="624.196691356" /><line stroke="rgb(0%,0%,0%)" x1="139.188531535" x2="142.176152679" y1="624.015603083" y2="624.654046567" /><line stroke="rgb(0%,0%,0%)" x1="189.684044014" x2="175.611134772" y1="650.119028578" y2="642.310951217" /><line stroke="rgb(0%,0%,0%)" x1="172.571899227" x2="175.186091303" y1="640.82002855" y2="641.929343264" /><line stroke="rgb(0%,0%,0%)" x1="175.186091303" x2="175.611134772" y1="641.929343264" y2="642.310951217" /><line stroke="rgb(0%,0%,0%)" x1="163.280054581" x2="172.571899227" y1="635.276545357" y2="640.82002855" /><line stroke="rgb(0%,0%,0%)" x1="189.684044014" x2="194.364212953" y1="650.119028578" y2="652.197200004" /><line stroke="rgb(0%,0%,0%)" x1="210.175210547" x2="211.23247609" y1="663.765842739" y2="664.91251158" /><line stroke="rgb(0%,0%,0%)" x1="211.23247609" x2="212.07388846" y1="664.91251158" y2="664.991108251" /><line stroke="rgb(0%,0%,0%)" x1="210.175210547" x2="207.852080023" y1="663.765842739" y2="662.820690221" /><line stroke="rgb(0%,0%,0%)" x1="206.008403216" x2="207.852080023" y1="660.430612661" y2="662.820690221" /><line stroke="rgb(0%,0%,0%)" x1="107.125647879" x2="111.567016263" y1="625.093317402" y2="626.167953629" /><line stroke="rgb(0%,0%,0%)" x1="111.567016263" x2="120.569332971" y1="626.167953629" y2="626.78132595" /><line stroke="rgb(0%,0%,0%)" x1="107.125647879" x2="105.428858704" y1="625.093317402" y2="625.323120527" /><line stroke="rgb(0%,0%,0%)" x1="120.569332971" x2="123.252412653" y1="626.78132595" y2="627.156160193" /><line stroke="rgb(0%,0%,0%)" x1="142.176152679" x2="152.435365815" y1="624.654046567" y2="627.34272894" /><line stroke="rgb(0%,0%,0%)" x1="152.435365815" x2="152.870800684" y1="627.34272894" y2="627.450195853" /><line stroke="rgb(0%,0%,0%)" x1="163.280054581" x2="153.351507962" y1="635.276545357" y2="627.739405579" /><line stroke="rgb(0%,0%,0%)" x1="152.870800684" x2="153.12879953" y1="627.450195853" y2="627.586030593" /><line stroke="rgb(0%,0%,0%)" x1="153.12879953" x2="153.351507962" y1="627.586030593" y2="627.739405579" /><line stroke="rgb(0%,0%,0%)" x1="92.7151759002" x2="98.6851361044" y1="622.516547915" y2="623.532802799" /><line stroke="rgb(0%,0%,0%)" x1="105.428858704" x2="98.6851361044" y1="625.323120527" y2="623.532802799" /><line stroke="rgb(0%,0%,0%)" x1="123.252412653" x2="131.04647773" y1="627.156160193" y2="625.180429352" /><line stroke="rgb(0%,0%,0%)" x1="131.04647773" x2="137.719618362" y1="625.180429352" y2="624.196691356" /><line stroke="rgb(0%,0%,0%)" x1="11.5505539504" x2="11.0862081634" y1="492.491854336" y2="491.189750159" /><line stroke="rgb(0%,0%,0%)" x1="10.6920208125" x2="13.8269311098" y1="475.175214758" y2="471.926601763" /><line stroke="rgb(0%,0%,0%)" x1="10.6920208125" x2="10.7410384557" y1="475.175214758" y2="477.69929126" /><line stroke="rgb(0%,0%,0%)" x1="41.0433005247" x2="40.3601374903" y1="591.270684654" y2="590.264449799" /><line stroke="rgb(0%,0%,0%)" x1="51.5424358698" x2="55.3222124667" y1="605.397632338" y2="609.334927466" /><line stroke="rgb(0%,0%,0%)" x1="41.0433005247" x2="43.2982994198" y1="591.270684654" y2="595.346540997" /><line stroke="rgb(0%,0%,0%)" x1="61.4335092677" x2="56.4426634326" y1="613.682974975" y2="610.155363913" /><line stroke="rgb(0%,0%,0%)" x1="86.5034634241" x2="74.6208596209" y1="622.653731787" y2="618.860278222" /><line stroke="rgb(0%,0%,0%)" x1="67.7613123868" x2="74.6208596209" y1="616.162464355" y2="618.860278222" /><line stroke="rgb(0%,0%,0%)" x1="88.0796506099" x2="91.1855782796" y1="622.34981421" y2="622.304916113" /><line stroke="rgb(0%,0%,0%)" x1="91.1855782796" x2="92.7151759002" y1="622.304916113" y2="622.516547915" /><line stroke="rgb(0%,0%,0%)" x1="86.5034634241" x2="88.0796506099" y1="622.653731787" y2="622.34981421" /><line stroke="rgb(0%,0%,0%)" x1="15.159654849" x2="16.9769210618" y1="530.585177953" y2="537.221435075" /><line stroke="rgb(0%,0%,0%)" x1="15.159654849" x2="12.7430131609" y1="530.585177953" y2="523.5779332" /><line stroke="rgb(0%,0%,0%)" x1="13.0122087057" x2="12.6836321026" y1="515.591088639" y2="514.271863695" /><line stroke="rgb(0%,0%,0%)" x1="13.0122087057" x2="12.3946536697" y1="515.591088639" y2="517.872597504" /><line stroke="rgb(0%,0%,0%)" x1="14.3522236598" x2="14.5688323907" y1="510.425289315" y2="505.758648817" /><line stroke="rgb(0%,0%,0%)" x1="14.3522236598" x2="12.6836321026" y1="510.425289315" y2="514.271863695" /><line stroke="rgb(0%,0%,0%)" x1="15.8470463988" x2="18.1655346054" y1="504.104428437" y2="499.395764518" /><line stroke="rgb(0%,0%,0%)" x1="15.8470463988" x2="14.5688323907" y1="504.104428437" y2="505.758648817" /><line stroke="rgb(0%,0%,0%)" x1="14.7674535526" x2="17.7115956793" y1="496.761162682" y2="498.717560409" /><line stroke="rgb(0%,0%,0%)" x1="11.5505539504" x2="11.7477776016" y1="492.491854336" y2="493.336118128" /><line stroke="rgb(0%,0%,0%)" x1="10.7410384557" x2="11.0862081634" y1="477.69929126" y2="491.189750159" /><line stroke="rgb(0%,0%,0%)" x1="23.2339711609" x2="13.8269311098" y1="460.807024733" y2="471.926601763" /><line stroke="rgb(0%,0%,0%)" x1="29.2944451595" x2="31.5086137229" y1="571.932619882" y2="576.411122711" /><line stroke="rgb(0%,0%,0%)" x1="29.2944451595" x2="27.3274586531" y1="571.932619882" y2="567.349203894" /><line stroke="rgb(0%,0%,0%)" x1="23.0342668831" x2="27.2788249547" y1="557.869656345" y2="567.24178986" /><line stroke="rgb(0%,0%,0%)" x1="23.0342668831" x2="21.8177298279" y1="557.869656345" y2="553.876532386" /><line stroke="rgb(0%,0%,0%)" x1="21.8177298279" x2="20.7231725885" y1="553.876532386" y2="549.840666433" /><line stroke="rgb(0%,0%,0%)" x1="17.7115956793" x2="18.1655346054" y1="498.717560409" y2="499.395764518" /><line stroke="rgb(0%,0%,0%)" x1="38.3149907621" x2="40.3601374903" y1="588.468311026" y2="590.264449799" /><line stroke="rgb(0%,0%,0%)" x1="38.3149907621" x2="34.0214457083" y1="588.468311026" y2="582.224532948" /><line stroke="rgb(0%,0%,0%)" x1="31.5086137229" x2="34.0214457083" y1="576.411122711" y2="582.224532948" /><line stroke="rgb(0%,0%,0%)" x1="50.4344201885" x2="51.5424358698" y1="604.308790845" y2="605.397632338" /><line stroke="rgb(0%,0%,0%)" x1="47.9953526148" x2="50.2042411814" y1="601.061565459" y2="604.203737799" /><line stroke="rgb(0%,0%,0%)" x1="50.2042411814" x2="50.4344201885" y1="604.203737799" y2="604.308790845" /><line stroke="rgb(0%,0%,0%)" x1="43.2982994198" x2="47.9953526148" y1="595.346540997" y2="601.061565459" /><line stroke="rgb(0%,0%,0%)" x1="55.3222124667" x2="56.4426634326" y1="609.334927466" y2="610.155363913" /><line stroke="rgb(0%,0%,0%)" x1="63.8885803637" x2="67.7613123868" y1="614.595557037" y2="616.162464355" /><line stroke="rgb(0%,0%,0%)" x1="61.4335092677" x2="63.8885803637" y1="613.682974975" y2="614.595557037" /><line stroke="rgb(0%,0%,0%)" x1="12.5600645861" x2="12.7430131609" y1="521.170374395" y2="523.5779332" /><line stroke="rgb(0%,0%,0%)" x1="12.3946536697" x2="12.5600645861" y1="517.872597504" y2="521.170374395" /><line stroke="rgb(0%,0%,0%)" x1="11.7477776016" x2="13.9465891287" y1="493.336118128" y2="495.885349453" /><line stroke="rgb(0%,0%,0%)" x1="13.9465891287" x2="14.7674535526" y1="495.885349453" y2="496.761162682" /><line stroke="rgb(0%,0%,0%)" x1="27.2788249547" x2="27.3124606769" y1="567.24178986" y2="567.302480859" /><line stroke="rgb(0%,0%,0%)" x1="27.3124606769" x2="27.3274586531" y1="567.302480859" y2="567.349203894" /><line stroke="rgb(0%,0%,0%)" x1="16.9769210618" x2="19.8931719334" y1="537.221435075" y2="546.975201631" /><line stroke="rgb(0%,0%,0%)" x1="19.8931719334" x2="20.3629654457" y1="546.975201631" y2="548.248061291" /><line stroke="rgb(0%,0%,0%)" x1="20.3629654457" x2="20.7231725885" y1="548.248061291" y2="549.840666433" /><line stroke="rgb(0%,0%,0%)" x1="470.980962593" x2="470.898828738" y1="592.293535819" y2="592.35662771" /><line stroke="rgb(0%,0%,0%)" x1="470.980962593" x2="471.09942711" y1="592.293535819" y2="592.152728257" /><line stroke="rgb(0%,0%,0%)" x1="484.886144911" x2="481.959636726" y1="573.153687088" y2="578.627573145" /><line stroke="rgb(0%,0%,0%)" x1="487.569426476" x2="484.886144911" y1="569.849466256" y2="573.153687088" /><line stroke="rgb(0%,0%,0%)" x1="481.235271289" x2="481.959636726" y1="579.835144963" y2="578.627573145" /><line stroke="rgb(0%,0%,0%)" x1="487.569426476" x2="487.886104926" y1="569.849466256" y2="568.102137913" /><line stroke="rgb(0%,0%,0%)" x1="441.687570709" x2="444.545082405" y1="627.342091156" y2="624.664230832" /><line stroke="rgb(0%,0%,0%)" x1="448.451353727" x2="444.545082405" y1="620.897601178" y2="624.664230832" /><line stroke="rgb(0%,0%,0%)" x1="448.451353727" x2="449.937860909" y1="620.897601178" y2="619.239876472" /><line stroke="rgb(0%,0%,0%)" x1="449.937860909" x2="451.07233109" y1="619.239876472" y2="616.643491245" /><line stroke="rgb(0%,0%,0%)" x1="454.089096509" x2="457.642376946" y1="611.04128209" y2="606.788400073" /><line stroke="rgb(0%,0%,0%)" x1="451.07233109" x2="454.089096509" y1="616.643491245" y2="611.04128209" /><line stroke="rgb(0%,0%,0%)" x1="457.642376946" x2="459.881518734" y1="606.788400073" y2="603.923622106" /><line stroke="rgb(0%,0%,0%)" x1="459.881518734" x2="461.619685292" y1="603.923622106" y2="602.248131711" /><line stroke="rgb(0%,0%,0%)" x1="463.525196992" x2="461.619685292" y1="599.929606842" y2="602.248131711" /><line stroke="rgb(0%,0%,0%)" x1="463.525196992" x2="464.664427796" y1="599.929606842" y2="598.554758927" /><line stroke="rgb(0%,0%,0%)" x1="464.664427796" x2="470.39616511" y1="598.554758927" y2="592.873416466" /><line stroke="rgb(0%,0%,0%)" x1="470.898828738" x2="470.39616511" y1="592.35662771" y2="592.873416466" /><line stroke="rgb(0%,0%,0%)" x1="471.09942711" x2="474.8142878" y1="592.152728257" y2="587.906594146" /><line stroke="rgb(0%,0%,0%)" x1="474.8142878" x2="480.525714202" y1="587.906594146" y2="580.895993107" /><line stroke="rgb(0%,0%,0%)" x1="480.525714202" x2="480.949130777" y1="580.895993107" y2="580.367666752" /><line stroke="rgb(0%,0%,0%)" x1="480.949130777" x2="481.235271289" y1="580.367666752" y2="579.835144963" /><line stroke="rgb(0%,0%,0%)" x1="313.984799147" x2="316.366802115" y1="854.817614952" y2="857.714805334" /><line stroke="rgb(0%,0%,0%)" x1="313.206942664" x2="313.984799147" y1="852.538573937" y2="854.817614952" /><line stroke="rgb(0%,0%,0%)" x1="313.206942664" x2="312.373828828" y1="852.538573937" y2="844.875786864" /><line stroke="rgb(0%,0%,0%)" x1="313.674898779" x2="312.373828828" y1="839.075687938" y2="844.875786864" /><line stroke="rgb(0%,0%,0%)" x1="313.73847524" x2="313.674898779" y1="833.775237875" y2="839.075687938" /><line stroke="rgb(0%,0%,0%)" x1="313.73847524" x2="314.092615773" y1="833.775237875" y2="832.13618603" /><line stroke="rgb(0%,0%,0%)" x1="313.978816268" x2="315.125390127" y1="820.649259128" y2="816.316123049" /><line stroke="rgb(0%,0%,0%)" x1="313.978816268" x2="314.092615773" y1="820.649259128" y2="832.13618603" /><line stroke="rgb(0%,0%,0%)" x1="311.829136429" x2="312.958575692" y1="808.289353541" y2="810.189517269" /><line stroke="rgb(0%,0%,0%)" x1="312.958575692" x2="315.125390127" y1="810.189517269" y2="816.316123049" /><line stroke="rgb(0%,0%,0%)" x1="311.829136429" x2="309.337652686" y1="808.289353541" y2="803.803410527" /><line stroke="rgb(0%,0%,0%)" x1="302.668063543" x2="304.384228012" y1="779.943302952" y2="783.925909685" /><line stroke="rgb(0%,0%,0%)" x1="301.306097658" x2="302.668063543" y1="773.001266423" y2="779.943302952" /><line stroke="rgb(0%,0%,0%)" x1="307.710166243" x2="304.654783849" y1="798.112819383" y2="786.63579721" /><line stroke="rgb(0%,0%,0%)" x1="304.384228012" x2="304.654783849" y1="783.925909685" y2="786.63579721" /><line stroke="rgb(0%,0%,0%)" x1="301.306097658" x2="297.583553337" y1="773.001266423" y2="767.299679218" /><line stroke="rgb(0%,0%,0%)" x1="307.710166243" x2="309.337652686" y1="798.112819383" y2="803.803410527" /><line stroke="rgb(0%,0%,0%)" x1="489.034920898" x2="488.035475234" y1="565.007941927" y2="567.536555971" /></svg>