<?xml version="1.0" encoding="utf-8" ?>
<svg baseProfile="full" height="100%" version="1.1" viewBox="0.5 0.5 685.793960571 941.299331665" width="100%" xmlns="http://www.w3.org/2000/svg" xmlns:ev="http://www.w3.org/2001/xml-events" xmlns:xlink="http://www.w3.org/1999/xlink"><defs /><line stroke="rgb(0%,0%,0%)" x1="517.091996567" x2="516.579673585" y1="407.026254493" y2="406.040330517" /><line stroke="rgb(0%,0%,0%)" x1="522.907483011" x2="521.99591629" y1="441.522578954" y2="447.696198912" /><line stroke="rgb(0%,0%,0%)" x1="522.907483011" x2="522.881506128" y1="441.522578954" y2="438.769194928" /><line stroke="rgb(0%,0%,0%)" x1="522.881506128" x2="522.447748413" y1="438.769194928" y2="435.332957076" /><line stroke="rgb(0%,0%,0%)" x1="516.579673585" x2="511.279306586" y1="406.040330517" y2="397.820248182" /><line stroke="rgb(0%,0%,0%)" x1="497.081707728" x2="505.929001686" y1="375.761154455" y2="389.563058054" /><line stroke="rgb(0%,0%,0%)" x1="520.725285315" x2="520.483682389" y1="460.072709385" y2="456.557829941" /><line stroke="rgb(0%,0%,0%)" x1="520.483682389" x2="519.958105145" y1="456.557829941" y2="454.225728921" /><line stroke="rgb(0%,0%,0%)" x1="519.958105145" x2="521.99591629" y1="454.225728921" y2="447.696198912" /><line stroke="rgb(0%,0%,0%)" x1="522.447748413" x2="521.050297574" y1="435.332957076" y2="420.967162316" /><line stroke="rgb(0%,0%,0%)" x1="521.050297574" x2="520.772635637" y1="420.967162316" y2="417.777685168" /><line stroke="rgb(0%,0%,0%)" x1="517.091996567" x2="518.293941178" y1="407.026254493" y2="410.323333624" /><line stroke="rgb(0%,0%,0%)" x1="489.632462268" x2="487.702589872" y1="364.685872315" y2="362.030123437" /><line stroke="rgb(0%,0%,0%)" x1="487.702589872" x2="486.934019931" y1="362.030123437" y2="360.963430858" /><line stroke="rgb(0%,0%,0%)" x1="486.934019931" x2="485.51781674" y1="360.963430858" y2="358.498040173" /><line stroke="rgb(0%,0%,0%)" x1="485.51781674" x2="485.40045482" y1="358.498040173" y2="358.251287108" /><line stroke="rgb(0%,0%,0%)" x1="497.081707728" x2="494.259135988" y1="375.761154455" y2="372.451916813" /><line stroke="rgb(0%,0%,0%)" x1="489.632462268" x2="494.259135988" y1="364.685872315" y2="372.451916813" /><line stroke="rgb(0%,0%,0%)" x1="511.279306586" x2="506.255771062" y1="397.820248182" y2="390.049796835" /><line stroke="rgb(0%,0%,0%)" x1="506.059473282" x2="505.929001686" y1="389.731818138" y2="389.563058054" /><line stroke="rgb(0%,0%,0%)" x1="520.851678845" x2="520.725285315" y1="462.87199265" y2="460.072709385" /><line stroke="rgb(0%,0%,0%)" x1="520.772635637" x2="518.293941178" y1="417.777685168" y2="410.323333624" /><line stroke="rgb(0%,0%,0%)" x1="506.255771062" x2="506.059473282" y1="390.049796835" y2="389.731818138" /><line stroke="rgb(0%,0%,0%)" x1="385.383340776" x2="398.250433901" y1="263.230204522" y2="270.343250212" /><line stroke="rgb(0%,0%,0%)" x1="405.610051262" x2="422.432843864" y1="275.010507444" y2="288.742657472" /><line stroke="rgb(0%,0%,0%)" x1="437.085895054" x2="436.113107647" y1="298.281857141" y2="297.633658061" /><line stroke="rgb(0%,0%,0%)" x1="436.113107647" x2="424.868953189" y1="297.633658061" y2="290.114101298" /><line stroke="rgb(0%,0%,0%)" x1="424.868953189" x2="424.038433386" y1="290.114101298" y2="289.595394493" /><line stroke="rgb(0%,0%,0%)" x1="347.015183561" x2="347.049040737" y1="158.27160825" y2="160.464868531" /><line stroke="rgb(0%,0%,0%)" x1="347.015183561" x2="347.14005332" y1="158.27160825" y2="156.715107014" /><line stroke="rgb(0%,0%,0%)" x1="347.14005332" x2="346.687698992" y1="156.715107014" y2="154.716667017" /><line stroke="rgb(0%,0%,0%)" x1="356.056668277" x2="347.002018612" y1="252.289528805" y2="250.056789218" /><line stroke="rgb(0%,0%,0%)" x1="367.505442594" x2="356.056668277" y1="257.023516054" y2="252.289528805" /><line stroke="rgb(0%,0%,0%)" x1="385.383340776" x2="378.131134332" y1="263.230204522" y2="260.241766601" /><line stroke="rgb(0%,0%,0%)" x1="378.131134332" x2="367.505442594" y1="260.241766601" y2="257.023516054" /><line stroke="rgb(0%,0%,0%)" x1="403.639719926" x2="398.250433901" y1="273.285811065" y2="270.343250212" /><line stroke="rgb(0%,0%,0%)" x1="405.610051262" x2="404.274816618" y1="275.010507444" y2="273.910387006" /><line stroke="rgb(0%,0%,0%)" x1="424.038433386" x2="422.432843864" y1="289.595394493" y2="288.742657472" /><line stroke="rgb(0%,0%,0%)" x1="278.42512586" x2="278.783988713" y1="69.937684474" y2="69.5539931073" /><line stroke="rgb(0%,0%,0%)" x1="278.783988713" x2="279.12961712" y1="69.5539931073" y2="69.1573189435" /><line stroke="rgb(0%,0%,0%)" x1="323.08420008" x2="318.709776953" y1="77.2738084872" y2="72.9410899443" /><line stroke="rgb(0%,0%,0%)" x1="327.687650671" x2="327.590758953" y1="225.062535792" y2="225.252934219" /><line stroke="rgb(0%,0%,0%)" x1="329.430376578" x2="332.622631921" y1="92.274002363" y2="96.2180620544" /><line stroke="rgb(0%,0%,0%)" x1="329.430376578" x2="329.195802537" y1="92.274002363" y2="91.9905444368" /><line stroke="rgb(0%,0%,0%)" x1="329.195802537" x2="326.477559162" y1="91.9905444368" y2="84.5059632715" /><line stroke="rgb(0%,0%,0%)" x1="326.477559162" x2="323.457826386" y1="84.5059632715" y2="78.3780452555" /><line stroke="rgb(0%,0%,0%)" x1="323.255614794" x2="323.457826386" y1="77.6037687413" y2="78.3780452555" /><line stroke="rgb(0%,0%,0%)" x1="323.08420008" x2="323.255614794" y1="77.2738084872" y2="77.6037687413" /><line stroke="rgb(0%,0%,0%)" x1="337.9297412" x2="333.711474304" y1="250.067647943" y2="247.526996901" /><line stroke="rgb(0%,0%,0%)" x1="347.002018612" x2="337.9297412" y1="250.056789218" y2="250.067647943" /><line stroke="rgb(0%,0%,0%)" x1="327.718525804" x2="327.687650671" y1="224.911001661" y2="225.062535792" /><line stroke="rgb(0%,0%,0%)" x1="327.718525804" x2="327.723887302" y1="224.911001661" y2="224.613599577" /><line stroke="rgb(0%,0%,0%)" x1="327.723887302" x2="324.997233671" y1="224.613599577" y2="212.420275548" /><line stroke="rgb(0%,0%,0%)" x1="324.997233671" x2="330.889867565" y1="212.420275548" y2="207.292416084" /><line stroke="rgb(0%,0%,0%)" x1="331.478431801" x2="330.889867565" y1="205.087431546" y2="207.292416084" /><line stroke="rgb(0%,0%,0%)" x1="331.478431801" x2="333.140666974" y1="205.087431546" y2="202.098391375" /><line stroke="rgb(0%,0%,0%)" x1="333.140666974" x2="335.923634755" y1="202.098391375" y2="194.375436178" /><line stroke="rgb(0%,0%,0%)" x1="337.537635956" x2="337.17607783" y1="182.490854413" y2="187.138185319" /><line stroke="rgb(0%,0%,0%)" x1="337.537635956" x2="338.366723267" y1="182.490854413" y2="177.204005054" /><line stroke="rgb(0%,0%,0%)" x1="346.073934116" x2="340.62497776" y1="164.114280383" y2="174.329632796" /><line stroke="rgb(0%,0%,0%)" x1="340.717493018" x2="339.813256351" y1="138.906783549" y2="137.14057971" /><line stroke="rgb(0%,0%,0%)" x1="339.813256351" x2="339.307165361" y1="137.14057971" y2="135.579202405" /><line stroke="rgb(0%,0%,0%)" x1="339.307165361" x2="340.221102531" y1="135.579202405" y2="131.666136129" /><line stroke="rgb(0%,0%,0%)" x1="340.221102531" x2="340.371850219" y1="131.666136129" y2="129.193241582" /><line stroke="rgb(0%,0%,0%)" x1="341.391852809" x2="340.404154596" y1="110.637970064" y2="126.553725826" /><line stroke="rgb(0%,0%,0%)" x1="340.371850219" x2="340.404154596" y1="129.193241582" y2="126.553725826" /><line stroke="rgb(0%,0%,0%)" x1="341.350687755" x2="341.391852809" y1="106.138468269" y2="110.637970064" /><line stroke="rgb(0%,0%,0%)" x1="340.013992267" x2="335.735767525" y1="105.156555134" y2="100.19276391" /><line stroke="rgb(0%,0%,0%)" x1="341.350687755" x2="340.013992267" y1="106.138468269" y2="105.156555134" /><line stroke="rgb(0%,0%,0%)" x1="335.735767525" x2="334.974369867" y1="100.19276391" y2="98.7629040681" /><line stroke="rgb(0%,0%,0%)" x1="334.974369867" x2="332.622631921" y1="98.7629040681" y2="96.2180620544" /><line stroke="rgb(0%,0%,0%)" x1="346.073934116" x2="347.049040737" y1="164.114280383" y2="160.464868531" /><line stroke="rgb(0%,0%,0%)" x1="346.687698992" x2="345.006725739" y1="154.716667017" y2="148.661358072" /><line stroke="rgb(0%,0%,0%)" x1="345.006725739" x2="340.717493018" y1="148.661358072" y2="138.906783549" /><line stroke="rgb(0%,0%,0%)" x1="404.274816618" x2="403.639719926" y1="273.910387006" y2="273.285811065" /><line stroke="rgb(0%,0%,0%)" x1="278.42512586" x2="278.266905851" y1="69.937684474" y2="70.6345270831" /><line stroke="rgb(0%,0%,0%)" x1="278.266905851" x2="277.925407418" y1="70.6345270831" y2="74.8204360706" /><line stroke="rgb(0%,0%,0%)" x1="287.786345862" x2="287.319073179" y1="117.184740305" y2="121.171397328" /><line stroke="rgb(0%,0%,0%)" x1="288.407451079" x2="288.026201442" y1="89.6091574778" y2="91.304874556" /><line stroke="rgb(0%,0%,0%)" x1="288.407451079" x2="287.942350376" y1="89.6091574778" y2="88.8565240671" /><line stroke="rgb(0%,0%,0%)" x1="288.214837776" x2="293.073667567" y1="62.4322080755" y2="63.1441103716" /><line stroke="rgb(0%,0%,0%)" x1="299.671743696" x2="312.281361085" y1="63.2699391926" y2="67.3132545855" /><line stroke="rgb(0%,0%,0%)" x1="299.671743696" x2="293.073667567" y1="63.2699391926" y2="63.1441103716" /><line stroke="rgb(0%,0%,0%)" x1="318.709776953" x2="313.543242962" y1="72.9410899443" y2="67.9692165988" /><line stroke="rgb(0%,0%,0%)" x1="313.543242962" x2="312.281361085" y1="67.9692165988" y2="67.3132545855" /><line stroke="rgb(0%,0%,0%)" x1="329.596456724" x2="323.398552921" y1="244.824068384" y2="240.961724329" /><line stroke="rgb(0%,0%,0%)" x1="333.711474304" x2="329.596456724" y1="247.526996901" y2="244.824068384" /><line stroke="rgb(0%,0%,0%)" x1="321.952771338" x2="323.398552921" y1="239.796269523" y2="240.961724329" /><line stroke="rgb(0%,0%,0%)" x1="321.952771338" x2="321.749327795" y1="239.796269523" y2="236.582616902" /><line stroke="rgb(0%,0%,0%)" x1="321.749327795" x2="324.513022413" y1="236.582616902" y2="234.901056506" /><line stroke="rgb(0%,0%,0%)" x1="324.513022413" x2="327.590758953" y1="234.901056506" y2="225.252934219" /><line stroke="rgb(0%,0%,0%)" x1="335.923634755" x2="335.766436388" y1="194.375436178" y2="192.062345503" /><line stroke="rgb(0%,0%,0%)" x1="335.766436388" x2="337.17607783" y1="192.062345503" y2="187.138185319" /><line stroke="rgb(0%,0%,0%)" x1="338.366723267" x2="340.052396017" y1="177.204005054" y2="174.721422983" /><line stroke="rgb(0%,0%,0%)" x1="340.052396017" x2="340.62497776" y1="174.721422983" y2="174.329632796" /><line stroke="rgb(0%,0%,0%)" x1="275.867662468" x2="272.129338972" y1="148.346840201" y2="151.416818207" /><line stroke="rgb(0%,0%,0%)" x1="279.685222664" x2="275.867662468" y1="147.440213607" y2="148.346840201" /><line stroke="rgb(0%,0%,0%)" x1="279.685222664" x2="281.008998109" y1="147.440213607" y2="143.974271418" /><line stroke="rgb(0%,0%,0%)" x1="281.008998109" x2="284.023372742" y1="143.974271418" y2="134.921349419" /><line stroke="rgb(0%,0%,0%)" x1="282.370133922" x2="281.089315408" y1="79.3473235296" y2="76.7954566109" /><line stroke="rgb(0%,0%,0%)" x1="278.597846301" x2="281.089315408" y1="75.2791815745" y2="76.7954566109" /><line stroke="rgb(0%,0%,0%)" x1="277.925407418" x2="278.597846301" y1="74.8204360706" y2="75.2791815745" /><line stroke="rgb(0%,0%,0%)" x1="281.630876654" x2="279.12961712" y1="66.3846137435" y2="69.1573189435" /><line stroke="rgb(0%,0%,0%)" x1="285.426612007" x2="284.023372742" y1="129.751428389" y2="134.921349419" /><line stroke="rgb(0%,0%,0%)" x1="285.572498901" x2="285.426612007" y1="128.59653753" y2="129.751428389" /><line stroke="rgb(0%,0%,0%)" x1="287.319073179" x2="287.096186722" y1="121.171397328" y2="125.353648632" /><line stroke="rgb(0%,0%,0%)" x1="287.096186722" x2="286.213724775" y1="125.353648632" y2="127.51285983" /><line stroke="rgb(0%,0%,0%)" x1="286.213724775" x2="285.572498901" y1="127.51285983" y2="128.59653753" /><line stroke="rgb(0%,0%,0%)" x1="287.165656989" x2="287.786345862" y1="113.255424058" y2="117.184740305" /><line stroke="rgb(0%,0%,0%)" x1="287.165656989" x2="287.12536627" y1="113.255424058" y2="107.595154539" /><line stroke="rgb(0%,0%,0%)" x1="287.740786319" x2="287.12536627" y1="96.7465482034" y2="107.595154539" /><line stroke="rgb(0%,0%,0%)" x1="288.026201442" x2="287.740786319" y1="91.304874556" y2="96.7465482034" /><line stroke="rgb(0%,0%,0%)" x1="286.669398719" x2="287.942350376" y1="82.4098450127" y2="88.8565240671" /><line stroke="rgb(0%,0%,0%)" x1="286.0437429" x2="286.669398719" y1="81.4761581076" y2="82.4098450127" /><line stroke="rgb(0%,0%,0%)" x1="282.370133922" x2="286.0437429" y1="79.3473235296" y2="81.4761581076" /><line stroke="rgb(0%,0%,0%)" x1="284.240053008" x2="281.630876654" y1="65.0712968726" y2="66.3846137435" /><line stroke="rgb(0%,0%,0%)" x1="222.711594407" x2="219.868090821" y1="251.550080243" y2="254.988013362" /><line stroke="rgb(0%,0%,0%)" x1="233.114561974" x2="235.009540685" y1="239.901498604" y2="237.4685636" /><line stroke="rgb(0%,0%,0%)" x1="246.559289578" x2="245.482670984" y1="221.773986411" y2="225.921223184" /><line stroke="rgb(0%,0%,0%)" x1="245.482670984" x2="244.740279984" y1="225.921223184" y2="229.921390241" /><line stroke="rgb(0%,0%,0%)" x1="246.559289578" x2="246.075569447" y1="221.773986411" y2="212.550315502" /><line stroke="rgb(0%,0%,0%)" x1="245.028953913" x2="247.645833731" y1="202.526145831" y2="192.849008299" /><line stroke="rgb(0%,0%,0%)" x1="245.904006575" x2="246.075569447" y1="210.275477801" y2="212.550315502" /><line stroke="rgb(0%,0%,0%)" x1="245.028953913" x2="245.678494881" y1="202.526145831" y2="208.538363506" /><line stroke="rgb(0%,0%,0%)" x1="247.876491337" x2="247.645833731" y1="190.244765237" y2="192.849008299" /><line stroke="rgb(0%,0%,0%)" x1="250.92768163" x2="247.876491337" y1="184.617636113" y2="190.244765237" /><line stroke="rgb(0%,0%,0%)" x1="252.741372929" x2="250.92768163" y1="180.737597528" y2="184.617636113" /><line stroke="rgb(0%,0%,0%)" x1="253.720168602" x2="252.741372929" y1="177.515269099" y2="180.737597528" /><line stroke="rgb(0%,0%,0%)" x1="261.179023825" x2="253.720168602" y1="166.623963046" y2="177.515269099" /><line stroke="rgb(0%,0%,0%)" x1="262.828826319" x2="261.179023825" y1="162.6662536" y2="166.623963046" /><line stroke="rgb(0%,0%,0%)" x1="272.129338972" x2="262.828826319" y1="151.416818207" y2="162.6662536" /><line stroke="rgb(0%,0%,0%)" x1="288.214837776" x2="286.035441566" y1="62.4322080755" y2="62.9055506314" /><line stroke="rgb(0%,0%,0%)" x1="286.035441566" x2="284.240053008" y1="62.9055506314" y2="65.0712968726" /><line stroke="rgb(0%,0%,0%)" x1="204.305358035" x2="201.848648754" y1="265.703747228" y2="266.339758299" /><line stroke="rgb(0%,0%,0%)" x1="204.305358035" x2="208.126940124" y1="265.703747228" y2="263.319597194" /><line stroke="rgb(0%,0%,0%)" x1="215.042656164" x2="210.9747619" y1="257.540058959" y2="261.525440882" /><line stroke="rgb(0%,0%,0%)" x1="215.042656164" x2="216.370864809" y1="257.540058959" y2="257.567573081" /><line stroke="rgb(0%,0%,0%)" x1="217.630861769" x2="216.370864809" y1="256.349492351" y2="257.567573081" /><line stroke="rgb(0%,0%,0%)" x1="219.25058475" x2="217.630861769" y1="255.625888228" y2="256.349492351" /><line stroke="rgb(0%,0%,0%)" x1="219.868090821" x2="219.25058475" y1="254.988013362" y2="255.625888228" /><line stroke="rgb(0%,0%,0%)" x1="227.801724058" x2="222.711594407" y1="246.936277082" y2="251.550080243" /><line stroke="rgb(0%,0%,0%)" x1="229.044790072" x2="227.801724058" y1="246.19968181" y2="246.936277082" /><line stroke="rgb(0%,0%,0%)" x1="229.044790072" x2="229.635467779" y1="246.19968181" y2="245.571466324" /><line stroke="rgb(0%,0%,0%)" x1="231.85143319" x2="229.635467779" y1="243.008417408" y2="245.571466324" /><line stroke="rgb(0%,0%,0%)" x1="233.114561974" x2="231.85143319" y1="239.901498604" y2="243.008417408" /><line stroke="rgb(0%,0%,0%)" x1="237.708300192" x2="235.009540685" y1="235.364422066" y2="237.4685636" /><line stroke="rgb(0%,0%,0%)" x1="242.041103261" x2="244.740279984" y1="232.442841128" y2="229.921390241" /><line stroke="rgb(0%,0%,0%)" x1="242.041103261" x2="237.708300192" y1="232.442841128" y2="235.364422066" /><line stroke="rgb(0%,0%,0%)" x1="245.678494881" x2="245.904006575" y1="208.538363506" y2="210.275477801" /><line stroke="rgb(0%,0%,0%)" x1="175.853997957" x2="168.311801575" y1="278.784136957" y2="281.660460515" /><line stroke="rgb(0%,0%,0%)" x1="182.938691857" x2="175.853997957" y1="275.550829255" y2="278.784136957" /><line stroke="rgb(0%,0%,0%)" x1="155.147743019" x2="156.554566388" y1="289.734710682" y2="289.079781065" /><line stroke="rgb(0%,0%,0%)" x1="168.311801575" x2="156.554566388" y1="281.660460515" y2="289.079781065" /><line stroke="rgb(0%,0%,0%)" x1="199.601570257" x2="182.938691857" y1="266.758468754" y2="275.550829255" /><line stroke="rgb(0%,0%,0%)" x1="199.601570257" x2="201.848648754" y1="266.758468754" y2="266.339758299" /><line stroke="rgb(0%,0%,0%)" x1="210.442687156" x2="208.126940124" y1="261.91932731" y2="263.319597194" /><line stroke="rgb(0%,0%,0%)" x1="210.9747619" x2="210.442687156" y1="261.525440882" y2="261.91932731" /><line stroke="rgb(0%,0%,0%)" x1="142.78872062" x2="145.997193955" y1="292.809388103" y2="291.869670774" /><line stroke="rgb(0%,0%,0%)" x1="142.78872062" x2="137.440915341" y1="292.809388103" y2="292.538941558" /><line stroke="rgb(0%,0%,0%)" x1="155.147743019" x2="145.997193955" y1="289.734710682" y2="291.869670774" /><line stroke="rgb(0%,0%,0%)" x1="102.753428761" x2="107.252681044" y1="297.677032753" y2="296.083773585" /><line stroke="rgb(0%,0%,0%)" x1="107.252681044" x2="110.51903943" y1="296.083773585" y2="295.359513484" /><line stroke="rgb(0%,0%,0%)" x1="114.128289326" x2="110.51903943" y1="294.662494291" y2="295.359513484" /><line stroke="rgb(0%,0%,0%)" x1="118.85858521" x2="127.721935887" y1="294.05670041" y2="292.178615521" /><line stroke="rgb(0%,0%,0%)" x1="137.440915341" x2="127.721935887" y1="292.538941558" y2="292.178615521" /><line stroke="rgb(0%,0%,0%)" x1="118.85858521" x2="114.128289326" y1="294.05670041" y2="294.662494291" /><line stroke="rgb(0%,0%,0%)" x1="102.753428761" x2="96.5131675577" y1="297.677032753" y2="298.444230626" /><line stroke="rgb(0%,0%,0%)" x1="96.5131675577" x2="89.8055263689" y1="298.444230626" y2="300.075155859" /><line stroke="rgb(0%,0%,0%)" x1="20.1082185138" x2="20.5256386195" y1="385.916793914" y2="383.382710102" /><line stroke="rgb(0%,0%,0%)" x1="20.1082185138" x2="18.1589893534" y1="385.916793914" y2="389.177790947" /><line stroke="rgb(0%,0%,0%)" x1="53.84069768" x2="44.045187657" y1="317.588972126" y2="329.163961171" /><line stroke="rgb(0%,0%,0%)" x1="56.662396053" x2="53.84069768" y1="314.742543828" y2="317.588972126" /><line stroke="rgb(0%,0%,0%)" x1="57.8268241252" x2="56.662396053" y1="314.63842639" y2="314.742543828" /><line stroke="rgb(0%,0%,0%)" x1="57.8268241252" x2="61.7846134236" y1="314.63842639" y2="309.912803025" /><line stroke="rgb(0%,0%,0%)" x1="64.1327928505" x2="61.7846134236" y1="308.657759422" y2="309.912803025" /><line stroke="rgb(0%,0%,0%)" x1="72.6858996194" x2="64.1327928505" y1="306.230424029" y2="308.657759422" /><line stroke="rgb(0%,0%,0%)" x1="74.8824057202" x2="72.6858996194" y1="304.698401302" y2="306.230424029" /><line stroke="rgb(0%,0%,0%)" x1="80.8086387189" x2="74.8824057202" y1="303.275117469" y2="304.698401302" /><line stroke="rgb(0%,0%,0%)" x1="80.8086387189" x2="87.6539863108" y1="303.275117469" y2="300.57733591" /><line stroke="rgb(0%,0%,0%)" x1="89.8055263689" x2="87.6539863108" y1="300.075155859" y2="300.57733591" /><line stroke="rgb(0%,0%,0%)" x1="10.4019287188" x2="11.3236568154" y1="447.776211615" y2="449.731525339" /><line stroke="rgb(0%,0%,0%)" x1="10.4019287188" x2="10.0375205012" y1="447.776211615" y2="445.804573527" /><line stroke="rgb(0%,0%,0%)" x1="10.4300858405" x2="10.1107716696" y1="433.276025541" y2="433.885477463" /><line stroke="rgb(0%,0%,0%)" x1="9.52249568355" x2="10.0375205012" y1="442.165527408" y2="445.804573527" /><line stroke="rgb(0%,0%,0%)" x1="10.1107716696" x2="9.52249568355" y1="433.885477463" y2="442.165527408" /><line stroke="rgb(0%,0%,0%)" x1="17.6795828173" x2="15.1248565377" y1="457.050522448" y2="455.565260061" /><line stroke="rgb(0%,0%,0%)" x1="23.3681051231" x2="23.4615237492" y1="459.459850769" y2="460.724646829" /><line stroke="rgb(0%,0%,0%)" x1="17.6795828173" x2="23.3681051231" y1="457.050522448" y2="459.459850769" /><line stroke="rgb(0%,0%,0%)" x1="11.3236568154" x2="15.1248565377" y1="449.731525339" y2="455.565260061" /><line stroke="rgb(0%,0%,0%)" x1="11.4147466901" x2="11.4936721733" y1="427.324841668" y2="427.12877956" /><line stroke="rgb(0%,0%,0%)" x1="11.4147466901" x2="10.4300858405" y1="427.324841668" y2="433.276025541" /><line stroke="rgb(0%,0%,0%)" x1="16.4788718067" x2="18.8625148924" y1="421.943077054" y2="420.709184397" /><line stroke="rgb(0%,0%,0%)" x1="16.4788718067" x2="11.4936721733" y1="421.943077054" y2="427.12877956" /><line stroke="rgb(0%,0%,0%)" x1="16.4673880739" x2="16.5142399782" y1="408.971299841" y2="414.332083864" /><line stroke="rgb(0%,0%,0%)" x1="16.5142399782" x2="18.2178426615" y1="414.332083864" y2="418.205581842" /><line stroke="rgb(0%,0%,0%)" x1="16.5427540128" x2="15.5528050602" y1="398.387662175" y2="401.157026247" /><line stroke="rgb(0%,0%,0%)" x1="15.5528050602" x2="16.4673880739" y1="401.157026247" y2="408.971299841" /><line stroke="rgb(0%,0%,0%)" x1="18.1589893534" x2="16.5427540128" y1="389.177790947" y2="398.387662175" /><line stroke="rgb(0%,0%,0%)" x1="23.5248763134" x2="22.6980556485" y1="376.961382826" y2="379.712049944" /><line stroke="rgb(0%,0%,0%)" x1="24.5588167366" x2="23.5248763134" y1="373.015660024" y2="376.961382826" /><line stroke="rgb(0%,0%,0%)" x1="24.5588167366" x2="25.1277861237" y1="373.015660024" y2="370.533646476" /><line stroke="rgb(0%,0%,0%)" x1="25.1277861237" x2="25.7540129662" y1="370.533646476" y2="366.937171562" /><line stroke="rgb(0%,0%,0%)" x1="32.3380917371" x2="29.733834934" y1="350.252538314" y2="355.914021174" /><line stroke="rgb(0%,0%,0%)" x1="29.733834934" x2="27.4332340499" y1="355.914021174" y2="361.897885101" /><line stroke="rgb(0%,0%,0%)" x1="27.4332340499" x2="25.7540129662" y1="361.897885101" y2="366.937171562" /><line stroke="rgb(0%,0%,0%)" x1="32.3380917371" x2="34.94594792" y1="350.252538314" y2="345.126160499" /><line stroke="rgb(0%,0%,0%)" x1="38.4970860993" x2="34.94594792" y1="340.002646951" y2="345.126160499" /><line stroke="rgb(0%,0%,0%)" x1="38.4970860993" x2="42.1905416386" y1="340.002646951" y2="331.81093493" /><line stroke="rgb(0%,0%,0%)" x1="43.2507737532" x2="42.842897494" y1="330.071078974" y2="330.97843222" /><line stroke="rgb(0%,0%,0%)" x1="42.842897494" x2="42.1905416386" y1="330.97843222" y2="331.81093493" /><line stroke="rgb(0%,0%,0%)" x1="44.045187657" x2="43.2507737532" y1="329.163961171" y2="330.071078974" /><line stroke="rgb(0%,0%,0%)" x1="18.2178426615" x2="18.8625148924" y1="418.205581842" y2="420.709184397" /><line stroke="rgb(0%,0%,0%)" x1="22.6980556485" x2="20.5256386195" y1="379.712049944" y2="383.382710102" /><line stroke="rgb(0%,0%,0%)" x1="522.700716478" x2="522.641724607" y1="499.836279143" y2="500.244110708" /><line stroke="rgb(0%,0%,0%)" x1="522.700716478" x2="522.876828165" y1="499.836279143" y2="498.219768596" /><line stroke="rgb(0%,0%,0%)" x1="496.70892479" x2="498.25184344" y1="552.956531647" y2="551.285167184" /><line stroke="rgb(0%,0%,0%)" x1="508.97117123" x2="507.104057773" y1="533.17061427" y2="536.504279073" /><line stroke="rgb(0%,0%,0%)" x1="508.97117123" x2="511.723813799" y1="533.17061427" y2="529.166623108" /><line stroke="rgb(0%,0%,0%)" x1="511.723813799" x2="518.826668945" y1="529.166623108" y2="516.761631629" /><line stroke="rgb(0%,0%,0%)" x1="518.826668945" x2="521.665736619" y1="516.761631629" y2="510.161829077" /><line stroke="rgb(0%,0%,0%)" x1="521.665736619" x2="522.661264873" y1="510.161829077" y2="501.476932864" /><line stroke="rgb(0%,0%,0%)" x1="522.641724607" x2="522.661264873" y1="500.244110708" y2="501.476932864" /><line stroke="rgb(0%,0%,0%)" x1="522.876828165" x2="524.04524348" y1="498.219768596" y2="483.465543704" /><line stroke="rgb(0%,0%,0%)" x1="448.728792416" x2="449.021663064" y1="311.947968015" y2="312.35232957" /><line stroke="rgb(0%,0%,0%)" x1="448.728792416" x2="448.023961824" y1="311.947968015" y2="310.856647799" /><line stroke="rgb(0%,0%,0%)" x1="463.56013911" x2="467.948352169" y1="329.798396401" y2="334.16876776" /><line stroke="rgb(0%,0%,0%)" x1="463.56013911" x2="460.547299577" y1="329.798396401" y2="326.732805124" /><line stroke="rgb(0%,0%,0%)" x1="479.694507511" x2="484.696275779" y1="348.500946054" y2="357.153448232" /><line stroke="rgb(0%,0%,0%)" x1="479.694507511" x2="477.189065093" y1="348.500946054" y2="345.54513894" /><line stroke="rgb(0%,0%,0%)" x1="487.317491002" x2="487.615634581" y1="568.864895862" y2="567.735992621" /><line stroke="rgb(0%,0%,0%)" x1="488.451397973" x2="496.70892479" y1="565.621497431" y2="552.956531647" /><line stroke="rgb(0%,0%,0%)" x1="498.25184344" x2="499.048158491" y1="551.285167184" y2="550.185812736" /><line stroke="rgb(0%,0%,0%)" x1="499.048158491" x2="501.339360323" y1="550.185812736" y2="547.370990298" /><line stroke="rgb(0%,0%,0%)" x1="503.536860003" x2="501.339360323" y1="542.196193242" y2="547.370990298" /><line stroke="rgb(0%,0%,0%)" x1="503.536860003" x2="507.104057773" y1="542.196193242" y2="536.504279073" /><line stroke="rgb(0%,0%,0%)" x1="524.04524348" x2="522.111675839" y1="483.465543704" y2="476.881308154" /><line stroke="rgb(0%,0%,0%)" x1="520.612292828" x2="522.111675839" y1="469.251733745" y2="476.881308154" /><line stroke="rgb(0%,0%,0%)" x1="520.612292828" x2="520.851678845" y1="469.251733745" y2="462.87199265" /><line stroke="rgb(0%,0%,0%)" x1="438.523201177" x2="441.374769427" y1="299.623477722" y2="302.047436528" /><line stroke="rgb(0%,0%,0%)" x1="438.523201177" x2="437.085895054" y1="299.623477722" y2="298.281857141" /><line stroke="rgb(0%,0%,0%)" x1="457.000144723" x2="456.019787084" y1="323.203048684" y2="322.539259685" /><line stroke="rgb(0%,0%,0%)" x1="456.019787084" x2="449.533463378" y1="322.539259685" y2="313.268639469" /><line stroke="rgb(0%,0%,0%)" x1="449.021663064" x2="449.533463378" y1="312.35232957" y2="313.268639469" /><line stroke="rgb(0%,0%,0%)" x1="473.298207074" x2="469.302370244" y1="340.460732931" y2="335.632881466" /><line stroke="rgb(0%,0%,0%)" x1="469.302370244" x2="467.948352169" y1="335.632881466" y2="334.16876776" /><line stroke="rgb(0%,0%,0%)" x1="460.547299577" x2="457.000144723" y1="326.732805124" y2="323.203048684" /><line stroke="rgb(0%,0%,0%)" x1="485.40045482" x2="484.696275779" y1="358.251287108" y2="357.153448232" /><line stroke="rgb(0%,0%,0%)" x1="477.189065093" x2="473.298207074" y1="345.54513894" y2="340.460732931" /><line stroke="rgb(0%,0%,0%)" x1="402.300555679" x2="399.239698527" y1="652.178478079" y2="652.999060169" /><line stroke="rgb(0%,0%,0%)" x1="402.300555679" x2="404.616058306" y1="652.178478079" y2="651.227000238" /><line stroke="rgb(0%,0%,0%)" x1="423.580758253" x2="419.979548159" y1="637.61094429" y2="640.674801275" /><line stroke="rgb(0%,0%,0%)" x1="423.580758253" x2="425.782197287" y1="637.61094429" y2="635.795618586" /><line stroke="rgb(0%,0%,0%)" x1="425.782197287" x2="430.091688669" y1="635.795618586" y2="634.156670939" /><line stroke="rgb(0%,0%,0%)" x1="430.091688669" x2="440.189554332" y1="634.156670939" y2="627.924336681" /><line stroke="rgb(0%,0%,0%)" x1="440.189554332" x2="441.310594457" y1="627.924336681" y2="627.375140768" /><line stroke="rgb(0%,0%,0%)" x1="448.023961824" x2="445.624226065" y1="310.856647799" y2="307.0158787" /><line stroke="rgb(0%,0%,0%)" x1="445.624226065" x2="443.388312981" y1="307.0158787" y2="304.425127554" /><line stroke="rgb(0%,0%,0%)" x1="443.388312981" x2="442.914687385" y1="304.425127554" y2="303.820334019" /><line stroke="rgb(0%,0%,0%)" x1="442.914687385" x2="441.374769427" y1="303.820334019" y2="302.047436528" /><line stroke="rgb(0%,0%,0%)" x1="366.456893835" x2="365.197704824" y1="765.03674524" y2="762.526117508" /><line stroke="rgb(0%,0%,0%)" x1="354.220325008" x2="354.098754823" y1="745.253874333" y2="744.666815314" /><line stroke="rgb(0%,0%,0%)" x1="354.098754823" x2="353.948900999" y1="744.666815314" y2="744.191380683" /><line stroke="rgb(0%,0%,0%)" x1="366.745069831" x2="366.852359443" y1="808.962702102" y2="809.449277883" /><line stroke="rgb(0%,0%,0%)" x1="366.745069831" x2="367.098257683" y1="808.962702102" y2="802.085699223" /><line stroke="rgb(0%,0%,0%)" x1="367.098257683" x2="365.221986754" y1="802.085699223" y2="798.441590755" /><line stroke="rgb(0%,0%,0%)" x1="366.456893835" x2="367.176077589" y1="765.03674524" y2="767.880758468" /><line stroke="rgb(0%,0%,0%)" x1="369.927468651" x2="374.701973595" y1="660.310801582" y2="657.252802915" /><line stroke="rgb(0%,0%,0%)" x1="389.403367189" x2="390.098345412" y1="655.904516705" y2="655.809873654" /><line stroke="rgb(0%,0%,0%)" x1="390.098345412" x2="390.909519537" y1="655.809873654" y2="655.791314782" /><line stroke="rgb(0%,0%,0%)" x1="390.909519537" x2="399.239698527" y1="655.791314782" y2="652.999060169" /><line stroke="rgb(0%,0%,0%)" x1="404.616058306" x2="407.307693368" y1="651.227000238" y2="649.4194062" /><line stroke="rgb(0%,0%,0%)" x1="407.307693368" x2="412.026767193" y1="649.4194062" y2="645.424058218" /><line stroke="rgb(0%,0%,0%)" x1="412.026767193" x2="415.306541314" y1="645.424058218" y2="643.80368172" /><line stroke="rgb(0%,0%,0%)" x1="415.306541314" x2="419.979548159" y1="643.80368172" y2="640.674801275" /><line stroke="rgb(0%,0%,0%)" x1="326.662933272" x2="328.530591522" y1="864.894959145" y2="864.134755873" /><line stroke="rgb(0%,0%,0%)" x1="351.466832262" x2="348.716291296" y1="844.530573702" y2="846.88782609" /><line stroke="rgb(0%,0%,0%)" x1="351.466832262" x2="351.5568394" y1="844.530573702" y2="843.16300011" /><line stroke="rgb(0%,0%,0%)" x1="350.858707749" x2="347.537061337" y1="735.207142345" y2="728.843917915" /><line stroke="rgb(0%,0%,0%)" x1="347.537061337" x2="343.767576614" y1="728.843917915" y2="723.889553746" /><line stroke="rgb(0%,0%,0%)" x1="340.737852777" x2="343.767576614" y1="719.697852169" y2="723.889553746" /><line stroke="rgb(0%,0%,0%)" x1="340.737852777" x2="339.421588048" y1="719.697852169" y2="718.533700719" /><line stroke="rgb(0%,0%,0%)" x1="342.186514952" x2="342.197828864" y1="679.317637304" y2="679.302464656" /><line stroke="rgb(0%,0%,0%)" x1="354.392896165" x2="352.241994925" y1="671.52567042" y2="673.356057129" /><line stroke="rgb(0%,0%,0%)" x1="354.392896165" x2="357.832846694" y1="671.52567042" y2="670.193026656" /><line stroke="rgb(0%,0%,0%)" x1="351.5568394" x2="352.407421959" y1="843.16300011" y2="839.628051834" /><line stroke="rgb(0%,0%,0%)" x1="352.407421959" x2="354.121301801" y1="839.628051834" y2="834.511950968" /><line stroke="rgb(0%,0%,0%)" x1="365.197704824" x2="362.36945335" y1="762.526117508" y2="756.84872676" /><line stroke="rgb(0%,0%,0%)" x1="362.36945335" x2="357.049566655" y1="756.84872676" y2="750.76760118" /><line stroke="rgb(0%,0%,0%)" x1="354.220325008" x2="354.350629385" y1="745.253874333" y2="745.977044874" /><line stroke="rgb(0%,0%,0%)" x1="353.948900999" x2="350.858707749" y1="744.191380683" y2="735.207142345" /><line stroke="rgb(0%,0%,0%)" x1="357.832846694" x2="359.865921559" y1="670.193026656" y2="667.868025868" /><line stroke="rgb(0%,0%,0%)" x1="363.138216824" x2="359.865921559" y1="665.956501408" y2="667.868025868" /><line stroke="rgb(0%,0%,0%)" x1="366.575073253" x2="366.156377786" y1="809.859751189" y2="812.091689823" /><line stroke="rgb(0%,0%,0%)" x1="363.247184184" x2="366.156377786" y1="822.565813625" y2="812.091689823" /><line stroke="rgb(0%,0%,0%)" x1="366.575073253" x2="366.852359443" y1="809.859751189" y2="809.449277883" /><line stroke="rgb(0%,0%,0%)" x1="365.221986754" x2="363.968203082" y1="798.441590755" y2="793.571386666" /><line stroke="rgb(0%,0%,0%)" x1="363.892183434" x2="363.968203082" y1="793.059254662" y2="793.571386666" /><line stroke="rgb(0%,0%,0%)" x1="363.892183434" x2="363.970723814" y1="793.059254662" y2="792.788917517" /><line stroke="rgb(0%,0%,0%)" x1="363.970723814" x2="366.192472674" y1="792.788917517" y2="782.261467468" /><line stroke="rgb(0%,0%,0%)" x1="366.192472674" x2="366.964385049" y1="782.261467468" y2="779.029497024" /><line stroke="rgb(0%,0%,0%)" x1="367.176077589" x2="367.336820323" y1="767.880758468" y2="773.716929233" /><line stroke="rgb(0%,0%,0%)" x1="366.964385049" x2="367.336820323" y1="779.029497024" y2="773.716929233" /><line stroke="rgb(0%,0%,0%)" x1="363.138216824" x2="364.919589646" y1="665.956501408" y2="664.131540026" /><line stroke="rgb(0%,0%,0%)" x1="364.919589646" x2="368.290595937" y1="664.131540026" y2="661.463358733" /><line stroke="rgb(0%,0%,0%)" x1="369.927468651" x2="368.290595937" y1="660.310801582" y2="661.463358733" /><line stroke="rgb(0%,0%,0%)" x1="374.701973595" x2="380.304264063" y1="657.252802915" y2="656.19975351" /><line stroke="rgb(0%,0%,0%)" x1="380.304264063" x2="389.403367189" y1="656.19975351" y2="655.904516705" /><line stroke="rgb(0%,0%,0%)" x1="323.590990364" x2="320.476338863" y1="864.42642517" y2="863.004094694" /><line stroke="rgb(0%,0%,0%)" x1="319.746876723" x2="316.545332318" y1="862.485032619" y2="858.519482195" /><line stroke="rgb(0%,0%,0%)" x1="323.590990364" x2="326.662933272" y1="864.42642517" y2="864.894959145" /><line stroke="rgb(0%,0%,0%)" x1="328.530591522" x2="336.837785057" y1="864.134755873" y2="857.82484594" /><line stroke="rgb(0%,0%,0%)" x1="334.869872741" x2="331.196584397" y1="714.348527235" y2="709.331249576" /><line stroke="rgb(0%,0%,0%)" x1="331.196584397" x2="331.944176511" y1="709.331249576" y2="707.418751889" /><line stroke="rgb(0%,0%,0%)" x1="331.944176511" x2="335.761439855" y1="707.418751889" y2="700.759292786" /><line stroke="rgb(0%,0%,0%)" x1="335.761439855" x2="335.913655452" y1="700.759292786" y2="697.890296444" /><line stroke="rgb(0%,0%,0%)" x1="335.377763407" x2="334.534669544" y1="691.753604807" y2="690.277307859" /><line stroke="rgb(0%,0%,0%)" x1="333.180749783" x2="334.534669544" y1="687.013050479" y2="690.277307859" /><line stroke="rgb(0%,0%,0%)" x1="334.257075939" x2="333.180749783" y1="685.992033765" y2="687.013050479" /><line stroke="rgb(0%,0%,0%)" x1="334.257075939" x2="335.066935684" y1="685.992033765" y2="684.441549384" /><line stroke="rgb(0%,0%,0%)" x1="335.066935684" x2="335.801480614" y1="684.441549384" y2="683.74918866" /><line stroke="rgb(0%,0%,0%)" x1="342.715772273" x2="346.571641557" y1="853.834717393" y2="849.259417207" /><line stroke="rgb(0%,0%,0%)" x1="346.571641557" x2="348.716291296" y1="849.259417207" y2="846.88782609" /><line stroke="rgb(0%,0%,0%)" x1="339.421588048" x2="334.869872741" y1="718.533700719" y2="714.348527235" /><line stroke="rgb(0%,0%,0%)" x1="335.913655452" x2="335.377763407" y1="697.890296444" y2="691.753604807" /><line stroke="rgb(0%,0%,0%)" x1="335.801480614" x2="342.186514952" y1="683.74918866" y2="679.317637304" /><line stroke="rgb(0%,0%,0%)" x1="342.197828864" x2="344.866973287" y1="679.302464656" y2="675.781977126" /><line stroke="rgb(0%,0%,0%)" x1="344.866973287" x2="347.177543482" y1="675.781977126" y2="674.34598817" /><line stroke="rgb(0%,0%,0%)" x1="347.177543482" x2="352.241994925" y1="674.34598817" y2="673.356057129" /><line stroke="rgb(0%,0%,0%)" x1="354.121301801" x2="354.231919647" y1="834.511950968" y2="833.570748603" /><line stroke="rgb(0%,0%,0%)" x1="363.247184184" x2="354.948049781" y1="822.565813625" y2="832.395208408" /><line stroke="rgb(0%,0%,0%)" x1="354.231919647" x2="354.337792615" y1="833.570748603" y2="833.302210582" /><line stroke="rgb(0%,0%,0%)" x1="354.337792615" x2="354.948049781" y1="833.302210582" y2="832.395208408" /><line stroke="rgb(0%,0%,0%)" x1="357.049566655" x2="356.200734756" y1="750.76760118" y2="750.080578959" /><line stroke="rgb(0%,0%,0%)" x1="354.186961524" x2="354.350629385" y1="747.114652918" y2="745.977044874" /><line stroke="rgb(0%,0%,0%)" x1="355.653166923" x2="354.186961524" y1="749.613036323" y2="747.114652918" /><line stroke="rgb(0%,0%,0%)" x1="356.200734756" x2="355.653166923" y1="750.080578959" y2="749.613036323" /><line stroke="rgb(0%,0%,0%)" x1="275.24530758" x2="280.446883983" y1="751.079330901" y2="753.34212888" /><line stroke="rgb(0%,0%,0%)" x1="283.516346547" x2="296.505007951" y1="756.444697672" y2="765.218804195" /><line stroke="rgb(0%,0%,0%)" x1="280.446883983" x2="283.516346547" y1="753.34212888" y2="756.444697672" /><line stroke="rgb(0%,0%,0%)" x1="296.505007951" x2="298.089486432" y1="765.218804195" y2="768.378493023" /><line stroke="rgb(0%,0%,0%)" x1="319.746876723" x2="320.476338863" y1="862.485032619" y2="863.004094694" /><line stroke="rgb(0%,0%,0%)" x1="336.837785057" x2="340.32670664" y1="857.82484594" y2="855.386861134" /><line stroke="rgb(0%,0%,0%)" x1="340.32670664" x2="342.715772273" y1="855.386861134" y2="853.834717393" /><line stroke="rgb(0%,0%,0%)" x1="228.903473793" x2="233.980151396" y1="689.283351974" y2="699.561662321" /><line stroke="rgb(0%,0%,0%)" x1="237.221788964" x2="236.917383784" y1="709.251275055" y2="708.038060395" /><line stroke="rgb(0%,0%,0%)" x1="256.945380881" x2="255.833882433" y1="740.167201892" y2="739.1112902" /><line stroke="rgb(0%,0%,0%)" x1="250.023927233" x2="255.833882433" y1="731.748432019" y2="739.1112902" /><line stroke="rgb(0%,0%,0%)" x1="250.023927233" x2="245.79914258" y1="731.748432019" y2="726.678459618" /><line stroke="rgb(0%,0%,0%)" x1="257.796655486" x2="256.945380881" y1="740.352190593" y2="740.167201892" /><line stroke="rgb(0%,0%,0%)" x1="257.796655486" x2="275.24530758" y1="740.352190593" y2="751.079330901" /><line stroke="rgb(0%,0%,0%)" x1="316.212038448" x2="316.545332318" y1="858.04961196" y2="858.519482195" /><line stroke="rgb(0%,0%,0%)" x1="201.163009839" x2="201.487392161" y1="655.089353891" y2="655.216606779" /><line stroke="rgb(0%,0%,0%)" x1="197.573350526" x2="201.163009839" y1="653.980594767" y2="655.089353891" /><line stroke="rgb(0%,0%,0%)" x1="197.573350526" x2="195.66507043" y1="653.980594767" y2="652.751517247" /><line stroke="rgb(0%,0%,0%)" x1="205.41048857" x2="205.772225296" y1="658.876124185" y2="659.405591119" /><line stroke="rgb(0%,0%,0%)" x1="201.817615166" x2="205.179550919" y1="655.688904677" y2="658.790398464" /><line stroke="rgb(0%,0%,0%)" x1="201.487392161" x2="201.817615166" y1="655.216606779" y2="655.688904677" /><line stroke="rgb(0%,0%,0%)" x1="220.457153534" x2="220.592695958" y1="673.312262578" y2="673.501808884" /><line stroke="rgb(0%,0%,0%)" x1="220.457153534" x2="219.00478703" y1="673.312262578" y2="672.633418717" /><line stroke="rgb(0%,0%,0%)" x1="212.70941153" x2="216.549235454" y1="664.984218537" y2="669.907704003" /><line stroke="rgb(0%,0%,0%)" x1="205.41048857" x2="205.179550919" y1="658.876124185" y2="658.790398464" /><line stroke="rgb(0%,0%,0%)" x1="227.071681311" x2="228.903473793" y1="685.572444826" y2="689.283351974" /><line stroke="rgb(0%,0%,0%)" x1="227.071681311" x2="224.763199307" y1="685.572444826" y2="677.008463369" /><line stroke="rgb(0%,0%,0%)" x1="220.592695958" x2="224.763199307" y1="673.501808884" y2="677.008463369" /><line stroke="rgb(0%,0%,0%)" x1="218.023686543" x2="219.00478703" y1="671.849230118" y2="672.633418717" /><line stroke="rgb(0%,0%,0%)" x1="216.549235454" x2="218.023686543" y1="669.907704003" y2="671.849230118" /><line stroke="rgb(0%,0%,0%)" x1="245.221013818" x2="245.590944078" y1="725.576305327" y2="726.381460674" /><line stroke="rgb(0%,0%,0%)" x1="237.221788964" x2="245.221013818" y1="709.251275055" y2="725.576305327" /><line stroke="rgb(0%,0%,0%)" x1="237.567602027" x2="236.917383784" y1="704.868336429" y2="708.038060395" /><line stroke="rgb(0%,0%,0%)" x1="233.980151396" x2="237.567602027" y1="699.561662321" y2="704.868336429" /><line stroke="rgb(0%,0%,0%)" x1="245.590944078" x2="245.79914258" y1="726.381460674" y2="726.678459618" /><line stroke="rgb(0%,0%,0%)" x1="138.776604523" x2="138.601842047" y1="623.351922234" y2="623.37346703" /><line stroke="rgb(0%,0%,0%)" x1="138.776604523" x2="139.132053763" y1="623.351922234" y2="623.427880409" /><line stroke="rgb(0%,0%,0%)" x1="190.560432854" x2="177.42322041" y1="650.484865746" y2="643.195941379" /><line stroke="rgb(0%,0%,0%)" x1="172.088406033" x2="176.677135423" y1="640.578903127" y2="642.526099387" /><line stroke="rgb(0%,0%,0%)" x1="176.677135423" x2="177.42322041" y1="642.526099387" y2="643.195941379" /><line stroke="rgb(0%,0%,0%)" x1="166.054574429" x2="172.088406033" y1="636.979139533" y2="640.578903127" /><line stroke="rgb(0%,0%,0%)" x1="190.560432854" x2="195.66507043" y1="650.484865746" y2="652.751517247" /><line stroke="rgb(0%,0%,0%)" x1="210.270099726" x2="211.628413477" y1="663.410068121" y2="664.88324207" /><line stroke="rgb(0%,0%,0%)" x1="211.628413477" x2="212.70941153" y1="664.88324207" y2="664.984218537" /><line stroke="rgb(0%,0%,0%)" x1="210.270099726" x2="208.216848596" y1="663.410068121" y2="662.574714509" /><line stroke="rgb(0%,0%,0%)" x1="205.772225296" x2="208.216848596" y1="659.405591119" y2="662.574714509" /><line stroke="rgb(0%,0%,0%)" x1="106.99568325" x2="110.674197883" y1="624.922757705" y2="625.81281337" /><line stroke="rgb(0%,0%,0%)" x1="110.674197883" x2="120.329329392" y1="625.81281337" y2="626.470665189" /><line stroke="rgb(0%,0%,0%)" x1="106.99568325" x2="105.590336232" y1="624.922757705" y2="625.113089622" /><line stroke="rgb(0%,0%,0%)" x1="120.329329392" x2="122.190383254" y1="626.470665189" y2="626.73065997" /><line stroke="rgb(0%,0%,0%)" x1="139.132053763" x2="140.352633392" y1="623.427880409" y2="623.747763707" /><line stroke="rgb(0%,0%,0%)" x1="140.352633392" x2="149.504213531" y1="623.747763707" y2="626.006407042" /><line stroke="rgb(0%,0%,0%)" x1="166.054574429" x2="159.607288594" y1="636.979139533" y2="632.08475807" /><line stroke="rgb(0%,0%,0%)" x1="149.504213531" x2="154.926602226" y1="626.006407042" y2="628.86125995" /><line stroke="rgb(0%,0%,0%)" x1="154.926602226" x2="159.607288594" y1="628.86125995" y2="632.08475807" /><line stroke="rgb(0%,0%,0%)" x1="92.3004903916" x2="100.00492198" y1="622.318767984" y2="623.630278607" /><line stroke="rgb(0%,0%,0%)" x1="105.590336232" x2="100.00492198" y1="625.113089622" y2="623.630278607" /><line stroke="rgb(0%,0%,0%)" x1="122.190383254" x2="131.031895597" y1="626.73065997" y2="624.489409936" /><line stroke="rgb(0%,0%,0%)" x1="131.031895597" x2="138.601842047" y1="624.489409936" y2="623.37346703" /><line stroke="rgb(0%,0%,0%)" x1="11.3115484886" x2="11.0524788338" y1="492.759057729" y2="492.03258257" /><line stroke="rgb(0%,0%,0%)" x1="10.6425016161" x2="13.374880374" y1="475.47902961" y2="472.647547909" /><line stroke="rgb(0%,0%,0%)" x1="10.6425016161" x2="10.6852252523" y1="475.47902961" y2="477.679007396" /><line stroke="rgb(0%,0%,0%)" x1="40.6792992455" x2="40.1064479214" y1="591.048437436" y2="590.204681348" /><line stroke="rgb(0%,0%,0%)" x1="51.7685183648" x2="55.0773548473" y1="605.442687585" y2="608.889416625" /><line stroke="rgb(0%,0%,0%)" x1="40.6792992455" x2="42.5701789298" y1="591.048437436" y2="594.466157051" /><line stroke="rgb(0%,0%,0%)" x1="61.0976743132" x2="56.8018363193" y1="613.188515194" y2="610.152146986" /><line stroke="rgb(0%,0%,0%)" x1="86.6830831842" x2="75.9373468832" y1="622.442826795" y2="619.012311703" /><line stroke="rgb(0%,0%,0%)" x1="69.7340864748" x2="75.9373468832" y1="616.572611038" y2="619.012311703" /><line stroke="rgb(0%,0%,0%)" x1="88.6145921069" x2="90.3264939455" y1="622.070396721" y2="622.045650126" /><line stroke="rgb(0%,0%,0%)" x1="90.3264939455" x2="92.3004903916" y1="622.045650126" y2="622.318767984" /><line stroke="rgb(0%,0%,0%)" x1="86.6830831842" x2="88.6145921069" y1="622.442826795" y2="622.070396721" /><line stroke="rgb(0%,0%,0%)" x1="14.9191901007" x2="16.4036254783" y1="530.268539613" y2="535.689371617" /><line stroke="rgb(0%,0%,0%)" x1="14.9191901007" x2="12.9451543808" y1="530.268539613" y2="524.544666061" /><line stroke="rgb(0%,0%,0%)" x1="12.5001357889" x2="12.4290580051" y1="514.574842674" y2="514.289467561" /><line stroke="rgb(0%,0%,0%)" x1="12.5001357889" x2="12.3665461087" y1="514.574842674" y2="515.068379318" /><line stroke="rgb(0%,0%,0%)" x1="14.3785589204" x2="14.54184227" y1="509.795317843" y2="506.277524778" /><line stroke="rgb(0%,0%,0%)" x1="14.3785589204" x2="12.4290580051" y1="509.795317843" y2="514.289467561" /><line stroke="rgb(0%,0%,0%)" x1="16.0963698985" x2="18.2201913081" y1="504.265708862" y2="499.952397622" /><line stroke="rgb(0%,0%,0%)" x1="16.0963698985" x2="14.54184227" y1="504.265708862" y2="506.277524778" /><line stroke="rgb(0%,0%,0%)" x1="14.9625280128" x2="17.5676805194" y1="497.24638132" y2="498.977518684" /><line stroke="rgb(0%,0%,0%)" x1="11.3115484886" x2="11.4215842952" y1="492.759057729" y2="493.230092754" /><line stroke="rgb(0%,0%,0%)" x1="10.6852252523" x2="11.0524788338" y1="477.679007396" y2="492.03258257" /><line stroke="rgb(0%,0%,0%)" x1="23.4615237492" x2="13.374880374" y1="460.724646829" y2="472.647547909" /><line stroke="rgb(0%,0%,0%)" x1="29.2980064489" x2="31.1526178289" y1="572.119802201" y2="575.871044292" /><line stroke="rgb(0%,0%,0%)" x1="29.2980064489" x2="27.6504374159" y1="572.119802201" y2="568.28068372" /><line stroke="rgb(0%,0%,0%)" x1="22.813609694" x2="25.9789635655" y1="557.59979726" y2="564.589009943" /><line stroke="rgb(0%,0%,0%)" x1="22.813609694" x2="21.9063844393" y1="557.59979726" y2="554.621948879" /><line stroke="rgb(0%,0%,0%)" x1="21.9063844393" x2="21.0901249048" y1="554.621948879" y2="551.61222591" /><line stroke="rgb(0%,0%,0%)" x1="17.5676805194" x2="18.2201913081" y1="498.977518684" y2="499.952397622" /><line stroke="rgb(0%,0%,0%)" x1="37.7768973051" x2="40.1064479214" y1="588.158766438" y2="590.204681348" /><line stroke="rgb(0%,0%,0%)" x1="37.7768973051" x2="34.241924535" y1="588.158766438" y2="583.018122701" /><line stroke="rgb(0%,0%,0%)" x1="31.1526178289" x2="34.241924535" y1="575.871044292" y2="583.018122701" /><line stroke="rgb(0%,0%,0%)" x1="50.1955261793" x2="51.7685183648" y1="603.896915996" y2="605.442687585" /><line stroke="rgb(0%,0%,0%)" x1="47.9188793172" x2="49.8687530248" y1="600.974057277" y2="603.747777655" /><line stroke="rgb(0%,0%,0%)" x1="49.8687530248" x2="50.1955261793" y1="603.747777655" y2="603.896915996" /><line stroke="rgb(0%,0%,0%)" x1="42.5701789298" x2="47.9188793172" y1="594.466157051" y2="600.974057277" /><line stroke="rgb(0%,0%,0%)" x1="55.0773548473" x2="56.8018363193" y1="608.889416625" y2="610.152146986" /><line stroke="rgb(0%,0%,0%)" x1="64.4484432092" x2="69.7340864748" y1="614.434039852" y2="616.572611038" /><line stroke="rgb(0%,0%,0%)" x1="61.0976743132" x2="64.4484432092" y1="613.188515194" y2="614.434039852" /><line stroke="rgb(0%,0%,0%)" x1="12.6412856434" x2="12.9451543808" y1="520.54582729" y2="524.544666061" /><line stroke="rgb(0%,0%,0%)" x1="12.3665461087" x2="12.6412856434" y1="515.068379318" y2="520.54582729" /><line stroke="rgb(0%,0%,0%)" x1="11.4215842952" x2="13.9999628991" y1="493.230092754" y2="496.219381932" /><line stroke="rgb(0%,0%,0%)" x1="13.9999628991" x2="14.9625280128" y1="496.219381932" y2="497.24638132" /><line stroke="rgb(0%,0%,0%)" x1="25.9789635655" x2="27.1349774391" y1="564.589009943" y2="566.674876762" /><line stroke="rgb(0%,0%,0%)" x1="27.1349774391" x2="27.6504374159" y1="566.674876762" y2="568.28068372" /><line stroke="rgb(0%,0%,0%)" x1="16.4036254783" x2="18.7857673644" y1="535.689371617" y2="543.656743727" /><line stroke="rgb(0%,0%,0%)" x1="18.7857673644" x2="20.0900702175" y1="543.656743727" y2="547.190624981" /><line stroke="rgb(0%,0%,0%)" x1="20.0900702175" x2="21.0901249048" y1="547.190624981" y2="551.61222591" /><line stroke="rgb(0%,0%,0%)" x1="485.406057915" x2="483.541424871" y1="572.083504839" y2="575.571206967" /><line stroke="rgb(0%,0%,0%)" x1="487.115718424" x2="485.406057915" y1="569.978211104" y2="572.083504839" /><line stroke="rgb(0%,0%,0%)" x1="481.490339947" x2="483.541424871" y1="578.990520234" y2="575.571206967" /><line stroke="rgb(0%,0%,0%)" x1="487.115718424" x2="487.317491002" y1="569.978211104" y2="568.864895862" /><line stroke="rgb(0%,0%,0%)" x1="441.310594457" x2="445.890539899" y1="627.375140768" y2="623.083135875" /><line stroke="rgb(0%,0%,0%)" x1="448.280403917" x2="445.890539899" y1="620.778704887" y2="623.083135875" /><line stroke="rgb(0%,0%,0%)" x1="448.280403917" x2="449.18985176" y1="620.778704887" y2="619.764505846" /><line stroke="rgb(0%,0%,0%)" x1="449.18985176" x2="450.459942913" y1="619.764505846" y2="616.857734065" /><line stroke="rgb(0%,0%,0%)" x1="453.00797403" x2="457.347030217" y1="612.125976284" y2="606.932607971" /><line stroke="rgb(0%,0%,0%)" x1="450.459942913" x2="453.00797403" y1="616.857734065" y2="612.125976284" /><line stroke="rgb(0%,0%,0%)" x1="457.347030217" x2="459.440584086" y1="606.932607971" y2="604.254096484" /><line stroke="rgb(0%,0%,0%)" x1="459.440584086" x2="461.884171906" y1="604.254096484" y2="601.898621456" /><line stroke="rgb(0%,0%,0%)" x1="463.517156658" x2="461.884171906" y1="599.911692823" y2="601.898621456" /><line stroke="rgb(0%,0%,0%)" x1="463.517156658" x2="465.059084474" y1="599.911692823" y2="598.050861606" /><line stroke="rgb(0%,0%,0%)" x1="465.059084474" x2="470.768786521" y1="598.050861606" y2="592.391360674" /><line stroke="rgb(0%,0%,0%)" x1="474.287989708" x2="470.768786521" y1="588.368865635" y2="592.391360674" /><line stroke="rgb(0%,0%,0%)" x1="474.287989708" x2="479.481185771" y1="588.368865635" y2="581.99437647" /><line stroke="rgb(0%,0%,0%)" x1="479.481185771" x2="480.680115632" y1="581.99437647" y2="580.498388166" /><line stroke="rgb(0%,0%,0%)" x1="480.680115632" x2="481.490339947" y1="580.498388166" y2="578.990520234" /><line stroke="rgb(0%,0%,0%)" x1="313.967192052" x2="316.212038448" y1="855.319242823" y2="858.04961196" /><line stroke="rgb(0%,0%,0%)" x1="313.146827453" x2="313.967192052" y1="852.915657318" y2="855.319242823" /><line stroke="rgb(0%,0%,0%)" x1="313.146827453" x2="312.36248212" y1="852.915657318" y2="845.701431581" /><line stroke="rgb(0%,0%,0%)" x1="313.761857598" x2="312.36248212" y1="839.463091976" y2="845.701431581" /><line stroke="rgb(0%,0%,0%)" x1="313.830237734" x2="313.761857598" y1="833.762153428" y2="839.463091976" /><line stroke="rgb(0%,0%,0%)" x1="313.830237734" x2="313.998186789" y1="833.762153428" y2="832.984842778" /><line stroke="rgb(0%,0%,0%)" x1="313.872412177" x2="314.737137282" y1="820.289148154" y2="817.021175908" /><line stroke="rgb(0%,0%,0%)" x1="313.872412177" x2="313.998186789" y1="820.289148154" y2="832.984842778" /><line stroke="rgb(0%,0%,0%)" x1="311.402285226" x2="312.119370793" y1="808.413094451" y2="809.619516106" /><line stroke="rgb(0%,0%,0%)" x1="312.119370793" x2="314.737137282" y1="809.619516106" y2="817.021175908" /><line stroke="rgb(0%,0%,0%)" x1="311.402285226" x2="309.820432095" y1="808.413094451" y2="805.564951042" /><line stroke="rgb(0%,0%,0%)" x1="302.183258395" x2="304.797954516" y1="778.558453384" y2="784.626232179" /><line stroke="rgb(0%,0%,0%)" x1="301.086677303" x2="302.183258395" y1="772.969101931" y2="778.558453384" /><line stroke="rgb(0%,0%,0%)" x1="307.866203436" x2="305.21016518" y1="798.731888717" y2="788.754934601" /><line stroke="rgb(0%,0%,0%)" x1="304.797954516" x2="305.21016518" y1="784.626232179" y2="788.754934601" /><line stroke="rgb(0%,0%,0%)" x1="301.086677303" x2="298.089486432" y1="772.969101931" y2="768.378493023" /><line stroke="rgb(0%,0%,0%)" x1="307.866203436" x2="309.820432095" y1="798.731888717" y2="805.564951042" /><line stroke="rgb(0%,0%,0%)" x1="488.451397973" x2="487.615634581" y1="565.621497431" y2="567.735992621" /></svg>