<?xml version="1.0" encoding="utf-8" ?>
<svg baseProfile="full" height="100%" version="1.1" viewBox="0.5 0.5 685.793960571 941.299331665" width="100%" xmlns="http://www.w3.org/2000/svg" xmlns:ev="http://www.w3.org/2001/xml-events" xmlns:xlink="http://www.w3.org/1999/xlink"><defs /><line stroke="rgb(0%,0%,0%)" x1="497.740464082" x2="499.525741722" y1="378.675585407" y2="381.460643752" /><line stroke="rgb(0%,0%,0%)" x1="517.193597123" x2="517.066568556" y1="457.120468941" y2="455.272436266" /><line stroke="rgb(0%,0%,0%)" x1="517.066568556" x2="515.670973308" y1="455.272436266" y2="449.079875347" /><line stroke="rgb(0%,0%,0%)" x1="515.670973308" x2="517.04009582" y1="449.079875347" y2="444.692949428" /><line stroke="rgb(0%,0%,0%)" x1="519.366757824" x2="518.933470361" y1="433.583377772" y2="421.870314767" /><line stroke="rgb(0%,0%,0%)" x1="488.382295988" x2="488.128536361" y1="367.395984854" y2="367.046779463" /><line stroke="rgb(0%,0%,0%)" x1="488.128536361" x2="486.366046713" y1="367.046779463" y2="364.60063302" /><line stroke="rgb(0%,0%,0%)" x1="477.549659066" x2="478.435302738" y1="350.1297142" y2="351.991777212" /><line stroke="rgb(0%,0%,0%)" x1="497.740464082" x2="488.990659006" y1="378.675585407" y2="368.417144883" /><line stroke="rgb(0%,0%,0%)" x1="488.382295988" x2="488.990659006" y1="367.395984854" y2="368.417144883" /><line stroke="rgb(0%,0%,0%)" x1="506.005850029" x2="511.289591217" y1="391.11307832" y2="399.286018201" /><line stroke="rgb(0%,0%,0%)" x1="502.113101904" x2="499.525741722" y1="384.807296485" y2="381.460643752" /><line stroke="rgb(0%,0%,0%)" x1="517.461086113" x2="517.193597123" y1="463.044644415" y2="457.120468941" /><line stroke="rgb(0%,0%,0%)" x1="517.04009582" x2="518.382359116" y1="444.692949428" y2="439.355245282" /><line stroke="rgb(0%,0%,0%)" x1="518.382359116" x2="519.366757824" y1="439.355245282" y2="433.583377772" /><line stroke="rgb(0%,0%,0%)" x1="518.933470361" x2="518.823931481" y1="421.870314767" y2="420.85774973" /><line stroke="rgb(0%,0%,0%)" x1="515.332852474" x2="518.813251467" y1="408.778689943" y2="420.073650315" /><line stroke="rgb(0%,0%,0%)" x1="518.823931481" x2="518.813251467" y1="420.85774973" y2="420.073650315" /><line stroke="rgb(0%,0%,0%)" x1="515.332852474" x2="511.289591217" y1="408.778689943" y2="399.286018201" /><line stroke="rgb(0%,0%,0%)" x1="486.366046713" x2="481.751864172" y1="364.60063302" y2="358.180422983" /><line stroke="rgb(0%,0%,0%)" x1="506.005850029" x2="502.113101904" y1="391.11307832" y2="384.807296485" /><line stroke="rgb(0%,0%,0%)" x1="406.599117696" x2="410.602607065" y1="281.685674405" y2="284.953652436" /><line stroke="rgb(0%,0%,0%)" x1="431.801583179" x2="433.431150212" y1="297.239857329" y2="299.112192883" /><line stroke="rgb(0%,0%,0%)" x1="435.802392745" x2="433.431150212" y1="301.971798541" y2="299.112192883" /><line stroke="rgb(0%,0%,0%)" x1="431.023113002" x2="431.801583179" y1="296.721137978" y2="297.239857329" /><line stroke="rgb(0%,0%,0%)" x1="431.023113002" x2="428.457037518" y1="296.721137978" y2="295.005068501" /><line stroke="rgb(0%,0%,0%)" x1="428.457037518" x2="422.37009474" y1="295.005068501" y2="291.203426894" /><line stroke="rgb(0%,0%,0%)" x1="395.773358556" x2="387.716611563" y1="272.209528313" y2="267.810528483" /><line stroke="rgb(0%,0%,0%)" x1="406.599117696" x2="399.262824357" y1="281.685674405" y2="275.641189059" /><line stroke="rgb(0%,0%,0%)" x1="422.37009474" x2="410.602607065" y1="291.203426894" y2="284.953652436" /><line stroke="rgb(0%,0%,0%)" x1="342.654216437" x2="344.541651805" y1="251.444639849" y2="251.569239074" /><line stroke="rgb(0%,0%,0%)" x1="351.817308497" x2="344.541651805" y1="253.446773185" y2="251.569239074" /><line stroke="rgb(0%,0%,0%)" x1="367.270849303" x2="360.551241589" y1="259.288285591" y2="256.652086081" /><line stroke="rgb(0%,0%,0%)" x1="360.551241589" x2="354.047644984" y1="256.652086081" y2="254.542331076" /><line stroke="rgb(0%,0%,0%)" x1="380.405169326" x2="383.527609315" y1="263.598465558" y2="264.648199332" /><line stroke="rgb(0%,0%,0%)" x1="380.405169326" x2="371.073045956" y1="263.598465558" y2="260.947329924" /><line stroke="rgb(0%,0%,0%)" x1="371.073045956" x2="367.270849303" y1="260.947329924" y2="259.288285591" /><line stroke="rgb(0%,0%,0%)" x1="387.716611563" x2="383.527609315" y1="267.810528483" y2="264.648199332" /><line stroke="rgb(0%,0%,0%)" x1="399.262824357" x2="395.773358556" y1="275.641189059" y2="272.209528313" /><line stroke="rgb(0%,0%,0%)" x1="273.888079426" x2="274.120080812" y1="69.7961280155" y2="66.9523765052" /><line stroke="rgb(0%,0%,0%)" x1="298.221449661" x2="303.251354137" y1="57.4766450862" y2="59.089500541" /><line stroke="rgb(0%,0%,0%)" x1="298.221449661" x2="288.826305188" y1="57.4766450862" y2="57.2974746841" /><line stroke="rgb(0%,0%,0%)" x1="303.251354137" x2="313.562800987" y1="59.089500541" y2="64.4496832645" /><line stroke="rgb(0%,0%,0%)" x1="318.909955637" x2="321.277335217" y1="69.52770907" y2="73.1436866778" /><line stroke="rgb(0%,0%,0%)" x1="318.909955637" x2="314.695346127" y1="69.52770907" y2="65.1581825317" /><line stroke="rgb(0%,0%,0%)" x1="333.77761335" x2="336.949561759" y1="252.569584444" y2="251.886755868" /><line stroke="rgb(0%,0%,0%)" x1="331.183367065" x2="327.888019163" y1="252.140200311" y2="250.069987034" /><line stroke="rgb(0%,0%,0%)" x1="333.77761335" x2="331.183367065" y1="252.569584444" y2="252.140200311" /><line stroke="rgb(0%,0%,0%)" x1="342.654216437" x2="340.174223652" y1="251.444639849" y2="251.657363348" /><line stroke="rgb(0%,0%,0%)" x1="340.174223652" x2="336.949561759" y1="251.657363348" y2="251.886755868" /><line stroke="rgb(0%,0%,0%)" x1="325.021429285" x2="327.679581273" y1="177.370880289" y2="175.125090153" /><line stroke="rgb(0%,0%,0%)" x1="332.512358857" x2="327.679581273" y1="171.050494519" y2="175.125090153" /><line stroke="rgb(0%,0%,0%)" x1="332.512358857" x2="335.030420994" y1="171.050494519" y2="166.706984688" /><line stroke="rgb(0%,0%,0%)" x1="335.030420994" x2="337.387716712" y1="166.706984688" y2="157.264242296" /><line stroke="rgb(0%,0%,0%)" x1="337.449433902" x2="337.387716712" y1="156.538965894" y2="157.264242296" /><line stroke="rgb(0%,0%,0%)" x1="335.730418275" x2="332.735237986" y1="146.644502952" y2="138.030686071" /><line stroke="rgb(0%,0%,0%)" x1="335.999349188" x2="337.915856445" y1="123.857896844" y2="108.343123994" /><line stroke="rgb(0%,0%,0%)" x1="337.915856445" x2="336.925672912" y1="108.343123994" y2="104.988749977" /><line stroke="rgb(0%,0%,0%)" x1="334.384846613" x2="336.925672912" y1="100.52126421" y2="104.988749977" /><line stroke="rgb(0%,0%,0%)" x1="334.384846613" x2="330.380009755" y1="100.52126421" y2="93.0437146127" /><line stroke="rgb(0%,0%,0%)" x1="329.25669656" x2="330.380009755" y1="90.9487972324" y2="93.0437146127" /><line stroke="rgb(0%,0%,0%)" x1="329.25669656" x2="329.097748065" y1="90.9487972324" y2="83.8660427375" /><line stroke="rgb(0%,0%,0%)" x1="329.097748065" x2="329.11532216" y1="83.8660427375" y2="82.9882256796" /><line stroke="rgb(0%,0%,0%)" x1="329.11532216" x2="328.563963207" y1="82.9882256796" y2="82.0702088601" /><line stroke="rgb(0%,0%,0%)" x1="325.504289152" x2="322.056695932" y1="78.5817115305" y2="74.7042024963" /><line stroke="rgb(0%,0%,0%)" x1="328.563963207" x2="325.504289152" y1="82.0702088601" y2="78.5817115305" /><line stroke="rgb(0%,0%,0%)" x1="337.498398866" x2="337.449433902" y1="155.984413336" y2="156.538965894" /><line stroke="rgb(0%,0%,0%)" x1="337.498398866" x2="337.500389624" y1="155.984413336" y2="155.681159781" /><line stroke="rgb(0%,0%,0%)" x1="354.047644984" x2="351.817308497" y1="254.542331076" y2="253.446773185" /><line stroke="rgb(0%,0%,0%)" x1="275.468608885" x2="278.977759377" y1="70.8743833069" y2="73.0100057289" /><line stroke="rgb(0%,0%,0%)" x1="273.888079426" x2="275.468608885" y1="69.7961280155" y2="70.8743833069" /><line stroke="rgb(0%,0%,0%)" x1="273.142013119" x2="274.120080812" y1="64.8754324076" y2="66.9523765052" /><line stroke="rgb(0%,0%,0%)" x1="292.8379564" x2="292.883842448" y1="92.4548042092" y2="92.9869820269" /><line stroke="rgb(0%,0%,0%)" x1="291.700458217" x2="292.219985014" y1="97.9371674791" y2="100.484235953" /><line stroke="rgb(0%,0%,0%)" x1="292.883842448" x2="291.700458217" y1="92.9869820269" y2="97.9371674791" /><line stroke="rgb(0%,0%,0%)" x1="292.8379564" x2="292.944359967" y1="92.4548042092" y2="91.8160871699" /><line stroke="rgb(0%,0%,0%)" x1="292.219985014" x2="290.662842932" y1="100.484235953" y2="105.527055716" /><line stroke="rgb(0%,0%,0%)" x1="293.103465762" x2="291.887161615" y1="81.8152274811" y2="86.7398200139" /><line stroke="rgb(0%,0%,0%)" x1="291.887161615" x2="292.944359967" y1="86.7398200139" y2="91.8160871699" /><line stroke="rgb(0%,0%,0%)" x1="283.442196894" x2="292.587628829" y1="74.5342067801" y2="79.1412989885" /><line stroke="rgb(0%,0%,0%)" x1="292.587628829" x2="293.103465762" y1="79.1412989885" y2="81.8152274811" /><line stroke="rgb(0%,0%,0%)" x1="288.826305188" x2="284.809205384" y1="57.2974746841" y2="56.716413746" /><line stroke="rgb(0%,0%,0%)" x1="308.584104667" x2="305.391121084" y1="239.383262572" y2="236.835302674" /><line stroke="rgb(0%,0%,0%)" x1="315.892730105" x2="308.584104667" y1="245.862754273" y2="239.383262572" /><line stroke="rgb(0%,0%,0%)" x1="304.888287799" x2="311.568513748" y1="231.689956428" y2="226.826281476" /><line stroke="rgb(0%,0%,0%)" x1="312.485791383" x2="311.568513748" y1="226.062518409" y2="226.826281476" /><line stroke="rgb(0%,0%,0%)" x1="304.888287799" x2="304.309758672" y1="231.689956428" y2="233.585111925" /><line stroke="rgb(0%,0%,0%)" x1="312.485791383" x2="312.75343017" y1="226.062518409" y2="225.934850953" /><line stroke="rgb(0%,0%,0%)" x1="313.269956561" x2="312.266694805" y1="224.196379404" y2="223.101522375" /><line stroke="rgb(0%,0%,0%)" x1="312.266694805" x2="306.31631624" y1="223.101522375" y2="218.509961576" /><line stroke="rgb(0%,0%,0%)" x1="296.989773697" x2="306.31631624" y1="213.916733463" y2="218.509961576" /><line stroke="rgb(0%,0%,0%)" x1="296.989773697" x2="300.209676959" y1="213.916733463" y2="208.427557921" /><line stroke="rgb(0%,0%,0%)" x1="300.209676959" x2="305.835284468" y1="208.427557921" y2="204.734574875" /><line stroke="rgb(0%,0%,0%)" x1="308.626799391" x2="305.835284468" y1="203.339686804" y2="204.734574875" /><line stroke="rgb(0%,0%,0%)" x1="309.715141387" x2="308.626799391" y1="202.08568191" y2="203.339686804" /><line stroke="rgb(0%,0%,0%)" x1="309.715141387" x2="313.257988453" y1="202.08568191" y2="198.493677812" /><line stroke="rgb(0%,0%,0%)" x1="313.257988453" x2="318.284612764" y1="198.493677812" y2="194.306677916" /><line stroke="rgb(0%,0%,0%)" x1="325.156999029" x2="324.583899286" y1="252.198652651" y2="252.325795124" /><line stroke="rgb(0%,0%,0%)" x1="324.583899286" x2="323.930698849" y1="252.325795124" y2="252.183745695" /><line stroke="rgb(0%,0%,0%)" x1="323.930698849" x2="323.137115791" y1="252.183745695" y2="251.403822952" /><line stroke="rgb(0%,0%,0%)" x1="327.888019163" x2="325.156999029" y1="250.069987034" y2="252.198652651" /><line stroke="rgb(0%,0%,0%)" x1="315.892730105" x2="323.137115791" y1="245.862754273" y2="251.403822952" /><line stroke="rgb(0%,0%,0%)" x1="312.75343017" x2="313.269956561" y1="225.934850953" y2="224.196379404" /><line stroke="rgb(0%,0%,0%)" x1="318.284612764" x2="321.156509462" y1="194.306677916" y2="185.510242489" /><line stroke="rgb(0%,0%,0%)" x1="322.584363916" x2="321.156509462" y1="181.514553023" y2="185.510242489" /><line stroke="rgb(0%,0%,0%)" x1="322.584363916" x2="323.856739831" y1="181.514553023" y2="178.051913305" /><line stroke="rgb(0%,0%,0%)" x1="323.856739831" x2="325.021429285" y1="178.051913305" y2="177.370880289" /><line stroke="rgb(0%,0%,0%)" x1="322.056695932" x2="321.737534065" y1="74.7042024963" y2="74.0422607043" /><line stroke="rgb(0%,0%,0%)" x1="321.737534065" x2="321.277335217" y1="74.0422607043" y2="73.1436866778" /><line stroke="rgb(0%,0%,0%)" x1="314.695346127" x2="314.132696059" y1="65.1581825317" y2="64.6825433809" /><line stroke="rgb(0%,0%,0%)" x1="337.500389624" x2="335.730418275" y1="155.681159781" y2="146.644502952" /><line stroke="rgb(0%,0%,0%)" x1="332.735237986" x2="332.720423608" y1="138.030686071" y2="137.32390371" /><line stroke="rgb(0%,0%,0%)" x1="332.720423608" x2="333.089268241" y1="137.32390371" y2="136.26576576" /><line stroke="rgb(0%,0%,0%)" x1="335.784747536" x2="333.089268241" y1="125.808499487" y2="136.26576576" /><line stroke="rgb(0%,0%,0%)" x1="335.784747536" x2="335.999349188" y1="125.808499487" y2="123.857896844" /><line stroke="rgb(0%,0%,0%)" x1="259.427665705" x2="260.196064621" y1="159.154657782" y2="157.00505491" /><line stroke="rgb(0%,0%,0%)" x1="262.648616988" x2="260.53271759" y1="141.285429914" y2="145.685647687" /><line stroke="rgb(0%,0%,0%)" x1="266.086552324" x2="274.492057283" y1="137.312171303" y2="132.259881977" /><line stroke="rgb(0%,0%,0%)" x1="281.006546618" x2="274.813221058" y1="115.273604603" y2="131.907388511" /><line stroke="rgb(0%,0%,0%)" x1="273.491795599" x2="275.16168035" y1="64.0892701955" y2="62.8689925048" /><line stroke="rgb(0%,0%,0%)" x1="273.491795599" x2="273.142013119" y1="64.0892701955" y2="64.8754324076" /><line stroke="rgb(0%,0%,0%)" x1="278.821706815" x2="281.906830837" y1="58.4471529815" y2="57.7770956127" /><line stroke="rgb(0%,0%,0%)" x1="278.821706815" x2="275.172178115" y1="58.4471529815" y2="62.8495164865" /><line stroke="rgb(0%,0%,0%)" x1="283.100676691" x2="281.906830837" y1="57.0670127098" y2="57.7770956127" /><line stroke="rgb(0%,0%,0%)" x1="284.809205384" x2="283.100676691" y1="56.716413746" y2="57.0670127098" /><line stroke="rgb(0%,0%,0%)" x1="303.811434508" x2="303.198548953" y1="235.514939015" y2="235.272145458" /><line stroke="rgb(0%,0%,0%)" x1="303.198548953" x2="302.933737595" y1="235.272145458" y2="234.961222573" /><line stroke="rgb(0%,0%,0%)" x1="302.933737595" x2="304.309758672" y1="234.961222573" y2="233.585111925" /><line stroke="rgb(0%,0%,0%)" x1="283.500810969" x2="290.570572464" y1="111.957526752" y2="105.789925852" /><line stroke="rgb(0%,0%,0%)" x1="290.662842932" x2="290.570572464" y1="105.527055716" y2="105.789925852" /><line stroke="rgb(0%,0%,0%)" x1="313.992524918" x2="313.562800987" y1="64.610611502" y2="64.4496832645" /><line stroke="rgb(0%,0%,0%)" x1="314.132696059" x2="313.992524918" y1="64.6825433809" y2="64.610611502" /><line stroke="rgb(0%,0%,0%)" x1="305.391121084" x2="303.811434508" y1="236.835302674" y2="235.514939015" /><line stroke="rgb(0%,0%,0%)" x1="219.02736384" x2="218.256507222" y1="256.532777054" y2="257.287997773" /><line stroke="rgb(0%,0%,0%)" x1="219.02736384" x2="219.279056327" y1="256.532777054" y2="256.537990917" /><line stroke="rgb(0%,0%,0%)" x1="219.279056327" x2="222.653845678" y1="256.537990917" y2="253.275470448" /><line stroke="rgb(0%,0%,0%)" x1="229.256915508" x2="228.875684489" y1="249.81030266" y2="249.980615942" /><line stroke="rgb(0%,0%,0%)" x1="229.256915508" x2="229.268050444" y1="249.81030266" y2="249.798800431" /><line stroke="rgb(0%,0%,0%)" x1="233.842173134" x2="229.268050444" y1="248.331171742" y2="249.798800431" /><line stroke="rgb(0%,0%,0%)" x1="240.169304739" x2="236.135110054" y1="244.06232483" y2="247.387289381" /><line stroke="rgb(0%,0%,0%)" x1="236.135110054" x2="233.842173134" y1="247.387289381" y2="248.331171742" /><line stroke="rgb(0%,0%,0%)" x1="244.676358915" x2="244.485281492" y1="240.840401123" y2="241.050903184" /><line stroke="rgb(0%,0%,0%)" x1="244.485281492" x2="240.169304739" y1="241.050903184" y2="244.06232483" /><line stroke="rgb(0%,0%,0%)" x1="244.941724517" x2="244.676358915" y1="240.633503553" y2="240.840401123" /><line stroke="rgb(0%,0%,0%)" x1="244.941724517" x2="245.591930605" y1="240.633503553" y2="240.195073815" /><line stroke="rgb(0%,0%,0%)" x1="255.704919551" x2="256.289831386" y1="188.407825075" y2="191.791221701" /><line stroke="rgb(0%,0%,0%)" x1="255.704919551" x2="256.801390879" y1="188.407825075" y2="184.267640286" /><line stroke="rgb(0%,0%,0%)" x1="254.241103132" x2="245.591930605" y1="234.237064992" y2="240.195073815" /><line stroke="rgb(0%,0%,0%)" x1="258.675504494" x2="254.241103132" y1="231.853667873" y2="234.237064992" /><line stroke="rgb(0%,0%,0%)" x1="258.675504494" x2="261.066502171" y1="231.853667873" y2="228.957838808" /><line stroke="rgb(0%,0%,0%)" x1="258.128408768" x2="260.447122909" y1="209.112362363" y2="217.165892706" /><line stroke="rgb(0%,0%,0%)" x1="260.447122909" x2="264.032167431" y1="217.165892706" y2="225.482752306" /><line stroke="rgb(0%,0%,0%)" x1="258.128408768" x2="257.658355114" y1="209.112362363" y2="207.750236431" /><line stroke="rgb(0%,0%,0%)" x1="257.658355114" x2="257.821051937" y1="207.750236431" y2="201.580666251" /><line stroke="rgb(0%,0%,0%)" x1="256.289831386" x2="257.821051937" y1="191.791221701" y2="201.580666251" /><line stroke="rgb(0%,0%,0%)" x1="258.611597711" x2="256.801390879" y1="172.612807029" y2="184.267640286" /><line stroke="rgb(0%,0%,0%)" x1="259.427665705" x2="258.577438665" y1="159.154657782" y2="162.363239791" /><line stroke="rgb(0%,0%,0%)" x1="258.577438665" x2="258.611597711" y1="162.363239791" y2="172.612807029" /><line stroke="rgb(0%,0%,0%)" x1="260.53271759" x2="260.196064621" y1="145.685647687" y2="157.00505491" /><line stroke="rgb(0%,0%,0%)" x1="266.086552324" x2="262.648616988" y1="137.312171303" y2="141.285429914" /><line stroke="rgb(0%,0%,0%)" x1="264.032167431" x2="261.066502171" y1="225.482752306" y2="228.957838808" /><line stroke="rgb(0%,0%,0%)" x1="274.763760003" x2="274.492057283" y1="132.123486218" y2="132.259881977" /><line stroke="rgb(0%,0%,0%)" x1="274.813221058" x2="274.763760003" y1="131.907388511" y2="132.123486218" /><line stroke="rgb(0%,0%,0%)" x1="278.977759377" x2="279.209055567" y1="73.0100057289" y2="73.2116495466" /><line stroke="rgb(0%,0%,0%)" x1="275.172178115" x2="275.16168035" y1="62.8495164865" y2="62.8689925048" /><line stroke="rgb(0%,0%,0%)" x1="281.721881783" x2="281.006546618" y1="114.119179621" y2="115.273604603" /><line stroke="rgb(0%,0%,0%)" x1="283.500810969" x2="281.721881783" y1="111.957526752" y2="114.119179621" /><line stroke="rgb(0%,0%,0%)" x1="279.209055567" x2="283.442196894" y1="73.2116495466" y2="74.5342067801" /><line stroke="rgb(0%,0%,0%)" x1="189.385857672" x2="195.181509455" y1="273.86639997" y2="270.798440678" /><line stroke="rgb(0%,0%,0%)" x1="215.67638535" x2="215.329900457" y1="259.198020753" y2="259.40753084" /><line stroke="rgb(0%,0%,0%)" x1="215.133632889" x2="215.329900457" y1="259.452406475" y2="259.40753084" /><line stroke="rgb(0%,0%,0%)" x1="215.133632889" x2="207.149737472" y1="259.452406475" y2="263.08611371" /><line stroke="rgb(0%,0%,0%)" x1="218.256507222" x2="215.67638535" y1="257.287997773" y2="259.198020753" /><line stroke="rgb(0%,0%,0%)" x1="223.475909354" x2="222.653845678" y1="252.601009601" y2="253.275470448" /><line stroke="rgb(0%,0%,0%)" x1="224.102531788" x2="223.475909354" y1="252.28010175" y2="252.601009601" /><line stroke="rgb(0%,0%,0%)" x1="228.875684489" x2="224.102531788" y1="249.980615942" y2="252.28010175" /><line stroke="rgb(0%,0%,0%)" x1="160.532232339" x2="167.624127326" y1="282.913206085" y2="279.453584547" /><line stroke="rgb(0%,0%,0%)" x1="160.532232339" x2="146.366731139" y1="282.913206085" y2="291.093865417" /><line stroke="rgb(0%,0%,0%)" x1="189.385857672" x2="183.660673746" y1="273.86639997" y2="275.039891792" /><line stroke="rgb(0%,0%,0%)" x1="183.660673746" x2="176.234394722" y1="275.039891792" y2="277.019455417" /><line stroke="rgb(0%,0%,0%)" x1="204.003308841" x2="195.181509455" y1="265.6044734" y2="270.798440678" /><line stroke="rgb(0%,0%,0%)" x1="207.149737472" x2="204.003308841" y1="263.08611371" y2="265.6044734" /><line stroke="rgb(0%,0%,0%)" x1="112.789126477" x2="112.184738739" y1="297.80536247" y2="297.922081973" /><line stroke="rgb(0%,0%,0%)" x1="112.789126477" x2="114.225896863" y1="297.80536247" y2="297.621359877" /><line stroke="rgb(0%,0%,0%)" x1="138.524810142" x2="133.339961859" y1="297.624824887" y2="300.559186879" /><line stroke="rgb(0%,0%,0%)" x1="146.366731139" x2="138.524810142" y1="291.093865417" y2="297.624824887" /><line stroke="rgb(0%,0%,0%)" x1="170.519701697" x2="167.624127326" y1="278.532929872" y2="279.453584547" /><line stroke="rgb(0%,0%,0%)" x1="176.234394722" x2="174.880647625" y1="277.019455417" y2="277.229322959" /><line stroke="rgb(0%,0%,0%)" x1="96.7470949877" x2="104.225678054" y1="301.749612172" y2="299.931236757" /><line stroke="rgb(0%,0%,0%)" x1="112.184738739" x2="104.225678054" y1="297.922081973" y2="299.931236757" /><line stroke="rgb(0%,0%,0%)" x1="123.44364924" x2="114.225896863" y1="298.313059195" y2="297.621359877" /><line stroke="rgb(0%,0%,0%)" x1="123.44364924" x2="131.379069692" y1="298.313059195" y2="299.976117662" /><line stroke="rgb(0%,0%,0%)" x1="132.739074632" x2="131.379069692" y1="300.90771996" y2="299.976117662" /><line stroke="rgb(0%,0%,0%)" x1="133.339961859" x2="132.739074632" y1="300.559186879" y2="300.90771996" /><line stroke="rgb(0%,0%,0%)" x1="174.880647625" x2="173.137501878" y1="277.229322959" y2="277.7502176" /><line stroke="rgb(0%,0%,0%)" x1="70.4611483222" x2="60.9172631378" y1="308.635539223" y2="313.679650172" /><line stroke="rgb(0%,0%,0%)" x1="83.589439045" x2="71.2084422249" y1="305.35717163" y2="308.330674799" /><line stroke="rgb(0%,0%,0%)" x1="83.589439045" x2="86.9279549814" y1="305.35717163" y2="304.041447832" /><line stroke="rgb(0%,0%,0%)" x1="96.7470949877" x2="86.9279549814" y1="301.749612172" y2="304.041447832" /><line stroke="rgb(0%,0%,0%)" x1="39.946758755" x2="41.4903146452" y1="335.341821174" y2="331.908058077" /><line stroke="rgb(0%,0%,0%)" x1="39.946758755" x2="37.119366297" y1="335.341821174" y2="338.949992794" /><line stroke="rgb(0%,0%,0%)" x1="44.1022737295" x2="47.5786162346" y1="328.209674884" y2="323.849192607" /><line stroke="rgb(0%,0%,0%)" x1="51.3206767467" x2="48.3815678174" y1="320.647470121" y2="322.872461056" /><line stroke="rgb(0%,0%,0%)" x1="56.0885040529" x2="51.3206767467" y1="316.859656059" y2="320.647470121" /><line stroke="rgb(0%,0%,0%)" x1="56.0885040529" x2="60.2081420281" y1="316.859656059" y2="314.008967311" /><line stroke="rgb(0%,0%,0%)" x1="60.6243888949" x2="60.2081420281" y1="313.813718707" y2="314.008967311" /><line stroke="rgb(0%,0%,0%)" x1="60.9172631378" x2="60.7099425028" y1="313.679650172" y2="313.81072628" /><line stroke="rgb(0%,0%,0%)" x1="70.8886796323" x2="70.4611483222" y1="308.512596074" y2="308.635539223" /><line stroke="rgb(0%,0%,0%)" x1="71.2084422249" x2="70.8886796323" y1="308.330674799" y2="308.512596074" /><line stroke="rgb(0%,0%,0%)" x1="12.4620394449" x2="11.8710208235" y1="423.687733381" y2="426.836076551" /><line stroke="rgb(0%,0%,0%)" x1="11.8710208235" x2="11.6654991341" y1="426.836076551" y2="429.266281883" /><line stroke="rgb(0%,0%,0%)" x1="11.6654991341" x2="9.97359433447" y1="429.266281883" y2="440.105970857" /><line stroke="rgb(0%,0%,0%)" x1="12.4620394449" x2="17.0426091366" y1="423.687733381" y2="417.868270047" /><line stroke="rgb(0%,0%,0%)" x1="17.2110012745" x2="17.6753787147" y1="403.137008033" y2="409.26200332" /><line stroke="rgb(0%,0%,0%)" x1="16.2671732715" x2="17.2110012745" y1="395.756774826" y2="403.137008033" /><line stroke="rgb(0%,0%,0%)" x1="16.2671732715" x2="16.2201753617" y1="395.756774826" y2="391.977246722" /><line stroke="rgb(0%,0%,0%)" x1="25.029753322" x2="18.2724195346" y1="459.5966788" y2="456.919991865" /><line stroke="rgb(0%,0%,0%)" x1="12.5387581566" x2="17.3571014341" y1="449.008004511" y2="456.422279232" /><line stroke="rgb(0%,0%,0%)" x1="17.3571014341" x2="18.2724195346" y1="456.422279232" y2="456.919991865" /><line stroke="rgb(0%,0%,0%)" x1="17.6753787147" x2="18.2161174815" y1="409.26200332" y2="413.830515495" /><line stroke="rgb(0%,0%,0%)" x1="22.0096606814" x2="18.9150889216" y1="379.734093826" y2="381.164266638" /><line stroke="rgb(0%,0%,0%)" x1="16.0957449225" x2="17.6182139119" y1="387.224643385" y2="382.176616585" /><line stroke="rgb(0%,0%,0%)" x1="18.9150889216" x2="17.6182139119" y1="381.164266638" y2="382.176616585" /><line stroke="rgb(0%,0%,0%)" x1="22.3666020363" x2="22.0096606814" y1="378.760441908" y2="379.734093826" /><line stroke="rgb(0%,0%,0%)" x1="23.7255057642" x2="22.3666020363" y1="377.40062603" y2="378.760441908" /><line stroke="rgb(0%,0%,0%)" x1="25.6277436298" x2="23.7255057642" y1="371.147930139" y2="377.40062603" /><line stroke="rgb(0%,0%,0%)" x1="25.6277436298" x2="29.1737372694" y1="371.147930139" y2="358.537357479" /><line stroke="rgb(0%,0%,0%)" x1="31.279769701" x2="29.1737372694" y1="352.150669514" y2="358.537357479" /><line stroke="rgb(0%,0%,0%)" x1="31.279769701" x2="35.7612305936" y1="352.150669514" y2="341.957011045" /><line stroke="rgb(0%,0%,0%)" x1="37.119366297" x2="35.7612305936" y1="338.949992794" y2="341.957011045" /><line stroke="rgb(0%,0%,0%)" x1="44.1022737295" x2="41.4903146452" y1="328.209674884" y2="331.908058077" /><line stroke="rgb(0%,0%,0%)" x1="60.7099425028" x2="60.6243888949" y1="313.81072628" y2="313.813718707" /><line stroke="rgb(0%,0%,0%)" x1="11.3234882519" x2="10.037595379" y1="445.585556165" y2="441.929027948" /><line stroke="rgb(0%,0%,0%)" x1="11.3234882519" x2="12.5387581566" y1="445.585556165" y2="449.008004511" /><line stroke="rgb(0%,0%,0%)" x1="9.97359433447" x2="10.037595379" y1="440.105970857" y2="441.929027948" /><line stroke="rgb(0%,0%,0%)" x1="16.0957449225" x2="16.2201753617" y1="387.224643385" y2="391.977246722" /><line stroke="rgb(0%,0%,0%)" x1="18.2063471021" x2="17.0426091366" y1="416.412872419" y2="417.868270047" /><line stroke="rgb(0%,0%,0%)" x1="18.8675037158" x2="18.2063471021" y1="415.709492694" y2="416.412872419" /><line stroke="rgb(0%,0%,0%)" x1="18.2161174815" x2="19.1286431976" y1="413.830515495" y2="415.110092826" /><line stroke="rgb(0%,0%,0%)" x1="19.1286431976" x2="18.8675037158" y1="415.110092826" y2="415.709492694" /><line stroke="rgb(0%,0%,0%)" x1="516.713002868" x2="509.935811071" y1="518.23398857" y2="531.333606023" /><line stroke="rgb(0%,0%,0%)" x1="517.885627662" x2="520.918196321" y1="514.140313431" y2="491.962244587" /><line stroke="rgb(0%,0%,0%)" x1="520.918196321" x2="520.938043392" y1="491.962244587" y2="490.63086287" /><line stroke="rgb(0%,0%,0%)" x1="516.57849902" x2="520.713114655" y1="476.308860708" y2="489.174036737" /><line stroke="rgb(0%,0%,0%)" x1="517.461086113" x2="517.244880079" y1="463.044644415" y2="468.806628911" /><line stroke="rgb(0%,0%,0%)" x1="517.170741901" x2="517.244880079" y1="473.725683504" y2="468.806628911" /><line stroke="rgb(0%,0%,0%)" x1="451.698097821" x2="452.813252723" y1="320.684741229" y2="321.439799921" /><line stroke="rgb(0%,0%,0%)" x1="451.698097821" x2="449.448479277" y1="320.684741229" y2="317.469459338" /><line stroke="rgb(0%,0%,0%)" x1="467.591552046" x2="466.744766428" y1="337.044055872" y2="336.020952237" /><line stroke="rgb(0%,0%,0%)" x1="466.744766428" x2="464.90777731" y1="336.020952237" y2="334.034596962" /><line stroke="rgb(0%,0%,0%)" x1="481.751864172" x2="478.435302738" y1="358.180422983" y2="351.991777212" /><line stroke="rgb(0%,0%,0%)" x1="477.549659066" x2="476.342772538" y1="350.1297142" y2="348.248137396" /><line stroke="rgb(0%,0%,0%)" x1="476.342772538" x2="469.098552227" y1="348.248137396" y2="339.01333893" /><line stroke="rgb(0%,0%,0%)" x1="467.591552046" x2="469.098552227" y1="337.044055872" y2="339.01333893" /><line stroke="rgb(0%,0%,0%)" x1="484.471050503" x2="483.815688424" y1="568.365471572" y2="570.459175692" /><line stroke="rgb(0%,0%,0%)" x1="484.471050503" x2="486.560812579" y1="568.365471572" y2="565.071250562" /><line stroke="rgb(0%,0%,0%)" x1="492.528765724" x2="486.560812579" y1="555.73157183" y2="565.071250562" /><line stroke="rgb(0%,0%,0%)" x1="492.528765724" x2="498.739182345" y1="555.73157183" y2="549.245878997" /><line stroke="rgb(0%,0%,0%)" x1="498.739182345" x2="501.698355203" y1="549.245878997" y2="544.945290912" /><line stroke="rgb(0%,0%,0%)" x1="501.698355203" x2="508.974994983" y1="544.945290912" y2="533.159797922" /><line stroke="rgb(0%,0%,0%)" x1="508.974994983" x2="509.935811071" y1="533.159797922" y2="531.333606023" /><line stroke="rgb(0%,0%,0%)" x1="516.713002868" x2="517.747448979" y1="518.23398857" y2="515.267354675" /><line stroke="rgb(0%,0%,0%)" x1="517.747448979" x2="517.885627662" y1="515.267354675" y2="514.140313431" /><line stroke="rgb(0%,0%,0%)" x1="520.938043392" x2="520.892688737" y1="490.63086287" y2="490.027086517" /><line stroke="rgb(0%,0%,0%)" x1="520.892688737" x2="520.713114655" y1="490.027086517" y2="489.174036737" /><line stroke="rgb(0%,0%,0%)" x1="516.57849902" x2="517.170741901" y1="476.308860708" y2="473.725683504" /><line stroke="rgb(0%,0%,0%)" x1="438.397426327" x2="433.718429547" y1="626.86726703" y2="630.071032469" /><line stroke="rgb(0%,0%,0%)" x1="438.397426327" x2="438.809515447" y1="626.86726703" y2="626.469569586" /><line stroke="rgb(0%,0%,0%)" x1="443.847115148" x2="444.342880415" y1="311.351788137" y2="312.145258796" /><line stroke="rgb(0%,0%,0%)" x1="443.847115148" x2="436.297759165" y1="311.351788137" y2="302.604353899" /><line stroke="rgb(0%,0%,0%)" x1="436.297759165" x2="435.802392745" y1="302.604353899" y2="301.971798541" /><line stroke="rgb(0%,0%,0%)" x1="449.448479277" x2="444.342880415" y1="317.469459338" y2="312.145258796" /><line stroke="rgb(0%,0%,0%)" x1="464.90777731" x2="460.2318579" y1="334.034596962" y2="329.135329344" /><line stroke="rgb(0%,0%,0%)" x1="460.2318579" x2="459.198058808" y1="329.135329344" y2="327.938103966" /><line stroke="rgb(0%,0%,0%)" x1="459.198058808" x2="455.082766255" y1="327.938103966" y2="323.606756534" /><line stroke="rgb(0%,0%,0%)" x1="455.082766255" x2="452.813252723" y1="323.606756534" y2="321.439799921" /><line stroke="rgb(0%,0%,0%)" x1="401.38887342" x2="400.062511781" y1="650.448190735" y2="651.338921958" /><line stroke="rgb(0%,0%,0%)" x1="406.820569033" x2="410.188838237" y1="645.849509954" y2="642.991108773" /><line stroke="rgb(0%,0%,0%)" x1="401.38887342" x2="406.820569033" y1="650.448190735" y2="645.849509954" /><line stroke="rgb(0%,0%,0%)" x1="419.459152459" x2="413.327563814" y1="638.559842713" y2="641.702842069" /><line stroke="rgb(0%,0%,0%)" x1="419.459152459" x2="423.57694955" y1="638.559842713" y2="636.986622471" /><line stroke="rgb(0%,0%,0%)" x1="423.57694955" x2="426.380056216" y1="636.986622471" y2="635.402554789" /><line stroke="rgb(0%,0%,0%)" x1="426.380056216" x2="433.718429547" y1="635.402554789" y2="630.071032469" /><line stroke="rgb(0%,0%,0%)" x1="340.501180221" x2="341.044789366" y1="734.394551685" y2="735.435934953" /><line stroke="rgb(0%,0%,0%)" x1="340.501180221" x2="340.173327209" y1="734.394551685" y2="733.96364313" /><line stroke="rgb(0%,0%,0%)" x1="367.133949254" x2="367.138701564" y1="805.913002623" y2="805.467819906" /><line stroke="rgb(0%,0%,0%)" x1="362.722057506" x2="361.985872664" y1="785.901835469" y2="789.39014564" /><line stroke="rgb(0%,0%,0%)" x1="362.722057506" x2="364.848683358" y1="785.901835469" y2="776.997726494" /><line stroke="rgb(0%,0%,0%)" x1="364.848683358" x2="365.135255934" y1="776.997726494" y2="772.909939052" /><line stroke="rgb(0%,0%,0%)" x1="373.134372828" x2="371.53634837" y1="660.046969082" y2="660.582608716" /><line stroke="rgb(0%,0%,0%)" x1="373.134372828" x2="375.656984164" y1="660.046969082" y2="658.328907386" /><line stroke="rgb(0%,0%,0%)" x1="378.317850536" x2="375.656984164" y1="657.828750573" y2="658.328907386" /><line stroke="rgb(0%,0%,0%)" x1="378.317850536" x2="380.951392391" y1="657.828750573" y2="657.74330056" /><line stroke="rgb(0%,0%,0%)" x1="380.951392391" x2="389.045681662" y1="657.74330056" y2="655.739914913" /><line stroke="rgb(0%,0%,0%)" x1="389.045681662" x2="394.731857482" y1="655.739914913" y2="653.968026267" /><line stroke="rgb(0%,0%,0%)" x1="394.731857482" x2="400.062511781" y1="653.968026267" y2="651.338921958" /><line stroke="rgb(0%,0%,0%)" x1="410.188838237" x2="413.327563814" y1="642.991108773" y2="641.702842069" /><line stroke="rgb(0%,0%,0%)" x1="321.553242181" x2="319.633635962" y1="867.794751071" y2="866.918147564" /><line stroke="rgb(0%,0%,0%)" x1="317.921597333" x2="316.228931922" y1="865.699915289" y2="863.603317777" /><line stroke="rgb(0%,0%,0%)" x1="321.553242181" x2="325.159900843" y1="867.794751071" y2="868.344840109" /><line stroke="rgb(0%,0%,0%)" x1="345.056865485" x2="346.36576493" y1="855.565710974" y2="854.012596118" /><line stroke="rgb(0%,0%,0%)" x1="346.36576493" x2="348.417758883" y1="854.012596118" y2="851.743465385" /><line stroke="rgb(0%,0%,0%)" x1="345.555990509" x2="341.044789366" y1="744.799345743" y2="735.435934953" /><line stroke="rgb(0%,0%,0%)" x1="340.173327209" x2="336.03348261" y1="733.96364313" y2="727.734777903" /><line stroke="rgb(0%,0%,0%)" x1="336.03348261" x2="329.940321467" y1="727.734777903" y2="723.727405632" /><line stroke="rgb(0%,0%,0%)" x1="337.816504882" x2="334.165190684" y1="676.308893599" y2="678.604739192" /><line stroke="rgb(0%,0%,0%)" x1="346.133597011" x2="345.437210028" y1="675.067366171" y2="675.21169125" /><line stroke="rgb(0%,0%,0%)" x1="346.133597011" x2="346.137694084" y1="675.067366171" y2="674.928728073" /><line stroke="rgb(0%,0%,0%)" x1="337.816504882" x2="341.33784934" y1="676.308893599" y2="677.474778567" /><line stroke="rgb(0%,0%,0%)" x1="341.33784934" x2="345.437210028" y1="677.474778567" y2="675.21169125" /><line stroke="rgb(0%,0%,0%)" x1="346.137694084" x2="350.80133291" y1="674.928728073" y2="673.920689266" /><line stroke="rgb(0%,0%,0%)" x1="350.80133291" x2="351.321130533" y1="673.920689266" y2="673.37771751" /><line stroke="rgb(0%,0%,0%)" x1="351.321130533" x2="352.240251307" y1="673.37771751" y2="670.899672692" /><line stroke="rgb(0%,0%,0%)" x1="357.395289729" x2="352.240251307" y1="669.915044078" y2="670.899672692" /><line stroke="rgb(0%,0%,0%)" x1="348.417758883" x2="350.729077936" y1="851.743465385" y2="846.437405281" /><line stroke="rgb(0%,0%,0%)" x1="350.729077936" x2="351.80727286" y1="846.437405281" y2="843.819079218" /><line stroke="rgb(0%,0%,0%)" x1="353.660504688" x2="353.443496715" y1="835.174164587" y2="837.020597374" /><line stroke="rgb(0%,0%,0%)" x1="351.80727286" x2="353.563326727" y1="843.819079218" y2="841.91912625" /><line stroke="rgb(0%,0%,0%)" x1="353.563326727" x2="353.443496715" y1="841.91912625" y2="837.020597374" /><line stroke="rgb(0%,0%,0%)" x1="353.660504688" x2="354.864674579" y1="835.174164587" y2="832.119887304" /><line stroke="rgb(0%,0%,0%)" x1="354.864674579" x2="361.32109343" y1="832.119887304" y2="822.523955855" /><line stroke="rgb(0%,0%,0%)" x1="361.223285741" x2="360.499431381" y1="761.003052868" y2="760.045296683" /><line stroke="rgb(0%,0%,0%)" x1="357.205472429" x2="360.499431381" y1="757.379252912" y2="760.045296683" /><line stroke="rgb(0%,0%,0%)" x1="353.875497069" x2="349.424124093" y1="754.535942251" y2="746.950895584" /><line stroke="rgb(0%,0%,0%)" x1="357.205472429" x2="353.875497069" y1="757.379252912" y2="754.535942251" /><line stroke="rgb(0%,0%,0%)" x1="349.424124093" x2="345.555990509" y1="746.950895584" y2="744.799345743" /><line stroke="rgb(0%,0%,0%)" x1="357.395289729" x2="363.274231385" y1="669.915044078" y2="664.647482897" /><line stroke="rgb(0%,0%,0%)" x1="367.133949254" x2="364.164638635" y1="805.913002623" y2="814.530942666" /><line stroke="rgb(0%,0%,0%)" x1="361.575356299" x2="364.164638635" y1="822.222625065" y2="814.530942666" /><line stroke="rgb(0%,0%,0%)" x1="367.027294302" x2="367.138701564" y1="805.22010896" y2="805.467819906" /><line stroke="rgb(0%,0%,0%)" x1="367.027294302" x2="364.046468881" y1="805.22010896" y2="798.132920898" /><line stroke="rgb(0%,0%,0%)" x1="364.046468881" x2="363.548018068" y1="798.132920898" y2="794.798675369" /><line stroke="rgb(0%,0%,0%)" x1="363.548018068" x2="361.985872664" y1="794.798675369" y2="789.39014564" /><line stroke="rgb(0%,0%,0%)" x1="362.338493138" x2="361.699795682" y1="764.529308831" y2="762.043505202" /><line stroke="rgb(0%,0%,0%)" x1="361.699795682" x2="361.223285741" y1="762.043505202" y2="761.003052868" /><line stroke="rgb(0%,0%,0%)" x1="365.135255934" x2="362.338493138" y1="772.909939052" y2="764.529308831" /><line stroke="rgb(0%,0%,0%)" x1="363.274231385" x2="364.801554869" y1="664.647482897" y2="663.63292789" /><line stroke="rgb(0%,0%,0%)" x1="364.801554869" x2="365.731259212" y1="663.63292789" y2="663.437481511" /><line stroke="rgb(0%,0%,0%)" x1="368.717989876" x2="365.731259212" y1="661.189911771" y2="663.437481511" /><line stroke="rgb(0%,0%,0%)" x1="368.717989876" x2="369.367556273" y1="661.189911771" y2="660.284273943" /><line stroke="rgb(0%,0%,0%)" x1="369.367556273" x2="371.53634837" y1="660.284273943" y2="660.582608716" /><line stroke="rgb(0%,0%,0%)" x1="303.975376252" x2="307.184268187" y1="782.202027547" y2="788.88660092" /><line stroke="rgb(0%,0%,0%)" x1="317.921597333" x2="319.633635962" y1="865.699915289" y2="866.918147564" /><line stroke="rgb(0%,0%,0%)" x1="319.213846932" x2="316.732685633" y1="716.276054194" y2="713.255405695" /><line stroke="rgb(0%,0%,0%)" x1="316.798223239" x2="316.732685633" y1="709.830101191" y2="713.255405695" /><line stroke="rgb(0%,0%,0%)" x1="316.798223239" x2="321.577092227" y1="709.830101191" y2="704.828675929" /><line stroke="rgb(0%,0%,0%)" x1="325.159900843" x2="325.575446768" y1="868.344840109" y2="868.564114225" /><line stroke="rgb(0%,0%,0%)" x1="336.086263851" x2="326.389464612" y1="861.393789946" y2="868.169708708" /><line stroke="rgb(0%,0%,0%)" x1="329.940321467" x2="329.386737601" y1="723.727405632" y2="723.735479273" /><line stroke="rgb(0%,0%,0%)" x1="329.386737601" x2="327.380859748" y1="723.735479273" y2="722.096304495" /><line stroke="rgb(0%,0%,0%)" x1="319.213846932" x2="327.380859748" y1="716.276054194" y2="722.096304495" /><line stroke="rgb(0%,0%,0%)" x1="324.11711943" x2="321.577092227" y1="701.420776192" y2="704.828675929" /><line stroke="rgb(0%,0%,0%)" x1="324.11711943" x2="325.305849644" y1="701.420776192" y2="696.119061565" /><line stroke="rgb(0%,0%,0%)" x1="325.305849644" x2="324.813790977" y1="696.119061565" y2="692.491177489" /><line stroke="rgb(0%,0%,0%)" x1="323.511540557" x2="324.813790977" y1="690.721788953" y2="692.491177489" /><line stroke="rgb(0%,0%,0%)" x1="323.511540557" x2="321.912151332" y1="690.721788953" y2="689.929778793" /><line stroke="rgb(0%,0%,0%)" x1="321.912151332" x2="323.233443101" y1="689.929778793" y2="688.121612534" /><line stroke="rgb(0%,0%,0%)" x1="323.233443101" x2="323.369747278" y1="688.121612534" y2="687.366992368" /><line stroke="rgb(0%,0%,0%)" x1="323.369747278" x2="326.70940416" y1="687.366992368" y2="684.552284046" /><line stroke="rgb(0%,0%,0%)" x1="334.033578622" x2="328.652524837" y1="678.876528469" y2="683.216871585" /><line stroke="rgb(0%,0%,0%)" x1="326.70940416" x2="328.652524837" y1="684.552284046" y2="683.216871585" /><line stroke="rgb(0%,0%,0%)" x1="334.033578622" x2="334.03137709" y1="678.876528469" y2="678.669633303" /><line stroke="rgb(0%,0%,0%)" x1="336.086263851" x2="345.056865485" y1="861.393789946" y2="855.565710974" /><line stroke="rgb(0%,0%,0%)" x1="334.135862325" x2="334.165190684" y1="678.696351609" y2="678.604739192" /><line stroke="rgb(0%,0%,0%)" x1="334.03137709" x2="334.135862325" y1="678.669633303" y2="678.696351609" /><line stroke="rgb(0%,0%,0%)" x1="361.32109343" x2="361.462104464" y1="822.523955855" y2="822.389856796" /><line stroke="rgb(0%,0%,0%)" x1="361.462104464" x2="361.575356299" y1="822.389856796" y2="822.222625065" /><line stroke="rgb(0%,0%,0%)" x1="280.829150232" x2="280.279832843" y1="763.347782604" y2="762.880274702" /><line stroke="rgb(0%,0%,0%)" x1="268.726944908" x2="280.279832843" y1="750.572949954" y2="762.880274702" /><line stroke="rgb(0%,0%,0%)" x1="281.459592563" x2="299.747177549" y1="763.800415519" y2="780.950354376" /><line stroke="rgb(0%,0%,0%)" x1="280.829150232" x2="281.459592563" y1="763.347782604" y2="763.800415519" /><line stroke="rgb(0%,0%,0%)" x1="299.747177549" x2="301.440559844" y1="780.950354376" y2="780.454472" /><line stroke="rgb(0%,0%,0%)" x1="301.440559844" x2="303.975376252" y1="780.454472" y2="782.202027547" /><line stroke="rgb(0%,0%,0%)" x1="314.664401782" x2="316.228931922" y1="861.397678214" y2="863.603317777" /><line stroke="rgb(0%,0%,0%)" x1="325.575446768" x2="326.389464612" y1="868.564114225" y2="868.169708708" /><line stroke="rgb(0%,0%,0%)" x1="224.183514597" x2="224.990248703" y1="671.875989906" y2="672.520808349" /><line stroke="rgb(0%,0%,0%)" x1="224.990248703" x2="232.271251616" y1="672.520808349" y2="679.904326393" /><line stroke="rgb(0%,0%,0%)" x1="224.183514597" x2="221.957315023" y1="671.875989906" y2="668.944577232" /><line stroke="rgb(0%,0%,0%)" x1="238.671325007" x2="239.966420131" y1="690.077380521" y2="691.912938259" /><line stroke="rgb(0%,0%,0%)" x1="235.718858136" x2="238.671325007" y1="685.688237668" y2="690.077380521" /><line stroke="rgb(0%,0%,0%)" x1="235.718858136" x2="234.366504685" y1="685.688237668" y2="682.236668096" /><line stroke="rgb(0%,0%,0%)" x1="259.233270949" x2="256.957467659" y1="741.746357976" y2="738.258192862" /><line stroke="rgb(0%,0%,0%)" x1="252.799416985" x2="256.957467659" y1="730.101794567" y2="738.258192862" /><line stroke="rgb(0%,0%,0%)" x1="249.799575603" x2="250.836923579" y1="716.276896394" y2="723.32625958" /><line stroke="rgb(0%,0%,0%)" x1="250.836923579" x2="252.799416985" y1="723.32625958" y2="730.101794567" /><line stroke="rgb(0%,0%,0%)" x1="249.473683345" x2="249.799575603" y1="699.904413538" y2="716.276896394" /><line stroke="rgb(0%,0%,0%)" x1="246.872751423" x2="249.473683345" y1="696.451536431" y2="699.904413538" /><line stroke="rgb(0%,0%,0%)" x1="239.966420131" x2="246.872751423" y1="691.912938259" y2="696.451536431" /><line stroke="rgb(0%,0%,0%)" x1="259.431848396" x2="261.832310759" y1="742.569702029" y2="744.253124419" /><line stroke="rgb(0%,0%,0%)" x1="259.233270949" x2="259.431848396" y1="741.746357976" y2="742.569702029" /><line stroke="rgb(0%,0%,0%)" x1="261.832310759" x2="268.726944908" y1="744.253124419" y2="750.572949954" /><line stroke="rgb(0%,0%,0%)" x1="199.324321255" x2="195.544076783" y1="654.143237422" y2="652.045843004" /><line stroke="rgb(0%,0%,0%)" x1="191.587576622" x2="188.958047211" y1="648.493660617" y2="647.377837609" /><line stroke="rgb(0%,0%,0%)" x1="191.587576622" x2="195.544076783" y1="648.493660617" y2="652.045843004" /><line stroke="rgb(0%,0%,0%)" x1="199.324321255" x2="202.037363474" y1="654.143237422" y2="655.347930435" /><line stroke="rgb(0%,0%,0%)" x1="215.587787347" x2="212.664090544" y1="664.590546973" y2="661.419619815" /><line stroke="rgb(0%,0%,0%)" x1="215.587787347" x2="216.791172225" y1="664.590546973" y2="664.702955643" /><line stroke="rgb(0%,0%,0%)" x1="206.193584339" x2="210.511650093" y1="657.198346869" y2="660.126722135" /><line stroke="rgb(0%,0%,0%)" x1="206.193584339" x2="204.798144402" y1="657.198346869" y2="656.651778733" /><line stroke="rgb(0%,0%,0%)" x1="219.231112523" x2="221.957315023" y1="667.227118482" y2="668.944577232" /><line stroke="rgb(0%,0%,0%)" x1="216.791172225" x2="219.231112523" y1="664.702955643" y2="667.227118482" /><line stroke="rgb(0%,0%,0%)" x1="233.638400598" x2="234.366504685" y1="680.902436357" y2="682.236668096" /><line stroke="rgb(0%,0%,0%)" x1="232.271251616" x2="233.638400598" y1="679.904326393" y2="680.902436357" /><line stroke="rgb(0%,0%,0%)" x1="151.131306216" x2="142.376492437" y1="629.532767624" y2="624.945250823" /><line stroke="rgb(0%,0%,0%)" x1="156.159468152" x2="151.131306216" y1="633.072091515" y2="629.532767624" /><line stroke="rgb(0%,0%,0%)" x1="156.159468152" x2="165.249427692" y1="633.072091515" y2="638.812983785" /><line stroke="rgb(0%,0%,0%)" x1="165.249427692" x2="170.957292884" y1="638.812983785" y2="640.894057893" /><line stroke="rgb(0%,0%,0%)" x1="170.957292884" x2="180.818608798" y1="640.894057893" y2="643.234839713" /><line stroke="rgb(0%,0%,0%)" x1="180.818608798" x2="188.958047211" y1="643.234839713" y2="647.377837609" /><line stroke="rgb(0%,0%,0%)" x1="202.037363474" x2="204.798144402" y1="655.347930435" y2="656.651778733" /><line stroke="rgb(0%,0%,0%)" x1="212.346749926" x2="212.664090544" y1="661.28817987" y2="661.419619815" /><line stroke="rgb(0%,0%,0%)" x1="210.511650093" x2="212.346749926" y1="660.126722135" y2="661.28817987" /><line stroke="rgb(0%,0%,0%)" x1="130.584606591" x2="132.911338874" y1="615.637638443" y2="617.803097506" /><line stroke="rgb(0%,0%,0%)" x1="137.774762945" x2="142.376492437" y1="620.210397818" y2="624.945250823" /><line stroke="rgb(0%,0%,0%)" x1="137.774762945" x2="132.911338874" y1="620.210397818" y2="617.803097506" /><line stroke="rgb(0%,0%,0%)" x1="108.298900218" x2="92.2111846716" y1="622.428329899" y2="620.668961518" /><line stroke="rgb(0%,0%,0%)" x1="89.0516302751" x2="92.2111846716" y1="620.309500037" y2="620.668961518" /><line stroke="rgb(0%,0%,0%)" x1="111.734991829" x2="108.298900218" y1="622.629424145" y2="622.428329899" /><line stroke="rgb(0%,0%,0%)" x1="111.734991829" x2="119.472178887" y1="622.629424145" y2="620.264124502" /><line stroke="rgb(0%,0%,0%)" x1="119.472178887" x2="122.523791032" y1="620.264124502" y2="619.934601219" /><line stroke="rgb(0%,0%,0%)" x1="122.523791032" x2="128.774665231" y1="619.934601219" y2="616.420097438" /><line stroke="rgb(0%,0%,0%)" x1="128.774665231" x2="129.639267833" y1="616.420097438" y2="615.294058802" /><line stroke="rgb(0%,0%,0%)" x1="129.94216832" x2="130.584606591" y1="615.411913126" y2="615.637638443" /><line stroke="rgb(0%,0%,0%)" x1="129.639267833" x2="129.94216832" y1="615.294058802" y2="615.411913126" /><line stroke="rgb(0%,0%,0%)" x1="18.5896048962" x2="18.7667583351" y1="505.878513114" y2="505.518728663" /><line stroke="rgb(0%,0%,0%)" x1="18.5896048962" x2="18.3112373211" y1="505.878513114" y2="506.238766806" /><line stroke="rgb(0%,0%,0%)" x1="18.7667583351" x2="18.1520106319" y1="505.518728663" y2="504.600269385" /><line stroke="rgb(0%,0%,0%)" x1="47.8065860871" x2="49.940410064" y1="599.778167512" y2="601.87506571" /><line stroke="rgb(0%,0%,0%)" x1="47.8065860871" x2="47.293501485" y1="599.778167512" y2="599.543997155" /><line stroke="rgb(0%,0%,0%)" x1="43.1747525839" x2="45.2228463468" y1="594.671485475" y2="597.254156753" /><line stroke="rgb(0%,0%,0%)" x1="35.7733350068" x2="43.1747525839" y1="585.939815044" y2="594.671485475" /><line stroke="rgb(0%,0%,0%)" x1="48.3815678174" x2="48.2265067778" y1="322.872461056" y2="323.07451346" /><line stroke="rgb(0%,0%,0%)" x1="60.0409703517" x2="55.9567258277" y1="608.663579801" y2="605.856775333" /><line stroke="rgb(0%,0%,0%)" x1="70.0470716634" x2="87.4702301263" y1="612.818868012" y2="619.868277663" /><line stroke="rgb(0%,0%,0%)" x1="70.0470716634" x2="64.0705318796" y1="612.818868012" y2="610.597309944" /><line stroke="rgb(0%,0%,0%)" x1="62.2265352229" x2="64.0705318796" y1="609.31689452" y2="610.597309944" /><line stroke="rgb(0%,0%,0%)" x1="87.4702301263" x2="88.4827534359" y1="619.868277663" y2="620.221580801" /><line stroke="rgb(0%,0%,0%)" x1="88.4827534359" x2="89.0516302751" y1="620.221580801" y2="620.309500037" /><line stroke="rgb(0%,0%,0%)" x1="14.6755494697" x2="14.1213008676" y1="525.794971339" y2="519.926241783" /><line stroke="rgb(0%,0%,0%)" x1="18.2638613931" x2="17.2028323827" y1="506.732930027" y2="508.837210137" /><line stroke="rgb(0%,0%,0%)" x1="18.2638613931" x2="18.3112373211" y1="506.732930027" y2="506.238766806" /><line stroke="rgb(0%,0%,0%)" x1="14.5337006035" x2="12.6429052147" y1="499.559706727" y2="497.367579401" /><line stroke="rgb(0%,0%,0%)" x1="14.5337006035" x2="16.2970092717" y1="499.559706727" y2="501.44105158" /><line stroke="rgb(0%,0%,0%)" x1="11.1709229816" x2="12.6429052147" y1="494.995864965" y2="497.367579401" /><line stroke="rgb(0%,0%,0%)" x1="11.021519173" x2="11.1709229816" y1="490.296697672" y2="494.995864965" /><line stroke="rgb(0%,0%,0%)" x1="11.021519173" x2="10.4244717126" y1="490.296697672" y2="478.719604905" /><line stroke="rgb(0%,0%,0%)" x1="25.3601450606" x2="23.972294884" y1="560.398835793" y2="557.894652496" /><line stroke="rgb(0%,0%,0%)" x1="25.3601450606" x2="26.5935940185" y1="560.398835793" y2="564.241386152" /><line stroke="rgb(0%,0%,0%)" x1="22.0447002966" x2="23.972294884" y1="552.502991965" y2="557.894652496" /><line stroke="rgb(0%,0%,0%)" x1="21.6521784412" x2="22.0447002966" y1="548.271175244" y2="552.502991965" /><line stroke="rgb(0%,0%,0%)" x1="17.3611179356" x2="17.2693444233" y1="536.616261882" y2="536.367610509" /><line stroke="rgb(0%,0%,0%)" x1="17.3611179356" x2="17.4024578052" y1="536.616261882" y2="536.799040292" /><line stroke="rgb(0%,0%,0%)" x1="17.4024578052" x2="21.6521784412" y1="536.799040292" y2="548.271175244" /><line stroke="rgb(0%,0%,0%)" x1="14.6755494697" x2="17.2693444233" y1="525.794971339" y2="536.367610509" /><line stroke="rgb(0%,0%,0%)" x1="17.2028323827" x2="14.4781896643" y1="508.837210137" y2="516.145769401" /><line stroke="rgb(0%,0%,0%)" x1="16.2970092717" x2="18.1520106319" y1="501.44105158" y2="504.600269385" /><line stroke="rgb(0%,0%,0%)" x1="35.0642279317" x2="35.7733350068" y1="585.274415398" y2="585.939815044" /><line stroke="rgb(0%,0%,0%)" x1="35.0642279317" x2="33.8825259157" y1="585.274415398" y2="582.586643017" /><line stroke="rgb(0%,0%,0%)" x1="30.1571269071" x2="33.8825259157" y1="572.991019404" y2="582.586643017" /><line stroke="rgb(0%,0%,0%)" x1="28.9497138342" x2="30.1571269071" y1="568.259822349" y2="572.991019404" /><line stroke="rgb(0%,0%,0%)" x1="26.5935940185" x2="28.9497138342" y1="564.241386152" y2="568.259822349" /><line stroke="rgb(0%,0%,0%)" x1="55.5523007278" x2="55.9567258277" y1="605.155511481" y2="605.856775333" /><line stroke="rgb(0%,0%,0%)" x1="60.0409703517" x2="62.2265352229" y1="608.663579801" y2="609.31689452" /><line stroke="rgb(0%,0%,0%)" x1="54.0866483291" x2="55.5523007278" y1="604.884479879" y2="605.155511481" /><line stroke="rgb(0%,0%,0%)" x1="49.940410064" x2="54.0866483291" y1="601.87506571" y2="604.884479879" /><line stroke="rgb(0%,0%,0%)" x1="14.4781896643" x2="14.1213008676" y1="516.145769401" y2="519.926241783" /><line stroke="rgb(0%,0%,0%)" x1="22.1914611636" x2="10.4244717126" y1="464.95064099" y2="478.719604905" /><line stroke="rgb(0%,0%,0%)" x1="24.2214564527" x2="22.1914611636" y1="461.458364708" y2="464.95064099" /><line stroke="rgb(0%,0%,0%)" x1="25.7201948239" x2="24.2214564527" y1="460.172784808" y2="461.458364708" /><line stroke="rgb(0%,0%,0%)" x1="439.270138744" x2="438.809515447" y1="626.049510846" y2="626.469569586" /><line stroke="rgb(0%,0%,0%)" x1="439.270138744" x2="439.898236186" y1="626.049510846" y2="625.030551566" /><line stroke="rgb(0%,0%,0%)" x1="447.634221777" x2="450.176883207" y1="615.352921561" y2="613.421584222" /><line stroke="rgb(0%,0%,0%)" x1="454.393562929" x2="450.176883207" y1="608.374686944" y2="613.421584222" /><line stroke="rgb(0%,0%,0%)" x1="454.393562929" x2="455.031237613" y1="608.374686944" y2="607.558840269" /><line stroke="rgb(0%,0%,0%)" x1="455.031237613" x2="458.514396618" y1="607.558840269" y2="604.201279722" /><line stroke="rgb(0%,0%,0%)" x1="469.005651252" x2="468.985018915" y1="593.011888406" y2="593.036787947" /><line stroke="rgb(0%,0%,0%)" x1="463.169869131" x2="468.985018915" y1="599.34861769" y2="593.036787947" /><line stroke="rgb(0%,0%,0%)" x1="469.005651252" x2="469.017627292" y1="593.011888406" y2="593.000017662" /><line stroke="rgb(0%,0%,0%)" x1="469.025008783" x2="469.017627292" y1="592.991580521" y2="593.000017662" /><line stroke="rgb(0%,0%,0%)" x1="469.025008783" x2="469.035901457" y1="592.991580521" y2="592.978210097" /><line stroke="rgb(0%,0%,0%)" x1="469.035901457" x2="477.989964186" y1="592.978210097" y2="581.805602306" /><line stroke="rgb(0%,0%,0%)" x1="477.989964186" x2="478.84150994" y1="581.805602306" y2="580.22083311" /><line stroke="rgb(0%,0%,0%)" x1="478.84150994" x2="483.525800554" y1="580.22083311" y2="570.887313062" /><line stroke="rgb(0%,0%,0%)" x1="483.525800554" x2="483.815688424" y1="570.887313062" y2="570.459175692" /><line stroke="rgb(0%,0%,0%)" x1="439.898236186" x2="442.094087141" y1="625.030551566" y2="622.11486451" /><line stroke="rgb(0%,0%,0%)" x1="442.094087141" x2="443.463938208" y1="622.11486451" y2="620.102402897" /><line stroke="rgb(0%,0%,0%)" x1="443.463938208" x2="443.791607047" y1="620.102402897" y2="619.579567484" /><line stroke="rgb(0%,0%,0%)" x1="443.791607047" x2="445.067148163" y1="619.579567484" y2="618.2476882" /><line stroke="rgb(0%,0%,0%)" x1="445.067148163" x2="446.891844759" y1="618.2476882" y2="616.848610206" /><line stroke="rgb(0%,0%,0%)" x1="446.891844759" x2="447.634221777" y1="616.848610206" y2="615.352921561" /><line stroke="rgb(0%,0%,0%)" x1="458.514396618" x2="461.972188559" y1="604.201279722" y2="600.308918029" /><line stroke="rgb(0%,0%,0%)" x1="461.972188559" x2="463.169869131" y1="600.308918029" y2="599.34861769" /><line stroke="rgb(0%,0%,0%)" x1="313.791121102" x2="314.664401782" y1="860.335521524" y2="861.397678214" /><line stroke="rgb(0%,0%,0%)" x1="312.545675347" x2="313.791121102" y1="856.686491123" y2="860.335521524" /><line stroke="rgb(0%,0%,0%)" x1="312.545675347" x2="312.249015046" y1="856.686491123" y2="853.957878745" /><line stroke="rgb(0%,0%,0%)" x1="314.631445786" x2="312.249015046" y1="843.337132358" y2="853.957878745" /><line stroke="rgb(0%,0%,0%)" x1="314.631445786" x2="314.678006905" y1="843.337132358" y2="839.455272959" /><line stroke="rgb(0%,0%,0%)" x1="314.89162696" x2="314.678006905" y1="836.728748912" y2="839.455272959" /><line stroke="rgb(0%,0%,0%)" x1="313.619516806" x2="314.89162696" y1="831.937063777" y2="836.728748912" /><line stroke="rgb(0%,0%,0%)" x1="311.978516895" x2="313.619516806" y1="821.376606116" y2="831.937063777" /><line stroke="rgb(0%,0%,0%)" x1="311.978516895" x2="312.010121577" y1="821.376606116" y2="817.449169665" /><line stroke="rgb(0%,0%,0%)" x1="311.056252044" x2="312.010121577" y1="814.183449294" y2="817.449169665" /><line stroke="rgb(0%,0%,0%)" x1="311.056252044" x2="310.032976811" y1="814.183449294" y2="809.517122615" /><line stroke="rgb(0%,0%,0%)" x1="309.574894689" x2="310.032976811" y1="804.279869685" y2="809.517122615" /><line stroke="rgb(0%,0%,0%)" x1="308.730194531" x2="309.124047709" y1="799.231010163" y2="802.424448861" /><line stroke="rgb(0%,0%,0%)" x1="308.730194531" x2="308.22660207" y1="799.231010163" y2="792.165588774" /><line stroke="rgb(0%,0%,0%)" x1="309.124047709" x2="309.574894689" y1="802.424448861" y2="804.279869685" /><line stroke="rgb(0%,0%,0%)" x1="307.184268187" x2="308.22660207" y1="788.88660092" y2="792.165588774" /><line stroke="rgb(0%,0%,0%)" x1="48.2265067778" x2="47.5786162346" y1="323.07451346" y2="323.849192607" /><line stroke="rgb(0%,0%,0%)" x1="25.029753322" x2="25.7201948239" y1="459.5966788" y2="460.172784808" /><line stroke="rgb(0%,0%,0%)" x1="45.2228463468" x2="47.293501485" y1="597.254156753" y2="599.543997155" /><line stroke="rgb(0%,0%,0%)" x1="173.137501878" x2="170.519701697" y1="277.7502176" y2="278.532929872" /></svg>