<?xml version="1.0" encoding="utf-8" ?>
<svg baseProfile="full" height="100%" version="1.1" viewBox="0.5 0.5 685.793960571 941.299331665" width="100%" xmlns="http://www.w3.org/2000/svg" xmlns:ev="http://www.w3.org/2001/xml-events" xmlns:xlink="http://www.w3.org/1999/xlink"><defs /><line stroke="rgb(0%,0%,0%)" x1="515.780921847" x2="515.699723022" y1="455.939572764" y2="454.758278796" /><line stroke="rgb(0%,0%,0%)" x1="515.699723022" x2="514.405124219" y1="454.758278796" y2="449.013861158" /><line stroke="rgb(0%,0%,0%)" x1="517.433279304" x2="517.422510985" y1="428.885046208" y2="428.593946147" /><line stroke="rgb(0%,0%,0%)" x1="505.905881616" x2="508.910924528" y1="391.538390914" y2="396.186619166" /><line stroke="rgb(0%,0%,0%)" x1="500.534553353" x2="498.086375182" y1="382.837487823" y2="379.670861769" /><line stroke="rgb(0%,0%,0%)" x1="515.780921847" x2="516.046819243" y1="455.939572764" y2="461.828498649" /><line stroke="rgb(0%,0%,0%)" x1="515.549062911" x2="513.773241644" y1="439.932853661" y2="446.994663795" /><line stroke="rgb(0%,0%,0%)" x1="515.549062911" x2="517.433279304" y1="439.932853661" y2="428.885046208" /><line stroke="rgb(0%,0%,0%)" x1="517.422510985" x2="516.647079354" y1="428.593946147" y2="421.42594372" /><line stroke="rgb(0%,0%,0%)" x1="514.673615537" x2="516.571474959" y1="409.716126812" y2="415.875261728" /><line stroke="rgb(0%,0%,0%)" x1="516.647079354" x2="516.571474959" y1="421.42594372" y2="415.875261728" /><line stroke="rgb(0%,0%,0%)" x1="514.673615537" x2="508.910924528" y1="409.716126812" y2="396.186619166" /><line stroke="rgb(0%,0%,0%)" x1="480.866521464" x2="481.99174114" y1="358.701777422" y2="360.267416967" /><line stroke="rgb(0%,0%,0%)" x1="484.872928073" x2="481.99174114" y1="364.76122292" y2="360.267416967" /><line stroke="rgb(0%,0%,0%)" x1="498.086375182" x2="496.769569312" y1="379.670861769" y2="378.101701696" /><line stroke="rgb(0%,0%,0%)" x1="488.772238946" x2="496.769569312" y1="368.572010944" y2="378.101701696" /><line stroke="rgb(0%,0%,0%)" x1="488.772238946" x2="485.471524774" y1="368.572010944" y2="365.674593218" /><line stroke="rgb(0%,0%,0%)" x1="485.471524774" x2="484.872928073" y1="365.674593218" y2="364.76122292" /><line stroke="rgb(0%,0%,0%)" x1="505.905881616" x2="500.534553353" y1="391.538390914" y2="382.837487823" /><line stroke="rgb(0%,0%,0%)" x1="516.081619488" x2="516.046819243" y1="463.115198568" y2="461.828498649" /><line stroke="rgb(0%,0%,0%)" x1="514.405124219" x2="513.773241644" y1="449.013861158" y2="446.994663795" /><line stroke="rgb(0%,0%,0%)" x1="433.124456146" x2="429.66040929" y1="301.646356606" y2="297.41538785" /><line stroke="rgb(0%,0%,0%)" x1="392.626814008" x2="391.448852442" y1="271.779015212" y2="271.135845862" /><line stroke="rgb(0%,0%,0%)" x1="397.258027453" x2="405.095905404" y1="276.333509881" y2="282.791258532" /><line stroke="rgb(0%,0%,0%)" x1="420.362035073" x2="407.556363639" y1="290.847444605" y2="284.207904654" /><line stroke="rgb(0%,0%,0%)" x1="429.66040929" x2="429.186665985" y1="297.41538785" y2="296.78419598" /><line stroke="rgb(0%,0%,0%)" x1="422.263323128" x2="429.048126268" y1="292.559265565" y2="296.612879839" /><line stroke="rgb(0%,0%,0%)" x1="422.263323128" x2="421.690687187" y1="292.559265565" y2="291.952098611" /><line stroke="rgb(0%,0%,0%)" x1="421.690687187" x2="420.362035073" y1="291.952098611" y2="290.847444605" /><line stroke="rgb(0%,0%,0%)" x1="352.386471159" x2="346.764787088" y1="254.590988207" y2="253.140273303" /><line stroke="rgb(0%,0%,0%)" x1="367.279440482" x2="366.858907826" y1="260.067286331" y2="259.902305275" /><line stroke="rgb(0%,0%,0%)" x1="366.858907826" x2="356.082217761" y1="259.902305275" y2="256.406366461" /><line stroke="rgb(0%,0%,0%)" x1="373.02006105" x2="382.786113532" y1="262.572139418" y2="265.346548703" /><line stroke="rgb(0%,0%,0%)" x1="373.02006105" x2="367.279440482" y1="262.572139418" y2="260.067286331" /><line stroke="rgb(0%,0%,0%)" x1="391.448852442" x2="389.956525674" y1="271.135845862" y2="270.009270089" /><line stroke="rgb(0%,0%,0%)" x1="389.956525674" x2="382.786113532" y1="270.009270089" y2="265.346548703" /><line stroke="rgb(0%,0%,0%)" x1="397.258027453" x2="392.626814008" y1="276.333509881" y2="271.779015212" /><line stroke="rgb(0%,0%,0%)" x1="407.556363639" x2="406.700792407" y1="284.207904654" y2="283.751340087" /><line stroke="rgb(0%,0%,0%)" x1="406.700792407" x2="406.31604971" y1="283.751340087" y2="283.550461768" /><line stroke="rgb(0%,0%,0%)" x1="406.31604971" x2="405.095905404" y1="283.550461768" y2="282.791258532" /><line stroke="rgb(0%,0%,0%)" x1="429.186665985" x2="429.048126268" y1="296.78419598" y2="296.612879839" /><line stroke="rgb(0%,0%,0%)" x1="272.27314823" x2="272.426817333" y1="67.7864047935" y2="65.9028093815" /><line stroke="rgb(0%,0%,0%)" x1="297.641332047" x2="299.639351357" y1="55.1593274436" y2="55.7999989232" /><line stroke="rgb(0%,0%,0%)" x1="297.641332047" x2="293.909316824" y1="55.1593274436" y2="55.0881559283" /><line stroke="rgb(0%,0%,0%)" x1="299.639351357" x2="303.735347617" y1="55.7999989232" y2="57.9292140282" /><line stroke="rgb(0%,0%,0%)" x1="317.198041622" x2="317.337315244" y1="66.453175747" y2="66.6659047496" /><line stroke="rgb(0%,0%,0%)" x1="317.198041622" x2="316.950094933" y1="66.453175747" y2="66.1961152442" /><line stroke="rgb(0%,0%,0%)" x1="337.372691658" x2="338.819825472" y1="252.507460245" y2="252.195934269" /><line stroke="rgb(0%,0%,0%)" x1="331.780148954" x2="331.443565562" y1="251.581816017" y2="251.370366596" /><line stroke="rgb(0%,0%,0%)" x1="337.372691658" x2="331.780148954" y1="252.507460245" y2="251.581816017" /><line stroke="rgb(0%,0%,0%)" x1="338.819825472" x2="342.004301175" y1="252.195934269" y2="251.969400472" /><line stroke="rgb(0%,0%,0%)" x1="324.501332347" x2="326.974254729" y1="172.953496847" y2="170.864201457" /><line stroke="rgb(0%,0%,0%)" x1="329.874363742" x2="328.864376189" y1="142.76570119" y2="139.86108544" /><line stroke="rgb(0%,0%,0%)" x1="333.295154596" x2="334.115584233" y1="116.268265253" y2="109.626610544" /><line stroke="rgb(0%,0%,0%)" x1="334.115584233" x2="331.864049619" y1="109.626610544" y2="101.999247578" /><line stroke="rgb(0%,0%,0%)" x1="326.880303833" x2="330.018150994" y1="92.3234131176" y2="96.9835135217" /><line stroke="rgb(0%,0%,0%)" x1="324.332517201" x2="324.406916875" y1="78.8459803205" y2="81.5071545338" /><line stroke="rgb(0%,0%,0%)" x1="322.251353119" x2="324.332517201" y1="76.5052945114" y2="78.8459803205" /><line stroke="rgb(0%,0%,0%)" x1="356.082217761" x2="352.386471159" y1="256.406366461" y2="254.590988207" /><line stroke="rgb(0%,0%,0%)" x1="274.216913919" x2="276.398102079" y1="69.1124639998" y2="70.4399061691" /><line stroke="rgb(0%,0%,0%)" x1="272.27314823" x2="274.216913919" y1="67.7864047935" y2="69.1124639998" /><line stroke="rgb(0%,0%,0%)" x1="270.998336017" x2="272.426817333" y1="62.8694039629" y2="65.9028093815" /><line stroke="rgb(0%,0%,0%)" x1="292.71323108" x2="292.703263562" y1="83.504346346" y2="83.5447030008" /><line stroke="rgb(0%,0%,0%)" x1="292.703263562" x2="292.713909095" y1="83.5447030008" y2="83.5958188296" /><line stroke="rgb(0%,0%,0%)" x1="285.948810521" x2="291.34651679" y1="73.7006080586" y2="76.4197503218" /><line stroke="rgb(0%,0%,0%)" x1="291.34651679" x2="292.71323108" y1="76.4197503218" y2="83.504346346" /><line stroke="rgb(0%,0%,0%)" x1="293.909316824" x2="284.769962912" y1="55.0881559283" y2="53.7661769341" /><line stroke="rgb(0%,0%,0%)" x1="310.476860973" x2="313.994087332" y1="247.725060412" y2="250.531761883" /><line stroke="rgb(0%,0%,0%)" x1="293.57679448" x2="292.924650773" y1="204.347120801" y2="205.458871993" /><line stroke="rgb(0%,0%,0%)" x1="293.57679448" x2="295.44935411" y1="204.347120801" y2="203.117861392" /><line stroke="rgb(0%,0%,0%)" x1="310.45752865" x2="311.289154891" y1="191.384063491" y2="189.121421232" /><line stroke="rgb(0%,0%,0%)" x1="331.16462202" x2="322.923554484" y1="251.587786278" y2="253.416071352" /><line stroke="rgb(0%,0%,0%)" x1="322.923554484" x2="320.883825302" y1="253.416071352" y2="252.972497912" /><line stroke="rgb(0%,0%,0%)" x1="320.883825302" x2="319.054281379" y1="252.972497912" y2="251.902831461" /><line stroke="rgb(0%,0%,0%)" x1="319.054281379" x2="318.17260897" y1="251.902831461" y2="253.533959715" /><line stroke="rgb(0%,0%,0%)" x1="318.17260897" x2="315.08155257" y1="253.533959715" y2="251.876336282" /><line stroke="rgb(0%,0%,0%)" x1="331.443565562" x2="331.16462202" y1="251.370366596" y2="251.587786278" /><line stroke="rgb(0%,0%,0%)" x1="313.994087332" x2="315.08155257" y1="250.531761883" y2="251.876336282" /><line stroke="rgb(0%,0%,0%)" x1="311.289154891" x2="314.566279405" y1="189.121421232" y2="185.888200735" /><line stroke="rgb(0%,0%,0%)" x1="318.151410511" x2="314.566279405" y1="175.690688109" y2="185.888200735" /><line stroke="rgb(0%,0%,0%)" x1="318.151410511" x2="322.006219688" y1="175.690688109" y2="174.412472966" /><line stroke="rgb(0%,0%,0%)" x1="324.501332347" x2="322.006219688" y1="172.953496847" y2="174.412472966" /><line stroke="rgb(0%,0%,0%)" x1="331.864049619" x2="330.417547207" y1="101.999247578" y2="97.7254477763" /><line stroke="rgb(0%,0%,0%)" x1="330.417547207" x2="330.018150994" y1="97.7254477763" y2="96.9835135217" /><line stroke="rgb(0%,0%,0%)" x1="326.880303833" x2="324.406916875" y1="92.3234131176" y2="81.5071545338" /><line stroke="rgb(0%,0%,0%)" x1="322.251353119" x2="320.238968516" y1="76.5052945114" y2="72.3316083406" /><line stroke="rgb(0%,0%,0%)" x1="320.238968516" x2="317.337315244" y1="72.3316083406" y2="66.6659047496" /><line stroke="rgb(0%,0%,0%)" x1="316.950094933" x2="310.384989301" y1="66.1961152442" y2="60.6462691739" /><line stroke="rgb(0%,0%,0%)" x1="326.974254729" x2="329.48031733" y1="170.864201457" y2="166.831646852" /><line stroke="rgb(0%,0%,0%)" x1="331.052923976" x2="329.48031733" y1="161.265469339" y2="166.831646852" /><line stroke="rgb(0%,0%,0%)" x1="331.052923976" x2="330.538757796" y1="161.265469339" y2="146.157790594" /><line stroke="rgb(0%,0%,0%)" x1="329.874363742" x2="330.538757796" y1="142.76570119" y2="146.157790594" /><line stroke="rgb(0%,0%,0%)" x1="328.864376189" x2="328.786113701" y1="139.86108544" y2="136.127243404" /><line stroke="rgb(0%,0%,0%)" x1="328.786113701" x2="330.73467336" y1="136.127243404" y2="130.537234114" /><line stroke="rgb(0%,0%,0%)" x1="332.46299396" x2="330.73467336" y1="123.832115377" y2="130.537234114" /><line stroke="rgb(0%,0%,0%)" x1="332.46299396" x2="333.295154596" y1="123.832115377" y2="116.268265253" /><line stroke="rgb(0%,0%,0%)" x1="346.764787088" x2="342.004301175" y1="253.140273303" y2="251.969400472" /><line stroke="rgb(0%,0%,0%)" x1="264.80210747" x2="267.204799091" y1="131.484781884" y2="130.040598186" /><line stroke="rgb(0%,0%,0%)" x1="278.420382001" x2="275.407185103" y1="112.94534255" y2="121.038065205" /><line stroke="rgb(0%,0%,0%)" x1="271.509198139" x2="272.792849409" y1="61.72120324" y2="60.7831678418" /><line stroke="rgb(0%,0%,0%)" x1="271.509198139" x2="270.998336017" y1="61.72120324" y2="62.8694039629" /><line stroke="rgb(0%,0%,0%)" x1="275.936212915" x2="278.166734347" y1="56.6637939216" y2="56.1793474906" /><line stroke="rgb(0%,0%,0%)" x1="275.936212915" x2="273.297631152" y1="56.6637939216" y2="59.8466695787" /><line stroke="rgb(0%,0%,0%)" x1="284.324410939" x2="277.01116859" y1="220.221373414" y2="218.539229979" /><line stroke="rgb(0%,0%,0%)" x1="284.324410939" x2="292.14342538" y1="220.221373414" y2="223.585438854" /><line stroke="rgb(0%,0%,0%)" x1="280.256337289" x2="276.406624253" y1="213.191531219" y2="216.112684509" /><line stroke="rgb(0%,0%,0%)" x1="280.256337289" x2="283.553425912" y1="213.191531219" y2="213.433329633" /><line stroke="rgb(0%,0%,0%)" x1="283.553425912" x2="284.758746298" y1="213.433329633" y2="212.421753812" /><line stroke="rgb(0%,0%,0%)" x1="284.758746298" x2="289.396148225" y1="212.421753812" y2="209.524409583" /><line stroke="rgb(0%,0%,0%)" x1="292.924650773" x2="289.396148225" y1="205.458871993" y2="209.524409583" /><line stroke="rgb(0%,0%,0%)" x1="280.882867952" x2="278.166734347" y1="54.5638290135" y2="56.1793474906" /><line stroke="rgb(0%,0%,0%)" x1="284.769962912" x2="280.882867952" y1="53.7661769341" y2="54.5638290135" /><line stroke="rgb(0%,0%,0%)" x1="298.754369731" x2="294.206286796" y1="237.92694497" y2="236.125229747" /><line stroke="rgb(0%,0%,0%)" x1="294.206286796" x2="292.241182532" y1="236.125229747" y2="233.817942432" /><line stroke="rgb(0%,0%,0%)" x1="292.241182532" x2="294.66116294" y1="233.817942432" y2="231.397804497" /><line stroke="rgb(0%,0%,0%)" x1="294.66116294" x2="292.849957485" y1="231.397804497" y2="224.895688103" /><line stroke="rgb(0%,0%,0%)" x1="292.849957485" x2="292.14342538" y1="224.895688103" y2="223.585438854" /><line stroke="rgb(0%,0%,0%)" x1="295.44935411" x2="305.452221183" y1="203.117861392" y2="194.861802212" /><line stroke="rgb(0%,0%,0%)" x1="284.574683207" x2="289.83087538" y1="104.763314088" y2="100.177855922" /><line stroke="rgb(0%,0%,0%)" x1="289.83087538" x2="291.772602886" y1="100.177855922" y2="94.6460516279" /><line stroke="rgb(0%,0%,0%)" x1="292.26880602" x2="292.057902716" y1="88.4915782337" y2="93.4450116601" /><line stroke="rgb(0%,0%,0%)" x1="292.057902716" x2="291.772602886" y1="93.4450116601" y2="94.6460516279" /><line stroke="rgb(0%,0%,0%)" x1="292.713909095" x2="292.26880602" y1="83.5958188296" y2="88.4915782337" /><line stroke="rgb(0%,0%,0%)" x1="308.749446361" x2="303.735347617" y1="59.8069546321" y2="57.9292140282" /><line stroke="rgb(0%,0%,0%)" x1="310.384989301" x2="308.749446361" y1="60.6462691739" y2="59.8069546321" /><line stroke="rgb(0%,0%,0%)" x1="310.476860973" x2="298.754369731" y1="247.725060412" y2="237.92694497" /><line stroke="rgb(0%,0%,0%)" x1="305.452221183" x2="310.45752865" y1="194.861802212" y2="191.384063491" /><line stroke="rgb(0%,0%,0%)" x1="245.373350067" x2="244.406377748" y1="243.470766029" y2="244.26774013" /><line stroke="rgb(0%,0%,0%)" x1="244.406377748" x2="243.176717796" y1="244.26774013" y2="244.773926902" /><line stroke="rgb(0%,0%,0%)" x1="245.373350067" x2="246.548155032" y1="243.470766029" y2="242.651059783" /><line stroke="rgb(0%,0%,0%)" x1="248.681864447" x2="246.548155032" y1="241.676581316" y2="242.651059783" /><line stroke="rgb(0%,0%,0%)" x1="254.315465223" x2="248.681864447" y1="238.182560297" y2="241.676581316" /><line stroke="rgb(0%,0%,0%)" x1="256.795082872" x2="254.315465223" y1="236.474468131" y2="238.182560297" /><line stroke="rgb(0%,0%,0%)" x1="263.209250573" x2="259.366048677" y1="233.626401701" y2="235.092628286" /><line stroke="rgb(0%,0%,0%)" x1="256.795082872" x2="259.366048677" y1="236.474468131" y2="235.092628286" /><line stroke="rgb(0%,0%,0%)" x1="266.624295843" x2="263.209250573" y1="232.922802847" y2="233.626401701" /><line stroke="rgb(0%,0%,0%)" x1="263.71413239" x2="261.808772211" y1="200.848300488" y2="186.544234522" /><line stroke="rgb(0%,0%,0%)" x1="261.671429" x2="261.808772211" y1="178.726509384" y2="186.544234522" /><line stroke="rgb(0%,0%,0%)" x1="260.918643394" x2="261.671429" y1="176.934238174" y2="178.726509384" /><line stroke="rgb(0%,0%,0%)" x1="262.034091952" x2="260.918643394" y1="169.752535665" y2="176.934238174" /><line stroke="rgb(0%,0%,0%)" x1="262.034091952" x2="262.015281364" y1="169.752535665" y2="164.108338617" /><line stroke="rgb(0%,0%,0%)" x1="260.206026601" x2="262.015281364" y1="153.5579987" y2="164.108338617" /><line stroke="rgb(0%,0%,0%)" x1="259.826212365" x2="260.206026601" y1="151.254541347" y2="153.5579987" /><line stroke="rgb(0%,0%,0%)" x1="259.826212365" x2="259.954226072" y1="151.254541347" y2="139.679414234" /><line stroke="rgb(0%,0%,0%)" x1="259.829746014" x2="259.954226072" y1="137.667179639" y2="139.679414234" /><line stroke="rgb(0%,0%,0%)" x1="264.80210747" x2="261.784151511" y1="131.484781884" y2="134.972665841" /><line stroke="rgb(0%,0%,0%)" x1="261.784151511" x2="259.829746014" y1="134.972665841" y2="137.667179639" /><line stroke="rgb(0%,0%,0%)" x1="273.367978775" x2="270.874039732" y1="225.680287531" y2="228.537204874" /><line stroke="rgb(0%,0%,0%)" x1="274.133724682" x2="273.367978775" y1="225.700987083" y2="225.680287531" /><line stroke="rgb(0%,0%,0%)" x1="267.935323453" x2="266.624295843" y1="231.54495379" y2="232.922802847" /><line stroke="rgb(0%,0%,0%)" x1="267.935323453" x2="270.874039732" y1="231.54495379" y2="228.537204874" /><line stroke="rgb(0%,0%,0%)" x1="274.359498162" x2="274.681620447" y1="212.533860662" y2="217.698202383" /><line stroke="rgb(0%,0%,0%)" x1="274.681620447" x2="276.406624253" y1="217.698202383" y2="216.112684509" /><line stroke="rgb(0%,0%,0%)" x1="274.359498162" x2="271.406973028" y1="212.533860662" y2="208.270174051" /><line stroke="rgb(0%,0%,0%)" x1="265.991528792" x2="271.406973028" y1="203.298433646" y2="208.270174051" /><line stroke="rgb(0%,0%,0%)" x1="263.71413239" x2="265.991528792" y1="200.848300488" y2="203.298433646" /><line stroke="rgb(0%,0%,0%)" x1="274.143970829" x2="267.204799091" y1="126.557108593" y2="130.040598186" /><line stroke="rgb(0%,0%,0%)" x1="275.407185103" x2="274.143970829" y1="121.038065205" y2="126.557108593" /><line stroke="rgb(0%,0%,0%)" x1="276.398102079" x2="276.892910769" y1="70.4399061691" y2="70.8712799546" /><line stroke="rgb(0%,0%,0%)" x1="273.297631152" x2="272.792849409" y1="59.8466695787" y2="60.7831678418" /><line stroke="rgb(0%,0%,0%)" x1="277.01116859" x2="276.51880852" y1="218.539229979" y2="218.673126363" /><line stroke="rgb(0%,0%,0%)" x1="274.133724682" x2="276.51880852" y1="225.700987083" y2="218.673126363" /><line stroke="rgb(0%,0%,0%)" x1="280.185386607" x2="278.420382001" y1="110.096935943" y2="112.94534255" /><line stroke="rgb(0%,0%,0%)" x1="284.574683207" x2="280.185386607" y1="104.763314088" y2="110.096935943" /><line stroke="rgb(0%,0%,0%)" x1="276.892910769" x2="285.948810521" y1="70.8712799546" y2="73.7006080586" /><line stroke="rgb(0%,0%,0%)" x1="210.064277222" x2="214.472811481" y1="261.544299412" y2="259.537844919" /><line stroke="rgb(0%,0%,0%)" x1="217.379747057" x2="219.752242921" y1="258.004397636" y2="256.40299626" /><line stroke="rgb(0%,0%,0%)" x1="221.338482594" x2="219.752242921" y1="255.741842617" y2="256.40299626" /><line stroke="rgb(0%,0%,0%)" x1="224.685815683" x2="221.338482594" y1="252.995528463" y2="255.741842617" /><line stroke="rgb(0%,0%,0%)" x1="229.749043416" x2="224.685815683" y1="250.402532358" y2="252.995528463" /><line stroke="rgb(0%,0%,0%)" x1="229.749043416" x2="232.185720319" y1="250.402532358" y2="249.228653308" /><line stroke="rgb(0%,0%,0%)" x1="232.185720319" x2="236.267148063" y1="249.228653308" y2="247.706275725" /><line stroke="rgb(0%,0%,0%)" x1="237.988157421" x2="236.267148063" y1="247.442290459" y2="247.706275725" /><line stroke="rgb(0%,0%,0%)" x1="243.176717796" x2="237.988157421" y1="244.773926902" y2="247.442290459" /><line stroke="rgb(0%,0%,0%)" x1="157.224218173" x2="161.747748773" y1="283.365585398" y2="281.158882688" /><line stroke="rgb(0%,0%,0%)" x1="157.224218173" x2="148.188822377" y1="283.365585398" y2="288.583579022" /><line stroke="rgb(0%,0%,0%)" x1="182.371055375" x2="194.084297611" y1="275.328658252" y2="272.206353234" /><line stroke="rgb(0%,0%,0%)" x1="204.928946981" x2="195.124750942" y1="265.654549537" y2="271.426917642" /><line stroke="rgb(0%,0%,0%)" x1="195.124750942" x2="194.084297611" y1="271.426917642" y2="272.206353234" /><line stroke="rgb(0%,0%,0%)" x1="210.064277222" x2="204.928946981" y1="261.544299412" y2="265.654549537" /><line stroke="rgb(0%,0%,0%)" x1="217.379747057" x2="214.472811481" y1="258.004397636" y2="259.537844919" /><line stroke="rgb(0%,0%,0%)" x1="148.188822377" x2="136.742064204" y1="288.583579022" y2="298.116742354" /><line stroke="rgb(0%,0%,0%)" x1="168.683226534" x2="161.747748773" y1="278.953731236" y2="281.158882688" /><line stroke="rgb(0%,0%,0%)" x1="182.371055375" x2="179.12856125" y1="275.328658252" y2="275.831332847" /><line stroke="rgb(0%,0%,0%)" x1="99.5237224353" x2="102.179778632" y1="302.419394698" y2="301.77358957" /><line stroke="rgb(0%,0%,0%)" x1="102.179778632" x2="105.71622143" y1="301.77358957" y2="300.880863501" /><line stroke="rgb(0%,0%,0%)" x1="123.448049075" x2="119.711033296" y1="301.271031605" y2="300.990606273" /><line stroke="rgb(0%,0%,0%)" x1="123.448049075" x2="125.869878234" y1="301.271031605" y2="301.77858423" /><line stroke="rgb(0%,0%,0%)" x1="130.022536732" x2="125.869878234" y1="304.623151986" y2="301.77858423" /><line stroke="rgb(0%,0%,0%)" x1="132.159804071" x2="130.847304424" y1="303.080730335" y2="304.144761348" /><line stroke="rgb(0%,0%,0%)" x1="130.022536732" x2="130.847304424" y1="304.623151986" y2="304.144761348" /><line stroke="rgb(0%,0%,0%)" x1="136.742064204" x2="133.198309346" y1="298.116742354" y2="301.560112647" /><line stroke="rgb(0%,0%,0%)" x1="179.12856125" x2="174.953379745" y1="275.831332847" y2="277.078979336" /><line stroke="rgb(0%,0%,0%)" x1="71.3699580842" x2="65.5141644697" y1="310.424247671" y2="313.519137447" /><line stroke="rgb(0%,0%,0%)" x1="84.7017591754" x2="77.5228428491" y1="306.189993294" y2="307.914129949" /><line stroke="rgb(0%,0%,0%)" x1="84.7017591754" x2="86.6375424496" y1="306.189993294" y2="305.427092601" /><line stroke="rgb(0%,0%,0%)" x1="99.5237224353" x2="86.6375424496" y1="302.419394698" y2="305.427092601" /><line stroke="rgb(0%,0%,0%)" x1="111.954275736" x2="105.71622143" y1="300.271515563" y2="300.880863501" /><line stroke="rgb(0%,0%,0%)" x1="115.146999435" x2="111.954275736" y1="300.645571921" y2="300.271515563" /><line stroke="rgb(0%,0%,0%)" x1="119.711033296" x2="115.146999435" y1="300.990606273" y2="300.645571921" /><line stroke="rgb(0%,0%,0%)" x1="133.198309346" x2="132.159804071" y1="301.560112647" y2="303.080730335" /><line stroke="rgb(0%,0%,0%)" x1="38.7883032594" x2="38.8736269537" y1="337.087176756" y2="336.897367397" /><line stroke="rgb(0%,0%,0%)" x1="38.7883032594" x2="38.6320124691" y1="337.087176756" y2="337.286626957" /><line stroke="rgb(0%,0%,0%)" x1="55.760016582" x2="52.2271824441" y1="318.058271154" y2="320.864941355" /><line stroke="rgb(0%,0%,0%)" x1="55.760016582" x2="55.800836812" y1="318.058271154" y2="318.030024553" /><line stroke="rgb(0%,0%,0%)" x1="61.5024611873" x2="55.800836812" y1="315.355567909" y2="318.030024553" /><line stroke="rgb(0%,0%,0%)" x1="65.5141644697" x2="62.6743487729" y1="313.519137447" y2="315.314578546" /><line stroke="rgb(0%,0%,0%)" x1="74.8900602484" x2="71.3699580842" y1="309.411988603" y2="310.424247671" /><line stroke="rgb(0%,0%,0%)" x1="77.5228428491" x2="74.8900602484" y1="307.914129949" y2="309.411988603" /><line stroke="rgb(0%,0%,0%)" x1="12.9647536488" x2="12.6324141587" y1="422.238385489" y2="424.008750628" /><line stroke="rgb(0%,0%,0%)" x1="12.6324141587" x2="12.3355895114" y1="424.008750628" y2="427.518574059" /><line stroke="rgb(0%,0%,0%)" x1="12.3355895114" x2="11.0007200546" y1="427.518574059" y2="436.070810411" /><line stroke="rgb(0%,0%,0%)" x1="12.9647536488" x2="15.5404833141" y1="422.238385489" y2="418.966005556" /><line stroke="rgb(0%,0%,0%)" x1="18.2275649614" x2="18.3871851517" y1="404.856003555" y2="406.96134466" /><line stroke="rgb(0%,0%,0%)" x1="18.2275649614" x2="17.7018081727" y1="404.856003555" y2="400.744864981" /><line stroke="rgb(0%,0%,0%)" x1="18.3556313206" x2="17.7018081727" y1="395.749075022" y2="400.744864981" /><line stroke="rgb(0%,0%,0%)" x1="25.2303624281" x2="19.6485723634" y1="458.961986901" y2="456.750951453" /><line stroke="rgb(0%,0%,0%)" x1="14.2020189407" x2="17.4988256478" y1="450.509012062" y2="455.58200691" /><line stroke="rgb(0%,0%,0%)" x1="17.4988256478" x2="19.6485723634" y1="455.58200691" y2="456.750951453" /><line stroke="rgb(0%,0%,0%)" x1="18.3871851517" x2="18.5730529768" y1="406.96134466" y2="408.531676721" /><line stroke="rgb(0%,0%,0%)" x1="16.519480444" x2="16.7633778788" y1="387.01107646" y2="386.202389521" /><line stroke="rgb(0%,0%,0%)" x1="16.7633778788" x2="17.8562578988" y1="386.202389521" y2="385.349279528" /><line stroke="rgb(0%,0%,0%)" x1="23.7666197639" x2="22.6591422662" y1="379.738328535" y2="382.870549117" /><line stroke="rgb(0%,0%,0%)" x1="23.7672772928" x2="23.7666197639" y1="379.737670564" y2="379.738328535" /><line stroke="rgb(0%,0%,0%)" x1="26.7329663572" x2="23.7672772928" y1="369.989388206" y2="379.737670564" /><line stroke="rgb(0%,0%,0%)" x1="26.7329663572" x2="27.8359935269" y1="369.989388206" y2="366.066706531" /><line stroke="rgb(0%,0%,0%)" x1="33.755615098" x2="27.8359935269" y1="348.115047631" y2="366.066706531" /><line stroke="rgb(0%,0%,0%)" x1="33.755615098" x2="34.2790951465" y1="348.115047631" y2="346.924325017" /><line stroke="rgb(0%,0%,0%)" x1="38.6320124691" x2="34.2790951465" y1="337.286626957" y2="346.924325017" /><line stroke="rgb(0%,0%,0%)" x1="38.8736269537" x2="39.6826253776" y1="336.897367397" y2="335.751872358" /><line stroke="rgb(0%,0%,0%)" x1="45.0931839628" x2="39.6826253776" y1="328.446393188" y2="335.751872358" /><line stroke="rgb(0%,0%,0%)" x1="48.5694504056" x2="48.5120046495" y1="323.786796121" y2="323.826972903" /><line stroke="rgb(0%,0%,0%)" x1="52.2271824441" x2="48.5694504056" y1="320.864941355" y2="323.786796121" /><line stroke="rgb(0%,0%,0%)" x1="62.6743487729" x2="61.5024611873" y1="315.314578546" y2="315.355567909" /><line stroke="rgb(0%,0%,0%)" x1="12.1159012509" x2="11.2110130277" y1="444.634078427" y2="442.060964141" /><line stroke="rgb(0%,0%,0%)" x1="12.1159012509" x2="14.2020189407" y1="444.634078427" y2="450.509012062" /><line stroke="rgb(0%,0%,0%)" x1="11.0007200546" x2="11.2110130277" y1="436.070810411" y2="442.060964141" /><line stroke="rgb(0%,0%,0%)" x1="16.519480444" x2="16.5674687185" y1="387.01107646" y2="388.84398194" /><line stroke="rgb(0%,0%,0%)" x1="18.5478044505" x2="15.5404833141" y1="415.204980154" y2="418.966005556" /><line stroke="rgb(0%,0%,0%)" x1="20.2563593983" x2="18.5478044505" y1="413.387312624" y2="415.204980154" /><line stroke="rgb(0%,0%,0%)" x1="18.5730529768" x2="20.9311936879" y1="408.531676721" y2="411.8383489" /><line stroke="rgb(0%,0%,0%)" x1="20.9311936879" x2="20.2563593983" y1="411.8383489" y2="413.387312624" /><line stroke="rgb(0%,0%,0%)" x1="16.5674687185" x2="18.3556313206" y1="388.84398194" y2="395.749075022" /><line stroke="rgb(0%,0%,0%)" x1="22.6591422662" x2="17.8562578988" y1="382.870549117" y2="385.349279528" /><line stroke="rgb(0%,0%,0%)" x1="514.312000212" x2="509.533093312" y1="521.726635375" y2="530.963772837" /><line stroke="rgb(0%,0%,0%)" x1="517.036740906" x2="518.496396986" y1="512.214468059" y2="501.53957272" /><line stroke="rgb(0%,0%,0%)" x1="518.496396986" x2="518.593171429" y1="501.53957272" y2="495.047747003" /><line stroke="rgb(0%,0%,0%)" x1="514.587692029" x2="517.496417475" y1="478.893529534" y2="487.944253515" /><line stroke="rgb(0%,0%,0%)" x1="516.011153433" x2="516.14314222" y1="472.684838524" y2="463.927406546" /><line stroke="rgb(0%,0%,0%)" x1="449.969422116" x2="449.98373569" y1="319.942933847" y2="319.952625406" /><line stroke="rgb(0%,0%,0%)" x1="449.969422116" x2="449.94054713" y1="319.942933847" y2="319.901664086" /><line stroke="rgb(0%,0%,0%)" x1="480.866521464" x2="479.853648207" y1="358.701777422" y2="356.811773597" /><line stroke="rgb(0%,0%,0%)" x1="474.658004659" x2="465.919997197" y1="347.472103717" y2="336.367275226" /><line stroke="rgb(0%,0%,0%)" x1="487.450793024" x2="485.427529859" y1="562.060972237" y2="565.250366906" /><line stroke="rgb(0%,0%,0%)" x1="483.330108955" x2="485.427529859" y1="567.844744344" y2="565.250366906" /><line stroke="rgb(0%,0%,0%)" x1="489.852063104" x2="487.450793024" y1="558.303052134" y2="562.060972237" /><line stroke="rgb(0%,0%,0%)" x1="479.853648207" x2="477.15728995" y1="356.811773597" y2="352.308411465" /><line stroke="rgb(0%,0%,0%)" x1="489.852063104" x2="499.146485379" y1="558.303052134" y2="548.596655347" /><line stroke="rgb(0%,0%,0%)" x1="499.146485379" x2="500.998698928" y1="548.596655347" y2="545.904819519" /><line stroke="rgb(0%,0%,0%)" x1="500.998698928" x2="505.553313153" y1="545.904819519" y2="538.52801159" /><line stroke="rgb(0%,0%,0%)" x1="505.553313153" x2="509.533093312" y1="538.52801159" y2="530.963772837" /><line stroke="rgb(0%,0%,0%)" x1="514.312000212" x2="516.715665416" y1="521.726635375" y2="514.833289661" /><line stroke="rgb(0%,0%,0%)" x1="516.715665416" x2="517.036740906" y1="514.833289661" y2="512.214468059" /><line stroke="rgb(0%,0%,0%)" x1="518.593171429" x2="518.372021843" y1="495.047747003" y2="492.103729666" /><line stroke="rgb(0%,0%,0%)" x1="518.372021843" x2="517.496417475" y1="492.103729666" y2="487.944253515" /><line stroke="rgb(0%,0%,0%)" x1="514.587692029" x2="516.011153433" y1="478.893529534" y2="472.684838524" /><line stroke="rgb(0%,0%,0%)" x1="449.784420649" x2="445.32514199" y1="319.738852883" y2="314.741667437" /><line stroke="rgb(0%,0%,0%)" x1="449.94054713" x2="449.784420649" y1="319.901664086" y2="319.738852883" /><line stroke="rgb(0%,0%,0%)" x1="459.14230435" x2="465.003477134" y1="329.31253217" y2="335.453667529" /><line stroke="rgb(0%,0%,0%)" x1="459.14230435" x2="457.489654045" y1="329.31253217" y2="327.398625587" /><line stroke="rgb(0%,0%,0%)" x1="457.489654045" x2="454.630938053" y1="327.398625587" y2="324.389825603" /><line stroke="rgb(0%,0%,0%)" x1="454.630938053" x2="449.98373569" y1="324.389825603" y2="319.952625406" /><line stroke="rgb(0%,0%,0%)" x1="477.15728995" x2="476.226934137" y1="352.308411465" y2="350.760799062" /><line stroke="rgb(0%,0%,0%)" x1="476.226934137" x2="475.318331384" y1="350.760799062" y2="348.391010225" /><line stroke="rgb(0%,0%,0%)" x1="475.318331384" x2="474.658004659" y1="348.391010225" y2="347.472103717" /><line stroke="rgb(0%,0%,0%)" x1="516.14314222" x2="516.07334116" y1="463.927406546" y2="463.511113183" /><line stroke="rgb(0%,0%,0%)" x1="516.07334116" x2="516.081619488" y1="463.511113183" y2="463.115198568" /><line stroke="rgb(0%,0%,0%)" x1="407.174621521" x2="400.014282748" y1="643.9384685" y2="650.014918916" /><line stroke="rgb(0%,0%,0%)" x1="418.038497482" x2="415.781533963" y1="639.248924935" y2="640.405824933" /><line stroke="rgb(0%,0%,0%)" x1="418.038497482" x2="419.55420872" y1="639.248924935" y2="638.669841618" /><line stroke="rgb(0%,0%,0%)" x1="419.55420872" x2="427.668705861" y1="638.669841618" y2="634.084246346" /><line stroke="rgb(0%,0%,0%)" x1="427.668705861" x2="430.972286283" y1="634.084246346" y2="631.684107792" /><line stroke="rgb(0%,0%,0%)" x1="430.972286283" x2="435.832626781" y1="631.684107792" y2="627.766975609" /><line stroke="rgb(0%,0%,0%)" x1="435.832626781" x2="436.892368578" y1="627.766975609" y2="626.746953372" /><line stroke="rgb(0%,0%,0%)" x1="443.020041399" x2="441.306740049" y1="312.569253826" y2="311.123139447" /><line stroke="rgb(0%,0%,0%)" x1="434.405813464" x2="441.306740049" y1="303.155218748" y2="311.123139447" /><line stroke="rgb(0%,0%,0%)" x1="434.405813464" x2="433.124456146" y1="303.155218748" y2="301.646356606" /><line stroke="rgb(0%,0%,0%)" x1="445.32514199" x2="443.020041399" y1="314.741667437" y2="312.569253826" /><line stroke="rgb(0%,0%,0%)" x1="465.919997197" x2="465.524309538" y1="336.367275226" y2="336.170895694" /><line stroke="rgb(0%,0%,0%)" x1="465.524309538" x2="465.003477134" y1="336.170895694" y2="335.453667529" /><line stroke="rgb(0%,0%,0%)" x1="361.333891439" x2="361.221188777" y1="787.357982669" y2="787.892008662" /><line stroke="rgb(0%,0%,0%)" x1="361.333891439" x2="362.847787399" y1="787.357982669" y2="781.019352584" /><line stroke="rgb(0%,0%,0%)" x1="388.496424634" x2="380.379124345" y1="655.616365606" y2="657.62544662" /><line stroke="rgb(0%,0%,0%)" x1="388.496424634" x2="390.628186342" y1="655.616365606" y2="654.952080068" /><line stroke="rgb(0%,0%,0%)" x1="390.628186342" x2="396.973732386" y1="654.952080068" y2="651.822426275" /><line stroke="rgb(0%,0%,0%)" x1="396.973732386" x2="399.06296697" y1="651.822426275" y2="650.725943026" /><line stroke="rgb(0%,0%,0%)" x1="399.06296697" x2="399.258434921" y1="650.725943026" y2="650.561762882" /><line stroke="rgb(0%,0%,0%)" x1="399.258434921" x2="400.014282748" y1="650.561762882" y2="650.014918916" /><line stroke="rgb(0%,0%,0%)" x1="407.174621521" x2="415.781533963" y1="643.9384685" y2="640.405824933" /><line stroke="rgb(0%,0%,0%)" x1="320.738142908" x2="319.296554802" y1="869.142081431" y2="868.483768713" /><line stroke="rgb(0%,0%,0%)" x1="317.191485577" x2="316.102371764" y1="866.985868357" y2="865.636852009" /><line stroke="rgb(0%,0%,0%)" x1="320.738142908" x2="323.446675615" y1="869.142081431" y2="869.555187935" /><line stroke="rgb(0%,0%,0%)" x1="345.99330277" x2="346.283414278" y1="856.258108407" y2="855.913867682" /><line stroke="rgb(0%,0%,0%)" x1="346.283414278" x2="346.738229248" y1="855.913867682" y2="855.41092535" /><line stroke="rgb(0%,0%,0%)" x1="342.471401878" x2="339.506062655" y1="747.234838948" y2="741.080006034" /><line stroke="rgb(0%,0%,0%)" x1="333.596836184" x2="334.608049071" y1="729.966335429" y2="731.487819785" /><line stroke="rgb(0%,0%,0%)" x1="333.596836184" x2="332.327999649" y1="729.966335429" y2="729.131842426" /><line stroke="rgb(0%,0%,0%)" x1="344.465040676" x2="339.670273033" y1="676.865169762" y2="675.277666017" /><line stroke="rgb(0%,0%,0%)" x1="344.465040676" x2="346.452887964" y1="676.865169762" y2="675.767761574" /><line stroke="rgb(0%,0%,0%)" x1="355.693149532" x2="355.185975157" y1="669.391776615" y2="670.759171268" /><line stroke="rgb(0%,0%,0%)" x1="357.333019969" x2="355.693149532" y1="669.078556184" y2="669.391776615" /><line stroke="rgb(0%,0%,0%)" x1="346.738229248" x2="350.260303895" y1="855.41092535" y2="847.325351987" /><line stroke="rgb(0%,0%,0%)" x1="350.260303895" x2="350.588714807" y1="847.325351987" y2="846.527827504" /><line stroke="rgb(0%,0%,0%)" x1="350.588714807" x2="353.91164008" y1="846.527827504" y2="842.932606505" /><line stroke="rgb(0%,0%,0%)" x1="353.91164008" x2="353.797144298" y1="842.932606505" y2="838.252135534" /><line stroke="rgb(0%,0%,0%)" x1="355.075427364" x2="354.077649459" y1="831.646957993" y2="834.177739083" /><line stroke="rgb(0%,0%,0%)" x1="355.075427364" x2="358.739591123" y1="831.646957993" y2="826.201049812" /><line stroke="rgb(0%,0%,0%)" x1="359.810469518" x2="357.635995505" y1="763.604248253" y2="760.727128145" /><line stroke="rgb(0%,0%,0%)" x1="353.164429128" x2="350.269608658" y1="756.505104622" y2="751.572390946" /><line stroke="rgb(0%,0%,0%)" x1="353.164429128" x2="357.01089522" y1="756.505104622" y2="759.789422631" /><line stroke="rgb(0%,0%,0%)" x1="350.269608658" x2="342.471401878" y1="751.572390946" y2="747.234838948" /><line stroke="rgb(0%,0%,0%)" x1="346.452887964" x2="348.86094812" y1="675.767761574" y2="674.081688811" /><line stroke="rgb(0%,0%,0%)" x1="348.86094812" x2="352.603077304" y1="674.081688811" y2="673.275989087" /><line stroke="rgb(0%,0%,0%)" x1="357.333019969" x2="359.203171428" y1="669.078556184" y2="667.402891106" /><line stroke="rgb(0%,0%,0%)" x1="354.605602655" x2="355.185975157" y1="671.777588181" y2="670.759171268" /><line stroke="rgb(0%,0%,0%)" x1="361.788256477" x2="365.413901137" y1="822.588030165" y2="811.817745742" /><line stroke="rgb(0%,0%,0%)" x1="364.11721916" x2="365.913132589" y1="800.179395475" y2="804.449345713" /><line stroke="rgb(0%,0%,0%)" x1="364.11721916" x2="363.416679827" y1="800.179395475" y2="795.493336034" /><line stroke="rgb(0%,0%,0%)" x1="363.416679827" x2="361.221188777" y1="795.493336034" y2="787.892008662" /><line stroke="rgb(0%,0%,0%)" x1="363.790460147" x2="363.565357909" y1="776.463373824" y2="774.885480022" /><line stroke="rgb(0%,0%,0%)" x1="361.761154498" x2="363.565357909" y1="767.863539752" y2="774.885480022" /><line stroke="rgb(0%,0%,0%)" x1="361.761154498" x2="359.810469518" y1="767.863539752" y2="763.604248253" /><line stroke="rgb(0%,0%,0%)" x1="359.203171428" x2="364.938031758" y1="667.402891106" y2="663.593396049" /><line stroke="rgb(0%,0%,0%)" x1="364.938031758" x2="368.428925868" y1="663.593396049" y2="662.859525525" /><line stroke="rgb(0%,0%,0%)" x1="369.764169424" x2="368.428925868" y1="661.854730199" y2="662.859525525" /><line stroke="rgb(0%,0%,0%)" x1="369.764169424" x2="371.186804324" y1="661.854730199" y2="659.87126556" /><line stroke="rgb(0%,0%,0%)" x1="371.186804324" x2="373.885697685" y1="659.87126556" y2="660.24252002" /><line stroke="rgb(0%,0%,0%)" x1="373.885697685" x2="377.442372661" y1="660.24252002" y2="658.405590771" /><line stroke="rgb(0%,0%,0%)" x1="377.442372661" x2="377.953375182" y1="658.405590771" y2="658.198581411" /><line stroke="rgb(0%,0%,0%)" x1="377.953375182" x2="380.379124345" y1="658.198581411" y2="657.62544662" /><line stroke="rgb(0%,0%,0%)" x1="317.191485577" x2="319.296554802" y1="866.985868357" y2="868.483768713" /><line stroke="rgb(0%,0%,0%)" x1="316.245299451" x2="314.742674143" y1="718.830366961" y2="717.001020807" /><line stroke="rgb(0%,0%,0%)" x1="318.059306439" x2="313.642956255" y1="701.642020064" y2="706.264043692" /><line stroke="rgb(0%,0%,0%)" x1="323.446675615" x2="324.593817913" y1="869.555187935" y2="870.160508788" /><line stroke="rgb(0%,0%,0%)" x1="334.390086735" x2="326.840968575" y1="863.796561471" y2="869.071725999" /><line stroke="rgb(0%,0%,0%)" x1="332.327999649" x2="328.999414562" y1="729.131842426" y2="729.180387554" /><line stroke="rgb(0%,0%,0%)" x1="328.999414562" x2="316.938486629" y1="729.180387554" y2="719.324369232" /><line stroke="rgb(0%,0%,0%)" x1="316.245299451" x2="316.938486629" y1="718.830366961" y2="719.324369232" /><line stroke="rgb(0%,0%,0%)" x1="318.711901893" x2="318.059306439" y1="700.766446813" y2="701.642020064" /><line stroke="rgb(0%,0%,0%)" x1="318.711901893" x2="319.017315918" y1="700.766446813" y2="699.404305944" /><line stroke="rgb(0%,0%,0%)" x1="319.017315918" x2="318.718352319" y1="699.404305944" y2="697.200086496" /><line stroke="rgb(0%,0%,0%)" x1="318.718352319" x2="317.849111681" y1="697.200086496" y2="691.673417669" /><line stroke="rgb(0%,0%,0%)" x1="316.904255345" x2="317.849111681" y1="691.205529174" y2="691.673417669" /><line stroke="rgb(0%,0%,0%)" x1="316.904255345" x2="317.346008991" y1="691.205529174" y2="690.600996507" /><line stroke="rgb(0%,0%,0%)" x1="317.346008991" x2="317.778151238" y1="690.600996507" y2="688.208529437" /><line stroke="rgb(0%,0%,0%)" x1="317.778151238" x2="328.366284803" y1="688.208529437" y2="679.28470621" /><line stroke="rgb(0%,0%,0%)" x1="328.366284803" x2="329.53335533" y1="679.28470621" y2="678.482635323" /><line stroke="rgb(0%,0%,0%)" x1="329.53335533" x2="333.288330553" y1="678.482635323" y2="677.377584289" /><line stroke="rgb(0%,0%,0%)" x1="333.288330553" x2="333.835273287" y1="677.377584289" y2="677.41369036" /><line stroke="rgb(0%,0%,0%)" x1="334.390086735" x2="345.99330277" y1="863.796561471" y2="856.258108407" /><line stroke="rgb(0%,0%,0%)" x1="335.001311211" x2="334.608049071" y1="734.880765075" y2="731.487819785" /><line stroke="rgb(0%,0%,0%)" x1="339.506062655" x2="337.81977412" y1="741.080006034" y2="738.946168934" /><line stroke="rgb(0%,0%,0%)" x1="337.81977412" x2="335.001311211" y1="738.946168934" y2="734.880765075" /><line stroke="rgb(0%,0%,0%)" x1="337.088909744" x2="337.979704169" y1="678.00359277" y2="675.221035758" /><line stroke="rgb(0%,0%,0%)" x1="337.088909744" x2="334.321128113" y1="678.00359277" y2="677.295833087" /><line stroke="rgb(0%,0%,0%)" x1="333.835273287" x2="334.321128113" y1="677.41369036" y2="677.295833087" /><line stroke="rgb(0%,0%,0%)" x1="337.979704169" x2="338.289587394" y1="675.221035758" y2="674.920678473" /><line stroke="rgb(0%,0%,0%)" x1="338.289587394" x2="339.670273033" y1="674.920678473" y2="675.277666017" /><line stroke="rgb(0%,0%,0%)" x1="353.797144298" x2="353.989846317" y1="838.252135534" y2="836.304439415" /><line stroke="rgb(0%,0%,0%)" x1="353.989846317" x2="354.077649459" y1="836.304439415" y2="834.177739083" /><line stroke="rgb(0%,0%,0%)" x1="357.635995505" x2="357.01089522" y1="760.727128145" y2="759.789422631" /><line stroke="rgb(0%,0%,0%)" x1="352.603077304" x2="354.605602655" y1="673.275989087" y2="671.777588181" /><line stroke="rgb(0%,0%,0%)" x1="358.739591123" x2="360.430343121" y1="826.201049812" y2="824.593173845" /><line stroke="rgb(0%,0%,0%)" x1="360.430343121" x2="361.788256477" y1="824.593173845" y2="822.588030165" /><line stroke="rgb(0%,0%,0%)" x1="365.413901137" x2="366.351110789" y1="811.817745742" y2="808.454295371" /><line stroke="rgb(0%,0%,0%)" x1="366.351110789" x2="365.913132589" y1="808.454295371" y2="804.449345713" /><line stroke="rgb(0%,0%,0%)" x1="362.847787399" x2="363.790460147" y1="781.019352584" y2="776.463373824" /><line stroke="rgb(0%,0%,0%)" x1="285.445939673" x2="299.052031017" y1="771.890233676" y2="786.106316501" /><line stroke="rgb(0%,0%,0%)" x1="299.452120468" x2="299.052031017" y1="786.481516924" y2="786.106316501" /><line stroke="rgb(0%,0%,0%)" x1="299.452120468" x2="302.299827505" y1="786.481516924" y2="785.647607336" /><line stroke="rgb(0%,0%,0%)" x1="302.299827505" x2="305.443838252" y1="785.647607336" y2="787.815154226" /><line stroke="rgb(0%,0%,0%)" x1="314.045347115" x2="316.102371764" y1="862.736904715" y2="865.636852009" /><line stroke="rgb(0%,0%,0%)" x1="307.893073221" x2="308.717264682" y1="794.85965447" y2="796.487767233" /><line stroke="rgb(0%,0%,0%)" x1="305.443838252" x2="307.893073221" y1="787.815154226" y2="794.85965447" /><line stroke="rgb(0%,0%,0%)" x1="314.742674143" x2="309.301311886" y1="717.001020807" y2="711.693290948" /><line stroke="rgb(0%,0%,0%)" x1="309.301311886" x2="308.243056663" y1="711.693290948" y2="709.641418713" /><line stroke="rgb(0%,0%,0%)" x1="308.243056663" x2="310.746164695" y1="709.641418713" y2="708.062251369" /><line stroke="rgb(0%,0%,0%)" x1="310.746164695" x2="313.642956255" y1="708.062251369" y2="706.264043692" /><line stroke="rgb(0%,0%,0%)" x1="324.593817913" x2="326.840968575" y1="870.160508788" y2="869.071725999" /><line stroke="rgb(0%,0%,0%)" x1="226.647445819" x2="226.753895959" y1="671.886693821" y2="671.971778874" /><line stroke="rgb(0%,0%,0%)" x1="226.753895959" x2="227.714638509" y1="671.971778874" y2="672.946048495" /><line stroke="rgb(0%,0%,0%)" x1="226.647445819" x2="226.353694438" y1="671.886693821" y2="671.499888195" /><line stroke="rgb(0%,0%,0%)" x1="258.703958551" x2="260.581636244" y1="735.2780545" y2="738.961291751" /><line stroke="rgb(0%,0%,0%)" x1="258.703958551" x2="257.521607988" y1="735.2780545" y2="731.195973214" /><line stroke="rgb(0%,0%,0%)" x1="243.664178952" x2="248.702953559" y1="689.06981911" y2="691.987269787" /><line stroke="rgb(0%,0%,0%)" x1="260.581636244" x2="262.058738953" y1="738.961291751" y2="740.828863738" /><line stroke="rgb(0%,0%,0%)" x1="262.058738953" x2="266.492467435" y1="740.828863738" y2="745.801625118" /><line stroke="rgb(0%,0%,0%)" x1="258.818019664" x2="257.521607988" y1="732.767169578" y2="731.195973214" /><line stroke="rgb(0%,0%,0%)" x1="256.864374072" x2="258.818019664" y1="722.598141916" y2="732.767169578" /><line stroke="rgb(0%,0%,0%)" x1="255.733126041" x2="256.60561068" y1="703.675435319" y2="715.403992345" /><line stroke="rgb(0%,0%,0%)" x1="256.864374072" x2="256.60561068" y1="722.598141916" y2="715.403992345" /><line stroke="rgb(0%,0%,0%)" x1="256.405606691" x2="255.733126041" y1="702.938659842" y2="703.675435319" /><line stroke="rgb(0%,0%,0%)" x1="256.03124954" x2="256.405606691" y1="697.466896133" y2="702.938659842" /><line stroke="rgb(0%,0%,0%)" x1="253.539077614" x2="256.03124954" y1="696.51498503" y2="697.466896133" /><line stroke="rgb(0%,0%,0%)" x1="250.582482307" x2="253.539077614" y1="692.886418733" y2="696.51498503" /><line stroke="rgb(0%,0%,0%)" x1="266.492467435" x2="272.064296383" y1="745.801625118" y2="753.65539082" /><line stroke="rgb(0%,0%,0%)" x1="278.208260862" x2="272.064296383" y1="760.010084793" y2="753.65539082" /><line stroke="rgb(0%,0%,0%)" x1="281.741561834" x2="285.445939673" y1="765.343008181" y2="771.890233676" /><line stroke="rgb(0%,0%,0%)" x1="278.208260862" x2="281.741561834" y1="760.010084793" y2="765.343008181" /><line stroke="rgb(0%,0%,0%)" x1="202.829876616" x2="202.792419332" y1="655.606586093" y2="655.585803655" /><line stroke="rgb(0%,0%,0%)" x1="202.792419332" x2="201.870540367" y1="655.585803655" y2="654.758132205" /><line stroke="rgb(0%,0%,0%)" x1="202.829876616" x2="202.856759319" y1="655.606586093" y2="655.618523027" /><line stroke="rgb(0%,0%,0%)" x1="217.171536895" x2="215.460233385" y1="664.473468934" y2="662.617456104" /><line stroke="rgb(0%,0%,0%)" x1="217.171536895" x2="217.875904312" y1="664.473468934" y2="664.539264181" /><line stroke="rgb(0%,0%,0%)" x1="207.995035252" x2="209.708345692" y1="658.000580233" y2="659.162493042" /><line stroke="rgb(0%,0%,0%)" x1="207.995035252" x2="207.441356372" y1="658.000580233" y2="657.783714407" /><line stroke="rgb(0%,0%,0%)" x1="221.879917089" x2="226.353694438" y1="668.681488589" y2="671.499888195" /><line stroke="rgb(0%,0%,0%)" x1="217.875904312" x2="221.879917089" y1="664.539264181" y2="668.681488589" /><line stroke="rgb(0%,0%,0%)" x1="234.64512035" x2="235.061349457" y1="678.005762598" y2="678.768491574" /><line stroke="rgb(0%,0%,0%)" x1="227.714638509" x2="234.64512035" y1="672.946048495" y2="678.005762598" /><line stroke="rgb(0%,0%,0%)" x1="248.702953559" x2="250.582482307" y1="691.987269787" y2="692.886418733" /><line stroke="rgb(0%,0%,0%)" x1="243.664178952" x2="239.785620998" y1="689.06981911" y2="684.691542929" /><line stroke="rgb(0%,0%,0%)" x1="238.547107426" x2="239.785620998" y1="683.540904876" y2="684.691542929" /><line stroke="rgb(0%,0%,0%)" x1="235.061349457" x2="238.547107426" y1="678.768491574" y2="683.540904876" /><line stroke="rgb(0%,0%,0%)" x1="146.985139578" x2="143.861314103" y1="628.343215311" y2="626.706332768" /><line stroke="rgb(0%,0%,0%)" x1="148.779249737" x2="146.985139578" y1="629.606089704" y2="628.343215311" /><line stroke="rgb(0%,0%,0%)" x1="148.779249737" x2="162.331632748" y1="629.606089704" y2="638.165288513" /><line stroke="rgb(0%,0%,0%)" x1="162.331632748" x2="170.841590899" y1="638.165288513" y2="641.267999067" /><line stroke="rgb(0%,0%,0%)" x1="170.841590899" x2="185.544002904" y1="641.267999067" y2="644.757912485" /><line stroke="rgb(0%,0%,0%)" x1="185.544002904" x2="197.34750727" y1="644.757912485" y2="650.765930639" /><line stroke="rgb(0%,0%,0%)" x1="202.856759319" x2="207.441356372" y1="655.618523027" y2="657.783714407" /><line stroke="rgb(0%,0%,0%)" x1="197.456309348" x2="201.870540367" y1="650.851567284" y2="654.758132205" /><line stroke="rgb(0%,0%,0%)" x1="197.34750727" x2="197.456309348" y1="650.765930639" y2="650.851567284" /><line stroke="rgb(0%,0%,0%)" x1="214.612215685" x2="215.460233385" y1="662.26621396" y2="662.617456104" /><line stroke="rgb(0%,0%,0%)" x1="209.708345692" x2="214.612215685" y1="659.162493042" y2="662.26621396" /><line stroke="rgb(0%,0%,0%)" x1="129.610406102" x2="135.904285215" y1="613.068758248" y2="618.926388567" /><line stroke="rgb(0%,0%,0%)" x1="136.667043682" x2="143.861314103" y1="619.303939171" y2="626.706332768" /><line stroke="rgb(0%,0%,0%)" x1="136.667043682" x2="135.904285215" y1="619.303939171" y2="618.926388567" /><line stroke="rgb(0%,0%,0%)" x1="93.9482765248" x2="107.429208594" y1="619.288658423" y2="620.822379701" /><line stroke="rgb(0%,0%,0%)" x1="119.309932012" x2="111.38368545" y1="617.418623684" y2="619.841719831" /><line stroke="rgb(0%,0%,0%)" x1="119.309932012" x2="121.082848147" y1="617.418623684" y2="617.227178271" /><line stroke="rgb(0%,0%,0%)" x1="121.082848147" x2="124.714461601" y1="617.227178271" y2="615.185332793" /><line stroke="rgb(0%,0%,0%)" x1="124.714461601" x2="127.053237014" y1="615.185332793" y2="612.139365234" /><line stroke="rgb(0%,0%,0%)" x1="127.872591721" x2="129.610406102" y1="612.45816464" y2="613.068758248" /><line stroke="rgb(0%,0%,0%)" x1="127.053237014" x2="127.872591721" y1="612.139365234" y2="612.45816464" /><line stroke="rgb(0%,0%,0%)" x1="109.925876602" x2="111.38368545" y1="620.369532246" y2="619.841719831" /><line stroke="rgb(0%,0%,0%)" x1="47.6853439627" x2="48.5120046495" y1="324.904153732" y2="323.826972903" /><line stroke="rgb(0%,0%,0%)" x1="61.1083567326" x2="59.4533866472" y1="607.125291921" y2="605.987951244" /><line stroke="rgb(0%,0%,0%)" x1="72.2865230452" x2="80.8226112519" y1="612.172799275" y2="615.626500435" /><line stroke="rgb(0%,0%,0%)" x1="72.2865230452" x2="69.3584505677" y1="612.172799275" y2="611.084396408" /><line stroke="rgb(0%,0%,0%)" x1="65.5830657413" x2="69.3584505677" y1="608.46288354" y2="611.084396408" /><line stroke="rgb(0%,0%,0%)" x1="80.8226112519" x2="89.2265829183" y1="615.626500435" y2="618.558926314" /><line stroke="rgb(0%,0%,0%)" x1="89.2265829183" x2="93.9482765248" y1="618.558926314" y2="619.288658423" /><line stroke="rgb(0%,0%,0%)" x1="107.429208594" x2="109.925876602" y1="620.822379701" y2="620.369532246" /><line stroke="rgb(0%,0%,0%)" x1="14.7471956852" x2="13.3904468974" y1="500.895836645" y2="499.322865762" /><line stroke="rgb(0%,0%,0%)" x1="14.7471956852" x2="16.0124657998" y1="500.895836645" y2="502.245804158" /><line stroke="rgb(0%,0%,0%)" x1="11.2446301921" x2="13.3904468974" y1="495.865443286" y2="499.322865762" /><line stroke="rgb(0%,0%,0%)" x1="11.0268332777" x2="11.2446301921" y1="489.015121691" y2="495.865443286" /><line stroke="rgb(0%,0%,0%)" x1="11.0268332777" x2="10.5715517359" y1="489.015121691" y2="480.186951413" /><line stroke="rgb(0%,0%,0%)" x1="21.3611145411" x2="21.4900270833" y1="543.439044492" y2="544.828863286" /><line stroke="rgb(0%,0%,0%)" x1="21.3611145411" x2="19.9710944707" y1="543.439044492" y2="539.686680701" /><line stroke="rgb(0%,0%,0%)" x1="19.9710944707" x2="17.9210993121" y1="539.686680701" y2="532.27914455" /><line stroke="rgb(0%,0%,0%)" x1="16.0124657998" x2="17.9941269436" y1="502.245804158" y2="505.62073385" /><line stroke="rgb(0%,0%,0%)" x1="30.85168174" x2="33.2268629781" y1="572.913135834" y2="579.03096244" /><line stroke="rgb(0%,0%,0%)" x1="28.6468099536" x2="30.85168174" y1="564.273439" y2="572.913135834" /><line stroke="rgb(0%,0%,0%)" x1="28.6468099536" x2="25.8294974263" y1="564.273439" y2="559.468424178" /><line stroke="rgb(0%,0%,0%)" x1="43.6374580782" x2="37.4787751642" y1="593.447928403" y2="586.198271251" /><line stroke="rgb(0%,0%,0%)" x1="33.2268629781" x2="37.4787751642" y1="579.03096244" y2="586.198271251" /><line stroke="rgb(0%,0%,0%)" x1="58.5050095028" x2="59.4533866472" y1="604.343487015" y2="605.987951244" /><line stroke="rgb(0%,0%,0%)" x1="61.1083567326" x2="65.5830657413" y1="607.125291921" y2="608.46288354" /><line stroke="rgb(0%,0%,0%)" x1="55.0680535938" x2="58.5050095028" y1="603.707917718" y2="604.343487015" /><line stroke="rgb(0%,0%,0%)" x1="55.0680535938" x2="49.7841764852" y1="603.707917718" y2="599.872784852" /><line stroke="rgb(0%,0%,0%)" x1="46.6709574149" x2="49.7841764852" y1="597.442840709" y2="599.872784852" /><line stroke="rgb(0%,0%,0%)" x1="23.296498775" x2="24.801328106" y1="550.348271958" y2="556.888933437" /><line stroke="rgb(0%,0%,0%)" x1="21.4900270833" x2="23.296498775" y1="544.828863286" y2="550.348271958" /><line stroke="rgb(0%,0%,0%)" x1="16.443406159" x2="17.9210993121" y1="525.973667299" y2="532.27914455" /><line stroke="rgb(0%,0%,0%)" x1="16.4504675808" x2="16.443406159" y1="524.544049033" y2="525.973667299" /><line stroke="rgb(0%,0%,0%)" x1="16.3064777003" x2="16.7640519107" y1="523.609345791" y2="517.117229642" /><line stroke="rgb(0%,0%,0%)" x1="16.3064777003" x2="16.4504675808" y1="523.609345791" y2="524.544049033" /><line stroke="rgb(0%,0%,0%)" x1="17.003191489" x2="16.7640519107" y1="516.727558918" y2="517.117229642" /><line stroke="rgb(0%,0%,0%)" x1="17.0127263501" x2="17.003191489" y1="516.11874211" y2="516.727558918" /><line stroke="rgb(0%,0%,0%)" x1="20.0984311358" x2="17.0127263501" y1="508.082099392" y2="516.11874211" /><line stroke="rgb(0%,0%,0%)" x1="19.6273704389" x2="20.0984311358" y1="506.797575087" y2="508.082099392" /><line stroke="rgb(0%,0%,0%)" x1="18.3551041708" x2="19.6273704389" y1="505.753226414" y2="506.797575087" /><line stroke="rgb(0%,0%,0%)" x1="17.9941269436" x2="18.3551041708" y1="505.62073385" y2="505.753226414" /><line stroke="rgb(0%,0%,0%)" x1="19.5445286848" x2="10.5715517359" y1="469.687358774" y2="480.186951413" /><line stroke="rgb(0%,0%,0%)" x1="24.801328106" x2="25.8294974263" y1="556.888933437" y2="559.468424178" /><line stroke="rgb(0%,0%,0%)" x1="23.6111346116" x2="19.5445286848" y1="462.691425581" y2="469.687358774" /><line stroke="rgb(0%,0%,0%)" x1="26.6134954427" x2="23.6111346116" y1="460.116076333" y2="462.691425581" /><line stroke="rgb(0%,0%,0%)" x1="452.846347768" x2="452.035664722" y1="609.389374311" y2="610.005147382" /><line stroke="rgb(0%,0%,0%)" x1="453.212176014" x2="452.846347768" y1="608.951518534" y2="609.389374311" /><line stroke="rgb(0%,0%,0%)" x1="453.212176014" x2="453.267499023" y1="608.951518534" y2="608.880737783" /><line stroke="rgb(0%,0%,0%)" x1="453.267499023" x2="453.569688906" y1="608.880737783" y2="608.589444498" /><line stroke="rgb(0%,0%,0%)" x1="462.87135551" x2="466.556107523" y1="598.893791857" y2="594.894320096" /><line stroke="rgb(0%,0%,0%)" x1="470.260189739" x2="473.83283369" y1="589.796877209" y2="585.355180209" /><line stroke="rgb(0%,0%,0%)" x1="473.83283369" x2="477.225056848" y1="585.355180209" y2="582.201570975" /><line stroke="rgb(0%,0%,0%)" x1="477.225056848" x2="480.482972227" y1="582.201570975" y2="573.216602934" /><line stroke="rgb(0%,0%,0%)" x1="482.746129862" x2="480.482972227" y1="568.707227045" y2="573.216602934" /><line stroke="rgb(0%,0%,0%)" x1="482.746129862" x2="483.330108955" y1="568.707227045" y2="567.844744344" /><line stroke="rgb(0%,0%,0%)" x1="437.679622038" x2="436.892368578" y1="625.701625264" y2="626.746953372" /><line stroke="rgb(0%,0%,0%)" x1="437.679622038" x2="440.250038917" y1="625.701625264" y2="621.925400666" /><line stroke="rgb(0%,0%,0%)" x1="440.250038917" x2="440.864883503" y1="621.925400666" y2="620.944341482" /><line stroke="rgb(0%,0%,0%)" x1="440.864883503" x2="443.258335239" y1="620.944341482" y2="618.445175644" /><line stroke="rgb(0%,0%,0%)" x1="443.258335239" x2="446.682233674" y1="618.445175644" y2="615.819916757" /><line stroke="rgb(0%,0%,0%)" x1="446.682233674" x2="447.643787081" y1="615.819916757" y2="613.882647043" /><line stroke="rgb(0%,0%,0%)" x1="447.643787081" x2="452.035664722" y1="613.882647043" y2="610.005147382" /><line stroke="rgb(0%,0%,0%)" x1="453.569688906" x2="460.478381361" y1="608.589444498" y2="600.812478643" /><line stroke="rgb(0%,0%,0%)" x1="460.478381361" x2="462.87135551" y1="600.812478643" y2="598.893791857" /><line stroke="rgb(0%,0%,0%)" x1="466.556107523" x2="467.031842016" y1="594.894320096" y2="593.691099335" /><line stroke="rgb(0%,0%,0%)" x1="467.031842016" x2="470.260189739" y1="593.691099335" y2="589.796877209" /><line stroke="rgb(0%,0%,0%)" x1="313.720692722" x2="314.045347115" y1="862.342033005" y2="862.736904715" /><line stroke="rgb(0%,0%,0%)" x1="312.305214505" x2="313.720692722" y1="858.194824645" y2="862.342033005" /><line stroke="rgb(0%,0%,0%)" x1="312.305214505" x2="312.203628216" y1="858.194824645" y2="857.260457611" /><line stroke="rgb(0%,0%,0%)" x1="314.979281062" x2="312.203628216" y1="844.886748511" y2="857.260457611" /><line stroke="rgb(0%,0%,0%)" x1="314.979281062" x2="315.014344219" y1="844.886748511" y2="841.963488667" /><line stroke="rgb(0%,0%,0%)" x1="315.321884082" x2="315.014344219" y1="838.03822598" y2="841.963488667" /><line stroke="rgb(0%,0%,0%)" x1="313.490480274" x2="315.321884082" y1="831.139837211" y2="838.03822598" /><line stroke="rgb(0%,0%,0%)" x1="313.490480274" x2="311.32474111" y1="831.139837211" y2="817.202483157" /><line stroke="rgb(0%,0%,0%)" x1="311.238550049" x2="311.32474111" y1="815.847815581" y2="817.202483157" /><line stroke="rgb(0%,0%,0%)" x1="310.376194093" x2="311.238550049" y1="805.988499896" y2="815.847815581" /><line stroke="rgb(0%,0%,0%)" x1="309.386861463" x2="308.717264682" y1="801.916989056" y2="796.487767233" /><line stroke="rgb(0%,0%,0%)" x1="309.386861463" x2="310.376194093" y1="801.916989056" y2="805.988499896" /><line stroke="rgb(0%,0%,0%)" x1="45.9216017817" x2="45.0931839628" y1="327.013050523" y2="328.446393188" /><line stroke="rgb(0%,0%,0%)" x1="47.6853439627" x2="45.9216017817" y1="324.904153732" y2="327.013050523" /><line stroke="rgb(0%,0%,0%)" x1="25.2303624281" x2="26.6134954427" y1="458.961986901" y2="460.116076333" /><line stroke="rgb(0%,0%,0%)" x1="45.4519878437" x2="46.6709574149" y1="596.03013704" y2="597.442840709" /><line stroke="rgb(0%,0%,0%)" x1="43.6374580782" x2="44.6383850337" y1="593.447928403" y2="594.516793673" /><line stroke="rgb(0%,0%,0%)" x1="44.6383850337" x2="45.4519878437" y1="594.516793673" y2="596.03013704" /><line stroke="rgb(0%,0%,0%)" x1="174.953379745" x2="168.683226534" y1="277.078979336" y2="278.953731236" /></svg>