<?xml version="1.0" encoding="utf-8" ?>
<svg baseProfile="full" height="100%" version="1.1" viewBox="0.5 0.5 685.793960571 941.299331665" width="100%" xmlns="http://www.w3.org/2000/svg" xmlns:ev="http://www.w3.org/2001/xml-events" xmlns:xlink="http://www.w3.org/1999/xlink"><defs /><line stroke="rgb(0%,0%,0%)" x1="514.015077751" x2="513.991166106" y1="454.463452543" y2="454.115581958" /><line stroke="rgb(0%,0%,0%)" x1="513.991166106" x2="513.609929212" y1="454.115581958" y2="452.423950598" /><line stroke="rgb(0%,0%,0%)" x1="505.780921099" x2="505.937591168" y1="392.070031656" y2="392.312370371" /><line stroke="rgb(0%,0%,0%)" x1="514.015077751" x2="514.093379922" y1="454.463452543" y2="456.197639075" /><line stroke="rgb(0%,0%,0%)" x1="512.007442656" x2="511.080485021" y1="440.654864136" y2="444.341045253" /><line stroke="rgb(0%,0%,0%)" x1="512.007442656" x2="513.012749691" y1="440.654864136" y2="434.760403926" /><line stroke="rgb(0%,0%,0%)" x1="513.926014194" x2="514.012355231" y1="422.136186208" y2="422.934312998" /><line stroke="rgb(0%,0%,0%)" x1="513.926014194" x2="513.811396207" y1="422.136186208" y2="413.721225664" /><line stroke="rgb(0%,0%,0%)" x1="505.937591168" x2="510.439347345" y1="392.312370371" y2="402.881485482" /><line stroke="rgb(0%,0%,0%)" x1="492.906022185" x2="498.013185021" y1="373.649759742" y2="379.735665184" /><line stroke="rgb(0%,0%,0%)" x1="489.937182464" x2="492.906022185" y1="370.112063643" y2="373.649759742" /><line stroke="rgb(0%,0%,0%)" x1="489.937182464" x2="479.997925046" y1="370.112063643" y2="361.387230435" /><line stroke="rgb(0%,0%,0%)" x1="479.997925046" x2="478.779160292" y1="361.387230435" y2="359.527575136" /><line stroke="rgb(0%,0%,0%)" x1="505.780921099" x2="502.119457917" y1="392.070031656" y2="386.138903495" /><line stroke="rgb(0%,0%,0%)" x1="502.119457917" x2="498.539052782" y1="386.138903495" y2="380.433402623" /><line stroke="rgb(0%,0%,0%)" x1="514.282987555" x2="514.093379922" y1="463.208167987" y2="456.197639075" /><line stroke="rgb(0%,0%,0%)" x1="513.609929212" x2="511.080485021" y1="452.423950598" y2="444.341045253" /><line stroke="rgb(0%,0%,0%)" x1="513.012749691" x2="514.012355231" y1="434.760403926" y2="422.934312998" /><line stroke="rgb(0%,0%,0%)" x1="513.811396207" x2="513.831433196" y1="413.721225664" y2="410.88643323" /><line stroke="rgb(0%,0%,0%)" x1="513.831433196" x2="513.691559151" y1="410.88643323" y2="410.48625324" /><line stroke="rgb(0%,0%,0%)" x1="513.691559151" x2="510.439347345" y1="410.48625324" y2="402.881485482" /><line stroke="rgb(0%,0%,0%)" x1="498.539052782" x2="498.013185021" y1="380.433402623" y2="379.735665184" /><line stroke="rgb(0%,0%,0%)" x1="394.752031323" x2="394.764473499" y1="277.198910907" y2="277.209162208" /><line stroke="rgb(0%,0%,0%)" x1="416.624634876" x2="411.252891411" y1="289.487783533" y2="286.702618731" /><line stroke="rgb(0%,0%,0%)" x1="427.59825391" x2="429.129547567" y1="298.37995262" y2="300.420171649" /><line stroke="rgb(0%,0%,0%)" x1="422.64300991" x2="426.795597475" y1="294.906415655" y2="297.387399684" /><line stroke="rgb(0%,0%,0%)" x1="422.64300991" x2="420.830376712" y1="294.906415655" y2="292.984477302" /><line stroke="rgb(0%,0%,0%)" x1="420.830376712" x2="416.624634876" y1="292.984477302" y2="289.487783533" /><line stroke="rgb(0%,0%,0%)" x1="353.097924486" x2="352.484828" y1="256.021256986" y2="255.863043148" /><line stroke="rgb(0%,0%,0%)" x1="375.453829919" x2="380.265039056" y1="264.603151285" y2="265.969953617" /><line stroke="rgb(0%,0%,0%)" x1="375.453829919" x2="372.481437401" y1="264.603151285" y2="263.306182345" /><line stroke="rgb(0%,0%,0%)" x1="380.265039056" x2="385.372732741" y1="265.969953617" y2="269.291346042" /><line stroke="rgb(0%,0%,0%)" x1="394.743155083" x2="391.63971036" y1="277.190181707" y2="274.111272114" /><line stroke="rgb(0%,0%,0%)" x1="394.752031323" x2="394.743155083" y1="277.198910907" y2="277.190181707" /><line stroke="rgb(0%,0%,0%)" x1="411.252891411" x2="405.519400057" y1="286.702618731" y2="283.643014926" /><line stroke="rgb(0%,0%,0%)" x1="405.519400057" x2="402.941100494" y1="283.643014926" y2="282.296856871" /><line stroke="rgb(0%,0%,0%)" x1="402.941100494" x2="394.764473499" y1="282.296856871" y2="277.209162208" /><line stroke="rgb(0%,0%,0%)" x1="427.59825391" x2="426.795597475" y1="298.37995262" y2="297.387399684" /><line stroke="rgb(0%,0%,0%)" x1="270.254484234" x2="270.310237985" y1="65.274250766" y2="64.5908504769" /><line stroke="rgb(0%,0%,0%)" x1="359.240264634" x2="353.6703293" y1="258.601683178" y2="256.302426493" /><line stroke="rgb(0%,0%,0%)" x1="353.097924486" x2="353.6703293" y1="256.021256986" y2="256.302426493" /><line stroke="rgb(0%,0%,0%)" x1="372.481437401" x2="368.176405381" y1="263.306182345" y2="262.006501965" /><line stroke="rgb(0%,0%,0%)" x1="368.176405381" x2="364.47278587" y1="262.006501965" y2="260.261168171" /><line stroke="rgb(0%,0%,0%)" x1="364.47278587" x2="359.240264634" y1="260.261168171" y2="258.601683178" /><line stroke="rgb(0%,0%,0%)" x1="391.63971036" x2="385.372732741" y1="274.111272114" y2="269.291346042" /><line stroke="rgb(0%,0%,0%)" x1="272.652295212" x2="273.173530457" y1="66.910064866" y2="67.2272817194" /><line stroke="rgb(0%,0%,0%)" x1="270.254484234" x2="272.652295212" y1="65.274250766" y2="66.910064866" /><line stroke="rgb(0%,0%,0%)" x1="268.318739639" x2="270.310237985" y1="60.3618684071" y2="64.5908504769" /><line stroke="rgb(0%,0%,0%)" x1="289.082077556" x2="289.79512674" y1="72.6586096567" y2="73.0178144886" /><line stroke="rgb(0%,0%,0%)" x1="289.79512674" x2="289.977648636" y1="73.0178144886" y2="73.9639477871" /><line stroke="rgb(0%,0%,0%)" x1="284.720909822" x2="293.097502215" y1="50.0783809192" y2="51.2900288425" /><line stroke="rgb(0%,0%,0%)" x1="323.490341958" x2="325.077371108" y1="252.561073604" y2="253.488950665" /><line stroke="rgb(0%,0%,0%)" x1="330.279406526" x2="325.077371108" y1="252.317544646" y2="253.488950665" /><line stroke="rgb(0%,0%,0%)" x1="323.490341958" x2="323.000066113" y1="252.561073604" y2="253.468102988" /><line stroke="rgb(0%,0%,0%)" x1="323.000066113" x2="318.569010668" y1="253.468102988" y2="252.528251945" /><line stroke="rgb(0%,0%,0%)" x1="318.569010668" x2="315.704586255" y1="252.528251945" y2="252.250035123" /><line stroke="rgb(0%,0%,0%)" x1="321.037459714" x2="322.37253741" y1="160.327302416" y2="158.71245057" /><line stroke="rgb(0%,0%,0%)" x1="321.037459714" x2="318.463434393" y1="160.327302416" y2="161.952251526" /><line stroke="rgb(0%,0%,0%)" x1="323.472725392" x2="323.479626499" y1="137.704435176" y2="135.182239712" /><line stroke="rgb(0%,0%,0%)" x1="323.741085982" x2="326.47735916" y1="95.2672216382" y2="103.351745846" /><line stroke="rgb(0%,0%,0%)" x1="323.741085982" x2="322.952818744" y1="95.2672216382" y2="93.8029051344" /><line stroke="rgb(0%,0%,0%)" x1="319.460520759" x2="321.664539837" y1="72.4638236951" y2="82.9825328477" /><line stroke="rgb(0%,0%,0%)" x1="318.365761581" x2="319.460520759" y1="70.193292886" y2="72.4638236951" /><line stroke="rgb(0%,0%,0%)" x1="318.365761581" x2="317.318377161" y1="70.193292886" y2="68.1481933808" /><line stroke="rgb(0%,0%,0%)" x1="317.318377161" x2="313.780091101" y1="68.1481933808" y2="62.9990574857" /><line stroke="rgb(0%,0%,0%)" x1="305.700355853" x2="310.01303261" y1="55.600926415" y2="59.2466700624" /><line stroke="rgb(0%,0%,0%)" x1="333.866990565" x2="340.423350135" y1="252.931948273" y2="252.963339901" /><line stroke="rgb(0%,0%,0%)" x1="322.091729047" x2="322.37253741" y1="150.522226331" y2="158.71245057" /><line stroke="rgb(0%,0%,0%)" x1="322.091729047" x2="323.472725392" y1="150.522226331" y2="137.704435176" /><line stroke="rgb(0%,0%,0%)" x1="327.791429758" x2="324.378073813" y1="123.376569556" y2="133.168772407" /><line stroke="rgb(0%,0%,0%)" x1="328.31080199" x2="327.791429758" y1="121.36163524" y2="123.376569556" /><line stroke="rgb(0%,0%,0%)" x1="328.31080199" x2="328.980146301" y1="121.36163524" y2="115.277689631" /><line stroke="rgb(0%,0%,0%)" x1="328.980146301" x2="328.945339588" y1="115.277689631" y2="109.713878959" /><line stroke="rgb(0%,0%,0%)" x1="328.945339588" x2="326.47735916" y1="109.713878959" y2="103.351745846" /><line stroke="rgb(0%,0%,0%)" x1="352.484828" x2="349.713513469" y1="255.863043148" y2="255.181420106" /><line stroke="rgb(0%,0%,0%)" x1="349.713513469" x2="341.288749226" y1="255.181420106" y2="253.224285686" /><line stroke="rgb(0%,0%,0%)" x1="341.288749226" x2="340.423350135" y1="253.224285686" y2="252.963339901" /><line stroke="rgb(0%,0%,0%)" x1="269.030951314" x2="269.831810734" y1="58.7611195457" y2="58.1758870129" /><line stroke="rgb(0%,0%,0%)" x1="269.030951314" x2="268.318739639" y1="58.7611195457" y2="60.3618684071" /><line stroke="rgb(0%,0%,0%)" x1="272.32934554" x2="273.491613734" y1="54.4345950966" y2="54.1821623379" /><line stroke="rgb(0%,0%,0%)" x1="272.32934554" x2="270.954447447" y1="54.4345950966" y2="56.093110944" /><line stroke="rgb(0%,0%,0%)" x1="278.110607029" x2="273.491613734" y1="51.4348493932" y2="54.1821623379" /><line stroke="rgb(0%,0%,0%)" x1="284.720909822" x2="278.110607029" y1="50.0783809192" y2="51.4348493932" /><line stroke="rgb(0%,0%,0%)" x1="293.221979757" x2="292.422679365" y1="241.838754515" y2="241.108489028" /><line stroke="rgb(0%,0%,0%)" x1="299.328912878" x2="291.439928507" y1="174.530463127" y2="177.731220711" /><line stroke="rgb(0%,0%,0%)" x1="290.359015063" x2="291.439928507" y1="177.871325797" y2="177.731220711" /><line stroke="rgb(0%,0%,0%)" x1="285.917023504" x2="288.906254026" y1="95.7705482572" y2="93.1627685081" /><line stroke="rgb(0%,0%,0%)" x1="288.906254026" x2="290.010527031" y1="93.1627685081" y2="90.0167955889" /><line stroke="rgb(0%,0%,0%)" x1="291.074492052" x2="290.963990003" y1="83.4076240381" y2="86.0029581553" /><line stroke="rgb(0%,0%,0%)" x1="290.963990003" x2="290.010527031" y1="86.0029581553" y2="90.0167955889" /><line stroke="rgb(0%,0%,0%)" x1="291.074492052" x2="291.310536707" y1="83.4076240381" y2="80.8113313855" /><line stroke="rgb(0%,0%,0%)" x1="289.977648636" x2="291.310536707" y1="73.9639477871" y2="80.8113313855" /><line stroke="rgb(0%,0%,0%)" x1="302.195598166" x2="295.829259809" y1="53.8023835449" y2="51.4182398254" /><line stroke="rgb(0%,0%,0%)" x1="295.829259809" x2="293.097502215" y1="51.4182398254" y2="51.2900288425" /><line stroke="rgb(0%,0%,0%)" x1="305.700355853" x2="302.195598166" y1="55.600926415" y2="53.8023835449" /><line stroke="rgb(0%,0%,0%)" x1="310.359102002" x2="310.281769677" y1="253.173629949" y2="253.164592387" /><line stroke="rgb(0%,0%,0%)" x1="310.454037147" x2="310.359102002" y1="253.158559048" y2="253.173629949" /><line stroke="rgb(0%,0%,0%)" x1="305.104101292" x2="310.281769677" y1="252.701788303" y2="253.164592387" /><line stroke="rgb(0%,0%,0%)" x1="305.104101292" x2="293.221979757" y1="252.701788303" y2="241.838754515" /><line stroke="rgb(0%,0%,0%)" x1="312.914212108" x2="304.282996649" y1="168.634091613" y2="174.093544694" /><line stroke="rgb(0%,0%,0%)" x1="299.328912878" x2="303.539396994" y1="174.530463127" y2="174.183251644" /><line stroke="rgb(0%,0%,0%)" x1="303.539396994" x2="304.282996649" y1="174.183251644" y2="174.093544694" /><line stroke="rgb(0%,0%,0%)" x1="313.780091101" x2="310.01303261" y1="62.9990574857" y2="59.2466700624" /><line stroke="rgb(0%,0%,0%)" x1="310.50522846" x2="310.454037147" y1="253.155447645" y2="253.158559048" /><line stroke="rgb(0%,0%,0%)" x1="315.704586255" x2="310.50522846" y1="252.250035123" y2="253.155447645" /><line stroke="rgb(0%,0%,0%)" x1="312.914212108" x2="318.463434393" y1="168.634091613" y2="161.952251526" /><line stroke="rgb(0%,0%,0%)" x1="323.479626499" x2="323.544053794" y1="135.182239712" y2="134.801192511" /><line stroke="rgb(0%,0%,0%)" x1="323.544053794" x2="323.829996895" y1="134.801192511" y2="134.412685983" /><line stroke="rgb(0%,0%,0%)" x1="323.829996895" x2="324.378073813" y1="134.412685983" y2="133.168772407" /><line stroke="rgb(0%,0%,0%)" x1="322.952818744" x2="323.16797553" y1="93.8029051344" y2="90.8791718969" /><line stroke="rgb(0%,0%,0%)" x1="323.16797553" x2="322.929015844" y1="90.8791718969" y2="89.5106875031" /><line stroke="rgb(0%,0%,0%)" x1="322.929015844" x2="321.664539837" y1="89.5106875031" y2="82.9825328477" /><line stroke="rgb(0%,0%,0%)" x1="333.866990565" x2="330.279406526" y1="252.931948273" y2="252.317544646" /><line stroke="rgb(0%,0%,0%)" x1="253.463013786" x2="252.352747129" y1="242.847198055" y2="243.354263797" /><line stroke="rgb(0%,0%,0%)" x1="253.463013786" x2="256.467564902" y1="242.847198055" y2="240.983742484" /><line stroke="rgb(0%,0%,0%)" x1="266.803933432" x2="266.417931752" y1="237.779416512" y2="237.926680679" /><line stroke="rgb(0%,0%,0%)" x1="266.803933432" x2="267.023970215" y1="237.779416512" y2="237.734082522" /><line stroke="rgb(0%,0%,0%)" x1="260.992428881" x2="262.035999726" y1="146.053473498" y2="152.138866981" /><line stroke="rgb(0%,0%,0%)" x1="260.992428881" x2="260.350004929" y1="146.053473498" y2="142.15736841" /><line stroke="rgb(0%,0%,0%)" x1="259.173959846" x2="259.411411026" y1="131.175052754" y2="135.013478682" /><line stroke="rgb(0%,0%,0%)" x1="259.411411026" x2="259.464299125" y1="135.013478682" y2="139.705095832" /><line stroke="rgb(0%,0%,0%)" x1="259.173959846" x2="259.957923709" y1="131.175052754" y2="130.094211829" /><line stroke="rgb(0%,0%,0%)" x1="262.732097638" x2="259.957923709" y1="126.90486399" y2="130.094211829" /><line stroke="rgb(0%,0%,0%)" x1="266.417931752" x2="263.802856153" y1="237.926680679" y2="239.629188983" /><line stroke="rgb(0%,0%,0%)" x1="277.091867752" x2="267.779267597" y1="237.503949833" y2="237.598521349" /><line stroke="rgb(0%,0%,0%)" x1="267.023970215" x2="267.779267597" y1="237.734082522" y2="237.598521349" /><line stroke="rgb(0%,0%,0%)" x1="266.910335648" x2="268.191822391" y1="163.305129769" y2="167.290044441" /><line stroke="rgb(0%,0%,0%)" x1="268.191822391" x2="275.808341761" y1="167.290044441" y2="177.320171812" /><line stroke="rgb(0%,0%,0%)" x1="262.035999726" x2="266.910335648" y1="152.138866981" y2="163.305129769" /><line stroke="rgb(0%,0%,0%)" x1="273.369234362" x2="270.991123149" y1="119.599136562" y2="120.792957089" /><line stroke="rgb(0%,0%,0%)" x1="270.991123149" x2="262.732097638" y1="120.792957089" y2="126.90486399" /><line stroke="rgb(0%,0%,0%)" x1="273.369234362" x2="274.528207316" y1="119.599136562" y2="114.535528471" /><line stroke="rgb(0%,0%,0%)" x1="273.173530457" x2="273.99772977" y1="67.2272817194" y2="67.9458179646" /><line stroke="rgb(0%,0%,0%)" x1="270.954447447" x2="269.831810734" y1="56.093110944" y2="58.1758870129" /><line stroke="rgb(0%,0%,0%)" x1="288.432543974" x2="284.137896112" y1="239.926362894" y2="238.565180245" /><line stroke="rgb(0%,0%,0%)" x1="280.049314643" x2="277.091867752" y1="237.192972638" y2="237.503949833" /><line stroke="rgb(0%,0%,0%)" x1="284.137896112" x2="280.049314643" y1="238.565180245" y2="237.192972638" /><line stroke="rgb(0%,0%,0%)" x1="275.999281964" x2="275.808341761" y1="177.510763871" y2="177.320171812" /><line stroke="rgb(0%,0%,0%)" x1="275.999281964" x2="276.163771843" y1="177.510763871" y2="177.431898054" /><line stroke="rgb(0%,0%,0%)" x1="276.163771843" x2="283.488890087" y1="177.431898054" y2="180.090676032" /><line stroke="rgb(0%,0%,0%)" x1="283.488890087" x2="286.605076488" y1="180.090676032" y2="179.832827898" /><line stroke="rgb(0%,0%,0%)" x1="275.988545617" x2="274.528207316" y1="108.74255283" y2="114.535528471" /><line stroke="rgb(0%,0%,0%)" x1="278.264767637" x2="275.988545617" y1="105.069131346" y2="108.74255283" /><line stroke="rgb(0%,0%,0%)" x1="285.917023504" x2="278.264767637" y1="95.7705482572" y2="105.069131346" /><line stroke="rgb(0%,0%,0%)" x1="273.99772977" x2="289.082077556" y1="67.9458179646" y2="72.6586096567" /><line stroke="rgb(0%,0%,0%)" x1="288.432543974" x2="292.422679365" y1="239.926362894" y2="241.108489028" /><line stroke="rgb(0%,0%,0%)" x1="286.605076488" x2="290.359015063" y1="179.832827898" y2="177.871325797" /><line stroke="rgb(0%,0%,0%)" x1="225.48862147" x2="221.511889486" y1="254.070848472" y2="255.728372796" /><line stroke="rgb(0%,0%,0%)" x1="226.198198593" x2="225.48862147" y1="253.48867704" y2="254.070848472" /><line stroke="rgb(0%,0%,0%)" x1="226.198198593" x2="230.573702059" y1="253.48867704" y2="251.24788045" /><line stroke="rgb(0%,0%,0%)" x1="235.134845502" x2="230.573702059" y1="249.277605992" y2="251.24788045" /><line stroke="rgb(0%,0%,0%)" x1="236.428123626" x2="235.134845502" y1="248.792558123" y2="249.277605992" /><line stroke="rgb(0%,0%,0%)" x1="240.224687786" x2="236.428123626" y1="248.210203939" y2="248.792558123" /><line stroke="rgb(0%,0%,0%)" x1="240.224687786" x2="245.236242481" y1="248.210203939" y2="245.632870547" /><line stroke="rgb(0%,0%,0%)" x1="248.422801722" x2="245.236242481" y1="244.779342188" y2="245.632870547" /><line stroke="rgb(0%,0%,0%)" x1="252.352747129" x2="248.422801722" y1="243.354263797" y2="244.779342188" /><line stroke="rgb(0%,0%,0%)" x1="260.356197413" x2="256.467564902" y1="239.807394889" y2="240.983742484" /><line stroke="rgb(0%,0%,0%)" x1="263.802856153" x2="260.356197413" y1="239.629188983" y2="239.807394889" /><line stroke="rgb(0%,0%,0%)" x1="259.464299125" x2="259.627058939" y1="139.705095832" y2="140.413110483" /><line stroke="rgb(0%,0%,0%)" x1="259.627058939" x2="260.350004929" y1="140.413110483" y2="142.15736841" /><line stroke="rgb(0%,0%,0%)" x1="153.089200465" x2="154.402275582" y1="283.93105954" y2="283.290505363" /><line stroke="rgb(0%,0%,0%)" x1="153.089200465" x2="150.466436425" y1="283.93105954" y2="285.445721027" /><line stroke="rgb(0%,0%,0%)" x1="190.04188119" x2="198.02812688" y1="273.215161796" y2="271.086332349" /><line stroke="rgb(0%,0%,0%)" x1="206.085994656" x2="201.925448021" y1="265.717144709" y2="268.166729213" /><line stroke="rgb(0%,0%,0%)" x1="201.925448021" x2="198.02812688" y1="268.166729213" y2="271.086332349" /><line stroke="rgb(0%,0%,0%)" x1="206.085994656" x2="211.625450524" y1="265.717144709" y2="261.283437799" /><line stroke="rgb(0%,0%,0%)" x1="213.254476626" x2="211.625450524" y1="260.230824649" y2="261.283437799" /><line stroke="rgb(0%,0%,0%)" x1="214.439310078" x2="213.254476626" y1="259.528551465" y2="260.230824649" /><line stroke="rgb(0%,0%,0%)" x1="214.439310078" x2="219.631428939" y1="259.528551465" y2="256.643852016" /><line stroke="rgb(0%,0%,0%)" x1="221.511889486" x2="219.631428939" y1="255.728372796" y2="256.643852016" /><line stroke="rgb(0%,0%,0%)" x1="150.466436425" x2="147.143710294" y1="285.445721027" y2="288.212975339" /><line stroke="rgb(0%,0%,0%)" x1="166.387632581" x2="154.402275582" y1="279.479732941" y2="283.290505363" /><line stroke="rgb(0%,0%,0%)" x1="190.04188119" x2="184.438453281" y1="273.215161796" y2="274.083845207" /><line stroke="rgb(0%,0%,0%)" x1="131.065410376" x2="128.595717467" y1="305.630687394" y2="307.632844006" /><line stroke="rgb(0%,0%,0%)" x1="147.143710294" x2="134.709332546" y1="288.212975339" y2="300.295122291" /><line stroke="rgb(0%,0%,0%)" x1="184.438453281" x2="177.223227078" y1="274.083845207" y2="276.239931507" /><line stroke="rgb(0%,0%,0%)" x1="72.5059702868" x2="71.2602911345" y1="312.66013323" y2="313.318496541" /><line stroke="rgb(0%,0%,0%)" x1="86.0921593385" x2="85.4158436292" y1="307.231020374" y2="307.393448887" /><line stroke="rgb(0%,0%,0%)" x1="86.0921593385" x2="86.2745267849" y1="307.231020374" y2="307.159148562" /><line stroke="rgb(0%,0%,0%)" x1="86.2745267849" x2="88.5596401385" y1="307.159148562" y2="306.625791846" /><line stroke="rgb(0%,0%,0%)" x1="101.900882978" x2="88.5596401385" y1="304.521539732" y2="306.625791846" /><line stroke="rgb(0%,0%,0%)" x1="112.986318707" x2="111.162972078" y1="303.928989829" y2="303.752498895" /><line stroke="rgb(0%,0%,0%)" x1="105.540417252" x2="111.162972078" y1="304.690469309" y2="303.752498895" /><line stroke="rgb(0%,0%,0%)" x1="118.865620686" x2="112.986318707" y1="304.617803047" y2="303.928989829" /><line stroke="rgb(0%,0%,0%)" x1="126.81708685" x2="124.552385227" y1="309.259112853" y2="307.497807596" /><line stroke="rgb(0%,0%,0%)" x1="121.039625374" x2="124.552385227" y1="304.782154654" y2="307.497807596" /><line stroke="rgb(0%,0%,0%)" x1="118.865620686" x2="121.039625374" y1="304.617803047" y2="304.782154654" /><line stroke="rgb(0%,0%,0%)" x1="128.595717467" x2="126.81708685" y1="307.632844006" y2="309.259112853" /><line stroke="rgb(0%,0%,0%)" x1="134.709332546" x2="131.065410376" y1="300.295122291" y2="305.630687394" /><line stroke="rgb(0%,0%,0%)" x1="62.6000515527" x2="60.8097246963" y1="317.282879412" y2="318.12266668" /><line stroke="rgb(0%,0%,0%)" x1="71.2602911345" x2="65.1298566106" y1="313.318496541" y2="317.194393877" /><line stroke="rgb(0%,0%,0%)" x1="79.8917860186" x2="72.5059702868" y1="310.536229264" y2="312.66013323" /><line stroke="rgb(0%,0%,0%)" x1="85.4158436292" x2="79.8917860186" y1="307.393448887" y2="310.536229264" /><line stroke="rgb(0%,0%,0%)" x1="105.540417252" x2="101.900882978" y1="304.690469309" y2="304.521539732" /><line stroke="rgb(0%,0%,0%)" x1="13.5931464038" x2="13.5841558278" y1="420.426700625" y2="420.474593225" /><line stroke="rgb(0%,0%,0%)" x1="13.5841558278" x2="13.1732024829" y1="420.474593225" y2="425.333939279" /><line stroke="rgb(0%,0%,0%)" x1="13.1732024829" x2="12.2846272048" y1="425.333939279" y2="431.026859854" /><line stroke="rgb(0%,0%,0%)" x1="13.5931464038" x2="13.662826036" y1="420.426700625" y2="420.338174941" /><line stroke="rgb(0%,0%,0%)" x1="25.4811238106" x2="21.3687633994" y1="458.168622029" y2="456.539650939" /><line stroke="rgb(0%,0%,0%)" x1="16.2810949209" x2="17.6759809148" y1="452.3852715" y2="454.531666509" /><line stroke="rgb(0%,0%,0%)" x1="17.6759809148" x2="21.3687633994" y1="454.531666509" y2="456.539650939" /><line stroke="rgb(0%,0%,0%)" x1="39.3569776019" x2="36.9326396089" y1="341.3148668" y2="346.569403386" /><line stroke="rgb(0%,0%,0%)" x1="45.3377043527" x2="39.3569776019" y1="330.757367649" y2="341.3148668" /><line stroke="rgb(0%,0%,0%)" x1="45.3377043527" x2="45.8232890928" y1="330.757367649" y2="330.143098006" /><line stroke="rgb(0%,0%,0%)" x1="50.5024285058" x2="46.4598973794" y1="325.048551504" y2="329.034584759" /><line stroke="rgb(0%,0%,0%)" x1="53.4157613984" x2="50.5024285058" y1="323.011006048" y2="325.048551504" /><line stroke="rgb(0%,0%,0%)" x1="53.4157613984" x2="56.5465352229" y1="323.011006048" y2="320.510093919" /><line stroke="rgb(0%,0%,0%)" x1="60.8097246963" x2="56.5465352229" y1="318.12266668" y2="320.510093919" /><line stroke="rgb(0%,0%,0%)" x1="65.1298566106" x2="62.6000515527" y1="317.194393877" y2="317.282879412" /><line stroke="rgb(0%,0%,0%)" x1="13.1064174996" x2="12.6777850886" y1="443.444731254" y2="442.225884382" /><line stroke="rgb(0%,0%,0%)" x1="13.1064174996" x2="16.2810949209" y1="443.444731254" y2="452.3852715" /><line stroke="rgb(0%,0%,0%)" x1="12.2846272048" x2="12.6777850886" y1="431.026859854" y2="442.225884382" /><line stroke="rgb(0%,0%,0%)" x1="18.9746261361" x2="13.662826036" y1="413.695114823" y2="420.338174941" /><line stroke="rgb(0%,0%,0%)" x1="21.9924290015" x2="18.9746261361" y1="410.484587536" y2="413.695114823" /><line stroke="rgb(0%,0%,0%)" x1="21.9924290015" x2="22.602668188" y1="410.484587536" y2="409.083890539" /><line stroke="rgb(0%,0%,0%)" x1="23.6287646341" x2="22.602668188" y1="407.98558102" y2="409.083890539" /><line stroke="rgb(0%,0%,0%)" x1="21.0921765876" x2="22.7238777322" y1="401.707807493" y2="405.539492794" /><line stroke="rgb(0%,0%,0%)" x1="22.7238777322" x2="23.4523868051" y1="405.539492794" y2="407.340162119" /><line stroke="rgb(0%,0%,0%)" x1="21.4769345857" x2="21.0921765876" y1="398.283949708" y2="401.707807493" /><line stroke="rgb(0%,0%,0%)" x1="22.4571846399" x2="21.4769345857" y1="394.922617082" y2="398.283949708" /><line stroke="rgb(0%,0%,0%)" x1="22.4571846399" x2="24.3521909372" y1="394.922617082" y2="387.911431389" /><line stroke="rgb(0%,0%,0%)" x1="26.4494334938" x2="24.8604764524" y1="382.778147439" y2="386.427629501" /><line stroke="rgb(0%,0%,0%)" x1="27.2948633288" x2="28.3164089299" y1="379.479647086" y2="374.733863699" /><line stroke="rgb(0%,0%,0%)" x1="23.4523868051" x2="23.6287646341" y1="407.340162119" y2="407.98558102" /><line stroke="rgb(0%,0%,0%)" x1="24.8604764524" x2="24.3521909372" y1="386.427629501" y2="387.911431389" /><line stroke="rgb(0%,0%,0%)" x1="27.2948633288" x2="26.4494334938" y1="379.479647086" y2="382.778147439" /><line stroke="rgb(0%,0%,0%)" x1="29.2343690507" x2="28.3164089299" y1="372.021511142" y2="374.733863699" /><line stroke="rgb(0%,0%,0%)" x1="30.2228692931" x2="29.2343690507" y1="370.113530815" y2="372.021511142" /><line stroke="rgb(0%,0%,0%)" x1="30.6356230247" x2="30.2228692931" y1="365.784977694" y2="370.113530815" /><line stroke="rgb(0%,0%,0%)" x1="32.8678568113" x2="30.6356230247" y1="359.435921685" y2="365.784977694" /><line stroke="rgb(0%,0%,0%)" x1="36.9326396089" x2="32.8678568113" y1="346.569403386" y2="359.435921685" /><line stroke="rgb(0%,0%,0%)" x1="511.310746892" x2="509.029696114" y1="526.092443882" y2="530.501481354" /><line stroke="rgb(0%,0%,0%)" x1="512.09918329" x2="513.475546" y1="482.124365565" y2="486.407024488" /><line stroke="rgb(0%,0%,0%)" x1="514.561667848" x2="514.618191503" y1="471.383782298" y2="467.63344806" /><line stroke="rgb(0%,0%,0%)" x1="471.328633267" x2="465.39739306" y1="344.827939442" y2="337.290133422" /><line stroke="rgb(0%,0%,0%)" x1="499.655614171" x2="494.842988098" y1="547.785125783" y2="552.811071115" /><line stroke="rgb(0%,0%,0%)" x1="499.655614171" x2="500.124128584" y1="547.785125783" y2="547.104230277" /><line stroke="rgb(0%,0%,0%)" x1="500.124128584" x2="501.276210864" y1="547.104230277" y2="545.238278676" /><line stroke="rgb(0%,0%,0%)" x1="501.276210864" x2="509.029696114" y1="545.238278676" y2="530.501481354" /><line stroke="rgb(0%,0%,0%)" x1="511.310746892" x2="515.425935961" y1="526.092443882" y2="514.290708394" /><line stroke="rgb(0%,0%,0%)" x1="515.425935961" x2="515.864259902" y1="514.290708394" y2="510.715560985" /><line stroke="rgb(0%,0%,0%)" x1="515.864259902" x2="515.788168894" y1="510.715560985" y2="500.594687691" /><line stroke="rgb(0%,0%,0%)" x1="515.788168894" x2="515.622096081" y1="500.594687691" y2="500.036553209" /><line stroke="rgb(0%,0%,0%)" x1="515.221188226" x2="515.622096081" y1="494.699533603" y2="500.036553209" /><line stroke="rgb(0%,0%,0%)" x1="515.221188226" x2="513.475546" y1="494.699533603" y2="486.407024488" /><line stroke="rgb(0%,0%,0%)" x1="512.09918329" x2="514.561667848" y1="482.124365565" y2="471.383782298" /><line stroke="rgb(0%,0%,0%)" x1="449.873423782" x2="451.946309819" y1="321.021681579" y2="323.344612423" /><line stroke="rgb(0%,0%,0%)" x1="457.780362413" x2="460.985324477" y1="329.534035703" y2="332.89208478" /><line stroke="rgb(0%,0%,0%)" x1="457.780362413" x2="455.354148091" y1="329.534035703" y2="326.724277615" /><line stroke="rgb(0%,0%,0%)" x1="455.354148091" x2="454.066152801" y1="326.724277615" y2="325.36866194" /><line stroke="rgb(0%,0%,0%)" x1="454.066152801" x2="451.946309819" y1="325.36866194" y2="323.344612423" /><line stroke="rgb(0%,0%,0%)" x1="476.658155039" x2="478.779160292" y1="355.99936153" y2="359.527575136" /><line stroke="rgb(0%,0%,0%)" x1="476.658155039" x2="473.571707738" y1="355.99936153" y2="347.949387731" /><line stroke="rgb(0%,0%,0%)" x1="473.571707738" x2="471.328633267" y1="347.949387731" y2="344.827939442" /><line stroke="rgb(0%,0%,0%)" x1="481.395927855" x2="483.485420577" y1="568.028152178" y2="565.480872684" /><line stroke="rgb(0%,0%,0%)" x1="483.485420577" x2="487.117325783" y1="565.480872684" y2="560.954717354" /><line stroke="rgb(0%,0%,0%)" x1="487.117325783" x2="487.711726008" y1="560.954717354" y2="560.473810092" /><line stroke="rgb(0%,0%,0%)" x1="487.711726008" x2="494.842988098" y1="560.473810092" y2="552.811071115" /><line stroke="rgb(0%,0%,0%)" x1="514.618191503" x2="514.237883441" y1="467.63344806" y2="465.365291659" /><line stroke="rgb(0%,0%,0%)" x1="514.237883441" x2="514.282987555" y1="465.365291659" y2="463.208167987" /><line stroke="rgb(0%,0%,0%)" x1="424.397514048" x2="421.054169565" y1="635.224623971" y2="637.110936314" /><line stroke="rgb(0%,0%,0%)" x1="431.381551862" x2="433.01806972" y1="629.289368149" y2="628.015909042" /><line stroke="rgb(0%,0%,0%)" x1="441.842789085" x2="435.87389674" y1="313.453308993" y2="308.415257135" /><line stroke="rgb(0%,0%,0%)" x1="432.7696958" x2="435.87389674" y1="304.83109686" y2="308.415257135" /><line stroke="rgb(0%,0%,0%)" x1="432.7696958" x2="430.48354835" y1="304.83109686" y2="302.139044229" /><line stroke="rgb(0%,0%,0%)" x1="430.48354835" x2="429.129547567" y1="302.139044229" y2="300.420171649" /><line stroke="rgb(0%,0%,0%)" x1="449.873423782" x2="441.842789085" y1="321.021681579" y2="313.453308993" /><line stroke="rgb(0%,0%,0%)" x1="465.39739306" x2="463.492578141" y1="337.290133422" y2="336.344774997" /><line stroke="rgb(0%,0%,0%)" x1="463.492578141" x2="460.985324477" y1="336.344774997" y2="332.89208478" /><line stroke="rgb(0%,0%,0%)" x1="396.416500392" x2="389.087777682" y1="650.23461094" y2="654.080910323" /><line stroke="rgb(0%,0%,0%)" x1="396.416500392" x2="398.081650161" y1="650.23461094" y2="648.835995326" /><line stroke="rgb(0%,0%,0%)" x1="398.081650161" x2="402.894766488" y1="648.835995326" y2="645.353781673" /><line stroke="rgb(0%,0%,0%)" x1="402.894766488" x2="404.064770315" y1="645.353781673" y2="645.025414831" /><line stroke="rgb(0%,0%,0%)" x1="414.21342884" x2="404.064770315" y1="641.238541848" y2="645.025414831" /><line stroke="rgb(0%,0%,0%)" x1="414.21342884" x2="418.02029234" y1="641.238541848" y2="639.315566427" /><line stroke="rgb(0%,0%,0%)" x1="418.02029234" x2="421.054169565" y1="639.315566427" y2="637.110936314" /><line stroke="rgb(0%,0%,0%)" x1="424.397514048" x2="427.330307491" y1="635.224623971" y2="633.147214185" /><line stroke="rgb(0%,0%,0%)" x1="427.330307491" x2="431.381551862" y1="633.147214185" y2="629.289368149" /><line stroke="rgb(0%,0%,0%)" x1="319.719268816" x2="318.875203351" y1="870.826244382" y2="870.440795148" /><line stroke="rgb(0%,0%,0%)" x1="316.278845882" x2="315.944171567" y1="868.593309693" y2="868.1787698" /><line stroke="rgb(0%,0%,0%)" x1="319.719268816" x2="321.30514408" y1="870.826244382" y2="871.068122718" /><line stroke="rgb(0%,0%,0%)" x1="338.61566609" x2="338.5489806" y1="750.279205454" y2="750.140793618" /><line stroke="rgb(0%,0%,0%)" x1="355.338868346" x2="355.291529143" y1="831.055796353" y2="831.175868325" /><line stroke="rgb(0%,0%,0%)" x1="355.338868346" x2="355.512713238" y1="831.055796353" y2="830.797417257" /><line stroke="rgb(0%,0%,0%)" x1="352.275594201" x2="351.326464364" y1="758.966557585" y2="757.349260149" /><line stroke="rgb(0%,0%,0%)" x1="352.275594201" x2="353.536741748" y1="758.966557585" y2="760.04339266" /><line stroke="rgb(0%,0%,0%)" x1="351.326464364" x2="338.61566609" y1="757.349260149" y2="750.279205454" /><line stroke="rgb(0%,0%,0%)" x1="352.471855193" x2="351.349551984" y1="672.975556235" y2="673.761369192" /><line stroke="rgb(0%,0%,0%)" x1="352.471855193" x2="353.011221797" y1="672.975556235" y2="672.859427822" /><line stroke="rgb(0%,0%,0%)" x1="359.097207059" x2="359.801812143" y1="668.305554969" y2="667.069139161" /><line stroke="rgb(0%,0%,0%)" x1="362.054381701" x2="362.975151781" y1="823.04478654" y2="820.309561061" /><line stroke="rgb(0%,0%,0%)" x1="360.686612075" x2="360.060617799" y1="778.134606879" y2="773.746589703" /><line stroke="rgb(0%,0%,0%)" x1="360.060617799" x2="358.126296719" y1="773.746589703" y2="767.642958771" /><line stroke="rgb(0%,0%,0%)" x1="365.108627869" x2="359.801812143" y1="663.543981247" y2="667.069139161" /><line stroke="rgb(0%,0%,0%)" x1="365.108627869" x2="369.54419253" y1="663.543981247" y2="662.611518086" /><line stroke="rgb(0%,0%,0%)" x1="373.460864386" x2="372.122933363" y1="659.355005081" y2="661.220373964" /><line stroke="rgb(0%,0%,0%)" x1="373.460864386" x2="374.539584153" y1="659.355005081" y2="659.50339165" /><line stroke="rgb(0%,0%,0%)" x1="369.54419253" x2="370.447112667" y1="662.611518086" y2="661.87271619" /><line stroke="rgb(0%,0%,0%)" x1="370.447112667" x2="372.122933363" y1="661.87271619" y2="661.220373964" /><line stroke="rgb(0%,0%,0%)" x1="374.539584153" x2="375.961150361" y1="659.50339165" y2="658.769190025" /><line stroke="rgb(0%,0%,0%)" x1="375.961150361" x2="379.55421414" y1="658.769190025" y2="657.313624143" /><line stroke="rgb(0%,0%,0%)" x1="379.55421414" x2="386.576906937" y1="657.313624143" y2="655.654363726" /><line stroke="rgb(0%,0%,0%)" x1="386.576906937" x2="389.087777682" y1="655.654363726" y2="654.080910323" /><line stroke="rgb(0%,0%,0%)" x1="316.278845882" x2="318.875203351" y1="868.593309693" y2="870.440795148" /><line stroke="rgb(0%,0%,0%)" x1="321.30514408" x2="323.366781844" y1="871.068122718" y2="872.156001992" /><line stroke="rgb(0%,0%,0%)" x1="332.269865341" x2="327.405348528" y1="866.800025877" y2="870.199247613" /><line stroke="rgb(0%,0%,0%)" x1="329.461893318" x2="326.852858378" y1="677.034671516" y2="677.525013869" /><line stroke="rgb(0%,0%,0%)" x1="335.092369854" x2="332.013436741" y1="677.575782979" y2="678.481881693" /><line stroke="rgb(0%,0%,0%)" x1="329.461893318" x2="332.013436741" y1="677.034671516" y2="678.481881693" /><line stroke="rgb(0%,0%,0%)" x1="335.092369854" x2="338.085397494" y1="677.575782979" y2="677.773365764" /><line stroke="rgb(0%,0%,0%)" x1="332.269865341" x2="340.93155162" y1="866.800025877" y2="861.172645048" /><line stroke="rgb(0%,0%,0%)" x1="340.93155162" x2="345.238922782" y1="861.172645048" y2="858.025705397" /><line stroke="rgb(0%,0%,0%)" x1="338.5489806" x2="334.488976401" y1="750.140793618" y2="745.003246037" /><line stroke="rgb(0%,0%,0%)" x1="334.488976401" x2="329.145889275" y1="745.003246037" y2="737.296276771" /><line stroke="rgb(0%,0%,0%)" x1="340.780219018" x2="340.791832587" y1="677.137644221" y2="677.101367144" /><line stroke="rgb(0%,0%,0%)" x1="340.780219018" x2="340.744134572" y1="677.137644221" y2="677.128416934" /><line stroke="rgb(0%,0%,0%)" x1="338.085397494" x2="340.744134572" y1="677.773365764" y2="677.128416934" /><line stroke="rgb(0%,0%,0%)" x1="340.791832587" x2="342.952942037" y1="677.101367144" y2="675.006691109" /><line stroke="rgb(0%,0%,0%)" x1="342.952942037" x2="346.704895617" y1="675.006691109" y2="675.976789337" /><line stroke="rgb(0%,0%,0%)" x1="345.238922782" x2="348.42942041" y1="858.025705397" y2="854.992026578" /><line stroke="rgb(0%,0%,0%)" x1="348.42942041" x2="348.477332516" y1="854.992026578" y2="854.940050831" /><line stroke="rgb(0%,0%,0%)" x1="349.408377325" x2="348.477332516" y1="849.863285646" y2="854.940050831" /><line stroke="rgb(0%,0%,0%)" x1="349.408377325" x2="354.004211063" y1="849.863285646" y2="844.630523395" /><line stroke="rgb(0%,0%,0%)" x1="354.999813545" x2="354.468167929" y1="838.241579652" y2="843.615078649" /><line stroke="rgb(0%,0%,0%)" x1="354.004211063" x2="354.121702008" y1="844.630523395" y2="844.314288888" /><line stroke="rgb(0%,0%,0%)" x1="354.121702008" x2="354.341101531" y1="844.314288888" y2="844.021237765" /><line stroke="rgb(0%,0%,0%)" x1="354.341101531" x2="354.468167929" y1="844.021237765" y2="843.615078649" /><line stroke="rgb(0%,0%,0%)" x1="354.999813545" x2="355.291529143" y1="838.241579652" y2="831.175868325" /><line stroke="rgb(0%,0%,0%)" x1="357.797671635" x2="357.019841506" y1="766.741736002" y2="765.268349241" /><line stroke="rgb(0%,0%,0%)" x1="353.536741748" x2="357.019841506" y1="760.04339266" y2="765.268349241" /><line stroke="rgb(0%,0%,0%)" x1="346.704895617" x2="347.273145421" y1="675.976789337" y2="675.717788378" /><line stroke="rgb(0%,0%,0%)" x1="347.273145421" x2="351.349551984" y1="675.717788378" y2="673.761369192" /><line stroke="rgb(0%,0%,0%)" x1="353.011221797" x2="359.097207059" y1="672.859427822" y2="668.305554969" /><line stroke="rgb(0%,0%,0%)" x1="355.512713238" x2="359.140641442" y1="830.797417257" y2="827.347320156" /><line stroke="rgb(0%,0%,0%)" x1="359.140641442" x2="362.054381701" y1="827.347320156" y2="823.04478654" /><line stroke="rgb(0%,0%,0%)" x1="362.975151781" x2="365.22060185" y1="820.309561061" y2="812.251108134" /><line stroke="rgb(0%,0%,0%)" x1="365.22060185" x2="364.189960192" y1="812.251108134" y2="802.826739621" /><line stroke="rgb(0%,0%,0%)" x1="364.189960192" x2="364.191054858" y1="802.826739621" y2="802.736505331" /><line stroke="rgb(0%,0%,0%)" x1="363.104170636" x2="363.044549391" y1="798.037777068" y2="797.106535034" /><line stroke="rgb(0%,0%,0%)" x1="363.104170636" x2="364.191054858" y1="798.037777068" y2="802.736505331" /><line stroke="rgb(0%,0%,0%)" x1="363.044549391" x2="362.252083241" y1="797.106535034" y2="795.868976869" /><line stroke="rgb(0%,0%,0%)" x1="359.445467523" x2="361.697508192" y1="788.080998338" y2="794.65803076" /><line stroke="rgb(0%,0%,0%)" x1="362.252083241" x2="361.697508192" y1="795.868976869" y2="794.65803076" /><line stroke="rgb(0%,0%,0%)" x1="359.445467523" x2="359.344661739" y1="788.080998338" y2="784.62031174" /><line stroke="rgb(0%,0%,0%)" x1="360.686612075" x2="359.344661739" y1="778.134606879" y2="784.62031174" /><line stroke="rgb(0%,0%,0%)" x1="358.126296719" x2="357.984681507" y1="767.642958771" y2="767.11553029" /><line stroke="rgb(0%,0%,0%)" x1="357.984681507" x2="357.797671635" y1="767.11553029" y2="766.741736002" /><line stroke="rgb(0%,0%,0%)" x1="291.39265499" x2="293.498933595" y1="782.822519035" y2="785.023226817" /><line stroke="rgb(0%,0%,0%)" x1="293.498933595" x2="301.375593613" y1="785.023226817" y2="791.906667835" /><line stroke="rgb(0%,0%,0%)" x1="301.375593613" x2="303.110000159" y1="791.906667835" y2="791.870017255" /><line stroke="rgb(0%,0%,0%)" x1="301.057386869" x2="293.440753272" y1="715.186857462" y2="708.037810796" /><line stroke="rgb(0%,0%,0%)" x1="293.440753272" x2="294.607730564" y1="708.037810796" y2="703.047058496" /><line stroke="rgb(0%,0%,0%)" x1="294.607730564" x2="300.11083711" y1="703.047058496" y2="699.427536891" /><line stroke="rgb(0%,0%,0%)" x1="300.11083711" x2="305.593219558" y1="699.427536891" y2="696.192776484" /><line stroke="rgb(0%,0%,0%)" x1="305.593219558" x2="306.758568978" y1="696.192776484" y2="691.647364717" /><line stroke="rgb(0%,0%,0%)" x1="315.944171567" x2="314.870378672" y1="868.1787698" y2="866.664960619" /><line stroke="rgb(0%,0%,0%)" x1="311.37550614" x2="311.387149428" y1="808.12557763" y2="808.150437096" /><line stroke="rgb(0%,0%,0%)" x1="303.110000159" x2="311.339687983" y1="791.870017255" y2="808.068902777" /><line stroke="rgb(0%,0%,0%)" x1="311.339687983" x2="311.37550614" y1="808.068902777" y2="808.12557763" /><line stroke="rgb(0%,0%,0%)" x1="314.27993298" x2="301.415433279" y1="725.91035039" y2="715.714179523" /><line stroke="rgb(0%,0%,0%)" x1="301.242205474" x2="301.415433279" y1="715.545205956" y2="715.714179523" /><line stroke="rgb(0%,0%,0%)" x1="301.242205474" x2="301.057386869" y1="715.545205956" y2="715.186857462" /><line stroke="rgb(0%,0%,0%)" x1="310.525904165" x2="309.591370859" y1="687.667171731" y2="689.832964818" /><line stroke="rgb(0%,0%,0%)" x1="306.758568978" x2="309.591370859" y1="691.647364717" y2="689.832964818" /><line stroke="rgb(0%,0%,0%)" x1="310.525904165" x2="320.533599243" y1="687.667171731" y2="679.371887929" /><line stroke="rgb(0%,0%,0%)" x1="329.145889275" x2="328.122144614" y1="737.296276771" y2="736.152332368" /><line stroke="rgb(0%,0%,0%)" x1="328.122144614" x2="324.269406221" y1="736.152332368" y2="733.111016924" /><line stroke="rgb(0%,0%,0%)" x1="314.27993298" x2="324.269406221" y1="725.91035039" y2="733.111016924" /><line stroke="rgb(0%,0%,0%)" x1="320.533599243" x2="322.313641426" y1="679.371887929" y2="677.784725155" /><line stroke="rgb(0%,0%,0%)" x1="322.313641426" x2="324.59392967" y1="677.784725155" y2="677.967856008" /><line stroke="rgb(0%,0%,0%)" x1="325.748572721" x2="326.852858378" y1="678.74495175" y2="677.525013869" /><line stroke="rgb(0%,0%,0%)" x1="324.59392967" x2="325.748572721" y1="677.967856008" y2="678.74495175" /><line stroke="rgb(0%,0%,0%)" x1="323.366781844" x2="327.405348528" y1="872.156001992" y2="870.199247613" /><line stroke="rgb(0%,0%,0%)" x1="266.070225952" x2="266.382677906" y1="737.404363306" y2="738.754023995" /><line stroke="rgb(0%,0%,0%)" x1="266.070225952" x2="267.598725755" y1="737.404363306" y2="735.920159799" /><line stroke="rgb(0%,0%,0%)" x1="265.827321069" x2="265.482518688" y1="725.632091645" y2="721.837478983" /><line stroke="rgb(0%,0%,0%)" x1="265.827321069" x2="268.515627668" y1="725.632091645" y2="729.847296071" /><line stroke="rgb(0%,0%,0%)" x1="255.984581411" x2="257.623653112" y1="690.347795797" y2="690.973856357" /><line stroke="rgb(0%,0%,0%)" x1="255.687281327" x2="255.984581411" y1="689.982925751" y2="690.347795797" /><line stroke="rgb(0%,0%,0%)" x1="270.511323723" x2="275.240323625" y1="744.460478667" y2="751.823902364" /><line stroke="rgb(0%,0%,0%)" x1="266.382677906" x2="270.511323723" y1="738.754023995" y2="744.460478667" /><line stroke="rgb(0%,0%,0%)" x1="269.363625256" x2="267.598725755" y1="732.885794294" y2="735.920159799" /><line stroke="rgb(0%,0%,0%)" x1="268.515627668" x2="269.363625256" y1="729.847296071" y2="732.885794294" /><line stroke="rgb(0%,0%,0%)" x1="265.567605982" x2="265.482518688" y1="714.774248594" y2="721.837478983" /><line stroke="rgb(0%,0%,0%)" x1="265.567605982" x2="271.061031549" y1="714.774248594" y2="700.718624924" /><line stroke="rgb(0%,0%,0%)" x1="271.059045541" x2="271.147029981" y1="700.429219967" y2="700.432525779" /><line stroke="rgb(0%,0%,0%)" x1="264.947459418" x2="271.059045541" y1="693.794750145" y2="700.429219967" /><line stroke="rgb(0%,0%,0%)" x1="264.50776787" x2="264.947459418" y1="693.870482305" y2="693.794750145" /><line stroke="rgb(0%,0%,0%)" x1="257.623653112" x2="264.50776787" y1="690.973856357" y2="693.870482305" /><line stroke="rgb(0%,0%,0%)" x1="282.817707708" x2="282.91785972" y1="767.466687903" y2="767.936621409" /><line stroke="rgb(0%,0%,0%)" x1="282.91785972" x2="282.992909628" y1="767.936621409" y2="768.155410812" /><line stroke="rgb(0%,0%,0%)" x1="291.39265499" x2="284.637444259" y1="782.822519035" y2="770.883162456" /><line stroke="rgb(0%,0%,0%)" x1="278.287786296" x2="282.817707708" y1="759.334239354" y2="767.466687903" /><line stroke="rgb(0%,0%,0%)" x1="275.240323625" x2="278.287786296" y1="751.823902364" y2="759.334239354" /><line stroke="rgb(0%,0%,0%)" x1="271.318524468" x2="271.061031549" y1="700.489975822" y2="700.718624924" /><line stroke="rgb(0%,0%,0%)" x1="271.147029981" x2="271.318524468" y1="700.432525779" y2="700.489975822" /><line stroke="rgb(0%,0%,0%)" x1="282.992909628" x2="284.637444259" y1="768.155410812" y2="770.883162456" /><line stroke="rgb(0%,0%,0%)" x1="313.655060429" x2="314.870378672" y1="865.1165661" y2="866.664960619" /><line stroke="rgb(0%,0%,0%)" x1="219.15122383" x2="218.955411935" y1="664.327121386" y2="664.114751466" /><line stroke="rgb(0%,0%,0%)" x1="219.15122383" x2="219.231819422" y1="664.327121386" y2="664.334649853" /><line stroke="rgb(0%,0%,0%)" x1="225.190922797" x2="226.755345422" y1="670.499451222" y2="671.485009458" /><line stroke="rgb(0%,0%,0%)" x1="219.231819422" x2="225.190922797" y1="664.334649853" y2="670.499451222" /><line stroke="rgb(0%,0%,0%)" x1="238.80936913" x2="234.233844784" y1="677.505746188" y2="674.120479075" /><line stroke="rgb(0%,0%,0%)" x1="255.687281327" x2="251.679273237" y1="689.982925751" y2="688.065532228" /><line stroke="rgb(0%,0%,0%)" x1="244.320708398" x2="249.882410308" y1="681.981742375" y2="687.148828142" /><line stroke="rgb(0%,0%,0%)" x1="244.320708398" x2="242.128765922" y1="681.981742375" y2="678.980714902" /><line stroke="rgb(0%,0%,0%)" x1="238.80936913" x2="242.128765922" y1="677.505746188" y2="678.980714902" /><line stroke="rgb(0%,0%,0%)" x1="226.755345422" x2="234.233844784" y1="671.485009458" y2="674.120479075" /><line stroke="rgb(0%,0%,0%)" x1="249.882410308" x2="251.679273237" y1="687.148828142" y2="688.065532228" /><line stroke="rgb(0%,0%,0%)" x1="313.429967533" x2="313.655060429" y1="864.557755319" y2="865.1165661" /><line stroke="rgb(0%,0%,0%)" x1="158.684389069" x2="148.10083155" y1="637.355669424" y2="630.671474264" /><line stroke="rgb(0%,0%,0%)" x1="158.684389069" x2="170.696963416" y1="637.355669424" y2="641.735425534" /><line stroke="rgb(0%,0%,0%)" x1="170.696963416" x2="191.450745536" y1="641.735425534" y2="646.66175345" /><line stroke="rgb(0%,0%,0%)" x1="191.450745536" x2="199.281358867" y1="646.66175345" y2="650.647558478" /><line stroke="rgb(0%,0%,0%)" x1="209.449520245" x2="212.543957481" y1="658.116358884" y2="660.387427805" /><line stroke="rgb(0%,0%,0%)" x1="205.687177053" x2="209.449520245" y1="656.018044588" y2="658.116358884" /><line stroke="rgb(0%,0%,0%)" x1="202.331402942" x2="205.687177053" y1="653.04820695" y2="656.018044588" /><line stroke="rgb(0%,0%,0%)" x1="199.281358867" x2="202.331402942" y1="650.647558478" y2="653.04820695" /><line stroke="rgb(0%,0%,0%)" x1="217.444047885" x2="218.955411935" y1="663.488756573" y2="664.114751466" /><line stroke="rgb(0%,0%,0%)" x1="217.444047885" x2="212.543957481" y1="663.488756573" y2="660.387427805" /><line stroke="rgb(0%,0%,0%)" x1="140.614497758" x2="145.845895692" y1="623.269761367" y2="628.756040104" /><line stroke="rgb(0%,0%,0%)" x1="100.069084337" x2="101.770151099" y1="618.012606407" y2="618.206136222" /><line stroke="rgb(0%,0%,0%)" x1="119.107123417" x2="118.326773138" y1="613.86174766" y2="614.100304932" /><line stroke="rgb(0%,0%,0%)" x1="119.107123417" x2="119.281669539" y1="613.86174766" y2="613.842899586" /><line stroke="rgb(0%,0%,0%)" x1="119.281669539" x2="119.639207064" y1="613.842899586" y2="613.641876986" /><line stroke="rgb(0%,0%,0%)" x1="119.639207064" x2="123.82069849" y1="613.641876986" y2="608.195998274" /><line stroke="rgb(0%,0%,0%)" x1="123.82069849" x2="124.657777256" y1="608.195998274" y2="608.521693862" /><line stroke="rgb(0%,0%,0%)" x1="112.22321229" x2="118.326773138" y1="616.310152395" y2="614.100304932" /><line stroke="rgb(0%,0%,0%)" x1="140.614497758" x2="134.884240629" y1="623.269761367" y2="617.68975944" /><line stroke="rgb(0%,0%,0%)" x1="134.884240629" x2="128.622118308" y1="617.68975944" y2="612.239438963" /><line stroke="rgb(0%,0%,0%)" x1="125.532695034" x2="125.658544715" y1="608.921119843" y2="609.1917714" /><line stroke="rgb(0%,0%,0%)" x1="124.657777256" x2="125.532695034" y1="608.521693862" y2="608.921119843" /><line stroke="rgb(0%,0%,0%)" x1="126.901529353" x2="128.622118308" y1="610.38649913" y2="612.239438963" /><line stroke="rgb(0%,0%,0%)" x1="145.845895692" x2="148.10083155" y1="628.756040104" y2="630.671474264" /><line stroke="rgb(0%,0%,0%)" x1="69.7787288894" x2="74.171098717" y1="607.395369816" y2="610.44529838" /><line stroke="rgb(0%,0%,0%)" x1="76.7801948805" x2="89.6131293554" y1="611.616976073" y2="616.113193066" /><line stroke="rgb(0%,0%,0%)" x1="89.6131293554" x2="90.8065702028" y1="616.113193066" y2="616.27838092" /><line stroke="rgb(0%,0%,0%)" x1="100.069084337" x2="96.4220547346" y1="618.012606407" y2="617.448962336" /><line stroke="rgb(0%,0%,0%)" x1="91.8523596061" x2="96.4220547346" y1="616.340356227" y2="617.448962336" /><line stroke="rgb(0%,0%,0%)" x1="90.8065702028" x2="91.8523596061" y1="616.27838092" y2="616.340356227" /><line stroke="rgb(0%,0%,0%)" x1="101.770151099" x2="112.22321229" y1="618.206136222" y2="616.310152395" /><line stroke="rgb(0%,0%,0%)" x1="126.067429325" x2="126.901529353" y1="609.599395846" y2="610.38649913" /><line stroke="rgb(0%,0%,0%)" x1="125.658544715" x2="126.067429325" y1="609.1917714" y2="609.599395846" /><line stroke="rgb(0%,0%,0%)" x1="15.0140645374" x2="14.3248740008" y1="502.565999042" y2="501.766973713" /><line stroke="rgb(0%,0%,0%)" x1="15.0140645374" x2="15.6567864599" y1="502.565999042" y2="503.251744881" /><line stroke="rgb(0%,0%,0%)" x1="14.3248740008" x2="12.6119748367" y1="501.766973713" y2="499.007084644" /><line stroke="rgb(0%,0%,0%)" x1="11.0334759087" x2="11.2294985846" y1="487.413151715" y2="493.578612663" /><line stroke="rgb(0%,0%,0%)" x1="11.0334759087" x2="10.7554017651" y1="487.413151715" y2="482.021134548" /><line stroke="rgb(0%,0%,0%)" x1="15.6567864599" x2="16.6634150409" y1="503.251744881" y2="504.966115018" /><line stroke="rgb(0%,0%,0%)" x1="47.8653467435" x2="46.0768707523" y1="594.642421746" y2="592.658411634" /><line stroke="rgb(0%,0%,0%)" x1="43.5852971525" x2="46.0768707523" y1="590.331615724" y2="592.658411634" /><line stroke="rgb(0%,0%,0%)" x1="42.5946479301" x2="41.8793997439" y1="589.273725792" y2="588.431775622" /><line stroke="rgb(0%,0%,0%)" x1="41.8793997439" x2="39.796209998" y1="588.431775622" y2="584.920211044" /><line stroke="rgb(0%,0%,0%)" x1="33.0471546342" x2="39.796209998" y1="573.159185925" y2="584.920211044" /><line stroke="rgb(0%,0%,0%)" x1="62.1958954714" x2="63.0188049289" y1="603.328456433" y2="604.755362569" /><line stroke="rgb(0%,0%,0%)" x1="69.7787288894" x2="65.8951670935" y1="607.395369816" y2="606.234485454" /><line stroke="rgb(0%,0%,0%)" x1="63.0188049289" x2="65.8951670935" y1="604.755362569" y2="606.234485454" /><line stroke="rgb(0%,0%,0%)" x1="62.1958954714" x2="57.7864870191" y1="603.328456433" y2="602.513059115" /><line stroke="rgb(0%,0%,0%)" x1="56.5790468687" x2="57.7864870191" y1="601.879047255" y2="602.513059115" /><line stroke="rgb(0%,0%,0%)" x1="47.8653467435" x2="55.0989363943" y1="594.642421746" y2="600.875326229" /><line stroke="rgb(0%,0%,0%)" x1="55.0989363943" x2="56.5790468687" y1="600.875326229" y2="601.879047255" /><line stroke="rgb(0%,0%,0%)" x1="75.7821895845" x2="76.7801948805" y1="611.092725478" y2="611.616976073" /><line stroke="rgb(0%,0%,0%)" x1="74.171098717" x2="75.7821895845" y1="610.44529838" y2="611.092725478" /><line stroke="rgb(0%,0%,0%)" x1="20.7986146442" x2="22.5409296519" y1="530.579987462" y2="538.014634922" /><line stroke="rgb(0%,0%,0%)" x1="20.8274576155" x2="20.7986146442" y1="524.740591369" y2="530.579987462" /><line stroke="rgb(0%,0%,0%)" x1="20.2393188334" x2="20.3573970028" y1="520.922717332" y2="519.247410523" /><line stroke="rgb(0%,0%,0%)" x1="20.2393188334" x2="20.8274576155" y1="520.922717332" y2="524.740591369" /><line stroke="rgb(0%,0%,0%)" x1="20.3573970028" x2="22.4498656286" y1="519.247410523" y2="515.837796069" /><line stroke="rgb(0%,0%,0%)" x1="20.9394765969" x2="21.9462180528" y1="508.047251165" y2="510.792510699" /><line stroke="rgb(0%,0%,0%)" x1="17.608504275" x2="20.9394765969" y1="505.312999216" y2="508.047251165" /><line stroke="rgb(0%,0%,0%)" x1="16.6634150409" x2="17.608504275" y1="504.966115018" y2="505.312999216" /><line stroke="rgb(0%,0%,0%)" x1="11.6151429407" x2="12.6119748367" y1="496.687106027" y2="499.007084644" /><line stroke="rgb(0%,0%,0%)" x1="11.2294985846" x2="11.6151429407" y1="493.578612663" y2="496.687106027" /><line stroke="rgb(0%,0%,0%)" x1="16.2358630863" x2="10.7554017651" y1="475.608256005" y2="482.021134548" /><line stroke="rgb(0%,0%,0%)" x1="31.2024656033" x2="33.0471546342" y1="567.471493062" y2="573.159185925" /><line stroke="rgb(0%,0%,0%)" x1="29.8683644839" x2="31.2024656033" y1="561.607603312" y2="567.471493062" /><line stroke="rgb(0%,0%,0%)" x1="29.8683644839" x2="25.2121475737" y1="561.607603312" y2="548.502753637" /><line stroke="rgb(0%,0%,0%)" x1="25.0371025049" x2="25.2121475737" y1="547.783757004" y2="548.502753637" /><line stroke="rgb(0%,0%,0%)" x1="24.960200396" x2="25.0371025049" y1="547.636346831" y2="547.783757004" /><line stroke="rgb(0%,0%,0%)" x1="22.5409296519" x2="24.8358349437" y1="538.014634922" y2="547.237283544" /><line stroke="rgb(0%,0%,0%)" x1="24.8358349437" x2="24.960200396" y1="547.237283544" y2="547.636346831" /><line stroke="rgb(0%,0%,0%)" x1="22.4692671417" x2="22.4498656286" y1="515.817895955" y2="515.837796069" /><line stroke="rgb(0%,0%,0%)" x1="22.4699982492" x2="22.4692671417" y1="515.803360379" y2="515.817895955" /><line stroke="rgb(0%,0%,0%)" x1="22.3407941594" x2="22.4699982492" y1="511.480146103" y2="515.803360379" /><line stroke="rgb(0%,0%,0%)" x1="22.128982032" x2="22.3407941594" y1="511.049436094" y2="511.480146103" /><line stroke="rgb(0%,0%,0%)" x1="21.9462180528" x2="22.128982032" y1="510.792510699" y2="511.049436094" /><line stroke="rgb(0%,0%,0%)" x1="22.8482323102" x2="16.2358630863" y1="464.232751671" y2="475.608256005" /><line stroke="rgb(0%,0%,0%)" x1="27.7301212161" x2="22.8482323102" y1="460.045190739" y2="464.232751671" /><line stroke="rgb(0%,0%,0%)" x1="462.498213484" x2="463.467579331" y1="598.325259566" y2="597.273098846" /><line stroke="rgb(0%,0%,0%)" x1="476.290688386" x2="473.160471056" y1="582.687653747" y2="585.597687025" /><line stroke="rgb(0%,0%,0%)" x1="476.290688386" x2="479.345748989" y1="582.687653747" y2="574.262136604" /><line stroke="rgb(0%,0%,0%)" x1="479.345748989" x2="481.395927855" y1="574.262136604" y2="568.028152178" /><line stroke="rgb(0%,0%,0%)" x1="433.01806972" x2="433.972243713" y1="628.015909042" y2="627.091404168" /><line stroke="rgb(0%,0%,0%)" x1="434.94079094" x2="433.972243713" y1="626.102052414" y2="627.091404168" /><line stroke="rgb(0%,0%,0%)" x1="436.232664802" x2="434.94079094" y1="624.204147877" y2="626.102052414" /><line stroke="rgb(0%,0%,0%)" x1="436.232664802" x2="437.206479073" y1="624.204147877" y2="622.650308979" /><line stroke="rgb(0%,0%,0%)" x1="437.206479073" x2="440.997319083" y1="622.650308979" y2="618.692034948" /><line stroke="rgb(0%,0%,0%)" x1="440.997319083" x2="446.420219818" y1="618.692034948" y2="614.534049945" /><line stroke="rgb(0%,0%,0%)" x1="446.420219818" x2="446.729515664" y1="614.534049945" y2="613.910902577" /><line stroke="rgb(0%,0%,0%)" x1="446.729515664" x2="448.60351953" y1="613.910902577" y2="612.256382586" /><line stroke="rgb(0%,0%,0%)" x1="448.60351953" x2="453.467740465" y1="612.256382586" y2="607.51234553" /><line stroke="rgb(0%,0%,0%)" x1="453.467740465" x2="453.963075135" y1="607.51234553" y2="606.674135768" /><line stroke="rgb(0%,0%,0%)" x1="458.611122362" x2="453.963075135" y1="601.441929412" y2="606.674135768" /><line stroke="rgb(0%,0%,0%)" x1="458.611122362" x2="462.498213484" y1="601.441929412" y2="598.325259566" /><line stroke="rgb(0%,0%,0%)" x1="463.467579331" x2="464.541123276" y1="597.273098846" y2="594.557907113" /><line stroke="rgb(0%,0%,0%)" x1="464.541123276" x2="468.840708632" y1="594.557907113" y2="589.371495404" /><line stroke="rgb(0%,0%,0%)" x1="468.840708632" x2="471.052123344" y1="589.371495404" y2="587.737515075" /><line stroke="rgb(0%,0%,0%)" x1="471.052123344" x2="473.160471056" y1="587.737515075" y2="585.597687025" /><line stroke="rgb(0%,0%,0%)" x1="315.414075156" x2="313.293144745" y1="846.823768702" y2="856.278760874" /><line stroke="rgb(0%,0%,0%)" x1="315.414075156" x2="315.434765863" y1="846.823768702" y2="845.098758301" /><line stroke="rgb(0%,0%,0%)" x1="312.066702605" x2="313.429967533" y1="860.592576438" y2="864.557755319" /><line stroke="rgb(0%,0%,0%)" x1="313.293144745" x2="312.340685833" y1="856.278760874" y2="859.633056924" /><line stroke="rgb(0%,0%,0%)" x1="315.859705485" x2="315.434765863" y1="839.675072316" y2="845.098758301" /><line stroke="rgb(0%,0%,0%)" x1="313.32918461" x2="315.859705485" y1="830.143304005" y2="839.675072316" /><line stroke="rgb(0%,0%,0%)" x1="313.32918461" x2="312.395652653" y1="830.143304005" y2="824.13567131" /><line stroke="rgb(0%,0%,0%)" x1="312.395652653" x2="311.383144351" y1="824.13567131" y2="808.222046872" /><line stroke="rgb(0%,0%,0%)" x1="312.086057432" x2="312.066702605" y1="860.592483467" y2="860.592576438" /><line stroke="rgb(0%,0%,0%)" x1="311.387149428" x2="311.383144351" y1="808.150437096" y2="808.222046872" /><line stroke="rgb(0%,0%,0%)" x1="312.340685833" x2="312.086057432" y1="859.633056924" y2="860.592483467" /><line stroke="rgb(0%,0%,0%)" x1="45.8232890928" x2="46.4598973794" y1="330.143098006" y2="329.034584759" /><line stroke="rgb(0%,0%,0%)" x1="25.4811238106" x2="27.7301212161" y1="458.168622029" y2="460.045190739" /><line stroke="rgb(0%,0%,0%)" x1="42.5946479301" x2="43.5852971525" y1="589.273725792" y2="590.331615724" /><line stroke="rgb(0%,0%,0%)" x1="177.223227078" x2="166.387632581" y1="276.239931507" y2="279.479732941" /></svg>