<?xml version="1.0" encoding="utf-8" ?>
<svg baseProfile="full" height="100%" version="1.1" viewBox="0.5 0.5 685.793960571 941.299331665" width="100%" xmlns="http://www.w3.org/2000/svg" xmlns:ev="http://www.w3.org/2001/xml-events" xmlns:xlink="http://www.w3.org/1999/xlink"><defs /><line stroke="rgb(0%,0%,0%)" x1="670.612973371" x2="668.811471259" y1="377.563645006" y2="370.507793959" /><line stroke="rgb(0%,0%,0%)" x1="670.756681566" x2="670.511099205" y1="379.412181581" y2="378.144019439" /><line stroke="rgb(0%,0%,0%)" x1="679.067269015" x2="677.748998341" y1="438.488699399" y2="428.7910824" /><line stroke="rgb(0%,0%,0%)" x1="608.360966402" x2="612.807182267" y1="212.046788108" y2="220.722219267" /><line stroke="rgb(0%,0%,0%)" x1="622.878302915" x2="616.607033792" y1="242.202583419" y2="228.118696568" /><line stroke="rgb(0%,0%,0%)" x1="637.312297198" x2="633.558975682" y1="269.5903846" y2="262.430982534" /><line stroke="rgb(0%,0%,0%)" x1="655.364811891" x2="653.926071103" y1="323.376811587" y2="319.924227688" /><line stroke="rgb(0%,0%,0%)" x1="652.991140019" x2="649.757452462" y1="316.494506094" y2="305.77114608" /><line stroke="rgb(0%,0%,0%)" x1="671.348413454" x2="670.756681566" y1="381.009611573" y2="379.412181581" /><line stroke="rgb(0%,0%,0%)" x1="670.511099205" x2="670.612973371" y1="378.144019439" y2="377.563645006" /><line stroke="rgb(0%,0%,0%)" x1="668.533501521" x2="668.352746783" y1="370.025602627" y2="368.383395245" /><line stroke="rgb(0%,0%,0%)" x1="583.325045367" x2="579.079437365" y1="173.901417175" y2="168.529815843" /><line stroke="rgb(0%,0%,0%)" x1="608.360966402" x2="605.858098527" y1="212.046788108" y2="207.348840082" /><line stroke="rgb(0%,0%,0%)" x1="616.607033792" x2="612.807182267" y1="228.118696568" y2="220.722219267" /><line stroke="rgb(0%,0%,0%)" x1="627.888592852" x2="624.012045401" y1="252.300144879" y2="245.169691494" /><line stroke="rgb(0%,0%,0%)" x1="624.012045401" x2="622.878302915" y1="245.169691494" y2="242.202583419" /><line stroke="rgb(0%,0%,0%)" x1="653.926071103" x2="652.991140019" y1="319.924227688" y2="316.494506094" /><line stroke="rgb(0%,0%,0%)" x1="668.811471259" x2="668.533501521" y1="370.507793959" y2="370.025602627" /><line stroke="rgb(0%,0%,0%)" x1="677.748998341" x2="677.434896618" y1="428.7910824" y2="426.47125888" /><line stroke="rgb(0%,0%,0%)" x1="563.299056553" x2="546.04469835" y1="160.820355998" y2="153.764004035" /><line stroke="rgb(0%,0%,0%)" x1="521.13941515" x2="508.089775684" y1="145.025959742" y2="140.834800456" /><line stroke="rgb(0%,0%,0%)" x1="546.04469835" x2="543.758333975" y1="153.764004035" y2="152.905766903" /><line stroke="rgb(0%,0%,0%)" x1="543.758333975" x2="542.736635788" y1="152.905766903" y2="152.512347079" /><line stroke="rgb(0%,0%,0%)" x1="459.871232348" x2="452.345722594" y1="126.479752349" y2="122.706935064" /><line stroke="rgb(0%,0%,0%)" x1="465.698826084" x2="459.871232348" y1="128.675960446" y2="126.479752349" /><line stroke="rgb(0%,0%,0%)" x1="508.089775684" x2="495.576254943" y1="140.834800456" y2="136.071256153" /><line stroke="rgb(0%,0%,0%)" x1="542.736635788" x2="541.67200749" y1="152.512347079" y2="152.090395552" /><line stroke="rgb(0%,0%,0%)" x1="427.869742717" x2="428.887686826" y1="114.517475194" y2="114.774875983" /><line stroke="rgb(0%,0%,0%)" x1="449.862483217" x2="446.180823323" y1="121.469157227" y2="120.014073681" /><line stroke="rgb(0%,0%,0%)" x1="409.904403486" x2="404.927850121" y1="112.317892531" y2="111.35587322" /><line stroke="rgb(0%,0%,0%)" x1="417.674335532" x2="409.904403486" y1="111.420524381" y2="112.317892531" /><line stroke="rgb(0%,0%,0%)" x1="427.869742717" x2="418.118687072" y1="114.517475194" y2="111.491607594" /><line stroke="rgb(0%,0%,0%)" x1="444.116292886" x2="428.887686826" y1="119.265049669" y2="114.774875983" /><line stroke="rgb(0%,0%,0%)" x1="446.180823323" x2="444.116292886" y1="120.014073681" y2="119.265049669" /><line stroke="rgb(0%,0%,0%)" x1="388.373107482" x2="386.264879818" y1="115.690806804" y2="116.212345558" /><line stroke="rgb(0%,0%,0%)" x1="386.264879818" x2="380.594547808" y1="116.212345558" y2="120.521045293" /><line stroke="rgb(0%,0%,0%)" x1="388.373107482" x2="394.210124753" y1="115.690806804" y2="112.283378313" /><line stroke="rgb(0%,0%,0%)" x1="404.927850121" x2="394.893610423" y1="111.35587322" y2="112.084275417" /><line stroke="rgb(0%,0%,0%)" x1="394.893610423" x2="394.673348059" y1="112.084275417" y2="112.120764601" /><line stroke="rgb(0%,0%,0%)" x1="394.582294577" x2="394.210124753" y1="112.160433664" y2="112.283378313" /><line stroke="rgb(0%,0%,0%)" x1="327.579659547" x2="330.114365997" y1="166.453413504" y2="166.070515876" /><line stroke="rgb(0%,0%,0%)" x1="358.658082935" x2="363.539817148" y1="147.615951498" y2="142.216129118" /><line stroke="rgb(0%,0%,0%)" x1="363.9867239" x2="363.539817148" y1="141.412728727" y2="142.216129118" /><line stroke="rgb(0%,0%,0%)" x1="365.951020924" x2="364.568560193" y1="139.65473405" y2="140.95256588" /><line stroke="rgb(0%,0%,0%)" x1="370.554001033" x2="365.951020924" y1="132.252520511" y2="139.65473405" /><line stroke="rgb(0%,0%,0%)" x1="364.568560193" x2="363.9867239" y1="140.95256588" y2="141.412728727" /><line stroke="rgb(0%,0%,0%)" x1="370.554001033" x2="379.761051104" y1="132.252520511" y2="121.317452436" /><line stroke="rgb(0%,0%,0%)" x1="380.111319884" x2="379.761051104" y1="120.949383494" y2="121.317452436" /><line stroke="rgb(0%,0%,0%)" x1="380.594547808" x2="380.111319884" y1="120.521045293" y2="120.949383494" /><line stroke="rgb(0%,0%,0%)" x1="394.673348059" x2="394.582294577" y1="112.120764601" y2="112.160433664" /><line stroke="rgb(0%,0%,0%)" x1="316.66959265" x2="317.939682931" y1="252.279948934" y2="251.022889019" /><line stroke="rgb(0%,0%,0%)" x1="316.66959265" x2="311.837576166" y1="252.279948934" y2="253.699404523" /><line stroke="rgb(0%,0%,0%)" x1="319.792779013" x2="320.056087783" y1="245.571360587" y2="246.418630734" /><line stroke="rgb(0%,0%,0%)" x1="320.056087783" x2="319.709613072" y1="246.418630734" y2="248.09475246" /><line stroke="rgb(0%,0%,0%)" x1="349.965293293" x2="339.218638664" y1="162.224300135" y2="163.301136125" /><line stroke="rgb(0%,0%,0%)" x1="339.218638664" x2="330.114365997" y1="163.301136125" y2="166.070515876" /><line stroke="rgb(0%,0%,0%)" x1="357.793345292" x2="354.413107307" y1="150.521145437" y2="155.483062925" /><line stroke="rgb(0%,0%,0%)" x1="358.658082935" x2="357.793345292" y1="147.615951498" y2="150.521145437" /><line stroke="rgb(0%,0%,0%)" x1="288.530591172" x2="276.725428713" y1="272.83301216" y2="292.46672031" /><line stroke="rgb(0%,0%,0%)" x1="309.183985597" x2="292.874480542" y1="255.547975537" y2="268.254724972" /><line stroke="rgb(0%,0%,0%)" x1="292.874480542" x2="288.530591172" y1="268.254724972" y2="272.83301216" /><line stroke="rgb(0%,0%,0%)" x1="319.792779013" x2="319.53991692" y1="245.571360587" y2="241.829084209" /><line stroke="rgb(0%,0%,0%)" x1="311.666842813" x2="312.244515961" y1="221.580167181" y2="224.589663076" /><line stroke="rgb(0%,0%,0%)" x1="312.244515961" x2="319.104742143" y1="224.589663076" y2="240.111897842" /><line stroke="rgb(0%,0%,0%)" x1="310.987289873" x2="311.666842813" y1="215.385553337" y2="221.580167181" /><line stroke="rgb(0%,0%,0%)" x1="310.375007716" x2="310.987289873" y1="207.002461114" y2="215.385553337" /><line stroke="rgb(0%,0%,0%)" x1="312.75662628" x2="310.375007716" y1="195.597014473" y2="207.002461114" /><line stroke="rgb(0%,0%,0%)" x1="312.75662628" x2="317.253492071" y1="195.597014473" y2="179.614784843" /><line stroke="rgb(0%,0%,0%)" x1="319.709613072" x2="317.939682931" y1="248.09475246" y2="251.022889019" /><line stroke="rgb(0%,0%,0%)" x1="319.104742143" x2="319.266386363" y1="240.111897842" y2="240.517076689" /><line stroke="rgb(0%,0%,0%)" x1="319.266386363" x2="319.53991692" y1="240.517076689" y2="241.829084209" /><line stroke="rgb(0%,0%,0%)" x1="317.92392517" x2="317.253492071" y1="177.90523335" y2="179.614784843" /><line stroke="rgb(0%,0%,0%)" x1="267.940053061" x2="261.487661383" y1="355.898817328" y2="360.16374055" /><line stroke="rgb(0%,0%,0%)" x1="260.107100557" x2="266.01823461" y1="343.784265862" y2="343.576146943" /><line stroke="rgb(0%,0%,0%)" x1="260.50422826" x2="271.948755159" y1="306.896714772" y2="298.071571901" /><line stroke="rgb(0%,0%,0%)" x1="260.50422826" x2="253.100309998" y1="306.896714772" y2="316.626775038" /><line stroke="rgb(0%,0%,0%)" x1="277.30417508" x2="279.258851594" y1="417.862015665" y2="429.347366063" /><line stroke="rgb(0%,0%,0%)" x1="281.191903829" x2="277.30417508" y1="410.215610097" y2="417.862015665" /><line stroke="rgb(0%,0%,0%)" x1="282.464368555" x2="273.937487483" y1="396.549135823" y2="397.953804272" /><line stroke="rgb(0%,0%,0%)" x1="273.337403195" x2="273.407724638" y1="348.988190923" y2="347.092462941" /><line stroke="rgb(0%,0%,0%)" x1="273.286343871" x2="273.407724638" y1="345.365595589" y2="347.092462941" /><line stroke="rgb(0%,0%,0%)" x1="271.714123551" x2="273.286343871" y1="342.878127271" y2="345.365595589" /><line stroke="rgb(0%,0%,0%)" x1="274.86679295" x2="271.948755159" y1="295.220471215" y2="298.071571901" /><line stroke="rgb(0%,0%,0%)" x1="285.473598816" x2="283.850203616" y1="403.421494112" y2="406.691283568" /><line stroke="rgb(0%,0%,0%)" x1="286.599989221" x2="285.473598816" y1="400.334840787" y2="403.421494112" /><line stroke="rgb(0%,0%,0%)" x1="286.717251533" x2="283.872587831" y1="398.140688237" y2="397.574211789" /><line stroke="rgb(0%,0%,0%)" x1="282.464368555" x2="283.103251203" y1="396.549135823" y2="396.806257724" /><line stroke="rgb(0%,0%,0%)" x1="283.103251203" x2="283.872587831" y1="396.806257724" y2="397.574211789" /><line stroke="rgb(0%,0%,0%)" x1="276.725428713" x2="274.86679295" y1="292.46672031" y2="295.220471215" /><line stroke="rgb(0%,0%,0%)" x1="227.78451271" x2="233.44336697" y1="431.906951639" y2="428.93657619" /><line stroke="rgb(0%,0%,0%)" x1="233.44336697" x2="238.043145715" y1="428.93657619" y2="424.838800396" /><line stroke="rgb(0%,0%,0%)" x1="237.257779884" x2="232.928130717" y1="381.311045477" y2="387.715020146" /><line stroke="rgb(0%,0%,0%)" x1="239.38980855" x2="237.257779884" y1="377.710965483" y2="381.311045477" /><line stroke="rgb(0%,0%,0%)" x1="241.353216107" x2="239.38980855" y1="375.640339619" y2="377.710965483" /><line stroke="rgb(0%,0%,0%)" x1="251.776943782" x2="252.349429427" y1="342.713590899" y2="343.232587135" /><line stroke="rgb(0%,0%,0%)" x1="249.552543272" x2="248.460934663" y1="321.974076937" y2="324.982186039" /><line stroke="rgb(0%,0%,0%)" x1="253.100309998" x2="249.552543272" y1="316.626775038" y2="321.974076937" /><line stroke="rgb(0%,0%,0%)" x1="259.948232181" x2="273.12145386" y1="406.220179958" y2="398.241729054" /><line stroke="rgb(0%,0%,0%)" x1="246.953925852" x2="258.508154018" y1="417.175128568" y2="407.470290972" /><line stroke="rgb(0%,0%,0%)" x1="258.508154018" x2="259.948232181" y1="407.470290972" y2="406.220179958" /><line stroke="rgb(0%,0%,0%)" x1="260.107100557" x2="253.566132753" y1="343.784265862" y2="343.496661064" /><line stroke="rgb(0%,0%,0%)" x1="279.261483503" x2="279.259980944" y1="429.377124812" y2="429.389710389" /><line stroke="rgb(0%,0%,0%)" x1="279.258851594" x2="279.261483503" y1="429.347366063" y2="429.377124812" /><line stroke="rgb(0%,0%,0%)" x1="273.12145386" x2="273.480182403" y1="398.241729054" y2="398.062074281" /><line stroke="rgb(0%,0%,0%)" x1="273.480182403" x2="273.667806504" y1="398.062074281" y2="398.014230109" /><line stroke="rgb(0%,0%,0%)" x1="273.667806504" x2="273.937487483" y1="398.014230109" y2="397.953804272" /><line stroke="rgb(0%,0%,0%)" x1="261.487661383" x2="261.11404397" y1="360.16374055" y2="360.426183227" /><line stroke="rgb(0%,0%,0%)" x1="267.649111252" x2="271.714123551" y1="343.354423355" y2="342.878127271" /><line stroke="rgb(0%,0%,0%)" x1="283.432978555" x2="282.080901133" y1="407.250883263" y2="408.689436652" /><line stroke="rgb(0%,0%,0%)" x1="283.850203616" x2="283.432978555" y1="406.691283568" y2="407.250883263" /><line stroke="rgb(0%,0%,0%)" x1="215.439942644" x2="214.987285105" y1="427.033634013" y2="425.247982227" /><line stroke="rgb(0%,0%,0%)" x1="214.86778439" x2="214.987285105" y1="424.891533919" y2="425.247982227" /><line stroke="rgb(0%,0%,0%)" x1="215.547199597" x2="215.07971231" y1="422.02541522" y2="423.607722599" /><line stroke="rgb(0%,0%,0%)" x1="221.835672124" x2="224.57029357" y1="433.149281326" y2="432.775281" /><line stroke="rgb(0%,0%,0%)" x1="224.57029357" x2="227.78451271" y1="432.775281" y2="431.906951639" /><line stroke="rgb(0%,0%,0%)" x1="220.169531076" x2="218.952465043" y1="432.982175159" y2="432.099446915" /><line stroke="rgb(0%,0%,0%)" x1="215.439942644" x2="216.662443537" y1="427.033634013" y2="429.237966452" /><line stroke="rgb(0%,0%,0%)" x1="219.600766813" x2="216.800765433" y1="413.358002084" y2="418.64473852" /><line stroke="rgb(0%,0%,0%)" x1="216.800765433" x2="215.547199597" y1="418.64473852" y2="422.02541522" /><line stroke="rgb(0%,0%,0%)" x1="225.111680154" x2="222.479498487" y1="403.183029958" y2="408.394429678" /><line stroke="rgb(0%,0%,0%)" x1="222.479498487" x2="222.050998641" y1="408.394429678" y2="408.880145269" /><line stroke="rgb(0%,0%,0%)" x1="229.892512182" x2="227.116303293" y1="394.198792881" y2="399.592378718" /><line stroke="rgb(0%,0%,0%)" x1="238.043145715" x2="246.953925852" y1="424.838800396" y2="417.175128568" /><line stroke="rgb(0%,0%,0%)" x1="261.044449535" x2="261.00705276" y1="360.467982685" y2="360.497142824" /><line stroke="rgb(0%,0%,0%)" x1="261.11404397" x2="261.044449535" y1="360.426183227" y2="360.467982685" /><line stroke="rgb(0%,0%,0%)" x1="252.349429427" x2="253.566132753" y1="343.232587135" y2="343.496661064" /><line stroke="rgb(0%,0%,0%)" x1="220.073292248" x2="219.600766813" y1="412.593715319" y2="413.358002084" /><line stroke="rgb(0%,0%,0%)" x1="216.662443537" x2="218.952465043" y1="429.237966452" y2="432.099446915" /><line stroke="rgb(0%,0%,0%)" x1="220.073292248" x2="221.318655168" y1="412.593715319" y2="410.113031122" /><line stroke="rgb(0%,0%,0%)" x1="222.050998641" x2="221.318655168" y1="408.880145269" y2="410.113031122" /><line stroke="rgb(0%,0%,0%)" x1="226.561108766" x2="225.111680154" y1="400.946642555" y2="403.183029958" /><line stroke="rgb(0%,0%,0%)" x1="227.116303293" x2="226.561108766" y1="399.592378718" y2="400.946642555" /><line stroke="rgb(0%,0%,0%)" x1="641.91281595" x2="640.144160699" y1="618.567337075" y2="623.726910723" /><line stroke="rgb(0%,0%,0%)" x1="643.478305196" x2="648.879993012" y1="613.475075989" y2="601.965587347" /><line stroke="rgb(0%,0%,0%)" x1="658.665686879" x2="659.479853418" y1="572.756157811" y2="569.71572753" /><line stroke="rgb(0%,0%,0%)" x1="668.428744356" x2="668.923650517" y1="529.511533823" y2="526.962391849" /><line stroke="rgb(0%,0%,0%)" x1="673.656398982" x2="675.098308719" y1="508.265153749" y2="501.577919134" /><line stroke="rgb(0%,0%,0%)" x1="680.031421411" x2="679.784638601" y1="461.286275199" y2="457.035355488" /><line stroke="rgb(0%,0%,0%)" x1="595.420462866" x2="595.719925413" y1="712.946371123" y2="712.517028577" /><line stroke="rgb(0%,0%,0%)" x1="637.582670078" x2="640.144160699" y1="629.134873168" y2="623.726910723" /><line stroke="rgb(0%,0%,0%)" x1="641.91281595" x2="643.478305196" y1="618.567337075" y2="613.475075989" /><line stroke="rgb(0%,0%,0%)" x1="585.984897511" x2="588.283847816" y1="728.783579053" y2="725.351860083" /><line stroke="rgb(0%,0%,0%)" x1="588.283847816" x2="588.91014184" y1="725.351860083" y2="723.821694806" /><line stroke="rgb(0%,0%,0%)" x1="588.91014184" x2="595.420462866" y1="723.821694806" y2="712.946371123" /><line stroke="rgb(0%,0%,0%)" x1="595.719925413" x2="598.613670811" y1="712.517028577" y2="707.912437799" /><line stroke="rgb(0%,0%,0%)" x1="598.613670811" x2="604.196999584" y1="707.912437799" y2="697.907961862" /><line stroke="rgb(0%,0%,0%)" x1="610.731481395" x2="607.421945621" y1="685.441363978" y2="692.05313432" /><line stroke="rgb(0%,0%,0%)" x1="616.668197074" x2="610.731481395" y1="676.406038818" y2="685.441363978" /><line stroke="rgb(0%,0%,0%)" x1="616.668197074" x2="619.619645623" y1="676.406038818" y2="671.202630224" /><line stroke="rgb(0%,0%,0%)" x1="619.619645623" x2="624.306003543" y1="671.202630224" y2="662.071311804" /><line stroke="rgb(0%,0%,0%)" x1="556.611800964" x2="543.118875369" y1="758.611498115" y2="767.303798694" /><line stroke="rgb(0%,0%,0%)" x1="556.611800964" x2="563.949017075" y1="758.611498115" y2="754.3471426" /><line stroke="rgb(0%,0%,0%)" x1="563.949017075" x2="566.109395509" y1="754.3471426" y2="752.870830813" /><line stroke="rgb(0%,0%,0%)" x1="566.109395509" x2="569.338201999" y1="752.870830813" y2="750.354604755" /><line stroke="rgb(0%,0%,0%)" x1="604.196999584" x2="605.388653556" y1="697.907961862" y2="695.086866451" /><line stroke="rgb(0%,0%,0%)" x1="605.388653556" x2="607.421945621" y1="695.086866451" y2="692.05313432" /><line stroke="rgb(0%,0%,0%)" x1="535.441819652" x2="540.753564125" y1="771.319914631" y2="768.385353082" /><line stroke="rgb(0%,0%,0%)" x1="540.753564125" x2="543.118875369" y1="768.385353082" y2="767.303798694" /><line stroke="rgb(0%,0%,0%)" x1="488.904074294" x2="492.28882323" y1="790.227294546" y2="789.566980451" /><line stroke="rgb(0%,0%,0%)" x1="513.738391554" x2="514.921394238" y1="782.141992861" y2="781.644556434" /><line stroke="rgb(0%,0%,0%)" x1="514.921394238" x2="516.745147352" y1="781.644556434" y2="780.762066529" /><line stroke="rgb(0%,0%,0%)" x1="407.215711438" x2="410.28615741" y1="778.661866782" y2="780.273765276" /><line stroke="rgb(0%,0%,0%)" x1="421.361047893" x2="427.389784632" y1="784.618147592" y2="786.991480638" /><line stroke="rgb(0%,0%,0%)" x1="441.651030108" x2="448.392733465" y1="790.523394869" y2="791.99946617" /><line stroke="rgb(0%,0%,0%)" x1="448.392733465" x2="457.799869952" y1="791.99946617" y2="790.399733809" /><line stroke="rgb(0%,0%,0%)" x1="482.552050913" x2="487.464228098" y1="789.621534002" y2="790.527431488" /><line stroke="rgb(0%,0%,0%)" x1="487.464228098" x2="488.904074294" y1="790.527431488" y2="790.227294546" /><line stroke="rgb(0%,0%,0%)" x1="407.215711438" x2="402.845832003" y1="778.661866782" y2="775.738608187" /><line stroke="rgb(0%,0%,0%)" x1="410.28615741" x2="415.286663518" y1="780.273765276" y2="783.32491867" /><line stroke="rgb(0%,0%,0%)" x1="415.286663518" x2="421.361047893" y1="783.32491867" y2="784.618147592" /><line stroke="rgb(0%,0%,0%)" x1="431.532867054" x2="427.389784632" y1="788.043805228" y2="786.991480638" /><line stroke="rgb(0%,0%,0%)" x1="431.532867054" x2="436.335960061" y1="788.043805228" y2="789.017688484" /><line stroke="rgb(0%,0%,0%)" x1="370.483808584" x2="373.905173171" y1="755.598308891" y2="758.967015018" /><line stroke="rgb(0%,0%,0%)" x1="378.790574894" x2="393.076596687" y1="761.79042263" y2="770.579750896" /><line stroke="rgb(0%,0%,0%)" x1="373.905173171" x2="378.790574894" y1="758.967015018" y2="761.79042263" /><line stroke="rgb(0%,0%,0%)" x1="395.368114775" x2="402.845832003" y1="771.797334227" y2="775.738608187" /><line stroke="rgb(0%,0%,0%)" x1="393.076596687" x2="395.368114775" y1="770.579750896" y2="771.797334227" /><line stroke="rgb(0%,0%,0%)" x1="328.457050943" x2="330.38287356" y1="655.858008432" y2="661.093987038" /><line stroke="rgb(0%,0%,0%)" x1="331.259744432" x2="334.246563397" y1="719.635323733" y2="723.423206553" /><line stroke="rgb(0%,0%,0%)" x1="331.259744432" x2="326.357222826" y1="719.635323733" y2="709.290181245" /><line stroke="rgb(0%,0%,0%)" x1="354.026193778" x2="337.247697573" y1="742.534129085" y2="727.587171582" /><line stroke="rgb(0%,0%,0%)" x1="354.026193778" x2="357.499338914" y1="742.534129085" y2="746.203281986" /><line stroke="rgb(0%,0%,0%)" x1="247.376500021" x2="251.201433952" y1="531.22769744" y2="536.798738037" /><line stroke="rgb(0%,0%,0%)" x1="269.253142221" x2="266.490306684" y1="570.657516587" y2="572.291423388" /><line stroke="rgb(0%,0%,0%)" x1="272.447617897" x2="269.253142221" y1="568.998602543" y2="570.657516587" /><line stroke="rgb(0%,0%,0%)" x1="272.447617897" x2="273.524876034" y1="568.998602543" y2="568.834869803" /><line stroke="rgb(0%,0%,0%)" x1="293.045445249" x2="284.302014401" y1="512.615383681" y2="508.931127882" /><line stroke="rgb(0%,0%,0%)" x1="282.662818835" x2="289.279827403" y1="491.998819552" y2="498.446549109" /><line stroke="rgb(0%,0%,0%)" x1="270.410457327" x2="282.662818835" y1="482.030950218" y2="491.998819552" /><line stroke="rgb(0%,0%,0%)" x1="296.350453749" x2="293.87812588" y1="512.150214053" y2="512.619508627" /><line stroke="rgb(0%,0%,0%)" x1="296.498794052" x2="296.350453749" y1="509.754337015" y2="512.150214053" /><line stroke="rgb(0%,0%,0%)" x1="293.045445249" x2="293.87812588" y1="512.615383681" y2="512.619508627" /><line stroke="rgb(0%,0%,0%)" x1="295.97627509" x2="296.498794052" y1="508.079537832" y2="509.754337015" /><line stroke="rgb(0%,0%,0%)" x1="290.555064517" x2="292.489151804" y1="500.178529078" y2="502.268902836" /><line stroke="rgb(0%,0%,0%)" x1="289.279827403" x2="290.555064517" y1="498.446549109" y2="500.178529078" /><line stroke="rgb(0%,0%,0%)" x1="326.090160472" x2="326.357222826" y1="708.660410694" y2="709.290181245" /><line stroke="rgb(0%,0%,0%)" x1="324.980780523" x2="326.090160472" y1="702.12552895" y2="708.660410694" /><line stroke="rgb(0%,0%,0%)" x1="324.537349239" x2="324.980780523" y1="698.988629889" y2="702.12552895" /><line stroke="rgb(0%,0%,0%)" x1="327.803286643" x2="324.537349239" y1="689.812380105" y2="698.988629889" /><line stroke="rgb(0%,0%,0%)" x1="325.098295036" x2="328.457050943" y1="653.672236034" y2="655.858008432" /><line stroke="rgb(0%,0%,0%)" x1="334.246563397" x2="337.247697573" y1="723.423206553" y2="727.587171582" /><line stroke="rgb(0%,0%,0%)" x1="226.223385186" x2="228.065227301" y1="474.991505767" y2="475.583103029" /><line stroke="rgb(0%,0%,0%)" x1="272.795421073" x2="263.491976814" y1="609.554954882" y2="594.479547701" /><line stroke="rgb(0%,0%,0%)" x1="261.280911854" x2="262.164116805" y1="584.454111002" y2="591.788912118" /><line stroke="rgb(0%,0%,0%)" x1="262.164116805" x2="263.491976814" y1="591.788912118" y2="594.479547701" /><line stroke="rgb(0%,0%,0%)" x1="266.490306684" x2="263.47327476" y1="572.291423388" y2="573.99905873" /><line stroke="rgb(0%,0%,0%)" x1="266.188830156" x2="268.845138396" y1="551.674039412" y2="553.716133995" /><line stroke="rgb(0%,0%,0%)" x1="263.525012988" x2="266.188830156" y1="548.299594623" y2="551.674039412" /><line stroke="rgb(0%,0%,0%)" x1="273.534770776" x2="269.153888257" y1="504.413106012" y2="501.275854392" /><line stroke="rgb(0%,0%,0%)" x1="270.410457327" x2="270.031491591" y1="482.030950218" y2="480.146463579" /><line stroke="rgb(0%,0%,0%)" x1="265.11391834" x2="270.031491591" y1="466.554857916" y2="480.146463579" /><line stroke="rgb(0%,0%,0%)" x1="265.11391834" x2="265.534956313" y1="466.554857916" y2="459.300228467" /><line stroke="rgb(0%,0%,0%)" x1="272.795421073" x2="284.642303372" y1="609.554954882" y2="626.175316888" /><line stroke="rgb(0%,0%,0%)" x1="276.574123773" x2="276.631719639" y1="566.816489419" y2="567.839339554" /><line stroke="rgb(0%,0%,0%)" x1="275.788227634" x2="273.524876034" y1="568.289135491" y2="568.834869803" /><line stroke="rgb(0%,0%,0%)" x1="276.631719639" x2="275.788227634" y1="567.839339554" y2="568.289135491" /><line stroke="rgb(0%,0%,0%)" x1="273.804186176" x2="276.574123773" y1="562.886025005" y2="566.816489419" /><line stroke="rgb(0%,0%,0%)" x1="273.804186176" x2="273.499091936" y1="562.886025005" y2="560.981662425" /><line stroke="rgb(0%,0%,0%)" x1="271.332188928" x2="273.499091936" y1="557.977714104" y2="560.981662425" /><line stroke="rgb(0%,0%,0%)" x1="284.302014401" x2="274.340850708" y1="508.931127882" y2="504.855129706" /><line stroke="rgb(0%,0%,0%)" x1="274.340850708" x2="273.534770776" y1="504.855129706" y2="504.413106012" /><line stroke="rgb(0%,0%,0%)" x1="292.489151804" x2="295.97627509" y1="502.268902836" y2="508.079537832" /><line stroke="rgb(0%,0%,0%)" x1="292.351087728" x2="296.225851552" y1="636.723202938" y2="642.008060701" /><line stroke="rgb(0%,0%,0%)" x1="296.225851552" x2="296.569891477" y1="642.008060701" y2="642.318426412" /><line stroke="rgb(0%,0%,0%)" x1="223.700514579" x2="228.563697505" y1="495.917698133" y2="502.947178496" /><line stroke="rgb(0%,0%,0%)" x1="219.444647174" x2="222.500352596" y1="489.969559616" y2="494.528830006" /><line stroke="rgb(0%,0%,0%)" x1="217.599740037" x2="219.444647174" y1="486.501978652" y2="489.969559616" /><line stroke="rgb(0%,0%,0%)" x1="217.072424203" x2="217.599740037" y1="485.508304126" y2="486.501978652" /><line stroke="rgb(0%,0%,0%)" x1="217.072424203" x2="216.600349654" y1="485.508304126" y2="483.614996846" /><line stroke="rgb(0%,0%,0%)" x1="217.599145234" x2="217.231874728" y1="479.389369855" y2="481.965413544" /><line stroke="rgb(0%,0%,0%)" x1="217.599145234" x2="219.355378481" y1="479.389369855" y2="476.643588887" /><line stroke="rgb(0%,0%,0%)" x1="220.430610666" x2="219.355378481" y1="475.17397592" y2="476.643588887" /><line stroke="rgb(0%,0%,0%)" x1="223.635171396" x2="220.430610666" y1="474.856620966" y2="475.17397592" /><line stroke="rgb(0%,0%,0%)" x1="226.223385186" x2="223.635171396" y1="474.991505767" y2="474.856620966" /><line stroke="rgb(0%,0%,0%)" x1="244.519729067" x2="239.051905825" y1="528.027278861" y2="520.425570844" /><line stroke="rgb(0%,0%,0%)" x1="230.879869933" x2="236.184522693" y1="505.722827331" y2="515.010480049" /><line stroke="rgb(0%,0%,0%)" x1="238.348620626" x2="234.471414685" y1="480.163757846" y2="478.705326471" /><line stroke="rgb(0%,0%,0%)" x1="234.471414685" x2="231.814629304" y1="478.705326471" y2="477.498023539" /><line stroke="rgb(0%,0%,0%)" x1="231.814629304" x2="228.065227301" y1="477.498023539" y2="475.583103029" /><line stroke="rgb(0%,0%,0%)" x1="253.829550727" x2="261.785885463" y1="539.348164882" y2="546.138992866" /><line stroke="rgb(0%,0%,0%)" x1="251.201433952" x2="253.829550727" y1="536.798738037" y2="539.348164882" /><line stroke="rgb(0%,0%,0%)" x1="263.47327476" x2="261.620699119" y1="573.99905873" y2="576.308178594" /><line stroke="rgb(0%,0%,0%)" x1="217.231874728" x2="216.600349654" y1="481.965413544" y2="483.614996846" /><line stroke="rgb(0%,0%,0%)" x1="229.975592481" x2="230.879869933" y1="504.658699641" y2="505.722827331" /><line stroke="rgb(0%,0%,0%)" x1="228.563697505" x2="229.975592481" y1="502.947178496" y2="504.658699641" /><line stroke="rgb(0%,0%,0%)" x1="222.500352596" x2="223.700514579" y1="494.528830006" y2="495.917698133" /><line stroke="rgb(0%,0%,0%)" x1="238.805083404" x2="239.051905825" y1="520.122434033" y2="520.425570844" /><line stroke="rgb(0%,0%,0%)" x1="236.779477155" x2="238.805083404" y1="516.162841637" y2="520.122434033" /><line stroke="rgb(0%,0%,0%)" x1="679.0899733" x2="679.147670192" y1="439.33817758" y2="439.681419739" /><line stroke="rgb(0%,0%,0%)" x1="679.0899733" x2="679.097433734" y1="439.33817758" y2="439.126525437" /><line stroke="rgb(0%,0%,0%)" x1="679.147670192" x2="679.187916249" y1="439.681419739" y2="440.298146922" /><line stroke="rgb(0%,0%,0%)" x1="666.615613676" x2="662.133032837" y1="360.897073919" y2="347.807756311" /><line stroke="rgb(0%,0%,0%)" x1="661.659769417" x2="662.133032837" y1="346.669115708" y2="347.807756311" /><line stroke="rgb(0%,0%,0%)" x1="661.659769417" x2="661.324833283" y1="346.669115708" y2="345.785375102" /><line stroke="rgb(0%,0%,0%)" x1="661.324833283" x2="660.90811615" y1="345.785375102" y2="344.003621477" /><line stroke="rgb(0%,0%,0%)" x1="657.783214419" x2="655.364811891" y1="332.481775094" y2="323.376811587" /><line stroke="rgb(0%,0%,0%)" x1="674.80317987" x2="675.128755334" y1="406.054863041" y2="407.589219286" /><line stroke="rgb(0%,0%,0%)" x1="674.031256766" x2="673.921410733" y1="396.415588798" y2="395.29237643" /><line stroke="rgb(0%,0%,0%)" x1="673.921410733" x2="673.403259865" y1="395.29237643" y2="393.181999451" /><line stroke="rgb(0%,0%,0%)" x1="673.059846382" x2="673.403259865" y1="391.530129838" y2="393.181999451" /><line stroke="rgb(0%,0%,0%)" x1="666.615613676" x2="668.352746783" y1="360.897073919" y2="368.383395245" /><line stroke="rgb(0%,0%,0%)" x1="679.097433734" x2="679.067269015" y1="439.126525437" y2="438.488699399" /><line stroke="rgb(0%,0%,0%)" x1="676.280504057" x2="677.434896618" y1="421.248385874" y2="426.47125888" /><line stroke="rgb(0%,0%,0%)" x1="676.280504057" x2="675.549031527" y1="421.248385874" y2="412.766613938" /><line stroke="rgb(0%,0%,0%)" x1="641.911805511" x2="638.672546077" y1="284.745590715" y2="275.154469335" /><line stroke="rgb(0%,0%,0%)" x1="637.805025293" x2="638.672546077" y1="273.259401254" y2="275.154469335" /><line stroke="rgb(0%,0%,0%)" x1="637.805025293" x2="637.312297198" y1="273.259401254" y2="269.5903846" /><line stroke="rgb(0%,0%,0%)" x1="631.644514571" x2="633.558975682" y1="260.237521264" y2="262.430982534" /><line stroke="rgb(0%,0%,0%)" x1="631.644514571" x2="627.888592852" y1="260.237521264" y2="252.300144879" /><line stroke="rgb(0%,0%,0%)" x1="647.974493823" x2="647.490089835" y1="300.523847904" y2="299.646064876" /><line stroke="rgb(0%,0%,0%)" x1="647.974493823" x2="649.757452462" y1="300.523847904" y2="305.77114608" /><line stroke="rgb(0%,0%,0%)" x1="647.490089835" x2="643.284630721" y1="299.646064876" y2="288.418768813" /><line stroke="rgb(0%,0%,0%)" x1="643.284630721" x2="641.911805511" y1="288.418768813" y2="284.745590715" /><line stroke="rgb(0%,0%,0%)" x1="660.90811615" x2="657.783214419" y1="344.003621477" y2="332.481775094" /><line stroke="rgb(0%,0%,0%)" x1="673.059846382" x2="671.348413454" y1="391.530129838" y2="381.009611573" /><line stroke="rgb(0%,0%,0%)" x1="679.784638601" x2="679.187916249" y1="457.035355488" y2="440.298146922" /><line stroke="rgb(0%,0%,0%)" x1="675.549031527" x2="675.128755334" y1="412.766613938" y2="407.589219286" /><line stroke="rgb(0%,0%,0%)" x1="674.80317987" x2="674.031256766" y1="406.054863041" y2="396.415588798" /><line stroke="rgb(0%,0%,0%)" x1="599.956225624" x2="605.858098527" y1="197.956405996" y2="207.348840082" /><line stroke="rgb(0%,0%,0%)" x1="566.404648408" x2="563.299056553" y1="162.71248274" y2="160.820355998" /><line stroke="rgb(0%,0%,0%)" x1="576.129198965" x2="579.079437365" y1="166.248375341" y2="168.529815843" /><line stroke="rgb(0%,0%,0%)" x1="566.404648408" x2="567.996980861" y1="162.71248274" y2="163.057982454" /><line stroke="rgb(0%,0%,0%)" x1="591.021126262" x2="589.520907646" y1="188.282566763" y2="184.074664761" /><line stroke="rgb(0%,0%,0%)" x1="589.520907646" x2="587.036952096" y1="184.074664761" y2="179.035428318" /><line stroke="rgb(0%,0%,0%)" x1="587.036952096" x2="583.325045367" y1="179.035428318" y2="173.901417175" /><line stroke="rgb(0%,0%,0%)" x1="599.956225624" x2="591.021126262" y1="197.956405996" y2="188.282566763" /><line stroke="rgb(0%,0%,0%)" x1="523.59040848" x2="526.486963544" y1="145.792305592" y2="146.834402022" /><line stroke="rgb(0%,0%,0%)" x1="576.129198965" x2="567.996980861" y1="166.248375341" y2="163.057982454" /><line stroke="rgb(0%,0%,0%)" x1="491.003346277" x2="488.761106235" y1="134.41294306" y2="133.548919967" /><line stroke="rgb(0%,0%,0%)" x1="491.003346277" x2="495.576254943" y1="134.41294306" y2="136.071256153" /><line stroke="rgb(0%,0%,0%)" x1="523.59040848" x2="521.13941515" y1="145.792305592" y2="145.025959742" /><line stroke="rgb(0%,0%,0%)" x1="529.987594564" x2="526.486963544" y1="148.776554017" y2="146.834402022" /><line stroke="rgb(0%,0%,0%)" x1="529.987594564" x2="541.67200749" y1="148.776554017" y2="152.090395552" /><line stroke="rgb(0%,0%,0%)" x1="475.184846855" x2="465.698826084" y1="132.388632866" y2="128.675960446" /><line stroke="rgb(0%,0%,0%)" x1="488.761106235" x2="480.072699664" y1="133.548919967" y2="132.710418374" /><line stroke="rgb(0%,0%,0%)" x1="480.072699664" x2="475.184846855" y1="132.710418374" y2="132.388632866" /><line stroke="rgb(0%,0%,0%)" x1="417.894131218" x2="417.674335532" y1="111.474949749" y2="111.420524381" /><line stroke="rgb(0%,0%,0%)" x1="417.894131218" x2="418.118687072" y1="111.474949749" y2="111.491607594" /><line stroke="rgb(0%,0%,0%)" x1="451.536312746" x2="449.862483217" y1="122.502862181" y2="121.469157227" /><line stroke="rgb(0%,0%,0%)" x1="451.536312746" x2="452.345722594" y1="122.502862181" y2="122.706935064" /><line stroke="rgb(0%,0%,0%)" x1="311.499198677" x2="311.73851914" y1="253.816435406" y2="253.715551692" /><line stroke="rgb(0%,0%,0%)" x1="311.499198677" x2="310.902556993" y1="253.816435406" y2="254.16040108" /><line stroke="rgb(0%,0%,0%)" x1="351.942986035" x2="349.965293293" y1="159.684647481" y2="162.224300135" /><line stroke="rgb(0%,0%,0%)" x1="351.942986035" x2="354.413107307" y1="159.684647481" y2="155.483062925" /><line stroke="rgb(0%,0%,0%)" x1="310.902556993" x2="309.183985597" y1="254.16040108" y2="255.547975537" /><line stroke="rgb(0%,0%,0%)" x1="311.73851914" x2="311.837576166" y1="253.715551692" y2="253.699404523" /><line stroke="rgb(0%,0%,0%)" x1="326.064490033" x2="327.579659547" y1="166.946694907" y2="166.453413504" /><line stroke="rgb(0%,0%,0%)" x1="326.064490033" x2="323.799482643" y1="166.946694907" y2="169.028998653" /><line stroke="rgb(0%,0%,0%)" x1="267.109549035" x2="266.01823461" y1="343.340375789" y2="343.576146943" /><line stroke="rgb(0%,0%,0%)" x1="267.109549035" x2="267.649111252" y1="343.340375789" y2="343.354423355" /><line stroke="rgb(0%,0%,0%)" x1="281.313792381" x2="281.191903829" y1="409.79765258" y2="410.215610097" /><line stroke="rgb(0%,0%,0%)" x1="323.799482643" x2="317.92392517" y1="169.028998653" y2="177.90523335" /><line stroke="rgb(0%,0%,0%)" x1="246.467496397" x2="246.523853649" y1="337.166593058" y2="337.762670389" /><line stroke="rgb(0%,0%,0%)" x1="246.523853649" x2="247.548331817" y1="337.762670389" y2="339.081276458" /><line stroke="rgb(0%,0%,0%)" x1="242.80054379" x2="241.353216107" y1="374.347686872" y2="375.640339619" /><line stroke="rgb(0%,0%,0%)" x1="253.1832689" x2="249.178226676" y1="365.82214107" y2="368.087515305" /><line stroke="rgb(0%,0%,0%)" x1="270.132380672" x2="267.940053061" y1="354.605429026" y2="355.898817328" /><line stroke="rgb(0%,0%,0%)" x1="270.132380672" x2="270.445011438" y1="354.605429026" y2="353.903219715" /><line stroke="rgb(0%,0%,0%)" x1="272.99041765" x2="273.337403195" y1="350.35757383" y2="348.988190923" /><line stroke="rgb(0%,0%,0%)" x1="272.99041765" x2="270.445011438" y1="350.35757383" y2="353.903219715" /><line stroke="rgb(0%,0%,0%)" x1="281.313792381" x2="282.080901133" y1="409.79765258" y2="408.689436652" /><line stroke="rgb(0%,0%,0%)" x1="286.689973296" x2="286.599989221" y1="399.540908547" y2="400.334840787" /><line stroke="rgb(0%,0%,0%)" x1="286.689973296" x2="286.717251533" y1="399.540908547" y2="398.140688237" /><line stroke="rgb(0%,0%,0%)" x1="220.934763136" x2="221.835672124" y1="432.865407227" y2="433.149281326" /><line stroke="rgb(0%,0%,0%)" x1="220.934763136" x2="220.169531076" y1="432.865407227" y2="432.982175159" /><line stroke="rgb(0%,0%,0%)" x1="232.844545838" x2="229.892512182" y1="387.999645042" y2="394.198792881" /><line stroke="rgb(0%,0%,0%)" x1="232.844545838" x2="232.928130717" y1="387.999645042" y2="387.715020146" /><line stroke="rgb(0%,0%,0%)" x1="247.548331817" x2="251.776943782" y1="339.081276458" y2="342.713590899" /><line stroke="rgb(0%,0%,0%)" x1="246.350883195" x2="248.460934663" y1="331.561278207" y2="324.982186039" /><line stroke="rgb(0%,0%,0%)" x1="246.350883195" x2="246.467496397" y1="331.561278207" y2="337.166593058" /><line stroke="rgb(0%,0%,0%)" x1="249.178226676" x2="242.80054379" y1="368.087515305" y2="374.347686872" /><line stroke="rgb(0%,0%,0%)" x1="253.1832689" x2="261.00705276" y1="365.82214107" y2="360.497142824" /><line stroke="rgb(0%,0%,0%)" x1="214.851587675" x2="214.86778439" y1="424.201528708" y2="424.891533919" /><line stroke="rgb(0%,0%,0%)" x1="214.851587675" x2="215.07971231" y1="424.201528708" y2="423.607722599" /><line stroke="rgb(0%,0%,0%)" x1="672.549207308" x2="672.014922278" y1="511.430848108" y2="515.87373241" /><line stroke="rgb(0%,0%,0%)" x1="672.834442654" x2="673.656398982" y1="511.592987067" y2="508.265153749" /><line stroke="rgb(0%,0%,0%)" x1="678.58950345" x2="679.006740957" y1="475.440557074" y2="473.835292401" /><line stroke="rgb(0%,0%,0%)" x1="679.869227939" x2="679.842329977" y1="468.425685263" y2="469.690125992" /><line stroke="rgb(0%,0%,0%)" x1="679.869227939" x2="680.052354041" y1="468.425685263" y2="466.884707314" /><line stroke="rgb(0%,0%,0%)" x1="680.052354041" x2="680.104046646" y1="466.884707314" y2="462.527140498" /><line stroke="rgb(0%,0%,0%)" x1="679.985234524" x2="680.104046646" y1="461.715469666" y2="462.527140498" /><line stroke="rgb(0%,0%,0%)" x1="650.884942221" x2="648.879993012" y1="596.626661906" y2="601.965587347" /><line stroke="rgb(0%,0%,0%)" x1="651.997956997" x2="650.884942221" y1="593.666193472" y2="596.626661906" /><line stroke="rgb(0%,0%,0%)" x1="652.465283445" x2="651.997956997" y1="591.892898536" y2="593.666193472" /><line stroke="rgb(0%,0%,0%)" x1="659.113112394" x2="659.479853418" y1="567.608978586" y2="569.71572753" /><line stroke="rgb(0%,0%,0%)" x1="659.113112394" x2="660.795955944" y1="567.608978586" y2="563.373827514" /><line stroke="rgb(0%,0%,0%)" x1="660.795955944" x2="661.334938156" y1="563.373827514" y2="561.44115517" /><line stroke="rgb(0%,0%,0%)" x1="661.334938156" x2="662.900689373" y1="561.44115517" y2="552.733639149" /><line stroke="rgb(0%,0%,0%)" x1="663.110304313" x2="662.900689373" y1="551.104103813" y2="552.733639149" /><line stroke="rgb(0%,0%,0%)" x1="663.110304313" x2="663.554166719" y1="551.104103813" y2="549.762072838" /><line stroke="rgb(0%,0%,0%)" x1="663.554166719" x2="666.25168639" y1="549.762072838" y2="538.9460568" /><line stroke="rgb(0%,0%,0%)" x1="672.549207308" x2="672.834442654" y1="511.430848108" y2="511.592987067" /><line stroke="rgb(0%,0%,0%)" x1="676.28282566" x2="677.22609584" y1="491.563407695" y2="483.665457609" /><line stroke="rgb(0%,0%,0%)" x1="677.22609584" x2="677.828715059" y1="483.665457609" y2="480.13298984" /><line stroke="rgb(0%,0%,0%)" x1="679.006740957" x2="679.842329977" y1="473.835292401" y2="469.690125992" /><line stroke="rgb(0%,0%,0%)" x1="679.985234524" x2="680.031421411" y1="461.715469666" y2="461.286275199" /><line stroke="rgb(0%,0%,0%)" x1="624.703361674" x2="624.306003543" y1="660.961373589" y2="662.071311804" /><line stroke="rgb(0%,0%,0%)" x1="624.703361674" x2="625.480488982" y1="660.961373589" y2="659.450474136" /><line stroke="rgb(0%,0%,0%)" x1="652.465283445" x2="653.984269883" y1="591.892898536" y2="588.096269791" /><line stroke="rgb(0%,0%,0%)" x1="653.984269883" x2="656.576412148" y1="588.096269791" y2="576.529305673" /><line stroke="rgb(0%,0%,0%)" x1="656.576412148" x2="658.665686879" y1="576.529305673" y2="572.756157811" /><line stroke="rgb(0%,0%,0%)" x1="666.25168639" x2="667.870811525" y1="538.9460568" y2="532.623783477" /><line stroke="rgb(0%,0%,0%)" x1="667.870811525" x2="668.428744356" y1="532.623783477" y2="529.511533823" /><line stroke="rgb(0%,0%,0%)" x1="671.168311431" x2="668.923650517" y1="518.913616089" y2="526.962391849" /><line stroke="rgb(0%,0%,0%)" x1="671.168311431" x2="672.014922278" y1="518.913616089" y2="515.87373241" /><line stroke="rgb(0%,0%,0%)" x1="676.28282566" x2="675.098308719" y1="491.563407695" y2="501.577919134" /><line stroke="rgb(0%,0%,0%)" x1="677.828715059" x2="678.58950345" y1="480.13298984" y2="475.440557074" /><line stroke="rgb(0%,0%,0%)" x1="625.480488982" x2="632.049975924" y1="659.450474136" y2="642.65355721" /><line stroke="rgb(0%,0%,0%)" x1="632.049975924" x2="634.587478196" y1="642.65355721" y2="636.586976839" /><line stroke="rgb(0%,0%,0%)" x1="634.587478196" x2="637.582670078" y1="636.586976839" y2="629.134873168" /><line stroke="rgb(0%,0%,0%)" x1="571.680462731" x2="569.338201999" y1="748.315120929" y2="750.354604755" /><line stroke="rgb(0%,0%,0%)" x1="580.807119798" x2="577.478828921" y1="736.927170818" y2="739.636690728" /><line stroke="rgb(0%,0%,0%)" x1="581.41777554" x2="585.984897511" y1="735.104901747" y2="728.783579053" /><line stroke="rgb(0%,0%,0%)" x1="580.807119798" x2="581.41777554" y1="736.927170818" y2="735.104901747" /><line stroke="rgb(0%,0%,0%)" x1="532.966483363" x2="530.150812708" y1="772.55528074" y2="774.069212792" /><line stroke="rgb(0%,0%,0%)" x1="532.966483363" x2="535.441819652" y1="772.55528074" y2="771.319914631" /><line stroke="rgb(0%,0%,0%)" x1="571.680462731" x2="571.767691411" y1="748.315120929" y2="746.779328305" /><line stroke="rgb(0%,0%,0%)" x1="571.767691411" x2="577.478828921" y1="746.779328305" y2="739.636690728" /><line stroke="rgb(0%,0%,0%)" x1="496.358466625" x2="499.719408824" y1="788.304515528" y2="787.364303254" /><line stroke="rgb(0%,0%,0%)" x1="496.358466625" x2="492.28882323" y1="788.304515528" y2="789.566980451" /><line stroke="rgb(0%,0%,0%)" x1="499.719408824" x2="513.738391554" y1="787.364303254" y2="782.141992861" /><line stroke="rgb(0%,0%,0%)" x1="530.150812708" x2="516.745147352" y1="774.069212792" y2="780.762066529" /><line stroke="rgb(0%,0%,0%)" x1="458.784081038" x2="457.799869952" y1="790.405180301" y2="790.399733809" /><line stroke="rgb(0%,0%,0%)" x1="472.127778305" x2="482.552050913" y1="790.269677526" y2="789.621534002" /><line stroke="rgb(0%,0%,0%)" x1="438.17326229" x2="441.651030108" y1="790.091499623" y2="790.523394869" /><line stroke="rgb(0%,0%,0%)" x1="438.17326229" x2="436.335960061" y1="790.091499623" y2="789.017688484" /><line stroke="rgb(0%,0%,0%)" x1="458.784081038" x2="467.071233965" y1="790.405180301" y2="791.476871365" /><line stroke="rgb(0%,0%,0%)" x1="467.071233965" x2="472.127778305" y1="791.476871365" y2="790.269677526" /><line stroke="rgb(0%,0%,0%)" x1="361.293075307" x2="364.302144433" y1="748.755306133" y2="751.082145658" /><line stroke="rgb(0%,0%,0%)" x1="364.302144433" x2="370.483808584" y1="751.082145658" y2="755.598308891" /><line stroke="rgb(0%,0%,0%)" x1="361.293075307" x2="357.499338914" y1="748.755306133" y2="746.203281986" /><line stroke="rgb(0%,0%,0%)" x1="331.088320952" x2="327.803286643" y1="677.545279306" y2="689.812380105" /><line stroke="rgb(0%,0%,0%)" x1="331.115288397" x2="331.189526032" y1="662.34199446" y2="663.519442002" /><line stroke="rgb(0%,0%,0%)" x1="331.115288397" x2="330.38287356" y1="662.34199446" y2="661.093987038" /><line stroke="rgb(0%,0%,0%)" x1="321.593355859" x2="325.098295036" y1="653.105635788" y2="653.672236034" /><line stroke="rgb(0%,0%,0%)" x1="331.189526032" x2="331.088320952" y1="663.519442002" y2="677.545279306" /><line stroke="rgb(0%,0%,0%)" x1="245.924665108" x2="247.376500021" y1="528.557868588" y2="531.22769744" /><line stroke="rgb(0%,0%,0%)" x1="262.481979888" x2="263.525012988" y1="547.009376111" y2="548.299594623" /><line stroke="rgb(0%,0%,0%)" x1="285.427718044" x2="286.110024391" y1="627.018502024" y2="628.070646469" /><line stroke="rgb(0%,0%,0%)" x1="285.427718044" x2="284.642303372" y1="627.018502024" y2="626.175316888" /><line stroke="rgb(0%,0%,0%)" x1="286.110024391" x2="292.351087728" y1="628.070646469" y2="636.723202938" /><line stroke="rgb(0%,0%,0%)" x1="303.592317446" x2="311.246447719" y1="648.621061385" y2="651.063001483" /><line stroke="rgb(0%,0%,0%)" x1="303.592317446" x2="296.569891477" y1="648.621061385" y2="642.318426412" /><line stroke="rgb(0%,0%,0%)" x1="315.721204353" x2="321.593355859" y1="652.363910355" y2="653.105635788" /><line stroke="rgb(0%,0%,0%)" x1="311.246447719" x2="315.721204353" y1="651.063001483" y2="652.363910355" /><line stroke="rgb(0%,0%,0%)" x1="236.251779881" x2="236.256128508" y1="515.137834762" y2="515.143268304" /><line stroke="rgb(0%,0%,0%)" x1="236.256128508" x2="236.779477155" y1="515.143268304" y2="516.162841637" /><line stroke="rgb(0%,0%,0%)" x1="236.251779881" x2="236.246589036" y1="515.137834762" y2="515.128734293" /><line stroke="rgb(0%,0%,0%)" x1="236.246589036" x2="236.184522693" y1="515.128734293" y2="515.010480049" /><line stroke="rgb(0%,0%,0%)" x1="260.392995845" x2="261.280911854" y1="577.919679339" y2="584.454111002" /><line stroke="rgb(0%,0%,0%)" x1="260.392995845" x2="261.620699119" y1="577.919679339" y2="576.308178594" /><line stroke="rgb(0%,0%,0%)" x1="245.924665108" x2="244.519729067" y1="528.557868588" y2="528.027278861" /><line stroke="rgb(0%,0%,0%)" x1="246.370479549" x2="238.348620626" y1="485.382847134" y2="480.163757846" /><line stroke="rgb(0%,0%,0%)" x1="246.370479549" x2="269.153888257" y1="485.382847134" y2="501.275854392" /><line stroke="rgb(0%,0%,0%)" x1="269.066622158" x2="271.332188928" y1="554.785876522" y2="557.977714104" /><line stroke="rgb(0%,0%,0%)" x1="269.066622158" x2="268.845138396" y1="554.785876522" y2="553.716133995" /><line stroke="rgb(0%,0%,0%)" x1="262.481979888" x2="261.785885463" y1="547.009376111" y2="546.138992866" /><line stroke="rgb(0%,0%,0%)" x1="266.960006366" x2="265.534956313" y1="451.580714224" y2="459.300228467" /><line stroke="rgb(0%,0%,0%)" x1="269.610552015" x2="266.960006366" y1="444.755544797" y2="451.580714224" /><line stroke="rgb(0%,0%,0%)" x1="272.357360188" x2="279.259980944" y1="439.645046777" y2="429.389710389" /><line stroke="rgb(0%,0%,0%)" x1="269.610552015" x2="272.357360188" y1="444.755544797" y2="439.645046777" /></svg>