<?xml version="1.0" encoding="utf-8" ?>
<svg baseProfile="full" height="100%" version="1.1" viewBox="0.5 0.5 685.793960571 941.299331665" width="100%" xmlns="http://www.w3.org/2000/svg" xmlns:ev="http://www.w3.org/2001/xml-events" xmlns:xlink="http://www.w3.org/1999/xlink"><defs /><line stroke="rgb(0%,0%,0%)" x1="424.220495547" x2="424.428030784" y1="623.591367229" y2="623.457183753" /><line stroke="rgb(0%,0%,0%)" x1="475.516854392" x2="475.879922281" y1="360.6865383" y2="361.156554587" /><line stroke="rgb(0%,0%,0%)" x1="484.407131067" x2="475.879922281" y1="375.223265968" y2="361.156554587" /><line stroke="rgb(0%,0%,0%)" x1="475.241793937" x2="475.516854392" y1="360.445119078" y2="360.6865383" /><line stroke="rgb(0%,0%,0%)" x1="475.241793937" x2="475.200783662" y1="360.445119078" y2="360.381782198" /><line stroke="rgb(0%,0%,0%)" x1="484.407131067" x2="489.48177653" y1="375.223265968" y2="384.466351839" /><line stroke="rgb(0%,0%,0%)" x1="504.580927332" x2="503.855155179" y1="462.451192394" y2="451.173753832" /><line stroke="rgb(0%,0%,0%)" x1="498.749467921" x2="495.773444618" y1="427.08864426" y2="413.994160683" /><line stroke="rgb(0%,0%,0%)" x1="475.200783662" x2="474.134497222" y1="360.381782198" y2="359.474750092" /><line stroke="rgb(0%,0%,0%)" x1="474.134497222" x2="469.98895968" y1="359.474750092" y2="355.96909381" /><line stroke="rgb(0%,0%,0%)" x1="495.773444618" x2="495.695066928" y1="413.994160683" y2="413.54988495" /><line stroke="rgb(0%,0%,0%)" x1="495.695066928" x2="495.403708414" y1="413.54988495" y2="412.76131102" /><line stroke="rgb(0%,0%,0%)" x1="491.486951231" x2="495.403708414" y1="389.24399242" y2="412.76131102" /><line stroke="rgb(0%,0%,0%)" x1="491.486951231" x2="489.48177653" y1="389.24399242" y2="384.466351839" /><line stroke="rgb(0%,0%,0%)" x1="504.418508216" x2="504.580927332" y1="463.722136787" y2="462.451192394" /><line stroke="rgb(0%,0%,0%)" x1="503.855155179" x2="503.783499711" y1="451.173753832" y2="449.863849066" /><line stroke="rgb(0%,0%,0%)" x1="500.976267983" x2="503.783499711" y1="435.614472148" y2="449.863849066" /><line stroke="rgb(0%,0%,0%)" x1="500.976267983" x2="499.818739474" y1="435.614472148" y2="429.980374898" /><line stroke="rgb(0%,0%,0%)" x1="499.818739474" x2="499.277148798" y1="429.980374898" y2="428.108949722" /><line stroke="rgb(0%,0%,0%)" x1="499.277148798" x2="498.749467921" y1="428.108949722" y2="427.08864426" /><line stroke="rgb(0%,0%,0%)" x1="388.835159002" x2="384.579367506" y1="280.027981354" y2="278.076550487" /><line stroke="rgb(0%,0%,0%)" x1="388.835159002" x2="393.81654124" y1="280.027981354" y2="282.840542834" /><line stroke="rgb(0%,0%,0%)" x1="416.166238976" x2="409.107084629" y1="304.511390666" y2="298.217606364" /><line stroke="rgb(0%,0%,0%)" x1="408.517088576" x2="409.107084629" y1="297.450846453" y2="298.217606364" /><line stroke="rgb(0%,0%,0%)" x1="403.908986576" x2="398.717310143" y1="291.698673105" y2="288.111840238" /><line stroke="rgb(0%,0%,0%)" x1="398.717310143" x2="395.880255428" y1="288.111840238" y2="284.784887039" /><line stroke="rgb(0%,0%,0%)" x1="361.961286094" x2="365.571274716" y1="272.830256243" y2="274.593664872" /><line stroke="rgb(0%,0%,0%)" x1="369.691135406" x2="375.221963978" y1="274.229071256" y2="274.920415985" /><line stroke="rgb(0%,0%,0%)" x1="369.691135406" x2="365.571274716" y1="274.229071256" y2="274.593664872" /><line stroke="rgb(0%,0%,0%)" x1="382.01182037" x2="384.579367506" y1="277.508973207" y2="278.076550487" /><line stroke="rgb(0%,0%,0%)" x1="382.01182037" x2="378.956574022" y1="277.508973207" y2="276.005687302" /><line stroke="rgb(0%,0%,0%)" x1="378.956574022" x2="375.221963978" y1="276.005687302" y2="274.920415985" /><line stroke="rgb(0%,0%,0%)" x1="395.880255428" x2="393.81654124" y1="284.784887039" y2="282.840542834" /><line stroke="rgb(0%,0%,0%)" x1="408.517088576" x2="403.908986576" y1="297.450846453" y2="291.698673105" /><line stroke="rgb(0%,0%,0%)" x1="312.439613427" x2="313.044296058" y1="257.277216734" y2="257.070036388" /><line stroke="rgb(0%,0%,0%)" x1="313.044296058" x2="318.280608658" y1="257.070036388" y2="258.083233638" /><line stroke="rgb(0%,0%,0%)" x1="341.56966501" x2="333.483768671" y1="265.148149495" y2="262.760174196" /><line stroke="rgb(0%,0%,0%)" x1="331.367167377" x2="326.447903458" y1="261.797450191" y2="260.367140049" /><line stroke="rgb(0%,0%,0%)" x1="349.404421476" x2="344.216375138" y1="267.196105158" y2="266.491261031" /><line stroke="rgb(0%,0%,0%)" x1="341.56966501" x2="344.216375138" y1="265.148149495" y2="266.491261031" /><line stroke="rgb(0%,0%,0%)" x1="351.890795874" x2="350.721430173" y1="268.53491839" y2="267.668209955" /><line stroke="rgb(0%,0%,0%)" x1="361.961286094" x2="357.392595839" y1="272.830256243" y2="271.224189177" /><line stroke="rgb(0%,0%,0%)" x1="357.392595839" x2="351.890795874" y1="271.224189177" y2="268.53491839" /><line stroke="rgb(0%,0%,0%)" x1="350.721430173" x2="349.404421476" y1="267.668209955" y2="267.196105158" /><line stroke="rgb(0%,0%,0%)" x1="268.795256623" x2="268.034734387" y1="111.308937336" y2="111.216879986" /><line stroke="rgb(0%,0%,0%)" x1="264.609848841" x2="262.673889858" y1="72.9193289073" y2="76.0597259023" /><line stroke="rgb(0%,0%,0%)" x1="266.782869" x2="264.776144335" y1="61.7288887975" y2="57.614705224" /><line stroke="rgb(0%,0%,0%)" x1="263.66314129" x2="264.776144335" y1="52.4754683972" y2="57.614705224" /><line stroke="rgb(0%,0%,0%)" x1="270.260385742" x2="271.362910961" y1="21.6453742611" y2="22.2783908248" /><line stroke="rgb(0%,0%,0%)" x1="290.527693392" x2="292.868915731" y1="257.355080875" y2="256.437328628" /><line stroke="rgb(0%,0%,0%)" x1="268.795256623" x2="275.587905694" y1="111.308937336" y2="110.438601474" /><line stroke="rgb(0%,0%,0%)" x1="275.587905694" x2="276.637239429" y1="110.438601474" y2="109.932994205" /><line stroke="rgb(0%,0%,0%)" x1="276.637239429" x2="279.380032336" y1="109.932994205" y2="107.651391067" /><line stroke="rgb(0%,0%,0%)" x1="285.461775128" x2="279.918439667" y1="33.3029879126" y2="27.4361916558" /><line stroke="rgb(0%,0%,0%)" x1="279.407062909" x2="279.918439667" y1="26.9591666495" y2="27.4361916558" /><line stroke="rgb(0%,0%,0%)" x1="279.407062909" x2="279.097746666" y1="26.9591666495" y2="26.7958152147" /><line stroke="rgb(0%,0%,0%)" x1="279.097746666" x2="278.940391221" y1="26.7958152147" y2="26.4324365253" /><line stroke="rgb(0%,0%,0%)" x1="297.6386474" x2="295.214574991" y1="256.956439798" y2="256.531501748" /><line stroke="rgb(0%,0%,0%)" x1="306.582654138" x2="301.791663023" y1="257.080738756" y2="256.871214268" /><line stroke="rgb(0%,0%,0%)" x1="290.903444002" x2="286.292627898" y1="91.4126796317" y2="99.5598184508" /><line stroke="rgb(0%,0%,0%)" x1="295.156339999" x2="293.696499521" y1="82.8479675745" y2="86.7183928125" /><line stroke="rgb(0%,0%,0%)" x1="290.903444002" x2="293.696499521" y1="91.4126796317" y2="86.7183928125" /><line stroke="rgb(0%,0%,0%)" x1="295.156339999" x2="296.340664303" y1="82.8479675745" y2="77.7261952931" /><line stroke="rgb(0%,0%,0%)" x1="296.340664303" x2="296.586939693" y1="77.7261952931" y2="70.6623181343" /><line stroke="rgb(0%,0%,0%)" x1="296.586939693" x2="295.020140233" y1="70.6623181343" y2="65.7289949979" /><line stroke="rgb(0%,0%,0%)" x1="292.688741265" x2="294.406690517" y1="53.14717689" y2="60.4954775018" /><line stroke="rgb(0%,0%,0%)" x1="292.688741265" x2="291.983407224" y1="53.14717689" y2="50.5431946491" /><line stroke="rgb(0%,0%,0%)" x1="285.906351532" x2="285.461775128" y1="33.9662801582" y2="33.3029879126" /><line stroke="rgb(0%,0%,0%)" x1="285.906351532" x2="286.660378233" y1="33.9662801582" y2="35.912911284" /><line stroke="rgb(0%,0%,0%)" x1="312.439613427" x2="306.582654138" y1="257.277216734" y2="257.080738756" /><line stroke="rgb(0%,0%,0%)" x1="301.791663023" x2="297.6386474" y1="256.871214268" y2="256.956439798" /><line stroke="rgb(0%,0%,0%)" x1="323.398785175" x2="318.280608658" y1="259.537499421" y2="258.083233638" /><line stroke="rgb(0%,0%,0%)" x1="326.447903458" x2="324.639291767" y1="260.367140049" y2="259.902762453" /><line stroke="rgb(0%,0%,0%)" x1="333.483768671" x2="331.367167377" y1="262.760174196" y2="261.797450191" /><line stroke="rgb(0%,0%,0%)" x1="241.07455909" x2="241.311489444" y1="24.8078418929" y2="27.9856082555" /><line stroke="rgb(0%,0%,0%)" x1="260.1503354" x2="266.164836611" y1="256.34188179" y2="255.806144514" /><line stroke="rgb(0%,0%,0%)" x1="260.1503354" x2="257.089765839" y1="256.34188179" y2="256.866911355" /><line stroke="rgb(0%,0%,0%)" x1="257.735871932" x2="260.282839149" y1="109.883522122" y2="110.941296413" /><line stroke="rgb(0%,0%,0%)" x1="268.034734387" x2="265.289595894" y1="111.216879986" y2="112.552831814" /><line stroke="rgb(0%,0%,0%)" x1="260.282839149" x2="265.289595894" y1="110.941296413" y2="112.552831814" /><line stroke="rgb(0%,0%,0%)" x1="255.482584931" x2="255.76514036" y1="106.861165082" y2="108.439213705" /><line stroke="rgb(0%,0%,0%)" x1="255.76514036" x2="257.735871932" y1="108.439213705" y2="109.883522122" /><line stroke="rgb(0%,0%,0%)" x1="252.549124376" x2="254.978977187" y1="96.7758178033" y2="93.3868395799" /><line stroke="rgb(0%,0%,0%)" x1="252.549124376" x2="253.004340993" y1="96.7758178033" y2="100.389977793" /><line stroke="rgb(0%,0%,0%)" x1="260.370308305" x2="255.417359492" y1="90.5763917705" y2="92.453777082" /><line stroke="rgb(0%,0%,0%)" x1="261.310867399" x2="261.321155702" y1="80.0760798563" y2="88.8530379578" /><line stroke="rgb(0%,0%,0%)" x1="262.673889858" x2="261.310867399" y1="76.0597259023" y2="80.0760798563" /><line stroke="rgb(0%,0%,0%)" x1="256.712536545" x2="259.184472454" y1="47.1766959462" y2="48.2389455487" /><line stroke="rgb(0%,0%,0%)" x1="256.712536545" x2="253.078463642" y1="47.1766959462" y2="43.5196920338" /><line stroke="rgb(0%,0%,0%)" x1="259.184472454" x2="263.66314129" y1="48.2389455487" y2="52.4754683972" /><line stroke="rgb(0%,0%,0%)" x1="255.690079515" x2="261.133995471" y1="18.3691640867" y2="19.5061364123" /><line stroke="rgb(0%,0%,0%)" x1="278.293808937" x2="268.958456593" y1="256.23096577" y2="255.918921866" /><line stroke="rgb(0%,0%,0%)" x1="266.782869" x2="264.609848841" y1="61.7288887975" y2="72.9193289073" /><line stroke="rgb(0%,0%,0%)" x1="278.940391221" x2="271.362910961" y1="26.4324365253" y2="22.2783908248" /><line stroke="rgb(0%,0%,0%)" x1="270.260385742" x2="265.562630436" y1="21.6453742611" y2="21.0773123022" /><line stroke="rgb(0%,0%,0%)" x1="285.943557469" x2="284.402101277" y1="256.203830239" y2="256.171163789" /><line stroke="rgb(0%,0%,0%)" x1="280.904584349" x2="284.402101277" y1="257.098216454" y2="256.171163789" /><line stroke="rgb(0%,0%,0%)" x1="290.527693392" x2="285.943557469" y1="257.355080875" y2="256.203830239" /><line stroke="rgb(0%,0%,0%)" x1="279.380032336" x2="283.140701875" y1="107.651391067" y2="104.600458597" /><line stroke="rgb(0%,0%,0%)" x1="283.140701875" x2="286.292627898" y1="104.600458597" y2="99.5598184508" /><line stroke="rgb(0%,0%,0%)" x1="291.983407224" x2="289.321124533" y1="50.5431946491" y2="43.0062488637" /><line stroke="rgb(0%,0%,0%)" x1="289.321124533" x2="286.660378233" y1="43.0062488637" y2="35.912911284" /><line stroke="rgb(0%,0%,0%)" x1="295.020140233" x2="294.406690517" y1="65.7289949979" y2="60.4954775018" /><line stroke="rgb(0%,0%,0%)" x1="295.214574991" x2="294.017590224" y1="256.531501748" y2="256.845342958" /><line stroke="rgb(0%,0%,0%)" x1="294.017590224" x2="292.868915731" y1="256.845342958" y2="256.437328628" /><line stroke="rgb(0%,0%,0%)" x1="324.639291767" x2="323.398785175" y1="259.902762453" y2="259.537499421" /><line stroke="rgb(0%,0%,0%)" x1="238.680433675" x2="245.30211432" y1="259.687694653" y2="258.828403423" /><line stroke="rgb(0%,0%,0%)" x1="247.637196975" x2="246.713625852" y1="258.617852443" y2="258.939957114" /><line stroke="rgb(0%,0%,0%)" x1="246.713625852" x2="245.30211432" y1="258.939957114" y2="258.828403423" /><line stroke="rgb(0%,0%,0%)" x1="254.895307059" x2="254.978977187" y1="92.4441511114" y2="93.3868395799" /><line stroke="rgb(0%,0%,0%)" x1="243.848344721" x2="246.289651564" y1="32.1210057148" y2="36.6319089976" /><line stroke="rgb(0%,0%,0%)" x1="246.697764777" x2="253.078463642" y1="37.3506879891" y2="43.5196920338" /><line stroke="rgb(0%,0%,0%)" x1="246.289651564" x2="246.697764777" y1="36.6319089976" y2="37.3506879891" /><line stroke="rgb(0%,0%,0%)" x1="241.311489444" x2="243.848344721" y1="27.9856082555" y2="32.1210057148" /><line stroke="rgb(0%,0%,0%)" x1="246.954988178" x2="243.93307189" y1="17.3898636688" y2="19.5763662721" /><line stroke="rgb(0%,0%,0%)" x1="241.057576127" x2="241.07455909" y1="20.624830335" y2="24.8078418929" /><line stroke="rgb(0%,0%,0%)" x1="243.93307189" x2="241.057576127" y1="19.5763662721" y2="20.624830335" /><line stroke="rgb(0%,0%,0%)" x1="255.690079515" x2="246.954988178" y1="18.3691640867" y2="17.3898636688" /><line stroke="rgb(0%,0%,0%)" x1="251.639363647" x2="247.637196975" y1="257.330619209" y2="258.617852443" /><line stroke="rgb(0%,0%,0%)" x1="257.089765839" x2="251.639363647" y1="256.866911355" y2="257.330619209" /><line stroke="rgb(0%,0%,0%)" x1="255.482584931" x2="255.175205202" y1="106.861165082" y2="105.093369818" /><line stroke="rgb(0%,0%,0%)" x1="253.853946121" x2="255.175205202" y1="101.914829722" y2="105.093369818" /><line stroke="rgb(0%,0%,0%)" x1="253.004340993" x2="253.853946121" y1="100.389977793" y2="101.914829722" /><line stroke="rgb(0%,0%,0%)" x1="255.417359492" x2="254.895307059" y1="92.453777082" y2="92.4441511114" /><line stroke="rgb(0%,0%,0%)" x1="261.321155702" x2="260.370308305" y1="88.8530379578" y2="90.5763917705" /><line stroke="rgb(0%,0%,0%)" x1="265.562630436" x2="261.626183758" y1="21.0773123022" y2="19.9001803847" /><line stroke="rgb(0%,0%,0%)" x1="261.626183758" x2="261.133995471" y1="19.9001803847" y2="19.5061364123" /><line stroke="rgb(0%,0%,0%)" x1="268.958456593" x2="267.731535195" y1="255.918921866" y2="255.930919786" /><line stroke="rgb(0%,0%,0%)" x1="267.731535195" x2="266.164836611" y1="255.930919786" y2="255.806144514" /><line stroke="rgb(0%,0%,0%)" x1="280.904584349" x2="278.293808937" y1="257.098216454" y2="256.23096577" /><line stroke="rgb(0%,0%,0%)" x1="189.934372143" x2="196.887443623" y1="271.54126366" y2="269.463515612" /><line stroke="rgb(0%,0%,0%)" x1="207.741640681" x2="204.070156691" y1="266.810399812" y2="267.326660289" /><line stroke="rgb(0%,0%,0%)" x1="204.070156691" x2="196.887443623" y1="267.326660289" y2="269.463515612" /><line stroke="rgb(0%,0%,0%)" x1="215.70995313" x2="219.036238774" y1="265.276246255" y2="265.090728975" /><line stroke="rgb(0%,0%,0%)" x1="215.70995313" x2="207.741640681" y1="265.276246255" y2="266.810399812" /><line stroke="rgb(0%,0%,0%)" x1="219.036238774" x2="225.316225773" y1="265.090728975" y2="263.015235353" /><line stroke="rgb(0%,0%,0%)" x1="229.847327909" x2="226.512926159" y1="262.519748703" y2="262.748889215" /><line stroke="rgb(0%,0%,0%)" x1="226.512926159" x2="225.316225773" y1="262.748889215" y2="263.015235353" /><line stroke="rgb(0%,0%,0%)" x1="235.537764336" x2="229.847327909" y1="260.326940166" y2="262.519748703" /><line stroke="rgb(0%,0%,0%)" x1="238.680433675" x2="236.937185756" y1="259.687694653" y2="259.850320613" /><line stroke="rgb(0%,0%,0%)" x1="236.937185756" x2="235.537764336" y1="259.850320613" y2="260.326940166" /><line stroke="rgb(0%,0%,0%)" x1="136.92364552" x2="137.653564228" y1="308.808617137" y2="308.115214633" /><line stroke="rgb(0%,0%,0%)" x1="136.92364552" x2="131.497424047" y1="308.808617137" y2="311.46829829" /><line stroke="rgb(0%,0%,0%)" x1="141.379583855" x2="146.673457999" y1="306.652565503" y2="301.65477666" /><line stroke="rgb(0%,0%,0%)" x1="141.379583855" x2="137.653564228" y1="306.652565503" y2="308.115214633" /><line stroke="rgb(0%,0%,0%)" x1="157.366213982" x2="151.764553796" y1="288.993666214" y2="294.803460971" /><line stroke="rgb(0%,0%,0%)" x1="151.764553796" x2="146.972075367" y1="294.803460971" y2="301.319200417" /><line stroke="rgb(0%,0%,0%)" x1="162.059462039" x2="157.366213982" y1="285.63390561" y2="288.993666214" /><line stroke="rgb(0%,0%,0%)" x1="167.744401142" x2="162.059462039" y1="281.35973186" y2="285.63390561" /><line stroke="rgb(0%,0%,0%)" x1="176.432618554" x2="167.744401142" y1="276.17229157" y2="281.35973186" /><line stroke="rgb(0%,0%,0%)" x1="105.496040065" x2="103.763216139" y1="329.313531625" y2="330.088064987" /><line stroke="rgb(0%,0%,0%)" x1="111.901440987" x2="109.116321631" y1="323.461183863" y2="325.573298942" /><line stroke="rgb(0%,0%,0%)" x1="118.923815109" x2="115.68388183" y1="318.758472982" y2="320.720644647" /><line stroke="rgb(0%,0%,0%)" x1="115.68388183" x2="111.901440987" y1="320.720644647" y2="323.461183863" /><line stroke="rgb(0%,0%,0%)" x1="125.942831571" x2="123.13456042" y1="314.317243916" y2="316.641370029" /><line stroke="rgb(0%,0%,0%)" x1="118.923815109" x2="123.13456042" y1="318.758472982" y2="316.641370029" /><line stroke="rgb(0%,0%,0%)" x1="131.497424047" x2="129.301690142" y1="311.46829829" y2="312.956831681" /><line stroke="rgb(0%,0%,0%)" x1="129.301690142" x2="125.942831571" y1="312.956831681" y2="314.317243916" /><line stroke="rgb(0%,0%,0%)" x1="146.861026178" x2="146.673457999" y1="301.457327919" y2="301.65477666" /><line stroke="rgb(0%,0%,0%)" x1="146.972075367" x2="146.861026178" y1="301.319200417" y2="301.457327919" /><line stroke="rgb(0%,0%,0%)" x1="76.4991267514" x2="78.4703495644" y1="349.481299932" y2="346.537348719" /><line stroke="rgb(0%,0%,0%)" x1="76.4991267514" x2="74.1679754995" y1="349.481299932" y2="350.885270003" /><line stroke="rgb(0%,0%,0%)" x1="78.4703495644" x2="91.8935284794" y1="346.537348719" y2="338.402042611" /><line stroke="rgb(0%,0%,0%)" x1="92.4779094041" x2="91.8935284794" y1="337.893016278" y2="338.402042611" /><line stroke="rgb(0%,0%,0%)" x1="92.5236802165" x2="92.4779094041" y1="337.821401549" y2="337.893016278" /><line stroke="rgb(0%,0%,0%)" x1="93.0969751802" x2="92.5236802165" y1="337.532202516" y2="337.821401549" /><line stroke="rgb(0%,0%,0%)" x1="100.022489764" x2="93.0969751802" y1="333.104528406" y2="337.532202516" /><line stroke="rgb(0%,0%,0%)" x1="103.763216139" x2="100.022489764" y1="330.088064987" y2="333.104528406" /><line stroke="rgb(0%,0%,0%)" x1="107.930232159" x2="105.496040065" y1="327.017447013" y2="329.313531625" /><line stroke="rgb(0%,0%,0%)" x1="109.116321631" x2="107.930232159" y1="325.573298942" y2="327.017447013" /><line stroke="rgb(0%,0%,0%)" x1="59.4344917012" x2="59.5949559388" y1="388.276313176" y2="385.912382412" /><line stroke="rgb(0%,0%,0%)" x1="56.1039225508" x2="56.0078262917" y1="392.764546973" y2="393.442331101" /><line stroke="rgb(0%,0%,0%)" x1="61.8552210405" x2="61.7708729926" y1="374.877221952" y2="375.870400892" /><line stroke="rgb(0%,0%,0%)" x1="61.8552210405" x2="62.0281955594" y1="374.877221952" y2="373.961768437" /><line stroke="rgb(0%,0%,0%)" x1="56.0078262917" x2="53.1985531822" y1="393.442331101" y2="396.491370619" /><line stroke="rgb(0%,0%,0%)" x1="57.1306194648" x2="56.1039225508" y1="391.178175096" y2="392.764546973" /><line stroke="rgb(0%,0%,0%)" x1="59.4344917012" x2="57.1306194648" y1="388.276313176" y2="391.178175096" /><line stroke="rgb(0%,0%,0%)" x1="59.8783252343" x2="59.5949559388" y1="382.338506559" y2="385.912382412" /><line stroke="rgb(0%,0%,0%)" x1="59.8096461365" x2="59.8783252343" y1="381.597024883" y2="382.338506559" /><line stroke="rgb(0%,0%,0%)" x1="61.0210493883" x2="59.8096461365" y1="377.910878764" y2="381.597024883" /><line stroke="rgb(0%,0%,0%)" x1="61.7708729926" x2="61.0210493883" y1="375.870400892" y2="377.910878764" /><line stroke="rgb(0%,0%,0%)" x1="65.5115062696" x2="62.0281955594" y1="365.94746318" y2="373.961768437" /><line stroke="rgb(0%,0%,0%)" x1="65.5115062696" x2="66.9268221749" y1="365.94746318" y2="360.397572121" /><line stroke="rgb(0%,0%,0%)" x1="74.1679754995" x2="66.9268221749" y1="350.885270003" y2="360.397572121" /><line stroke="rgb(0%,0%,0%)" x1="24.0591826782" x2="28.2734134076" y1="451.525564818" y2="454.414042532" /><line stroke="rgb(0%,0%,0%)" x1="24.0591826782" x2="22.4714445031" y1="451.525564818" y2="449.503562029" /><line stroke="rgb(0%,0%,0%)" x1="20.9225133189" x2="21.5784603972" y1="437.226181265" y2="444.367815649" /><line stroke="rgb(0%,0%,0%)" x1="23.0344175258" x2="20.9225133189" y1="427.542012366" y2="437.226181265" /><line stroke="rgb(0%,0%,0%)" x1="26.222928236" x2="28.38294608" y1="419.609392269" y2="415.968118093" /><line stroke="rgb(0%,0%,0%)" x1="26.222928236" x2="23.0344175258" y1="419.609392269" y2="427.542012366" /><line stroke="rgb(0%,0%,0%)" x1="34.6921518303" x2="37.5334302931" y1="458.707869947" y2="459.735370765" /><line stroke="rgb(0%,0%,0%)" x1="37.5334302931" x2="38.9033893035" y1="459.735370765" y2="460.260209221" /><line stroke="rgb(0%,0%,0%)" x1="28.2734134076" x2="34.6921518303" y1="454.414042532" y2="458.707869947" /><line stroke="rgb(0%,0%,0%)" x1="31.4849623577" x2="28.38294608" y1="413.990007488" y2="415.968118093" /><line stroke="rgb(0%,0%,0%)" x1="35.6177612447" x2="31.4849623577" y1="409.337947964" y2="413.990007488" /><line stroke="rgb(0%,0%,0%)" x1="40.4979694043" x2="35.6177612447" y1="405.751437505" y2="409.337947964" /><line stroke="rgb(0%,0%,0%)" x1="52.3746520735" x2="40.4979694043" y1="397.262959989" y2="405.751437505" /><line stroke="rgb(0%,0%,0%)" x1="52.3746520735" x2="53.1985531822" y1="397.262959989" y2="396.491370619" /><line stroke="rgb(0%,0%,0%)" x1="21.5784603972" x2="21.6748776091" y1="444.367815649" y2="445.887338614" /><line stroke="rgb(0%,0%,0%)" x1="21.6748776091" x2="22.4714445031" y1="445.887338614" y2="449.503562029" /><line stroke="rgb(0%,0%,0%)" x1="492.133556101" x2="490.978651307" y1="544.481766284" y2="546.823219335" /><line stroke="rgb(0%,0%,0%)" x1="492.133556101" x2="492.962442892" y1="544.481766284" y2="542.296850447" /><line stroke="rgb(0%,0%,0%)" x1="492.962442892" x2="495.494049279" y1="542.296850447" y2="526.431884264" /><line stroke="rgb(0%,0%,0%)" x1="495.494049279" x2="496.095106479" y1="526.431884264" y2="522.450507511" /><line stroke="rgb(0%,0%,0%)" x1="496.095106479" x2="498.780086359" y1="522.450507511" y2="508.631692385" /><line stroke="rgb(0%,0%,0%)" x1="498.936707353" x2="498.780086359" y1="505.732743791" y2="508.631692385" /><line stroke="rgb(0%,0%,0%)" x1="500.603904823" x2="500.074411113" y1="496.193063266" y2="503.55650315" /><line stroke="rgb(0%,0%,0%)" x1="498.936707353" x2="500.074411113" y1="505.732743791" y2="503.55650315" /><line stroke="rgb(0%,0%,0%)" x1="451.583637189" x2="453.359543846" y1="336.854987196" y2="339.913084731" /><line stroke="rgb(0%,0%,0%)" x1="461.144487438" x2="464.863655227" y1="348.499158274" y2="351.491887737" /><line stroke="rgb(0%,0%,0%)" x1="467.281863633" x2="464.863655227" y1="353.897409779" y2="351.491887737" /><line stroke="rgb(0%,0%,0%)" x1="461.144487438" x2="459.598688772" y1="348.499158274" y2="346.31078093" /><line stroke="rgb(0%,0%,0%)" x1="476.024504856" x2="475.787898503" y1="570.03954699" y2="570.294178661" /><line stroke="rgb(0%,0%,0%)" x1="476.346180249" x2="484.216431929" y1="569.617319263" y2="559.810686083" /><line stroke="rgb(0%,0%,0%)" x1="476.024504856" x2="476.346180249" y1="570.03954699" y2="569.617319263" /><line stroke="rgb(0%,0%,0%)" x1="484.216431929" x2="486.871194629" y1="559.810686083" y2="553.612672254" /><line stroke="rgb(0%,0%,0%)" x1="486.871194629" x2="490.978651307" y1="553.612672254" y2="546.823219335" /><line stroke="rgb(0%,0%,0%)" x1="503.093401736" x2="504.871229957" y1="486.450978098" y2="475.088516036" /><line stroke="rgb(0%,0%,0%)" x1="504.871229957" x2="504.666092308" y1="475.088516036" y2="465.679560289" /><line stroke="rgb(0%,0%,0%)" x1="424.333474091" x2="424.428030784" y1="622.926834374" y2="623.457183753" /><line stroke="rgb(0%,0%,0%)" x1="423.822266445" x2="418.323285991" y1="309.572726487" y2="306.182076802" /><line stroke="rgb(0%,0%,0%)" x1="416.166238976" x2="418.323285991" y1="304.511390666" y2="306.182076802" /><line stroke="rgb(0%,0%,0%)" x1="437.70517266" x2="437.644059092" y1="323.618188993" y2="323.572128465" /><line stroke="rgb(0%,0%,0%)" x1="432.189502665" x2="437.583344027" y1="316.08055527" y2="323.450715552" /><line stroke="rgb(0%,0%,0%)" x1="451.583637189" x2="438.076414479" y1="336.854987196" y2="323.936074065" /><line stroke="rgb(0%,0%,0%)" x1="459.598688772" x2="455.453134635" y1="346.31078093" y2="341.625033993" /><line stroke="rgb(0%,0%,0%)" x1="455.453134635" x2="453.359543846" y1="341.625033993" y2="339.913084731" /><line stroke="rgb(0%,0%,0%)" x1="469.98895968" x2="467.281863633" y1="355.96909381" y2="353.897409779" /><line stroke="rgb(0%,0%,0%)" x1="500.603904823" x2="503.093401736" y1="496.193063266" y2="486.450978098" /><line stroke="rgb(0%,0%,0%)" x1="504.666092308" x2="504.418508216" y1="465.679560289" y2="463.722136787" /><line stroke="rgb(0%,0%,0%)" x1="379.964772968" x2="378.362146289" y1="650.783641942" y2="651.024567021" /><line stroke="rgb(0%,0%,0%)" x1="379.964772968" x2="383.58436533" y1="650.783641942" y2="650.535682088" /><line stroke="rgb(0%,0%,0%)" x1="402.265904947" x2="399.454844336" y1="642.2424638" y2="644.510138105" /><line stroke="rgb(0%,0%,0%)" x1="402.265904947" x2="406.784980311" y1="642.2424638" y2="639.364516129" /><line stroke="rgb(0%,0%,0%)" x1="406.784980311" x2="411.483927223" y1="639.364516129" y2="634.804555734" /><line stroke="rgb(0%,0%,0%)" x1="415.351203316" x2="411.483927223" y1="630.147776854" y2="634.804555734" /><line stroke="rgb(0%,0%,0%)" x1="415.351203316" x2="418.354302914" y1="630.147776854" y2="627.611012425" /><line stroke="rgb(0%,0%,0%)" x1="418.354302914" x2="424.012512613" y1="627.611012425" y2="623.745145321" /><line stroke="rgb(0%,0%,0%)" x1="424.012512613" x2="424.220495547" y1="623.745145321" y2="623.591367229" /><line stroke="rgb(0%,0%,0%)" x1="423.822266445" x2="430.488215039" y1="309.572726487" y2="314.461928332" /><line stroke="rgb(0%,0%,0%)" x1="437.644059092" x2="437.583344027" y1="323.572128465" y2="323.450715552" /><line stroke="rgb(0%,0%,0%)" x1="432.189502665" x2="430.488215039" y1="316.08055527" y2="314.461928332" /><line stroke="rgb(0%,0%,0%)" x1="438.076414479" x2="437.70517266" y1="323.936074065" y2="323.618188993" /><line stroke="rgb(0%,0%,0%)" x1="350.874076065" x2="350.087556182" y1="849.557116175" y2="851.305552445" /><line stroke="rgb(0%,0%,0%)" x1="351.0208616" x2="350.874076065" y1="848.042529703" y2="849.557116175" /><line stroke="rgb(0%,0%,0%)" x1="353.039880063" x2="352.839552131" y1="829.443842923" y2="829.857351512" /><line stroke="rgb(0%,0%,0%)" x1="353.039880063" x2="353.427274259" y1="829.443842923" y2="828.690173732" /><line stroke="rgb(0%,0%,0%)" x1="356.838298423" x2="357.225284612" y1="813.427272078" y2="815.037476169" /><line stroke="rgb(0%,0%,0%)" x1="356.838298423" x2="354.466469514" y1="813.427272078" y2="807.323720097" /><line stroke="rgb(0%,0%,0%)" x1="354.466469514" x2="351.986270488" y1="807.323720097" y2="800.872022654" /><line stroke="rgb(0%,0%,0%)" x1="351.73809843" x2="351.986270488" y1="800.688352765" y2="800.872022654" /><line stroke="rgb(0%,0%,0%)" x1="351.73809843" x2="351.283985952" y1="800.688352765" y2="799.908870024" /><line stroke="rgb(0%,0%,0%)" x1="351.283985952" x2="348.732443833" y1="799.908870024" y2="797.513333885" /><line stroke="rgb(0%,0%,0%)" x1="363.788150801" x2="363.591659906" y1="657.246334533" y2="657.338382406" /><line stroke="rgb(0%,0%,0%)" x1="370.380056457" x2="368.915236341" y1="653.605508499" y2="654.16417911" /><line stroke="rgb(0%,0%,0%)" x1="370.380056457" x2="371.686344623" y1="653.605508499" y2="652.565309445" /><line stroke="rgb(0%,0%,0%)" x1="363.788150801" x2="368.915236341" y1="657.246334533" y2="654.16417911" /><line stroke="rgb(0%,0%,0%)" x1="371.686344623" x2="373.902878687" y1="652.565309445" y2="650.272427963" /><line stroke="rgb(0%,0%,0%)" x1="378.362146289" x2="374.611474162" y1="651.024567021" y2="650.118450386" /><line stroke="rgb(0%,0%,0%)" x1="373.902878687" x2="374.611474162" y1="650.272427963" y2="650.118450386" /><line stroke="rgb(0%,0%,0%)" x1="383.58436533" x2="391.691298072" y1="650.535682088" y2="648.242496586" /><line stroke="rgb(0%,0%,0%)" x1="391.691298072" x2="395.034187734" y1="648.242496586" y2="647.316089507" /><line stroke="rgb(0%,0%,0%)" x1="395.034187734" x2="396.986323431" y1="647.316089507" y2="646.063167022" /><line stroke="rgb(0%,0%,0%)" x1="396.986323431" x2="399.454844336" y1="646.063167022" y2="644.510138105" /><line stroke="rgb(0%,0%,0%)" x1="316.701139152" x2="317.406943363" y1="884.947616268" y2="884.955732466" /><line stroke="rgb(0%,0%,0%)" x1="313.602917686" x2="313.912093304" y1="882.253224001" y2="882.413217411" /><line stroke="rgb(0%,0%,0%)" x1="313.400306135" x2="313.602917686" y1="881.995083703" y2="882.253224001" /><line stroke="rgb(0%,0%,0%)" x1="337.312480559" x2="327.338032941" y1="873.638734887" y2="880.253908193" /><line stroke="rgb(0%,0%,0%)" x1="322.118811802" x2="322.121456262" y1="844.165188754" y2="852.330381297" /><line stroke="rgb(0%,0%,0%)" x1="322.118811802" x2="321.904417544" y1="844.165188754" y2="841.262583436" /><line stroke="rgb(0%,0%,0%)" x1="335.373180224" x2="328.821003739" y1="784.829892369" y2="781.634168296" /><line stroke="rgb(0%,0%,0%)" x1="327.902217884" x2="327.499376514" y1="781.183405193" y2="781.039836129" /><line stroke="rgb(0%,0%,0%)" x1="324.854148721" x2="328.551291299" y1="673.33855526" y2="673.147041733" /><line stroke="rgb(0%,0%,0%)" x1="337.312480559" x2="338.5456107" y1="873.638734887" y2="873.066754166" /><line stroke="rgb(0%,0%,0%)" x1="340.838412734" x2="337.015602053" y1="790.077021154" y2="785.511954198" /><line stroke="rgb(0%,0%,0%)" x1="327.902217884" x2="328.821003739" y1="781.183405193" y2="781.634168296" /><line stroke="rgb(0%,0%,0%)" x1="337.015602053" x2="335.373180224" y1="785.511954198" y2="784.829892369" /><line stroke="rgb(0%,0%,0%)" x1="338.416180563" x2="329.42301111" y1="670.518736274" y2="672.878963415" /><line stroke="rgb(0%,0%,0%)" x1="346.292605323" x2="342.554442467" y1="666.680165917" y2="668.609776687" /><line stroke="rgb(0%,0%,0%)" x1="338.416180563" x2="342.554442467" y1="670.518736274" y2="668.609776687" /><line stroke="rgb(0%,0%,0%)" x1="347.602976741" x2="343.724669545" y1="859.808147307" y2="866.779630562" /><line stroke="rgb(0%,0%,0%)" x1="347.602976741" x2="350.087556182" y1="859.808147307" y2="851.305552445" /><line stroke="rgb(0%,0%,0%)" x1="351.0208616" x2="352.70151827" y1="848.042529703" y2="842.835872858" /><line stroke="rgb(0%,0%,0%)" x1="352.70151827" x2="352.839552131" y1="842.835872858" y2="829.857351512" /><line stroke="rgb(0%,0%,0%)" x1="353.427274259" x2="356.600980452" y1="828.690173732" y2="821.030891635" /><line stroke="rgb(0%,0%,0%)" x1="356.600980452" x2="357.094335103" y1="821.030891635" y2="817.39887659" /><line stroke="rgb(0%,0%,0%)" x1="357.094335103" x2="357.225284612" y1="817.39887659" y2="815.037476169" /><line stroke="rgb(0%,0%,0%)" x1="348.732443833" x2="343.691719832" y1="797.513333885" y2="791.967212671" /><line stroke="rgb(0%,0%,0%)" x1="350.479943468" x2="354.658689083" y1="664.611373565" y2="661.587112547" /><line stroke="rgb(0%,0%,0%)" x1="346.292605323" x2="350.479943468" y1="666.680165917" y2="664.611373565" /><line stroke="rgb(0%,0%,0%)" x1="354.658689083" x2="358.763875683" y1="661.587112547" y2="659.987576198" /><line stroke="rgb(0%,0%,0%)" x1="358.763875683" x2="363.591659906" y1="659.987576198" y2="657.338382406" /><line stroke="rgb(0%,0%,0%)" x1="293.403051896" x2="293.158523499" y1="807.691757336" y2="806.940655805" /><line stroke="rgb(0%,0%,0%)" x1="297.920317758" x2="298.292723097" y1="790.602842834" y2="789.532597624" /><line stroke="rgb(0%,0%,0%)" x1="297.920317758" x2="297.146959514" y1="790.602842834" y2="792.008024354" /><line stroke="rgb(0%,0%,0%)" x1="299.462777399" x2="303.116340761" y1="816.25554952" y2="816.54457241" /><line stroke="rgb(0%,0%,0%)" x1="293.403051896" x2="295.126527813" y1="807.691757336" y2="809.224718803" /><line stroke="rgb(0%,0%,0%)" x1="295.126527813" x2="299.462777399" y1="809.224718803" y2="816.25554952" /><line stroke="rgb(0%,0%,0%)" x1="292.445516862" x2="291.453470344" y1="798.64982088" y2="801.544169433" /><line stroke="rgb(0%,0%,0%)" x1="297.146959514" x2="292.445516862" y1="792.008024354" y2="798.64982088" /><line stroke="rgb(0%,0%,0%)" x1="298.753138952" x2="298.292723097" y1="788.976342357" y2="789.532597624" /><line stroke="rgb(0%,0%,0%)" x1="304.579555951" x2="299.594400419" y1="782.719947362" y2="787.903194048" /><line stroke="rgb(0%,0%,0%)" x1="298.753138952" x2="299.594400419" y1="788.976342357" y2="787.903194048" /><line stroke="rgb(0%,0%,0%)" x1="298.571147602" x2="304.363129865" y1="672.832211632" y2="673.691475484" /><line stroke="rgb(0%,0%,0%)" x1="304.363129865" x2="304.45366515" y1="673.691475484" y2="673.684398589" /><line stroke="rgb(0%,0%,0%)" x1="313.912093304" x2="316.701139152" y1="882.413217411" y2="884.947616268" /><line stroke="rgb(0%,0%,0%)" x1="313.400306135" x2="312.428517059" y1="881.995083703" y2="879.582541049" /><line stroke="rgb(0%,0%,0%)" x1="311.091175807" x2="311.171022137" y1="876.068278034" y2="877.351037165" /><line stroke="rgb(0%,0%,0%)" x1="311.113666001" x2="311.200578659" y1="823.163106485" y2="824.122757676" /><line stroke="rgb(0%,0%,0%)" x1="309.62898229" x2="311.113666001" y1="817.859744984" y2="823.163106485" /><line stroke="rgb(0%,0%,0%)" x1="316.834877981" x2="311.200578659" y1="832.24057288" y2="824.122757676" /><line stroke="rgb(0%,0%,0%)" x1="303.116340761" x2="306.817025072" y1="816.54457241" y2="817.081360145" /><line stroke="rgb(0%,0%,0%)" x1="309.62898229" x2="306.817025072" y1="817.859744984" y2="817.081360145" /><line stroke="rgb(0%,0%,0%)" x1="307.798846168" x2="313.919966937" y1="781.64463414" y2="779.052142545" /><line stroke="rgb(0%,0%,0%)" x1="307.798846168" x2="304.579555951" y1="781.64463414" y2="782.719947362" /><line stroke="rgb(0%,0%,0%)" x1="315.690817149" x2="313.919966937" y1="778.789465605" y2="779.052142545" /><line stroke="rgb(0%,0%,0%)" x1="321.973363932" x2="315.690817149" y1="779.296316272" y2="778.789465605" /><line stroke="rgb(0%,0%,0%)" x1="314.841505146" x2="322.064961218" y1="673.630624591" y2="673.977122545" /><line stroke="rgb(0%,0%,0%)" x1="314.841505146" x2="304.891116625" y1="673.630624591" y2="673.661470823" /><line stroke="rgb(0%,0%,0%)" x1="304.45366515" x2="304.891116625" y1="673.684398589" y2="673.661470823" /><line stroke="rgb(0%,0%,0%)" x1="317.406943363" x2="319.89757938" y1="884.955732466" y2="884.631250743" /><line stroke="rgb(0%,0%,0%)" x1="324.058563362" x2="325.465358118" y1="882.534580418" y2="881.848332628" /><line stroke="rgb(0%,0%,0%)" x1="319.89757938" x2="324.058563362" y1="884.631250743" y2="882.534580418" /><line stroke="rgb(0%,0%,0%)" x1="319.775855924" x2="321.043606801" y1="835.640949887" y2="838.82048563" /><line stroke="rgb(0%,0%,0%)" x1="321.904417544" x2="321.043606801" y1="841.262583436" y2="838.82048563" /><line stroke="rgb(0%,0%,0%)" x1="327.499376514" x2="321.973363932" y1="781.039836129" y2="779.296316272" /><line stroke="rgb(0%,0%,0%)" x1="322.064961218" x2="324.854148721" y1="673.977122545" y2="673.33855526" /><line stroke="rgb(0%,0%,0%)" x1="328.551291299" x2="329.42301111" y1="673.147041733" y2="672.878963415" /><line stroke="rgb(0%,0%,0%)" x1="325.465358118" x2="327.338032941" y1="881.848332628" y2="880.253908193" /><line stroke="rgb(0%,0%,0%)" x1="338.5456107" x2="343.724669545" y1="873.066754166" y2="866.779630562" /><line stroke="rgb(0%,0%,0%)" x1="343.691719832" x2="340.838412734" y1="791.967212671" y2="790.077021154" /><line stroke="rgb(0%,0%,0%)" x1="258.784048221" x2="254.29244624" y1="665.781093358" y2="665.05003247" /><line stroke="rgb(0%,0%,0%)" x1="279.941794579" x2="274.064051566" y1="671.769033669" y2="670.617461535" /><line stroke="rgb(0%,0%,0%)" x1="271.272511194" x2="265.742879186" y1="670.167004093" y2="668.403856525" /><line stroke="rgb(0%,0%,0%)" x1="272.762123222" x2="274.064051566" y1="670.070738207" y2="670.617461535" /><line stroke="rgb(0%,0%,0%)" x1="271.272511194" x2="272.762123222" y1="670.167004093" y2="670.070738207" /><line stroke="rgb(0%,0%,0%)" x1="291.497087478" x2="293.158523499" y1="803.90191621" y2="806.940655805" /><line stroke="rgb(0%,0%,0%)" x1="291.453470344" x2="291.497087478" y1="801.544169433" y2="803.90191621" /><line stroke="rgb(0%,0%,0%)" x1="286.147597715" x2="297.500875757" y1="672.182814954" y2="672.947223439" /><line stroke="rgb(0%,0%,0%)" x1="279.941794579" x2="286.147597715" y1="671.769033669" y2="672.182814954" /><line stroke="rgb(0%,0%,0%)" x1="297.500875757" x2="298.571147602" y1="672.947223439" y2="672.832211632" /><line stroke="rgb(0%,0%,0%)" x1="311.171022137" x2="312.428517059" y1="877.351037165" y2="879.582541049" /><line stroke="rgb(0%,0%,0%)" x1="316.834877981" x2="318.407941108" y1="832.24057288" y2="834.806264296" /><line stroke="rgb(0%,0%,0%)" x1="318.407941108" x2="319.775855924" y1="834.806264296" y2="835.640949887" /><line stroke="rgb(0%,0%,0%)" x1="227.976804068" x2="229.060491183" y1="655.341270887" y2="656.074897596" /><line stroke="rgb(0%,0%,0%)" x1="227.976804068" x2="227.004570723" y1="655.341270887" y2="655.124711522" /><line stroke="rgb(0%,0%,0%)" x1="235.104079352" x2="248.718480994" y1="659.624648356" y2="663.851026867" /><line stroke="rgb(0%,0%,0%)" x1="229.060491183" x2="230.073478398" y1="656.074897596" y2="656.541706156" /><line stroke="rgb(0%,0%,0%)" x1="230.073478398" x2="235.104079352" y1="656.541706156" y2="659.624648356" /><line stroke="rgb(0%,0%,0%)" x1="252.525512333" x2="254.29244624" y1="664.87262027" y2="665.05003247" /><line stroke="rgb(0%,0%,0%)" x1="252.525512333" x2="248.718480994" y1="664.87262027" y2="663.851026867" /><line stroke="rgb(0%,0%,0%)" x1="258.784048221" x2="263.911917113" y1="665.781093358" y2="667.786845522" /><line stroke="rgb(0%,0%,0%)" x1="263.911917113" x2="265.742879186" y1="667.786845522" y2="668.403856525" /><line stroke="rgb(0%,0%,0%)" x1="161.796901139" x2="173.769507381" y1="632.356210658" y2="639.862245421" /><line stroke="rgb(0%,0%,0%)" x1="173.769507381" x2="178.769295884" y1="639.862245421" y2="642.366108671" /><line stroke="rgb(0%,0%,0%)" x1="178.769295884" x2="189.655774962" y1="642.366108671" y2="645.947048816" /><line stroke="rgb(0%,0%,0%)" x1="211.329307675" x2="197.281433378" y1="653.281366728" y2="649.378985948" /><line stroke="rgb(0%,0%,0%)" x1="211.329307675" x2="216.42805218" y1="653.281366728" y2="653.518457217" /><line stroke="rgb(0%,0%,0%)" x1="219.08348282" x2="227.004570723" y1="654.122015202" y2="655.124711522" /><line stroke="rgb(0%,0%,0%)" x1="216.42805218" x2="219.08348282" y1="653.518457217" y2="654.122015202" /><line stroke="rgb(0%,0%,0%)" x1="140.230006141" x2="144.15228937" y1="612.353391828" y2="614.932304996" /><line stroke="rgb(0%,0%,0%)" x1="127.095342962" x2="129.575753915" y1="608.582277623" y2="609.880746652" /><line stroke="rgb(0%,0%,0%)" x1="154.478571157" x2="149.307623223" y1="626.259542841" y2="620.415995143" /><line stroke="rgb(0%,0%,0%)" x1="161.796901139" x2="159.038959311" y1="632.356210658" y2="630.23970544" /><line stroke="rgb(0%,0%,0%)" x1="154.478571157" x2="159.038959311" y1="626.259542841" y2="630.23970544" /><line stroke="rgb(0%,0%,0%)" x1="189.655774962" x2="193.94375109" y1="645.947048816" y2="647.631480853" /><line stroke="rgb(0%,0%,0%)" x1="193.94375109" x2="197.281433378" y1="647.631480853" y2="649.378985948" /><line stroke="rgb(0%,0%,0%)" x1="125.074231538" x2="127.095342962" y1="607.303395167" y2="608.582277623" /><line stroke="rgb(0%,0%,0%)" x1="125.074231538" x2="121.17024696" y1="607.303395167" y2="606.273455828" /><line stroke="rgb(0%,0%,0%)" x1="112.547972159" x2="119.954276941" y1="599.224438999" y2="605.471353458" /><line stroke="rgb(0%,0%,0%)" x1="112.547972159" x2="109.895001426" y1="599.224438999" y2="597.714934412" /><line stroke="rgb(0%,0%,0%)" x1="129.575753915" x2="136.995644367" y1="609.880746652" y2="612.405698483" /><line stroke="rgb(0%,0%,0%)" x1="120.89683479" x2="121.17024696" y1="606.128810803" y2="606.273455828" /><line stroke="rgb(0%,0%,0%)" x1="144.15228937" x2="146.34226447" y1="614.932304996" y2="616.28290442" /><line stroke="rgb(0%,0%,0%)" x1="136.995644367" x2="140.230006141" y1="612.405698483" y2="612.353391828" /><line stroke="rgb(0%,0%,0%)" x1="146.34226447" x2="149.307623223" y1="616.28290442" y2="620.415995143" /><line stroke="rgb(0%,0%,0%)" x1="96.4354675033" x2="85.4287654773" y1="585.233582321" y2="574.229979866" /><line stroke="rgb(0%,0%,0%)" x1="83.682289996" x2="85.4287654773" y1="572.686602429" y2="574.229979866" /><line stroke="rgb(0%,0%,0%)" x1="109.895001426" x2="104.196628421" y1="597.714934412" y2="593.348331287" /><line stroke="rgb(0%,0%,0%)" x1="99.4524453729" x2="104.196628421" y1="587.371944303" y2="593.348331287" /><line stroke="rgb(0%,0%,0%)" x1="99.4524453729" x2="96.4354675033" y1="587.371944303" y2="585.233582321" /><line stroke="rgb(0%,0%,0%)" x1="119.954276941" x2="120.72163544" y1="605.471353458" y2="606.02210538" /><line stroke="rgb(0%,0%,0%)" x1="120.72163544" x2="120.89683479" y1="606.02210538" y2="606.128810803" /><line stroke="rgb(0%,0%,0%)" x1="55.6678413694" x2="57.1843126246" y1="528.051130782" y2="530.886426888" /><line stroke="rgb(0%,0%,0%)" x1="52.4538474654" x2="52.1057103953" y1="524.590036014" y2="523.480556682" /><line stroke="rgb(0%,0%,0%)" x1="46.2670117652" x2="45.4485654417" y1="520.044007612" y2="519.087068318" /><line stroke="rgb(0%,0%,0%)" x1="46.2670117652" x2="52.1057103953" y1="520.044007612" y2="523.480556682" /><line stroke="rgb(0%,0%,0%)" x1="61.3082981309" x2="70.47190795" y1="544.053316216" y2="557.928799249" /><line stroke="rgb(0%,0%,0%)" x1="60.2627736018" x2="59.1063558869" y1="539.763385953" y2="536.228845158" /><line stroke="rgb(0%,0%,0%)" x1="60.2627736018" x2="61.3082981309" y1="539.763385953" y2="544.053316216" /><line stroke="rgb(0%,0%,0%)" x1="58.7378882271" x2="59.1063558869" y1="533.71672245" y2="536.228845158" /><line stroke="rgb(0%,0%,0%)" x1="58.2789149882" x2="58.7378882271" y1="531.856394365" y2="533.71672245" /><line stroke="rgb(0%,0%,0%)" x1="57.1843126246" x2="58.2789149882" y1="530.886426888" y2="531.856394365" /><line stroke="rgb(0%,0%,0%)" x1="52.4538474654" x2="55.6678413694" y1="524.590036014" y2="528.051130782" /><line stroke="rgb(0%,0%,0%)" x1="71.0211644788" x2="82.2959915195" y1="558.732300456" y2="571.052986285" /><line stroke="rgb(0%,0%,0%)" x1="70.47190795" x2="71.0211644788" y1="557.928799249" y2="558.732300456" /><line stroke="rgb(0%,0%,0%)" x1="82.2959915195" x2="83.682289996" y1="571.052986285" y2="572.686602429" /><line stroke="rgb(0%,0%,0%)" x1="25.1212741409" x2="22.4130103593" y1="502.537646766" y2="496.910775556" /><line stroke="rgb(0%,0%,0%)" x1="25.1212741409" x2="26.9455736308" y1="502.537646766" y2="504.627033198" /><line stroke="rgb(0%,0%,0%)" x1="19.9864534805" x2="22.3438825881" y1="489.083260479" y2="496.429522666" /><line stroke="rgb(0%,0%,0%)" x1="22.3438825881" x2="22.3674333332" y1="496.429522666" y2="496.732412257" /><line stroke="rgb(0%,0%,0%)" x1="22.3674333332" x2="22.4130103593" y1="496.732412257" y2="496.910775556" /><line stroke="rgb(0%,0%,0%)" x1="18.5132061968" x2="19.9864534805" y1="483.943485235" y2="489.083260479" /><line stroke="rgb(0%,0%,0%)" x1="18.8021492103" x2="20.5528624666" y1="478.864414859" y2="473.263049194" /><line stroke="rgb(0%,0%,0%)" x1="18.8021492103" x2="18.5132061968" y1="478.864414859" y2="483.943485235" /><line stroke="rgb(0%,0%,0%)" x1="22.1338282691" x2="20.5528624666" y1="470.376784815" y2="473.263049194" /><line stroke="rgb(0%,0%,0%)" x1="27.3738766213" x2="22.1338282691" y1="466.114821197" y2="470.376784815" /><line stroke="rgb(0%,0%,0%)" x1="26.9455736308" x2="29.4156689576" y1="504.627033198" y2="506.855807621" /><line stroke="rgb(0%,0%,0%)" x1="40.7307487924" x2="29.4156689576" y1="514.927752591" y2="506.855807621" /><line stroke="rgb(0%,0%,0%)" x1="34.3820904968" x2="27.3738766213" y1="461.803114223" y2="466.114821197" /><line stroke="rgb(0%,0%,0%)" x1="34.3820904968" x2="35.8869335181" y1="461.803114223" y2="460.921583385" /><line stroke="rgb(0%,0%,0%)" x1="38.9033893035" x2="38.1267478705" y1="460.260209221" y2="460.498808759" /><line stroke="rgb(0%,0%,0%)" x1="35.8869335181" x2="38.1267478705" y1="460.921583385" y2="460.498808759" /><line stroke="rgb(0%,0%,0%)" x1="40.7307487924" x2="45.4485654417" y1="514.927752591" y2="519.087068318" /><line stroke="rgb(0%,0%,0%)" x1="434.309227703" x2="432.489498259" y1="616.820251294" y2="618.082309877" /><line stroke="rgb(0%,0%,0%)" x1="434.309227703" x2="436.148085627" y1="616.820251294" y2="615.249281689" /><line stroke="rgb(0%,0%,0%)" x1="436.148085627" x2="438.768668086" y1="615.249281689" y2="612.182251829" /><line stroke="rgb(0%,0%,0%)" x1="438.768668086" x2="439.587630702" y1="612.182251829" y2="610.484351116" /><line stroke="rgb(0%,0%,0%)" x1="439.587630702" x2="447.502189728" y1="610.484351116" y2="601.432871123" /><line stroke="rgb(0%,0%,0%)" x1="457.645859966" x2="450.255800656" y1="591.134423541" y2="598.726846686" /><line stroke="rgb(0%,0%,0%)" x1="457.645859966" x2="459.212723486" y1="591.134423541" y2="588.585422907" /><line stroke="rgb(0%,0%,0%)" x1="459.212723486" x2="464.207894549" y1="588.585422907" y2="582.691735806" /><line stroke="rgb(0%,0%,0%)" x1="464.207894549" x2="468.800156244" y1="582.691735806" y2="577.777967128" /><line stroke="rgb(0%,0%,0%)" x1="468.800156244" x2="468.858406688" y1="577.777967128" y2="577.697485556" /><line stroke="rgb(0%,0%,0%)" x1="468.858406688" x2="469.024240101" y1="577.697485556" y2="577.534211396" /><line stroke="rgb(0%,0%,0%)" x1="475.787898503" x2="471.105475614" y1="570.294178661" y2="575.296430865" /><line stroke="rgb(0%,0%,0%)" x1="469.024240101" x2="471.105475614" y1="577.534211396" y2="575.296430865" /><line stroke="rgb(0%,0%,0%)" x1="424.333474091" x2="426.466450209" y1="622.926834374" y2="621.660790334" /><line stroke="rgb(0%,0%,0%)" x1="432.489498259" x2="426.466450209" y1="618.082309877" y2="621.660790334" /><line stroke="rgb(0%,0%,0%)" x1="447.502189728" x2="450.255800656" y1="601.432871123" y2="598.726846686" /><line stroke="rgb(0%,0%,0%)" x1="311.184372651" x2="311.091175807" y1="876.067830363" y2="876.068278034" /><line stroke="rgb(0%,0%,0%)" x1="311.184372651" x2="312.009494191" y1="876.067830363" y2="872.958815407" /><line stroke="rgb(0%,0%,0%)" x1="321.301019249" x2="322.121456262" y1="855.435866849" y2="852.330381297" /><line stroke="rgb(0%,0%,0%)" x1="321.301019249" x2="319.142456746" y1="855.435866849" y2="859.188939138" /><line stroke="rgb(0%,0%,0%)" x1="312.553861805" x2="312.009494191" y1="870.466787281" y2="872.958815407" /><line stroke="rgb(0%,0%,0%)" x1="315.468028395" x2="314.171189679" y1="864.486811561" y2="866.49811144" /><line stroke="rgb(0%,0%,0%)" x1="314.171189679" x2="313.316433932" y1="866.49811144" y2="868.335106649" /><line stroke="rgb(0%,0%,0%)" x1="319.142456746" x2="315.468028395" y1="859.188939138" y2="864.486811561" /><line stroke="rgb(0%,0%,0%)" x1="313.316433932" x2="312.553861805" y1="868.335106649" y2="870.466787281" /><line stroke="rgb(0%,0%,0%)" x1="183.258280979" x2="176.432618554" y1="273.537389459" y2="276.17229157" /><line stroke="rgb(0%,0%,0%)" x1="189.934372143" x2="183.258280979" y1="271.54126366" y2="273.537389459" /></svg>