<?xml version="1.0" encoding="utf-8" ?>
<svg baseProfile="full" height="100%" version="1.1" viewBox="0.5 0.5 685.793960571 941.299331665" width="100%" xmlns="http://www.w3.org/2000/svg" xmlns:ev="http://www.w3.org/2001/xml-events" xmlns:xlink="http://www.w3.org/1999/xlink"><defs /><line stroke="rgb(0%,0%,0%)" x1="423.86220832" x2="422.162921352" y1="622.466612971" y2="623.565299809" /><line stroke="rgb(0%,0%,0%)" x1="503.612961442" x2="503.076451908" y1="460.900644045" y2="452.564069977" /><line stroke="rgb(0%,0%,0%)" x1="496.408063193" x2="495.024564297" y1="424.367912243" y2="418.280525913" /><line stroke="rgb(0%,0%,0%)" x1="495.024564297" x2="494.077772601" y1="418.280525913" y2="412.913736274" /><line stroke="rgb(0%,0%,0%)" x1="494.077772601" x2="490.55820189" y1="412.913736274" y2="403.387871851" /><line stroke="rgb(0%,0%,0%)" x1="488.432780723" x2="490.55820189" y1="390.626241653" y2="403.387871851" /><line stroke="rgb(0%,0%,0%)" x1="488.432780723" x2="483.096463532" y1="390.626241653" y2="377.911636011" /><line stroke="rgb(0%,0%,0%)" x1="503.243969217" x2="503.612961442" y1="463.788041857" y2="460.900644045" /><line stroke="rgb(0%,0%,0%)" x1="503.076451908" x2="502.798739462" y1="452.564069977" y2="447.487320558" /><line stroke="rgb(0%,0%,0%)" x1="501.010281431" x2="502.798739462" y1="438.409191259" y2="447.487320558" /><line stroke="rgb(0%,0%,0%)" x1="501.010281431" x2="500.2728321" y1="438.409191259" y2="434.81976671" /><line stroke="rgb(0%,0%,0%)" x1="483.096463532" x2="482.140649853" y1="377.911636011" y2="374.932854405" /><line stroke="rgb(0%,0%,0%)" x1="482.140649853" x2="480.604386256" y1="374.932854405" y2="372.370178441" /><line stroke="rgb(0%,0%,0%)" x1="472.846447722" x2="480.604386256" y1="359.702560467" y2="372.370178441" /><line stroke="rgb(0%,0%,0%)" x1="472.846447722" x2="471.003893422" y1="359.702560467" y2="357.899571962" /><line stroke="rgb(0%,0%,0%)" x1="500.2728321" x2="498.315309899" y1="434.81976671" y2="428.055698393" /><line stroke="rgb(0%,0%,0%)" x1="498.315309899" x2="496.408063193" y1="428.055698393" y2="424.367912243" /><line stroke="rgb(0%,0%,0%)" x1="388.314585771" x2="387.126573718" y1="280.999208243" y2="280.454462713" /><line stroke="rgb(0%,0%,0%)" x1="388.314585771" x2="389.70514782" y1="280.999208243" y2="281.784339973" /><line stroke="rgb(0%,0%,0%)" x1="414.330757978" x2="411.92894043" y1="304.852900423" y2="302.711493558" /><line stroke="rgb(0%,0%,0%)" x1="401.254380831" x2="397.708112017" y1="292.221172321" y2="289.771121032" /><line stroke="rgb(0%,0%,0%)" x1="397.708112017" x2="395.770210304" y1="289.771121032" y2="287.498585267" /><line stroke="rgb(0%,0%,0%)" x1="411.92894043" x2="409.42753913" y1="302.711493558" y2="300.11678795" /><line stroke="rgb(0%,0%,0%)" x1="370.871464863" x2="373.136393252" y1="274.952556804" y2="275.235669232" /><line stroke="rgb(0%,0%,0%)" x1="370.871464863" x2="366.22430427" y1="274.952556804" y2="275.363814663" /><line stroke="rgb(0%,0%,0%)" x1="386.409838194" x2="387.126573718" y1="280.296022468" y2="280.454462713" /><line stroke="rgb(0%,0%,0%)" x1="386.409838194" x2="380.4371575" y1="280.296022468" y2="277.357258886" /><line stroke="rgb(0%,0%,0%)" x1="380.4371575" x2="373.136393252" y1="277.357258886" y2="275.235669232" /><line stroke="rgb(0%,0%,0%)" x1="395.770210304" x2="389.70514782" y1="287.498585267" y2="281.784339973" /><line stroke="rgb(0%,0%,0%)" x1="406.496825274" x2="404.755298302" y1="298.097556402" y2="296.591276144" /><line stroke="rgb(0%,0%,0%)" x1="401.254380831" x2="404.755298302" y1="292.221172321" y2="296.591276144" /><line stroke="rgb(0%,0%,0%)" x1="409.42753913" x2="406.496825274" y1="300.11678795" y2="298.097556402" /><line stroke="rgb(0%,0%,0%)" x1="338.458798111" x2="337.566682965" y1="266.514826565" y2="266.251361781" /><line stroke="rgb(0%,0%,0%)" x1="332.696762781" x2="329.951998568" y1="264.03630641" y2="263.238247157" /><line stroke="rgb(0%,0%,0%)" x1="349.687455112" x2="338.750809051" y1="268.148856383" y2="266.663011762" /><line stroke="rgb(0%,0%,0%)" x1="338.458798111" x2="338.750809051" y1="266.514826565" y2="266.663011762" /><line stroke="rgb(0%,0%,0%)" x1="354.92884946" x2="352.463771481" y1="270.97113774" y2="269.144075533" /><line stroke="rgb(0%,0%,0%)" x1="354.92884946" x2="363.77643501" y1="270.97113774" y2="275.295823026" /><line stroke="rgb(0%,0%,0%)" x1="352.463771481" x2="349.687455112" y1="269.144075533" y2="268.148856383" /><line stroke="rgb(0%,0%,0%)" x1="364.36457378" x2="363.77643501" y1="275.495610694" y2="275.295823026" /><line stroke="rgb(0%,0%,0%)" x1="366.22430427" x2="364.36457378" y1="275.363814663" y2="275.495610694" /><line stroke="rgb(0%,0%,0%)" x1="260.434112495" x2="259.950812803" y1="57.9511720202" y2="56.9603117948" /><line stroke="rgb(0%,0%,0%)" x1="259.950812803" x2="259.260383331" y1="56.9603117948" y2="53.7722876596" /><line stroke="rgb(0%,0%,0%)" x1="291.575934042" x2="292.986257582" y1="258.155179889" y2="257.602337223" /><line stroke="rgb(0%,0%,0%)" x1="300.541247051" x2="296.701651284" y1="258.424580421" y2="257.751502203" /><line stroke="rgb(0%,0%,0%)" x1="308.253158428" x2="307.119392631" y1="258.339170923" y2="258.289587926" /><line stroke="rgb(0%,0%,0%)" x1="287.783485268" x2="285.110793663" y1="85.0390275754" y2="89.761573224" /><line stroke="rgb(0%,0%,0%)" x1="287.783485268" x2="291.102945274" y1="85.0390275754" y2="79.4600130367" /><line stroke="rgb(0%,0%,0%)" x1="291.721136028" x2="291.521697505" y1="67.2435219427" y2="72.9639848307" /><line stroke="rgb(0%,0%,0%)" x1="291.721136028" x2="288.609535484" y1="67.2435219427" y2="57.4461411396" /><line stroke="rgb(0%,0%,0%)" x1="308.253158428" x2="310.976948035" y1="258.339170923" y2="258.430543365" /><line stroke="rgb(0%,0%,0%)" x1="307.119392631" x2="300.541247051" y1="258.289587926" y2="258.424580421" /><line stroke="rgb(0%,0%,0%)" x1="322.805955059" x2="315.150496769" y1="261.293866035" y2="259.118663401" /><line stroke="rgb(0%,0%,0%)" x1="314.459607001" x2="310.976948035" y1="259.041654332" y2="258.430543365" /><line stroke="rgb(0%,0%,0%)" x1="315.150496769" x2="314.459607001" y1="259.118663401" y2="259.041654332" /><line stroke="rgb(0%,0%,0%)" x1="329.951998568" x2="325.713259158" y1="263.238247157" y2="262.149912037" /><line stroke="rgb(0%,0%,0%)" x1="337.566682965" x2="332.696762781" y1="266.251361781" y2="264.03630641" /><line stroke="rgb(0%,0%,0%)" x1="261.764798126" x2="263.979881286" y1="256.489952556" y2="256.292645651" /><line stroke="rgb(0%,0%,0%)" x1="261.764798126" x2="260.637619686" y1="256.489952556" y2="256.683315913" /><line stroke="rgb(0%,0%,0%)" x1="255.330806308" x2="253.731252221" y1="85.7744153425" y2="86.3807166513" /><line stroke="rgb(0%,0%,0%)" x1="257.680667137" x2="257.686170763" y1="76.8103113185" y2="81.5054586973" /><line stroke="rgb(0%,0%,0%)" x1="257.680667137" x2="258.809263563" y1="76.8103113185" y2="73.484729491" /><line stroke="rgb(0%,0%,0%)" x1="278.247007278" x2="272.440072889" y1="256.828283143" y2="256.634180295" /><line stroke="rgb(0%,0%,0%)" x1="266.248771153" x2="272.444071276" y1="105.012236696" y2="104.16006721" /><line stroke="rgb(0%,0%,0%)" x1="264.551459483" x2="266.248771153" y1="104.432299632" y2="105.012236696" /><line stroke="rgb(0%,0%,0%)" x1="260.434112495" x2="259.503408957" y1="57.9511720202" y2="62.7440323902" /><line stroke="rgb(0%,0%,0%)" x1="273.311622008" x2="266.863876583" y1="23.0975024337" y2="19.6355681313" /><line stroke="rgb(0%,0%,0%)" x1="288.814506946" x2="284.5556462" y1="257.461680665" y2="257.371427136" /><line stroke="rgb(0%,0%,0%)" x1="281.956249361" x2="284.5556462" y1="258.060423877" y2="257.371427136" /><line stroke="rgb(0%,0%,0%)" x1="291.575934042" x2="288.814506946" y1="258.155179889" y2="257.461680665" /><line stroke="rgb(0%,0%,0%)" x1="279.033613548" x2="274.058634244" y1="99.4803540085" y2="103.516424111" /><line stroke="rgb(0%,0%,0%)" x1="279.033613548" x2="285.110793663" y1="99.4803540085" y2="89.761573224" /><line stroke="rgb(0%,0%,0%)" x1="287.5756012" x2="287.543876306" y1="48.6253478021" y2="48.2200586593" /><line stroke="rgb(0%,0%,0%)" x1="282.45763672" x2="286.572744909" y1="33.5649190001" y2="45.2148265897" /><line stroke="rgb(0%,0%,0%)" x1="282.45763672" x2="281.03692221" y1="33.5649190001" y2="29.7774073438" /><line stroke="rgb(0%,0%,0%)" x1="276.140258354" x2="279.671468255" y1="25.057418885" y2="28.7735872463" /><line stroke="rgb(0%,0%,0%)" x1="281.03692221" x2="279.671468255" y1="29.7774073438" y2="28.7735872463" /><line stroke="rgb(0%,0%,0%)" x1="291.102945274" x2="291.012764188" y1="79.4600130367" y2="78.5935953889" /><line stroke="rgb(0%,0%,0%)" x1="291.012764188" x2="291.521697505" y1="78.5935953889" y2="72.9639848307" /><line stroke="rgb(0%,0%,0%)" x1="288.609535484" x2="287.5756012" y1="57.4461411396" y2="48.6253478021" /><line stroke="rgb(0%,0%,0%)" x1="296.701651284" x2="294.805694042" y1="257.751502203" y2="258.24860921" /><line stroke="rgb(0%,0%,0%)" x1="294.805694042" x2="292.986257582" y1="258.24860921" y2="257.602337223" /><line stroke="rgb(0%,0%,0%)" x1="325.713259158" x2="322.805955059" y1="262.149912037" y2="261.293866035" /><line stroke="rgb(0%,0%,0%)" x1="237.607070546" x2="235.033415953" y1="26.8076999393" y2="22.6290174654" /><line stroke="rgb(0%,0%,0%)" x1="237.7726917" x2="228.825648524" y1="10.8324154151" y2="8.94002443264" /><line stroke="rgb(0%,0%,0%)" x1="239.704705913" x2="244.281403401" y1="259.353728453" y2="258.759813369" /><line stroke="rgb(0%,0%,0%)" x1="248.75436775" x2="246.985222364" y1="258.356492731" y2="258.973499886" /><line stroke="rgb(0%,0%,0%)" x1="246.985222364" x2="244.281403401" y1="258.973499886" y2="258.759813369" /><line stroke="rgb(0%,0%,0%)" x1="249.751964936" x2="250.373157661" y1="86.3073437489" y2="93.3061524669" /><line stroke="rgb(0%,0%,0%)" x1="238.146603054" x2="243.145726597" y1="27.7579378118" y2="32.5912035735" /><line stroke="rgb(0%,0%,0%)" x1="238.146603054" x2="237.607070546" y1="27.7579378118" y2="26.8076999393" /><line stroke="rgb(0%,0%,0%)" x1="243.145726597" x2="250.674196082" y1="32.5912035735" y2="40.7773708243" /><line stroke="rgb(0%,0%,0%)" x1="250.956202227" x2="240.736490508" y1="13.7136461936" y2="11.9181320935" /><line stroke="rgb(0%,0%,0%)" x1="240.736490508" x2="237.7726917" y1="11.9181320935" y2="10.8324154151" /><line stroke="rgb(0%,0%,0%)" x1="260.189358172" x2="255.633965322" y1="16.5980579492" y2="15.4968321193" /><line stroke="rgb(0%,0%,0%)" x1="251.55360217" x2="248.75436775" y1="257.456163516" y2="258.356492731" /><line stroke="rgb(0%,0%,0%)" x1="260.637619686" x2="251.55360217" y1="256.683315913" y2="257.456163516" /><line stroke="rgb(0%,0%,0%)" x1="258.06356147" x2="261.831415691" y1="103.140279594" y2="103.943662658" /><line stroke="rgb(0%,0%,0%)" x1="254.096926435" x2="255.321975283" y1="100.4463657" y2="101.225153478" /><line stroke="rgb(0%,0%,0%)" x1="255.321975283" x2="258.06356147" y1="101.225153478" y2="103.140279594" /><line stroke="rgb(0%,0%,0%)" x1="253.298624504" x2="254.096926435" y1="98.5258985245" y2="100.4463657" /><line stroke="rgb(0%,0%,0%)" x1="261.831415691" x2="264.551459483" y1="103.943662658" y2="104.432299632" /><line stroke="rgb(0%,0%,0%)" x1="253.298624504" x2="250.556951338" y1="98.5258985245" y2="93.6052059859" /><line stroke="rgb(0%,0%,0%)" x1="250.390500448" x2="250.556951338" y1="93.3744699428" y2="93.6052059859" /><line stroke="rgb(0%,0%,0%)" x1="253.731252221" x2="249.751964936" y1="86.3807166513" y2="86.3073437489" /><line stroke="rgb(0%,0%,0%)" x1="257.686170763" x2="255.330806308" y1="81.5054586973" y2="85.7744153425" /><line stroke="rgb(0%,0%,0%)" x1="259.503408957" x2="258.809263563" y1="62.7440323902" y2="73.484729491" /><line stroke="rgb(0%,0%,0%)" x1="255.300540889" x2="259.260383331" y1="45.2932518552" y2="53.7722876596" /><line stroke="rgb(0%,0%,0%)" x1="250.674196082" x2="255.300540889" y1="40.7773708243" y2="45.2932518552" /><line stroke="rgb(0%,0%,0%)" x1="251.72255853" x2="255.633965322" y1="14.3271879826" y2="15.4968321193" /><line stroke="rgb(0%,0%,0%)" x1="251.72255853" x2="250.956202227" y1="14.3271879826" y2="13.7136461936" /><line stroke="rgb(0%,0%,0%)" x1="266.863876583" x2="264.52942896" y1="19.6355681313" y2="18.409771269" /><line stroke="rgb(0%,0%,0%)" x1="264.52942896" x2="260.189358172" y1="18.409771269" y2="16.5980579492" /><line stroke="rgb(0%,0%,0%)" x1="272.440072889" x2="268.724467267" y1="256.634180295" y2="256.670514765" /><line stroke="rgb(0%,0%,0%)" x1="268.724467267" x2="263.979881286" y1="256.670514765" y2="256.292645651" /><line stroke="rgb(0%,0%,0%)" x1="272.444071276" x2="274.058634244" y1="104.16006721" y2="103.516424111" /><line stroke="rgb(0%,0%,0%)" x1="276.140258354" x2="273.311622008" y1="25.057418885" y2="23.0975024337" /><line stroke="rgb(0%,0%,0%)" x1="281.956249361" x2="278.247007278" y1="258.060423877" y2="256.828283143" /><line stroke="rgb(0%,0%,0%)" x1="287.543876306" x2="286.572744909" y1="48.2200586593" y2="45.2148265897" /><line stroke="rgb(0%,0%,0%)" x1="191.750250009" x2="196.752950056" y1="270.870025396" y2="269.375096099" /><line stroke="rgb(0%,0%,0%)" x1="208.033817112" x2="205.756607002" y1="266.376303786" y2="266.696510432" /><line stroke="rgb(0%,0%,0%)" x1="205.756607002" x2="196.752950056" y1="266.696510432" y2="269.375096099" /><line stroke="rgb(0%,0%,0%)" x1="217.846011462" x2="219.714843914" y1="264.487144323" y2="264.382913734" /><line stroke="rgb(0%,0%,0%)" x1="217.846011462" x2="208.033817112" y1="264.487144323" y2="266.376303786" /><line stroke="rgb(0%,0%,0%)" x1="219.714843914" x2="223.243176945" y1="264.382913734" y2="263.21682331" /><line stroke="rgb(0%,0%,0%)" x1="222.214379196" x2="235.033415953" y1="12.3540902788" y2="22.6290174654" /><line stroke="rgb(0%,0%,0%)" x1="227.711812073" x2="225.230011447" y1="8.66629224028" y2="9.62099863883" /><line stroke="rgb(0%,0%,0%)" x1="229.766746806" x2="227.279067734" y1="262.147613166" y2="262.318566788" /><line stroke="rgb(0%,0%,0%)" x1="227.279067734" x2="223.243176945" y1="262.318566788" y2="263.21682331" /><line stroke="rgb(0%,0%,0%)" x1="234.012179921" x2="229.766746806" y1="260.511636366" y2="262.147613166" /><line stroke="rgb(0%,0%,0%)" x1="222.214379196" x2="225.230011447" y1="12.3540902788" y2="9.62099863883" /><line stroke="rgb(0%,0%,0%)" x1="228.825648524" x2="227.711812073" y1="8.94002443264" y2="8.66629224028" /><line stroke="rgb(0%,0%,0%)" x1="239.704705913" x2="236.547045015" y1="259.353728453" y2="259.648303669" /><line stroke="rgb(0%,0%,0%)" x1="236.547045015" x2="234.012179921" y1="259.648303669" y2="260.511636366" /><line stroke="rgb(0%,0%,0%)" x1="250.373157661" x2="250.390500448" y1="93.3061524669" y2="93.3744699428" /><line stroke="rgb(0%,0%,0%)" x1="134.364217742" x2="137.509757919" y1="309.651199536" y2="308.109402179" /><line stroke="rgb(0%,0%,0%)" x1="146.523207623" x2="147.326982118" y1="304.805873142" y2="304.047053591" /><line stroke="rgb(0%,0%,0%)" x1="146.523207623" x2="145.53726495" y1="304.805873142" y2="305.192904972" /><line stroke="rgb(0%,0%,0%)" x1="161.145706154" x2="157.691296958" y1="288.120308413" y2="291.703069197" /><line stroke="rgb(0%,0%,0%)" x1="157.691296958" x2="154.735890702" y1="291.703069197" y2="295.721169103" /><line stroke="rgb(0%,0%,0%)" x1="164.039919426" x2="161.145706154" y1="286.048424803" y2="288.120308413" /><line stroke="rgb(0%,0%,0%)" x1="171.157737937" x2="164.039919426" y1="280.696952697" y2="286.048424803" /><line stroke="rgb(0%,0%,0%)" x1="182.035806039" x2="171.157737937" y1="274.202026744" y2="280.696952697" /><line stroke="rgb(0%,0%,0%)" x1="113.827710645" x2="111.76948945" y1="322.226967705" y2="323.787834392" /><line stroke="rgb(0%,0%,0%)" x1="122.170924558" x2="120.203545942" y1="316.415918114" y2="317.607403938" /><line stroke="rgb(0%,0%,0%)" x1="120.203545942" x2="113.827710645" y1="317.607403938" y2="322.226967705" /><line stroke="rgb(0%,0%,0%)" x1="126.433068776" x2="124.727807545" y1="313.719078907" y2="315.130353654" /><line stroke="rgb(0%,0%,0%)" x1="122.170924558" x2="124.727807545" y1="316.415918114" y2="315.130353654" /><line stroke="rgb(0%,0%,0%)" x1="134.364217742" x2="131.229029559" y1="309.651199536" y2="311.776608396" /><line stroke="rgb(0%,0%,0%)" x1="131.229029559" x2="126.433068776" y1="311.776608396" y2="313.719078907" /><line stroke="rgb(0%,0%,0%)" x1="142.274300321" x2="137.509757919" y1="306.763673284" y2="308.109402179" /><line stroke="rgb(0%,0%,0%)" x1="145.53726495" x2="142.274300321" y1="305.192904972" y2="306.763673284" /><line stroke="rgb(0%,0%,0%)" x1="151.9806816" x2="147.326982118" y1="299.148210343" y2="304.047053591" /><line stroke="rgb(0%,0%,0%)" x1="154.735890702" x2="151.9806816" y1="295.721169103" y2="299.148210343" /><line stroke="rgb(0%,0%,0%)" x1="95.3950677709" x2="89.548501849" y1="339.491074203" y2="344.583738746" /><line stroke="rgb(0%,0%,0%)" x1="97.3290349539" x2="95.3950677709" y1="336.465116678" y2="339.491074203" /><line stroke="rgb(0%,0%,0%)" x1="97.3290349539" x2="101.595028908" y1="336.465116678" y2="334.313133134" /><line stroke="rgb(0%,0%,0%)" x1="102.65171346" x2="101.595028908" y1="333.268564313" y2="334.313133134" /><line stroke="rgb(0%,0%,0%)" x1="107.580072023" x2="104.199736809" y1="328.365124327" y2="331.603458336" /><line stroke="rgb(0%,0%,0%)" x1="104.199736809" x2="103.950354449" y1="331.603458336" y2="331.963266299" /><line stroke="rgb(0%,0%,0%)" x1="103.950354449" x2="102.65171346" y1="331.963266299" y2="333.268564313" /><line stroke="rgb(0%,0%,0%)" x1="109.488963082" x2="107.580072023" y1="326.56453702" y2="328.365124327" /><line stroke="rgb(0%,0%,0%)" x1="111.76948945" x2="109.488963082" y1="323.787834392" y2="326.56453702" /><line stroke="rgb(0%,0%,0%)" x1="61.2733736232" x2="60.7041148765" y1="392.253539217" y2="393.133113368" /><line stroke="rgb(0%,0%,0%)" x1="60.7041148765" x2="59.2810699813" y1="393.133113368" y2="394.255711226" /><line stroke="rgb(0%,0%,0%)" x1="61.2733736232" x2="62.1141205589" y1="392.253539217" y2="391.194569245" /><line stroke="rgb(0%,0%,0%)" x1="62.9081826242" x2="62.1141205589" y1="389.29390802" y2="391.194569245" /><line stroke="rgb(0%,0%,0%)" x1="64.6035791743" x2="64.5594214858" y1="385.456564271" y2="386.013484513" /><line stroke="rgb(0%,0%,0%)" x1="64.2286320395" x2="64.6035791743" y1="381.40851415" y2="385.456564271" /><line stroke="rgb(0%,0%,0%)" x1="64.2286320395" x2="65.8437118009" y1="381.40851415" y2="376.494031722" /><line stroke="rgb(0%,0%,0%)" x1="64.5594214858" x2="62.9081826242" y1="386.013484513" y2="389.29390802" /><line stroke="rgb(0%,0%,0%)" x1="66.844338318" x2="65.8437118009" y1="372.616328011" y2="376.494031722" /><line stroke="rgb(0%,0%,0%)" x1="66.844338318" x2="70.4036391345" y1="372.616328011" y2="366.527786566" /><line stroke="rgb(0%,0%,0%)" x1="81.569828677" x2="72.8860258357" y1="351.441315942" y2="363.204784647" /><line stroke="rgb(0%,0%,0%)" x1="72.8860258357" x2="70.4036391345" y1="363.204784647" y2="366.527786566" /><line stroke="rgb(0%,0%,0%)" x1="89.548501849" x2="81.569828677" y1="344.583738746" y2="351.441315942" /><line stroke="rgb(0%,0%,0%)" x1="23.7138916443" x2="24.0148914873" y1="436.263579566" y2="439.540720206" /><line stroke="rgb(0%,0%,0%)" x1="24.6829985367" x2="23.7138916443" y1="431.819725154" y2="436.263579566" /><line stroke="rgb(0%,0%,0%)" x1="29.4094465879" x2="29.660491552" y1="420.060907258" y2="419.637705409" /><line stroke="rgb(0%,0%,0%)" x1="29.4094465879" x2="24.6829985367" y1="420.060907258" y2="431.819725154" /><line stroke="rgb(0%,0%,0%)" x1="33.6662830739" x2="41.9212476043" y1="456.64709151" y2="459.825258596" /><line stroke="rgb(0%,0%,0%)" x1="30.0210189278" x2="29.660491552" y1="419.407802352" y2="419.637705409" /><line stroke="rgb(0%,0%,0%)" x1="36.6635088175" x2="30.0210189278" y1="411.930724663" y2="419.407802352" /><line stroke="rgb(0%,0%,0%)" x1="38.8192611203" x2="36.6635088175" y1="410.346442204" y2="411.930724663" /><line stroke="rgb(0%,0%,0%)" x1="55.5382000481" x2="54.062983194" y1="398.614106878" y2="399.451481408" /><line stroke="rgb(0%,0%,0%)" x1="38.8192611203" x2="54.062983194" y1="410.346442204" y2="399.451481408" /><line stroke="rgb(0%,0%,0%)" x1="55.93087575" x2="55.5382000481" y1="398.134069975" y2="398.614106878" /><line stroke="rgb(0%,0%,0%)" x1="59.2182197887" x2="55.93087575" y1="394.792581337" y2="398.134069975" /><line stroke="rgb(0%,0%,0%)" x1="59.2810699813" x2="59.2182197887" y1="394.255711226" y2="394.792581337" /><line stroke="rgb(0%,0%,0%)" x1="24.0148914873" x2="24.2906932504" y1="439.540720206" y2="443.887320826" /><line stroke="rgb(0%,0%,0%)" x1="24.2906932504" x2="24.9107300684" y1="443.887320826" y2="446.702139866" /><line stroke="rgb(0%,0%,0%)" x1="32.632717542" x2="33.6662830739" y1="455.63254172" y2="456.64709151" /><line stroke="rgb(0%,0%,0%)" x1="41.9212476043" x2="42.7726053366" y1="459.825258596" y2="460.285985707" /><line stroke="rgb(0%,0%,0%)" x1="26.4754595506" x2="32.632717542" y1="450.691449273" y2="455.63254172" /><line stroke="rgb(0%,0%,0%)" x1="24.9107300684" x2="26.4754595506" y1="446.702139866" y2="450.691449273" /><line stroke="rgb(0%,0%,0%)" x1="498.983351191" x2="498.642777114" y1="499.412504638" y2="504.148720949" /><line stroke="rgb(0%,0%,0%)" x1="498.642777114" x2="497.276453029" y1="504.148720949" y2="506.762274766" /><line stroke="rgb(0%,0%,0%)" x1="449.770300365" x2="450.579332583" y1="336.83010259" y2="338.223249814" /><line stroke="rgb(0%,0%,0%)" x1="465.875502563" x2="460.402140054" y1="353.743298034" y2="348.298649787" /><line stroke="rgb(0%,0%,0%)" x1="475.084960683" x2="476.223806077" y1="570.42568062" y2="568.554974556" /><line stroke="rgb(0%,0%,0%)" x1="481.427859715" x2="476.223806077" y1="562.070525627" y2="568.554974556" /><line stroke="rgb(0%,0%,0%)" x1="481.427859715" x2="485.532319768" y1="562.070525627" y2="552.487936507" /><line stroke="rgb(0%,0%,0%)" x1="485.532319768" x2="489.603422664" y1="552.487936507" y2="545.758574858" /><line stroke="rgb(0%,0%,0%)" x1="489.603422664" x2="490.873124195" y1="545.758574858" y2="544.365668082" /><line stroke="rgb(0%,0%,0%)" x1="490.873124195" x2="490.945142154" y1="544.365668082" y2="537.52042712" /><line stroke="rgb(0%,0%,0%)" x1="490.945142154" x2="492.013349623" y1="537.52042712" y2="530.976906565" /><line stroke="rgb(0%,0%,0%)" x1="492.013349623" x2="493.227716924" y1="530.976906565" y2="526.35922094" /><line stroke="rgb(0%,0%,0%)" x1="493.227716924" x2="494.555013748" y1="526.35922094" y2="521.766517203" /><line stroke="rgb(0%,0%,0%)" x1="494.555013748" x2="497.276453029" y1="521.766517203" y2="506.762274766" /><line stroke="rgb(0%,0%,0%)" x1="502.482685139" x2="503.979111285" y1="485.718649799" y2="476.154685681" /><line stroke="rgb(0%,0%,0%)" x1="503.979111285" x2="503.80644368" y1="476.154685681" y2="468.235018741" /><line stroke="rgb(0%,0%,0%)" x1="423.803199258" x2="423.86220832" y1="622.13564307" y2="622.466612971" /><line stroke="rgb(0%,0%,0%)" x1="422.913645648" x2="414.933457277" y1="310.240258613" y2="305.319705901" /><line stroke="rgb(0%,0%,0%)" x1="414.330757978" x2="414.933457277" y1="304.852900423" y2="305.319705901" /><line stroke="rgb(0%,0%,0%)" x1="436.46603384" x2="435.288855264" y1="324.821611997" y2="323.934387291" /><line stroke="rgb(0%,0%,0%)" x1="430.52721339" x2="434.119352711" y1="316.687404362" y2="321.595713815" /><line stroke="rgb(0%,0%,0%)" x1="449.770300365" x2="443.616948615" y1="336.83010259" y2="330.944761212" /><line stroke="rgb(0%,0%,0%)" x1="460.402140054" x2="460.207649088" y1="348.298649787" y2="348.126216536" /><line stroke="rgb(0%,0%,0%)" x1="460.207649088" x2="460.075258547" y1="348.126216536" y2="347.929520186" /><line stroke="rgb(0%,0%,0%)" x1="453.864831114" x2="460.075258547" y1="340.909833466" y2="347.929520186" /><line stroke="rgb(0%,0%,0%)" x1="453.864831114" x2="450.579332583" y1="340.909833466" y2="338.223249814" /><line stroke="rgb(0%,0%,0%)" x1="471.003893422" x2="470.108610424" y1="357.899571962" y2="356.982807016" /><line stroke="rgb(0%,0%,0%)" x1="465.875502563" x2="470.108610424" y1="353.743298034" y2="356.982807016" /><line stroke="rgb(0%,0%,0%)" x1="498.983351191" x2="502.482685139" y1="499.412504638" y2="485.718649799" /><line stroke="rgb(0%,0%,0%)" x1="503.80644368" x2="503.243969217" y1="468.235018741" y2="463.788041857" /><line stroke="rgb(0%,0%,0%)" x1="378.916231611" x2="378.160656552" y1="650.521785502" y2="650.635372143" /><line stroke="rgb(0%,0%,0%)" x1="378.916231611" x2="380.622726175" y1="650.521785502" y2="650.404882244" /><line stroke="rgb(0%,0%,0%)" x1="410.348131256" x2="402.914470894" y1="633.10914692" y2="640.32293279" /><line stroke="rgb(0%,0%,0%)" x1="411.490535224" x2="410.348131256" y1="631.733521662" y2="633.10914692" /><line stroke="rgb(0%,0%,0%)" x1="411.490535224" x2="416.227512329" y1="631.733521662" y2="627.732124231" /><line stroke="rgb(0%,0%,0%)" x1="416.227512329" x2="418.830122923" y1="627.732124231" y2="625.953938689" /><line stroke="rgb(0%,0%,0%)" x1="418.830122923" x2="420.348146854" y1="625.953938689" y2="624.831544564" /><line stroke="rgb(0%,0%,0%)" x1="420.348146854" x2="421.689467738" y1="624.831544564" y2="623.884662771" /><line stroke="rgb(0%,0%,0%)" x1="422.913645648" x2="426.568095982" y1="310.240258613" y2="312.920649119" /><line stroke="rgb(0%,0%,0%)" x1="435.288855264" x2="434.119352711" y1="323.934387291" y2="321.595713815" /><line stroke="rgb(0%,0%,0%)" x1="430.52721339" x2="426.568095982" y1="316.687404362" y2="312.920649119" /><line stroke="rgb(0%,0%,0%)" x1="443.616948615" x2="436.46603384" y1="330.944761212" y2="324.821611997" /><line stroke="rgb(0%,0%,0%)" x1="354.580208614" x2="354.627214283" y1="813.800655687" y2="813.996240755" /><line stroke="rgb(0%,0%,0%)" x1="354.580208614" x2="354.292112019" y1="813.800655687" y2="813.059281577" /><line stroke="rgb(0%,0%,0%)" x1="354.292112019" x2="353.776965589" y1="813.059281577" y2="811.719240367" /><line stroke="rgb(0%,0%,0%)" x1="372.352685619" x2="372.342866979" y1="651.103205013" y2="651.106949763" /><line stroke="rgb(0%,0%,0%)" x1="372.352685619" x2="372.361441625" y1="651.103205013" y2="651.096232593" /><line stroke="rgb(0%,0%,0%)" x1="372.342866979" x2="372.305337973" y1="651.106949763" y2="651.129510384" /><line stroke="rgb(0%,0%,0%)" x1="372.361441625" x2="372.376298979" y1="651.096232593" y2="651.080863486" /><line stroke="rgb(0%,0%,0%)" x1="378.160656552" x2="376.392363067" y1="650.635372143" y2="650.208174007" /><line stroke="rgb(0%,0%,0%)" x1="372.376298979" x2="376.392363067" y1="651.080863486" y2="650.208174007" /><line stroke="rgb(0%,0%,0%)" x1="380.622726175" x2="384.444824152" y1="650.404882244" y2="649.323736026" /><line stroke="rgb(0%,0%,0%)" x1="384.444824152" x2="392.31585959" y1="649.323736026" y2="647.142454654" /><line stroke="rgb(0%,0%,0%)" x1="392.31585959" x2="396.912280892" y1="647.142454654" y2="644.192373054" /><line stroke="rgb(0%,0%,0%)" x1="396.912280892" x2="402.648921088" y1="644.192373054" y2="640.583261178" /><line stroke="rgb(0%,0%,0%)" x1="402.648921088" x2="402.654322628" y1="640.583261178" y2="640.575262531" /><line stroke="rgb(0%,0%,0%)" x1="402.654322628" x2="402.914470894" y1="640.575262531" y2="640.32293279" /><line stroke="rgb(0%,0%,0%)" x1="316.399498464" x2="316.786188878" y1="887.190981151" y2="887.19542779" /><line stroke="rgb(0%,0%,0%)" x1="336.122653072" x2="330.843689975" y1="876.334513708" y2="879.835585357" /><line stroke="rgb(0%,0%,0%)" x1="333.047739706" x2="332.572996121" y1="790.38449319" y2="790.152944252" /><line stroke="rgb(0%,0%,0%)" x1="325.550419779" x2="327.86118314" y1="671.336010141" y2="671.216311636" /><line stroke="rgb(0%,0%,0%)" x1="336.122653072" x2="336.775285555" y1="876.334513708" y2="876.031793675" /><line stroke="rgb(0%,0%,0%)" x1="333.047739706" x2="338.451523478" y1="790.38449319" y2="792.628566287" /><line stroke="rgb(0%,0%,0%)" x1="338.007781965" x2="332.044394802" y1="668.364785644" y2="669.929856591" /><line stroke="rgb(0%,0%,0%)" x1="346.387145316" x2="345.259881437" y1="664.437543409" y2="665.01942831" /><line stroke="rgb(0%,0%,0%)" x1="338.007781965" x2="345.259881437" y1="668.364785644" y2="665.01942831" /><line stroke="rgb(0%,0%,0%)" x1="346.250409838" x2="344.726508808" y1="863.640097417" y2="866.379398348" /><line stroke="rgb(0%,0%,0%)" x1="346.250409838" x2="348.09530964" y1="863.640097417" y2="857.326580001" /><line stroke="rgb(0%,0%,0%)" x1="351.463013262" x2="349.954728357" y1="846.597552713" y2="851.270203628" /><line stroke="rgb(0%,0%,0%)" x1="351.463013262" x2="351.554029355" y1="846.597552713" y2="838.039838757" /><line stroke="rgb(0%,0%,0%)" x1="354.033402998" x2="351.994100404" y1="821.896133247" y2="826.817695892" /><line stroke="rgb(0%,0%,0%)" x1="351.751172462" x2="351.393788273" y1="832.807070172" y2="830.402001478" /><line stroke="rgb(0%,0%,0%)" x1="351.393788273" x2="351.994100404" y1="830.402001478" y2="826.817695892" /><line stroke="rgb(0%,0%,0%)" x1="354.033402998" x2="354.296568856" y1="821.896133247" y2="819.958739212" /><line stroke="rgb(0%,0%,0%)" x1="354.296568856" x2="354.627214283" y1="819.958739212" y2="813.996240755" /><line stroke="rgb(0%,0%,0%)" x1="350.845030986" x2="349.91508927" y1="804.80374775" y2="802.225757733" /><line stroke="rgb(0%,0%,0%)" x1="345.158734838" x2="349.91508927" y1="796.992517784" y2="802.225757733" /><line stroke="rgb(0%,0%,0%)" x1="346.387145316" x2="351.502085056" y1="664.437543409" y2="661.910461084" /><line stroke="rgb(0%,0%,0%)" x1="351.502085056" x2="352.234395625" y1="661.910461084" y2="661.606173042" /><line stroke="rgb(0%,0%,0%)" x1="359.432175142" x2="352.518104528" y1="658.825184035" y2="661.519168096" /><line stroke="rgb(0%,0%,0%)" x1="359.432175142" x2="363.259049954" y1="658.825184035" y2="656.725228336" /><line stroke="rgb(0%,0%,0%)" x1="365.338410586" x2="372.305337973" y1="655.179535619" y2="651.129510384" /><line stroke="rgb(0%,0%,0%)" x1="363.259049954" x2="365.338410586" y1="656.725228336" y2="655.179535619" /><line stroke="rgb(0%,0%,0%)" x1="298.566548517" x2="305.890223673" y1="819.868193404" y2="820.447548284" /><line stroke="rgb(0%,0%,0%)" x1="298.566548517" x2="294.867159502" y1="819.868193404" y2="813.869973652" /><line stroke="rgb(0%,0%,0%)" x1="305.677646814" x2="301.638267131" y1="788.63106528" y2="792.830954575" /><line stroke="rgb(0%,0%,0%)" x1="299.964024456" x2="303.514313744" y1="672.149523452" y2="672.676223139" /><line stroke="rgb(0%,0%,0%)" x1="303.514313744" x2="304.866787773" y1="672.676223139" y2="672.570503962" /><line stroke="rgb(0%,0%,0%)" x1="316.399498464" x2="313.983890101" y1="887.190981151" y2="884.995923986" /><line stroke="rgb(0%,0%,0%)" x1="311.231956329" x2="311.07237526" y1="881.007917485" y2="878.444191965" /><line stroke="rgb(0%,0%,0%)" x1="310.667198744" x2="310.197155948" y1="827.841771773" y2="822.651766759" /><line stroke="rgb(0%,0%,0%)" x1="314.166492726" x2="310.667198744" y1="832.883502833" y2="827.841771773" /><line stroke="rgb(0%,0%,0%)" x1="305.890223673" x2="307.666891344" y1="820.447548284" y2="820.705255599" /><line stroke="rgb(0%,0%,0%)" x1="307.666891344" x2="310.197155948" y1="820.705255599" y2="822.651766759" /><line stroke="rgb(0%,0%,0%)" x1="311.004165516" x2="314.187751637" y1="786.851891734" y2="785.503540579" /><line stroke="rgb(0%,0%,0%)" x1="311.004165516" x2="305.677646814" y1="786.851891734" y2="788.63106528" /><line stroke="rgb(0%,0%,0%)" x1="317.503525074" x2="314.187751637" y1="785.011699307" y2="785.503540579" /><line stroke="rgb(0%,0%,0%)" x1="321.318464188" x2="317.503525074" y1="785.319473288" y2="785.011699307" /><line stroke="rgb(0%,0%,0%)" x1="316.900552599" x2="320.892415981" y1="672.210947919" y2="672.402431397" /><line stroke="rgb(0%,0%,0%)" x1="316.900552599" x2="311.401717806" y1="672.210947919" y2="672.227994322" /><line stroke="rgb(0%,0%,0%)" x1="304.866787773" x2="311.401717806" y1="672.570503962" y2="672.227994322" /><line stroke="rgb(0%,0%,0%)" x1="316.786188878" x2="320.262830476" y1="887.19542779" y2="886.7424886" /><line stroke="rgb(0%,0%,0%)" x1="322.619603908" x2="326.147491841" y1="885.554938507" y2="883.8340014" /><line stroke="rgb(0%,0%,0%)" x1="320.262830476" x2="322.619603908" y1="886.7424886" y2="885.554938507" /><line stroke="rgb(0%,0%,0%)" x1="322.001779887" x2="322.02839533" y1="856.294923898" y2="845.114946202" /><line stroke="rgb(0%,0%,0%)" x1="322.001779887" x2="321.957379635" y1="856.294923898" y2="856.917128323" /><line stroke="rgb(0%,0%,0%)" x1="319.842660394" x2="321.966327809" y1="839.446323227" y2="844.772508818" /><line stroke="rgb(0%,0%,0%)" x1="321.966327809" x2="322.02839533" y1="844.772508818" y2="845.114946202" /><line stroke="rgb(0%,0%,0%)" x1="328.649263603" x2="324.862394455" y1="786.841977214" y2="786.437623618" /><line stroke="rgb(0%,0%,0%)" x1="332.572996121" x2="328.649263603" y1="790.152944252" y2="786.841977214" /><line stroke="rgb(0%,0%,0%)" x1="321.318464188" x2="324.862394455" y1="785.319473288" y2="786.437623618" /><line stroke="rgb(0%,0%,0%)" x1="320.892415981" x2="325.550419779" y1="672.402431397" y2="671.336010141" /><line stroke="rgb(0%,0%,0%)" x1="327.86118314" x2="332.044394802" y1="671.216311636" y2="669.929856591" /><line stroke="rgb(0%,0%,0%)" x1="326.147491841" x2="330.843689975" y1="883.8340014" y2="879.835585357" /><line stroke="rgb(0%,0%,0%)" x1="336.775285555" x2="344.726508808" y1="876.031793675" y2="866.379398348" /><line stroke="rgb(0%,0%,0%)" x1="338.761643276" x2="338.737891893" y1="792.754723607" y2="792.738177287" /><line stroke="rgb(0%,0%,0%)" x1="338.737891893" x2="338.451523478" y1="792.738177287" y2="792.628566287" /><line stroke="rgb(0%,0%,0%)" x1="345.158734838" x2="338.761643276" y1="796.992517784" y2="792.754723607" /><line stroke="rgb(0%,0%,0%)" x1="348.09530964" x2="348.579467902" y1="857.326580001" y2="854.336199468" /><line stroke="rgb(0%,0%,0%)" x1="348.579467902" x2="349.311069647" y1="854.336199468" y2="852.570602073" /><line stroke="rgb(0%,0%,0%)" x1="349.311069647" x2="349.954728357" y1="852.570602073" y2="851.270203628" /><line stroke="rgb(0%,0%,0%)" x1="351.554029355" x2="351.751172462" y1="838.039838757" y2="832.807070172" /><line stroke="rgb(0%,0%,0%)" x1="353.776965589" x2="350.845030986" y1="811.719240367" y2="804.80374775" /><line stroke="rgb(0%,0%,0%)" x1="352.234395625" x2="352.518104528" y1="661.606173042" y2="661.519168096" /><line stroke="rgb(0%,0%,0%)" x1="278.236917766" x2="275.549677601" y1="671.748555756" y2="671.222069504" /><line stroke="rgb(0%,0%,0%)" x1="269.854047656" x2="266.672449468" y1="670.302993096" y2="669.288526474" /><line stroke="rgb(0%,0%,0%)" x1="272.893329824" x2="275.549677601" y1="670.106580079" y2="671.222069504" /><line stroke="rgb(0%,0%,0%)" x1="269.854047656" x2="272.893329824" y1="670.302993096" y2="670.106580079" /><line stroke="rgb(0%,0%,0%)" x1="292.97889212" x2="294.2792568" y1="807.098646558" y2="809.476992513" /><line stroke="rgb(0%,0%,0%)" x1="292.97889212" x2="292.90297047" y1="807.098646558" y2="802.994662473" /><line stroke="rgb(0%,0%,0%)" x1="288.510117027" x2="293.927071323" y1="672.433536814" y2="672.798256661" /><line stroke="rgb(0%,0%,0%)" x1="278.236917766" x2="288.510117027" y1="671.748555756" y2="672.433536814" /><line stroke="rgb(0%,0%,0%)" x1="294.055440931" x2="294.867159502" y1="811.269823393" y2="813.869973652" /><line stroke="rgb(0%,0%,0%)" x1="294.2792568" x2="294.055440931" y1="809.476992513" y2="811.269823393" /><line stroke="rgb(0%,0%,0%)" x1="293.227159351" x2="292.90297047" y1="802.315226764" y2="802.994662473" /><line stroke="rgb(0%,0%,0%)" x1="293.227159351" x2="296.24874938" y1="802.315226764" y2="796.736002828" /><line stroke="rgb(0%,0%,0%)" x1="296.318231593" x2="296.24874938" y1="796.605404652" y2="796.736002828" /><line stroke="rgb(0%,0%,0%)" x1="299.210650814" x2="296.318231593" y1="794.86651846" y2="796.605404652" /><line stroke="rgb(0%,0%,0%)" x1="301.638267131" x2="299.210650814" y1="792.830954575" y2="794.86651846" /><line stroke="rgb(0%,0%,0%)" x1="293.927071323" x2="299.964024456" y1="672.798256661" y2="672.149523452" /><line stroke="rgb(0%,0%,0%)" x1="313.111615792" x2="313.327917154" y1="884.343491506" y2="884.706503282" /><line stroke="rgb(0%,0%,0%)" x1="313.327917154" x2="313.983890101" y1="884.706503282" y2="884.995923986" /><line stroke="rgb(0%,0%,0%)" x1="311.231956329" x2="313.111615792" y1="881.007917485" y2="884.343491506" /><line stroke="rgb(0%,0%,0%)" x1="311.062459101" x2="311.07237526" y1="878.346339275" y2="878.444191965" /><line stroke="rgb(0%,0%,0%)" x1="314.166492726" x2="317.202547479" y1="832.883502833" y2="837.835357264" /><line stroke="rgb(0%,0%,0%)" x1="317.202547479" x2="319.842660394" y1="837.835357264" y2="839.446323227" /><line stroke="rgb(0%,0%,0%)" x1="247.56980919" x2="239.748293243" y1="661.987695901" y2="659.226810861" /><line stroke="rgb(0%,0%,0%)" x1="261.5864106" x2="253.107546278" y1="667.574595862" y2="664.258110823" /><line stroke="rgb(0%,0%,0%)" x1="247.56980919" x2="251.755022404" y1="661.987695901" y2="663.798857891" /><line stroke="rgb(0%,0%,0%)" x1="251.755022404" x2="253.107546278" y1="663.798857891" y2="664.258110823" /><line stroke="rgb(0%,0%,0%)" x1="261.5864106" x2="266.672449468" y1="667.574595862" y2="669.288526474" /><line stroke="rgb(0%,0%,0%)" x1="164.381760804" x2="178.924561661" y1="632.353405463" y2="641.470782798" /><line stroke="rgb(0%,0%,0%)" x1="178.924561661" x2="180.592848082" y1="641.470782798" y2="642.306250349" /><line stroke="rgb(0%,0%,0%)" x1="180.592848082" x2="184.225354779" y1="642.306250349" y2="643.501107655" /><line stroke="rgb(0%,0%,0%)" x1="210.57867054" x2="199.875921064" y1="653.517798005" y2="650.544664635" /><line stroke="rgb(0%,0%,0%)" x1="210.57867054" x2="214.463285673" y1="653.517798005" y2="653.698431748" /><line stroke="rgb(0%,0%,0%)" x1="220.456838086" x2="228.611208903" y1="655.060717909" y2="656.092944507" /><line stroke="rgb(0%,0%,0%)" x1="214.463285673" x2="220.456838086" y1="653.698431748" y2="655.060717909" /><line stroke="rgb(0%,0%,0%)" x1="234.328847856" x2="239.748293243" y1="657.531404788" y2="659.226810861" /><line stroke="rgb(0%,0%,0%)" x1="228.611208903" x2="234.328847856" y1="656.092944507" y2="657.531404788" /><line stroke="rgb(0%,0%,0%)" x1="145.620432403" x2="146.833499622" y1="614.045591466" y2="614.843186856" /><line stroke="rgb(0%,0%,0%)" x1="129.187232592" x2="130.011833921" y1="609.991468555" y2="610.423138672" /><line stroke="rgb(0%,0%,0%)" x1="157.930590705" x2="156.675523368" y1="626.73039155" y2="625.312074069" /><line stroke="rgb(0%,0%,0%)" x1="164.381760804" x2="164.311863884" y1="632.353405463" y2="632.299765029" /><line stroke="rgb(0%,0%,0%)" x1="157.930590705" x2="164.311863884" y1="626.73039155" y2="632.299765029" /><line stroke="rgb(0%,0%,0%)" x1="184.225354779" x2="193.025808583" y1="643.501107655" y2="646.958161958" /><line stroke="rgb(0%,0%,0%)" x1="193.025808583" x2="199.875921064" y1="646.958161958" y2="650.544664635" /><line stroke="rgb(0%,0%,0%)" x1="128.515323301" x2="129.187232592" y1="609.566309905" y2="609.991468555" /><line stroke="rgb(0%,0%,0%)" x1="128.515323301" x2="127.217461402" y1="609.566309905" y2="609.223911261" /><line stroke="rgb(0%,0%,0%)" x1="113.434113684" x2="116.095059938" y1="599.642732135" y2="601.887131214" /><line stroke="rgb(0%,0%,0%)" x1="113.434113684" x2="112.480951109" y1="599.642732135" y2="599.100395479" /><line stroke="rgb(0%,0%,0%)" x1="130.011833921" x2="137.145186704" y1="610.423138672" y2="612.850583159" /><line stroke="rgb(0%,0%,0%)" x1="124.716577435" x2="127.217461402" y1="607.900852297" y2="609.223911261" /><line stroke="rgb(0%,0%,0%)" x1="146.833499622" x2="151.014370842" y1="614.843186856" y2="617.421609901" /><line stroke="rgb(0%,0%,0%)" x1="145.620432403" x2="142.611221112" y1="614.045591466" y2="614.094256948" /><line stroke="rgb(0%,0%,0%)" x1="140.56815714" x2="142.611221112" y1="613.846084316" y2="614.094256948" /><line stroke="rgb(0%,0%,0%)" x1="151.014370842" x2="156.675523368" y1="617.421609901" y2="625.312074069" /><line stroke="rgb(0%,0%,0%)" x1="87.9431927496" x2="100.374418489" y1="574.288883448" y2="585.274479021" /><line stroke="rgb(0%,0%,0%)" x1="112.480951109" x2="110.433632676" y1="599.100395479" y2="597.531556959" /><line stroke="rgb(0%,0%,0%)" x1="110.433632676" x2="104.275979889" y1="597.531556959" y2="589.774580554" /><line stroke="rgb(0%,0%,0%)" x1="101.349624123" x2="104.275979889" y1="586.413819809" y2="589.774580554" /><line stroke="rgb(0%,0%,0%)" x1="100.374418489" x2="101.349624123" y1="585.274479021" y2="586.413819809" /><line stroke="rgb(0%,0%,0%)" x1="116.095059938" x2="123.114039973" y1="601.887131214" y2="606.924824486" /><line stroke="rgb(0%,0%,0%)" x1="123.114039973" x2="124.716577435" y1="606.924824486" y2="607.900852297" /><line stroke="rgb(0%,0%,0%)" x1="137.145186704" x2="140.255914847" y1="612.850583159" y2="613.78099106" /><line stroke="rgb(0%,0%,0%)" x1="140.255914847" x2="140.56815714" y1="613.78099106" y2="613.846084316" /><line stroke="rgb(0%,0%,0%)" x1="60.5170676053" x2="60.9793394848" y1="527.712002822" y2="528.576297252" /><line stroke="rgb(0%,0%,0%)" x1="55.6792324565" x2="55.485325107" y1="522.502221341" y2="521.884257283" /><line stroke="rgb(0%,0%,0%)" x1="55.485325107" x2="50.2196381437" y1="521.884257283" y2="518.784972189" /><line stroke="rgb(0%,0%,0%)" x1="66.3377613122" x2="71.9420138221" y1="545.544870394" y2="554.030795936" /><line stroke="rgb(0%,0%,0%)" x1="64.171925547" x2="63.69226728" y1="536.658149773" y2="535.192094998" /><line stroke="rgb(0%,0%,0%)" x1="64.171925547" x2="66.3377613122" y1="536.658149773" y2="545.544870394" /><line stroke="rgb(0%,0%,0%)" x1="63.69226728" x2="63.3233946932" y1="535.192094998" y2="532.677211596" /><line stroke="rgb(0%,0%,0%)" x1="62.3199942656" x2="63.3233946932" y1="531.32808797" y2="532.677211596" /><line stroke="rgb(0%,0%,0%)" x1="61.6953226231" x2="62.3199942656" y1="529.210756286" y2="531.32808797" /><line stroke="rgb(0%,0%,0%)" x1="60.9793394848" x2="61.6953226231" y1="528.576297252" y2="529.210756286" /><line stroke="rgb(0%,0%,0%)" x1="55.6792324565" x2="60.5170676053" y1="522.502221341" y2="527.712002822" /><line stroke="rgb(0%,0%,0%)" x1="71.9420138221" x2="75.5385474622" y1="554.030795936" y2="559.292124597" /><line stroke="rgb(0%,0%,0%)" x1="87.9431927496" x2="76.8547012626" y1="574.288883448" y2="561.22218893" /><line stroke="rgb(0%,0%,0%)" x1="76.1293666786" x2="76.8547012626" y1="560.450582438" y2="561.22218893" /><line stroke="rgb(0%,0%,0%)" x1="75.5385474622" x2="76.1293666786" y1="559.292124597" y2="560.450582438" /><line stroke="rgb(0%,0%,0%)" x1="25.7909833218" x2="24.7965292561" y1="498.633638554" y2="496.56749382" /><line stroke="rgb(0%,0%,0%)" x1="25.7909833218" x2="29.1748639013" y1="498.633638554" y2="502.509227079" /><line stroke="rgb(0%,0%,0%)" x1="22.5271178427" x2="22.9768769045" y1="482.497912723" y2="483.899459848" /><line stroke="rgb(0%,0%,0%)" x1="22.9768769045" x2="23.5968038593" y1="483.899459848" y2="491.872431443" /><line stroke="rgb(0%,0%,0%)" x1="23.5968038593" x2="24.7965292561" y1="491.872431443" y2="496.56749382" /><line stroke="rgb(0%,0%,0%)" x1="22.246046266" x2="22.5271178427" y1="481.517327353" y2="482.497912723" /><line stroke="rgb(0%,0%,0%)" x1="22.246046266" x2="22.4332798667" y1="481.517327353" y2="478.226115626" /><line stroke="rgb(0%,0%,0%)" x1="25.0392034958" x2="24.5342357988" y1="469.151922226" y2="470.073808249" /><line stroke="rgb(0%,0%,0%)" x1="24.5342357988" x2="22.4332798667" y1="470.073808249" y2="478.226115626" /><line stroke="rgb(0%,0%,0%)" x1="25.4296245418" x2="25.0392034958" y1="468.834375482" y2="469.151922226" /><line stroke="rgb(0%,0%,0%)" x1="29.1748639013" x2="33.7566267377" y1="502.509227079" y2="506.643365431" /><line stroke="rgb(0%,0%,0%)" x1="39.4881559848" x2="33.7566267377" y1="510.73212038" y2="506.643365431" /><line stroke="rgb(0%,0%,0%)" x1="35.4466334461" x2="25.4296245418" y1="462.671548845" y2="468.834375482" /><line stroke="rgb(0%,0%,0%)" x1="35.4466334461" x2="35.9719247213" y1="462.671548845" y2="462.363835382" /><line stroke="rgb(0%,0%,0%)" x1="36.7537703495" x2="41.0981991871" y1="462.216258645" y2="460.881564577" /><line stroke="rgb(0%,0%,0%)" x1="35.9719247213" x2="36.7537703495" y1="462.363835382" y2="462.216258645" /><line stroke="rgb(0%,0%,0%)" x1="39.4881559848" x2="43.5619379589" y1="510.73212038" y2="514.323643047" /><line stroke="rgb(0%,0%,0%)" x1="43.5619379589" x2="46.3130958179" y1="514.323643047" y2="516.02865074" /><line stroke="rgb(0%,0%,0%)" x1="42.0180205271" x2="41.0981991871" y1="460.565073747" y2="460.881564577" /><line stroke="rgb(0%,0%,0%)" x1="42.7726053366" x2="42.0180205271" y1="460.285985707" y2="460.565073747" /><line stroke="rgb(0%,0%,0%)" x1="46.3130958179" x2="50.2196381437" y1="516.02865074" y2="518.784972189" /><line stroke="rgb(0%,0%,0%)" x1="437.440567623" x2="434.486379941" y1="611.744308159" y2="615.201776862" /><line stroke="rgb(0%,0%,0%)" x1="437.440567623" x2="438.901098721" y1="611.744308159" y2="608.716286193" /><line stroke="rgb(0%,0%,0%)" x1="438.901098721" x2="443.513791356" y1="608.716286193" y2="603.440983429" /><line stroke="rgb(0%,0%,0%)" x1="456.675905771" x2="459.6007644" y1="590.943553668" y2="587.596893191" /><line stroke="rgb(0%,0%,0%)" x1="463.875949305" x2="459.6007644" y1="582.552701149" y2="587.596893191" /><line stroke="rgb(0%,0%,0%)" x1="463.875949305" x2="465.490565347" y1="582.552701149" y2="580.825044873" /><line stroke="rgb(0%,0%,0%)" x1="465.490565347" x2="467.213212148" y1="580.825044873" y2="578.444954465" /><line stroke="rgb(0%,0%,0%)" x1="467.213212148" x2="472.117421955" y1="578.444954465" y2="573.616429744" /><line stroke="rgb(0%,0%,0%)" x1="472.117421955" x2="475.084960683" y1="573.616429744" y2="570.42568062" /><line stroke="rgb(0%,0%,0%)" x1="421.689467738" x2="422.162921352" y1="623.884662771" y2="623.565299809" /><line stroke="rgb(0%,0%,0%)" x1="423.803199258" x2="431.987272765" y1="622.13564307" y2="617.277924596" /><line stroke="rgb(0%,0%,0%)" x1="431.987272765" x2="433.277716975" y1="617.277924596" y2="616.52140711" /><line stroke="rgb(0%,0%,0%)" x1="433.277716975" x2="434.486379941" y1="616.52140711" y2="615.201776862" /><line stroke="rgb(0%,0%,0%)" x1="453.53310795" x2="455.7647109" y1="593.594815527" y2="591.552055743" /><line stroke="rgb(0%,0%,0%)" x1="443.513791356" x2="453.53310795" y1="603.440983429" y2="593.594815527" /><line stroke="rgb(0%,0%,0%)" x1="455.7647109" x2="456.675905771" y1="591.552055743" y2="590.943553668" /><line stroke="rgb(0%,0%,0%)" x1="311.900238264" x2="311.038794571" y1="874.365150629" y2="878.308702487" /><line stroke="rgb(0%,0%,0%)" x1="311.038794571" x2="311.062459101" y1="878.308702487" y2="878.346339275" /><line stroke="rgb(0%,0%,0%)" x1="316.730366543" x2="314.580902139" y1="864.453551913" y2="867.787210481" /><line stroke="rgb(0%,0%,0%)" x1="314.580902139" x2="313.164174654" y1="867.787210481" y2="870.831965212" /><line stroke="rgb(0%,0%,0%)" x1="316.730366543" x2="321.957379635" y1="864.453551913" y2="856.917128323" /><line stroke="rgb(0%,0%,0%)" x1="313.164174654" x2="311.900238264" y1="870.831965212" y2="874.365150629" /><line stroke="rgb(0%,0%,0%)" x1="186.94683591" x2="182.035806039" y1="272.306227894" y2="274.202026744" /><line stroke="rgb(0%,0%,0%)" x1="191.750250009" x2="186.94683591" y1="270.870025396" y2="272.306227894" /></svg>