<?xml version="1.0" encoding="utf-8" ?>
<svg baseProfile="full" height="100%" version="1.1" viewBox="0.5 0.5 685.793960571 941.299331665" width="100%" xmlns="http://www.w3.org/2000/svg" xmlns:ev="http://www.w3.org/2001/xml-events" xmlns:xlink="http://www.w3.org/1999/xlink"><defs /><line stroke="rgb(0%,0%,0%)" x1="423.579297088" x2="422.391843591" y1="621.97132758" y2="622.739084618" /><line stroke="rgb(0%,0%,0%)" x1="503.128978497" x2="502.687100272" y1="460.125369871" y2="453.259228049" /><line stroke="rgb(0%,0%,0%)" x1="495.23736083" x2="494.650124137" y1="423.007546234" y2="420.423708528" /><line stroke="rgb(0%,0%,0%)" x1="494.650124137" x2="493.269125437" y1="420.423708528" y2="412.595661936" /><line stroke="rgb(0%,0%,0%)" x1="493.269125437" x2="488.135448628" y1="412.595661936" y2="398.701152266" /><line stroke="rgb(0%,0%,0%)" x1="486.905695469" x2="488.135448628" y1="391.31736627" y2="398.701152266" /><line stroke="rgb(0%,0%,0%)" x1="486.905695469" x2="483.818141329" y1="391.31736627" y2="383.960788338" /><line stroke="rgb(0%,0%,0%)" x1="502.656699718" x2="503.128978497" y1="463.820994391" y2="460.125369871" /><line stroke="rgb(0%,0%,0%)" x1="502.687100272" x2="502.306359338" y1="453.259228049" y2="446.299056304" /><line stroke="rgb(0%,0%,0%)" x1="501.027288155" x2="502.306359338" y1="439.806550815" y2="446.299056304" /><line stroke="rgb(0%,0%,0%)" x1="501.027288155" x2="500.499878413" y1="439.806550815" y2="437.239462616" /><line stroke="rgb(0%,0%,0%)" x1="483.818141329" x2="480.847962636" y1="383.960788338" y2="374.704262875" /><line stroke="rgb(0%,0%,0%)" x1="480.847962636" x2="476.0740433" y1="374.704262875" y2="366.740780331" /><line stroke="rgb(0%,0%,0%)" x1="471.492327089" x2="476.0740433" y1="359.259484834" y2="366.740780331" /><line stroke="rgb(0%,0%,0%)" x1="471.492327089" x2="470.404143564" y1="359.259484834" y2="358.194668243" /><line stroke="rgb(0%,0%,0%)" x1="500.499878413" x2="497.83439045" y1="437.239462616" y2="428.029072729" /><line stroke="rgb(0%,0%,0%)" x1="497.83439045" x2="495.23736083" y1="428.029072729" y2="423.007546234" /><line stroke="rgb(0%,0%,0%)" x1="399.927077959" x2="397.203512955" y1="292.482421928" y2="290.600761429" /><line stroke="rgb(0%,0%,0%)" x1="397.203512955" x2="395.715187741" y1="290.600761429" y2="288.855434381" /><line stroke="rgb(0%,0%,0%)" x1="410.100956682" x2="413.465981887" y1="301.486730811" y2="304.9772742" /><line stroke="rgb(0%,0%,0%)" x1="371.461629591" x2="372.093607888" y1="275.314299578" y2="275.393295855" /><line stroke="rgb(0%,0%,0%)" x1="371.461629591" x2="370.164941956" y1="275.314299578" y2="275.42905201" /><line stroke="rgb(0%,0%,0%)" x1="381.177449239" x2="386.759002311" y1="278.033044678" y2="280.779360065" /><line stroke="rgb(0%,0%,0%)" x1="381.177449239" x2="372.093607888" y1="278.033044678" y2="275.393295855" /><line stroke="rgb(0%,0%,0%)" x1="388.586167825" x2="387.936041383" y1="282.138773404" y2="281.503039979" /><line stroke="rgb(0%,0%,0%)" x1="395.715187741" x2="388.586167825" y1="288.855434381" y2="282.138773404" /><line stroke="rgb(0%,0%,0%)" x1="387.936041383" x2="386.759002311" y1="281.503039979" y2="280.779360065" /><line stroke="rgb(0%,0%,0%)" x1="405.405818767" x2="402.615812741" y1="298.251829326" y2="295.838699318" /><line stroke="rgb(0%,0%,0%)" x1="399.927077959" x2="402.615812741" y1="292.482421928" y2="295.838699318" /><line stroke="rgb(0%,0%,0%)" x1="410.100956682" x2="405.405818767" y1="301.486730811" y2="298.251829326" /><line stroke="rgb(0%,0%,0%)" x1="333.361560483" x2="331.704046124" y1="265.155734519" y2="264.67380071" /><line stroke="rgb(0%,0%,0%)" x1="349.828971929" x2="339.724301507" y1="268.625231996" y2="267.252418968" /><line stroke="rgb(0%,0%,0%)" x1="356.447876253" x2="353.334942136" y1="272.189247415" y2="269.882008323" /><line stroke="rgb(0%,0%,0%)" x1="356.447876253" x2="362.648878216" y1="272.189247415" y2="275.220286991" /><line stroke="rgb(0%,0%,0%)" x1="353.334942136" x2="349.828971929" y1="269.882008323" y2="268.625231996" /><line stroke="rgb(0%,0%,0%)" x1="364.454729761" x2="362.648878216" y1="275.833725327" y2="275.220286991" /><line stroke="rgb(0%,0%,0%)" x1="370.164941956" x2="364.454729761" y1="275.42905201" y2="275.833725327" /><line stroke="rgb(0%,0%,0%)" x1="292.100054367" x2="293.044928508" y1="258.555229395" y2="258.184841521" /><line stroke="rgb(0%,0%,0%)" x1="301.992546876" x2="297.445189431" y1="259.158650733" y2="258.361502431" /><line stroke="rgb(0%,0%,0%)" x1="286.223505902" x2="284.519876546" y1="81.8522015472" y2="84.8624506106" /><line stroke="rgb(0%,0%,0%)" x1="286.223505902" x2="288.339398921" y1="81.8522015472" y2="78.2960213556" /><line stroke="rgb(0%,0%,0%)" x1="285.40423311" x2="288.241914468" y1="53.3047142105" y2="62.2396158709" /><line stroke="rgb(0%,0%,0%)" x1="301.992546876" x2="308.722481907" y1="259.158650733" y2="259.020543311" /><line stroke="rgb(0%,0%,0%)" x1="322.509540001" x2="316.039684829" y1="262.172049342" y2="260.333720991" /><line stroke="rgb(0%,0%,0%)" x1="314.612630786" x2="309.127683491" y1="260.174656393" y2="259.212198834" /><line stroke="rgb(0%,0%,0%)" x1="316.039684829" x2="314.612630786" y1="260.333720991" y2="260.174656393" /><line stroke="rgb(0%,0%,0%)" x1="331.704046124" x2="326.250242853" y1="264.67380071" y2="263.27348683" /><line stroke="rgb(0%,0%,0%)" x1="333.361560483" x2="336.851484652" y1="265.155734519" y2="266.743106588" /><line stroke="rgb(0%,0%,0%)" x1="339.724301507" x2="338.787852314" y1="267.252418968" y2="267.099525532" /><line stroke="rgb(0%,0%,0%)" x1="338.787852314" x2="336.851484652" y1="267.099525532" y2="266.743106588" /><line stroke="rgb(0%,0%,0%)" x1="262.572029489" x2="262.887403623" y1="256.563987939" y2="256.535896219" /><line stroke="rgb(0%,0%,0%)" x1="262.572029489" x2="262.411546609" y1="256.563987939" y2="256.591518192" /><line stroke="rgb(0%,0%,0%)" x1="255.865567006" x2="255.868678294" y1="75.1774270496" y2="77.831669067" /><line stroke="rgb(0%,0%,0%)" x1="255.865567006" x2="256.503580642" y1="75.1774270496" y2="73.2974223753" /><line stroke="rgb(0%,0%,0%)" x1="278.223606448" x2="274.180881036" y1="257.12694183" y2="256.99180951" /><line stroke="rgb(0%,0%,0%)" x1="265.401195585" x2="269.528992792" y1="101.976665548" y2="101.408883076" /><line stroke="rgb(0%,0%,0%)" x1="261.958555472" x2="265.401195585" y1="100.800385062" y2="101.976665548" /><line stroke="rgb(0%,0%,0%)" x1="270.01834968" x2="264.929018185" y1="21.1370567132" y2="18.4044842998" /><line stroke="rgb(0%,0%,0%)" x1="290.249981684" x2="284.632418661" y1="258.090605879" y2="257.971558809" /><line stroke="rgb(0%,0%,0%)" x1="282.482081866" x2="284.632418661" y1="258.541527589" y2="257.971558809" /><line stroke="rgb(0%,0%,0%)" x1="292.100054367" x2="290.249981684" y1="258.555229395" y2="258.090605879" /><line stroke="rgb(0%,0%,0%)" x1="276.980069384" x2="273.300651121" y1="96.9203017144" y2="99.9053171572" /><line stroke="rgb(0%,0%,0%)" x1="276.980069384" x2="284.519876546" y1="96.9203017144" y2="84.8624506106" /><line stroke="rgb(0%,0%,0%)" x1="288.805678017" x2="288.241914468" y1="65.3484944103" y2="62.2396158709" /><line stroke="rgb(0%,0%,0%)" x1="284.754516276" x2="284.6046292" y1="47.761791413" y2="45.8469669197" /><line stroke="rgb(0%,0%,0%)" x1="279.025892813" x2="280.016432805" y1="28.8442540683" y2="31.6484815232" /><line stroke="rgb(0%,0%,0%)" x1="279.025892813" x2="278.683915282" y1="28.8442540683" y2="27.9325692253" /><line stroke="rgb(0%,0%,0%)" x1="274.533224879" x2="276.474532735" y1="24.2653408396" y2="26.308330929" /><line stroke="rgb(0%,0%,0%)" x1="278.683915282" x2="276.474532735" y1="27.9325692253" y2="26.308330929" /><line stroke="rgb(0%,0%,0%)" x1="288.339398921" x2="288.103056476" y1="78.2960213556" y2="76.0253538044" /><line stroke="rgb(0%,0%,0%)" x1="288.103056476" x2="288.968594423" y1="76.0253538044" y2="66.4511298325" /><line stroke="rgb(0%,0%,0%)" x1="285.40423311" x2="284.754516276" y1="53.3047142105" y2="47.761791413" /><line stroke="rgb(0%,0%,0%)" x1="297.445189431" x2="295.199745951" y1="258.361502431" y2="258.950242336" /><line stroke="rgb(0%,0%,0%)" x1="295.199745951" x2="293.044928508" y1="258.950242336" y2="258.184841521" /><line stroke="rgb(0%,0%,0%)" x1="309.127683491" x2="308.722481907" y1="259.212198834" y2="259.020543311" /><line stroke="rgb(0%,0%,0%)" x1="326.250242853" x2="322.509540001" y1="263.27348683" y2="262.172049342" /><line stroke="rgb(0%,0%,0%)" x1="240.216842032" x2="243.771047941" y1="259.186745352" y2="258.725518342" /><line stroke="rgb(0%,0%,0%)" x1="249.312953138" x2="247.12102062" y1="258.225812874" y2="258.990271272" /><line stroke="rgb(0%,0%,0%)" x1="247.12102062" x2="243.771047941" y1="258.990271272" y2="258.725518342" /><line stroke="rgb(0%,0%,0%)" x1="247.180293874" x2="247.604845606" y1="83.2389400677" y2="88.0222484433" /><line stroke="rgb(0%,0%,0%)" x1="246.416216669" x2="235.941003381" y1="36.8003704748" y2="25.4100277053" /><line stroke="rgb(0%,0%,0%)" x1="252.669038143" x2="247.001383484" y1="12.8250833726" y2="11.4549781127" /><line stroke="rgb(0%,0%,0%)" x1="251.510721431" x2="249.312953138" y1="257.51893567" y2="258.225812874" /><line stroke="rgb(0%,0%,0%)" x1="262.411546609" x2="251.510721431" y1="256.591518192" y2="257.51893567" /><line stroke="rgb(0%,0%,0%)" x1="261.958555472" x2="257.797314122" y1="100.800385062" y2="100.052846956" /><line stroke="rgb(0%,0%,0%)" x1="256.999511062" x2="253.008025018" y1="99.9456129449" y2="96.8238634684" /><line stroke="rgb(0%,0%,0%)" x1="256.999511062" x2="257.797314122" y1="99.9456129449" y2="100.052846956" /><line stroke="rgb(0%,0%,0%)" x1="252.981415787" x2="253.008025018" y1="96.7850537957" y2="96.8238634684" /><line stroke="rgb(0%,0%,0%)" x1="248.117860822" x2="252.981415787" y1="90.0431407544" y2="96.7850537957" /><line stroke="rgb(0%,0%,0%)" x1="247.180293874" x2="252.691227603" y1="83.2389400677" y2="83.3405545462" /><line stroke="rgb(0%,0%,0%)" x1="255.868678294" x2="252.94673624" y1="77.831669067" y2="83.1275135902" /><line stroke="rgb(0%,0%,0%)" x1="252.94673624" x2="252.756633227" y1="83.1275135902" y2="83.1903708528" /><line stroke="rgb(0%,0%,0%)" x1="252.756633227" x2="252.691227603" y1="83.1903708528" y2="83.3405545462" /><line stroke="rgb(0%,0%,0%)" x1="256.503580642" x2="257.341698818" y1="73.2974223753" y2="60.3289959769" /><line stroke="rgb(0%,0%,0%)" x1="256.884074517" x2="257.341698818" y1="56.6788358325" y2="60.3289959769" /><line stroke="rgb(0%,0%,0%)" x1="248.988702968" x2="254.503604058" y1="39.311433218" y2="51.1202474533" /><line stroke="rgb(0%,0%,0%)" x1="246.416216669" x2="248.988702968" y1="36.8003704748" y2="39.311433218" /><line stroke="rgb(0%,0%,0%)" x1="254.503604058" x2="256.442620348" y1="51.1202474533" y2="54.9592204846" /><line stroke="rgb(0%,0%,0%)" x1="264.929018185" x2="260.641026227" y1="18.4044842998" y2="16.15289937" /><line stroke="rgb(0%,0%,0%)" x1="260.641026227" x2="252.669038143" y1="16.15289937" y2="12.8250833726" /><line stroke="rgb(0%,0%,0%)" x1="274.180881036" x2="269.220933303" y1="256.99180951" y2="257.040312255" /><line stroke="rgb(0%,0%,0%)" x1="269.220933303" x2="262.887403623" y1="257.040312255" y2="256.535896219" /><line stroke="rgb(0%,0%,0%)" x1="269.528992792" x2="273.300651121" y1="101.408883076" y2="99.9053171572" /><line stroke="rgb(0%,0%,0%)" x1="274.533224879" x2="270.01834968" y1="24.2653408396" y2="21.1370567132" /><line stroke="rgb(0%,0%,0%)" x1="282.482081866" x2="278.223606448" y1="258.541527589" y2="257.12694183" /><line stroke="rgb(0%,0%,0%)" x1="288.968594423" x2="288.805678017" y1="66.4511298325" y2="65.3484944103" /><line stroke="rgb(0%,0%,0%)" x1="284.6046292" x2="280.016432805" y1="45.8469669197" y2="31.6484815232" /><line stroke="rgb(0%,0%,0%)" x1="192.658188943" x2="196.685703273" y1="270.534406264" y2="269.330886343" /><line stroke="rgb(0%,0%,0%)" x1="208.179905328" x2="206.599832157" y1="266.159255773" y2="266.381435504" /><line stroke="rgb(0%,0%,0%)" x1="206.599832157" x2="196.685703273" y1="266.381435504" y2="269.330886343" /><line stroke="rgb(0%,0%,0%)" x1="218.914040627" x2="220.054146485" y1="264.092593357" y2="264.029006113" /><line stroke="rgb(0%,0%,0%)" x1="218.914040627" x2="208.179905328" y1="264.092593357" y2="266.159255773" /><line stroke="rgb(0%,0%,0%)" x1="220.054146485" x2="222.206652532" y1="264.029006113" y2="263.317617288" /><line stroke="rgb(0%,0%,0%)" x1="219.12360915" x2="231.823726282" y1="15.1498981765" y2="23.4665828311" /><line stroke="rgb(0%,0%,0%)" x1="214.527802449" x2="219.12360915" y1="8.82096467113" y2="15.1498981765" /><line stroke="rgb(0%,0%,0%)" x1="218.047992633" x2="214.527802449" y1="5.58523984829" y2="8.82096467113" /><line stroke="rgb(0%,0%,0%)" x1="218.047992633" x2="220.538232249" y1="5.58523984829" y2="3.65358840607" /><line stroke="rgb(0%,0%,0%)" x1="222.825445049" x2="220.538232249" y1="4.08497074557" y2="3.65358840607" /><line stroke="rgb(0%,0%,0%)" x1="229.726456254" x2="227.662138522" y1="261.961545398" y2="262.103405575" /><line stroke="rgb(0%,0%,0%)" x1="227.662138522" x2="222.206652532" y1="262.103405575" y2="263.317617288" /><line stroke="rgb(0%,0%,0%)" x1="233.249387713" x2="229.726456254" y1="260.603984466" y2="261.961545398" /><line stroke="rgb(0%,0%,0%)" x1="231.823726282" x2="234.823129267" y1="23.4665828311" y2="24.5770450787" /><line stroke="rgb(0%,0%,0%)" x1="234.823129267" x2="235.941003381" y1="24.5770450787" y2="25.4100277053" /><line stroke="rgb(0%,0%,0%)" x1="236.376126265" x2="247.001383484" y1="7.74184827591" y2="11.4549781127" /><line stroke="rgb(0%,0%,0%)" x1="233.227048271" x2="222.825445049" y1="6.87742424914" y2="4.08497074557" /><line stroke="rgb(0%,0%,0%)" x1="236.376126265" x2="233.227048271" y1="7.74184827591" y2="6.87742424914" /><line stroke="rgb(0%,0%,0%)" x1="240.216842032" x2="236.351974644" y1="259.186745352" y2="259.547295198" /><line stroke="rgb(0%,0%,0%)" x1="236.351974644" x2="233.249387713" y1="259.547295198" y2="260.603984466" /><line stroke="rgb(0%,0%,0%)" x1="247.604845606" x2="248.117860822" y1="88.0222484433" y2="90.0431407544" /><line stroke="rgb(0%,0%,0%)" x1="256.442620348" x2="256.884074517" y1="54.9592204846" y2="56.6788358325" /><line stroke="rgb(0%,0%,0%)" x1="135.797614589" x2="136.433790932" y1="308.742650158" y2="308.430826132" /><line stroke="rgb(0%,0%,0%)" x1="163.035452241" x2="160.654668539" y1="287.683629513" y2="290.15287331" /><line stroke="rgb(0%,0%,0%)" x1="160.654668539" x2="158.617798369" y1="290.15287331" y2="292.922153445" /><line stroke="rgb(0%,0%,0%)" x1="165.030148119" x2="163.035452241" y1="286.255684399" y2="287.683629513" /><line stroke="rgb(0%,0%,0%)" x1="172.864406334" x2="165.030148119" y1="280.365563115" y2="286.255684399" /><line stroke="rgb(0%,0%,0%)" x1="184.837399781" x2="172.864406334" y1="273.216894331" y2="280.365563115" /><line stroke="rgb(0%,0%,0%)" x1="114.790845473" x2="113.096073359" y1="321.609859626" y2="322.895102117" /><line stroke="rgb(0%,0%,0%)" x1="123.794479283" x2="122.463377998" y1="315.24464068" y2="316.050783584" /><line stroke="rgb(0%,0%,0%)" x1="122.463377998" x2="114.790845473" y1="316.050783584" y2="321.609859626" /><line stroke="rgb(0%,0%,0%)" x1="126.678187379" x2="125.524431108" y1="313.419996403" y2="314.374845466" /><line stroke="rgb(0%,0%,0%)" x1="123.794479283" x2="125.524431108" y1="315.24464068" y2="314.374845466" /><line stroke="rgb(0%,0%,0%)" x1="135.797614589" x2="132.192699268" y1="308.742650158" y2="311.186496753" /><line stroke="rgb(0%,0%,0%)" x1="132.192699268" x2="126.678187379" y1="311.186496753" y2="313.419996403" /><line stroke="rgb(0%,0%,0%)" x1="144.997884942" x2="136.433790932" y1="306.01192673" y2="308.430826132" /><line stroke="rgb(0%,0%,0%)" x1="144.997884942" x2="147.633194207" y1="306.01192673" y2="304.743307313" /><line stroke="rgb(0%,0%,0%)" x1="149.689701028" x2="147.633194207" y1="303.767876309" y2="304.743307313" /><line stroke="rgb(0%,0%,0%)" x1="149.824425128" x2="149.689701028" y1="302.958165755" y2="303.767876309" /><line stroke="rgb(0%,0%,0%)" x1="154.540509311" x2="149.824425128" y1="297.993651555" y2="302.958165755" /><line stroke="rgb(0%,0%,0%)" x1="158.617798369" x2="154.540509311" y1="292.922153445" y2="297.993651555" /><line stroke="rgb(0%,0%,0%)" x1="99.7317123226" x2="97.5262468134" y1="335.786974243" y2="339.237728222" /><line stroke="rgb(0%,0%,0%)" x1="97.5262468134" x2="96.5650252631" y1="339.237728222" y2="340.275215191" /><line stroke="rgb(0%,0%,0%)" x1="99.7317123226" x2="101.910140672" y1="335.786974243" y2="334.688064584" /><line stroke="rgb(0%,0%,0%)" x1="103.703454418" x2="101.910140672" y1="332.91531261" y2="334.688064584" /><line stroke="rgb(0%,0%,0%)" x1="108.847204748" x2="106.330625927" y1="327.678576263" y2="330.089438578" /><line stroke="rgb(0%,0%,0%)" x1="106.330625927" x2="105.907395728" y1="330.089438578" y2="330.700073573" /><line stroke="rgb(0%,0%,0%)" x1="105.907395728" x2="103.703454418" y1="330.700073573" y2="332.91531261" /><line stroke="rgb(0%,0%,0%)" x1="110.268328543" x2="108.847204748" y1="326.338082023" y2="327.678576263" /><line stroke="rgb(0%,0%,0%)" x1="113.096073359" x2="110.268328543" y1="322.895102117" y2="326.338082023" /><line stroke="rgb(0%,0%,0%)" x1="60.5115045983" x2="63.2587900493" y1="395.006243337" y2="392.83899143" /><line stroke="rgb(0%,0%,0%)" x1="64.554076082" x2="63.393026883" y1="389.852202475" y2="392.631281454" /><line stroke="rgb(0%,0%,0%)" x1="66.438124991" x2="66.7726489013" y1="381.314258783" y2="384.925886743" /><line stroke="rgb(0%,0%,0%)" x1="66.438124991" x2="67.720269215" y1="381.314258783" y2="377.412856878" /><line stroke="rgb(0%,0%,0%)" x1="64.554076082" x2="65.4490182541" y1="389.852202475" y2="388.074271125" /><line stroke="rgb(0%,0%,0%)" x1="66.0971588959" x2="65.4490182541" y1="385.983674117" y2="388.074271125" /><line stroke="rgb(0%,0%,0%)" x1="66.7726489013" x2="66.0971588959" y1="384.925886743" y2="385.983674117" /><line stroke="rgb(0%,0%,0%)" x1="69.328263658" x2="67.720269215" y1="371.181434951" y2="377.412856878" /><line stroke="rgb(0%,0%,0%)" x1="69.328263658" x2="71.9716410573" y1="371.181434951" y2="366.659672481" /><line stroke="rgb(0%,0%,0%)" x1="82.2471710882" x2="77.2894835689" y1="352.825133273" y2="359.541039086" /><line stroke="rgb(0%,0%,0%)" x1="77.2894835689" x2="71.9716410573" y1="359.541039086" y2="366.659672481" /><line stroke="rgb(0%,0%,0%)" x1="82.2471710882" x2="94.6338729878" y1="352.825133273" y2="342.178906432" /><line stroke="rgb(0%,0%,0%)" x1="96.5650252631" x2="94.6338729878" y1="340.275215191" y2="342.178906432" /><line stroke="rgb(0%,0%,0%)" x1="25.109580807" x2="25.2331070323" y1="435.782278716" y2="437.127172484" /><line stroke="rgb(0%,0%,0%)" x1="25.5072890421" x2="25.109580807" y1="433.958581548" y2="435.782278716" /><line stroke="rgb(0%,0%,0%)" x1="25.5072890421" x2="27.9012022773" y1="433.958581548" y2="428.002821644" /><line stroke="rgb(0%,0%,0%)" x1="34.9673567943" x2="40.0823869069" y1="456.239415818" y2="458.208705968" /><line stroke="rgb(0%,0%,0%)" x1="37.1863826039" x2="34.1082275461" y1="413.227113012" y2="416.692019228" /><line stroke="rgb(0%,0%,0%)" x1="37.9799069782" x2="37.1863826039" y1="412.643944554" y2="413.227113012" /><line stroke="rgb(0%,0%,0%)" x1="55.0688480595" x2="43.5910641624" y1="402.118437575" y2="408.63355016" /><line stroke="rgb(0%,0%,0%)" x1="37.9799069782" x2="43.5910641624" y1="412.643944554" y2="408.63355016" /><line stroke="rgb(0%,0%,0%)" x1="58.1240238697" x2="55.0688480595" y1="398.383556284" y2="402.118437575" /><line stroke="rgb(0%,0%,0%)" x1="60.3852010109" x2="58.1240238697" y1="396.08513615" y2="398.383556284" /><line stroke="rgb(0%,0%,0%)" x1="60.5115045983" x2="60.3852010109" y1="395.006243337" y2="396.08513615" /><line stroke="rgb(0%,0%,0%)" x1="63.393026883" x2="63.2587900493" y1="392.631281454" y2="392.83899143" /><line stroke="rgb(0%,0%,0%)" x1="25.2331070323" x2="25.598601071" y1="437.127172484" y2="442.887311931" /><line stroke="rgb(0%,0%,0%)" x1="25.598601071" x2="25.7078994545" y1="442.887311931" y2="443.383500483" /><line stroke="rgb(0%,0%,0%)" x1="31.4581146228" x2="34.9673567943" y1="452.794737371" y2="456.239415818" /><line stroke="rgb(0%,0%,0%)" x1="40.0823869069" x2="43.9317608315" y1="458.208705968" y2="460.291861921" /><line stroke="rgb(0%,0%,0%)" x1="28.4535697676" x2="31.4581146228" y1="450.383642382" y2="452.794737371" /><line stroke="rgb(0%,0%,0%)" x1="25.7078994545" x2="28.4535697676" y1="443.383500483" y2="450.383642382" /><line stroke="rgb(0%,0%,0%)" x1="29.9675103628" x2="27.9012022773" y1="422.367369161" y2="428.002821644" /><line stroke="rgb(0%,0%,0%)" x1="34.1082275461" x2="29.9675103628" y1="416.692019228" y2="422.367369161" /><line stroke="rgb(0%,0%,0%)" x1="498.173074375" x2="497.926960114" y1="501.022225324" y2="504.444829849" /><line stroke="rgb(0%,0%,0%)" x1="497.926960114" x2="496.939592416" y1="504.444829849" y2="506.333502268" /><line stroke="rgb(0%,0%,0%)" x1="448.863631953" x2="449.189226951" y1="336.817660287" y2="337.378332355" /><line stroke="rgb(0%,0%,0%)" x1="465.172322029" x2="461.029552617" y1="353.666242161" y2="349.545206478" /><line stroke="rgb(0%,0%,0%)" x1="474.691343722" x2="476.445945518" y1="570.552934976" y2="567.670766565" /><line stroke="rgb(0%,0%,0%)" x1="480.033573608" x2="476.445945518" y1="563.200445399" y2="567.670766565" /><line stroke="rgb(0%,0%,0%)" x1="480.033573608" x2="484.862882337" y1="563.200445399" y2="551.925568634" /><line stroke="rgb(0%,0%,0%)" x1="484.862882337" x2="487.809835209" y1="551.925568634" y2="547.054379635" /><line stroke="rgb(0%,0%,0%)" x1="487.809835209" x2="490.33047026" y1="547.054379635" y2="544.289155245" /><line stroke="rgb(0%,0%,0%)" x1="490.33047026" x2="490.418130594" y1="544.289155245" y2="535.95712095" /><line stroke="rgb(0%,0%,0%)" x1="492.042657816" x2="490.331568434" y1="527.31564996" y2="533.822143374" /><line stroke="rgb(0%,0%,0%)" x1="492.042657816" x2="494.972957072" y1="527.31564996" y2="517.176247761" /><line stroke="rgb(0%,0%,0%)" x1="494.972957072" x2="496.939592416" y1="517.176247761" y2="506.333502268" /><line stroke="rgb(0%,0%,0%)" x1="502.17732684" x2="503.533051949" y1="485.352485649" y2="476.687770504" /><line stroke="rgb(0%,0%,0%)" x1="503.533051949" x2="503.376619365" y1="476.687770504" y2="469.512747967" /><line stroke="rgb(0%,0%,0%)" x1="423.538061841" x2="423.579297088" y1="621.740047418" y2="621.97132758" /><line stroke="rgb(0%,0%,0%)" x1="422.459335249" x2="414.732639198" y1="310.574024677" y2="305.80977433" /><line stroke="rgb(0%,0%,0%)" x1="435.84646443" x2="434.11125335" y1="325.423323499" y2="324.115516705" /><line stroke="rgb(0%,0%,0%)" x1="429.696068753" x2="432.387357054" y1="316.990828907" y2="320.668212947" /><line stroke="rgb(0%,0%,0%)" x1="448.863631953" x2="446.387215683" y1="336.817660287" y2="334.449104785" /><line stroke="rgb(0%,0%,0%)" x1="461.029552617" x2="459.350446901" y1="349.545206478" y2="348.05653241" /><line stroke="rgb(0%,0%,0%)" x1="459.350446901" x2="458.207474976" y1="348.05653241" y2="346.35838687" /><line stroke="rgb(0%,0%,0%)" x1="453.070679353" x2="458.207474976" y1="340.552233203" y2="346.35838687" /><line stroke="rgb(0%,0%,0%)" x1="453.070679353" x2="449.189226951" y1="340.552233203" y2="337.378332355" /><line stroke="rgb(0%,0%,0%)" x1="470.404143564" x2="468.376346927" y1="358.194668243" y2="356.118215458" /><line stroke="rgb(0%,0%,0%)" x1="465.172322029" x2="468.376346927" y1="353.666242161" y2="356.118215458" /><line stroke="rgb(0%,0%,0%)" x1="490.418130594" x2="490.331568434" y1="535.95712095" y2="533.822143374" /><line stroke="rgb(0%,0%,0%)" x1="498.173074375" x2="502.17732684" y1="501.022225324" y2="485.352485649" /><line stroke="rgb(0%,0%,0%)" x1="503.376619365" x2="502.656699718" y1="469.512747967" y2="463.820994391" /><line stroke="rgb(0%,0%,0%)" x1="378.391960933" x2="378.059911683" y1="650.390857283" y2="650.440774704" /><line stroke="rgb(0%,0%,0%)" x1="378.391960933" x2="379.141906597" y1="650.390857283" y2="650.339482321" /><line stroke="rgb(0%,0%,0%)" x1="415.164117037" x2="410.720342486" y1="627.792680134" y2="631.546404857" /><line stroke="rgb(0%,0%,0%)" x1="415.164117037" x2="416.238928078" y1="627.792680134" y2="627.058335373" /><line stroke="rgb(0%,0%,0%)" x1="416.238928078" x2="416.865832805" y1="627.058335373" y2="626.594815551" /><line stroke="rgb(0%,0%,0%)" x1="416.865832805" x2="420.950171481" y1="626.594815551" y2="623.711548785" /><line stroke="rgb(0%,0%,0%)" x1="422.459335249" x2="424.608036454" y1="310.574024677" y2="312.150009512" /><line stroke="rgb(0%,0%,0%)" x1="414.732639198" x2="413.648851817" y1="305.80977433" y2="305.17684044" /><line stroke="rgb(0%,0%,0%)" x1="413.648851817" x2="413.465981887" y1="305.17684044" y2="304.9772742" /><line stroke="rgb(0%,0%,0%)" x1="434.11125335" x2="432.387357054" y1="324.115516705" y2="320.668212947" /><line stroke="rgb(0%,0%,0%)" x1="429.696068753" x2="424.608036454" y1="316.990828907" y2="312.150009512" /><line stroke="rgb(0%,0%,0%)" x1="446.387215683" x2="435.84646443" y1="334.449104785" y2="325.423323499" /><line stroke="rgb(0%,0%,0%)" x1="378.059911683" x2="377.282807519" y1="650.440774704" y2="650.253035817" /><line stroke="rgb(0%,0%,0%)" x1="377.282807519" x2="375.494548325" y1="650.253035817" y2="650.641623985" /><line stroke="rgb(0%,0%,0%)" x1="379.141906597" x2="380.821587192" y1="650.339482321" y2="649.864355746" /><line stroke="rgb(0%,0%,0%)" x1="380.821587192" x2="390.956695519" y1="649.864355746" y2="647.055637227" /><line stroke="rgb(0%,0%,0%)" x1="390.956695519" x2="396.875259622" y1="647.055637227" y2="643.25697607" /><line stroke="rgb(0%,0%,0%)" x1="396.875259622" x2="401.630019818" y1="643.25697607" y2="640.265597685" /><line stroke="rgb(0%,0%,0%)" x1="401.630019818" x2="401.824926358" y1="640.265597685" y2="639.97697839" /><line stroke="rgb(0%,0%,0%)" x1="401.824926358" x2="409.539991683" y1="639.97697839" y2="632.493782504" /><line stroke="rgb(0%,0%,0%)" x1="409.539991683" x2="409.785078628" y1="632.493782504" y2="632.298515805" /><line stroke="rgb(0%,0%,0%)" x1="409.785078628" x2="410.720342486" y1="632.298515805" y2="631.546404857" /><line stroke="rgb(0%,0%,0%)" x1="316.248678119" x2="316.475811635" y1="888.312663593" y2="888.315275451" /><line stroke="rgb(0%,0%,0%)" x1="335.527739329" x2="332.596518491" y1="877.682403119" y2="879.626423939" /><line stroke="rgb(0%,0%,0%)" x1="325.898555307" x2="327.516129061" y1="670.334737582" y2="670.250946587" /><line stroke="rgb(0%,0%,0%)" x1="335.527739329" x2="335.890122982" y1="877.682403119" y2="877.514313429" /><line stroke="rgb(0%,0%,0%)" x1="337.803582666" x2="333.355086649" y1="667.287810329" y2="668.455303179" /><line stroke="rgb(0%,0%,0%)" x1="337.803582666" x2="346.018260245" y1="667.287810329" y2="663.498420512" /><line stroke="rgb(0%,0%,0%)" x1="345.574126387" x2="345.227428439" y1="865.556072471" y2="866.179282241" /><line stroke="rgb(0%,0%,0%)" x1="345.574126387" x2="345.993853759" y1="865.556072471" y2="864.11970391" /><line stroke="rgb(0%,0%,0%)" x1="350.843760759" x2="349.866744741" y1="848.47839264" y2="851.505178078" /><line stroke="rgb(0%,0%,0%)" x1="350.843760759" x2="350.902717909" y1="848.47839264" y2="842.934994587" /><line stroke="rgb(0%,0%,0%)" x1="352.749614271" x2="351.602191428" y1="822.328754054" y2="825.097893571" /><line stroke="rgb(0%,0%,0%)" x1="351.216068181" x2="350.648021779" y1="834.617739766" y2="830.794989177" /><line stroke="rgb(0%,0%,0%)" x1="350.648021779" x2="351.602191428" y1="830.794989177" y2="825.097893571" /><line stroke="rgb(0%,0%,0%)" x1="352.749614271" x2="352.897685733" y1="822.328754054" y2="821.238670523" /><line stroke="rgb(0%,0%,0%)" x1="352.897685733" x2="353.12699065" y1="821.238670523" y2="817.103636124" /><line stroke="rgb(0%,0%,0%)" x1="353.12699065" x2="353.624938006" y1="817.103636124" y2="815.146347527" /><line stroke="rgb(0%,0%,0%)" x1="350.354140295" x2="348.705261446" y1="807.17126254" y2="802.600230678" /><line stroke="rgb(0%,0%,0%)" x1="345.892242341" x2="348.705261446" y1="799.50517034" y2="802.600230678" /><line stroke="rgb(0%,0%,0%)" x1="351.684520667" x2="346.622636631" y1="661.198221924" y2="663.301524604" /><line stroke="rgb(0%,0%,0%)" x1="359.766324872" x2="354.031727336" y1="658.243987954" y2="660.478404583" /><line stroke="rgb(0%,0%,0%)" x1="359.766324872" x2="362.940372128" y1="658.243987954" y2="656.502264236" /><line stroke="rgb(0%,0%,0%)" x1="366.126075833" x2="372.146597336" y1="654.1341714" y2="650.634312328" /><line stroke="rgb(0%,0%,0%)" x1="362.940372128" x2="366.126075833" y1="656.502264236" y2="654.1341714" /><line stroke="rgb(0%,0%,0%)" x1="372.146597336" x2="375.494548325" y1="650.634312328" y2="650.641623985" /><line stroke="rgb(0%,0%,0%)" x1="298.118434076" x2="304.655715651" y1="821.674515347" y2="822.191660892" /><line stroke="rgb(0%,0%,0%)" x1="298.118434076" x2="295.491638663" y1="821.674515347" y2="817.415407676" /><line stroke="rgb(0%,0%,0%)" x1="306.226692245" x2="303.858190981" y1="791.586624238" y2="794.04924075" /><line stroke="rgb(0%,0%,0%)" x1="300.660462884" x2="303.089905683" y1="671.808179362" y2="672.168596967" /><line stroke="rgb(0%,0%,0%)" x1="303.089905683" x2="305.073349085" y1="672.168596967" y2="672.013556648" /><line stroke="rgb(0%,0%,0%)" x1="316.248678119" x2="314.829802452" y1="888.312663593" y2="887.023334888" /><line stroke="rgb(0%,0%,0%)" x1="311.262423426" x2="311.136828153" y1="882.836357646" y2="880.818625809" /><line stroke="rgb(0%,0%,0%)" x1="310.400508786" x2="310.073858327" y1="829.701278822" y2="826.094548673" /><line stroke="rgb(0%,0%,0%)" x1="312.832300099" x2="310.400508786" y1="833.204967809" y2="829.701278822" /><line stroke="rgb(0%,0%,0%)" x1="310.073858327" x2="307.146188084" y1="826.094548673" y2="823.842316716" /><line stroke="rgb(0%,0%,0%)" x1="312.606825191" x2="314.321643987" y1="789.455520531" y2="788.729239596" /><line stroke="rgb(0%,0%,0%)" x1="312.606825191" x2="306.226692245" y1="789.455520531" y2="791.586624238" /><line stroke="rgb(0%,0%,0%)" x1="318.409879036" x2="314.321643987" y1="788.122816158" y2="788.729239596" /><line stroke="rgb(0%,0%,0%)" x1="320.991014316" x2="318.409879036" y1="788.331051796" y2="788.122816158" /><line stroke="rgb(0%,0%,0%)" x1="317.930076325" x2="320.306143362" y1="671.501109583" y2="671.615085823" /><line stroke="rgb(0%,0%,0%)" x1="317.930076325" x2="314.657018397" y1="671.501109583" y2="671.511256071" /><line stroke="rgb(0%,0%,0%)" x1="305.073349085" x2="314.657018397" y1="672.013556648" y2="671.511256071" /><line stroke="rgb(0%,0%,0%)" x1="316.475811635" x2="320.445456024" y1="888.315275451" y2="887.798107529" /><line stroke="rgb(0%,0%,0%)" x1="321.900124181" x2="326.488558702" y1="887.065117551" y2="884.826835787" /><line stroke="rgb(0%,0%,0%)" x1="320.445456024" x2="321.900124181" y1="887.798107529" y2="887.065117551" /><line stroke="rgb(0%,0%,0%)" x1="321.691608736" x2="321.713878817" y1="856.170409823" y2="846.815727787" /><line stroke="rgb(0%,0%,0%)" x1="321.691608736" x2="321.530666712" y1="856.170409823" y2="858.425776262" /><line stroke="rgb(0%,0%,0%)" x1="319.876062628" x2="321.428932084" y1="841.349009897" y2="845.243626755" /><line stroke="rgb(0%,0%,0%)" x1="321.428932084" x2="321.713878817" y1="845.243626755" y2="846.815727787" /><line stroke="rgb(0%,0%,0%)" x1="329.200751679" x2="323.388788741" y1="789.708165591" y2="789.087576915" /><line stroke="rgb(0%,0%,0%)" x1="329.200751679" x2="331.452308932" y1="789.708165591" y2="791.608099344" /><line stroke="rgb(0%,0%,0%)" x1="320.991014316" x2="323.388788741" y1="788.331051796" y2="789.087576915" /><line stroke="rgb(0%,0%,0%)" x1="320.306143362" x2="325.898555307" y1="671.615085823" y2="670.334737582" /><line stroke="rgb(0%,0%,0%)" x1="327.516129061" x2="333.355086649" y1="670.250946587" y2="668.455303179" /><line stroke="rgb(0%,0%,0%)" x1="326.488558702" x2="332.596518491" y1="884.826835787" y2="879.626423939" /><line stroke="rgb(0%,0%,0%)" x1="335.890122982" x2="345.227428439" y1="877.514313429" y2="866.179282241" /><line stroke="rgb(0%,0%,0%)" x1="342.108852976" x2="338.416107768" y1="796.998839883" y2="794.426301471" /><line stroke="rgb(0%,0%,0%)" x1="333.696085228" x2="331.452308932" y1="792.619655323" y2="791.608099344" /><line stroke="rgb(0%,0%,0%)" x1="338.416107768" x2="333.696085228" y1="794.426301471" y2="792.619655323" /><line stroke="rgb(0%,0%,0%)" x1="345.892242341" x2="342.108852976" y1="799.50517034" y2="796.998839883" /><line stroke="rgb(0%,0%,0%)" x1="346.018260245" x2="346.325117791" y1="663.498420512" y2="663.406401315" /><line stroke="rgb(0%,0%,0%)" x1="345.993853759" x2="347.00228298" y1="864.11970391" y2="857.89118868" /><line stroke="rgb(0%,0%,0%)" x1="347.00228298" x2="348.526099952" y1="857.89118868" y2="854.213713475" /><line stroke="rgb(0%,0%,0%)" x1="348.526099952" x2="349.866744741" y1="854.213713475" y2="851.505178078" /><line stroke="rgb(0%,0%,0%)" x1="350.902717909" x2="351.216068181" y1="842.934994587" y2="834.617739766" /><line stroke="rgb(0%,0%,0%)" x1="353.624938006" x2="353.493425884" y1="815.146347527" y2="814.575829576" /><line stroke="rgb(0%,0%,0%)" x1="350.354140295" x2="353.493425884" y1="807.17126254" y2="814.575829576" /><line stroke="rgb(0%,0%,0%)" x1="346.325117791" x2="346.52062802" y1="663.406401315" y2="663.366983087" /><line stroke="rgb(0%,0%,0%)" x1="346.52062802" x2="346.622636631" y1="663.366983087" y2="663.301524604" /><line stroke="rgb(0%,0%,0%)" x1="351.684520667" x2="354.031727336" y1="661.198221924" y2="660.478404583" /><line stroke="rgb(0%,0%,0%)" x1="277.38447936" x2="276.292490619" y1="671.7383168" y2="671.524373489" /><line stroke="rgb(0%,0%,0%)" x1="269.144815887" x2="267.13723461" y1="670.370987598" y2="669.730861448" /><line stroke="rgb(0%,0%,0%)" x1="272.958933124" x2="276.292490619" y1="670.124501016" y2="671.524373489" /><line stroke="rgb(0%,0%,0%)" x1="269.144815887" x2="272.958933124" y1="670.370987598" y2="670.124501016" /><line stroke="rgb(0%,0%,0%)" x1="293.719794441" x2="294.520980926" y1="808.697011731" y2="810.162368848" /><line stroke="rgb(0%,0%,0%)" x1="293.719794441" x2="293.673017255" y1="808.697011731" y2="806.168446755" /><line stroke="rgb(0%,0%,0%)" x1="289.691376683" x2="292.140169106" y1="672.558897744" y2="672.723773272" /><line stroke="rgb(0%,0%,0%)" x1="277.38447936" x2="289.691376683" y1="671.7383168" y2="672.558897744" /><line stroke="rgb(0%,0%,0%)" x1="304.655715651" x2="306.522318971" y1="822.191660892" y2="822.268158894" /><line stroke="rgb(0%,0%,0%)" x1="294.151449363" x2="295.491638663" y1="813.122425259" y2="817.415407676" /><line stroke="rgb(0%,0%,0%)" x1="294.520980926" x2="294.151449363" y1="810.162368848" y2="813.122425259" /><line stroke="rgb(0%,0%,0%)" x1="295.239356038" x2="293.673017255" y1="802.88571078" y2="806.168446755" /><line stroke="rgb(0%,0%,0%)" x1="295.239356038" x2="296.832989672" y1="802.88571078" y2="799.943141197" /><line stroke="rgb(0%,0%,0%)" x1="297.335404597" x2="296.832989672" y1="798.998806368" y2="799.943141197" /><line stroke="rgb(0%,0%,0%)" x1="299.525783386" x2="297.335404597" y1="797.681978087" y2="798.998806368" /><line stroke="rgb(0%,0%,0%)" x1="303.858190981" x2="299.525783386" y1="794.04924075" y2="797.681978087" /><line stroke="rgb(0%,0%,0%)" x1="292.140169106" x2="300.660462884" y1="672.723773272" y2="671.808179362" /><line stroke="rgb(0%,0%,0%)" x1="312.741773968" x2="313.259550773" y1="885.461558294" y2="886.330526826" /><line stroke="rgb(0%,0%,0%)" x1="313.259550773" x2="314.829802452" y1="886.330526826" y2="887.023334888" /><line stroke="rgb(0%,0%,0%)" x1="311.262423426" x2="312.741773968" y1="882.836357646" y2="885.461558294" /><line stroke="rgb(0%,0%,0%)" x1="311.050919899" x2="311.136828153" y1="879.970882875" y2="880.818625809" /><line stroke="rgb(0%,0%,0%)" x1="306.522318971" x2="307.146188084" y1="822.268158894" y2="823.842316716" /><line stroke="rgb(0%,0%,0%)" x1="312.832300099" x2="316.599850664" y1="833.204967809" y2="839.349903748" /><line stroke="rgb(0%,0%,0%)" x1="316.599850664" x2="319.876062628" y1="839.349903748" y2="841.349009897" /><line stroke="rgb(0%,0%,0%)" x1="260.423657343" x2="253.213228565" y1="667.468471033" y2="664.648131154" /><line stroke="rgb(0%,0%,0%)" x1="250.493804968" x2="244.806548612" y1="663.724743934" y2="661.263568836" /><line stroke="rgb(0%,0%,0%)" x1="250.493804968" x2="253.213228565" y1="663.724743934" y2="664.648131154" /><line stroke="rgb(0%,0%,0%)" x1="260.423657343" x2="267.13723461" y1="667.468471033" y2="669.730861448" /><line stroke="rgb(0%,0%,0%)" x1="181.502088801" x2="181.478669719" y1="642.275051486" y2="642.260369266" /><line stroke="rgb(0%,0%,0%)" x1="181.502088801" x2="181.504624181" y1="642.275051486" y2="642.276321189" /><line stroke="rgb(0%,0%,0%)" x1="181.504624181" x2="181.510144687" y1="642.276321189" y2="642.278137075" /><line stroke="rgb(0%,0%,0%)" x1="210.203351973" x2="201.173164907" y1="653.636013644" y2="651.127503979" /><line stroke="rgb(0%,0%,0%)" x1="210.203351973" x2="213.48090242" y1="653.636013644" y2="653.788419013" /><line stroke="rgb(0%,0%,0%)" x1="221.143515719" x2="228.154941424" y1="655.530069263" y2="656.417615373" /><line stroke="rgb(0%,0%,0%)" x1="213.48090242" x2="221.143515719" y1="653.788419013" y2="655.530069263" /><line stroke="rgb(0%,0%,0%)" x1="233.071176119" x2="243.482551704" y1="657.654456035" y2="660.911525371" /><line stroke="rgb(0%,0%,0%)" x1="228.154941424" x2="233.071176119" y1="656.417615373" y2="657.654456035" /><line stroke="rgb(0%,0%,0%)" x1="243.482551704" x2="244.065061156" y1="660.911525371" y2="660.986644624" /><line stroke="rgb(0%,0%,0%)" x1="167.486135581" x2="181.478669719" y1="633.808113262" y2="642.260369266" /><line stroke="rgb(0%,0%,0%)" x1="181.510144687" x2="192.566837329" y1="642.278137075" y2="646.621502511" /><line stroke="rgb(0%,0%,0%)" x1="192.566837329" x2="201.173164907" y1="646.621502511" y2="651.127503979" /><line stroke="rgb(0%,0%,0%)" x1="244.065061156" x2="244.806548612" y1="660.986644624" y2="661.263568836" /><line stroke="rgb(0%,0%,0%)" x1="113.877184446" x2="114.165451436" y1="599.851878704" y2="600.095020092" /><line stroke="rgb(0%,0%,0%)" x1="113.877184446" x2="113.77392595" y1="599.851878704" y2="599.793126012" /><line stroke="rgb(0%,0%,0%)" x1="126.626448757" x2="130.233123969" y1="608.786873044" y2="610.694935966" /><line stroke="rgb(0%,0%,0%)" x1="153.350424028" x2="149.818764515" y1="617.990962642" y2="615.812920843" /><line stroke="rgb(0%,0%,0%)" x1="141.76484203" x2="148.031635397" y1="614.047631367" y2="614.808863825" /><line stroke="rgb(0%,0%,0%)" x1="153.350424028" x2="155.961782674" y1="617.990962642" y2="621.630651156" /><line stroke="rgb(0%,0%,0%)" x1="155.961782674" x2="159.696169768" y1="621.630651156" y2="626.766893089" /><line stroke="rgb(0%,0%,0%)" x1="148.461982078" x2="149.818764515" y1="615.016912565" y2="615.812920843" /><line stroke="rgb(0%,0%,0%)" x1="159.696169768" x2="159.88894575" y1="626.766893089" y2="627.141372374" /><line stroke="rgb(0%,0%,0%)" x1="148.194691949" x2="148.461982078" y1="614.881886108" y2="615.016912565" /><line stroke="rgb(0%,0%,0%)" x1="167.486135581" x2="160.550693388" y1="633.808113262" y2="627.749808555" /><line stroke="rgb(0%,0%,0%)" x1="159.88894575" x2="160.550693388" y1="627.141372374" y2="627.749808555" /><line stroke="rgb(0%,0%,0%)" x1="90.0736441264" x2="99.7811194683" y1="575.090023957" y2="583.668614708" /><line stroke="rgb(0%,0%,0%)" x1="113.77392595" x2="113.552134803" y1="599.793126012" y2="599.623169795" /><line stroke="rgb(0%,0%,0%)" x1="113.552134803" x2="112.885060813" y1="599.623169795" y2="598.782837061" /><line stroke="rgb(0%,0%,0%)" x1="103.056484412" x2="112.885060813" y1="587.495250592" y2="598.782837061" /><line stroke="rgb(0%,0%,0%)" x1="99.7811194683" x2="103.056484412" y1="583.668614708" y2="587.495250592" /><line stroke="rgb(0%,0%,0%)" x1="114.165451436" x2="124.31024224" y1="600.095020092" y2="607.376184039" /><line stroke="rgb(0%,0%,0%)" x1="124.31024224" x2="126.626448757" y1="607.376184039" y2="608.786873044" /><line stroke="rgb(0%,0%,0%)" x1="140.71001903" x2="130.237828074" y1="613.827732061" y2="610.695536397" /><line stroke="rgb(0%,0%,0%)" x1="140.71001903" x2="141.76484203" y1="613.827732061" y2="614.047631367" /><line stroke="rgb(0%,0%,0%)" x1="130.233123969" x2="130.237828074" y1="610.694935966" y2="610.695536397" /><line stroke="rgb(0%,0%,0%)" x1="148.13606862" x2="148.194691949" y1="614.847583276" y2="614.881886108" /><line stroke="rgb(0%,0%,0%)" x1="148.031635397" x2="148.13606862" y1="614.808863825" y2="614.847583276" /><line stroke="rgb(0%,0%,0%)" x1="57.2919249521" x2="57.1751324629" y1="521.458314004" y2="521.086107583" /><line stroke="rgb(0%,0%,0%)" x1="57.1751324629" x2="54.0035523787" y1="521.086107583" y2="519.219374724" /><line stroke="rgb(0%,0%,0%)" x1="68.8524929028" x2="72.6770667582" y1="546.290647483" y2="552.081794279" /><line stroke="rgb(0%,0%,0%)" x1="66.1265015197" x2="65.9852229766" y1="535.105531682" y2="534.673719918" /><line stroke="rgb(0%,0%,0%)" x1="66.1265015197" x2="68.8524929028" y1="535.105531682" y2="546.290647483" /><line stroke="rgb(0%,0%,0%)" x1="65.9852229766" x2="65.876575247" y1="534.673719918" y2="533.932986176" /><line stroke="rgb(0%,0%,0%)" x1="63.965927817" x2="65.876575247" y1="531.364022162" y2="533.932986176" /><line stroke="rgb(0%,0%,0%)" x1="63.965927817" x2="62.8955509697" y1="531.364022162" y2="527.735967584" /><line stroke="rgb(0%,0%,0%)" x1="57.2919249521" x2="62.4249841987" y1="521.458314004" y2="526.986017239" /><line stroke="rgb(0%,0%,0%)" x1="62.4249841987" x2="62.6806521394" y1="526.986017239" y2="527.451207675" /><line stroke="rgb(0%,0%,0%)" x1="72.6770667582" x2="75.1314901635" y1="552.081794279" y2="555.672342707" /><line stroke="rgb(0%,0%,0%)" x1="62.7422609538" x2="62.8955509697" y1="527.602263722" y2="527.735967584" /><line stroke="rgb(0%,0%,0%)" x1="90.0736441264" x2="81.4147025266" y1="575.090023957" y2="564.886314565" /><line stroke="rgb(0%,0%,0%)" x1="77.9520135733" x2="81.4147025266" y1="561.202727245" y2="564.886314565" /><line stroke="rgb(0%,0%,0%)" x1="75.1314901635" x2="77.9520135733" y1="555.672342707" y2="561.202727245" /><line stroke="rgb(0%,0%,0%)" x1="26.1258379123" x2="25.9882887046" y1="496.681634448" y2="496.395852951" /><line stroke="rgb(0%,0%,0%)" x1="26.1258379123" x2="27.5322169069" y1="496.681634448" y2="498.292372819" /><line stroke="rgb(0%,0%,0%)" x1="24.2114891224" x2="23.7539589987" y1="489.442441037" y2="483.558078933" /><line stroke="rgb(0%,0%,0%)" x1="24.2114891224" x2="25.9882887046" y1="489.442441037" y2="496.395852951" /><line stroke="rgb(0%,0%,0%)" x1="35.9271056277" x2="31.742932681" y1="506.537144336" y2="502.761752534" /><line stroke="rgb(0%,0%,0%)" x1="38.866859581" x2="35.9271056277" y1="508.634304275" y2="506.537144336" /><line stroke="rgb(0%,0%,0%)" x1="27.5322169069" x2="30.2326002194" y1="498.292372819" y2="501.128760329" /><line stroke="rgb(0%,0%,0%)" x1="26.143934729" x2="24.1144678807" y1="470.806795704" y2="480.047254047" /><line stroke="rgb(0%,0%,0%)" x1="27.987653498" x2="26.143934729" y1="468.562555457" y2="470.806795704" /><line stroke="rgb(0%,0%,0%)" x1="35.1627432043" x2="27.987653498" y1="463.6078984" y2="468.562555457" /><line stroke="rgb(0%,0%,0%)" x1="35.9789049207" x2="35.1627432043" y1="463.105766156" y2="463.6078984" /><line stroke="rgb(0%,0%,0%)" x1="35.9789049207" x2="36.0144203228" y1="463.105766156" y2="463.08496138" /><line stroke="rgb(0%,0%,0%)" x1="36.0672815889" x2="36.3610122188" y1="463.074983587" y2="462.984743755" /><line stroke="rgb(0%,0%,0%)" x1="36.0144203228" x2="36.0672815889" y1="463.08496138" y2="463.074983587" /><line stroke="rgb(0%,0%,0%)" x1="38.866859581" x2="40.9563397436" y1="508.634304275" y2="510.476429213" /><line stroke="rgb(0%,0%,0%)" x1="40.9563397436" x2="46.3478323885" y1="510.476429213" y2="513.817762902" /><line stroke="rgb(0%,0%,0%)" x1="30.2326002194" x2="31.742932681" y1="501.128760329" y2="502.761752534" /><line stroke="rgb(0%,0%,0%)" x1="40.5199411239" x2="36.3610122188" y1="461.553745364" y2="462.984743755" /><line stroke="rgb(0%,0%,0%)" x1="43.9317608315" x2="40.5199411239" y1="460.291861921" y2="461.553745364" /><line stroke="rgb(0%,0%,0%)" x1="46.3478323885" x2="54.0035523787" y1="513.817762902" y2="519.219374724" /><line stroke="rgb(0%,0%,0%)" x1="62.6806521394" x2="62.7422609538" y1="527.451207675" y2="527.602263722" /><line stroke="rgb(0%,0%,0%)" x1="24.1144678807" x2="23.7539589987" y1="480.047254047" y2="483.558078933" /><line stroke="rgb(0%,0%,0%)" x1="436.776517392" x2="435.088319767" y1="611.525336324" y2="613.501138501" /><line stroke="rgb(0%,0%,0%)" x1="436.776517392" x2="438.55783273" y1="611.525336324" y2="607.832253731" /><line stroke="rgb(0%,0%,0%)" x1="438.55783273" x2="441.51959217" y1="607.832253731" y2="604.445039582" /><line stroke="rgb(0%,0%,0%)" x1="455.941894657" x2="463.376901052" y1="591.383401039" y2="582.876172073" /><line stroke="rgb(0%,0%,0%)" x1="463.709976683" x2="463.376901052" y1="582.48318382" y2="582.876172073" /><line stroke="rgb(0%,0%,0%)" x1="463.709976683" x2="463.835769899" y1="582.48318382" y2="582.348583746" /><line stroke="rgb(0%,0%,0%)" x1="463.835769899" x2="466.390614878" y1="582.348583746" y2="578.81868892" /><line stroke="rgb(0%,0%,0%)" x1="466.390614878" x2="473.664012882" y1="578.81868892" y2="571.657538918" /><line stroke="rgb(0%,0%,0%)" x1="473.664012882" x2="474.691343722" y1="571.657538918" y2="570.552934976" /><line stroke="rgb(0%,0%,0%)" x1="420.950171481" x2="422.391843591" y1="623.711548785" y2="622.739084618" /><line stroke="rgb(0%,0%,0%)" x1="423.538061841" x2="429.25705274" y1="621.740047418" y2="618.345497293" /><line stroke="rgb(0%,0%,0%)" x1="429.25705274" x2="432.268097983" y1="618.345497293" y2="616.580284694" /><line stroke="rgb(0%,0%,0%)" x1="432.268097983" x2="435.088319767" y1="616.580284694" y2="613.501138501" /><line stroke="rgb(0%,0%,0%)" x1="447.952885661" x2="453.625632385" y1="598.12292297" y2="592.930216593" /><line stroke="rgb(0%,0%,0%)" x1="441.51959217" x2="447.952885661" y1="604.445039582" y2="598.12292297" /><line stroke="rgb(0%,0%,0%)" x1="453.625632385" x2="455.941894657" y1="592.930216593" y2="591.383401039" /><line stroke="rgb(0%,0%,0%)" x1="311.573426494" x2="310.845903176" y1="876.314332303" y2="879.644818038" /><line stroke="rgb(0%,0%,0%)" x1="310.845903176" x2="311.050919899" y1="879.644818038" y2="879.970882875" /><line stroke="rgb(0%,0%,0%)" x1="317.361535618" x2="314.785758369" y1="864.436922089" y2="868.431760002" /><line stroke="rgb(0%,0%,0%)" x1="314.785758369" x2="313.088045015" y1="868.431760002" y2="872.080394493" /><line stroke="rgb(0%,0%,0%)" x1="317.361535618" x2="321.530666712" y1="864.436922089" y2="858.425776262" /><line stroke="rgb(0%,0%,0%)" x1="313.088045015" x2="311.573426494" y1="872.080394493" y2="876.314332303" /><line stroke="rgb(0%,0%,0%)" x1="188.791113376" x2="184.837399781" y1="271.690647112" y2="273.216894331" /><line stroke="rgb(0%,0%,0%)" x1="192.658188943" x2="188.791113376" y1="270.534406264" y2="271.690647112" /></svg>