<?xml version="1.0" encoding="utf-8" ?>
<svg baseProfile="full" height="100%" version="1.1" viewBox="0.5 0.5 685.793960571 941.299331665" width="100%" xmlns="http://www.w3.org/2000/svg" xmlns:ev="http://www.w3.org/2001/xml-events" xmlns:xlink="http://www.w3.org/1999/xlink"><defs /><line stroke="rgb(0%,0%,0%)" x1="423.437841471" x2="422.506304711" y1="621.723684885" y2="622.325977022" /><line stroke="rgb(0%,0%,0%)" x1="502.886987025" x2="502.492424455" y1="459.737732784" y2="453.606807085" /><line stroke="rgb(0%,0%,0%)" x1="494.652009648" x2="494.462904057" y1="422.32736323" y2="421.495299835" /><line stroke="rgb(0%,0%,0%)" x1="494.462904057" x2="492.864801855" y1="421.495299835" y2="412.436624767" /><line stroke="rgb(0%,0%,0%)" x1="492.864801855" x2="486.924071997" y1="412.436624767" y2="396.357792474" /><line stroke="rgb(0%,0%,0%)" x1="486.142152842" x2="486.924071997" y1="391.662928578" y2="396.357792474" /><line stroke="rgb(0%,0%,0%)" x1="486.142152842" x2="484.178980228" y1="391.662928578" y2="386.985364501" /><line stroke="rgb(0%,0%,0%)" x1="502.363064968" x2="502.886987025" y1="463.837470659" y2="459.737732784" /><line stroke="rgb(0%,0%,0%)" x1="502.492424455" x2="502.060169276" y1="453.606807085" y2="445.704924177" /><line stroke="rgb(0%,0%,0%)" x1="501.035791517" x2="502.060169276" y1="440.505230592" y2="445.704924177" /><line stroke="rgb(0%,0%,0%)" x1="501.035791517" x2="500.613401569" y1="440.505230592" y2="438.449310569" /><line stroke="rgb(0%,0%,0%)" x1="484.178980228" x2="480.201619028" y1="386.985364501" y2="374.589967109" /><line stroke="rgb(0%,0%,0%)" x1="480.201619028" x2="473.808871822" y1="374.589967109" y2="363.926081276" /><line stroke="rgb(0%,0%,0%)" x1="470.815266773" x2="473.808871822" y1="359.037947017" y2="363.926081276" /><line stroke="rgb(0%,0%,0%)" x1="470.815266773" x2="470.104268635" y1="359.037947017" y2="358.342216384" /><line stroke="rgb(0%,0%,0%)" x1="500.613401569" x2="497.593930725" y1="438.449310569" y2="428.015759897" /><line stroke="rgb(0%,0%,0%)" x1="497.593930725" x2="494.652009648" y1="428.015759897" y2="422.32736323" /><line stroke="rgb(0%,0%,0%)" x1="399.263426522" x2="396.951213423" y1="292.613046732" y2="291.015581627" /><line stroke="rgb(0%,0%,0%)" x1="396.951213423" x2="395.68767646" y1="291.015581627" y2="289.533858938" /><line stroke="rgb(0%,0%,0%)" x1="410.437665458" x2="413.125073117" y1="302.171702242" y2="304.959352397" /><line stroke="rgb(0%,0%,0%)" x1="381.547595109" x2="383.756683806" y1="278.370937574" y2="279.457884917" /><line stroke="rgb(0%,0%,0%)" x1="381.547595109" x2="374.280571454" y1="278.370937574" y2="276.259152878" /><line stroke="rgb(0%,0%,0%)" x1="389.635383524" x2="387.543674753" y1="283.831644571" y2="281.786243716" /><line stroke="rgb(0%,0%,0%)" x1="395.68767646" x2="389.635383524" y1="289.533858938" y2="283.831644571" /><line stroke="rgb(0%,0%,0%)" x1="387.543674753" x2="383.756683806" y1="281.786243716" y2="279.457884917" /><line stroke="rgb(0%,0%,0%)" x1="404.860315513" x2="401.54606996" y1="298.328965788" y2="295.462410905" /><line stroke="rgb(0%,0%,0%)" x1="399.263426522" x2="401.54606996" y1="292.613046732" y2="295.462410905" /><line stroke="rgb(0%,0%,0%)" x1="410.437665458" x2="404.860315513" y1="302.171702242" y2="298.328965788" /><line stroke="rgb(0%,0%,0%)" x1="333.693959334" x2="332.580069901" y1="265.715448574" y2="265.391577487" /><line stroke="rgb(0%,0%,0%)" x1="349.899730338" x2="340.822267514" y1="268.863419802" y2="267.630162437" /><line stroke="rgb(0%,0%,0%)" x1="357.207389649" x2="353.770527463" y1="272.798302253" y2="270.250974717" /><line stroke="rgb(0%,0%,0%)" x1="357.207389649" x2="362.085099819" y1="272.798302253" y2="275.182518973" /><line stroke="rgb(0%,0%,0%)" x1="353.770527463" x2="349.899730338" y1="270.250974717" y2="268.863419802" /><line stroke="rgb(0%,0%,0%)" x1="371.816582299" x2="371.492101987" y1="275.564912867" y2="275.507250288" /><line stroke="rgb(0%,0%,0%)" x1="364.499807751" x2="362.085099819" y1="276.002782643" y2="275.182518973" /><line stroke="rgb(0%,0%,0%)" x1="364.499807751" x2="371.492101987" y1="276.002782643" y2="275.507250288" /><line stroke="rgb(0%,0%,0%)" x1="374.280571454" x2="371.816582299" y1="276.259152878" y2="275.564912867" /><line stroke="rgb(0%,0%,0%)" x1="292.362114529" x2="293.074263971" y1="258.755254149" y2="258.476093669" /><line stroke="rgb(0%,0%,0%)" x1="302.718196789" x2="297.816958505" y1="259.525685889" y2="258.666502545" /><line stroke="rgb(0%,0%,0%)" x1="285.443516218" x2="284.224417987" y1="80.2587885331" y2="82.4128893039" /><line stroke="rgb(0%,0%,0%)" x1="285.443516218" x2="286.957625745" y1="80.2587885331" y2="77.714025515" /><line stroke="rgb(0%,0%,0%)" x1="283.801581922" x2="285.800215682" y1="51.2340007459" y2="57.5270244656" /><line stroke="rgb(0%,0%,0%)" x1="302.718196789" x2="308.658604911" y1="259.525685889" y2="259.403780633" /><line stroke="rgb(0%,0%,0%)" x1="322.361332473" x2="316.484278859" y1="262.611140996" y2="260.941249786" /><line stroke="rgb(0%,0%,0%)" x1="314.689142678" x2="309.596986384" y1="260.741157423" y2="259.847623894" /><line stroke="rgb(0%,0%,0%)" x1="316.484278859" x2="314.689142678" y1="260.941249786" y2="260.741157423" /><line stroke="rgb(0%,0%,0%)" x1="332.580069901" x2="326.518734701" y1="265.391577487" y2="263.835274226" /><line stroke="rgb(0%,0%,0%)" x1="333.693959334" x2="336.039272139" y1="265.715448574" y2="266.782200703" /><line stroke="rgb(0%,0%,0%)" x1="340.822267514" x2="339.263159369" y1="267.630162437" y2="267.375607888" /><line stroke="rgb(0%,0%,0%)" x1="339.263159369" x2="336.039272139" y1="267.375607888" y2="266.782200703" /><line stroke="rgb(0%,0%,0%)" x1="254.95801694" x2="254.959932059" y1="74.3609849152" y2="75.9947742519" /><line stroke="rgb(0%,0%,0%)" x1="254.95801694" x2="255.350739182" y1="74.3609849152" y2="73.2037688174" /><line stroke="rgb(0%,0%,0%)" x1="278.211906034" x2="275.05128511" y1="257.276271173" y2="257.170624117" /><line stroke="rgb(0%,0%,0%)" x1="264.977407801" x2="268.07145355" y1="100.458879975" y2="100.033291009" /><line stroke="rgb(0%,0%,0%)" x1="260.662103467" x2="264.977407801" y1="98.9844277774" y2="100.458879975" /><line stroke="rgb(0%,0%,0%)" x1="268.371713516" x2="263.961588987" y1="20.156833853" y2="17.7889423841" /><line stroke="rgb(0%,0%,0%)" x1="290.967719054" x2="284.670804892" y1="258.405068485" y2="258.271624646" /><line stroke="rgb(0%,0%,0%)" x1="282.744998119" x2="284.670804892" y1="258.782079445" y2="258.271624646" /><line stroke="rgb(0%,0%,0%)" x1="292.362114529" x2="290.967719054" y1="258.755254149" y2="258.405068485" /><line stroke="rgb(0%,0%,0%)" x1="275.953297302" x2="272.921659559" y1="95.6402755674" y2="98.09976368" /><line stroke="rgb(0%,0%,0%)" x1="275.953297302" x2="284.224417987" y1="95.6402755674" y2="82.4128893039" /><line stroke="rgb(0%,0%,0%)" x1="287.024150371" x2="285.800215682" y1="64.2764219669" y2="57.5270244656" /><line stroke="rgb(0%,0%,0%)" x1="283.343973814" x2="283.135005648" y1="47.3300132184" y2="44.6604210499" /><line stroke="rgb(0%,0%,0%)" x1="273.729708142" x2="274.876064974" y1="23.869301817" y2="25.0757027704" /><line stroke="rgb(0%,0%,0%)" x1="274.876064974" x2="276.851623951" y1="25.0757027704" y2="26.5280445346" /><line stroke="rgb(0%,0%,0%)" x1="286.957625745" x2="286.64820262" y1="77.714025515" y2="74.7412330122" /><line stroke="rgb(0%,0%,0%)" x1="286.64820262" x2="287.377843051" y1="74.7412330122" y2="66.6702513396" /><line stroke="rgb(0%,0%,0%)" x1="283.801581922" x2="283.343973814" y1="51.2340007459" y2="47.3300132184" /><line stroke="rgb(0%,0%,0%)" x1="297.816958505" x2="295.396771905" y1="258.666502545" y2="259.301058899" /><line stroke="rgb(0%,0%,0%)" x1="295.396771905" x2="293.074263971" y1="259.301058899" y2="258.476093669" /><line stroke="rgb(0%,0%,0%)" x1="309.596986384" x2="308.658604911" y1="259.847623894" y2="259.403780633" /><line stroke="rgb(0%,0%,0%)" x1="326.518734701" x2="322.361332473" y1="263.835274226" y2="262.611140996" /><line stroke="rgb(0%,0%,0%)" x1="240.472910092" x2="243.515870212" y1="259.103253802" y2="258.708370829" /><line stroke="rgb(0%,0%,0%)" x1="249.592245832" x2="247.188919748" y1="258.160472946" y2="258.998656965" /><line stroke="rgb(0%,0%,0%)" x1="247.188919748" x2="243.515870212" y1="258.998656965" y2="258.708370829" /><line stroke="rgb(0%,0%,0%)" x1="245.894458344" x2="246.220689579" y1="81.704738227" y2="85.3802964314" /><line stroke="rgb(0%,0%,0%)" x1="244.287226963" x2="237.993689187" y1="34.8118703001" y2="27.9685201433" /><line stroke="rgb(0%,0%,0%)" x1="248.908878128" x2="244.823469481" y1="10.9385960843" y2="9.95098476823" /><line stroke="rgb(0%,0%,0%)" x1="251.489281062" x2="249.592245832" y1="257.550321747" y2="258.160472946" /><line stroke="rgb(0%,0%,0%)" x1="251.489281062" x2="261.619047331" y1="257.550321747" y2="256.688504212" /><line stroke="rgb(0%,0%,0%)" x1="260.662103467" x2="257.852777689" y1="98.9844277774" y2="98.4797519138" /><line stroke="rgb(0%,0%,0%)" x1="255.436525097" x2="252.004381555" y1="98.15497946" y2="95.4706929085" /><line stroke="rgb(0%,0%,0%)" x1="255.436525097" x2="257.852777689" y1="98.15497946" y2="98.4797519138" /><line stroke="rgb(0%,0%,0%)" x1="250.199228159" x2="252.004381555" y1="92.8378692498" y2="95.4706929085" /><line stroke="rgb(0%,0%,0%)" x1="246.981541009" x2="250.199228159" y1="88.3774761602" y2="92.8378692498" /><line stroke="rgb(0%,0%,0%)" x1="245.894458344" x2="250.129133612" y1="81.704738227" y2="81.782820153" /><line stroke="rgb(0%,0%,0%)" x1="254.959932059" x2="253.161362924" y1="75.9947742519" y2="79.2545728137" /><line stroke="rgb(0%,0%,0%)" x1="253.161362924" x2="250.905329881" y1="79.2545728137" y2="80.0005265962" /><line stroke="rgb(0%,0%,0%)" x1="250.905329881" x2="250.129133612" y1="80.0005265962" y2="81.782820153" /><line stroke="rgb(0%,0%,0%)" x1="255.350739182" x2="255.866633561" y1="73.2037688174" y2="65.2211972866" /><line stroke="rgb(0%,0%,0%)" x1="254.782999698" x2="255.866633561" y1="56.5777814182" y2="65.2211972866" /><line stroke="rgb(0%,0%,0%)" x1="245.832784008" x2="249.146152184" y1="36.3205238994" y2="43.4152928966" /><line stroke="rgb(0%,0%,0%)" x1="244.287226963" x2="245.832784008" y1="34.8118703001" y2="36.3205238994" /><line stroke="rgb(0%,0%,0%)" x1="249.146152184" x2="253.737655981" y1="43.4152928966" y2="52.5058092313" /><line stroke="rgb(0%,0%,0%)" x1="263.961588987" x2="258.69682486" y1="17.7889423841" y2="15.0244634205" /><line stroke="rgb(0%,0%,0%)" x1="258.69682486" x2="248.908878128" y1="15.0244634205" y2="10.9385960843" /><line stroke="rgb(0%,0%,0%)" x1="275.05128511" x2="269.469166321" y1="257.170624117" y2="257.225211" /><line stroke="rgb(0%,0%,0%)" x1="269.469166321" x2="263.468097425" y1="257.225211" y2="256.747272862" /><line stroke="rgb(0%,0%,0%)" x1="268.07145355" x2="272.921659559" y1="100.033291009" y2="98.09976368" /><line stroke="rgb(0%,0%,0%)" x1="277.601460604" x2="277.458764568" y1="27.5364900487" y2="27.164740579" /><line stroke="rgb(0%,0%,0%)" x1="277.458764568" x2="276.851623951" y1="27.164740579" y2="26.5280445346" /><line stroke="rgb(0%,0%,0%)" x1="273.729708142" x2="268.371713516" y1="23.869301817" y2="20.156833853" /><line stroke="rgb(0%,0%,0%)" x1="282.744998119" x2="278.211906034" y1="258.782079445" y2="257.276271173" /><line stroke="rgb(0%,0%,0%)" x1="287.377843051" x2="287.024150371" y1="66.6702513396" y2="64.2764219669" /><line stroke="rgb(0%,0%,0%)" x1="283.135005648" x2="277.601460604" y1="44.6604210499" y2="27.5364900487" /><line stroke="rgb(0%,0%,0%)" x1="193.112158409" x2="196.652079881" y1="270.366596698" y2="269.308781465" /><line stroke="rgb(0%,0%,0%)" x1="208.252949436" x2="207.021444735" y1="266.050731766" y2="266.22389804" /><line stroke="rgb(0%,0%,0%)" x1="207.021444735" x2="196.652079881" y1="266.22389804" y2="269.308781465" /><line stroke="rgb(0%,0%,0%)" x1="219.44805521" x2="220.22379777" y1="263.895317875" y2="263.852052303" /><line stroke="rgb(0%,0%,0%)" x1="219.44805521" x2="208.252949436" y1="263.895317875" y2="266.050731766" /><line stroke="rgb(0%,0%,0%)" x1="220.22379777" x2="221.688390325" y1="263.852052303" y2="263.368014278" /><line stroke="rgb(0%,0%,0%)" x1="218.677588028" x2="225.541383762" y1="17.5959958987" y2="22.0907595345" /><line stroke="rgb(0%,0%,0%)" x1="213.642810546" x2="215.38869722" y1="10.5805305871" y2="13.0668299469" /><line stroke="rgb(0%,0%,0%)" x1="218.677588028" x2="215.38869722" y1="17.5959958987" y2="13.0668299469" /><line stroke="rgb(0%,0%,0%)" x1="217.007045408" x2="215.982547855" y1="2.74110186552" y2="3.68281012295" /><line stroke="rgb(0%,0%,0%)" x1="217.007045408" x2="217.493954205" y1="2.74110186552" y2="2.36341207429" /><line stroke="rgb(0%,0%,0%)" x1="215.982547855" x2="213.769034167" y1="3.68281012295" y2="7.6049810832" /><line stroke="rgb(0%,0%,0%)" x1="213.769034167" x2="212.896858501" y1="7.6049810832" y2="8.97872484319" /><line stroke="rgb(0%,0%,0%)" x1="222.604948219" x2="217.493954205" y1="3.32737684135" y2="2.36341207429" /><line stroke="rgb(0%,0%,0%)" x1="229.706310979" x2="227.853673916" y1="261.868511514" y2="261.995824968" /><line stroke="rgb(0%,0%,0%)" x1="227.853673916" x2="221.688390325" y1="261.995824968" y2="263.368014278" /><line stroke="rgb(0%,0%,0%)" x1="232.86799161" x2="229.706310979" y1="260.650158516" y2="261.868511514" /><line stroke="rgb(0%,0%,0%)" x1="225.541383762" x2="234.612787305" y1="22.0907595345" y2="25.4492449451" /><line stroke="rgb(0%,0%,0%)" x1="234.612787305" x2="237.993689187" y1="25.4492449451" y2="27.9685201433" /><line stroke="rgb(0%,0%,0%)" x1="237.164478181" x2="244.823469481" y1="7.27445388263" y2="9.95098476823" /><line stroke="rgb(0%,0%,0%)" x1="230.808432752" x2="222.604948219" y1="5.52971513833" y2="3.32737684135" /><line stroke="rgb(0%,0%,0%)" x1="237.164478181" x2="230.808432752" y1="7.27445388263" y2="5.52971513833" /><line stroke="rgb(0%,0%,0%)" x1="240.472910092" x2="236.254439458" y1="259.103253802" y2="259.496790962" /><line stroke="rgb(0%,0%,0%)" x1="236.254439458" x2="232.86799161" y1="259.496790962" y2="260.650158516" /><line stroke="rgb(0%,0%,0%)" x1="246.220689579" x2="246.981541009" y1="85.3802964314" y2="88.3774761602" /><line stroke="rgb(0%,0%,0%)" x1="253.737655981" x2="254.782999698" y1="52.5058092313" y2="56.5777814182" /><line stroke="rgb(0%,0%,0%)" x1="262.610753014" x2="261.619047331" y1="256.723977808" y2="256.688504212" /><line stroke="rgb(0%,0%,0%)" x1="263.468097425" x2="262.610753014" y1="256.747272862" y2="256.723977808" /><line stroke="rgb(0%,0%,0%)" x1="212.896858501" x2="213.642810546" y1="8.97872484319" y2="10.5805305871" /><line stroke="rgb(0%,0%,0%)" x1="163.980325284" x2="162.13635433" y1="287.465290062" y2="289.377775366" /><line stroke="rgb(0%,0%,0%)" x1="162.13635433" x2="160.558752203" y1="289.377775366" y2="291.522645617" /><line stroke="rgb(0%,0%,0%)" x1="165.525262466" x2="163.980325284" y1="286.359314198" y2="287.465290062" /><line stroke="rgb(0%,0%,0%)" x1="173.717740532" x2="165.525262466" y1="280.199868325" y2="286.359314198" /><line stroke="rgb(0%,0%,0%)" x1="186.238196653" x2="173.717740532" y1="272.724328125" y2="280.199868325" /><line stroke="rgb(0%,0%,0%)" x1="115.272412887" x2="113.759365314" y1="321.301305587" y2="322.448735979" /><line stroke="rgb(0%,0%,0%)" x1="124.606256645" x2="123.593294026" y1="314.659001963" y2="315.272473407" /><line stroke="rgb(0%,0%,0%)" x1="123.593294026" x2="115.272412887" y1="315.272473407" y2="321.301305587" /><line stroke="rgb(0%,0%,0%)" x1="126.80074668" x2="125.92274289" y1="313.270455151" y2="313.997091372" /><line stroke="rgb(0%,0%,0%)" x1="124.606256645" x2="125.92274289" y1="314.659001963" y2="313.997091372" /><line stroke="rgb(0%,0%,0%)" x1="132.674534122" x2="136.179911925" y1="310.891440932" y2="308.515072878" /><line stroke="rgb(0%,0%,0%)" x1="132.674534122" x2="126.80074668" y1="310.891440932" y2="313.270455151" /><line stroke="rgb(0%,0%,0%)" x1="146.359677252" x2="139.656519258" y1="305.636053453" y2="307.529337768" /><line stroke="rgb(0%,0%,0%)" x1="146.359677252" x2="147.780570068" y1="305.636053453" y2="304.952045605" /><line stroke="rgb(0%,0%,0%)" x1="136.61325903" x2="136.179911925" y1="308.39021448" y2="308.515072878" /><line stroke="rgb(0%,0%,0%)" x1="151.438769564" x2="147.780570068" y1="303.216908543" y2="304.952045605" /><line stroke="rgb(0%,0%,0%)" x1="151.678422373" x2="151.438769564" y1="301.776561877" y2="303.216908543" /><line stroke="rgb(0%,0%,0%)" x1="155.820423167" x2="151.678422373" y1="297.416372161" y2="301.776561877" /><line stroke="rgb(0%,0%,0%)" x1="160.558752203" x2="155.820423167" y1="291.522645617" y2="297.416372161" /><line stroke="rgb(0%,0%,0%)" x1="100.933051007" x2="99.7843230166" y1="335.447903025" y2="337.245245884" /><line stroke="rgb(0%,0%,0%)" x1="99.7843230166" x2="96.6382918548" y1="337.245245884" y2="340.640890035" /><line stroke="rgb(0%,0%,0%)" x1="100.933051007" x2="102.067696555" y1="335.447903025" y2="334.875530308" /><line stroke="rgb(0%,0%,0%)" x1="104.229324897" x2="102.067696555" y1="332.738686759" y2="334.875530308" /><line stroke="rgb(0%,0%,0%)" x1="109.48077111" x2="107.396070487" y1="327.335302231" y2="329.332428699" /><line stroke="rgb(0%,0%,0%)" x1="107.396070487" x2="106.885916367" y1="329.332428699" y2="330.06847721" /><line stroke="rgb(0%,0%,0%)" x1="106.885916367" x2="104.229324897" y1="330.06847721" y2="332.738686759" /><line stroke="rgb(0%,0%,0%)" x1="110.658011274" x2="109.48077111" y1="326.224854525" y2="327.335302231" /><line stroke="rgb(0%,0%,0%)" x1="113.759365314" x2="110.658011274" y1="322.448735979" y2="326.224854525" /><line stroke="rgb(0%,0%,0%)" x1="139.656519258" x2="136.61325903" y1="307.529337768" y2="308.39021448" /><line stroke="rgb(0%,0%,0%)" x1="61.1267219069" x2="63.3282634513" y1="395.381509392" y2="393.644778646" /><line stroke="rgb(0%,0%,0%)" x1="65.3770228108" x2="64.9713494637" y1="390.131349703" y2="391.102366498" /><line stroke="rgb(0%,0%,0%)" x1="67.5428714667" x2="67.8339623155" y1="381.2671311" y2="384.409841729" /><line stroke="rgb(0%,0%,0%)" x1="67.5428714667" x2="68.658547922" y1="381.2671311" y2="377.872269456" /><line stroke="rgb(0%,0%,0%)" x1="65.3770228108" x2="65.6897177309" y1="390.131349703" y2="389.510136268" /><line stroke="rgb(0%,0%,0%)" x1="66.7396874217" x2="65.6897177309" y1="386.123427654" y2="389.510136268" /><line stroke="rgb(0%,0%,0%)" x1="67.8339623155" x2="66.7396874217" y1="384.409841729" y2="386.123427654" /><line stroke="rgb(0%,0%,0%)" x1="70.570226328" x2="68.658547922" y1="370.463988421" y2="377.872269456" /><line stroke="rgb(0%,0%,0%)" x1="70.570226328" x2="72.7556420187" y1="370.463988421" y2="366.725615439" /><line stroke="rgb(0%,0%,0%)" x1="82.5858422938" x2="79.4912124355" y1="353.517041939" y2="357.709166306" /><line stroke="rgb(0%,0%,0%)" x1="79.4912124355" x2="72.7556420187" y1="357.709166306" y2="366.725615439" /><line stroke="rgb(0%,0%,0%)" x1="82.5858422938" x2="90.3177248287" y1="353.517041939" y2="346.871578438" /><line stroke="rgb(0%,0%,0%)" x1="96.6382918548" x2="90.3177248287" y1="340.640890035" y2="346.871578438" /><line stroke="rgb(0%,0%,0%)" x1="25.8074253883" x2="25.8422148048" y1="435.541628291" y2="435.920398624" /><line stroke="rgb(0%,0%,0%)" x1="25.9194342949" x2="25.8074253883" y1="435.028009745" y2="435.541628291" /><line stroke="rgb(0%,0%,0%)" x1="25.9194342949" x2="26.593646142" y1="435.028009745" y2="433.350654097" /><line stroke="rgb(0%,0%,0%)" x1="35.6178936545" x2="39.1629565583" y1="456.035577971" y2="457.400429655" /><line stroke="rgb(0%,0%,0%)" x1="37.4478194971" x2="37.0117690321" y1="413.875307187" y2="414.366144698" /><line stroke="rgb(0%,0%,0%)" x1="37.5602299072" x2="37.4478194971" y1="413.792695729" y2="413.875307187" /><line stroke="rgb(0%,0%,0%)" x1="54.8341720652" x2="38.3551046467" y1="403.870602924" y2="413.224584537" /><line stroke="rgb(0%,0%,0%)" x1="37.5602299072" x2="38.3551046467" y1="413.792695729" y2="413.224584537" /><line stroke="rgb(0%,0%,0%)" x1="59.2205979295" x2="54.8341720652" y1="398.508299438" y2="403.870602924" /><line stroke="rgb(0%,0%,0%)" x1="60.968691622" x2="59.2205979295" y1="396.731413556" y2="398.508299438" /><line stroke="rgb(0%,0%,0%)" x1="61.1267219069" x2="60.968691622" y1="395.381509392" y2="396.731413556" /><line stroke="rgb(0%,0%,0%)" x1="64.9713494637" x2="63.3282634513" y1="391.102366498" y2="393.644778646" /><line stroke="rgb(0%,0%,0%)" x1="25.8422148048" x2="25.9986565192" y1="435.920398624" y2="438.385900095" /><line stroke="rgb(0%,0%,0%)" x1="30.8708131632" x2="35.6178936545" y1="451.375835197" y2="456.035577971" /><line stroke="rgb(0%,0%,0%)" x1="39.1629565583" x2="44.5113385789" y1="457.400429655" y2="460.294800028" /><line stroke="rgb(0%,0%,0%)" x1="29.4426248761" x2="30.8708131632" y1="450.229738937" y2="451.375835197" /><line stroke="rgb(0%,0%,0%)" x1="29.4426248761" x2="27.6046323415" y1="450.229738937" y2="445.543739861" /><line stroke="rgb(0%,0%,0%)" x1="25.9986565192" x2="27.6046323415" y1="438.385900095" y2="445.543739861" /><line stroke="rgb(0%,0%,0%)" x1="30.0618214163" x2="26.593646142" y1="423.891882146" y2="433.350654097" /><line stroke="rgb(0%,0%,0%)" x1="37.0117690321" x2="30.0618214163" y1="414.366144698" y2="423.891882146" /><line stroke="rgb(0%,0%,0%)" x1="497.767935967" x2="497.569051614" y1="501.827085667" y2="504.592884299" /><line stroke="rgb(0%,0%,0%)" x1="497.569051614" x2="496.77116211" y1="504.592884299" y2="506.11911602" /><line stroke="rgb(0%,0%,0%)" x1="448.410297747" x2="448.494174135" y1="336.811439136" y2="336.955873626" /><line stroke="rgb(0%,0%,0%)" x1="464.820731761" x2="461.343258899" y1="353.627714225" y2="350.168484823" /><line stroke="rgb(0%,0%,0%)" x1="474.494535241" x2="476.557015238" y1="570.616562154" y2="567.228662569" /><line stroke="rgb(0%,0%,0%)" x1="479.336430555" x2="476.557015238" y1="563.765405285" y2="567.228662569" /><line stroke="rgb(0%,0%,0%)" x1="479.336430555" x2="484.528163622" y1="563.765405285" y2="551.644384697" /><line stroke="rgb(0%,0%,0%)" x1="484.528163622" x2="486.913041482" y1="551.644384697" y2="547.702282024" /><line stroke="rgb(0%,0%,0%)" x1="486.913041482" x2="490.059143292" y1="547.702282024" y2="544.250898826" /><line stroke="rgb(0%,0%,0%)" x1="490.059143292" x2="490.128052826" y1="544.250898826" y2="537.701110876" /><line stroke="rgb(0%,0%,0%)" x1="491.450128262" x2="489.956624255" y1="527.793864471" y2="533.472979828" /><line stroke="rgb(0%,0%,0%)" x1="491.450128262" x2="495.181928734" y1="527.793864471" y2="514.881113039" /><line stroke="rgb(0%,0%,0%)" x1="495.181928734" x2="496.77116211" y1="514.881113039" y2="506.11911602" /><line stroke="rgb(0%,0%,0%)" x1="502.024647691" x2="503.310022281" y1="485.169403574" y2="476.954312915" /><line stroke="rgb(0%,0%,0%)" x1="503.310022281" x2="503.161707208" y1="476.954312915" y2="470.15161258" /><line stroke="rgb(0%,0%,0%)" x1="423.405493133" x2="423.437841471" y1="621.542249591" y2="621.723684885" /><line stroke="rgb(0%,0%,0%)" x1="422.23218005" x2="417.212809202" y1="310.740907708" y2="307.645983417" /><line stroke="rgb(0%,0%,0%)" x1="435.536679725" x2="433.522452393" y1="325.72417925" y2="324.206081411" /><line stroke="rgb(0%,0%,0%)" x1="429.280496434" x2="431.521359225" y1="317.14254118" y2="320.204462513" /><line stroke="rgb(0%,0%,0%)" x1="448.410297747" x2="447.772349217" y1="336.811439136" y2="336.201276572" /><line stroke="rgb(0%,0%,0%)" x1="461.343258899" x2="458.921845808" y1="350.168484823" y2="348.021690347" /><line stroke="rgb(0%,0%,0%)" x1="458.921845808" x2="457.273583191" y1="348.021690347" y2="345.572820212" /><line stroke="rgb(0%,0%,0%)" x1="452.673603473" x2="457.273583191" y1="340.373433071" y2="345.572820212" /><line stroke="rgb(0%,0%,0%)" x1="452.673603473" x2="448.494174135" y1="340.373433071" y2="336.955873626" /><line stroke="rgb(0%,0%,0%)" x1="470.104268635" x2="467.510215178" y1="358.342216384" y2="355.685919679" /><line stroke="rgb(0%,0%,0%)" x1="464.820731761" x2="467.510215178" y1="353.627714225" y2="355.685919679" /><line stroke="rgb(0%,0%,0%)" x1="490.128052826" x2="489.956624255" y1="537.701110876" y2="533.472979828" /><line stroke="rgb(0%,0%,0%)" x1="497.767935967" x2="502.024647691" y1="501.827085667" y2="485.169403574" /><line stroke="rgb(0%,0%,0%)" x1="503.161707208" x2="502.363064968" y1="470.15161258" y2="463.837470659" /><line stroke="rgb(0%,0%,0%)" x1="378.129825594" x2="378.009539249" y1="650.325393173" y2="650.343475985" /><line stroke="rgb(0%,0%,0%)" x1="378.129825594" x2="378.401496808" y1="650.325393173" y2="650.30678236" /><line stroke="rgb(0%,0%,0%)" x1="414.63241939" x2="413.346965934" y1="627.822958085" y2="628.908800394" /><line stroke="rgb(0%,0%,0%)" x1="414.63241939" x2="414.943330656" y1="627.822958085" y2="627.610533715" /><line stroke="rgb(0%,0%,0%)" x1="414.943330656" x2="415.12467578" y1="627.610533715" y2="627.476451045" /><line stroke="rgb(0%,0%,0%)" x1="415.12467578" x2="420.580523353" y1="627.476451045" y2="623.624991792" /><line stroke="rgb(0%,0%,0%)" x1="422.23218005" x2="423.62800669" y1="310.740907708" y2="311.764689708" /><line stroke="rgb(0%,0%,0%)" x1="417.212809202" x2="413.715228012" y1="307.645983417" y2="305.603389355" /><line stroke="rgb(0%,0%,0%)" x1="413.715228012" x2="413.125073117" y1="305.603389355" y2="304.959352397" /><line stroke="rgb(0%,0%,0%)" x1="433.522452393" x2="431.521359225" y1="324.206081411" y2="320.204462513" /><line stroke="rgb(0%,0%,0%)" x1="429.280496434" x2="423.62800669" y1="317.14254118" y2="311.764689708" /><line stroke="rgb(0%,0%,0%)" x1="447.772349217" x2="435.536679725" y1="336.201276572" y2="325.72417925" /><line stroke="rgb(0%,0%,0%)" x1="378.009539249" x2="377.728029746" y1="650.343475985" y2="650.275466722" /><line stroke="rgb(0%,0%,0%)" x1="377.728029746" x2="377.080224752" y1="650.275466722" y2="650.416234546" /><line stroke="rgb(0%,0%,0%)" x1="378.401496808" x2="379.009968712" y1="650.30678236" y2="650.134665606" /><line stroke="rgb(0%,0%,0%)" x1="379.009968712" x2="390.277113483" y1="650.134665606" y2="647.012228514" /><line stroke="rgb(0%,0%,0%)" x1="390.277113483" x2="396.856748987" y1="647.012228514" y2="642.789277578" /><line stroke="rgb(0%,0%,0%)" x1="396.856748987" x2="401.120569183" y1="642.789277578" y2="640.106765938" /><line stroke="rgb(0%,0%,0%)" x1="401.120569183" x2="401.410228222" y1="640.106765938" y2="639.67783632" /><line stroke="rgb(0%,0%,0%)" x1="401.410228222" x2="408.512256182" y1="639.67783632" y2="632.789253505" /><line stroke="rgb(0%,0%,0%)" x1="408.512256182" x2="409.516130828" y1="632.789253505" y2="631.989442287" /><line stroke="rgb(0%,0%,0%)" x1="409.516130828" x2="413.346965934" y1="631.989442287" y2="628.908800394" /><line stroke="rgb(0%,0%,0%)" x1="316.173267947" x2="316.320623014" y1="888.873504814" y2="888.875199282" /><line stroke="rgb(0%,0%,0%)" x1="335.230282458" x2="333.47293275" y1="878.356347824" y2="879.52184323" /><line stroke="rgb(0%,0%,0%)" x1="326.072623072" x2="327.343602021" y1="669.834101302" y2="669.768264063" /><line stroke="rgb(0%,0%,0%)" x1="335.230282458" x2="335.447541696" y1="878.356347824" y2="878.255573306" /><line stroke="rgb(0%,0%,0%)" x1="337.701483016" x2="334.010432572" y1="666.749322671" y2="667.718026473" /><line stroke="rgb(0%,0%,0%)" x1="337.701483016" x2="344.517447156" y1="666.749322671" y2="663.605152391" /><line stroke="rgb(0%,0%,0%)" x1="350.534134507" x2="349.822752933" y1="849.418812604" y2="851.622665303" /><line stroke="rgb(0%,0%,0%)" x1="350.534134507" x2="350.577062186" y1="849.418812604" y2="845.382572502" /><line stroke="rgb(0%,0%,0%)" x1="352.107719907" x2="351.40623694" y1="822.545064457" y2="824.23799241" /><line stroke="rgb(0%,0%,0%)" x1="350.948516041" x2="350.275138532" y1="835.523074563" y2="830.991483027" /><line stroke="rgb(0%,0%,0%)" x1="350.275138532" x2="351.40623694" y1="830.991483027" y2="824.23799241" /><line stroke="rgb(0%,0%,0%)" x1="352.107719907" x2="352.198244172" y1="822.545064457" y2="821.878636179" /><line stroke="rgb(0%,0%,0%)" x1="352.198244172" x2="352.338430934" y1="821.878636179" y2="819.350661232" /><line stroke="rgb(0%,0%,0%)" x1="352.338430934" x2="353.180511647" y1="819.350661232" y2="816.040682867" /><line stroke="rgb(0%,0%,0%)" x1="350.10869495" x2="348.100347534" y1="808.355019936" y2="802.78746715" /><line stroke="rgb(0%,0%,0%)" x1="346.258996093" x2="348.100347534" y1="800.761496618" y2="802.78746715" /><line stroke="rgb(0%,0%,0%)" x1="351.409583188" x2="347.335758919" y1="660.994246365" y2="662.686992672" /><line stroke="rgb(0%,0%,0%)" x1="359.933399736" x2="354.788538741" y1="657.953389913" y2="659.958022827" /><line stroke="rgb(0%,0%,0%)" x1="359.933399736" x2="362.781033215" y1="657.953389913" y2="656.390782186" /><line stroke="rgb(0%,0%,0%)" x1="366.519908457" x2="372.035396537" y1="653.61148929" y2="650.405217046" /><line stroke="rgb(0%,0%,0%)" x1="362.781033215" x2="366.519908457" y1="656.390782186" y2="653.61148929" /><line stroke="rgb(0%,0%,0%)" x1="372.035396537" x2="377.080224752" y1="650.405217046" y2="650.416234546" /><line stroke="rgb(0%,0%,0%)" x1="297.894376856" x2="303.096981516" y1="822.577676318" y2="822.989239411" /><line stroke="rgb(0%,0%,0%)" x1="297.894376856" x2="295.803878243" y1="822.577676318" y2="819.188124687" /><line stroke="rgb(0%,0%,0%)" x1="306.501214961" x2="304.968152907" y1="793.064403718" y2="794.658383837" /><line stroke="rgb(0%,0%,0%)" x1="301.008682097" x2="302.877701653" y1="671.637507317" y2="671.914783881" /><line stroke="rgb(0%,0%,0%)" x1="302.877701653" x2="305.17662974" y1="671.914783881" y2="671.735082991" /><line stroke="rgb(0%,0%,0%)" x1="316.173267947" x2="315.252758627" y1="888.873504814" y2="888.037040339" /><line stroke="rgb(0%,0%,0%)" x1="311.277656974" x2="311.1690546" y1="883.750577726" y2="882.005842731" /><line stroke="rgb(0%,0%,0%)" x1="310.267163807" x2="310.012209516" y1="830.631032346" y2="827.81593963" /><line stroke="rgb(0%,0%,0%)" x1="312.165203785" x2="310.267163807" y1="833.365700298" y2="830.631032346" /><line stroke="rgb(0%,0%,0%)" x1="310.012209516" x2="307.727130557" y1="827.81593963" y2="826.058047712" /><line stroke="rgb(0%,0%,0%)" x1="313.408155028" x2="314.388590162" y1="790.757334929" y2="790.342089104" /><line stroke="rgb(0%,0%,0%)" x1="313.408155028" x2="306.501214961" y1="790.757334929" y2="793.064403718" /><line stroke="rgb(0%,0%,0%)" x1="318.863056017" x2="314.388590162" y1="789.678374583" y2="790.342089104" /><line stroke="rgb(0%,0%,0%)" x1="320.82728938" x2="318.863056017" y1="789.83684105" y2="789.678374583" /><line stroke="rgb(0%,0%,0%)" x1="318.444838188" x2="320.013007053" y1="671.146190414" y2="671.221413036" /><line stroke="rgb(0%,0%,0%)" x1="318.444838188" x2="316.284668692" y1="671.146190414" y2="671.152886946" /><line stroke="rgb(0%,0%,0%)" x1="305.17662974" x2="316.284668692" y1="671.735082991" y2="671.152886946" /><line stroke="rgb(0%,0%,0%)" x1="316.320623014" x2="320.536768798" y1="888.875199282" y2="888.325916994" /><line stroke="rgb(0%,0%,0%)" x1="321.540384318" x2="326.659092132" y1="887.820207074" y2="885.32325298" /><line stroke="rgb(0%,0%,0%)" x1="320.536768798" x2="321.540384318" y1="888.325916994" y2="887.820207074" /><line stroke="rgb(0%,0%,0%)" x1="321.536523161" x2="321.55662056" y1="856.108152785" y2="847.66611858" /><line stroke="rgb(0%,0%,0%)" x1="321.536523161" x2="321.317310251" y1="856.108152785" y2="859.180100232" /><line stroke="rgb(0%,0%,0%)" x1="319.892763746" x2="321.160234221" y1="842.300353232" y2="845.479185723" /><line stroke="rgb(0%,0%,0%)" x1="321.160234221" x2="321.55662056" y1="845.479185723" y2="847.66611858" /><line stroke="rgb(0%,0%,0%)" x1="329.476495717" x2="322.651985884" y1="791.141259779" y2="790.412553563" /><line stroke="rgb(0%,0%,0%)" x1="329.476495717" x2="330.623820326" y1="791.141259779" y2="792.109407823" /><line stroke="rgb(0%,0%,0%)" x1="320.82728938" x2="322.651985884" y1="789.83684105" y2="790.412553563" /><line stroke="rgb(0%,0%,0%)" x1="320.013007053" x2="326.072623072" y1="671.221413036" y2="669.834101302" /><line stroke="rgb(0%,0%,0%)" x1="327.343602021" x2="334.010432572" y1="669.768264063" y2="667.718026473" /><line stroke="rgb(0%,0%,0%)" x1="326.659092132" x2="333.47293275" y1="885.32325298" y2="879.52184323" /><line stroke="rgb(0%,0%,0%)" x1="343.093930989" x2="345.095977361" y1="868.973231467" y2="866.57218557" /><line stroke="rgb(0%,0%,0%)" x1="335.447541696" x2="343.093930989" y1="878.255573306" y2="868.973231467" /><line stroke="rgb(0%,0%,0%)" x1="343.782457826" x2="338.255215706" y1="799.120898021" y2="795.270363563" /><line stroke="rgb(0%,0%,0%)" x1="334.149056166" x2="330.623820326" y1="793.698680959" y2="792.109407823" /><line stroke="rgb(0%,0%,0%)" x1="338.255215706" x2="334.149056166" y1="795.270363563" y2="793.698680959" /><line stroke="rgb(0%,0%,0%)" x1="346.258996093" x2="343.782457826" y1="800.761496618" y2="799.120898021" /><line stroke="rgb(0%,0%,0%)" x1="344.517447156" x2="345.948377038" y1="663.605152391" y2="663.176050936" /><line stroke="rgb(0%,0%,0%)" x1="346.213690519" x2="345.095977361" y1="859.668683286" y2="866.57218557" /><line stroke="rgb(0%,0%,0%)" x1="346.213690519" x2="348.133615105" y1="859.668683286" y2="855.035269176" /><line stroke="rgb(0%,0%,0%)" x1="348.133615105" x2="349.822752933" y1="855.035269176" y2="851.622665303" /><line stroke="rgb(0%,0%,0%)" x1="350.577062186" x2="350.948516041" y1="845.382572502" y2="835.523074563" /><line stroke="rgb(0%,0%,0%)" x1="353.180511647" x2="352.958110985" y1="816.040682867" y2="815.075877737" /><line stroke="rgb(0%,0%,0%)" x1="350.10869495" x2="352.958110985" y1="808.355019936" y2="815.075877737" /><line stroke="rgb(0%,0%,0%)" x1="345.948377038" x2="346.860075098" y1="663.176050936" y2="662.992236914" /><line stroke="rgb(0%,0%,0%)" x1="346.860075098" x2="347.335758919" y1="662.992236914" y2="662.686992672" /><line stroke="rgb(0%,0%,0%)" x1="351.409583188" x2="354.788538741" y1="660.994246365" y2="659.958022827" /><line stroke="rgb(0%,0%,0%)" x1="276.958260157" x2="276.663897128" y1="671.733197322" y2="671.675525481" /><line stroke="rgb(0%,0%,0%)" x1="268.790200003" x2="267.36962718" y1="670.404984848" y2="669.952028935" /><line stroke="rgb(0%,0%,0%)" x1="272.991734775" x2="276.663897128" y1="670.133461484" y2="671.675525481" /><line stroke="rgb(0%,0%,0%)" x1="268.790200003" x2="272.991734775" y1="670.404984848" y2="670.133461484" /><line stroke="rgb(0%,0%,0%)" x1="294.090245601" x2="294.64184299" y1="809.496194318" y2="810.505057015" /><line stroke="rgb(0%,0%,0%)" x1="294.090245601" x2="294.058040648" y1="809.496194318" y2="807.755338896" /><line stroke="rgb(0%,0%,0%)" x1="290.282006511" x2="291.246717997" y1="672.621578209" y2="672.686531577" /><line stroke="rgb(0%,0%,0%)" x1="276.958260157" x2="290.282006511" y1="671.733197322" y2="672.621578209" /><line stroke="rgb(0%,0%,0%)" x1="303.096981516" x2="306.567267498" y1="822.989239411" y2="823.131460278" /><line stroke="rgb(0%,0%,0%)" x1="294.199453579" x2="295.803878243" y1="814.048726192" y2="819.188124687" /><line stroke="rgb(0%,0%,0%)" x1="294.64184299" x2="294.199453579" y1="810.505057015" y2="814.048726192" /><line stroke="rgb(0%,0%,0%)" x1="296.245454382" x2="294.058040648" y1="803.170952788" y2="807.755338896" /><line stroke="rgb(0%,0%,0%)" x1="296.245454382" x2="297.125109818" y1="803.170952788" y2="801.546710382" /><line stroke="rgb(0%,0%,0%)" x1="297.843991099" x2="297.125109818" y1="800.195507226" y2="801.546710382" /><line stroke="rgb(0%,0%,0%)" x1="299.683349672" x2="297.843991099" y1="799.089707901" y2="800.195507226" /><line stroke="rgb(0%,0%,0%)" x1="304.968152907" x2="299.683349672" y1="794.658383837" y2="799.089707901" /><line stroke="rgb(0%,0%,0%)" x1="291.246717997" x2="301.008682097" y1="672.686531577" y2="671.637507317" /><line stroke="rgb(0%,0%,0%)" x1="312.556853057" x2="313.225367582" y1="886.020591687" y2="887.142538598" /><line stroke="rgb(0%,0%,0%)" x1="313.225367582" x2="315.252758627" y1="887.142538598" y2="888.037040339" /><line stroke="rgb(0%,0%,0%)" x1="311.277656974" x2="312.556853057" y1="883.750577726" y2="886.020591687" /><line stroke="rgb(0%,0%,0%)" x1="311.045150297" x2="311.1690546" y1="880.783154675" y2="882.005842731" /><line stroke="rgb(0%,0%,0%)" x1="306.567267498" x2="307.727130557" y1="823.131460278" y2="826.058047712" /><line stroke="rgb(0%,0%,0%)" x1="312.165203785" x2="316.298502257" y1="833.365700298" y2="840.10717699" /><line stroke="rgb(0%,0%,0%)" x1="316.298502257" x2="319.892763746" y1="840.10717699" y2="842.300353232" /><line stroke="rgb(0%,0%,0%)" x1="259.842280714" x2="253.266069708" y1="667.415408618" y2="664.84314132" /><line stroke="rgb(0%,0%,0%)" x1="249.86319625" x2="244.525193735" y1="663.687686955" y2="661.377652373" /><line stroke="rgb(0%,0%,0%)" x1="249.86319625" x2="253.266069708" y1="663.687686955" y2="664.84314132" /><line stroke="rgb(0%,0%,0%)" x1="259.842280714" x2="267.36962718" y1="667.415408618" y2="669.952028935" /><line stroke="rgb(0%,0%,0%)" x1="210.015692689" x2="201.821786829" y1="653.695121463" y2="651.418923651" /><line stroke="rgb(0%,0%,0%)" x1="210.015692689" x2="212.989710793" y1="653.695121463" y2="653.833412646" /><line stroke="rgb(0%,0%,0%)" x1="221.486854536" x2="227.926807684" y1="655.76474494" y2="656.579950806" /><line stroke="rgb(0%,0%,0%)" x1="212.989710793" x2="221.486854536" y1="653.833412646" y2="655.76474494" /><line stroke="rgb(0%,0%,0%)" x1="232.442340251" x2="242.005127308" y1="657.715981658" y2="660.70758063" /><line stroke="rgb(0%,0%,0%)" x1="227.926807684" x2="232.442340251" y1="656.579950806" y2="657.715981658" /><line stroke="rgb(0%,0%,0%)" x1="242.005127308" x2="243.113862913" y1="660.70758063" y2="660.850560954" /><line stroke="rgb(0%,0%,0%)" x1="169.088023477" x2="182.082547421" y1="634.575407351" y2="642.424810608" /><line stroke="rgb(0%,0%,0%)" x1="192.337351703" x2="182.082547421" y1="646.453172788" y2="642.424810608" /><line stroke="rgb(0%,0%,0%)" x1="192.337351703" x2="201.821786829" y1="646.453172788" y2="651.418923651" /><line stroke="rgb(0%,0%,0%)" x1="243.113862913" x2="244.525193735" y1="660.850560954" y2="661.377652373" /><line stroke="rgb(0%,0%,0%)" x1="127.581384418" x2="130.749400128" y1="609.229883418" y2="610.90587944" /><line stroke="rgb(0%,0%,0%)" x1="142.363184475" x2="148.020190569" y1="614.148404893" y2="614.835565997" /><line stroke="rgb(0%,0%,0%)" x1="160.61428725" x2="154.730942375" y1="626.607543112" y2="618.515644255" /><line stroke="rgb(0%,0%,0%)" x1="150.509841408" x2="154.730942375" y1="616.03917403" y2="618.515644255" /><line stroke="rgb(0%,0%,0%)" x1="160.61428725" x2="161.075564004" y1="626.607543112" y2="627.503601773" /><line stroke="rgb(0%,0%,0%)" x1="148.963508829" x2="150.509841408" y1="615.258016078" y2="616.03917403" /><line stroke="rgb(0%,0%,0%)" x1="169.088023477" x2="162.65900193" y1="634.575407351" y2="628.959475388" /><line stroke="rgb(0%,0%,0%)" x1="161.075564004" x2="162.65900193" y1="627.503601773" y2="628.959475388" /><line stroke="rgb(0%,0%,0%)" x1="91.1388698148" x2="99.4844699582" y1="575.490594212" y2="582.865682551" /><line stroke="rgb(0%,0%,0%)" x1="103.909914556" x2="113.554905411" y1="588.035965983" y2="599.112714419" /><line stroke="rgb(0%,0%,0%)" x1="99.4844699582" x2="103.909914556" y1="582.865682551" y2="588.035965983" /><line stroke="rgb(0%,0%,0%)" x1="124.908343374" x2="115.206585286" y1="607.601863816" y2="600.638675262" /><line stroke="rgb(0%,0%,0%)" x1="124.908343374" x2="127.581384418" y1="607.601863816" y2="609.229883418" /><line stroke="rgb(0%,0%,0%)" x1="113.554905411" x2="115.206585286" y1="599.112714419" y2="600.638675262" /><line stroke="rgb(0%,0%,0%)" x1="140.937071121" x2="131.343565472" y1="613.851102562" y2="610.981718598" /><line stroke="rgb(0%,0%,0%)" x1="140.937071121" x2="142.363184475" y1="613.851102562" y2="614.148404893" /><line stroke="rgb(0%,0%,0%)" x1="130.749400128" x2="131.343565472" y1="610.90587944" y2="610.981718598" /><line stroke="rgb(0%,0%,0%)" x1="148.624359887" x2="148.963508829" y1="615.059566598" y2="615.258016078" /><line stroke="rgb(0%,0%,0%)" x1="148.020190569" x2="148.624359887" y1="614.835565997" y2="615.059566598" /><line stroke="rgb(0%,0%,0%)" x1="58.0982711999" x2="58.0200361408" y1="520.936360336" y2="520.687032734" /><line stroke="rgb(0%,0%,0%)" x1="58.0200361408" x2="55.8955094962" y1="520.687032734" y2="519.436575992" /><line stroke="rgb(0%,0%,0%)" x1="70.1098586981" x2="73.0445932262" y1="546.663536028" y2="551.10729345" /><line stroke="rgb(0%,0%,0%)" x1="70.1098586981" x2="67.2909952613" y1="546.663536028" y2="535.097353478" /><line stroke="rgb(0%,0%,0%)" x1="64.7888945927" x2="66.9938178181" y1="531.381989259" y2="534.346622256" /><line stroke="rgb(0%,0%,0%)" x1="64.7888945927" x2="63.9203224317" y1="531.381989259" y2="528.437953975" /><line stroke="rgb(0%,0%,0%)" x1="58.0982711999" x2="61.5367217035" y1="520.936360336" y2="524.639168556" /><line stroke="rgb(0%,0%,0%)" x1="61.5367217035" x2="62.8317776384" y1="524.639168556" y2="526.99553609" /><line stroke="rgb(0%,0%,0%)" x1="73.0445932262" x2="74.9279615142" y1="551.10729345" y2="553.862451763" /><line stroke="rgb(0%,0%,0%)" x1="67.1376406289" x2="67.2909952613" y1="534.552122714" y2="535.097353478" /><line stroke="rgb(0%,0%,0%)" x1="66.9938178181" x2="67.1376406289" y1="534.346622256" y2="534.552122714" /><line stroke="rgb(0%,0%,0%)" x1="63.1438498542" x2="63.9203224317" y1="527.760692756" y2="528.437953975" /><line stroke="rgb(0%,0%,0%)" x1="91.1388698148" x2="83.6947031585" y1="575.490594212" y2="566.718377382" /><line stroke="rgb(0%,0%,0%)" x1="78.8633370206" x2="83.6947031585" y1="561.578799649" y2="566.718377382" /><line stroke="rgb(0%,0%,0%)" x1="74.9279615142" x2="78.8633370206" y1="553.862451763" y2="561.578799649" /><line stroke="rgb(0%,0%,0%)" x1="24.5188317539" x2="24.3479772603" y1="488.227445834" y2="486.030061103" /><line stroke="rgb(0%,0%,0%)" x1="24.5188317539" x2="25.3927131604" y1="488.227445834" y2="491.647334855" /><line stroke="rgb(0%,0%,0%)" x1="37.0123450727" x2="34.8149490542" y1="506.484033789" y2="504.501316769" /><line stroke="rgb(0%,0%,0%)" x1="38.5562113791" x2="37.0123450727" y1="507.585396222" y2="506.484033789" /><line stroke="rgb(0%,0%,0%)" x1="30.6914599264" x2="26.7253566005" y1="500.042943679" y2="495.877088453" /><line stroke="rgb(0%,0%,0%)" x1="26.662912126" x2="25.0495716375" y1="471.851792095" y2="479.197566475" /><line stroke="rgb(0%,0%,0%)" x1="29.6054046588" x2="26.662912126" y1="468.270085232" y2="471.851792095" /><line stroke="rgb(0%,0%,0%)" x1="29.6054046588" x2="35.6677483096" y1="468.270085232" y2="464.08381928" /><line stroke="rgb(0%,0%,0%)" x1="36.7386598246" x2="35.6677483096" y1="463.091410584" y2="464.08381928" /><line stroke="rgb(0%,0%,0%)" x1="38.5562113791" x2="39.653540636" y1="507.585396222" y2="508.552822296" /><line stroke="rgb(0%,0%,0%)" x1="39.653540636" x2="46.3652006739" y1="508.552822296" y2="512.712318982" /><line stroke="rgb(0%,0%,0%)" x1="30.6914599264" x2="34.8149490542" y1="500.042943679" y2="504.501316769" /><line stroke="rgb(0%,0%,0%)" x1="39.7709014222" x2="36.7386598246" y1="462.048081172" y2="463.091410584" /><line stroke="rgb(0%,0%,0%)" x1="44.5113385789" x2="39.7709014222" y1="460.294800028" y2="462.048081172" /><line stroke="rgb(0%,0%,0%)" x1="46.3652006739" x2="55.8955094962" y1="512.712318982" y2="519.436575992" /><line stroke="rgb(0%,0%,0%)" x1="62.8317776384" x2="63.1438498542" y1="526.99553609" y2="527.760692756" /><line stroke="rgb(0%,0%,0%)" x1="26.4854094462" x2="26.7253566005" y1="495.362635484" y2="495.877088453" /><line stroke="rgb(0%,0%,0%)" x1="25.3927131604" x2="26.4854094462" y1="491.647334855" y2="495.362635484" /><line stroke="rgb(0%,0%,0%)" x1="25.0495716375" x2="24.3479772603" y1="479.197566475" y2="486.030061103" /><line stroke="rgb(0%,0%,0%)" x1="436.444492277" x2="435.38928968" y1="611.415850407" y2="612.650819321" /><line stroke="rgb(0%,0%,0%)" x1="436.444492277" x2="438.386199735" y1="611.415850407" y2="607.390237501" /><line stroke="rgb(0%,0%,0%)" x1="438.386199735" x2="440.522492577" y1="607.390237501" y2="604.947067658" /><line stroke="rgb(0%,0%,0%)" x1="455.5748891" x2="462.822699707" y1="591.603324725" y2="583.310287562" /><line stroke="rgb(0%,0%,0%)" x1="465.979316243" x2="463.583046875" y1="579.005556147" y2="582.316355398" /><line stroke="rgb(0%,0%,0%)" x1="465.979316243" x2="474.437308346" y1="579.005556147" y2="570.678093505" /><line stroke="rgb(0%,0%,0%)" x1="474.437308346" x2="474.494535241" y1="570.678093505" y2="570.616562154" /><line stroke="rgb(0%,0%,0%)" x1="420.580523353" x2="422.506304711" y1="623.624991792" y2="622.325977022" /><line stroke="rgb(0%,0%,0%)" x1="423.405493133" x2="427.891942727" y1="621.542249591" y2="618.879283642" /><line stroke="rgb(0%,0%,0%)" x1="427.891942727" x2="431.763288487" y1="618.879283642" y2="616.609723487" /><line stroke="rgb(0%,0%,0%)" x1="431.763288487" x2="435.38928968" y1="616.609723487" y2="612.650819321" /><line stroke="rgb(0%,0%,0%)" x1="445.162774517" x2="452.556093127" y1="600.386976692" y2="593.619297018" /><line stroke="rgb(0%,0%,0%)" x1="440.522492577" x2="445.162774517" y1="604.947067658" y2="600.386976692" /><line stroke="rgb(0%,0%,0%)" x1="452.556093127" x2="455.5748891" y1="593.619297018" y2="591.603324725" /><line stroke="rgb(0%,0%,0%)" x1="462.822699707" x2="463.583046875" y1="583.310287562" y2="582.316355398" /><line stroke="rgb(0%,0%,0%)" x1="311.410020609" x2="310.749457479" y1="877.28892314" y2="880.312875813" /><line stroke="rgb(0%,0%,0%)" x1="310.749457479" x2="311.045150297" y1="880.312875813" y2="880.783154675" /><line stroke="rgb(0%,0%,0%)" x1="317.677120155" x2="314.888186484" y1="864.428607177" y2="868.754034763" /><line stroke="rgb(0%,0%,0%)" x1="314.888186484" x2="313.049980195" y1="868.754034763" y2="872.704609133" /><line stroke="rgb(0%,0%,0%)" x1="317.677120155" x2="321.317310251" y1="864.428607177" y2="859.180100232" /><line stroke="rgb(0%,0%,0%)" x1="313.049980195" x2="311.410020609" y1="872.704609133" y2="877.28892314" /><line stroke="rgb(0%,0%,0%)" x1="189.713252109" x2="186.238196653" y1="271.38285672" y2="272.724328125" /><line stroke="rgb(0%,0%,0%)" x1="193.112158409" x2="189.713252109" y1="270.366596698" y2="271.38285672" /></svg>