<?xml version="1.0" encoding="utf-8" ?>
<svg baseProfile="full" height="100%" version="1.1" viewBox="0.5 0.5 685.793960571 941.299331665" width="100%" xmlns="http://www.w3.org/2000/svg" xmlns:ev="http://www.w3.org/2001/xml-events" xmlns:xlink="http://www.w3.org/1999/xlink"><defs /><line stroke="rgb(0%,0%,0%)" x1="500.951055246" x2="500.935017913" y1="456.636636087" y2="456.387439375" /><line stroke="rgb(0%,0%,0%)" x1="500.01398697" x2="500.951055246" y1="463.969280799" y2="456.636636087" /><line stroke="rgb(0%,0%,0%)" x1="500.935017913" x2="500.884812" y1="456.387439375" y2="455.469645293" /><line stroke="rgb(0%,0%,0%)" x1="475.03087016" x2="477.688926806" y1="373.675600987" y2="381.95940192" /><line stroke="rgb(0%,0%,0%)" x1="475.03087016" x2="470.601511022" y1="373.675600987" y2="366.286887083" /><line stroke="rgb(0%,0%,0%)" x1="482.32129024" x2="487.871285009" y1="392.60891221" y2="407.250679784" /><line stroke="rgb(0%,0%,0%)" x1="489.81206661" x2="487.871285009" y1="411.688234617" y2="407.250679784" /><line stroke="rgb(0%,0%,0%)" x1="500.884812" x2="500.095910628" y1="455.469645293" y2="443.539170002" /><line stroke="rgb(0%,0%,0%)" x1="500.095910628" x2="499.614247116" y1="443.539170002" y2="441.202581352" /><line stroke="rgb(0%,0%,0%)" x1="495.670252927" x2="498.167285314" y1="427.90925724" y2="436.537561761" /><line stroke="rgb(0%,0%,0%)" x1="499.614247116" x2="498.167285314" y1="441.202581352" y2="436.537561761" /><line stroke="rgb(0%,0%,0%)" x1="495.670252927" x2="494.415073378" y1="427.90925724" y2="425.482285552" /><line stroke="rgb(0%,0%,0%)" x1="494.415073378" x2="492.753727789" y1="425.482285552" y2="420.654707924" /><line stroke="rgb(0%,0%,0%)" x1="491.806055593" x2="490.339317031" y1="416.916209038" y2="412.326148196" /><line stroke="rgb(0%,0%,0%)" x1="492.753727789" x2="491.806055593" y1="420.654707924" y2="416.916209038" /><line stroke="rgb(0%,0%,0%)" x1="490.339317031" x2="489.81206661" y1="412.326148196" y2="411.688234617" /><line stroke="rgb(0%,0%,0%)" x1="478.657101076" x2="477.688926806" y1="386.545937939" y2="381.95940192" /><line stroke="rgb(0%,0%,0%)" x1="482.32129024" x2="478.657101076" y1="392.60891221" y2="386.545937939" /><line stroke="rgb(0%,0%,0%)" x1="470.601511022" x2="467.18391703" y1="366.286887083" y2="359.568217118" /><line stroke="rgb(0%,0%,0%)" x1="384.404741716" x2="390.762650449" y1="284.051873611" y2="290.269025896" /><line stroke="rgb(0%,0%,0%)" x1="384.404741716" x2="382.485025919" y1="284.051873611" y2="282.871573148" /><line stroke="rgb(0%,0%,0%)" x1="400.496289484" x2="396.842020665" y1="298.946057486" y2="295.785409924" /><line stroke="rgb(0%,0%,0%)" x1="408.958179002" x2="407.472011606" y1="305.216513932" y2="304.29162645" /><line stroke="rgb(0%,0%,0%)" x1="404.603892286" x2="407.472011606" y1="301.776153352" y2="304.29162645" /><line stroke="rgb(0%,0%,0%)" x1="400.496289484" x2="404.603892286" y1="298.946057486" y2="301.776153352" /><line stroke="rgb(0%,0%,0%)" x1="350.465797609" x2="349.60599557" y1="270.768922253" y2="270.652110186" /><line stroke="rgb(0%,0%,0%)" x1="350.465797609" x2="351.066521333" y1="270.768922253" y2="270.984262176" /><line stroke="rgb(0%,0%,0%)" x1="376.296851087" x2="367.60094018" y1="279.480979937" y2="277.935651501" /><line stroke="rgb(0%,0%,0%)" x1="382.485025919" x2="377.836663511" y1="282.871573148" y2="279.914829004" /><line stroke="rgb(0%,0%,0%)" x1="376.296851087" x2="377.836663511" y1="279.480979937" y2="279.914829004" /><line stroke="rgb(0%,0%,0%)" x1="394.886248984" x2="390.762650449" y1="294.30374303" y2="290.269025896" /><line stroke="rgb(0%,0%,0%)" x1="396.842020665" x2="394.886248984" y1="295.785409924" y2="294.30374303" /><line stroke="rgb(0%,0%,0%)" x1="300.791111093" x2="306.636450841" y1="261.106503455" y2="262.131187068" /><line stroke="rgb(0%,0%,0%)" x1="321.175672241" x2="320.041031098" y1="266.123874224" y2="265.801480148" /><line stroke="rgb(0%,0%,0%)" x1="315.301237818" x2="313.351409529" y1="265.273165668" y2="264.931024373" /><line stroke="rgb(0%,0%,0%)" x1="320.041031098" x2="315.301237818" y1="265.801480148" y2="265.273165668" /><line stroke="rgb(0%,0%,0%)" x1="335.295438609" x2="329.836624125" y1="267.6516516" y2="267.367888379" /><line stroke="rgb(0%,0%,0%)" x1="349.60599557" x2="343.065615808" y1="270.652110186" y2="269.584266735" /><line stroke="rgb(0%,0%,0%)" x1="343.065615808" x2="340.410798506" y1="269.584266735" y2="269.095605828" /><line stroke="rgb(0%,0%,0%)" x1="360.998177685" x2="351.066521333" y1="276.973880694" y2="270.984262176" /><line stroke="rgb(0%,0%,0%)" x1="360.998177685" x2="362.058604105" y1="276.973880694" y2="277.689956121" /><line stroke="rgb(0%,0%,0%)" x1="364.867990051" x2="364.466578634" y1="277.416205908" y2="277.565904251" /><line stroke="rgb(0%,0%,0%)" x1="365.08098134" x2="364.867990051" y1="277.477154372" y2="277.416205908" /><line stroke="rgb(0%,0%,0%)" x1="362.058604105" x2="364.466578634" y1="277.689956121" y2="277.565904251" /><line stroke="rgb(0%,0%,0%)" x1="367.60094018" x2="365.08098134" y1="277.935651501" y2="277.477154372" /><line stroke="rgb(0%,0%,0%)" x1="284.977894738" x2="285.853966275" y1="260.67215134" y2="260.690716997" /><line stroke="rgb(0%,0%,0%)" x1="284.848328143" x2="284.977894738" y1="260.706494292" y2="260.67215134" /><line stroke="rgb(0%,0%,0%)" x1="272.771929202" x2="271.776704646" y1="55.6998424199" y2="50.2116687485" /><line stroke="rgb(0%,0%,0%)" x1="271.378017227" x2="271.471809592" y1="35.1680540915" y2="36.3662622475" /><line stroke="rgb(0%,0%,0%)" x1="300.791111093" x2="296.972979541" y1="261.106503455" y2="262.107591404" /><line stroke="rgb(0%,0%,0%)" x1="296.972979541" x2="295.504767872" y1="262.107591404" y2="261.586076037" /><line stroke="rgb(0%,0%,0%)" x1="313.351409529" x2="308.834494362" y1="264.931024373" y2="262.794577291" /><line stroke="rgb(0%,0%,0%)" x1="321.175672241" x2="324.041986225" y1="266.123874224" y2="266.967850824" /><line stroke="rgb(0%,0%,0%)" x1="328.629418044" x2="327.87774785" y1="267.188369192" y2="267.1719342" /><line stroke="rgb(0%,0%,0%)" x1="327.87774785" x2="324.041986225" y1="267.1719342" y2="266.967850824" /><line stroke="rgb(0%,0%,0%)" x1="329.836624125" x2="328.629418044" y1="267.367888379" y2="267.188369192" /><line stroke="rgb(0%,0%,0%)" x1="340.410798506" x2="335.295438609" y1="269.095605828" y2="267.6516516" /><line stroke="rgb(0%,0%,0%)" x1="247.732112771" x2="250.609992898" y1="259.06574251" y2="258.06205302" /><line stroke="rgb(0%,0%,0%)" x1="247.732112771" x2="243.621178848" y1="259.06574251" y2="258.740849771" /><line stroke="rgb(0%,0%,0%)" x1="254.884817985" x2="255.414768874" y1="88.4069365766" y2="88.2167671854" /><line stroke="rgb(0%,0%,0%)" x1="254.670192069" x2="254.884817985" y1="88.346299469" y2="88.4069365766" /><line stroke="rgb(0%,0%,0%)" x1="254.670192069" x2="254.343619655" y1="88.346299469" y2="88.3445578135" /><line stroke="rgb(0%,0%,0%)" x1="266.303971459" x2="269.689868651" y1="81.1914221898" y2="77.9538566908" /><line stroke="rgb(0%,0%,0%)" x1="255.414768874" x2="266.303971459" y1="88.2167671854" y2="81.1914221898" /><line stroke="rgb(0%,0%,0%)" x1="270.245330556" x2="268.235785202" y1="31.6628782515" y2="26.4276422826" /><line stroke="rgb(0%,0%,0%)" x1="257.063453056" x2="265.498051896" y1="14.268630129" y2="21.8390718594" /><line stroke="rgb(0%,0%,0%)" x1="284.210833486" x2="278.679822438" y1="260.494730509" y2="259.384456203" /><line stroke="rgb(0%,0%,0%)" x1="284.848328143" x2="284.210833486" y1="260.706494292" y2="260.494730509" /><line stroke="rgb(0%,0%,0%)" x1="271.086579482" x2="269.689868651" y1="75.3741612166" y2="77.9538566908" /><line stroke="rgb(0%,0%,0%)" x1="271.086579482" x2="271.493833509" y1="75.3741612166" y2="73.5801699522" /><line stroke="rgb(0%,0%,0%)" x1="272.771929202" x2="273.517753617" y1="55.6998424199" y2="60.7476607405" /><line stroke="rgb(0%,0%,0%)" x1="271.776704646" x2="271.471809592" y1="50.2116687485" y2="36.3662622475" /><line stroke="rgb(0%,0%,0%)" x1="271.378017227" x2="270.245330556" y1="35.1680540915" y2="31.6628782515" /><line stroke="rgb(0%,0%,0%)" x1="295.504767872" x2="293.164715847" y1="261.586076037" y2="261.668202764" /><line stroke="rgb(0%,0%,0%)" x1="290.740231573" x2="285.853966275" y1="260.853674655" y2="260.690716997" /><line stroke="rgb(0%,0%,0%)" x1="293.164715847" x2="290.740231573" y1="261.668202764" y2="260.853674655" /><line stroke="rgb(0%,0%,0%)" x1="308.048175025" x2="306.636450841" y1="262.596032781" y2="262.131187068" /><line stroke="rgb(0%,0%,0%)" x1="308.834494362" x2="308.048175025" y1="262.794577291" y2="262.596032781" /><line stroke="rgb(0%,0%,0%)" x1="229.545148773" x2="229.385957067" y1="261.12424044" y2="261.135180115" /><line stroke="rgb(0%,0%,0%)" x1="229.385957067" x2="228.514299581" y1="261.135180115" y2="261.329182396" /><line stroke="rgb(0%,0%,0%)" x1="229.816822779" x2="229.545148773" y1="261.019550916" y2="261.12424044" /><line stroke="rgb(0%,0%,0%)" x1="227.03836126" x2="232.092546455" y1="2.47829482046" y2="3.54772128756" /><line stroke="rgb(0%,0%,0%)" x1="235.474157975" x2="237.991957335" y1="259.092757075" y2="258.85787394" /><line stroke="rgb(0%,0%,0%)" x1="235.474157975" x2="229.816822779" y1="259.092757075" y2="261.019550916" /><line stroke="rgb(0%,0%,0%)" x1="239.01441411" x2="234.930248154" y1="73.593256028" y2="68.1517596434" /><line stroke="rgb(0%,0%,0%)" x1="239.01441411" x2="240.424327261" y1="73.593256028" y2="74.6732058034" /><line stroke="rgb(0%,0%,0%)" x1="232.848843429" x2="234.930248154" y1="63.7452297361" y2="68.1517596434" /><line stroke="rgb(0%,0%,0%)" x1="232.202176198" x2="232.848843429" y1="60.6000769402" y2="63.7452297361" /><line stroke="rgb(0%,0%,0%)" x1="246.048850769" x2="237.108173139" y1="8.67263896801" y2="5.15395771137" /><line stroke="rgb(0%,0%,0%)" x1="261.469557996" x2="253.005062071" y1="258.492892114" y2="258.190114671" /><line stroke="rgb(0%,0%,0%)" x1="253.005062071" x2="250.609992898" y1="258.190114671" y2="258.06205302" /><line stroke="rgb(0%,0%,0%)" x1="254.343619655" x2="253.810320802" y1="88.3445578135" y2="88.055147267" /><line stroke="rgb(0%,0%,0%)" x1="246.272790889" x2="253.810320802" y1="82.5246325526" y2="88.055147267" /><line stroke="rgb(0%,0%,0%)" x1="246.272790889" x2="242.311665324" y1="82.5246325526" y2="75.3246121012" /><line stroke="rgb(0%,0%,0%)" x1="257.063453056" x2="253.532326354" y1="14.268630129" y2="12.2847456497" /><line stroke="rgb(0%,0%,0%)" x1="246.048850769" x2="253.532326354" y1="8.67263896801" y2="12.2847456497" /><line stroke="rgb(0%,0%,0%)" x1="261.469557996" x2="269.586334369" y1="258.492892114" y2="258.713434452" /><line stroke="rgb(0%,0%,0%)" x1="271.493833509" x2="273.122460443" y1="73.5801699522" y2="63.8667601208" /><line stroke="rgb(0%,0%,0%)" x1="273.122460443" x2="273.517753617" y1="63.8667601208" y2="60.7476607405" /><line stroke="rgb(0%,0%,0%)" x1="268.235785202" x2="266.651789494" y1="26.4276422826" y2="23.350688116" /><line stroke="rgb(0%,0%,0%)" x1="266.651789494" x2="265.498051896" y1="23.350688116" y2="21.8390718594" /><line stroke="rgb(0%,0%,0%)" x1="271.356218171" x2="271.103940928" y1="259.054332236" y2="258.93557281" /><line stroke="rgb(0%,0%,0%)" x1="278.679822438" x2="271.942575725" y1="259.384456203" y2="258.964092949" /><line stroke="rgb(0%,0%,0%)" x1="271.942575725" x2="271.356218171" y1="258.964092949" y2="259.054332236" /><line stroke="rgb(0%,0%,0%)" x1="271.103940928" x2="269.586334369" y1="258.93557281" y2="258.713434452" /><line stroke="rgb(0%,0%,0%)" x1="219.350026455" x2="212.281747416" y1="264.140207487" y2="265.360194019" /><line stroke="rgb(0%,0%,0%)" x1="212.281747416" x2="208.5341701" y1="265.360194019" y2="266.654029313" /><line stroke="rgb(0%,0%,0%)" x1="223.322039038" x2="223.519626161" y1="43.3639560495" y2="43.8777061465" /><line stroke="rgb(0%,0%,0%)" x1="222.828647077" x2="221.236683162" y1="42.7360805193" y2="38.8874718889" /><line stroke="rgb(0%,0%,0%)" x1="223.322039038" x2="222.828647077" y1="43.3639560495" y2="42.7360805193" /><line stroke="rgb(0%,0%,0%)" x1="214.841757842" x2="215.658431942" y1="16.8861287949" y2="23.3696034053" /><line stroke="rgb(0%,0%,0%)" x1="214.504529342" x2="214.841757842" y1="13.0630058523" y2="16.8861287949" /><line stroke="rgb(0%,0%,0%)" x1="215.145571352" x2="214.504529342" y1="11.5843226137" y2="13.0630058523" /><line stroke="rgb(0%,0%,0%)" x1="216.815086817" x2="215.145571352" y1="8.28537523396" y2="11.5843226137" /><line stroke="rgb(0%,0%,0%)" x1="216.815086817" x2="216.92235365" y1="8.28537523396" y2="6.54236840608" /><line stroke="rgb(0%,0%,0%)" x1="217.323940722" x2="216.92235365" y1="6.05924366769" y2="6.54236840608" /><line stroke="rgb(0%,0%,0%)" x1="221.635634718" x2="218.139587555" y1="3.09485632037" y2="5.31012060428" /><line stroke="rgb(0%,0%,0%)" x1="223.955230719" x2="221.635634718" y1="2.78406829789" y2="3.09485632037" /><line stroke="rgb(0%,0%,0%)" x1="228.514299581" x2="219.350026455" y1="261.329182396" y2="264.140207487" /><line stroke="rgb(0%,0%,0%)" x1="225.512736263" x2="232.202176198" y1="47.8400868021" y2="60.6000769402" /><line stroke="rgb(0%,0%,0%)" x1="225.512736263" x2="223.519626161" y1="47.8400868021" y2="43.8777061465" /><line stroke="rgb(0%,0%,0%)" x1="216.125576681" x2="221.236683162" y1="25.9978936433" y2="38.8874718889" /><line stroke="rgb(0%,0%,0%)" x1="215.658431942" x2="216.125576681" y1="23.3696034053" y2="25.9978936433" /><line stroke="rgb(0%,0%,0%)" x1="218.139587555" x2="217.323940722" y1="5.31012060428" y2="6.05924366769" /><line stroke="rgb(0%,0%,0%)" x1="227.03836126" x2="223.955230719" y1="2.47829482046" y2="2.78406829789" /><line stroke="rgb(0%,0%,0%)" x1="241.951115826" x2="237.991957335" y1="259.086327748" y2="258.85787394" /><line stroke="rgb(0%,0%,0%)" x1="243.621178848" x2="241.951115826" y1="258.740849771" y2="259.086327748" /><line stroke="rgb(0%,0%,0%)" x1="240.424327261" x2="242.311665324" y1="74.6732058034" y2="75.3246121012" /><line stroke="rgb(0%,0%,0%)" x1="237.108173139" x2="234.790564245" y1="5.15395771137" y2="4.4761798171" /><line stroke="rgb(0%,0%,0%)" x1="234.790564245" x2="232.092546455" y1="4.4761798171" y2="3.54772128756" /><line stroke="rgb(0%,0%,0%)" x1="180.544414121" x2="174.019476657" y1="278.874309998" y2="283.780029465" /><line stroke="rgb(0%,0%,0%)" x1="180.544414121" x2="195.931587909" y1="278.874309998" y2="269.687149793" /><line stroke="rgb(0%,0%,0%)" x1="197.165322504" x2="195.931587909" y1="269.146559729" y2="269.687149793" /><line stroke="rgb(0%,0%,0%)" x1="208.5341701" x2="197.165322504" y1="266.654029313" y2="269.146559729" /><line stroke="rgb(0%,0%,0%)" x1="119.124952202" x2="119.065700951" y1="318.832873271" y2="318.877806879" /><line stroke="rgb(0%,0%,0%)" x1="119.124952202" x2="119.783468747" y1="318.832873271" y2="318.355750035" /><line stroke="rgb(0%,0%,0%)" x1="143.952597873" x2="136.66827207" y1="306.408717546" y2="308.507518342" /><line stroke="rgb(0%,0%,0%)" x1="158.081589796" x2="161.787292553" y1="299.825328881" y2="298.194928772" /><line stroke="rgb(0%,0%,0%)" x1="158.081589796" x2="151.710309882" y1="299.825328881" y2="303.121098603" /><line stroke="rgb(0%,0%,0%)" x1="161.84735934" x2="165.839859758" y1="298.697368662" y2="293.005768243" /><line stroke="rgb(0%,0%,0%)" x1="161.84735934" x2="161.787292553" y1="298.697368662" y2="298.194928772" /><line stroke="rgb(0%,0%,0%)" x1="170.776700414" x2="165.839859758" y1="286.602025959" y2="293.005768243" /><line stroke="rgb(0%,0%,0%)" x1="174.019476657" x2="170.776700414" y1="283.780029465" y2="286.602025959" /><line stroke="rgb(0%,0%,0%)" x1="97.2244245886" x2="99.5553343062" y1="343.566288787" y2="341.050439597" /><line stroke="rgb(0%,0%,0%)" x1="108.436288728" x2="107.685231141" y1="331.325679948" y2="332.068126061" /><line stroke="rgb(0%,0%,0%)" x1="107.685231141" x2="99.5553343062" y1="332.068126061" y2="341.050439597" /><line stroke="rgb(0%,0%,0%)" x1="114.714081483" x2="115.31243219" y1="325.015706304" y2="324.152408077" /><line stroke="rgb(0%,0%,0%)" x1="114.714081483" x2="108.436288728" y1="325.015706304" y2="331.325679948" /><line stroke="rgb(0%,0%,0%)" x1="119.065700951" x2="118.653634169" y1="318.877806879" y2="319.379527417" /><line stroke="rgb(0%,0%,0%)" x1="129.244829905" x2="119.783468747" y1="312.49080481" y2="318.355750035" /><line stroke="rgb(0%,0%,0%)" x1="129.244829905" x2="136.427050311" y1="312.49080481" y2="308.605652288" /><line stroke="rgb(0%,0%,0%)" x1="136.524788769" x2="136.427050311" y1="308.569329689" y2="308.605652288" /><line stroke="rgb(0%,0%,0%)" x1="136.66827207" x2="136.524788769" y1="308.507518342" y2="308.569329689" /><line stroke="rgb(0%,0%,0%)" x1="143.952597873" x2="149.216874202" y1="306.408717546" y2="304.91956034" /><line stroke="rgb(0%,0%,0%)" x1="151.710309882" x2="149.216874202" y1="303.121098603" y2="304.91956034" /><line stroke="rgb(0%,0%,0%)" x1="97.2244245886" x2="91.1881778791" y1="343.566288787" y2="349.516699915" /><line stroke="rgb(0%,0%,0%)" x1="118.653634169" x2="115.31243219" y1="319.379527417" y2="324.152408077" /><line stroke="rgb(0%,0%,0%)" x1="63.4372573396" x2="63.6958493877" y1="398.976725928" y2="398.075175306" /><line stroke="rgb(0%,0%,0%)" x1="63.4372573396" x2="62.094220271" y1="398.976725928" y2="402.240686456" /><line stroke="rgb(0%,0%,0%)" x1="67.1643913032" x2="65.654661735" y1="391.585970929" y2="394.775984376" /><line stroke="rgb(0%,0%,0%)" x1="65.654661735" x2="63.6958493877" y1="394.775984376" y2="398.075175306" /><line stroke="rgb(0%,0%,0%)" x1="67.1643913032" x2="69.6109979066" y1="391.585970929" y2="388.744867265" /><line stroke="rgb(0%,0%,0%)" x1="71.5091758449" x2="69.6109979066" y1="386.607620028" y2="388.744867265" /><line stroke="rgb(0%,0%,0%)" x1="71.9050549306" x2="71.5091758449" y1="386.392130592" y2="386.607620028" /><line stroke="rgb(0%,0%,0%)" x1="73.0930883064" x2="76.1081912197" y1="385.283562152" y2="380.584008454" /><line stroke="rgb(0%,0%,0%)" x1="73.0930883064" x2="71.9050549306" y1="385.283562152" y2="386.392130592" /><line stroke="rgb(0%,0%,0%)" x1="78.6771675389" x2="76.3242504055" y1="369.360566489" y2="379.68702665" /><line stroke="rgb(0%,0%,0%)" x1="76.3242504055" x2="76.1081912197" y1="379.68702665" y2="380.584008454" /><line stroke="rgb(0%,0%,0%)" x1="79.3276932287" x2="78.6771675389" y1="365.844176302" y2="369.360566489" /><line stroke="rgb(0%,0%,0%)" x1="86.6199965855" x2="79.781653022" y1="354.575912562" y2="364.739703507" /><line stroke="rgb(0%,0%,0%)" x1="79.781653022" x2="79.3276932287" y1="364.739703507" y2="365.844176302" /><line stroke="rgb(0%,0%,0%)" x1="91.1881778791" x2="86.6199965855" y1="349.516699915" y2="354.575912562" /><line stroke="rgb(0%,0%,0%)" x1="39.8914055083" x2="36.6886841269" y1="430.675433348" y2="435.503933519" /><line stroke="rgb(0%,0%,0%)" x1="41.2463062512" x2="41.4436034857" y1="451.428246474" y2="452.66009595" /><line stroke="rgb(0%,0%,0%)" x1="35.2724009901" x2="41.2463062512" y1="438.357427233" y2="451.428246474" /><line stroke="rgb(0%,0%,0%)" x1="36.6886841269" x2="35.2724009901" y1="435.503933519" y2="438.357427233" /><line stroke="rgb(0%,0%,0%)" x1="42.0414833578" x2="39.8914055083" y1="428.525067713" y2="430.675433348" /><line stroke="rgb(0%,0%,0%)" x1="42.0414833578" x2="49.5104487792" y1="428.525067713" y2="421.688656193" /><line stroke="rgb(0%,0%,0%)" x1="47.859903933" x2="48.8576053396" y1="457.413518533" y2="459.43950716" /><line stroke="rgb(0%,0%,0%)" x1="47.859903933" x2="41.7210084111" y1="457.413518533" y2="453.15275798" /><line stroke="rgb(0%,0%,0%)" x1="41.4436034857" x2="41.7210084111" y1="452.66009595" y2="453.15275798" /><line stroke="rgb(0%,0%,0%)" x1="52.4083463065" x2="49.5104487792" y1="418.700288979" y2="421.688656193" /><line stroke="rgb(0%,0%,0%)" x1="53.4826847133" x2="52.4083463065" y1="416.30295954" y2="418.700288979" /><line stroke="rgb(0%,0%,0%)" x1="62.094220271" x2="53.4826847133" y1="402.240686456" y2="416.30295954" /><line stroke="rgb(0%,0%,0%)" x1="500.803214497" x2="501.525784937" y1="483.704746975" y2="479.086652205" /><line stroke="rgb(0%,0%,0%)" x1="501.525784937" x2="501.442409952" y1="479.086652205" y2="475.262529484" /><line stroke="rgb(0%,0%,0%)" x1="433.058402084" x2="432.691746894" y1="328.131025258" y2="327.854681847" /><line stroke="rgb(0%,0%,0%)" x1="455.493037061" x2="459.84487194" y1="347.742953842" y2="351.601236062" /><line stroke="rgb(0%,0%,0%)" x1="455.493037061" x2="449.802448908" y1="347.742953842" y2="339.288286949" /><line stroke="rgb(0%,0%,0%)" x1="449.496996431" x2="449.802448908" y1="338.943032018" y2="339.288286949" /><line stroke="rgb(0%,0%,0%)" x1="449.496996431" x2="449.200601369" y1="338.943032018" y2="338.700666934" /><line stroke="rgb(0%,0%,0%)" x1="471.816303367" x2="473.717592858" y1="569.154553958" y2="566.884190053" /><line stroke="rgb(0%,0%,0%)" x1="467.18391703" x2="463.496602146" y1="359.568217118" y2="355.570796901" /><line stroke="rgb(0%,0%,0%)" x1="476.763538355" x2="479.937194931" y1="560.645113877" y2="553.292139227" /><line stroke="rgb(0%,0%,0%)" x1="474.600960876" x2="476.763538355" y1="563.488718839" y2="560.645113877" /><line stroke="rgb(0%,0%,0%)" x1="479.937194931" x2="482.249374866" y1="553.292139227" y2="544.973632141" /><line stroke="rgb(0%,0%,0%)" x1="484.497562632" x2="482.249374866" y1="542.206324494" y2="544.973632141" /><line stroke="rgb(0%,0%,0%)" x1="484.497562632" x2="485.687107617" y1="542.206324494" y2="534.003416775" /><line stroke="rgb(0%,0%,0%)" x1="485.687107617" x2="486.791151" y1="534.003416775" y2="531.526868287" /><line stroke="rgb(0%,0%,0%)" x1="486.791151" x2="487.471798125" y1="531.526868287" y2="529.944538891" /><line stroke="rgb(0%,0%,0%)" x1="493.365416975" x2="487.471798125" y1="511.04042725" y2="529.944538891" /><line stroke="rgb(0%,0%,0%)" x1="493.365416975" x2="494.471012664" y1="511.04042725" y2="506.538663958" /><line stroke="rgb(0%,0%,0%)" x1="494.471012664" x2="495.540279252" y1="506.538663958" y2="504.017685181" /><line stroke="rgb(0%,0%,0%)" x1="495.540279252" x2="496.9170307" y1="504.017685181" y2="498.912451525" /><line stroke="rgb(0%,0%,0%)" x1="500.803214497" x2="496.9170307" y1="483.704746975" y2="498.912451525" /><line stroke="rgb(0%,0%,0%)" x1="501.442409952" x2="500.01398697" y1="475.262529484" y2="463.969280799" /><line stroke="rgb(0%,0%,0%)" x1="414.246237566" x2="414.632596893" y1="309.015780672" y2="309.241415253" /><line stroke="rgb(0%,0%,0%)" x1="414.246237566" x2="414.08743788" y1="309.015780672" y2="308.842482327" /><line stroke="rgb(0%,0%,0%)" x1="432.691746894" x2="431.509738654" y1="327.854681847" y2="325.772259509" /><line stroke="rgb(0%,0%,0%)" x1="431.509738654" x2="428.3002358" y1="325.772259509" y2="320.728521812" /><line stroke="rgb(0%,0%,0%)" x1="421.945732625" x2="425.230795998" y1="313.445654757" y2="316.913664641" /><line stroke="rgb(0%,0%,0%)" x1="449.200601369" x2="434.274818885" y1="338.700666934" y2="329.172612497" /><line stroke="rgb(0%,0%,0%)" x1="433.058402084" x2="434.274818885" y1="328.131025258" y2="329.172612497" /><line stroke="rgb(0%,0%,0%)" x1="462.511880672" x2="461.204887402" y1="354.733279794" y2="353.249389564" /><line stroke="rgb(0%,0%,0%)" x1="461.204887402" x2="459.84487194" y1="353.249389564" y2="351.601236062" /><line stroke="rgb(0%,0%,0%)" x1="473.717592858" x2="474.600960876" y1="566.884190053" y2="563.488718839" /><line stroke="rgb(0%,0%,0%)" x1="463.496602146" x2="462.511880672" y1="355.570796901" y2="354.733279794" /><line stroke="rgb(0%,0%,0%)" x1="384.840457196" x2="381.36922853" y1="646.664958807" y2="647.62693217" /><line stroke="rgb(0%,0%,0%)" x1="384.840457196" x2="396.708663909" y1="646.664958807" y2="639.047689642" /><line stroke="rgb(0%,0%,0%)" x1="396.708663909" x2="397.044964102" y1="639.047689642" y2="638.836111963" /><line stroke="rgb(0%,0%,0%)" x1="397.044964102" x2="398.092643139" y1="638.836111963" y2="637.284699757" /><line stroke="rgb(0%,0%,0%)" x1="398.092643139" x2="400.290372178" y1="637.284699757" y2="635.153021514" /><line stroke="rgb(0%,0%,0%)" x1="400.290372178" x2="407.364548429" y1="635.153021514" y2="629.516854149" /><line stroke="rgb(0%,0%,0%)" x1="407.364548429" x2="409.26332774" y1="629.516854149" y2="627.989913174" /><line stroke="rgb(0%,0%,0%)" x1="409.26332774" x2="412.91858211" y1="627.989913174" y2="625.270916742" /><line stroke="rgb(0%,0%,0%)" x1="412.91858211" x2="416.524909309" y1="625.270916742" y2="623.308563015" /><line stroke="rgb(0%,0%,0%)" x1="416.524909309" x2="416.971961297" y1="623.308563015" y2="623.090135905" /><line stroke="rgb(0%,0%,0%)" x1="421.945732625" x2="414.632596893" y1="313.445654757" y2="309.241415253" /><line stroke="rgb(0%,0%,0%)" x1="412.565693977" x2="408.958179002" y1="307.857814038" y2="305.216513932" /><line stroke="rgb(0%,0%,0%)" x1="414.08743788" x2="412.565693977" y1="308.842482327" y2="307.857814038" /><line stroke="rgb(0%,0%,0%)" x1="428.3002358" x2="427.003134478" y1="320.728521812" y2="319.265469636" /><line stroke="rgb(0%,0%,0%)" x1="427.003134478" x2="426.305803893" y1="319.265469636" y2="318.395421457" /><line stroke="rgb(0%,0%,0%)" x1="426.305803893" x2="425.230795998" y1="318.395421457" y2="316.913664641" /><line stroke="rgb(0%,0%,0%)" x1="348.808098917" x2="347.292072554" y1="842.765752938" y2="832.563433823" /><line stroke="rgb(0%,0%,0%)" x1="347.292072554" x2="347.534183246" y1="832.563433823" y2="831.117854668" /><line stroke="rgb(0%,0%,0%)" x1="348.145132187" x2="347.524854801" y1="817.825079097" y2="816.105542397" /><line stroke="rgb(0%,0%,0%)" x1="361.269998654" x2="360.843029976" y1="655.628605588" y2="655.794968774" /><line stroke="rgb(0%,0%,0%)" x1="361.269998654" x2="361.506321911" y1="655.628605588" y2="655.498925786" /><line stroke="rgb(0%,0%,0%)" x1="369.670569448" x2="371.145790141" y1="649.430032414" y2="648.57245479" /><line stroke="rgb(0%,0%,0%)" x1="361.506321911" x2="369.670569448" y1="655.498925786" y2="649.430032414" /><line stroke="rgb(0%,0%,0%)" x1="371.145790141" x2="372.841104691" y1="648.57245479" y2="648.576157221" /><line stroke="rgb(0%,0%,0%)" x1="372.841104691" x2="381.36922853" y1="648.576157221" y2="647.62693217" /><line stroke="rgb(0%,0%,0%)" x1="328.023359577" x2="327.937295817" y1="889.294590525" y2="889.336573241" /><line stroke="rgb(0%,0%,0%)" x1="320.295838556" x2="320.298554507" y1="855.610096486" y2="854.46924492" /><line stroke="rgb(0%,0%,0%)" x1="320.295838556" x2="319.968423621" y1="855.610096486" y2="860.19833663" /><line stroke="rgb(0%,0%,0%)" x1="320.298554507" x2="320.066872262" y1="854.46924492" y2="853.191013398" /><line stroke="rgb(0%,0%,0%)" x1="319.376911362" x2="324.314501983" y1="667.012992327" y2="666.011474264" /><line stroke="rgb(0%,0%,0%)" x1="328.023359577" x2="328.119009911" y1="889.294590525" y2="889.213152345" /><line stroke="rgb(0%,0%,0%)" x1="339.665509491" x2="337.331075554" y1="875.367538209" y2="878.167215133" /><line stroke="rgb(0%,0%,0%)" x1="342.609225627" x2="339.532809734" y1="807.636993507" y2="804.854391633" /><line stroke="rgb(0%,0%,0%)" x1="342.934451013" x2="340.51618613" y1="661.333247905" y2="662.058427381" /><line stroke="rgb(0%,0%,0%)" x1="337.584407664" x2="340.51618613" y1="663.224006185" y2="662.058427381" /><line stroke="rgb(0%,0%,0%)" x1="339.904950832" x2="339.665509491" y1="873.888640133" y2="875.367538209" /><line stroke="rgb(0%,0%,0%)" x1="339.904950832" x2="344.993736326" y1="873.888640133" y2="861.607714783" /><line stroke="rgb(0%,0%,0%)" x1="344.993736326" x2="346.767636279" y1="861.607714783" y2="858.023864047" /><line stroke="rgb(0%,0%,0%)" x1="348.808098917" x2="348.618789063" y1="842.765752938" y2="847.790603517" /><line stroke="rgb(0%,0%,0%)" x1="347.373087962" x2="348.618789063" y1="855.211046522" y2="847.790603517" /><line stroke="rgb(0%,0%,0%)" x1="346.767636279" x2="347.373087962" y1="858.023864047" y2="855.211046522" /><line stroke="rgb(0%,0%,0%)" x1="347.534183246" x2="347.22005921" y1="831.117854668" y2="826.954183578" /><line stroke="rgb(0%,0%,0%)" x1="347.22005921" x2="348.883110056" y1="826.954183578" y2="823.75033385" /><line stroke="rgb(0%,0%,0%)" x1="348.883110056" x2="349.115017635" y1="823.75033385" y2="820.982553708" /><line stroke="rgb(0%,0%,0%)" x1="348.67559179" x2="349.115017635" y1="819.07626303" y2="820.982553708" /><line stroke="rgb(0%,0%,0%)" x1="348.145132187" x2="348.67559179" y1="817.825079097" y2="819.07626303" /><line stroke="rgb(0%,0%,0%)" x1="347.524854801" x2="342.609225627" y1="816.105542397" y2="807.636993507" /><line stroke="rgb(0%,0%,0%)" x1="342.934451013" x2="349.575651717" y1="661.333247905" y2="659.99426753" /><line stroke="rgb(0%,0%,0%)" x1="349.575651717" x2="351.047178369" y1="659.99426753" y2="659.049995267" /><line stroke="rgb(0%,0%,0%)" x1="360.843029976" x2="359.641924175" y1="655.794968774" y2="656.163311619" /><line stroke="rgb(0%,0%,0%)" x1="351.047178369" x2="359.641924175" y1="659.049995267" y2="656.163311619" /><line stroke="rgb(0%,0%,0%)" x1="273.254147978" x2="274.215241512" y1="670.20514523" y2="670.608740603" /><line stroke="rgb(0%,0%,0%)" x1="273.254147978" x2="271.62668879" y1="670.20514523" y2="670.310319462" /><line stroke="rgb(0%,0%,0%)" x1="306.926855712" x2="305.718829625" y1="830.037871354" y2="829.988363469" /><line stroke="rgb(0%,0%,0%)" x1="294.583487309" x2="295.698459867" y1="821.459133656" y2="825.030687009" /><line stroke="rgb(0%,0%,0%)" x1="294.583487309" x2="294.789881869" y1="821.459133656" y2="819.80585258" /><line stroke="rgb(0%,0%,0%)" x1="293.555881851" x2="294.789881869" y1="816.914836065" y2="819.80585258" /><line stroke="rgb(0%,0%,0%)" x1="295.724106734" x2="295.616635807" y1="812.844310462" y2="813.140251839" /><line stroke="rgb(0%,0%,0%)" x1="295.616635807" x2="293.555881851" y1="813.140251839" y2="816.914836065" /><line stroke="rgb(0%,0%,0%)" x1="295.724106734" x2="296.099943075" y1="812.844310462" y2="812.606194247" /><line stroke="rgb(0%,0%,0%)" x1="292.854632555" x2="297.441021388" y1="670.003394435" y2="669.736600527" /><line stroke="rgb(0%,0%,0%)" x1="302.835629811" x2="305.245882364" y1="668.580491948" y2="668.859812481" /><line stroke="rgb(0%,0%,0%)" x1="292.854632555" x2="281.407380221" y1="670.003394435" y2="670.703498734" /><line stroke="rgb(0%,0%,0%)" x1="310.644635591" x2="310.457835436" y1="888.347478048" y2="886.420654831" /><line stroke="rgb(0%,0%,0%)" x1="306.926855712" x2="307.281909657" y1="830.037871354" y2="830.933749883" /><line stroke="rgb(0%,0%,0%)" x1="313.887714998" x2="313.267044739" y1="846.165362927" y2="845.15303969" /><line stroke="rgb(0%,0%,0%)" x1="308.838921355" x2="309.442708549" y1="837.008518052" y2="840.457957196" /><line stroke="rgb(0%,0%,0%)" x1="307.281909657" x2="308.838921355" y1="830.933749883" y2="837.008518052" /><line stroke="rgb(0%,0%,0%)" x1="309.442708549" x2="313.267044739" y1="840.457957196" y2="845.15303969" /><line stroke="rgb(0%,0%,0%)" x1="299.721671305" x2="305.718829625" y1="830.778335295" y2="829.988363469" /><line stroke="rgb(0%,0%,0%)" x1="304.785424658" x2="300.579680124" y1="804.571367119" y2="809.225841602" /><line stroke="rgb(0%,0%,0%)" x1="313.198167475" x2="309.049611391" y1="800.836230934" y2="802.329393161" /><line stroke="rgb(0%,0%,0%)" x1="319.376911362" x2="308.364666848" y1="667.012992327" y2="668.523663007" /><line stroke="rgb(0%,0%,0%)" x1="320.557466902" x2="327.937295817" y1="895.090458392" y2="889.336573241" /><line stroke="rgb(0%,0%,0%)" x1="318.116357317" x2="320.557466902" y1="895.491448677" y2="895.090458392" /><line stroke="rgb(0%,0%,0%)" x1="315.312679873" x2="318.116357317" y1="895.975457238" y2="895.491448677" /><line stroke="rgb(0%,0%,0%)" x1="315.312679873" x2="313.228311827" y1="895.975457238" y2="894.04247239" /><line stroke="rgb(0%,0%,0%)" x1="319.968423621" x2="319.425355446" y1="860.19833663" y2="864.917090233" /><line stroke="rgb(0%,0%,0%)" x1="319.425355446" x2="318.74787423" y1="864.917090233" y2="866.617012533" /><line stroke="rgb(0%,0%,0%)" x1="314.582079447" x2="317.354366238" y1="846.589055976" y2="849.177292183" /><line stroke="rgb(0%,0%,0%)" x1="313.887714998" x2="314.582079447" y1="846.165362927" y2="846.589055976" /><line stroke="rgb(0%,0%,0%)" x1="317.354366238" x2="320.066872262" y1="849.177292183" y2="853.191013398" /><line stroke="rgb(0%,0%,0%)" x1="325.747260164" x2="320.966599925" y1="800.010314155" y2="799.851474967" /><line stroke="rgb(0%,0%,0%)" x1="318.17313864" x2="314.653522838" y1="799.785406994" y2="800.796212065" /><line stroke="rgb(0%,0%,0%)" x1="314.653522838" x2="313.198167475" y1="800.796212065" y2="800.836230934" /><line stroke="rgb(0%,0%,0%)" x1="318.17313864" x2="320.966599925" y1="799.785406994" y2="799.851474967" /><line stroke="rgb(0%,0%,0%)" x1="324.314501983" x2="326.353661495" y1="666.011474264" y2="665.999389092" /><line stroke="rgb(0%,0%,0%)" x1="328.119009911" x2="333.251635377" y1="889.213152345" y2="885.079333164" /><line stroke="rgb(0%,0%,0%)" x1="333.251635377" x2="334.566017763" y1="885.079333164" y2="882.595681989" /><line stroke="rgb(0%,0%,0%)" x1="334.566017763" x2="337.331075554" y1="882.595681989" y2="878.167215133" /><line stroke="rgb(0%,0%,0%)" x1="337.022597531" x2="336.285649316" y1="803.278658628" y2="802.613183611" /><line stroke="rgb(0%,0%,0%)" x1="336.285649316" x2="334.674644311" y1="802.613183611" y2="801.930261776" /><line stroke="rgb(0%,0%,0%)" x1="325.747260164" x2="334.674644311" y1="800.010314155" y2="801.930261776" /><line stroke="rgb(0%,0%,0%)" x1="339.532809734" x2="337.022597531" y1="804.854391633" y2="803.278658628" /><line stroke="rgb(0%,0%,0%)" x1="326.353661495" x2="328.0600003" y1="665.999389092" y2="665.899103949" /><line stroke="rgb(0%,0%,0%)" x1="328.0600003" x2="335.965754169" y1="665.899103949" y2="663.329311573" /><line stroke="rgb(0%,0%,0%)" x1="335.965754169" x2="337.584407664" y1="663.329311573" y2="663.224006185" /><line stroke="rgb(0%,0%,0%)" x1="255.191267687" x2="253.688798856" y1="666.990909298" y2="666.403222645" /><line stroke="rgb(0%,0%,0%)" x1="244.818326507" x2="242.274354725" y1="663.391231127" y2="662.290320669" /><line stroke="rgb(0%,0%,0%)" x1="244.818326507" x2="253.688798856" y1="663.391231127" y2="666.403222645" /><line stroke="rgb(0%,0%,0%)" x1="265.668350508" x2="271.62668879" y1="669.423559238" y2="670.310319462" /><line stroke="rgb(0%,0%,0%)" x1="255.191267687" x2="258.021533047" y1="666.990909298" y2="667.944672839" /><line stroke="rgb(0%,0%,0%)" x1="274.215241512" x2="278.473713657" y1="670.608740603" y2="670.869320211" /><line stroke="rgb(0%,0%,0%)" x1="298.272528345" x2="299.721671305" y1="830.048623025" y2="830.778335295" /><line stroke="rgb(0%,0%,0%)" x1="295.698459867" x2="298.272528345" y1="825.030687009" y2="830.048623025" /><line stroke="rgb(0%,0%,0%)" x1="299.176904598" x2="296.099943075" y1="809.949556683" y2="812.606194247" /><line stroke="rgb(0%,0%,0%)" x1="279.653904567" x2="281.407380221" y1="670.783258241" y2="670.703498734" /><line stroke="rgb(0%,0%,0%)" x1="297.441021388" x2="302.835629811" y1="669.736600527" y2="668.580491948" /><line stroke="rgb(0%,0%,0%)" x1="300.579680124" x2="299.176904598" y1="809.225841602" y2="809.949556683" /><line stroke="rgb(0%,0%,0%)" x1="309.049611391" x2="304.785424658" y1="802.329393161" y2="804.571367119" /><line stroke="rgb(0%,0%,0%)" x1="305.245882364" x2="305.558659938" y1="668.859812481" y2="668.729959614" /><line stroke="rgb(0%,0%,0%)" x1="305.558659938" x2="306.050555738" y1="668.729959614" y2="668.885015066" /><line stroke="rgb(0%,0%,0%)" x1="310.937283553" x2="311.303705267" y1="891.152723463" y2="891.829522939" /><line stroke="rgb(0%,0%,0%)" x1="312.838895224" x2="313.228311827" y1="893.838276149" y2="894.04247239" /><line stroke="rgb(0%,0%,0%)" x1="311.303705267" x2="312.838895224" y1="891.829522939" y2="893.838276149" /><line stroke="rgb(0%,0%,0%)" x1="310.644635591" x2="310.937283553" y1="888.347478048" y2="891.152723463" /><line stroke="rgb(0%,0%,0%)" x1="306.050555738" x2="308.364666848" y1="668.885015066" y2="668.523663007" /><line stroke="rgb(0%,0%,0%)" x1="208.514418419" x2="207.0107622" y1="654.167984017" y2="653.750281025" /><line stroke="rgb(0%,0%,0%)" x1="208.514418419" x2="209.060177779" y1="654.167984017" y2="654.193361707" /><line stroke="rgb(0%,0%,0%)" x1="224.233565068" x2="226.101737769" y1="657.642150355" y2="657.878634272" /><line stroke="rgb(0%,0%,0%)" x1="209.060177779" x2="224.233565068" y1="654.193361707" y2="657.642150355" /><line stroke="rgb(0%,0%,0%)" x1="227.411653303" x2="230.185732138" y1="658.208186642" y2="659.076022696" /><line stroke="rgb(0%,0%,0%)" x1="226.101737769" x2="227.411653303" y1="657.878634272" y2="658.208186642" /><line stroke="rgb(0%,0%,0%)" x1="230.185732138" x2="235.504276973" y1="659.076022696" y2="659.761891592" /><line stroke="rgb(0%,0%,0%)" x1="258.021533047" x2="265.668350508" y1="667.944672839" y2="669.423559238" /><line stroke="rgb(0%,0%,0%)" x1="278.473713657" x2="279.260307603" y1="670.869320211" y2="670.826024984" /><line stroke="rgb(0%,0%,0%)" x1="279.260307603" x2="279.556092833" y1="670.826024984" y2="670.762872022" /><line stroke="rgb(0%,0%,0%)" x1="279.556092833" x2="279.653904567" y1="670.762872022" y2="670.783258241" /><line stroke="rgb(0%,0%,0%)" x1="181.903126643" x2="186.708914343" y1="640.713760067" y2="643.616718711" /><line stroke="rgb(0%,0%,0%)" x1="190.501466689" x2="186.708914343" y1="645.106534998" y2="643.616718711" /><line stroke="rgb(0%,0%,0%)" x1="190.501466689" x2="207.0107622" y1="645.106534998" y2="653.750281025" /><line stroke="rgb(0%,0%,0%)" x1="235.504276973" x2="242.274354725" y1="659.761891592" y2="662.290320669" /><line stroke="rgb(0%,0%,0%)" x1="147.149924036" x2="147.928631948" y1="614.954593098" y2="615.049183378" /><line stroke="rgb(0%,0%,0%)" x1="167.959227106" x2="167.338247741" y1="625.332743292" y2="624.47865394" /><line stroke="rgb(0%,0%,0%)" x1="166.892716049" x2="167.338247741" y1="624.217265743" y2="624.47865394" /><line stroke="rgb(0%,0%,0%)" x1="167.959227106" x2="170.568510032" y1="625.332743292" y2="630.401436963" /><line stroke="rgb(0%,0%,0%)" x1="155.114043867" x2="166.892716049" y1="618.267055838" y2="624.217265743" /><line stroke="rgb(0%,0%,0%)" x1="181.903126643" x2="179.52547027" y1="640.713760067" y2="638.636810048" /><line stroke="rgb(0%,0%,0%)" x1="170.568510032" x2="179.52547027" y1="630.401436963" y2="638.636810048" /><line stroke="rgb(0%,0%,0%)" x1="129.693152442" x2="128.686649107" y1="609.407302028" y2="608.684910021" /><line stroke="rgb(0%,0%,0%)" x1="129.693152442" x2="132.546306959" y1="609.407302028" y2="611.145020007" /><line stroke="rgb(0%,0%,0%)" x1="128.686649107" x2="119.734501181" y1="608.684910021" y2="600.414162519" /><line stroke="rgb(0%,0%,0%)" x1="142.753487851" x2="140.189464657" y1="614.038066568" y2="613.271176204" /><line stroke="rgb(0%,0%,0%)" x1="142.753487851" x2="147.149924036" y1="614.038066568" y2="614.954593098" /><line stroke="rgb(0%,0%,0%)" x1="140.189464657" x2="136.359325211" y1="613.271176204" y2="612.782297898" /><line stroke="rgb(0%,0%,0%)" x1="135.017902668" x2="136.359325211" y1="612.305735824" y2="612.782297898" /><line stroke="rgb(0%,0%,0%)" x1="132.546306959" x2="135.017902668" y1="611.145020007" y2="612.305735824" /><line stroke="rgb(0%,0%,0%)" x1="152.530690023" x2="155.114043867" y1="616.755433172" y2="618.267055838" /><line stroke="rgb(0%,0%,0%)" x1="147.928631948" x2="152.530690023" y1="615.049183378" y2="616.755433172" /><line stroke="rgb(0%,0%,0%)" x1="76.5975055897" x2="77.6904828506" y1="539.15086605" y2="543.036792526" /><line stroke="rgb(0%,0%,0%)" x1="76.5975055897" x2="75.0570130447" y1="539.15086605" y2="536.949741475" /><line stroke="rgb(0%,0%,0%)" x1="66.3565610577" x2="67.8579320569" y1="529.028125034" y2="530.337663043" /><line stroke="rgb(0%,0%,0%)" x1="86.1539245993" x2="97.4936818018" y1="564.587378879" y2="576.6505432" /><line stroke="rgb(0%,0%,0%)" x1="86.1539245993" x2="80.7787288049" y1="564.587378879" y2="554.047881278" /><line stroke="rgb(0%,0%,0%)" x1="97.4936818018" x2="97.9668880233" y1="576.6505432" y2="577.214436514" /><line stroke="rgb(0%,0%,0%)" x1="99.2078126921" x2="109.706006248" y1="579.601679048" y2="591.515458145" /><line stroke="rgb(0%,0%,0%)" x1="109.706006248" x2="110.517110156" y1="591.515458145" y2="591.975100264" /><line stroke="rgb(0%,0%,0%)" x1="97.9668880233" x2="99.2078126921" y1="577.214436514" y2="579.601679048" /><line stroke="rgb(0%,0%,0%)" x1="110.517110156" x2="119.734501181" y1="591.975100264" y2="600.414162519" /><line stroke="rgb(0%,0%,0%)" x1="34.3623375821" x2="33.1559693761" y1="491.356410481" y2="490.089283812" /><line stroke="rgb(0%,0%,0%)" x1="36.7227530061" x2="42.6631214086" y1="493.908524062" y2="499.358752287" /><line stroke="rgb(0%,0%,0%)" x1="34.3623375821" x2="36.7227530061" y1="491.356410481" y2="493.908524062" /><line stroke="rgb(0%,0%,0%)" x1="43.9339308053" x2="42.2091952669" y1="464.755702149" y2="465.325576038" /><line stroke="rgb(0%,0%,0%)" x1="43.9339308053" x2="44.9764180196" y1="464.755702149" y2="463.21917417" /><line stroke="rgb(0%,0%,0%)" x1="57.3447016287" x2="60.2248185097" y1="512.070046067" y2="515.627819257" /><line stroke="rgb(0%,0%,0%)" x1="53.4877342264" x2="57.3447016287" y1="506.483098532" y2="512.070046067" /><line stroke="rgb(0%,0%,0%)" x1="53.4877342264" x2="47.4699271032" y1="506.483098532" y2="503.257730987" /><line stroke="rgb(0%,0%,0%)" x1="47.7272726405" x2="44.9764180196" y1="462.249902311" y2="463.21917417" /><line stroke="rgb(0%,0%,0%)" x1="48.8576053396" x2="47.7272726405" y1="459.43950716" y2="462.249902311" /><line stroke="rgb(0%,0%,0%)" x1="67.8579320569" x2="70.1404022728" y1="530.337663043" y2="532.107746214" /><line stroke="rgb(0%,0%,0%)" x1="66.3565610577" x2="65.5786132477" y1="529.028125034" y2="527.120707704" /><line stroke="rgb(0%,0%,0%)" x1="64.7313664702" x2="65.5786132477" y1="524.848181892" y2="527.120707704" /><line stroke="rgb(0%,0%,0%)" x1="60.2248185097" x2="61.7818508393" y1="515.627819257" y2="518.631829605" /><line stroke="rgb(0%,0%,0%)" x1="61.7818508393" x2="62.7281544489" y1="518.631829605" y2="522.002991774" /><line stroke="rgb(0%,0%,0%)" x1="79.2760953835" x2="79.582234599" y1="550.048596362" y2="551.48182395" /><line stroke="rgb(0%,0%,0%)" x1="79.582234599" x2="80.7787288049" y1="551.48182395" y2="554.047881278" /><line stroke="rgb(0%,0%,0%)" x1="79.0950622776" x2="79.2760953835" y1="547.082469235" y2="550.048596362" /><line stroke="rgb(0%,0%,0%)" x1="77.6904828506" x2="79.0950622776" y1="543.036792526" y2="547.082469235" /><line stroke="rgb(0%,0%,0%)" x1="70.1404022728" x2="75.0570130447" y1="532.107746214" y2="536.949741475" /><line stroke="rgb(0%,0%,0%)" x1="30.0888017965" x2="33.1559693761" y1="483.51319637" y2="490.089283812" /><line stroke="rgb(0%,0%,0%)" x1="30.0888017965" x2="29.9954227777" y1="483.51319637" y2="483.195696319" /><line stroke="rgb(0%,0%,0%)" x1="29.9954227777" x2="30.1237638063" y1="483.195696319" y2="482.431358024" /><line stroke="rgb(0%,0%,0%)" x1="30.5240885183" x2="30.1237638063" y1="481.963572089" y2="482.431358024" /><line stroke="rgb(0%,0%,0%)" x1="35.4586810214" x2="30.5240885183" y1="473.501892419" y2="481.963572089" /><line stroke="rgb(0%,0%,0%)" x1="42.6631214086" x2="44.7858793135" y1="499.358752287" y2="501.038468948" /><line stroke="rgb(0%,0%,0%)" x1="44.7858793135" x2="47.4699271032" y1="501.038468948" y2="503.257730987" /><line stroke="rgb(0%,0%,0%)" x1="36.8885649048" x2="35.4586810214" y1="473.154878391" y2="473.501892419" /><line stroke="rgb(0%,0%,0%)" x1="40.8511227273" x2="36.8885649048" y1="466.506037744" y2="473.154878391" /><line stroke="rgb(0%,0%,0%)" x1="42.2091952669" x2="40.8511227273" y1="465.325576038" y2="466.506037744" /><line stroke="rgb(0%,0%,0%)" x1="62.7281544489" x2="64.7313664702" y1="522.002991774" y2="524.848181892" /><line stroke="rgb(0%,0%,0%)" x1="452.638844643" x2="454.416092914" y1="593.36271421" y2="591.329164113" /><line stroke="rgb(0%,0%,0%)" x1="462.688927163" x2="462.496122721" y1="580.500493965" y2="580.766881714" /><line stroke="rgb(0%,0%,0%)" x1="462.688927163" x2="463.379766141" y1="580.500493965" y2="579.820316482" /><line stroke="rgb(0%,0%,0%)" x1="421.38590585" x2="425.90486066" y1="619.985633276" y2="617.912172942" /><line stroke="rgb(0%,0%,0%)" x1="427.724812518" x2="425.90486066" y1="616.845233826" y2="617.912172942" /><line stroke="rgb(0%,0%,0%)" x1="427.724812518" x2="428.692245379" y1="616.845233826" y2="615.788981007" /><line stroke="rgb(0%,0%,0%)" x1="428.692245379" x2="433.020821169" y1="615.788981007" y2="612.609758316" /><line stroke="rgb(0%,0%,0%)" x1="433.020821169" x2="433.745231976" y1="612.609758316" y2="611.087457482" /><line stroke="rgb(0%,0%,0%)" x1="433.745231976" x2="437.28930262" y1="611.087457482" y2="606.337950999" /><line stroke="rgb(0%,0%,0%)" x1="437.28930262" x2="438.503201099" y1="606.337950999" y2="604.163385826" /><line stroke="rgb(0%,0%,0%)" x1="443.999779065" x2="438.503201099" y1="599.131940417" y2="604.163385826" /><line stroke="rgb(0%,0%,0%)" x1="443.999779065" x2="452.638844643" y1="599.131940417" y2="593.36271421" /><line stroke="rgb(0%,0%,0%)" x1="454.416092914" x2="462.496122721" y1="591.329164113" y2="580.766881714" /><line stroke="rgb(0%,0%,0%)" x1="463.379766141" x2="470.639755956" y1="579.820316482" y2="570.499746126" /><line stroke="rgb(0%,0%,0%)" x1="470.639755956" x2="471.816303367" y1="570.499746126" y2="569.154553958" /><line stroke="rgb(0%,0%,0%)" x1="419.332661485" x2="416.971961297" y1="621.887314729" y2="623.090135905" /><line stroke="rgb(0%,0%,0%)" x1="419.332661485" x2="421.38590585" y1="621.887314729" y2="619.985633276" /><line stroke="rgb(0%,0%,0%)" x1="310.102773529" x2="309.9778919" y1="885.085649836" y2="885.657338018" /><line stroke="rgb(0%,0%,0%)" x1="309.9778919" x2="310.457835436" y1="885.657338018" y2="886.420654831" /><line stroke="rgb(0%,0%,0%)" x1="315.707611404" x2="318.74787423" y1="871.332232846" y2="866.617012533" /><line stroke="rgb(0%,0%,0%)" x1="315.707611404" x2="312.745461639" y1="871.332232846" y2="877.698326258" /><line stroke="rgb(0%,0%,0%)" x1="312.745461639" x2="310.102773529" y1="877.698326258" y2="885.085649836" /></svg>