<?xml version="1.0" encoding="utf-8" ?>
<svg baseProfile="full" height="100%" version="1.1" viewBox="0.5 0.5 685.793960571 941.299331665" width="100%" xmlns="http://www.w3.org/2000/svg" xmlns:ev="http://www.w3.org/2001/xml-events" xmlns:xlink="http://www.w3.org/1999/xlink"><defs /><line stroke="rgb(0%,0%,0%)" x1="499.426717471" x2="500.331288431" y1="464.002233334" y2="456.923883078" /><line stroke="rgb(0%,0%,0%)" x1="473.738182943" x2="475.411958008" y1="373.447009456" y2="378.663308914" /><line stroke="rgb(0%,0%,0%)" x1="473.738182943" x2="470.949020836" y1="373.447009456" y2="368.794345221" /><line stroke="rgb(0%,0%,0%)" x1="481.52573016" x2="486.11109593" y1="392.718484069" y2="404.815407155" /><line stroke="rgb(0%,0%,0%)" x1="489.101798187" x2="486.11109593" y1="411.653582687" y2="404.815407155" /><line stroke="rgb(0%,0%,0%)" x1="499.60617598" x2="500.371469603" y1="443.651712639" y2="455.22517033" /><line stroke="rgb(0%,0%,0%)" x1="499.60617598" x2="498.882348619" y1="443.651712639" y2="440.140367572" /><line stroke="rgb(0%,0%,0%)" x1="495.189333478" x2="496.707904184" y1="427.882631575" y2="433.129936561" /><line stroke="rgb(0%,0%,0%)" x1="498.882348619" x2="496.707904184" y1="440.140367572" y2="433.129936561" /><line stroke="rgb(0%,0%,0%)" x1="495.189333478" x2="494.425995804" y1="427.882631575" y2="426.406668296" /><line stroke="rgb(0%,0%,0%)" x1="494.425995804" x2="492.323097554" y1="426.406668296" y2="420.296016419" /><line stroke="rgb(0%,0%,0%)" x1="492.174491863" x2="489.914279625" y1="419.70977762" y2="412.636593645" /><line stroke="rgb(0%,0%,0%)" x1="492.323097554" x2="492.174491863" y1="420.296016419" y2="419.70977762" /><line stroke="rgb(0%,0%,0%)" x1="489.914279625" x2="489.101798187" y1="412.636593645" y2="411.653582687" /><line stroke="rgb(0%,0%,0%)" x1="476.689749998" x2="475.411958008" y1="384.716598253" y2="378.663308914" /><line stroke="rgb(0%,0%,0%)" x1="481.52573016" x2="476.689749998" y1="392.718484069" y2="384.716598253" /><line stroke="rgb(0%,0%,0%)" x1="470.949020836" x2="466.413651062" y1="368.794345221" y2="359.878232674" /><line stroke="rgb(0%,0%,0%)" x1="500.331288431" x2="500.371469603" y1="456.923883078" y2="455.22517033" /><line stroke="rgb(0%,0%,0%)" x1="383.620008457" x2="386.75222209" y1="284.618281085" y2="287.681151277" /><line stroke="rgb(0%,0%,0%)" x1="383.620008457" x2="382.67426352" y1="284.618281085" y2="284.036807938" /><line stroke="rgb(0%,0%,0%)" x1="399.405282977" x2="397.942475305" y1="299.100330411" y2="297.83511985" /><line stroke="rgb(0%,0%,0%)" x1="408.394492558" x2="402.197671918" y1="305.096638572" y2="301.240167319" /><line stroke="rgb(0%,0%,0%)" x1="401.049560722" x2="402.197671918" y1="300.233220778" y2="301.240167319" /><line stroke="rgb(0%,0%,0%)" x1="399.405282977" x2="401.049560722" y1="299.100330411" y2="300.233220778" /><line stroke="rgb(0%,0%,0%)" x1="382.67426352" x2="378.441827626" y1="284.036807938" y2="281.344627564" /><line stroke="rgb(0%,0%,0%)" x1="394.342500379" x2="386.75222209" y1="295.10782621" y2="287.681151277" /><line stroke="rgb(0%,0%,0%)" x1="397.942475305" x2="394.342500379" y1="297.83511985" y2="295.10782621" /><line stroke="rgb(0%,0%,0%)" x1="315.454261602" x2="314.290015315" y1="266.406167729" y2="266.201874492" /><line stroke="rgb(0%,0%,0%)" x1="315.454261602" x2="320.745121298" y1="266.406167729" y2="266.995906062" /><line stroke="rgb(0%,0%,0%)" x1="335.604762551" x2="331.342131523" y1="267.916933868" y2="267.695351341" /><line stroke="rgb(0%,0%,0%)" x1="344.016229917" x2="349.069386965" y1="270.136431447" y2="270.961457035" /><line stroke="rgb(0%,0%,0%)" x1="344.016229917" x2="342.439283259" y1="270.136431447" y2="269.846169596" /><line stroke="rgb(0%,0%,0%)" x1="364.995199233" x2="362.949270158" y1="278.053186149" y2="278.816174394" /><line stroke="rgb(0%,0%,0%)" x1="366.252331384" x2="364.995199233" y1="278.412920457" y2="278.053186149" /><line stroke="rgb(0%,0%,0%)" x1="378.441827626" x2="376.743752103" y1="281.344627564" y2="280.321795397" /><line stroke="rgb(0%,0%,0%)" x1="366.252331384" x2="376.743752103" y1="278.412920457" y2="280.321795397" /><line stroke="rgb(0%,0%,0%)" x1="269.20887391" x2="268.854896754" y1="53.5556975331" y2="51.6036877127" /><line stroke="rgb(0%,0%,0%)" x1="268.438770122" x2="268.441458979" y1="32.794962352" y2="32.829312812" /><line stroke="rgb(0%,0%,0%)" x1="297.367031449" x2="301.044104726" y1="262.80922453" y2="261.845121095" /><line stroke="rgb(0%,0%,0%)" x1="297.367031449" x2="296.452444001" y1="262.80922453" y2="262.484358968" /><line stroke="rgb(0%,0%,0%)" x1="314.290015315" x2="311.592956429" y1="266.201874492" y2="264.926197758" /><line stroke="rgb(0%,0%,0%)" x1="329.135563876" x2="327.761638448" y1="267.367220761" y2="267.337180388" /><line stroke="rgb(0%,0%,0%)" x1="327.761638448" x2="321.011506547" y1="267.337180388" y2="266.978036665" /><line stroke="rgb(0%,0%,0%)" x1="321.011506547" x2="320.912356478" y1="266.978036665" y2="266.974639158" /><line stroke="rgb(0%,0%,0%)" x1="331.342131523" x2="329.135563876" y1="267.695351341" y2="267.367220761" /><line stroke="rgb(0%,0%,0%)" x1="320.869046353" x2="320.745121298" y1="266.972449663" y2="266.995906062" /><line stroke="rgb(0%,0%,0%)" x1="342.439283259" x2="335.604762551" y1="269.846169596" y2="267.916933868" /><line stroke="rgb(0%,0%,0%)" x1="351.005340303" x2="349.069386965" y1="271.700548632" y2="270.961457035" /><line stroke="rgb(0%,0%,0%)" x1="362.901112142" x2="362.77927039" y1="278.813646944" y2="278.79293256" /><line stroke="rgb(0%,0%,0%)" x1="351.005340303" x2="362.77927039" y1="271.700548632" y2="278.79293256" /><line stroke="rgb(0%,0%,0%)" x1="362.949270158" x2="362.901112142" y1="278.816174394" y2="278.813646944" /><line stroke="rgb(0%,0%,0%)" x1="247.867911027" x2="249.730492059" y1="259.082513897" y2="258.432920125" /><line stroke="rgb(0%,0%,0%)" x1="247.867911027" x2="245.207290289" y1="259.082513897" y2="258.872241395" /><line stroke="rgb(0%,0%,0%)" x1="263.385869578" x2="266.299030511" y1="76.0960126992" y2="73.3104735072" /><line stroke="rgb(0%,0%,0%)" x1="263.385869578" x2="256.375496223" y1="76.0960126992" y2="80.6188683433" /><line stroke="rgb(0%,0%,0%)" x1="268.406298044" x2="268.348688015" y1="32.6944753022" y2="32.5443905586" /><line stroke="rgb(0%,0%,0%)" x1="256.24515121" x2="259.639689786" y1="14.900942851" y2="17.947697886" /><line stroke="rgb(0%,0%,0%)" x1="278.910678146" x2="284.453262753" y1="260.096771122" y2="261.209368661" /><line stroke="rgb(0%,0%,0%)" x1="269.20887391" x2="269.474145504" y1="53.5556975331" y2="55.3510836714" /><line stroke="rgb(0%,0%,0%)" x1="268.854896754" x2="268.441458979" y1="51.6036877127" y2="32.829312812" /><line stroke="rgb(0%,0%,0%)" x1="268.438770122" x2="268.406298044" y1="32.794962352" y2="32.6944753022" /><line stroke="rgb(0%,0%,0%)" x1="296.452444001" x2="293.164992718" y1="262.484358968" y2="262.599735725" /><line stroke="rgb(0%,0%,0%)" x1="285.993613051" x2="285.322504393" y1="261.329862023" y2="261.629527956" /><line stroke="rgb(0%,0%,0%)" x1="289.758925737" x2="285.993613051" y1="261.455435749" y2="261.329862023" /><line stroke="rgb(0%,0%,0%)" x1="293.164992718" x2="289.758925737" y1="262.599735725" y2="261.455435749" /><line stroke="rgb(0%,0%,0%)" x1="301.578677086" x2="301.044104726" y1="261.942779693" y2="261.845121095" /><line stroke="rgb(0%,0%,0%)" x1="307.502706972" x2="301.578677086" y1="263.89341561" y2="261.942779693" /><line stroke="rgb(0%,0%,0%)" x1="311.592956429" x2="307.502706972" y1="264.926197758" y2="263.89341561" /><line stroke="rgb(0%,0%,0%)" x1="320.912356478" x2="320.869046353" y1="266.974639158" y2="266.972449663" /><line stroke="rgb(0%,0%,0%)" x1="236.201284226" x2="236.017856783" y1="68.706880024" y2="68.4624923621" /><line stroke="rgb(0%,0%,0%)" x1="236.201284226" x2="239.609695656" y1="68.706880024" y2="71.3176175398" /><line stroke="rgb(0%,0%,0%)" x1="236.017856783" x2="235.79245634" y1="68.4624923621" y2="67.9852983885" /><line stroke="rgb(0%,0%,0%)" x1="244.525674806" x2="240.341880585" y1="8.59379221228" y2="6.94722369496" /><line stroke="rgb(0%,0%,0%)" x1="261.184259242" x2="254.956673844" y1="258.93512069" y2="258.712358177" /><line stroke="rgb(0%,0%,0%)" x1="254.956673844" x2="249.730492059" y1="258.712358177" y2="258.432920125" /><line stroke="rgb(0%,0%,0%)" x1="246.73073638" x2="252.237805216" y1="77.5428274816" y2="81.5835312105" /><line stroke="rgb(0%,0%,0%)" x1="246.73073638" x2="244.172263656" y1="77.5428274816" y2="72.8923674944" /><line stroke="rgb(0%,0%,0%)" x1="252.237805216" x2="256.375496223" y1="81.5835312105" y2="80.6188683433" /><line stroke="rgb(0%,0%,0%)" x1="256.24515121" x2="248.027570658" y1="14.900942851" y2="10.2840792003" /><line stroke="rgb(0%,0%,0%)" x1="244.525674806" x2="248.027570658" y1="8.59379221228" y2="10.2840792003" /><line stroke="rgb(0%,0%,0%)" x1="261.184259242" x2="267.156016858" y1="258.93512069" y2="259.097380352" /><line stroke="rgb(0%,0%,0%)" x1="266.299030511" x2="267.052316633" y1="73.3104735072" y2="71.135669464" /><line stroke="rgb(0%,0%,0%)" x1="268.778357807" x2="267.052316633" y1="60.8412644333" y2="71.135669464" /><line stroke="rgb(0%,0%,0%)" x1="268.778357807" x2="269.474145504" y1="60.8412644333" y2="55.3510836714" /><line stroke="rgb(0%,0%,0%)" x1="268.348688015" x2="263.309842269" y1="32.5443905586" y2="22.7562974935" /><line stroke="rgb(0%,0%,0%)" x1="263.309842269" x2="259.639689786" y1="22.7562974935" y2="17.947697886" /><line stroke="rgb(0%,0%,0%)" x1="271.697922714" x2="271.050524572" y1="259.972198031" y2="259.667435577" /><line stroke="rgb(0%,0%,0%)" x1="278.910678146" x2="273.202643422" y1="260.096771122" y2="259.740624442" /><line stroke="rgb(0%,0%,0%)" x1="273.202643422" x2="271.697922714" y1="259.740624442" y2="259.972198031" /><line stroke="rgb(0%,0%,0%)" x1="271.050524572" x2="267.156016858" y1="259.667435577" y2="259.097380352" /><line stroke="rgb(0%,0%,0%)" x1="285.322504393" x2="284.453262753" y1="261.629527956" y2="261.209368661" /><line stroke="rgb(0%,0%,0%)" x1="218.929323828" x2="213.970021583" y1="264.366710733" y2="265.222687402" /><line stroke="rgb(0%,0%,0%)" x1="213.970021583" x2="208.544536537" y1="265.222687402" y2="267.095813278" /><line stroke="rgb(0%,0%,0%)" x1="217.668196088" x2="216.487665003" y1="26.4752686443" y2="17.1031784617" /><line stroke="rgb(0%,0%,0%)" x1="217.938539277" x2="217.072932156" y1="10.2387839497" y2="11.9492157505" /><line stroke="rgb(0%,0%,0%)" x1="217.938539277" x2="217.961939331" y1="10.2387839497" y2="9.85855034197" /><line stroke="rgb(0%,0%,0%)" x1="219.650742012" x2="217.961939331" y1="7.82685557249" y2="9.85855034197" /><line stroke="rgb(0%,0%,0%)" x1="224.218650927" x2="223.080799038" y1="3.95555447557" y2="4.67655237198" /><line stroke="rgb(0%,0%,0%)" x1="224.973605472" x2="224.218650927" y1="3.85440288293" y2="3.95555447557" /><line stroke="rgb(0%,0%,0%)" x1="218.929323828" x2="227.099510094" y1="264.366710733" y2="261.860609237" /><line stroke="rgb(0%,0%,0%)" x1="230.693703846" x2="227.099510094" y1="261.174657532" y2="261.860609237" /><line stroke="rgb(0%,0%,0%)" x1="223.624251798" x2="226.670575464" y1="44.8553811389" y2="49.1739778943" /><line stroke="rgb(0%,0%,0%)" x1="226.670575464" x2="231.869502629" y1="49.1739778943" y2="59.4363920252" /><line stroke="rgb(0%,0%,0%)" x1="218.750423103" x2="223.624251798" y1="32.5641881134" y2="44.8553811389" /><line stroke="rgb(0%,0%,0%)" x1="217.668196088" x2="218.750423103" y1="26.4752686443" y2="32.5641881134" /><line stroke="rgb(0%,0%,0%)" x1="216.713826641" x2="216.487665003" y1="14.7497366569" y2="17.1031784617" /><line stroke="rgb(0%,0%,0%)" x1="217.072932156" x2="216.713826641" y1="11.9492157505" y2="14.7497366569" /><line stroke="rgb(0%,0%,0%)" x1="223.080799038" x2="219.650742012" y1="4.67655237198" y2="7.82685557249" /><line stroke="rgb(0%,0%,0%)" x1="229.584503218" x2="228.506643112" y1="3.51964326103" y2="3.5040092843" /><line stroke="rgb(0%,0%,0%)" x1="224.973605472" x2="228.506643112" y1="3.85440288293" y2="3.5040092843" /><line stroke="rgb(0%,0%,0%)" x1="230.693703846" x2="235.670077406" y1="261.174657532" y2="259.195263854" /><line stroke="rgb(0%,0%,0%)" x1="241.906267122" x2="235.670077406" y1="259.555108325" y2="259.195263854" /><line stroke="rgb(0%,0%,0%)" x1="245.207290289" x2="241.906267122" y1="258.872241395" y2="259.555108325" /><line stroke="rgb(0%,0%,0%)" x1="231.869502629" x2="235.79245634" y1="59.4363920252" y2="67.9852983885" /><line stroke="rgb(0%,0%,0%)" x1="239.609695656" x2="244.172263656" y1="71.3176175398" y2="72.8923674944" /><line stroke="rgb(0%,0%,0%)" x1="240.341880585" x2="235.033843929" y1="6.94722369496" y2="5.39490401025" /><line stroke="rgb(0%,0%,0%)" x1="235.033843929" x2="229.584503218" y1="5.39490401025" y2="3.51964326103" /><line stroke="rgb(0%,0%,0%)" x1="182.251082518" x2="176.99583235" y1="278.542920417" y2="282.494036147" /><line stroke="rgb(0%,0%,0%)" x1="182.251082518" x2="194.644066832" y1="278.542920417" y2="271.143489314" /><line stroke="rgb(0%,0%,0%)" x1="199.2121945" x2="194.644066832" y1="269.141855867" y2="271.143489314" /><line stroke="rgb(0%,0%,0%)" x1="208.544536537" x2="199.2121945" y1="267.095813278" y2="269.141855867" /><line stroke="rgb(0%,0%,0%)" x1="145.787432583" x2="140.52990762" y1="305.913343313" y2="307.428170886" /><line stroke="rgb(0%,0%,0%)" x1="161.047510175" x2="164.126934256" y1="298.252572957" y2="296.897717027" /><line stroke="rgb(0%,0%,0%)" x1="161.047510175" x2="152.810549571" y1="298.252572957" y2="302.513431957" /><line stroke="rgb(0%,0%,0%)" x1="164.206097259" x2="167.839511793" y1="297.559890792" y2="292.380193479" /><line stroke="rgb(0%,0%,0%)" x1="164.206097259" x2="164.126934256" y1="297.559890792" y2="296.897717027" /><line stroke="rgb(0%,0%,0%)" x1="172.33233251" x2="167.839511793" y1="286.552404411" y2="292.380193479" /><line stroke="rgb(0%,0%,0%)" x1="176.99583235" x2="172.33233251" y1="282.494036147" y2="286.552404411" /><line stroke="rgb(0%,0%,0%)" x1="97.3709577721" x2="98.7789265123" y1="344.297638475" y2="342.777958417" /><line stroke="rgb(0%,0%,0%)" x1="109.488029686" x2="109.260901251" y1="330.972428246" y2="331.196952473" /><line stroke="rgb(0%,0%,0%)" x1="109.260901251" x2="98.7789265123" y1="331.196952473" y2="342.777958417" /><line stroke="rgb(0%,0%,0%)" x1="116.671122762" x2="117.060588464" y1="323.752513578" y2="323.190593877" /><line stroke="rgb(0%,0%,0%)" x1="116.671122762" x2="109.488029686" y1="323.752513578" y2="330.972428246" /><line stroke="rgb(0%,0%,0%)" x1="130.097763089" x2="122.485925627" y1="312.364763066" y2="317.083218375" /><line stroke="rgb(0%,0%,0%)" x1="130.097763089" x2="135.261669662" y1="312.364763066" y2="309.571397852" /><line stroke="rgb(0%,0%,0%)" x1="137.396259245" x2="135.261669662" y1="308.778119094" y2="309.571397852" /><line stroke="rgb(0%,0%,0%)" x1="140.52990762" x2="137.396259245" y1="307.428170886" y2="308.778119094" /><line stroke="rgb(0%,0%,0%)" x1="145.787432583" x2="149.58696942" y1="305.913343313" y2="304.838531258" /><line stroke="rgb(0%,0%,0%)" x1="152.810549571" x2="149.58696942" y1="302.513431957" y2="304.838531258" /><line stroke="rgb(0%,0%,0%)" x1="97.3709577721" x2="93.7248076826" y1="344.297638475" y2="347.891940217" /><line stroke="rgb(0%,0%,0%)" x1="117.060588464" x2="119.603579284" y1="323.190593877" y2="319.557951559" /><line stroke="rgb(0%,0%,0%)" x1="122.485925627" x2="119.603579284" y1="317.083218375" y2="319.557951559" /><line stroke="rgb(0%,0%,0%)" x1="63.6465306031" x2="63.7398883734" y1="398.99563402" y2="398.670153185" /><line stroke="rgb(0%,0%,0%)" x1="63.6465306031" x2="61.7186698701" y1="398.99563402" y2="403.680881719" /><line stroke="rgb(0%,0%,0%)" x1="67.5249473885" x2="66.686508065" y1="391.935619628" y2="393.707216856" /><line stroke="rgb(0%,0%,0%)" x1="66.686508065" x2="63.7398883734" y1="393.707216856" y2="398.670153185" /><line stroke="rgb(0%,0%,0%)" x1="67.5249473885" x2="68.8836882046" y1="391.935619628" y2="390.357791993" /><line stroke="rgb(0%,0%,0%)" x1="72.4654133863" x2="68.8836882046" y1="386.324960247" y2="390.357791993" /><line stroke="rgb(0%,0%,0%)" x1="73.2124087347" x2="72.4654133863" y1="385.918347188" y2="386.324960247" /><line stroke="rgb(0%,0%,0%)" x1="75.454142227" x2="77.8975547375" y1="383.826558312" y2="380.018081908" /><line stroke="rgb(0%,0%,0%)" x1="75.454142227" x2="73.2124087347" y1="383.826558312" y2="385.918347188" /><line stroke="rgb(0%,0%,0%)" x1="80.0280148856" x2="78.4465394316" y1="370.798176906" y2="377.738941219" /><line stroke="rgb(0%,0%,0%)" x1="78.4465394316" x2="77.8975547375" y1="377.738941219" y2="380.018081908" /><line stroke="rgb(0%,0%,0%)" x1="81.0815985399" x2="80.0280148856" y1="365.103073266" y2="370.798176906" /><line stroke="rgb(0%,0%,0%)" x1="87.7153212855" x2="81.8168264109" y1="354.547383079" y2="363.314282291" /><line stroke="rgb(0%,0%,0%)" x1="81.8168264109" x2="81.0815985399" y1="363.314282291" y2="365.103073266" /><line stroke="rgb(0%,0%,0%)" x1="93.7248076826" x2="87.7153212855" y1="347.891940217" y2="354.547383079" /><line stroke="rgb(0%,0%,0%)" x1="41.3741356513" x2="42.852779785" y1="440.108115753" y2="449.340211711" /><line stroke="rgb(0%,0%,0%)" x1="40.7699260804" x2="41.3741356513" y1="438.786113856" y2="440.108115753" /><line stroke="rgb(0%,0%,0%)" x1="40.7699260804" x2="41.7858779278" y1="438.786113856" y2="436.739198141" /><line stroke="rgb(0%,0%,0%)" x1="48.7373933717" x2="49.55088442" y1="455.673782905" y2="457.325703611" /><line stroke="rgb(0%,0%,0%)" x1="49.55088442" x2="50.4025835565" y1="457.325703611" y2="459.427684779" /><line stroke="rgb(0%,0%,0%)" x1="48.7373933717" x2="44.9317910127" y1="455.673782905" y2="453.032467321" /><line stroke="rgb(0%,0%,0%)" x1="42.852779785" x2="44.9317910127" y1="449.340211711" y2="453.032467321" /><line stroke="rgb(0%,0%,0%)" x1="43.4946977477" x2="41.7858779278" y1="431.562081889" y2="436.739198141" /><line stroke="rgb(0%,0%,0%)" x1="50.4957791388" x2="43.4946977477" y1="424.342433197" y2="431.562081889" /><line stroke="rgb(0%,0%,0%)" x1="54.3973443142" x2="50.4957791388" y1="415.636296479" y2="424.342433197" /><line stroke="rgb(0%,0%,0%)" x1="61.7186698701" x2="54.3973443142" y1="403.680881719" y2="415.636296479" /><line stroke="rgb(0%,0%,0%)" x1="500.497856199" x2="501.079725601" y1="483.338582826" y2="479.619737027" /><line stroke="rgb(0%,0%,0%)" x1="501.079725601" x2="501.012585638" y1="479.619737027" y2="476.54025871" /><line stroke="rgb(0%,0%,0%)" x1="454.635834874" x2="457.581576059" y1="347.673269715" y2="350.284926903" /><line stroke="rgb(0%,0%,0%)" x1="454.635834874" x2="450.179647298" y1="347.673269715" y2="341.052586482" /><line stroke="rgb(0%,0%,0%)" x1="471.144695547" x2="472.30502438" y1="568.785391425" y2="567.39982194" /><line stroke="rgb(0%,0%,0%)" x1="466.413651062" x2="463.867036138" y1="359.878232674" y2="357.117445949" /><line stroke="rgb(0%,0%,0%)" x1="476.686607685" x2="478.249278312" y1="558.424929897" y2="554.80441292" /><line stroke="rgb(0%,0%,0%)" x1="473.575746578" x2="476.686607685" y1="562.515446958" y2="558.424929897" /><line stroke="rgb(0%,0%,0%)" x1="478.249278312" x2="481.792319525" y1="554.80441292" y2="542.057648281" /><line stroke="rgb(0%,0%,0%)" x1="482.386825794" x2="481.792319525" y1="541.32586699" y2="542.057648281" /><line stroke="rgb(0%,0%,0%)" x1="482.386825794" x2="482.701386688" y1="541.32586699" y2="539.156706503" /><line stroke="rgb(0%,0%,0%)" x1="482.701386688" x2="485.749152652" y1="539.156706503" y2="532.320072811" /><line stroke="rgb(0%,0%,0%)" x1="485.749152652" x2="487.628112458" y1="532.320072811" y2="527.951974825" /><line stroke="rgb(0%,0%,0%)" x1="491.942098933" x2="487.628112458" y1="514.114622253" y2="527.951974825" /><line stroke="rgb(0%,0%,0%)" x1="491.942098933" x2="493.631273829" y1="514.114622253" y2="507.236641794" /><line stroke="rgb(0%,0%,0%)" x1="493.631273829" x2="495.264943621" y1="507.236641794" y2="503.384985978" /><line stroke="rgb(0%,0%,0%)" x1="495.264943621" x2="497.36840152" y1="503.384985978" y2="495.584998497" /><line stroke="rgb(0%,0%,0%)" x1="500.497856199" x2="497.36840152" y1="483.338582826" y2="495.584998497" /><line stroke="rgb(0%,0%,0%)" x1="501.012585638" x2="499.426717471" y1="476.54025871" y2="464.002233334" /><line stroke="rgb(0%,0%,0%)" x1="431.355930151" x2="432.468884066" y1="326.272804854" y2="328.233569607" /><line stroke="rgb(0%,0%,0%)" x1="431.355930151" x2="429.019048729" y1="326.272804854" y2="322.600392815" /><line stroke="rgb(0%,0%,0%)" x1="421.989565162" x2="423.920233382" y1="314.225135746" y2="316.263323661" /><line stroke="rgb(0%,0%,0%)" x1="447.940503565" x2="433.322926529" y1="338.18475871" y2="328.860441222" /><line stroke="rgb(0%,0%,0%)" x1="433.322926529" x2="432.468884066" y1="328.860441222" y2="328.233569607" /><line stroke="rgb(0%,0%,0%)" x1="462.172106019" x2="459.922472679" y1="355.6758881" y2="353.121774769" /><line stroke="rgb(0%,0%,0%)" x1="459.922472679" x2="457.581576059" y1="353.121774769" y2="350.284926903" /><line stroke="rgb(0%,0%,0%)" x1="450.179647298" x2="448.615711272" y1="341.052586482" y2="339.140907258" /><line stroke="rgb(0%,0%,0%)" x1="448.615711272" x2="447.940503565" y1="339.140907258" y2="338.18475871" /><line stroke="rgb(0%,0%,0%)" x1="472.30502438" x2="473.575746578" y1="567.39982194" y2="562.515446958" /><line stroke="rgb(0%,0%,0%)" x1="463.867036138" x2="462.172106019" y1="357.117445949" y2="355.6758881" /><line stroke="rgb(0%,0%,0%)" x1="383.481293124" x2="382.281045756" y1="646.57814138" y2="646.910763085" /><line stroke="rgb(0%,0%,0%)" x1="383.481293124" x2="388.971859017" y1="646.57814138" y2="643.054178638" /><line stroke="rgb(0%,0%,0%)" x1="397.263246868" x2="396.655161354" y1="636.686415617" y2="637.58687392" /><line stroke="rgb(0%,0%,0%)" x1="397.263246868" x2="398.234901177" y1="636.686415617" y2="635.743963516" /><line stroke="rgb(0%,0%,0%)" x1="398.234901177" x2="406.826652829" y1="635.743963516" y2="628.898707114" /><line stroke="rgb(0%,0%,0%)" x1="406.826652829" x2="407.906106223" y1="628.898707114" y2="628.030643296" /><line stroke="rgb(0%,0%,0%)" x1="407.906106223" x2="409.984113242" y1="628.030643296" y2="626.484897611" /><line stroke="rgb(0%,0%,0%)" x1="409.984113242" x2="415.757051808" y1="626.484897611" y2="623.343599862" /><line stroke="rgb(0%,0%,0%)" x1="415.757051808" x2="416.472683952" y1="623.343599862" y2="622.993945985" /><line stroke="rgb(0%,0%,0%)" x1="417.161114403" x2="414.338877734" y1="311.449313696" y2="309.966957137" /><line stroke="rgb(0%,0%,0%)" x1="421.989565162" x2="417.161114403" y1="314.225135746" y2="311.449313696" /><line stroke="rgb(0%,0%,0%)" x1="414.338877734" x2="412.266439733" y1="309.966957137" y2="308.516268401" /><line stroke="rgb(0%,0%,0%)" x1="412.266439733" x2="410.346685542" y1="308.516268401" y2="306.525968061" /><line stroke="rgb(0%,0%,0%)" x1="408.394492558" x2="410.346685542" y1="305.096638572" y2="306.525968061" /><line stroke="rgb(0%,0%,0%)" x1="429.019048729" x2="426.864362353" y1="322.600392815" y2="320.170036344" /><line stroke="rgb(0%,0%,0%)" x1="426.864362353" x2="425.705988148" y1="320.170036344" y2="318.72475144" /><line stroke="rgb(0%,0%,0%)" x1="425.705988148" x2="423.920233382" y1="318.72475144" y2="316.263323661" /><line stroke="rgb(0%,0%,0%)" x1="348.272994636" x2="347.286157584" y1="844.576422532" y2="837.935359574" /><line stroke="rgb(0%,0%,0%)" x1="370.458234695" x2="370.923388542" y1="648.384668195" y2="648.114264226" /><line stroke="rgb(0%,0%,0%)" x1="370.458234695" x2="366.867746355" y1="648.384668195" y2="651.053657687" /><line stroke="rgb(0%,0%,0%)" x1="370.923388542" x2="371.457940482" y1="648.114264226" y2="648.115431645" /><line stroke="rgb(0%,0%,0%)" x1="371.457940482" x2="382.281045756" y1="648.115431645" y2="646.910763085" /><line stroke="rgb(0%,0%,0%)" x1="388.971859017" x2="395.122058141" y1="643.054178638" y2="639.185939225" /><line stroke="rgb(0%,0%,0%)" x1="395.122058141" x2="396.655161354" y1="639.185939225" y2="637.58687392" /><line stroke="rgb(0%,0%,0%)" x1="319.354760952" x2="323.208358095" y1="665.876068689" y2="665.094422854" /><line stroke="rgb(0%,0%,0%)" x1="338.307892524" x2="338.1141369" y1="877.566376369" y2="877.798746685" /><line stroke="rgb(0%,0%,0%)" x1="337.827747355" x2="342.236120056" y1="662.647568623" y2="660.894944461" /><line stroke="rgb(0%,0%,0%)" x1="338.32776591" x2="338.307892524" y1="877.443629345" y2="877.566376369" /><line stroke="rgb(0%,0%,0%)" x1="338.32776591" x2="344.208766632" y1="877.443629345" y2="863.250826185" /><line stroke="rgb(0%,0%,0%)" x1="344.208766632" x2="345.663791651" y1="863.250826185" y2="860.311205787" /><line stroke="rgb(0%,0%,0%)" x1="348.272994636" x2="348.210611174" y1="844.576422532" y2="846.232266471" /><line stroke="rgb(0%,0%,0%)" x1="346.496773229" x2="348.210611174" y1="856.441326082" y2="846.232266471" /><line stroke="rgb(0%,0%,0%)" x1="345.663791651" x2="346.496773229" y1="860.311205787" y2="856.441326082" /><line stroke="rgb(0%,0%,0%)" x1="346.013288034" x2="346.326393167" y1="828.220367217" y2="832.370532894" /><line stroke="rgb(0%,0%,0%)" x1="346.013288034" x2="347.03124428" y1="828.220367217" y2="826.259285359" /><line stroke="rgb(0%,0%,0%)" x1="347.03124428" x2="347.51262388" y1="826.259285359" y2="820.514096257" /><line stroke="rgb(0%,0%,0%)" x1="341.477466745" x2="347.516941509" y1="810.186364077" y2="820.15177605" /><line stroke="rgb(0%,0%,0%)" x1="350.254545872" x2="342.689421416" y1="659.244775184" y2="660.770034491" /><line stroke="rgb(0%,0%,0%)" x1="350.254545872" x2="351.445005675" y1="659.244775184" y2="658.480862297" /><line stroke="rgb(0%,0%,0%)" x1="351.445005675" x2="360.309502024" y1="658.480862297" y2="655.50357859" /><line stroke="rgb(0%,0%,0%)" x1="360.309502024" x2="361.841681367" y1="655.50357859" y2="654.664048043" /><line stroke="rgb(0%,0%,0%)" x1="361.841681367" x2="366.867746355" y1="654.664048043" y2="651.053657687" /><line stroke="rgb(0%,0%,0%)" x1="273.319751279" x2="273.537548033" y1="670.223066166" y2="670.31452632" /><line stroke="rgb(0%,0%,0%)" x1="273.319751279" x2="272.950947083" y1="670.223066166" y2="670.246900065" /><line stroke="rgb(0%,0%,0%)" x1="294.679495741" x2="295.053630783" y1="823.311735522" y2="824.510189468" /><line stroke="rgb(0%,0%,0%)" x1="294.679495741" x2="294.748752547" y1="823.311735522" y2="822.756968161" /><line stroke="rgb(0%,0%,0%)" x1="294.748752547" x2="293.092146707" y1="822.756968161" y2="818.875870293" /><line stroke="rgb(0%,0%,0%)" x1="293.450198551" x2="295.413586738" y1="669.279872553" y2="669.165660692" /><line stroke="rgb(0%,0%,0%)" x1="303.121003311" x2="304.750864125" y1="667.513898465" y2="667.702780576" /><line stroke="rgb(0%,0%,0%)" x1="293.450198551" x2="288.549741826" y1="669.279872553" y2="669.579580354" /><line stroke="rgb(0%,0%,0%)" x1="308.409546562" x2="309.285067484" y1="838.39072918" y2="843.392584421" /><line stroke="rgb(0%,0%,0%)" x1="308.409546562" x2="306.893495465" y1="838.39072918" y2="832.475771089" /><line stroke="rgb(0%,0%,0%)" x1="309.285067484" x2="313.066874699" y1="843.392584421" y2="848.035454705" /><line stroke="rgb(0%,0%,0%)" x1="301.038439715" x2="305.36570856" y1="833.060219049" y2="832.490212341" /><line stroke="rgb(0%,0%,0%)" x1="304.065371742" x2="300.630896327" y1="807.424647299" y2="811.225562464" /><line stroke="rgb(0%,0%,0%)" x1="312.814129232" x2="309.71292019" y1="803.33914812" y2="804.455345685" /><line stroke="rgb(0%,0%,0%)" x1="319.354760952" x2="310.760133074" y1="665.876068689" y2="667.055088309" /><line stroke="rgb(0%,0%,0%)" x1="320.494270644" x2="325.772011836" y1="897.026454297" y2="892.911519246" /><line stroke="rgb(0%,0%,0%)" x1="318.793228472" x2="320.494270644" y1="897.305876978" y2="897.026454297" /><line stroke="rgb(0%,0%,0%)" x1="315.078222625" x2="318.793228472" y1="897.947211323" y2="897.305876978" /><line stroke="rgb(0%,0%,0%)" x1="315.078222625" x2="314.100192027" y1="897.947211323" y2="897.040212998" /><line stroke="rgb(0%,0%,0%)" x1="318.66749978" x2="319.725105407" y1="865.893339445" y2="856.703737495" /><line stroke="rgb(0%,0%,0%)" x1="318.66749978" x2="316.778029294" y1="865.893339445" y2="870.634360954" /><line stroke="rgb(0%,0%,0%)" x1="315.88619936" x2="313.066874699" y1="850.667605963" y2="848.035454705" /><line stroke="rgb(0%,0%,0%)" x1="315.88619936" x2="319.297493804" y1="850.667605963" y2="855.715331116" /><line stroke="rgb(0%,0%,0%)" x1="324.593473531" x2="321.24094351" y1="802.13071652" y2="802.019327482" /><line stroke="rgb(0%,0%,0%)" x1="319.28197501" x2="314.706203322" y1="801.972996044" y2="803.287120507" /><line stroke="rgb(0%,0%,0%)" x1="314.706203322" x2="312.814129232" y1="803.287120507" y2="803.33914812" /><line stroke="rgb(0%,0%,0%)" x1="319.28197501" x2="321.24094351" y1="801.972996044" y2="802.019327482" /><line stroke="rgb(0%,0%,0%)" x1="323.208358095" x2="326.188750457" y1="665.094422854" y2="665.076759422" /><line stroke="rgb(0%,0%,0%)" x1="332.7800528" x2="328.172516807" y1="886.83670711" y2="890.547618961" /><line stroke="rgb(0%,0%,0%)" x1="332.7800528" x2="334.498677387" y1="886.83670711" y2="883.589201653" /><line stroke="rgb(0%,0%,0%)" x1="334.498677387" x2="338.1141369" y1="883.589201653" y2="877.798746685" /><line stroke="rgb(0%,0%,0%)" x1="336.783987093" x2="334.922743486" y1="806.882641002" y2="805.201910802" /><line stroke="rgb(0%,0%,0%)" x1="334.922743486" x2="330.853973518" y1="805.201910802" y2="803.477116749" /><line stroke="rgb(0%,0%,0%)" x1="324.593473531" x2="330.853973518" y1="802.13071652" y2="803.477116749" /><line stroke="rgb(0%,0%,0%)" x1="336.783987093" x2="341.366458565" y1="806.882641002" y2="809.759191253" /><line stroke="rgb(0%,0%,0%)" x1="326.188750457" x2="328.68269912" y1="665.076759422" y2="664.930184781" /><line stroke="rgb(0%,0%,0%)" x1="328.68269912" x2="335.173810259" y1="664.930184781" y2="662.82022687" /><line stroke="rgb(0%,0%,0%)" x1="335.173810259" x2="337.827747355" y1="662.82022687" y2="662.647568623" /><line stroke="rgb(0%,0%,0%)" x1="346.578805548" x2="346.326393167" y1="833.574364771" y2="832.370532894" /><line stroke="rgb(0%,0%,0%)" x1="347.286157584" x2="346.578805548" y1="837.935359574" y2="833.574364771" /><line stroke="rgb(0%,0%,0%)" x1="347.51262388" x2="347.516941509" y1="820.514096257" y2="820.15177605" /><line stroke="rgb(0%,0%,0%)" x1="341.477466745" x2="341.366458565" y1="810.186364077" y2="809.759191253" /><line stroke="rgb(0%,0%,0%)" x1="342.236120056" x2="342.689421416" y1="660.894944461" y2="660.770034491" /><line stroke="rgb(0%,0%,0%)" x1="254.02851443" x2="253.794481143" y1="666.884784468" y2="666.793242976" /><line stroke="rgb(0%,0%,0%)" x1="243.557109071" x2="241.711644972" y1="663.317117169" y2="662.518487743" /><line stroke="rgb(0%,0%,0%)" x1="243.557109071" x2="253.794481143" y1="663.317117169" y2="666.793242976" /><line stroke="rgb(0%,0%,0%)" x1="264.856995623" x2="272.950947083" y1="669.042303436" y2="670.246900065" /><line stroke="rgb(0%,0%,0%)" x1="254.02851443" x2="254.46937303" y1="666.884784468" y2="667.033348227" /><line stroke="rgb(0%,0%,0%)" x1="273.537548033" x2="274.502575241" y1="670.31452632" y2="670.373577172" /><line stroke="rgb(0%,0%,0%)" x1="298.882738016" x2="301.038439715" y1="831.974720913" y2="833.060219049" /><line stroke="rgb(0%,0%,0%)" x1="295.053630783" x2="298.882738016" y1="824.510189468" y2="831.974720913" /><line stroke="rgb(0%,0%,0%)" x1="293.090097566" x2="293.092146707" y1="818.867695743" y2="818.875870293" /><line stroke="rgb(0%,0%,0%)" x1="295.959501797" x2="293.090097566" y1="815.935353516" y2="818.867695743" /><line stroke="rgb(0%,0%,0%)" x1="298.211603535" x2="295.760077308" y1="812.473715606" y2="814.590354574" /><line stroke="rgb(0%,0%,0%)" x1="295.760077308" x2="295.959501797" y1="814.590354574" y2="815.935353516" /><line stroke="rgb(0%,0%,0%)" x1="280.153639519" x2="288.549741826" y1="669.96148984" y2="669.579580354" /><line stroke="rgb(0%,0%,0%)" x1="295.413586738" x2="303.121003311" y1="669.165660692" y2="667.513898465" /><line stroke="rgb(0%,0%,0%)" x1="305.36570856" x2="306.893495465" y1="832.490212341" y2="832.475771089" /><line stroke="rgb(0%,0%,0%)" x1="300.630896327" x2="298.211603535" y1="811.225562464" y2="812.473715606" /><line stroke="rgb(0%,0%,0%)" x1="309.71292019" x2="304.065371742" y1="804.455345685" y2="807.424647299" /><line stroke="rgb(0%,0%,0%)" x1="304.750864125" x2="305.353523454" y1="667.702780576" y2="667.452580282" /><line stroke="rgb(0%,0%,0%)" x1="305.353523454" x2="306.301307493" y1="667.452580282" y2="667.751340877" /><line stroke="rgb(0%,0%,0%)" x1="310.393164417" x2="311.215063912" y1="893.091030057" y2="894.609120079" /><line stroke="rgb(0%,0%,0%)" x1="312.386120254" x2="314.100192027" y1="896.141414616" y2="897.040212998" /><line stroke="rgb(0%,0%,0%)" x1="309.782054084" x2="309.771229064" y1="887.016645558" y2="887.129323399" /><line stroke="rgb(0%,0%,0%)" x1="311.215063912" x2="312.386120254" y1="894.609120079" y2="896.141414616" /><line stroke="rgb(0%,0%,0%)" x1="310.393164417" x2="309.771229064" y1="893.091030057" y2="887.129323399" /><line stroke="rgb(0%,0%,0%)" x1="319.522572142" x2="319.725105407" y1="856.227491794" y2="856.703737495" /><line stroke="rgb(0%,0%,0%)" x1="319.297493804" x2="319.522572142" y1="855.715331116" y2="856.227491794" /><line stroke="rgb(0%,0%,0%)" x1="306.301307493" x2="310.760133074" y1="667.751340877" y2="667.055088309" /><line stroke="rgb(0%,0%,0%)" x1="325.772011836" x2="327.434559893" y1="892.911519246" y2="891.702643059" /><line stroke="rgb(0%,0%,0%)" x1="327.434559893" x2="328.172516807" y1="891.702643059" y2="890.547618961" /><line stroke="rgb(0%,0%,0%)" x1="224.920242701" x2="225.64547029" y1="658.111501708" y2="658.203305138" /><line stroke="rgb(0%,0%,0%)" x1="224.920242701" x2="210.535689147" y1="658.111501708" y2="654.842008611" /><line stroke="rgb(0%,0%,0%)" x1="226.153981566" x2="227.230883345" y1="658.331237888" y2="658.668133213" /><line stroke="rgb(0%,0%,0%)" x1="225.64547029" x2="226.153981566" y1="658.203305138" y2="658.331237888" /><line stroke="rgb(0%,0%,0%)" x1="227.230883345" x2="233.601880487" y1="658.668133213" y2="659.489724252" /><line stroke="rgb(0%,0%,0%)" x1="254.46937303" x2="264.856995623" y1="667.033348227" y2="669.042303436" /><line stroke="rgb(0%,0%,0%)" x1="274.502575241" x2="278.2689938" y1="670.373577172" y2="670.166268245" /><line stroke="rgb(0%,0%,0%)" x1="278.2689938" x2="279.685291227" y1="670.166268245" y2="669.863875264" /><line stroke="rgb(0%,0%,0%)" x1="279.685291227" x2="280.153639519" y1="669.863875264" y2="669.96148984" /><line stroke="rgb(0%,0%,0%)" x1="185.106902435" x2="187.865506073" y1="642.248348246" y2="643.914695737" /><line stroke="rgb(0%,0%,0%)" x1="190.042495436" x2="187.865506073" y1="644.769875551" y2="643.914695737" /><line stroke="rgb(0%,0%,0%)" x1="190.042495436" x2="206.869580546" y1="644.769875551" y2="653.580006181" /><line stroke="rgb(0%,0%,0%)" x1="208.669179022" x2="210.535689147" y1="654.386828382" y2="654.842008611" /><line stroke="rgb(0%,0%,0%)" x1="208.090998342" x2="208.43319971" y1="654.17354204" y2="654.2916552" /><line stroke="rgb(0%,0%,0%)" x1="208.43319971" x2="208.669179022" y1="654.2916552" y2="654.386828382" /><line stroke="rgb(0%,0%,0%)" x1="233.601880487" x2="241.711644972" y1="659.489724252" y2="662.518487743" /><line stroke="rgb(0%,0%,0%)" x1="172.94174654" x2="170.243211624" y1="631.12589576" y2="625.883824574" /><line stroke="rgb(0%,0%,0%)" x1="156.651677626" x2="168.767308637" y1="619.019315778" y2="625.139746547" /><line stroke="rgb(0%,0%,0%)" x1="185.106902435" x2="183.742087355" y1="642.248348246" y2="641.056143713" /><line stroke="rgb(0%,0%,0%)" x1="172.94174654" x2="183.742087355" y1="631.12589576" y2="641.056143713" /><line stroke="rgb(0%,0%,0%)" x1="170.033521898" x2="170.243211624" y1="625.674034285" y2="625.883824574" /><line stroke="rgb(0%,0%,0%)" x1="206.869580546" x2="208.090998342" y1="653.580006181" y2="654.17354204" /><line stroke="rgb(0%,0%,0%)" x1="143.207592034" x2="142.400939454" y1="614.08480757" y2="613.843540606" /><line stroke="rgb(0%,0%,0%)" x1="143.207592034" x2="145.9323224" y1="614.08480757" y2="614.652833025" /><line stroke="rgb(0%,0%,0%)" x1="142.400939454" x2="141.195961327" y1="613.843540606" y2="613.689737416" /><line stroke="rgb(0%,0%,0%)" x1="136.405982155" x2="141.195961327" y1="611.988019773" y2="613.689737416" /><line stroke="rgb(0%,0%,0%)" x1="136.405982155" x2="131.521565941" y1="611.988019773" y2="609.694190271" /><line stroke="rgb(0%,0%,0%)" x1="130.699796748" x2="131.521565941" y1="609.288437548" y2="609.694190271" /><line stroke="rgb(0%,0%,0%)" x1="145.9323224" x2="147.599428815" y1="614.652833025" y2="614.765837029" /><line stroke="rgb(0%,0%,0%)" x1="147.599428815" x2="148.052457364" y1="614.765837029" y2="614.957428766" /><line stroke="rgb(0%,0%,0%)" x1="153.507272557" x2="156.651677626" y1="617.179399816" y2="619.019315778" /><line stroke="rgb(0%,0%,0%)" x1="153.507272557" x2="148.613035639" y1="617.179399816" y2="615.364822381" /><line stroke="rgb(0%,0%,0%)" x1="148.26130675" x2="148.613035639" y1="615.125540594" y2="615.364822381" /><line stroke="rgb(0%,0%,0%)" x1="148.052457364" x2="148.26130675" y1="614.957428766" y2="615.125540594" /><line stroke="rgb(0%,0%,0%)" x1="168.767308637" x2="169.354470261" y1="625.139746547" y2="625.381783463" /><line stroke="rgb(0%,0%,0%)" x1="169.354470261" x2="170.033521898" y1="625.381783463" y2="625.674034285" /><line stroke="rgb(0%,0%,0%)" x1="78.9624718299" x2="79.1510551365" y1="540.300551884" y2="540.971033229" /><line stroke="rgb(0%,0%,0%)" x1="78.9624718299" x2="78.6966738226" y1="540.300551884" y2="539.920767815" /><line stroke="rgb(0%,0%,0%)" x1="67.1597388586" x2="67.6019612146" y1="529.344983103" y2="529.730701879" /><line stroke="rgb(0%,0%,0%)" x1="87.9765714939" x2="97.3089428925" y1="565.339523687" y2="575.267243273" /><line stroke="rgb(0%,0%,0%)" x1="87.9765714939" x2="83.5529032797" y1="565.339523687" y2="556.665748384" /><line stroke="rgb(0%,0%,0%)" x1="97.3089428925" x2="98.2877170528" y1="575.267243273" y2="576.433593544" /><line stroke="rgb(0%,0%,0%)" x1="100.854430983" x2="109.005882515" y1="581.37133781" y2="590.62193815" /><line stroke="rgb(0%,0%,0%)" x1="109.005882515" x2="111.709956961" y1="590.62193815" y2="592.154302249" /><line stroke="rgb(0%,0%,0%)" x1="98.2877170528" x2="100.854430983" y1="576.433593544" y2="581.37133781" /><line stroke="rgb(0%,0%,0%)" x1="111.709956961" x2="128.670046855" y1="592.154302249" y2="607.682259569" /><line stroke="rgb(0%,0%,0%)" x1="128.670046855" x2="130.699796748" y1="607.682259569" y2="609.288437548" /><line stroke="rgb(0%,0%,0%)" x1="35.280056996" x2="34.76362257" y1="489.184777181" y2="488.642332651" /><line stroke="rgb(0%,0%,0%)" x1="36.290527745" x2="38.8335413382" y1="490.277312036" y2="492.610501414" /><line stroke="rgb(0%,0%,0%)" x1="35.280056996" x2="36.290527745" y1="489.184777181" y2="490.277312036" /><line stroke="rgb(0%,0%,0%)" x1="43.5631432795" x2="43.4770849703" y1="466.063635562" y2="466.092070288" /><line stroke="rgb(0%,0%,0%)" x1="43.5631432795" x2="43.6151597685" y1="466.063635562" y2="465.986968156" /><line stroke="rgb(0%,0%,0%)" x1="56.5442629299" x2="60.389090016" y1="509.454969295" y2="514.204437213" /><line stroke="rgb(0%,0%,0%)" x1="51.3953841337" x2="56.5442629299" y1="501.996644476" y2="509.454969295" /><line stroke="rgb(0%,0%,0%)" x1="51.3953841337" x2="48.4763000885" y1="501.996644476" y2="500.432101322" /><line stroke="rgb(0%,0%,0%)" x1="43.6151597685" x2="43.7956590443" y1="465.986968156" y2="465.923368696" /><line stroke="rgb(0%,0%,0%)" x1="67.6019612146" x2="71.1195422954" y1="529.730701879" y2="532.458628418" /><line stroke="rgb(0%,0%,0%)" x1="67.1597388586" x2="66.9305976846" y1="529.344983103" y2="528.783161551" /><line stroke="rgb(0%,0%,0%)" x1="65.5050149804" x2="66.9305976846" y1="524.959395466" y2="528.783161551" /><line stroke="rgb(0%,0%,0%)" x1="60.389090016" x2="60.5421416115" y1="514.204437213" y2="514.499722396" /><line stroke="rgb(0%,0%,0%)" x1="60.5421416115" x2="62.1343979583" y1="514.499722396" y2="520.172060856" /><line stroke="rgb(0%,0%,0%)" x1="81.4111165717" x2="81.8474737652" y1="550.965345908" y2="553.008204635" /><line stroke="rgb(0%,0%,0%)" x1="81.8474737652" x2="83.5529032797" y1="553.008204635" y2="556.665748384" /><line stroke="rgb(0%,0%,0%)" x1="81.1530800512" x2="81.4111165717" y1="546.737560499" y2="550.965345908" /><line stroke="rgb(0%,0%,0%)" x1="79.1510551365" x2="81.1530800512" y1="540.971033229" y2="546.737560499" /><line stroke="rgb(0%,0%,0%)" x1="71.1195422954" x2="78.6966738226" y1="532.458628418" y2="539.920767815" /><line stroke="rgb(0%,0%,0%)" x1="34.76362257" x2="33.2437642012" y1="488.642332651" y2="485.383716592" /><line stroke="rgb(0%,0%,0%)" x1="35.8637605415" x2="34.6544746163" y1="475.940163835" y2="478.013808239" /><line stroke="rgb(0%,0%,0%)" x1="38.8335413382" x2="43.0919290624" y1="492.610501414" y2="495.980120151" /><line stroke="rgb(0%,0%,0%)" x1="43.0919290624" x2="48.4763000885" y1="495.980120151" y2="500.432101322" /><line stroke="rgb(0%,0%,0%)" x1="34.6544746163" x2="33.2437642012" y1="478.013808239" y2="485.383716592" /><line stroke="rgb(0%,0%,0%)" x1="37.8645752232" x2="35.8637605415" y1="475.454592405" y2="475.940163835" /><line stroke="rgb(0%,0%,0%)" x1="43.4093218704" x2="37.8645752232" y1="466.150971225" y2="475.454592405" /><line stroke="rgb(0%,0%,0%)" x1="43.4770849703" x2="43.4093218704" y1="466.092070288" y2="466.150971225" /><line stroke="rgb(0%,0%,0%)" x1="48.9253500797" x2="43.7956590443" y1="463.46211455" y2="465.923368696" /><line stroke="rgb(0%,0%,0%)" x1="49.3742813257" x2="48.9253500797" y1="461.973515634" y2="463.46211455" /><line stroke="rgb(0%,0%,0%)" x1="49.3742813257" x2="50.4025835565" y1="461.973515634" y2="459.427684779" /><line stroke="rgb(0%,0%,0%)" x1="62.1343979583" x2="65.5050149804" y1="520.172060856" y2="524.959395466" /><line stroke="rgb(0%,0%,0%)" x1="451.904833529" x2="452.314441216" y1="593.802561581" y2="593.333883251" /><line stroke="rgb(0%,0%,0%)" x1="420.680842983" x2="426.604691384" y1="619.601857022" y2="616.883780565" /><line stroke="rgb(0%,0%,0%)" x1="432.114399183" x2="430.255223659" y1="613.044440418" y2="614.409954919" /><line stroke="rgb(0%,0%,0%)" x1="432.114399183" x2="432.194318892" y1="613.044440418" y2="612.876494498" /><line stroke="rgb(0%,0%,0%)" x1="432.194318892" x2="437.048093517" y1="612.876494498" y2="606.371817712" /><line stroke="rgb(0%,0%,0%)" x1="437.048093517" x2="438.71058567" y1="606.371817712" y2="603.393646473" /><line stroke="rgb(0%,0%,0%)" x1="441.860700549" x2="438.71058567" y1="600.510101267" y2="603.393646473" /><line stroke="rgb(0%,0%,0%)" x1="441.860700549" x2="451.904833529" y1="600.510101267" y2="593.802561581" /><line stroke="rgb(0%,0%,0%)" x1="455.065146846" x2="461.036599794" y1="589.738137894" y2="581.613992484" /><line stroke="rgb(0%,0%,0%)" x1="452.314441216" x2="455.065146846" y1="593.333883251" y2="589.738137894" /><line stroke="rgb(0%,0%,0%)" x1="461.036599794" x2="463.179085033" y1="581.613992484" y2="578.804935822" /><line stroke="rgb(0%,0%,0%)" x1="469.671826262" x2="463.179085033" y1="570.469379854" y2="578.804935822" /><line stroke="rgb(0%,0%,0%)" x1="469.671826262" x2="471.144695547" y1="570.469379854" y2="568.785391425" /><line stroke="rgb(0%,0%,0%)" x1="417.685743536" x2="416.472683952" y1="622.375869296" y2="622.993945985" /><line stroke="rgb(0%,0%,0%)" x1="417.685743536" x2="420.680842983" y1="622.375869296" y2="619.601857022" /><line stroke="rgb(0%,0%,0%)" x1="426.604691384" x2="426.932316804" y1="616.883780565" y2="616.638113643" /><line stroke="rgb(0%,0%,0%)" x1="426.932316804" x2="430.255223659" y1="616.638113643" y2="614.409954919" /><line stroke="rgb(0%,0%,0%)" x1="315.912467634" x2="316.778029294" y1="871.976782366" y2="870.634360954" /><line stroke="rgb(0%,0%,0%)" x1="315.912467634" x2="312.669332" y1="871.976782366" y2="878.946755539" /><line stroke="rgb(0%,0%,0%)" x1="309.793727358" x2="309.782054084" y1="886.987832802" y2="887.016645558" /><line stroke="rgb(0%,0%,0%)" x1="309.829970078" x2="309.793727358" y1="886.883857611" y2="886.987832802" /><line stroke="rgb(0%,0%,0%)" x1="312.669332" x2="309.829970078" y1="878.946755539" y2="886.883857611" /></svg>