<?xml version="1.0" encoding="utf-8" ?>
<svg baseProfile="full" height="100%" version="1.1" viewBox="0.5 0.5 685.793960571 941.299331665" width="100%" xmlns="http://www.w3.org/2000/svg" xmlns:ev="http://www.w3.org/2001/xml-events" xmlns:xlink="http://www.w3.org/1999/xlink"><defs /><line stroke="rgb(0%,0%,0%)" x1="498.839447972" x2="499.683814517" y1="464.035185869" y2="457.427940647" /><line stroke="rgb(0%,0%,0%)" x1="472.445495726" x2="473.13498921" y1="373.218417925" y2="375.367215908" /><line stroke="rgb(0%,0%,0%)" x1="472.445495726" x2="471.296530649" y1="373.218417925" y2="371.301803359" /><line stroke="rgb(0%,0%,0%)" x1="480.73017008" x2="484.350906851" y1="392.828055927" y2="402.380134526" /><line stroke="rgb(0%,0%,0%)" x1="488.391529764" x2="484.350906851" y1="411.618930757" y2="402.380134526" /><line stroke="rgb(0%,0%,0%)" x1="499.116441332" x2="499.772375947" y1="443.764255276" y2="453.683887804" /><line stroke="rgb(0%,0%,0%)" x1="499.116441332" x2="498.150450122" y1="443.764255276" y2="439.078153791" /><line stroke="rgb(0%,0%,0%)" x1="494.708414029" x2="495.248523055" y1="427.856005911" y2="429.722311361" /><line stroke="rgb(0%,0%,0%)" x1="498.150450122" x2="495.248523055" y1="439.078153791" y2="429.722311361" /><line stroke="rgb(0%,0%,0%)" x1="494.708414029" x2="494.436918229" y1="427.856005911" y2="427.33105104" /><line stroke="rgb(0%,0%,0%)" x1="494.436918229" x2="493.55397288" y1="427.33105104" y2="424.76536739" /><line stroke="rgb(0%,0%,0%)" x1="493.55397288" x2="492.865277888" y1="424.76536739" y2="421.07994461" /><line stroke="rgb(0%,0%,0%)" x1="489.489242219" x2="491.566332669" y1="412.947039094" y2="419.447155604" /><line stroke="rgb(0%,0%,0%)" x1="489.489242219" x2="488.391529764" y1="412.947039094" y2="411.618930757" /><line stroke="rgb(0%,0%,0%)" x1="474.722398919" x2="473.13498921" y1="382.887258567" y2="375.367215908" /><line stroke="rgb(0%,0%,0%)" x1="480.73017008" x2="474.722398919" y1="392.828055927" y2="382.887258567" /><line stroke="rgb(0%,0%,0%)" x1="471.296530649" x2="465.643385095" y1="371.301803359" y2="360.18824823" /><line stroke="rgb(0%,0%,0%)" x1="499.683814517" x2="499.772375947" y1="457.427940647" y2="453.683887804" /><line stroke="rgb(0%,0%,0%)" x1="492.865277888" x2="491.566332669" y1="421.07994461" y2="419.447155604" /><line stroke="rgb(0%,0%,0%)" x1="393.798751773" x2="382.984998627" y1="295.91190939" y2="285.331239437" /><line stroke="rgb(0%,0%,0%)" x1="393.798751773" x2="397.878398313" y1="295.91190939" y2="299.002595932" /><line stroke="rgb(0%,0%,0%)" x1="400.312261358" x2="399.19724291" y1="300.732754158" y2="299.857827208" /><line stroke="rgb(0%,0%,0%)" x1="407.741888613" x2="400.312261358" y1="305.533891591" y2="300.732754158" /><line stroke="rgb(0%,0%,0%)" x1="315.607285387" x2="315.228621102" y1="267.53916979" y2="267.472724612" /><line stroke="rgb(0%,0%,0%)" x1="315.607285387" x2="317.328106514" y1="267.53916979" y2="267.730978729" /><line stroke="rgb(0%,0%,0%)" x1="335.914086493" x2="332.84763892" y1="268.182216137" y2="268.022814303" /><line stroke="rgb(0%,0%,0%)" x1="344.966844027" x2="346.566079784" y1="270.688596159" y2="270.949702317" /><line stroke="rgb(0%,0%,0%)" x1="344.966844027" x2="344.467768012" y1="270.688596159" y2="270.596733364" /><line stroke="rgb(0%,0%,0%)" x1="365.122408415" x2="363.460438264" y1="278.690166391" y2="279.309964851" /><line stroke="rgb(0%,0%,0%)" x1="367.423681429" x2="365.122408415" y1="279.348686542" y2="278.690166391" /><line stroke="rgb(0%,0%,0%)" x1="382.842165682" x2="382.766921056" y1="285.189532984" y2="285.148129274" /><line stroke="rgb(0%,0%,0%)" x1="375.612339605" x2="382.766921056" y1="280.838582411" y2="285.148129274" /><line stroke="rgb(0%,0%,0%)" x1="367.423681429" x2="375.612339605" y1="279.348686542" y2="280.838582411" /><line stroke="rgb(0%,0%,0%)" x1="382.984998627" x2="382.848964536" y1="285.331239437" y2="285.201775586" /><line stroke="rgb(0%,0%,0%)" x1="382.848964536" x2="382.842165682" y1="285.201775586" y2="285.189532984" /><line stroke="rgb(0%,0%,0%)" x1="398.527398044" x2="397.878398313" y1="299.371396561" y2="299.002595932" /><line stroke="rgb(0%,0%,0%)" x1="399.19724291" x2="398.527398044" y1="299.857827208" y2="299.371396561" /><line stroke="rgb(0%,0%,0%)" x1="297.761083358" x2="299.212325929" y1="263.510857656" y2="263.130351791" /><line stroke="rgb(0%,0%,0%)" x1="297.761083358" x2="297.40012013" y1="263.510857656" y2="263.382641899" /><line stroke="rgb(0%,0%,0%)" x1="315.228621102" x2="314.351418496" y1="267.472724612" y2="267.057818226" /><line stroke="rgb(0%,0%,0%)" x1="329.641709708" x2="327.645529046" y1="267.54607233" y2="267.502426577" /><line stroke="rgb(0%,0%,0%)" x1="327.645529046" x2="323.791802272" y1="267.502426577" y2="267.297387356" /><line stroke="rgb(0%,0%,0%)" x1="323.791802272" x2="321.385978819" y1="267.297387356" y2="267.214948667" /><line stroke="rgb(0%,0%,0%)" x1="332.84763892" x2="329.641709708" y1="268.022814303" y2="267.54607233" /><line stroke="rgb(0%,0%,0%)" x1="320.33508178" x2="317.328106514" y1="267.161821733" y2="267.730978729" /><line stroke="rgb(0%,0%,0%)" x1="344.467768012" x2="335.914086493" y1="270.596733364" y2="268.182216137" /><line stroke="rgb(0%,0%,0%)" x1="351.831355196" x2="346.566079784" y1="272.959833829" y2="270.949702317" /><line stroke="rgb(0%,0%,0%)" x1="363.06197405" x2="362.053843264" y1="279.289052472" y2="279.117659596" /><line stroke="rgb(0%,0%,0%)" x1="351.831355196" x2="362.053843264" y1="272.959833829" y2="279.117659596" /><line stroke="rgb(0%,0%,0%)" x1="363.460438264" x2="363.06197405" y1="279.309964851" y2="279.289052472" /><line stroke="rgb(0%,0%,0%)" x1="248.003709283" x2="248.850991219" y1="259.099285283" y2="258.80378723" /><line stroke="rgb(0%,0%,0%)" x1="248.003709283" x2="246.793401729" y1="259.099285283" y2="259.003633019" /><line stroke="rgb(0%,0%,0%)" x1="260.467767698" x2="261.345198115" y1="71.0006032086" y2="70.161611861" /><line stroke="rgb(0%,0%,0%)" x1="260.467767698" x2="258.356276103" y1="71.0006032086" y2="72.3628661281" /><line stroke="rgb(0%,0%,0%)" x1="279.141533855" x2="283.684738675" y1="260.809086041" y2="261.721071849" /><line stroke="rgb(0%,0%,0%)" x1="297.40012013" x2="293.165269589" y1="263.382641899" y2="263.531268686" /><line stroke="rgb(0%,0%,0%)" x1="287.390109178" x2="285.775732091" y1="262.010923158" y2="262.731780816" /><line stroke="rgb(0%,0%,0%)" x1="288.7776199" x2="287.390109178" y1="262.057196842" y2="262.010923158" /><line stroke="rgb(0%,0%,0%)" x1="293.165269589" x2="288.7776199" y1="263.531268686" y2="262.057196842" /><line stroke="rgb(0%,0%,0%)" x1="302.553357677" x2="299.212325929" y1="263.740709717" y2="263.130351791" /><line stroke="rgb(0%,0%,0%)" x1="306.95723892" x2="302.553357677" y1="265.190798439" y2="263.740709717" /><line stroke="rgb(0%,0%,0%)" x1="314.351418496" x2="306.95723892" y1="267.057818226" y2="265.190798439" /><line stroke="rgb(0%,0%,0%)" x1="321.385978819" x2="320.33508178" y1="267.214948667" y2="267.161821733" /><line stroke="rgb(0%,0%,0%)" x1="238.795064051" x2="236.946235091" y1="67.9620292763" y2="66.5458835949" /><line stroke="rgb(0%,0%,0%)" x1="260.898960487" x2="256.908285618" y1="259.377349267" y2="259.234601684" /><line stroke="rgb(0%,0%,0%)" x1="256.908285618" x2="248.850991219" y1="259.234601684" y2="258.80378723" /><line stroke="rgb(0%,0%,0%)" x1="247.188681872" x2="249.67656443" y1="72.5610224106" y2="74.3864574342" /><line stroke="rgb(0%,0%,0%)" x1="247.188681872" x2="246.032861987" y1="72.5610224106" y2="70.4601228876" /><line stroke="rgb(0%,0%,0%)" x1="249.67656443" x2="258.356276103" y1="74.3864574342" y2="72.3628661281" /><line stroke="rgb(0%,0%,0%)" x1="255.826521493" x2="254.501248453" y1="16.7359178081" y2="15.4300714616" /><line stroke="rgb(0%,0%,0%)" x1="254.501248453" x2="243.289219458" y1="15.4300714616" y2="8.87997482951" /><line stroke="rgb(0%,0%,0%)" x1="260.898960487" x2="264.725699347" y1="259.377349267" y2="259.481326252" /><line stroke="rgb(0%,0%,0%)" x1="261.345198115" x2="263.320388086" y1="70.161611861" y2="64.4590627117" /><line stroke="rgb(0%,0%,0%)" x1="264.43425517" x2="263.320388086" y1="57.8157687457" y2="64.4590627117" /><line stroke="rgb(0%,0%,0%)" x1="264.43425517" x2="265.125683054" y1="57.8157687457" y2="52.3599895195" /><line stroke="rgb(0%,0%,0%)" x1="265.125683054" x2="265.262801061" y1="52.3599895195" y2="48.2135165014" /><line stroke="rgb(0%,0%,0%)" x1="264.463097201" x2="265.262801061" y1="31.8663563024" y2="48.2135165014" /><line stroke="rgb(0%,0%,0%)" x1="264.463097201" x2="262.704909458" y1="31.8663563024" y2="27.4786308109" /><line stroke="rgb(0%,0%,0%)" x1="259.967895044" x2="262.704909458" y1="22.161906871" y2="27.4786308109" /><line stroke="rgb(0%,0%,0%)" x1="259.967895044" x2="255.826521493" y1="22.161906871" y2="16.7359178081" /><line stroke="rgb(0%,0%,0%)" x1="272.039627257" x2="270.997108215" y1="260.890063826" y2="260.399298344" /><line stroke="rgb(0%,0%,0%)" x1="279.141533855" x2="274.46271112" y1="260.809086041" y2="260.517155934" /><line stroke="rgb(0%,0%,0%)" x1="274.46271112" x2="272.039627257" y1="260.517155934" y2="260.890063826" /><line stroke="rgb(0%,0%,0%)" x1="270.997108215" x2="264.725699347" y1="260.399298344" y2="259.481326252" /><line stroke="rgb(0%,0%,0%)" x1="285.775732091" x2="283.684738675" y1="262.731780816" y2="261.721071849" /><line stroke="rgb(0%,0%,0%)" x1="218.5086212" x2="215.658295749" y1="264.593213979" y2="265.085180785" /><line stroke="rgb(0%,0%,0%)" x1="215.658295749" x2="208.554902974" y1="265.085180785" y2="267.537597242" /><line stroke="rgb(0%,0%,0%)" x1="219.677960234" x2="219.227943229" y1="29.5809338832" y2="26.0083045743" /><line stroke="rgb(0%,0%,0%)" x1="221.977543302" x2="220.724494617" y1="9.59446747729" y2="11.1019333815" /><line stroke="rgb(0%,0%,0%)" x1="218.5086212" x2="223.204380545" y1="264.593213979" y2="263.15284908" /><line stroke="rgb(0%,0%,0%)" x1="232.558671176" x2="223.204380545" y1="261.367583161" y2="263.15284908" /><line stroke="rgb(0%,0%,0%)" x1="223.486963068" x2="230.683606468" y1="44.4559124609" y2="54.6581773045" /><line stroke="rgb(0%,0%,0%)" x1="230.683606468" x2="231.478614757" y1="54.6581773045" y2="56.2274826712" /><line stroke="rgb(0%,0%,0%)" x1="221.375269524" x2="223.486963068" y1="39.1304825835" y2="44.4559124609" /><line stroke="rgb(0%,0%,0%)" x1="219.677960234" x2="221.375269524" y1="29.5809338832" y2="39.1304825835" /><line stroke="rgb(0%,0%,0%)" x1="220.028156613" x2="219.227943229" y1="17.681270635" y2="26.0083045743" /><line stroke="rgb(0%,0%,0%)" x1="220.028156613" x2="220.504145114" y1="17.681270635" y2="13.969225873" /><line stroke="rgb(0%,0%,0%)" x1="220.724494617" x2="220.504145114" y1="11.1019333815" y2="13.969225873" /><line stroke="rgb(0%,0%,0%)" x1="229.265752699" x2="225.201241081" y1="5.40297927633" y2="6.63369296132" /><line stroke="rgb(0%,0%,0%)" x1="221.977543302" x2="225.201241081" y1="9.59446747729" y2="6.63369296132" /><line stroke="rgb(0%,0%,0%)" x1="232.77893685" x2="229.265752699" y1="5.45393676045" y2="5.40297927633" /><line stroke="rgb(0%,0%,0%)" x1="232.558671176" x2="236.687427845" y1="261.367583161" y2="259.725336101" /><line stroke="rgb(0%,0%,0%)" x1="241.861418417" x2="236.687427845" y1="260.023888901" y2="259.725336101" /><line stroke="rgb(0%,0%,0%)" x1="246.793401729" x2="241.861418417" y1="259.003633019" y2="260.023888901" /><line stroke="rgb(0%,0%,0%)" x1="232.150360973" x2="236.946235091" y1="57.6913529914" y2="66.5458835949" /><line stroke="rgb(0%,0%,0%)" x1="231.478614757" x2="232.150360973" y1="56.2274826712" y2="57.6913529914" /><line stroke="rgb(0%,0%,0%)" x1="238.795064051" x2="246.032861987" y1="67.9620292763" y2="70.4601228876" /><line stroke="rgb(0%,0%,0%)" x1="243.289219458" x2="242.226304805" y1="8.87997482951" y2="8.34589577376" /><line stroke="rgb(0%,0%,0%)" x1="235.277123612" x2="242.226304805" y1="6.31362820339" y2="8.34589577376" /><line stroke="rgb(0%,0%,0%)" x1="235.277123612" x2="232.77893685" y1="6.31362820339" y2="5.45393676045" /><line stroke="rgb(0%,0%,0%)" x1="183.957750916" x2="179.972188042" y1="278.211530835" y2="281.208042829" /><line stroke="rgb(0%,0%,0%)" x1="183.957750916" x2="193.356545756" y1="278.211530835" y2="272.599828834" /><line stroke="rgb(0%,0%,0%)" x1="201.259066496" x2="193.356545756" y1="269.137152006" y2="272.599828834" /><line stroke="rgb(0%,0%,0%)" x1="208.554902974" x2="201.259066496" y1="267.537597242" y2="269.137152006" /><line stroke="rgb(0%,0%,0%)" x1="147.622267294" x2="144.391543169" y1="305.41796908" y2="306.34882343" /><line stroke="rgb(0%,0%,0%)" x1="164.013430553" x2="166.466575958" y1="296.679817033" y2="295.600505281" /><line stroke="rgb(0%,0%,0%)" x1="164.013430553" x2="153.910789259" y1="296.679817033" y2="301.90576531" /><line stroke="rgb(0%,0%,0%)" x1="166.564835177" x2="169.839163828" y1="296.422412922" y2="291.754618716" /><line stroke="rgb(0%,0%,0%)" x1="166.564835177" x2="166.466575958" y1="296.422412922" y2="295.600505281" /><line stroke="rgb(0%,0%,0%)" x1="173.887964607" x2="169.839163828" y1="286.502782864" y2="291.754618716" /><line stroke="rgb(0%,0%,0%)" x1="179.972188042" x2="173.887964607" y1="281.208042829" y2="286.502782864" /><line stroke="rgb(0%,0%,0%)" x1="97.5174909555" x2="98.0025187184" y1="345.028988163" y2="344.505477237" /><line stroke="rgb(0%,0%,0%)" x1="98.0025187184" x2="103.537593475" y1="344.505477237" y2="338.390051923" /><line stroke="rgb(0%,0%,0%)" x1="118.628164041" x2="118.808744738" y1="322.489320851" y2="322.228779677" /><line stroke="rgb(0%,0%,0%)" x1="118.628164041" x2="114.051572796" y1="322.489320851" y2="327.089372377" /><line stroke="rgb(0%,0%,0%)" x1="130.950696274" x2="126.313946883" y1="312.238721323" y2="315.112967507" /><line stroke="rgb(0%,0%,0%)" x1="130.950696274" x2="134.096289014" y1="312.238721323" y2="310.537143417" /><line stroke="rgb(0%,0%,0%)" x1="138.26772972" x2="134.096289014" y1="308.986908499" y2="310.537143417" /><line stroke="rgb(0%,0%,0%)" x1="144.391543169" x2="138.26772972" y1="306.34882343" y2="308.986908499" /><line stroke="rgb(0%,0%,0%)" x1="147.622267294" x2="149.957064638" y1="305.41796908" y2="304.757502176" /><line stroke="rgb(0%,0%,0%)" x1="153.910789259" x2="149.957064638" y1="301.90576531" y2="304.757502176" /><line stroke="rgb(0%,0%,0%)" x1="97.5174909555" x2="96.2614374862" y1="345.028988163" y2="346.26718052" /><line stroke="rgb(0%,0%,0%)" x1="109.758768676" x2="103.537593475" y1="331.033755032" y2="338.390051923" /><line stroke="rgb(0%,0%,0%)" x1="114.051572796" x2="110.99532714" y1="327.089372377" y2="330.332590292" /><line stroke="rgb(0%,0%,0%)" x1="110.99532714" x2="109.758768676" y1="330.332590292" y2="331.033755032" /><line stroke="rgb(0%,0%,0%)" x1="118.808744738" x2="119.987834588" y1="322.228779677" y2="320.544459131" /><line stroke="rgb(0%,0%,0%)" x1="126.313946883" x2="119.987834588" y1="315.112967507" y2="320.544459131" /><line stroke="rgb(0%,0%,0%)" x1="61.3431194692" x2="63.4091483203" y1="405.121076983" y2="400.100041617" /><line stroke="rgb(0%,0%,0%)" x1="67.8855034738" x2="67.7183543949" y1="392.285268328" y2="392.638449335" /><line stroke="rgb(0%,0%,0%)" x1="67.7183543949" x2="66.4425146046" y1="392.638449335" y2="394.787322385" /><line stroke="rgb(0%,0%,0%)" x1="67.8855034738" x2="68.1563785026" y1="392.285268328" y2="391.970716721" /><line stroke="rgb(0%,0%,0%)" x1="73.4216509277" x2="68.1563785026" y1="386.042300466" y2="391.970716721" /><line stroke="rgb(0%,0%,0%)" x1="74.5197625387" x2="73.4216509277" y1="385.444563784" y2="386.042300466" /><line stroke="rgb(0%,0%,0%)" x1="77.8151961476" x2="79.6869182553" y1="382.369554471" y2="379.452155362" /><line stroke="rgb(0%,0%,0%)" x1="77.8151961476" x2="74.5197625387" y1="382.369554471" y2="385.444563784" /><line stroke="rgb(0%,0%,0%)" x1="81.3788622323" x2="80.5688284578" y1="372.235787323" y2="375.790855788" /><line stroke="rgb(0%,0%,0%)" x1="80.5688284578" x2="79.6869182553" y1="375.790855788" y2="379.452155362" /><line stroke="rgb(0%,0%,0%)" x1="82.8355038512" x2="81.3788622323" y1="364.361970231" y2="372.235787323" /><line stroke="rgb(0%,0%,0%)" x1="88.8106459855" x2="83.8519997998" y1="354.518853596" y2="361.888861075" /><line stroke="rgb(0%,0%,0%)" x1="83.8519997998" x2="82.8355038512" y1="361.888861075" y2="364.361970231" /><line stroke="rgb(0%,0%,0%)" x1="96.2614374862" x2="88.8106459855" y1="346.26718052" y2="354.518853596" /><line stroke="rgb(0%,0%,0%)" x1="44.2619560844" x2="44.0975955107" y1="446.020327473" y2="444.994122077" /><line stroke="rgb(0%,0%,0%)" x1="49.6148828105" x2="49.9296057474" y1="453.934047277" y2="454.573141386" /><line stroke="rgb(0%,0%,0%)" x1="49.9296057474" x2="51.9124162911" y1="454.573141386" y2="459.466689169" /><line stroke="rgb(0%,0%,0%)" x1="49.6148828105" x2="48.1425736142" y1="453.934047277" y2="452.912176662" /><line stroke="rgb(0%,0%,0%)" x1="44.2619560844" x2="48.1425736142" y1="446.020327473" y2="452.912176662" /><line stroke="rgb(0%,0%,0%)" x1="44.5610019894" x2="44.0975955107" y1="436.25264235" y2="444.994122077" /><line stroke="rgb(0%,0%,0%)" x1="45.6219800182" x2="44.5610019894" y1="433.038256298" y2="436.25264235" /><line stroke="rgb(0%,0%,0%)" x1="48.5832119712" x2="45.6219800182" y1="429.984577416" y2="433.038256298" /><line stroke="rgb(0%,0%,0%)" x1="55.3120039152" x2="48.5832119712" y1="414.969633417" y2="429.984577416" /><line stroke="rgb(0%,0%,0%)" x1="61.3431194692" x2="55.3120039152" y1="405.121076983" y2="414.969633417" /><line stroke="rgb(0%,0%,0%)" x1="64.0556829867" x2="63.4091483203" y1="399.168641187" y2="400.100041617" /><line stroke="rgb(0%,0%,0%)" x1="66.4425146046" x2="64.0556829867" y1="394.787322385" y2="399.168641187" /><line stroke="rgb(0%,0%,0%)" x1="500.1924979" x2="500.633666265" y1="482.972418676" y2="480.15282185" /><line stroke="rgb(0%,0%,0%)" x1="500.633666265" x2="500.582761324" y1="480.15282185" y2="477.817987936" /><line stroke="rgb(0%,0%,0%)" x1="453.778632688" x2="455.318280179" y1="347.603585589" y2="348.968617744" /><line stroke="rgb(0%,0%,0%)" x1="453.778632688" x2="451.449521746" y1="347.603585589" y2="344.143159947" /><line stroke="rgb(0%,0%,0%)" x1="470.473087727" x2="470.892455902" y1="568.416228892" y2="567.915453828" /><line stroke="rgb(0%,0%,0%)" x1="465.643385095" x2="464.237470131" y1="360.18824823" y2="358.664094998" /><line stroke="rgb(0%,0%,0%)" x1="472.550532281" x2="476.548226074" y1="561.542175078" y2="556.285548661" /><line stroke="rgb(0%,0%,0%)" x1="480.370655789" x2="476.586818183" y1="542.558873527" y2="556.222165791" /><line stroke="rgb(0%,0%,0%)" x1="484.707154303" x2="481.732449298" y1="533.113277334" y2="539.786023437" /><line stroke="rgb(0%,0%,0%)" x1="484.707154303" x2="487.78442679" y1="533.113277334" y2="525.959410759" /><line stroke="rgb(0%,0%,0%)" x1="490.518780891" x2="487.78442679" y1="517.188817256" y2="525.959410759" /><line stroke="rgb(0%,0%,0%)" x1="490.518780891" x2="492.791534995" y1="517.188817256" y2="507.93461963" /><line stroke="rgb(0%,0%,0%)" x1="492.791534995" x2="494.989607989" y1="507.93461963" y2="502.752286775" /><line stroke="rgb(0%,0%,0%)" x1="494.989607989" x2="497.81977234" y1="502.752286775" y2="492.257545468" /><line stroke="rgb(0%,0%,0%)" x1="500.1924979" x2="497.81977234" y1="482.972418676" y2="492.257545468" /><line stroke="rgb(0%,0%,0%)" x1="500.582761324" x2="498.839447972" y1="477.817987936" y2="464.035185869" /><line stroke="rgb(0%,0%,0%)" x1="431.202121647" x2="431.899484325" y1="326.773350199" y2="328.001940297" /><line stroke="rgb(0%,0%,0%)" x1="431.202121647" x2="429.737861658" y1="326.773350199" y2="324.472263819" /><line stroke="rgb(0%,0%,0%)" x1="422.033397699" x2="422.609670765" y1="315.004616735" y2="315.612982682" /><line stroke="rgb(0%,0%,0%)" x1="446.080879686" x2="434.1793186" y1="337.267165086" y2="329.675350526" /><line stroke="rgb(0%,0%,0%)" x1="434.1793186" x2="431.899484325" y1="329.675350526" y2="328.001940297" /><line stroke="rgb(0%,0%,0%)" x1="461.832331366" x2="458.640057956" y1="356.618496406" y2="352.994159973" /><line stroke="rgb(0%,0%,0%)" x1="458.640057956" x2="455.318280179" y1="352.994159973" y2="348.968617744" /><line stroke="rgb(0%,0%,0%)" x1="451.449521746" x2="447.69977911" y1="344.143159947" y2="339.559657183" /><line stroke="rgb(0%,0%,0%)" x1="447.69977911" x2="446.080879686" y1="339.559657183" y2="337.267165086" /><line stroke="rgb(0%,0%,0%)" x1="470.892455902" x2="472.550532281" y1="567.915453828" y2="561.542175078" /><line stroke="rgb(0%,0%,0%)" x1="464.237470131" x2="461.832331366" y1="358.664094998" y2="356.618496406" /><line stroke="rgb(0%,0%,0%)" x1="476.548226074" x2="476.586818183" y1="556.285548661" y2="556.222165791" /><line stroke="rgb(0%,0%,0%)" x1="480.370655789" x2="481.732449298" y1="542.558873527" y2="539.786023437" /><line stroke="rgb(0%,0%,0%)" x1="406.288757229" x2="400.365634165" y1="628.280560079" y2="632.999655523" /><line stroke="rgb(0%,0%,0%)" x1="406.288757229" x2="406.548884706" y1="628.280560079" y2="628.071373418" /><line stroke="rgb(0%,0%,0%)" x1="406.548884706" x2="407.049644375" y1="628.071373418" y2="627.69887848" /><line stroke="rgb(0%,0%,0%)" x1="407.049644375" x2="414.989194308" y1="627.69887848" y2="623.37863671" /><line stroke="rgb(0%,0%,0%)" x1="414.989194308" x2="415.973406606" y1="623.37863671" y2="622.897756065" /><line stroke="rgb(0%,0%,0%)" x1="420.59218367" x2="414.424075522" y1="314.176078995" y2="310.936331008" /><line stroke="rgb(0%,0%,0%)" x1="422.033397699" x2="420.59218367" y1="315.004616735" y2="314.176078995" /><line stroke="rgb(0%,0%,0%)" x1="414.424075522" x2="409.894681564" y1="310.936331008" y2="307.765794281" /><line stroke="rgb(0%,0%,0%)" x1="409.894681564" x2="407.741888613" y1="307.765794281" y2="305.533891591" /><line stroke="rgb(0%,0%,0%)" x1="429.737861658" x2="426.725590227" y1="324.472263819" y2="321.074603051" /><line stroke="rgb(0%,0%,0%)" x1="426.725590227" x2="425.106172403" y1="321.074603051" y2="319.054081423" /><line stroke="rgb(0%,0%,0%)" x1="425.106172403" x2="422.609670765" y1="319.054081423" y2="315.612982682" /><line stroke="rgb(0%,0%,0%)" x1="392.728231391" x2="384.556454093" y1="639.883480692" y2="645.023215258" /><line stroke="rgb(0%,0%,0%)" x1="392.728231391" x2="395.649469944" y1="639.883480692" y2="636.836555231" /><line stroke="rgb(0%,0%,0%)" x1="395.649469944" x2="396.414525786" y1="636.836555231" y2="636.147460808" /><line stroke="rgb(0%,0%,0%)" x1="396.414525786" x2="396.826307861" y1="636.147460808" y2="635.739657214" /><line stroke="rgb(0%,0%,0%)" x1="396.826307861" x2="400.365634165" y1="635.739657214" y2="632.999655523" /><line stroke="rgb(0%,0%,0%)" x1="319.332610541" x2="322.102214207" y1="664.739145051" y2="664.177371443" /><line stroke="rgb(0%,0%,0%)" x1="338.071087047" x2="341.831741137" y1="662.071131061" y2="660.57601854" /><line stroke="rgb(0%,0%,0%)" x1="343.423796937" x2="338.681586258" y1="864.893937587" y2="876.338463083" /><line stroke="rgb(0%,0%,0%)" x1="343.423796937" x2="344.559947022" y1="864.893937587" y2="862.598547527" /><line stroke="rgb(0%,0%,0%)" x1="345.620458495" x2="347.334980614" y1="857.671605642" y2="847.458470519" /><line stroke="rgb(0%,0%,0%)" x1="344.559947022" x2="345.620458495" y1="862.598547527" y2="857.671605642" /><line stroke="rgb(0%,0%,0%)" x1="344.806516858" x2="344.921202431" y1="829.486550855" y2="831.006692428" /><line stroke="rgb(0%,0%,0%)" x1="344.806516858" x2="345.179378504" y1="829.486550855" y2="828.768236867" /><line stroke="rgb(0%,0%,0%)" x1="345.179378504" x2="345.355700415" y1="828.768236867" y2="826.663862856" /><line stroke="rgb(0%,0%,0%)" x1="340.808619138" x2="345.410811941" y1="814.445266928" y2="822.039097362" /><line stroke="rgb(0%,0%,0%)" x1="350.933440027" x2="345.154436936" y1="658.495282838" y2="659.660429334" /><line stroke="rgb(0%,0%,0%)" x1="350.933440027" x2="351.842832982" y1="658.495282838" y2="657.911729327" /><line stroke="rgb(0%,0%,0%)" x1="351.842832982" x2="358.614427037" y1="657.911729327" y2="655.637380525" /><line stroke="rgb(0%,0%,0%)" x1="358.614427037" x2="362.548139562" y1="655.637380525" y2="653.481972383" /><line stroke="rgb(0%,0%,0%)" x1="362.548139562" x2="370.589607922" y1="653.481972383" y2="647.705517069" /><line stroke="rgb(0%,0%,0%)" x1="371.444362631" x2="382.004251186" y1="647.614644123" y2="646.426664797" /><line stroke="rgb(0%,0%,0%)" x1="370.882476595" x2="371.434809775" y1="647.690268801" y2="647.544549082" /><line stroke="rgb(0%,0%,0%)" x1="371.434809775" x2="371.444362631" y1="647.544549082" y2="647.614644123" /><line stroke="rgb(0%,0%,0%)" x1="370.589607922" x2="370.882476595" y1="647.705517069" y2="647.690268801" /><line stroke="rgb(0%,0%,0%)" x1="382.004251186" x2="382.517161052" y1="646.426664797" y2="646.306171984" /><line stroke="rgb(0%,0%,0%)" x1="382.517161052" x2="383.165423191" y1="646.306171984" y2="645.776372328" /><line stroke="rgb(0%,0%,0%)" x1="383.165423191" x2="384.556454093" y1="645.776372328" y2="645.023215258" /><line stroke="rgb(0%,0%,0%)" x1="303.40637681" x2="304.255845887" y1="666.447304982" y2="666.545748672" /><line stroke="rgb(0%,0%,0%)" x1="307.980171769" x2="309.127426419" y1="839.772940309" y2="846.327211646" /><line stroke="rgb(0%,0%,0%)" x1="307.980171769" x2="306.809539194" y1="839.772940309" y2="835.205651889" /><line stroke="rgb(0%,0%,0%)" x1="309.127426419" x2="312.158429671" y1="846.327211646" y2="850.048330711" /><line stroke="rgb(0%,0%,0%)" x1="302.355208125" x2="303.126822477" y1="835.342102802" y2="835.240462398" /><line stroke="rgb(0%,0%,0%)" x1="303.345318827" x2="300.682112531" y1="810.277927478" y2="813.225283326" /><line stroke="rgb(0%,0%,0%)" x1="312.430090988" x2="310.376228989" y1="805.842065307" y2="806.58129821" /><line stroke="rgb(0%,0%,0%)" x1="319.332610541" x2="313.155599299" y1="664.739145051" y2="665.586513611" /><line stroke="rgb(0%,0%,0%)" x1="320.431074386" x2="323.412644244" y1="898.962450202" y2="896.637787839" /><line stroke="rgb(0%,0%,0%)" x1="319.470099628" x2="320.431074386" y1="899.12030528" y2="898.962450202" /><line stroke="rgb(0%,0%,0%)" x1="319.470099628" x2="315.320110037" y1="899.12030528" y2="899.836732376" /><line stroke="rgb(0%,0%,0%)" x1="317.909644114" x2="318.720059849" y1="866.869588656" y2="859.827835258" /><line stroke="rgb(0%,0%,0%)" x1="317.909644114" x2="315.905733724" y1="866.869588656" y2="871.89776048" /><line stroke="rgb(0%,0%,0%)" x1="314.418032482" x2="312.158429671" y1="852.157919743" y2="850.048330711" /><line stroke="rgb(0%,0%,0%)" x1="314.418032482" x2="317.152081038" y1="852.157919743" y2="856.20351765" /><line stroke="rgb(0%,0%,0%)" x1="323.439686899" x2="321.515287096" y1="804.251118886" y2="804.187179997" /><line stroke="rgb(0%,0%,0%)" x1="320.39081138" x2="314.758883805" y1="804.160585094" y2="805.77802895" /><line stroke="rgb(0%,0%,0%)" x1="314.758883805" x2="312.430090988" y1="805.77802895" y2="805.842065307" /><line stroke="rgb(0%,0%,0%)" x1="320.39081138" x2="321.515287096" y1="804.160585094" y2="804.187179997" /><line stroke="rgb(0%,0%,0%)" x1="322.102214207" x2="326.023839419" y1="664.177371443" y2="664.154129752" /><line stroke="rgb(0%,0%,0%)" x1="332.308470222" x2="328.313677611" y1="888.594081057" y2="891.811489074" /><line stroke="rgb(0%,0%,0%)" x1="332.308470222" x2="334.43133701" y1="888.594081057" y2="884.582721316" /><line stroke="rgb(0%,0%,0%)" x1="334.43133701" x2="337.603434621" y1="884.582721316" y2="879.502346801" /><line stroke="rgb(0%,0%,0%)" x1="336.545376655" x2="333.559837657" y1="810.486623377" y2="807.790637994" /><line stroke="rgb(0%,0%,0%)" x1="333.559837657" x2="327.033302725" y1="807.790637994" y2="805.023971722" /><line stroke="rgb(0%,0%,0%)" x1="323.439686899" x2="327.033302725" y1="804.251118886" y2="805.023971722" /><line stroke="rgb(0%,0%,0%)" x1="336.545376655" x2="340.410381004" y1="810.486623377" y2="812.912798705" /><line stroke="rgb(0%,0%,0%)" x1="326.023839419" x2="329.305397941" y1="664.154129752" y2="663.961265613" /><line stroke="rgb(0%,0%,0%)" x1="329.305397941" x2="334.381866348" y1="663.961265613" y2="662.311142168" /><line stroke="rgb(0%,0%,0%)" x1="334.381866348" x2="338.071087047" y1="662.311142168" y2="662.071131061" /><line stroke="rgb(0%,0%,0%)" x1="337.603434621" x2="338.681586258" y1="879.502346801" y2="876.338463083" /><line stroke="rgb(0%,0%,0%)" x1="347.334980614" x2="347.628599565" y1="847.458470519" y2="846.662693237" /><line stroke="rgb(0%,0%,0%)" x1="347.628599565" x2="347.579013139" y1="846.662693237" y2="845.983832378" /><line stroke="rgb(0%,0%,0%)" x1="345.930491051" x2="344.921202431" y1="835.820298661" y2="831.006692428" /><line stroke="rgb(0%,0%,0%)" x1="345.930491051" x2="347.579013139" y1="835.820298661" y2="845.983832378" /><line stroke="rgb(0%,0%,0%)" x1="345.355700415" x2="345.410811941" y1="826.663862856" y2="822.039097362" /><line stroke="rgb(0%,0%,0%)" x1="340.808619138" x2="340.410381004" y1="814.445266928" y2="812.912798705" /><line stroke="rgb(0%,0%,0%)" x1="341.831741137" x2="345.154436936" y1="660.57601854" y2="659.660429334" /><line stroke="rgb(0%,0%,0%)" x1="242.295891635" x2="241.148935219" y1="663.243003212" y2="662.746654816" /><line stroke="rgb(0%,0%,0%)" x1="242.295891635" x2="249.304620132" y1="663.243003212" y2="665.622834855" /><line stroke="rgb(0%,0%,0%)" x1="264.045640738" x2="270.497259725" y1="668.661047634" y2="669.621221231" /><line stroke="rgb(0%,0%,0%)" x1="299.492947687" x2="302.355208125" y1="833.900818802" y2="835.342102802" /><line stroke="rgb(0%,0%,0%)" x1="299.492947687" x2="296.203185734" y1="833.900818802" y2="827.487696878" /><line stroke="rgb(0%,0%,0%)" x1="294.247215115" x2="295.13197355" y1="821.198055253" y2="824.727583492" /><line stroke="rgb(0%,0%,0%)" x1="295.13197355" x2="295.103175234" y1="824.727583492" y2="825.563670149" /><line stroke="rgb(0%,0%,0%)" x1="295.103175234" x2="296.203185734" y1="825.563670149" y2="827.487696878" /><line stroke="rgb(0%,0%,0%)" x1="296.318457711" x2="294.247215115" y1="819.081381673" y2="821.198055253" /><line stroke="rgb(0%,0%,0%)" x1="297.246302471" x2="295.887004474" y1="814.997874529" y2="816.171487554" /><line stroke="rgb(0%,0%,0%)" x1="295.887004474" x2="296.318457711" y1="816.171487554" y2="819.081381673" /><line stroke="rgb(0%,0%,0%)" x1="280.653374471" x2="293.123877392" y1="669.139721439" y2="668.572481643" /><line stroke="rgb(0%,0%,0%)" x1="303.40637681" x2="295.739082357" y1="666.447304982" y2="668.090468711" /><line stroke="rgb(0%,0%,0%)" x1="293.123877392" x2="293.968489795" y1="668.572481643" y2="668.389749217" /><line stroke="rgb(0%,0%,0%)" x1="303.126822477" x2="306.809539194" y1="835.240462398" y2="835.205651889" /><line stroke="rgb(0%,0%,0%)" x1="300.682112531" x2="297.246302471" y1="813.225283326" y2="814.997874529" /><line stroke="rgb(0%,0%,0%)" x1="310.376228989" x2="303.345318827" y1="806.58129821" y2="810.277927478" /><line stroke="rgb(0%,0%,0%)" x1="304.255845887" x2="305.148386971" y1="666.545748672" y2="666.175200949" /><line stroke="rgb(0%,0%,0%)" x1="305.148386971" x2="306.552059249" y1="666.175200949" y2="666.617666688" /><line stroke="rgb(0%,0%,0%)" x1="293.968489795" x2="294.046215666" y1="668.389749217" y2="668.377934689" /><line stroke="rgb(0%,0%,0%)" x1="294.046215666" x2="295.739082357" y1="668.377934689" y2="668.090468711" /><line stroke="rgb(0%,0%,0%)" x1="314.767133206" x2="315.320110037" y1="900.03611155" y2="899.836732376" /><line stroke="rgb(0%,0%,0%)" x1="314.674963881" x2="314.767133206" y1="899.882160537" y2="900.03611155" /><line stroke="rgb(0%,0%,0%)" x1="309.849045281" x2="311.126422558" y1="895.029336652" y2="897.388717219" /><line stroke="rgb(0%,0%,0%)" x1="311.933345284" x2="314.674963881" y1="898.444553084" y2="899.882160537" /><line stroke="rgb(0%,0%,0%)" x1="309.545507761" x2="309.374296472" y1="888.696379523" y2="890.478521004" /><line stroke="rgb(0%,0%,0%)" x1="311.126422558" x2="311.933345284" y1="897.388717219" y2="898.444553084" /><line stroke="rgb(0%,0%,0%)" x1="309.849045281" x2="309.374296472" y1="895.029336652" y2="890.478521004" /><line stroke="rgb(0%,0%,0%)" x1="315.905733724" x2="315.524678083" y1="871.89776048" y2="873.895014416" /><line stroke="rgb(0%,0%,0%)" x1="317.97740491" x2="318.720059849" y1="858.081523501" y2="859.827835258" /><line stroke="rgb(0%,0%,0%)" x1="317.152081038" x2="317.97740491" y1="856.20351765" y2="858.081523501" /><line stroke="rgb(0%,0%,0%)" x1="306.552059249" x2="313.155599299" y1="666.617666688" y2="665.586513611" /><line stroke="rgb(0%,0%,0%)" x1="323.412644244" x2="326.807014847" y1="896.637787839" y2="894.169664422" /><line stroke="rgb(0%,0%,0%)" x1="326.807014847" x2="328.313677611" y1="894.169664422" y2="891.811489074" /><line stroke="rgb(0%,0%,0%)" x1="231.699484002" x2="225.505512177" y1="659.217556911" y2="658.418794703" /><line stroke="rgb(0%,0%,0%)" x1="264.045640738" x2="256.295215137" y1="668.661047634" y2="667.16212353" /><line stroke="rgb(0%,0%,0%)" x1="249.304620132" x2="252.581021837" y1="665.622834855" y2="666.419495811" /><line stroke="rgb(0%,0%,0%)" x1="270.497259725" x2="273.317447712" y1="669.621221231" y2="669.724488211" /><line stroke="rgb(0%,0%,0%)" x1="252.581021837" x2="256.295215137" y1="666.419495811" y2="667.16212353" /><line stroke="rgb(0%,0%,0%)" x1="277.277679998" x2="273.317447712" y1="669.506511507" y2="669.724488211" /><line stroke="rgb(0%,0%,0%)" x1="277.277679998" x2="279.81448962" y1="669.506511507" y2="668.964878506" /><line stroke="rgb(0%,0%,0%)" x1="279.81448962" x2="280.653374471" y1="668.964878506" y2="669.139721439" /><line stroke="rgb(0%,0%,0%)" x1="188.310678226" x2="189.022097803" y1="643.782936425" y2="644.212672763" /><line stroke="rgb(0%,0%,0%)" x1="189.583524182" x2="189.022097803" y1="644.433216104" y2="644.212672763" /><line stroke="rgb(0%,0%,0%)" x1="189.583524182" x2="193.923081198" y1="644.433216104" y2="646.705271183" /><line stroke="rgb(0%,0%,0%)" x1="213.542871677" x2="225.505512177" y1="655.501501426" y2="658.418794703" /><line stroke="rgb(0%,0%,0%)" x1="207.239363449" x2="210.970150746" y1="653.17618642" y2="654.463893359" /><line stroke="rgb(0%,0%,0%)" x1="210.970150746" x2="213.542871677" y1="654.463893359" y2="655.501501426" /><line stroke="rgb(0%,0%,0%)" x1="231.699484002" x2="241.148935219" y1="659.217556911" y2="662.746654816" /><line stroke="rgb(0%,0%,0%)" x1="175.314983047" x2="172.927481811" y1="631.850354558" y2="627.212485556" /><line stroke="rgb(0%,0%,0%)" x1="158.189311385" x2="168.656226585" y1="619.771575717" y2="625.059127789" /><line stroke="rgb(0%,0%,0%)" x1="188.310678226" x2="187.95870444" y1="643.782936425" y2="643.475477378" /><line stroke="rgb(0%,0%,0%)" x1="175.314983047" x2="187.95870444" y1="631.850354558" y2="643.475477378" /><line stroke="rgb(0%,0%,0%)" x1="172.320640884" x2="172.927481811" y1="626.6053536" y2="627.212485556" /><line stroke="rgb(0%,0%,0%)" x1="193.923081198" x2="207.239363449" y1="646.705271183" y2="653.17618642" /><line stroke="rgb(0%,0%,0%)" x1="137.794061641" x2="143.400393072" y1="611.670303722" y2="613.66204372" /><line stroke="rgb(0%,0%,0%)" x1="137.794061641" x2="133.895098151" y1="611.670303722" y2="609.839264537" /><line stroke="rgb(0%,0%,0%)" x1="131.542996331" x2="133.895098151" y1="608.677902288" y2="609.839264537" /><line stroke="rgb(0%,0%,0%)" x1="146.729180587" x2="143.400393072" y1="613.887683975" y2="613.66204372" /><line stroke="rgb(0%,0%,0%)" x1="146.729180587" x2="148.435427334" y1="613.887683975" y2="614.609278185" /><line stroke="rgb(0%,0%,0%)" x1="154.483855092" x2="158.189311385" y1="617.603366459" y2="619.771575717" /><line stroke="rgb(0%,0%,0%)" x1="154.483855092" x2="150.546739876" y1="617.603366459" y2="616.143649542" /><line stroke="rgb(0%,0%,0%)" x1="149.222019229" x2="150.546739876" y1="615.242439738" y2="616.143649542" /><line stroke="rgb(0%,0%,0%)" x1="148.435427334" x2="149.222019229" y1="614.609278185" y2="615.242439738" /><line stroke="rgb(0%,0%,0%)" x1="168.656226585" x2="170.355469134" y1="625.059127789" y2="625.759581307" /><line stroke="rgb(0%,0%,0%)" x1="170.355469134" x2="172.320640884" y1="625.759581307" y2="626.6053536" /><line stroke="rgb(0%,0%,0%)" x1="89.7992183886" x2="97.1242039832" y1="566.091668494" y2="573.883943346" /><line stroke="rgb(0%,0%,0%)" x1="89.7992183886" x2="86.3270777546" y1="566.091668494" y2="559.283615489" /><line stroke="rgb(0%,0%,0%)" x1="97.1242039832" x2="98.6085460823" y1="573.883943346" y2="575.652750575" /><line stroke="rgb(0%,0%,0%)" x1="102.501049274" x2="108.305758783" y1="583.140996571" y2="589.728418154" /><line stroke="rgb(0%,0%,0%)" x1="108.305758783" x2="112.902803767" y1="589.728418154" y2="592.333504234" /><line stroke="rgb(0%,0%,0%)" x1="98.6085460823" x2="102.501049274" y1="575.652750575" y2="583.140996571" /><line stroke="rgb(0%,0%,0%)" x1="112.902803767" x2="125.733362117" y1="592.333504234" y2="604.080633152" /><line stroke="rgb(0%,0%,0%)" x1="125.733362117" x2="131.542996331" y1="604.080633152" y2="608.677902288" /><line stroke="rgb(0%,0%,0%)" x1="55.7438242311" x2="58.2541066211" y1="506.839892522" y2="509.940813685" /><line stroke="rgb(0%,0%,0%)" x1="55.7438242311" x2="49.6069348473" y1="506.839892522" y2="497.950401002" /><line stroke="rgb(0%,0%,0%)" x1="72.098682318" x2="68.8814221347" y1="532.809510621" y2="530.314486559" /><line stroke="rgb(0%,0%,0%)" x1="67.7329373828" x2="68.8814221347" y1="528.971332001" y2="530.314486559" /><line stroke="rgb(0%,0%,0%)" x1="66.2786634906" x2="67.7329373828" y1="525.07060904" y2="528.971332001" /><line stroke="rgb(0%,0%,0%)" x1="61.5406414676" x2="60.1883751963" y1="518.341129937" y2="513.523744851" /><line stroke="rgb(0%,0%,0%)" x1="83.54613776" x2="84.1127129315" y1="551.882095454" y2="554.534585319" /><line stroke="rgb(0%,0%,0%)" x1="84.1127129315" x2="86.3270777546" y1="554.534585319" y2="559.283615489" /><line stroke="rgb(0%,0%,0%)" x1="83.2110978247" x2="83.54613776" y1="546.392651763" y2="551.882095454" /><line stroke="rgb(0%,0%,0%)" x1="83.2110978247" x2="81.4601610275" y1="546.392651763" y2="541.3493455" /><line stroke="rgb(0%,0%,0%)" x1="78.1462920992" x2="81.4601610275" y1="538.765340614" y2="541.3493455" /><line stroke="rgb(0%,0%,0%)" x1="72.098682318" x2="78.1462920992" y1="532.809510621" y2="538.765340614" /><line stroke="rgb(0%,0%,0%)" x1="41.3979788113" x2="37.0625710841" y1="490.921771353" y2="487.491207475" /><line stroke="rgb(0%,0%,0%)" x1="41.3979788113" x2="48.732699952" y1="490.921771353" y2="496.986368361" /><line stroke="rgb(0%,0%,0%)" x1="48.732699952" x2="49.2336261956" y1="496.986368361" y2="497.462819425" /><line stroke="rgb(0%,0%,0%)" x1="38.1294050064" x2="37.0625710841" y1="482.059303446" y2="487.491207475" /><line stroke="rgb(0%,0%,0%)" x1="37.5512817919" x2="38.1294050064" y1="478.067203497" y2="482.059303446" /><line stroke="rgb(0%,0%,0%)" x1="38.8405855417" x2="37.5512817919" y1="477.75430642" y2="478.067203497" /><line stroke="rgb(0%,0%,0%)" x1="44.1060451059" x2="41.919507766" y1="469.302513269" y2="472.58813241" /><line stroke="rgb(0%,0%,0%)" x1="38.8405855417" x2="41.919507766" y1="477.75430642" y2="472.58813241" /><line stroke="rgb(0%,0%,0%)" x1="49.4772473443" x2="49.6069348473" y1="497.686391432" y2="497.950401002" /><line stroke="rgb(0%,0%,0%)" x1="49.3525635544" x2="49.4772473443" y1="497.549420622" y2="497.686391432" /><line stroke="rgb(0%,0%,0%)" x1="49.2336261956" x2="49.3525635544" y1="497.462819425" y2="497.549420622" /><line stroke="rgb(0%,0%,0%)" x1="44.9200041043" x2="44.1060451059" y1="467.758461853" y2="469.302513269" /><line stroke="rgb(0%,0%,0%)" x1="46.6637147129" x2="44.9200041043" y1="466.223863564" y2="467.758461853" /><line stroke="rgb(0%,0%,0%)" x1="50.2014252602" x2="46.6637147129" y1="464.526450466" y2="466.223863564" /><line stroke="rgb(0%,0%,0%)" x1="51.1819569025" x2="50.2014252602" y1="461.275132245" y2="464.526450466" /><line stroke="rgb(0%,0%,0%)" x1="51.1819569025" x2="51.9124162911" y1="461.275132245" y2="459.466689169" /><line stroke="rgb(0%,0%,0%)" x1="61.5406414676" x2="66.2786634906" y1="518.341129937" y2="525.07060904" /><line stroke="rgb(0%,0%,0%)" x1="58.2541066211" x2="60.1883751963" y1="509.940813685" y2="513.523744851" /><line stroke="rgb(0%,0%,0%)" x1="419.975780116" x2="425.123849684" y1="619.218080769" y2="616.855959771" /><line stroke="rgb(0%,0%,0%)" x1="431.536009135" x2="435.959813051" y1="612.630858321" y2="606.734398766" /><line stroke="rgb(0%,0%,0%)" x1="438.917970242" x2="438.414550709" y1="602.623907121" y2="603.525727662" /><line stroke="rgb(0%,0%,0%)" x1="439.721622034" x2="438.917970242" y1="601.888262117" y2="602.623907121" /><line stroke="rgb(0%,0%,0%)" x1="443.158063356" x2="450.808259854" y1="599.593383446" y2="594.327667658" /><line stroke="rgb(0%,0%,0%)" x1="439.721622034" x2="443.158063356" y1="601.888262117" y2="599.593383446" /><line stroke="rgb(0%,0%,0%)" x1="450.808259854" x2="451.235951855" y1="594.327667658" y2="593.603751348" /><line stroke="rgb(0%,0%,0%)" x1="458.937490184" x2="451.235951855" y1="583.125829506" y2="593.603751348" /><line stroke="rgb(0%,0%,0%)" x1="458.937490184" x2="464.376118167" y1="583.125829506" y2="575.995131993" /><line stroke="rgb(0%,0%,0%)" x1="468.703896568" x2="464.376118167" y1="570.439013583" y2="575.995131993" /><line stroke="rgb(0%,0%,0%)" x1="468.703896568" x2="470.473087727" y1="570.439013583" y2="568.416228892" /><line stroke="rgb(0%,0%,0%)" x1="416.038825588" x2="415.973406606" y1="622.864423863" y2="622.897756065" /><line stroke="rgb(0%,0%,0%)" x1="416.038825588" x2="419.975780116" y1="622.864423863" y2="619.218080769" /><line stroke="rgb(0%,0%,0%)" x1="425.123849684" x2="426.848593156" y1="616.855959771" y2="615.56267667" /><line stroke="rgb(0%,0%,0%)" x1="426.848593156" x2="430.678273414" y1="615.56267667" y2="612.994703552" /><line stroke="rgb(0%,0%,0%)" x1="430.678273414" x2="431.536009135" y1="612.994703552" y2="612.630858321" /><line stroke="rgb(0%,0%,0%)" x1="435.959813051" x2="438.414550709" y1="606.734398766" y2="603.525727662" /><line stroke="rgb(0%,0%,0%)" x1="312.593202361" x2="315.524678083" y1="880.19518482" y2="873.895014416" /><line stroke="rgb(0%,0%,0%)" x1="309.730135235" x2="309.545507761" y1="888.240669628" y2="888.696379523" /><line stroke="rgb(0%,0%,0%)" x1="310.303359331" x2="309.730135235" y1="886.596171504" y2="888.240669628" /><line stroke="rgb(0%,0%,0%)" x1="312.593202361" x2="310.303359331" y1="880.19518482" y2="886.596171504" /></svg>