<?xml version="1.0" encoding="utf-8" ?>
<svg baseProfile="full" height="100%" version="1.1" viewBox="0.5 0.5 685.793960571 941.299331665" width="100%" xmlns="http://www.w3.org/2000/svg" xmlns:ev="http://www.w3.org/2001/xml-events" xmlns:xlink="http://www.w3.org/1999/xlink"><defs /><line stroke="rgb(0%,0%,0%)" x1="496.196735224" x2="496.770181904" y1="464.183472276" y2="459.696199706" /><line stroke="rgb(0%,0%,0%)" x1="496.912635417" x2="497.076454497" y1="444.270697143" y2="446.748116437" /><line stroke="rgb(0%,0%,0%)" x1="496.912635417" x2="494.856906884" y1="444.270697143" y2="434.298191779" /><line stroke="rgb(0%,0%,0%)" x1="494.856906884" x2="494.023535566" y1="434.298191779" y2="431.611394158" /><line stroke="rgb(0%,0%,0%)" x1="494.023535566" x2="494.689347562" y1="431.611394158" y2="428.462994829" /><line stroke="rgb(0%,0%,0%)" x1="487.576573891" x2="487.825598245" y1="414.344043612" y2="415.123348777" /><line stroke="rgb(0%,0%,0%)" x1="487.576573891" x2="486.224971415" y1="414.344043612" y2="412.708756968" /><line stroke="rgb(0%,0%,0%)" x1="467.566100123" x2="475.765059044" y1="378.740195517" y2="391.740316691" /><line stroke="rgb(0%,0%,0%)" x1="458.263319994" x2="457.949936396" y1="360.698180709" y2="360.304087417" /><line stroke="rgb(0%,0%,0%)" x1="477.131272567" x2="484.532696466" y1="394.016504204" y2="410.531315577" /><line stroke="rgb(0%,0%,0%)" x1="496.770181904" x2="497.076454497" y1="459.696199706" y2="446.748116437" /><line stroke="rgb(0%,0%,0%)" x1="494.689347562" x2="494.778675937" y1="428.462994829" y2="425.15852526" /><line stroke="rgb(0%,0%,0%)" x1="494.778675937" x2="490.082702775" y1="425.15852526" y2="417.960555003" /><line stroke="rgb(0%,0%,0%)" x1="487.825598245" x2="490.082702775" y1="415.123348777" y2="417.960555003" /><line stroke="rgb(0%,0%,0%)" x1="477.131272567" x2="475.765059044" y1="394.016504204" y2="391.740316691" /><line stroke="rgb(0%,0%,0%)" x1="467.566100123" x2="465.842164966" y1="378.740195517" y2="376.286110927" /><line stroke="rgb(0%,0%,0%)" x1="465.842164966" x2="460.438166493" y1="376.286110927" y2="365.512790708" /><line stroke="rgb(0%,0%,0%)" x1="458.263319994" x2="460.438166493" y1="360.698180709" y2="365.512790708" /><line stroke="rgb(0%,0%,0%)" x1="486.224971415" x2="485.49547244" y1="412.708756968" y2="412.060745369" /><line stroke="rgb(0%,0%,0%)" x1="485.49547244" x2="485.240007687" y1="412.060745369" y2="411.61151323" /><line stroke="rgb(0%,0%,0%)" x1="485.240007687" x2="484.532696466" y1="411.61151323" y2="410.531315577" /><line stroke="rgb(0%,0%,0%)" x1="404.402017101" x2="402.603247592" y1="306.958651817" y2="306.059228075" /><line stroke="rgb(0%,0%,0%)" x1="380.380807637" x2="371.961853232" y1="288.490599892" y2="283.858030635" /><line stroke="rgb(0%,0%,0%)" x1="381.443319761" x2="385.467472741" y1="290.40385087" y2="294.233643379" /><line stroke="rgb(0%,0%,0%)" x1="381.443319761" x2="380.380807637" y1="290.40385087" y2="288.490599892" /><line stroke="rgb(0%,0%,0%)" x1="396.502250023" x2="393.667430136" y1="301.646300881" y2="300.035385953" /><line stroke="rgb(0%,0%,0%)" x1="396.502250023" x2="401.33539233" y1="301.646300881" y2="305.156051664" /><line stroke="rgb(0%,0%,0%)" x1="390.206953067" x2="385.467472741" y1="298.259369348" y2="294.233643379" /><line stroke="rgb(0%,0%,0%)" x1="402.603247592" x2="401.33539233" y1="306.059228075" y2="305.156051664" /><line stroke="rgb(0%,0%,0%)" x1="326.75818256" x2="329.928259063" y1="268.407395247" y2="268.403995642" /><line stroke="rgb(0%,0%,0%)" x1="323.517279355" x2="326.75818256" y1="268.296341457" y2="268.407395247" /><line stroke="rgb(0%,0%,0%)" x1="317.932241198" x2="316.158938899" y1="268.013996048" y2="268.349644771" /><line stroke="rgb(0%,0%,0%)" x1="355.548422218" x2="353.227234117" y1="278.626617217" y2="277.74045401" /><line stroke="rgb(0%,0%,0%)" x1="353.227234117" x2="348.494965247" y1="277.74045401" y2="275.356463594" /><line stroke="rgb(0%,0%,0%)" x1="363.785852633" x2="358.789421196" y1="281.428377349" y2="280.578931261" /><line stroke="rgb(0%,0%,0%)" x1="355.548422218" x2="358.789421196" y1="278.626617217" y2="280.578931261" /><line stroke="rgb(0%,0%,0%)" x1="365.908609971" x2="365.638389705" y1="281.608307371" y2="281.525603036" /><line stroke="rgb(0%,0%,0%)" x1="363.785852633" x2="365.638389705" y1="281.428377349" y2="281.525603036" /><line stroke="rgb(0%,0%,0%)" x1="370.40503401" x2="365.908609971" y1="282.867580128" y2="281.608307371" /><line stroke="rgb(0%,0%,0%)" x1="371.961853232" x2="370.40503401" y1="283.858030635" y2="282.867580128" /><line stroke="rgb(0%,0%,0%)" x1="393.667430136" x2="390.206953067" y1="300.035385953" y2="298.259369348" /><line stroke="rgb(0%,0%,0%)" x1="280.180384544" x2="280.226380322" y1="264.014503176" y2="264.023736195" /><line stroke="rgb(0%,0%,0%)" x1="287.815256733" x2="288.13692653" y1="267.691918688" y2="267.548285494" /><line stroke="rgb(0%,0%,0%)" x1="316.158938899" x2="309.498593694" y1="268.349644771" y2="268.7930762" /><line stroke="rgb(0%,0%,0%)" x1="309.498593694" x2="305.329971051" y1="268.7930762" y2="269.445207203" /><line stroke="rgb(0%,0%,0%)" x1="323.517279355" x2="317.932241198" y1="268.296341457" y2="268.013996048" /><line stroke="rgb(0%,0%,0%)" x1="332.139532742" x2="329.928259063" y1="269.113527882" y2="268.403995642" /><line stroke="rgb(0%,0%,0%)" x1="337.916232865" x2="336.722870031" y1="270.672529917" y2="270.016662995" /><line stroke="rgb(0%,0%,0%)" x1="336.722870031" x2="332.139532742" y1="270.016662995" y2="269.113527882" /><line stroke="rgb(0%,0%,0%)" x1="348.494965247" x2="345.126348096" y1="275.356463594" y2="273.586071867" /><line stroke="rgb(0%,0%,0%)" x1="345.126348096" x2="337.916232865" y1="273.586071867" y2="270.672529917" /><line stroke="rgb(0%,0%,0%)" x1="273.577297701" x2="270.75673461" y1="265.020459906" y2="263.692680796" /><line stroke="rgb(0%,0%,0%)" x1="280.180384544" x2="280.133015759" y1="264.014503176" y2="264.011547651" /><line stroke="rgb(0%,0%,0%)" x1="280.133015759" x2="273.577297701" y1="264.011547651" y2="265.020459906" /><line stroke="rgb(0%,0%,0%)" x1="270.75673461" x2="266.026005721" y1="263.692680796" y2="263.000224414" /><line stroke="rgb(0%,0%,0%)" x1="266.026005721" x2="262.024750511" y1="263.000224414" y2="262.989886464" /><line stroke="rgb(0%,0%,0%)" x1="287.815256733" x2="280.226380322" y1="267.691918688" y2="264.023736195" /><line stroke="rgb(0%,0%,0%)" x1="291.479224659" x2="288.13692653" y1="269.34342835" y2="267.548285494" /><line stroke="rgb(0%,0%,0%)" x1="291.479224659" x2="292.957446866" y1="269.34342835" y2="269.29483055" /><line stroke="rgb(0%,0%,0%)" x1="305.329971051" x2="299.176660756" y1="269.445207203" y2="270.546063723" /><line stroke="rgb(0%,0%,0%)" x1="295.646874631" x2="299.176660756" y1="269.942148803" y2="270.546063723" /><line stroke="rgb(0%,0%,0%)" x1="294.285053777" x2="292.957446866" y1="269.757218554" y2="269.29483055" /><line stroke="rgb(0%,0%,0%)" x1="295.646874631" x2="294.285053777" y1="269.942148803" y2="269.757218554" /><line stroke="rgb(0%,0%,0%)" x1="240.95102416" x2="239.144250334" y1="262.235748494" y2="262.580571192" /><line stroke="rgb(0%,0%,0%)" x1="240.95102416" x2="241.265504823" y1="262.235748494" y2="262.110661214" /><line stroke="rgb(0%,0%,0%)" x1="241.659599247" x2="241.265504823" y1="262.133401494" y2="262.110661214" /><line stroke="rgb(0%,0%,0%)" x1="241.659599247" x2="242.238027913" y1="262.133401494" y2="262.013744712" /><line stroke="rgb(0%,0%,0%)" x1="258.13097329" x2="262.024750511" y1="262.967960036" y2="262.989886464" /><line stroke="rgb(0%,0%,0%)" x1="258.13097329" x2="247.814262152" y1="262.967960036" y2="262.368594667" /><line stroke="rgb(0%,0%,0%)" x1="219.57782068" x2="211.185935158" y1="267.940614842" y2="269.590414216" /><line stroke="rgb(0%,0%,0%)" x1="239.144250334" x2="219.57782068" y1="262.580571192" y2="267.940614842" /><line stroke="rgb(0%,0%,0%)" x1="247.814262152" x2="242.238027913" y1="262.368594667" y2="262.013744712" /><line stroke="rgb(0%,0%,0%)" x1="158.861867858" x2="172.953240513" y1="299.1712654" y2="291.882004849" /><line stroke="rgb(0%,0%,0%)" x1="177.179155811" x2="178.837597986" y1="291.303762509" y2="288.93953228" /><line stroke="rgb(0%,0%,0%)" x1="177.179155811" x2="177.025492786" y1="291.303762509" y2="290.018419351" /><line stroke="rgb(0%,0%,0%)" x1="180.888309043" x2="178.837597986" y1="286.2794859" y2="288.93953228" /><line stroke="rgb(0%,0%,0%)" x1="180.888309043" x2="189.032314403" y1="286.2794859" y2="279.192239405" /><line stroke="rgb(0%,0%,0%)" x1="190.919766806" x2="189.032314403" y1="278.296634221" y2="279.192239405" /><line stroke="rgb(0%,0%,0%)" x1="190.919766806" x2="207.972099945" y1="278.296634221" y2="270.642741646" /><line stroke="rgb(0%,0%,0%)" x1="211.185935158" x2="209.243495272" y1="269.590414216" y2="270.165698539" /><line stroke="rgb(0%,0%,0%)" x1="209.243495272" x2="207.972099945" y1="270.165698539" y2="270.642741646" /><line stroke="rgb(0%,0%,0%)" x1="142.18934686" x2="139.742081896" y1="309.926460821" y2="310.835939312" /><line stroke="rgb(0%,0%,0%)" x1="142.18934686" x2="145.846769595" y1="309.926460821" y2="308.350875218" /><line stroke="rgb(0%,0%,0%)" x1="149.588141483" x2="145.846769595" y1="306.437658424" y2="308.350875218" /><line stroke="rgb(0%,0%,0%)" x1="158.861867858" x2="156.50802225" y1="299.1712654" y2="300.869043809" /><line stroke="rgb(0%,0%,0%)" x1="156.50802225" x2="149.588141483" y1="300.869043809" y2="306.437658424" /><line stroke="rgb(0%,0%,0%)" x1="175.55732608" x2="172.953240513" y1="290.54647332" y2="291.882004849" /><line stroke="rgb(0%,0%,0%)" x1="176.245765474" x2="175.55732608" y1="290.388470099" y2="290.54647332" /><line stroke="rgb(0%,0%,0%)" x1="177.025492786" x2="176.245765474" y1="290.018419351" y2="290.388470099" /><line stroke="rgb(0%,0%,0%)" x1="108.287596243" x2="106.881227738" y1="332.737389034" y2="334.400364907" /><line stroke="rgb(0%,0%,0%)" x1="119.346943082" x2="120.007249979" y1="326.466416586" y2="325.765714025" /><line stroke="rgb(0%,0%,0%)" x1="119.346943082" x2="108.287596243" y1="326.466416586" y2="332.737389034" /><line stroke="rgb(0%,0%,0%)" x1="124.647709709" x2="120.007249979" y1="321.471504545" y2="325.765714025" /><line stroke="rgb(0%,0%,0%)" x1="129.413772026" x2="124.647709709" y1="317.956567282" y2="321.471504545" /><line stroke="rgb(0%,0%,0%)" x1="129.413772026" x2="134.623382848" y1="317.956567282" y2="313.524427516" /><line stroke="rgb(0%,0%,0%)" x1="139.742081896" x2="134.623382848" y1="310.835939312" y2="313.524427516" /><line stroke="rgb(0%,0%,0%)" x1="59.6531426653" x2="59.7302774573" y1="411.601955668" y2="411.414496273" /><line stroke="rgb(0%,0%,0%)" x1="80.4028546568" x2="78.8463745894" y1="383.312538465" y2="384.159779513" /><line stroke="rgb(0%,0%,0%)" x1="80.4028546568" x2="83.3555920658" y1="383.312538465" y2="380.557303158" /><line stroke="rgb(0%,0%,0%)" x1="90.7280777517" x2="89.7639860195" y1="361.027006572" y2="366.238365263" /><line stroke="rgb(0%,0%,0%)" x1="93.7396071354" x2="93.0102800498" y1="354.390470924" y2="355.474465602" /><line stroke="rgb(0%,0%,0%)" x1="89.1914505333" x2="88.0574437611" y1="372.739297906" y2="376.455646499" /><line stroke="rgb(0%,0%,0%)" x1="93.0102800498" x2="90.7280777517" y1="355.474465602" y2="361.027006572" /><line stroke="rgb(0%,0%,0%)" x1="93.7396071354" x2="95.0804456575" y1="354.390470924" y2="352.90550639" /><line stroke="rgb(0%,0%,0%)" x1="102.52081358" x2="95.0804456575" y1="344.014627222" y2="352.90550639" /><line stroke="rgb(0%,0%,0%)" x1="106.881227738" x2="102.52081358" y1="334.400364907" y2="344.014627222" /><line stroke="rgb(0%,0%,0%)" x1="54.1731645517" x2="52.2398558631" y1="453.71311444" y2="450.377514945" /><line stroke="rgb(0%,0%,0%)" x1="59.4279721194" x2="59.0382743335" y1="411.969649639" y2="412.839239676" /><line stroke="rgb(0%,0%,0%)" x1="59.6531426653" x2="59.4279721194" y1="411.601955668" y2="411.969649639" /><line stroke="rgb(0%,0%,0%)" x1="67.0651393144" x2="59.7302774573" y1="400.847864907" y2="411.414496273" /><line stroke="rgb(0%,0%,0%)" x1="67.0651393144" x2="68.3608739015" y1="400.847864907" y2="398.469386984" /><line stroke="rgb(0%,0%,0%)" x1="70.1218005083" x2="68.3608739015" y1="395.332134806" y2="398.469386984" /><line stroke="rgb(0%,0%,0%)" x1="70.1218005083" x2="76.5341509334" y1="395.332134806" y2="386.598110652" /><line stroke="rgb(0%,0%,0%)" x1="77.7395342485" x2="76.5341509334" y1="385.132174513" y2="386.598110652" /><line stroke="rgb(0%,0%,0%)" x1="78.8463745894" x2="77.7395342485" y1="384.159779513" y2="385.132174513" /><line stroke="rgb(0%,0%,0%)" x1="86.5410588787" x2="83.3555920658" y1="377.634849154" y2="380.557303158" /><line stroke="rgb(0%,0%,0%)" x1="88.0574437611" x2="86.5410588787" y1="376.455646499" y2="377.634849154" /><line stroke="rgb(0%,0%,0%)" x1="90.1418816343" x2="89.1914505333" y1="371.344873426" y2="372.739297906" /><line stroke="rgb(0%,0%,0%)" x1="90.7273595803" x2="90.1418816343" y1="370.086447529" y2="371.344873426" /><line stroke="rgb(0%,0%,0%)" x1="89.7639860195" x2="90.7273595803" y1="366.238365263" y2="370.086447529" /><line stroke="rgb(0%,0%,0%)" x1="50.9069750463" x2="52.2398558631" y1="447.180775348" y2="450.377514945" /><line stroke="rgb(0%,0%,0%)" x1="50.9069750463" x2="50.1217653689" y1="447.180775348" y2="439.707884287" /><line stroke="rgb(0%,0%,0%)" x1="52.6552054" x2="51.2911276252" y1="426.608355783" y2="432.311041242" /><line stroke="rgb(0%,0%,0%)" x1="59.0382743335" x2="52.6552054" y1="412.839239676" y2="426.608355783" /><line stroke="rgb(0%,0%,0%)" x1="55.5130291382" x2="56.8315470564" y1="457.027399686" y2="459.636889258" /><line stroke="rgb(0%,0%,0%)" x1="54.1731645517" x2="55.5130291382" y1="453.71311444" y2="457.027399686" /><line stroke="rgb(0%,0%,0%)" x1="50.0992094976" x2="50.1217653689" y1="435.614522493" y2="439.707884287" /><line stroke="rgb(0%,0%,0%)" x1="51.2911276252" x2="50.0992094976" y1="432.311041242" y2="435.614522493" /><line stroke="rgb(0%,0%,0%)" x1="493.750597649" x2="491.258406599" y1="499.905140363" y2="505.780906815" /><line stroke="rgb(0%,0%,0%)" x1="493.750597649" x2="497.316780599" y1="499.905140363" y2="486.681114166" /><line stroke="rgb(0%,0%,0%)" x1="496.196735224" x2="498.153415075" y1="464.183472276" y2="479.653170284" /><line stroke="rgb(0%,0%,0%)" x1="498.139430665" x2="498.153415075" y1="481.17592286" y2="479.653170284" /><line stroke="rgb(0%,0%,0%)" x1="452.869191703" x2="456.262996957" y1="352.419893393" y2="356.273038299" /><line stroke="rgb(0%,0%,0%)" x1="452.869191703" x2="450.65367991" y1="352.419893393" y2="349.73499486" /><line stroke="rgb(0%,0%,0%)" x1="443.578084377" x2="445.656821521" y1="341.444031846" y2="343.984978883" /><line stroke="rgb(0%,0%,0%)" x1="443.578084377" x2="438.18910645" y1="341.444031846" y2="333.812804649" /><line stroke="rgb(0%,0%,0%)" x1="466.216332046" x2="465.114502121" y1="564.18696254" y2="566.282155808" /><line stroke="rgb(0%,0%,0%)" x1="463.143595188" x2="465.114502121" y1="569.664857018" y2="566.282155808" /><line stroke="rgb(0%,0%,0%)" x1="466.216332046" x2="467.614802876" y1="564.18696254" y2="558.556729426" /><line stroke="rgb(0%,0%,0%)" x1="457.949936396" x2="456.262996957" y1="360.304087417" y2="356.273038299" /><line stroke="rgb(0%,0%,0%)" x1="478.864710011" x2="472.916943569" y1="536.832250629" y2="549.585218391" /><line stroke="rgb(0%,0%,0%)" x1="484.444637388" x2="480.882907372" y1="524.086085782" y2="532.807405527" /><line stroke="rgb(0%,0%,0%)" x1="484.444637388" x2="487.322221001" y1="524.086085782" y2="514.068092689" /><line stroke="rgb(0%,0%,0%)" x1="489.80867971" x2="491.258406599" y1="508.883265476" y2="505.780906815" /><line stroke="rgb(0%,0%,0%)" x1="414.807465571" x2="415.654196788" y1="315.298513429" y2="315.743252025" /><line stroke="rgb(0%,0%,0%)" x1="414.807465571" x2="413.733969301" y1="315.298513429" y2="314.547075294" /><line stroke="rgb(0%,0%,0%)" x1="413.733969301" x2="407.679631989" y1="314.547075294" y2="310.554373196" /><line stroke="rgb(0%,0%,0%)" x1="430.263603971" x2="427.227166006" y1="327.769910154" y2="325.261000191" /><line stroke="rgb(0%,0%,0%)" x1="422.407001548" x2="424.03175728" y1="320.536066348" y2="322.563247997" /><line stroke="rgb(0%,0%,0%)" x1="422.407001548" x2="421.813289634" y1="320.536066348" y2="319.717712661" /><line stroke="rgb(0%,0%,0%)" x1="421.813289634" x2="415.654196788" y1="319.717712661" y2="315.743252025" /><line stroke="rgb(0%,0%,0%)" x1="438.18910645" x2="437.893649335" y1="333.812804649" y2="333.361810272" /><line stroke="rgb(0%,0%,0%)" x1="430.263603971" x2="437.57422679" y1="327.769910154" y2="333.016470907" /><line stroke="rgb(0%,0%,0%)" x1="450.65367991" x2="448.395572049" y1="349.73499486" y2="346.189792226" /><line stroke="rgb(0%,0%,0%)" x1="448.395572049" x2="445.656821521" y1="346.189792226" y2="343.984978883" /><line stroke="rgb(0%,0%,0%)" x1="467.614802876" x2="468.129893535" y1="558.556729426" y2="557.225051776" /><line stroke="rgb(0%,0%,0%)" x1="472.085253211" x2="468.129893535" y1="550.906215315" y2="557.225051776" /><line stroke="rgb(0%,0%,0%)" x1="472.085253211" x2="472.916943569" y1="550.906215315" y2="549.585218391" /><line stroke="rgb(0%,0%,0%)" x1="478.864710011" x2="480.882907372" y1="536.832250629" y2="532.807405527" /><line stroke="rgb(0%,0%,0%)" x1="487.322221001" x2="488.750292031" y1="514.068092689" y2="511.09474616" /><line stroke="rgb(0%,0%,0%)" x1="488.750292031" x2="489.80867971" y1="511.09474616" y2="508.883265476" /><line stroke="rgb(0%,0%,0%)" x1="497.316780599" x2="498.143537755" y1="486.681114166" y2="482.331128572" /><line stroke="rgb(0%,0%,0%)" x1="498.143537755" x2="498.139430665" y1="482.331128572" y2="481.17592286" /><line stroke="rgb(0%,0%,0%)" x1="392.263166609" x2="389.55176261" y1="634.74179224" y2="637.183984392" /><line stroke="rgb(0%,0%,0%)" x1="392.263166609" x2="396.30711238" y1="634.74179224" y2="630.736917526" /><line stroke="rgb(0%,0%,0%)" x1="404.766891359" x2="404.402017101" y1="307.195821492" y2="306.958651817" /><line stroke="rgb(0%,0%,0%)" x1="406.659980703" x2="410.747673792" y1="625.144106439" y2="623.168945949" /><line stroke="rgb(0%,0%,0%)" x1="410.747673792" x2="411.897637289" y1="623.168945949" y2="621.612116401" /><line stroke="rgb(0%,0%,0%)" x1="407.679631989" x2="404.766891359" y1="310.554373196" y2="307.195821492" /><line stroke="rgb(0%,0%,0%)" x1="427.227166006" x2="425.99008811" y1="325.261000191" y2="324.477806941" /><line stroke="rgb(0%,0%,0%)" x1="425.99008811" x2="424.03175728" y1="324.477806941" y2="322.563247997" /><line stroke="rgb(0%,0%,0%)" x1="437.893649335" x2="437.693755124" y1="333.361810272" y2="333.124267565" /><line stroke="rgb(0%,0%,0%)" x1="437.693755124" x2="437.57422679" y1="333.124267565" y2="333.016470907" /><line stroke="rgb(0%,0%,0%)" x1="339.166115659" x2="340.012036005" y1="659.477162032" y2="659.140851892" /><line stroke="rgb(0%,0%,0%)" x1="365.727201441" x2="357.869822342" y1="648.162631916" y2="652.467943699" /><line stroke="rgb(0%,0%,0%)" x1="365.727201441" x2="368.659751227" y1="648.162631916" y2="646.056083455" /><line stroke="rgb(0%,0%,0%)" x1="371.395535034" x2="376.555063207" y1="645.913644301" y2="644.552427883" /><line stroke="rgb(0%,0%,0%)" x1="376.555063207" x2="376.613884864" y1="644.552427883" y2="644.984037677" /><line stroke="rgb(0%,0%,0%)" x1="368.659751227" x2="371.395535034" y1="646.056083455" y2="645.913644301" /><line stroke="rgb(0%,0%,0%)" x1="380.171230331" x2="376.613884864" y1="644.148345894" y2="644.984037677" /><line stroke="rgb(0%,0%,0%)" x1="380.171230331" x2="387.006706851" y1="644.148345894" y2="638.561974441" /><line stroke="rgb(0%,0%,0%)" x1="387.006706851" x2="389.55176261" y1="638.561974441" y2="637.183984392" /><line stroke="rgb(0%,0%,0%)" x1="396.30711238" x2="398.829407959" y1="630.736917526" y2="628.908549194" /><line stroke="rgb(0%,0%,0%)" x1="401.510033446" x2="398.829407959" y1="628.109594172" y2="628.908549194" /><line stroke="rgb(0%,0%,0%)" x1="401.510033446" x2="404.452541714" y1="628.109594172" y2="626.062625058" /><line stroke="rgb(0%,0%,0%)" x1="404.452541714" x2="406.659980703" y1="626.062625058" y2="625.144106439" /><line stroke="rgb(0%,0%,0%)" x1="330.186348626" x2="328.948901231" y1="896.502263816" y2="897.498904582" /><line stroke="rgb(0%,0%,0%)" x1="330.186348626" x2="334.128305315" y1="896.502263816" y2="889.053559803" /><line stroke="rgb(0%,0%,0%)" x1="334.128305315" x2="334.72588161" y1="889.053559803" y2="888.09649235" /><line stroke="rgb(0%,0%,0%)" x1="335.471629685" x2="327.426761425" y1="826.704544061" y2="819.439910354" /><line stroke="rgb(0%,0%,0%)" x1="327.426761425" x2="322.143797104" y1="819.439910354" y2="817.200406643" /><line stroke="rgb(0%,0%,0%)" x1="335.471629685" x2="336.108031978" y1="826.704544061" y2="827.104032239" /><line stroke="rgb(0%,0%,0%)" x1="339.166115659" x2="334.805279267" y1="659.477162032" y2="659.76086671" /><line stroke="rgb(0%,0%,0%)" x1="334.72588161" x2="337.520646753" y1="888.09649235" y2="879.895130292" /><line stroke="rgb(0%,0%,0%)" x1="341.114496288" x2="342.004294781" y1="870.318133896" y2="865.525444315" /><line stroke="rgb(0%,0%,0%)" x1="344.253468055" x2="342.073735231" y1="857.249621805" y2="863.157216853" /><line stroke="rgb(0%,0%,0%)" x1="342.176198073" x2="342.073735231" y1="863.587855605" y2="863.157216853" /><line stroke="rgb(0%,0%,0%)" x1="342.004294781" x2="342.176198073" y1="865.525444315" y2="863.587855605" /><line stroke="rgb(0%,0%,0%)" x1="344.253468055" x2="343.765069549" y1="857.249621805" y2="850.563222758" /><line stroke="rgb(0%,0%,0%)" x1="343.013075812" x2="342.303557002" y1="845.927001166" y2="842.543088876" /><line stroke="rgb(0%,0%,0%)" x1="343.013075812" x2="343.765069549" y1="845.927001166" y2="850.563222758" /><line stroke="rgb(0%,0%,0%)" x1="342.303557002" x2="339.152898537" y1="842.543088876" y2="834.817771996" /><line stroke="rgb(0%,0%,0%)" x1="338.131402516" x2="336.643061186" y1="832.115194877" y2="829.16288896" /><line stroke="rgb(0%,0%,0%)" x1="339.152898537" x2="338.131402516" y1="834.817771996" y2="832.115194877" /><line stroke="rgb(0%,0%,0%)" x1="336.108031978" x2="336.643061186" y1="827.104032239" y2="829.16288896" /><line stroke="rgb(0%,0%,0%)" x1="340.012036005" x2="346.417127741" y1="659.140851892" y2="657.375889581" /><line stroke="rgb(0%,0%,0%)" x1="346.417127741" x2="351.990903431" y1="657.375889581" y2="655.659536047" /><line stroke="rgb(0%,0%,0%)" x1="351.990903431" x2="355.034382825" y1="655.659536047" y2="654.020357969" /><line stroke="rgb(0%,0%,0%)" x1="355.034382825" x2="357.869822342" y1="654.020357969" y2="652.467943699" /><line stroke="rgb(0%,0%,0%)" x1="300.238908857" x2="299.950747365" y1="825.688511882" y2="828.907527643" /><line stroke="rgb(0%,0%,0%)" x1="295.265735778" x2="286.030778541" y1="662.15263391" y2="664.150622724" /><line stroke="rgb(0%,0%,0%)" x1="306.052135657" x2="308.079000135" y1="848.079811498" y2="858.571303913" /><line stroke="rgb(0%,0%,0%)" x1="298.807517327" x2="304.892998822" y1="844.743684236" y2="846.975810151" /><line stroke="rgb(0%,0%,0%)" x1="298.807517327" x2="297.902954638" y1="844.743684236" y2="838.101314024" /><line stroke="rgb(0%,0%,0%)" x1="297.947044559" x2="298.241538667" y1="831.519397583" y2="836.379946863" /><line stroke="rgb(0%,0%,0%)" x1="299.950747365" x2="297.947044559" y1="828.907527643" y2="831.519397583" /><line stroke="rgb(0%,0%,0%)" x1="300.238908857" x2="301.577857205" y1="825.688511882" y2="823.559724246" /><line stroke="rgb(0%,0%,0%)" x1="307.109521299" x2="301.577857205" y1="821.461027194" y2="823.559724246" /><line stroke="rgb(0%,0%,0%)" x1="307.109521299" x2="312.002814047" y1="821.461027194" y2="819.060779771" /><line stroke="rgb(0%,0%,0%)" x1="304.225272795" x2="303.733013536" y1="660.426993952" y2="660.631360509" /><line stroke="rgb(0%,0%,0%)" x1="304.225272795" x2="307.680442149" y1="660.426993952" y2="661.516132839" /><line stroke="rgb(0%,0%,0%)" x1="295.265735778" x2="296.734335229" y1="662.15263391" y2="661.929403086" /><line stroke="rgb(0%,0%,0%)" x1="296.734335229" x2="302.272350543" y1="661.929403086" y2="660.988991774" /><line stroke="rgb(0%,0%,0%)" x1="302.272350543" x2="303.733013536" y1="660.988991774" y2="660.631360509" /><line stroke="rgb(0%,0%,0%)" x1="313.284227774" x2="316.111880832" y1="912.536635189" y2="912.061066445" /><line stroke="rgb(0%,0%,0%)" x1="310.738620371" x2="313.284227774" y1="913.454469488" y2="912.536635189" /><line stroke="rgb(0%,0%,0%)" x1="310.738620371" x2="309.887187354" y1="913.454469488" y2="912.032315488" /><line stroke="rgb(0%,0%,0%)" x1="309.887187354" x2="308.453487055" y1="912.032315488" y2="908.400362536" /><line stroke="rgb(0%,0%,0%)" x1="307.313575268" x2="308.453487055" y1="907.001725709" y2="908.400362536" /><line stroke="rgb(0%,0%,0%)" x1="307.044982292" x2="308.477026416" y1="903.665196996" y2="896.671251131" /><line stroke="rgb(0%,0%,0%)" x1="308.906435831" x2="308.477026416" y1="895.603091252" y2="896.671251131" /><line stroke="rgb(0%,0%,0%)" x1="309.029393891" x2="308.906435831" y1="895.263675574" y2="895.603091252" /><line stroke="rgb(0%,0%,0%)" x1="314.176841553" x2="312.074852985" y1="874.812799705" y2="885.952805031" /><line stroke="rgb(0%,0%,0%)" x1="311.930422869" x2="311.833268521" y1="886.495612685" y2="886.974058728" /><line stroke="rgb(0%,0%,0%)" x1="312.074852985" x2="311.930422869" y1="885.952805031" y2="886.495612685" /><line stroke="rgb(0%,0%,0%)" x1="311.02415237" x2="312.421798039" y1="866.424666186" y2="869.711152192" /><line stroke="rgb(0%,0%,0%)" x1="311.02415237" x2="308.53028566" y1="866.424666186" y2="860.749928751" /><line stroke="rgb(0%,0%,0%)" x1="319.767273168" x2="315.990663007" y1="816.884808606" y2="817.278564627" /><line stroke="rgb(0%,0%,0%)" x1="307.680442149" x2="316.495716388" y1="661.516132839" y2="660.139614019" /><line stroke="rgb(0%,0%,0%)" x1="316.495716388" x2="319.013651648" y1="660.139614019" y2="660.430588801" /><line stroke="rgb(0%,0%,0%)" x1="323.983062138" x2="321.650932433" y1="905.271260554" y2="906.967004658" /><line stroke="rgb(0%,0%,0%)" x1="323.983062138" x2="328.948901231" y1="905.271260554" y2="897.498904582" /><line stroke="rgb(0%,0%,0%)" x1="322.143797104" x2="319.767273168" y1="817.200406643" y2="816.884808606" /><line stroke="rgb(0%,0%,0%)" x1="331.143796364" x2="325.651351105" y1="660.026674484" y2="660.168911187" /><line stroke="rgb(0%,0%,0%)" x1="319.013651648" x2="324.776808234" y1="660.430588801" y2="660.116135719" /><line stroke="rgb(0%,0%,0%)" x1="331.143796364" x2="331.417956624" y1="660.026674484" y2="659.873703065" /><line stroke="rgb(0%,0%,0%)" x1="331.417956624" x2="334.805279267" y1="659.873703065" y2="659.76086671" /><line stroke="rgb(0%,0%,0%)" x1="324.776808234" x2="325.229645466" y1="660.116135719" y2="660.10538296" /><line stroke="rgb(0%,0%,0%)" x1="325.229645466" x2="325.651351105" y1="660.10538296" y2="660.168911187" /><line stroke="rgb(0%,0%,0%)" x1="337.520646753" x2="339.230403437" y1="879.895130292" y2="874.421349463" /><line stroke="rgb(0%,0%,0%)" x1="340.072805584" x2="341.114496288" y1="872.300051423" y2="870.318133896" /><line stroke="rgb(0%,0%,0%)" x1="280.395882392" x2="274.119931821" y1="664.919393095" y2="666.259368279" /><line stroke="rgb(0%,0%,0%)" x1="280.395882392" x2="281.949906956" y1="664.919393095" y2="665.243287624" /><line stroke="rgb(0%,0%,0%)" x1="272.656610764" x2="274.119931821" y1="666.403052257" y2="666.259368279" /><line stroke="rgb(0%,0%,0%)" x1="281.949906956" x2="283.586195038" y1="665.243287624" y2="665.005271505" /><line stroke="rgb(0%,0%,0%)" x1="283.586195038" x2="286.030778541" y1="665.005271505" y2="664.150622724" /><line stroke="rgb(0%,0%,0%)" x1="304.965094646" x2="306.052135657" y1="847.165499752" y2="848.079811498" /><line stroke="rgb(0%,0%,0%)" x1="304.892998822" x2="304.965094646" y1="846.975810151" y2="847.165499752" /><line stroke="rgb(0%,0%,0%)" x1="297.797475835" x2="297.902954638" y1="837.664708131" y2="838.101314024" /><line stroke="rgb(0%,0%,0%)" x1="298.241538667" x2="297.797475835" y1="836.379946863" y2="837.664708131" /><line stroke="rgb(0%,0%,0%)" x1="316.111880832" x2="321.650932433" y1="912.061066445" y2="906.967004658" /><line stroke="rgb(0%,0%,0%)" x1="307.044982292" x2="307.313575268" y1="903.665196996" y2="907.001725709" /><line stroke="rgb(0%,0%,0%)" x1="313.937029345" x2="314.176841553" y1="873.474476425" y2="874.812799705" /><line stroke="rgb(0%,0%,0%)" x1="312.421798039" x2="313.937029345" y1="869.711152192" y2="873.474476425" /><line stroke="rgb(0%,0%,0%)" x1="308.079000135" x2="308.53028566" y1="858.571303913" y2="860.749928751" /><line stroke="rgb(0%,0%,0%)" x1="314.076476935" x2="312.002814047" y1="817.594706926" y2="819.060779771" /><line stroke="rgb(0%,0%,0%)" x1="315.990663007" x2="314.076476935" y1="817.278564627" y2="817.594706926" /><line stroke="rgb(0%,0%,0%)" x1="339.230403437" x2="339.601805147" y1="874.421349463" y2="872.913090329" /><line stroke="rgb(0%,0%,0%)" x1="339.601805147" x2="340.072805584" y1="872.913090329" y2="872.300051423" /><line stroke="rgb(0%,0%,0%)" x1="203.40700643" x2="222.386430408" y1="648.688086129" y2="655.238965075" /><line stroke="rgb(0%,0%,0%)" x1="222.386430408" x2="226.164747779" y1="655.238965075" y2="656.762804111" /><line stroke="rgb(0%,0%,0%)" x1="236.57108886" x2="245.614731358" y1="660.009745726" y2="663.859979212" /><line stroke="rgb(0%,0%,0%)" x1="230.477935659" x2="226.164747779" y1="657.939861775" y2="656.762804111" /><line stroke="rgb(0%,0%,0%)" x1="230.477935659" x2="236.57108886" y1="657.939861775" y2="660.009745726" /><line stroke="rgb(0%,0%,0%)" x1="245.614731358" x2="245.81580279" y1="663.859979212" y2="663.911847545" /><line stroke="rgb(0%,0%,0%)" x1="245.81580279" x2="245.952942299" y1="663.911847545" y2="663.95110454" /><line stroke="rgb(0%,0%,0%)" x1="260.641233886" x2="245.952942299" y1="665.379554356" y2="663.95110454" /><line stroke="rgb(0%,0%,0%)" x1="260.641233886" x2="272.079956144" y1="665.379554356" y2="666.334574089" /><line stroke="rgb(0%,0%,0%)" x1="272.079956144" x2="272.656610764" y1="666.334574089" y2="666.403052257" /><line stroke="rgb(0%,0%,0%)" x1="185.994547329" x2="185.006697652" y1="635.110419146" y2="633.191459973" /><line stroke="rgb(0%,0%,0%)" x1="165.108663303" x2="168.156357349" y1="623.156745447" y2="624.696343376" /><line stroke="rgb(0%,0%,0%)" x1="185.994547329" x2="191.751689728" y1="635.110419146" y2="640.403756875" /><line stroke="rgb(0%,0%,0%)" x1="182.612676318" x2="185.006697652" y1="630.796290515" y2="633.191459973" /><line stroke="rgb(0%,0%,0%)" x1="203.40700643" x2="201.64269321" y1="648.688086129" y2="647.830735625" /><line stroke="rgb(0%,0%,0%)" x1="191.751689728" x2="201.64269321" y1="640.403756875" y2="647.830735625" /><line stroke="rgb(0%,0%,0%)" x1="135.337394451" x2="141.411986508" y1="605.930493618" y2="608.929854373" /><line stroke="rgb(0%,0%,0%)" x1="149.558412459" x2="144.726710082" y1="612.743098716" y2="610.701609977" /><line stroke="rgb(0%,0%,0%)" x1="165.108663303" x2="160.13521536" y1="623.156745447" y2="620.246584047" /><line stroke="rgb(0%,0%,0%)" x1="153.545225384" x2="154.240543787" y1="615.768485886" y2="616.241512227" /><line stroke="rgb(0%,0%,0%)" x1="153.545225384" x2="153.266010103" y1="615.768485886" y2="615.543733531" /><line stroke="rgb(0%,0%,0%)" x1="168.156357349" x2="174.859964064" y1="624.696343376" y2="627.459671605" /><line stroke="rgb(0%,0%,0%)" x1="174.859964064" x2="182.612676318" y1="627.459671605" y2="630.796290515" /><line stroke="rgb(0%,0%,0%)" x1="135.337394451" x2="126.490023872" y1="605.930493618" y2="598.929408489" /><line stroke="rgb(0%,0%,0%)" x1="121.272224493" x2="126.490023872" y1="594.559458248" y2="598.929408489" /><line stroke="rgb(0%,0%,0%)" x1="117.744512517" x2="121.272224493" y1="591.807604435" y2="594.559458248" /><line stroke="rgb(0%,0%,0%)" x1="141.411986508" x2="142.754817945" y1="608.929854373" y2="609.242583803" /><line stroke="rgb(0%,0%,0%)" x1="143.126019835" x2="143.548262721" y1="609.552426717" y2="609.928434257" /><line stroke="rgb(0%,0%,0%)" x1="143.976789794" x2="144.726710082" y1="610.287339603" y2="610.701609977" /><line stroke="rgb(0%,0%,0%)" x1="143.548262721" x2="143.976789794" y1="609.928434257" y2="610.287339603" /><line stroke="rgb(0%,0%,0%)" x1="142.754817945" x2="143.126019835" y1="609.242583803" y2="609.552426717" /><line stroke="rgb(0%,0%,0%)" x1="94.3062891796" x2="93.9969431399" y1="561.4032984" y2="559.955057678" /><line stroke="rgb(0%,0%,0%)" x1="94.3062891796" x2="96.4102708407" y1="561.4032984" y2="565.915595688" /><line stroke="rgb(0%,0%,0%)" x1="79.72062356" x2="91.2161519671" y1="536.49966565" y2="545.021927431" /><line stroke="rgb(0%,0%,0%)" x1="94.4594042555" x2="93.4608120931" y1="555.568905974" y2="548.157465682" /><line stroke="rgb(0%,0%,0%)" x1="94.4594042555" x2="93.9969431399" y1="555.568905974" y2="559.955057678" /><line stroke="rgb(0%,0%,0%)" x1="104.208673783" x2="107.737231533" y1="576.500175478" y2="583.936719354" /><line stroke="rgb(0%,0%,0%)" x1="104.208673783" x2="99.3360275068" y1="576.500175478" y2="571.018679543" /><line stroke="rgb(0%,0%,0%)" x1="96.4102708407" x2="98.2114126165" y1="565.915595688" y2="569.369927328" /><line stroke="rgb(0%,0%,0%)" x1="98.2114126165" x2="99.3360275068" y1="569.369927328" y2="571.018679543" /><line stroke="rgb(0%,0%,0%)" x1="92.9575699528" x2="93.4608120931" y1="546.451178423" y2="548.157465682" /><line stroke="rgb(0%,0%,0%)" x1="111.248353145" x2="117.744512517" y1="587.805329749" y2="591.807604435" /><line stroke="rgb(0%,0%,0%)" x1="107.737231533" x2="111.248353145" y1="583.936719354" y2="587.805329749" /><line stroke="rgb(0%,0%,0%)" x1="53.2809965491" x2="53.7322492319" y1="496.785974916" y2="496.014869319" /><line stroke="rgb(0%,0%,0%)" x1="53.7322492319" x2="46.5956732006" y1="496.014869319" y2="483.961074905" /><line stroke="rgb(0%,0%,0%)" x1="47.2102717268" x2="46.5513021751" y1="478.945902733" y2="483.420583317" /><line stroke="rgb(0%,0%,0%)" x1="47.2102717268" x2="49.3156126885" y1="478.945902733" y2="476.01450651" /><line stroke="rgb(0%,0%,0%)" x1="50.2072447877" x2="49.3156126885" y1="472.983257567" y2="476.01450651" /><line stroke="rgb(0%,0%,0%)" x1="52.1077099797" x2="50.2072447877" y1="469.024342519" y2="472.983257567" /><line stroke="rgb(0%,0%,0%)" x1="55.4414664679" x2="52.1077099797" y1="463.089292622" y2="469.024342519" /><line stroke="rgb(0%,0%,0%)" x1="55.4414664679" x2="56.8315470564" y1="463.089292622" y2="459.636889258" /><line stroke="rgb(0%,0%,0%)" x1="60.0288471492" x2="69.1914716922" y1="511.578778389" y2="524.617781106" /><line stroke="rgb(0%,0%,0%)" x1="58.9057573272" x2="60.0288471492" y1="509.765242974" y2="511.578778389" /><line stroke="rgb(0%,0%,0%)" x1="58.169740499" x2="58.9057573272" y1="508.101280774" y2="509.765242974" /><line stroke="rgb(0%,0%,0%)" x1="53.2809965491" x2="58.169740499" y1="496.785974916" y2="508.101280774" /><line stroke="rgb(0%,0%,0%)" x1="74.6027587967" x2="69.954258636" y1="530.986293683" y2="525.523471031" /><line stroke="rgb(0%,0%,0%)" x1="74.6027587967" x2="79.72062356" y1="530.986293683" y2="536.49966565" /><line stroke="rgb(0%,0%,0%)" x1="69.1914716922" x2="69.954258636" y1="524.617781106" y2="525.523471031" /><line stroke="rgb(0%,0%,0%)" x1="91.2161519671" x2="92.9575699528" y1="545.021927431" y2="546.451178423" /><line stroke="rgb(0%,0%,0%)" x1="46.5513021751" x2="46.5956732006" y1="483.420583317" y2="483.961074905" /><line stroke="rgb(0%,0%,0%)" x1="416.802997214" x2="418.460062033" y1="617.491087629" y2="616.730766201" /><line stroke="rgb(0%,0%,0%)" x1="429.142214165" x2="430.32566631" y1="610.229384504" y2="608.651968815" /><line stroke="rgb(0%,0%,0%)" x1="448.351291958" x2="445.759068154" y1="591.48034187" y2="595.867969145" /><line stroke="rgb(0%,0%,0%)" x1="449.491496942" x2="448.351291958" y1="589.929096106" y2="591.48034187" /><line stroke="rgb(0%,0%,0%)" x1="449.491496942" x2="452.356432994" y1="589.929096106" y2="586.172819257" /><line stroke="rgb(0%,0%,0%)" x1="452.356432994" x2="461.91313638" y1="586.172819257" y2="574.272672979" /><line stroke="rgb(0%,0%,0%)" x1="416.802997214" x2="415.507356254" y1="617.491087629" y2="618.691089162" /><line stroke="rgb(0%,0%,0%)" x1="415.507356254" x2="413.922161283" y1="618.691089162" y2="619.828652367" /><line stroke="rgb(0%,0%,0%)" x1="411.897637289" x2="413.922161283" y1="621.612116401" y2="619.828652367" /><line stroke="rgb(0%,0%,0%)" x1="418.460062033" x2="421.417511519" y1="616.730766201" y2="614.513149781" /><line stroke="rgb(0%,0%,0%)" x1="421.417511519" x2="427.487163918" y1="614.513149781" y2="610.931444736" /><line stroke="rgb(0%,0%,0%)" x1="429.142214165" x2="427.487163918" y1="610.229384504" y2="610.931444736" /><line stroke="rgb(0%,0%,0%)" x1="430.32566631" x2="431.305364822" y1="608.651968815" y2="607.371371559" /><line stroke="rgb(0%,0%,0%)" x1="431.305364822" x2="436.95555771" y1="607.371371559" y2="603.08752665" /><line stroke="rgb(0%,0%,0%)" x1="436.95555771" x2="437.791599871" y1="603.08752665" y2="601.511058566" /><line stroke="rgb(0%,0%,0%)" x1="437.791599871" x2="445.14970644" y1="601.511058566" y2="596.84836518" /><line stroke="rgb(0%,0%,0%)" x1="445.14970644" x2="445.759068154" y1="596.84836518" y2="595.867969145" /><line stroke="rgb(0%,0%,0%)" x1="461.91313638" x2="462.670336961" y1="574.272672979" y2="571.769651871" /><line stroke="rgb(0%,0%,0%)" x1="462.670336961" x2="463.143595188" y1="571.769651871" y2="569.664857018" /><line stroke="rgb(0%,0%,0%)" x1="309.292033863" x2="309.029393891" y1="894.25345598" y2="895.263675574" /><line stroke="rgb(0%,0%,0%)" x1="311.833268521" x2="311.492879315" y1="886.974058728" y2="888.000408891" /><line stroke="rgb(0%,0%,0%)" x1="309.443970683" x2="309.292033863" y1="893.878435345" y2="894.25345598" /><line stroke="rgb(0%,0%,0%)" x1="309.443970683" x2="311.492879315" y1="893.878435345" y2="888.000408891" /><line stroke="rgb(0%,0%,0%)" x1="149.558412459" x2="153.266010103" y1="612.743098716" y2="615.543733531" /><line stroke="rgb(0%,0%,0%)" x1="159.719303973" x2="160.13521536" y1="619.887180146" y2="620.246584047" /><line stroke="rgb(0%,0%,0%)" x1="154.240543787" x2="159.719303973" y1="616.241512227" y2="619.887180146" /></svg>