<?xml version="1.0" encoding="utf-8" ?>
<svg baseProfile="full" height="100%" version="1.1" viewBox="0.5 0.5 685.793960571 941.299331665" width="100%" xmlns="http://www.w3.org/2000/svg" xmlns:ev="http://www.w3.org/2001/xml-events" xmlns:xlink="http://www.w3.org/1999/xlink"><defs /><line stroke="rgb(0%,0%,0%)" x1="495.903100474" x2="496.446444947" y1="464.199948544" y2="459.94822849" /><line stroke="rgb(0%,0%,0%)" x1="496.667768093" x2="496.776907669" y1="444.326968462" y2="445.977475174" /><line stroke="rgb(0%,0%,0%)" x1="496.667768093" x2="494.490957636" y1="444.326968462" y2="433.767084889" /><line stroke="rgb(0%,0%,0%)" x1="494.490957636" x2="493.970418592" y1="433.767084889" y2="432.088861709" /><line stroke="rgb(0%,0%,0%)" x1="493.970418592" x2="494.386297003" y1="432.088861709" y2="430.122313619" /><line stroke="rgb(0%,0%,0%)" x1="487.364055188" x2="487.409961087" y1="414.499266336" y2="414.642925796" /><line stroke="rgb(0%,0%,0%)" x1="487.364055188" x2="487.114896719" y1="414.499266336" y2="414.197812674" /><line stroke="rgb(0%,0%,0%)" x1="467.133145761" x2="474.439553495" y1="379.151375594" y2="390.736283727" /><line stroke="rgb(0%,0%,0%)" x1="457.279277963" x2="457.219848521" y1="360.717742724" y2="360.643007656" /><line stroke="rgb(0%,0%,0%)" x1="476.720848722" x2="483.376310943" y1="394.537048121" y2="409.387393766" /><line stroke="rgb(0%,0%,0%)" x1="496.446444947" x2="496.776907669" y1="459.94822849" y2="445.977475174" /><line stroke="rgb(0%,0%,0%)" x1="494.386297003" x2="494.513508216" y1="430.122313619" y2="425.416467547" /><line stroke="rgb(0%,0%,0%)" x1="494.513508216" x2="487.82604253" y1="425.416467547" y2="415.165944932" /><line stroke="rgb(0%,0%,0%)" x1="487.409961087" x2="487.82604253" y1="414.642925796" y2="415.165944932" /><line stroke="rgb(0%,0%,0%)" x1="476.720848722" x2="474.439553495" y1="394.537048121" y2="390.736283727" /><line stroke="rgb(0%,0%,0%)" x1="467.133145761" x2="464.849676069" y1="379.151375594" y2="375.900773182" /><line stroke="rgb(0%,0%,0%)" x1="464.849676069" x2="457.691711526" y1="375.900773182" y2="361.630775785" /><line stroke="rgb(0%,0%,0%)" x1="457.279277963" x2="457.691711526" y1="360.717742724" y2="361.630775785" /><line stroke="rgb(0%,0%,0%)" x1="487.114896719" x2="485.503282429" y1="414.197812674" y2="412.766220871" /><line stroke="rgb(0%,0%,0%)" x1="485.503282429" x2="484.938907891" y1="412.766220871" y2="411.773774055" /><line stroke="rgb(0%,0%,0%)" x1="484.938907891" x2="483.376310943" y1="411.773774055" y2="409.387393766" /><line stroke="rgb(0%,0%,0%)" x1="402.062940722" x2="404.379476795" y1="306.076660936" y2="307.234979182" /><line stroke="rgb(0%,0%,0%)" x1="380.10732341" x2="372.159331721" y1="288.857385104" y2="284.483965296" /><line stroke="rgb(0%,0%,0%)" x1="381.287137008" x2="383.918874948" y1="290.981859235" y2="293.486488233" /><line stroke="rgb(0%,0%,0%)" x1="381.287137008" x2="380.10732341" y1="290.981859235" y2="288.857385104" /><line stroke="rgb(0%,0%,0%)" x1="396.277233576" x2="393.89795339" y1="301.899068028" y2="300.547018119" /><line stroke="rgb(0%,0%,0%)" x1="396.277233576" x2="400.333716947" y1="301.899068028" y2="304.84482149" /><line stroke="rgb(0%,0%,0%)" x1="389.686666617" x2="383.918874948" y1="298.385664326" y2="293.486488233" /><line stroke="rgb(0%,0%,0%)" x1="402.062940722" x2="400.333716947" y1="306.076660936" y2="304.84482149" /><line stroke="rgb(0%,0%,0%)" x1="326.642570429" x2="329.467925489" y1="268.515473756" y2="268.512443832" /><line stroke="rgb(0%,0%,0%)" x1="323.754090525" x2="326.642570429" y1="268.416496212" y2="268.515473756" /><line stroke="rgb(0%,0%,0%)" x1="317.665258912" x2="316.218408218" y1="268.108682083" y2="268.382540403" /><line stroke="rgb(0%,0%,0%)" x1="355.961429665" x2="354.195809273" y1="279.256259816" y2="278.582196465" /><line stroke="rgb(0%,0%,0%)" x1="354.195809273" x2="348.87742538" y1="278.582196465" y2="275.902936986" /><line stroke="rgb(0%,0%,0%)" x1="363.866283586" x2="358.426707633" y1="281.666080113" y2="280.74129478" /><line stroke="rgb(0%,0%,0%)" x1="355.961429665" x2="358.426707633" y1="279.256259816" y2="280.74129478" /><line stroke="rgb(0%,0%,0%)" x1="366.595459621" x2="365.537377924" y1="282.077622548" y2="281.75378324" /><line stroke="rgb(0%,0%,0%)" x1="363.866283586" x2="365.537377924" y1="281.666080113" y2="281.75378324" /><line stroke="rgb(0%,0%,0%)" x1="369.77791293" x2="366.595459621" y1="282.968903423" y2="282.077622548" /><line stroke="rgb(0%,0%,0%)" x1="372.159331721" x2="369.77791293" y1="284.483965296" y2="282.968903423" /><line stroke="rgb(0%,0%,0%)" x1="393.89795339" x2="389.686666617" y1="300.547018119" y2="298.385664326" /><line stroke="rgb(0%,0%,0%)" x1="288.041870582" x2="288.128235637" y1="268.243045118" y2="268.204481072" /><line stroke="rgb(0%,0%,0%)" x1="316.218408218" x2="310.784182434" y1="268.382540403" y2="268.744339443" /><line stroke="rgb(0%,0%,0%)" x1="310.784182434" x2="305.315297529" y1="268.744339443" y2="269.599880879" /><line stroke="rgb(0%,0%,0%)" x1="323.754090525" x2="317.665258912" y1="268.416496212" y2="268.108682083" /><line stroke="rgb(0%,0%,0%)" x1="332.471490632" x2="329.467925489" y1="269.476198941" y2="268.512443832" /><line stroke="rgb(0%,0%,0%)" x1="338.228446313" x2="336.726955684" y1="271.139940243" y2="270.314727651" /><line stroke="rgb(0%,0%,0%)" x1="336.726955684" x2="332.471490632" y1="270.314727651" y2="269.476198941" /><line stroke="rgb(0%,0%,0%)" x1="348.87742538" x2="345.09158825" y1="275.902936986" y2="273.913273443" /><line stroke="rgb(0%,0%,0%)" x1="345.09158825" x2="338.228446313" y1="273.913273443" y2="271.139940243" /><line stroke="rgb(0%,0%,0%)" x1="273.748149972" x2="270.730026432" y1="265.479392803" y2="264.05861218" /><line stroke="rgb(0%,0%,0%)" x1="273.748149972" x2="279.545888017" y1="265.479392803" y2="264.587132199" /><line stroke="rgb(0%,0%,0%)" x1="270.730026432" x2="267.063569447" y1="264.05861218" y2="263.521937684" /><line stroke="rgb(0%,0%,0%)" x1="267.063569447" x2="262.325702924" y1="263.521937684" y2="263.509696569" /><line stroke="rgb(0%,0%,0%)" x1="288.041870582" x2="285.841046039" y1="268.243045118" y2="267.179247841" /><line stroke="rgb(0%,0%,0%)" x1="285.841046039" x2="280.073001568" y1="267.179247841" y2="264.839365658" /><line stroke="rgb(0%,0%,0%)" x1="291.89723118" x2="288.128235637" y1="270.22880241" y2="268.204481072" /><line stroke="rgb(0%,0%,0%)" x1="291.89723118" x2="292.899686855" y1="270.22880241" y2="270.195845836" /><line stroke="rgb(0%,0%,0%)" x1="305.315297529" x2="297.242668105" y1="269.599880879" y2="271.044112732" /><line stroke="rgb(0%,0%,0%)" x1="295.338775488" x2="297.242668105" y1="270.718373688" y2="271.044112732" /><line stroke="rgb(0%,0%,0%)" x1="293.800002841" x2="292.899686855" y1="270.509414037" y2="270.195845836" /><line stroke="rgb(0%,0%,0%)" x1="295.338775488" x2="293.800002841" y1="270.718373688" y2="270.509414037" /><line stroke="rgb(0%,0%,0%)" x1="259.496950417" x2="262.325702924" y1="263.49376745" y2="263.509696569" /><line stroke="rgb(0%,0%,0%)" x1="259.496950417" x2="247.772961652" y1="263.49376745" y2="262.8126441" /><line stroke="rgb(0%,0%,0%)" x1="280.073001568" x2="279.545888017" y1="264.839365658" y2="264.587132199" /><line stroke="rgb(0%,0%,0%)" x1="219.837912534" x2="212.599543295" y1="268.423590372" y2="269.846614675" /><line stroke="rgb(0%,0%,0%)" x1="219.837912534" x2="240.846402253" y1="268.423590372" y2="262.668507616" /><line stroke="rgb(0%,0%,0%)" x1="241.863827612" x2="240.846402253" y1="262.436609692" y2="262.668507616" /><line stroke="rgb(0%,0%,0%)" x1="247.772961652" x2="241.863827612" y1="262.8126441" y2="262.436609692" /><line stroke="rgb(0%,0%,0%)" x1="159.411987702" x2="170.656634202" y1="298.867432077" y2="293.050741244" /><line stroke="rgb(0%,0%,0%)" x1="178.35852477" x2="179.837424003" y1="290.735023574" y2="288.626744898" /><line stroke="rgb(0%,0%,0%)" x1="178.35852477" x2="178.221497303" y1="290.735023574" y2="289.58883166" /><line stroke="rgb(0%,0%,0%)" x1="181.666125092" x2="179.837424003" y1="286.254675126" y2="288.626744898" /><line stroke="rgb(0%,0%,0%)" x1="181.666125092" x2="188.928460471" y1="286.254675126" y2="279.934693902" /><line stroke="rgb(0%,0%,0%)" x1="191.509325141" x2="188.928460471" y1="278.710061285" y2="279.934693902" /><line stroke="rgb(0%,0%,0%)" x1="191.509325141" x2="207.634247398" y1="278.710061285" y2="271.472434519" /><line stroke="rgb(0%,0%,0%)" x1="212.599543295" x2="209.598521725" y1="269.846614675" y2="270.735414721" /><line stroke="rgb(0%,0%,0%)" x1="209.598521725" x2="207.634247398" y1="270.735414721" y2="271.472434519" /><line stroke="rgb(0%,0%,0%)" x1="142.625082098" x2="141.010504724" y1="310.030855523" y2="310.630881845" /><line stroke="rgb(0%,0%,0%)" x1="142.625082098" x2="145.03805825" y1="310.030855523" y2="308.991366582" /><line stroke="rgb(0%,0%,0%)" x1="149.423162789" x2="145.03805825" y1="306.748965694" y2="308.991366582" /><line stroke="rgb(0%,0%,0%)" x1="159.411987702" x2="157.533663821" y1="298.867432077" y2="300.222226851" /><line stroke="rgb(0%,0%,0%)" x1="157.533663821" x2="149.423162789" y1="300.222226851" y2="306.748965694" /><line stroke="rgb(0%,0%,0%)" x1="175.494141679" x2="170.656634202" y1="290.569776779" y2="293.050741244" /><line stroke="rgb(0%,0%,0%)" x1="176.773028502" x2="175.494141679" y1="290.276260401" y2="290.569776779" /><line stroke="rgb(0%,0%,0%)" x1="178.221497303" x2="176.773028502" y1="289.58883166" y2="290.276260401" /><line stroke="rgb(0%,0%,0%)" x1="108.124132639" x2="108.049523934" y1="332.926681701" y2="333.014903584" /><line stroke="rgb(0%,0%,0%)" x1="108.124132639" x2="109.882632635" y1="332.926681701" y2="331.929560878" /><line stroke="rgb(0%,0%,0%)" x1="125.242907744" x2="120.359242565" y1="321.481711039" y2="326.00097907" /><line stroke="rgb(0%,0%,0%)" x1="130.664458972" x2="125.242907744" y1="317.483355338" y2="321.481711039" /><line stroke="rgb(0%,0%,0%)" x1="130.664458972" x2="135.021715127" y1="317.483355338" y2="313.776366672" /><line stroke="rgb(0%,0%,0%)" x1="141.010504724" x2="135.021715127" y1="310.630881845" y2="313.776366672" /><line stroke="rgb(0%,0%,0%)" x1="81.0565315588" x2="80.3153778258" y1="383.075646763" y2="383.479080047" /><line stroke="rgb(0%,0%,0%)" x1="81.0565315588" x2="82.4625452939" y1="383.075646763" y2="381.76367819" /><line stroke="rgb(0%,0%,0%)" x1="91.6050304073" x2="90.7736601374" y1="360.656455055" y2="365.150393272" /><line stroke="rgb(0%,0%,0%)" x1="94.2872694854" x2="94.0278667442" y1="354.376206183" y2="354.761754994" /><line stroke="rgb(0%,0%,0%)" x1="90.11814787" x2="89.0819759224" y1="372.593497151" y2="375.989223045" /><line stroke="rgb(0%,0%,0%)" x1="94.0278667442" x2="91.6050304073" y1="354.761754994" y2="360.656455055" /><line stroke="rgb(0%,0%,0%)" x1="94.2872694854" x2="94.764170995" y1="354.376206183" y2="353.848042786" /><line stroke="rgb(0%,0%,0%)" x1="103.140557676" x2="94.764170995" y1="343.838666554" y2="353.848042786" /><line stroke="rgb(0%,0%,0%)" x1="108.049523934" x2="103.140557676" y1="333.014903584" y2="343.838666554" /><line stroke="rgb(0%,0%,0%)" x1="120.121067691" x2="109.882632635" y1="326.242440431" y2="331.929560878" /><line stroke="rgb(0%,0%,0%)" x1="120.359242565" x2="120.121067691" y1="326.00097907" y2="326.242440431" /><line stroke="rgb(0%,0%,0%)" x1="54.4077056181" x2="52.8488485371" y1="453.736004905" y2="451.04645878" /><line stroke="rgb(0%,0%,0%)" x1="67.3995233508" x2="61.0010931311" y1="401.034445321" y2="410.252049519" /><line stroke="rgb(0%,0%,0%)" x1="67.3995233508" x2="68.4062270941" y1="401.034445321" y2="399.186518552" /><line stroke="rgb(0%,0%,0%)" x1="70.374272644" x2="68.4062270941" y1="395.680264989" y2="399.186518552" /><line stroke="rgb(0%,0%,0%)" x1="70.374272644" x2="75.9605055277" y1="395.680264989" y2="388.07146483" /><line stroke="rgb(0%,0%,0%)" x1="78.2307402403" x2="75.9605055277" y1="385.310501519" y2="388.07146483" /><line stroke="rgb(0%,0%,0%)" x1="80.3153778258" x2="78.2307402403" y1="383.479080047" y2="385.310501519" /><line stroke="rgb(0%,0%,0%)" x1="86.9471564543" x2="82.4625452939" y1="377.649345625" y2="381.76367819" /><line stroke="rgb(0%,0%,0%)" x1="89.0819759224" x2="86.9471564543" y1="375.989223045" y2="377.649345625" /><line stroke="rgb(0%,0%,0%)" x1="91.2063236445" x2="90.11814787" y1="370.996980647" y2="372.593497151" /><line stroke="rgb(0%,0%,0%)" x1="91.8766541047" x2="91.2063236445" y1="369.556172814" y2="370.996980647" /><line stroke="rgb(0%,0%,0%)" x1="90.7736601374" x2="91.8766541047" y1="365.150393272" y2="369.556172814" /><line stroke="rgb(0%,0%,0%)" x1="51.246370019" x2="52.8488485371" y1="447.203124501" y2="451.04645878" /><line stroke="rgb(0%,0%,0%)" x1="51.246370019" x2="50.5785305516" y1="447.203124501" y2="440.847253286" /><line stroke="rgb(0%,0%,0%)" x1="53.3817681494" x2="52.2180842326" y1="425.611281782" y2="430.476197459" /><line stroke="rgb(0%,0%,0%)" x1="53.3817681494" x2="59.3873434774" y1="425.611281782" y2="412.656468847" /><line stroke="rgb(0%,0%,0%)" x1="55.4880594232" x2="57.1285596431" y1="456.408365017" y2="459.655092389" /><line stroke="rgb(0%,0%,0%)" x1="54.4077056181" x2="55.4880594232" y1="453.736004905" y2="456.408365017" /><line stroke="rgb(0%,0%,0%)" x1="50.5469051408" x2="50.5785305516" y1="435.107982704" y2="440.847253286" /><line stroke="rgb(0%,0%,0%)" x1="52.2180842326" x2="50.5469051408" y1="430.476197459" y2="435.107982704" /><line stroke="rgb(0%,0%,0%)" x1="59.7378983899" x2="59.3873434774" y1="412.042597167" y2="412.656468847" /><line stroke="rgb(0%,0%,0%)" x1="61.0010931311" x2="59.9603755893" y1="410.252049519" y2="411.770912809" /><line stroke="rgb(0%,0%,0%)" x1="59.9603755893" x2="59.7378983899" y1="411.770912809" y2="412.042597167" /><line stroke="rgb(0%,0%,0%)" x1="493.612929834" x2="491.515759511" y1="499.588790761" y2="504.533228318" /><line stroke="rgb(0%,0%,0%)" x1="493.612929834" x2="496.6138607" y1="499.588790761" y2="488.460817533" /><line stroke="rgb(0%,0%,0%)" x1="495.903100474" x2="497.757067406" y1="464.199948544" y2="478.857588393" /><line stroke="rgb(0%,0%,0%)" x1="497.737958618" x2="497.757067406" y1="480.938330948" y2="478.857588393" /><line stroke="rgb(0%,0%,0%)" x1="452.227984342" x2="455.131353559" y1="352.356085996" y2="355.652416065" /><line stroke="rgb(0%,0%,0%)" x1="452.227984342" x2="450.332634356" y1="352.356085996" y2="350.059179966" /><line stroke="rgb(0%,0%,0%)" x1="443.120118296" x2="444.602026747" y1="341.653406808" y2="343.464819521" /><line stroke="rgb(0%,0%,0%)" x1="443.120118296" x2="439.278376229" y1="341.653406808" y2="336.213190325" /><line stroke="rgb(0%,0%,0%)" x1="465.723624996" x2="464.783734332" y1="563.675993215" y2="565.463249622" /><line stroke="rgb(0%,0%,0%)" x1="464.783734332" x2="462.66905602" y1="565.463249622" y2="569.092708104" /><line stroke="rgb(0%,0%,0%)" x1="465.723624996" x2="466.91655836" y1="563.675993215" y2="558.873252408" /><line stroke="rgb(0%,0%,0%)" x1="457.219848521" x2="455.131353559" y1="360.643007656" y2="355.652416065" /><line stroke="rgb(0%,0%,0%)" x1="478.059818914" x2="472.544208465" y1="537.265661429" y2="549.092017243" /><line stroke="rgb(0%,0%,0%)" x1="483.792709041" x2="480.574742682" y1="524.370632619" y2="532.250206149" /><line stroke="rgb(0%,0%,0%)" x1="483.792709041" x2="486.392560019" y1="524.370632619" y2="515.319535365" /><line stroke="rgb(0%,0%,0%)" x1="489.628846439" x2="491.515759511" y1="508.571148258" y2="504.533228318" /><line stroke="rgb(0%,0%,0%)" x1="414.850064465" x2="414.86909121" y1="315.783200365" y2="315.793194006" /><line stroke="rgb(0%,0%,0%)" x1="414.850064465" x2="414.825942123" y1="315.783200365" y2="315.766314934" /><line stroke="rgb(0%,0%,0%)" x1="414.825942123" x2="407.821308904" y1="315.766314934" y2="311.146913616" /><line stroke="rgb(0%,0%,0%)" x1="430.143046365" x2="427.686192922" y1="327.797664271" y2="325.767646154" /><line stroke="rgb(0%,0%,0%)" x1="422.107093676" x2="422.991299338" y1="320.70073134" y2="321.803940554" /><line stroke="rgb(0%,0%,0%)" x1="422.107093676" x2="421.783990685" y1="320.70073134" y2="320.255376416" /><line stroke="rgb(0%,0%,0%)" x1="421.783990685" x2="414.86909121" y1="320.255376416" y2="315.793194006" /><line stroke="rgb(0%,0%,0%)" x1="439.278376229" x2="437.731063449" y1="336.213190325" y2="333.851326869" /><line stroke="rgb(0%,0%,0%)" x1="430.143046365" x2="436.058243401" y1="327.797664271" y2="332.042780096" /><line stroke="rgb(0%,0%,0%)" x1="450.332634356" x2="447.742941176" y1="350.059179966" y2="345.993392303" /><line stroke="rgb(0%,0%,0%)" x1="447.742941176" x2="444.602026747" y1="345.993392303" y2="343.464819521" /><line stroke="rgb(0%,0%,0%)" x1="462.498452562" x2="462.66905602" y1="569.448146172" y2="569.092708104" /><line stroke="rgb(0%,0%,0%)" x1="466.91655836" x2="467.728361521" y1="558.873252408" y2="556.774475993" /><line stroke="rgb(0%,0%,0%)" x1="471.345655738" x2="467.728361521" y1="550.995711869" y2="556.774475993" /><line stroke="rgb(0%,0%,0%)" x1="471.345655738" x2="472.544208465" y1="550.995711869" y2="549.092017243" /><line stroke="rgb(0%,0%,0%)" x1="478.059818914" x2="480.574742682" y1="537.265661429" y2="532.250206149" /><line stroke="rgb(0%,0%,0%)" x1="486.392560019" x2="488.251286595" y1="515.319535365" y2="511.449533038" /><line stroke="rgb(0%,0%,0%)" x1="488.251286595" x2="489.628846439" y1="511.449533038" y2="508.571148258" /><line stroke="rgb(0%,0%,0%)" x1="496.6138607" x2="497.743570689" y1="488.460817533" y2="482.516844571" /><line stroke="rgb(0%,0%,0%)" x1="497.743570689" x2="497.737958618" y1="482.516844571" y2="480.938330948" /><line stroke="rgb(0%,0%,0%)" x1="391.801904478" x2="389.548588342" y1="634.585606843" y2="636.615194093" /><line stroke="rgb(0%,0%,0%)" x1="391.801904478" x2="395.162631342" y1="634.585606843" y2="631.257350037" /><line stroke="rgb(0%,0%,0%)" x1="406.724774295" x2="410.203630998" y1="624.792619161" y2="623.111646506" /><line stroke="rgb(0%,0%,0%)" x1="410.203630998" x2="411.182314606" y1="623.111646506" y2="621.786697007" /><line stroke="rgb(0%,0%,0%)" x1="407.821308904" x2="404.600655126" y1="311.146913616" y2="307.433320954" /><line stroke="rgb(0%,0%,0%)" x1="404.600655126" x2="404.476833335" y1="307.433320954" y2="307.303068553" /><line stroke="rgb(0%,0%,0%)" x1="404.476833335" x2="404.379476795" y1="307.303068553" y2="307.234979182" /><line stroke="rgb(0%,0%,0%)" x1="427.686192922" x2="425.868601003" y1="325.767646154" y2="324.616929836" /><line stroke="rgb(0%,0%,0%)" x1="425.868601003" x2="422.991299338" y1="324.616929836" y2="321.803940554" /><line stroke="rgb(0%,0%,0%)" x1="437.731063449" x2="436.684214848" y1="333.851326869" y2="332.607312605" /><line stroke="rgb(0%,0%,0%)" x1="436.684214848" x2="436.058243401" y1="332.607312605" y2="332.042780096" /><line stroke="rgb(0%,0%,0%)" x1="339.287785504" x2="339.809846546" y1="659.188943251" y2="658.981388932" /><line stroke="rgb(0%,0%,0%)" x1="366.080430539" x2="359.744014915" y1="647.571594086" y2="651.043520858" /><line stroke="rgb(0%,0%,0%)" x1="366.080430539" x2="368.445322705" y1="647.571594086" y2="645.872813054" /><line stroke="rgb(0%,0%,0%)" x1="371.452541527" x2="377.123980255" y1="645.716241579" y2="644.219969972" /><line stroke="rgb(0%,0%,0%)" x1="377.123980255" x2="377.16930778" y1="644.219969972" y2="644.552565223" /><line stroke="rgb(0%,0%,0%)" x1="368.445322705" x2="371.452541527" y1="645.872813054" y2="645.716241579" /><line stroke="rgb(0%,0%,0%)" x1="379.910571362" x2="377.16930778" y1="643.908587439" y2="644.552565223" /><line stroke="rgb(0%,0%,0%)" x1="379.910571362" x2="387.433516147" y1="643.908587439" y2="637.760374675" /><line stroke="rgb(0%,0%,0%)" x1="387.433516147" x2="389.548588342" y1="637.760374675" y2="636.615194093" /><line stroke="rgb(0%,0%,0%)" x1="395.162631342" x2="398.482616211" y1="631.257350037" y2="628.85075057" /><line stroke="rgb(0%,0%,0%)" x1="400.959174381" x2="398.482616211" y1="628.1126174" y2="628.85075057" /><line stroke="rgb(0%,0%,0%)" x1="400.959174381" x2="404.253446064" y1="628.1126174" y2="625.820942483" /><line stroke="rgb(0%,0%,0%)" x1="404.253446064" x2="406.724774295" y1="625.820942483" y2="624.792619161" /><line stroke="rgb(0%,0%,0%)" x1="329.950557337" x2="329.019481633" y1="897.380950789" y2="898.130839639" /><line stroke="rgb(0%,0%,0%)" x1="329.950557337" x2="334.094635127" y1="897.380950789" y2="889.550319634" /><line stroke="rgb(0%,0%,0%)" x1="334.094635127" x2="334.406153498" y1="889.550319634" y2="889.051397411" /><line stroke="rgb(0%,0%,0%)" x1="335.352324466" x2="326.74530851" y1="828.506535248" y2="820.73427395" /><line stroke="rgb(0%,0%,0%)" x1="326.74530851" x2="322.184849093" y1="820.73427395" y2="818.801047608" /><line stroke="rgb(0%,0%,0%)" x1="335.352324466" x2="335.629993198" y1="828.506535248" y2="828.680835965" /><line stroke="rgb(0%,0%,0%)" x1="339.287785504" x2="336.596488625" y1="659.188943251" y2="659.364032029" /><line stroke="rgb(0%,0%,0%)" x1="334.406153498" x2="335.863073212" y1="889.051397411" y2="884.776002" /><line stroke="rgb(0%,0%,0%)" x1="341.374656926" x2="341.800062379" y1="870.088570919" y2="867.797224847" /><line stroke="rgb(0%,0%,0%)" x1="343.878453443" x2="341.919139884" y1="858.425947202" y2="863.73615355" /><line stroke="rgb(0%,0%,0%)" x1="342.094844672" x2="341.919139884" y1="864.474619219" y2="863.73615355" /><line stroke="rgb(0%,0%,0%)" x1="341.800062379" x2="342.094844672" y1="867.797224847" y2="864.474619219" /><line stroke="rgb(0%,0%,0%)" x1="343.878453443" x2="343.341298039" y1="858.425947202" y2="851.072043911" /><line stroke="rgb(0%,0%,0%)" x1="342.688918564" x2="342.073387494" y1="847.049968111" y2="844.114312111" /><line stroke="rgb(0%,0%,0%)" x1="342.688918564" x2="343.341298039" y1="847.049968111" y2="851.072043911" /><line stroke="rgb(0%,0%,0%)" x1="342.073387494" x2="339.340086913" y1="844.114312111" y2="837.412343826" /><line stroke="rgb(0%,0%,0%)" x1="337.925099074" x2="335.863431831" y1="833.668703438" y2="829.579135893" /><line stroke="rgb(0%,0%,0%)" x1="339.340086913" x2="337.925099074" y1="837.412343826" y2="833.668703438" /><line stroke="rgb(0%,0%,0%)" x1="335.629993198" x2="335.863431831" y1="828.680835965" y2="829.579135893" /><line stroke="rgb(0%,0%,0%)" x1="339.809846546" x2="343.762758752" y1="658.981388932" y2="657.89213973" /><line stroke="rgb(0%,0%,0%)" x1="343.762758752" x2="351.540486194" y1="657.89213973" y2="655.497115113" /><line stroke="rgb(0%,0%,0%)" x1="351.540486194" x2="355.787401486" y1="655.497115113" y2="653.209782247" /><line stroke="rgb(0%,0%,0%)" x1="355.787401486" x2="359.744014915" y1="653.209782247" y2="651.043520858" /><line stroke="rgb(0%,0%,0%)" x1="300.883044129" x2="300.659623089" y1="826.847983211" y2="829.343791536" /><line stroke="rgb(0%,0%,0%)" x1="295.409874221" x2="287.834094026" y1="661.459621098" y2="663.098645914" /><line stroke="rgb(0%,0%,0%)" x1="305.839316198" x2="307.634036022" y1="849.710148006" y2="859.000009084" /><line stroke="rgb(0%,0%,0%)" x1="298.561304062" x2="304.15850311" y1="846.056258236" y2="848.109284452" /><line stroke="rgb(0%,0%,0%)" x1="298.561304062" x2="297.729321016" y1="846.056258236" y2="839.946853701" /><line stroke="rgb(0%,0%,0%)" x1="298.130009485" x2="298.374050782" y1="832.641197575" y2="836.669036233" /><line stroke="rgb(0%,0%,0%)" x1="300.659623089" x2="298.130009485" y1="829.343791536" y2="832.641197575" /><line stroke="rgb(0%,0%,0%)" x1="300.883044129" x2="301.921174627" y1="826.847983211" y2="825.19746445" /><line stroke="rgb(0%,0%,0%)" x1="306.210054932" x2="301.921174627" y1="823.570275904" y2="825.19746445" /><line stroke="rgb(0%,0%,0%)" x1="306.210054932" x2="310.00398503" y1="823.570275904" y2="821.709285481" /><line stroke="rgb(0%,0%,0%)" x1="304.122704554" x2="303.735359002" y1="659.788304286" y2="659.949114824" /><line stroke="rgb(0%,0%,0%)" x1="304.122704554" x2="307.805818027" y1="659.788304286" y2="660.949295745" /><line stroke="rgb(0%,0%,0%)" x1="295.409874221" x2="297.033015181" y1="661.459621098" y2="661.212899574" /><line stroke="rgb(0%,0%,0%)" x1="297.033015181" x2="302.0606157" y1="661.212899574" y2="660.359161885" /><line stroke="rgb(0%,0%,0%)" x1="302.0606157" x2="303.735359002" y1="660.359161885" y2="659.949114824" /><line stroke="rgb(0%,0%,0%)" x1="312.180873373" x2="315.450139698" y1="914.263995583" y2="913.714154125" /><line stroke="rgb(0%,0%,0%)" x1="310.291007834" x2="312.180873373" y1="914.945398148" y2="914.263995583" /><line stroke="rgb(0%,0%,0%)" x1="310.291007834" x2="309.658901753" y1="914.945398148" y2="913.889587328" /><line stroke="rgb(0%,0%,0%)" x1="309.658901753" x2="308.594518932" y1="913.889587328" y2="911.193216035" /><line stroke="rgb(0%,0%,0%)" x1="307.007410852" x2="308.594518932" y1="909.245883062" y2="911.193216035" /><line stroke="rgb(0%,0%,0%)" x1="306.633446754" x2="307.861990198" y1="904.600408084" y2="898.600337141" /><line stroke="rgb(0%,0%,0%)" x1="308.924759774" x2="307.861990198" y1="895.956688018" y2="898.600337141" /><line stroke="rgb(0%,0%,0%)" x1="309.229075612" x2="308.924759774" y1="895.116649014" y2="895.956688018" /><line stroke="rgb(0%,0%,0%)" x1="313.665921911" x2="311.772878421" y1="876.754110062" y2="886.786759565" /><line stroke="rgb(0%,0%,0%)" x1="311.411588874" x2="311.168558877" y1="888.144583942" y2="889.341408811" /><line stroke="rgb(0%,0%,0%)" x1="311.772878421" x2="311.411588874" y1="886.786759565" y2="888.144583942" /><line stroke="rgb(0%,0%,0%)" x1="310.251568755" x2="311.192472802" y1="867.351682039" y2="869.564165543" /><line stroke="rgb(0%,0%,0%)" x1="310.251568755" x2="308.572681656" y1="867.351682039" y2="863.531412324" /><line stroke="rgb(0%,0%,0%)" x1="319.431398757" x2="316.69003417" y1="818.435394434" y2="818.72121393" /><line stroke="rgb(0%,0%,0%)" x1="307.805818027" x2="315.780986237" y1="660.949295745" y2="659.703960791" /><line stroke="rgb(0%,0%,0%)" x1="315.780986237" x2="318.946205728" y1="659.703960791" y2="660.0697363" /><line stroke="rgb(0%,0%,0%)" x1="323.669289615" x2="321.854261595" y1="906.504771236" y2="907.824519042" /><line stroke="rgb(0%,0%,0%)" x1="323.669289615" x2="329.019481633" y1="906.504771236" y2="898.130839639" /><line stroke="rgb(0%,0%,0%)" x1="322.184849093" x2="319.431398757" y1="818.801047608" y2="818.435394434" /><line stroke="rgb(0%,0%,0%)" x1="330.926476857" x2="326.002724725" y1="659.775650285" y2="659.903159662" /><line stroke="rgb(0%,0%,0%)" x1="318.946205728" x2="324.101692346" y1="660.0697363" y2="659.7884393" /><line stroke="rgb(0%,0%,0%)" x1="330.926476857" x2="331.351029406" y1="659.775650285" y2="659.538765458" /><line stroke="rgb(0%,0%,0%)" x1="331.351029406" x2="336.596488625" y1="659.538765458" y2="659.364032029" /><line stroke="rgb(0%,0%,0%)" x1="324.101692346" x2="325.086044593" y1="659.7884393" y2="659.765065555" /><line stroke="rgb(0%,0%,0%)" x1="325.086044593" x2="326.002724725" y1="659.765065555" y2="659.903159662" /><line stroke="rgb(0%,0%,0%)" x1="335.863073212" x2="338.485182736" y1="884.776002" y2="876.381326326" /><line stroke="rgb(0%,0%,0%)" x1="339.777103811" x2="341.374656926" y1="873.128070558" y2="870.088570919" /><line stroke="rgb(0%,0%,0%)" x1="280.460481589" x2="275.345872493" y1="664.469894716" y2="665.561912441" /><line stroke="rgb(0%,0%,0%)" x1="280.460481589" x2="281.726939647" y1="664.469894716" y2="664.733853759" /><line stroke="rgb(0%,0%,0%)" x1="271.949371798" x2="275.345872493" y1="665.895415966" y2="665.561912441" /><line stroke="rgb(0%,0%,0%)" x1="281.726939647" x2="284.175696908" y1="664.733853759" y2="664.377655051" /><line stroke="rgb(0%,0%,0%)" x1="284.175696908" x2="287.834094026" y1="664.377655051" y2="663.098645914" /><line stroke="rgb(0%,0%,0%)" x1="304.263046078" x2="305.839316198" y1="848.384344958" y2="849.710148006" /><line stroke="rgb(0%,0%,0%)" x1="304.15850311" x2="304.263046078" y1="848.109284452" y2="848.384344958" /><line stroke="rgb(0%,0%,0%)" x1="297.528468885" x2="297.729321016" y1="839.115471267" y2="839.946853701" /><line stroke="rgb(0%,0%,0%)" x1="298.374050782" x2="297.528468885" y1="836.669036233" y2="839.115471267" /><line stroke="rgb(0%,0%,0%)" x1="315.450139698" x2="321.854261595" y1="913.714154125" y2="907.824519042" /><line stroke="rgb(0%,0%,0%)" x1="306.633446754" x2="307.007410852" y1="904.600408084" y2="909.245883062" /><line stroke="rgb(0%,0%,0%)" x1="313.327945509" x2="313.665921911" y1="874.867960518" y2="876.754110062" /><line stroke="rgb(0%,0%,0%)" x1="311.192472802" x2="313.327945509" y1="869.564165543" y2="874.867960518" /><line stroke="rgb(0%,0%,0%)" x1="307.634036022" x2="308.572681656" y1="859.000009084" y2="863.531412324" /><line stroke="rgb(0%,0%,0%)" x1="313.480699446" x2="310.00398503" y1="819.251259817" y2="821.709285481" /><line stroke="rgb(0%,0%,0%)" x1="316.69003417" x2="313.480699446" y1="818.72121393" y2="819.251259817" /><line stroke="rgb(0%,0%,0%)" x1="338.485182736" x2="339.054770193" y1="876.381326326" y2="874.068236588" /><line stroke="rgb(0%,0%,0%)" x1="339.054770193" x2="339.777103811" y1="874.068236588" y2="873.128070558" /><line stroke="rgb(0%,0%,0%)" x1="223.654905926" x2="203.90286793" y1="655.325084154" y2="648.507532157" /><line stroke="rgb(0%,0%,0%)" x1="223.654905926" x2="226.044658557" y1="655.325084154" y2="656.288898993" /><line stroke="rgb(0%,0%,0%)" x1="235.931850947" x2="243.163862399" y1="659.465383892" y2="662.544334952" /><line stroke="rgb(0%,0%,0%)" x1="228.772712099" x2="226.044658557" y1="657.033377651" y2="656.288898993" /><line stroke="rgb(0%,0%,0%)" x1="228.772712099" x2="235.931850947" y1="657.033377651" y2="659.465383892" /><line stroke="rgb(0%,0%,0%)" x1="243.163862399" x2="245.459912753" y1="662.544334952" y2="663.136623487" /><line stroke="rgb(0%,0%,0%)" x1="245.459912753" x2="247.025919486" y1="663.136623487" y2="663.584902178" /><line stroke="rgb(0%,0%,0%)" x1="260.285113003" x2="247.025919486" y1="664.874370897" y2="663.584902178" /><line stroke="rgb(0%,0%,0%)" x1="260.285113003" x2="270.610904204" y1="664.874370897" y2="665.736471937" /><line stroke="rgb(0%,0%,0%)" x1="270.610904204" x2="271.949371798" y1="665.736471937" y2="665.895415966" /><line stroke="rgb(0%,0%,0%)" x1="187.181165583" x2="186.348832745" y1="635.472648545" y2="633.855790464" /><line stroke="rgb(0%,0%,0%)" x1="165.877480183" x2="168.100816323" y1="623.532875417" y2="624.656033997" /><line stroke="rgb(0%,0%,0%)" x1="187.181165583" x2="192.031963006" y1="635.472648545" y2="639.93265791" /><line stroke="rgb(0%,0%,0%)" x1="183.75623581" x2="186.348832745" y1="631.261950172" y2="633.855790464" /><line stroke="rgb(0%,0%,0%)" x1="192.031963006" x2="202.888650121" y1="639.93265791" y2="648.08475134" /><line stroke="rgb(0%,0%,0%)" x1="203.534163538" x2="203.90286793" y1="648.380521463" y2="648.507532157" /><line stroke="rgb(0%,0%,0%)" x1="203.039173413" x2="203.534163538" y1="648.18594103" y2="648.380521463" /><line stroke="rgb(0%,0%,0%)" x1="135.758994242" x2="139.687875436" y1="605.625225988" y2="607.56513108" /><line stroke="rgb(0%,0%,0%)" x1="149.229165754" x2="146.052135393" y1="612.30925432" y2="610.966896865" /><line stroke="rgb(0%,0%,0%)" x1="165.877480183" x2="162.249279193" y1="623.532875417" y2="621.409871297" /><line stroke="rgb(0%,0%,0%)" x1="168.100816323" x2="175.3604635" y1="624.656033997" y2="627.648570527" /><line stroke="rgb(0%,0%,0%)" x1="175.3604635" x2="183.75623581" y1="627.648570527" y2="631.261950172" /><line stroke="rgb(0%,0%,0%)" x1="202.888650121" x2="202.997705841" y1="648.08475134" y2="648.162603678" /><line stroke="rgb(0%,0%,0%)" x1="202.997705841" x2="203.039173413" y1="648.162603678" y2="648.18594103" /><line stroke="rgb(0%,0%,0%)" x1="135.758994242" x2="130.036755192" y1="605.625225988" y2="601.097114234" /><line stroke="rgb(0%,0%,0%)" x1="122.946057905" x2="130.036755192" y1="595.158596466" y2="601.097114234" /><line stroke="rgb(0%,0%,0%)" x1="118.152094795" x2="122.946057905" y1="591.41898117" y2="595.158596466" /><line stroke="rgb(0%,0%,0%)" x1="139.687875436" x2="142.266108025" y1="607.56513108" y2="608.165570706" /><line stroke="rgb(0%,0%,0%)" x1="142.978814611" x2="143.789519767" y1="608.760468233" y2="609.482401654" /><line stroke="rgb(0%,0%,0%)" x1="144.612290544" x2="146.052135393" y1="610.17149891" y2="610.966896865" /><line stroke="rgb(0%,0%,0%)" x1="143.789519767" x2="144.612290544" y1="609.482401654" y2="610.17149891" /><line stroke="rgb(0%,0%,0%)" x1="142.266108025" x2="142.978814611" y1="608.165570706" y2="608.760468233" /><line stroke="rgb(0%,0%,0%)" x1="95.4389087627" x2="95.299530253" y1="562.166488742" y2="561.513971472" /><line stroke="rgb(0%,0%,0%)" x1="95.4389087627" x2="96.3868757342" y1="562.166488742" y2="564.199542962" /><line stroke="rgb(0%,0%,0%)" x1="80.9398979656" x2="91.4707967019" y1="537.154158844" y2="544.961288072" /><line stroke="rgb(0%,0%,0%)" x1="95.8909198028" x2="95.099333084" y1="555.905014968" y2="550.029946123" /><line stroke="rgb(0%,0%,0%)" x1="95.8909198028" x2="95.299530253" y1="555.905014968" y2="561.513971472" /><line stroke="rgb(0%,0%,0%)" x1="105.087321777" x2="108.024241701" y1="576.863380973" y2="583.053029952" /><line stroke="rgb(0%,0%,0%)" x1="105.087321777" x2="101.031678383" y1="576.863380973" y2="572.300974527" /><line stroke="rgb(0%,0%,0%)" x1="96.3868757342" x2="99.2462892279" y1="564.199542962" y2="569.683487999" /><line stroke="rgb(0%,0%,0%)" x1="99.2462892279" x2="101.031678383" y1="569.683487999" y2="572.300974527" /><line stroke="rgb(0%,0%,0%)" x1="94.2858324591" x2="95.099333084" y1="547.271699864" y2="550.029946123" /><line stroke="rgb(0%,0%,0%)" x1="112.401673069" x2="118.152094795" y1="587.876154403" y2="591.41898117" /><line stroke="rgb(0%,0%,0%)" x1="108.024241701" x2="112.401673069" y1="583.053029952" y2="587.876154403" /><line stroke="rgb(0%,0%,0%)" x1="53.0740840422" x2="53.4648716933" y1="495.769280592" y2="495.101498313" /><line stroke="rgb(0%,0%,0%)" x1="53.4648716933" x2="47.2845521278" y1="495.101498313" y2="484.662836813" /><line stroke="rgb(0%,0%,0%)" x1="47.6138152292" x2="47.11893021" y1="479.284888346" y2="482.645365899" /><line stroke="rgb(0%,0%,0%)" x1="47.6138152292" x2="49.1949227318" y1="479.284888346" y2="477.083414739" /><line stroke="rgb(0%,0%,0%)" x1="50.4392627412" x2="49.1949227318" y1="472.853077652" y2="477.083414739" /><line stroke="rgb(0%,0%,0%)" x1="52.0472601054" x2="50.4392627412" y1="469.503410955" y2="472.853077652" /><line stroke="rgb(0%,0%,0%)" x1="55.9880433362" x2="52.0472601054" y1="462.487678045" y2="469.503410955" /><line stroke="rgb(0%,0%,0%)" x1="55.9880433362" x2="57.1285596431" y1="462.487678045" y2="459.655092389" /><line stroke="rgb(0%,0%,0%)" x1="60.669845444" x2="69.0304910059" y1="511.857244071" y2="523.754979233" /><line stroke="rgb(0%,0%,0%)" x1="58.6388074993" x2="60.669845444" y1="508.577578305" y2="511.857244071" /><line stroke="rgb(0%,0%,0%)" x1="57.3077669389" x2="58.6388074993" y1="505.568406374" y2="508.577578305" /><line stroke="rgb(0%,0%,0%)" x1="53.0740840422" x2="57.3077669389" y1="495.769280592" y2="505.568406374" /><line stroke="rgb(0%,0%,0%)" x1="74.6607310474" x2="70.5281549091" y1="530.389739606" y2="525.53322035" /><line stroke="rgb(0%,0%,0%)" x1="74.6607310474" x2="80.9398979656" y1="530.389739606" y2="537.154158844" /><line stroke="rgb(0%,0%,0%)" x1="69.0304910059" x2="70.5281549091" y1="523.754979233" y2="525.53322035" /><line stroke="rgb(0%,0%,0%)" x1="91.4707967019" x2="94.2858324591" y1="544.961288072" y2="547.271699864" /><line stroke="rgb(0%,0%,0%)" x1="47.11893021" x2="47.2845521278" y1="482.645365899" y2="484.662836813" /><line stroke="rgb(0%,0%,0%)" x1="416.450465781" x2="417.719641183" y1="617.299199502" y2="616.716855804" /><line stroke="rgb(0%,0%,0%)" x1="428.876236947" x2="429.699650005" y1="609.96255408" y2="608.865032153" /><line stroke="rgb(0%,0%,0%)" x1="448.030774192" x2="447.095995489" y1="591.244407483" y2="592.826624469" /><line stroke="rgb(0%,0%,0%)" x1="448.441942137" x2="448.030774192" y1="590.685014617" y2="591.244407483" /><line stroke="rgb(0%,0%,0%)" x1="448.441942137" x2="449.475063276" y1="590.685014617" y2="589.330468148" /><line stroke="rgb(0%,0%,0%)" x1="449.475063276" x2="460.942349357" y1="589.330468148" y2="575.051236465" /><line stroke="rgb(0%,0%,0%)" x1="416.450465781" x2="415.458111336" y1="617.299199502" y2="618.218302009" /><line stroke="rgb(0%,0%,0%)" x1="415.458111336" x2="414.243982328" y1="618.218302009" y2="619.08958189" /><line stroke="rgb(0%,0%,0%)" x1="411.182314606" x2="414.243982328" y1="621.786697007" y2="619.08958189" /><line stroke="rgb(0%,0%,0%)" x1="417.719641183" x2="419.984804319" y1="616.716855804" y2="615.018343966" /><line stroke="rgb(0%,0%,0%)" x1="419.984804319" x2="427.724699055" y1="615.018343966" y2="610.451028047" /><line stroke="rgb(0%,0%,0%)" x1="428.876236947" x2="427.724699055" y1="609.96255408" y2="610.451028047" /><line stroke="rgb(0%,0%,0%)" x1="429.699650005" x2="430.381296959" y1="608.865032153" y2="607.974028231" /><line stroke="rgb(0%,0%,0%)" x1="430.381296959" x2="436.71100711" y1="607.974028231" y2="603.174989128" /><line stroke="rgb(0%,0%,0%)" x1="436.71100711" x2="437.647595411" y1="603.174989128" y2="601.408927998" /><line stroke="rgb(0%,0%,0%)" x1="437.647595411" x2="444.434995998" y1="601.408927998" y2="597.107880231" /><line stroke="rgb(0%,0%,0%)" x1="444.434995998" x2="447.095995489" y1="597.107880231" y2="592.826624469" /><line stroke="rgb(0%,0%,0%)" x1="460.942349357" x2="461.850929997" y1="575.051236465" y2="572.047809661" /><line stroke="rgb(0%,0%,0%)" x1="461.850929997" x2="462.374004749" y1="572.047809661" y2="569.721458035" /><line stroke="rgb(0%,0%,0%)" x1="462.374004749" x2="462.442742389" y1="569.721458035" y2="569.496512805" /><line stroke="rgb(0%,0%,0%)" x1="462.442742389" x2="462.498452562" y1="569.496512805" y2="569.448146172" /><line stroke="rgb(0%,0%,0%)" x1="309.345071296" x2="309.229075612" y1="894.67048268" y2="895.116649014" /><line stroke="rgb(0%,0%,0%)" x1="311.168558877" x2="310.317080901" y1="889.341408811" y2="891.908806786" /><line stroke="rgb(0%,0%,0%)" x1="309.412174622" x2="309.345071296" y1="894.504853758" y2="894.67048268" /><line stroke="rgb(0%,0%,0%)" x1="309.412174622" x2="310.317080901" y1="894.504853758" y2="891.908806786" /><line stroke="rgb(0%,0%,0%)" x1="149.229165754" x2="152.02347021" y1="612.30925432" y2="614.420008262" /><line stroke="rgb(0%,0%,0%)" x1="152.02347021" x2="153.851441386" y1="614.420008262" y2="615.556578948" /><line stroke="rgb(0%,0%,0%)" x1="161.295326577" x2="162.249279193" y1="620.585526733" y2="621.409871297" /><line stroke="rgb(0%,0%,0%)" x1="161.295326577" x2="155.534723582" y1="620.585526733" y2="616.752315418" /><line stroke="rgb(0%,0%,0%)" x1="153.851441386" x2="155.534723582" y1="615.556578948" y2="616.752315418" /></svg>