<?xml version="1.0" encoding="utf-8" ?>
<svg baseProfile="full" height="100%" version="1.1" viewBox="0.5 0.5 685.793960571 941.299331665" width="100%" xmlns="http://www.w3.org/2000/svg" xmlns:ev="http://www.w3.org/2001/xml-events" xmlns:xlink="http://www.w3.org/1999/xlink"><defs /><line stroke="rgb(0%,0%,0%)" x1="493.847657226" x2="494.180286249" y1="464.315282416" y2="461.712429981" /><line stroke="rgb(0%,0%,0%)" x1="464.10246523" x2="465.16101465" y1="382.029636139" y2="383.70805298" /><line stroke="rgb(0%,0%,0%)" x1="473.847881809" x2="475.281612279" y1="398.180855538" y2="401.379941091" /><line stroke="rgb(0%,0%,0%)" x1="494.180286249" x2="494.440977502" y1="461.712429981" y2="450.69135874" /><line stroke="rgb(0%,0%,0%)" x1="492.657334169" x2="492.588112475" y1="427.22206356" y2="429.782739059" /><line stroke="rgb(0%,0%,0%)" x1="492.657334169" x2="490.440367754" y1="427.22206356" y2="423.823905657" /><line stroke="rgb(0%,0%,0%)" x1="452.264203069" x2="457.676124047" y1="362.496185911" y2="372.829980859" /><line stroke="rgb(0%,0%,0%)" x1="473.847881809" x2="465.16101465" y1="398.180855538" y2="383.70805298" /><line stroke="rgb(0%,0%,0%)" x1="464.10246523" x2="460.125035253" y1="382.029636139" y2="376.367619462" /><line stroke="rgb(0%,0%,0%)" x1="485.557952348" x2="486.497964459" y1="417.704549382" y2="418.539559124" /><line stroke="rgb(0%,0%,0%)" x1="485.557952348" x2="482.831209315" y1="417.704549382" y2="412.90959983" /><line stroke="rgb(0%,0%,0%)" x1="482.831209315" x2="475.281612279" y1="412.90959983" y2="401.379941091" /><line stroke="rgb(0%,0%,0%)" x1="491.580063108" x2="492.97024426" y1="432.542507921" y2="439.137950319" /><line stroke="rgb(0%,0%,0%)" x1="491.580063108" x2="492.588112475" y1="432.542507921" y2="429.782739059" /><line stroke="rgb(0%,0%,0%)" x1="490.440367754" x2="486.497964459" y1="423.823905657" y2="418.539559124" /><line stroke="rgb(0%,0%,0%)" x1="398.280792631" x2="398.837615307" y1="306.198690964" y2="306.477114371" /><line stroke="rgb(0%,0%,0%)" x1="457.926867344" x2="457.676124047" y1="373.427418474" y2="372.829980859" /><line stroke="rgb(0%,0%,0%)" x1="460.125035253" x2="458.317966215" y1="376.367619462" y2="373.705482318" /><line stroke="rgb(0%,0%,0%)" x1="494.424997214" x2="493.804166297" y1="446.507845562" y2="443.696032621" /><line stroke="rgb(0%,0%,0%)" x1="493.804166297" x2="492.97024426" y1="443.696032621" y2="439.137950319" /><line stroke="rgb(0%,0%,0%)" x1="494.440977502" x2="494.424997214" y1="450.69135874" y2="446.507845562" /><line stroke="rgb(0%,0%,0%)" x1="378.192933819" x2="373.541681142" y1="291.424881588" y2="288.865507927" /><line stroke="rgb(0%,0%,0%)" x1="378.192933819" x2="379.116561296" y1="291.424881588" y2="293.088044892" /><line stroke="rgb(0%,0%,0%)" x1="386.044661464" x2="384.978326746" y1="299.269729172" y2="298.363981903" /><line stroke="rgb(0%,0%,0%)" x1="398.280792631" x2="395.984263538" y1="306.198690964" y2="304.562722753" /><line stroke="rgb(0%,0%,0%)" x1="458.317966215" x2="457.926867344" y1="373.705482318" y2="373.427418474" /><line stroke="rgb(0%,0%,0%)" x1="325.833285509" x2="326.24559047" y1="269.272023317" y2="269.27158116" /><line stroke="rgb(0%,0%,0%)" x1="325.411768719" x2="325.833285509" y1="269.257579493" y2="269.272023317" /><line stroke="rgb(0%,0%,0%)" x1="351.55464631" x2="356.213127604" y1="279.728250728" y2="282.075068937" /><line stroke="rgb(0%,0%,0%)" x1="364.429300262" x2="361.920321264" y1="283.329999462" y2="282.903446547" /><line stroke="rgb(0%,0%,0%)" x1="364.83029546" x2="365.796057284" y1="283.351044673" y2="283.646628314" /><line stroke="rgb(0%,0%,0%)" x1="364.429300262" x2="364.83029546" y1="283.329999462" y2="283.351044673" /><line stroke="rgb(0%,0%,0%)" x1="384.978326746" x2="381.455191126" y1="298.363981903" y2="294.630595938" /><line stroke="rgb(0%,0%,0%)" x1="373.541681142" x2="370.5498966" y1="288.865507927" y2="286.962130532" /><line stroke="rgb(0%,0%,0%)" x1="394.391621332" x2="392.891464655" y1="303.817691197" y2="302.480370484" /><line stroke="rgb(0%,0%,0%)" x1="392.891464655" x2="388.612563142" y1="302.480370484" y2="300.587650352" /><line stroke="rgb(0%,0%,0%)" x1="386.044661464" x2="388.612563142" y1="299.269729172" y2="300.587650352" /><line stroke="rgb(0%,0%,0%)" x1="395.984263538" x2="394.391621332" y1="304.562722753" y2="303.817691197" /><line stroke="rgb(0%,0%,0%)" x1="305.21258287" x2="313.899294379" y1="270.682596608" y2="269.323664802" /><line stroke="rgb(0%,0%,0%)" x1="325.411768719" x2="322.767465941" y1="269.257579493" y2="269.123899699" /><line stroke="rgb(0%,0%,0%)" x1="334.795195866" x2="326.24559047" y1="272.014896349" y2="269.27158116" /><line stroke="rgb(0%,0%,0%)" x1="340.413940454" x2="336.755555258" y1="274.411812531" y2="272.401180249" /><line stroke="rgb(0%,0%,0%)" x1="336.755555258" x2="334.795195866" y1="272.401180249" y2="272.014896349" /><line stroke="rgb(0%,0%,0%)" x1="351.55464631" x2="344.848269327" y1="279.728250728" y2="276.203684474" /><line stroke="rgb(0%,0%,0%)" x1="344.848269327" x2="340.413940454" y1="276.203684474" y2="274.411812531" /><line stroke="rgb(0%,0%,0%)" x1="358.881573777" x2="356.213127604" y1="282.576594734" y2="282.075068937" /><line stroke="rgb(0%,0%,0%)" x1="361.920321264" x2="358.881573777" y1="282.903446547" y2="282.576594734" /><line stroke="rgb(0%,0%,0%)" x1="381.455191126" x2="379.116561296" y1="294.630595938" y2="293.088044892" /><line stroke="rgb(0%,0%,0%)" x1="370.5498966" x2="365.796057284" y1="286.962130532" y2="283.646628314" /><line stroke="rgb(0%,0%,0%)" x1="279.163199885" x2="281.791926526" y1="270.946026182" y2="272.012403299" /><line stroke="rgb(0%,0%,0%)" x1="296.485517184" x2="294.70744392" y1="273.011673732" y2="273.189830237" /><line stroke="rgb(0%,0%,0%)" x1="305.21258287" x2="299.014431636" y1="270.682596608" y2="271.791475384" /><line stroke="rgb(0%,0%,0%)" x1="316.710831319" x2="313.899294379" y1="269.085233487" y2="269.323664802" /><line stroke="rgb(0%,0%,0%)" x1="322.767465941" x2="316.710831319" y1="269.123899699" y2="269.085233487" /><line stroke="rgb(0%,0%,0%)" x1="285.186021921" x2="282.707743127" y1="272.570103482" y2="272.625414275" /><line stroke="rgb(0%,0%,0%)" x1="275.325307633" x2="274.716382893" y1="269.109524658" y2="269.012743163" /><line stroke="rgb(0%,0%,0%)" x1="281.791926526" x2="282.707743127" y1="272.012403299" y2="272.625414275" /><line stroke="rgb(0%,0%,0%)" x1="279.163199885" x2="275.325307633" y1="270.946026182" y2="269.109524658" /><line stroke="rgb(0%,0%,0%)" x1="294.70744392" x2="292.425302978" y1="273.189830237" y2="273.654466085" /><line stroke="rgb(0%,0%,0%)" x1="292.425302978" x2="291.803871723" y1="273.654466085" y2="273.641410844" /><line stroke="rgb(0%,0%,0%)" x1="291.803871723" x2="285.953388249" y1="273.641410844" y2="272.714465871" /><line stroke="rgb(0%,0%,0%)" x1="285.590132248" x2="285.186021921" y1="272.694518926" y2="272.570103482" /><line stroke="rgb(0%,0%,0%)" x1="285.953388249" x2="285.590132248" y1="272.714465871" y2="272.694518926" /><line stroke="rgb(0%,0%,0%)" x1="299.014431636" x2="296.485517184" y1="271.791475384" y2="273.011673732" /><line stroke="rgb(0%,0%,0%)" x1="247.646184396" x2="247.378162389" y1="266.029445886" y2="266.052596631" /><line stroke="rgb(0%,0%,0%)" x1="260.018167399" x2="247.646184396" y1="267.42896835" y2="266.029445886" /><line stroke="rgb(0%,0%,0%)" x1="260.018167399" x2="266.203971792" y1="267.42896835" y2="267.404333149" /><line stroke="rgb(0%,0%,0%)" x1="271.650279726" x2="268.605403426" y1="269.377360679" y2="268.146195744" /><line stroke="rgb(0%,0%,0%)" x1="268.605403426" x2="266.203971792" y1="268.146195744" y2="267.404333149" /><line stroke="rgb(0%,0%,0%)" x1="271.650279726" x2="274.716382893" y1="269.377360679" y2="269.012743163" /><line stroke="rgb(0%,0%,0%)" x1="186.614107485" x2="186.836206126" y1="286.75385103" y2="286.437233225" /><line stroke="rgb(0%,0%,0%)" x1="186.614107485" x2="186.593528927" y1="286.75385103" y2="286.581717824" /><line stroke="rgb(0%,0%,0%)" x1="187.110837431" x2="186.836206126" y1="286.08099971" y2="286.437233225" /><line stroke="rgb(0%,0%,0%)" x1="187.110837431" x2="188.201482946" y1="286.08099971" y2="285.131875383" /><line stroke="rgb(0%,0%,0%)" x1="195.636233482" x2="188.201482946" y1="281.604050731" y2="285.131875383" /><line stroke="rgb(0%,0%,0%)" x1="195.636233482" x2="205.269279571" y1="281.604050731" y2="277.280284632" /><line stroke="rgb(0%,0%,0%)" x1="212.083706899" x2="219.393855141" y1="274.723427993" y2="272.558411866" /><line stroke="rgb(0%,0%,0%)" x1="212.083706899" x2="205.269279571" y1="274.723427993" y2="277.280284632" /><line stroke="rgb(0%,0%,0%)" x1="221.725336311" x2="219.393855141" y1="272.050031908" y2="272.558411866" /><line stroke="rgb(0%,0%,0%)" x1="221.725336311" x2="246.242640036" y1="272.050031908" y2="266.401768973" /><line stroke="rgb(0%,0%,0%)" x1="247.018313641" x2="246.242640036" y1="266.162918977" y2="266.401768973" /><line stroke="rgb(0%,0%,0%)" x1="247.378162389" x2="247.018313641" y1="266.052596631" y2="266.162918977" /><line stroke="rgb(0%,0%,0%)" x1="175.051850871" x2="166.80282855" y1="290.732900989" y2="294.963495226" /><line stroke="rgb(0%,0%,0%)" x1="180.463869696" x2="175.051850871" y1="289.490792512" y2="290.732900989" /><line stroke="rgb(0%,0%,0%)" x1="186.593528927" x2="180.463869696" y1="286.581717824" y2="289.490792512" /><line stroke="rgb(0%,0%,0%)" x1="129.409293987" x2="128.700194246" y1="321.553156495" y2="322.209346401" /><line stroke="rgb(0%,0%,0%)" x1="129.409293987" x2="132.799176954" y1="321.553156495" y2="319.053141773" /><line stroke="rgb(0%,0%,0%)" x1="141.806475163" x2="146.493219117" y1="314.369971374" y2="311.151023017" /><line stroke="rgb(0%,0%,0%)" x1="161.342725109" x2="150.518807733" y1="299.0905807" y2="307.706509383" /><line stroke="rgb(0%,0%,0%)" x1="166.80282855" x2="161.342725109" y1="294.963495226" y2="299.0905807" /><line stroke="rgb(0%,0%,0%)" x1="96.6050292266" x2="96.2537010513" y1="371.572891865" y2="372.724258861" /><line stroke="rgb(0%,0%,0%)" x1="107.478766349" x2="104.926747299" y1="342.606941877" y2="345.656480992" /><line stroke="rgb(0%,0%,0%)" x1="107.478766349" x2="108.822590872" y1="342.606941877" y2="339.643947767" /><line stroke="rgb(0%,0%,0%)" x1="112.816912011" x2="108.822590872" y1="334.347776026" y2="339.643947767" /><line stroke="rgb(0%,0%,0%)" x1="123.251193609" x2="115.033272049" y1="327.733535763" y2="332.298326132" /><line stroke="rgb(0%,0%,0%)" x1="115.033272049" x2="112.816912011" y1="332.298326132" y2="334.347776026" /><line stroke="rgb(0%,0%,0%)" x1="128.700194246" x2="123.251193609" y1="322.209346401" y2="327.733535763" /><line stroke="rgb(0%,0%,0%)" x1="137.385583408" x2="132.799176954" y1="316.21232742" y2="319.053141773" /><line stroke="rgb(0%,0%,0%)" x1="147.267530666" x2="146.493219117" y1="310.748619856" y2="311.151023017" /><line stroke="rgb(0%,0%,0%)" x1="148.697314662" x2="147.267530666" y1="309.463557929" y2="310.748619856" /><line stroke="rgb(0%,0%,0%)" x1="141.806475163" x2="137.385583408" y1="314.369971374" y2="316.21232742" /><line stroke="rgb(0%,0%,0%)" x1="150.518807733" x2="148.697314662" y1="307.706509383" y2="309.463557929" /><line stroke="rgb(0%,0%,0%)" x1="81.6691821834" x2="72.3379917566" y1="386.558790557" y2="397.906989173" /><line stroke="rgb(0%,0%,0%)" x1="81.6691821834" x2="83.819306147" y1="386.558790557" y2="384.669837186" /><line stroke="rgb(0%,0%,0%)" x1="89.7898394838" x2="86.4758050571" y1="377.750820923" y2="380.791227164" /><line stroke="rgb(0%,0%,0%)" x1="96.2537010513" x2="89.7898394838" y1="372.724258861" y2="377.750820923" /><line stroke="rgb(0%,0%,0%)" x1="98.6574177156" x2="96.6050292266" y1="368.561731194" y2="371.572891865" /><line stroke="rgb(0%,0%,0%)" x1="99.9217157754" x2="98.6574177156" y1="365.844249809" y2="368.561731194" /><line stroke="rgb(0%,0%,0%)" x1="99.9217157754" x2="98.0657895464" y1="365.844249809" y2="358.430970994" /><line stroke="rgb(0%,0%,0%)" x1="97.9446945604" x2="98.0657895464" y1="358.064750358" y2="358.430970994" /><line stroke="rgb(0%,0%,0%)" x1="97.9823589236" x2="97.9446945604" y1="357.665126092" y2="358.064750358" /><line stroke="rgb(0%,0%,0%)" x1="100.966003088" x2="97.9823589236" y1="351.380535242" y2="357.665126092" /><line stroke="rgb(0%,0%,0%)" x1="104.926747299" x2="100.966003088" y1="345.656480992" y2="351.380535242" /><line stroke="rgb(0%,0%,0%)" x1="53.6807746427" x2="53.7290823896" y1="431.562204179" y2="440.328927633" /><line stroke="rgb(0%,0%,0%)" x1="53.7290823896" x2="53.8744418479" y1="440.328927633" y2="445.737922905" /><line stroke="rgb(0%,0%,0%)" x1="53.6807746427" x2="56.3666515676" y1="431.562204179" y2="424.118115649" /><line stroke="rgb(0%,0%,0%)" x1="57.9193129357" x2="56.3666515676" y1="420.373974474" y2="424.118115649" /><line stroke="rgb(0%,0%,0%)" x1="61.3541137189" x2="58.1235451686" y1="414.078169135" y2="419.735355705" /><line stroke="rgb(0%,0%,0%)" x1="63.9689835057" x2="69.0064761116" y1="410.884946535" y2="403.533035683" /><line stroke="rgb(0%,0%,0%)" x1="63.9689835057" x2="61.3541137189" y1="410.884946535" y2="414.078169135" /><line stroke="rgb(0%,0%,0%)" x1="69.0064761116" x2="72.0472288151" y1="403.533035683" y2="398.270521446" /><line stroke="rgb(0%,0%,0%)" x1="72.3379917566" x2="72.19656557" y1="397.906989173" y2="398.093333562" /><line stroke="rgb(0%,0%,0%)" x1="86.4758050571" x2="83.819306147" y1="380.791227164" y2="384.669837186" /><line stroke="rgb(0%,0%,0%)" x1="58.1235451686" x2="57.9193129357" y1="419.735355705" y2="420.373974474" /><line stroke="rgb(0%,0%,0%)" x1="57.8711446129" x2="60.2777730319" y1="454.154634802" y2="459.292774092" /><line stroke="rgb(0%,0%,0%)" x1="57.5102786483" x2="54.3378092766" y1="453.085399744" y2="447.310795694" /><line stroke="rgb(0%,0%,0%)" x1="57.5102786483" x2="57.8711446129" y1="453.085399744" y2="454.154634802" /><line stroke="rgb(0%,0%,0%)" x1="53.8744418479" x2="54.3378092766" y1="445.737922905" y2="447.310795694" /><line stroke="rgb(0%,0%,0%)" x1="72.19656557" x2="72.0472288151" y1="398.093333562" y2="398.270521446" /><line stroke="rgb(0%,0%,0%)" x1="493.847657226" x2="494.982633726" y1="464.315282416" y2="473.288515155" /><line stroke="rgb(0%,0%,0%)" x1="494.982633726" x2="494.930316332" y1="473.288515155" y2="478.985319409" /><line stroke="rgb(0%,0%,0%)" x1="472.425581232" x2="469.935062736" y1="540.299537029" y2="545.639609207" /><line stroke="rgb(0%,0%,0%)" x1="479.229210618" x2="478.41758985" y1="526.362460482" y2="528.349810503" /><line stroke="rgb(0%,0%,0%)" x1="479.229210618" x2="479.884933149" y1="526.362460482" y2="524.0796341" /><line stroke="rgb(0%,0%,0%)" x1="488.37001354" x2="492.000014804" y1="506.386327733" y2="498.618267451" /><line stroke="rgb(0%,0%,0%)" x1="494.945402349" x2="494.930316332" y1="479.179350282" y2="478.985319409" /><line stroke="rgb(0%,0%,0%)" x1="436.592962249" x2="438.85151142" y1="337.277943047" y2="340.725458522" /><line stroke="rgb(0%,0%,0%)" x1="452.264203069" x2="448.219860425" y1="362.496185911" y2="353.489825671" /><line stroke="rgb(0%,0%,0%)" x1="443.174525065" x2="447.103529451" y1="344.618592842" y2="350.787083257" /><line stroke="rgb(0%,0%,0%)" x1="443.174525065" x2="440.686677423" y1="344.618592842" y2="342.615767239" /><line stroke="rgb(0%,0%,0%)" x1="459.114521643" x2="461.658858548" y1="566.878320626" y2="561.577406976" /><line stroke="rgb(0%,0%,0%)" x1="464.91763742" x2="463.002724707" y1="553.620445511" y2="558.571120542" /><line stroke="rgb(0%,0%,0%)" x1="461.851974727" x2="463.002724707" y1="560.375579652" y2="558.571120542" /><line stroke="rgb(0%,0%,0%)" x1="466.168473426" x2="464.91763742" y1="551.622187751" y2="553.620445511" /><line stroke="rgb(0%,0%,0%)" x1="466.168473426" x2="469.935062736" y1="551.622187751" y2="545.639609207" /><line stroke="rgb(0%,0%,0%)" x1="472.425581232" x2="478.41758985" y1="540.299537029" y2="528.349810503" /><line stroke="rgb(0%,0%,0%)" x1="479.884933149" x2="484.758248541" y1="524.0796341" y2="513.933041185" /><line stroke="rgb(0%,0%,0%)" x1="484.758248541" x2="488.37001354" y1="513.933041185" y2="506.386327733" /><line stroke="rgb(0%,0%,0%)" x1="492.000014804" x2="492.351982382" y1="498.618267451" y2="496.91828265" /><line stroke="rgb(0%,0%,0%)" x1="492.351982382" x2="492.582937462" y1="496.91828265" y2="496.238549346" /><line stroke="rgb(0%,0%,0%)" x1="494.943801232" x2="492.582937462" y1="483.816856564" y2="496.238549346" /><line stroke="rgb(0%,0%,0%)" x1="494.943801232" x2="494.928452261" y1="483.816856564" y2="479.4996343" /><line stroke="rgb(0%,0%,0%)" x1="494.928452261" x2="494.945402349" y1="479.4996343" y2="479.179350282" /><line stroke="rgb(0%,0%,0%)" x1="411.857443982" x2="408.565591062" y1="316.168568332" y2="314.899836988" /><line stroke="rgb(0%,0%,0%)" x1="403.448159759" x2="408.153475751" y1="309.701644245" y2="314.651327991" /><line stroke="rgb(0%,0%,0%)" x1="403.448159759" x2="398.837615307" y1="309.701644245" y2="306.477114371" /><line stroke="rgb(0%,0%,0%)" x1="425.018191253" x2="427.808840725" y1="325.5907901" y2="327.357548552" /><line stroke="rgb(0%,0%,0%)" x1="423.144350251" x2="420.332925742" y1="323.758832498" y2="322.390470772" /><line stroke="rgb(0%,0%,0%)" x1="425.018191253" x2="423.144350251" y1="325.5907901" y2="323.758832498" /><line stroke="rgb(0%,0%,0%)" x1="418.819386007" x2="417.589779208" y1="321.037591912" y2="320.650050524" /><line stroke="rgb(0%,0%,0%)" x1="411.857443982" x2="416.657096801" y1="316.168568332" y2="319.437466345" /><line stroke="rgb(0%,0%,0%)" x1="417.589779208" x2="416.657096801" y1="320.650050524" y2="319.437466345" /><line stroke="rgb(0%,0%,0%)" x1="440.686677423" x2="438.85151142" y1="342.615767239" y2="340.725458522" /><line stroke="rgb(0%,0%,0%)" x1="436.592962249" x2="429.617432921" y1="337.277943047" y2="328.988627883" /><line stroke="rgb(0%,0%,0%)" x1="429.617432921" x2="427.808840725" y1="328.988627883" y2="327.357548552" /><line stroke="rgb(0%,0%,0%)" x1="448.219860425" x2="447.703403977" y1="353.489825671" y2="352.269582376" /><line stroke="rgb(0%,0%,0%)" x1="447.703403977" x2="447.511134028" y1="352.269582376" y2="351.575217078" /><line stroke="rgb(0%,0%,0%)" x1="447.511134028" x2="447.103529451" y1="351.575217078" y2="350.787083257" /><line stroke="rgb(0%,0%,0%)" x1="461.658858548" x2="461.851974727" y1="561.577406976" y2="560.375579652" /><line stroke="rgb(0%,0%,0%)" x1="385.356597191" x2="390.900043022" y1="636.89987326" y2="632.182952753" /><line stroke="rgb(0%,0%,0%)" x1="396.055073975" x2="390.900043022" y1="628.446160197" y2="632.182952753" /><line stroke="rgb(0%,0%,0%)" x1="397.103160926" x2="396.055073975" y1="628.133779995" y2="628.446160197" /><line stroke="rgb(0%,0%,0%)" x1="397.103160926" x2="402.859776514" y1="628.133779995" y2="624.129164462" /><line stroke="rgb(0%,0%,0%)" x1="402.859776514" x2="406.037229572" y1="624.129164462" y2="622.807021557" /><line stroke="rgb(0%,0%,0%)" x1="408.565591062" x2="408.153475751" y1="314.899836988" y2="314.651327991" /><line stroke="rgb(0%,0%,0%)" x1="420.332925742" x2="418.819386007" y1="322.390470772" y2="321.037591912" /><line stroke="rgb(0%,0%,0%)" x1="341.253351158" x2="340.836972453" y1="866.660224977" y2="867.788710425" /><line stroke="rgb(0%,0%,0%)" x1="341.525370871" x2="340.836972453" y1="870.68196451" y2="867.788710425" /><line stroke="rgb(0%,0%,0%)" x1="341.525370871" x2="341.493923063" y1="870.68196451" y2="871.036424954" /><line stroke="rgb(0%,0%,0%)" x1="341.253351158" x2="340.561936283" y1="866.660224977" y2="857.194438934" /><line stroke="rgb(0%,0%,0%)" x1="336.480974975" x2="335.749132911" y1="844.543263365" y2="843.091565684" /><line stroke="rgb(0%,0%,0%)" x1="336.480974975" x2="339.876880322" y1="844.543263365" y2="853.527827086" /><line stroke="rgb(0%,0%,0%)" x1="348.387565539" x2="344.05484151" y1="654.360168573" y2="655.694360442" /><line stroke="rgb(0%,0%,0%)" x1="348.387565539" x2="359.071642836" y1="654.360168573" y2="648.605864693" /><line stroke="rgb(0%,0%,0%)" x1="366.219573621" x2="360.842023949" y1="644.721526273" y2="647.656680987" /><line stroke="rgb(0%,0%,0%)" x1="360.529216583" x2="360.582821452" y1="647.863398152" y2="647.786447877" /><line stroke="rgb(0%,0%,0%)" x1="360.582821452" x2="360.842023949" y1="647.786447877" y2="647.656680987" /><line stroke="rgb(0%,0%,0%)" x1="368.802223026" x2="371.887214475" y1="644.158278691" y2="644.244999976" /><line stroke="rgb(0%,0%,0%)" x1="366.219573621" x2="368.802223026" y1="644.721526273" y2="644.158278691" /><line stroke="rgb(0%,0%,0%)" x1="377.960256354" x2="372.247332414" y1="642.228344838" y2="644.107865627" /><line stroke="rgb(0%,0%,0%)" x1="371.887214475" x2="372.247332414" y1="644.244999976" y2="644.107865627" /><line stroke="rgb(0%,0%,0%)" x1="377.960256354" x2="378.851670502" y1="642.228344838" y2="641.643423966" /><line stroke="rgb(0%,0%,0%)" x1="378.851670502" x2="385.356597191" y1="641.643423966" y2="636.89987326" /><line stroke="rgb(0%,0%,0%)" x1="304.349579985" x2="304.519287234" y1="861.122503557" y2="862.000945276" /><line stroke="rgb(0%,0%,0%)" x1="296.837811202" x2="299.017033132" y1="855.244276232" y2="856.043604559" /><line stroke="rgb(0%,0%,0%)" x1="296.837811202" x2="296.513885667" y1="855.244276232" y2="852.865631446" /><line stroke="rgb(0%,0%,0%)" x1="308.683449171" x2="306.738911611" y1="656.981436085" y2="656.368478728" /><line stroke="rgb(0%,0%,0%)" x1="299.123774841" x2="297.86771423" y1="656.197374994" y2="656.388299378" /><line stroke="rgb(0%,0%,0%)" x1="299.123774841" x2="300.578471802" y1="656.197374994" y2="655.950352659" /><line stroke="rgb(0%,0%,0%)" x1="300.578471802" x2="301.719381476" y1="655.950352659" y2="655.671010351" /><line stroke="rgb(0%,0%,0%)" x1="310.817951759" x2="310.52779453" y1="925.285767886" y2="925.334567971" /><line stroke="rgb(0%,0%,0%)" x1="310.089484418" x2="309.659056473" y1="890.343282561" y2="892.624441302" /><line stroke="rgb(0%,0%,0%)" x1="307.779750903" x2="307.378841089" y1="899.687382743" y2="901.661702134" /><line stroke="rgb(0%,0%,0%)" x1="309.659056473" x2="307.779750903" y1="892.624441302" y2="899.687382743" /><line stroke="rgb(0%,0%,0%)" x1="308.683449171" x2="310.777875186" y1="656.981436085" y2="656.654388196" /><line stroke="rgb(0%,0%,0%)" x1="310.777875186" x2="318.474084287" y1="656.654388196" y2="657.543768794" /><line stroke="rgb(0%,0%,0%)" x1="326.0746741" x2="322.399965325" y1="907.098757817" y2="912.90849103" /><line stroke="rgb(0%,0%,0%)" x1="330.881729434" x2="322.63221915" y1="836.689556102" y2="830.184385227" /><line stroke="rgb(0%,0%,0%)" x1="329.40524031" x2="328.46234006" y1="658.018480895" y2="658.042898985" /><line stroke="rgb(0%,0%,0%)" x1="318.474084287" x2="319.375881132" y1="657.543768794" y2="657.49456437" /><line stroke="rgb(0%,0%,0%)" x1="329.40524031" x2="330.882538882" y1="658.018480895" y2="657.194202209" /><line stroke="rgb(0%,0%,0%)" x1="330.882538882" x2="336.767060924" y1="657.194202209" y2="656.998180722" /><line stroke="rgb(0%,0%,0%)" x1="319.375881132" x2="324.080838481" y1="657.49456437" y2="657.382843716" /><line stroke="rgb(0%,0%,0%)" x1="324.080838481" x2="328.46234006" y1="657.382843716" y2="658.042898985" /><line stroke="rgb(0%,0%,0%)" x1="331.474514074" x2="329.11088122" y1="895.845046122" y2="900.642798956" /><line stroke="rgb(0%,0%,0%)" x1="333.26863783" x2="331.474514074" y1="890.101164367" y2="895.845046122" /><line stroke="rgb(0%,0%,0%)" x1="337.816726233" x2="339.154189731" y1="878.385113417" y2="875.89838468" /><line stroke="rgb(0%,0%,0%)" x1="337.638341718" x2="337.816726233" y1="878.791627315" y2="878.385113417" /><line stroke="rgb(0%,0%,0%)" x1="341.493923063" x2="339.154189731" y1="871.036424954" y2="875.89838468" /><line stroke="rgb(0%,0%,0%)" x1="340.561936283" x2="340.318918657" y1="857.194438934" y2="855.121548521" /><line stroke="rgb(0%,0%,0%)" x1="340.318918657" x2="340.192326287" y1="855.121548521" y2="854.875064282" /><line stroke="rgb(0%,0%,0%)" x1="340.192326287" x2="339.876880322" y1="854.875064282" y2="853.527827086" /><line stroke="rgb(0%,0%,0%)" x1="332.496126457" x2="330.881729434" y1="840.161811772" y2="836.689556102" /><line stroke="rgb(0%,0%,0%)" x1="336.767060924" x2="344.05484151" y1="656.998180722" y2="655.694360442" /><line stroke="rgb(0%,0%,0%)" x1="359.071642836" x2="360.529216583" y1="648.605864693" y2="647.863398152" /><line stroke="rgb(0%,0%,0%)" x1="286.749336752" x2="288.229994486" y1="659.129553894" y2="659.028130629" /><line stroke="rgb(0%,0%,0%)" x1="290.581329652" x2="288.229994486" y1="658.107934038" y2="659.028130629" /><line stroke="rgb(0%,0%,0%)" x1="302.229675475" x2="303.035766647" y1="924.39016895" y2="914.87886061" /><line stroke="rgb(0%,0%,0%)" x1="303.020603192" x2="303.035766647" y1="914.128966641" y2="914.87886061" /><line stroke="rgb(0%,0%,0%)" x1="300.261805125" x2="302.116409738" y1="858.339710651" y2="859.244180875" /><line stroke="rgb(0%,0%,0%)" x1="304.349579985" x2="302.116409738" y1="861.122503557" y2="859.244180875" /><line stroke="rgb(0%,0%,0%)" x1="299.017033132" x2="299.277746237" y1="856.043604559" y2="856.729560585" /><line stroke="rgb(0%,0%,0%)" x1="295.64542024" x2="296.513885667" y1="849.270813216" y2="852.865631446" /><line stroke="rgb(0%,0%,0%)" x1="301.470493741" x2="298.689509688" y1="836.004582333" y2="840.19728735" /><line stroke="rgb(0%,0%,0%)" x1="298.689509688" x2="297.177992118" y1="840.19728735" y2="844.836780809" /><line stroke="rgb(0%,0%,0%)" x1="295.64542024" x2="297.177992118" y1="849.270813216" y2="844.836780809" /><line stroke="rgb(0%,0%,0%)" x1="305.073807225" x2="301.470493741" y1="833.842286139" y2="836.004582333" /><line stroke="rgb(0%,0%,0%)" x1="295.421201554" x2="296.801668466" y1="657.212222563" y2="656.914489301" /><line stroke="rgb(0%,0%,0%)" x1="296.801668466" x2="297.86771423" y1="656.914489301" y2="656.388299378" /><line stroke="rgb(0%,0%,0%)" x1="290.581329652" x2="295.421201554" y1="658.107934038" y2="657.212222563" /><line stroke="rgb(0%,0%,0%)" x1="301.719381476" x2="303.761596313" y1="655.671010351" y2="655.694012123" /><line stroke="rgb(0%,0%,0%)" x1="303.761596313" x2="304.518372569" y1="655.694012123" y2="655.761819781" /><line stroke="rgb(0%,0%,0%)" x1="304.159214141" x2="310.52779453" y1="926.826457978" y2="925.334567971" /><line stroke="rgb(0%,0%,0%)" x1="303.591181943" x2="304.159214141" y1="926.024746707" y2="926.826457978" /><line stroke="rgb(0%,0%,0%)" x1="302.229675475" x2="303.591181943" y1="924.39016895" y2="926.024746707" /><line stroke="rgb(0%,0%,0%)" x1="310.817951759" x2="311.521471321" y1="925.285767886" y2="924.638766851" /><line stroke="rgb(0%,0%,0%)" x1="303.350580511" x2="303.020603192" y1="911.441380555" y2="914.128966641" /><line stroke="rgb(0%,0%,0%)" x1="304.359875901" x2="303.350580511" y1="909.744724474" y2="911.441380555" /><line stroke="rgb(0%,0%,0%)" x1="307.378841089" x2="304.359875901" y1="901.661702134" y2="909.744724474" /><line stroke="rgb(0%,0%,0%)" x1="309.064358656" x2="310.089484418" y1="884.622349168" y2="890.343282561" /><line stroke="rgb(0%,0%,0%)" x1="309.064358656" x2="307.00633649" y1="884.622349168" y2="879.510915251" /><line stroke="rgb(0%,0%,0%)" x1="307.075999396" x2="307.00633649" y1="871.986622394" y2="879.510915251" /><line stroke="rgb(0%,0%,0%)" x1="304.76970815" x2="307.075999396" y1="863.209876646" y2="871.986622394" /><line stroke="rgb(0%,0%,0%)" x1="304.519287234" x2="304.76970815" y1="862.000945276" y2="863.209876646" /><line stroke="rgb(0%,0%,0%)" x1="316.647693901" x2="312.353373951" y1="829.140784311" y2="830.344536296" /><line stroke="rgb(0%,0%,0%)" x1="309.310257021" x2="305.073807225" y1="830.847130058" y2="833.842286139" /><line stroke="rgb(0%,0%,0%)" x1="309.310257021" x2="312.353373951" y1="830.847130058" y2="830.344536296" /><line stroke="rgb(0%,0%,0%)" x1="304.518372569" x2="306.738911611" y1="655.761819781" y2="656.368478728" /><line stroke="rgb(0%,0%,0%)" x1="311.521471321" x2="320.599880652" y1="924.638766851" y2="915.381652186" /><line stroke="rgb(0%,0%,0%)" x1="320.599880652" x2="322.399965325" y1="915.381652186" y2="912.90849103" /><line stroke="rgb(0%,0%,0%)" x1="326.0746741" x2="329.11088122" y1="907.098757817" y2="900.642798956" /><line stroke="rgb(0%,0%,0%)" x1="322.202315195" x2="322.152650572" y1="830.119171728" y2="829.95318977" /><line stroke="rgb(0%,0%,0%)" x1="322.63221915" x2="322.202315195" y1="830.184385227" y2="830.119171728" /><line stroke="rgb(0%,0%,0%)" x1="318.307261472" x2="322.152650572" y1="829.405324559" y2="829.95318977" /><line stroke="rgb(0%,0%,0%)" x1="318.307261472" x2="316.647693901" y1="829.405324559" y2="829.140784311" /><line stroke="rgb(0%,0%,0%)" x1="333.26863783" x2="335.225525516" y1="890.101164367" y2="882.154260403" /><line stroke="rgb(0%,0%,0%)" x1="337.558183475" x2="337.638341718" y1="879.118148392" y2="878.791627315" /><line stroke="rgb(0%,0%,0%)" x1="335.225525516" x2="337.558183475" y1="882.154260403" y2="879.118148392" /><line stroke="rgb(0%,0%,0%)" x1="335.749132911" x2="332.496126457" y1="843.091565684" y2="840.161811772" /><line stroke="rgb(0%,0%,0%)" x1="242.968682491" x2="235.659508705" y1="657.710055083" y2="655.824582571" /><line stroke="rgb(0%,0%,0%)" x1="242.968682491" x2="254.536759793" y1="657.710055083" y2="661.021485642" /><line stroke="rgb(0%,0%,0%)" x1="257.792266827" x2="254.536759793" y1="661.338086684" y2="661.021485642" /><line stroke="rgb(0%,0%,0%)" x1="257.792266827" x2="260.327540623" y1="661.338086684" y2="661.549756874" /><line stroke="rgb(0%,0%,0%)" x1="260.327540623" x2="262.462459059" y1="661.549756874" y2="661.803280037" /><line stroke="rgb(0%,0%,0%)" x1="272.054463576" x2="280.7507183" y1="661.456625232" y2="660.610701555" /><line stroke="rgb(0%,0%,0%)" x1="269.826587293" x2="272.054463576" y1="661.525043943" y2="661.456625232" /><line stroke="rgb(0%,0%,0%)" x1="262.462459059" x2="268.58255668" y1="661.803280037" y2="661.637377698" /><line stroke="rgb(0%,0%,0%)" x1="268.58255668" x2="269.826587293" y1="661.637377698" y2="661.525043943" /><line stroke="rgb(0%,0%,0%)" x1="280.7507183" x2="286.749336752" y1="660.610701555" y2="659.129553894" /><line stroke="rgb(0%,0%,0%)" x1="299.567346528" x2="300.261805125" y1="857.939534874" y2="858.339710651" /><line stroke="rgb(0%,0%,0%)" x1="299.277746237" x2="299.567346528" y1="856.729560585" y2="857.939534874" /><line stroke="rgb(0%,0%,0%)" x1="205.85881617" x2="227.062372639" y1="644.348352634" y2="652.683462732" /><line stroke="rgb(0%,0%,0%)" x1="227.062372639" x2="235.659508705" y1="652.683462732" y2="655.824582571" /><line stroke="rgb(0%,0%,0%)" x1="173.193000531" x2="177.745278553" y1="626.221875919" y2="628.327035677" /><line stroke="rgb(0%,0%,0%)" x1="189.351925488" x2="179.339362393" y1="633.222128212" y2="628.955098215" /><line stroke="rgb(0%,0%,0%)" x1="201.669216937" x2="195.126016575" y1="641.990506513" y2="637.319468174" /><line stroke="rgb(0%,0%,0%)" x1="195.126016575" x2="192.171658214" y1="637.319468174" y2="634.495458046" /><line stroke="rgb(0%,0%,0%)" x1="201.669216937" x2="205.85881617" y1="641.990506513" y2="644.348352634" /><line stroke="rgb(0%,0%,0%)" x1="191.360646328" x2="192.171658214" y1="633.822453787" y2="634.495458046" /><line stroke="rgb(0%,0%,0%)" x1="189.892465564" x2="191.360646328" y1="633.321921723" y2="633.822453787" /><line stroke="rgb(0%,0%,0%)" x1="134.662891788" x2="136.728692115" y1="599.352563989" y2="601.082688891" /><line stroke="rgb(0%,0%,0%)" x1="121.00517074" x2="134.662891788" y1="588.698618314" y2="599.352563989" /><line stroke="rgb(0%,0%,0%)" x1="138.845138586" x2="138.578747019" y1="600.626479033" y2="600.564439613" /><line stroke="rgb(0%,0%,0%)" x1="141.948378047" x2="145.478319092" y1="603.21675884" y2="606.36017343" /><line stroke="rgb(0%,0%,0%)" x1="149.060795793" x2="149.937475542" y1="609.360614057" y2="609.844908793" /><line stroke="rgb(0%,0%,0%)" x1="145.478319092" x2="149.060795793" y1="606.36017343" y2="609.360614057" /><line stroke="rgb(0%,0%,0%)" x1="138.845138586" x2="141.948378047" y1="600.626479033" y2="603.21675884" /><line stroke="rgb(0%,0%,0%)" x1="136.728692115" x2="138.578747019" y1="601.082688891" y2="600.564439613" /><line stroke="rgb(0%,0%,0%)" x1="189.351925488" x2="189.892465564" y1="633.222128212" y2="633.321921723" /><line stroke="rgb(0%,0%,0%)" x1="89.4748188045" x2="93.2533098458" y1="541.735611201" y2="544.53681256" /><line stroke="rgb(0%,0%,0%)" x1="106.490425508" x2="104.796755988" y1="571.878412702" y2="568.630197438" /><line stroke="rgb(0%,0%,0%)" x1="106.490425508" x2="110.120163969" y1="571.878412702" y2="577.199824841" /><line stroke="rgb(0%,0%,0%)" x1="104.796755988" x2="105.353403805" y1="568.630197438" y2="563.411012383" /><line stroke="rgb(0%,0%,0%)" x1="106.083171601" x2="105.699026972" y1="558.826090839" y2="560.296237879" /><line stroke="rgb(0%,0%,0%)" x1="105.699026972" x2="105.353403805" y1="560.296237879" y2="563.411012383" /><line stroke="rgb(0%,0%,0%)" x1="103.583670004" x2="104.155284746" y1="553.015349949" y2="554.9534606" /><line stroke="rgb(0%,0%,0%)" x1="120.474912539" x2="121.00517074" y1="588.37192698" y2="588.698618314" /><line stroke="rgb(0%,0%,0%)" x1="120.474912539" x2="118.228684351" y1="588.37192698" y2="585.89699655" /><line stroke="rgb(0%,0%,0%)" x1="110.120163969" x2="112.096568444" y1="577.199824841" y2="579.432568687" /><line stroke="rgb(0%,0%,0%)" x1="112.096568444" x2="118.228684351" y1="579.432568687" y2="585.89699655" /><line stroke="rgb(0%,0%,0%)" x1="104.155284746" x2="106.083171601" y1="554.9534606" y2="558.826090839" /><line stroke="rgb(0%,0%,0%)" x1="65.1568335076" x2="67.9036262023" y1="513.806503846" y2="517.71536612" /><line stroke="rgb(0%,0%,0%)" x1="65.1568335076" x2="59.5648087605" y1="513.806503846" y2="504.776651806" /><line stroke="rgb(0%,0%,0%)" x1="75.066536802" x2="74.5454288201" y1="526.213861067" y2="525.601465586" /><line stroke="rgb(0%,0%,0%)" x1="75.066536802" x2="89.4748188045" y1="526.213861067" y2="541.735611201" /><line stroke="rgb(0%,0%,0%)" x1="67.9036262023" x2="74.5454288201" y1="517.71536612" y2="525.601465586" /><line stroke="rgb(0%,0%,0%)" x1="93.2533098458" x2="103.583670004" y1="544.53681256" y2="553.015349949" /><line stroke="rgb(0%,0%,0%)" x1="50.1613692865" x2="51.768896367" y1="480.741834467" y2="488.542496567" /><line stroke="rgb(0%,0%,0%)" x1="50.1613692865" x2="51.7973823906" y1="480.741834467" y2="474.022504539" /><line stroke="rgb(0%,0%,0%)" x1="57.2667456285" x2="52.0324870559" y1="501.296600588" y2="489.507558038" /><line stroke="rgb(0%,0%,0%)" x1="51.768896367" x2="52.0324870559" y1="488.542496567" y2="489.507558038" /><line stroke="rgb(0%,0%,0%)" x1="52.3898672326" x2="51.7973823906" y1="472.186016977" y2="474.022504539" /><line stroke="rgb(0%,0%,0%)" x1="57.7868184979" x2="52.3898672326" y1="462.899086957" y2="472.186016977" /><line stroke="rgb(0%,0%,0%)" x1="60.0061099652" x2="57.7868184979" y1="459.799840199" y2="462.899086957" /><line stroke="rgb(0%,0%,0%)" x1="57.8534533904" x2="59.5648087605" y1="501.904230997" y2="504.776651806" /><line stroke="rgb(0%,0%,0%)" x1="57.2667456285" x2="57.8534533904" y1="501.296600588" y2="501.904230997" /><line stroke="rgb(0%,0%,0%)" x1="454.146840192" x2="451.302655906" y1="580.501180868" y2="584.042800575" /><line stroke="rgb(0%,0%,0%)" x1="415.482578551" x2="408.480077377" y1="615.901684938" y2="621.468523721" /><line stroke="rgb(0%,0%,0%)" x1="426.303481147" x2="416.611042291" y1="609.314466936" y2="614.968420854" /><line stroke="rgb(0%,0%,0%)" x1="426.303481147" x2="433.867351808" y1="609.314466936" y2="604.645331757" /><line stroke="rgb(0%,0%,0%)" x1="434.999152909" x2="433.867351808" y1="603.78722647" y2="604.645331757" /><line stroke="rgb(0%,0%,0%)" x1="434.999152909" x2="436.639564185" y1="603.78722647" y2="600.694014021" /><line stroke="rgb(0%,0%,0%)" x1="436.639564185" x2="439.432022907" y1="600.694014021" y2="598.924485585" /><line stroke="rgb(0%,0%,0%)" x1="441.081057417" x2="442.82351625" y1="596.271370271" y2="593.042983374" /><line stroke="rgb(0%,0%,0%)" x1="439.432022907" x2="441.081057417" y1="598.924485585" y2="596.271370271" /><line stroke="rgb(0%,0%,0%)" x1="442.82351625" x2="451.302655906" y1="593.042983374" y2="584.042800575" /><line stroke="rgb(0%,0%,0%)" x1="454.146840192" x2="456.115081248" y1="580.501180868" y2="573.994914188" /><line stroke="rgb(0%,0%,0%)" x1="456.115081248" x2="456.350164309" y1="573.994914188" y2="572.94939276" /><line stroke="rgb(0%,0%,0%)" x1="456.350164309" x2="457.877032429" y1="572.94939276" y2="567.952687885" /><line stroke="rgb(0%,0%,0%)" x1="457.877032429" x2="459.114521643" y1="567.952687885" y2="566.878320626" /><line stroke="rgb(0%,0%,0%)" x1="406.037229572" x2="408.480077377" y1="622.807021557" y2="621.468523721" /><line stroke="rgb(0%,0%,0%)" x1="415.482578551" x2="416.611042291" y1="615.901684938" y2="614.968420854" /><line stroke="rgb(0%,0%,0%)" x1="155.834929305" x2="151.96469874" y1="613.824789499" y2="611.41841096" /><line stroke="rgb(0%,0%,0%)" x1="149.937475542" x2="151.96469874" y1="609.844908793" y2="611.41841096" /><line stroke="rgb(0%,0%,0%)" x1="172.327484808" x2="173.193000531" y1="625.473952837" y2="626.221875919" /><line stroke="rgb(0%,0%,0%)" x1="172.327484808" x2="170.848018928" y1="625.473952837" y2="624.489488995" /><line stroke="rgb(0%,0%,0%)" x1="155.834929305" x2="170.848018928" y1="613.824789499" y2="624.489488995" /><line stroke="rgb(0%,0%,0%)" x1="178.948342505" x2="179.339362393" y1="628.680624322" y2="628.955098215" /><line stroke="rgb(0%,0%,0%)" x1="177.745278553" x2="178.948342505" y1="628.327035677" y2="628.680624322" /><line stroke="rgb(0%,0%,0%)" x1="60.2777730319" x2="60.0061099652" y1="459.292774092" y2="459.799840199" /></svg>