<?xml version="1.0" encoding="utf-8" ?>
<svg baseProfile="full" height="100%" version="1.1" viewBox="0.5 0.5 685.793960571 941.299331665" width="100%" xmlns="http://www.w3.org/2000/svg" xmlns:ev="http://www.w3.org/2001/xml-events" xmlns:xlink="http://www.w3.org/1999/xlink"><defs /><line stroke="rgb(0%,0%,0%)" x1="491.792213978" x2="491.91412755" y1="464.430616289" y2="463.476631471" /><line stroke="rgb(0%,0%,0%)" x1="491.91412755" x2="492.009674841" y1="463.476631471" y2="459.437242032" /><line stroke="rgb(0%,0%,0%)" x1="447.313917583" x2="447.941970272" y1="364.331404298" y2="365.530639789" /><line stroke="rgb(0%,0%,0%)" x1="485.612622267" x2="485.652610615" y1="422.642877893" y2="422.678399414" /><line stroke="rgb(0%,0%,0%)" x1="485.612622267" x2="480.72351074" y1="422.642877893" y2="414.045425606" /><line stroke="rgb(0%,0%,0%)" x1="480.72351074" x2="473.254071269" y1="414.045425606" y2="402.638182589" /><line stroke="rgb(0%,0%,0%)" x1="486.070213867" x2="487.023599268" y1="423.238149427" y2="427.058948963" /><line stroke="rgb(0%,0%,0%)" x1="485.652610615" x2="486.070213867" y1="422.678399414" y2="423.238149427" /><line stroke="rgb(0%,0%,0%)" x1="451.282772515" x2="447.941970272" y1="373.490656834" y2="365.530639789" /><line stroke="rgb(0%,0%,0%)" x1="462.206040607" x2="468.635492725" y1="385.141920893" y2="396.028703736" /><line stroke="rgb(0%,0%,0%)" x1="462.206040607" x2="459.96197689" y1="385.141920893" y2="382.304985852" /><line stroke="rgb(0%,0%,0%)" x1="456.49361563" x2="459.96197689" y1="377.195466985" y2="382.304985852" /><line stroke="rgb(0%,0%,0%)" x1="491.97134009" x2="490.48204293" y1="449.401507469" y2="442.656313391" /><line stroke="rgb(0%,0%,0%)" x1="490.48204293" x2="488.59609635" y1="442.656313391" y2="432.348035938" /><line stroke="rgb(0%,0%,0%)" x1="488.59609635" x2="487.023599268" y1="432.348035938" y2="427.058948963" /><line stroke="rgb(0%,0%,0%)" x1="492.009674841" x2="491.97134009" y1="459.437242032" y2="449.401507469" /><line stroke="rgb(0%,0%,0%)" x1="376.278544229" x2="374.924030564" y1="293.992378072" y2="293.247050557" /><line stroke="rgb(0%,0%,0%)" x1="376.278544229" x2="376.547518229" y1="293.992378072" y2="294.476715858" /><line stroke="rgb(0%,0%,0%)" x1="456.49361563" x2="451.282772515" y1="377.195466985" y2="373.490656834" /><line stroke="rgb(0%,0%,0%)" x1="473.254071269" x2="472.369609565" y1="402.638182589" y2="401.579906452" /><line stroke="rgb(0%,0%,0%)" x1="472.369609565" x2="468.635492725" y1="401.579906452" y2="396.028703736" /><line stroke="rgb(0%,0%,0%)" x1="354.231867241" x2="354.270138027" y1="283.55356447" y2="283.572844268" /><line stroke="rgb(0%,0%,0%)" x1="382.089783665" x2="382.917623127" y1="298.13237236" y2="299.00961484" /><line stroke="rgb(0%,0%,0%)" x1="374.924030564" x2="374.052778597" y1="293.247050557" y2="292.692758871" /><line stroke="rgb(0%,0%,0%)" x1="391.593394241" x2="384.183812055" y1="306.175000027" y2="299.569698139" /><line stroke="rgb(0%,0%,0%)" x1="384.183812055" x2="382.917623127" y1="299.569698139" y2="299.00961484" /><line stroke="rgb(0%,0%,0%)" x1="391.593394241" x2="393.260729604" y1="306.175000027" y2="306.954972739" /><line stroke="rgb(0%,0%,0%)" x1="305.109868211" x2="306.859120962" y1="271.765312336" y2="271.491662728" /><line stroke="rgb(0%,0%,0%)" x1="342.599434595" x2="337.924506753" y1="277.683684818" y2="275.114365205" /><line stroke="rgb(0%,0%,0%)" x1="354.231867241" x2="344.604950404" y1="283.55356447" y2="278.494095505" /><line stroke="rgb(0%,0%,0%)" x1="344.604950404" x2="342.599434595" y1="278.494095505" y2="277.683684818" /><line stroke="rgb(0%,0%,0%)" x1="354.270138027" x2="354.374925917" y1="283.572844268" y2="283.592538812" /><line stroke="rgb(0%,0%,0%)" x1="368.813190426" x2="364.599748969" y1="288.790084374" y2="286.194912929" /><line stroke="rgb(0%,0%,0%)" x1="364.599748969" x2="362.052221212" y1="286.194912929" y2="285.704296221" /><line stroke="rgb(0%,0%,0%)" x1="382.089783665" x2="376.547518229" y1="298.13237236" y2="294.476715858" /><line stroke="rgb(0%,0%,0%)" x1="371.408297485" x2="368.813190426" y1="290.848400572" y2="288.790084374" /><line stroke="rgb(0%,0%,0%)" x1="374.052778597" x2="371.408297485" y1="292.692758871" y2="290.848400572" /><line stroke="rgb(0%,0%,0%)" x1="298.295880981" x2="297.467776145" y1="274.674128948" y2="274.757102055" /><line stroke="rgb(0%,0%,0%)" x1="305.109868211" x2="303.861739608" y1="271.765312336" y2="271.988608488" /><line stroke="rgb(0%,0%,0%)" x1="317.334661719" x2="306.859120962" y1="270.603288501" y2="271.491662728" /><line stroke="rgb(0%,0%,0%)" x1="317.334661719" x2="320.870099255" y1="270.603288501" y2="270.625859117" /><line stroke="rgb(0%,0%,0%)" x1="337.924506753" x2="336.920613466" y1="275.114365205" y2="274.682879288" /><line stroke="rgb(0%,0%,0%)" x1="329.092801698" x2="336.920613466" y1="272.849680278" y2="274.682879288" /><line stroke="rgb(0%,0%,0%)" x1="362.052221212" x2="360.446764318" y1="285.704296221" y2="284.995833069" /><line stroke="rgb(0%,0%,0%)" x1="360.446764318" x2="354.374925917" y1="284.995833069" y2="283.592538812" /><line stroke="rgb(0%,0%,0%)" x1="284.427089981" x2="279.728822975" y1="274.811019258" y2="274.915876257" /><line stroke="rgb(0%,0%,0%)" x1="297.467776145" x2="291.920747893" y1="274.757102055" y2="275.886457444" /><line stroke="rgb(0%,0%,0%)" x1="291.920747893" x2="290.410281707" y1="275.886457444" y2="275.854725052" /><line stroke="rgb(0%,0%,0%)" x1="290.410281707" x2="287.651776933" y1="275.854725052" y2="275.41767021" /><line stroke="rgb(0%,0%,0%)" x1="286.125274085" x2="284.427089981" y1="275.333847595" y2="274.811019258" /><line stroke="rgb(0%,0%,0%)" x1="287.651776933" x2="286.125274085" y1="275.41767021" y2="275.333847595" /><line stroke="rgb(0%,0%,0%)" x1="303.861739608" x2="298.295880981" y1="271.988608488" y2="274.674128948" /><line stroke="rgb(0%,0%,0%)" x1="328.616108363" x2="320.870099255" y1="272.359166372" y2="270.625859117" /><line stroke="rgb(0%,0%,0%)" x1="329.092801698" x2="328.616108363" y1="272.849680278" y2="272.359166372" /><line stroke="rgb(0%,0%,0%)" x1="250.088780238" x2="245.310362903" y1="270.962934231" y2="271.375676164" /><line stroke="rgb(0%,0%,0%)" x1="255.01163679" x2="250.088780238" y1="271.519809256" y2="270.962934231" /><line stroke="rgb(0%,0%,0%)" x1="255.01163679" x2="257.472990615" y1="271.519809256" y2="271.51000682" /><line stroke="rgb(0%,0%,0%)" x1="264.603029951" x2="269.960372329" y1="273.712655196" y2="275.8788424" /><line stroke="rgb(0%,0%,0%)" x1="264.603029951" x2="257.472990615" y1="273.712655196" y2="271.51000682" /><line stroke="rgb(0%,0%,0%)" x1="273.734344764" x2="273.33491484" y1="275.200734394" y2="275.369713422" /><line stroke="rgb(0%,0%,0%)" x1="279.097613709" x2="274.234776649" y1="274.827947044" y2="275.298927579" /><line stroke="rgb(0%,0%,0%)" x1="274.234776649" x2="273.734344764" y1="275.298927579" y2="275.200734394" /><line stroke="rgb(0%,0%,0%)" x1="279.728822975" x2="279.097613709" y1="274.915876257" y2="274.827947044" /><line stroke="rgb(0%,0%,0%)" x1="199.763141824" x2="196.693525563" y1="284.498040178" y2="285.95458776" /><line stroke="rgb(0%,0%,0%)" x1="199.763141824" x2="202.904311744" y1="284.498040178" y2="283.088134745" /><line stroke="rgb(0%,0%,0%)" x1="202.904311744" x2="206.404848935" y1="283.088134745" y2="281.774690295" /><line stroke="rgb(0%,0%,0%)" x1="224.19080149" x2="223.690389601" y1="277.802449536" y2="277.911564454" /><line stroke="rgb(0%,0%,0%)" x1="223.690389601" x2="215.07097891" y1="277.911564454" y2="281.47962878" /><line stroke="rgb(0%,0%,0%)" x1="224.19080149" x2="225.065757791" y1="277.802449536" y2="277.600878299" /><line stroke="rgb(0%,0%,0%)" x1="238.894816979" x2="225.065757791" y1="273.342552751" y2="277.600878299" /><line stroke="rgb(0%,0%,0%)" x1="245.310362903" x2="238.894816979" y1="271.375676164" y2="273.342552751" /><line stroke="rgb(0%,0%,0%)" x1="272.865563687" x2="269.960372329" y1="275.366133158" y2="275.8788424" /><line stroke="rgb(0%,0%,0%)" x1="184.15471089" x2="178.605272964" y1="288.705324623" y2="289.978972057" /><line stroke="rgb(0%,0%,0%)" x1="184.15471089" x2="187.386593419" y1="288.705324623" y2="287.171505645" /><line stroke="rgb(0%,0%,0%)" x1="196.693525563" x2="187.386593419" y1="285.95458776" y2="287.171505645" /><line stroke="rgb(0%,0%,0%)" x1="215.07097891" x2="206.404848935" y1="281.47962878" y2="281.774690295" /><line stroke="rgb(0%,0%,0%)" x1="139.505653565" x2="140.465599448" y1="320.091535988" y2="319.432226187" /><line stroke="rgb(0%,0%,0%)" x1="160.786733999" x2="155.541744131" y1="302.357197058" y2="306.532252823" /><line stroke="rgb(0%,0%,0%)" x1="160.786733999" x2="170.944291916" y1="302.357197058" y2="294.679483588" /><line stroke="rgb(0%,0%,0%)" x1="175.676402484" x2="170.944291916" y1="291.357556063" y2="294.679483588" /><line stroke="rgb(0%,0%,0%)" x1="178.605272964" x2="175.676402484" y1="289.978972057" y2="291.357556063" /><line stroke="rgb(0%,0%,0%)" x1="117.55678335" x2="113.770665947" y1="335.769645229" y2="340.789754352" /><line stroke="rgb(0%,0%,0%)" x1="126.381319528" x2="122.007384583" y1="329.224631095" y2="331.654210882" /><line stroke="rgb(0%,0%,0%)" x1="122.007384583" x2="117.55678335" y1="331.654210882" y2="335.769645229" /><line stroke="rgb(0%,0%,0%)" x1="126.381319528" x2="130.043596954" y1="329.224631095" y2="325.51181927" /><line stroke="rgb(0%,0%,0%)" x1="136.830052565" x2="130.043596954" y1="321.565292358" y2="325.51181927" /><line stroke="rgb(0%,0%,0%)" x1="138.600159925" x2="136.830052565" y1="320.4688901" y2="321.565292358" /><line stroke="rgb(0%,0%,0%)" x1="143.365456851" x2="140.465599448" y1="317.925194827" y2="319.432226187" /><line stroke="rgb(0%,0%,0%)" x1="148.720109907" x2="143.365456851" y1="313.112537254" y2="317.925194827" /><line stroke="rgb(0%,0%,0%)" x1="139.505653565" x2="138.600159925" y1="320.091535988" y2="320.4688901" /><line stroke="rgb(0%,0%,0%)" x1="155.541744131" x2="148.720109907" y1="306.532252823" y2="313.112537254" /><line stroke="rgb(0%,0%,0%)" x1="85.1076241265" x2="79.8829498738" y1="387.807079595" y2="394.161107153" /><line stroke="rgb(0%,0%,0%)" x1="85.1076241265" x2="86.3115109618" y1="387.807079595" y2="386.749426114" /><line stroke="rgb(0%,0%,0%)" x1="92.6325225133" x2="92.0209691733" y1="377.85229622" y2="378.413355749" /><line stroke="rgb(0%,0%,0%)" x1="92.6325225133" x2="95.3877684454" y1="377.85229622" y2="375.709704748" /><line stroke="rgb(0%,0%,0%)" x1="106.108511787" x2="105.159626479" y1="366.126481741" y2="367.518638312" /><line stroke="rgb(0%,0%,0%)" x1="107.966777446" x2="106.108511787" y1="362.132326804" y2="366.126481741" /><line stroke="rgb(0%,0%,0%)" x1="107.966777446" x2="107.267914357" y1="362.132326804" y2="359.340800473" /><line stroke="rgb(0%,0%,0%)" x1="105.159626479" x2="101.303718047" y1="367.518638312" y2="370.940589116" /><line stroke="rgb(0%,0%,0%)" x1="105.995065033" x2="107.267914357" y1="355.491395109" y2="359.340800473" /><line stroke="rgb(0%,0%,0%)" x1="106.390961351" x2="105.995065033" y1="351.290878688" y2="355.491395109" /><line stroke="rgb(0%,0%,0%)" x1="107.888304189" x2="106.390961351" y1="348.136954636" y2="351.290878688" /><line stroke="rgb(0%,0%,0%)" x1="107.888304189" x2="111.307394831" y1="348.136954636" y2="343.195696307" /><line stroke="rgb(0%,0%,0%)" x1="113.770665947" x2="111.307394831" y1="340.789754352" y2="343.195696307" /><line stroke="rgb(0%,0%,0%)" x1="57.598438174" x2="57.4874074252" y1="437.228917235" y2="433.097333351" /><line stroke="rgb(0%,0%,0%)" x1="59.7875576599" x2="57.6234957331" y1="423.616846079" y2="428.835339649" /><line stroke="rgb(0%,0%,0%)" x1="62.970329048" x2="61.1901188069" y1="416.113741103" y2="419.231143291" /><line stroke="rgb(0%,0%,0%)" x1="67.9775914222" x2="69.8867732601" y1="409.998980261" y2="407.212646708" /><line stroke="rgb(0%,0%,0%)" x1="67.9775914222" x2="62.970329048" y1="409.998980261" y2="416.113741103" /><line stroke="rgb(0%,0%,0%)" x1="69.8867732601" x2="71.0392017179" y1="407.212646708" y2="405.218182916" /><line stroke="rgb(0%,0%,0%)" x1="79.8829498738" x2="75.5813783925" y1="394.161107153" y2="399.828895632" /><line stroke="rgb(0%,0%,0%)" x1="92.0209691733" x2="86.3115109618" y1="378.413355749" y2="386.749426114" /><line stroke="rgb(0%,0%,0%)" x1="100.380674502" x2="95.3877684454" y1="372.254131299" y2="375.709704748" /><line stroke="rgb(0%,0%,0%)" x1="101.303718047" x2="100.380674502" y1="370.940589116" y2="372.254131299" /><line stroke="rgb(0%,0%,0%)" x1="57.6234957331" x2="57.4874074252" y1="428.835339649" y2="433.097333351" /><line stroke="rgb(0%,0%,0%)" x1="61.1901188069" x2="59.7875576599" y1="419.231143291" y2="423.616846079" /><line stroke="rgb(0%,0%,0%)" x1="64.0077298308" x2="65.4395648877" y1="454.952443705" y2="458.009404183" /><line stroke="rgb(0%,0%,0%)" x1="62.7564523357" x2="60.5378626399" y1="451.244945917" y2="447.206616295" /><line stroke="rgb(0%,0%,0%)" x1="62.7564523357" x2="64.0077298308" y1="451.244945917" y2="454.952443705" /><line stroke="rgb(0%,0%,0%)" x1="57.598438174" x2="60.5378626399" y1="437.228917235" y2="447.206616295" /><line stroke="rgb(0%,0%,0%)" x1="75.5813783925" x2="71.0392017179" y1="399.828895632" y2="405.218182916" /><line stroke="rgb(0%,0%,0%)" x1="491.792213978" x2="492.208200046" y1="464.430616289" y2="467.719441918" /><line stroke="rgb(0%,0%,0%)" x1="492.208200046" x2="492.189024929" y1="467.719441918" y2="469.807406911" /><line stroke="rgb(0%,0%,0%)" x1="487.11118064" x2="488.348748038" y1="504.201507208" y2="501.553161533" /><line stroke="rgb(0%,0%,0%)" x1="492.59521266" x2="492.189024929" y1="475.031646098" y2="469.807406911" /><line stroke="rgb(0%,0%,0%)" x1="447.313917583" x2="446.844572172" y1="364.331404298" y2="363.286217424" /><line stroke="rgb(0%,0%,0%)" x1="455.929084687" x2="458.603415647" y1="558.416314462" y2="554.222770296" /><line stroke="rgb(0%,0%,0%)" x1="467.654527823" x2="468.46516708" y1="542.07750457" y2="540.825356714" /><line stroke="rgb(0%,0%,0%)" x1="477.204630122" x2="468.46516708" y1="525.091680251" y2="540.825356714" /><line stroke="rgb(0%,0%,0%)" x1="481.265210486" x2="477.758395588" y1="516.416549332" y2="523.717990003" /><line stroke="rgb(0%,0%,0%)" x1="481.265210486" x2="487.11118064" y1="516.416549332" y2="504.201507208" /><line stroke="rgb(0%,0%,0%)" x1="488.348748038" x2="490.157718879" y1="501.553161533" y2="492.81592796" /><line stroke="rgb(0%,0%,0%)" x1="490.157718879" x2="491.344734482" y1="492.81592796" y2="489.322373995" /><line stroke="rgb(0%,0%,0%)" x1="492.144031775" x2="491.344734482" y1="485.116868556" y2="489.322373995" /><line stroke="rgb(0%,0%,0%)" x1="492.144031775" x2="492.138835206" y1="485.116868556" y2="483.655223833" /><line stroke="rgb(0%,0%,0%)" x1="492.138835206" x2="492.59521266" y1="483.655223833" y2="475.031646098" /><line stroke="rgb(0%,0%,0%)" x1="408.853981163" x2="407.712673569" y1="316.544027598" y2="316.10414989" /><line stroke="rgb(0%,0%,0%)" x1="402.419486182" x2="404.228455765" y1="312.100219937" y2="314.003137266" /><line stroke="rgb(0%,0%,0%)" x1="402.419486182" x2="399.536347957" y1="312.100219937" y2="310.083806163" /><line stroke="rgb(0%,0%,0%)" x1="418.625631318" x2="422.3995136" y1="324.190659594" y2="326.027463698" /><line stroke="rgb(0%,0%,0%)" x1="415.287298137" x2="412.975784455" y1="321.206687463" y2="320.478156015" /><line stroke="rgb(0%,0%,0%)" x1="408.853981163" x2="410.518053145" y1="316.544027598" y2="317.677376571" /><line stroke="rgb(0%,0%,0%)" x1="410.518053145" x2="412.10111271" y1="317.677376571" y2="319.735518729" /><line stroke="rgb(0%,0%,0%)" x1="446.844572172" x2="442.980789434" y1="363.286217424" y2="354.157170824" /><line stroke="rgb(0%,0%,0%)" x1="442.980789434" x2="441.54235389" y1="354.157170824" y2="348.962392712" /><line stroke="rgb(0%,0%,0%)" x1="441.54235389" x2="438.71189853" y1="348.962392712" y2="343.489496361" /><line stroke="rgb(0%,0%,0%)" x1="455.275732838" x2="453.339575096" y1="562.48234409" y2="566.277735137" /><line stroke="rgb(0%,0%,0%)" x1="453.30270605" x2="453.339575096" y1="566.400702145" y2="566.277735137" /><line stroke="rgb(0%,0%,0%)" x1="455.929084687" x2="455.275732838" y1="558.416314462" y2="562.48234409" /><line stroke="rgb(0%,0%,0%)" x1="458.603415647" x2="462.514036976" y1="554.222770296" y2="551.024436292" /><line stroke="rgb(0%,0%,0%)" x1="462.514036976" x2="467.082838716" y1="551.024436292" y2="543.075546624" /><line stroke="rgb(0%,0%,0%)" x1="477.204630122" x2="477.758395588" y1="525.091680251" y2="523.717990003" /><line stroke="rgb(0%,0%,0%)" x1="412.975784455" x2="412.10111271" y1="320.478156015" y2="319.735518729" /><line stroke="rgb(0%,0%,0%)" x1="407.712673569" x2="404.228455765" y1="316.10414989" y2="314.003137266" /><line stroke="rgb(0%,0%,0%)" x1="423.690980614" x2="422.3995136" y1="327.248540395" y2="326.027463698" /><line stroke="rgb(0%,0%,0%)" x1="418.625631318" x2="415.287298137" y1="324.190659594" y2="321.206687463" /><line stroke="rgb(0%,0%,0%)" x1="438.591858703" x2="438.54583479" y1="343.412731509" y2="343.280769741" /><line stroke="rgb(0%,0%,0%)" x1="438.71189853" x2="438.591858703" y1="343.489496361" y2="343.412731509" /><line stroke="rgb(0%,0%,0%)" x1="433.494311547" x2="438.493932601" y1="338.901006847" y2="343.190901228" /><line stroke="rgb(0%,0%,0%)" x1="438.54583479" x2="438.493932601" y1="343.280769741" y2="343.190901228" /><line stroke="rgb(0%,0%,0%)" x1="433.494311547" x2="431.579711341" y1="338.901006847" y2="336.810655479" /><line stroke="rgb(0%,0%,0%)" x1="431.579711341" x2="423.690980614" y1="336.810655479" y2="327.248540395" /><line stroke="rgb(0%,0%,0%)" x1="467.082838716" x2="467.654527823" y1="543.075546624" y2="542.07750457" /><line stroke="rgb(0%,0%,0%)" x1="362.92840379" x2="362.752292637" y1="643.763707452" y2="643.859831804" /><line stroke="rgb(0%,0%,0%)" x1="357.58376827" x2="358.469482939" y1="647.275424987" y2="646.003973561" /><line stroke="rgb(0%,0%,0%)" x1="358.469482939" x2="362.752292637" y1="646.003973561" y2="643.859831804" /><line stroke="rgb(0%,0%,0%)" x1="371.890336491" x2="372.697144958" y1="641.80920797" y2="641.831887925" /><line stroke="rgb(0%,0%,0%)" x1="362.92840379" x2="371.890336491" y1="643.763707452" y2="641.80920797" /><line stroke="rgb(0%,0%,0%)" x1="372.697144958" x2="375.140519342" y1="641.831887925" y2="640.901441207" /><line stroke="rgb(0%,0%,0%)" x1="378.49919828" x2="376.487489871" y1="638.836841891" y2="640.156868323" /><line stroke="rgb(0%,0%,0%)" x1="378.49919828" x2="391.647234736" y1="638.836841891" y2="629.248974019" /><line stroke="rgb(0%,0%,0%)" x1="391.647234736" x2="393.671064746" y1="629.248974019" y2="627.647132066" /><line stroke="rgb(0%,0%,0%)" x1="393.671064746" x2="393.970372428" y1="627.647132066" y2="627.433336703" /><line stroke="rgb(0%,0%,0%)" x1="399.536347957" x2="394.932503479" y1="310.083806163" y2="307.614049769" /><line stroke="rgb(0%,0%,0%)" x1="394.932503479" x2="393.260729604" y1="307.614049769" y2="306.954972739" /><line stroke="rgb(0%,0%,0%)" x1="400.288170413" x2="396.078352395" y1="622.937081632" y2="625.869318219" /><line stroke="rgb(0%,0%,0%)" x1="393.970372428" x2="396.078352395" y1="627.433336703" y2="625.869318219" /><line stroke="rgb(0%,0%,0%)" x1="325.959167342" x2="324.547580215" y1="844.321716937" y2="843.208606565" /><line stroke="rgb(0%,0%,0%)" x1="330.414048357" x2="329.469202243" y1="654.84963896" y2="655.376828607" /><line stroke="rgb(0%,0%,0%)" x1="330.414048357" x2="333.237366702" y1="654.84963896" y2="654.75559036" /><line stroke="rgb(0%,0%,0%)" x1="323.075632369" x2="320.371740122" y1="655.000621878" y2="655.064826628" /><line stroke="rgb(0%,0%,0%)" x1="323.075632369" x2="325.677704144" y1="655.000621878" y2="655.392613334" /><line stroke="rgb(0%,0%,0%)" x1="333.945401654" x2="335.361479515" y1="881.462453558" y2="878.23540589" /><line stroke="rgb(0%,0%,0%)" x1="335.324023492" x2="335.869922395" y1="877.707870078" y2="869.18116664" /><line stroke="rgb(0%,0%,0%)" x1="335.324023492" x2="335.361479515" y1="877.707870078" y2="878.23540589" /><line stroke="rgb(0%,0%,0%)" x1="329.388666273" x2="325.959167342" y1="851.697905653" y2="844.321716937" /><line stroke="rgb(0%,0%,0%)" x1="333.237366702" x2="340.765184747" y1="654.75559036" y2="653.408826182" /><line stroke="rgb(0%,0%,0%)" x1="357.58376827" x2="351.643123768" y1="647.275424987" y2="650.301501563" /><line stroke="rgb(0%,0%,0%)" x1="375.140519342" x2="376.487489871" y1="640.901441207" y2="640.156868323" /><line stroke="rgb(0%,0%,0%)" x1="298.244673322" x2="297.636085411" y1="846.17277061" y2="847.090298197" /><line stroke="rgb(0%,0%,0%)" x1="297.636085411" x2="296.594417637" y1="847.090298197" y2="850.287621812" /><line stroke="rgb(0%,0%,0%)" x1="298.244673322" x2="300.972857314" y1="846.17277061" y2="844.535626939" /><line stroke="rgb(0%,0%,0%)" x1="293.561044112" x2="295.707654085" y1="654.097293452" y2="653.634321696" /><line stroke="rgb(0%,0%,0%)" x1="293.561044112" x2="291.944464519" y1="654.097293452" y2="654.396472629" /><line stroke="rgb(0%,0%,0%)" x1="306.156988895" x2="305.862727735" y1="652.231270002" y2="652.204904006" /><line stroke="rgb(0%,0%,0%)" x1="295.707654085" x2="296.462398702" y1="653.634321696" y2="653.206621498" /><line stroke="rgb(0%,0%,0%)" x1="316.237147087" x2="314.855555826" y1="924.925722964" y2="926.231106659" /><line stroke="rgb(0%,0%,0%)" x1="304.800771804" x2="304.913999626" y1="894.376737818" y2="895.008629877" /><line stroke="rgb(0%,0%,0%)" x1="304.800771804" x2="304.663044854" y1="894.376737818" y2="894.034670463" /><line stroke="rgb(0%,0%,0%)" x1="304.663044854" x2="304.682275584" y1="894.034670463" y2="891.95755871" /><line stroke="rgb(0%,0%,0%)" x1="305.39443403" x2="300.972857314" y1="841.041396212" y2="844.535626939" /><line stroke="rgb(0%,0%,0%)" x1="313.600775476" x2="308.111103929" y1="839.755688336" y2="841.294512432" /><line stroke="rgb(0%,0%,0%)" x1="308.111103929" x2="305.39443403" y1="841.294512432" y2="841.041396212" /><line stroke="rgb(0%,0%,0%)" x1="306.156988895" x2="306.250626529" y1="652.231270002" y2="652.256852128" /><line stroke="rgb(0%,0%,0%)" x1="306.250626529" x2="307.618329222" y1="652.256852128" y2="652.930803149" /><line stroke="rgb(0%,0%,0%)" x1="316.652466444" x2="316.237147087" y1="924.50222819" y2="924.925722964" /><line stroke="rgb(0%,0%,0%)" x1="316.652466444" x2="317.18960601" y1="924.50222819" y2="923.764244734" /><line stroke="rgb(0%,0%,0%)" x1="317.18960601" x2="320.656748153" y1="923.764244734" y2="918.135173461" /><line stroke="rgb(0%,0%,0%)" x1="326.921941937" x2="328.316669893" y1="905.207677772" y2="902.304411227" /><line stroke="rgb(0%,0%,0%)" x1="320.656748153" x2="326.921941937" y1="918.135173461" y2="905.207677772" /><line stroke="rgb(0%,0%,0%)" x1="319.743578955" x2="319.18859706" y1="842.47987233" y2="840.625091685" /><line stroke="rgb(0%,0%,0%)" x1="324.547580215" x2="319.743578955" y1="843.208606565" y2="842.47987233" /><line stroke="rgb(0%,0%,0%)" x1="317.929704596" x2="319.18859706" y1="840.445733142" y2="840.625091685" /><line stroke="rgb(0%,0%,0%)" x1="317.929704596" x2="313.600775476" y1="840.445733142" y2="839.755688336" /><line stroke="rgb(0%,0%,0%)" x1="320.371740122" x2="318.06921532" y1="655.064826628" y2="654.684974739" /><line stroke="rgb(0%,0%,0%)" x1="325.677704144" x2="327.482923466" y1="655.392613334" y2="655.310754446" /><line stroke="rgb(0%,0%,0%)" x1="327.482923466" x2="329.469202243" y1="655.310754446" y2="655.376828607" /><line stroke="rgb(0%,0%,0%)" x1="328.316669893" x2="329.335208065" y1="902.304411227" y2="898.610282922" /><line stroke="rgb(0%,0%,0%)" x1="331.396280839" x2="329.335208065" y1="890.240284217" y2="898.610282922" /><line stroke="rgb(0%,0%,0%)" x1="331.975633459" x2="333.945401654" y1="889.486217621" y2="881.462453558" /><line stroke="rgb(0%,0%,0%)" x1="331.396280839" x2="331.975633459" y1="890.240284217" y2="889.486217621" /><line stroke="rgb(0%,0%,0%)" x1="335.869922395" x2="336.091653566" y1="869.18116664" y2="867.045044249" /><line stroke="rgb(0%,0%,0%)" x1="332.883750806" x2="332.653701128" y1="857.866578183" y2="855.339638396" /><line stroke="rgb(0%,0%,0%)" x1="334.461019256" x2="332.883750806" y1="860.135856462" y2="857.866578183" /><line stroke="rgb(0%,0%,0%)" x1="334.461019256" x2="334.803270861" y1="860.135856462" y2="862.333525476" /><line stroke="rgb(0%,0%,0%)" x1="332.653701128" x2="331.522157705" y1="855.339638396" y2="853.619391196" /><line stroke="rgb(0%,0%,0%)" x1="329.388666273" x2="331.522157705" y1="851.697905653" y2="853.619391196" /><line stroke="rgb(0%,0%,0%)" x1="340.765184747" x2="347.084834343" y1="653.408826182" y2="651.997832764" /><line stroke="rgb(0%,0%,0%)" x1="347.084834343" x2="351.643123768" y1="651.997832764" y2="650.301501563" /><line stroke="rgb(0%,0%,0%)" x1="280.358840552" x2="280.766192069" y1="655.58202236" y2="655.542397452" /><line stroke="rgb(0%,0%,0%)" x1="280.358840552" x2="276.449324185" y1="655.58202236" y2="655.702084714" /><line stroke="rgb(0%,0%,0%)" x1="267.784393721" x2="262.378062723" y1="656.236666145" y2="656.383219846" /><line stroke="rgb(0%,0%,0%)" x1="267.784393721" x2="271.811850728" y1="656.236666145" y2="655.87299393" /><line stroke="rgb(0%,0%,0%)" x1="271.811850728" x2="272.226593473" y1="655.87299393" y2="655.846174919" /><line stroke="rgb(0%,0%,0%)" x1="273.33491484" x2="272.865563687" y1="275.369713422" y2="275.366133158" /><line stroke="rgb(0%,0%,0%)" x1="280.766192069" x2="281.185955495" y1="655.542397452" y2="655.438751651" /><line stroke="rgb(0%,0%,0%)" x1="281.185955495" x2="287.651920943" y1="655.438751651" y2="655.285613039" /><line stroke="rgb(0%,0%,0%)" x1="272.226593473" x2="276.449324185" y1="655.846174919" y2="655.702084714" /><line stroke="rgb(0%,0%,0%)" x1="287.651920943" x2="289.903922432" y1="655.285613039" y2="655.067130605" /><line stroke="rgb(0%,0%,0%)" x1="294.605762086" x2="297.775739262" y1="937.06477866" y2="938.096429967" /><line stroke="rgb(0%,0%,0%)" x1="293.965614951" x2="294.605762086" y1="936.074825228" y2="937.06477866" /><line stroke="rgb(0%,0%,0%)" x1="293.020295859" x2="293.965614951" y1="935.232483496" y2="936.074825228" /><line stroke="rgb(0%,0%,0%)" x1="293.786319912" x2="293.020295859" y1="928.534242433" y2="935.232483496" /><line stroke="rgb(0%,0%,0%)" x1="293.70035111" x2="293.786319912" y1="926.730711664" y2="928.534242433" /><line stroke="rgb(0%,0%,0%)" x1="293.70035111" x2="295.499292953" y1="926.730711664" y2="922.867715784" /><line stroke="rgb(0%,0%,0%)" x1="297.866544022" x2="295.499292953" y1="918.387200461" y2="922.867715784" /><line stroke="rgb(0%,0%,0%)" x1="298.939288531" x2="297.866544022" y1="917.322143851" y2="918.387200461" /><line stroke="rgb(0%,0%,0%)" x1="294.927627544" x2="295.399134397" y1="864.346601189" y2="870.572798852" /><line stroke="rgb(0%,0%,0%)" x1="295.611898897" x2="294.927627544" y1="860.830564712" y2="864.346601189" /><line stroke="rgb(0%,0%,0%)" x1="296.612771146" x2="302.943435106" y1="875.643474897" y2="879.291465408" /><line stroke="rgb(0%,0%,0%)" x1="296.612771146" x2="295.399134397" y1="875.643474897" y2="870.572798852" /><line stroke="rgb(0%,0%,0%)" x1="295.500733147" x2="295.611898897" y1="859.812922968" y2="860.830564712" /><line stroke="rgb(0%,0%,0%)" x1="296.594417637" x2="295.500733147" y1="850.287621812" y2="859.812922968" /><line stroke="rgb(0%,0%,0%)" x1="289.903922432" x2="291.944464519" y1="655.067130605" y2="654.396472629" /><line stroke="rgb(0%,0%,0%)" x1="301.140585341" x2="305.427297669" y1="937.183586135" y2="934.544088625" /><line stroke="rgb(0%,0%,0%)" x1="297.775739262" x2="301.140585341" y1="938.096429967" y2="937.183586135" /><line stroke="rgb(0%,0%,0%)" x1="305.427297669" x2="314.855555826" y1="934.544088625" y2="926.231106659" /><line stroke="rgb(0%,0%,0%)" x1="304.254859568" x2="298.939288531" y1="907.905822396" y2="917.322143851" /><line stroke="rgb(0%,0%,0%)" x1="305.433772195" x2="304.254859568" y1="901.939329683" y2="907.905822396" /><line stroke="rgb(0%,0%,0%)" x1="304.913999626" x2="305.433772195" y1="895.008629877" y2="901.939329683" /><line stroke="rgb(0%,0%,0%)" x1="302.943435106" x2="303.77152274" y1="879.291465408" y2="884.207944147" /><line stroke="rgb(0%,0%,0%)" x1="304.682275584" x2="303.77152274" y1="891.95755871" y2="884.207944147" /><line stroke="rgb(0%,0%,0%)" x1="208.678458926" x2="212.360453492" y1="640.510764237" y2="641.958154921" /><line stroke="rgb(0%,0%,0%)" x1="212.360453492" x2="233.449761313" y1="641.958154921" y2="649.663516645" /><line stroke="rgb(0%,0%,0%)" x1="255.294770518" x2="241.730406563" y1="655.765107221" y2="652.513487691" /><line stroke="rgb(0%,0%,0%)" x1="240.905633274" x2="241.730406563" y1="652.341076855" y2="652.513487691" /><line stroke="rgb(0%,0%,0%)" x1="240.706139946" x2="240.905633274" y1="652.18078944" y2="652.341076855" /><line stroke="rgb(0%,0%,0%)" x1="255.294770518" x2="257.606091109" y1="655.765107221" y2="655.739519756" /><line stroke="rgb(0%,0%,0%)" x1="257.606091109" x2="262.378062723" y1="655.739519756" y2="656.383219846" /><line stroke="rgb(0%,0%,0%)" x1="208.678458926" x2="204.739338245" y1="640.510764237" y2="638.293883839" /><line stroke="rgb(0%,0%,0%)" x1="203.838222342" x2="204.739338245" y1="636.934955218" y2="638.293883839" /><line stroke="rgb(0%,0%,0%)" x1="202.134917032" x2="203.838222342" y1="636.446972122" y2="636.934955218" /><line stroke="rgb(0%,0%,0%)" x1="197.001617783" x2="200.37442591" y1="632.955623118" y2="635.754489909" /><line stroke="rgb(0%,0%,0%)" x1="200.37442591" x2="202.134917032" y1="635.754489909" y2="636.446972122" /><line stroke="rgb(0%,0%,0%)" x1="186.867651319" x2="197.001617783" y1="629.50075211" y2="632.955623118" /><line stroke="rgb(0%,0%,0%)" x1="233.449761313" x2="238.972074598" y1="649.663516645" y2="651.491473682" /><line stroke="rgb(0%,0%,0%)" x1="238.972074598" x2="240.706139946" y1="651.491473682" y2="652.18078944" /><line stroke="rgb(0%,0%,0%)" x1="140.917941483" x2="141.28950529" y1="597.673049447" y2="598.003927237" /><line stroke="rgb(0%,0%,0%)" x1="140.917941483" x2="140.702734527" y1="597.673049447" y2="597.493415796" /><line stroke="rgb(0%,0%,0%)" x1="186.867651319" x2="184.826075829" y1="629.50075211" y2="629.123840212" /><line stroke="rgb(0%,0%,0%)" x1="116.482085511" x2="115.251277211" y1="562.431428633" y2="567.141813852" /><line stroke="rgb(0%,0%,0%)" x1="115.251277211" x2="114.733493096" y1="567.141813852" y2="571.808112045" /><line stroke="rgb(0%,0%,0%)" x1="121.199522598" x2="116.564741442" y1="582.066976386" y2="576.831064793" /><line stroke="rgb(0%,0%,0%)" x1="121.199522598" x2="124.250087952" y1="582.066976386" y2="585.282858142" /><line stroke="rgb(0%,0%,0%)" x1="116.482085511" x2="115.273254518" y1="562.431428633" y2="560.003197201" /><line stroke="rgb(0%,0%,0%)" x1="113.058116554" x2="115.273254518" y1="556.058610004" y2="560.003197201" /><line stroke="rgb(0%,0%,0%)" x1="124.250087952" x2="130.191981018" y1="585.282858142" y2="589.95223254" /><line stroke="rgb(0%,0%,0%)" x1="139.826609914" x2="140.702734527" y1="596.660405523" y2="597.493415796" /><line stroke="rgb(0%,0%,0%)" x1="136.765534193" x2="135.870820795" y1="593.205931207" y2="593.655660358" /><line stroke="rgb(0%,0%,0%)" x1="136.765534193" x2="138.362869985" y1="593.205931207" y2="595.328844754" /><line stroke="rgb(0%,0%,0%)" x1="138.362869985" x2="139.826609914" y1="595.328844754" y2="596.660405523" /><line stroke="rgb(0%,0%,0%)" x1="130.191981018" x2="135.870820795" y1="589.95223254" y2="593.655660358" /><line stroke="rgb(0%,0%,0%)" x1="76.1829381884" x2="71.4023791368" y1="522.129281142" y2="516.621149243" /><line stroke="rgb(0%,0%,0%)" x1="78.8197009341" x2="91.3688917951" y1="525.033492502" y2="538.767007102" /><line stroke="rgb(0%,0%,0%)" x1="114.717502663" x2="116.564741442" y1="573.682624176" y2="576.831064793" /><line stroke="rgb(0%,0%,0%)" x1="114.733493096" x2="114.717502663" y1="571.808112045" y2="573.682624176" /><line stroke="rgb(0%,0%,0%)" x1="109.132576991" x2="113.058116554" y1="554.284407938" y2="556.058610004" /><line stroke="rgb(0%,0%,0%)" x1="107.620627817" x2="109.132576991" y1="553.352157443" y2="554.284407938" /><line stroke="rgb(0%,0%,0%)" x1="107.620627817" x2="97.2047596268" y1="553.352157443" y2="545.236201892" /><line stroke="rgb(0%,0%,0%)" x1="58.5582655841" x2="55.8871211721" y1="499.554661747" y2="493.53848301" /><line stroke="rgb(0%,0%,0%)" x1="55.8871211721" x2="53.1690512397" y1="493.53848301" y2="483.587051948" /><line stroke="rgb(0%,0%,0%)" x1="52.889820135" x2="53.1690512397" y1="481.984666954" y2="483.587051948" /><line stroke="rgb(0%,0%,0%)" x1="54.894299747" x2="53.0284380753" y1="474.400544267" y2="481.438989274" /><line stroke="rgb(0%,0%,0%)" x1="55.5355640283" x2="54.894299747" y1="472.412858181" y2="474.400544267" /><line stroke="rgb(0%,0%,0%)" x1="55.7729319451" x2="55.5355640283" y1="472.004401791" y2="472.412858181" /><line stroke="rgb(0%,0%,0%)" x1="63.7747275236" x2="56.9325529251" y1="461.851780784" y2="470.38498784" /><line stroke="rgb(0%,0%,0%)" x1="55.7729319451" x2="56.9325529251" y1="472.004401791" y2="470.38498784" /><line stroke="rgb(0%,0%,0%)" x1="76.1829381884" x2="78.8197009341" y1="522.129281142" y2="525.033492502" /><line stroke="rgb(0%,0%,0%)" x1="68.4166631971" x2="71.4023791368" y1="513.324381725" y2="516.621149243" /><line stroke="rgb(0%,0%,0%)" x1="62.8786510623" x2="68.4166631971" y1="504.029116947" y2="513.324381725" /><line stroke="rgb(0%,0%,0%)" x1="58.5582655841" x2="62.8786510623" y1="499.554661747" y2="504.029116947" /><line stroke="rgb(0%,0%,0%)" x1="64.3514622201" x2="63.7747275236" y1="461.032342791" y2="461.851780784" /><line stroke="rgb(0%,0%,0%)" x1="64.7925071403" x2="64.3514622201" y1="459.948169652" y2="461.032342791" /><line stroke="rgb(0%,0%,0%)" x1="91.3688917951" x2="95.7850042176" y1="538.767007102" y2="543.421897338" /><line stroke="rgb(0%,0%,0%)" x1="95.7850042176" x2="97.2047596268" y1="543.421897338" y2="545.236201892" /><line stroke="rgb(0%,0%,0%)" x1="53.0284380753" x2="52.889820135" y1="481.438989274" y2="481.984666954" /><line stroke="rgb(0%,0%,0%)" x1="423.385748903" x2="419.07843263" y1="609.258260001" y2="611.770875049" /><line stroke="rgb(0%,0%,0%)" x1="423.385748903" x2="427.573152828" y1="609.258260001" y2="606.673398908" /><line stroke="rgb(0%,0%,0%)" x1="434.06756973" x2="435.511740691" y1="600.193799604" y2="598.561921896" /><line stroke="rgb(0%,0%,0%)" x1="437.356555109" x2="435.511740691" y1="595.14389297" y2="598.561921896" /><line stroke="rgb(0%,0%,0%)" x1="437.356555109" x2="441.561199554" y1="595.14389297" y2="590.680873118" /><line stroke="rgb(0%,0%,0%)" x1="441.561199554" x2="446.953691229" y1="590.680873118" y2="584.326043294" /><line stroke="rgb(0%,0%,0%)" x1="446.953691229" x2="449.04058204" y1="584.326043294" y2="579.616633992" /><line stroke="rgb(0%,0%,0%)" x1="449.04058204" x2="450.220394242" y1="579.616633992" y2="576.139033397" /><line stroke="rgb(0%,0%,0%)" x1="450.220394242" x2="450.213697739" y1="576.139033397" y2="575.484562303" /><line stroke="rgb(0%,0%,0%)" x1="450.213697739" x2="451.094255719" y1="575.484562303" y2="573.141339935" /><line stroke="rgb(0%,0%,0%)" x1="451.094255719" x2="453.30270605" y1="573.141339935" y2="566.400702145" /><line stroke="rgb(0%,0%,0%)" x1="400.288170413" x2="401.478026467" y1="622.937081632" y2="622.21293309" /><line stroke="rgb(0%,0%,0%)" x1="401.478026467" x2="415.408568644" y1="622.21293309" y2="614.634187859" /><line stroke="rgb(0%,0%,0%)" x1="415.408568644" x2="415.566106066" y1="614.634187859" y2="614.562869712" /><line stroke="rgb(0%,0%,0%)" x1="415.721193266" x2="415.987483114" y1="614.485091708" y2="614.3271576" /><line stroke="rgb(0%,0%,0%)" x1="419.07843263" x2="415.987483114" y1="611.770875049" y2="614.3271576" /><line stroke="rgb(0%,0%,0%)" x1="427.573152828" x2="431.646576102" y1="606.673398908" y2="602.053779464" /><line stroke="rgb(0%,0%,0%)" x1="431.646576102" x2="434.06756973" y1="602.053779464" y2="600.193799604" /><line stroke="rgb(0%,0%,0%)" x1="336.091653566" x2="335.832127755" y1="867.045044249" y2="864.503753436" /><line stroke="rgb(0%,0%,0%)" x1="334.803270861" x2="335.832127755" y1="862.333525476" y2="864.503753436" /><line stroke="rgb(0%,0%,0%)" x1="415.566106066" x2="415.721193266" y1="614.562869712" y2="614.485091708" /><line stroke="rgb(0%,0%,0%)" x1="307.618329222" x2="308.099280214" y1="652.930803149" y2="653.183592957" /><line stroke="rgb(0%,0%,0%)" x1="302.080056432" x2="304.228385088" y1="652.753341472" y2="652.172634786" /><line stroke="rgb(0%,0%,0%)" x1="296.462398702" x2="299.575185224" y1="653.206621498" y2="653.197705134" /><line stroke="rgb(0%,0%,0%)" x1="299.575185224" x2="299.878651357" y1="653.197705134" y2="653.252702122" /><line stroke="rgb(0%,0%,0%)" x1="299.878651357" x2="302.080056432" y1="653.252702122" y2="652.753341472" /><line stroke="rgb(0%,0%,0%)" x1="308.099280214" x2="308.185887881" y1="653.183592957" y2="653.205779329" /><line stroke="rgb(0%,0%,0%)" x1="316.326245008" x2="317.376991831" y1="654.62096716" y2="654.610339663" /><line stroke="rgb(0%,0%,0%)" x1="314.989939364" x2="316.326245008" y1="654.319021757" y2="654.62096716" /><line stroke="rgb(0%,0%,0%)" x1="311.285716869" x2="314.989939364" y1="653.606603626" y2="654.319021757" /><line stroke="rgb(0%,0%,0%)" x1="311.285716869" x2="308.185887881" y1="653.606603626" y2="653.205779329" /><line stroke="rgb(0%,0%,0%)" x1="157.818417223" x2="156.605261505" y1="612.09300005" y2="611.338700833" /><line stroke="rgb(0%,0%,0%)" x1="156.605261505" x2="155.394615476" y1="611.338700833" y2="610.399014392" /><line stroke="rgb(0%,0%,0%)" x1="141.28950529" x2="153.782638002" y1="598.003927237" y2="609.058590705" /><line stroke="rgb(0%,0%,0%)" x1="153.782638002" x2="155.394615476" y1="609.058590705" y2="610.399014392" /><line stroke="rgb(0%,0%,0%)" x1="157.818417223" x2="165.881277336" y1="612.09300005" y2="617.820533978" /><line stroke="rgb(0%,0%,0%)" x1="183.066511088" x2="184.826075829" y1="627.888725072" y2="629.123840212" /><line stroke="rgb(0%,0%,0%)" x1="183.066511088" x2="181.168765017" y1="627.888725072" y2="627.330964647" /><line stroke="rgb(0%,0%,0%)" x1="165.881277336" x2="181.168765017" y1="617.820533978" y2="627.330964647" /><line stroke="rgb(0%,0%,0%)" x1="64.6902172942" x2="64.7925071403" y1="459.408080754" y2="459.948169652" /><line stroke="rgb(0%,0%,0%)" x1="65.4395648877" x2="64.6902172942" y1="458.009404183" y2="459.408080754" /><line stroke="rgb(0%,0%,0%)" x1="304.228385088" x2="305.862727735" y1="652.172634786" y2="652.204904006" /><line stroke="rgb(0%,0%,0%)" x1="317.376991831" x2="318.06921532" y1="654.610339663" y2="654.684974739" /></svg>