<?xml version="1.0" encoding="utf-8" ?>
<svg baseProfile="full" height="100%" version="1.1" viewBox="0.5 0.5 685.793960571 941.299331665" width="100%" xmlns="http://www.w3.org/2000/svg" xmlns:ev="http://www.w3.org/2001/xml-events" xmlns:xlink="http://www.w3.org/1999/xlink"><defs /><line stroke="rgb(0%,0%,0%)" x1="490.911309729" x2="490.942916679" y1="464.480045091" y2="464.232717824" /><line stroke="rgb(0%,0%,0%)" x1="490.942916679" x2="490.967687986" y1="464.232717824" y2="463.185477728" /><line stroke="rgb(0%,0%,0%)" x1="479.82021135" x2="484.187365678" y1="414.532208081" y2="422.211804006" /><line stroke="rgb(0%,0%,0%)" x1="479.82021135" x2="473.369285537" y1="414.532208081" y2="404.680427539" /><line stroke="rgb(0%,0%,0%)" x1="448.435303303" x2="446.277661074" y1="373.517758988" y2="368.376817481" /><line stroke="rgb(0%,0%,0%)" x1="461.492447052" x2="466.022131408" y1="386.496216273" y2="394.16618395" /><line stroke="rgb(0%,0%,0%)" x1="461.492447052" x2="458.090459355" y1="386.496216273" y2="382.195439057" /><line stroke="rgb(0%,0%,0%)" x1="455.711751093" x2="458.090459355" y1="378.691174699" y2="382.195439057" /><line stroke="rgb(0%,0%,0%)" x1="490.919772752" x2="489.058275773" y1="450.641648287" y2="442.210719436" /><line stroke="rgb(0%,0%,0%)" x1="489.058275773" x2="487.588561454" y1="442.210719436" y2="434.177499865" /><line stroke="rgb(0%,0%,0%)" x1="487.588561454" x2="485.294345815" y1="434.177499865" y2="426.460915714" /><line stroke="rgb(0%,0%,0%)" x1="490.967687986" x2="490.919772752" y1="463.185477728" y2="450.641648287" /><line stroke="rgb(0%,0%,0%)" x1="455.711751093" x2="448.435303303" y1="378.691174699" y2="373.517758988" /><line stroke="rgb(0%,0%,0%)" x1="446.277661074" x2="445.234497784" y1="368.376817481" y2="365.374422271" /><line stroke="rgb(0%,0%,0%)" x1="473.369285537" x2="471.962299296" y1="404.680427539" y2="402.996940333" /><line stroke="rgb(0%,0%,0%)" x1="471.962299296" x2="466.022131408" y1="402.996940333" y2="394.16618395" /><line stroke="rgb(0%,0%,0%)" x1="485.294345815" x2="485.024241311" y1="426.460915714" y2="425.139292347" /><line stroke="rgb(0%,0%,0%)" x1="485.024241311" x2="484.187365678" y1="425.139292347" y2="422.211804006" /><line stroke="rgb(0%,0%,0%)" x1="390.394154059" x2="386.45422353" y1="307.18527524" y2="303.673008299" /><line stroke="rgb(0%,0%,0%)" x1="390.394154059" x2="390.86368737" y1="307.18527524" y2="307.404921017" /><line stroke="rgb(0%,0%,0%)" x1="343.536074941" x2="341.287567937" y1="279.085915798" y2="277.850146319" /><line stroke="rgb(0%,0%,0%)" x1="344.500670866" x2="349.189616974" y1="279.475700233" y2="281.939996717" /><line stroke="rgb(0%,0%,0%)" x1="344.500670866" x2="343.536074941" y1="279.475700233" y2="279.085915798" /><line stroke="rgb(0%,0%,0%)" x1="371.4475333" x2="364.595172716" y1="291.880767867" y2="287.660215451" /><line stroke="rgb(0%,0%,0%)" x1="364.595172716" x2="363.542371969" y1="287.660215451" y2="287.457461375" /><line stroke="rgb(0%,0%,0%)" x1="371.4475333" x2="375.416116702" y1="291.880767867" y2="295.028460549" /><line stroke="rgb(0%,0%,0%)" x1="386.45422353" x2="382.055002539" y1="303.673008299" y2="299.699458456" /><line stroke="rgb(0%,0%,0%)" x1="382.055002539" x2="375.557916472" y1="299.699458456" y2="295.171651923" /><line stroke="rgb(0%,0%,0%)" x1="375.557916472" x2="375.520329841" y1="295.171651923" y2="295.140102257" /><line stroke="rgb(0%,0%,0%)" x1="299.07175118" x2="298.650775671" y1="275.386609755" y2="275.428789977" /><line stroke="rgb(0%,0%,0%)" x1="317.602017605" x2="312.575211182" y1="271.253883507" y2="271.680179903" /><line stroke="rgb(0%,0%,0%)" x1="312.575211182" x2="305.519970182" y1="271.680179903" y2="272.481259802" /><line stroke="rgb(0%,0%,0%)" x1="317.602017605" x2="318.376154516" y1="271.253883507" y2="271.258825681" /><line stroke="rgb(0%,0%,0%)" x1="341.287567937" x2="337.333839775" y1="277.850146319" y2="276.150784401" /><line stroke="rgb(0%,0%,0%)" x1="330.849086229" x2="337.333839775" y1="274.632116843" y2="276.150784401" /><line stroke="rgb(0%,0%,0%)" x1="355.217446568" x2="353.784621975" y1="284.855656578" y2="284.209627312" /><line stroke="rgb(0%,0%,0%)" x1="353.784621975" x2="352.170255552" y1="284.209627312" y2="283.76758348" /><line stroke="rgb(0%,0%,0%)" x1="352.170255552" x2="349.189616974" y1="283.76758348" y2="281.939996717" /><line stroke="rgb(0%,0%,0%)" x1="363.542371969" x2="360.317409584" y1="287.457461375" y2="286.034335644" /><line stroke="rgb(0%,0%,0%)" x1="360.317409584" x2="355.217446568" y1="286.034335644" y2="284.855656578" /><line stroke="rgb(0%,0%,0%)" x1="375.520329841" x2="375.416116702" y1="295.140102257" y2="295.028460549" /><line stroke="rgb(0%,0%,0%)" x1="284.101833435" x2="280.499751604" y1="275.771411734" y2="275.851803821" /><line stroke="rgb(0%,0%,0%)" x1="298.650775671" x2="291.70451" y1="275.428789977" y2="276.84302517" /><line stroke="rgb(0%,0%,0%)" x1="291.70451" x2="289.813028843" y1="276.84302517" y2="276.803288285" /><line stroke="rgb(0%,0%,0%)" x1="289.813028843" x2="288.379657797" y1="276.803288285" y2="276.576186355" /><line stroke="rgb(0%,0%,0%)" x1="286.354620586" x2="284.101833435" y1="276.464988453" y2="275.771411734" /><line stroke="rgb(0%,0%,0%)" x1="288.379657797" x2="286.354620586" y1="276.576186355" y2="276.464988453" /><line stroke="rgb(0%,0%,0%)" x1="299.07175118" x2="303.600414272" y1="275.386609755" y2="273.201534961" /><line stroke="rgb(0%,0%,0%)" x1="305.519970182" x2="305.059098577" y1="272.481259802" y2="272.660302498" /><line stroke="rgb(0%,0%,0%)" x1="305.059098577" x2="303.600414272" y1="272.660302498" y2="273.201534961" /><line stroke="rgb(0%,0%,0%)" x1="330.125995072" x2="318.376154516" y1="273.888061407" y2="271.258825681" /><line stroke="rgb(0%,0%,0%)" x1="330.849086229" x2="330.125995072" y1="274.632116843" y2="273.888061407" /><line stroke="rgb(0%,0%,0%)" x1="251.135607028" x2="244.424163124" y1="273.07728638" y2="273.656995964" /><line stroke="rgb(0%,0%,0%)" x1="252.865980815" x2="251.135607028" y1="273.273026786" y2="273.07728638" /><line stroke="rgb(0%,0%,0%)" x1="252.865980815" x2="253.73114154" y1="273.273026786" y2="273.269581251" /><line stroke="rgb(0%,0%,0%)" x1="262.887727033" x2="266.029166163" y1="276.098280675" y2="277.368489814" /><line stroke="rgb(0%,0%,0%)" x1="262.887727033" x2="253.73114154" y1="276.098280675" y2="273.269581251" /><line stroke="rgb(0%,0%,0%)" x1="274.706609205" x2="273.788205463" y1="275.809325379" y2="276.197856539" /><line stroke="rgb(0%,0%,0%)" x1="279.371915689" x2="275.857245373" y1="275.694693129" y2="276.035099622" /><line stroke="rgb(0%,0%,0%)" x1="275.857245373" x2="274.706609205" y1="276.035099622" y2="275.809325379" /><line stroke="rgb(0%,0%,0%)" x1="280.499751604" x2="279.371915689" y1="275.851803821" y2="275.694693129" /><line stroke="rgb(0%,0%,0%)" x1="201.531816828" x2="201.181055893" y1="285.738321369" y2="285.904759109" /><line stroke="rgb(0%,0%,0%)" x1="201.531816828" x2="201.890754103" y1="285.738321369" y2="285.577213365" /><line stroke="rgb(0%,0%,0%)" x1="201.890754103" x2="202.290755795" y1="285.577213365" y2="285.427127829" /><line stroke="rgb(0%,0%,0%)" x1="235.41331841" x2="229.700215043" y1="276.419538655" y2="278.178751172" /><line stroke="rgb(0%,0%,0%)" x1="244.424163124" x2="235.41331841" y1="273.656995964" y2="276.419538655" /><line stroke="rgb(0%,0%,0%)" x1="272.709032796" x2="266.029166163" y1="276.189624487" y2="277.368489814" /><line stroke="rgb(0%,0%,0%)" x1="185.736499974" x2="183.5166994" y1="288.368695528" y2="288.878160332" /><line stroke="rgb(0%,0%,0%)" x1="185.736499974" x2="187.029267779" y1="288.368695528" y2="287.755160915" /><line stroke="rgb(0%,0%,0%)" x1="201.181055893" x2="187.029267779" y1="285.904759109" y2="287.755160915" /><line stroke="rgb(0%,0%,0%)" x1="204.642300944" x2="204.967621436" y1="285.860743212" y2="285.335986797" /><line stroke="rgb(0%,0%,0%)" x1="202.290755795" x2="204.967621436" y1="285.427127829" y2="285.335986797" /><line stroke="rgb(0%,0%,0%)" x1="215.297940083" x2="204.642300944" y1="285.925690917" y2="285.860743212" /><line stroke="rgb(0%,0%,0%)" x1="218.50461008" x2="215.297940083" y1="285.25165069" y2="285.925690917" /><line stroke="rgb(0%,0%,0%)" x1="218.50461008" x2="222.749702577" y1="285.25165069" y2="283.383039608" /><line stroke="rgb(0%,0%,0%)" x1="222.926142868" x2="222.749702577" y1="283.332282888" y2="283.383039608" /><line stroke="rgb(0%,0%,0%)" x1="223.563524101" x2="222.926142868" y1="282.874020113" y2="283.332282888" /><line stroke="rgb(0%,0%,0%)" x1="229.700215043" x2="223.563524101" y1="278.178751172" y2="282.874020113" /><line stroke="rgb(0%,0%,0%)" x1="160.548452095" x2="157.694431159" y1="303.757175497" y2="306.029000012" /><line stroke="rgb(0%,0%,0%)" x1="160.548452095" x2="166.075609189" y1="303.757175497" y2="299.579406705" /><line stroke="rgb(0%,0%,0%)" x1="176.848794346" x2="166.075609189" y1="292.016662811" y2="299.579406705" /><line stroke="rgb(0%,0%,0%)" x1="183.5166994" x2="176.848794346" y1="288.878160332" y2="292.016662811" /><line stroke="rgb(0%,0%,0%)" x1="119.58815678" x2="116.960464742" y1="336.379017744" y2="339.863141287" /><line stroke="rgb(0%,0%,0%)" x1="127.722802064" x2="124.996289955" y1="329.863671952" y2="331.378161489" /><line stroke="rgb(0%,0%,0%)" x1="124.996289955" x2="119.58815678" y1="331.378161489" y2="336.379017744" /><line stroke="rgb(0%,0%,0%)" x1="127.722802064" x2="130.005699244" y1="329.863671952" y2="327.549273926" /><line stroke="rgb(0%,0%,0%)" x1="130.005699244" x2="137.170613478" y1="327.549273926" y2="323.382662006" /><line stroke="rgb(0%,0%,0%)" x1="141.693139502" x2="138.637610316" y1="321.000869815" y2="322.588802483" /><line stroke="rgb(0%,0%,0%)" x1="138.637610316" x2="138.481981131" y1="322.588802483" y2="322.856130657" /><line stroke="rgb(0%,0%,0%)" x1="148.729879298" x2="141.693139502" y1="314.676385537" y2="321.000869815" /><line stroke="rgb(0%,0%,0%)" x1="157.694431159" x2="148.729879298" y1="306.029000012" y2="314.676385537" /><line stroke="rgb(0%,0%,0%)" x1="86.5812421021" x2="83.1165033526" y1="388.342060612" y2="392.555729145" /><line stroke="rgb(0%,0%,0%)" x1="86.5812421021" x2="87.3795987396" y1="388.342060612" y2="387.640678511" /><line stroke="rgb(0%,0%,0%)" x1="111.414661019" x2="110.28358938" y1="360.541502659" y2="362.972627267" /><line stroke="rgb(0%,0%,0%)" x1="111.414661019" x2="111.211682132" y1="360.541502659" y2="359.730727393" /><line stroke="rgb(0%,0%,0%)" x1="102.510142995" x2="108.132428694" y1="370.844905596" y2="365.855371896" /><line stroke="rgb(0%,0%,0%)" x1="109.445223807" x2="111.211682132" y1="354.388528574" y2="359.730727393" /><line stroke="rgb(0%,0%,0%)" x1="109.994648106" x2="109.445223807" y1="348.559058373" y2="354.388528574" /><line stroke="rgb(0%,0%,0%)" x1="110.855004661" x2="109.994648106" y1="346.746848662" y2="348.559058373" /><line stroke="rgb(0%,0%,0%)" x1="110.855004661" x2="112.819576147" y1="346.746848662" y2="343.907656538" /><line stroke="rgb(0%,0%,0%)" x1="116.960464742" x2="112.819576147" y1="339.863141287" y2="343.907656538" /><line stroke="rgb(0%,0%,0%)" x1="110.28358938" x2="109.215889827" y1="362.972627267" y2="365.210286" /><line stroke="rgb(0%,0%,0%)" x1="138.481981131" x2="137.170613478" y1="322.856130657" y2="323.382662006" /><line stroke="rgb(0%,0%,0%)" x1="60.5882339702" x2="59.4343082304" y1="425.006648196" y2="427.789264524" /><line stroke="rgb(0%,0%,0%)" x1="63.6629927605" x2="62.5043646519" y1="416.986129089" y2="419.015052257" /><line stroke="rgb(0%,0%,0%)" x1="69.6955662435" x2="70.2640434666" y1="409.619280429" y2="408.789622861" /><line stroke="rgb(0%,0%,0%)" x1="69.6955662435" x2="63.6629927605" y1="409.619280429" y2="416.986129089" /><line stroke="rgb(0%,0%,0%)" x1="70.2640434666" x2="70.6071901048" y1="408.789622861" y2="408.195752117" /><line stroke="rgb(0%,0%,0%)" x1="83.1165033526" x2="77.0320124593" y1="392.555729145" y2="400.572707948" /><line stroke="rgb(0%,0%,0%)" x1="87.3795987396" x2="92.5422051551" y1="387.640678511" y2="380.103036803" /><line stroke="rgb(0%,0%,0%)" x1="100.774791383" x2="94.2841507708" y1="373.314407233" y2="377.806557719" /><line stroke="rgb(0%,0%,0%)" x1="94.2841507708" x2="92.5422051551" y1="377.806557719" y2="380.103036803" /><line stroke="rgb(0%,0%,0%)" x1="102.510142995" x2="100.774791383" y1="370.844905596" y2="373.314407233" /><line stroke="rgb(0%,0%,0%)" x1="109.215889827" x2="108.132428694" y1="365.210286" y2="365.855371896" /><line stroke="rgb(0%,0%,0%)" x1="59.4343082304" x2="59.2618553021" y1="427.789264524" y2="433.190120085" /><line stroke="rgb(0%,0%,0%)" x1="62.5043646519" x2="60.5882339702" y1="419.015052257" y2="425.006648196" /><line stroke="rgb(0%,0%,0%)" x1="66.6376949241" x2="67.6517613974" y1="455.294361806" y2="457.459388508" /><line stroke="rgb(0%,0%,0%)" x1="65.0048124874" x2="63.195028367" y1="450.456179992" y2="447.16196798" /><line stroke="rgb(0%,0%,0%)" x1="65.0048124874" x2="66.6376949241" y1="450.456179992" y2="455.294361806" /><line stroke="rgb(0%,0%,0%)" x1="63.195028367" x2="59.5421138808" y1="447.16196798" y2="434.762370081" /><line stroke="rgb(0%,0%,0%)" x1="59.2922419595" x2="59.5421138808" y1="434.180025752" y2="434.762370081" /><line stroke="rgb(0%,0%,0%)" x1="59.2618553021" x2="59.2922419595" y1="433.190120085" y2="434.180025752" /><line stroke="rgb(0%,0%,0%)" x1="77.0320124593" x2="70.6071901048" y1="400.572707948" y2="408.195752117" /><line stroke="rgb(0%,0%,0%)" x1="490.911309729" x2="491.01915704" y1="464.480045091" y2="465.332696245" /><line stroke="rgb(0%,0%,0%)" x1="491.01915704" x2="491.014185756" y1="465.332696245" y2="465.87401584" /><line stroke="rgb(0%,0%,0%)" x1="486.571680826" x2="486.783919424" y1="503.265155554" y2="502.810973283" /><line stroke="rgb(0%,0%,0%)" x1="491.587988507" x2="491.014185756" y1="473.25405859" y2="465.87401584" /><line stroke="rgb(0%,0%,0%)" x1="453.390703241" x2="454.213839393" y1="557.57662938" y2="556.285892423" /><line stroke="rgb(0%,0%,0%)" x1="467.333282026" x2="470.109914598" y1="540.331860735" y2="536.042956034" /><line stroke="rgb(0%,0%,0%)" x1="476.890735325" x2="470.109914598" y1="523.835428069" y2="536.042956034" /><line stroke="rgb(0%,0%,0%)" x1="479.768194177" x2="477.802614814" y1="517.480909967" y2="521.573387477" /><line stroke="rgb(0%,0%,0%)" x1="479.768194177" x2="486.571680826" y1="517.480909967" y2="503.265155554" /><line stroke="rgb(0%,0%,0%)" x1="486.783919424" x2="489.217320235" y1="502.810973283" y2="491.05777595" /><line stroke="rgb(0%,0%,0%)" x1="489.217320235" x2="490.814076061" y1="491.05777595" y2="486.358298845" /><line stroke="rgb(0%,0%,0%)" x1="490.94413058" x2="490.814076061" y1="485.674016553" y2="486.358298845" /><line stroke="rgb(0%,0%,0%)" x1="490.94413058" x2="490.94328504" y1="485.674016553" y2="485.436190776" /><line stroke="rgb(0%,0%,0%)" x1="490.94328504" x2="491.587988507" y1="485.436190776" y2="473.25405859" /><line stroke="rgb(0%,0%,0%)" x1="407.566782812" x2="407.347137501" y1="316.704938712" y2="316.62028399" /><line stroke="rgb(0%,0%,0%)" x1="401.978626078" x2="402.546304342" y1="313.128180947" y2="313.725341241" /><line stroke="rgb(0%,0%,0%)" x1="401.978626078" x2="401.073859674" y1="313.128180947" y2="312.495403988" /><line stroke="rgb(0%,0%,0%)" x1="417.893933708" x2="419.121899807" y1="324.962169089" y2="325.55983828" /><line stroke="rgb(0%,0%,0%)" x1="413.773546193" x2="412.313946585" y1="321.279156985" y2="320.819127601" /><line stroke="rgb(0%,0%,0%)" x1="407.566782812" x2="407.887034435" y1="316.704938712" y2="316.923052382" /><line stroke="rgb(0%,0%,0%)" x1="407.887034435" x2="408.191695171" y1="316.923052382" y2="317.31914304" /><line stroke="rgb(0%,0%,0%)" x1="443.86204865" x2="440.931349113" y1="363.368418727" y2="355.136655696" /><line stroke="rgb(0%,0%,0%)" x1="440.866980769" x2="440.490450768" y1="354.892158489" y2="353.281917282" /><line stroke="rgb(0%,0%,0%)" x1="438.98430526" x2="440.490450768" y1="347.842610841" y2="353.281917282" /><line stroke="rgb(0%,0%,0%)" x1="438.98430526" x2="438.373241171" y1="347.842610841" y2="346.661072892" /><line stroke="rgb(0%,0%,0%)" x1="453.189607141" x2="452.59367438" y1="558.828118456" y2="559.996307295" /><line stroke="rgb(0%,0%,0%)" x1="450.976696461" x2="452.59367438" y1="565.38931191" y2="559.996307295" /><line stroke="rgb(0%,0%,0%)" x1="453.390703241" x2="453.189607141" y1="557.57662938" y2="558.828118456" /><line stroke="rgb(0%,0%,0%)" x1="454.213839393" x2="461.679551295" y1="556.285892423" y2="550.179998184" /><line stroke="rgb(0%,0%,0%)" x1="461.679551295" x2="465.37511064" y1="550.179998184" y2="543.750392531" /><line stroke="rgb(0%,0%,0%)" x1="476.890735325" x2="477.802614814" y1="523.835428069" y2="521.573387477" /><line stroke="rgb(0%,0%,0%)" x1="412.313946585" x2="408.191695171" y1="320.819127601" y2="317.31914304" /><line stroke="rgb(0%,0%,0%)" x1="407.347137501" x2="402.546304342" y1="316.62028399" y2="313.725341241" /><line stroke="rgb(0%,0%,0%)" x1="422.541008404" x2="419.121899807" y1="328.792591258" y2="325.55983828" /><line stroke="rgb(0%,0%,0%)" x1="417.893933708" x2="413.773546193" y1="324.962169089" y2="321.279156985" /><line stroke="rgb(0%,0%,0%)" x1="440.931349113" x2="440.866980769" y1="355.136655696" y2="354.892158489" /><line stroke="rgb(0%,0%,0%)" x1="436.415849042" x2="435.665374401" y1="345.409330691" y2="343.257537146" /><line stroke="rgb(0%,0%,0%)" x1="438.373241171" x2="436.415849042" y1="346.661072892" y2="345.409330691" /><line stroke="rgb(0%,0%,0%)" x1="430.863116432" x2="434.819047498" y1="338.397761628" y2="341.792124174" /><line stroke="rgb(0%,0%,0%)" x1="435.665374401" x2="434.819047498" y1="343.257537146" y2="341.792124174" /><line stroke="rgb(0%,0%,0%)" x1="430.863116432" x2="426.855314401" y1="338.397761628" y2="334.022062497" /><line stroke="rgb(0%,0%,0%)" x1="426.855314401" x2="422.541008404" y1="334.022062497" y2="328.792591258" /><line stroke="rgb(0%,0%,0%)" x1="445.234497784" x2="443.86204865" y1="365.374422271" y2="363.368418727" /><line stroke="rgb(0%,0%,0%)" x1="465.37511064" x2="467.333282026" y1="543.750392531" y2="540.331860735" /><line stroke="rgb(0%,0%,0%)" x1="356.321433279" x2="357.563766433" y1="647.023436488" y2="645.240055997" /><line stroke="rgb(0%,0%,0%)" x1="357.563766433" x2="360.412826865" y1="645.240055997" y2="643.813705104" /><line stroke="rgb(0%,0%,0%)" x1="378.348138757" x2="376.96014783" y1="637.634021002" y2="638.544781579" /><line stroke="rgb(0%,0%,0%)" x1="378.348138757" x2="387.41970958" y1="637.634021002" y2="631.018810986" /><line stroke="rgb(0%,0%,0%)" x1="387.41970958" x2="392.700752841" y1="631.018810986" y2="626.83891613" /><line stroke="rgb(0%,0%,0%)" x1="392.700752841" x2="393.481775361" y1="626.83891613" y2="626.281032041" /><line stroke="rgb(0%,0%,0%)" x1="401.073859674" x2="393.583594535" y1="312.495403988" y2="308.477212169" /><line stroke="rgb(0%,0%,0%)" x1="393.583594535" x2="390.86368737" y1="308.477212169" y2="307.404921017" /><line stroke="rgb(0%,0%,0%)" x1="393.481775361" x2="397.908445662" y1="626.281032041" y2="622.996658241" /><line stroke="rgb(0%,0%,0%)" x1="330.213266704" x2="329.707473313" y1="653.844826139" y2="654.127040391" /><line stroke="rgb(0%,0%,0%)" x1="330.213266704" x2="331.724640607" y1="653.844826139" y2="653.794480204" /><line stroke="rgb(0%,0%,0%)" x1="322.644829749" x2="321.458264367" y1="653.979669661" y2="654.00784502" /><line stroke="rgb(0%,0%,0%)" x1="322.644829749" x2="323.786712639" y1="653.979669661" y2="654.151689642" /><line stroke="rgb(0%,0%,0%)" x1="328.056897622" x2="326.722595042" y1="856.641945887" y2="853.772119177" /><line stroke="rgb(0%,0%,0%)" x1="331.724640607" x2="335.754419169" y1="653.794480204" y2="653.073532729" /><line stroke="rgb(0%,0%,0%)" x1="356.321433279" x2="355.539019728" y1="647.023436488" y2="647.421986396" /><line stroke="rgb(0%,0%,0%)" x1="360.412826865" x2="362.346181116" y1="643.813705104" y2="643.189031896" /><line stroke="rgb(0%,0%,0%)" x1="362.346181116" x2="372.496032922" y1="643.189031896" y2="640.962611842" /><line stroke="rgb(0%,0%,0%)" x1="372.496032922" x2="372.914901051" y1="640.962611842" y2="640.777916261" /><line stroke="rgb(0%,0%,0%)" x1="376.96014783" x2="373.347946342" y1="638.544781579" y2="640.541519607" /><line stroke="rgb(0%,0%,0%)" x1="372.914901051" x2="373.067593768" y1="640.777916261" y2="640.6458008" /><line stroke="rgb(0%,0%,0%)" x1="373.067593768" x2="373.347946342" y1="640.6458008" y2="640.541519607" /><line stroke="rgb(0%,0%,0%)" x1="303.837390539" x2="299.417086611" y1="844.743382716" y2="848.2366076" /><line stroke="rgb(0%,0%,0%)" x1="312.294953293" x2="309.011135768" y1="844.304932918" y2="845.225428341" /><line stroke="rgb(0%,0%,0%)" x1="309.011135768" x2="303.837390539" y1="845.225428341" y2="844.743382716" /><line stroke="rgb(0%,0%,0%)" x1="318.500468957" x2="316.308283679" y1="921.44398126" y2="925.003099018" /><line stroke="rgb(0%,0%,0%)" x1="321.80808391" x2="326.754815415" y1="914.619104087" y2="904.321984836" /><line stroke="rgb(0%,0%,0%)" x1="318.500468957" x2="321.80808391" y1="921.44398126" y2="914.619104087" /><line stroke="rgb(0%,0%,0%)" x1="318.689834852" x2="317.918288412" y1="847.777315446" y2="845.198763934" /><line stroke="rgb(0%,0%,0%)" x1="318.689834852" x2="323.344123232" y1="847.777315446" y2="848.483339257" /><line stroke="rgb(0%,0%,0%)" x1="317.767894507" x2="317.918288412" y1="845.177336821" y2="845.198763934" /><line stroke="rgb(0%,0%,0%)" x1="317.767894507" x2="312.294953293" y1="845.177336821" y2="844.304932918" /><line stroke="rgb(0%,0%,0%)" x1="321.458264367" x2="320.447833487" y1="654.00784502" y2="653.841152319" /><line stroke="rgb(0%,0%,0%)" x1="323.786712639" x2="326.605722775" y1="654.151689642" y2="654.023859726" /><line stroke="rgb(0%,0%,0%)" x1="326.605722775" x2="329.707473313" y1="654.023859726" y2="654.127040391" /><line stroke="rgb(0%,0%,0%)" x1="328.926270838" x2="329.608696218" y1="896.446349774" y2="893.736864377" /><line stroke="rgb(0%,0%,0%)" x1="326.754815415" x2="328.926270838" y1="904.321984836" y2="896.446349774" /><line stroke="rgb(0%,0%,0%)" x1="329.608696218" x2="330.056597153" y1="893.736864377" y2="891.776129179" /><line stroke="rgb(0%,0%,0%)" x1="330.056597153" x2="332.340539963" y1="891.776129179" y2="882.621845782" /><line stroke="rgb(0%,0%,0%)" x1="332.340539963" x2="332.371146233" y1="882.621845782" y2="882.057191708" /><line stroke="rgb(0%,0%,0%)" x1="333.165766624" x2="332.371146233" y1="874.401946814" y2="882.057191708" /><line stroke="rgb(0%,0%,0%)" x1="330.807075599" x2="330.421269881" y1="864.185043005" y2="859.947228688" /><line stroke="rgb(0%,0%,0%)" x1="330.807075599" x2="331.519436511" y1="864.185043005" y2="865.209944724" /><line stroke="rgb(0%,0%,0%)" x1="330.421269881" x2="328.52361053" y1="859.947228688" y2="857.062281348" /><line stroke="rgb(0%,0%,0%)" x1="328.056897622" x2="328.52361053" y1="856.641945887" y2="857.062281348" /><line stroke="rgb(0%,0%,0%)" x1="326.722595042" x2="324.749154167" y1="853.772119177" y2="850.143551524" /><line stroke="rgb(0%,0%,0%)" x1="335.754419169" x2="347.248484608" y1="653.073532729" y2="650.507243186" /><line stroke="rgb(0%,0%,0%)" x1="347.248484608" x2="355.539019728" y1="650.507243186" y2="647.421986396" /><line stroke="rgb(0%,0%,0%)" x1="267.442323882" x2="265.806945797" y1="653.922075479" y2="653.96640697" /><line stroke="rgb(0%,0%,0%)" x1="267.442323882" x2="268.660602032" y1="653.922075479" y2="653.812067126" /><line stroke="rgb(0%,0%,0%)" x1="268.660602032" x2="272.724561234" y1="653.812067126" y2="653.54927443" /><line stroke="rgb(0%,0%,0%)" x1="273.788205463" x2="272.709032796" y1="276.197856539" y2="276.189624487" /><line stroke="rgb(0%,0%,0%)" x1="272.724561234" x2="274.684559506" y1="653.54927443" y2="653.482394353" /><line stroke="rgb(0%,0%,0%)" x1="281.966512259" x2="285.982107804" y1="654.593356047" y2="654.163374087" /><line stroke="rgb(0%,0%,0%)" x1="285.982107804" x2="286.857445417" y1="654.163374087" y2="654.029781585" /><line stroke="rgb(0%,0%,0%)" x1="274.684559506" x2="281.966512259" y1="653.482394353" y2="654.593356047" /><line stroke="rgb(0%,0%,0%)" x1="289.974082578" x2="294.519091954" y1="939.862970647" y2="940.832310557" /><line stroke="rgb(0%,0%,0%)" x1="294.519091954" x2="295.738911633" y1="940.832310557" y2="940.699742479" /><line stroke="rgb(0%,0%,0%)" x1="295.738911633" x2="296.698063851" y1="940.699742479" y2="940.473558507" /><line stroke="rgb(0%,0%,0%)" x1="289.669411692" x2="289.974082578" y1="939.763817215" y2="939.862970647" /><line stroke="rgb(0%,0%,0%)" x1="289.653800517" x2="289.669411692" y1="939.739675364" y2="939.763817215" /><line stroke="rgb(0%,0%,0%)" x1="289.653800517" x2="289.34103591" y1="939.739675364" y2="939.460981447" /><line stroke="rgb(0%,0%,0%)" x1="288.610313836" x2="288.315127574" y1="935.696878688" y2="937.351620541" /><line stroke="rgb(0%,0%,0%)" x1="289.504949796" x2="288.610313836" y1="931.544820841" y2="935.696878688" /><line stroke="rgb(0%,0%,0%)" x1="290.093815698" x2="289.504949796" y1="928.931491758" y2="931.544820841" /><line stroke="rgb(0%,0%,0%)" x1="290.667372809" x2="290.093815698" y1="927.219226331" y2="928.931491758" /><line stroke="rgb(0%,0%,0%)" x1="291.076497949" x2="290.667372809" y1="924.794228459" y2="927.219226331" /><line stroke="rgb(0%,0%,0%)" x1="296.418748808" x2="293.654881439" y1="916.449968936" y2="921.681163153" /><line stroke="rgb(0%,0%,0%)" x1="300.97833196" x2="296.418748808" y1="911.923062357" y2="916.449968936" /><line stroke="rgb(0%,0%,0%)" x1="293.968222965" x2="294.997294028" y1="868.182989831" y2="881.771763362" /><line stroke="rgb(0%,0%,0%)" x1="293.968222965" x2="294.301841134" y1="868.182989831" y2="866.46873766" /><line stroke="rgb(0%,0%,0%)" x1="295.346524553" x2="297.168207279" y1="883.230877764" y2="884.280606725" /><line stroke="rgb(0%,0%,0%)" x1="295.346524553" x2="294.997294028" y1="883.230877764" y2="881.771763362" /><line stroke="rgb(0%,0%,0%)" x1="296.827194256" x2="294.301841134" y1="861.425301326" y2="866.46873766" /><line stroke="rgb(0%,0%,0%)" x1="296.827194256" x2="297.52983854" y1="861.425301326" y2="853.374189423" /><line stroke="rgb(0%,0%,0%)" x1="297.74666442" x2="297.52983854" y1="850.488354527" y2="853.374189423" /><line stroke="rgb(0%,0%,0%)" x1="299.417086611" x2="297.74666442" y1="848.2366076" y2="850.488354527" /><line stroke="rgb(0%,0%,0%)" x1="296.698063851" x2="300.719094427" y1="940.473558507" y2="938.345093401" /><line stroke="rgb(0%,0%,0%)" x1="305.63634399" x2="300.719094427" y1="935.317349297" y2="938.345093401" /><line stroke="rgb(0%,0%,0%)" x1="309.673642998" x2="316.308283679" y1="931.757625615" y2="925.003099018" /><line stroke="rgb(0%,0%,0%)" x1="305.63634399" x2="309.673642998" y1="935.317349297" y2="931.757625615" /><line stroke="rgb(0%,0%,0%)" x1="302.834019397" x2="300.97833196" y1="908.635786295" y2="911.923062357" /><line stroke="rgb(0%,0%,0%)" x1="303.245582583" x2="302.834019397" y1="906.552859457" y2="908.635786295" /><line stroke="rgb(0%,0%,0%)" x1="303.245582583" x2="303.02125058" y1="906.552859457" y2="903.561593929" /><line stroke="rgb(0%,0%,0%)" x1="303.01226718" x2="303.02125058" y1="898.446730048" y2="903.561593929" /><line stroke="rgb(0%,0%,0%)" x1="297.99083827" x2="303.01226718" y1="889.16468857" y2="898.446730048" /><line stroke="rgb(0%,0%,0%)" x1="297.168207279" x2="297.99083827" y1="884.280606725" y2="889.16468857" /><line stroke="rgb(0%,0%,0%)" x1="324.240130993" x2="323.90450887" y1="849.221145926" y2="849.135544959" /><line stroke="rgb(0%,0%,0%)" x1="324.749154167" x2="324.240130993" y1="850.143551524" y2="849.221145926" /><line stroke="rgb(0%,0%,0%)" x1="323.90450887" x2="323.344123232" y1="849.135544959" y2="848.483339257" /><line stroke="rgb(0%,0%,0%)" x1="254.223453521" x2="249.264022956" y1="652.955591292" y2="651.766727491" /><line stroke="rgb(0%,0%,0%)" x1="242.777342309" x2="249.264022956" y1="650.410749979" y2="651.766727491" /><line stroke="rgb(0%,0%,0%)" x1="241.208366289" x2="242.777342309" y1="649.150120806" y2="650.410749979" /><line stroke="rgb(0%,0%,0%)" x1="254.223453521" x2="258.003216297" y1="652.955591292" y2="652.913747444" /><line stroke="rgb(0%,0%,0%)" x1="258.003216297" x2="265.806945797" y1="652.913747444" y2="653.96640697" /><line stroke="rgb(0%,0%,0%)" x1="199.419176977" x2="199.880238989" y1="632.58412426" y2="632.966728637" /><line stroke="rgb(0%,0%,0%)" x1="199.880238989" x2="204.581771123" y1="632.966728637" y2="634.816057687" /><line stroke="rgb(0%,0%,0%)" x1="185.571302356" x2="199.419176977" y1="627.86310799" y2="632.58412426" /><line stroke="rgb(0%,0%,0%)" x1="227.57028139" x2="223.726156805" y1="643.728787145" y2="642.456332247" /><line stroke="rgb(0%,0%,0%)" x1="223.726156805" x2="219.097593535" y1="642.456332247" y2="640.173389749" /><line stroke="rgb(0%,0%,0%)" x1="210.489094597" x2="219.097593535" y1="636.75193523" y2="640.173389749" /><line stroke="rgb(0%,0%,0%)" x1="227.57028139" x2="241.208366289" y1="643.728787145" y2="649.150120806" /><line stroke="rgb(0%,0%,0%)" x1="185.571302356" x2="185.173925838" y1="627.86310799" y2="627.789745071" /><line stroke="rgb(0%,0%,0%)" x1="120.938762902" x2="119.779861928" y1="563.976573402" y2="568.4117645" /><line stroke="rgb(0%,0%,0%)" x1="125.100788664" x2="124.251542491" y1="583.196008256" y2="582.23661498" /><line stroke="rgb(0%,0%,0%)" x1="125.100788664" x2="125.659753772" y1="583.196008256" y2="583.785264832" /><line stroke="rgb(0%,0%,0%)" x1="120.938762902" x2="120.51049498" y1="563.976573402" y2="563.116292986" /><line stroke="rgb(0%,0%,0%)" x1="117.13538646" x2="120.51049498" y1="557.106098557" y2="563.116292986" /><line stroke="rgb(0%,0%,0%)" x1="125.659753772" x2="126.748506353" y1="583.785264832" y2="584.640849638" /><line stroke="rgb(0%,0%,0%)" x1="140.332030757" x2="140.583355341" y1="595.029475466" y2="595.268432296" /><line stroke="rgb(0%,0%,0%)" x1="135.900109634" x2="135.396952904" y1="590.027979559" y2="590.280892111" /><line stroke="rgb(0%,0%,0%)" x1="135.900109634" x2="138.212782329" y1="590.027979559" y2="593.101600158" /><line stroke="rgb(0%,0%,0%)" x1="138.212782329" x2="140.332030757" y1="593.101600158" y2="595.029475466" /><line stroke="rgb(0%,0%,0%)" x1="126.748506353" x2="135.396952904" y1="584.640849638" y2="590.280892111" /><line stroke="rgb(0%,0%,0%)" x1="76.7127487546" x2="74.8010942221" y1="520.385344794" y2="518.182747734" /><line stroke="rgb(0%,0%,0%)" x1="80.6701044068" x2="88.5645713619" y1="524.744097684" y2="533.38360109" /><line stroke="rgb(0%,0%,0%)" x1="119.413552102" x2="124.251542491" y1="573.990726238" y2="582.23661498" /><line stroke="rgb(0%,0%,0%)" x1="119.413552102" x2="119.448344985" y1="573.990726238" y2="569.912057384" /><line stroke="rgb(0%,0%,0%)" x1="119.779861928" x2="119.448344985" y1="568.4117645" y2="569.912057384" /><line stroke="rgb(0%,0%,0%)" x1="111.154214075" x2="117.13538646" y1="554.402824718" y2="557.106098557" /><line stroke="rgb(0%,0%,0%)" x1="108.85052346" x2="111.154214075" y1="552.982395544" y2="554.402824718" /><line stroke="rgb(0%,0%,0%)" x1="108.85052346" x2="100.079264716" y1="552.982395544" y2="546.14790563" /><line stroke="rgb(0%,0%,0%)" x1="59.1117741365" x2="57.5391072219" y1="498.808116529" y2="495.266022283" /><line stroke="rgb(0%,0%,0%)" x1="57.5391072219" x2="55.9388123689" y1="495.266022283" y2="489.407003088" /><line stroke="rgb(0%,0%,0%)" x1="54.922804629" x2="55.9388123689" y1="483.576579726" y2="489.407003088" /><line stroke="rgb(0%,0%,0%)" x1="55.4271785968" x2="57.2629933064" y1="481.591081919" y2="474.665980733" /><line stroke="rgb(0%,0%,0%)" x1="61.5913213858" x2="59.9705376798" y1="469.014112769" y2="470.836951917" /><line stroke="rgb(0%,0%,0%)" x1="64.542006148" x2="61.5913213858" y1="465.334171009" y2="469.014112769" /><line stroke="rgb(0%,0%,0%)" x1="76.7127487546" x2="80.6701044068" y1="520.385344794" y2="524.744097684" /><line stroke="rgb(0%,0%,0%)" x1="69.3098695562" x2="74.8010942221" y1="512.11944785" y2="518.182747734" /><line stroke="rgb(0%,0%,0%)" x1="65.0323072074" x2="69.3098695562" y1="504.939782354" y2="512.11944785" /><line stroke="rgb(0%,0%,0%)" x1="59.1117741365" x2="65.0323072074" y1="498.808116529" y2="504.939782354" /><line stroke="rgb(0%,0%,0%)" x1="66.1667378428" x2="64.542006148" y1="463.025714648" y2="465.334171009" /><line stroke="rgb(0%,0%,0%)" x1="67.4092149555" x2="66.1667378428" y1="459.971467224" y2="463.025714648" /><line stroke="rgb(0%,0%,0%)" x1="88.5645713619" x2="97.277959298" y1="533.38360109" y2="542.568119179" /><line stroke="rgb(0%,0%,0%)" x1="97.277959298" x2="100.079264716" y1="542.568119179" y2="546.14790563" /><line stroke="rgb(0%,0%,0%)" x1="55.4271785968" x2="54.922804629" y1="481.591081919" y2="483.576579726" /><line stroke="rgb(0%,0%,0%)" x1="59.9705376798" x2="57.2629933064" y1="470.836951917" y2="474.665980733" /><line stroke="rgb(0%,0%,0%)" x1="422.135292227" x2="420.135885632" y1="609.234171314" y2="610.400498275" /><line stroke="rgb(0%,0%,0%)" x1="422.135292227" x2="424.079036892" y1="609.234171314" y2="608.034308572" /><line stroke="rgb(0%,0%,0%)" x1="431.408756314" x2="434.90916484" y1="600.193101139" y2="596.237725497" /><line stroke="rgb(0%,0%,0%)" x1="435.013571762" x2="434.90916484" y1="596.044282797" y2="596.237725497" /><line stroke="rgb(0%,0%,0%)" x1="435.013571762" x2="435.251532818" y1="596.044282797" y2="595.791699034" /><line stroke="rgb(0%,0%,0%)" x1="435.251532818" x2="443.808018714" y1="595.791699034" y2="585.708232051" /><line stroke="rgb(0%,0%,0%)" x1="443.808018714" x2="447.119373254" y1="585.708232051" y2="578.235620745" /><line stroke="rgb(0%,0%,0%)" x1="447.119373254" x2="447.391636188" y1="578.235620745" y2="577.433101717" /><line stroke="rgb(0%,0%,0%)" x1="447.391636188" x2="447.369318114" y1="577.433101717" y2="575.251883438" /><line stroke="rgb(0%,0%,0%)" x1="447.369318114" x2="450.304037735" y1="575.251883438" y2="567.442402605" /><line stroke="rgb(0%,0%,0%)" x1="450.304037735" x2="450.976696461" y1="567.442402605" y2="565.38931191" /><line stroke="rgb(0%,0%,0%)" x1="400.899530116" x2="398.626548833" y1="621.134044015" y2="622.517384525" /><line stroke="rgb(0%,0%,0%)" x1="400.899530116" x2="408.631321532" y1="621.134044015" y2="616.927655163" /><line stroke="rgb(0%,0%,0%)" x1="408.631321532" x2="411.371566258" y1="616.927655163" y2="615.687129739" /><line stroke="rgb(0%,0%,0%)" x1="414.069191242" x2="418.701102474" y1="614.334239962" y2="611.587095187" /><line stroke="rgb(0%,0%,0%)" x1="420.135885632" x2="418.701102474" y1="610.400498275" y2="611.587095187" /><line stroke="rgb(0%,0%,0%)" x1="424.079036892" x2="430.120302621" y1="608.034308572" y2="601.1829831" /><line stroke="rgb(0%,0%,0%)" x1="430.120302621" x2="431.408756314" y1="601.1829831" y2="600.193101139" /><line stroke="rgb(0%,0%,0%)" x1="333.165766624" x2="332.813115806" y1="874.401946814" y2="870.948770891" /><line stroke="rgb(0%,0%,0%)" x1="397.908445662" x2="398.259185855" y1="622.996658241" y2="622.794612626" /><line stroke="rgb(0%,0%,0%)" x1="398.259185855" x2="398.626548833" y1="622.794612626" y2="622.517384525" /><line stroke="rgb(0%,0%,0%)" x1="411.371566258" x2="414.069191242" y1="615.687129739" y2="614.334239962" /><line stroke="rgb(0%,0%,0%)" x1="288.469155906" x2="286.857445417" y1="653.943448904" y2="654.029781585" /><line stroke="rgb(0%,0%,0%)" x1="290.211733268" x2="292.820731329" y1="653.877236929" y2="653.00395117" /><line stroke="rgb(0%,0%,0%)" x1="301.486913378" x2="298.87411534" y1="651.882007233" y2="651.889491414" /><line stroke="rgb(0%,0%,0%)" x1="301.486913378" x2="302.251113266" y1="651.882007233" y2="652.020502728" /><line stroke="rgb(0%,0%,0%)" x1="292.820731329" x2="293.254229" y1="653.00395117" y2="652.915290834" /><line stroke="rgb(0%,0%,0%)" x1="296.62151392" x2="293.254229" y1="652.42272987" y2="652.915290834" /><line stroke="rgb(0%,0%,0%)" x1="296.62151392" x2="298.87411534" y1="652.42272987" y2="651.889491414" /><line stroke="rgb(0%,0%,0%)" x1="302.251113266" x2="305.916779762" y1="652.020502728" y2="651.188993058" /><line stroke="rgb(0%,0%,0%)" x1="309.013587771" x2="305.916779762" y1="651.982305405" y2="651.188993058" /><line stroke="rgb(0%,0%,0%)" x1="318.279950749" x2="318.369167814" y1="653.605433124" y2="653.617031967" /><line stroke="rgb(0%,0%,0%)" x1="311.536991847" x2="318.173800291" y1="652.308594909" y2="653.585025436" /><line stroke="rgb(0%,0%,0%)" x1="318.173800291" x2="318.279950749" y1="653.585025436" y2="653.605433124" /><line stroke="rgb(0%,0%,0%)" x1="311.536991847" x2="309.013587771" y1="652.308594909" y2="651.982305405" /><line stroke="rgb(0%,0%,0%)" x1="332.813115806" x2="332.434943469" y1="870.948770891" y2="865.902327771" /><line stroke="rgb(0%,0%,0%)" x1="332.434943469" x2="331.519436511" y1="865.902327771" y2="865.209944724" /><line stroke="rgb(0%,0%,0%)" x1="288.469155906" x2="290.211733268" y1="653.943448904" y2="653.877236929" /><line stroke="rgb(0%,0%,0%)" x1="288.4387405" x2="288.715325062" y1="938.018853215" y2="938.250022129" /><line stroke="rgb(0%,0%,0%)" x1="288.328652147" x2="288.4387405" y1="937.745687321" y2="938.018853215" /><line stroke="rgb(0%,0%,0%)" x1="288.315127574" x2="288.328652147" y1="937.351620541" y2="937.745687321" /><line stroke="rgb(0%,0%,0%)" x1="158.668483474" x2="158.594074119" y1="611.350804572" y2="611.30453935" /><line stroke="rgb(0%,0%,0%)" x1="158.594074119" x2="158.519818696" y1="611.30453935" y2="611.246903334" /><line stroke="rgb(0%,0%,0%)" x1="158.420947461" x2="157.432789595" y1="611.164687951" y2="610.290307368" /><line stroke="rgb(0%,0%,0%)" x1="158.420947461" x2="158.519818696" y1="611.164687951" y2="611.246903334" /><line stroke="rgb(0%,0%,0%)" x1="158.668483474" x2="159.163021985" y1="611.350804572" y2="611.702104987" /><line stroke="rgb(0%,0%,0%)" x1="184.831440481" x2="185.173925838" y1="627.54933968" y2="627.789745071" /><line stroke="rgb(0%,0%,0%)" x1="184.831440481" x2="184.462059221" y1="627.54933968" y2="627.440776025" /><line stroke="rgb(0%,0%,0%)" x1="159.163021985" x2="184.462059221" y1="611.702104987" y2="627.440776025" /><line stroke="rgb(0%,0%,0%)" x1="208.72258703" x2="210.489094597" y1="636.049133055" y2="636.75193523" /><line stroke="rgb(0%,0%,0%)" x1="208.72258703" x2="205.342658454" y1="636.049133055" y2="635.121543172" /><line stroke="rgb(0%,0%,0%)" x1="140.583355341" x2="141.150627024" y1="595.268432296" y2="595.753435075" /><line stroke="rgb(0%,0%,0%)" x1="142.018640696" x2="157.432789595" y1="596.513269224" y2="610.290307368" /><line stroke="rgb(0%,0%,0%)" x1="141.150627024" x2="142.018640696" y1="595.753435075" y2="596.513269224" /><line stroke="rgb(0%,0%,0%)" x1="67.1210520341" x2="67.4092149555" y1="458.449971195" y2="459.971467224" /><line stroke="rgb(0%,0%,0%)" x1="67.6517613974" x2="67.1210520341" y1="457.459388508" y2="458.449971195" /><line stroke="rgb(0%,0%,0%)" x1="288.715325062" x2="289.34103591" y1="938.250022129" y2="939.460981447" /><line stroke="rgb(0%,0%,0%)" x1="204.581771123" x2="205.342658454" y1="634.816057687" y2="635.121543172" /><line stroke="rgb(0%,0%,0%)" x1="320.447833487" x2="318.369167814" y1="653.841152319" y2="653.617031967" /><line stroke="rgb(0%,0%,0%)" x1="293.654881439" x2="291.076497949" y1="921.681163153" y2="924.794228459" /></svg>