<?xml version="1.0" encoding="utf-8" ?>
<svg baseProfile="full" height="100%" version="1.1" viewBox="0.5 0.5 685.793960571 941.299331665" width="100%" xmlns="http://www.w3.org/2000/svg" xmlns:ev="http://www.w3.org/2001/xml-events" xmlns:xlink="http://www.w3.org/1999/xlink"><defs /><line stroke="rgb(0%,0%,0%)" x1="478.314712368" x2="481.532676007" y1="415.343512206" y2="421.002268136" /><line stroke="rgb(0%,0%,0%)" x1="478.314712368" x2="473.561309316" y1="415.343512206" y2="408.084169121" /><line stroke="rgb(0%,0%,0%)" x1="460.30312446" x2="461.666529212" y1="388.753375239" y2="391.061984307" /><line stroke="rgb(0%,0%,0%)" x1="460.30312446" x2="454.971263462" y1="388.753375239" y2="382.012861064" /><line stroke="rgb(0%,0%,0%)" x1="454.408643532" x2="454.971263462" y1="381.18402089" y2="382.012861064" /><line stroke="rgb(0%,0%,0%)" x1="489.16716052" x2="486.685330512" y1="452.70854965" y2="441.468062844" /><line stroke="rgb(0%,0%,0%)" x1="486.685330512" x2="485.909336628" y1="441.468062844" y2="437.226606411" /><line stroke="rgb(0%,0%,0%)" x1="485.909336628" x2="484.698014617" y1="437.226606411" y2="433.152330188" /><line stroke="rgb(0%,0%,0%)" x1="488.720633701" x2="489.198990305" y1="464.58722724" y2="461.041335594" /><line stroke="rgb(0%,0%,0%)" x1="489.16716052" x2="489.198990305" y1="452.70854965" y2="461.041335594" /><line stroke="rgb(0%,0%,0%)" x1="454.408643532" x2="450.571635534" y1="381.18402089" y2="378.455981326" /><line stroke="rgb(0%,0%,0%)" x1="450.571635534" x2="444.784972967" y1="378.455981326" y2="373.505663663" /><line stroke="rgb(0%,0%,0%)" x1="441.799807588" x2="443.251558577" y1="367.301572337" y2="371.479950022" /><line stroke="rgb(0%,0%,0%)" x1="473.561309316" x2="471.283448848" y1="408.084169121" y2="405.358663468" /><line stroke="rgb(0%,0%,0%)" x1="471.283448848" x2="461.666529212" y1="405.358663468" y2="391.061984307" /><line stroke="rgb(0%,0%,0%)" x1="484.698014617" x2="483.925668135" y1="433.152330188" y2="429.373233045" /><line stroke="rgb(0%,0%,0%)" x1="483.925668135" x2="481.532676007" y1="429.373233045" y2="421.002268136" /><line stroke="rgb(0%,0%,0%)" x1="444.784972967" x2="443.251558577" y1="373.505663663" y2="371.479950022" /><line stroke="rgb(0%,0%,0%)" x1="387.262096911" x2="385.942011735" y1="307.642881408" y2="306.502061342" /><line stroke="rgb(0%,0%,0%)" x1="381.43646491" x2="385.942011735" y1="302.432473814" y2="306.502061342" /><line stroke="rgb(0%,0%,0%)" x1="381.43646491" x2="378.217410456" y1="302.432473814" y2="300.189121081" /><line stroke="rgb(0%,0%,0%)" x1="378.217410456" x2="376.66358754" y1="300.189121081" y2="298.884864966" /><line stroke="rgb(0%,0%,0%)" x1="307.285188525" x2="312.086670342" y1="274.274591676" y2="273.729412487" /><line stroke="rgb(0%,0%,0%)" x1="338.022550291" x2="343.441514785" y1="278.597292923" y2="280.92643178" /><line stroke="rgb(0%,0%,0%)" x1="333.776227113" x2="338.022550291" y1="277.602844452" y2="278.597292923" /><line stroke="rgb(0%,0%,0%)" x1="356.854763958" x2="352.986833131" y1="287.014729581" y2="285.270764181" /><line stroke="rgb(0%,0%,0%)" x1="352.986833131" x2="348.628827496" y1="285.270764181" y2="284.077460429" /><line stroke="rgb(0%,0%,0%)" x1="344.89574047" x2="343.441514785" y1="281.788507826" y2="280.92643178" /><line stroke="rgb(0%,0%,0%)" x1="348.628827496" x2="344.89574047" y1="284.077460429" y2="281.788507826" /><line stroke="rgb(0%,0%,0%)" x1="363.385531363" x2="370.825144594" y1="289.214224733" y2="293.818712026" /><line stroke="rgb(0%,0%,0%)" x1="360.10181836" x2="363.385531363" y1="287.765173268" y2="289.214224733" /><line stroke="rgb(0%,0%,0%)" x1="360.10181836" x2="356.854763958" y1="287.765173268" y2="287.014729581" /><line stroke="rgb(0%,0%,0%)" x1="374.920058311" x2="373.666481694" y1="297.0170527" y2="295.969059789" /><line stroke="rgb(0%,0%,0%)" x1="373.666481694" x2="372.910225888" y1="295.969059789" y2="295.493820519" /><line stroke="rgb(0%,0%,0%)" x1="376.66358754" x2="374.920058311" y1="298.884864966" y2="297.0170527" /><line stroke="rgb(0%,0%,0%)" x1="372.910225888" x2="370.825144594" y1="295.493820519" y2="293.818712026" /><line stroke="rgb(0%,0%,0%)" x1="283.559739193" x2="281.784632651" y1="277.372065861" y2="277.411683095" /><line stroke="rgb(0%,0%,0%)" x1="297.780140568" x2="297.028490431" y1="277.109077931" y2="277.279985619" /><line stroke="rgb(0%,0%,0%)" x1="291.344113511" x2="297.028490431" y1="278.437304712" y2="277.279985619" /><line stroke="rgb(0%,0%,0%)" x1="291.344113511" x2="289.745059852" y1="278.437304712" y2="278.403711244" /><line stroke="rgb(0%,0%,0%)" x1="286.736864755" x2="283.559739193" y1="278.350223216" y2="277.372065861" /><line stroke="rgb(0%,0%,0%)" x1="286.736864755" x2="287.703048327" y1="278.350223216" y2="278.403277839" /><line stroke="rgb(0%,0%,0%)" x1="307.285188525" x2="304.958406318" y1="274.274591676" y2="275.178516663" /><line stroke="rgb(0%,0%,0%)" x1="304.958406318" x2="304.77861192" y1="275.178516663" y2="275.245227852" /><line stroke="rgb(0%,0%,0%)" x1="316.121869912" x2="314.82632067" y1="273.523795198" y2="273.431333265" /><line stroke="rgb(0%,0%,0%)" x1="314.82632067" x2="312.086670342" y1="273.431333265" y2="273.729412487" /><line stroke="rgb(0%,0%,0%)" x1="318.074170717" x2="316.121869912" y1="273.788010691" y2="273.523795198" /><line stroke="rgb(0%,0%,0%)" x1="320.832190456" x2="318.823128058" y1="274.018610824" y2="273.63858005" /><line stroke="rgb(0%,0%,0%)" x1="318.823128058" x2="318.074170717" y1="273.63858005" y2="273.788010691" /><line stroke="rgb(0%,0%,0%)" x1="332.642472921" x2="324.845552825" y1="276.436219799" y2="274.691520305" /><line stroke="rgb(0%,0%,0%)" x1="324.845552825" x2="320.832190456" y1="274.691520305" y2="274.018610824" /><line stroke="rgb(0%,0%,0%)" x1="333.776227113" x2="332.642472921" y1="277.602844452" y2="276.436219799" /><line stroke="rgb(0%,0%,0%)" x1="276.327049941" x2="274.543689833" y1="276.823643687" y2="277.578095067" /><line stroke="rgb(0%,0%,0%)" x1="279.829085657" x2="278.561359913" y1="277.139269938" y2="277.262053026" /><line stroke="rgb(0%,0%,0%)" x1="278.561359913" x2="276.327049941" y1="277.262053026" y2="276.823643687" /><line stroke="rgb(0%,0%,0%)" x1="281.784632651" x2="279.829085657" y1="277.411683095" y2="277.139269938" /><line stroke="rgb(0%,0%,0%)" x1="298.852154552" x2="297.780140568" y1="276.963957186" y2="277.109077931" /><line stroke="rgb(0%,0%,0%)" x1="236.364197545" x2="235.049785187" y1="280.844590578" y2="281.2425971" /><line stroke="rgb(0%,0%,0%)" x1="241.647123847" x2="236.364197545" y1="278.10282822" y2="280.844590578" /><line stroke="rgb(0%,0%,0%)" x1="253.010095938" x2="249.771166809" y1="278.208114758" y2="278.467844596" /><line stroke="rgb(0%,0%,0%)" x1="249.771166809" x2="241.647123847" y1="278.467844596" y2="278.10282822" /><line stroke="rgb(0%,0%,0%)" x1="260.6628111" x2="260.178886656" y1="279.643596765" y2="279.842307979" /><line stroke="rgb(0%,0%,0%)" x1="260.840910222" x2="260.6628111" y1="279.605264214" y2="279.643596765" /><line stroke="rgb(0%,0%,0%)" x1="260.178886656" x2="258.855249108" y1="279.842307979" y2="279.836102896" /><line stroke="rgb(0%,0%,0%)" x1="261.121527935" x2="260.840910222" y1="279.562160541" y2="279.605264214" /><line stroke="rgb(0%,0%,0%)" x1="253.010095938" x2="258.855249108" y1="278.208114758" y2="279.836102896" /><line stroke="rgb(0%,0%,0%)" x1="272.448147976" x2="261.449498449" y1="277.562110035" y2="279.50315576" /><line stroke="rgb(0%,0%,0%)" x1="261.449498449" x2="261.121527935" y1="279.50315576" y2="279.562160541" /><line stroke="rgb(0%,0%,0%)" x1="214.380914625" x2="214.224959713" y1="286.632647581" y2="286.631697013" /><line stroke="rgb(0%,0%,0%)" x1="214.224959713" x2="201.151786463" y1="286.631697013" y2="287.870855512" /><line stroke="rgb(0%,0%,0%)" x1="228.517306735" x2="214.380914625" y1="283.661185922" y2="286.632647581" /><line stroke="rgb(0%,0%,0%)" x1="228.517306735" x2="229.820965598" y1="283.661185922" y2="283.08733944" /><line stroke="rgb(0%,0%,0%)" x1="234.260176269" x2="229.820965598" y1="281.810308158" y2="283.08733944" /><line stroke="rgb(0%,0%,0%)" x1="234.260176269" x2="235.049785187" y1="281.810308158" y2="281.2425971" /><line stroke="rgb(0%,0%,0%)" x1="178.802780783" x2="164.015282308" y1="293.115174057" y2="303.495953943" /><line stroke="rgb(0%,0%,0%)" x1="178.802780783" x2="185.089988859" y1="293.115174057" y2="290.155861053" /><line stroke="rgb(0%,0%,0%)" x1="187.073362102" x2="185.089988859" y1="289.689542565" y2="290.155861053" /><line stroke="rgb(0%,0%,0%)" x1="193.625331961" x2="187.073362102" y1="288.664603404" y2="289.689542565" /><line stroke="rgb(0%,0%,0%)" x1="201.151786463" x2="193.625331961" y1="287.870855512" y2="288.664603404" /><line stroke="rgb(0%,0%,0%)" x1="122.973779165" x2="122.276796066" y1="337.394638603" y2="338.318786177" /><line stroke="rgb(0%,0%,0%)" x1="122.973779165" x2="129.833812066" y1="337.394638603" y2="331.051222615" /><line stroke="rgb(0%,0%,0%)" x1="138.90594392" x2="137.487184507" y1="326.126994795" y2="326.864312059" /><line stroke="rgb(0%,0%,0%)" x1="137.487184507" x2="136.681445416" y1="326.864312059" y2="328.248350405" /><line stroke="rgb(0%,0%,0%)" x1="148.746161616" x2="138.90594392" y1="317.282799341" y2="326.126994795" /><line stroke="rgb(0%,0%,0%)" x1="148.746161616" x2="158.327256493" y1="317.282799341" y2="308.040684125" /><line stroke="rgb(0%,0%,0%)" x1="161.02093656" x2="158.327256493" y1="305.818629403" y2="308.040684125" /><line stroke="rgb(0%,0%,0%)" x1="161.56375364" x2="161.02093656" y1="305.403427377" y2="305.818629403" /><line stroke="rgb(0%,0%,0%)" x1="164.015282308" x2="161.56375364" y1="303.495953943" y2="305.403427377" /><line stroke="rgb(0%,0%,0%)" x1="89.0372720615" x2="88.5057591506" y1="389.233695639" y2="389.880099131" /><line stroke="rgb(0%,0%,0%)" x1="89.0372720615" x2="89.1597450359" y1="389.233695639" y2="389.126099174" /><line stroke="rgb(0%,0%,0%)" x1="104.520851243" x2="107.463566418" y1="370.685433063" y2="368.073901504" /><line stroke="rgb(0%,0%,0%)" x1="115.19548843" x2="116.436029905" y1="352.550417682" y2="356.302116267" /><line stroke="rgb(0%,0%,0%)" x1="115.19548843" x2="115.855011615" y1="352.550417682" y2="345.552782599" /><line stroke="rgb(0%,0%,0%)" x1="122.276796066" x2="118.076196337" y1="338.318786177" y2="342.421622871" /><line stroke="rgb(0%,0%,0%)" x1="114.097774405" x2="115.475512607" y1="364.123936087" y2="361.236505899" /><line stroke="rgb(0%,0%,0%)" x1="129.961054943" x2="129.833812066" y1="330.946675511" y2="331.051222615" /><line stroke="rgb(0%,0%,0%)" x1="136.681445416" x2="129.961054943" y1="328.248350405" y2="330.946675511" /><line stroke="rgb(0%,0%,0%)" x1="64.8174322812" x2="64.6947743935" y1="418.440109066" y2="418.654900532" /><line stroke="rgb(0%,0%,0%)" x1="64.8174322812" x2="65.7036969119" y1="418.440109066" y2="417.357821809" /><line stroke="rgb(0%,0%,0%)" x1="88.5057591506" x2="79.4497359039" y1="389.880099131" y2="401.812395141" /><line stroke="rgb(0%,0%,0%)" x1="89.1597450359" x2="89.9517216211" y1="389.126099174" y2="387.969777103" /><line stroke="rgb(0%,0%,0%)" x1="101.431652852" x2="97.8448355517" y1="375.081533789" y2="377.563957951" /><line stroke="rgb(0%,0%,0%)" x1="97.8448355517" x2="89.9517216211" y1="377.563957951" y2="387.969777103" /><line stroke="rgb(0%,0%,0%)" x1="104.520851243" x2="101.431652852" y1="370.685433063" y2="375.081533789" /><line stroke="rgb(0%,0%,0%)" x1="114.097774405" x2="107.463566418" y1="364.123936087" y2="368.073901504" /><line stroke="rgb(0%,0%,0%)" x1="116.284454408" x2="115.475512607" y1="359.449774491" y2="361.236505899" /><line stroke="rgb(0%,0%,0%)" x1="116.436029905" x2="117.102982873" y1="356.302116267" y2="356.8140855" /><line stroke="rgb(0%,0%,0%)" x1="117.102982873" x2="116.284454408" y1="356.8140855" y2="359.449774491" /><line stroke="rgb(0%,0%,0%)" x1="116.01479488" x2="115.855011615" y1="344.945256552" y2="345.552782599" /><line stroke="rgb(0%,0%,0%)" x1="118.076196337" x2="116.01479488" y1="342.421622871" y2="344.945256552" /><line stroke="rgb(0%,0%,0%)" x1="64.6947743935" x2="64.0103959028" y1="418.654900532" y2="420.79490039" /><line stroke="rgb(0%,0%,0%)" x1="71.0209700798" x2="71.3387555801" y1="455.864225308" y2="456.542695716" /><line stroke="rgb(0%,0%,0%)" x1="68.7520794069" x2="67.6236379122" y1="449.141570116" y2="447.087554123" /><line stroke="rgb(0%,0%,0%)" x1="68.7520794069" x2="71.0209700798" y1="449.141570116" y2="455.864225308" /><line stroke="rgb(0%,0%,0%)" x1="67.6236379122" x2="65.3459627815" y1="447.087554123" y2="439.356123269" /><line stroke="rgb(0%,0%,0%)" x1="62.8366385955" x2="65.3459627815" y1="433.50796434" y2="439.356123269" /><line stroke="rgb(0%,0%,0%)" x1="62.8366385955" x2="62.6440172538" y1="433.50796434" y2="427.232941887" /><line stroke="rgb(0%,0%,0%)" x1="79.4497359039" x2="73.4595274783" y1="401.812395141" y2="408.919770395" /><line stroke="rgb(0%,0%,0%)" x1="73.4595274783" x2="72.2249436369" y1="408.919770395" y2="409.995476711" /><line stroke="rgb(0%,0%,0%)" x1="62.5672971237" x2="62.6440172538" y1="426.456739764" y2="427.232941887" /><line stroke="rgb(0%,0%,0%)" x1="64.0103959028" x2="62.5672971237" y1="420.79490039" y2="426.456739764" /><line stroke="rgb(0%,0%,0%)" x1="72.2249436369" x2="65.7036969119" y1="409.995476711" y2="417.357821809" /><line stroke="rgb(0%,0%,0%)" x1="466.797872364" x2="472.85116046" y1="537.422454344" y2="528.072288233" /><line stroke="rgb(0%,0%,0%)" x1="476.36757733" x2="472.85116046" y1="521.741674431" y2="528.072288233" /><line stroke="rgb(0%,0%,0%)" x1="487.649989161" x2="485.732826385" y1="488.1275226" y2="497.387317503" /><line stroke="rgb(0%,0%,0%)" x1="487.649989161" x2="488.901381399" y1="488.1275226" y2="484.444499139" /><line stroke="rgb(0%,0%,0%)" x1="411.250626286" x2="411.210883468" y1="321.399939522" y2="321.387413577" /><line stroke="rgb(0%,0%,0%)" x1="437.129789286" x2="437.011665895" y1="360.475765074" y2="360.143979521" /><line stroke="rgb(0%,0%,0%)" x1="435.566057977" x2="434.427721609" y1="354.652971403" y2="349.784843706" /><line stroke="rgb(0%,0%,0%)" x1="460.288741827" x2="454.161170953" y1="548.772601338" y2="553.784085867" /><line stroke="rgb(0%,0%,0%)" x1="460.288741827" x2="462.528897181" y1="548.772601338" y2="544.875135709" /><line stroke="rgb(0%,0%,0%)" x1="476.36757733" x2="477.491238252" y1="521.741674431" y2="518.954281308" /><line stroke="rgb(0%,0%,0%)" x1="477.491238252" x2="477.606846171" y1="518.954281308" y2="518.356017362" /><line stroke="rgb(0%,0%,0%)" x1="484.159750199" x2="477.606846171" y1="504.208044616" y2="518.356017362" /><line stroke="rgb(0%,0%,0%)" x1="484.159750199" x2="485.18888755" y1="504.208044616" y2="500.544087623" /><line stroke="rgb(0%,0%,0%)" x1="485.18888755" x2="485.732826385" y1="500.544087623" y2="497.387317503" /><line stroke="rgb(0%,0%,0%)" x1="488.901381399" x2="489.716143166" y1="484.444499139" y2="472.048695783" /><line stroke="rgb(0%,0%,0%)" x1="489.716143166" x2="489.636517747" y1="472.048695783" y2="470.672072851" /><line stroke="rgb(0%,0%,0%)" x1="488.720633701" x2="489.636517747" y1="464.58722724" y2="470.672072851" /><line stroke="rgb(0%,0%,0%)" x1="411.210883468" x2="411.056027268" y1="321.387413577" y2="321.255933409" /><line stroke="rgb(0%,0%,0%)" x1="411.250626286" x2="411.42107297" y1="321.399939522" y2="321.552293445" /><line stroke="rgb(0%,0%,0%)" x1="437.011665895" x2="435.566057977" y1="360.143979521" y2="354.652971403" /><line stroke="rgb(0%,0%,0%)" x1="432.789166274" x2="430.864607085" y1="348.736995995" y2="343.218816154" /><line stroke="rgb(0%,0%,0%)" x1="432.789166274" x2="434.427721609" y1="348.736995995" y2="349.784843706" /><line stroke="rgb(0%,0%,0%)" x1="426.477791242" x2="428.694238992" y1="337.559019596" y2="339.460829083" /><line stroke="rgb(0%,0%,0%)" x1="430.864607085" x2="428.694238992" y1="343.218816154" y2="339.460829083" /><line stroke="rgb(0%,0%,0%)" x1="426.477791242" x2="421.106204864" y1="337.559019596" y2="331.694347225" /><line stroke="rgb(0%,0%,0%)" x1="441.799807588" x2="437.129789286" y1="367.301572337" y2="360.475765074" /><line stroke="rgb(0%,0%,0%)" x1="447.706530504" x2="448.611787786" y1="563.326121613" y2="560.303386897" /><line stroke="rgb(0%,0%,0%)" x1="448.611787786" x2="454.161170953" y1="560.303386897" y2="553.784085867" /><line stroke="rgb(0%,0%,0%)" x1="462.528897181" x2="466.797872364" y1="544.875135709" y2="537.422454344" /><line stroke="rgb(0%,0%,0%)" x1="356.054238924" x2="356.05024912" y1="643.966860058" y2="643.972587457" /><line stroke="rgb(0%,0%,0%)" x1="356.054238924" x2="356.062211276" y1="643.966860058" y2="643.962868787" /><line stroke="rgb(0%,0%,0%)" x1="378.096372885" x2="377.747911095" y1="635.62931952" y2="635.857970338" /><line stroke="rgb(0%,0%,0%)" x1="378.096372885" x2="380.373834321" y1="635.62931952" y2="633.968539265" /><line stroke="rgb(0%,0%,0%)" x1="380.373834321" x2="391.083566333" y1="633.968539265" y2="625.491889571" /><line stroke="rgb(0%,0%,0%)" x1="391.083566333" x2="392.667446915" y1="625.491889571" y2="624.360524271" /><line stroke="rgb(0%,0%,0%)" x1="399.511549788" x2="395.112836402" y1="313.739781943" y2="311.942234686" /><line stroke="rgb(0%,0%,0%)" x1="391.33541296" x2="395.112836402" y1="309.91581617" y2="311.942234686" /><line stroke="rgb(0%,0%,0%)" x1="390.033278864" x2="388.131503643" y1="309.40246524" y2="308.064474981" /><line stroke="rgb(0%,0%,0%)" x1="391.33541296" x2="390.033278864" y1="309.91581617" y2="309.40246524" /><line stroke="rgb(0%,0%,0%)" x1="388.131503643" x2="387.262096911" y1="308.064474981" y2="307.642881408" /><line stroke="rgb(0%,0%,0%)" x1="392.667446915" x2="394.397558857" y1="624.360524271" y2="623.076865461" /><line stroke="rgb(0%,0%,0%)" x1="411.056027268" x2="404.822259771" y1="321.255933409" y2="317.071237858" /><line stroke="rgb(0%,0%,0%)" x1="404.822259771" x2="400.881853393" y1="317.071237858" y2="314.606934384" /><line stroke="rgb(0%,0%,0%)" x1="400.881853393" x2="399.511549788" y1="314.606934384" y2="313.739781943" /><line stroke="rgb(0%,0%,0%)" x1="421.106204864" x2="420.387143455" y1="331.694347225" y2="330.959773223" /><line stroke="rgb(0%,0%,0%)" x1="416.675453916" x2="420.387143455" y1="327.229505317" y2="330.959773223" /><line stroke="rgb(0%,0%,0%)" x1="416.675453916" x2="411.42107297" y1="327.229505317" y2="321.552293445" /><line stroke="rgb(0%,0%,0%)" x1="356.062211276" x2="361.494225044" y1="643.962868787" y2="642.207767019" /><line stroke="rgb(0%,0%,0%)" x1="361.494225044" x2="367.813083792" y1="642.207767019" y2="640.821694187" /><line stroke="rgb(0%,0%,0%)" x1="367.813083792" x2="372.25194748" y1="640.821694187" y2="638.864423024" /><line stroke="rgb(0%,0%,0%)" x1="377.747911095" x2="376.841050558" y1="635.857970338" y2="636.359261012" /><line stroke="rgb(0%,0%,0%)" x1="372.25194748" x2="373.870075269" y1="638.864423024" y2="637.464358224" /><line stroke="rgb(0%,0%,0%)" x1="373.870075269" x2="376.841050558" y1="637.464358224" y2="636.359261012" /><line stroke="rgb(0%,0%,0%)" x1="321.219044096" x2="316.061707815" y1="912.701250473" y2="923.80615988" /><line stroke="rgb(0%,0%,0%)" x1="316.93359468" x2="316.701411146" y1="856.606387304" y2="855.830416901" /><line stroke="rgb(0%,0%,0%)" x1="316.93359468" x2="318.202961082" y1="856.606387304" y2="856.798941532" /><line stroke="rgb(0%,0%,0%)" x1="325.807374084" x2="325.482715128" y1="899.739257046" y2="901.028275193" /><line stroke="rgb(0%,0%,0%)" x1="325.807374084" x2="327.229117135" y1="899.739257046" y2="893.515421751" /><line stroke="rgb(0%,0%,0%)" x1="328.529512294" x2="328.863565" y1="887.379839568" y2="885.366311018" /><line stroke="rgb(0%,0%,0%)" x1="324.125908489" x2="324.734780373" y1="863.797613015" y2="864.917146338" /><line stroke="rgb(0%,0%,0%)" x1="330.066128386" x2="330.543940292" y1="651.856328254" y2="651.657816997" /><line stroke="rgb(0%,0%,0%)" x1="347.521235048" x2="333.865177183" y1="648.022927223" y2="651.071926612" /><line stroke="rgb(0%,0%,0%)" x1="331.650285031" x2="333.865177183" y1="651.512520937" y2="651.071926612" /><line stroke="rgb(0%,0%,0%)" x1="330.543940292" x2="331.650285031" y1="651.657816997" y2="651.512520937" /><line stroke="rgb(0%,0%,0%)" x1="347.521235048" x2="352.390455663" y1="648.022927223" y2="646.210885449" /><line stroke="rgb(0%,0%,0%)" x1="352.390455663" x2="352.686222189" y1="646.210885449" y2="645.580778096" /><line stroke="rgb(0%,0%,0%)" x1="352.686222189" x2="354.677001297" y1="645.580778096" y2="645.279555821" /><line stroke="rgb(0%,0%,0%)" x1="354.677001297" x2="356.05024912" y1="645.279555821" y2="643.972587457" /><line stroke="rgb(0%,0%,0%)" x1="274.543689833" x2="272.448147976" y1="277.578095067" y2="277.562110035" /><line stroke="rgb(0%,0%,0%)" x1="279.146141731" x2="280.975065664" y1="652.691522302" y2="652.967839884" /><line stroke="rgb(0%,0%,0%)" x1="289.745059852" x2="287.703048327" y1="278.403711244" y2="278.403277839" /><line stroke="rgb(0%,0%,0%)" x1="292.189967147" x2="293.037923291" y1="892.559832512" y2="882.828578819" /><line stroke="rgb(0%,0%,0%)" x1="292.189967147" x2="292.73437251" y1="892.559832512" y2="901.052789011" /><line stroke="rgb(0%,0%,0%)" x1="295.523824684" x2="297.793054556" y1="870.881326326" y2="866.329372506" /><line stroke="rgb(0%,0%,0%)" x1="300.141086935" x2="298.852154552" y1="276.942320245" y2="276.963957186" /><line stroke="rgb(0%,0%,0%)" x1="300.660345585" x2="297.938244152" y1="938.534666268" y2="939.966870318" /><line stroke="rgb(0%,0%,0%)" x1="306.014006386" x2="313.467414556" y1="933.573782945" y2="927.076919669" /><line stroke="rgb(0%,0%,0%)" x1="300.660345585" x2="306.014006386" y1="938.534666268" y2="933.573782945" /><line stroke="rgb(0%,0%,0%)" x1="302.084157026" x2="300.229588622" y1="860.186189247" y2="865.080655483" /><line stroke="rgb(0%,0%,0%)" x1="302.084157026" x2="302.121930866" y1="860.186189247" y2="858.997880526" /><line stroke="rgb(0%,0%,0%)" x1="300.229588622" x2="297.793054556" y1="865.080655483" y2="866.329372506" /><line stroke="rgb(0%,0%,0%)" x1="310.044846394" x2="304.168796586" y1="852.837257865" y2="854.314677589" /><line stroke="rgb(0%,0%,0%)" x1="310.180125018" x2="310.044846394" y1="852.714427534" y2="852.837257865" /><line stroke="rgb(0%,0%,0%)" x1="302.758590837" x2="302.121930866" y1="858.29670964" y2="858.997880526" /><line stroke="rgb(0%,0%,0%)" x1="303.348842879" x2="302.758590837" y1="854.573834907" y2="858.29670964" /><line stroke="rgb(0%,0%,0%)" x1="303.348842879" x2="304.168796586" y1="854.573834907" y2="854.314677589" /><line stroke="rgb(0%,0%,0%)" x1="301.612780206" x2="300.141086935" y1="276.459205767" y2="276.942320245" /><line stroke="rgb(0%,0%,0%)" x1="304.77861192" x2="301.612780206" y1="275.245227852" y2="276.459205767" /><line stroke="rgb(0%,0%,0%)" x1="313.467414556" x2="316.061707815" y1="927.076919669" y2="923.80615988" /><line stroke="rgb(0%,0%,0%)" x1="321.219044096" x2="325.482715128" y1="912.701250473" y2="901.028275193" /><line stroke="rgb(0%,0%,0%)" x1="321.980106988" x2="320.565282495" y1="859.909186286" y2="859.548333005" /><line stroke="rgb(0%,0%,0%)" x1="324.125908489" x2="321.980106988" y1="863.797613015" y2="859.909186286" /><line stroke="rgb(0%,0%,0%)" x1="320.565282495" x2="318.202961082" y1="859.548333005" y2="856.798941532" /><line stroke="rgb(0%,0%,0%)" x1="310.88058519" x2="310.180125018" y1="852.637709514" y2="852.714427534" /><line stroke="rgb(0%,0%,0%)" x1="315.513669499" x2="310.88058519" y1="855.316715082" y2="852.637709514" /><line stroke="rgb(0%,0%,0%)" x1="316.701411146" x2="315.513669499" y1="855.830416901" y2="855.316715082" /><line stroke="rgb(0%,0%,0%)" x1="327.229117135" x2="328.529512294" y1="893.515421751" y2="887.379839568" /><line stroke="rgb(0%,0%,0%)" x1="248.247177892" x2="245.065033887" y1="647.031634898" y2="646.448669993" /><line stroke="rgb(0%,0%,0%)" x1="248.247177892" x2="251.389697157" y1="647.031634898" y2="647.22612339" /><line stroke="rgb(0%,0%,0%)" x1="251.389697157" x2="255.286382529" y1="647.22612339" y2="648.011132221" /><line stroke="rgb(0%,0%,0%)" x1="255.286382529" x2="261.625539022" y1="648.011132221" y2="648.222490542" /><line stroke="rgb(0%,0%,0%)" x1="269.449426349" x2="262.532207391" y1="650.505304805" y2="648.393872769" /><line stroke="rgb(0%,0%,0%)" x1="269.449426349" x2="272.79149189" y1="650.505304805" y2="651.773952164" /><line stroke="rgb(0%,0%,0%)" x1="262.467072308" x2="262.532207391" y1="648.350171843" y2="648.393872769" /><line stroke="rgb(0%,0%,0%)" x1="262.182353403" x2="262.356619014" y1="648.320826848" y2="648.313177918" /><line stroke="rgb(0%,0%,0%)" x1="262.356619014" x2="262.467072308" y1="648.313177918" y2="648.350171843" /><line stroke="rgb(0%,0%,0%)" x1="275.735954828" x2="279.146141731" y1="652.460760416" y2="652.691522302" /><line stroke="rgb(0%,0%,0%)" x1="272.79149189" x2="275.735954828" y1="651.773952164" y2="652.460760416" /><line stroke="rgb(0%,0%,0%)" x1="295.805343589" x2="297.938244152" y1="940.504903713" y2="939.966870318" /><line stroke="rgb(0%,0%,0%)" x1="292.73437251" x2="292.242233194" y1="901.052789011" y2="907.070494697" /><line stroke="rgb(0%,0%,0%)" x1="293.92252686" x2="293.037923291" y1="879.08516839" y2="882.828578819" /><line stroke="rgb(0%,0%,0%)" x1="294.042961039" x2="293.92252686" y1="874.95034852" y2="879.08516839" /><line stroke="rgb(0%,0%,0%)" x1="295.523824684" x2="294.042961039" y1="870.881326326" y2="874.95034852" /><line stroke="rgb(0%,0%,0%)" x1="214.21557708" x2="214.275707119" y1="636.08772308" y2="636.11162181" /><line stroke="rgb(0%,0%,0%)" x1="230.999251384" x2="237.606642837" y1="641.572021085" y2="643.4550337" /><line stroke="rgb(0%,0%,0%)" x1="230.999251384" x2="226.382514598" y1="641.572021085" y2="640.57883323" /><line stroke="rgb(0%,0%,0%)" x1="222.628601595" x2="226.190440074" y1="639.611167674" y2="640.535733454" /><line stroke="rgb(0%,0%,0%)" x1="214.275707119" x2="222.628601595" y1="636.11162181" y2="639.611167674" /><line stroke="rgb(0%,0%,0%)" x1="241.660857539" x2="243.843137132" y1="645.263265894" y2="645.468531377" /><line stroke="rgb(0%,0%,0%)" x1="245.065033887" x2="243.843137132" y1="646.448669993" y2="645.468531377" /><line stroke="rgb(0%,0%,0%)" x1="237.606642837" x2="239.424719639" y1="643.4550337" y2="644.059403801" /><line stroke="rgb(0%,0%,0%)" x1="239.424719639" x2="241.660857539" y1="644.059403801" y2="645.263265894" /><line stroke="rgb(0%,0%,0%)" x1="261.625539022" x2="262.182353403" y1="648.222490542" y2="648.320826848" /><line stroke="rgb(0%,0%,0%)" x1="137.962636236" x2="136.661029914" y1="589.389525832" y2="587.6596468" /><line stroke="rgb(0%,0%,0%)" x1="137.962636236" x2="138.331835756" y1="589.389525832" y2="589.725385766" /><line stroke="rgb(0%,0%,0%)" x1="83.7541101947" x2="83.8907039731" y1="524.261772987" y2="524.411257736" /><line stroke="rgb(0%,0%,0%)" x1="127.240301167" x2="129.10888191" y1="574.504229676" y2="577.689045616" /><line stroke="rgb(0%,0%,0%)" x1="129.10888191" x2="133.403241235" y1="577.689045616" y2="582.130473034" /><line stroke="rgb(0%,0%,0%)" x1="127.240301167" x2="127.251002671" y1="574.504229676" y2="573.249723366" /><line stroke="rgb(0%,0%,0%)" x1="127.251002671" x2="127.795604378" y1="573.249723366" y2="570.785107058" /><line stroke="rgb(0%,0%,0%)" x1="123.192031594" x2="125.854279819" y1="559.531132691" y2="564.075686237" /><line stroke="rgb(0%,0%,0%)" x1="125.854279819" x2="127.795604378" y1="564.075686237" y2="570.785107058" /><line stroke="rgb(0%,0%,0%)" x1="119.254833869" x2="123.192031594" y1="556.738528638" y2="559.531132691" /><line stroke="rgb(0%,0%,0%)" x1="114.523609214" x2="119.254833869" y1="554.600186017" y2="556.738528638" /><line stroke="rgb(0%,0%,0%)" x1="110.900349532" x2="114.523609214" y1="552.366125711" y2="554.600186017" /><line stroke="rgb(0%,0%,0%)" x1="110.900349532" x2="104.870106531" y1="552.366125711" y2="547.667411859" /><line stroke="rgb(0%,0%,0%)" x1="135.19120735" x2="136.661029914" y1="585.301555446" y2="587.6596468" /><line stroke="rgb(0%,0%,0%)" x1="133.403241235" x2="135.19120735" y1="582.130473034" y2="585.301555446" /><line stroke="rgb(0%,0%,0%)" x1="58.311112119" x2="60.0258795849" y1="486.229767679" y2="496.07006702" /><line stroke="rgb(0%,0%,0%)" x1="59.4250794659" x2="60.2180575881" y1="481.84456966" y2="478.853279904" /><line stroke="rgb(0%,0%,0%)" x1="67.980832586" x2="68.6359850235" y1="467.875107413" y2="467.138280218" /><line stroke="rgb(0%,0%,0%)" x1="83.7541101947" x2="83.6162493947" y1="524.261772987" y2="524.109928873" /><line stroke="rgb(0%,0%,0%)" x1="70.7985468212" x2="75.3328791536" y1="510.111224723" y2="515.11794333" /><line stroke="rgb(0%,0%,0%)" x1="68.6217341158" x2="70.7985468212" y1="506.457558033" y2="510.111224723" /><line stroke="rgb(0%,0%,0%)" x1="68.6217341158" x2="61.3937829219" y1="506.457558033" y2="498.971850109" /><line stroke="rgb(0%,0%,0%)" x1="69.1921972138" x2="68.6359850235" y1="466.348001077" y2="467.138280218" /><line stroke="rgb(0%,0%,0%)" x1="69.1921972138" x2="70.3570540892" y1="466.348001077" y2="463.484559107" /><line stroke="rgb(0%,0%,0%)" x1="71.5045554034" x2="70.3570540892" y1="460.280284142" y2="463.484559107" /><line stroke="rgb(0%,0%,0%)" x1="79.5405270013" x2="83.6162493947" y1="519.237953864" y2="524.109928873" /><line stroke="rgb(0%,0%,0%)" x1="83.8907039731" x2="99.7662177653" y1="524.411257736" y2="541.14515558" /><line stroke="rgb(0%,0%,0%)" x1="99.7662177653" x2="104.870106531" y1="541.14515558" y2="547.667411859" /><line stroke="rgb(0%,0%,0%)" x1="59.4250794659" x2="58.311112119" y1="481.84456966" y2="486.229767679" /><line stroke="rgb(0%,0%,0%)" x1="60.373018354" x2="61.3937829219" y1="497.871781858" y2="498.971850109" /><line stroke="rgb(0%,0%,0%)" x1="60.2786235239" x2="60.373018354" y1="497.583829156" y2="497.871781858" /><line stroke="rgb(0%,0%,0%)" x1="60.0258795849" x2="60.2786235239" y1="496.07006702" y2="497.583829156" /><line stroke="rgb(0%,0%,0%)" x1="67.980832586" x2="60.2180575881" y1="467.875107413" y2="478.853279904" /><line stroke="rgb(0%,0%,0%)" x1="78.6951624681" x2="79.5405270013" y1="518.705591839" y2="519.237953864" /><line stroke="rgb(0%,0%,0%)" x1="75.3328791536" x2="78.6951624681" y1="515.11794333" y2="518.705591839" /><line stroke="rgb(0%,0%,0%)" x1="71.5134155724" x2="71.5045554034" y1="460.086905111" y2="460.280284142" /><line stroke="rgb(0%,0%,0%)" x1="438.565231189" x2="435.852596097" y1="588.011879981" y2="591.208608956" /><line stroke="rgb(0%,0%,0%)" x1="438.565231189" x2="439.837248728" y1="588.011879981" y2="585.141365051" /><line stroke="rgb(0%,0%,0%)" x1="442.628685404" x2="442.639137556" y1="574.864085329" y2="575.885608279" /><line stroke="rgb(0%,0%,0%)" x1="442.628685404" x2="444.210713976" y1="574.864085329" y2="570.65420384" /><line stroke="rgb(0%,0%,0%)" x1="444.210713976" x2="447.706530504" y1="570.65420384" y2="563.326121613" /><line stroke="rgb(0%,0%,0%)" x1="404.380666578" x2="399.518691025" y1="617.56089645" y2="619.761942301" /><line stroke="rgb(0%,0%,0%)" x1="411.315854536" x2="417.923007999" y1="614.082820386" y2="610.164177259" /><line stroke="rgb(0%,0%,0%)" x1="417.923007999" x2="419.754185786" y1="610.164177259" y2="608.677210821" /><line stroke="rgb(0%,0%,0%)" x1="419.754185786" x2="426.666651265" y1="608.677210821" y2="600.815449259" /><line stroke="rgb(0%,0%,0%)" x1="426.666651265" x2="427.399168399" y1="600.815449259" y2="600.191616674" /><line stroke="rgb(0%,0%,0%)" x1="427.399168399" x2="428.095253347" y1="600.191616674" y2="599.483942318" /><line stroke="rgb(0%,0%,0%)" x1="435.852596097" x2="431.727461686" y1="591.208608956" y2="595.465129943" /><line stroke="rgb(0%,0%,0%)" x1="428.095253347" x2="431.727461686" y1="599.483942318" y2="595.465129943" /><line stroke="rgb(0%,0%,0%)" x1="439.837248728" x2="442.639137556" y1="585.141365051" y2="575.885608279" /><line stroke="rgb(0%,0%,0%)" x1="394.397558857" x2="397.475617104" y1="623.076865461" y2="621.303734856" /><line stroke="rgb(0%,0%,0%)" x1="397.475617104" x2="399.518691025" y1="621.303734856" y2="619.761942301" /><line stroke="rgb(0%,0%,0%)" x1="404.380666578" x2="411.315854536" y1="617.56089645" y2="614.082820386" /><line stroke="rgb(0%,0%,0%)" x1="289.87428119" x2="291.787176517" y1="652.672614846" y2="652.032329109" /><line stroke="rgb(0%,0%,0%)" x1="304.673126968" x2="302.969949444" y1="649.689177397" y2="649.694056032" /><line stroke="rgb(0%,0%,0%)" x1="304.673126968" x2="306.205216448" y1="649.689177397" y2="649.96683707" /><line stroke="rgb(0%,0%,0%)" x1="291.787176517" x2="294.469237922" y1="652.032329109" y2="651.483785296" /><line stroke="rgb(0%,0%,0%)" x1="296.930121037" x2="294.469237922" y1="651.123811314" y2="651.483785296" /><line stroke="rgb(0%,0%,0%)" x1="296.930121037" x2="302.969949444" y1="651.123811314" y2="649.694056032" /><line stroke="rgb(0%,0%,0%)" x1="306.205216448" x2="308.475293609" y1="649.96683707" y2="649.451899033" /><line stroke="rgb(0%,0%,0%)" x1="310.393087588" x2="308.475293609" y1="649.943182198" y2="649.451899033" /><line stroke="rgb(0%,0%,0%)" x1="328.372330398" x2="328.863565" y1="883.940436999" y2="885.366311018" /><line stroke="rgb(0%,0%,0%)" x1="328.372330398" x2="327.539580856" y1="883.940436999" y2="874.064541288" /><line stroke="rgb(0%,0%,0%)" x1="327.081122296" x2="325.285709839" y1="870.952094869" y2="865.731580061" /><line stroke="rgb(0%,0%,0%)" x1="327.175809877" x2="327.081122296" y1="871.928866682" y2="870.952094869" /><line stroke="rgb(0%,0%,0%)" x1="324.734780373" x2="325.285709839" y1="864.917146338" y2="865.731580061" /><line stroke="rgb(0%,0%,0%)" x1="321.878385886" x2="322.523788743" y1="652.053193945" y2="652.137100832" /><line stroke="rgb(0%,0%,0%)" x1="311.955783477" x2="316.065832029" y1="650.145247049" y2="650.935716064" /><line stroke="rgb(0%,0%,0%)" x1="316.065832029" x2="321.878385886" y1="650.935716064" y2="652.053193945" /><line stroke="rgb(0%,0%,0%)" x1="311.955783477" x2="310.393087588" y1="650.145247049" y2="649.943182198" /><line stroke="rgb(0%,0%,0%)" x1="322.523788743" x2="323.856900798" y1="652.137100832" y2="652.047765037" /><line stroke="rgb(0%,0%,0%)" x1="325.524746586" x2="323.856900798" y1="652.114432129" y2="652.047765037" /><line stroke="rgb(0%,0%,0%)" x1="325.524746586" x2="330.066128386" y1="652.114432129" y2="651.856328254" /><line stroke="rgb(0%,0%,0%)" x1="327.391776685" x2="327.539580856" y1="872.092198872" y2="874.064541288" /><line stroke="rgb(0%,0%,0%)" x1="327.391776685" x2="327.175809877" y1="872.092198872" y2="871.928866682" /><line stroke="rgb(0%,0%,0%)" x1="280.975065664" x2="281.688347772" y1="652.967839884" y2="652.86873934" /><line stroke="rgb(0%,0%,0%)" x1="289.87428119" x2="285.631442064" y1="652.672614846" y2="652.83382821" /><line stroke="rgb(0%,0%,0%)" x1="281.688347772" x2="285.631442064" y1="652.86873934" y2="652.83382821" /><line stroke="rgb(0%,0%,0%)" x1="292.027031506" x2="289.227664406" y1="940.551141064" y2="939.993433433" /><line stroke="rgb(0%,0%,0%)" x1="292.027031506" x2="293.506852232" y1="940.551141064" y2="940.246795946" /><line stroke="rgb(0%,0%,0%)" x1="293.506852232" x2="295.617824916" y1="940.246795946" y2="940.532906397" /><line stroke="rgb(0%,0%,0%)" x1="295.617824916" x2="295.805343589" y1="940.532906397" y2="940.504903713" /><line stroke="rgb(0%,0%,0%)" x1="288.600759802" x2="289.227664406" y1="938.835986438" y2="939.993433433" /><line stroke="rgb(0%,0%,0%)" x1="287.76437245" x2="288.600759802" y1="936.059811754" y2="938.835986438" /><line stroke="rgb(0%,0%,0%)" x1="287.578886131" x2="287.76437245" y1="935.188458628" y2="936.059811754" /><line stroke="rgb(0%,0%,0%)" x1="288.023637606" x2="287.652789276" y1="926.869046152" y2="932.700403377" /><line stroke="rgb(0%,0%,0%)" x1="287.652789276" x2="287.578886131" y1="932.700403377" y2="935.188458628" /><line stroke="rgb(0%,0%,0%)" x1="290.079717545" x2="288.023637606" y1="919.333673229" y2="926.869046152" /><line stroke="rgb(0%,0%,0%)" x1="291.108723475" x2="290.079717545" y1="916.202743032" y2="919.333673229" /><line stroke="rgb(0%,0%,0%)" x1="291.108723475" x2="291.944030999" y1="916.202743032" y2="911.046648346" /><line stroke="rgb(0%,0%,0%)" x1="292.242233194" x2="291.944030999" y1="907.070494697" y2="911.046648346" /><line stroke="rgb(0%,0%,0%)" x1="165.439044378" x2="184.563430962" y1="612.114089651" y2="624.032765915" /><line stroke="rgb(0%,0%,0%)" x1="195.619019982" x2="198.517203914" y1="628.359493155" y2="629.42040302" /><line stroke="rgb(0%,0%,0%)" x1="198.517203914" x2="202.99066849" y1="629.42040302" y2="630.768555171" /><line stroke="rgb(0%,0%,0%)" x1="226.190440074" x2="226.229393438" y1="640.535733454" y2="640.548920934" /><line stroke="rgb(0%,0%,0%)" x1="214.21557708" x2="214.179736315" y1="636.08772308" y2="636.073463889" /><line stroke="rgb(0%,0%,0%)" x1="204.908661858" x2="214.179736315" y1="632.160604578" y2="636.073463889" /><line stroke="rgb(0%,0%,0%)" x1="202.99066849" x2="204.908661858" y1="630.768555171" y2="632.160604578" /><line stroke="rgb(0%,0%,0%)" x1="226.269375369" x2="226.382514598" y1="640.559966855" y2="640.57883323" /><line stroke="rgb(0%,0%,0%)" x1="226.229393438" x2="226.269375369" y1="640.548920934" y2="640.559966855" /><line stroke="rgb(0%,0%,0%)" x1="138.331835756" x2="141.238548927" y1="589.725385766" y2="592.259315548" /><line stroke="rgb(0%,0%,0%)" x1="141.753576176" x2="141.238548927" y1="592.699650672" y2="592.259315548" /><line stroke="rgb(0%,0%,0%)" x1="156.019483108" x2="159.688846611" y1="605.402660209" y2="608.384547313" /><line stroke="rgb(0%,0%,0%)" x1="144.345224361" x2="156.019483108" y1="594.968304792" y2="605.402660209" /><line stroke="rgb(0%,0%,0%)" x1="141.753576176" x2="144.345224361" y1="592.699650672" y2="594.968304792" /><line stroke="rgb(0%,0%,0%)" x1="184.563430962" x2="186.830428563" y1="624.032765915" y2="625.395051689" /><line stroke="rgb(0%,0%,0%)" x1="163.730371493" x2="165.439044378" y1="610.822502919" y2="612.114089651" /><line stroke="rgb(0%,0%,0%)" x1="159.688846611" x2="163.730371493" y1="608.384547313" y2="610.822502919" /><line stroke="rgb(0%,0%,0%)" x1="71.1724432673" x2="71.522233005" y1="456.853121929" y2="458.70000665" /><line stroke="rgb(0%,0%,0%)" x1="71.3387555801" x2="71.1724432673" y1="456.542695716" y2="456.853121929" /><line stroke="rgb(0%,0%,0%)" x1="71.4549157384" x2="71.5134155724" y1="459.481086392" y2="460.086905111" /><line stroke="rgb(0%,0%,0%)" x1="71.522233005" x2="71.4549157384" y1="458.70000665" y2="459.481086392" /><line stroke="rgb(0%,0%,0%)" x1="195.619019982" x2="186.830428563" y1="628.359493155" y2="625.395051689" /></svg>