<?xml version="1.0" encoding="utf-8" ?>
<svg baseProfile="full" height="100%" version="1.1" viewBox="0.5 0.5 685.793960571 941.299331665" width="100%" xmlns="http://www.w3.org/2000/svg" xmlns:ev="http://www.w3.org/2001/xml-events" xmlns:xlink="http://www.w3.org/1999/xlink"><defs /><line stroke="rgb(0%,0%,0%)" x1="476.809213385" x2="478.877986336" y1="416.154816331" y2="419.792732267" /><line stroke="rgb(0%,0%,0%)" x1="476.809213385" x2="473.753333096" y1="416.154816331" y2="411.487910704" /><line stroke="rgb(0%,0%,0%)" x1="487.414548289" x2="484.31238525" y1="454.775451013" y2="440.725406251" /><line stroke="rgb(0%,0%,0%)" x1="484.31238525" x2="484.230111802" y1="440.725406251" y2="440.275712956" /><line stroke="rgb(0%,0%,0%)" x1="484.230111802" x2="484.10168342" y1="440.275712956" y2="439.843744662" /><line stroke="rgb(0%,0%,0%)" x1="486.337902932" x2="487.421772353" y1="464.701001912" y2="456.6666537" /><line stroke="rgb(0%,0%,0%)" x1="487.414548289" x2="487.421772353" y1="454.775451013" y2="456.6666537" /><line stroke="rgb(0%,0%,0%)" x1="442.558624871" x2="447.474402616" y1="373.419128567" y2="377.624430175" /><line stroke="rgb(0%,0%,0%)" x1="454.35554154" x2="459.421536523" y1="385.132286789" y2="391.515455641" /><line stroke="rgb(0%,0%,0%)" x1="473.753333096" x2="470.604598399" y1="411.487910704" y2="407.720386603" /><line stroke="rgb(0%,0%,0%)" x1="470.604598399" x2="461.75720999" y1="407.720386603" y2="394.567705881" /><line stroke="rgb(0%,0%,0%)" x1="484.10168342" x2="482.827094959" y1="439.843744662" y2="433.607173743" /><line stroke="rgb(0%,0%,0%)" x1="482.827094959" x2="478.877986336" y1="433.607173743" y2="419.792732267" /><line stroke="rgb(0%,0%,0%)" x1="440.144846243" x2="438.300314346" y1="370.230411724" y2="367.948918786" /><line stroke="rgb(0%,0%,0%)" x1="451.190130046" x2="447.474402616" y1="381.633456476" y2="377.624430175" /><line stroke="rgb(0%,0%,0%)" x1="442.558624871" x2="440.144846243" y1="373.419128567" y2="370.230411724" /><line stroke="rgb(0%,0%,0%)" x1="461.75720999" x2="459.421536523" y1="394.567705881" y2="391.515455641" /><line stroke="rgb(0%,0%,0%)" x1="383.781512163" x2="380.886607377" y1="307.723402295" y2="305.221620193" /><line stroke="rgb(0%,0%,0%)" x1="377.806845238" x2="380.704336882" y1="302.629627676" y2="305.061739567" /><line stroke="rgb(0%,0%,0%)" x1="452.388415681" x2="451.190130046" y1="382.54719966" y2="381.633456476" /><line stroke="rgb(0%,0%,0%)" x1="454.35554154" x2="452.388415681" y1="385.132286789" y2="382.54719966" /><line stroke="rgb(0%,0%,0%)" x1="338.711260806" x2="341.273642278" y1="281.043801444" y2="282.145145116" /><line stroke="rgb(0%,0%,0%)" x1="336.703367998" x2="338.711260806" y1="280.57357206" y2="281.043801444" /><line stroke="rgb(0%,0%,0%)" x1="358.492081348" x2="352.189044288" y1="289.173802584" y2="286.33190105" /><line stroke="rgb(0%,0%,0%)" x1="352.189044288" x2="348.002936169" y1="286.33190105" y2="285.185666065" /><line stroke="rgb(0%,0%,0%)" x1="341.273642278" x2="344.622529404" y1="282.145145116" y2="284.130390872" /><line stroke="rgb(0%,0%,0%)" x1="361.296112556" x2="364.490363151" y1="290.118171394" y2="292.095140603" /><line stroke="rgb(0%,0%,0%)" x1="359.886227137" x2="361.296112556" y1="289.496010892" y2="290.118171394" /><line stroke="rgb(0%,0%,0%)" x1="359.886227137" x2="358.492081348" y1="289.496010892" y2="289.173802584" /><line stroke="rgb(0%,0%,0%)" x1="377.346446574" x2="373.410811616" y1="302.136410666" y2="298.846210864" /><line stroke="rgb(0%,0%,0%)" x1="373.410811616" x2="371.036527712" y1="298.846210864" y2="297.354185361" /><line stroke="rgb(0%,0%,0%)" x1="377.806845238" x2="377.346446574" y1="302.629627676" y2="302.136410666" /><line stroke="rgb(0%,0%,0%)" x1="371.036527712" x2="364.490363151" y1="297.354185361" y2="292.095140603" /><line stroke="rgb(0%,0%,0%)" x1="314.252282545" x2="311.399187088" y1="276.033466301" y2="275.829843996" /><line stroke="rgb(0%,0%,0%)" x1="311.399187088" x2="310.255088173" y1="275.829843996" y2="275.954324157" /><line stroke="rgb(0%,0%,0%)" x1="314.252282545" x2="315.77301601" y1="276.033466301" y2="276.239275437" /><line stroke="rgb(0%,0%,0%)" x1="324.625484673" x2="320.20107021" y1="277.123163372" y2="276.286248773" /><line stroke="rgb(0%,0%,0%)" x1="320.20107021" x2="318.792841432" y1="276.286248773" y2="276.567216081" /><line stroke="rgb(0%,0%,0%)" x1="335.15895077" x2="333.463825648" y1="278.98437819" y2="278.605063806" /><line stroke="rgb(0%,0%,0%)" x1="333.463825648" x2="324.625484673" y1="278.605063806" y2="277.123163372" /><line stroke="rgb(0%,0%,0%)" x1="336.703367998" x2="335.15895077" y1="280.57357206" y2="278.98437819" /><line stroke="rgb(0%,0%,0%)" x1="345.673932231" x2="344.942462679" y1="284.759171666" y2="284.307788593" /><line stroke="rgb(0%,0%,0%)" x1="348.002936169" x2="345.673932231" y1="285.185666065" y2="284.759171666" /><line stroke="rgb(0%,0%,0%)" x1="344.942462679" x2="344.622529404" y1="284.307788593" y2="284.130390872" /><line stroke="rgb(0%,0%,0%)" x1="284.889570809" x2="283.405247265" y1="279.635162878" y2="279.114196211" /><line stroke="rgb(0%,0%,0%)" x1="292.717029569" x2="291.994944157" y1="280.261422621" y2="280.350408998" /><line stroke="rgb(0%,0%,0%)" x1="318.792841432" x2="318.655100681" y1="276.567216081" y2="276.578016738" /><line stroke="rgb(0%,0%,0%)" x1="262.047301148" x2="258.324098994" y1="280.736457018" y2="282.265294897" /><line stroke="rgb(0%,0%,0%)" x1="263.417554378" x2="262.047301148" y1="280.441535286" y2="280.736457018" /><line stroke="rgb(0%,0%,0%)" x1="258.324098994" x2="255.882119888" y1="282.265294897" y2="282.253847138" /><line stroke="rgb(0%,0%,0%)" x1="265.576561817" x2="263.417554378" y1="280.109905644" y2="280.441535286" /><line stroke="rgb(0%,0%,0%)" x1="272.187263156" x2="268.099890701" y1="278.934595583" y2="279.655936582" /><line stroke="rgb(0%,0%,0%)" x1="268.099890701" x2="265.576561817" y1="279.655936582" y2="280.109905644" /><line stroke="rgb(0%,0%,0%)" x1="218.461091019" x2="227.346578733" y1="285.664976254" y2="283.941599762" /><line stroke="rgb(0%,0%,0%)" x1="212.748607433" x2="202.422387274" y1="287.996933626" y2="289.407258713" /><line stroke="rgb(0%,0%,0%)" x1="218.461091019" x2="212.748607433" y1="285.664976254" y2="287.996933626" /><line stroke="rgb(0%,0%,0%)" x1="237.644565748" x2="246.525228018" y1="283.635457892" y2="282.416979134" /><line stroke="rgb(0%,0%,0%)" x1="237.644565748" x2="233.387399819" y1="283.635457892" y2="283.222286028" /><line stroke="rgb(0%,0%,0%)" x1="233.387399819" x2="232.084396141" y1="283.222286028" y2="283.778252826" /><line stroke="rgb(0%,0%,0%)" x1="253.390369385" x2="246.541117915" y1="282.927960161" y2="282.428874929" /><line stroke="rgb(0%,0%,0%)" x1="246.541117915" x2="246.525228018" y1="282.428874929" y2="282.416979134" /><line stroke="rgb(0%,0%,0%)" x1="255.882119888" x2="253.390369385" y1="282.253847138" y2="282.927960161" /><line stroke="rgb(0%,0%,0%)" x1="180.756767219" x2="177.233262822" y1="294.213685303" y2="296.687174896" /><line stroke="rgb(0%,0%,0%)" x1="180.756767219" x2="182.254857335" y1="294.213685303" y2="293.508552356" /><line stroke="rgb(0%,0%,0%)" x1="187.543894684" x2="182.254857335" y1="292.265026504" y2="293.508552356" /><line stroke="rgb(0%,0%,0%)" x1="187.543894684" x2="198.662285668" y1="292.265026504" y2="290.52575197" /><line stroke="rgb(0%,0%,0%)" x1="202.422387274" x2="200.338382556" y1="289.407258713" y2="290.334713325" /><line stroke="rgb(0%,0%,0%)" x1="232.084396141" x2="227.346578733" y1="283.778252826" y2="283.941599762" /><line stroke="rgb(0%,0%,0%)" x1="134.880909701" x2="135.975998304" y1="333.640570152" y2="331.759508858" /><line stroke="rgb(0%,0%,0%)" x1="148.762443934" x2="139.553890221" y1="319.889213144" y2="328.165681349" /><line stroke="rgb(0%,0%,0%)" x1="148.762443934" x2="151.50284464" y1="319.889213144" y2="317.245767965" /><line stroke="rgb(0%,0%,0%)" x1="163.688006386" x2="151.50284464" y1="307.194055985" y2="317.245767965" /><line stroke="rgb(0%,0%,0%)" x1="166.143499892" x2="163.688006386" y1="305.315843387" y2="307.194055985" /><line stroke="rgb(0%,0%,0%)" x1="177.233262822" x2="166.143499892" y1="296.687174896" y2="305.315843387" /><line stroke="rgb(0%,0%,0%)" x1="200.338382556" x2="198.662285668" y1="290.334713325" y2="290.52575197" /><line stroke="rgb(0%,0%,0%)" x1="106.531559491" x2="106.794704143" y1="370.52596053" y2="370.292431111" /><line stroke="rgb(0%,0%,0%)" x1="120.945753053" x2="121.221341083" y1="350.71230679" y2="351.545751897" /><line stroke="rgb(0%,0%,0%)" x1="120.945753053" x2="121.092267054" y1="350.71230679" y2="349.157772333" /><line stroke="rgb(0%,0%,0%)" x1="118.979658983" x2="118.987609836" y1="363.037586174" y2="363.02092297" /><line stroke="rgb(0%,0%,0%)" x1="132.547164402" x2="129.503850531" y1="334.577599564" y2="337.078090435" /><line stroke="rgb(0%,0%,0%)" x1="136.523608524" x2="135.975998304" y1="331.060944241" y2="331.759508858" /><line stroke="rgb(0%,0%,0%)" x1="134.880909701" x2="132.547164402" y1="333.640570152" y2="334.577599564" /><line stroke="rgb(0%,0%,0%)" x1="81.8674593485" x2="89.1791730049" y1="403.052082334" y2="393.418104007" /><line stroke="rgb(0%,0%,0%)" x1="102.088514321" x2="101.405520333" y1="376.848660346" y2="377.321358183" /><line stroke="rgb(0%,0%,0%)" x1="101.405520333" x2="99.3954041093" y1="377.321358183" y2="379.971377691" /><line stroke="rgb(0%,0%,0%)" x1="106.531559491" x2="102.088514321" y1="370.52596053" y2="376.848660346" /><line stroke="rgb(0%,0%,0%)" x1="118.979658983" x2="106.794704143" y1="363.037586174" y2="370.292431111" /><line stroke="rgb(0%,0%,0%)" x1="120.868844648" x2="118.987609836" y1="358.865789285" y2="363.02092297" /><line stroke="rgb(0%,0%,0%)" x1="121.221341083" x2="122.772373728" y1="351.545751897" y2="352.736362076" /><line stroke="rgb(0%,0%,0%)" x1="122.772373728" x2="120.868844648" y1="352.736362076" y2="358.865789285" /><line stroke="rgb(0%,0%,0%)" x1="122.094790796" x2="121.092267054" y1="345.345988379" y2="349.157772333" /><line stroke="rgb(0%,0%,0%)" x1="122.094790796" x2="126.410109662" y1="345.345988379" y2="340.063036823" /><line stroke="rgb(0%,0%,0%)" x1="129.503850531" x2="126.410109662" y1="337.078090435" y2="340.063036823" /><line stroke="rgb(0%,0%,0%)" x1="136.816766014" x2="136.523608524" y1="330.691438953" y2="331.060944241" /><line stroke="rgb(0%,0%,0%)" x1="139.553890221" x2="136.816766014" y1="328.165681349" y2="330.691438953" /><line stroke="rgb(0%,0%,0%)" x1="72.4993463265" x2="72.0522474574" y1="447.82696024" y2="447.013140266" /><line stroke="rgb(0%,0%,0%)" x1="72.4993463265" x2="73.8990250775" y1="447.82696024" y2="451.974166509" /><line stroke="rgb(0%,0%,0%)" x1="72.0522474574" x2="71.1498116823" y1="447.013140266" y2="443.949876457" /><line stroke="rgb(0%,0%,0%)" x1="66.3810352316" x2="71.1498116823" y1="432.835902928" y2="443.949876457" /><line stroke="rgb(0%,0%,0%)" x1="66.3810352316" x2="66.2713612909" y1="432.835902928" y2="429.263056669" /><line stroke="rgb(0%,0%,0%)" x1="73.8990250775" x2="74.5577979006" y1="451.974166509" y2="455.95060096" /><line stroke="rgb(0%,0%,0%)" x1="81.8674593485" x2="77.5308122067" y1="403.052082334" y2="408.197509069" /><line stroke="rgb(0%,0%,0%)" x1="77.5308122067" x2="74.6403840445" y1="408.197509069" y2="410.715970534" /><line stroke="rgb(0%,0%,0%)" x1="91.2639031246" x2="89.1791730049" y1="391.122390099" y2="393.418104007" /><line stroke="rgb(0%,0%,0%)" x1="93.0088595163" x2="91.2639031246" y1="388.270070066" y2="391.122390099" /><line stroke="rgb(0%,0%,0%)" x1="99.3954041093" x2="93.0088595163" y1="379.971377691" y2="388.270070066" /><line stroke="rgb(0%,0%,0%)" x1="65.9507693045" x2="66.2713612909" y1="426.019524889" y2="429.263056669" /><line stroke="rgb(0%,0%,0%)" x1="65.9507693045" x2="67.5862320095" y1="426.019524889" y2="419.602966804" /><line stroke="rgb(0%,0%,0%)" x1="74.6403840445" x2="68.2442538059" y1="410.715970534" y2="417.937061853" /><line stroke="rgb(0%,0%,0%)" x1="68.2442538059" x2="67.5862320095" y1="417.937061853" y2="419.602966804" /><line stroke="rgb(0%,0%,0%)" x1="475.592406322" x2="473.513070732" y1="520.101620433" y2="523.313450575" /><line stroke="rgb(0%,0%,0%)" x1="475.844419335" x2="475.592406322" y1="519.647920794" y2="520.101620433" /><line stroke="rgb(0%,0%,0%)" x1="486.082658088" x2="484.902524765" y1="485.197269251" y2="490.897250842" /><line stroke="rgb(0%,0%,0%)" x1="486.082658088" x2="486.8529681" y1="485.197269251" y2="482.930138482" /><line stroke="rgb(0%,0%,0%)" x1="430.265135185" x2="429.813123136" y1="354.413784318" y2="352.480741998" /><line stroke="rgb(0%,0%,0%)" x1="458.897932359" x2="456.751376057" y1="547.365204492" y2="549.120783321" /><line stroke="rgb(0%,0%,0%)" x1="458.897932359" x2="459.682683722" y1="547.365204492" y2="545.999878888" /><line stroke="rgb(0%,0%,0%)" x1="466.518162072" x2="473.513070732" y1="534.261877586" y2="523.313450575" /><line stroke="rgb(0%,0%,0%)" x1="475.844419335" x2="475.924949371" y1="519.647920794" y2="519.448155133" /><line stroke="rgb(0%,0%,0%)" x1="475.924949371" x2="476.53291701" y1="519.448155133" y2="516.301959606" /><line stroke="rgb(0%,0%,0%)" x1="481.533294783" x2="476.53291701" y1="505.505950973" y2="516.301959606" /><line stroke="rgb(0%,0%,0%)" x1="481.533294783" x2="483.737511239" y1="505.505950973" y2="497.658452002" /><line stroke="rgb(0%,0%,0%)" x1="483.737511239" x2="484.902524765" y1="497.658452002" y2="490.897250842" /><line stroke="rgb(0%,0%,0%)" x1="486.8529681" x2="487.35450481" y1="482.930138482" y2="475.299747995" /><line stroke="rgb(0%,0%,0%)" x1="487.35450481" x2="486.99332639" y1="475.299747995" y2="469.055429278" /><line stroke="rgb(0%,0%,0%)" x1="486.337902932" x2="486.99332639" y1="464.701001912" y2="469.055429278" /><line stroke="rgb(0%,0%,0%)" x1="430.265135185" x2="430.877704792" y1="354.413784318" y2="356.740573377" /><line stroke="rgb(0%,0%,0%)" x1="429.162483505" x2="426.06383977" y1="352.064661299" y2="343.180095162" /><line stroke="rgb(0%,0%,0%)" x1="429.162483505" x2="429.813123136" y1="352.064661299" y2="352.480741998" /><line stroke="rgb(0%,0%,0%)" x1="422.092466051" x2="422.569430487" y1="336.720277564" y2="337.129533991" /><line stroke="rgb(0%,0%,0%)" x1="426.06383977" x2="422.569430487" y1="343.180095162" y2="337.129533991" /><line stroke="rgb(0%,0%,0%)" x1="422.092466051" x2="420.936537308" y1="336.720277564" y2="335.458240079" /><line stroke="rgb(0%,0%,0%)" x1="436.184619848" x2="438.300314346" y1="364.05847195" y2="367.948918786" /><line stroke="rgb(0%,0%,0%)" x1="436.184619848" x2="433.500774045" y1="364.05847195" y2="360.781924495" /><line stroke="rgb(0%,0%,0%)" x1="433.500774045" x2="430.877704792" y1="360.781924495" y2="356.740573377" /><line stroke="rgb(0%,0%,0%)" x1="444.049405793" x2="445.672071629" y1="563.302429129" y2="560.769620178" /><line stroke="rgb(0%,0%,0%)" x1="456.751376057" x2="452.155669228" y1="549.120783321" y2="554.519725034" /><line stroke="rgb(0%,0%,0%)" x1="445.672071629" x2="452.155669228" y1="560.769620178" y2="554.519725034" /><line stroke="rgb(0%,0%,0%)" x1="459.682683722" x2="463.852063193" y1="545.999878888" y2="538.721069486" /><line stroke="rgb(0%,0%,0%)" x1="463.852063193" x2="465.926315102" y1="538.721069486" y2="534.921500506" /><line stroke="rgb(0%,0%,0%)" x1="466.215638692" x2="466.518162072" y1="534.550994674" y2="534.261877586" /><line stroke="rgb(0%,0%,0%)" x1="396.389375354" x2="391.25668926" y1="313.93477132" y2="311.837283942" /><line stroke="rgb(0%,0%,0%)" x1="385.787691687" x2="388.390305101" y1="308.696240855" y2="310.527304462" /><line stroke="rgb(0%,0%,0%)" x1="385.787691687" x2="383.781512163" y1="308.696240855" y2="307.723402295" /><line stroke="rgb(0%,0%,0%)" x1="401.977764103" x2="405.827608918" y1="317.453906887" y2="320.038287597" /><line stroke="rgb(0%,0%,0%)" x1="401.977764103" x2="399.648182906" y1="317.453906887" y2="315.997002576" /><line stroke="rgb(0%,0%,0%)" x1="399.648182906" x2="396.389375354" y1="315.997002576" y2="313.93477132" /><line stroke="rgb(0%,0%,0%)" x1="420.936537308" x2="417.610330796" y1="335.458240079" y2="332.060276009" /><line stroke="rgb(0%,0%,0%)" x1="415.457387986" x2="417.610330796" y1="329.896556932" y2="332.060276009" /><line stroke="rgb(0%,0%,0%)" x1="415.457387986" x2="412.251884201" y1="329.896556932" y2="326.433099612" /><line stroke="rgb(0%,0%,0%)" x1="408.175540253" x2="405.827608918" y1="322.279761391" y2="320.038287597" /><line stroke="rgb(0%,0%,0%)" x1="465.926315102" x2="466.215638692" y1="534.921500506" y2="534.550994674" /><line stroke="rgb(0%,0%,0%)" x1="360.642268971" x2="358.49605586" y1="641.226502142" y2="641.919950757" /><line stroke="rgb(0%,0%,0%)" x1="360.642268971" x2="363.130134662" y1="641.226502142" y2="640.680776533" /><line stroke="rgb(0%,0%,0%)" x1="363.130134662" x2="371.58899391" y1="640.680776533" y2="636.950929788" /><line stroke="rgb(0%,0%,0%)" x1="371.58899391" x2="374.672556771" y1="636.950929788" y2="634.282915648" /><line stroke="rgb(0%,0%,0%)" x1="374.672556771" x2="377.384025441" y1="634.282915648" y2="633.274345675" /><line stroke="rgb(0%,0%,0%)" x1="380.886607377" x2="380.704336882" y1="305.221620193" y2="305.061739567" /><line stroke="rgb(0%,0%,0%)" x1="377.384025441" x2="377.795344827" y1="633.274345675" y2="632.990213004" /><line stroke="rgb(0%,0%,0%)" x1="377.795344827" x2="385.892073295" y1="632.990213004" y2="626.41478466" /><line stroke="rgb(0%,0%,0%)" x1="385.892073295" x2="387.169146061" y1="626.41478466" y2="625.627405236" /><line stroke="rgb(0%,0%,0%)" x1="387.169146061" x2="387.852760722" y1="625.627405236" y2="624.971173615" /><line stroke="rgb(0%,0%,0%)" x1="391.25668926" x2="388.390305101" y1="311.837283942" y2="310.527304462" /><line stroke="rgb(0%,0%,0%)" x1="412.251884201" x2="408.978616168" y1="326.433099612" y2="323.071477484" /><line stroke="rgb(0%,0%,0%)" x1="408.978616168" x2="408.175540253" y1="323.071477484" y2="322.279761391" /><line stroke="rgb(0%,0%,0%)" x1="318.655100681" x2="315.77301601" y1="276.578016738" y2="276.239275437" /><line stroke="rgb(0%,0%,0%)" x1="332.363848824" x2="331.951037638" y1="648.324023849" y2="648.495529972" /><line stroke="rgb(0%,0%,0%)" x1="347.793985489" x2="346.440608044" y1="645.53861126" y2="645.840780966" /><line stroke="rgb(0%,0%,0%)" x1="337.052989955" x2="346.440608044" y1="647.708199772" y2="645.840780966" /><line stroke="rgb(0%,0%,0%)" x1="332.363848824" x2="337.052989955" y1="648.324023849" y2="647.708199772" /><line stroke="rgb(0%,0%,0%)" x1="347.793985489" x2="348.276547398" y1="645.53861126" y2="645.359029678" /><line stroke="rgb(0%,0%,0%)" x1="348.276547398" x2="348.897693047" y1="645.359029678" y2="644.035727658" /><line stroke="rgb(0%,0%,0%)" x1="348.897693047" x2="353.078571122" y1="644.035727658" y2="643.403124271" /><line stroke="rgb(0%,0%,0%)" x1="353.078571122" x2="353.396655642" y1="643.403124271" y2="643.10039202" /><line stroke="rgb(0%,0%,0%)" x1="353.396655642" x2="358.49605586" y1="643.10039202" y2="641.919950757" /><line stroke="rgb(0%,0%,0%)" x1="272.187263156" x2="274.789048594" y1="278.934595583" y2="278.954442298" /><line stroke="rgb(0%,0%,0%)" x1="287.451877546" x2="284.889570809" y1="280.253611841" y2="279.635162878" /><line stroke="rgb(0%,0%,0%)" x1="287.451877546" x2="290.430729455" y1="280.253611841" y2="280.128603007" /><line stroke="rgb(0%,0%,0%)" x1="280.354599746" x2="283.011784466" y1="278.373295944" y2="278.946231784" /><line stroke="rgb(0%,0%,0%)" x1="280.354599746" x2="275.519384926" y1="278.373295944" y2="278.893747798" /><line stroke="rgb(0%,0%,0%)" x1="291.994944157" x2="290.430729455" y1="280.350408998" y2="280.128603007" /><line stroke="rgb(0%,0%,0%)" x1="296.987025851" x2="293.857326417" y1="279.164640091" y2="279.985841339" /><line stroke="rgb(0%,0%,0%)" x1="292.717029569" x2="293.857326417" y1="280.261422621" y2="279.985841339" /><line stroke="rgb(0%,0%,0%)" x1="300.844676718" x2="296.987025851" y1="279.099882804" y2="279.164640091" /><line stroke="rgb(0%,0%,0%)" x1="305.498827425" x2="304.456071946" y1="932.951060809" y2="933.859992619" /><line stroke="rgb(0%,0%,0%)" x1="305.191905398" x2="304.169852244" y1="869.513631747" y2="870.347329708" /><line stroke="rgb(0%,0%,0%)" x1="308.580044032" x2="308.139627471" y1="868.044596831" y2="868.44448641" /><line stroke="rgb(0%,0%,0%)" x1="307.850334614" x2="305.552600792" y1="276.814252058" y2="277.554407043" /><line stroke="rgb(0%,0%,0%)" x1="300.844676718" x2="305.552600792" y1="279.099882804" y2="277.554407043" /><line stroke="rgb(0%,0%,0%)" x1="310.255088173" x2="307.850334614" y1="275.954324157" y2="276.814252058" /><line stroke="rgb(0%,0%,0%)" x1="305.498827425" x2="307.210572537" y1="932.951060809" y2="930.792975149" /><line stroke="rgb(0%,0%,0%)" x1="314.235297579" x2="315.829321767" y1="921.90628481" y2="919.065920493" /><line stroke="rgb(0%,0%,0%)" x1="318.949004836" x2="315.829321767" y1="911.550701343" y2="919.065920493" /><line stroke="rgb(0%,0%,0%)" x1="321.171068036" x2="321.137710604" y1="904.959772687" y2="904.677145369" /><line stroke="rgb(0%,0%,0%)" x1="318.949004836" x2="321.171068036" y1="911.550701343" y2="904.959772687" /><line stroke="rgb(0%,0%,0%)" x1="321.539809894" x2="321.551516734" y1="899.788690511" y2="900.6838583" /><line stroke="rgb(0%,0%,0%)" x1="308.580044032" x2="310.113543482" y1="868.044596831" y2="867.876640043" /><line stroke="rgb(0%,0%,0%)" x1="321.539809894" x2="321.59260447" y1="899.788690511" y2="899.571161345" /><line stroke="rgb(0%,0%,0%)" x1="265.39466585" x2="263.936953574" y1="647.61026786" y2="647.165311525" /><line stroke="rgb(0%,0%,0%)" x1="265.39466585" x2="272.71351274" y1="647.61026786" y2="650.388500563" /><line stroke="rgb(0%,0%,0%)" x1="263.936953574" x2="262.54893094" y1="647.165311525" y2="646.23404883" /><line stroke="rgb(0%,0%,0%)" x1="272.71351274" x2="276.75538289" y1="650.388500563" y2="651.33128362" /><line stroke="rgb(0%,0%,0%)" x1="283.405247265" x2="283.011784466" y1="279.114196211" y2="278.946231784" /><line stroke="rgb(0%,0%,0%)" x1="275.224485372" x2="274.789048594" y1="278.903170928" y2="278.954442298" /><line stroke="rgb(0%,0%,0%)" x1="275.519384926" x2="275.224485372" y1="278.893747798" y2="278.903170928" /><line stroke="rgb(0%,0%,0%)" x1="304.456071946" x2="304.005211825" y1="933.859992619" y2="934.134003756" /><line stroke="rgb(0%,0%,0%)" x1="307.210572537" x2="314.235297579" y1="930.792975149" y2="921.90628481" /><line stroke="rgb(0%,0%,0%)" x1="129.053929353" x2="129.536881959" y1="562.135207765" y2="562.959625247" /><line stroke="rgb(0%,0%,0%)" x1="129.536881959" x2="130.45674412" y1="562.959625247" y2="566.138765134" /><line stroke="rgb(0%,0%,0%)" x1="120.141696824" x2="129.053929353" y1="555.813875076" y2="562.135207765" /><line stroke="rgb(0%,0%,0%)" x1="117.893004353" x2="120.141696824" y1="554.797547316" y2="555.813875076" /><line stroke="rgb(0%,0%,0%)" x1="112.950175603" x2="117.893004353" y1="551.749855879" y2="554.797547316" /><line stroke="rgb(0%,0%,0%)" x1="112.950175603" x2="109.660948346" y1="551.749855879" y2="549.186918088" /><line stroke="rgb(0%,0%,0%)" x1="136.951904948" x2="138.181653697" y1="582.494866458" y2="584.467798406" /><line stroke="rgb(0%,0%,0%)" x1="136.951904948" x2="133.781722278" y1="582.494866458" y2="576.872326737" /><line stroke="rgb(0%,0%,0%)" x1="133.821565909" x2="133.781722278" y1="574.681639857" y2="576.872326737" /><line stroke="rgb(0%,0%,0%)" x1="130.45674412" x2="133.821565909" y1="566.138765134" y2="574.681639857" /><line stroke="rgb(0%,0%,0%)" x1="138.181653697" x2="140.698006861" y1="584.467798406" y2="588.203356166" /><line stroke="rgb(0%,0%,0%)" x1="72.2872240863" x2="72.4456645439" y1="508.103001597" y2="508.277948365" /><line stroke="rgb(0%,0%,0%)" x1="72.2111610243" x2="72.2872240863" y1="507.975333711" y2="508.103001597" /><line stroke="rgb(0%,0%,0%)" x1="72.2111610243" x2="71.9585990569" y1="507.975333711" y2="507.713765105" /><line stroke="rgb(0%,0%,0%)" x1="74.7128813751" x2="72.9545681856" y1="461.489957287" y2="466.39985923" /><line stroke="rgb(0%,0%,0%)" x1="83.6637411068" x2="87.0785733177" y1="519.262373699" y2="523.34434386" /><line stroke="rgb(0%,0%,0%)" x1="102.254476233" x2="92.111927636" y1="539.722191982" y2="529.031238963" /><line stroke="rgb(0%,0%,0%)" x1="90.0422186249" x2="92.111927636" y1="526.38623519" y2="529.031238963" /><line stroke="rgb(0%,0%,0%)" x1="102.254476233" x2="109.660948346" y1="539.722191982" y2="549.186918088" /><line stroke="rgb(0%,0%,0%)" x1="63.6979965302" x2="71.9585990569" y1="498.81139245" y2="507.713765105" /><line stroke="rgb(0%,0%,0%)" x1="62.9341003332" x2="63.6979965302" y1="496.481116798" y2="498.81139245" /><line stroke="rgb(0%,0%,0%)" x1="62.9341003332" x2="61.6520317151" y1="496.481116798" y2="488.802408709" /><line stroke="rgb(0%,0%,0%)" x1="61.8883591642" x2="61.6520317151" y1="488.169157167" y2="488.802408709" /><line stroke="rgb(0%,0%,0%)" x1="61.8883591642" x2="63.3222020559" y1="488.169157167" y2="482.517624856" /><line stroke="rgb(0%,0%,0%)" x1="72.4564686276" x2="64.1058737657" y1="467.523221601" y2="480.816126887" /><line stroke="rgb(0%,0%,0%)" x1="72.9545681856" x2="72.4564686276" y1="466.39985923" y2="467.523221601" /><line stroke="rgb(0%,0%,0%)" x1="81.409901337" x2="83.6637411068" y1="517.843034873" y2="519.262373699" /><line stroke="rgb(0%,0%,0%)" x1="72.4456645439" x2="81.409901337" y1="508.277948365" y2="517.843034873" /><line stroke="rgb(0%,0%,0%)" x1="63.736886237" x2="63.3222020559" y1="481.775581506" y2="482.517624856" /><line stroke="rgb(0%,0%,0%)" x1="64.1058737657" x2="63.736886237" y1="480.816126887" y2="481.775581506" /><line stroke="rgb(0%,0%,0%)" x1="74.7601650617" x2="74.7128813751" y1="460.457959652" y2="461.489957287" /><line stroke="rgb(0%,0%,0%)" x1="87.0785733177" x2="90.0422186249" y1="523.34434386" y2="526.38623519" /><line stroke="rgb(0%,0%,0%)" x1="397.389766898" x2="396.898490112" y1="619.434663161" y2="619.657067144" /><line stroke="rgb(0%,0%,0%)" x1="408.562517829" x2="411.407061441" y1="613.83140081" y2="612.14432765" /><line stroke="rgb(0%,0%,0%)" x1="411.407061441" x2="417.051578263" y1="612.14432765" y2="607.560825634" /><line stroke="rgb(0%,0%,0%)" x1="417.051578263" x2="421.256247839" y1="607.560825634" y2="602.778724406" /><line stroke="rgb(0%,0%,0%)" x1="421.256247839" x2="424.29663537" y1="602.778724406" y2="600.189443248" /><line stroke="rgb(0%,0%,0%)" x1="424.29663537" x2="427.185807375" y1="600.189443248" y2="597.252168217" /><line stroke="rgb(0%,0%,0%)" x1="427.185807375" x2="431.292562799" y1="597.252168217" y2="592.708299039" /><line stroke="rgb(0%,0%,0%)" x1="434.009120947" x2="437.523549881" y1="587.376270024" y2="575.634042373" /><line stroke="rgb(0%,0%,0%)" x1="437.523549881" x2="438.031534399" y1="575.634042373" y2="574.261867987" /><line stroke="rgb(0%,0%,0%)" x1="438.031534399" x2="440.361379236" y1="574.261867987" y2="571.307251668" /><line stroke="rgb(0%,0%,0%)" x1="441.987022849" x2="440.361379236" y1="567.930439252" y2="571.307251668" /><line stroke="rgb(0%,0%,0%)" x1="441.987022849" x2="444.049405793" y1="567.930439252" y2="563.302429129" /><line stroke="rgb(0%,0%,0%)" x1="389.160405369" x2="387.852760722" y1="624.121489549" y2="624.971173615" /><line stroke="rgb(0%,0%,0%)" x1="389.160405369" x2="390.7088506" y1="624.121489549" y2="623.101894113" /><line stroke="rgb(0%,0%,0%)" x1="390.7088506" x2="395.539403394" y1="623.101894113" y2="620.476843889" /><line stroke="rgb(0%,0%,0%)" x1="396.692048353" x2="395.539403394" y1="619.812857086" y2="620.476843889" /><line stroke="rgb(0%,0%,0%)" x1="396.692048353" x2="396.898490112" y1="619.812857086" y2="619.657067144" /><line stroke="rgb(0%,0%,0%)" x1="397.389766898" x2="408.562517829" y1="619.434663161" y2="613.83140081" /><line stroke="rgb(0%,0%,0%)" x1="431.292562799" x2="434.009120947" y1="592.708299039" y2="587.376270024" /><line stroke="rgb(0%,0%,0%)" x1="289.536829112" x2="290.753621705" y1="651.467992764" y2="651.060707048" /><line stroke="rgb(0%,0%,0%)" x1="307.859340558" x2="307.065783547" y1="647.496347561" y2="647.498620651" /><line stroke="rgb(0%,0%,0%)" x1="307.859340558" x2="310.159319629" y1="647.496347561" y2="647.913171413" /><line stroke="rgb(0%,0%,0%)" x1="290.753621705" x2="295.684246844" y1="651.060707048" y2="650.052279757" /><line stroke="rgb(0%,0%,0%)" x1="297.238728154" x2="295.684246844" y1="649.824892758" y2="650.052279757" /><line stroke="rgb(0%,0%,0%)" x1="297.238728154" x2="307.065783547" y1="649.824892758" y2="647.498620651" /><line stroke="rgb(0%,0%,0%)" x1="310.159319629" x2="311.033807456" y1="647.913171413" y2="647.714805008" /><line stroke="rgb(0%,0%,0%)" x1="311.772587405" x2="311.033807456" y1="647.904058992" y2="647.714805008" /><line stroke="rgb(0%,0%,0%)" x1="321.59260447" x2="321.68306699" y1="899.571161345" y2="899.092481606" /><line stroke="rgb(0%,0%,0%)" x1="321.483651265" x2="321.551516734" y1="903.711659938" y2="900.6838583" /><line stroke="rgb(0%,0%,0%)" x1="321.68306699" x2="322.880893888" y1="899.092481606" y2="892.867542971" /><line stroke="rgb(0%,0%,0%)" x1="322.151162422" x2="322.938364133" y1="881.846194643" y2="888.717601165" /><line stroke="rgb(0%,0%,0%)" x1="322.151162422" x2="321.149660259" y1="881.846194643" y2="878.858407619" /><line stroke="rgb(0%,0%,0%)" x1="321.149660259" x2="319.360651223" y1="878.858407619" y2="873.814622178" /><line stroke="rgb(0%,0%,0%)" x1="319.360651223" x2="319.165680012" y1="873.814622178" y2="873.495164907" /><line stroke="rgb(0%,0%,0%)" x1="318.705274485" x2="319.165680012" y1="871.683316096" y2="873.495164907" /><line stroke="rgb(0%,0%,0%)" x1="318.705274485" x2="315.548687099" y1="871.683316096" y2="869.842423824" /><line stroke="rgb(0%,0%,0%)" x1="314.485708355" x2="313.043553261" y1="869.947948778" y2="867.625086672" /><line stroke="rgb(0%,0%,0%)" x1="312.374575107" x2="313.957863767" y1="647.981899189" y2="648.286406693" /><line stroke="rgb(0%,0%,0%)" x1="313.957863767" x2="317.022469337" y1="648.286406693" y2="648.875584707" /><line stroke="rgb(0%,0%,0%)" x1="312.374575107" x2="311.772587405" y1="647.981899189" y2="647.904058992" /><line stroke="rgb(0%,0%,0%)" x1="324.199396821" x2="331.206130255" y1="649.098003461" y2="648.429345909" /><line stroke="rgb(0%,0%,0%)" x1="331.206130255" x2="331.951037638" y1="648.429345909" y2="648.495529972" /><line stroke="rgb(0%,0%,0%)" x1="321.571997781" x2="324.199396821" y1="648.832222638" y2="649.098003461" /><line stroke="rgb(0%,0%,0%)" x1="317.022469337" x2="321.571997781" y1="648.875584707" y2="648.832222638" /><line stroke="rgb(0%,0%,0%)" x1="239.635339487" x2="242.504625546" y1="642.795895801" y2="643.063737697" /><line stroke="rgb(0%,0%,0%)" x1="237.354396525" x2="233.961616864" y1="641.770849994" y2="641.268416167" /><line stroke="rgb(0%,0%,0%)" x1="237.354396525" x2="239.635339487" y1="641.770849994" y2="642.795895801" /><line stroke="rgb(0%,0%,0%)" x1="242.504625546" x2="245.103401246" y1="643.063737697" y2="643.759615352" /><line stroke="rgb(0%,0%,0%)" x1="289.536829112" x2="286.837959421" y1="651.467992764" y2="651.570540574" /><line stroke="rgb(0%,0%,0%)" x1="286.837959421" x2="283.235078841" y1="651.570540574" y2="651.60243954" /><line stroke="rgb(0%,0%,0%)" x1="281.473923874" x2="278.923297493" y1="651.91402914" y2="651.834853119" /><line stroke="rgb(0%,0%,0%)" x1="281.473923874" x2="283.235078841" y1="651.91402914" y2="651.60243954" /><line stroke="rgb(0%,0%,0%)" x1="276.75538289" x2="278.923297493" y1="651.33128362" y2="651.834853119" /><line stroke="rgb(0%,0%,0%)" x1="262.386736195" x2="262.54893094" y1="646.118866091" y2="646.23404883" /><line stroke="rgb(0%,0%,0%)" x1="262.191844919" x2="262.386736195" y1="646.017704816" y2="646.118866091" /><line stroke="rgb(0%,0%,0%)" x1="293.114277873" x2="292.51346261" y1="938.369924124" y2="938.493489897" /><line stroke="rgb(0%,0%,0%)" x1="293.114277873" x2="293.477637867" y1="938.369924124" y2="938.419172081" /><line stroke="rgb(0%,0%,0%)" x1="293.477637867" x2="297.034294382" y1="938.419172081" y2="937.218673172" /><line stroke="rgb(0%,0%,0%)" x1="292.51346261" x2="290.780803476" y1="938.493489897" y2="935.53576178" /><line stroke="rgb(0%,0%,0%)" x1="297.034294382" x2="301.142479879" y1="937.218673172" y2="935.595206154" /><line stroke="rgb(0%,0%,0%)" x1="290.066833285" x2="290.780803476" y1="934.048687893" y2="935.53576178" /><line stroke="rgb(0%,0%,0%)" x1="301.142479879" x2="304.005211825" y1="935.595206154" y2="934.134003756" /><line stroke="rgb(0%,0%,0%)" x1="290.066833285" x2="289.409343921" y1="934.048687893" y2="930.988003413" /><line stroke="rgb(0%,0%,0%)" x1="289.555137623" x2="289.409343921" y1="929.436186257" y2="930.988003413" /><line stroke="rgb(0%,0%,0%)" x1="290.382052723" x2="289.555137623" y1="921.674836293" y2="929.436186257" /><line stroke="rgb(0%,0%,0%)" x1="290.382052723" x2="291.923327807" y1="921.674836293" y2="912.486773903" /><line stroke="rgb(0%,0%,0%)" x1="291.920324094" x2="291.923327807" y1="912.425251046" y2="912.486773903" /><line stroke="rgb(0%,0%,0%)" x1="292.469272115" x2="291.920324094" y1="894.050133737" y2="912.425251046" /><line stroke="rgb(0%,0%,0%)" x1="294.247915898" x2="292.469272115" y1="883.914985103" y2="894.050133737" /><line stroke="rgb(0%,0%,0%)" x1="296.776947074" x2="294.247915898" y1="882.785849473" y2="883.914985103" /><line stroke="rgb(0%,0%,0%)" x1="297.440084279" x2="296.776947074" y1="876.296010378" y2="882.785849473" /><line stroke="rgb(0%,0%,0%)" x1="297.440084279" x2="298.443966496" y1="876.296010378" y2="873.361072822" /><line stroke="rgb(0%,0%,0%)" x1="303.440096285" x2="300.974640733" y1="871.032723616" y2="872.05876791" /><line stroke="rgb(0%,0%,0%)" x1="304.169852244" x2="303.440096285" y1="870.347329708" y2="871.032723616" /><line stroke="rgb(0%,0%,0%)" x1="321.137710604" x2="321.483651265" y1="904.677145369" y2="903.711659938" /><line stroke="rgb(0%,0%,0%)" x1="322.880893888" x2="322.635756155" y1="892.867542971" y2="891.31759316" /><line stroke="rgb(0%,0%,0%)" x1="322.635756155" x2="322.938364133" y1="891.31759316" y2="888.717601165" /><line stroke="rgb(0%,0%,0%)" x1="315.548687099" x2="314.485708355" y1="869.842423824" y2="869.947948778" /><line stroke="rgb(0%,0%,0%)" x1="312.023521772" x2="310.346986953" y1="868.934256585" y2="870.171010357" /><line stroke="rgb(0%,0%,0%)" x1="310.346986953" x2="310.113543482" y1="870.171010357" y2="867.876640043" /><line stroke="rgb(0%,0%,0%)" x1="312.023521772" x2="313.043553261" y1="868.934256585" y2="867.625086672" /><line stroke="rgb(0%,0%,0%)" x1="306.633174526" x2="305.191905398" y1="868.430196647" y2="869.513631747" /><line stroke="rgb(0%,0%,0%)" x1="308.139627471" x2="306.633174526" y1="868.44448641" y2="868.430196647" /><line stroke="rgb(0%,0%,0%)" x1="172.428070503" x2="183.751064795" y1="612.958997576" y2="620.015699903" /><line stroke="rgb(0%,0%,0%)" x1="190.996919909" x2="191.764407538" y1="623.75635544" y2="624.037302135" /><line stroke="rgb(0%,0%,0%)" x1="191.764407538" x2="202.068783455" y1="624.037302135" y2="627.142695354" /><line stroke="rgb(0%,0%,0%)" x1="218.492113789" x2="222.685981568" y1="636.788999297" y2="638.43899512" /><line stroke="rgb(0%,0%,0%)" x1="225.437114203" x2="222.685981568" y1="639.370378228" y2="638.43899512" /><line stroke="rgb(0%,0%,0%)" x1="210.947835377" x2="218.492113789" y1="632.231995485" y2="636.788999297" /><line stroke="rgb(0%,0%,0%)" x1="206.486774106" x2="210.947835377" y1="630.349203451" y2="632.231995485" /><line stroke="rgb(0%,0%,0%)" x1="202.068783455" x2="206.486774106" y1="627.142695354" y2="630.349203451" /><line stroke="rgb(0%,0%,0%)" x1="232.954734017" x2="233.961616864" y1="641.250539982" y2="641.268416167" /><line stroke="rgb(0%,0%,0%)" x1="245.103401246" x2="246.85881546" y1="643.759615352" y2="644.096423613" /><line stroke="rgb(0%,0%,0%)" x1="230.951783246" x2="232.954734017" y1="640.893931398" y2="641.250539982" /><line stroke="rgb(0%,0%,0%)" x1="225.437114203" x2="230.951783246" y1="639.370378228" y2="640.893931398" /><line stroke="rgb(0%,0%,0%)" x1="246.85881546" x2="254.988271066" y1="644.096423613" y2="645.271781998" /><line stroke="rgb(0%,0%,0%)" x1="259.327763996" x2="259.49393535" y1="645.050199255" y2="645.124422429" /><line stroke="rgb(0%,0%,0%)" x1="259.49393535" x2="262.191844919" y1="645.124422429" y2="646.017704816" /><line stroke="rgb(0%,0%,0%)" x1="256.479502222" x2="259.327763996" y1="645.338648397" y2="645.050199255" /><line stroke="rgb(0%,0%,0%)" x1="256.222331699" x2="256.479502222" y1="645.37226325" y2="645.338648397" /><line stroke="rgb(0%,0%,0%)" x1="254.988271066" x2="256.222331699" y1="645.271781998" y2="645.37226325" /><line stroke="rgb(0%,0%,0%)" x1="142.159532721" x2="140.698006861" y1="589.477442629" y2="588.203356166" /><line stroke="rgb(0%,0%,0%)" x1="142.356525328" x2="142.159532721" y1="589.645866269" y2="589.477442629" /><line stroke="rgb(0%,0%,0%)" x1="153.204575601" x2="160.693033775" y1="599.262273709" y2="605.34772609" /><line stroke="rgb(0%,0%,0%)" x1="146.671808027" x2="153.204575601" y1="593.423340359" y2="599.262273709" /><line stroke="rgb(0%,0%,0%)" x1="142.356525328" x2="146.671808027" y1="589.645866269" y2="593.423340359" /><line stroke="rgb(0%,0%,0%)" x1="183.751064795" x2="188.669553757" y1="620.015699903" y2="622.971321708" /><line stroke="rgb(0%,0%,0%)" x1="168.941001035" x2="172.428070503" y1="610.323119934" y2="612.958997576" /><line stroke="rgb(0%,0%,0%)" x1="160.693033775" x2="168.941001035" y1="605.34772609" y2="610.323119934" /><line stroke="rgb(0%,0%,0%)" x1="74.4479714903" x2="74.7601650617" y1="457.224912717" y2="460.457959652" /><line stroke="rgb(0%,0%,0%)" x1="74.4479714903" x2="74.5577979006" y1="457.224912717" y2="455.95060096" /><line stroke="rgb(0%,0%,0%)" x1="190.996919909" x2="188.669553757" y1="623.75635544" y2="622.971321708" /><line stroke="rgb(0%,0%,0%)" x1="298.443966496" x2="300.974640733" y1="873.361072822" y2="872.05876791" /></svg>