<?xml version="1.0" encoding="utf-8" ?>
<svg baseProfile="full" height="100%" version="1.1" viewBox="0.5 0.5 685.793960571 941.299331665" width="100%" xmlns="http://www.w3.org/2000/svg" xmlns:ev="http://www.w3.org/2001/xml-events" xmlns:xlink="http://www.w3.org/1999/xlink"><defs /><line stroke="rgb(0%,0%,0%)" x1="476.207013792" x2="477.816110468" y1="416.479337981" y2="419.308917919" /><line stroke="rgb(0%,0%,0%)" x1="476.207013792" x2="473.830142607" y1="416.479337981" y2="412.849407337" /><line stroke="rgb(0%,0%,0%)" x1="483.57657769" x2="486.574838722" y1="442.135600277" y2="455.276749172" /><line stroke="rgb(0%,0%,0%)" x1="485.384810624" x2="486.586058646" y1="464.746511781" y2="455.842076694" /><line stroke="rgb(0%,0%,0%)" x1="441.668085632" x2="443.689691419" y1="373.384514528" y2="375.113938133" /><line stroke="rgb(0%,0%,0%)" x1="454.558726998" x2="459.161989761" y1="386.9728995" y2="392.773024367" /><line stroke="rgb(0%,0%,0%)" x1="473.830142607" x2="470.33305822" y1="412.849407337" y2="408.665075857" /><line stroke="rgb(0%,0%,0%)" x1="470.33305822" x2="463.138463808" y1="408.665075857" y2="397.969467294" /><line stroke="rgb(0%,0%,0%)" x1="486.586058646" x2="486.574838722" y1="455.842076694" y2="455.276749172" /><line stroke="rgb(0%,0%,0%)" x1="483.57657769" x2="483.565933065" y1="442.135600277" y2="441.066021148" /><line stroke="rgb(0%,0%,0%)" x1="482.387665689" x2="483.565933065" y1="435.300750022" y2="441.066021148" /><line stroke="rgb(0%,0%,0%)" x1="482.387665689" x2="477.816110468" y1="435.300750022" y2="419.308917919" /><line stroke="rgb(0%,0%,0%)" x1="440.675423007" x2="436.857093801" y1="372.073159794" y2="367.35028613" /><line stroke="rgb(0%,0%,0%)" x1="449.558832282" x2="443.689691419" y1="381.446356353" y2="375.113938133" /><line stroke="rgb(0%,0%,0%)" x1="441.668085632" x2="440.675423007" y1="373.384514528" y2="372.073159794" /><line stroke="rgb(0%,0%,0%)" x1="463.138463808" x2="459.161989761" y1="397.969467294" y2="392.773024367" /><line stroke="rgb(0%,0%,0%)" x1="382.389278264" x2="382.16612602" y1="307.755610649" y2="307.562762065" /><line stroke="rgb(0%,0%,0%)" x1="451.451572617" x2="449.558832282" y1="382.889650449" y2="381.446356353" /><line stroke="rgb(0%,0%,0%)" x1="454.558726998" x2="451.451572617" y1="386.9728995" y2="382.889650449" /><line stroke="rgb(0%,0%,0%)" x1="338.986745012" x2="340.406493275" y1="282.022404853" y2="282.632630451" /><line stroke="rgb(0%,0%,0%)" x1="337.874224352" x2="338.986745012" y1="281.761863103" y2="282.022404853" /><line stroke="rgb(0%,0%,0%)" x1="359.147008304" x2="352.929894065" y1="290.037431785" y2="287.234270972" /><line stroke="rgb(0%,0%,0%)" x1="340.406493275" x2="342.262023661" y1="282.632630451" y2="283.732602974" /><line stroke="rgb(0%,0%,0%)" x1="360.460345033" x2="361.956450574" y1="290.479750059" y2="291.405712033" /><line stroke="rgb(0%,0%,0%)" x1="359.799990648" x2="360.460345033" y1="290.188345942" y2="290.479750059" /><line stroke="rgb(0%,0%,0%)" x1="359.799990648" x2="359.147008304" y1="290.188345942" y2="290.037431785" /><line stroke="rgb(0%,0%,0%)" x1="373.308543585" x2="378.098404077" y1="299.997071294" y2="304.001405591" /><line stroke="rgb(0%,0%,0%)" x1="373.308543585" x2="370.287048442" y1="299.997071294" y2="298.098331298" /><line stroke="rgb(0%,0%,0%)" x1="370.287048442" x2="361.956450574" y1="298.098331298" y2="291.405712033" /><line stroke="rgb(0%,0%,0%)" x1="378.209509316" x2="378.098404077" y1="304.088128775" y2="304.001405591" /><line stroke="rgb(0%,0%,0%)" x1="326.14280236" x2="320.752247071" y1="278.364984391" y2="277.345316262" /><line stroke="rgb(0%,0%,0%)" x1="320.752247071" x2="319.684908997" y1="277.345316262" y2="277.558269662" /><line stroke="rgb(0%,0%,0%)" x1="326.14280236" x2="335.605924652" y1="278.364984391" y2="279.951640198" /><line stroke="rgb(0%,0%,0%)" x1="337.874224352" x2="336.54300836" y1="281.761863103" y2="280.392051723" /><line stroke="rgb(0%,0%,0%)" x1="336.54300836" x2="335.749946882" y1="280.392051723" y2="280.016222389" /><line stroke="rgb(0%,0%,0%)" x1="335.749946882" x2="335.605924652" y1="280.016222389" y2="279.951640198" /><line stroke="rgb(0%,0%,0%)" x1="345.448335921" x2="343.231592402" y1="285.638144696" y2="284.270212842" /><line stroke="rgb(0%,0%,0%)" x1="345.448335921" x2="351.771921308" y1="285.638144696" y2="286.796139197" /><line stroke="rgb(0%,0%,0%)" x1="343.231592402" x2="342.262023661" y1="284.270212842" y2="283.732602974" /><line stroke="rgb(0%,0%,0%)" x1="352.929894065" x2="351.771921308" y1="287.234270972" y2="286.796139197" /><line stroke="rgb(0%,0%,0%)" x1="319.684908997" x2="319.146730062" y1="277.558269662" y2="277.600469853" /><line stroke="rgb(0%,0%,0%)" x1="262.601097168" x2="257.582183929" y1="281.173601119" y2="283.234489665" /><line stroke="rgb(0%,0%,0%)" x1="264.448212041" x2="262.601097168" y1="280.776043714" y2="281.173601119" /><line stroke="rgb(0%,0%,0%)" x1="257.582183929" x2="257.352088736" y1="283.234489665" y2="283.233411001" /><line stroke="rgb(0%,0%,0%)" x1="267.35857537" x2="264.448212041" y1="280.329003685" y2="280.776043714" /><line stroke="rgb(0%,0%,0%)" x1="272.082909228" x2="270.760047601" y1="279.483589802" y2="279.71704891" /><line stroke="rgb(0%,0%,0%)" x1="270.760047601" x2="267.35857537" y1="279.71704891" y2="280.329003685" /><line stroke="rgb(0%,0%,0%)" x1="220.115004235" x2="223.317512043" y1="285.270587961" y2="284.649448543" /><line stroke="rgb(0%,0%,0%)" x1="212.092558075" x2="204.215044213" y1="288.545521216" y2="289.621409126" /><line stroke="rgb(0%,0%,0%)" x1="220.115004235" x2="212.092558075" y1="285.270587961" y2="288.545521216" /><line stroke="rgb(0%,0%,0%)" x1="238.676098723" x2="246.362163577" y1="284.50118674" y2="283.446613727" /><line stroke="rgb(0%,0%,0%)" x1="238.676098723" x2="232.543510769" y1="284.50118674" y2="283.90599904" /><line stroke="rgb(0%,0%,0%)" x1="232.543510769" x2="231.458966071" y1="283.90599904" y2="284.368753561" /><line stroke="rgb(0%,0%,0%)" x1="253.007747817" x2="247.069298236" y1="284.408719999" y2="283.976002278" /><line stroke="rgb(0%,0%,0%)" x1="247.069298236" x2="246.362163577" y1="283.976002278" y2="283.446613727" /><line stroke="rgb(0%,0%,0%)" x1="257.352088736" x2="253.007747817" y1="283.233411001" y2="284.408719999" /><line stroke="rgb(0%,0%,0%)" x1="187.732107717" x2="181.767337729" y1="293.29522008" y2="294.697620024" /><line stroke="rgb(0%,0%,0%)" x1="187.732107717" x2="196.448341103" y1="293.29522008" y2="291.931720381" /><line stroke="rgb(0%,0%,0%)" x1="204.215044213" x2="199.91041428" y1="289.621409126" y2="291.537119225" /><line stroke="rgb(0%,0%,0%)" x1="231.458966071" x2="223.317512043" y1="284.368753561" y2="284.649448543" /><line stroke="rgb(0%,0%,0%)" x1="134.160695415" x2="134.432426793" y1="335.797458051" y2="335.330698215" /><line stroke="rgb(0%,0%,0%)" x1="148.768956861" x2="148.755102239" y1="320.931778666" y2="320.94423093" /><line stroke="rgb(0%,0%,0%)" x1="148.768956861" x2="148.773079899" y1="320.931778666" y2="320.927801501" /><line stroke="rgb(0%,0%,0%)" x1="164.754834317" x2="148.773079899" y1="307.744226618" y2="320.927801501" /><line stroke="rgb(0%,0%,0%)" x1="167.975398394" x2="164.754834317" y1="305.280809791" y2="307.744226618" /><line stroke="rgb(0%,0%,0%)" x1="167.975398394" x2="181.216249281" y1="305.280809791" y2="294.978433304" /><line stroke="rgb(0%,0%,0%)" x1="181.767337729" x2="181.216249281" y1="294.697620024" y2="294.978433304" /><line stroke="rgb(0%,0%,0%)" x1="199.91041428" x2="196.448341103" y1="291.537119225" y2="291.931720381" /><line stroke="rgb(0%,0%,0%)" x1="133.581608185" x2="132.826451142" y1="336.029969186" y2="336.650432067" /><line stroke="rgb(0%,0%,0%)" x1="136.624567763" x2="134.432426793" y1="332.534271013" y2="335.330698215" /><line stroke="rgb(0%,0%,0%)" x1="134.160695415" x2="133.581608185" y1="335.797458051" y2="336.029969186" /><line stroke="rgb(0%,0%,0%)" x1="82.8345487264" x2="89.0310813477" y1="403.547957211" y2="395.38335124" /><line stroke="rgb(0%,0%,0%)" x1="106.049259857" x2="102.236033966" y1="372.71942657" y2="377.969178858" /><line stroke="rgb(0%,0%,0%)" x1="108.005452695" x2="106.049259857" y1="370.305424679" y2="372.71942657" /><line stroke="rgb(0%,0%,0%)" x1="122.702600744" x2="121.192934895" y1="358.632195202" y2="361.966634573" /><line stroke="rgb(0%,0%,0%)" x1="121.192934895" x2="110.458439154" y1="361.966634573" y2="368.4525626" /><line stroke="rgb(0%,0%,0%)" x1="125.040130071" x2="123.38780615" y1="351.105272707" y2="349.836908894" /><line stroke="rgb(0%,0%,0%)" x1="125.040130071" x2="122.702600744" y1="351.105272707" y2="358.632195202" /><line stroke="rgb(0%,0%,0%)" x1="124.526789163" x2="123.38780615" y1="345.50628111" y2="349.836908894" /><line stroke="rgb(0%,0%,0%)" x1="124.526789163" x2="127.79610071" y1="345.50628111" y2="341.503885212" /><line stroke="rgb(0%,0%,0%)" x1="132.826451142" x2="127.79610071" y1="336.650432067" y2="341.503885212" /><line stroke="rgb(0%,0%,0%)" x1="110.458439154" x2="108.005452695" y1="368.4525626" y2="370.305424679" /><line stroke="rgb(0%,0%,0%)" x1="137.798107848" x2="136.624567763" y1="331.05510271" y2="332.534271013" /><line stroke="rgb(0%,0%,0%)" x1="148.755102239" x2="137.798107848" y1="320.94423093" y2="331.05510271" /><line stroke="rgb(0%,0%,0%)" x1="73.9982530943" x2="73.8236912755" y1="447.301116289" y2="446.983374723" /><line stroke="rgb(0%,0%,0%)" x1="73.9982530943" x2="74.5447328226" y1="447.301116289" y2="448.920319377" /><line stroke="rgb(0%,0%,0%)" x1="73.8236912755" x2="73.4713512426" y1="446.983374723" y2="445.787377733" /><line stroke="rgb(0%,0%,0%)" x1="67.798793886" x2="73.4713512426" y1="432.567078363" y2="445.787377733" /><line stroke="rgb(0%,0%,0%)" x1="67.798793886" x2="67.7222989057" y1="432.567078363" y2="430.075102582" /><line stroke="rgb(0%,0%,0%)" x1="74.5447328226" x2="75.6882575284" y1="448.920319377" y2="455.822776303" /><line stroke="rgb(0%,0%,0%)" x1="82.8345487264" x2="79.1593260981" y1="403.547957211" y2="407.908604538" /><line stroke="rgb(0%,0%,0%)" x1="79.1593260981" x2="75.6065602076" y1="407.908604538" y2="411.004168063" /><line stroke="rgb(0%,0%,0%)" x1="92.1342486308" x2="89.0310813477" y1="391.966129882" y2="395.38335124" /><line stroke="rgb(0%,0%,0%)" x1="94.7316551411" x2="92.1342486308" y1="387.720387892" y2="391.966129882" /><line stroke="rgb(0%,0%,0%)" x1="94.7316551411" x2="102.236033966" y1="387.720387892" y2="377.969178858" /><line stroke="rgb(0%,0%,0%)" x1="67.3041581768" x2="67.7222989057" y1="425.844638939" y2="430.075102582" /><line stroke="rgb(0%,0%,0%)" x1="67.3041581768" x2="68.7804753604" y1="425.844638939" y2="420.052470808" /><line stroke="rgb(0%,0%,0%)" x1="75.6065602076" x2="69.7370548182" y1="411.004168063" y2="417.630711431" /><line stroke="rgb(0%,0%,0%)" x1="69.7370548182" x2="68.7804753604" y1="417.630711431" y2="420.052470808" /><line stroke="rgb(0%,0%,0%)" x1="485.455725659" x2="484.570404117" y1="484.025167911" y2="488.301224177" /><line stroke="rgb(0%,0%,0%)" x1="485.455725659" x2="486.03360278" y1="484.025167911" y2="482.32439422" /><line stroke="rgb(0%,0%,0%)" x1="428.144766068" x2="427.967283747" y1="354.318109484" y2="353.559101314" /><line stroke="rgb(0%,0%,0%)" x1="458.341608572" x2="457.787458098" y1="546.802245754" y2="547.255462303" /><line stroke="rgb(0%,0%,0%)" x1="458.341608572" x2="458.544198338" y1="546.802245754" y2="546.449776159" /><line stroke="rgb(0%,0%,0%)" x1="466.730164909" x2="474.144275291" y1="532.679496688" y2="521.07493538" /><line stroke="rgb(0%,0%,0%)" x1="476.103345345" x2="475.523699436" y1="515.480336503" y2="518.479968804" /><line stroke="rgb(0%,0%,0%)" x1="480.482712617" x2="476.103345345" y1="506.025113515" y2="515.480336503" /><line stroke="rgb(0%,0%,0%)" x1="480.482712617" x2="483.156960715" y1="506.025113515" y2="496.504197753" /><line stroke="rgb(0%,0%,0%)" x1="483.156960715" x2="484.570404117" y1="496.504197753" y2="488.301224177" /><line stroke="rgb(0%,0%,0%)" x1="486.03360278" x2="486.409849467" y1="482.32439422" y2="476.60016888" /><line stroke="rgb(0%,0%,0%)" x1="486.409849467" x2="485.936049847" y1="476.60016888" y2="468.408771849" /><line stroke="rgb(0%,0%,0%)" x1="485.384810624" x2="485.936049847" y1="464.746511781" y2="468.408771849" /><line stroke="rgb(0%,0%,0%)" x1="428.144766068" x2="428.38529124" y1="354.318109484" y2="355.231722128" /><line stroke="rgb(0%,0%,0%)" x1="427.711810398" x2="424.143532844" y1="353.395727421" y2="343.164606765" /><line stroke="rgb(0%,0%,0%)" x1="427.711810398" x2="427.967283747" y1="353.395727421" y2="353.559101314" /><line stroke="rgb(0%,0%,0%)" x1="424.143532844" x2="420.701831478" y1="343.164606765" y2="337.205309226" /><line stroke="rgb(0%,0%,0%)" x1="435.908033264" x2="436.857093801" y1="365.605105261" y2="367.35028613" /><line stroke="rgb(0%,0%,0%)" x1="435.908033264" x2="432.103585785" y1="365.605105261" y2="360.960481977" /><line stroke="rgb(0%,0%,0%)" x1="432.103585785" x2="428.38529124" y1="360.960481977" y2="355.231722128" /><line stroke="rgb(0%,0%,0%)" x1="442.37226251" x2="445.220498495" y1="564.065363377" y2="559.619569649" /><line stroke="rgb(0%,0%,0%)" x1="457.787458098" x2="456.601040061" y1="547.255462303" y2="548.649241773" /><line stroke="rgb(0%,0%,0%)" x1="445.220498495" x2="456.601040061" y1="559.619569649" y2="548.649241773" /><line stroke="rgb(0%,0%,0%)" x1="458.544198338" x2="459.620556599" y1="546.449776159" y2="544.570693988" /><line stroke="rgb(0%,0%,0%)" x1="459.620556599" x2="465.151903814" y1="544.570693988" y2="534.438493937" /><line stroke="rgb(0%,0%,0%)" x1="465.923434614" x2="466.730164909" y1="533.450476813" y2="532.679496688" /><line stroke="rgb(0%,0%,0%)" x1="474.144275291" x2="475.523699436" y1="521.07493538" y2="518.479968804" /><line stroke="rgb(0%,0%,0%)" x1="395.140505581" x2="392.262956786" y1="314.012767072" y2="312.836848232" /><line stroke="rgb(0%,0%,0%)" x1="384.850166905" x2="386.878888286" y1="308.948947205" y2="310.376250189" /><line stroke="rgb(0%,0%,0%)" x1="384.850166905" x2="382.389278264" y1="308.948947205" y2="307.755610649" /><line stroke="rgb(0%,0%,0%)" x1="400.839965835" x2="403.624996601" y1="317.606974498" y2="319.4765511" /><line stroke="rgb(0%,0%,0%)" x1="400.839965835" x2="399.154714711" y1="317.606974498" y2="316.553029853" /><line stroke="rgb(0%,0%,0%)" x1="399.154714711" x2="395.140505581" y1="316.553029853" y2="314.012767072" /><line stroke="rgb(0%,0%,0%)" x1="420.410036881" x2="420.081455015" y1="336.616640146" y2="336.159599046" /><line stroke="rgb(0%,0%,0%)" x1="416.499605732" x2="420.081455015" y1="332.500477124" y2="336.159599046" /><line stroke="rgb(0%,0%,0%)" x1="414.970161614" x2="416.499605732" y1="330.963377578" y2="332.500477124" /><line stroke="rgb(0%,0%,0%)" x1="414.970161614" x2="412.692981335" y1="330.963377578" y2="328.502947881" /><line stroke="rgb(0%,0%,0%)" x1="406.9391456" x2="403.624996601" y1="322.64043329" y2="319.4765511" /><line stroke="rgb(0%,0%,0%)" x1="420.701831478" x2="420.410036881" y1="337.205309226" y2="336.616640146" /><line stroke="rgb(0%,0%,0%)" x1="465.151903814" x2="465.923434614" y1="534.438493937" y2="533.450476813" /><line stroke="rgb(0%,0%,0%)" x1="360.301486542" x2="359.477230248" y1="640.833996192" y2="641.100316149" /><line stroke="rgb(0%,0%,0%)" x1="360.301486542" x2="361.25695501" y1="640.833996192" y2="640.624409471" /><line stroke="rgb(0%,0%,0%)" x1="361.25695501" x2="371.323812482" y1="640.624409471" y2="636.185532493" /><line stroke="rgb(0%,0%,0%)" x1="371.323812482" x2="374.993549371" y1="636.185532493" y2="633.010338617" /><line stroke="rgb(0%,0%,0%)" x1="374.993549371" x2="377.006189537" y1="633.010338617" y2="632.26170801" /><line stroke="rgb(0%,0%,0%)" x1="380.456574903" x2="378.209509316" y1="306.06320998" y2="304.088128775" /><line stroke="rgb(0%,0%,0%)" x1="382.16612602" x2="380.456574903" y1="307.562762065" y2="306.06320998" /><line stroke="rgb(0%,0%,0%)" x1="377.006189537" x2="377.664997676" y1="632.26170801" y2="631.806614177" /><line stroke="rgb(0%,0%,0%)" x1="377.664997676" x2="383.262757766" y1="631.806614177" y2="627.260621249" /><line stroke="rgb(0%,0%,0%)" x1="383.262757766" x2="386.160469263" y1="627.260621249" y2="625.474036749" /><line stroke="rgb(0%,0%,0%)" x1="386.160469263" x2="387.711608802" y1="625.474036749" y2="623.985030042" /><line stroke="rgb(0%,0%,0%)" x1="392.262956786" x2="386.878888286" y1="312.836848232" y2="310.376250189" /><line stroke="rgb(0%,0%,0%)" x1="412.692981335" x2="408.072702276" y1="328.502947881" y2="323.757955365" /><line stroke="rgb(0%,0%,0%)" x1="408.072702276" x2="406.9391456" y1="323.757955365" y2="322.64043329" /><line stroke="rgb(0%,0%,0%)" x1="319.146730062" x2="316.113683247" y1="277.600469853" y2="277.243985453" /><line stroke="rgb(0%,0%,0%)" x1="339.214071925" x2="341.058874878" y1="646.186471305" y2="645.819496457" /><line stroke="rgb(0%,0%,0%)" x1="339.214071925" x2="338.226578384" y1="646.186471305" y2="646.316158658" /><line stroke="rgb(0%,0%,0%)" x1="335.359739012" x2="338.226578384" y1="647.10140843" y2="646.316158658" /><line stroke="rgb(0%,0%,0%)" x1="341.058874878" x2="345.349874213" y1="645.819496457" y2="644.74608472" /><line stroke="rgb(0%,0%,0%)" x1="347.38228139" x2="346.846299582" y1="643.417707483" y2="644.559574627" /><line stroke="rgb(0%,0%,0%)" x1="345.349874213" x2="346.846299582" y1="644.74608472" y2="644.559574627" /><line stroke="rgb(0%,0%,0%)" x1="347.38228139" x2="351.867754223" y1="643.417707483" y2="642.739016247" /><line stroke="rgb(0%,0%,0%)" x1="352.299690476" x2="354.752419079" y1="642.668747396" y2="642.194045181" /><line stroke="rgb(0%,0%,0%)" x1="359.477230248" x2="354.752419079" y1="641.100316149" y2="642.194045181" /><line stroke="rgb(0%,0%,0%)" x1="272.082909228" x2="272.924966602" y1="279.483589802" y2="279.490013112" /><line stroke="rgb(0%,0%,0%)" x1="287.773736705" x2="286.203964275" y1="281.016923273" y2="280.638036499" /><line stroke="rgb(0%,0%,0%)" x1="287.773736705" x2="289.199089349" y1="281.016923273" y2="280.957107721" /><line stroke="rgb(0%,0%,0%)" x1="280.600197513" x2="282.712377127" y1="278.75787222" y2="279.213295357" /><line stroke="rgb(0%,0%,0%)" x1="280.600197513" x2="276.756715314" y1="278.75787222" y2="279.171576163" /><line stroke="rgb(0%,0%,0%)" x1="294.154897816" x2="292.705443855" y1="281.052565669" y2="281.224000387" /><line stroke="rgb(0%,0%,0%)" x1="289.199089349" x2="290.376204153" y1="280.957107721" y2="281.12402286" /><line stroke="rgb(0%,0%,0%)" x1="298.115084206" x2="294.154897816" y1="280.013453105" y2="281.052565669" /><line stroke="rgb(0%,0%,0%)" x1="301.126112631" x2="298.115084206" y1="279.962907828" y2="280.013453105" /><line stroke="rgb(0%,0%,0%)" x1="310.763161734" x2="309.566272411" y1="277.162339235" y2="277.221541274" /><line stroke="rgb(0%,0%,0%)" x1="304.800808371" x2="309.566272411" y1="278.756611145" y2="277.221541274" /><line stroke="rgb(0%,0%,0%)" x1="301.126112631" x2="304.800808371" y1="279.962907828" y2="278.756611145" /><line stroke="rgb(0%,0%,0%)" x1="311.601754578" x2="315.573233813" y1="923.51249509" y2="916.435784466" /><line stroke="rgb(0%,0%,0%)" x1="316.624872208" x2="315.573233813" y1="913.902420394" y2="916.435784466" /><line stroke="rgb(0%,0%,0%)" x1="317.373924892" x2="317.175409556" y1="911.680632643" y2="909.998672883" /><line stroke="rgb(0%,0%,0%)" x1="316.624872208" x2="317.373924892" y1="913.902420394" y2="911.680632643" /><line stroke="rgb(0%,0%,0%)" x1="313.638680891" x2="311.377151977" y1="277.064712443" y2="277.057697709" /><line stroke="rgb(0%,0%,0%)" x1="311.377151977" x2="310.763161734" y1="277.057697709" y2="277.162339235" /><line stroke="rgb(0%,0%,0%)" x1="316.113683247" x2="313.638680891" y1="277.243985453" y2="277.064712443" /><line stroke="rgb(0%,0%,0%)" x1="272.682321079" x2="269.830408441" y1="649.834319922" y2="648.751734499" /><line stroke="rgb(0%,0%,0%)" x1="264.598487241" x2="265.42259126" y1="646.717524948" y2="647.08722335" /><line stroke="rgb(0%,0%,0%)" x1="265.42259126" x2="269.830408441" y1="647.08722335" y2="648.751734499" /><line stroke="rgb(0%,0%,0%)" x1="272.682321079" x2="273.274050532" y1="649.834319922" y2="649.972343283" /><line stroke="rgb(0%,0%,0%)" x1="286.203964275" x2="284.146294565" y1="280.638036499" y2="279.825417067" /><line stroke="rgb(0%,0%,0%)" x1="282.712377127" x2="284.146294565" y1="279.213295357" y2="279.825417067" /><line stroke="rgb(0%,0%,0%)" x1="275.209508996" x2="272.924966602" y1="279.221015121" y2="279.490013112" /><line stroke="rgb(0%,0%,0%)" x1="276.756715314" x2="275.209508996" y1="279.171576163" y2="279.221015121" /><line stroke="rgb(0%,0%,0%)" x1="292.705443855" x2="290.376204153" y1="281.224000387" y2="281.12402286" /><line stroke="rgb(0%,0%,0%)" x1="311.601754578" x2="307.638755939" y1="923.51249509" y2="928.525921454" /><line stroke="rgb(0%,0%,0%)" x1="120.496442006" x2="127.900045016" y1="555.444013651" y2="560.695294693" /><line stroke="rgb(0%,0%,0%)" x1="119.240762409" x2="120.496442006" y1="554.876491836" y2="555.444013651" /><line stroke="rgb(0%,0%,0%)" x1="113.770106032" x2="119.240762409" y1="551.503347947" y2="554.876491836" /><line stroke="rgb(0%,0%,0%)" x1="113.770106032" x2="111.577285072" y1="551.503347947" y2="549.79472058" /><line stroke="rgb(0%,0%,0%)" x1="137.656183987" x2="138.303529501" y1="581.372190863" y2="582.410751502" /><line stroke="rgb(0%,0%,0%)" x1="137.656183987" x2="135.987384947" y1="581.372190863" y2="578.41245956" /><line stroke="rgb(0%,0%,0%)" x1="136.055903619" x2="135.987384947" y1="574.645158465" y2="578.41245956" /><line stroke="rgb(0%,0%,0%)" x1="136.055903619" x2="132.162999086" y1="574.645158465" y2="564.761545653" /><line stroke="rgb(0%,0%,0%)" x1="131.651699622" x2="132.162999086" y1="563.800926843" y2="564.761545653" /><line stroke="rgb(0%,0%,0%)" x1="130.30650501" x2="131.651699622" y1="562.310518779" y2="563.800926843" /><line stroke="rgb(0%,0%,0%)" x1="138.303529501" x2="142.010224338" y1="582.410751502" y2="587.913386371" /><line stroke="rgb(0%,0%,0%)" x1="75.9962117638" x2="74.5541423096" y1="461.973826545" y2="466.000651606" /><line stroke="rgb(0%,0%,0%)" x1="85.3130267491" x2="88.4100824232" y1="519.272141633" y2="522.974252913" /><line stroke="rgb(0%,0%,0%)" x1="103.24977962" x2="95.4928629553" y1="539.153006542" y2="530.976675827" /><line stroke="rgb(0%,0%,0%)" x1="92.5804324439" x2="95.4928629553" y1="527.254708317" y2="530.976675827" /><line stroke="rgb(0%,0%,0%)" x1="103.24977962" x2="111.577285072" y1="539.153006542" y2="549.79472058" /><line stroke="rgb(0%,0%,0%)" x1="127.900045016" x2="130.30650501" y1="560.695294693" y2="562.310518779" /><line stroke="rgb(0%,0%,0%)" x1="65.0279878006" x2="72.9048953378" y1="499.187236686" y2="507.676104906" /><line stroke="rgb(0%,0%,0%)" x1="63.996291057" x2="65.0279878006" y1="496.040031855" y2="499.187236686" /><line stroke="rgb(0%,0%,0%)" x1="63.996291057" x2="62.9483044996" y1="496.040031855" y2="489.763314102" /><line stroke="rgb(0%,0%,0%)" x1="63.4791203658" x2="62.9483044996" y1="488.340965716" y2="489.763314102" /><line stroke="rgb(0%,0%,0%)" x1="63.4791203658" x2="64.7531147093" y1="488.340965716" y2="483.319480978" /><line stroke="rgb(0%,0%,0%)" x1="73.7928426964" x2="66.8451135645" y1="467.717608235" y2="478.777359885" /><line stroke="rgb(0%,0%,0%)" x1="74.5541423096" x2="73.7928426964" y1="466.000651606" y2="467.717608235" /><line stroke="rgb(0%,0%,0%)" x1="82.4957968845" x2="85.3130267491" y1="517.498012087" y2="519.272141633" /><line stroke="rgb(0%,0%,0%)" x1="82.4957968845" x2="73.9993303384" y1="517.498012087" y2="508.432049261" /><line stroke="rgb(0%,0%,0%)" x1="65.8601073712" x2="64.7531147093" y1="481.338608352" y2="483.319480978" /><line stroke="rgb(0%,0%,0%)" x1="66.8451135645" x2="65.8601073712" y1="478.777359885" y2="481.338608352" /><line stroke="rgb(0%,0%,0%)" x1="76.0588648574" x2="75.9962117638" y1="460.606381468" y2="461.973826545" /><line stroke="rgb(0%,0%,0%)" x1="88.4100824232" x2="92.5804324439" y1="522.974252913" y2="527.254708317" /><line stroke="rgb(0%,0%,0%)" x1="72.9048953378" x2="73.2616333637" y1="507.676104906" y2="507.962786318" /><line stroke="rgb(0%,0%,0%)" x1="73.2616333637" x2="73.9993303384" y1="507.962786318" y2="508.432049261" /><line stroke="rgb(0%,0%,0%)" x1="407.461183147" x2="408.800682818" y1="613.730832979" y2="612.936387806" /><line stroke="rgb(0%,0%,0%)" x1="408.800682818" x2="415.970535254" y1="612.936387806" y2="607.114271559" /><line stroke="rgb(0%,0%,0%)" x1="415.970535254" x2="419.092086469" y1="607.114271559" y2="603.564034465" /><line stroke="rgb(0%,0%,0%)" x1="419.092086469" x2="423.055622158" y1="603.564034465" y2="600.188573877" /><line stroke="rgb(0%,0%,0%)" x1="423.055622158" x2="426.822028986" y1="600.188573877" y2="596.359458576" /><line stroke="rgb(0%,0%,0%)" x1="426.822028986" x2="427.76241835" y1="596.359458576" y2="595.318976296" /><line stroke="rgb(0%,0%,0%)" x1="432.396777619" x2="435.324931647" y1="586.222709349" y2="576.439313004" /><line stroke="rgb(0%,0%,0%)" x1="435.324931647" x2="436.254303352" y1="576.439313004" y2="573.928882067" /><line stroke="rgb(0%,0%,0%)" x1="436.254303352" x2="439.224933437" y1="573.928882067" y2="570.161647449" /><line stroke="rgb(0%,0%,0%)" x1="439.517146574" x2="440.005485045" y1="569.977553371" y2="569.246525203" /><line stroke="rgb(0%,0%,0%)" x1="440.005485045" x2="441.499680169" y1="569.246525203" y2="566.023447796" /><line stroke="rgb(0%,0%,0%)" x1="442.37226251" x2="441.499680169" y1="564.065363377" y2="566.023447796" /><line stroke="rgb(0%,0%,0%)" x1="388.350038707" x2="387.711608802" y1="623.570189727" y2="623.985030042" /><line stroke="rgb(0%,0%,0%)" x1="388.350038707" x2="389.106034415" y1="623.570189727" y2="623.072393772" /><line stroke="rgb(0%,0%,0%)" x1="389.106034415" x2="392.724472392" y1="623.072393772" y2="621.106038816" /><line stroke="rgb(0%,0%,0%)" x1="392.724472392" x2="396.866581681" y1="621.106038816" y2="619.315737243" /><line stroke="rgb(0%,0%,0%)" x1="407.461183147" x2="401.01759066" y1="613.730832979" y2="616.962368293" /><line stroke="rgb(0%,0%,0%)" x1="396.866581681" x2="401.01759066" y1="619.315737243" y2="616.962368293" /><line stroke="rgb(0%,0%,0%)" x1="427.76241835" x2="432.396777619" y1="595.318976296" y2="586.222709349" /><line stroke="rgb(0%,0%,0%)" x1="439.224933437" x2="439.517146574" y1="570.161647449" y2="569.977553371" /><line stroke="rgb(0%,0%,0%)" x1="289.401848281" x2="290.34019978" y1="650.986143931" y2="650.672058224" /><line stroke="rgb(0%,0%,0%)" x1="309.133825994" x2="308.704117189" y1="646.619215627" y2="646.620446498" /><line stroke="rgb(0%,0%,0%)" x1="309.133825994" x2="311.740960902" y1="646.619215627" y2="647.09170515" /><line stroke="rgb(0%,0%,0%)" x1="290.34019978" x2="296.170250413" y1="650.672058224" y2="649.479677541" /><line stroke="rgb(0%,0%,0%)" x1="297.362171" x2="296.170250413" y1="649.305325335" y2="649.479677541" /><line stroke="rgb(0%,0%,0%)" x1="297.362171" x2="308.704117189" y1="649.305325335" y2="646.620446498" /><line stroke="rgb(0%,0%,0%)" x1="311.740960902" x2="312.057212995" y1="647.09170515" y2="647.019967398" /><line stroke="rgb(0%,0%,0%)" x1="312.324387332" x2="312.057212995" y1="647.08840971" y2="647.019967398" /><line stroke="rgb(0%,0%,0%)" x1="319.234157013" x2="319.29562132" y1="904.252916741" y2="901.510701376" /><line stroke="rgb(0%,0%,0%)" x1="320.179001999" x2="319.29562132" y1="896.919895705" y2="901.510701376" /><line stroke="rgb(0%,0%,0%)" x1="320.040273369" x2="320.298805884" y1="886.012120035" y2="888.268824999" /><line stroke="rgb(0%,0%,0%)" x1="320.040273369" x2="319.711360374" y1="886.012120035" y2="885.030872049" /><line stroke="rgb(0%,0%,0%)" x1="319.711360374" x2="317.018342701" y1="885.030872049" y2="877.438398752" /><line stroke="rgb(0%,0%,0%)" x1="317.018342701" x2="316.974158261" y1="877.438398752" y2="877.36600324" /><line stroke="rgb(0%,0%,0%)" x1="316.86982101" x2="316.974158261" y1="876.955401467" y2="877.36600324" /><line stroke="rgb(0%,0%,0%)" x1="316.86982101" x2="316.154474138" y1="876.955401467" y2="876.538217855" /><line stroke="rgb(0%,0%,0%)" x1="311.033986226" x2="310.378384808" y1="877.046543404" y2="875.990573975" /><line stroke="rgb(0%,0%,0%)" x1="312.542091759" x2="313.114676463" y1="647.116560044" y2="647.226682945" /><line stroke="rgb(0%,0%,0%)" x1="313.114676463" x2="314.222968536" y1="647.226682945" y2="647.439754842" /><line stroke="rgb(0%,0%,0%)" x1="312.542091759" x2="312.324387332" y1="647.116560044" y2="647.08840971" /><line stroke="rgb(0%,0%,0%)" x1="324.998291094" x2="331.708610413" y1="647.773690753" y2="647.13332021" /><line stroke="rgb(0%,0%,0%)" x1="321.053556775" x2="324.998291094" y1="647.374651734" y2="647.773690753" /><line stroke="rgb(0%,0%,0%)" x1="314.222968536" x2="321.053556775" y1="647.439754842" y2="647.374651734" /><line stroke="rgb(0%,0%,0%)" x1="333.076332931" x2="335.359739012" y1="646.85977762" y2="647.10140843" /><line stroke="rgb(0%,0%,0%)" x1="331.708610413" x2="333.076332931" y1="647.13332021" y2="646.85977762" /><line stroke="rgb(0%,0%,0%)" x1="351.867754223" x2="352.299690476" y1="642.739016247" y2="642.668747396" /><line stroke="rgb(0%,0%,0%)" x1="238.457876663" x2="240.701092728" y1="641.7935766" y2="642.002976162" /><line stroke="rgb(0%,0%,0%)" x1="236.674628917" x2="234.022144052" y1="640.99219285" y2="640.599388643" /><line stroke="rgb(0%,0%,0%)" x1="236.674628917" x2="238.457876663" y1="640.99219285" y2="641.7935766" /><line stroke="rgb(0%,0%,0%)" x1="240.701092728" x2="242.73282302" y1="642.002976162" y2="642.547015307" /><line stroke="rgb(0%,0%,0%)" x1="289.401848281" x2="287.320566363" y1="650.986143931" y2="651.065225519" /><line stroke="rgb(0%,0%,0%)" x1="287.320566363" x2="284.542140185" y1="651.065225519" y2="651.089824981" /><line stroke="rgb(0%,0%,0%)" x1="281.906086447" x2="279.813010284" y1="651.556204684" y2="651.491231843" /><line stroke="rgb(0%,0%,0%)" x1="281.906086447" x2="284.542140185" y1="651.556204684" y2="651.089824981" /><line stroke="rgb(0%,0%,0%)" x1="273.274050532" x2="279.813010284" y1="649.972343283" y2="651.491231843" /><line stroke="rgb(0%,0%,0%)" x1="263.803815265" x2="264.598487241" y1="646.153187951" y2="646.717524948" /><line stroke="rgb(0%,0%,0%)" x1="262.137915994" x2="263.803815265" y1="645.288477652" y2="646.153187951" /><line stroke="rgb(0%,0%,0%)" x1="300.806819283" x2="295.516004607" y1="934.051131761" y2="936.141948529" /><line stroke="rgb(0%,0%,0%)" x1="294.007002184" x2="295.516004607" y1="936.210548164" y2="936.141948529" /><line stroke="rgb(0%,0%,0%)" x1="293.172360316" x2="294.007002184" y1="935.693832127" y2="936.210548164" /><line stroke="rgb(0%,0%,0%)" x1="291.608787626" x2="293.172360316" y1="932.437186195" y2="935.693832127" /><line stroke="rgb(0%,0%,0%)" x1="300.806819283" x2="302.990394491" y1="934.051131761" y2="932.936586149" /><line stroke="rgb(0%,0%,0%)" x1="291.608787626" x2="291.2498143" y1="932.437186195" y2="930.766126333" /><line stroke="rgb(0%,0%,0%)" x1="292.108634702" x2="291.2498143" y1="921.624906808" y2="930.766126333" /><line stroke="rgb(0%,0%,0%)" x1="292.437413854" x2="292.108634702" y1="918.539015579" y2="921.624906808" /><line stroke="rgb(0%,0%,0%)" x1="292.437413854" x2="293.050220554" y1="918.539015579" y2="914.885867445" /><line stroke="rgb(0%,0%,0%)" x1="292.584309574" x2="293.050220554" y1="905.342952475" y2="914.885867445" /><line stroke="rgb(0%,0%,0%)" x1="292.90251148" x2="292.584309574" y1="894.691675613" y2="905.342952475" /><line stroke="rgb(0%,0%,0%)" x1="293.933515911" x2="292.90251148" y1="888.816759425" y2="894.691675613" /><line stroke="rgb(0%,0%,0%)" x1="299.293966193" x2="298.183805747" y1="885.531651717" y2="886.919134067" /><line stroke="rgb(0%,0%,0%)" x1="293.933515911" x2="298.183805747" y1="888.816759425" y2="886.919134067" /><line stroke="rgb(0%,0%,0%)" x1="300.40146164" x2="299.293966193" y1="882.539058634" y2="885.531651717" /><line stroke="rgb(0%,0%,0%)" x1="301.873514336" x2="300.40146164" y1="875.094182303" y2="882.539058634" /><line stroke="rgb(0%,0%,0%)" x1="303.810663073" x2="301.873514336" y1="874.288002526" y2="875.094182303" /><line stroke="rgb(0%,0%,0%)" x1="303.810663073" x2="304.086433821" y1="874.288002526" y2="874.028995952" /><line stroke="rgb(0%,0%,0%)" x1="302.990394491" x2="305.40250578" y1="932.936586149" y2="930.860841433" /><line stroke="rgb(0%,0%,0%)" x1="305.40250578" x2="307.638755939" y1="930.860841433" y2="928.525921454" /><line stroke="rgb(0%,0%,0%)" x1="317.175409556" x2="319.234157013" y1="909.998672883" y2="904.252916741" /><line stroke="rgb(0%,0%,0%)" x1="320.179001999" x2="319.667981854" y1="896.919895705" y2="893.688832227" /><line stroke="rgb(0%,0%,0%)" x1="319.667981854" x2="320.298805884" y1="893.688832227" y2="888.268824999" /><line stroke="rgb(0%,0%,0%)" x1="316.154474138" x2="311.033986226" y1="876.538217855" y2="877.046543404" /><line stroke="rgb(0%,0%,0%)" x1="309.914680111" x2="306.4402286" y1="876.585720541" y2="879.148769612" /><line stroke="rgb(0%,0%,0%)" x1="306.4402286" x2="306.237898473" y1="879.148769612" y2="877.160192944" /><line stroke="rgb(0%,0%,0%)" x1="306.237898473" x2="305.589485192" y1="877.160192944" y2="873.63170986" /><line stroke="rgb(0%,0%,0%)" x1="309.914680111" x2="310.378384808" y1="876.585720541" y2="875.990573975" /><line stroke="rgb(0%,0%,0%)" x1="304.62707873" x2="304.086433821" y1="873.62258076" y2="874.028995952" /><line stroke="rgb(0%,0%,0%)" x1="304.62707873" x2="305.589485192" y1="873.62258076" y2="873.63170986" /><line stroke="rgb(0%,0%,0%)" x1="175.223680952" x2="183.426118328" y1="613.296960746" y2="618.408873498" /><line stroke="rgb(0%,0%,0%)" x1="201.70002944" x2="190.783984952" y1="625.692351427" y2="622.402621821" /><line stroke="rgb(0%,0%,0%)" x1="220.203525003" x2="223.172552238" y1="637.07148714" y2="638.23959324" /><line stroke="rgb(0%,0%,0%)" x1="225.12020251" x2="223.172552238" y1="638.898961146" y2="638.23959324" /><line stroke="rgb(0%,0%,0%)" x1="209.630610398" x2="220.203525003" y1="630.685082831" y2="637.07148714" /><line stroke="rgb(0%,0%,0%)" x1="207.118019006" x2="209.630610398" y1="629.624643001" y2="630.685082831" /><line stroke="rgb(0%,0%,0%)" x1="201.70002944" x2="207.118019006" y1="625.692351427" y2="629.624643001" /><line stroke="rgb(0%,0%,0%)" x1="232.350204685" x2="234.022144052" y1="640.569705054" y2="640.599388643" /><line stroke="rgb(0%,0%,0%)" x1="242.73282302" x2="245.991838992" y1="642.547015307" y2="643.172317014" /><line stroke="rgb(0%,0%,0%)" x1="229.024284241" x2="232.350204685" y1="639.977552817" y2="640.569705054" /><line stroke="rgb(0%,0%,0%)" x1="225.12020251" x2="229.024284241" y1="638.898961146" y2="639.977552817" /><line stroke="rgb(0%,0%,0%)" x1="245.991838992" x2="252.574594674" y1="643.172317014" y2="644.124053202" /><line stroke="rgb(0%,0%,0%)" x1="258.69374536" x2="259.750986213" y1="644.025927144" y2="644.498161194" /><line stroke="rgb(0%,0%,0%)" x1="259.750986213" x2="262.137915994" y1="644.498161194" y2="645.288477652" /><line stroke="rgb(0%,0%,0%)" x1="256.144277666" x2="258.69374536" y1="644.284116814" y2="644.025927144" /><line stroke="rgb(0%,0%,0%)" x1="255.528667379" x2="256.144277666" y1="644.364583459" y2="644.284116814" /><line stroke="rgb(0%,0%,0%)" x1="252.574594674" x2="255.528667379" y1="644.124053202" y2="644.364583459" /><line stroke="rgb(0%,0%,0%)" x1="142.527926239" x2="142.010224338" y1="588.364693462" y2="587.913386371" /><line stroke="rgb(0%,0%,0%)" x1="142.597704989" x2="142.527926239" y1="588.424352508" y2="588.364693462" /><line stroke="rgb(0%,0%,0%)" x1="152.078612599" x2="161.094708641" y1="596.806119109" y2="604.1329976" /><line stroke="rgb(0%,0%,0%)" x1="147.602441493" x2="152.078612599" y1="592.805354586" y2="596.806119109" /><line stroke="rgb(0%,0%,0%)" x1="142.597704989" x2="147.602441493" y1="588.424352508" y2="592.805354586" /><line stroke="rgb(0%,0%,0%)" x1="183.426118328" x2="189.085485357" y1="618.408873498" y2="621.809704265" /><line stroke="rgb(0%,0%,0%)" x1="171.025252852" x2="175.223680952" y1="610.12336674" y2="613.296960746" /><line stroke="rgb(0%,0%,0%)" x1="161.094708641" x2="171.025252852" y1="604.1329976" y2="610.12336674" /><line stroke="rgb(0%,0%,0%)" x1="189.413209938" x2="190.783984952" y1="621.961989818" y2="622.402621821" /><line stroke="rgb(0%,0%,0%)" x1="189.085485357" x2="189.413209938" y1="621.809704265" y2="621.961989818" /><line stroke="rgb(0%,0%,0%)" x1="75.6451937911" x2="76.0588648574" y1="456.322443248" y2="460.606381468" /><line stroke="rgb(0%,0%,0%)" x1="75.6451937911" x2="75.6882575284" y1="456.322443248" y2="455.822776303" /></svg>