<?xml version="1.0" encoding="utf-8" ?>
<svg baseProfile="full" height="100%" version="1.1" viewBox="0.5 0.5 685.793960571 941.299331665" width="100%" xmlns="http://www.w3.org/2000/svg" xmlns:ev="http://www.w3.org/2001/xml-events" xmlns:xlink="http://www.w3.org/1999/xlink"><defs /><line stroke="rgb(0%,0%,0%)" x1="475.905913996" x2="477.285172534" y1="416.641598806" y2="419.067010745" /><line stroke="rgb(0%,0%,0%)" x1="475.905913996" x2="473.868547363" y1="416.641598806" y2="413.530155654" /><line stroke="rgb(0%,0%,0%)" x1="483.253636529" x2="485.963685942" y1="443.200459834" y2="455.078399239" /><line stroke="rgb(0%,0%,0%)" x1="484.90826447" x2="485.995994531" y1="464.769266715" y2="456.706300921" /><line stroke="rgb(0%,0%,0%)" x1="441.222816013" x2="441.79733582" y1="373.367207509" y2="373.858692112" /><line stroke="rgb(0%,0%,0%)" x1="454.660319727" x2="459.032216379" y1="387.893205856" y2="393.40180873" /><line stroke="rgb(0%,0%,0%)" x1="473.868547363" x2="470.19728813" y1="413.530155654" y2="409.137420484" /><line stroke="rgb(0%,0%,0%)" x1="470.19728813" x2="463.829090717" y1="409.137420484" y2="399.670348" /><line stroke="rgb(0%,0%,0%)" x1="485.995994531" x2="485.963685942" y1="456.706300921" y2="455.078399239" /><line stroke="rgb(0%,0%,0%)" x1="483.253636529" x2="483.235426496" y1="443.200459834" y2="441.370703525" /><line stroke="rgb(0%,0%,0%)" x1="482.167951054" x2="483.235426496" y1="436.147538161" y2="441.370703525" /><line stroke="rgb(0%,0%,0%)" x1="482.167951054" x2="477.285172534" y1="436.147538161" y2="419.067010745" /><line stroke="rgb(0%,0%,0%)" x1="440.940711389" x2="436.135483528" y1="372.994533829" y2="367.050969801" /><line stroke="rgb(0%,0%,0%)" x1="448.743183399" x2="441.79733582" y1="381.352806291" y2="373.858692112" /><line stroke="rgb(0%,0%,0%)" x1="441.222816013" x2="440.940711389" y1="373.367207509" y2="372.994533829" /><line stroke="rgb(0%,0%,0%)" x1="463.829090717" x2="459.032216379" y1="399.670348" y2="393.40180873" /><line stroke="rgb(0%,0%,0%)" x1="450.983151086" x2="448.743183399" y1="383.060875844" y2="381.352806291" /><line stroke="rgb(0%,0%,0%)" x1="454.660319727" x2="450.983151086" y1="387.893205856" y2="383.060875844" /><line stroke="rgb(0%,0%,0%)" x1="339.124487115" x2="339.972918774" y1="282.511706557" y2="282.876373118" /><line stroke="rgb(0%,0%,0%)" x1="338.459652529" x2="339.124487115" y1="282.356008625" y2="282.511706557" /><line stroke="rgb(0%,0%,0%)" x1="359.474471782" x2="356.785705479" y1="290.469246386" y2="289.256940475" /><line stroke="rgb(0%,0%,0%)" x1="339.972918774" x2="341.08177079" y1="282.876373118" y2="283.533709025" /><line stroke="rgb(0%,0%,0%)" x1="360.042461271" x2="360.689494285" y1="290.660539391" y2="291.060997749" /><line stroke="rgb(0%,0%,0%)" x1="359.756872403" x2="360.042461271" y1="290.534513467" y2="290.660539391" /><line stroke="rgb(0%,0%,0%)" x1="359.756872403" x2="359.474471782" y1="290.534513467" y2="290.469246386" /><line stroke="rgb(0%,0%,0%)" x1="373.25740957" x2="377.522298099" y1="300.572501509" y2="304.137958048" /><line stroke="rgb(0%,0%,0%)" x1="373.25740957" x2="369.912308807" y1="300.572501509" y2="298.470404267" /><line stroke="rgb(0%,0%,0%)" x1="369.912308807" x2="360.689494285" y1="298.470404267" y2="291.060997749" /><line stroke="rgb(0%,0%,0%)" x1="378.172865681" x2="377.522298099" y1="304.645758513" y2="304.137958048" /><line stroke="rgb(0%,0%,0%)" x1="326.901461203" x2="321.027835501" y1="278.9858949" y2="277.874850007" /><line stroke="rgb(0%,0%,0%)" x1="321.027835501" x2="320.130942779" y1="277.874850007" y2="278.053796452" /><line stroke="rgb(0%,0%,0%)" x1="326.901461203" x2="335.193259267" y1="278.9858949" y2="280.376157981" /><line stroke="rgb(0%,0%,0%)" x1="338.459652529" x2="337.664127137" y1="282.356008625" y2="281.537418899" /><line stroke="rgb(0%,0%,0%)" x1="337.664127137" x2="335.573011789" y1="281.537418899" y2="280.546445928" /><line stroke="rgb(0%,0%,0%)" x1="335.573011789" x2="335.193259267" y1="280.546445928" y2="280.376157981" /><line stroke="rgb(0%,0%,0%)" x1="345.335537766" x2="342.376157264" y1="286.077631212" y2="284.251424966" /><line stroke="rgb(0%,0%,0%)" x1="345.335537766" x2="351.241090953" y1="286.077631212" y2="287.159074363" /><line stroke="rgb(0%,0%,0%)" x1="342.376157264" x2="341.08177079" y1="284.251424966" y2="283.533709025" /><line stroke="rgb(0%,0%,0%)" x1="356.785705479" x2="351.241090953" y1="289.256940475" y2="287.159074363" /><line stroke="rgb(0%,0%,0%)" x1="320.130942779" x2="319.392544752" y1="278.053796452" y2="278.111696411" /><line stroke="rgb(0%,0%,0%)" x1="262.877995177" x2="258.450018282" y1="281.39217317" y2="283.210408798" /><line stroke="rgb(0%,0%,0%)" x1="264.963540872" x2="262.877995177" y1="280.943297928" y2="281.39217317" /><line stroke="rgb(0%,0%,0%)" x1="268.249582146" x2="264.963540872" y1="280.438552706" y2="280.943297928" /><line stroke="rgb(0%,0%,0%)" x1="268.249582146" x2="271.989277182" y1="280.438552706" y2="279.765748673" /><line stroke="rgb(0%,0%,0%)" x1="220.941960843" x2="221.302978697" y1="285.073393815" y2="285.003372933" /><line stroke="rgb(0%,0%,0%)" x1="211.764533396" x2="205.111372682" y1="288.819815011" y2="289.728484332" /><line stroke="rgb(0%,0%,0%)" x1="220.941960843" x2="211.764533396" y1="285.073393815" y2="288.819815011" /><line stroke="rgb(0%,0%,0%)" x1="239.19186521" x2="246.280631357" y1="284.934051163" y2="283.961431024" /><line stroke="rgb(0%,0%,0%)" x1="239.19186521" x2="232.121566244" y1="284.934051163" y2="284.247855545" /><line stroke="rgb(0%,0%,0%)" x1="232.121566244" x2="231.146251036" y1="284.247855545" y2="284.664003928" /><line stroke="rgb(0%,0%,0%)" x1="252.816437034" x2="247.333388397" y1="285.149099919" y2="284.749565953" /><line stroke="rgb(0%,0%,0%)" x1="247.333388397" x2="246.280631357" y1="284.749565953" y2="283.961431024" /><line stroke="rgb(0%,0%,0%)" x1="252.816437034" x2="257.073485283" y1="285.149099919" y2="283.997406898" /><line stroke="rgb(0%,0%,0%)" x1="257.651826536" x2="257.073485283" y1="283.560364593" y2="283.997406898" /><line stroke="rgb(0%,0%,0%)" x1="257.95153598" x2="257.651826536" y1="283.37950537" y2="283.560364593" /><line stroke="rgb(0%,0%,0%)" x1="258.450018282" x2="257.95153598" y1="283.210408798" y2="283.37950537" /><line stroke="rgb(0%,0%,0%)" x1="187.826214233" x2="182.683377121" y1="293.810316868" y2="295.019469021" /><line stroke="rgb(0%,0%,0%)" x1="187.826214233" x2="195.341368821" y1="293.810316868" y2="292.634704586" /><line stroke="rgb(0%,0%,0%)" x1="205.111372682" x2="199.696430142" y1="289.728484332" y2="292.138322175" /><line stroke="rgb(0%,0%,0%)" x1="231.146251036" x2="221.302978697" y1="284.664003928" y2="285.003372933" /><line stroke="rgb(0%,0%,0%)" x1="165.288248282" x2="152.479706932" y1="308.019311935" y2="318.585258552" /><line stroke="rgb(0%,0%,0%)" x1="168.891347644" x2="165.288248282" y1="305.263292993" y2="308.019311935" /><line stroke="rgb(0%,0%,0%)" x1="168.891347644" x2="180.868160827" y1="305.263292993" y2="295.94443278" /><line stroke="rgb(0%,0%,0%)" x1="182.683377121" x2="180.868160827" y1="295.019469021" y2="295.94443278" /><line stroke="rgb(0%,0%,0%)" x1="199.696430142" x2="195.341368821" y1="292.138322175" y2="292.634704586" /><line stroke="rgb(0%,0%,0%)" x1="136.675047383" x2="134.01928815" y1="333.270934398" y2="336.658781011" /><line stroke="rgb(0%,0%,0%)" x1="83.3180934153" x2="88.9570355191" y1="403.79589465" y2="396.365974857" /><line stroke="rgb(0%,0%,0%)" x1="105.598783774" x2="102.227565854" y1="374.183413624" y2="378.824643776" /><line stroke="rgb(0%,0%,0%)" x1="108.851344424" x2="105.598783774" y1="370.169654137" y2="374.183413624" /><line stroke="rgb(0%,0%,0%)" x1="123.619478792" x2="122.301490916" y1="358.515398161" y2="361.426473262" /><line stroke="rgb(0%,0%,0%)" x1="122.301490916" x2="112.929923527" y1="361.426473262" y2="367.088901479" /><line stroke="rgb(0%,0%,0%)" x1="126.174008242" x2="124.786012589" y1="350.289728022" y2="349.224268982" /><line stroke="rgb(0%,0%,0%)" x1="126.174008242" x2="123.619478792" y1="350.289728022" y2="358.515398161" /><line stroke="rgb(0%,0%,0%)" x1="125.742788346" x2="124.786012589" y1="345.586427476" y2="349.224268982" /><line stroke="rgb(0%,0%,0%)" x1="125.742788346" x2="128.489096234" y1="345.586427476" y2="342.224309407" /><line stroke="rgb(0%,0%,0%)" x1="128.489096234" x2="133.813866335" y1="342.224309407" y2="337.086790153" /><line stroke="rgb(0%,0%,0%)" x1="112.929923527" x2="108.851344424" y1="367.088901479" y2="370.169654137" /><line stroke="rgb(0%,0%,0%)" x1="134.01928815" x2="133.813866335" y1="336.658781011" y2="337.086790153" /><line stroke="rgb(0%,0%,0%)" x1="138.288778765" x2="136.675047383" y1="331.236934588" y2="333.270934398" /><line stroke="rgb(0%,0%,0%)" x1="138.288778765" x2="148.598311595" y1="331.236934588" y2="321.723525998" /><line stroke="rgb(0%,0%,0%)" x1="152.479706932" x2="148.598311595" y1="318.585258552" y2="321.723525998" /><line stroke="rgb(0%,0%,0%)" x1="74.7477064782" x2="74.7094131845" y1="447.038194314" y2="446.968491952" /><line stroke="rgb(0%,0%,0%)" x1="74.7477064782" x2="74.8675866952" y1="447.038194314" y2="447.393395811" /><line stroke="rgb(0%,0%,0%)" x1="74.7094131845" x2="74.6321210227" y1="446.968491952" y2="446.70612837" /><line stroke="rgb(0%,0%,0%)" x1="68.5076732132" x2="74.6321210227" y1="432.432666081" y2="446.70612837" /><line stroke="rgb(0%,0%,0%)" x1="68.5076732132" x2="68.4477677132" y1="432.432666081" y2="430.481125538" /><line stroke="rgb(0%,0%,0%)" x1="74.8675866952" x2="76.2534873423" y1="447.393395811" y2="455.758863975" /><line stroke="rgb(0%,0%,0%)" x1="83.3180934153" x2="79.9735830438" y1="403.79589465" y2="407.764152273" /><line stroke="rgb(0%,0%,0%)" x1="79.9735830438" x2="76.0896482891" y1="407.764152273" y2="411.148266828" /><line stroke="rgb(0%,0%,0%)" x1="92.5694213839" x2="88.9570355191" y1="392.387999774" y2="396.365974857" /><line stroke="rgb(0%,0%,0%)" x1="95.5930529535" x2="92.5694213839" y1="387.445546805" y2="392.387999774" /><line stroke="rgb(0%,0%,0%)" x1="95.5930529535" x2="102.227565854" y1="387.445546805" y2="378.824643776" /><line stroke="rgb(0%,0%,0%)" x1="67.980852613" x2="68.4477677132" y1="425.757195964" y2="430.481125538" /><line stroke="rgb(0%,0%,0%)" x1="67.980852613" x2="69.3775970359" y1="425.757195964" y2="420.277222809" /><line stroke="rgb(0%,0%,0%)" x1="76.0896482891" x2="70.4834553244" y1="411.148266828" y2="417.47753622" /><line stroke="rgb(0%,0%,0%)" x1="70.4834553244" x2="69.3775970359" y1="417.47753622" y2="420.277222809" /><line stroke="rgb(0%,0%,0%)" x1="485.142259444" x2="484.404343792" y1="483.439117241" y2="487.003210845" /><line stroke="rgb(0%,0%,0%)" x1="485.142259444" x2="485.62392012" y1="483.439117241" y2="482.021522088" /><line stroke="rgb(0%,0%,0%)" x1="427.084581509" x2="427.044364052" y1="354.270272067" y2="354.098280972" /><line stroke="rgb(0%,0%,0%)" x1="466.836166327" x2="473.115924788" y1="531.888306239" y2="522.059231907" /><line stroke="rgb(0%,0%,0%)" x1="475.888559513" x2="475.350011572" y1="515.069524952" y2="517.856477767" /><line stroke="rgb(0%,0%,0%)" x1="479.957421533" x2="475.888559513" y1="506.284694787" y2="515.069524952" /><line stroke="rgb(0%,0%,0%)" x1="479.957421533" x2="482.866685453" y1="506.284694787" y2="495.927070629" /><line stroke="rgb(0%,0%,0%)" x1="482.866685453" x2="484.404343792" y1="495.927070629" y2="487.003210845" /><line stroke="rgb(0%,0%,0%)" x1="485.62392012" x2="485.937521796" y1="482.021522088" y2="477.250379323" /><line stroke="rgb(0%,0%,0%)" x1="485.937521796" x2="485.407411576" y1="477.250379323" y2="468.085443134" /><line stroke="rgb(0%,0%,0%)" x1="484.90826447" x2="485.407411576" y1="464.769266715" y2="468.085443134" /><line stroke="rgb(0%,0%,0%)" x1="427.084581509" x2="427.139084464" y1="354.270272067" y2="354.477296503" /><line stroke="rgb(0%,0%,0%)" x1="426.986473844" x2="423.183379381" y1="354.061260482" y2="343.156862567" /><line stroke="rgb(0%,0%,0%)" x1="426.986473844" x2="427.044364052" y1="354.061260482" y2="354.098280972" /><line stroke="rgb(0%,0%,0%)" x1="423.183379381" x2="420.402655731" y1="343.156862567" y2="338.342046335" /><line stroke="rgb(0%,0%,0%)" x1="435.769739972" x2="436.135483528" y1="366.378421916" y2="367.050969801" /><line stroke="rgb(0%,0%,0%)" x1="435.769739972" x2="431.404991655" y1="366.378421916" y2="361.049760718" /><line stroke="rgb(0%,0%,0%)" x1="431.404991655" x2="427.139084464" y1="361.049760718" y2="354.477296503" /><line stroke="rgb(0%,0%,0%)" x1="444.994711928" x2="442.277405442" y1="559.044544384" y2="563.285971076" /><line stroke="rgb(0%,0%,0%)" x1="444.994711928" x2="457.019461841" y1="559.044544384" y2="547.453228768" /><line stroke="rgb(0%,0%,0%)" x1="464.76469817" x2="458.118855739" y1="534.196990653" y2="546.370698504" /><line stroke="rgb(0%,0%,0%)" x1="465.777332575" x2="466.836166327" y1="532.900217883" y2="531.888306239" /><line stroke="rgb(0%,0%,0%)" x1="473.115924788" x2="475.350011572" y1="522.059231907" y2="517.856477767" /><line stroke="rgb(0%,0%,0%)" x1="394.516070694" x2="392.76609055" y1="314.051764947" y2="313.336630377" /><line stroke="rgb(0%,0%,0%)" x1="384.381404513" x2="386.123179879" y1="309.07530038" y2="310.300723052" /><line stroke="rgb(0%,0%,0%)" x1="384.381404513" x2="382.18406453" y1="309.07530038" y2="308.0097641" /><line stroke="rgb(0%,0%,0%)" x1="400.271066702" x2="402.523690443" y1="317.683508304" y2="319.195682852" /><line stroke="rgb(0%,0%,0%)" x1="400.271066702" x2="398.907980613" y1="317.683508304" y2="316.831043492" /><line stroke="rgb(0%,0%,0%)" x1="398.907980613" x2="394.516070694" y1="316.831043492" y2="314.051764947" /><line stroke="rgb(0%,0%,0%)" x1="419.646962759" x2="418.7959977" y1="336.817504445" y2="335.633854199" /><line stroke="rgb(0%,0%,0%)" x1="415.9442432" x2="418.7959977" y1="332.720577681" y2="335.633854199" /><line stroke="rgb(0%,0%,0%)" x1="414.726548428" x2="415.9442432" y1="331.496787901" y2="332.720577681" /><line stroke="rgb(0%,0%,0%)" x1="414.726548428" x2="412.913529902" y1="331.496787901" y2="329.537872015" /><line stroke="rgb(0%,0%,0%)" x1="406.320948274" x2="402.523690443" y1="322.820769239" y2="319.195682852" /><line stroke="rgb(0%,0%,0%)" x1="420.402655731" x2="419.646962759" y1="338.342046335" y2="336.817504445" /><line stroke="rgb(0%,0%,0%)" x1="441.632466042" x2="442.277405442" y1="564.147875742" y2="563.285971076" /><line stroke="rgb(0%,0%,0%)" x1="457.019461841" x2="457.952644939" y1="547.453228768" y2="546.607306758" /><line stroke="rgb(0%,0%,0%)" x1="457.952644939" x2="458.118855739" y1="546.607306758" y2="546.370698504" /><line stroke="rgb(0%,0%,0%)" x1="464.76469817" x2="465.777332575" y1="534.196990653" y2="532.900217883" /><line stroke="rgb(0%,0%,0%)" x1="360.131095327" x2="359.967817443" y1="640.637743216" y2="640.690498845" /><line stroke="rgb(0%,0%,0%)" x1="360.131095327" x2="360.320365184" y1="640.637743216" y2="640.59622594" /><line stroke="rgb(0%,0%,0%)" x1="360.320365184" x2="366.540797855" y1="640.59622594" y2="637.853390308" /><line stroke="rgb(0%,0%,0%)" x1="375.154045672" x2="371.385364117" y1="632.374050102" y2="635.63485461" /><line stroke="rgb(0%,0%,0%)" x1="375.154045672" x2="376.817271586" y1="632.374050102" y2="631.755389177" /><line stroke="rgb(0%,0%,0%)" x1="378.172865681" x2="381.568825187" y1="304.645758513" y2="307.63067174" /><line stroke="rgb(0%,0%,0%)" x1="376.817271586" x2="377.5998241" y1="631.755389177" y2="631.214814764" /><line stroke="rgb(0%,0%,0%)" x1="377.5998241" x2="381.948100001" y1="631.214814764" y2="627.683539543" /><line stroke="rgb(0%,0%,0%)" x1="381.948100001" x2="385.656130864" y1="627.683539543" y2="625.397352506" /><line stroke="rgb(0%,0%,0%)" x1="385.656130864" x2="387.641032842" y1="625.397352506" y2="623.491958256" /><line stroke="rgb(0%,0%,0%)" x1="392.76609055" x2="386.123179879" y1="313.336630377" y2="310.300723052" /><line stroke="rgb(0%,0%,0%)" x1="382.18406453" x2="381.568825187" y1="308.0097641" y2="307.63067174" /><line stroke="rgb(0%,0%,0%)" x1="412.913529902" x2="407.619745331" y1="329.537872015" y2="324.101194305" /><line stroke="rgb(0%,0%,0%)" x1="407.619745331" x2="406.320948274" y1="324.101194305" y2="322.820769239" /><line stroke="rgb(0%,0%,0%)" x1="319.392544752" x2="317.397494549" y1="278.111696411" y2="277.877211314" /><line stroke="rgb(0%,0%,0%)" x1="343.643548051" x2="340.674770057" y1="644.387983255" y2="645.130635698" /><line stroke="rgb(0%,0%,0%)" x1="346.624575561" x2="346.172014809" y1="643.108697395" y2="644.072842533" /><line stroke="rgb(0%,0%,0%)" x1="343.643548051" x2="346.172014809" y1="644.387983255" y2="644.072842533" /><line stroke="rgb(0%,0%,0%)" x1="346.624575561" x2="350.411922317" y1="643.108697395" y2="642.535638736" /><line stroke="rgb(0%,0%,0%)" x1="351.702633671" x2="359.03187412" y1="642.325661445" y2="640.907156897" /><line stroke="rgb(0%,0%,0%)" x1="359.967817443" x2="359.03187412" y1="640.690498845" y2="640.907156897" /><line stroke="rgb(0%,0%,0%)" x1="366.540797855" x2="371.119161778" y1="637.853390308" y2="635.797187389" /><line stroke="rgb(0%,0%,0%)" x1="371.235549284" x2="371.289610498" y1="635.744947859" y2="635.703515559" /><line stroke="rgb(0%,0%,0%)" x1="371.289610498" x2="371.385364117" y1="635.703515559" y2="635.63485461" /><line stroke="rgb(0%,0%,0%)" x1="371.119161778" x2="371.145295186" y1="635.797187389" y2="635.778834594" /><line stroke="rgb(0%,0%,0%)" x1="371.145295186" x2="371.235549284" y1="635.778834594" y2="635.744947859" /><line stroke="rgb(0%,0%,0%)" x1="287.934666285" x2="287.220345426" y1="281.398578989" y2="281.226167549" /><line stroke="rgb(0%,0%,0%)" x1="287.934666285" x2="288.583269296" y1="281.398578989" y2="281.371360077" /><line stroke="rgb(0%,0%,0%)" x1="280.722996396" x2="282.562673457" y1="278.950160358" y2="279.346827144" /><line stroke="rgb(0%,0%,0%)" x1="280.722996396" x2="277.375380508" y1="278.950160358" y2="279.310490346" /><line stroke="rgb(0%,0%,0%)" x1="295.275677413" x2="292.914028562" y1="281.330886538" y2="281.610211453" /><line stroke="rgb(0%,0%,0%)" x1="288.583269296" x2="289.118912324" y1="281.371360077" y2="281.447314377" /><line stroke="rgb(0%,0%,0%)" x1="298.679113384" x2="295.275677413" y1="280.437859612" y2="281.330886538" /><line stroke="rgb(0%,0%,0%)" x1="301.266830587" x2="298.679113384" y1="280.39442034" y2="280.437859612" /><line stroke="rgb(0%,0%,0%)" x1="310.650938529" x2="308.520414275" y1="277.933071416" y2="278.038454074" /><line stroke="rgb(0%,0%,0%)" x1="304.424912161" x2="308.520414275" y1="279.357713195" y2="278.038454074" /><line stroke="rgb(0%,0%,0%)" x1="301.266830587" x2="304.424912161" y1="280.39442034" y2="279.357713195" /><line stroke="rgb(0%,0%,0%)" x1="310.284983078" x2="315.445189836" y1="924.31560023" y2="915.120716453" /><line stroke="rgb(0%,0%,0%)" x1="315.462805894" x2="315.445189836" y1="915.07827992" y2="915.120716453" /><line stroke="rgb(0%,0%,0%)" x1="315.47535332" x2="315.468895993" y1="915.041062621" y2="914.986351664" /><line stroke="rgb(0%,0%,0%)" x1="315.462805894" x2="315.47535332" y1="915.07827992" y2="915.041062621" /><line stroke="rgb(0%,0%,0%)" x1="315.7695098" x2="311.743872586" y1="277.759290729" y2="277.746804143" /><line stroke="rgb(0%,0%,0%)" x1="311.743872586" x2="310.650938529" y1="277.746804143" y2="277.933071416" /><line stroke="rgb(0%,0%,0%)" x1="317.397494549" x2="315.7695098" y1="277.877211314" y2="277.759290729" /><line stroke="rgb(0%,0%,0%)" x1="265.029268789" x2="267.092667919" y1="646.537435801" y2="647.46309002" /><line stroke="rgb(0%,0%,0%)" x1="267.092667919" x2="271.473576347" y1="647.46309002" y2="649.117439695" /><line stroke="rgb(0%,0%,0%)" x1="272.045673185" x2="271.989277182" y1="279.75158765" y2="279.765748673" /><line stroke="rgb(0%,0%,0%)" x1="271.473576347" x2="272.689251481" y1="649.117439695" y2="649.640765105" /><line stroke="rgb(0%,0%,0%)" x1="287.220345426" x2="283.81159424" y1="281.226167549" y2="279.879976058" /><line stroke="rgb(0%,0%,0%)" x1="282.562673457" x2="283.81159424" y1="279.346827144" y2="279.879976058" /><line stroke="rgb(0%,0%,0%)" x1="275.202020808" x2="272.045673185" y1="279.379937218" y2="279.75158765" /><line stroke="rgb(0%,0%,0%)" x1="277.375380508" x2="275.202020808" y1="279.310490346" y2="279.379937218" /><line stroke="rgb(0%,0%,0%)" x1="292.914028562" x2="289.118912324" y1="281.610211453" y2="281.447314377" /><line stroke="rgb(0%,0%,0%)" x1="310.284983078" x2="309.263976723" y1="924.31560023" y2="925.607233321" /><line stroke="rgb(0%,0%,0%)" x1="120.673814597" x2="125.149969748" y1="555.259082938" y2="558.433962609" /><line stroke="rgb(0%,0%,0%)" x1="119.914641437" x2="120.673814597" y1="554.915964096" y2="555.259082938" /><line stroke="rgb(0%,0%,0%)" x1="114.180071246" x2="119.914641437" y1="551.38009398" y2="554.915964096" /><line stroke="rgb(0%,0%,0%)" x1="114.180071246" x2="112.535453435" y1="551.38009398" y2="550.098621826" /><line stroke="rgb(0%,0%,0%)" x1="138.008323506" x2="138.364467403" y1="580.810853065" y2="581.38222805" /><line stroke="rgb(0%,0%,0%)" x1="138.008323506" x2="137.090216282" y1="580.810853065" y2="579.182525971" /><line stroke="rgb(0%,0%,0%)" x1="137.173072474" x2="137.090216282" y1="574.626917768" y2="579.182525971" /><line stroke="rgb(0%,0%,0%)" x1="137.173072474" x2="134.192274735" y1="574.626917768" y2="567.059033566" /><line stroke="rgb(0%,0%,0%)" x1="133.107739078" x2="134.192274735" y1="565.021430505" y2="567.059033566" /><line stroke="rgb(0%,0%,0%)" x1="130.254398471" x2="133.107739078" y1="561.86007243" y2="565.021430505" /><line stroke="rgb(0%,0%,0%)" x1="138.364467403" x2="142.666333077" y1="581.38222805" y2="587.768401473" /><line stroke="rgb(0%,0%,0%)" x1="76.6378769582" x2="75.3539293715" y1="462.215761174" y2="465.801047793" /><line stroke="rgb(0%,0%,0%)" x1="86.1376695702" x2="89.075836976" y1="519.2770256" y2="522.78920744" /><line stroke="rgb(0%,0%,0%)" x1="103.747431313" x2="97.183330615" y1="538.868413823" y2="531.949394258" /><line stroke="rgb(0%,0%,0%)" x1="93.8495393534" x2="97.183330615" y1="527.688944881" y2="531.949394258" /><line stroke="rgb(0%,0%,0%)" x1="103.747431313" x2="112.535453435" y1="538.868413823" y2="550.098621826" /><line stroke="rgb(0%,0%,0%)" x1="125.149969748" x2="130.254398471" y1="558.433962609" y2="561.86007243" /><line stroke="rgb(0%,0%,0%)" x1="65.6929834359" x2="73.214835743" y1="499.375158805" y2="507.481387385" /><line stroke="rgb(0%,0%,0%)" x1="64.5273864188" x2="65.6929834359" y1="495.819489384" y2="499.375158805" /><line stroke="rgb(0%,0%,0%)" x1="64.5273864188" x2="63.5964408918" y1="495.819489384" y2="490.243766799" /><line stroke="rgb(0%,0%,0%)" x1="64.2745009665" x2="63.5964408918" y1="488.42686999" y2="490.243766799" /><line stroke="rgb(0%,0%,0%)" x1="64.2745009665" x2="65.468571036" y1="488.42686999" y2="483.72040904" /><line stroke="rgb(0%,0%,0%)" x1="74.4610297308" x2="68.2147334639" y1="467.814801552" y2="477.757976384" /><line stroke="rgb(0%,0%,0%)" x1="75.3539293715" x2="74.4610297308" y1="465.801047793" y2="467.814801552" /><line stroke="rgb(0%,0%,0%)" x1="83.0387446583" x2="86.1376695702" y1="517.325500694" y2="519.2770256" /><line stroke="rgb(0%,0%,0%)" x1="83.0387446583" x2="74.9109517805" y1="517.325500694" y2="508.652922783" /><line stroke="rgb(0%,0%,0%)" x1="66.9217179383" x2="65.468571036" y1="481.120121775" y2="483.72040904" /><line stroke="rgb(0%,0%,0%)" x1="68.2147334639" x2="66.9217179383" y1="477.757976384" y2="481.120121775" /><line stroke="rgb(0%,0%,0%)" x1="76.7082147552" x2="76.6378769582" y1="460.680592376" y2="462.215761174" /><line stroke="rgb(0%,0%,0%)" x1="89.075836976" x2="93.8495393534" y1="522.78920744" y2="527.688944881" /><line stroke="rgb(0%,0%,0%)" x1="73.214835743" x2="73.7676955169" y1="507.481387385" y2="507.925675935" /><line stroke="rgb(0%,0%,0%)" x1="73.7676955169" x2="74.9109517805" y1="507.925675935" y2="508.652922783" /><line stroke="rgb(0%,0%,0%)" x1="406.910515805" x2="407.497493506" y1="613.680549064" y2="613.332417884" /><line stroke="rgb(0%,0%,0%)" x1="407.497493506" x2="415.430013749" y1="613.332417884" y2="606.890994521" /><line stroke="rgb(0%,0%,0%)" x1="415.430013749" x2="418.010005784" y1="606.890994521" y2="603.956689494" /><line stroke="rgb(0%,0%,0%)" x1="418.010005784" x2="422.435115552" y1="603.956689494" y2="600.188139192" /><line stroke="rgb(0%,0%,0%)" x1="422.435115552" x2="425.781667716" y1="600.188139192" y2="596.78586889" /><line stroke="rgb(0%,0%,0%)" x1="431.590605955" x2="434.22562253" y1="585.645929012" y2="576.841948319" /><line stroke="rgb(0%,0%,0%)" x1="434.22562253" x2="435.365687829" y1="576.841948319" y2="573.762389107" /><line stroke="rgb(0%,0%,0%)" x1="435.365687829" x2="438.061640355" y1="573.762389107" y2="570.343489616" /><line stroke="rgb(0%,0%,0%)" x1="438.634559714" x2="439.592006616" y1="569.982550808" y2="568.549281269" /><line stroke="rgb(0%,0%,0%)" x1="439.592006616" x2="441.632466042" y1="568.549281269" y2="564.147875742" /><line stroke="rgb(0%,0%,0%)" x1="387.944855376" x2="387.641032842" y1="623.294539817" y2="623.491958256" /><line stroke="rgb(0%,0%,0%)" x1="387.944855376" x2="388.304626322" y1="623.294539817" y2="623.057643601" /><line stroke="rgb(0%,0%,0%)" x1="388.304626322" x2="390.026605485" y1="623.057643601" y2="622.121874553" /><line stroke="rgb(0%,0%,0%)" x1="390.026605485" x2="397.049203679" y1="622.121874553" y2="619.086568694" /><line stroke="rgb(0%,0%,0%)" x1="406.910515805" x2="404.086890549" y1="613.680549064" y2="615.096629418" /><line stroke="rgb(0%,0%,0%)" x1="397.049203679" x2="404.086890549" y1="619.086568694" y2="615.096629418" /><line stroke="rgb(0%,0%,0%)" x1="425.781667716" x2="426.404024741" y1="596.78586889" y2="595.998852207" /><line stroke="rgb(0%,0%,0%)" x1="426.404024741" x2="426.611564758" y1="595.998852207" y2="595.418733676" /><line stroke="rgb(0%,0%,0%)" x1="431.590605955" x2="426.611564758" y1="585.645929012" y2="595.418733676" /><line stroke="rgb(0%,0%,0%)" x1="438.061640355" x2="438.634559714" y1="570.343489616" y2="569.982550808" /><line stroke="rgb(0%,0%,0%)" x1="289.334357865" x2="290.133488817" y1="650.745219514" y2="650.477733811" /><line stroke="rgb(0%,0%,0%)" x1="309.771068712" x2="309.523284009" y1="646.180649659" y2="646.181359422" /><line stroke="rgb(0%,0%,0%)" x1="309.771068712" x2="312.531781538" y1="646.180649659" y2="646.680972018" /><line stroke="rgb(0%,0%,0%)" x1="290.133488817" x2="296.413252198" y1="650.477733811" y2="649.193376433" /><line stroke="rgb(0%,0%,0%)" x1="297.423892424" x2="296.413252198" y1="649.045541624" y2="649.193376433" /><line stroke="rgb(0%,0%,0%)" x1="297.423892424" x2="309.523284009" y1="649.045541624" y2="646.181359422" /><line stroke="rgb(0%,0%,0%)" x1="312.531781538" x2="312.568915765" y1="646.680972018" y2="646.672548593" /><line stroke="rgb(0%,0%,0%)" x1="312.600287296" x2="312.568915765" y1="646.680585068" y2="646.672548593" /><line stroke="rgb(0%,0%,0%)" x1="318.109409886" x2="318.156159448" y1="904.523545143" y2="902.437824636" /><line stroke="rgb(0%,0%,0%)" x1="318.828056054" x2="318.156159448" y1="898.946072073" y2="902.437824636" /><line stroke="rgb(0%,0%,0%)" x1="309.308125161" x2="309.045800581" y1="880.595840717" y2="880.173317627" /><line stroke="rgb(0%,0%,0%)" x1="312.625850085" x2="312.69308281" y1="646.683890472" y2="646.696821071" /><line stroke="rgb(0%,0%,0%)" x1="312.69308281" x2="312.823218136" y1="646.696821071" y2="646.721839909" /><line stroke="rgb(0%,0%,0%)" x1="312.625850085" x2="312.600287296" y1="646.683890472" y2="646.680585068" /><line stroke="rgb(0%,0%,0%)" x1="325.39773823" x2="331.050987693" y1="647.111534399" y2="646.572040784" /><line stroke="rgb(0%,0%,0%)" x1="320.794336273" x2="325.39773823" y1="646.645866282" y2="647.111534399" /><line stroke="rgb(0%,0%,0%)" x1="312.823218136" x2="320.794336273" y1="646.721839909" y2="646.645866282" /><line stroke="rgb(0%,0%,0%)" x1="333.428881941" x2="336.916260216" y1="646.096465261" y2="646.465500819" /><line stroke="rgb(0%,0%,0%)" x1="340.674770057" x2="337.994143252" y1="645.130635698" y2="646.123890841" /><line stroke="rgb(0%,0%,0%)" x1="336.916260216" x2="337.994143252" y1="646.465500819" y2="646.123890841" /><line stroke="rgb(0%,0%,0%)" x1="331.050987693" x2="333.428881941" y1="646.572040784" y2="646.096465261" /><line stroke="rgb(0%,0%,0%)" x1="350.411922317" x2="351.702633671" y1="642.535638736" y2="642.325661445" /><line stroke="rgb(0%,0%,0%)" x1="237.869145251" x2="239.799326319" y1="641.292416999" y2="641.472595394" /><line stroke="rgb(0%,0%,0%)" x1="236.334745113" x2="234.052407646" y1="640.602864278" y2="640.264874882" /><line stroke="rgb(0%,0%,0%)" x1="236.334745113" x2="237.869145251" y1="640.602864278" y2="641.292416999" /><line stroke="rgb(0%,0%,0%)" x1="239.799326319" x2="241.547533906" y1="641.472595394" y2="641.940715285" /><line stroke="rgb(0%,0%,0%)" x1="289.334357865" x2="287.561869835" y1="650.745219514" y2="650.812567992" /><line stroke="rgb(0%,0%,0%)" x1="287.561869835" x2="285.195670857" y1="650.812567992" y2="650.833517702" /><line stroke="rgb(0%,0%,0%)" x1="282.122167733" x2="280.257866679" y1="651.377292455" y2="651.319421205" /><line stroke="rgb(0%,0%,0%)" x1="282.122167733" x2="285.195670857" y1="651.377292455" y2="650.833517702" /><line stroke="rgb(0%,0%,0%)" x1="280.257866679" x2="273.51300928" y1="651.319421205" y2="649.752706141" /><line stroke="rgb(0%,0%,0%)" x1="272.689251481" x2="273.51300928" y1="649.640765105" y2="649.752706141" /><line stroke="rgb(0%,0%,0%)" x1="264.5123548" x2="265.029268789" y1="646.170348882" y2="646.537435801" /><line stroke="rgb(0%,0%,0%)" x1="262.110951532" x2="264.5123548" y1="644.923864069" y2="646.170348882" /><line stroke="rgb(0%,0%,0%)" x1="300.638988985" x2="297.809016598" y1="933.279094564" y2="934.397439107" /><line stroke="rgb(0%,0%,0%)" x1="294.901428646" x2="297.809016598" y1="934.529618798" y2="934.397439107" /><line stroke="rgb(0%,0%,0%)" x1="293.293217419" x2="294.901428646" y1="933.533995927" y2="934.529618798" /><line stroke="rgb(0%,0%,0%)" x1="292.379764796" x2="293.293217419" y1="931.631435346" y2="933.533995927" /><line stroke="rgb(0%,0%,0%)" x1="300.638988985" x2="301.806948538" y1="933.279094564" y2="932.682941892" /><line stroke="rgb(0%,0%,0%)" x1="292.379764796" x2="292.17004949" y1="931.631435346" y2="930.655187793" /><line stroke="rgb(0%,0%,0%)" x1="293.385383242" x2="292.17004949" y1="917.719267084" y2="930.655187793" /><line stroke="rgb(0%,0%,0%)" x1="293.465094419" x2="293.385383242" y1="916.971105222" y2="917.719267084" /><line stroke="rgb(0%,0%,0%)" x1="293.465094419" x2="293.613666927" y1="916.971105222" y2="916.085414216" /><line stroke="rgb(0%,0%,0%)" x1="292.916302314" x2="293.613666927" y1="901.801803189" y2="916.085414216" /><line stroke="rgb(0%,0%,0%)" x1="293.119131163" x2="292.916302314" y1="895.012446551" y2="901.801803189" /><line stroke="rgb(0%,0%,0%)" x1="293.776315918" x2="293.119131163" y1="891.267646586" y2="895.012446551" /><line stroke="rgb(0%,0%,0%)" x1="301.022716472" x2="296.485543542" y1="884.387484357" y2="890.058058713" /><line stroke="rgb(0%,0%,0%)" x1="293.776315918" x2="296.485543542" y1="891.267646586" y2="890.058058713" /><line stroke="rgb(0%,0%,0%)" x1="301.022716472" x2="303.234252739" y1="884.387484357" y2="878.411633029" /><line stroke="rgb(0%,0%,0%)" x1="303.712899653" x2="303.234252739" y1="879.083978925" y2="878.411633029" /><line stroke="rgb(0%,0%,0%)" x1="301.806948538" x2="305.676523241" y1="932.682941892" y2="929.352975619" /><line stroke="rgb(0%,0%,0%)" x1="305.676523241" x2="309.263976723" y1="929.352975619" y2="925.607233321" /><line stroke="rgb(0%,0%,0%)" x1="315.468895993" x2="316.083218321" y1="914.986351664" y2="910.178441083" /><line stroke="rgb(0%,0%,0%)" x1="318.109409886" x2="316.083218321" y1="904.523545143" y2="910.178441083" /><line stroke="rgb(0%,0%,0%)" x1="318.828056054" x2="318.184094704" y1="898.946072073" y2="894.874451761" /><line stroke="rgb(0%,0%,0%)" x1="318.184094704" x2="318.971525742" y1="894.874451761" y2="888.10888527" /><line stroke="rgb(0%,0%,0%)" x1="318.971525742" x2="318.952659307" y1="888.10888527" y2="888.087137996" /><line stroke="rgb(0%,0%,0%)" x1="318.952659307" x2="318.949442895" y1="888.087137996" y2="888.053072654" /><line stroke="rgb(0%,0%,0%)" x1="315.729244613" x2="318.949442895" y1="879.848045083" y2="888.053072654" /><line stroke="rgb(0%,0%,0%)" x1="315.729244613" x2="313.201423846" y1="879.848045083" y2="880.209341769" /><line stroke="rgb(0%,0%,0%)" x1="309.308125161" x2="313.201423846" y1="880.595840717" y2="880.209341769" /><line stroke="rgb(0%,0%,0%)" x1="308.86025928" x2="304.486849424" y1="880.411452519" y2="883.63764924" /><line stroke="rgb(0%,0%,0%)" x1="304.486849424" x2="304.408873674" y1="883.63764924" y2="882.871274208" /><line stroke="rgb(0%,0%,0%)" x1="304.408873674" x2="303.712899653" y1="882.871274208" y2="879.083978925" /><line stroke="rgb(0%,0%,0%)" x1="308.86025928" x2="309.045800581" y1="880.411452519" y2="880.173317627" /><line stroke="rgb(0%,0%,0%)" x1="176.621486177" x2="183.263645095" y1="613.465942331" y2="617.605460295" /><line stroke="rgb(0%,0%,0%)" x1="201.515652433" x2="198.081242452" y1="624.967179464" y2="623.93216351" /><line stroke="rgb(0%,0%,0%)" x1="221.059230609" x2="223.415837573" y1="637.212731062" y2="638.1398923" /><line stroke="rgb(0%,0%,0%)" x1="224.961746663" x2="223.415837573" y1="638.663252605" y2="638.1398923" /><line stroke="rgb(0%,0%,0%)" x1="208.971997908" x2="221.059230609" y1="629.911626504" y2="637.212731062" /><line stroke="rgb(0%,0%,0%)" x1="207.433641455" x2="208.971997908" y1="629.262362775" y2="629.911626504" /><line stroke="rgb(0%,0%,0%)" x1="201.515652433" x2="207.433641455" y1="624.967179464" y2="629.262362775" /><line stroke="rgb(0%,0%,0%)" x1="232.047940019" x2="234.052407646" y1="640.22928759" y2="640.264874882" /><line stroke="rgb(0%,0%,0%)" x1="241.547533906" x2="245.558350758" y1="641.940715285" y2="642.710263714" /><line stroke="rgb(0%,0%,0%)" x1="228.060534738" x2="232.047940019" y1="639.519363526" y2="640.22928759" /><line stroke="rgb(0%,0%,0%)" x1="224.961746663" x2="228.060534738" y1="638.663252605" y2="639.519363526" /><line stroke="rgb(0%,0%,0%)" x1="245.558350758" x2="251.367756477" y1="642.710263714" y2="643.550188803" /><line stroke="rgb(0%,0%,0%)" x1="258.376736042" x2="259.879511644" y1="643.513791088" y2="644.185030577" /><line stroke="rgb(0%,0%,0%)" x1="259.879511644" x2="262.110951532" y1="644.185030577" y2="644.923864069" /><line stroke="rgb(0%,0%,0%)" x1="255.976665388" x2="258.376736042" y1="643.756851023" y2="643.513791088" /><line stroke="rgb(0%,0%,0%)" x1="255.181835218" x2="255.976665388" y1="643.860743564" y2="643.756851023" /><line stroke="rgb(0%,0%,0%)" x1="251.367756477" x2="255.181835218" y1="643.550188803" y2="643.860743564" /><line stroke="rgb(0%,0%,0%)" x1="142.712122998" x2="142.666333077" y1="587.808318878" y2="587.768401473" /><line stroke="rgb(0%,0%,0%)" x1="142.718294819" x2="142.712122998" y1="587.813595627" y2="587.808318878" /><line stroke="rgb(0%,0%,0%)" x1="151.515631097" x2="161.295546073" y1="595.578041809" y2="603.525633356" /><line stroke="rgb(0%,0%,0%)" x1="148.067758226" x2="151.515631097" y1="592.4963617" y2="595.578041809" /><line stroke="rgb(0%,0%,0%)" x1="142.718294819" x2="148.067758226" y1="587.813595627" y2="592.4963617" /><line stroke="rgb(0%,0%,0%)" x1="183.263645095" x2="187.846479861" y1="617.605460295" y2="620.359380548" /><line stroke="rgb(0%,0%,0%)" x1="172.067378761" x2="176.621486177" y1="610.023490143" y2="613.465942331" /><line stroke="rgb(0%,0%,0%)" x1="161.295546073" x2="172.067378761" y1="603.525633356" y2="610.023490143" /><line stroke="rgb(0%,0%,0%)" x1="189.821271784" x2="198.081242452" y1="621.277017787" y2="623.93216351" /><line stroke="rgb(0%,0%,0%)" x1="187.846479861" x2="189.821271784" y1="620.359380548" y2="621.277017787" /><line stroke="rgb(0%,0%,0%)" x1="76.2438049414" x2="76.7082147552" y1="455.871208513" y2="460.680592376" /><line stroke="rgb(0%,0%,0%)" x1="76.2438049414" x2="76.2534873423" y1="455.871208513" y2="455.758863975" /></svg>