<?xml version="1.0" encoding="utf-8" ?>
<svg baseProfile="full" height="100%" version="1.1" viewBox="0.5 0.5 685.793960571 941.299331665" width="100%" xmlns="http://www.w3.org/2000/svg" xmlns:ev="http://www.w3.org/2001/xml-events" xmlns:xlink="http://www.w3.org/1999/xlink"><defs /><line stroke="rgb(0%,0%,0%)" x1="475.002614606" x2="475.692358731" y1="417.128381281" y2="418.341289224" /><line stroke="rgb(0%,0%,0%)" x1="475.002614606" x2="473.983761631" y1="417.128381281" y2="415.572400604" /><line stroke="rgb(0%,0%,0%)" x1="482.284813045" x2="484.130227604" y1="446.395038505" y2="454.48334944" /><line stroke="rgb(0%,0%,0%)" x1="483.478626009" x2="484.225802183" y1="464.837531519" y2="459.298973601" /><line stroke="rgb(0%,0%,0%)" x1="454.965097915" x2="458.642896235" y1="390.654124922" y2="395.28816182" /><line stroke="rgb(0%,0%,0%)" x1="473.983761631" x2="469.789977861" y1="415.572400604" y2="410.554454365" /><line stroke="rgb(0%,0%,0%)" x1="469.789977861" x2="465.900971443" y1="410.554454365" y2="404.772990119" /><line stroke="rgb(0%,0%,0%)" x1="484.225802183" x2="484.130227604" y1="459.298973601" y2="454.48334944" /><line stroke="rgb(0%,0%,0%)" x1="482.284813045" x2="482.243906791" y1="446.395038505" y2="442.284750657" /><line stroke="rgb(0%,0%,0%)" x1="481.508807148" x2="482.243906791" y1="438.68790258" y2="442.284750657" /><line stroke="rgb(0%,0%,0%)" x1="481.508807148" x2="475.692358731" y1="438.68790258" y2="418.341289224" /><line stroke="rgb(0%,0%,0%)" x1="438.480461857" x2="434.324787604" y1="373.42839016" y2="368.166928742" /><line stroke="rgb(0%,0%,0%)" x1="434.324787604" x2="433.087367404" y1="368.166928742" y2="366.905447143" /><line stroke="rgb(0%,0%,0%)" x1="446.296236752" x2="440.204138369" y1="381.072156107" y2="374.49918134" /><line stroke="rgb(0%,0%,0%)" x1="465.900971443" x2="458.642896235" y1="404.772990119" y2="395.28816182" /><line stroke="rgb(0%,0%,0%)" x1="440.204138369" x2="438.480461857" y1="374.49918134" y2="373.42839016" /><line stroke="rgb(0%,0%,0%)" x1="449.57788649" x2="446.296236752" y1="383.574552027" y2="381.072156107" /><line stroke="rgb(0%,0%,0%)" x1="454.965097915" x2="449.57788649" y1="390.654124922" y2="383.574552027" /><line stroke="rgb(0%,0%,0%)" x1="373.104007523" x2="375.793980166" y1="302.298792154" y2="304.54761542" /><line stroke="rgb(0%,0%,0%)" x1="373.104007523" x2="368.788089901" y1="302.298792154" y2="299.586623172" /><line stroke="rgb(0%,0%,0%)" x1="368.788089901" x2="362.487184956" y1="299.586623172" y2="294.524614599" /><line stroke="rgb(0%,0%,0%)" x1="378.062934776" x2="375.793980166" y1="306.318647728" y2="304.54761542" /><line stroke="rgb(0%,0%,0%)" x1="329.177437734" x2="321.854600793" y1="280.848626429" y2="279.463451241" /><line stroke="rgb(0%,0%,0%)" x1="321.854600793" x2="321.469044127" y1="279.463451241" y2="279.540376823" /><line stroke="rgb(0%,0%,0%)" x1="329.177437734" x2="333.955263113" y1="280.848626429" y2="281.64971133" /><line stroke="rgb(0%,0%,0%)" x1="335.042206511" x2="337.533568946" y1="282.137116545" y2="283.317765349" /><line stroke="rgb(0%,0%,0%)" x1="335.042206511" x2="333.955263113" y1="282.137116545" y2="281.64971133" /><line stroke="rgb(0%,0%,0%)" x1="344.997143301" x2="339.809851849" y1="287.396090757" y2="284.195061339" /><line stroke="rgb(0%,0%,0%)" x1="344.997143301" x2="349.648599888" y1="287.396090757" y2="288.247879864" /><line stroke="rgb(0%,0%,0%)" x1="339.809851849" x2="339.467911789" y1="284.195061339" y2="284.005461218" /><line stroke="rgb(0%,0%,0%)" x1="359.814018254" x2="358.826758187" y1="292.499881962" y2="291.937047646" /><line stroke="rgb(0%,0%,0%)" x1="349.648599888" x2="357.047847563" y1="288.247879864" y2="291.047466901" /><line stroke="rgb(0%,0%,0%)" x1="362.487184956" x2="361.357159164" y1="294.524614599" y2="293.714133392" /><line stroke="rgb(0%,0%,0%)" x1="361.357159164" x2="360.575857125" y1="293.714133392" y2="293.046676773" /><line stroke="rgb(0%,0%,0%)" x1="360.575857125" x2="359.814018254" y1="293.046676773" y2="292.499881962" /><line stroke="rgb(0%,0%,0%)" x1="321.469044127" x2="320.708335859" y1="279.540376823" y2="279.600026193" /><line stroke="rgb(0%,0%,0%)" x1="358.826758187" x2="358.093487079" y1="291.937047646" y2="291.604185162" /><line stroke="rgb(0%,0%,0%)" x1="358.093487079" x2="357.047847563" y1="291.604185162" y2="291.047466901" /><line stroke="rgb(0%,0%,0%)" x1="263.708689206" x2="262.029856713" y1="282.047889322" y2="282.73725901" /><line stroke="rgb(0%,0%,0%)" x1="266.509527366" x2="263.708689206" y1="281.445060571" y2="282.047889322" /><line stroke="rgb(0%,0%,0%)" x1="266.509527366" x2="268.425603753" y1="281.445060571" y2="281.150745825" /><line stroke="rgb(0%,0%,0%)" x1="210.78045936" x2="207.800358091" y1="289.642696396" y2="290.049709951" /><line stroke="rgb(0%,0%,0%)" x1="210.78045936" x2="215.056954674" y1="289.642696396" y2="287.896939997" /><line stroke="rgb(0%,0%,0%)" x1="240.739164672" x2="246.036034695" y1="286.232644435" y2="285.505882915" /><line stroke="rgb(0%,0%,0%)" x1="240.739164672" x2="230.85573267" y1="286.232644435" y2="285.273425063" /><line stroke="rgb(0%,0%,0%)" x1="230.85573267" x2="230.208105931" y1="285.273425063" y2="285.549755031" /><line stroke="rgb(0%,0%,0%)" x1="252.242504682" x2="248.12565888" y1="287.370239676" y2="287.070256977" /><line stroke="rgb(0%,0%,0%)" x1="248.12565888" x2="246.036034695" y1="287.070256977" y2="285.505882915" /><line stroke="rgb(0%,0%,0%)" x1="252.242504682" x2="255.438830737" y1="287.370239676" y2="286.505512243" /><line stroke="rgb(0%,0%,0%)" x1="258.208006794" x2="255.438830737" y1="284.412894639" y2="286.505512243" /><line stroke="rgb(0%,0%,0%)" x1="259.643056104" x2="258.208006794" y1="283.546916244" y2="284.412894639" /><line stroke="rgb(0%,0%,0%)" x1="262.029856713" x2="259.643056104" y1="282.73725901" y2="283.546916244" /><line stroke="rgb(0%,0%,0%)" x1="188.108533782" x2="185.431495297" y1="295.355607232" y2="295.985016015" /><line stroke="rgb(0%,0%,0%)" x1="188.108533782" x2="192.020451975" y1="295.355607232" y2="294.743657202" /><line stroke="rgb(0%,0%,0%)" x1="207.800358091" x2="199.054477728" y1="290.049709951" y2="293.941931024" /><line stroke="rgb(0%,0%,0%)" x1="221.114475887" x2="215.056954674" y1="285.920984598" y2="287.896939997" /><line stroke="rgb(0%,0%,0%)" x1="223.432005354" x2="221.114475887" y1="285.783376375" y2="285.920984598" /><line stroke="rgb(0%,0%,0%)" x1="230.208105931" x2="223.432005354" y1="285.549755031" y2="285.783376375" /><line stroke="rgb(0%,0%,0%)" x1="166.888490177" x2="163.645577291" y1="308.844567884" y2="311.519692515" /><line stroke="rgb(0%,0%,0%)" x1="171.639195396" x2="166.888490177" y1="305.210742599" y2="308.844567884" /><line stroke="rgb(0%,0%,0%)" x1="171.639195396" x2="179.823895466" y1="305.210742599" y2="298.842431206" /><line stroke="rgb(0%,0%,0%)" x1="185.431495297" x2="179.823895466" y1="295.985016015" y2="298.842431206" /><line stroke="rgb(0%,0%,0%)" x1="199.054477728" x2="192.020451975" y1="293.941931024" y2="294.743657202" /><line stroke="rgb(0%,0%,0%)" x1="136.826486242" x2="134.868995473" y1="335.480924556" y2="337.978017812" /><line stroke="rgb(0%,0%,0%)" x1="84.7687274821" x2="88.7348980333" y1="404.539706965" y2="399.313845707" /><line stroke="rgb(0%,0%,0%)" x1="104.247355525" x2="102.20216152" y1="378.575374784" y2="381.391038532" /><line stroke="rgb(0%,0%,0%)" x1="111.389019611" x2="104.247355525" y1="369.762342513" y2="378.575374784" /><line stroke="rgb(0%,0%,0%)" x1="126.370112936" x2="125.62715898" y1="358.165007037" y2="359.805989327" /><line stroke="rgb(0%,0%,0%)" x1="125.62715898" x2="120.344376648" y1="359.805989327" y2="362.997918116" /><line stroke="rgb(0%,0%,0%)" x1="129.575642755" x2="128.980631904" y1="347.843093968" y2="347.386349245" /><line stroke="rgb(0%,0%,0%)" x1="129.575642755" x2="126.370112936" y1="347.843093968" y2="358.165007037" /><line stroke="rgb(0%,0%,0%)" x1="129.390785896" x2="128.980631904" y1="345.826866572" y2="347.386349245" /><line stroke="rgb(0%,0%,0%)" x1="129.390785896" x2="130.568082806" y1="345.826866572" y2="344.385581991" /><line stroke="rgb(0%,0%,0%)" x1="130.568082806" x2="132.850723954" y1="344.385581991" y2="342.183212194" /><line stroke="rgb(0%,0%,0%)" x1="120.344376648" x2="111.389019611" y1="362.997918116" y2="369.762342513" /><line stroke="rgb(0%,0%,0%)" x1="134.868995473" x2="132.850723954" y1="337.978017812" y2="342.183212194" /><line stroke="rgb(0%,0%,0%)" x1="139.760791515" x2="136.826486242" y1="331.782430223" y2="335.480924556" /><line stroke="rgb(0%,0%,0%)" x1="139.760791515" x2="148.084798828" y1="331.782430223" y2="324.101220611" /><line stroke="rgb(0%,0%,0%)" x1="163.645577291" x2="148.084798828" y1="311.519692515" y2="324.101220611" /><line stroke="rgb(0%,0%,0%)" x1="70.6343111948" x2="71.7814328898" y1="432.029429234" y2="434.702878133" /><line stroke="rgb(0%,0%,0%)" x1="70.6343111948" x2="70.6241741354" y1="432.029429234" y2="431.699194407" /><line stroke="rgb(0%,0%,0%)" x1="84.7687274821" x2="82.4163538809" y1="404.539706965" y2="407.330795477" /><line stroke="rgb(0%,0%,0%)" x1="82.4163538809" x2="77.5389125338" y1="407.330795477" y2="411.580563122" /><line stroke="rgb(0%,0%,0%)" x1="93.8749396432" x2="88.7348980333" y1="393.653609449" y2="399.313845707" /><line stroke="rgb(0%,0%,0%)" x1="98.1772463907" x2="93.8749396432" y1="386.621023544" y2="393.653609449" /><line stroke="rgb(0%,0%,0%)" x1="98.1772463907" x2="102.20216152" y1="386.621023544" y2="381.391038532" /><line stroke="rgb(0%,0%,0%)" x1="77.8714957852" x2="78.7179367162" y1="450.095110631" y2="455.214048002" /><line stroke="rgb(0%,0%,0%)" x1="70.0109359215" x2="70.6241741354" y1="425.494867039" y2="431.699194407" /><line stroke="rgb(0%,0%,0%)" x1="70.0109359215" x2="71.1689620622" y1="425.494867039" y2="420.951478814" /><line stroke="rgb(0%,0%,0%)" x1="77.5389125338" x2="72.7226568428" y1="411.580563122" y2="417.018010588" /><line stroke="rgb(0%,0%,0%)" x1="78.7179367162" x2="78.6445453051" y1="455.214048002" y2="456.935424784" /><line stroke="rgb(0%,0%,0%)" x1="77.2163897141" x2="77.8714957852" y1="446.06454562" y2="450.095110631" /><line stroke="rgb(0%,0%,0%)" x1="71.7814328898" x2="77.2163897141" y1="434.702878133" y2="446.06454562" /><line stroke="rgb(0%,0%,0%)" x1="72.7226568428" x2="71.1689620622" y1="417.018010588" y2="420.951478814" /><line stroke="rgb(0%,0%,0%)" x1="484.2018608" x2="483.90616282" y1="481.680965231" y2="483.109170849" /><line stroke="rgb(0%,0%,0%)" x1="484.2018608" x2="484.39487214" y1="481.680965231" y2="481.112905695" /><line stroke="rgb(0%,0%,0%)" x1="467.154170582" x2="470.030873278" y1="529.514734892" y2="525.012121486" /><line stroke="rgb(0%,0%,0%)" x1="475.244202016" x2="474.828947981" y1="513.837090298" y2="515.986004655" /><line stroke="rgb(0%,0%,0%)" x1="478.381548284" x2="475.244202016" y1="507.0634386" y2="513.837090298" /><line stroke="rgb(0%,0%,0%)" x1="478.381548284" x2="481.995859667" y1="507.0634386" y2="494.195689256" /><line stroke="rgb(0%,0%,0%)" x1="481.995859667" x2="483.90616282" y1="494.195689256" y2="483.109170849" /><line stroke="rgb(0%,0%,0%)" x1="484.39487214" x2="484.520538782" y1="481.112905695" y2="479.20101065" /><line stroke="rgb(0%,0%,0%)" x1="484.520538782" x2="483.821496762" y1="479.20101065" y2="467.11545699" /><line stroke="rgb(0%,0%,0%)" x1="483.478626009" x2="483.821496762" y1="464.837531519" y2="467.11545699" /><line stroke="rgb(0%,0%,0%)" x1="420.302918992" x2="421.496921802" y1="343.133629972" y2="346.557126779" /><line stroke="rgb(0%,0%,0%)" x1="420.302918992" x2="419.505128491" y1="343.133629972" y2="341.75225766" /><line stroke="rgb(0%,0%,0%)" x1="444.317352227" x2="443.963602522" y1="557.319468589" y2="557.871634289" /><line stroke="rgb(0%,0%,0%)" x1="444.317352227" x2="445.882781724" y1="557.319468589" y2="555.810465283" /><line stroke="rgb(0%,0%,0%)" x1="463.603081239" x2="457.831154736" y1="533.472480799" y2="544.045368691" /><line stroke="rgb(0%,0%,0%)" x1="465.339026457" x2="467.154170582" y1="531.249441092" y2="529.514734892" /><line stroke="rgb(0%,0%,0%)" x1="470.030873278" x2="474.828947981" y1="525.012121486" y2="515.986004655" /><line stroke="rgb(0%,0%,0%)" x1="382.97511734" x2="383.856054657" y1="309.454359905" y2="310.074141642" /><line stroke="rgb(0%,0%,0%)" x1="382.97511734" x2="381.863769213" y1="309.454359905" y2="308.915443871" /><line stroke="rgb(0%,0%,0%)" x1="398.564369301" x2="399.219771967" y1="317.913109721" y2="318.353078107" /><line stroke="rgb(0%,0%,0%)" x1="398.564369301" x2="398.167778321" y1="317.913109721" y2="317.665084407" /><line stroke="rgb(0%,0%,0%)" x1="398.167778321" x2="395.880329277" y1="317.665084407" y2="316.217546055" /><line stroke="rgb(0%,0%,0%)" x1="417.357740395" x2="414.939625756" y1="337.420097344" y2="334.05661966" /><line stroke="rgb(0%,0%,0%)" x1="414.278155604" x2="414.939625756" y1="333.380879353" y2="334.05661966" /><line stroke="rgb(0%,0%,0%)" x1="413.99570887" x2="414.278155604" y1="333.09701887" y2="333.380879353" /><line stroke="rgb(0%,0%,0%)" x1="413.99570887" x2="413.575175603" y1="333.09701887" y2="332.642644418" /><line stroke="rgb(0%,0%,0%)" x1="404.466356295" x2="399.219771967" y1="323.361777087" y2="318.353078107" /><line stroke="rgb(0%,0%,0%)" x1="430.21448017" x2="429.483599316" y1="362.887403465" y2="361.673020212" /><line stroke="rgb(0%,0%,0%)" x1="423.967714539" x2="428.731848765" y1="354.490811196" y2="360.8314352" /><line stroke="rgb(0%,0%,0%)" x1="429.483599316" x2="428.731848765" y1="361.673020212" y2="360.8314352" /><line stroke="rgb(0%,0%,0%)" x1="423.967714539" x2="421.496921802" y1="354.490811196" y2="346.557126779" /><line stroke="rgb(0%,0%,0%)" x1="419.505128491" x2="417.357740395" y1="341.75225766" y2="337.420097344" /><line stroke="rgb(0%,0%,0%)" x1="439.674820845" x2="443.963602522" y1="563.603213011" y2="557.871634289" /><line stroke="rgb(0%,0%,0%)" x1="433.087367404" x2="430.21448017" y1="366.905447143" y2="362.887403465" /><line stroke="rgb(0%,0%,0%)" x1="445.882781724" x2="456.024751555" y1="555.810465283" y2="546.616861664" /><line stroke="rgb(0%,0%,0%)" x1="456.024751555" x2="457.831154736" y1="546.616861664" y2="544.045368691" /><line stroke="rgb(0%,0%,0%)" x1="463.603081239" x2="465.339026457" y1="533.472480799" y2="531.249441092" /><line stroke="rgb(0%,0%,0%)" x1="375.635534573" x2="374.242052384" y1="630.465184556" y2="631.670877565" /><line stroke="rgb(0%,0%,0%)" x1="375.635534573" x2="376.250517731" y1="630.465184556" y2="630.236432679" /><line stroke="rgb(0%,0%,0%)" x1="378.062934776" x2="379.032660651" y1="306.318647728" y2="307.170998172" /><line stroke="rgb(0%,0%,0%)" x1="376.250517731" x2="377.404303373" y1="630.236432679" y2="629.439416524" /><line stroke="rgb(0%,0%,0%)" x1="377.404303373" x2="378.004126708" y1="629.439416524" y2="628.952294427" /><line stroke="rgb(0%,0%,0%)" x1="378.004126708" x2="384.143115667" y1="628.952294427" y2="625.167299776" /><line stroke="rgb(0%,0%,0%)" x1="384.143115667" x2="385.304272543" y1="625.167299776" y2="624.052654488" /><line stroke="rgb(0%,0%,0%)" x1="383.856054657" x2="389.697518956" y1="310.074141642" y2="312.743776254" /><line stroke="rgb(0%,0%,0%)" x1="392.357536325" x2="389.697518956" y1="313.956896344" y2="312.743776254" /><line stroke="rgb(0%,0%,0%)" x1="381.863769213" x2="379.032660651" y1="308.915443871" y2="307.170998172" /><line stroke="rgb(0%,0%,0%)" x1="395.880329277" x2="393.154360236" y1="316.217546055" y2="314.332938807" /><line stroke="rgb(0%,0%,0%)" x1="393.154360236" x2="392.357536325" y1="314.332938807" y2="313.956896344" /><line stroke="rgb(0%,0%,0%)" x1="413.575175603" x2="406.260874494" y1="332.642644418" y2="325.130911126" /><line stroke="rgb(0%,0%,0%)" x1="406.260874494" x2="404.466356295" y1="325.130911126" y2="323.361777087" /><line stroke="rgb(0%,0%,0%)" x1="344.351458076" x2="344.14916049" y1="642.181667132" y2="642.612646252" /><line stroke="rgb(0%,0%,0%)" x1="344.14916049" x2="342.308769805" y1="642.612646252" y2="642.842027179" /><line stroke="rgb(0%,0%,0%)" x1="344.351458076" x2="346.044426598" y1="642.181667132" y2="641.925506201" /><line stroke="rgb(0%,0%,0%)" x1="339.467911789" x2="337.533568946" y1="284.005461218" y2="283.317765349" /><line stroke="rgb(0%,0%,0%)" x1="358.512793323" x2="350.888307019" y1="639.550352092" y2="641.077844649" /><line stroke="rgb(0%,0%,0%)" x1="359.372022154" x2="360.865508" y1="639.041256895" y2="638.438332256" /><line stroke="rgb(0%,0%,0%)" x1="369.513428641" x2="360.865508" y1="634.554438366" y2="638.438332256" /><line stroke="rgb(0%,0%,0%)" x1="371.580851212" x2="372.541155092" y1="633.62649356" y2="632.890520455" /><line stroke="rgb(0%,0%,0%)" x1="372.541155092" x2="374.242052384" y1="632.890520455" y2="631.670877565" /><line stroke="rgb(0%,0%,0%)" x1="369.513428641" x2="369.977643397" y1="634.554438366" y2="634.228432747" /><line stroke="rgb(0%,0%,0%)" x1="369.977643397" x2="371.580851212" y1="634.228432747" y2="633.62649356" /><line stroke="rgb(0%,0%,0%)" x1="281.091393046" x2="282.113562448" y1="279.527024772" y2="279.747422504" /><line stroke="rgb(0%,0%,0%)" x1="281.091393046" x2="279.231376089" y1="279.527024772" y2="279.727232893" /><line stroke="rgb(0%,0%,0%)" x1="298.638016202" x2="293.539782684" y1="282.165849145" y2="282.76884465" /><line stroke="rgb(0%,0%,0%)" x1="300.371200917" x2="298.638016202" y1="281.711079133" y2="282.165849145" /><line stroke="rgb(0%,0%,0%)" x1="301.688984457" x2="300.371200917" y1="281.688957876" y2="281.711079133" /><line stroke="rgb(0%,0%,0%)" x1="310.314268913" x2="305.382839866" y1="280.245267957" y2="280.489192476" /><line stroke="rgb(0%,0%,0%)" x1="303.29722353" x2="305.382839866" y1="281.161019348" y2="280.489192476" /><line stroke="rgb(0%,0%,0%)" x1="301.688984457" x2="303.29722353" y1="281.688957876" y2="281.161019348" /><line stroke="rgb(0%,0%,0%)" x1="312.844034414" x2="319.621214401" y1="279.814123445" y2="279.835144674" /><line stroke="rgb(0%,0%,0%)" x1="320.708335859" x2="319.621214401" y1="279.600026193" y2="279.835144674" /><line stroke="rgb(0%,0%,0%)" x1="312.844034414" x2="310.314268913" y1="279.814123445" y2="280.245267957" /><line stroke="rgb(0%,0%,0%)" x1="358.512793323" x2="359.372022154" y1="639.550352092" y2="639.041256895" /><line stroke="rgb(0%,0%,0%)" x1="269.235737309" x2="268.425603753" y1="281.060370791" y2="281.150745825" /><line stroke="rgb(0%,0%,0%)" x1="270.626663516" x2="269.235737309" y1="280.700254648" y2="281.060370791" /><line stroke="rgb(0%,0%,0%)" x1="272.932290224" x2="270.626663516" y1="280.121312317" y2="280.700254648" /><line stroke="rgb(0%,0%,0%)" x1="272.745326247" x2="270.491835113" y1="649.190945006" y2="648.220859216" /><line stroke="rgb(0%,0%,0%)" x1="282.807493267" x2="285.684129064" y1="280.043653031" y2="281.179700346" /><line stroke="rgb(0%,0%,0%)" x1="282.113562448" x2="282.807493267" y1="279.747422504" y2="280.043653031" /><line stroke="rgb(0%,0%,0%)" x1="275.179556243" x2="272.932290224" y1="279.856703507" y2="280.121312317" /><line stroke="rgb(0%,0%,0%)" x1="279.231376089" x2="275.179556243" y1="279.727232893" y2="279.856703507" /><line stroke="rgb(0%,0%,0%)" x1="289.770924196" x2="287.683858711" y1="282.607074631" y2="282.153649701" /><line stroke="rgb(0%,0%,0%)" x1="293.539782684" x2="289.770924196" y1="282.76884465" y2="282.607074631" /><line stroke="rgb(0%,0%,0%)" x1="287.683858711" x2="285.684129064" y1="282.153649701" y2="281.179700346" /><line stroke="rgb(0%,0%,0%)" x1="115.409966889" x2="115.410030561" y1="551.010332081" y2="551.01037134" /><line stroke="rgb(0%,0%,0%)" x1="115.409966889" x2="115.409958524" y1="551.010332081" y2="551.010325563" /><line stroke="rgb(0%,0%,0%)" x1="140.524579039" x2="140.511421012" y1="574.57219568" y2="575.29565176" /><line stroke="rgb(0%,0%,0%)" x1="140.524579039" x2="140.280101684" y1="574.57219568" y2="573.951497304" /><line stroke="rgb(0%,0%,0%)" x1="137.475857448" x2="140.280101684" y1="568.682941491" y2="573.951497304" /><line stroke="rgb(0%,0%,0%)" x1="130.098078856" x2="137.475857448" y1="560.508733384" y2="568.682941491" /><line stroke="rgb(0%,0%,0%)" x1="145.361230729" x2="141.592652565" y1="587.461331906" y2="582.128465222" /><line stroke="rgb(0%,0%,0%)" x1="140.511421012" x2="141.592652565" y1="575.29565176" y2="582.128465222" /><line stroke="rgb(0%,0%,0%)" x1="78.5628725412" x2="77.7532905574" y1="462.941565061" y2="465.202236356" /><line stroke="rgb(0%,0%,0%)" x1="88.6115980335" x2="91.0731006342" y1="519.291677501" y2="522.23407102" /><line stroke="rgb(0%,0%,0%)" x1="105.240386393" x2="102.254733594" y1="538.014635664" y2="534.867549554" /><line stroke="rgb(0%,0%,0%)" x1="97.656860082" x2="102.254733594" y1="528.991654573" y2="534.867549554" /><line stroke="rgb(0%,0%,0%)" x1="105.240386393" x2="115.409958524" y1="538.014635664" y2="551.010325563" /><line stroke="rgb(0%,0%,0%)" x1="115.410030561" x2="121.456985609" y1="551.01037134" y2="553.780628648" /><line stroke="rgb(0%,0%,0%)" x1="130.098078856" x2="123.145177702" y1="560.508733384" y2="555.841922616" /><line stroke="rgb(0%,0%,0%)" x1="121.456985609" x2="123.145177702" y1="553.780628648" y2="555.841922616" /><line stroke="rgb(0%,0%,0%)" x1="67.6879703416" x2="74.1446569588" y1="499.93892516" y2="506.897234823" /><line stroke="rgb(0%,0%,0%)" x1="66.1206725044" x2="67.6879703416" y1="495.15786197" y2="499.93892516" /><line stroke="rgb(0%,0%,0%)" x1="66.1206725044" x2="65.5408500684" y1="495.15786197" y2="491.685124889" /><line stroke="rgb(0%,0%,0%)" x1="66.6606427689" x2="65.5408500684" y1="488.684582814" y2="491.685124889" /><line stroke="rgb(0%,0%,0%)" x1="66.6606427689" x2="67.6149400162" y1="488.684582814" y2="484.923193224" /><line stroke="rgb(0%,0%,0%)" x1="76.465590834" x2="72.323593162" y1="468.106381502" y2="474.69982588" /><line stroke="rgb(0%,0%,0%)" x1="77.7532905574" x2="76.465590834" y1="465.202236356" y2="468.106381502" /><line stroke="rgb(0%,0%,0%)" x1="84.6675879796" x2="88.6115980335" y1="516.807966514" y2="519.291677501" /><line stroke="rgb(0%,0%,0%)" x1="84.6675879796" x2="77.6458161067" y1="516.807966514" y2="509.315543349" /><line stroke="rgb(0%,0%,0%)" x1="70.1065496396" x2="67.6149400162" y1="480.464662044" y2="484.923193224" /><line stroke="rgb(0%,0%,0%)" x1="72.323593162" x2="70.1065496396" y1="474.69982588" y2="480.464662044" /><line stroke="rgb(0%,0%,0%)" x1="78.6562644487" x2="78.5628725412" y1="460.903225101" y2="462.941565061" /><line stroke="rgb(0%,0%,0%)" x1="91.0731006342" x2="97.656860082" y1="522.23407102" y2="528.991654573" /><line stroke="rgb(0%,0%,0%)" x1="74.1446569588" x2="75.2858819765" y1="506.897234823" y2="507.814344789" /><line stroke="rgb(0%,0%,0%)" x1="75.2858819765" x2="77.6458161067" y1="507.814344789" y2="509.315543349" /><line stroke="rgb(0%,0%,0%)" x1="413.808449235" x2="410.032735518" y1="606.221163409" y2="609.2871462" /><line stroke="rgb(0%,0%,0%)" x1="413.808449235" x2="414.763763728" y1="606.221163409" y2="605.134654582" /><line stroke="rgb(0%,0%,0%)" x1="414.763763728" x2="418.172498964" y1="605.134654582" y2="602.231677961" /><line stroke="rgb(0%,0%,0%)" x1="429.172090964" x2="430.927695179" y1="583.915588001" y2="578.049854266" /><line stroke="rgb(0%,0%,0%)" x1="430.927695179" x2="432.699841259" y1="578.049854266" y2="573.262910228" /><line stroke="rgb(0%,0%,0%)" x1="432.699841259" x2="434.571761109" y1="573.262910228" y2="570.889016118" /><line stroke="rgb(0%,0%,0%)" x1="435.986799131" x2="438.35157133" y1="569.997543122" y2="566.457549467" /><line stroke="rgb(0%,0%,0%)" x1="438.35157133" x2="439.674820845" y1="566.457549467" y2="563.603213011" /><line stroke="rgb(0%,0%,0%)" x1="386.670584953" x2="387.855469382" y1="623.059161359" y2="622.311810944" /><line stroke="rgb(0%,0%,0%)" x1="387.855469382" x2="390.224994346" y1="622.311810944" y2="621.585419836" /><line stroke="rgb(0%,0%,0%)" x1="397.597069672" x2="390.224994346" y1="618.399063047" y2="621.585419836" /><line stroke="rgb(0%,0%,0%)" x1="397.597069672" x2="404.601649445" y1="618.399063047" y2="614.427893476" /><line stroke="rgb(0%,0%,0%)" x1="404.601649445" x2="405.62136535" y1="614.427893476" y2="613.409289793" /><line stroke="rgb(0%,0%,0%)" x1="405.62136535" x2="410.032735518" y1="613.409289793" y2="609.2871462" /><line stroke="rgb(0%,0%,0%)" x1="418.172498964" x2="420.049046735" y1="602.231677961" y2="600.574530357" /><line stroke="rgb(0%,0%,0%)" x1="420.049046735" x2="420.395891405" y1="600.574530357" y2="600.125105187" /><line stroke="rgb(0%,0%,0%)" x1="424.113722628" x2="420.762358862" y1="595.293375942" y2="599.531424343" /><line stroke="rgb(0%,0%,0%)" x1="420.395891405" x2="420.762358862" y1="600.125105187" y2="599.531424343" /><line stroke="rgb(0%,0%,0%)" x1="424.113722628" x2="425.854758618" y1="595.293375942" y2="590.426809685" /><line stroke="rgb(0%,0%,0%)" x1="429.172090964" x2="425.854758618" y1="583.915588001" y2="590.426809685" /><line stroke="rgb(0%,0%,0%)" x1="434.571761109" x2="435.986799131" y1="570.889016118" y2="569.997543122" /><line stroke="rgb(0%,0%,0%)" x1="289.131886618" x2="289.51335593" y1="650.022446265" y2="649.894760575" /><line stroke="rgb(0%,0%,0%)" x1="289.51335593" x2="297.142257551" y1="649.894760575" y2="648.33447311" /><line stroke="rgb(0%,0%,0%)" x1="297.609056694" x2="297.142257551" y1="648.26619049" y2="648.33447311" /><line stroke="rgb(0%,0%,0%)" x1="297.609056694" x2="305.634856301" y1="648.26619049" y2="646.366313771" /><line stroke="rgb(0%,0%,0%)" x1="314.735168507" x2="314.737773832" y1="905.335430349" y2="905.219194416" /><line stroke="rgb(0%,0%,0%)" x1="314.77521822" x2="314.737773832" y1="905.024601174" y2="905.219194416" /><line stroke="rgb(0%,0%,0%)" x1="326.596079639" x2="329.078119534" y1="645.125065337" y2="644.888202505" /><line stroke="rgb(0%,0%,0%)" x1="320.016674764" x2="326.596079639" y1="644.459509927" y2="645.125065337" /><line stroke="rgb(0%,0%,0%)" x1="320.016674764" x2="314.91234164" y1="644.459509927" y2="644.508159902" /><line stroke="rgb(0%,0%,0%)" x1="334.486528969" x2="336.655265053" y1="643.806528185" y2="644.036024577" /><line stroke="rgb(0%,0%,0%)" x1="336.655265053" x2="340.359723432" y1="644.036024577" y2="642.861982586" /><line stroke="rgb(0%,0%,0%)" x1="340.359723432" x2="342.308769805" y1="642.861982586" y2="642.842027179" /><line stroke="rgb(0%,0%,0%)" x1="329.078119534" x2="334.486528969" y1="644.888202505" y2="643.806528185" /><line stroke="rgb(0%,0%,0%)" x1="346.044426598" x2="348.466398757" y1="641.925506201" y2="641.531491575" /><line stroke="rgb(0%,0%,0%)" x1="348.466398757" x2="350.176309119" y1="641.531491575" y2="641.175354386" /><line stroke="rgb(0%,0%,0%)" x1="350.176309119" x2="350.888307019" y1="641.175354386" y2="641.077844649" /><line stroke="rgb(0%,0%,0%)" x1="385.304272543" x2="386.024244655" y1="624.052654488" y2="623.363820102" /><line stroke="rgb(0%,0%,0%)" x1="386.024244655" x2="386.670584953" y1="623.363820102" y2="623.059161359" /><line stroke="rgb(0%,0%,0%)" x1="236.102951014" x2="237.094027093" y1="639.788938198" y2="639.881453092" /><line stroke="rgb(0%,0%,0%)" x1="235.3150937" x2="234.143198429" y1="639.434878562" y2="639.261333597" /><line stroke="rgb(0%,0%,0%)" x1="235.3150937" x2="236.102951014" y1="639.434878562" y2="639.788938198" /><line stroke="rgb(0%,0%,0%)" x1="237.094027093" x2="237.991666567" y1="639.881453092" y2="640.121815219" /><line stroke="rgb(0%,0%,0%)" x1="289.131886618" x2="288.285780248" y1="650.022446265" y2="650.05459541" /><line stroke="rgb(0%,0%,0%)" x1="288.285780248" x2="287.156262874" y1="650.05459541" y2="650.064595863" /><line stroke="rgb(0%,0%,0%)" x1="282.770411592" x2="281.592435864" y1="650.840555771" y2="650.80398929" /><line stroke="rgb(0%,0%,0%)" x1="282.770411592" x2="287.156262874" y1="650.840555771" y2="650.064595863" /><line stroke="rgb(0%,0%,0%)" x1="281.592435864" x2="277.330635826" y1="650.80398929" y2="649.814046001" /><line stroke="rgb(0%,0%,0%)" x1="272.745326247" x2="277.330635826" y1="649.190945006" y2="649.814046001" /><line stroke="rgb(0%,0%,0%)" x1="270.491835113" x2="267.710487112" y1="648.220859216" y2="646.883228599" /><line stroke="rgb(0%,0%,0%)" x1="262.030058145" x2="265.456443263" y1="643.830023323" y2="645.608540521" /><line stroke="rgb(0%,0%,0%)" x1="265.456443263" x2="267.710487112" y1="645.608540521" y2="646.883228599" /><line stroke="rgb(0%,0%,0%)" x1="297.584708033" x2="297.778668186" y1="929.486830699" y2="929.478013221" /><line stroke="rgb(0%,0%,0%)" x1="297.584708033" x2="297.451358369" y1="929.486830699" y2="929.404275639" /><line stroke="rgb(0%,0%,0%)" x1="297.778668186" x2="305.159332205" y1="929.478013221" y2="925.981865403" /><line stroke="rgb(0%,0%,0%)" x1="296.465737277" x2="297.451358369" y1="927.094109393" y2="929.404275639" /><line stroke="rgb(0%,0%,0%)" x1="296.222616495" x2="296.465737277" y1="923.971956772" y2="927.094109393" /><line stroke="rgb(0%,0%,0%)" x1="297.150182637" x2="296.222616495" y1="916.213565974" y2="923.971956772" /><line stroke="rgb(0%,0%,0%)" x1="299.456950286" x2="297.150182637" y1="911.857309637" y2="916.213565974" /><line stroke="rgb(0%,0%,0%)" x1="296.534664721" x2="299.456950286" y1="905.281750483" y2="911.857309637" /><line stroke="rgb(0%,0%,0%)" x1="296.534664721" x2="295.735532248" y1="905.281750483" y2="898.538523644" /><line stroke="rgb(0%,0%,0%)" x1="296.583195091" x2="295.735532248" y1="895.17414302" y2="898.538523644" /><line stroke="rgb(0%,0%,0%)" x1="300.39343103" x2="296.583195091" y1="891.115915753" y2="895.17414302" /><line stroke="rgb(0%,0%,0%)" x1="300.39343103" x2="300.842100065" y1="891.115915753" y2="891.95862842" /><line stroke="rgb(0%,0%,0%)" x1="305.634856301" x2="308.595660387" y1="646.366313771" y2="645.371396079" /><line stroke="rgb(0%,0%,0%)" x1="306.498575623" x2="305.159332205" y1="924.829378178" y2="925.981865403" /><line stroke="rgb(0%,0%,0%)" x1="306.498575623" x2="307.235546146" y1="924.829378178" y2="924.059890385" /><line stroke="rgb(0%,0%,0%)" x1="307.235546146" x2="309.047079754" y1="924.059890385" y2="922.148761857" /><line stroke="rgb(0%,0%,0%)" x1="309.047079754" x2="311.220614962" y1="922.148761857" y2="918.319910133" /><line stroke="rgb(0%,0%,0%)" x1="311.220614962" x2="314.10173099" y1="918.319910133" y2="908.056005306" /><line stroke="rgb(0%,0%,0%)" x1="314.586844082" x2="314.10173099" y1="905.927674552" y2="908.056005306" /><line stroke="rgb(0%,0%,0%)" x1="314.622250086" x2="314.586844082" y1="905.650574253" y2="905.927674552" /><line stroke="rgb(0%,0%,0%)" x1="314.735168507" x2="314.622250086" y1="905.335430349" y2="905.650574253" /><line stroke="rgb(0%,0%,0%)" x1="314.77521822" x2="313.732433252" y1="905.024601174" y2="898.431310362" /><line stroke="rgb(0%,0%,0%)" x1="313.732433252" x2="313.986981494" y1="898.431310362" y2="896.244245119" /><line stroke="rgb(0%,0%,0%)" x1="313.986981494" x2="311.38953183" y1="896.244245119" y2="893.250173817" /><line stroke="rgb(0%,0%,0%)" x1="311.38953183" x2="311.070813573" y1="893.250173817" y2="889.874597513" /><line stroke="rgb(0%,0%,0%)" x1="300.842100065" x2="302.533266477" y1="891.95862842" y2="890.731350922" /><line stroke="rgb(0%,0%,0%)" x1="307.862122692" x2="302.533266477" y1="890.822825608" y2="890.731350922" /><line stroke="rgb(0%,0%,0%)" x1="307.862122692" x2="311.070813573" y1="890.822825608" y2="889.874597513" /><line stroke="rgb(0%,0%,0%)" x1="314.91234164" x2="312.689873015" y1="644.508159902" y2="644.407239156" /><line stroke="rgb(0%,0%,0%)" x1="308.595660387" x2="312.689873015" y1="645.371396079" y2="644.407239156" /><line stroke="rgb(0%,0%,0%)" x1="180.814901852" x2="182.776225394" y1="613.972887086" y2="615.195220688" /><line stroke="rgb(0%,0%,0%)" x1="223.62634743" x2="224.145693577" y1="637.636462827" y2="637.840789481" /><line stroke="rgb(0%,0%,0%)" x1="224.486379122" x2="224.145693577" y1="637.956126982" y2="637.840789481" /><line stroke="rgb(0%,0%,0%)" x1="223.62634743" x2="218.215105407" y1="637.636462827" y2="634.367886406" /><line stroke="rgb(0%,0%,0%)" x1="205.397446026" x2="218.215105407" y1="625.799055355" y2="634.367886406" /><line stroke="rgb(0%,0%,0%)" x1="200.806568246" x2="205.397446026" y1="622.377057858" y2="625.799055355" /><line stroke="rgb(0%,0%,0%)" x1="231.14114602" x2="234.143198429" y1="639.208035198" y2="639.261333597" /><line stroke="rgb(0%,0%,0%)" x1="237.991666567" x2="244.257886056" y1="640.121815219" y2="641.324103815" /><line stroke="rgb(0%,0%,0%)" x1="225.16928623" x2="231.14114602" y1="638.144795654" y2="639.208035198" /><line stroke="rgb(0%,0%,0%)" x1="224.486379122" x2="225.16928623" y1="637.956126982" y2="638.144795654" /><line stroke="rgb(0%,0%,0%)" x1="244.257886056" x2="247.747241888" y1="641.324103815" y2="641.828595608" /><line stroke="rgb(0%,0%,0%)" x1="257.425708089" x2="260.265087938" y1="641.977382921" y2="643.245638724" /><line stroke="rgb(0%,0%,0%)" x1="260.265087938" x2="262.030058145" y1="643.245638724" y2="643.830023323" /><line stroke="rgb(0%,0%,0%)" x1="255.473828555" x2="257.425708089" y1="642.175053648" y2="641.977382921" /><line stroke="rgb(0%,0%,0%)" x1="254.141338737" x2="255.473828555" y1="642.349223879" y2="642.175053648" /><line stroke="rgb(0%,0%,0%)" x1="247.747241888" x2="254.141338737" y1="641.828595608" y2="642.349223879" /><line stroke="rgb(0%,0%,0%)" x1="149.826686593" x2="161.898058372" y1="591.893809909" y2="601.703540621" /><line stroke="rgb(0%,0%,0%)" x1="149.463708425" x2="149.826686593" y1="591.56938304" y2="591.893809909" /><line stroke="rgb(0%,0%,0%)" x1="149.463708425" x2="148.880129145" y1="591.56938304" y2="591.058534559" /><line stroke="rgb(0%,0%,0%)" x1="182.776225394" x2="184.129463375" y1="615.195220688" y2="616.008409396" /><line stroke="rgb(0%,0%,0%)" x1="175.193756486" x2="180.814901852" y1="609.723860351" y2="613.972887086" /><line stroke="rgb(0%,0%,0%)" x1="161.898058372" x2="175.193756486" y1="601.703540621" y2="609.723860351" /><line stroke="rgb(0%,0%,0%)" x1="191.045457324" x2="198.569940059" y1="619.222101695" y2="621.640826767" /><line stroke="rgb(0%,0%,0%)" x1="198.569940059" x2="200.806568246" y1="621.640826767" y2="622.377057858" /><line stroke="rgb(0%,0%,0%)" x1="184.129463375" x2="191.045457324" y1="616.008409396" y2="619.222101695" /><line stroke="rgb(0%,0%,0%)" x1="145.361230729" x2="148.880129145" y1="587.461331906" y2="591.058534559" /><line stroke="rgb(0%,0%,0%)" x1="78.6562644487" x2="78.3458287656" y1="460.903225101" y2="457.68838269" /><line stroke="rgb(0%,0%,0%)" x1="78.6445453051" x2="78.3458287656" y1="456.935424784" y2="457.68838269" /></svg>