<?xml version="1.0" encoding="utf-8" ?>
<svg baseProfile="full" height="100%" version="1.1" viewBox="0.5 0.5 685.793960571 941.299331665" width="100%" xmlns="http://www.w3.org/2000/svg" xmlns:ev="http://www.w3.org/2001/xml-events" xmlns:xlink="http://www.w3.org/1999/xlink"><defs /><line stroke="rgb(0%,0%,0%)" x1="474.400415013" x2="474.630482863" y1="417.452902931" y2="417.857474876" /><line stroke="rgb(0%,0%,0%)" x1="474.400415013" x2="474.060571143" y1="417.452902931" y2="416.933897237" /><line stroke="rgb(0%,0%,0%)" x1="481.638930723" x2="482.907922045" y1="448.52475762" y2="454.086649575" /><line stroke="rgb(0%,0%,0%)" x1="482.525533701" x2="483.045673952" y1="464.883041388" y2="461.027422054" /><line stroke="rgb(0%,0%,0%)" x1="455.168283373" x2="458.383349472" y1="392.494737633" y2="396.545730546" /><line stroke="rgb(0%,0%,0%)" x1="474.060571143" x2="469.518437682" y1="416.933897237" y2="411.499143619" /><line stroke="rgb(0%,0%,0%)" x1="469.518437682" x2="467.28222526" y1="411.499143619" y2="408.174751532" /><line stroke="rgb(0%,0%,0%)" x1="483.045673952" x2="482.907922045" y1="461.027422054" y2="454.086649575" /><line stroke="rgb(0%,0%,0%)" x1="481.638930723" x2="481.582893654" y1="448.52475762" y2="442.894115411" /><line stroke="rgb(0%,0%,0%)" x1="481.069377878" x2="481.582893654" y1="440.381478859" y2="442.894115411" /><line stroke="rgb(0%,0%,0%)" x1="481.069377878" x2="474.630482863" y1="440.381478859" y2="417.857474876" /><line stroke="rgb(0%,0%,0%)" x1="436.509204019" x2="433.180038081" y1="373.480679317" y2="369.26565257" /><line stroke="rgb(0%,0%,0%)" x1="433.180038081" x2="431.22811903" y1="369.26565257" y2="367.275778825" /><line stroke="rgb(0%,0%,0%)" x1="444.664938988" x2="439.557266791" y1="380.885055984" y2="375.374212535" /><line stroke="rgb(0%,0%,0%)" x1="467.28222526" x2="458.383349472" y1="408.174751532" y2="396.545730546" /><line stroke="rgb(0%,0%,0%)" x1="439.557266791" x2="436.509204019" y1="375.374212535" y2="373.480679317" /><line stroke="rgb(0%,0%,0%)" x1="431.22811903" x2="431.069802219" y1="367.275778825" y2="367.016719474" /><line stroke="rgb(0%,0%,0%)" x1="448.641043427" x2="444.664938988" y1="383.917002816" y2="380.885055984" /><line stroke="rgb(0%,0%,0%)" x1="455.168283373" x2="448.641043427" y1="392.494737633" y2="383.917002816" /><line stroke="rgb(0%,0%,0%)" x1="373.001739492" x2="374.641768211" y1="303.449652584" y2="304.820720334" /><line stroke="rgb(0%,0%,0%)" x1="373.001739492" x2="368.038610631" y1="303.449652584" y2="300.330769109" /><line stroke="rgb(0%,0%,0%)" x1="368.038610631" x2="364.956558034" y1="300.330769109" y2="297.85471578" /><line stroke="rgb(0%,0%,0%)" x1="374.641768211" x2="376.962554901" y1="304.820720334" y2="306.632210168" /><line stroke="rgb(0%,0%,0%)" x1="330.694755421" x2="322.405777653" y1="282.090447448" y2="280.52251873" /><line stroke="rgb(0%,0%,0%)" x1="322.405777653" x2="322.361111692" y1="280.52251873" y2="280.531430403" /><line stroke="rgb(0%,0%,0%)" x1="330.694755421" x2="333.129932343" y1="282.090447448" y2="282.498746896" /><line stroke="rgb(0%,0%,0%)" x1="334.688336325" x2="335.163236857" y1="283.197563623" y2="283.422617488" /><line stroke="rgb(0%,0%,0%)" x1="334.688336325" x2="333.129932343" y1="283.197563623" y2="282.498746896" /><line stroke="rgb(0%,0%,0%)" x1="344.771546991" x2="340.146640393" y1="288.275063788" y2="285.421076844" /><line stroke="rgb(0%,0%,0%)" x1="344.771546991" x2="348.586939178" y1="288.275063788" y2="288.973750197" /><line stroke="rgb(0%,0%,0%)" x1="359.894452441" x2="358.024903974" y1="294.020532747" y2="292.954708183" /><line stroke="rgb(0%,0%,0%)" x1="348.586939178" x2="354.656227635" y1="288.973750197" y2="291.270132483" /><line stroke="rgb(0%,0%,0%)" x1="364.956558034" x2="362.816657864" y1="297.85471578" y2="296.319928799" /><line stroke="rgb(0%,0%,0%)" x1="362.816657864" x2="361.337126707" y1="296.319928799" y2="295.055983725" /><line stroke="rgb(0%,0%,0%)" x1="361.337126707" x2="359.894452441" y1="295.055983725" y2="294.020532747" /><line stroke="rgb(0%,0%,0%)" x1="322.361111692" x2="322.272985174" y1="280.531430403" y2="280.538340662" /><line stroke="rgb(0%,0%,0%)" x1="358.024903974" x2="356.63632773" y1="292.954708183" y2="292.324375237" /><line stroke="rgb(0%,0%,0%)" x1="356.63632773" x2="354.656227635" y1="292.324375237" y2="291.270132483" /><line stroke="rgb(0%,0%,0%)" x1="210.124410003" x2="209.59301503" y1="290.191283986" y2="290.263860364" /><line stroke="rgb(0%,0%,0%)" x1="210.124410003" x2="210.886970704" y1="290.191283986" y2="289.879990479" /><line stroke="rgb(0%,0%,0%)" x1="241.770697647" x2="245.872970254" y1="287.098373282" y2="286.535517508" /><line stroke="rgb(0%,0%,0%)" x1="241.770697647" x2="230.01184362" y1="287.098373282" y2="285.957138075" /><line stroke="rgb(0%,0%,0%)" x1="230.01184362" x2="229.582675861" y1="285.957138075" y2="286.140255766" /><line stroke="rgb(0%,0%,0%)" x1="251.859883115" x2="248.653839201" y1="288.850999515" y2="288.617384327" /><line stroke="rgb(0%,0%,0%)" x1="248.653839201" x2="245.872970254" y1="288.617384327" y2="286.535517508" /><line stroke="rgb(0%,0%,0%)" x1="251.859883115" x2="254.34906104" y1="288.850999515" y2="288.177582472" /><line stroke="rgb(0%,0%,0%)" x1="258.578793633" x2="254.34906104" y1="284.981248003" y2="288.177582472" /><line stroke="rgb(0%,0%,0%)" x1="260.770736187" x2="258.578793633" y1="283.658523493" y2="284.981248003" /><line stroke="rgb(0%,0%,0%)" x1="260.770736187" x2="264.204044523" y1="283.658523493" y2="282.493866957" /><line stroke="rgb(0%,0%,0%)" x1="188.296746815" x2="187.26357408" y1="296.385800807" y2="296.628714011" /><line stroke="rgb(0%,0%,0%)" x1="188.296746815" x2="189.80650741" y1="296.385800807" y2="296.149625613" /><line stroke="rgb(0%,0%,0%)" x1="209.59301503" x2="198.626509453" y1="290.263860364" y2="295.144336924" /><line stroke="rgb(0%,0%,0%)" x1="221.16142996" x2="210.886970704" y1="286.528475474" y2="289.879990479" /><line stroke="rgb(0%,0%,0%)" x1="225.09230552" x2="221.16142996" y1="286.295071407" y2="286.528475474" /><line stroke="rgb(0%,0%,0%)" x1="229.582675861" x2="225.09230552" y1="286.140255766" y2="286.295071407" /><line stroke="rgb(0%,0%,0%)" x1="173.471093897" x2="169.256967854" y1="305.175709003" y2="308.399103649" /><line stroke="rgb(0%,0%,0%)" x1="173.471093897" x2="179.127718558" y1="305.175709003" y2="300.774430158" /><line stroke="rgb(0%,0%,0%)" x1="187.26357408" x2="179.127718558" y1="296.628714011" y2="300.774430158" /><line stroke="rgb(0%,0%,0%)" x1="198.626509453" x2="189.80650741" y1="295.144336924" y2="296.149625613" /><line stroke="rgb(0%,0%,0%)" x1="136.927445481" x2="135.435467022" y1="336.954251327" y2="338.857509012" /><line stroke="rgb(0%,0%,0%)" x1="169.256967854" x2="167.106838232" y1="308.399103649" y2="310.111719366" /><line stroke="rgb(0%,0%,0%)" x1="85.7358168599" x2="88.5868063761" y1="405.035581843" y2="401.27909294" /><line stroke="rgb(0%,0%,0%)" x1="103.346403359" x2="102.185225298" y1="381.503348891" y2="383.10196837" /><line stroke="rgb(0%,0%,0%)" x1="113.080803069" x2="103.346403359" y1="369.490801431" y2="381.503348891" /><line stroke="rgb(0%,0%,0%)" x1="128.203869032" x2="127.844271023" y1="357.931412955" y2="358.725666704" /><line stroke="rgb(0%,0%,0%)" x1="127.844271023" x2="125.287345394" y1="358.725666704" y2="360.270595874" /><line stroke="rgb(0%,0%,0%)" x1="131.843399098" x2="131.777044781" y1="346.212004599" y2="346.16106942" /><line stroke="rgb(0%,0%,0%)" x1="131.843399098" x2="128.203869032" y1="346.212004599" y2="357.931412955" /><line stroke="rgb(0%,0%,0%)" x1="131.822784263" x2="131.777044781" y1="345.987159303" y2="346.16106942" /><line stroke="rgb(0%,0%,0%)" x1="131.822784263" x2="131.954073855" y1="345.987159303" y2="345.82643038" /><line stroke="rgb(0%,0%,0%)" x1="131.954073855" x2="132.208629033" y1="345.82643038" y2="345.580826888" /><line stroke="rgb(0%,0%,0%)" x1="125.287345394" x2="113.080803069" y1="360.270595874" y2="369.490801431" /><line stroke="rgb(0%,0%,0%)" x1="135.435467022" x2="132.208629033" y1="338.857509012" y2="345.580826888" /><line stroke="rgb(0%,0%,0%)" x1="140.742133349" x2="136.927445481" y1="332.146093979" y2="336.954251327" /><line stroke="rgb(0%,0%,0%)" x1="140.742133349" x2="147.742456983" y1="332.146093979" y2="325.686350353" /><line stroke="rgb(0%,0%,0%)" x1="147.742456983" x2="165.602932198" y1="325.686350353" y2="311.245423039" /><line stroke="rgb(0%,0%,0%)" x1="167.106838232" x2="165.602932198" y1="310.111719366" y2="311.245423039" /><line stroke="rgb(0%,0%,0%)" x1="85.7358168599" x2="84.0448677723" y1="405.035581843" y2="407.041890947" /><line stroke="rgb(0%,0%,0%)" x1="84.0448677723" x2="78.5050886968" y1="407.041890947" y2="411.868760651" /><line stroke="rgb(0%,0%,0%)" x1="94.7452851494" x2="88.5868063761" y1="394.497349232" y2="401.27909294" /><line stroke="rgb(0%,0%,0%)" x1="99.9000420155" x2="94.7452851494" y1="386.07134137" y2="394.497349232" /><line stroke="rgb(0%,0%,0%)" x1="99.9000420155" x2="102.185225298" y1="386.07134137" y2="383.10196837" /><line stroke="rgb(0%,0%,0%)" x1="80.0143403965" x2="80.4157582201" y1="452.398028226" y2="454.825643223" /><line stroke="rgb(0%,0%,0%)" x1="71.943304835" x2="72.8755128818" y1="431.177707555" y2="433.005810255" /><line stroke="rgb(0%,0%,0%)" x1="71.3643247938" x2="71.943304835" y1="425.319981089" y2="431.177707555" /><line stroke="rgb(0%,0%,0%)" x1="71.3643247938" x2="72.3632054132" y1="425.319981089" y2="421.400982817" /><line stroke="rgb(0%,0%,0%)" x1="78.5050886968" x2="74.2154578552" y1="411.868760651" y2="416.711660166" /><line stroke="rgb(0%,0%,0%)" x1="80.4157582201" x2="80.2882023202" y1="454.825643223" y2="457.817434239" /><line stroke="rgb(0%,0%,0%)" x1="78.8773591353" x2="80.0143403965" y1="445.402707785" y2="452.398028226" /><line stroke="rgb(0%,0%,0%)" x1="78.8773591353" x2="74.2605739381" y1="445.402707785" y2="435.751411563" /><line stroke="rgb(0%,0%,0%)" x1="72.8755128818" x2="74.2605739381" y1="433.005810255" y2="435.751411563" /><line stroke="rgb(0%,0%,0%)" x1="74.2154578552" x2="72.3632054132" y1="416.711660166" y2="421.400982817" /><line stroke="rgb(0%,0%,0%)" x1="483.57492837" x2="483.574042172" y1="480.508863891" y2="480.513144184" /><line stroke="rgb(0%,0%,0%)" x1="483.57492837" x2="483.57550682" y1="480.508863891" y2="480.507161432" /><line stroke="rgb(0%,0%,0%)" x1="467.366173419" x2="467.974172271" y1="527.932353993" y2="526.98071454" /><line stroke="rgb(0%,0%,0%)" x1="474.814630351" x2="474.481572253" y1="513.015467196" y2="514.739022581" /><line stroke="rgb(0%,0%,0%)" x1="477.330966117" x2="474.814630351" y1="507.582601143" y2="513.015467196" /><line stroke="rgb(0%,0%,0%)" x1="477.330966117" x2="481.415309142" y1="507.582601143" y2="493.041435007" /><line stroke="rgb(0%,0%,0%)" x1="481.415309142" x2="483.574042172" y1="493.041435007" y2="480.513144184" /><line stroke="rgb(0%,0%,0%)" x1="483.57550682" x2="483.57588344" y1="480.507161432" y2="480.501431535" /><line stroke="rgb(0%,0%,0%)" x1="483.57588344" x2="482.764220219" y1="480.501431535" y2="466.468799561" /><line stroke="rgb(0%,0%,0%)" x1="482.525533701" x2="482.764220219" y1="464.883041388" y2="466.468799561" /><line stroke="rgb(0%,0%,0%)" x1="462.828669951" x2="457.639354068" y1="532.98947423" y2="542.495148815" /><line stroke="rgb(0%,0%,0%)" x1="465.046822379" x2="467.366173419" y1="530.148923232" y2="527.932353993" /><line stroke="rgb(0%,0%,0%)" x1="467.974172271" x2="474.481572253" y1="526.98071454" y2="514.739022581" /><line stroke="rgb(0%,0%,0%)" x1="382.037592557" x2="382.344637842" y1="309.707066255" y2="309.923087368" /><line stroke="rgb(0%,0%,0%)" x1="382.037592557" x2="381.650239001" y1="309.707066255" y2="309.519230385" /><line stroke="rgb(0%,0%,0%)" x1="415.831592152" x2="413.479895595" y1="337.821825943" y2="334.550732522" /><line stroke="rgb(0%,0%,0%)" x1="403.229961642" x2="398.17546394" y1="323.722448986" y2="318.897127232" /><line stroke="rgb(0%,0%,0%)" x1="428.639142419" x2="431.069802219" y1="362.978096025" y2="367.016719474" /><line stroke="rgb(0%,0%,0%)" x1="421.894398624" x2="425.504709464" y1="354.664105889" y2="359.469097203" /><line stroke="rgb(0%,0%,0%)" x1="428.639142419" x2="425.504709464" y1="362.978096025" y2="359.469097203" /><line stroke="rgb(0%,0%,0%)" x1="421.894398624" x2="418.723730612" y1="354.664105889" y2="344.483130762" /><line stroke="rgb(0%,0%,0%)" x1="415.831592152" x2="418.152759552" y1="337.821825943" y2="342.504570212" /><line stroke="rgb(0%,0%,0%)" x1="438.369724046" x2="441.729676677" y1="563.240104524" y2="558.749823961" /><line stroke="rgb(0%,0%,0%)" x1="441.729676677" x2="442.662294698" y1="558.749823961" y2="557.099254016" /><line stroke="rgb(0%,0%,0%)" x1="442.662294698" x2="444.032390423" y1="557.099254016" y2="556.329119571" /><line stroke="rgb(0%,0%,0%)" x1="454.7394893" x2="444.032390423" y1="546.6232316" y2="556.329119571" /><line stroke="rgb(0%,0%,0%)" x1="454.7394893" x2="457.639354068" y1="546.6232316" y2="542.495148815" /><line stroke="rgb(0%,0%,0%)" x1="462.828669951" x2="465.046822379" y1="532.98947423" y2="530.148923232" /><line stroke="rgb(0%,0%,0%)" x1="382.344637842" x2="384.380644304" y1="309.923087368" y2="310.853572097" /><line stroke="rgb(0%,0%,0%)" x1="390.71470441" x2="384.380644304" y1="313.742265852" y2="310.853572097" /><line stroke="rgb(0%,0%,0%)" x1="381.650239001" x2="379.524579652" y1="309.519230385" y2="308.20946171" /><line stroke="rgb(0%,0%,0%)" x1="398.17546394" x2="397.277401363" y1="318.897127232" y2="317.863066098" /><line stroke="rgb(0%,0%,0%)" x1="392.612109518" x2="397.277401363" y1="314.637701948" y2="317.863066098" /><line stroke="rgb(0%,0%,0%)" x1="392.612109518" x2="390.71470441" y1="314.637701948" y2="313.742265852" /><line stroke="rgb(0%,0%,0%)" x1="418.723730612" x2="418.152759552" y1="344.483130762" y2="342.504570212" /><line stroke="rgb(0%,0%,0%)" x1="413.479895595" x2="412.712280758" y1="334.550732522" y2="333.373302543" /><line stroke="rgb(0%,0%,0%)" x1="405.354960602" x2="412.712280758" y1="325.817389006" y2="333.373302543" /><line stroke="rgb(0%,0%,0%)" x1="405.354960602" x2="403.229961642" y1="325.817389006" y2="323.722448986" /><line stroke="rgb(0%,0%,0%)" x1="342.836046419" x2="342.800590943" y1="641.563646957" y2="641.639182064" /><line stroke="rgb(0%,0%,0%)" x1="342.800590943" x2="342.478036785" y1="641.639182064" y2="641.679384273" /><line stroke="rgb(0%,0%,0%)" x1="342.836046419" x2="343.132762786" y1="641.563646957" y2="641.518751178" /><line stroke="rgb(0%,0%,0%)" x1="335.163236857" x2="335.697959095" y1="283.422617488" y2="283.612721468" /><line stroke="rgb(0%,0%,0%)" x1="357.36769689" x2="352.205508054" y1="638.795596492" y2="639.829791415" /><line stroke="rgb(0%,0%,0%)" x1="358.851144019" x2="361.429627435" y1="637.916650417" y2="636.87570906" /><line stroke="rgb(0%,0%,0%)" x1="368.442939883" x2="361.429627435" y1="633.725939017" y2="636.87570906" /><line stroke="rgb(0%,0%,0%)" x1="371.811052497" x2="373.375518156" y1="632.214190694" y2="631.015190386" /><line stroke="rgb(0%,0%,0%)" x1="373.375518156" x2="375.392136323" y1="631.015190386" y2="629.569157153" /><line stroke="rgb(0%,0%,0%)" x1="368.442939883" x2="369.19920887" y1="633.725939017" y2="633.194831516" /><line stroke="rgb(0%,0%,0%)" x1="369.19920887" x2="371.811052497" y1="633.194831516" y2="632.214190694" /><line stroke="rgb(0%,0%,0%)" x1="377.696252268" x2="377.334040761" y1="307.037109474" y2="306.860482227" /><line stroke="rgb(0%,0%,0%)" x1="377.334040761" x2="376.962554901" y1="306.860482227" y2="306.632210168" /><line stroke="rgb(0%,0%,0%)" x1="377.805953342" x2="379.732642937" y1="628.321433365" y2="626.873175152" /><line stroke="rgb(0%,0%,0%)" x1="379.732642937" x2="383.126915532" y1="626.873175152" y2="625.016555377" /><line stroke="rgb(0%,0%,0%)" x1="378.282323067" x2="377.93303181" y1="307.373262637" y2="307.235422839" /><line stroke="rgb(0%,0%,0%)" x1="379.524579652" x2="378.282323067" y1="308.20946171" y2="307.373262637" /><line stroke="rgb(0%,0%,0%)" x1="377.93303181" x2="377.696252268" y1="307.235422839" y2="307.037109474" /><line stroke="rgb(0%,0%,0%)" x1="281.336990813" x2="281.814155108" y1="279.911601048" y2="280.014486077" /><line stroke="rgb(0%,0%,0%)" x1="281.336990813" x2="280.468706477" y1="279.911601048" y2="280.005061258" /><line stroke="rgb(0%,0%,0%)" x1="300.879575395" x2="293.956952098" y1="282.722490883" y2="283.541266782" /><line stroke="rgb(0%,0%,0%)" x1="301.499259272" x2="300.879575395" y1="282.559892147" y2="282.722490883" /><line stroke="rgb(0%,0%,0%)" x1="301.97042037" x2="301.499259272" y1="282.5519829" y2="282.559892147" /><line stroke="rgb(0%,0%,0%)" x1="310.089822502" x2="303.291123594" y1="281.786732317" y2="282.123018077" /><line stroke="rgb(0%,0%,0%)" x1="302.545431109" x2="303.291123594" y1="282.36322345" y2="282.123018077" /><line stroke="rgb(0%,0%,0%)" x1="301.97042037" x2="302.545431109" y1="282.5519829" y2="282.36322345" /><line stroke="rgb(0%,0%,0%)" x1="313.577475632" x2="319.168903443" y1="281.192336313" y2="281.209679616" /><line stroke="rgb(0%,0%,0%)" x1="322.272985174" x2="319.168903443" y1="280.538340662" y2="281.209679616" /><line stroke="rgb(0%,0%,0%)" x1="313.577475632" x2="310.089822502" y1="281.192336313" y2="281.786732317" /><line stroke="rgb(0%,0%,0%)" x1="340.146640393" x2="335.697959095" y1="285.421076844" y2="283.612721468" /><line stroke="rgb(0%,0%,0%)" x1="357.36769689" x2="358.851144019" y1="638.795596492" y2="637.916650417" /><line stroke="rgb(0%,0%,0%)" x1="267.773615652" x2="266.478854805" y1="281.843287719" y2="281.987725701" /><line stroke="rgb(0%,0%,0%)" x1="266.478854805" x2="264.204044523" y1="281.987725701" y2="282.493866957" /><line stroke="rgb(0%,0%,0%)" x1="271.839534959" x2="267.773615652" y1="280.790605576" y2="281.843287719" /><line stroke="rgb(0%,0%,0%)" x1="273.523368251" x2="271.839534959" y1="280.367795428" y2="280.790605576" /><line stroke="rgb(0%,0%,0%)" x1="272.782709425" x2="271.989665419" y1="648.89106494" y2="648.549674326" /><line stroke="rgb(0%,0%,0%)" x1="282.138092618" x2="283.480950162" y1="280.152771013" y2="280.683095259" /><line stroke="rgb(0%,0%,0%)" x1="281.814155108" x2="282.138092618" y1="280.014486077" y2="280.152771013" /><line stroke="rgb(0%,0%,0%)" x1="275.164579867" x2="273.523368251" y1="280.1745477" y2="280.367795428" /><line stroke="rgb(0%,0%,0%)" x1="280.468706477" x2="275.164579867" y1="280.005061258" y2="280.1745477" /><line stroke="rgb(0%,0%,0%)" x1="291.343113987" x2="287.328023866" y1="283.42907349" y2="282.556776013" /><line stroke="rgb(0%,0%,0%)" x1="293.956952098" x2="291.343113987" y1="283.541266782" y2="283.42907349" /><line stroke="rgb(0%,0%,0%)" x1="287.328023866" x2="283.480950162" y1="282.556776013" y2="280.683095259" /><line stroke="rgb(0%,0%,0%)" x1="140.387936361" x2="141.68521588" y1="571.123948815" y2="573.561250626" /><line stroke="rgb(0%,0%,0%)" x1="129.99386578" x2="140.387936361" y1="559.607840686" y2="571.123948815" /><line stroke="rgb(0%,0%,0%)" x1="147.174019412" x2="145.142099413" y1="587.259468536" y2="584.384124575" /><line stroke="rgb(0%,0%,0%)" x1="145.142099413" x2="144.427031435" y1="584.384124575" y2="579.865271889" /><line stroke="rgb(0%,0%,0%)" x1="79.8462029299" x2="79.3528646814" y1="463.425434319" y2="464.803028731" /><line stroke="rgb(0%,0%,0%)" x1="90.2608836757" x2="92.4046097397" y1="519.301445435" y2="521.863980073" /><line stroke="rgb(0%,0%,0%)" x1="106.23568978" x2="105.635668913" y1="537.445450224" y2="536.812986417" /><line stroke="rgb(0%,0%,0%)" x1="100.195073901" x2="105.635668913" y1="529.860127701" y2="536.812986417" /><line stroke="rgb(0%,0%,0%)" x1="106.23568978" x2="108.279462889" y1="537.445450224" y2="540.057186608" /><line stroke="rgb(0%,0%,0%)" x1="122.153074547" x2="118.274606514" y1="552.154912847" y2="550.378092228" /><line stroke="rgb(0%,0%,0%)" x1="108.279462889" x2="116.009276563" y1="540.057186608" y2="548.891276953" /><line stroke="rgb(0%,0%,0%)" x1="116.009276563" x2="118.274606514" y1="548.891276953" y2="550.378092228" /><line stroke="rgb(0%,0%,0%)" x1="129.99386578" x2="126.136611775" y1="559.607840686" y2="557.018838754" /><line stroke="rgb(0%,0%,0%)" x1="122.153074547" x2="126.136611775" y1="552.154912847" y2="557.018838754" /><line stroke="rgb(0%,0%,0%)" x1="141.68521588" x2="144.427031435" y1="573.561250626" y2="579.865271889" /><line stroke="rgb(0%,0%,0%)" x1="69.0179616121" x2="74.7645377693" y1="500.314769396" y2="506.507799781" /><line stroke="rgb(0%,0%,0%)" x1="67.1828632281" x2="69.0179616121" y1="494.716777027" y2="500.314769396" /><line stroke="rgb(0%,0%,0%)" x1="67.1828632281" x2="66.8371228529" y1="494.716777027" y2="492.646030283" /><line stroke="rgb(0%,0%,0%)" x1="68.2514039705" x2="66.8371228529" y1="488.856391363" y2="492.646030283" /><line stroke="rgb(0%,0%,0%)" x1="68.2514039705" x2="69.0458526696" y1="488.856391363" y2="485.725049346" /><line stroke="rgb(0%,0%,0%)" x1="77.8019649029" x2="75.0628329608" y1="468.300768136" y2="472.661058878" /><line stroke="rgb(0%,0%,0%)" x1="79.3528646814" x2="77.8019649029" y1="464.803028731" y2="468.300768136" /><line stroke="rgb(0%,0%,0%)" x1="85.7534835271" x2="90.2608836757" y1="516.462943728" y2="519.301445435" /><line stroke="rgb(0%,0%,0%)" x1="85.7534835271" x2="79.4690589909" y1="516.462943728" y2="509.757290393" /><line stroke="rgb(0%,0%,0%)" x1="72.2297707738" x2="69.0458526696" y1="480.02768889" y2="485.725049346" /><line stroke="rgb(0%,0%,0%)" x1="75.0628329608" x2="72.2297707738" y1="472.661058878" y2="480.02768889" /><line stroke="rgb(0%,0%,0%)" x1="79.9549642444" x2="79.8462029299" y1="461.051646917" y2="463.425434319" /><line stroke="rgb(0%,0%,0%)" x1="92.4046097397" x2="100.195073901" y1="521.863980073" y2="529.860127701" /><line stroke="rgb(0%,0%,0%)" x1="74.7645377693" x2="76.2980062829" y1="506.507799781" y2="507.740124024" /><line stroke="rgb(0%,0%,0%)" x1="76.2980062829" x2="79.4690589909" y1="507.740124024" y2="509.757290393" /><line stroke="rgb(0%,0%,0%)" x1="427.559747636" x2="428.729076944" y1="582.762027326" y2="578.855124897" /><line stroke="rgb(0%,0%,0%)" x1="428.729076944" x2="430.922610212" y1="578.855124897" y2="572.929924308" /><line stroke="rgb(0%,0%,0%)" x1="430.922610212" x2="432.245174945" y1="572.929924308" y2="571.252700452" /><line stroke="rgb(0%,0%,0%)" x1="434.22162541" x2="437.524614473" y1="570.007537997" y2="565.063061599" /><line stroke="rgb(0%,0%,0%)" x1="437.524614473" x2="438.369724046" y1="565.063061599" y2="563.240104524" /><line stroke="rgb(0%,0%,0%)" x1="377.805953342" x2="376.134525886" y1="628.321433365" y2="629.140993175" /><line stroke="rgb(0%,0%,0%)" x1="385.804080291" x2="388.121739867" y1="623.073416473" y2="621.611582894" /><line stroke="rgb(0%,0%,0%)" x1="388.121739867" x2="392.756581958" y1="621.611582894" y2="620.190746173" /><line stroke="rgb(0%,0%,0%)" x1="397.962313668" x2="392.756581958" y1="617.940725949" y2="620.190746173" /><line stroke="rgb(0%,0%,0%)" x1="397.962313668" x2="402.908541348" y1="617.940725949" y2="615.13651649" /><line stroke="rgb(0%,0%,0%)" x1="402.908541348" x2="404.846926039" y1="615.13651649" y2="613.200246029" /><line stroke="rgb(0%,0%,0%)" x1="404.846926039" x2="412.57998794" y1="613.200246029" y2="605.974193723" /><line stroke="rgb(0%,0%,0%)" x1="412.57998794" x2="412.68893077" y1="605.974193723" y2="605.834974693" /><line stroke="rgb(0%,0%,0%)" x1="412.68893077" x2="412.728806806" y1="605.834974693" y2="605.791522296" /><line stroke="rgb(0%,0%,0%)" x1="417.762055773" x2="412.728806806" y1="601.346745244" y2="605.791522296" /><line stroke="rgb(0%,0%,0%)" x1="417.762055773" x2="418.800526599" y1="601.346745244" y2="600.001143114" /><line stroke="rgb(0%,0%,0%)" x1="422.586854553" x2="419.897749059" y1="594.823058432" y2="598.22363206" /><line stroke="rgb(0%,0%,0%)" x1="418.800526599" x2="419.897749059" y1="600.001143114" y2="598.22363206" /><line stroke="rgb(0%,0%,0%)" x1="422.586854553" x2="425.350221192" y1="594.823058432" y2="587.098860358" /><line stroke="rgb(0%,0%,0%)" x1="427.559747636" x2="425.350221192" y1="582.762027326" y2="587.098860358" /><line stroke="rgb(0%,0%,0%)" x1="432.245174945" x2="434.22162541" y1="571.252700452" y2="570.007537997" /><line stroke="rgb(0%,0%,0%)" x1="288.996905787" x2="289.099934005" y1="649.540597432" y2="649.50611175" /><line stroke="rgb(0%,0%,0%)" x1="289.099934005" x2="297.62826112" y1="649.50611175" y2="647.761870895" /><line stroke="rgb(0%,0%,0%)" x1="297.73249954" x2="297.62826112" y1="647.746623068" y2="647.761870895" /><line stroke="rgb(0%,0%,0%)" x1="297.73249954" x2="299.524697936" y1="647.746623068" y2="647.322371756" /><line stroke="rgb(0%,0%,0%)" x1="327.394973912" x2="327.762874094" y1="643.800752629" y2="643.765643653" /><line stroke="rgb(0%,0%,0%)" x1="319.498233759" x2="327.394973912" y1="643.001939023" y2="643.800752629" /><line stroke="rgb(0%,0%,0%)" x1="319.498233759" x2="316.49963224" y1="643.001939023" y2="643.030519033" /><line stroke="rgb(0%,0%,0%)" x1="335.191626988" x2="336.481268279" y1="642.279903467" y2="642.416373748" /><line stroke="rgb(0%,0%,0%)" x1="336.481268279" x2="338.684128516" y1="642.416373748" y2="641.718228391" /><line stroke="rgb(0%,0%,0%)" x1="338.684128516" x2="342.478036785" y1="641.718228391" y2="641.679384273" /><line stroke="rgb(0%,0%,0%)" x1="327.762874094" x2="335.191626988" y1="643.765643653" y2="642.279903467" /><line stroke="rgb(0%,0%,0%)" x1="343.132762786" x2="343.557247215" y1="641.518751178" y2="641.449694615" /><line stroke="rgb(0%,0%,0%)" x1="343.557247215" x2="349.663073374" y1="641.449694615" y2="640.177983642" /><line stroke="rgb(0%,0%,0%)" x1="349.663073374" x2="352.205508054" y1="640.177983642" y2="639.829791415" /><line stroke="rgb(0%,0%,0%)" x1="375.392136323" x2="375.959852356" y1="629.569157153" y2="629.239170144" /><line stroke="rgb(0%,0%,0%)" x1="375.959852356" x2="376.134525886" y1="629.239170144" y2="629.140993175" /><line stroke="rgb(0%,0%,0%)" x1="383.126915532" x2="383.13400265" y1="625.016555377" y2="625.014357884" /><line stroke="rgb(0%,0%,0%)" x1="384.539824685" x2="383.13400265" y1="623.669335565" y2="625.014357884" /><line stroke="rgb(0%,0%,0%)" x1="384.539824685" x2="385.804080291" y1="623.669335565" y2="623.073416473" /><line stroke="rgb(0%,0%,0%)" x1="234.925488189" x2="235.290494275" y1="638.786618997" y2="638.820691557" /><line stroke="rgb(0%,0%,0%)" x1="234.635326091" x2="234.203725617" y1="638.656221418" y2="638.592306074" /><line stroke="rgb(0%,0%,0%)" x1="234.635326091" x2="234.925488189" y1="638.656221418" y2="638.786618997" /><line stroke="rgb(0%,0%,0%)" x1="235.290494275" x2="235.621088341" y1="638.820691557" y2="638.909215174" /><line stroke="rgb(0%,0%,0%)" x1="288.996905787" x2="288.768387191" y1="649.540597432" y2="649.549280356" /><line stroke="rgb(0%,0%,0%)" x1="288.768387191" x2="288.463324218" y1="649.549280356" y2="649.551981304" /><line stroke="rgb(0%,0%,0%)" x1="283.202574164" x2="282.482148654" y1="650.482731315" y2="650.460368014" /><line stroke="rgb(0%,0%,0%)" x1="283.202574164" x2="288.463324218" y1="650.482731315" y2="649.551981304" /><line stroke="rgb(0%,0%,0%)" x1="282.482148654" x2="279.87572019" y1="650.460368014" y2="649.854939241" /><line stroke="rgb(0%,0%,0%)" x1="272.782709425" x2="279.87572019" y1="648.89106494" y2="649.854939241" /><line stroke="rgb(0%,0%,0%)" x1="271.989665419" x2="271.010859101" y1="648.549674326" y2="648.078938087" /><line stroke="rgb(0%,0%,0%)" x1="261.97612922" x2="264.798800739" y1="643.100796158" y2="644.56594665" /><line stroke="rgb(0%,0%,0%)" x1="264.798800739" x2="271.010859101" y1="644.56594665" y2="648.078938087" /><line stroke="rgb(0%,0%,0%)" x1="300.231013225" x2="300.460888852" y1="922.824121461" y2="923.362919706" /><line stroke="rgb(0%,0%,0%)" x1="300.231013225" x2="299.744574306" y1="922.824121461" y2="916.577281772" /><line stroke="rgb(0%,0%,0%)" x1="303.683098913" x2="300.377831017" y1="908.415466307" y2="914.657358168" /><line stroke="rgb(0%,0%,0%)" x1="300.377831017" x2="299.744574306" y1="914.657358168" y2="916.577281772" /><line stroke="rgb(0%,0%,0%)" x1="303.683098913" x2="302.753853299" y1="908.415466307" y2="906.324531193" /><line stroke="rgb(0%,0%,0%)" x1="302.753853299" x2="305.495929289" y1="906.324531193" y2="903.609666519" /><line stroke="rgb(0%,0%,0%)" x1="299.524697936" x2="306.100696865" y1="647.322371756" y2="645.112641735" /><line stroke="rgb(0%,0%,0%)" x1="300.460888852" x2="302.765887446" y1="923.362919706" y2="922.295306204" /><line stroke="rgb(0%,0%,0%)" x1="302.765887446" x2="306.896595518" y1="922.295306204" y2="916.731425912" /><line stroke="rgb(0%,0%,0%)" x1="306.896595518" x2="307.057448842" y1="916.731425912" y2="912.066442062" /><line stroke="rgb(0%,0%,0%)" x1="306.770052671" x2="307.057448842" y1="905.281156998" y2="912.066442062" /><line stroke="rgb(0%,0%,0%)" x1="306.770052671" x2="305.495929289" y1="905.281156998" y2="903.609666519" /><line stroke="rgb(0%,0%,0%)" x1="316.49963224" x2="315.194016475" y1="643.030519033" y2="642.971231934" /><line stroke="rgb(0%,0%,0%)" x1="306.100696865" x2="315.194016475" y1="645.112641735" y2="642.971231934" /><line stroke="rgb(0%,0%,0%)" x1="201.830031025" x2="211.264276751" y1="621.729618726" y2="628.036578158" /><line stroke="rgb(0%,0%,0%)" x1="200.315062595" x2="201.830031025" y1="620.600375383" y2="621.729618726" /><line stroke="rgb(0%,0%,0%)" x1="230.536616688" x2="234.203725617" y1="638.52720027" y2="638.592306074" /><line stroke="rgb(0%,0%,0%)" x1="235.621088341" x2="243.390909588" y1="638.909215174" y2="640.399997216" /><line stroke="rgb(0%,0%,0%)" x1="230.536616688" x2="226.354087319" y1="638.52720027" y2="637.782535999" /><line stroke="rgb(0%,0%,0%)" x1="223.101319634" x2="226.354087319" y1="636.516645699" y2="637.782535999" /><line stroke="rgb(0%,0%,0%)" x1="243.390909588" x2="245.333565496" y1="640.399997216" y2="640.680866812" /><line stroke="rgb(0%,0%,0%)" x1="256.791689453" x2="260.522138801" y1="640.95311081" y2="642.61937749" /><line stroke="rgb(0%,0%,0%)" x1="260.522138801" x2="261.97612922" y1="642.61937749" y2="643.100796158" /><line stroke="rgb(0%,0%,0%)" x1="255.138604" x2="256.791689453" y1="641.120522065" y2="640.95311081" /><line stroke="rgb(0%,0%,0%)" x1="253.447674417" x2="255.138604" y1="641.341544088" y2="641.120522065" /><line stroke="rgb(0%,0%,0%)" x1="245.333565496" x2="253.447674417" y1="640.680866812" y2="641.341544088" /><line stroke="rgb(0%,0%,0%)" x1="162.299733238" x2="155.542645225" y1="600.488812132" y2="594.997703498" /><line stroke="rgb(0%,0%,0%)" x1="151.056497826" x2="155.542645225" y1="591.083407623" y2="594.997703498" /><line stroke="rgb(0%,0%,0%)" x1="175.395314268" x2="181.857165134" y1="608.151712008" y2="613.012086327" /><line stroke="rgb(0%,0%,0%)" x1="162.299733238" x2="170.007796334" y1="600.488812132" y2="605.138521384" /><line stroke="rgb(0%,0%,0%)" x1="170.007796334" x2="175.395314268" y1="605.138521384" y2="608.151712008" /><line stroke="rgb(0%,0%,0%)" x1="191.861581017" x2="196.317971474" y1="617.852157634" y2="619.284652558" /><line stroke="rgb(0%,0%,0%)" x1="196.317971474" x2="200.315062595" y1="619.284652558" y2="620.600375383" /><line stroke="rgb(0%,0%,0%)" x1="191.861581017" x2="184.705396198" y1="617.852157634" y2="614.526854544" /><line stroke="rgb(0%,0%,0%)" x1="181.857165134" x2="184.705396198" y1="613.012086327" y2="614.526854544" /><line stroke="rgb(0%,0%,0%)" x1="211.264276751" x2="223.101319634" y1="628.036578158" y2="636.516645699" /><line stroke="rgb(0%,0%,0%)" x1="147.174019412" x2="149.490423032" y1="587.259468536" y2="589.627417895" /><line stroke="rgb(0%,0%,0%)" x1="149.490423032" x2="151.056497826" y1="589.627417895" y2="591.083407623" /><line stroke="rgb(0%,0%,0%)" x1="79.9549642444" x2="79.769026351" y1="461.051646917" y2="459.126091776" /><line stroke="rgb(0%,0%,0%)" x1="80.2882023202" x2="79.769026351" y1="457.817434239" y2="459.126091776" /></svg>