<?xml version="1.0" encoding="utf-8" ?>
<svg baseProfile="full" height="100%" version="1.1" viewBox="0.5 0.5 685.793960571 941.299331665" width="100%" xmlns="http://www.w3.org/2000/svg" xmlns:ev="http://www.w3.org/2001/xml-events" xmlns:xlink="http://www.w3.org/1999/xlink"><defs /><line stroke="rgb(0%,0%,0%)" x1="464.534226305" x2="457.31285743" y1="418.657890944" y2="407.572747791" /><line stroke="rgb(0%,0%,0%)" x1="472.976908576" x2="472.975076611" y1="447.431391885" y2="445.294458026" /><line stroke="rgb(0%,0%,0%)" x1="471.353032072" x2="472.975076611" y1="440.227100543" y2="445.294458026" /><line stroke="rgb(0%,0%,0%)" x1="471.353032072" x2="465.963062226" y1="440.227100543" y2="420.533147234" /><line stroke="rgb(0%,0%,0%)" x1="465.963062226" x2="464.534226305" y1="420.533147234" y2="418.657890944" /><line stroke="rgb(0%,0%,0%)" x1="442.377877254" x2="454.703484267" y1="388.595596837" y2="404.042046114" /><line stroke="rgb(0%,0%,0%)" x1="457.31285743" x2="456.365432188" y1="407.572747791" y2="406.09867928" /><line stroke="rgb(0%,0%,0%)" x1="472.976908576" x2="473.036859044" y1="447.431391885" y2="450.309524868" /><line stroke="rgb(0%,0%,0%)" x1="424.290501848" x2="426.43593703" y1="373.642418574" y2="375.119578421" /><line stroke="rgb(0%,0%,0%)" x1="424.290501848" x2="423.691581576" y1="373.642418574" y2="372.709662249" /><line stroke="rgb(0%,0%,0%)" x1="423.691581576" x2="423.220041765" y1="372.709662249" y2="372.440140626" /><line stroke="rgb(0%,0%,0%)" x1="442.377877254" x2="440.30328514" y1="388.595596837" y2="385.561138003" /><line stroke="rgb(0%,0%,0%)" x1="440.30328514" x2="435.512765662" y1="385.561138003" y2="381.907774868" /><line stroke="rgb(0%,0%,0%)" x1="435.512765662" x2="426.43593703" y1="381.907774868" y2="375.119578421" /><line stroke="rgb(0%,0%,0%)" x1="456.365432188" x2="454.703484267" y1="406.09867928" y2="404.042046114" /><line stroke="rgb(0%,0%,0%)" x1="474.012856368" x2="473.036859044" y1="460.53276821" y2="450.309524868" /><line stroke="rgb(0%,0%,0%)" x1="473.402342063" x2="474.012856368" y1="465.150555924" y2="460.53276821" /><line stroke="rgb(0%,0%,0%)" x1="348.166210399" x2="351.716283948" y1="299.050153039" y2="300.64832261" /><line stroke="rgb(0%,0%,0%)" x1="348.166210399" x2="347.150663134" y1="299.050153039" y2="298.431539276" /><line stroke="rgb(0%,0%,0%)" x1="238.967039917" x2="243.390139355" y1="294.782855697" y2="295.028260906" /><line stroke="rgb(0%,0%,0%)" x1="249.673787486" x2="245.053471242" y1="297.245613425" y2="296.261991735" /><line stroke="rgb(0%,0%,0%)" x1="243.390139355" x2="245.053471242" y1="295.028260906" y2="296.261991735" /><line stroke="rgb(0%,0%,0%)" x1="251.587552228" x2="256.638121648" y1="296.107901268" y2="292.091624577" /><line stroke="rgb(0%,0%,0%)" x1="256.958992707" x2="256.638121648" y1="291.876447893" y2="292.091624577" /><line stroke="rgb(0%,0%,0%)" x1="238.967039917" x2="222.098374818" y1="294.782855697" y2="295.086235649" /><line stroke="rgb(0%,0%,0%)" x1="251.587552228" x2="249.673787486" y1="296.107901268" y2="297.245613425" /><line stroke="rgb(0%,0%,0%)" x1="162.160064493" x2="164.87581648" y1="325.179279234" y2="323.016135447" /><line stroke="rgb(0%,0%,0%)" x1="180.032519686" x2="177.988006672" y1="314.173396354" y2="315.105753156" /><line stroke="rgb(0%,0%,0%)" x1="177.988006672" x2="164.87581648" y1="315.105753156" y2="323.016135447" /><line stroke="rgb(0%,0%,0%)" x1="180.032519686" x2="189.720318177" y1="314.173396354" y2="310.892415629" /><line stroke="rgb(0%,0%,0%)" x1="194.693000368" x2="189.720318177" y1="309.660200915" y2="310.892415629" /><line stroke="rgb(0%,0%,0%)" x1="196.963332277" x2="194.693000368" y1="307.653096353" y2="309.660200915" /><line stroke="rgb(0%,0%,0%)" x1="200.015819256" x2="196.963332277" y1="305.826458037" y2="307.653096353" /><line stroke="rgb(0%,0%,0%)" x1="200.015819256" x2="207.615097144" y1="305.826458037" y2="300.756625111" /><line stroke="rgb(0%,0%,0%)" x1="212.384581966" x2="207.615097144" y1="297.35235676" y2="300.756625111" /><line stroke="rgb(0%,0%,0%)" x1="212.384581966" x2="221.482680216" y1="297.35235676" y2="295.169470661" /><line stroke="rgb(0%,0%,0%)" x1="221.732450353" x2="221.482680216" y1="295.096702567" y2="295.169470661" /><line stroke="rgb(0%,0%,0%)" x1="222.098374818" x2="221.732450353" y1="295.086235649" y2="295.096702567" /><line stroke="rgb(0%,0%,0%)" x1="162.160064493" x2="154.873193259" y1="325.179279234" y2="330.672410119" /><line stroke="rgb(0%,0%,0%)" x1="85.7514099199" x2="86.5868120879" y1="414.030242121" y2="413.302347134" /><line stroke="rgb(0%,0%,0%)" x1="116.119784371" x2="118.992046988" y1="380.20560536" y2="376.55614308" /><line stroke="rgb(0%,0%,0%)" x1="116.119784371" x2="110.881678745" y1="380.20560536" y2="387.167095064" /><line stroke="rgb(0%,0%,0%)" x1="118.992046988" x2="123.812576464" y1="376.55614308" y2="372.86521143" /><line stroke="rgb(0%,0%,0%)" x1="134.49295" x2="130.026645637" y1="355.911540439" y2="361.575685465" /><line stroke="rgb(0%,0%,0%)" x1="130.026645637" x2="124.788725307" y1="361.575685465" y2="371.404697289" /><line stroke="rgb(0%,0%,0%)" x1="134.49295" x2="143.469891419" y1="355.911540439" y2="346.700254819" /><line stroke="rgb(0%,0%,0%)" x1="144.789384117" x2="143.469891419" y1="345.496776377" y2="346.700254819" /><line stroke="rgb(0%,0%,0%)" x1="146.126516685" x2="145.193610611" y1="344.396889484" y2="345.083382328" /><line stroke="rgb(0%,0%,0%)" x1="150.431656783" x2="146.126516685" y1="337.110715254" y2="344.396889484" /><line stroke="rgb(0%,0%,0%)" x1="154.873193259" x2="150.431656783" y1="330.672410119" y2="337.110715254" /><line stroke="rgb(0%,0%,0%)" x1="85.7514099199" x2="85.4114654476" y1="414.030242121" y2="414.414032004" /><line stroke="rgb(0%,0%,0%)" x1="85.4114654476" x2="84.1245194119" y1="414.414032004" y2="417.672176012" /><line stroke="rgb(0%,0%,0%)" x1="92.5762104737" x2="86.5868120879" y1="409.177136799" y2="413.302347134" /><line stroke="rgb(0%,0%,0%)" x1="107.212785307" x2="103.147879913" y1="392.520255225" y2="399.882567672" /><line stroke="rgb(0%,0%,0%)" x1="103.147879913" x2="101.026077781" y1="399.882567672" y2="401.240588083" /><line stroke="rgb(0%,0%,0%)" x1="110.881678745" x2="107.212785307" y1="387.167095064" y2="392.520255225" /><line stroke="rgb(0%,0%,0%)" x1="124.329568735" x2="123.812576464" y1="372.372084177" y2="372.86521143" /><line stroke="rgb(0%,0%,0%)" x1="124.382393464" x2="124.329568735" y1="372.247211081" y2="372.372084177" /><line stroke="rgb(0%,0%,0%)" x1="124.788725307" x2="124.382393464" y1="371.404697289" y2="372.247211081" /><line stroke="rgb(0%,0%,0%)" x1="145.193610611" x2="144.789384117" y1="345.083382328" y2="345.496776377" /><line stroke="rgb(0%,0%,0%)" x1="92.5525162296" x2="92.2428246012" y1="455.440914872" y2="449.577050393" /><line stroke="rgb(0%,0%,0%)" x1="92.5002409705" x2="92.2428246012" y1="448.809914452" y2="449.577050393" /><line stroke="rgb(0%,0%,0%)" x1="90.2812310805" x2="92.2494909003" y1="437.185688577" y2="447.603881032" /><line stroke="rgb(0%,0%,0%)" x1="82.0135958631" x2="82.1700365336" y1="423.507859283" y2="424.109216738" /><line stroke="rgb(0%,0%,0%)" x1="87.932412999" x2="82.1700365336" y1="435.033261638" y2="424.109216738" /><line stroke="rgb(0%,0%,0%)" x1="84.1245194119" x2="82.0135958631" y1="417.672176012" y2="423.507859283" /><line stroke="rgb(0%,0%,0%)" x1="92.6055746087" x2="92.5002409705" y1="448.21917004" y2="448.809914452" /><line stroke="rgb(0%,0%,0%)" x1="92.2494909003" x2="92.6055746087" y1="447.603881032" y2="448.21917004" /><line stroke="rgb(0%,0%,0%)" x1="87.932412999" x2="90.2812310805" y1="435.033261638" y2="437.185688577" /><line stroke="rgb(0%,0%,0%)" x1="92.5762104737" x2="99.8161795841" y1="409.177136799" y2="401.907245671" /><line stroke="rgb(0%,0%,0%)" x1="101.026077781" x2="99.8161795841" y1="401.240588083" y2="401.907245671" /><line stroke="rgb(0%,0%,0%)" x1="457.020585291" x2="456.200849056" y1="529.366924961" y2="530.86849975" /><line stroke="rgb(0%,0%,0%)" x1="474.838241678" x2="474.986486929" y1="477.354243372" y2="481.745352069" /><line stroke="rgb(0%,0%,0%)" x1="442.25692539" x2="440.539461008" y1="549.248247749" y2="550.213639039" /><line stroke="rgb(0%,0%,0%)" x1="445.100022381" x2="442.25692539" y1="546.671006126" y2="549.248247749" /><line stroke="rgb(0%,0%,0%)" x1="445.100022381" x2="456.200849056" y1="546.671006126" y2="530.86849975" /><line stroke="rgb(0%,0%,0%)" x1="457.020585291" x2="458.817216142" y1="529.366924961" y2="527.066171644" /><line stroke="rgb(0%,0%,0%)" x1="458.817216142" x2="460.185666713" y1="527.066171644" y2="524.611518146" /><line stroke="rgb(0%,0%,0%)" x1="472.591269868" x2="470.878809773" y1="495.65256912" y2="502.833461301" /><line stroke="rgb(0%,0%,0%)" x1="472.591269868" x2="473.801793461" y1="495.65256912" y2="491.512279836" /><line stroke="rgb(0%,0%,0%)" x1="473.801793461" x2="474.986486929" y1="491.512279836" y2="481.745352069" /><line stroke="rgb(0%,0%,0%)" x1="473.402342063" x2="474.46564832" y1="465.150555924" y2="475.393016227" /><line stroke="rgb(0%,0%,0%)" x1="395.115152351" x2="391.53667283" y1="326.99538399" y2="322.615380226" /><line stroke="rgb(0%,0%,0%)" x1="408.989692167" x2="407.231905059" y1="355.232019135" y2="352.11672496" /><line stroke="rgb(0%,0%,0%)" x1="402.806090333" x2="403.214109726" y1="341.72786755" y2="345.536026" /><line stroke="rgb(0%,0%,0%)" x1="417.883582953" x2="419.294465396" y1="367.646675228" y2="369.126070094" /><line stroke="rgb(0%,0%,0%)" x1="413.658033285" x2="417.883582953" y1="362.892510046" y2="367.646675228" /><line stroke="rgb(0%,0%,0%)" x1="413.658033285" x2="408.989692167" y1="362.892510046" y2="355.232019135" /><line stroke="rgb(0%,0%,0%)" x1="430.523454605" x2="430.303773157" y1="557.728133132" y2="558.026773476" /><line stroke="rgb(0%,0%,0%)" x1="430.523454605" x2="431.709226722" y1="557.728133132" y2="556.420085124" /><line stroke="rgb(0%,0%,0%)" x1="423.220041765" x2="422.34102928" y1="372.440140626" y2="371.806230616" /><line stroke="rgb(0%,0%,0%)" x1="465.700227686" x2="460.185666713" y1="514.354635166" y2="524.611518146" /><line stroke="rgb(0%,0%,0%)" x1="465.700227686" x2="468.682366753" y1="514.354635166" y2="509.814726899" /><line stroke="rgb(0%,0%,0%)" x1="468.682366753" x2="470.878809773" y1="509.814726899" y2="502.833461301" /><line stroke="rgb(0%,0%,0%)" x1="474.838241678" x2="474.46564832" y1="477.354243372" y2="475.393016227" /><line stroke="rgb(0%,0%,0%)" x1="371.651955717" x2="371.230438923" y1="307.970414183" y2="307.764867562" /><line stroke="rgb(0%,0%,0%)" x1="362.798121847" x2="365.360423314" y1="304.888345025" y2="305.690757961" /><line stroke="rgb(0%,0%,0%)" x1="376.323090874" x2="378.81818066" y1="311.88269699" y2="312.867327054" /><line stroke="rgb(0%,0%,0%)" x1="376.323090874" x2="371.651955717" y1="311.88269699" y2="307.970414183" /><line stroke="rgb(0%,0%,0%)" x1="395.115152351" x2="398.012682845" y1="326.99538399" y2="330.301012571" /><line stroke="rgb(0%,0%,0%)" x1="391.53667283" x2="386.23708206" y1="322.615380226" y2="317.681921379" /><line stroke="rgb(0%,0%,0%)" x1="386.23708206" x2="381.425434705" y1="317.681921379" y2="315.118790519" /><line stroke="rgb(0%,0%,0%)" x1="407.231905059" x2="404.324736352" y1="352.11672496" y2="347.977114073" /><line stroke="rgb(0%,0%,0%)" x1="404.324736352" x2="403.214109726" y1="347.977114073" y2="345.536026" /><line stroke="rgb(0%,0%,0%)" x1="402.806090333" x2="398.713806024" y1="341.72786755" y2="332.158306793" /><line stroke="rgb(0%,0%,0%)" x1="398.713806024" x2="398.432343571" y1="332.158306793" y2="331.510492811" /><line stroke="rgb(0%,0%,0%)" x1="422.34102928" x2="421.02633916" y1="371.806230616" y2="370.709501366" /><line stroke="rgb(0%,0%,0%)" x1="421.02633916" x2="419.294465396" y1="370.709501366" y2="369.126070094" /><line stroke="rgb(0%,0%,0%)" x1="431.709226722" x2="434.227844831" y1="556.420085124" y2="555.028782602" /><line stroke="rgb(0%,0%,0%)" x1="434.227844831" x2="440.539461008" y1="555.028782602" y2="550.213639039" /><line stroke="rgb(0%,0%,0%)" x1="353.19886071" x2="352.085532007" y1="301.264925094" y2="300.856574034" /><line stroke="rgb(0%,0%,0%)" x1="358.565379633" x2="353.19886071" y1="304.32471744" y2="301.264925094" /><line stroke="rgb(0%,0%,0%)" x1="352.085532007" x2="351.716283948" y1="300.856574034" y2="300.64832261" /><line stroke="rgb(0%,0%,0%)" x1="347.150663134" x2="346.437645083" y1="298.431539276" y2="298.378224841" /><line stroke="rgb(0%,0%,0%)" x1="343.354912653" x2="346.437645083" y1="297.010231412" y2="298.378224841" /><line stroke="rgb(0%,0%,0%)" x1="371.230438923" x2="365.360423314" y1="307.764867562" y2="305.690757961" /><line stroke="rgb(0%,0%,0%)" x1="362.798121847" x2="359.679332963" y1="304.888345025" y2="304.608254733" /><line stroke="rgb(0%,0%,0%)" x1="359.679332963" x2="358.565379633" y1="304.608254733" y2="304.32471744" /><line stroke="rgb(0%,0%,0%)" x1="381.425434705" x2="378.81818066" y1="315.118790519" y2="312.867327054" /><line stroke="rgb(0%,0%,0%)" x1="398.432343571" x2="398.012682845" y1="331.510492811" y2="330.301012571" /><line stroke="rgb(0%,0%,0%)" x1="321.403152157" x2="316.676712168" y1="292.363951226" y2="293.378932333" /><line stroke="rgb(0%,0%,0%)" x1="311.336967508" x2="306.124675017" y1="293.736856592" y2="293.528285677" /><line stroke="rgb(0%,0%,0%)" x1="316.676712168" x2="311.336967508" y1="293.378932333" y2="293.736856592" /><line stroke="rgb(0%,0%,0%)" x1="329.522870263" x2="324.165232563" y1="293.12472727" y2="292.891465689" /><line stroke="rgb(0%,0%,0%)" x1="324.165232563" x2="321.403152157" y1="292.891465689" y2="292.363951226" /><line stroke="rgb(0%,0%,0%)" x1="343.354912653" x2="339.524435354" y1="297.010231412" y2="295.330442518" /><line stroke="rgb(0%,0%,0%)" x1="333.610788869" x2="330.454323589" y1="293.654079651" y2="293.722900413" /><line stroke="rgb(0%,0%,0%)" x1="333.610788869" x2="339.524435354" y1="293.654079651" y2="295.330442518" /><line stroke="rgb(0%,0%,0%)" x1="330.454323589" x2="329.522870263" y1="293.722900413" y2="293.12472727" /><line stroke="rgb(0%,0%,0%)" x1="291.295190263" x2="288.268407464" y1="287.871904517" y2="287.208591896" /><line stroke="rgb(0%,0%,0%)" x1="288.268407464" x2="284.294586601" y1="287.208591896" y2="285.884162584" /><line stroke="rgb(0%,0%,0%)" x1="284.294586601" x2="277.841732486" y1="285.884162584" y2="284.641021775" /><line stroke="rgb(0%,0%,0%)" x1="304.399003552" x2="300.064380962" y1="292.534019595" y2="291.644495678" /><line stroke="rgb(0%,0%,0%)" x1="300.064380962" x2="298.086372931" y1="291.644495678" y2="290.639671079" /><line stroke="rgb(0%,0%,0%)" x1="291.295190263" x2="298.086372931" y1="287.871904517" y2="290.639671079" /><line stroke="rgb(0%,0%,0%)" x1="306.124675017" x2="304.399003552" y1="293.528285677" y2="292.534019595" /><line stroke="rgb(0%,0%,0%)" x1="259.009775085" x2="256.958992707" y1="290.364646316" y2="291.876447893" /><line stroke="rgb(0%,0%,0%)" x1="262.631297894" x2="259.009775085" y1="288.649244038" y2="290.364646316" /><line stroke="rgb(0%,0%,0%)" x1="277.841732486" x2="274.086860551" y1="284.641021775" y2="285.371294234" /><line stroke="rgb(0%,0%,0%)" x1="262.631297894" x2="265.499689467" y1="288.649244038" y2="286.96888716" /><line stroke="rgb(0%,0%,0%)" x1="265.499689467" x2="274.086860551" y1="286.96888716" y2="285.371294234" /><line stroke="rgb(0%,0%,0%)" x1="124.821424583" x2="123.107352284" y1="540.853660692" y2="538.565776062" /><line stroke="rgb(0%,0%,0%)" x1="125.720049664" x2="124.821424583" y1="542.00270954" y2="540.853660692" /><line stroke="rgb(0%,0%,0%)" x1="129.892412802" x2="128.646612099" y1="551.153877012" y2="549.521566824" /><line stroke="rgb(0%,0%,0%)" x1="152.461175256" x2="165.662342322" y1="575.028632192" y2="582.308336748" /><line stroke="rgb(0%,0%,0%)" x1="165.662342322" x2="166.662635273" y1="582.308336748" y2="582.721734031" /><line stroke="rgb(0%,0%,0%)" x1="78.9928961407" x2="79.4136438479" y1="503.133601172" y2="503.587036968" /><line stroke="rgb(0%,0%,0%)" x1="78.9928961407" x2="78.7931112971" y1="503.133601172" y2="502.524154812" /><line stroke="rgb(0%,0%,0%)" x1="93.8977001337" x2="98.6806326061" y1="513.87527283" y2="516.887288968" /><line stroke="rgb(0%,0%,0%)" x1="93.8977001337" x2="93.1433806221" y1="513.87527283" y2="513.070393224" /><line stroke="rgb(0%,0%,0%)" x1="89.2749415082" x2="89.0961281941" y1="473.780101915" y2="474.245742351" /><line stroke="rgb(0%,0%,0%)" x1="79.4136438479" x2="83.8889385806" y1="503.587036968" y2="507.18346829" /><line stroke="rgb(0%,0%,0%)" x1="83.8889385806" x2="93.1433806221" y1="507.18346829" y2="513.070393224" /><line stroke="rgb(0%,0%,0%)" x1="117.169944219" x2="106.93233563" y1="528.572442732" y2="521.026930097" /><line stroke="rgb(0%,0%,0%)" x1="117.169944219" x2="121.371130677" y1="528.572442732" y2="531.90574717" /><line stroke="rgb(0%,0%,0%)" x1="125.720049664" x2="126.818961573" y1="542.00270954" y2="544.625808361" /><line stroke="rgb(0%,0%,0%)" x1="126.818961573" x2="128.646612099" y1="544.625808361" y2="549.521566824" /><line stroke="rgb(0%,0%,0%)" x1="123.107352284" x2="122.601991825" y1="538.565776062" y2="535.20566646" /><line stroke="rgb(0%,0%,0%)" x1="121.914595602" x2="122.601991825" y1="532.844866085" y2="535.20566646" /><line stroke="rgb(0%,0%,0%)" x1="121.371130677" x2="121.914595602" y1="531.90574717" y2="532.844866085" /><line stroke="rgb(0%,0%,0%)" x1="129.892412802" x2="137.327826673" y1="551.153877012" y2="560.222823247" /><line stroke="rgb(0%,0%,0%)" x1="137.327826673" x2="142.355003481" y1="560.222823247" y2="566.556984056" /><line stroke="rgb(0%,0%,0%)" x1="142.355003481" x2="152.461175256" y1="566.556984056" y2="575.028632192" /><line stroke="rgb(0%,0%,0%)" x1="78.4689133351" x2="78.7931112971" y1="495.560155731" y2="502.524154812" /><line stroke="rgb(0%,0%,0%)" x1="78.4689133351" x2="79.5458147185" y1="495.560155731" y2="492.383642522" /><line stroke="rgb(0%,0%,0%)" x1="79.5458147185" x2="81.808444688" y1="492.383642522" y2="490.337265707" /><line stroke="rgb(0%,0%,0%)" x1="85.075926366" x2="83.7603831578" y1="484.167590368" y2="487.809627203" /><line stroke="rgb(0%,0%,0%)" x1="83.7603831578" x2="81.808444688" y1="487.809627203" y2="490.337265707" /><line stroke="rgb(0%,0%,0%)" x1="89.2749415082" x2="89.8039914353" y1="473.780101915" y2="472.526019065" /><line stroke="rgb(0%,0%,0%)" x1="92.4329062244" x2="92.3082533919" y1="461.425209394" y2="464.097979273" /><line stroke="rgb(0%,0%,0%)" x1="98.6806326061" x2="102.257192999" y1="516.887288968" y2="518.669071653" /><line stroke="rgb(0%,0%,0%)" x1="88.6196600894" x2="85.075926366" y1="478.259932489" y2="484.167590368" /><line stroke="rgb(0%,0%,0%)" x1="89.0961281941" x2="88.6196600894" y1="474.245742351" y2="478.259932489" /><line stroke="rgb(0%,0%,0%)" x1="91.1329106447" x2="89.8039914353" y1="467.887769646" y2="472.526019065" /><line stroke="rgb(0%,0%,0%)" x1="92.3356558145" x2="91.1329106447" y1="465.471128897" y2="467.887769646" /><line stroke="rgb(0%,0%,0%)" x1="92.3082533919" x2="92.3356558145" y1="464.097979273" y2="465.471128897" /><line stroke="rgb(0%,0%,0%)" x1="103.312871309" x2="106.93233563" y1="519.01018279" y2="521.026930097" /><line stroke="rgb(0%,0%,0%)" x1="102.257192999" x2="103.312871309" y1="518.669071653" y2="519.01018279" /><line stroke="rgb(0%,0%,0%)" x1="402.1355559" x2="401.46132279" y1="606.322723459" y2="607.184332061" /><line stroke="rgb(0%,0%,0%)" x1="402.1355559" x2="402.296223091" y1="606.322723459" y2="606.147646514" /><line stroke="rgb(0%,0%,0%)" x1="406.835290555" x2="405.774399752" y1="599.071427572" y2="600.446080463" /><line stroke="rgb(0%,0%,0%)" x1="406.835290555" x2="407.924707326" y1="599.071427572" y2="597.306561808" /><line stroke="rgb(0%,0%,0%)" x1="407.924707326" x2="410.06425092" y1="597.306561808" y2="589.772750025" /><line stroke="rgb(0%,0%,0%)" x1="410.06425092" x2="410.887790665" y1="589.772750025" y2="585.912126094" /><line stroke="rgb(0%,0%,0%)" x1="410.887790665" x2="414.564117211" y1="585.912126094" y2="580.312537348" /><line stroke="rgb(0%,0%,0%)" x1="415.476149584" x2="414.564117211" y1="579.399225809" y2="580.312537348" /><line stroke="rgb(0%,0%,0%)" x1="415.476149584" x2="416.022600837" y1="579.399225809" y2="577.878250405" /><line stroke="rgb(0%,0%,0%)" x1="416.022600837" x2="417.793075608" y1="577.878250405" y2="575.519466592" /><line stroke="rgb(0%,0%,0%)" x1="417.793075608" x2="420.948889751" y1="575.519466592" y2="569.338520609" /><line stroke="rgb(0%,0%,0%)" x1="420.948889751" x2="423.530052987" y1="569.338520609" y2="566.332544033" /><line stroke="rgb(0%,0%,0%)" x1="423.530052987" x2="427.625902629" y1="566.332544033" y2="560.70376672" /><line stroke="rgb(0%,0%,0%)" x1="427.625902629" x2="430.303773157" y1="560.70376672" y2="558.026773476" /><line stroke="rgb(0%,0%,0%)" x1="351.924967848" x2="353.678646643" y1="629.363942542" y2="628.896033455" /><line stroke="rgb(0%,0%,0%)" x1="353.678646643" x2="355.379718737" y1="628.896033455" y2="628.057422331" /><line stroke="rgb(0%,0%,0%)" x1="359.312963737" x2="365.086022575" y1="626.9331133" y2="624.792516861" /><line stroke="rgb(0%,0%,0%)" x1="372.843213731" x2="366.527726259" y1="623.528378383" y2="624.505415257" /><line stroke="rgb(0%,0%,0%)" x1="372.843213731" x2="375.792798525" y1="623.528378383" y2="622.872126312" /><line stroke="rgb(0%,0%,0%)" x1="375.792798525" x2="378.948554091" y1="622.872126312" y2="622.238798032" /><line stroke="rgb(0%,0%,0%)" x1="378.948554091" x2="380.493121674" y1="622.238798032" y2="621.442229639" /><line stroke="rgb(0%,0%,0%)" x1="380.493121674" x2="388.876510515" y1="621.442229639" y2="616.546713135" /><line stroke="rgb(0%,0%,0%)" x1="394.163601796" x2="389.91531321" y1="612.562897323" y2="615.753175965" /><line stroke="rgb(0%,0%,0%)" x1="394.163601796" x2="397.092293916" y1="612.562897323" y2="610.924807949" /><line stroke="rgb(0%,0%,0%)" x1="388.876510515" x2="389.91531321" y1="616.546713135" y2="615.753175965" /><line stroke="rgb(0%,0%,0%)" x1="397.092293916" x2="401.46132279" y1="610.924807949" y2="607.184332061" /><line stroke="rgb(0%,0%,0%)" x1="402.296223091" x2="405.774399752" y1="606.147646514" y2="600.446080463" /><line stroke="rgb(0%,0%,0%)" x1="312.736210421" x2="304.754583277" y1="633.738557677" y2="638.019108762" /><line stroke="rgb(0%,0%,0%)" x1="312.736210421" x2="313.886202227" y1="633.738557677" y2="633.399430004" /><line stroke="rgb(0%,0%,0%)" x1="313.886202227" x2="318.984950069" y1="633.399430004" y2="632.595689631" /><line stroke="rgb(0%,0%,0%)" x1="330.489664679" x2="322.485651841" y1="631.821580547" y2="632.613440843" /><line stroke="rgb(0%,0%,0%)" x1="330.489664679" x2="334.314588638" y1="631.821580547" y2="632.547094967" /><line stroke="rgb(0%,0%,0%)" x1="318.984950069" x2="322.485651841" y1="632.595689631" y2="632.613440843" /><line stroke="rgb(0%,0%,0%)" x1="334.314588638" x2="338.325381098" y1="632.547094967" y2="632.079028562" /><line stroke="rgb(0%,0%,0%)" x1="345.564953664" x2="349.189698935" y1="631.305681053" y2="630.30645225" /><line stroke="rgb(0%,0%,0%)" x1="351.924967848" x2="349.189698935" y1="629.363942542" y2="630.30645225" /><line stroke="rgb(0%,0%,0%)" x1="345.564953664" x2="338.325381098" y1="631.305681053" y2="632.079028562" /><line stroke="rgb(0%,0%,0%)" x1="355.379718737" x2="356.826396306" y1="628.057422331" y2="627.85346679" /><line stroke="rgb(0%,0%,0%)" x1="356.826396306" x2="359.312963737" y1="627.85346679" y2="626.9331133" /><line stroke="rgb(0%,0%,0%)" x1="365.086022575" x2="366.527726259" y1="624.792516861" y2="624.505415257" /><line stroke="rgb(0%,0%,0%)" x1="239.857589189" x2="239.4697572" y1="630.81595545" y2="630.754549164" /><line stroke="rgb(0%,0%,0%)" x1="239.857589189" x2="240.563584272" y1="630.81595545" y2="630.978476287" /><line stroke="rgb(0%,0%,0%)" x1="264.045030216" x2="275.282125411" y1="637.729601339" y2="643.620585419" /><line stroke="rgb(0%,0%,0%)" x1="275.282125411" x2="276.35097992" y1="643.620585419" y2="644.15132038" /><line stroke="rgb(0%,0%,0%)" x1="284.724017765" x2="276.35097992" y1="644.431588707" y2="644.15132038" /><line stroke="rgb(0%,0%,0%)" x1="284.724017765" x2="285.958949457" y1="644.431588707" y2="644.574385035" /><line stroke="rgb(0%,0%,0%)" x1="258.955318295" x2="254.3087144" y1="634.196869538" y2="632.522943021" /><line stroke="rgb(0%,0%,0%)" x1="258.955318295" x2="264.045030216" y1="634.196869538" y2="637.729601339" /><line stroke="rgb(0%,0%,0%)" x1="301.613751343" x2="287.607456242" y1="639.866873591" y2="644.606777821" /><line stroke="rgb(0%,0%,0%)" x1="285.958949457" x2="287.607456242" y1="644.574385035" y2="644.606777821" /><line stroke="rgb(0%,0%,0%)" x1="301.613751343" x2="303.160360905" y1="639.866873591" y2="638.855096779" /><line stroke="rgb(0%,0%,0%)" x1="303.160360905" x2="304.754583277" y1="638.855096779" y2="638.019108762" /><line stroke="rgb(0%,0%,0%)" x1="185.111468443" x2="192.936638283" y1="592.031875062" y2="598.725361427" /><line stroke="rgb(0%,0%,0%)" x1="192.936638283" x2="195.61548012" y1="598.725361427" y2="598.908343817" /><line stroke="rgb(0%,0%,0%)" x1="212.184040837" x2="215.296475323" y1="618.511157355" y2="620.887101881" /><line stroke="rgb(0%,0%,0%)" x1="212.184040837" x2="203.965676435" y1="618.511157355" y2="609.798222564" /><line stroke="rgb(0%,0%,0%)" x1="195.61548012" x2="197.667755959" y1="598.908343817" y2="602.966719262" /><line stroke="rgb(0%,0%,0%)" x1="239.4697572" x2="238.199962489" y1="630.754549164" y2="630.370495975" /><line stroke="rgb(0%,0%,0%)" x1="221.664566258" x2="226.654315058" y1="624.572133844" y2="626.720661296" /><line stroke="rgb(0%,0%,0%)" x1="226.654315058" x2="238.199962489" y1="626.720661296" y2="630.370495975" /><line stroke="rgb(0%,0%,0%)" x1="215.296475323" x2="221.664566258" y1="620.887101881" y2="624.572133844" /><line stroke="rgb(0%,0%,0%)" x1="198.962097899" x2="203.965676435" y1="604.459759751" y2="609.798222564" /><line stroke="rgb(0%,0%,0%)" x1="198.574355379" x2="198.962097899" y1="603.800297841" y2="604.459759751" /><line stroke="rgb(0%,0%,0%)" x1="240.563584272" x2="241.083534648" y1="630.978476287" y2="630.99187834" /><line stroke="rgb(0%,0%,0%)" x1="241.083534648" x2="252.506156969" y1="630.99187834" y2="632.348074281" /><line stroke="rgb(0%,0%,0%)" x1="252.506156969" x2="254.3087144" y1="632.348074281" y2="632.522943021" /><line stroke="rgb(0%,0%,0%)" x1="172.797106817" x2="167.030272736" y1="587.228998509" y2="582.804203513" /><line stroke="rgb(0%,0%,0%)" x1="166.662635273" x2="166.801831808" y1="582.721734031" y2="582.766924241" /><line stroke="rgb(0%,0%,0%)" x1="185.111468443" x2="175.757396399" y1="592.031875062" y2="587.991047748" /><line stroke="rgb(0%,0%,0%)" x1="172.797106817" x2="175.757396399" y1="587.228998509" y2="587.991047748" /><line stroke="rgb(0%,0%,0%)" x1="166.801831808" x2="167.030272736" y1="582.766924241" y2="582.804203513" /><line stroke="rgb(0%,0%,0%)" x1="197.667755959" x2="197.83684508" y1="602.966719262" y2="603.095350428" /><line stroke="rgb(0%,0%,0%)" x1="197.83684508" x2="198.574355379" y1="603.095350428" y2="603.800297841" /><line stroke="rgb(0%,0%,0%)" x1="92.5525162296" x2="92.4329062244" y1="455.440914872" y2="461.425209394" /></svg>