<?xml version="1.0" encoding="utf-8" ?>
<svg baseProfile="full" height="100%" version="1.1" viewBox="0.5 0.5 685.793960571 941.299331665" width="100%" xmlns="http://www.w3.org/2000/svg" xmlns:ev="http://www.w3.org/2001/xml-events" xmlns:xlink="http://www.w3.org/1999/xlink"><defs /><line stroke="rgb(0%,0%,0%)" x1="463.407624954" x2="459.304291876" y1="420.092879387" y2="413.794068819" /><line stroke="rgb(0%,0%,0%)" x1="470.927241687" x2="470.927058165" y1="445.794536852" y2="445.580463506" /><line stroke="rgb(0%,0%,0%)" x1="470.764565302" x2="470.927058165" y1="445.072826751" y2="445.580463506" /><line stroke="rgb(0%,0%,0%)" x1="470.764565302" x2="464.219519458" y1="445.072826751" y2="421.158439296" /><line stroke="rgb(0%,0%,0%)" x1="464.219519458" x2="463.407624954" y1="421.158439296" y2="420.092879387" /><line stroke="rgb(0%,0%,0%)" x1="441.463809587" x2="449.604157855" y1="390.467486941" y2="400.668970445" /><line stroke="rgb(0%,0%,0%)" x1="459.304291876" x2="455.782315046" y1="413.794068819" y2="408.314338164" /><line stroke="rgb(0%,0%,0%)" x1="470.927241687" x2="470.933247394" y1="445.794536852" y2="446.0828619" /><line stroke="rgb(0%,0%,0%)" x1="441.463809587" x2="438.053930585" y1="390.467486941" y2="385.479934259" /><line stroke="rgb(0%,0%,0%)" x1="438.053930585" x2="435.066162073" y1="385.479934259" y2="383.201391529" /><line stroke="rgb(0%,0%,0%)" x1="435.066162073" x2="426.022296637" y1="383.201391529" y2="376.437846935" /><line stroke="rgb(0%,0%,0%)" x1="455.782315046" x2="449.604157855" y1="408.314338164" y2="400.668970445" /><line stroke="rgb(0%,0%,0%)" x1="472.190296197" x2="470.933247394" y1="459.250024866" y2="446.0828619" /><line stroke="rgb(0%,0%,0%)" x1="426.022296637" x2="423.416032631" y1="376.437846935" y2="374.57054536" /><line stroke="rgb(0%,0%,0%)" x1="423.416032631" x2="422.691077453" y1="374.57054536" y2="374.270778502" /><line stroke="rgb(0%,0%,0%)" x1="471.403976135" x2="472.190296197" y1="465.197566301" y2="459.250024866" /><line stroke="rgb(0%,0%,0%)" x1="349.353093876" x2="350.06537757" y1="301.947155197" y2="302.267810561" /><line stroke="rgb(0%,0%,0%)" x1="349.353093876" x2="346.944441387" y1="301.947155197" y2="300.479940787" /><line stroke="rgb(0%,0%,0%)" x1="241.842953758" x2="242.680766218" y1="296.810471717" y2="296.85695576" /><line stroke="rgb(0%,0%,0%)" x1="249.357482071" x2="242.995830395" y1="298.444981531" y2="297.090645975" /><line stroke="rgb(0%,0%,0%)" x1="242.680766218" x2="242.995830395" y1="296.85695576" y2="297.090645975" /><line stroke="rgb(0%,0%,0%)" x1="251.992519162" x2="255.677214376" y1="296.87848087" y2="293.948364626" /><line stroke="rgb(0%,0%,0%)" x1="256.541023012" x2="255.677214376" y1="293.369093071" y2="293.948364626" /><line stroke="rgb(0%,0%,0%)" x1="241.842953758" x2="238.6477333" y1="296.810471717" y2="296.867937191" /><line stroke="rgb(0%,0%,0%)" x1="251.992519162" x2="249.357482071" y1="296.87848087" y2="298.444981531" /><line stroke="rgb(0%,0%,0%)" x1="161.170709746" x2="161.25750459" y1="328.192791208" y2="328.123657601" /><line stroke="rgb(0%,0%,0%)" x1="178.202674307" x2="178.10715188" y1="317.914964058" y2="317.958525035" /><line stroke="rgb(0%,0%,0%)" x1="178.10715188" x2="161.25750459" y1="317.958525035" y2="328.123657601" /><line stroke="rgb(0%,0%,0%)" x1="178.202674307" x2="178.655301419" y1="317.914964058" y2="317.76167218" /><line stroke="rgb(0%,0%,0%)" x1="193.74867698" x2="178.655301419" y1="314.021582075" y2="317.76167218" /><line stroke="rgb(0%,0%,0%)" x1="200.298001232" x2="200.138003733" y1="308.22562895" y2="308.373048123" /><line stroke="rgb(0%,0%,0%)" x1="193.74867698" x2="200.138003733" y1="314.021582075" y2="308.373048123" /><line stroke="rgb(0%,0%,0%)" x1="210.7163032" x2="205.081247272" y1="300.699021616" y2="304.721100155" /><line stroke="rgb(0%,0%,0%)" x1="205.081247272" x2="200.646118534" y1="304.721100155" y2="307.94217973" /><line stroke="rgb(0%,0%,0%)" x1="210.7163032" x2="211.242067603" y1="300.699021616" y2="300.572876154" /><line stroke="rgb(0%,0%,0%)" x1="222.359782194" x2="211.242067603" y1="297.333838419" y2="300.572876154" /><line stroke="rgb(0%,0%,0%)" x1="238.6477333" x2="222.359782194" y1="296.867937191" y2="297.333838419" /><line stroke="rgb(0%,0%,0%)" x1="161.170709746" x2="160.937822921" y1="328.192791208" y2="328.36835048" /><line stroke="rgb(0%,0%,0%)" x1="200.646118534" x2="200.298001232" y1="307.94217973" y2="308.22562895" /><line stroke="rgb(0%,0%,0%)" x1="142.023227825" x2="131.758391189" y1="349.493392462" y2="358.855709986" /><line stroke="rgb(0%,0%,0%)" x1="152.45740557" x2="145.177568082" y1="340.91053717" y2="346.267514123" /><line stroke="rgb(0%,0%,0%)" x1="153.483690505" x2="152.45740557" y1="339.173615566" y2="340.91053717" /><line stroke="rgb(0%,0%,0%)" x1="160.937822921" x2="153.483690505" y1="328.36835048" y2="339.173615566" /><line stroke="rgb(0%,0%,0%)" x1="93.901595555" x2="87.9748584604" y1="410.049146429" y2="414.131198672" /><line stroke="rgb(0%,0%,0%)" x1="106.292867457" x2="112.353670564" y1="400.22321548" y2="389.245954802" /><line stroke="rgb(0%,0%,0%)" x1="106.292867457" x2="102.089474588" y1="400.22321548" y2="402.913519741" /><line stroke="rgb(0%,0%,0%)" x1="113.365295943" x2="112.353670564" y1="387.613958421" y2="389.245954802" /><line stroke="rgb(0%,0%,0%)" x1="118.771541233" x2="113.365295943" y1="380.477633099" y2="387.613958421" /><line stroke="rgb(0%,0%,0%)" x1="119.078311251" x2="118.771541233" y1="379.365454303" y2="380.477633099" /><line stroke="rgb(0%,0%,0%)" x1="124.45703436" x2="119.078311251" y1="374.235019853" y2="379.365454303" /><line stroke="rgb(0%,0%,0%)" x1="125.298391814" x2="124.45703436" y1="372.246123555" y2="374.235019853" /><line stroke="rgb(0%,0%,0%)" x1="125.298391814" x2="131.751804383" y1="372.246123555" y2="358.86521533" /><line stroke="rgb(0%,0%,0%)" x1="131.758391189" x2="131.751804383" y1="358.855709986" y2="358.86521533" /><line stroke="rgb(0%,0%,0%)" x1="145.177568082" x2="142.023227825" y1="346.267514123" y2="349.493392462" /><line stroke="rgb(0%,0%,0%)" x1="94.9912660686" x2="94.9044260521" y1="452.954989016" y2="451.310714385" /><line stroke="rgb(0%,0%,0%)" x1="95.7198463303" x2="94.9044260521" y1="448.88065058" y2="451.310714385" /><line stroke="rgb(0%,0%,0%)" x1="93.2915465818" x2="94.9255429512" y1="436.411383861" y2="445.060287057" /><line stroke="rgb(0%,0%,0%)" x1="84.6552821286" x2="85.0035213528" y1="422.631938004" y2="423.970568508" /><line stroke="rgb(0%,0%,0%)" x1="89.9513895267" x2="85.0035213528" y1="433.350506527" y2="423.970568508" /><line stroke="rgb(0%,0%,0%)" x1="84.6552821286" x2="87.5280607422" y1="422.631938004" y2="414.690093732" /><line stroke="rgb(0%,0%,0%)" x1="87.9748584604" x2="87.5280607422" y1="414.131198672" y2="414.690093732" /><line stroke="rgb(0%,0%,0%)" x1="96.0535126965" x2="95.7198463303" y1="447.009343894" y2="448.88065058" /><line stroke="rgb(0%,0%,0%)" x1="94.9255429512" x2="96.0535126965" y1="445.060287057" y2="447.009343894" /><line stroke="rgb(0%,0%,0%)" x1="89.9513895267" x2="93.2915465818" y1="433.350506527" y2="436.411383861" /><line stroke="rgb(0%,0%,0%)" x1="93.901595555" x2="99.6926076135" y1="410.049146429" y2="404.234200738" /><line stroke="rgb(0%,0%,0%)" x1="102.089474588" x2="99.6926076135" y1="402.913519741" y2="404.234200738" /><line stroke="rgb(0%,0%,0%)" x1="472.892892885" x2="473.007058637" y1="477.306205384" y2="480.687859911" /><line stroke="rgb(0%,0%,0%)" x1="441.901832384" x2="441.134468767" y1="547.832073384" y2="548.263410511" /><line stroke="rgb(0%,0%,0%)" x1="443.172128998" x2="441.901832384" y1="546.680561031" y2="547.832073384" /><line stroke="rgb(0%,0%,0%)" x1="443.172128998" x2="454.9104292" y1="546.680561031" y2="529.970583547" /><line stroke="rgb(0%,0%,0%)" x1="458.00288896" x2="455.826468334" y1="524.735829689" y2="528.639776692" /><line stroke="rgb(0%,0%,0%)" x1="470.762130391" x2="469.923822854" y1="496.336967284" y2="499.852258562" /><line stroke="rgb(0%,0%,0%)" x1="470.762130391" x2="471.354722916" y1="496.336967284" y2="494.310154676" /><line stroke="rgb(0%,0%,0%)" x1="471.354722916" x2="473.007058637" y1="494.310154676" y2="480.687859911" /><line stroke="rgb(0%,0%,0%)" x1="471.403976135" x2="472.381651478" y1="465.197566301" y2="474.615173721" /><line stroke="rgb(0%,0%,0%)" x1="393.605933923" x2="392.351141021" y1="327.705744749" y2="326.169897583" /><line stroke="rgb(0%,0%,0%)" x1="400.0538403" x2="400.266290417" y1="342.59228268" y2="344.575138697" /><line stroke="rgb(0%,0%,0%)" x1="414.475088596" x2="414.948298345" y1="367.124723279" y2="367.620912084" /><line stroke="rgb(0%,0%,0%)" x1="413.057839903" x2="414.475088596" y1="365.530177026" y2="367.124723279" /><line stroke="rgb(0%,0%,0%)" x1="413.057839903" x2="407.547047316" y1="365.530177026" y2="356.487269608" /><line stroke="rgb(0%,0%,0%)" x1="429.840442929" x2="429.196622092" y1="556.201564831" y2="556.911775968" /><line stroke="rgb(0%,0%,0%)" x1="421.671304439" x2="422.691077453" y1="373.535357409" y2="374.270778502" /><line stroke="rgb(0%,0%,0%)" x1="454.9104292" x2="455.695861759" y1="529.970583547" y2="528.816269702" /><line stroke="rgb(0%,0%,0%)" x1="462.492376054" x2="458.00288896" y1="516.385546867" y2="524.735829689" /><line stroke="rgb(0%,0%,0%)" x1="462.492376054" x2="466.771850136" y1="516.385546867" y2="509.870619384" /><line stroke="rgb(0%,0%,0%)" x1="466.771850136" x2="469.923822854" y1="509.870619384" y2="499.852258562" /><line stroke="rgb(0%,0%,0%)" x1="472.892892885" x2="472.381651478" y1="477.306205384" y2="474.615173721" /><line stroke="rgb(0%,0%,0%)" x1="362.924487225" x2="363.808056826" y1="306.368360158" y2="306.645059714" /><line stroke="rgb(0%,0%,0%)" x1="376.001102687" x2="376.657955737" y1="312.81215182" y2="313.071363839" /><line stroke="rgb(0%,0%,0%)" x1="376.001102687" x2="374.695261504" y1="312.81215182" y2="311.71845193" /><line stroke="rgb(0%,0%,0%)" x1="393.605933923" x2="394.621952228" y1="327.705744749" y2="328.864862541" /><line stroke="rgb(0%,0%,0%)" x1="392.351141021" x2="384.167689033" y1="326.169897583" y2="318.551814346" /><line stroke="rgb(0%,0%,0%)" x1="384.167689033" x2="381.131552908" y1="318.551814346" y2="316.934485888" /><line stroke="rgb(0%,0%,0%)" x1="406.843085312" x2="406.692415656" y1="355.433978729" y2="355.14503525" /><line stroke="rgb(0%,0%,0%)" x1="402.100295975" x2="406.692415656" y1="348.606168559" y2="355.14503525" /><line stroke="rgb(0%,0%,0%)" x1="402.100295975" x2="400.266290417" y1="348.606168559" y2="344.575138697" /><line stroke="rgb(0%,0%,0%)" x1="400.0538403" x2="397.923043835" y1="342.59228268" y2="337.609543287" /><line stroke="rgb(0%,0%,0%)" x1="397.923043835" x2="396.597836841" y1="337.609543287" y2="334.559446865" /><line stroke="rgb(0%,0%,0%)" x1="421.671304439" x2="418.77011148" y1="373.535357409" y2="371.115149689" /><line stroke="rgb(0%,0%,0%)" x1="418.77011148" x2="414.948298345" y1="371.115149689" y2="367.620912084" /><line stroke="rgb(0%,0%,0%)" x1="407.547047316" x2="406.843085312" y1="356.487269608" y2="355.433978729" /><line stroke="rgb(0%,0%,0%)" x1="429.840442929" x2="433.061800039" y1="556.201564831" y2="554.422064296" /><line stroke="rgb(0%,0%,0%)" x1="433.061800039" x2="441.134468767" y1="554.422064296" y2="548.263410511" /><line stroke="rgb(0%,0%,0%)" x1="455.695861759" x2="455.826468334" y1="528.816269702" y2="528.639776692" /><line stroke="rgb(0%,0%,0%)" x1="353.802279142" x2="350.99608395" y1="303.821984922" y2="302.792717666" /><line stroke="rgb(0%,0%,0%)" x1="357.158877906" x2="353.802279142" y1="305.73579448" y2="303.821984922" /><line stroke="rgb(0%,0%,0%)" x1="350.99608395" x2="350.06537757" y1="302.792717666" y2="302.267810561" /><line stroke="rgb(0%,0%,0%)" x1="346.944441387" x2="345.253320979" y1="300.479940787" y2="300.353490791" /><line stroke="rgb(0%,0%,0%)" x1="343.157164893" x2="345.253320979" y1="299.423300508" y2="300.353490791" /><line stroke="rgb(0%,0%,0%)" x1="370.58396424" x2="366.079912316" y1="309.357429286" y2="307.44779647" /><line stroke="rgb(0%,0%,0%)" x1="363.808056826" x2="366.079912316" y1="306.645059714" y2="307.44779647" /><line stroke="rgb(0%,0%,0%)" x1="362.924487225" x2="357.855622746" y1="306.368360158" y2="305.913138666" /><line stroke="rgb(0%,0%,0%)" x1="357.855622746" x2="357.158877906" y1="305.913138666" y2="305.73579448" /><line stroke="rgb(0%,0%,0%)" x1="381.131552908" x2="376.657955737" y1="316.934485888" y2="313.071363839" /><line stroke="rgb(0%,0%,0%)" x1="374.695261504" x2="371.70531514" y1="311.71845193" y2="310.303849111" /><line stroke="rgb(0%,0%,0%)" x1="371.70531514" x2="370.58396424" y1="310.303849111" y2="309.357429286" /><line stroke="rgb(0%,0%,0%)" x1="396.597836841" x2="394.621952228" y1="334.559446865" y2="328.864862541" /><line stroke="rgb(0%,0%,0%)" x1="320.343009374" x2="316.984431726" y1="294.360086169" y2="295.081325171" /><line stroke="rgb(0%,0%,0%)" x1="307.481659249" x2="306.754929542" y1="295.7182981" y2="295.689217867" /><line stroke="rgb(0%,0%,0%)" x1="316.984431726" x2="307.481659249" y1="295.081325171" y2="295.7182981" /><line stroke="rgb(0%,0%,0%)" x1="328.88457637" x2="324.785187621" y1="295.386952989" y2="295.208473227" /><line stroke="rgb(0%,0%,0%)" x1="324.785187621" x2="320.343009374" y1="295.208473227" y2="294.360086169" /><line stroke="rgb(0%,0%,0%)" x1="343.157164893" x2="337.37002329" y1="299.423300508" y2="296.885450669" /><line stroke="rgb(0%,0%,0%)" x1="333.40550114" x2="329.597276538" y1="295.761613164" y2="295.844644306" /><line stroke="rgb(0%,0%,0%)" x1="333.40550114" x2="337.37002329" y1="295.761613164" y2="296.885450669" /><line stroke="rgb(0%,0%,0%)" x1="329.597276538" x2="328.88457637" y1="295.844644306" y2="295.386952989" /><line stroke="rgb(0%,0%,0%)" x1="290.844424164" x2="286.161536792" y1="288.800756755" y2="287.774512552" /><line stroke="rgb(0%,0%,0%)" x1="286.161536792" x2="283.344688362" y1="287.774512552" y2="286.835688998" /><line stroke="rgb(0%,0%,0%)" x1="283.344688362" x2="278.770573772" y1="286.835688998" y2="285.954486911" /><line stroke="rgb(0%,0%,0%)" x1="303.612450374" x2="300.552837326" y1="293.878641224" y2="293.250766726" /><line stroke="rgb(0%,0%,0%)" x1="300.552837326" x2="295.641531643" y1="293.250766726" y2="290.755832081" /><line stroke="rgb(0%,0%,0%)" x1="290.844424164" x2="295.641531643" y1="288.800756755" y2="290.755832081" /><line stroke="rgb(0%,0%,0%)" x1="306.754929542" x2="303.612450374" y1="295.689217867" y2="293.878641224" /><line stroke="rgb(0%,0%,0%)" x1="257.927337319" x2="256.541023012" y1="292.347125953" y2="293.369093071" /><line stroke="rgb(0%,0%,0%)" x1="264.57775443" x2="257.927337319" y1="289.197031017" y2="292.347125953" /><line stroke="rgb(0%,0%,0%)" x1="278.770573772" x2="269.838936055" y1="285.954486911" y2="287.691571198" /><line stroke="rgb(0%,0%,0%)" x1="264.57775443" x2="265.895116962" y1="289.197031017" y2="288.42529566" /><line stroke="rgb(0%,0%,0%)" x1="265.895116962" x2="269.838936055" y1="288.42529566" y2="287.691571198" /><line stroke="rgb(0%,0%,0%)" x1="127.788263494" x2="127.43486454" y1="545.935726704" y2="545.472685776" /><line stroke="rgb(0%,0%,0%)" x1="159.049314527" x2="169.141389382" y1="577.540069243" y2="581.773621317" /><line stroke="rgb(0%,0%,0%)" x1="169.472315235" x2="172.507540628" y1="581.931876201" y2="582.909447384" /><line stroke="rgb(0%,0%,0%)" x1="169.141389382" x2="169.472315235" y1="581.773621317" y2="581.931876201" /><line stroke="rgb(0%,0%,0%)" x1="85.4071250402" x2="82.2295686195" y1="507.072137144" y2="504.518592825" /><line stroke="rgb(0%,0%,0%)" x1="85.4071250402" x2="93.4545222389" y1="507.072137144" y2="512.191238112" /><line stroke="rgb(0%,0%,0%)" x1="119.885620424" x2="117.964438959" y1="525.744563055" y2="524.328578171" /><line stroke="rgb(0%,0%,0%)" x1="119.885620424" x2="120.674011725" y1="525.744563055" y2="526.370088308" /><line stroke="rgb(0%,0%,0%)" x1="127.43486454" x2="125.943287462" y1="545.472685776" y2="541.477172962" /><line stroke="rgb(0%,0%,0%)" x1="124.965490478" x2="125.943287462" y1="538.226869991" y2="541.477172962" /><line stroke="rgb(0%,0%,0%)" x1="124.757704306" x2="124.965490478" y1="536.242046909" y2="538.226869991" /><line stroke="rgb(0%,0%,0%)" x1="123.181857539" x2="124.387276098" y1="530.703699057" y2="534.843600459" /><line stroke="rgb(0%,0%,0%)" x1="124.387276098" x2="124.757704306" y1="534.843600459" y2="536.242046909" /><line stroke="rgb(0%,0%,0%)" x1="120.674011725" x2="123.181857539" y1="526.370088308" y2="530.703699057" /><line stroke="rgb(0%,0%,0%)" x1="127.788263494" x2="129.897483274" y1="545.935726704" y2="548.508334109" /><line stroke="rgb(0%,0%,0%)" x1="129.897483274" x2="141.496203814" y1="548.508334109" y2="563.122532873" /><line stroke="rgb(0%,0%,0%)" x1="141.496203814" x2="155.242648652" y1="563.122532873" y2="574.645693806" /><line stroke="rgb(0%,0%,0%)" x1="155.242648652" x2="159.049314527" y1="574.645693806" y2="577.540069243" /><line stroke="rgb(0%,0%,0%)" x1="80.8889358737" x2="81.148174251" y1="495.932444777" y2="501.501066525" /><line stroke="rgb(0%,0%,0%)" x1="80.8889358737" x2="81.5547032662" y1="495.932444777" y2="493.968644796" /><line stroke="rgb(0%,0%,0%)" x1="81.5547032662" x2="82.953517752" y1="493.968644796" y2="492.703523423" /><line stroke="rgb(0%,0%,0%)" x1="87.1772099522" x2="86.4233046243" y1="486.123204586" y2="488.210365963" /><line stroke="rgb(0%,0%,0%)" x1="86.4233046243" x2="82.953517752" y1="488.210365963" y2="492.703523423" /><line stroke="rgb(0%,0%,0%)" x1="94.820987903" x2="94.8035470364" y1="461.474298846" y2="461.84826085" /><line stroke="rgb(0%,0%,0%)" x1="103.988399374" x2="96.2169186009" y1="517.279911307" y2="513.408289313" /><line stroke="rgb(0%,0%,0%)" x1="95.3725889749" x2="96.2169186009" y1="513.177407595" y2="513.408289313" /><line stroke="rgb(0%,0%,0%)" x1="93.4545222389" x2="95.3725889749" y1="512.191238112" y2="513.177407595" /><line stroke="rgb(0%,0%,0%)" x1="91.9684428182" x2="87.1772099522" y1="478.135876304" y2="486.123204586" /><line stroke="rgb(0%,0%,0%)" x1="91.9684428182" x2="92.352423293" y1="478.135876304" y2="474.900884034" /><line stroke="rgb(0%,0%,0%)" x1="91.8476676078" x2="92.352423293" y1="471.426881961" y2="474.900884034" /><line stroke="rgb(0%,0%,0%)" x1="92.0269002297" x2="91.8476676078" y1="470.801316766" y2="471.426881961" /><line stroke="rgb(0%,0%,0%)" x1="94.8682829182" x2="92.0269002297" y1="465.092209499" y2="470.801316766" /><line stroke="rgb(0%,0%,0%)" x1="94.8035470364" x2="94.8682829182" y1="461.84826085" y2="465.092209499" /><line stroke="rgb(0%,0%,0%)" x1="107.144282094" x2="117.964438959" y1="518.299641211" y2="524.328578171" /><line stroke="rgb(0%,0%,0%)" x1="103.988399374" x2="107.144282094" y1="517.279911307" y2="518.299641211" /><line stroke="rgb(0%,0%,0%)" x1="81.4883630483" x2="82.2295686195" y1="503.233846755" y2="504.518592825" /><line stroke="rgb(0%,0%,0%)" x1="81.148174251" x2="81.4883630483" y1="501.501066525" y2="503.233846755" /><line stroke="rgb(0%,0%,0%)" x1="407.306833331" x2="405.787026869" y1="588.403108498" y2="593.754687154" /><line stroke="rgb(0%,0%,0%)" x1="407.306833331" x2="407.428689653" y1="588.403108498" y2="587.83186535" /><line stroke="rgb(0%,0%,0%)" x1="407.428689653" x2="409.729777646" y1="587.83186535" y2="584.326968203" /><line stroke="rgb(0%,0%,0%)" x1="418.271458963" x2="413.60263492" y1="568.70299063" y2="577.847302653" /><line stroke="rgb(0%,0%,0%)" x1="418.271458963" x2="423.109546559" y1="568.70299063" y2="563.068640279" /><line stroke="rgb(0%,0%,0%)" x1="423.109546559" x2="424.755728522" y1="563.068640279" y2="560.806352232" /><line stroke="rgb(0%,0%,0%)" x1="424.755728522" x2="426.034771504" y1="560.806352232" y2="559.527728271" /><line stroke="rgb(0%,0%,0%)" x1="426.034771504" x2="429.196622092" y1="559.527728271" y2="556.911775968" /><line stroke="rgb(0%,0%,0%)" x1="351.080504469" x2="351.537400591" y1="627.184992662" y2="627.063085589" /><line stroke="rgb(0%,0%,0%)" x1="351.537400591" x2="351.980590782" y1="627.063085589" y2="626.844597363" /><line stroke="rgb(0%,0%,0%)" x1="357.42138772" x2="360.972618889" y1="625.727041624" y2="624.410278188" /><line stroke="rgb(0%,0%,0%)" x1="370.316816014" x2="367.095121799" y1="622.692627962" y2="623.191039851" /><line stroke="rgb(0%,0%,0%)" x1="370.316816014" x2="374.835613504" y1="622.692627962" y2="621.687242316" /><line stroke="rgb(0%,0%,0%)" x1="374.835613504" x2="377.248255835" y1="621.687242316" y2="621.20304936" /><line stroke="rgb(0%,0%,0%)" x1="377.248255835" x2="380.527030171" y1="621.20304936" y2="619.512111369" /><line stroke="rgb(0%,0%,0%)" x1="380.527030171" x2="386.754386848" y1="619.512111369" y2="615.875619258" /><line stroke="rgb(0%,0%,0%)" x1="392.787381099" x2="389.901746343" y1="611.304378787" y2="613.47136409" /><line stroke="rgb(0%,0%,0%)" x1="392.787381099" x2="394.776684697" y1="611.304378787" y2="610.191712466" /><line stroke="rgb(0%,0%,0%)" x1="386.754386848" x2="389.901746343" y1="615.875619258" y2="613.47136409" /><line stroke="rgb(0%,0%,0%)" x1="394.776684697" x2="398.587105711" y1="610.191712466" y2="606.92947998" /><line stroke="rgb(0%,0%,0%)" x1="398.587105711" x2="399.793383345" y1="606.92947998" y2="605.709647433" /><line stroke="rgb(0%,0%,0%)" x1="399.793383345" x2="404.21183987" y1="605.709647433" y2="599.106749574" /><line stroke="rgb(0%,0%,0%)" x1="404.21183987" x2="404.454042827" y1="599.106749574" y2="598.597936363" /><line stroke="rgb(0%,0%,0%)" x1="404.454042827" x2="405.787026869" y1="598.597936363" y2="593.754687154" /><line stroke="rgb(0%,0%,0%)" x1="412.953471934" x2="413.60263492" y1="579.121804135" y2="577.847302653" /><line stroke="rgb(0%,0%,0%)" x1="311.249104035" x2="306.145456998" y1="631.964085524" y2="634.701174275" /><line stroke="rgb(0%,0%,0%)" x1="311.249104035" x2="311.98443684" y1="631.964085524" y2="631.74723902" /><line stroke="rgb(0%,0%,0%)" x1="311.98443684" x2="320.338425339" y1="631.74723902" y2="630.43035926" /><line stroke="rgb(0%,0%,0%)" x1="330.56400889" x2="326.074112463" y1="630.015245015" y2="630.459443542" /><line stroke="rgb(0%,0%,0%)" x1="330.56400889" x2="332.709621693" y1="630.015245015" y2="630.422226447" /><line stroke="rgb(0%,0%,0%)" x1="320.338425339" x2="326.074112463" y1="630.43035926" y2="630.459443542" /><line stroke="rgb(0%,0%,0%)" x1="332.709621693" x2="342.64479582" y1="630.422226447" y2="629.262774472" /><line stroke="rgb(0%,0%,0%)" x1="342.64479582" x2="344.953148467" y1="629.262774472" y2="629.186102662" /><line stroke="rgb(0%,0%,0%)" x1="350.367868974" x2="347.246638853" y1="627.430550189" y2="628.290975627" /><line stroke="rgb(0%,0%,0%)" x1="351.080504469" x2="350.367868974" y1="627.184992662" y2="627.430550189" /><line stroke="rgb(0%,0%,0%)" x1="344.953148467" x2="347.246638853" y1="629.186102662" y2="628.290975627" /><line stroke="rgb(0%,0%,0%)" x1="351.980590782" x2="355.891804182" y1="626.844597363" y2="626.293186556" /><line stroke="rgb(0%,0%,0%)" x1="355.891804182" x2="357.42138772" y1="626.293186556" y2="625.727041624" /><line stroke="rgb(0%,0%,0%)" x1="360.972618889" x2="367.095121799" y1="624.410278188" y2="623.191039851" /><line stroke="rgb(0%,0%,0%)" x1="409.729777646" x2="412.953471934" y1="584.326968203" y2="579.121804135" /><line stroke="rgb(0%,0%,0%)" x1="265.277668632" x2="267.819596827" y1="636.687810199" y2="638.020401787" /><line stroke="rgb(0%,0%,0%)" x1="267.819596827" x2="274.973271445" y1="638.020401787" y2="641.57252716" /><line stroke="rgb(0%,0%,0%)" x1="280.171914491" x2="274.973271445" y1="641.746539868" y2="641.57252716" /><line stroke="rgb(0%,0%,0%)" x1="280.171914491" x2="284.02882057" y1="641.746539868" y2="642.192517593" /><line stroke="rgb(0%,0%,0%)" x1="257.484962793" x2="255.089980647" y1="631.278950098" y2="630.416164241" /><line stroke="rgb(0%,0%,0%)" x1="257.484962793" x2="265.277668632" y1="631.278950098" y2="636.687810199" /><line stroke="rgb(0%,0%,0%)" x1="298.741021098" x2="289.177393465" y1="639.057235509" y2="642.293685887" /><line stroke="rgb(0%,0%,0%)" x1="284.02882057" x2="289.177393465" y1="642.192517593" y2="642.293685887" /><line stroke="rgb(0%,0%,0%)" x1="298.741021098" x2="302.387116019" y1="639.057235509" y2="636.671995959" /><line stroke="rgb(0%,0%,0%)" x1="302.387116019" x2="306.145456998" y1="636.671995959" y2="634.701174275" /><line stroke="rgb(0%,0%,0%)" x1="197.741676506" x2="195.557015199" y1="598.38276697" y2="594.062599264" /><line stroke="rgb(0%,0%,0%)" x1="221.672423011" x2="230.038222179" y1="621.791879944" y2="625.394095184" /><line stroke="rgb(0%,0%,0%)" x1="230.038222179" x2="238.896404023" y1="625.394095184" y2="628.194362512" /><line stroke="rgb(0%,0%,0%)" x1="221.672423011" x2="215.860127393" y1="621.791879944" y2="618.428470823" /><line stroke="rgb(0%,0%,0%)" x1="205.994957976" x2="215.860127393" y1="607.903035937" y2="618.428470823" /><line stroke="rgb(0%,0%,0%)" x1="203.522544732" x2="205.994957976" y1="603.698022875" y2="607.903035937" /><line stroke="rgb(0%,0%,0%)" x1="251.913156745" x2="242.846458929" y1="630.107975895" y2="629.031496394" /><line stroke="rgb(0%,0%,0%)" x1="251.913156745" x2="255.089980647" y1="630.107975895" y2="630.416164241" /><line stroke="rgb(0%,0%,0%)" x1="238.896404023" x2="242.846458929" y1="628.194362512" y2="629.031496394" /><line stroke="rgb(0%,0%,0%)" x1="172.893371034" x2="172.507540628" y1="583.034707378" y2="582.909447384" /><line stroke="rgb(0%,0%,0%)" x1="192.723841215" x2="186.683647841" y1="588.126424925" y2="584.750077899" /><line stroke="rgb(0%,0%,0%)" x1="186.398580766" x2="186.683647841" y1="584.705189057" y2="584.750077899" /><line stroke="rgb(0%,0%,0%)" x1="172.893371034" x2="174.818513379" y1="583.034707378" y2="583.348871334" /><line stroke="rgb(0%,0%,0%)" x1="186.398580766" x2="178.332500353" y1="584.705189057" y2="583.904850221" /><line stroke="rgb(0%,0%,0%)" x1="178.269985848" x2="178.332500353" y1="583.90357987" y2="583.904850221" /><line stroke="rgb(0%,0%,0%)" x1="174.818513379" x2="178.151579583" y1="583.348871334" y2="583.878117251" /><line stroke="rgb(0%,0%,0%)" x1="178.228879579" x2="178.269985848" y1="583.894756884" y2="583.90357987" /><line stroke="rgb(0%,0%,0%)" x1="178.151579583" x2="178.228879579" y1="583.878117251" y2="583.894756884" /><line stroke="rgb(0%,0%,0%)" x1="197.741676506" x2="198.819861543" y1="598.38276697" y2="599.202974667" /><line stroke="rgb(0%,0%,0%)" x1="198.819861543" x2="203.522544732" y1="599.202974667" y2="603.698022875" /><line stroke="rgb(0%,0%,0%)" x1="194.423696866" x2="195.557015199" y1="590.916731346" y2="594.062599264" /><line stroke="rgb(0%,0%,0%)" x1="192.723841215" x2="194.423696866" y1="588.126424925" y2="590.916731346" /><line stroke="rgb(0%,0%,0%)" x1="94.9912660686" x2="94.820987903" y1="452.954989016" y2="461.474298846" /></svg>