<?xml version="1.0" encoding="utf-8" ?>
<svg baseProfile="full" height="100%" version="1.1" viewBox="0.5 0.5 685.793960571 941.299331665" width="100%" xmlns="http://www.w3.org/2000/svg" xmlns:ev="http://www.w3.org/2001/xml-events" xmlns:xlink="http://www.w3.org/1999/xlink"><defs /><line stroke="rgb(0%,0%,0%)" x1="461.851921021" x2="461.028968059" y1="425.280090752" y2="422.578690077" /><line stroke="rgb(0%,0%,0%)" x1="461.028968059" x2="460.043232562" y1="422.578690077" y2="421.40511749" /><line stroke="rgb(0%,0%,0%)" x1="460.043232562" x2="454.167829892" y1="421.40511749" y2="412.211654116" /><line stroke="rgb(0%,0%,0%)" x1="468.545175856" x2="467.8135158" y1="456.684538178" y2="449.020645439" /><line stroke="rgb(0%,0%,0%)" x1="467.8135158" x2="467.019442689" y1="449.020645439" y2="442.877642402" /><line stroke="rgb(0%,0%,0%)" x1="467.019442689" x2="461.851921021" y1="442.877642402" y2="425.280090752" /><line stroke="rgb(0%,0%,0%)" x1="423.450824816" x2="431.944399833" y1="378.165275547" y2="384.250639873" /><line stroke="rgb(0%,0%,0%)" x1="423.450824816" x2="421.556873024" y1="378.165275547" y2="377.382131988" /><line stroke="rgb(0%,0%,0%)" x1="433.74851394" x2="431.944399833" y1="385.699677065" y2="384.250639873" /><line stroke="rgb(0%,0%,0%)" x1="433.74851394" x2="439.529958712" y1="385.699677065" y2="394.07350073" /><line stroke="rgb(0%,0%,0%)" x1="454.167829892" x2="453.740784175" y1="412.211654116" y2="411.562717927" /><line stroke="rgb(0%,0%,0%)" x1="453.740784175" x2="439.630696728" y1="411.562717927" y2="394.190074033" /><line stroke="rgb(0%,0%,0%)" x1="467.407244279" x2="468.545175856" y1="465.291587054" y2="456.684538178" /><line stroke="rgb(0%,0%,0%)" x1="439.630696728" x2="439.529958712" y1="394.190074033" y2="394.07350073" /><line stroke="rgb(0%,0%,0%)" x1="252.802453031" x2="253.755399833" y1="298.419640075" y2="297.661844724" /><line stroke="rgb(0%,0%,0%)" x1="255.705083621" x2="253.755399833" y1="296.354383425" y2="297.661844724" /><line stroke="rgb(0%,0%,0%)" x1="251.609015161" x2="250.885839509" y1="299.129125805" y2="300.256976519" /><line stroke="rgb(0%,0%,0%)" x1="250.885839509" x2="249.446243748" y1="300.256976519" y2="301.479306239" /><line stroke="rgb(0%,0%,0%)" x1="243.543507213" x2="246.704800237" y1="300.508487212" y2="301.053835222" /><line stroke="rgb(0%,0%,0%)" x1="252.802453031" x2="251.609015161" y1="298.419640075" y2="299.129125805" /><line stroke="rgb(0%,0%,0%)" x1="208.248174276" x2="213.684283687" y1="308.989015637" y2="305.040958653" /><line stroke="rgb(0%,0%,0%)" x1="223.614445875" x2="217.649746424" y1="301.808110124" y2="303.545867146" /><line stroke="rgb(0%,0%,0%)" x1="217.649746424" x2="213.684283687" y1="303.545867146" y2="305.040958653" /><line stroke="rgb(0%,0%,0%)" x1="223.614445875" x2="234.20700244" y1="301.808110124" y2="301.505120197" /><line stroke="rgb(0%,0%,0%)" x1="243.543507213" x2="234.20700244" y1="300.508487212" y2="301.505120197" /><line stroke="rgb(0%,0%,0%)" x1="249.446243748" x2="248.406902457" y1="301.479306239" y2="301.610679591" /><line stroke="rgb(0%,0%,0%)" x1="248.406902457" x2="246.704800237" y1="301.610679591" y2="301.053835222" /><line stroke="rgb(0%,0%,0%)" x1="178.374954381" x2="185.859580399" y1="327.308519034" y2="325.063458033" /><line stroke="rgb(0%,0%,0%)" x1="190.78476015" x2="185.859580399" y1="326.601258217" y2="325.063458033" /><line stroke="rgb(0%,0%,0%)" x1="194.981525199" x2="193.764936924" y1="319.952210344" y2="322.029449079" /><line stroke="rgb(0%,0%,0%)" x1="190.78476015" x2="193.764936924" y1="326.601258217" y2="322.029449079" /><line stroke="rgb(0%,0%,0%)" x1="195.625110066" x2="195.171272881" y1="319.503455999" y2="319.803793083" /><line stroke="rgb(0%,0%,0%)" x1="208.248174276" x2="196.56082057" y1="308.989015637" y2="318.50526572" /><line stroke="rgb(0%,0%,0%)" x1="196.56082057" x2="195.625110066" y1="318.50526572" y2="319.503455999" /><line stroke="rgb(0%,0%,0%)" x1="136.490915243" x2="135.569014986" y1="357.486624633" y2="358.327468305" /><line stroke="rgb(0%,0%,0%)" x1="145.145483024" x2="145.623047494" y1="348.635777714" y2="348.284354779" /><line stroke="rgb(0%,0%,0%)" x1="155.368589971" x2="145.623047494" y1="341.827384168" y2="348.284354779" /><line stroke="rgb(0%,0%,0%)" x1="164.291846518" x2="158.417709275" y1="336.918192468" y2="340.828153744" /><line stroke="rgb(0%,0%,0%)" x1="164.291846518" x2="166.281934583" y1="336.918192468" y2="333.007336858" /><line stroke="rgb(0%,0%,0%)" x1="168.125761332" x2="166.281934583" y1="331.50552948" y2="333.007336858" /><line stroke="rgb(0%,0%,0%)" x1="178.374954381" x2="168.125761332" y1="327.308519034" y2="331.50552948" /><line stroke="rgb(0%,0%,0%)" x1="195.171272881" x2="194.981525199" y1="319.803793083" y2="319.952210344" /><line stroke="rgb(0%,0%,0%)" x1="96.5523657177" x2="93.5914616834" y1="411.793165688" y2="413.832494372" /><line stroke="rgb(0%,0%,0%)" x1="104.216268201" x2="110.682189707" y1="406.259383057" y2="402.120988975" /><line stroke="rgb(0%,0%,0%)" x1="120.341701084" x2="117.721626324" y1="388.540935849" y2="392.76775006" /><line stroke="rgb(0%,0%,0%)" x1="120.641307794" x2="120.341701084" y1="388.145450473" y2="388.540935849" /><line stroke="rgb(0%,0%,0%)" x1="123.000113727" x2="120.641307794" y1="379.593721842" y2="388.145450473" /><line stroke="rgb(0%,0%,0%)" x1="124.711965612" x2="123.000113727" y1="377.960891205" y2="379.593721842" /><line stroke="rgb(0%,0%,0%)" x1="127.130388512" x2="124.711965612" y1="372.243948502" y2="377.960891205" /><line stroke="rgb(0%,0%,0%)" x1="127.130388512" x2="129.888742644" y1="372.243948502" y2="366.524604962" /><line stroke="rgb(0%,0%,0%)" x1="135.569014986" x2="129.888742644" y1="358.327468305" y2="366.524604962" /><line stroke="rgb(0%,0%,0%)" x1="145.145483024" x2="136.490915243" y1="348.635777714" y2="357.486624633" /><line stroke="rgb(0%,0%,0%)" x1="158.417709275" x2="155.368589971" y1="340.828153744" y2="341.827384168" /><line stroke="rgb(0%,0%,0%)" x1="102.15905705" x2="101.990663329" y1="449.022122834" y2="449.523959123" /><line stroke="rgb(0%,0%,0%)" x1="99.3121775843" x2="100.277647053" y1="434.862774429" y2="439.973099108" /><line stroke="rgb(0%,0%,0%)" x1="89.9386546598" x2="90.6704909912" y1="420.880095445" y2="423.693272047" /><line stroke="rgb(0%,0%,0%)" x1="93.9893425822" x2="90.6704909912" y1="429.984996305" y2="423.693272047" /><line stroke="rgb(0%,0%,0%)" x1="89.9386546598" x2="91.5760069987" y1="420.880095445" y2="416.353607663" /><line stroke="rgb(0%,0%,0%)" x1="93.5914616834" x2="91.5760069987" y1="413.832494372" y2="416.353607663" /><line stroke="rgb(0%,0%,0%)" x1="100.077831292" x2="100.092413766" y1="459.848204486" y2="458.810722424" /><line stroke="rgb(0%,0%,0%)" x1="101.990663329" x2="100.092413766" y1="449.523959123" y2="458.810722424" /><line stroke="rgb(0%,0%,0%)" x1="102.949388872" x2="102.15905705" y1="444.589691602" y2="449.022122834" /><line stroke="rgb(0%,0%,0%)" x1="100.277647053" x2="102.949388872" y1="439.973099108" y2="444.589691602" /><line stroke="rgb(0%,0%,0%)" x1="93.9893425822" x2="99.3121775843" y1="429.984996305" y2="434.862774429" /><line stroke="rgb(0%,0%,0%)" x1="96.5523657177" x2="99.4454636724" y1="411.793165688" y2="408.88811087" /><line stroke="rgb(0%,0%,0%)" x1="104.216268201" x2="99.4454636724" y1="406.259383057" y2="408.88811087" /><line stroke="rgb(0%,0%,0%)" x1="112.04798844" x2="110.682189707" y1="401.311465943" y2="402.120988975" /><line stroke="rgb(0%,0%,0%)" x1="112.40859949" x2="112.04798844" y1="400.916605475" y2="401.311465943" /><line stroke="rgb(0%,0%,0%)" x1="112.920831876" x2="112.40859949" y1="400.39054188" y2="400.916605475" /><line stroke="rgb(0%,0%,0%)" x1="117.721626324" x2="112.920831876" y1="392.76775006" y2="400.39054188" /><line stroke="rgb(0%,0%,0%)" x1="469.002195299" x2="469.048202051" y1="477.210129408" y2="478.572875595" /><line stroke="rgb(0%,0%,0%)" x1="453.637333456" x2="452.45478669" y1="524.984452774" y2="527.105641963" /><line stroke="rgb(0%,0%,0%)" x1="469.048202051" x2="467.862061941" y1="478.572875595" y2="488.351729861" /><line stroke="rgb(0%,0%,0%)" x1="467.407244279" x2="468.213657795" y1="465.291587054" y2="473.059488709" /><line stroke="rgb(0%,0%,0%)" x1="448.110824232" x2="441.958592492" y1="532.975782969" y2="542.017432931" /><line stroke="rgb(0%,0%,0%)" x1="456.076672791" x2="453.637333456" y1="520.44737027" y2="524.984452774" /><line stroke="rgb(0%,0%,0%)" x1="456.076672791" x2="462.950816904" y1="520.44737027" y2="509.982404354" /><line stroke="rgb(0%,0%,0%)" x1="466.00780153" x2="467.237594946" y1="500.26595762" y2="497.554745382" /><line stroke="rgb(0%,0%,0%)" x1="462.950816904" x2="466.00780153" y1="509.982404354" y2="500.26595762" /><line stroke="rgb(0%,0%,0%)" x1="467.525226957" x2="467.862061941" y1="495.928317161" y2="488.351729861" /><line stroke="rgb(0%,0%,0%)" x1="469.002195299" x2="468.213657795" y1="477.210129408" y2="473.059488709" /><line stroke="rgb(0%,0%,0%)" x1="404.272560352" x2="399.154321036" y1="361.819706303" y2="352.004313386" /><line stroke="rgb(0%,0%,0%)" x1="397.651415222" x2="399.154321036" y1="349.864277531" y2="352.004313386" /><line stroke="rgb(0%,0%,0%)" x1="397.651415222" x2="396.300318807" y1="349.864277531" y2="346.894651855" /><line stroke="rgb(0%,0%,0%)" x1="392.928823379" x2="394.040883766" y1="340.657354973" y2="343.216873163" /><line stroke="rgb(0%,0%,0%)" x1="421.556873024" x2="416.840955607" y1="377.382131988" y2="373.639762312" /><line stroke="rgb(0%,0%,0%)" x1="411.579478625" x2="414.469290133" y1="368.399344916" y2="371.803524065" /><line stroke="rgb(0%,0%,0%)" x1="411.579478625" x2="406.16227027" y1="368.399344916" y2="364.647151832" /><line stroke="rgb(0%,0%,0%)" x1="404.272560352" x2="406.16227027" y1="361.819706303" y2="364.647151832" /><line stroke="rgb(0%,0%,0%)" x1="430.729710454" x2="428.97339485" y1="553.208627685" y2="554.178828893" /><line stroke="rgb(0%,0%,0%)" x1="430.729710454" x2="434.602518118" y1="553.208627685" y2="550.254055613" /><line stroke="rgb(0%,0%,0%)" x1="434.602518118" x2="437.993283879" y1="550.254055613" y2="547.211938972" /><line stroke="rgb(0%,0%,0%)" x1="437.993283879" x2="441.958592492" y1="547.211938972" y2="542.017432931" /><line stroke="rgb(0%,0%,0%)" x1="448.110824232" x2="452.45478669" y1="532.975782969" y2="527.105641963" /><line stroke="rgb(0%,0%,0%)" x1="467.237594946" x2="467.525226957" y1="497.554745382" y2="495.928317161" /><line stroke="rgb(0%,0%,0%)" x1="348.817187836" x2="349.088087566" y1="306.66500493" y2="306.764366593" /><line stroke="rgb(0%,0%,0%)" x1="348.817187836" x2="348.807070236" y1="306.66500493" y2="306.659298726" /><line stroke="rgb(0%,0%,0%)" x1="342.884672773" x2="343.009500535" y1="304.304022692" y2="304.313356427" /><line stroke="rgb(0%,0%,0%)" x1="342.761669372" x2="342.884672773" y1="304.249438699" y2="304.304022692" /><line stroke="rgb(0%,0%,0%)" x1="368.467140761" x2="364.039250379" y1="312.294720021" y2="310.417378258" /><line stroke="rgb(0%,0%,0%)" x1="362.382237176" x2="355.294148674" y1="309.389587507" y2="308.658405251" /><line stroke="rgb(0%,0%,0%)" x1="373.046954072" x2="377.738254596" y1="315.76574476" y2="318.903754689" /><line stroke="rgb(0%,0%,0%)" x1="379.977039029" x2="377.738254596" y1="320.214184612" y2="318.903754689" /><line stroke="rgb(0%,0%,0%)" x1="371.983708733" x2="373.046954072" y1="315.262702341" y2="315.76574476" /><line stroke="rgb(0%,0%,0%)" x1="371.983708733" x2="368.467140761" y1="315.262702341" y2="312.294720021" /><line stroke="rgb(0%,0%,0%)" x1="392.928823379" x2="391.969444154" y1="340.657354973" y2="337.892382839" /><line stroke="rgb(0%,0%,0%)" x1="391.969444154" x2="389.042006161" y1="337.892382839" y2="329.728494304" /><line stroke="rgb(0%,0%,0%)" x1="389.042006161" x2="388.290794305" y1="329.728494304" y2="328.144631628" /><line stroke="rgb(0%,0%,0%)" x1="388.290794305" x2="380.403317415" y1="328.144631628" y2="320.68244463" /><line stroke="rgb(0%,0%,0%)" x1="380.403317415" x2="379.977039029" y1="320.68244463" y2="320.214184612" /><line stroke="rgb(0%,0%,0%)" x1="396.300318807" x2="394.040883766" y1="346.894651855" y2="343.216873163" /><line stroke="rgb(0%,0%,0%)" x1="415.289614171" x2="414.469290133" y1="372.649551012" y2="371.803524065" /><line stroke="rgb(0%,0%,0%)" x1="416.840955607" x2="415.289614171" y1="373.639762312" y2="372.649551012" /><line stroke="rgb(0%,0%,0%)" x1="318.222723809" x2="317.599870842" y1="298.352356055" y2="298.486110846" /><line stroke="rgb(0%,0%,0%)" x1="317.599870842" x2="315.579149485" y1="298.486110846" y2="298.621560243" /><line stroke="rgb(0%,0%,0%)" x1="327.607988586" x2="326.025097736" y1="299.911404428" y2="299.842488304" /><line stroke="rgb(0%,0%,0%)" x1="326.025097736" x2="318.222723809" y1="299.842488304" y2="298.352356055" /><line stroke="rgb(0%,0%,0%)" x1="342.761669372" x2="333.061199161" y1="304.249438699" y2="299.995466972" /><line stroke="rgb(0%,0%,0%)" x1="332.994925682" x2="327.883182436" y1="299.976680188" y2="300.088132091" /><line stroke="rgb(0%,0%,0%)" x1="332.994925682" x2="333.061199161" y1="299.976680188" y2="299.995466972" /><line stroke="rgb(0%,0%,0%)" x1="327.883182436" x2="327.607988586" y1="300.088132091" y2="299.911404428" /><line stroke="rgb(0%,0%,0%)" x1="348.807070236" x2="343.197080699" y1="306.659298726" y2="304.425461953" /><line stroke="rgb(0%,0%,0%)" x1="343.009500535" x2="343.197080699" y1="304.313356427" y2="304.425461953" /><line stroke="rgb(0%,0%,0%)" x1="364.039250379" x2="362.382237176" y1="310.417378258" y2="309.389587507" /><line stroke="rgb(0%,0%,0%)" x1="289.942891968" x2="281.947795449" y1="290.65846123" y2="288.906353865" /><line stroke="rgb(0%,0%,0%)" x1="281.947795449" x2="281.444891884" y1="288.906353865" y2="288.738741825" /><line stroke="rgb(0%,0%,0%)" x1="281.444891884" x2="280.628256346" y1="288.738741825" y2="288.581417183" /><line stroke="rgb(0%,0%,0%)" x1="302.039344018" x2="301.529750055" y1="296.567884483" y2="296.463308823" /><line stroke="rgb(0%,0%,0%)" x1="301.529750055" x2="290.751849066" y1="296.463308823" y2="290.988154086" /><line stroke="rgb(0%,0%,0%)" x1="289.942891968" x2="290.751849066" y1="290.65846123" y2="290.988154086" /><line stroke="rgb(0%,0%,0%)" x1="308.174840315" x2="303.038726765" y1="300.920546265" y2="298.421443488" /><line stroke="rgb(0%,0%,0%)" x1="315.579149485" x2="308.174840315" y1="298.621560243" y2="300.920546265" /><line stroke="rgb(0%,0%,0%)" x1="303.038726765" x2="302.641635498" y1="298.421443488" y2="296.914901862" /><line stroke="rgb(0%,0%,0%)" x1="302.039344018" x2="302.641635498" y1="296.567884483" y2="296.914901862" /><line stroke="rgb(0%,0%,0%)" x1="354.331773262" x2="349.088087566" y1="308.348251194" y2="306.764366593" /><line stroke="rgb(0%,0%,0%)" x1="355.294148674" x2="354.331773262" y1="308.658405251" y2="308.348251194" /><line stroke="rgb(0%,0%,0%)" x1="255.762461788" x2="255.705083621" y1="296.312085225" y2="296.354383425" /><line stroke="rgb(0%,0%,0%)" x1="265.217930593" x2="256.406295157" y1="292.238049573" y2="296.007121461" /><line stroke="rgb(0%,0%,0%)" x1="255.762461788" x2="256.406295157" y1="296.312085225" y2="296.007121461" /><line stroke="rgb(0%,0%,0%)" x1="276.9737803" x2="265.217930593" y1="289.292163982" y2="292.238049573" /><line stroke="rgb(0%,0%,0%)" x1="280.628256346" x2="276.9737803" y1="288.581417183" y2="289.292163982" /><line stroke="rgb(0%,0%,0%)" x1="125.245651255" x2="125.441589575" y1="532.806283223" y2="533.933419526" /><line stroke="rgb(0%,0%,0%)" x1="125.245651255" x2="125.183624955" y1="532.806283223" y2="532.338997844" /><line stroke="rgb(0%,0%,0%)" x1="117.310264338" x2="118.036454276" y1="518.273306586" y2="519.420141479" /><line stroke="rgb(0%,0%,0%)" x1="118.036454276" x2="118.836314337" y1="519.420141479" y2="519.743181758" /><line stroke="rgb(0%,0%,0%)" x1="139.77860448" x2="130.78836049" y1="556.253630505" y2="544.926069662" /><line stroke="rgb(0%,0%,0%)" x1="130.78836049" x2="127.130257516" y1="544.926069662" y2="540.089692539" /><line stroke="rgb(0%,0%,0%)" x1="139.77860448" x2="147.758132959" y1="556.253630505" y2="562.942588407" /><line stroke="rgb(0%,0%,0%)" x1="147.758132959" x2="156.227485122" y1="562.942588407" y2="569.38220924" /><line stroke="rgb(0%,0%,0%)" x1="161.777976127" x2="162.526290775" y1="573.159751101" y2="573.372811633" /><line stroke="rgb(0%,0%,0%)" x1="156.227485122" x2="161.777976127" y1="569.38220924" y2="573.159751101" /><line stroke="rgb(0%,0%,0%)" x1="162.526290775" x2="164.763674721" y1="573.372811633" y2="575.272348803" /><line stroke="rgb(0%,0%,0%)" x1="164.763674721" x2="171.753898769" y1="575.272348803" y2="578.751480533" /><line stroke="rgb(0%,0%,0%)" x1="107.450812125" x2="103.816750085" y1="514.501590614" y2="512.691161569" /><line stroke="rgb(0%,0%,0%)" x1="97.6619721439" x2="103.816750085" y1="511.00813913" y2="512.691161569" /><line stroke="rgb(0%,0%,0%)" x1="97.6619721439" x2="90.2668829735" y1="511.00813913" y2="507.205971496" /><line stroke="rgb(0%,0%,0%)" x1="98.6660082758" x2="95.32004152" y1="477.887763934" y2="483.465730116" /><line stroke="rgb(0%,0%,0%)" x1="95.32004152" x2="92.4791622604" y1="483.465730116" y2="489.611971272" /><line stroke="rgb(0%,0%,0%)" x1="98.6660082758" x2="98.7661199384" y1="477.887763934" y2="477.044334447" /><line stroke="rgb(0%,0%,0%)" x1="98.7661199384" x2="98.6121690202" y1="477.044334447" y2="475.984760826" /><line stroke="rgb(0%,0%,0%)" x1="99.6074924379" x2="98.6121690202" y1="470.600905565" y2="475.984760826" /><line stroke="rgb(0%,0%,0%)" x1="99.6074924379" x2="100.076660352" y1="470.600905565" y2="465.084658699" /><line stroke="rgb(0%,0%,0%)" x1="100.928521458" x2="100.1113819" y1="462.090117949" y2="464.195742245" /><line stroke="rgb(0%,0%,0%)" x1="114.807103664" x2="117.310264338" y1="516.878558054" y2="518.273306586" /><line stroke="rgb(0%,0%,0%)" x1="107.450812125" x2="114.807103664" y1="514.501590614" y2="516.878558054" /><line stroke="rgb(0%,0%,0%)" x1="100.395555724" x2="100.076660352" y1="464.729637037" y2="465.084658699" /><line stroke="rgb(0%,0%,0%)" x1="100.1113819" x2="100.395555724" y1="464.195742245" y2="464.729637037" /><line stroke="rgb(0%,0%,0%)" x1="124.553909148" x2="125.183624955" y1="526.931587718" y2="532.338997844" /><line stroke="rgb(0%,0%,0%)" x1="121.736082508" x2="124.553909148" y1="522.808535141" y2="526.931587718" /><line stroke="rgb(0%,0%,0%)" x1="118.836314337" x2="121.736082508" y1="519.743181758" y2="522.808535141" /><line stroke="rgb(0%,0%,0%)" x1="126.863651699" x2="127.130257516" y1="539.469456471" y2="540.089692539" /><line stroke="rgb(0%,0%,0%)" x1="125.441589575" x2="126.863651699" y1="533.933419526" y2="539.469456471" /><line stroke="rgb(0%,0%,0%)" x1="87.1328348436" x2="88.89022443" y1="502.82906213" y2="505.875179769" /><line stroke="rgb(0%,0%,0%)" x1="87.1328348436" x2="86.0474383569" y1="502.82906213" y2="497.300503902" /><line stroke="rgb(0%,0%,0%)" x1="89.5153857565" x2="90.2668829735" y1="506.675735041" y2="507.205971496" /><line stroke="rgb(0%,0%,0%)" x1="88.89022443" x2="89.5153857565" y1="505.875179769" y2="506.675735041" /><line stroke="rgb(0%,0%,0%)" x1="86.1762421015" x2="86.0474383569" y1="496.574356421" y2="497.300503902" /><line stroke="rgb(0%,0%,0%)" x1="91.0555679353" x2="86.1762421015" y1="490.454512233" y2="496.574356421" /><line stroke="rgb(0%,0%,0%)" x1="92.4791622604" x2="91.0555679353" y1="489.611971272" y2="490.454512233" /><line stroke="rgb(0%,0%,0%)" x1="372.921243462" x2="369.44302709" y1="619.317474324" y2="620.091341447" /><line stroke="rgb(0%,0%,0%)" x1="372.921243462" x2="373.847659323" y1="619.317474324" y2="619.131552014" /><line stroke="rgb(0%,0%,0%)" x1="373.847659323" x2="380.594847165" y1="619.131552014" y2="615.651874829" /><line stroke="rgb(0%,0%,0%)" x1="380.594847165" x2="382.510139512" y1="615.651874829" y2="614.533431504" /><line stroke="rgb(0%,0%,0%)" x1="390.034939704" x2="389.874612608" y1="608.787341716" y2="608.907740342" /><line stroke="rgb(0%,0%,0%)" x1="390.034939704" x2="390.145466259" y1="608.787341716" y2="608.725521501" /><line stroke="rgb(0%,0%,0%)" x1="382.510139512" x2="389.874612608" y1="614.533431504" y2="608.907740342" /><line stroke="rgb(0%,0%,0%)" x1="390.145466259" x2="390.357174874" y1="608.725521501" y2="608.544270474" /><line stroke="rgb(0%,0%,0%)" x1="390.357174874" x2="394.926607902" y1="608.544270474" y2="603.923490834" /><line stroke="rgb(0%,0%,0%)" x1="394.926607902" x2="396.551797561" y1="603.923490834" y2="601.494823435" /><line stroke="rgb(0%,0%,0%)" x1="396.551797561" x2="399.815129747" y1="601.494823435" y2="594.639306275" /><line stroke="rgb(0%,0%,0%)" x1="399.815129747" x2="401.464668403" y1="594.639306275" y2="588.645891097" /><line stroke="rgb(0%,0%,0%)" x1="401.464668403" x2="402.731565541" y1="588.645891097" y2="586.699340363" /><line stroke="rgb(0%,0%,0%)" x1="407.206226195" x2="412.602575745" y1="578.645507663" y2="568.050856323" /><line stroke="rgb(0%,0%,0%)" x1="412.602575745" x2="412.899357355" y1="568.050856323" y2="567.720110994" /><line stroke="rgb(0%,0%,0%)" x1="412.899357355" x2="413.700091066" y1="567.720110994" y2="567.145137577" /><line stroke="rgb(0%,0%,0%)" x1="420.714367229" x2="413.700091066" y1="561.295212136" y2="567.145137577" /><line stroke="rgb(0%,0%,0%)" x1="420.714367229" x2="424.719892894" y1="561.295212136" y2="557.769363401" /><line stroke="rgb(0%,0%,0%)" x1="424.719892894" x2="427.406259128" y1="557.769363401" y2="554.639629316" /><line stroke="rgb(0%,0%,0%)" x1="427.406259128" x2="428.97339485" y1="554.639629316" y2="554.178828893" /><line stroke="rgb(0%,0%,0%)" x1="316.3288218" x2="326.588669159" y1="626.816551052" y2="626.487996736" /><line stroke="rgb(0%,0%,0%)" x1="326.588669159" x2="329.07287841" y1="626.487996736" y2="626.678061727" /><line stroke="rgb(0%,0%,0%)" x1="345.671893963" x2="335.986745" y1="626.104258307" y2="626.425950016" /><line stroke="rgb(0%,0%,0%)" x1="345.671893963" x2="348.271750855" y1="626.104258307" y2="625.0895594" /><line stroke="rgb(0%,0%,0%)" x1="348.271750855" x2="349.275966248" y1="625.0895594" y2="624.956339048" /><line stroke="rgb(0%,0%,0%)" x1="349.275966248" x2="352.733229735" y1="624.956339048" y2="623.856082471" /><line stroke="rgb(0%,0%,0%)" x1="366.437083661" x2="354.896993392" y1="621.052154241" y2="623.279351911" /><line stroke="rgb(0%,0%,0%)" x1="352.733229735" x2="354.896993392" y1="623.856082471" y2="623.279351911" /><line stroke="rgb(0%,0%,0%)" x1="366.437083661" x2="367.304725432" y1="621.052154241" y2="620.671661088" /><line stroke="rgb(0%,0%,0%)" x1="367.304725432" x2="369.44302709" y1="620.671661088" y2="620.091341447" /><line stroke="rgb(0%,0%,0%)" x1="402.731565541" x2="403.384334117" y1="586.699340363" y2="584.816556632" /><line stroke="rgb(0%,0%,0%)" x1="407.206226195" x2="403.384334117" y1="578.645507663" y2="584.816556632" /><line stroke="rgb(0%,0%,0%)" x1="280.168562794" x2="274.292327094" y1="637.428782708" y2="636.749307975" /><line stroke="rgb(0%,0%,0%)" x1="292.995560609" x2="292.317267911" y1="637.437959346" y2="637.66750202" /><line stroke="rgb(0%,0%,0%)" x1="280.168562794" x2="292.317267911" y1="637.428782708" y2="637.66750202" /><line stroke="rgb(0%,0%,0%)" x1="292.995560609" x2="300.840626247" y1="637.437959346" y2="632.30579432" /><line stroke="rgb(0%,0%,0%)" x1="300.840626247" x2="307.039593324" y1="632.30579432" y2="629.055142288" /><line stroke="rgb(0%,0%,0%)" x1="307.039593324" x2="307.788923385" y1="629.055142288" y2="628.505418025" /><line stroke="rgb(0%,0%,0%)" x1="307.788923385" x2="308.536479092" y1="628.505418025" y2="628.402105537" /><line stroke="rgb(0%,0%,0%)" x1="308.536479092" x2="308.751630216" y1="628.402105537" y2="628.291464464" /><line stroke="rgb(0%,0%,0%)" x1="316.3288218" x2="308.751630216" y1="626.816551052" y2="628.291464464" /><line stroke="rgb(0%,0%,0%)" x1="331.00971576" x2="335.986745" y1="626.134502227" y2="626.425950016" /><line stroke="rgb(0%,0%,0%)" x1="329.07287841" x2="331.00971576" y1="626.678061727" y2="626.134502227" /><line stroke="rgb(0%,0%,0%)" x1="221.688136518" x2="236.806036422" y1="616.231372144" y2="622.74096296" /><line stroke="rgb(0%,0%,0%)" x1="236.806036422" x2="236.851588156" y1="622.74096296" y2="622.755362871" /><line stroke="rgb(0%,0%,0%)" x1="221.688136518" x2="221.084769249" y1="616.231372144" y2="615.882220775" /><line stroke="rgb(0%,0%,0%)" x1="220.060678129" x2="221.084769249" y1="614.789588307" y2="615.882220775" /><line stroke="rgb(0%,0%,0%)" x1="213.418923438" x2="220.060678129" y1="603.493472942" y2="614.789588307" /><line stroke="rgb(0%,0%,0%)" x1="250.727156297" x2="249.995096651" y1="625.627779124" y2="625.540862452" /><line stroke="rgb(0%,0%,0%)" x1="250.727156297" x2="251.4599337" y1="625.627779124" y2="625.698866935" /><line stroke="rgb(0%,0%,0%)" x1="236.851588156" x2="249.995096651" y1="622.755362871" y2="625.540862452" /><line stroke="rgb(0%,0%,0%)" x1="264.51440617" x2="268.944381313" y1="631.501264296" y2="633.322034833" /><line stroke="rgb(0%,0%,0%)" x1="268.944381313" x2="271.838200998" y1="633.322034833" y2="635.548534372" /><line stroke="rgb(0%,0%,0%)" x1="271.838200998" x2="274.292327094" y1="635.548534372" y2="636.749307975" /><line stroke="rgb(0%,0%,0%)" x1="251.4599337" x2="256.964623855" y1="625.698866935" y2="626.071524834" /><line stroke="rgb(0%,0%,0%)" x1="256.964623855" x2="263.340266275" y1="626.071524834" y2="631.037783155" /><line stroke="rgb(0%,0%,0%)" x1="263.340266275" x2="264.51440617" y1="631.037783155" y2="631.501264296" /><line stroke="rgb(0%,0%,0%)" x1="183.998600952" x2="178.087186367" y1="580.06874122" y2="580.643196712" /><line stroke="rgb(0%,0%,0%)" x1="183.998600952" x2="185.50065407" y1="580.06874122" y2="580.001274169" /><line stroke="rgb(0%,0%,0%)" x1="177.541337417" x2="178.087186367" y1="580.50815193" y2="580.643196712" /><line stroke="rgb(0%,0%,0%)" x1="185.50065407" x2="187.05373148" y1="580.001274169" y2="580.866885589" /><line stroke="rgb(0%,0%,0%)" x1="192.994966799" x2="187.05373148" y1="581.791135379" y2="580.866885589" /><line stroke="rgb(0%,0%,0%)" x1="200.785894468" x2="200.751826979" y1="591.418223144" y2="591.392306984" /><line stroke="rgb(0%,0%,0%)" x1="200.785894468" x2="213.418923438" y1="591.418223144" y2="603.493472942" /><line stroke="rgb(0%,0%,0%)" x1="200.708841228" x2="200.751826979" y1="591.272987026" y2="591.392306984" /><line stroke="rgb(0%,0%,0%)" x1="200.708841228" x2="200.509033905" y1="591.272987026" y2="590.945004085" /><line stroke="rgb(0%,0%,0%)" x1="194.641157557" x2="200.509033905" y1="583.417501703" y2="590.945004085" /><line stroke="rgb(0%,0%,0%)" x1="192.994966799" x2="194.641157557" y1="581.791135379" y2="583.417501703" /><line stroke="rgb(0%,0%,0%)" x1="100.077831292" x2="100.928521458" y1="459.848204486" y2="462.090117949" /><line stroke="rgb(0%,0%,0%)" x1="171.753898769" x2="177.541337417" y1="578.751480533" y2="580.50815193" /></svg>