<?xml version="1.0" encoding="utf-8" ?>
<svg baseProfile="full" height="100%" version="1.1" viewBox="0.5 0.5 685.793960571 941.299331665" width="100%" xmlns="http://www.w3.org/2000/svg" xmlns:ev="http://www.w3.org/2001/xml-events" xmlns:xlink="http://www.w3.org/1999/xlink"><defs /><line stroke="rgb(0%,0%,0%)" x1="453.605556858" x2="453.916404308" y1="427.527630877" y2="428.548009381" /><line stroke="rgb(0%,0%,0%)" x1="453.605556858" x2="452.239965363" y1="427.527630877" y2="425.901818732" /><line stroke="rgb(0%,0%,0%)" x1="457.165541479" x2="456.150648454" y1="451.448601044" y2="443.154357265" /><line stroke="rgb(0%,0%,0%)" x1="440.529879174" x2="444.132689057" y1="410.729669494" y2="416.204478447" /><line stroke="rgb(0%,0%,0%)" x1="440.529879174" x2="433.938099531" y1="410.729669494" y2="402.613728272" /><line stroke="rgb(0%,0%,0%)" x1="452.239965363" x2="445.771130128" y1="425.901818732" y2="419.672154447" /><line stroke="rgb(0%,0%,0%)" x1="456.083170686" x2="456.934622814" y1="465.557979188" y2="459.117794011" /><line stroke="rgb(0%,0%,0%)" x1="456.934622814" x2="457.165541479" y1="459.117794011" y2="451.448601044" /><line stroke="rgb(0%,0%,0%)" x1="455.827914461" x2="453.916404308" y1="436.459587651" y2="428.548009381" /><line stroke="rgb(0%,0%,0%)" x1="417.260355525" x2="422.789631697" y1="386.73058107" y2="390.982468098" /><line stroke="rgb(0%,0%,0%)" x1="417.260355525" x2="416.046308235" y1="386.73058107" y2="384.568401822" /><line stroke="rgb(0%,0%,0%)" x1="445.771130128" x2="444.132689057" y1="419.672154447" y2="416.204478447" /><line stroke="rgb(0%,0%,0%)" x1="433.938099531" x2="425.704338662" y1="402.613728272" y2="393.085679785" /><line stroke="rgb(0%,0%,0%)" x1="456.150648454" x2="455.827914461" y1="443.154357265" y2="436.459587651" /><line stroke="rgb(0%,0%,0%)" x1="425.704338662" x2="422.789631697" y1="393.085679785" y2="390.982468098" /><line stroke="rgb(0%,0%,0%)" x1="226.366030378" x2="218.116861973" y1="321.701213201" y2="325.340398502" /><line stroke="rgb(0%,0%,0%)" x1="227.31176026" x2="226.366030378" y1="320.820846889" y2="321.701213201" /><line stroke="rgb(0%,0%,0%)" x1="227.31176026" x2="229.304939085" y1="320.820846889" y2="320.456497778" /><line stroke="rgb(0%,0%,0%)" x1="236.607925722" x2="234.96034763" y1="319.248742413" y2="319.640062529" /><line stroke="rgb(0%,0%,0%)" x1="236.722496898" x2="236.607925722" y1="319.287448975" y2="319.248742413" /><line stroke="rgb(0%,0%,0%)" x1="229.927528213" x2="234.96034763" y1="320.272831967" y2="319.640062529" /><line stroke="rgb(0%,0%,0%)" x1="229.304939085" x2="229.927528213" y1="320.456497778" y2="320.272831967" /><line stroke="rgb(0%,0%,0%)" x1="171.131970345" x2="173.144224744" y1="347.288983996" y2="346.861744772" /><line stroke="rgb(0%,0%,0%)" x1="189.536338253" x2="189.513843837" y1="344.445878839" y2="344.451275598" /><line stroke="rgb(0%,0%,0%)" x1="189.513843837" x2="189.450895463" y1="344.451275598" y2="344.45015071" /><line stroke="rgb(0%,0%,0%)" x1="195.559816865" x2="189.584597341" y1="340.46076057" y2="344.415901689" /><line stroke="rgb(0%,0%,0%)" x1="189.536338253" x2="189.584597341" y1="344.445878839" y2="344.415901689" /><line stroke="rgb(0%,0%,0%)" x1="199.990399087" x2="197.368574576" y1="337.340321023" y2="339.871699907" /><line stroke="rgb(0%,0%,0%)" x1="208.220888166" x2="199.990399087" y1="332.397859055" y2="337.340321023" /><line stroke="rgb(0%,0%,0%)" x1="208.220888166" x2="212.361175574" y1="332.397859055" y2="330.284463661" /><line stroke="rgb(0%,0%,0%)" x1="214.697474306" x2="212.361175574" y1="328.724684508" y2="330.284463661" /><line stroke="rgb(0%,0%,0%)" x1="218.116861973" x2="214.697474306" y1="325.340398502" y2="328.724684508" /><line stroke="rgb(0%,0%,0%)" x1="153.369012458" x2="147.758157491" y1="355.369197059" y2="359.014206219" /><line stroke="rgb(0%,0%,0%)" x1="153.369012458" x2="158.946577279" y1="355.369197059" y2="353.080542472" /><line stroke="rgb(0%,0%,0%)" x1="171.131970345" x2="164.699386415" y1="347.288983996" y2="349.234203293" /><line stroke="rgb(0%,0%,0%)" x1="164.699386415" x2="158.946577279" y1="349.234203293" y2="353.080542472" /><line stroke="rgb(0%,0%,0%)" x1="189.450895463" x2="179.377809455" y1="344.45015071" y2="346.090745857" /><line stroke="rgb(0%,0%,0%)" x1="179.377809455" x2="177.068593101" y1="346.090745857" y2="347.776704732" /><line stroke="rgb(0%,0%,0%)" x1="177.068593101" x2="173.144224744" y1="347.776704732" y2="346.861744772" /><line stroke="rgb(0%,0%,0%)" x1="197.368574576" x2="195.559816865" y1="339.871699907" y2="340.46076057" /><line stroke="rgb(0%,0%,0%)" x1="128.282170182" x2="128.201130122" y1="387.542078254" y2="383.072530016" /><line stroke="rgb(0%,0%,0%)" x1="126.978744246" x2="125.281898751" y1="390.53006938" y2="396.461624348" /><line stroke="rgb(0%,0%,0%)" x1="128.282170182" x2="126.978744246" y1="387.542078254" y2="390.53006938" /><line stroke="rgb(0%,0%,0%)" x1="136.981408259" x2="128.966699058" y1="369.786703482" y2="381.277090619" /><line stroke="rgb(0%,0%,0%)" x1="136.981408259" x2="143.673386302" y1="369.786703482" y2="362.183508318" /><line stroke="rgb(0%,0%,0%)" x1="147.758157491" x2="143.673386302" y1="359.014206219" y2="362.183508318" /><line stroke="rgb(0%,0%,0%)" x1="112.734578723" x2="109.398759379" y1="428.874493875" y2="422.859617753" /><line stroke="rgb(0%,0%,0%)" x1="117.392731389" x2="117.472704895" y1="464.486388911" y2="460.612655029" /><line stroke="rgb(0%,0%,0%)" x1="118.396776498" x2="117.526413326" y1="449.37549272" y2="459.995332091" /><line stroke="rgb(0%,0%,0%)" x1="118.396776498" x2="117.382435087" y1="449.37549272" y2="445.677868357" /><line stroke="rgb(0%,0%,0%)" x1="117.382435087" x2="117.950225962" y1="445.677868357" y2="444.531895329" /><line stroke="rgb(0%,0%,0%)" x1="113.922202068" x2="117.363226139" y1="430.765815763" y2="439.588024244" /><line stroke="rgb(0%,0%,0%)" x1="112.734578723" x2="113.922202068" y1="428.874493875" y2="430.765815763" /><line stroke="rgb(0%,0%,0%)" x1="109.198545462" x2="109.398759379" y1="422.320020686" y2="422.859617753" /><line stroke="rgb(0%,0%,0%)" x1="109.198545462" x2="110.698274127" y1="422.320020686" y2="416.968101083" /><line stroke="rgb(0%,0%,0%)" x1="111.196378456" x2="110.730955226" y1="416.21411321" y2="416.802812289" /><line stroke="rgb(0%,0%,0%)" x1="110.730955226" x2="110.698274127" y1="416.802812289" y2="416.968101083" /><line stroke="rgb(0%,0%,0%)" x1="113.200366657" x2="111.196378456" y1="413.740368268" y2="416.21411321" /><line stroke="rgb(0%,0%,0%)" x1="117.579999601" x2="113.953105855" y1="408.117215793" y2="412.720463773" /><line stroke="rgb(0%,0%,0%)" x1="113.525457585" x2="113.200366657" y1="413.128719144" y2="413.740368268" /><line stroke="rgb(0%,0%,0%)" x1="118.279047942" x2="117.579999601" y1="407.473171987" y2="408.117215793" /><line stroke="rgb(0%,0%,0%)" x1="113.525457585" x2="113.953105855" y1="413.128719144" y2="412.720463773" /><line stroke="rgb(0%,0%,0%)" x1="119.357251417" x2="118.279047942" y1="405.941453904" y2="407.473171987" /><line stroke="rgb(0%,0%,0%)" x1="119.357251417" x2="124.993830066" y1="405.941453904" y2="396.81254035" /><line stroke="rgb(0%,0%,0%)" x1="117.544473728" x2="117.472704895" y1="460.158886074" y2="460.612655029" /><line stroke="rgb(0%,0%,0%)" x1="117.526413326" x2="117.544473728" y1="459.995332091" y2="460.158886074" /><line stroke="rgb(0%,0%,0%)" x1="117.985801574" x2="117.950225962" y1="442.990356222" y2="444.531895329" /><line stroke="rgb(0%,0%,0%)" x1="117.363226139" x2="117.985801574" y1="439.588024244" y2="442.990356222" /><line stroke="rgb(0%,0%,0%)" x1="125.281898751" x2="124.993830066" y1="396.461624348" y2="396.81254035" /><line stroke="rgb(0%,0%,0%)" x1="128.966699058" x2="128.201130122" y1="381.277090619" y2="383.072530016" /><line stroke="rgb(0%,0%,0%)" x1="456.083170686" x2="456.404342361" y1="465.557979188" y2="468.65171451" /><line stroke="rgb(0%,0%,0%)" x1="456.404342361" x2="456.857967766" y1="468.65171451" y2="471.039471673" /><line stroke="rgb(0%,0%,0%)" x1="440.30969071" x2="443.361340382" y1="527.511876947" y2="523.264756974" /><line stroke="rgb(0%,0%,0%)" x1="444.361293876" x2="447.560911415" y1="520.873312423" y2="516.100649019" /><line stroke="rgb(0%,0%,0%)" x1="447.560911415" x2="456.464551374" y1="516.100649019" y2="502.212991644" /><line stroke="rgb(0%,0%,0%)" x1="456.857967766" x2="457.540137732" y1="471.039471673" y2="483.007937606" /><line stroke="rgb(0%,0%,0%)" x1="458.261472215" x2="457.540137732" y1="485.578589792" y2="483.007937606" /><line stroke="rgb(0%,0%,0%)" x1="379.094890559" x2="380.278998241" y1="345.13902554" y2="347.093632725" /><line stroke="rgb(0%,0%,0%)" x1="380.278998241" x2="381.810355044" y1="347.093632725" y2="350.695728456" /><line stroke="rgb(0%,0%,0%)" x1="413.859370374" x2="416.046308235" y1="382.478615735" y2="384.568401822" /><line stroke="rgb(0%,0%,0%)" x1="413.859370374" x2="405.061730959" y1="382.478615735" y2="373.443712429" /><line stroke="rgb(0%,0%,0%)" x1="422.138737264" x2="423.567735098" y1="547.507182294" y2="545.541602187" /><line stroke="rgb(0%,0%,0%)" x1="423.567735098" x2="426.025591933" y1="545.541602187" y2="543.940619732" /><line stroke="rgb(0%,0%,0%)" x1="436.755372813" x2="426.025591933" y1="530.946289719" y2="543.940619732" /><line stroke="rgb(0%,0%,0%)" x1="436.755372813" x2="440.30969071" y1="530.946289719" y2="527.511876947" /><line stroke="rgb(0%,0%,0%)" x1="443.361340382" x2="444.361293876" y1="523.264756974" y2="520.873312423" /><line stroke="rgb(0%,0%,0%)" x1="456.464551374" x2="457.457904774" y1="502.212991644" y2="500.412330706" /><line stroke="rgb(0%,0%,0%)" x1="456.953458006" x2="457.457904774" y1="493.767392432" y2="500.412330706" /><line stroke="rgb(0%,0%,0%)" x1="457.843529974" x2="458.261472215" y1="489.961838875" y2="485.578589792" /><line stroke="rgb(0%,0%,0%)" x1="368.822709728" x2="372.990840086" y1="326.109324714" y2="332.946091389" /><line stroke="rgb(0%,0%,0%)" x1="368.822709728" x2="364.463542723" y1="326.109324714" y2="322.024036222" /><line stroke="rgb(0%,0%,0%)" x1="385.440220909" x2="381.810355044" y1="357.649847642" y2="350.695728456" /><line stroke="rgb(0%,0%,0%)" x1="379.094890559" x2="375.745926647" y1="345.13902554" y2="338.220359338" /><line stroke="rgb(0%,0%,0%)" x1="397.140571847" x2="394.885900803" y1="367.855312602" y2="366.056675647" /><line stroke="rgb(0%,0%,0%)" x1="385.440220909" x2="391.92951601" y1="357.649847642" y2="362.939627608" /><line stroke="rgb(0%,0%,0%)" x1="394.885900803" x2="391.92951601" y1="366.056675647" y2="362.939627608" /><line stroke="rgb(0%,0%,0%)" x1="400.643763477" x2="397.140571847" y1="369.854596834" y2="367.855312602" /><line stroke="rgb(0%,0%,0%)" x1="405.061730959" x2="400.643763477" y1="373.443712429" y2="369.854596834" /><line stroke="rgb(0%,0%,0%)" x1="456.953458006" x2="457.51700734" y1="493.767392432" y2="491.705087469" /><line stroke="rgb(0%,0%,0%)" x1="457.51700734" x2="457.843529974" y1="491.705087469" y2="489.961838875" /><line stroke="rgb(0%,0%,0%)" x1="345.459006053" x2="343.479453011" y1="312.543827452" y2="311.768235071" /><line stroke="rgb(0%,0%,0%)" x1="346.119443453" x2="345.459006053" y1="312.743316263" y2="312.543827452" /><line stroke="rgb(0%,0%,0%)" x1="331.632699895" x2="332.642638456" y1="311.350802854" y2="311.352705572" /><line stroke="rgb(0%,0%,0%)" x1="331.632699895" x2="331.526702702" y1="311.350802854" y2="311.305047761" /><line stroke="rgb(0%,0%,0%)" x1="356.710112404" x2="349.570386415" y1="316.512068118" y2="313.855485119" /><line stroke="rgb(0%,0%,0%)" x1="346.119443453" x2="349.570386415" y1="312.743316263" y2="313.855485119" /><line stroke="rgb(0%,0%,0%)" x1="375.745926647" x2="374.203520075" y1="338.220359338" y2="336.116633275" /><line stroke="rgb(0%,0%,0%)" x1="374.203520075" x2="372.990840086" y1="336.116633275" y2="332.946091389" /><line stroke="rgb(0%,0%,0%)" x1="364.463542723" x2="362.915279504" y1="322.024036222" y2="320.626898865" /><line stroke="rgb(0%,0%,0%)" x1="294.479349189" x2="302.825005983" y1="307.224957428" y2="308.127682383" /><line stroke="rgb(0%,0%,0%)" x1="325.625233095" x2="317.347532658" y1="311.742620742" y2="308.860795662" /><line stroke="rgb(0%,0%,0%)" x1="306.969232151" x2="316.404059719" y1="308.304581605" y2="308.802716322" /><line stroke="rgb(0%,0%,0%)" x1="306.969232151" x2="304.802084641" y1="308.304581605" y2="307.959517234" /><line stroke="rgb(0%,0%,0%)" x1="330.319764097" x2="326.163991374" y1="311.57906714" y2="311.847353435" /><line stroke="rgb(0%,0%,0%)" x1="331.526702702" x2="330.319764097" y1="311.305047761" y2="311.57906714" /><line stroke="rgb(0%,0%,0%)" x1="343.479453011" x2="341.228584194" y1="311.768235071" y2="311.461463598" /><line stroke="rgb(0%,0%,0%)" x1="341.228584194" x2="332.642638456" y1="311.461463598" y2="311.352705572" /><line stroke="rgb(0%,0%,0%)" x1="360.155683152" x2="362.915279504" y1="319.61964175" y2="320.626898865" /><line stroke="rgb(0%,0%,0%)" x1="360.155683152" x2="356.710112404" y1="319.61964175" y2="316.512068118" /><line stroke="rgb(0%,0%,0%)" x1="270.852425422" x2="279.147232286" y1="307.218270945" y2="306.188278917" /><line stroke="rgb(0%,0%,0%)" x1="294.479349189" x2="289.168287044" y1="307.224957428" y2="307.245322835" /><line stroke="rgb(0%,0%,0%)" x1="289.168287044" x2="288.381928975" y1="307.245322835" y2="307.219170005" /><line stroke="rgb(0%,0%,0%)" x1="304.802084641" x2="302.825005983" y1="307.959517234" y2="308.127682383" /><line stroke="rgb(0%,0%,0%)" x1="317.347532658" x2="316.404059719" y1="308.860795662" y2="308.802716322" /><line stroke="rgb(0%,0%,0%)" x1="326.163991374" x2="325.625233095" y1="311.847353435" y2="311.742620742" /><line stroke="rgb(0%,0%,0%)" x1="246.331535377" x2="238.316922235" y1="313.842933192" y2="318.161543066" /><line stroke="rgb(0%,0%,0%)" x1="238.316922235" x2="236.722496898" y1="318.161543066" y2="319.287448975" /><line stroke="rgb(0%,0%,0%)" x1="246.682485959" x2="246.331535377" y1="313.689924678" y2="313.842933192" /><line stroke="rgb(0%,0%,0%)" x1="257.312429133" x2="246.97374465" y1="309.13113831" y2="313.633393211" /><line stroke="rgb(0%,0%,0%)" x1="246.97374465" x2="246.682485959" y1="313.633393211" y2="313.689924678" /><line stroke="rgb(0%,0%,0%)" x1="270.852425422" x2="267.169021615" y1="307.218270945" y2="307.663306513" /><line stroke="rgb(0%,0%,0%)" x1="261.036182948" x2="267.169021615" y1="308.235965436" y2="307.663306513" /><line stroke="rgb(0%,0%,0%)" x1="257.312429133" x2="261.036182948" y1="309.13113831" y2="308.235965436" /><line stroke="rgb(0%,0%,0%)" x1="279.266832919" x2="279.147232286" y1="306.184083918" y2="306.188278917" /><line stroke="rgb(0%,0%,0%)" x1="288.381928975" x2="279.266832919" y1="307.219170005" y2="306.184083918" /><line stroke="rgb(0%,0%,0%)" x1="229.374213077" x2="230.951171104" y1="599.555469784" y2="600.030456716" /><line stroke="rgb(0%,0%,0%)" x1="159.788816166" x2="161.807235682" y1="551.696247121" y2="552.270932563" /><line stroke="rgb(0%,0%,0%)" x1="159.788816166" x2="151.937173104" y1="551.696247121" y2="546.35259188" /><line stroke="rgb(0%,0%,0%)" x1="188.37491654" x2="182.532765926" y1="566.496067941" y2="561.486529564" /><line stroke="rgb(0%,0%,0%)" x1="188.37491654" x2="190.877103951" y1="566.496067941" y2="567.575723203" /><line stroke="rgb(0%,0%,0%)" x1="171.374137673" x2="175.523767069" y1="552.998222602" y2="554.882733458" /><line stroke="rgb(0%,0%,0%)" x1="196.666828562" x2="190.877103951" y1="572.514751857" y2="567.575723203" /><line stroke="rgb(0%,0%,0%)" x1="180.279184189" x2="182.532765926" y1="558.811045556" y2="561.486529564" /><line stroke="rgb(0%,0%,0%)" x1="178.046115058" x2="180.279184189" y1="557.844016761" y2="558.811045556" /><line stroke="rgb(0%,0%,0%)" x1="115.652229444" x2="119.864334898" y1="513.511514563" y2="517.433222536" /><line stroke="rgb(0%,0%,0%)" x1="115.652229444" x2="114.884425709" y1="513.511514563" y2="512.587966282" /><line stroke="rgb(0%,0%,0%)" x1="135.12001807" x2="135.291932428" y1="530.707339601" y2="531.410075434" /><line stroke="rgb(0%,0%,0%)" x1="135.291932428" x2="136.291202481" y1="531.410075434" y2="532.465899409" /><line stroke="rgb(0%,0%,0%)" x1="135.12001807" x2="133.374078274" y1="530.707339601" y2="529.114571192" /><line stroke="rgb(0%,0%,0%)" x1="151.937173104" x2="148.119108603" y1="546.35259188" y2="542.23593769" /><line stroke="rgb(0%,0%,0%)" x1="142.773920423" x2="148.119108603" y1="538.132438869" y2="542.23593769" /><line stroke="rgb(0%,0%,0%)" x1="161.807235682" x2="171.374137673" y1="552.270932563" y2="552.998222602" /><line stroke="rgb(0%,0%,0%)" x1="175.523767069" x2="178.046115058" y1="554.882733458" y2="557.844016761" /><line stroke="rgb(0%,0%,0%)" x1="114.884425709" x2="112.527575019" y1="512.587966282" y2="510.252977524" /><line stroke="rgb(0%,0%,0%)" x1="110.399256656" x2="112.527575019" y1="506.874414162" y2="510.252977524" /><line stroke="rgb(0%,0%,0%)" x1="110.399256656" x2="109.830033725" y1="506.874414162" y2="503.707344359" /><line stroke="rgb(0%,0%,0%)" x1="110.350843775" x2="109.830033725" y1="500.665714252" y2="503.707344359" /><line stroke="rgb(0%,0%,0%)" x1="113.213376051" x2="110.350843775" y1="492.791895958" y2="500.665714252" /><line stroke="rgb(0%,0%,0%)" x1="113.213376051" x2="114.403555299" y1="492.791895958" y2="489.097052064" /><line stroke="rgb(0%,0%,0%)" x1="115.541744014" x2="114.403555299" y1="482.248193532" y2="489.097052064" /><line stroke="rgb(0%,0%,0%)" x1="116.358976509" x2="115.541744014" y1="480.079174139" y2="482.248193532" /><line stroke="rgb(0%,0%,0%)" x1="117.032322448" x2="116.40681132" y1="473.624690388" y2="476.564347289" /><line stroke="rgb(0%,0%,0%)" x1="116.40681132" x2="116.358976509" y1="476.564347289" y2="480.079174139" /><line stroke="rgb(0%,0%,0%)" x1="117.41179798" x2="117.032322448" y1="471.654126574" y2="473.624690388" /><line stroke="rgb(0%,0%,0%)" x1="117.41179798" x2="117.461506258" y1="471.654126574" y2="465.879754481" /><line stroke="rgb(0%,0%,0%)" x1="117.392731389" x2="117.461506258" y1="464.486388911" y2="465.879754481" /><line stroke="rgb(0%,0%,0%)" x1="127.721377372" x2="133.374078274" y1="523.507059016" y2="529.114571192" /><line stroke="rgb(0%,0%,0%)" x1="124.930370153" x2="127.721377372" y1="521.844107423" y2="523.507059016" /><line stroke="rgb(0%,0%,0%)" x1="119.864334898" x2="124.930370153" y1="517.433222536" y2="521.844107423" /><line stroke="rgb(0%,0%,0%)" x1="136.291202481" x2="142.773920423" y1="532.465899409" y2="538.132438869" /><line stroke="rgb(0%,0%,0%)" x1="421.815948057" x2="420.970925399" y1="547.607823046" y2="548.603370659" /><line stroke="rgb(0%,0%,0%)" x1="421.815948057" x2="422.138737264" y1="547.607823046" y2="547.507182294" /><line stroke="rgb(0%,0%,0%)" x1="369.126332376" x2="368.677639523" y1="611.680412827" y2="611.91438466" /><line stroke="rgb(0%,0%,0%)" x1="369.126332376" x2="372.81842627" y1="611.680412827" y2="606.92972627" /><line stroke="rgb(0%,0%,0%)" x1="372.81842627" x2="373.639595746" y1="606.92972627" y2="606.398418322" /><line stroke="rgb(0%,0%,0%)" x1="373.639595746" x2="377.057773369" y1="606.398418322" y2="603.28929982" /><line stroke="rgb(0%,0%,0%)" x1="382.731268423" x2="380.522492665" y1="591.974124999" y2="597.532837849" /><line stroke="rgb(0%,0%,0%)" x1="382.731268423" x2="384.417195005" y1="591.974124999" y2="589.461650899" /><line stroke="rgb(0%,0%,0%)" x1="387.113522023" x2="384.417195005" y1="584.590587669" y2="589.461650899" /><line stroke="rgb(0%,0%,0%)" x1="387.113522023" x2="389.111953103" y1="584.590587669" y2="582.146326422" /><line stroke="rgb(0%,0%,0%)" x1="390.329602463" x2="389.111953103" y1="578.423016688" y2="582.146326422" /><line stroke="rgb(0%,0%,0%)" x1="390.329602463" x2="392.936644951" y1="578.423016688" y2="575.330177116" /><line stroke="rgb(0%,0%,0%)" x1="392.936644951" x2="399.637787663" y1="575.330177116" y2="568.682999912" /><line stroke="rgb(0%,0%,0%)" x1="399.637787663" x2="401.126277781" y1="568.682999912" y2="566.203324604" /><line stroke="rgb(0%,0%,0%)" x1="401.126277781" x2="405.419100967" y1="566.203324604" y2="563.35561926" /><line stroke="rgb(0%,0%,0%)" x1="413.252063225" x2="405.419100967" y1="556.2756369" y2="563.35561926" /><line stroke="rgb(0%,0%,0%)" x1="413.252063225" x2="420.970925399" y1="556.2756369" y2="548.603370659" /><line stroke="rgb(0%,0%,0%)" x1="325.253122816" x2="323.233633922" y1="618.035466432" y2="618.567558045" /><line stroke="rgb(0%,0%,0%)" x1="307.979514697" x2="314.663378935" y1="618.287574812" y2="618.169666129" /><line stroke="rgb(0%,0%,0%)" x1="323.233633922" x2="321.80611172" y1="618.567558045" y2="618.506582172" /><line stroke="rgb(0%,0%,0%)" x1="342.883163924" x2="342.808164735" y1="616.874632001" y2="616.893809571" /><line stroke="rgb(0%,0%,0%)" x1="342.808164735" x2="342.404741354" y1="616.893809571" y2="616.791111491" /><line stroke="rgb(0%,0%,0%)" x1="334.352772669" x2="334.156025406" y1="617.155622715" y2="617.119969679" /><line stroke="rgb(0%,0%,0%)" x1="334.352772669" x2="342.404741354" y1="617.155622715" y2="616.791111491" /><line stroke="rgb(0%,0%,0%)" x1="325.253122816" x2="334.156025406" y1="618.035466432" y2="617.119969679" /><line stroke="rgb(0%,0%,0%)" x1="342.883163924" x2="347.385663533" y1="616.874632001" y2="617.06550168" /><line stroke="rgb(0%,0%,0%)" x1="347.385663533" x2="357.725320947" y1="617.06550168" y2="615.97204898" /><line stroke="rgb(0%,0%,0%)" x1="357.725320947" x2="358.881649642" y1="615.97204898" y2="615.507770833" /><line stroke="rgb(0%,0%,0%)" x1="358.881649642" x2="360.563024552" y1="615.507770833" y2="615.305111314" /><line stroke="rgb(0%,0%,0%)" x1="360.563024552" x2="364.624489669" y1="615.305111314" y2="613.895274232" /><line stroke="rgb(0%,0%,0%)" x1="364.624489669" x2="368.677639523" y1="613.895274232" y2="611.91438466" /><line stroke="rgb(0%,0%,0%)" x1="377.057773369" x2="378.199764574" y1="603.28929982" y2="600.428985379" /><line stroke="rgb(0%,0%,0%)" x1="378.199764574" x2="380.522492665" y1="600.428985379" y2="597.532837849" /><line stroke="rgb(0%,0%,0%)" x1="261.107162659" x2="262.129135549" y1="614.731987763" y2="615.053963144" /><line stroke="rgb(0%,0%,0%)" x1="262.129135549" x2="266.308749277" y1="615.053963144" y2="617.039386098" /><line stroke="rgb(0%,0%,0%)" x1="282.937701226" x2="277.459522917" y1="619.23745049" y2="618.598313772" /><line stroke="rgb(0%,0%,0%)" x1="282.937701226" x2="284.700968506" y1="619.23745049" y2="619.513323276" /><line stroke="rgb(0%,0%,0%)" x1="277.459522917" x2="270.269470414" y1="618.598313772" y2="618.252519193" /><line stroke="rgb(0%,0%,0%)" x1="296.181982237" x2="299.937051945" y1="619.092553213" y2="618.613531294" /><line stroke="rgb(0%,0%,0%)" x1="296.181982237" x2="292.498900983" y1="619.092553213" y2="619.081964498" /><line stroke="rgb(0%,0%,0%)" x1="284.700968506" x2="292.498900983" y1="619.513323276" y2="619.081964498" /><line stroke="rgb(0%,0%,0%)" x1="299.937051945" x2="307.979514697" y1="618.613531294" y2="618.287574812" /><line stroke="rgb(0%,0%,0%)" x1="314.663378935" x2="321.80611172" y1="618.169666129" y2="618.506582172" /><line stroke="rgb(0%,0%,0%)" x1="203.602931984" x2="200.001259225" y1="578.78010573" y2="575.595154527" /><line stroke="rgb(0%,0%,0%)" x1="203.602931984" x2="207.946699313" y1="578.78010573" y2="582.813907765" /><line stroke="rgb(0%,0%,0%)" x1="219.046890646" x2="224.775546434" y1="592.02266779" y2="596.329972044" /><line stroke="rgb(0%,0%,0%)" x1="212.48019528" x2="214.56280508" y1="585.998521236" y2="588.154108344" /><line stroke="rgb(0%,0%,0%)" x1="224.775546434" x2="228.010729247" y1="596.329972044" y2="598.407157248" /><line stroke="rgb(0%,0%,0%)" x1="207.946699313" x2="212.48019528" y1="582.813907765" y2="585.998521236" /><line stroke="rgb(0%,0%,0%)" x1="216.757881488" x2="219.046890646" y1="589.639548727" y2="592.02266779" /><line stroke="rgb(0%,0%,0%)" x1="214.56280508" x2="216.757881488" y1="588.154108344" y2="589.639548727" /><line stroke="rgb(0%,0%,0%)" x1="241.006002694" x2="242.383723504" y1="603.461335837" y2="604.69936971" /><line stroke="rgb(0%,0%,0%)" x1="248.621862649" x2="242.383723504" y1="609.080949131" y2="604.69936971" /><line stroke="rgb(0%,0%,0%)" x1="234.99614211" x2="238.565784862" y1="601.761894873" y2="602.909137781" /><line stroke="rgb(0%,0%,0%)" x1="230.951171104" x2="234.99614211" y1="600.030456716" y2="601.761894873" /><line stroke="rgb(0%,0%,0%)" x1="238.565784862" x2="240.122101251" y1="602.909137781" y2="602.954260092" /><line stroke="rgb(0%,0%,0%)" x1="240.122101251" x2="241.006002694" y1="602.954260092" y2="603.461335837" /><line stroke="rgb(0%,0%,0%)" x1="261.107162659" x2="259.166752371" y1="614.731987763" y2="613.956508873" /><line stroke="rgb(0%,0%,0%)" x1="248.621862649" x2="259.166752371" y1="609.080949131" y2="613.956508873" /><line stroke="rgb(0%,0%,0%)" x1="266.308749277" x2="270.269470414" y1="617.039386098" y2="618.252519193" /><line stroke="rgb(0%,0%,0%)" x1="228.010729247" x2="229.374213077" y1="598.407157248" y2="599.555469784" /><line stroke="rgb(0%,0%,0%)" x1="196.666828562" x2="200.001259225" y1="572.514751857" y2="575.595154527" /></svg>