<?xml version="1.0" encoding="utf-8" ?>
<svg baseProfile="full" height="100%" version="1.1" viewBox="0.5 0.5 685.793960571 941.299331665" width="100%" xmlns="http://www.w3.org/2000/svg" xmlns:ev="http://www.w3.org/2001/xml-events" xmlns:xlink="http://www.w3.org/1999/xlink"><defs /><line stroke="rgb(0%,0%,0%)" x1="429.65031035" x2="429.869061586" y1="410.043629608" y2="410.376042715" /><line stroke="rgb(0%,0%,0%)" x1="429.65031035" x2="429.250078311" y1="410.043629608" y2="409.550855292" /><line stroke="rgb(0%,0%,0%)" x1="429.869061586" x2="430.668159336" y1="410.376042715" y2="412.067291877" /><line stroke="rgb(0%,0%,0%)" x1="429.250078311" x2="428.750150358" y1="409.550855292" y2="408.972342283" /><line stroke="rgb(0%,0%,0%)" x1="446.333653847" x2="446.726025274" y1="461.954051982" y2="449.800470952" /><line stroke="rgb(0%,0%,0%)" x1="428.750150358" x2="427.521805915" y1="408.972342283" y2="408.085986152" /><line stroke="rgb(0%,0%,0%)" x1="446.726025274" x2="445.758348154" y1="449.800470952" y2="445.171339116" /><line stroke="rgb(0%,0%,0%)" x1="445.758348154" x2="442.291674917" y1="445.171339116" y2="434.416406233" /><line stroke="rgb(0%,0%,0%)" x1="439.075096215" x2="442.291674917" y1="428.330879979" y2="434.416406233" /><line stroke="rgb(0%,0%,0%)" x1="427.521805915" x2="412.698549432" y1="408.085986152" y2="395.481907147" /><line stroke="rgb(0%,0%,0%)" x1="412.698549432" x2="411.172593112" y1="395.481907147" y2="394.409744463" /><line stroke="rgb(0%,0%,0%)" x1="439.075096215" x2="435.724321545" y1="428.330879979" y2="422.575971932" /><line stroke="rgb(0%,0%,0%)" x1="435.724321545" x2="430.668159336" y1="422.575971932" y2="412.067291877" /><line stroke="rgb(0%,0%,0%)" x1="446.104910063" x2="446.333653847" y1="465.378546435" y2="461.954051982" /><line stroke="rgb(0%,0%,0%)" x1="446.03799762" x2="446.104910063" y1="465.786492818" y2="465.378546435" /><line stroke="rgb(0%,0%,0%)" x1="214.889435786" x2="205.895785905" y1="337.66960687" y2="344.497304499" /><line stroke="rgb(0%,0%,0%)" x1="214.889435786" x2="215.847773749" y1="337.66960687" y2="337.086678651" /><line stroke="rgb(0%,0%,0%)" x1="228.192010894" x2="221.901803749" y1="330.568430088" y2="334.010098143" /><line stroke="rgb(0%,0%,0%)" x1="231.84370845" x2="228.192010894" y1="329.583614199" y2="330.568430088" /><line stroke="rgb(0%,0%,0%)" x1="186.299112654" x2="182.109046052" y1="357.535141404" y2="359.377660449" /><line stroke="rgb(0%,0%,0%)" x1="180.630120217" x2="182.109046052" y1="359.618531871" y2="359.377660449" /><line stroke="rgb(0%,0%,0%)" x1="180.630120217" x2="178.462364961" y1="359.618531871" y2="361.201209997" /><line stroke="rgb(0%,0%,0%)" x1="192.351008767" x2="192.65917622" y1="353.204271859" y2="352.943932585" /><line stroke="rgb(0%,0%,0%)" x1="192.351008767" x2="186.299112654" y1="353.204271859" y2="357.535141404" /><line stroke="rgb(0%,0%,0%)" x1="192.65917622" x2="195.668509524" y1="352.943932585" y2="351.428709935" /><line stroke="rgb(0%,0%,0%)" x1="205.895785905" x2="200.927499024" y1="344.497304499" y2="348.457317667" /><line stroke="rgb(0%,0%,0%)" x1="220.168597861" x2="215.847773749" y1="335.783981376" y2="337.086678651" /><line stroke="rgb(0%,0%,0%)" x1="221.901803749" x2="220.168597861" y1="334.010098143" y2="335.783981376" /><line stroke="rgb(0%,0%,0%)" x1="164.165156873" x2="151.446825504" y1="367.929870819" y2="371.624531858" /><line stroke="rgb(0%,0%,0%)" x1="164.287297861" x2="164.165156873" y1="367.870687527" y2="367.929870819" /><line stroke="rgb(0%,0%,0%)" x1="164.287297861" x2="164.391357311" y1="367.870687527" y2="367.86444056" /><line stroke="rgb(0%,0%,0%)" x1="199.177513124" x2="195.668509524" y1="350.085251595" y2="351.428709935" /><line stroke="rgb(0%,0%,0%)" x1="199.826010548" x2="199.177513124" y1="349.561599126" y2="350.085251595" /><line stroke="rgb(0%,0%,0%)" x1="200.217892729" x2="199.826010548" y1="349.189779148" y2="349.561599126" /><line stroke="rgb(0%,0%,0%)" x1="200.927499024" x2="200.217892729" y1="348.457317667" y2="349.189779148" /><line stroke="rgb(0%,0%,0%)" x1="122.795782572" x2="123.787560214" y1="430.615278576" y2="433.158030077" /><line stroke="rgb(0%,0%,0%)" x1="122.795782572" x2="120.166049707" y1="430.615278576" y2="426.427358771" /><line stroke="rgb(0%,0%,0%)" x1="116.59574925" x2="118.000915642" y1="417.77143772" y2="421.558505455" /><line stroke="rgb(0%,0%,0%)" x1="116.59574925" x2="116.842575426" y1="417.77143772" y2="416.89061582" /><line stroke="rgb(0%,0%,0%)" x1="116.842575426" x2="117.50116739" y1="416.89061582" y2="413.559703595" /><line stroke="rgb(0%,0%,0%)" x1="121.22483033" x2="118.187757255" y1="408.336469298" y2="411.134570643" /><line stroke="rgb(0%,0%,0%)" x1="121.22483033" x2="124.983882799" y1="408.336469298" y2="402.996281868" /><line stroke="rgb(0%,0%,0%)" x1="127.765958985" x2="127.837046221" y1="458.503375016" y2="455.426362098" /><line stroke="rgb(0%,0%,0%)" x1="126.135421646" x2="126.131110675" y1="445.988931495" y2="446.175731683" /><line stroke="rgb(0%,0%,0%)" x1="123.787560214" x2="126.135421646" y1="433.158030077" y2="445.988931495" /><line stroke="rgb(0%,0%,0%)" x1="151.446825504" x2="141.366979404" y1="371.624531858" y2="380.965119882" /><line stroke="rgb(0%,0%,0%)" x1="178.462364961" x2="170.246676698" y1="361.201209997" y2="367.440115386" /><line stroke="rgb(0%,0%,0%)" x1="170.246676698" x2="164.391357311" y1="367.440115386" y2="367.86444056" /><line stroke="rgb(0%,0%,0%)" x1="126.131110675" x2="126.160626856" y1="446.175731683" y2="446.432295487" /><line stroke="rgb(0%,0%,0%)" x1="118.980464618" x2="120.166049707" y1="424.438911421" y2="426.427358771" /><line stroke="rgb(0%,0%,0%)" x1="118.000915642" x2="118.980464618" y1="421.558505455" y2="424.438911421" /><line stroke="rgb(0%,0%,0%)" x1="118.187757255" x2="118.045581584" y1="411.134570643" y2="411.932813445" /><line stroke="rgb(0%,0%,0%)" x1="126.90808145" x2="124.983882799" y1="401.317512582" y2="402.996281868" /><line stroke="rgb(0%,0%,0%)" x1="126.160626856" x2="127.837046221" y1="446.432295487" y2="455.426362098" /><line stroke="rgb(0%,0%,0%)" x1="128.883489976" x2="126.90808145" y1="399.504045868" y2="401.317512582" /><line stroke="rgb(0%,0%,0%)" x1="128.883489976" x2="132.026260595" y1="399.504045868" y2="394.554446405" /><line stroke="rgb(0%,0%,0%)" x1="140.46810949" x2="132.026260595" y1="381.812855558" y2="394.554446405" /><line stroke="rgb(0%,0%,0%)" x1="140.862499254" x2="140.46810949" y1="381.450657806" y2="381.812855558" /><line stroke="rgb(0%,0%,0%)" x1="141.366979404" x2="140.862499254" y1="380.965119882" y2="381.450657806" /><line stroke="rgb(0%,0%,0%)" x1="118.045581584" x2="117.50116739" y1="411.932813445" y2="413.559703595" /><line stroke="rgb(0%,0%,0%)" x1="426.568756148" x2="423.986788295" y1="529.826462982" y2="531.508288049" /><line stroke="rgb(0%,0%,0%)" x1="430.42959904" x2="426.568756148" y1="525.150778808" y2="529.826462982" /><line stroke="rgb(0%,0%,0%)" x1="430.42959904" x2="434.061126776" y1="525.150778808" y2="521.641760875" /><line stroke="rgb(0%,0%,0%)" x1="447.417087338" x2="447.8164113" y1="484.790367186" y2="480.602380855" /><line stroke="rgb(0%,0%,0%)" x1="386.708748712" x2="391.856672944" y1="373.07642312" y2="377.183118327" /><line stroke="rgb(0%,0%,0%)" x1="386.708748712" x2="382.489051845" y1="373.07642312" y2="368.627408949" /><line stroke="rgb(0%,0%,0%)" x1="408.289545887" x2="403.575092092" y1="390.910144198" y2="387.055993181" /><line stroke="rgb(0%,0%,0%)" x1="416.981936212" x2="417.603026885" y1="538.662584001" y2="537.747529441" /><line stroke="rgb(0%,0%,0%)" x1="417.603026885" x2="423.986788295" y1="537.747529441" y2="531.508288049" /><line stroke="rgb(0%,0%,0%)" x1="408.289545887" x2="411.172593112" y1="390.910144198" y2="394.409744463" /><line stroke="rgb(0%,0%,0%)" x1="434.061126776" x2="441.473263792" y1="521.641760875" y2="503.793123206" /><line stroke="rgb(0%,0%,0%)" x1="441.473263792" x2="444.252573926" y1="503.793123206" y2="498.398075224" /><line stroke="rgb(0%,0%,0%)" x1="444.252573926" x2="445.135360468" y1="498.398075224" y2="494.975635169" /><line stroke="rgb(0%,0%,0%)" x1="446.324212575" x2="445.135360468" y1="490.625038949" y2="494.975635169" /><line stroke="rgb(0%,0%,0%)" x1="446.324212575" x2="447.417087338" y1="490.625038949" y2="484.790367186" /><line stroke="rgb(0%,0%,0%)" x1="447.8164113" x2="446.838087714" y1="480.602380855" y2="471.519407502" /><line stroke="rgb(0%,0%,0%)" x1="367.586267789" x2="366.931889333" y1="352.142656432" y2="351.247078446" /><line stroke="rgb(0%,0%,0%)" x1="382.489051845" x2="376.289423364" y1="368.627408949" y2="361.597720601" /><line stroke="rgb(0%,0%,0%)" x1="376.289423364" x2="372.740170365" y1="361.597720601" y2="359.428823831" /><line stroke="rgb(0%,0%,0%)" x1="372.740170365" x2="368.695088722" y1="359.428823831" y2="353.815435451" /><line stroke="rgb(0%,0%,0%)" x1="367.586267789" x2="368.695088722" y1="352.142656432" y2="353.815435451" /><line stroke="rgb(0%,0%,0%)" x1="446.838087714" x2="446.37441434" y1="471.519407502" y2="467.1310325" /><line stroke="rgb(0%,0%,0%)" x1="446.37441434" x2="446.03799762" y1="467.1310325" y2="465.786492818" /><line stroke="rgb(0%,0%,0%)" x1="315.585849355" x2="322.261258968" y1="314.701145105" y2="316.032043051" /><line stroke="rgb(0%,0%,0%)" x1="315.288039642" x2="315.585849355" y1="314.720370955" y2="314.701145105" /><line stroke="rgb(0%,0%,0%)" x1="340.3300688" x2="339.361934466" y1="320.391700327" y2="319.513419926" /><line stroke="rgb(0%,0%,0%)" x1="350.750804319" x2="354.185253025" y1="326.467964689" y2="329.418314456" /><line stroke="rgb(0%,0%,0%)" x1="350.750804319" x2="347.346182512" y1="326.467964689" y2="323.101663268" /><line stroke="rgb(0%,0%,0%)" x1="347.346182512" x2="344.923061966" y1="323.101663268" y2="321.55507228" /><line stroke="rgb(0%,0%,0%)" x1="340.3300688" x2="344.923061966" y1="320.391700327" y2="321.55507228" /><line stroke="rgb(0%,0%,0%)" x1="363.762386463" x2="361.8720268" y1="346.622337051" y2="343.743573376" /><line stroke="rgb(0%,0%,0%)" x1="361.8720268" x2="361.476469951" y1="343.743573376" y2="343.291835668" /><line stroke="rgb(0%,0%,0%)" x1="366.931889333" x2="363.762386463" y1="351.247078446" y2="346.622337051" /><line stroke="rgb(0%,0%,0%)" x1="361.476469951" x2="360.9814019" y1="343.291835668" y2="342.473948414" /><line stroke="rgb(0%,0%,0%)" x1="354.185253025" x2="360.751809119" y1="329.418314456" y2="341.85911524" /><line stroke="rgb(0%,0%,0%)" x1="397.428048302" x2="391.856672944" y1="381.216291584" y2="377.183118327" /><line stroke="rgb(0%,0%,0%)" x1="403.575092092" x2="397.428048302" y1="387.055993181" y2="381.216291584" /><line stroke="rgb(0%,0%,0%)" x1="305.677792054" x2="304.529504976" y1="315.881789071" y2="315.682608459" /><line stroke="rgb(0%,0%,0%)" x1="314.631374592" x2="306.583032165" y1="314.592717605" y2="315.86636696" /><line stroke="rgb(0%,0%,0%)" x1="305.677792054" x2="306.583032165" y1="315.881789071" y2="315.86636696" /><line stroke="rgb(0%,0%,0%)" x1="329.987361105" x2="322.261258968" y1="317.643551018" y2="316.032043051" /><line stroke="rgb(0%,0%,0%)" x1="315.288039642" x2="314.631374592" y1="314.720370955" y2="314.592717605" /><line stroke="rgb(0%,0%,0%)" x1="339.361934466" x2="339.151818213" y1="319.513419926" y2="319.424522668" /><line stroke="rgb(0%,0%,0%)" x1="329.987361105" x2="339.151818213" y1="317.643551018" y2="319.424522668" /><line stroke="rgb(0%,0%,0%)" x1="360.9814019" x2="360.751809119" y1="342.473948414" y2="341.85911524" /><line stroke="rgb(0%,0%,0%)" x1="253.316470157" x2="255.043441225" y1="319.52885615" y2="319.054187376" /><line stroke="rgb(0%,0%,0%)" x1="253.316470157" x2="253.220553974" y1="319.52885615" y2="319.594420746" /><line stroke="rgb(0%,0%,0%)" x1="290.187290954" x2="285.273833171" y1="316.656562692" y2="315.263760595" /><line stroke="rgb(0%,0%,0%)" x1="285.273833171" x2="283.473693614" y1="315.263760595" y2="313.955821444" /><line stroke="rgb(0%,0%,0%)" x1="299.51538143" x2="298.686314221" y1="315.264335534" y2="315.445817824" /><line stroke="rgb(0%,0%,0%)" x1="304.529504976" x2="299.51538143" y1="315.682608459" y2="315.264335534" /><line stroke="rgb(0%,0%,0%)" x1="290.187290954" x2="298.686314221" y1="316.656562692" y2="315.445817824" /><line stroke="rgb(0%,0%,0%)" x1="235.987793927" x2="233.694808808" y1="330.009260923" y2="330.022898418" /><line stroke="rgb(0%,0%,0%)" x1="243.827209626" x2="238.464510819" y1="324.73398081" y2="327.857535563" /><line stroke="rgb(0%,0%,0%)" x1="235.987793927" x2="238.464510819" y1="330.009260923" y2="327.857535563" /><line stroke="rgb(0%,0%,0%)" x1="252.717875619" x2="245.473231349" y1="319.762928015" y2="322.906913172" /><line stroke="rgb(0%,0%,0%)" x1="253.220553974" x2="252.717875619" y1="319.594420746" y2="319.762928015" /><line stroke="rgb(0%,0%,0%)" x1="266.683558951" x2="255.043441225" y1="315.407942248" y2="319.054187376" /><line stroke="rgb(0%,0%,0%)" x1="269.701391444" x2="266.683558951" y1="315.151804228" y2="315.407942248" /><line stroke="rgb(0%,0%,0%)" x1="269.701391444" x2="283.358103687" y1="315.151804228" y2="313.967150868" /><line stroke="rgb(0%,0%,0%)" x1="283.473693614" x2="283.358103687" y1="313.955821444" y2="313.967150868" /><line stroke="rgb(0%,0%,0%)" x1="204.561977205" x2="206.056832295" y1="564.731138613" y2="566.20034774" /><line stroke="rgb(0%,0%,0%)" x1="206.056832295" x2="207.467511867" y1="566.20034774" y2="568.179448548" /><line stroke="rgb(0%,0%,0%)" x1="204.561977205" x2="201.002053868" y1="564.731138613" y2="560.620230346" /><line stroke="rgb(0%,0%,0%)" x1="215.528732652" x2="215.0569425" y1="574.354251059" y2="574.065074584" /><line stroke="rgb(0%,0%,0%)" x1="234.136292256" x2="229.704485051" y1="585.6403473" y2="586.066397653" /><line stroke="rgb(0%,0%,0%)" x1="229.704485051" x2="225.838874368" y1="586.066397653" y2="582.761793355" /><line stroke="rgb(0%,0%,0%)" x1="222.959084755" x2="223.746263813" y1="581.228963056" y2="582.277652491" /><line stroke="rgb(0%,0%,0%)" x1="223.746263813" x2="225.838874368" y1="582.277652491" y2="582.761793355" /><line stroke="rgb(0%,0%,0%)" x1="221.119128257" x2="222.959084755" y1="579.387076891" y2="581.228963056" /><line stroke="rgb(0%,0%,0%)" x1="233.694808808" x2="231.84370845" y1="330.022898418" y2="329.583614199" /><line stroke="rgb(0%,0%,0%)" x1="234.136292256" x2="236.084778432" y1="585.6403473" y2="587.275316599" /><line stroke="rgb(0%,0%,0%)" x1="236.084778432" x2="238.528767157" y1="587.275316599" y2="590.093733973" /><line stroke="rgb(0%,0%,0%)" x1="238.528767157" x2="239.493395483" y1="590.093733973" y2="590.988770625" /><line stroke="rgb(0%,0%,0%)" x1="245.473231349" x2="243.827209626" y1="322.906913172" y2="324.73398081" /><line stroke="rgb(0%,0%,0%)" x1="186.450636698" x2="189.61033671" y1="544.430982484" y2="547.833536052" /><line stroke="rgb(0%,0%,0%)" x1="197.476694721" x2="190.006040019" y1="556.891419994" y2="548.239625989" /><line stroke="rgb(0%,0%,0%)" x1="189.61033671" x2="190.006040019" y1="547.833536052" y2="548.239625989" /><line stroke="rgb(0%,0%,0%)" x1="180.457058002" x2="186.450636698" y1="541.371454948" y2="544.430982484" /><line stroke="rgb(0%,0%,0%)" x1="197.476694721" x2="201.002053868" y1="556.891419994" y2="560.620230346" /><line stroke="rgb(0%,0%,0%)" x1="207.467511867" x2="215.0569425" y1="568.179448548" y2="574.065074584" /><line stroke="rgb(0%,0%,0%)" x1="215.528732652" x2="219.228920324" y1="574.354251059" y2="578.894187266" /><line stroke="rgb(0%,0%,0%)" x1="219.228920324" x2="221.119128257" y1="578.894187266" y2="579.387076891" /><line stroke="rgb(0%,0%,0%)" x1="121.160485816" x2="121.084880465" y1="501.873721857" y2="502.315271544" /><line stroke="rgb(0%,0%,0%)" x1="121.282069866" x2="121.160485816" y1="501.53928695" y2="501.873721857" /><line stroke="rgb(0%,0%,0%)" x1="121.282069866" x2="121.332621894" y1="501.53928695" y2="501.382351049" /><line stroke="rgb(0%,0%,0%)" x1="121.332621894" x2="121.547289314" y1="501.382351049" y2="500.090626077" /><line stroke="rgb(0%,0%,0%)" x1="133.435020646" x2="124.431743623" y1="522.124538527" y2="516.754561072" /><line stroke="rgb(0%,0%,0%)" x1="123.502517816" x2="121.547289314" y1="493.779423808" y2="500.090626077" /><line stroke="rgb(0%,0%,0%)" x1="149.099995367" x2="149.740245552" y1="529.458262567" y2="529.562564086" /><line stroke="rgb(0%,0%,0%)" x1="138.753829544" x2="149.099995367" y1="524.099706888" y2="529.458262567" /><line stroke="rgb(0%,0%,0%)" x1="156.867847876" x2="164.949769314" y1="532.575277662" y2="534.54450966" /><line stroke="rgb(0%,0%,0%)" x1="156.867847876" x2="149.740245552" y1="532.575277662" y2="529.562564086" /><line stroke="rgb(0%,0%,0%)" x1="164.949769314" x2="171.240943549" y1="534.54450966" y2="537.375261522" /><line stroke="rgb(0%,0%,0%)" x1="177.302826901" x2="171.240943549" y1="541.140140769" y2="537.375261522" /><line stroke="rgb(0%,0%,0%)" x1="177.302826901" x2="180.457058002" y1="541.140140769" y2="541.371454948" /><line stroke="rgb(0%,0%,0%)" x1="120.957810816" x2="122.436483089" y1="509.252165372" y2="512.883469182" /><line stroke="rgb(0%,0%,0%)" x1="122.436483089" x2="124.431743623" y1="512.883469182" y2="516.754561072" /><line stroke="rgb(0%,0%,0%)" x1="121.084880465" x2="120.957810816" y1="502.315271544" y2="509.252165372" /><line stroke="rgb(0%,0%,0%)" x1="124.663807161" x2="123.502517816" y1="483.10267023" y2="493.779423808" /><line stroke="rgb(0%,0%,0%)" x1="124.663807161" x2="124.580469081" y1="483.10267023" y2="478.990934176" /><line stroke="rgb(0%,0%,0%)" x1="125.124944531" x2="124.580469081" y1="476.689479677" y2="478.990934176" /><line stroke="rgb(0%,0%,0%)" x1="127.096574113" x2="126.330726232" y1="464.721140944" y2="469.860580911" /><line stroke="rgb(0%,0%,0%)" x1="133.435020646" x2="138.753829544" y1="522.124538527" y2="524.099706888" /><line stroke="rgb(0%,0%,0%)" x1="125.676143763" x2="125.124944531" y1="472.09354332" y2="476.689479677" /><line stroke="rgb(0%,0%,0%)" x1="126.330726232" x2="125.676143763" y1="469.860580911" y2="472.09354332" /><line stroke="rgb(0%,0%,0%)" x1="398.01639943" x2="393.181269735" y1="556.225121708" y2="559.713296486" /><line stroke="rgb(0%,0%,0%)" x1="398.01639943" x2="405.760328682" y1="556.225121708" y2="549.995802845" /><line stroke="rgb(0%,0%,0%)" x1="410.305084758" x2="413.35413048" y1="545.895972358" y2="542.610289894" /><line stroke="rgb(0%,0%,0%)" x1="416.981936212" x2="413.35413048" y1="538.662584001" y2="542.610289894" /><line stroke="rgb(0%,0%,0%)" x1="333.939909767" x2="344.724269343" y1="610.859184705" y2="610.147182915" /><line stroke="rgb(0%,0%,0%)" x1="358.402710975" x2="355.514490978" y1="602.079721922" y2="604.280243253" /><line stroke="rgb(0%,0%,0%)" x1="358.402710975" x2="361.115703147" y1="602.079721922" y2="599.247610296" /><line stroke="rgb(0%,0%,0%)" x1="361.115703147" x2="365.478945196" y1="599.247610296" y2="591.619344257" /><line stroke="rgb(0%,0%,0%)" x1="366.083537388" x2="365.478945196" y1="589.069857002" y2="591.619344257" /><line stroke="rgb(0%,0%,0%)" x1="366.083537388" x2="370.11649293" y1="589.069857002" y2="584.261660731" /><line stroke="rgb(0%,0%,0%)" x1="372.738329" x2="370.11649293" y1="581.012925473" y2="584.261660731" /><line stroke="rgb(0%,0%,0%)" x1="372.738329" x2="373.345199152" y1="581.012925473" y2="580.099752576" /><line stroke="rgb(0%,0%,0%)" x1="373.345199152" x2="374.71733479" y1="580.099752576" y2="577.654164429" /><line stroke="rgb(0%,0%,0%)" x1="375.672107558" x2="374.71733479" y1="576.337456593" y2="577.654164429" /><line stroke="rgb(0%,0%,0%)" x1="375.672107558" x2="378.374800428" y1="576.337456593" y2="574.977192643" /><line stroke="rgb(0%,0%,0%)" x1="382.223908833" x2="378.374800428" y1="570.178714196" y2="574.977192643" /><line stroke="rgb(0%,0%,0%)" x1="382.223908833" x2="386.178972496" y1="570.178714196" y2="567.790523778" /><line stroke="rgb(0%,0%,0%)" x1="386.178972496" x2="392.315806206" y1="567.790523778" y2="560.375385305" /><line stroke="rgb(0%,0%,0%)" x1="392.315806206" x2="392.529450524" y1="560.375385305" y2="560.197212281" /><line stroke="rgb(0%,0%,0%)" x1="405.760328682" x2="410.305084758" y1="549.995802845" y2="545.895972358" /><line stroke="rgb(0%,0%,0%)" x1="392.529450524" x2="392.848424569" y1="560.197212281" y2="559.921105443" /><line stroke="rgb(0%,0%,0%)" x1="392.848424569" x2="393.181269735" y1="559.921105443" y2="559.713296486" /><line stroke="rgb(0%,0%,0%)" x1="294.936837198" x2="288.519828431" y1="607.668680846" y2="608.579055183" /><line stroke="rgb(0%,0%,0%)" x1="294.936837198" x2="299.898416032" y1="607.668680846" y2="608.127061741" /><line stroke="rgb(0%,0%,0%)" x1="318.488556462" x2="321.307084452" y1="611.245172558" y2="611.772601866" /><line stroke="rgb(0%,0%,0%)" x1="315.440137139" x2="309.905130616" y1="611.370194871" y2="610.866475742" /><line stroke="rgb(0%,0%,0%)" x1="315.440137139" x2="318.488556462" y1="611.370194871" y2="611.245172558" /><line stroke="rgb(0%,0%,0%)" x1="299.898416032" x2="306.474673151" y1="608.127061741" y2="610.478605577" /><line stroke="rgb(0%,0%,0%)" x1="306.474673151" x2="309.905130616" y1="610.478605577" y2="610.866475742" /><line stroke="rgb(0%,0%,0%)" x1="332.157776851" x2="328.721850187" y1="611.406988459" y2="611.586718654" /><line stroke="rgb(0%,0%,0%)" x1="321.307084452" x2="328.721850187" y1="611.772601866" y2="611.586718654" /><line stroke="rgb(0%,0%,0%)" x1="333.939909767" x2="332.157776851" y1="610.859184705" y2="611.406988459" /><line stroke="rgb(0%,0%,0%)" x1="344.724269343" x2="345.920932095" y1="610.147182915" y2="609.977964976" /><line stroke="rgb(0%,0%,0%)" x1="345.920932095" x2="346.101560772" y1="609.977964976" y2="609.89158503" /><line stroke="rgb(0%,0%,0%)" x1="346.101560772" x2="346.277077729" y1="609.89158503" y2="609.805922106" /><line stroke="rgb(0%,0%,0%)" x1="346.277077729" x2="346.521553208" y1="609.805922106" y2="609.733706248" /><line stroke="rgb(0%,0%,0%)" x1="351.583908039" x2="346.521553208" y1="607.212197432" y2="609.733706248" /><line stroke="rgb(0%,0%,0%)" x1="351.583908039" x2="355.514490978" y1="607.212197432" y2="604.280243253" /><line stroke="rgb(0%,0%,0%)" x1="242.165811344" x2="239.493395483" y1="593.291461057" y2="590.988770625" /><line stroke="rgb(0%,0%,0%)" x1="255.397322705" x2="249.978028019" y1="601.250689974" y2="598.954157324" /><line stroke="rgb(0%,0%,0%)" x1="255.397322705" x2="256.921507106" y1="601.250689974" y2="602.636799629" /><line stroke="rgb(0%,0%,0%)" x1="243.703582007" x2="249.978028019" y1="594.645474797" y2="598.954157324" /><line stroke="rgb(0%,0%,0%)" x1="242.165811344" x2="243.703582007" y1="593.291461057" y2="594.645474797" /><line stroke="rgb(0%,0%,0%)" x1="270.245109077" x2="263.132789427" y1="607.133998477" y2="605.056079403" /><line stroke="rgb(0%,0%,0%)" x1="272.380568658" x2="283.859508308" y1="606.702126328" y2="608.456368791" /><line stroke="rgb(0%,0%,0%)" x1="270.245109077" x2="272.380568658" y1="607.133998477" y2="606.702126328" /><line stroke="rgb(0%,0%,0%)" x1="256.921507106" x2="259.131574833" y1="602.636799629" y2="603.328819556" /><line stroke="rgb(0%,0%,0%)" x1="259.131574833" x2="263.132789427" y1="603.328819556" y2="605.056079403" /><line stroke="rgb(0%,0%,0%)" x1="283.859508308" x2="285.468019268" y1="608.456368791" y2="608.471384185" /><line stroke="rgb(0%,0%,0%)" x1="285.468019268" x2="288.519828431" y1="608.471384185" y2="608.579055183" /><line stroke="rgb(0%,0%,0%)" x1="127.765958985" x2="127.096574113" y1="458.503375016" y2="464.721140944" /></svg>