<?xml version="1.0" encoding="utf-8" ?>
<svg baseProfile="full" height="100%" version="1.1" viewBox="0.5 0.5 685.793960571 941.299331665" width="100%" xmlns="http://www.w3.org/2000/svg" xmlns:ev="http://www.w3.org/2001/xml-events" xmlns:xlink="http://www.w3.org/1999/xlink"><defs /><line stroke="rgb(0%,0%,0%)" x1="445.513309911" x2="445.850580689" y1="460.578439813" y2="450.131584004" /><line stroke="rgb(0%,0%,0%)" x1="445.850580689" x2="444.494120642" y1="450.131584004" y2="443.642609269" /><line stroke="rgb(0%,0%,0%)" x1="444.494120642" x2="441.45026452" y1="443.642609269" y2="434.199415155" /><line stroke="rgb(0%,0%,0%)" x1="438.625999841" x2="441.45026452" y1="428.856117682" y2="434.199415155" /><line stroke="rgb(0%,0%,0%)" x1="428.882171006" x2="428.801070113" y1="410.022916555" y2="409.948814266" /><line stroke="rgb(0%,0%,0%)" x1="412.410734469" x2="428.801070113" y1="396.012262226" y2="409.948814266" /><line stroke="rgb(0%,0%,0%)" x1="412.410734469" x2="410.693027103" y1="396.012262226" y2="394.805372019" /><line stroke="rgb(0%,0%,0%)" x1="438.625999841" x2="434.696206331" y1="428.856117682" y2="422.106752978" /><line stroke="rgb(0%,0%,0%)" x1="434.696206331" x2="428.882171006" y1="422.106752978" y2="410.022916555" /><line stroke="rgb(0%,0%,0%)" x1="445.201327451" x2="445.513309911" y1="465.24909003" y2="460.578439813" /><line stroke="rgb(0%,0%,0%)" x1="445.110065917" x2="445.201327451" y1="465.805485984" y2="465.24909003" /><line stroke="rgb(0%,0%,0%)" x1="215.127478151" x2="212.688885891" y1="338.13807088" y2="339.989373834" /><line stroke="rgb(0%,0%,0%)" x1="215.127478151" x2="215.387327664" y1="338.13807088" y2="337.980012221" /><line stroke="rgb(0%,0%,0%)" x1="227.676759508" x2="222.279407992" y1="331.524400506" y2="334.47754527" /><line stroke="rgb(0%,0%,0%)" x1="231.8234714" x2="227.676759508" y1="330.406085614" y2="331.524400506" /><line stroke="rgb(0%,0%,0%)" x1="181.577112637" x2="184.973832271" y1="360.445135204" y2="358.951478609" /><line stroke="rgb(0%,0%,0%)" x1="180.719570986" x2="181.577112637" y1="360.5848023" y2="360.445135204" /><line stroke="rgb(0%,0%,0%)" x1="180.719570986" x2="179.462617879" y1="360.5848023" y2="361.502503772" /><line stroke="rgb(0%,0%,0%)" x1="212.688885891" x2="202.248624269" y1="339.989373834" y2="348.310868645" /><line stroke="rgb(0%,0%,0%)" x1="220.306277002" x2="215.387327664" y1="336.496984508" y2="337.980012221" /><line stroke="rgb(0%,0%,0%)" x1="222.279407992" x2="220.306277002" y1="334.47754527" y2="336.496984508" /><line stroke="rgb(0%,0%,0%)" x1="151.675689971" x2="162.164365422" y1="372.625834791" y2="369.578886303" /><line stroke="rgb(0%,0%,0%)" x1="186.249754835" x2="184.973832271" y1="358.658577949" y2="358.951478609" /><line stroke="rgb(0%,0%,0%)" x1="186.249754835" x2="192.349292513" y1="358.658577949" y2="354.211217382" /><line stroke="rgb(0%,0%,0%)" x1="192.519885392" x2="192.349292513" y1="354.048600319" y2="354.211217382" /><line stroke="rgb(0%,0%,0%)" x1="198.571237864" x2="192.519885392" y1="351.731777405" y2="354.048600319" /><line stroke="rgb(0%,0%,0%)" x1="199.933977764" x2="198.571237864" y1="350.631384269" y2="351.731777405" /><line stroke="rgb(0%,0%,0%)" x1="200.757471374" x2="199.933977764" y1="349.850048984" y2="350.631384269" /><line stroke="rgb(0%,0%,0%)" x1="202.248624269" x2="200.757471374" y1="348.310868645" y2="349.850048984" /><line stroke="rgb(0%,0%,0%)" x1="123.429609751" x2="124.246441219" y1="430.604525919" y2="432.69874478" /><line stroke="rgb(0%,0%,0%)" x1="123.429609751" x2="121.263752741" y1="430.604525919" y2="427.155340801" /><line stroke="rgb(0%,0%,0%)" x1="117.124120949" x2="118.019808943" y1="417.446538937" y2="419.860510066" /><line stroke="rgb(0%,0%,0%)" x1="117.124120949" x2="117.28145409" y1="417.446538937" y2="416.885081159" /><line stroke="rgb(0%,0%,0%)" x1="117.28145409" x2="117.701256982" y1="416.885081159" y2="414.761874892" /><line stroke="rgb(0%,0%,0%)" x1="121.435243358" x2="118.82104142" y1="408.398133392" y2="410.806637164" /><line stroke="rgb(0%,0%,0%)" x1="121.435243358" x2="124.670898875" y1="408.398133392" y2="403.801494461" /><line stroke="rgb(0%,0%,0%)" x1="128.613264886" x2="128.666616003" y1="457.914048861" y2="455.604744349" /><line stroke="rgb(0%,0%,0%)" x1="124.246441219" x2="126.284330454" y1="432.69874478" y2="443.835669434" /><line stroke="rgb(0%,0%,0%)" x1="151.675689971" x2="143.535774079" y1="372.625834791" y2="380.168767506" /><line stroke="rgb(0%,0%,0%)" x1="163.337481162" x2="162.164365422" y1="369.398807217" y2="369.578886303" /><line stroke="rgb(0%,0%,0%)" x1="164.598920351" x2="163.337481162" y1="369.256231119" y2="369.398807217" /><line stroke="rgb(0%,0%,0%)" x1="179.462617879" x2="169.743042006" y1="361.502503772" y2="368.883445252" /><line stroke="rgb(0%,0%,0%)" x1="169.743042006" x2="164.598920351" y1="368.883445252" y2="369.256231119" /><line stroke="rgb(0%,0%,0%)" x1="126.69093029" x2="126.683840599" y1="445.384906118" y2="445.676467177" /><line stroke="rgb(0%,0%,0%)" x1="126.284330454" x2="126.69093029" y1="443.835669434" y2="445.384906118" /><line stroke="rgb(0%,0%,0%)" x1="119.487432531" x2="121.263752741" y1="424.176120458" y2="427.155340801" /><line stroke="rgb(0%,0%,0%)" x1="118.019808943" x2="119.487432531" y1="419.860510066" y2="424.176120458" /><line stroke="rgb(0%,0%,0%)" x1="118.82104142" x2="118.589161935" y1="410.806637164" y2="412.108520447" /><line stroke="rgb(0%,0%,0%)" x1="127.271691614" x2="124.670898875" y1="401.5324299" y2="403.801494461" /><line stroke="rgb(0%,0%,0%)" x1="128.666616003" x2="127.268747812" y1="455.604744349" y2="448.105117536" /><line stroke="rgb(0%,0%,0%)" x1="126.856103236" x2="127.268747812" y1="446.190336283" y2="448.105117536" /><line stroke="rgb(0%,0%,0%)" x1="126.683840599" x2="126.856103236" y1="445.676467177" y2="446.190336283" /><line stroke="rgb(0%,0%,0%)" x1="129.94170084" x2="127.271691614" y1="399.081305084" y2="401.5324299" /><line stroke="rgb(0%,0%,0%)" x1="129.94170084" x2="132.771478635" y1="399.081305084" y2="394.624643002" /><line stroke="rgb(0%,0%,0%)" x1="140.372592251" x2="132.771478635" y1="383.152004616" y2="394.624643002" /><line stroke="rgb(0%,0%,0%)" x1="141.760475541" x2="140.372592251" y1="381.877407113" y2="383.152004616" /><line stroke="rgb(0%,0%,0%)" x1="143.535774079" x2="141.760475541" y1="380.168767506" y2="381.877407113" /><line stroke="rgb(0%,0%,0%)" x1="118.589161935" x2="117.701256982" y1="412.108520447" y2="414.761874892" /><line stroke="rgb(0%,0%,0%)" x1="426.607553592" x2="424.353703894" y1="528.818308929" y2="530.286406571" /><line stroke="rgb(0%,0%,0%)" x1="429.977758056" x2="426.607553592" y1="524.736813743" y2="528.818308929" /><line stroke="rgb(0%,0%,0%)" x1="429.977758056" x2="433.147788884" y1="524.736813743" y2="521.673724093" /><line stroke="rgb(0%,0%,0%)" x1="446.672341435" x2="446.997205683" y1="484.420976351" y2="481.013900497" /><line stroke="rgb(0%,0%,0%)" x1="386.12466642" x2="389.153191953" y1="373.577833654" y2="375.993803806" /><line stroke="rgb(0%,0%,0%)" x1="386.12466642" x2="383.642217354" y1="373.577833654" y2="370.960477141" /><line stroke="rgb(0%,0%,0%)" x1="408.683639844" x2="405.397823604" y1="392.366267961" y2="389.680053916" /><line stroke="rgb(0%,0%,0%)" x1="416.499989214" x2="417.196344951" y1="538.307675041" y2="537.28173226" /><line stroke="rgb(0%,0%,0%)" x1="417.196344951" x2="424.353703894" y1="537.28173226" y2="530.286406571" /><line stroke="rgb(0%,0%,0%)" x1="408.683639844" x2="410.693027103" y1="392.366267961" y2="394.805372019" /><line stroke="rgb(0%,0%,0%)" x1="433.147788884" x2="439.617986703" y1="521.673724093" y2="506.093302917" /><line stroke="rgb(0%,0%,0%)" x1="439.617986703" x2="443.298486594" y1="506.093302917" y2="498.948913643" /><line stroke="rgb(0%,0%,0%)" x1="443.298486594" x2="444.467516179" y1="498.948913643" y2="494.416749313" /><line stroke="rgb(0%,0%,0%)" x1="445.524727235" x2="444.467516179" y1="490.547892627" y2="494.416749313" /><line stroke="rgb(0%,0%,0%)" x1="445.524727235" x2="446.672341435" y1="490.547892627" y2="484.420976351" /><line stroke="rgb(0%,0%,0%)" x1="446.997205683" x2="446.201304646" y1="481.013900497" y2="473.624578578" /><line stroke="rgb(0%,0%,0%)" x1="366.777010446" x2="366.76353444" y1="352.840669823" y2="352.822226651" /><line stroke="rgb(0%,0%,0%)" x1="383.642217354" x2="376.072496451" y1="370.960477141" y2="362.377256553" /><line stroke="rgb(0%,0%,0%)" x1="376.072496451" x2="371.738873124" y1="362.377256553" y2="359.729042509" /><line stroke="rgb(0%,0%,0%)" x1="371.738873124" x2="366.799845059" y1="359.729042509" y2="352.875118362" /><line stroke="rgb(0%,0%,0%)" x1="366.777010446" x2="366.799845059" y1="352.840669823" y2="352.875118362" /><line stroke="rgb(0%,0%,0%)" x1="446.201304646" x2="445.568902936" y1="473.624578578" y2="467.63929668" /><line stroke="rgb(0%,0%,0%)" x1="445.568902936" x2="445.110065917" y1="467.63929668" y2="465.805485984" /><line stroke="rgb(0%,0%,0%)" x1="339.930278658" x2="339.077714553" y1="320.994850852" y2="320.221414442" /><line stroke="rgb(0%,0%,0%)" x1="350.590689345" x2="353.407102978" y1="327.596503133" y2="330.01593228" /><line stroke="rgb(0%,0%,0%)" x1="350.590689345" x2="346.725733964" y1="327.596503133" y2="323.775049378" /><line stroke="rgb(0%,0%,0%)" x1="346.725733964" x2="343.97498709" y1="323.775049378" y2="322.019346247" /><line stroke="rgb(0%,0%,0%)" x1="339.930278658" x2="343.97498709" y1="320.994850852" y2="322.019346247" /><line stroke="rgb(0%,0%,0%)" x1="366.698262973" x2="361.733870137" y1="352.726986587" y2="345.166883587" /><line stroke="rgb(0%,0%,0%)" x1="361.733870137" x2="360.695073328" y1="345.166883587" y2="343.980546676" /><line stroke="rgb(0%,0%,0%)" x1="366.76353444" x2="366.698262973" y1="352.822226651" y2="352.726986587" /><line stroke="rgb(0%,0%,0%)" x1="360.695073328" x2="359.394943871" y1="343.980546676" y2="341.832641332" /><line stroke="rgb(0%,0%,0%)" x1="353.407102978" x2="358.791995775" y1="330.01593228" y2="340.217989124" /><line stroke="rgb(0%,0%,0%)" x1="396.876498257" x2="389.153191953" y1="381.584780978" y2="375.993803806" /><line stroke="rgb(0%,0%,0%)" x1="405.397823604" x2="396.876498257" y1="389.680053916" y2="381.584780978" /><line stroke="rgb(0%,0%,0%)" x1="329.796355879" x2="315.045578625" y1="318.1531096" y2="315.076397094" /><line stroke="rgb(0%,0%,0%)" x1="339.077714553" x2="337.920934009" y1="320.221414442" y2="319.731996723" /><line stroke="rgb(0%,0%,0%)" x1="329.796355879" x2="337.920934009" y1="318.1531096" y2="319.731996723" /><line stroke="rgb(0%,0%,0%)" x1="359.394943871" x2="358.791995775" y1="341.832641332" y2="340.217989124" /><line stroke="rgb(0%,0%,0%)" x1="290.036952806" x2="284.568801666" y1="317.425165956" y2="315.875126714" /><line stroke="rgb(0%,0%,0%)" x1="284.568801666" x2="283.056269107" y1="315.875126714" y2="314.776156058" /><line stroke="rgb(0%,0%,0%)" x1="298.959262023" x2="297.656165198" y1="316.05450918" y2="316.339756256" /><line stroke="rgb(0%,0%,0%)" x1="305.245704045" x2="304.858485851" y1="316.459298873" y2="316.546616242" /><line stroke="rgb(0%,0%,0%)" x1="298.959262023" x2="304.858485851" y1="316.05450918" y2="316.546616242" /><line stroke="rgb(0%,0%,0%)" x1="290.036952806" x2="297.656165198" y1="317.425165956" y2="316.339756256" /><line stroke="rgb(0%,0%,0%)" x1="305.846115565" x2="305.628582729" y1="316.508090194" y2="316.455879097" /><line stroke="rgb(0%,0%,0%)" x1="305.846115565" x2="314.654851245" y1="316.508090194" y2="315.031251251" /><line stroke="rgb(0%,0%,0%)" x1="314.800223062" x2="314.654851245" y1="315.062308977" y2="315.031251251" /><line stroke="rgb(0%,0%,0%)" x1="315.045578625" x2="314.800223062" y1="315.076397094" y2="315.062308977" /><line stroke="rgb(0%,0%,0%)" x1="235.584373986" x2="233.925501963" y1="330.895051908" y2="330.904918024" /><line stroke="rgb(0%,0%,0%)" x1="243.569268609" x2="237.376167716" y1="325.731144673" y2="329.338374993" /><line stroke="rgb(0%,0%,0%)" x1="235.584373986" x2="237.376167716" y1="330.895051908" y2="329.338374993" /><line stroke="rgb(0%,0%,0%)" x1="245.470173166" x2="252.520362597" y1="323.621159641" y2="320.561562772" /><line stroke="rgb(0%,0%,0%)" x1="253.018976261" x2="252.520362597" y1="320.371402851" y2="320.561562772" /><line stroke="rgb(0%,0%,0%)" x1="265.469749316" x2="254.593438085" y1="316.312824754" y2="319.719808925" /><line stroke="rgb(0%,0%,0%)" x1="254.593438085" x2="253.018976261" y1="319.719808925" y2="320.371402851" /><line stroke="rgb(0%,0%,0%)" x1="269.507806461" x2="265.469749316" y1="315.97009534" y2="316.312824754" /><line stroke="rgb(0%,0%,0%)" x1="269.507806461" x2="281.398946928" y1="315.97009534" y2="314.938596745" /><line stroke="rgb(0%,0%,0%)" x1="283.056269107" x2="281.398946928" y1="314.776156058" y2="314.938596745" /><line stroke="rgb(0%,0%,0%)" x1="305.628582729" x2="305.245704045" y1="316.455879097" y2="316.459298873" /><line stroke="rgb(0%,0%,0%)" x1="204.589484916" x2="205.564025889" y1="563.615287557" y2="564.573109156" /><line stroke="rgb(0%,0%,0%)" x1="205.564025889" x2="206.483690312" y1="564.573109156" y2="565.863344471" /><line stroke="rgb(0%,0%,0%)" x1="204.589484916" x2="202.26866387" y1="563.615287557" y2="560.935262871" /><line stroke="rgb(0%,0%,0%)" x1="233.849523534" x2="230.159931547" y1="584.271904161" y2="584.626601894" /><line stroke="rgb(0%,0%,0%)" x1="230.159931547" x2="226.941712537" y1="584.626601894" y2="581.875434939" /><line stroke="rgb(0%,0%,0%)" x1="222.623443856" x2="223.803825457" y1="579.576943047" y2="581.149461652" /><line stroke="rgb(0%,0%,0%)" x1="223.803825457" x2="226.941712537" y1="581.149461652" y2="581.875434939" /><line stroke="rgb(0%,0%,0%)" x1="221.234896669" x2="222.623443856" y1="578.186939611" y2="579.576943047" /><line stroke="rgb(0%,0%,0%)" x1="233.925501963" x2="231.8234714" y1="330.904918024" y2="330.406085614" /><line stroke="rgb(0%,0%,0%)" x1="233.849523534" x2="235.471687733" y1="584.271904161" y2="585.633057601" /><line stroke="rgb(0%,0%,0%)" x1="235.471687733" x2="238.391625552" y1="585.633057601" y2="589.000341336" /><line stroke="rgb(0%,0%,0%)" x1="238.391625552" x2="239.544108255" y1="589.000341336" y2="590.069679891" /><line stroke="rgb(0%,0%,0%)" x1="245.470173166" x2="243.569268609" y1="323.621159641" y2="325.731144673" /><line stroke="rgb(0%,0%,0%)" x1="185.517959146" x2="187.792846216" y1="542.654551243" y2="545.104285422" /><line stroke="rgb(0%,0%,0%)" x1="198.174050873" x2="191.755158252" y1="556.604346589" y2="549.170602304" /><line stroke="rgb(0%,0%,0%)" x1="187.792846216" x2="191.755158252" y1="545.104285422" y2="549.170602304" /><line stroke="rgb(0%,0%,0%)" x1="181.202766365" x2="185.517959146" y1="540.451785282" y2="542.654551243" /><line stroke="rgb(0%,0%,0%)" x1="198.174050873" x2="202.26866387" y1="556.604346589" y2="560.935262871" /><line stroke="rgb(0%,0%,0%)" x1="206.483690312" x2="212.827925148" y1="565.863344471" y2="570.783317462" /><line stroke="rgb(0%,0%,0%)" x1="219.09939739" x2="215.443704627" y1="577.630087944" y2="573.144744658" /><line stroke="rgb(0%,0%,0%)" x1="212.827925148" x2="214.187002671" y1="570.783317462" y2="571.971826744" /><line stroke="rgb(0%,0%,0%)" x1="214.187002671" x2="215.443704627" y1="571.971826744" y2="573.144744658" /><line stroke="rgb(0%,0%,0%)" x1="219.09939739" x2="221.234896669" y1="577.630087944" y2="578.186939611" /><line stroke="rgb(0%,0%,0%)" x1="132.75163281" x2="125.61393468" y1="521.506801336" y2="517.249542791" /><line stroke="rgb(0%,0%,0%)" x1="123.998269131" x2="122.61874436" y1="495.618543048" y2="500.071454743" /><line stroke="rgb(0%,0%,0%)" x1="148.929612217" x2="151.669041235" y1="528.80557205" y2="529.25184542" /><line stroke="rgb(0%,0%,0%)" x1="140.121676219" x2="148.929612217" y1="524.243706691" y2="528.80557205" /><line stroke="rgb(0%,0%,0%)" x1="157.591844254" x2="164.307655057" y1="531.755311278" y2="533.391678276" /><line stroke="rgb(0%,0%,0%)" x1="157.591844254" x2="151.669041235" y1="531.755311278" y2="529.25184542" /><line stroke="rgb(0%,0%,0%)" x1="164.307655057" x2="172.015134191" y1="533.391678276" y2="536.859705085" /><line stroke="rgb(0%,0%,0%)" x1="177.343047452" x2="172.015134191" y1="540.168734458" y2="536.859705085" /><line stroke="rgb(0%,0%,0%)" x1="177.343047452" x2="181.202766365" y1="540.168734458" y2="540.451785282" /><line stroke="rgb(0%,0%,0%)" x1="121.837356299" x2="122.833124628" y1="509.408977367" y2="511.854372058" /><line stroke="rgb(0%,0%,0%)" x1="122.833124628" x2="125.61393468" y1="511.854372058" y2="517.249542791" /><line stroke="rgb(0%,0%,0%)" x1="121.837356299" x2="121.952207943" y1="509.408977367" y2="503.139079975" /><line stroke="rgb(0%,0%,0%)" x1="121.970689454" x2="121.952207943" y1="502.115812129" y2="503.139079975" /><line stroke="rgb(0%,0%,0%)" x1="122.61874436" x2="121.970689454" y1="500.071454743" y2="502.115812129" /><line stroke="rgb(0%,0%,0%)" x1="125.365352016" x2="123.998269131" y1="483.049748583" y2="495.618543048" /><line stroke="rgb(0%,0%,0%)" x1="125.365352016" x2="125.291082233" y1="483.049748583" y2="479.385424334" /><line stroke="rgb(0%,0%,0%)" x1="125.776311481" x2="125.291082233" y1="477.334398826" y2="479.385424334" /><line stroke="rgb(0%,0%,0%)" x1="127.878739462" x2="127.219451343" y1="464.736890764" y2="469.161231152" /><line stroke="rgb(0%,0%,0%)" x1="132.75163281" x2="140.121676219" y1="521.506801336" y2="524.243706691" /><line stroke="rgb(0%,0%,0%)" x1="126.436014296" x2="125.776311481" y1="471.833752272" y2="477.334398826" /><line stroke="rgb(0%,0%,0%)" x1="127.219451343" x2="126.436014296" y1="469.161231152" y2="471.833752272" /><line stroke="rgb(0%,0%,0%)" x1="397.94655181" x2="393.693336468" y1="555.4459827" y2="558.514350959" /><line stroke="rgb(0%,0%,0%)" x1="397.94655181" x2="404.758488776" y1="555.4459827" y2="549.966370728" /><line stroke="rgb(0%,0%,0%)" x1="410.54702069" x2="414.430507102" y1="544.744528408" y2="540.559644229" /><line stroke="rgb(0%,0%,0%)" x1="416.499989214" x2="414.430507102" y1="538.307675041" y2="540.559644229" /><line stroke="rgb(0%,0%,0%)" x1="333.290637628" x2="340.17187455" y1="610.43323474" y2="609.978923756" /><line stroke="rgb(0%,0%,0%)" x1="358.14082438" x2="356.908705191" y1="600.921755136" y2="601.860500993" /><line stroke="rgb(0%,0%,0%)" x1="358.14082438" x2="359.298191104" y1="600.921755136" y2="599.713571866" /><line stroke="rgb(0%,0%,0%)" x1="359.298191104" x2="365.009370614" y1="599.713571866" y2="589.728703686" /><line stroke="rgb(0%,0%,0%)" x1="365.407335977" x2="365.009370614" y1="588.050535101" y2="589.728703686" /><line stroke="rgb(0%,0%,0%)" x1="365.407335977" x2="370.06614255" y1="588.050535101" y2="582.496182678" /><line stroke="rgb(0%,0%,0%)" x1="372.089117448" x2="370.06614255" y1="579.989500451" y2="582.496182678" /><line stroke="rgb(0%,0%,0%)" x1="372.089117448" x2="372.55737063" y1="579.989500451" y2="579.284908021" /><line stroke="rgb(0%,0%,0%)" x1="372.55737063" x2="374.412143695" y1="579.284908021" y2="575.979104358" /><line stroke="rgb(0%,0%,0%)" x1="374.666959104" x2="374.412143695" y1="575.627693575" y2="575.979104358" /><line stroke="rgb(0%,0%,0%)" x1="374.666959104" x2="377.951504224" y1="575.627693575" y2="573.974583682" /><line stroke="rgb(0%,0%,0%)" x1="381.206797202" x2="377.951504224" y1="569.916383301" y2="573.974583682" /><line stroke="rgb(0%,0%,0%)" x1="381.206797202" x2="385.838398225" y1="569.916383301" y2="567.119678589" /><line stroke="rgb(0%,0%,0%)" x1="385.838398225" x2="391.695101117" y1="567.119678589" y2="560.043022288" /><line stroke="rgb(0%,0%,0%)" x1="391.695101117" x2="392.18837624" y1="560.043022288" y2="559.631645466" /><line stroke="rgb(0%,0%,0%)" x1="404.758488776" x2="410.54702069" y1="549.966370728" y2="544.744528408" /><line stroke="rgb(0%,0%,0%)" x1="392.18837624" x2="392.924843106" y1="559.631645466" y2="558.994153042" /><line stroke="rgb(0%,0%,0%)" x1="392.924843106" x2="393.693336468" y1="558.994153042" y2="558.514350959" /><line stroke="rgb(0%,0%,0%)" x1="294.810805913" x2="290.441974495" y1="606.829764935" y2="607.449566488" /><line stroke="rgb(0%,0%,0%)" x1="294.810805913" x2="298.188750728" y1="606.829764935" y2="607.141840066" /><line stroke="rgb(0%,0%,0%)" x1="318.639731803" x2="320.918522655" y1="610.697719654" y2="611.124148302" /><line stroke="rgb(0%,0%,0%)" x1="315.151806435" x2="309.981736646" y1="610.840767065" y2="610.370259391" /><line stroke="rgb(0%,0%,0%)" x1="315.151806435" x2="318.639731803" y1="610.840767065" y2="610.697719654" /><line stroke="rgb(0%,0%,0%)" x1="298.188750728" x2="305.938917573" y1="607.141840066" y2="609.91315158" /><line stroke="rgb(0%,0%,0%)" x1="305.938917573" x2="309.981736646" y1="609.91315158" y2="610.370259391" /><line stroke="rgb(0%,0%,0%)" x1="332.153502062" x2="329.961121026" y1="610.78277496" y2="610.897456415" /><line stroke="rgb(0%,0%,0%)" x1="320.918522655" x2="329.961121026" y1="611.124148302" y2="610.897456415" /><line stroke="rgb(0%,0%,0%)" x1="333.290637628" x2="332.153502062" y1="610.43323474" y2="610.78277496" /><line stroke="rgb(0%,0%,0%)" x1="340.17187455" x2="344.460863712" y1="609.978923756" y2="609.372425473" /><line stroke="rgb(0%,0%,0%)" x1="344.460863712" x2="345.108259512" y1="609.372425473" y2="609.062828931" /><line stroke="rgb(0%,0%,0%)" x1="345.108259512" x2="345.737334265" y1="609.062828931" y2="608.755802282" /><line stroke="rgb(0%,0%,0%)" x1="345.737334265" x2="346.613564999" y1="608.755802282" y2="608.496971604" /><line stroke="rgb(0%,0%,0%)" x1="350.821949843" x2="346.613564999" y1="606.400816782" y2="608.496971604" /><line stroke="rgb(0%,0%,0%)" x1="350.821949843" x2="356.908705191" y1="606.400816782" y2="601.860500993" /><line stroke="rgb(0%,0%,0%)" x1="241.604990893" x2="239.544108255" y1="591.845441965" y2="590.069679891" /><line stroke="rgb(0%,0%,0%)" x1="254.886981996" x2="250.718383324" y1="600.217822942" y2="598.451297313" /><line stroke="rgb(0%,0%,0%)" x1="254.886981996" x2="256.05940635" y1="600.217822942" y2="601.284038235" /><line stroke="rgb(0%,0%,0%)" x1="243.398887313" x2="250.718383324" y1="593.424975545" y2="598.451297313" /><line stroke="rgb(0%,0%,0%)" x1="241.604990893" x2="243.398887313" y1="591.845441965" y2="593.424975545" /><line stroke="rgb(0%,0%,0%)" x1="269.791119207" x2="265.907254192" y1="606.254452815" y2="605.119751678" /><line stroke="rgb(0%,0%,0%)" x1="272.681701198" x2="283.054664819" y1="605.669865841" y2="607.25509007" /><line stroke="rgb(0%,0%,0%)" x1="269.791119207" x2="272.681701198" y1="606.254452815" y2="605.669865841" /><line stroke="rgb(0%,0%,0%)" x1="256.05940635" x2="259.563418818" y1="601.284038235" y2="602.3812202" /><line stroke="rgb(0%,0%,0%)" x1="259.563418818" x2="265.907254192" y1="602.3812202" y2="605.119751678" /><line stroke="rgb(0%,0%,0%)" x1="283.054664819" x2="285.604397083" y1="607.25509007" y2="607.278891731" /><line stroke="rgb(0%,0%,0%)" x1="285.604397083" x2="290.441974495" y1="607.278891731" y2="607.449566488" /><line stroke="rgb(0%,0%,0%)" x1="128.613264886" x2="127.878739462" y1="457.914048861" y2="464.736890764" /></svg>