<?xml version="1.0" encoding="utf-8" ?>
<svg baseProfile="full" height="100%" version="1.1" viewBox="0.5 0.5 685.793960571 941.299331665" width="100%" xmlns="http://www.w3.org/2000/svg" xmlns:ev="http://www.w3.org/2001/xml-events" xmlns:xlink="http://www.w3.org/1999/xlink"><defs /><line stroke="rgb(0%,0%,0%)" x1="443.052278103" x2="443.224246932" y1="456.451603304" y2="451.124923159" /><line stroke="rgb(0%,0%,0%)" x1="443.224246932" x2="440.701438107" y1="451.124923159" y2="439.056419726" /><line stroke="rgb(0%,0%,0%)" x1="440.701438107" x2="438.926033328" y1="439.056419726" y2="433.548441922" /><line stroke="rgb(0%,0%,0%)" x1="437.278710719" x2="438.926033328" y1="430.431830791" y2="433.548441922" /><line stroke="rgb(0%,0%,0%)" x1="426.834134586" x2="424.192397036" y1="410.769115042" y2="408.355346333" /><line stroke="rgb(0%,0%,0%)" x1="411.547289581" x2="424.192397036" y1="397.603327465" y2="408.355346333" /><line stroke="rgb(0%,0%,0%)" x1="411.547289581" x2="409.528111266" y1="397.603327465" y2="396.184618677" /><line stroke="rgb(0%,0%,0%)" x1="437.278710719" x2="431.611860692" y1="430.431830791" y2="420.699096117" /><line stroke="rgb(0%,0%,0%)" x1="431.611860692" x2="426.834134586" y1="420.699096117" y2="410.769115042" /><line stroke="rgb(0%,0%,0%)" x1="442.490579615" x2="443.052278103" y1="464.860720813" y2="456.451603304" /><line stroke="rgb(0%,0%,0%)" x1="409.528111266" x2="409.406963933" y1="396.184618677" y2="395.986975299" /><line stroke="rgb(0%,0%,0%)" x1="442.326270808" x2="442.490579615" y1="465.862465483" y2="464.860720813" /><line stroke="rgb(0%,0%,0%)" x1="226.13100535" x2="223.412220722" y1="334.392311759" y2="335.879886649" /><line stroke="rgb(0%,0%,0%)" x1="226.13100535" x2="229.575578325" y1="334.392311759" y2="333.463354707" /><line stroke="rgb(0%,0%,0%)" x1="206.212000004" x2="212.896289884" y1="347.871521579" y2="342.543754368" /><line stroke="rgb(0%,0%,0%)" x1="215.117518485" x2="212.896289884" y1="341.533763487" y2="342.543754368" /><line stroke="rgb(0%,0%,0%)" x1="217.271254543" x2="215.117518485" y1="339.675559066" y2="341.533763487" /><line stroke="rgb(0%,0%,0%)" x1="220.719314427" x2="217.271254543" y1="338.635993905" y2="339.675559066" /><line stroke="rgb(0%,0%,0%)" x1="223.412220722" x2="220.719314427" y1="335.879886649" y2="338.635993905" /><line stroke="rgb(0%,0%,0%)" x1="232.312914269" x2="234.592468162" y1="332.981310242" y2="333.537933929" /><line stroke="rgb(0%,0%,0%)" x1="232.312914269" x2="231.385497279" y1="332.981310242" y2="333.600116167" /><line stroke="rgb(0%,0%,0%)" x1="231.385497279" x2="229.575578325" y1="333.600116167" y2="333.463354707" /><line stroke="rgb(0%,0%,0%)" x1="152.362283372" x2="155.351877034" y1="375.629743592" y2="374.761269977" /><line stroke="rgb(0%,0%,0%)" x1="186.937159163" x2="182.539382207" y1="362.888782513" y2="363.898335765" /><line stroke="rgb(0%,0%,0%)" x1="186.937159163" x2="190.852052512" y1="362.888782513" y2="360.034313335" /><line stroke="rgb(0%,0%,0%)" x1="192.787486604" x2="190.852052512" y1="358.189367585" y2="360.034313335" /><line stroke="rgb(0%,0%,0%)" x1="196.752412084" x2="192.787486604" y1="356.671354836" y2="358.189367585" /><line stroke="rgb(0%,0%,0%)" x1="200.257879412" x2="196.752412084" y1="353.8407397" y2="356.671354836" /><line stroke="rgb(0%,0%,0%)" x1="202.376207308" x2="200.257879412" y1="351.830858494" y2="353.8407397" /><line stroke="rgb(0%,0%,0%)" x1="206.212000004" x2="202.376207308" y1="347.871521579" y2="351.830858494" /><line stroke="rgb(0%,0%,0%)" x1="125.331091287" x2="125.623084235" y1="430.572267951" y2="431.320888887" /><line stroke="rgb(0%,0%,0%)" x1="125.331091287" x2="124.556861844" y1="430.572267951" y2="429.33928689" /><line stroke="rgb(0%,0%,0%)" x1="122.066482441" x2="120.720893914" y1="408.583125673" y2="409.822836728" /><line stroke="rgb(0%,0%,0%)" x1="122.066482441" x2="123.731947101" y1="408.583125673" y2="406.217132243" /><line stroke="rgb(0%,0%,0%)" x1="131.155182589" x2="131.155325347" y1="456.146070397" y2="456.139891104" /><line stroke="rgb(0%,0%,0%)" x1="125.623084235" x2="126.351569006" y1="431.320888887" y2="435.302008108" /><line stroke="rgb(0%,0%,0%)" x1="152.362283372" x2="150.042158103" y1="375.629743592" y2="377.779710377" /><line stroke="rgb(0%,0%,0%)" x1="160.281133441" x2="155.351877034" y1="374.004604663" y2="374.761269977" /><line stroke="rgb(0%,0%,0%)" x1="165.58151173" x2="160.281133441" y1="373.405521285" y2="374.004604663" /><line stroke="rgb(0%,0%,0%)" x1="168.232137931" x2="176.053909421" y1="373.21343485" y2="367.273665626" /><line stroke="rgb(0%,0%,0%)" x1="180.865852732" x2="176.053909421" y1="364.508498275" y2="367.273665626" /><line stroke="rgb(0%,0%,0%)" x1="168.232137931" x2="165.58151173" y1="373.21343485" y2="373.405521285" /><line stroke="rgb(0%,0%,0%)" x1="182.539382207" x2="180.865852732" y1="363.898335765" y2="364.508498275" /><line stroke="rgb(0%,0%,0%)" x1="128.334148507" x2="128.299579198" y1="442.856081232" y2="444.277732023" /><line stroke="rgb(0%,0%,0%)" x1="126.351569006" x2="128.334148507" y1="435.302008108" y2="442.856081232" /><line stroke="rgb(0%,0%,0%)" x1="121.008336272" x2="124.556861844" y1="423.38774757" y2="429.33928689" /><line stroke="rgb(0%,0%,0%)" x1="121.008336272" x2="119.229593386" y1="423.38774757" y2="418.157277479" /><line stroke="rgb(0%,0%,0%)" x1="120.720893914" x2="120.219902989" y1="409.822836728" y2="412.635641452" /><line stroke="rgb(0%,0%,0%)" x1="128.362522106" x2="123.731947101" y1="402.177181853" y2="406.217132243" /><line stroke="rgb(0%,0%,0%)" x1="131.155325347" x2="131.151584897" y1="456.139891104" y2="456.119823418" /><line stroke="rgb(0%,0%,0%)" x1="129.139531264" x2="131.151584897" y1="446.783356146" y2="456.119823418" /><line stroke="rgb(0%,0%,0%)" x1="128.299579198" x2="129.139531264" y1="444.277732023" y2="446.783356146" /><line stroke="rgb(0%,0%,0%)" x1="133.116333433" x2="128.362522106" y1="397.813082733" y2="402.177181853" /><line stroke="rgb(0%,0%,0%)" x1="133.116333433" x2="135.007132753" y1="397.813082733" y2="394.835232793" /><line stroke="rgb(0%,0%,0%)" x1="140.086040534" x2="135.007132753" y1="387.169451788" y2="394.835232793" /><line stroke="rgb(0%,0%,0%)" x1="144.454404402" x2="140.086040534" y1="383.157655036" y2="387.169451788" /><line stroke="rgb(0%,0%,0%)" x1="150.042158103" x2="144.454404402" y1="377.779710377" y2="383.157655036" /><line stroke="rgb(0%,0%,0%)" x1="118.888255782" x2="119.229593386" y1="416.615044904" y2="418.157277479" /><line stroke="rgb(0%,0%,0%)" x1="120.219902989" x2="118.888255782" y1="412.635641452" y2="416.615044904" /><line stroke="rgb(0%,0%,0%)" x1="426.723945924" x2="425.454450693" y1="525.793846768" y2="526.620762138" /><line stroke="rgb(0%,0%,0%)" x1="428.622235105" x2="426.723945924" y1="523.494918547" y2="525.793846768" /><line stroke="rgb(0%,0%,0%)" x1="428.622235105" x2="430.407775207" y1="523.494918547" y2="521.769613746" /><line stroke="rgb(0%,0%,0%)" x1="444.438103727" x2="444.539588832" y1="483.312803846" y2="482.248459423" /><line stroke="rgb(0%,0%,0%)" x1="415.976299149" x2="415.559098357" y1="535.884340715" y2="536.499003764" /><line stroke="rgb(0%,0%,0%)" x1="415.976299149" x2="425.454450693" y1="535.884340715" y2="526.620762138" /><line stroke="rgb(0%,0%,0%)" x1="430.407775207" x2="434.052155436" y1="521.769613746" y2="512.993842049" /><line stroke="rgb(0%,0%,0%)" x1="434.052155436" x2="440.436224599" y1="512.993842049" y2="500.6014289" /><line stroke="rgb(0%,0%,0%)" x1="440.436224599" x2="442.463983311" y1="500.6014289" y2="492.740091746" /><line stroke="rgb(0%,0%,0%)" x1="443.126271214" x2="442.463983311" y1="490.316453658" y2="492.740091746" /><line stroke="rgb(0%,0%,0%)" x1="443.126271214" x2="444.438103727" y1="490.316453658" y2="483.312803846" /><line stroke="rgb(0%,0%,0%)" x1="444.539588832" x2="444.290955439" y1="482.248459423" y2="479.940091806" /><line stroke="rgb(0%,0%,0%)" x1="375.421715715" x2="376.697955599" y1="364.71586441" y2="366.162978325" /><line stroke="rgb(0%,0%,0%)" x1="375.421715715" x2="368.734981401" y1="364.71586441" y2="360.629698542" /><line stroke="rgb(0%,0%,0%)" x1="368.734981401" x2="367.750621323" y1="360.629698542" y2="359.263695107" /><line stroke="rgb(0%,0%,0%)" x1="444.290955439" x2="443.152368723" y1="479.940091806" y2="469.164089223" /><line stroke="rgb(0%,0%,0%)" x1="443.152368723" x2="442.326270808" y1="469.164089223" y2="465.862465483" /><line stroke="rgb(0%,0%,0%)" x1="338.730908231" x2="338.225054816" y1="322.804302428" y2="322.345397993" /><line stroke="rgb(0%,0%,0%)" x1="350.110344424" x2="351.072652835" y1="330.982118466" y2="331.808785754" /><line stroke="rgb(0%,0%,0%)" x1="350.110344424" x2="344.864388319" y1="330.982118466" y2="325.795207705" /><line stroke="rgb(0%,0%,0%)" x1="344.864388319" x2="341.13076246" y1="325.795207705" y2="323.412168149" /><line stroke="rgb(0%,0%,0%)" x1="338.730908231" x2="341.13076246" y1="322.804302428" y2="323.412168149" /><line stroke="rgb(0%,0%,0%)" x1="367.750621323" x2="364.553180106" y1="359.263695107" y2="354.361426424" /><line stroke="rgb(0%,0%,0%)" x1="361.319400149" x2="364.553180106" y1="349.436814218" y2="354.361426424" /><line stroke="rgb(0%,0%,0%)" x1="361.319400149" x2="358.350883459" y1="349.436814218" y2="346.0466797" /><line stroke="rgb(0%,0%,0%)" x1="358.350883459" x2="354.635569782" y1="346.0466797" y2="339.908720086" /><line stroke="rgb(0%,0%,0%)" x1="351.072652835" x2="352.912555743" y1="331.808785754" y2="335.294610775" /><line stroke="rgb(0%,0%,0%)" x1="395.221848123" x2="385.801085745" y1="382.69024916" y2="375.87046689" /><line stroke="rgb(0%,0%,0%)" x1="385.801085745" x2="376.697955599" y1="375.87046689" y2="366.162978325" /><line stroke="rgb(0%,0%,0%)" x1="409.406963933" x2="409.147672721" y1="395.986975299" y2="395.891463832" /><line stroke="rgb(0%,0%,0%)" x1="409.147672721" x2="408.847598669" y1="395.891463832" y2="395.588304383" /><line stroke="rgb(0%,0%,0%)" x1="408.847598669" x2="408.348647603" y1="395.588304383" y2="395.160730014" /><line stroke="rgb(0%,0%,0%)" x1="395.221848123" x2="408.348647603" y1="382.69024916" y2="395.160730014" /><line stroke="rgb(0%,0%,0%)" x1="329.223340201" x2="320.136496354" y1="319.681785345" y2="317.786454298" /><line stroke="rgb(0%,0%,0%)" x1="338.225054816" x2="334.2282814" y1="322.345397993" y2="320.654418888" /><line stroke="rgb(0%,0%,0%)" x1="329.223340201" x2="334.2282814" y1="319.681785345" y2="320.654418888" /><line stroke="rgb(0%,0%,0%)" x1="354.635569782" x2="352.912555743" y1="339.908720086" y2="335.294610775" /><line stroke="rgb(0%,0%,0%)" x1="289.585938364" x2="282.45370715" y1="319.730975749" y2="317.709225073" /><line stroke="rgb(0%,0%,0%)" x1="282.45370715" x2="281.803995586" y1="317.709225073" y2="317.2371599" /><line stroke="rgb(0%,0%,0%)" x1="297.290903802" x2="294.565718129" y1="318.42503012" y2="319.02157155" /><line stroke="rgb(0%,0%,0%)" x1="302.609569841" x2="299.898794298" y1="318.031300061" y2="318.642577609" /><line stroke="rgb(0%,0%,0%)" x1="297.290903802" x2="299.898794298" y1="318.42503012" y2="318.642577609" /><line stroke="rgb(0%,0%,0%)" x1="289.585938364" x2="294.565718129" y1="319.730975749" y2="319.02157155" /><line stroke="rgb(0%,0%,0%)" x1="306.812835308" x2="305.289966033" y1="318.372870576" y2="318.007359432" /><line stroke="rgb(0%,0%,0%)" x1="306.812835308" x2="314.319469005" y1="318.372870576" y2="317.114337073" /><line stroke="rgb(0%,0%,0%)" x1="316.483719267" x2="314.319469005" y1="317.576714806" y2="317.114337073" /><line stroke="rgb(0%,0%,0%)" x1="320.136496354" x2="316.483719267" y1="317.786454298" y2="317.576714806" /><line stroke="rgb(0%,0%,0%)" x1="242.795445556" x2="234.672893503" y1="328.722636265" y2="333.453693702" /><line stroke="rgb(0%,0%,0%)" x1="245.460998616" x2="249.598309917" y1="325.763899047" y2="323.96841471" /><line stroke="rgb(0%,0%,0%)" x1="252.475201708" x2="249.598309917" y1="322.871233553" y2="323.96841471" /><line stroke="rgb(0%,0%,0%)" x1="261.828320412" x2="261.559502086" y1="319.027472273" y2="319.111679112" /><line stroke="rgb(0%,0%,0%)" x1="261.559502086" x2="252.475201708" y1="319.111679112" y2="322.871233553" /><line stroke="rgb(0%,0%,0%)" x1="268.927051514" x2="261.828320412" y1="318.424968677" y2="319.027472273" /><line stroke="rgb(0%,0%,0%)" x1="268.927051514" x2="275.521476649" y1="318.424968677" y2="317.852934373" /><line stroke="rgb(0%,0%,0%)" x1="281.803995586" x2="275.521476649" y1="317.2371599" y2="317.852934373" /><line stroke="rgb(0%,0%,0%)" x1="305.289966033" x2="302.609569841" y1="318.007359432" y2="318.031300061" /><line stroke="rgb(0%,0%,0%)" x1="232.98921737" x2="231.526271038" y1="580.166574745" y2="580.307214617" /><line stroke="rgb(0%,0%,0%)" x1="231.526271038" x2="230.250227044" y1="580.307214617" y2="579.216359688" /><line stroke="rgb(0%,0%,0%)" x1="221.616521161" x2="223.976510389" y1="574.620883021" y2="577.764889134" /><line stroke="rgb(0%,0%,0%)" x1="223.976510389" x2="230.250227044" y1="577.764889134" y2="579.216359688" /><line stroke="rgb(0%,0%,0%)" x1="221.582201903" x2="221.616521161" y1="574.586527771" y2="574.620883021" /><line stroke="rgb(0%,0%,0%)" x1="232.98921737" x2="233.632415635" y1="580.166574745" y2="580.706280609" /><line stroke="rgb(0%,0%,0%)" x1="233.632415635" x2="237.980200738" y1="580.706280609" y2="585.720163427" /><line stroke="rgb(0%,0%,0%)" x1="237.980200738" x2="239.696246571" y1="585.720163427" y2="587.312407689" /><line stroke="rgb(0%,0%,0%)" x1="234.672893503" x2="234.592468162" y1="333.453693702" y2="333.537933929" /><line stroke="rgb(0%,0%,0%)" x1="245.460998616" x2="242.795445556" y1="325.763899047" y2="328.722636265" /><line stroke="rgb(0%,0%,0%)" x1="200.266119329" x2="197.002512952" y1="555.743126373" y2="551.96353125" /><line stroke="rgb(0%,0%,0%)" x1="197.002512952" x2="185.465248663" y1="551.96353125" y2="540.123430795" /><line stroke="rgb(0%,0%,0%)" x1="200.266119329" x2="204.051922621" y1="555.743126373" y2="559.747411304" /><line stroke="rgb(0%,0%,0%)" x1="183.645867679" x2="185.465248663" y1="538.370752061" y2="540.123430795" /><line stroke="rgb(0%,0%,0%)" x1="218.710828589" x2="216.445828422" y1="573.837789979" y2="571.058753569" /><line stroke="rgb(0%,0%,0%)" x1="208.407706154" x2="204.051922621" y1="563.556531143" y2="559.747411304" /><line stroke="rgb(0%,0%,0%)" x1="208.407706154" x2="216.445828422" y1="563.556531143" y2="571.058753569" /><line stroke="rgb(0%,0%,0%)" x1="218.710828589" x2="221.582201903" y1="573.837789979" y2="574.586527771" /><line stroke="rgb(0%,0%,0%)" x1="130.7014693" x2="129.160507852" y1="519.65358976" y2="518.734487947" /><line stroke="rgb(0%,0%,0%)" x1="148.418462765" x2="157.455428285" y1="526.847500498" y2="528.319689423" /><line stroke="rgb(0%,0%,0%)" x1="144.225216245" x2="148.418462765" y1="524.675706102" y2="526.847500498" /><line stroke="rgb(0%,0%,0%)" x1="159.763833387" x2="162.381312286" y1="529.295412124" y2="529.933184125" /><line stroke="rgb(0%,0%,0%)" x1="159.763833387" x2="157.455428285" y1="529.295412124" y2="528.319689423" /><line stroke="rgb(0%,0%,0%)" x1="162.381312286" x2="174.337706117" y1="529.933184125" y2="535.313035775" /><line stroke="rgb(0%,0%,0%)" x1="177.463709104" x2="174.337706117" y1="537.254515526" y2="535.313035775" /><line stroke="rgb(0%,0%,0%)" x1="177.463709104" x2="182.618119854" y1="537.254515526" y2="537.632512017" /><line stroke="rgb(0%,0%,0%)" x1="183.02013716" x2="183.645867679" y1="537.865252438" y2="538.370752061" /><line stroke="rgb(0%,0%,0%)" x1="182.618119854" x2="183.02013716" y1="537.632512017" y2="537.865252438" /><line stroke="rgb(0%,0%,0%)" x1="129.160507852" x2="127.09984318" y1="518.734487947" y2="514.73650264" /><line stroke="rgb(0%,0%,0%)" x1="124.588530259" x2="124.491539441" y1="503.608004871" y2="508.978106296" /><line stroke="rgb(0%,0%,0%)" x1="124.588530259" x2="125.723563946" y1="503.608004871" y2="500.027421684" /><line stroke="rgb(0%,0%,0%)" x1="127.469986582" x2="126.433820441" y1="482.890983645" y2="492.41736965" /><line stroke="rgb(0%,0%,0%)" x1="127.469986582" x2="127.422921687" y1="482.890983645" y2="480.568894808" /><line stroke="rgb(0%,0%,0%)" x1="127.73041233" x2="127.422921687" y1="479.269156272" y2="480.568894808" /><line stroke="rgb(0%,0%,0%)" x1="130.22523551" x2="129.885626675" y1="464.784140225" y2="467.063181875" /><line stroke="rgb(0%,0%,0%)" x1="130.7014693" x2="144.225216245" y1="519.65358976" y2="524.675706102" /><line stroke="rgb(0%,0%,0%)" x1="124.704601629" x2="127.09984318" y1="510.150128625" y2="514.73650264" /><line stroke="rgb(0%,0%,0%)" x1="124.491539441" x2="124.704601629" y1="508.978106296" y2="510.150128625" /><line stroke="rgb(0%,0%,0%)" x1="126.888167416" x2="125.723563946" y1="496.833065213" y2="500.027421684" /><line stroke="rgb(0%,0%,0%)" x1="126.433820441" x2="126.888167416" y1="492.41736965" y2="496.833065213" /><line stroke="rgb(0%,0%,0%)" x1="128.715625897" x2="127.73041233" y1="471.054379128" y2="479.269156272" /><line stroke="rgb(0%,0%,0%)" x1="129.885626675" x2="128.715625897" y1="467.063181875" y2="471.054379128" /><line stroke="rgb(0%,0%,0%)" x1="397.737008951" x2="395.229536667" y1="553.108565676" y2="554.917514377" /><line stroke="rgb(0%,0%,0%)" x1="397.737008951" x2="401.752969058" y1="553.108565676" y2="549.878074379" /><line stroke="rgb(0%,0%,0%)" x1="411.272828485" x2="415.187983321" y1="541.290196558" y2="537.071186166" /><line stroke="rgb(0%,0%,0%)" x1="415.187983321" x2="415.559098357" y1="537.071186166" y2="536.499003764" /><line stroke="rgb(0%,0%,0%)" x1="369.91509141" x2="368.388340627" y1="577.199748517" y2="579.019981183" /><line stroke="rgb(0%,0%,0%)" x1="370.141482791" x2="369.91509141" y1="576.919225386" y2="577.199748517" /><line stroke="rgb(0%,0%,0%)" x1="370.141482791" x2="370.193885065" y1="576.919225386" y2="576.840374357" /><line stroke="rgb(0%,0%,0%)" x1="363.650619382" x2="368.388340627" y1="584.966366384" y2="579.019981183" /><line stroke="rgb(0%,0%,0%)" x1="370.193885065" x2="370.448561707" y1="576.840374357" y2="576.386458462" /><line stroke="rgb(0%,0%,0%)" x1="376.68161561" x2="374.986022935" y1="570.966756799" y2="571.820147732" /><line stroke="rgb(0%,0%,0%)" x1="378.155462309" x2="376.68161561" y1="569.129390616" y2="570.966756799" /><line stroke="rgb(0%,0%,0%)" x1="370.448561707" x2="374.986022935" y1="576.386458462" y2="571.820147732" /><line stroke="rgb(0%,0%,0%)" x1="378.155462309" x2="384.816675409" y1="569.129390616" y2="565.107143024" /><line stroke="rgb(0%,0%,0%)" x1="384.816675409" x2="389.83298585" y1="565.107143024" y2="559.045933237" /><line stroke="rgb(0%,0%,0%)" x1="389.83298585" x2="391.165153388" y1="559.045933237" y2="557.934945023" /><line stroke="rgb(0%,0%,0%)" x1="401.752969058" x2="411.272828485" y1="549.878074379" y2="541.290196558" /><line stroke="rgb(0%,0%,0%)" x1="391.165153388" x2="393.154098717" y1="557.934945023" y2="556.213295837" /><line stroke="rgb(0%,0%,0%)" x1="393.154098717" x2="395.229536667" y1="556.213295837" y2="554.917514377" /><line stroke="rgb(0%,0%,0%)" x1="319.093257826" x2="319.752837264" y1="609.055360939" y2="609.17878761" /><line stroke="rgb(0%,0%,0%)" x1="314.286814322" x2="310.211554737" y1="609.25248365" y2="608.881610337" /><line stroke="rgb(0%,0%,0%)" x1="314.286814322" x2="319.093257826" y1="609.25248365" y2="609.055360939" /><line stroke="rgb(0%,0%,0%)" x1="304.33165084" x2="295.232641504" y1="608.21678959" y2="604.963157785" /><line stroke="rgb(0%,0%,0%)" x1="304.33165084" x2="310.211554737" y1="608.21678959" y2="608.881610337" /><line stroke="rgb(0%,0%,0%)" x1="319.752837264" x2="325.672857021" y1="609.17878761" y2="609.030376678" /><line stroke="rgb(0%,0%,0%)" x1="340.080658564" x2="331.257704603" y1="607.555806965" y2="608.803445097" /><line stroke="rgb(0%,0%,0%)" x1="340.080658564" x2="342.128355733" y1="607.555806965" y2="606.576560631" /><line stroke="rgb(0%,0%,0%)" x1="325.672857021" x2="331.257704603" y1="609.030376678" y2="608.803445097" /><line stroke="rgb(0%,0%,0%)" x1="342.128355733" x2="344.118103874" y1="606.576560631" y2="605.60544281" /><line stroke="rgb(0%,0%,0%)" x1="344.118103874" x2="346.889600374" y1="605.60544281" y2="604.78676767" /><line stroke="rgb(0%,0%,0%)" x1="348.536075254" x2="346.889600374" y1="603.966674834" y2="604.78676767" /><line stroke="rgb(0%,0%,0%)" x1="348.536075254" x2="352.080089504" y1="603.966674834" y2="601.323075259" /><line stroke="rgb(0%,0%,0%)" x1="352.080089504" x2="355.019564761" y1="601.323075259" y2="598.437637839" /><line stroke="rgb(0%,0%,0%)" x1="355.019564761" x2="361.228105988" y1="598.437637839" y2="587.846039745" /><line stroke="rgb(0%,0%,0%)" x1="361.228105988" x2="362.530867671" y1="587.846039745" y2="585.844684017" /><line stroke="rgb(0%,0%,0%)" x1="362.530867671" x2="363.650619382" y1="585.844684017" y2="584.966366384" /><line stroke="rgb(0%,0%,0%)" x1="239.92252954" x2="239.696246571" y1="587.507384689" y2="587.312407689" /><line stroke="rgb(0%,0%,0%)" x1="253.355959869" x2="252.939449241" y1="597.119221847" y2="596.942717281" /><line stroke="rgb(0%,0%,0%)" x1="253.355959869" x2="253.47310408" y1="597.119221847" y2="597.22575405" /><line stroke="rgb(0%,0%,0%)" x1="242.48480323" x2="252.939449241" y1="589.763477789" y2="596.942717281" /><line stroke="rgb(0%,0%,0%)" x1="239.92252954" x2="242.48480323" y1="587.507384689" y2="589.763477789" /><line stroke="rgb(0%,0%,0%)" x1="273.585098817" x2="280.640134351" y1="602.57308438" y2="603.651253905" /><line stroke="rgb(0%,0%,0%)" x1="273.585098817" x2="270.621072718" y1="602.57308438" y2="603.172524581" /><line stroke="rgb(0%,0%,0%)" x1="253.47310408" x2="260.858950771" y1="597.22575405" y2="599.53842213" /><line stroke="rgb(0%,0%,0%)" x1="260.858950771" x2="267.967349416" y1="599.53842213" y2="602.607003249" /><line stroke="rgb(0%,0%,0%)" x1="267.967349416" x2="269.187173027" y1="602.607003249" y2="602.867392701" /><line stroke="rgb(0%,0%,0%)" x1="280.640134351" x2="286.013530529" y1="603.651253905" y2="603.701414371" /><line stroke="rgb(0%,0%,0%)" x1="269.187173027" x2="270.621072718" y1="602.867392701" y2="603.172524581" /><line stroke="rgb(0%,0%,0%)" x1="286.013530529" x2="292.247438832" y1="603.701414371" y2="603.921353132" /><line stroke="rgb(0%,0%,0%)" x1="294.354179623" x2="295.232641504" y1="604.514904956" y2="604.963157785" /><line stroke="rgb(0%,0%,0%)" x1="292.247438832" x2="294.354179623" y1="603.921353132" y2="604.514904956" /><line stroke="rgb(0%,0%,0%)" x1="131.155182589" x2="130.22523551" y1="456.146070397" y2="464.784140225" /></svg>