<?xml version="1.0" encoding="utf-8" ?>
<svg baseProfile="full" height="100%" version="1.1" viewBox="0.5 0.5 685.793960571 941.299331665" width="100%" xmlns="http://www.w3.org/2000/svg" xmlns:ev="http://www.w3.org/2001/xml-events" xmlns:xlink="http://www.w3.org/1999/xlink"><defs /><line stroke="rgb(0%,0%,0%)" x1="435.644528061" x2="436.334202303" y1="432.941500335" y2="436.240734064" /><line stroke="rgb(0%,0%,0%)" x1="435.644528061" x2="435.560391739" y1="432.941500335" y2="432.68047761" /><line stroke="rgb(0%,0%,0%)" x1="435.482325223" x2="435.560391739" y1="432.532781603" y2="432.68047761" /><line stroke="rgb(0%,0%,0%)" x1="424.103419358" x2="418.047499601" y1="411.764046359" y2="406.230722423" /><line stroke="rgb(0%,0%,0%)" x1="410.39602973" x2="418.047499601" y1="399.724747783" y2="406.230722423" /><line stroke="rgb(0%,0%,0%)" x1="410.39602973" x2="409.174238449" y1="399.724747783" y2="398.866296593" /><line stroke="rgb(0%,0%,0%)" x1="435.482325223" x2="427.49939984" y1="432.532781603" y2="418.822220302" /><line stroke="rgb(0%,0%,0%)" x1="427.49939984" x2="424.103419358" y1="418.822220302" y2="411.764046359" /><line stroke="rgb(0%,0%,0%)" x1="438.876249166" x2="439.632517427" y1="464.342895191" y2="453.020898072" /><line stroke="rgb(0%,0%,0%)" x1="439.632517427" x2="439.738220734" y1="453.020898072" y2="452.117523665" /><line stroke="rgb(0%,0%,0%)" x1="439.738220734" x2="439.564773605" y1="452.117523665" y2="451.644898467" /><line stroke="rgb(0%,0%,0%)" x1="439.564773605" x2="436.334202303" y1="451.644898467" y2="436.240734064" /><line stroke="rgb(0%,0%,0%)" x1="409.174238449" x2="408.360855344" y1="398.866296593" y2="397.539319099" /><line stroke="rgb(0%,0%,0%)" x1="438.614543997" x2="438.876249166" y1="465.938438149" y2="464.342895191" /><line stroke="rgb(0%,0%,0%)" x1="214.967570107" x2="211.091579188" y1="346.437015846" y2="348.199425838" /><line stroke="rgb(0%,0%,0%)" x1="220.39946433" x2="214.967570107" y1="341.750475998" y2="346.437015846" /><line stroke="rgb(0%,0%,0%)" x1="221.270030993" x2="220.39946433" y1="341.488006434" y2="341.750475998" /><line stroke="rgb(0%,0%,0%)" x1="221.270030993" x2="223.27578199" y1="341.488006434" y2="339.435181615" /><line stroke="rgb(0%,0%,0%)" x1="233.868175331" x2="235.253609694" y1="336.591834018" y2="336.930130729" /><line stroke="rgb(0%,0%,0%)" x1="224.896166727" x2="223.27578199" y1="338.651576832" y2="339.435181615" /><line stroke="rgb(0%,0%,0%)" x1="233.868175331" x2="230.182533879" y1="336.591834018" y2="339.05102637" /><line stroke="rgb(0%,0%,0%)" x1="230.182533879" x2="224.896166727" y1="339.05102637" y2="338.651576832" /><line stroke="rgb(0%,0%,0%)" x1="187.853698267" x2="186.728067831" y1="368.529055266" y2="368.78745488" /><line stroke="rgb(0%,0%,0%)" x1="187.853698267" x2="188.855732511" y1="368.529055266" y2="367.798441272" /><line stroke="rgb(0%,0%,0%)" x1="193.14428822" x2="188.855732511" y1="363.710390606" y2="367.798441272" /><line stroke="rgb(0%,0%,0%)" x1="194.327311044" x2="193.14428822" y1="363.257458076" y2="363.710390606" /><line stroke="rgb(0%,0%,0%)" x1="200.689748276" x2="194.327311044" y1="358.119880274" y2="363.257458076" /><line stroke="rgb(0%,0%,0%)" x1="204.534521887" x2="200.689748276" y1="354.471937841" y2="358.119880274" /><line stroke="rgb(0%,0%,0%)" x1="204.534521887" x2="209.697976002" y1="354.471937841" y2="349.142177838" /><line stroke="rgb(0%,0%,0%)" x1="211.091579188" x2="209.697976002" y1="348.199425838" y2="349.142177838" /><line stroke="rgb(0%,0%,0%)" x1="165.720594355" x2="164.264684023" y1="379.235792364" y2="379.234823169" /><line stroke="rgb(0%,0%,0%)" x1="156.206003145" x2="152.331424367" y1="380.145667924" y2="380.74043499" /><line stroke="rgb(0%,0%,0%)" x1="156.206003145" x2="164.264684023" y1="380.145667924" y2="379.234823169" /><line stroke="rgb(0%,0%,0%)" x1="166.756894683" x2="165.720594355" y1="378.631366326" y2="379.235792364" /><line stroke="rgb(0%,0%,0%)" x1="180.92223759" x2="168.030462398" y1="370.904238603" y2="378.312454692" /><line stroke="rgb(0%,0%,0%)" x1="168.030462398" x2="166.756894683" y1="378.312454692" y2="378.631366326" /><line stroke="rgb(0%,0%,0%)" x1="186.728067831" x2="180.92223759" y1="368.78745488" y2="370.904238603" /><line stroke="rgb(0%,0%,0%)" x1="130.52510613" x2="130.453897329" y1="439.484314717" y2="442.412751819" /><line stroke="rgb(0%,0%,0%)" x1="130.52510613" x2="129.603824182" y1="439.484314717" y2="435.974023605" /><line stroke="rgb(0%,0%,0%)" x1="123.036207925" x2="123.110902038" y1="422.33658372" y2="422.46185968" /><line stroke="rgb(0%,0%,0%)" x1="123.036207925" x2="123.019015365" y1="422.33658372" y2="422.286028256" /><line stroke="rgb(0%,0%,0%)" x1="122.394224395" x2="123.090636259" y1="413.338469458" y2="409.428477309" /><line stroke="rgb(0%,0%,0%)" x1="129.816962761" x2="123.778637206" y1="403.036851123" y2="408.30499507" /><line stroke="rgb(0%,0%,0%)" x1="134.659525453" x2="134.190285275" y1="455.061980206" y2="457.006321701" /><line stroke="rgb(0%,0%,0%)" x1="132.184101968" x2="133.017790468" y1="447.574049296" y2="451.442587026" /><line stroke="rgb(0%,0%,0%)" x1="133.017790468" x2="134.659525453" y1="451.442587026" y2="455.061980206" /><line stroke="rgb(0%,0%,0%)" x1="130.453897329" x2="132.184101968" y1="442.412751819" y2="447.574049296" /><line stroke="rgb(0%,0%,0%)" x1="137.349176889" x2="129.816962761" y1="396.122119598" y2="403.036851123" /><line stroke="rgb(0%,0%,0%)" x1="137.349176889" x2="137.988004911" y1="396.122119598" y2="395.11601918" /><line stroke="rgb(0%,0%,0%)" x1="139.703971579" x2="137.988004911" y1="392.526048018" y2="395.11601918" /><line stroke="rgb(0%,0%,0%)" x1="148.04630955" x2="139.703971579" y1="384.864652265" y2="392.526048018" /><line stroke="rgb(0%,0%,0%)" x1="148.04630955" x2="152.331424367" y1="384.864652265" y2="380.74043499" /><line stroke="rgb(0%,0%,0%)" x1="121.578318426" x2="123.019015365" y1="415.77666706" y2="422.286028256" /><line stroke="rgb(0%,0%,0%)" x1="122.394224395" x2="121.578318426" y1="413.338469458" y2="415.77666706" /><line stroke="rgb(0%,0%,0%)" x1="127.702558778" x2="129.603824182" y1="429.334936518" y2="435.974023605" /><line stroke="rgb(0%,0%,0%)" x1="123.110902038" x2="127.702558778" y1="422.46185968" y2="429.334936518" /><line stroke="rgb(0%,0%,0%)" x1="123.393521674" x2="123.090636259" y1="408.737537696" y2="409.428477309" /><line stroke="rgb(0%,0%,0%)" x1="123.778637206" x2="123.393521674" y1="408.30499507" y2="408.737537696" /><line stroke="rgb(0%,0%,0%)" x1="436.619875271" x2="427.887253364" y1="502.804782576" y2="519.756080533" /><line stroke="rgb(0%,0%,0%)" x1="436.619875271" x2="439.792606153" y1="502.804782576" y2="490.504548324" /><line stroke="rgb(0%,0%,0%)" x1="439.928329853" x2="439.792606153" y1="490.007868367" y2="490.504548324" /><line stroke="rgb(0%,0%,0%)" x1="439.928329853" x2="440.3180285" y1="490.007868367" y2="487.927333822" /><line stroke="rgb(0%,0%,0%)" x1="413.962873411" x2="426.037340371" y1="534.650904154" y2="522.627255007" /><line stroke="rgb(0%,0%,0%)" x1="426.037340371" x2="426.735874348" y1="522.627255007" y2="521.915228901" /><line stroke="rgb(0%,0%,0%)" x1="426.735874348" x2="426.822850451" y1="521.915228901" y2="521.804298708" /><line stroke="rgb(0%,0%,0%)" x1="426.822850451" x2="427.887253364" y1="521.804298708" y2="519.756080533" /><line stroke="rgb(0%,0%,0%)" x1="440.3180285" x2="441.063937517" y1="487.927333822" y2="481.926088801" /><line stroke="rgb(0%,0%,0%)" x1="439.930323107" x2="441.063937517" y1="471.197145946" y2="481.926088801" /><line stroke="rgb(0%,0%,0%)" x1="439.930323107" x2="438.614543997" y1="471.197145946" y2="465.938438149" /><line stroke="rgb(0%,0%,0%)" x1="337.131747661" x2="337.088175166" y1="325.21690453" y2="325.17737606" /><line stroke="rgb(0%,0%,0%)" x1="342.382594127" x2="344.248934912" y1="328.488752142" y2="330.334086511" /><line stroke="rgb(0%,0%,0%)" x1="342.382594127" x2="337.338462953" y1="328.488752142" y2="325.269264018" /><line stroke="rgb(0%,0%,0%)" x1="337.131747661" x2="337.338462953" y1="325.21690453" y2="325.269264018" /><line stroke="rgb(0%,0%,0%)" x1="361.589992306" x2="362.76755882" y1="356.38370665" y2="358.189133882" /><line stroke="rgb(0%,0%,0%)" x1="360.766773498" x2="361.589992306" y1="355.130055059" y2="356.38370665" /><line stroke="rgb(0%,0%,0%)" x1="360.766773498" x2="355.225296967" y1="355.130055059" y2="348.801523732" /><line stroke="rgb(0%,0%,0%)" x1="355.225296967" x2="348.289737663" y1="348.801523732" y2="337.343491758" /><line stroke="rgb(0%,0%,0%)" x1="393.015647944" x2="387.102249511" y1="384.164206737" y2="379.883439622" /><line stroke="rgb(0%,0%,0%)" x1="387.102249511" x2="380.351755206" y1="379.883439622" y2="372.684778806" /><line stroke="rgb(0%,0%,0%)" x1="380.351755206" x2="373.78103584" y1="372.684778806" y2="367.191981242" /><line stroke="rgb(0%,0%,0%)" x1="408.360855344" x2="406.619974345" y1="397.539319099" y2="396.898055181" /><line stroke="rgb(0%,0%,0%)" x1="406.619974345" x2="404.605277391" y1="396.898055181" y2="394.862642876" /><line stroke="rgb(0%,0%,0%)" x1="404.605277391" x2="401.255320314" y1="394.862642876" y2="391.991908889" /><line stroke="rgb(0%,0%,0%)" x1="393.015647944" x2="401.255320314" y1="384.164206737" y2="391.991908889" /><line stroke="rgb(0%,0%,0%)" x1="328.459319297" x2="326.92438666" y1="321.720019672" y2="321.399863902" /><line stroke="rgb(0%,0%,0%)" x1="337.088175166" x2="329.304744587" y1="325.17737606" y2="321.884315107" /><line stroke="rgb(0%,0%,0%)" x1="328.459319297" x2="329.304744587" y1="321.720019672" y2="321.884315107" /><line stroke="rgb(0%,0%,0%)" x1="348.289737663" x2="347.649934656" y1="337.343491758" y2="335.630144715" /><line stroke="rgb(0%,0%,0%)" x1="347.649934656" x2="344.248934912" y1="335.630144715" y2="330.334086511" /><line stroke="rgb(0%,0%,0%)" x1="373.78103584" x2="368.486587726" y1="367.191981242" y2="363.973142967" /><line stroke="rgb(0%,0%,0%)" x1="368.486587726" x2="362.76755882" y1="363.973142967" y2="358.189133882" /><line stroke="rgb(0%,0%,0%)" x1="288.984585774" x2="284.891688449" y1="322.805388806" y2="321.645188346" /><line stroke="rgb(0%,0%,0%)" x1="290.445122036" x2="292.39288185" y1="322.597325276" y2="322.170961877" /><line stroke="rgb(0%,0%,0%)" x1="299.094724235" x2="295.686972232" y1="320.127301645" y2="320.895746783" /><line stroke="rgb(0%,0%,0%)" x1="288.984585774" x2="290.445122036" y1="322.805388806" y2="322.597325276" /><line stroke="rgb(0%,0%,0%)" x1="308.101794965" x2="304.838477105" y1="320.859244418" y2="320.075999878" /><line stroke="rgb(0%,0%,0%)" x1="308.101794965" x2="313.872292684" y1="320.859244418" y2="319.891784835" /><line stroke="rgb(0%,0%,0%)" x1="318.728380874" x2="313.872292684" y1="320.929255911" y2="319.891784835" /><line stroke="rgb(0%,0%,0%)" x1="326.92438666" x2="318.728380874" y1="321.399863902" y2="320.929255911" /><line stroke="rgb(0%,0%,0%)" x1="241.763681486" x2="236.171909677" y1="332.71129172" y2="335.968272215" /><line stroke="rgb(0%,0%,0%)" x1="245.448765883" x2="245.702239676" y1="328.620884923" y2="328.51088396" /><line stroke="rgb(0%,0%,0%)" x1="251.750168971" x2="245.702239676" y1="326.204341157" y2="328.51088396" /><line stroke="rgb(0%,0%,0%)" x1="251.750168971" x2="254.578943762" y1="326.204341157" y2="325.0336475" /><line stroke="rgb(0%,0%,0%)" x1="268.196579377" x2="267.75179209" y1="321.772038668" y2="321.780597353" /><line stroke="rgb(0%,0%,0%)" x1="260.886122702" x2="267.75179209" y1="322.724531803" y2="321.780597353" /><line stroke="rgb(0%,0%,0%)" x1="260.886122702" x2="254.578943762" y1="322.724531803" y2="325.0336475" /><line stroke="rgb(0%,0%,0%)" x1="280.057983863" x2="279.368375272" y1="321.043119793" y2="321.076944339" /><line stroke="rgb(0%,0%,0%)" x1="279.368375272" x2="268.340027656" y1="321.076944339" y2="321.76114146" /><line stroke="rgb(0%,0%,0%)" x1="284.891688449" x2="280.057983863" y1="321.645188346" y2="321.043119793" /><line stroke="rgb(0%,0%,0%)" x1="295.686972232" x2="292.39288185" y1="320.895746783" y2="322.170961877" /><line stroke="rgb(0%,0%,0%)" x1="304.838477105" x2="299.094724235" y1="320.075999878" y2="320.127301645" /><line stroke="rgb(0%,0%,0%)" x1="224.206756965" x2="222.877112517" y1="573.252125776" y2="571.480757407" /><line stroke="rgb(0%,0%,0%)" x1="224.206756965" x2="230.107781751" y1="573.252125776" y2="574.617371322" /><line stroke="rgb(0%,0%,0%)" x1="237.43163432" x2="232.800041105" y1="581.346592881" y2="576.005421437" /><line stroke="rgb(0%,0%,0%)" x1="237.43163432" x2="238.85694587" y1="581.346592881" y2="582.669077452" /><line stroke="rgb(0%,0%,0%)" x1="238.85694587" x2="240.068125367" y1="582.669077452" y2="583.826725439" /><line stroke="rgb(0%,0%,0%)" x1="236.171909677" x2="235.253609694" y1="335.968272215" y2="336.930130729" /><line stroke="rgb(0%,0%,0%)" x1="245.448765883" x2="241.763681486" y1="328.620884923" y2="332.71129172" /><line stroke="rgb(0%,0%,0%)" x1="268.340027656" x2="268.196579377" y1="321.76114146" y2="321.772038668" /><line stroke="rgb(0%,0%,0%)" x1="188.549392335" x2="199.912615477" y1="541.014075428" y2="551.960699432" /><line stroke="rgb(0%,0%,0%)" x1="218.192736854" x2="217.781993482" y1="568.781392692" y2="568.277432116" /><line stroke="rgb(0%,0%,0%)" x1="217.781993482" x2="210.302063591" y1="568.277432116" y2="561.296187506" /><line stroke="rgb(0%,0%,0%)" x1="218.192736854" x2="218.72510765" y1="568.781392692" y2="568.92021342" /><line stroke="rgb(0%,0%,0%)" x1="218.72510765" x2="222.877112517" y1="568.92021342" y2="571.480757407" /><line stroke="rgb(0%,0%,0%)" x1="230.107781751" x2="232.800041105" y1="574.617371322" y2="576.005421437" /><line stroke="rgb(0%,0%,0%)" x1="177.434468684" x2="175.8126215" y1="533.250810029" y2="532.521050089" /><line stroke="rgb(0%,0%,0%)" x1="177.624591308" x2="177.434468684" y1="533.368890282" y2="533.250810029" /><line stroke="rgb(0%,0%,0%)" x1="177.624591308" x2="177.938081122" y1="533.368890282" y2="533.391879923" /><line stroke="rgb(0%,0%,0%)" x1="162.216044772" x2="175.8126215" y1="527.639406195" y2="532.521050089" /><line stroke="rgb(0%,0%,0%)" x1="182.088837408" x2="188.549392335" y1="535.794882857" y2="541.014075428" /><line stroke="rgb(0%,0%,0%)" x1="177.938081122" x2="182.088837408" y1="533.391879923" y2="535.794882857" /><line stroke="rgb(0%,0%,0%)" x1="203.431648237" x2="210.302063591" y1="554.874757712" y2="561.296187506" /><line stroke="rgb(0%,0%,0%)" x1="202.74731697" x2="203.431648237" y1="554.349792706" y2="554.874757712" /><line stroke="rgb(0%,0%,0%)" x1="199.912615477" x2="202.74731697" y1="551.960699432" y2="554.349792706" /><line stroke="rgb(0%,0%,0%)" x1="128.078984665" x2="128.07602155" y1="505.597595193" y2="505.761654319" /><line stroke="rgb(0%,0%,0%)" x1="128.078984665" x2="128.113660479" y1="505.597595193" y2="505.488206692" /><line stroke="rgb(0%,0%,0%)" x1="130.276166003" x2="130.038579064" y1="482.67929706" y2="484.863642602" /><line stroke="rgb(0%,0%,0%)" x1="130.276166003" x2="130.265374293" y1="482.67929706" y2="482.14685544" /><line stroke="rgb(0%,0%,0%)" x1="130.33588013" x2="130.265374293" y1="481.848832866" y2="482.14685544" /><line stroke="rgb(0%,0%,0%)" x1="134.90200188" x2="140.484470239" y1="520.256440934" y2="522.218134299" /><line stroke="rgb(0%,0%,0%)" x1="131.204035425" x2="133.966851409" y1="515.773556537" y2="518.074749014" /><line stroke="rgb(0%,0%,0%)" x1="133.966851409" x2="134.90200188" y1="518.074749014" y2="520.256440934" /><line stroke="rgb(0%,0%,0%)" x1="129.197705411" x2="131.204035425" y1="511.93186473" y2="515.773556537" /><line stroke="rgb(0%,0%,0%)" x1="128.07602155" x2="129.197705411" y1="505.761654319" y2="511.93186473" /><line stroke="rgb(0%,0%,0%)" x1="131.269938361" x2="128.113660479" y1="496.830945287" y2="505.488206692" /><line stroke="rgb(0%,0%,0%)" x1="130.038579064" x2="131.269938361" y1="484.863642602" y2="496.830945287" /><line stroke="rgb(0%,0%,0%)" x1="131.775911984" x2="131.017766913" y1="472.694193641" y2="476.163214901" /><line stroke="rgb(0%,0%,0%)" x1="131.702692512" x2="131.775911984" y1="471.434576932" y2="472.694193641" /><line stroke="rgb(0%,0%,0%)" x1="130.33588013" x2="131.017766913" y1="481.848832866" y2="476.163214901" /><line stroke="rgb(0%,0%,0%)" x1="131.702692512" x2="133.069282285" y1="471.434576932" y2="466.508303168" /><line stroke="rgb(0%,0%,0%)" x1="133.376704541" x2="133.069282285" y1="465.574099585" y2="466.508303168" /><line stroke="rgb(0%,0%,0%)" x1="133.489633274" x2="133.376704541" y1="464.846753295" y2="465.574099585" /><line stroke="rgb(0%,0%,0%)" x1="140.484470239" x2="148.266209169" y1="522.218134299" y2="524.471288184" /><line stroke="rgb(0%,0%,0%)" x1="161.137407371" x2="150.293545279" y1="526.866991538" y2="524.957557961" /><line stroke="rgb(0%,0%,0%)" x1="148.266209169" x2="150.293545279" y1="524.471288184" y2="524.957557961" /><line stroke="rgb(0%,0%,0%)" x1="161.137407371" x2="162.216044772" y1="526.866991538" y2="527.639406195" /><line stroke="rgb(0%,0%,0%)" x1="397.457618472" x2="397.277803598" y1="549.992009644" y2="550.121732267" /><line stroke="rgb(0%,0%,0%)" x1="397.457618472" x2="397.745609435" y1="549.992009644" y2="549.760345914" /><line stroke="rgb(0%,0%,0%)" x1="412.240572213" x2="413.580378481" y1="536.684420757" y2="535.240631991" /><line stroke="rgb(0%,0%,0%)" x1="413.580378481" x2="413.962873411" y1="535.240631991" y2="534.650904154" /><line stroke="rgb(0%,0%,0%)" x1="361.958440188" x2="366.504530776" y1="580.791487493" y2="575.085620812" /><line stroke="rgb(0%,0%,0%)" x1="366.504530776" x2="369.611554927" y1="575.085620812" y2="573.23718294" /><line stroke="rgb(0%,0%,0%)" x1="369.611554927" x2="372.463246006" y1="573.23718294" y2="570.269626899" /><line stroke="rgb(0%,0%,0%)" x1="383.454378322" x2="375.934794494" y1="562.42376227" y2="566.964320797" /><line stroke="rgb(0%,0%,0%)" x1="372.463246006" x2="374.799134682" y1="570.269626899" y2="567.655202558" /><line stroke="rgb(0%,0%,0%)" x1="383.454378322" x2="387.350165494" y1="562.42376227" y2="557.716481168" /><line stroke="rgb(0%,0%,0%)" x1="374.799134682" x2="375.934794494" y1="567.655202558" y2="566.964320797" /><line stroke="rgb(0%,0%,0%)" x1="387.350165494" x2="389.800856252" y1="557.716481168" y2="555.672677765" /><line stroke="rgb(0%,0%,0%)" x1="397.745609435" x2="412.240572213" y1="549.760345914" y2="536.684420757" /><line stroke="rgb(0%,0%,0%)" x1="389.800856252" x2="393.459772865" y1="555.672677765" y2="552.505486232" /><line stroke="rgb(0%,0%,0%)" x1="393.459772865" x2="397.277803598" y1="552.505486232" y2="550.121732267" /><line stroke="rgb(0%,0%,0%)" x1="313.133491505" x2="310.517978858" y1="607.134772429" y2="606.896744932" /><line stroke="rgb(0%,0%,0%)" x1="313.133491505" x2="316.984403547" y1="607.134772429" y2="606.976838144" /><line stroke="rgb(0%,0%,0%)" x1="302.188628529" x2="298.41922265" y1="605.954973603" y2="604.607106116" /><line stroke="rgb(0%,0%,0%)" x1="302.188628529" x2="310.517978858" y1="605.954973603" y2="606.896744932" /><line stroke="rgb(0%,0%,0%)" x1="316.984403547" x2="317.147694419" y1="606.976838144" y2="606.707535801" /><line stroke="rgb(0%,0%,0%)" x1="334.240385034" x2="328.385378644" y1="605.133648954" y2="605.961594931" /><line stroke="rgb(0%,0%,0%)" x1="334.240385034" x2="338.155150694" y1="605.133648954" y2="603.261536231" /><line stroke="rgb(0%,0%,0%)" x1="328.385378644" x2="320.173964051" y1="605.961594931" y2="606.295252971" /><line stroke="rgb(0%,0%,0%)" x1="338.155150694" x2="341.959130019" y1="603.261536231" y2="601.404963513" /><line stroke="rgb(0%,0%,0%)" x1="341.959130019" x2="345.086432084" y1="601.404963513" y2="600.48118661" /><line stroke="rgb(0%,0%,0%)" x1="317.147694419" x2="320.173964051" y1="606.707535801" y2="606.295252971" /><line stroke="rgb(0%,0%,0%)" x1="349.830905882" x2="348.781270391" y1="595.560695895" y2="596.591035415" /><line stroke="rgb(0%,0%,0%)" x1="349.830905882" x2="350.513445423" y1="595.560695895" y2="594.396302482" /><line stroke="rgb(0%,0%,0%)" x1="350.513445423" x2="356.6682517" y1="594.396302482" y2="584.941037599" /><line stroke="rgb(0%,0%,0%)" x1="345.086432084" x2="348.781270391" y1="600.48118661" y2="596.591035415" /><line stroke="rgb(0%,0%,0%)" x1="356.6682517" x2="361.958440188" y1="584.941037599" y2="580.791487493" /><line stroke="rgb(0%,0%,0%)" x1="241.266024452" x2="246.109173527" y1="584.88148078" y2="588.207287036" /><line stroke="rgb(0%,0%,0%)" x1="241.266024452" x2="240.068125367" y1="584.88148078" y2="583.826725439" /><line stroke="rgb(0%,0%,0%)" x1="274.789628976" x2="277.420760395" y1="598.444042432" y2="598.846139019" /><line stroke="rgb(0%,0%,0%)" x1="274.789628976" x2="273.684213964" y1="598.444042432" y2="598.667599909" /><line stroke="rgb(0%,0%,0%)" x1="262.586326709" x2="259.638553395" y1="595.748024704" y2="594.825013229" /><line stroke="rgb(0%,0%,0%)" x1="262.586326709" x2="265.123448044" y1="595.748024704" y2="596.84325909" /><line stroke="rgb(0%,0%,0%)" x1="265.123448044" x2="269.058532153" y1="596.84325909" y2="597.683261189" /><line stroke="rgb(0%,0%,0%)" x1="277.420760395" x2="281.7210788" y1="598.846139019" y2="598.886282341" /><line stroke="rgb(0%,0%,0%)" x1="269.058532153" x2="273.684213964" y1="597.683261189" y2="598.667599909" /><line stroke="rgb(0%,0%,0%)" x1="293.487722337" x2="298.41922265" y1="602.090708977" y2="604.607106116" /><line stroke="rgb(0%,0%,0%)" x1="293.487722337" x2="287.407838314" y1="602.090708977" y2="600.377766278" /><line stroke="rgb(0%,0%,0%)" x1="286.71528502" x2="287.407838314" y1="600.19846982" y2="600.377766278" /><line stroke="rgb(0%,0%,0%)" x1="281.7210788" x2="284.850010118" y1="598.886282341" y2="599.730441528" /><line stroke="rgb(0%,0%,0%)" x1="284.850010118" x2="286.71528502" y1="599.730441528" y2="600.19846982" /><line stroke="rgb(0%,0%,0%)" x1="246.109173527" x2="252.403471544" y1="588.207287036" y2="591.362395131" /><line stroke="rgb(0%,0%,0%)" x1="252.403471544" x2="254.677814102" y1="591.362395131" y2="592.098270016" /><line stroke="rgb(0%,0%,0%)" x1="254.677814102" x2="258.756534209" y1="592.098270016" y2="594.036412983" /><line stroke="rgb(0%,0%,0%)" x1="258.756534209" x2="259.638553395" y1="594.036412983" y2="594.825013229" /><line stroke="rgb(0%,0%,0%)" x1="134.298242194" x2="133.489633274" y1="460.063168341" y2="464.846753295" /><line stroke="rgb(0%,0%,0%)" x1="134.190285275" x2="134.298242194" y1="457.006321701" y2="460.063168341" /></svg>