<?xml version="1.0" encoding="utf-8" ?>
<svg baseProfile="full" height="100%" version="1.1" viewBox="0.5 0.5 685.793960571 941.299331665" width="100%" xmlns="http://www.w3.org/2000/svg" xmlns:ev="http://www.w3.org/2001/xml-events" xmlns:xlink="http://www.w3.org/1999/xlink"><defs /><line stroke="rgb(0%,0%,0%)" x1="422.738061745" x2="414.975050884" y1="412.261512018" y2="405.168410468" /><line stroke="rgb(0%,0%,0%)" x1="409.820399804" x2="414.975050884" y1="400.785457942" y2="405.168410468" /><line stroke="rgb(0%,0%,0%)" x1="409.820399804" x2="408.99730204" y1="400.785457942" y2="400.207135551" /><line stroke="rgb(0%,0%,0%)" x1="434.3296815" x2="433.719088718" y1="435.574018976" y2="432.524527616" /><line stroke="rgb(0%,0%,0%)" x1="425.443169414" x2="432.027106277" y1="417.883782395" y2="429.191600724" /><line stroke="rgb(0%,0%,0%)" x1="425.443169414" x2="422.738061745" y1="417.883782395" y2="412.261512018" /><line stroke="rgb(0%,0%,0%)" x1="437.069083942" x2="437.676962484" y1="464.08398238" y2="454.983509099" /><line stroke="rgb(0%,0%,0%)" x1="437.676962484" x2="438.0231724" y1="454.983509099" y2="452.024687992" /><line stroke="rgb(0%,0%,0%)" x1="438.0231724" x2="437.455081227" y1="452.024687992" y2="450.476699252" /><line stroke="rgb(0%,0%,0%)" x1="437.455081227" x2="434.3296815" y1="450.476699252" y2="435.574018976" /><line stroke="rgb(0%,0%,0%)" x1="408.99730204" x2="407.83780105" y1="400.207135551" y2="398.315490999" /><line stroke="rgb(0%,0%,0%)" x1="436.758680591" x2="437.069083942" y1="465.976424481" y2="464.08398238" /><line stroke="rgb(0%,0%,0%)" x1="433.719088718" x2="433.443430448" y1="432.524527616" y2="432.046338258" /><line stroke="rgb(0%,0%,0%)" x1="433.443430448" x2="432.027106277" y1="432.046338258" y2="429.191600724" /><line stroke="rgb(0%,0%,0%)" x1="214.892595918" x2="212.896325286" y1="348.888642025" y2="349.796344695" /><line stroke="rgb(0%,0%,0%)" x1="214.892595918" x2="219.901335982" y1="348.888642025" y2="344.567191913" /><line stroke="rgb(0%,0%,0%)" x1="234.645805862" x2="235.584180461" y1="338.397095906" y2="338.626229129" /><line stroke="rgb(0%,0%,0%)" x1="225.595936081" x2="222.057965418" y1="341.475357328" y2="343.186290954" /><line stroke="rgb(0%,0%,0%)" x1="234.645805862" x2="229.58105218" y1="338.397095906" y2="341.776481472" /><line stroke="rgb(0%,0%,0%)" x1="229.58105218" x2="225.595936081" y1="341.776481472" y2="341.475357328" /><line stroke="rgb(0%,0%,0%)" x1="200.905682708" x2="193.613836094" y1="360.259450561" y2="366.147513253" /><line stroke="rgb(0%,0%,0%)" x1="205.613679177" x2="200.905682708" y1="355.792477514" y2="360.259450561" /><line stroke="rgb(0%,0%,0%)" x1="205.613679177" x2="208.620316654" y1="355.792477514" y2="352.689001468" /><line stroke="rgb(0%,0%,0%)" x1="212.896325286" x2="208.620316654" y1="349.796344695" y2="352.689001468" /><line stroke="rgb(0%,0%,0%)" x1="221.556895964" x2="219.901335982" y1="343.176704416" y2="344.567191913" /><line stroke="rgb(0%,0%,0%)" x1="222.057965418" x2="221.556895964" y1="343.186290954" y2="343.176704416" /><line stroke="rgb(0%,0%,0%)" x1="163.487592054" x2="158.441058088" y1="382.736639584" y2="382.733280122" /><line stroke="rgb(0%,0%,0%)" x1="154.168437997" x2="152.114180808" y1="383.216199555" y2="383.531538225" /><line stroke="rgb(0%,0%,0%)" x1="154.168437997" x2="158.441058088" y1="383.216199555" y2="382.733280122" /><line stroke="rgb(0%,0%,0%)" x1="167.079657235" x2="163.487592054" y1="380.641554148" y2="382.736639584" /><line stroke="rgb(0%,0%,0%)" x1="180.95043002" x2="171.494148011" y1="374.102108766" y2="379.53613003" /><line stroke="rgb(0%,0%,0%)" x1="171.494148011" x2="167.079657235" y1="379.53613003" y2="380.641554148" /><line stroke="rgb(0%,0%,0%)" x1="187.901409439" x2="187.441983698" y1="371.505292382" y2="371.735312874" /><line stroke="rgb(0%,0%,0%)" x1="180.95043002" x2="187.441983698" y1="374.102108766" y2="371.735312874" /><line stroke="rgb(0%,0%,0%)" x1="193.11770097" x2="192.966597434" y1="366.527246275" y2="366.743761109" /><line stroke="rgb(0%,0%,0%)" x1="187.901409439" x2="192.966597434" y1="371.505292382" y2="366.743761109" /><line stroke="rgb(0%,0%,0%)" x1="193.613836094" x2="193.11770097" y1="366.147513253" y2="366.527246275" /><line stroke="rgb(0%,0%,0%)" x1="123.481385098" x2="123.957692972" y1="413.689883461" y2="411.015661286" /><line stroke="rgb(0%,0%,0%)" x1="130.544183088" x2="126.327908952" y1="403.466685759" y2="407.145178888" /><line stroke="rgb(0%,0%,0%)" x1="136.411812943" x2="135.785658365" y1="454.521218708" y2="457.115750006" /><line stroke="rgb(0%,0%,0%)" x1="133.70638732" x2="133.947555342" y1="447.969395871" y2="449.088480028" /><line stroke="rgb(0%,0%,0%)" x1="133.947555342" x2="136.411812943" y1="449.088480028" y2="454.521218708" /><line stroke="rgb(0%,0%,0%)" x1="133.70638732" x2="132.749103123" y1="447.969395871" y2="445.113763422" /><line stroke="rgb(0%,0%,0%)" x1="139.465598617" x2="130.544183088" y1="395.276638031" y2="403.466685759" /><line stroke="rgb(0%,0%,0%)" x1="139.465598617" x2="139.47844099" y1="395.276638031" y2="395.256412374" /><line stroke="rgb(0%,0%,0%)" x1="139.512937101" x2="139.47844099" y1="395.204346133" y2="395.256412374" /><line stroke="rgb(0%,0%,0%)" x1="149.842262124" x2="139.512937101" y1="385.71815088" y2="395.204346133" /><line stroke="rgb(0%,0%,0%)" x1="149.842262124" x2="152.114180808" y1="385.71815088" y2="383.531538225" /><line stroke="rgb(0%,0%,0%)" x1="122.923349749" x2="123.922208945" y1="415.357478139" y2="419.870526732" /><line stroke="rgb(0%,0%,0%)" x1="123.481385098" x2="122.923349749" y1="413.689883461" y2="415.357478139" /><line stroke="rgb(0%,0%,0%)" x1="131.873024355" x2="131.79324137" y1="438.023077588" y2="441.076235444" /><line stroke="rgb(0%,0%,0%)" x1="131.79324137" x2="132.749103123" y1="441.076235444" y2="445.113763422" /><line stroke="rgb(0%,0%,0%)" x1="128.82963454" x2="131.349025649" y1="428.288683367" y2="437.086222595" /><line stroke="rgb(0%,0%,0%)" x1="128.82963454" x2="125.092587206" y1="428.288683367" y2="422.694838938" /><line stroke="rgb(0%,0%,0%)" x1="131.349025649" x2="131.873024355" y1="437.086222595" y2="438.023077588" /><line stroke="rgb(0%,0%,0%)" x1="123.922208945" x2="125.092587206" y1="419.870526732" y2="422.694838938" /><line stroke="rgb(0%,0%,0%)" x1="125.001156436" x2="123.957692972" y1="408.635321378" y2="411.015661286" /><line stroke="rgb(0%,0%,0%)" x1="126.327908952" x2="125.001156436" y1="407.145178888" y2="408.635321378" /><line stroke="rgb(0%,0%,0%)" x1="412.791458975" x2="413.261277596" y1="534.302408539" y2="533.834567243" /><line stroke="rgb(0%,0%,0%)" x1="413.261277596" x2="424.625963181" y1="533.834567243" y2="522.250373648" /><line stroke="rgb(0%,0%,0%)" x1="424.625963181" x2="426.041006827" y1="522.250373648" y2="520.445612808" /><line stroke="rgb(0%,0%,0%)" x1="426.041006827" x2="434.27324382" y1="520.445612808" y2="504.604414681" /><line stroke="rgb(0%,0%,0%)" x1="434.752495254" x2="434.927773071" y1="503.29547092" y2="502.538483344" /><line stroke="rgb(0%,0%,0%)" x1="434.927773071" x2="438.185777805" y1="502.538483344" y2="489.920720698" /><line stroke="rgb(0%,0%,0%)" x1="439.274729683" x2="438.323170316" y1="481.256208673" y2="488.912022969" /><line stroke="rgb(0%,0%,0%)" x1="438.319300299" x2="439.274729683" y1="472.213674307" y2="481.256208673" /><line stroke="rgb(0%,0%,0%)" x1="438.319300299" x2="436.758680591" y1="472.213674307" y2="465.976424481" /><line stroke="rgb(0%,0%,0%)" x1="353.662503721" x2="358.0424447" y1="350.178945748" y2="355.180968863" /><line stroke="rgb(0%,0%,0%)" x1="353.662503721" x2="349.34034558" y1="350.178945748" y2="343.038436381" /><line stroke="rgb(0%,0%,0%)" x1="391.912547855" x2="387.752831395" y1="384.901185526" y2="381.889925988" /><line stroke="rgb(0%,0%,0%)" x1="387.752831395" x2="383.004268856" y1="381.889925988" y2="376.826105543" /><line stroke="rgb(0%,0%,0%)" x1="383.004268856" x2="372.935698679" y1="376.826105543" y2="368.409277086" /><line stroke="rgb(0%,0%,0%)" x1="407.83780105" x2="405.356125158" y1="398.315490999" y2="397.401350856" /><line stroke="rgb(0%,0%,0%)" x1="405.356125158" x2="402.484116751" y1="397.401350856" y2="394.499812122" /><line stroke="rgb(0%,0%,0%)" x1="402.484116751" x2="397.70865667" y1="394.499812122" y2="390.407498326" /><line stroke="rgb(0%,0%,0%)" x1="391.912547855" x2="397.70865667" y1="384.901185526" y2="390.407498326" /><line stroke="rgb(0%,0%,0%)" x1="434.27324382" x2="434.752495254" y1="504.604414681" y2="503.29547092" /><line stroke="rgb(0%,0%,0%)" x1="438.185777805" x2="438.323170316" y1="489.920720698" y2="488.912022969" /><line stroke="rgb(0%,0%,0%)" x1="346.170396225" x2="346.060061463" y1="338.514357559" y2="337.663132836" /><line stroke="rgb(0%,0%,0%)" x1="346.060061463" x2="342.662128834" y1="337.663132836" y2="332.44748924" /><line stroke="rgb(0%,0%,0%)" x1="360.446590947" x2="360.173413432" y1="357.745362251" y2="357.499993938" /><line stroke="rgb(0%,0%,0%)" x1="361.326773115" x2="360.446590947" y1="358.341879677" y2="357.745362251" /><line stroke="rgb(0%,0%,0%)" x1="360.173413432" x2="358.0424447" y1="357.499993938" y2="355.180968863" /><line stroke="rgb(0%,0%,0%)" x1="349.34034558" x2="346.170396225" y1="343.038436381" y2="338.514357559" /><line stroke="rgb(0%,0%,0%)" x1="372.935698679" x2="368.787356401" y1="368.409277086" y2="365.887230856" /><line stroke="rgb(0%,0%,0%)" x1="368.787356401" x2="361.326773115" y1="365.887230856" y2="358.341879677" /><line stroke="rgb(0%,0%,0%)" x1="297.337301432" x2="295.339448217" y1="321.175302436" y2="321.625816614" /><line stroke="rgb(0%,0%,0%)" x1="308.746274794" x2="304.612732641" y1="322.102431339" y2="321.110320102" /><line stroke="rgb(0%,0%,0%)" x1="308.746274794" x2="313.648704524" y1="322.102431339" y2="321.280508716" /><line stroke="rgb(0%,0%,0%)" x1="319.850711678" x2="313.648704524" y1="322.605526464" y2="321.280508716" /><line stroke="rgb(0%,0%,0%)" x1="319.850711678" x2="327.439056441" y1="322.605526464" y2="323.041243053" /><line stroke="rgb(0%,0%,0%)" x1="336.684214903" x2="335.912902307" y1="327.960380453" y2="327.012508811" /><line stroke="rgb(0%,0%,0%)" x1="328.274293253" x2="327.439056441" y1="323.615417642" y2="323.041243053" /><line stroke="rgb(0%,0%,0%)" x1="335.912902307" x2="328.274293253" y1="327.012508811" y2="323.615417642" /><line stroke="rgb(0%,0%,0%)" x1="336.684214903" x2="341.148351244" y1="327.960380453" y2="330.404459441" /><line stroke="rgb(0%,0%,0%)" x1="342.662128834" x2="341.148351244" y1="332.44748924" y2="330.404459441" /><line stroke="rgb(0%,0%,0%)" x1="241.247799451" x2="236.921417764" y1="334.705619448" y2="337.225561471" /><line stroke="rgb(0%,0%,0%)" x1="268.140497388" x2="264.338720532" y1="323.966415909" y2="324.039570447" /><line stroke="rgb(0%,0%,0%)" x1="260.452931399" x2="264.338720532" y1="324.573812634" y2="324.039570447" /><line stroke="rgb(0%,0%,0%)" x1="260.452931399" x2="252.251872968" y1="324.573812634" y2="327.576294875" /><line stroke="rgb(0%,0%,0%)" x1="279.135467055" x2="277.65364856" y1="323.286464659" y2="323.359146232" /><line stroke="rgb(0%,0%,0%)" x1="277.65364856" x2="269.366607849" y1="323.359146232" y2="323.873273062" /><line stroke="rgb(0%,0%,0%)" x1="279.135467055" x2="288.085200478" y1="323.286464659" y2="324.401210701" /><line stroke="rgb(0%,0%,0%)" x1="288.656678284" x2="288.085200478" y1="324.283876154" y2="324.401210701" /><line stroke="rgb(0%,0%,0%)" x1="289.389627865" x2="288.656678284" y1="323.929123396" y2="324.283876154" /><line stroke="rgb(0%,0%,0%)" x1="295.339448217" x2="289.389627865" y1="321.625816614" y2="323.929123396" /><line stroke="rgb(0%,0%,0%)" x1="304.612732641" x2="297.337301432" y1="321.110320102" y2="321.175302436" /><line stroke="rgb(0%,0%,0%)" x1="224.321880253" x2="223.532626238" y1="570.995744097" y2="569.94429038" /><line stroke="rgb(0%,0%,0%)" x1="224.321880253" x2="227.824626803" y1="570.995744097" y2="571.806130309" /><line stroke="rgb(0%,0%,0%)" x1="237.157351111" x2="233.170736438" y1="579.159807609" y2="574.562427946" /><line stroke="rgb(0%,0%,0%)" x1="237.157351111" x2="238.384179045" y1="579.159807609" y2="580.298127869" /><line stroke="rgb(0%,0%,0%)" x1="238.384179045" x2="240.262679782" y1="580.298127869" y2="582.093602942" /><line stroke="rgb(0%,0%,0%)" x1="236.921417764" x2="235.584180461" y1="337.225561471" y2="338.626229129" /><line stroke="rgb(0%,0%,0%)" x1="241.247799451" x2="244.238795939" y1="334.705619448" y2="331.385643282" /><line stroke="rgb(0%,0%,0%)" x1="244.238795939" x2="250.971102279" y1="331.385643282" y2="328.181636999" /><line stroke="rgb(0%,0%,0%)" x1="251.381866603" x2="250.971102279" y1="328.010157512" y2="328.181636999" /><line stroke="rgb(0%,0%,0%)" x1="252.251872968" x2="251.381866603" y1="327.576294875" y2="328.010157512" /><line stroke="rgb(0%,0%,0%)" x1="269.366607849" x2="268.140497388" y1="323.873273062" y2="323.966415909" /><line stroke="rgb(0%,0%,0%)" x1="191.001154663" x2="194.299767898" y1="542.335737111" y2="545.513416399" /><line stroke="rgb(0%,0%,0%)" x1="223.532626238" x2="219.848152402" y1="569.94429038" y2="567.672073071" /><line stroke="rgb(0%,0%,0%)" x1="218.224461442" x2="219.848152402" y1="566.663495355" y2="567.672073071" /><line stroke="rgb(0%,0%,0%)" x1="227.824626803" x2="233.170736438" y1="571.806130309" y2="574.562427946" /><line stroke="rgb(0%,0%,0%)" x1="163.238149017" x2="174.658172966" y1="527.557885939" y2="531.658071691" /><line stroke="rgb(0%,0%,0%)" x1="181.623187532" x2="191.001154663" y1="534.759698066" y2="542.335737111" /><line stroke="rgb(0%,0%,0%)" x1="181.623187532" x2="179.768324494" y1="534.759698066" y2="533.685859706" /><line stroke="rgb(0%,0%,0%)" x1="176.037615201" x2="179.768324494" y1="532.523812585" y2="533.685859706" /><line stroke="rgb(0%,0%,0%)" x1="205.664933052" x2="218.224461442" y1="554.924739304" y2="566.663495355" /><line stroke="rgb(0%,0%,0%)" x1="203.454797938" x2="205.664933052" y1="553.229297856" y2="554.924739304" /><line stroke="rgb(0%,0%,0%)" x1="194.299767898" x2="203.454797938" y1="545.513416399" y2="553.229297856" /><line stroke="rgb(0%,0%,0%)" x1="131.876398882" x2="136.380117732" y1="513.650191253" y2="517.401408851" /><line stroke="rgb(0%,0%,0%)" x1="136.380117732" x2="137.337796026" y1="517.401408851" y2="519.635657842" /><line stroke="rgb(0%,0%,0%)" x1="131.444257302" x2="131.876398882" y1="512.822732782" y2="513.650191253" /><line stroke="rgb(0%,0%,0%)" x1="131.444257302" x2="131.183601747" y1="512.822732782" y2="511.388906657" /><line stroke="rgb(0%,0%,0%)" x1="133.460823833" x2="131.13164213" y1="496.829885325" y2="503.218529041" /><line stroke="rgb(0%,0%,0%)" x1="133.460823833" x2="132.20557115" y1="496.829885325" y2="484.630368221" /><line stroke="rgb(0%,0%,0%)" x1="133.334109547" x2="131.986986583" y1="477.126754112" y2="483.290743539" /><line stroke="rgb(0%,0%,0%)" x1="133.125542503" x2="133.334109547" y1="473.538712203" y2="477.126754112" /><line stroke="rgb(0%,0%,0%)" x1="133.125542503" x2="133.933430781" y1="473.538712203" y2="470.626441888" /><line stroke="rgb(0%,0%,0%)" x1="134.997144445" x2="133.933430781" y1="467.393998248" y2="470.626441888" /><line stroke="rgb(0%,0%,0%)" x1="135.387889859" x2="134.997144445" y1="464.877302816" y2="467.393998248" /><line stroke="rgb(0%,0%,0%)" x1="148.7563497" x2="138.837938751" y1="523.534123141" y2="520.662309224" /><line stroke="rgb(0%,0%,0%)" x1="137.337796026" x2="138.837938751" y1="519.635657842" y2="520.662309224" /><line stroke="rgb(0%,0%,0%)" x1="161.124346991" x2="153.96636906" y1="526.044187578" y2="524.783780235" /><line stroke="rgb(0%,0%,0%)" x1="148.7563497" x2="153.96636906" y1="523.534123141" y2="524.783780235" /><line stroke="rgb(0%,0%,0%)" x1="161.124346991" x2="163.238149017" y1="526.044187578" y2="527.557885939" /><line stroke="rgb(0%,0%,0%)" x1="174.658172966" x2="176.037615201" y1="531.658071691" y2="532.523812585" /><line stroke="rgb(0%,0%,0%)" x1="131.13164213" x2="130.570141725" y1="503.218529041" y2="504.67419881" /><line stroke="rgb(0%,0%,0%)" x1="130.570141725" x2="131.183601747" y1="504.67419881" y2="511.388906657" /><line stroke="rgb(0%,0%,0%)" x1="131.986986583" x2="132.20557115" y1="483.290743539" y2="484.630368221" /><line stroke="rgb(0%,0%,0%)" x1="412.724444076" x2="412.776576062" y1="534.381532857" y2="534.325354903" /><line stroke="rgb(0%,0%,0%)" x1="412.776576062" x2="412.791458975" y1="534.325354903" y2="534.302408539" /><line stroke="rgb(0%,0%,0%)" x1="361.11235059" x2="364.6317751" y1="578.704048047" y2="574.286765405" /><line stroke="rgb(0%,0%,0%)" x1="364.6317751" x2="368.61955837" y1="574.286765405" y2="571.914344316" /><line stroke="rgb(0%,0%,0%)" x1="382.773229778" x2="376.33505367" y1="561.082071893" y2="564.969642814" /><line stroke="rgb(0%,0%,0%)" x1="373.703141167" x2="369.52701726" y1="566.570774003" y2="571.244866611" /><line stroke="rgb(0%,0%,0%)" x1="382.773229778" x2="386.108755316" y1="561.082071893" y2="557.051755134" /><line stroke="rgb(0%,0%,0%)" x1="373.703141167" x2="376.33505367" y1="566.570774003" y2="564.969642814" /><line stroke="rgb(0%,0%,0%)" x1="386.108755316" x2="389.118707684" y1="557.051755134" y2="554.541544136" /><line stroke="rgb(0%,0%,0%)" x1="412.724444076" x2="412.044527711" y1="534.381532857" y2="534.994886312" /><line stroke="rgb(0%,0%,0%)" x1="389.118707684" x2="393.612609939" y1="554.541544136" y2="550.651581429" /><line stroke="rgb(0%,0%,0%)" x1="393.612609939" x2="397.226248506" y1="550.651581429" y2="548.395437919" /><line stroke="rgb(0%,0%,0%)" x1="399.72729687" x2="412.044527711" y1="546.078605681" y2="534.994886312" /><line stroke="rgb(0%,0%,0%)" x1="397.226248506" x2="399.72729687" y1="548.395437919" y2="546.078605681" /><line stroke="rgb(0%,0%,0%)" x1="312.556830097" x2="310.671190919" y1="606.075916819" y2="605.904312229" /><line stroke="rgb(0%,0%,0%)" x1="312.556830097" x2="315.333123541" y1="606.075916819" y2="605.962054982" /><line stroke="rgb(0%,0%,0%)" x1="301.117117373" x2="300.012513223" y1="604.82406561" y2="604.429080281" /><line stroke="rgb(0%,0%,0%)" x1="301.117117373" x2="310.671190919" y1="604.82406561" y2="605.904312229" /><line stroke="rgb(0%,0%,0%)" x1="315.333123541" x2="315.613976057" y1="605.962054982" y2="605.498867792" /><line stroke="rgb(0%,0%,0%)" x1="331.320248269" x2="326.949215665" y1="603.922569948" y2="604.540669848" /><line stroke="rgb(0%,0%,0%)" x1="331.320248269" x2="336.168548175" y1="603.922569948" y2="601.604024032" /><line stroke="rgb(0%,0%,0%)" x1="326.949215665" x2="320.819015539" y1="604.540669848" y2="604.78976098" /><line stroke="rgb(0%,0%,0%)" x1="336.168548175" x2="340.879643092" y1="601.604024032" y2="599.304723865" /><line stroke="rgb(0%,0%,0%)" x1="340.879643092" x2="343.174663282" y1="599.304723865" y2="598.626795542" /><line stroke="rgb(0%,0%,0%)" x1="315.613976057" x2="320.819015539" y1="605.498867792" y2="604.78976098" /><line stroke="rgb(0%,0%,0%)" x1="343.174663282" x2="346.769035801" y1="598.626795542" y2="594.842420857" /><line stroke="rgb(0%,0%,0%)" x1="346.769035801" x2="348.263084878" y1="594.842420857" y2="592.388605669" /><line stroke="rgb(0%,0%,0%)" x1="348.263084878" x2="353.856678193" y1="592.388605669" y2="583.856850003" /><line stroke="rgb(0%,0%,0%)" x1="361.11235059" x2="356.041339959" y1="578.704048047" y2="582.681678099" /><line stroke="rgb(0%,0%,0%)" x1="353.856678193" x2="356.041339959" y1="583.856850003" y2="582.681678099" /><line stroke="rgb(0%,0%,0%)" x1="368.61955837" x2="369.286789052" y1="571.914344316" y2="571.429920724" /><line stroke="rgb(0%,0%,0%)" x1="369.286789052" x2="369.52701726" y1="571.429920724" y2="571.244866611" /><line stroke="rgb(0%,0%,0%)" x1="240.656635064" x2="242.24941043" y1="582.440482276" y2="583.534246312" /><line stroke="rgb(0%,0%,0%)" x1="240.656635064" x2="240.262679782" y1="582.440482276" y2="582.093602942" /><line stroke="rgb(0%,0%,0%)" x1="275.391894056" x2="275.811073417" y1="596.379521457" y2="596.443581576" /><line stroke="rgb(0%,0%,0%)" x1="275.391894056" x2="275.215784586" y1="596.379521457" y2="596.415137573" /><line stroke="rgb(0%,0%,0%)" x1="263.450014679" x2="263.157827654" y1="593.852825991" y2="593.761335924" /><line stroke="rgb(0%,0%,0%)" x1="263.450014679" x2="263.701497359" y1="593.852825991" y2="593.96138701" /><line stroke="rgb(0%,0%,0%)" x1="263.701497359" x2="268.994211717" y1="593.96138701" y2="595.091195434" /><line stroke="rgb(0%,0%,0%)" x1="275.811073417" x2="276.49617972" y1="596.443581576" y2="596.449977019" /><line stroke="rgb(0%,0%,0%)" x1="268.994211717" x2="275.215784586" y1="595.091195434" y2="596.415137573" /><line stroke="rgb(0%,0%,0%)" x1="293.054493693" x2="300.012513223" y1="600.878610987" y2="604.429080281" /><line stroke="rgb(0%,0%,0%)" x1="293.054493693" x2="288.645130098" y1="600.878610987" y2="599.636319662" /><line stroke="rgb(0%,0%,0%)" x1="287.16558879" x2="288.645130098" y1="599.253278359" y2="599.636319662" /><line stroke="rgb(0%,0%,0%)" x1="276.49617972" x2="283.18069508" y1="596.449977019" y2="598.253402688" /><line stroke="rgb(0%,0%,0%)" x1="283.18069508" x2="287.16558879" y1="598.253402688" y2="599.253278359" /><line stroke="rgb(0%,0%,0%)" x1="242.24941043" x2="251.976671425" y1="583.534246312" y2="588.410176849" /><line stroke="rgb(0%,0%,0%)" x1="251.976671425" x2="255.491459507" y1="588.410176849" y2="589.547404073" /><line stroke="rgb(0%,0%,0%)" x1="255.491459507" x2="261.7947478" y1="589.547404073" y2="592.542626485" /><line stroke="rgb(0%,0%,0%)" x1="261.7947478" x2="263.157827654" y1="592.542626485" y2="593.761335924" /><line stroke="rgb(0%,0%,0%)" x1="135.869523825" x2="135.387889859" y1="462.028042884" y2="464.877302816" /><line stroke="rgb(0%,0%,0%)" x1="135.869523825" x2="135.729004333" y1="462.028042884" y2="458.049172989" /><line stroke="rgb(0%,0%,0%)" x1="135.785658365" x2="135.729004333" y1="457.115750006" y2="458.049172989" /></svg>