<?xml version="1.0" encoding="utf-8" ?>
<svg baseProfile="full" height="100%" version="1.1" viewBox="0.5 0.5 685.793960571 941.299331665" width="100%" xmlns="http://www.w3.org/2000/svg" xmlns:ev="http://www.w3.org/2001/xml-events" xmlns:xlink="http://www.w3.org/1999/xlink"><defs /><line stroke="rgb(0%,0%,0%)" x1="667.412783652" x2="666.421569243" y1="382.420690256" y2="377.302160655" /><line stroke="rgb(0%,0%,0%)" x1="658.148329079" x2="662.2381388" y1="346.574018831" y2="357.661139266" /><line stroke="rgb(0%,0%,0%)" x1="674.547182984" x2="675.274956308" y1="429.276983999" y2="434.630715287" /><line stroke="rgb(0%,0%,0%)" x1="607.133769157" x2="607.190298159" y1="217.490219206" y2="217.600518273" /><line stroke="rgb(0%,0%,0%)" x1="620.253354749" x2="618.91325086" y1="243.429027944" y2="240.419450268" /><line stroke="rgb(0%,0%,0%)" x1="646.26562875" x2="644.468211336" y1="307.324117137" y2="302.128956114" /><line stroke="rgb(0%,0%,0%)" x1="658.148329079" x2="657.281900357" y1="346.574018831" y2="343.047181851" /><line stroke="rgb(0%,0%,0%)" x1="650.977313579" x2="653.462130128" y1="324.093577911" y2="330.056457173" /><line stroke="rgb(0%,0%,0%)" x1="647.727487877" x2="646.26562875" y1="312.171846373" y2="307.324117137" /><line stroke="rgb(0%,0%,0%)" x1="669.801119561" x2="667.412783652" y1="388.868203888" y2="382.420690256" /><line stroke="rgb(0%,0%,0%)" x1="666.421569243" x2="666.743023201" y1="377.302160655" y2="375.470845958" /><line stroke="rgb(0%,0%,0%)" x1="665.413791817" x2="664.400693765" y1="373.165041531" y2="363.960762227" /><line stroke="rgb(0%,0%,0%)" x1="670.433954914" x2="671.618203926" y1="396.947667556" y2="406.072075478" /><line stroke="rgb(0%,0%,0%)" x1="582.901875271" x2="582.244554897" y1="183.475666743" y2="182.644016013" /><line stroke="rgb(0%,0%,0%)" x1="607.133769157" x2="606.97095778" y1="217.490219206" y2="217.184618021" /><line stroke="rgb(0%,0%,0%)" x1="618.91325086" x2="607.190298159" y1="240.419450268" y2="217.600518273" /><line stroke="rgb(0%,0%,0%)" x1="630.207278229" x2="629.1667972" y1="265.113425069" y2="262.16283625" /><line stroke="rgb(0%,0%,0%)" x1="623.260363567" x2="629.1667972" y1="251.298645828" y2="262.16283625" /><line stroke="rgb(0%,0%,0%)" x1="623.260363567" x2="620.253354749" y1="251.298645828" y2="243.429027944" /><line stroke="rgb(0%,0%,0%)" x1="644.468211336" x2="638.746344637" y1="302.128956114" y2="285.586682171" /><line stroke="rgb(0%,0%,0%)" x1="638.746344637" x2="636.589197145" y1="285.586682171" y2="277.847773053" /><line stroke="rgb(0%,0%,0%)" x1="636.589197145" x2="635.044039732" y1="277.847773053" y2="274.386453075" /><line stroke="rgb(0%,0%,0%)" x1="635.044039732" x2="630.207278229" y1="274.386453075" y2="265.113425069" /><line stroke="rgb(0%,0%,0%)" x1="650.977313579" x2="647.727487877" y1="324.093577911" y2="312.171846373" /><line stroke="rgb(0%,0%,0%)" x1="665.413791817" x2="666.743023201" y1="373.165041531" y2="375.470845958" /><line stroke="rgb(0%,0%,0%)" x1="664.400693765" x2="664.285448432" y1="363.960762227" y2="363.416064215" /><line stroke="rgb(0%,0%,0%)" x1="664.285448432" x2="664.200244867" y1="363.416064215" y2="363.130121886" /><line stroke="rgb(0%,0%,0%)" x1="664.200244867" x2="662.2381388" y1="363.130121886" y2="357.661139266" /><line stroke="rgb(0%,0%,0%)" x1="657.281900357" x2="654.497925768" y1="343.047181851" y2="333.475015769" /><line stroke="rgb(0%,0%,0%)" x1="676.603030634" x2="676.381124861" y1="445.879086481" y2="440.816734308" /><line stroke="rgb(0%,0%,0%)" x1="676.381124861" x2="675.925587906" y1="440.816734308" y2="439.808605002" /><line stroke="rgb(0%,0%,0%)" x1="675.925587906" x2="675.274956308" y1="439.808605002" y2="434.630715287" /><line stroke="rgb(0%,0%,0%)" x1="674.547182984" x2="673.779861831" y1="429.276983999" y2="423.609871949" /><line stroke="rgb(0%,0%,0%)" x1="672.251091788" x2="671.791398238" y1="409.882286032" y2="407.337851883" /><line stroke="rgb(0%,0%,0%)" x1="671.791398238" x2="671.588626486" y1="407.337851883" y2="406.671930699" /><line stroke="rgb(0%,0%,0%)" x1="671.588626486" x2="671.618203926" y1="406.671930699" y2="406.072075478" /><line stroke="rgb(0%,0%,0%)" x1="670.433954914" x2="670.62878016" y1="396.947667556" y2="393.384905449" /><line stroke="rgb(0%,0%,0%)" x1="582.244554897" x2="576.558703254" y1="182.644016013" y2="176.454443913" /><line stroke="rgb(0%,0%,0%)" x1="576.558703254" x2="572.983359268" y1="176.454443913" y2="173.328967435" /><line stroke="rgb(0%,0%,0%)" x1="599.399508385" x2="590.609878234" y1="205.473411297" y2="195.997287033" /><line stroke="rgb(0%,0%,0%)" x1="590.609878234" x2="587.796213903" y1="195.997287033" y2="193.368217343" /><line stroke="rgb(0%,0%,0%)" x1="606.97095778" x2="601.006750026" y1="217.184618021" y2="208.095709251" /><line stroke="rgb(0%,0%,0%)" x1="601.006750026" x2="599.399508385" y1="208.095709251" y2="205.473411297" /><line stroke="rgb(0%,0%,0%)" x1="555.242419434" x2="562.598941526" y1="166.459050298" y2="169.220482592" /><line stroke="rgb(0%,0%,0%)" x1="555.242419434" x2="542.608327344" y1="166.459050298" y2="161.594108429" /><line stroke="rgb(0%,0%,0%)" x1="567.948634545" x2="562.598941526" y1="171.334863914" y2="169.220482592" /><line stroke="rgb(0%,0%,0%)" x1="572.983359268" x2="567.948634545" y1="173.328967435" y2="171.334863914" /><line stroke="rgb(0%,0%,0%)" x1="587.796213903" x2="584.093345334" y1="193.368217343" y2="185.769910195" /><line stroke="rgb(0%,0%,0%)" x1="654.497925768" x2="654.093196999" y1="333.475015769" y2="332.63997245" /><line stroke="rgb(0%,0%,0%)" x1="654.093196999" x2="653.685444966" y1="332.63997245" y2="331.633565876" /><line stroke="rgb(0%,0%,0%)" x1="653.685444966" x2="653.462130128" y1="331.633565876" y2="330.056457173" /><line stroke="rgb(0%,0%,0%)" x1="454.601868768" x2="454.040543479" y1="136.241161757" y2="135.95974856" /><line stroke="rgb(0%,0%,0%)" x1="454.601868768" x2="459.886325363" y1="136.241161757" y2="138.232681222" /><line stroke="rgb(0%,0%,0%)" x1="523.385989786" x2="513.932698842" y1="154.175964792" y2="150.931624564" /><line stroke="rgb(0%,0%,0%)" x1="542.608327344" x2="529.443371056" y1="161.594108429" y2="156.376349866" /><line stroke="rgb(0%,0%,0%)" x1="454.040543479" x2="446.372758472" y1="135.95974856" y2="133.980027966" /><line stroke="rgb(0%,0%,0%)" x1="486.654733651" x2="498.775089439" y1="141.608958877" y2="145.905190904" /><line stroke="rgb(0%,0%,0%)" x1="513.932698842" x2="504.010997142" y1="150.931624564" y2="148.0831798" /><line stroke="rgb(0%,0%,0%)" x1="504.010997142" x2="498.775089439" y1="148.0831798" y2="145.905190904" /><line stroke="rgb(0%,0%,0%)" x1="475.347284783" x2="466.718733228" y1="140.703336143" y2="140.311858144" /><line stroke="rgb(0%,0%,0%)" x1="466.718733228" x2="459.886325363" y1="140.311858144" y2="138.232681222" /><line stroke="rgb(0%,0%,0%)" x1="477.753794121" x2="476.163423316" y1="141.267317276" y2="140.974980323" /><line stroke="rgb(0%,0%,0%)" x1="486.654733651" x2="477.753794121" y1="141.608958877" y2="141.267317276" /><line stroke="rgb(0%,0%,0%)" x1="414.313979491" x2="412.609913105" y1="124.909747129" y2="124.773935489" /><line stroke="rgb(0%,0%,0%)" x1="421.841006697" x2="420.396314073" y1="126.326383687" y2="125.862855843" /><line stroke="rgb(0%,0%,0%)" x1="420.396314073" x2="414.313979491" y1="125.862855843" y2="124.909747129" /><line stroke="rgb(0%,0%,0%)" x1="430.986321566" x2="427.649560185" y1="128.182415235" y2="127.818203802" /><line stroke="rgb(0%,0%,0%)" x1="421.841006697" x2="427.649560185" y1="126.326383687" y2="127.818203802" /><line stroke="rgb(0%,0%,0%)" x1="430.986321566" x2="443.484954345" y1="128.182415235" y2="133.093339122" /><line stroke="rgb(0%,0%,0%)" x1="446.372758472" x2="443.844370779" y1="133.980027966" y2="133.174423876" /><line stroke="rgb(0%,0%,0%)" x1="476.163423316" x2="475.347284783" y1="140.974980323" y2="140.703336143" /><line stroke="rgb(0%,0%,0%)" x1="370.269300572" x2="370.302001723" y1="138.89775979" y2="138.867060478" /><line stroke="rgb(0%,0%,0%)" x1="370.269300572" x2="370.224945683" y1="138.89775979" y2="138.932839197" /><line stroke="rgb(0%,0%,0%)" x1="372.916095501" x2="377.018735572" y1="138.613327488" y2="135.745376834" /><line stroke="rgb(0%,0%,0%)" x1="372.916095501" x2="370.302001723" y1="138.613327488" y2="138.867060478" /><line stroke="rgb(0%,0%,0%)" x1="386.037979683" x2="387.11473832" y1="130.444738107" y2="130.165977827" /><line stroke="rgb(0%,0%,0%)" x1="386.037979683" x2="385.195438804" y1="130.444738107" y2="131.385630561" /><line stroke="rgb(0%,0%,0%)" x1="391.534906382" x2="399.031805717" y1="126.485737733" y2="125.51263542" /><line stroke="rgb(0%,0%,0%)" x1="400.363419647" x2="399.031805717" y1="125.242037305" y2="125.51263542" /><line stroke="rgb(0%,0%,0%)" x1="391.534906382" x2="387.11473832" y1="126.485737733" y2="130.165977827" /><line stroke="rgb(0%,0%,0%)" x1="412.609913105" x2="406.093315598" y1="124.773935489" y2="123.58590236" /><line stroke="rgb(0%,0%,0%)" x1="406.093315598" x2="401.397630652" y1="123.58590236" y2="125.238823162" /><line stroke="rgb(0%,0%,0%)" x1="401.397630652" x2="400.363419647" y1="125.238823162" y2="125.242037305" /><line stroke="rgb(0%,0%,0%)" x1="443.844370779" x2="443.484954345" y1="133.174423876" y2="133.093339122" /><line stroke="rgb(0%,0%,0%)" x1="340.908318437" x2="338.439369892" y1="156.439810844" y2="156.950845667" /><line stroke="rgb(0%,0%,0%)" x1="347.606260256" x2="350.550007424" y1="155.440989301" y2="154.117501196" /><line stroke="rgb(0%,0%,0%)" x1="347.606260256" x2="340.908318437" y1="155.440989301" y2="156.439810844" /><line stroke="rgb(0%,0%,0%)" x1="356.405986334" x2="357.119783906" y1="153.811217821" y2="151.888070596" /><line stroke="rgb(0%,0%,0%)" x1="356.405986334" x2="350.550007424" y1="153.811217821" y2="154.117501196" /><line stroke="rgb(0%,0%,0%)" x1="361.880825531" x2="362.979620817" y1="151.583377521" y2="149.418282289" /><line stroke="rgb(0%,0%,0%)" x1="361.880825531" x2="357.119783906" y1="151.583377521" y2="151.888070596" /><line stroke="rgb(0%,0%,0%)" x1="370.224945683" x2="362.979620817" y1="138.932839197" y2="149.418282289" /><line stroke="rgb(0%,0%,0%)" x1="381.626368616" x2="377.018735572" y1="132.014656575" y2="135.745376834" /><line stroke="rgb(0%,0%,0%)" x1="385.195438804" x2="381.626368616" y1="131.385630561" y2="132.014656575" /><line stroke="rgb(0%,0%,0%)" x1="313.983608515" x2="304.77379562" y1="248.513760094" y2="255.80078197" /><line stroke="rgb(0%,0%,0%)" x1="316.76664763" x2="316.060637363" y1="212.474677728" y2="208.7965857" /><line stroke="rgb(0%,0%,0%)" x1="316.76664763" x2="317.907791343" y1="212.474677728" y2="215.056677233" /><line stroke="rgb(0%,0%,0%)" x1="319.97859635" x2="318.864747627" y1="182.253200142" y2="187.587363368" /><line stroke="rgb(0%,0%,0%)" x1="319.97859635" x2="320.456269876" y1="182.253200142" y2="180.555509273" /><line stroke="rgb(0%,0%,0%)" x1="320.389586489" x2="322.06669032" y1="245.392260572" y2="244.880671868" /><line stroke="rgb(0%,0%,0%)" x1="322.06669032" x2="323.934137598" y1="244.880671868" y2="243.566743811" /><line stroke="rgb(0%,0%,0%)" x1="317.907791343" x2="320.017679717" y1="215.056677233" y2="220.345342287" /><line stroke="rgb(0%,0%,0%)" x1="325.632941312" x2="322.64394948" y1="235.839654518" y2="227.019746499" /><line stroke="rgb(0%,0%,0%)" x1="320.456269876" x2="323.280334303" y1="180.555509273" y2="173.354367853" /><line stroke="rgb(0%,0%,0%)" x1="330.149892392" x2="327.497783211" y1="161.8592515" y2="164.537430618" /><line stroke="rgb(0%,0%,0%)" x1="330.149892392" x2="332.783660796" y1="161.8592515" y2="160.869281631" /><line stroke="rgb(0%,0%,0%)" x1="338.439369892" x2="332.783660796" y1="156.950845667" y2="160.869281631" /><line stroke="rgb(0%,0%,0%)" x1="271.581060988" x2="271.638021809" y1="339.018517489" y2="339.828891197" /><line stroke="rgb(0%,0%,0%)" x1="271.329989478" x2="271.581060988" y1="338.621287904" y2="339.018517489" /><line stroke="rgb(0%,0%,0%)" x1="288.641476547" x2="288.377356057" y1="389.1876804" y2="388.202343177" /><line stroke="rgb(0%,0%,0%)" x1="320.389586489" x2="313.983608515" y1="245.392260572" y2="248.513760094" /><line stroke="rgb(0%,0%,0%)" x1="304.77379562" x2="302.762606362" y1="255.80078197" y2="257.668222466" /><line stroke="rgb(0%,0%,0%)" x1="320.017679717" x2="321.44639124" y1="220.345342287" y2="223.897942262" /><line stroke="rgb(0%,0%,0%)" x1="321.44639124" x2="322.64394948" y1="223.897942262" y2="227.019746499" /><line stroke="rgb(0%,0%,0%)" x1="315.758380144" x2="316.060637363" y1="204.411149758" y2="208.7965857" /><line stroke="rgb(0%,0%,0%)" x1="318.864747627" x2="315.758380144" y1="187.587363368" y2="204.411149758" /><line stroke="rgb(0%,0%,0%)" x1="325.610444797" x2="323.934137598" y1="241.931130513" y2="243.566743811" /><line stroke="rgb(0%,0%,0%)" x1="325.910727751" x2="325.610444797" y1="239.282862348" y2="241.931130513" /><line stroke="rgb(0%,0%,0%)" x1="325.632941312" x2="325.910727751" y1="235.839654518" y2="239.282862348" /><line stroke="rgb(0%,0%,0%)" x1="325.976916852" x2="323.280334303" y1="166.893088929" y2="173.354367853" /><line stroke="rgb(0%,0%,0%)" x1="327.497783211" x2="325.976916852" y1="164.537430618" y2="166.893088929" /><line stroke="rgb(0%,0%,0%)" x1="252.863830358" x2="251.884448659" y1="321.343635301" y2="324.042484484" /><line stroke="rgb(0%,0%,0%)" x1="252.863830358" x2="257.657776294" y1="321.343635301" y2="314.118054198" /><line stroke="rgb(0%,0%,0%)" x1="258.410687007" x2="258.733934627" y1="392.121892021" y2="391.926114911" /><line stroke="rgb(0%,0%,0%)" x1="258.410687007" x2="255.932211055" y1="392.121892021" y2="394.273421129" /><line stroke="rgb(0%,0%,0%)" x1="262.681627701" x2="257.657776294" y1="304.894312162" y2="314.118054198" /><line stroke="rgb(0%,0%,0%)" x1="273.261046863" x2="272.661357663" y1="413.206196978" y2="415.075577299" /><line stroke="rgb(0%,0%,0%)" x1="273.79816168" x2="273.261046863" y1="412.381135107" y2="413.206196978" /><line stroke="rgb(0%,0%,0%)" x1="258.733934627" x2="261.908154353" y1="391.926114911" y2="390.336434541" /><line stroke="rgb(0%,0%,0%)" x1="277.972184451" x2="273.465058902" y1="383.915388513" y2="385.064706178" /><line stroke="rgb(0%,0%,0%)" x1="277.972184451" x2="280.180513831" y1="383.915388513" y2="383.420581092" /><line stroke="rgb(0%,0%,0%)" x1="259.17499854" x2="265.63915644" y1="353.28572404" y2="348.745060659" /><line stroke="rgb(0%,0%,0%)" x1="271.638021809" x2="271.030621432" y1="339.828891197" y2="343.264300063" /><line stroke="rgb(0%,0%,0%)" x1="271.329989478" x2="270.532101938" y1="338.621287904" y2="338.71477611" /><line stroke="rgb(0%,0%,0%)" x1="281.479669831" x2="280.281477666" y1="402.87475467" y2="404.149580631" /><line stroke="rgb(0%,0%,0%)" x1="281.479669831" x2="285.704463609" y1="402.87475467" y2="397.208284624" /><line stroke="rgb(0%,0%,0%)" x1="286.053161178" x2="285.704463609" y1="396.727556573" y2="397.208284624" /><line stroke="rgb(0%,0%,0%)" x1="287.816894817" x2="285.619923356" y1="385.298366977" y2="384.398491338" /><line stroke="rgb(0%,0%,0%)" x1="284.150978583" x2="285.619923356" y1="383.542906007" y2="384.398491338" /><line stroke="rgb(0%,0%,0%)" x1="280.180513831" x2="284.150978583" y1="383.420581092" y2="383.542906007" /><line stroke="rgb(0%,0%,0%)" x1="278.399474466" x2="270.201851508" y1="290.099195855" y2="297.861996128" /><line stroke="rgb(0%,0%,0%)" x1="270.201851508" x2="262.681627701" y1="297.861996128" y2="304.894312162" /><line stroke="rgb(0%,0%,0%)" x1="288.641476547" x2="286.767223024" y1="389.1876804" y2="394.651546355" /><line stroke="rgb(0%,0%,0%)" x1="286.767223024" x2="286.053161178" y1="394.651546355" y2="396.727556573" /><line stroke="rgb(0%,0%,0%)" x1="287.816894817" x2="288.377356057" y1="385.298366977" y2="388.202343177" /><line stroke="rgb(0%,0%,0%)" x1="302.762606362" x2="293.052776039" y1="257.668222466" y2="268.056730939" /><line stroke="rgb(0%,0%,0%)" x1="215.360730221" x2="215.067653796" y1="400.955421791" y2="401.535677486" /><line stroke="rgb(0%,0%,0%)" x1="215.067653796" x2="214.285885276" y1="401.535677486" y2="402.421832202" /><line stroke="rgb(0%,0%,0%)" x1="227.589323631" x2="230.007897575" y1="380.970783456" y2="377.445533072" /><line stroke="rgb(0%,0%,0%)" x1="236.091210756" x2="242.153667543" y1="370.467179141" y2="364.279532722" /><line stroke="rgb(0%,0%,0%)" x1="250.862388043" x2="250.937516873" y1="328.182966919" y2="332.058531181" /><line stroke="rgb(0%,0%,0%)" x1="250.937516873" x2="252.228307887" y1="332.058531181" y2="334.464322238" /><line stroke="rgb(0%,0%,0%)" x1="245.790152151" x2="255.932211055" y1="402.476333341" y2="394.273421129" /><line stroke="rgb(0%,0%,0%)" x1="261.908154353" x2="268.784759968" y1="390.336434541" y2="386.734105852" /><line stroke="rgb(0%,0%,0%)" x1="268.784759968" x2="271.020600648" y1="386.734105852" y2="385.715580023" /><line stroke="rgb(0%,0%,0%)" x1="255.455458151" x2="253.45675215" y1="355.519735577" y2="357.078226816" /><line stroke="rgb(0%,0%,0%)" x1="259.17499854" x2="255.455458151" y1="353.28572404" y2="355.519735577" /><line stroke="rgb(0%,0%,0%)" x1="261.044691926" x2="252.780708678" y1="337.53726178" y2="335.730664399" /><line stroke="rgb(0%,0%,0%)" x1="252.228307887" x2="252.780708678" y1="334.464322238" y2="335.730664399" /><line stroke="rgb(0%,0%,0%)" x1="251.884448659" x2="250.862388043" y1="324.042484484" y2="328.182966919" /><line stroke="rgb(0%,0%,0%)" x1="261.05710824" x2="264.737922231" y1="449.784790436" y2="440.283739771" /><line stroke="rgb(0%,0%,0%)" x1="264.953120215" x2="264.737922231" y1="440.009444481" y2="440.283739771" /><line stroke="rgb(0%,0%,0%)" x1="264.973375273" x2="264.953120215" y1="439.861774889" y2="440.009444481" /><line stroke="rgb(0%,0%,0%)" x1="265.055021386" x2="264.973375273" y1="439.501490767" y2="439.861774889" /><line stroke="rgb(0%,0%,0%)" x1="270.356249209" x2="265.055021386" y1="426.17657475" y2="439.501490767" /><line stroke="rgb(0%,0%,0%)" x1="270.328727499" x2="270.896989978" y1="424.937181688" y2="418.632386729" /><line stroke="rgb(0%,0%,0%)" x1="270.328727499" x2="270.356249209" y1="424.937181688" y2="426.17657475" /><line stroke="rgb(0%,0%,0%)" x1="272.661357663" x2="270.896989978" y1="415.075577299" y2="418.632386729" /><line stroke="rgb(0%,0%,0%)" x1="271.020600648" x2="273.465058902" y1="385.715580023" y2="385.064706178" /><line stroke="rgb(0%,0%,0%)" x1="271.030621432" x2="269.157688197" y1="343.264300063" y2="345.834802067" /><line stroke="rgb(0%,0%,0%)" x1="269.157688197" x2="267.34007873" y1="345.834802067" y2="347.715171386" /><line stroke="rgb(0%,0%,0%)" x1="267.814827844" x2="270.532101938" y1="338.226009693" y2="338.71477611" /><line stroke="rgb(0%,0%,0%)" x1="267.814827844" x2="262.101334217" y1="338.226009693" y2="338.043628661" /><line stroke="rgb(0%,0%,0%)" x1="261.044691926" x2="262.101334217" y1="337.53726178" y2="338.043628661" /><line stroke="rgb(0%,0%,0%)" x1="280.281477666" x2="273.79816168" y1="404.149580631" y2="412.381135107" /><line stroke="rgb(0%,0%,0%)" x1="280.920932422" x2="278.399474466" y1="287.367453788" y2="290.099195855" /><line stroke="rgb(0%,0%,0%)" x1="280.920932422" x2="292.405314296" y1="287.367453788" y2="269.026631197" /><line stroke="rgb(0%,0%,0%)" x1="292.557358204" x2="292.405314296" y1="268.786395638" y2="269.026631197" /><line stroke="rgb(0%,0%,0%)" x1="293.052776039" x2="292.557358204" y1="268.056730939" y2="268.786395638" /><line stroke="rgb(0%,0%,0%)" x1="216.602102314" x2="217.253036477" y1="422.608150168" y2="422.715250308" /><line stroke="rgb(0%,0%,0%)" x1="217.253036477" x2="218.618609913" y1="422.715250308" y2="422.352395405" /><line stroke="rgb(0%,0%,0%)" x1="216.602102314" x2="214.376599039" y1="422.608150168" y2="422.598649304" /><line stroke="rgb(0%,0%,0%)" x1="214.285885276" x2="212.811665589" y1="402.421832202" y2="404.875615382" /><line stroke="rgb(0%,0%,0%)" x1="220.155086471" x2="215.360730221" y1="393.55799785" y2="400.955421791" /><line stroke="rgb(0%,0%,0%)" x1="220.155086471" x2="221.387662894" y1="393.55799785" y2="390.551423406" /><line stroke="rgb(0%,0%,0%)" x1="218.618609913" x2="224.689969235" y1="422.352395405" y2="418.590402217" /><line stroke="rgb(0%,0%,0%)" x1="224.689969235" x2="240.806664114" y1="418.590402217" y2="406.492113112" /><line stroke="rgb(0%,0%,0%)" x1="240.806664114" x2="243.791193906" y1="406.492113112" y2="404.215618249" /><line stroke="rgb(0%,0%,0%)" x1="227.589323631" x2="224.001143146" y1="380.970783456" y2="386.486163" /><line stroke="rgb(0%,0%,0%)" x1="234.156677205" x2="230.007897575" y1="372.591551061" y2="377.445533072" /><line stroke="rgb(0%,0%,0%)" x1="236.091210756" x2="234.156677205" y1="370.467179141" y2="372.591551061" /><line stroke="rgb(0%,0%,0%)" x1="243.791193906" x2="245.790152151" y1="404.215618249" y2="402.476333341" /><line stroke="rgb(0%,0%,0%)" x1="243.817023913" x2="242.153667543" y1="362.842524582" y2="364.279532722" /><line stroke="rgb(0%,0%,0%)" x1="246.741995555" x2="244.28720369" y1="361.077979017" y2="362.435006007" /><line stroke="rgb(0%,0%,0%)" x1="261.05710824" x2="260.313258732" y1="449.784790436" y2="451.811299493" /><line stroke="rgb(0%,0%,0%)" x1="267.34007873" x2="265.63915644" y1="347.715171386" y2="348.745060659" /><line stroke="rgb(0%,0%,0%)" x1="210.171676233" x2="210.316969341" y1="414.51872269" y2="412.663557441" /><line stroke="rgb(0%,0%,0%)" x1="210.171676233" x2="210.466945211" y1="414.51872269" y2="416.633216196" /><line stroke="rgb(0%,0%,0%)" x1="210.820057871" x2="210.316969341" y1="411.052271748" y2="412.663557441" /><line stroke="rgb(0%,0%,0%)" x1="211.355358683" x2="210.820057871" y1="408.580916128" y2="411.052271748" /><line stroke="rgb(0%,0%,0%)" x1="212.811665589" x2="211.355358683" y1="404.875615382" y2="408.580916128" /><line stroke="rgb(0%,0%,0%)" x1="212.678660274" x2="214.376599039" y1="421.665921077" y2="422.598649304" /><line stroke="rgb(0%,0%,0%)" x1="210.466945211" x2="212.678660274" y1="416.633216196" y2="421.665921077" /><line stroke="rgb(0%,0%,0%)" x1="222.835230965" x2="221.387662894" y1="388.600000766" y2="390.551423406" /><line stroke="rgb(0%,0%,0%)" x1="224.001143146" x2="222.835230965" y1="386.486163" y2="388.600000766" /><line stroke="rgb(0%,0%,0%)" x1="244.28720369" x2="243.817023913" y1="362.435006007" y2="362.842524582" /><line stroke="rgb(0%,0%,0%)" x1="640.291987959" x2="642.409885246" y1="610.127835327" y2="605.615187502" /><line stroke="rgb(0%,0%,0%)" x1="653.397030801" x2="655.491938553" y1="575.02432469" y2="567.201083789" /><line stroke="rgb(0%,0%,0%)" x1="664.702248856" x2="665.767379386" y1="529.890841283" y2="524.404611459" /><line stroke="rgb(0%,0%,0%)" x1="669.081936711" x2="669.771736982" y1="512.400937737" y2="510.308907423" /><line stroke="rgb(0%,0%,0%)" x1="672.784507516" x2="670.601530436" y1="495.806241535" y2="505.930370339" /><line stroke="rgb(0%,0%,0%)" x1="675.768602686" x2="676.740221902" y1="472.909429451" y2="468.188881766" /><line stroke="rgb(0%,0%,0%)" x1="677.349300836" x2="677.224852941" y1="462.789006299" y2="460.982255033" /><line stroke="rgb(0%,0%,0%)" x1="677.008830593" x2="677.224852941" y1="457.261194972" y2="460.982255033" /><line stroke="rgb(0%,0%,0%)" x1="637.338564871" x2="631.209961418" y1="618.673171944" y2="632.416964592" /><line stroke="rgb(0%,0%,0%)" x1="637.338564871" x2="639.587986456" y1="618.673171944" y2="612.417828354" /><line stroke="rgb(0%,0%,0%)" x1="640.291987959" x2="639.587986456" y1="610.127835327" y2="612.417828354" /><line stroke="rgb(0%,0%,0%)" x1="642.409885246" x2="649.385880534" y1="605.615187502" y2="588.409462916" /><line stroke="rgb(0%,0%,0%)" x1="649.385880534" x2="653.145333386" y1="588.409462916" y2="575.999788448" /><line stroke="rgb(0%,0%,0%)" x1="656.311139735" x2="658.437353564" y1="564.044132893" y2="556.525582141" /><line stroke="rgb(0%,0%,0%)" x1="659.576358102" x2="658.437353564" y1="550.231768416" y2="556.525582141" /><line stroke="rgb(0%,0%,0%)" x1="659.576358102" x2="661.393212245" y1="550.231768416" y2="542.989472348" /><line stroke="rgb(0%,0%,0%)" x1="662.055118336" x2="663.621004157" y1="539.193468549" y2="534.350458939" /><line stroke="rgb(0%,0%,0%)" x1="669.771736982" x2="670.601530436" y1="510.308907423" y2="505.930370339" /><line stroke="rgb(0%,0%,0%)" x1="675.395714566" x2="675.768602686" y1="477.738412267" y2="472.909429451" /><line stroke="rgb(0%,0%,0%)" x1="676.654575472" x2="676.740221902" y1="464.481491119" y2="468.188881766" /><line stroke="rgb(0%,0%,0%)" x1="676.654575472" x2="677.349300836" y1="464.481491119" y2="462.789006299" /><line stroke="rgb(0%,0%,0%)" x1="592.012637578" x2="593.169070312" y1="709.206241957" y2="707.426628105" /><line stroke="rgb(0%,0%,0%)" x1="608.215812528" x2="607.521522837" y1="681.283168662" y2="682.670216364" /><line stroke="rgb(0%,0%,0%)" x1="609.461244147" x2="608.215812528" y1="679.387696444" y2="681.283168662" /><line stroke="rgb(0%,0%,0%)" x1="609.461244147" x2="615.060792987" y1="679.387696444" y2="669.515682727" /><line stroke="rgb(0%,0%,0%)" x1="624.35630413" x2="619.969087582" y1="648.93891246" y2="659.097272069" /><line stroke="rgb(0%,0%,0%)" x1="616.994770419" x2="619.969087582" y1="665.728448616" y2="659.097272069" /><line stroke="rgb(0%,0%,0%)" x1="661.393212245" x2="661.829151869" y1="542.989472348" y2="540.357239808" /><line stroke="rgb(0%,0%,0%)" x1="661.829151869" x2="662.055118336" y1="540.357239808" y2="539.193468549" /><line stroke="rgb(0%,0%,0%)" x1="549.729233819" x2="547.065160608" y1="756.392204199" y2="758.10843134" /><line stroke="rgb(0%,0%,0%)" x1="549.729233819" x2="551.177910071" y1="756.392204199" y2="755.550240371" /><line stroke="rgb(0%,0%,0%)" x1="551.177910071" x2="557.272754788" y1="755.550240371" y2="751.385279754" /><line stroke="rgb(0%,0%,0%)" x1="570.735789804" x2="568.416217415" y1="741.163871662" y2="743.247549476" /><line stroke="rgb(0%,0%,0%)" x1="589.280998241" x2="582.372310402" y1="712.675578232" y2="723.802655012" /><line stroke="rgb(0%,0%,0%)" x1="589.280998241" x2="592.012637578" y1="712.675578232" y2="709.206241957" /><line stroke="rgb(0%,0%,0%)" x1="593.169070312" x2="596.805516592" y1="707.426628105" y2="701.649152147" /><line stroke="rgb(0%,0%,0%)" x1="600.883526622" x2="597.580639972" y1="692.574303806" y2="700.393485041" /><line stroke="rgb(0%,0%,0%)" x1="600.883526622" x2="607.521522837" y1="692.574303806" y2="682.670216364" /><line stroke="rgb(0%,0%,0%)" x1="615.060792987" x2="616.994770419" y1="669.515682727" y2="665.728448616" /><line stroke="rgb(0%,0%,0%)" x1="630.399011025" x2="631.209961418" y1="633.926298367" y2="632.416964592" /><line stroke="rgb(0%,0%,0%)" x1="539.338096726" x2="534.457856379" y1="761.641682986" y2="764.337852906" /><line stroke="rgb(0%,0%,0%)" x1="539.338096726" x2="547.065160608" y1="761.641682986" y2="758.10843134" /><line stroke="rgb(0%,0%,0%)" x1="576.655416409" x2="580.298144294" y1="733.328019552" y2="728.277892763" /><line stroke="rgb(0%,0%,0%)" x1="580.298144294" x2="582.347414686" y1="728.277892763" y2="723.847767797" /><line stroke="rgb(0%,0%,0%)" x1="582.347414686" x2="582.372310402" y1="723.847767797" y2="723.802655012" /><line stroke="rgb(0%,0%,0%)" x1="596.805516592" x2="597.336180814" y1="701.649152147" y2="700.802019955" /><line stroke="rgb(0%,0%,0%)" x1="597.336180814" x2="597.580639972" y1="700.802019955" y2="700.393485041" /><line stroke="rgb(0%,0%,0%)" x1="628.477189957" x2="630.399011025" y1="638.947368622" y2="633.926298367" /><line stroke="rgb(0%,0%,0%)" x1="488.446998905" x2="494.507444657" y1="782.61454706" y2="781.432244376" /><line stroke="rgb(0%,0%,0%)" x1="520.862062439" x2="511.46065141" y1="770.637162847" y2="774.590327426" /><line stroke="rgb(0%,0%,0%)" x1="520.862062439" x2="525.735832594" y1="770.637162847" y2="768.278810212" /><line stroke="rgb(0%,0%,0%)" x1="525.735832594" x2="530.933041597" y1="768.278810212" y2="765.17743619" /><line stroke="rgb(0%,0%,0%)" x1="530.933041597" x2="534.457856379" y1="765.17743619" y2="764.337852906" /><line stroke="rgb(0%,0%,0%)" x1="557.272754788" x2="564.751892904" y1="751.385279754" y2="746.029323308" /><line stroke="rgb(0%,0%,0%)" x1="564.751892904" x2="568.416217415" y1="746.029323308" y2="743.247549476" /><line stroke="rgb(0%,0%,0%)" x1="470.756540903" x2="464.396874366" y1="782.402480281" y2="783.20686956" /><line stroke="rgb(0%,0%,0%)" x1="483.133945303" x2="475.252501727" y1="783.722056782" y2="782.268570955" /><line stroke="rgb(0%,0%,0%)" x1="483.133945303" x2="488.446998905" y1="783.722056782" y2="782.61454706" /><line stroke="rgb(0%,0%,0%)" x1="496.281472402" x2="511.46065141" y1="780.522386858" y2="774.590327426" /><line stroke="rgb(0%,0%,0%)" x1="419.400719506" x2="409.805453636" y1="781.790933198" y2="779.533058421" /><line stroke="rgb(0%,0%,0%)" x1="430.502491585" x2="438.058444811" y1="784.422894841" y2="784.989129739" /><line stroke="rgb(0%,0%,0%)" x1="440.790406408" x2="453.323753625" y1="785.343727025" y2="784.195409985" /><line stroke="rgb(0%,0%,0%)" x1="462.493227219" x2="453.66582895" y1="783.650746043" y2="784.175969497" /><line stroke="rgb(0%,0%,0%)" x1="462.493227219" x2="464.396874366" y1="783.650746043" y2="783.20686956" /><line stroke="rgb(0%,0%,0%)" x1="470.756540903" x2="475.252501727" y1="782.402480281" y2="782.268570955" /><line stroke="rgb(0%,0%,0%)" x1="494.507444657" x2="496.281472402" y1="781.432244376" y2="780.522386858" /><line stroke="rgb(0%,0%,0%)" x1="387.54928561" x2="392.037768043" y1="770.134197575" y2="772.499938134" /><line stroke="rgb(0%,0%,0%)" x1="387.54928561" x2="374.942103689" y1="770.134197575" y2="763.435452914" /><line stroke="rgb(0%,0%,0%)" x1="424.273914803" x2="419.400719506" y1="783.354703605" y2="781.790933198" /><line stroke="rgb(0%,0%,0%)" x1="424.273914803" x2="430.502491585" y1="783.354703605" y2="784.422894841" /><line stroke="rgb(0%,0%,0%)" x1="438.058444811" x2="440.790406408" y1="784.989129739" y2="785.343727025" /><line stroke="rgb(0%,0%,0%)" x1="453.323753625" x2="453.66582895" y1="784.195409985" y2="784.175969497" /><line stroke="rgb(0%,0%,0%)" x1="364.091658523" x2="371.328851137" y1="755.18810102" y2="760.909325324" /><line stroke="rgb(0%,0%,0%)" x1="364.091658523" x2="359.755657912" y1="755.18810102" y2="751.959821378" /><line stroke="rgb(0%,0%,0%)" x1="372.587349231" x2="374.942103689" y1="761.714886659" y2="763.435452914" /><line stroke="rgb(0%,0%,0%)" x1="371.328851137" x2="372.587349231" y1="760.909325324" y2="761.714886659" /><line stroke="rgb(0%,0%,0%)" x1="392.037768043" x2="401.432905641" y1="772.499938134" y2="776.401569777" /><line stroke="rgb(0%,0%,0%)" x1="401.432905641" x2="406.865303303" y1="776.401569777" y2="778.4783453" /><line stroke="rgb(0%,0%,0%)" x1="406.865303303" x2="409.805453636" y1="778.4783453" y2="779.533058421" /><line stroke="rgb(0%,0%,0%)" x1="240.814042154" x2="239.718998076" y1="536.643166413" y2="535.048227749" /><line stroke="rgb(0%,0%,0%)" x1="286.999042182" x2="292.897499463" y1="505.180332436" y2="511.55542233" /><line stroke="rgb(0%,0%,0%)" x1="286.999042182" x2="286.815511695" y1="505.180332436" y2="504.931068104" /><line stroke="rgb(0%,0%,0%)" x1="330.643210974" x2="331.602436463" y1="707.5741632" y2="713.64962972" /><line stroke="rgb(0%,0%,0%)" x1="332.950537516" x2="336.895187957" y1="703.932227385" y2="694.71119047" /><line stroke="rgb(0%,0%,0%)" x1="332.950537516" x2="330.643210974" y1="703.932227385" y2="707.5741632" /><line stroke="rgb(0%,0%,0%)" x1="334.765341168" x2="330.847270336" y1="661.081582407" y2="658.895609076" /><line stroke="rgb(0%,0%,0%)" x1="333.125374195" x2="341.357913703" y1="717.413450707" y2="733.601712939" /><line stroke="rgb(0%,0%,0%)" x1="338.762534312" x2="338.55068933" y1="670.422515472" y2="678.583074488" /><line stroke="rgb(0%,0%,0%)" x1="338.762534312" x2="337.01552618" y1="670.422515472" y2="664.542949917" /><line stroke="rgb(0%,0%,0%)" x1="334.765341168" x2="336.645902347" y1="661.081582407" y2="663.654827673" /><line stroke="rgb(0%,0%,0%)" x1="355.893357937" x2="342.520326922" y1="748.33061413" y2="735.002368918" /><line stroke="rgb(0%,0%,0%)" x1="355.893357937" x2="359.755657912" y1="748.33061413" y2="751.959821378" /><line stroke="rgb(0%,0%,0%)" x1="260.695612223" x2="261.123366176" y1="552.91545172" y2="553.244296851" /><line stroke="rgb(0%,0%,0%)" x1="260.695612223" x2="260.546132102" y1="552.91545172" y2="552.726094725" /><line stroke="rgb(0%,0%,0%)" x1="278.072645649" x2="278.17398017" y1="573.850817877" y2="574.379619162" /><line stroke="rgb(0%,0%,0%)" x1="285.566995502" x2="286.815511695" y1="503.901417007" y2="504.931068104" /><line stroke="rgb(0%,0%,0%)" x1="274.217168861" x2="285.566995502" y1="492.83363875" y2="503.901417007" /><line stroke="rgb(0%,0%,0%)" x1="292.897499463" x2="296.747982066" y1="511.55542233" y2="517.971527274" /><line stroke="rgb(0%,0%,0%)" x1="301.134280279" x2="294.590434661" y1="647.50985136" y2="638.584586521" /><line stroke="rgb(0%,0%,0%)" x1="301.134280279" x2="305.832093837" y1="647.50985136" y2="651.747848569" /><line stroke="rgb(0%,0%,0%)" x1="298.357928712" x2="296.22110531" y1="524.842727149" y2="525.820402182" /><line stroke="rgb(0%,0%,0%)" x1="294.961467765" x2="286.981559503" y1="526.416700634" y2="524.615316199" /><line stroke="rgb(0%,0%,0%)" x1="296.22110531" x2="294.961467765" y1="525.820402182" y2="526.416700634" /><line stroke="rgb(0%,0%,0%)" x1="298.575011647" x2="298.357928712" y1="523.484277666" y2="524.842727149" /><line stroke="rgb(0%,0%,0%)" x1="296.898650181" x2="298.05160736" y1="519.486244607" y2="521.948503114" /><line stroke="rgb(0%,0%,0%)" x1="323.928311103" x2="327.052534767" y1="657.424551303" y2="658.001253213" /><line stroke="rgb(0%,0%,0%)" x1="331.602436463" x2="333.125374195" y1="713.64962972" y2="717.413450707" /><line stroke="rgb(0%,0%,0%)" x1="338.55068933" x2="337.833450554" y1="678.583074488" y2="687.253613054" /><line stroke="rgb(0%,0%,0%)" x1="336.890129666" x2="337.01552618" y1="663.947210778" y2="664.542949917" /><line stroke="rgb(0%,0%,0%)" x1="336.645902347" x2="336.890129666" y1="663.654827673" y2="663.947210778" /><line stroke="rgb(0%,0%,0%)" x1="327.052534767" x2="330.847270336" y1="658.001253213" y2="658.895609076" /><line stroke="rgb(0%,0%,0%)" x1="341.357913703" x2="342.520326922" y1="733.601712939" y2="735.002368918" /><line stroke="rgb(0%,0%,0%)" x1="337.762105583" x2="336.895187957" y1="691.175661746" y2="694.71119047" /><line stroke="rgb(0%,0%,0%)" x1="337.833450554" x2="337.762105583" y1="687.253613054" y2="691.175661746" /><line stroke="rgb(0%,0%,0%)" x1="224.291504741" x2="225.161235543" y1="513.816315541" y2="515.33908395" /><line stroke="rgb(0%,0%,0%)" x1="243.221405097" x2="241.600378631" y1="497.502424408" y2="496.675563808" /><line stroke="rgb(0%,0%,0%)" x1="246.723494915" x2="250.409774054" y1="542.375680907" y2="545.521964762" /><line stroke="rgb(0%,0%,0%)" x1="240.814042154" x2="246.723494915" y1="536.643166413" y2="542.375680907" /><line stroke="rgb(0%,0%,0%)" x1="243.221405097" x2="250.399069878" y1="497.502424408" y2="502.686545591" /><line stroke="rgb(0%,0%,0%)" x1="267.006725423" x2="269.914881947" y1="597.268410736" y2="603.700910979" /><line stroke="rgb(0%,0%,0%)" x1="268.870624995" x2="266.548708394" y1="579.424090701" y2="583.421890374" /><line stroke="rgb(0%,0%,0%)" x1="268.870624995" x2="269.693493369" y1="579.424090701" y2="578.290816752" /><line stroke="rgb(0%,0%,0%)" x1="250.409774054" x2="260.546132102" y1="545.521964762" y2="552.726094725" /><line stroke="rgb(0%,0%,0%)" x1="268.072762739" x2="250.399069878" y1="515.470819175" y2="502.686545591" /><line stroke="rgb(0%,0%,0%)" x1="259.005272771" x2="261.416313442" y1="473.549396688" y2="479.346861836" /><line stroke="rgb(0%,0%,0%)" x1="261.416313442" x2="263.93256497" y1="479.346861836" y2="484.526758982" /><line stroke="rgb(0%,0%,0%)" x1="259.708135699" x2="259.005272771" y1="467.081114267" y2="473.549396688" /><line stroke="rgb(0%,0%,0%)" x1="258.661180613" x2="260.489700621" y1="463.942067928" y2="453.967345932" /><line stroke="rgb(0%,0%,0%)" x1="258.661180613" x2="259.708135699" y1="463.942067928" y2="467.081114267" /><line stroke="rgb(0%,0%,0%)" x1="286.552389825" x2="270.879760545" y1="628.528278971" y2="605.733260542" /><line stroke="rgb(0%,0%,0%)" x1="266.548708394" x2="267.24165359" y1="583.421890374" y2="592.303898454" /><line stroke="rgb(0%,0%,0%)" x1="267.24165359" x2="267.006725423" y1="592.303898454" y2="597.268410736" /><line stroke="rgb(0%,0%,0%)" x1="277.42651717" x2="273.024946763" y1="575.219119831" y2="576.84458232" /><line stroke="rgb(0%,0%,0%)" x1="271.14685541" x2="273.024946763" y1="577.671464486" y2="576.84458232" /><line stroke="rgb(0%,0%,0%)" x1="278.198162071" x2="277.42651717" y1="574.797119909" y2="575.219119831" /><line stroke="rgb(0%,0%,0%)" x1="270.358202388" x2="269.693493369" y1="578.139743621" y2="578.290816752" /><line stroke="rgb(0%,0%,0%)" x1="270.358202388" x2="271.14685541" y1="578.139743621" y2="577.671464486" /><line stroke="rgb(0%,0%,0%)" x1="278.17398017" x2="278.198162071" y1="574.379619162" y2="574.797119909" /><line stroke="rgb(0%,0%,0%)" x1="278.015018511" x2="278.072645649" y1="573.114466657" y2="573.850817877" /><line stroke="rgb(0%,0%,0%)" x1="276.023972537" x2="278.015018511" y1="571.080395897" y2="573.114466657" /><line stroke="rgb(0%,0%,0%)" x1="273.871687487" x2="276.023972537" y1="568.246408454" y2="571.080395897" /><line stroke="rgb(0%,0%,0%)" x1="273.871687487" x2="270.667600332" y1="568.246408454" y2="563.606446574" /><line stroke="rgb(0%,0%,0%)" x1="268.603785846" x2="268.072762739" y1="515.753151764" y2="515.470819175" /><line stroke="rgb(0%,0%,0%)" x1="269.307592363" x2="274.217168861" y1="489.716067234" y2="492.83363875" /><line stroke="rgb(0%,0%,0%)" x1="269.307592363" x2="264.72692674" y1="489.716067234" y2="485.560521546" /><line stroke="rgb(0%,0%,0%)" x1="286.981559503" x2="283.055716096" y1="524.615316199" y2="523.56294141" /><line stroke="rgb(0%,0%,0%)" x1="283.055716096" x2="268.603785846" y1="523.56294141" y2="515.753151764" /><line stroke="rgb(0%,0%,0%)" x1="286.552389825" x2="294.590434661" y1="628.528278971" y2="638.584586521" /><line stroke="rgb(0%,0%,0%)" x1="298.05160736" x2="298.575011647" y1="521.948503114" y2="523.484277666" /><line stroke="rgb(0%,0%,0%)" x1="296.747982066" x2="296.898650181" y1="517.971527274" y2="519.486244607" /><line stroke="rgb(0%,0%,0%)" x1="218.974420136" x2="224.291504741" y1="507.559323346" y2="513.816315541" /><line stroke="rgb(0%,0%,0%)" x1="218.974420136" x2="215.443723781" y1="507.559323346" y2="503.279358074" /><line stroke="rgb(0%,0%,0%)" x1="213.994568408" x2="213.265132011" y1="487.110482716" y2="488.797913456" /><line stroke="rgb(0%,0%,0%)" x1="219.811752484" x2="226.285734759" y1="487.150030614" y2="489.296005519" /><line stroke="rgb(0%,0%,0%)" x1="217.54699035" x2="219.811752484" y1="487.099919713" y2="487.150030614" /><line stroke="rgb(0%,0%,0%)" x1="217.54699035" x2="213.994568408" y1="487.099919713" y2="487.110482716" /><line stroke="rgb(0%,0%,0%)" x1="236.16338038" x2="239.718998076" y1="530.680190847" y2="535.048227749" /><line stroke="rgb(0%,0%,0%)" x1="233.369788254" x2="236.16338038" y1="527.304717161" y2="530.680190847" /><line stroke="rgb(0%,0%,0%)" x1="230.063833258" x2="233.369788254" y1="523.244483683" y2="527.304717161" /><line stroke="rgb(0%,0%,0%)" x1="230.063833258" x2="229.031649739" y1="523.244483683" y2="521.22680329" /><line stroke="rgb(0%,0%,0%)" x1="225.161235543" x2="229.031649739" y1="515.33908395" y2="521.22680329" /><line stroke="rgb(0%,0%,0%)" x1="241.600378631" x2="228.559448674" y1="496.675563808" y2="490.158615157" /><line stroke="rgb(0%,0%,0%)" x1="228.559448674" x2="226.285734759" y1="490.158615157" y2="489.296005519" /><line stroke="rgb(0%,0%,0%)" x1="261.123366176" x2="265.932653091" y1="553.244296851" y2="558.312926036" /><line stroke="rgb(0%,0%,0%)" x1="263.93256497" x2="264.72692674" y1="484.526758982" y2="485.560521546" /><line stroke="rgb(0%,0%,0%)" x1="260.313258732" x2="260.489700621" y1="451.811299493" y2="453.967345932" /><line stroke="rgb(0%,0%,0%)" x1="265.932653091" x2="270.667600332" y1="558.312926036" y2="563.606446574" /><line stroke="rgb(0%,0%,0%)" x1="269.914881947" x2="270.129063033" y1="603.700910979" y2="604.275729046" /><line stroke="rgb(0%,0%,0%)" x1="270.129063033" x2="270.300914822" y1="604.275729046" y2="604.754018001" /><line stroke="rgb(0%,0%,0%)" x1="270.300914822" x2="270.879760545" y1="604.754018001" y2="605.733260542" /><line stroke="rgb(0%,0%,0%)" x1="214.614993728" x2="215.443723781" y1="501.714379117" y2="503.279358074" /><line stroke="rgb(0%,0%,0%)" x1="212.754607749" x2="213.056388787" y1="499.467335129" y2="500.106291989" /><line stroke="rgb(0%,0%,0%)" x1="214.614993728" x2="213.056388787" y1="501.714379117" y2="500.106291989" /><line stroke="rgb(0%,0%,0%)" x1="212.550754202" x2="212.754607749" y1="498.419403793" y2="499.467335129" /><line stroke="rgb(0%,0%,0%)" x1="211.694408529" x2="212.550754202" y1="494.634340315" y2="498.419403793" /><line stroke="rgb(0%,0%,0%)" x1="212.452644822" x2="211.694408529" y1="492.370439835" y2="494.634340315" /><line stroke="rgb(0%,0%,0%)" x1="213.289719904" x2="212.452644822" y1="490.810606485" y2="492.370439835" /><line stroke="rgb(0%,0%,0%)" x1="213.265132011" x2="213.289719904" y1="488.797913456" y2="490.810606485" /><line stroke="rgb(0%,0%,0%)" x1="670.420146039" x2="670.62878016" y1="392.535159412" y2="393.384905449" /><line stroke="rgb(0%,0%,0%)" x1="670.316692059" x2="670.420146039" y1="392.037530478" y2="392.535159412" /><line stroke="rgb(0%,0%,0%)" x1="673.161264937" x2="673.779861831" y1="420.811124686" y2="423.609871949" /><line stroke="rgb(0%,0%,0%)" x1="673.161264937" x2="672.769295471" y1="420.811124686" y2="416.266052279" /><line stroke="rgb(0%,0%,0%)" x1="670.316692059" x2="669.801119561" y1="392.037530478" y2="388.868203888" /><line stroke="rgb(0%,0%,0%)" x1="677.008830593" x2="676.603030634" y1="457.261194972" y2="445.879086481" /><line stroke="rgb(0%,0%,0%)" x1="672.769295471" x2="672.251091788" y1="416.266052279" y2="409.882286032" /><line stroke="rgb(0%,0%,0%)" x1="583.092256376" x2="584.093345334" y1="183.738986591" y2="185.769910195" /><line stroke="rgb(0%,0%,0%)" x1="583.092256376" x2="582.901875271" y1="183.738986591" y2="183.475666743" /><line stroke="rgb(0%,0%,0%)" x1="525.164967556" x2="523.385989786" y1="155.162942627" y2="154.175964792" /><line stroke="rgb(0%,0%,0%)" x1="525.164967556" x2="529.443371056" y1="155.162942627" y2="156.376349866" /><line stroke="rgb(0%,0%,0%)" x1="251.702795947" x2="246.741995555" y1="358.271998764" y2="361.077979017" /><line stroke="rgb(0%,0%,0%)" x1="251.702795947" x2="253.45675215" y1="358.271998764" y2="357.078226816" /><line stroke="rgb(0%,0%,0%)" x1="668.756337782" x2="668.446883748" y1="512.215854534" y2="514.78914106" /><line stroke="rgb(0%,0%,0%)" x1="655.359354898" x2="655.491938553" y1="566.439455126" y2="567.201083789" /><line stroke="rgb(0%,0%,0%)" x1="655.359354898" x2="656.311139735" y1="566.439455126" y2="564.044132893" /><line stroke="rgb(0%,0%,0%)" x1="668.756337782" x2="669.081936711" y1="512.215854534" y2="512.400937737" /><line stroke="rgb(0%,0%,0%)" x1="673.357988522" x2="673.814670493" y1="490.957740097" y2="487.133966708" /><line stroke="rgb(0%,0%,0%)" x1="673.814670493" x2="674.978392018" y1="487.133966708" y2="480.312397392" /><line stroke="rgb(0%,0%,0%)" x1="653.341432022" x2="653.145333386" y1="575.124733894" y2="575.999788448" /><line stroke="rgb(0%,0%,0%)" x1="653.341432022" x2="653.397030801" y1="575.124733894" y2="575.02432469" /><line stroke="rgb(0%,0%,0%)" x1="664.560246705" x2="663.621004157" y1="530.682954816" y2="534.350458939" /><line stroke="rgb(0%,0%,0%)" x1="664.560246705" x2="664.702248856" y1="530.682954816" y2="529.890841283" /><line stroke="rgb(0%,0%,0%)" x1="666.927356862" x2="665.767379386" y1="520.245231068" y2="524.404611459" /><line stroke="rgb(0%,0%,0%)" x1="666.927356862" x2="668.446883748" y1="520.245231068" y2="514.78914106" /><line stroke="rgb(0%,0%,0%)" x1="673.357988522" x2="672.784507516" y1="490.957740097" y2="495.806241535" /><line stroke="rgb(0%,0%,0%)" x1="674.978392018" x2="675.395714566" y1="480.312397392" y2="477.738412267" /><line stroke="rgb(0%,0%,0%)" x1="625.1962245" x2="624.35630413" y1="646.79139732" y2="648.93891246" /><line stroke="rgb(0%,0%,0%)" x1="625.1962245" x2="628.477189957" y1="646.79139732" y2="638.947368622" /><line stroke="rgb(0%,0%,0%)" x1="570.762230941" x2="570.735789804" y1="740.698335517" y2="741.163871662" /><line stroke="rgb(0%,0%,0%)" x1="570.762230941" x2="576.655416409" y1="740.698335517" y2="733.328019552" /><line stroke="rgb(0%,0%,0%)" x1="307.807755585" x2="309.961138541" y1="653.521007145" y2="654.208012983" /><line stroke="rgb(0%,0%,0%)" x1="307.807755585" x2="305.832093837" y1="653.521007145" y2="651.747848569" /><line stroke="rgb(0%,0%,0%)" x1="318.794649185" x2="323.928311103" y1="656.776106247" y2="657.424551303" /><line stroke="rgb(0%,0%,0%)" x1="309.961138541" x2="318.794649185" y1="654.208012983" y2="656.776106247" /></svg>