<?xml version="1.0" encoding="utf-8" ?>
<svg baseProfile="full" height="100%" version="1.1" viewBox="0.5 0.5 685.793960571 941.299331665" width="100%" xmlns="http://www.w3.org/2000/svg" xmlns:ev="http://www.w3.org/2001/xml-events" xmlns:xlink="http://www.w3.org/1999/xlink"><defs /><line stroke="rgb(0%,0%,0%)" x1="667.155560736" x2="666.106990016" y1="382.652114" y2="377.237402287" /><line stroke="rgb(0%,0%,0%)" x1="657.877678681" x2="659.13168593" y1="346.61584335" y2="350.015348545" /><line stroke="rgb(0%,0%,0%)" x1="674.300889495" x2="674.971435816" y1="429.314361045" y2="434.247112353" /><line stroke="rgb(0%,0%,0%)" x1="620.05143566" x2="619.090652173" y1="243.523369831" y2="241.365662092" /><line stroke="rgb(0%,0%,0%)" x1="646.165762328" x2="644.743392027" y1="308.003126629" y2="303.891982114" /><line stroke="rgb(0%,0%,0%)" x1="657.877678681" x2="657.612016469" y1="346.61584335" y2="345.534453398" /><line stroke="rgb(0%,0%,0%)" x1="650.750486077" x2="652.963194058" y1="324.414297159" y2="329.724190373" /><line stroke="rgb(0%,0%,0%)" x1="647.322591559" x2="646.165762328" y1="311.839334086" y2="308.003126629" /><line stroke="rgb(0%,0%,0%)" x1="669.682096953" x2="667.155560736" y1="389.472710989" y2="382.652114" /><line stroke="rgb(0%,0%,0%)" x1="666.106990016" x2="666.404648078" y1="377.237402287" y2="375.541652177" /><line stroke="rgb(0%,0%,0%)" x1="665.173814148" x2="664.235711518" y1="373.406536831" y2="364.883611923" /><line stroke="rgb(0%,0%,0%)" x1="670.148510366" x2="671.281696128" y1="397.089167594" y2="405.820143128" /><line stroke="rgb(0%,0%,0%)" x1="610.191049828" x2="607.473561897" y1="224.042430832" y2="218.901211747" /><line stroke="rgb(0%,0%,0%)" x1="619.090652173" x2="610.191049828" y1="241.365662092" y2="224.042430832" /><line stroke="rgb(0%,0%,0%)" x1="629.990399911" x2="628.746564475" y1="265.494941576" y2="261.967681756" /><line stroke="rgb(0%,0%,0%)" x1="623.202541887" x2="628.746564475" y1="251.770103854" y2="261.967681756" /><line stroke="rgb(0%,0%,0%)" x1="623.202541887" x2="620.05143566" y1="251.770103854" y2="243.523369831" /><line stroke="rgb(0%,0%,0%)" x1="644.743392027" x2="638.360014554" y1="303.891982114" y2="285.437239212" /><line stroke="rgb(0%,0%,0%)" x1="638.360014554" x2="636.380544457" y1="285.437239212" y2="278.335759485" /><line stroke="rgb(0%,0%,0%)" x1="636.380544457" x2="634.554505098" y1="278.335759485" y2="274.245233522" /><line stroke="rgb(0%,0%,0%)" x1="634.554505098" x2="629.990399911" y1="274.245233522" y2="265.494941576" /><line stroke="rgb(0%,0%,0%)" x1="650.750486077" x2="647.322591559" y1="324.414297159" y2="311.839334086" /><line stroke="rgb(0%,0%,0%)" x1="665.173814148" x2="666.404648078" y1="373.406536831" y2="375.541652177" /><line stroke="rgb(0%,0%,0%)" x1="664.235711518" x2="663.963711434" y1="364.883611923" y2="363.598024904" /><line stroke="rgb(0%,0%,0%)" x1="663.963711434" x2="663.762615425" y1="363.598024904" y2="362.923148663" /><line stroke="rgb(0%,0%,0%)" x1="663.762615425" x2="659.13168593" y1="362.923148663" y2="350.015348545" /><line stroke="rgb(0%,0%,0%)" x1="657.612016469" x2="654.223801293" y1="345.534453398" y2="333.884721205" /><line stroke="rgb(0%,0%,0%)" x1="676.407958929" x2="676.167932625" y1="446.414010613" y2="440.938273478" /><line stroke="rgb(0%,0%,0%)" x1="676.167932625" x2="675.675197126" y1="440.938273478" y2="439.847821671" /><line stroke="rgb(0%,0%,0%)" x1="675.675197126" x2="674.971435816" y1="439.847821671" y2="434.247112353" /><line stroke="rgb(0%,0%,0%)" x1="674.300889495" x2="673.498705309" y1="429.314361045" y2="423.389765262" /><line stroke="rgb(0%,0%,0%)" x1="672.071792124" x2="671.497911576" y1="410.576802685" y2="407.400335967" /><line stroke="rgb(0%,0%,0%)" x1="671.497911576" x2="671.244771709" y1="407.400335967" y2="406.569001237" /><line stroke="rgb(0%,0%,0%)" x1="671.244771709" x2="671.281696128" y1="406.569001237" y2="405.820143128" /><line stroke="rgb(0%,0%,0%)" x1="670.148510366" x2="670.362085035" y1="397.089167594" y2="393.183535486" /><line stroke="rgb(0%,0%,0%)" x1="576.612135011" x2="582.714039778" y1="177.449715846" y2="184.092200012" /><line stroke="rgb(0%,0%,0%)" x1="576.612135011" x2="572.502742454" y1="177.449715846" y2="173.857387437" /><line stroke="rgb(0%,0%,0%)" x1="598.808309059" x2="591.47485308" y1="205.444902758" y2="197.538683845" /><line stroke="rgb(0%,0%,0%)" x1="591.47485308" x2="587.541675385" y1="197.538683845" y2="193.863548134" /><line stroke="rgb(0%,0%,0%)" x1="600.72745529" x2="606.491056047" y1="208.576089201" y2="217.3592912" /><line stroke="rgb(0%,0%,0%)" x1="600.72745529" x2="598.808309059" y1="208.576089201" y2="205.444902758" /><line stroke="rgb(0%,0%,0%)" x1="607.473561897" x2="607.243133264" y1="218.901211747" y2="218.430688541" /><line stroke="rgb(0%,0%,0%)" x1="556.125810623" x2="562.257205907" y1="167.501610559" y2="169.803164572" /><line stroke="rgb(0%,0%,0%)" x1="556.125810623" x2="542.598457464" y1="167.501610559" y2="162.292705456" /><line stroke="rgb(0%,0%,0%)" x1="566.71598169" x2="562.257205907" y1="171.565424986" y2="169.803164572" /><line stroke="rgb(0%,0%,0%)" x1="572.502742454" x2="566.71598169" y1="173.857387437" y2="171.565424986" /><line stroke="rgb(0%,0%,0%)" x1="583.225839322" x2="582.714039778" y1="185.007428239" y2="184.092200012" /><line stroke="rgb(0%,0%,0%)" x1="587.541675385" x2="583.225839322" y1="193.863548134" y2="185.007428239" /><line stroke="rgb(0%,0%,0%)" x1="606.911524201" x2="606.491056047" y1="217.899347183" y2="217.3592912" /><line stroke="rgb(0%,0%,0%)" x1="607.243133264" x2="606.911524201" y1="218.430688541" y2="217.899347183" /><line stroke="rgb(0%,0%,0%)" x1="654.223801293" x2="653.73122921" y1="333.884721205" y2="332.868438062" /><line stroke="rgb(0%,0%,0%)" x1="653.73122921" x2="653.234977689" y1="332.868438062" y2="331.643598569" /><line stroke="rgb(0%,0%,0%)" x1="653.234977689" x2="652.963194058" y1="331.643598569" y2="329.724190373" /><line stroke="rgb(0%,0%,0%)" x1="523.251899183" x2="515.057366089" y1="154.798646999" y2="151.986308573" /><line stroke="rgb(0%,0%,0%)" x1="542.598457464" x2="528.502706714" y1="162.292705456" y2="156.706038659" /><line stroke="rgb(0%,0%,0%)" x1="486.235489165" x2="497.154502324" y1="142.179118617" y2="146.049517708" /><line stroke="rgb(0%,0%,0%)" x1="515.057366089" x2="503.338705902" y1="151.986308573" y2="148.621970755" /><line stroke="rgb(0%,0%,0%)" x1="503.338705902" x2="497.154502324" y1="148.621970755" y2="146.049517708" /><line stroke="rgb(0%,0%,0%)" x1="474.385201423" x2="466.235603668" y1="140.973381826" y2="140.603633994" /><line stroke="rgb(0%,0%,0%)" x1="466.235603668" x2="454.271253447" y1="140.603633994" y2="136.962750523" /><line stroke="rgb(0%,0%,0%)" x1="478.216790906" x2="475.684638649" y1="141.871339769" y2="141.405887516" /><line stroke="rgb(0%,0%,0%)" x1="486.235489165" x2="478.216790906" y1="142.179118617" y2="141.871339769" /><line stroke="rgb(0%,0%,0%)" x1="414.033583932" x2="413.438055286" y1="125.960068735" y2="125.912605959" /><line stroke="rgb(0%,0%,0%)" x1="421.370787313" x2="420.599323274" y1="127.236450806" y2="126.988927522" /><line stroke="rgb(0%,0%,0%)" x1="420.599323274" x2="414.033583932" y1="126.988927522" y2="125.960068735" /><line stroke="rgb(0%,0%,0%)" x1="430.38958405" x2="424.47254755" y1="128.678932367" y2="128.033080866" /><line stroke="rgb(0%,0%,0%)" x1="421.370787313" x2="424.47254755" y1="127.236450806" y2="128.033080866" /><line stroke="rgb(0%,0%,0%)" x1="430.38958405" x2="441.653457153" y1="128.678932367" y2="133.104698325" /><line stroke="rgb(0%,0%,0%)" x1="443.353552068" x2="454.127735849" y1="133.488241662" y2="136.921151317" /><line stroke="rgb(0%,0%,0%)" x1="454.271253447" x2="454.127735849" y1="136.962750523" y2="136.921151317" /><line stroke="rgb(0%,0%,0%)" x1="475.684638649" x2="474.385201423" y1="141.405887516" y2="140.973381826" /><line stroke="rgb(0%,0%,0%)" x1="372.953920213" x2="376.256328821" y1="139.078332326" y2="136.769783499" /><line stroke="rgb(0%,0%,0%)" x1="372.953920213" x2="370.81896607" y1="139.078332326" y2="139.285558365" /><line stroke="rgb(0%,0%,0%)" x1="391.084287596" x2="397.358025913" y1="127.297858991" y2="126.483523758" /><line stroke="rgb(0%,0%,0%)" x1="399.975628698" x2="397.358025913" y1="125.951599029" y2="126.483523758" /><line stroke="rgb(0%,0%,0%)" x1="391.084287596" x2="385.918553919" y1="127.297858991" y2="131.598858394" /><line stroke="rgb(0%,0%,0%)" x1="413.438055286" x2="405.969487859" y1="125.912605959" y2="124.551020327" /><line stroke="rgb(0%,0%,0%)" x1="405.969487859" x2="402.008615547" y1="124.551020327" y2="125.945280869" /><line stroke="rgb(0%,0%,0%)" x1="402.008615547" x2="399.975628698" y1="125.945280869" y2="125.951599029" /><line stroke="rgb(0%,0%,0%)" x1="443.353552068" x2="441.653457153" y1="133.488241662" y2="133.104698325" /><line stroke="rgb(0%,0%,0%)" x1="339.719693801" x2="338.801574673" y1="155.987238172" y2="156.177274876" /><line stroke="rgb(0%,0%,0%)" x1="347.102442008" x2="349.334281843" y1="154.886295799" y2="153.882876244" /><line stroke="rgb(0%,0%,0%)" x1="347.102442008" x2="339.719693801" y1="154.886295799" y2="155.987238172" /><line stroke="rgb(0%,0%,0%)" x1="356.131467285" x2="356.554526165" y1="153.527365247" y2="152.387539977" /><line stroke="rgb(0%,0%,0%)" x1="356.131467285" x2="349.334281843" y1="153.527365247" y2="153.882876244" /><line stroke="rgb(0%,0%,0%)" x1="362.18225466" x2="362.87174185" y1="152.027381416" y2="150.66879766" /><line stroke="rgb(0%,0%,0%)" x1="362.18225466" x2="356.554526165" y1="152.027381416" y2="152.387539977" /><line stroke="rgb(0%,0%,0%)" x1="362.87174185" x2="367.54413441" y1="150.66879766" y2="143.906905379" /><line stroke="rgb(0%,0%,0%)" x1="370.304622063" x2="367.54413441" y1="140.394945004" y2="143.906905379" /><line stroke="rgb(0%,0%,0%)" x1="370.81896607" x2="370.304622063" y1="139.285558365" y2="140.394945004" /><line stroke="rgb(0%,0%,0%)" x1="381.706526485" x2="376.256328821" y1="132.356853335" y2="136.769783499" /><line stroke="rgb(0%,0%,0%)" x1="381.706526485" x2="385.850982232" y1="132.356853335" y2="131.626419261" /><line stroke="rgb(0%,0%,0%)" x1="385.918553919" x2="385.850982232" y1="131.598858394" y2="131.626419261" /><line stroke="rgb(0%,0%,0%)" x1="314.159388808" x2="305.781325184" y1="248.122404045" y2="254.751326217" /><line stroke="rgb(0%,0%,0%)" x1="317.114503913" x2="316.680672061" y1="211.542755778" y2="209.282627918" /><line stroke="rgb(0%,0%,0%)" x1="317.114503913" x2="317.815718205" y1="211.542755778" y2="213.129352571" /><line stroke="rgb(0%,0%,0%)" x1="320.534132509" x2="320.14120942" y1="181.226752885" y2="183.108440989" /><line stroke="rgb(0%,0%,0%)" x1="320.534132509" x2="320.7026374" y1="181.226752885" y2="180.627872691" /><line stroke="rgb(0%,0%,0%)" x1="321.093874481" x2="322.467760606" y1="244.743373738" y2="244.324279459" /><line stroke="rgb(0%,0%,0%)" x1="322.467760606" x2="323.997576383" y1="244.324279459" y2="243.247907507" /><line stroke="rgb(0%,0%,0%)" x1="317.815718205" x2="319.112210369" y1="213.129352571" y2="216.379151417" /><line stroke="rgb(0%,0%,0%)" x1="326.059825358" x2="323.77928933" y1="234.969468648" y2="228.240069864" /><line stroke="rgb(0%,0%,0%)" x1="320.7026374" x2="321.698858964" y1="180.627872691" y2="178.08758632" /><line stroke="rgb(0%,0%,0%)" x1="330.461939912" x2="328.894352392" y1="161.461795873" y2="163.044792603" /><line stroke="rgb(0%,0%,0%)" x1="330.461939912" x2="332.018686711" y1="161.461795873" y2="160.876652387" /><line stroke="rgb(0%,0%,0%)" x1="338.801574673" x2="332.018686711" y1="156.177274876" y2="160.876652387" /><line stroke="rgb(0%,0%,0%)" x1="271.449885381" x2="271.483790031" y1="338.530280712" y2="339.012637464" /><line stroke="rgb(0%,0%,0%)" x1="271.300440703" x2="271.449885381" y1="338.293838721" y2="338.530280712" /><line stroke="rgb(0%,0%,0%)" x1="288.755971191" x2="288.629619701" y1="388.432703829" y2="387.961332498" /><line stroke="rgb(0%,0%,0%)" x1="321.093874481" x2="314.159388808" y1="244.743373738" y2="248.122404045" /><line stroke="rgb(0%,0%,0%)" x1="305.781325184" x2="302.956934902" y1="254.751326217" y2="257.373844595" /><line stroke="rgb(0%,0%,0%)" x1="319.112210369" x2="321.651138238" y1="216.379151417" y2="222.692388859" /><line stroke="rgb(0%,0%,0%)" x1="321.651138238" x2="323.77928933" y1="222.692388859" y2="228.240069864" /><line stroke="rgb(0%,0%,0%)" x1="316.307658057" x2="316.680672061" y1="203.870585067" y2="209.282627918" /><line stroke="rgb(0%,0%,0%)" x1="320.14120942" x2="316.307658057" y1="183.108440989" y2="203.870585067" /><line stroke="rgb(0%,0%,0%)" x1="326.08897808" x2="323.997576383" y1="241.207276512" y2="243.247907507" /><line stroke="rgb(0%,0%,0%)" x1="326.365981155" x2="326.08897808" y1="238.76431925" y2="241.207276512" /><line stroke="rgb(0%,0%,0%)" x1="326.059825358" x2="326.365981155" y1="234.969468648" y2="238.76431925" /><line stroke="rgb(0%,0%,0%)" x1="326.29956485" x2="321.698858964" y1="167.063839251" y2="178.08758632" /><line stroke="rgb(0%,0%,0%)" x1="328.894352392" x2="326.29956485" y1="163.044792603" y2="167.063839251" /><line stroke="rgb(0%,0%,0%)" x1="253.118544749" x2="252.435368757" y1="321.29513979" y2="323.177744878" /><line stroke="rgb(0%,0%,0%)" x1="253.118544749" x2="256.462602307" y1="321.29513979" y2="316.254874544" /><line stroke="rgb(0%,0%,0%)" x1="262.690643874" x2="256.462602307" y1="304.820251154" y2="316.254874544" /><line stroke="rgb(0%,0%,0%)" x1="273.023622618" x2="272.833047703" y1="412.897930954" y2="413.49200034" /><line stroke="rgb(0%,0%,0%)" x1="273.194312052" x2="273.023622618" y1="412.635734977" y2="412.897930954" /><line stroke="rgb(0%,0%,0%)" x1="278.303290447" x2="275.666790175" y1="382.830862237" y2="383.503170186" /><line stroke="rgb(0%,0%,0%)" x1="278.303290447" x2="279.595080735" y1="382.830862237" y2="382.541418358" /><line stroke="rgb(0%,0%,0%)" x1="259.025841199" x2="265.109506594" y1="352.736457949" y2="348.463066564" /><line stroke="rgb(0%,0%,0%)" x1="271.483790031" x2="270.80933122" y1="339.012637464" y2="342.827323576" /><line stroke="rgb(0%,0%,0%)" x1="271.300440703" x2="270.825516062" y1="338.293838721" y2="338.349485477" /><line stroke="rgb(0%,0%,0%)" x1="281.329415313" x2="280.205689338" y1="402.538129393" y2="403.733726468" /><line stroke="rgb(0%,0%,0%)" x1="281.329415313" x2="285.291643286" y1="402.538129393" y2="397.223823583" /><line stroke="rgb(0%,0%,0%)" x1="286.134124468" x2="285.291643286" y1="396.06234621" y2="397.223823583" /><line stroke="rgb(0%,0%,0%)" x1="287.948871657" x2="286.248298573" y1="384.434101747" y2="383.737550008" /><line stroke="rgb(0%,0%,0%)" x1="284.451557673" x2="286.248298573" y1="382.69104017" y2="383.737550008" /><line stroke="rgb(0%,0%,0%)" x1="279.595080735" x2="284.451557673" y1="382.541418358" y2="382.69104017" /><line stroke="rgb(0%,0%,0%)" x1="278.604552263" x2="269.377151576" y1="289.829604223" y2="298.567560206" /><line stroke="rgb(0%,0%,0%)" x1="269.377151576" x2="262.690643874" y1="298.567560206" y2="304.820251154" /><line stroke="rgb(0%,0%,0%)" x1="288.755971191" x2="287.859354931" y1="388.432703829" y2="391.046539684" /><line stroke="rgb(0%,0%,0%)" x1="287.859354931" x2="286.134124468" y1="391.046539684" y2="396.06234621" /><line stroke="rgb(0%,0%,0%)" x1="287.948871657" x2="288.629619701" y1="384.434101747" y2="387.961332498" /><line stroke="rgb(0%,0%,0%)" x1="302.956934902" x2="293.792707384" y1="257.373844595" y2="267.178614817" /><line stroke="rgb(0%,0%,0%)" x1="214.61065715" x2="214.497511896" y1="400.784067317" y2="401.008081164" /><line stroke="rgb(0%,0%,0%)" x1="214.497511896" x2="214.195701893" y1="401.008081164" y2="401.350190563" /><line stroke="rgb(0%,0%,0%)" x1="227.297503718" x2="229.07641592" y1="380.264495107" y2="377.671599017" /><line stroke="rgb(0%,0%,0%)" x1="235.675339651" x2="241.132351148" y1="370.076111269" y2="364.506412575" /><line stroke="rgb(0%,0%,0%)" x1="251.248687343" x2="251.314740037" y1="327.985124671" y2="331.392491218" /><line stroke="rgb(0%,0%,0%)" x1="251.314740037" x2="252.449593654" y1="331.392491218" y2="333.50764437" /><line stroke="rgb(0%,0%,0%)" x1="247.023261818" x2="257.568525519" y1="399.849539518" y2="391.320514671" /><line stroke="rgb(0%,0%,0%)" x1="265.715728737" x2="257.568525519" y1="387.052579948" y2="391.320514671" /><line stroke="rgb(0%,0%,0%)" x1="265.715728737" x2="270.469482351" y1="387.052579948" y2="384.887031711" /><line stroke="rgb(0%,0%,0%)" x1="255.025535737" x2="252.875959795" y1="355.139101184" y2="356.815233277" /><line stroke="rgb(0%,0%,0%)" x1="259.025841199" x2="255.025535737" y1="352.736457949" y2="355.139101184" /><line stroke="rgb(0%,0%,0%)" x1="261.048154466" x2="253.21595602" y1="336.976683735" y2="335.264479247" /><line stroke="rgb(0%,0%,0%)" x1="252.449593654" x2="253.21595602" y1="333.50764437" y2="335.264479247" /><line stroke="rgb(0%,0%,0%)" x1="252.435368757" x2="251.248687343" y1="323.177744878" y2="327.985124671" /><line stroke="rgb(0%,0%,0%)" x1="260.635419834" x2="264.032328242" y1="449.303222983" y2="440.534999713" /><line stroke="rgb(0%,0%,0%)" x1="264.614273357" x2="264.032328242" y1="439.793241816" y2="440.534999713" /><line stroke="rgb(0%,0%,0%)" x1="264.669047717" x2="264.614273357" y1="439.393909087" y2="439.793241816" /><line stroke="rgb(0%,0%,0%)" x1="264.889837688" x2="264.669047717" y1="438.419617504" y2="439.393909087" /><line stroke="rgb(0%,0%,0%)" x1="269.837978006" x2="264.889837688" y1="425.982205572" y2="438.419617504" /><line stroke="rgb(0%,0%,0%)" x1="269.802677808" x2="270.330443897" y1="424.392521606" y2="418.537028591" /><line stroke="rgb(0%,0%,0%)" x1="269.802677808" x2="269.837978006" y1="424.392521606" y2="425.982205572" /><line stroke="rgb(0%,0%,0%)" x1="272.833047703" x2="270.330443897" y1="413.49200034" y2="418.537028591" /><line stroke="rgb(0%,0%,0%)" x1="270.469482351" x2="275.666790175" y1="384.887031711" y2="383.503170186" /><line stroke="rgb(0%,0%,0%)" x1="270.80933122" x2="269.119901589" y1="342.827323576" y2="345.145976567" /><line stroke="rgb(0%,0%,0%)" x1="269.119901589" x2="267.048204526" y1="345.145976567" y2="347.28920682" /><line stroke="rgb(0%,0%,0%)" x1="267.883597257" x2="270.825516062" y1="337.820311361" y2="338.349485477" /><line stroke="rgb(0%,0%,0%)" x1="267.883597257" x2="262.446389718" y1="337.820311361" y2="337.646749687" /><line stroke="rgb(0%,0%,0%)" x1="261.048154466" x2="262.446389718" y1="336.976683735" y2="337.646749687" /><line stroke="rgb(0%,0%,0%)" x1="280.205689338" x2="273.194312052" y1="403.733726468" y2="412.635734977" /><line stroke="rgb(0%,0%,0%)" x1="281.44275341" x2="278.604552263" y1="286.754703271" y2="289.829604223" /><line stroke="rgb(0%,0%,0%)" x1="281.44275341" x2="292.307410564" y1="286.754703271" y2="269.403595344" /><line stroke="rgb(0%,0%,0%)" x1="292.656203888" x2="292.307410564" y1="268.852487705" y2="269.403595344" /><line stroke="rgb(0%,0%,0%)" x1="293.792707384" x2="292.656203888" y1="267.178614817" y2="268.852487705" /><line stroke="rgb(0%,0%,0%)" x1="216.479734636" x2="216.82091079" y1="421.649353273" y2="421.705488003" /><line stroke="rgb(0%,0%,0%)" x1="216.82091079" x2="217.536653056" y1="421.705488003" y2="421.515303731" /><line stroke="rgb(0%,0%,0%)" x1="216.479734636" x2="215.313274659" y1="421.649353273" y2="421.644373555" /><line stroke="rgb(0%,0%,0%)" x1="214.195701893" x2="213.626563793" y1="401.350190563" y2="402.297499507" /><line stroke="rgb(0%,0%,0%)" x1="219.662315525" x2="214.61065715" y1="392.989640565" y2="400.784067317" /><line stroke="rgb(0%,0%,0%)" x1="219.662315525" x2="220.67751515" y1="392.989640565" y2="390.513304663" /><line stroke="rgb(0%,0%,0%)" x1="217.536653056" x2="224.500127885" y1="421.515303731" y2="417.200529479" /><line stroke="rgb(0%,0%,0%)" x1="224.500127885" x2="238.979749964" y1="417.200529479" y2="406.331138741" /><line stroke="rgb(0%,0%,0%)" x1="238.979749964" x2="243.796878165" y1="406.331138741" y2="402.656801956" /><line stroke="rgb(0%,0%,0%)" x1="227.297503718" x2="224.658321209" y1="380.264495107" y2="384.321173216" /><line stroke="rgb(0%,0%,0%)" x1="233.93400405" x2="229.07641592" y1="371.988326464" y2="377.671599017" /><line stroke="rgb(0%,0%,0%)" x1="235.675339651" x2="233.93400405" y1="370.076111269" y2="371.988326464" /><line stroke="rgb(0%,0%,0%)" x1="243.796878165" x2="247.023261818" y1="402.656801956" y2="399.849539518" /><line stroke="rgb(0%,0%,0%)" x1="243.603406447" x2="241.132351148" y1="362.371616542" y2="364.506412575" /><line stroke="rgb(0%,0%,0%)" x1="247.948696974" x2="244.301897913" y1="359.750236212" y2="361.766213542" /><line stroke="rgb(0%,0%,0%)" x1="260.635419834" x2="259.708760428" y1="449.303222983" y2="451.827770837" /><line stroke="rgb(0%,0%,0%)" x1="267.048204526" x2="265.109506594" y1="347.28920682" y2="348.463066564" /><line stroke="rgb(0%,0%,0%)" x1="210.314214474" x2="210.405481724" y1="412.972454987" y2="411.807115259" /><line stroke="rgb(0%,0%,0%)" x1="210.314214474" x2="210.712718134" y1="412.972454987" y2="415.826237356" /><line stroke="rgb(0%,0%,0%)" x1="211.262092234" x2="210.405481724" y1="409.063573763" y2="411.807115259" /><line stroke="rgb(0%,0%,0%)" x1="211.624040285" x2="211.262092234" y1="407.392546313" y2="409.063573763" /><line stroke="rgb(0%,0%,0%)" x1="213.626563793" x2="211.624040285" y1="402.297499507" y2="407.392546313" /><line stroke="rgb(0%,0%,0%)" x1="212.619227171" x2="215.313274659" y1="420.164453202" y2="421.644373555" /><line stroke="rgb(0%,0%,0%)" x1="210.712718134" x2="212.619227171" y1="415.826237356" y2="420.164453202" /><line stroke="rgb(0%,0%,0%)" x1="222.88242477" x2="220.67751515" y1="387.540932837" y2="390.513304663" /><line stroke="rgb(0%,0%,0%)" x1="224.658321209" x2="222.88242477" y1="384.321173216" y2="387.540932837" /><line stroke="rgb(0%,0%,0%)" x1="244.301897913" x2="243.603406447" y1="361.766213542" y2="362.371616542" /><line stroke="rgb(0%,0%,0%)" x1="640.046886633" x2="640.889334817" y1="609.870355276" y2="608.075333398" /><line stroke="rgb(0%,0%,0%)" x1="655.185175872" x2="653.251235702" y1="567.007649655" y2="574.229771877" /><line stroke="rgb(0%,0%,0%)" x1="664.415595356" x2="665.524589299" y1="529.92001878" y2="524.207859121" /><line stroke="rgb(0%,0%,0%)" x1="668.771980523" x2="669.602905032" y1="512.450978962" y2="509.930946229" /><line stroke="rgb(0%,0%,0%)" x1="672.606522808" x2="670.602463523" y1="495.362266335" y2="504.656616934" /><line stroke="rgb(0%,0%,0%)" x1="675.520937219" x2="676.454502683" y1="472.789658828" y2="468.253992778" /><line stroke="rgb(0%,0%,0%)" x1="677.138833681" x2="677.001506572" y1="462.824161715" y2="460.830428283" /><line stroke="rgb(0%,0%,0%)" x1="676.7953069" x2="677.001506572" y1="457.27856724" y2="460.830428283" /><line stroke="rgb(0%,0%,0%)" x1="637.084815354" x2="631.639589485" y1="618.239647508" y2="630.450921387" /><line stroke="rgb(0%,0%,0%)" x1="637.084815354" x2="639.766851906" y1="618.239647508" y2="610.781258972" /><line stroke="rgb(0%,0%,0%)" x1="640.046886633" x2="639.766851906" y1="609.870355276" y2="610.781258972" /><line stroke="rgb(0%,0%,0%)" x1="640.889334817" x2="649.050233299" y1="608.075333398" y2="587.947141525" /><line stroke="rgb(0%,0%,0%)" x1="649.050233299" x2="652.924866075" y1="587.947141525" y2="575.157266685" /><line stroke="rgb(0%,0%,0%)" x1="653.062434828" x2="653.251235702" y1="574.863143339" y2="574.229771877" /><line stroke="rgb(0%,0%,0%)" x1="655.893084768" x2="658.258510937" y1="564.279585199" y2="555.915150518" /><line stroke="rgb(0%,0%,0%)" x1="659.308845963" x2="658.258510937" y1="550.111299181" y2="555.915150518" /><line stroke="rgb(0%,0%,0%)" x1="659.308845963" x2="660.98426119" y1="550.111299181" y2="543.432803192" /><line stroke="rgb(0%,0%,0%)" x1="661.754885124" x2="663.577967141" y1="539.013307102" y2="533.374834865" /><line stroke="rgb(0%,0%,0%)" x1="669.602905032" x2="670.602463523" y1="509.930946229" y2="504.656616934" /><line stroke="rgb(0%,0%,0%)" x1="675.102519391" x2="675.520937219" y1="478.208261341" y2="472.789658828" /><line stroke="rgb(0%,0%,0%)" x1="676.372210621" x2="676.454502683" y1="464.691803173" y2="468.253992778" /><line stroke="rgb(0%,0%,0%)" x1="676.372210621" x2="677.138833681" y1="464.691803173" y2="462.824161715" /><line stroke="rgb(0%,0%,0%)" x1="608.022299538" x2="607.529182623" y1="680.963307484" y2="681.948453444" /><line stroke="rgb(0%,0%,0%)" x1="608.906863152" x2="608.022299538" y1="679.617054723" y2="680.963307484" /><line stroke="rgb(0%,0%,0%)" x1="608.906863152" x2="612.883923863" y1="679.617054723" y2="672.605490218" /><line stroke="rgb(0%,0%,0%)" x1="624.335584855" x2="622.593966393" y1="647.962204089" y2="651.994826241" /><line stroke="rgb(0%,0%,0%)" x1="616.709896969" x2="622.593966393" y1="665.113233268" y2="651.994826241" /><line stroke="rgb(0%,0%,0%)" x1="652.924866075" x2="653.062434828" y1="575.157266685" y2="574.863143339" /><line stroke="rgb(0%,0%,0%)" x1="660.98426119" x2="661.491803744" y1="543.432803192" y2="540.368227382" /><line stroke="rgb(0%,0%,0%)" x1="661.491803744" x2="661.754885124" y1="540.368227382" y2="539.013307102" /><line stroke="rgb(0%,0%,0%)" x1="549.199805577" x2="547.368721011" y1="756.221489283" y2="757.40109539" /><line stroke="rgb(0%,0%,0%)" x1="549.199805577" x2="550.195517225" y1="756.221489283" y2="755.642786354" /><line stroke="rgb(0%,0%,0%)" x1="550.195517225" x2="554.38465739" y1="755.642786354" y2="752.7801041" /><line stroke="rgb(0%,0%,0%)" x1="570.664456571" x2="568.872106279" y1="740.590289974" y2="742.200362828" /><line stroke="rgb(0%,0%,0%)" x1="588.779640304" x2="582.117884387" y1="712.693614765" y2="723.422984989" /><line stroke="rgb(0%,0%,0%)" x1="588.779640304" x2="591.558200157" y1="712.693614765" y2="709.164686785" /><line stroke="rgb(0%,0%,0%)" x1="591.558200157" x2="591.59715638" y1="709.164686785" y2="709.096593407" /><line stroke="rgb(0%,0%,0%)" x1="591.59715638" x2="591.79090671" y1="709.096593407" y2="708.783611437" /><line stroke="rgb(0%,0%,0%)" x1="596.142914959" x2="591.79090671" y1="701.869272247" y2="708.783611437" /><line stroke="rgb(0%,0%,0%)" x1="600.536978397" x2="597.366010841" y1="692.381029756" y2="699.887908627" /><line stroke="rgb(0%,0%,0%)" x1="600.536978397" x2="607.529182623" y1="692.381029756" y2="681.948453444" /><line stroke="rgb(0%,0%,0%)" x1="612.883923863" x2="616.709896969" y1="672.605490218" y2="665.113233268" /><line stroke="rgb(0%,0%,0%)" x1="629.957575994" x2="631.639589485" y1="633.581470175" y2="630.450921387" /><line stroke="rgb(0%,0%,0%)" x1="539.229214618" x2="534.716166053" y1="761.122939132" y2="763.616247848" /><line stroke="rgb(0%,0%,0%)" x1="539.229214618" x2="547.368721011" y1="761.122939132" y2="757.40109539" /><line stroke="rgb(0%,0%,0%)" x1="575.238594685" x2="580.016486574" y1="734.53547061" y2="727.911599549" /><line stroke="rgb(0%,0%,0%)" x1="580.016486574" x2="581.962910889" y1="727.911599549" y2="723.703807846" /><line stroke="rgb(0%,0%,0%)" x1="581.962910889" x2="582.117884387" y1="723.703807846" y2="723.422984989" /><line stroke="rgb(0%,0%,0%)" x1="596.142914959" x2="596.980269685" y1="701.869272247" y2="700.532550993" /><line stroke="rgb(0%,0%,0%)" x1="596.980269685" x2="597.366010841" y1="700.532550993" y2="699.887908627" /><line stroke="rgb(0%,0%,0%)" x1="625.971476487" x2="629.957575994" y1="643.995803748" y2="633.581470175" /><line stroke="rgb(0%,0%,0%)" x1="488.41183926" x2="493.999861392" y1="782.028951099" y2="780.938811226" /><line stroke="rgb(0%,0%,0%)" x1="521.319036916" x2="514.045598766" y1="769.790440263" y2="772.848821391" /><line stroke="rgb(0%,0%,0%)" x1="521.319036916" x2="525.089648123" y1="769.790440263" y2="767.965891589" /><line stroke="rgb(0%,0%,0%)" x1="525.089648123" x2="530.825819783" y1="767.965891589" y2="764.54289787" /><line stroke="rgb(0%,0%,0%)" x1="530.825819783" x2="534.716166053" y1="764.54289787" y2="763.616247848" /><line stroke="rgb(0%,0%,0%)" x1="554.38465739" x2="564.108172856" y1="752.7801041" y2="745.816905329" /><line stroke="rgb(0%,0%,0%)" x1="564.108172856" x2="568.872106279" y1="745.816905329" y2="742.200362828" /><line stroke="rgb(0%,0%,0%)" x1="470.365240029" x2="464.292418143" y1="782.028788908" y2="782.796897233" /><line stroke="rgb(0%,0%,0%)" x1="482.800846627" x2="475.610641774" y1="783.19856642" y2="781.872557961" /><line stroke="rgb(0%,0%,0%)" x1="482.800846627" x2="488.41183926" y1="783.19856642" y2="782.028951099" /><line stroke="rgb(0%,0%,0%)" x1="496.097499603" x2="514.045598766" y1="779.862981436" y2="772.848821391" /><line stroke="rgb(0%,0%,0%)" x1="418.483301576" x2="409.772414752" y1="781.469671034" y2="779.419900668" /><line stroke="rgb(0%,0%,0%)" x1="429.799912955" x2="436.909666566" y1="784.071376481" y2="784.604173666" /><line stroke="rgb(0%,0%,0%)" x1="440.216585541" x2="451.965682636" y1="785.033398035" y2="783.956934728" /><line stroke="rgb(0%,0%,0%)" x1="461.810854737" x2="453.604556839" y1="783.375527386" y2="783.863795842" /><line stroke="rgb(0%,0%,0%)" x1="461.810854737" x2="464.292418143" y1="783.375527386" y2="782.796897233" /><line stroke="rgb(0%,0%,0%)" x1="470.365240029" x2="475.610641774" y1="782.028788908" y2="781.872557961" /><line stroke="rgb(0%,0%,0%)" x1="493.999861392" x2="496.097499603" y1="780.938811226" y2="779.862981436" /><line stroke="rgb(0%,0%,0%)" x1="386.947837213" x2="390.610079226" y1="770.006263987" y2="771.936518721" /><line stroke="rgb(0%,0%,0%)" x1="386.947837213" x2="376.66138695" y1="770.006263987" y2="764.540625099" /><line stroke="rgb(0%,0%,0%)" x1="422.907342898" x2="418.483301576" y1="782.889311429" y2="781.469671034" /><line stroke="rgb(0%,0%,0%)" x1="422.907342898" x2="429.799912955" y1="782.889311429" y2="784.071376481" /><line stroke="rgb(0%,0%,0%)" x1="436.909666566" x2="440.216585541" y1="784.604173666" y2="785.033398035" /><line stroke="rgb(0%,0%,0%)" x1="451.965682636" x2="453.604556839" y1="783.956934728" y2="783.863795842" /><line stroke="rgb(0%,0%,0%)" x1="363.414449448" x2="367.608782182" y1="754.895942143" y2="758.211691725" /><line stroke="rgb(0%,0%,0%)" x1="363.414449448" x2="360.901509656" y1="754.895942143" y2="753.024984757" /><line stroke="rgb(0%,0%,0%)" x1="370.76181001" x2="376.66138695" y1="760.229936582" y2="764.540625099" /><line stroke="rgb(0%,0%,0%)" x1="367.608782182" x2="370.76181001" y1="758.211691725" y2="760.229936582" /><line stroke="rgb(0%,0%,0%)" x1="390.610079226" x2="398.275758695" y1="771.936518721" y2="775.119937513" /><line stroke="rgb(0%,0%,0%)" x1="398.275758695" x2="405.735185327" y1="775.119937513" y2="777.971634978" /><line stroke="rgb(0%,0%,0%)" x1="405.735185327" x2="409.772414752" y1="777.971634978" y2="779.419900668" /><line stroke="rgb(0%,0%,0%)" x1="240.015012016" x2="239.318756585" y1="536.631199365" y2="535.617098903" /><line stroke="rgb(0%,0%,0%)" x1="292.928910821" x2="286.789620527" y1="512.269769984" y2="505.634386247" /><line stroke="rgb(0%,0%,0%)" x1="331.099302448" x2="331.931414511" y1="708.374847744" y2="713.645213305" /><line stroke="rgb(0%,0%,0%)" x1="333.858233117" x2="337.185163235" y1="704.020089876" y2="696.24303944" /><line stroke="rgb(0%,0%,0%)" x1="333.858233117" x2="331.099302448" y1="704.020089876" y2="708.374847744" /><line stroke="rgb(0%,0%,0%)" x1="335.206471246" x2="331.606781755" y1="661.417162405" y2="659.408820655" /><line stroke="rgb(0%,0%,0%)" x1="334.029896682" x2="341.456676898" y1="718.831447163" y2="733.435284238" /><line stroke="rgb(0%,0%,0%)" x1="339.362550676" x2="339.185121134" y1="671.02470451" y2="677.859533585" /><line stroke="rgb(0%,0%,0%)" x1="339.362550676" x2="337.899354104" y1="671.02470451" y2="666.100308335" /><line stroke="rgb(0%,0%,0%)" x1="335.206471246" x2="336.93421855" y1="661.417162405" y2="663.78130648" /><line stroke="rgb(0%,0%,0%)" x1="355.822270903" x2="343.854676316" y1="748.252281906" y2="736.324766367" /><line stroke="rgb(0%,0%,0%)" x1="355.822270903" x2="360.901509656" y1="748.252281906" y2="753.024984757" /><line stroke="rgb(0%,0%,0%)" x1="278.174736903" x2="278.25230642" y1="574.580511878" y2="574.985298517" /><line stroke="rgb(0%,0%,0%)" x1="274.557692435" x2="286.691239312" y1="493.690152668" y2="505.522175356" /><line stroke="rgb(0%,0%,0%)" x1="292.928910821" x2="296.461474472" y1="512.269769984" y2="518.156122797" /><line stroke="rgb(0%,0%,0%)" x1="301.51185172" x2="295.358047236" y1="647.933066026" y2="639.539785072" /><line stroke="rgb(0%,0%,0%)" x1="301.51185172" x2="306.544570942" y1="647.933066026" y2="652.473188735" /><line stroke="rgb(0%,0%,0%)" x1="298.099722852" x2="296.466804923" y1="525.762333469" y2="526.509453276" /><line stroke="rgb(0%,0%,0%)" x1="294.827503901" x2="287.828793583" y1="527.285480211" y2="525.705591393" /><line stroke="rgb(0%,0%,0%)" x1="296.466804923" x2="294.827503901" y1="526.509453276" y2="527.285480211" /><line stroke="rgb(0%,0%,0%)" x1="298.367391598" x2="298.099722852" y1="524.087330918" y2="525.762333469" /><line stroke="rgb(0%,0%,0%)" x1="296.631413607" x2="297.722020882" y1="519.864578195" y2="522.193682075" /><line stroke="rgb(0%,0%,0%)" x1="323.439403322" x2="327.127344833" y1="657.672333256" y2="658.353092107" /><line stroke="rgb(0%,0%,0%)" x1="331.931414511" x2="334.029896682" y1="713.645213305" y2="718.831447163" /><line stroke="rgb(0%,0%,0%)" x1="339.185121134" x2="338.58440194" y1="677.859533585" y2="685.121493086" /><line stroke="rgb(0%,0%,0%)" x1="337.571927615" x2="337.899354104" y1="664.544756521" y2="666.100308335" /><line stroke="rgb(0%,0%,0%)" x1="336.93421855" x2="337.571927615" y1="663.78130648" y2="664.544756521" /><line stroke="rgb(0%,0%,0%)" x1="327.127344833" x2="331.606781755" y1="658.353092107" y2="659.408820655" /><line stroke="rgb(0%,0%,0%)" x1="341.456676898" x2="343.854676316" y1="733.435284238" y2="736.324766367" /><line stroke="rgb(0%,0%,0%)" x1="338.478004599" x2="337.185163235" y1="690.970476461" y2="696.24303944" /><line stroke="rgb(0%,0%,0%)" x1="338.58440194" x2="338.478004599" y1="685.121493086" y2="690.970476461" /><line stroke="rgb(0%,0%,0%)" x1="223.784707419" x2="224.307783254" y1="514.438891557" y2="515.354719025" /><line stroke="rgb(0%,0%,0%)" x1="246.176875237" x2="249.336017731" y1="542.608566755" y2="545.304933105" /><line stroke="rgb(0%,0%,0%)" x1="240.015012016" x2="246.176875237" y1="536.631199365" y2="542.608566755" /><line stroke="rgb(0%,0%,0%)" x1="267.452826068" x2="270.092732753" y1="597.707650193" y2="603.546813336" /><line stroke="rgb(0%,0%,0%)" x1="269.783595792" x2="267.131827664" y1="579.323476863" y2="583.88920405" /><line stroke="rgb(0%,0%,0%)" x1="269.783595792" x2="270.179205015" y1="579.323476863" y2="578.778634406" /><line stroke="rgb(0%,0%,0%)" x1="249.336017731" x2="259.243087999" y1="545.304933105" y2="552.346103259" /><line stroke="rgb(0%,0%,0%)" x1="267.10426901" x2="245.890346043" y1="515.99957617" y2="500.654475565" /><line stroke="rgb(0%,0%,0%)" x1="258.673743065" x2="259.741976606" y1="474.139724953" y2="476.708344717" /><line stroke="rgb(0%,0%,0%)" x1="259.741976606" x2="263.651133825" y1="476.708344717" y2="484.755645276" /><line stroke="rgb(0%,0%,0%)" x1="259.455954005" x2="258.673743065" y1="466.941221423" y2="474.139724953" /><line stroke="rgb(0%,0%,0%)" x1="258.290805455" x2="259.928565019" y1="463.447800036" y2="454.51369143" /><line stroke="rgb(0%,0%,0%)" x1="258.290805455" x2="259.455954005" y1="463.447800036" y2="466.941221423" /><line stroke="rgb(0%,0%,0%)" x1="286.598478871" x2="271.668532616" y1="628.580787546" y2="606.865962678" /><line stroke="rgb(0%,0%,0%)" x1="267.131827664" x2="267.738658742" y1="583.88920405" y2="591.667421669" /><line stroke="rgb(0%,0%,0%)" x1="267.738658742" x2="267.452826068" y1="591.667421669" y2="597.707650193" /><line stroke="rgb(0%,0%,0%)" x1="277.312874853" x2="271.780862984" y1="576.040405498" y2="578.083330396" /><line stroke="rgb(0%,0%,0%)" x1="270.877935755" x2="271.780862984" y1="578.480869325" y2="578.083330396" /><line stroke="rgb(0%,0%,0%)" x1="278.282698882" x2="277.312874853" y1="575.510024665" y2="576.040405498" /><line stroke="rgb(0%,0%,0%)" x1="270.498776196" x2="270.179205015" y1="578.706003199" y2="578.778634406" /><line stroke="rgb(0%,0%,0%)" x1="270.498776196" x2="270.877935755" y1="578.706003199" y2="578.480869325" /><line stroke="rgb(0%,0%,0%)" x1="278.25230642" x2="278.282698882" y1="574.985298517" y2="575.510024665" /><line stroke="rgb(0%,0%,0%)" x1="278.108492078" x2="278.174736903" y1="573.734045092" y2="574.580511878" /><line stroke="rgb(0%,0%,0%)" x1="275.819700751" x2="278.108492078" y1="571.395794959" y2="573.734045092" /><line stroke="rgb(0%,0%,0%)" x1="274.007696701" x2="275.819700751" y1="569.009867164" y2="571.395794959" /><line stroke="rgb(0%,0%,0%)" x1="274.007696701" x2="271.310182773" y1="569.009867164" y2="565.103493462" /><line stroke="rgb(0%,0%,0%)" x1="270.297290014" x2="267.10426901" y1="517.697230895" y2="515.99957617" /><line stroke="rgb(0%,0%,0%)" x1="269.244217685" x2="274.557692435" y1="490.316106549" y2="493.690152668" /><line stroke="rgb(0%,0%,0%)" x1="269.244217685" x2="264.885225494" y1="490.316106549" y2="486.361661346" /><line stroke="rgb(0%,0%,0%)" x1="287.828793583" x2="282.447086885" y1="525.705591393" y2="524.262952994" /><line stroke="rgb(0%,0%,0%)" x1="282.447086885" x2="270.297290014" y1="524.262952994" y2="517.697230895" /><line stroke="rgb(0%,0%,0%)" x1="286.747831039" x2="286.789620527" y1="505.582899587" y2="505.634386247" /><line stroke="rgb(0%,0%,0%)" x1="286.691239312" x2="286.747831039" y1="505.522175356" y2="505.582899587" /><line stroke="rgb(0%,0%,0%)" x1="286.598478871" x2="295.358047236" y1="628.580787546" y2="639.539785072" /><line stroke="rgb(0%,0%,0%)" x1="297.722020882" x2="298.367391598" y1="522.193682075" y2="524.087330918" /><line stroke="rgb(0%,0%,0%)" x1="296.461474472" x2="296.631413607" y1="518.156122797" y2="519.864578195" /><line stroke="rgb(0%,0%,0%)" x1="218.128176109" x2="223.784707419" y1="507.782448247" y2="514.438891557" /><line stroke="rgb(0%,0%,0%)" x1="218.128176109" x2="215.713402256" y1="507.782448247" y2="504.855221662" /><line stroke="rgb(0%,0%,0%)" x1="213.723834576" x2="213.470741072" y1="488.293015123" y2="488.878505181" /><line stroke="rgb(0%,0%,0%)" x1="219.346323052" x2="223.114840749" y1="488.309386487" y2="489.558562661" /><line stroke="rgb(0%,0%,0%)" x1="218.028000601" x2="219.346323052" y1="488.280216834" y2="488.309386487" /><line stroke="rgb(0%,0%,0%)" x1="218.028000601" x2="213.723834576" y1="488.280216834" y2="488.293015123" /><line stroke="rgb(0%,0%,0%)" x1="235.400190187" x2="239.318756585" y1="530.803183545" y2="535.617098903" /><line stroke="rgb(0%,0%,0%)" x1="232.321435052" x2="235.400190187" y1="527.083149813" y2="530.803183545" /><line stroke="rgb(0%,0%,0%)" x1="229.391429401" x2="232.321435052" y1="523.484641349" y2="527.083149813" /><line stroke="rgb(0%,0%,0%)" x1="229.391429401" x2="228.476624587" y1="523.484641349" y2="521.696409215" /><line stroke="rgb(0%,0%,0%)" x1="224.307783254" x2="228.476624587" y1="515.354719025" y2="521.696409215" /><line stroke="rgb(0%,0%,0%)" x1="228.927551257" x2="242.041684849" y1="491.763809362" y2="498.317340091" /><line stroke="rgb(0%,0%,0%)" x1="228.927551257" x2="223.114840749" y1="491.763809362" y2="489.558562661" /><line stroke="rgb(0%,0%,0%)" x1="259.243087999" x2="259.918306685" y1="552.346103259" y2="552.894347828" /><line stroke="rgb(0%,0%,0%)" x1="242.90642521" x2="242.041684849" y1="498.881974434" y2="498.317340091" /><line stroke="rgb(0%,0%,0%)" x1="245.890346043" x2="242.90642521" y1="500.654475565" y2="498.881974434" /><line stroke="rgb(0%,0%,0%)" x1="265.663085849" x2="260.471301506" y1="558.790218568" y2="553.318465664" /><line stroke="rgb(0%,0%,0%)" x1="260.359367395" x2="260.471301506" y1="553.199651361" y2="553.318465664" /><line stroke="rgb(0%,0%,0%)" x1="259.918306685" x2="260.118881499" y1="552.894347828" y2="553.043578504" /><line stroke="rgb(0%,0%,0%)" x1="263.651133825" x2="264.885225494" y1="484.755645276" y2="486.361661346" /><line stroke="rgb(0%,0%,0%)" x1="259.708760428" x2="259.928565019" y1="451.827770837" y2="454.51369143" /><line stroke="rgb(0%,0%,0%)" x1="265.663085849" x2="271.310182773" y1="558.790218568" y2="565.103493462" /><line stroke="rgb(0%,0%,0%)" x1="270.092732753" x2="270.442524454" y1="603.546813336" y2="604.485582454" /><line stroke="rgb(0%,0%,0%)" x1="270.442524454" x2="270.723185695" y1="604.485582454" y2="605.266704217" /><line stroke="rgb(0%,0%,0%)" x1="270.723185695" x2="271.668532616" y1="605.266704217" y2="606.865962678" /><line stroke="rgb(0%,0%,0%)" x1="214.598782184" x2="215.713402256" y1="502.750366223" y2="504.855221662" /><line stroke="rgb(0%,0%,0%)" x1="212.91543162" x2="213.53518788" y1="500.340803761" y2="501.653005203" /><line stroke="rgb(0%,0%,0%)" x1="214.598782184" x2="213.53518788" y1="502.750366223" y2="501.653005203" /><line stroke="rgb(0%,0%,0%)" x1="212.496785333" x2="212.91543162" y1="498.188706971" y2="500.340803761" /><line stroke="rgb(0%,0%,0%)" x1="211.832401166" x2="212.496785333" y1="495.252116848" y2="498.188706971" /><line stroke="rgb(0%,0%,0%)" x1="212.420668502" x2="211.832401166" y1="493.49570039" y2="495.252116848" /><line stroke="rgb(0%,0%,0%)" x1="213.502518892" x2="212.420668502" y1="491.479744647" y2="493.49570039" /><line stroke="rgb(0%,0%,0%)" x1="213.470741072" x2="213.502518892" y1="488.878505181" y2="491.479744647" /><line stroke="rgb(0%,0%,0%)" x1="260.118881499" x2="260.359367395" y1="553.043578504" y2="553.199651361" /><line stroke="rgb(0%,0%,0%)" x1="670.190675744" x2="670.362085035" y1="392.485402486" y2="393.183535486" /><line stroke="rgb(0%,0%,0%)" x1="670.105680188" x2="670.190675744" y1="392.076561296" y2="392.485402486" /><line stroke="rgb(0%,0%,0%)" x1="672.921323466" x2="673.498705309" y1="420.77748921" y2="423.389765262" /><line stroke="rgb(0%,0%,0%)" x1="672.921323466" x2="672.555469621" y1="420.77748921" y2="416.535239843" /><line stroke="rgb(0%,0%,0%)" x1="670.105680188" x2="669.682096953" y1="392.076561296" y2="389.472710989" /><line stroke="rgb(0%,0%,0%)" x1="676.7953069" x2="676.407958929" y1="457.27856724" y2="446.414010613" /><line stroke="rgb(0%,0%,0%)" x1="672.555469621" x2="672.071792124" y1="416.535239843" y2="410.576802685" /><line stroke="rgb(0%,0%,0%)" x1="524.793996248" x2="523.251899183" y1="155.65420329" y2="154.798646999" /><line stroke="rgb(0%,0%,0%)" x1="524.793996248" x2="528.502706714" y1="155.65420329" y2="156.706038659" /><line stroke="rgb(0%,0%,0%)" x1="251.588913412" x2="247.948696974" y1="357.691218587" y2="359.750236212" /><line stroke="rgb(0%,0%,0%)" x1="251.588913412" x2="252.875959795" y1="357.691218587" y2="356.815233277" /><line stroke="rgb(0%,0%,0%)" x1="668.464578587" x2="668.172419245" y1="512.276239644" y2="514.705710956" /><line stroke="rgb(0%,0%,0%)" x1="655.070604322" x2="655.185175872" y1="566.349491783" y2="567.007649655" /><line stroke="rgb(0%,0%,0%)" x1="655.070604322" x2="655.893084768" y1="566.349491783" y2="564.279585199" /><line stroke="rgb(0%,0%,0%)" x1="668.464578587" x2="668.771980523" y1="512.276239644" y2="512.450978962" /><line stroke="rgb(0%,0%,0%)" x1="673.13300105" x2="673.552253159" y1="490.911150282" y2="487.4007751" /><line stroke="rgb(0%,0%,0%)" x1="673.552253159" x2="674.759136399" y1="487.4007751" y2="480.326197973" /><line stroke="rgb(0%,0%,0%)" x1="664.305587873" x2="663.577967141" y1="530.533660304" y2="533.374834865" /><line stroke="rgb(0%,0%,0%)" x1="664.305587873" x2="664.415595356" y1="530.533660304" y2="529.92001878" /><line stroke="rgb(0%,0%,0%)" x1="666.601129587" x2="665.524589299" y1="520.34766299" y2="524.207859121" /><line stroke="rgb(0%,0%,0%)" x1="666.601129587" x2="668.172419245" y1="520.34766299" y2="514.705710956" /><line stroke="rgb(0%,0%,0%)" x1="673.13300105" x2="672.606522808" y1="490.911150282" y2="495.362266335" /><line stroke="rgb(0%,0%,0%)" x1="674.759136399" x2="675.102519391" y1="480.326197973" y2="478.208261341" /><line stroke="rgb(0%,0%,0%)" x1="624.669012851" x2="624.335584855" y1="647.109692713" y2="647.962204089" /><line stroke="rgb(0%,0%,0%)" x1="624.669012851" x2="625.971476487" y1="647.109692713" y2="643.995803748" /><line stroke="rgb(0%,0%,0%)" x1="570.684887828" x2="570.664456571" y1="740.230566841" y2="740.590289974" /><line stroke="rgb(0%,0%,0%)" x1="570.684887828" x2="575.238594685" y1="740.230566841" y2="734.53547061" /><line stroke="rgb(0%,0%,0%)" x1="308.132020057" x2="309.862268605" y1="653.897926049" y2="654.449936945" /><line stroke="rgb(0%,0%,0%)" x1="308.132020057" x2="306.544570942" y1="653.897926049" y2="652.473188735" /><line stroke="rgb(0%,0%,0%)" x1="319.031068018" x2="323.439403322" y1="657.115505931" y2="657.672333256" /><line stroke="rgb(0%,0%,0%)" x1="309.862268605" x2="319.031068018" y1="654.449936945" y2="657.115505931" /></svg>