<?xml version="1.0" encoding="utf-8" ?>
<svg baseProfile="full" height="100%" version="1.1" viewBox="0.5 0.5 685.793960571 941.299331665" width="100%" xmlns="http://www.w3.org/2000/svg" xmlns:ev="http://www.w3.org/2001/xml-events" xmlns:xlink="http://www.w3.org/1999/xlink"><defs /><line stroke="rgb(0%,0%,0%)" x1="421.23701559" x2="420.773429454" y1="455.67077605" y2="459.750330205" /><line stroke="rgb(0%,0%,0%)" x1="421.23701559" x2="421.408121853" y1="455.67077605" y2="454.389491636" /><line stroke="rgb(0%,0%,0%)" x1="421.408121853" x2="419.142485123" y1="454.389491636" y2="441.988796045" /><line stroke="rgb(0%,0%,0%)" x1="419.142485123" x2="414.852206099" y1="441.988796045" y2="428.688677439" /><line stroke="rgb(0%,0%,0%)" x1="413.424675592" x2="411.920222791" y1="425.719911057" y2="423.299746987" /><line stroke="rgb(0%,0%,0%)" x1="406.766215083" x2="411.920222791" y1="415.216660627" y2="423.299746987" /><line stroke="rgb(0%,0%,0%)" x1="406.766215083" x2="404.706935371" y1="415.216660627" y2="413.088345178" /><line stroke="rgb(0%,0%,0%)" x1="404.706935371" x2="403.187767007" y1="413.088345178" y2="411.90131472" /><line stroke="rgb(0%,0%,0%)" x1="420.20989729" x2="420.773429454" y1="466.457660288" y2="459.750330205" /><line stroke="rgb(0%,0%,0%)" x1="414.852206099" x2="414.18481197" y1="428.688677439" y2="426.900725639" /><line stroke="rgb(0%,0%,0%)" x1="414.18481197" x2="413.859926999" y1="426.900725639" y2="426.604350258" /><line stroke="rgb(0%,0%,0%)" x1="413.859926999" x2="413.424675592" y1="426.604350258" y2="425.719911057" /><line stroke="rgb(0%,0%,0%)" x1="219.907664222" x2="221.320015007" y1="364.508717559" y2="363.710230702" /><line stroke="rgb(0%,0%,0%)" x1="233.558426164" x2="232.102445947" y1="356.536164325" y2="357.170138835" /><line stroke="rgb(0%,0%,0%)" x1="234.5722086" x2="233.558426164" y1="355.798952467" y2="356.536164325" /><line stroke="rgb(0%,0%,0%)" x1="238.425846153" x2="234.745372431" y1="354.650300975" y2="355.593511052" /><line stroke="rgb(0%,0%,0%)" x1="234.5722086" x2="234.745372431" y1="355.798952467" y2="355.593511052" /><line stroke="rgb(0%,0%,0%)" x1="207.649342866" x2="206.656493857" y1="374.152457077" y2="374.893528599" /><line stroke="rgb(0%,0%,0%)" x1="219.907664222" x2="207.649342866" y1="364.508717559" y2="374.152457077" /><line stroke="rgb(0%,0%,0%)" x1="225.955525994" x2="221.320015007" y1="360.615079298" y2="363.710230702" /><line stroke="rgb(0%,0%,0%)" x1="232.102445947" x2="225.955525994" y1="357.170138835" y2="360.615079298" /><line stroke="rgb(0%,0%,0%)" x1="181.416825145" x2="175.784228304" y1="390.736515979" y2="392.503282715" /><line stroke="rgb(0%,0%,0%)" x1="188.638378801" x2="181.416825145" y1="386.60430093" y2="390.736515979" /><line stroke="rgb(0%,0%,0%)" x1="191.392466754" x2="188.638378801" y1="384.767120648" y2="386.60430093" /><line stroke="rgb(0%,0%,0%)" x1="193.135247057" x2="191.392466754" y1="383.276427011" y2="384.767120648" /><line stroke="rgb(0%,0%,0%)" x1="206.487216592" x2="204.631476869" y1="374.993462351" y2="376.1678939" /><line stroke="rgb(0%,0%,0%)" x1="206.656493857" x2="206.487216592" y1="374.893528599" y2="374.993462351" /><line stroke="rgb(0%,0%,0%)" x1="193.135247057" x2="204.631476869" y1="383.276427011" y2="376.1678939" /><line stroke="rgb(0%,0%,0%)" x1="143.440652016" x2="145.113784673" y1="412.158567406" y2="417.665097435" /><line stroke="rgb(0%,0%,0%)" x1="143.543176352" x2="143.440652016" y1="411.427904716" y2="412.158567406" /><line stroke="rgb(0%,0%,0%)" x1="143.543176352" x2="144.091470853" y1="411.427904716" y2="409.479599374" /><line stroke="rgb(0%,0%,0%)" x1="152.94391739" x2="152.590655068" y1="462.780328371" y2="465.2173196" /><line stroke="rgb(0%,0%,0%)" x1="152.716953305" x2="152.94391739" y1="461.167602242" y2="462.780328371" /><line stroke="rgb(0%,0%,0%)" x1="153.286002436" x2="152.716953305" y1="458.89967486" y2="461.167602242" /><line stroke="rgb(0%,0%,0%)" x1="153.306786612" x2="153.939471401" y1="456.725412402" y2="451.880907931" /><line stroke="rgb(0%,0%,0%)" x1="153.306786612" x2="153.286002436" y1="456.725412402" y2="458.89967486" /><line stroke="rgb(0%,0%,0%)" x1="153.939471401" x2="154.276593449" y1="451.880907931" y2="446.832453651" /><line stroke="rgb(0%,0%,0%)" x1="154.844696446" x2="153.72681228" y1="440.194450711" y2="436.494452329" /><line stroke="rgb(0%,0%,0%)" x1="154.844696446" x2="154.409890558" y1="440.194450711" y2="445.919764811" /><line stroke="rgb(0%,0%,0%)" x1="153.72681228" x2="152.141780462" y1="436.494452329" y2="428.67130555" /><line stroke="rgb(0%,0%,0%)" x1="152.099244745" x2="152.141780462" y1="426.181124935" y2="428.67130555" /><line stroke="rgb(0%,0%,0%)" x1="151.875639475" x2="152.099244745" y1="425.595911574" y2="426.181124935" /><line stroke="rgb(0%,0%,0%)" x1="147.608579594" x2="151.511583583" y1="422.936200529" y2="425.762138951" /><line stroke="rgb(0%,0%,0%)" x1="145.113784673" x2="147.608579594" y1="417.665097435" y2="422.936200529" /><line stroke="rgb(0%,0%,0%)" x1="151.511583583" x2="151.875639475" y1="425.762138951" y2="425.595911574" /><line stroke="rgb(0%,0%,0%)" x1="149.13391069" x2="147.054424365" y1="405.100638304" y2="406.682245085" /><line stroke="rgb(0%,0%,0%)" x1="153.459520457" x2="149.13391069" y1="404.060686778" y2="405.100638304" /><line stroke="rgb(0%,0%,0%)" x1="154.310563941" x2="154.276593449" y1="446.684353821" y2="446.832453651" /><line stroke="rgb(0%,0%,0%)" x1="154.409890558" x2="154.310563941" y1="445.919764811" y2="446.684353821" /><line stroke="rgb(0%,0%,0%)" x1="159.809003987" x2="153.459520457" y1="401.065055824" y2="404.060686778" /><line stroke="rgb(0%,0%,0%)" x1="161.126084562" x2="159.809003987" y1="400.570945905" y2="401.065055824" /><line stroke="rgb(0%,0%,0%)" x1="162.51513468" x2="161.126084562" y1="397.896378859" y2="400.570945905" /><line stroke="rgb(0%,0%,0%)" x1="162.51513468" x2="167.027401828" y1="397.896378859" y2="396.683317223" /><line stroke="rgb(0%,0%,0%)" x1="169.806891026" x2="167.027401828" y1="394.314339326" y2="396.683317223" /><line stroke="rgb(0%,0%,0%)" x1="169.806891026" x2="175.784228304" y1="394.314339326" y2="392.503282715" /><line stroke="rgb(0%,0%,0%)" x1="147.054424365" x2="144.091470853" y1="406.682245085" y2="409.479599374" /><line stroke="rgb(0%,0%,0%)" x1="398.609030696" x2="402.357650775" y1="406.399831456" y2="410.99763949" /><line stroke="rgb(0%,0%,0%)" x1="396.042245152" x2="398.609030696" y1="404.341330835" y2="406.399831456" /><line stroke="rgb(0%,0%,0%)" x1="414.64759042" x2="407.564676586" y1="509.968552418" y2="518.802683465" /><line stroke="rgb(0%,0%,0%)" x1="414.64759042" x2="418.003447474" y1="509.968552418" y2="502.757041575" /><line stroke="rgb(0%,0%,0%)" x1="421.737480099" x2="421.062820292" y1="480.93571523" y2="487.855742292" /><line stroke="rgb(0%,0%,0%)" x1="421.737480099" x2="421.21768984" y1="480.93571523" y2="475.465256322" /><line stroke="rgb(0%,0%,0%)" x1="420.20989729" x2="421.250295013" y1="466.457660288" y2="474.122399623" /><line stroke="rgb(0%,0%,0%)" x1="362.207635023" x2="358.725409571" y1="379.203058386" y2="376.969505495" /><line stroke="rgb(0%,0%,0%)" x1="385.352389186" x2="368.816723428" y1="395.220494007" y2="382.894705664" /><line stroke="rgb(0%,0%,0%)" x1="386.833437795" x2="385.352389186" y1="396.445382183" y2="395.220494007" /><line stroke="rgb(0%,0%,0%)" x1="396.042245152" x2="387.782183979" y1="404.341330835" y2="397.295048008" /><line stroke="rgb(0%,0%,0%)" x1="387.782183979" x2="387.245913235" y1="397.295048008" y2="396.73458782" /><line stroke="rgb(0%,0%,0%)" x1="386.833437795" x2="387.245913235" y1="396.445382183" y2="396.73458782" /><line stroke="rgb(0%,0%,0%)" x1="403.187767007" x2="402.357650775" y1="411.90131472" y2="410.99763949" /><line stroke="rgb(0%,0%,0%)" x1="406.43825645" x2="407.564676586" y1="520.476862506" y2="518.802683465" /><line stroke="rgb(0%,0%,0%)" x1="418.003447474" x2="418.3124466" y1="502.757041575" y2="502.015907078" /><line stroke="rgb(0%,0%,0%)" x1="421.062820292" x2="418.42759398" y1="487.855742292" y2="501.314842936" /><line stroke="rgb(0%,0%,0%)" x1="418.3124466" x2="418.42759398" y1="502.015907078" y2="501.314842936" /><line stroke="rgb(0%,0%,0%)" x1="421.21768984" x2="421.250295013" y1="475.465256322" y2="474.122399623" /><line stroke="rgb(0%,0%,0%)" x1="339.594390014" x2="346.863772175" y1="363.008248572" y2="366.506098383" /><line stroke="rgb(0%,0%,0%)" x1="339.594390014" x2="331.896172327" y1="363.008248572" y2="359.692183491" /><line stroke="rgb(0%,0%,0%)" x1="331.896172327" x2="329.490742566" y1="359.692183491" y2="355.72414963" /><line stroke="rgb(0%,0%,0%)" x1="358.725409571" x2="356.521310603" y1="376.969505495" y2="375.090836362" /><line stroke="rgb(0%,0%,0%)" x1="368.816723428" x2="362.207635023" y1="382.894705664" y2="379.203058386" /><line stroke="rgb(0%,0%,0%)" x1="318.645735047" x2="312.001663703" y1="341.26163326" y2="336.321498662" /><line stroke="rgb(0%,0%,0%)" x1="319.024179055" x2="318.645735047" y1="341.458060832" y2="341.26163326" /><line stroke="rgb(0%,0%,0%)" x1="312.001663703" x2="310.077779722" y1="336.321498662" y2="335.851773117" /><line stroke="rgb(0%,0%,0%)" x1="322.168392425" x2="321.590583337" y1="582.706780258" y2="582.830757553" /><line stroke="rgb(0%,0%,0%)" x1="329.709294186" x2="327.628755741" y1="575.27267247" y2="578.125449443" /><line stroke="rgb(0%,0%,0%)" x1="322.168392425" x2="327.628755741" y1="582.706780258" y2="578.125449443" /><line stroke="rgb(0%,0%,0%)" x1="329.709294186" x2="330.772443999" y1="575.27267247" y2="574.550662706" /><line stroke="rgb(0%,0%,0%)" x1="329.490742566" x2="327.716855018" y1="355.72414963" y2="353.027670199" /><line stroke="rgb(0%,0%,0%)" x1="327.716855018" x2="326.567011247" y1="353.027670199" y2="351.026243848" /><line stroke="rgb(0%,0%,0%)" x1="324.996868667" x2="326.567011247" y1="347.791896893" y2="351.026243848" /><line stroke="rgb(0%,0%,0%)" x1="324.996868667" x2="319.354310762" y1="347.791896893" y2="341.650195702" /><line stroke="rgb(0%,0%,0%)" x1="319.024179055" x2="319.354310762" y1="341.458060832" y2="341.650195702" /><line stroke="rgb(0%,0%,0%)" x1="330.772443999" x2="331.766253025" y1="574.550662706" y2="572.591288549" /><line stroke="rgb(0%,0%,0%)" x1="331.766253025" x2="334.308248057" y1="572.591288549" y2="571.352375469" /><line stroke="rgb(0%,0%,0%)" x1="349.014657663" x2="347.564023447" y1="368.134580368" y2="367.022150646" /><line stroke="rgb(0%,0%,0%)" x1="347.564023447" x2="347.036693608" y1="367.022150646" y2="366.678838329" /><line stroke="rgb(0%,0%,0%)" x1="356.521310603" x2="349.014657663" y1="375.090836362" y2="368.134580368" /><line stroke="rgb(0%,0%,0%)" x1="347.036693608" x2="346.863772175" y1="366.678838329" y2="366.506098383" /><line stroke="rgb(0%,0%,0%)" x1="247.744524423" x2="247.425669161" y1="352.027630556" y2="352.16074128" /><line stroke="rgb(0%,0%,0%)" x1="247.744524423" x2="247.944815478" y1="352.027630556" y2="351.927747603" /><line stroke="rgb(0%,0%,0%)" x1="247.944815478" x2="248.823659787" y1="351.927747603" y2="351.547605058" /><line stroke="rgb(0%,0%,0%)" x1="267.467226045" x2="264.615313353" y1="341.328253224" y2="342.741884342" /><line stroke="rgb(0%,0%,0%)" x1="267.826080843" x2="267.467226045" y1="341.143140481" y2="341.328253224" /><line stroke="rgb(0%,0%,0%)" x1="271.147090267" x2="267.826080843" y1="339.706930374" y2="341.143140481" /><line stroke="rgb(0%,0%,0%)" x1="271.147090267" x2="275.60493096" y1="339.706930374" y2="337.617818846" /><line stroke="rgb(0%,0%,0%)" x1="283.529660858" x2="277.137409923" y1="335.727594535" y2="337.293561347" /><line stroke="rgb(0%,0%,0%)" x1="285.446417252" x2="283.529660858" y1="335.426229158" y2="335.727594535" /><line stroke="rgb(0%,0%,0%)" x1="293.063136369" x2="285.446417252" y1="334.445344602" y2="335.426229158" /><line stroke="rgb(0%,0%,0%)" x1="299.275313997" x2="297.076306149" y1="332.862200422" y2="334.18243131" /><line stroke="rgb(0%,0%,0%)" x1="299.960100219" x2="299.275313997" y1="332.830791957" y2="332.862200422" /><line stroke="rgb(0%,0%,0%)" x1="297.076306149" x2="293.063136369" y1="334.18243131" y2="334.445344602" /><line stroke="rgb(0%,0%,0%)" x1="310.077779722" x2="299.960100219" y1="335.851773117" y2="332.830791957" /><line stroke="rgb(0%,0%,0%)" x1="318.456012299" x2="320.451287785" y1="584.266802895" y2="583.612457976" /><line stroke="rgb(0%,0%,0%)" x1="238.581893044" x2="238.425846153" y1="354.574648016" y2="354.650300975" /><line stroke="rgb(0%,0%,0%)" x1="247.425669161" x2="239.643921031" y1="352.16074128" y2="352.945694568" /><line stroke="rgb(0%,0%,0%)" x1="239.643921031" x2="238.581893044" y1="352.945694568" y2="354.574648016" /><line stroke="rgb(0%,0%,0%)" x1="256.448888585" x2="248.823659787" y1="346.491035217" y2="351.547605058" /><line stroke="rgb(0%,0%,0%)" x1="264.615313353" x2="256.448888585" y1="342.741884342" y2="346.491035217" /><line stroke="rgb(0%,0%,0%)" x1="276.074820179" x2="275.60493096" y1="337.679463076" y2="337.617818846" /><line stroke="rgb(0%,0%,0%)" x1="277.137409923" x2="276.074820179" y1="337.293561347" y2="337.679463076" /><line stroke="rgb(0%,0%,0%)" x1="180.264104211" x2="192.211996886" y1="534.516124838" y2="537.725102804" /><line stroke="rgb(0%,0%,0%)" x1="197.51747344" x2="207.288570146" y1="539.932858489" y2="544.386499498" /><line stroke="rgb(0%,0%,0%)" x1="192.211996886" x2="197.51747344" y1="537.725102804" y2="539.932858489" /><line stroke="rgb(0%,0%,0%)" x1="221.309040079" x2="215.955267236" y1="554.219279701" y2="550.081525568" /><line stroke="rgb(0%,0%,0%)" x1="209.277142613" x2="215.113733874" y1="545.461258685" y2="549.69193143" /><line stroke="rgb(0%,0%,0%)" x1="227.004978212" x2="229.754079722" y1="557.702514543" y2="558.730120352" /><line stroke="rgb(0%,0%,0%)" x1="235.963213252" x2="229.754079722" y1="562.672210478" y2="558.730120352" /><line stroke="rgb(0%,0%,0%)" x1="221.309040079" x2="227.004978212" y1="554.219279701" y2="557.702514543" /><line stroke="rgb(0%,0%,0%)" x1="242.756149948" x2="243.090960448" y1="566.373753787" y2="566.643133937" /><line stroke="rgb(0%,0%,0%)" x1="235.963213252" x2="242.756149948" y1="562.672210478" y2="566.373753787" /><line stroke="rgb(0%,0%,0%)" x1="179.975115206" x2="180.264104211" y1="534.374957937" y2="534.516124838" /><line stroke="rgb(0%,0%,0%)" x1="179.975115206" x2="179.400440512" y1="534.374957937" y2="534.165329783" /><line stroke="rgb(0%,0%,0%)" x1="179.400440512" x2="176.182615066" y1="534.165329783" y2="531.971686959" /><line stroke="rgb(0%,0%,0%)" x1="207.288570146" x2="209.277142613" y1="544.386499498" y2="545.461258685" /><line stroke="rgb(0%,0%,0%)" x1="215.113733874" x2="215.955267236" y1="549.69193143" y2="550.081525568" /><line stroke="rgb(0%,0%,0%)" x1="153.927131135" x2="153.734447055" y1="478.46309258" y2="476.038715291" /><line stroke="rgb(0%,0%,0%)" x1="153.927131135" x2="155.688294795" y1="478.46309258" y2="486.650139199" /><line stroke="rgb(0%,0%,0%)" x1="153.290487946" x2="153.734447055" y1="471.791487965" y2="476.038715291" /><line stroke="rgb(0%,0%,0%)" x1="153.290487946" x2="152.679137323" y1="471.791487965" y2="468.225441542" /><line stroke="rgb(0%,0%,0%)" x1="152.590655068" x2="152.679137323" y1="465.2173196" y2="468.225441542" /><line stroke="rgb(0%,0%,0%)" x1="166.261360759" x2="169.770964153" y1="519.242115694" y2="526.676895628" /><line stroke="rgb(0%,0%,0%)" x1="166.261360759" x2="165.966746769" y1="519.242115694" y2="511.394950237" /><line stroke="rgb(0%,0%,0%)" x1="167.234032815" x2="167.325638512" y1="504.426937183" y2="508.035897048" /><line stroke="rgb(0%,0%,0%)" x1="167.325638512" x2="165.966746769" y1="508.035897048" y2="511.394950237" /><line stroke="rgb(0%,0%,0%)" x1="162.587648983" x2="167.234032815" y1="498.290497742" y2="504.426937183" /><line stroke="rgb(0%,0%,0%)" x1="159.258267579" x2="162.587648983" y1="494.416411642" y2="498.290497742" /><line stroke="rgb(0%,0%,0%)" x1="159.258267579" x2="157.517323823" y1="494.416411642" y2="489.606403028" /><line stroke="rgb(0%,0%,0%)" x1="155.688294795" x2="157.517323823" y1="486.650139199" y2="489.606403028" /><line stroke="rgb(0%,0%,0%)" x1="170.723356934" x2="176.182615066" y1="527.966916436" y2="531.971686959" /><line stroke="rgb(0%,0%,0%)" x1="169.770964153" x2="170.723356934" y1="526.676895628" y2="527.966916436" /><line stroke="rgb(0%,0%,0%)" x1="394.988143605" x2="394.903825077" y1="533.966438204" y2="534.039425089" /><line stroke="rgb(0%,0%,0%)" x1="394.988143605" x2="394.993148254" y1="533.966438204" y2="533.963313595" /><line stroke="rgb(0%,0%,0%)" x1="394.993148254" x2="395.018079594" y1="533.963313595" y2="533.940218587" /><line stroke="rgb(0%,0%,0%)" x1="395.018079594" x2="395.039697446" y1="533.940218587" y2="533.919132144" /><line stroke="rgb(0%,0%,0%)" x1="395.039697446" x2="395.082669182" y1="533.919132144" y2="533.875479928" /><line stroke="rgb(0%,0%,0%)" x1="362.68560682" x2="356.76892322" y1="555.476918273" y2="560.159790716" /><line stroke="rgb(0%,0%,0%)" x1="362.68560682" x2="368.472564637" y1="555.476918273" y2="552.226080298" /><line stroke="rgb(0%,0%,0%)" x1="368.472564637" x2="370.702738527" y1="552.226080298" y2="550.971574025" /><line stroke="rgb(0%,0%,0%)" x1="370.702738527" x2="377.331438128" y1="550.971574025" y2="547.220606404" /><line stroke="rgb(0%,0%,0%)" x1="377.331438128" x2="380.985367632" y1="547.220606404" y2="544.718853605" /><line stroke="rgb(0%,0%,0%)" x1="386.853646049" x2="394.903825077" y1="540.417601894" y2="534.039425089" /><line stroke="rgb(0%,0%,0%)" x1="383.328695342" x2="386.853646049" y1="543.123177969" y2="540.417601894" /><line stroke="rgb(0%,0%,0%)" x1="380.985367632" x2="383.328695342" y1="544.718853605" y2="543.123177969" /><line stroke="rgb(0%,0%,0%)" x1="395.082669182" x2="395.296373987" y1="533.875479928" y2="533.613729738" /><line stroke="rgb(0%,0%,0%)" x1="395.296373987" x2="404.723359106" y1="533.613729738" y2="522.55637456" /><line stroke="rgb(0%,0%,0%)" x1="404.723359106" x2="405.831296026" y1="522.55637456" y2="521.114691875" /><line stroke="rgb(0%,0%,0%)" x1="405.831296026" x2="406.43825645" y1="521.114691875" y2="520.476862506" /><line stroke="rgb(0%,0%,0%)" x1="302.015135903" x2="301.241365969" y1="588.175273941" y2="587.989884364" /><line stroke="rgb(0%,0%,0%)" x1="302.015135903" x2="306.184922711" y1="588.175273941" y2="588.948786072" /><line stroke="rgb(0%,0%,0%)" x1="306.184922711" x2="306.861124454" y1="588.948786072" y2="588.9936321" /><line stroke="rgb(0%,0%,0%)" x1="306.861124454" x2="309.220138286" y1="588.9936321" y2="588.205564508" /><line stroke="rgb(0%,0%,0%)" x1="334.582412609" x2="334.308248057" y1="571.124470167" y2="571.352375469" /><line stroke="rgb(0%,0%,0%)" x1="334.582412609" x2="336.011123534" y1="571.124470167" y2="568.583179071" /><line stroke="rgb(0%,0%,0%)" x1="336.011123534" x2="339.75413505" y1="568.583179071" y2="566.750524672" /><line stroke="rgb(0%,0%,0%)" x1="339.75413505" x2="343.017340689" y1="566.750524672" y2="565.412046261" /><line stroke="rgb(0%,0%,0%)" x1="351.744086047" x2="344.163816092" y1="563.83534027" y2="564.854459248" /><line stroke="rgb(0%,0%,0%)" x1="343.017340689" x2="343.466612492" y1="565.412046261" y2="565.125070858" /><line stroke="rgb(0%,0%,0%)" x1="343.738655042" x2="344.163816092" y1="565.00241042" y2="564.854459248" /><line stroke="rgb(0%,0%,0%)" x1="343.466612492" x2="343.738655042" y1="565.125070858" y2="565.00241042" /><line stroke="rgb(0%,0%,0%)" x1="351.744086047" x2="356.76892322" y1="563.83534027" y2="560.159790716" /><line stroke="rgb(0%,0%,0%)" x1="253.224462133" x2="250.023835719" y1="571.873436548" y2="570.205741978" /><line stroke="rgb(0%,0%,0%)" x1="245.213760871" x2="243.905815672" y1="568.055897986" y2="567.682116216" /><line stroke="rgb(0%,0%,0%)" x1="262.915287192" x2="258.845845768" y1="577.08774528" y2="574.176707579" /><line stroke="rgb(0%,0%,0%)" x1="262.915287192" x2="270.069022376" y1="577.08774528" y2="580.157439768" /><line stroke="rgb(0%,0%,0%)" x1="271.000769469" x2="270.575727589" y1="580.507470656" y2="580.555307264" /><line stroke="rgb(0%,0%,0%)" x1="271.000769469" x2="274.764612322" y1="580.507470656" y2="582.262700008" /><line stroke="rgb(0%,0%,0%)" x1="270.069022376" x2="270.575727589" y1="580.157439768" y2="580.555307264" /><line stroke="rgb(0%,0%,0%)" x1="253.224462133" x2="258.845845768" y1="571.873436548" y2="574.176707579" /><line stroke="rgb(0%,0%,0%)" x1="283.058006201" x2="277.40772161" y1="583.32267556" y2="582.641871919" /><line stroke="rgb(0%,0%,0%)" x1="283.058006201" x2="288.251119061" y1="583.32267556" y2="584.82728148" /><line stroke="rgb(0%,0%,0%)" x1="274.764612322" x2="277.40772161" y1="582.262700008" y2="582.641871919" /><line stroke="rgb(0%,0%,0%)" x1="301.241365969" x2="298.68744776" y1="587.989884364" y2="587.476175954" /><line stroke="rgb(0%,0%,0%)" x1="309.220138286" x2="317.722573697" y1="588.205564508" y2="584.730218555" /><line stroke="rgb(0%,0%,0%)" x1="288.251119061" x2="298.68744776" y1="584.82728148" y2="587.476175954" /><line stroke="rgb(0%,0%,0%)" x1="245.213760871" x2="250.023835719" y1="568.055897986" y2="570.205741978" /><line stroke="rgb(0%,0%,0%)" x1="243.905815672" x2="243.090960448" y1="567.682116216" y2="566.643133937" /><line stroke="rgb(0%,0%,0%)" x1="321.590583337" x2="320.451287785" y1="582.830757553" y2="583.612457976" /><line stroke="rgb(0%,0%,0%)" x1="317.722573697" x2="318.456012299" y1="584.730218555" y2="584.266802895" /></svg>