<?xml version="1.0" encoding="utf-8" ?>
<svg baseProfile="full" height="100%" version="1.1" viewBox="0.5 0.5 685.793960571 941.299331665" width="100%" xmlns="http://www.w3.org/2000/svg" xmlns:ev="http://www.w3.org/2001/xml-events" xmlns:xlink="http://www.w3.org/1999/xlink"><defs /><line stroke="rgb(0%,0%,0%)" x1="420.37752584" x2="420.316006588" y1="454.921049274" y2="455.46241818" /><line stroke="rgb(0%,0%,0%)" x1="420.37752584" x2="420.400232148" y1="454.921049274" y2="454.751019042" /><line stroke="rgb(0%,0%,0%)" x1="420.400232148" x2="417.845794808" y1="454.751019042" y2="440.769607354" /><line stroke="rgb(0%,0%,0%)" x1="417.845794808" x2="414.690510601" y1="440.769607354" y2="430.988039781" /><line stroke="rgb(0%,0%,0%)" x1="411.791277861" x2="408.735820343" y1="424.958645205" y2="420.04343052" /><line stroke="rgb(0%,0%,0%)" x1="405.721295832" x2="408.735820343" y1="415.315718933" y2="420.04343052" /><line stroke="rgb(0%,0%,0%)" x1="405.721295832" x2="404.516844942" y1="415.315718933" y2="414.070889773" /><line stroke="rgb(0%,0%,0%)" x1="404.516844942" x2="403.628299459" y1="414.070889773" y2="413.376608232" /><line stroke="rgb(0%,0%,0%)" x1="419.38294181" x2="420.316006588" y1="466.568037105" y2="455.46241818" /><line stroke="rgb(0%,0%,0%)" x1="414.690510601" x2="413.33507133" y1="430.988039781" y2="427.356812025" /><line stroke="rgb(0%,0%,0%)" x1="413.33507133" x2="412.675248551" y1="427.356812025" y2="426.754890591" /><line stroke="rgb(0%,0%,0%)" x1="412.675248551" x2="411.791277861" y1="426.754890591" y2="424.958645205" /><line stroke="rgb(0%,0%,0%)" x1="319.292611547" x2="318.648271856" y1="343.446735583" y2="342.578895878" /><line stroke="rgb(0%,0%,0%)" x1="220.228569603" x2="220.999240056" y1="365.328599469" y2="364.892893103" /><line stroke="rgb(0%,0%,0%)" x1="234.048485442" x2="233.473824533" y1="357.07620076" y2="357.326424193" /><line stroke="rgb(0%,0%,0%)" x1="234.448615285" x2="234.048485442" y1="356.785230573" y2="357.07620076" /><line stroke="rgb(0%,0%,0%)" x1="234.516961327" x2="236.496048503" y1="356.70414489" y2="356.196956112" /><line stroke="rgb(0%,0%,0%)" x1="234.448615285" x2="234.516961327" y1="356.785230573" y2="356.70414489" /><line stroke="rgb(0%,0%,0%)" x1="213.539632135" x2="206.968306391" y1="370.590851022" y2="375.495748271" /><line stroke="rgb(0%,0%,0%)" x1="220.228569603" x2="213.539632135" y1="365.328599469" y2="370.590851022" /><line stroke="rgb(0%,0%,0%)" x1="226.362230437" x2="220.999240056" y1="361.312000458" y2="364.892893103" /><line stroke="rgb(0%,0%,0%)" x1="233.473824533" x2="226.362230437" y1="357.326424193" y2="361.312000458" /><line stroke="rgb(0%,0%,0%)" x1="238.726732073" x2="236.496048503" y1="355.39771394" y2="356.196956112" /><line stroke="rgb(0%,0%,0%)" x1="182.320195667" x2="174.915763998" y1="390.505688982" y2="392.828224029" /><line stroke="rgb(0%,0%,0%)" x1="191.813419147" x2="182.320195667" y1="385.073611232" y2="390.505688982" /><line stroke="rgb(0%,0%,0%)" x1="192.115121411" x2="191.813419147" y1="384.872353516" y2="385.073611232" /><line stroke="rgb(0%,0%,0%)" x1="192.306037887" x2="192.115121411" y1="384.709052396" y2="384.872353516" /><line stroke="rgb(0%,0%,0%)" x1="205.847918456" x2="193.565416174" y1="376.157175369" y2="383.930333425" /><line stroke="rgb(0%,0%,0%)" x1="206.968306391" x2="205.847918456" y1="375.495748271" y2="376.157175369" /><line stroke="rgb(0%,0%,0%)" x1="192.306037887" x2="193.565416174" y1="384.709052396" y2="383.930333425" /><line stroke="rgb(0%,0%,0%)" x1="153.595179807" x2="153.302190557" y1="463.212670795" y2="465.233866338" /><line stroke="rgb(0%,0%,0%)" x1="153.319925067" x2="153.595179807" y1="461.256808439" y2="463.212670795" /><line stroke="rgb(0%,0%,0%)" x1="154.010049543" x2="153.319925067" y1="458.506339086" y2="461.256808439" /><line stroke="rgb(0%,0%,0%)" x1="154.035255923" x2="154.569084444" y1="455.86946354" y2="451.781907298" /><line stroke="rgb(0%,0%,0%)" x1="154.035255923" x2="154.010049543" y1="455.86946354" y2="458.506339086" /><line stroke="rgb(0%,0%,0%)" x1="154.569084444" x2="154.853531561" y1="451.781907298" y2="447.522268169" /><line stroke="rgb(0%,0%,0%)" x1="156.0876823" x2="155.740762466" y1="438.219143724" y2="437.070900587" /><line stroke="rgb(0%,0%,0%)" x1="156.0876823" x2="155.952746328" y1="438.219143724" y2="439.995915479" /><line stroke="rgb(0%,0%,0%)" x1="155.740762466" x2="155.248869844" y1="437.070900587" y2="434.643095581" /><line stroke="rgb(0%,0%,0%)" x1="155.068206598" x2="155.248869844" y1="424.066475565" y2="434.643095581" /><line stroke="rgb(0%,0%,0%)" x1="154.118481117" x2="155.068206598" y1="421.580881022" y2="424.066475565" /><line stroke="rgb(0%,0%,0%)" x1="150.117438267" x2="152.572215435" y1="420.509542103" y2="422.286903626" /><line stroke="rgb(0%,0%,0%)" x1="150.117438267" x2="146.412685775" y1="420.509542103" y2="412.681991966" /><line stroke="rgb(0%,0%,0%)" x1="152.572215435" x2="154.118481117" y1="422.286903626" y2="421.580881022" /><line stroke="rgb(0%,0%,0%)" x1="146.743514445" x2="146.412685775" y1="411.391728518" y2="412.681991966" /><line stroke="rgb(0%,0%,0%)" x1="150.580892178" x2="153.987230096" y1="407.768821503" y2="405.178043636" /><line stroke="rgb(0%,0%,0%)" x1="156.314100396" x2="153.987230096" y1="403.5575537" y2="405.178043636" /><line stroke="rgb(0%,0%,0%)" x1="155.133664162" x2="154.853531561" y1="446.300984955" y2="447.522268169" /><line stroke="rgb(0%,0%,0%)" x1="155.952746328" x2="155.133664162" y1="439.995915479" y2="446.300984955" /><line stroke="rgb(0%,0%,0%)" x1="160.973392863" x2="156.314100396" y1="401.359340149" y2="403.5575537" /><line stroke="rgb(0%,0%,0%)" x1="161.357057999" x2="160.973392863" y1="401.215406093" y2="401.359340149" /><line stroke="rgb(0%,0%,0%)" x1="162.920655418" x2="161.357057999" y1="398.20475437" y2="401.215406093" /><line stroke="rgb(0%,0%,0%)" x1="162.920655418" x2="166.532806778" y1="398.20475437" y2="397.233676619" /><line stroke="rgb(0%,0%,0%)" x1="169.928868897" x2="166.532806778" y1="394.33918935" y2="397.233676619" /><line stroke="rgb(0%,0%,0%)" x1="169.928868897" x2="174.915763998" y1="394.33918935" y2="392.828224029" /><line stroke="rgb(0%,0%,0%)" x1="150.580892178" x2="146.743514445" y1="407.768821503" y2="411.391728518" /><line stroke="rgb(0%,0%,0%)" x1="397.703379616" x2="400.763798567" y1="406.504569331" y2="410.258275639" /><line stroke="rgb(0%,0%,0%)" x1="395.60782473" x2="397.703379616" y1="404.823984428" y2="406.504569331" /><line stroke="rgb(0%,0%,0%)" x1="413.812048854" x2="409.298225522" y1="509.467912886" y2="515.097757858" /><line stroke="rgb(0%,0%,0%)" x1="413.812048854" x2="415.95068081" y1="509.467912886" y2="504.872136816" /><line stroke="rgb(0%,0%,0%)" x1="420.645737384" x2="420.089542553" y1="481.385332467" y2="487.090257001" /><line stroke="rgb(0%,0%,0%)" x1="420.645737384" x2="420.217218222" y1="481.385332467" y2="476.875443276" /><line stroke="rgb(0%,0%,0%)" x1="419.38294181" x2="420.302923121" y1="466.568037105" y2="473.345653769" /><line stroke="rgb(0%,0%,0%)" x1="361.495027274" x2="358.771290792" y1="379.796662946" y2="378.04961653" /><line stroke="rgb(0%,0%,0%)" x1="368.718287364" x2="386.408282099" y1="383.831368916" y2="397.017601276" /><line stroke="rgb(0%,0%,0%)" x1="395.60782473" x2="386.800089158" y1="404.823984428" y2="397.310505459" /><line stroke="rgb(0%,0%,0%)" x1="403.628299459" x2="400.763798567" y1="413.376608232" y2="410.258275639" /><line stroke="rgb(0%,0%,0%)" x1="406.885981639" x2="409.298225522" y1="518.68303481" y2="515.097757858" /><line stroke="rgb(0%,0%,0%)" x1="415.95068081" x2="417.383213377" y1="504.872136816" y2="501.436207027" /><line stroke="rgb(0%,0%,0%)" x1="420.089542553" x2="417.917041332" y1="487.090257001" y2="498.186045037" /><line stroke="rgb(0%,0%,0%)" x1="417.383213377" x2="417.917041332" y1="501.436207027" y2="498.186045037" /><line stroke="rgb(0%,0%,0%)" x1="420.217218222" x2="420.302923121" y1="476.875443276" y2="473.345653769" /><line stroke="rgb(0%,0%,0%)" x1="339.660015457" x2="346.106327368" y1="364.199144162" y2="367.300952597" /><line stroke="rgb(0%,0%,0%)" x1="339.660015457" x2="331.127298348" y1="364.199144162" y2="360.523612188" /><line stroke="rgb(0%,0%,0%)" x1="331.127298348" x2="329.155587958" y1="360.523612188" y2="357.271048459" /><line stroke="rgb(0%,0%,0%)" x1="358.771290792" x2="357.047282725" y1="378.04961653" y2="376.580154048" /><line stroke="rgb(0%,0%,0%)" x1="368.718287364" x2="361.495027274" y1="383.831368916" y2="379.796662946" /><line stroke="rgb(0%,0%,0%)" x1="386.550167193" x2="386.408282099" y1="397.112207821" y2="397.017601276" /><line stroke="rgb(0%,0%,0%)" x1="386.800089158" x2="386.658358212" y1="397.310505459" y2="397.213158453" /><line stroke="rgb(0%,0%,0%)" x1="386.658358212" x2="386.550167193" y1="397.213158453" y2="397.112207821" /><line stroke="rgb(0%,0%,0%)" x1="318.260529019" x2="315.617960637" y1="342.53639315" y2="340.126535033" /><line stroke="rgb(0%,0%,0%)" x1="318.648271856" x2="318.260529019" y1="342.578895878" y2="342.53639315" /><line stroke="rgb(0%,0%,0%)" x1="311.944344582" x2="315.617960637" y1="337.395053561" y2="340.126535033" /><line stroke="rgb(0%,0%,0%)" x1="311.944344582" x2="311.094623762" y1="337.395053561" y2="337.187590128" /><line stroke="rgb(0%,0%,0%)" x1="321.160096869" x2="320.93874122" y1="581.275889334" y2="581.323384389" /><line stroke="rgb(0%,0%,0%)" x1="329.819100282" x2="328.26170085" y1="573.182068576" y2="575.317531754" /><line stroke="rgb(0%,0%,0%)" x1="321.160096869" x2="328.26170085" y1="581.275889334" y2="575.317531754" /><line stroke="rgb(0%,0%,0%)" x1="329.819100282" x2="330.614927401" y1="573.182068576" y2="572.641603872" /><line stroke="rgb(0%,0%,0%)" x1="329.155587958" x2="326.936449346" y1="357.271048459" y2="353.897744652" /><line stroke="rgb(0%,0%,0%)" x1="326.936449346" x2="325.497991359" y1="353.897744652" y2="351.393954318" /><line stroke="rgb(0%,0%,0%)" x1="324.495496257" x2="325.497991359" y1="349.328908109" y2="351.393954318" /><line stroke="rgb(0%,0%,0%)" x1="320.257534878" x2="319.292611547" y1="344.716054704" y2="343.446735583" /><line stroke="rgb(0%,0%,0%)" x1="324.495496257" x2="320.257534878" y1="349.328908109" y2="344.716054704" /><line stroke="rgb(0%,0%,0%)" x1="330.614927401" x2="331.35884906" y1="572.641603872" y2="571.174902687" /><line stroke="rgb(0%,0%,0%)" x1="331.35884906" x2="333.505204933" y1="571.174902687" y2="570.128815527" /><line stroke="rgb(0%,0%,0%)" x1="333.505204933" x2="335.043472314" y1="570.128815527" y2="567.813738975" /><line stroke="rgb(0%,0%,0%)" x1="335.043472314" x2="335.759015525" y1="567.813738975" y2="567.533426089" /><line stroke="rgb(0%,0%,0%)" x1="351.175708712" x2="347.756736353" y1="371.139091001" y2="368.517226418" /><line stroke="rgb(0%,0%,0%)" x1="347.756736353" x2="346.513882624" y1="368.517226418" y2="367.708080109" /><line stroke="rgb(0%,0%,0%)" x1="357.047282725" x2="351.175708712" y1="376.580154048" y2="371.139091001" /><line stroke="rgb(0%,0%,0%)" x1="346.513882624" x2="346.106327368" y1="367.708080109" y2="367.300952597" /><line stroke="rgb(0%,0%,0%)" x1="267.41381094" x2="267.224769661" y1="342.065975169" y2="342.159678821" /><line stroke="rgb(0%,0%,0%)" x1="267.437597913" x2="267.41381094" y1="342.053704825" y2="342.065975169" /><line stroke="rgb(0%,0%,0%)" x1="271.036424269" x2="267.437597913" y1="340.497349474" y2="342.053704825" /><line stroke="rgb(0%,0%,0%)" x1="271.036424269" x2="275.063057247" y1="340.497349474" y2="338.610318071" /><line stroke="rgb(0%,0%,0%)" x1="282.537887992" x2="278.138835886" y1="336.881838429" y2="337.959513519" /><line stroke="rgb(0%,0%,0%)" x1="285.945173146" x2="282.537887992" y1="336.346122059" y2="336.881838429" /><line stroke="rgb(0%,0%,0%)" x1="292.193709125" x2="285.945173146" y1="335.541432751" y2="336.346122059" /><line stroke="rgb(0%,0%,0%)" x1="299.357801937" x2="296.821831901" y1="333.715697474" y2="335.238232272" /><line stroke="rgb(0%,0%,0%)" x1="299.45226872" x2="299.357801937" y1="333.711364652" y2="333.715697474" /><line stroke="rgb(0%,0%,0%)" x1="296.821831901" x2="292.193709125" y1="335.238232272" y2="335.541432751" /><line stroke="rgb(0%,0%,0%)" x1="311.094623762" x2="299.45226872" y1="337.187590128" y2="333.711364652" /><line stroke="rgb(0%,0%,0%)" x1="317.681482296" x2="320.502283034" y1="582.547923323" y2="581.622849746" /><line stroke="rgb(0%,0%,0%)" x1="239.658248911" x2="246.437107392" y1="353.968940326" y2="353.285149594" /><line stroke="rgb(0%,0%,0%)" x1="239.658248911" x2="238.726732073" y1="353.968940326" y2="355.39771394" /><line stroke="rgb(0%,0%,0%)" x1="256.005479304" x2="247.756602692" y1="347.310379825" y2="352.780513483" /><line stroke="rgb(0%,0%,0%)" x1="267.224769661" x2="256.005479304" y1="342.159678821" y2="347.310379825" /><line stroke="rgb(0%,0%,0%)" x1="276.006153538" x2="275.063057247" y1="338.734041797" y2="338.610318071" /><line stroke="rgb(0%,0%,0%)" x1="278.138835886" x2="276.006153538" y1="337.959513519" y2="338.734041797" /><line stroke="rgb(0%,0%,0%)" x1="192.690213294" x2="186.73670346" y1="537.766767228" y2="536.167767103" /><line stroke="rgb(0%,0%,0%)" x1="194.324137157" x2="206.911959334" y1="538.446688185" y2="544.184185495" /><line stroke="rgb(0%,0%,0%)" x1="192.690213294" x2="194.324137157" y1="537.766767228" y2="538.446688185" /><line stroke="rgb(0%,0%,0%)" x1="221.57718444" x2="216.690579862" y1="554.024256075" y2="550.247560858" /><line stroke="rgb(0%,0%,0%)" x1="209.473779912" x2="214.581621522" y1="545.568766769" y2="549.271202887" /><line stroke="rgb(0%,0%,0%)" x1="226.776097089" x2="230.405194674" y1="557.203545115" y2="558.560090789" /><line stroke="rgb(0%,0%,0%)" x1="236.052111491" x2="230.405194674" y1="562.14523756" y2="558.560090789" /><line stroke="rgb(0%,0%,0%)" x1="221.57718444" x2="226.776097089" y1="554.024256075" y2="557.203545115" /><line stroke="rgb(0%,0%,0%)" x1="242.229970008" x2="243.412409231" y1="565.51161824" y2="566.462979249" /><line stroke="rgb(0%,0%,0%)" x1="236.052111491" x2="242.229970008" y1="562.14523756" y2="565.51161824" /><line stroke="rgb(0%,0%,0%)" x1="247.578650231" x2="247.268665718" y1="352.895720441" y2="352.983613917" /><line stroke="rgb(0%,0%,0%)" x1="247.268665718" x2="246.437107392" y1="352.983613917" y2="353.285149594" /><line stroke="rgb(0%,0%,0%)" x1="247.756602692" x2="247.578650231" y1="352.780513483" y2="352.895720441" /><line stroke="rgb(0%,0%,0%)" x1="181.277836563" x2="186.73670346" y1="534.733428172" y2="536.167767103" /><line stroke="rgb(0%,0%,0%)" x1="206.911959334" x2="209.473779912" y1="544.184185495" y2="545.568766769" /><line stroke="rgb(0%,0%,0%)" x1="214.581621522" x2="216.690579862" y1="549.271202887" y2="550.247560858" /><line stroke="rgb(0%,0%,0%)" x1="154.304931797" x2="154.168292312" y1="476.496635536" y2="474.777418954" /><line stroke="rgb(0%,0%,0%)" x1="154.304931797" x2="156.486125449" y1="476.496635536" y2="486.636257721" /><line stroke="rgb(0%,0%,0%)" x1="153.853464308" x2="154.168292312" y1="471.765551257" y2="474.777418954" /><line stroke="rgb(0%,0%,0%)" x1="153.853464308" x2="153.419932723" y1="471.765551257" y2="469.236734407" /><line stroke="rgb(0%,0%,0%)" x1="153.302190557" x2="153.419932723" y1="465.233866338" y2="469.236734407" /><line stroke="rgb(0%,0%,0%)" x1="166.97751755" x2="169.960157983" y1="519.166467816" y2="525.484923992" /><line stroke="rgb(0%,0%,0%)" x1="166.97751755" x2="166.727139516" y1="519.166467816" y2="512.497545335" /><line stroke="rgb(0%,0%,0%)" x1="168.774641206" x2="168.829009379" y1="505.159994569" y2="507.301919781" /><line stroke="rgb(0%,0%,0%)" x1="168.829009379" x2="166.727139516" y1="507.301919781" y2="512.497545335" /><line stroke="rgb(0%,0%,0%)" x1="162.895786239" x2="168.774641206" y1="497.395841026" y2="505.159994569" /><line stroke="rgb(0%,0%,0%)" x1="160.174394279" x2="162.895786239" y1="494.229214712" y2="497.395841026" /><line stroke="rgb(0%,0%,0%)" x1="160.174394279" x2="158.75137007" y1="494.229214712" y2="490.297577816" /><line stroke="rgb(0%,0%,0%)" x1="156.486125449" x2="158.75137007" y1="486.636257721" y2="490.297577816" /><line stroke="rgb(0%,0%,0%)" x1="171.979099183" x2="179.897245142" y1="528.219589992" y2="534.028137008" /><line stroke="rgb(0%,0%,0%)" x1="169.960157983" x2="171.979099183" y1="525.484923992" y2="528.219589992" /><line stroke="rgb(0%,0%,0%)" x1="180.671217537" x2="181.277836563" y1="534.302062447" y2="534.733428172" /><line stroke="rgb(0%,0%,0%)" x1="179.897245142" x2="180.671217537" y1="534.028137008" y2="534.302062447" /><line stroke="rgb(0%,0%,0%)" x1="362.320027862" x2="358.928560401" y1="554.593627981" y2="557.277869793" /><line stroke="rgb(0%,0%,0%)" x1="362.320027862" x2="368.841466735" y1="554.593627981" y2="550.930193442" /><line stroke="rgb(0%,0%,0%)" x1="368.841466735" x2="369.387245193" y1="550.930193442" y2="550.623184871" /><line stroke="rgb(0%,0%,0%)" x1="369.387245193" x2="377.103870327" y1="550.623184871" y2="546.256595228" /><line stroke="rgb(0%,0%,0%)" x1="377.103870327" x2="380.009664441" y1="546.256595228" y2="544.267071744" /><line stroke="rgb(0%,0%,0%)" x1="387.745632739" x2="394.792807763" y1="538.596865848" y2="533.013371603" /><line stroke="rgb(0%,0%,0%)" x1="383.09880023" x2="387.745632739" y1="542.163542351" y2="538.596865848" /><line stroke="rgb(0%,0%,0%)" x1="380.009664441" x2="383.09880023" y1="544.267071744" y2="542.163542351" /><line stroke="rgb(0%,0%,0%)" x1="403.213505895" x2="394.792807763" y1="523.136337863" y2="533.013371603" /><line stroke="rgb(0%,0%,0%)" x1="403.213505895" x2="405.586167722" y1="523.136337863" y2="520.048954988" /><line stroke="rgb(0%,0%,0%)" x1="405.586167722" x2="406.885981639" y1="520.048954988" y2="518.68303481" /><line stroke="rgb(0%,0%,0%)" x1="301.309774561" x2="300.936703039" y1="586.993546427" y2="586.904161238" /><line stroke="rgb(0%,0%,0%)" x1="301.309774561" x2="304.695469313" y1="586.993546427" y2="587.621606345" /><line stroke="rgb(0%,0%,0%)" x1="342.409536816" x2="336.748768905" y1="564.825611499" y2="567.147504898" /><line stroke="rgb(0%,0%,0%)" x1="351.75820731" x2="345.381725684" y1="562.5228135" y2="563.380090811" /><line stroke="rgb(0%,0%,0%)" x1="342.409536816" x2="343.574254914" y1="564.825611499" y2="564.081639933" /><line stroke="rgb(0%,0%,0%)" x1="344.27951369" x2="345.381725684" y1="563.763647949" y2="563.380090811" /><line stroke="rgb(0%,0%,0%)" x1="343.574254914" x2="344.27951369" y1="564.081639933" y2="563.763647949" /><line stroke="rgb(0%,0%,0%)" x1="351.75820731" x2="358.928560401" y1="562.5228135" y2="557.277869793" /><line stroke="rgb(0%,0%,0%)" x1="252.723842857" x2="250.027964792" y1="571.097989236" y2="569.693295083" /><line stroke="rgb(0%,0%,0%)" x1="244.663796215" x2="243.892764902" y1="567.295801083" y2="567.07545741" /><line stroke="rgb(0%,0%,0%)" x1="262.471415802" x2="258.877153778" y1="576.190331334" y2="573.61920887" /><line stroke="rgb(0%,0%,0%)" x1="262.471415802" x2="270.16065116" y1="576.190331334" y2="579.489810947" /><line stroke="rgb(0%,0%,0%)" x1="270.767752324" x2="270.490806549" y1="579.717881591" y2="579.749050629" /><line stroke="rgb(0%,0%,0%)" x1="270.767752324" x2="273.220170359" y1="579.717881591" y2="580.861541485" /><line stroke="rgb(0%,0%,0%)" x1="270.16065116" x2="270.490806549" y1="579.489810947" y2="579.749050629" /><line stroke="rgb(0%,0%,0%)" x1="252.723842857" x2="258.877153778" y1="571.097989236" y2="573.61920887" /><line stroke="rgb(0%,0%,0%)" x1="282.417061152" x2="277.246385632" y1="582.06214478" y2="581.439129308" /><line stroke="rgb(0%,0%,0%)" x1="282.417061152" x2="288.161346152" y1="582.06214478" y2="583.72644237" /><line stroke="rgb(0%,0%,0%)" x1="273.220170359" x2="277.246385632" y1="580.861541485" y2="581.439129308" /><line stroke="rgb(0%,0%,0%)" x1="300.936703039" x2="299.705336823" y1="586.904161238" y2="586.656477824" /><line stroke="rgb(0%,0%,0%)" x1="316.644590817" x2="306.018675045" y1="583.20307257" y2="587.546384997" /><line stroke="rgb(0%,0%,0%)" x1="305.866670384" x2="306.018675045" y1="587.623455345" y2="587.546384997" /><line stroke="rgb(0%,0%,0%)" x1="288.161346152" x2="299.705336823" y1="583.72644237" y2="586.656477824" /><line stroke="rgb(0%,0%,0%)" x1="244.663796215" x2="250.027964792" y1="567.295801083" y2="569.693295083" /><line stroke="rgb(0%,0%,0%)" x1="243.892764902" x2="243.412409231" y1="567.07545741" y2="566.462979249" /><line stroke="rgb(0%,0%,0%)" x1="335.759015525" x2="336.748768905" y1="567.533426089" y2="567.147504898" /><line stroke="rgb(0%,0%,0%)" x1="320.93874122" x2="320.502283034" y1="581.323384389" y2="581.622849746" /><line stroke="rgb(0%,0%,0%)" x1="316.644590817" x2="317.681482296" y1="583.20307257" y2="582.547923323" /><line stroke="rgb(0%,0%,0%)" x1="304.695469313" x2="305.866670384" y1="587.621606345" y2="587.623455345" /></svg>