<?xml version="1.0" encoding="utf-8" ?>
<svg baseProfile="full" height="100%" version="1.1" viewBox="0.5 0.5 685.793960571 941.299331665" width="100%" xmlns="http://www.w3.org/2000/svg" xmlns:ev="http://www.w3.org/2001/xml-events" xmlns:xlink="http://www.w3.org/1999/xlink"><defs /><line stroke="rgb(0%,0%,0%)" x1="666.898337819" x2="665.792410788" y1="382.883537744" y2="377.17264392" /><line stroke="rgb(0%,0%,0%)" x1="674.054596007" x2="674.667915323" y1="429.351738091" y2="433.863509419" /><line stroke="rgb(0%,0%,0%)" x1="619.84951657" x2="619.268053486" y1="243.617711717" y2="242.311873915" /><line stroke="rgb(0%,0%,0%)" x1="646.065895905" x2="645.018572719" y1="308.682136121" y2="305.655008114" /><line stroke="rgb(0%,0%,0%)" x1="650.523658575" x2="652.464257988" y1="324.735016407" y2="329.391923572" /><line stroke="rgb(0%,0%,0%)" x1="646.91769524" x2="646.065895905" y1="311.5068218" y2="308.682136121" /><line stroke="rgb(0%,0%,0%)" x1="669.563074346" x2="666.898337819" y1="390.07721809" y2="382.883537744" /><line stroke="rgb(0%,0%,0%)" x1="665.792410788" x2="666.066272955" y1="377.17264392" y2="375.612458395" /><line stroke="rgb(0%,0%,0%)" x1="664.933836478" x2="664.07072927" y1="373.648032131" y2="365.806461619" /><line stroke="rgb(0%,0%,0%)" x1="669.863065818" x2="670.945188331" y1="397.230667631" y2="405.568210777" /><line stroke="rgb(0%,0%,0%)" x1="613.882042693" x2="607.900658252" y1="231.827909922" y2="220.511720627" /><line stroke="rgb(0%,0%,0%)" x1="619.268053486" x2="613.882042693" y1="242.311873915" y2="231.827909922" /><line stroke="rgb(0%,0%,0%)" x1="629.773521592" x2="628.32633175" y1="265.876458084" y2="261.772527262" /><line stroke="rgb(0%,0%,0%)" x1="623.144720208" x2="628.32633175" y1="252.24156188" y2="261.772527262" /><line stroke="rgb(0%,0%,0%)" x1="623.144720208" x2="619.84951657" y1="252.24156188" y2="243.617711717" /><line stroke="rgb(0%,0%,0%)" x1="645.018572719" x2="637.973684471" y1="305.655008114" y2="285.287796254" /><line stroke="rgb(0%,0%,0%)" x1="637.973684471" x2="636.171891768" y1="285.287796254" y2="278.823745917" /><line stroke="rgb(0%,0%,0%)" x1="636.171891768" x2="634.064970463" y1="278.823745917" y2="274.10401397" /><line stroke="rgb(0%,0%,0%)" x1="634.064970463" x2="629.773521592" y1="274.10401397" y2="265.876458084" /><line stroke="rgb(0%,0%,0%)" x1="650.523658575" x2="646.91769524" y1="324.735016407" y2="311.5068218" /><line stroke="rgb(0%,0%,0%)" x1="664.933836478" x2="666.066272955" y1="373.648032131" y2="375.612458395" /><line stroke="rgb(0%,0%,0%)" x1="664.07072927" x2="663.641974436" y1="365.806461619" y2="363.779985593" /><line stroke="rgb(0%,0%,0%)" x1="663.641974436" x2="663.324985983" y1="363.779985593" y2="362.71617544" /><line stroke="rgb(0%,0%,0%)" x1="663.324985983" x2="657.673648902" y1="362.71617544" y2="346.96419098" /><line stroke="rgb(0%,0%,0%)" x1="653.949676817" x2="657.492799999" y1="334.294426642" y2="346.476780493" /><line stroke="rgb(0%,0%,0%)" x1="676.212887223" x2="675.954740389" y1="446.948934745" y2="441.059812649" /><line stroke="rgb(0%,0%,0%)" x1="675.954740389" x2="675.424806347" y1="441.059812649" y2="439.887038341" /><line stroke="rgb(0%,0%,0%)" x1="675.424806347" x2="674.667915323" y1="439.887038341" y2="433.863509419" /><line stroke="rgb(0%,0%,0%)" x1="674.054596007" x2="673.217548787" y1="429.351738091" y2="423.169658575" /><line stroke="rgb(0%,0%,0%)" x1="671.892492459" x2="671.204424915" y1="411.271319339" y2="407.462820051" /><line stroke="rgb(0%,0%,0%)" x1="671.204424915" x2="670.900916933" y1="407.462820051" y2="406.466071775" /><line stroke="rgb(0%,0%,0%)" x1="670.900916933" x2="670.945188331" y1="406.466071775" y2="405.568210777" /><line stroke="rgb(0%,0%,0%)" x1="669.863065818" x2="670.095389909" y1="397.230667631" y2="392.982165522" /><line stroke="rgb(0%,0%,0%)" x1="576.665566767" x2="582.15898545" y1="178.444987779" y2="184.425078916" /><line stroke="rgb(0%,0%,0%)" x1="576.665566767" x2="572.02212564" y1="178.444987779" y2="174.385807439" /><line stroke="rgb(0%,0%,0%)" x1="598.217109732" x2="592.339827926" y1="205.416394219" y2="199.080080656" /><line stroke="rgb(0%,0%,0%)" x1="592.339827926" x2="587.287136867" y1="199.080080656" y2="194.358878925" /><line stroke="rgb(0%,0%,0%)" x1="600.448160554" x2="605.738092915" y1="209.056469151" y2="217.117843706" /><line stroke="rgb(0%,0%,0%)" x1="600.448160554" x2="598.217109732" y1="209.056469151" y2="205.416394219" /><line stroke="rgb(0%,0%,0%)" x1="607.900658252" x2="607.393468424" y1="220.511720627" y2="219.476065546" /><line stroke="rgb(0%,0%,0%)" x1="657.673648902" x2="657.492799999" y1="346.96419098" y2="346.476780493" /><line stroke="rgb(0%,0%,0%)" x1="557.009201812" x2="561.915470288" y1="168.54417082" y2="170.385846552" /><line stroke="rgb(0%,0%,0%)" x1="557.009201812" x2="542.588587584" y1="168.54417082" y2="162.991302483" /><line stroke="rgb(0%,0%,0%)" x1="565.483328834" x2="561.915470288" y1="171.795986058" y2="170.385846552" /><line stroke="rgb(0%,0%,0%)" x1="572.02212564" x2="565.483328834" y1="174.385807439" y2="171.795986058" /><line stroke="rgb(0%,0%,0%)" x1="584.392899169" x2="582.15898545" y1="188.419886876" y2="184.425078916" /><line stroke="rgb(0%,0%,0%)" x1="587.287136867" x2="584.392899169" y1="194.358878925" y2="188.419886876" /><line stroke="rgb(0%,0%,0%)" x1="606.663573263" x2="605.738092915" y1="218.306545381" y2="217.117843706" /><line stroke="rgb(0%,0%,0%)" x1="607.393468424" x2="606.663573263" y1="219.476065546" y2="218.306545381" /><line stroke="rgb(0%,0%,0%)" x1="653.949676817" x2="653.369261422" y1="334.294426642" y2="333.096903674" /><line stroke="rgb(0%,0%,0%)" x1="653.369261422" x2="652.784510412" y1="333.096903674" y2="331.653631261" /><line stroke="rgb(0%,0%,0%)" x1="652.784510412" x2="652.464257988" y1="331.653631261" y2="329.391923572" /><line stroke="rgb(0%,0%,0%)" x1="523.117808581" x2="516.182033336" y1="155.421329206" y2="153.040992583" /><line stroke="rgb(0%,0%,0%)" x1="542.588587584" x2="527.562042373" y1="162.991302483" y2="157.035727452" /><line stroke="rgb(0%,0%,0%)" x1="485.816244678" x2="495.533915209" y1="142.749278356" y2="146.193844513" /><line stroke="rgb(0%,0%,0%)" x1="516.182033336" x2="502.666414661" y1="153.040992583" y2="149.16076171" /><line stroke="rgb(0%,0%,0%)" x1="502.666414661" x2="495.533915209" y1="149.16076171" y2="146.193844513" /><line stroke="rgb(0%,0%,0%)" x1="473.423118064" x2="465.752474108" y1="141.243427508" y2="140.895409844" /><line stroke="rgb(0%,0%,0%)" x1="465.752474108" x2="454.491271596" y1="140.895409844" y2="137.468501961" /><line stroke="rgb(0%,0%,0%)" x1="478.67978769" x2="475.205853983" y1="142.475362261" y2="141.836794708" /><line stroke="rgb(0%,0%,0%)" x1="485.816244678" x2="478.67978769" y1="142.749278356" y2="142.475362261" /><line stroke="rgb(0%,0%,0%)" x1="420.900567929" x2="420.802332475" y1="128.146517926" y2="128.114999201" /><line stroke="rgb(0%,0%,0%)" x1="420.802332475" x2="419.166138204" y1="128.114999201" y2="127.858605707" /><line stroke="rgb(0%,0%,0%)" x1="429.792846534" x2="421.295534914" y1="129.175449499" y2="128.24795793" /><line stroke="rgb(0%,0%,0%)" x1="420.900567929" x2="421.295534914" y1="128.146517926" y2="128.24795793" /><line stroke="rgb(0%,0%,0%)" x1="429.792846534" x2="439.821959961" y1="129.175449499" y2="133.116057529" /><line stroke="rgb(0%,0%,0%)" x1="442.862733357" x2="453.146618156" y1="133.802059447" y2="137.078748256" /><line stroke="rgb(0%,0%,0%)" x1="454.491271596" x2="453.146618156" y1="137.468501961" y2="137.078748256" /><line stroke="rgb(0%,0%,0%)" x1="475.205853983" x2="473.423118064" y1="141.836794708" y2="141.243427508" /><line stroke="rgb(0%,0%,0%)" x1="372.991744925" x2="375.493922069" y1="139.543337165" y2="137.794190164" /><line stroke="rgb(0%,0%,0%)" x1="372.991744925" x2="371.374127576" y1="139.543337165" y2="139.700348704" /><line stroke="rgb(0%,0%,0%)" x1="390.63366881" x2="395.684246109" y1="128.109980249" y2="127.454412096" /><line stroke="rgb(0%,0%,0%)" x1="399.58783775" x2="395.684246109" y1="126.661160752" y2="127.454412096" /><line stroke="rgb(0%,0%,0%)" x1="390.63366881" x2="386.475073738" y1="128.109980249" y2="131.572434188" /><line stroke="rgb(0%,0%,0%)" x1="405.845660119" x2="413.064691963" y1="125.516138294" y2="126.832231391" /><line stroke="rgb(0%,0%,0%)" x1="405.845660119" x2="402.619600443" y1="125.516138294" y2="126.651738576" /><line stroke="rgb(0%,0%,0%)" x1="402.619600443" x2="399.58783775" y1="126.651738576" y2="126.661160752" /><line stroke="rgb(0%,0%,0%)" x1="419.166138204" x2="413.663156703" y1="127.858605707" y2="126.708817971" /><line stroke="rgb(0%,0%,0%)" x1="413.663156703" x2="413.064691963" y1="126.708817971" y2="126.832231391" /><line stroke="rgb(0%,0%,0%)" x1="442.862733357" x2="439.821959961" y1="133.802059447" y2="133.116057529" /><line stroke="rgb(0%,0%,0%)" x1="346.59862376" x2="348.118556262" y1="154.331602297" y2="153.648251292" /><line stroke="rgb(0%,0%,0%)" x1="346.59862376" x2="340.059940667" y1="154.331602297" y2="155.306674598" /><line stroke="rgb(0%,0%,0%)" x1="355.856948236" x2="355.989268423" y1="153.243512673" y2="152.887009358" /><line stroke="rgb(0%,0%,0%)" x1="355.856948236" x2="348.118556262" y1="153.243512673" y2="153.648251292" /><line stroke="rgb(0%,0%,0%)" x1="362.48368379" x2="362.763862883" y1="152.471385311" y2="151.919313032" /><line stroke="rgb(0%,0%,0%)" x1="362.48368379" x2="355.989268423" y1="152.471385311" y2="152.887009358" /><line stroke="rgb(0%,0%,0%)" x1="362.763862883" x2="364.662530079" y1="151.919313032" y2="149.171559521" /><line stroke="rgb(0%,0%,0%)" x1="370.320006232" x2="364.662530079" y1="141.973979033" y2="149.171559521" /><line stroke="rgb(0%,0%,0%)" x1="371.374127576" x2="370.320006232" y1="139.700348704" y2="141.973979033" /><line stroke="rgb(0%,0%,0%)" x1="381.786684355" x2="375.493922069" y1="132.699050095" y2="137.794190164" /><line stroke="rgb(0%,0%,0%)" x1="381.786684355" x2="385.178549178" y1="132.699050095" y2="132.101255404" /><line stroke="rgb(0%,0%,0%)" x1="386.475073738" x2="385.178549178" y1="131.572434188" y2="132.101255404" /><line stroke="rgb(0%,0%,0%)" x1="314.335169101" x2="306.788854747" y1="247.731047996" y2="253.701870465" /><line stroke="rgb(0%,0%,0%)" x1="317.462360195" x2="317.300706759" y1="210.610833828" y2="209.768670137" /><line stroke="rgb(0%,0%,0%)" x1="317.462360195" x2="317.723645066" y1="210.610833828" y2="211.202027909" /><line stroke="rgb(0%,0%,0%)" x1="321.798162474" x2="322.868830891" y1="244.094486905" y2="243.76788705" /><line stroke="rgb(0%,0%,0%)" x1="322.868830891" x2="324.061015169" y1="243.76788705" y2="242.929071202" /><line stroke="rgb(0%,0%,0%)" x1="317.723645066" x2="318.206741021" y1="211.202027909" y2="212.412960547" /><line stroke="rgb(0%,0%,0%)" x1="326.486709403" x2="324.91462918" y1="234.099282777" y2="229.460393228" /><line stroke="rgb(0%,0%,0%)" x1="330.773987432" x2="330.290921574" y1="161.064340246" y2="161.552154587" /><line stroke="rgb(0%,0%,0%)" x1="330.773987432" x2="331.253712627" y1="161.064340246" y2="160.884023143" /><line stroke="rgb(0%,0%,0%)" x1="331.253712627" x2="335.14222234" y1="160.884023143" y2="158.189953125" /><line stroke="rgb(0%,0%,0%)" x1="340.059940667" x2="338.930165351" y1="155.306674598" y2="155.735804421" /><line stroke="rgb(0%,0%,0%)" x1="338.930165351" x2="335.14222234" y1="155.735804421" y2="158.189953125" /><line stroke="rgb(0%,0%,0%)" x1="271.318709775" x2="271.329558253" y1="338.042043935" y2="338.196383731" /><line stroke="rgb(0%,0%,0%)" x1="271.270891928" x2="271.318709775" y1="337.966389539" y2="338.042043935" /><line stroke="rgb(0%,0%,0%)" x1="321.798162474" x2="314.335169101" y1="244.094486905" y2="247.731047996" /><line stroke="rgb(0%,0%,0%)" x1="306.788854747" x2="303.151263442" y1="253.701870465" y2="257.079466724" /><line stroke="rgb(0%,0%,0%)" x1="318.206741021" x2="321.855885235" y1="212.412960547" y2="221.486835456" /><line stroke="rgb(0%,0%,0%)" x1="321.855885235" x2="324.91462918" y1="221.486835456" y2="229.460393228" /><line stroke="rgb(0%,0%,0%)" x1="316.85693597" x2="317.300706759" y1="203.330020376" y2="209.768670137" /><line stroke="rgb(0%,0%,0%)" x1="316.85693597" x2="320.883066086" y1="203.330020376" y2="181.524888366" /><line stroke="rgb(0%,0%,0%)" x1="326.567511363" x2="324.061015169" y1="240.483422512" y2="242.929071202" /><line stroke="rgb(0%,0%,0%)" x1="326.821234558" x2="326.567511363" y1="238.245776152" y2="240.483422512" /><line stroke="rgb(0%,0%,0%)" x1="326.486709403" x2="326.821234558" y1="234.099282777" y2="238.245776152" /><line stroke="rgb(0%,0%,0%)" x1="321.025538008" x2="320.883066086" y1="180.76949969" y2="181.524888366" /><line stroke="rgb(0%,0%,0%)" x1="321.137601302" x2="321.025538008" y1="180.376262166" y2="180.76949969" /><line stroke="rgb(0%,0%,0%)" x1="326.622212848" x2="321.137601302" y1="167.234589572" y2="180.376262166" /><line stroke="rgb(0%,0%,0%)" x1="330.290921574" x2="326.622212848" y1="161.552154587" y2="167.234589572" /><line stroke="rgb(0%,0%,0%)" x1="253.37325914" x2="252.986288854" y1="321.24664428" y2="322.313005272" /><line stroke="rgb(0%,0%,0%)" x1="253.37325914" x2="255.267428319" y1="321.24664428" y2="318.39169489" /><line stroke="rgb(0%,0%,0%)" x1="262.699660047" x2="255.267428319" y1="304.746190146" y2="318.39169489" /><line stroke="rgb(0%,0%,0%)" x1="278.634396443" x2="277.868521449" y1="381.74633596" y2="381.941634194" /><line stroke="rgb(0%,0%,0%)" x1="278.634396443" x2="279.009647639" y1="381.74633596" y2="381.662255624" /><line stroke="rgb(0%,0%,0%)" x1="258.876683859" x2="264.579856748" y1="352.187191857" y2="348.181072468" /><line stroke="rgb(0%,0%,0%)" x1="271.329558253" x2="270.588041007" y1="338.196383731" y2="342.390347089" /><line stroke="rgb(0%,0%,0%)" x1="271.270891928" x2="271.118930187" y1="337.966389539" y2="337.984194844" /><line stroke="rgb(0%,0%,0%)" x1="281.179160796" x2="280.129901009" y1="402.201504117" y2="403.317872306" /><line stroke="rgb(0%,0%,0%)" x1="281.179160796" x2="284.878822963" y1="402.201504117" y2="397.239362542" /><line stroke="rgb(0%,0%,0%)" x1="286.215087758" x2="284.878822963" y1="395.397135847" y2="397.239362542" /><line stroke="rgb(0%,0%,0%)" x1="288.080848496" x2="286.87667379" y1="383.569836517" y2="383.076608679" /><line stroke="rgb(0%,0%,0%)" x1="284.752136763" x2="286.87667379" y1="381.839174332" y2="383.076608679" /><line stroke="rgb(0%,0%,0%)" x1="279.009647639" x2="284.752136763" y1="381.662255624" y2="381.839174332" /><line stroke="rgb(0%,0%,0%)" x1="278.809630061" x2="268.552451644" y1="289.56001259" y2="299.273124284" /><line stroke="rgb(0%,0%,0%)" x1="268.552451644" x2="262.699660047" y1="299.273124284" y2="304.746190146" /><line stroke="rgb(0%,0%,0%)" x1="286.215087758" x2="288.852875248" y1="395.397135847" y2="387.728229004" /><line stroke="rgb(0%,0%,0%)" x1="288.080848496" x2="288.845781955" y1="383.569836517" y2="387.533265927" /><line stroke="rgb(0%,0%,0%)" x1="303.151263442" x2="294.532638729" y1="257.079466724" y2="266.300498695" /><line stroke="rgb(0%,0%,0%)" x1="227.005683805" x2="228.144934265" y1="379.558206759" y2="377.897664962" /><line stroke="rgb(0%,0%,0%)" x1="235.259468545" x2="240.111034752" y1="369.685043397" y2="364.733292429" /><line stroke="rgb(0%,0%,0%)" x1="251.634986642" x2="251.691963201" y1="327.787282424" y2="330.726451255" /><line stroke="rgb(0%,0%,0%)" x1="251.691963201" x2="252.67087942" y1="330.726451255" y2="332.550966502" /><line stroke="rgb(0%,0%,0%)" x1="248.256371486" x2="256.37460346" y1="397.222745695" y2="390.65670769" /><line stroke="rgb(0%,0%,0%)" x1="262.646697507" x2="256.37460346" y1="387.371054044" y2="390.65670769" /><line stroke="rgb(0%,0%,0%)" x1="262.646697507" x2="269.918364054" y1="387.371054044" y2="384.058483399" /><line stroke="rgb(0%,0%,0%)" x1="254.595613323" x2="252.295167441" y1="354.758466791" y2="356.552239738" /><line stroke="rgb(0%,0%,0%)" x1="258.876683859" x2="254.595613323" y1="352.187191857" y2="354.758466791" /><line stroke="rgb(0%,0%,0%)" x1="261.051617006" x2="253.651203363" y1="336.41610569" y2="334.798294096" /><line stroke="rgb(0%,0%,0%)" x1="252.67087942" x2="253.651203363" y1="332.550966502" y2="334.798294096" /><line stroke="rgb(0%,0%,0%)" x1="252.986288854" x2="251.634986642" y1="322.313005272" y2="327.787282424" /><line stroke="rgb(0%,0%,0%)" x1="260.213731427" x2="263.326734253" y1="448.821655531" y2="440.786259654" /><line stroke="rgb(0%,0%,0%)" x1="264.275426499" x2="263.326734253" y1="439.57703915" y2="440.786259654" /><line stroke="rgb(0%,0%,0%)" x1="264.364720161" x2="264.275426499" y1="438.926043286" y2="439.57703915" /><line stroke="rgb(0%,0%,0%)" x1="264.72465399" x2="264.364720161" y1="437.337744241" y2="438.926043286" /><line stroke="rgb(0%,0%,0%)" x1="269.319706804" x2="264.72465399" y1="425.787836393" y2="437.337744241" /><line stroke="rgb(0%,0%,0%)" x1="269.276628118" x2="269.763897816" y1="423.847861523" y2="418.441670454" /><line stroke="rgb(0%,0%,0%)" x1="269.276628118" x2="269.319706804" y1="423.847861523" y2="425.787836393" /><line stroke="rgb(0%,0%,0%)" x1="269.763897816" x2="272.489391414" y1="418.441670454" y2="412.947316068" /><line stroke="rgb(0%,0%,0%)" x1="269.918364054" x2="277.868521449" y1="384.058483399" y2="381.941634194" /><line stroke="rgb(0%,0%,0%)" x1="270.588041007" x2="269.082114982" y1="342.390347089" y2="344.457151068" /><line stroke="rgb(0%,0%,0%)" x1="269.082114982" x2="266.756330322" y1="344.457151068" y2="346.863242254" /><line stroke="rgb(0%,0%,0%)" x1="267.952366669" x2="271.118930187" y1="337.41461303" y2="337.984194844" /><line stroke="rgb(0%,0%,0%)" x1="267.952366669" x2="262.791445218" y1="337.41461303" y2="337.249870713" /><line stroke="rgb(0%,0%,0%)" x1="261.051617006" x2="262.791445218" y1="336.41610569" y2="337.249870713" /><line stroke="rgb(0%,0%,0%)" x1="273.13762231" x2="272.876997182" y1="412.195632258" y2="412.426439616" /><line stroke="rgb(0%,0%,0%)" x1="280.129901009" x2="273.13762231" y1="403.317872306" y2="412.195632258" /><line stroke="rgb(0%,0%,0%)" x1="281.964574398" x2="278.809630061" y1="286.141952755" y2="289.56001259" /><line stroke="rgb(0%,0%,0%)" x1="288.864216998" x2="288.852875248" y1="387.675523651" y2="387.728229004" /><line stroke="rgb(0%,0%,0%)" x1="288.845781955" x2="288.864216998" y1="387.533265927" y2="387.675523651" /><line stroke="rgb(0%,0%,0%)" x1="281.964574398" x2="292.209506832" y1="286.141952755" y2="269.780559492" /><line stroke="rgb(0%,0%,0%)" x1="292.755049571" x2="292.209506832" y1="268.918579773" y2="269.780559492" /><line stroke="rgb(0%,0%,0%)" x1="294.532638729" x2="292.755049571" y1="266.300498695" y2="268.918579773" /><line stroke="rgb(0%,0%,0%)" x1="216.357366957" x2="216.388785102" y1="420.690556377" y2="420.695725698" /><line stroke="rgb(0%,0%,0%)" x1="216.388785102" x2="216.454696199" y1="420.695725698" y2="420.678212056" /><line stroke="rgb(0%,0%,0%)" x1="216.357366957" x2="216.24995028" y1="420.690556377" y2="420.690097806" /><line stroke="rgb(0%,0%,0%)" x1="219.169544579" x2="214.434907726" y1="392.42128328" y2="399.726563528" /><line stroke="rgb(0%,0%,0%)" x1="219.169544579" x2="219.967367406" y1="392.42128328" y2="390.475185921" /><line stroke="rgb(0%,0%,0%)" x1="216.454696199" x2="224.310286535" y1="420.678212056" y2="415.810656741" /><line stroke="rgb(0%,0%,0%)" x1="224.310286535" x2="237.152835815" y1="415.810656741" y2="406.17016437" /><line stroke="rgb(0%,0%,0%)" x1="237.152835815" x2="243.802562425" y1="406.17016437" y2="401.097985663" /><line stroke="rgb(0%,0%,0%)" x1="227.005683805" x2="225.315499273" y1="379.558206759" y2="382.156183431" /><line stroke="rgb(0%,0%,0%)" x1="233.711330895" x2="228.144934265" y1="371.385101868" y2="377.897664962" /><line stroke="rgb(0%,0%,0%)" x1="235.259468545" x2="233.711330895" y1="369.685043397" y2="371.385101868" /><line stroke="rgb(0%,0%,0%)" x1="243.802562425" x2="248.256371486" y1="401.097985663" y2="397.222745695" /><line stroke="rgb(0%,0%,0%)" x1="243.38978898" x2="240.111034752" y1="361.900708502" y2="364.733292429" /><line stroke="rgb(0%,0%,0%)" x1="249.155398393" x2="244.316592136" y1="358.422493407" y2="361.097421078" /><line stroke="rgb(0%,0%,0%)" x1="260.213731427" x2="259.104262124" y1="448.821655531" y2="451.84424218" /><line stroke="rgb(0%,0%,0%)" x1="272.690084784" x2="272.489391414" y1="412.626566533" y2="412.947316068" /><line stroke="rgb(0%,0%,0%)" x1="266.756330322" x2="264.579856748" y1="346.863242254" y2="348.181072468" /><line stroke="rgb(0%,0%,0%)" x1="272.876997182" x2="272.690084784" y1="412.426439616" y2="412.626566533" /><line stroke="rgb(0%,0%,0%)" x1="210.456752714" x2="210.493994107" y1="411.426187285" y2="410.950673078" /><line stroke="rgb(0%,0%,0%)" x1="210.456752714" x2="210.958491057" y1="411.426187285" y2="415.019258516" /><line stroke="rgb(0%,0%,0%)" x1="211.704126596" x2="210.493994107" y1="407.074875778" y2="410.950673078" /><line stroke="rgb(0%,0%,0%)" x1="211.892721887" x2="211.704126596" y1="406.204176498" y2="407.074875778" /><line stroke="rgb(0%,0%,0%)" x1="211.892721887" x2="213.641931793" y1="406.204176498" y2="401.75363881" /><line stroke="rgb(0%,0%,0%)" x1="212.559794067" x2="216.24995028" y1="418.662985326" y2="420.690097806" /><line stroke="rgb(0%,0%,0%)" x1="210.958491057" x2="212.559794067" y1="415.019258516" y2="418.662985326" /><line stroke="rgb(0%,0%,0%)" x1="214.434907726" x2="213.641931793" y1="399.726563528" y2="401.75363881" /><line stroke="rgb(0%,0%,0%)" x1="222.929618574" x2="219.967367406" y1="386.481864908" y2="390.475185921" /><line stroke="rgb(0%,0%,0%)" x1="225.315499273" x2="222.929618574" y1="382.156183431" y2="386.481864908" /><line stroke="rgb(0%,0%,0%)" x1="244.316592136" x2="243.38978898" y1="361.097421078" y2="361.900708502" /><line stroke="rgb(0%,0%,0%)" x1="654.87841319" x2="653.248513019" y1="566.814215522" y2="572.900928248" /><line stroke="rgb(0%,0%,0%)" x1="664.128941856" x2="665.281799212" y1="529.949196277" y2="524.011106784" /><line stroke="rgb(0%,0%,0%)" x1="668.462024334" x2="669.434073081" y1="512.501020186" y2="509.552985035" /><line stroke="rgb(0%,0%,0%)" x1="672.428538101" x2="670.60339661" y1="494.918291135" y2="503.382863529" /><line stroke="rgb(0%,0%,0%)" x1="675.273271753" x2="676.168783465" y1="472.669888206" y2="468.31910379" /><line stroke="rgb(0%,0%,0%)" x1="676.928366526" x2="676.778160203" y1="462.859317132" y2="460.678601534" /><line stroke="rgb(0%,0%,0%)" x1="676.581783207" x2="676.778160203" y1="457.295939508" y2="460.678601534" /><line stroke="rgb(0%,0%,0%)" x1="636.831065836" x2="632.069217552" y1="617.806123072" y2="628.484878182" /><line stroke="rgb(0%,0%,0%)" x1="636.831065836" x2="639.660975028" y1="617.806123072" y2="609.936520304" /><line stroke="rgb(0%,0%,0%)" x1="648.714586064" x2="639.91106005" y1="587.484820135" y2="609.198000509" /><line stroke="rgb(0%,0%,0%)" x1="648.714586064" x2="652.415823919" y1="587.484820135" y2="575.267309046" /><line stroke="rgb(0%,0%,0%)" x1="652.766812466" x2="653.248513019" y1="574.51689208" y2="572.900928248" /><line stroke="rgb(0%,0%,0%)" x1="655.475029802" x2="658.079668309" y1="564.515037505" y2="555.304718894" /><line stroke="rgb(0%,0%,0%)" x1="659.041333824" x2="658.079668309" y1="549.990829945" y2="555.304718894" /><line stroke="rgb(0%,0%,0%)" x1="659.041333824" x2="660.575310134" y1="549.990829945" y2="543.876134036" /><line stroke="rgb(0%,0%,0%)" x1="661.454651912" x2="663.534930125" y1="538.833145655" y2="532.39921079" /><line stroke="rgb(0%,0%,0%)" x1="669.434073081" x2="670.60339661" y1="509.552985035" y2="503.382863529" /><line stroke="rgb(0%,0%,0%)" x1="674.809324216" x2="675.273271753" y1="478.678110415" y2="472.669888206" /><line stroke="rgb(0%,0%,0%)" x1="676.08984577" x2="676.168783465" y1="464.902115227" y2="468.31910379" /><line stroke="rgb(0%,0%,0%)" x1="676.08984577" x2="676.928366526" y1="464.902115227" y2="462.859317132" /><line stroke="rgb(0%,0%,0%)" x1="607.828786549" x2="607.536842409" y1="680.643446306" y2="681.226690525" /><line stroke="rgb(0%,0%,0%)" x1="608.352482158" x2="607.828786549" y1="679.846413002" y2="680.643446306" /><line stroke="rgb(0%,0%,0%)" x1="608.352482158" x2="610.707054739" y1="679.846413002" y2="675.69529771" /><line stroke="rgb(0%,0%,0%)" x1="616.425023519" x2="624.02135934" y1="664.49801792" y2="647.562149556" /><line stroke="rgb(0%,0%,0%)" x1="639.736687566" x2="639.91106005" y1="609.588675811" y2="609.198000509" /><line stroke="rgb(0%,0%,0%)" x1="652.415823919" x2="652.766812466" y1="575.267309046" y2="574.51689208" /><line stroke="rgb(0%,0%,0%)" x1="660.575310134" x2="661.154455619" y1="543.876134036" y2="540.379214956" /><line stroke="rgb(0%,0%,0%)" x1="661.154455619" x2="661.454651912" y1="540.379214956" y2="538.833145655" /><line stroke="rgb(0%,0%,0%)" x1="548.670377335" x2="547.672281414" y1="756.050774366" y2="756.693759439" /><line stroke="rgb(0%,0%,0%)" x1="548.670377335" x2="549.213124378" y1="756.050774366" y2="755.735332336" /><line stroke="rgb(0%,0%,0%)" x1="549.213124378" x2="551.496559993" y1="755.735332336" y2="754.174928445" /><line stroke="rgb(0%,0%,0%)" x1="570.593123338" x2="569.327995144" y1="740.016708285" y2="741.153176179" /><line stroke="rgb(0%,0%,0%)" x1="588.278282368" x2="581.863458373" y1="712.711651298" y2="723.043314965" /><line stroke="rgb(0%,0%,0%)" x1="588.278282368" x2="590.953849086" y1="712.711651298" y2="709.313530418" /><line stroke="rgb(0%,0%,0%)" x1="590.953849086" x2="591.065757766" y1="709.313530418" y2="709.117920079" /><line stroke="rgb(0%,0%,0%)" x1="591.065757766" x2="591.622340049" y1="709.117920079" y2="708.218823704" /><line stroke="rgb(0%,0%,0%)" x1="595.480313326" x2="591.622340049" y1="702.089392347" y2="708.218823704" /><line stroke="rgb(0%,0%,0%)" x1="600.190430171" x2="597.151381711" y1="692.187755706" y2="699.382332212" /><line stroke="rgb(0%,0%,0%)" x1="600.190430171" x2="607.536842409" y1="692.187755706" y2="681.226690525" /><line stroke="rgb(0%,0%,0%)" x1="610.707054739" x2="616.425023519" y1="675.69529771" y2="664.49801792" /><line stroke="rgb(0%,0%,0%)" x1="624.02135934" x2="624.142391885" y1="647.562149556" y2="647.265924611" /><line stroke="rgb(0%,0%,0%)" x1="629.516140964" x2="632.069217552" y1="633.236641983" y2="628.484878182" /><line stroke="rgb(0%,0%,0%)" x1="639.660975028" x2="639.736687566" y1="609.936520304" y2="609.588675811" /><line stroke="rgb(0%,0%,0%)" x1="539.120332511" x2="534.974475727" y1="760.604195279" y2="762.89464279" /><line stroke="rgb(0%,0%,0%)" x1="539.120332511" x2="547.672281414" y1="760.604195279" y2="756.693759439" /><line stroke="rgb(0%,0%,0%)" x1="573.82177296" x2="579.734828854" y1="735.742921669" y2="727.545306334" /><line stroke="rgb(0%,0%,0%)" x1="579.734828854" x2="581.578407092" y1="727.545306334" y2="723.559847895" /><line stroke="rgb(0%,0%,0%)" x1="581.578407092" x2="581.863458373" y1="723.559847895" y2="723.043314965" /><line stroke="rgb(0%,0%,0%)" x1="595.480313326" x2="596.624358556" y1="702.089392347" y2="700.263082032" /><line stroke="rgb(0%,0%,0%)" x1="596.624358556" x2="597.151381711" y1="700.263082032" y2="699.382332212" /><line stroke="rgb(0%,0%,0%)" x1="624.142391885" x2="624.157137994" y1="647.265924611" y2="647.223795058" /><line stroke="rgb(0%,0%,0%)" x1="624.157137994" x2="624.254699832" y1="647.223795058" y2="646.98301307" /><line stroke="rgb(0%,0%,0%)" x1="629.516140964" x2="624.254699832" y1="633.236641983" y2="646.98301307" /><line stroke="rgb(0%,0%,0%)" x1="488.376679615" x2="493.492278128" y1="781.443355139" y2="780.445378076" /><line stroke="rgb(0%,0%,0%)" x1="521.776011393" x2="516.630546121" y1="768.943717679" y2="771.107315356" /><line stroke="rgb(0%,0%,0%)" x1="521.776011393" x2="524.443463651" y1="768.943717679" y2="767.652972966" /><line stroke="rgb(0%,0%,0%)" x1="524.443463651" x2="530.718597968" y1="767.652972966" y2="763.908359551" /><line stroke="rgb(0%,0%,0%)" x1="530.718597968" x2="534.974475727" y1="763.908359551" y2="762.89464279" /><line stroke="rgb(0%,0%,0%)" x1="551.496559993" x2="563.464452807" y1="754.174928445" y2="745.604487351" /><line stroke="rgb(0%,0%,0%)" x1="563.464452807" x2="569.327995144" y1="745.604487351" y2="741.153176179" /><line stroke="rgb(0%,0%,0%)" x1="469.973939155" x2="464.18796192" y1="781.655097535" y2="782.386924907" /><line stroke="rgb(0%,0%,0%)" x1="482.46774795" x2="475.968781822" y1="782.675076058" y2="781.476544968" /><line stroke="rgb(0%,0%,0%)" x1="482.46774795" x2="488.376679615" y1="782.675076058" y2="781.443355139" /><line stroke="rgb(0%,0%,0%)" x1="495.913526804" x2="516.630546121" y1="779.203576015" y2="771.107315356" /><line stroke="rgb(0%,0%,0%)" x1="417.565883646" x2="409.739375868" y1="781.148408871" y2="779.306742914" /><line stroke="rgb(0%,0%,0%)" x1="429.097334325" x2="435.760888321" y1="783.71985812" y2="784.219217593" /><line stroke="rgb(0%,0%,0%)" x1="439.642764673" x2="450.607611647" y1="784.723069046" y2="783.71845947" /><line stroke="rgb(0%,0%,0%)" x1="461.128482255" x2="453.543284729" y1="783.100308728" y2="783.551622186" /><line stroke="rgb(0%,0%,0%)" x1="461.128482255" x2="464.18796192" y1="783.100308728" y2="782.386924907" /><line stroke="rgb(0%,0%,0%)" x1="469.973939155" x2="475.968781822" y1="781.655097535" y2="781.476544968" /><line stroke="rgb(0%,0%,0%)" x1="493.492278128" x2="495.913526804" y1="780.445378076" y2="779.203576015" /><line stroke="rgb(0%,0%,0%)" x1="386.346388816" x2="389.182390409" y1="769.878330398" y2="771.373099308" /><line stroke="rgb(0%,0%,0%)" x1="386.346388816" x2="378.380670212" y1="769.878330398" y2="765.645797283" /><line stroke="rgb(0%,0%,0%)" x1="421.540770992" x2="417.565883646" y1="782.423919254" y2="781.148408871" /><line stroke="rgb(0%,0%,0%)" x1="421.540770992" x2="429.097334325" y1="782.423919254" y2="783.71985812" /><line stroke="rgb(0%,0%,0%)" x1="435.760888321" x2="439.642764673" y1="784.219217593" y2="784.723069046" /><line stroke="rgb(0%,0%,0%)" x1="450.607611647" x2="453.543284729" y1="783.71845947" y2="783.551622186" /><line stroke="rgb(0%,0%,0%)" x1="362.737240373" x2="363.888713227" y1="754.603783266" y2="755.514058125" /><line stroke="rgb(0%,0%,0%)" x1="362.737240373" x2="362.0473614" y1="754.603783266" y2="754.090148136" /><line stroke="rgb(0%,0%,0%)" x1="368.93627079" x2="378.380670212" y1="758.744986505" y2="765.645797283" /><line stroke="rgb(0%,0%,0%)" x1="363.888713227" x2="368.93627079" y1="755.514058125" y2="758.744986505" /><line stroke="rgb(0%,0%,0%)" x1="389.182390409" x2="395.118611748" y1="771.373099308" y2="773.838305249" /><line stroke="rgb(0%,0%,0%)" x1="395.118611748" x2="404.60506735" y1="773.838305249" y2="777.464924656" /><line stroke="rgb(0%,0%,0%)" x1="404.60506735" x2="409.739375868" y1="777.464924656" y2="779.306742914" /><line stroke="rgb(0%,0%,0%)" x1="239.215981877" x2="238.918515095" y1="536.619232317" y2="536.185970057" /><line stroke="rgb(0%,0%,0%)" x1="292.96032218" x2="287.373547546" y1="512.984117637" y2="506.945896317" /><line stroke="rgb(0%,0%,0%)" x1="331.555393923" x2="332.26039256" y1="709.175532288" y2="713.640796889" /><line stroke="rgb(0%,0%,0%)" x1="334.765928718" x2="337.475138514" y1="704.107952368" y2="697.774888409" /><line stroke="rgb(0%,0%,0%)" x1="334.765928718" x2="331.555393923" y1="704.107952368" y2="709.175532288" /><line stroke="rgb(0%,0%,0%)" x1="335.647601324" x2="332.366293173" y1="661.752742404" y2="659.922032235" /><line stroke="rgb(0%,0%,0%)" x1="334.934419168" x2="341.555440093" y1="720.249443618" y2="733.268855536" /><line stroke="rgb(0%,0%,0%)" x1="339.96256704" x2="339.819552939" y1="671.626893548" y2="677.135992681" /><line stroke="rgb(0%,0%,0%)" x1="339.96256704" x2="338.783182029" y1="671.626893548" y2="667.657666754" /><line stroke="rgb(0%,0%,0%)" x1="335.647601324" x2="337.222534753" y1="661.752742404" y2="663.907785288" /><line stroke="rgb(0%,0%,0%)" x1="355.751183869" x2="345.189025711" y1="748.173949683" y2="737.647163815" /><line stroke="rgb(0%,0%,0%)" x1="355.751183869" x2="362.0473614" y1="748.173949683" y2="754.090148136" /><line stroke="rgb(0%,0%,0%)" x1="278.276828157" x2="278.33063267" y1="575.31020588" y2="575.590977871" /><line stroke="rgb(0%,0%,0%)" x1="274.898216008" x2="285.95949873" y1="494.546666587" y2="505.333071373" /><line stroke="rgb(0%,0%,0%)" x1="292.96032218" x2="296.174966877" y1="512.984117637" y2="518.34071832" /><line stroke="rgb(0%,0%,0%)" x1="301.889423161" x2="296.12565981" y1="648.356280692" y2="640.494983623" /><line stroke="rgb(0%,0%,0%)" x1="301.889423161" x2="307.257048046" y1="648.356280692" y2="653.198528901" /><line stroke="rgb(0%,0%,0%)" x1="297.841516991" x2="296.712504536" y1="526.681939789" y2="527.198504371" /><line stroke="rgb(0%,0%,0%)" x1="294.693540037" x2="288.676027664" y1="528.154259788" y2="526.795866587" /><line stroke="rgb(0%,0%,0%)" x1="296.712504536" x2="294.693540037" y1="527.198504371" y2="528.154259788" /><line stroke="rgb(0%,0%,0%)" x1="298.159771548" x2="297.841516991" y1="524.69038417" y2="526.681939789" /><line stroke="rgb(0%,0%,0%)" x1="296.364177034" x2="297.392434403" y1="520.242911784" y2="522.438861035" /><line stroke="rgb(0%,0%,0%)" x1="322.95049554" x2="327.202154899" y1="657.920115209" y2="658.704931002" /><line stroke="rgb(0%,0%,0%)" x1="332.26039256" x2="334.934419168" y1="713.640796889" y2="720.249443618" /><line stroke="rgb(0%,0%,0%)" x1="339.819552939" x2="339.335353326" y1="677.135992681" y2="682.989373118" /><line stroke="rgb(0%,0%,0%)" x1="338.253725565" x2="338.783182029" y1="665.142302265" y2="667.657666754" /><line stroke="rgb(0%,0%,0%)" x1="337.222534753" x2="338.253725565" y1="663.907785288" y2="665.142302265" /><line stroke="rgb(0%,0%,0%)" x1="327.202154899" x2="332.366293173" y1="658.704931002" y2="659.922032235" /><line stroke="rgb(0%,0%,0%)" x1="341.555440093" x2="345.189025711" y1="733.268855536" y2="737.647163815" /><line stroke="rgb(0%,0%,0%)" x1="339.193903615" x2="337.475138514" y1="690.765291177" y2="697.774888409" /><line stroke="rgb(0%,0%,0%)" x1="339.335353326" x2="339.193903615" y1="682.989373118" y2="690.765291177" /><line stroke="rgb(0%,0%,0%)" x1="223.277910096" x2="223.454330966" y1="515.061467573" y2="515.3703541" /><line stroke="rgb(0%,0%,0%)" x1="245.63025556" x2="248.262261409" y1="542.841452603" y2="545.087901448" /><line stroke="rgb(0%,0%,0%)" x1="239.215981877" x2="245.63025556" y1="536.619232317" y2="542.841452603" /><line stroke="rgb(0%,0%,0%)" x1="267.898926713" x2="270.270583559" y1="598.14688965" y2="603.392715693" /><line stroke="rgb(0%,0%,0%)" x1="267.714946934" x2="270.636343706" y1="584.356517727" y2="579.326552805" /><line stroke="rgb(0%,0%,0%)" x1="248.262261409" x2="256.516231259" y1="545.087901448" y2="550.954177207" /><line stroke="rgb(0%,0%,0%)" x1="266.135775282" x2="248.759791324" y1="516.528333166" y2="503.959407448" /><line stroke="rgb(0%,0%,0%)" x1="263.36970268" x2="258.455601477" y1="484.98453157" y2="474.86847659" /><line stroke="rgb(0%,0%,0%)" x1="259.203772311" x2="258.384394254" y1="466.801328579" y2="474.341872352" /><line stroke="rgb(0%,0%,0%)" x1="257.920430297" x2="259.367429416" y1="462.953532143" y2="455.060036927" /><line stroke="rgb(0%,0%,0%)" x1="257.920430297" x2="259.203772311" y1="462.953532143" y2="466.801328579" /><line stroke="rgb(0%,0%,0%)" x1="286.644567917" x2="272.457304686" y1="628.633296121" y2="607.998664814" /><line stroke="rgb(0%,0%,0%)" x1="267.714946934" x2="268.235663893" y1="584.356517727" y2="591.030944884" /><line stroke="rgb(0%,0%,0%)" x1="268.235663893" x2="267.898926713" y1="591.030944884" y2="598.14688965" /><line stroke="rgb(0%,0%,0%)" x1="270.681331272" x2="270.636343706" y1="579.268696625" y2="579.326552805" /><line stroke="rgb(0%,0%,0%)" x1="277.199232535" x2="270.681331272" y1="576.861691165" y2="579.268696625" /><line stroke="rgb(0%,0%,0%)" x1="278.367235693" x2="277.199232535" y1="576.222929421" y2="576.861691165" /><line stroke="rgb(0%,0%,0%)" x1="278.33063267" x2="278.367235693" y1="575.590977871" y2="576.222929421" /><line stroke="rgb(0%,0%,0%)" x1="278.276828157" x2="278.230117505" y1="575.31020588" y2="574.713343925" /><line stroke="rgb(0%,0%,0%)" x1="275.615428965" x2="277.496733231" y1="571.711194021" y2="573.63315165" /><line stroke="rgb(0%,0%,0%)" x1="274.143705915" x2="275.615428965" y1="569.773325875" y2="571.711194021" /><line stroke="rgb(0%,0%,0%)" x1="274.143705915" x2="271.952765213" y1="569.773325875" y2="566.600540351" /><line stroke="rgb(0%,0%,0%)" x1="271.990794183" x2="266.135775282" y1="519.641310027" y2="516.528333166" /><line stroke="rgb(0%,0%,0%)" x1="269.180843007" x2="274.898216008" y1="490.916145865" y2="494.546666587" /><line stroke="rgb(0%,0%,0%)" x1="269.180843007" x2="265.043524248" y1="490.916145865" y2="487.162801146" /><line stroke="rgb(0%,0%,0%)" x1="277.856492103" x2="278.230117505" y1="574.146856217" y2="574.713343925" /><line stroke="rgb(0%,0%,0%)" x1="288.676027664" x2="281.838457674" y1="526.795866587" y2="524.962964577" /><line stroke="rgb(0%,0%,0%)" x1="281.838457674" x2="271.990794183" y1="524.962964577" y2="519.641310027" /><line stroke="rgb(0%,0%,0%)" x1="286.772900607" x2="287.373547546" y1="506.205870389" y2="506.945896317" /><line stroke="rgb(0%,0%,0%)" x1="285.95949873" x2="286.772900607" y1="505.333071373" y2="506.205870389" /><line stroke="rgb(0%,0%,0%)" x1="286.644567917" x2="296.12565981" y1="628.633296121" y2="640.494983623" /><line stroke="rgb(0%,0%,0%)" x1="297.392434403" x2="298.159771548" y1="522.438861035" y2="524.69038417" /><line stroke="rgb(0%,0%,0%)" x1="296.174966877" x2="296.364177034" y1="518.34071832" y2="520.242911784" /><line stroke="rgb(0%,0%,0%)" x1="217.281932083" x2="223.277910096" y1="508.005573147" y2="515.061467573" /><line stroke="rgb(0%,0%,0%)" x1="217.281932083" x2="215.983080731" y1="508.005573147" y2="506.431085249" /><line stroke="rgb(0%,0%,0%)" x1="218.880893619" x2="219.943946739" y1="489.468742361" y2="489.821119803" /><line stroke="rgb(0%,0%,0%)" x1="218.509010851" x2="218.880893619" y1="489.460513956" y2="489.468742361" /><line stroke="rgb(0%,0%,0%)" x1="218.509010851" x2="216.363969236" y1="489.460513956" y2="489.466892162" /><line stroke="rgb(0%,0%,0%)" x1="234.636999994" x2="238.918515095" y1="530.926176243" y2="536.185970057" /><line stroke="rgb(0%,0%,0%)" x1="231.273081851" x2="234.636999994" y1="526.861582466" y2="530.926176243" /><line stroke="rgb(0%,0%,0%)" x1="228.719025544" x2="231.273081851" y1="523.724799014" y2="526.861582466" /><line stroke="rgb(0%,0%,0%)" x1="228.719025544" x2="227.921599435" y1="523.724799014" y2="522.16601514" /><line stroke="rgb(0%,0%,0%)" x1="223.454330966" x2="227.921599435" y1="515.3703541" y2="522.16601514" /><line stroke="rgb(0%,0%,0%)" x1="229.29565384" x2="240.728622518" y1="493.369003566" y2="499.082405145" /><line stroke="rgb(0%,0%,0%)" x1="229.29565384" x2="219.943946739" y1="493.369003566" y2="489.821119803" /><line stroke="rgb(0%,0%,0%)" x1="256.516231259" x2="258.702085162" y1="550.954177207" y2="552.728983733" /><line stroke="rgb(0%,0%,0%)" x1="242.533113864" x2="240.728622518" y1="500.260652199" y2="499.082405145" /><line stroke="rgb(0%,0%,0%)" x1="248.759791324" x2="242.533113864" y1="503.959407448" y2="500.260652199" /><line stroke="rgb(0%,0%,0%)" x1="265.393518607" x2="260.492269456" y1="559.267511099" y2="554.101960588" /><line stroke="rgb(0%,0%,0%)" x1="260.129910389" x2="260.492269456" y1="553.717328597" y2="554.101960588" /><line stroke="rgb(0%,0%,0%)" x1="258.702085162" x2="259.351396635" y1="552.728983733" y2="553.212081229" /><line stroke="rgb(0%,0%,0%)" x1="263.36970268" x2="265.043524248" y1="484.98453157" y2="487.162801146" /><line stroke="rgb(0%,0%,0%)" x1="258.392249396" x2="258.455601477" y1="474.68354454" y2="474.86847659" /><line stroke="rgb(0%,0%,0%)" x1="258.374790256" x2="258.392249396" y1="474.548905395" y2="474.68354454" /><line stroke="rgb(0%,0%,0%)" x1="258.384394254" x2="258.374790256" y1="474.341872352" y2="474.548905395" /><line stroke="rgb(0%,0%,0%)" x1="259.104262124" x2="259.367429416" y1="451.84424218" y2="455.060036927" /><line stroke="rgb(0%,0%,0%)" x1="277.496733231" x2="277.856492103" y1="573.63315165" y2="574.146856217" /><line stroke="rgb(0%,0%,0%)" x1="265.393518607" x2="271.952765213" y1="559.267511099" y2="566.600540351" /><line stroke="rgb(0%,0%,0%)" x1="270.270583559" x2="270.755985874" y1="603.392715693" y2="604.695435863" /><line stroke="rgb(0%,0%,0%)" x1="270.755985874" x2="271.145456568" y1="604.695435863" y2="605.779390433" /><line stroke="rgb(0%,0%,0%)" x1="271.145456568" x2="272.457304686" y1="605.779390433" y2="607.998664814" /><line stroke="rgb(0%,0%,0%)" x1="214.582570639" x2="215.983080731" y1="503.78635333" y2="506.431085249" /><line stroke="rgb(0%,0%,0%)" x1="213.076255492" x2="214.013986972" y1="501.214272394" y2="503.199718416" /><line stroke="rgb(0%,0%,0%)" x1="214.582570639" x2="214.013986972" y1="503.78635333" y2="503.199718416" /><line stroke="rgb(0%,0%,0%)" x1="212.442816463" x2="213.076255492" y1="497.95801015" y2="501.214272394" /><line stroke="rgb(0%,0%,0%)" x1="211.970393802" x2="212.442816463" y1="495.869893382" y2="497.95801015" /><line stroke="rgb(0%,0%,0%)" x1="212.388692181" x2="211.970393802" y1="494.620960945" y2="495.869893382" /><line stroke="rgb(0%,0%,0%)" x1="213.71531788" x2="212.388692181" y1="492.148882809" y2="494.620960945" /><line stroke="rgb(0%,0%,0%)" x1="216.363969236" x2="213.684346299" y1="489.466892162" y2="489.613639681" /><line stroke="rgb(0%,0%,0%)" x1="213.71531788" x2="213.684346299" y1="492.148882809" y2="489.613639681" /><line stroke="rgb(0%,0%,0%)" x1="259.351396635" x2="260.129910389" y1="553.212081229" y2="553.717328597" /><line stroke="rgb(0%,0%,0%)" x1="669.96120545" x2="670.095389909" y1="392.435645559" y2="392.982165522" /><line stroke="rgb(0%,0%,0%)" x1="669.894668317" x2="669.96120545" y1="392.115592115" y2="392.435645559" /><line stroke="rgb(0%,0%,0%)" x1="672.681381995" x2="673.217548787" y1="420.743853734" y2="423.169658575" /><line stroke="rgb(0%,0%,0%)" x1="672.681381995" x2="672.34164377" y1="420.743853734" y2="416.804427408" /><line stroke="rgb(0%,0%,0%)" x1="669.894668317" x2="669.563074346" y1="392.115592115" y2="390.07721809" /><line stroke="rgb(0%,0%,0%)" x1="676.581783207" x2="676.212887223" y1="457.295939508" y2="446.948934745" /><line stroke="rgb(0%,0%,0%)" x1="672.34164377" x2="671.892492459" y1="416.804427408" y2="411.271319339" /><line stroke="rgb(0%,0%,0%)" x1="524.42302494" x2="523.117808581" y1="156.145463952" y2="155.421329206" /><line stroke="rgb(0%,0%,0%)" x1="524.42302494" x2="527.562042373" y1="156.145463952" y2="157.035727452" /><line stroke="rgb(0%,0%,0%)" x1="251.475030878" x2="249.155398393" y1="357.11043841" y2="358.422493407" /><line stroke="rgb(0%,0%,0%)" x1="251.475030878" x2="252.295167441" y1="357.11043841" y2="356.552239738" /><line stroke="rgb(0%,0%,0%)" x1="668.172819393" x2="667.897954743" y1="512.336624753" y2="514.622280852" /><line stroke="rgb(0%,0%,0%)" x1="654.781853745" x2="654.87841319" y1="566.25952844" y2="566.814215522" /><line stroke="rgb(0%,0%,0%)" x1="654.781853745" x2="655.475029802" y1="566.25952844" y2="564.515037505" /><line stroke="rgb(0%,0%,0%)" x1="668.172819393" x2="668.462024334" y1="512.336624753" y2="512.501020186" /><line stroke="rgb(0%,0%,0%)" x1="672.908013578" x2="673.289835824" y1="490.864560467" y2="487.667583492" /><line stroke="rgb(0%,0%,0%)" x1="673.289835824" x2="674.539880781" y1="487.667583492" y2="480.339998554" /><line stroke="rgb(0%,0%,0%)" x1="664.05092904" x2="663.534930125" y1="530.384365792" y2="532.39921079" /><line stroke="rgb(0%,0%,0%)" x1="664.05092904" x2="664.128941856" y1="530.384365792" y2="529.949196277" /><line stroke="rgb(0%,0%,0%)" x1="666.274902313" x2="665.281799212" y1="520.450094911" y2="524.011106784" /><line stroke="rgb(0%,0%,0%)" x1="666.274902313" x2="667.897954743" y1="520.450094911" y2="514.622280852" /><line stroke="rgb(0%,0%,0%)" x1="672.908013578" x2="672.428538101" y1="490.864560467" y2="494.918291135" /><line stroke="rgb(0%,0%,0%)" x1="674.539880781" x2="674.809324216" y1="480.339998554" y2="478.678110415" /><line stroke="rgb(0%,0%,0%)" x1="570.607544715" x2="570.593123338" y1="739.762798165" y2="740.016708285" /><line stroke="rgb(0%,0%,0%)" x1="570.607544715" x2="573.82177296" y1="739.762798165" y2="735.742921669" /><line stroke="rgb(0%,0%,0%)" x1="308.45628453" x2="309.763398668" y1="654.274844954" y2="654.691860907" /><line stroke="rgb(0%,0%,0%)" x1="308.45628453" x2="307.257048046" y1="654.274844954" y2="653.198528901" /><line stroke="rgb(0%,0%,0%)" x1="319.267486852" x2="322.95049554" y1="657.454905615" y2="657.920115209" /><line stroke="rgb(0%,0%,0%)" x1="309.763398668" x2="319.267486852" y1="654.691860907" y2="657.454905615" /></svg>