<?xml version="1.0" encoding="utf-8" ?>
<svg baseProfile="full" height="100%" version="1.1" viewBox="0.5 0.5 685.793960571 941.299331665" width="100%" xmlns="http://www.w3.org/2000/svg" xmlns:ev="http://www.w3.org/2001/xml-events" xmlns:xlink="http://www.w3.org/1999/xlink"><defs /><line stroke="rgb(0%,0%,0%)" x1="408.199679004" x2="408.182378528" y1="461.407494874" y2="460.133040309" /><line stroke="rgb(0%,0%,0%)" x1="406.465914867" x2="408.182378528" y1="451.48186691" y2="460.133040309" /><line stroke="rgb(0%,0%,0%)" x1="406.465914867" x2="405.079804025" y1="451.48186691" y2="443.640600808" /><line stroke="rgb(0%,0%,0%)" x1="404.703139076" x2="405.079804025" y1="439.97079674" y2="443.640600808" /><line stroke="rgb(0%,0%,0%)" x1="404.703139076" x2="403.840619071" y1="439.97079674" y2="437.63032463" /><line stroke="rgb(0%,0%,0%)" x1="403.840619071" x2="402.804306512" y1="437.63032463" y2="436.639606032" /><line stroke="rgb(0%,0%,0%)" x1="402.804306512" x2="397.097940212" y1="436.639606032" y2="427.012309976" /><line stroke="rgb(0%,0%,0%)" x1="397.097940212" x2="395.856613177" y1="427.012309976" y2="424.617644885" /><line stroke="rgb(0%,0%,0%)" x1="395.856613177" x2="394.839550183" y1="424.617644885" y2="423.169916218" /><line stroke="rgb(0%,0%,0%)" x1="406.092733688" x2="407.185588061" y1="467.23802284" y2="463.123191133" /><line stroke="rgb(0%,0%,0%)" x1="407.185588061" x2="408.199679004" y1="463.123191133" y2="461.407494874" /><line stroke="rgb(0%,0%,0%)" x1="329.33256028" x2="331.038952573" y1="374.484092749" y2="375.382965192" /><line stroke="rgb(0%,0%,0%)" x1="331.038952573" x2="334.483839468" y1="375.382965192" y2="377.361340434" /><line stroke="rgb(0%,0%,0%)" x1="328.426992535" x2="329.33256028" y1="373.529143708" y2="374.484092749" /><line stroke="rgb(0%,0%,0%)" x1="353.802660275" x2="346.635937578" y1="389.778892939" y2="384.683016636" /><line stroke="rgb(0%,0%,0%)" x1="354.25232152" x2="353.802660275" y1="390.100157183" y2="389.778892939" /><line stroke="rgb(0%,0%,0%)" x1="312.330805342" x2="309.901691654" y1="365.172117117" y2="362.69297703" /><line stroke="rgb(0%,0%,0%)" x1="306.799476666" x2="309.901691654" y1="358.560083469" y2="362.69297703" /><line stroke="rgb(0%,0%,0%)" x1="321.66604509" x2="320.854451233" y1="370.274534089" y2="369.710781509" /><line stroke="rgb(0%,0%,0%)" x1="320.854451233" x2="319.792277304" y1="369.710781509" y2="369.482651004" /><line stroke="rgb(0%,0%,0%)" x1="319.792277304" x2="312.807092238" y1="369.482651004" y2="365.282683003" /><line stroke="rgb(0%,0%,0%)" x1="328.426992535" x2="322.970429918" y1="373.529143708" y2="370.920349085" /><line stroke="rgb(0%,0%,0%)" x1="312.807092238" x2="312.330805342" y1="365.282683003" y2="365.172117117" /><line stroke="rgb(0%,0%,0%)" x1="322.970429918" x2="321.66604509" y1="370.920349085" y2="370.274534089" /><line stroke="rgb(0%,0%,0%)" x1="336.131088698" x2="334.483839468" y1="378.262018649" y2="377.361340434" /><line stroke="rgb(0%,0%,0%)" x1="336.86537643" x2="336.131088698" y1="378.802838792" y2="378.262018649" /><line stroke="rgb(0%,0%,0%)" x1="346.635937578" x2="336.86537643" y1="384.683016636" y2="378.802838792" /><line stroke="rgb(0%,0%,0%)" x1="234.400349045" x2="231.747608678" y1="365.722577014" y2="367.738287737" /><line stroke="rgb(0%,0%,0%)" x1="234.400349045" x2="236.950941187" y1="365.722577014" y2="364.815420323" /><line stroke="rgb(0%,0%,0%)" x1="236.950941187" x2="239.093873066" y1="364.815420323" y2="363.020233423" /><line stroke="rgb(0%,0%,0%)" x1="193.447133297" x2="196.602899329" y1="388.593474775" y2="387.396010029" /><line stroke="rgb(0%,0%,0%)" x1="198.269102863" x2="196.602899329" y1="386.316101965" y2="387.396010029" /><line stroke="rgb(0%,0%,0%)" x1="211.012289073" x2="220.207841195" y1="379.735355603" y2="373.812795523" /><line stroke="rgb(0%,0%,0%)" x1="227.74811634" x2="223.656996017" y1="369.317880542" y2="372.203690608" /><line stroke="rgb(0%,0%,0%)" x1="223.656996017" x2="222.522061915" y1="372.203690608" y2="372.367726855" /><line stroke="rgb(0%,0%,0%)" x1="231.747608678" x2="227.74811634" y1="367.738287737" y2="369.317880542" /><line stroke="rgb(0%,0%,0%)" x1="239.690742203" x2="239.093873066" y1="362.736123341" y2="363.020233423" /><line stroke="rgb(0%,0%,0%)" x1="168.087426516" x2="169.0043403" y1="436.714628848" y2="432.728033875" /><line stroke="rgb(0%,0%,0%)" x1="166.510669117" x2="167.638337863" y1="410.311291942" y2="414.180015432" /><line stroke="rgb(0%,0%,0%)" x1="166.510669117" x2="166.608808692" y1="410.311291942" y2="407.036260652" /><line stroke="rgb(0%,0%,0%)" x1="173.762292444" x2="174.576447151" y1="395.453639638" y2="394.7090644" /><line stroke="rgb(0%,0%,0%)" x1="174.576447151" x2="177.885549994" y1="394.7090644" y2="393.187407657" /><line stroke="rgb(0%,0%,0%)" x1="188.376209795" x2="177.885549994" y1="389.695742559" y2="393.187407657" /><line stroke="rgb(0%,0%,0%)" x1="193.447133297" x2="188.376209795" y1="388.593474775" y2="389.695742559" /><line stroke="rgb(0%,0%,0%)" x1="211.012289073" x2="198.269102863" y1="379.735355603" y2="386.316101965" /><line stroke="rgb(0%,0%,0%)" x1="221.667533436" x2="220.207841195" y1="373.189211901" y2="373.812795523" /><line stroke="rgb(0%,0%,0%)" x1="222.522061915" x2="221.667533436" y1="372.367726855" y2="373.189211901" /><line stroke="rgb(0%,0%,0%)" x1="164.821466209" x2="164.79296435" y1="465.435531907" y2="465.316564108" /><line stroke="rgb(0%,0%,0%)" x1="165.025695838" x2="164.79296435" y1="461.143631274" y2="465.316564108" /><line stroke="rgb(0%,0%,0%)" x1="168.087426516" x2="167.171951849" y1="436.714628848" y2="439.411015321" /><line stroke="rgb(0%,0%,0%)" x1="165.025695838" x2="167.831547814" y1="461.143631274" y2="456.566772918" /><line stroke="rgb(0%,0%,0%)" x1="168.208359108" x2="167.831547814" y1="455.06826904" y2="456.566772918" /><line stroke="rgb(0%,0%,0%)" x1="168.185596636" x2="168.208359108" y1="454.672623464" y2="455.06826904" /><line stroke="rgb(0%,0%,0%)" x1="168.297545099" x2="168.185596636" y1="453.574353383" y2="454.672623464" /><line stroke="rgb(0%,0%,0%)" x1="166.923575472" x2="168.297545099" y1="442.901187083" y2="453.574353383" /><line stroke="rgb(0%,0%,0%)" x1="167.171951849" x2="166.923575472" y1="439.411015321" y2="442.901187083" /><line stroke="rgb(0%,0%,0%)" x1="173.411235078" x2="169.0043403" y1="422.294881614" y2="432.728033875" /><line stroke="rgb(0%,0%,0%)" x1="167.638337863" x2="173.411235078" y1="414.180015432" y2="422.294881614" /><line stroke="rgb(0%,0%,0%)" x1="167.481626587" x2="166.608808692" y1="404.83851178" y2="407.036260652" /><line stroke="rgb(0%,0%,0%)" x1="173.762292444" x2="172.297293111" y1="395.453639638" y2="397.278048665" /><line stroke="rgb(0%,0%,0%)" x1="172.297293111" x2="167.481626587" y1="397.278048665" y2="404.83851178" /><line stroke="rgb(0%,0%,0%)" x1="407.797202681" x2="406.160753779" y1="476.333953146" y2="487.585132142" /><line stroke="rgb(0%,0%,0%)" x1="407.797202681" x2="407.894018725" y1="476.333953146" y2="471.709013445" /><line stroke="rgb(0%,0%,0%)" x1="390.480379265" x2="386.193663415" y1="415.666342685" y2="411.326992324" /><line stroke="rgb(0%,0%,0%)" x1="390.480379265" x2="391.402776267" y1="415.666342685" y2="417.327691262" /><line stroke="rgb(0%,0%,0%)" x1="385.822489905" x2="386.193663415" y1="411.072054141" y2="411.326992324" /><line stroke="rgb(0%,0%,0%)" x1="385.822489905" x2="384.989229006" y1="411.072054141" y2="410.294556941" /><line stroke="rgb(0%,0%,0%)" x1="384.989229006" x2="377.895395947" y1="410.294556941" y2="404.507085536" /><line stroke="rgb(0%,0%,0%)" x1="377.895395947" x2="376.429536453" y1="404.507085536" y2="403.591253597" /><line stroke="rgb(0%,0%,0%)" x1="392.243942583" x2="397.539440882" y1="517.178468643" y2="509.479346303" /><line stroke="rgb(0%,0%,0%)" x1="397.539440882" x2="398.44227757" y1="509.479346303" y2="505.937935099" /><line stroke="rgb(0%,0%,0%)" x1="401.172885357" x2="398.44227757" y1="501.675736505" y2="505.937935099" /><line stroke="rgb(0%,0%,0%)" x1="401.172885357" x2="404.471459322" y1="501.675736505" y2="495.377799988" /><line stroke="rgb(0%,0%,0%)" x1="404.471459322" x2="405.18493711" y1="495.377799988" y2="493.87409575" /><line stroke="rgb(0%,0%,0%)" x1="405.18493711" x2="406.123048363" y1="493.87409575" y2="492.113334843" /><line stroke="rgb(0%,0%,0%)" x1="406.123048363" x2="405.528532419" y1="492.113334843" y2="492.273316494" /><line stroke="rgb(0%,0%,0%)" x1="405.528532419" x2="406.160753779" y1="492.273316494" y2="487.585132142" /><line stroke="rgb(0%,0%,0%)" x1="407.894018725" x2="406.092733688" y1="471.709013445" y2="467.23802284" /><line stroke="rgb(0%,0%,0%)" x1="359.812405702" x2="357.574833099" y1="392.419171704" y2="391.424135654" /><line stroke="rgb(0%,0%,0%)" x1="359.812405702" x2="361.049347488" y1="392.419171704" y2="393.083261732" /><line stroke="rgb(0%,0%,0%)" x1="370.071283121" x2="361.049347488" y1="398.86954436" y2="393.083261732" /><line stroke="rgb(0%,0%,0%)" x1="364.578877821" x2="365.798600105" y1="538.533357488" y2="538.001008282" /><line stroke="rgb(0%,0%,0%)" x1="376.429536453" x2="374.392076944" y1="403.591253597" y2="400.921491279" /><line stroke="rgb(0%,0%,0%)" x1="374.392076944" x2="372.348936045" y1="400.921491279" y2="400.192463796" /><line stroke="rgb(0%,0%,0%)" x1="370.071283121" x2="372.348936045" y1="398.86954436" y2="400.192463796" /><line stroke="rgb(0%,0%,0%)" x1="303.973035047" x2="306.799476666" y1="356.647596539" y2="358.560083469" /><line stroke="rgb(0%,0%,0%)" x1="322.530767813" x2="314.303560145" y1="557.672518149" y2="558.688988556" /><line stroke="rgb(0%,0%,0%)" x1="323.60026268" x2="322.530767813" y1="557.178296865" y2="557.672518149" /><line stroke="rgb(0%,0%,0%)" x1="323.60026268" x2="329.357856025" y1="557.178296865" y2="556.28668615" /><line stroke="rgb(0%,0%,0%)" x1="329.357856025" x2="335.365155931" y1="556.28668615" y2="554.198244444" /><line stroke="rgb(0%,0%,0%)" x1="335.365155931" x2="341.225762886" y1="554.198244444" y2="550.762814293" /><line stroke="rgb(0%,0%,0%)" x1="341.225762886" x2="343.792590666" y1="550.762814293" y2="549.849301106" /><line stroke="rgb(0%,0%,0%)" x1="353.491748354" x2="346.937068707" y1="544.748602701" y2="547.676060917" /><line stroke="rgb(0%,0%,0%)" x1="343.792590666" x2="346.937068707" y1="549.849301106" y2="547.676060917" /><line stroke="rgb(0%,0%,0%)" x1="361.879240066" x2="362.331050913" y1="540.851335121" y2="540.712942538" /><line stroke="rgb(0%,0%,0%)" x1="364.578877821" x2="363.048918734" y1="538.533357488" y2="540.347472122" /><line stroke="rgb(0%,0%,0%)" x1="362.885411352" x2="363.048918734" y1="540.361638048" y2="540.347472122" /><line stroke="rgb(0%,0%,0%)" x1="250.241158649" x2="249.406254787" y1="357.961859735" y2="358.515515212" /><line stroke="rgb(0%,0%,0%)" x1="250.241158649" x2="251.404355794" y1="357.961859735" y2="357.427843722" /><line stroke="rgb(0%,0%,0%)" x1="275.113487193" x2="272.150798354" y1="352.443565169" y2="352.054893403" /><line stroke="rgb(0%,0%,0%)" x1="251.404355794" x2="255.421386502" y1="357.427843722" y2="355.938922375" /><line stroke="rgb(0%,0%,0%)" x1="275.113487193" x2="276.440531114" y1="352.443565169" y2="351.961621365" /><line stroke="rgb(0%,0%,0%)" x1="290.109603527" x2="281.563226679" y1="350.348392226" y2="350.206752877" /><line stroke="rgb(0%,0%,0%)" x1="280.852359882" x2="276.440531114" y1="350.322476005" y2="351.961621365" /><line stroke="rgb(0%,0%,0%)" x1="280.852359882" x2="281.563226679" y1="350.322476005" y2="350.206752877" /><line stroke="rgb(0%,0%,0%)" x1="299.647742657" x2="293.255982476" y1="353.159476896" y2="350.497168172" /><line stroke="rgb(0%,0%,0%)" x1="291.160083667" x2="293.255982476" y1="350.031065069" y2="350.497168172" /><line stroke="rgb(0%,0%,0%)" x1="290.109603527" x2="291.160083667" y1="350.348392226" y2="350.031065069" /><line stroke="rgb(0%,0%,0%)" x1="304.999469071" x2="310.441012169" y1="562.82765107" y2="559.053940442" /><line stroke="rgb(0%,0%,0%)" x1="303.779729444" x2="304.999469071" y1="563.297453681" y2="562.82765107" /><line stroke="rgb(0%,0%,0%)" x1="303.973035047" x2="299.647742657" y1="356.647596539" y2="353.159476896" /><line stroke="rgb(0%,0%,0%)" x1="310.441012169" x2="314.303560145" y1="559.053940442" y2="558.688988556" /><line stroke="rgb(0%,0%,0%)" x1="362.331050913" x2="362.550924359" y1="540.712942538" y2="540.484159282" /><line stroke="rgb(0%,0%,0%)" x1="362.550924359" x2="362.885411352" y1="540.484159282" y2="540.361638048" /><line stroke="rgb(0%,0%,0%)" x1="244.354335912" x2="243.47347901" y1="557.840524636" y2="557.381233536" /><line stroke="rgb(0%,0%,0%)" x1="245.674600546" x2="240.765843092" y1="360.931399386" y2="362.323235859" /><line stroke="rgb(0%,0%,0%)" x1="249.406254787" x2="245.674600546" y1="358.515515212" y2="360.931399386" /><line stroke="rgb(0%,0%,0%)" x1="269.843140348" x2="264.954397215" y1="352.334415388" y2="352.813898024" /><line stroke="rgb(0%,0%,0%)" x1="264.954397215" x2="255.421386502" y1="352.813898024" y2="355.938922375" /><line stroke="rgb(0%,0%,0%)" x1="272.150798354" x2="269.843140348" y1="352.054893403" y2="352.334415388" /><line stroke="rgb(0%,0%,0%)" x1="213.147726534" x2="218.461619645" y1="543.084478572" y2="546.360990891" /><line stroke="rgb(0%,0%,0%)" x1="213.147726534" x2="211.141205239" y1="543.084478572" y2="541.685216658" /><line stroke="rgb(0%,0%,0%)" x1="233.792262519" x2="226.020197336" y1="553.082102088" y2="550.300551407" /><line stroke="rgb(0%,0%,0%)" x1="218.461619645" x2="226.020197336" y1="546.360990891" y2="550.300551407" /><line stroke="rgb(0%,0%,0%)" x1="237.369506788" x2="243.47347901" y1="553.886475077" y2="557.381233536" /><line stroke="rgb(0%,0%,0%)" x1="233.792262519" x2="237.369506788" y1="553.082102088" y2="553.886475077" /><line stroke="rgb(0%,0%,0%)" x1="240.765843092" x2="239.690742203" y1="362.323235859" y2="362.736123341" /><line stroke="rgb(0%,0%,0%)" x1="179.985069983" x2="173.065571136" y1="500.001253837" y2="491.65842061" /><line stroke="rgb(0%,0%,0%)" x1="179.985069983" x2="189.137857707" y1="500.001253837" y2="508.945573432" /><line stroke="rgb(0%,0%,0%)" x1="204.461035003" x2="200.744296466" y1="534.839683581" y2="532.220122482" /><line stroke="rgb(0%,0%,0%)" x1="200.744296466" x2="193.170444149" y1="532.220122482" y2="524.73860315" /><line stroke="rgb(0%,0%,0%)" x1="192.174928091" x2="193.170444149" y1="523.527349222" y2="524.73860315" /><line stroke="rgb(0%,0%,0%)" x1="191.938055289" x2="192.174928091" y1="523.001359153" y2="523.527349222" /><line stroke="rgb(0%,0%,0%)" x1="190.73776496" x2="191.938055289" y1="510.288747381" y2="523.001359153" /><line stroke="rgb(0%,0%,0%)" x1="190.37315079" x2="190.73776496" y1="509.962544517" y2="510.288747381" /><line stroke="rgb(0%,0%,0%)" x1="189.682638189" x2="190.37315079" y1="509.535109225" y2="509.962544517" /><line stroke="rgb(0%,0%,0%)" x1="189.137857707" x2="189.682638189" y1="508.945573432" y2="509.535109225" /><line stroke="rgb(0%,0%,0%)" x1="204.461035003" x2="211.141205239" y1="534.839683581" y2="541.685216658" /><line stroke="rgb(0%,0%,0%)" x1="169.853823768" x2="171.789597117" y1="477.444884842" y2="486.539857926" /><line stroke="rgb(0%,0%,0%)" x1="164.841534386" x2="169.853823768" y1="465.584631626" y2="477.444884842" /><line stroke="rgb(0%,0%,0%)" x1="164.841534386" x2="164.821466209" y1="465.584631626" y2="465.435531907" /><line stroke="rgb(0%,0%,0%)" x1="171.789597117" x2="172.299113406" y1="486.539857926" y2="489.458020433" /><line stroke="rgb(0%,0%,0%)" x1="172.299113406" x2="173.065571136" y1="489.458020433" y2="491.65842061" /><line stroke="rgb(0%,0%,0%)" x1="380.110163773" x2="382.449627879" y1="529.688279317" y2="527.892623537" /><line stroke="rgb(0%,0%,0%)" x1="380.110163773" x2="379.211669205" y1="529.688279317" y2="530.300104068" /><line stroke="rgb(0%,0%,0%)" x1="390.611626454" x2="392.243942583" y1="519.771804684" y2="517.178468643" /><line stroke="rgb(0%,0%,0%)" x1="375.03605612" x2="368.934724679" y1="532.736732705" y2="535.993210817" /><line stroke="rgb(0%,0%,0%)" x1="375.03605612" x2="379.211669205" y1="532.736732705" y2="530.300104068" /><line stroke="rgb(0%,0%,0%)" x1="365.798600105" x2="368.934724679" y1="538.001008282" y2="535.993210817" /><line stroke="rgb(0%,0%,0%)" x1="382.449627879" x2="384.440288293" y1="527.892623537" y2="524.995084972" /><line stroke="rgb(0%,0%,0%)" x1="384.440288293" x2="388.089276521" y1="524.995084972" y2="521.474460835" /><line stroke="rgb(0%,0%,0%)" x1="388.089276521" x2="390.611626454" y1="521.474460835" y2="519.771804684" /><line stroke="rgb(0%,0%,0%)" x1="251.080976624" x2="249.528860734" y1="560.964134438" y2="560.371647771" /><line stroke="rgb(0%,0%,0%)" x1="244.354335912" x2="249.528860734" y1="557.840524636" y2="560.371647771" /><line stroke="rgb(0%,0%,0%)" x1="251.080976624" x2="252.788178206" y1="560.964134438" y2="561.779328324" /><line stroke="rgb(0%,0%,0%)" x1="252.788178206" x2="258.269963118" y1="561.779328324" y2="561.483801377" /><line stroke="rgb(0%,0%,0%)" x1="258.269963118" x2="260.648385501" y1="561.483801377" y2="561.505214661" /><line stroke="rgb(0%,0%,0%)" x1="260.648385501" x2="265.136278649" y1="561.505214661" y2="563.974995685" /><line stroke="rgb(0%,0%,0%)" x1="272.694110273" x2="267.742902403" y1="563.195913443" y2="564.275673236" /><line stroke="rgb(0%,0%,0%)" x1="272.694110273" x2="274.604371125" y1="563.195913443" y2="564.520375052" /><line stroke="rgb(0%,0%,0%)" x1="274.604371125" x2="279.918766901" y1="564.520375052" y2="564.548747447" /><line stroke="rgb(0%,0%,0%)" x1="285.947025612" x2="279.918766901" y1="564.719843921" y2="564.548747447" /><line stroke="rgb(0%,0%,0%)" x1="285.947025612" x2="290.239755469" y1="564.719843921" y2="565.916841764" /><line stroke="rgb(0%,0%,0%)" x1="265.136278649" x2="267.742902403" y1="563.974995685" y2="564.275673236" /><line stroke="rgb(0%,0%,0%)" x1="290.239755469" x2="295.110588383" y1="565.916841764" y2="566.243217012" /><line stroke="rgb(0%,0%,0%)" x1="393.254147673" x2="394.839550183" y1="420.741170458" y2="423.169916218" /><line stroke="rgb(0%,0%,0%)" x1="391.402776267" x2="393.254147673" y1="417.327691262" y2="420.741170458" /><line stroke="rgb(0%,0%,0%)" x1="354.692755497" x2="354.25232152" y1="390.389515138" y2="390.100157183" /><line stroke="rgb(0%,0%,0%)" x1="357.574833099" x2="354.692755497" y1="391.424135654" y2="390.389515138" /><line stroke="rgb(0%,0%,0%)" x1="358.322708186" x2="361.879240066" y1="541.697717467" y2="540.851335121" /><line stroke="rgb(0%,0%,0%)" x1="355.803363614" x2="358.322708186" y1="543.331674633" y2="541.697717467" /><line stroke="rgb(0%,0%,0%)" x1="353.491748354" x2="355.803363614" y1="544.748602701" y2="543.331674633" /><line stroke="rgb(0%,0%,0%)" x1="302.033410689" x2="298.077209582" y1="564.060414761" y2="565.415778087" /><line stroke="rgb(0%,0%,0%)" x1="302.033410689" x2="303.779729444" y1="564.060414761" y2="563.297453681" /><line stroke="rgb(0%,0%,0%)" x1="295.110588383" x2="298.077209582" y1="566.243217012" y2="565.415778087" /></svg>