<?xml version="1.0" encoding="utf-8" ?>
<svg baseProfile="full" height="100%" version="1.1" viewBox="0.5 0.5 685.793960571 941.299331665" width="100%" xmlns="http://www.w3.org/2000/svg" xmlns:ev="http://www.w3.org/2001/xml-events" xmlns:xlink="http://www.w3.org/1999/xlink"><defs /><line stroke="rgb(0%,0%,0%)" x1="406.928710142" x2="406.888795999" y1="460.901961826" y2="457.961651936" /><line stroke="rgb(0%,0%,0%)" x1="405.600699839" x2="406.888795999" y1="451.469499793" y2="457.961651936" /><line stroke="rgb(0%,0%,0%)" x1="405.600699839" x2="403.987282885" y1="451.469499793" y2="442.342356934" /><line stroke="rgb(0%,0%,0%)" x1="403.769884956" x2="403.987282885" y1="440.224273467" y2="442.342356934" /><line stroke="rgb(0%,0%,0%)" x1="403.769884956" x2="403.272068362" y1="440.224273467" y2="438.873434242" /><line stroke="rgb(0%,0%,0%)" x1="403.272068362" x2="402.673944741" y1="438.873434242" y2="438.301625872" /><line stroke="rgb(0%,0%,0%)" x1="402.673944741" x2="395.879612777" y1="438.301625872" y2="426.838806647" /><line stroke="rgb(0%,0%,0%)" x1="395.879612777" x2="395.105496138" y1="426.838806647" y2="425.345445076" /><line stroke="rgb(0%,0%,0%)" x1="395.105496138" x2="394.471235089" y1="425.345445076" y2="424.442612206" /><line stroke="rgb(0%,0%,0%)" x1="390.862201618" x2="390.116352771" y1="418.096718603" y2="416.801246624" /><line stroke="rgb(0%,0%,0%)" x1="390.116352771" x2="389.439949543" y1="416.801246624" y2="415.899637862" /><line stroke="rgb(0%,0%,0%)" x1="386.521150961" x2="384.697767269" y1="412.908353762" y2="411.702437516" /><line stroke="rgb(0%,0%,0%)" x1="404.791937427" x2="406.088682518" y1="467.205692045" y2="462.323167943" /><line stroke="rgb(0%,0%,0%)" x1="406.088682518" x2="406.928710142" y1="462.323167943" y2="460.901961826" /><line stroke="rgb(0%,0%,0%)" x1="329.533720978" x2="330.943037995" y1="375.688354014" y2="376.43073678" /><line stroke="rgb(0%,0%,0%)" x1="330.943037995" x2="333.788185472" y1="376.43073678" y2="378.06468573" /><line stroke="rgb(0%,0%,0%)" x1="328.785808531" x2="329.533720978" y1="374.899657334" y2="375.688354014" /><line stroke="rgb(0%,0%,0%)" x1="355.896167107" x2="355.146870161" y1="391.882685383" y2="391.614969912" /><line stroke="rgb(0%,0%,0%)" x1="355.146870161" x2="354.761832164" y1="391.614969912" y2="391.524704916" /><line stroke="rgb(0%,0%,0%)" x1="354.761832164" x2="354.219749469" y1="391.524704916" y2="391.189314874" /><line stroke="rgb(0%,0%,0%)" x1="346.759623994" x2="354.219749469" y1="385.884815422" y2="391.189314874" /><line stroke="rgb(0%,0%,0%)" x1="312.044796979" x2="307.479218585" y1="366.470103608" y2="361.810499377" /><line stroke="rgb(0%,0%,0%)" x1="306.409928907" x2="307.479218585" y1="360.385949356" y2="361.810499377" /><line stroke="rgb(0%,0%,0%)" x1="322.209766029" x2="320.922149646" y1="371.720438623" y2="370.826029367" /><line stroke="rgb(0%,0%,0%)" x1="320.922149646" x2="319.23698096" y1="370.826029367" y2="370.464093932" /><line stroke="rgb(0%,0%,0%)" x1="319.23698096" x2="312.939989812" y1="370.464093932" y2="366.677914886" /><line stroke="rgb(0%,0%,0%)" x1="328.785808531" x2="324.279209089" y1="374.899657334" y2="372.7450422" /><line stroke="rgb(0%,0%,0%)" x1="312.939989812" x2="312.044796979" y1="366.677914886" y2="366.470103608" /><line stroke="rgb(0%,0%,0%)" x1="324.279209089" x2="322.209766029" y1="372.7450422" y2="371.720438623" /><line stroke="rgb(0%,0%,0%)" x1="336.507200297" x2="333.788185472" y1="379.551380868" y2="378.06468573" /><line stroke="rgb(0%,0%,0%)" x1="337.719244713" x2="336.507200297" y1="380.444080018" y2="379.551380868" /><line stroke="rgb(0%,0%,0%)" x1="346.759623994" x2="337.719244713" y1="385.884815422" y2="380.444080018" /><line stroke="rgb(0%,0%,0%)" x1="234.40296667" x2="232.167065786" y1="366.394287297" y2="368.093258461" /><line stroke="rgb(0%,0%,0%)" x1="234.40296667" x2="236.552770433" y1="366.394287297" y2="365.629677058" /><line stroke="rgb(0%,0%,0%)" x1="236.552770433" x2="238.358971803" y1="365.629677058" y2="364.116577613" /><line stroke="rgb(0%,0%,0%)" x1="194.284927301" x2="195.805484697" y1="388.47836323" y2="387.901383233" /><line stroke="rgb(0%,0%,0%)" x1="196.60831928" x2="195.805484697" y1="387.381046118" y2="387.901383233" /><line stroke="rgb(0%,0%,0%)" x1="211.322619733" x2="219.285860465" y1="379.782390838" y2="374.653522986" /><line stroke="rgb(0%,0%,0%)" x1="227.648290885" x2="223.987904746" y1="369.877941045" y2="372.459918188" /><line stroke="rgb(0%,0%,0%)" x1="223.987904746" x2="222.440711106" y1="372.459918188" y2="372.683539841" /><line stroke="rgb(0%,0%,0%)" x1="232.167065786" x2="227.648290885" y1="368.093258461" y2="369.877941045" /><line stroke="rgb(0%,0%,0%)" x1="239.789515254" x2="238.358971803" y1="363.435638037" y2="364.116577613" /><line stroke="rgb(0%,0%,0%)" x1="168.999012703" x2="169.612708345" y1="436.665572115" y2="433.99732129" /><line stroke="rgb(0%,0%,0%)" x1="167.224993881" x2="168.057849385" y1="410.027648733" y2="412.884948508" /><line stroke="rgb(0%,0%,0%)" x1="167.224993881" x2="167.297476234" y1="410.027648733" y2="407.608828625" /><line stroke="rgb(0%,0%,0%)" x1="174.787581545" x2="175.082840992" y1="395.009819169" y2="394.73979325" /><line stroke="rgb(0%,0%,0%)" x1="175.082840992" x2="176.282912512" y1="394.73979325" y2="394.187952765" /><line stroke="rgb(0%,0%,0%)" x1="191.841580691" x2="176.282912512" y1="389.009474033" y2="394.187952765" /><line stroke="rgb(0%,0%,0%)" x1="194.284927301" x2="191.841580691" y1="388.47836323" y2="389.009474033" /><line stroke="rgb(0%,0%,0%)" x1="211.322619733" x2="196.60831928" y1="379.782390838" y2="387.381046118" /><line stroke="rgb(0%,0%,0%)" x1="221.275779128" x2="219.285860465" y1="373.803425511" y2="374.653522986" /><line stroke="rgb(0%,0%,0%)" x1="222.440711106" x2="221.275779128" y1="372.683539841" y2="373.803425511" /><line stroke="rgb(0%,0%,0%)" x1="166.161701884" x2="165.940200838" y1="461.057390712" y2="465.028958957" /><line stroke="rgb(0%,0%,0%)" x1="168.999012703" x2="168.38628027" y1="436.665572115" y2="438.470279009" /><line stroke="rgb(0%,0%,0%)" x1="166.161701884" x2="168.675429166" y1="461.057390712" y2="456.957041222" /><line stroke="rgb(0%,0%,0%)" x1="169.201771214" x2="168.675429166" y1="454.863883155" y2="456.957041222" /><line stroke="rgb(0%,0%,0%)" x1="169.169975866" x2="169.201771214" y1="454.31123278" y2="454.863883155" /><line stroke="rgb(0%,0%,0%)" x1="169.326349055" x2="169.169975866" y1="452.777134061" y2="454.31123278" /><line stroke="rgb(0%,0%,0%)" x1="168.065278373" x2="169.326349055" y1="442.980980759" y2="452.777134061" /><line stroke="rgb(0%,0%,0%)" x1="168.38628027" x2="168.065278373" y1="438.470279009" y2="442.980980759" /><line stroke="rgb(0%,0%,0%)" x1="169.612708345" x2="174.097798994" y1="433.99732129" y2="423.379043341" /><line stroke="rgb(0%,0%,0%)" x1="174.656181106" x2="174.097798994" y1="422.186863248" y2="423.379043341" /><line stroke="rgb(0%,0%,0%)" x1="168.057849385" x2="174.078261685" y1="412.884948508" y2="421.347742553" /><line stroke="rgb(0%,0%,0%)" x1="174.078261685" x2="174.633151599" y1="421.347742553" y2="422.006812495" /><line stroke="rgb(0%,0%,0%)" x1="168.365208033" x2="167.297476234" y1="404.920288015" y2="407.608828625" /><line stroke="rgb(0%,0%,0%)" x1="174.787581545" x2="174.256288304" y1="395.009819169" y2="395.671455092" /><line stroke="rgb(0%,0%,0%)" x1="174.256288304" x2="168.365208033" y1="395.671455092" y2="404.920288015" /><line stroke="rgb(0%,0%,0%)" x1="174.633151599" x2="174.656181106" y1="422.006812495" y2="422.186863248" /><line stroke="rgb(0%,0%,0%)" x1="406.867305" x2="405.819710663" y1="475.471538714" y2="482.67412927" /><line stroke="rgb(0%,0%,0%)" x1="406.867305" x2="406.929283067" y1="475.471538714" y2="472.510822594" /><line stroke="rgb(0%,0%,0%)" x1="386.521150961" x2="389.439949543" y1="412.908353762" y2="415.899637862" /><line stroke="rgb(0%,0%,0%)" x1="378.233017158" x2="383.980308159" y1="406.114369045" y2="410.803270243" /><line stroke="rgb(0%,0%,0%)" x1="378.233017158" x2="376.474218646" y1="406.114369045" y2="405.015516217" /><line stroke="rgb(0%,0%,0%)" x1="390.253486531" x2="396.783944073" y1="518.561440982" y2="509.066812015" /><line stroke="rgb(0%,0%,0%)" x1="396.783944073" x2="397.897330637" y1="509.066812015" y2="504.699510922" /><line stroke="rgb(0%,0%,0%)" x1="400.195535174" x2="397.897330637" y1="501.112249437" y2="504.699510922" /><line stroke="rgb(0%,0%,0%)" x1="400.195535174" x2="402.97176605" y1="501.112249437" y2="495.811617708" /><line stroke="rgb(0%,0%,0%)" x1="402.97176605" x2="404.174602663" y1="495.811617708" y2="493.276555592" /><line stroke="rgb(0%,0%,0%)" x1="404.174602663" x2="405.756143926" y1="493.276555592" y2="490.308127254" /><line stroke="rgb(0%,0%,0%)" x1="405.756143926" x2="404.753862487" y1="490.308127254" y2="490.577836823" /><line stroke="rgb(0%,0%,0%)" x1="404.753862487" x2="405.819710663" y1="490.577836823" y2="482.67412927" /><line stroke="rgb(0%,0%,0%)" x1="406.929283067" x2="404.791937427" y1="472.510822594" y2="467.205692045" /><line stroke="rgb(0%,0%,0%)" x1="359.905545845" x2="357.43016121" y1="393.534154865" y2="392.433365131" /><line stroke="rgb(0%,0%,0%)" x1="359.905545845" x2="359.99714074" y1="393.534154865" y2="393.583330386" /><line stroke="rgb(0%,0%,0%)" x1="370.365843112" x2="359.99714074" y1="400.233371447" y2="393.583330386" /><line stroke="rgb(0%,0%,0%)" x1="364.879801662" x2="367.331616791" y1="537.448538541" y2="536.378440983" /><line stroke="rgb(0%,0%,0%)" x1="376.474218646" x2="374.029590927" y1="405.015516217" y2="401.812225581" /><line stroke="rgb(0%,0%,0%)" x1="374.029590927" x2="371.578146444" y1="401.812225581" y2="400.937508422" /><line stroke="rgb(0%,0%,0%)" x1="370.365843112" x2="371.578146444" y1="400.233371447" y2="400.937508422" /><line stroke="rgb(0%,0%,0%)" x1="386.806104791" x2="387.740369063" y1="521.308511891" y2="520.271226178" /><line stroke="rgb(0%,0%,0%)" x1="387.740369063" x2="390.01021471" y1="520.271226178" y2="518.799340928" /><line stroke="rgb(0%,0%,0%)" x1="384.697767269" x2="383.980308159" y1="411.702437516" y2="410.803270243" /><line stroke="rgb(0%,0%,0%)" x1="305.435694412" x2="306.409928907" y1="359.726742131" y2="360.385949356" /><line stroke="rgb(0%,0%,0%)" x1="322.525468471" x2="319.281332112" y1="556.397420189" y2="556.798232803" /><line stroke="rgb(0%,0%,0%)" x1="322.947189585" x2="322.525468471" y1="556.202539824" y2="556.397420189" /><line stroke="rgb(0%,0%,0%)" x1="322.947189585" x2="329.279222655" y1="556.202539824" y2="555.22197239" /><line stroke="rgb(0%,0%,0%)" x1="329.279222655" x2="335.885875711" y1="555.22197239" y2="552.925165173" /><line stroke="rgb(0%,0%,0%)" x1="335.885875711" x2="340.927847416" y1="552.925165173" y2="549.969610952" /><line stroke="rgb(0%,0%,0%)" x1="340.927847416" x2="344.371330462" y1="549.969610952" y2="548.744103269" /><line stroke="rgb(0%,0%,0%)" x1="353.717920862" x2="348.58975014" y1="543.538281557" y2="545.828630793" /><line stroke="rgb(0%,0%,0%)" x1="344.371330462" x2="348.58975014" y1="548.744103269" y2="545.828630793" /><line stroke="rgb(0%,0%,0%)" x1="360.280024848" x2="361.514844665" y1="540.489184641" y2="540.110951347" /><line stroke="rgb(0%,0%,0%)" x1="364.879801662" x2="363.476810423" y1="537.448538541" y2="539.112103899" /><line stroke="rgb(0%,0%,0%)" x1="363.029937229" x2="363.476810423" y1="539.150820027" y2="539.112103899" /><line stroke="rgb(0%,0%,0%)" x1="249.797749368" x2="249.533151102" y1="358.781204343" y2="358.956669191" /><line stroke="rgb(0%,0%,0%)" x1="249.797749368" x2="250.166390551" y1="358.781204343" y2="358.611963647" /><line stroke="rgb(0%,0%,0%)" x1="275.044820551" x2="272.737307907" y1="353.49814389" y2="353.195423941" /><line stroke="rgb(0%,0%,0%)" x1="250.166390551" x2="251.439470493" y1="358.611963647" y2="358.140093741" /><line stroke="rgb(0%,0%,0%)" x1="275.044820551" x2="276.078398761" y1="353.49814389" y2="353.122778308" /><line stroke="rgb(0%,0%,0%)" x1="290.333320289" x2="283.619288726" y1="351.510627137" y2="351.3993553" /><line stroke="rgb(0%,0%,0%)" x1="276.078398761" x2="280.643174603" y1="353.122778308" y2="351.426807876" /><line stroke="rgb(0%,0%,0%)" x1="299.686186326" x2="291.189771858" y1="355.090067824" y2="351.551124291" /><line stroke="rgb(0%,0%,0%)" x1="283.619288726" x2="280.903554105" y1="351.3993553" y2="351.406470231" /><line stroke="rgb(0%,0%,0%)" x1="290.619263393" x2="291.189771858" y1="351.424249957" y2="351.551124291" /><line stroke="rgb(0%,0%,0%)" x1="290.333320289" x2="290.619263393" y1="351.510627137" y2="351.424249957" /><line stroke="rgb(0%,0%,0%)" x1="305.23690781" x2="309.763126059" y1="560.836490899" y2="557.697558136" /><line stroke="rgb(0%,0%,0%)" x1="302.318299755" x2="305.23690781" y1="561.960640395" y2="560.836490899" /><line stroke="rgb(0%,0%,0%)" x1="305.435694412" x2="299.686186326" y1="359.726742131" y2="355.090067824" /><line stroke="rgb(0%,0%,0%)" x1="309.763126059" x2="319.281332112" y1="557.697558136" y2="556.798232803" /><line stroke="rgb(0%,0%,0%)" x1="361.514844665" x2="362.115768902" y1="540.110951347" y2="539.485676191" /><line stroke="rgb(0%,0%,0%)" x1="362.115768902" x2="363.029937229" y1="539.485676191" y2="539.150820027" /><line stroke="rgb(0%,0%,0%)" x1="245.528135186" x2="242.366258537" y1="361.549528536" y2="362.446051797" /><line stroke="rgb(0%,0%,0%)" x1="249.533151102" x2="245.528135186" y1="358.956669191" y2="361.549528536" /><line stroke="rgb(0%,0%,0%)" x1="269.799480478" x2="263.575731709" y1="353.551277085" y2="354.161695628" /><line stroke="rgb(0%,0%,0%)" x1="263.575731709" x2="251.439470493" y1="354.161695628" y2="358.140093741" /><line stroke="rgb(0%,0%,0%)" x1="272.737307907" x2="269.799480478" y1="353.195423941" y2="353.551277085" /><line stroke="rgb(0%,0%,0%)" x1="280.903554105" x2="280.643174603" y1="351.406470231" y2="351.426807876" /><line stroke="rgb(0%,0%,0%)" x1="213.530922134" x2="216.130717585" y1="542.544027268" y2="544.147044424" /><line stroke="rgb(0%,0%,0%)" x1="213.530922134" x2="212.549241693" y1="542.544027268" y2="541.859445421" /><line stroke="rgb(0%,0%,0%)" x1="232.725696941" x2="226.665174763" y1="551.806650244" y2="549.637645071" /><line stroke="rgb(0%,0%,0%)" x1="216.130717585" x2="226.665174763" y1="544.147044424" y2="549.637645071" /><line stroke="rgb(0%,0%,0%)" x1="237.513113881" x2="243.473793072" y1="552.883140577" y2="556.295858274" /><line stroke="rgb(0%,0%,0%)" x1="243.473793072" x2="244.09978028" y1="556.295858274" y2="556.350970633" /><line stroke="rgb(0%,0%,0%)" x1="232.725696941" x2="237.513113881" y1="551.806650244" y2="552.883140577" /><line stroke="rgb(0%,0%,0%)" x1="242.366258537" x2="239.789515254" y1="362.446051797" y2="363.435638037" /><line stroke="rgb(0%,0%,0%)" x1="180.721390558" x2="174.60425323" y1="499.513770851" y2="492.13834415" /><line stroke="rgb(0%,0%,0%)" x1="180.721390558" x2="188.81285219" y1="499.513770851" y2="507.420937609" /><line stroke="rgb(0%,0%,0%)" x1="204.316993105" x2="202.402723002" y1="533.423413402" y2="532.074233887" /><line stroke="rgb(0%,0%,0%)" x1="202.402723002" x2="198.50188389" y1="532.074233887" y2="528.220949983" /><line stroke="rgb(0%,0%,0%)" x1="195.223018503" x2="198.50188389" y1="524.231523043" y2="528.220949983" /><line stroke="rgb(0%,0%,0%)" x1="194.442846227" x2="195.223018503" y1="522.499104347" y2="524.231523043" /><line stroke="rgb(0%,0%,0%)" x1="193.38133355" x2="194.442846227" y1="511.256325654" y2="522.499104347" /><line stroke="rgb(0%,0%,0%)" x1="192.340190051" x2="193.38133355" y1="510.324864344" y2="511.256325654" /><line stroke="rgb(0%,0%,0%)" x1="190.368454537" x2="192.340190051" y1="509.104337241" y2="510.324864344" /><line stroke="rgb(0%,0%,0%)" x1="188.81285219" x2="190.368454537" y1="507.420937609" y2="509.104337241" /><line stroke="rgb(0%,0%,0%)" x1="204.316993105" x2="212.549241693" y1="533.423413402" y2="541.859445421" /><line stroke="rgb(0%,0%,0%)" x1="171.238775825" x2="172.183874379" y1="477.988588247" y2="482.429007843" /><line stroke="rgb(0%,0%,0%)" x1="171.238775825" x2="168.364307832" y1="477.988588247" y2="471.18692225" /><line stroke="rgb(0%,0%,0%)" x1="172.183874379" x2="173.150369333" y1="482.429007843" y2="487.964433104" /><line stroke="rgb(0%,0%,0%)" x1="166.051776438" x2="168.364307832" y1="465.799485594" y2="471.18692225" /><line stroke="rgb(0%,0%,0%)" x1="166.022121801" x2="166.051776438" y1="465.669315504" y2="465.799485594" /><line stroke="rgb(0%,0%,0%)" x1="165.874694811" x2="165.898041394" y1="465.395432909" y2="465.500189334" /><line stroke="rgb(0%,0%,0%)" x1="165.898041394" x2="166.022121801" y1="465.500189334" y2="465.669315504" /><line stroke="rgb(0%,0%,0%)" x1="173.150369333" x2="174.60425323" y1="487.964433104" y2="492.13834415" /><line stroke="rgb(0%,0%,0%)" x1="379.880268661" x2="380.766636251" y1="528.728643699" y2="528.048312216" /><line stroke="rgb(0%,0%,0%)" x1="379.880268661" x2="379.539850331" y1="528.728643699" y2="528.960449619" /><line stroke="rgb(0%,0%,0%)" x1="390.172843835" x2="390.253486531" y1="518.689561758" y2="518.561440982" /><line stroke="rgb(0%,0%,0%)" x1="374.906181599" x2="373.635672867" y1="531.664371103" y2="532.342482743" /><line stroke="rgb(0%,0%,0%)" x1="374.906181599" x2="379.539850331" y1="531.664371103" y2="528.960449619" /><line stroke="rgb(0%,0%,0%)" x1="367.331616791" x2="373.635672867" y1="536.378440983" y2="532.342482743" /><line stroke="rgb(0%,0%,0%)" x1="380.766636251" x2="383.060751462" y1="528.048312216" y2="524.709075021" /><line stroke="rgb(0%,0%,0%)" x1="383.060751462" x2="384.555689082" y1="524.709075021" y2="523.266726309" /><line stroke="rgb(0%,0%,0%)" x1="390.172843835" x2="390.01021471" y1="518.689561758" y2="518.799340928" /><line stroke="rgb(0%,0%,0%)" x1="251.215584651" x2="250.843823925" y1="560.181761943" y2="560.039850327" /><line stroke="rgb(0%,0%,0%)" x1="250.843823925" x2="248.907730049" y1="560.039850327" y2="559.092808391" /><line stroke="rgb(0%,0%,0%)" x1="251.215584651" x2="251.624491295" y1="560.181761943" y2="560.377016094" /><line stroke="rgb(0%,0%,0%)" x1="251.624491295" x2="258.114700714" y1="560.377016094" y2="560.027124259" /><line stroke="rgb(0%,0%,0%)" x1="258.114700714" x2="260.930655663" y1="560.027124259" y2="560.052476713" /><line stroke="rgb(0%,0%,0%)" x1="260.930655663" x2="264.439302576" y1="560.052476713" y2="561.983358149" /><line stroke="rgb(0%,0%,0%)" x1="245.369087663" x2="248.907730049" y1="556.599871539" y2="559.092808391" /><line stroke="rgb(0%,0%,0%)" x1="272.906340122" x2="269.55955843" y1="561.844120129" y2="562.573986538" /><line stroke="rgb(0%,0%,0%)" x1="272.906340122" x2="274.197585858" y1="561.844120129" y2="562.739393359" /><line stroke="rgb(0%,0%,0%)" x1="274.197585858" x2="281.906955204" y1="562.739393359" y2="562.780551995" /><line stroke="rgb(0%,0%,0%)" x1="285.694227581" x2="281.906955204" y1="562.888043889" y2="562.780551995" /><line stroke="rgb(0%,0%,0%)" x1="285.694227581" x2="288.39114853" y1="562.888043889" y2="563.640061525" /><line stroke="rgb(0%,0%,0%)" x1="264.439302576" x2="269.55955843" y1="561.983358149" y2="562.573986538" /><line stroke="rgb(0%,0%,0%)" x1="288.39114853" x2="295.45212766" y1="563.640061525" y2="564.113189809" /><line stroke="rgb(0%,0%,0%)" x1="244.09978028" x2="245.369087663" y1="556.350970633" y2="556.599871539" /><line stroke="rgb(0%,0%,0%)" x1="165.940200838" x2="165.874694811" y1="465.028958957" y2="465.395432909" /><line stroke="rgb(0%,0%,0%)" x1="393.482546027" x2="394.471235089" y1="422.92799724" y2="424.442612206" /><line stroke="rgb(0%,0%,0%)" x1="390.862201618" x2="393.482546027" y1="418.096718603" y2="422.92799724" /><line stroke="rgb(0%,0%,0%)" x1="357.43016121" x2="355.896167107" y1="392.433365131" y2="391.882685383" /><line stroke="rgb(0%,0%,0%)" x1="384.555689082" x2="386.806104791" y1="523.266726309" y2="521.308511891" /><line stroke="rgb(0%,0%,0%)" x1="357.497508594" x2="360.280024848" y1="541.15136699" y2="540.489184641" /><line stroke="rgb(0%,0%,0%)" x1="355.526454359" x2="357.497508594" y1="542.42972257" y2="541.15136699" /><line stroke="rgb(0%,0%,0%)" x1="353.717920862" x2="355.526454359" y1="543.538281557" y2="542.42972257" /><line stroke="rgb(0%,0%,0%)" x1="301.532612424" x2="299.752675582" y1="562.303904678" y2="562.913697015" /><line stroke="rgb(0%,0%,0%)" x1="301.532612424" x2="302.318299755" y1="562.303904678" y2="561.960640395" /><line stroke="rgb(0%,0%,0%)" x1="295.45212766" x2="299.752675582" y1="564.113189809" y2="562.913697015" /></svg>