<?xml version="1.0" encoding="utf-8" ?>
<svg baseProfile="full" height="100%" version="1.1" viewBox="0.5 0.5 685.793960571 941.299331665" width="100%" xmlns="http://www.w3.org/2000/svg" xmlns:ev="http://www.w3.org/2001/xml-events" xmlns:xlink="http://www.w3.org/1999/xlink"><defs /><line stroke="rgb(0%,0%,0%)" x1="363.908419929" x2="361.150199192" y1="422.672328938" y2="420.313356945" /><line stroke="rgb(0%,0%,0%)" x1="361.150199192" x2="359.133189204" y1="420.313356945" y2="417.563490829" /><line stroke="rgb(0%,0%,0%)" x1="379.190146445" x2="379.055430745" y1="444.768751032" y2="443.785887226" /><line stroke="rgb(0%,0%,0%)" x1="373.026189004" x2="374.114720952" y1="434.627660747" y2="435.073262785" /><line stroke="rgb(0%,0%,0%)" x1="373.026189004" x2="364.095892799" y1="434.627660747" y2="422.910883796" /><line stroke="rgb(0%,0%,0%)" x1="364.095892799" x2="363.908419929" y1="422.910883796" y2="422.672328938" /><line stroke="rgb(0%,0%,0%)" x1="377.122545364" x2="378.64062645" y1="467.036691082" y2="463.434658205" /><line stroke="rgb(0%,0%,0%)" x1="378.64062645" x2="379.659179988" y1="463.434658205" y2="460.335043044" /><line stroke="rgb(0%,0%,0%)" x1="379.113934046" x2="379.659179988" y1="453.921014527" y2="460.335043044" /><line stroke="rgb(0%,0%,0%)" x1="379.113934046" x2="377.827021689" y1="453.921014527" y2="449.549088761" /><line stroke="rgb(0%,0%,0%)" x1="377.827021689" x2="379.190146445" y1="449.549088761" y2="444.768751032" /><line stroke="rgb(0%,0%,0%)" x1="374.114720952" x2="379.055430745" y1="435.073262785" y2="443.785887226" /><line stroke="rgb(0%,0%,0%)" x1="325.284604849" x2="328.220806599" y1="396.114831358" y2="396.787627675" /><line stroke="rgb(0%,0%,0%)" x1="325.284604849" x2="324.342246667" y1="396.114831358" y2="395.780504428" /><line stroke="rgb(0%,0%,0%)" x1="339.263473864" x2="333.426012306" y1="402.581837065" y2="399.177266045" /><line stroke="rgb(0%,0%,0%)" x1="342.896793443" x2="339.263473864" y1="405.645221168" y2="402.581837065" /><line stroke="rgb(0%,0%,0%)" x1="351.617477079" x2="346.100048408" y1="413.199497151" y2="408.967584651" /><line stroke="rgb(0%,0%,0%)" x1="346.100048408" x2="344.280570529" y1="408.967584651" y2="407.540761436" /><line stroke="rgb(0%,0%,0%)" x1="344.280570529" x2="342.896793443" y1="407.540761436" y2="405.645221168" /><line stroke="rgb(0%,0%,0%)" x1="359.133189204" x2="358.701348981" y1="417.563490829" y2="416.938553948" /><line stroke="rgb(0%,0%,0%)" x1="351.617477079" x2="358.701348981" y1="413.199497151" y2="416.938553948" /><line stroke="rgb(0%,0%,0%)" x1="302.506842662" x2="304.00474934" y1="390.680254226" y2="390.973034749" /><line stroke="rgb(0%,0%,0%)" x1="308.204829658" x2="304.00474934" y1="391.778752367" y2="390.973034749" /><line stroke="rgb(0%,0%,0%)" x1="315.805961645" x2="312.737039717" y1="393.296076" y2="392.749400424" /><line stroke="rgb(0%,0%,0%)" x1="312.737039717" x2="308.204829658" y1="392.749400424" y2="391.778752367" /><line stroke="rgb(0%,0%,0%)" x1="315.805961645" x2="322.405975249" y1="393.296076" y2="395.299864687" /><line stroke="rgb(0%,0%,0%)" x1="324.342246667" x2="322.405975249" y1="395.780504428" y2="395.299864687" /><line stroke="rgb(0%,0%,0%)" x1="332.613443599" x2="328.220806599" y1="398.704589092" y2="396.787627675" /><line stroke="rgb(0%,0%,0%)" x1="333.426012306" x2="332.613443599" y1="399.177266045" y2="398.704589092" /><line stroke="rgb(0%,0%,0%)" x1="265.376331832" x2="261.08067682" y1="392.366613531" y2="393.423284125" /><line stroke="rgb(0%,0%,0%)" x1="270.56078537" x2="265.376331832" y1="392.091688471" y2="392.366613531" /><line stroke="rgb(0%,0%,0%)" x1="282.091672569" x2="280.333670773" y1="391.206422055" y2="391.711761609" /><line stroke="rgb(0%,0%,0%)" x1="284.998555326" x2="286.324453956" y1="390.466113865" y2="390.310616347" /><line stroke="rgb(0%,0%,0%)" x1="284.998555326" x2="282.091672569" y1="390.466113865" y2="391.206422055" /><line stroke="rgb(0%,0%,0%)" x1="292.645473474" x2="286.324453956" y1="390.515061631" y2="390.310616347" /><line stroke="rgb(0%,0%,0%)" x1="294.405656264" x2="292.645473474" y1="390.366990894" y2="390.515061631" /><line stroke="rgb(0%,0%,0%)" x1="297.872865641" x2="294.405656264" y1="390.051752748" y2="390.366990894" /><line stroke="rgb(0%,0%,0%)" x1="302.506842662" x2="297.872865641" y1="390.680254226" y2="390.051752748" /><line stroke="rgb(0%,0%,0%)" x1="239.148450878" x2="234.297002501" y1="397.954981764" y2="398.541015419" /><line stroke="rgb(0%,0%,0%)" x1="243.254756943" x2="239.148450878" y1="396.516664241" y2="397.954981764" /><line stroke="rgb(0%,0%,0%)" x1="251.813422167" x2="245.587174314" y1="395.002239419" y2="396.644809085" /><line stroke="rgb(0%,0%,0%)" x1="245.587174314" x2="243.254756943" y1="396.644809085" y2="396.516664241" /><line stroke="rgb(0%,0%,0%)" x1="251.813422167" x2="259.151129835" y1="395.002239419" y2="393.780937534" /><line stroke="rgb(0%,0%,0%)" x1="261.08067682" x2="259.151129835" y1="393.423284125" y2="393.780937534" /><line stroke="rgb(0%,0%,0%)" x1="188.857560474" x2="188.866526634" y1="447.083419099" y2="447.239264283" /><line stroke="rgb(0%,0%,0%)" x1="188.857560474" x2="188.99725684" y1="447.083419099" y2="445.712928299" /><line stroke="rgb(0%,0%,0%)" x1="196.5572439" x2="197.375947712" y1="426.615282987" y2="425.859943394" /><line stroke="rgb(0%,0%,0%)" x1="197.375947712" x2="202.938787698" y1="425.859943394" y2="421.69239289" /><line stroke="rgb(0%,0%,0%)" x1="215.223325859" x2="222.770456666" y1="412.237873893" y2="406.650539808" /><line stroke="rgb(0%,0%,0%)" x1="223.876706743" x2="222.770456666" y1="406.200899975" y2="406.650539808" /><line stroke="rgb(0%,0%,0%)" x1="223.876706743" x2="234.297002501" y1="406.200899975" y2="398.541015419" /><line stroke="rgb(0%,0%,0%)" x1="189.925244178" x2="189.164269862" y1="449.07244671" y2="451.919490962" /><line stroke="rgb(0%,0%,0%)" x1="188.866526634" x2="189.925244178" y1="447.239264283" y2="449.07244671" /><line stroke="rgb(0%,0%,0%)" x1="188.81193739" x2="189.251706636" y1="455.600803974" y2="458.35021861" /><line stroke="rgb(0%,0%,0%)" x1="189.164269862" x2="188.81193739" y1="451.919490962" y2="455.600803974" /><line stroke="rgb(0%,0%,0%)" x1="191.15511724" x2="191.602912733" y1="440.82011069" y2="436.964193773" /><line stroke="rgb(0%,0%,0%)" x1="191.15511724" x2="188.99725684" y1="440.82011069" y2="445.712928299" /><line stroke="rgb(0%,0%,0%)" x1="196.5572439" x2="195.983260548" y1="426.615282987" y2="427.52684128" /><line stroke="rgb(0%,0%,0%)" x1="195.983260548" x2="191.602912733" y1="427.52684128" y2="436.964193773" /><line stroke="rgb(0%,0%,0%)" x1="215.223325859" x2="202.938787698" y1="412.237873893" y2="421.69239289" /><line stroke="rgb(0%,0%,0%)" x1="379.765544731" x2="379.873857684" y1="477.864594855" y2="477.463825146" /><line stroke="rgb(0%,0%,0%)" x1="377.78750343" x2="379.765544731" y1="495.169078885" y2="477.864594855" /><line stroke="rgb(0%,0%,0%)" x1="379.784467931" x2="379.873857684" y1="476.796857297" y2="477.463825146" /><line stroke="rgb(0%,0%,0%)" x1="379.784467931" x2="379.722437076" y1="476.796857297" y2="476.133662734" /><line stroke="rgb(0%,0%,0%)" x1="379.722437076" x2="379.525514145" y1="476.133662734" y2="472.225205633" /><line stroke="rgb(0%,0%,0%)" x1="379.525514145" x2="377.744948964" y1="472.225205633" y2="468.636739757" /><line stroke="rgb(0%,0%,0%)" x1="377.122545364" x2="377.744948964" y1="467.036691082" y2="468.636739757" /><line stroke="rgb(0%,0%,0%)" x1="315.861205851" x2="315.638176075" y1="533.876529531" y2="533.880136295" /><line stroke="rgb(0%,0%,0%)" x1="315.861205851" x2="316.023594101" y1="533.876529531" y2="533.864617987" /><line stroke="rgb(0%,0%,0%)" x1="316.023594101" x2="328.642462589" y1="533.864617987" y2="532.07794166" /><line stroke="rgb(0%,0%,0%)" x1="328.642462589" x2="330.030406147" y1="532.07794166" y2="531.955303786" /><line stroke="rgb(0%,0%,0%)" x1="338.081973723" x2="340.861720006" y1="530.366967851" y2="529.200845667" /><line stroke="rgb(0%,0%,0%)" x1="353.412659757" x2="349.407705371" y1="519.516014384" y2="523.683259313" /><line stroke="rgb(0%,0%,0%)" x1="353.412659757" x2="357.134981248" y1="519.516014384" y2="518.152543063" /><line stroke="rgb(0%,0%,0%)" x1="340.861720006" x2="346.932337757" y1="529.200845667" y2="525.369231342" /><line stroke="rgb(0%,0%,0%)" x1="346.932337757" x2="349.407705371" y1="525.369231342" y2="523.683259313" /><line stroke="rgb(0%,0%,0%)" x1="357.134981248" x2="361.751999925" y1="518.152543063" y2="515.647707927" /><line stroke="rgb(0%,0%,0%)" x1="361.751999925" x2="366.165265651" y1="515.647707927" y2="512.312389292" /><line stroke="rgb(0%,0%,0%)" x1="366.165265651" x2="366.170679244" y1="512.312389292" y2="512.305046447" /><line stroke="rgb(0%,0%,0%)" x1="366.170679244" x2="366.173502788" y1="512.305046447" y2="512.297759012" /><line stroke="rgb(0%,0%,0%)" x1="373.263973826" x2="366.173502788" y1="501.731302646" y2="512.297759012" /><line stroke="rgb(0%,0%,0%)" x1="373.263973826" x2="373.847392879" y1="501.731302646" y2="500.681970105" /><line stroke="rgb(0%,0%,0%)" x1="377.78750343" x2="373.847392879" y1="495.169078885" y2="500.681970105" /><line stroke="rgb(0%,0%,0%)" x1="305.238482166" x2="305.170613197" y1="533.660703817" y2="533.64952329" /><line stroke="rgb(0%,0%,0%)" x1="295.704785092" x2="298.546075139" y1="532.151278659" y2="532.727154933" /><line stroke="rgb(0%,0%,0%)" x1="298.546075139" x2="305.170613197" y1="532.727154933" y2="533.64952329" /><line stroke="rgb(0%,0%,0%)" x1="305.238482166" x2="315.638176075" y1="533.660703817" y2="533.880136295" /><line stroke="rgb(0%,0%,0%)" x1="330.030406147" x2="338.081973723" y1="531.955303786" y2="530.366967851" /><line stroke="rgb(0%,0%,0%)" x1="271.122108758" x2="270.56078537" y1="391.616831171" y2="392.091688471" /><line stroke="rgb(0%,0%,0%)" x1="278.19729121" x2="271.122108758" y1="392.000842965" y2="391.616831171" /><line stroke="rgb(0%,0%,0%)" x1="278.956865009" x2="278.19729121" y1="391.858029935" y2="392.000842965" /><line stroke="rgb(0%,0%,0%)" x1="279.362647897" x2="280.333670773" y1="391.929031625" y2="391.711761609" /><line stroke="rgb(0%,0%,0%)" x1="278.956865009" x2="279.362647897" y1="391.858029935" y2="391.929031625" /><line stroke="rgb(0%,0%,0%)" x1="285.142018592" x2="285.058281869" y1="530.093741455" y2="530.069728692" /><line stroke="rgb(0%,0%,0%)" x1="285.142018592" x2="285.520073327" y1="530.093741455" y2="530.158378956" /><line stroke="rgb(0%,0%,0%)" x1="285.520073327" x2="290.466475024" y1="530.158378956" y2="531.159166385" /><line stroke="rgb(0%,0%,0%)" x1="295.704785092" x2="292.667695893" y1="532.151278659" y2="531.65468378" /><line stroke="rgb(0%,0%,0%)" x1="290.466475024" x2="291.403047224" y1="531.159166385" y2="530.681962767" /><line stroke="rgb(0%,0%,0%)" x1="291.403047224" x2="292.667695893" y1="530.681962767" y2="531.65468378" /><line stroke="rgb(0%,0%,0%)" x1="203.795086958" x2="202.690571249" y1="494.428100238" y2="492.820995699" /><line stroke="rgb(0%,0%,0%)" x1="203.795086958" x2="204.91130924" y1="494.428100238" y2="496.430933718" /><line stroke="rgb(0%,0%,0%)" x1="202.690571249" x2="201.18276372" y1="492.820995699" y2="489.512042547" /><line stroke="rgb(0%,0%,0%)" x1="193.427909056" x2="194.030776563" y1="476.279735108" y2="477.346649784" /><line stroke="rgb(0%,0%,0%)" x1="204.91130924" x2="211.792704669" y1="496.430933718" y2="504.602693002" /><line stroke="rgb(0%,0%,0%)" x1="211.792704669" x2="211.916703068" y1="504.602693002" y2="504.725331143" /><line stroke="rgb(0%,0%,0%)" x1="216.940121367" x2="212.080748913" y1="508.2170788" y2="504.864035218" /><line stroke="rgb(0%,0%,0%)" x1="242.94933141" x2="242.480474518" y1="522.670837701" y2="522.44338815" /><line stroke="rgb(0%,0%,0%)" x1="229.387036364" x2="236.581793948" y1="515.294762548" y2="518.681337926" /><line stroke="rgb(0%,0%,0%)" x1="259.575499557" x2="258.07005098" y1="526.524557159" y2="525.979342004" /><line stroke="rgb(0%,0%,0%)" x1="242.94933141" x2="243.200424741" y1="522.670837701" y2="522.75463549" /><line stroke="rgb(0%,0%,0%)" x1="243.200424741" x2="250.74668107" y1="522.75463549" y2="523.258861239" /><line stroke="rgb(0%,0%,0%)" x1="250.74668107" x2="258.07005098" y1="523.258861239" y2="525.979342004" /><line stroke="rgb(0%,0%,0%)" x1="239.655929093" x2="242.480474518" y1="519.983240701" y2="522.44338815" /><line stroke="rgb(0%,0%,0%)" x1="259.575499557" x2="277.228206331" y1="526.524557159" y2="528.529621342" /><line stroke="rgb(0%,0%,0%)" x1="190.822926243" x2="190.317455198" y1="464.541526717" y2="465.77474277" /><line stroke="rgb(0%,0%,0%)" x1="193.285176675" x2="193.427909056" y1="475.875223879" y2="476.279735108" /><line stroke="rgb(0%,0%,0%)" x1="193.285176675" x2="193.119371874" y1="475.875223879" y2="475.539625026" /><line stroke="rgb(0%,0%,0%)" x1="193.104653509" x2="193.082892108" y1="469.408931644" y2="475.379730871" /><line stroke="rgb(0%,0%,0%)" x1="193.119371874" x2="193.082892108" y1="475.539625026" y2="475.379730871" /><line stroke="rgb(0%,0%,0%)" x1="191.924537784" x2="193.104653509" y1="467.321064904" y2="469.408931644" /><line stroke="rgb(0%,0%,0%)" x1="191.924537784" x2="190.317455198" y1="467.321064904" y2="465.77474277" /><line stroke="rgb(0%,0%,0%)" x1="211.916703068" x2="211.935697751" y1="504.725331143" y2="504.765751332" /><line stroke="rgb(0%,0%,0%)" x1="211.935697751" x2="212.080748913" y1="504.765751332" y2="504.864035218" /><line stroke="rgb(0%,0%,0%)" x1="199.41948699" x2="201.18276372" y1="486.235652745" y2="489.512042547" /><line stroke="rgb(0%,0%,0%)" x1="197.889958927" x2="199.41948699" y1="483.729135294" y2="486.235652745" /><line stroke="rgb(0%,0%,0%)" x1="194.030776563" x2="197.889958927" y1="477.346649784" y2="483.729135294" /><line stroke="rgb(0%,0%,0%)" x1="216.940121367" x2="218.57766293" y1="508.2170788" y2="508.865714685" /><line stroke="rgb(0%,0%,0%)" x1="219.374082318" x2="218.57766293" y1="509.18709979" y2="508.865714685" /><line stroke="rgb(0%,0%,0%)" x1="219.374082318" x2="229.387036364" y1="509.18709979" y2="515.294762548" /><line stroke="rgb(0%,0%,0%)" x1="236.581793948" x2="239.655929093" y1="518.681337926" y2="519.983240701" /><line stroke="rgb(0%,0%,0%)" x1="190.822926243" x2="189.735882117" y1="464.541526717" y2="460.174177435" /><line stroke="rgb(0%,0%,0%)" x1="189.791788271" x2="189.735882117" y1="459.276510932" y2="460.174177435" /><line stroke="rgb(0%,0%,0%)" x1="189.251706636" x2="189.791788271" y1="458.35021861" y2="459.276510932" /><line stroke="rgb(0%,0%,0%)" x1="277.228206331" x2="284.628932315" y1="528.529621342" y2="529.963127851" /><line stroke="rgb(0%,0%,0%)" x1="284.628932315" x2="285.058281869" y1="529.963127851" y2="530.069728692" /></svg>