<?xml version="1.0" encoding="utf-8" ?>
<svg baseProfile="full" height="100%" version="1.1" viewBox="0.5 0.5 685.793960571 941.299331665" width="100%" xmlns="http://www.w3.org/2000/svg" xmlns:ev="http://www.w3.org/2001/xml-events" xmlns:xlink="http://www.w3.org/1999/xlink"><defs /><line stroke="rgb(0%,0%,0%)" x1="369.565259387" x2="372.334060501" y1="446.967526394" y2="454.126818372" /><line stroke="rgb(0%,0%,0%)" x1="339.032692903" x2="337.163604601" y1="410.182463664" y2="409.092359034" /><line stroke="rgb(0%,0%,0%)" x1="339.032692903" x2="342.103042345" y1="410.182463664" y2="412.771187134" /><line stroke="rgb(0%,0%,0%)" x1="353.800500135" x2="349.862585252" y1="421.360154419" y2="418.339741794" /><line stroke="rgb(0%,0%,0%)" x1="360.63651036" x2="362.648301017" y1="429.148890045" y2="432.568653547" /><line stroke="rgb(0%,0%,0%)" x1="360.63651036" x2="360.274028619" y1="429.148890045" y2="428.836348155" /><line stroke="rgb(0%,0%,0%)" x1="360.274028619" x2="357.203850347" y1="428.836348155" y2="423.977185892" /><line stroke="rgb(0%,0%,0%)" x1="356.311178772" x2="357.203850347" y1="422.685357663" y2="423.977185892" /><line stroke="rgb(0%,0%,0%)" x1="353.800500135" x2="356.311178772" y1="421.360154419" y2="422.685357663" /><line stroke="rgb(0%,0%,0%)" x1="368.823263192" x2="371.575764577" y1="463.595963936" y2="457.0707273" /><line stroke="rgb(0%,0%,0%)" x1="371.575764577" x2="372.334060501" y1="457.0707273" y2="454.126818372" /><line stroke="rgb(0%,0%,0%)" x1="369.565259387" x2="367.093666653" y1="446.967526394" y2="440.94212543" /><line stroke="rgb(0%,0%,0%)" x1="367.093666653" x2="362.648301017" y1="440.94212543" y2="432.568653547" /><line stroke="rgb(0%,0%,0%)" x1="306.205808211" x2="306.510156786" y1="397.519415426" y2="397.578903334" /><line stroke="rgb(0%,0%,0%)" x1="307.363540028" x2="306.510156786" y1="397.742611135" y2="397.578903334" /><line stroke="rgb(0%,0%,0%)" x1="316.566311645" x2="315.618597564" y1="399.679387747" y2="399.510568809" /><line stroke="rgb(0%,0%,0%)" x1="315.618597564" x2="307.363540028" y1="399.510568809" y2="397.742611135" /><line stroke="rgb(0%,0%,0%)" x1="324.210735078" x2="322.172834892" y1="403.041407336" y2="402.208228112" /><line stroke="rgb(0%,0%,0%)" x1="322.172834892" x2="320.036394471" y1="402.208228112" y2="400.653625727" /><line stroke="rgb(0%,0%,0%)" x1="316.566311645" x2="318.604462491" y1="399.679387747" y2="400.298177928" /><line stroke="rgb(0%,0%,0%)" x1="318.604462491" x2="320.036394471" y1="400.298177928" y2="400.653625727" /><line stroke="rgb(0%,0%,0%)" x1="333.970908121" x2="328.694985876" y1="407.235144953" y2="404.932714914" /><line stroke="rgb(0%,0%,0%)" x1="337.163604601" x2="333.970908121" y1="409.092359034" y2="407.235144953" /><line stroke="rgb(0%,0%,0%)" x1="349.862585252" x2="345.770975912" y1="418.339741794" y2="416.030092147" /><line stroke="rgb(0%,0%,0%)" x1="345.770975912" x2="344.377220699" y1="416.030092147" y2="414.802924047" /><line stroke="rgb(0%,0%,0%)" x1="343.181153547" x2="342.103042345" y1="413.839536602" y2="412.771187134" /><line stroke="rgb(0%,0%,0%)" x1="344.377220699" x2="343.181153547" y1="414.802924047" y2="413.839536602" /><line stroke="rgb(0%,0%,0%)" x1="280.174980723" x2="285.70271171" y1="397.615361881" y2="397.458080053" /><line stroke="rgb(0%,0%,0%)" x1="287.843251536" x2="286.353678135" y1="397.331132321" y2="397.489588805" /><line stroke="rgb(0%,0%,0%)" x1="296.864057836" x2="287.843251536" y1="396.572280773" y2="397.331132321" /><line stroke="rgb(0%,0%,0%)" x1="298.276015061" x2="296.864057836" y1="396.443905838" y2="396.572280773" /><line stroke="rgb(0%,0%,0%)" x1="306.205808211" x2="298.276015061" y1="397.519415426" y2="396.443905838" /><line stroke="rgb(0%,0%,0%)" x1="328.694985876" x2="324.210735078" y1="404.932714914" y2="403.041407336" /><line stroke="rgb(0%,0%,0%)" x1="244.150524112" x2="253.874806701" y1="403.466964135" y2="401.04854857" /><line stroke="rgb(0%,0%,0%)" x1="258.842336076" x2="253.874806701" y1="399.886651366" y2="401.04854857" /><line stroke="rgb(0%,0%,0%)" x1="264.189954393" x2="262.873089569" y1="399.679455447" y2="399.22627505" /><line stroke="rgb(0%,0%,0%)" x1="258.842336076" x2="262.873089569" y1="399.886651366" y2="399.22627505" /><line stroke="rgb(0%,0%,0%)" x1="267.162240363" x2="264.189954393" y1="398.866295332" y2="399.679455447" /><line stroke="rgb(0%,0%,0%)" x1="272.218454834" x2="267.162240363" y1="398.228036516" y2="398.866295332" /><line stroke="rgb(0%,0%,0%)" x1="272.218454834" x2="273.262399828" y1="398.228036516" y2="397.924577288" /><line stroke="rgb(0%,0%,0%)" x1="273.262399828" x2="278.326223185" y1="397.924577288" y2="397.648867387" /><line stroke="rgb(0%,0%,0%)" x1="280.174980723" x2="278.326223185" y1="397.615361881" y2="397.648867387" /><line stroke="rgb(0%,0%,0%)" x1="286.353678135" x2="285.70271171" y1="397.489588805" y2="397.458080053" /><line stroke="rgb(0%,0%,0%)" x1="231.590209597" x2="228.019936174" y1="407.767087877" y2="410.240241078" /><line stroke="rgb(0%,0%,0%)" x1="233.612666273" x2="231.590209597" y1="407.455612241" y2="407.767087877" /><line stroke="rgb(0%,0%,0%)" x1="242.02137261" x2="233.612666273" y1="404.248095095" y2="407.455612241" /><line stroke="rgb(0%,0%,0%)" x1="244.150524112" x2="242.02137261" y1="403.466964135" y2="404.248095095" /><line stroke="rgb(0%,0%,0%)" x1="195.160468903" x2="194.968234526" y1="447.516303195" y2="448.23551246" /><line stroke="rgb(0%,0%,0%)" x1="195.160468903" x2="194.679930722" y1="447.516303195" y2="446.684245434" /><line stroke="rgb(0%,0%,0%)" x1="194.879229665" x2="196.132794979" y1="449.16547146" y2="457.002697117" /><line stroke="rgb(0%,0%,0%)" x1="194.968234526" x2="194.879229665" y1="448.23551246" y2="449.16547146" /><line stroke="rgb(0%,0%,0%)" x1="196.139425804" x2="196.147408932" y1="457.030654879" y2="457.052462094" /><line stroke="rgb(0%,0%,0%)" x1="196.132794979" x2="196.139425804" y1="457.002697117" y2="457.030654879" /><line stroke="rgb(0%,0%,0%)" x1="194.679930722" x2="196.847960317" y1="446.684245434" y2="439.753758827" /><line stroke="rgb(0%,0%,0%)" x1="197.09849924" x2="196.847960317" y1="439.239866338" y2="439.753758827" /><line stroke="rgb(0%,0%,0%)" x1="197.214191458" x2="197.09849924" y1="439.068619757" y2="439.239866338" /><line stroke="rgb(0%,0%,0%)" x1="198.466952821" x2="197.214191458" y1="436.91527364" y2="439.068619757" /><line stroke="rgb(0%,0%,0%)" x1="203.528435817" x2="198.466952821" y1="428.732376486" y2="436.91527364" /><line stroke="rgb(0%,0%,0%)" x1="203.528435817" x2="220.064096573" y1="428.732376486" y2="413.611186776" /><line stroke="rgb(0%,0%,0%)" x1="220.915540672" x2="220.064096573" y1="412.827789017" y2="413.611186776" /><line stroke="rgb(0%,0%,0%)" x1="228.019936174" x2="220.915540672" y1="410.240241078" y2="412.827789017" /><line stroke="rgb(0%,0%,0%)" x1="345.655848295" x2="343.727971773" y1="518.008389852" y2="519.225214829" /><line stroke="rgb(0%,0%,0%)" x1="340.246369385" x2="343.727971773" y1="520.89397799" y2="519.225214829" /><line stroke="rgb(0%,0%,0%)" x1="345.655848295" x2="349.034855045" y1="518.008389852" y2="515.70694952" /><line stroke="rgb(0%,0%,0%)" x1="351.4776295" x2="358.720540394" y1="514.13258562" y2="510.267790331" /><line stroke="rgb(0%,0%,0%)" x1="363.283857961" x2="359.054830307" y1="504.173168661" y2="509.858335062" /><line stroke="rgb(0%,0%,0%)" x1="363.283857961" x2="365.172107146" y1="504.173168661" y2="499.379402568" /><line stroke="rgb(0%,0%,0%)" x1="365.172107146" x2="366.511285148" y1="499.379402568" y2="495.786949415" /><line stroke="rgb(0%,0%,0%)" x1="369.769647359" x2="366.511285148" y1="489.945771358" y2="495.786949415" /><line stroke="rgb(0%,0%,0%)" x1="369.769647359" x2="370.903472505" y1="489.945771358" y2="487.170472714" /><line stroke="rgb(0%,0%,0%)" x1="371.788341475" x2="370.903472505" y1="483.845091867" y2="487.170472714" /><line stroke="rgb(0%,0%,0%)" x1="371.788341475" x2="372.535549451" y1="483.845091867" y2="475.753672647" /><line stroke="rgb(0%,0%,0%)" x1="370.60720341" x2="372.535549451" y1="472.183826965" y2="475.753672647" /><line stroke="rgb(0%,0%,0%)" x1="370.60720341" x2="368.846370217" y1="472.183826965" y2="467.07921539" /><line stroke="rgb(0%,0%,0%)" x1="313.922969889" x2="314.956660734" y1="527.022086979" y2="527.046625153" /><line stroke="rgb(0%,0%,0%)" x1="314.956660734" x2="317.287717296" y1="527.046625153" y2="527.300756027" /><line stroke="rgb(0%,0%,0%)" x1="322.411713566" x2="319.262000548" y1="526.184314827" y2="527.106654291" /><line stroke="rgb(0%,0%,0%)" x1="340.246369385" x2="339.575545986" y1="520.89397799" y2="521.051305151" /><line stroke="rgb(0%,0%,0%)" x1="331.069477484" x2="339.575545986" y1="524.067703001" y2="521.051305151" /><line stroke="rgb(0%,0%,0%)" x1="322.411713566" x2="331.069477484" y1="526.184314827" y2="524.067703001" /><line stroke="rgb(0%,0%,0%)" x1="349.034855045" x2="350.648988147" y1="515.70694952" y2="514.505836247" /><line stroke="rgb(0%,0%,0%)" x1="350.648988147" x2="351.4776295" y1="514.505836247" y2="514.13258562" /><line stroke="rgb(0%,0%,0%)" x1="358.720540394" x2="359.054830307" y1="510.267790331" y2="509.858335062" /><line stroke="rgb(0%,0%,0%)" x1="284.411735821" x2="287.152906079" y1="523.825798788" y2="524.357641991" /><line stroke="rgb(0%,0%,0%)" x1="302.628760503" x2="300.274761913" y1="526.562912789" y2="526.539682852" /><line stroke="rgb(0%,0%,0%)" x1="294.212083072" x2="291.739730433" y1="523.756369416" y2="525.016086094" /><line stroke="rgb(0%,0%,0%)" x1="294.212083072" x2="296.91885347" y1="523.756369416" y2="525.838317158" /><line stroke="rgb(0%,0%,0%)" x1="296.91885347" x2="300.274761913" y1="525.838317158" y2="526.539682852" /><line stroke="rgb(0%,0%,0%)" x1="287.152906079" x2="291.739730433" y1="524.357641991" y2="525.016086094" /><line stroke="rgb(0%,0%,0%)" x1="302.628760503" x2="313.922969889" y1="526.562912789" y2="527.022086979" /><line stroke="rgb(0%,0%,0%)" x1="317.287717296" x2="319.262000548" y1="527.300756027" y2="527.106654291" /><line stroke="rgb(0%,0%,0%)" x1="235.0866232" x2="236.028371972" y1="512.301181671" y2="512.744463209" /><line stroke="rgb(0%,0%,0%)" x1="263.378570841" x2="254.803340027" y1="521.266863288" y2="519.327725365" /><line stroke="rgb(0%,0%,0%)" x1="248.051139714" x2="254.803340027" y1="517.545795849" y2="519.327725365" /><line stroke="rgb(0%,0%,0%)" x1="267.218985674" x2="279.682663522" y1="520.754735903" y2="523.023907289" /><line stroke="rgb(0%,0%,0%)" x1="263.378570841" x2="267.218985674" y1="521.266863288" y2="520.754735903" /><line stroke="rgb(0%,0%,0%)" x1="279.682663522" x2="284.411735821" y1="523.023907289" y2="523.825798788" /><line stroke="rgb(0%,0%,0%)" x1="198.062300798" x2="197.812169478" y1="464.419697831" y2="465.029952288" /><line stroke="rgb(0%,0%,0%)" x1="200.592092991" x2="200.587713096" y1="469.306420682" y2="470.508157265" /><line stroke="rgb(0%,0%,0%)" x1="198.60743103" x2="200.592092991" y1="465.795146653" y2="469.306420682" /><line stroke="rgb(0%,0%,0%)" x1="198.60743103" x2="197.812169478" y1="465.795146653" y2="465.029952288" /><line stroke="rgb(0%,0%,0%)" x1="217.687634355" x2="217.390237969" y1="499.518158572" y2="498.885306853" /><line stroke="rgb(0%,0%,0%)" x1="217.687634355" x2="218.507465891" y1="499.518158572" y2="500.073660703" /><line stroke="rgb(0%,0%,0%)" x1="215.962832064" x2="217.390237969" y1="497.551326498" y2="498.885306853" /><line stroke="rgb(0%,0%,0%)" x1="208.011633205" x2="215.962832064" y1="488.72945682" y2="497.551326498" /><line stroke="rgb(0%,0%,0%)" x1="206.274928426" x2="208.011633205" y1="485.502441042" y2="488.72945682" /><line stroke="rgb(0%,0%,0%)" x1="205.814102718" x2="206.274928426" y1="484.747261908" y2="485.502441042" /><line stroke="rgb(0%,0%,0%)" x1="205.814102718" x2="204.231690721" y1="484.747261908" y2="482.130199356" /><line stroke="rgb(0%,0%,0%)" x1="202.100101607" x2="204.231690721" y1="476.78512454" y2="482.130199356" /><line stroke="rgb(0%,0%,0%)" x1="201.298058341" x2="202.100101607" y1="474.241059038" y2="476.78512454" /><line stroke="rgb(0%,0%,0%)" x1="200.587713096" x2="201.298058341" y1="470.508157265" y2="474.241059038" /><line stroke="rgb(0%,0%,0%)" x1="235.0866232" x2="233.05229255" y1="512.301181671" y2="511.060288575" /><line stroke="rgb(0%,0%,0%)" x1="218.507465891" x2="233.05229255" y1="500.073660703" y2="511.060288575" /><line stroke="rgb(0%,0%,0%)" x1="241.905269585" x2="248.051139714" y1="515.233341852" y2="517.545795849" /><line stroke="rgb(0%,0%,0%)" x1="236.028371972" x2="241.905269585" y1="512.744463209" y2="515.233341852" /><line stroke="rgb(0%,0%,0%)" x1="198.062300798" x2="197.524379222" y1="464.419697831" y2="462.258523916" /><line stroke="rgb(0%,0%,0%)" x1="197.684432234" x2="197.524379222" y1="459.688605953" y2="462.258523916" /><line stroke="rgb(0%,0%,0%)" x1="197.684432234" x2="196.147408932" y1="459.688605953" y2="457.052462094" /><line stroke="rgb(0%,0%,0%)" x1="368.846370217" x2="368.823263192" y1="467.07921539" y2="463.595963936" /></svg>