<?xml version="1.0" encoding="utf-8" ?>
<svg baseProfile="full" height="100%" version="1.1" viewBox="0.5 0.5 685.793960571 941.299331665" width="100%" xmlns="http://www.w3.org/2000/svg" xmlns:ev="http://www.w3.org/2001/xml-events" xmlns:xlink="http://www.w3.org/1999/xlink"><defs /><line stroke="rgb(0%,0%,0%)" x1="356.605005703" x2="356.718242694" y1="463.750140143" y2="467.173016254" /><line stroke="rgb(0%,0%,0%)" x1="356.201485031" x2="359.536504864" y1="435.889590575" y2="444.523145963" /><line stroke="rgb(0%,0%,0%)" x1="356.201485031" x2="355.09792981" y1="435.889590575" y2="433.93013714" /><line stroke="rgb(0%,0%,0%)" x1="322.58678393" x2="318.191583878" y1="411.965158992" y2="410.168216535" /><line stroke="rgb(0%,0%,0%)" x1="335.599865546" x2="334.358546918" y1="417.471811987" y2="416.930096404" /><line stroke="rgb(0%,0%,0%)" x1="335.599865546" x2="337.050081565" y1="417.471811987" y2="418.315412883" /><line stroke="rgb(0%,0%,0%)" x1="346.807131735" x2="351.359034026" y1="426.672254336" y2="429.241732174" /><line stroke="rgb(0%,0%,0%)" x1="346.807131735" x2="341.941957227" y1="426.672254336" y2="422.38858465" /><line stroke="rgb(0%,0%,0%)" x1="337.766851465" x2="337.050081565" y1="419.025692806" y2="418.315412883" /><line stroke="rgb(0%,0%,0%)" x1="341.941957227" x2="337.766851465" y1="422.38858465" y2="419.025692806" /><line stroke="rgb(0%,0%,0%)" x1="356.605005703" x2="359.068688986" y1="463.750140143" y2="453.187192592" /><line stroke="rgb(0%,0%,0%)" x1="359.068688986" x2="359.998671598" y1="453.187192592" y2="446.335331389" /><line stroke="rgb(0%,0%,0%)" x1="359.998671598" x2="359.536504864" y1="446.335331389" y2="444.523145963" /><line stroke="rgb(0%,0%,0%)" x1="355.09792981" x2="351.359034026" y1="433.93013714" y2="429.241732174" /><line stroke="rgb(0%,0%,0%)" x1="289.860448818" x2="290.917870481" y1="405.227382736" y2="405.114897297" /><line stroke="rgb(0%,0%,0%)" x1="301.722880493" x2="296.357453746" y1="406.780612549" y2="406.040125302" /><line stroke="rgb(0%,0%,0%)" x1="310.531041596" x2="307.236315302" y1="407.638141764" y2="408.461581146" /><line stroke="rgb(0%,0%,0%)" x1="310.531041596" x2="315.48743062" y1="407.638141764" y2="409.228489475" /><line stroke="rgb(0%,0%,0%)" x1="307.236315302" x2="301.722880493" y1="408.461581146" y2="406.780612549" /><line stroke="rgb(0%,0%,0%)" x1="318.191583878" x2="315.48743062" y1="410.168216535" y2="409.228489475" /><line stroke="rgb(0%,0%,0%)" x1="334.358546918" x2="322.58678393" y1="416.930096404" y2="411.965158992" /><line stroke="rgb(0%,0%,0%)" x1="263.848066859" x2="262.368549993" y1="407.290870396" y2="406.7817156" /><line stroke="rgb(0%,0%,0%)" x1="263.848066859" x2="266.738597067" y1="407.290870396" y2="406.50007708" /><line stroke="rgb(0%,0%,0%)" x1="272.80687504" x2="266.738597067" y1="406.295105957" y2="406.50007708" /><line stroke="rgb(0%,0%,0%)" x1="286.020203451" x2="283.367522393" y1="406.151670408" y2="405.956317653" /><line stroke="rgb(0%,0%,0%)" x1="283.367522393" x2="281.52911356" y1="405.956317653" y2="406.576477512" /><line stroke="rgb(0%,0%,0%)" x1="281.52911356" x2="279.410285203" y1="406.576477512" y2="405.836740798" /><line stroke="rgb(0%,0%,0%)" x1="272.80687504" x2="279.410285203" y1="406.295105957" y2="405.836740798" /><line stroke="rgb(0%,0%,0%)" x1="289.860448818" x2="289.035572835" y1="405.227382736" y2="405.187456234" /><line stroke="rgb(0%,0%,0%)" x1="289.035572835" x2="286.020203451" y1="405.187456234" y2="406.151670408" /><line stroke="rgb(0%,0%,0%)" x1="296.357453746" x2="290.917870481" y1="406.040125302" y2="405.114897297" /><line stroke="rgb(0%,0%,0%)" x1="225.604745506" x2="226.856468548" y1="418.639592887" y2="417.772515641" /><line stroke="rgb(0%,0%,0%)" x1="237.271684372" x2="239.677375818" y1="412.635712757" y2="412.050412516" /><line stroke="rgb(0%,0%,0%)" x1="241.449819123" x2="239.677375818" y1="412.012232683" y2="412.050412516" /><line stroke="rgb(0%,0%,0%)" x1="241.449819123" x2="244.321198419" y1="412.012232683" y2="409.989737273" /><line stroke="rgb(0%,0%,0%)" x1="247.388343104" x2="244.321198419" y1="409.30747994" y2="409.989737273" /><line stroke="rgb(0%,0%,0%)" x1="262.368549993" x2="259.166809527" y1="406.7817156" y2="407.570586827" /><line stroke="rgb(0%,0%,0%)" x1="259.166809527" x2="247.388343104" y1="407.570586827" y2="409.30747994" /><line stroke="rgb(0%,0%,0%)" x1="209.534023021" x2="208.028217312" y1="463.263566649" y2="464.575840662" /><line stroke="rgb(0%,0%,0%)" x1="209.534023021" x2="206.958035406" y1="463.263566649" y2="454.386497037" /><line stroke="rgb(0%,0%,0%)" x1="210.819472595" x2="208.133586784" y1="440.787566025" y2="443.279940108" /><line stroke="rgb(0%,0%,0%)" x1="212.203471295" x2="210.819472595" y1="436.719440031" y2="440.787566025" /><line stroke="rgb(0%,0%,0%)" x1="213.40334034" x2="212.203471295" y1="434.58164369" y2="436.719440031" /><line stroke="rgb(0%,0%,0%)" x1="206.270742832" x2="206.958035406" y1="451.038427268" y2="454.386497037" /><line stroke="rgb(0%,0%,0%)" x1="206.447642391" x2="206.270742832" y1="449.963475909" y2="451.038427268" /><line stroke="rgb(0%,0%,0%)" x1="206.970787847" x2="206.447642391" y1="449.34328468" y2="449.963475909" /><line stroke="rgb(0%,0%,0%)" x1="206.970787847" x2="208.133586784" y1="449.34328468" y2="443.279940108" /><line stroke="rgb(0%,0%,0%)" x1="221.292743185" x2="213.40334034" y1="426.832098379" y2="434.58164369" /><line stroke="rgb(0%,0%,0%)" x1="222.751994677" x2="221.292743185" y1="420.821938977" y2="426.832098379" /><line stroke="rgb(0%,0%,0%)" x1="224.808836818" x2="222.751994677" y1="418.92947707" y2="420.821938977" /><line stroke="rgb(0%,0%,0%)" x1="225.604745506" x2="224.808836818" y1="418.639592887" y2="418.92947707" /><line stroke="rgb(0%,0%,0%)" x1="237.271684372" x2="226.856468548" y1="412.635712757" y2="417.772515641" /><line stroke="rgb(0%,0%,0%)" x1="350.469730988" x2="351.75138038" y1="505.538092223" y2="504.854207994" /><line stroke="rgb(0%,0%,0%)" x1="357.761722137" x2="357.447836506" y1="497.454936401" y2="497.876899129" /><line stroke="rgb(0%,0%,0%)" x1="357.761722137" x2="357.901871206" y1="497.454936401" y2="497.099134922" /><line stroke="rgb(0%,0%,0%)" x1="357.901871206" x2="358.680662958" y1="497.099134922" y2="495.009963146" /><line stroke="rgb(0%,0%,0%)" x1="335.762340154" x2="335.962873653" y1="514.128661571" y2="514.019884121" /><line stroke="rgb(0%,0%,0%)" x1="335.762340154" x2="335.498818035" y1="514.128661571" y2="514.188928898" /><line stroke="rgb(0%,0%,0%)" x1="344.123511859" x2="343.025359076" y1="508.396663386" y2="509.213823929" /><line stroke="rgb(0%,0%,0%)" x1="335.962873653" x2="343.025359076" y1="514.019884121" y2="509.213823929" /><line stroke="rgb(0%,0%,0%)" x1="344.123511859" x2="350.469730988" y1="508.396663386" y2="505.538092223" /><line stroke="rgb(0%,0%,0%)" x1="351.75138038" x2="357.447836506" y1="504.854207994" y2="497.876899129" /><line stroke="rgb(0%,0%,0%)" x1="358.680662958" x2="360.147946245" y1="495.009963146" y2="485.491914335" /><line stroke="rgb(0%,0%,0%)" x1="357.74876034" x2="356.400181815" y1="479.336749203" y2="475.983535568" /><line stroke="rgb(0%,0%,0%)" x1="360.147946245" x2="357.74876034" y1="485.491914335" y2="479.336749203" /><line stroke="rgb(0%,0%,0%)" x1="356.560054472" x2="356.400181815" y1="472.581017725" y2="475.983535568" /><line stroke="rgb(0%,0%,0%)" x1="356.560054472" x2="356.718242694" y1="472.581017725" y2="467.173016254" /><line stroke="rgb(0%,0%,0%)" x1="301.97445832" x2="299.001170378" y1="516.52728818" y2="515.598408349" /><line stroke="rgb(0%,0%,0%)" x1="301.97445832" x2="306.400867085" y1="516.52728818" y2="515.958374723" /><line stroke="rgb(0%,0%,0%)" x1="313.654332666" x2="309.264576399" y1="517.027019178" y2="515.95914454" /><line stroke="rgb(0%,0%,0%)" x1="296.05608867" x2="299.001170378" y1="515.41339429" y2="515.598408349" /><line stroke="rgb(0%,0%,0%)" x1="306.400867085" x2="309.264576399" y1="515.958374723" y2="515.95914454" /><line stroke="rgb(0%,0%,0%)" x1="322.288646523" x2="329.094097999" y1="517.205671804" y2="515.342073472" /><line stroke="rgb(0%,0%,0%)" x1="318.992166582" x2="322.288646523" y1="516.048987669" y2="517.205671804" /><line stroke="rgb(0%,0%,0%)" x1="313.654332666" x2="316.616902371" y1="517.027019178" y2="516.707555078" /><line stroke="rgb(0%,0%,0%)" x1="316.616902371" x2="318.992166582" y1="516.707555078" y2="516.048987669" /><line stroke="rgb(0%,0%,0%)" x1="329.094097999" x2="335.498818035" y1="515.342073472" y2="514.188928898" /><line stroke="rgb(0%,0%,0%)" x1="288.489371066" x2="287.712097865" y1="513.964911846" y2="513.844850303" /><line stroke="rgb(0%,0%,0%)" x1="288.489371066" x2="296.05608867" y1="513.964911846" y2="515.41339429" /><line stroke="rgb(0%,0%,0%)" x1="263.100460744" x2="257.074735137" y1="509.120241313" y2="508.108099186" /><line stroke="rgb(0%,0%,0%)" x1="272.411949586" x2="266.791369513" y1="510.437034919" y2="509.782559149" /><line stroke="rgb(0%,0%,0%)" x1="272.411949586" x2="278.809851976" y1="510.437034919" y2="511.608915401" /><line stroke="rgb(0%,0%,0%)" x1="287.712097865" x2="285.328797862" y1="513.844850303" y2="513.197626468" /><line stroke="rgb(0%,0%,0%)" x1="279.345129157" x2="285.328797862" y1="511.678099816" y2="513.197626468" /><line stroke="rgb(0%,0%,0%)" x1="278.809851976" x2="279.345129157" y1="511.608915401" y2="511.678099816" /><line stroke="rgb(0%,0%,0%)" x1="213.754729122" x2="214.79032073" y1="479.62771202" y2="480.630098419" /><line stroke="rgb(0%,0%,0%)" x1="213.145182173" x2="213.754729122" y1="478.099240128" y2="479.62771202" /><line stroke="rgb(0%,0%,0%)" x1="211.264151177" x2="213.145182173" y1="472.132646716" y2="478.099240128" /><line stroke="rgb(0%,0%,0%)" x1="211.264151177" x2="210.958220347" y1="472.132646716" y2="470.524964053" /><line stroke="rgb(0%,0%,0%)" x1="210.57453217" x2="210.958220347" y1="466.719516414" y2="470.524964053" /><line stroke="rgb(0%,0%,0%)" x1="210.57453217" x2="208.028217312" y1="466.719516414" y2="464.575840662" /><line stroke="rgb(0%,0%,0%)" x1="232.227994928" x2="235.322863075" y1="498.909171358" y2="500.7227876" /><line stroke="rgb(0%,0%,0%)" x1="232.227994928" x2="228.403813899" y1="498.909171358" y2="495.82288644" /><line stroke="rgb(0%,0%,0%)" x1="228.297198335" x2="228.403813899" y1="495.657175743" y2="495.82288644" /><line stroke="rgb(0%,0%,0%)" x1="218.810897581" x2="227.900884858" y1="485.728524357" y2="495.425654416" /><line stroke="rgb(0%,0%,0%)" x1="214.79032073" x2="218.810897581" y1="480.630098419" y2="485.728524357" /><line stroke="rgb(0%,0%,0%)" x1="243.94407282" x2="253.29123742" y1="504.301749794" y2="506.854067583" /><line stroke="rgb(0%,0%,0%)" x1="235.322863075" x2="237.241552892" y1="500.7227876" y2="501.53126365" /><line stroke="rgb(0%,0%,0%)" x1="237.241552892" x2="243.94407282" y1="501.53126365" y2="504.301749794" /><line stroke="rgb(0%,0%,0%)" x1="228.021687713" x2="228.297198335" y1="495.494636896" y2="495.657175743" /><line stroke="rgb(0%,0%,0%)" x1="227.900884858" x2="228.021687713" y1="495.425654416" y2="495.494636896" /><line stroke="rgb(0%,0%,0%)" x1="253.29123742" x2="257.074735137" y1="506.854067583" y2="508.108099186" /><line stroke="rgb(0%,0%,0%)" x1="263.100460744" x2="263.943758473" y1="509.120241313" y2="508.89281129" /><line stroke="rgb(0%,0%,0%)" x1="263.943758473" x2="266.791369513" y1="508.89281129" y2="509.782559149" /></svg>