<?xml version="1.0" encoding="utf-8" ?>
<svg baseProfile="full" height="100%" version="1.1" viewBox="0.5 0.5 685.793960571 941.299331665" width="100%" xmlns="http://www.w3.org/2000/svg" xmlns:ev="http://www.w3.org/2001/xml-events" xmlns:xlink="http://www.w3.org/1999/xlink"><defs /><line stroke="rgb(0%,0%,0%)" x1="351.970971039" x2="351.996222975" y1="466.48763277" y2="467.25093678" /><line stroke="rgb(0%,0%,0%)" x1="322.045466881" x2="319.297031432" y1="414.939742877" y2="413.816066983" /><line stroke="rgb(0%,0%,0%)" x1="347.15251701" x2="349.122512874" y1="430.219641733" y2="431.331673668" /><line stroke="rgb(0%,0%,0%)" x1="347.15251701" x2="341.130202736" y1="430.219641733" y2="424.917138184" /><line stroke="rgb(0%,0%,0%)" x1="337.724956166" x2="335.880644608" y1="422.174339182" y2="420.870462139" /><line stroke="rgb(0%,0%,0%)" x1="341.130202736" x2="337.724956166" y1="424.917138184" y2="422.174339182" /><line stroke="rgb(0%,0%,0%)" x1="351.970971039" x2="356.158732781" y1="466.48763277" y2="448.532764976" /><line stroke="rgb(0%,0%,0%)" x1="356.158732781" x2="356.416989821" y1="448.532764976" y2="446.629996719" /><line stroke="rgb(0%,0%,0%)" x1="356.416989821" x2="355.097486359" y1="446.629996719" y2="441.456138959" /><line stroke="rgb(0%,0%,0%)" x1="355.097486359" x2="353.008234955" y1="441.456138959" y2="436.204192121" /><line stroke="rgb(0%,0%,0%)" x1="349.122512874" x2="353.008234955" y1="431.331673668" y2="436.204192121" /><line stroke="rgb(0%,0%,0%)" x1="304.194536602" x2="294.645545223" y1="411.416320151" y2="410.098455484" /><line stroke="rgb(0%,0%,0%)" x1="307.273266537" x2="310.443040419" y1="412.354981534" y2="411.56277107" /><line stroke="rgb(0%,0%,0%)" x1="307.273266537" x2="304.194536602" y1="412.354981534" y2="411.416320151" /><line stroke="rgb(0%,0%,0%)" x1="313.247384451" x2="310.443040419" y1="411.713739035" y2="411.56277107" /><line stroke="rgb(0%,0%,0%)" x1="319.297031432" x2="313.247384451" y1="413.816066983" y2="411.713739035" /><line stroke="rgb(0%,0%,0%)" x1="335.880644608" x2="335.441369101" y1="420.870462139" y2="420.589688103" /><line stroke="rgb(0%,0%,0%)" x1="322.045466881" x2="335.441369101" y1="414.939742877" y2="420.589688103" /><line stroke="rgb(0%,0%,0%)" x1="273.599858484" x2="266.034329485" y1="409.532414868" y2="409.787959355" /><line stroke="rgb(0%,0%,0%)" x1="266.034329485" x2="263.953635567" y1="409.787959355" y2="409.954688519" /><line stroke="rgb(0%,0%,0%)" x1="289.123063667" x2="283.284053689" y1="410.158046359" y2="409.728041144" /><line stroke="rgb(0%,0%,0%)" x1="283.284053689" x2="279.237397766" y1="409.728041144" y2="411.093120296" /><line stroke="rgb(0%,0%,0%)" x1="279.237397766" x2="274.57348995" y1="411.093120296" y2="409.464831797" /><line stroke="rgb(0%,0%,0%)" x1="273.599858484" x2="274.57348995" y1="409.532414868" y2="409.464831797" /><line stroke="rgb(0%,0%,0%)" x1="289.123063667" x2="291.162264268" y1="410.158046359" y2="409.505978279" /><line stroke="rgb(0%,0%,0%)" x1="294.645545223" x2="291.162264268" y1="410.098455484" y2="409.505978279" /><line stroke="rgb(0%,0%,0%)" x1="238.657135166" x2="239.426846591" y1="415.014917165" y2="414.827647811" /><line stroke="rgb(0%,0%,0%)" x1="242.275457534" x2="239.426846591" y1="414.766286475" y2="414.827647811" /><line stroke="rgb(0%,0%,0%)" x1="242.275457534" x2="243.227478251" y1="414.766286475" y2="414.095717619" /><line stroke="rgb(0%,0%,0%)" x1="251.953643039" x2="243.227478251" y1="412.154664774" y2="414.095717619" /><line stroke="rgb(0%,0%,0%)" x1="258.255020197" x2="263.459953783" y1="411.225442056" y2="409.943007584" /><line stroke="rgb(0%,0%,0%)" x1="258.255020197" x2="251.953643039" y1="411.225442056" y2="412.154664774" /><line stroke="rgb(0%,0%,0%)" x1="263.953635567" x2="263.733472559" y1="409.954688519" y2="410.048617598" /><line stroke="rgb(0%,0%,0%)" x1="263.733472559" x2="263.459953783" y1="410.048617598" y2="409.943007584" /><line stroke="rgb(0%,0%,0%)" x1="213.674081562" x2="213.24461858" y1="464.701554282" y2="465.075821099" /><line stroke="rgb(0%,0%,0%)" x1="213.674081562" x2="212.939397588" y1="464.701554282" y2="462.16977162" /><line stroke="rgb(0%,0%,0%)" x1="214.737217501" x2="213.509857709" y1="442.797211573" y2="443.936142992" /><line stroke="rgb(0%,0%,0%)" x1="214.737217501" x2="216.461006319" y1="442.797211573" y2="437.730306455" /><line stroke="rgb(0%,0%,0%)" x1="210.83210482" x2="212.939397588" y1="451.904327944" y2="462.16977162" /><line stroke="rgb(0%,0%,0%)" x1="211.374492699" x2="210.83210482" y1="448.608443034" y2="451.904327944" /><line stroke="rgb(0%,0%,0%)" x1="212.978497568" x2="211.374492699" y1="446.706888237" y2="448.608443034" /><line stroke="rgb(0%,0%,0%)" x1="212.978497568" x2="213.509857709" y1="446.706888237" y2="443.936142992" /><line stroke="rgb(0%,0%,0%)" x1="216.635782979" x2="216.461006319" y1="436.868563711" y2="437.730306455" /><line stroke="rgb(0%,0%,0%)" x1="217.135662888" x2="216.635782979" y1="436.137819722" y2="436.868563711" /><line stroke="rgb(0%,0%,0%)" x1="227.493080762" x2="218.734198035" y1="426.055924353" y2="434.659536047" /><line stroke="rgb(0%,0%,0%)" x1="227.493080762" x2="228.551305952" y1="426.055924353" y2="421.697455568" /><line stroke="rgb(0%,0%,0%)" x1="218.734198035" x2="217.777231224" y1="434.659536047" y2="435.606650802" /><line stroke="rgb(0%,0%,0%)" x1="217.777231224" x2="217.135662888" y1="435.606650802" y2="436.137819722" /><line stroke="rgb(0%,0%,0%)" x1="233.273179693" x2="228.551305952" y1="417.670293536" y2="421.697455568" /><line stroke="rgb(0%,0%,0%)" x1="238.657135166" x2="233.273179693" y1="415.014917165" y2="417.670293536" /><line stroke="rgb(0%,0%,0%)" x1="341.718601994" x2="342.285642012" y1="506.194093464" y2="505.888418676" /><line stroke="rgb(0%,0%,0%)" x1="349.163542446" x2="342.285642012" y1="501.961419131" y2="505.888418676" /><line stroke="rgb(0%,0%,0%)" x1="351.878696383" x2="351.664996973" y1="477.127763869" y2="476.398367719" /><line stroke="rgb(0%,0%,0%)" x1="351.664996973" x2="351.762854704" y1="476.398367719" y2="475.22912844" /><line stroke="rgb(0%,0%,0%)" x1="352.934455121" x2="349.163542446" y1="496.300690723" y2="501.961419131" /><line stroke="rgb(0%,0%,0%)" x1="352.934455121" x2="353.558285834" y1="496.300690723" y2="495.180408554" /><line stroke="rgb(0%,0%,0%)" x1="353.558285834" x2="354.479924025" y1="495.180408554" y2="493.460920293" /><line stroke="rgb(0%,0%,0%)" x1="355.567412385" x2="354.479924025" y1="486.406544784" y2="493.460920293" /><line stroke="rgb(0%,0%,0%)" x1="354.215451932" x2="351.878696383" y1="482.938059986" y2="477.127763869" /><line stroke="rgb(0%,0%,0%)" x1="355.567412385" x2="354.215451932" y1="486.406544784" y2="482.938059986" /><line stroke="rgb(0%,0%,0%)" x1="351.996222975" x2="351.762854704" y1="467.25093678" y2="475.22912844" /><line stroke="rgb(0%,0%,0%)" x1="301.888316643" x2="301.464016844" y1="513.104966796" y2="512.972412018" /><line stroke="rgb(0%,0%,0%)" x1="301.888316643" x2="302.519982458" y1="513.104966796" y2="513.023780625" /><line stroke="rgb(0%,0%,0%)" x1="313.211671126" x2="310.726402003" y1="513.630565981" y2="513.025986659" /><line stroke="rgb(0%,0%,0%)" x1="295.73792761" x2="301.464016844" y1="512.612691263" y2="512.972412018" /><line stroke="rgb(0%,0%,0%)" x1="302.519982458" x2="310.726402003" y1="513.023780625" y2="513.025986659" /><line stroke="rgb(0%,0%,0%)" x1="322.674643074" x2="325.415924075" y1="514.133474726" y2="513.382804955" /><line stroke="rgb(0%,0%,0%)" x1="318.149504555" x2="322.674643074" y1="512.545673185" y2="514.133474726" /><line stroke="rgb(0%,0%,0%)" x1="313.211671126" x2="314.888935777" y1="513.630565981" y2="513.449700753" /><line stroke="rgb(0%,0%,0%)" x1="314.888935777" x2="318.149504555" y1="513.449700753" y2="512.545673185" /><line stroke="rgb(0%,0%,0%)" x1="325.415924075" x2="328.318278235" y1="513.382804955" y2="512.860247539" /><line stroke="rgb(0%,0%,0%)" x1="328.318278235" x2="340.015099783" y1="512.860247539" y2="507.139751231" /><line stroke="rgb(0%,0%,0%)" x1="340.015099783" x2="341.489663211" y1="507.139751231" y2="506.433151624" /><line stroke="rgb(0%,0%,0%)" x1="341.489663211" x2="341.718601994" y1="506.433151624" y2="506.194093464" /><line stroke="rgb(0%,0%,0%)" x1="295.73792761" x2="292.162432251" y1="512.612691263" y2="511.928240947" /><line stroke="rgb(0%,0%,0%)" x1="287.958766269" x2="292.162432251" y1="511.461825685" y2="511.928240947" /><line stroke="rgb(0%,0%,0%)" x1="261.375365926" x2="257.880414181" y1="506.215177645" y2="505.628130023" /><line stroke="rgb(0%,0%,0%)" x1="273.161304547" x2="269.526467332" y1="508.101108449" y2="507.677858027" /><line stroke="rgb(0%,0%,0%)" x1="273.161304547" x2="277.298837223" y1="508.101108449" y2="508.858965241" /><line stroke="rgb(0%,0%,0%)" x1="280.150767886" x2="285.87265267" y1="509.227576425" y2="510.680624189" /><line stroke="rgb(0%,0%,0%)" x1="285.87265267" x2="287.958766269" y1="510.680624189" y2="511.461825685" /><line stroke="rgb(0%,0%,0%)" x1="277.298837223" x2="280.150767886" y1="508.858965241" y2="509.227576425" /><line stroke="rgb(0%,0%,0%)" x1="214.586182122" x2="215.372961911" y1="471.429842608" y2="473.925492663" /><line stroke="rgb(0%,0%,0%)" x1="214.586182122" x2="214.508898281" y1="471.429842608" y2="471.023711946" /><line stroke="rgb(0%,0%,0%)" x1="213.970839742" x2="214.508898281" y1="465.687207664" y2="471.023711946" /><line stroke="rgb(0%,0%,0%)" x1="213.970839742" x2="213.24461858" y1="465.687207664" y2="465.075821099" /><line stroke="rgb(0%,0%,0%)" x1="238.893070954" x2="239.562515774" y1="498.312890579" y2="499.353396897" /><line stroke="rgb(0%,0%,0%)" x1="222.55840212" x2="229.788358466" y1="485.281169515" y2="492.994032567" /><line stroke="rgb(0%,0%,0%)" x1="222.55840212" x2="217.558407696" y1="485.281169515" y2="478.940760612" /><line stroke="rgb(0%,0%,0%)" x1="215.372961911" x2="217.558407696" y1="473.925492663" y2="478.940760612" /><line stroke="rgb(0%,0%,0%)" x1="244.382863833" x2="247.662368485" y1="501.345887431" y2="502.241382313" /><line stroke="rgb(0%,0%,0%)" x1="244.382863833" x2="239.562515774" y1="501.345887431" y2="499.353396897" /><line stroke="rgb(0%,0%,0%)" x1="232.563624328" x2="238.893070954" y1="494.578802402" y2="498.312890579" /><line stroke="rgb(0%,0%,0%)" x1="229.788358466" x2="232.563624328" y1="492.994032567" y2="494.578802402" /><line stroke="rgb(0%,0%,0%)" x1="247.662368485" x2="257.880414181" y1="502.241382313" y2="505.628130023" /><line stroke="rgb(0%,0%,0%)" x1="261.375365926" x2="263.237727132" y1="506.215177645" y2="505.712915115" /><line stroke="rgb(0%,0%,0%)" x1="263.237727132" x2="269.526467332" y1="505.712915115" y2="507.677858027" /></svg>