<?xml version="1.0" encoding="utf-8" ?>
<svg baseProfile="full" height="100%" version="1.1" viewBox="0.5 0.5 685.793960571 941.299331665" width="100%" xmlns="http://www.w3.org/2000/svg" xmlns:ev="http://www.w3.org/2001/xml-events" xmlns:xlink="http://www.w3.org/1999/xlink"><defs /><line stroke="rgb(0%,0%,0%)" x1="321.774808357" x2="319.849755209" y1="416.42703482" y2="415.639992207" /><line stroke="rgb(0%,0%,0%)" x1="347.773687688" x2="348.342272917" y1="462.964492812" y2="461.14086421" /><line stroke="rgb(0%,0%,0%)" x1="344.640256486" x2="340.86762685" y1="429.629298449" y2="426.902666963" /><line stroke="rgb(0%,0%,0%)" x1="347.325209647" x2="348.004252298" y1="431.993335431" y2="432.376644415" /><line stroke="rgb(0%,0%,0%)" x1="347.325209647" x2="344.640256486" y1="431.993335431" y2="429.629298449" /><line stroke="rgb(0%,0%,0%)" x1="334.449404522" x2="339.238249399" y1="422.488437439" y2="425.874017751" /><line stroke="rgb(0%,0%,0%)" x1="349.324431124" x2="347.773687688" y1="467.151631449" y2="462.964492812" /><line stroke="rgb(0%,0%,0%)" x1="348.342272917" x2="354.084044271" y1="461.14086421" y2="447.648316329" /><line stroke="rgb(0%,0%,0%)" x1="354.084044271" x2="354.21035524" y1="447.648316329" y2="446.25075531" /><line stroke="rgb(0%,0%,0%)" x1="354.21035524" x2="352.713055675" y1="446.25075531" y2="442.526202181" /><line stroke="rgb(0%,0%,0%)" x1="349.343631263" x2="352.713055675" y1="434.056164615" y2="442.526202181" /><line stroke="rgb(0%,0%,0%)" x1="348.004252298" x2="349.343631263" y1="432.376644415" y2="434.056164615" /><line stroke="rgb(0%,0%,0%)" x1="305.430364657" x2="293.789590962" y1="413.734173952" y2="412.127620574" /><line stroke="rgb(0%,0%,0%)" x1="307.291742154" x2="309.208164153" y1="414.301681727" y2="413.822717102" /><line stroke="rgb(0%,0%,0%)" x1="307.291742154" x2="305.430364657" y1="414.301681727" y2="413.734173952" /><line stroke="rgb(0%,0%,0%)" x1="315.6124747" x2="309.208164153" y1="414.167484263" y2="413.822717102" /><line stroke="rgb(0%,0%,0%)" x1="319.849755209" x2="315.6124747" y1="415.639992207" y2="414.167484263" /><line stroke="rgb(0%,0%,0%)" x1="334.449404522" x2="331.157536896" y1="422.488437439" y2="420.3843571" /><line stroke="rgb(0%,0%,0%)" x1="321.774808357" x2="331.157536896" y1="416.42703482" y2="420.3843571" /><line stroke="rgb(0%,0%,0%)" x1="340.86762685" x2="340.450182241" y1="426.902666963" y2="427.129014846" /><line stroke="rgb(0%,0%,0%)" x1="340.450182241" x2="339.238249399" y1="427.129014846" y2="425.874017751" /><line stroke="rgb(0%,0%,0%)" x1="266.027459698" x2="273.746070881" y1="412.452832298" y2="411.834328259" /><line stroke="rgb(0%,0%,0%)" x1="290.674493774" x2="283.242319337" y1="412.161234334" y2="411.61390289" /><line stroke="rgb(0%,0%,0%)" x1="283.242319337" x2="278.091539869" y1="411.61390289" y2="413.351441687" /><line stroke="rgb(0%,0%,0%)" x1="278.091539869" x2="273.746070881" y1="413.351441687" y2="411.834328259" /><line stroke="rgb(0%,0%,0%)" x1="290.674493774" x2="291.824757111" y1="412.161234334" y2="411.79341863" /><line stroke="rgb(0%,0%,0%)" x1="293.789590962" x2="291.824757111" y1="412.127620574" y2="411.79341863" /><line stroke="rgb(0%,0%,0%)" x1="242.773511727" x2="242.739127618" y1="416.128044498" y2="416.153203752" /><line stroke="rgb(0%,0%,0%)" x1="254.236293007" x2="242.773511727" y1="413.578257192" y2="416.128044498" /><line stroke="rgb(0%,0%,0%)" x1="257.799125533" x2="260.742022968" y1="413.05286967" y2="412.327774325" /><line stroke="rgb(0%,0%,0%)" x1="257.799125533" x2="254.236293007" y1="413.05286967" y2="413.578257192" /><line stroke="rgb(0%,0%,0%)" x1="266.027459698" x2="263.670359051" y1="412.452832298" y2="413.458452153" /><line stroke="rgb(0%,0%,0%)" x1="263.670359051" x2="260.742022968" y1="413.458452153" y2="412.327774325" /><line stroke="rgb(0%,0%,0%)" x1="216.696089954" x2="216.197993171" y1="443.802034347" y2="444.264244434" /><line stroke="rgb(0%,0%,0%)" x1="216.696089954" x2="217.395651461" y1="443.802034347" y2="441.745743146" /><line stroke="rgb(0%,0%,0%)" x1="213.112785814" x2="215.544458535" y1="452.337278281" y2="464.182903029" /><line stroke="rgb(0%,0%,0%)" x1="213.837917853" x2="213.112785814" y1="447.930926597" y2="452.337278281" /><line stroke="rgb(0%,0%,0%)" x1="215.982352428" x2="213.837917853" y1="445.388690015" y2="447.930926597" /><line stroke="rgb(0%,0%,0%)" x1="215.982352428" x2="216.197993171" y1="445.388690015" y2="444.264244434" /><line stroke="rgb(0%,0%,0%)" x1="218.045271137" x2="217.395651461" y1="438.542769473" y2="441.745743146" /><line stroke="rgb(0%,0%,0%)" x1="219.903252767" x2="218.045271137" y1="435.826699306" y2="438.542769473" /><line stroke="rgb(0%,0%,0%)" x1="230.59324955" x2="225.844777689" y1="425.66783734" y2="430.332131784" /><line stroke="rgb(0%,0%,0%)" x1="230.59324955" x2="231.16694744" y1="425.66783734" y2="423.304971318" /><line stroke="rgb(0%,0%,0%)" x1="215.544458535" x2="215.716722211" y1="464.182903029" y2="465.161428662" /><line stroke="rgb(0%,0%,0%)" x1="225.844777689" x2="222.287869873" y1="430.332131784" y2="433.852420928" /><line stroke="rgb(0%,0%,0%)" x1="222.287869873" x2="219.903252767" y1="433.852420928" y2="435.826699306" /><line stroke="rgb(0%,0%,0%)" x1="231.16694744" x2="239.069435394" y1="423.304971318" y2="416.565147005" /><line stroke="rgb(0%,0%,0%)" x1="242.739127618" x2="242.628605012" y1="416.153203752" y2="416.193086509" /><line stroke="rgb(0%,0%,0%)" x1="239.069435394" x2="242.628605012" y1="416.565147005" y2="416.193086509" /><line stroke="rgb(0%,0%,0%)" x1="339.255580187" x2="343.21729771" y1="504.181040504" y2="502.04539377" /><line stroke="rgb(0%,0%,0%)" x1="347.629091266" x2="343.21729771" y1="499.526440281" y2="502.04539377" /><line stroke="rgb(0%,0%,0%)" x1="351.017064912" x2="348.787386728" y1="481.178740255" y2="473.568430596" /><line stroke="rgb(0%,0%,0%)" x1="348.787386728" x2="349.324431124" y1="473.568430596" y2="467.151631449" /><line stroke="rgb(0%,0%,0%)" x1="350.047923641" x2="347.629091266" y1="495.895395407" y2="499.526440281" /><line stroke="rgb(0%,0%,0%)" x1="350.047923641" x2="351.082448495" y1="495.895395407" y2="494.037584109" /><line stroke="rgb(0%,0%,0%)" x1="351.082448495" x2="352.610840084" y1="494.037584109" y2="491.186084008" /><line stroke="rgb(0%,0%,0%)" x1="353.277145455" x2="352.610840084" y1="486.863860008" y2="491.186084008" /><line stroke="rgb(0%,0%,0%)" x1="352.448797728" x2="351.017064912" y1="484.738715377" y2="481.178740255" /><line stroke="rgb(0%,0%,0%)" x1="353.277145455" x2="352.448797728" y1="486.863860008" y2="484.738715377" /><line stroke="rgb(0%,0%,0%)" x1="312.990340356" x2="311.457314804" y1="511.932339382" y2="511.559407719" /><line stroke="rgb(0%,0%,0%)" x1="295.578847081" x2="297.880340916" y1="511.21233975" y2="511.356922739" /><line stroke="rgb(0%,0%,0%)" x1="311.457314804" x2="305.026314341" y1="511.559407719" y2="511.557678949" /><line stroke="rgb(0%,0%,0%)" x1="322.867641349" x2="323.576837112" y1="512.597376187" y2="512.403170696" /><line stroke="rgb(0%,0%,0%)" x1="317.728173542" x2="322.867641349" y1="510.794015942" y2="512.597376187" /><line stroke="rgb(0%,0%,0%)" x1="312.990340356" x2="314.02495248" y1="511.932339382" y2="511.820773591" /><line stroke="rgb(0%,0%,0%)" x1="314.02495248" x2="317.728173542" y1="511.820773591" y2="510.794015942" /><line stroke="rgb(0%,0%,0%)" x1="323.576837112" x2="324.327704052" y1="512.403170696" y2="512.267980066" /><line stroke="rgb(0%,0%,0%)" x1="324.327704052" x2="327.353784298" y1="512.267980066" y2="510.788032646" /><line stroke="rgb(0%,0%,0%)" x1="327.353784298" x2="337.65606206" y1="510.788032646" y2="505.851259311" /><line stroke="rgb(0%,0%,0%)" x1="337.65606206" x2="339.255580187" y1="505.851259311" y2="504.181040504" /><line stroke="rgb(0%,0%,0%)" x1="295.578847081" x2="294.566563166" y1="511.21233975" y2="511.018560154" /><line stroke="rgb(0%,0%,0%)" x1="294.566563166" x2="292.74726124" y1="511.018560154" y2="510.81670059" /><line stroke="rgb(0%,0%,0%)" x1="287.736076446" x2="292.74726124" y1="509.787837308" y2="510.81670059" /><line stroke="rgb(0%,0%,0%)" x1="297.880340916" x2="301.227556748" y1="511.356922739" y2="511.137986425" /><line stroke="rgb(0%,0%,0%)" x1="302.729270336" x2="305.026314341" y1="511.346124935" y2="511.557678949" /><line stroke="rgb(0%,0%,0%)" x1="301.227556748" x2="302.729270336" y1="511.137986425" y2="511.346124935" /><line stroke="rgb(0%,0%,0%)" x1="260.512818518" x2="258.283253703" y1="504.762645811" y2="504.388145441" /><line stroke="rgb(0%,0%,0%)" x1="273.535982028" x2="270.894016241" y1="506.933145213" y2="506.625507466" /><line stroke="rgb(0%,0%,0%)" x1="273.535982028" x2="276.543329847" y1="506.933145213" y2="507.483990162" /><line stroke="rgb(0%,0%,0%)" x1="280.55358725" x2="284.811315817" y1="508.00231473" y2="509.083546388" /><line stroke="rgb(0%,0%,0%)" x1="284.811315817" x2="286.801668342" y1="509.083546388" y2="509.828887568" /><line stroke="rgb(0%,0%,0%)" x1="276.543329847" x2="280.55358725" y1="507.483990162" y2="508.00231473" /><line stroke="rgb(0%,0%,0%)" x1="244.191007263" x2="244.2411568" y1="499.640747996" y2="499.718694541" /><line stroke="rgb(0%,0%,0%)" x1="224.432154389" x2="230.73209527" y1="485.057492093" y2="491.778221642" /><line stroke="rgb(0%,0%,0%)" x1="224.432154389" x2="220.075327353" y1="485.057492093" y2="479.532672947" /><line stroke="rgb(0%,0%,0%)" x1="220.075327353" x2="216.686579972" y1="479.532672947" y2="471.756009601" /><line stroke="rgb(0%,0%,0%)" x1="216.516254389" x2="215.84054897" y1="471.024751976" y2="465.267230679" /><line stroke="rgb(0%,0%,0%)" x1="244.602259339" x2="244.847934017" y1="499.86795625" y2="499.935039678" /><line stroke="rgb(0%,0%,0%)" x1="244.602259339" x2="244.2411568" y1="499.86795625" y2="499.718694541" /><line stroke="rgb(0%,0%,0%)" x1="234.834592636" x2="244.191007263" y1="494.120885155" y2="499.640747996" /><line stroke="rgb(0%,0%,0%)" x1="230.73209527" x2="234.834592636" y1="491.778221642" y2="494.120885155" /><line stroke="rgb(0%,0%,0%)" x1="216.516254389" x2="216.686579972" y1="471.024751976" y2="471.756009601" /><line stroke="rgb(0%,0%,0%)" x1="244.847934017" x2="258.283253703" y1="499.935039678" y2="504.388145441" /><line stroke="rgb(0%,0%,0%)" x1="260.512818518" x2="262.884711462" y1="504.762645811" y2="504.122967028" /><line stroke="rgb(0%,0%,0%)" x1="262.884711462" x2="270.894016241" y1="504.122967028" y2="506.625507466" /><line stroke="rgb(0%,0%,0%)" x1="215.716722211" x2="215.84054897" y1="465.161428662" y2="465.267230679" /><line stroke="rgb(0%,0%,0%)" x1="286.801668342" x2="287.736076446" y1="509.828887568" y2="509.787837308" /></svg>