<?xml version="1.0" encoding="utf-8" ?>
<svg baseProfile="full" height="100%" version="1.1" viewBox="0.5 0.5 685.793960571 941.299331665" width="100%" xmlns="http://www.w3.org/2000/svg" xmlns:ev="http://www.w3.org/2001/xml-events" xmlns:xlink="http://www.w3.org/1999/xlink"><defs /><line stroke="rgb(0%,0%,0%)" x1="312.342531784" x2="306.88410247" y1="438.954492249" y2="437.066778286" /><line stroke="rgb(0%,0%,0%)" x1="291.516946373" x2="298.462729967" y1="434.120777634" y2="434.720753821" /><line stroke="rgb(0%,0%,0%)" x1="321.077416199" x2="318.333376391" y1="449.265415066" y2="442.447916459" /><line stroke="rgb(0%,0%,0%)" x1="312.342531784" x2="318.333376391" y1="438.954492249" y2="442.447916459" /><line stroke="rgb(0%,0%,0%)" x1="318.179500043" x2="318.35563357" y1="458.82762666" y2="457.990405232" /><line stroke="rgb(0%,0%,0%)" x1="318.35563357" x2="321.901980578" y1="457.990405232" y2="452.421847209" /><line stroke="rgb(0%,0%,0%)" x1="321.901980578" x2="322.464599765" y1="452.421847209" y2="451.046623705" /><line stroke="rgb(0%,0%,0%)" x1="322.464599765" x2="321.077416199" y1="451.046623705" y2="449.265415066" /><line stroke="rgb(0%,0%,0%)" x1="268.768837118" x2="253.031229025" y1="435.733024459" y2="438.15151863" /><line stroke="rgb(0%,0%,0%)" x1="268.768837118" x2="270.055371057" y1="435.733024459" y2="434.584366905" /><line stroke="rgb(0%,0%,0%)" x1="274.003712302" x2="270.055371057" y1="432.375499528" y2="434.584366905" /><line stroke="rgb(0%,0%,0%)" x1="279.202913838" x2="274.003712302" y1="432.715053763" y2="432.375499528" /><line stroke="rgb(0%,0%,0%)" x1="290.918538574" x2="279.202913838" y1="434.326257381" y2="432.715053763" /><line stroke="rgb(0%,0%,0%)" x1="291.516946373" x2="290.918538574" y1="434.120777634" y2="434.326257381" /><line stroke="rgb(0%,0%,0%)" x1="306.88410247" x2="298.462729967" y1="437.066778286" y2="434.720753821" /><line stroke="rgb(0%,0%,0%)" x1="239.778193224" x2="238.606954896" y1="463.553849197" y2="451.93276772" /><line stroke="rgb(0%,0%,0%)" x1="238.230307623" x2="238.606954896" y1="447.775467212" y2="451.93276772" /><line stroke="rgb(0%,0%,0%)" x1="247.737169919" x2="238.230307623" y1="441.104963749" y2="447.775467212" /><line stroke="rgb(0%,0%,0%)" x1="251.18274949" x2="247.737169919" y1="438.776533212" y2="441.104963749" /><line stroke="rgb(0%,0%,0%)" x1="252.382069407" x2="251.18274949" y1="438.214280128" y2="438.776533212" /><line stroke="rgb(0%,0%,0%)" x1="253.031229025" x2="252.382069407" y1="438.15151863" y2="438.214280128" /><line stroke="rgb(0%,0%,0%)" x1="289.045074845" x2="295.515287141" y1="491.7450092" y2="490.836420194" /><line stroke="rgb(0%,0%,0%)" x1="295.515287141" x2="299.006945211" y1="490.836420194" y2="490.272069592" /><line stroke="rgb(0%,0%,0%)" x1="306.211242678" x2="308.250787081" y1="487.37484793" y2="487.722448801" /><line stroke="rgb(0%,0%,0%)" x1="299.006945211" x2="304.242832336" y1="490.272069592" y2="488.508666353" /><line stroke="rgb(0%,0%,0%)" x1="304.242832336" x2="306.211242678" y1="488.508666353" y2="487.37484793" /><line stroke="rgb(0%,0%,0%)" x1="308.250787081" x2="314.995678462" y1="487.722448801" y2="485.013830355" /><line stroke="rgb(0%,0%,0%)" x1="317.69564648" x2="314.995678462" y1="478.633839328" y2="485.013830355" /><line stroke="rgb(0%,0%,0%)" x1="317.69564648" x2="317.787183753" y1="478.633839328" y2="473.158588541" /><line stroke="rgb(0%,0%,0%)" x1="316.834427078" x2="317.787183753" y1="467.380838281" y2="473.158588541" /><line stroke="rgb(0%,0%,0%)" x1="289.045074845" x2="286.416237232" y1="491.7450092" y2="491.73616569" /><line stroke="rgb(0%,0%,0%)" x1="241.430890863" x2="241.315105006" y1="465.853624735" y2="464.867041652" /><line stroke="rgb(0%,0%,0%)" x1="244.259783665" x2="248.557024969" y1="475.958368985" y2="480.830964103" /><line stroke="rgb(0%,0%,0%)" x1="241.430890863" x2="242.88849744" y1="465.853624735" y2="472.111556772" /><line stroke="rgb(0%,0%,0%)" x1="242.88849744" x2="244.259783665" y1="472.111556772" y2="475.958368985" /><line stroke="rgb(0%,0%,0%)" x1="268.745581216" x2="268.682113064" y1="487.673298384" y2="487.654874663" /><line stroke="rgb(0%,0%,0%)" x1="268.745581216" x2="268.875854046" y1="487.673298384" y2="487.733505258" /><line stroke="rgb(0%,0%,0%)" x1="268.682113064" x2="267.987264911" y1="487.654874663" y2="487.53400817" /><line stroke="rgb(0%,0%,0%)" x1="255.572200755" x2="267.987264911" y1="484.732995248" y2="487.53400817" /><line stroke="rgb(0%,0%,0%)" x1="248.557024969" x2="255.572200755" y1="480.830964103" y2="484.732995248" /><line stroke="rgb(0%,0%,0%)" x1="268.875854046" x2="282.640939149" y1="487.733505258" y2="492.050285261" /><line stroke="rgb(0%,0%,0%)" x1="241.315105006" x2="239.778193224" y1="464.867041652" y2="463.553849197" /><line stroke="rgb(0%,0%,0%)" x1="282.640939149" x2="286.416237232" y1="492.050285261" y2="491.73616569" /><line stroke="rgb(0%,0%,0%)" x1="316.834427078" x2="318.179500043" y1="467.380838281" y2="458.82762666" /></svg>