<?xml version="1.0" encoding="utf-8" ?>
<svg baseProfile="full" height="100%" version="1.1" viewBox="0.5 0.5 685.793960571 941.299331665" width="100%" xmlns="http://www.w3.org/2000/svg" xmlns:ev="http://www.w3.org/2001/xml-events" xmlns:xlink="http://www.w3.org/1999/xlink"><defs /><line stroke="rgb(0%,0%,0%)" x1="302.455011852" x2="302.490922629" y1="454.257116011" y2="454.35221455" /><line stroke="rgb(0%,0%,0%)" x1="302.455011852" x2="302.32401948" y1="454.257116011" y2="454.221585381" /><line stroke="rgb(0%,0%,0%)" x1="291.816102757" x2="280.432865603" y1="447.483914503" y2="448.50251085" /><line stroke="rgb(0%,0%,0%)" x1="296.939403894" x2="292.599990845" y1="452.170768481" y2="447.994073991" /><line stroke="rgb(0%,0%,0%)" x1="280.432865603" x2="280.042434516" y1="448.50251085" y2="448.164734259" /><line stroke="rgb(0%,0%,0%)" x1="294.878434477" x2="302.052179718" y1="467.445135075" y2="455.47924442" /><line stroke="rgb(0%,0%,0%)" x1="302.490922629" x2="302.052179718" y1="454.35221455" y2="455.47924442" /><line stroke="rgb(0%,0%,0%)" x1="301.94748615" x2="294.977295452" y1="454.052180099" y2="456.332766034" /><line stroke="rgb(0%,0%,0%)" x1="294.977295452" x2="296.939403894" y1="456.332766034" y2="452.170768481" /><line stroke="rgb(0%,0%,0%)" x1="302.32401948" x2="301.94748615" y1="454.221585381" y2="454.052180099" /><line stroke="rgb(0%,0%,0%)" x1="292.051485669" x2="292.599990845" y1="447.565747729" y2="447.994073991" /><line stroke="rgb(0%,0%,0%)" x1="292.051485669" x2="291.816102757" y1="447.565747729" y2="447.483914503" /><line stroke="rgb(0%,0%,0%)" x1="267.955789566" x2="268.400075287" y1="456.692261776" y2="464.985123164" /><line stroke="rgb(0%,0%,0%)" x1="275.130768138" x2="267.955789566" y1="450.429621286" y2="456.692261776" /><line stroke="rgb(0%,0%,0%)" x1="280.042434516" x2="275.130768138" y1="448.164734259" y2="450.429621286" /><line stroke="rgb(0%,0%,0%)" x1="286.135618909" x2="289.603188773" y1="474.39902945" y2="476.115983567" /><line stroke="rgb(0%,0%,0%)" x1="289.603188773" x2="292.573730127" y1="476.115983567" y2="470.487818485" /><line stroke="rgb(0%,0%,0%)" x1="286.135618909" x2="282.76706499" y1="474.39902945" y2="474.888026788" /><line stroke="rgb(0%,0%,0%)" x1="282.76706499" x2="274.500483528" y1="474.888026788" y2="469.863362814" /><line stroke="rgb(0%,0%,0%)" x1="268.400075287" x2="271.85353986" y1="464.985123164" y2="466.854374805" /><line stroke="rgb(0%,0%,0%)" x1="271.85353986" x2="274.500483528" y1="466.854374805" y2="469.863362814" /><line stroke="rgb(0%,0%,0%)" x1="292.573730127" x2="294.878434477" y1="470.487818485" y2="467.445135075" /></svg>