<?xml version="1.0" encoding="utf-8" ?>
<svg baseProfile="full" height="100%" version="1.1" viewBox="0.5 0.5 685.793960571 941.299331665" width="100%" xmlns="http://www.w3.org/2000/svg" xmlns:ev="http://www.w3.org/2001/xml-events" xmlns:xlink="http://www.w3.org/1999/xlink"><defs /><line stroke="rgb(0%,0%,0%)" x1="664.583331571" x2="662.961197738" y1="384.966351442" y2="376.589818608" /><line stroke="rgb(0%,0%,0%)" x1="671.837954606" x2="671.936230891" y1="429.688131505" y2="430.411083009" /><line stroke="rgb(0%,0%,0%)" x1="664.583331571" x2="666.782206756" y1="384.966351442" y2="390.902399919" /><line stroke="rgb(0%,0%,0%)" x1="662.961197738" x2="663.020896847" y1="376.589818608" y2="376.249714363" /><line stroke="rgb(0%,0%,0%)" x1="662.774037453" x2="662.585889043" y1="375.821489834" y2="374.112108881" /><line stroke="rgb(0%,0%,0%)" x1="667.294064884" x2="667.916618154" y1="398.504167966" y2="403.300819623" /><line stroke="rgb(0%,0%,0%)" x1="611.744525452" x2="616.336075355" y1="235.006300543" y2="243.693060001" /><line stroke="rgb(0%,0%,0%)" x1="627.821616726" x2="624.544237226" y1="269.310106652" y2="260.016136815" /><line stroke="rgb(0%,0%,0%)" x1="622.624325092" x2="624.544237226" y1="256.484684111" y2="260.016136815" /><line stroke="rgb(0%,0%,0%)" x1="622.624325092" x2="621.165075978" y1="256.484684111" y2="252.665695334" /><line stroke="rgb(0%,0%,0%)" x1="634.496713724" x2="635.877206011" y1="283.942809631" y2="287.933899041" /><line stroke="rgb(0%,0%,0%)" x1="634.496713724" x2="634.294017573" y1="283.942809631" y2="283.215623801" /><line stroke="rgb(0%,0%,0%)" x1="634.294017573" x2="629.659158756" y1="283.215623801" y2="272.833037997" /><line stroke="rgb(0%,0%,0%)" x1="629.659158756" x2="627.821616726" y1="272.833037997" y2="269.310106652" /><line stroke="rgb(0%,0%,0%)" x1="643.770273283" x2="647.716652163" y1="314.175501459" y2="326.313766072" /><line stroke="rgb(0%,0%,0%)" x1="662.774037453" x2="663.020896847" y1="375.821489834" y2="376.249714363" /><line stroke="rgb(0%,0%,0%)" x1="662.585889043" x2="660.746341456" y1="374.112108881" y2="365.41763179" /><line stroke="rgb(0%,0%,0%)" x1="660.746341456" x2="659.386321004" y1="365.41763179" y2="360.853416434" /><line stroke="rgb(0%,0%,0%)" x1="659.386321004" x2="656.312717164" y1="360.853416434" y2="352.28635359" /><line stroke="rgb(0%,0%,0%)" x1="651.482556536" x2="653.213876215" y1="337.981775572" y2="343.934588355" /><line stroke="rgb(0%,0%,0%)" x1="674.457241876" x2="674.036010263" y1="451.763251932" y2="442.153665185" /><line stroke="rgb(0%,0%,0%)" x1="674.036010263" x2="673.171289331" y1="442.153665185" y2="440.239988364" /><line stroke="rgb(0%,0%,0%)" x1="673.171289331" x2="671.936230891" y1="440.239988364" y2="430.411083009" /><line stroke="rgb(0%,0%,0%)" x1="671.837954606" x2="670.687140088" y1="429.688131505" y2="421.188698392" /><line stroke="rgb(0%,0%,0%)" x1="670.278795478" x2="668.563044957" y1="417.52196922" y2="408.025176808" /><line stroke="rgb(0%,0%,0%)" x1="668.563044957" x2="667.806223941" y1="408.025176808" y2="405.539706613" /><line stroke="rgb(0%,0%,0%)" x1="667.806223941" x2="667.916618154" y1="405.539706613" y2="403.300819623" /><line stroke="rgb(0%,0%,0%)" x1="667.294064884" x2="667.501969899" y1="398.504167966" y2="394.702216602" /><line stroke="rgb(0%,0%,0%)" x1="577.146452576" x2="577.163496495" y1="187.402435177" y2="187.42098905" /><line stroke="rgb(0%,0%,0%)" x1="577.146452576" x2="576.84591332" y1="187.402435177" y2="187.139711261" /><line stroke="rgb(0%,0%,0%)" x1="597.934507931" x2="598.961424731" y1="213.379888699" y2="214.944816263" /><line stroke="rgb(0%,0%,0%)" x1="597.934507931" x2="596.873611737" y1="213.379888699" y2="211.648981629" /><line stroke="rgb(0%,0%,0%)" x1="611.744525452" x2="608.746484861" y1="235.006300543" y2="228.884458585" /><line stroke="rgb(0%,0%,0%)" x1="621.165075978" x2="618.496012179" y1="252.665695334" y2="247.718561855" /><line stroke="rgb(0%,0%,0%)" x1="642.901031013" x2="642.115973097" y1="310.783157074" y2="308.527405344" /><line stroke="rgb(0%,0%,0%)" x1="642.115973097" x2="635.877206011" y1="308.527405344" y2="287.933899041" /><line stroke="rgb(0%,0%,0%)" x1="656.312717164" x2="653.213876215" y1="352.28635359" y2="343.934588355" /><line stroke="rgb(0%,0%,0%)" x1="667.501969899" x2="666.847870706" y1="394.702216602" y2="392.509170638" /><line stroke="rgb(0%,0%,0%)" x1="666.847870706" x2="666.782206756" y1="392.509170638" y2="390.902399919" /><line stroke="rgb(0%,0%,0%)" x1="577.163496495" x2="577.186490817" y1="187.42098905" y2="187.462108768" /><line stroke="rgb(0%,0%,0%)" x1="587.43253368" x2="591.865761071" y1="202.688679297" y2="206.60207196" /><line stroke="rgb(0%,0%,0%)" x1="587.43253368" x2="584.45265442" y1="202.688679297" y2="200.521759578" /><line stroke="rgb(0%,0%,0%)" x1="604.432014817" x2="598.961424731" y1="221.971329165" y2="214.944816263" /><line stroke="rgb(0%,0%,0%)" x1="596.873611737" x2="593.637116142" y1="211.648981629" y2="208.458722827" /><line stroke="rgb(0%,0%,0%)" x1="608.746484861" x2="604.432014817" y1="228.884458585" y2="221.971329165" /><line stroke="rgb(0%,0%,0%)" x1="618.496012179" x2="616.336075355" y1="247.718561855" y2="243.693060001" /><line stroke="rgb(0%,0%,0%)" x1="651.482556536" x2="650.111551329" y1="337.981775572" y2="335.153094185" /><line stroke="rgb(0%,0%,0%)" x1="650.111551329" x2="648.730304921" y1="335.153094185" y2="331.74392549" /><line stroke="rgb(0%,0%,0%)" x1="648.730304921" x2="648.11550837" y1="331.74392549" y2="327.402068949" /><line stroke="rgb(0%,0%,0%)" x1="648.11550837" x2="647.716652163" y1="327.402068949" y2="326.313766072" /><line stroke="rgb(0%,0%,0%)" x1="643.770273283" x2="642.901031013" y1="314.175501459" y2="310.783157074" /><line stroke="rgb(0%,0%,0%)" x1="558.341169401" x2="567.398196552" y1="176.641227743" y2="179.254845698" /><line stroke="rgb(0%,0%,0%)" x1="582.805430338" x2="577.186490817" y1="199.083931953" y2="187.462108768" /><line stroke="rgb(0%,0%,0%)" x1="584.45265442" x2="582.805430338" y1="200.521759578" y2="199.083931953" /><line stroke="rgb(0%,0%,0%)" x1="593.637116142" x2="591.865761071" y1="208.458722827" y2="206.60207196" /><line stroke="rgb(0%,0%,0%)" x1="496.615793496" x2="516.33584067" y1="154.009880304" y2="159.671355203" /><line stroke="rgb(0%,0%,0%)" x1="496.615793496" x2="482.503115321" y1="154.009880304" y2="148.139407008" /><line stroke="rgb(0%,0%,0%)" x1="520.917894463" x2="540.886456217" y1="161.435711289" y2="168.8779769" /><line stroke="rgb(0%,0%,0%)" x1="541.829550126" x2="540.886456217" y1="169.132914303" y2="168.8779769" /><line stroke="rgb(0%,0%,0%)" x1="558.341169401" x2="556.504586673" y1="176.641227743" y2="175.813959099" /><line stroke="rgb(0%,0%,0%)" x1="556.504586673" x2="542.493375299" y1="175.813959099" y2="169.562811616" /><line stroke="rgb(0%,0%,0%)" x1="542.493375299" x2="541.829550126" y1="169.562811616" y2="169.132914303" /><line stroke="rgb(0%,0%,0%)" x1="567.6239564" x2="567.398196552" y1="179.286327289" y2="179.254845698" /><line stroke="rgb(0%,0%,0%)" x1="576.84591332" x2="567.6239564" y1="187.139711261" y2="179.286327289" /><line stroke="rgb(0%,0%,0%)" x1="464.764367829" x2="461.404308068" y1="143.673838647" y2="143.521392496" /><line stroke="rgb(0%,0%,0%)" x1="461.404308068" x2="456.471434943" y1="143.521392496" y2="142.020264905" /><line stroke="rgb(0%,0%,0%)" x1="470.896791984" x2="481.093042947" y1="145.714959441" y2="147.58920218" /><line stroke="rgb(0%,0%,0%)" x1="438.445364959" x2="444.31655892" y1="136.626419518" y2="138.49712071" /><line stroke="rgb(0%,0%,0%)" x1="456.471434943" x2="444.31655892" y1="142.020264905" y2="138.49712071" /><line stroke="rgb(0%,0%,0%)" x1="470.896791984" x2="464.764367829" y1="145.714959441" y2="143.673838647" /><line stroke="rgb(0%,0%,0%)" x1="482.503115321" x2="481.093042947" y1="148.139407008" y2="147.58920218" /><line stroke="rgb(0%,0%,0%)" x1="520.917894463" x2="516.33584067" y1="161.435711289" y2="159.671355203" /><line stroke="rgb(0%,0%,0%)" x1="418.091647365" x2="412.385751356" y1="131.734011042" y2="130.923031081" /><line stroke="rgb(0%,0%,0%)" x1="409.388689057" x2="412.385751356" y1="130.296827726" y2="130.923031081" /><line stroke="rgb(0%,0%,0%)" x1="409.388689057" x2="405.774986221" y1="130.296827726" y2="131.042033577" /><line stroke="rgb(0%,0%,0%)" x1="418.091647365" x2="424.290135657" y1="131.734011042" y2="133.44474467" /><line stroke="rgb(0%,0%,0%)" x1="438.445364959" x2="425.466453001" y1="136.626419518" y2="133.698362297" /><line stroke="rgb(0%,0%,0%)" x1="425.466453001" x2="425.069875392" y1="133.698362297" y2="133.552976121" /><line stroke="rgb(0%,0%,0%)" x1="386.456644184" x2="381.820878782" y1="133.253373635" y2="135.151536795" /><line stroke="rgb(0%,0%,0%)" x1="386.456644184" x2="392.97153886" y1="133.253373635" y2="131.952158679" /><line stroke="rgb(0%,0%,0%)" x1="405.774986221" x2="402.147125761" y1="131.042033577" y2="131.017652811" /><line stroke="rgb(0%,0%,0%)" x1="397.094607464" x2="402.147125761" y1="130.982594645" y2="131.017652811" /><line stroke="rgb(0%,0%,0%)" x1="425.069875392" x2="424.290135657" y1="133.552976121" y2="133.44474467" /><line stroke="rgb(0%,0%,0%)" x1="315.917191735" x2="315.856620822" y1="244.208843555" y2="244.256768695" /><line stroke="rgb(0%,0%,0%)" x1="337.036527133" x2="337.776372867" y1="156.099735496" y2="155.818715132" /><line stroke="rgb(0%,0%,0%)" x1="337.036527133" x2="336.354334505" y1="156.099735496" y2="156.54171737" /><line stroke="rgb(0%,0%,0%)" x1="345.976808576" x2="345.904590477" y1="151.465959127" y2="151.469069203" /><line stroke="rgb(0%,0%,0%)" x1="345.904590477" x2="337.776372867" y1="151.469069203" y2="155.818715132" /><line stroke="rgb(0%,0%,0%)" x1="345.976808576" x2="346.108288448" y1="151.465959127" y2="151.381572126" /><line stroke="rgb(0%,0%,0%)" x1="362.773333152" x2="365.258287081" y1="147.265607705" y2="146.73470109" /><line stroke="rgb(0%,0%,0%)" x1="362.773333152" x2="357.711823795" y1="147.265607705" y2="148.805496414" /><line stroke="rgb(0%,0%,0%)" x1="357.711823795" x2="353.890068658" y1="148.805496414" y2="148.33016029" /><line stroke="rgb(0%,0%,0%)" x1="368.589825697" x2="365.258287081" y1="146.953129835" y2="146.73470109" /><line stroke="rgb(0%,0%,0%)" x1="369.134320582" x2="368.589825697" y1="144.995840494" y2="146.953129835" /><line stroke="rgb(0%,0%,0%)" x1="372.073470456" x2="369.134320582" y1="144.124052001" y2="144.995840494" /><line stroke="rgb(0%,0%,0%)" x1="372.073470456" x2="374.636554025" y1="144.124052001" y2="142.534556501" /><line stroke="rgb(0%,0%,0%)" x1="376.206400564" x2="374.636554025" y1="140.59434185" y2="142.534556501" /><line stroke="rgb(0%,0%,0%)" x1="378.838047537" x2="376.206400564" y1="136.978739106" y2="140.59434185" /><line stroke="rgb(0%,0%,0%)" x1="381.820878782" x2="378.838047537" y1="135.151536795" y2="136.978739106" /><line stroke="rgb(0%,0%,0%)" x1="397.094607464" x2="392.97153886" y1="130.982594645" y2="131.952158679" /><line stroke="rgb(0%,0%,0%)" x1="315.917191735" x2="316.039784133" y1="244.208843555" y2="244.149106835" /><line stroke="rgb(0%,0%,0%)" x1="315.856620822" x2="304.900220301" y1="244.256768695" y2="254.430065884" /><line stroke="rgb(0%,0%,0%)" x1="330.874310909" x2="329.850599688" y1="233.968736506" y2="234.967596194" /><line stroke="rgb(0%,0%,0%)" x1="329.850599688" x2="327.714090429" y1="234.967596194" y2="238.420404068" /><line stroke="rgb(0%,0%,0%)" x1="327.714090429" x2="324.733759394" y1="238.420404068" y2="239.704622705" /><line stroke="rgb(0%,0%,0%)" x1="330.918515186" x2="330.874310909" y1="233.57888827" y2="233.968736506" /><line stroke="rgb(0%,0%,0%)" x1="330.918515186" x2="330.831561789" y1="233.57888827" y2="232.501086852" /><line stroke="rgb(0%,0%,0%)" x1="330.831561789" x2="326.678338149" y1="232.501086852" y2="220.025128231" /><line stroke="rgb(0%,0%,0%)" x1="324.756772898" x2="321.802108385" y1="182.790897077" y2="198.456581052" /><line stroke="rgb(0%,0%,0%)" x1="327.085598598" x2="324.756772898" y1="174.6188934" y2="182.790897077" /><line stroke="rgb(0%,0%,0%)" x1="329.52604483" x2="327.085598598" y1="168.771342466" y2="174.6188934" /><line stroke="rgb(0%,0%,0%)" x1="329.52604483" x2="331.42344808" y1="168.771342466" y2="165.832469033" /><line stroke="rgb(0%,0%,0%)" x1="336.354334505" x2="331.42344808" y1="156.54171737" y2="165.832469033" /><line stroke="rgb(0%,0%,0%)" x1="353.890068658" x2="346.108288448" y1="148.33016029" y2="151.381572126" /><line stroke="rgb(0%,0%,0%)" x1="257.534267792" x2="259.813008135" y1="347.243797035" y2="345.643125611" /><line stroke="rgb(0%,0%,0%)" x1="279.826870141" x2="279.447806052" y1="399.171876629" y2="399.575184842" /><line stroke="rgb(0%,0%,0%)" x1="279.826870141" x2="281.163440058" y1="399.171876629" y2="397.379213177" /><line stroke="rgb(0%,0%,0%)" x1="286.94375737" x2="281.163440058" y1="389.410242583" y2="397.379213177" /><line stroke="rgb(0%,0%,0%)" x1="286.94375737" x2="287.973020749" y1="389.410242583" y2="386.417838909" /><line stroke="rgb(0%,0%,0%)" x1="304.900220301" x2="301.192020836" y1="254.430065884" y2="258.397453601" /><line stroke="rgb(0%,0%,0%)" x1="324.733759394" x2="316.039784133" y1="239.704622705" y2="244.149106835" /><line stroke="rgb(0%,0%,0%)" x1="323.763750182" x2="324.016502151" y1="210.43666711" y2="211.24108358" /><line stroke="rgb(0%,0%,0%)" x1="324.016502151" x2="326.678338149" y1="211.24108358" y2="220.025128231" /><line stroke="rgb(0%,0%,0%)" x1="323.763750182" x2="321.800056382" y1="210.43666711" y2="198.471865899" /><line stroke="rgb(0%,0%,0%)" x1="321.802108385" x2="321.800056382" y1="198.456581052" y2="198.471865899" /><line stroke="rgb(0%,0%,0%)" x1="264.958299384" x2="261.211819057" y1="376.601548591" y2="378.308238615" /><line stroke="rgb(0%,0%,0%)" x1="250.726311596" x2="249.791158369" y1="351.332757255" y2="352.061943093" /><line stroke="rgb(0%,0%,0%)" x1="257.534267792" x2="250.726311596" y1="347.243797035" y2="351.332757255" /><line stroke="rgb(0%,0%,0%)" x1="261.082779867" x2="257.568429445" y1="331.370903283" y2="330.602627734" /><line stroke="rgb(0%,0%,0%)" x1="257.568429445" x2="255.827306617" y1="330.602627734" y2="326.611219174" /><line stroke="rgb(0%,0%,0%)" x1="256.41853577" x2="256.976388352" y1="444.487548459" y2="443.047599128" /><line stroke="rgb(0%,0%,0%)" x1="261.225804774" x2="256.976388352" y1="437.63121516" y2="443.047599128" /><line stroke="rgb(0%,0%,0%)" x1="261.625772157" x2="261.225804774" y1="434.715251074" y2="437.63121516" /><line stroke="rgb(0%,0%,0%)" x1="263.238000709" x2="261.625772157" y1="427.600884875" y2="434.715251074" /><line stroke="rgb(0%,0%,0%)" x1="264.655265982" x2="263.238000709" y1="424.038513785" y2="427.600884875" /><line stroke="rgb(0%,0%,0%)" x1="264.5421809" x2="264.664983086" y1="418.945920778" y2="417.583447217" /><line stroke="rgb(0%,0%,0%)" x1="264.5421809" x2="264.655265982" y1="418.945920778" y2="424.038513785" /><line stroke="rgb(0%,0%,0%)" x1="264.664983086" x2="265.351864649" y1="417.583447217" y2="416.19875465" /><line stroke="rgb(0%,0%,0%)" x1="264.958299384" x2="266.511467745" y1="376.601548591" y2="376.187994111" /><line stroke="rgb(0%,0%,0%)" x1="264.129462485" x2="268.31854048" y1="343.02956116" y2="338.695839379" /><line stroke="rgb(0%,0%,0%)" x1="269.984204641" x2="268.758600395" y1="335.732266174" y2="338.383666299" /><line stroke="rgb(0%,0%,0%)" x1="270.310767444" x2="269.984204641" y1="334.076214218" y2="335.732266174" /><line stroke="rgb(0%,0%,0%)" x1="268.57129138" x2="270.310767444" y1="333.763328048" y2="334.076214218" /><line stroke="rgb(0%,0%,0%)" x1="268.57129138" x2="265.896944723" y1="333.763328048" y2="333.677959947" /><line stroke="rgb(0%,0%,0%)" x1="261.082779867" x2="265.896944723" y1="331.370903283" y2="333.677959947" /><line stroke="rgb(0%,0%,0%)" x1="276.921718821" x2="272.269989407" y1="402.782436301" y2="406.901967608" /><line stroke="rgb(0%,0%,0%)" x1="279.447806052" x2="276.921718821" y1="399.575184842" y2="402.782436301" /><line stroke="rgb(0%,0%,0%)" x1="283.538133847" x2="278.854394584" y1="284.010464737" y2="288.409297197" /><line stroke="rgb(0%,0%,0%)" x1="286.660963291" x2="283.538133847" y1="280.627198108" y2="284.010464737" /><line stroke="rgb(0%,0%,0%)" x1="276.957913155" x2="263.499177961" y1="290.792026824" y2="303.469644612" /><line stroke="rgb(0%,0%,0%)" x1="278.854394584" x2="276.957913155" y1="288.409297197" y2="290.792026824" /><line stroke="rgb(0%,0%,0%)" x1="289.216056245" x2="287.973020749" y1="380.641426901" y2="386.417838909" /><line stroke="rgb(0%,0%,0%)" x1="289.216056245" x2="288.900709387" y1="380.641426901" y2="378.207989347" /><line stroke="rgb(0%,0%,0%)" x1="289.236122948" x2="288.900709387" y1="376.641839636" y2="378.207989347" /><line stroke="rgb(0%,0%,0%)" x1="289.236122948" x2="287.958274819" y1="376.641839636" y2="375.563183684" /><line stroke="rgb(0%,0%,0%)" x1="287.595052464" x2="287.958274819" y1="374.332411681" y2="375.563183684" /><line stroke="rgb(0%,0%,0%)" x1="284.025260201" x2="287.543209549" y1="373.616411853" y2="373.922912325" /><line stroke="rgb(0%,0%,0%)" x1="287.543209549" x2="287.595052464" y1="373.922912325" y2="374.332411681" /><line stroke="rgb(0%,0%,0%)" x1="286.660963291" x2="291.328373245" y1="280.627198108" y2="273.173236819" /><line stroke="rgb(0%,0%,0%)" x1="293.644660722" x2="291.328373245" y1="269.513408381" y2="273.173236819" /><line stroke="rgb(0%,0%,0%)" x1="301.192020836" x2="293.644660722" y1="258.397453601" y2="269.513408381" /><line stroke="rgb(0%,0%,0%)" x1="227.453338938" x2="247.317735079" y1="397.472727852" y2="384.873592481" /><line stroke="rgb(0%,0%,0%)" x1="241.467231784" x2="232.719807311" y1="357.66253614" y2="365.219617957" /><line stroke="rgb(0%,0%,0%)" x1="244.448840142" x2="245.051244496" y1="355.0782889" y2="354.745275345" /><line stroke="rgb(0%,0%,0%)" x1="256.41853577" x2="253.663777388" y1="444.487548459" y2="451.992484271" /><line stroke="rgb(0%,0%,0%)" x1="251.31412814" x2="247.317735079" y1="381.756878048" y2="384.873592481" /><line stroke="rgb(0%,0%,0%)" x1="251.31412814" x2="261.211819057" y1="381.756878048" y2="378.308238615" /><line stroke="rgb(0%,0%,0%)" x1="249.791158369" x2="245.051244496" y1="352.061943093" y2="354.745275345" /><line stroke="rgb(0%,0%,0%)" x1="255.233340366" x2="255.827306617" y1="325.456298453" y2="326.611219174" /><line stroke="rgb(0%,0%,0%)" x1="256.786647246" x2="255.311897971" y1="318.266667113" y2="324.796851955" /><line stroke="rgb(0%,0%,0%)" x1="268.933910867" x2="265.351864649" y1="410.473903582" y2="416.19875465" /><line stroke="rgb(0%,0%,0%)" x1="264.129462485" x2="259.813008135" y1="343.02956116" y2="345.643125611" /><line stroke="rgb(0%,0%,0%)" x1="268.758600395" x2="268.31854048" y1="338.383666299" y2="338.695839379" /><line stroke="rgb(0%,0%,0%)" x1="259.250336822" x2="263.499177961" y1="312.524416191" y2="303.469644612" /><line stroke="rgb(0%,0%,0%)" x1="272.269989407" x2="268.933910867" y1="406.901967608" y2="410.473903582" /><line stroke="rgb(0%,0%,0%)" x1="266.511467745" x2="276.188158981" y1="376.187994111" y2="374.15683185" /><line stroke="rgb(0%,0%,0%)" x1="276.188158981" x2="282.246371608" y1="374.15683185" y2="373.460499385" /><line stroke="rgb(0%,0%,0%)" x1="282.246371608" x2="284.025260201" y1="373.460499385" y2="373.616411853" /><line stroke="rgb(0%,0%,0%)" x1="219.684727055" x2="219.065475002" y1="403.784989301" y2="403.775814733" /><line stroke="rgb(0%,0%,0%)" x1="219.684727055" x2="220.652638032" y1="403.784989301" y2="403.49768712" /><line stroke="rgb(0%,0%,0%)" x1="219.065475002" x2="218.407040787" y1="403.775814733" y2="403.520036646" /><line stroke="rgb(0%,0%,0%)" x1="215.932480082" x2="218.407040787" y1="402.108684305" y2="403.520036646" /><line stroke="rgb(0%,0%,0%)" x1="215.939707956" x2="216.588048111" y1="401.304275679" y2="395.760749689" /><line stroke="rgb(0%,0%,0%)" x1="215.939707956" x2="215.932480082" y1="401.304275679" y2="402.108684305" /><line stroke="rgb(0%,0%,0%)" x1="219.828298" x2="216.879737352" y1="385.981245627" y2="394.232014077" /><line stroke="rgb(0%,0%,0%)" x1="216.879737352" x2="216.588048111" y1="394.232014077" y2="395.760749689" /><line stroke="rgb(0%,0%,0%)" x1="223.354362815" x2="222.040441826" y1="376.950253547" y2="378.721510607" /><line stroke="rgb(0%,0%,0%)" x1="222.040441826" x2="220.924049975" y1="378.721510607" y2="381.936368466" /><line stroke="rgb(0%,0%,0%)" x1="223.354362815" x2="223.978358959" y1="376.950253547" y2="375.818927675" /><line stroke="rgb(0%,0%,0%)" x1="220.652638032" x2="224.477350273" y1="403.49768712" y2="399.974648155" /><line stroke="rgb(0%,0%,0%)" x1="227.453338938" x2="224.477350273" y1="397.472727852" y2="399.974648155" /><line stroke="rgb(0%,0%,0%)" x1="226.80739943" x2="223.978358959" y1="372.447261331" y2="375.818927675" /><line stroke="rgb(0%,0%,0%)" x1="219.862081402" x2="219.828298" y1="385.625902191" y2="385.981245627" /><line stroke="rgb(0%,0%,0%)" x1="226.80739943" x2="231.228330496" y1="372.447261331" y2="366.714271613" /><line stroke="rgb(0%,0%,0%)" x1="220.924049975" x2="219.862081402" y1="381.936368466" y2="385.625902191" /><line stroke="rgb(0%,0%,0%)" x1="232.719807311" x2="231.228330496" y1="365.219617957" y2="366.714271613" /><line stroke="rgb(0%,0%,0%)" x1="244.448840142" x2="241.467231784" y1="355.0782889" y2="357.66253614" /><line stroke="rgb(0%,0%,0%)" x1="255.311897971" x2="255.233340366" y1="324.796851955" y2="325.456298453" /><line stroke="rgb(0%,0%,0%)" x1="257.368000143" x2="256.786647246" y1="316.724760953" y2="318.266667113" /><line stroke="rgb(0%,0%,0%)" x1="259.250336822" x2="258.215129804" y1="312.524416191" y2="314.658162622" /><line stroke="rgb(0%,0%,0%)" x1="258.215129804" x2="257.368000143" y1="314.658162622" y2="316.724760953" /><line stroke="rgb(0%,0%,0%)" x1="663.096688429" x2="662.710336004" y1="522.240335745" y2="524.230343669" /><line stroke="rgb(0%,0%,0%)" x1="661.683040889" x2="662.710336004" y1="528.102858099" y2="524.230343669" /><line stroke="rgb(0%,0%,0%)" x1="665.672418639" x2="667.230694608" y1="512.951391207" y2="508.225442692" /><line stroke="rgb(0%,0%,0%)" x1="670.82667573" x2="670.611794396" y1="490.922514336" y2="491.919082885" /><line stroke="rgb(0%,0%,0%)" x1="673.04428255" x2="673.597310499" y1="471.591952603" y2="468.905102898" /><line stroke="rgb(0%,0%,0%)" x1="675.034162132" x2="674.768042878" y1="463.175715879" y2="459.312160792" /><line stroke="rgb(0%,0%,0%)" x1="674.660069971" x2="674.768042878" y1="457.45228992" y2="459.312160792" /><line stroke="rgb(0%,0%,0%)" x1="645.693760951" x2="640.6020689" y1="583.323927619" y2="595.882171641" /><line stroke="rgb(0%,0%,0%)" x1="645.693760951" x2="647.834444506" y1="583.323927619" y2="576.257690295" /><line stroke="rgb(0%,0%,0%)" x1="650.106211201" x2="651.36944016" y1="571.400630755" y2="567.162868737" /><line stroke="rgb(0%,0%,0%)" x1="656.470084658" x2="655.162173969" y1="549.810834281" y2="554.43576558" /><line stroke="rgb(0%,0%,0%)" x1="656.633724577" x2="656.470084658" y1="548.906606828" y2="549.810834281" /><line stroke="rgb(0%,0%,0%)" x1="656.633724577" x2="656.894750637" y1="548.906606828" y2="547.866111635" /><line stroke="rgb(0%,0%,0%)" x1="658.752553002" x2="660.570060486" y1="537.211692632" y2="531.590461446" /><line stroke="rgb(0%,0%,0%)" x1="667.678688439" x2="669.678345883" y1="506.585391093" y2="496.844572365" /><line stroke="rgb(0%,0%,0%)" x1="670.611794396" x2="669.678345883" y1="491.919082885" y2="496.844572365" /><line stroke="rgb(0%,0%,0%)" x1="671.185855909" x2="672.057203011" y1="488.557812388" y2="480.402816078" /><line stroke="rgb(0%,0%,0%)" x1="673.04428255" x2="672.584037801" y1="471.591952603" y2="477.552222905" /><line stroke="rgb(0%,0%,0%)" x1="673.548562112" x2="673.597310499" y1="466.794923712" y2="468.905102898" /><line stroke="rgb(0%,0%,0%)" x1="673.548562112" x2="675.034162132" y1="466.794923712" y2="463.175715879" /><line stroke="rgb(0%,0%,0%)" x1="613.861162469" x2="616.104074523" y1="658.961079788" y2="653.960555299" /><line stroke="rgb(0%,0%,0%)" x1="635.805006323" x2="640.6020689" y1="606.629818416" y2="595.882171641" /><line stroke="rgb(0%,0%,0%)" x1="647.834444506" x2="650.106211201" y1="576.257690295" y2="571.400630755" /><line stroke="rgb(0%,0%,0%)" x1="651.36944016" x2="651.576411758" y1="567.162868737" y2="565.146305543" /><line stroke="rgb(0%,0%,0%)" x1="651.576411758" x2="652.077546916" y1="565.146305543" y2="563.700557874" /><line stroke="rgb(0%,0%,0%)" x1="652.077546916" x2="655.162173969" y1="563.700557874" y2="554.43576558" /><line stroke="rgb(0%,0%,0%)" x1="656.894750637" x2="658.118322493" y1="547.866111635" y2="540.478103121" /><line stroke="rgb(0%,0%,0%)" x1="658.118322493" x2="658.752553002" y1="540.478103121" y2="537.211692632" /><line stroke="rgb(0%,0%,0%)" x1="660.570060486" x2="661.683040889" y1="531.590461446" y2="528.102858099" /><line stroke="rgb(0%,0%,0%)" x1="667.230694608" x2="667.419396874" y1="508.225442692" y2="507.013666275" /><line stroke="rgb(0%,0%,0%)" x1="667.419396874" x2="667.678688439" y1="507.013666275" y2="506.585391093" /><line stroke="rgb(0%,0%,0%)" x1="672.057203011" x2="672.584037801" y1="480.402816078" y2="477.552222905" /><line stroke="rgb(0%,0%,0%)" x1="583.766060941" x2="579.573624241" y1="712.873980098" y2="719.626284754" /><line stroke="rgb(0%,0%,0%)" x1="583.766060941" x2="585.514689447" y1="712.873980098" y2="710.653123111" /><line stroke="rgb(0%,0%,0%)" x1="585.514689447" x2="586.131629609" y1="710.653123111" y2="709.574744977" /><line stroke="rgb(0%,0%,0%)" x1="597.07149614" x2="595.219719535" y1="690.448289259" y2="694.832144479" /><line stroke="rgb(0%,0%,0%)" x1="597.07149614" x2="602.183082488" y1="690.448289259" y2="682.82165066" /><line stroke="rgb(0%,0%,0%)" x1="613.861162469" x2="611.041781204" y1="658.961079788" y2="664.482166395" /><line stroke="rgb(0%,0%,0%)" x1="616.104074523" x2="619.41304533" y1="653.960555299" y2="645.861909653" /><line stroke="rgb(0%,0%,0%)" x1="625.543225687" x2="632.960920485" y1="630.133188258" y2="616.327439618" /><line stroke="rgb(0%,0%,0%)" x1="635.805006323" x2="634.291329641" y1="606.629818416" y2="613.584070822" /><line stroke="rgb(0%,0%,0%)" x1="538.140393542" x2="537.299262791" y1="755.935500597" y2="756.400197265" /><line stroke="rgb(0%,0%,0%)" x1="538.140393542" x2="540.193611848" y1="755.935500597" y2="754.996652793" /><line stroke="rgb(0%,0%,0%)" x1="577.199909375" x2="572.234653616" y1="724.248667399" y2="731.132291955" /><line stroke="rgb(0%,0%,0%)" x1="577.199909375" x2="578.117872916" y1="724.248667399" y2="722.264208335" /><line stroke="rgb(0%,0%,0%)" x1="578.117872916" x2="579.573624241" y1="722.264208335" y2="719.626284754" /><line stroke="rgb(0%,0%,0%)" x1="586.724948425" x2="589.844227208" y1="708.694872923" y2="703.642974741" /><line stroke="rgb(0%,0%,0%)" x1="589.844227208" x2="590.038858003" y1="703.642974741" y2="703.237237145" /><line stroke="rgb(0%,0%,0%)" x1="593.421158391" x2="590.038858003" y1="697.837861378" y2="703.237237145" /><line stroke="rgb(0%,0%,0%)" x1="593.421158391" x2="595.219719535" y1="697.837861378" y2="694.832144479" /><line stroke="rgb(0%,0%,0%)" x1="602.183082488" x2="604.721652519" y1="682.82165066" y2="677.55646798" /><line stroke="rgb(0%,0%,0%)" x1="604.721652519" x2="611.041781204" y1="677.55646798" y2="664.482166395" /><line stroke="rgb(0%,0%,0%)" x1="619.41304533" x2="619.816196755" y1="645.861909653" y2="644.710108213" /><line stroke="rgb(0%,0%,0%)" x1="619.816196755" x2="622.483489851" y1="644.710108213" y2="638.127246005" /><line stroke="rgb(0%,0%,0%)" x1="625.543225687" x2="622.483489851" y1="630.133188258" y2="638.127246005" /><line stroke="rgb(0%,0%,0%)" x1="632.960920485" x2="634.291329641" y1="616.327439618" y2="613.584070822" /><line stroke="rgb(0%,0%,0%)" x1="488.060242807" x2="488.924028749" y1="776.172991494" y2="776.004479725" /><line stroke="rgb(0%,0%,0%)" x1="529.75360164" x2="524.84089468" y1="758.197514673" y2="761.12911541" /><line stroke="rgb(0%,0%,0%)" x1="529.75360164" x2="537.299262791" y1="758.197514673" y2="756.400197265" /><line stroke="rgb(0%,0%,0%)" x1="540.193611848" x2="548.921512739" y1="754.996652793" y2="749.958383966" /><line stroke="rgb(0%,0%,0%)" x1="557.670972374" x2="548.921512739" y1="743.692725543" y2="749.958383966" /><line stroke="rgb(0%,0%,0%)" x1="557.670972374" x2="563.082135341" y1="743.692725543" y2="739.584838402" /><line stroke="rgb(0%,0%,0%)" x1="563.082135341" x2="568.33487783" y1="739.584838402" y2="734.981029687" /><line stroke="rgb(0%,0%,0%)" x1="568.33487783" x2="572.234653616" y1="734.981029687" y2="731.132291955" /><line stroke="rgb(0%,0%,0%)" x1="586.131629609" x2="586.451542955" y1="709.574744977" y2="709.05491892" /><line stroke="rgb(0%,0%,0%)" x1="586.451542955" x2="586.724948425" y1="709.05491892" y2="708.694872923" /><line stroke="rgb(0%,0%,0%)" x1="466.452231288" x2="463.247855909" y1="778.291875175" y2="778.697173972" /><line stroke="rgb(0%,0%,0%)" x1="479.469859861" x2="479.192042247" y1="777.9636628" y2="777.912428028" /><line stroke="rgb(0%,0%,0%)" x1="479.469859861" x2="488.060242807" y1="777.9636628" y2="776.172991494" /><line stroke="rgb(0%,0%,0%)" x1="494.25777161" x2="512.469195881" y1="773.26892722" y2="766.151859094" /><line stroke="rgb(0%,0%,0%)" x1="512.469195881" x2="520.886344342" y1="766.151859094" y2="763.563247266" /><line stroke="rgb(0%,0%,0%)" x1="520.886344342" x2="524.84089468" y1="763.563247266" y2="761.12911541" /><line stroke="rgb(0%,0%,0%)" x1="422.774126657" x2="425.421884116" y1="780.556192876" y2="780.754612933" /><line stroke="rgb(0%,0%,0%)" x1="434.478376868" x2="438.384972747" y1="781.930108136" y2="781.572182153" /><line stroke="rgb(0%,0%,0%)" x1="454.987129919" x2="452.991835735" y1="780.623340809" y2="780.742059289" /><line stroke="rgb(0%,0%,0%)" x1="454.987129919" x2="463.247855909" y1="780.623340809" y2="778.697173972" /><line stroke="rgb(0%,0%,0%)" x1="466.452231288" x2="479.192042247" y1="778.291875175" y2="777.912428028" /><line stroke="rgb(0%,0%,0%)" x1="488.924028749" x2="494.25777161" y1="776.004479725" y2="773.26892722" /><line stroke="rgb(0%,0%,0%)" x1="422.774126657" x2="409.673189331" y1="780.556192876" y2="778.309402487" /><line stroke="rgb(0%,0%,0%)" x1="425.421884116" x2="434.478376868" y1="780.754612933" y2="781.930108136" /><line stroke="rgb(0%,0%,0%)" x1="438.384972747" x2="452.991835735" y1="781.572182153" y2="780.742059289" /><line stroke="rgb(0%,0%,0%)" x1="409.338698085" x2="394.731440491" y1="778.185987643" y2="772.949677502" /><line stroke="rgb(0%,0%,0%)" x1="409.338698085" x2="409.673189331" y1="778.185987643" y2="778.309402487" /><line stroke="rgb(0%,0%,0%)" x1="293.243024406" x2="292.62889072" y1="519.413246518" y2="518.749486951" /><line stroke="rgb(0%,0%,0%)" x1="339.61777203" x2="339.201895939" y1="664.772962387" y2="664.540936453" /><line stroke="rgb(0%,0%,0%)" x1="339.61777203" x2="339.817380579" y1="664.772962387" y2="665.046094556" /><line stroke="rgb(0%,0%,0%)" x1="373.432648706" x2="360.610637032" y1="760.872945619" y2="751.414131342" /><line stroke="rgb(0%,0%,0%)" x1="373.432648706" x2="393.105684006" y1="760.872945619" y2="772.068465975" /><line stroke="rgb(0%,0%,0%)" x1="393.105684006" x2="394.333638438" y1="772.068465975" y2="772.7526586" /><line stroke="rgb(0%,0%,0%)" x1="394.557931122" x2="394.731440491" y1="772.847805079" y2="772.949677502" /><line stroke="rgb(0%,0%,0%)" x1="277.962928168" x2="279.373833489" y1="502.255291855" y2="503.631135533" /><line stroke="rgb(0%,0%,0%)" x1="293.243024406" x2="293.59639853" y1="519.413246518" y2="520.002078023" /><line stroke="rgb(0%,0%,0%)" x1="305.287566126" x2="303.034172976" y1="652.165212687" y2="649.091770583" /><line stroke="rgb(0%,0%,0%)" x1="305.287566126" x2="308.452083559" y1="652.165212687" y2="655.019990955" /><line stroke="rgb(0%,0%,0%)" x1="293.959047873" x2="294.426156096" y1="523.647914078" y2="524.645471676" /><line stroke="rgb(0%,0%,0%)" x1="327.875445496" x2="322.842741383" y1="661.871481053" y2="660.942491843" /><line stroke="rgb(0%,0%,0%)" x1="336.978029004" x2="338.268104315" y1="717.56632724" y2="720.816802613" /><line stroke="rgb(0%,0%,0%)" x1="338.268104315" x2="342.423681063" y1="720.816802613" y2="731.110706704" /><line stroke="rgb(0%,0%,0%)" x1="339.562937247" x2="336.978029004" y1="710.046615123" y2="717.56632724" /><line stroke="rgb(0%,0%,0%)" x1="340.633906464" x2="339.562937247" y1="708.346492887" y2="710.046615123" /><line stroke="rgb(0%,0%,0%)" x1="344.389907108" x2="345.306504689" y1="670.520213956" y2="674.874825076" /><line stroke="rgb(0%,0%,0%)" x1="339.817380579" x2="344.389907108" y1="665.046094556" y2="670.520213956" /><line stroke="rgb(0%,0%,0%)" x1="327.875445496" x2="339.201895939" y1="661.871481053" y2="664.540936453" /><line stroke="rgb(0%,0%,0%)" x1="353.915471673" x2="354.992920419" y1="745.05256694" y2="746.646002841" /><line stroke="rgb(0%,0%,0%)" x1="353.915471673" x2="342.67320949" y1="745.05256694" y2="731.741001743" /><line stroke="rgb(0%,0%,0%)" x1="342.423681063" x2="342.67320949" y1="731.110706704" y2="731.741001743" /><line stroke="rgb(0%,0%,0%)" x1="342.052261696" x2="340.633906464" y1="705.338317796" y2="708.346492887" /><line stroke="rgb(0%,0%,0%)" x1="342.967559598" x2="342.052261696" y1="702.612479626" y2="705.338317796" /><line stroke="rgb(0%,0%,0%)" x1="345.636994763" x2="343.197811679" y1="688.918623615" y2="698.866283701" /><line stroke="rgb(0%,0%,0%)" x1="343.197811679" x2="342.967559598" y1="698.866283701" y2="702.612479626" /><line stroke="rgb(0%,0%,0%)" x1="345.636994763" x2="345.829174303" y1="688.918623615" y2="678.353933572" /><line stroke="rgb(0%,0%,0%)" x1="345.306504689" x2="345.829174303" y1="674.874825076" y2="678.353933572" /><line stroke="rgb(0%,0%,0%)" x1="354.992920419" x2="360.610637032" y1="746.646002841" y2="751.414131342" /><line stroke="rgb(0%,0%,0%)" x1="394.333638438" x2="394.557931122" y1="772.7526586" y2="772.847805079" /><line stroke="rgb(0%,0%,0%)" x1="260.836822378" x2="260.462573967" y1="487.044508215" y2="486.274089099" /><line stroke="rgb(0%,0%,0%)" x1="287.059369332" x2="279.556253324" y1="629.105873296" y2="618.19298404" /><line stroke="rgb(0%,0%,0%)" x1="268.610470908" x2="277.962928168" y1="496.316499706" y2="502.255291855" /><line stroke="rgb(0%,0%,0%)" x1="268.610470908" x2="266.468213038" y1="496.316499706" y2="494.373059345" /><line stroke="rgb(0%,0%,0%)" x1="275.780889806" x2="276.318633176" y1="578.265108199" y2="579.138376938" /><line stroke="rgb(0%,0%,0%)" x1="275.467274151" x2="275.780889806" y1="577.789606767" y2="578.265108199" /><line stroke="rgb(0%,0%,0%)" x1="283.710238986" x2="290.576277116" y1="534.192477289" y2="535.832097295" /><line stroke="rgb(0%,0%,0%)" x1="286.998526715" x2="292.62889072" y1="511.812607606" y2="518.749486951" /><line stroke="rgb(0%,0%,0%)" x1="279.373833489" x2="286.998526715" y1="503.631135533" y2="511.812607606" /><line stroke="rgb(0%,0%,0%)" x1="287.059369332" x2="303.034172976" y1="629.105873296" y2="649.091770583" /><line stroke="rgb(0%,0%,0%)" x1="294.617167911" x2="290.576277116" y1="535.804832326" y2="535.832097295" /><line stroke="rgb(0%,0%,0%)" x1="294.549874644" x2="294.617167911" y1="535.498495822" y2="535.804832326" /><line stroke="rgb(0%,0%,0%)" x1="295.079741114" x2="294.549874644" y1="534.092530676" y2="535.498495822" /><line stroke="rgb(0%,0%,0%)" x1="295.97589634" x2="295.079741114" y1="533.395716625" y2="534.092530676" /><line stroke="rgb(0%,0%,0%)" x1="295.97589634" x2="296.173453604" y1="533.395716625" y2="531.499009941" /><line stroke="rgb(0%,0%,0%)" x1="296.122348383" x2="296.173453604" y1="529.838841507" y2="531.499009941" /><line stroke="rgb(0%,0%,0%)" x1="295.963705183" x2="296.122348383" y1="529.156953183" y2="529.838841507" /><line stroke="rgb(0%,0%,0%)" x1="294.426156096" x2="295.963705183" y1="524.645471676" y2="529.156953183" /><line stroke="rgb(0%,0%,0%)" x1="293.59639853" x2="293.959047873" y1="520.002078023" y2="523.647914078" /><line stroke="rgb(0%,0%,0%)" x1="308.452083559" x2="315.211469116" y1="655.019990955" y2="657.33108871" /><line stroke="rgb(0%,0%,0%)" x1="315.211469116" x2="318.159205988" y1="657.33108871" y2="659.083703486" /><line stroke="rgb(0%,0%,0%)" x1="318.159205988" x2="322.842741383" y1="659.083703486" y2="660.942491843" /><line stroke="rgb(0%,0%,0%)" x1="227.768288256" x2="228.777498866" y1="532.033110526" y2="533.272914567" /><line stroke="rgb(0%,0%,0%)" x1="227.768288256" x2="225.033507481" y1="532.033110526" y2="528.728698098" /><line stroke="rgb(0%,0%,0%)" x1="247.756091456" x2="241.331594161" y1="551.240706879" y2="546.024329104" /><line stroke="rgb(0%,0%,0%)" x1="235.816063939" x2="238.721349312" y1="541.066434225" y2="543.655661155" /><line stroke="rgb(0%,0%,0%)" x1="239.173311745" x2="233.439617492" y1="512.668752088" y2="508.924922348" /><line stroke="rgb(0%,0%,0%)" x1="239.173311745" x2="250.335654482" y1="512.668752088" y2="519.299378784" /><line stroke="rgb(0%,0%,0%)" x1="262.967413426" x2="260.680981012" y1="563.563143886" y2="561.153414904" /><line stroke="rgb(0%,0%,0%)" x1="258.064797338" x2="260.680981012" y1="558.37642372" y2="561.153414904" /><line stroke="rgb(0%,0%,0%)" x1="247.756091456" x2="252.44403286" y1="551.240706879" y2="554.728605755" /><line stroke="rgb(0%,0%,0%)" x1="259.101389396" x2="250.335654482" y1="524.011599941" y2="519.299378784" /><line stroke="rgb(0%,0%,0%)" x1="260.836822378" x2="266.468213038" y1="487.044508215" y2="494.373059345" /><line stroke="rgb(0%,0%,0%)" x1="257.610801337" x2="260.462573967" y1="477.949435117" y2="486.274089099" /><line stroke="rgb(0%,0%,0%)" x1="257.610801337" x2="256.881349918" y1="477.949435117" y2="472.32414575" /><line stroke="rgb(0%,0%,0%)" x1="256.374501782" x2="256.551207587" y1="471.367647545" y2="471.975436702" /><line stroke="rgb(0%,0%,0%)" x1="255.085082519" x2="256.374501782" y1="466.625174088" y2="471.367647545" /><line stroke="rgb(0%,0%,0%)" x1="255.085082519" x2="254.266140439" y1="466.625174088" y2="462.395369999" /><line stroke="rgb(0%,0%,0%)" x1="253.868404328" x2="254.266140439" y1="460.001644887" y2="462.395369999" /><line stroke="rgb(0%,0%,0%)" x1="253.663777388" x2="254.20026739" y1="451.992484271" y2="458.548168753" /><line stroke="rgb(0%,0%,0%)" x1="254.20026739" x2="253.868404328" y1="458.548168753" y2="460.001644887" /><line stroke="rgb(0%,0%,0%)" x1="272.434615581" x2="276.077734966" y1="589.091998258" y2="584.826608773" /><line stroke="rgb(0%,0%,0%)" x1="275.467274151" x2="274.825121535" y1="577.789606767" y2="576.872668346" /><line stroke="rgb(0%,0%,0%)" x1="270.293527238" x2="274.825121535" y1="571.717020461" y2="576.872668346" /><line stroke="rgb(0%,0%,0%)" x1="269.557133176" x2="270.293527238" y1="570.930241144" y2="571.717020461" /><line stroke="rgb(0%,0%,0%)" x1="262.967413426" x2="269.557133176" y1="563.563143886" y2="570.930241144" /><line stroke="rgb(0%,0%,0%)" x1="283.710238986" x2="275.012789187" y1="534.192477289" y2="531.723312234" /><line stroke="rgb(0%,0%,0%)" x1="275.012789187" x2="259.101389396" y1="531.723312234" y2="524.011599941" /><line stroke="rgb(0%,0%,0%)" x1="273.577138659" x2="271.907385988" y1="606.584116542" y2="602.102843145" /><line stroke="rgb(0%,0%,0%)" x1="273.577138659" x2="274.945894429" y1="606.584116542" y2="610.393566373" /><line stroke="rgb(0%,0%,0%)" x1="274.945894429" x2="279.556253324" y1="610.393566373" y2="618.19298404" /><line stroke="rgb(0%,0%,0%)" x1="272.36412839" x2="271.907385988" y1="590.43137451" y2="602.102843145" /><line stroke="rgb(0%,0%,0%)" x1="276.512746757" x2="276.077734966" y1="583.830098706" y2="584.826608773" /><line stroke="rgb(0%,0%,0%)" x1="278.386672851" x2="276.579775097" y1="581.781503488" y2="583.520469826" /><line stroke="rgb(0%,0%,0%)" x1="276.579775097" x2="276.512746757" y1="583.520469826" y2="583.830098706" /><line stroke="rgb(0%,0%,0%)" x1="277.385896633" x2="278.386672851" y1="580.162843901" y2="581.781503488" /><line stroke="rgb(0%,0%,0%)" x1="276.318633176" x2="277.385896633" y1="579.138376938" y2="580.162843901" /><line stroke="rgb(0%,0%,0%)" x1="222.429011981" x2="224.473191026" y1="524.24495461" y2="527.429535384" /><line stroke="rgb(0%,0%,0%)" x1="220.287730525" x2="222.429011981" y1="520.411604578" y2="524.24495461" /><line stroke="rgb(0%,0%,0%)" x1="220.214245157" x2="220.287730525" y1="520.262158435" y2="520.411604578" /><line stroke="rgb(0%,0%,0%)" x1="220.172344101" x2="219.892752631" y1="520.182854039" y2="519.497104227" /><line stroke="rgb(0%,0%,0%)" x1="220.172344101" x2="220.214245157" y1="520.182854039" y2="520.262158435" /><line stroke="rgb(0%,0%,0%)" x1="217.398964572" x2="216.286298226" y1="512.179730675" y2="509.092445324" /><line stroke="rgb(0%,0%,0%)" x1="216.320610685" x2="216.286298226" y1="508.472215054" y2="509.092445324" /><line stroke="rgb(0%,0%,0%)" x1="216.607106862" x2="216.320610685" y1="507.255242839" y2="508.472215054" /><line stroke="rgb(0%,0%,0%)" x1="217.138120018" x2="216.607106862" y1="505.610882897" y2="507.255242839" /><line stroke="rgb(0%,0%,0%)" x1="218.151796345" x2="217.138120018" y1="505.459018934" y2="505.610882897" /><line stroke="rgb(0%,0%,0%)" x1="221.200819831" x2="219.677783269" y1="504.113214013" y2="504.580384785" /><line stroke="rgb(0%,0%,0%)" x1="221.200819831" x2="227.282917116" y1="504.113214013" y2="505.903750805" /><line stroke="rgb(0%,0%,0%)" x1="228.777498866" x2="235.816063939" y1="533.272914567" y2="541.066434225" /><line stroke="rgb(0%,0%,0%)" x1="224.473191026" x2="225.033507481" y1="527.429535384" y2="528.728698098" /><line stroke="rgb(0%,0%,0%)" x1="217.732372487" x2="219.892752631" y1="513.581230715" y2="519.497104227" /><line stroke="rgb(0%,0%,0%)" x1="219.677783269" x2="218.151796345" y1="504.580384785" y2="505.459018934" /><line stroke="rgb(0%,0%,0%)" x1="233.439617492" x2="231.240991754" y1="508.924922348" y2="508.075702478" /><line stroke="rgb(0%,0%,0%)" x1="231.240991754" x2="227.282917116" y1="508.075702478" y2="505.903750805" /><line stroke="rgb(0%,0%,0%)" x1="238.721349312" x2="241.331594161" y1="543.655661155" y2="546.024329104" /><line stroke="rgb(0%,0%,0%)" x1="252.44403286" x2="258.064797338" y1="554.728605755" y2="558.37642372" /><line stroke="rgb(0%,0%,0%)" x1="256.551207587" x2="256.881349918" y1="471.975436702" y2="472.32414575" /><line stroke="rgb(0%,0%,0%)" x1="272.434615581" x2="272.36412839" y1="589.091998258" y2="590.43137451" /><line stroke="rgb(0%,0%,0%)" x1="217.398964572" x2="217.732372487" y1="512.179730675" y2="513.581230715" /><line stroke="rgb(0%,0%,0%)" x1="670.521908758" x2="670.687140088" y1="420.44113445" y2="421.188698392" /><line stroke="rgb(0%,0%,0%)" x1="670.521908758" x2="670.417211116" y1="420.44113445" y2="419.22711549" /><line stroke="rgb(0%,0%,0%)" x1="674.660069971" x2="674.457241876" y1="457.45228992" y2="451.763251932" /><line stroke="rgb(0%,0%,0%)" x1="670.417211116" x2="670.278795478" y1="419.22711549" y2="417.52196922" /><line stroke="rgb(0%,0%,0%)" x1="665.546986644" x2="665.427774222" y1="512.880090741" y2="513.871409917" /><line stroke="rgb(0%,0%,0%)" x1="665.546986644" x2="665.672418639" y1="512.880090741" y2="512.951391207" /><line stroke="rgb(0%,0%,0%)" x1="670.883126329" x2="670.928079815" y1="490.44525213" y2="490.068859023" /><line stroke="rgb(0%,0%,0%)" x1="670.928079815" x2="671.185855909" y1="490.068859023" y2="488.557812388" /><line stroke="rgb(0%,0%,0%)" x1="663.338856841" x2="663.096688429" y1="521.371982204" y2="522.240335745" /><line stroke="rgb(0%,0%,0%)" x1="663.338856841" x2="665.427774222" y1="521.371982204" y2="513.871409917" /><line stroke="rgb(0%,0%,0%)" x1="670.883126329" x2="670.82667573" y1="490.44525213" y2="490.922514336" /></svg>