<?xml version="1.0" encoding="utf-8" ?>
<svg baseProfile="full" height="100%" version="1.1" viewBox="0.5 0.5 685.793960571 941.299331665" width="100%" xmlns="http://www.w3.org/2000/svg" xmlns:ev="http://www.w3.org/2001/xml-events" xmlns:xlink="http://www.w3.org/1999/xlink"><defs /><line stroke="rgb(0%,0%,0%)" x1="662.525548239" x2="661.749333773" y1="386.817741396" y2="382.809449462" /><line stroke="rgb(0%,0%,0%)" x1="662.525548239" x2="663.294982345" y1="386.817741396" y2="388.894893471" /><line stroke="rgb(0%,0%,0%)" x1="665.010508499" x2="665.224555774" y1="399.636168265" y2="401.28536082" /><line stroke="rgb(0%,0%,0%)" x1="641.171161746" x2="642.623916148" y1="318.811480823" y2="323.279860035" /><line stroke="rgb(0%,0%,0%)" x1="658.172445474" x2="659.596108312" y1="366.873317299" y2="373.602147813" /><line stroke="rgb(0%,0%,0%)" x1="658.172445474" x2="655.885285467" y1="366.873317299" y2="359.197630651" /><line stroke="rgb(0%,0%,0%)" x1="655.885285467" x2="655.103000064" y1="359.197630651" y2="357.0171648" /><line stroke="rgb(0%,0%,0%)" x1="649.28956073" x2="649.410388408" y1="341.259419065" y2="341.67486201" /><line stroke="rgb(0%,0%,0%)" x1="672.896668233" x2="672.330472373" y1="456.042644988" y2="443.12597855" /><line stroke="rgb(0%,0%,0%)" x1="672.330472373" x2="671.168163094" y1="443.12597855" y2="440.553721718" /><line stroke="rgb(0%,0%,0%)" x1="671.168163094" x2="670.574624168" y1="440.553721718" y2="435.830189823" /><line stroke="rgb(0%,0%,0%)" x1="669.23314286" x2="668.396878276" y1="429.306311568" y2="421.97654584" /><line stroke="rgb(0%,0%,0%)" x1="666.11830088" x2="667.88391519" y1="410.972634662" y2="419.959318861" /><line stroke="rgb(0%,0%,0%)" x1="665.055385727" x2="665.596384593" y1="404.716270914" y2="406.492961214" /><line stroke="rgb(0%,0%,0%)" x1="665.055385727" x2="665.224555774" y1="404.716270914" y2="401.28536082" /><line stroke="rgb(0%,0%,0%)" x1="665.010508499" x2="665.081990738" y1="399.636168265" y2="398.328975178" /><line stroke="rgb(0%,0%,0%)" x1="617.377524784" x2="618.104176336" y1="251.957140923" y2="253.303996034" /><line stroke="rgb(0%,0%,0%)" x1="639.181669703" x2="637.384855934" y1="311.047198763" y2="305.884311186" /><line stroke="rgb(0%,0%,0%)" x1="637.384855934" x2="632.421901146" y1="305.884311186" y2="289.502125521" /><line stroke="rgb(0%,0%,0%)" x1="661.749333773" x2="659.596108312" y1="382.809449462" y2="373.602147813" /><line stroke="rgb(0%,0%,0%)" x1="655.103000064" x2="649.410388408" y1="357.0171648" y2="341.67486201" /><line stroke="rgb(0%,0%,0%)" x1="670.574624168" x2="669.1149685" y1="435.830189823" y2="430.054040443" /><line stroke="rgb(0%,0%,0%)" x1="669.1149685" x2="669.23314286" y1="430.054040443" y2="429.306311568" /><line stroke="rgb(0%,0%,0%)" x1="666.11830088" x2="665.66964559" y1="410.972634662" y2="407.902898506" /><line stroke="rgb(0%,0%,0%)" x1="665.081990738" x2="663.458011018" y1="398.328975178" y2="392.884140194" /><line stroke="rgb(0%,0%,0%)" x1="663.458011018" x2="663.294982345" y1="392.884140194" y2="388.894893471" /><line stroke="rgb(0%,0%,0%)" x1="590.101424895" x2="593.178976068" y1="213.547302027" y2="216.580887098" /><line stroke="rgb(0%,0%,0%)" x1="608.374815213" x2="612.718196816" y1="236.042236223" y2="244.42636269" /><line stroke="rgb(0%,0%,0%)" x1="606.898098473" x2="602.192461509" y1="233.478453857" y2="225.557723309" /><line stroke="rgb(0%,0%,0%)" x1="621.254676693" x2="625.665502734" y1="260.14036688" y2="271.892714198" /><line stroke="rgb(0%,0%,0%)" x1="617.377524784" x2="616.774218631" y1="251.957140923" y2="250.832751537" /><line stroke="rgb(0%,0%,0%)" x1="632.421901146" x2="630.448804259" y1="289.502125521" y2="284.805755103" /><line stroke="rgb(0%,0%,0%)" x1="630.448804259" x2="626.314141235" y1="284.805755103" y2="273.725004235" /><line stroke="rgb(0%,0%,0%)" x1="649.28956073" x2="647.215809024" y1="341.259419065" y2="336.980819083" /><line stroke="rgb(0%,0%,0%)" x1="647.215809024" x2="645.126566706" y1="336.980819083" y2="331.824187027" /><line stroke="rgb(0%,0%,0%)" x1="645.126566706" x2="644.730670889" y1="331.824187027" y2="329.028265608" /><line stroke="rgb(0%,0%,0%)" x1="644.730670889" x2="642.623916148" y1="329.028265608" y2="323.279860035" /><line stroke="rgb(0%,0%,0%)" x1="641.171161746" x2="639.181669703" y1="318.811480823" y2="311.047198763" /><line stroke="rgb(0%,0%,0%)" x1="668.396878276" x2="667.88391519" y1="421.97654584" y2="419.959318861" /><line stroke="rgb(0%,0%,0%)" x1="665.66964559" x2="665.596384593" y1="407.902898506" y2="406.492961214" /><line stroke="rgb(0%,0%,0%)" x1="554.808644814" x2="560.614633295" y1="182.922196148" y2="184.59765052" /><line stroke="rgb(0%,0%,0%)" x1="576.326644466" x2="573.334875892" y1="199.370337484" y2="193.845168875" /><line stroke="rgb(0%,0%,0%)" x1="578.252373607" x2="576.326644466" y1="203.353381526" y2="199.370337484" /><line stroke="rgb(0%,0%,0%)" x1="587.305734083" x2="586.104270456" y1="210.616990732" y2="210.021852439" /><line stroke="rgb(0%,0%,0%)" x1="586.104270456" x2="585.623522426" y1="210.021852439" y2="209.813138322" /><line stroke="rgb(0%,0%,0%)" x1="581.395102041" x2="585.623522426" y1="206.837902794" y2="209.813138322" /><line stroke="rgb(0%,0%,0%)" x1="581.395102041" x2="579.657474295" y1="206.837902794" y2="204.579864678" /><line stroke="rgb(0%,0%,0%)" x1="578.252373607" x2="579.657474295" y1="203.353381526" y2="204.579864678" /><line stroke="rgb(0%,0%,0%)" x1="602.192461509" x2="601.338365932" y1="225.557723309" y2="224.659844835" /><line stroke="rgb(0%,0%,0%)" x1="595.653016756" x2="601.338365932" y1="218.31261265" y2="224.659844835" /><line stroke="rgb(0%,0%,0%)" x1="595.653016756" x2="593.178976068" y1="218.31261265" y2="216.580887098" /><line stroke="rgb(0%,0%,0%)" x1="590.101424895" x2="587.305734083" y1="213.547302027" y2="210.616990732" /><line stroke="rgb(0%,0%,0%)" x1="616.774218631" x2="613.146946929" y1="250.832751537" y2="245.051457347" /><line stroke="rgb(0%,0%,0%)" x1="613.146946929" x2="612.718196816" y1="245.051457347" y2="244.42636269" /><line stroke="rgb(0%,0%,0%)" x1="608.374815213" x2="606.898098473" y1="236.042236223" y2="233.478453857" /><line stroke="rgb(0%,0%,0%)" x1="625.706930873" x2="625.665502734" y1="272.233032239" y2="271.892714198" /><line stroke="rgb(0%,0%,0%)" x1="621.254676693" x2="621.062347323" y1="260.14036688" y2="259.296077963" /><line stroke="rgb(0%,0%,0%)" x1="621.062347323" x2="618.104176336" y1="259.296077963" y2="253.303996034" /><line stroke="rgb(0%,0%,0%)" x1="626.314141235" x2="625.706930873" y1="273.725004235" y2="272.233032239" /><line stroke="rgb(0%,0%,0%)" x1="491.237463571" x2="502.483339963" y1="158.320207944" y2="161.548813148" /><line stroke="rgb(0%,0%,0%)" x1="491.237463571" x2="483.189337067" y1="158.320207944" y2="154.9724159" /><line stroke="rgb(0%,0%,0%)" x1="517.568715539" x2="528.325310276" y1="167.357556431" y2="171.366529941" /><line stroke="rgb(0%,0%,0%)" x1="528.325310276" x2="532.807011902" y1="171.366529941" y2="172.578024749" /><line stroke="rgb(0%,0%,0%)" x1="554.808644814" x2="550.030763388" y1="182.922196148" y2="180.77005161" /><line stroke="rgb(0%,0%,0%)" x1="550.030763388" x2="542.365027926" y1="180.77005161" y2="177.349958823" /><line stroke="rgb(0%,0%,0%)" x1="542.365027926" x2="539.186620306" y1="177.349958823" y2="175.291602271" /><line stroke="rgb(0%,0%,0%)" x1="563.063830883" x2="560.614633295" y1="184.939184394" y2="184.59765052" /><line stroke="rgb(0%,0%,0%)" x1="563.063830883" x2="568.075806428" y1="184.939184394" y2="189.207363996" /><line stroke="rgb(0%,0%,0%)" x1="573.334875892" x2="571.839389112" y1="193.845168875" y2="191.861445578" /><line stroke="rgb(0%,0%,0%)" x1="571.839389112" x2="568.075806428" y1="191.861445578" y2="189.207363996" /><line stroke="rgb(0%,0%,0%)" x1="467.066514651" x2="469.396518089" y1="149.162216981" y2="149.590510875" /><line stroke="rgb(0%,0%,0%)" x1="539.186620306" x2="537.345053986" y1="175.291602271" y2="174.726475715" /><line stroke="rgb(0%,0%,0%)" x1="434.518815271" x2="436.467617377" y1="139.136961804" y2="139.757896224" /><line stroke="rgb(0%,0%,0%)" x1="436.467617377" x2="452.962889448" y1="139.757896224" y2="144.539123276" /><line stroke="rgb(0%,0%,0%)" x1="467.066514651" x2="460.338895579" y1="149.162216981" y2="146.922991051" /><line stroke="rgb(0%,0%,0%)" x1="483.189337067" x2="469.396518089" y1="154.9724159" y2="149.590510875" /><line stroke="rgb(0%,0%,0%)" x1="517.568715539" x2="502.483339963" y1="167.357556431" y2="161.548813148" /><line stroke="rgb(0%,0%,0%)" x1="537.345053986" x2="532.807011902" y1="174.726475715" y2="172.578024749" /><line stroke="rgb(0%,0%,0%)" x1="415.615675481" x2="408.025031771" y1="134.855462589" y2="133.776603119" /><line stroke="rgb(0%,0%,0%)" x1="415.615675481" x2="418.312395774" y1="134.855462589" y2="135.599736011" /><line stroke="rgb(0%,0%,0%)" x1="434.518815271" x2="430.210776546" y1="139.136961804" y2="138.165063394" /><line stroke="rgb(0%,0%,0%)" x1="430.210776546" x2="426.199417344" y1="138.165063394" y2="136.694490766" /><line stroke="rgb(0%,0%,0%)" x1="460.338895579" x2="457.315550984" y1="146.922991051" y2="146.087809743" /><line stroke="rgb(0%,0%,0%)" x1="382.652213681" x2="381.238525085" y1="136.193372546" y2="136.772222289" /><line stroke="rgb(0%,0%,0%)" x1="382.652213681" x2="384.638947587" y1="136.193372546" y2="135.796563695" /><line stroke="rgb(0%,0%,0%)" x1="396.671884581" x2="401.244899491" y1="133.211888523" y2="133.242621128" /><line stroke="rgb(0%,0%,0%)" x1="395.6601262" x2="396.671884581" y1="133.204868183" y2="133.211888523" /><line stroke="rgb(0%,0%,0%)" x1="408.025031771" x2="405.506642197" y1="133.776603119" y2="133.585338313" /><line stroke="rgb(0%,0%,0%)" x1="405.506642197" x2="401.244899491" y1="133.585338313" y2="133.242621128" /><line stroke="rgb(0%,0%,0%)" x1="426.199417344" x2="418.312395774" y1="136.694490766" y2="135.599736011" /><line stroke="rgb(0%,0%,0%)" x1="457.315550984" x2="452.962889448" y1="146.087809743" y2="144.539123276" /><line stroke="rgb(0%,0%,0%)" x1="365.998343909" x2="366.631107915" y1="144.681542344" y2="144.564110746" /><line stroke="rgb(0%,0%,0%)" x1="365.998343909" x2="362.06927762" y1="144.681542344" y2="145.863204509" /><line stroke="rgb(0%,0%,0%)" x1="366.631107915" x2="370.252709516" y1="144.564110746" y2="142.639966263" /><line stroke="rgb(0%,0%,0%)" x1="381.238525085" x2="374.850504263" y1="136.772222289" y2="140.685352282" /><line stroke="rgb(0%,0%,0%)" x1="374.850504263" x2="373.437485447" y1="140.685352282" y2="141.693353291" /><line stroke="rgb(0%,0%,0%)" x1="395.6601262" x2="384.638947587" y1="133.204868183" y2="135.796563695" /><line stroke="rgb(0%,0%,0%)" x1="332.730123119" x2="333.511659595" y1="233.471985333" y2="232.208945968" /><line stroke="rgb(0%,0%,0%)" x1="332.730123119" x2="325.390175243" y1="233.471985333" y2="236.63475408" /><line stroke="rgb(0%,0%,0%)" x1="328.073426132" x2="327.5503034" y1="184.587694755" y2="187.361300816" /><line stroke="rgb(0%,0%,0%)" x1="328.073426132" x2="330.893398583" y1="184.587694755" y2="174.692224588" /><line stroke="rgb(0%,0%,0%)" x1="341.486847277" x2="352.409485341" y1="155.725534349" y2="150.246171953" /><line stroke="rgb(0%,0%,0%)" x1="359.98507136" x2="359.750417439" y1="146.872216795" y2="147.001541397" /><line stroke="rgb(0%,0%,0%)" x1="355.717199473" x2="359.750417439" y1="148.813481215" y2="147.001541397" /><line stroke="rgb(0%,0%,0%)" x1="373.437485447" x2="370.252709516" y1="141.693353291" y2="142.639966263" /><line stroke="rgb(0%,0%,0%)" x1="362.06927762" x2="360.424697342" y1="145.863204509" y2="146.816226762" /><line stroke="rgb(0%,0%,0%)" x1="325.390175243" x2="323.474182816" y1="236.63475408" y2="237.614236731" /><line stroke="rgb(0%,0%,0%)" x1="323.474182816" x2="317.656045495" y1="237.614236731" y2="242.24841909" /><line stroke="rgb(0%,0%,0%)" x1="317.656045495" x2="307.200982253" y1="242.24841909" y2="251.500660939" /><line stroke="rgb(0%,0%,0%)" x1="327.774162225" x2="325.953961385" y1="205.625591499" y2="199.832562298" /><line stroke="rgb(0%,0%,0%)" x1="327.774162225" x2="330.768714091" y1="205.625591499" y2="215.507596743" /><line stroke="rgb(0%,0%,0%)" x1="327.5503034" x2="326.093804107" y1="187.361300816" y2="198.210397203" /><line stroke="rgb(0%,0%,0%)" x1="326.093804107" x2="325.953961385" y1="198.210397203" y2="199.832562298" /><line stroke="rgb(0%,0%,0%)" x1="334.906713607" x2="333.511659595" y1="230.606346403" y2="232.208945968" /><line stroke="rgb(0%,0%,0%)" x1="334.959977838" x2="334.906713607" y1="228.962245661" y2="230.606346403" /><line stroke="rgb(0%,0%,0%)" x1="330.768714091" x2="334.959977838" y1="215.507596743" y2="228.962245661" /><line stroke="rgb(0%,0%,0%)" x1="332.712638163" x2="330.893398583" y1="169.165191576" y2="174.692224588" /><line stroke="rgb(0%,0%,0%)" x1="338.747409235" x2="332.712638163" y1="158.768907524" y2="169.165191576" /><line stroke="rgb(0%,0%,0%)" x1="341.486847277" x2="338.747409235" y1="155.725534349" y2="158.768907524" /><line stroke="rgb(0%,0%,0%)" x1="355.717199473" x2="352.409485341" y1="148.813481215" y2="150.246171953" /><line stroke="rgb(0%,0%,0%)" x1="360.424697342" x2="359.98507136" y1="146.816226762" y2="146.872216795" /><line stroke="rgb(0%,0%,0%)" x1="261.110480189" x2="261.050408184" y1="326.886278922" y2="326.873146523" /><line stroke="rgb(0%,0%,0%)" x1="261.050408184" x2="261.020646571" y1="326.873146523" y2="326.804919999" /><line stroke="rgb(0%,0%,0%)" x1="261.794468853" x2="263.746498348" y1="339.621844632" y2="337.602413924" /><line stroke="rgb(0%,0%,0%)" x1="268.790430149" x2="268.623317451" y1="333.781336781" y2="334.142858561" /><line stroke="rgb(0%,0%,0%)" x1="269.423284026" x2="268.790430149" y1="330.572034028" y2="333.781336781" /><line stroke="rgb(0%,0%,0%)" x1="269.121446679" x2="269.423284026" y1="330.517741398" y2="330.572034028" /><line stroke="rgb(0%,0%,0%)" x1="269.121446679" x2="268.657388727" y1="330.517741398" y2="330.502928155" /><line stroke="rgb(0%,0%,0%)" x1="261.110480189" x2="268.657388727" y1="326.886278922" y2="330.502928155" /><line stroke="rgb(0%,0%,0%)" x1="271.73042694" x2="276.75903647" y1="401.991325824" y2="397.538032749" /><line stroke="rgb(0%,0%,0%)" x1="276.839758698" x2="289.836094353" y1="288.841596912" y2="276.635814325" /><line stroke="rgb(0%,0%,0%)" x1="271.094095097" x2="266.474005742" y1="296.060419454" y2="300.412368292" /><line stroke="rgb(0%,0%,0%)" x1="276.839758698" x2="271.094095097" y1="288.841596912" y2="296.060419454" /><line stroke="rgb(0%,0%,0%)" x1="280.641552739" x2="286.118979893" y1="394.400599171" y2="386.734054613" /><line stroke="rgb(0%,0%,0%)" x1="289.528802241" x2="289.133279109" y1="374.388896456" y2="376.226900745" /><line stroke="rgb(0%,0%,0%)" x1="289.528802241" x2="289.508795755" y1="374.388896456" y2="374.23451237" /><line stroke="rgb(0%,0%,0%)" x1="289.508795755" x2="289.575740369" y1="374.23451237" y2="373.921927249" /><line stroke="rgb(0%,0%,0%)" x1="288.919274697" x2="290.134792135" y1="366.458900259" y2="366.564801917" /><line stroke="rgb(0%,0%,0%)" x1="290.134792135" x2="290.289811161" y1="366.564801917" y2="367.789273799" /><line stroke="rgb(0%,0%,0%)" x1="294.435426189" x2="290.860898159" y1="270.042144922" y2="275.690044617" /><line stroke="rgb(0%,0%,0%)" x1="294.435426189" x2="304.692318512" y1="270.042144922" y2="254.935518297" /><line stroke="rgb(0%,0%,0%)" x1="306.505676363" x2="304.692318512" y1="252.376551432" y2="254.935518297" /><line stroke="rgb(0%,0%,0%)" x1="307.200982253" x2="306.505676363" y1="251.500660939" y2="252.376551432" /><line stroke="rgb(0%,0%,0%)" x1="239.758292054" x2="239.147219495" y1="353.895271818" y2="354.423190103" /><line stroke="rgb(0%,0%,0%)" x1="248.827790956" x2="250.333316205" y1="452.124255018" y2="448.022671944" /><line stroke="rgb(0%,0%,0%)" x1="252.713602276" x2="250.333316205" y1="440.524935268" y2="448.022671944" /><line stroke="rgb(0%,0%,0%)" x1="252.713602276" x2="257.0084498" y1="440.524935268" y2="433.305920963" /><line stroke="rgb(0%,0%,0%)" x1="258.681245974" x2="261.020646571" y1="322.256139291" y2="326.804919999" /><line stroke="rgb(0%,0%,0%)" x1="259.98996714" x2="258.990653635" y1="315.233880783" y2="319.658837631" /><line stroke="rgb(0%,0%,0%)" x1="260.047193951" x2="261.647738584" y1="428.489570187" y2="421.387802151" /><line stroke="rgb(0%,0%,0%)" x1="265.595089608" x2="263.526929459" y1="408.560425404" y2="411.865773273" /><line stroke="rgb(0%,0%,0%)" x1="268.683529535" x2="262.49560962" y1="368.573158412" y2="370.619822829" /><line stroke="rgb(0%,0%,0%)" x1="261.794468853" x2="257.337889152" y1="339.621844632" y2="342.320253404" /><line stroke="rgb(0%,0%,0%)" x1="268.623317451" x2="263.746498348" y1="334.142858561" y2="337.602413924" /><line stroke="rgb(0%,0%,0%)" x1="265.01547153" x2="266.474005742" y1="303.520673284" y2="300.412368292" /><line stroke="rgb(0%,0%,0%)" x1="271.73042694" x2="265.595089608" y1="401.991325824" y2="408.560425404" /><line stroke="rgb(0%,0%,0%)" x1="280.641552739" x2="276.75903647" y1="394.400599171" y2="397.538032749" /><line stroke="rgb(0%,0%,0%)" x1="273.783850921" x2="268.683529535" y1="367.502587897" y2="368.573158412" /><line stroke="rgb(0%,0%,0%)" x1="273.783850921" x2="285.483791096" y1="367.502587897" y2="366.157793866" /><line stroke="rgb(0%,0%,0%)" x1="285.483791096" x2="288.919274697" y1="366.157793866" y2="366.458900259" /><line stroke="rgb(0%,0%,0%)" x1="286.696376108" x2="286.118979893" y1="385.193047849" y2="386.734054613" /><line stroke="rgb(0%,0%,0%)" x1="287.03140931" x2="286.696376108" y1="384.455805661" y2="385.193047849" /><line stroke="rgb(0%,0%,0%)" x1="289.133279109" x2="287.03140931" y1="376.226900745" y2="384.455805661" /><line stroke="rgb(0%,0%,0%)" x1="289.662115827" x2="289.575740369" y1="372.039138055" y2="373.921927249" /><line stroke="rgb(0%,0%,0%)" x1="290.869690346" x2="289.662115827" y1="370.213447291" y2="372.039138055" /><line stroke="rgb(0%,0%,0%)" x1="290.869690346" x2="290.305242987" y1="370.213447291" y2="367.916438273" /><line stroke="rgb(0%,0%,0%)" x1="290.289811161" x2="290.305242987" y1="367.789273799" y2="367.916438273" /><line stroke="rgb(0%,0%,0%)" x1="290.860898159" x2="290.385699085" y1="275.690044617" y2="276.103558691" /><line stroke="rgb(0%,0%,0%)" x1="290.385699085" x2="289.836094353" y1="276.103558691" y2="276.635814325" /><line stroke="rgb(0%,0%,0%)" x1="226.332839139" x2="225.832859204" y1="378.322455501" y2="381.117874081" /><line stroke="rgb(0%,0%,0%)" x1="229.237012438" x2="232.299151124" y1="383.069671252" y2="382.09042027" /><line stroke="rgb(0%,0%,0%)" x1="226.865086424" x2="226.809229209" y1="371.623789887" y2="372.211311956" /><line stroke="rgb(0%,0%,0%)" x1="226.865086424" x2="227.539740586" y1="371.623789887" y2="369.279879393" /><line stroke="rgb(0%,0%,0%)" x1="227.539740586" x2="228.051497944" y1="369.279879393" y2="367.221984335" /><line stroke="rgb(0%,0%,0%)" x1="232.299151124" x2="240.833931589" y1="382.09042027" y2="377.809998061" /><line stroke="rgb(0%,0%,0%)" x1="239.147219495" x2="236.861725563" y1="354.423190103" y2="356.71355213" /><line stroke="rgb(0%,0%,0%)" x1="239.758292054" x2="239.996679265" y1="353.895271818" y2="353.688654644" /><line stroke="rgb(0%,0%,0%)" x1="236.861725563" x2="228.966089206" y1="356.71355213" y2="364.688538621" /><line stroke="rgb(0%,0%,0%)" x1="257.88764025" x2="257.0084498" y1="431.389946498" y2="433.305920963" /><line stroke="rgb(0%,0%,0%)" x1="240.833931589" x2="242.767505469" y1="377.809998061" y2="377.577102562" /><line stroke="rgb(0%,0%,0%)" x1="250.859441164" x2="242.767505469" y1="373.469381814" y2="377.577102562" /><line stroke="rgb(0%,0%,0%)" x1="243.479131288" x2="239.996679265" y1="351.739020601" y2="353.688654644" /><line stroke="rgb(0%,0%,0%)" x1="243.479131288" x2="247.150011417" y1="351.739020601" y2="349.139919733" /><line stroke="rgb(0%,0%,0%)" x1="249.135311922" x2="256.02212785" y1="347.816759393" y2="343.404428838" /><line stroke="rgb(0%,0%,0%)" x1="249.135311922" x2="247.150011417" y1="347.816759393" y2="349.139919733" /><line stroke="rgb(0%,0%,0%)" x1="260.047193951" x2="257.88764025" y1="428.489570187" y2="431.389946498" /><line stroke="rgb(0%,0%,0%)" x1="261.749133328" x2="261.647738584" y1="416.854475454" y2="421.387802151" /><line stroke="rgb(0%,0%,0%)" x1="262.309909257" x2="261.749133328" y1="414.949223681" y2="416.854475454" /><line stroke="rgb(0%,0%,0%)" x1="263.526929459" x2="262.309909257" y1="411.865773273" y2="414.949223681" /><line stroke="rgb(0%,0%,0%)" x1="250.859441164" x2="262.49560962" y1="373.469381814" y2="370.619822829" /><line stroke="rgb(0%,0%,0%)" x1="257.337889152" x2="256.02212785" y1="342.320253404" y2="343.404428838" /><line stroke="rgb(0%,0%,0%)" x1="258.990653635" x2="258.681245974" y1="319.658837631" y2="322.256139291" /><line stroke="rgb(0%,0%,0%)" x1="261.17582739" x2="259.98996714" y1="312.088656543" y2="315.233880783" /><line stroke="rgb(0%,0%,0%)" x1="265.01547153" x2="262.903826678" y1="303.520673284" y2="307.87315022" /><line stroke="rgb(0%,0%,0%)" x1="262.903826678" x2="261.17582739" y1="307.87315022" y2="312.088656543" /><line stroke="rgb(0%,0%,0%)" x1="225.749990813" x2="225.832859204" y1="382.513030308" y2="381.117874081" /><line stroke="rgb(0%,0%,0%)" x1="227.273522614" x2="226.332839139" y1="375.266450076" y2="378.322455501" /><line stroke="rgb(0%,0%,0%)" x1="226.809229209" x2="227.273522614" y1="372.211311956" y2="375.266450076" /><line stroke="rgb(0%,0%,0%)" x1="225.749990813" x2="229.237012438" y1="382.513030308" y2="383.069671252" /><line stroke="rgb(0%,0%,0%)" x1="228.735093936" x2="228.051497944" y1="365.318115772" y2="367.221984335" /><line stroke="rgb(0%,0%,0%)" x1="228.966089206" x2="228.735093936" y1="364.688538621" y2="365.318115772" /><line stroke="rgb(0%,0%,0%)" x1="659.55316162" x2="659.582200762" y1="525.765068982" y2="525.655602388" /><line stroke="rgb(0%,0%,0%)" x1="671.062958815" x2="671.311556752" y1="470.633787623" y2="469.425990993" /><line stroke="rgb(0%,0%,0%)" x1="672.981271923" x2="673.107808206" y1="458.097546798" y2="459.934617553" /><line stroke="rgb(0%,0%,0%)" x1="672.951880427" x2="672.981271923" y1="457.591268064" y2="458.097546798" /><line stroke="rgb(0%,0%,0%)" x1="643.008583073" x2="641.216298988" y1="579.625356494" y2="584.045879313" /><line stroke="rgb(0%,0%,0%)" x1="643.008583073" x2="643.762107251" y1="579.625356494" y2="577.138029183" /><line stroke="rgb(0%,0%,0%)" x1="656.350687304" x2="657.083238281" y1="535.770401057" y2="533.504749644" /><line stroke="rgb(0%,0%,0%)" x1="665.314781624" x2="666.949776966" y1="505.426110226" y2="497.461649468" /><line stroke="rgb(0%,0%,0%)" x1="666.949776966" x2="668.059423475" y1="497.461649468" y2="491.85207116" /><line stroke="rgb(0%,0%,0%)" x1="669.542311022" x2="668.838880584" y1="480.421527079" y2="487.004980005" /><line stroke="rgb(0%,0%,0%)" x1="671.062958815" x2="670.856068919" y1="470.633787623" y2="473.313057091" /><line stroke="rgb(0%,0%,0%)" x1="671.289643305" x2="671.311556752" y1="468.477420144" y2="469.425990993" /><line stroke="rgb(0%,0%,0%)" x1="671.289643305" x2="672.3323191" y1="468.477420144" y2="465.937261046" /><line stroke="rgb(0%,0%,0%)" x1="632.310178551" x2="641.216298988" y1="603.999722954" y2="584.045879313" /><line stroke="rgb(0%,0%,0%)" x1="643.762107251" x2="646.106690806" y1="577.138029183" y2="572.125286479" /><line stroke="rgb(0%,0%,0%)" x1="647.932733386" x2="647.491197744" y1="563.759301572" y2="568.061266349" /><line stroke="rgb(0%,0%,0%)" x1="647.932733386" x2="649.535509149" y1="563.759301572" y2="559.135380691" /><line stroke="rgb(0%,0%,0%)" x1="649.535509149" x2="652.667170031" y1="559.135380691" y2="549.729320539" /><line stroke="rgb(0%,0%,0%)" x1="653.571841462" x2="655.006710407" y1="547.009899458" y2="540.969692843" /><line stroke="rgb(0%,0%,0%)" x1="656.350687304" x2="655.742087756" y1="535.770401057" y2="538.904807113" /><line stroke="rgb(0%,0%,0%)" x1="655.006710407" x2="655.742087756" y1="540.969692843" y2="538.904807113" /><line stroke="rgb(0%,0%,0%)" x1="657.083238281" x2="659.55316162" y1="533.504749644" y2="525.765068982" /><line stroke="rgb(0%,0%,0%)" x1="660.70060477" x2="662.973004063" y1="520.306292285" y2="513.579309723" /><line stroke="rgb(0%,0%,0%)" x1="663.941752309" x2="663.086095084" y1="507.69396024" y2="513.188675636" /><line stroke="rgb(0%,0%,0%)" x1="663.941752309" x2="665.314781624" y1="507.69396024" y2="505.426110226" /><line stroke="rgb(0%,0%,0%)" x1="669.542311022" x2="670.856068919" y1="480.421527079" y2="473.313057091" /><line stroke="rgb(0%,0%,0%)" x1="672.730047606" x2="673.107808206" y1="463.865112596" y2="459.934617553" /><line stroke="rgb(0%,0%,0%)" x1="579.755197451" x2="577.538216124" y1="713.018272365" y2="716.588924566" /><line stroke="rgb(0%,0%,0%)" x1="579.755197451" x2="580.67988088" y1="713.018272365" y2="711.843872172" /><line stroke="rgb(0%,0%,0%)" x1="580.67988088" x2="581.006121898" y1="711.843872172" y2="711.273620465" /><line stroke="rgb(0%,0%,0%)" x1="594.299110335" x2="593.50268649" y1="688.902096862" y2="690.78753316" /><line stroke="rgb(0%,0%,0%)" x1="594.299110335" x2="596.497533859" y1="688.902096862" y2="685.62198369" /><line stroke="rgb(0%,0%,0%)" x1="615.209181726" x2="612.192526375" y1="644.613896356" y2="651.997105258" /><line stroke="rgb(0%,0%,0%)" x1="622.011745442" x2="624.684926688" y1="627.374562724" y2="622.399261184" /><line stroke="rgb(0%,0%,0%)" x1="632.310178551" x2="631.253443569" y1="603.999722954" y2="608.854657886" /><line stroke="rgb(0%,0%,0%)" x1="646.106690806" x2="646.953178598" y1="572.125286479" y2="569.810260508" /><line stroke="rgb(0%,0%,0%)" x1="646.953178598" x2="647.491197744" y1="569.810260508" y2="568.061266349" /><line stroke="rgb(0%,0%,0%)" x1="652.667170031" x2="653.571841462" y1="549.729320539" y2="547.009899458" /><line stroke="rgb(0%,0%,0%)" x1="659.582200762" x2="660.143395236" y1="525.655602388" y2="521.270975125" /><line stroke="rgb(0%,0%,0%)" x1="660.143395236" x2="660.70060477" y1="521.270975125" y2="520.306292285" /><line stroke="rgb(0%,0%,0%)" x1="662.973004063" x2="663.086095084" y1="513.579309723" y2="513.188675636" /><line stroke="rgb(0%,0%,0%)" x1="668.059423475" x2="668.103551674" y1="491.85207116" y2="489.789201573" /><line stroke="rgb(0%,0%,0%)" x1="668.103551674" x2="668.838880584" y1="489.789201573" y2="487.004980005" /><line stroke="rgb(0%,0%,0%)" x1="672.3323191" x2="672.730047606" y1="465.937261046" y2="463.865112596" /><line stroke="rgb(0%,0%,0%)" x1="574.946647615" x2="574.431739214" y1="721.318321679" y2="722.032169321" /><line stroke="rgb(0%,0%,0%)" x1="574.946647615" x2="575.041842538" y1="721.318321679" y2="721.112528726" /><line stroke="rgb(0%,0%,0%)" x1="575.041842538" x2="577.538216124" y1="721.112528726" y2="716.588924566" /><line stroke="rgb(0%,0%,0%)" x1="585.022613719" x2="586.742297271" y1="705.317296792" y2="702.532144577" /><line stroke="rgb(0%,0%,0%)" x1="586.742297271" x2="588.244392193" y1="702.532144577" y2="699.400798478" /><line stroke="rgb(0%,0%,0%)" x1="590.573869356" x2="588.244392193" y1="695.682109686" y2="699.400798478" /><line stroke="rgb(0%,0%,0%)" x1="590.573869356" x2="593.50268649" y1="695.682109686" y2="690.78753316" /><line stroke="rgb(0%,0%,0%)" x1="596.497533859" x2="601.726410929" y1="685.62198369" y2="674.776904514" /><line stroke="rgb(0%,0%,0%)" x1="601.726410929" x2="608.623213257" y1="674.776904514" y2="660.509651726" /><line stroke="rgb(0%,0%,0%)" x1="615.209181726" x2="615.95758232" y1="644.613896356" y2="642.475719907" /><line stroke="rgb(0%,0%,0%)" x1="615.95758232" x2="620.909080978" y1="642.475719907" y2="630.255453058" /><line stroke="rgb(0%,0%,0%)" x1="622.011745442" x2="620.909080978" y1="627.374562724" y2="630.255453058" /><line stroke="rgb(0%,0%,0%)" x1="624.684926688" x2="631.253443569" y1="622.399261184" y2="608.854657886" /><line stroke="rgb(0%,0%,0%)" x1="528.895827126" x2="527.223048424" y1="753.121208115" y2="754.119419349" /><line stroke="rgb(0%,0%,0%)" x1="528.895827126" x2="532.414753997" y1="753.121208115" y2="752.283027286" /><line stroke="rgb(0%,0%,0%)" x1="549.829511625" x2="545.497192152" y1="743.920960761" y2="746.421835876" /><line stroke="rgb(0%,0%,0%)" x1="552.521211989" x2="549.829511625" y1="741.993381714" y2="743.920960761" /><line stroke="rgb(0%,0%,0%)" x1="552.521211989" x2="554.185912432" y1="741.993381714" y2="740.729623519" /><line stroke="rgb(0%,0%,0%)" x1="554.185912432" x2="565.805240726" y1="740.729623519" y2="730.545769088" /><line stroke="rgb(0%,0%,0%)" x1="565.805240726" x2="574.431739214" y1="730.545769088" y2="722.032169321" /><line stroke="rgb(0%,0%,0%)" x1="581.006121898" x2="583.17178613" y1="711.273620465" y2="707.754640362" /><line stroke="rgb(0%,0%,0%)" x1="583.17178613" x2="585.022613719" y1="707.754640362" y2="705.317296792" /><line stroke="rgb(0%,0%,0%)" x1="608.623213257" x2="610.637998268" y1="660.509651726" y2="655.377562281" /><line stroke="rgb(0%,0%,0%)" x1="610.637998268" x2="612.192526375" y1="655.377562281" y2="651.997105258" /><line stroke="rgb(0%,0%,0%)" x1="463.321824295" x2="462.412206122" y1="775.302344188" y2="775.417395363" /><line stroke="rgb(0%,0%,0%)" x1="492.785989216" x2="499.814312227" y1="767.993683848" y2="765.246998419" /><line stroke="rgb(0%,0%,0%)" x1="499.814312227" x2="518.461985876" y1="765.246998419" y2="759.512088455" /><line stroke="rgb(0%,0%,0%)" x1="518.461985876" x2="527.223048424" y1="759.512088455" y2="754.119419349" /><line stroke="rgb(0%,0%,0%)" x1="538.144794891" x2="545.497192152" y1="750.270365156" y2="746.421835876" /><line stroke="rgb(0%,0%,0%)" x1="462.412206122" x2="458.380955862" y1="775.417395363" y2="776.357368505" /><line stroke="rgb(0%,0%,0%)" x1="463.321824295" x2="467.161904647" y1="775.302344188" y2="775.187969843" /><line stroke="rgb(0%,0%,0%)" x1="480.96697006" x2="485.576629571" y1="771.837867508" y2="770.987864751" /><line stroke="rgb(0%,0%,0%)" x1="492.785989216" x2="490.125846456" y1="767.993683848" y2="769.358009121" /><line stroke="rgb(0%,0%,0%)" x1="485.576629571" x2="490.125846456" y1="770.987864751" y2="769.358009121" /><line stroke="rgb(0%,0%,0%)" x1="532.414753997" x2="534.226620777" y1="752.283027286" y2="751.468784491" /><line stroke="rgb(0%,0%,0%)" x1="534.226620777" x2="538.144794891" y1="751.468784491" y2="750.270365156" /><line stroke="rgb(0%,0%,0%)" x1="448.024205204" x2="453.843722891" y1="777.431703789" y2="776.326571047" /><line stroke="rgb(0%,0%,0%)" x1="453.843722891" x2="458.380955862" y1="776.326571047" y2="776.357368505" /><line stroke="rgb(0%,0%,0%)" x1="476.139772747" x2="480.96697006" y1="772.557781453" y2="771.837867508" /><line stroke="rgb(0%,0%,0%)" x1="467.161904647" x2="476.139772747" y1="775.187969843" y2="772.557781453" /><line stroke="rgb(0%,0%,0%)" x1="403.573802143" x2="402.496921551" y1="771.832967429" y2="771.446934615" /><line stroke="rgb(0%,0%,0%)" x1="406.764215025" x2="419.833238331" y1="773.010111268" y2="776.908172689" /><line stroke="rgb(0%,0%,0%)" x1="403.573802143" x2="406.764215025" y1="771.832967429" y2="773.010111268" /><line stroke="rgb(0%,0%,0%)" x1="429.615412839" x2="419.833238331" y1="777.76790723" y2="776.908172689" /><line stroke="rgb(0%,0%,0%)" x1="444.128820659" x2="433.27492922" y1="777.262340282" y2="778.20451907" /><line stroke="rgb(0%,0%,0%)" x1="429.615412839" x2="433.27492922" y1="777.76790723" y2="778.20451907" /><line stroke="rgb(0%,0%,0%)" x1="444.128820659" x2="448.024205204" y1="777.262340282" y2="777.431703789" /><line stroke="rgb(0%,0%,0%)" x1="379.621496177" x2="368.191995163" y1="760.117452585" y2="753.749154146" /><line stroke="rgb(0%,0%,0%)" x1="392.51934453" x2="402.496921551" y1="765.588807437" y2="771.446934615" /><line stroke="rgb(0%,0%,0%)" x1="328.473926027" x2="327.686429317" y1="664.686192209" y2="664.540827822" /><line stroke="rgb(0%,0%,0%)" x1="343.002997835" x2="342.434835659" y1="723.031978295" y2="721.624566689" /><line stroke="rgb(0%,0%,0%)" x1="342.434835659" x2="342.390000809" y1="721.624566689" y2="720.27242004" /><line stroke="rgb(0%,0%,0%)" x1="347.407340846" x2="345.450953721" y1="707.600168339" y2="710.596071692" /><line stroke="rgb(0%,0%,0%)" x1="349.844290702" x2="350.01381302" y1="675.300579903" y2="676.105953804" /><line stroke="rgb(0%,0%,0%)" x1="349.844290702" x2="348.759144875" y1="675.300579903" y2="674.001469273" /><line stroke="rgb(0%,0%,0%)" x1="328.473926027" x2="330.691630709" y1="664.686192209" y2="665.208868203" /><line stroke="rgb(0%,0%,0%)" x1="346.903124129" x2="353.785854475" y1="731.406412577" y2="741.585263002" /><line stroke="rgb(0%,0%,0%)" x1="346.903124129" x2="345.802377904" y1="731.406412577" y2="730.103057888" /><line stroke="rgb(0%,0%,0%)" x1="343.002997835" x2="345.802377904" y1="723.031978295" y2="730.103057888" /><line stroke="rgb(0%,0%,0%)" x1="347.783019606" x2="347.407340846" y1="706.803395104" y2="707.600168339" /><line stroke="rgb(0%,0%,0%)" x1="350.285247865" x2="347.783019606" y1="699.351537859" y2="706.803395104" /><line stroke="rgb(0%,0%,0%)" x1="351.364186894" x2="350.914707698" y1="687.277141338" y2="689.110241236" /><line stroke="rgb(0%,0%,0%)" x1="350.914707698" x2="350.285247865" y1="689.110241236" y2="699.351537859" /><line stroke="rgb(0%,0%,0%)" x1="351.364186894" x2="351.399600679" y1="687.277141338" y2="685.330338565" /><line stroke="rgb(0%,0%,0%)" x1="350.01381302" x2="351.399600679" y1="676.105953804" y2="685.330338565" /><line stroke="rgb(0%,0%,0%)" x1="345.661408413" x2="348.759144875" y1="668.753536671" y2="674.001469273" /><line stroke="rgb(0%,0%,0%)" x1="353.785854475" x2="359.450723498" y1="741.585263002" y2="746.39341288" /><line stroke="rgb(0%,0%,0%)" x1="359.450723498" x2="368.191995163" y1="746.39341288" y2="753.749154146" /><line stroke="rgb(0%,0%,0%)" x1="379.621496177" x2="392.51934453" y1="760.117452585" y2="765.588807437" /><line stroke="rgb(0%,0%,0%)" x1="287.428081701" x2="285.866429891" y1="629.525941895" y2="627.254601129" /><line stroke="rgb(0%,0%,0%)" x1="268.103473485" x2="270.073608126" y1="501.116814232" y2="502.367845892" /><line stroke="rgb(0%,0%,0%)" x1="268.103473485" x2="267.734603073" y1="501.116814232" y2="500.782177745" /><line stroke="rgb(0%,0%,0%)" x1="287.199083256" x2="287.724691259" y1="516.796374021" y2="517.443948369" /><line stroke="rgb(0%,0%,0%)" x1="287.199083256" x2="286.454062632" y1="516.796374021" y2="515.996949671" /><line stroke="rgb(0%,0%,0%)" x1="287.428081701" x2="297.22039061" y1="629.525941895" y2="641.776989509" /><line stroke="rgb(0%,0%,0%)" x1="296.696437268" x2="295.134193029" y1="542.285077454" y2="542.295618333" /><line stroke="rgb(0%,0%,0%)" x1="296.696437268" x2="296.616261152" y1="542.285077454" y2="541.920094862" /><line stroke="rgb(0%,0%,0%)" x1="294.561462299" x2="295.414121939" y1="536.860323083" y2="539.561372496" /><line stroke="rgb(0%,0%,0%)" x1="293.111827719" x2="293.122848323" y1="532.433044592" y2="532.791052223" /><line stroke="rgb(0%,0%,0%)" x1="293.122848323" x2="294.561462299" y1="532.791052223" y2="536.860323083" /><line stroke="rgb(0%,0%,0%)" x1="293.111827719" x2="292.368480396" y1="532.433044592" y2="529.237951081" /><line stroke="rgb(0%,0%,0%)" x1="287.724691259" x2="289.843820183" y1="517.443948369" y2="522.341561723" /><line stroke="rgb(0%,0%,0%)" x1="327.686429317" x2="320.403500877" y1="664.540827822" y2="661.650399664" /><line stroke="rgb(0%,0%,0%)" x1="313.867309874" x2="320.403500877" y1="658.824973375" y2="661.650399664" /><line stroke="rgb(0%,0%,0%)" x1="308.251924059" x2="313.867309874" y1="655.243297869" y2="658.824973375" /><line stroke="rgb(0%,0%,0%)" x1="330.691630709" x2="340.680741406" y1="665.208868203" y2="668.100376576" /><line stroke="rgb(0%,0%,0%)" x1="345.450953721" x2="342.390000809" y1="710.596071692" y2="720.27242004" /><line stroke="rgb(0%,0%,0%)" x1="340.680741406" x2="343.714186286" y1="668.100376576" y2="667.958234072" /><line stroke="rgb(0%,0%,0%)" x1="343.714186286" x2="345.661408413" y1="667.958234072" y2="668.753536671" /><line stroke="rgb(0%,0%,0%)" x1="256.229141292" x2="260.710877867" y1="562.517841607" y2="567.275054596" /><line stroke="rgb(0%,0%,0%)" x1="246.304153948" x2="238.335251432" y1="556.076627555" y2="550.147644291" /><line stroke="rgb(0%,0%,0%)" x1="267.734603073" x2="266.623467168" y1="500.782177745" y2="499.336173235" /><line stroke="rgb(0%,0%,0%)" x1="256.916180841" x2="256.921828306" y1="480.852448963" y2="480.868934567" /><line stroke="rgb(0%,0%,0%)" x1="256.916180841" x2="256.914967806" y1="480.852448963" y2="480.843094436" /><line stroke="rgb(0%,0%,0%)" x1="248.333226668" x2="247.732994201" y1="471.778728833" y2="469.714196851" /><line stroke="rgb(0%,0%,0%)" x1="246.841144969" x2="247.192495275" y1="464.510957847" y2="466.625515784" /><line stroke="rgb(0%,0%,0%)" x1="247.192495275" x2="247.732994201" y1="466.625515784" y2="469.714196851" /><line stroke="rgb(0%,0%,0%)" x1="248.827790956" x2="249.049829837" y1="452.124255018" y2="454.837477706" /><line stroke="rgb(0%,0%,0%)" x1="249.049829837" x2="246.841144969" y1="454.837477706" y2="464.510957847" /><line stroke="rgb(0%,0%,0%)" x1="262.698330381" x2="265.384257787" y1="569.392676919" y2="572.448487976" /><line stroke="rgb(0%,0%,0%)" x1="262.698330381" x2="260.787223614" y1="569.392676919" y2="567.350809182" /><line stroke="rgb(0%,0%,0%)" x1="275.408694558" x2="261.600279891" y1="539.738986611" y2="535.544706379" /><line stroke="rgb(0%,0%,0%)" x1="270.073608126" x2="276.625469973" y1="502.367845892" y2="508.204764205" /><line stroke="rgb(0%,0%,0%)" x1="276.084830024" x2="275.151380251" y1="608.262943812" y2="605.757756243" /><line stroke="rgb(0%,0%,0%)" x1="276.084830024" x2="278.324061415" y1="608.262943812" y2="614.495056098" /><line stroke="rgb(0%,0%,0%)" x1="278.324061415" x2="285.866429891" y1="614.495056098" y2="627.254601129" /><line stroke="rgb(0%,0%,0%)" x1="275.406715127" x2="275.151380251" y1="599.232999651" y2="605.757756243" /><line stroke="rgb(0%,0%,0%)" x1="278.140546625" x2="276.037280795" y1="587.208129103" y2="592.026218214" /><line stroke="rgb(0%,0%,0%)" x1="278.140546625" x2="278.376606358" y1="587.208129103" y2="586.117681229" /><line stroke="rgb(0%,0%,0%)" x1="274.44873961" x2="276.177662906" y1="580.730114084" y2="583.52648176" /><line stroke="rgb(0%,0%,0%)" x1="276.177662906" x2="277.618110916" y1="583.52648176" y2="584.647705383" /><line stroke="rgb(0%,0%,0%)" x1="274.44873961" x2="273.358065896" y1="580.730114084" y2="579.683175598" /><line stroke="rgb(0%,0%,0%)" x1="275.408694558" x2="283.877515337" y1="539.738986611" y2="542.166229529" /><line stroke="rgb(0%,0%,0%)" x1="276.625469973" x2="286.454062632" y1="508.204764205" y2="515.996949671" /><line stroke="rgb(0%,0%,0%)" x1="297.22039061" x2="306.36150904" y1="641.776989509" y2="653.287252657" /><line stroke="rgb(0%,0%,0%)" x1="291.505077113" x2="283.877515337" y1="543.136392845" y2="542.166229529" /><line stroke="rgb(0%,0%,0%)" x1="294.090883981" x2="291.505077113" y1="543.75879871" y2="543.136392845" /><line stroke="rgb(0%,0%,0%)" x1="295.134193029" x2="294.090883981" y1="542.295618333" y2="543.75879871" /><line stroke="rgb(0%,0%,0%)" x1="295.414121939" x2="296.337327033" y1="539.561372496" y2="540.873780775" /><line stroke="rgb(0%,0%,0%)" x1="291.674770985" x2="292.368480396" y1="526.722928491" y2="529.237951081" /><line stroke="rgb(0%,0%,0%)" x1="291.608958571" x2="291.674770985" y1="526.381165948" y2="526.722928491" /><line stroke="rgb(0%,0%,0%)" x1="289.843820183" x2="291.608958571" y1="522.341561723" y2="526.381165948" /><line stroke="rgb(0%,0%,0%)" x1="307.538093613" x2="308.251924059" y1="654.333838644" y2="655.243297869" /><line stroke="rgb(0%,0%,0%)" x1="306.36150904" x2="307.538093613" y1="653.287252657" y2="654.333838644" /><line stroke="rgb(0%,0%,0%)" x1="296.337327033" x2="296.616261152" y1="540.873780775" y2="541.920094862" /><line stroke="rgb(0%,0%,0%)" x1="231.554043531" x2="234.727930508" y1="543.238000867" y2="546.81775206" /><line stroke="rgb(0%,0%,0%)" x1="230.021193831" x2="231.554043531" y1="541.426301938" y2="543.238000867" /><line stroke="rgb(0%,0%,0%)" x1="230.021193831" x2="229.698846853" y1="541.426301938" y2="540.815611275" /><line stroke="rgb(0%,0%,0%)" x1="227.516908079" x2="226.142360045" y1="536.725899806" y2="533.264522196" /><line stroke="rgb(0%,0%,0%)" x1="236.405443559" x2="238.335251432" y1="547.998171163" y2="550.147644291" /><line stroke="rgb(0%,0%,0%)" x1="236.112179436" x2="241.020042557" y1="523.527814373" y2="525.429536871" /><line stroke="rgb(0%,0%,0%)" x1="260.710877867" x2="260.787223614" y1="567.275054596" y2="567.350809182" /><line stroke="rgb(0%,0%,0%)" x1="246.304153948" x2="256.229141292" y1="556.076627555" y2="562.517841607" /><line stroke="rgb(0%,0%,0%)" x1="261.600279891" x2="241.020042557" y1="535.544706379" y2="525.429536871" /><line stroke="rgb(0%,0%,0%)" x1="248.333226668" x2="256.914967806" y1="471.778728833" y2="480.843094436" /><line stroke="rgb(0%,0%,0%)" x1="271.914549373" x2="273.358065896" y1="578.293639007" y2="579.683175598" /><line stroke="rgb(0%,0%,0%)" x1="265.384257787" x2="271.914549373" y1="572.448487976" y2="578.293639007" /><line stroke="rgb(0%,0%,0%)" x1="259.778002369" x2="266.623467168" y1="490.412112975" y2="499.336173235" /><line stroke="rgb(0%,0%,0%)" x1="256.921828306" x2="259.778002369" y1="480.868934567" y2="490.412112975" /><line stroke="rgb(0%,0%,0%)" x1="275.406715127" x2="275.583945766" y1="599.232999651" y2="595.865316727" /><line stroke="rgb(0%,0%,0%)" x1="275.573182612" x2="275.583945766" y1="593.950914486" y2="595.865316727" /><line stroke="rgb(0%,0%,0%)" x1="276.037280795" x2="275.573182612" y1="592.026218214" y2="593.950914486" /><line stroke="rgb(0%,0%,0%)" x1="277.618110916" x2="278.376606358" y1="584.647705383" y2="586.117681229" /><line stroke="rgb(0%,0%,0%)" x1="227.516908079" x2="229.698846853" y1="536.725899806" y2="540.815611275" /><line stroke="rgb(0%,0%,0%)" x1="225.436405228" x2="226.142360045" y1="530.307926134" y2="533.264522196" /><line stroke="rgb(0%,0%,0%)" x1="224.751355524" x2="224.290434032" y1="524.482656529" y2="525.298800267" /><line stroke="rgb(0%,0%,0%)" x1="224.290434032" x2="225.436405228" y1="525.298800267" y2="530.307926134" /><line stroke="rgb(0%,0%,0%)" x1="224.96679977" x2="224.751355524" y1="522.091528133" y2="524.482656529" /><line stroke="rgb(0%,0%,0%)" x1="234.727930508" x2="236.405443559" y1="546.81775206" y2="547.998171163" /><line stroke="rgb(0%,0%,0%)" x1="230.999976426" x2="227.712772746" y1="521.391095914" y2="520.674186621" /><line stroke="rgb(0%,0%,0%)" x1="224.96679977" x2="227.712772746" y1="522.091528133" y2="520.674186621" /><line stroke="rgb(0%,0%,0%)" x1="236.112179436" x2="230.999976426" y1="523.527814373" y2="521.391095914" /><line stroke="rgb(0%,0%,0%)" x1="672.951880427" x2="672.896668233" y1="457.591268064" y2="456.042644988" /></svg>