<?xml version="1.0" encoding="utf-8" ?>
<svg baseProfile="full" height="100%" version="1.1" viewBox="0.5 0.5 685.793960571 941.299331665" width="100%" xmlns="http://www.w3.org/2000/svg" xmlns:ev="http://www.w3.org/2001/xml-events" xmlns:xlink="http://www.w3.org/1999/xlink"><defs /><line stroke="rgb(0%,0%,0%)" x1="662.011102406" x2="661.595397318" y1="387.280588885" y2="385.133930424" /><line stroke="rgb(0%,0%,0%)" x1="662.011102406" x2="662.423176242" y1="387.280588885" y2="388.393016858" /><line stroke="rgb(0%,0%,0%)" x1="664.439619402" x2="664.551540179" y1="399.919168339" y2="400.781496119" /><line stroke="rgb(0%,0%,0%)" x1="640.521383862" x2="641.350732145" y1="319.970475664" y2="322.521383525" /><line stroke="rgb(0%,0%,0%)" x1="657.528971479" x2="658.657926188" y1="367.237238677" y2="372.573154379" /><line stroke="rgb(0%,0%,0%)" x1="657.528971479" x2="655.010026583" y1="367.237238677" y2="358.783684205" /><line stroke="rgb(0%,0%,0%)" x1="655.010026583" x2="654.800570789" y1="358.783684205" y2="358.199867602" /><line stroke="rgb(0%,0%,0%)" x1="672.506524823" x2="671.9040879" y1="457.112493251" y2="443.369056892" /><line stroke="rgb(0%,0%,0%)" x1="671.9040879" x2="670.667381535" y1="443.369056892" y2="440.632155056" /><line stroke="rgb(0%,0%,0%)" x1="670.667381535" x2="670.307105445" y1="440.632155056" y2="437.764987418" /><line stroke="rgb(0%,0%,0%)" x1="668.538583974" x2="667.814014151" y1="429.164331782" y2="422.813558163" /><line stroke="rgb(0%,0%,0%)" x1="665.49876552" x2="667.043990841" y1="411.920501261" y2="419.785442032" /><line stroke="rgb(0%,0%,0%)" x1="664.367676173" x2="664.801376651" y1="404.510411989" y2="405.934724459" /><line stroke="rgb(0%,0%,0%)" x1="664.367676173" x2="664.551540179" y1="404.510411989" y2="400.781496119" /><line stroke="rgb(0%,0%,0%)" x1="664.439619402" x2="664.476995948" y1="399.919168339" y2="399.235664822" /><line stroke="rgb(0%,0%,0%)" x1="638.251829376" x2="636.202076644" y1="311.113209186" y2="305.223537646" /><line stroke="rgb(0%,0%,0%)" x1="636.202076644" x2="631.945435746" y1="305.223537646" y2="291.172818977" /><line stroke="rgb(0%,0%,0%)" x1="661.595397318" x2="658.657926188" y1="385.133930424" y2="372.573154379" /><line stroke="rgb(0%,0%,0%)" x1="654.800570789" x2="652.780332092" y1="358.199867602" y2="352.755070789" /><line stroke="rgb(0%,0%,0%)" x1="670.307105445" x2="668.382790605" y1="437.764987418" y2="430.150088766" /><line stroke="rgb(0%,0%,0%)" x1="668.382790605" x2="668.538583974" y1="430.150088766" y2="429.164331782" /><line stroke="rgb(0%,0%,0%)" x1="665.49876552" x2="664.899268602" y1="411.920501261" y2="407.818694358" /><line stroke="rgb(0%,0%,0%)" x1="664.476995948" x2="662.610546096" y1="399.235664822" y2="392.977882583" /><line stroke="rgb(0%,0%,0%)" x1="662.610546096" x2="662.423176242" y1="392.977882583" y2="388.393016858" /><line stroke="rgb(0%,0%,0%)" x1="589.217502084" x2="591.755785304" y1="214.819446827" y2="217.321467963" /><line stroke="rgb(0%,0%,0%)" x1="607.807260492" x2="611.719516033" y1="237.468323836" y2="245.020238041" /><line stroke="rgb(0%,0%,0%)" x1="605.516162136" x2="601.464335114" y1="233.490663526" y2="226.670453995" /><line stroke="rgb(0%,0%,0%)" x1="620.467720358" x2="624.563667464" y1="260.997446759" y2="271.910820476" /><line stroke="rgb(0%,0%,0%)" x1="631.945435746" x2="629.397024022" y1="291.172818977" y2="285.107082664" /><line stroke="rgb(0%,0%,0%)" x1="629.397024022" x2="626.241406995" y1="285.107082664" y2="276.650140492" /><line stroke="rgb(0%,0%,0%)" x1="648.682022588" x2="648.42423294" y1="342.20130097" y2="341.424627457" /><line stroke="rgb(0%,0%,0%)" x1="646.491873447" x2="648.42423294" y1="337.437750308" y2="341.424627457" /><line stroke="rgb(0%,0%,0%)" x1="646.491873447" x2="644.225632152" y1="337.437750308" y2="331.844252412" /><line stroke="rgb(0%,0%,0%)" x1="644.225632152" x2="643.884461518" y1="331.844252412" y2="329.434814772" /><line stroke="rgb(0%,0%,0%)" x1="643.884461518" x2="641.350732145" y1="329.434814772" y2="322.521383525" /><line stroke="rgb(0%,0%,0%)" x1="640.521383862" x2="638.251829376" y1="319.970475664" y2="311.113209186" /><line stroke="rgb(0%,0%,0%)" x1="652.780332092" x2="648.682022588" y1="352.755070789" y2="342.20130097" /><line stroke="rgb(0%,0%,0%)" x1="667.814014151" x2="667.043990841" y1="422.813558163" y2="419.785442032" /><line stroke="rgb(0%,0%,0%)" x1="664.899268602" x2="664.801376651" y1="407.818694358" y2="405.934724459" /><line stroke="rgb(0%,0%,0%)" x1="553.925513667" x2="558.918742481" y1="184.492438249" y2="185.933351726" /><line stroke="rgb(0%,0%,0%)" x1="576.120596844" x2="572.378258159" y1="202.365831689" y2="195.454517622" /><line stroke="rgb(0%,0%,0%)" x1="577.114109425" x2="576.120596844" y1="204.42074392" y2="202.365831689" /><line stroke="rgb(0%,0%,0%)" x1="586.911689871" x2="584.920228544" y1="212.402603184" y2="211.416143944" /><line stroke="rgb(0%,0%,0%)" x1="584.920228544" x2="584.123374533" y1="211.416143944" y2="211.070194151" /><line stroke="rgb(0%,0%,0%)" x1="580.515530248" x2="584.123374533" y1="208.531613424" y2="211.070194151" /><line stroke="rgb(0%,0%,0%)" x1="580.515530248" x2="577.839021968" y1="208.531613424" y2="205.053504994" /><line stroke="rgb(0%,0%,0%)" x1="577.114109425" x2="577.839021968" y1="204.42074392" y2="205.053504994" /><line stroke="rgb(0%,0%,0%)" x1="601.464335114" x2="599.835302293" y1="226.670453995" y2="224.957913218" /><line stroke="rgb(0%,0%,0%)" x1="595.078263583" x2="599.835302293" y1="219.647064532" y2="224.957913218" /><line stroke="rgb(0%,0%,0%)" x1="595.078263583" x2="591.755785304" y1="219.647064532" y2="217.321467963" /><line stroke="rgb(0%,0%,0%)" x1="589.217502084" x2="586.911689871" y1="214.819446827" y2="212.402603184" /><line stroke="rgb(0%,0%,0%)" x1="612.473434943" x2="616.374048461" y1="246.119411355" y2="252.336368925" /><line stroke="rgb(0%,0%,0%)" x1="612.473434943" x2="611.719516033" y1="246.119411355" y2="245.020238041" /><line stroke="rgb(0%,0%,0%)" x1="607.807260492" x2="605.516162136" y1="237.468323836" y2="233.490663526" /><line stroke="rgb(0%,0%,0%)" x1="624.670823648" x2="624.563667464" y1="272.791072001" y2="271.910820476" /><line stroke="rgb(0%,0%,0%)" x1="620.467720358" x2="620.13305082" y1="260.997446759" y2="259.528311904" /><line stroke="rgb(0%,0%,0%)" x1="620.13305082" x2="616.893304315" y1="259.528311904" y2="252.96586958" /><line stroke="rgb(0%,0%,0%)" x1="616.893304315" x2="616.374048461" y1="252.96586958" y2="252.336368925" /><line stroke="rgb(0%,0%,0%)" x1="626.241406995" x2="624.670823648" y1="276.650140492" y2="272.791072001" /><line stroke="rgb(0%,0%,0%)" x1="489.89288109" x2="499.020214787" y1="159.397789854" y2="162.018177634" /><line stroke="rgb(0%,0%,0%)" x1="489.89288109" x2="483.360892504" y1="159.397789854" y2="156.680668122" /><line stroke="rgb(0%,0%,0%)" x1="516.731420808" x2="525.18502379" y1="168.838017717" y2="171.988668202" /><line stroke="rgb(0%,0%,0%)" x1="525.18502379" x2="528.70719109" y1="171.988668202" y2="172.940781428" /><line stroke="rgb(0%,0%,0%)" x1="553.925513667" x2="548.412307567" y1="184.492438249" y2="182.009074737" /><line stroke="rgb(0%,0%,0%)" x1="548.412307567" x2="542.332941082" y1="182.009074737" y2="179.296745625" /><line stroke="rgb(0%,0%,0%)" x1="542.332941082" x2="539.812282125" y1="179.296745625" y2="177.6643512" /><line stroke="rgb(0%,0%,0%)" x1="561.923799504" x2="558.918742481" y1="186.352398671" y2="185.933351726" /><line stroke="rgb(0%,0%,0%)" x1="561.923799504" x2="565.799801764" y1="186.352398671" y2="189.653187678" /><line stroke="rgb(0%,0%,0%)" x1="572.378258159" x2="570.507586049" y1="195.454517622" y2="192.973120999" /><line stroke="rgb(0%,0%,0%)" x1="570.507586049" x2="565.799801764" y1="192.973120999" y2="189.653187678" /><line stroke="rgb(0%,0%,0%)" x1="466.108945318" x2="466.472386875" y1="150.024031366" y2="150.090838049" /><line stroke="rgb(0%,0%,0%)" x1="539.812282125" x2="536.606636836" y1="177.6643512" y2="176.680625953" /><line stroke="rgb(0%,0%,0%)" x1="433.537177849" x2="434.505381991" y1="139.764597375" y2="140.073090103" /><line stroke="rgb(0%,0%,0%)" x1="434.505381991" x2="442.700565427" y1="140.073090103" y2="142.448500012" /><line stroke="rgb(0%,0%,0%)" x1="466.108945318" x2="465.059549292" y1="150.024031366" y2="149.674749582" /><line stroke="rgb(0%,0%,0%)" x1="483.360892504" x2="466.472386875" y1="156.680668122" y2="150.090838049" /><line stroke="rgb(0%,0%,0%)" x1="516.731420808" x2="499.020214787" y1="168.838017717" y2="162.018177634" /><line stroke="rgb(0%,0%,0%)" x1="536.606636836" x2="528.70719109" y1="176.680625953" y2="172.940781428" /><line stroke="rgb(0%,0%,0%)" x1="414.996682509" x2="409.870205486" y1="135.635825476" y2="134.907198433" /><line stroke="rgb(0%,0%,0%)" x1="414.996682509" x2="416.817960803" y1="135.635825476" y2="136.138483846" /><line stroke="rgb(0%,0%,0%)" x1="433.537177849" x2="431.396857432" y1="139.764597375" y2="139.281738668" /><line stroke="rgb(0%,0%,0%)" x1="431.396857432" x2="426.481802832" y1="139.281738668" y2="137.479869428" /><line stroke="rgb(0%,0%,0%)" x1="465.059549292" x2="455.894845273" y1="149.674749582" y2="147.14305356" /><line stroke="rgb(0%,0%,0%)" x1="381.701106055" x2="381.092936661" y1="136.928372274" y2="137.177393663" /><line stroke="rgb(0%,0%,0%)" x1="381.701106055" x2="382.555799769" y1="136.928372274" y2="136.757664949" /><line stroke="rgb(0%,0%,0%)" x1="395.303074287" x2="395.31016326" y1="133.760447451" y2="133.760495092" /><line stroke="rgb(0%,0%,0%)" x1="395.301505884" x2="395.303074287" y1="133.760436568" y2="133.760447451" /><line stroke="rgb(0%,0%,0%)" x1="409.870205486" x2="404.462072276" y1="134.907198433" y2="134.496465495" /><line stroke="rgb(0%,0%,0%)" x1="404.462072276" x2="395.31016326" y1="134.496465495" y2="133.760495092" /><line stroke="rgb(0%,0%,0%)" x1="426.481802832" x2="416.817960803" y1="137.479869428" y2="136.138483846" /><line stroke="rgb(0%,0%,0%)" x1="455.894845273" x2="442.700565427" y1="147.14305356" y2="142.448500012" /><line stroke="rgb(0%,0%,0%)" x1="381.092936661" x2="378.344807572" y1="137.177393663" y2="138.860823736" /><line stroke="rgb(0%,0%,0%)" x1="378.344807572" x2="373.248602043" y1="138.860823736" y2="142.496288642" /><line stroke="rgb(0%,0%,0%)" x1="395.301505884" x2="382.555799769" y1="133.760436568" y2="136.757664949" /><line stroke="rgb(0%,0%,0%)" x1="333.984131292" x2="334.078336965" y1="232.234880649" y2="232.082635069" /><line stroke="rgb(0%,0%,0%)" x1="333.984131292" x2="325.554279205" y1="232.234880649" y2="235.867286924" /><line stroke="rgb(0%,0%,0%)" x1="342.771205307" x2="350.998165993" y1="155.612444213" y2="151.485373559" /><line stroke="rgb(0%,0%,0%)" x1="359.476356735" x2="358.434473186" y1="147.645921151" y2="148.220133482" /><line stroke="rgb(0%,0%,0%)" x1="355.685594576" x2="358.434473186" y1="149.455078543" y2="148.220133482" /><line stroke="rgb(0%,0%,0%)" x1="366.807960807" x2="365.829303471" y1="144.410644524" y2="144.846990848" /><line stroke="rgb(0%,0%,0%)" x1="373.248602043" x2="366.807960807" y1="142.496288642" y2="144.410644524" /><line stroke="rgb(0%,0%,0%)" x1="361.428333826" x2="365.829303471" y1="147.397320596" y2="144.846990848" /><line stroke="rgb(0%,0%,0%)" x1="325.554279205" x2="325.37755665" y1="235.867286924" y2="235.957630014" /><line stroke="rgb(0%,0%,0%)" x1="325.37755665" x2="318.091522824" y1="235.957630014" y2="241.761001018" /><line stroke="rgb(0%,0%,0%)" x1="318.091522824" x2="308.829597778" y1="241.761001018" y2="249.957371382" /><line stroke="rgb(0%,0%,0%)" x1="328.713577244" x2="327.666478782" y1="204.221718478" y2="200.889189544" /><line stroke="rgb(0%,0%,0%)" x1="328.713577244" x2="330.436239152" y1="204.221718478" y2="209.906493622" /><line stroke="rgb(0%,0%,0%)" x1="327.666478782" x2="328.898885073" y1="200.889189544" y2="186.593368957" /><line stroke="rgb(0%,0%,0%)" x1="335.930697195" x2="334.078336965" y1="229.954694735" y2="232.082635069" /><line stroke="rgb(0%,0%,0%)" x1="336.001421728" x2="335.930697195" y1="227.771648916" y2="229.954694735" /><line stroke="rgb(0%,0%,0%)" x1="330.436239152" x2="336.001421728" y1="209.906493622" y2="227.771648916" /><line stroke="rgb(0%,0%,0%)" x1="328.902420983" x2="328.898885073" y1="185.439573844" y2="186.593368957" /><line stroke="rgb(0%,0%,0%)" x1="334.900612931" x2="329.385144365" y1="167.029491448" y2="183.786040267" /><line stroke="rgb(0%,0%,0%)" x1="339.270186303" x2="334.900612931" y1="159.501894224" y2="167.029491448" /><line stroke="rgb(0%,0%,0%)" x1="342.771205307" x2="339.270186303" y1="155.612444213" y2="159.501894224" /><line stroke="rgb(0%,0%,0%)" x1="355.685594576" x2="350.998165993" y1="149.455078543" y2="151.485373559" /><line stroke="rgb(0%,0%,0%)" x1="361.428333826" x2="359.476356735" y1="147.397320596" y2="147.645921151" /><line stroke="rgb(0%,0%,0%)" x1="261.210720444" x2="262.603487815" y1="338.7699155" y2="337.32905756" /><line stroke="rgb(0%,0%,0%)" x1="271.595536324" x2="275.176007777" y1="400.763665378" y2="397.592830848" /><line stroke="rgb(0%,0%,0%)" x1="276.336099727" x2="286.613884227" y1="288.94967184" y2="279.297073876" /><line stroke="rgb(0%,0%,0%)" x1="269.628140583" x2="267.217712687" y1="297.377517611" y2="299.648049212" /><line stroke="rgb(0%,0%,0%)" x1="276.336099727" x2="269.628140583" y1="288.94967184" y2="297.377517611" /><line stroke="rgb(0%,0%,0%)" x1="281.727304206" x2="284.966819184" y1="392.298775146" y2="387.764550367" /><line stroke="rgb(0%,0%,0%)" x1="290.14277832" x2="290.782687781" y1="364.66952236" y2="364.725274315" /><line stroke="rgb(0%,0%,0%)" x1="290.782687781" x2="290.864297586" y1="364.725274315" y2="365.369897844" /><line stroke="rgb(0%,0%,0%)" x1="294.633117556" x2="292.012812823" y1="270.174329057" y2="274.314517125" /><line stroke="rgb(0%,0%,0%)" x1="294.633117556" x2="302.15192375" y1="270.174329057" y2="259.100429258" /><line stroke="rgb(0%,0%,0%)" x1="306.978801274" x2="302.15192375" y1="252.288856109" y2="259.100429258" /><line stroke="rgb(0%,0%,0%)" x1="308.829597778" x2="306.978801274" y1="249.957371382" y2="252.288856109" /><line stroke="rgb(0%,0%,0%)" x1="328.97311139" x2="328.902420983" y1="185.151269095" y2="185.439573844" /><line stroke="rgb(0%,0%,0%)" x1="328.993385187" x2="328.97311139" y1="185.020657881" y2="185.151269095" /><line stroke="rgb(0%,0%,0%)" x1="329.385144365" x2="328.993385187" y1="183.786040267" y2="185.020657881" /><line stroke="rgb(0%,0%,0%)" x1="247.618794348" x2="248.591288962" y1="452.157197705" y2="449.507778541" /><line stroke="rgb(0%,0%,0%)" x1="251.760392154" x2="248.591288962" y1="439.525322429" y2="449.507778541" /><line stroke="rgb(0%,0%,0%)" x1="251.760392154" x2="255.348618848" y1="439.525322429" y2="433.494035012" /><line stroke="rgb(0%,0%,0%)" x1="259.543222376" x2="260.987555932" y1="321.4560995" y2="324.264492653" /><line stroke="rgb(0%,0%,0%)" x1="260.790797113" x2="259.910342551" y1="314.4756842" y2="318.37433405" /><line stroke="rgb(0%,0%,0%)" x1="259.850803527" x2="261.182505559" y1="426.35815927" y2="420.449271306" /><line stroke="rgb(0%,0%,0%)" x1="264.760384293" x2="263.760425086" y1="408.082055859" y2="409.680197588" /><line stroke="rgb(0%,0%,0%)" x1="270.193979963" x2="266.567852087" y1="366.466382409" y2="367.665730008" /><line stroke="rgb(0%,0%,0%)" x1="261.210720444" x2="258.030963783" y1="338.7699155" y2="340.695222315" /><line stroke="rgb(0%,0%,0%)" x1="262.603487815" x2="267.461898819" y1="337.32905756" y2="333.882560676" /><line stroke="rgb(0%,0%,0%)" x1="268.51421717" x2="267.461898819" y1="332.968920048" y2="333.882560676" /><line stroke="rgb(0%,0%,0%)" x1="266.456755208" x2="267.217712687" y1="301.269737557" y2="299.648049212" /><line stroke="rgb(0%,0%,0%)" x1="271.595536324" x2="264.760384293" y1="400.763665378" y2="408.082055859" /><line stroke="rgb(0%,0%,0%)" x1="281.727304206" x2="275.176007777" y1="392.298775146" y2="397.592830848" /><line stroke="rgb(0%,0%,0%)" x1="273.182773905" x2="270.193979963" y1="365.839026909" y2="366.466382409" /><line stroke="rgb(0%,0%,0%)" x1="273.182773905" x2="286.293145969" y1="365.839026909" y2="364.332117486" /><line stroke="rgb(0%,0%,0%)" x1="286.293145969" x2="290.14277832" y1="364.332117486" y2="364.66952236" /><line stroke="rgb(0%,0%,0%)" x1="268.51421717" x2="269.159860351" y1="332.968920048" y2="329.807756218" /><line stroke="rgb(0%,0%,0%)" x1="269.24655752" x2="269.29780721" y1="329.619493503" y2="329.625203677" /><line stroke="rgb(0%,0%,0%)" x1="286.059500544" x2="284.966819184" y1="384.84830443" y2="387.764550367" /><line stroke="rgb(0%,0%,0%)" x1="286.693527102" x2="286.059500544" y1="383.453125909" y2="384.84830443" /><line stroke="rgb(0%,0%,0%)" x1="286.693527102" x2="288.857427594" y1="383.453125909" y2="374.981368332" /><line stroke="rgb(0%,0%,0%)" x1="289.187174783" x2="288.857427594" y1="373.683581096" y2="374.981368332" /><line stroke="rgb(0%,0%,0%)" x1="289.611639438" x2="289.523615" y1="371.227966714" y2="373.146699934" /><line stroke="rgb(0%,0%,0%)" x1="291.442255887" x2="289.611639438" y1="368.460320087" y2="371.227966714" /><line stroke="rgb(0%,0%,0%)" x1="291.442255887" x2="291.041340207" y1="368.460320087" y2="366.828800482" /><line stroke="rgb(0%,0%,0%)" x1="290.864297586" x2="291.041340207" y1="365.369897844" y2="366.828800482" /><line stroke="rgb(0%,0%,0%)" x1="292.012812823" x2="289.509342548" y1="274.314517125" y2="276.493015043" /><line stroke="rgb(0%,0%,0%)" x1="289.509342548" x2="286.613884227" y1="276.493015043" y2="279.297073876" /><line stroke="rgb(0%,0%,0%)" x1="233.167067808" x2="234.941139717" y1="378.346547078" y2="377.77921103" /><line stroke="rgb(0%,0%,0%)" x1="228.615837679" x2="228.598880601" y1="368.123261811" y2="368.301621185" /><line stroke="rgb(0%,0%,0%)" x1="228.615837679" x2="228.820648528" y1="368.123261811" y2="367.411699763" /><line stroke="rgb(0%,0%,0%)" x1="228.820648528" x2="228.976007325" y1="367.411699763" y2="366.786966" /><line stroke="rgb(0%,0%,0%)" x1="234.941139717" x2="239.885825709" y1="377.77921103" y2="375.299317866" /><line stroke="rgb(0%,0%,0%)" x1="230.75119609" x2="238.821786953" y1="361.869638929" y2="353.717939662" /><line stroke="rgb(0%,0%,0%)" x1="256.651222021" x2="255.348618848" y1="430.655339006" y2="433.494035012" /><line stroke="rgb(0%,0%,0%)" x1="239.885825709" x2="244.487728667" y1="375.299317866" y2="374.745026925" /><line stroke="rgb(0%,0%,0%)" x1="250.851878137" x2="244.487728667" y1="371.514384739" y2="374.745026925" /><line stroke="rgb(0%,0%,0%)" x1="243.211074857" x2="239.945919332" y1="350.951608986" y2="352.779590629" /><line stroke="rgb(0%,0%,0%)" x1="243.211074857" x2="246.218947826" y1="350.951608986" y2="348.821938452" /><line stroke="rgb(0%,0%,0%)" x1="249.23689332" x2="255.406688338" y1="346.810542306" y2="342.857601592" /><line stroke="rgb(0%,0%,0%)" x1="249.23689332" x2="246.218947826" y1="346.810542306" y2="348.821938452" /><line stroke="rgb(0%,0%,0%)" x1="259.850803527" x2="256.651222021" y1="426.35815927" y2="430.655339006" /><line stroke="rgb(0%,0%,0%)" x1="261.266869083" x2="261.182505559" y1="416.677405002" y2="420.449271306" /><line stroke="rgb(0%,0%,0%)" x1="262.053419441" x2="261.266869083" y1="414.005078342" y2="416.677405002" /><line stroke="rgb(0%,0%,0%)" x1="263.760425086" x2="262.053419441" y1="409.680197588" y2="414.005078342" /><line stroke="rgb(0%,0%,0%)" x1="250.851878137" x2="266.567852087" y1="371.514384739" y2="367.665730008" /><line stroke="rgb(0%,0%,0%)" x1="258.030963783" x2="255.406688338" y1="340.695222315" y2="342.857601592" /><line stroke="rgb(0%,0%,0%)" x1="262.769354855" x2="269.24655752" y1="326.356259598" y2="329.619493503" /><line stroke="rgb(0%,0%,0%)" x1="260.987555932" x2="262.769354855" y1="324.264492653" y2="326.356259598" /><line stroke="rgb(0%,0%,0%)" x1="259.910342551" x2="259.543222376" y1="318.37433405" y2="321.4560995" /><line stroke="rgb(0%,0%,0%)" x1="262.127784202" x2="260.790797113" y1="310.92963044" y2="314.4756842" /><line stroke="rgb(0%,0%,0%)" x1="269.29780721" x2="269.159860351" y1="329.625203677" y2="329.807756218" /><line stroke="rgb(0%,0%,0%)" x1="266.456755208" x2="264.076000896" y1="301.269737557" y2="306.17689712" /><line stroke="rgb(0%,0%,0%)" x1="264.076000896" x2="262.127784202" y1="306.17689712" y2="310.92963044" /><line stroke="rgb(0%,0%,0%)" x1="289.523615" x2="289.187174783" y1="373.146699934" y2="373.683581096" /><line stroke="rgb(0%,0%,0%)" x1="229.309576659" x2="227.903053495" y1="372.97813521" y2="377.547517507" /><line stroke="rgb(0%,0%,0%)" x1="228.598880601" x2="229.309576659" y1="368.301621185" y2="372.97813521" /><line stroke="rgb(0%,0%,0%)" x1="233.167067808" x2="228.082249811" y1="378.346547078" y2="377.534846379" /><line stroke="rgb(0%,0%,0%)" x1="227.903053495" x2="227.927208676" y1="377.547517507" y2="377.572054789" /><line stroke="rgb(0%,0%,0%)" x1="227.927208676" x2="228.082249811" y1="377.572054789" y2="377.534846379" /><line stroke="rgb(0%,0%,0%)" x1="230.302842573" x2="228.976007325" y1="363.09162555" y2="366.786966" /><line stroke="rgb(0%,0%,0%)" x1="230.75119609" x2="230.302842573" y1="361.869638929" y2="363.09162555" /><line stroke="rgb(0%,0%,0%)" x1="239.945919332" x2="238.821786953" y1="352.779590629" y2="353.717939662" /><line stroke="rgb(0%,0%,0%)" x1="670.567627882" x2="670.740118315" y1="470.394246378" y2="469.556213017" /><line stroke="rgb(0%,0%,0%)" x1="672.534579184" x2="672.576538284" y1="457.7938933" y2="458.403061142" /><line stroke="rgb(0%,0%,0%)" x1="672.524833041" x2="672.534579184" y1="457.6260126" y2="457.7938933" /><line stroke="rgb(0%,0%,0%)" x1="642.337288604" x2="641.36985651" y1="578.700713713" y2="581.086806231" /><line stroke="rgb(0%,0%,0%)" x1="642.337288604" x2="642.744022937" y1="578.700713713" y2="577.358113905" /><line stroke="rgb(0%,0%,0%)" x1="655.750220879" x2="656.21153273" y1="535.410078163" y2="533.983321694" /><line stroke="rgb(0%,0%,0%)" x1="664.72380492" x2="665.87222401" y1="505.136290009" y2="499.542060751" /><line stroke="rgb(0%,0%,0%)" x1="665.87222401" x2="667.308285427" y1="499.542060751" y2="492.282362364" /><line stroke="rgb(0%,0%,0%)" x1="668.913588025" x2="668.317028546" y1="480.426204829" y2="486.00944524" /><line stroke="rgb(0%,0%,0%)" x1="670.567627882" x2="670.424076698" y1="470.394246378" y2="472.253265638" /><line stroke="rgb(0%,0%,0%)" x1="670.724913604" x2="670.740118315" y1="468.898044251" y2="469.556213017" /><line stroke="rgb(0%,0%,0%)" x1="670.724913604" x2="671.448377371" y1="468.898044251" y2="467.135547145" /><line stroke="rgb(0%,0%,0%)" x1="631.436471609" x2="641.36985651" y1="603.342199089" y2="581.086806231" /><line stroke="rgb(0%,0%,0%)" x1="642.744022937" x2="644.009573079" y1="577.358113905" y2="574.652355254" /><line stroke="rgb(0%,0%,0%)" x1="647.021813793" x2="646.669600783" y1="563.412550579" y2="566.844228156" /><line stroke="rgb(0%,0%,0%)" x1="647.021813793" x2="648.899999707" y1="563.412550579" y2="557.994086395" /><line stroke="rgb(0%,0%,0%)" x1="648.899999707" x2="651.538609782" y1="557.994086395" y2="550.068922713" /><line stroke="rgb(0%,0%,0%)" x1="652.737268375" x2="653.948594185" y1="546.465783129" y2="541.366600937" /><line stroke="rgb(0%,0%,0%)" x1="655.750220879" x2="655.366965389" y1="535.410078163" y2="537.383918487" /><line stroke="rgb(0%,0%,0%)" x1="653.948594185" x2="655.366965389" y1="541.366600937" y2="537.383918487" /><line stroke="rgb(0%,0%,0%)" x1="656.21153273" x2="657.807927727" y1="533.983321694" y2="528.980904294" /><line stroke="rgb(0%,0%,0%)" x1="660.036994423" x2="661.956043224" y1="519.771534852" y2="514.090575589" /><line stroke="rgb(0%,0%,0%)" x1="663.072341168" x2="662.273455232" y1="507.864033732" y2="512.994184828" /><line stroke="rgb(0%,0%,0%)" x1="663.072341168" x2="664.72380492" y1="507.864033732" y2="505.136290009" /><line stroke="rgb(0%,0%,0%)" x1="668.913588025" x2="670.424076698" y1="480.426204829" y2="472.253265638" /><line stroke="rgb(0%,0%,0%)" x1="672.026982217" x2="672.576538284" y1="464.121040726" y2="458.403061142" /><line stroke="rgb(0%,0%,0%)" x1="578.752481578" x2="577.029364095" y1="713.054345431" y2="715.829584519" /><line stroke="rgb(0%,0%,0%)" x1="578.752481578" x2="579.471178738" y1="713.054345431" y2="712.141559437" /><line stroke="rgb(0%,0%,0%)" x1="579.471178738" x2="579.72474497" y1="712.141559437" y2="711.698339337" /><line stroke="rgb(0%,0%,0%)" x1="593.606013884" x2="593.073428229" y1="688.515548763" y2="689.776380331" /><line stroke="rgb(0%,0%,0%)" x1="593.606013884" x2="595.076146702" y1="688.515548763" y2="686.322066948" /><line stroke="rgb(0%,0%,0%)" x1="614.158215824" x2="611.911410194" y1="644.301893032" y2="649.800908799" /><line stroke="rgb(0%,0%,0%)" x1="621.128875381" x2="622.615928238" y1="626.68490634" y2="623.917216576" /><line stroke="rgb(0%,0%,0%)" x1="631.436471609" x2="630.493972051" y1="603.342199089" y2="607.672304652" /><line stroke="rgb(0%,0%,0%)" x1="644.009573079" x2="645.635914498" y1="574.652355254" y2="570.204538453" /><line stroke="rgb(0%,0%,0%)" x1="645.635914498" x2="646.669600783" y1="570.204538453" y2="566.844228156" /><line stroke="rgb(0%,0%,0%)" x1="651.538609782" x2="652.737268375" y1="550.068922713" y2="546.465783129" /><line stroke="rgb(0%,0%,0%)" x1="657.807927727" x2="658.444096502" y1="528.980904294" y2="526.015508104" /><line stroke="rgb(0%,0%,0%)" x1="658.444096502" x2="658.730872281" y1="526.015508104" y2="525.257919935" /><line stroke="rgb(0%,0%,0%)" x1="659.261168304" x2="658.730872281" y1="521.114703084" y2="525.257919935" /><line stroke="rgb(0%,0%,0%)" x1="659.261168304" x2="660.036994423" y1="521.114703084" y2="519.771534852" /><line stroke="rgb(0%,0%,0%)" x1="661.956043224" x2="662.273455232" y1="514.090575589" y2="512.994184828" /><line stroke="rgb(0%,0%,0%)" x1="667.308285427" x2="667.365394428" y1="492.282362364" y2="489.612676662" /><line stroke="rgb(0%,0%,0%)" x1="667.365394428" x2="668.317028546" y1="489.612676662" y2="486.00944524" /><line stroke="rgb(0%,0%,0%)" x1="671.448377371" x2="672.026982217" y1="467.135547145" y2="464.121040726" /><line stroke="rgb(0%,0%,0%)" x1="577.029364095" x2="574.761729365" y1="715.829584519" y2="719.938697818" /><line stroke="rgb(0%,0%,0%)" x1="584.597030042" x2="585.966814787" y1="704.472902759" y2="702.254437036" /><line stroke="rgb(0%,0%,0%)" x1="585.966814787" x2="587.795775741" y1="702.254437036" y2="698.441688811" /><line stroke="rgb(0%,0%,0%)" x1="589.862047097" x2="587.795775741" y1="695.143171763" y2="698.441688811" /><line stroke="rgb(0%,0%,0%)" x1="589.862047097" x2="593.073428229" y1="695.143171763" y2="689.776380331" /><line stroke="rgb(0%,0%,0%)" x1="595.076146702" x2="600.977600531" y1="686.322066948" y2="674.082013647" /><line stroke="rgb(0%,0%,0%)" x1="600.977600531" x2="606.654195271" y1="674.082013647" y2="662.338975603" /><line stroke="rgb(0%,0%,0%)" x1="614.158215824" x2="614.992928711" y1="644.301893032" y2="641.91712283" /><line stroke="rgb(0%,0%,0%)" x1="614.992928711" x2="620.51547876" y1="641.91712283" y2="628.287504822" /><line stroke="rgb(0%,0%,0%)" x1="621.128875381" x2="620.51547876" y1="626.68490634" y2="628.287504822" /><line stroke="rgb(0%,0%,0%)" x1="622.615928238" x2="630.493972051" y1="623.917216576" y2="607.672304652" /><line stroke="rgb(0%,0%,0%)" x1="528.681383497" x2="527.81858686" y1="751.852131476" y2="752.366995334" /><line stroke="rgb(0%,0%,0%)" x1="528.681383497" x2="530.4963984" y1="751.852131476" y2="751.419809137" /><line stroke="rgb(0%,0%,0%)" x1="550.056511346" x2="548.161698365" y1="742.41160496" y2="743.505404866" /><line stroke="rgb(0%,0%,0%)" x1="551.233771893" x2="550.056511346" y1="741.568545757" y2="742.41160496" /><line stroke="rgb(0%,0%,0%)" x1="551.233771893" x2="551.961856705" y1="741.568545757" y2="741.015819799" /><line stroke="rgb(0%,0%,0%)" x1="551.961856705" x2="565.172831451" y1="741.015819799" y2="729.436953938" /><line stroke="rgb(0%,0%,0%)" x1="565.172831451" x2="572.379494265" y1="729.436953938" y2="722.32460784" /><line stroke="rgb(0%,0%,0%)" x1="574.120905124" x2="574.761729365" y1="720.570341729" y2="719.938697818" /><line stroke="rgb(0%,0%,0%)" x1="579.72474497" x2="582.351846924" y1="711.698339337" y2="707.429570723" /><line stroke="rgb(0%,0%,0%)" x1="582.351846924" x2="584.597030042" y1="707.429570723" y2="704.472902759" /><line stroke="rgb(0%,0%,0%)" x1="606.654195271" x2="609.621757228" y1="662.338975603" y2="654.779958974" /><line stroke="rgb(0%,0%,0%)" x1="609.621757228" x2="611.911410194" y1="654.779958974" y2="649.800908799" /><line stroke="rgb(0%,0%,0%)" x1="462.539222547" x2="462.203293675" y1="774.554961442" y2="774.597450711" /><line stroke="rgb(0%,0%,0%)" x1="492.418043618" x2="496.650591313" y1="766.674873004" y2="765.02078325" /><line stroke="rgb(0%,0%,0%)" x1="496.650591313" x2="517.85589626" y1="765.02078325" y2="758.499298753" /><line stroke="rgb(0%,0%,0%)" x1="517.85589626" x2="527.81858686" y1="758.499298753" y2="752.366995334" /><line stroke="rgb(0%,0%,0%)" x1="538.23370929" x2="548.161698365" y1="748.702098583" y2="743.505404866" /><line stroke="rgb(0%,0%,0%)" x1="572.379494265" x2="574.120905124" y1="722.32460784" y2="720.570341729" /><line stroke="rgb(0%,0%,0%)" x1="462.203293675" x2="460.714522463" y1="774.597450711" y2="774.944589902" /><line stroke="rgb(0%,0%,0%)" x1="462.539222547" x2="463.957393266" y1="774.554961442" y2="774.512722131" /><line stroke="rgb(0%,0%,0%)" x1="481.396285153" x2="484.792608467" y1="770.280791989" y2="769.654523568" /><line stroke="rgb(0%,0%,0%)" x1="492.418043618" x2="490.816070986" y1="766.674873004" y2="767.496487461" /><line stroke="rgb(0%,0%,0%)" x1="484.792608467" x2="490.816070986" y1="769.654523568" y2="767.496487461" /><line stroke="rgb(0%,0%,0%)" x1="530.4963984" x2="532.942973708" y1="751.419809137" y2="750.32033188" /><line stroke="rgb(0%,0%,0%)" x1="532.942973708" x2="538.23370929" y1="750.32033188" y2="748.702098583" /><line stroke="rgb(0%,0%,0%)" x1="446.03117845" x2="454.281833796" y1="776.467735054" y2="774.900926625" /><line stroke="rgb(0%,0%,0%)" x1="454.281833796" x2="460.714522463" y1="774.900926625" y2="774.944589902" /><line stroke="rgb(0%,0%,0%)" x1="475.298452978" x2="481.396285153" y1="771.190204663" y2="770.280791989" /><line stroke="rgb(0%,0%,0%)" x1="463.957393266" x2="475.298452978" y1="774.512722131" y2="771.190204663" /><line stroke="rgb(0%,0%,0%)" x1="421.022240518" x2="407.191756975" y1="775.395957447" y2="771.270777389" /><line stroke="rgb(0%,0%,0%)" x1="428.287297173" x2="421.022240518" y1="776.034467847" y2="775.395957447" /><line stroke="rgb(0%,0%,0%)" x1="440.508474157" x2="434.371389032" y1="776.227618949" y2="776.760352435" /><line stroke="rgb(0%,0%,0%)" x1="428.287297173" x2="434.371389032" y1="776.034467847" y2="776.760352435" /><line stroke="rgb(0%,0%,0%)" x1="440.508474157" x2="446.03117845" y1="776.227618949" y2="776.467735054" /><line stroke="rgb(0%,0%,0%)" x1="375.943460612" x2="367.924062363" y1="756.958651081" y2="752.490396405" /><line stroke="rgb(0%,0%,0%)" x1="392.009697881" x2="400.903713995" y1="763.774058026" y2="768.995994915" /><line stroke="rgb(0%,0%,0%)" x1="400.903713995" x2="402.607778183" y1="768.995994915" y2="769.747683233" /><line stroke="rgb(0%,0%,0%)" x1="404.660495998" x2="407.191756975" y1="770.368371897" y2="771.270777389" /><line stroke="rgb(0%,0%,0%)" x1="402.607778183" x2="404.660495998" y1="769.747683233" y2="770.368371897" /><line stroke="rgb(0%,0%,0%)" x1="349.213038276" x2="349.199129767" y1="707.175328917" y2="707.196627642" /><line stroke="rgb(0%,0%,0%)" x1="353.484087989" x2="348.935130244" y1="740.320078042" y2="733.592637311" /><line stroke="rgb(0%,0%,0%)" x1="349.215709083" x2="349.213038276" y1="707.169664431" y2="707.175328917" /><line stroke="rgb(0%,0%,0%)" x1="352.114669932" x2="349.215709083" y1="698.536302417" y2="707.169664431" /><line stroke="rgb(0%,0%,0%)" x1="352.114669932" x2="352.819448227" y1="698.536302417" y2="687.069576189" /><line stroke="rgb(0%,0%,0%)" x1="347.294991672" x2="351.098116907" y1="669.811902194" y2="676.254846956" /><line stroke="rgb(0%,0%,0%)" x1="353.484087989" x2="356.117121091" y1="740.320078042" y2="742.554907786" /><line stroke="rgb(0%,0%,0%)" x1="356.117121091" x2="367.924062363" y1="742.554907786" y2="752.490396405" /><line stroke="rgb(0%,0%,0%)" x1="375.943460612" x2="392.009697881" y1="756.958651081" y2="763.774058026" /><line stroke="rgb(0%,0%,0%)" x1="287.520259793" x2="287.443974033" y1="629.630959045" y2="629.520005401" /><line stroke="rgb(0%,0%,0%)" x1="287.520259793" x2="287.998608251" y1="629.630959045" y2="630.229415424" /><line stroke="rgb(0%,0%,0%)" x1="294.213956783" x2="294.706359352" y1="537.611976579" y2="539.171806089" /><line stroke="rgb(0%,0%,0%)" x1="294.213956783" x2="293.164517722" y1="537.611976579" y2="534.643527876" /><line stroke="rgb(0%,0%,0%)" x1="313.422096789" x2="327.532777455" y1="658.66122729" y2="664.760909519" /><line stroke="rgb(0%,0%,0%)" x1="327.532777455" x2="328.539933787" y1="664.760909519" y2="665.366883439" /><line stroke="rgb(0%,0%,0%)" x1="308.956485087" x2="313.422096789" y1="655.812915067" y2="658.66122729" /><line stroke="rgb(0%,0%,0%)" x1="328.539933787" x2="329.433888621" y1="665.366883439" y2="665.665907138" /><line stroke="rgb(0%,0%,0%)" x1="340.826176847" x2="329.433888621" y1="668.963587763" y2="665.665907138" /><line stroke="rgb(0%,0%,0%)" x1="346.511619988" x2="344.068142704" y1="728.165873483" y2="722.059505825" /><line stroke="rgb(0%,0%,0%)" x1="346.511619988" x2="346.707389966" y1="728.165873483" y2="729.64500564" /><line stroke="rgb(0%,0%,0%)" x1="346.707389966" x2="348.935130244" y1="729.64500564" y2="733.592637311" /><line stroke="rgb(0%,0%,0%)" x1="349.199129767" x2="349.144043132" y1="707.196627642" y2="707.370768664" /><line stroke="rgb(0%,0%,0%)" x1="349.144043132" x2="344.068142704" y1="707.370768664" y2="722.059505825" /><line stroke="rgb(0%,0%,0%)" x1="340.826176847" x2="344.765969084" y1="668.963587763" y2="668.778975232" /><line stroke="rgb(0%,0%,0%)" x1="344.765969084" x2="347.294991672" y1="668.778975232" y2="669.811902194" /><line stroke="rgb(0%,0%,0%)" x1="352.813789884" x2="351.249620355" y1="686.901128372" y2="676.502517199" /><line stroke="rgb(0%,0%,0%)" x1="352.813789884" x2="352.819448227" y1="686.901128372" y2="687.069576189" /><line stroke="rgb(0%,0%,0%)" x1="351.208029019" x2="351.249620355" y1="676.406339984" y2="676.502517199" /><line stroke="rgb(0%,0%,0%)" x1="351.098116907" x2="351.208029019" y1="676.254846956" y2="676.406339984" /><line stroke="rgb(0%,0%,0%)" x1="255.77022728" x2="258.636552022" y1="563.553196079" y2="566.595703612" /><line stroke="rgb(0%,0%,0%)" x1="244.76918422" x2="238.865049569" y1="556.413633006" y2="552.020868071" /><line stroke="rgb(0%,0%,0%)" x1="246.278731439" x2="245.938760693" y1="471.729551866" y2="470.560204129" /><line stroke="rgb(0%,0%,0%)" x1="245.084330129" x2="245.21357614" y1="465.638286087" y2="466.416137063" /><line stroke="rgb(0%,0%,0%)" x1="245.21357614" x2="245.938760693" y1="466.416137063" y2="470.560204129" /><line stroke="rgb(0%,0%,0%)" x1="247.618794348" x2="247.762220449" y1="452.157197705" y2="453.909804944" /><line stroke="rgb(0%,0%,0%)" x1="247.762220449" x2="245.084330129" y1="453.909804944" y2="465.638286087" /><line stroke="rgb(0%,0%,0%)" x1="260.799531166" x2="262.08487056" y1="568.811591034" y2="570.273936711" /><line stroke="rgb(0%,0%,0%)" x1="260.799531166" x2="259.884978968" y1="568.811591034" y2="567.834463717" /><line stroke="rgb(0%,0%,0%)" x1="276.573005582" x2="257.363690161" y1="541.973781674" y2="536.1389879" /><line stroke="rgb(0%,0%,0%)" x1="276.091215902" x2="268.794183799" y1="509.647709898" y2="503.146934803" /><line stroke="rgb(0%,0%,0%)" x1="276.711752865" x2="275.962378817" y1="608.68265063" y2="606.671484518" /><line stroke="rgb(0%,0%,0%)" x1="276.711752865" x2="279.168603162" y1="608.68265063" y2="615.520428529" /><line stroke="rgb(0%,0%,0%)" x1="279.168603162" x2="287.443974033" y1="615.520428529" y2="629.520005401" /><line stroke="rgb(0%,0%,0%)" x1="276.167361811" x2="275.962378817" y1="601.433405937" y2="606.671484518" /><line stroke="rgb(0%,0%,0%)" x1="278.547496592" x2="277.208148675" y1="588.052636703" y2="591.120768901" /><line stroke="rgb(0%,0%,0%)" x1="278.547496592" x2="278.697818109" y1="588.052636703" y2="587.358245595" /><line stroke="rgb(0%,0%,0%)" x1="273.714450354" x2="275.113005013" y1="580.871931629" y2="583.133959709" /><line stroke="rgb(0%,0%,0%)" x1="275.113005013" x2="277.461285906" y1="583.133959709" y2="584.961827143" /><line stroke="rgb(0%,0%,0%)" x1="273.714450354" x2="272.832186342" y1="580.871931629" y2="580.025045767" /><line stroke="rgb(0%,0%,0%)" x1="276.573005582" x2="282.635263582" y1="541.973781674" y2="543.711281284" /><line stroke="rgb(0%,0%,0%)" x1="283.291188617" x2="286.164539516" y1="515.355904823" y2="517.588391983" /><line stroke="rgb(0%,0%,0%)" x1="276.091215902" x2="283.291188617" y1="509.647709898" y2="515.355904823" /><line stroke="rgb(0%,0%,0%)" x1="287.998608251" x2="305.365045571" y1="630.229415424" y2="652.096790301" /><line stroke="rgb(0%,0%,0%)" x1="293.490754875" x2="282.635263582" y1="545.092010767" y2="543.711281284" /><line stroke="rgb(0%,0%,0%)" x1="297.170856691" x2="293.490754875" y1="545.977814337" y2="545.092010767" /><line stroke="rgb(0%,0%,0%)" x1="297.170856691" x2="297.911137858" y1="545.977814337" y2="544.939612972" /><line stroke="rgb(0%,0%,0%)" x1="294.706359352" x2="296.69061228" y1="539.171806089" y2="541.992576888" /><line stroke="rgb(0%,0%,0%)" x1="292.17822133" x2="293.164517722" y1="533.035096391" y2="534.643527876" /><line stroke="rgb(0%,0%,0%)" x1="291.948622426" x2="292.17822133" y1="532.688664255" y2="533.035096391" /><line stroke="rgb(0%,0%,0%)" x1="290.564295704" x2="291.948622426" y1="527.669829387" y2="532.688664255" /><line stroke="rgb(0%,0%,0%)" x1="290.239520471" x2="290.564295704" y1="525.983278143" y2="527.669829387" /><line stroke="rgb(0%,0%,0%)" x1="290.239520471" x2="286.9184586" y1="525.983278143" y2="518.382868078" /><line stroke="rgb(0%,0%,0%)" x1="307.60033903" x2="308.956485087" y1="654.08511045" y2="655.812915067" /><line stroke="rgb(0%,0%,0%)" x1="305.365045571" x2="307.60033903" y1="652.096790301" y2="654.08511045" /><line stroke="rgb(0%,0%,0%)" x1="297.623785008" x2="297.911137858" y1="544.011503105" y2="544.939612972" /><line stroke="rgb(0%,0%,0%)" x1="297.062262876" x2="297.623785008" y1="543.386681187" y2="544.011503105" /><line stroke="rgb(0%,0%,0%)" x1="296.69061228" x2="297.062262876" y1="541.992576888" y2="543.386681187" /><line stroke="rgb(0%,0%,0%)" x1="233.529693095" x2="234.890721702" y1="547.102737342" y2="548.637808948" /><line stroke="rgb(0%,0%,0%)" x1="233.529693095" x2="232.479862727" y1="547.102737342" y2="545.861926483" /><line stroke="rgb(0%,0%,0%)" x1="237.435261025" x2="238.865049569" y1="550.428330235" y2="552.020868071" /><line stroke="rgb(0%,0%,0%)" x1="240.358582091" x2="243.633001969" y1="528.121578066" y2="529.390366089" /><line stroke="rgb(0%,0%,0%)" x1="258.636552022" x2="259.884978968" y1="566.595703612" y2="567.834463717" /><line stroke="rgb(0%,0%,0%)" x1="244.76918422" x2="255.77022728" y1="556.413633006" y2="563.553196079" /><line stroke="rgb(0%,0%,0%)" x1="257.363690161" x2="243.633001969" y1="536.1389879" y2="529.390366089" /><line stroke="rgb(0%,0%,0%)" x1="251.161307296" x2="256.3792003" y1="476.886716588" y2="483.430211261" /><line stroke="rgb(0%,0%,0%)" x1="246.278731439" x2="251.161307296" y1="471.729551866" y2="476.886716588" /><line stroke="rgb(0%,0%,0%)" x1="270.88657545" x2="272.832186342" y1="578.152190497" y2="580.025045767" /><line stroke="rgb(0%,0%,0%)" x1="262.08487056" x2="270.88657545" y1="570.273936711" y2="578.152190497" /><line stroke="rgb(0%,0%,0%)" x1="267.535862713" x2="267.837168295" y1="501.712129989" y2="502.093098853" /><line stroke="rgb(0%,0%,0%)" x1="267.837168295" x2="268.794183799" y1="502.093098853" y2="503.146934803" /><line stroke="rgb(0%,0%,0%)" x1="259.543775246" x2="267.535862713" y1="491.293280103" y2="501.712129989" /><line stroke="rgb(0%,0%,0%)" x1="259.543775246" x2="257.364188647" y1="491.293280103" y2="484.010746434" /><line stroke="rgb(0%,0%,0%)" x1="256.3792003" x2="257.364188647" y1="483.430211261" y2="484.010746434" /><line stroke="rgb(0%,0%,0%)" x1="276.167361811" x2="276.309642676" y1="601.433405937" y2="598.729828026" /><line stroke="rgb(0%,0%,0%)" x1="276.288310202" x2="276.309642676" y1="594.935499802" y2="598.729828026" /><line stroke="rgb(0%,0%,0%)" x1="277.208148675" x2="276.288310202" y1="591.120768901" y2="594.935499802" /><line stroke="rgb(0%,0%,0%)" x1="277.461285906" x2="278.697818109" y1="584.961827143" y2="587.358245595" /><line stroke="rgb(0%,0%,0%)" x1="286.164539516" x2="286.9184586" y1="517.588391983" y2="518.382868078" /><line stroke="rgb(0%,0%,0%)" x1="231.548744846" x2="228.773188641" y1="544.329179916" y2="539.526723541" /><line stroke="rgb(0%,0%,0%)" x1="227.274178336" x2="228.68587547" y1="533.38173514" y2="539.294037303" /><line stroke="rgb(0%,0%,0%)" x1="227.239074857" x2="226.362455779" y1="527.844317124" y2="529.396527607" /><line stroke="rgb(0%,0%,0%)" x1="226.362455779" x2="227.274178336" y1="529.396527607" y2="533.38173514" /><line stroke="rgb(0%,0%,0%)" x1="227.397028398" x2="227.239074857" y1="526.091254764" y2="527.844317124" /><line stroke="rgb(0%,0%,0%)" x1="228.736878655" x2="228.773188641" y1="539.401865086" y2="539.526723541" /><line stroke="rgb(0%,0%,0%)" x1="228.68587547" x2="228.736878655" y1="539.294037303" y2="539.401865086" /><line stroke="rgb(0%,0%,0%)" x1="234.890721702" x2="237.435261025" y1="548.637808948" y2="550.428330235" /><line stroke="rgb(0%,0%,0%)" x1="231.548744846" x2="232.479862727" y1="544.329179916" y2="545.861926483" /><line stroke="rgb(0%,0%,0%)" x1="236.94783107" x2="229.410246038" y1="526.696005832" y2="525.052126936" /><line stroke="rgb(0%,0%,0%)" x1="227.397028398" x2="229.410246038" y1="526.091254764" y2="525.052126936" /><line stroke="rgb(0%,0%,0%)" x1="240.358582091" x2="236.94783107" y1="528.121578066" y2="526.696005832" /><line stroke="rgb(0%,0%,0%)" x1="672.524833041" x2="672.506524823" y1="457.6260126" y2="457.112493251" /></svg>