<?xml version="1.0" encoding="utf-8" ?>
<svg baseProfile="full" height="100%" version="1.1" viewBox="0.5 0.5 685.793960571 941.299331665" width="100%" xmlns="http://www.w3.org/2000/svg" xmlns:ev="http://www.w3.org/2001/xml-events" xmlns:xlink="http://www.w3.org/1999/xlink"><defs /><line stroke="rgb(0%,0%,0%)" x1="631.278026919" x2="629.325828069" y1="311.608287354" y2="305.998922953" /><line stroke="rgb(0%,0%,0%)" x1="647.737769773" x2="650.044902695" y1="360.538992738" y2="366.120046585" /><line stroke="rgb(0%,0%,0%)" x1="666.239863792" x2="665.807994071" y1="443.964248538" y2="442.80337293" /><line stroke="rgb(0%,0%,0%)" x1="662.891456388" x2="664.119564287" y1="430.870451194" y2="435.73031975" /><line stroke="rgb(0%,0%,0%)" x1="662.891456388" x2="663.225814278" y1="430.870451194" y2="428.754856503" /><line stroke="rgb(0%,0%,0%)" x1="659.121441193" x2="660.34976944" y1="407.187163248" y2="415.591485496" /><line stroke="rgb(0%,0%,0%)" x1="656.254559182" x2="656.875026078" y1="393.680950501" y2="395.761235014" /><line stroke="rgb(0%,0%,0%)" x1="656.254559182" x2="656.191466797" y1="393.680950501" y2="392.137104963" /><line stroke="rgb(0%,0%,0%)" x1="603.550600084" x2="604.229410161" y1="248.163980928" y2="249.474303172" /><line stroke="rgb(0%,0%,0%)" x1="614.565547842" x2="616.299902935" y1="267.425545849" y2="272.046617558" /><line stroke="rgb(0%,0%,0%)" x1="643.934822199" x2="641.593450103" y1="349.659262028" y2="342.605132012" /><line stroke="rgb(0%,0%,0%)" x1="631.278026919" x2="631.867948311" y1="311.608287354" y2="313.910541388" /><line stroke="rgb(0%,0%,0%)" x1="653.445402791" x2="651.542677313" y1="381.909120727" y2="371.288758665" /><line stroke="rgb(0%,0%,0%)" x1="651.004068184" x2="650.044902695" y1="369.690532837" y2="366.120046585" /><line stroke="rgb(0%,0%,0%)" x1="643.934822199" x2="645.594047746" y1="349.659262028" y2="353.932019973" /><line stroke="rgb(0%,0%,0%)" x1="667.044770011" x2="666.778026043" y1="457.887571628" y2="450.92836875" /><line stroke="rgb(0%,0%,0%)" x1="665.807994071" x2="665.042236294" y1="442.80337293" y2="439.624091458" /><line stroke="rgb(0%,0%,0%)" x1="665.042236294" x2="664.119564287" y1="439.624091458" y2="435.73031975" /><line stroke="rgb(0%,0%,0%)" x1="659.121441193" x2="659.064543401" y1="407.187163248" y2="406.092142388" /><line stroke="rgb(0%,0%,0%)" x1="576.039914204" x2="576.353123839" y1="221.873330229" y2="222.028476872" /><line stroke="rgb(0%,0%,0%)" x1="576.039914204" x2="575.808861512" y1="221.873330229" y2="221.773019972" /><line stroke="rgb(0%,0%,0%)" x1="604.229410161" x2="606.212945105" y1="249.474303172" y2="252.36619068" /><line stroke="rgb(0%,0%,0%)" x1="603.550600084" x2="599.535042376" y1="248.163980928" y2="241.19242317" /><line stroke="rgb(0%,0%,0%)" x1="616.900019456" x2="616.299902935" y1="276.97637022" y2="272.046617558" /><line stroke="rgb(0%,0%,0%)" x1="614.565547842" x2="613.163327047" y1="267.425545849" y2="261.270066457" /><line stroke="rgb(0%,0%,0%)" x1="613.163327047" x2="612.733777169" y1="261.270066457" y2="260.39996866" /><line stroke="rgb(0%,0%,0%)" x1="612.733777169" x2="609.598938193" y1="260.39996866" y2="256.59956242" /><line stroke="rgb(0%,0%,0%)" x1="629.325828069" x2="627.909783555" y1="305.998922953" y2="303.141510405" /><line stroke="rgb(0%,0%,0%)" x1="627.909783555" x2="626.30781059" y1="303.141510405" y2="300.807868045" /><line stroke="rgb(0%,0%,0%)" x1="620.45929483" x2="625.687633554" y1="288.077309352" y2="298.881742534" /><line stroke="rgb(0%,0%,0%)" x1="616.900019456" x2="619.610928518" y1="276.97637022" y2="283.637324415" /><line stroke="rgb(0%,0%,0%)" x1="620.45929483" x2="619.610928518" y1="288.077309352" y2="283.637324415" /><line stroke="rgb(0%,0%,0%)" x1="632.36385747" x2="636.269085041" y1="321.782121273" y2="330.205049197" /><line stroke="rgb(0%,0%,0%)" x1="632.36385747" x2="631.867948311" y1="321.782121273" y2="313.910541388" /><line stroke="rgb(0%,0%,0%)" x1="656.191466797" x2="653.445402791" y1="392.137104963" y2="381.909120727" /><line stroke="rgb(0%,0%,0%)" x1="651.542677313" x2="651.004068184" y1="371.288758665" y2="369.690532837" /><line stroke="rgb(0%,0%,0%)" x1="666.778026043" x2="666.239863792" y1="450.92836875" y2="443.964248538" /><line stroke="rgb(0%,0%,0%)" x1="663.225814278" x2="660.977958393" y1="428.754856503" y2="419.671156658" /><line stroke="rgb(0%,0%,0%)" x1="660.670281137" x2="660.34976944" y1="418.548548353" y2="415.591485496" /><line stroke="rgb(0%,0%,0%)" x1="659.064543401" x2="657.94755231" y1="406.092142388" y2="404.333927261" /><line stroke="rgb(0%,0%,0%)" x1="657.524000016" x2="657.963869754" y1="400.79415258" y2="402.89552278" /><line stroke="rgb(0%,0%,0%)" x1="657.524000016" x2="656.875026078" y1="400.79415258" y2="395.761235014" /><line stroke="rgb(0%,0%,0%)" x1="566.159626984" x2="564.869484019" y1="210.458922222" y2="207.6026725" /><line stroke="rgb(0%,0%,0%)" x1="566.159626984" x2="570.554021735" y1="210.458922222" y2="216.505155953" /><line stroke="rgb(0%,0%,0%)" x1="584.729667407" x2="588.959604179" y1="226.871412608" y2="229.704204492" /><line stroke="rgb(0%,0%,0%)" x1="609.598938193" x2="607.217124705" y1="256.59956242" y2="254.515306511" /><line stroke="rgb(0%,0%,0%)" x1="607.217124705" x2="606.212945105" y1="254.515306511" y2="252.36619068" /><line stroke="rgb(0%,0%,0%)" x1="599.535042376" x2="595.563299587" y1="241.19242317" y2="235.261960219" /><line stroke="rgb(0%,0%,0%)" x1="626.30781059" x2="625.687633554" y1="300.807868045" y2="298.881742534" /><line stroke="rgb(0%,0%,0%)" x1="641.593450103" x2="640.947599014" y1="342.605132012" y2="341.158870767" /><line stroke="rgb(0%,0%,0%)" x1="640.947599014" x2="640.870310687" y1="341.158870767" y2="340.971337738" /><line stroke="rgb(0%,0%,0%)" x1="637.444502513" x2="640.870310687" y1="333.268923914" y2="340.971337738" /><line stroke="rgb(0%,0%,0%)" x1="637.444502513" x2="636.833961557" y1="333.268923914" y2="332.066651422" /><line stroke="rgb(0%,0%,0%)" x1="636.833961557" x2="636.269085041" y1="332.066651422" y2="330.205049197" /><line stroke="rgb(0%,0%,0%)" x1="647.737769773" x2="645.594047746" y1="360.538992738" y2="353.932019973" /><line stroke="rgb(0%,0%,0%)" x1="660.977958393" x2="660.670281137" y1="419.671156658" y2="418.548548353" /><line stroke="rgb(0%,0%,0%)" x1="657.94755231" x2="657.963869754" y1="404.333927261" y2="402.89552278" /><line stroke="rgb(0%,0%,0%)" x1="553.159776008" x2="557.335671147" y1="198.148519705" y2="200.69078426" /><line stroke="rgb(0%,0%,0%)" x1="553.159776008" x2="548.815593376" y1="198.148519705" y2="196.975421579" /><line stroke="rgb(0%,0%,0%)" x1="572.46180885" x2="570.554021735" y1="218.927536939" y2="216.505155953" /><line stroke="rgb(0%,0%,0%)" x1="560.15287868" x2="562.785951761" y1="201.935497909" y2="205.293898478" /><line stroke="rgb(0%,0%,0%)" x1="584.729667407" x2="576.353123839" y1="226.871412608" y2="222.028476872" /><line stroke="rgb(0%,0%,0%)" x1="575.808861512" x2="572.46180885" y1="221.773019972" y2="218.927536939" /><line stroke="rgb(0%,0%,0%)" x1="595.563299587" x2="593.505519635" y1="235.261960219" y2="233.795833812" /><line stroke="rgb(0%,0%,0%)" x1="588.959604179" x2="593.505519635" y1="229.704204492" y2="233.795833812" /><line stroke="rgb(0%,0%,0%)" x1="488.631737602" x2="484.366164615" y1="175.444096062" y2="173.692383032" /><line stroke="rgb(0%,0%,0%)" x1="529.75099491" x2="520.245227909" y1="191.473917756" y2="187.754193971" /><line stroke="rgb(0%,0%,0%)" x1="503.888232273" x2="520.245227909" y1="181.80286181" y2="187.754193971" /><line stroke="rgb(0%,0%,0%)" x1="546.29263285" x2="543.676032583" y1="197.426065308" y2="196.699930744" /><line stroke="rgb(0%,0%,0%)" x1="535.452649251" x2="530.977906114" y1="194.988991467" y2="191.837570846" /><line stroke="rgb(0%,0%,0%)" x1="535.452649251" x2="543.676032583" y1="194.988991467" y2="196.699930744" /><line stroke="rgb(0%,0%,0%)" x1="530.977906114" x2="529.75099491" y1="191.837570846" y2="191.473917756" /><line stroke="rgb(0%,0%,0%)" x1="560.15287868" x2="557.335671147" y1="201.935497909" y2="200.69078426" /><line stroke="rgb(0%,0%,0%)" x1="548.815593376" x2="546.29263285" y1="196.975421579" y2="197.426065308" /><line stroke="rgb(0%,0%,0%)" x1="564.869484019" x2="562.785951761" y1="207.6026725" y2="205.293898478" /><line stroke="rgb(0%,0%,0%)" x1="503.888232273" x2="488.631737602" y1="181.80286181" y2="175.444096062" /><line stroke="rgb(0%,0%,0%)" x1="450.162581996" x2="455.371771447" y1="160.100820558" y2="161.899299758" /><line stroke="rgb(0%,0%,0%)" x1="462.96398442" x2="455.371771447" y1="165.170935804" y2="161.899299758" /><line stroke="rgb(0%,0%,0%)" x1="474.45032348" x2="462.96398442" y1="169.548368028" y2="165.170935804" /><line stroke="rgb(0%,0%,0%)" x1="484.366164615" x2="474.45032348" y1="173.692383032" y2="169.548368028" /><line stroke="rgb(0%,0%,0%)" x1="420.036756545" x2="414.672181973" y1="149.395794823" y2="148.187749786" /><line stroke="rgb(0%,0%,0%)" x1="414.672181973" x2="406.723193006" y1="148.187749786" y2="146.615252485" /><line stroke="rgb(0%,0%,0%)" x1="425.358544469" x2="420.036756545" y1="151.230046239" y2="149.395794823" /><line stroke="rgb(0%,0%,0%)" x1="445.492430426" x2="439.151362188" y1="157.618252327" y2="155.805679451" /><line stroke="rgb(0%,0%,0%)" x1="439.151362188" x2="425.358544469" y1="155.805679451" y2="151.230046239" /><line stroke="rgb(0%,0%,0%)" x1="450.162581996" x2="445.492430426" y1="160.100820558" y2="157.618252327" /><line stroke="rgb(0%,0%,0%)" x1="380.611195443" x2="379.28922827" y1="149.535884755" y2="150.316486051" /><line stroke="rgb(0%,0%,0%)" x1="379.28922827" x2="375.42053399" y1="150.316486051" y2="150.017469881" /><line stroke="rgb(0%,0%,0%)" x1="380.611195443" x2="382.6363404" y1="149.535884755" y2="149.471217921" /><line stroke="rgb(0%,0%,0%)" x1="388.009364796" x2="395.771346593" y1="148.0903388" y2="146.631833599" /><line stroke="rgb(0%,0%,0%)" x1="396.638911036" x2="395.771346593" y1="146.911471634" y2="146.631833599" /><line stroke="rgb(0%,0%,0%)" x1="399.008982686" x2="396.638911036" y1="146.635287485" y2="146.911471634" /><line stroke="rgb(0%,0%,0%)" x1="406.723193006" x2="402.490005676" y1="146.615252485" y2="146.902594862" /><line stroke="rgb(0%,0%,0%)" x1="399.008982686" x2="402.490005676" y1="146.635287485" y2="146.902594862" /><line stroke="rgb(0%,0%,0%)" x1="321.357602792" x2="321.612517952" y1="238.105365477" y2="237.902323975" /><line stroke="rgb(0%,0%,0%)" x1="321.357602792" x2="321.044214219" y1="238.105365477" y2="238.382699703" /><line stroke="rgb(0%,0%,0%)" x1="345.859841111" x2="348.084759252" y1="168.303809141" y2="165.61312386" /><line stroke="rgb(0%,0%,0%)" x1="348.084759252" x2="350.06241953" y1="165.61312386" y2="161.501920946" /><line stroke="rgb(0%,0%,0%)" x1="354.028722106" x2="351.897790093" y1="155.726849712" y2="157.837139058" /><line stroke="rgb(0%,0%,0%)" x1="375.42053399" x2="373.429230374" y1="150.017469881" y2="150.531642665" /><line stroke="rgb(0%,0%,0%)" x1="373.429230374" x2="367.907930903" y1="150.531642665" y2="151.858264505" /><line stroke="rgb(0%,0%,0%)" x1="359.047652229" x2="367.907930903" y1="152.960797298" y2="151.858264505" /><line stroke="rgb(0%,0%,0%)" x1="386.024567226" x2="382.6363404" y1="148.173771143" y2="149.471217921" /><line stroke="rgb(0%,0%,0%)" x1="388.009364796" x2="386.024567226" y1="148.0903388" y2="148.173771143" /><line stroke="rgb(0%,0%,0%)" x1="321.044214219" x2="318.978422944" y1="238.382699703" y2="240.985017568" /><line stroke="rgb(0%,0%,0%)" x1="331.967234227" x2="321.612517952" y1="230.766762763" y2="237.902323975" /><line stroke="rgb(0%,0%,0%)" x1="331.967234227" x2="333.273045738" y1="230.766762763" y2="230.201978347" /><line stroke="rgb(0%,0%,0%)" x1="339.335847063" x2="333.273045738" y1="228.41494924" y2="230.201978347" /><line stroke="rgb(0%,0%,0%)" x1="338.03155585" x2="339.35203014" y1="198.560731346" y2="203.33616981" /><line stroke="rgb(0%,0%,0%)" x1="338.985007564" x2="338.03155585" y1="194.672160483" y2="198.560731346" /><line stroke="rgb(0%,0%,0%)" x1="340.095750218" x2="338.985007564" y1="187.516350366" y2="194.672160483" /><line stroke="rgb(0%,0%,0%)" x1="340.095750218" x2="343.350345221" y1="187.516350366" y2="177.25958922" /><line stroke="rgb(0%,0%,0%)" x1="339.335847063" x2="341.874144664" y1="228.41494924" y2="226.325669457" /><line stroke="rgb(0%,0%,0%)" x1="344.55878922" x2="341.874144664" y1="225.419946513" y2="226.325669457" /><line stroke="rgb(0%,0%,0%)" x1="345.469644546" x2="344.701216639" y1="222.249920575" y2="224.948868541" /><line stroke="rgb(0%,0%,0%)" x1="344.701216639" x2="344.55878922" y1="224.948868541" y2="225.419946513" /><line stroke="rgb(0%,0%,0%)" x1="345.469644546" x2="341.722570614" y1="222.249920575" y2="211.372507053" /><line stroke="rgb(0%,0%,0%)" x1="339.35203014" x2="340.155751139" y1="203.33616981" y2="206.956611018" /><line stroke="rgb(0%,0%,0%)" x1="340.155751139" x2="341.722570614" y1="206.956611018" y2="211.372507053" /><line stroke="rgb(0%,0%,0%)" x1="345.859841111" x2="343.350345221" y1="168.303809141" y2="177.25958922" /><line stroke="rgb(0%,0%,0%)" x1="351.897790093" x2="350.06241953" y1="157.837139058" y2="161.501920946" /><line stroke="rgb(0%,0%,0%)" x1="359.047652229" x2="354.028722106" y1="152.960797298" y2="155.726849712" /><line stroke="rgb(0%,0%,0%)" x1="295.604673326" x2="296.240815729" y1="357.927424705" y2="357.086955867" /><line stroke="rgb(0%,0%,0%)" x1="285.548364839" x2="287.869469009" y1="352.195175075" y2="352.212467551" /><line stroke="rgb(0%,0%,0%)" x1="299.277117171" x2="308.909635195" y1="266.724818553" y2="253.652502614" /><line stroke="rgb(0%,0%,0%)" x1="318.978422944" x2="311.342304464" y1="240.985017568" y2="251.006075945" /><line stroke="rgb(0%,0%,0%)" x1="249.9987538" x2="250.790891994" y1="339.263914154" y2="338.756397241" /><line stroke="rgb(0%,0%,0%)" x1="249.9987538" x2="247.906910619" y1="339.263914154" y2="340.65808291" /><line stroke="rgb(0%,0%,0%)" x1="260.129745826" x2="259.48550163" y1="406.923988302" y2="409.112825828" /><line stroke="rgb(0%,0%,0%)" x1="260.129745826" x2="260.488074891" y1="406.923988302" y2="406.016123422" /><line stroke="rgb(0%,0%,0%)" x1="250.790891994" x2="251.853837474" y1="338.756397241" y2="337.880539761" /><line stroke="rgb(0%,0%,0%)" x1="269.26746029" x2="266.865149723" y1="302.236934671" y2="308.608516337" /><line stroke="rgb(0%,0%,0%)" x1="260.488074891" x2="262.153638988" y1="406.016123422" y2="404.05711994" /><line stroke="rgb(0%,0%,0%)" x1="267.911472593" x2="262.153638988" y1="397.732164197" y2="404.05711994" /><line stroke="rgb(0%,0%,0%)" x1="275.740905981" x2="272.137895533" y1="388.346062161" y2="391.235339268" /><line stroke="rgb(0%,0%,0%)" x1="272.137895533" x2="267.911472593" y1="391.235339268" y2="397.732164197" /><line stroke="rgb(0%,0%,0%)" x1="284.435382466" x2="283.035717907" y1="352.341274404" y2="352.555883479" /><line stroke="rgb(0%,0%,0%)" x1="273.879928162" x2="273.755966661" y1="318.321521147" y2="318.567352903" /><line stroke="rgb(0%,0%,0%)" x1="269.590293624" x2="269.847866269" y1="314.237820128" y2="314.554779868" /><line stroke="rgb(0%,0%,0%)" x1="269.847866269" x2="273.879928162" y1="314.554779868" y2="318.321521147" /><line stroke="rgb(0%,0%,0%)" x1="269.590293624" x2="267.751055215" y1="314.237820128" y2="310.555731584" /><line stroke="rgb(0%,0%,0%)" x1="272.867307533" x2="274.219254945" y1="293.454998866" y2="290.66839395" /><line stroke="rgb(0%,0%,0%)" x1="272.867307533" x2="269.26746029" y1="293.454998866" y2="302.236934671" /><line stroke="rgb(0%,0%,0%)" x1="274.219254945" x2="276.646536002" y1="290.66839395" y2="286.817096862" /><line stroke="rgb(0%,0%,0%)" x1="275.740905981" x2="279.873301523" y1="388.346062161" y2="383.569810544" /><line stroke="rgb(0%,0%,0%)" x1="281.339300882" x2="279.873301523" y1="380.9262475" y2="383.569810544" /><line stroke="rgb(0%,0%,0%)" x1="281.797845612" x2="281.339300882" y1="378.433700239" y2="380.9262475" /><line stroke="rgb(0%,0%,0%)" x1="281.797845612" x2="283.511871155" y1="378.433700239" y2="374.353062656" /><line stroke="rgb(0%,0%,0%)" x1="284.835657044" x2="283.511871155" y1="370.984845788" y2="374.353062656" /><line stroke="rgb(0%,0%,0%)" x1="284.435382466" x2="285.548364839" y1="352.341274404" y2="352.195175075" /><line stroke="rgb(0%,0%,0%)" x1="276.646536002" x2="283.318277332" y1="286.817096862" y2="279.456543979" /><line stroke="rgb(0%,0%,0%)" x1="289.025415834" x2="283.318277332" y1="275.500051668" y2="279.456543979" /><line stroke="rgb(0%,0%,0%)" x1="288.333181002" x2="285.494185858" y1="365.542498014" y2="370.210323156" /><line stroke="rgb(0%,0%,0%)" x1="291.256680118" x2="289.237426477" y1="361.022244048" y2="364.736577334" /><line stroke="rgb(0%,0%,0%)" x1="289.237426477" x2="288.333181002" y1="364.736577334" y2="365.542498014" /><line stroke="rgb(0%,0%,0%)" x1="295.604673326" x2="291.256680118" y1="357.927424705" y2="361.022244048" /><line stroke="rgb(0%,0%,0%)" x1="287.869469009" x2="298.773959037" y1="352.212467551" y2="351.579194241" /><line stroke="rgb(0%,0%,0%)" x1="298.773959037" x2="300.797007989" y1="351.579194241" y2="352.60307509" /><line stroke="rgb(0%,0%,0%)" x1="295.101287222" x2="289.025415834" y1="269.460933374" y2="275.500051668" /><line stroke="rgb(0%,0%,0%)" x1="300.089126305" x2="300.797007989" y1="353.764924236" y2="352.60307509" /><line stroke="rgb(0%,0%,0%)" x1="300.089126305" x2="296.240815729" y1="353.764924236" y2="357.086955867" /><line stroke="rgb(0%,0%,0%)" x1="299.277117171" x2="295.101287222" y1="266.724818553" y2="269.460933374" /><line stroke="rgb(0%,0%,0%)" x1="309.777336074" x2="308.909635195" y1="252.481248541" y2="253.652502614" /><line stroke="rgb(0%,0%,0%)" x1="311.342304464" x2="309.777336074" y1="251.006075945" y2="252.481248541" /><line stroke="rgb(0%,0%,0%)" x1="242.392294193" x2="242.473664163" y1="351.728552321" y2="350.395053698" /><line stroke="rgb(0%,0%,0%)" x1="245.073954864" x2="247.559335313" y1="355.810850911" y2="356.226873429" /><line stroke="rgb(0%,0%,0%)" x1="242.392294193" x2="242.604034898" y1="351.728552321" y2="352.507688324" /><line stroke="rgb(0%,0%,0%)" x1="242.604034898" x2="245.073954864" y1="352.507688324" y2="355.810850911" /><line stroke="rgb(0%,0%,0%)" x1="242.121084015" x2="242.473664163" y1="348.119826066" y2="350.395053698" /><line stroke="rgb(0%,0%,0%)" x1="243.522623152" x2="245.085711314" y1="345.143426306" y2="343.585921227" /><line stroke="rgb(0%,0%,0%)" x1="243.522623152" x2="242.707768126" y1="345.143426306" y2="347.562689064" /><line stroke="rgb(0%,0%,0%)" x1="242.707768126" x2="242.121084015" y1="347.562689064" y2="348.119826066" /><line stroke="rgb(0%,0%,0%)" x1="247.561165571" x2="245.085711314" y1="341.755433323" y2="343.585921227" /><line stroke="rgb(0%,0%,0%)" x1="252.504247681" x2="247.843559292" y1="416.302788009" y2="423.466801483" /><line stroke="rgb(0%,0%,0%)" x1="244.111603846" x2="247.058991902" y1="432.190224151" y2="425.806860137" /><line stroke="rgb(0%,0%,0%)" x1="247.843559292" x2="247.058991902" y1="423.466801483" y2="425.806860137" /><line stroke="rgb(0%,0%,0%)" x1="255.722956405" x2="252.504247681" y1="413.872400824" y2="416.302788009" /><line stroke="rgb(0%,0%,0%)" x1="259.48550163" x2="255.722956405" y1="409.112825828" y2="413.872400824" /><line stroke="rgb(0%,0%,0%)" x1="258.948774291" x2="253.867642663" y1="355.632386596" y2="356.104798469" /><line stroke="rgb(0%,0%,0%)" x1="247.559335313" x2="253.867642663" y1="356.226873429" y2="356.104798469" /><line stroke="rgb(0%,0%,0%)" x1="247.906910619" x2="247.561165571" y1="340.65808291" y2="341.755433323" /><line stroke="rgb(0%,0%,0%)" x1="258.121785839" x2="251.853837474" y1="333.974433225" y2="337.880539761" /><line stroke="rgb(0%,0%,0%)" x1="283.035717907" x2="281.914094862" y1="352.555883479" y2="352.824077033" /><line stroke="rgb(0%,0%,0%)" x1="258.948774291" x2="281.914094862" y1="355.632386596" y2="352.824077033" /><line stroke="rgb(0%,0%,0%)" x1="258.121785839" x2="265.338534653" y1="333.974433225" y2="326.711708112" /><line stroke="rgb(0%,0%,0%)" x1="273.255567707" x2="265.338534653" y1="319.788514291" y2="326.711708112" /><line stroke="rgb(0%,0%,0%)" x1="266.819536507" x2="267.751055215" y1="308.783623217" y2="310.555731584" /><line stroke="rgb(0%,0%,0%)" x1="273.755966661" x2="273.255567707" y1="318.567352903" y2="319.788514291" /><line stroke="rgb(0%,0%,0%)" x1="266.865149723" x2="266.819536507" y1="308.608516337" y2="308.783623217" /><line stroke="rgb(0%,0%,0%)" x1="285.494185858" x2="284.835657044" y1="370.210323156" y2="370.984845788" /><line stroke="rgb(0%,0%,0%)" x1="244.111603846" x2="243.254267654" y1="432.190224151" y2="434.69757325" /><line stroke="rgb(0%,0%,0%)" x1="243.254267654" x2="242.513821727" y1="434.69757325" y2="440.455616783" /><line stroke="rgb(0%,0%,0%)" x1="624.883669537" x2="626.064747279" y1="598.410770098" y2="595.764607747" /><line stroke="rgb(0%,0%,0%)" x1="656.55175761" x2="656.178656343" y1="509.139584916" y2="511.535503764" /><line stroke="rgb(0%,0%,0%)" x1="656.55175761" x2="657.84722881" y1="509.139584916" y2="506.999838627" /><line stroke="rgb(0%,0%,0%)" x1="666.753991798" x2="666.914535029" y1="466.040501702" y2="464.370093577" /><line stroke="rgb(0%,0%,0%)" x1="624.883669537" x2="624.797935664" y1="598.410770098" y2="598.804655396" /><line stroke="rgb(0%,0%,0%)" x1="635.756433748" x2="635.598187587" y1="573.16162304" y2="573.594404202" /><line stroke="rgb(0%,0%,0%)" x1="635.756433748" x2="636.072157869" y1="573.16162304" y2="572.135266173" /><line stroke="rgb(0%,0%,0%)" x1="649.893940979" x2="649.344764399" y1="528.229970045" y2="530.78986641" /><line stroke="rgb(0%,0%,0%)" x1="649.893940979" x2="652.44700588" y1="528.229970045" y2="521.485426361" /><line stroke="rgb(0%,0%,0%)" x1="652.644466314" x2="652.44700588" y1="519.942662771" y2="521.485426361" /><line stroke="rgb(0%,0%,0%)" x1="652.644466314" x2="653.984494952" y1="519.942662771" y2="517.622704922" /><line stroke="rgb(0%,0%,0%)" x1="653.984494952" x2="655.093274691" y1="517.622704922" y2="515.284581886" /><line stroke="rgb(0%,0%,0%)" x1="656.178656343" x2="655.093274691" y1="511.535503764" y2="515.284581886" /><line stroke="rgb(0%,0%,0%)" x1="657.84722881" x2="658.78607581" y1="506.999838627" y2="503.485388201" /><line stroke="rgb(0%,0%,0%)" x1="661.541403433" x2="661.700734801" y1="495.011363316" y2="494.294833029" /><line stroke="rgb(0%,0%,0%)" x1="661.829215088" x2="661.700734801" y1="488.288739827" y2="494.294833029" /><line stroke="rgb(0%,0%,0%)" x1="661.829215088" x2="663.469485604" y1="488.288739827" y2="482.078081598" /><line stroke="rgb(0%,0%,0%)" x1="664.32825535" x2="663.652470711" y1="472.436823291" y2="480.014198415" /><line stroke="rgb(0%,0%,0%)" x1="666.753991798" x2="666.44577809" y1="466.040501702" y2="467.646281897" /><line stroke="rgb(0%,0%,0%)" x1="666.914535029" x2="667.044770011" y1="464.370093577" y2="457.887571628" /><line stroke="rgb(0%,0%,0%)" x1="584.431152346" x2="584.154383523" y1="691.248366309" y2="691.825333159" /><line stroke="rgb(0%,0%,0%)" x1="584.523380155" x2="584.431152346" y1="691.101137341" y2="691.248366309" /><line stroke="rgb(0%,0%,0%)" x1="584.523380155" x2="584.750606637" y1="691.101137341" y2="690.721401306" /><line stroke="rgb(0%,0%,0%)" x1="607.758026646" x2="607.30349947" y1="637.727644756" y2="639.026226438" /><line stroke="rgb(0%,0%,0%)" x1="607.758026646" x2="609.9122163" y1="637.727644756" y2="632.411118541" /><line stroke="rgb(0%,0%,0%)" x1="618.209103015" x2="615.497456071" y1="613.425635168" y2="621.712817734" /><line stroke="rgb(0%,0%,0%)" x1="624.797935664" x2="623.776807675" y1="598.804655396" y2="600.910271288" /><line stroke="rgb(0%,0%,0%)" x1="618.209103015" x2="623.776807675" y1="613.425635168" y2="600.910271288" /><line stroke="rgb(0%,0%,0%)" x1="626.064747279" x2="635.598187587" y1="595.764607747" y2="573.594404202" /><line stroke="rgb(0%,0%,0%)" x1="636.072157869" x2="639.644310722" y1="572.135266173" y2="561.984374874" /><line stroke="rgb(0%,0%,0%)" x1="639.9753314" x2="642.941037199" y1="560.305052241" y2="552.133859571" /><line stroke="rgb(0%,0%,0%)" x1="647.80816264" x2="646.032354819" y1="535.748810714" y2="542.682795407" /><line stroke="rgb(0%,0%,0%)" x1="647.80816264" x2="649.344764399" y1="535.748810714" y2="530.78986641" /><line stroke="rgb(0%,0%,0%)" x1="658.78607581" x2="661.380134716" y1="503.485388201" y2="495.626037755" /><line stroke="rgb(0%,0%,0%)" x1="661.380134716" x2="661.541403433" y1="495.626037755" y2="495.011363316" /><line stroke="rgb(0%,0%,0%)" x1="663.469485604" x2="663.652470711" y1="482.078081598" y2="480.014198415" /><line stroke="rgb(0%,0%,0%)" x1="664.32825535" x2="666.44577809" y1="472.436823291" y2="467.646281897" /><line stroke="rgb(0%,0%,0%)" x1="566.232201909" x2="567.959461444" y1="714.86102909" y2="713.158513954" /><line stroke="rgb(0%,0%,0%)" x1="584.750606637" x2="584.973646452" y1="690.721401306" y2="689.996510089" /><line stroke="rgb(0%,0%,0%)" x1="593.97379369" x2="588.443727715" y1="671.406476013" y2="681.91002704" /><line stroke="rgb(0%,0%,0%)" x1="593.97379369" x2="594.921791814" y1="671.406476013" y2="668.303718069" /><line stroke="rgb(0%,0%,0%)" x1="601.999949433" x2="598.308949128" y1="650.297934173" y2="659.699703398" /><line stroke="rgb(0%,0%,0%)" x1="601.999949433" x2="603.694929025" y1="650.297934173" y2="646.612053141" /><line stroke="rgb(0%,0%,0%)" x1="603.694929025" x2="606.363760946" y1="646.612053141" y2="640.096461204" /><line stroke="rgb(0%,0%,0%)" x1="606.363760946" x2="607.30349947" y1="640.096461204" y2="639.026226438" /><line stroke="rgb(0%,0%,0%)" x1="609.9122163" x2="612.912301399" y1="632.411118541" y2="624.142744478" /><line stroke="rgb(0%,0%,0%)" x1="612.912301399" x2="615.060993519" y1="624.142744478" y2="622.560449487" /><line stroke="rgb(0%,0%,0%)" x1="615.239773647" x2="615.497456071" y1="622.176333599" y2="621.712817734" /><line stroke="rgb(0%,0%,0%)" x1="639.644310722" x2="639.9753314" y1="561.984374874" y2="560.305052241" /><line stroke="rgb(0%,0%,0%)" x1="643.33216729" x2="645.792062192" y1="550.763207556" y2="543.398597273" /><line stroke="rgb(0%,0%,0%)" x1="645.792062192" x2="646.032354819" y1="543.398597273" y2="542.682795407" /><line stroke="rgb(0%,0%,0%)" x1="538.90056728" x2="540.156805575" y1="736.940099281" y2="736.282535538" /><line stroke="rgb(0%,0%,0%)" x1="550.89700028" x2="551.513140607" y1="729.688933437" y2="729.147199456" /><line stroke="rgb(0%,0%,0%)" x1="566.232201909" x2="563.881770829" y1="714.86102909" y2="717.228811264" /><line stroke="rgb(0%,0%,0%)" x1="570.621989917" x2="575.46938642" y1="710.966368919" y2="705.458603226" /><line stroke="rgb(0%,0%,0%)" x1="578.464421738" x2="576.085573562" y1="700.442894337" y2="704.809214079" /><line stroke="rgb(0%,0%,0%)" x1="578.464421738" x2="581.954020121" y1="700.442894337" y2="696.087664503" /><line stroke="rgb(0%,0%,0%)" x1="581.954020121" x2="584.154383523" y1="696.087664503" y2="691.825333159" /><line stroke="rgb(0%,0%,0%)" x1="584.973646452" x2="586.40862867" y1="689.996510089" y2="685.72478669" /><line stroke="rgb(0%,0%,0%)" x1="586.40862867" x2="588.443727715" y1="685.72478669" y2="681.91002704" /><line stroke="rgb(0%,0%,0%)" x1="594.921791814" x2="598.308949128" y1="668.303718069" y2="659.699703398" /><line stroke="rgb(0%,0%,0%)" x1="615.060993519" x2="615.209693975" y1="622.560449487" y2="622.239185006" /><line stroke="rgb(0%,0%,0%)" x1="615.209693975" x2="615.239773647" y1="622.239185006" y2="622.176333599" /><line stroke="rgb(0%,0%,0%)" x1="642.941037199" x2="643.33216729" y1="552.133859571" y2="550.763207556" /><line stroke="rgb(0%,0%,0%)" x1="523.31562069" x2="522.137607966" y1="741.706937297" y2="742.236329625" /><line stroke="rgb(0%,0%,0%)" x1="522.137607966" x2="517.110204928" y1="742.236329625" y2="745.885128328" /><line stroke="rgb(0%,0%,0%)" x1="523.31562069" x2="538.90056728" y1="741.706937297" y2="736.940099281" /><line stroke="rgb(0%,0%,0%)" x1="540.156805575" x2="544.285990715" y1="736.282535538" y2="732.65571757" /><line stroke="rgb(0%,0%,0%)" x1="544.285990715" x2="550.89700028" y1="732.65571757" y2="729.688933437" /><line stroke="rgb(0%,0%,0%)" x1="551.513140607" x2="558.480560759" y1="729.147199456" y2="721.4720702" /><line stroke="rgb(0%,0%,0%)" x1="558.480560759" x2="563.881770829" y1="721.4720702" y2="717.228811264" /><line stroke="rgb(0%,0%,0%)" x1="567.959461444" x2="570.621989917" y1="713.158513954" y2="710.966368919" /><line stroke="rgb(0%,0%,0%)" x1="575.46938642" x2="575.908467429" y1="705.458603226" y2="705.093206197" /><line stroke="rgb(0%,0%,0%)" x1="575.908467429" x2="576.085573562" y1="705.093206197" y2="704.809214079" /><line stroke="rgb(0%,0%,0%)" x1="483.816322891" x2="483.287942293" y1="755.666930378" y2="755.889814905" /><line stroke="rgb(0%,0%,0%)" x1="483.816322891" x2="491.663090058" y1="755.666930378" y2="755.276081785" /><line stroke="rgb(0%,0%,0%)" x1="491.663090058" x2="492.481607059" y1="755.276081785" y2="755.195971218" /><line stroke="rgb(0%,0%,0%)" x1="505.87625671" x2="499.023616318" y1="751.932696568" y2="754.326323153" /><line stroke="rgb(0%,0%,0%)" x1="505.87625671" x2="512.729189023" y1="751.932696568" y2="749.558763262" /><line stroke="rgb(0%,0%,0%)" x1="512.729189023" x2="517.110204928" y1="749.558763262" y2="745.885128328" /><line stroke="rgb(0%,0%,0%)" x1="431.568621121" x2="430.334810746" y1="761.209630908" y2="761.195094411" /><line stroke="rgb(0%,0%,0%)" x1="447.188871929" x2="448.438959726" y1="758.727303094" y2="758.84911065" /><line stroke="rgb(0%,0%,0%)" x1="456.094762581" x2="462.498993048" y1="759.170149899" y2="759.010018745" /><line stroke="rgb(0%,0%,0%)" x1="462.498993048" x2="469.570697383" y1="759.010018745" y2="758.06403892" /><line stroke="rgb(0%,0%,0%)" x1="483.287942293" x2="481.847439362" y1="755.889814905" y2="756.267813307" /><line stroke="rgb(0%,0%,0%)" x1="469.570697383" x2="481.847439362" y1="758.06403892" y2="756.267813307" /><line stroke="rgb(0%,0%,0%)" x1="492.481607059" x2="499.023616318" y1="755.195971218" y2="754.326323153" /><line stroke="rgb(0%,0%,0%)" x1="430.334810746" x2="428.673074008" y1="761.195094411" y2="760.495272382" /><line stroke="rgb(0%,0%,0%)" x1="428.673074008" x2="424.016495415" y1="760.495272382" y2="760.019667331" /><line stroke="rgb(0%,0%,0%)" x1="431.568621121" x2="447.188871929" y1="761.209630908" y2="758.727303094" /><line stroke="rgb(0%,0%,0%)" x1="448.438959726" x2="456.094762581" y1="758.84911065" y2="759.170149899" /><line stroke="rgb(0%,0%,0%)" x1="388.420425249" x2="386.0518155" y1="753.369821829" y2="752.567508811" /><line stroke="rgb(0%,0%,0%)" x1="377.123027398" x2="382.643387892" y1="748.178055311" y2="750.731819766" /><line stroke="rgb(0%,0%,0%)" x1="382.643387892" x2="386.0518155" y1="750.731819766" y2="752.567508811" /><line stroke="rgb(0%,0%,0%)" x1="390.79707763" x2="388.420425249" y1="754.440698404" y2="753.369821829" /><line stroke="rgb(0%,0%,0%)" x1="390.79707763" x2="395.182269695" y1="754.440698404" y2="755.34474045" /><line stroke="rgb(0%,0%,0%)" x1="395.182269695" x2="403.386403463" y1="755.34474045" y2="758.098197376" /><line stroke="rgb(0%,0%,0%)" x1="403.386403463" x2="413.787828706" y1="758.098197376" y2="759.528278211" /><line stroke="rgb(0%,0%,0%)" x1="413.787828706" x2="417.452718006" y1="759.528278211" y2="759.886890681" /><line stroke="rgb(0%,0%,0%)" x1="417.452718006" x2="418.845548124" y1="759.886890681" y2="760.05438044" /><line stroke="rgb(0%,0%,0%)" x1="418.845548124" x2="424.016495415" y1="760.05438044" y2="760.019667331" /><line stroke="rgb(0%,0%,0%)" x1="347.945398004" x2="345.429978066" y1="675.020254664" y2="675.139477073" /><line stroke="rgb(0%,0%,0%)" x1="364.937662578" x2="364.866218526" y1="686.496682803" y2="686.021722193" /><line stroke="rgb(0%,0%,0%)" x1="364.937662578" x2="364.967566708" y1="686.496682803" y2="687.386923217" /><line stroke="rgb(0%,0%,0%)" x1="361.446565542" x2="364.866218526" y1="678.114000703" y2="686.021722193" /><line stroke="rgb(0%,0%,0%)" x1="361.446565542" x2="360.580298467" y1="678.114000703" y2="676.920015622" /><line stroke="rgb(0%,0%,0%)" x1="360.580298467" x2="358.105459072" y1="676.920015622" y2="675.189430307" /><line stroke="rgb(0%,0%,0%)" x1="357.486792229" x2="358.105459072" y1="674.777703418" y2="675.189430307" /><line stroke="rgb(0%,0%,0%)" x1="353.389400823" x2="355.578685119" y1="674.033364397" y2="674.851552616" /><line stroke="rgb(0%,0%,0%)" x1="347.945398004" x2="353.389400823" y1="675.020254664" y2="674.033364397" /><line stroke="rgb(0%,0%,0%)" x1="368.699666932" x2="371.62052501" y1="742.128230645" y2="744.316090154" /><line stroke="rgb(0%,0%,0%)" x1="377.123027398" x2="371.62052501" y1="748.178055311" y2="744.316090154" /><line stroke="rgb(0%,0%,0%)" x1="368.699666932" x2="362.42532249" y1="742.128230645" y2="733.524136245" /><line stroke="rgb(0%,0%,0%)" x1="362.049580081" x2="362.42532249" y1="732.85818158" y2="733.524136245" /><line stroke="rgb(0%,0%,0%)" x1="361.605716829" x2="362.049580081" y1="731.554823746" y2="732.85818158" /><line stroke="rgb(0%,0%,0%)" x1="361.605716829" x2="362.597844425" y1="731.554823746" y2="724.193268186" /><line stroke="rgb(0%,0%,0%)" x1="366.102572037" x2="363.70633796" y1="716.013522262" y2="721.551115724" /><line stroke="rgb(0%,0%,0%)" x1="363.70633796" x2="362.597844425" y1="721.551115724" y2="724.193268186" /><line stroke="rgb(0%,0%,0%)" x1="365.055868007" x2="366.102572037" y1="709.878469431" y2="716.013522262" /><line stroke="rgb(0%,0%,0%)" x1="365.055868007" x2="367.095971715" y1="709.878469431" y2="700.330217405" /><line stroke="rgb(0%,0%,0%)" x1="366.593660884" x2="367.095971715" y1="694.288539364" y2="700.330217405" /><line stroke="rgb(0%,0%,0%)" x1="364.967566708" x2="366.593660884" y1="687.386923217" y2="694.288539364" /><line stroke="rgb(0%,0%,0%)" x1="285.502666262" x2="285.376807109" y1="623.210721764" y2="622.860437117" /><line stroke="rgb(0%,0%,0%)" x1="285.502666262" x2="285.649741648" y1="623.210721764" y2="623.459531539" /><line stroke="rgb(0%,0%,0%)" x1="276.285098331" x2="275.341452781" y1="587.317740346" y2="586.583220479" /><line stroke="rgb(0%,0%,0%)" x1="317.643123235" x2="310.292341952" y1="662.607959716" y2="654.534040594" /><line stroke="rgb(0%,0%,0%)" x1="317.643123235" x2="325.602025783" y1="662.607959716" y2="667.624420875" /><line stroke="rgb(0%,0%,0%)" x1="345.429978066" x2="338.821198439" y1="675.139477073" y2="673.055385626" /><line stroke="rgb(0%,0%,0%)" x1="331.200006016" x2="338.821198439" y1="670.404879839" y2="673.055385626" /><line stroke="rgb(0%,0%,0%)" x1="325.602025783" x2="331.200006016" y1="667.624420875" y2="670.404879839" /><line stroke="rgb(0%,0%,0%)" x1="355.578685119" x2="357.486792229" y1="674.851552616" y2="674.777703418" /><line stroke="rgb(0%,0%,0%)" x1="239.141537802" x2="239.602674841" y1="454.899736303" y2="452.417300272" /><line stroke="rgb(0%,0%,0%)" x1="239.141537802" x2="239.150811021" y1="454.899736303" y2="456.162689831" /><line stroke="rgb(0%,0%,0%)" x1="263.798853975" x2="256.582145314" y1="577.160044795" y2="571.995414479" /><line stroke="rgb(0%,0%,0%)" x1="278.947177189" x2="270.937056848" y1="556.796041171" y2="555.503255653" /><line stroke="rgb(0%,0%,0%)" x1="283.456386653" x2="282.95594428" y1="612.922932596" y2="605.167823658" /><line stroke="rgb(0%,0%,0%)" x1="276.477495409" x2="282.956320257" y1="587.690608846" y2="594.401295784" /><line stroke="rgb(0%,0%,0%)" x1="276.285098331" x2="276.477495409" y1="587.317740346" y2="587.690608846" /><line stroke="rgb(0%,0%,0%)" x1="271.41341326" x2="275.341452781" y1="582.642517786" y2="586.583220479" /><line stroke="rgb(0%,0%,0%)" x1="277.190371668" x2="274.586235009" y1="522.787663717" y2="521.203463221" /><line stroke="rgb(0%,0%,0%)" x1="277.190371668" x2="279.091050906" y1="522.787663717" y2="528.670691455" /><line stroke="rgb(0%,0%,0%)" x1="264.938128171" x2="272.443907527" y1="506.925184814" y2="517.674573753" /><line stroke="rgb(0%,0%,0%)" x1="272.443907527" x2="273.307859673" y1="517.674573753" y2="518.664295126" /><line stroke="rgb(0%,0%,0%)" x1="285.649741648" x2="287.085479716" y1="623.459531539" y2="625.670982366" /><line stroke="rgb(0%,0%,0%)" x1="283.456386653" x2="283.452924788" y1="612.922932596" y2="614.033621515" /><line stroke="rgb(0%,0%,0%)" x1="282.956320257" x2="282.674701446" y1="594.401295784" y2="595.088334548" /><line stroke="rgb(0%,0%,0%)" x1="278.947177189" x2="285.442475149" y1="556.796041171" y2="557.471958127" /><line stroke="rgb(0%,0%,0%)" x1="290.532896009" x2="292.01360958" y1="543.990452329" y2="545.742103016" /><line stroke="rgb(0%,0%,0%)" x1="285.947804544" x2="290.532896009" y1="539.653465602" y2="543.990452329" /><line stroke="rgb(0%,0%,0%)" x1="285.947804544" x2="284.659718886" y1="539.653465602" y2="537.557836509" /><line stroke="rgb(0%,0%,0%)" x1="280.587804667" x2="283.39765039" y1="532.725939345" y2="536.239016246" /><line stroke="rgb(0%,0%,0%)" x1="279.091050906" x2="280.587804667" y1="528.670691455" y2="532.725939345" /><line stroke="rgb(0%,0%,0%)" x1="298.903778821" x2="306.660985227" y1="644.020592965" y2="650.939768981" /><line stroke="rgb(0%,0%,0%)" x1="287.085479716" x2="298.903778821" y1="625.670982366" y2="644.020592965" /><line stroke="rgb(0%,0%,0%)" x1="301.669058432" x2="299.745117183" y1="557.385208677" y2="558.067415262" /><line stroke="rgb(0%,0%,0%)" x1="294.374354614" x2="299.745117183" y1="557.803133483" y2="558.067415262" /><line stroke="rgb(0%,0%,0%)" x1="303.111690922" x2="303.278333188" y1="555.03309154" y2="556.578050788" /><line stroke="rgb(0%,0%,0%)" x1="303.278333188" x2="301.669058432" y1="556.578050788" y2="557.385208677" /><line stroke="rgb(0%,0%,0%)" x1="301.776558746" x2="303.111690922" y1="553.679572807" y2="555.03309154" /><line stroke="rgb(0%,0%,0%)" x1="301.674198192" x2="301.776558746" y1="552.841792103" y2="553.679572807" /><line stroke="rgb(0%,0%,0%)" x1="296.036504306" x2="300.629730814" y1="548.893435037" y2="552.094354608" /><line stroke="rgb(0%,0%,0%)" x1="300.629730814" x2="301.674198192" y1="552.094354608" y2="552.841792103" /><line stroke="rgb(0%,0%,0%)" x1="292.01360958" x2="296.036504306" y1="545.742103016" y2="548.893435037" /><line stroke="rgb(0%,0%,0%)" x1="307.897641694" x2="308.634427091" y1="652.264297925" y2="652.762869115" /><line stroke="rgb(0%,0%,0%)" x1="308.634427091" x2="310.292341952" y1="652.762869115" y2="654.534040594" /><line stroke="rgb(0%,0%,0%)" x1="306.660985227" x2="307.897641694" y1="650.939768981" y2="652.264297925" /><line stroke="rgb(0%,0%,0%)" x1="244.386165525" x2="244.221808888" y1="554.333747517" y2="555.921903671" /><line stroke="rgb(0%,0%,0%)" x1="244.620086573" x2="244.386165525" y1="553.882577732" y2="554.333747517" /><line stroke="rgb(0%,0%,0%)" x1="239.150811021" x2="237.915734268" y1="456.162689831" y2="461.47641707" /><line stroke="rgb(0%,0%,0%)" x1="237.915734268" x2="237.379091281" y1="461.47641707" y2="468.578441672" /><line stroke="rgb(0%,0%,0%)" x1="247.806074098" x2="249.877184737" y1="565.440263358" y2="567.673946147" /><line stroke="rgb(0%,0%,0%)" x1="249.877184737" x2="250.504823528" y1="567.673946147" y2="568.16021043" /><line stroke="rgb(0%,0%,0%)" x1="247.806074098" x2="247.095815148" y1="565.440263358" y2="564.629472701" /><line stroke="rgb(0%,0%,0%)" x1="244.116064865" x2="246.09675183" y1="559.061268193" y2="562.722847847" /><line stroke="rgb(0%,0%,0%)" x1="247.095815148" x2="246.09675183" y1="564.629472701" y2="562.722847847" /><line stroke="rgb(0%,0%,0%)" x1="243.628234496" x2="244.116064865" y1="557.287977894" y2="559.061268193" /><line stroke="rgb(0%,0%,0%)" x1="244.620086573" x2="248.670991813" y1="553.882577732" y2="553.669408504" /><line stroke="rgb(0%,0%,0%)" x1="236.874421139" x2="252.922388029" y1="473.716824711" y2="493.636155991" /><line stroke="rgb(0%,0%,0%)" x1="263.798853975" x2="266.18472986" y1="577.160044795" y2="578.681809131" /><line stroke="rgb(0%,0%,0%)" x1="250.504823528" x2="255.373800008" y1="568.16021043" y2="571.099471748" /><line stroke="rgb(0%,0%,0%)" x1="255.373800008" x2="256.582145314" y1="571.099471748" y2="571.995414479" /><line stroke="rgb(0%,0%,0%)" x1="254.546345239" x2="253.832793781" y1="553.132929062" y2="552.950334325" /><line stroke="rgb(0%,0%,0%)" x1="253.832793781" x2="248.670991813" y1="552.950334325" y2="553.669408504" /><line stroke="rgb(0%,0%,0%)" x1="256.430039582" x2="254.546345239" y1="553.126342735" y2="553.132929062" /><line stroke="rgb(0%,0%,0%)" x1="270.937056848" x2="261.908519854" y1="555.503255653" y2="554.050285391" /><line stroke="rgb(0%,0%,0%)" x1="261.908519854" x2="256.430039582" y1="554.050285391" y2="553.126342735" /><line stroke="rgb(0%,0%,0%)" x1="264.938128171" x2="260.723003281" y1="506.925184814" y2="501.256061376" /><line stroke="rgb(0%,0%,0%)" x1="260.373888604" x2="260.723003281" y1="501.003112876" y2="501.256061376" /><line stroke="rgb(0%,0%,0%)" x1="260.373888604" x2="253.248883875" y1="501.003112876" y2="494.012944379" /><line stroke="rgb(0%,0%,0%)" x1="266.18472986" x2="268.812639419" y1="578.681809131" y2="580.474905229" /><line stroke="rgb(0%,0%,0%)" x1="271.41341326" x2="268.812639419" y1="582.642517786" y2="580.474905229" /><line stroke="rgb(0%,0%,0%)" x1="283.39765039" x2="283.915523734" y1="536.239016246" y2="536.588468195" /><line stroke="rgb(0%,0%,0%)" x1="273.307859673" x2="274.586235009" y1="518.664295126" y2="521.203463221" /><line stroke="rgb(0%,0%,0%)" x1="283.393719815" x2="285.376807109" y1="615.443617934" y2="622.860437117" /><line stroke="rgb(0%,0%,0%)" x1="283.452924788" x2="283.393719815" y1="614.033621515" y2="615.443617934" /><line stroke="rgb(0%,0%,0%)" x1="284.198134033" x2="284.659718886" y1="537.024482471" y2="537.557836509" /><line stroke="rgb(0%,0%,0%)" x1="283.915523734" x2="284.198134033" y1="536.588468195" y2="537.024482471" /><line stroke="rgb(0%,0%,0%)" x1="236.881407693" x2="236.874421139" y1="470.450059828" y2="473.716824711" /><line stroke="rgb(0%,0%,0%)" x1="237.379091281" x2="236.881407693" y1="468.578441672" y2="470.450059828" /><line stroke="rgb(0%,0%,0%)" x1="244.221808888" x2="243.628234496" y1="555.921903671" y2="557.287977894" /><line stroke="rgb(0%,0%,0%)" x1="252.922388029" x2="253.248883875" y1="493.636155991" y2="494.012944379" /><line stroke="rgb(0%,0%,0%)" x1="242.513821727" x2="241.434236376" y1="440.455616783" y2="445.647010711" /><line stroke="rgb(0%,0%,0%)" x1="239.602674841" x2="241.434236376" y1="452.417300272" y2="445.647010711" /><line stroke="rgb(0%,0%,0%)" x1="282.619933253" x2="282.95594428" y1="600.714418652" y2="605.167823658" /><line stroke="rgb(0%,0%,0%)" x1="282.96413356" x2="282.619933253" y1="598.097100512" y2="600.714418652" /><line stroke="rgb(0%,0%,0%)" x1="294.374354614" x2="285.442475149" y1="557.803133483" y2="557.471958127" /><line stroke="rgb(0%,0%,0%)" x1="282.674701446" x2="282.96413356" y1="595.088334548" y2="598.097100512" /></svg>